<?xml version="1.0" standalone="no"?>
<!DOCTYPE svg PUBLIC "-//W3C//DTD SVG 20010904//EN"
 "http://www.w3.org/TR/2001/REC-SVG-20010904/DTD/svg10.dtd">
<svg version="1.0" xmlns="http://www.w3.org/2000/svg"
 width="1618.000000pt" height="1214.000000pt" viewBox="0 0 1618.000000 1214.000000"
 preserveAspectRatio="xMidYMid meet">

<g transform="translate(0.000000,1214.000000) scale(0.100000,-0.100000)"
fill="#000000" stroke="none">
<path d="M14294 11683 c-30 -90 -61 -146 -89 -158 -70 -30 -113 -107 -90 -161
11 -27 9 -37 -31 -119 -48 -99 -60 -142 -45 -165 13 -19 21 -10 26 30 3 18 23
72 47 122 42 88 42 89 73 81 61 -16 114 -7 146 23 52 49 31 125 -43 154 -18 8
-34 14 -36 15 -1 1 13 35 33 76 19 40 35 81 35 91 0 24 -19 33 -26 11z m-120
-262 c-14 -28 -28 -51 -30 -51 -2 0 -4 13 -4 29 0 30 51 103 58 83 2 -6 -9
-33 -24 -61z m115 34 c92 -47 22 -143 -82 -114 l-37 10 31 59 c33 64 43 69 88
45z"/>
<path d="M12382 11638 c-5 -7 -26 -47 -47 -88 -33 -66 -39 -72 -50 -56 -10 13
-18 15 -32 8 -10 -5 -39 -12 -65 -16 -25 -4 -51 -13 -58 -21 -14 -17 1 -28 26
-18 14 5 16 3 9 -13 -20 -47 -17 -90 8 -120 l25 -29 -39 -73 c-38 -71 -51
-128 -28 -120 6 2 19 24 28 48 30 80 71 140 94 140 34 1 103 35 121 61 31 45
13 115 -33 130 -8 3 0 25 20 63 24 45 28 58 16 53 -9 -3 -17 -4 -17 -1 0 3 14
10 30 15 33 12 37 21 16 38 -10 8 -16 8 -24 -1z m-102 -188 c0 -19 -60 -130
-70 -130 -13 0 -30 34 -30 60 0 27 52 80 79 80 12 0 21 -5 21 -10z m68 -22
c33 -33 -9 -101 -68 -110 l-29 -4 20 38 c11 21 24 50 29 63 10 27 29 32 48 13z"/>
<path d="M14463 11593 c-3 -10 -20 -56 -38 -103 -44 -115 -62 -197 -47 -212
13 -13 14 -12 37 81 9 35 29 97 46 137 16 41 29 83 29 94 0 25 -18 26 -27 3z"/>
<path d="M14633 11583 c-50 -17 -55 -38 -18 -73 26 -25 35 -73 12 -64 -18 7
-56 -36 -63 -72 -14 -71 76 -86 135 -23 22 24 28 77 12 108 -8 14 1 25 45 59
55 42 64 64 30 70 -10 2 -19 -4 -22 -15 -3 -10 -23 -30 -45 -46 -41 -28 -60
-27 -88 7 -10 12 -6 16 33 21 48 8 54 13 34 33 -14 14 -10 14 -65 -5z m55
-169 c4 -36 -23 -64 -64 -67 -25 -2 -29 1 -26 23 3 30 51 82 72 78 9 -2 16
-16 18 -34z"/>
<path d="M12548 11558 c-6 -18 -35 -79 -65 -135 -53 -103 -67 -163 -38 -163 9
0 15 9 15 23 0 12 25 72 55 132 57 115 76 175 56 175 -7 0 -17 -15 -23 -32z"/>
<path d="M13949 11574 c-51 -15 -72 -34 -67 -59 3 -15 6 -15 28 3 26 20 100
45 109 37 20 -20 -95 -150 -141 -159 -32 -6 -118 -70 -118 -87 0 -17 35 -9 89
21 30 17 55 30 56 30 2 0 6 -16 9 -35 7 -33 29 -65 46 -65 12 0 40 29 40 41 0
6 -10 9 -22 7 -19 -2 -25 4 -35 37 -12 39 -12 39 37 91 63 67 88 117 70 139
-15 18 -40 18 -101 -1z"/>
<path d="M13290 11551 c0 -6 -6 -11 -14 -11 -17 0 -66 -49 -66 -66 0 -34 58
-37 135 -8 9 4 4 -18 -16 -66 -34 -84 -60 -180 -53 -192 8 -12 34 11 34 29 0
20 37 128 72 207 36 84 29 97 -37 62 -26 -15 -60 -26 -74 -26 l-26 1 29 25
c21 19 35 24 53 19 20 -5 24 -2 21 12 -3 19 -58 32 -58 14z"/>
<path d="M12982 11515 c-29 -13 -51 -29 -47 -35 9 -15 26 -12 70 10 45 23 95
27 95 7 0 -34 -85 -126 -157 -171 -40 -24 -63 -52 -63 -75 0 -21 28 -11 77 29
28 22 53 37 57 33 3 -3 6 -19 6 -34 0 -33 36 -71 64 -67 26 4 33 28 9 28 -28
0 -43 20 -43 56 0 18 -5 36 -10 39 -6 4 10 30 35 62 73 89 72 136 -1 141 -25
1 -58 -6 -92 -23z"/>
<path d="M2455 11428 c-78 -28 -166 -115 -180 -178 -9 -41 13 -76 95 -149 114
-102 135 -154 83 -203 -43 -40 -88 -58 -144 -58 -60 0 -125 32 -154 76 -12 18
-20 23 -27 16 -16 -16 14 -56 63 -89 76 -50 181 -47 255 9 46 36 64 65 64 104
0 41 -25 77 -103 150 -101 95 -112 113 -94 156 18 41 78 102 121 121 41 19 86
32 67 19 -15 -11 -5 -36 10 -26 6 4 8 -12 4 -43 -8 -57 7 -106 32 -101 22 4
62 85 63 126 0 68 -70 100 -155 70z m125 -65 c0 -26 -23 -83 -33 -83 -9 0 -1
86 10 103 7 12 23 -2 23 -20z"/>
<path d="M6971 11291 c-45 -56 -41 -83 6 -39 20 19 23 19 23 4 0 -10 -14 -60
-31 -111 l-31 -94 -52 -5 c-28 -4 -69 -7 -91 -9 -71 -4 -33 -22 48 -22 42 0
77 -2 77 -5 0 -3 -9 -28 -19 -56 -27 -70 -39 -158 -20 -152 7 2 20 33 30 69
32 123 42 144 77 147 23 2 32 8 32 21 0 14 -6 17 -25 13 -30 -5 -30 -6 -4 59
11 29 27 81 35 117 24 105 0 133 -55 63z"/>
<path d="M12567 11304 c-13 -13 -7 -24 14 -24 11 0 19 5 17 12 -5 14 -22 21
-31 12z"/>
<path d="M3415 11280 c-3 -5 0 -18 6 -28 9 -15 7 -37 -15 -112 -15 -52 -40
-128 -57 -169 -17 -42 -33 -97 -36 -123 -5 -45 -4 -48 17 -48 20 0 22 4 16 31
-4 21 2 50 19 92 30 76 83 240 91 284 3 18 3 44 0 58 -6 25 -29 34 -41 15z"/>
<path d="M13403 11268 c2 -7 12 -13 22 -13 10 0 20 6 23 13 2 7 -6 12 -23 12
-17 0 -25 -5 -22 -12z"/>
<path d="M7142 11238 c-7 -7 -8 -16 -2 -23 6 -7 -5 -48 -31 -115 -63 -162 -79
-211 -79 -236 0 -36 17 -37 38 -2 12 18 35 47 53 63 l32 30 -8 -30 c-4 -16 -9
-49 -12 -73 -4 -35 -2 -41 10 -36 16 6 27 50 30 119 2 33 -1 40 -19 43 -11 2
-32 -8 -47 -22 -15 -14 -27 -24 -27 -22 0 2 21 57 46 122 46 119 64 172 64
186 0 12 -35 9 -48 -4z"/>
<path d="M5669 11208 c-1 -7 -1 -19 0 -26 1 -7 -10 -54 -24 -105 -21 -74 -32
-97 -58 -119 -23 -20 -29 -30 -19 -36 9 -7 8 -21 -8 -67 -12 -36 -17 -62 -11
-68 14 -14 28 -1 34 33 12 56 48 128 68 133 35 9 73 -8 84 -37 7 -20 5 -40 -7
-74 -10 -26 -13 -51 -9 -55 15 -15 44 40 49 91 3 38 0 53 -18 75 -12 15 -28
27 -36 27 -8 0 -14 4 -14 9 0 13 90 78 114 82 25 5 44 35 30 49 -7 7 -37 -9
-99 -51 -76 -54 -87 -59 -81 -38 28 98 45 173 40 180 -8 13 -34 11 -35 -3z"/>
<path d="M10183 11176 c-10 -19 -30 -57 -45 -84 l-27 -50 -76 -7 c-41 -4 -75
-11 -75 -15 0 -15 38 -21 85 -14 25 3 45 4 45 2 0 -2 -13 -32 -30 -66 -36 -75
-37 -101 -6 -131 31 -29 116 -42 116 -19 0 10 -14 17 -40 21 -80 10 -87 43
-29 143 32 57 31 56 141 69 56 7 78 14 78 26 0 11 -57 11 -122 0 -27 -4 -48
-5 -48 -1 0 3 18 36 40 73 22 36 40 71 40 76 0 24 -29 9 -47 -23z"/>
<path d="M8118 11189 c-22 -12 -23 -29 -3 -29 8 0 15 -1 15 -3 0 -16 -54 -154
-79 -201 -55 -103 -36 -131 41 -61 l51 46 13 -30 c14 -33 33 -40 88 -30 38 7
56 21 56 47 0 17 -27 15 -34 -4 -9 -24 -80 -15 -84 11 -10 50 -36 50 -89 2
-30 -26 -29 -18 3 46 55 107 81 217 52 217 -7 0 -21 -5 -30 -11z"/>
<path d="M2660 11160 c0 -13 48 -36 56 -27 4 3 4 13 1 22 -7 17 -57 21 -57 5z"/>
<path d="M11608 11012 c-78 -157 -96 -222 -63 -222 10 0 15 10 15 30 0 28 126
286 157 321 12 14 12 17 -2 23 -9 3 -20 6 -23 5 -4 0 -42 -71 -84 -157z"/>
<path d="M12413 11033 c-21 -32 -37 -59 -38 -59 0 -1 -25 -5 -54 -8 -30 -4
-57 -8 -59 -11 -12 -11 14 -25 48 -25 l38 0 -10 -40 c-21 -80 23 -125 96 -100
52 17 46 34 -9 26 -42 -7 -46 -5 -55 18 -6 18 -6 38 3 63 l12 38 76 6 c81 7
103 14 93 31 -4 6 -32 7 -76 3 l-70 -7 18 28 c10 16 26 39 37 51 18 20 16 43
-3 43 -6 0 -27 -26 -47 -57z"/>
<path d="M4732 11040 c-34 -23 -62 -46 -62 -51 0 -18 32 -8 81 26 54 37 85 45
75 20 -3 -8 -27 -48 -54 -87 -56 -85 -63 -100 -52 -118 9 -15 1 -20 110 63 34
26 66 47 71 47 5 0 16 -18 25 -40 26 -65 76 -63 108 4 20 42 23 170 4 164 -8
-3 -15 -32 -19 -75 -8 -102 -46 -139 -69 -68 -19 59 -39 61 -113 12 l-64 -43
49 75 c27 41 47 82 46 90 -2 10 -16 17 -39 19 -28 2 -48 -6 -97 -38z"/>
<path d="M12727 11064 c-9 -10 12 -34 30 -34 19 0 12 34 -8 38 -8 1 -18 0 -22
-4z"/>
<path d="M5376 11020 c-14 -17 -29 -30 -33 -29 -4 1 -11 -13 -14 -32 -3 -19
-10 -46 -14 -61 -5 -21 -4 -28 7 -28 9 0 27 27 42 65 33 77 47 91 75 76 27
-15 41 7 16 26 -29 20 -51 16 -79 -17z"/>
<path d="M3138 11013 c-18 -16 -35 -32 -37 -36 -1 -4 -9 0 -15 9 -20 26 -33
10 -39 -49 -4 -29 -22 -98 -41 -152 -19 -55 -32 -103 -29 -107 13 -22 32 -1
52 57 21 58 26 65 50 65 79 0 195 157 161 220 -16 29 -62 26 -102 -7z m72 -28
c0 -37 -23 -76 -69 -118 -48 -43 -86 -50 -76 -14 16 51 39 89 76 122 47 42 69
45 69 10z"/>
<path d="M3537 11026 c-57 -44 -97 -138 -76 -178 17 -32 28 -38 79 -38 57 0
112 15 142 39 33 27 14 38 -29 17 -21 -10 -62 -20 -92 -24 -61 -6 -82 9 -74
52 4 18 13 25 41 30 21 3 50 17 67 30 26 21 29 27 20 52 -12 33 -49 42 -78 20z
m43 -30 c0 -17 -17 -31 -50 -41 -25 -7 -25 -7 4 24 32 34 46 39 46 17z"/>
<path d="M3760 11030 c0 -5 16 -31 36 -57 l35 -46 -60 -39 c-58 -37 -76 -58
-48 -58 7 0 37 15 67 34 l54 34 32 -47 c40 -59 59 -75 81 -66 16 6 16 8 -4 23
-12 9 -36 37 -52 62 l-30 44 60 38 c32 21 59 44 59 53 0 20 -2 20 -64 -20 -30
-19 -59 -35 -65 -35 -5 0 -24 20 -42 45 -30 41 -59 59 -59 35z"/>
<path d="M5967 11030 c-70 -13 -70 -35 0 -113 19 -21 32 -44 30 -50 -2 -8 -27
-12 -65 -12 -63 0 -87 -10 -62 -25 26 -16 137 -12 154 6 24 24 20 38 -30 99
-25 31 -44 58 -42 61 2 2 26 5 54 7 36 2 50 7 52 20 4 19 -21 21 -91 7z"/>
<path d="M2787 11019 c-19 -11 -90 -104 -100 -131 -3 -9 0 -21 7 -27 15 -13
26 -5 26 19 0 9 22 41 50 71 l49 54 -20 -63 c-20 -59 -20 -92 -2 -92 5 0 29
27 53 60 62 82 74 85 65 15 -5 -45 -4 -55 9 -55 10 0 17 14 21 43 11 69 4 92
-26 95 -20 2 -34 -6 -59 -35 -18 -21 -29 -29 -25 -18 16 39 11 70 -10 72 -11
2 -28 -2 -38 -8z"/>
<path d="M9120 11019 c-20 -6 -49 -20 -65 -33 l-29 -23 22 -42 c12 -23 22 -46
22 -51 0 -10 -72 -50 -90 -50 -5 0 -10 7 -10 16 0 9 -6 14 -12 12 -7 -3 -13
-16 -13 -29 0 -19 6 -25 27 -27 30 -4 123 40 131 61 3 8 -4 33 -15 56 -15 32
-18 44 -9 55 17 20 51 28 44 10 -7 -18 27 -19 51 -1 21 15 18 51 -4 53 -8 1
-31 -2 -50 -7z"/>
<path d="M10934 11011 c-17 -10 -40 -30 -50 -44 -11 -14 -29 -26 -39 -28 -22
-5 -33 -29 -13 -29 8 0 19 -15 26 -34 8 -21 23 -38 40 -45 38 -15 180 -8 218
12 30 16 32 15 54 -8 13 -14 29 -25 36 -25 27 0 25 23 -2 46 -16 13 -24 23
-17 24 7 0 28 14 48 31 26 23 33 35 25 43 -8 8 -13 8 -18 0 -9 -15 -74 -54
-89 -54 -6 0 -26 12 -43 26 -39 34 -62 19 -25 -16 30 -28 31 -36 8 -45 -36
-13 -174 -17 -189 -5 -28 24 -16 46 42 69 63 27 94 62 74 86 -17 20 -49 19
-86 -4z m56 -19 c0 -10 -71 -45 -77 -38 -5 5 56 46 70 46 4 0 7 -4 7 -8z"/>
<path d="M2606 10998 c-2 -7 -12 -39 -22 -70 -14 -45 -15 -61 -6 -70 14 -14
21 -8 27 24 3 14 12 42 21 63 16 38 13 65 -6 65 -6 0 -12 -6 -14 -12z"/>
<path d="M5140 10978 c-31 -51 -35 -76 -14 -99 23 -25 67 -19 101 13 32 30 29
61 -8 92 -40 34 -55 33 -79 -6z m64 -24 c19 -19 20 -28 4 -41 -21 -16 -44 -22
-57 -13 -10 6 -9 14 3 39 19 35 28 38 50 15z"/>
<path d="M9327 10993 c-12 -12 -17 -13 -17 -4 0 7 -7 11 -15 9 -20 -4 -97
-145 -84 -154 5 -3 39 26 76 66 36 39 67 69 70 67 2 -3 -5 -31 -16 -63 -25
-76 -14 -90 36 -43 21 18 41 40 46 47 18 27 30 11 24 -35 -6 -52 6 -93 25 -93
10 0 13 26 13 100 1 56 -3 100 -9 100 -5 0 -28 -16 -52 -36 l-44 -35 6 45 c6
44 5 46 -17 46 -14 0 -32 -8 -42 -17z"/>
<path d="M9825 10999 c-56 -32 -105 -102 -105 -150 0 -34 27 -20 38 20 17 54
83 114 118 105 22 -6 25 -4 22 12 -4 22 -44 29 -73 13z"/>
<path d="M7239 10962 c-37 -36 -65 -93 -51 -106 13 -13 28 -4 40 23 25 56 51
82 78 75 28 -7 32 7 8 30 -22 23 -30 20 -75 -22z"/>
<path d="M9585 10948 c-25 -28 -45 -58 -43 -66 5 -26 34 -37 65 -26 23 8 31 6
43 -9 10 -11 22 -16 33 -12 21 9 23 35 2 35 -19 0 -19 11 0 36 16 22 20 54 5
54 -5 0 -17 -11 -26 -26 -15 -21 -61 -54 -79 -54 -15 0 -1 22 35 56 22 21 40
44 40 51 0 27 -30 11 -75 -39z"/>
<path d="M7556 10978 c-3 -7 -9 -28 -15 -47 -25 -76 -4 -131 49 -131 32 0 86
61 94 107 4 21 10 46 12 56 5 14 1 18 -12 15 -13 -2 -21 -16 -26 -48 -5 -29
-18 -55 -37 -74 -56 -55 -81 -5 -41 83 11 24 20 45 20 47 0 10 -41 2 -44 -8z"/>
<path d="M7786 10950 c-48 -44 -56 -69 -31 -90 24 -20 83 6 107 46 11 19 22
34 25 34 3 0 3 -33 0 -72 -4 -40 -7 -83 -7 -96 0 -21 -3 -22 -47 -16 -58 7
-97 -17 -107 -67 -8 -40 26 -116 58 -130 49 -23 109 33 123 114 l6 38 41 -6
c22 -4 45 -8 50 -9 5 0 10 4 13 11 4 11 -54 33 -89 33 -16 0 -17 10 -12 103 7
115 0 133 -53 143 -27 5 -37 0 -77 -36z m54 -19 c-13 -26 -58 -56 -68 -47 -4
4 10 23 31 43 41 37 56 38 37 4z m10 -207 c30 -7 31 -8 25 -43 -11 -58 -33
-91 -60 -91 -47 0 -75 88 -39 124 17 18 27 19 74 10z"/>
<path d="M11417 10956 c-33 -25 -48 -31 -56 -23 -17 17 -25 2 -61 -103 -18
-52 -46 -121 -62 -152 -27 -52 -31 -87 -7 -72 5 3 32 50 59 105 28 54 56 99
63 99 23 0 115 71 142 110 51 73 0 96 -78 36z m14 -57 c-29 -28 -56 -48 -58
-45 -8 8 40 66 71 86 51 32 44 11 -13 -41z"/>
<path d="M11748 10964 c-4 -3 0 -17 8 -32 8 -15 14 -35 14 -45 0 -24 -44 -67
-69 -67 -32 0 -35 19 -8 57 15 20 24 40 21 45 -9 15 -41 -11 -58 -47 -16 -33
-16 -38 -2 -61 25 -37 70 -32 113 11 33 33 35 39 29 81 -3 25 -8 50 -12 55 -6
10 -28 12 -36 3z"/>
<path d="M11900 10957 c-28 -14 -70 -82 -70 -114 0 -38 19 -26 43 26 24 54 50
73 84 60 29 -11 42 10 18 28 -23 16 -43 16 -75 0z"/>
<path d="M7380 10947 c-14 -7 -26 -21 -26 -32 -1 -11 -6 -31 -12 -46 -14 -35
2 -59 39 -59 37 0 85 24 99 49 14 28 -7 80 -37 92 -31 11 -33 11 -63 -4z m68
-54 c3 -23 -30 -53 -60 -53 -22 0 -23 12 -2 51 18 36 57 38 62 2z"/>
<path d="M12118 10940 c-45 -24 -80 -67 -76 -94 5 -32 33 -31 90 4 37 23 49
27 44 15 -16 -42 -17 -62 -2 -74 20 -17 37 -5 31 22 -4 13 3 43 14 67 l20 45
-22 17 c-28 22 -53 22 -99 -2z m62 -18 c0 -4 -8 -12 -17 -18 -10 -5 -36 -21
-58 -34 l-40 -24 20 24 c32 37 95 72 95 52z"/>
<path d="M12771 10930 c-68 -68 -15 -139 74 -98 28 13 38 39 33 89 -3 31 -6
34 -39 37 -30 2 -42 -3 -68 -28z m79 -28 c0 -34 -16 -52 -47 -52 -34 0 -40 27
-13 56 32 34 60 32 60 -4z"/>
<path d="M12938 10887 c-27 -40 -48 -76 -48 -80 0 -18 32 -1 100 53 41 33 78
60 82 60 10 0 9 -19 -1 -45 -12 -29 5 -55 37 -55 33 0 64 19 45 27 -7 2 -13
11 -13 20 0 8 -6 13 -12 10 -7 -2 -12 -10 -10 -16 1 -6 -3 -11 -9 -11 -7 0 -9
9 -5 23 4 12 9 37 13 55 5 29 3 32 -18 32 -14 0 -41 -11 -61 -25 -44 -30 -58
-32 -35 -7 17 18 14 32 -7 32 -6 0 -32 -33 -58 -73z"/>
<path d="M12606 10890 c-29 -57 -33 -80 -13 -80 11 0 59 93 59 115 -1 28 -23
10 -46 -35z"/>
<path d="M2683 10418 c-6 -7 -18 -44 -28 -83 -9 -38 -27 -99 -38 -135 l-22
-65 -64 -16 c-70 -17 -93 -39 -42 -39 16 0 42 5 57 10 15 6 28 9 30 8 1 -2 -6
-35 -17 -73 -23 -82 -24 -115 -5 -115 9 0 16 17 20 45 4 25 15 69 25 98 15 44
23 54 49 62 35 10 38 28 5 33 -20 3 -19 7 18 130 41 133 45 152 30 152 -5 0
-13 -6 -18 -12z"/>
<path d="M10238 10342 c-33 -67 -123 -229 -139 -248 -6 -8 -22 -14 -36 -14
-13 0 -22 -4 -19 -9 3 -4 -5 -6 -18 -4 -15 3 -25 -1 -29 -11 -8 -20 8 -29 30
-18 10 5 31 12 47 16 25 6 27 5 13 -8 -29 -30 -81 -146 -70 -157 8 -8 25 16
59 81 l49 91 57 -3 c62 -3 83 7 55 27 -11 8 -33 11 -58 8 -21 -3 -39 -3 -39
-1 0 6 35 71 95 178 48 84 63 130 43 130 -7 -1 -25 -26 -40 -58z"/>
<path d="M2827 10313 c-41 -127 -71 -227 -72 -238 0 -5 -2 -12 -5 -15 -15 -14
-39 -95 -31 -103 9 -9 41 35 87 121 14 25 27 48 31 51 3 3 3 0 -1 -6 -9 -15
-1 -16 23 -4 9 5 23 6 30 1 11 -6 7 -22 -18 -75 -31 -68 -40 -115 -21 -115 6
0 13 8 16 18 3 9 19 48 36 86 17 42 27 78 24 92 -8 32 -50 39 -92 15 -19 -11
-34 -19 -34 -18 0 1 18 58 40 127 45 143 45 140 26 140 -9 0 -24 -29 -39 -77z"/>
<path d="M5936 10340 c-24 -22 -60 -71 -80 -109 -33 -64 -38 -68 -91 -86 -31
-11 -55 -25 -55 -33 0 -14 3 -14 68 4 23 6 22 3 -17 -74 -39 -78 -51 -122 -32
-122 4 0 32 50 61 110 44 90 57 109 71 105 30 -10 89 6 89 22 0 12 -8 14 -38
9 -22 -3 -42 -3 -45 1 -4 3 8 32 25 65 47 89 128 151 128 98 0 -26 16 -26 30
1 15 27 -3 49 -41 49 -20 0 -43 -13 -73 -40z"/>
<path d="M2029 10333 c-44 -38 -92 -115 -121 -198 -17 -46 -32 -73 -47 -80
-24 -11 -27 -23 -7 -31 12 -5 12 -12 -1 -50 -15 -43 -12 -81 5 -70 5 3 17 33
27 67 13 41 25 64 37 67 10 2 18 7 18 11 0 4 12 7 27 6 14 0 28 6 31 14 4 11
-4 13 -37 8 -22 -3 -41 -4 -41 -3 0 20 47 127 73 169 47 73 107 114 107 72 0
-20 19 -19 26 0 8 21 -14 45 -41 45 -13 0 -38 -12 -56 -27z"/>
<path d="M8421 10331 c-6 -10 -13 -32 -15 -48 -3 -16 -19 -59 -36 -96 -48
-106 -93 -258 -81 -270 15 -15 19 -10 47 89 15 49 46 134 70 189 42 95 55 155
34 155 -5 0 -14 -8 -19 -19z"/>
<path d="M9775 10340 c-4 -6 -50 -98 -101 -203 -60 -122 -94 -201 -92 -217 4
-37 19 -30 33 15 6 22 52 120 100 218 63 126 85 181 78 188 -8 8 -13 7 -18 -1z"/>
<path d="M7776 10308 c-3 -7 -14 -47 -26 -88 -23 -80 -39 -100 -80 -100 -25 0
-50 -16 -50 -32 0 -5 18 -5 40 -2 48 8 48 6 15 -82 -27 -72 -32 -108 -13 -102
6 2 27 48 46 101 l34 96 67 3 c83 4 87 22 5 26 l-62 3 28 87 c16 48 26 90 24
94 -8 12 -24 9 -28 -4z"/>
<path d="M8149 10295 c-4 -61 -44 -176 -96 -278 -44 -84 -45 -88 -29 -112 21
-32 75 -34 131 -4 77 40 113 103 80 139 -26 29 -65 25 -114 -12 l-43 -31 25
49 c14 27 37 89 52 137 26 82 27 90 11 105 -9 9 -16 12 -17 7z m65 -280 c15
-39 -103 -119 -150 -101 -16 6 -15 8 2 28 30 33 107 87 125 88 9 0 19 -7 23
-15z"/>
<path d="M10406 10185 c-10 -27 -7 -32 20 -32 20 0 24 4 22 21 -4 25 -33 33
-42 11z"/>
<path d="M7473 10168 c-50 -24 -126 -176 -189 -378 -17 -57 -17 -60 1 -60 17
0 42 52 70 147 17 59 20 62 45 56 48 -9 112 38 159 117 29 48 27 84 -5 109
-29 23 -48 25 -81 9z m59 -29 c15 -8 18 -17 13 -37 -10 -43 -51 -98 -90 -122
-33 -20 -38 -21 -52 -8 -13 14 -12 21 7 67 13 28 38 65 57 81 38 34 37 34 65
19z"/>
<path d="M4672 10116 c-36 -41 -57 -103 -48 -139 3 -15 19 -31 41 -41 33 -16
42 -16 115 -2 90 17 150 42 150 62 0 18 -4 17 -40 -1 -16 -8 -64 -22 -106 -30
-62 -12 -82 -12 -102 -2 -33 16 -40 37 -12 37 12 0 35 14 51 32 25 26 29 38
27 72 -4 56 -33 60 -76 12z m44 -30 c-10 -39 -56 -76 -56 -44 0 15 51 81 57
74 3 -3 3 -16 -1 -30z"/>
<path d="M8512 10130 c-41 -25 -92 -105 -92 -142 0 -17 10 -39 25 -53 21 -22
33 -25 93 -25 70 0 112 16 98 39 -5 8 -13 8 -26 1 -10 -5 -43 -10 -73 -10
-107 0 -120 75 -18 111 65 22 93 46 89 73 -4 29 -54 32 -96 6z m63 -19 c-11
-10 -85 -42 -85 -36 0 1 15 12 33 24 32 21 70 30 52 12z"/>
<path d="M10971 10130 c-29 -11 -59 -24 -67 -31 -22 -18 -17 -54 12 -89 15
-17 23 -35 18 -39 -15 -13 -75 -31 -105 -31 -31 0 -49 -18 -30 -30 31 -19 173
30 179 62 2 9 -11 32 -29 52 -39 45 -32 57 49 80 31 10 63 19 70 22 20 6 4 24
-21 24 -12 -1 -46 -9 -76 -20z"/>
<path d="M3855 10126 c-40 -17 -95 -65 -95 -82 0 -7 14 -29 30 -47 17 -19 30
-37 30 -40 0 -10 -68 -48 -82 -45 -7 2 -13 -4 -13 -12 0 -39 88 -5 122 47 14
21 12 25 -21 59 -24 24 -33 41 -27 48 11 13 63 41 104 55 15 6 27 15 27 21 0
14 -39 12 -75 -4z"/>
<path d="M4105 10123 c-16 -8 -40 -24 -51 -35 -14 -13 -24 -16 -29 -9 -12 21
-24 11 -31 -26 -4 -21 -15 -55 -26 -76 -10 -21 -16 -42 -13 -46 3 -5 1 -11 -4
-13 -5 -1 -11 -10 -13 -18 -2 -8 -7 -18 -11 -21 -4 -3 -9 -16 -10 -27 -1 -12
-4 -22 -8 -22 -6 0 -39 -78 -39 -93 0 -4 7 -7 15 -7 14 0 105 175 105 203 0 8
3 8 12 -1 43 -43 171 50 193 141 12 47 -41 76 -90 50z m55 -46 c0 -28 -52 -92
-92 -113 -27 -14 -32 -14 -46 0 -14 13 -13 19 12 56 45 68 126 105 126 57z"/>
<path d="M5526 10125 c-3 -8 -1 -17 5 -21 7 -4 5 -12 -4 -22 -34 -39 -38 -118
-7 -137 6 -4 32 -4 58 0 90 13 142 105 93 166 -15 18 -29 23 -79 25 -44 2 -62
-1 -66 -11z m127 -46 c26 -42 -22 -100 -85 -103 -32 -1 -33 0 -32 38 1 29 8
44 30 62 32 26 72 28 87 3z"/>
<path d="M3064 10120 c-56 -22 -106 -118 -89 -170 9 -30 63 -60 107 -60 44 0
52 10 32 38 -17 25 -49 30 -40 7 8 -22 -17 -19 -48 6 -42 33 -33 69 23 90 49
18 75 53 60 81 -11 20 -15 21 -45 8z m16 -35 c0 -2 -10 -10 -22 -16 -21 -11
-22 -11 -9 4 13 16 31 23 31 12z"/>
<path d="M4479 10087 c-37 -43 -61 -85 -73 -124 -11 -33 24 -63 74 -63 29 0
40 4 40 15 0 11 -11 15 -35 15 -23 0 -38 6 -42 16 -9 25 28 93 74 134 49 43
52 50 20 50 -15 0 -36 -15 -58 -43z"/>
<path d="M6951 10086 c-22 -22 -34 -47 -38 -73 -5 -35 -2 -43 23 -62 16 -13
38 -21 53 -19 33 4 40 28 9 28 -13 0 -33 6 -43 14 -28 20 -10 74 35 104 43 29
49 42 18 42 -14 0 -38 -14 -57 -34z"/>
<path d="M9323 10097 c-53 -26 -62 -50 -34 -88 12 -16 19 -34 16 -39 -9 -14
-59 -12 -73 2 -10 10 -15 10 -22 -2 -23 -38 66 -58 115 -26 31 20 31 24 0 66
-28 38 -25 46 31 65 22 7 40 20 42 29 5 22 -23 20 -75 -7z"/>
<path d="M1647 10079 c-63 -52 -85 -119 -51 -154 23 -22 71 -11 109 26 26 25
30 37 30 80 0 39 -5 54 -19 65 -26 19 -26 19 -69 -17z m63 -49 c0 -46 -43 -85
-87 -81 -32 3 5 83 49 107 29 16 38 10 38 -26z"/>
<path d="M4329 10103 c-1 -5 -1 -12 0 -17 1 -5 -5 -4 -13 3 -20 17 -44 3 -90
-51 -38 -43 -47 -85 -21 -94 8 -3 39 8 68 24 l54 30 -10 -38 c-8 -29 -8 -42 2
-54 20 -24 34 -19 27 9 -4 16 3 46 19 85 29 68 30 80 11 80 -8 0 -16 7 -20 15
-6 15 -25 21 -27 8z m-9 -64 c-40 -34 -90 -63 -97 -56 -2 3 13 23 35 46 28 30
47 41 68 41 l29 -1 -35 -30z"/>
<path d="M6790 10081 c-20 -16 -44 -45 -55 -64 -16 -30 -17 -39 -5 -66 13 -33
39 -45 84 -39 40 5 36 23 -6 26 -55 5 -66 30 -34 81 14 21 39 45 55 52 17 8
30 18 28 24 -7 20 -33 15 -67 -14z"/>
<path d="M7169 10077 c-95 -64 -69 -166 44 -169 26 0 50 2 53 5 14 13 -10 27
-47 27 -22 0 -49 5 -60 10 -20 11 -26 40 -8 40 5 0 7 5 3 11 -4 7 0 9 14 5 27
-9 82 38 82 70 0 32 -35 32 -81 1z m21 -37 c-24 -15 -37 -11 -16 5 11 8 22 12
25 9 3 -3 -1 -9 -9 -14z"/>
<path d="M7890 10083 c-49 -32 -80 -67 -80 -90 0 -29 31 -31 80 -4 l35 19 -3
-37 c-4 -44 17 -77 43 -67 17 6 17 7 0 26 -16 17 -17 27 -8 66 8 36 8 52 -4
75 -17 33 -29 36 -63 12z m40 -31 c0 -4 -17 -16 -37 -27 -58 -29 -61 -29 -23
4 33 30 60 40 60 23z"/>
<path d="M9520 10085 c0 -8 7 -15 15 -15 21 0 29 -24 16 -48 -11 -21 -68 -52
-95 -52 -9 0 -16 6 -16 14 0 16 42 46 65 46 18 0 20 36 3 43 -17 5 -94 -58
-101 -83 -9 -35 15 -54 63 -47 85 11 149 97 105 141 -21 20 -55 21 -55 1z"/>
<path d="M6534 10068 c-64 -50 -91 -99 -68 -123 20 -19 30 -19 80 4 l42 19 6
-29 c9 -45 36 -38 35 9 -1 20 6 51 15 67 22 41 21 59 -3 52 -12 -3 -22 1 -25
9 -8 21 -50 17 -82 -8z m61 -25 c11 -31 -81 -91 -103 -68 -7 7 74 85 88 85 4
0 11 -8 15 -17z"/>
<path d="M10680 10061 c-22 -19 -39 -26 -46 -21 -6 6 -29 -12 -63 -50 -40 -46
-49 -61 -37 -66 16 -6 63 24 145 94 57 49 68 37 21 -24 -29 -38 -40 -84 -20
-84 6 0 14 8 17 18 4 9 17 31 29 47 32 43 44 78 33 98 -14 25 -39 21 -79 -12z"/>
<path d="M9761 10030 c-17 -28 -31 -61 -31 -75 0 -26 33 -55 63 -55 50 0 161
90 138 113 -6 6 -21 -2 -44 -26 -38 -40 -80 -61 -108 -52 -26 9 -24 27 10 82
28 44 31 63 11 63 -4 0 -22 -23 -39 -50z"/>
<path d="M10458 10073 c-1 -5 -16 -16 -33 -25 -16 -9 -39 -28 -50 -43 -18 -24
-18 -28 -4 -53 17 -29 53 -34 95 -11 36 19 55 80 38 123 -6 16 -40 22 -46 9z
m12 -81 c-16 -28 -40 -38 -66 -28 -20 8 -7 31 32 56 37 25 55 11 34 -28z"/>
<path d="M10268 9999 c-18 -29 -41 -65 -51 -80 -18 -28 -16 -49 4 -49 5 0 13
8 16 18 4 9 26 46 50 81 39 59 45 81 23 81 -4 0 -23 -23 -42 -51z"/>
<path d="M11090 9930 c-11 -7 -12 -12 -3 -21 14 -14 46 -4 41 13 -6 16 -20 19
-38 8z"/>
<path d="M2810 9487 c-3 -2 -36 -7 -73 -10 -74 -5 -82 -9 -74 -31 5 -13 12
-14 32 -6 36 14 297 25 368 16 48 -6 56 -10 47 -21 -7 -8 -9 -23 -6 -33 4 -11
-10 -70 -29 -133 -41 -128 -48 -184 -25 -184 9 0 15 12 17 34 2 19 19 83 38
142 19 60 35 127 35 149 l0 40 104 0 c64 0 107 4 111 11 4 6 5 12 3 14 -6 6
-542 18 -548 12z"/>
<path d="M8000 9398 c-5 -13 -32 -84 -60 -159 -51 -139 -63 -209 -35 -209 10
0 15 10 15 31 0 17 23 91 50 165 57 151 68 194 51 194 -6 0 -16 -10 -21 -22z"/>
<path d="M5448 9404 c-4 -3 -4 -12 -2 -19 8 -19 -18 -74 -96 -210 -72 -125
-94 -185 -68 -185 8 0 25 12 39 26 21 23 118 96 158 119 9 5 6 -5 -8 -28 -14
-23 -21 -48 -19 -69 4 -42 21 -39 29 4 3 18 16 49 28 69 21 36 20 69 -4 69
-14 0 -129 -72 -164 -104 l-25 -21 20 35 c121 212 137 244 138 277 1 33 -12
52 -26 37z"/>
<path d="M3224 9379 c-3 -6 -1 -22 7 -35 17 -32 2 -97 -51 -221 -53 -122 -53
-165 -1 -110 14 16 19 31 15 43 -4 13 -3 15 3 7 7 -10 19 -2 48 27 22 22 42
40 45 40 4 0 6 -18 6 -40 -1 -21 4 -40 9 -40 12 -1 29 76 21 96 -8 22 -46 16
-84 -13 -30 -22 -34 -24 -28 -7 34 81 49 138 54 197 4 63 3 67 -16 67 -11 0
-24 -5 -28 -11z"/>
<path d="M10218 9221 c-43 -86 -78 -162 -78 -169 0 -23 24 -12 67 30 l42 42
35 -37 c19 -20 42 -55 52 -77 20 -46 34 -52 34 -14 0 25 -44 98 -74 123 -24
20 -20 27 32 62 60 40 132 109 132 126 0 21 -12 15 -50 -23 -43 -43 -158 -119
-167 -110 -4 4 12 45 35 92 44 88 51 114 30 113 -7 0 -48 -71 -90 -158z"/>
<path d="M7200 9340 c-12 -7 -12 -13 -4 -27 16 -26 39 -22 39 6 0 27 -13 35
-35 21z"/>
<path d="M4477 9283 c-11 -10 -8 -43 4 -43 14 0 39 25 39 39 0 12 -33 15 -43
4z"/>
<path d="M3471 9266 c-14 -16 -4 -26 26 -26 28 0 30 15 4 29 -14 8 -22 7 -30
-3z"/>
<path d="M11400 9265 c-6 -8 -9 -19 -5 -25 9 -14 45 6 45 25 0 19 -24 19 -40
0z"/>
<path d="M8581 9252 c-13 -25 -119 -104 -130 -98 -5 3 -12 21 -15 41 -4 19
-11 37 -16 40 -22 14 -27 -8 -13 -56 8 -28 13 -51 11 -53 -78 -49 -118 -79
-118 -91 0 -22 16 -27 31 -9 7 9 33 29 57 46 39 27 46 29 54 15 18 -33 60 -77
74 -77 21 0 17 12 -16 50 -16 19 -29 40 -30 47 0 6 26 32 58 56 71 55 96 83
87 96 -9 16 -23 13 -34 -7z"/>
<path d="M6938 9238 c-56 -24 -61 -46 -23 -98 14 -19 25 -35 25 -37 0 -8 -102
-53 -110 -48 -15 9 -30 -4 -23 -20 8 -22 42 -18 97 13 71 39 76 52 41 102 -32
46 -30 51 38 72 37 11 52 38 20 38 -10 -1 -39 -10 -65 -22z"/>
<path d="M7701 9212 c-28 -26 -42 -34 -45 -25 -11 26 -23 12 -30 -33 -5 -43
-18 -72 -68 -164 -47 -86 -52 -100 -41 -111 8 -8 23 9 53 61 28 46 48 69 57
66 38 -15 131 59 164 129 49 105 -9 154 -90 77z m79 -9 c-1 -56 -88 -163 -132
-163 -25 0 -23 8 17 76 50 84 115 133 115 87z"/>
<path d="M8124 9207 c-68 -76 -74 -86 -74 -127 0 -47 26 -70 82 -70 47 0 52
25 6 28 -75 6 -79 51 -8 87 59 30 79 62 62 100 -6 14 -16 25 -21 25 -4 0 -26
-19 -47 -43z m46 -7 c0 -12 -42 -51 -48 -45 -5 5 37 55 45 55 2 0 3 -4 3 -10z"/>
<path d="M9696 9225 c-3 -9 -3 -34 0 -58 5 -34 2 -47 -16 -69 -12 -16 -28 -28
-36 -28 -14 0 -35 39 -28 51 2 4 -2 11 -9 17 -9 8 -26 4 -60 -12 l-47 -23 50
53 c28 30 48 59 45 64 -9 15 -81 12 -118 -4 -52 -23 -74 -43 -60 -56 8 -9 18
-7 40 9 15 11 44 24 63 28 l34 6 -57 -55 c-56 -55 -74 -98 -42 -98 9 0 41 14
72 30 l57 31 10 -33 c9 -28 16 -33 43 -34 51 -2 86 42 93 115 3 33 4 64 2 70
-5 16 -29 13 -36 -4z"/>
<path d="M7325 9198 c-28 -17 -58 -31 -68 -29 -12 2 -23 -11 -37 -41 -11 -24
-20 -51 -20 -60 0 -27 25 -21 41 8 17 33 122 120 127 106 2 -6 -8 -29 -22 -51
-29 -45 -33 -71 -13 -71 12 0 35 17 120 89 17 14 17 12 11 -44 -10 -81 15 -71
34 14 20 92 -8 105 -83 39 l-34 -29 15 30 c18 36 15 65 -6 69 -8 1 -38 -12
-65 -30z"/>
<path d="M6037 9213 c-4 -3 -4 -22 -1 -40 7 -39 -17 -111 -45 -137 -16 -15
-20 -15 -30 -2 -7 9 -15 34 -18 56 -3 22 -10 43 -15 46 -5 3 -25 -13 -45 -35
-19 -23 -48 -48 -64 -57 -27 -13 -29 -13 -29 4 0 10 18 44 40 76 43 61 48 76
26 76 -18 0 -86 -105 -93 -144 -11 -67 51 -70 112 -6 l28 29 19 -39 c36 -71
81 -63 123 24 20 40 25 66 23 102 -3 44 -15 63 -31 47z"/>
<path d="M10533 9210 c-12 -5 -30 -21 -39 -35 -15 -24 -16 -32 -5 -68 25 -84
25 -84 -4 -91 -15 -4 -33 -2 -41 4 -15 13 -34 5 -34 -15 0 -33 113 -28 131 7
8 15 6 31 -10 68 -26 60 -26 65 0 89 16 15 30 18 51 14 26 -5 29 -3 26 13 -4
21 -40 28 -75 14z"/>
<path d="M3559 9195 c-39 -21 -42 -41 -16 -99 13 -28 22 -57 19 -64 -4 -14
-68 -16 -77 -2 -10 17 -25 11 -25 -9 0 -23 19 -31 71 -31 30 0 42 5 55 26 16
24 16 28 -4 70 -12 24 -22 51 -22 59 0 20 32 35 58 28 26 -6 31 21 6 31 -23 9
-36 7 -65 -9z"/>
<path d="M9984 9187 c-44 -24 -80 -81 -68 -110 8 -22 39 -17 38 6 -1 9 2 17 6
17 4 0 11 11 14 25 7 28 56 58 89 53 14 -2 22 2 22 12 0 24 -55 22 -101 -3z"/>
<path d="M4548 9171 l-33 -29 23 -31 c37 -50 26 -81 -29 -81 -13 0 -17 5 -12
16 4 12 1 15 -13 12 -13 -2 -19 -12 -19 -28 0 -22 5 -25 41 -28 72 -5 114 58
70 107 -22 24 -20 36 9 55 14 9 23 21 20 26 -10 16 -23 12 -57 -19z"/>
<path d="M7122 9183 c-4 -10 -19 -36 -34 -58 -29 -43 -39 -78 -23 -84 5 -2 14
4 20 14 5 11 22 39 38 64 28 46 35 81 17 81 -6 0 -14 -8 -18 -17z"/>
<path d="M9813 9179 c-18 -12 -33 -27 -33 -35 0 -8 -7 -14 -15 -14 -19 0 -38
-36 -30 -60 4 -11 15 -25 26 -31 44 -23 122 34 118 86 -2 17 0 36 5 43 4 6 4
17 1 22 -10 16 -37 11 -72 -11z m37 -60 c0 -33 -61 -67 -81 -43 -9 11 -4 21
27 49 38 35 53 33 54 -6z"/>
<path d="M5598 9142 c-22 -36 -29 -90 -15 -124 12 -32 61 -23 96 17 36 42 47
78 35 114 -8 22 -16 26 -51 28 -39 2 -44 -1 -65 -35z m92 -20 c0 -24 -48 -92
-64 -92 -21 0 -27 39 -12 75 11 26 20 32 45 33 23 0 31 -4 31 -16z"/>
<path d="M3413 9147 c-17 -21 -23 -85 -9 -96 7 -6 16 -8 19 -4 11 11 8 53 -4
53 -6 0 -3 7 5 16 9 8 16 19 16 24 0 16 -17 20 -27 7z"/>
<path d="M4375 9150 c-4 -6 -4 -14 -1 -17 3 -4 -10 -34 -29 -68 -32 -57 -35
-75 -14 -75 13 0 81 128 77 147 -4 20 -24 28 -33 13z"/>
<path d="M11305 9020 c-11 -17 5 -32 21 -19 7 6 11 15 8 20 -7 12 -21 11 -29
-1z"/>
<path d="M4594 8637 c-3 -8 1 -26 9 -39 8 -13 21 -50 27 -82 7 -36 21 -68 35
-82 l23 -23 -44 -92 c-32 -69 -41 -96 -32 -106 15 -19 28 -16 28 7 0 11 18 56
40 100 80 159 131 283 120 294 -14 14 -22 3 -60 -91 -19 -46 -37 -83 -41 -83
-14 0 -27 34 -44 107 -17 74 -49 121 -61 90z"/>
<path d="M4283 8534 c-6 -3 -33 -30 -58 -60 -38 -44 -43 -55 -31 -60 11 -4 24
3 37 20 11 14 24 26 28 26 8 0 6 -161 -6 -550 l-8 -235 -45 2 c-25 2 -62 4
-82 5 -25 2 -44 -3 -55 -15 -26 -26 -4 -42 32 -23 19 10 35 12 52 5 13 -5 40
-9 60 -9 l35 0 -6 -197 c-7 -230 -25 -578 -32 -641 l-5 -44 -57 6 c-72 8 -126
-4 -130 -28 -3 -16 0 -17 30 -10 35 8 148 7 157 -1 3 -3 0 -72 -7 -153 -23
-285 -25 -332 -12 -528 9 -145 9 -199 1 -202 -14 -5 -15 -32 -1 -32 17 0 12
-138 -7 -177 -11 -23 -13 -37 -6 -41 7 -5 8 -33 4 -82 -8 -75 -7 -114 4 -203
5 -43 4 -48 -20 -59 -14 -6 -25 -17 -25 -25 0 -16 14 -17 40 -3 17 9 21 5 31
-31 10 -32 10 -47 0 -72 -7 -18 -16 -63 -21 -100 -4 -38 -15 -76 -24 -86 -21
-23 -20 -50 2 -67 29 -23 42 -16 42 20 l0 34 73 4 c39 2 429 1 864 -1 l793 -3
-3 -67 c-3 -91 16 -94 27 -3 l9 72 261 0 c143 0 345 3 448 7 l187 6 3 -44 c2
-31 7 -44 18 -44 11 0 14 10 12 43 l-4 42 404 0 c222 0 421 3 442 7 l40 6 -42
-38 c-23 -20 -42 -46 -42 -56 0 -25 15 -24 33 1 31 44 134 110 210 134 10 3
17 11 15 17 -6 18 -209 131 -225 125 -21 -8 -11 -41 12 -41 11 0 51 -18 89
-39 l69 -39 -38 -20 c-27 -13 -40 -16 -45 -7 -5 8 -28 8 -90 1 -46 -6 -219
-11 -386 -11 -166 1 -331 -2 -367 -6 l-66 -7 -3 59 c-2 46 -7 60 -20 62 -15 3
-17 -3 -12 -45 3 -26 1 -54 -4 -61 -7 -10 -109 -14 -449 -19 l-441 -6 -6 29
c-9 42 -8 101 2 167 7 44 6 60 -5 68 -16 14 -18 9 -32 -108 -8 -63 -8 -100 -1
-119 6 -15 9 -28 7 -31 -2 -2 -91 -2 -196 -1 l-193 3 54 27 c29 16 85 50 123
77 39 27 96 67 127 88 54 36 73 63 45 63 -16 0 -127 -79 -127 -91 0 -5 -3 -8
-7 -7 -14 4 -134 -83 -128 -92 3 -6 -1 -7 -9 -4 -15 6 -85 -26 -110 -51 -13
-13 -40 -15 -168 -13 l-153 3 40 24 c22 14 42 27 45 30 3 4 18 13 34 21 28 14
43 36 33 46 -5 5 -85 -41 -97 -55 -3 -4 -32 -20 -65 -36 -58 -29 -65 -30 -220
-32 l-160 -3 70 36 c39 20 72 39 75 43 3 3 10 6 15 7 24 1 65 17 65 25 0 5 9
9 20 9 11 0 20 5 20 10 0 6 7 10 16 10 28 0 233 112 363 197 115 77 133 85
242 114 65 17 125 29 133 26 7 -3 21 -28 30 -55 23 -69 72 -142 94 -142 33 0
33 13 2 39 -31 26 -94 160 -81 172 3 4 68 22 144 40 125 30 140 32 161 19 34
-22 145 -105 186 -140 19 -16 41 -30 48 -30 6 0 12 -4 12 -8 0 -4 45 -44 101
-88 55 -43 112 -89 127 -101 39 -33 149 -86 161 -78 18 10 5 22 -57 51 l-57
27 55 13 c30 7 90 17 134 23 47 5 85 16 94 25 14 14 14 18 -7 40 -13 14 -45
30 -72 37 -58 15 -62 30 -16 73 42 40 153 78 320 111 188 37 331 48 627 48
239 1 282 -2 443 -26 375 -56 677 -143 957 -274 52 -25 158 -74 235 -109 294
-134 483 -236 529 -284 24 -25 45 -52 48 -60 4 -12 8 -12 18 -3 16 15 -1 43
-55 96 -37 36 -315 186 -420 228 -33 13 -100 43 -150 67 -330 162 -492 224
-765 293 -221 56 -514 98 -725 106 -294 10 -663 -24 -882 -82 -139 -37 -207
-76 -241 -140 l-11 -20 -6 20 c-24 74 -35 68 -89 -45 -26 -55 -52 -100 -57
-100 -10 0 -68 41 -100 70 -42 39 -60 49 -76 44 -13 -4 -14 -3 -5 3 10 7 -1
21 -42 52 -30 24 -60 40 -66 36 -6 -4 -9 -1 -8 5 2 7 -34 40 -79 73 -45 34
-82 65 -82 68 -1 3 77 22 172 42 94 20 240 52 322 70 83 19 238 49 345 67 107
18 197 37 198 42 2 4 8 5 13 2 17 -10 59 6 59 22 0 12 -6 15 -23 10 -13 -3
-113 -21 -223 -40 -205 -36 -263 -48 -664 -136 -253 -55 -249 -55 -308 -5 -13
11 -29 21 -35 21 -7 1 -18 2 -24 3 -7 0 -13 8 -13 16 0 8 -13 21 -30 30 -28
14 -30 14 -29 -2 0 -11 29 -36 75 -65 40 -26 74 -51 74 -56 0 -7 -214 -62
-256 -66 -13 -1 -124 159 -124 179 0 8 -4 15 -10 15 -5 0 -45 53 -87 118 l-78
119 115 -77 c130 -86 264 -170 272 -170 4 0 5 7 4 15 -2 14 -89 76 -111 79 -6
1 -22 12 -35 24 -13 12 -28 22 -33 22 -4 0 -15 6 -22 13 -8 6 -57 41 -109 77
l-95 65 6 37 c4 27 0 45 -12 64 -15 23 -22 26 -55 21 -38 -5 -39 -4 -86 66
-26 40 -49 66 -52 59 -2 -7 -9 -9 -14 -6 -13 9 -8 -1 50 -83 24 -35 39 -63 34
-63 -5 0 -15 7 -22 15 -7 8 -17 12 -24 8 -6 -3 -8 -3 -4 2 11 11 -43 50 -64
47 -13 -2 -16 1 -12 12 4 11 -2 19 -19 25 -14 5 -26 14 -28 19 -5 10 -153 122
-162 122 -22 0 -1 -33 38 -61 25 -18 45 -36 45 -40 0 -3 -24 -18 -52 -33 -42
-21 -166 -100 -223 -143 -6 -5 -17 -9 -25 -11 -18 -4 -173 -92 -180 -102 -3
-4 -15 -10 -27 -14 -13 -4 -23 -12 -23 -17 0 -6 -4 -8 -9 -5 -9 6 -334 -180
-339 -194 -2 -6 -12 -10 -23 -10 -10 0 -19 -4 -19 -10 0 -5 -4 -10 -10 -10 -6
0 -10 34 -10 83 l0 83 92 64 c51 36 138 92 193 125 216 131 285 177 280 186
-10 16 -23 10 -101 -41 -41 -27 -78 -50 -80 -50 -15 0 -73 -48 -66 -55 4 -4 0
-6 -8 -3 -16 5 -137 -65 -157 -91 -7 -9 -13 -12 -13 -8 0 4 -29 -12 -64 -37
-35 -26 -66 -46 -69 -46 -2 0 -8 53 -11 118 -4 64 -10 137 -13 161 -4 29 -2
42 5 37 14 -9 133 64 125 77 -4 6 -1 7 7 2 7 -4 15 -4 19 1 3 5 14 14 23 19
71 43 217 141 217 148 2 15 -46 6 -67 -13 -12 -11 -24 -20 -27 -20 -3 0 -65
-40 -138 -89 -72 -49 -141 -91 -151 -95 -18 -6 -19 -1 -12 121 8 153 14 190
29 190 7 0 61 30 121 66 59 37 117 69 127 72 20 7 27 35 9 35 -16 0 -66 -27
-161 -86 -47 -30 -91 -54 -96 -54 -9 0 -6 159 3 169 2 2 29 0 61 -5 68 -11 93
-8 93 12 0 9 -12 14 -37 15 -21 0 -56 3 -78 7 l-40 7 3 75 c2 41 7 136 12 210
5 74 12 239 15 365 4 127 9 233 12 238 6 10 51 9 74 -4 27 -14 109 -1 109 17
0 11 -13 14 -47 14 -27 -1 -68 2 -92 6 l-44 6 9 257 c4 141 8 325 9 409 l0
153 52 -56 c49 -52 83 -70 83 -43 0 9 -127 140 -133 137 -1 0 -7 -3 -14 -5z
m1002 -2435 c0 -23 -178 -149 -293 -208 -15 -7 -38 -21 -52 -29 -14 -9 -28
-17 -32 -17 -3 0 -56 -25 -117 -55 -80 -39 -111 -59 -111 -72 0 -15 28 -4 153
58 203 102 294 155 403 235 l91 67 40 -32 c34 -26 40 -36 39 -67 0 -20 -5 -36
-11 -35 -16 2 -265 -144 -265 -155 0 -6 -4 -8 -9 -5 -11 7 -101 -50 -101 -64
0 -6 -5 -8 -10 -5 -11 7 -108 -44 -186 -97 -24 -16 -126 -72 -227 -125 -204
-107 -347 -190 -347 -203 0 -14 -35 -6 -42 10 -4 8 -7 40 -7 70 -1 52 1 56 34
79 19 13 32 28 28 34 -3 6 -1 7 6 3 15 -10 101 41 101 59 0 8 6 12 14 9 8 -3
39 10 69 29 30 19 91 54 136 77 44 23 81 48 81 56 0 11 -6 11 -35 -3 -19 -9
-35 -19 -35 -23 0 -3 -9 -6 -21 -7 -28 -2 -71 -32 -64 -43 3 -6 -5 -9 -18 -8
-19 2 -76 -29 -97 -52 -3 -3 -27 -16 -55 -30 -27 -14 -72 -40 -99 -58 l-49
-33 7 73 c5 52 12 77 26 90 10 10 22 18 26 18 8 0 246 140 254 149 3 3 43 25
90 48 47 24 139 73 205 111 66 38 131 75 145 83 14 8 43 27 64 44 22 16 71 46
110 66 l71 38 45 -34 c25 -18 45 -39 45 -46z m203 -189 c27 0 37 -11 111 -125
45 -68 81 -126 81 -129 0 -6 -196 -121 -480 -283 -41 -23 -80 -47 -87 -53 -19
-16 -41 -12 -48 10 -9 29 -40 43 -65 30 -11 -6 -20 -15 -20 -20 0 -5 -23 -32
-51 -59 -29 -28 -48 -51 -44 -51 22 0 -28 -36 -99 -71 -45 -23 -83 -44 -86
-47 -3 -4 -70 -39 -150 -79 -144 -72 -146 -72 -246 -79 l-100 -6 6 64 c4 35
13 74 20 87 12 23 9 73 -6 127 -5 18 9 30 103 84 59 35 110 67 111 71 2 5 9 9
17 9 17 0 343 172 371 196 12 10 26 20 31 21 5 1 54 29 110 62 338 201 454
261 475 250 9 -5 30 -9 46 -9z m251 -335 l20 -34 -32 -23 c-18 -12 -35 -26
-38 -31 -3 -5 -9 -8 -13 -8 -3 1 -36 -19 -74 -43 -57 -38 -87 -49 -202 -75
-74 -17 -155 -36 -180 -42 -25 -6 -54 -13 -65 -16 -11 -3 40 30 112 73 92 54
129 81 120 87 -8 6 -6 7 7 3 23 -8 166 71 166 90 0 8 6 11 13 9 6 -3 37 11 67
30 60 37 66 36 99 -20z m59 -86 c7 -12 12 -22 10 -24 -4 -5 -162 -45 -164 -42
-4 4 121 86 131 87 6 0 16 -9 23 -21z m-318 -143 c0 -2 -18 -15 -40 -30 -24
-16 -38 -31 -34 -38 4 -7 3 -8 -5 -4 -6 4 -37 -8 -69 -27 -31 -19 -85 -49
-119 -66 -35 -17 -63 -35 -63 -39 0 -4 -10 -8 -23 -8 -19 -1 -24 6 -38 62 -13
58 -13 64 1 64 11 0 376 84 388 89 1 0 2 -1 2 -3z m1446 -122 c17 -14 17 -15
1 -10 -10 3 -23 6 -28 6 -5 0 -9 5 -9 10 0 14 13 12 36 -6z m-1856 -65 c0 -6
-4 -7 -10 -4 -5 3 -10 11 -10 16 0 6 5 7 10 4 6 -3 10 -11 10 -16z m-119 -3
c19 -7 43 -17 54 -21 21 -9 32 -12 53 -14 28 -2 -1 -20 -100 -62 -131 -55
-171 -78 -164 -95 4 -11 -12 -14 -78 -14 -46 0 -118 3 -160 7 l-77 6 131 68
c73 37 139 74 148 82 10 8 27 18 40 21 12 4 22 12 22 17 0 6 4 7 10 4 5 -3 18
-1 27 4 25 14 55 13 94 -3z"/>
<path d="M5442 5736 c-99 -57 -119 -72 -110 -82 10 -10 49 7 42 18 -4 6 -1 8
7 6 19 -7 69 23 69 40 0 8 6 12 15 8 19 -7 85 31 85 50 0 21 -6 18 -108 -40z"/>
<path d="M5220 5609 c-41 -27 -100 -63 -130 -79 -30 -17 -73 -41 -95 -55 -22
-14 -52 -30 -67 -36 -16 -6 -28 -16 -28 -22 0 -6 -3 -7 -7 -4 -3 4 -17 0 -31
-9 -42 -28 -344 -189 -445 -238 -42 -20 -57 -32 -53 -43 5 -11 2 -13 -10 -9
-10 4 -36 -6 -65 -24 -54 -35 -73 -55 -65 -68 8 -14 196 110 191 126 -2 6 0
12 5 12 6 0 10 -5 10 -10 0 -12 151 62 284 139 49 28 93 51 97 51 5 0 9 5 9
10 0 6 3 9 8 8 14 -5 203 103 197 112 -3 6 0 7 8 4 8 -3 22 2 31 11 9 9 16 13
16 9 0 -4 8 0 18 9 10 10 21 15 23 13 2 -2 38 18 78 45 41 27 69 49 62 49 -7
0 -9 5 -6 10 5 7 11 8 18 1 14 -11 47 9 47 28 0 20 -24 11 -100 -40z"/>
<path d="M9550 8109 c0 -11 -7 -44 -14 -72 -8 -29 -20 -71 -26 -94 -10 -41
-11 -42 -58 -45 -33 -2 -47 -7 -47 -18 0 -11 10 -14 43 -12 23 2 42 -1 42 -5
0 -5 -13 -56 -29 -114 -16 -57 -28 -106 -26 -108 16 -16 36 22 60 116 15 59
33 113 39 120 6 7 23 14 38 17 35 6 50 15 43 26 -3 5 -21 6 -40 3 -19 -3 -35
-2 -35 3 0 5 9 42 20 82 24 87 26 122 5 122 -9 0 -15 -9 -15 -21z"/>
<path d="M8950 8011 l-35 -79 -58 -13 c-32 -6 -60 -16 -63 -21 -13 -21 13 -27
59 -13 26 8 47 13 47 12 0 -1 -9 -31 -20 -65 -23 -72 -27 -158 -8 -146 8 5 9
2 5 -10 -11 -28 33 -42 72 -22 17 9 31 20 31 25 0 17 -14 20 -39 7 -14 -7 -32
-11 -38 -9 -19 7 -16 77 7 154 20 66 21 67 60 74 48 8 56 35 11 35 l-30 0 30
65 c32 72 35 85 16 85 -7 0 -28 -36 -47 -79z"/>
<path d="M9076 7988 c-11 -51 -30 -127 -42 -168 -13 -41 -24 -83 -24 -92 0
-25 25 -22 43 5 24 35 85 97 95 97 5 0 12 -11 14 -25 3 -14 2 -25 -2 -25 -3 0
-12 -16 -20 -35 -9 -24 -16 -31 -22 -23 -4 7 -8 9 -8 3 1 -14 25 -45 36 -45
12 0 44 100 44 138 0 22 -6 32 -20 37 -24 8 -76 -18 -91 -46 -18 -34 -20 -16
-4 37 8 27 21 83 30 124 8 41 18 83 21 93 4 12 0 17 -13 17 -16 0 -22 -16 -37
-92z"/>
<path d="M11167 8073 c-4 -3 -7 -13 -7 -21 0 -7 -7 -38 -15 -67 -15 -49 -19
-53 -51 -60 -59 -11 -88 -25 -77 -36 6 -6 25 -7 54 0 24 5 45 8 48 5 2 -2 -6
-54 -18 -115 -12 -61 -19 -114 -16 -118 14 -14 33 33 49 126 10 54 19 103 21
109 2 6 31 14 64 18 43 5 61 11 61 21 0 16 -41 19 -75 6 -37 -15 -42 -4 -26
59 11 41 12 63 5 70 -6 6 -13 7 -17 3z"/>
<path d="M7179 8008 c0 -7 -2 -20 -3 -28 -2 -8 -6 -42 -10 -75 -4 -33 -18 -90
-31 -128 -14 -37 -25 -75 -25 -83 0 -28 19 -13 48 39 20 36 41 58 62 67 17 7
33 11 35 8 3 -3 -4 -26 -16 -52 -11 -26 -18 -55 -14 -63 8 -23 19 -8 48 64 23
56 24 65 11 78 -19 18 -17 18 -61 0 -19 -8 -37 -15 -38 -15 -2 0 1 17 5 38 4
20 10 65 14 100 5 51 3 62 -9 62 -8 0 -15 -6 -16 -12z"/>
<path d="M7655 7980 c-4 -7 -3 -16 2 -21 12 -12 45 0 40 15 -5 15 -34 19 -42
6z"/>
<path d="M10000 7885 c-32 -18 -50 -36 -62 -65 -23 -54 -35 -140 -19 -140 6 0
14 8 18 18 21 63 59 134 83 157 24 23 31 25 50 15 26 -14 38 -5 24 18 -16 25
-44 24 -94 -3z"/>
<path d="M10535 7880 c-16 -16 -35 -30 -42 -30 -18 0 -42 -50 -48 -101 -4 -36
-43 -159 -70 -221 -5 -14 -2 -18 13 -18 19 0 26 16 78 170 4 12 6 12 14 0 21
-33 132 93 146 168 12 64 -42 84 -91 32z m65 -15 c0 -34 -50 -111 -93 -145
l-25 -20 8 33 c13 54 27 81 58 115 33 35 52 41 52 17z"/>
<path d="M11984 7881 c-21 -16 -50 -48 -64 -70 -14 -23 -29 -41 -35 -41 -5 0
-23 -41 -38 -90 -16 -50 -32 -90 -36 -90 -11 0 -41 -57 -41 -79 0 -43 27 -18
65 59 35 72 42 80 67 80 20 0 44 14 80 48 95 87 134 177 89 202 -30 15 -44 12
-87 -19z m72 -16 c9 -22 -40 -98 -92 -144 -26 -23 -51 -41 -55 -41 -32 0 29
118 86 168 40 36 53 39 61 17z"/>
<path d="M7974 7890 c-11 -4 -35 -22 -52 -40 -34 -33 -43 -82 -22 -120 15 -28
77 -44 114 -30 36 13 26 25 -24 26 -48 0 -70 18 -70 54 0 30 48 80 77 80 24 0
-3 -28 -30 -32 -30 -4 -28 -22 4 -26 25 -3 79 30 79 49 0 11 -37 49 -47 48 -5
0 -17 -4 -29 -9z"/>
<path d="M8208 7889 c-29 -17 -21 -51 23 -95 46 -47 47 -68 2 -85 -20 -8 -40
-8 -72 0 -50 13 -62 8 -38 -17 13 -12 34 -17 73 -17 50 0 59 3 85 33 16 18 29
36 29 41 0 5 -21 30 -46 56 -48 48 -48 61 -4 67 14 1 25 8 25 13 0 14 -56 17
-77 4z"/>
<path d="M12416 7848 c-50 -57 -61 -85 -46 -122 9 -25 44 -46 75 -46 19 0 49
46 39 61 -5 8 -12 5 -23 -9 -25 -33 -61 -19 -61 23 0 26 10 44 45 80 41 41 50
65 25 65 -5 0 -29 -23 -54 -52z"/>
<path d="M12666 7856 c-43 -46 -80 -129 -74 -168 2 -12 12 -27 24 -33 11 -6
19 -16 16 -23 -5 -15 12 -15 78 -1 27 6 50 15 50 20 0 6 4 8 9 5 12 -8 45 19
38 31 -5 7 -27 3 -64 -13 -89 -36 -123 -29 -123 26 0 35 9 45 60 72 50 26 85
77 75 108 -10 33 -45 24 -89 -24z m55 -4 c-12 -22 -50 -57 -56 -50 -5 4 53 68
62 68 2 0 -1 -8 -6 -18z"/>
<path d="M6908 7857 c-80 -61 -107 -126 -72 -175 13 -19 24 -22 79 -22 54 0
67 4 94 27 38 34 39 43 2 43 -21 0 -30 -6 -34 -21 -5 -18 -12 -20 -64 -17 -51
3 -58 6 -61 25 -8 57 86 149 140 138 21 -5 28 -3 28 8 0 16 -20 27 -50 27 -10
0 -38 -15 -62 -33z"/>
<path d="M10145 7863 c-33 -36 -65 -102 -65 -134 0 -33 36 -71 63 -67 26 4 30
33 4 33 -18 0 -37 21 -37 43 0 6 9 12 20 12 28 0 90 58 90 84 0 21 -27 56 -43
56 -3 0 -18 -12 -32 -27z m35 -48 c-7 -9 -22 -21 -32 -26 -18 -10 -19 -9 -7
13 20 40 31 50 42 39 7 -7 6 -15 -3 -26z"/>
<path d="M10342 7867 c-29 -31 -28 -70 3 -103 14 -15 25 -33 25 -40 0 -17 -35
-36 -58 -32 -10 2 -17 -3 -17 -12 0 -27 49 -23 84 5 17 15 31 31 31 37 0 6
-13 26 -30 45 -42 47 -36 93 12 93 10 0 18 7 18 15 0 23 -44 18 -68 -8z"/>
<path d="M7753 7861 c-31 -19 -81 -92 -51 -76 10 6 11 5 1 -6 -21 -22 -15 -47
20 -73 38 -29 76 -40 96 -27 20 13 4 31 -27 31 -35 0 -72 26 -72 50 0 28 48
79 83 88 18 5 31 12 30 18 -4 17 -48 14 -80 -5z"/>
<path d="M10655 7838 c-42 -50 -50 -74 -36 -111 12 -31 51 -49 95 -45 46 5 45
28 -1 28 -45 0 -58 7 -67 36 -5 18 -2 23 21 29 64 15 93 61 61 93 -20 20 -35
14 -73 -30z m45 -13 c-7 -8 -17 -15 -22 -15 -6 0 -5 7 2 15 7 8 17 15 22 15 6
0 5 -7 -2 -15z"/>
<path d="M10880 7848 c-40 -48 -60 -90 -60 -124 0 -55 50 -79 114 -54 43 16
30 30 -26 27 -52 -2 -53 -2 -56 28 -2 23 7 44 35 80 20 28 41 52 45 53 14 6 8
18 -10 19 -10 1 -29 -12 -42 -29z"/>
<path d="M11825 7875 c-5 -2 -22 -6 -37 -9 -38 -9 -88 -54 -88 -80 0 -12 14
-35 30 -51 17 -16 30 -32 30 -37 0 -17 -64 -40 -97 -35 -25 4 -33 2 -33 -9 0
-20 39 -33 70 -24 92 27 111 63 61 114 -17 17 -31 37 -31 44 0 19 62 52 98 52
26 0 33 4 30 17 -3 17 -16 24 -33 18z"/>
<path d="M12215 7868 c-56 -30 -120 -114 -109 -142 9 -24 48 -19 83 9 l30 26
3 -53 c2 -39 7 -54 19 -56 14 -3 16 4 12 40 -3 28 1 58 11 82 34 81 10 127
-49 94z m-13 -80 c-52 -49 -78 -59 -50 -19 20 28 90 83 97 75 3 -3 -18 -28
-47 -56z"/>
<path d="M7365 7808 c-36 -78 -23 -108 51 -108 51 0 78 26 78 76 0 41 -25 69
-72 79 -31 6 -33 5 -57 -47z m90 -34 c0 -37 -2 -39 -34 -42 -45 -5 -52 6 -35
48 12 29 19 35 42 34 25 -1 27 -4 27 -40z"/>
<path d="M9253 7828 c-84 -90 -83 -175 3 -135 29 14 34 15 34 2 0 -8 6 -15 13
-15 13 0 48 100 40 113 -3 5 -22 -7 -42 -26 -36 -34 -81 -63 -81 -52 0 11 32
70 47 87 8 9 22 14 30 11 11 -4 14 0 11 17 -5 35 -20 34 -55 -2z"/>
<path d="M7607 7808 c-2 -7 -11 -36 -20 -64 -21 -63 -21 -64 -3 -64 16 0 46
68 46 105 0 26 -18 44 -23 23z"/>
<path d="M3750 7774 c-21 -21 -22 -27 -10 -34 11 -7 19 -4 29 10 17 26 41 26
41 0 0 -26 -68 -162 -86 -173 -8 -5 -23 -18 -34 -30 -29 -31 -9 -47 30 -24 29
17 30 17 30 0 0 -11 5 -24 12 -31 17 -17 79 -15 106 4 25 17 30 54 7 54 -8 0
-15 -7 -15 -15 0 -16 -42 -30 -64 -22 -7 3 -16 19 -19 36 -5 24 3 50 33 113
45 92 46 100 24 122 -23 23 -57 19 -84 -10z"/>
<path d="M3599 7763 c-1 -5 0 -24 1 -44 1 -20 -6 -64 -15 -99 -17 -66 -14
-110 9 -110 20 0 27 12 15 26 -7 9 -5 30 6 72 20 80 20 162 0 162 -8 0 -15 -3
-16 -7z"/>
<path d="M4470 7660 c0 -5 32 -57 70 -114 39 -58 96 -151 127 -206 40 -72 60
-99 71 -95 11 4 13 0 9 -16 -4 -13 6 -39 27 -72 18 -29 43 -70 55 -92 12 -22
26 -47 31 -55 5 -8 49 -88 98 -177 49 -90 92 -160 95 -156 4 3 7 -1 7 -11 0
-22 109 -226 121 -226 5 0 9 -9 9 -20 0 -11 5 -20 10 -20 6 0 10 -5 10 -10 0
-13 90 -169 102 -176 4 -3 12 -3 17 1 5 3 -18 51 -51 108 -84 139 -121 206
-180 317 -28 52 -59 101 -70 108 -10 7 -16 18 -13 23 8 12 -56 129 -67 123 -4
-3 -5 1 -3 8 3 8 -4 24 -15 36 -11 12 -18 22 -15 22 13 0 -61 120 -75 120 -10
0 -11 3 -3 8 8 5 4 19 -15 48 -15 22 -33 50 -40 63 -7 12 -43 74 -80 137 -37
64 -71 123 -77 133 -83 142 -155 231 -155 191z"/>
<path d="M8327 7598 c-4 -13 -1 -26 6 -30 9 -6 8 -11 -4 -18 -11 -7 -19 -31
-24 -74 l-6 -65 -47 -3 c-34 -2 -48 -8 -50 -19 -3 -14 4 -16 42 -12 53 6 55 2
31 -87 -15 -57 -14 -66 8 -57 8 3 19 33 26 69 7 34 14 68 16 74 2 6 26 14 54
18 32 4 51 12 51 20 0 10 -13 12 -50 9 -57 -4 -55 -11 -35 102 18 99 18 95 1
95 -7 0 -16 -10 -19 -22z"/>
<path d="M6464 7586 c-7 -19 -293 -197 -474 -295 -74 -41 -183 -102 -242 -137
-58 -35 -135 -77 -169 -95 -35 -17 -108 -61 -162 -98 -54 -36 -114 -76 -133
-89 l-36 -23 4 33 c4 46 -23 49 -44 6 -8 -18 -36 -59 -62 -90 -54 -66 -58 -83
-18 -74 87 22 107 23 139 4 56 -33 69 -5 28 57 -25 35 -25 38 -8 51 60 47 253
169 336 213 54 29 122 67 150 85 29 18 113 66 187 106 124 67 287 163 465 273
46 28 70 50 70 62 0 23 -23 32 -31 11z m-1215 -800 c10 -12 8 -13 -8 -9 -12 3
-18 9 -15 14 7 12 10 11 23 -5z"/>
<path d="M9197 7492 c-15 -48 -27 -92 -27 -98 0 -6 -18 -14 -40 -18 -27 -4
-40 -11 -40 -22 0 -13 7 -15 34 -10 l33 6 -14 -56 c-14 -55 -12 -91 6 -80 5 3
16 37 26 75 l17 69 54 7 c69 8 69 31 0 28 -45 -1 -46 -1 -40 25 4 15 15 50 25
77 22 58 24 85 7 85 -7 0 -25 -40 -41 -88z"/>
<path d="M8745 7510 c-9 -15 4 -30 27 -30 14 0 18 5 14 16 -3 9 -6 18 -6 20 0
8 -29 4 -35 -6z"/>
<path d="M8023 7475 c-32 -22 -29 -38 18 -100 44 -59 46 -83 5 -104 -13 -7
-34 -11 -47 -9 -20 2 -24 8 -22 36 1 26 -3 32 -15 30 -24 -5 -28 -60 -5 -80
35 -31 86 -27 124 11 39 40 37 69 -13 131 -47 59 -43 70 30 70 30 0 42 4 40
13 -7 19 -89 20 -115 2z"/>
<path d="M7412 7443 c-27 -27 -42 -55 -55 -103 -28 -101 -30 -109 -23 -127 12
-30 32 6 51 89 12 51 27 88 45 110 28 33 28 33 49 14 18 -16 21 -17 27 -3 8
23 -14 57 -37 57 -11 0 -36 -17 -57 -37z"/>
<path d="M9392 7468 c5 -15 28 -18 29 -3 0 6 -7 12 -17 13 -10 3 -15 -1 -12
-10z"/>
<path d="M7669 7447 c-19 -12 -43 -40 -54 -62 -11 -22 -23 -41 -27 -43 -7 -3
6 -51 24 -89 6 -12 24 -27 40 -34 25 -10 31 -9 44 7 9 11 13 13 9 7 -8 -18 -3
-16 49 9 25 12 43 25 40 30 -3 4 1 8 9 8 8 0 22 9 31 19 25 27 1 39 -27 13
-33 -30 -99 -62 -128 -62 -55 0 -67 60 -13 70 42 9 88 45 111 87 18 34 18 35
-1 49 -29 20 -68 17 -107 -9z m81 -20 c-1 -31 -61 -77 -100 -77 -21 0 -21 1
-4 29 18 30 82 73 96 65 4 -3 8 -11 8 -17z"/>
<path d="M8521 7421 c-8 -5 -20 -7 -27 -4 -6 2 -15 0 -19 -6 -14 -24 -55 -182
-49 -192 8 -14 34 9 34 30 0 29 59 141 74 141 9 0 20 -9 27 -21 7 -14 14 -18
21 -11 15 15 -19 72 -42 72 -3 0 -11 -4 -19 -9z"/>
<path d="M8897 7401 c-37 -24 -90 -88 -83 -100 4 -5 1 -11 -6 -13 -10 -4 -10
-10 -1 -31 11 -24 18 -27 58 -27 25 0 45 5 45 10 0 6 7 10 15 10 8 0 15 4 15
9 0 5 -23 8 -51 7 -32 0 -54 4 -56 11 -6 18 90 113 115 113 15 0 20 5 16 15
-8 20 -33 19 -67 -4z"/>
<path d="M8676 7333 c-31 -67 -38 -118 -16 -118 9 0 17 14 21 35 3 19 16 57
28 83 25 58 25 57 7 57 -8 0 -26 -25 -40 -57z"/>
<path d="M9482 7342 c-43 -54 -49 -86 -22 -105 26 -18 61 -9 98 25 25 24 27
38 10 85 -17 46 -48 44 -86 -5z m68 -37 c0 -16 -38 -45 -58 -45 -22 0 -9 43
17 57 27 13 41 9 41 -12z"/>
<path d="M9654 7363 c-3 -10 -19 -47 -35 -83 -19 -44 -25 -68 -18 -75 7 -7 18
-1 35 20 39 47 98 105 106 105 5 0 8 -13 8 -28 0 -36 18 -59 51 -67 17 -4 30
-1 38 9 14 17 9 21 -34 28 -16 3 -20 11 -20 38 0 64 -33 80 -75 35 -30 -32
-42 -32 -30 -1 5 13 6 27 3 30 -11 11 -24 6 -29 -11z"/>
<path d="M9344 7333 c-3 -10 -14 -39 -25 -65 -22 -54 -24 -78 -6 -78 11 0 51
91 59 134 4 25 -20 33 -28 9z"/>
<path d="M3700 6859 c-19 -5 -57 -8 -85 -7 -40 2 -51 -1 -53 -15 -3 -14 5 -17
55 -17 32 1 77 5 101 9 l42 8 -27 -46 c-15 -25 -34 -59 -42 -74 -14 -25 -21
-28 -61 -25 -35 2 -45 0 -45 -12 0 -10 12 -16 33 -18 17 -2 32 -5 32 -7 0 -2
-11 -25 -25 -51 -14 -26 -25 -55 -25 -65 0 -30 28 -22 35 10 10 46 62 121 84
121 31 0 51 11 51 27 0 11 -7 13 -25 9 -14 -4 -25 -4 -25 -1 0 2 18 35 41 71
22 37 38 73 35 80 -6 16 -43 17 -96 3z"/>
<path d="M4396 6811 c-6 -10 48 -55 137 -115 32 -21 60 -42 62 -46 6 -10 -80
-74 -190 -141 -49 -29 -91 -57 -93 -61 -2 -5 -8 -8 -14 -8 -21 0 -70 -42 -60
-52 7 -7 39 7 97 43 47 30 113 71 147 92 33 20 73 48 89 61 50 42 64 42 119
-4 43 -36 48 -44 36 -56 -8 -8 -18 -14 -22 -14 -3 0 -31 -14 -61 -31 -40 -23
-52 -34 -43 -43 8 -8 24 -3 63 18 29 16 58 34 66 40 18 14 43 17 57 5 6 -5 18
-7 27 -3 20 7 -77 92 -220 193 -54 38 -114 83 -134 100 -38 32 -54 38 -63 22z"/>
<path d="M12189 6779 c-6 -12 -13 -34 -15 -48 -2 -14 -18 -70 -36 -124 l-33
-98 -52 2 c-29 1 -56 -1 -60 -4 -15 -15 17 -29 59 -26 l44 4 -14 -64 c-13 -66
-10 -103 9 -84 5 5 14 37 20 71 12 66 20 75 76 85 l32 6 -25 -55 c-39 -89 -28
-116 20 -44 27 42 72 77 83 66 4 -4 -2 -32 -13 -64 -23 -67 -23 -77 -6 -77 15
0 51 96 52 137 0 33 -35 47 -70 28 -21 -11 -21 -11 -7 17 21 40 57 165 57 197
0 31 -23 31 -28 0 -2 -10 -14 -56 -28 -100 l-24 -81 -44 -1 -45 -1 19 62 c10
34 30 93 44 130 14 37 26 72 26 77 0 18 -29 10 -41 -11z"/>
<path d="M12764 6718 c-5 -24 -8 -49 -7 -55 0 -7 -3 -13 -8 -13 -5 0 -16 -25
-25 -56 -17 -59 -33 -71 -95 -76 -17 -1 -34 -8 -36 -16 -8 -19 -3 -21 50 -13
26 5 47 7 47 7 0 -1 -13 -41 -29 -89 -26 -79 -27 -108 -2 -93 5 3 21 45 36 93
15 49 31 92 36 97 4 5 25 11 46 13 37 4 73 26 61 38 -3 4 -25 1 -48 -5 -23 -6
-44 -10 -46 -7 -2 2 10 45 27 95 30 85 33 122 10 122 -5 0 -13 -19 -17 -42z"/>
<path d="M14507 6681 c-3 -27 -17 -67 -30 -88 -13 -21 -26 -46 -30 -55 -5 -14
-18 -18 -51 -18 -46 0 -69 -16 -45 -31 8 -5 26 -6 42 -3 32 7 32 7 7 -75 -13
-39 -17 -68 -11 -74 12 -12 22 5 46 83 l21 65 84 13 c86 13 107 22 96 40 -4 6
-19 7 -39 2 -17 -4 -53 -11 -78 -14 l-46 -5 39 77 c34 66 38 81 29 105 -16 41
-28 33 -34 -22z"/>
<path d="M10535 6664 c-8 -20 -21 -57 -29 -83 -8 -25 -33 -86 -55 -135 -22
-50 -38 -93 -35 -98 9 -14 29 -9 41 12 16 24 114 103 121 96 2 -3 -3 -23 -12
-46 -19 -47 -21 -93 -5 -88 13 4 49 111 49 144 0 36 -26 35 -80 -1 -27 -18
-50 -32 -50 -29 0 3 9 21 19 42 10 20 26 61 35 91 9 30 23 65 32 79 16 24 13
52 -6 52 -5 0 -17 -16 -25 -36z"/>
<path d="M10928 6615 c-3 -4 -3 -15 -1 -26 7 -24 28 -20 28 6 0 18 -16 30 -27
20z"/>
<path d="M13208 6508 c-62 -67 -101 -178 -63 -178 8 0 15 6 15 14 0 26 72 157
95 172 14 9 33 13 44 9 26 -8 36 11 12 24 -35 19 -54 12 -103 -41z"/>
<path d="M10285 6533 c-75 -39 -132 -122 -115 -167 13 -34 40 -46 102 -45 70
2 110 11 116 27 3 11 -13 12 -80 6 -70 -5 -86 -4 -97 10 -20 24 -5 65 40 108
40 38 75 48 96 27 14 -14 34 -3 27 15 -3 7 -16 18 -30 25 -30 13 -22 14 -59
-6z"/>
<path d="M13784 6531 c-37 -22 -84 -81 -84 -104 0 -8 -4 -17 -8 -19 -8 -3 -49
-111 -56 -148 -2 -8 -11 -32 -20 -53 -25 -57 -31 -97 -15 -97 8 0 31 44 57
108 l42 108 34 -4 c59 -7 146 89 146 161 0 53 -48 77 -96 48z m62 -36 c11 -27
-5 -63 -45 -105 -40 -42 -91 -57 -76 -22 5 9 13 37 20 61 17 65 85 109 101 66z"/>
<path d="M11473 6514 c-17 -9 -39 -24 -49 -35 -15 -17 -15 -20 -1 -43 9 -14
30 -33 47 -43 39 -23 35 -43 -13 -62 -34 -12 -39 -12 -57 4 -19 17 -20 17 -26
0 -8 -21 19 -45 50 -45 31 1 105 37 112 55 8 21 -20 61 -56 80 -41 21 -38 44
10 62 22 9 40 22 40 30 0 17 -17 16 -57 -3z"/>
<path d="M13963 6509 c-37 -24 -73 -77 -73 -108 0 -28 45 -73 68 -69 24 5 21
32 -5 36 -21 3 -37 27 -28 42 2 4 17 10 32 13 70 15 112 64 81 95 -17 17 -38
15 -75 -9z m55 -24 c-2 -1 -19 -10 -38 -19 l-35 -17 28 26 c16 14 33 23 38 19
6 -3 9 -7 7 -9z"/>
<path d="M13557 6509 c-23 -14 -22 -61 4 -93 23 -29 17 -49 -14 -44 -22 2 -27
-2 -27 -22 0 -18 59 -11 80 10 21 21 21 25 -13 73 -23 34 -17 55 20 59 15 2
28 8 28 13 0 13 -56 16 -78 4z"/>
<path d="M14173 6500 c-44 -20 -83 -69 -83 -105 0 -36 28 -65 63 -65 47 0 77
10 77 26 0 10 -12 12 -49 7 -43 -5 -50 -3 -55 15 -15 45 35 99 99 106 42 5 42
5 21 21 -24 18 -22 19 -73 -5z"/>
<path d="M12428 6459 c-74 -78 -63 -144 17 -106 25 12 33 13 29 3 -3 -7 2 -18
10 -25 13 -11 17 -6 26 28 6 22 15 43 20 46 13 8 13 35 1 35 -5 0 -33 -16 -62
-36 -29 -20 -55 -31 -57 -25 -5 16 59 91 84 97 34 9 39 34 7 34 -19 0 -40 -14
-75 -51z"/>
<path d="M11013 6480 c-63 -38 -86 -135 -38 -166 30 -20 87 -11 78 12 -3 10
-13 14 -25 10 -11 -2 -26 -2 -34 1 -41 16 14 127 57 116 17 -5 20 -2 17 17 -4
31 -17 34 -55 10z"/>
<path d="M11222 6485 c-25 -18 -62 -85 -62 -112 0 -34 29 -63 63 -63 47 0 77
10 77 26 0 10 -11 12 -44 8 -38 -6 -46 -3 -55 14 -10 19 -7 23 25 38 40 19 67
54 62 81 -4 24 -37 28 -66 8z m22 -39 c-10 -8 -21 -12 -23 -10 -3 2 4 11 15
18 10 8 21 12 23 10 3 -2 -4 -11 -15 -18z"/>
<path d="M13354 6455 c-42 -44 -63 -97 -50 -130 8 -22 48 -35 65 -21 11 8 13
8 7 -1 -4 -7 -2 -13 3 -13 23 0 10 22 -19 33 -21 8 -30 18 -30 34 0 14 6 23
15 23 29 0 96 41 107 65 31 68 -36 75 -98 10z m53 -10 c-15 -14 -33 -25 -40
-25 -7 0 1 12 16 25 15 14 33 25 40 25 7 0 -1 -12 -16 -25z"/>
<path d="M4855 6445 c46 -42 89 -64 101 -53 9 10 -109 98 -130 98 -17 0 -12
-8 29 -45z"/>
<path d="M10692 6466 c-13 -7 -32 -26 -43 -42 -55 -84 22 -155 92 -85 33 33
37 67 14 111 -17 33 -28 36 -63 16z m42 -49 c16 -26 -13 -72 -44 -72 -33 0
-38 33 -9 69 23 29 36 30 53 3z"/>
<path d="M10865 6472 c-17 -12 -55 -101 -55 -127 0 -16 6 -25 15 -25 8 0 15 9
15 20 0 12 12 44 26 72 23 46 23 77 -1 60z"/>
<path d="M4787 6372 c-15 -10 -24 -22 -20 -27 5 -4 2 -5 -5 -1 -17 10 -101
-44 -95 -61 3 -7 1 -13 -5 -13 -6 0 -12 4 -14 10 -3 11 -178 -87 -317 -179
-51 -33 -97 -61 -102 -61 -5 0 -9 -7 -9 -15 0 -26 26 -16 121 47 52 34 112 72
134 85 22 12 34 23 27 23 -7 0 -11 4 -7 10 3 5 12 7 20 4 18 -7 100 40 109 62
4 9 12 14 21 10 19 -7 194 94 195 112 0 17 -20 15 -53 -6z"/>
<path d="M4940 6377 c0 -2 27 -25 60 -50 50 -39 60 -44 60 -28 0 24 -70 81
-99 81 -12 0 -21 -2 -21 -3z"/>
<path d="M9803 6365 c-32 -23 -207 -91 -285 -111 -66 -18 -82 -29 -54 -40 29
-11 357 110 378 140 7 11 1 26 -10 26 -4 0 -17 -7 -29 -15z"/>
<path d="M4859 6272 c-7 -15 -12 -31 -10 -35 1 -5 -3 -6 -9 -2 -16 10 -64 -25
-52 -37 7 -7 26 -1 61 21 28 17 57 31 65 31 12 0 54 38 45 41 -2 1 -23 3 -45
4 -36 3 -43 0 -55 -23z"/>
<path d="M11784 6263 c-3 -16 -22 -79 -41 -140 l-35 -113 -49 0 c-37 0 -49 -4
-49 -15 0 -11 11 -15 35 -15 21 0 38 -6 41 -14 3 -8 -6 -43 -20 -78 -31 -78
-35 -103 -18 -103 8 0 26 36 44 90 17 50 33 92 35 95 3 3 34 7 71 10 90 7 98
30 9 30 l-65 0 39 131 c21 72 36 135 33 140 -10 17 -24 9 -30 -18z"/>
<path d="M9837 6124 c-15 -63 -39 -140 -54 -170 l-27 -55 26 -26 c22 -21 32
-24 60 -19 43 8 113 67 122 101 8 30 -6 60 -35 75 -16 9 -27 7 -55 -9 -32 -19
-35 -19 -30 -4 2 10 14 59 27 108 12 50 24 96 26 103 3 7 -3 12 -14 12 -17 0
-23 -17 -46 -116z m96 -136 c12 -34 -39 -89 -96 -103 -20 -6 -28 -3 -34 10 -4
13 6 30 40 61 45 44 80 56 90 32z"/>
<path d="M9270 6195 c-269 -65 -446 -106 -470 -110 -25 -4 -247 -52 -447 -97
-64 -14 -103 -28 -103 -35 0 -7 -4 -13 -10 -13 -5 0 -10 5 -10 11 0 7 -7 8
-17 4 -10 -4 -29 -9 -43 -11 -71 -9 -164 -34 -170 -44 -5 -8 -9 -8 -11 -2 -3
7 -86 -6 -224 -33 -121 -24 -266 -51 -322 -61 -108 -18 -129 -26 -120 -41 4
-6 33 -5 79 4 40 7 82 15 93 17 209 37 273 51 268 59 -4 7 1 8 12 3 17 -6 131
14 400 70 66 14 127 28 135 31 8 4 21 5 28 4 7 -1 15 5 19 14 3 9 9 12 12 7 5
-9 335 56 381 75 8 3 22 6 30 7 48 3 208 41 204 48 -3 4 1 5 9 3 7 -3 58 5
113 19 54 14 116 28 136 32 21 3 36 9 34 13 -2 3 8 7 22 7 15 1 38 4 52 7 94
18 98 19 93 33 -7 18 -14 17 -173 -21z"/>
<path d="M10444 6213 c-3 -10 -17 -48 -31 -85 l-26 -68 -49 0 c-42 0 -49 3
-44 18 3 9 6 37 8 62 2 36 -1 45 -15 48 -14 3 -17 -4 -17 -40 0 -78 -7 -88
-56 -88 -32 0 -44 -4 -44 -15 0 -10 11 -15 35 -15 19 0 35 -2 35 -3 0 -2 -9
-39 -20 -82 -24 -94 -24 -95 -5 -95 8 0 17 12 21 28 3 15 13 54 22 86 l17 59
47 4 48 4 -25 -53 c-44 -94 -29 -103 44 -27 27 28 54 48 60 44 15 -9 14 -46
-4 -88 -14 -34 -12 -47 9 -47 16 0 38 80 34 120 -4 45 -30 60 -66 39 l-29 -16
35 81 c19 45 39 86 44 93 11 14 1 53 -13 53 -5 0 -12 -8 -15 -17z"/>
<path d="M12612 6148 c-8 -24 -23 -64 -34 -90 l-20 -48 -53 0 c-34 0 -57 -5
-65 -15 -17 -20 -4 -38 20 -25 10 5 32 10 49 10 l30 0 -19 -47 c-11 -27 -25
-56 -30 -66 -10 -17 -6 -37 8 -37 4 0 23 34 41 75 31 67 37 75 62 75 15 0 40
5 56 11 22 8 24 12 13 19 -8 6 -29 7 -47 4 l-31 -6 24 60 c33 82 40 122 23
122 -8 0 -20 -19 -27 -42z"/>
<path d="M12827 6163 c-11 -10 -8 -61 3 -68 6 -3 13 2 16 12 3 10 9 25 14 34
13 24 -14 42 -33 22z"/>
<path d="M12184 6135 c-9 -23 10 -40 25 -22 9 11 8 17 -4 27 -12 10 -16 9 -21
-5z"/>
<path d="M10999 6089 c-16 -17 -37 -44 -46 -60 -10 -16 -23 -29 -31 -29 -7 0
-12 -8 -11 -17 1 -10 -8 -40 -19 -66 -25 -55 -28 -81 -9 -75 13 5 61 98 53
105 -2 3 2 12 10 21 8 10 29 37 47 61 46 63 61 71 85 40 26 -31 39 -19 22 21
-17 42 -61 42 -101 -1z"/>
<path d="M13358 6084 c-42 -22 -50 -45 -33 -95 15 -41 14 -43 -7 -66 -17 -18
-31 -23 -51 -20 -31 4 -40 -3 -27 -22 13 -22 57 -15 96 14 33 25 35 31 30 64
-14 77 -12 84 18 100 22 12 30 13 33 4 5 -15 33 -18 33 -4 0 42 -41 53 -92 25z"/>
<path d="M11476 6055 c-38 -35 -33 -69 22 -127 l25 -27 -37 -18 c-37 -17 -38
-17 -55 6 -20 27 -37 14 -26 -19 12 -38 70 -38 119 1 34 27 33 39 -9 89 -32
39 -34 45 -22 63 19 28 32 31 51 11 26 -26 46 -1 21 26 -24 27 -56 25 -89 -5z"/>
<path d="M11250 6051 c-19 -11 -50 -37 -68 -60 l-33 -41 20 -39 c11 -21 27
-41 36 -45 26 -10 104 -7 126 5 35 18 10 31 -47 23 -38 -4 -59 -3 -70 7 -13
11 -8 16 43 42 73 36 93 54 93 83 0 23 -26 44 -52 44 -7 -1 -29 -9 -48 -19z
m64 -20 c8 -12 -34 -48 -77 -66 -44 -18 -47 -8 -9 27 44 41 76 56 86 39z"/>
<path d="M12879 6005 c-42 -27 -64 -65 -55 -99 9 -36 40 -51 77 -35 37 15 51
40 56 100 3 42 1 47 -20 51 -13 3 -38 -5 -58 -17z m41 -53 c0 -32 -16 -52 -41
-52 -28 0 -32 17 -12 50 23 39 53 40 53 2z"/>
<path d="M13109 5993 c-30 -20 -48 -29 -41 -20 14 16 9 37 -9 37 -5 0 -17 -17
-25 -37 -9 -21 -23 -50 -30 -65 -14 -27 -19 -58 -8 -58 3 0 38 32 77 70 39 39
75 70 79 70 10 0 -8 -47 -33 -81 -21 -29 -22 -60 -4 -65 11 -3 75 123 75 148
0 9 -6 21 -14 27 -10 9 -25 3 -67 -26z"/>
<path d="M11955 6006 c-10 -7 -27 -11 -37 -8 -12 3 -18 -1 -18 -13 0 -9 -14
-46 -31 -82 -17 -35 -28 -71 -25 -80 9 -23 30 -1 47 49 24 75 111 145 134 108
9 -15 35 -12 35 5 0 32 -71 46 -105 21z"/>
<path d="M12268 6000 c-101 -54 -88 -153 19 -154 28 -1 48 4 50 12 3 8 -7 12
-34 12 -50 1 -77 21 -69 53 7 31 74 73 89 58 18 -18 27 -13 27 14 0 31 -28 33
-82 5z"/>
<path d="M10018 5984 c0 -5 -2 -13 -2 -19 -1 -5 -8 -20 -15 -33 -13 -24 -6
-62 13 -74 21 -14 74 -8 97 11 25 20 26 16 -16 93 -5 10 -17 18 -27 18 -9 0
-23 3 -32 6 -9 3 -17 2 -18 -2z m67 -70 c19 -20 6 -34 -32 -34 -26 0 -35 12
-27 34 8 21 38 20 59 0z"/>
<path d="M12705 5930 c-34 -55 -38 -80 -14 -80 5 0 13 8 16 18 4 9 17 34 30
54 24 39 30 68 14 68 -5 0 -26 -27 -46 -60z"/>
<path d="M12068 5903 c-26 -53 -28 -73 -7 -73 14 0 59 100 52 116 -9 23 -17
16 -45 -43z"/>
<path d="M5705 5295 c-55 -36 -136 -85 -180 -109 -118 -63 -165 -94 -165 -111
0 -18 16 -20 27 -2 4 6 51 34 103 61 52 27 135 75 183 105 49 31 104 65 123
76 32 19 39 35 18 42 -5 2 -54 -26 -109 -62z"/>
<path d="M12081 4953 c-24 -48 -48 -133 -57 -200 l-7 -53 -63 0 c-62 0 -90
-14 -63 -31 8 -5 38 -6 67 -2 50 6 52 5 52 -18 0 -13 -11 -54 -24 -92 -22 -65
-22 -77 -4 -77 13 0 40 70 34 86 -3 7 0 14 5 16 6 2 13 22 16 45 l6 42 58 7
c43 5 59 11 59 22 0 12 -10 14 -54 9 -49 -5 -55 -3 -60 16 -3 11 -1 26 3 31 5
6 12 29 15 51 11 59 35 128 53 147 15 16 11 38 -7 38 -5 0 -18 -17 -29 -37z"/>
<path d="M12243 4973 c-8 -3 -11 -14 -7 -28 5 -22 -37 -188 -88 -343 -30 -94
-12 -98 52 -12 29 39 54 69 57 67 2 -3 5 -26 6 -52 3 -77 25 -68 29 12 2 37 2
74 0 81 -7 20 -28 14 -61 -20 -17 -17 -31 -29 -31 -25 0 4 14 57 32 119 32
116 47 209 31 207 -4 0 -14 -3 -20 -6z"/>
<path d="M8267 4915 l-31 -35 -27 26 c-35 34 -101 40 -107 10 -3 -15 0 -18 18
-13 29 8 66 -7 79 -32 16 -30 -29 -79 -80 -87 -23 -4 -39 -12 -39 -20 0 -21
60 -17 94 5 l30 20 22 -25 c25 -26 79 -33 115 -14 25 14 26 45 2 34 -10 -4
-34 -8 -53 -8 -32 -1 -35 2 -38 29 -2 22 6 43 28 73 16 23 35 42 40 42 6 0 10
7 10 15 0 26 -31 16 -63 -20z"/>
<path d="M14641 4845 l-33 -105 -37 0 c-20 1 -54 7 -76 15 -50 18 -55 18 -55
0 0 -8 9 -15 19 -15 11 0 21 -5 23 -10 2 -6 26 -13 55 -16 l51 -7 -39 -80
c-41 -84 -45 -102 -30 -112 6 -3 31 40 57 95 26 55 52 101 58 101 6 1 20 3 31
4 11 2 58 6 104 9 91 7 97 8 86 26 -9 15 -117 3 -127 -14 -5 -8 -8 -7 -8 3 0
10 -10 12 -40 8 -22 -3 -40 -4 -40 -3 0 1 14 39 30 84 32 89 37 122 18 122 -7
0 -28 -47 -47 -105z"/>
<path d="M10506 4848 c-47 -103 -118 -307 -110 -319 10 -17 20 -9 63 52 32 46
40 64 32 72 -9 9 -14 8 -21 -3 -5 -8 -10 -12 -10 -8 0 15 54 157 82 211 26 53
29 77 10 77 -4 0 -25 -37 -46 -82z"/>
<path d="M12706 4863 c-26 -94 -30 -99 -76 -107 -27 -4 -40 -11 -40 -22 0 -13
7 -15 39 -9 l39 6 -28 -83 c-15 -46 -30 -94 -31 -107 -4 -25 18 -42 25 -19 2
7 18 59 36 115 l32 102 49 3 c61 4 64 21 5 28 l-44 5 20 64 c18 60 19 91 1 91
-5 0 -17 -30 -27 -67z"/>
<path d="M13270 4813 c-14 -9 -38 -28 -53 -42 -15 -14 -35 -26 -43 -26 -16 0
-78 -161 -69 -182 9 -26 23 -12 44 46 26 70 78 141 126 171 34 21 37 21 49 5
16 -22 30 -5 21 25 -8 25 -41 26 -75 3z"/>
<path d="M10922 4783 c2 -10 10 -18 18 -18 22 0 18 29 -3 33 -14 3 -18 -1 -15
-15z"/>
<path d="M10263 4759 c-48 -14 -103 -70 -103 -105 0 -66 63 -109 144 -100 28
3 52 6 53 6 1 0 0 6 -3 14 -4 11 -18 14 -52 10 -57 -6 -93 11 -106 49 -9 24
-6 31 20 57 43 44 86 54 119 28 40 -32 54 -7 15 26 -34 28 -39 29 -87 15z"/>
<path d="M13900 4759 c-14 -6 -46 -24 -71 -40 -50 -32 -55 -41 -140 -248 -44
-106 -45 -111 -24 -111 17 0 31 24 64 114 20 54 31 70 47 71 34 2 107 50 152
99 80 87 65 152 -28 115z m50 -24 c0 -37 -104 -138 -154 -151 l-28 -7 25 49
c23 44 50 69 112 102 22 12 45 15 45 7z"/>
<path d="M13349 4717 c-98 -66 -104 -205 -8 -195 47 4 49 26 2 30 -35 3 -38 6
-38 33 0 23 5 30 25 35 14 3 27 14 28 24 3 14 0 17 -11 13 -28 -10 -7 22 24
38 34 18 48 3 17 -19 -12 -9 -16 -16 -9 -16 11 0 11 -3 1 -15 -10 -13 -6 -12
18 2 40 23 49 49 26 74 -22 25 -34 24 -75 -4z"/>
<path d="M13562 4717 c-27 -29 -27 -43 -2 -85 11 -18 18 -38 14 -43 -3 -6 -27
-9 -52 -8 -52 4 -68 -14 -29 -32 17 -8 35 -8 65 1 58 15 67 37 37 86 -26 43
-20 74 15 74 11 0 20 7 20 15 0 23 -44 18 -68 -8z"/>
<path d="M11461 4716 c-19 -7 -41 -21 -48 -33 -12 -18 -10 -26 27 -74 22 -29
40 -57 40 -61 0 -12 -48 -10 -55 2 -10 17 -25 11 -25 -9 0 -21 19 -31 55 -31
66 0 72 36 19 106 -35 45 -36 48 -18 61 10 7 35 16 56 20 23 3 38 11 38 19 0
17 -42 17 -89 0z"/>
<path d="M14029 4706 c-62 -42 -87 -122 -51 -166 14 -18 28 -22 70 -22 29 1
57 4 62 7 25 15 5 25 -50 25 -55 0 -60 2 -66 24 -8 32 2 46 31 46 30 0 85 46
85 71 0 10 -9 23 -19 29 -25 13 -21 14 -62 -14z m42 -30 c-6 -8 -21 -16 -32
-19 -20 -5 -20 -5 -3 14 20 23 54 28 35 5z"/>
<path d="M14255 4711 c-55 -33 -79 -93 -59 -146 14 -35 111 -62 111 -30 0 9
-9 15 -21 15 -34 0 -66 28 -66 58 1 49 66 106 96 82 11 -10 15 -9 20 3 15 39
-31 49 -81 18z"/>
<path d="M11220 4702 c-53 -25 -82 -89 -64 -137 10 -24 58 -45 104 -45 55 0
49 23 -7 31 -50 6 -73 24 -73 54 0 18 4 21 24 18 35 -7 76 23 76 57 0 36 -18
42 -60 22z m20 -37 c-7 -8 -18 -15 -24 -15 -6 0 -2 7 8 15 25 19 32 19 16 0z"/>
<path d="M10533 4698 c-13 -6 -23 -19 -23 -30 0 -17 2 -18 30 -3 16 8 31 15
34 15 2 0 -4 -29 -14 -65 -12 -42 -15 -67 -8 -71 5 -3 13 -2 17 2 9 11 41 127
41 149 0 18 -43 19 -77 3z"/>
<path d="M11022 4687 c-87 -57 -78 -146 15 -162 41 -6 98 9 89 24 -3 5 -28 8
-55 8 -50 -1 -81 14 -81 39 0 8 13 28 29 46 23 26 36 32 65 31 29 -1 36 2 34
15 -5 26 -58 25 -96 -1z"/>
<path d="M10690 4672 c-11 -13 -25 -43 -31 -65 -10 -37 -9 -43 10 -58 28 -22
54 -14 91 28 48 54 38 115 -20 118 -23 1 -36 -5 -50 -23z m70 -32 c0 -23 -38
-70 -56 -70 -17 0 -18 23 -3 65 10 26 16 31 35 27 14 -3 24 -11 24 -22z"/>
<path d="M12412 4665 c-35 -29 -57 -84 -47 -116 6 -18 13 -20 41 -16 27 5 34
2 39 -14 9 -28 35 -24 35 6 0 14 7 42 15 62 24 56 3 63 -43 14 -21 -22 -44
-41 -50 -41 -16 0 -15 4 8 50 15 29 29 42 53 48 37 9 39 26 4 30 -15 2 -36 -7
-55 -23z"/>
<path d="M10849 4615 c-28 -58 -32 -94 -9 -80 11 7 60 113 60 131 0 32 -23 9
-51 -51z"/>
<path d="M6996 4639 c-10 -17 -47 -64 -82 -104 -83 -95 -85 -117 -7 -75 62 33
63 32 63 -86 0 -96 9 -144 28 -144 4 0 7 57 7 127 0 125 1 128 23 131 25 4 31
32 6 32 -9 0 -12 -5 -8 -12 4 -7 0 -6 -9 2 -13 12 -14 24 -6 65 5 27 14 54 19
59 14 14 12 36 -3 36 -7 0 -21 -14 -31 -31z m-23 -107 c-3 -12 -12 -22 -20
-22 -11 0 -10 5 4 24 21 28 24 28 16 -2z"/>
<path d="M5857 4622 c-44 -48 -40 -122 6 -122 14 0 37 10 52 21 l27 22 -5 -69
c-2 -38 -10 -106 -18 -152 -9 -56 -10 -88 -3 -99 14 -23 29 -12 26 19 -2 14 4
64 13 110 8 45 16 120 18 166 2 78 1 84 -23 102 -31 24 -72 25 -93 2z m62 -26
c9 -10 5 -19 -15 -40 -15 -14 -31 -26 -35 -26 -15 0 -10 43 8 62 19 22 27 22
42 4z"/>
<path d="M6755 4620 c-4 -6 -2 -17 4 -24 8 -10 7 -44 -4 -126 -17 -118 -17
-178 0 -171 16 7 48 282 36 309 -11 24 -26 28 -36 12z"/>
<path d="M13395 4508 c-3 -7 -6 -22 -8 -33 -2 -11 -25 -66 -51 -122 l-49 -102
-45 -3 c-59 -4 -70 -28 -13 -28 l40 0 -25 -55 c-25 -59 -31 -99 -13 -93 6 2
24 36 41 77 30 71 31 73 62 67 17 -3 37 -2 45 3 15 10 8 15 -31 25 l-27 6 44
92 c24 51 42 95 39 99 -2 4 0 10 6 14 13 8 13 52 0 60 -6 3 -12 0 -15 -7z"/>
<path d="M10026 4473 c-3 -3 -6 -16 -6 -28 0 -13 -11 -51 -24 -86 -13 -35 -31
-97 -41 -138 -13 -54 -23 -75 -36 -78 -28 -8 -25 -58 6 -88 47 -48 132 -24
191 53 l31 40 -4 -42 c-8 -70 44 -100 100 -56 28 22 71 124 63 147 -9 23 -23
6 -41 -46 -18 -54 -56 -97 -79 -88 -22 9 -20 45 4 92 11 22 20 43 20 47 0 15
-28 8 -34 -9 -6 -15 -9 -14 -19 7 -22 45 -102 34 -164 -22 l-21 -20 9 44 c6
23 23 83 40 131 16 49 29 99 29 112 0 25 -12 39 -24 28z m94 -298 c-26 -69
-97 -123 -146 -111 l-25 7 31 44 c32 46 88 84 127 85 20 0 21 -3 13 -25z"/>
<path d="M12536 4458 c-23 -84 -58 -193 -62 -197 -3 -3 -31 -8 -61 -11 -78 -7
-84 -30 -8 -30 42 0 56 -3 52 -12 -2 -7 -19 -46 -37 -86 -18 -40 -30 -75 -27
-79 13 -12 35 19 71 101 l38 85 72 3 c90 4 93 22 3 26 -65 3 -68 4 -61 25 50
154 56 187 33 187 -5 0 -11 -6 -13 -12z"/>
<path d="M10568 4432 c-22 -3 -28 -9 -28 -28 0 -15 6 -24 15 -24 18 0 14 -25
-15 -100 -15 -38 -22 -45 -46 -46 -16 -1 -34 -2 -41 -3 -7 0 -24 -21 -38 -45
-28 -48 -32 -116 -7 -124 21 -7 93 76 134 153 40 76 76 202 62 213 -5 4 -21 6
-36 4z m-85 -259 c-10 -16 -28 -39 -40 -53 -18 -20 -23 -21 -23 -8 0 21 21 71
35 80 5 4 18 8 28 8 17 0 17 -1 0 -27z"/>
<path d="M11231 4375 c-16 -35 -35 -80 -42 -100 -11 -31 -17 -35 -49 -36 -55
-2 -93 -13 -98 -28 -4 -12 6 -13 57 -8 70 8 66 14 47 -88 -14 -69 -13 -85 4
-85 11 0 16 17 30 107 l12 72 44 7 c51 7 55 30 5 27 -37 -1 -37 -1 14 110 18
39 31 75 29 79 -12 19 -26 4 -53 -57z"/>
<path d="M12930 4375 c0 -8 7 -15 15 -15 8 0 15 7 15 15 0 8 -7 15 -15 15 -8
0 -15 -7 -15 -15z"/>
<path d="M13524 4346 c-6 -17 2 -36 17 -36 12 0 12 37 -1 45 -6 3 -13 -1 -16
-9z"/>
<path d="M11838 4336 c-44 -23 -77 -65 -118 -151 -44 -91 -50 -116 -32 -122 7
-3 22 18 38 54 41 94 54 119 86 157 33 40 63 47 71 15 3 -12 10 -18 16 -14 18
11 12 54 -8 65 -24 12 -21 13 -53 -4z"/>
<path d="M11968 4261 c-25 -16 -54 -43 -64 -60 -10 -17 -22 -31 -26 -31 -10 0
2 -81 14 -97 27 -34 119 -40 131 -9 5 11 -4 14 -37 13 -43 -2 -76 15 -76 38 0
7 24 24 54 39 74 36 106 68 106 106 0 26 -3 30 -28 30 -15 0 -49 -13 -74 -29z
m72 -9 c0 -19 -90 -82 -116 -82 -12 0 39 51 71 71 33 21 45 23 45 11z"/>
<path d="M12230 4273 c-78 -32 -88 -68 -40 -138 l29 -43 -32 -15 c-28 -14 -35
-14 -54 -2 -32 21 -43 -3 -13 -27 26 -21 57 -18 98 8 36 23 36 40 3 89 -17 25
-31 52 -31 60 0 20 58 48 85 41 25 -6 38 3 27 20 -13 19 -38 22 -72 7z"/>
<path d="M10880 4240 c-60 -61 -88 -152 -56 -179 19 -16 105 -31 112 -19 4 6
-3 20 -15 32 -17 17 -23 18 -30 7 -11 -17 -51 2 -51 25 0 26 21 56 36 50 20
-8 74 26 80 51 9 32 -5 63 -27 63 -11 0 -33 -14 -49 -30z m41 -34 c-7 -8 -21
-16 -33 -19 -18 -5 -17 -2 8 24 27 28 49 24 25 -5z"/>
<path d="M11320 4252 c0 -6 -7 -9 -15 -6 -9 4 -15 0 -15 -10 0 -18 17 -21 40
-6 12 7 12 12 2 22 -9 9 -12 9 -12 0z"/>
<path d="M12675 4230 c-56 -44 -109 -170 -72 -170 7 0 25 29 41 65 40 92 101
132 136 90 17 -21 30 -19 30 5 0 47 -80 53 -135 10z"/>
<path d="M13781 4173 c-51 -86 -60 -113 -41 -113 22 0 74 33 119 75 l47 44 -4
-35 c-5 -41 20 -84 48 -84 27 0 36 20 11 27 -28 7 -35 40 -21 92 11 41 7 61
-10 61 -5 0 -39 -28 -76 -62 -66 -62 -72 -54 -17 20 23 31 25 62 5 62 -5 0
-33 -39 -61 -87z"/>
<path d="M13047 4226 c-67 -24 -106 -66 -107 -113 0 -39 29 -62 88 -70 37 -5
70 12 40 21 -7 2 -32 9 -55 15 -35 10 -43 16 -43 35 0 12 10 32 23 44 26 24
92 54 100 45 4 -3 14 -3 23 1 13 5 14 9 4 21 -15 18 -24 18 -73 1z"/>
<path d="M10669 4205 c-54 -30 -79 -107 -39 -120 10 -3 32 1 49 9 16 9 36 14
43 11 16 -6 46 82 32 95 -17 17 -59 19 -85 5z m51 -40 c0 -8 -18 -24 -40 -35
-45 -23 -54 -11 -18 27 24 26 58 31 58 8z"/>
<path d="M12826 4160 c-18 -57 -17 -85 3 -64 15 15 50 111 44 118 -16 16 -30
1 -47 -54z"/>
<path d="M13585 4177 c-37 -36 -45 -51 -45 -80 0 -26 6 -39 19 -47 44 -23 103
-1 121 45 12 32 -11 119 -34 123 -10 2 -35 -15 -61 -41z m65 -53 c0 -27 -5
-37 -24 -46 -30 -13 -56 -5 -56 19 0 30 26 58 54 59 23 2 26 -2 26 -32z"/>
<path d="M13409 4161 c-12 -40 -8 -71 10 -71 8 0 18 36 24 84 4 37 -22 27 -34
-13z"/>
<path d="M10696 4066 c-4 -19 -13 -51 -21 -70 -14 -34 -15 -34 -90 -38 -102
-5 -118 -21 -123 -121 -3 -75 11 -119 38 -125 26 -5 89 57 132 131 23 40 43
73 44 75 1 2 19 -4 39 -12 36 -15 55 -14 55 4 0 4 -18 15 -40 24 -22 9 -40 18
-40 20 0 2 7 20 16 41 8 20 13 40 10 43 -3 3 -1 11 6 19 9 11 8 18 -4 29 -14
14 -16 12 -22 -20z m-56 -143 c0 -3 -16 -34 -35 -69 -35 -63 -86 -111 -105
-99 -13 8 -13 106 -1 139 6 13 18 26 28 29 28 7 113 8 113 0z"/>
<path d="M9772 3653 c-28 -23 -92 -148 -127 -246 -23 -65 -32 -78 -54 -83 -43
-9 -71 -23 -71 -35 0 -11 43 -7 88 8 10 3 13 2 6 -4 -5 -4 -24 -34 -42 -65
-22 -39 -28 -59 -20 -64 14 -9 33 16 64 83 23 48 28 52 74 63 28 7 53 16 56
21 9 16 -22 21 -61 10 -33 -9 -36 -8 -29 7 3 9 7 26 8 37 0 11 3 22 6 25 3 3
25 46 49 95 41 87 74 135 94 135 5 0 17 -10 27 -22 17 -21 19 -22 25 -5 9 23
-21 57 -50 57 -13 0 -32 -8 -43 -17z"/>
<path d="M6765 3513 c-77 -241 -110 -372 -95 -387 14 -14 30 3 30 33 0 31 78
306 110 389 23 61 25 82 6 82 -8 0 -27 -44 -51 -117z"/>
<path d="M3770 3579 c0 -16 -5 -50 -11 -73 -10 -42 -12 -44 -65 -55 -34 -8
-54 -17 -51 -24 4 -13 27 -14 68 -3 l25 7 -9 -58 c-6 -33 -7 -71 -3 -86 9 -36
47 -54 81 -39 35 16 32 36 -4 29 -42 -9 -55 12 -47 73 10 77 11 78 84 85 85 8
104 14 99 28 -4 12 -45 12 -121 1 -39 -6 -39 -6 -31 22 24 91 24 124 -1 124
-9 0 -14 -11 -14 -31z"/>
<path d="M12055 3533 c-10 -91 -26 -165 -42 -197 -37 -71 -143 -157 -143 -116
0 40 69 145 101 155 25 8 25 35 0 35 -24 0 -87 -70 -112 -124 -32 -71 -21
-106 34 -106 21 0 41 14 83 57 62 65 88 125 103 235 6 40 13 83 17 96 5 18 2
22 -14 22 -18 0 -21 -8 -27 -57z"/>
<path d="M8431 3521 c-7 -33 -29 -97 -48 -143 -42 -99 -72 -198 -66 -215 8
-24 33 -14 33 12 0 14 10 51 21 83 97 258 114 322 86 322 -8 0 -18 -24 -26
-59z"/>
<path d="M6550 3540 c0 -31 -43 -147 -86 -232 -20 -40 -24 -56 -16 -72 6 -12
13 -29 16 -38 8 -27 40 -22 88 15 32 25 44 41 46 64 4 40 -25 59 -68 45 l-28
-10 24 54 c38 87 64 172 58 188 -11 28 -34 18 -34 -14z m20 -263 c0 -8 -17
-26 -37 -41 l-38 -26 -6 22 c-4 16 0 28 15 40 25 21 66 24 66 5z"/>
<path d="M4974 3498 c-9 -29 -37 -97 -61 -152 -46 -103 -55 -171 -23 -171 11
0 14 9 12 32 -2 21 9 60 32 111 40 89 86 207 86 222 0 6 -6 10 -14 10 -8 0
-22 -22 -32 -52z"/>
<path d="M6400 3536 c0 -31 12 -47 26 -35 10 8 11 16 3 30 -11 22 -29 25 -29
5z"/>
<path d="M4828 3514 c-4 -3 -3 -17 2 -30 7 -18 6 -24 -4 -24 -15 0 -70 -194
-64 -229 5 -33 23 -30 26 4 2 17 17 77 34 135 17 58 31 114 32 124 1 19 -15
32 -26 20z"/>
<path d="M13403 3504 c-9 -23 11 -38 26 -20 13 16 7 36 -10 36 -5 0 -12 -7
-16 -16z"/>
<path d="M1966 3435 c-20 -14 -43 -25 -51 -25 -9 0 -14 -9 -13 -22 1 -13 -9
-54 -20 -92 -26 -80 -27 -96 -8 -96 14 0 31 39 58 135 17 62 65 100 115 90 37
-7 53 9 24 24 -32 17 -66 13 -105 -14z"/>
<path d="M6116 3437 c-64 -36 -66 -45 -31 -129 4 -12 -6 -29 -34 -57 -38 -38
-71 -56 -55 -29 4 7 3 8 -4 4 -14 -8 2 -46 19 -46 17 0 99 82 105 105 3 13 -1
37 -10 53 -9 17 -13 37 -11 44 7 17 58 48 79 48 9 0 16 7 16 15 0 21 -29 18
-74 -8z"/>
<path d="M5496 3407 c-45 -47 -106 -161 -109 -204 -1 -16 -5 -31 -10 -34 -4
-3 -14 -30 -21 -60 -8 -30 -18 -62 -21 -71 -5 -13 -2 -18 9 -18 20 0 41 34 81
129 21 49 35 71 47 71 23 0 95 65 114 101 21 42 18 106 -5 119 -32 16 -42 12
-85 -33z m74 -26 c0 -31 -48 -104 -80 -121 -18 -10 -20 -8 -20 20 0 16 -4 30
-10 30 -11 0 -1 14 54 73 39 42 56 41 56 -2z"/>
<path d="M5928 3429 c-23 -13 -23 -62 -2 -95 16 -23 16 -26 -6 -49 -12 -13
-32 -25 -43 -27 -26 -4 -34 -26 -13 -34 23 -9 94 41 102 70 3 14 -1 37 -11 56
-20 38 -14 57 17 62 13 2 22 8 21 13 -3 14 -45 17 -65 4z"/>
<path d="M12738 3378 c-94 -143 -187 -279 -232 -338 -54 -72 -96 -153 -96
-187 0 -39 25 -25 37 20 12 44 27 68 198 312 92 133 155 230 155 241 0 2 -6 4
-14 4 -7 0 -29 -24 -48 -52z"/>
<path d="M2587 3390 c-50 -40 -104 -195 -68 -195 8 0 19 21 27 54 16 62 38
103 65 119 15 10 20 8 29 -8 13 -25 30 -26 30 -2 0 20 -29 52 -47 52 -6 0 -22
-9 -36 -20z"/>
<path d="M11520 3385 c-56 -29 -140 -106 -140 -128 0 -9 11 -24 24 -32 23 -15
29 -15 84 8 l60 24 6 -29 c8 -38 31 -31 31 9 0 16 12 48 28 71 28 44 34 62 17
62 -5 0 -19 9 -30 20 -25 25 -25 25 -80 -5z m64 -31 c9 -23 -20 -53 -79 -80
-51 -24 -85 -30 -85 -16 0 21 118 112 146 112 7 0 15 -7 18 -16z"/>
<path d="M2368 3372 c-30 -22 -40 -40 -58 -99 -12 -42 -19 -82 -15 -94 5 -13
3 -19 -3 -15 -11 7 -38 -121 -27 -132 11 -11 33 26 47 80 10 41 20 55 50 74
44 28 115 115 125 152 15 61 -56 82 -119 34z m88 -28 c-8 -30 -80 -119 -103
-128 -12 -5 -14 -1 -9 16 3 13 6 33 6 45 0 33 57 93 87 93 22 0 24 -3 19 -26z"/>
<path d="M2748 3367 c-90 -90 -90 -222 0 -219 60 1 73 28 15 30 -66 3 -74 55
-13 90 49 28 72 62 68 99 -4 40 -30 40 -70 0z m13 -50 c-19 -18 -30 -25 -26
-17 13 25 48 60 54 55 3 -3 -10 -20 -28 -38z"/>
<path d="M4577 3380 c-33 -26 -67 -81 -67 -109 0 -28 47 -29 83 -1 14 11 28
20 30 20 3 0 7 -17 9 -37 2 -26 8 -38 18 -38 11 0 14 8 12 28 -2 15 4 50 13
78 13 39 14 53 5 64 -18 21 -73 18 -103 -5z m73 -20 c0 -10 -88 -80 -101 -80
-15 0 -10 9 27 50 33 37 74 53 74 30z"/>
<path d="M6884 3390 c-27 -10 -73 -66 -91 -107 -29 -71 -4 -133 55 -133 32 0
141 50 160 73 26 31 2 37 -38 8 -52 -38 -124 -58 -145 -41 -16 13 -20 47 -7
66 4 6 21 14 38 18 35 8 94 58 94 80 0 15 -26 46 -38 45 -4 0 -16 -4 -28 -9z
m26 -37 c0 -12 -33 -43 -46 -43 -7 0 -15 -6 -17 -12 -4 -10 -6 -10 -6 0 -1 15
43 62 59 62 5 0 10 -3 10 -7z"/>
<path d="M8918 3384 c-31 -16 -34 -37 -13 -74 8 -14 14 -37 15 -52 0 -33 -45
-71 -78 -65 -29 6 -40 -12 -18 -29 32 -23 106 19 126 71 8 21 6 36 -9 71 l-20
44 30 15 c16 9 27 20 24 25 -8 14 -25 12 -57 -6z"/>
<path d="M3197 3368 c-60 -54 -89 -166 -48 -188 42 -22 121 2 121 36 0 18 -10
17 -34 -1 -26 -19 -65 -19 -72 0 -12 31 5 60 48 80 51 24 68 48 52 73 -17 26
-39 26 -67 0z m29 -33 c-21 -16 -32 -13 -21 4 3 6 14 11 23 11 15 -1 15 -2 -2
-15z"/>
<path d="M5700 3376 c0 -7 -7 -19 -15 -26 -21 -17 -39 -83 -31 -114 10 -40 55
-36 95 9 35 40 39 73 14 116 -18 30 -63 41 -63 15z m46 -52 c8 -30 -22 -77
-51 -83 -15 -3 -17 2 -12 34 6 36 31 75 48 75 5 0 12 -12 15 -26z"/>
<path d="M7936 3368 c-21 -18 -29 -40 -40 -107 -19 -107 -29 -117 -20 -18 6
67 5 77 -10 83 -13 5 -14 9 -5 14 15 10 3 43 -14 37 -6 -2 -10 -15 -8 -28 2
-13 3 -60 2 -104 -2 -94 4 -125 24 -125 25 0 46 45 61 132 16 93 29 110 84
108 59 -3 70 -1 70 15 0 12 -13 15 -59 15 -48 0 -65 -5 -85 -22z"/>
<path d="M8470 3338 c-36 -83 -28 -178 15 -178 6 0 22 9 35 20 13 11 26 20 31
20 4 0 21 21 39 47 23 35 30 57 28 83 -4 46 -22 45 -26 -2 -2 -29 -15 -49 -54
-90 l-51 -53 -8 29 c-6 21 -2 45 12 85 33 91 33 91 16 91 -8 0 -24 -23 -37
-52z"/>
<path d="M10596 3383 c-13 -13 -5 -23 27 -36 51 -22 61 -40 42 -76 -16 -32
-110 -108 -127 -103 -14 4 -6 -30 8 -35 7 -2 36 16 66 40 52 42 54 43 68 24
22 -28 110 -26 110 4 0 5 -20 9 -45 9 -37 0 -45 3 -45 19 0 24 68 85 114 102
34 12 50 39 24 39 -21 -1 -92 -36 -106 -53 -12 -14 -17 -12 -43 18 -29 32 -81
59 -93 48z"/>
<path d="M2970 3360 c-24 -24 -26 -68 -3 -114 13 -29 14 -38 3 -51 -17 -21
-35 -19 -52 6 -12 19 -15 20 -26 6 -11 -13 -10 -19 7 -36 27 -27 65 -27 91 -1
23 23 25 55 5 90 -30 52 -5 108 36 82 38 -24 57 -3 22 24 -26 19 -60 17 -83
-6z"/>
<path d="M6306 3333 c-32 -53 -40 -108 -16 -108 9 0 15 11 17 27 1 14 13 45
27 67 29 45 32 61 13 61 -6 0 -25 -21 -41 -47z"/>
<path d="M11765 3366 c-10 -7 -26 -11 -36 -9 -13 4 -29 -11 -59 -58 -22 -34
-40 -68 -40 -75 0 -31 22 -19 80 47 34 38 64 68 66 67 2 -2 -4 -23 -12 -47 -8
-23 -12 -47 -9 -52 11 -17 25 -9 31 19 4 15 15 44 26 65 10 21 16 42 13 47 -9
14 -38 12 -60 -4z"/>
<path d="M3334 3294 c-57 -125 -42 -136 54 -41 l63 62 -7 -42 c-9 -57 13 -93
56 -90 34 2 35 20 2 25 -28 4 -38 41 -23 83 29 84 2 90 -76 17 l-57 -53 27 49
c26 46 27 66 6 66 -6 0 -26 -34 -45 -76z"/>
<path d="M8132 3333 c-46 -48 -67 -87 -59 -107 8 -21 66 -21 93 -1 27 20 31
19 38 -16 8 -41 32 -33 28 10 -2 19 5 45 18 66 31 51 15 64 -29 22 -48 -45
-81 -67 -104 -67 -18 0 -17 1 1 28 41 56 63 73 90 70 19 -2 27 2 27 12 0 10
-12 16 -33 18 -28 3 -40 -3 -70 -35z"/>
<path d="M8714 3351 c-77 -47 -106 -166 -45 -186 27 -8 77 5 59 16 -9 6 -7 9
10 9 12 0 22 5 22 11 0 7 -10 9 -27 4 -50 -13 -58 -11 -61 18 -3 21 1 27 17
27 32 0 91 40 97 66 6 25 -10 54 -30 54 -6 0 -25 -9 -42 -19z m46 -25 c0 -9
-61 -48 -66 -43 -8 8 34 47 51 47 8 0 15 -2 15 -4z"/>
<path d="M13314 3353 c-13 -40 -37 -92 -43 -91 -41 5 -48 -28 -10 -47 27 -15
30 -14 36 2 3 10 14 38 24 62 21 48 25 91 9 91 -6 0 -13 -8 -16 -17z"/>
<path d="M13459 3331 c-39 -42 -58 -96 -40 -114 7 -7 13 -2 21 17 5 15 10 31
10 34 0 12 58 72 69 72 7 0 11 -23 11 -56 0 -55 12 -94 30 -94 9 0 5 105 -6
158 -7 37 -51 29 -95 -17z"/>
<path d="M14154 3351 c-40 -24 -84 -81 -84 -108 0 -11 7 -27 16 -34 13 -11 23
-10 61 3 l46 17 32 -35 c33 -35 55 -44 55 -22 0 7 -12 24 -27 40 -25 26 -26
29 -13 67 11 35 11 43 -4 66 -20 30 -40 31 -82 6z m59 -23 c8 -25 -18 -61 -58
-79 -63 -28 -69 -6 -13 47 49 46 63 52 71 32z"/>
<path d="M9924 3341 c-53 -24 -96 -76 -92 -110 4 -35 32 -34 36 1 4 29 46 77
71 80 9 0 23 1 31 2 8 1 16 11 18 24 4 27 -8 27 -64 3z"/>
<path d="M12535 3351 c-3 -6 -3 -16 0 -22 4 -5 14 -38 24 -72 11 -41 21 -62
31 -62 18 0 17 10 -7 94 -17 62 -34 84 -48 62z"/>
<path d="M2124 3334 c-42 -22 -94 -75 -94 -96 0 -33 78 -64 154 -60 62 3 42
32 -22 32 -45 1 -128 27 -89 29 28 1 94 38 101 56 17 45 -5 62 -50 39z"/>
<path d="M9775 3330 c-52 -20 -103 -105 -85 -141 34 -62 140 29 125 107 -7 39
-13 44 -40 34z m15 -55 c0 -19 -49 -75 -66 -75 -17 0 -9 24 24 67 24 32 42 35
42 8z"/>
<path d="M9523 3144 c-9 -23 11 -38 26 -20 13 16 7 36 -10 36 -5 0 -12 -7 -16
-16z"/>
<path d="M8078 2813 c-40 -38 -63 -74 -114 -179 l-64 -132 -55 -7 c-70 -8 -70
-31 0 -27 41 2 46 0 40 -15 -14 -37 -27 -123 -21 -138 11 -29 28 -10 32 35 2
25 9 63 17 85 12 34 19 41 47 45 44 7 52 30 11 30 l-31 0 24 53 c55 124 84
174 128 219 27 27 52 46 58 43 17 -11 32 5 19 21 -19 23 -37 16 -91 -33z"/>
<path d="M8275 2776 c-52 -23 -93 -94 -144 -248 l-33 -98 -44 0 c-37 0 -44 -3
-44 -19 0 -16 5 -18 40 -14 22 3 40 3 40 0 0 -4 -9 -29 -20 -57 -11 -28 -20
-60 -20 -70 0 -36 25 -21 37 23 18 69 37 117 46 117 5 0 6 4 3 9 -6 9 38 153
68 223 23 55 74 108 102 108 20 0 24 -5 24 -31 0 -40 24 -34 28 8 2 23 -3 35
-20 47 -27 19 -25 19 -63 2z"/>
<path d="M1696 2739 c-45 -30 -116 -119 -116 -146 0 -27 26 -10 55 35 28 43
105 112 125 112 23 0 -156 -273 -201 -307 -9 -6 -28 -28 -44 -48 -21 -28 -25
-39 -15 -48 9 -9 22 -1 55 36 48 52 67 57 117 28 26 -14 40 -17 66 -9 43 12
44 40 1 31 -32 -6 -109 23 -109 42 0 6 18 32 40 59 40 48 140 217 140 236 0
22 -68 9 -114 -21z"/>
<path d="M1991 2751 c-11 -7 -12 -13 -3 -23 8 -11 9 -17 0 -26 -14 -14 -14
-62 0 -186 10 -89 23 -129 37 -115 3 3 0 55 -6 115 -15 152 -14 164 16 191 23
22 29 23 60 13 56 -18 82 -46 95 -99 10 -43 9 -55 -8 -93 -52 -118 -170 -185
-275 -157 -50 13 -77 35 -77 61 0 26 -24 17 -28 -10 -8 -55 105 -103 198 -83
67 14 99 32 144 78 57 59 90 133 82 187 -9 59 -43 107 -91 130 -46 21 -123 30
-144 17z"/>
<path d="M7226 2738 c-8 -13 -33 -90 -56 -172 -42 -155 -63 -201 -107 -236
-37 -29 -53 -26 -53 12 0 52 35 112 81 137 30 17 38 26 30 34 -15 15 -76 -18
-103 -55 -18 -26 -43 -96 -38 -108 1 -3 7 -4 13 -2 6 2 6 -2 -1 -11 -25 -30
15 -66 58 -52 10 3 38 27 60 52 41 47 57 90 111 292 12 46 30 91 40 99 14 12
15 18 6 24 -19 12 -25 10 -41 -14z"/>
<path d="M2969 2738 c-3 -12 -11 -78 -12 -100 -1 -14 -6 -26 -10 -25 -9 2 -96
-219 -100 -254 -1 -12 3 -24 10 -26 7 -3 19 18 29 54 9 32 31 92 48 133 65
154 79 220 46 220 -5 0 -10 -1 -11 -2z"/>
<path d="M11285 2720 c-4 -6 -8 -34 -10 -63 -2 -29 -12 -77 -23 -107 -17 -50
-22 -55 -53 -61 -19 -3 -40 -9 -47 -13 -21 -13 -1 -27 29 -21 16 4 29 4 29 1
0 -4 -13 -32 -29 -64 -38 -75 -48 -122 -27 -122 9 0 19 12 22 28 4 15 22 57
40 94 36 72 34 71 147 83 54 6 73 19 44 31 -8 3 -39 1 -71 -4 -31 -5 -58 -6
-61 -3 -2 4 5 38 16 76 10 38 19 86 19 107 0 37 -13 57 -25 38z"/>
<path d="M15466 2718 c-2 -7 -12 -38 -21 -68 -9 -30 -25 -95 -35 -145 -10 -49
-19 -84 -19 -77 -1 19 -62 14 -99 -8 -87 -53 -54 -150 51 -150 57 0 71 26 87
158 6 48 20 121 31 162 29 107 32 127 20 134 -6 4 -13 1 -15 -6z m-91 -318 c4
-6 10 -8 15 -5 12 7 -6 -63 -20 -80 -29 -35 -109 1 -96 43 12 36 86 67 101 42z"/>
<path d="M5456 2708 c-2 -7 -11 -51 -20 -98 -25 -132 -119 -300 -169 -300 -40
0 -24 79 27 133 22 24 29 27 42 16 19 -16 31 -3 18 19 -19 30 -44 25 -84 -17
-73 -77 -76 -171 -6 -179 62 -7 170 157 201 306 8 40 15 84 15 97 0 27 -18 44
-24 23z"/>
<path d="M6088 2664 c-64 -92 -56 -87 -126 -77 -40 6 -65 6 -69 0 -8 -14 13
-24 68 -31 l48 -7 -19 -42 c-57 -130 -17 -219 85 -185 62 21 57 40 -8 32 -50
-6 -56 -4 -67 15 -13 26 -7 65 22 133 20 46 20 46 79 53 69 8 77 31 11 29
l-41 -1 17 29 c9 16 25 38 35 48 19 22 22 36 7 45 -5 3 -24 -15 -42 -41z"/>
<path d="M10326 2701 c-3 -5 -4 -15 -2 -23 3 -7 -8 -47 -23 -88 l-28 -75 -51
3 c-41 3 -52 0 -52 -11 0 -10 14 -18 40 -22 22 -4 40 -9 40 -11 0 -3 -18 -44
-41 -91 -38 -79 -44 -120 -18 -111 6 2 29 49 51 105 l39 101 41 -5 c35 -5 40
-4 36 13 -3 13 -11 18 -29 17 l-26 -1 29 84 c16 47 28 92 26 101 -4 19 -24 28
-32 14z"/>
<path d="M14936 2645 c-9 -13 -16 -26 -16 -28 0 -3 -17 -23 -38 -46 -33 -36
-45 -42 -83 -44 -33 -2 -45 -6 -47 -19 -4 -19 24 -26 30 -8 2 5 13 7 25 4 21
-6 21 -8 8 -34 -8 -15 -11 -31 -7 -34 3 -4 1 -10 -5 -14 -6 -4 -15 -30 -18
-59 -6 -44 -4 -54 14 -72 15 -15 32 -21 53 -19 41 4 50 28 11 28 -56 0 -66 35
-34 120 11 27 17 50 15 50 -2 0 4 9 13 20 12 13 31 20 58 21 59 2 98 12 103
27 3 10 -9 12 -57 6 -34 -3 -61 -5 -61 -2 0 2 18 29 40 58 22 29 40 57 40 62
0 17 -29 7 -44 -17z"/>
<path d="M4815 2646 c-16 -12 -18 -17 -7 -27 18 -19 15 -37 -14 -99 -40 -84
-82 -207 -75 -218 3 -6 18 -13 33 -17 52 -13 188 67 188 110 0 21 -34 64 -65
85 l-25 16 52 35 c66 44 96 84 82 107 -15 23 -140 29 -169 8z m135 -30 c0 -13
-34 -42 -92 -79 l-27 -17 11 32 c8 22 8 36 0 48 -15 25 -6 30 55 30 38 0 53
-4 53 -14z m-67 -187 l29 -31 -22 -23 c-22 -23 -63 -46 -107 -60 -20 -5 -23
-3 -23 19 0 14 9 51 21 81 20 53 23 56 48 50 14 -3 39 -20 54 -36z"/>
<path d="M13227 2622 c-30 -20 -97 -90 -97 -101 0 -4 -16 -46 -35 -94 -19 -48
-35 -94 -35 -102 0 -21 26 -19 33 3 40 131 119 262 170 278 20 6 57 -21 57
-43 0 -7 7 -13 15 -13 20 0 19 19 -5 58 -23 38 -59 42 -103 14z"/>
<path d="M8308 2549 c-27 -15 -21 -29 13 -29 23 0 30 4 27 17 -4 21 -18 25
-40 12z"/>
<path d="M10543 2540 c-17 -10 -37 -28 -43 -39 -6 -12 -17 -21 -26 -21 -8 0
-20 -12 -26 -27 -6 -16 -24 -57 -39 -92 -27 -59 -30 -81 -9 -81 17 0 101 167
93 186 -5 13 -3 16 10 11 11 -4 20 0 27 12 13 25 39 34 57 20 10 -9 17 -9 25
-1 9 9 7 17 -7 32 -22 25 -22 25 -62 0z"/>
<path d="M10907 2545 c-7 -16 8 -29 23 -20 15 9 12 35 -4 35 -8 0 -16 -7 -19
-15z"/>
<path d="M2720 2526 c-51 -34 -130 -153 -130 -194 0 -9 -10 -46 -22 -84 -17
-53 -19 -71 -10 -80 17 -17 26 -4 51 72 20 58 26 67 64 86 49 24 133 122 143
167 5 23 2 34 -12 44 -26 19 -45 16 -84 -11z m70 -25 c0 -26 -133 -171 -146
-159 -1 2 3 23 9 46 14 51 96 136 121 126 9 -3 16 -9 16 -13z"/>
<path d="M12335 2522 c-38 -24 -65 -63 -72 -108 -9 -54 19 -43 40 16 19 52 40
70 95 79 18 3 34 11 35 16 4 19 -67 16 -98 -3z"/>
<path d="M13821 2515 c-29 -25 -131 -184 -131 -205 0 -5 6 -10 14 -10 15 0 44
42 84 121 32 66 67 92 109 84 34 -6 42 2 21 23 -20 20 -65 14 -97 -13z"/>
<path d="M3032 2514 c-35 -24 -65 -90 -52 -114 14 -25 50 -26 82 -1 l24 19 -1
-51 c0 -38 4 -52 14 -52 9 0 14 15 16 45 1 25 8 64 16 87 12 40 12 43 -12 62
-29 25 -57 26 -87 5z m57 -28 c9 -11 4 -20 -24 -45 -39 -34 -55 -39 -55 -17 0
16 47 76 60 76 4 0 13 -6 19 -14z"/>
<path d="M3182 2447 c-18 -45 -35 -88 -38 -94 -4 -8 1 -13 9 -13 9 0 37 27 62
60 67 86 81 80 46 -20 -14 -38 -16 -60 -10 -73 13 -22 29 -13 29 17 0 13 7 40
15 59 20 48 20 106 0 113 -8 4 -26 -1 -40 -10 -24 -16 -25 -16 -19 14 5 22 3
30 -7 30 -8 0 -28 -36 -47 -83z"/>
<path d="M3489 2505 c-54 -29 -100 -117 -91 -172 5 -35 50 -65 86 -58 41 9
153 60 173 80 29 30 4 28 -64 -5 -44 -21 -84 -33 -113 -34 -45 -1 -45 -1 -48
37 -3 37 -3 37 33 37 42 0 95 44 95 78 0 52 -22 64 -71 37z m41 -30 c0 -23
-37 -55 -62 -55 -21 1 -20 4 14 35 42 39 48 42 48 20z"/>
<path d="M12433 2491 c-104 -76 -121 -176 -33 -202 49 -15 130 -4 130 17 0 13
-8 14 -40 9 -52 -9 -98 2 -110 26 -15 28 21 93 71 126 33 22 42 24 49 13 13
-22 -6 -46 -55 -70 -53 -26 -60 -46 -13 -36 38 8 101 55 106 80 5 24 -25 66
-47 66 -10 0 -36 -13 -58 -29z"/>
<path d="M13340 2513 c-45 -17 -100 -67 -120 -108 -32 -67 -14 -101 60 -115
35 -6 43 -4 59 16 10 13 22 20 26 16 5 -4 5 -1 1 6 -9 15 -31 16 -55 1 -10 -7
-30 -9 -44 -5 -21 5 -27 12 -27 34 0 26 3 28 29 24 45 -6 141 51 141 85 0 14
-35 53 -47 52 -5 0 -15 -3 -23 -6z m30 -47 c0 -18 -43 -45 -83 -52 l-32 -5 39
35 c40 37 76 47 76 22z"/>
<path d="M13635 2513 c-11 -3 -36 -18 -56 -33 -23 -18 -40 -25 -46 -19 -12 12
-40 -17 -45 -46 -1 -11 -6 -22 -9 -25 -3 -3 -26 -48 -52 -100 -25 -52 -56
-111 -68 -132 -13 -21 -19 -43 -15 -53 6 -17 8 -17 25 -1 10 9 37 57 60 106
l43 90 39 0 c31 0 48 8 88 43 57 49 105 128 96 157 -6 20 -20 22 -60 13z m35
-31 c0 -16 -55 -86 -94 -119 -20 -18 -48 -33 -61 -33 -22 0 -23 2 -11 25 7 14
25 34 40 46 15 12 25 26 23 32 -2 6 15 21 37 33 44 24 66 29 66 16z"/>
<path d="M12115 2493 c-41 -21 -74 -53 -92 -87 -14 -27 -14 -31 2 -43 20 -14
57 -9 92 13 31 20 36 18 29 -12 -4 -16 -2 -32 6 -42 11 -13 11 -15 -2 -7 -12
6 -13 5 -3 -5 16 -17 15 -18 37 60 22 82 22 111 0 127 -23 16 -32 16 -69 -4z
m55 -33 c0 -15 -80 -70 -102 -70 -18 0 -18 1 -1 24 32 43 103 74 103 46z"/>
<path d="M14211 2492 c-50 -25 -57 -42 -42 -101 10 -39 10 -54 0 -73 -15 -28
-48 -53 -71 -53 -10 0 -18 -3 -18 -7 0 -5 0 -12 0 -18 0 -20 47 -9 82 20 44
36 55 76 37 137 -11 42 -11 47 6 59 10 8 31 14 47 14 31 0 39 24 12 34 -20 8
-13 9 -53 -12z"/>
<path d="M5471 2465 c-32 -37 -43 -96 -20 -110 20 -13 60 6 79 38 l20 32 0
-27 c0 -30 -19 -175 -26 -199 -3 -13 -14 -15 -53 -11 -43 4 -50 1 -68 -22 -40
-50 -38 -167 2 -182 25 -10 80 40 111 101 24 47 32 55 51 50 32 -8 38 13 8 27
-21 9 -25 17 -20 37 16 75 31 211 27 242 -3 27 -11 40 -28 48 -38 17 -50 14
-83 -24z m59 -8 c0 -7 -13 -28 -30 -47 -27 -33 -29 -33 -30 -12 0 13 11 34 25
47 27 28 35 31 35 12z m-32 -306 c11 -7 10 -16 -6 -47 -11 -22 -33 -52 -48
-67 l-28 -28 -8 22 c-9 23 -2 82 14 112 9 18 53 23 76 8z"/>
<path d="M5696 2468 c-14 -18 -30 -37 -34 -43 -4 -5 -13 -29 -20 -52 -14 -48
-5 -83 30 -107 37 -26 118 -19 118 10 0 11 -9 13 -39 8 -57 -9 -83 8 -79 54 2
26 9 40 26 48 43 21 73 57 70 84 -5 39 -40 38 -72 -2z"/>
<path d="M5140 2455 c0 -56 -88 -141 -110 -105 -4 6 -3 32 2 57 17 78 -13 72
-32 -7 -11 -45 -10 -53 6 -71 12 -14 26 -18 46 -15 30 5 62 25 53 34 -3 3 5
10 17 16 29 14 48 52 48 94 0 22 -5 32 -15 32 -10 0 -15 -11 -15 -35z"/>
<path d="M6681 2469 c-38 -32 -71 -81 -71 -106 0 -34 39 -49 76 -30 l29 15 0
-37 c0 -52 26 -48 30 5 2 23 10 55 19 72 21 41 20 58 -4 82 -25 25 -48 25 -79
-1z m58 -18 c12 -8 12 -13 -3 -36 -29 -44 -96 -76 -96 -46 0 10 70 91 78 91 4
0 13 -4 21 -9z"/>
<path d="M6890 2473 c-13 -10 -33 -17 -44 -18 -13 0 -23 -12 -32 -39 -8 -21
-19 -45 -26 -53 -8 -11 -8 -17 1 -26 10 -9 17 -6 34 18 37 50 75 90 81 85 3
-3 -1 -30 -9 -60 -18 -68 -18 -70 0 -70 8 0 19 17 25 43 6 23 15 57 20 76 6
23 6 39 -2 48 -14 17 -19 16 -48 -4z"/>
<path d="M7708 2457 c-50 -60 -57 -72 -58 -98 0 -32 28 -59 63 -59 61 0 90
106 44 162 l-22 28 -27 -33z m40 -60 c5 -38 -15 -69 -41 -65 -17 2 -22 9 -20
32 2 31 30 69 47 63 6 -2 12 -15 14 -30z"/>
<path d="M8622 2474 c-13 -9 -34 -33 -47 -54 l-24 -38 32 -36 c39 -42 92 -66
146 -66 40 0 57 11 46 30 -4 6 -15 6 -30 0 -36 -14 -134 30 -135 60 0 4 16 12
35 19 46 16 71 52 55 80 -13 25 -47 27 -78 5z m48 -24 c0 -14 -49 -44 -58 -35
-4 3 4 15 17 26 26 21 41 24 41 9z"/>
<path d="M14370 2454 c-50 -45 -100 -121 -100 -151 0 -24 29 -37 71 -31 39 5
35 28 -6 28 -30 0 -36 3 -31 16 3 9 6 18 6 20 0 2 8 4 18 4 24 1 111 67 121
93 10 26 -3 57 -24 57 -8 0 -33 -16 -55 -36z m50 -13 c0 -10 -53 -51 -66 -51
-4 0 5 14 21 30 29 30 45 38 45 21z"/>
<path d="M9405 2472 c-34 -8 -104 -61 -120 -93 -25 -47 12 -94 80 -104 22 -3
45 -8 52 -10 13 -4 29 13 19 22 -3 3 -26 9 -52 14 -87 16 -96 48 -32 103 32
28 50 36 81 36 25 0 37 4 35 12 -5 15 -38 25 -63 20z"/>
<path d="M15105 2463 c-16 -9 -45 -29 -63 -44 -18 -16 -44 -29 -57 -29 -16 0
-25 -6 -25 -15 0 -9 9 -15 24 -15 19 0 23 -4 19 -19 -6 -23 29 -61 57 -61 25
0 26 17 1 25 -22 7 -33 28 -25 49 3 8 30 20 59 26 59 12 88 37 83 72 -4 29
-32 33 -73 11z m40 -32 c-6 -5 -21 -12 -35 -15 -24 -7 -24 -6 -6 8 21 17 57
23 41 7z"/>
<path d="M9973 2458 c-30 -15 -34 -41 -12 -83 24 -44 24 -58 0 -79 -25 -23
-57 -13 -79 22 -21 32 -42 39 -42 13 0 -22 23 -44 35 -33 5 4 5 2 1 -5 -8 -15
31 -43 62 -43 31 0 72 43 72 76 0 14 -7 38 -16 54 -26 43 -13 60 47 60 36 0
49 4 47 13 -6 15 -86 20 -115 5z"/>
<path d="M10862 2457 c-21 -25 -52 -102 -52 -129 0 -18 5 -28 15 -28 9 0 15 9
15 23 0 12 12 46 25 76 24 52 22 89 -3 58z"/>
<path d="M13963 2453 c-66 -36 -104 -123 -68 -153 19 -15 79 -19 82 -5 2 6
-10 15 -26 20 -39 13 -44 20 -36 46 5 14 10 18 15 10 5 -9 22 -5 64 13 60 27
76 47 56 71 -16 20 -48 19 -87 -2z m57 -18 c0 -5 -55 -35 -65 -35 -13 0 8 22
29 30 25 10 36 12 36 5z"/>
<path d="M8414 2441 c-70 -43 -94 -111 -53 -152 14 -14 30 -19 55 -17 43 4 45
21 3 28 -70 11 -60 76 18 114 43 22 57 46 26 46 -10 0 -32 -9 -49 -19z"/>
<path d="M10637 2436 c-41 -38 -61 -84 -48 -112 13 -29 36 -30 79 -4 l32 20 0
-26 c0 -50 25 -18 39 51 14 64 13 68 -4 81 -28 21 -69 17 -98 -10z m76 -12
c10 -10 -28 -57 -62 -77 -30 -18 -31 -18 -31 2 0 42 70 98 93 75z"/>
<path d="M11437 2440 c-46 -36 -50 -54 -27 -106 11 -26 20 -51 20 -57 0 -10
-60 -5 -92 8 -13 5 -18 2 -18 -9 0 -22 44 -38 94 -34 36 3 41 6 44 30 2 15 -4
40 -12 57 -9 16 -16 39 -16 50 0 29 41 54 75 45 23 -6 26 -4 23 12 -5 28 -57
30 -91 4z"/>
<path d="M14630 2440 c-22 -17 -21 -25 3 -21 5 1 5 -3 2 -9 -5 -8 -13 -6 -24
4 -10 9 -22 16 -27 16 -11 0 -94 -116 -94 -131 0 -16 18 -10 42 14 13 12 37
35 54 50 l32 28 -11 -41 c-8 -29 -8 -46 -1 -58 17 -27 29 -16 30 27 0 26 10
53 27 78 15 22 27 44 27 51 0 18 -32 14 -60 -8z"/>
<path d="M9794 2429 c-16 -10 -36 -19 -45 -19 -8 0 -25 -17 -37 -38 -11 -21
-30 -46 -42 -57 -22 -20 -27 -45 -8 -45 7 0 44 30 82 68 38 37 67 60 64 52
-23 -69 -31 -121 -20 -132 13 -13 12 -15 36 74 18 62 20 104 8 112 -5 3 -21
-4 -38 -15z"/>
<path d="M10928 2379 c-63 -66 -79 -94 -50 -94 5 0 26 21 46 47 20 25 49 56
66 68 29 21 30 21 30 2 0 -11 -9 -41 -20 -67 -22 -52 -25 -75 -10 -75 11 0 52
86 64 133 8 34 -7 57 -37 57 -12 0 -48 -29 -89 -71z"/>
<path d="M9525 2406 c-77 -82 -39 -169 60 -136 45 15 59 41 52 98 -9 78 -58
94 -112 38z m77 -21 c4 -5 8 -22 8 -38 0 -22 -7 -31 -36 -44 -34 -17 -37 -17
-49 1 -16 21 -10 42 18 74 21 22 46 25 59 7z"/>
<path d="M8245 2370 c-17 -33 -20 -90 -5 -90 6 0 12 6 14 13 4 16 22 68 31 90
13 30 -23 20 -40 -13z"/>
<path d="M3807 2324 c-9 -10 12 -34 30 -34 19 0 12 34 -8 38 -8 1 -18 0 -22
-4z"/>
<path d="M12568 2323 c-20 -5 -23 -18 -8 -28 12 -7 53 19 43 28 -7 7 -8 7 -35
0z"/>
<path d="M2967 2234 c-4 -4 -4 -17 -1 -30 4 -14 -16 -87 -51 -189 -52 -155
-65 -223 -40 -218 5 1 13 19 18 40 4 21 30 103 57 183 28 80 50 155 50 167 0
41 -16 64 -33 47z"/>
<path d="M3122 2089 c1 -13 8 -23 13 -21 15 3 12 35 -3 40 -9 3 -13 -3 -10
-19z"/>
<path d="M3648 2037 c-39 -15 -35 -41 12 -94 22 -25 40 -49 40 -54 0 -14 -44
-39 -70 -39 -14 0 -35 6 -46 14 -17 12 -28 12 -77 -1 -47 -12 -61 -12 -84 -1
-38 19 -38 32 1 46 52 19 88 57 84 90 -6 54 -87 33 -133 -36 -22 -33 -23 -42
-14 -75 13 -49 54 -71 112 -62 23 4 48 11 56 15 8 4 26 1 40 -6 43 -23 104
-18 135 11 36 33 33 58 -15 110 l-41 45 28 11 c21 8 34 7 48 -1 28 -18 48 6
22 26 -23 16 -59 17 -98 1z m-170 -49 c-5 -15 -66 -58 -82 -58 -14 1 60 70 75
70 6 0 9 -6 7 -12z"/>
<path d="M2102 2024 c-29 -20 -28 -40 4 -100 24 -46 25 -49 7 -61 -11 -9 -19
-10 -21 -3 -5 15 -32 12 -32 -3 0 -18 21 -37 40 -37 20 0 60 41 60 61 0 8 -11
32 -25 54 -31 50 -31 65 -2 65 30 0 40 10 26 27 -15 17 -30 17 -57 -3z"/>
<path d="M3201 1991 c-54 -59 -58 -65 -66 -99 -9 -44 20 -44 34 1 17 50 65
102 86 93 13 -5 16 -13 11 -34 -4 -15 -9 -47 -13 -71 -8 -61 16 -51 33 15 19
73 17 101 -8 118 -31 22 -36 21 -77 -23z"/>
<path d="M1863 1971 c-65 -54 -93 -140 -53 -161 17 -9 30 -6 67 15 36 19 48
23 54 13 14 -22 27 4 31 57 2 34 -1 49 -8 48 -7 -1 -15 9 -18 22 -8 30 -41 33
-73 6z m50 -43 c5 -38 -10 -60 -54 -78 -36 -15 -46 -8 -32 23 13 28 62 87 73
87 4 0 10 -15 13 -32z"/>
<path d="M3056 1933 c-9 -26 -16 -57 -16 -70 0 -41 25 -25 37 25 7 26 15 57
19 70 5 16 2 22 -9 22 -9 0 -21 -19 -31 -47z"/>
<path d="M3820 1790 c0 -24 25 -27 34 -4 9 23 8 24 -14 24 -13 0 -20 -7 -20
-20z"/>
</g>
</svg>
