<?xml version="1.0" standalone="no"?>
<!DOCTYPE svg PUBLIC "-//W3C//DTD SVG 20010904//EN"
 "http://www.w3.org/TR/2001/REC-SVG-20010904/DTD/svg10.dtd">
<svg version="1.0" xmlns="http://www.w3.org/2000/svg"
 width="1618.000000pt" height="1214.000000pt" viewBox="0 0 1618.000000 1214.000000"
 preserveAspectRatio="xMidYMid meet">

<g transform="translate(0.000000,1214.000000) scale(0.100000,-0.100000)"
fill="#000000" stroke="none">
<path d="M12333 11713 c-2 -10 -14 -43 -26 -73 -20 -49 -25 -55 -54 -56 -65
-3 -167 -84 -198 -157 -20 -49 -6 -113 30 -129 l23 -10 -34 -57 c-19 -31 -49
-84 -65 -118 -17 -36 -37 -63 -46 -63 -28 0 -7 -25 24 -28 28 -3 31 0 35 35 3
21 30 77 60 128 l55 90 57 7 c73 9 140 39 161 72 23 34 6 84 -41 126 l-35 30
37 78 c20 42 41 87 46 99 11 22 4 43 -14 43 -5 0 -12 -8 -15 -17z m-88 -173
c-3 -5 -10 -10 -16 -10 -5 0 -9 5 -9 10 0 6 7 10 16 10 8 0 12 -4 9 -10z m-28
-38 c8 -5 -3 -33 -39 -95 -54 -95 -72 -105 -96 -53 -12 24 -12 33 4 68 30 67
92 105 131 80z m72 -38 c26 -19 51 -71 44 -91 -8 -21 -73 -50 -127 -58 l-49
-8 38 69 c67 120 59 112 94 88z"/>
<path d="M12557 11673 c-2 -4 -7 -21 -11 -38 -4 -16 -41 -97 -82 -180 -77
-157 -97 -215 -73 -215 8 0 25 28 38 62 13 33 52 120 87 192 34 72 64 142 66
155 3 23 -15 41 -25 24z"/>
<path d="M14612 11643 c-6 -16 -13 -37 -16 -49 -5 -17 -14 -21 -50 -21 -67 0
-145 -58 -182 -138 -29 -62 -30 -85 -2 -120 18 -23 19 -30 9 -48 -73 -116
-105 -213 -73 -224 7 -3 12 5 12 20 0 24 67 166 93 197 8 10 31 15 73 15 50 1
69 6 103 28 79 52 105 164 52 221 -22 23 -22 23 -3 72 18 48 19 74 2 74 -4 0
-12 -12 -18 -27z m-59 -120 c-4 -10 -10 -20 -13 -23 -4 -3 -35 -43 -69 -90
-35 -47 -67 -86 -72 -88 -5 -2 -14 8 -21 23 -18 41 27 126 89 165 54 34 96 40
86 13z m61 -25 c21 -30 20 -71 -3 -116 -23 -45 -64 -70 -127 -79 -43 -6 -47
-4 -41 12 10 24 140 204 149 204 4 1 14 -9 22 -21z"/>
<path d="M14905 11615 c-6 -46 -46 -128 -124 -260 -42 -71 -52 -115 -27 -115
7 0 16 14 20 30 3 17 22 56 42 87 93 145 151 303 111 303 -10 0 -17 -15 -22
-45z"/>
<path d="M15161 11636 c-51 -18 -71 -48 -61 -91 5 -24 4 -38 -4 -43 -19 -12
-75 -87 -85 -116 -14 -36 1 -71 38 -90 67 -35 118 25 107 126 -4 33 -9 65 -12
72 -3 8 19 29 51 52 57 39 75 60 75 88 0 19 -26 21 -33 4 -4 -10 -7 -10 -18 0
-15 14 -14 14 -58 -2z m49 -33 c0 -5 -18 -21 -40 -36 l-40 -28 0 26 c0 17 7
29 23 35 28 11 57 12 57 3z m-94 -253 c-13 -28 -40 -37 -61 -20 -24 20 -17 54
23 106 l37 49 6 -55 c4 -33 2 -65 -5 -80z"/>
<path d="M13151 11624 c-59 -25 -95 -84 -51 -84 11 0 20 6 20 14 0 8 10 22 22
30 28 20 78 21 78 2 0 -34 -145 -187 -191 -201 -38 -12 -99 -65 -99 -86 0 -26
7 -24 67 16 29 19 54 35 57 35 2 0 4 -20 3 -44 -3 -61 15 -79 72 -73 25 3 50
11 55 19 6 8 17 13 24 11 6 -3 12 3 12 12 0 12 -5 16 -17 12 -66 -22 -103 -30
-109 -24 -4 4 -6 33 -5 64 1 55 3 60 48 103 104 100 140 175 94 200 -26 13
-39 12 -80 -6z"/>
<path d="M13419 11588 c-27 -30 -39 -50 -37 -68 3 -23 6 -25 56 -23 l52 2 -16
-32 c-9 -18 -38 -68 -65 -112 -57 -94 -67 -126 -45 -144 21 -17 34 -6 29 23
-4 18 9 49 45 108 27 46 60 103 72 128 13 25 33 58 46 73 27 32 32 67 9 67 -8
0 -15 -6 -15 -12 0 -7 -7 -2 -16 10 -25 37 -68 29 -115 -20z m95 -7 c17 -19
17 -20 -11 -34 -31 -16 -93 -32 -93 -23 0 12 63 76 74 76 7 0 21 -9 30 -19z"/>
<path d="M14245 11623 c-43 -5 -123 -43 -130 -61 -10 -26 4 -26 54 1 43 24
121 37 121 22 0 -39 -105 -146 -220 -223 -47 -31 -86 -65 -88 -74 -6 -30 22
-21 87 27 34 25 66 43 71 40 6 -4 10 -21 10 -38 0 -46 26 -79 58 -75 30 3 33
21 5 27 -25 5 -33 20 -33 63 0 20 -5 40 -11 43 -6 4 20 35 59 73 48 47 74 82
87 115 10 26 16 49 14 51 -8 8 -55 13 -84 9z"/>
<path d="M1977 11370 c-43 -13 -94 -56 -101 -85 -10 -41 11 -99 62 -166 115
-151 120 -168 70 -225 -42 -47 -83 -64 -155 -64 -94 0 -131 44 -81 97 23 25
17 44 -9 27 -10 -6 -26 -22 -36 -36 -17 -23 -18 -29 -6 -53 30 -60 92 -81 186
-64 88 17 163 87 163 154 0 26 -56 129 -79 145 -19 13 -72 96 -80 127 -12 42
0 74 37 95 35 21 102 34 102 20 0 -6 8 -13 18 -16 13 -4 17 -17 17 -52 0 -59
17 -66 40 -19 39 83 -43 147 -148 115z"/>
<path d="M12562 11318 c7 -19 38 -22 38 -4 0 10 -9 16 -21 16 -12 0 -19 -5
-17 -12z"/>
<path d="M2346 11308 c-2 -7 -12 -53 -21 -103 -35 -190 -33 -185 -66 -185 -32
0 -32 -24 1 -33 17 -4 18 -8 5 -49 -20 -69 -23 -143 -5 -143 11 0 17 17 22 60
12 97 21 120 48 117 34 -4 35 -7 11 -45 -29 -47 -27 -82 4 -103 24 -15 28 -15
69 0 25 9 50 24 56 31 17 21 4 74 -25 108 -21 23 -28 26 -45 17 -11 -6 -20 -7
-20 -2 0 5 -13 15 -30 22 -16 7 -30 16 -30 21 0 5 13 70 30 145 16 75 27 140
24 145 -8 13 -24 11 -28 -3z m48 -363 c3 -8 14 -15 25 -15 11 0 21 -9 25 -22
8 -29 -25 -58 -65 -58 -35 0 -39 25 -9 62 14 19 16 28 8 36 -8 8 -9 12 -1 12
6 0 13 -7 17 -15z"/>
<path d="M13575 11280 c-7 -12 2 -30 16 -30 5 0 9 9 9 20 0 21 -15 27 -25 10z"/>
<path d="M5900 11221 c0 -11 -9 -43 -19 -73 -11 -29 -22 -74 -26 -99 l-6 -45
-51 -10 c-28 -5 -54 -15 -56 -23 -4 -11 6 -12 52 -7 56 7 57 7 52 -16 -12 -54
-11 -73 4 -73 10 0 18 16 23 48 9 47 10 47 48 47 21 0 39 4 39 10 0 5 7 7 16
3 12 -4 15 -2 12 8 -3 10 -19 13 -56 11 l-52 -4 7 48 c3 26 16 77 29 113 12
36 21 69 18 73 -10 16 -34 8 -34 -11z"/>
<path d="M5644 11089 c-8 -14 5 -26 39 -34 36 -9 37 17 2 33 -32 15 -32 15
-41 1z"/>
<path d="M4255 11055 c-45 -16 -91 -62 -101 -100 -9 -36 13 -81 47 -95 28 -12
115 -8 153 6 20 8 15 31 -5 26 -8 -2 -37 -6 -66 -9 -57 -6 -103 13 -103 43 0
35 33 76 76 95 46 21 64 19 64 -7 0 -21 24 -12 29 11 3 18 -23 45 -43 45 -6
-1 -29 -7 -51 -15z"/>
<path d="M4786 11008 c-41 -42 -51 -48 -48 -30 8 43 -24 23 -40 -25 -37 -106
-69 -246 -60 -255 13 -13 32 -1 32 20 0 8 12 46 28 83 25 63 29 67 53 62 59
-11 159 69 159 127 0 32 -30 70 -56 70 -8 0 -39 -24 -68 -52z m91 -4 c12 -32
-39 -91 -94 -108 -39 -12 -30 36 15 84 41 42 69 51 79 24z"/>
<path d="M7305 11041 c-11 -20 11 -37 29 -22 10 8 16 9 21 1 4 -6 16 -10 28
-9 12 1 37 1 56 1 l33 -2 -58 -41 c-33 -22 -87 -59 -121 -82 -109 -71 -77 -91
129 -81 76 4 141 11 144 16 12 19 -47 27 -133 18 -108 -12 -143 -12 -143 -2 0
10 146 115 198 141 49 25 53 37 15 52 -45 17 -189 24 -198 10z"/>
<path d="M5017 10981 c-33 -36 -44 -54 -40 -70 6 -23 32 -35 56 -25 11 4 26
-5 43 -26 19 -22 34 -30 52 -28 34 4 42 28 9 28 -36 0 -50 22 -36 54 17 37 6
42 -43 17 -50 -24 -62 -12 -27 26 36 37 55 45 78 31 28 -17 38 -2 16 22 -29
32 -58 25 -108 -29z"/>
<path d="M4490 10994 c-81 -69 -70 -145 17 -109 47 20 50 19 57 -9 3 -14 15
-28 27 -31 29 -10 35 1 14 25 -12 14 -16 28 -12 49 4 17 3 33 -2 35 -4 3 -31
-7 -59 -22 -28 -15 -54 -24 -57 -20 -4 4 3 21 15 37 17 25 26 30 46 25 19 -5
24 -2 24 14 0 16 -17 32 -35 32 -2 0 -17 -12 -35 -26z"/>
<path d="M5314 11001 c-35 -21 -78 -74 -88 -108 -4 -12 -2 -32 4 -44 11 -20
17 -21 79 -15 72 8 87 16 77 41 -4 12 -10 14 -19 7 -17 -14 -103 -26 -110 -15
-9 14 23 72 51 93 13 11 35 20 47 20 27 0 41 26 19 34 -22 9 -26 8 -60 -13z"/>
<path d="M2145 11000 c-11 -17 6 -31 28 -24 31 9 34 14 17 24 -20 13 -37 12
-45 0z"/>
<path d="M2546 10980 c-32 -39 -54 -106 -39 -121 16 -16 33 -2 33 27 0 56 45
103 89 92 8 -2 16 3 18 10 3 8 -1 10 -11 6 -9 -3 -16 -1 -16 5 0 23 -49 10
-74 -19z"/>
<path d="M3009 10978 c-78 -59 -99 -148 -36 -148 30 0 83 34 98 62 11 21 14
15 30 -67 10 -49 18 -95 18 -101 1 -7 -25 -13 -62 -16 -116 -10 -164 -54 -132
-122 38 -80 101 -98 152 -43 35 37 96 154 83 162 -4 3 -15 49 -25 102 -21 128
-27 147 -45 151 -8 1 -26 -15 -39 -37 -21 -33 -56 -61 -76 -61 -3 0 -5 9 -5
21 0 23 52 76 88 90 23 9 26 29 5 36 -6 2 -30 -11 -54 -29z m100 -314 c7 -6
-22 -66 -47 -95 -30 -36 -51 -37 -84 -1 -48 52 -44 75 18 97 33 12 99 11 113
-1z"/>
<path d="M6212 10968 c-11 -24 -23 -59 -27 -78 -11 -50 -55 -134 -114 -215
-32 -44 -51 -80 -51 -97 0 -34 25 -28 34 8 4 14 27 53 52 87 59 79 86 134 113
224 12 40 26 75 31 78 15 9 12 35 -4 35 -8 0 -23 -19 -34 -42z"/>
<path d="M6853 10998 c-80 -11 -120 -25 -106 -39 7 -7 29 -7 72 2 34 6 79 9
101 6 34 -4 40 -2 40 13 0 23 -29 28 -107 18z"/>
<path d="M2741 10953 c-51 -59 -65 -97 -45 -114 11 -9 23 -8 54 6 22 10 45 24
51 32 16 18 31 16 28 -4 -5 -50 18 -87 46 -77 20 8 19 34 0 34 -18 0 -20 36
-5 76 19 49 -4 51 -71 6 -34 -23 -66 -42 -71 -42 -14 0 9 36 47 71 19 18 35
39 35 46 0 26 -30 12 -69 -34z"/>
<path d="M3247 10972 c-50 -52 -52 -133 -5 -167 29 -20 107 -19 137 1 28 20
14 42 -17 25 -30 -16 -88 -13 -106 5 -28 27 -18 42 39 59 60 17 82 42 66 74
-22 40 -77 42 -114 3z m79 -14 c9 -14 -23 -38 -53 -38 -29 0 -29 14 -1 34 27
19 44 20 54 4z"/>
<path d="M6070 10962 c0 -4 4 -12 9 -17 4 -6 14 -31 21 -57 11 -43 26 -58 42
-42 3 3 -3 32 -15 65 -15 44 -25 59 -38 59 -11 0 -19 -4 -19 -8z"/>
<path d="M5580 10911 c0 -31 21 -71 38 -71 10 0 12 6 8 23 -4 12 -8 31 -9 42
-3 27 -37 33 -37 6z"/>
<path d="M6837 10897 c-63 -7 -96 -14 -94 -21 6 -17 197 -10 214 8 7 6 -6 26
-15 24 -4 0 -51 -6 -105 -11z"/>
<path d="M5449 10241 c-50 -16 -69 -31 -69 -56 0 -24 37 -75 77 -108 l23 -18
-50 -40 c-57 -45 -63 -72 -29 -119 30 -40 71 -56 108 -41 56 24 72 103 33 159
l-23 31 41 26 c46 29 82 80 78 110 -2 16 -11 20 -38 20 -24 0 -35 -5 -35 -15
0 -10 8 -14 23 -12 21 3 22 1 13 -16 -6 -11 -30 -36 -53 -56 l-43 -36 -47 49
c-27 27 -48 54 -48 60 0 29 104 46 120 20 7 -10 12 -11 20 -3 28 28 -47 62
-101 45z m81 -293 c0 -27 -6 -41 -22 -52 -29 -21 -31 -20 -67 10 -42 35 -39
58 11 94 l42 31 18 -23 c10 -13 18 -40 18 -60z"/>
<path d="M6979 10189 c-19 -37 -50 -232 -39 -243 17 -17 25 5 39 106 7 51 19
103 27 116 15 22 12 42 -6 42 -5 0 -14 -10 -21 -21z"/>
<path d="M7173 10190 c-24 -14 -33 -27 -33 -46 0 -19 4 -25 18 -22 9 2 17 10
17 18 0 18 47 42 58 31 22 -22 -79 -162 -151 -211 -52 -35 -67 -60 -36 -60 9
0 34 14 55 31 32 25 42 29 54 19 8 -7 15 -18 15 -26 0 -15 38 -44 57 -44 15 0
53 36 53 50 0 15 -26 12 -40 -4 -16 -20 -37 -10 -44 20 -4 14 -13 27 -21 30
-11 5 -5 18 24 57 72 97 88 147 52 167 -28 14 -42 13 -78 -10z"/>
<path d="M6508 10195 c-3 -4 -4 -23 -1 -44 4 -26 1 -41 -11 -50 -11 -10 -16
-10 -16 -2 0 8 -14 11 -37 9 -52 -4 -48 -22 5 -26 35 -3 42 -6 38 -19 -4 -9
-9 -43 -13 -75 -5 -50 -3 -58 11 -58 11 0 16 9 17 33 0 17 6 52 12 77 12 44
13 45 48 42 35 -3 59 12 44 26 -4 4 -10 2 -12 -4 -3 -9 -10 -9 -28 0 -18 8
-25 20 -27 50 -3 37 -16 55 -30 41z"/>
<path d="M4033 10173 c-48 -3 -75 -9 -84 -19 -15 -19 2 -41 23 -28 7 5 33 10
58 11 25 2 58 5 73 7 16 3 27 1 25 -4 -5 -16 -139 -126 -194 -161 -53 -34 -68
-62 -38 -73 58 -22 319 -16 311 7 -3 8 -45 12 -135 12 -71 0 -133 2 -136 5 -3
3 21 26 53 50 152 117 181 143 181 165 0 21 -28 38 -55 33 -5 -1 -42 -4 -82
-5z"/>
<path d="M5880 10112 c-19 -11 -45 -34 -57 -52 -23 -32 -23 -32 -23 -8 0 14
-6 31 -14 37 -22 18 -70 10 -74 -12 -3 -16 1 -18 27 -12 29 6 31 5 31 -23 0
-32 -42 -92 -65 -92 -7 0 -16 8 -19 17 -10 24 -30 0 -21 -26 11 -35 61 -28
100 14 l33 34 6 -24 c3 -13 16 -30 28 -36 24 -13 109 -16 127 -4 25 15 8 23
-43 22 -32 -1 -61 4 -70 12 -43 36 13 130 77 131 22 0 28 4 25 17 -5 25 -27
26 -68 5z"/>
<path d="M7583 10108 c-11 -13 -37 -49 -57 -80 -19 -32 -38 -58 -41 -58 -8 0
-45 78 -45 94 0 20 -19 31 -32 18 -7 -7 0 -32 22 -81 l33 -70 -66 -90 c-77
-104 -107 -160 -107 -195 0 -27 18 -45 24 -24 17 66 42 111 125 228 53 74 113
161 134 192 21 31 45 59 53 62 17 7 10 26 -10 26 -7 0 -22 -10 -33 -22z"/>
<path d="M4809 10095 c-3 -3 -61 -5 -128 -6 -94 0 -123 -4 -127 -14 -8 -19 5
-37 19 -28 14 9 18 9 200 11 123 2 147 4 147 17 0 11 -11 15 -39 15 -22 0 -46
2 -53 5 -8 3 -16 3 -19 0z"/>
<path d="M3097 10028 c-34 -25 -34 -46 0 -54 33 -9 78 15 78 41 0 29 -46 37
-78 13z"/>
<path d="M4898 9985 c-2 -3 -99 -6 -214 -7 -178 -3 -209 -5 -209 -18 0 -13 27
-14 195 -11 107 2 206 5 220 6 14 1 44 3 68 4 30 1 42 5 42 16 0 11 -12 15
-48 15 -27 0 -51 -2 -54 -5z"/>
<path d="M14865 9576 c-8 -20 -16 -43 -18 -53 -2 -10 -11 -33 -21 -51 -9 -19
-15 -40 -12 -48 3 -8 2 -13 -2 -10 -5 3 -23 -25 -40 -60 l-33 -66 -62 4 c-50
2 -62 0 -62 -12 0 -11 15 -16 52 -20 l53 -5 -19 -31 c-10 -17 -22 -45 -26 -62
-11 -54 13 -37 47 33 24 48 38 65 53 65 37 0 65 12 65 27 0 12 -7 14 -30 10
-16 -4 -30 -4 -30 -1 0 3 14 35 31 72 46 97 89 203 89 218 0 29 -21 23 -35
-10z"/>
<path d="M2047 9523 c-2 -4 -8 -39 -11 -78 -17 -175 -48 -335 -67 -335 -20 0
-52 67 -66 143 -19 98 -24 112 -49 112 -15 0 -21 -15 -35 -90 -9 -49 -28 -122
-42 -161 -15 -44 -22 -77 -16 -85 5 -9 11 -10 17 -4 10 12 57 169 70 235 l9
45 7 -40 c13 -71 28 -109 59 -152 38 -53 63 -56 83 -8 24 59 63 277 67 384 2
31 -15 53 -26 34z"/>
<path d="M7003 9470 c-46 -28 -87 -88 -119 -176 -29 -80 -44 -94 -105 -94 -20
0 -29 -5 -29 -16 0 -13 9 -15 45 -12 40 3 44 1 39 -17 -16 -68 -20 -124 -8
-129 16 -6 24 3 24 30 0 13 5 46 11 73 11 51 11 51 65 67 33 9 54 21 54 30 0
17 -18 18 -56 4 -15 -6 -29 -9 -31 -6 -2 2 10 38 27 81 38 89 85 145 124 145
29 0 36 24 10 34 -20 8 -14 9 -51 -14z"/>
<path d="M12457 9454 c-4 -4 -7 -16 -7 -27 0 -11 -20 -54 -44 -96 -94 -160
-138 -278 -117 -310 13 -21 45 -6 33 15 -17 31 25 134 119 294 38 66 53 120
33 127 -5 2 -13 0 -17 -3z"/>
<path d="M13783 9408 c-9 -23 -45 -99 -79 -168 -65 -134 -86 -192 -77 -216 11
-29 30 -13 35 29 3 24 40 113 87 210 45 92 79 172 76 177 -12 20 -25 9 -42
-32z"/>
<path d="M14055 9438 c-3 -7 -15 -45 -28 -85 -28 -82 -104 -226 -141 -266 -23
-25 -64 -36 -79 -21 -12 13 17 66 56 99 30 26 46 33 64 29 26 -7 31 7 8 26
-21 17 -54 3 -102 -43 -79 -76 -80 -147 -1 -147 35 0 46 6 77 39 59 63 191
347 175 373 -8 12 -24 10 -29 -4z"/>
<path d="M14940 9420 c0 -48 -67 -198 -131 -292 -88 -130 -78 -160 19 -59 66
68 127 114 142 109 6 -2 -7 -31 -30 -65 -26 -39 -40 -70 -38 -85 4 -29 21 -26
29 6 4 12 23 47 43 76 20 30 36 63 34 74 -4 31 -47 32 -91 1 -47 -31 -53 -31
-35 -2 22 36 39 79 28 72 -5 -3 -10 1 -10 9 0 10 6 13 15 10 10 -4 15 0 15 13
0 10 9 35 20 56 24 45 27 107 5 107 -10 0 -15 -10 -15 -30z"/>
<path d="M10419 9428 c-1 -2 -2 -19 -4 -38 -1 -19 -17 -72 -34 -116 l-32 -81
-75 -5 c-81 -5 -105 -17 -79 -38 11 -9 19 -9 28 -2 7 6 35 11 63 11 l50 -1
-22 -66 c-11 -36 -26 -68 -33 -70 -14 -5 -15 -32 -1 -32 6 0 9 -3 8 -7 -5 -15
16 -16 23 -2 4 8 18 50 31 93 23 80 29 86 83 103 36 10 31 29 -7 25 -16 -1
-28 0 -28 3 0 2 14 41 30 87 33 91 38 138 15 138 -8 0 -15 -1 -16 -2z"/>
<path d="M12282 9334 c-29 -53 -51 -103 -48 -110 3 -8 0 -13 -6 -11 -15 3 -58
-71 -58 -100 0 -12 -4 -23 -10 -25 -5 -1 -12 -22 -16 -45 -5 -34 -4 -43 8 -43
9 0 19 19 27 53 6 29 48 118 97 205 76 135 90 172 66 172 -4 0 -31 -44 -60
-96z"/>
<path d="M13447 9412 c-21 -37 -10 -90 13 -66 18 19 22 61 6 67 -8 3 -17 3
-19 -1z"/>
<path d="M3357 9402 c-2 -4 -5 -33 -6 -64 -3 -77 -7 -94 -36 -154 -14 -28 -25
-54 -25 -57 0 -18 27 -3 57 33 19 22 43 45 54 51 18 9 19 7 13 -46 -6 -45 -4
-55 8 -55 10 0 18 14 22 38 15 90 1 116 -50 93 -24 -11 -25 -10 -20 22 16 104
16 135 2 140 -9 4 -17 3 -19 -1z"/>
<path d="M8836 9359 c-12 -93 -54 -206 -90 -244 -37 -38 -56 -45 -56 -17 0 22
57 92 75 92 20 0 30 21 14 30 -21 14 -66 -17 -94 -63 -37 -63 -30 -107 17
-107 32 0 96 68 116 123 28 76 56 202 49 221 -12 30 -24 16 -31 -35z"/>
<path d="M10567 9403 c-2 -5 -8 -25 -11 -47 -4 -21 -11 -46 -16 -55 -31 -55
-119 -265 -114 -272 10 -17 24 -8 51 33 32 50 82 98 100 98 7 0 13 -1 13 -2 0
-2 -7 -28 -15 -58 -18 -68 -18 -70 -1 -70 15 0 17 4 36 78 20 77 -8 107 -66
72 l-34 -19 15 29 c9 16 15 31 14 32 -1 4 13 39 35 92 9 21 16 49 16 62 0 23
-15 41 -23 27z"/>
<path d="M5504 9297 c-12 -45 -36 -122 -54 -170 -32 -91 -36 -142 -11 -142 10
0 15 14 17 46 2 25 15 72 29 105 27 60 65 194 65 226 0 10 -6 18 -12 18 -8 0
-22 -35 -34 -83z"/>
<path d="M10976 9318 c-11 -35 -22 -66 -26 -71 -4 -4 -26 -11 -51 -15 -29 -5
-44 -13 -44 -22 0 -15 16 -17 59 -6 24 6 24 5 15 -26 -33 -106 -47 -163 -42
-171 6 -10 33 11 33 26 0 6 12 48 26 94 23 73 29 83 49 83 34 0 55 10 55 27 0
11 -8 12 -35 7 -19 -3 -35 -5 -35 -3 0 2 9 28 20 57 23 60 25 82 7 82 -6 0
-21 -28 -31 -62z"/>
<path d="M12138 9305 c-7 -32 11 -44 29 -19 16 22 12 38 -9 42 -10 2 -17 -6
-20 -23z"/>
<path d="M11783 9230 c-46 -21 -83 -44 -83 -50 0 -15 31 -25 39 -13 7 11 55
37 98 54 l27 10 -19 -23 c-11 -13 -41 -47 -67 -76 -75 -84 -58 -116 30 -61
l51 31 27 -31 c33 -39 68 -39 97 2 26 34 31 132 7 132 -11 0 -15 -12 -16 -46
-2 -51 -18 -89 -37 -89 -7 0 -23 14 -35 30 -23 31 -50 38 -69 19 -6 -6 -16
-10 -21 -8 -6 2 16 33 49 69 32 36 59 71 59 78 0 23 -54 12 -137 -28z"/>
<path d="M3945 9251 c-40 -8 -43 -33 -11 -91 14 -26 26 -56 26 -67 0 -41 -48
-58 -72 -25 -21 30 -34 32 -36 7 -4 -51 92 -77 122 -33 23 32 19 77 -9 127
-14 24 -24 45 -22 47 2 2 19 5 38 7 22 2 34 8 34 17 0 17 -26 21 -70 11z"/>
<path d="M7540 9246 c0 -9 12 -14 36 -14 51 0 59 -13 38 -57 -17 -37 -85 -95
-110 -95 -7 0 -18 9 -24 20 -15 28 -30 25 -30 -5 0 -30 36 -51 72 -42 13 4 43
23 66 42 28 25 42 32 42 21 0 -19 52 -56 79 -56 12 0 21 6 21 15 0 8 -8 15
-18 15 -20 0 -52 29 -52 48 0 6 16 27 35 48 19 20 35 40 35 45 0 20 -22 18
-45 -5 -19 -19 -25 -21 -25 -9 0 25 -31 42 -77 43 -30 0 -43 -4 -43 -14z"/>
<path d="M13152 9193 c-22 -38 -50 -88 -62 -113 -20 -39 -24 -42 -31 -25 -4
11 -8 39 -8 63 -1 50 -15 82 -36 82 -16 0 -21 -25 -6 -34 5 -3 11 -33 13 -67
3 -40 10 -66 20 -73 14 -10 9 -22 -38 -91 -81 -119 -101 -166 -71 -165 6 1 22
22 34 48 12 26 41 72 64 102 22 30 61 95 86 144 25 49 56 107 69 128 13 20 24
44 24 53 0 31 -20 13 -58 -52z"/>
<path d="M13321 9189 c-22 -40 -41 -76 -41 -81 0 -5 -7 -16 -15 -24 -18 -19
-20 -44 -2 -44 7 0 23 19 35 43 12 23 37 70 56 103 32 57 35 74 16 74 -4 0
-26 -32 -49 -71z"/>
<path d="M13445 9240 c-61 -39 -97 -110 -76 -149 12 -22 71 -38 98 -26 10 5
23 7 29 6 7 -1 24 3 38 9 37 14 23 34 -18 25 -68 -15 -92 -15 -109 -3 -15 11
-16 19 -9 39 12 31 79 92 93 84 18 -12 9 -36 -21 -53 -30 -17 -41 -42 -17 -42
22 0 74 38 79 58 8 28 -13 66 -37 70 -11 1 -34 -7 -50 -18z"/>
<path d="M2358 9228 c-21 -12 -38 -28 -38 -35 0 -15 26 -18 35 -3 3 6 10 10
15 10 5 0 -2 -24 -15 -52 -44 -95 -25 -120 51 -66 32 22 48 29 51 20 6 -17 32
-42 44 -42 6 0 24 13 40 29 22 23 29 39 29 69 0 22 3 47 6 56 4 12 0 16 -15
16 -18 0 -21 -6 -21 -46 0 -77 -34 -112 -58 -59 -15 32 -18 31 -75 -5 l-47
-30 35 71 c47 92 37 110 -37 67z"/>
<path d="M3703 9230 c3 -14 -3 -34 -19 -57 -29 -44 -30 -67 -3 -94 16 -16 27
-19 52 -13 43 9 47 12 62 47 14 33 5 91 -17 112 -7 7 -28 16 -47 20 -31 7 -33
6 -28 -15z m65 -77 c-2 -28 -9 -41 -28 -50 -20 -10 -28 -10 -38 1 -12 11 -11
18 2 44 15 30 28 40 54 41 9 1 12 -10 10 -36z"/>
<path d="M5084 9243 c-41 -8 -65 -46 -75 -119 -16 -114 -30 -103 -43 36 -2 23
-9 36 -20 38 -14 3 -16 -4 -10 -55 9 -87 23 -132 43 -143 31 -16 46 17 66 151
7 49 26 62 86 63 38 1 49 4 47 16 -3 15 -52 22 -94 13z"/>
<path d="M2128 9213 c-34 -37 -48 -66 -48 -100 0 -37 16 -53 55 -53 82 0 128
100 74 159 -27 28 -50 26 -81 -6z m70 -50 c4 -38 -26 -73 -63 -73 -30 0 -33
25 -10 70 26 50 68 52 73 3z"/>
<path d="M15155 9214 c-73 -37 -127 -122 -109 -172 14 -39 48 -52 140 -52 95
0 144 8 144 24 0 7 -38 11 -120 11 -96 0 -123 3 -130 15 -23 35 20 109 81 141
40 20 59 18 59 -4 0 -15 -72 -57 -98 -57 -22 0 -37 -36 -20 -47 6 -3 16 1 23
10 7 9 15 14 18 11 8 -9 96 46 108 67 16 31 -14 69 -54 69 -7 0 -25 -7 -42
-16z"/>
<path d="M4135 9200 c-43 -27 -76 -76 -82 -120 -5 -32 -1 -43 22 -66 24 -24
32 -26 77 -21 52 7 124 45 135 73 10 28 -6 26 -49 -5 -57 -40 -117 -50 -142
-23 -25 28 -17 55 19 62 43 9 73 31 83 60 19 58 -8 75 -63 40z m35 -29 c0 -11
-40 -41 -54 -41 -5 0 1 11 14 25 24 26 40 32 40 16z"/>
<path d="M3059 9180 c-42 -42 -37 -79 13 -98 31 -12 43 -12 78 -1 45 15 51 36
10 31 -48 -5 -84 -2 -94 8 -13 13 30 60 55 60 12 0 16 5 13 15 -10 24 -43 17
-75 -15z"/>
<path d="M3142 9198 c7 -19 38 -22 38 -4 0 10 -9 16 -21 16 -12 0 -19 -5 -17
-12z"/>
<path d="M3528 9200 c-21 -13 -41 -74 -33 -100 10 -33 48 -52 78 -41 40 16 60
52 47 87 -22 57 -54 76 -92 54z m52 -44 c20 -25 8 -61 -21 -64 -31 -4 -43 17
-29 53 11 28 31 32 50 11z"/>
<path d="M6018 9189 c-32 -24 -35 -52 -13 -107 15 -34 15 -38 -1 -49 -24 -18
-32 -16 -44 7 -13 24 -30 18 -30 -11 0 -29 42 -45 80 -29 37 15 47 48 26 88
-9 17 -16 39 -16 48 0 20 28 43 53 44 10 0 17 6 15 13 -7 20 -41 18 -70 -4z"/>
<path d="M9569 9191 c-91 -122 -144 -189 -203 -256 -126 -142 -166 -197 -166
-229 0 -26 18 -18 36 15 18 36 87 123 150 190 23 25 66 77 95 115 28 38 69 90
90 115 22 26 39 52 39 58 0 18 -26 13 -41 -8z"/>
<path d="M5788 9173 c-68 -57 -76 -92 -29 -137 38 -37 128 -42 106 -7 -3 6
-21 11 -39 11 -34 0 -66 25 -66 50 0 18 50 70 67 70 23 0 14 -30 -13 -40 -28
-11 -24 -30 6 -30 20 0 60 44 60 66 0 12 -37 44 -51 44 -4 0 -22 -12 -41 -27z"/>
<path d="M8272 9175 c-40 -33 -57 -76 -42 -104 13 -26 26 -26 72 -1 l37 19 3
-32 c2 -24 8 -33 26 -35 25 -4 27 1 11 26 -7 12 -6 32 4 72 14 50 14 56 -1 68
-26 20 -78 14 -110 -13z m88 -14 c0 -6 -17 -22 -37 -37 -21 -16 -44 -35 -50
-43 -11 -13 -13 -11 -13 13 0 34 41 76 75 76 14 0 25 -4 25 -9z"/>
<path d="M8531 9175 c-23 -14 -48 -25 -55 -25 -6 0 -19 -13 -29 -29 -28 -47
-2 -47 59 0 30 23 57 39 60 36 3 -2 -2 -22 -10 -42 -19 -45 -20 -75 -3 -75 13
0 48 90 51 130 1 34 -20 35 -73 5z"/>
<path d="M9386 9193 c-6 -6 0 -93 10 -140 2 -13 11 -23 19 -23 15 0 14 25 -1
127 -5 33 -16 48 -28 36z"/>
<path d="M5585 9147 c-32 -55 -31 -69 3 -108 24 -27 30 -29 54 -20 15 6 38 27
51 48 27 43 52 112 43 120 -12 13 -34 -7 -40 -37 -9 -47 -44 -100 -66 -100
-49 0 -36 90 15 110 31 12 24 30 -10 30 -18 0 -31 -11 -50 -43z"/>
<path d="M12072 9168 c-5 -7 -17 -31 -26 -52 -14 -34 -15 -42 -2 -54 12 -12
16 -7 31 37 9 28 21 53 26 57 10 6 3 24 -10 24 -5 0 -13 -6 -19 -12z"/>
<path d="M10729 9162 c-25 -11 -74 -56 -92 -83 -15 -22 -15 -28 -3 -44 14 -19
16 -19 50 -2 20 9 35 13 35 9 -1 -4 -1 -15 0 -24 2 -26 31 -22 31 3 0 11 8 34
17 50 20 34 12 46 -22 31 -17 -8 -23 -16 -18 -29 5 -14 3 -16 -7 -6 -9 9 -19
9 -32 2 -32 -17 -30 -5 5 29 18 17 44 33 57 35 14 2 25 10 25 18 0 16 -22 21
-46 11z"/>
<path d="M5176 9139 c-38 -30 -61 -76 -45 -95 16 -20 29 -18 73 12 l38 26 -4
-43 c-3 -39 -1 -44 20 -47 21 -3 22 -1 16 35 -3 22 -1 56 4 77 10 35 9 38 -14
47 -38 14 -59 11 -88 -12z m64 -13 c0 -9 -70 -59 -75 -54 -8 8 43 58 60 58 8
0 15 -2 15 -4z"/>
<path d="M6607 9124 c-35 -34 -41 -58 -25 -91 24 -51 88 -43 116 15 41 83 -27
140 -91 76z m73 -33 c0 -26 -29 -61 -51 -61 -27 0 -29 42 -3 71 18 20 54 13
54 -10z"/>
<path d="M4487 8953 c-2 -5 -14 -42 -27 -83 -12 -41 -39 -123 -58 -182 -27
-80 -33 -111 -25 -119 15 -15 33 -3 33 21 0 10 14 63 31 117 17 54 39 125 50
159 10 33 19 68 19 77 0 17 -16 23 -23 10z"/>
<path d="M4245 8883 c-4 -10 -20 -54 -35 -98 -15 -44 -39 -108 -54 -143 -15
-35 -24 -67 -21 -72 3 -5 20 -14 38 -18 77 -21 170 67 132 124 -18 28 -35 30
-75 9 l-28 -14 35 97 c19 53 36 103 37 111 2 21 -21 24 -29 4z m35 -242 c0
-26 -46 -61 -81 -61 -39 0 -36 12 8 49 43 36 73 40 73 12z"/>
<path d="M4100 8866 c0 -18 30 -30 43 -17 5 5 6 14 3 20 -10 16 -46 13 -46 -3z"/>
<path d="M1768 8798 c-16 -17 -38 -48 -48 -67 -15 -27 -19 -31 -20 -15 0 11 5
25 11 31 6 6 8 16 5 22 -10 15 -36 14 -37 -1 -2 -41 -13 -78 -40 -136 -33 -74
-35 -82 -14 -82 8 0 41 42 74 93 91 140 93 141 70 67 -35 -113 -17 -133 55
-62 l44 43 7 -38 c9 -50 22 -73 41 -73 12 0 14 5 9 18 -21 48 -29 114 -17 144
22 58 -4 50 -58 -17 -29 -36 -54 -64 -57 -61 -2 2 5 34 16 70 30 97 14 122
-41 64z"/>
<path d="M5445 8820 c-26 -3 -40 -10 -40 -20 0 -15 13 -15 156 -8 8 1 27 0 44
0 l29 -2 -34 -30 c-19 -17 -81 -53 -137 -81 -57 -28 -103 -56 -103 -61 0 -5
-4 -7 -9 -4 -5 3 -24 -8 -42 -25 -28 -26 -30 -32 -18 -44 12 -12 51 -15 182
-16 93 -1 171 1 174 4 3 3 2 10 -1 16 -10 15 -189 13 -198 -2 -6 -9 -8 -9 -8
1 0 8 -19 12 -61 12 -78 0 -70 8 82 83 133 67 229 142 207 163 -14 14 -158 23
-223 14z"/>
<path d="M3236 8786 c-40 -41 -87 -136 -110 -223 -8 -35 -30 -99 -47 -143 -19
-48 -29 -86 -25 -97 7 -17 8 -17 22 2 8 10 31 63 52 117 33 86 40 98 61 98 36
0 124 94 144 155 30 87 19 125 -35 125 -18 0 -39 -12 -62 -34z m77 -40 c-4
-64 -85 -176 -127 -176 -29 0 24 141 72 193 36 38 58 32 55 -17z"/>
<path d="M3853 8796 c-64 -30 -69 -57 -23 -109 17 -19 30 -37 30 -41 0 -13
-63 -43 -81 -39 -14 4 -19 0 -19 -16 0 -36 56 -25 108 22 29 27 28 45 -8 87
-16 19 -30 38 -30 42 0 10 59 40 93 47 15 3 28 11 28 16 -1 19 -47 15 -98 -9z"/>
<path d="M2090 8802 c-44 -14 -100 -98 -100 -150 0 -62 47 -68 115 -16 26 19
44 31 41 25 -13 -20 24 -71 52 -71 18 0 15 27 -4 34 -14 5 -15 16 -9 71 5 53
4 65 -8 65 -8 0 -20 -14 -27 -31 -13 -31 -92 -99 -116 -99 -22 0 -16 47 11 89
31 50 42 56 71 40 29 -15 39 -8 25 19 -12 23 -30 31 -51 24z"/>
<path d="M3702 8793 c-6 -10 -14 -16 -19 -15 -14 6 -63 -32 -63 -50 0 -9 9
-32 20 -51 l20 -34 -28 -12 c-16 -7 -41 -9 -55 -5 -23 5 -27 3 -27 -15 0 -18
6 -21 38 -21 20 0 52 9 70 20 29 18 33 25 27 48 -4 15 -14 35 -23 45 -15 17
-14 20 13 42 17 14 44 28 60 33 35 10 36 26 1 30 -15 2 -28 -3 -34 -15z"/>
<path d="M3457 8779 c-9 -6 -15 -14 -12 -19 3 -5 -3 -22 -14 -37 -29 -41 -31
-81 -5 -107 24 -25 53 -19 90 18 44 44 46 86 5 127 -32 32 -38 33 -64 18z m58
-59 c3 -11 4 -29 0 -39 -7 -23 -52 -54 -65 -46 -17 10 -11 51 11 79 24 31 45
33 54 6z"/>
<path d="M2296 8771 c-3 -4 8 -29 25 -56 28 -45 29 -48 12 -61 -10 -7 -26 -16
-35 -19 -22 -8 -24 -35 -2 -35 9 0 28 9 42 21 30 23 22 28 84 -52 19 -24 29
-31 37 -23 9 8 2 22 -24 55 -19 24 -35 49 -35 55 0 6 18 24 40 39 22 15 40 31
40 35 0 20 -17 16 -57 -13 l-45 -31 -19 24 c-10 14 -22 35 -25 48 -6 22 -28
30 -38 13z"/>
<path d="M4590 8761 c-119 -64 -126 -213 -8 -195 21 4 56 12 76 19 31 11 37
18 39 44 3 35 -9 40 -29 13 -16 -23 -43 -37 -83 -45 -43 -8 -57 4 -53 44 3 30
6 34 30 31 35 -4 85 22 93 49 5 14 1 27 -12 40 -18 18 -19 18 -53 0z m21 -41
c-13 -11 -31 -20 -40 -20 -12 0 -10 5 9 20 34 27 63 26 31 0z"/>
<path d="M4035 8728 c-2 -7 -11 -37 -20 -66 -12 -37 -14 -57 -7 -64 16 -16 29
-2 36 39 3 21 12 50 20 65 8 15 12 29 8 32 -10 10 -33 6 -37 -6z"/>
<path d="M5905 8214 c-30 -30 -50 -67 -96 -178 -48 -116 -46 -114 -108 -105
-42 7 -35 -19 9 -32 27 -8 39 -17 36 -26 -19 -49 -37 -126 -32 -139 11 -28 34
-15 34 19 1 17 9 57 20 87 17 49 23 56 55 65 41 11 64 30 49 39 -5 3 -23 1
-40 -3 l-31 -9 19 49 c11 27 29 73 41 102 24 61 66 120 80 112 17 -11 31 6 18
21 -15 19 -34 18 -54 -2z"/>
<path d="M14847 8098 c-8 -18 -33 -77 -57 -130 l-42 -96 -71 -9 c-40 -4 -72
-13 -74 -20 -5 -14 46 -30 56 -17 6 9 71 17 71 8 0 -2 -11 -30 -24 -62 -37
-89 -40 -102 -21 -102 8 0 18 8 22 18 30 88 67 162 80 162 11 0 14 6 10 22 -4
15 9 56 38 120 44 95 55 138 35 138 -5 0 -16 -15 -23 -32z"/>
<path d="M13767 8113 c-3 -5 -26 -55 -52 -113 -102 -229 -130 -325 -95 -325 8
0 15 9 16 21 3 49 133 371 157 385 5 4 7 14 4 23 -7 17 -23 21 -30 9z"/>
<path d="M10945 8043 c-9 -38 -27 -93 -40 -123 -20 -48 -27 -56 -56 -60 -22
-3 -35 -11 -37 -23 -3 -15 1 -17 22 -11 31 8 32 0 6 -57 -23 -51 -25 -79 -7
-79 6 0 23 29 36 65 l25 65 63 0 c49 0 63 3 63 15 0 12 -13 15 -55 15 -30 0
-55 2 -55 5 0 3 9 23 20 45 25 50 63 187 55 200 -13 22 -24 7 -40 -57z"/>
<path d="M2896 8078 c-3 -10 -57 -192 -70 -233 -1 -5 -15 -35 -29 -65 -18 -38
-23 -58 -16 -65 7 -7 17 -2 30 15 77 96 91 110 116 110 22 0 24 -3 19 -27 -4
-16 -15 -44 -24 -63 -18 -37 -18 -74 0 -68 16 6 59 129 56 158 -3 21 -9 25
-41 28 -27 2 -45 -2 -60 -15 -20 -17 -20 -17 -13 2 13 35 66 217 66 226 0 14
-30 11 -34 -3z"/>
<path d="M7611 8062 c-5 -9 -21 -65 -35 -122 -28 -113 -67 -185 -101 -185 -33
0 -28 29 15 82 41 52 49 73 28 73 -20 0 -98 -112 -98 -140 0 -55 59 -68 102
-22 44 47 56 74 86 187 16 61 32 118 36 128 11 23 -20 23 -33 -1z"/>
<path d="M14952 8068 c-5 -7 -17 -51 -26 -97 -17 -90 -39 -148 -80 -207 -23
-35 -26 -54 -7 -54 4 0 29 27 55 60 25 34 51 58 56 55 6 -4 -5 -35 -25 -72
-37 -70 -43 -93 -22 -93 6 0 30 37 52 81 42 84 41 110 -2 117 -21 3 -21 0 17
167 9 42 0 65 -18 43z"/>
<path d="M12756 8045 c-19 -29 -146 -295 -146 -306 0 -20 35 -39 70 -39 71 0
165 93 140 139 -17 32 -46 35 -95 8 l-44 -25 25 57 c14 31 41 84 60 119 18 34
34 65 34 67 0 15 -30 1 -44 -20z m29 -244 c-9 -29 -73 -71 -107 -71 -16 0 -28
3 -28 6 0 20 28 48 73 74 54 31 74 28 62 -9z"/>
<path d="M2709 8023 c-7 -21 -24 -60 -39 -88 -26 -49 -28 -50 -80 -55 -69 -6
-81 -30 -16 -30 50 0 52 -3 31 -40 -22 -38 -19 -106 5 -130 23 -23 91 -27 109
-7 16 20 4 26 -35 20 -67 -11 -83 40 -39 126 17 35 32 51 52 56 34 8 55 24 47
36 -3 5 -16 6 -30 3 l-25 -6 35 68 c42 79 43 84 17 84 -14 0 -23 -11 -32 -37z"/>
<path d="M4456 8038 c-2 -7 -16 -56 -31 -108 -15 -52 -34 -115 -42 -140 -15
-47 -10 -94 10 -87 6 2 12 17 13 33 1 16 18 82 38 148 20 65 36 127 36 137 0
22 -19 35 -24 17z"/>
<path d="M12187 8013 c-8 -16 -29 -74 -46 -130 -36 -119 -75 -173 -121 -173
-37 0 -46 15 -26 45 22 33 61 58 92 58 18 0 24 4 22 16 -3 11 -12 15 -33 13
-45 -5 -88 -34 -109 -74 -19 -34 -19 -37 -3 -61 11 -16 23 -24 32 -21 8 4 15
2 15 -4 0 -6 10 -8 23 -4 66 16 101 69 147 222 18 58 36 109 41 115 13 14 11
25 -6 25 -8 0 -21 -12 -28 -27z"/>
<path d="M11462 8013 c2 -10 10 -18 18 -18 22 0 18 29 -3 33 -14 3 -18 -1 -15
-15z"/>
<path d="M6630 7950 c-14 -4 -44 -17 -67 -28 -33 -17 -47 -20 -68 -12 -40 15
-85 13 -85 -5 0 -9 9 -15 23 -15 12 0 32 -3 43 -6 21 -6 21 -6 3 -45 -11 -21
-33 -46 -50 -55 -28 -14 -32 -14 -48 0 -20 19 -31 12 -31 -20 0 -30 30 -35 78
-14 35 16 41 16 54 3 20 -20 86 -27 121 -14 40 16 24 31 -26 25 -28 -4 -49 0
-61 9 -19 14 -19 15 2 42 12 15 22 34 22 41 0 15 79 64 103 64 19 0 33 19 21
30 -5 4 -20 4 -34 0z"/>
<path d="M10671 7915 c-35 -30 -39 -60 -16 -105 14 -28 14 -31 -5 -50 -21 -21
-65 -27 -75 -10 -11 18 -26 10 -23 -12 2 -19 10 -24 41 -26 44 -4 82 17 99 52
8 18 6 32 -8 61 -21 45 -12 66 34 80 18 5 31 14 29 20 -7 20 -45 15 -76 -10z"/>
<path d="M4986 7914 c-20 -19 -20 -24 -1 -72 19 -47 9 -81 -30 -102 -23 -12
-27 -12 -35 0 -6 8 -10 23 -10 33 0 9 -7 17 -15 17 -22 0 -19 -53 3 -73 26
-24 56 -21 91 9 38 31 47 77 27 125 -15 35 -15 37 6 42 18 5 19 8 8 21 -16 20
-25 20 -44 0z"/>
<path d="M10015 7898 c-46 -25 -105 -92 -105 -120 0 -32 45 -61 87 -56 38 4
42 28 6 28 -16 0 -38 6 -49 14 -19 14 -19 15 2 43 29 40 84 74 106 67 13 -4
18 0 18 15 0 24 -31 28 -65 9z"/>
<path d="M14012 7876 l-37 -35 25 -46 c22 -39 23 -47 10 -55 -24 -16 -49 -11
-60 10 -13 25 -30 26 -30 2 0 -26 34 -54 65 -54 32 0 65 28 65 56 0 12 -9 36
-20 54 l-20 32 40 29 c38 27 42 41 13 41 -7 0 -30 -15 -51 -34z"/>
<path d="M4713 7847 c-42 -43 -53 -61 -53 -86 0 -69 43 -100 111 -80 21 7 39
16 39 21 0 5 5 6 10 3 6 -3 10 1 10 10 0 16 -22 14 -76 -6 -29 -10 -64 15 -64
46 0 25 13 38 44 42 48 8 107 68 91 94 -16 25 -60 7 -112 -44z m77 15 c0 -5
-12 -14 -27 -21 l-28 -11 24 20 c26 22 31 24 31 12z"/>
<path d="M9038 7876 c-31 -27 -78 -116 -78 -146 0 -39 28 -20 46 32 26 70 66
112 100 104 21 -6 25 -4 22 11 -5 28 -58 28 -90 -1z"/>
<path d="M10359 7872 c-5 -16 -19 -44 -30 -63 -38 -66 -43 -79 -33 -89 6 -6
28 14 57 51 43 53 98 99 120 99 13 0 8 -30 -13 -72 -24 -51 -27 -90 -5 -82 8
4 15 12 15 20 0 7 9 31 21 53 27 53 23 105 -9 109 -13 2 -39 -6 -58 -17 -30
-18 -34 -19 -32 -4 5 29 -22 26 -33 -5z"/>
<path d="M13795 7869 c-92 -81 -85 -179 12 -179 23 0 33 5 33 15 0 11 -11 15
-35 15 -40 0 -51 15 -40 57 7 28 66 93 84 93 21 0 11 -30 -19 -51 -34 -26 -46
-49 -25 -49 21 0 95 69 95 89 0 49 -55 54 -105 10z"/>
<path d="M14171 7871 c-34 -32 -37 -48 -19 -98 14 -39 5 -53 -37 -56 -37 -3
-44 -24 -10 -33 55 -14 103 54 75 105 -6 11 -8 32 -4 45 5 20 15 27 45 33 47
9 52 27 10 30 -21 2 -38 -6 -60 -26z"/>
<path d="M3109 7872 c-42 -27 -80 -78 -86 -115 -4 -27 0 -39 18 -57 21 -19 32
-21 84 -17 68 5 144 32 129 47 -5 5 -31 3 -64 -6 -68 -18 -119 -15 -134 9 -17
26 4 50 55 62 46 11 69 44 56 79 -8 21 -25 20 -58 -2z m31 -37 c0 -9 -6 -12
-15 -9 -8 4 -12 10 -9 15 8 14 24 10 24 -6z"/>
<path d="M4057 7876 c-57 -21 -73 -41 -96 -116 -12 -38 -25 -71 -30 -74 -12
-8 -41 62 -45 110 -4 48 -13 67 -28 58 -14 -9 -2 -107 18 -147 21 -41 44 -67
59 -67 14 0 47 71 64 137 13 49 48 73 106 73 37 0 50 22 19 34 -20 8 -22 8
-67 -8z"/>
<path d="M4190 7871 c-40 -22 -103 -103 -98 -128 6 -31 34 -39 72 -20 35 16
36 16 36 -2 0 -10 7 -24 15 -31 16 -13 16 -13 19 40 1 19 6 47 10 63 12 39 -8
35 -60 -13 -74 -68 -90 -48 -21 25 31 32 52 45 71 45 21 0 27 4 24 17 -5 25
-27 26 -68 4z"/>
<path d="M4495 7866 c-25 -37 -23 -102 2 -128 20 -19 26 -20 61 -10 51 15 83
51 92 104 9 48 8 53 -15 45 -9 -4 -15 -19 -15 -37 0 -56 -77 -107 -104 -68
-15 21 -7 71 14 92 14 14 12 26 -5 26 -8 0 -22 -11 -30 -24z"/>
<path d="M8239 7842 c-19 -27 -51 -74 -70 -105 -19 -31 -37 -57 -41 -57 -18 0
-38 36 -49 90 -8 40 -16 60 -26 60 -32 0 11 -158 46 -167 16 -4 10 -17 -46
-98 -70 -104 -104 -171 -96 -192 9 -23 21 -14 34 24 6 20 77 133 156 252 80
119 145 220 146 224 5 27 -22 11 -54 -31z"/>
<path d="M9191 7844 c-46 -52 -53 -90 -21 -119 16 -15 31 -17 81 -12 33 3 63
8 66 11 13 13 -10 20 -70 20 -56 1 -62 3 -65 24 -3 19 1 22 28 22 17 0 45 7
61 16 25 13 30 20 27 47 -3 28 -7 32 -34 35 -27 3 -38 -4 -73 -44z m79 6 c0
-11 -33 -30 -51 -30 -8 0 -5 7 6 20 19 21 45 27 45 10z"/>
<path d="M13035 7861 c-11 -17 -26 -32 -35 -35 -8 -3 -21 -9 -27 -12 -9 -4
-13 3 -13 19 0 26 -22 52 -34 40 -9 -9 3 -74 19 -99 12 -19 9 -27 -42 -90 -30
-38 -69 -89 -86 -114 -17 -25 -37 -49 -44 -53 -11 -7 -11 -12 -2 -23 19 -23
33 -16 52 24 9 20 55 87 102 147 139 180 155 203 155 214 0 21 -25 11 -45 -18z"/>
<path d="M14810 7870 c0 -18 3 -19 20 -10 11 6 20 15 20 20 0 6 -9 10 -20 10
-13 0 -20 -7 -20 -20z"/>
<path d="M7270 7865 c-17 -9 -29 -10 -37 -4 -8 7 -16 3 -27 -15 -9 -14 -23
-37 -31 -51 -33 -55 -12 -60 42 -9 42 39 93 70 93 55 0 -5 -9 -28 -19 -52 -19
-42 -19 -63 1 -57 5 2 20 28 33 58 33 79 10 111 -55 75z"/>
<path d="M8831 7863 c-89 -44 -131 -130 -77 -155 20 -9 31 -7 59 9 33 20 34
20 45 2 16 -26 33 -24 31 4 -4 45 2 68 22 88 18 18 19 25 10 45 -13 29 -41 31
-90 7z m45 -40 c-16 -32 -50 -65 -84 -82 -18 -10 -23 -9 -28 4 -8 19 9 39 60
77 52 38 72 38 52 1z"/>
<path d="M11366 7815 c-34 -62 -38 -85 -15 -85 5 0 24 29 41 65 23 46 29 68
21 76 -7 7 -21 -8 -47 -56z"/>
<path d="M11815 7862 c-49 -30 -95 -89 -95 -122 0 -34 23 -60 54 -60 21 0 56
27 56 43 0 13 -48 7 -53 -5 -7 -20 -30 6 -25 28 2 12 22 24 62 36 73 22 88 34
84 67 -4 33 -41 39 -83 13z m51 -21 c-6 -9 -66 -33 -66 -26 0 6 52 34 63 35 5
0 6 -4 3 -9z"/>
<path d="M10159 7858 c-25 -21 -49 -66 -49 -92 0 -28 24 -56 48 -56 28 0 82
38 92 65 23 61 -44 121 -91 83z m57 -33 c10 -26 -5 -61 -32 -73 -47 -22 -59 9
-23 59 22 32 46 38 55 14z"/>
<path d="M11050 7839 c-45 -40 -70 -78 -70 -106 0 -36 16 -27 39 20 23 48 72
89 99 85 10 -2 17 3 17 12 0 28 -48 22 -85 -11z"/>
<path d="M11155 7829 c-64 -59 -61 -103 7 -101 15 0 26 -4 23 -9 -10 -15 5
-49 22 -49 10 0 14 6 10 19 -2 11 4 33 14 50 35 57 20 79 -28 41 -26 -21 -63
-27 -63 -11 0 16 71 72 82 65 11 -7 29 16 22 28 -12 19 -47 5 -89 -33z"/>
<path d="M7013 7840 c-37 -22 -56 -52 -51 -82 5 -35 32 -45 71 -26 24 12 38
13 45 6 6 -6 18 -8 27 -4 14 5 15 9 5 20 -9 11 -9 20 0 36 10 18 8 26 -11 46
-27 29 -44 30 -86 4z m58 -44 c-5 -6 -23 -19 -40 -29 -44 -26 -53 -1 -12 35
26 23 35 27 47 17 9 -7 11 -16 5 -23z"/>
<path d="M11585 7838 c-16 -12 -35 -23 -42 -23 -20 0 -76 -96 -64 -108 8 -8
26 6 62 46 49 55 86 84 95 74 2 -2 -7 -28 -20 -58 -22 -46 -24 -56 -12 -74 7
-11 25 -21 40 -23 30 -4 35 14 6 23 -25 8 -25 26 1 76 11 22 19 50 17 62 -4
31 -47 34 -83 5z"/>
<path d="M15070 7827 c-19 -12 -43 -37 -53 -55 -19 -32 -19 -33 -1 -53 14 -15
26 -19 47 -15 25 5 28 3 22 -15 -6 -17 -3 -20 12 -17 10 2 19 14 22 28 1 14
18 42 37 62 19 21 34 44 34 51 0 41 -69 49 -120 14z m51 -46 c-31 -39 -66 -57
-77 -40 -13 21 52 79 89 79 16 0 14 -6 -12 -39z"/>
<path d="M5548 7817 c-34 -32 -42 -61 -26 -94 18 -37 57 -42 93 -11 21 19 28
34 31 76 l3 52 -38 0 c-26 0 -46 -7 -63 -23z m62 -42 c0 -32 -20 -55 -48 -55
-20 0 -20 40 0 65 28 36 48 32 48 -10z"/>
<path d="M15262 7779 c-9 -17 -27 -47 -39 -66 -43 -65 -17 -74 41 -14 46 47
79 60 71 28 -9 -33 17 -60 55 -59 45 1 61 19 24 27 -53 12 -53 12 -47 48 7 43
-7 53 -47 32 -30 -16 -31 -16 -21 4 15 26 14 31 -4 31 -9 0 -24 -14 -33 -31z"/>
<path d="M4566 7684 c-25 -36 -54 -163 -65 -279 -5 -55 -15 -112 -21 -127 -20
-42 -90 -62 -90 -26 0 17 69 116 88 127 21 12 3 35 -21 26 -23 -10 -97 -127
-97 -156 0 -48 44 -63 100 -34 42 22 60 64 71 168 20 191 37 262 71 288 21 17
18 39 -6 39 -8 0 -21 -12 -30 -26z"/>
<path d="M3137 7594 c-3 -3 -3 -19 0 -35 5 -25 1 -29 -30 -43 -42 -17 -77 -50
-77 -72 0 -9 15 -31 34 -48 l33 -32 -16 -54 c-17 -57 -39 -73 -66 -50 -12 10
-16 9 -21 -3 -9 -23 4 -37 33 -37 21 0 24 -4 19 -23 -15 -63 -17 -133 -4 -151
14 -18 15 -18 32 0 17 16 17 19 2 30 -15 10 -16 20 -6 77 11 60 14 66 43 77
83 31 101 56 66 91 -10 10 -19 23 -19 28 0 5 -6 14 -14 20 -12 10 -11 19 1 64
17 56 32 80 40 60 3 -7 11 -13 20 -13 22 0 12 33 -14 45 -14 6 -23 20 -25 39
-3 29 -18 43 -31 30z m-8 -116 c0 -7 -6 -28 -12 -46 l-12 -33 -24 22 -24 23
27 23 c30 26 46 29 45 11z m31 -185 c0 -13 -48 -38 -57 -29 -3 3 0 21 7 41 12
35 13 36 31 19 10 -9 19 -23 19 -31z"/>
<path d="M6670 7585 c0 -24 -50 -184 -59 -189 -4 -3 -23 -8 -42 -11 -69 -11
-89 -17 -89 -25 0 -17 20 -20 66 -10 26 6 48 9 50 7 2 -2 -10 -35 -26 -73 -33
-77 -36 -94 -17 -94 7 0 28 37 46 83 19 45 43 90 55 100 13 12 17 20 10 23 -9
4 -6 23 7 67 23 79 28 128 12 134 -7 3 -13 -3 -13 -12z"/>
<path d="M1984 7579 c-16 -26 -82 -354 -73 -363 16 -17 25 5 44 104 10 52 28
132 41 177 12 45 19 84 16 87 -9 9 -20 7 -28 -5z"/>
<path d="M5349 7578 c-1 -7 0 -29 1 -49 1 -21 -13 -74 -33 -125 -69 -177 -86
-254 -56 -254 11 0 11 1 29 80 7 30 30 100 52 154 31 78 38 109 36 149 -2 29
-8 52 -15 55 -7 2 -13 -2 -14 -10z"/>
<path d="M6859 7560 c-6 -16 -10 -32 -9 -36 1 -4 -3 -10 -8 -13 -5 -3 -29 -53
-52 -111 -24 -58 -49 -114 -57 -125 -15 -22 -17 -45 -4 -45 5 0 35 25 66 56
32 30 59 54 60 52 2 -2 -3 -29 -10 -61 -8 -33 -9 -59 -4 -63 15 -9 27 4 32 38
3 18 8 52 12 74 5 27 3 44 -4 48 -12 8 -71 -23 -71 -38 0 -5 -2 -7 -5 -4 -7 7
34 116 69 186 30 59 32 72 10 72 -8 0 -20 -13 -25 -30z"/>
<path d="M11378 7565 c-45 -31 -87 -91 -118 -170 -13 -33 -27 -64 -31 -69 -4
-4 -29 -9 -56 -11 -63 -4 -67 -29 -5 -33 42 -3 44 -4 36 -30 -11 -39 -11 -77
1 -80 5 -2 13 12 18 30 18 76 27 87 68 90 49 4 52 21 5 28 l-34 5 30 72 c22
53 44 86 81 120 45 42 51 45 62 30 25 -35 45 -15 25 24 -14 26 -38 24 -82 -6z"/>
<path d="M2645 7548 c-8 -18 -23 -46 -34 -62 l-19 -29 -25 27 c-16 17 -30 24
-42 20 -9 -4 -26 -7 -36 -8 -11 -1 -25 -11 -32 -22 -43 -75 -55 -103 -58 -129
-5 -64 1 -87 31 -115 l30 -28 -31 -62 c-26 -52 -30 -67 -22 -93 l9 -32 18 55
c30 95 56 131 103 145 23 7 60 27 81 44 68 53 78 116 27 163 l-24 23 29 47
c32 50 37 73 20 83 -6 4 -17 -9 -25 -27z m-96 -99 c17 -6 31 -13 31 -16 0 -16
-97 -186 -109 -191 -22 -8 -41 28 -41 78 0 34 8 58 30 93 32 50 39 53 89 36z
m87 -64 c21 -32 7 -72 -36 -104 -33 -24 -84 -45 -78 -33 16 39 85 162 90 162
4 0 15 -11 24 -25z"/>
<path d="M2226 7543 c-8 -16 -55 -65 -105 -111 -119 -109 -121 -126 -12 -111
35 5 66 7 69 5 2 -3 5 -30 6 -60 1 -31 7 -61 14 -68 14 -14 13 -15 15 71 2 59
4 65 25 70 30 8 33 25 5 29 -13 2 -23 4 -23 5 0 18 31 140 39 156 12 22 8 41
-9 41 -5 0 -16 -12 -24 -27z m-20 -107 c-1 -19 -4 -32 -8 -29 -5 2 -8 -7 -8
-21 0 -21 -5 -26 -24 -26 -13 0 -39 -3 -57 -6 -34 -5 -33 -5 31 55 36 33 65
61 66 61 0 0 0 -15 0 -34z"/>
<path d="M8473 7515 c-3 -9 -2 -19 2 -23 3 -4 69 -9 146 -10 l139 -4 -40 -41
c-22 -23 -43 -50 -46 -59 -6 -19 -7 -20 -74 -24 -25 -1 -48 -3 -52 -3 -5 -1
-8 -8 -8 -16 0 -11 12 -15 45 -15 25 0 45 -2 45 -4 0 -2 -16 -30 -35 -62 -38
-63 -45 -98 -19 -92 9 2 22 20 29 41 7 21 25 56 40 78 22 30 34 39 53 37 32
-4 39 16 11 28 -20 9 -19 12 25 61 25 28 62 58 81 68 67 31 39 40 -113 36
-101 -2 -142 0 -142 8 0 18 -80 14 -87 -4z"/>
<path d="M11594 7448 c-32 -100 -35 -104 -80 -113 -59 -11 -84 -23 -78 -39 4
-12 12 -12 51 0 26 8 48 12 50 10 3 -2 -2 -17 -10 -33 -22 -41 -26 -98 -7 -98
9 0 17 14 21 35 8 46 37 110 48 110 6 0 21 4 35 9 18 8 23 15 19 31 -4 14 -12
20 -23 17 -16 -4 -16 -1 -5 37 7 22 18 54 24 69 15 37 14 47 -3 47 -9 0 -24
-31 -42 -82z"/>
<path d="M8923 7471 c-30 -14 -43 -26 -43 -41 0 -23 28 -28 36 -5 6 14 71 41
80 32 19 -19 -91 -139 -157 -172 -43 -22 -79 -55 -79 -72 0 -21 24 -15 67 16
l41 29 10 -23 c13 -27 80 -50 119 -40 38 9 21 30 -27 33 -85 6 -91 38 -20 106
116 110 99 195 -27 137z"/>
<path d="M5725 7444 c-73 -38 -105 -96 -70 -126 48 -41 49 -41 29 -55 -12 -9
-31 -12 -51 -8 -26 5 -33 2 -33 -9 0 -20 46 -31 79 -20 20 7 35 5 61 -10 35
-19 35 -18 83 4 64 30 76 57 52 111 -21 45 -13 71 21 77 27 5 40 20 28 32 -7
7 -21 7 -42 -1 -53 -18 -66 -63 -36 -121 15 -29 15 -32 -4 -51 -12 -12 -35
-20 -58 -21 -34 -1 -40 3 -54 31 -8 18 -25 40 -38 49 -30 21 -28 39 8 66 17
12 30 29 30 37 0 13 2 14 9 2 11 -16 45 -7 39 11 -6 18 -21 19 -53 2z"/>
<path d="M4095 7410 c-6 -18 -8 -19 -30 -4 -22 14 -27 14 -53 -1 -30 -18 -82
-92 -82 -117 0 -37 44 -49 84 -22 l24 15 -5 -40 c-5 -36 -3 -41 14 -41 28 0
51 28 30 36 -14 5 -13 12 3 58 10 29 25 67 34 84 9 17 16 36 16 42 0 18 -28
11 -35 -10z m-31 -39 c7 -11 -74 -91 -91 -91 -20 0 -16 12 18 58 29 39 61 54
73 33z"/>
<path d="M5434 7399 c-44 -34 -74 -88 -74 -131 0 -54 60 -85 111 -58 33 18 22
32 -19 25 -28 -4 -42 -2 -51 9 -14 16 -6 40 10 30 14 -8 76 36 88 64 19 40 11
92 -14 92 -7 0 -30 -14 -51 -31z m46 -25 c0 -18 -53 -74 -69 -74 -19 0 -12 18
20 55 34 38 49 44 49 19z"/>
<path d="M9600 7404 c0 -15 5 -44 11 -65 10 -32 9 -42 -5 -64 -25 -39 -83 -29
-98 17 -5 13 -28 2 -28 -13 0 -5 11 -21 25 -34 30 -31 83 -33 116 -6 25 20 31
68 16 129 -8 31 -8 32 22 32 21 0 31 5 31 15 0 11 -12 15 -45 15 -42 0 -45 -2
-45 -26z"/>
<path d="M9933 7398 c-49 -91 -51 -125 -8 -148 52 -28 128 23 144 98 17 81
-13 79 -34 -3 -13 -53 -63 -85 -102 -64 -14 7 -20 15 -14 17 6 2 11 11 11 20
0 10 9 31 20 47 21 32 26 65 10 65 -5 0 -17 -15 -27 -32z"/>
<path d="M7169 7373 c-6 -21 -28 -71 -47 -111 -45 -92 -35 -110 29 -50 24 23
43 46 41 51 -1 5 1 6 6 3 5 -3 20 6 33 20 13 14 32 30 42 35 16 9 16 6 -3 -28
-23 -42 -26 -83 -8 -101 18 -18 63 -14 89 7 31 25 18 37 -20 21 -31 -12 -51
-7 -51 13 0 7 14 38 31 70 28 55 32 87 10 87 -10 0 -126 -93 -149 -120 -15
-17 -14 -13 19 73 19 46 18 67 -1 67 -5 0 -14 -17 -21 -37z"/>
<path d="M4228 7370 c-15 -23 -33 -27 -24 -5 3 9 0 15 -10 15 -8 0 -17 -8 -20
-17 -3 -10 -15 -39 -28 -66 -29 -57 -15 -74 24 -31 15 16 39 40 53 53 l27 24
-16 -46 c-19 -56 -15 -91 10 -95 15 -3 18 0 13 20 -4 13 2 50 12 83 10 33 16
65 14 72 -8 20 -41 15 -55 -7z"/>
<path d="M6977 7359 c-38 -31 -67 -76 -67 -103 0 -24 44 -30 79 -12 26 14 31
14 31 2 0 -7 7 -19 15 -26 13 -11 15 -7 15 28 0 23 5 44 10 47 15 9 12 35 -3
35 -8 0 -22 -9 -33 -21 -17 -19 -65 -49 -79 -49 -14 0 -2 21 31 54 36 36 44
40 77 37 20 -3 22 10 5 27 -19 19 -41 14 -81 -19z"/>
<path d="M9701 7364 c-41 -52 -18 -98 42 -87 15 3 27 3 27 1 0 -16 -29 -87
-73 -181 -64 -135 -56 -152 34 -72 57 50 68 55 97 50 33 -6 41 2 20 23 -20 20
-58 13 -99 -19 l-38 -30 34 73 c18 41 39 96 46 123 6 28 18 61 26 73 13 22 13
26 -8 48 -31 34 -81 33 -108 -2z m84 -15 c9 -14 -24 -38 -52 -39 -27 0 -29 7
-6 32 18 20 48 24 58 7z"/>
<path d="M10137 7359 c-49 -40 -73 -85 -56 -105 15 -18 44 -18 73 1 22 15 24
14 30 -10 4 -16 13 -25 26 -25 21 0 27 15 10 25 -16 10 -12 30 14 68 l24 35
-22 21 c-31 29 -55 26 -99 -10z m63 -8 c0 -14 -65 -81 -79 -81 -19 0 -13 13
26 52 37 38 53 47 53 29z"/>
<path d="M10345 7347 c-35 -35 -51 -76 -41 -102 9 -26 22 -17 35 25 11 37 45
80 62 80 4 0 15 -7 24 -16 11 -12 20 -13 27 -6 14 14 -25 52 -53 52 -12 0 -36
-15 -54 -33z"/>
<path d="M10570 7369 c-100 -40 -132 -137 -58 -175 54 -28 188 2 188 41 0 19
1 19 -51 -5 -55 -25 -100 -25 -130 -2 -31 26 -20 52 23 52 66 0 119 55 86 88
-14 14 -24 14 -58 1z m40 -28 c0 -11 -59 -36 -66 -28 -3 3 7 12 23 21 33 18
43 19 43 7z"/>
<path d="M11736 7213 c-3 -3 -6 -12 -6 -20 0 -15 36 -18 45 -4 7 12 -29 33
-39 24z"/>
<path d="M2460 6263 c-62 -23 -65 -69 -6 -130 l43 -47 -20 -34 c-24 -40 -24
-99 -2 -142 12 -23 22 -30 45 -30 25 0 32 6 45 36 20 49 19 92 -5 139 l-20 39
34 36 c66 70 86 120 47 120 -23 0 -45 -25 -38 -43 3 -7 -10 -31 -27 -52 l-33
-39 -31 23 c-18 12 -37 32 -43 44 -10 17 -8 24 12 40 15 12 32 17 50 13 32 -6
43 2 28 21 -11 13 -51 16 -79 6z m87 -274 c5 -49 -17 -93 -37 -73 -18 18 -24
81 -10 114 11 28 15 30 28 17 8 -8 16 -35 19 -58z"/>
<path d="M3564 6188 c-4 -6 -6 -35 -5 -64 l2 -52 -47 -14 c-66 -18 -73 -43
-10 -34 l46 7 0 -35 c0 -25 4 -36 15 -36 10 0 15 10 15 33 0 45 10 56 53 59
20 2 37 6 37 11 0 12 -48 27 -65 21 -12 -5 -15 4 -15 49 0 55 -11 79 -26 55z"/>
<path d="M4094 6138 c3 -19 -3 -69 -14 -113 -10 -44 -16 -84 -13 -89 4 -5 -1
-7 -10 -3 -11 4 -17 1 -17 -8 0 -12 38 -32 44 -23 1 1 13 52 25 111 24 112 22
157 -5 157 -13 0 -15 -7 -10 -32z"/>
<path d="M4283 6140 c-24 -18 -43 -36 -43 -40 0 -21 21 -17 55 10 47 38 55 37
55 0 0 -53 -29 -103 -93 -162 -47 -44 -59 -60 -50 -69 12 -12 20 -8 78 35 8 6
36 4 76 -6 35 -8 66 -14 68 -12 11 10 -26 34 -68 45 l-48 12 31 46 c26 39 31
55 31 106 0 57 -1 60 -25 63 -16 2 -41 -9 -67 -28z"/>
<path d="M6020 6099 c-14 -5 -56 -12 -95 -16 -61 -7 -70 -11 -70 -28 0 -22 1
-22 84 -5 29 6 55 10 56 8 4 -4 -84 -75 -142 -116 -18 -12 -33 -30 -33 -39 0
-14 15 -15 133 -8 137 7 147 9 147 27 0 8 -32 9 -105 5 -58 -3 -105 -5 -105
-3 0 2 45 40 100 85 55 45 100 86 100 91 0 12 -36 12 -70 -1z"/>
<path d="M2690 6085 c-16 -20 -3 -36 24 -29 14 3 31 -2 46 -14 l23 -19 -32
-46 c-40 -58 -70 -77 -78 -49 -3 14 -11 18 -24 15 -10 -3 -19 -10 -19 -15 0
-8 48 -58 56 -58 2 0 19 14 38 30 33 29 35 30 41 10 9 -27 55 -50 103 -50 31
0 41 4 45 20 4 18 1 19 -37 14 -55 -8 -92 19 -82 59 8 32 60 94 87 102 21 7
26 35 6 35 -7 0 -29 -11 -50 -25 -20 -14 -37 -21 -37 -16 0 11 -71 51 -88 51
-5 0 -15 -7 -22 -15z"/>
<path d="M5377 6074 c-3 -3 -35 -7 -71 -8 -70 -2 -82 -7 -73 -29 4 -11 16 -13
59 -6 29 5 73 12 98 15 52 7 63 12 55 25 -7 10 -58 12 -68 3z"/>
<path d="M4720 6019 c-22 -28 -40 -54 -40 -57 0 -4 -4 -14 -10 -22 -7 -12 -12
-12 -29 4 -12 11 -21 29 -21 42 0 35 -11 54 -30 54 -23 0 -32 -36 -13 -55 8
-8 17 -31 20 -50 4 -25 11 -35 24 -35 11 0 19 -2 19 -5 0 -3 -29 -54 -64 -113
-70 -116 -96 -186 -79 -203 18 -18 30 -3 36 42 3 26 31 83 75 158 38 64 75
127 82 141 7 14 32 50 56 82 39 51 44 68 23 68 -5 0 -27 -23 -49 -51z"/>
<path d="M5385 6000 c-27 -5 -80 -9 -117 -9 -53 -1 -68 -4 -68 -16 0 -12 13
-15 63 -14 81 0 194 13 204 23 7 6 -16 27 -27 25 -3 -1 -27 -5 -55 -9z"/>
<path d="M7658 5475 c-16 -13 -28 -29 -28 -35 0 -6 -4 -9 -9 -5 -16 9 -51 -46
-51 -80 0 -18 8 -43 19 -56 33 -43 61 -107 61 -141 0 -39 -24 -78 -47 -78 -33
0 -93 -24 -93 -37 0 -17 69 -18 105 -1 44 20 39 1 -15 -59 -104 -116 -129
-192 -92 -277 16 -36 30 -50 59 -62 48 -21 166 -16 189 8 24 23 8 42 -19 23
-26 -18 -122 -20 -157 -2 -37 18 -62 74 -55 121 8 54 30 92 90 156 68 72 83
99 62 115 -14 10 -15 17 -2 60 14 46 14 51 -10 102 -13 30 -33 67 -45 83 -11
15 -20 35 -20 44 0 26 27 62 71 91 38 27 40 27 59 10 19 -17 20 -17 20 1 0 47
-49 57 -92 19z"/>
<path d="M2986 5337 l-39 -73 -69 0 -69 1 -20 -55 c-23 -65 -25 -133 -4 -154
13 -13 12 -20 -16 -64 -31 -50 -43 -112 -24 -119 6 -2 16 16 23 39 6 24 20 58
31 76 19 29 25 32 69 32 118 0 192 111 126 189 l-26 31 42 75 c36 68 43 95 22
95 -4 0 -25 -33 -46 -73z m-71 -107 c8 -13 -93 -162 -105 -155 -17 11 -11 84
10 125 18 35 25 40 55 40 18 0 37 -4 40 -10z m59 -42 c23 -33 20 -64 -11 -98
-20 -23 -40 -33 -70 -37 -24 -3 -43 -3 -43 0 0 4 20 37 45 74 25 37 45 70 45
75 0 16 19 8 34 -14z"/>
<path d="M4748 5368 c-8 -13 -25 -45 -37 -72 -17 -39 -19 -51 -9 -58 10 -6 9
-8 -3 -8 -9 0 -19 -7 -22 -14 -5 -12 -13 -13 -38 -6 -17 5 -37 7 -43 4 -6 -3
0 4 14 15 14 11 29 21 33 21 5 0 5 5 2 10 -18 29 -94 -25 -130 -92 -34 -62
-37 -117 -9 -155 l21 -27 -49 -94 c-48 -93 -58 -141 -30 -150 7 -2 12 6 12 24
0 14 21 66 47 115 l47 88 42 -6 c55 -7 107 11 139 48 38 46 29 105 -24 153
-14 13 -18 23 -11 31 5 6 11 20 13 31 1 10 7 26 12 34 22 35 55 106 55 118 0
19 -16 14 -32 -10z m-98 -195 c0 -4 -23 -42 -52 -86 -47 -71 -53 -77 -65 -61
-21 29 -20 61 4 117 15 35 18 37 65 37 26 0 48 -3 48 -7z m60 -55 c26 -43 25
-64 -3 -92 -25 -25 -103 -44 -118 -29 -8 8 79 153 94 153 4 0 16 -15 27 -32z"/>
<path d="M12041 5377 c-15 -19 -4 -27 31 -20 30 6 48 -7 48 -34 0 -7 -26 -42
-59 -78 -62 -68 -78 -103 -61 -135 8 -15 6 -22 -8 -32 -45 -32 -38 -54 29
-104 29 -21 52 -47 56 -62 5 -23 -1 -33 -50 -77 -31 -28 -88 -68 -127 -90 -76
-42 -95 -58 -86 -74 6 -9 37 7 153 78 23 14 64 48 92 74 70 67 70 94 -3 162
l-54 50 29 36 c25 32 27 38 14 49 -24 20 -18 38 34 93 75 80 90 127 53 160
-22 20 -75 22 -91 4z"/>
<path d="M5737 5319 c-27 -22 -79 -56 -115 -76 -37 -20 -70 -41 -74 -47 -15
-22 6 -34 70 -39 37 -3 103 -12 147 -20 47 -9 84 -11 90 -6 16 16 -7 25 -90
39 -157 25 -170 27 -159 29 23 3 194 123 194 136 0 26 -15 22 -63 -16z"/>
<path d="M11624 5338 c-23 -77 -47 -128 -60 -128 -8 0 -14 -6 -14 -12 0 -7 -5
-5 -11 5 -11 19 -34 23 -45 6 -8 -14 14 -29 45 -29 18 0 22 -4 16 -17 -38 -91
-37 -141 4 -162 22 -12 124 -15 135 -4 4 4 15 8 23 8 9 0 18 6 21 13 3 10 -10
11 -61 6 -93 -9 -117 -2 -117 39 0 17 9 51 20 75 19 42 19 42 74 42 63 0 86 7
86 26 0 10 -14 12 -64 7 l-65 -6 25 67 c13 37 24 71 24 76 0 20 -29 9 -36 -12z"/>
<path d="M10585 5253 c-26 -83 -34 -98 -55 -104 -14 -3 -30 -2 -36 3 -15 11
-42 0 -54 -23 -13 -24 9 -38 25 -16 8 12 21 15 46 11 l34 -6 -6 -71 c-6 -79
-5 -87 17 -87 11 0 14 15 14 63 0 80 8 92 55 84 20 -3 43 -3 51 0 14 5 20 34
7 32 -5 -1 -27 -1 -50 0 -53 1 -54 10 -14 120 16 44 27 82 23 85 -17 17 -30
-4 -57 -91z"/>
<path d="M6851 5290 c-20 -41 -29 -50 -50 -50 -36 0 -66 -23 -95 -73 -30 -53
-41 -111 -26 -146 9 -24 5 -39 -30 -115 -46 -101 -59 -158 -40 -181 10 -12 16
-13 26 -4 11 9 11 15 3 25 -15 18 -7 47 41 150 36 77 41 84 59 75 72 -39 181
22 181 102 0 45 -35 114 -62 123 -24 7 -23 11 12 64 16 25 30 53 30 63 0 33
-25 16 -49 -33z m-61 -106 c0 -3 -16 -37 -37 -76 -39 -75 -63 -80 -44 -11 13
47 46 93 67 93 8 0 14 -3 14 -6z m78 -44 c44 -66 14 -137 -63 -146 -73 -9 -76
4 -25 101 25 47 50 83 55 82 6 -2 20 -18 33 -37z"/>
<path d="M8706 5328 c-2 -7 -11 -51 -20 -98 -25 -132 -119 -300 -169 -300 -40
0 -24 79 27 133 22 24 29 27 42 16 19 -16 31 -3 18 19 -19 30 -44 25 -84 -17
-73 -77 -76 -171 -6 -179 62 -7 170 157 201 306 8 40 15 84 15 97 0 27 -18 44
-24 23z"/>
<path d="M6634 5322 c-6 -4 -14 -16 -18 -27 -5 -13 -10 -15 -13 -7 -8 22 -33
13 -33 -12 0 -18 -21 -44 -75 -93 -41 -37 -75 -71 -75 -75 0 -5 25 -8 56 -8
46 0 55 -3 50 -15 -3 -8 -8 -37 -12 -65 -4 -28 -11 -53 -15 -56 -16 -9 1 -24
27 -24 21 0 24 3 18 26 -4 14 -1 52 6 84 10 48 17 59 36 64 27 7 33 36 8 36
-10 0 -14 6 -10 18 3 9 8 29 11 43 4 15 20 39 36 55 37 36 40 82 3 56z m-82
-157 c-2 -14 -7 -25 -11 -25 -3 0 -17 -3 -31 -7 l-25 -6 29 32 c36 38 45 39
38 6z"/>
<path d="M9338 5284 c-64 -92 -56 -87 -126 -77 -40 6 -65 6 -69 0 -8 -14 13
-24 68 -31 l48 -7 -19 -42 c-57 -130 -17 -219 85 -185 62 21 57 40 -8 32 -50
-6 -56 -4 -67 15 -13 26 -7 65 22 133 20 46 20 46 79 53 69 8 77 31 11 29
l-41 -1 17 29 c9 16 25 38 35 48 19 22 22 36 7 45 -5 3 -24 -15 -42 -41z"/>
<path d="M2640 5280 c0 -11 6 -20 13 -20 9 0 9 -2 0 -8 -18 -12 -105 -211 -99
-228 9 -23 36 -17 36 9 0 13 18 63 40 112 42 95 52 155 25 155 -8 0 -15 -9
-15 -20z"/>
<path d="M3896 5281 c-4 -6 -14 -34 -23 -63 -20 -70 -29 -80 -72 -76 -27 2
-36 -1 -36 -12 0 -10 12 -16 37 -18 l36 -3 -9 -35 c-10 -35 -5 -59 12 -49 5 4
14 27 20 51 9 35 18 48 38 55 59 21 73 46 22 41 l-29 -3 15 51 c10 34 12 55 5
62 -6 6 -12 6 -16 -1z"/>
<path d="M6281 5257 c2 -18 0 -37 -3 -43 -4 -6 -12 -42 -18 -80 -6 -38 -18
-104 -26 -147 -11 -54 -13 -82 -6 -89 18 -18 29 0 36 59 3 32 12 96 20 143 7
47 12 89 9 93 -3 4 0 13 5 20 16 20 13 77 -4 77 -11 0 -15 -9 -13 -33z"/>
<path d="M8065 5266 c-16 -12 -18 -17 -7 -27 18 -19 15 -37 -14 -99 -40 -84
-82 -207 -75 -218 3 -6 18 -13 33 -17 52 -13 188 67 188 110 0 21 -34 64 -65
85 l-25 16 52 35 c66 44 96 84 82 107 -15 23 -140 29 -169 8z m135 -30 c0 -13
-34 -42 -92 -79 l-27 -17 11 32 c8 22 8 36 0 48 -15 25 -6 30 55 30 38 0 53
-4 53 -14z m-67 -187 l29 -31 -22 -23 c-22 -23 -63 -46 -107 -60 -20 -5 -23
-3 -23 19 0 14 9 51 21 81 20 53 23 56 48 50 14 -3 39 -20 54 -36z"/>
<path d="M11100 5255 c0 -16 6 -25 15 -25 9 0 15 9 15 25 0 16 -6 25 -15 25
-9 0 -15 -9 -15 -25z"/>
<path d="M4282 5259 c-19 -6 -32 -15 -29 -22 4 -12 12 -13 85 -1 33 5 42 3 42
-8 0 -24 -124 -162 -200 -224 -38 -31 -70 -60 -70 -65 0 -19 31 -7 87 31 71
50 95 49 104 -4 7 -44 22 -57 63 -54 42 4 45 26 4 30 -29 3 -33 7 -38 38 -8
47 -17 60 -43 60 -18 0 -15 6 24 48 74 76 101 117 97 149 -3 26 -7 28 -48 30
-25 1 -60 -3 -78 -8z"/>
<path d="M10326 5185 c-20 -20 -20 -52 -1 -85 19 -33 19 -60 0 -60 -8 0 -15 7
-15 16 0 9 -6 14 -12 12 -7 -3 -13 -15 -13 -29 0 -26 21 -35 60 -25 34 9 40
40 16 80 -12 18 -21 41 -21 50 0 23 28 32 52 17 24 -15 36 -6 22 17 -15 23
-67 27 -88 7z"/>
<path d="M10752 5169 c-11 -11 -25 -45 -31 -76 -14 -71 -14 -73 3 -73 15 0 41
54 33 67 -3 5 1 23 9 41 11 28 17 32 36 27 35 -11 40 -11 45 1 4 11 -38 34
-62 34 -8 0 -23 -9 -33 -21z"/>
<path d="M3125 5170 c-3 -5 10 -16 30 -24 19 -8 35 -22 35 -30 0 -17 -49 -49
-102 -66 -22 -7 -38 -18 -38 -27 0 -19 36 -12 100 21 l46 23 -4 -34 c-6 -49
19 -73 75 -73 47 0 83 14 83 31 0 6 -16 8 -44 4 -57 -9 -86 1 -86 27 0 29 37
86 60 93 11 4 20 11 20 16 0 15 -42 10 -62 -8 -16 -14 -18 -14 -18 0 0 34 -79
73 -95 47z"/>
<path d="M5066 5147 c-15 -19 -26 -41 -26 -50 0 -8 -4 -17 -9 -19 -5 -1 -18
-19 -29 -38 l-21 -34 -17 39 c-10 22 -17 49 -15 60 1 11 -5 29 -13 40 -12 16
-17 18 -27 8 -10 -10 -10 -16 -1 -25 7 -7 12 -24 12 -38 0 -15 11 -48 24 -74
l24 -47 -50 -106 c-51 -108 -68 -188 -39 -188 8 0 15 14 17 37 5 62 161 384
204 423 11 10 20 24 20 32 0 24 -29 14 -54 -20z"/>
<path d="M11286 5145 c-20 -14 -40 -25 -45 -25 -11 0 -51 -57 -51 -75 0 -24 9
-19 66 35 61 58 77 63 63 20 -5 -16 -13 -44 -19 -61 -15 -51 9 -80 54 -63 23
9 20 24 -5 24 -23 0 -23 11 1 98 10 33 10 45 0 57 -17 20 -21 19 -64 -10z"/>
<path d="M9724 5130 c-44 -29 -71 -82 -58 -117 12 -35 68 -73 106 -73 38 0 32
21 -8 32 -35 9 -74 43 -74 64 0 9 16 32 35 51 25 25 40 33 55 28 16 -5 20 -2
20 14 0 27 -34 28 -76 1z"/>
<path d="M10857 5108 c-50 -42 -56 -58 -32 -78 12 -10 24 -9 59 2 43 14 45 14
55 -9 18 -39 26 -26 27 41 1 51 -2 66 -15 72 -32 15 -48 10 -94 -28z m83 -5
c0 -13 -56 -43 -81 -43 -6 0 4 15 23 33 33 33 58 37 58 10z"/>
<path d="M2218 5129 c-20 -11 -25 -64 -7 -74 17 -11 49 26 49 57 0 29 -13 35
-42 17z"/>
<path d="M9875 5128 c-3 -8 -5 -19 -4 -24 1 -5 -1 -21 -5 -36 -12 -41 1 -67
37 -73 34 -7 87 8 99 28 13 20 9 64 -6 76 -8 7 -31 15 -53 18 -21 3 -44 10
-50 16 -9 6 -15 5 -18 -5z m86 -48 c27 -15 24 -39 -7 -51 -54 -20 -86 14 -42
45 27 19 24 19 49 6z"/>
<path d="M10125 5127 c-17 -8 -37 -51 -56 -117 -2 -8 2 -15 10 -15 8 0 26 22
40 49 37 71 54 72 50 5 -3 -43 -1 -54 11 -54 11 0 16 14 18 52 5 82 -19 108
-73 80z"/>
<path d="M11076 5118 c-10 -31 -14 -118 -7 -123 17 -10 30 22 29 73 0 49 -13
79 -22 50z"/>
<path d="M8721 5085 c-32 -37 -43 -96 -20 -110 20 -13 60 6 79 38 l20 32 0
-27 c0 -30 -19 -175 -26 -199 -3 -13 -14 -15 -53 -11 -43 4 -50 1 -68 -22 -40
-50 -38 -167 2 -182 25 -10 80 40 111 101 24 47 32 55 51 50 32 -8 38 13 8 27
-21 9 -25 17 -20 37 16 75 31 211 27 242 -3 27 -11 40 -28 48 -38 17 -50 14
-83 -24z m59 -8 c0 -7 -13 -28 -30 -47 -27 -33 -29 -33 -30 -12 0 13 11 34 25
47 27 28 35 31 35 12z m-32 -306 c11 -7 10 -16 -6 -47 -11 -22 -33 -52 -48
-67 l-28 -28 -8 22 c-9 23 -2 82 14 112 9 18 53 23 76 8z"/>
<path d="M8946 5088 c-14 -18 -30 -37 -34 -43 -4 -5 -13 -29 -20 -52 -14 -48
-5 -83 30 -107 37 -26 118 -19 118 10 0 11 -9 13 -39 8 -57 -9 -83 8 -79 54 2
26 9 40 26 48 43 21 73 57 70 84 -5 39 -40 38 -72 -2z"/>
<path d="M8390 5075 c0 -56 -88 -141 -110 -105 -4 6 -3 32 2 57 17 78 -13 72
-32 -7 -11 -45 -10 -53 6 -71 12 -14 26 -18 46 -15 30 5 62 25 53 34 -3 3 5
10 17 16 29 14 48 52 48 94 0 22 -5 32 -15 32 -10 0 -15 -11 -15 -35z"/>
<path d="M5466 5032 c-9 -2 -16 -10 -16 -17 0 -20 320 -27 328 -7 2 7 3 15 1
17 -5 5 -291 11 -313 7z"/>
<path d="M6941 4506 c-54 -58 -71 -90 -71 -136 0 -34 -31 -60 -72 -60 -51 0
-41 -34 12 -42 47 -6 37 -40 -35 -119 -68 -76 -81 -102 -71 -143 6 -26 62 -66
91 -66 24 0 14 21 -20 40 -64 36 -59 57 37 164 58 65 60 69 55 109 -5 35 -3
45 13 55 14 8 20 23 20 46 0 49 12 74 59 128 26 29 47 45 56 41 10 -3 15 2 15
16 0 37 -34 24 -89 -33z"/>
<path d="M11405 4530 c-12 -19 5 -28 45 -23 38 5 40 5 41 -23 2 -56 -3 -66
-67 -129 -66 -65 -77 -92 -54 -136 9 -16 7 -19 -14 -19 -13 0 -32 -7 -41 -16
-14 -15 -13 -21 15 -71 50 -89 42 -134 -34 -178 -56 -33 -104 -47 -109 -32 -4
14 -27 0 -27 -18 0 -57 173 11 220 87 25 40 20 83 -16 145 -13 23 -24 45 -24
49 0 3 20 4 45 2 25 -3 48 -2 51 3 3 5 -6 23 -20 40 -14 17 -26 39 -26 50 0
10 29 47 65 81 70 68 83 99 68 159 -9 33 -11 34 -60 37 -28 2 -54 -2 -58 -8z"/>
<path d="M5190 4472 c-36 -20 -103 -53 -150 -73 -47 -21 -86 -43 -88 -51 -3
-14 65 -26 243 -42 28 -3 59 -6 70 -8 11 -2 21 4 23 13 3 19 -39 28 -128 29
-30 1 -73 5 -95 9 l-40 7 54 24 c30 13 70 32 88 42 18 10 50 27 71 38 36 20
48 40 27 46 -5 2 -39 -13 -75 -34z"/>
<path d="M2840 4453 c-85 -56 -180 -180 -206 -268 -13 -47 -13 -57 0 -89 19
-46 71 -79 110 -71 54 10 76 31 76 73 0 56 -45 97 -106 97 -24 0 -44 2 -44 5
0 3 14 30 32 60 42 74 142 172 171 168 16 -2 22 2 22 17 0 25 -23 29 -55 8z
m-76 -304 c27 -22 34 -57 14 -77 -21 -21 -85 -15 -102 10 -23 33 -20 67 7 78
35 14 52 12 81 -11z"/>
<path d="M10868 4438 c-8 -18 -34 -67 -56 -108 -40 -73 -42 -75 -78 -75 -50 0
-56 -22 -9 -31 36 -6 37 -8 32 -41 -13 -76 28 -109 118 -98 58 8 81 18 71 33
-3 6 -23 6 -53 1 -27 -5 -60 -7 -75 -3 -25 5 -28 10 -28 47 0 23 4 47 8 53 4
7 34 15 68 19 68 7 94 19 79 34 -6 6 -27 6 -55 1 -88 -17 -87 -20 -31 84 28
52 51 99 51 105 0 23 -27 9 -42 -21z"/>
<path d="M4265 4439 c-4 -5 -21 -9 -39 -9 -19 0 -40 -7 -47 -16 -11 -14 -8
-25 21 -78 l33 -63 -33 -34 c-18 -19 -43 -50 -56 -69 -76 -117 34 -183 115
-69 20 30 22 42 18 101 -5 56 -3 70 11 80 64 48 99 122 70 145 -19 15 -87 23
-93 12z m75 -44 c0 -15 -67 -95 -79 -95 -9 0 -51 74 -51 90 0 9 10 10 35 6 19
-4 35 -3 35 1 0 4 14 9 30 10 21 2 30 -2 30 -12z m-90 -206 c0 -48 -24 -93
-57 -108 -67 -30 -57 43 15 122 35 37 42 34 42 -14z"/>
<path d="M9831 4418 c-5 -18 -15 -52 -21 -75 -10 -40 -13 -43 -45 -43 -24 0
-35 -5 -35 -15 0 -10 10 -15 30 -15 36 0 36 0 10 -76 -23 -71 -24 -84 -6 -84
14 0 24 24 46 107 10 39 12 41 54 45 24 1 42 0 39 -4 -2 -5 5 -8 16 -8 12 0
21 6 21 14 0 13 -41 26 -86 26 -27 0 -27 2 2 104 17 60 17 56 0 56 -8 0 -19
-15 -25 -32z"/>
<path d="M3745 4420 c-3 -5 -13 -32 -21 -59 -14 -47 -16 -50 -69 -66 -50 -16
-65 -31 -49 -48 4 -3 19 0 35 8 47 25 59 20 52 -22 -10 -60 -9 -68 7 -68 10 0
18 19 25 60 l10 60 43 3 c52 4 52 26 0 30 l-35 3 13 37 c7 20 13 45 14 55 0
18 -15 23 -25 7z"/>
<path d="M10404 4399 c-8 -14 11 -33 25 -25 6 4 11 14 11 22 0 16 -26 19 -36
3z"/>
<path d="M5862 4383 c-44 -3 -53 -7 -50 -21 3 -14 13 -16 53 -14 28 2 64 5 80
8 l30 5 -27 -21 c-15 -11 -49 -49 -76 -83 -50 -64 -91 -87 -156 -87 -17 0 -26
-5 -26 -16 0 -14 8 -16 50 -11 28 3 50 3 50 -1 0 -4 -11 -23 -23 -42 -24 -35
-25 -61 -4 -59 7 0 26 28 43 62 27 55 33 62 57 59 28 -3 40 22 15 30 -18 6 28
65 102 129 32 29 57 56 54 61 -5 8 -65 8 -172 1z"/>
<path d="M6153 4344 c-54 -23 -39 -52 15 -32 17 7 34 10 37 6 23 -22 -81 -146
-151 -179 -56 -27 -109 -73 -100 -87 12 -19 31 -14 84 21 l49 34 -10 -34 c-9
-27 -8 -37 5 -49 15 -15 21 -15 69 1 63 20 77 31 63 45 -7 7 -22 6 -47 -5 -55
-23 -69 -20 -57 11 6 14 10 34 10 44 0 11 21 40 46 65 73 74 95 147 48 165
-14 6 -26 10 -27 9 -1 0 -17 -7 -34 -15z"/>
<path d="M7420 4323 c-33 -6 -60 -31 -60 -55 0 -10 9 -36 20 -58 11 -22 20
-41 20 -44 0 -3 -12 -17 -27 -31 -23 -21 -34 -25 -60 -20 -25 4 -33 2 -33 -8
0 -17 21 -27 55 -27 28 0 95 60 95 84 0 9 -9 35 -21 57 -25 50 -14 69 42 69
21 0 40 4 44 9 6 10 -26 32 -42 30 -4 -1 -19 -4 -33 -6z"/>
<path d="M7658 4320 c-23 -14 -86 -104 -94 -135 -3 -13 -10 -22 -15 -19 -5 3
-9 -4 -9 -15 0 -11 -14 -54 -31 -97 -27 -68 -29 -78 -16 -91 23 -23 38 5 83
154 2 7 19 19 38 27 53 22 126 99 126 134 0 47 -39 67 -82 42z m52 -34 c0 -29
-13 -48 -58 -82 -58 -44 -69 -43 -41 4 44 73 99 117 99 78z"/>
<path d="M9561 4290 c-62 -15 -68 -61 -15 -110 35 -31 36 -34 19 -47 -25 -17
-60 -17 -75 2 -19 22 -35 3 -21 -24 16 -29 78 -29 115 0 35 27 33 45 -10 85
-40 36 -41 63 -2 65 30 2 30 2 51 -6 24 -10 23 21 -2 35 -11 5 -21 10 -23 9
-2 -1 -18 -5 -37 -9z"/>
<path d="M7846 4283 c-3 -3 -1 -14 5 -25 14 -27 6 -44 -33 -68 -60 -36 -66
-19 -13 35 31 30 33 36 19 42 -22 8 -84 -60 -84 -93 0 -32 38 -41 79 -20 29
16 31 16 31 -2 0 -10 9 -27 20 -37 16 -15 23 -16 33 -6 9 10 8 14 -5 22 -20
11 -24 50 -8 79 16 30 -22 94 -44 73z"/>
<path d="M2916 4273 c-16 -16 -4 -33 24 -33 29 0 70 -29 70 -50 0 -6 -7 -25
-16 -41 -16 -32 -101 -92 -116 -83 -5 3 -16 3 -25 0 -12 -5 -13 -9 -3 -21 18
-22 41 -19 91 14 l45 28 28 -23 c30 -26 71 -31 111 -12 32 15 35 43 3 33 -49
-15 -74 -16 -93 -2 -18 14 -19 18 -6 54 16 45 47 82 79 94 13 5 20 13 17 19
-10 17 -37 11 -63 -12 -21 -21 -25 -21 -35 -7 -21 27 -96 56 -111 42z"/>
<path d="M4547 4238 c-14 -24 -34 -61 -45 -83 l-20 -40 -6 40 c-11 65 -21 90
-36 90 -8 0 -16 -8 -18 -17 -2 -10 1 -18 7 -18 6 0 11 -15 11 -33 0 -17 4 -48
10 -67 9 -32 6 -40 -40 -110 -59 -90 -82 -143 -78 -179 5 -40 32 -33 33 9 2
40 21 80 75 161 37 54 150 255 153 273 1 5 -3 10 -10 13 -6 2 -23 -15 -36 -39z"/>
<path d="M7990 4233 c-60 -60 -73 -99 -40 -125 24 -19 94 -24 120 -8 23 14 3
24 -41 21 -22 -1 -47 3 -55 10 -13 10 -12 15 2 38 29 43 58 71 77 71 12 0 17
6 15 17 -6 32 -29 25 -78 -24z"/>
<path d="M8945 4263 c-51 -26 -95 -74 -95 -103 0 -47 73 -88 99 -56 11 13 8
16 -16 21 -49 11 -53 14 -53 34 0 24 54 70 92 78 19 4 28 11 26 21 -4 22 -19
23 -53 5z"/>
<path d="M2193 4263 c-18 -7 -16 -38 2 -53 20 -17 38 -1 33 31 -3 24 -15 31
-35 22z"/>
<path d="M8185 4252 c-52 -33 -70 -60 -69 -104 2 -58 29 -81 101 -86 38 -2 64
1 76 10 15 11 11 13 -39 16 -88 5 -104 14 -104 61 0 42 23 74 34 46 14 -39 81
3 74 47 -4 30 -34 34 -73 10z m40 -31 c-3 -6 -14 -11 -23 -11 -15 1 -15 2 2
15 21 16 32 13 21 -4z"/>
<path d="M9144 4250 c-12 -5 -25 -13 -29 -19 -3 -6 -17 -11 -31 -11 -24 0 -32
-14 -14 -25 6 -3 10 -21 10 -39 0 -62 53 -82 103 -38 24 21 21 48 -6 76 -21
21 -22 25 -8 34 23 14 2 32 -25 22z m10 -76 c22 -21 20 -33 -6 -43 -30 -11
-42 1 -34 33 7 30 18 33 40 10z"/>
<path d="M10286 4180 c-39 -85 -41 -96 -26 -105 9 -5 90 154 90 176 0 5 -6 9
-14 9 -7 0 -30 -36 -50 -80z"/>
<path d="M9353 4225 c-29 -23 -31 -23 -26 -5 4 13 0 20 -9 20 -15 0 -68 -96
-68 -123 0 -29 17 -19 81 44 33 33 63 59 65 57 1 -2 -4 -27 -12 -56 -18 -59
-16 -87 6 -87 9 0 15 10 15 25 1 14 7 46 14 72 22 79 -5 101 -66 53z"/>
<path d="M9966 4231 c-10 -11 -23 -18 -29 -15 -7 2 -19 -20 -29 -55 -22 -73
-22 -81 -3 -81 8 0 19 16 25 40 6 21 22 53 36 70 23 26 31 30 60 24 38 -7 47
9 15 26 -30 15 -56 12 -75 -9z"/>
<path d="M10095 4216 c-28 -27 -36 -41 -33 -63 4 -34 37 -43 73 -19 23 15 24
15 27 -10 4 -36 22 -32 29 7 3 19 10 43 17 55 10 18 7 24 -18 42 -39 30 -52
28 -95 -12z m70 -5 c7 -12 -63 -67 -72 -57 -7 7 45 66 58 66 4 0 10 -4 14 -9z"/>
<path d="M10503 4235 c-12 -8 -28 -12 -36 -9 -10 3 -21 -9 -36 -39 -11 -24
-21 -46 -21 -50 0 -14 29 -6 42 11 13 17 80 72 89 72 3 0 3 -17 1 -38 -4 -44
22 -76 59 -70 33 5 35 26 2 30 -27 3 -28 6 -28 53 0 46 -2 50 -25 53 -14 1
-35 -4 -47 -13z"/>
<path d="M5135 4179 c-22 -5 -85 -8 -140 -6 -83 2 -100 -1 -100 -13 0 -12 19
-15 115 -15 63 0 136 4 162 8 41 7 47 6 42 -7 -9 -23 23 -20 36 3 5 11 10 24
10 30 0 13 -67 13 -125 0z"/>
<path d="M14735 3750 c-35 -4 -40 -9 -43 -32 -3 -29 15 -39 24 -13 5 11 22 15
73 14 68 -1 92 -6 125 -25 17 -10 17 -13 1 -44 -9 -18 -49 -67 -89 -110 -84
-90 -105 -129 -89 -171 6 -16 8 -27 3 -24 -4 3 -12 -1 -17 -8 -17 -21 5 -72
52 -125 25 -27 45 -58 45 -68 0 -37 -37 -80 -96 -111 -106 -55 -184 -73 -221
-50 -17 11 -33 0 -27 -17 8 -22 61 -39 102 -33 97 13 232 87 265 145 28 48 16
92 -44 158 -27 30 -49 59 -49 64 0 6 11 10 25 10 31 0 31 12 3 50 -21 28 -21
32 -6 62 9 18 52 72 96 121 88 95 106 135 77 167 -30 33 -126 52 -210 40z"/>
<path d="M7631 3676 c-30 -19 -60 -44 -67 -57 -18 -33 -17 -85 3 -142 17 -47
17 -50 -2 -84 -20 -36 -68 -68 -118 -78 -46 -9 -26 -30 27 -28 25 2 46 -1 46
-5 0 -5 -22 -36 -49 -70 -123 -153 -89 -277 68 -246 18 4 31 13 31 21 0 12
-10 14 -49 8 -66 -9 -91 5 -91 51 0 49 23 97 76 159 36 43 45 60 42 84 -2 22
5 38 25 59 28 29 49 112 29 112 -6 0 -11 8 -11 18 0 9 -3 32 -7 49 -3 18 -3
44 0 57 8 32 90 90 117 83 16 -4 20 -1 17 16 -5 32 -27 31 -87 -7z"/>
<path d="M8990 3638 c0 -2 -18 -55 -39 -118 -43 -125 -45 -127 -124 -129 -61
-2 -41 -26 20 -26 50 1 51 1 41 -25 -12 -30 -38 -127 -38 -140 0 -6 6 -10 13
-10 8 0 19 22 26 53 7 28 22 72 32 96 l19 44 50 -5 c51 -5 75 6 49 23 -8 5
-31 9 -51 9 -21 0 -38 3 -38 8 0 4 16 51 35 106 19 54 32 102 29 107 -5 8 -24
13 -24 7z"/>
<path d="M3430 3596 c0 -15 60 -86 122 -147 l38 -36 -48 -2 c-26 -1 -74 -6
-107 -12 -33 -6 -79 -14 -103 -18 -48 -9 -60 -17 -45 -32 19 -19 383 34 383
56 0 3 -17 13 -38 24 -35 18 -108 90 -154 152 -23 31 -48 39 -48 15z"/>
<path d="M4433 3565 c-18 -24 -33 -47 -33 -50 0 -18 -41 -42 -65 -37 -37 7
-131 -17 -151 -39 -23 -26 -7 -45 19 -22 13 12 10 4 -9 -21 -24 -32 -29 -50
-31 -98 -1 -38 -7 -66 -17 -77 -9 -10 -13 -21 -9 -24 3 -4 -1 -7 -9 -7 -16 0
-78 -63 -97 -99 -18 -34 9 -38 33 -5 29 39 109 130 113 127 2 -2 6 -2 11 -2 4
1 32 0 63 -1 69 -2 104 14 153 72 45 52 49 101 11 146 l-25 30 50 63 c27 35
50 70 50 77 0 25 -26 10 -57 -33z m-93 -121 c0 -3 -9 -17 -20 -31 -11 -14 -20
-32 -20 -39 0 -8 -3 -13 -7 -12 -5 2 -29 -20 -55 -47 l-48 -50 0 38 c0 30 8
46 41 82 30 33 47 44 61 40 11 -4 20 -1 24 9 6 15 24 23 24 10z m70 -77 c0
-36 -39 -91 -80 -112 -31 -16 -110 -21 -110 -7 0 5 13 21 30 37 16 15 26 33
23 39 -3 6 -3 8 2 4 8 -8 17 0 64 60 32 41 34 42 52 26 11 -10 19 -30 19 -47z"/>
<path d="M8704 3548 c-27 -43 -44 -89 -44 -121 0 -33 23 -12 36 31 6 24 24 58
39 77 24 33 26 55 5 55 -6 0 -22 -19 -36 -42z"/>
<path d="M11642 3518 c-11 -29 -22 -62 -26 -74 -5 -15 -16 -21 -47 -23 -50 -2
-106 -28 -92 -42 6 -6 20 -6 37 1 15 5 40 10 55 10 l27 0 -16 -67 c-32 -125
-34 -145 -14 -141 14 2 22 24 37 98 10 52 22 99 27 104 6 6 23 5 45 -1 23 -7
37 -8 41 -1 9 14 -6 26 -40 32 -16 3 -30 6 -31 8 -2 2 6 28 17 58 31 86 32 90
15 90 -10 0 -23 -20 -35 -52z"/>
<path d="M14167 3563 c-2 -5 -10 -45 -18 -91 l-13 -83 -70 3 c-56 2 -71 0 -71
-11 0 -10 17 -15 64 -18 35 -1 66 -5 69 -7 10 -11 -21 -106 -34 -106 -8 0 -14
-4 -14 -9 0 -20 13 -41 24 -41 16 0 30 31 46 102 13 57 13 57 53 60 55 4 62
28 8 28 -48 0 -48 1 -26 105 8 38 15 71 15 72 0 7 -29 2 -33 -4z"/>
<path d="M6647 3520 c-17 -19 -35 -30 -52 -30 -42 0 -128 -31 -116 -43 6 -6 3
-20 -10 -40 -25 -42 -34 -110 -19 -146 11 -27 9 -34 -18 -73 -64 -94 -106
-208 -84 -230 12 -12 31 25 34 68 1 13 5 24 9 24 4 0 9 9 12 20 3 12 23 50 44
85 37 62 39 64 71 59 72 -13 182 62 182 124 0 29 -26 74 -54 95 -16 12 -14 16
18 59 20 26 36 49 36 52 0 17 -31 2 -53 -24z m-76 -90 c11 0 -17 -56 -59 -119
-27 -39 -31 -41 -36 -23 -15 47 39 160 71 148 8 -3 19 -6 24 -6z m99 -88 c0
-29 -30 -63 -74 -83 -41 -19 -86 -25 -86 -12 0 4 24 44 53 90 l52 84 28 -31
c15 -17 27 -38 27 -48z"/>
<path d="M9520 3516 c0 -44 -34 -154 -72 -234 -27 -58 -31 -62 -43 -45 -13 17
-14 17 -23 -7 -14 -39 5 -80 45 -97 32 -13 37 -12 78 11 46 27 105 99 105 127
0 35 -48 52 -97 35 -22 -7 -22 -6 -9 26 8 18 15 38 16 43 1 6 6 20 11 33 12
32 27 131 21 137 -16 16 -32 2 -32 -29z m60 -248 c0 -6 -22 -33 -49 -59 -33
-34 -56 -49 -75 -49 -14 0 -26 5 -26 10 0 16 49 90 60 90 6 0 10 6 10 13 0 9
12 11 40 9 22 -2 40 -9 40 -14z"/>
<path d="M11817 3493 c-14 -13 -6 -33 13 -33 22 0 23 1 14 24 -7 17 -16 20
-27 9z"/>
<path d="M13248 3468 c0 -13 -1 -29 -1 -35 1 -7 -3 -13 -7 -13 -4 0 -17 -33
-29 -72 -12 -40 -29 -86 -37 -101 -8 -16 -14 -41 -14 -57 0 -25 4 -28 38 -33
73 -9 142 44 142 108 0 63 -38 67 -99 11 -27 -24 -32 -27 -27 -11 21 57 66
204 66 214 0 21 -30 11 -32 -11z m62 -207 c0 -26 -48 -71 -77 -71 l-24 0 25
33 c14 19 23 37 18 42 -4 5 -2 6 3 2 6 -3 17 -2 25 4 22 13 30 11 30 -10z"/>
<path d="M5780 3466 c0 -24 46 -95 93 -143 22 -24 39 -44 36 -46 -2 -2 -57
-11 -123 -20 -65 -9 -121 -19 -124 -22 -3 -3 -1 -10 4 -15 7 -7 44 -5 110 5
54 8 117 15 138 17 22 2 41 8 43 14 2 7 -19 38 -48 70 -28 33 -61 74 -71 91
-11 18 -24 31 -28 28 -4 -3 -7 3 -6 12 0 9 -5 18 -11 20 -7 3 -13 -3 -13 -11z"/>
<path d="M13490 3460 c-14 -26 -3 -45 16 -29 16 13 19 49 4 49 -5 0 -14 -9
-20 -20z"/>
<path d="M2778 3410 c-25 -19 -28 -19 -55 -3 -32 18 -63 12 -63 -12 0 -10 10
-15 30 -15 36 0 36 0 10 -43 -20 -34 -46 -49 -102 -63 -31 -7 -39 -34 -10 -33
9 0 33 6 52 12 32 11 37 10 56 -12 17 -20 30 -24 84 -25 88 -1 91 19 5 29 -39
4 -68 12 -71 20 -7 18 54 105 88 124 27 16 32 31 12 38 -6 2 -22 -6 -36 -17z"/>
<path d="M12008 3394 c-32 -16 -50 -32 -54 -49 -8 -31 -11 -31 -34 -2 -10 12
-21 19 -25 15 -11 -11 35 -138 50 -138 7 0 17 24 24 60 12 61 36 90 74 90 10
0 27 5 38 11 16 8 18 13 8 25 -15 18 -24 17 -81 -12z"/>
<path d="M10659 3383 c-30 -25 -31 -26 -25 -5 6 18 3 22 -13 22 -15 0 -21 -6
-21 -23 0 -13 -18 -60 -40 -106 -43 -88 -46 -101 -29 -101 15 0 30 19 78 100
45 75 81 114 81 86 0 -9 -9 -42 -20 -73 -11 -32 -20 -67 -20 -79 0 -25 24 -49
40 -39 13 8 13 42 0 47 -7 2 -5 19 6 48 27 74 33 112 23 132 -13 24 -22 23
-60 -9z"/>
<path d="M2208 3393 c-21 -5 -34 -41 -20 -55 17 -17 62 0 62 22 0 11 0 23 1
28 0 9 -20 11 -43 5z"/>
<path d="M10850 3377 c-29 -14 -80 -108 -80 -147 0 -15 8 -34 18 -43 22 -20
72 -23 72 -4 0 9 3 8 9 -2 6 -9 11 -10 15 -2 4 6 11 9 16 6 12 -8 38 4 44 21
4 11 -1 13 -27 7 -18 -3 -50 -7 -72 -7 -34 -1 -40 2 -43 21 -3 17 6 26 42 42
56 24 75 61 51 97 -8 13 -16 24 -18 24 -1 0 -13 -6 -27 -13z m20 -45 c0 -11
-12 -24 -26 -30 -27 -13 -26 -5 4 31 19 22 22 21 22 -1z"/>
<path d="M14320 3362 c-45 -22 -49 -45 -12 -79 33 -32 56 -70 45 -76 -22 -12
-85 -17 -103 -7 -16 9 -22 8 -27 -6 -9 -25 17 -36 74 -30 101 9 118 43 57 114
-19 23 -33 46 -29 51 3 6 21 13 40 17 20 3 35 12 35 20 0 19 -38 18 -80 -4z"/>
<path d="M11083 3351 c-85 -39 -79 -114 11 -130 l33 -6 -16 -65 -17 -65 -48 0
c-68 -1 -90 -29 -83 -104 13 -124 89 -119 132 9 15 46 18 48 41 40 60 -23 76
2 18 26 -30 13 -35 19 -29 37 4 12 15 51 24 87 10 36 23 78 29 93 19 46 15 71
-15 85 -33 15 -30 15 -80 -7z m61 -59 c-5 -23 -14 -34 -30 -38 -61 -15 -74 39
-17 67 18 9 31 19 29 21 -1 3 3 0 11 -6 9 -8 11 -23 7 -44z m-70 -269 c-11
-46 -44 -105 -57 -100 -14 4 -32 90 -23 112 3 10 19 15 46 15 39 0 40 -1 34
-27z"/>
<path d="M11305 3329 c-52 -48 -63 -75 -41 -97 16 -17 19 -16 88 13 15 6 16 3
8 -25 -10 -33 3 -85 19 -76 4 3 11 27 15 53 3 27 8 63 12 81 8 40 -2 41 -63 2
-59 -38 -69 -38 -41 0 32 44 66 64 83 50 21 -17 37 -3 25 21 -17 31 -56 23
-105 -22z"/>
<path d="M12144 3358 c-31 -15 -64 -80 -64 -127 0 -32 5 -44 26 -57 22 -15 36
-16 110 -7 79 10 116 24 102 38 -3 4 -44 1 -92 -6 -97 -14 -116 -7 -116 42 0
20 5 27 18 27 58 -4 121 47 106 87 -7 17 -58 19 -90 3z m56 -28 c0 -12 -34
-30 -57 -30 -16 1 -15 3 6 20 25 21 51 26 51 10z"/>
<path d="M5188 3275 c-34 -47 -65 -85 -69 -85 -4 0 -16 22 -27 48 -24 56 -48
80 -63 65 -7 -7 -2 -22 15 -47 14 -20 30 -53 36 -72 12 -35 11 -36 -68 -133
-96 -116 -126 -169 -111 -188 15 -17 25 -9 33 24 3 16 35 64 71 108 36 44 92
114 123 155 172 224 163 210 137 210 -9 0 -43 -38 -77 -85z"/>
<path d="M8135 3342 c-65 -41 -95 -100 -71 -137 17 -26 97 -46 104 -26 2 6 10
11 18 11 8 0 14 5 14 11 0 7 -11 9 -27 6 -16 -3 -40 -3 -55 0 -40 8 -36 41 10
86 29 28 43 35 61 30 19 -5 22 -2 19 13 -5 26 -37 28 -73 6z"/>
<path d="M12797 3342 c-88 -58 -70 -142 36 -174 35 -11 41 -10 53 7 11 15 11
21 2 26 -7 4 -18 3 -25 -2 -21 -18 -93 30 -93 62 0 26 57 69 91 69 22 0 32 -7
41 -25 11 -25 38 -35 38 -14 0 15 -21 53 -34 61 -20 14 -81 8 -109 -10z"/>
<path d="M13784 3328 c-98 -86 -50 -157 96 -142 71 7 96 16 87 31 -4 6 -33 6
-76 1 -46 -5 -79 -4 -98 3 -28 11 -28 11 27 28 51 15 55 19 58 49 7 67 -36 80
-94 30z m66 -18 c0 -11 -4 -20 -9 -20 -5 0 -16 -6 -24 -14 -9 -10 -18 -11 -28
-5 -11 8 -8 14 16 34 36 30 45 31 45 5z"/>
<path d="M8344 3339 c-41 -12 -86 -70 -82 -107 3 -23 8 -27 33 -26 18 0 35 -7
43 -18 17 -23 32 -14 32 18 0 14 5 35 11 46 19 36 -10 41 -48 7 -38 -33 -43
-35 -43 -15 0 24 51 66 81 66 31 0 37 11 17 27 -8 6 -25 7 -44 2z"/>
<path d="M13423 3303 c-18 -45 -22 -87 -8 -91 10 -4 43 78 44 111 2 30 -19 18
-36 -20z"/>
<path d="M8448 3252 c-55 -113 -50 -120 33 -39 l54 52 5 -39 c6 -44 30 -60 68
-43 31 14 28 27 -8 27 -28 0 -30 2 -30 40 0 43 -21 63 -43 41 -18 -18 -28 -13
-21 14 4 18 2 25 -7 25 -8 -1 -31 -36 -51 -78z"/>
<path d="M9699 3303 c-30 -79 -20 -123 29 -123 31 0 125 92 120 117 -6 31 -28
25 -43 -10 -14 -35 -61 -77 -85 -77 -16 0 -5 58 15 80 11 13 12 19 3 28 -18
18 -28 15 -39 -15z"/>
<path d="M9889 3303 c-6 -16 -12 -43 -13 -60 -2 -18 -8 -39 -15 -46 -14 -17
-5 -27 26 -27 l25 0 -31 -55 c-100 -179 -95 -166 -79 -182 14 -13 17 -11 26
17 6 17 39 79 73 138 114 197 129 224 129 234 0 24 -28 -4 -65 -65 -22 -37
-43 -67 -47 -67 -16 0 -18 47 -4 87 8 22 12 44 9 47 -13 12 -24 5 -34 -21z"/>
<path d="M11720 3284 c-23 -54 -26 -90 -6 -97 10 -4 16 6 20 31 3 20 13 50 21
66 19 36 19 46 0 46 -9 0 -24 -20 -35 -46z"/>
<path d="M13025 3312 c-38 -24 -52 -40 -60 -74 -9 -34 23 -68 65 -68 17 0 30
-4 30 -10 0 -5 7 -10 16 -10 9 0 14 6 11 13 -2 6 7 25 19 40 27 32 33 87 10
87 -16 0 -52 -41 -61 -71 -7 -21 -35 -25 -52 -8 -19 19 11 66 52 80 36 14 48
39 18 39 -10 0 -31 -8 -48 -18z"/>
<path d="M13566 3311 c-48 -32 -110 -142 -78 -141 17 1 52 40 52 57 0 24 40
63 63 63 19 0 21 -28 7 -100 -5 -25 -5 -49 -1 -53 15 -15 30 20 37 86 6 57 4
70 -11 87 -22 25 -32 25 -69 1z"/>
<path d="M3243 3207 c-11 -18 60 -26 224 -22 98 2 180 4 183 4 2 1 -2 7 -9 14
-13 13 -389 18 -398 4z"/>
<path d="M4466 3211 c-3 -5 -3 -17 0 -26 8 -19 -41 -74 -93 -106 -32 -20 -45
-49 -22 -49 16 0 101 67 127 101 15 18 22 39 20 56 -3 27 -22 41 -32 24z"/>
<path d="M5755 3108 c-69 -14 -98 -17 -124 -9 -19 6 -38 8 -43 5 -18 -11 -6
-24 32 -35 33 -10 57 -9 151 10 61 12 134 21 162 20 40 -2 52 0 52 11 0 23
-122 22 -230 -2z"/>
</g>
</svg>
