<?xml version="1.0" standalone="no"?>
<!DOCTYPE svg PUBLIC "-//W3C//DTD SVG 20010904//EN"
 "http://www.w3.org/TR/2001/REC-SVG-20010904/DTD/svg10.dtd">
<svg version="1.0" xmlns="http://www.w3.org/2000/svg"
 width="1618.000000pt" height="1214.000000pt" viewBox="0 0 1618.000000 1214.000000"
 preserveAspectRatio="xMidYMid meet">

<g transform="translate(0.000000,1214.000000) scale(0.100000,-0.100000)"
fill="#000000" stroke="none">
<path d="M6713 11708 c-5 -7 -17 -46 -27 -87 -10 -41 -25 -90 -32 -108 -14
-32 -17 -33 -72 -34 -31 -1 -60 -1 -64 0 -5 0 -8 -6 -8 -14 0 -12 13 -15 55
-15 30 0 55 -3 55 -6 0 -3 -9 -37 -21 -74 -20 -67 -22 -115 -5 -115 4 0 16 32
26 70 31 120 33 123 82 127 53 4 57 22 5 26 -35 3 -36 5 -25 25 6 12 21 58 34
102 12 44 25 88 29 98 8 20 -17 24 -32 5z"/>
<path d="M3155 11700 c-3 -5 -1 -10 6 -10 8 0 8 -4 1 -13 -6 -7 -16 -35 -22
-62 -6 -28 -22 -80 -36 -116 -25 -68 -38 -79 -90 -79 -21 0 -39 -22 -27 -33 2
-3 20 -3 38 0 l34 5 -21 -60 c-11 -34 -18 -69 -14 -78 9 -24 18 -10 45 73 26
79 28 81 124 85 67 3 54 22 -17 26 -65 3 -63 -4 -27 95 32 87 36 216 6 167z"/>
<path d="M6830 11646 c-6 -30 -31 -113 -55 -184 -51 -152 -56 -176 -35 -179 9
-2 28 20 48 56 84 147 151 148 87 1 -14 -34 -20 -59 -14 -64 12 -13 21 -2 47
61 26 61 28 115 6 137 -8 9 -18 16 -22 16 -16 0 -72 -41 -82 -60 -18 -34 -22
-17 -5 24 17 40 65 213 65 234 0 6 -6 12 -14 12 -10 0 -19 -19 -26 -54z"/>
<path d="M14642 11647 c-5 -6 -21 -36 -36 -64 -17 -35 -33 -53 -44 -53 -10 0
-42 -23 -70 -51 -59 -58 -82 -114 -65 -158 8 -23 5 -35 -19 -77 -27 -47 -68
-161 -68 -190 0 -8 6 -14 14 -14 9 0 18 19 25 50 6 28 26 81 46 119 l34 69 39
-5 c54 -7 125 25 152 69 34 57 22 135 -26 157 l-23 10 34 62 c19 33 35 65 35
69 0 16 -18 20 -28 7z m-98 -179 c-42 -72 -87 -138 -91 -134 -12 12 13 72 44
107 33 37 63 53 47 27z m74 -4 c47 -33 19 -121 -48 -148 -42 -17 -94 -22 -88
-8 10 23 104 172 108 172 3 0 16 -7 28 -16z"/>
<path d="M12676 11603 c-3 -21 -15 -53 -26 -71 -16 -26 -24 -31 -44 -26 -19 4
-33 -3 -70 -38 -39 -38 -46 -50 -46 -83 0 -25 7 -46 19 -59 20 -21 20 -21 -30
-106 -57 -98 -73 -144 -58 -172 14 -27 26 -15 31 34 4 28 24 74 58 131 51 84
54 87 89 87 106 0 158 50 127 123 -8 21 -26 42 -41 49 -18 8 -24 16 -19 27 4
9 9 26 11 39 3 12 9 22 13 22 11 0 31 60 24 71 -13 21 -32 6 -38 -28z m-66
-140 c0 -5 -13 -33 -28 -63 -30 -62 -55 -72 -60 -24 -2 23 5 39 26 62 27 29
62 43 62 25z m73 -31 c21 -18 22 -65 2 -82 -8 -7 -36 -15 -61 -18 l-45 -5 32
66 c33 66 37 68 72 39z"/>
<path d="M5659 11593 c-1 -4 0 -16 1 -27 1 -10 -9 -40 -22 -67 -22 -47 -24
-49 -65 -49 -43 0 -66 -16 -43 -30 7 -4 25 -6 41 -3 l28 4 -20 -55 c-10 -31
-19 -62 -19 -71 0 -26 29 -16 36 13 3 15 12 46 20 69 l15 42 76 12 c72 12 113
33 113 59 0 16 -38 12 -48 -6 -5 -10 -29 -17 -67 -21 l-59 -6 23 36 c24 39 26
97 4 105 -7 2 -14 0 -14 -5z"/>
<path d="M14780 11585 c-7 -8 -10 -15 -7 -15 8 0 -17 -84 -52 -178 -32 -85
-39 -132 -21 -132 6 0 12 6 14 13 2 6 19 57 39 112 61 175 66 194 52 205 -9 7
-16 6 -25 -5z"/>
<path d="M14991 11574 c-20 -15 -23 -23 -19 -64 4 -43 2 -49 -24 -66 -36 -24
-68 -74 -68 -106 0 -56 100 -96 145 -58 17 14 17 51 0 136 -7 29 -4 33 49 62
80 46 111 102 55 102 -16 0 -19 -5 -14 -20 5 -15 -4 -25 -46 -49 -29 -16 -56
-28 -61 -25 -4 3 -8 19 -8 36 0 27 2 30 25 24 27 -7 34 11 13 32 -16 16 -19
15 -47 -4z m8 -188 c19 -77 16 -86 -28 -86 -45 0 -66 19 -56 52 7 23 53 78 66
78 4 0 12 -20 18 -44z"/>
<path d="M4996 11568 c-36 -133 -41 -143 -74 -146 -39 -4 -45 -32 -6 -32 23 0
25 -3 20 -25 -4 -14 -9 -45 -13 -70 -5 -38 -3 -45 11 -45 9 0 17 6 18 13 1 13
1 12 12 80 l7 47 42 0 c57 0 87 9 87 26 0 11 -12 13 -55 8 -61 -8 -62 -7 -40
56 8 23 15 53 15 66 0 25 -18 43 -24 22z"/>
<path d="M5186 11568 c-2 -7 -8 -27 -13 -45 -8 -22 -7 -35 0 -42 8 -8 7 -11
-5 -11 -10 0 -24 -25 -42 -74 -14 -41 -26 -79 -26 -85 0 -24 27 -7 63 39 42
54 77 80 77 57 0 -7 -9 -41 -21 -76 -22 -63 -20 -86 5 -60 19 19 54 138 48
161 -6 24 -56 24 -74 0 -32 -44 -35 -26 -7 49 16 44 27 85 24 90 -9 13 -25 11
-29 -3z"/>
<path d="M12843 11568 c-5 -7 -22 -47 -37 -88 -15 -41 -31 -82 -36 -91 -19
-36 -22 -85 -6 -98 23 -19 35 -5 29 32 -3 23 3 53 22 97 43 102 54 136 46 149
-6 9 -10 9 -18 -1z"/>
<path d="M13626 11527 c-41 -39 -55 -82 -34 -103 12 -13 19 -13 51 1 l36 15
-26 -57 c-30 -66 -44 -158 -23 -151 8 2 19 29 26 59 14 59 51 145 84 196 19
29 20 34 6 39 -11 4 -24 -3 -38 -21 -21 -27 -85 -61 -96 -51 -3 3 14 24 37 46
23 22 39 45 36 50 -10 16 -22 12 -59 -23z"/>
<path d="M3330 11535 c-6 -8 -9 -19 -5 -24 8 -13 45 9 45 26 0 18 -25 16 -40
-2z"/>
<path d="M14251 11522 c-30 -15 -56 -33 -59 -40 -6 -18 27 -27 41 -10 15 18
95 53 103 45 19 -19 -86 -147 -121 -147 -25 0 -109 -60 -119 -85 -7 -18 0 -35
13 -35 5 0 36 18 69 40 33 22 62 40 65 40 3 0 7 -11 11 -23 8 -35 45 -77 67
-77 27 0 24 33 -3 45 -12 6 -29 27 -36 47 -14 37 -14 38 26 83 43 48 68 105
58 130 -8 23 -55 17 -115 -13z"/>
<path d="M2690 11513 c-8 -3 -35 -21 -60 -39 -40 -29 -47 -31 -56 -17 -12 20
-34 9 -34 -17 0 -10 -16 -55 -35 -100 -19 -45 -33 -86 -29 -91 10 -17 25 -9
37 19 35 78 147 212 178 212 3 0 -13 -48 -37 -107 -45 -110 -53 -168 -24 -168
10 0 14 8 12 24 -1 14 18 75 44 138 53 131 54 164 4 146z"/>
<path d="M13359 11487 c-33 -22 -51 -57 -29 -57 6 0 21 9 33 20 46 43 96 35
83 -13 -9 -39 -83 -125 -119 -141 -39 -17 -92 -71 -83 -85 11 -18 26 -13 63
20 l35 31 18 -40 c18 -40 44 -62 75 -62 23 0 15 34 -10 40 -11 3 -28 22 -38
43 l-19 38 40 43 c57 62 84 118 73 149 -17 43 -70 49 -122 14z"/>
<path d="M7063 11461 c-34 -22 -83 -96 -83 -128 0 -29 35 -70 66 -76 32 -6
141 16 156 31 9 9 9 15 -1 25 -10 8 -12 8 -7 0 4 -7 -1 -12 -11 -12 -10 -1
-47 -4 -82 -7 -55 -6 -66 -4 -78 12 -17 23 -17 34 0 34 22 0 97 59 106 83 10
25 -3 57 -22 57 -7 0 -26 -9 -44 -19z m37 -29 c0 -9 -55 -52 -66 -52 -4 0 5
14 21 30 28 30 45 38 45 22z"/>
<path d="M7942 11468 c-37 -18 -38 -52 -4 -105 34 -53 33 -66 -10 -84 -23 -9
-35 -10 -49 -1 -26 17 -31 15 -27 -10 5 -34 62 -36 108 -6 46 31 47 53 9 112
-32 47 -32 49 -13 63 11 8 30 12 45 9 31 -6 40 0 32 20 -6 17 -58 18 -91 2z"/>
<path d="M8265 11468 c-11 -6 -35 -25 -53 -42 -18 -17 -40 -31 -49 -31 -11 0
-21 -22 -35 -75 -11 -41 -38 -110 -61 -152 -22 -43 -38 -81 -34 -84 15 -15 35
9 72 85 23 45 45 79 52 76 49 -17 162 70 183 140 22 75 -15 116 -75 83z m49
-33 c10 -28 -23 -90 -66 -123 -43 -33 -88 -42 -88 -19 0 25 62 108 99 133 42
28 47 29 55 9z"/>
<path d="M3509 11443 c-63 -54 -88 -154 -48 -194 18 -18 28 -20 78 -14 60 8
91 20 91 36 0 7 -17 8 -47 3 -106 -17 -125 -5 -105 65 16 52 52 94 83 96 13 1
25 9 27 18 5 27 -42 21 -79 -10z"/>
<path d="M8745 11455 c-62 -29 -105 -83 -105 -131 0 -17 6 -36 13 -42 31 -25
135 -22 144 5 3 8 -16 13 -59 15 -56 3 -63 5 -66 25 -4 29 52 91 92 101 17 5
31 14 31 22 0 19 -16 21 -50 5z"/>
<path d="M8944 11456 c-38 -17 -68 -48 -89 -92 -20 -44 -7 -76 41 -99 68 -32
226 -3 242 44 5 15 -3 14 -73 -13 -53 -20 -134 -20 -163 0 -29 20 -28 49 3 89
23 31 85 64 85 45 0 -5 -16 -14 -35 -21 -35 -13 -42 -32 -14 -37 22 -4 79 36
79 56 0 20 -18 42 -34 42 -6 -1 -25 -7 -42 -14z"/>
<path d="M2800 11413 c-70 -110 3 -192 91 -103 23 22 29 38 29 70 0 60 -14 80
-56 80 -30 0 -38 -6 -64 -47z m88 -25 c4 -44 -24 -78 -63 -78 -30 0 -33 25 -9
73 31 60 67 63 72 5z"/>
<path d="M3785 11438 c-15 -12 -34 -36 -41 -55 -12 -28 -12 -38 0 -67 18 -43
47 -59 104 -58 56 2 84 10 79 25 -2 8 -24 11 -64 9 -46 -3 -64 0 -76 13 -21
21 -22 45 -2 45 54 0 102 62 75 95 -17 21 -43 19 -75 -7z m55 -18 c0 -14 -49
-44 -58 -35 -4 3 4 15 17 26 26 21 41 24 41 9z"/>
<path d="M8464 11441 c-42 -25 -76 -70 -72 -95 3 -18 10 -21 46 -20 41 1 42 0
42 -31 0 -37 22 -60 47 -50 17 6 17 7 1 19 -26 19 -22 45 12 99 27 42 28 47
12 56 -9 6 -13 11 -8 11 16 0 -16 30 -33 30 -9 0 -30 -9 -47 -19z m66 -31 c0
-13 -53 -48 -84 -56 -27 -6 -27 -5 -16 15 22 42 100 73 100 41z"/>
<path d="M5350 11398 c-17 -24 -29 -52 -28 -63 4 -26 51 -32 84 -10 l25 16 -6
-34 c-5 -24 -2 -37 9 -47 9 -7 18 -11 20 -9 8 10 13 130 5 134 -4 3 -26 -6
-48 -21 -52 -34 -65 -28 -35 16 16 23 24 29 24 17 0 -21 19 -22 26 -2 7 18
-12 45 -31 45 -7 0 -27 -19 -45 -42z"/>
<path d="M3297 11398 c-2 -7 -10 -29 -16 -48 -21 -57 -24 -77 -12 -84 12 -8
48 67 53 110 3 27 -19 47 -25 22z"/>
<path d="M12910 11285 c-6 -8 -9 -19 -5 -25 9 -14 45 6 45 25 0 19 -24 19 -40
0z"/>
<path d="M13774 11289 c-3 -6 -1 -16 4 -21 13 -13 45 8 36 23 -7 12 -31 11
-40 -2z"/>
<path d="M7515 10803 c-25 -81 -58 -159 -145 -348 -39 -83 -50 -145 -28 -145
10 0 17 13 21 34 5 34 16 58 89 216 41 87 118 294 118 317 0 7 -6 13 -14 13
-8 0 -24 -34 -41 -87z"/>
<path d="M7995 10878 c-2 -7 -9 -31 -15 -53 -7 -22 -39 -102 -72 -177 l-60
-137 -52 -3 c-37 -2 -51 -7 -51 -18 0 -11 9 -14 38 -12 43 4 45 -1 14 -48 -32
-48 -39 -70 -23 -70 8 0 31 28 52 61 38 60 40 61 86 63 57 2 67 10 43 36 -23
25 -34 25 -43 0 -4 -11 -12 -16 -18 -12 -8 5 2 38 33 107 53 115 104 261 95
269 -9 10 -22 7 -27 -6z"/>
<path d="M2605 10832 c-64 -34 -127 -127 -158 -230 -19 -65 -24 -74 -50 -79
-32 -6 -31 -26 1 -31 l21 -3 -19 -50 c-24 -60 -25 -89 -4 -89 9 0 14 5 12 12
-2 6 8 41 22 77 l27 66 63 13 c64 13 94 28 85 43 -3 4 -18 4 -33 -1 -15 -4
-46 -11 -70 -14 -42 -6 -43 -6 -37 16 41 132 91 211 156 244 59 30 65 30 73 2
6 -22 7 -22 21 -4 20 26 3 56 -33 56 -15 0 -49 -13 -77 -28z"/>
<path d="M5490 10765 c-6 -8 -9 -19 -6 -24 17 -26 -91 -251 -136 -282 -45 -32
-37 -79 17 -99 53 -20 132 6 193 63 63 60 26 126 -61 112 -23 -4 -48 -12 -56
-19 -9 -7 -6 4 6 29 21 41 83 210 83 226 0 14 -26 11 -40 -6z m58 -264 c52
-32 -96 -133 -168 -114 -26 7 -25 15 7 54 43 51 127 82 161 60z"/>
<path d="M3673 10738 c-6 -7 -13 -26 -17 -43 -4 -16 -18 -52 -31 -80 -50 -109
-75 -176 -75 -205 0 -43 17 -37 30 10 6 23 27 78 46 123 54 124 75 190 66 199
-5 5 -13 3 -19 -4z"/>
<path d="M5789 10748 c-1 -2 -3 -19 -4 -38 -1 -19 -32 -106 -69 -194 -48 -112
-65 -161 -57 -169 14 -14 12 -17 59 93 74 176 113 282 108 296 -4 12 -33 20
-37 12z"/>
<path d="M3516 10732 c-3 -6 -4 -17 -1 -25 8 -19 -104 -318 -124 -334 -14 -11
-14 -14 -1 -23 24 -16 38 -12 45 13 8 29 61 176 90 252 27 69 33 99 21 102 -5
1 -12 7 -16 13 -5 8 -10 9 -14 2z"/>
<path d="M5320 10730 c-12 -7 -12 -12 -2 -22 9 -9 15 -9 24 0 16 16 -2 34 -22
22z"/>
<path d="M12119 10733 c0 -4 0 -46 1 -93 0 -47 -4 -98 -9 -115 -5 -16 -10 -24
-10 -17 -2 20 -38 14 -100 -17 -71 -36 -94 -75 -67 -115 19 -30 73 -43 119
-29 42 12 71 65 86 156 15 89 11 229 -6 235 -7 2 -13 0 -14 -5z m-19 -274
c-20 -69 -52 -95 -103 -83 -38 8 -49 22 -36 46 12 23 96 66 125 64 18 -1 20
-5 14 -27z"/>
<path d="M11236 10718 c-2 -7 -9 -33 -16 -58 -7 -25 -32 -89 -56 -143 -44 -97
-53 -140 -34 -152 6 -4 10 -3 9 2 -3 10 4 27 52 134 42 92 79 194 79 216 0 17
-29 17 -34 1z"/>
<path d="M9467 10694 c-9 -10 12 -46 24 -39 14 9 11 45 -4 45 -8 0 -17 -3 -20
-6z"/>
<path d="M14184 10665 c-9 -23 10 -40 25 -22 9 11 8 17 -4 27 -12 10 -16 9
-21 -5z"/>
<path d="M4405 10638 c-77 -42 -138 -147 -183 -314 -17 -60 -33 -117 -37 -126
-5 -13 -2 -18 11 -18 14 0 30 25 62 95 23 52 42 99 42 104 0 5 15 12 33 15 68
13 167 132 167 202 0 43 -52 66 -95 42z m62 -34 c16 -41 -86 -174 -134 -174
-20 0 -22 3 -12 27 5 14 8 32 5 39 -6 17 50 91 83 109 34 19 50 19 58 -1z"/>
<path d="M8120 10636 c0 -18 26 -40 34 -27 9 14 -4 41 -20 41 -8 0 -14 -6 -14
-14z"/>
<path d="M8754 10611 c-75 -35 -86 -60 -53 -126 12 -24 19 -51 16 -59 -8 -21
-49 -37 -61 -25 -17 16 -27 10 -24 -13 2 -19 9 -23 36 -22 40 2 77 26 85 53 2
11 -6 42 -18 70 -28 60 -23 69 58 106 56 25 74 45 40 45 -10 -1 -45 -14 -79
-29z"/>
<path d="M4862 10590 c-47 -34 -49 -44 -25 -96 17 -35 17 -36 -2 -51 -12 -8
-31 -12 -47 -9 -31 6 -39 -13 -14 -33 11 -9 23 -8 55 5 50 20 61 50 37 102
-17 35 -17 36 6 54 13 10 40 23 61 28 46 13 48 30 4 30 -22 0 -49 -11 -75 -30z"/>
<path d="M13095 10605 c-47 -24 -164 -192 -150 -215 12 -19 24 -10 45 33 52
104 136 184 165 156 14 -13 25 -11 25 6 0 13 -29 35 -47 35 -4 0 -21 -7 -38
-15z"/>
<path d="M5041 10589 c-29 -18 -33 -24 -28 -52 3 -18 8 -40 12 -49 11 -27 -31
-61 -67 -54 -24 5 -29 3 -26 -12 6 -29 60 -27 98 4 33 28 35 41 14 111 -5 17
0 23 30 34 37 13 49 39 19 39 -10 0 -33 -9 -52 -21z"/>
<path d="M2231 10589 c-17 -7 -22 -15 -18 -31 4 -14 -2 -31 -19 -50 -47 -57
-20 -138 43 -123 56 12 103 70 103 126 0 63 -53 101 -109 78z m73 -45 c14 -36
5 -67 -29 -101 -39 -39 -69 -41 -73 -3 -3 33 43 92 57 71 5 -7 14 -10 20 -7
20 13 12 34 -16 44 l-28 10 31 1 c20 1 34 -5 38 -15z"/>
<path d="M9508 10573 c-28 -33 -29 -42 -8 -82 26 -52 26 -58 -10 -76 -41 -21
-65 -19 -77 8 -10 21 -11 21 -19 3 -20 -51 57 -74 116 -33 39 26 44 56 19 115
-12 30 -12 33 9 48 23 16 22 34 -2 34 -7 0 -20 -8 -28 -17z"/>
<path d="M4593 10561 c-38 -24 -83 -87 -83 -118 0 -13 11 -29 25 -39 23 -15
27 -15 71 6 55 27 75 65 63 118 -7 30 -22 51 -39 52 -3 0 -19 -9 -37 -19z m47
-57 c0 -38 -38 -74 -76 -74 -29 0 -30 15 -6 53 40 60 82 71 82 21z"/>
<path d="M8436 10530 c-38 -36 -55 -47 -64 -38 -8 8 -14 2 -25 -23 -8 -19 -24
-43 -36 -53 -23 -21 -28 -46 -9 -46 7 0 52 39 100 87 48 48 89 85 92 82 3 -2
-6 -31 -20 -64 -13 -33 -23 -71 -22 -84 4 -33 28 -40 28 -8 0 13 11 50 25 81
29 65 32 101 9 110 -23 9 -21 10 -78 -44z"/>
<path d="M9389 10578 c-1 -1 -3 -15 -5 -31 -3 -25 -37 -84 -57 -98 -13 -9 -4
-44 10 -44 7 0 22 18 34 40 12 22 28 52 36 68 16 30 14 58 -4 65 -7 2 -14 2
-14 0z"/>
<path d="M10256 10564 c-40 -14 -80 -43 -72 -51 2 -3 -4 -13 -15 -24 -23 -23
-25 -65 -4 -73 14 -5 52 5 108 29 13 6 16 4 11 -9 -10 -25 22 -66 51 -66 33 0
32 23 0 38 -25 12 -25 12 -10 49 8 20 20 42 26 49 6 7 7 19 3 26 -5 7 -9 20
-9 28 0 20 -41 22 -89 4z m36 -49 c-5 -28 -70 -69 -100 -63 -11 2 0 16 37 46
30 23 57 42 61 42 4 0 5 -11 2 -25z"/>
<path d="M13280 10573 c-63 -23 -170 -140 -170 -186 0 -28 45 -50 85 -43 33 7
51 36 23 36 -9 0 -8 4 2 10 9 6 10 10 3 10 -6 0 -15 -4 -18 -10 -3 -5 -19 -10
-35 -10 -22 0 -27 4 -23 18 3 12 21 23 52 31 46 11 118 52 133 75 14 21 8 55
-11 66 -11 5 -21 10 -23 9 -2 0 -10 -3 -18 -6z m30 -43 c0 -14 -89 -70 -109
-70 -23 1 67 80 90 80 11 0 19 -5 19 -10z"/>
<path d="M5234 10548 c-6 -7 -19 -30 -29 -50 -11 -21 -25 -38 -32 -38 -14 0
-16 -10 -7 -34 12 -30 30 -16 63 49 23 44 31 69 24 76 -6 6 -13 6 -19 -3z"/>
<path d="M6932 10545 c-43 -19 -49 -39 -23 -85 l22 -39 -42 -21 c-30 -16 -51
-20 -76 -15 -30 5 -34 4 -31 -12 5 -29 67 -29 127 2 57 28 65 52 31 95 -11 14
-20 28 -20 32 0 12 62 28 86 22 17 -4 24 -2 24 9 0 29 -46 35 -98 12z"/>
<path d="M5865 10525 c-62 -37 -85 -69 -85 -119 0 -51 14 -66 67 -73 47 -6
126 13 120 30 -4 12 -9 12 -84 1 -49 -8 -73 6 -73 41 0 42 8 51 48 47 43 -3
105 25 110 49 4 21 -24 49 -46 48 -9 0 -35 -12 -57 -24z m51 -32 c-15 -8 -35
-13 -44 -11 -12 2 -6 8 18 20 41 20 65 11 26 -9z"/>
<path d="M7520 10508 c-59 -82 -29 -148 58 -126 46 12 102 65 102 98 0 30 -23
24 -38 -10 -15 -34 -57 -60 -97 -60 -36 0 -33 40 6 84 28 33 32 56 8 56 -5 0
-22 -19 -39 -42z"/>
<path d="M10905 10514 c-105 -62 -121 -118 -45 -156 42 -21 138 -24 165 -5 24
19 7 27 -35 18 -45 -9 -110 5 -134 29 -20 19 -20 20 3 43 12 14 44 37 72 52
39 21 53 24 64 15 21 -17 38 -3 25 21 -16 28 -48 23 -115 -17z"/>
<path d="M11372 10543 c-12 -2 -45 -27 -72 -54 -41 -40 -50 -56 -50 -84 0 -45
22 -57 79 -44 90 20 121 49 121 113 0 34 -28 78 -47 75 -5 -1 -18 -4 -31 -6z
m48 -73 c0 -39 -58 -80 -115 -80 -36 0 -32 29 9 69 67 65 106 69 106 11z"/>
<path d="M11508 10539 c-25 -14 -22 -43 8 -89 22 -33 24 -43 14 -55 -18 -22
-35 -18 -48 10 -13 28 -32 34 -32 10 0 -27 32 -65 54 -65 33 0 66 28 66 56 0
14 -12 41 -26 59 -30 39 -25 55 17 55 19 0 29 5 29 15 0 18 -55 20 -82 4z"/>
<path d="M12788 10521 c-56 -36 -81 -70 -76 -108 4 -38 37 -42 100 -12 40 19
51 20 58 10 12 -20 30 -4 30 27 0 15 7 38 16 50 18 26 11 57 -11 48 -8 -3 -17
-1 -20 4 -11 18 -51 10 -97 -19z m77 -10 c-3 -5 0 -13 5 -16 17 -11 -13 -38
-70 -65 -27 -13 -53 -20 -57 -17 -12 13 18 53 60 80 40 27 74 36 62 18z"/>
<path d="M14087 10543 c-2 -5 -7 -20 -11 -35 -7 -33 -53 -88 -72 -88 -19 0
-18 -18 2 -37 18 -18 18 -17 68 56 35 52 46 94 27 106 -5 3 -12 2 -14 -2z"/>
<path d="M3210 10533 c0 -5 -10 -13 -22 -18 -31 -13 -71 -89 -63 -115 5 -17
14 -21 43 -18 25 2 37 8 37 18 0 11 -8 14 -28 12 -28 -4 -28 -3 -14 25 25 46
62 76 87 68 18 -6 21 -3 18 12 -3 18 -58 33 -58 16z"/>
<path d="M8170 10508 c-48 -33 -74 -71 -65 -97 10 -32 48 -53 80 -45 36 9 52
39 57 107 4 53 3 57 -17 57 -12 0 -37 -10 -55 -22z m36 -82 c-5 -20 -13 -26
-35 -26 -43 0 -47 26 -9 63 31 31 31 31 41 10 5 -12 7 -33 3 -47z"/>
<path d="M11728 10510 c-60 -32 -88 -91 -55 -118 19 -16 63 -25 86 -17 30 9
17 22 -30 30 -30 5 -39 11 -37 23 2 10 15 18 31 20 15 2 27 9 27 15 0 8 3 7 9
-2 10 -16 45 -10 76 13 16 12 18 18 9 33 -15 25 -71 27 -116 3z m72 -20 c-8
-5 -24 -10 -35 -10 -17 0 -17 2 -5 10 8 5 24 10 35 10 17 0 17 -2 5 -10z"/>
<path d="M14213 10492 c-41 -41 -70 -88 -60 -98 11 -11 37 5 47 28 13 32 31
53 59 67 35 19 45 1 25 -42 -10 -20 -15 -40 -11 -43 25 -26 68 67 48 105 -19
35 -64 28 -108 -17z"/>
<path d="M3290 10510 c0 -5 -18 -28 -41 -51 -22 -22 -38 -44 -34 -47 3 -4 10
0 14 7 6 9 11 4 19 -18 14 -38 32 -40 32 -3 0 15 9 42 21 61 20 33 20 61 -1
61 -5 0 -10 -4 -10 -10z"/>
<path d="M13405 10503 c-47 -24 -95 -75 -95 -100 0 -39 44 -41 112 -6 l57 30
3 -35 c4 -45 44 -78 83 -68 25 6 31 34 7 29 -6 -2 -23 2 -37 7 -31 12 -33 45
-5 102 11 23 20 45 20 50 0 19 -29 5 -64 -31 -61 -62 -184 -110 -130 -50 20
23 96 65 104 58 3 -2 6 4 8 14 4 22 -22 22 -63 0z"/>
<path d="M7126 10503 c-10 -10 -7 -25 4 -18 16 10 11 -8 -10 -35 -45 -58 -7
-118 58 -91 49 20 66 79 34 117 -17 21 -74 39 -86 27z m74 -69 c0 -16 -35 -54
-50 -54 -21 0 -21 30 1 59 17 24 26 28 36 20 7 -6 13 -18 13 -25z"/>
<path d="M8018 10478 c-27 -41 -58 -107 -58 -123 0 -30 19 -14 45 38 15 28 33
59 41 68 8 8 14 21 14 27 0 20 -27 13 -42 -10z"/>
<path d="M2000 10363 c0 -37 -28 -132 -64 -215 -15 -35 -18 -37 -68 -40 -65
-4 -66 -22 -2 -26 38 -3 45 -6 39 -20 -11 -24 -31 -114 -30 -132 0 -29 30 -16
33 15 2 17 10 54 18 83 13 47 17 52 43 52 16 0 43 3 60 6 l32 7 -21 -54 c-37
-98 -16 -108 46 -21 22 31 55 65 73 75 29 17 32 17 38 1 3 -9 0 -38 -7 -63
-16 -57 -18 -103 -5 -108 12 -4 34 74 42 149 4 40 2 48 -16 58 -26 14 -52 6
-90 -26 -30 -25 -32 -20 -14 26 36 92 75 212 70 217 -11 10 -37 -6 -37 -22 0
-9 -16 -61 -36 -115 -26 -69 -41 -97 -50 -93 -8 3 -27 1 -42 -5 -54 -19 -56
-4 -17 109 36 104 42 168 18 177 -9 2 -13 -9 -13 -35z"/>
<path d="M5992 10393 c-13 -3 -21 -10 -19 -16 7 -21 35 -19 47 2 6 12 7 20 3
20 -4 -1 -18 -4 -31 -6z"/>
<path d="M4467 10204 c-4 -4 -7 -19 -7 -33 0 -14 -20 -71 -45 -125 -25 -55
-45 -101 -45 -103 0 -12 32 3 70 33 43 34 45 35 48 14 5 -31 38 -42 102 -33
38 6 55 13 55 23 0 15 -12 16 -83 4 -28 -4 -33 -1 -42 21 -12 31 -32 40 -59
25 -26 -13 -26 -14 3 51 27 60 37 120 20 126 -5 2 -13 0 -17 -3z"/>
<path d="M2395 10137 c-39 -28 -52 -44 -71 -87 -30 -68 11 -140 79 -140 51 0
147 31 147 47 0 9 6 13 15 9 9 -3 15 0 15 9 0 19 -4 19 -41 0 -44 -23 -132
-37 -161 -26 -25 9 -46 51 -25 51 17 0 118 73 129 93 7 13 5 25 -7 43 -19 30
-41 30 -80 1z m55 -21 c0 -14 -90 -89 -98 -81 -9 9 29 56 61 75 38 24 37 23
37 6z"/>
<path d="M3828 10103 c-21 -25 -87 -166 -90 -194 -4 -27 20 -37 28 -12 23 63
69 161 84 177 16 16 21 17 35 6 20 -16 33 -4 19 18 -15 24 -57 27 -76 5z"/>
<path d="M3713 10091 c-4 -17 -9 -18 -28 -9 -35 16 -91 1 -131 -34 -46 -41
-57 -63 -44 -88 19 -36 60 -35 152 4 15 7 15 3 2 -51 -8 -32 -21 -77 -30 -99
l-15 -42 -44 13 c-38 12 -45 12 -58 -3 -39 -43 -24 -187 19 -187 17 0 36 26
93 124 7 11 13 11 37 -2 18 -9 37 -11 49 -7 17 7 14 11 -23 27 -29 12 -41 23
-38 33 3 8 19 65 35 125 17 61 38 129 46 152 16 42 14 63 -7 63 -5 0 -12 -9
-15 -19z m-33 -46 c11 -13 10 -18 -6 -31 -44 -34 -83 -49 -121 -45 -34 3 7 60
57 80 36 14 56 13 70 -4z m-96 -298 c18 -13 18 -16 -9 -60 -15 -26 -30 -47
-35 -47 -11 0 -17 40 -12 83 5 40 23 48 56 24z"/>
<path d="M4251 10076 c-14 -15 -30 -22 -42 -19 -13 4 -19 0 -19 -11 0 -25 -55
-151 -95 -216 -34 -57 -44 -93 -26 -104 14 -9 33 20 66 98 23 52 36 71 50 72
47 2 55 5 85 30 36 30 70 92 70 127 0 50 -51 63 -89 23z m59 -21 c0 -26 -38
-93 -62 -109 -21 -15 -58 -22 -58 -11 0 10 25 51 58 93 34 42 62 55 62 27z"/>
<path d="M3928 10021 c-33 -39 -32 -76 2 -75 14 0 35 4 48 8 19 6 22 4 22 -18
0 -29 28 -62 42 -48 6 6 5 17 -3 30 -11 17 -11 28 -1 57 18 49 7 60 -31 31
-36 -27 -77 -42 -77 -28 0 15 35 42 54 42 24 0 14 24 -11 28 -13 2 -30 -8 -45
-27z"/>
<path d="M4703 9953 c-7 -2 -13 -11 -13 -20 0 -21 44 -13 48 10 3 17 -10 21
-35 10z"/>
<path d="M12514 9563 c-11 -33 -116 -258 -125 -268 -5 -5 -46 -14 -90 -20 -98
-12 -102 -31 -6 -29 37 1 67 0 67 -1 0 -2 -16 -37 -36 -80 -29 -61 -34 -79
-24 -88 10 -9 14 -9 17 0 3 7 24 53 48 102 l43 89 54 16 c64 19 83 30 74 44
-4 8 -20 6 -48 -4 -23 -8 -43 -12 -45 -10 -2 2 19 52 46 112 27 60 51 118 53
128 4 25 -20 33 -28 9z"/>
<path d="M12697 9563 c-3 -5 -22 -53 -42 -108 -51 -138 -108 -243 -166 -310
-27 -31 -49 -63 -49 -71 0 -29 29 -12 68 40 45 59 108 104 123 89 6 -6 -2 -31
-21 -67 -28 -53 -31 -76 -10 -76 16 0 72 129 65 150 -7 21 -46 37 -65 25 -6
-4 -2 11 9 33 26 50 97 229 106 263 6 25 -8 49 -18 32z"/>
<path d="M8372 9513 c-35 -35 -65 -82 -108 -171 l-59 -121 -37 -1 c-27 0 -38
-4 -38 -15 0 -9 9 -15 25 -15 32 0 31 -9 -5 -94 -16 -38 -27 -73 -24 -77 10
-17 25 -9 35 19 5 15 21 55 36 90 l26 62 44 0 c51 0 113 25 113 46 0 17 0 17
-45 -2 -20 -8 -50 -14 -65 -12 l-29 3 32 71 c77 169 139 242 198 230 25 -5 30
-3 27 12 -2 12 -15 18 -40 20 -34 3 -43 -2 -86 -45z"/>
<path d="M4714 9499 c-3 -5 -9 -7 -14 -4 -5 3 -68 -2 -142 -11 -81 -10 -173
-15 -236 -12 -98 5 -132 -3 -101 -23 24 -15 238 -9 385 10 140 18 164 24 164
40 0 11 -49 11 -56 0z"/>
<path d="M9136 9458 c-3 -13 -6 -34 -6 -48 0 -16 -3 -20 -8 -13 -5 8 -33 -38
-75 -122 -71 -144 -69 -142 -155 -147 -63 -4 -56 -23 10 -26 l56 -3 -24 -61
c-26 -67 -30 -93 -14 -103 18 -11 42 17 36 41 -4 13 5 47 20 83 26 60 26 60
78 68 61 10 73 37 16 37 -25 1 -34 5 -33 16 2 8 30 67 63 130 33 63 61 126 63
139 3 31 -19 39 -27 9z"/>
<path d="M4725 9460 c-4 -6 -8 -34 -9 -63 -2 -31 -23 -111 -55 -202 -29 -82
-53 -159 -54 -169 -3 -32 19 -29 33 5 20 48 98 149 115 149 18 0 20 10 -10
-85 -23 -74 -22 -113 2 -83 12 15 53 148 53 172 0 18 -29 35 -50 28 -8 -2 -26
-14 -39 -26 -23 -20 -24 -20 -17 -1 26 72 56 194 56 231 0 42 -12 64 -25 44z"/>
<path d="M11244 9452 c-18 -12 -40 -62 -73 -171 -31 -100 -33 -103 -51 -86
-26 23 -62 9 -119 -47 -32 -32 -41 -49 -41 -74 0 -40 36 -70 74 -60 51 13 136
143 166 257 23 84 51 149 66 149 8 0 14 4 14 9 0 14 -25 30 -36 23z m-126
-299 c2 -7 -18 -36 -45 -64 -35 -36 -53 -48 -66 -44 -25 10 -21 48 8 75 13 12
22 27 19 31 -3 5 1 6 9 3 8 -3 18 0 22 6 9 14 47 9 53 -7z"/>
<path d="M14131 9336 l-52 -103 -52 -2 c-60 -3 -61 -3 -107 5 -27 4 -43 0 -73
-20 -21 -15 -42 -24 -47 -21 -12 7 -59 -62 -108 -161 -22 -44 -57 -102 -77
-128 -21 -28 -34 -54 -30 -63 5 -14 8 -13 26 3 11 10 37 44 56 76 30 49 39 57
58 52 34 -8 104 27 152 77 39 42 83 112 83 134 0 5 22 11 50 13 57 3 56 13 1
-101 -25 -50 -31 -71 -22 -80 13 -13 9 -19 61 91 l43 92 49 0 c59 0 63 23 5
28 l-37 3 50 97 c54 107 56 112 37 112 -7 0 -37 -47 -66 -104z m-201 -144 c0
-23 -49 -99 -86 -134 -31 -29 -102 -63 -112 -53 -14 14 89 160 132 186 39 24
66 24 66 1z"/>
<path d="M4529 9368 c-1 -2 -3 -23 -4 -48 -1 -25 -19 -88 -39 -140 -41 -102
-59 -206 -36 -198 8 2 19 31 26 64 6 33 20 77 29 99 50 116 70 225 40 225 -8
0 -16 -1 -16 -2z"/>
<path d="M6104 9359 c-3 -6 -2 -15 4 -21 11 -11 52 6 52 22 0 14 -47 13 -56
-1z"/>
<path d="M10982 9338 c-19 -19 -14 -28 13 -28 27 0 28 1 19 24 -7 19 -16 20
-32 4z"/>
<path d="M14345 9280 c-18 -35 -19 -50 -2 -50 15 0 49 58 41 71 -10 16 -23 9
-39 -21z"/>
<path d="M10072 9260 c-91 -56 -152 -147 -227 -343 -45 -115 -55 -151 -46
-160 10 -9 16 -7 28 8 24 31 102 198 109 234 6 28 10 31 41 31 24 0 47 10 74
31 104 82 122 260 21 199z m38 -40 c0 -54 -81 -160 -123 -160 -48 0 -24 62 52
133 55 52 71 58 71 27z"/>
<path d="M4945 9248 c-36 -19 -96 -82 -116 -120 -41 -79 -13 -135 61 -125 44
6 90 31 90 48 0 6 -8 9 -17 6 -114 -38 -130 -34 -119 26 5 29 12 36 38 41 40
8 95 42 114 71 12 18 13 28 4 44 -12 23 -25 26 -55 9z m1 -57 c-15 -16 -38
-32 -50 -34 -16 -4 -11 3 18 29 48 41 71 45 32 5z"/>
<path d="M7422 9233 c-58 -40 -97 -93 -127 -176 -15 -40 -45 -112 -67 -160
-32 -70 -39 -95 -34 -123 13 -67 33 -42 90 112 43 118 44 119 74 116 25 -3 41
7 97 59 98 92 114 131 70 174 -31 32 -53 31 -103 -2z m82 -19 c9 -8 16 -18 16
-20 0 -17 -35 -65 -72 -100 -68 -64 -76 -68 -93 -54 -12 10 -12 17 2 53 9 23
19 44 22 47 3 3 11 14 17 25 11 20 70 65 85 65 4 0 15 -7 23 -16z"/>
<path d="M5172 9237 c-53 -30 -112 -132 -112 -193 0 -28 18 -32 26 -6 3 9 21
50 40 89 30 62 40 74 67 81 18 5 32 15 32 22 0 20 -25 22 -53 7z"/>
<path d="M11305 9228 c-32 -17 -76 -61 -91 -90 -22 -43 -17 -76 17 -110 29
-30 32 -31 96 -25 44 5 77 14 99 29 53 36 41 52 -16 23 -15 -8 -53 -18 -83
-21 -47 -6 -57 -4 -76 15 -26 26 -26 47 -2 87 24 40 88 81 103 66 18 -18 0
-42 -47 -63 -44 -19 -52 -39 -17 -39 19 0 83 37 94 54 15 22 8 65 -11 76 -25
13 -41 12 -66 -2z"/>
<path d="M15262 9196 c-26 -24 -62 -51 -81 -61 l-33 -17 26 35 c47 61 34 84
-34 58 -30 -11 -47 -14 -46 -7 3 29 -18 15 -73 -49 -34 -38 -61 -76 -61 -82 0
-25 31 -12 84 36 80 73 131 95 86 38 -24 -30 -26 -67 -5 -67 22 0 95 38 123
63 l22 21 -11 -33 c-10 -28 -9 -37 8 -59 15 -21 29 -27 57 -27 45 0 52 19 9
23 -52 5 -58 30 -23 97 46 87 26 100 -48 31z"/>
<path d="M6173 9210 c-24 -11 -48 -30 -55 -45 -10 -22 -8 -30 20 -69 36 -50
39 -61 16 -70 -24 -9 -54 -7 -54 4 0 6 -6 10 -13 10 -22 0 -15 -31 11 -48 23
-15 27 -15 61 4 46 25 52 59 17 102 -43 50 -29 80 42 91 23 4 37 12 37 21 0
22 -35 22 -82 0z"/>
<path d="M10199 9181 c-46 -47 -69 -97 -69 -148 0 -43 27 -25 34 21 12 78 97
169 128 138 17 -17 28 -15 28 7 0 10 -7 22 -16 25 -36 14 -60 4 -105 -43z"/>
<path d="M10733 9220 c-54 -13 -81 -37 -118 -108 -31 -59 -35 -63 -31 -32 3
19 8 57 12 83 6 44 5 49 -12 45 -11 -2 -20 -12 -20 -23 -1 -11 -5 -52 -9 -90
-6 -58 -4 -73 8 -84 23 -19 33 -8 76 78 42 83 65 101 129 101 43 0 68 13 58
29 -8 12 -45 13 -93 1z"/>
<path d="M12775 9211 c-39 -23 -83 -75 -91 -106 -14 -56 43 -91 130 -81 54 7
97 28 84 41 -4 4 -27 2 -52 -4 -63 -15 -90 -14 -116 7 -19 16 -21 22 -11 40 7
13 21 22 36 22 60 0 104 50 75 85 -16 19 -19 19 -55 -4z m21 -36 c-11 -8 -25
-15 -30 -15 -6 0 -2 7 8 15 11 8 25 15 30 15 6 0 2 -7 -8 -15z"/>
<path d="M6022 9208 c-7 -7 -12 -18 -12 -26 0 -8 -8 -36 -17 -61 -15 -44 -12
-96 5 -75 19 22 56 154 46 164 -7 7 -14 6 -22 -2z"/>
<path d="M3675 9185 c-28 -27 -30 -37 -15 -66 15 -26 32 -24 62 9 32 34 40 56
25 71 -18 18 -46 13 -72 -14z m35 -30 c-7 -9 -15 -13 -18 -10 -3 2 1 11 8 20
7 9 15 13 18 10 3 -2 -1 -11 -8 -20z"/>
<path d="M7643 9190 c-51 -30 -153 -138 -153 -160 0 -26 27 -26 35 -1 3 11 35
47 71 80 49 46 72 61 94 61 34 0 39 14 11 30 -25 13 -20 13 -58 -10z"/>
<path d="M10410 9201 c-14 -4 -27 -15 -29 -26 -2 -11 -19 -39 -38 -64 -25 -33
-33 -53 -31 -76 3 -27 7 -30 40 -33 32 -3 44 3 80 37 38 35 43 44 43 85 0 56
-26 87 -65 77z m38 -75 c4 -32 -54 -96 -87 -96 -31 0 -26 22 20 80 43 55 62
60 67 16z"/>
<path d="M13542 9180 c-76 -55 -98 -117 -56 -160 34 -35 150 -3 189 53 32 46
11 127 -33 127 -9 0 -26 3 -37 6 -13 3 -36 -6 -63 -26z m51 -22 c3 -10 7 -10
20 1 24 19 47 6 47 -27 0 -51 -52 -92 -116 -92 -67 0 -67 44 0 102 35 31 43
33 49 16z"/>
<path d="M14756 9150 c-40 -88 -21 -123 53 -99 54 18 108 57 132 95 11 19 25
34 30 34 5 0 9 7 9 15 0 28 -27 15 -68 -34 -82 -97 -185 -110 -122 -16 23 34
26 65 7 65 -7 0 -25 -27 -41 -60z"/>
<path d="M5309 9185 c-27 -15 -89 -99 -89 -120 0 -7 9 -24 21 -39 19 -24 26
-26 100 -26 89 0 104 11 75 55 -19 29 -37 25 -29 -6 5 -19 2 -20 -58 -17 -59
3 -64 5 -67 27 -2 13 1 28 7 34 8 8 11 8 11 -1 0 -19 22 -14 63 13 38 27 48
60 25 83 -15 15 -27 15 -59 -3z m41 -35 c0 -9 -51 -40 -66 -40 -4 0 3 11 16
25 24 25 50 33 50 15z"/>
<path d="M14490 9186 c-51 -18 -109 -58 -160 -110 -34 -35 -41 -49 -32 -58 9
-9 30 5 91 60 83 75 117 93 79 42 -15 -21 -19 -33 -11 -41 12 -12 48 2 111 44
l44 29 -17 -32 c-20 -38 -16 -84 7 -88 13 -3 16 2 12 22 -3 16 6 46 21 76 14
27 25 54 25 60 0 18 -30 11 -73 -18 -69 -47 -69 -47 -55 -17 16 35 1 46 -42
31z"/>
<path d="M6790 9173 c-37 -25 -50 -45 -47 -72 4 -40 29 -47 76 -23 l41 22 0
-31 c0 -41 16 -69 40 -69 24 0 27 25 4 34 -11 4 -15 18 -14 53 3 75 2 79 -25
91 -35 16 -46 15 -75 -5z m58 -22 c11 -6 7 -13 -16 -30 -54 -38 -86 -21 -36
18 30 23 33 24 52 12z"/>
<path d="M7747 9159 c-42 -32 -72 -96 -58 -125 14 -31 72 -33 119 -4 46 28 56
56 39 105 -12 33 -19 40 -43 42 -17 2 -40 -6 -57 -18z m73 -54 c0 -41 -85 -87
-104 -56 -9 15 38 75 64 82 32 8 40 3 40 -26z"/>
<path d="M7954 9164 c-41 -22 -60 -41 -74 -75 -17 -41 0 -79 34 -79 66 0 114
58 102 122 -8 43 -24 51 -62 32z m34 -52 c4 -27 -41 -75 -66 -70 -23 5 -16 36
16 71 29 31 46 31 50 -1z"/>
<path d="M14255 9162 c-6 -4 -16 -18 -23 -32 -7 -14 -24 -40 -37 -59 -26 -35
-28 -52 -7 -59 6 -2 18 12 26 31 7 19 19 38 25 41 18 12 43 68 34 77 -4 4 -13
5 -18 1z"/>
<path d="M10880 9151 c0 -5 -13 -24 -30 -42 -16 -19 -30 -42 -30 -51 0 -35 18
-26 51 25 44 67 42 64 24 70 -8 4 -15 3 -15 -2z"/>
<path d="M9170 9120 c-32 -32 -42 -68 -30 -106 10 -28 17 -34 40 -34 61 0 118
88 90 140 -15 27 -73 27 -100 0z m70 -49 c0 -20 -8 -35 -22 -45 -35 -25 -48
-20 -48 17 0 23 6 35 23 43 37 19 47 16 47 -15z"/>
<path d="M2776 8968 c-2 -7 -10 -35 -17 -63 -13 -55 -72 -208 -113 -295 -28
-59 -35 -125 -14 -118 7 3 16 20 19 39 3 19 15 52 26 74 53 101 138 349 127
366 -8 13 -24 11 -28 -3z"/>
<path d="M3242 8911 c-6 -28 -24 -82 -39 -120 -24 -62 -31 -71 -53 -71 -41 0
-70 -11 -70 -27 0 -12 8 -13 40 -8 22 4 40 3 40 -2 0 -4 -11 -39 -25 -78 -14
-39 -21 -73 -16 -78 12 -12 21 4 52 88 l26 70 69 1 c57 1 70 4 72 19 3 14 -3
17 -40 15 -95 -5 -91 -13 -52 98 36 104 42 142 21 142 -8 0 -18 -21 -25 -49z"/>
<path d="M7702 8887 c-7 -19 -40 -71 -75 -117 -34 -46 -72 -97 -85 -114 -38
-50 -62 -104 -56 -121 7 -16 29 -16 29 1 2 28 25 67 96 160 80 104 129 185
129 210 0 27 -26 13 -38 -19z"/>
<path d="M4927 8872 c-8 -38 -97 -152 -119 -152 -10 0 -18 -5 -18 -10 0 -6 -7
-6 -19 1 -23 15 -51 5 -51 -16 0 -13 8 -16 33 -14 38 4 41 -4 16 -53 -22 -42
-25 -98 -7 -116 14 -14 77 -16 98 -2 23 14 3 24 -42 21 l-41 -3 5 40 c3 21 18
57 33 80 26 40 29 41 96 48 52 5 69 10 69 22 0 12 -11 14 -55 10 -30 -3 -55
-3 -55 -1 0 3 15 23 34 46 41 52 69 104 61 117 -12 19 -33 10 -38 -18z"/>
<path d="M12250 8883 c0 -8 7 -21 16 -30 18 -19 38 -5 32 23 -4 23 -48 29 -48
7z"/>
<path d="M11035 8853 c-3 -15 -14 -38 -24 -52 -25 -35 -92 -169 -102 -203 -5
-18 -3 -30 5 -37 16 -13 26 -4 26 22 0 21 69 163 100 205 27 37 38 92 17 92
-8 0 -18 -12 -22 -27z"/>
<path d="M13860 8863 c0 -5 -21 -44 -46 -88 -82 -141 -104 -180 -104 -187 0
-17 32 -6 73 23 l42 31 5 -34 c5 -32 6 -33 51 -32 50 0 91 26 72 45 -6 6 -14
4 -23 -6 -7 -8 -25 -15 -41 -15 -26 0 -29 4 -29 30 0 39 -24 49 -63 27 l-29
-17 21 32 c40 61 89 153 93 172 2 10 -3 21 -9 23 -7 3 -13 1 -13 -4z"/>
<path d="M3420 8825 c0 -8 7 -15 15 -15 8 0 15 7 15 15 0 8 -7 15 -15 15 -8 0
-15 -7 -15 -15z"/>
<path d="M10205 8821 c-16 -10 -47 -37 -68 -60 -21 -22 -46 -41 -55 -41 -13 0
-33 -32 -70 -107 -28 -60 -66 -132 -83 -161 -22 -36 -28 -57 -21 -64 13 -13
47 34 102 139 38 75 44 82 62 72 78 -42 227 133 192 225 -8 21 -22 20 -59 -3z
m35 -38 c0 -38 -42 -103 -87 -132 -26 -17 -50 -31 -54 -31 -37 0 2 71 77 140
47 43 64 49 64 23z"/>
<path d="M10750 8814 c0 -25 -78 -184 -106 -215 -8 -8 -14 -20 -14 -25 0 -14
50 -34 84 -34 70 1 149 62 133 104 -8 21 -78 21 -116 1 l-28 -14 44 90 c44 89
49 119 18 119 -9 0 -15 -9 -15 -26z m59 -201 c-27 -31 -119 -58 -119 -33 0 15
71 49 104 50 25 0 27 -2 15 -17z"/>
<path d="M7827 8803 c-4 -3 -7 -12 -7 -20 0 -17 26 -17 33 1 8 21 -11 35 -26
19z"/>
<path d="M10376 8780 c-27 -24 -35 -27 -40 -15 -9 26 -25 17 -35 -22 -6 -20
-25 -51 -43 -70 -24 -25 -29 -36 -20 -45 9 -9 32 8 96 70 47 45 90 82 96 82 6
0 19 -5 30 -12 27 -17 37 -2 15 22 -26 28 -59 25 -99 -10z"/>
<path d="M13238 8793 c-42 -6 -59 -38 -52 -95 6 -43 4 -50 -24 -78 -34 -33
-52 -38 -52 -14 0 23 -24 11 -28 -14 -8 -52 97 -28 125 29 7 13 13 50 13 82 0
55 1 57 28 59 15 0 34 1 42 2 8 1 15 7 15 15 0 15 -24 20 -67 14z"/>
<path d="M11347 8735 c-15 -25 -27 -48 -27 -50 0 -3 -18 -21 -40 -41 -38 -34
-52 -64 -30 -64 5 0 48 28 95 61 86 61 108 69 83 30 -33 -54 57 -33 108 25 12
13 24 24 27 24 3 0 3 -23 0 -51 -5 -42 -3 -54 11 -65 20 -14 71 -3 95 21 22
22 7 28 -33 14 -20 -7 -39 -10 -42 -6 -4 4 -2 32 4 63 18 87 7 93 -66 34 -48
-37 -51 -38 -54 -17 -4 31 -33 33 -78 3 l-38 -25 15 29 c8 16 18 32 24 35 15
10 10 25 -9 25 -10 0 -29 -19 -45 -45z"/>
<path d="M8627 8683 c-65 -100 -68 -107 -47 -110 8 -1 35 26 60 60 25 34 58
68 74 75 25 13 31 12 58 -8 37 -27 57 -14 30 20 -14 17 -30 24 -58 24 -21 1
-44 7 -49 14 -8 10 -24 -8 -68 -75z"/>
<path d="M5975 8741 c-41 -24 -87 -80 -83 -100 4 -22 59 -26 97 -7 42 22 48
20 43 -13 -3 -21 2 -33 18 -44 23 -16 50 -13 50 5 0 5 -9 12 -20 15 -23 6 -25
19 -5 53 19 33 19 50 -1 50 -8 0 -20 14 -25 30 -13 35 -31 38 -74 11z m54 -52
c1 -6 -77 -39 -92 -39 -19 0 -3 23 35 50 39 28 43 29 49 13 4 -10 8 -21 8 -24z"/>
<path d="M8412 8719 c-64 -51 -76 -70 -58 -95 13 -17 18 -18 61 -6 32 9 51 9
60 2 14 -12 25 -3 25 19 0 9 9 22 20 29 23 14 27 52 5 52 -8 0 -19 -9 -25 -21
-15 -27 -120 -72 -120 -50 0 17 91 76 112 73 15 -3 19 1 16 15 -6 32 -42 26
-96 -18z"/>
<path d="M10512 8705 c-47 -47 -52 -56 -42 -74 19 -37 117 -24 140 19 14 26
-3 95 -26 104 -19 7 -10 14 -72 -49z m68 -20 c0 -26 -25 -45 -59 -45 -29 0
-26 14 10 44 38 32 49 33 49 1z"/>
<path d="M11104 8741 c-43 -26 -74 -69 -74 -101 0 -37 38 -70 82 -70 34 0 65
20 51 33 -12 12 -23 7 -24 -10 0 -11 -3 -13 -6 -5 -2 6 -15 12 -27 12 -28 0
-46 18 -46 45 0 15 2 17 9 6 19 -29 131 30 131 69 0 41 -46 51 -96 21z m64
-23 c-4 -12 -63 -46 -80 -48 -19 -1 -5 20 25 39 36 23 61 27 55 9z"/>
<path d="M12181 8664 c-53 -100 -60 -124 -38 -124 13 0 107 180 107 205 0 35
-21 9 -69 -81z"/>
<path d="M2165 8735 c-22 -8 -41 -15 -42 -15 -2 0 -3 -10 -3 -23 0 -14 16 -39
40 -62 37 -36 39 -40 24 -56 -11 -12 -34 -19 -68 -21 -52 -3 -66 -19 -25 -28
39 -10 88 1 114 26 34 31 32 46 -15 90 -22 21 -40 42 -40 46 0 11 76 29 107
26 20 -2 28 2 28 12 0 21 -69 24 -120 5z"/>
<path d="M8182 8720 c-23 -16 -46 -38 -51 -49 -17 -30 -13 -76 7 -94 29 -26
122 -19 122 9 0 10 -14 13 -52 11 -53 -2 -53 -2 -53 28 0 27 3 30 35 33 103 9
168 92 72 92 -27 0 -51 -9 -80 -30z m68 -15 c-35 -20 -62 -19 -36 0 11 8 29
15 40 15 19 -1 19 -2 -4 -15z"/>
<path d="M2468 8733 c0 -4 -2 -12 -3 -18 -2 -5 -3 -15 -4 -22 0 -7 -8 -10 -16
-7 -8 4 -15 1 -15 -6 0 -6 -4 -9 -9 -5 -13 8 -51 -44 -51 -70 0 -28 30 -55 62
-55 24 0 95 41 110 64 14 20 8 53 -13 80 -22 28 -58 51 -61 39z m46 -77 c9
-14 6 -22 -17 -42 -34 -29 -74 -41 -89 -26 -18 18 7 61 45 77 37 16 47 15 61
-9z"/>
<path d="M7968 8720 c-20 -11 -40 -24 -43 -30 -3 -5 -14 -10 -23 -10 -9 0 -30
-16 -45 -35 -24 -30 -26 -36 -12 -41 10 -4 27 3 43 18 38 36 111 82 118 75 4
-3 -8 -29 -25 -57 -29 -48 -41 -100 -22 -100 13 0 93 169 87 185 -7 20 -33 18
-78 -5z"/>
<path d="M2843 8723 c-7 -3 -13 -13 -13 -23 0 -10 -4 -21 -9 -24 -15 -10 -21
-65 -9 -91 6 -14 21 -28 34 -31 45 -11 154 70 154 115 0 23 -19 41 -36 34 -16
-6 -19 -30 -4 -35 18 -6 -19 -47 -61 -69 -22 -11 -44 -17 -49 -14 -15 9 -12
63 6 97 16 30 10 49 -13 41z"/>
<path d="M13540 8707 c-43 -28 -74 -80 -65 -107 16 -49 98 -63 149 -25 24 18
12 39 -14 25 -28 -15 -97 -12 -103 4 -12 32 53 95 101 96 13 0 22 6 22 15 0
23 -52 19 -90 -8z"/>
<path d="M3485 8687 c-39 -39 -42 -52 -21 -102 18 -42 55 -55 91 -31 31 21 38
49 28 111 -7 45 -11 50 -36 53 -21 3 -36 -5 -62 -31z m69 -39 c6 -34 3 -45
-14 -62 -17 -18 -22 -19 -34 -6 -29 31 -29 58 0 85 15 14 30 25 34 25 4 0 10
-19 14 -42z"/>
<path d="M13412 8688 c-23 -44 -92 -118 -108 -118 -20 0 -17 40 6 78 11 18 20
39 20 48 0 31 -25 7 -54 -49 -24 -49 -27 -62 -18 -82 16 -34 58 -32 98 3 34
29 104 125 104 142 0 22 -32 8 -48 -22z"/>
<path d="M12248 8647 c-21 -35 -38 -71 -38 -80 0 -28 19 -28 34 0 24 47 109
124 122 111 3 -3 -9 -27 -25 -54 -32 -50 -37 -69 -22 -78 9 -6 78 102 83 130
5 27 -27 40 -62 27 -16 -6 -30 -7 -30 -2 0 27 -29 1 -62 -54z"/>
<path d="M3800 8683 c-14 -9 -38 -28 -53 -42 l-28 -26 10 28 c13 34 5 53 -15
36 -8 -6 -14 -17 -14 -23 0 -7 -14 -34 -30 -60 -28 -43 -31 -66 -11 -66 5 0
33 23 62 50 80 75 84 76 84 27 0 -34 5 -44 27 -56 30 -17 78 -7 86 18 4 11 -2
13 -27 8 -61 -12 -74 9 -46 76 20 49 3 61 -45 30z"/>
<path d="M3349 8662 c-9 -15 -26 -44 -38 -64 -21 -35 -22 -38 -4 -38 20 1 88
104 78 120 -10 16 -19 12 -36 -18z"/>
<path d="M5028 8683 c0 -5 -2 -12 -3 -18 -1 -5 -7 -23 -13 -38 -25 -59 22 -87
79 -46 48 34 54 55 25 84 -24 24 -84 36 -88 18z m72 -53 c0 -11 -51 -43 -57
-36 -4 3 -1 17 5 30 8 18 16 23 31 19 12 -3 21 -9 21 -13z"/>
<path d="M7689 8621 c-16 -20 -28 -42 -27 -50 4 -22 27 -25 35 -4 3 10 17 32
30 49 27 37 28 41 7 41 -8 0 -29 -16 -45 -36z"/>
<path d="M12706 8591 c-9 -9 -13 -21 -9 -24 3 -4 -2 -7 -12 -7 -13 0 -15 -3
-7 -12 7 -9 -3 -34 -34 -88 -77 -131 -146 -274 -139 -291 9 -25 35 -19 35 9 0
23 96 213 167 332 33 55 41 84 24 94 -4 3 -16 -3 -25 -13z"/>
<path d="M1292 8468 c-22 -46 -44 -95 -50 -110 -10 -23 -18 -28 -46 -28 -19 0
-47 5 -62 10 -15 6 -31 7 -35 3 -18 -18 11 -35 68 -40 l59 -5 -9 -53 c-13 -71
-2 -123 28 -137 29 -13 55 -5 55 17 0 12 -6 15 -19 10 -37 -12 -49 36 -30 123
10 47 12 50 47 56 45 7 67 20 58 34 -4 6 -20 7 -43 2 -21 -5 -39 -8 -40 -6 -7
6 29 92 57 138 34 54 37 68 15 68 -8 0 -31 -34 -53 -82z"/>
<path d="M1467 8543 c-4 -3 -7 -25 -7 -48 0 -41 -23 -118 -74 -244 -52 -129
-26 -146 61 -40 53 65 58 68 61 45 2 -14 -1 -33 -6 -42 -12 -21 -4 -54 13 -54
20 0 34 96 19 134 -11 29 -42 17 -87 -35 l-46 -52 43 114 c45 119 65 229 42
229 -7 0 -16 -3 -19 -7z"/>
<path d="M1933 8513 c-2 -10 -16 -49 -31 -88 -26 -67 -28 -69 -72 -80 -28 -7
-45 -17 -45 -25 0 -16 16 -18 54 -5 27 8 27 9 -3 -95 -20 -69 -20 -90 -1 -90
8 0 15 5 15 12 0 29 44 170 57 184 8 7 29 14 46 14 18 0 38 4 46 9 24 16 2 29
-39 24 -24 -3 -40 -2 -40 4 0 6 11 40 24 76 14 35 22 67 19 71 -12 11 -25 6
-30 -11z"/>
<path d="M9319 8449 l-33 -81 -65 4 c-41 2 -66 -1 -68 -8 -5 -14 29 -24 80
-24 41 0 42 -2 25 -33 -38 -71 -26 -149 27 -174 18 -9 41 -13 51 -9 20 8 9 23
-21 28 -46 7 -59 73 -29 148 l16 40 82 0 c79 0 119 11 102 27 -4 4 -43 7 -87
6 -43 -2 -79 -1 -79 1 0 2 14 34 30 71 34 75 36 85 16 85 -8 0 -28 -35 -47
-81z"/>
<path d="M2946 8452 c-3 -6 -11 -34 -16 -63 -6 -29 -15 -69 -20 -91 l-11 -38
-85 0 c-76 0 -85 -2 -82 -17 3 -16 14 -18 80 -15 l76 2 -25 -60 c-24 -59 -27
-97 -9 -93 5 1 21 35 36 75 23 64 30 73 53 76 32 4 37 32 6 32 -16 0 -20 4
-14 18 18 46 36 165 27 174 -6 6 -12 6 -16 0z"/>
<path d="M3056 8422 c7 -47 -15 -130 -56 -213 -26 -51 -29 -69 -10 -69 4 0 21
21 40 46 44 61 97 114 115 114 21 0 18 -28 -10 -99 -24 -58 -25 -81 -5 -81 14
0 62 145 58 176 -2 24 -8 30 -32 32 -18 2 -40 -4 -58 -18 l-29 -21 8 28 c4 15
8 53 8 83 0 44 -3 55 -18 58 -15 3 -17 -2 -11 -36z"/>
<path d="M10850 8435 c0 -36 -18 -75 -89 -194 -79 -132 -70 -151 26 -57 78 77
110 85 104 26 -1 -19 -12 -47 -22 -61 -23 -32 -25 -59 -4 -59 8 0 15 5 15 11
0 6 8 23 19 37 46 67 29 159 -27 146 -15 -4 -31 -11 -36 -15 -26 -24 -23 -3 9
57 37 70 47 134 20 134 -9 0 -15 -9 -15 -25z"/>
<path d="M4794 8426 c-7 -20 2 -46 16 -46 13 0 13 47 0 55 -6 3 -13 -1 -16 -9z"/>
<path d="M12787 8433 c-10 -9 12 -43 28 -43 8 0 15 7 15 15 0 16 -34 38 -43
28z"/>
<path d="M8910 8385 c0 -15 26 -32 36 -23 2 3 2 13 -2 22 -8 20 -34 21 -34 1z"/>
<path d="M3298 8317 c-111 -83 -107 -220 6 -201 23 3 50 11 60 16 32 17 -4 29
-47 16 -45 -14 -67 1 -67 43 0 23 5 29 21 29 44 0 109 51 109 85 0 21 -17 45
-31 45 -4 0 -27 -15 -51 -33z m52 -17 c0 -11 -59 -50 -75 -50 -11 1 56 59 68
60 4 0 7 -5 7 -10z"/>
<path d="M4935 8338 c-38 -21 -65 -52 -65 -74 0 -13 14 -39 30 -58 29 -32 30
-36 13 -44 -33 -18 -83 -24 -97 -13 -10 8 -16 8 -25 -3 -18 -22 22 -40 71 -32
97 16 123 57 68 109 -16 16 -30 35 -30 43 0 15 40 44 67 48 22 3 24 30 3 33
-8 2 -24 -2 -35 -9z"/>
<path d="M10475 8336 c-75 -24 -84 -28 -89 -42 -8 -21 13 -27 38 -11 13 9 41
18 62 22 l39 7 -57 -56 c-32 -31 -58 -60 -58 -65 0 -19 18 -21 54 -6 45 19 46
19 46 -4 0 -11 6 -22 13 -24 10 -4 10 -6 0 -6 -32 -2 -5 -61 27 -61 31 0 108
92 130 154 11 33 18 61 15 64 -13 13 -34 -12 -44 -53 -11 -44 -80 -135 -103
-135 -6 0 -8 25 -6 58 3 57 3 57 -25 56 l-27 0 35 36 c38 39 44 64 19 74 -19
7 -19 7 -69 -8z"/>
<path d="M3519 8313 c-35 -29 -79 -114 -79 -151 0 -39 20 -20 45 43 31 75 66
109 106 100 22 -5 29 -3 29 8 0 16 -20 27 -50 27 -10 0 -33 -12 -51 -27z"/>
<path d="M3731 8302 c-41 -43 -67 -108 -56 -141 4 -12 18 -26 32 -32 42 -16
157 11 136 32 -5 5 -29 5 -58 0 -49 -9 -85 -1 -85 19 0 33 21 58 55 63 20 3
43 11 51 18 28 23 11 79 -25 79 -8 0 -30 -17 -50 -38z m59 -12 c0 -5 -4 -10
-9 -10 -5 0 -18 -3 -28 -6 -16 -5 -16 -4 1 10 23 18 36 20 36 6z"/>
<path d="M8495 8324 c-52 -27 -92 -62 -122 -108 -42 -63 -139 -324 -125 -338
13 -13 68 60 118 159 31 60 45 76 78 93 58 28 142 104 155 140 9 26 7 34 -9
50 -24 24 -55 25 -95 4z m73 -38 c4 -20 -73 -98 -121 -123 -28 -14 -29 -14
-22 6 3 12 7 35 7 52 1 26 9 35 52 60 56 32 79 33 84 5z m-198 -173 c-1 -5
-10 -24 -21 -43 -11 -19 -18 -27 -15 -17 4 11 9 30 12 43 6 22 25 35 24 17z"/>
<path d="M13432 8319 c-63 -25 -80 -54 -58 -98 8 -15 22 -33 30 -40 40 -33 -7
-67 -79 -57 -22 3 -34 3 -27 0 6 -3 12 -12 12 -19 0 -35 96 -18 133 23 21 23
12 55 -22 86 -11 11 -21 27 -21 37 0 21 42 46 86 52 30 4 41 30 14 34 -8 1
-39 -7 -68 -18z"/>
<path d="M5685 8314 c-34 -17 -92 -70 -107 -97 -7 -14 -5 -24 8 -38 22 -24 48
-24 89 1 32 20 33 20 28 1 -6 -23 29 -61 57 -61 27 0 25 14 -4 34 -21 13 -23
20 -16 45 4 15 15 40 25 54 17 26 14 47 -7 47 -6 0 -19 7 -28 15 -14 13 -19
12 -45 -1z m38 -39 c9 -23 -92 -99 -109 -82 -11 10 25 56 59 77 38 24 43 24
50 5z"/>
<path d="M6926 8318 c-2 -7 -13 -44 -25 -81 -12 -38 -19 -73 -15 -78 9 -15 31
7 39 39 3 15 13 37 21 50 13 19 21 22 49 16 22 -4 35 -2 35 5 0 14 -33 31 -59
31 -12 0 -21 7 -21 15 0 18 -19 20 -24 3z"/>
<path d="M11305 8319 c-75 -22 -176 -174 -115 -174 9 0 21 18 28 42 22 69 80
110 145 104 20 -3 22 10 5 27 -14 14 -21 14 -63 1z"/>
<path d="M12939 8313 c-18 -8 -42 -22 -52 -31 -18 -16 -19 -16 -16 2 7 37 -20
27 -42 -16 -12 -24 -37 -64 -55 -91 -19 -26 -34 -52 -34 -57 0 -23 24 -6 90
63 68 73 132 118 146 104 4 -4 -11 -43 -34 -87 -45 -85 -49 -100 -29 -100 12
0 94 151 98 180 5 44 -20 55 -72 33z"/>
<path d="M11060 8297 c-77 -48 -125 -121 -103 -156 12 -20 113 -27 143 -11 34
18 13 28 -49 23 -62 -6 -80 4 -63 33 6 10 26 19 48 21 80 7 114 35 97 79 -6
18 -22 34 -33 34 -3 0 -21 -10 -40 -23z m44 -25 c8 -13 -27 -38 -48 -34 -18 4
-18 5 5 23 27 21 35 23 43 11z"/>
<path d="M1656 8295 c-36 -37 -66 -83 -66 -104 0 -27 24 -37 55 -23 20 9 25 8
30 -8 10 -32 31 -23 43 19 7 21 12 46 12 55 0 20 -24 21 -41 0 -16 -19 -69
-47 -69 -37 0 16 62 83 77 83 19 0 11 24 -9 28 -9 2 -23 -4 -32 -13z"/>
<path d="M4740 8292 c0 -20 -35 -88 -55 -109 -8 -7 -12 -20 -9 -28 8 -20 44
-19 44 0 0 9 11 37 25 63 28 53 33 92 10 92 -8 0 -15 -8 -15 -18z"/>
<path d="M6483 8288 c-41 -30 -83 -95 -83 -129 0 -59 75 -96 143 -70 38 15 24
35 -19 27 -47 -9 -83 2 -90 29 -12 48 67 142 111 131 26 -7 36 0 28 20 -8 21
-54 17 -90 -8z"/>
<path d="M7076 8234 c-64 -103 -55 -130 17 -53 54 58 104 96 113 86 4 -3 -8
-32 -25 -63 -31 -57 -40 -104 -21 -104 6 0 13 8 17 18 3 9 22 49 42 89 34 69
35 73 18 90 -17 17 -19 17 -58 -4 -33 -18 -39 -19 -37 -6 7 41 -23 16 -66 -53z"/>
<path d="M13123 8282 c-78 -65 -103 -135 -65 -181 13 -16 29 -22 64 -23 51 -1
86 18 68 36 -7 7 -14 4 -25 -10 -8 -10 -15 -14 -15 -6 0 6 -12 12 -28 12 -31
0 -52 16 -52 40 0 11 16 21 47 31 60 18 91 57 77 96 -13 37 -32 38 -71 5z m47
-22 c0 -15 -38 -50 -55 -50 -21 0 -19 7 11 35 28 26 44 32 44 15z"/>
<path d="M6711 8258 c-45 -61 -54 -129 -20 -151 24 -15 69 1 107 39 30 30 33
38 27 70 -11 63 -26 84 -56 84 -20 0 -35 -10 -58 -42z m77 -20 c5 -18 6 -42 2
-53 -8 -22 -75 -64 -86 -53 -11 12 6 78 27 99 10 10 19 24 19 29 0 25 30 7 38
-22z"/>
<path d="M7392 8275 c-17 -14 -36 -24 -44 -23 -7 2 -13 -5 -13 -14 0 -9 -4
-20 -8 -24 -10 -10 -9 -46 2 -63 10 -16 61 -23 104 -15 40 8 33 26 -10 23 -80
-6 -98 41 -25 61 45 12 65 31 60 57 -5 27 -32 27 -66 -2z"/>
<path d="M7610 8264 c-51 -46 -87 -111 -70 -128 9 -8 16 -5 31 14 11 14 27 33
35 43 7 9 14 24 14 32 0 8 11 22 25 31 25 16 27 16 50 -6 31 -29 45 -18 24 18
-23 42 -60 40 -109 -4z"/>
<path d="M8973 8264 c-31 -16 -103 -102 -103 -124 0 -23 28 -5 63 41 62 81 93
81 58 0 -24 -56 -26 -71 -11 -71 15 0 60 99 60 131 0 15 -7 29 -16 33 -19 7
-13 9 -51 -10z"/>
<path d="M11398 8250 c-64 -42 -82 -65 -74 -93 3 -14 14 -28 23 -32 33 -14
128 -31 151 -27 43 7 16 27 -46 34 -33 4 -70 12 -81 18 -23 12 -29 32 -8 29
21 -4 88 19 108 37 11 9 19 28 19 41 0 33 -35 30 -92 -7z m52 -20 c0 -5 -10
-10 -22 -10 -19 0 -20 2 -8 10 19 13 30 13 30 0z"/>
<path d="M8663 8248 c-46 -33 -69 -78 -54 -106 19 -36 76 -27 129 21 26 24 28
54 6 85 -19 28 -41 28 -81 0z m62 -43 c0 -23 -59 -59 -81 -51 -15 6 -15 9 -2
29 16 24 57 49 73 44 6 -2 10 -12 10 -22z"/>
<path d="M8832 8214 c-16 -33 -27 -64 -25 -71 5 -13 33 -6 33 9 0 5 9 30 21
55 14 30 17 49 11 55 -7 7 -20 -9 -40 -48z"/>
<path d="M12673 8230 c-26 -44 -29 -70 -10 -70 12 0 57 79 57 100 0 23 -27 7
-47 -30z"/>
<path d="M5927 8109 c-8 -13 -29 -63 -47 -111 l-33 -88 -52 0 c-32 0 -57 -5
-64 -13 -16 -20 -6 -25 49 -19 28 2 50 0 50 -5 0 -5 -16 -47 -35 -93 -36 -89
-43 -124 -23 -118 7 3 31 54 55 115 l43 110 56 -9 c30 -5 59 -6 65 -3 19 13 7
23 -33 30 -81 12 -78 8 -51 82 13 37 31 79 41 95 12 20 13 31 5 39 -8 8 -15 5
-26 -12z"/>
<path d="M6892 8039 c-13 -10 -22 -24 -19 -31 5 -14 -39 -109 -57 -121 -6 -4
-32 -5 -57 -2 -25 3 -48 2 -52 -1 -15 -16 18 -34 60 -34 39 0 44 -2 38 -17
-37 -93 -55 -148 -55 -173 0 -45 26 -38 32 8 3 20 19 71 35 112 34 83 39 87
147 92 39 2 61 8 64 17 3 10 -12 12 -80 10 l-85 -4 35 72 c39 78 36 107 -6 72z"/>
<path d="M3289 7923 l-44 -108 -49 -5 c-67 -7 -78 -34 -12 -29 25 2 46 0 46
-4 0 -19 -24 -103 -32 -114 -11 -14 -2 -33 16 -33 8 0 21 30 32 76 18 73 20
77 49 80 95 10 116 17 98 35 -7 7 -25 6 -58 -1 -26 -6 -50 -9 -52 -7 -2 3 14
48 36 102 45 107 47 115 28 115 -7 0 -33 -48 -58 -107z"/>
<path d="M3572 7994 c4 -21 22 -23 26 -1 2 10 -3 17 -13 17 -10 0 -15 -6 -13
-16z"/>
<path d="M6482 7978 c2 -12 10 -23 18 -23 22 0 19 39 -3 43 -15 3 -18 -1 -15
-20z"/>
<path d="M1564 7934 c-19 -19 -34 -40 -34 -45 0 -5 -6 -9 -14 -9 -19 0 -63
-187 -48 -202 13 -13 10 -19 47 91 31 92 69 158 96 166 11 4 30 0 44 -9 30
-20 35 -20 35 -2 0 20 -39 46 -69 46 -14 0 -37 -14 -57 -36z"/>
<path d="M2194 7898 c-39 -42 -103 -153 -111 -190 -11 -54 16 -28 66 66 54 98
75 125 86 106 11 -18 25 -11 25 14 0 19 -16 36 -34 36 -1 0 -16 -15 -32 -32z"/>
<path d="M2588 7904 c-33 -18 -38 -63 -11 -118 16 -34 16 -37 -2 -56 -19 -21
-71 -28 -77 -10 -2 6 -9 6 -17 0 -12 -7 -12 -11 -2 -24 19 -22 77 -20 112 5
33 23 37 54 13 100 -23 45 -15 72 24 84 18 5 31 14 29 20 -6 16 -39 16 -69 -1z"/>
<path d="M1712 7883 c-90 -129 -57 -221 61 -169 18 7 45 19 61 25 20 8 26 15
19 22 -8 8 -29 4 -72 -11 -68 -25 -91 -22 -91 14 0 20 9 30 38 45 51 26 66 45
58 76 -9 35 -48 34 -74 -2z m43 -22 c-3 -6 -11 -11 -17 -11 -6 0 -6 6 2 15 14
17 26 13 15 -4z"/>
<path d="M1902 7833 c-12 -43 -40 -130 -60 -193 -21 -64 -37 -121 -34 -128 8
-26 29 -10 41 31 25 85 46 127 64 127 24 0 103 75 133 126 31 53 30 107 -2
112 -22 3 -75 -40 -106 -88 -16 -24 -16 -22 -2 24 17 60 17 66 1 66 -7 0 -22
-33 -35 -77z m138 27 c0 -30 -89 -150 -111 -150 -5 0 -8 11 -7 25 1 14 6 25
10 25 4 0 14 12 22 28 16 31 64 82 77 82 5 0 9 -5 9 -10z"/>
<path d="M4898 7852 c-48 -49 -58 -64 -58 -94 0 -49 33 -78 94 -80 32 -2 50 2
56 12 14 22 12 40 -5 40 -8 0 -15 -4 -15 -10 0 -14 -74 -12 -88 2 -25 25 -13
61 38 110 50 48 76 58 98 36 8 -8 15 -9 23 -1 16 16 -17 43 -53 43 -25 0 -44
-12 -90 -58z"/>
<path d="M8629 7896 c-95 -33 -149 -87 -133 -133 15 -44 67 -67 148 -68 92 0
102 18 15 26 -113 9 -155 38 -125 84 19 28 101 67 134 63 30 -4 41 17 15 30
-12 7 -30 6 -54 -2z"/>
<path d="M2330 7842 c-97 -100 -66 -196 50 -159 48 16 35 32 -25 32 -69 0 -68
25 5 73 46 31 55 42 55 67 0 49 -30 44 -85 -13z m55 -2 c-3 -5 -12 -10 -18
-10 -7 0 -6 4 3 10 19 12 23 12 15 0z"/>
<path d="M5597 7873 c-47 -19 -54 -46 -32 -113 13 -40 14 -54 5 -65 -17 -21
-37 -19 -43 5 -8 30 -29 24 -25 -6 4 -34 27 -49 62 -40 42 10 53 46 33 110 -9
29 -17 56 -17 59 0 12 58 37 85 37 16 0 25 6 25 15 0 20 -43 19 -93 -2z"/>
<path d="M7105 7875 c-22 -8 -41 -15 -41 -15 -1 0 -5 -7 -8 -16 -6 -16 13 -54
41 -82 20 -21 15 -42 -13 -52 -39 -15 -84 -13 -84 5 0 8 -7 15 -15 15 -18 0
-20 -31 -3 -48 16 -16 81 -15 123 2 29 12 35 20 35 45 0 17 -11 42 -25 59 -32
38 -32 50 3 58 15 3 33 7 40 10 6 2 12 -1 12 -6 0 -6 7 -10 15 -10 20 0 19 36
-1 44 -22 8 -33 7 -79 -9z"/>
<path d="M9426 7874 c-19 -18 -15 -57 11 -108 13 -25 13 -30 0 -44 -21 -20
-50 -8 -42 17 7 24 -9 35 -25 16 -18 -22 -8 -58 21 -74 24 -13 29 -13 58 8 32
23 39 48 20 83 -6 11 -15 34 -20 50 -11 40 16 51 42 17 22 -29 36 -18 23 19
-12 33 -62 43 -88 16z"/>
<path d="M8849 7859 c-25 -25 -59 -102 -59 -135 0 -44 25 -24 43 35 25 78 44
95 96 86 44 -7 56 6 22 25 -32 17 -79 12 -102 -11z"/>
<path d="M3598 7814 c-69 -61 -87 -87 -88 -122 0 -33 21 -23 41 18 26 54 121
142 136 126 3 -3 1 -38 -6 -77 -8 -52 -9 -75 -1 -83 8 -8 13 -7 19 3 12 19 24
147 16 171 -11 36 -50 24 -117 -36z"/>
<path d="M5073 7824 c-45 -44 -53 -72 -27 -98 32 -32 130 -11 154 33 15 28 12
63 -6 89 -25 35 -70 27 -121 -24z m102 -4 c9 -30 -2 -55 -31 -68 -31 -15 -71
-15 -79 -2 -9 14 21 60 43 66 9 3 24 9 32 14 23 13 28 12 35 -10z"/>
<path d="M5350 7840 c-37 -31 -52 -37 -47 -19 5 27 -23 18 -38 -12 -16 -30
-16 -31 0 -26 9 4 14 3 10 -3 -3 -6 -12 -10 -18 -10 -17 0 -60 -67 -52 -80 4
-6 31 12 68 46 64 58 117 99 117 91 0 -3 -11 -29 -25 -59 -26 -56 -33 -112
-13 -106 6 2 12 13 14 23 2 10 17 50 34 87 26 55 30 72 20 83 -18 22 -31 19
-70 -15z"/>
<path d="M9282 7860 c-30 -13 -38 -36 -23 -76 16 -46 7 -74 -26 -74 -17 0 -27
7 -30 20 -4 16 -8 18 -19 9 -18 -15 -18 -24 2 -43 21 -21 77 -20 96 2 24 27
26 44 11 81 -16 42 -4 63 27 43 24 -15 35 1 18 28 -14 22 -22 23 -56 10z"/>
<path d="M6060 7845 c-7 -8 -18 -15 -24 -16 -12 0 -77 -125 -76 -146 0 -27 26
-11 44 27 11 22 35 58 53 80 29 34 38 38 63 33 34 -6 37 -1 14 21 -20 20 -58
21 -74 1z"/>
<path d="M6544 7815 c-50 -51 -78 -100 -70 -121 6 -17 26 -19 26 -2 0 33 100
151 115 136 2 -2 -7 -28 -20 -58 -27 -61 -31 -94 -13 -88 18 6 70 136 63 159
-11 34 -54 24 -101 -26z"/>
<path d="M2729 7816 c-13 -19 -32 -37 -43 -40 -15 -4 -17 -8 -8 -18 7 -9 8
-19 2 -28 -15 -23 -12 -76 5 -90 19 -16 65 -5 65 16 0 12 -6 15 -21 11 -48
-13 -29 64 24 98 24 16 32 28 32 50 0 43 -27 43 -56 1z"/>
<path d="M6406 7783 c-11 -38 -21 -74 -24 -82 -3 -8 1 -12 13 -10 11 3 24 24
36 64 22 71 24 95 6 95 -7 0 -21 -30 -31 -67z"/>
<path d="M9026 7831 c-91 -60 -65 -151 38 -136 44 7 67 23 79 57 7 20 -28 68
-50 68 -9 0 -21 7 -27 15 -10 13 -15 13 -40 -4z m82 -68 c3 -18 -4 -24 -35
-32 -51 -14 -60 -14 -67 4 -13 35 12 55 69 52 23 -2 31 -7 33 -24z"/>
<path d="M3833 7820 c-41 -25 -65 -71 -61 -118 3 -32 7 -37 29 -40 15 -2 44 4
64 13 l38 15 -7 -67 c-11 -109 -11 -108 -75 -126 -66 -19 -92 -42 -101 -95
-17 -97 43 -125 111 -51 21 23 46 61 56 86 17 41 20 44 48 39 17 -4 38 -16 47
-27 11 -13 24 -19 34 -15 28 11 -7 49 -60 65 -35 11 -45 19 -41 30 3 8 8 51
11 96 3 44 12 95 21 113 17 38 14 77 -6 77 -16 0 -27 -18 -36 -58 -6 -29 -56
-67 -87 -67 -44 0 -6 88 49 114 19 9 31 21 28 26 -9 15 -26 12 -62 -10z m18
-387 c-24 -47 -67 -93 -86 -93 -11 0 -15 12 -15 40 0 46 24 76 67 86 16 3 33
7 38 9 17 4 17 -2 -4 -42z"/>
<path d="M2946 7809 c-15 -11 -33 -19 -40 -16 -25 10 -83 -80 -71 -110 4 -12
22 0 76 52 38 37 72 65 75 62 3 -3 -4 -24 -16 -47 -25 -50 -24 -103 3 -108 16
-3 18 1 13 25 -5 21 1 45 19 84 13 30 25 60 25 67 0 20 -55 14 -84 -9z"/>
<path d="M3446 7783 c-38 -48 -47 -83 -21 -83 8 0 15 6 15 13 0 7 16 32 35 54
19 23 35 46 35 52 0 25 -30 8 -64 -36z"/>
<path d="M6186 7783 c-41 -43 -42 -46 -20 -64 15 -13 21 -12 86 16 14 6 16 1
11 -34 -5 -35 -3 -41 13 -41 16 0 19 9 22 60 2 66 -7 74 -58 45 -35 -20 -46
-18 -26 4 10 11 27 21 39 23 34 5 33 28 -2 28 -21 0 -39 -10 -65 -37z"/>
<path d="M9607 7704 c-14 -14 -7 -35 11 -32 9 2 17 10 17 17 0 16 -18 25 -28
15z"/>
<path d="M2662 7320 c-52 -37 -102 -105 -102 -137 0 -35 14 -56 77 -115 112
-106 132 -153 94 -226 -41 -78 -152 -115 -218 -73 -37 23 -43 54 -16 83 9 10
13 21 10 24 -10 11 -35 -4 -52 -30 -47 -71 84 -151 188 -117 78 26 137 101
137 175 0 52 -30 96 -128 190 -71 68 -75 85 -33 143 51 70 131 104 161 68 10
-12 9 -15 -8 -15 -16 0 -20 -7 -21 -32 -1 -18 -3 -46 -4 -62 -3 -45 18 -42 53
9 26 38 31 53 26 80 -13 70 -93 87 -164 35z m135 -62 c-3 -8 -6 -5 -6 6 -1 11
2 17 5 13 3 -3 4 -12 1 -19z"/>
<path d="M7185 7298 c-3 -7 -22 -65 -43 -128 -59 -175 -60 -177 -130 -185 -31
-3 -64 -5 -72 -3 -8 2 -15 -4 -15 -12 0 -12 13 -15 66 -14 l67 2 -34 -74 c-36
-79 -46 -125 -28 -131 7 -2 19 19 29 49 9 29 29 78 43 108 23 45 32 55 60 61
39 8 57 23 48 38 -5 8 -13 8 -26 1 -25 -13 -43 -13 -34 2 16 25 102 283 98
290 -8 12 -24 10 -29 -4z"/>
<path d="M14782 7298 c-7 -7 -12 -21 -13 -32 0 -12 -22 -70 -48 -131 -40 -93
-51 -110 -69 -109 -22 1 -27 -23 -9 -37 4 -3 -6 -34 -22 -70 -17 -35 -33 -77
-37 -92 -6 -25 -4 -28 12 -25 10 2 20 12 22 23 1 11 17 50 34 88 31 65 33 67
70 67 27 0 38 4 38 15 0 10 -10 15 -30 15 l-29 0 45 108 c61 141 70 170 58
182 -7 7 -14 6 -22 -2z"/>
<path d="M7306 7248 c-10 -45 -76 -232 -117 -334 -52 -129 -56 -144 -36 -144
6 0 25 28 41 61 28 58 69 100 83 85 4 -4 -1 -28 -11 -54 -11 -26 -21 -63 -23
-83 -6 -44 14 -62 22 -22 4 15 15 50 26 77 33 84 19 137 -32 121 -19 -6 -21
-4 -14 11 34 86 95 276 90 284 -9 14 -25 12 -29 -2z"/>
<path d="M11152 7233 c-10 -4 -10 -8 -1 -19 8 -10 0 -37 -39 -118 l-50 -105
-59 -3 c-44 -2 -58 -7 -58 -18 0 -12 10 -14 46 -12 l46 4 -38 -77 c-41 -81
-47 -105 -26 -105 6 1 32 41 55 90 l44 90 41 0 c51 0 87 9 87 22 0 5 -4 6 -10
3 -5 -3 -10 -1 -10 5 0 6 -14 8 -40 4 -22 -4 -40 -4 -40 -2 0 3 20 48 45 101
57 122 59 161 7 140z"/>
<path d="M14895 7218 c-2 -7 -9 -31 -16 -53 -15 -52 -71 -163 -121 -242 -60
-95 -44 -109 39 -34 92 83 113 81 73 -8 -23 -50 -25 -71 -7 -71 11 0 46 77 61
135 14 51 -43 58 -93 12 -13 -12 -22 -17 -19 -12 2 6 25 53 51 106 26 53 47
103 47 111 0 8 5 19 11 25 13 13 5 43 -11 43 -6 0 -12 -6 -15 -12z"/>
<path d="M5916 7201 c-3 -5 -4 -15 -1 -23 3 -8 -20 -81 -51 -163 -56 -149 -71
-224 -46 -232 7 -3 12 5 12 20 0 38 80 107 124 107 19 0 37 -3 39 -8 3 -4 -5
-33 -18 -64 -15 -36 -20 -60 -13 -64 11 -7 28 7 32 27 2 8 11 31 20 52 21 48
13 75 -25 85 l-31 7 96 93 c52 50 91 94 85 97 -14 9 -30 -3 -126 -95 -123
-117 -168 -156 -161 -139 60 146 98 258 96 277 -3 27 -22 40 -32 23z"/>
<path d="M3814 7153 c-3 -16 -25 -99 -50 -186 -43 -155 -53 -220 -35 -232 13
-8 26 16 23 42 -2 12 17 93 42 180 59 207 62 223 42 223 -9 0 -18 -12 -22 -27z"/>
<path d="M12580 7137 c0 -52 -23 -134 -57 -200 -43 -86 -158 -182 -137 -114
12 40 52 113 79 146 24 28 25 32 10 38 -22 8 -44 -20 -90 -116 -44 -90 -43
-115 4 -119 29 -3 40 3 87 51 29 31 64 78 79 106 49 98 74 251 40 251 -11 0
-15 -11 -15 -43z"/>
<path d="M13640 7058 c-23 -62 -53 -135 -65 -163 -55 -122 -66 -165 -42 -165
7 0 21 25 31 56 13 40 25 60 47 73 69 42 160 32 167 -17 2 -13 -8 -41 -22 -63
-26 -39 -32 -59 -18 -59 14 0 28 15 50 51 43 70 20 131 -53 145 l-36 6 100 66
c56 35 101 71 101 78 0 21 -13 17 -71 -22 -29 -19 -90 -59 -135 -88 l-81 -53
49 124 c45 114 50 143 29 143 -4 0 -27 -51 -51 -112z"/>
<path d="M5208 7123 c-1 -43 -3 -52 -10 -73 -29 -79 -51 -147 -51 -157 0 -7
-4 -13 -8 -13 -4 0 -12 -14 -18 -30 -8 -25 -7 -32 5 -37 8 -3 16 -4 18 -2 1 2
22 30 45 62 45 62 68 74 56 30 -11 -43 -11 -92 0 -95 10 -3 24 44 32 109 6 54
-15 66 -58 34 -20 -15 -29 -17 -29 -8 0 7 4 17 10 23 7 7 50 169 50 189 0 3
-9 5 -20 5 -16 0 -20 -7 -22 -37z"/>
<path d="M10780 7112 c0 -10 22 -32 32 -32 4 0 8 9 8 20 0 13 -7 20 -20 20
-11 0 -20 -4 -20 -8z"/>
<path d="M3013 7074 c-8 -21 13 -42 28 -27 13 13 5 43 -11 43 -6 0 -13 -7 -17
-16z"/>
<path d="M10289 7013 c-55 -42 -67 -57 -105 -138 -24 -49 -45 -101 -47 -115
-2 -14 -11 -42 -21 -62 -21 -48 -24 -80 -9 -85 11 -4 76 119 88 169 6 23 11
25 44 21 32 -4 44 1 88 36 91 71 133 144 114 194 -9 23 -16 27 -50 27 -31 0
-52 -10 -102 -47z m121 -9 c0 -15 -9 -41 -19 -58 -26 -41 -101 -103 -136 -112
l-28 -7 5 47 c6 51 26 79 92 127 51 38 86 39 86 3z"/>
<path d="M14572 7024 c4 -24 48 -33 48 -10 0 9 -4 16 -9 16 -5 0 -17 3 -26 6
-13 5 -16 2 -13 -12z"/>
<path d="M15054 6997 c-90 -70 -118 -147 -64 -174 36 -19 165 -13 165 7 0 11
-12 13 -53 11 -79 -4 -114 6 -110 32 2 16 12 23 38 27 64 11 110 57 110 110 0
31 -39 25 -86 -13z m46 -16 c-11 -22 -49 -51 -65 -51 -9 1 63 70 72 70 2 0 -1
-9 -7 -19z"/>
<path d="M13307 7000 c-6 -22 7 -35 23 -25 15 9 12 45 -4 45 -7 0 -16 -9 -19
-20z"/>
<path d="M7663 6990 c-51 -30 -58 -54 -33 -102 l21 -41 -28 -29 c-16 -17 -36
-27 -47 -26 -13 2 -22 -4 -24 -14 -6 -33 52 -22 92 16 39 36 44 61 21 92 -25
33 -18 60 21 79 19 9 33 22 31 28 -6 18 -21 18 -54 -3z"/>
<path d="M13103 6995 c-44 -19 -113 -91 -140 -145 -13 -25 -40 -94 -61 -155
-21 -60 -42 -118 -46 -127 -6 -13 -4 -18 8 -18 10 0 34 36 66 100 41 83 54
100 73 100 26 0 57 19 105 64 70 66 97 141 63 175 -24 24 -26 25 -68 6z m49
-55 c-5 -38 -47 -97 -94 -130 -22 -17 -45 -30 -49 -30 -5 0 1 21 12 46 11 26
17 54 15 63 -6 21 70 83 98 79 16 -2 20 -9 18 -28z"/>
<path d="M4015 6988 c-32 -17 -95 -80 -111 -110 -21 -41 -17 -81 11 -108 21
-20 31 -22 79 -16 64 7 108 25 103 40 -4 12 -5 12 -89 -5 -67 -14 -91 -3 -86
40 2 21 17 33 76 64 57 30 72 43 72 60 0 21 -17 47 -29 47 -4 0 -15 -6 -26
-12z m25 -33 c0 -2 -15 -12 -32 -20 l-33 -16 24 21 c22 19 41 26 41 15z"/>
<path d="M9808 6986 c-10 -7 -22 -24 -27 -37 -10 -24 -10 -24 -10 -1 -2 47
-29 18 -64 -69 -20 -49 -37 -94 -37 -100 0 -16 30 -10 37 9 11 29 89 146 111
166 17 15 24 16 36 7 22 -18 39 -5 26 20 -12 22 -47 25 -72 5z"/>
<path d="M1967 6972 c-31 -34 -12 -91 26 -76 15 5 37 53 37 80 0 20 -44 17
-63 -4z"/>
<path d="M3552 6973 c-18 -9 -37 -25 -43 -35 -8 -15 -13 -17 -24 -8 -10 8 -19
8 -34 0 -24 -12 -28 -40 -7 -40 16 0 9 -33 -40 -176 -13 -39 -24 -83 -24 -98
0 -51 24 -21 50 61 21 68 27 79 41 70 32 -20 68 2 119 71 58 78 71 123 45 152
-22 24 -40 25 -83 3z m62 -29 c3 -9 -1 -31 -10 -50 -17 -36 -91 -124 -104
-124 -4 0 -10 19 -12 42 -3 35 1 49 27 82 27 36 66 65 86 66 4 0 10 -7 13 -16z"/>
<path d="M4925 6966 c-75 -34 -97 -95 -50 -141 19 -20 34 -25 77 -25 67 0 98
9 98 26 0 11 -12 13 -54 8 -93 -11 -134 14 -106 66 13 24 83 59 118 60 13 0
22 6 22 15 0 22 -47 19 -105 -9z"/>
<path d="M7445 6972 c-41 -25 -93 -87 -101 -119 -4 -16 -1 -37 7 -52 12 -21
23 -26 58 -27 47 -1 62 15 40 42 -12 14 -14 14 -26 -2 -11 -15 -17 -16 -31 -8
-32 21 -25 39 21 51 75 21 121 85 85 121 -16 16 -17 15 -53 -6z m35 -30 c0
-14 -33 -40 -65 -51 l-30 -11 37 35 c37 34 58 44 58 27z"/>
<path d="M9138 6970 c-14 -11 -44 -55 -67 -99 -40 -78 -50 -111 -32 -111 14 0
51 50 51 69 0 9 13 39 30 67 20 36 39 55 60 63 17 6 29 15 25 21 -10 16 -40
12 -67 -10z"/>
<path d="M9530 6979 c-86 -34 -133 -157 -75 -195 17 -11 34 -14 57 -9 65 13
98 27 98 41 0 17 0 17 -66 -2 -43 -12 -58 -13 -69 -4 -25 21 -18 49 13 55 49
11 109 43 114 62 7 28 -9 63 -29 62 -10 0 -29 -5 -43 -10z m40 -34 c0 -16 -49
-45 -76 -45 -14 0 -15 2 -3 17 11 12 60 40 77 43 1 0 2 -7 2 -15z"/>
<path d="M10850 6969 c-45 -27 -129 -119 -130 -141 0 -24 27 -23 35 1 7 22
102 121 116 121 5 0 -9 -35 -31 -78 -22 -43 -40 -86 -40 -95 0 -38 22 -11 72
88 45 89 51 107 38 115 -20 13 -20 13 -60 -11z"/>
<path d="M6190 6969 c-64 -26 -78 -72 -32 -111 47 -41 56 -56 42 -73 -7 -8
-27 -15 -46 -15 -18 0 -39 7 -48 15 -19 19 -36 19 -36 1 0 -24 41 -46 85 -46
90 0 112 58 45 121 -22 21 -40 42 -40 47 0 17 68 43 95 36 18 -4 25 -2 25 9 0
26 -44 34 -90 16z"/>
<path d="M10477 6950 c-47 -41 -74 -102 -59 -135 22 -48 70 -45 128 8 29 26
37 42 41 80 4 30 1 52 -7 62 -20 24 -66 18 -103 -15z m77 -43 c-1 -42 -15 -62
-57 -84 -26 -13 -31 -13 -44 0 -13 13 -12 19 6 55 39 77 97 95 95 29z"/>
<path d="M11995 6960 c-63 -41 -108 -135 -74 -155 16 -11 55 3 86 29 l29 24
-4 -34 c-4 -36 14 -48 24 -16 3 9 17 44 30 77 13 33 24 67 24 76 0 25 -78 24
-115 -1z m61 -21 c6 -11 -90 -109 -107 -109 -22 0 -5 36 35 76 45 45 60 52 72
33z"/>
<path d="M12250 6973 c-8 -3 -27 -14 -42 -24 -14 -11 -33 -16 -42 -13 -10 4
-18 -1 -21 -12 -3 -11 -15 -37 -26 -58 -14 -29 -16 -43 -8 -50 8 -8 15 -4 27
14 25 39 97 106 120 112 19 5 17 -2 -19 -73 -36 -73 -42 -99 -20 -99 12 0 91
167 91 191 0 19 -26 24 -60 12z"/>
<path d="M14017 6969 c-106 -25 -122 -61 -57 -124 22 -21 40 -47 40 -57 0 -24
-55 -33 -111 -18 -53 14 -53 14 -57 1 -2 -6 13 -18 34 -27 52 -22 132 -14 155
15 23 28 14 56 -32 100 -22 20 -39 40 -39 44 0 14 71 38 112 39 30 0 38 4 36
17 -4 19 -30 23 -81 10z"/>
<path d="M5410 6943 c-81 -67 -68 -173 21 -173 62 0 80 24 22 28 -47 4 -63 17
-63 54 0 30 46 88 70 88 23 0 4 -35 -27 -50 -18 -8 -33 -21 -33 -27 0 -35 87
8 97 46 14 57 -37 77 -87 34z"/>
<path d="M7808 6933 c-87 -89 -73 -173 27 -173 47 0 115 22 115 38 0 18 -13
21 -34 7 -27 -20 -110 -20 -126 0 -16 19 -3 55 21 55 11 0 36 16 57 34 31 29
35 38 26 53 -19 31 -47 26 -86 -14z m39 -21 c-10 -10 -14 -22 -10 -26 4 -4 -1
-4 -10 0 -17 6 -16 8 4 30 26 28 41 23 16 -4z"/>
<path d="M11265 6947 c-54 -31 -57 -61 -10 -107 19 -18 35 -37 35 -41 0 -13
-76 -20 -104 -9 -33 12 -52 4 -36 -15 25 -30 126 -30 165 -1 15 11 16 16 5 36
-7 13 -25 34 -41 48 -16 13 -29 29 -29 36 0 19 74 49 100 41 18 -6 21 -3 18
12 -5 27 -56 27 -103 0z"/>
<path d="M3139 6923 c-63 -66 -99 -133 -72 -133 14 0 63 54 63 70 0 9 11 27
25 40 28 27 30 22 13 -49 -6 -28 -8 -54 -4 -58 4 -5 32 19 61 52 l54 60 -6
-63 c-5 -56 -4 -62 13 -62 17 0 19 9 21 80 1 72 -1 80 -17 80 -10 0 -33 -15
-51 -32 l-32 -33 5 29 c13 66 -21 74 -73 19z"/>
<path d="M4177 6953 c-4 -3 -1 -13 7 -22 16 -19 31 -81 19 -81 -4 0 -26 -16
-48 -35 -30 -26 -37 -37 -28 -46 9 -9 21 -4 49 21 l37 32 20 -41 c20 -43 58
-64 79 -43 13 13 2 33 -16 26 -17 -6 -34 16 -42 53 -6 29 -2 33 51 68 42 26
55 39 47 47 -8 8 -25 3 -62 -20 -45 -28 -51 -30 -56 -14 -19 59 -37 76 -57 55z"/>
<path d="M8728 6934 c-42 -30 -74 -99 -63 -133 9 -30 48 -53 81 -49 36 4 45
28 11 28 -45 0 -57 10 -57 47 0 51 55 105 99 97 35 -7 43 9 12 26 -29 15 -43
13 -83 -16z"/>
<path d="M2976 6938 c-2 -7 -13 -43 -26 -80 -21 -65 -24 -99 -6 -99 9 0 51
118 58 160 3 25 -19 42 -26 19z"/>
<path d="M5608 6910 c-54 -57 -52 -108 4 -129 32 -12 88 3 88 24 0 9 -14 13
-47 12 -39 -2 -48 1 -51 17 -4 20 53 86 75 86 7 0 13 7 13 15 0 29 -43 15 -82
-25z"/>
<path d="M9345 6939 c-11 -7 -30 -21 -42 -32 -19 -17 -23 -18 -23 -4 0 37 -21
24 -49 -32 -17 -33 -35 -62 -41 -66 -14 -9 -12 -35 3 -35 7 0 39 27 72 61 59
59 111 96 122 85 4 -3 -8 -29 -26 -57 -18 -29 -35 -66 -38 -83 l-6 -31 21 19
c12 11 22 23 22 27 0 4 14 30 31 57 37 59 36 96 -1 99 -14 2 -34 -2 -45 -8z"/>
<path d="M13355 6888 c-60 -59 -72 -100 -37 -131 23 -21 101 -22 128 -2 22 16
19 17 -56 19 -49 1 -55 4 -58 23 -4 25 77 113 104 113 8 0 14 6 12 13 -10 27
-40 16 -93 -35z"/>
<path d="M8949 6907 c-30 -25 -59 -76 -59 -105 0 -59 97 -54 130 7 12 23 -4
82 -28 104 -15 14 -19 13 -43 -6z m39 -62 c4 -31 -18 -55 -50 -55 -25 0 -23
31 3 64 26 33 43 29 47 -9z"/>
<path d="M10662 6869 c-24 -44 -31 -64 -23 -72 13 -13 10 -16 49 54 35 61 39
79 20 79 -7 0 -28 -28 -46 -61z"/>
<path d="M13225 6861 c-19 -40 -33 -76 -30 -81 10 -17 25 -11 34 13 5 12 19
44 31 70 16 34 20 51 12 59 -7 7 -21 -11 -47 -61z"/>
<path d="M15192 6857 c-26 -12 -24 -34 4 -29 26 5 40 20 29 31 -6 5 -19 4 -33
-2z"/>
<path d="M4150 6609 c-11 -44 -39 -125 -61 -180 -43 -107 -46 -147 -8 -113 12
11 38 44 59 74 21 31 46 62 56 70 16 14 17 12 10 -29 -4 -24 -15 -68 -25 -98
-18 -53 -13 -75 13 -54 16 13 49 157 45 191 -6 41 -42 38 -84 -7 l-36 -38 19
46 c18 41 44 130 59 197 4 15 1 22 -10 22 -10 0 -22 -25 -37 -81z"/>
<path d="M4036 6658 c-3 -13 -10 -56 -16 -96 -13 -79 -24 -92 -82 -92 -48 0
-78 -10 -78 -26 0 -10 14 -12 65 -7 36 3 65 3 65 -1 0 -3 -9 -39 -20 -78 -23
-82 -26 -122 -8 -116 6 2 23 49 38 104 19 72 31 100 43 102 18 4 24 38 7 44
-12 4 7 145 21 164 10 13 2 24 -17 24 -8 0 -16 -10 -18 -22z"/>
<path d="M4581 6613 c-24 -125 -28 -133 -66 -133 -24 0 -35 -5 -35 -15 0 -10
10 -15 30 -15 17 0 30 -3 30 -8 0 -4 -9 -39 -20 -77 -24 -84 -24 -85 -5 -85 8
0 18 16 24 38 6 20 16 58 22 84 12 43 15 46 50 52 46 7 56 21 33 47 -23 26
-47 25 -39 -1 4 -14 2 -20 -8 -20 -12 0 -11 12 4 78 23 92 23 112 5 112 -8 0
-18 -21 -25 -57z"/>
<path d="M5964 6643 c-3 -10 -18 -49 -32 -87 -25 -65 -30 -70 -69 -84 -26 -8
-43 -20 -43 -29 0 -15 12 -15 51 1 14 6 14 -2 -4 -69 -11 -41 -17 -78 -14 -81
13 -13 34 17 39 54 3 20 13 54 22 76 l16 39 55 -7 c79 -9 73 22 -6 34 l-36 5
28 70 c16 39 29 76 29 83 0 19 -30 14 -36 -5z"/>
<path d="M6174 6599 c-10 -17 13 -36 27 -22 12 12 4 33 -11 33 -5 0 -12 -5
-16 -11z"/>
<path d="M6650 6585 c0 -10 7 -15 18 -13 21 4 19 22 -2 26 -10 2 -16 -3 -16
-13z"/>
<path d="M8000 6565 c0 -19 41 -36 56 -23 7 5 56 7 110 6 99 -3 99 -3 69 -20
-17 -9 -53 -35 -80 -58 -28 -23 -85 -59 -127 -81 -117 -59 -108 -66 90 -73
162 -7 222 -2 222 19 0 6 -41 10 -103 10 -56 0 -127 1 -157 3 l-55 2 55 32
c30 17 70 44 87 59 37 32 128 92 156 102 10 4 17 13 15 20 -4 9 -49 13 -171
15 -146 2 -167 0 -167 -13z"/>
<path d="M7331 6515 c-39 -33 -39 -53 -1 -90 17 -16 30 -34 30 -41 0 -18 -55
-37 -89 -29 -24 5 -31 3 -31 -8 0 -30 63 -36 110 -12 59 30 60 71 3 114 l-28
21 24 20 c13 11 37 20 53 20 39 0 32 24 -9 28 -21 2 -40 -5 -62 -23z"/>
<path d="M2049 6503 c-40 -34 -59 -79 -59 -141 0 -83 58 -114 154 -82 36 11
63 36 53 46 -3 4 -24 -1 -47 -10 -48 -19 -101 -21 -118 -4 -7 7 -12 28 -12 48
0 34 1 36 35 36 77 0 121 72 69 113 -34 27 -36 26 -75 -6z m66 -37 c0 -22 -54
-49 -73 -37 -9 6 -7 15 9 35 25 32 64 33 64 2z"/>
<path d="M7035 6511 c-64 -40 -104 -106 -85 -141 14 -26 50 -50 75 -50 34 0
95 20 95 32 0 7 -15 9 -45 5 -55 -8 -95 6 -95 32 0 41 9 49 53 44 33 -3 48 1
71 20 24 19 28 29 22 50 -8 33 -46 36 -91 8z m49 -32 c-13 -13 -31 -19 -45
-17 -24 3 -24 4 6 20 44 25 65 23 39 -3z"/>
<path d="M1626 6485 c-82 -76 -69 -205 21 -205 41 0 93 47 93 86 0 31 -58 144
-74 144 -7 0 -25 -11 -40 -25z m64 -67 c11 -18 20 -40 20 -49 0 -24 -38 -59
-65 -59 -48 0 -61 75 -20 115 32 33 41 31 65 -7z"/>
<path d="M6614 6495 c3 -8 1 -15 -3 -15 -11 0 -61 -97 -61 -117 0 -33 28 -7
58 55 36 76 39 92 16 92 -10 0 -14 -6 -10 -15z"/>
<path d="M6795 6503 c-57 -7 -75 -13 -75 -28 0 -11 10 -13 50 -8 28 3 50 3 50
0 0 -3 -29 -26 -65 -52 -94 -67 -88 -113 12 -82 26 9 67 19 91 22 27 4 42 12
42 21 0 15 -44 12 -119 -7 -19 -5 -36 -7 -38 -5 -2 1 33 29 77 60 44 32 80 64
80 72 0 14 -33 16 -105 7z"/>
<path d="M5421 6481 c-35 -13 -49 -25 -68 -60 -27 -52 -29 -78 -7 -109 29 -42
99 -21 149 44 33 43 37 94 9 125 -20 22 -25 22 -83 0z m69 -55 c0 -27 -9 -41
-40 -70 -44 -39 -61 -44 -80 -21 -13 15 -7 46 17 84 12 18 17 21 23 10 7 -10
15 -7 34 14 31 34 46 28 46 -17z"/>
<path d="M5642 6460 c-46 -36 -51 -38 -54 -19 -5 33 -23 16 -23 -23 0 -20 -2
-35 -5 -33 -3 2 -34 -71 -70 -161 l-65 -164 -322 1 c-326 0 -388 -6 -415 -38
-21 -25 6 -37 38 -16 27 17 78 18 1279 16 687 -2 1547 -5 1910 -7 619 -4 916
2 958 19 23 10 16 31 -9 27 -83 -11 -271 -13 -1329 -12 -660 1 -1211 3 -1225
5 -14 1 -211 3 -438 4 -400 1 -412 2 -403 20 6 10 7 21 4 25 -3 3 0 6 7 6 7 0
10 3 7 7 -4 3 0 11 8 17 8 6 25 38 38 71 21 54 27 61 63 73 50 17 109 73 140
135 48 93 -4 119 -94 47z m78 -6 c0 -21 -54 -97 -86 -123 -29 -23 -64 -28 -64
-10 0 24 42 78 87 113 51 40 63 44 63 20z"/>
<path d="M6316 6487 c-11 -8 -27 -12 -37 -10 -11 3 -19 -3 -24 -19 -4 -12 -21
-42 -37 -66 -18 -26 -27 -50 -23 -59 5 -13 12 -9 38 23 18 21 47 55 65 74 l34
35 -7 -29 c-23 -105 -18 -108 63 -39 46 39 53 43 46 22 -5 -13 -8 -36 -9 -51
0 -14 -3 -24 -7 -21 -5 2 -8 -1 -8 -7 0 -28 34 -1 45 35 6 22 19 55 29 73 33
63 -1 69 -67 12 -25 -22 -48 -40 -51 -40 -3 0 -4 17 -3 37 2 42 -15 53 -47 30z"/>
<path d="M1800 6445 c0 -20 -7 -52 -15 -71 -14 -35 -13 -54 5 -54 5 0 23 27
42 60 30 56 53 78 66 65 3 -3 -2 -35 -12 -72 -14 -54 -15 -68 -4 -74 10 -6 18
6 30 49 21 67 23 103 6 120 -17 17 -48 15 -70 -5 -17 -15 -18 -15 -18 0 0 10
-7 17 -15 17 -11 0 -15 -11 -15 -35z"/>
<path d="M4316 6434 c-74 -97 -53 -163 31 -98 l33 25 -12 -25 c-6 -15 -15 -26
-20 -26 -4 0 -8 -7 -8 -15 0 -8 9 -15 20 -15 15 0 26 13 40 46 35 80 19 123
-26 73 -10 -12 -31 -30 -46 -41 -26 -18 -27 -18 -21 -1 13 37 56 93 70 93 19
0 11 24 -9 28 -10 2 -31 -16 -52 -44z"/>
<path d="M6081 6413 c-30 -54 -34 -83 -12 -83 11 0 61 104 61 126 0 29 -20 12
-49 -43z"/>
<path d="M3027 5503 c-4 -3 -7 -27 -7 -52 0 -25 -7 -95 -16 -154 -19 -120 -19
-120 -107 -135 -21 -4 -38 -11 -38 -17 0 -15 44 -18 86 -6 29 8 36 7 32 -3 -3
-8 -9 -34 -12 -60 -4 -25 -11 -48 -15 -51 -12 -7 1 -55 15 -55 7 0 18 37 29
99 l18 99 56 17 c69 21 85 33 54 41 -12 4 -19 10 -16 15 8 14 -13 11 -28 -4
-19 -19 -58 -39 -58 -30 0 4 7 46 15 93 23 133 19 231 -8 203z"/>
<path d="M2569 5488 c-1 -7 -1 -16 -1 -19 3 -30 -31 -313 -43 -361 -17 -64
-48 -132 -64 -143 -6 -3 -18 9 -27 27 -14 25 -19 72 -24 203 -7 163 -18 225
-39 225 -22 0 -50 -84 -66 -200 -11 -74 -37 -173 -56 -211 -18 -35 -12 -68 10
-55 16 10 57 156 82 289 12 65 24 115 27 112 4 -3 9 -81 12 -173 6 -145 9
-173 28 -209 44 -85 102 -37 143 120 20 75 54 370 45 394 -7 17 -26 17 -27 1z"/>
<path d="M7655 5438 c-13 -29 -31 -84 -40 -123 -8 -38 -32 -116 -51 -172 -24
-67 -34 -112 -30 -128 8 -32 26 -32 26 0 0 13 15 66 33 117 19 51 40 122 47
158 7 36 24 89 37 119 25 58 29 81 12 81 -5 0 -21 -24 -34 -52z"/>
<path d="M4016 5448 c-11 -15 -12 -25 -5 -34 6 -8 -5 -61 -37 -170 -25 -88
-51 -174 -56 -192 -12 -44 -7 -87 12 -87 11 0 15 13 16 48 2 54 30 103 58 101
10 -1 28 9 41 22 28 28 36 29 74 9 34 -17 61 -70 76 -149 6 -33 17 -62 24 -64
20 -7 8 101 -17 159 -21 47 -40 68 -85 91 l-28 14 95 70 c53 38 109 76 126 84
31 16 40 40 14 40 -22 0 -166 -100 -303 -211 -19 -16 -36 -27 -37 -26 -2 1 17
70 41 152 24 82 41 153 39 157 -9 15 -33 8 -48 -14z"/>
<path d="M5489 5403 c-109 -282 -159 -447 -140 -466 15 -15 31 7 31 43 0 32 6
52 75 240 63 172 73 210 56 210 -6 0 -16 -12 -22 -27z"/>
<path d="M7348 5373 c-7 -72 -65 -250 -90 -275 -10 -10 -16 -23 -13 -28 4 -6
1 -10 -5 -10 -7 0 -10 -6 -7 -14 3 -7 0 -19 -6 -25 -16 -16 11 -60 41 -68 97
-24 247 137 197 213 -24 38 -78 30 -132 -18 l-21 -20 22 64 c13 34 29 92 36
126 11 54 11 65 -1 73 -10 6 -10 9 -1 9 6 0 12 7 12 15 0 8 -6 15 -14 15 -9 0
-15 -18 -18 -57z m93 -225 c5 -54 -22 -100 -80 -139 -50 -33 -85 -37 -100 -12
-7 13 2 30 46 78 30 33 64 65 76 72 29 16 57 16 58 1z"/>
<path d="M5184 5388 c-44 -11 -85 -16 -111 -13 -34 5 -43 3 -43 -9 0 -8 13
-17 30 -21 17 -4 30 -10 30 -15 0 -5 -11 -45 -25 -89 -24 -75 -28 -81 -53 -81
-35 0 -57 -14 -47 -30 4 -7 19 -10 35 -6 l29 5 -25 -72 c-24 -70 -28 -112 -10
-112 5 0 21 40 36 90 31 100 33 102 127 104 51 1 74 14 57 31 -5 5 -37 5 -74
0 -35 -5 -66 -8 -67 -6 -4 4 49 160 59 173 15 19 141 43 227 43 66 0 81 3 81
15 0 22 -165 18 -256 -7z"/>
<path d="M2693 5231 c-34 -45 -68 -123 -71 -159 -5 -70 56 -123 124 -106 41
10 104 43 104 54 0 14 -22 12 -56 -4 -56 -27 -108 -24 -130 9 -17 26 -11 65
11 65 17 0 103 87 111 112 7 25 -22 58 -51 58 -12 0 -31 -13 -42 -29z m57 -18
c0 -17 -57 -83 -72 -83 -10 0 18 57 40 83 19 22 32 22 32 0z"/>
<path d="M6742 5231 c-22 -17 -48 -43 -57 -59 -12 -20 -23 -28 -36 -25 -15 4
-19 0 -19 -21 0 -17 -5 -26 -16 -26 -12 0 -15 -7 -12 -25 3 -13 1 -22 -3 -19
-5 3 -9 1 -9 -5 0 -5 4 -12 9 -15 5 -3 -14 -61 -41 -128 -63 -154 -70 -176
-56 -184 17 -11 33 18 79 137 40 104 42 107 64 97 20 -9 32 -6 69 16 72 42
123 121 133 206 10 84 -31 104 -105 51z m75 -46 c-8 -57 -39 -117 -79 -155
-59 -57 -114 -50 -90 12 22 60 77 140 112 164 53 37 64 32 57 -21z"/>
<path d="M3731 5205 c-45 -52 -84 -211 -54 -222 13 -5 33 55 33 100 0 35 35
106 57 114 9 4 19 -1 25 -10 12 -23 28 -21 28 2 0 22 -25 51 -45 51 -7 0 -27
-16 -44 -35z"/>
<path d="M7729 5218 c-100 -67 -104 -256 -6 -246 41 4 48 28 8 28 -53 0 -71
66 -23 87 15 7 44 27 65 44 43 35 47 72 11 95 -18 13 -25 12 -55 -8z m51 -32
c0 -12 -67 -66 -83 -66 -13 0 22 58 40 69 25 15 43 13 43 -3z"/>
<path d="M8355 5231 c-11 -5 -28 -18 -38 -29 -22 -24 -17 -47 20 -104 30 -44
27 -68 -10 -86 -40 -19 -77 -8 -77 23 0 16 -6 25 -15 25 -24 0 -19 -56 7 -74
40 -28 111 -14 140 28 15 21 8 62 -16 97 -36 52 -36 71 -2 88 23 11 37 11 58
3 34 -13 50 4 23 25 -21 14 -59 16 -90 4z"/>
<path d="M6966 5187 c-31 -34 -96 -145 -96 -166 0 -6 7 -11 15 -11 8 0 29 28
46 63 40 80 77 121 96 105 22 -18 38 5 18 26 -24 24 -44 20 -79 -17z"/>
<path d="M5957 5204 c-4 -4 -4 -11 -1 -16 11 -18 13 -103 3 -135 -27 -85 -120
-70 -103 16 9 41 -6 40 -69 -6 l-50 -37 38 68 c34 62 36 69 22 83 -14 15 -20
15 -61 -1 -50 -19 -64 -32 -48 -48 7 -7 18 -5 33 6 47 32 51 18 14 -47 -19
-35 -35 -71 -35 -80 0 -27 41 -20 79 13 l34 29 16 -32 c9 -17 28 -38 42 -46
22 -12 29 -12 54 0 52 26 70 62 71 147 1 47 -3 80 -10 84 -14 9 -21 10 -29 2z"/>
<path d="M7125 5199 c-4 -6 -4 -13 -1 -16 3 -3 -6 -14 -20 -25 -28 -22 -64
-88 -64 -116 0 -54 65 -57 110 -5 27 31 31 42 27 74 -3 20 -1 41 4 46 5 5 -3
18 -20 31 -19 14 -32 18 -36 11z m15 -96 c0 -40 -23 -73 -52 -73 -22 0 -23 12
-2 53 35 68 54 75 54 20z"/>
<path d="M7905 5153 c-14 -32 -34 -74 -44 -94 -12 -21 -16 -41 -11 -48 11 -18
21 -10 45 36 11 21 26 45 32 53 7 8 20 24 28 35 15 19 16 18 9 -15 -3 -19 -13
-48 -21 -63 -13 -26 -11 -47 6 -47 5 0 39 31 76 70 38 38 70 68 72 67 1 -2 -5
-31 -13 -66 -19 -72 -13 -111 16 -111 21 0 28 26 8 32 -8 3 -5 27 11 84 35
125 35 124 19 124 -8 0 -46 -28 -83 -62 -38 -35 -66 -55 -62 -45 4 10 10 37
14 59 6 40 5 41 -20 36 -15 -3 -27 -1 -27 3 0 5 -7 9 -16 9 -9 0 -25 -23 -39
-57z m70 17 c3 -5 1 -10 -4 -10 -6 0 -11 5 -11 10 0 6 2 10 4 10 3 0 8 -4 11
-10z"/>
<path d="M1696 5165 c-27 -41 -17 -85 20 -85 11 0 55 84 50 96 -9 23 -52 17
-70 -11z"/>
<path d="M3170 5128 c-22 -51 -37 -116 -32 -140 8 -38 51 -30 105 20 25 24 27
24 27 6 0 -48 43 -57 89 -18 29 24 31 31 31 90 0 50 -3 64 -15 64 -11 0 -15
-13 -15 -53 0 -43 -5 -58 -23 -75 -28 -26 -37 -20 -37 25 0 18 -5 33 -11 33
-7 0 -31 -18 -55 -40 -63 -58 -75 -53 -53 23 5 20 14 37 19 37 13 0 13 57 0
65 -6 4 -19 -13 -30 -37z"/>
<path d="M5528 5139 c-10 -5 -18 -20 -18 -32 0 -13 -5 -28 -11 -34 -16 -16 -1
-71 21 -83 33 -18 79 -11 105 15 14 13 25 30 25 38 0 34 -24 79 -51 92 -33 17
-47 18 -71 4z m70 -41 c32 -41 15 -88 -32 -88 -40 0 -52 25 -33 65 17 36 46
46 65 23z"/>
<path d="M3486 5121 c-23 -25 -33 -96 -16 -116 16 -20 69 -19 98 1 30 21 29
65 -4 103 -30 36 -54 39 -78 12z m69 -53 c8 -23 -11 -48 -37 -48 -24 0 -33 25
-20 55 13 28 48 24 57 -7z"/>
<path d="M8790 5114 c-15 -17 -6 -40 23 -58 22 -14 27 -7 18 33 -8 40 -22 49
-41 25z"/>
</g>
</svg>
