<?xml version="1.0" standalone="no"?>
<!DOCTYPE svg PUBLIC "-//W3C//DTD SVG 20010904//EN"
 "http://www.w3.org/TR/2001/REC-SVG-20010904/DTD/svg10.dtd">
<svg version="1.0" xmlns="http://www.w3.org/2000/svg"
 width="1618.000000pt" height="1214.000000pt" viewBox="0 0 1618.000000 1214.000000"
 preserveAspectRatio="xMidYMid meet">

<g transform="translate(0.000000,1214.000000) scale(0.100000,-0.100000)"
fill="#000000" stroke="none">
<path d="M15046 11983 c-4 -5 -14 -23 -22 -41 -7 -18 -18 -31 -24 -27 -14 9
-87 -51 -105 -86 -20 -39 -19 -83 4 -103 18 -17 18 -18 -1 -76 -17 -48 -18
-63 -8 -75 16 -20 27 -12 28 22 0 15 5 40 11 55 10 26 13 27 60 21 46 -5 52
-3 80 25 23 23 31 40 31 67 0 36 -20 86 -47 117 -14 15 -13 21 6 53 11 20 21
40 21 46 0 11 -24 12 -34 2z m-56 -125 c0 -23 -49 -118 -60 -118 -33 0 -23 65
16 103 29 29 44 34 44 15z m60 -30 c11 -18 20 -45 20 -60 0 -50 -58 -85 -98
-60 -9 7 -5 22 18 68 16 32 30 65 30 72 0 20 9 14 30 -20z"/>
<path d="M14288 11969 c-10 -5 -18 -16 -18 -23 0 -18 -43 -56 -63 -56 -9 0
-17 7 -17 15 0 20 -4 19 -49 -9 -58 -37 -81 -72 -81 -122 0 -34 5 -47 26 -63
23 -18 25 -23 15 -53 -21 -62 -48 -97 -70 -91 -14 4 -21 1 -21 -9 0 -16 31
-48 46 -48 9 0 84 149 84 167 0 5 16 7 36 5 45 -5 110 23 118 52 13 47 6 100
-16 123 l-22 23 32 33 c44 46 44 82 0 56z m-88 -114 c0 -8 -51 -108 -62 -122
-19 -23 -48 4 -48 43 0 45 37 84 80 84 16 0 30 -2 30 -5z m70 -63 c0 -43 -7
-55 -37 -71 -22 -11 -63 -15 -63 -6 0 2 14 34 32 69 27 56 34 63 50 55 12 -7
18 -21 18 -47z"/>
<path d="M13276 11935 c-12 -18 -25 -25 -49 -25 -47 0 -135 -44 -149 -74 -9
-21 -8 -33 7 -66 10 -22 21 -40 25 -40 4 0 -15 -44 -41 -97 -50 -99 -56 -118
-40 -127 9 -6 81 127 81 149 0 6 9 21 18 33 17 22 21 23 59 12 37 -11 45 -10
76 8 63 40 88 154 39 181 -16 9 -15 11 1 28 9 11 17 25 17 31 0 21 -27 13 -44
-13z m-94 -115 c-20 -32 -42 -59 -48 -60 -6 0 -16 12 -23 27 -10 23 -9 29 7
45 14 15 72 42 99 48 1 0 -14 -27 -35 -60z m107 21 c11 -7 11 -14 0 -46 -18
-50 -59 -78 -93 -65 -14 5 -26 12 -26 15 0 3 15 28 33 55 32 49 55 60 86 41z"/>
<path d="M15411 11924 c-35 -45 -20 -114 25 -114 22 0 17 -10 -23 -45 l-38
-33 31 -38 c42 -52 61 -53 109 -5 l39 41 -17 35 c-16 35 -16 37 4 65 24 32 19
63 -8 58 -11 -2 -18 -13 -18 -28 0 -29 -26 -37 -68 -21 -32 12 -34 30 -8 62
17 21 22 22 41 11 17 -10 25 -10 36 -1 22 18 -2 39 -46 39 -30 0 -43 -6 -59
-26z m97 -168 c9 -21 7 -27 -19 -52 l-30 -29 -19 25 c-11 14 -20 27 -20 30 0
6 62 50 71 50 3 0 11 -11 17 -24z"/>
<path d="M13860 11916 c-31 -13 -56 -29 -58 -39 -4 -22 5 -21 56 3 92 45 111
10 31 -57 -28 -24 -57 -43 -65 -43 -17 0 -104 -59 -104 -71 0 -16 49 -10 92
12 31 16 43 18 46 9 3 -7 13 -21 24 -32 16 -16 27 -18 61 -13 81 14 87 45 8
37 -48 -4 -51 -3 -61 24 -11 27 -8 31 39 72 57 49 62 68 28 100 -28 27 -28 27
-97 -2z"/>
<path d="M13432 11898 c1 -13 -11 -57 -26 -99 -29 -81 -31 -114 -6 -114 8 0
14 7 12 14 -2 8 11 55 28 103 18 49 29 95 26 103 -9 24 -36 18 -34 -7z"/>
<path d="M14633 11904 c-18 -8 -33 -18 -33 -23 0 -16 26 -19 51 -5 13 7 39 13
57 14 l33 0 -23 -41 c-12 -22 -51 -65 -85 -96 -61 -53 -78 -83 -49 -83 8 0 28
14 46 30 18 17 33 30 35 30 2 0 6 -16 9 -35 9 -44 42 -67 92 -63 52 4 58 28 7
28 -50 0 -63 10 -73 56 -8 35 -5 43 31 97 21 33 39 65 39 71 0 37 -75 47 -137
20z"/>
<path d="M15244 11889 c-13 -21 -17 -226 -5 -234 18 -10 44 15 31 30 -7 8 -8
47 -4 107 5 64 3 97 -4 102 -6 3 -14 1 -18 -5z"/>
<path d="M13504 11778 c4 -13 8 -32 9 -43 2 -24 35 -33 43 -11 6 17 -31 76
-48 76 -6 0 -8 -9 -4 -22z"/>
<path d="M14398 11713 c-40 -20 -35 -33 12 -33 27 0 40 4 40 14 0 25 -23 33
-52 19z"/>
<path d="M2895 11710 c-3 -5 3 -45 14 -87 11 -43 22 -105 25 -138 6 -72 -15
-201 -36 -222 -14 -13 -18 -13 -42 2 -33 22 -48 48 -40 70 6 15 56 46 71 44
21 -4 33 2 33 16 0 20 -40 19 -84 -2 -45 -21 -63 -62 -46 -102 18 -44 120
-105 120 -73 0 5 8 19 18 30 30 35 44 166 31 302 -6 63 -11 122 -11 130 -2 32
-38 53 -53 30z"/>
<path d="M11601 11676 c-10 -11 -9 -16 4 -23 14 -8 13 -18 -5 -103 -11 -52
-20 -99 -20 -103 0 -4 -15 -5 -34 -2 -22 5 -36 3 -41 -5 -9 -15 12 -30 45 -30
25 0 25 0 19 -72 -6 -74 3 -107 21 -78 5 8 10 38 10 67 0 71 6 83 44 83 55 0
60 -9 41 -78 -10 -34 -14 -69 -11 -78 9 -22 19 -10 40 49 24 63 57 103 80 94
15 -6 17 -18 14 -79 -4 -94 16 -104 31 -14 12 69 4 109 -24 120 -30 11 -64 6
-75 -11 -9 -15 -9 -14 -5 7 7 34 35 222 35 238 0 6 -6 12 -13 12 -19 0 -38
-22 -28 -34 4 -6 1 -54 -8 -106 l-16 -95 -48 3 c-39 3 -47 6 -44 20 18 67 39
202 34 216 -8 20 -31 21 -46 2z"/>
<path d="M10850 11651 c-5 -11 -10 -29 -10 -40 0 -11 -5 -55 -11 -97 -12 -76
-12 -76 -40 -72 -23 4 -29 1 -29 -14 0 -14 8 -18 31 -18 l32 0 -7 -74 c-4 -45
-3 -77 3 -80 15 -10 22 9 28 83 l6 69 43 7 c42 6 58 25 34 40 -5 3 -7 12 -3
20 3 9 -1 15 -8 15 -24 0 -42 -17 -36 -34 4 -11 1 -16 -11 -16 -16 0 -17 7
-10 88 5 48 13 97 18 109 14 35 -12 47 -30 14z"/>
<path d="M9306 11611 c4 -23 -1 -72 -11 -120 -17 -77 -19 -80 -41 -75 -30 8
-34 -22 -4 -31 18 -6 20 -15 20 -91 0 -68 3 -84 15 -84 12 0 15 15 15 73 0 81
5 92 40 100 59 14 100 33 100 47 0 13 1 13 10 0 8 -13 10 -12 10 3 0 22 -2 22
-77 -5 -35 -12 -65 -19 -68 -16 -3 2 2 40 12 84 18 87 12 154 -13 154 -11 0
-13 -9 -8 -39z"/>
<path d="M4977 11619 c-27 -16 -96 -115 -113 -161 -28 -80 -16 -160 32 -217
34 -40 141 -101 176 -101 35 0 17 26 -30 42 -108 39 -162 104 -162 195 1 66
29 124 91 183 28 27 48 54 44 59 -8 13 -15 13 -38 0z"/>
<path d="M5282 11603 c2 -10 9 -17 15 -16 15 3 101 -112 110 -145 9 -37 -12
-125 -39 -164 -39 -56 -71 -88 -89 -88 -27 0 -42 -25 -24 -40 42 -35 133 52
165 160 35 119 23 167 -69 273 -35 39 -75 51 -69 20z"/>
<path d="M9116 11598 c-8 -22 -1 -81 9 -85 18 -6 34 33 26 63 -8 30 -28 43
-35 22z"/>
<path d="M8213 11585 c-18 -20 -16 -25 8 -25 20 0 21 -3 14 -72 -4 -40 -9 -74
-10 -76 -2 -2 -25 -9 -51 -16 -69 -17 -73 -41 -5 -32 l51 7 0 -30 c0 -42 17
-81 35 -81 12 0 14 6 8 28 -4 15 -8 43 -8 62 0 34 1 35 38 33 26 -2 37 2 37
12 0 19 -28 34 -52 27 -18 -4 -18 0 -12 61 4 36 4 77 0 91 -7 29 -33 34 -53
11z"/>
<path d="M8358 11556 c-22 -16 -23 -36 -3 -36 14 0 16 -19 14 -129 0 -71 2
-134 6 -140 11 -18 23 -3 30 38 6 35 36 81 52 81 3 0 21 -18 40 -40 19 -22 41
-40 50 -40 8 0 27 -7 42 -16 24 -14 32 -14 84 1 31 9 57 20 57 25 0 18 -20 20
-61 6 -24 -8 -45 -14 -46 -12 -2 2 10 26 28 54 35 56 35 85 1 90 -37 5 -68
-22 -82 -72 -7 -25 -16 -46 -20 -46 -5 0 -23 18 -40 40 -35 44 -62 50 -93 23
-18 -17 -19 -17 -17 7 5 63 -1 148 -12 163 -11 13 -16 14 -30 3z m285 -165
c-3 -11 -15 -29 -28 -41 l-22 -21 5 26 c2 14 14 32 25 40 27 19 26 19 20 -4z"/>
<path d="M5708 11518 c-16 -5 -28 -14 -28 -19 0 -13 57 -11 66 2 11 18 -9 27
-38 17z"/>
<path d="M6264 11490 c-12 -5 -25 -13 -29 -19 -3 -6 -16 -11 -29 -11 -21 0
-22 -4 -21 -72 2 -103 3 -108 20 -108 14 0 22 54 15 114 -2 21 37 66 58 66 9
0 24 -7 34 -17 17 -15 18 -15 18 10 0 16 -8 30 -19 37 -22 11 -19 11 -47 0z"/>
<path d="M4532 11479 c-36 -7 -78 -41 -88 -71 -3 -10 -14 -18 -25 -18 -10 0
-19 -4 -19 -10 0 -5 4 -10 9 -10 5 0 11 -17 15 -39 3 -23 18 -52 35 -70 28
-29 33 -31 105 -31 61 0 76 3 76 15 0 17 0 16 -85 19 -55 1 -60 3 -82 35 -29
42 -29 51 0 51 33 0 84 35 102 69 29 56 16 73 -43 60z m18 -36 c-1 -23 -65
-71 -78 -59 -8 8 49 66 65 66 7 0 13 -3 13 -7z"/>
<path d="M4126 11461 c-10 -11 -15 -25 -11 -31 4 -6 8 -35 9 -64 5 -96 54
-146 122 -123 59 19 79 56 78 138 -2 71 -15 102 -40 92 -18 -7 -18 -22 2 -62
30 -60 -9 -141 -68 -141 -45 0 -63 38 -61 131 1 44 -1 79 -6 79 -4 0 -16 -9
-25 -19z"/>
<path d="M2306 11440 c-38 -45 -35 -70 8 -70 42 0 58 19 54 62 -4 44 -29 47
-62 8z"/>
<path d="M6429 11454 c-29 -15 -59 -55 -59 -79 0 -23 58 -105 75 -105 19 0 85
40 85 51 0 14 -33 11 -57 -6 -18 -13 -22 -12 -39 6 -18 20 -17 21 19 55 20 20
37 44 37 54 0 29 -30 41 -61 24z m16 -44 c-10 -11 -23 -20 -28 -20 -6 0 -2 9
8 20 10 11 23 20 28 20 6 0 2 -9 -8 -20z"/>
<path d="M6665 11450 c-16 -18 -20 -19 -27 -5 -5 8 -15 15 -22 15 -9 0 -12
-17 -11 -57 3 -98 4 -103 20 -103 9 0 15 9 15 23 1 33 39 112 50 101 5 -5 10
-29 12 -54 5 -68 30 -66 65 4 30 61 42 70 44 31 1 -14 3 -29 4 -35 1 -5 3 -17
4 -25 0 -8 8 -15 16 -15 28 0 9 125 -21 137 -19 7 -49 -20 -65 -59 l-13 -31
-10 44 c-12 50 -33 60 -61 29z"/>
<path d="M6968 11463 c-9 -3 -29 -29 -44 -60 -25 -51 -26 -58 -13 -82 33 -59
150 -23 157 48 5 48 -55 104 -100 94z m50 -49 c32 -22 29 -60 -8 -79 -45 -23
-70 -20 -70 10 0 33 27 85 43 85 7 0 23 -7 35 -16z"/>
<path d="M7276 11459 c-3 -8 -13 -49 -22 -92 -10 -42 -21 -74 -24 -70 -4 5
-15 34 -24 65 -21 69 -40 88 -63 66 -14 -15 -13 -17 5 -27 13 -7 26 -33 37
-76 32 -118 63 -114 94 12 22 87 22 88 53 88 40 0 48 21 11 27 -15 3 -36 9
-45 13 -12 4 -19 2 -22 -6z"/>
<path d="M3902 11445 c-45 -20 -65 -68 -53 -130 11 -56 17 -64 67 -76 75 -17
108 -12 133 21 30 42 17 59 -19 25 -26 -25 -33 -27 -77 -20 -26 4 -54 12 -60
17 -24 19 -14 44 22 57 63 22 96 89 56 111 -25 13 -29 12 -69 -5z m51 -21 c11
-11 -5 -35 -34 -49 -35 -19 -39 -19 -39 -1 0 8 12 24 26 35 28 22 37 25 47 15z"/>
<path d="M3106 11426 c-14 -13 -28 -36 -32 -50 -4 -17 -13 -26 -25 -26 -10 0
-19 -7 -19 -15 0 -8 6 -15 14 -15 7 0 21 -20 31 -45 19 -51 38 -65 87 -65 36
0 138 39 138 52 0 19 -30 18 -69 -1 -54 -28 -96 -27 -115 2 -24 38 -24 62 2
65 12 2 20 7 17 12 -3 4 3 6 13 3 27 -7 54 29 50 69 -3 29 -7 33 -35 36 -24 2
-39 -3 -57 -22z m64 -20 c0 -21 -28 -46 -51 -46 -21 0 -19 10 9 43 18 21 42
22 42 3z"/>
<path d="M3565 11441 c-3 -5 -1 -12 5 -16 5 -3 10 -20 10 -37 0 -36 22 -76 57
-102 20 -15 29 -16 49 -7 37 17 82 93 76 131 -6 42 -38 38 -34 -4 4 -34 -35
-96 -60 -96 -29 0 -58 48 -58 96 0 37 -3 44 -19 44 -11 0 -22 -4 -26 -9z"/>
<path d="M9878 11400 l-48 -50 0 35 c0 40 -19 46 -58 19 -12 -8 -22 -10 -22
-5 0 6 -9 11 -19 11 -17 0 -19 -5 -15 -32 3 -18 -2 -52 -10 -76 -16 -43 -12
-76 7 -69 7 2 14 17 18 33 7 38 33 87 55 104 15 13 16 11 9 -38 -9 -69 9 -69
66 1 23 28 46 56 49 60 4 5 3 -17 -2 -48 -13 -72 -5 -103 28 -111 34 -9 88 8
92 28 4 22 -40 32 -55 12 -7 -10 -19 -14 -29 -10 -13 5 -15 14 -10 49 26 157
20 166 -56 87z"/>
<path d="M10591 11415 c-23 -27 -31 -45 -31 -74 0 -52 21 -69 56 -46 14 9 27
15 29 13 1 -2 8 -13 14 -25 6 -13 18 -23 26 -23 17 0 19 14 6 39 -6 11 -6 34
0 61 6 24 6 46 1 49 -5 3 -11 14 -15 24 -11 29 -52 20 -86 -18z m48 -21 c-5
-15 -7 -29 -4 -32 6 -6 -25 -42 -37 -42 -16 0 -8 48 13 74 26 34 41 34 28 0z"/>
<path d="M7445 11426 c-33 -14 -84 -94 -68 -105 6 -3 14 -21 18 -39 12 -57 91
-79 159 -44 38 18 46 36 20 46 -28 11 -42 6 -47 -15 -5 -19 -11 -21 -43 -16
-42 7 -49 12 -58 44 -6 18 -2 22 26 28 59 12 65 15 76 41 18 38 15 61 -10 68
-31 8 -38 7 -73 -8z m56 -45 c-9 -16 -69 -35 -80 -25 -11 10 36 44 61 44 25 0
27 -2 19 -19z"/>
<path d="M11954 11428 c-42 -20 -57 -94 -29 -147 17 -34 33 -41 89 -41 42 0
76 21 76 48 0 17 -15 15 -30 -3 -20 -24 -89 -16 -107 11 -13 20 -11 23 32 50
49 32 60 65 26 84 -23 12 -29 12 -57 -2z m46 -33 c0 -2 -14 -12 -31 -20 -30
-16 -30 -16 -19 4 9 18 50 31 50 16z"/>
<path d="M3357 11408 c-33 -26 -49 -112 -25 -136 17 -17 38 -15 82 9 l39 21
-7 -89 c-19 -253 -19 -293 -5 -293 8 1 23 15 34 32 11 17 42 43 69 58 47 26
74 55 62 68 -4 3 -20 -4 -36 -16 -16 -12 -32 -22 -36 -22 -4 0 -23 -12 -42
-26 l-34 -27 6 59 c5 48 18 191 29 333 3 40 -18 34 -38 -9 -13 -29 -31 -48
-58 -61 -21 -11 -42 -18 -45 -15 -3 4 -1 23 4 43 7 28 14 37 32 38 28 2 47 19
38 34 -10 15 -48 14 -69 -1z"/>
<path d="M9504 11384 c-19 -19 -34 -40 -34 -46 0 -6 -8 -17 -17 -25 -13 -10
-15 -16 -5 -19 6 -3 12 -13 12 -23 0 -25 28 -61 56 -71 30 -12 118 5 135 26
19 23 4 26 -51 10 -53 -16 -83 -10 -102 18 -18 27 -7 36 41 36 42 0 53 4 70
26 66 84 -32 146 -105 68z m92 -8 c12 -30 -15 -56 -56 -56 -46 0 -49 7 -15 44
26 28 62 34 71 12z"/>
<path d="M9081 11401 c-11 -7 -12 -13 -3 -23 7 -9 8 -19 2 -28 -18 -28 -11
-99 10 -120 11 -11 24 -20 30 -20 18 0 80 62 80 81 0 27 -10 24 -40 -13 -52
-62 -82 -1 -40 82 11 22 20 42 20 45 0 8 -44 5 -59 -4z"/>
<path d="M5688 11323 c-28 -7 -22 -33 7 -33 18 0 25 5 25 20 0 20 -2 21 -32
13z"/>
<path d="M2526 10818 c-49 -74 -63 -133 -47 -195 27 -105 30 -95 -25 -93 -75
3 -84 1 -84 -15 0 -12 15 -15 74 -15 l75 0 12 -55 c15 -67 -3 -128 -39 -133
-33 -5 -29 -34 5 -30 57 7 85 97 59 197 -6 23 -5 31 3 27 14 -9 53 12 45 25
-3 5 -13 9 -22 8 -44 -4 -50 2 -67 62 -21 75 -15 116 28 187 l32 53 17 -23
c16 -22 17 -22 24 -4 9 24 -7 50 -34 54 -16 2 -30 -10 -56 -50z"/>
<path d="M4633 10824 c-3 -8 -1 -25 6 -37 15 -30 -1 -216 -20 -228 -15 -9 -40
-13 -99 -13 -28 -1 -36 -5 -38 -23 -3 -20 0 -21 35 -16 21 3 54 9 73 13 l35 7
-14 -109 c-10 -77 -11 -112 -3 -120 19 -19 29 1 31 59 0 32 4 81 9 108 6 41
11 51 29 53 12 2 24 10 27 19 4 10 2 14 -8 10 -28 -11 -33 16 -24 118 5 55 6
114 3 132 -6 34 -32 52 -42 27z"/>
<path d="M4002 10776 c-35 -40 -49 -79 -60 -161 -7 -56 -9 -60 -32 -57 -23 2
-43 -15 -34 -30 3 -4 17 -8 31 -8 l25 0 -7 -111 c-7 -100 -6 -111 9 -107 14 2
18 20 22 103 3 55 8 103 12 107 4 4 34 8 66 10 36 2 61 8 64 16 3 9 -14 12
-62 12 l-66 0 0 38 c0 54 27 137 54 169 22 26 26 27 50 13 37 -19 57 1 25 24
-36 25 -64 19 -97 -18z"/>
<path d="M4780 10781 c-5 -11 -10 -51 -10 -90 0 -38 -6 -100 -14 -138 -21
-103 -24 -198 -6 -198 8 0 17 15 22 38 13 61 36 97 63 99 64 4 60 10 60 -82 0
-62 3 -85 13 -85 20 0 26 170 6 190 -19 18 -94 16 -118 -4 -19 -16 -21 -7 -6
54 6 22 10 75 11 117 0 43 4 80 10 83 14 10 11 35 -6 35 -8 0 -19 -9 -25 -19z"/>
<path d="M3246 10738 c-8 -13 -22 -49 -32 -81 l-18 -59 -65 4 c-56 3 -66 0
-69 -14 -3 -16 5 -18 60 -18 l63 0 0 -84 c0 -99 16 -126 71 -126 35 0 94 43
74 55 -5 3 -10 2 -10 -3 0 -10 -8 -11 -60 -15 -34 -2 -35 -1 -44 46 -5 28 -5
66 0 90 9 41 10 42 64 53 36 7 55 15 55 25 0 7 -4 13 -10 13 -5 -1 -29 -4 -52
-8 l-42 -6 19 56 c11 31 24 62 30 69 10 12 4 25 -11 25 -5 0 -15 -10 -23 -22z"/>
<path d="M6584 10575 c-7 -19 -14 -39 -14 -44 0 -23 -53 -128 -76 -152 -19
-20 -22 -29 -13 -35 8 -5 25 7 49 33 l36 41 11 -29 c17 -45 60 -40 107 11 34
38 36 39 36 16 0 -53 37 -89 66 -65 20 17 17 27 -8 31 -26 3 -28 27 -14 131
11 76 -11 78 -42 4 -28 -66 -84 -132 -105 -124 -27 10 -31 85 -8 146 11 30 18
58 15 63 -11 17 -25 7 -40 -27z"/>
<path d="M6925 10567 c-75 -75 -47 -202 52 -236 37 -13 45 -13 82 3 47 22 86
60 76 76 -4 7 -16 3 -34 -13 -48 -40 -85 -51 -117 -35 -26 12 -74 70 -74 88 0
4 14 10 31 14 43 8 89 57 89 94 0 53 -56 58 -105 9z m75 -11 c0 -15 -55 -66
-71 -66 -17 0 -9 31 16 55 27 28 55 33 55 11z"/>
<path d="M6318 10560 c-23 -14 -81 -112 -70 -119 5 -3 12 -18 15 -32 9 -34 56
-57 125 -61 73 -4 69 14 -7 29 -98 20 -121 51 -53 71 51 16 84 52 80 88 -3 25
-8 29 -38 31 -19 2 -42 -2 -52 -7z m62 -27 c0 -13 -14 -28 -40 -46 -46 -32
-56 -12 -15 28 23 24 55 34 55 18z"/>
<path d="M2653 10518 c-30 -33 -43 -63 -43 -97 0 -39 9 -61 25 -61 21 0 25 14
15 50 -14 50 28 115 62 94 6 -4 8 2 6 12 -5 28 -40 28 -65 2z"/>
<path d="M6026 10533 c-12 -12 -6 -125 9 -152 37 -73 116 -41 146 57 13 46 9
97 -10 97 -9 0 -14 -15 -15 -45 -1 -25 -11 -61 -22 -80 -40 -68 -87 -29 -82
67 3 49 -9 73 -26 56z"/>
<path d="M5059 10513 c-42 -17 -69 -64 -69 -119 0 -48 45 -94 91 -94 33 0 119
43 119 60 0 22 -24 20 -59 -4 -45 -32 -74 -33 -101 -4 -31 33 -26 58 11 58 22
0 40 9 60 31 31 33 36 58 17 77 -15 15 -23 14 -69 -5z m31 -48 c-26 -28 -50
-33 -50 -10 0 15 31 33 59 34 10 1 7 -7 -9 -24z"/>
<path d="M2988 10508 c-8 -7 -25 -28 -37 -45 -12 -18 -25 -33 -29 -33 -4 0
-14 15 -23 33 -9 18 -28 36 -43 42 -25 8 -31 6 -57 -23 -31 -35 -39 -88 -17
-110 19 -19 59 -14 93 12 l32 25 -5 -25 c-3 -17 0 -24 12 -24 9 0 20 8 23 18
11 27 64 102 72 102 5 0 14 -6 20 -14 9 -11 8 -27 -5 -71 -14 -49 -14 -59 -2
-71 12 -12 17 -12 33 0 17 13 18 18 8 35 -9 14 -10 28 -3 46 17 44 12 72 -16
94 -31 25 -35 25 -56 9z m-116 -62 c9 -16 6 -23 -12 -38 -31 -25 -60 -24 -60
3 0 53 50 77 72 35z"/>
<path d="M5807 10503 c-15 -10 -36 -36 -47 -59 -24 -49 -24 -49 -4 -68 20 -20
73 -20 102 0 27 19 27 25 2 -141 -23 -155 -26 -255 -7 -255 7 0 21 17 30 38
11 24 34 48 67 70 27 18 50 39 50 47 0 23 -12 19 -73 -25 -32 -22 -57 -35 -57
-30 0 4 9 71 19 147 27 188 32 283 16 283 -7 0 -25 2 -41 5 -18 3 -39 -1 -57
-12z m73 -38 c0 -25 -51 -75 -76 -75 -33 0 -31 30 5 68 20 22 34 29 50 25 11
-3 21 -11 21 -18z"/>
<path d="M3734 10488 c-36 -17 -49 -52 -34 -88 16 -38 42 -53 79 -45 48 10 81
96 47 124 -20 17 -66 21 -92 9z m76 -48 c0 -21 -33 -60 -49 -60 -15 0 -40 41
-34 56 5 14 24 21 61 23 16 1 22 -5 22 -19z"/>
<path d="M7247 10374 c-14 -15 -6 -34 14 -34 14 0 19 5 17 17 -3 18 -20 27
-31 17z"/>
<path d="M10808 9365 l4 -136 -46 2 c-25 2 -48 0 -52 -3 -14 -15 10 -28 52
-28 l44 0 0 -39 c0 -47 15 -91 31 -91 7 0 8 20 4 64 l-7 65 33 3 c46 4 51 28
5 28 l-35 0 -3 132 c-2 109 -6 133 -18 136 -13 2 -15 -17 -12 -133z"/>
<path d="M12007 9432 c-14 -38 -28 -89 -32 -115 -8 -50 -8 -50 -95 -59 -42 -5
-18 -23 31 -23 l45 1 0 -81 c0 -86 10 -115 50 -142 29 -18 109 -22 125 -6 17
17 1 33 -23 24 -24 -9 -85 2 -100 17 -16 16 -27 92 -21 149 l6 52 42 6 c28 5
42 12 42 22 0 12 -9 14 -39 10 -47 -6 -48 -1 -8 112 16 47 27 88 24 93 -12 19
-23 4 -47 -60z"/>
<path d="M12235 9348 c0 -84 -4 -192 -9 -240 -7 -73 -7 -88 5 -88 10 0 19 27
31 86 21 111 59 159 72 92 3 -18 15 -48 26 -65 15 -26 27 -33 50 -33 23 0 33
-6 42 -25 15 -34 72 -68 99 -60 24 8 89 63 89 76 0 16 -41 9 -67 -11 -34 -26
-68 -25 -87 2 -24 34 -20 45 24 69 35 20 40 27 40 59 0 34 -14 60 -32 60 -4 0
-23 -14 -43 -31 -25 -22 -37 -43 -41 -70 -11 -67 -50 -41 -74 49 -13 51 -29
60 -64 37 l-26 -17 -2 93 c-4 164 -4 164 -19 167 -12 2 -14 -22 -14 -150z
m285 -138 c0 -16 -26 -40 -44 -40 -12 0 -6 24 11 42 21 23 33 23 33 -2z"/>
<path d="M14337 9460 c-32 -10 -162 -25 -163 -19 0 2 -9 -2 -18 -10 -15 -13
-15 -15 5 -34 20 -18 21 -26 15 -96 -17 -186 -18 -214 -11 -257 10 -68 47 -74
59 -9 4 17 3 24 0 17 -5 -10 -9 -9 -20 5 -15 20 -19 110 -5 132 5 8 35 15 77
18 64 5 89 16 78 34 -4 8 -76 4 -124 -6 l-25 -5 0 89 0 89 40 5 c123 16 195
33 195 44 0 15 -58 16 -103 3z"/>
<path d="M2085 9446 c-26 -19 -10 -24 104 -32 l103 -7 -5 -61 c-2 -34 -12
-112 -21 -175 -11 -74 -14 -117 -7 -124 11 -11 32 0 29 16 -3 18 12 157 23
207 6 25 10 68 10 97 l0 52 46 3 c26 2 48 9 50 15 4 10 -27 12 -129 10 -73 -1
-145 1 -159 5 -16 5 -32 3 -44 -6z"/>
<path d="M13446 9443 c-47 -13 -63 -13 -78 -4 -37 23 -45 1 -40 -114 4 -95 3
-107 -14 -120 -18 -15 -18 -15 -1 -29 16 -12 18 -27 17 -88 -3 -96 -2 -98 15
-98 12 0 15 16 15 88 l0 88 73 13 c83 15 114 28 99 43 -6 6 -31 4 -70 -6 -106
-28 -102 -31 -102 84 l0 100 28 0 c15 0 52 7 82 15 30 8 65 12 77 9 16 -4 23
-2 23 9 0 30 -35 33 -124 10z"/>
<path d="M13762 9435 c-59 -14 -70 -21 -55 -36 7 -7 25 -6 56 3 26 6 50 9 54
5 4 -5 5 -45 3 -90 -2 -45 -4 -130 -4 -189 l-1 -107 -53 -7 c-29 -3 -66 -4
-83 0 -25 5 -30 3 -27 -12 3 -15 18 -17 153 -16 122 1 151 3 153 15 2 11 -10
15 -49 17 -29 1 -55 5 -58 8 -7 7 -7 147 -1 284 l5 95 88 1 c88 1 122 13 101
34 -8 8 -26 7 -60 0 -42 -10 -100 -8 -154 5 -8 2 -39 -3 -68 -10z"/>
<path d="M6745 9431 c-3 -5 -1 -12 5 -16 21 -13 13 -54 -47 -257 -26 -88 -26
-142 1 -106 8 11 17 14 27 7 42 -27 111 16 130 82 11 34 10 42 -6 59 -20 22
-55 26 -86 9 -22 -11 -21 -5 7 91 15 48 18 98 8 124 -7 18 -29 21 -39 7z m90
-251 c10 -17 -23 -80 -49 -91 -20 -9 -29 -9 -41 1 -21 17 -19 24 16 65 30 34
62 45 74 25z"/>
<path d="M2480 9398 c0 -18 -13 -99 -28 -180 -16 -82 -27 -150 -24 -153 14
-13 32 -3 32 18 0 29 55 107 75 107 9 0 15 -9 15 -24 0 -27 20 -51 50 -61 11
-3 23 -17 26 -31 10 -38 50 -64 100 -64 51 0 74 8 74 25 0 8 -17 12 -56 11
-51 -1 -58 2 -78 28 -14 20 -17 30 -9 33 64 23 102 85 69 112 -28 23 -60 9
-81 -36 -12 -26 -27 -42 -38 -43 -18 0 -21 5 -31 53 -9 38 -32 44 -67 18 -34
-25 -35 -21 -14 64 20 82 20 155 0 155 -10 0 -15 -10 -15 -32z m230 -207 c0
-13 -29 -41 -41 -41 -10 0 -5 13 14 38 11 14 27 16 27 3z"/>
<path d="M14645 9412 c-51 -24 -121 -100 -147 -159 -15 -35 -19 -61 -16 -108
3 -55 8 -66 48 -114 93 -110 195 -110 302 2 32 34 58 68 58 75 0 7 7 24 16 37
11 17 14 35 10 57 -4 18 -10 54 -14 79 -5 36 -17 58 -52 95 -42 46 -47 48
-105 51 -43 3 -71 -2 -100 -15z m126 -35 c53 -32 88 -78 87 -113 -1 -16 4 -40
11 -52 8 -16 9 -28 1 -41 -5 -11 -10 -31 -10 -44 0 -17 -18 -41 -59 -79 -97
-90 -173 -86 -252 14 -39 50 -41 55 -37 109 3 41 13 71 34 105 47 76 94 108
184 123 3 0 21 -10 41 -22z"/>
<path d="M5785 9390 c-4 -6 -10 -64 -15 -130 -5 -66 -11 -123 -14 -128 -3 -4
-2 -30 2 -58 5 -34 12 -49 22 -49 12 0 14 11 12 50 -3 44 0 53 26 78 23 22 35
27 56 21 35 -8 45 -29 51 -110 5 -73 8 -80 26 -69 17 11 5 140 -17 172 -9 14
-25 28 -35 30 -10 3 -19 7 -19 10 0 2 35 37 78 78 65 62 75 76 66 91 -13 23
-39 32 -32 12 7 -16 -40 -70 -116 -136 -75 -64 -80 -60 -72 53 6 88 0 115 -19
85z"/>
<path d="M10356 9392 c-3 -5 4 -38 15 -73 10 -35 22 -91 26 -123 l6 -59 -30
18 c-30 18 -32 17 -64 -1 -62 -36 -75 -115 -26 -149 47 -33 93 -11 126 60 27
58 27 125 -2 239 -21 83 -37 110 -51 88z m29 -268 c20 7 19 1 -6 -50 -37 -77
-96 -65 -90 18 1 23 52 50 68 36 7 -6 20 -8 28 -4z"/>
<path d="M8835 9381 c-8 -15 3 -31 21 -31 9 0 14 7 12 17 -4 20 -24 28 -33 14z"/>
<path d="M9209 9344 c-10 -13 -10 -17 1 -24 17 -10 30 -4 30 15 0 22 -16 26
-31 9z"/>
<path d="M4066 9263 c-3 -3 -3 -23 0 -43 11 -65 -43 -149 -85 -135 -27 8 -44
39 -51 95 -7 63 -25 51 -25 -16 1 -50 4 -59 33 -85 40 -36 76 -37 107 -4 41
45 59 95 56 156 -1 25 -22 44 -35 32z"/>
<path d="M9380 9257 c-32 -16 -59 -71 -67 -136 -5 -43 -3 -51 11 -51 9 0 16 8
17 18 5 100 51 168 98 143 24 -13 37 -71 23 -98 -7 -12 -7 -25 -1 -36 17 -29
27 -19 34 33 9 63 -7 113 -41 129 -31 14 -43 14 -74 -2z"/>
<path d="M5031 9249 c-40 -16 -171 -100 -171 -110 0 -19 32 -7 102 36 67 41
108 56 108 38 0 -5 -23 -44 -50 -88 -75 -120 -64 -140 28 -53 l56 53 12 -54
c6 -29 21 -62 32 -74 20 -19 22 -19 46 -3 31 19 52 58 65 118 12 51 -2 118
-24 118 -17 0 -32 -43 -16 -48 18 -6 13 -72 -10 -119 -24 -49 -46 -55 -55 -15
-24 109 -30 116 -75 91 -20 -10 -20 -10 0 30 25 48 26 55 5 75 -18 18 -20 18
-53 5z"/>
<path d="M7942 9244 c-36 -25 -62 -88 -68 -165 -6 -65 -4 -71 12 -67 15 3 21
18 29 83 14 104 27 127 67 123 40 -4 49 18 13 32 -32 12 -26 13 -53 -6z"/>
<path d="M4223 9234 c-35 -18 -61 -51 -74 -96 -19 -67 50 -148 125 -148 34 0
50 7 84 36 39 33 55 64 32 64 -5 0 -27 -16 -49 -35 -52 -47 -100 -45 -143 9
-27 33 -22 43 33 61 40 14 54 24 66 51 15 31 15 35 -2 54 -22 24 -30 24 -72 4z
m47 -38 c0 -18 -19 -33 -53 -41 -33 -9 -34 1 -5 32 24 25 58 31 58 9z"/>
<path d="M6135 9238 c-56 -30 -51 -61 19 -102 24 -14 47 -33 50 -42 16 -42
-60 -62 -88 -23 -8 12 -19 18 -25 14 -20 -12 -11 -33 24 -55 43 -26 88 -20
111 16 24 36 10 70 -47 111 -54 39 -54 50 2 62 45 9 50 31 7 31 -18 0 -42 -6
-53 -12z"/>
<path d="M3263 9221 c-55 -34 -70 -92 -33 -126 17 -15 24 -16 50 -5 17 7 35
20 40 29 8 14 9 13 9 -4 0 -11 -13 -99 -28 -195 -30 -180 -28 -223 7 -170 33
49 93 108 127 125 34 15 43 29 27 39 -14 8 -69 -22 -106 -58 -43 -44 -43 -43
-17 109 17 99 35 224 36 250 0 6 -9 11 -20 12 -11 1 -29 4 -40 8 -12 3 -33 -3
-52 -14z m57 -37 c0 -21 -57 -77 -70 -69 -16 10 -11 40 10 63 24 26 60 29 60
6z"/>
<path d="M6926 9232 c-8 -14 13 -131 30 -163 8 -16 19 -29 24 -29 6 0 -3 -24
-20 -52 -53 -90 -140 -270 -140 -289 0 -11 7 -19 15 -19 8 0 15 7 15 15 0 20
127 267 209 408 58 98 69 137 41 137 -5 0 -10 -5 -10 -10 0 -15 -84 -160 -92
-160 -14 0 -29 43 -36 102 -6 56 -22 82 -36 60z"/>
<path d="M3470 9204 c-26 -68 9 -156 64 -162 56 -7 144 118 122 173 -8 22 -31
14 -32 -11 -1 -62 -48 -134 -86 -134 -29 0 -51 55 -43 111 8 54 -8 68 -25 23z"/>
<path d="M3737 9219 c-10 -6 -27 -30 -36 -52 -21 -49 -11 -100 25 -123 26 -18
128 -9 145 13 18 21 8 23 -56 13 -50 -8 -62 -7 -75 6 -13 14 -13 17 4 27 57
35 77 60 74 91 -3 26 -7 31 -33 33 -16 2 -38 -2 -48 -8z m53 -29 c0 -13 -37
-50 -50 -50 -15 0 -12 21 7 42 17 19 43 24 43 8z"/>
<path d="M5563 9211 c-32 -20 -46 -51 -59 -133 -5 -31 -3 -38 9 -38 16 0 37
54 37 96 0 29 33 56 75 63 47 8 50 25 5 29 -21 1 -47 -5 -67 -17z"/>
<path d="M8551 9206 c-13 -14 -30 -22 -40 -19 -15 4 -19 -3 -24 -39 -3 -24 -9
-60 -13 -80 -9 -53 20 -53 33 0 30 119 130 173 102 56 -21 -92 5 -118 28 -28
18 68 16 91 -7 114 -26 26 -52 25 -79 -4z"/>
<path d="M9630 9213 c-65 -45 -81 -109 -35 -139 22 -14 32 -15 65 -5 22 6 46
19 55 27 9 9 18 14 21 11 4 -3 21 -52 39 -109 l32 -103 -52 -10 c-71 -15 -105
-38 -105 -73 0 -46 69 -98 115 -86 37 9 75 59 75 100 0 32 2 34 33 34 46 0 78
11 74 24 -2 7 -23 10 -54 8 l-51 -4 -27 87 c-38 127 -82 230 -97 230 -7 0 -17
6 -21 13 -11 17 -38 15 -67 -5z m68 -39 c21 13 13 -33 -9 -55 -14 -14 -30 -19
-52 -17 -45 4 -48 37 -6 72 29 24 32 25 44 10 6 -9 17 -14 23 -10z m112 -340
c0 -59 -45 -92 -92 -68 -25 13 -46 49 -35 61 10 9 82 32 105 33 17 0 22 -6 22
-26z"/>
<path d="M5355 9210 c-3 -5 -3 -15 0 -21 4 -6 -2 -17 -14 -25 -56 -40 -64
-128 -15 -161 23 -15 28 -15 60 0 64 31 95 118 55 155 -75 69 -76 69 -86 52z
m69 -82 c21 -35 -49 -120 -81 -100 -30 20 -17 101 19 115 23 10 51 3 62 -15z"/>
<path d="M7702 9192 c-48 -45 -63 -128 -30 -169 30 -37 150 16 164 72 25 99
-64 162 -134 97z m92 -18 c28 -27 20 -69 -19 -103 -20 -17 -44 -31 -55 -31
-64 0 -33 126 35 143 11 2 21 5 22 6 1 0 9 -6 17 -15z"/>
<path d="M8908 9213 c-26 -3 -38 -9 -38 -20 0 -14 10 -15 68 -10 54 5 64 4 50
-6 -9 -7 -42 -30 -72 -52 -60 -42 -66 -54 -40 -80 14 -14 34 -16 113 -13 96 4
121 10 121 30 0 7 -33 8 -105 3 -60 -4 -105 -3 -105 2 0 5 38 36 85 68 46 33
84 66 85 73 0 12 -72 14 -162 5z"/>
<path d="M11012 9200 c-69 -42 -95 -134 -47 -166 22 -15 30 -15 69 -2 l44 15
26 -34 c28 -35 54 -41 101 -23 16 6 23 14 19 22 -5 8 -2 9 9 5 10 -3 17 -3 17
2 0 17 -13 19 -47 4 -72 -30 -108 17 -79 102 17 48 15 65 -9 65 -19 0 -35 -32
-35 -69 0 -41 -41 -67 -97 -62 -7 0 -13 11 -13 24 0 37 36 84 74 98 20 7 35
18 33 24 -6 18 -31 16 -65 -5z"/>
<path d="M8102 9202 c-32 -5 -66 -80 -53 -114 12 -33 34 -49 62 -46 21 3 24
-2 31 -42 3 -25 7 -64 7 -87 l1 -41 -34 10 c-51 16 -96 -5 -96 -44 0 -30 32
-102 51 -114 19 -12 58 18 79 60 27 56 34 138 21 223 -10 66 -9 75 10 107 27
47 22 81 -12 82 -14 1 -30 3 -35 6 -5 2 -20 2 -32 0z m30 -72 c-4 -57 -52 -78
-52 -24 0 36 19 66 38 62 13 -3 16 -13 14 -38z m0 -289 c10 -8 -23 -74 -39
-79 -13 -4 -43 47 -43 72 0 24 59 29 82 7z"/>
<path d="M8304 9176 c-58 -58 -41 -123 30 -114 29 3 37 0 45 -19 6 -13 17 -23
26 -23 17 0 20 26 4 36 -8 4 -9 26 -5 64 6 53 5 58 -18 74 -35 22 -43 21 -82
-18z m66 -30 c0 -29 -24 -56 -51 -56 -23 0 -24 12 -4 50 20 38 55 41 55 6z"/>
<path d="M8786 9198 c-3 -7 -7 -31 -10 -53 -3 -22 -7 -49 -8 -60 -2 -11 4 -21
13 -23 18 -3 29 39 29 111 0 35 -16 52 -24 25z"/>
<path d="M9184 9123 c8 -74 13 -90 28 -75 6 6 7 36 3 76 -6 49 -11 66 -23 66
-12 0 -14 -11 -8 -67z"/>
<path d="M10519 9149 c-16 -17 -32 -42 -35 -55 -8 -29 19 -74 44 -74 21 0 92
47 92 61 0 6 4 8 10 4 5 -3 7 -12 4 -20 -7 -18 13 -55 31 -55 11 0 13 8 9 33
-9 52 -35 126 -46 133 -14 9 -28 -15 -28 -48 0 -17 -11 -35 -31 -52 -35 -30
-45 -32 -53 -10 -8 20 7 47 39 72 14 11 25 25 25 31 0 21 -32 11 -61 -20z"/>
<path d="M9003 8948 c-6 -7 -13 -29 -16 -48 -3 -19 -12 -61 -22 -92 l-16 -58
-52 3 c-42 2 -52 -1 -55 -15 -3 -15 4 -18 46 -18 l49 0 -8 -47 c-4 -28 -3 -52
2 -58 14 -14 29 13 29 50 0 37 9 52 35 56 24 5 27 35 3 31 -15 -2 -14 8 9 93
18 64 23 99 16 106 -7 7 -13 6 -20 -3z"/>
<path d="M6004 8930 c-14 -14 5 -62 21 -57 16 5 17 31 3 50 -10 13 -16 15 -24
7z"/>
<path d="M7264 8918 c-33 -37 -82 -121 -90 -153 -10 -46 -23 -55 -70 -55 -34
0 -44 -4 -44 -16 0 -13 9 -15 49 -12 l49 3 6 -64 c3 -35 8 -66 10 -68 14 -14
26 15 26 65 1 52 14 91 32 88 19 -3 19 16 0 21 -12 3 -22 6 -22 7 0 15 47 128
62 149 17 24 26 28 49 23 31 -6 50 11 28 25 -25 16 -65 9 -85 -13z"/>
<path d="M4350 8899 c-25 -5 -65 -11 -90 -13 l-45 -3 3 -74 c2 -51 -4 -97 -18
-149 -26 -91 -28 -112 -15 -117 9 -3 30 48 51 125 7 28 40 42 100 42 32 0 44
4 44 14 0 12 -14 14 -63 13 l-63 -2 -3 40 c-1 22 -4 47 -7 56 -5 17 20 24 169
45 30 4 47 11 47 20 0 16 -40 17 -110 3z"/>
<path d="M5137 8903 c-3 -5 -8 -24 -12 -43 -18 -93 -23 -100 -71 -100 -32 0
-44 -4 -44 -15 0 -11 11 -15 40 -15 47 0 48 -3 20 -91 -12 -41 -16 -67 -10
-73 16 -16 26 2 48 88 12 43 23 80 25 83 2 2 24 7 48 11 28 5 45 13 47 24 3
13 -3 14 -40 8 -24 -5 -44 -7 -46 -5 -1 1 2 22 7 46 13 56 14 89 2 89 -6 0
-12 -3 -14 -7z"/>
<path d="M7796 8860 c-12 -31 -23 -41 -48 -48 -38 -10 -40 -26 -4 -30 l25 -3
-6 -110 c-5 -97 -4 -109 11 -109 13 0 16 12 16 73 1 84 13 146 32 158 7 5 25
9 41 9 17 0 27 5 27 15 0 10 -11 15 -35 15 -34 0 -49 20 -25 35 15 9 12 35 -4
35 -8 0 -21 -18 -30 -40z"/>
<path d="M4546 8882 c-7 -12 3 -42 14 -42 18 0 22 22 7 37 -9 9 -17 11 -21 5z"/>
<path d="M3066 8823 c-10 -27 -47 -118 -83 -203 -78 -185 -84 -210 -53 -210
15 0 20 5 17 14 -3 8 17 68 45 133 59 139 118 291 118 304 0 5 -6 9 -14 9 -7
0 -21 -21 -30 -47z"/>
<path d="M7365 8861 c-3 -6 -4 -15 -1 -20 8 -12 58 -1 53 13 -5 15 -43 20 -52
7z"/>
<path d="M2133 8810 c-72 -48 -87 -64 -79 -86 5 -13 14 -9 50 24 24 22 58 48
76 57 l33 17 -7 -29 c-4 -15 -24 -62 -44 -103 -20 -41 -38 -78 -40 -82 -9 -20
32 -5 50 17 l20 25 28 -30 c23 -24 36 -30 72 -30 50 0 98 26 125 67 23 35 28
156 7 174 -26 22 -39 -4 -25 -49 17 -49 0 -115 -33 -137 -39 -26 -93 -30 -116
-10 -11 10 -20 26 -20 35 0 9 -5 21 -11 27 -8 8 -7 23 6 56 37 98 2 120 -92
57z"/>
<path d="M2885 8830 c-4 -6 -2 -16 3 -23 5 -7 13 -33 16 -59 5 -34 14 -51 33
-63 23 -15 27 -16 41 -1 14 14 13 16 -10 25 -18 7 -28 20 -32 40 -3 17 -9 45
-12 61 -5 30 -27 40 -39 20z"/>
<path d="M2623 8757 c-47 -51 -60 -82 -43 -102 17 -21 59 -19 103 5 l37 20 6
-30 c5 -23 12 -30 30 -30 28 0 32 21 8 41 -13 11 -15 24 -10 66 8 65 -12 73
-37 14 -17 -38 -64 -71 -102 -71 -15 0 -15 3 2 31 24 41 49 62 76 64 31 2 28
29 -4 33 -19 2 -35 -7 -66 -41z"/>
<path d="M6056 8742 c-18 -65 -21 -118 -7 -127 6 -3 15 5 22 17 15 30 90 108
104 108 6 0 17 -15 23 -34 15 -42 36 -60 58 -52 15 6 15 9 -5 27 -12 11 -24
34 -28 50 -12 61 -63 57 -122 -10 l-23 -26 7 25 c11 40 11 73 -1 77 -6 2 -18
-22 -28 -55z"/>
<path d="M5936 8778 c-26 -85 -34 -172 -14 -166 12 4 37 96 41 147 2 26 -20
42 -27 19z"/>
<path d="M6518 8761 c-69 -26 -80 -39 -53 -61 8 -7 15 -8 15 -3 0 6 27 22 60
37 56 25 71 39 53 49 -5 2 -38 -8 -75 -22z"/>
<path d="M4652 8752 c-35 -32 -72 -109 -72 -148 0 -44 25 -24 43 35 22 71 64
116 97 106 18 -6 21 -3 18 12 -6 31 -50 28 -86 -5z"/>
<path d="M8634 8714 c-21 -77 -14 -97 36 -102 43 -4 85 14 115 50 28 33 32 69
11 87 -18 15 -30 -1 -21 -29 11 -35 -69 -92 -109 -77 -11 5 -12 14 -5 44 22
90 22 93 6 93 -10 0 -21 -22 -33 -66z"/>
<path d="M4855 8754 c-58 -30 -61 -38 -32 -83 32 -48 33 -53 8 -75 -16 -14
-23 -15 -41 -6 -26 14 -38 5 -24 -18 18 -28 60 -27 89 2 30 31 32 64 4 100
-26 33 -12 56 32 56 31 0 40 23 13 34 -19 7 -14 9 -49 -10z"/>
<path d="M7432 8736 c-37 -43 -52 -111 -28 -134 14 -14 16 -13 25 9 5 14 7 36
4 50 -6 32 29 77 64 81 41 5 41 28 0 28 -27 0 -42 -8 -65 -34z"/>
<path d="M8476 8741 c-34 -35 -45 -97 -22 -126 15 -20 15 -20 53 1 21 12 47
36 57 54 18 30 18 34 3 66 -21 43 -53 45 -91 5z m68 -26 c6 -18 -40 -75 -61
-75 -12 0 -14 7 -9 31 9 47 57 77 70 44z"/>
<path d="M4488 8728 c-25 -53 -30 -91 -15 -112 17 -23 41 -13 28 12 -6 11 -4
31 6 57 19 52 20 67 7 72 -5 2 -17 -11 -26 -29z"/>
<path d="M5596 8739 c-44 -5 -84 -13 -89 -18 -15 -15 3 -32 26 -25 12 4 51 10
87 13 51 5 65 10 68 24 2 9 0 16 -5 16 -4 -1 -44 -5 -87 -10z"/>
<path d="M7589 8734 c-10 -12 -10 -24 -1 -60 19 -69 17 -76 -20 -72 -24 2 -33
-1 -33 -12 0 -11 12 -15 45 -15 l45 0 -1 45 c-1 25 -3 59 -5 75 -3 26 -1 30
17 27 13 -2 21 3 21 13 0 20 -50 20 -68 -1z"/>
<path d="M7274 8709 c-3 -6 -1 -15 6 -19 12 -8 11 -26 -6 -94 -5 -20 -2 -26 9
-26 17 0 37 55 37 101 0 38 -30 63 -46 38z"/>
<path d="M9103 8613 c-7 -3 -13 -11 -13 -19 0 -11 9 -14 33 -12 19 2 32 9 32
17 0 14 -30 23 -52 14z"/>
<path d="M3312 8578 c7 -19 38 -22 38 -4 0 10 -9 16 -21 16 -12 0 -19 -5 -17
-12z"/>
<path d="M10035 8218 c-8 -25 -70 -136 -150 -268 -155 -254 -279 -483 -268
-494 14 -14 25 -2 63 74 40 80 178 320 249 435 21 33 59 98 86 145 26 47 52
88 58 91 14 9 1 39 -17 39 -8 0 -18 -10 -21 -22z"/>
<path d="M8939 8168 c-55 -37 -102 -142 -109 -242 l-5 -81 -48 -10 c-64 -14
-56 -31 12 -27 l54 2 -7 -42 c-8 -47 -38 -104 -70 -130 -17 -13 -18 -19 -9
-29 29 -29 103 86 111 172 4 45 6 48 40 56 19 5 38 15 40 22 4 11 -5 12 -43 7
l-48 -8 5 74 c4 59 12 87 38 137 36 66 58 84 102 83 35 -1 45 14 19 27 -29 16
-44 14 -82 -11z"/>
<path d="M11306 8172 c-2 -4 -18 -43 -35 -86 -56 -139 -66 -154 -106 -158 -46
-4 -50 -22 -7 -26 30 -3 33 -6 28 -25 -50 -169 -35 -247 48 -247 34 0 56 10
56 25 0 10 -10 12 -35 8 -50 -8 -65 9 -64 71 1 68 30 170 49 173 8 1 41 5 73
8 52 6 57 9 57 31 0 28 -7 29 -46 9 -16 -8 -41 -15 -56 -15 l-27 0 40 93 c21
50 44 100 49 109 6 10 10 22 10 28 0 12 -27 14 -34 2z"/>
<path d="M12327 8163 c-3 -5 -12 -49 -21 -99 -23 -135 -27 -141 -81 -150 -54
-8 -56 -30 -1 -28 20 1 36 -2 36 -5 0 -4 -9 -40 -20 -80 -12 -41 -18 -81 -15
-89 11 -30 24 0 64 155 11 41 12 42 59 45 34 2 47 7 47 18 0 11 -11 15 -43 13
-34 -1 -42 2 -38 12 3 8 10 42 16 77 7 35 17 74 24 88 7 14 11 31 8 38 -4 13
-28 16 -35 5z"/>
<path d="M10631 8133 c-6 -16 -24 -86 -40 -157 -29 -127 -80 -252 -106 -262
-25 -10 -55 15 -55 46 0 22 11 41 40 70 22 22 45 40 50 40 6 0 10 7 10 15 0
44 -92 -24 -121 -91 -22 -49 -15 -80 22 -99 43 -23 66 -18 93 18 40 53 65 118
97 259 17 73 35 140 40 149 13 25 11 39 -5 39 -7 0 -19 -12 -25 -27z"/>
<path d="M14351 8136 c-6 -8 -11 -18 -9 -22 1 -5 -13 -55 -31 -111 -32 -97
-35 -102 -66 -107 -18 -4 -51 -2 -74 3 -30 6 -43 5 -51 -4 -15 -19 -3 -24 79
-31 45 -4 71 -11 71 -19 0 -6 -7 -34 -15 -61 -19 -62 -19 -66 2 -62 13 2 22
23 34 73 l16 70 58 7 c56 7 83 24 66 41 -4 4 -21 2 -38 -4 -18 -6 -43 -9 -57
-7 l-26 3 35 100 c35 100 43 145 26 145 -5 0 -14 -6 -20 -14z"/>
<path d="M9577 8133 c-4 -3 -7 -22 -8 -42 0 -20 -12 -79 -27 -131 l-27 -94
-43 -8 c-51 -9 -62 -15 -62 -35 0 -11 5 -13 18 -8 9 4 29 10 44 13 l28 4 -25
-73 c-29 -84 -31 -109 -10 -109 8 0 15 6 15 13 0 6 12 49 27 94 l27 82 41 7
c49 7 70 18 61 32 -4 6 -20 7 -43 2 -21 -5 -39 -7 -41 -6 -2 2 8 43 22 92 33
114 35 199 3 167z"/>
<path d="M13661 8108 c-5 -13 -21 -69 -36 -126 -15 -56 -32 -105 -38 -109 -6
-4 -46 -9 -89 -11 -61 -4 -78 -8 -78 -20 0 -12 13 -14 80 -10 44 3 80 3 80 0
0 -3 -14 -45 -31 -94 -20 -60 -27 -94 -21 -100 13 -13 32 -1 32 21 0 9 13 55
28 101 l29 85 51 3 c37 2 52 7 52 18 0 10 -12 14 -46 14 -39 0 -45 3 -40 18 3
9 15 53 26 97 11 44 25 88 30 97 14 25 12 38 -5 38 -9 0 -19 -10 -24 -22z"/>
<path d="M10367 8113 c-4 -3 -7 -28 -7 -54 0 -26 -5 -60 -11 -76 -6 -15 -31
-86 -55 -157 -47 -136 -54 -186 -29 -186 10 0 15 10 15 28 0 15 23 92 52 172
37 105 52 164 54 213 4 61 -2 78 -19 60z"/>
<path d="M13805 8008 c-14 -46 -46 -137 -71 -202 -25 -66 -42 -126 -40 -133 9
-23 24 -14 35 20 6 18 28 49 49 69 38 38 79 54 74 30 -14 -66 -14 -102 0 -102
19 0 41 105 27 131 -12 23 -47 24 -77 3 -13 -9 -25 -14 -27 -13 -7 8 81 250
91 250 20 -2 8 24 -13 27 -19 3 -25 -6 -48 -80z"/>
<path d="M7886 8072 c-3 -5 -13 -54 -22 -110 -20 -120 -24 -128 -52 -113 -32
17 -102 14 -102 -4 0 -10 10 -15 34 -15 61 0 97 -11 92 -29 -16 -55 -18 -91
-3 -91 9 0 18 20 27 61 l13 61 39 -5 c33 -4 39 -3 36 11 -2 11 -15 18 -36 20
-17 2 -32 6 -32 10 0 4 7 45 16 92 8 47 16 91 17 99 2 16 -19 26 -27 13z"/>
<path d="M3185 8040 c-27 -10 -59 -19 -71 -19 -31 -1 -51 -30 -58 -85 -3 -28
-13 -55 -24 -63 -12 -10 -14 -16 -5 -19 10 -4 10 -13 -1 -38 -8 -18 -17 -52
-21 -75 -5 -33 -4 -41 8 -41 9 0 17 14 22 37 3 20 13 54 22 75 14 35 18 38 57
38 22 0 48 5 56 10 24 16 -5 29 -51 23 -22 -3 -39 -3 -39 0 0 3 5 28 10 55
l11 48 64 17 c35 9 77 17 95 17 25 0 31 4 28 18 -4 24 -43 25 -103 2z"/>
<path d="M12046 8031 c-11 -12 -13 -21 -7 -25 13 -9 51 15 51 31 0 19 -25 16
-44 -6z"/>
<path d="M5771 8018 c-4 -13 -31 -87 -60 -164 -52 -138 -53 -142 -36 -168 34
-51 96 -23 139 61 30 60 13 96 -45 96 -23 0 -28 4 -23 16 31 76 62 170 57 175
-12 12 -24 6 -32 -16z m24 -218 c8 -13 -41 -99 -61 -107 -22 -8 -37 12 -30 40
13 55 72 98 91 67z"/>
<path d="M2659 8026 c-3 -3 -32 -12 -64 -21 -85 -23 -86 -23 -122 -24 -37 -1
-48 -31 -13 -31 28 0 35 -23 20 -75 -12 -41 -14 -44 -41 -38 -22 4 -29 2 -29
-10 0 -8 10 -17 21 -20 18 -5 20 -11 15 -34 -3 -15 -9 -52 -12 -80 -5 -42 -4
-53 7 -53 10 0 18 22 26 72 12 76 28 98 69 98 12 0 25 6 27 13 3 7 6 4 6 -6 1
-14 6 -17 24 -11 28 8 30 10 22 23 -3 6 -31 11 -60 11 l-55 0 11 27 c5 15 9
41 7 57 -3 29 -1 30 67 48 39 10 85 21 103 24 18 4 31 12 29 18 -4 11 -49 21
-58 12z"/>
<path d="M4890 8010 c0 -35 -68 -202 -93 -229 -20 -21 -23 -34 -19 -69 5 -53
20 -50 39 8 18 55 54 90 94 90 47 0 69 -16 69 -51 0 -36 17 -72 30 -64 12 7 1
95 -14 114 -6 8 -24 20 -40 26 l-29 13 68 48 c37 27 75 54 84 61 15 11 15 12
-1 18 -18 7 -130 -64 -177 -112 -12 -14 -25 -22 -28 -19 -3 3 9 41 26 86 37
96 37 100 11 100 -13 0 -20 -7 -20 -20z"/>
<path d="M3435 8010 c-3 -5 -4 -14 -1 -18 3 -5 -7 -18 -22 -29 -60 -44 -97
-169 -69 -235 43 -102 186 -77 282 49 43 56 53 104 32 148 -27 56 -199 122
-222 85z m135 -53 c86 -42 90 -96 12 -179 -76 -81 -142 -104 -189 -64 -24 21
-28 32 -27 73 1 69 39 141 84 161 19 8 42 18 50 23 20 11 19 11 70 -14z"/>
<path d="M8027 8013 c-3 -5 -8 -36 -12 -70 -4 -34 -17 -104 -30 -155 -16 -59
-21 -96 -15 -102 14 -14 24 0 45 57 10 27 32 63 49 80 l31 32 5 -50 c7 -64 14
-75 51 -75 26 0 29 -3 29 -30 0 -17 9 -39 21 -51 18 -18 28 -20 78 -14 65 8
71 11 71 31 0 10 -6 14 -17 11 -53 -15 -96 -17 -109 -6 -25 20 -17 57 15 74
37 19 84 78 79 101 -5 27 -33 40 -65 28 -21 -7 -33 -22 -48 -62 -17 -46 -23
-52 -45 -50 -23 3 -25 8 -28 61 -3 51 -5 57 -25 57 -30 0 -70 -29 -63 -45 2
-7 -2 -16 -11 -19 -12 -5 -14 -2 -8 16 22 73 32 188 16 188 -6 0 -12 -3 -14
-7z m253 -174 c0 -19 -20 -48 -40 -59 -18 -10 -19 -9 -9 17 17 44 49 72 49 42z"/>
<path d="M2832 7953 c-6 -27 -16 -77 -22 -112 -6 -35 -21 -89 -32 -118 -15
-40 -17 -58 -9 -66 7 -7 14 -7 19 -1 12 12 49 151 67 249 18 98 18 95 1 95 -9
0 -18 -18 -24 -47z"/>
<path d="M9090 7975 c0 -17 5 -25 13 -22 6 2 12 12 12 22 0 10 -6 20 -12 23
-8 2 -13 -6 -13 -23z"/>
<path d="M6881 7923 c-50 -26 -57 -63 -27 -129 23 -50 23 -53 7 -68 -10 -9
-25 -16 -34 -16 -21 0 -49 42 -42 63 9 21 -10 30 -25 12 -28 -34 18 -105 69
-105 28 0 81 39 81 60 0 6 -9 28 -20 50 -11 22 -20 52 -20 69 0 23 6 31 30 39
18 7 32 7 35 1 11 -17 26 -9 23 14 -4 29 -33 32 -77 10z"/>
<path d="M7114 7905 c-67 -40 -121 -134 -103 -181 4 -12 20 -25 36 -29 42 -10
191 -7 213 5 26 14 28 46 3 34 -23 -10 -168 -17 -199 -10 -19 5 -24 13 -24 36
0 37 84 130 118 130 50 0 1 -61 -51 -64 -12 -1 -22 -8 -22 -16 0 -23 54 -13
93 16 35 28 42 62 16 88 -21 21 -32 20 -80 -9z"/>
<path d="M4075 7897 c-58 -31 -105 -69 -105 -83 0 -26 24 -26 43 0 10 15 41
38 69 52 l49 25 -16 -28 c-9 -15 -34 -52 -55 -82 -38 -51 -51 -91 -31 -91 4 0
31 18 59 40 27 22 54 40 58 40 5 -1 18 -15 29 -33 42 -66 105 -35 105 52 0 28
5 53 10 56 15 9 12 25 -4 25 -26 0 -46 -41 -40 -80 4 -27 2 -40 -11 -50 -16
-13 -19 -13 -29 4 -33 55 -43 62 -75 49 -35 -13 -40 -4 -12 21 25 22 45 71 37
91 -8 21 -34 18 -81 -8z"/>
<path d="M6598 7862 c-39 -87 -35 -116 24 -142 47 -21 68 -17 99 16 18 19 24
39 27 91 4 52 2 65 -9 61 -9 -3 -16 -27 -20 -61 -4 -31 -12 -64 -19 -72 -16
-19 -50 -19 -78 1 -24 17 -23 48 4 91 8 12 14 29 14 38 0 28 -25 15 -42 -23z"/>
<path d="M10100 7884 c-7 -8 -9 -14 -5 -14 4 0 -13 -19 -38 -42 -54 -51 -66
-87 -43 -123 21 -32 65 -33 113 -4 48 30 66 68 51 111 -24 69 -56 99 -78 72z
m44 -70 c12 -31 5 -53 -25 -78 -73 -62 -113 -9 -46 62 34 35 61 41 71 16z"/>
<path d="M12650 7898 c0 -2 -16 -48 -34 -102 -19 -55 -33 -104 -30 -108 10
-16 24 -7 38 25 15 35 92 127 107 127 5 0 -1 -20 -13 -44 -20 -43 -20 -76 2
-76 6 0 33 21 61 47 44 41 49 43 39 19 -31 -81 6 -139 74 -116 36 11 63 36 53
46 -3 4 -24 -1 -45 -9 -64 -26 -79 9 -42 92 38 84 20 93 -60 29 -37 -29 -49
-35 -41 -21 6 12 11 33 11 47 0 34 -25 34 -73 2 -33 -22 -42 -18 -24 12 9 13
1 32 -14 32 -5 0 -9 -1 -9 -2z"/>
<path d="M4362 7843 c-57 -55 -85 -120 -62 -148 29 -35 128 -3 152 50 6 14 14
25 18 25 14 0 19 41 8 71 -9 27 -34 49 -56 49 -5 0 -32 -21 -60 -47z m88 -34
c0 -38 -62 -99 -102 -99 -16 0 -28 5 -28 13 0 16 33 67 59 92 12 11 27 25 34
31 18 17 37 -2 37 -37z"/>
<path d="M11981 7835 c-42 -69 -51 -131 -24 -164 25 -31 79 -33 100 -5 15 20
0 35 -18 17 -15 -15 -58 -3 -64 18 -7 21 12 99 24 99 12 0 51 76 44 84 -15 15
-31 2 -62 -49z"/>
<path d="M12438 7871 c-14 -11 -33 -39 -42 -61 -15 -38 -15 -44 0 -75 9 -19
30 -40 49 -49 37 -18 95 -21 95 -6 0 6 1 13 3 16 1 3 -17 7 -40 8 -42 2 -83
27 -83 50 0 7 19 18 42 26 50 18 80 59 62 87 -16 26 -56 27 -86 4z m62 -19 c0
-11 -30 -37 -52 -45 -24 -9 -23 2 4 30 21 23 48 31 48 15z"/>
<path d="M6404 7861 c-88 -54 -83 -142 6 -124 25 4 35 2 42 -10 5 -10 20 -17
33 -17 27 0 34 17 10 26 -21 9 -18 33 10 83 28 49 31 61 11 61 -7 0 -29 -23
-47 -52 -33 -51 -81 -79 -95 -56 -9 14 43 65 73 73 25 6 27 28 2 33 -8 1 -28
-6 -45 -17z"/>
<path d="M4640 7855 c-14 -8 -33 -14 -42 -15 -11 0 -18 -8 -18 -20 0 -10 -9
-43 -20 -71 -23 -56 -20 -94 4 -68 7 8 21 34 30 59 23 58 53 90 86 90 33 0 43
9 29 27 -14 17 -37 16 -69 -2z"/>
<path d="M6201 7833 c-23 -22 -44 -57 -52 -82 -13 -42 -12 -44 15 -67 29 -26
65 -31 97 -13 29 15 14 29 -24 22 -73 -11 -80 47 -14 115 28 29 37 32 65 27
29 -5 33 -4 30 12 -2 13 -14 19 -41 21 -33 3 -43 -2 -76 -35z"/>
<path d="M10727 7849 c-21 -11 -46 -34 -55 -50 -10 -16 -20 -29 -25 -29 -12 0
4 -83 20 -101 8 -9 25 -19 38 -21 32 -6 105 27 105 47 0 19 -11 19 -47 -2 -19
-10 -39 -14 -56 -9 -32 8 -35 31 -6 46 50 27 99 82 99 111 0 35 -18 37 -73 8z
m8 -54 c-22 -18 -42 -31 -45 -29 -7 8 58 64 73 64 6 -1 -6 -16 -28 -35z"/>
<path d="M10958 7849 c-47 -24 -49 -48 -8 -99 41 -51 39 -70 -5 -70 -24 0 -39
6 -47 20 -24 38 -50 20 -28 -20 20 -37 110 -46 137 -13 15 19 1 65 -32 105
-25 30 -26 33 -9 45 10 7 26 11 35 8 20 -7 32 18 16 34 -14 14 -15 14 -59 -10z"/>
<path d="M5182 7844 c-27 -19 -28 -40 -2 -79 23 -34 26 -65 8 -83 -18 -18 -27
-15 -38 13 -13 35 -28 31 -26 -6 4 -51 47 -65 84 -26 28 29 28 70 1 114 -24
38 -16 53 29 53 13 0 22 6 22 15 0 20 -49 20 -78 -1z"/>
<path d="M9299 7837 c-36 -19 -45 -29 -47 -56 -2 -18 4 -43 12 -56 28 -42 21
-58 -19 -51 -27 5 -35 4 -35 -7 0 -27 65 -38 88 -15 16 16 15 59 -3 82 -8 11
-15 28 -15 37 0 22 37 49 68 49 17 0 23 5 20 17 -5 25 -20 25 -69 0z"/>
<path d="M2057 7843 c-13 -13 -7 -51 9 -57 20 -8 44 11 44 34 0 23 -37 39 -53
23z"/>
<path d="M5918 7815 c-40 -40 -54 -87 -38 -131 15 -39 49 -74 73 -74 20 0 87
60 87 79 0 20 -29 11 -45 -13 -24 -36 -46 -41 -67 -14 -21 28 -23 48 -4 48 23
0 72 47 86 81 12 28 12 33 -5 45 -29 21 -48 17 -87 -21z m62 -10 c0 -18 -43
-65 -60 -65 -20 0 -9 29 21 54 36 30 39 31 39 11z"/>
<path d="M9142 7834 c-36 -25 -82 -158 -61 -178 14 -15 33 10 36 49 1 19 9 50
19 70 13 28 22 35 45 35 33 0 38 15 10 30 -25 13 -22 13 -49 -6z"/>
<path d="M9001 7773 c-17 -98 -17 -106 -6 -110 15 -5 33 49 41 120 6 46 4 57
-8 57 -10 0 -18 -20 -27 -67z"/>
<path d="M13971 7799 c-34 -34 -41 -78 -16 -99 12 -10 24 -11 52 -2 43 13 55
8 27 -12 -25 -19 -7 -40 28 -31 23 6 25 10 21 44 -4 26 0 47 12 65 19 29 14
59 -9 50 -8 -3 -17 -1 -21 5 -13 22 -63 12 -94 -20z m83 -5 c21 -8 9 -30 -30
-55 -52 -32 -74 -6 -32 38 22 24 35 27 62 17z"/>
<path d="M14277 7627 c-76 -18 -127 -103 -113 -189 l6 -38 -54 0 c-39 0 -55
-4 -60 -15 -4 -12 5 -15 54 -15 l60 0 0 -35 c0 -53 -25 -103 -57 -116 -27 -10
-27 -11 -9 -24 13 -10 24 -11 36 -5 27 14 60 91 60 136 0 34 3 40 20 40 26 -1
28 17 2 29 -41 19 -38 126 5 170 25 25 81 42 106 32 18 -7 41 8 33 21 -9 15
-47 19 -89 9z"/>
<path d="M14957 7634 c-4 -4 -7 -23 -7 -43 0 -20 -10 -64 -21 -98 l-22 -61
-55 -9 c-33 -5 -57 -14 -60 -22 -4 -11 5 -13 47 -8 28 3 51 2 51 -2 0 -4 -9
-34 -20 -66 -24 -71 -26 -125 -5 -125 10 0 15 11 16 33 0 17 10 61 22 97 l22
65 83 3 c64 2 82 6 82 17 0 12 -16 15 -75 15 -41 0 -75 1 -75 3 0 1 9 25 19
52 31 83 30 181 -2 149z"/>
<path d="M13081 7593 c-5 -21 -13 -56 -18 -78 l-9 -40 -71 -3 c-46 -2 -75 -8
-83 -17 -16 -19 -3 -40 15 -25 13 11 125 12 125 1 0 -15 -29 -109 -43 -142
-15 -37 -7 -74 11 -54 11 11 46 114 57 163 5 22 12 32 26 32 22 0 26 18 6 26
-12 4 -11 17 2 72 9 37 19 72 23 78 9 13 0 24 -18 24 -7 0 -17 -17 -23 -37z"/>
<path d="M6590 7565 c0 -51 -43 -232 -66 -276 -18 -35 -18 -59 -1 -59 7 0 24
25 36 55 13 31 43 77 67 103 l43 47 -2 -58 c-2 -53 1 -61 26 -81 15 -12 27
-27 27 -33 0 -5 9 -22 21 -37 16 -20 29 -26 58 -26 44 0 100 17 120 36 25 23
5 27 -45 10 -71 -24 -102 -21 -116 10 -10 22 -9 27 7 37 53 29 100 108 84 139
-25 47 -111 -6 -124 -75 -11 -57 -26 -43 -24 21 3 87 -15 102 -73 61 l-30 -22
8 34 c13 53 11 152 -3 156 -9 3 -13 -9 -13 -42z m230 -160 c0 -8 -16 -32 -35
-53 -26 -28 -35 -33 -35 -19 0 24 26 74 42 80 22 9 28 7 28 -8z"/>
<path d="M13247 7592 c-21 -23 -32 -53 -51 -149 -9 -46 -25 -103 -36 -129 -24
-54 -25 -64 -6 -64 7 0 24 24 37 53 13 28 25 55 27 60 2 4 -3 7 -12 7 -9 0
-16 5 -16 10 0 11 22 9 31 -3 3 -4 18 -2 33 4 31 15 46 2 46 -38 0 -12 9 -30
19 -40 10 -10 20 -27 22 -37 7 -35 55 -61 116 -61 36 0 58 4 60 13 3 8 -8 12
-36 12 -46 0 -111 23 -111 39 0 6 18 16 41 22 52 16 83 54 75 93 -8 36 -23 56
-45 56 -23 0 -68 -48 -82 -88 -14 -40 -24 -34 -33 17 -8 52 -34 68 -76 46
l-31 -16 6 38 c4 21 11 53 17 71 5 18 8 42 5 53 -3 10 -1 22 4 25 5 3 9 0 9
-6 0 -6 5 -8 10 -5 12 8 13 35 2 35 -5 0 -16 -8 -25 -18z m206 -203 c3 -11 3
-27 1 -34 -6 -15 -62 -41 -70 -32 -11 10 39 87 56 87 4 0 10 -9 13 -21z"/>
<path d="M4215 7590 c-4 -6 -2 -32 5 -58 8 -34 8 -56 1 -75 -10 -25 -15 -27
-66 -27 -42 0 -55 -3 -55 -15 0 -11 12 -15 50 -15 28 0 50 -2 50 -5 0 -2 -11
-34 -25 -71 -29 -76 -32 -114 -10 -114 8 0 15 8 15 18 0 15 48 160 57 172 2 2
23 4 46 5 33 0 42 4 45 19 3 14 0 17 -13 12 -9 -3 -28 -3 -41 0 -19 5 -23 11
-18 26 7 24 -15 138 -27 138 -4 0 -11 -5 -14 -10z"/>
<path d="M6439 7598 c0 -2 -2 -12 -4 -23 -12 -62 -30 -107 -49 -117 -11 -6
-43 -12 -71 -14 -34 -2 -50 -7 -50 -16 0 -10 16 -13 63 -11 34 1 62 -2 62 -7
0 -8 -13 -75 -26 -137 -3 -16 0 -23 10 -23 17 0 23 17 40 112 l12 73 42 -2
c29 -1 42 2 42 12 0 14 -21 25 -51 25 -23 0 -23 2 -4 64 19 61 19 66 0 66 -8
0 -15 -1 -16 -2z"/>
<path d="M9890 7568 c0 -11 5 -18 13 -16 18 7 20 35 2 35 -8 0 -15 -9 -15 -19z"/>
<path d="M11126 7572 c-3 -5 -14 -49 -25 -98 -11 -49 -29 -119 -39 -155 -12
-43 -16 -74 -10 -88 9 -27 34 -22 31 5 -2 10 14 87 33 169 20 83 37 154 38
159 2 12 -21 19 -28 8z"/>
<path d="M4810 7533 c-7 -16 -27 -73 -46 -128 -24 -74 -41 -107 -64 -127 -34
-32 -80 -37 -104 -12 -41 41 7 84 95 84 28 0 39 4 39 15 0 11 -12 15 -45 15
-112 0 -172 -74 -110 -135 36 -37 94 -34 140 6 l35 31 11 -28 c5 -16 16 -32
22 -36 22 -14 114 -9 127 7 14 17 15 17 -60 19 -52 1 -54 2 -63 33 -11 38 10
140 43 208 11 23 20 49 20 58 0 27 -25 20 -40 -10z"/>
<path d="M5487 7534 c-14 -14 -7 -35 11 -32 9 2 17 10 17 17 0 16 -18 25 -28
15z"/>
<path d="M3270 7496 c0 -17 5 -26 16 -26 10 0 14 7 12 22 -5 32 -28 35 -28 4z"/>
<path d="M14382 7498 c-16 -16 -15 -38 1 -38 22 0 40 18 34 34 -8 19 -19 20
-35 4z"/>
<path d="M2152 7424 c-59 -44 -71 -63 -45 -71 6 -2 14 5 18 16 3 12 13 21 21
21 9 0 31 12 51 27 l36 27 -7 -24 c-4 -14 -27 -64 -52 -112 -54 -106 -43 -128
25 -50 25 29 49 52 53 52 3 0 12 -17 19 -37 23 -74 50 -82 98 -28 37 43 45 71
37 129 -7 46 -27 73 -46 61 -15 -9 -12 -52 5 -59 29 -11 10 -93 -29 -125 -14
-12 -19 -7 -37 38 -17 40 -27 51 -44 51 -22 0 -22 0 -6 45 12 34 13 49 5 63
-19 29 -37 25 -102 -24z"/>
<path d="M10020 7463 c-61 -12 -64 -41 -11 -106 32 -38 38 -52 32 -70 -10 -27
-43 -34 -61 -12 -12 14 -11 18 1 25 11 7 11 12 2 21 -16 16 -43 -5 -43 -32 0
-26 39 -59 70 -59 32 0 55 24 65 67 6 28 1 37 -35 77 -44 48 -42 58 16 58 27
0 34 4 32 17 -3 17 -26 22 -68 14z"/>
<path d="M7989 7444 c-30 -20 -67 -70 -78 -110 -11 -39 3 -85 35 -115 33 -31
111 -34 143 -5 30 27 17 37 -25 20 -66 -27 -124 5 -124 68 0 21 5 28 20 29 11
1 25 3 30 4 6 1 14 3 18 4 5 0 18 10 30 21 28 26 29 75 3 90 -24 12 -21 13
-52 -6z m39 -41 c-4 -20 -53 -51 -64 -40 -10 9 35 57 53 57 8 0 13 -8 11 -17z"/>
<path d="M2770 7439 c0 -5 -4 -8 -10 -4 -13 8 -60 -5 -60 -17 0 -6 16 -29 36
-50 30 -34 35 -45 30 -71 -8 -41 -33 -77 -52 -77 -8 0 -28 10 -45 22 -24 18
-32 20 -38 9 -7 -11 -13 -9 -30 8 -22 22 -28 56 -11 66 12 7 14 82 2 89 -19
12 -96 -19 -129 -51 -60 -60 -32 -118 46 -97 38 10 41 9 61 -18 15 -20 28 -28
40 -25 10 3 32 -4 49 -14 56 -34 93 -24 121 32 27 53 25 91 -7 129 -21 26 -24
33 -12 41 19 12 25 11 39 -6 17 -21 33 1 19 27 -10 19 -49 25 -49 7z m-220
-93 c0 -27 -15 -42 -51 -51 -42 -10 -44 12 -5 51 38 38 56 38 56 0z"/>
<path d="M3600 7443 c-54 -21 -64 -70 -25 -123 14 -19 25 -42 25 -52 0 -31
-59 -50 -107 -34 -34 11 -30 -22 4 -35 55 -20 133 20 133 69 0 15 -11 44 -25
64 -14 20 -25 42 -25 47 0 16 46 43 67 39 11 -2 18 3 18 12 0 16 -38 23 -65
13z"/>
<path d="M7476 7409 c-40 -47 -58 -87 -54 -122 4 -45 34 -46 90 -4 l46 35 -19
-56 c-10 -32 -34 -106 -53 -166 -20 -60 -36 -120 -36 -133 0 -26 27 -32 36 -8
8 21 85 65 112 65 14 0 22 6 22 16 0 14 -8 16 -41 11 -22 -3 -49 -13 -60 -23
-10 -9 -21 -15 -24 -12 -2 2 25 92 60 199 36 107 65 197 65 202 0 18 -32 5
-38 -15 -6 -21 -7 -21 -12 7 -4 25 -10 31 -36 33 -25 2 -37 -3 -58 -29z m72
-23 c9 -20 7 -27 -16 -49 -15 -13 -39 -32 -54 -42 -27 -17 -28 -17 -28 1 0 34
57 114 80 114 4 0 12 -11 18 -24z"/>
<path d="M7846 7399 c-12 -78 -66 -156 -99 -143 -9 3 -19 21 -23 40 -6 33 -4
52 11 102 6 17 3 22 -9 22 -33 0 -49 -109 -23 -160 18 -36 57 -47 90 -25 33
21 87 128 87 172 0 49 -26 43 -34 -8z"/>
<path d="M8434 7421 c-43 -26 -64 -59 -64 -99 0 -100 94 -139 208 -85 24 11
32 21 30 36 -4 28 -28 34 -35 9 -3 -15 -18 -24 -49 -30 -57 -12 -92 -5 -110
24 -18 27 -11 44 18 44 50 0 106 60 93 101 -8 25 -50 25 -91 0z m56 -25 c0
-18 -38 -46 -62 -46 -28 0 -21 18 15 40 38 24 47 25 47 6z"/>
<path d="M12210 7417 c-77 -40 -76 -76 2 -101 43 -14 52 -60 16 -88 -12 -9
-28 -18 -35 -18 -21 0 -43 31 -43 62 0 42 -24 31 -28 -14 -2 -29 2 -40 24 -57
35 -28 66 -27 103 5 25 21 31 34 31 64 0 44 -19 68 -62 77 -36 7 -32 23 12 45
26 13 36 15 42 5 10 -17 33 7 25 27 -9 22 -37 20 -87 -7z"/>
<path d="M3958 7393 c-24 -20 -44 -38 -45 -38 -1 0 -5 -24 -9 -53 -5 -43 -4
-52 9 -52 9 0 19 17 26 46 15 60 60 107 98 102 20 -2 28 2 28 12 0 10 -12 16
-32 18 -25 3 -41 -5 -75 -35z"/>
<path d="M10885 7412 c-60 -37 -84 -111 -49 -147 16 -16 28 -16 66 0 12 5 17
1 20 -17 2 -13 11 -24 21 -26 16 -3 18 1 12 28 -5 22 0 49 15 91 13 35 19 64
14 69 -21 19 -69 20 -99 2z m55 -42 c0 -26 -48 -80 -71 -80 -31 0 -23 38 16
77 35 35 55 36 55 3z"/>
<path d="M11969 7322 l-51 -107 -18 63 c-19 64 -55 132 -70 132 -14 0 -23 -22
-13 -29 21 -13 72 -155 75 -206 1 -5 -22 -58 -51 -117 -49 -102 -61 -150 -42
-162 13 -8 32 19 26 35 -3 8 24 75 61 149 82 167 158 323 162 331 2 4 -4 9
-12 12 -12 5 -28 -21 -67 -101z"/>
<path d="M8144 7364 c-16 -49 -17 -59 -4 -95 9 -24 27 -48 43 -57 26 -16 30
-16 65 3 50 27 75 81 66 141 -7 46 -19 63 -35 47 -5 -5 -5 -23 1 -43 26 -89
-78 -169 -110 -85 -9 24 -6 53 15 123 6 16 3 22 -8 22 -11 0 -22 -19 -33 -56z"/>
<path d="M9846 7408 c-2 -7 -13 -40 -25 -74 -23 -68 -27 -108 -10 -102 13 4
70 168 63 180 -8 12 -24 9 -28 -4z"/>
<path d="M11437 7413 c-3 -5 -1 -33 3 -63 7 -56 5 -75 -13 -98 -15 -19 -37 5
-37 40 0 46 -23 43 -77 -12 -50 -49 -83 -64 -83 -35 0 8 11 44 24 80 14 39 20
68 14 71 -15 10 -26 -6 -48 -70 -26 -76 -26 -112 0 -126 24 -13 60 3 107 47
l30 28 12 -27 c19 -43 50 -46 84 -8 27 31 29 37 23 91 -4 36 -3 60 4 64 5 3
10 10 10 16 0 11 -47 12 -53 2z"/>
<path d="M3357 7375 c-54 -55 -73 -98 -59 -130 16 -34 30 -24 38 25 8 46 64
118 83 106 9 -6 11 -30 9 -80 -2 -55 0 -71 11 -71 18 0 27 134 11 164 -16 32
-54 26 -93 -14z"/>
<path d="M3744 7391 c-37 -23 -84 -81 -84 -104 0 -31 23 -66 50 -77 40 -17
114 -9 118 12 3 15 -3 16 -46 11 -42 -5 -53 -2 -72 17 l-22 22 52 19 c29 10
58 23 66 30 23 19 27 49 8 70 -21 24 -31 24 -70 0z m35 -45 c-21 -19 -69 -37
-69 -26 0 15 74 62 79 49 2 -6 -3 -16 -10 -23z"/>
<path d="M5462 7394 c-20 -39 -52 -168 -43 -177 15 -15 28 1 35 43 3 22 13 61
22 86 10 31 12 50 6 56 -7 7 -13 4 -20 -8z"/>
<path d="M5606 7373 l-36 -38 0 28 c0 17 -5 27 -15 27 -10 0 -15 -10 -15 -34
0 -18 -7 -53 -15 -76 -18 -52 -19 -60 -2 -60 6 0 24 19 39 43 35 56 102 129
93 102 -24 -76 -28 -104 -17 -118 16 -19 46 -27 62 -17 17 10 3 30 -21 30 -23
0 -23 5 -4 60 8 23 15 53 15 66 0 38 -42 31 -84 -13z"/>
<path d="M14462 7390 c-19 -12 -41 -39 -52 -63 -22 -48 -26 -107 -7 -107 15 1
52 50 37 50 -13 0 -13 23 2 55 14 32 56 55 98 55 43 0 34 24 -11 28 -21 1 -47
-5 -67 -18z"/>
<path d="M3237 7386 c-3 -8 -3 -23 -1 -33 3 -10 -4 -40 -15 -67 -20 -46 -20
-71 1 -64 14 5 48 97 48 129 0 32 -25 58 -33 35z"/>
<path d="M4374 7381 c-62 -38 -78 -85 -49 -141 23 -44 44 -52 109 -38 31 6 56
15 56 19 0 20 -3 24 -13 21 -57 -17 -99 -18 -112 -5 -26 25 -16 39 41 57 61
19 68 27 56 71 -10 37 -44 44 -88 16z m56 -30 c0 -12 -9 -21 -24 -25 -13 -3
-32 -9 -43 -12 -11 -4 -6 5 15 25 37 36 52 39 52 12z"/>
<path d="M14651 7377 c-25 -13 -46 -28 -49 -35 -2 -7 10 -26 27 -43 17 -17 31
-37 31 -44 0 -16 -60 -38 -92 -33 -15 2 -23 -2 -23 -12 0 -36 114 -16 141 25
18 27 9 54 -28 79 -26 19 -18 29 34 45 25 9 35 17 31 27 -7 19 -20 17 -72 -9z"/>
<path d="M11589 7353 c-51 -31 -77 -111 -47 -141 18 -18 57 -14 85 8 l26 20
23 -25 c26 -28 74 -34 74 -10 0 8 -9 15 -20 15 -11 0 -27 11 -35 24 -15 22
-15 28 0 62 17 41 14 48 -18 51 -12 0 -31 4 -42 7 -11 3 -32 -1 -46 -11z m70
-40 c-25 -66 -99 -110 -99 -59 0 35 36 74 73 79 17 2 33 5 34 5 1 1 -2 -10 -8
-25z"/>
<path d="M14312 7303 c-1 -27 -2 -57 -4 -68 -2 -12 3 -20 12 -20 20 0 35 80
21 112 -17 37 -29 27 -29 -24z"/>
<path d="M5001 7083 c-7 -43 -15 -90 -17 -105 -5 -24 -11 -27 -75 -38 -38 -7
-71 -16 -75 -21 -11 -18 6 -28 34 -19 15 4 44 11 66 14 l39 5 -7 -42 c-18
-121 -19 -170 -5 -165 9 3 19 37 28 106 l15 101 45 3 c58 4 60 22 3 26 l-43 3
7 37 c3 20 12 65 19 99 7 34 10 65 7 68 -18 17 -29 -4 -41 -72z"/>
<path d="M5158 7133 c-1 -16 -2 -37 -3 -48 -1 -11 -4 -25 -7 -30 -6 -10 -45
-195 -55 -262 -8 -54 20 -40 42 19 10 29 30 64 44 78 l26 25 3 -35 c4 -42 29
-73 54 -67 10 3 18 0 18 -8 0 -7 9 -24 21 -39 23 -29 75 -35 118 -13 34 17 42
42 10 33 -13 -4 -41 -10 -61 -13 -34 -5 -39 -3 -50 22 -10 23 -10 29 0 33 26
8 70 52 82 82 16 38 7 60 -24 60 -34 0 -65 -28 -80 -75 -18 -51 -49 -56 -54
-8 -4 44 -25 59 -59 44 -14 -6 -27 -10 -29 -8 -4 4 28 165 42 215 5 18 2 22
-15 22 -16 0 -21 -7 -23 -27z m205 -225 c-18 -31 -43 -49 -43 -30 0 14 40 62
52 62 5 0 2 -14 -9 -32z"/>
<path d="M3275 7138 c-10 -33 -65 -326 -65 -346 0 -40 24 -19 33 29 20 112 60
285 67 293 12 12 1 36 -16 36 -8 0 -16 -6 -19 -12z"/>
<path d="M2209 7093 c-1 -5 -2 -12 -3 -18 0 -5 -10 -32 -20 -59 l-20 -48 -43
5 c-37 4 -44 2 -41 -12 2 -11 15 -17 40 -19 l36 -3 -5 -72 c-5 -64 -3 -75 17
-99 17 -22 29 -28 58 -27 51 1 85 12 90 28 4 11 -6 12 -50 7 -71 -9 -88 6 -87
72 2 87 7 94 84 112 80 19 106 47 34 37 -24 -4 -57 -9 -72 -13 l-28 -7 22 46
c21 43 21 77 -1 77 -5 0 -11 -3 -11 -7z"/>
<path d="M3902 6993 c-5 -10 -17 -43 -26 -73 -24 -84 -31 -90 -51 -45 -9 22
-21 59 -27 82 -6 25 -16 43 -24 43 -19 0 -18 -20 7 -93 25 -74 44 -107 64
-107 18 0 50 61 66 125 11 44 14 47 41 43 56 -9 48 25 -9 37 -25 5 -34 2 -41
-12z"/>
<path d="M3390 6981 c-46 -24 -70 -59 -77 -108 -7 -52 20 -83 71 -83 39 0 96
28 96 48 0 16 -20 15 -44 -3 -25 -19 -70 -19 -86 0 -7 9 -9 26 -4 47 4 18 9
27 11 21 7 -20 58 -15 87 8 39 31 49 54 30 73 -20 21 -42 20 -84 -3z m60 -20
c0 -12 -21 -27 -49 -36 -31 -10 -24 15 10 32 29 15 39 16 39 4z"/>
<path d="M6935 6988 c-2 -7 -9 -33 -15 -57 -18 -70 -75 -112 -108 -79 -17 17
-15 62 5 97 22 37 10 52 -19 24 -29 -30 -37 -116 -13 -143 38 -42 121 -16 148
47 21 50 36 110 29 117 -9 10 -22 7 -27 -6z"/>
<path d="M7052 6985 c-29 -21 -52 -67 -52 -106 0 -22 10 -41 34 -65 31 -31 40
-34 90 -34 60 0 102 14 111 38 9 24 -2 26 -39 8 -69 -33 -145 -14 -160 39 -5
18 -1 21 26 23 65 5 123 56 102 90 -15 23 -82 28 -112 7z m82 -29 c-6 -16 -47
-36 -76 -36 -21 0 -21 0 2 25 26 27 84 36 74 11z"/>
<path d="M3581 6953 c-28 -35 -35 -66 -21 -92 15 -28 42 -26 79 5 l31 26 0
-25 c0 -24 27 -57 48 -57 17 0 15 19 -3 36 -8 9 -15 33 -15 55 0 74 -76 108
-119 52z m66 -11 c15 -10 -7 -46 -37 -62 -26 -14 -31 0 -13 38 16 32 28 38 50
24z"/>
<path d="M4048 6958 c-49 -28 -63 -63 -48 -117 21 -78 102 -101 196 -55 40 19
59 54 30 54 -9 0 -16 -4 -16 -9 0 -10 -84 -41 -110 -41 -22 0 -70 38 -70 55 0
7 15 16 33 20 51 11 77 32 77 63 0 54 -32 65 -92 30z m62 -33 c0 -11 -48 -35
-71 -35 -20 0 -7 22 23 40 33 20 48 18 48 -5z"/>
<path d="M6185 6949 c-60 -53 -83 -118 -48 -138 23 -12 60 3 101 42 18 18 31
25 28 17 -38 -112 -95 -304 -100 -336 -5 -29 -4 -44 5 -50 8 -4 15 -2 17 6 3
7 19 29 37 48 24 27 39 35 63 34 39 -1 44 25 6 34 -18 5 -34 0 -56 -16 l-30
-22 7 33 c4 18 30 102 57 188 l50 155 -24 18 c-35 27 -72 22 -113 -13z m85 -6
c0 -14 -92 -103 -106 -103 -18 0 -17 4 1 39 21 41 105 91 105 64z"/>
<path d="M6620 6953 c-39 -33 -63 -84 -54 -118 14 -56 141 -78 152 -27 1 9 -8
11 -37 6 -47 -8 -81 9 -81 39 0 18 11 28 51 44 45 20 50 25 47 50 -4 39 -37
41 -78 6z"/>
<path d="M2430 6945 c-7 -8 -10 -15 -6 -15 3 0 -3 -15 -14 -32 -33 -54 -21
-115 27 -137 52 -24 144 44 159 118 5 24 1 35 -21 55 -23 21 -38 26 -80 26
-35 0 -57 -5 -65 -15z m122 -32 c26 -23 23 -38 -18 -83 -27 -29 -44 -40 -65
-40 -64 0 -60 101 4 108 15 2 27 10 27 18 0 19 29 18 52 -3z"/>
<path d="M6366 6917 c-30 -78 -14 -127 41 -127 52 0 133 120 108 160 -12 20
-23 9 -30 -30 -7 -43 -52 -100 -79 -100 -26 0 -30 29 -12 79 20 56 20 61 2 61
-7 0 -21 -19 -30 -43z"/>
<path d="M7333 6783 c-17 -6 -17 -33 0 -33 14 0 37 20 37 32 0 9 -18 9 -37 1z"/>
<path d="M5083 6359 c-8 -8 -9 -19 -1 -38 12 -34 0 -253 -16 -263 -6 -4 -26
-8 -43 -8 -21 0 -33 -5 -33 -13 0 -22 8 -25 50 -17 l40 7 0 -78 c0 -64 3 -79
15 -79 12 0 15 16 15 84 l0 84 38 7 c20 4 43 11 50 17 20 17 14 31 -13 24 -14
-3 -36 -9 -49 -12 l-25 -6 2 140 c2 140 -5 176 -30 151z"/>
<path d="M11210 6348 c0 -13 -19 -66 -42 -120 -47 -105 -55 -111 -140 -102
-28 3 -38 1 -38 -10 0 -17 68 -31 101 -21 20 7 21 5 15 -21 -27 -122 -29 -140
-15 -170 12 -24 20 -29 49 -29 31 0 35 3 38 28 4 29 -14 37 -36 15 -10 -10
-15 -10 -23 2 -10 17 -6 58 17 137 l14 51 52 9 c71 11 80 38 11 31 l-50 -5 38
86 c41 91 49 141 24 141 -9 0 -15 -9 -15 -22z"/>
<path d="M10199 6318 c0 -1 -2 -10 -4 -19 -1 -8 -17 -80 -35 -160 -34 -148
-44 -259 -24 -266 7 -2 13 20 17 59 3 35 20 126 38 203 37 160 39 176 22 182
-7 3 -13 3 -14 1z"/>
<path d="M6227 6298 c-57 -12 -88 -31 -138 -85 -56 -60 -73 -107 -66 -181 7
-65 40 -120 99 -162 49 -36 105 -39 213 -11 39 11 73 17 76 15 4 -2 9 -16 12
-32 7 -35 47 -86 58 -75 5 5 -3 31 -16 57 -14 27 -25 54 -25 61 0 6 22 27 50
48 59 44 80 74 90 129 10 54 -4 99 -43 138 -40 40 -85 60 -134 60 -21 0 -49 7
-61 16 -34 24 -73 31 -115 22z m109 -69 c4 -7 24 -9 55 -5 57 8 93 -7 133 -54
48 -58 29 -155 -41 -206 -55 -40 -55 -40 -52 12 3 44 1 49 -18 52 -20 3 -21 0
-16 -57 l6 -59 -54 -17 c-30 -9 -81 -18 -114 -21 -55 -6 -63 -4 -101 24 -105
77 -110 222 -10 310 35 31 40 32 121 32 51 0 87 -4 91 -11z"/>
<path d="M2917 6273 c-4 -7 -7 -93 -11 -328 -1 -88 15 -114 26 -41 7 50 36
106 54 106 6 0 19 -11 28 -25 10 -14 28 -31 42 -37 13 -6 24 -20 24 -31 0 -28
63 -87 94 -87 39 0 125 21 132 32 4 5 -1 17 -10 26 -14 15 -17 15 -28 0 -7 -9
-34 -20 -60 -23 -42 -6 -50 -4 -72 18 -32 32 -33 43 -3 51 12 3 37 19 55 36
42 38 42 80 0 91 -34 9 -69 -16 -88 -61 -17 -42 -29 -39 -69 18 -25 36 -45 40
-74 15 -19 -18 -19 -16 -16 111 3 92 1 130 -8 133 -6 2 -13 0 -16 -4z m271
-255 c-6 -16 -56 -53 -64 -46 -11 11 28 58 48 58 11 0 18 -5 16 -12z"/>
<path d="M2403 6258 c-13 -22 24 -26 232 -25 168 2 225 5 225 14 0 7 -15 14
-32 17 -49 8 -419 2 -425 -6z"/>
<path d="M4872 6243 c4 -21 33 -25 33 -3 0 8 -8 16 -18 18 -14 3 -18 -1 -15
-15z"/>
<path d="M9594 6219 c-10 -17 13 -36 27 -22 12 12 4 33 -11 33 -5 0 -12 -5
-16 -11z"/>
<path d="M2706 6198 c-3 -13 -7 -68 -11 -123 -3 -55 -8 -139 -12 -186 -4 -62
-2 -88 6 -94 19 -11 25 2 22 47 -1 22 2 82 8 132 22 202 23 246 7 246 -9 0
-18 -10 -20 -22z"/>
<path d="M4290 6196 c0 -8 4 -17 9 -20 11 -7 33 18 24 27 -12 12 -33 7 -33 -7z"/>
<path d="M8353 6194 c-8 -22 16 -47 33 -33 20 17 17 36 -7 42 -12 3 -22 0 -26
-9z"/>
<path d="M3920 6134 c-70 -59 -94 -156 -84 -336 6 -106 9 -118 25 -118 20 0
23 26 20 168 -1 49 1 53 18 47 58 -18 141 89 141 182 0 42 -4 55 -22 67 -32
23 -62 20 -98 -10z m74 -10 c40 -15 6 -139 -50 -183 -33 -26 -69 -13 -60 22 3
12 6 39 6 59 0 28 8 45 34 72 34 37 43 40 70 30z"/>
<path d="M10000 6130 c0 -22 7 -25 29 -11 16 10 6 31 -15 31 -8 0 -14 -9 -14
-20z"/>
<path d="M4146 6111 c-42 -46 -74 -201 -41 -201 20 0 35 33 40 88 5 67 4 65
20 86 12 15 17 17 29 7 24 -20 41 -3 20 20 -22 24 -46 24 -68 0z"/>
<path d="M4407 6096 c-53 -49 -52 -147 1 -175 50 -27 123 -7 147 39 21 41 6
99 -36 134 -38 32 -78 33 -112 2z m58 -26 c9 15 22 12 44 -11 30 -33 32 -68 5
-96 -45 -45 -114 -20 -114 41 0 42 27 81 45 66 9 -8 15 -8 20 0z"/>
<path d="M9372 6104 c-25 -17 -28 -50 -7 -78 20 -27 19 -59 -3 -79 -26 -24
-41 -21 -52 8 -11 29 -25 32 -34 9 -11 -28 25 -64 62 -64 57 0 90 81 57 140
-8 14 -14 28 -15 33 0 11 48 9 55 -3 9 -15 35 -12 35 5 0 13 -47 45 -67 45 -5
0 -19 -7 -31 -16z"/>
<path d="M10600 6113 c-8 -3 -32 -21 -52 -41 -21 -20 -41 -33 -44 -29 -11 10
-34 -13 -28 -28 3 -7 -2 -38 -11 -70 -12 -38 -14 -60 -7 -67 17 -17 28 -2 41
58 16 71 81 149 116 140 28 -7 37 2 24 25 -10 20 -14 21 -39 12z"/>
<path d="M4683 6086 c-15 -12 -34 -21 -42 -18 -12 4 -13 -6 -8 -57 7 -66 21
-101 39 -101 7 0 8 12 4 32 -13 66 24 146 62 134 22 -7 47 8 38 23 -12 19 -63
12 -93 -13z"/>
<path d="M6817 6048 c6 -72 -14 -127 -53 -150 -30 -17 -33 -18 -49 -2 -13 13
-16 31 -13 78 2 49 0 61 -12 61 -12 0 -16 -15 -18 -67 -3 -61 0 -71 22 -93 34
-34 58 -31 105 13 30 28 41 47 46 82 10 68 3 124 -16 128 -13 2 -15 -6 -12
-50z"/>
<path d="M5383 6022 c-23 -38 -45 -76 -49 -85 -11 -29 -21 -19 -44 46 -25 71
-36 85 -50 71 -7 -7 2 -38 25 -94 34 -82 35 -86 19 -118 -14 -31 -46 -112 -80
-208 -18 -49 -15 -145 4 -152 7 -2 12 6 12 23 0 28 27 135 62 245 22 70 67
158 130 257 35 55 42 84 20 83 -4 -1 -26 -31 -49 -68z"/>
<path d="M7536 6081 c-41 -9 -65 -47 -79 -124 -9 -57 -9 -71 6 -101 33 -69
122 -66 196 8 38 39 42 46 27 52 -12 5 -30 -5 -60 -35 -33 -33 -49 -41 -78
-41 -42 0 -68 27 -68 70 0 38 11 47 64 55 60 9 86 32 78 71 -9 53 -22 59 -86
45z m52 -57 c-2 -12 -16 -21 -42 -26 -45 -10 -50 -7 -41 21 7 22 64 44 78 31
5 -4 7 -16 5 -26z"/>
<path d="M8463 6065 c-43 -18 -44 -54 -3 -97 54 -56 29 -98 -45 -72 -46 15
-55 11 -31 -15 19 -21 74 -35 100 -25 23 9 47 59 39 81 -3 10 -20 33 -36 51
-35 36 -28 55 20 54 37 0 46 7 32 24 -14 17 -35 17 -76 -1z"/>
<path d="M10273 6048 c-38 -42 -45 -60 -32 -97 13 -38 32 -44 74 -27 33 14 34
14 37 -12 2 -16 9 -27 18 -27 11 0 15 14 17 55 1 30 3 65 5 77 4 29 -14 32
-28 4 -29 -56 -85 -90 -97 -58 -5 15 16 59 38 77 13 11 18 10 30 -6 13 -18 14
-18 20 -1 21 53 -36 63 -82 15z"/>
<path d="M11330 6056 c-5 -14 -14 -26 -19 -26 -18 0 -39 -53 -31 -76 11 -27
48 -54 75 -54 31 0 94 47 101 77 8 32 -4 53 -42 74 -56 32 -73 33 -84 5z m84
-39 c26 -19 13 -50 -27 -72 -66 -35 -108 26 -44 65 38 24 47 24 71 7z"/>
<path d="M9710 6055 c-10 -12 -15 -13 -21 -4 -12 20 -39 1 -39 -28 0 -15 -9
-39 -20 -53 -11 -14 -20 -33 -20 -42 0 -31 20 -30 38 3 9 17 27 43 39 58 l23
26 -3 -34 c-1 -19 3 -36 9 -38 6 -2 36 17 65 42 l54 46 3 -60 c2 -43 7 -61 16
-61 9 0 15 20 18 63 8 96 -19 112 -89 52 l-41 -35 5 40 c4 31 2 40 -9 40 -9 0
-21 -7 -28 -15z"/>
<path d="M2192 6037 c-27 -29 -28 -49 -2 -72 24 -22 45 -14 54 18 6 27 -8 77
-22 77 -5 0 -18 -10 -30 -23z"/>
<path d="M6965 6046 c-54 -23 -73 -110 -35 -158 44 -56 160 -72 189 -26 16 25
6 36 -19 20 -28 -17 -87 -15 -121 5 -48 28 -49 63 -2 63 62 0 110 75 64 100
-25 13 -39 12 -76 -4z m60 -25 c7 -12 -34 -41 -58 -41 -25 0 -17 22 14 37 29
15 36 16 44 4z"/>
<path d="M7182 6048 c-28 -28 -5 -136 35 -168 37 -29 66 -25 100 13 41 47 57
90 49 132 -9 48 -31 40 -32 -11 -1 -68 -45 -131 -84 -119 -28 9 -42 39 -45
101 -2 61 -6 69 -23 52z"/>
<path d="M4277 6043 c-4 -3 -7 -28 -7 -54 0 -32 5 -49 15 -53 12 -4 15 5 15
54 0 55 -6 70 -23 53z"/>
<path d="M8337 6033 c-4 -3 -7 -22 -7 -42 0 -20 -4 -52 -10 -71 -11 -39 -5
-70 15 -70 9 0 15 24 20 86 7 79 0 116 -18 97z"/>
<path d="M9532 6006 c-14 -20 -22 -45 -20 -61 4 -37 21 -36 29 3 4 18 14 41
23 51 9 10 16 23 16 29 0 23 -25 11 -48 -22z"/>
<path d="M9966 6031 c-3 -5 -4 -15 -1 -23 3 -7 -3 -39 -14 -70 -19 -55 -18
-68 3 -68 13 0 49 120 44 146 -4 20 -23 30 -32 15z"/>
<path d="M4870 5985 c0 -34 -4 -45 -16 -45 -26 0 -9 -25 19 -28 27 -3 27 -3
27 57 0 48 -3 61 -15 61 -11 0 -15 -12 -15 -45z"/>
</g>
</svg>
