<?xml version="1.0" standalone="no"?>
<!DOCTYPE svg PUBLIC "-//W3C//DTD SVG 20010904//EN"
 "http://www.w3.org/TR/2001/REC-SVG-20010904/DTD/svg10.dtd">
<svg version="1.0" xmlns="http://www.w3.org/2000/svg"
 width="1872.000000pt" height="1404.000000pt" viewBox="0 0 1872.000000 1404.000000"
 preserveAspectRatio="xMidYMid meet">

<g transform="translate(0.000000,1404.000000) scale(0.100000,-0.100000)"
fill="#000000" stroke="none">
<path d="M3166 13554 c-3 -9 -6 -32 -6 -51 0 -31 -41 -253 -56 -305 -4 -14
-16 -18 -55 -18 -40 0 -49 -3 -49 -18 0 -14 7 -17 46 -13 l46 3 -7 -43 c-3
-24 -11 -59 -17 -77 -7 -24 -7 -37 1 -45 17 -17 30 3 42 68 18 103 12 97 87
93 54 -2 67 0 67 12 0 11 -15 16 -62 18 -35 2 -63 7 -63 13 0 5 11 61 25 125
14 64 25 134 25 157 0 23 7 48 16 58 9 10 13 23 9 28 -10 16 -42 13 -49 -5z"/>
<path d="M15204 13542 c-11 -8 -28 -43 -64 -135 -19 -49 -24 -55 -35 -41 -11
15 -16 15 -73 1 -87 -22 -146 -54 -182 -98 -36 -45 -38 -79 -7 -139 20 -42 36
-55 94 -77 20 -8 19 -12 -43 -108 -80 -125 -114 -188 -114 -215 0 -25 29 -27
36 -2 11 37 57 122 117 217 61 96 64 99 103 102 65 5 122 24 149 49 44 41 29
136 -29 182 l-25 19 41 99 c22 54 46 106 54 115 26 29 9 53 -22 31z m-129
-212 c3 -5 -3 -10 -15 -10 -12 0 -18 5 -15 10 3 6 10 10 15 10 5 0 12 -4 15
-10z m-105 -29 c0 -5 23 -15 50 -22 28 -7 50 -16 50 -20 0 -4 -20 -45 -46 -92
-48 -92 -51 -93 -105 -56 -62 43 -60 137 4 178 35 23 47 26 47 12z m169 -77
c23 -29 27 -74 11 -104 -9 -17 -114 -50 -125 -39 -5 6 78 169 87 169 4 0 16
-12 27 -26z"/>
<path d="M17770 13503 c-16 -27 -50 -78 -75 -114 -41 -60 -48 -65 -75 -61 -17
2 -30 10 -30 18 0 19 -17 26 -38 15 -13 -7 -22 -7 -30 1 -9 9 -15 9 -23 1 -8
-8 -8 -13 1 -18 7 -4 -1 -20 -25 -46 -46 -52 -49 -103 -6 -151 l29 -33 -49
-91 c-50 -92 -56 -117 -39 -144 13 -20 46 0 43 26 -2 11 19 57 45 104 45 81
49 85 89 92 113 19 171 94 128 168 -8 14 -17 30 -20 37 -4 7 15 42 42 78 59
81 93 136 93 153 0 28 -32 9 -60 -35z m-179 -213 l40 0 -52 -75 c-51 -73 -53
-74 -72 -57 -27 24 -38 58 -28 85 13 34 41 59 58 53 8 -3 33 -6 54 -6z m102
-56 c5 -30 -21 -67 -62 -84 -60 -24 -63 -10 -14 62 48 71 65 76 76 22z"/>
<path d="M16635 13421 c-3 -22 -30 -77 -59 -123 -28 -46 -67 -111 -86 -145
-19 -35 -40 -63 -47 -63 -18 0 -16 -25 2 -40 19 -16 45 -6 45 17 0 19 46 104
133 243 49 81 64 142 35 148 -12 2 -18 -7 -23 -37z"/>
<path d="M16203 13396 c-51 -25 -93 -50 -93 -55 0 -23 22 -19 87 14 119 60
165 56 129 -12 -24 -48 -136 -146 -206 -180 -72 -36 -160 -107 -160 -129 0
-21 31 -17 72 11 20 14 40 25 44 25 4 0 31 16 60 36 29 20 57 33 63 30 6 -4
11 -24 11 -44 0 -20 3 -47 6 -59 7 -27 67 -57 96 -47 21 6 57 42 58 57 0 13
-37 7 -50 -8 -26 -32 -48 -18 -60 39 -6 29 -17 61 -24 71 -11 15 -6 24 42 69
77 71 112 123 112 161 0 38 -16 54 -62 61 -26 4 -54 -5 -125 -40z"/>
<path d="M18195 13411 c-42 -18 -58 -47 -51 -94 6 -38 3 -46 -19 -67 -29 -27
-31 -49 -9 -91 24 -48 149 -91 169 -58 11 17 -2 53 -40 109 -19 29 -35 54 -35
56 0 1 38 21 85 43 47 22 85 44 85 50 0 24 -26 20 -102 -18 -45 -23 -85 -41
-89 -41 -4 0 -9 11 -11 25 -8 41 52 77 93 55 16 -9 24 -9 33 0 27 28 -58 52
-109 31z m23 -225 c17 -27 32 -52 32 -57 0 -4 -20 -1 -45 8 -57 19 -84 60 -57
87 23 22 32 17 70 -38z"/>
<path d="M2870 13381 c0 -25 27 -48 41 -34 8 8 7 17 0 32 -14 26 -41 28 -41 2z"/>
<path d="M17957 13378 c-19 -90 -63 -215 -79 -226 -22 -16 -23 -38 -2 -46 32
-12 41 -5 53 47 8 28 27 91 43 140 16 48 26 92 23 97 -11 18 -33 10 -38 -12z"/>
<path d="M5720 13358 c-21 -34 -12 -64 12 -40 24 24 31 12 25 -44 -10 -101
-102 -264 -149 -264 -46 0 -26 99 27 137 15 10 38 28 53 40 24 19 25 22 10 28
-23 9 -96 -40 -125 -84 -44 -65 -22 -161 37 -161 64 0 171 179 178 300 6 110
-27 154 -68 88z"/>
<path d="M3440 13354 c-31 -30 -17 -50 24 -34 20 7 27 16 24 32 -4 30 -19 31
-48 2z"/>
<path d="M17151 13345 c-71 -26 -90 -40 -75 -55 6 -6 32 -1 72 16 66 26 112
29 120 6 7 -21 -131 -150 -185 -174 -65 -29 -113 -60 -113 -75 0 -26 24 -23
82 12 79 47 97 44 127 -22 24 -51 49 -71 72 -58 7 5 4 14 -9 29 -11 11 -27 37
-34 56 -8 19 -22 41 -31 48 -14 12 -10 20 44 70 56 51 89 97 89 122 0 20 -40
50 -67 49 -16 0 -57 -11 -92 -24z"/>
<path d="M15500 13336 c0 -8 5 -16 10 -18 6 -2 0 -28 -14 -65 -14 -33 -35 -95
-46 -137 -31 -117 -50 -155 -80 -158 -36 -4 -32 -32 5 -35 39 -2 104 49 87 69
-8 10 -4 29 14 73 14 33 37 92 51 130 14 39 32 79 39 90 20 28 17 40 -11 53
-35 16 -55 15 -55 -2z"/>
<path d="M2083 13305 c-18 -8 -33 -19 -33 -25 0 -5 -19 -29 -42 -52 -34 -34
-39 -43 -27 -51 12 -8 14 -19 8 -56 -5 -25 -15 -88 -24 -138 -16 -96 -13 -143
11 -143 13 0 29 44 40 113 5 30 11 37 29 37 47 0 139 126 151 207 7 48 -15 95
-53 112 -13 6 -25 11 -26 11 -1 -1 -17 -7 -34 -15z m61 -41 c41 -40 -7 -170
-86 -232 -15 -12 -16 -6 -14 80 3 92 11 121 42 152 20 20 38 20 58 0z"/>
<path d="M2642 13270 c-23 -11 -45 -27 -49 -36 -4 -11 6 -41 26 -78 17 -34 31
-64 31 -67 0 -11 -60 -82 -60 -71 0 6 -3 18 -7 28 -4 12 -3 15 5 10 7 -4 12
-2 12 3 0 6 -6 11 -13 11 -38 0 -52 -71 -18 -90 26 -13 40 -6 79 42 40 50 41
82 5 147 -16 27 -25 53 -21 57 4 4 29 12 55 19 29 7 48 18 48 26 0 21 -45 20
-93 -1z"/>
<path d="M2311 13212 c-38 -60 -40 -104 -6 -137 36 -37 94 -35 134 6 45 44 42
79 -11 134 -56 59 -77 58 -117 -3z m102 -29 c44 -40 -3 -115 -60 -96 -33 11
-44 41 -28 78 14 35 59 44 88 18z"/>
<path d="M5043 13229 c-20 -12 -38 -37 -48 -64 -11 -27 -22 -42 -30 -39 -18 7
-31 -17 -14 -26 8 -5 35 -29 60 -54 47 -46 47 -46 117 -46 51 0 75 4 86 16 23
23 10 34 -25 22 -42 -14 -117 -4 -140 19 -19 19 -19 19 20 36 45 20 101 79
101 106 0 49 -71 66 -127 30z m84 -26 c8 -20 -60 -83 -89 -83 -49 0 19 99 70
100 7 0 16 -8 19 -17z"/>
<path d="M3930 13209 c-19 -12 -55 -37 -79 -57 l-44 -36 6 31 c4 21 2 35 -8
43 -20 17 -36 3 -29 -25 4 -16 -5 -48 -26 -94 -18 -38 -29 -74 -25 -81 4 -7
40 23 93 78 94 97 152 137 152 105 -1 -10 -7 -36 -15 -58 -19 -52 -19 -89 1
-106 29 -24 171 28 146 53 -7 7 -23 6 -52 -6 -22 -9 -50 -16 -61 -16 -18 0
-20 4 -14 23 4 12 14 48 24 80 15 57 15 59 -3 73 -25 18 -24 18 -66 -7z"/>
<path d="M5345 13196 c-19 -19 -35 -29 -35 -21 0 7 -6 17 -13 24 -22 18 -36
-6 -26 -44 6 -21 6 -43 -1 -60 -28 -74 9 -74 47 0 15 31 38 65 50 77 l23 21 0
-79 c0 -57 5 -86 16 -103 24 -34 38 -13 24 38 -6 23 -8 57 -4 76 3 19 3 51 0
70 -9 46 -34 46 -81 1z"/>
<path d="M3542 13198 c-26 -33 -62 -121 -62 -151 0 -45 20 -61 66 -54 79 13
115 61 96 126 -22 73 -72 112 -100 79z m54 -63 c7 -19 14 -43 14 -54 0 -23
-34 -49 -70 -53 -22 -3 -25 1 -23 25 2 34 41 117 54 117 6 0 17 -16 25 -35z"/>
<path d="M2819 13163 c-29 -73 -23 -153 11 -153 23 0 25 12 8 39 -9 14 -7 30
6 70 9 29 14 56 11 61 -11 18 -25 11 -36 -17z"/>
<path d="M3384 13172 c-19 -11 -50 -180 -37 -193 16 -16 33 -2 33 26 0 30 19
114 32 138 14 28 -3 46 -28 29z"/>
<path d="M16630 13129 c-7 -11 -9 -23 -6 -26 3 -4 1 -12 -5 -19 -7 -9 -7 -19
1 -34 l12 -22 29 28 c28 26 28 28 11 47 -9 10 -16 21 -14 23 1 2 2 9 2 14 0
17 -19 11 -30 -11z"/>
<path d="M6105 13050 c-8 -14 3 -30 21 -30 23 0 17 -74 -11 -130 -27 -54 -32
-84 -12 -78 18 6 77 127 77 160 0 59 -53 114 -75 78z"/>
<path d="M15624 13009 c-3 -6 -2 -15 4 -21 15 -15 46 -5 50 15 3 12 -3 17 -22
17 -14 0 -28 -5 -32 -11z"/>
<path d="M5200 12877 c-66 -22 -86 -45 -60 -71 8 -8 15 -6 28 10 38 47 117 57
270 33 85 -14 129 -16 135 -10 17 17 0 25 -86 38 -159 25 -216 25 -287 0z"/>
<path d="M5345 12730 c-33 -4 -90 -8 -126 -9 -47 -1 -70 -6 -79 -16 -17 -20 2
-44 22 -28 7 5 40 11 73 11 33 1 103 6 155 11 52 5 119 6 148 4 44 -5 52 -3
52 11 0 11 5 14 12 10 6 -4 8 -3 5 2 -7 12 -181 14 -262 4z"/>
<path d="M12494 12039 c-60 -22 -100 -118 -111 -261 -3 -49 -9 -88 -14 -88 -4
0 -15 7 -23 16 -18 17 -36 11 -36 -12 0 -9 18 -23 40 -31 l40 -16 0 -72 c0
-65 10 -95 32 -95 4 0 5 41 2 90 l-5 90 40 -6 c27 -4 46 -2 56 6 24 20 8 30
-47 30 l-51 0 5 98 c3 58 12 113 22 137 30 70 89 116 78 60 -6 -34 25 -34 34
0 11 46 -17 71 -62 54z"/>
<path d="M14658 11999 c-27 -15 -105 -130 -137 -201 -37 -80 -55 -169 -47
-227 l6 -46 -42 -22 c-24 -12 -51 -24 -60 -27 -10 -3 -18 -10 -18 -16 0 -22
30 -20 81 6 35 17 54 23 57 15 8 -25 53 -69 81 -81 34 -13 71 0 71 26 0 12 -7
14 -31 9 -24 -6 -36 -2 -56 17 -45 42 -46 52 -8 94 34 37 75 142 75 192 0 11
13 73 30 138 16 65 26 122 22 126 -4 4 -15 2 -24 -3z m-58 -230 c-28 -138 -45
-184 -76 -210 -16 -13 -17 -8 -12 66 4 50 13 98 27 130 22 51 83 156 87 152 2
-1 -10 -63 -26 -138z"/>
<path d="M8905 11990 c-3 -5 -3 -15 1 -21 3 -6 1 -62 -6 -125 l-12 -114 -95 0
c-85 0 -94 -2 -91 -17 3 -16 15 -18 91 -17 l87 1 1 -46 c1 -82 13 -136 30
-139 14 -3 16 8 11 91 -4 90 -4 94 17 100 19 5 32 39 14 36 -28 -4 -29 5 -16
119 7 64 11 123 8 130 -5 14 -31 16 -40 2z"/>
<path d="M13155 11983 c-4 -10 -9 -74 -10 -143 -3 -121 -4 -125 -25 -128 -46
-7 -91 8 -101 34 -11 31 -34 27 -34 -6 0 -33 54 -63 114 -64 l46 -1 0 -75 c0
-41 3 -83 7 -93 16 -39 28 -2 28 86 0 92 0 92 30 109 18 10 30 25 30 37 0 29
-17 35 -30 11 -6 -11 -15 -20 -21 -20 -12 0 -7 210 6 248 6 18 4 22 -13 22
-11 0 -23 -8 -27 -17z"/>
<path d="M13328 11973 c-2 -4 -5 -66 -7 -138 -1 -99 -8 -154 -27 -234 -20 -78
-23 -106 -14 -115 17 -16 61 41 95 122 42 100 51 106 65 38 7 -35 19 -62 33
-73 12 -10 27 -31 32 -47 18 -51 57 -71 140 -70 75 0 105 12 105 41 0 11 -5
13 -17 8 -10 -5 -46 -10 -80 -13 -69 -5 -106 10 -116 47 -4 16 1 21 24 26 34
8 75 53 84 94 7 35 -9 71 -31 71 -22 0 -73 -57 -94 -103 -21 -47 -35 -35 -50
44 -18 96 -55 95 -106 -1 l-24 -45 5 35 c11 88 14 132 17 220 2 81 0 95 -14
98 -9 2 -18 -1 -20 -5z m282 -302 c0 -24 -45 -79 -56 -69 -6 7 40 88 51 88 3
0 5 -9 5 -19z"/>
<path d="M9090 11963 c-1 -4 -2 -53 -4 -108 -2 -55 -7 -160 -11 -232 -7 -121
-6 -133 9 -133 21 0 23 7 35 103 10 85 28 117 66 117 41 0 49 -22 36 -105 -15
-104 -15 -117 7 -113 18 3 29 60 31 165 1 77 -45 111 -110 79 l-31 -16 3 123
c4 110 2 122 -13 125 -10 2 -18 0 -18 -5z"/>
<path d="M10850 11934 c0 -20 7 -61 17 -92 21 -74 23 -219 3 -256 -26 -50
-133 -87 -146 -51 -17 45 70 129 127 123 29 -4 33 20 6 36 -14 9 -29 5 -75
-20 -93 -50 -125 -130 -70 -177 44 -37 161 12 194 80 24 50 22 162 -4 263 -17
63 -18 76 -6 83 20 11 0 47 -26 47 -16 0 -20 -7 -20 -36z"/>
<path d="M4870 11909 c0 -11 56 -97 155 -237 52 -73 58 -118 25 -182 -27 -53
-159 -172 -214 -193 -28 -11 -3 -35 32 -29 34 5 149 95 173 137 67 111 80 160
56 216 -8 20 -48 80 -89 135 -40 55 -80 114 -87 132 -13 31 -51 46 -51 21z"/>
<path d="M15265 11896 c-18 -28 -12 -51 12 -42 13 5 14 -2 9 -51 -10 -84 -13
-90 -50 -97 -18 -3 -41 -13 -52 -21 -18 -13 -18 -14 -1 -32 16 -16 19 -16 30
-2 7 8 21 18 32 21 19 5 20 2 13 -116 -5 -78 -4 -124 3 -131 18 -18 29 17 29
91 0 39 3 92 6 118 8 53 19 57 97 30 48 -16 92 -16 92 0 0 11 -108 46 -142 46
-31 0 -33 8 -25 86 9 81 3 118 -20 122 -9 2 -24 -8 -33 -22z"/>
<path d="M4539 11858 c-53 -57 -108 -160 -120 -223 -22 -121 20 -246 110 -327
65 -59 181 -100 181 -64 0 9 -21 21 -54 30 -85 25 -131 67 -178 164 -28 58
-30 69 -26 145 3 52 11 95 23 117 37 73 89 142 112 151 14 5 23 15 20 22 -8
24 -37 18 -68 -15z"/>
<path d="M14814 11816 c-7 -19 3 -36 21 -36 22 0 26 29 4 40 -15 8 -21 7 -25
-4z"/>
<path d="M2291 11794 c-17 -14 -36 -43 -42 -65 -7 -21 -18 -39 -26 -39 -16 0
-16 -2 1 -65 8 -32 10 -61 5 -79 -9 -32 -5 -46 16 -46 18 0 27 40 31 140 5
115 39 160 98 132 34 -16 56 -22 56 -14 -1 23 -55 62 -86 62 -13 0 -36 -12
-53 -26z"/>
<path d="M11424 11760 c-48 -10 -92 -41 -120 -83 -22 -33 -24 -47 -22 -110 2
-56 6 -72 18 -72 12 0 16 17 20 75 9 117 45 154 149 155 42 0 66 4 69 13 2 6
-1 12 -7 12 -15 0 -17 0 -48 9 -16 4 -42 5 -59 1z"/>
<path d="M2953 11750 c-33 -13 -49 -55 -63 -157 -7 -51 -17 -93 -21 -93 -18 0
-74 145 -69 175 5 22 -1 35 -15 35 -25 0 -27 -23 -10 -91 22 -83 50 -137 80
-151 38 -17 52 3 66 100 6 48 18 102 25 120 11 28 18 32 48 32 38 0 44 8 24
28 -14 14 -34 14 -65 2z"/>
<path d="M10549 11737 c-41 -28 -56 -68 -60 -167 -4 -69 -2 -75 16 -75 18 0
20 8 25 94 5 83 8 95 30 113 13 11 32 17 42 14 10 -3 27 -9 38 -12 32 -10 25
23 -10 41 -38 19 -41 19 -81 -8z"/>
<path d="M6136 11708 c-20 -23 -35 -47 -32 -53 2 -6 0 -37 -6 -70 -7 -48 -6
-61 7 -74 13 -14 17 -14 33 2 13 14 17 35 18 94 0 66 3 78 22 94 17 13 29 16
52 9 19 -6 32 -5 36 2 10 16 -25 38 -62 38 -26 0 -40 -9 -68 -42z"/>
<path d="M3431 11714 c-16 -7 -37 -23 -45 -36 -36 -55 -28 -174 12 -166 11 2
16 11 14 23 -16 86 -14 104 12 129 17 18 36 26 61 26 23 0 35 5 35 14 0 19
-53 25 -89 10z"/>
<path d="M3699 11721 c-36 -12 -78 -41 -90 -62 -14 -28 11 -70 59 -97 71 -40
72 -49 7 -78 -50 -23 -60 -25 -81 -13 -28 15 -43 5 -28 -19 18 -28 73 -26 134
5 79 40 78 88 -2 129 -30 15 -58 41 -58 54 0 17 55 43 104 49 36 4 51 10 51
21 0 17 -55 23 -96 11z"/>
<path d="M5377 11723 c-14 -13 -6 -33 13 -33 22 0 23 1 14 24 -7 17 -16 20
-27 9z"/>
<path d="M7401 11704 c-12 -15 -21 -33 -21 -40 0 -8 -6 -14 -14 -14 -22 0 -27
-15 -16 -45 6 -17 7 -41 0 -70 -11 -51 -3 -105 15 -105 20 0 34 56 34 126 0
33 6 77 15 98 l15 37 51 -7 c41 -5 50 -4 50 9 0 9 -16 19 -44 26 -60 15 -62
15 -85 -15z"/>
<path d="M7695 11715 c-45 -16 -75 -47 -75 -77 0 -12 24 -44 55 -73 30 -29 55
-60 55 -68 0 -15 -40 -37 -68 -37 -10 0 -34 8 -54 19 -38 19 -48 18 -48 -5 0
-38 115 -57 170 -29 56 29 45 86 -30 145 -67 53 -47 94 49 97 31 1 58 2 60 2
2 1 -4 10 -14 21 -21 23 -45 25 -100 5z"/>
<path d="M9435 11718 c-30 -16 -55 -50 -55 -77 0 -13 -8 -30 -17 -38 -17 -13
-17 -14 5 -29 12 -9 22 -25 22 -36 0 -55 57 -106 104 -92 34 10 136 78 136 91
0 26 -21 22 -65 -12 -79 -60 -115 -60 -135 1 -12 35 -11 39 10 53 39 27 90 84
90 101 0 22 -32 50 -56 50 -10 0 -28 -6 -39 -12z m55 -35 c-1 -14 -24 -39 -52
-57 -27 -18 -28 -18 -28 0 0 24 39 64 62 64 10 0 18 -3 18 -7z"/>
<path d="M6865 11687 c-26 -26 -33 -43 -39 -90 -4 -31 -12 -57 -17 -57 -12 0
-39 61 -39 88 0 28 -25 56 -43 49 -15 -5 -15 -9 -2 -34 8 -15 15 -36 15 -46 0
-36 51 -107 76 -107 19 0 34 33 44 97 13 77 32 96 87 88 38 -6 43 -4 43 14 0
20 -15 27 -64 30 -19 1 -38 -9 -61 -32z"/>
<path d="M7995 11701 c-72 -33 -115 -95 -115 -166 0 -66 76 -87 224 -61 49 9
93 16 98 16 6 0 7 7 4 16 -4 9 -2 22 4 29 7 8 7 15 1 19 -13 9 -41 -4 -41 -19
0 -29 -209 -47 -246 -21 -18 14 -18 17 -4 58 15 42 16 43 57 40 45 -4 123 29
123 51 0 19 -22 44 -45 51 -11 3 -38 -3 -60 -13z m55 -30 c0 -12 -56 -34 -72
-29 -8 3 -1 11 17 21 34 18 55 21 55 8z"/>
<path d="M2558 11700 c-23 -14 -58 -73 -58 -99 0 -31 27 -78 52 -92 28 -15
148 -15 177 0 38 21 14 29 -68 24 -71 -5 -80 -4 -100 16 -28 28 -27 39 7 46
36 8 95 37 99 51 2 6 -6 23 -17 37 -22 28 -60 35 -92 17z m61 -33 c8 -11 5
-16 -15 -25 -51 -24 -74 -7 -32 22 27 19 33 20 47 3z"/>
<path d="M7123 11690 c-18 -10 -43 -35 -55 -55 -13 -19 -28 -35 -35 -35 -52 0
29 -94 92 -106 54 -10 149 7 153 27 2 13 -9 15 -80 11 -62 -3 -88 0 -102 11
-19 14 -19 15 12 21 35 8 102 76 102 104 0 22 -19 42 -39 42 -9 0 -30 -9 -48
-20z m47 -28 c0 -12 -52 -58 -73 -65 -15 -6 -16 -3 -7 12 18 35 80 75 80 53z"/>
<path d="M10296 11681 c-76 -79 -57 -203 29 -185 16 3 45 17 63 31 41 31 43
77 7 140 -31 52 -59 56 -99 14z m68 -33 c8 -13 18 -35 21 -49 5 -22 1 -30 -23
-48 -56 -40 -93 -17 -77 47 7 27 42 72 57 72 4 0 14 -10 22 -22z"/>
<path d="M11043 11692 c-34 -26 -53 -82 -43 -125 21 -93 94 -116 208 -65 72
32 43 54 -31 23 -70 -29 -121 -16 -140 37 -4 11 3 20 25 29 44 18 88 58 88 80
0 38 -68 52 -107 21z m62 -32 c-10 -15 -65 -42 -65 -31 0 17 31 41 51 41 11 0
17 -5 14 -10z"/>
<path d="M15000 11701 c-38 -12 -85 -38 -99 -55 -15 -18 -4 -43 40 -94 16 -18
29 -38 29 -44 0 -10 -43 -8 -89 3 -8 2 -17 -4 -19 -13 -4 -18 6 -22 84 -32 26
-4 47 -1 58 7 17 13 17 15 -2 53 -11 21 -32 50 -46 63 -14 14 -26 28 -26 33 0
15 82 50 106 44 27 -7 41 9 24 29 -14 16 -22 17 -60 6z"/>
<path d="M3149 11677 c-24 -13 -52 -38 -62 -55 -17 -29 -17 -34 -3 -65 21 -43
58 -64 151 -83 58 -12 80 -13 88 -5 17 17 -2 26 -84 41 -44 7 -80 20 -96 34
l-25 22 56 17 c62 20 83 45 66 77 -20 37 -44 42 -91 17z m54 -32 c2 -13 -49
-37 -71 -33 -12 2 -8 9 18 25 36 23 50 25 53 8z"/>
<path d="M6389 11657 c-136 -92 -87 -239 76 -224 33 3 68 9 78 12 24 10 21 35
-4 35 -11 0 -18 -3 -16 -7 9 -14 -139 2 -156 16 -10 8 -17 28 -17 48 0 47 54
103 100 103 42 0 30 -14 -25 -30 -48 -13 -63 -26 -48 -41 9 -9 84 10 122 31
31 16 28 58 -5 70 -40 15 -68 12 -105 -13z"/>
<path d="M3993 11650 c-24 -10 -43 -24 -43 -30 0 -7 -14 -25 -31 -41 -20 -18
-28 -33 -23 -41 5 -7 10 -22 11 -32 11 -66 68 -110 143 -109 76 1 171 61 156
99 -6 15 -10 14 -34 -9 -32 -31 -91 -57 -127 -57 -38 0 -84 27 -95 56 -16 42
-12 54 19 54 41 0 90 19 101 40 16 30 12 68 -9 80 -24 12 -18 13 -68 -10z m57
-29 c0 -14 -30 -41 -45 -41 -7 0 -21 -3 -30 -7 -16 -6 -17 -5 0 20 15 24 31
33 63 36 6 0 12 -3 12 -8z"/>
<path d="M1932 11637 c-12 -13 -22 -33 -22 -46 0 -19 5 -22 33 -19 30 3 32 5
32 42 0 47 -14 54 -43 23z"/>
<path d="M12189 11621 c-55 -55 -50 -104 12 -137 34 -17 73 -12 102 13 23 21
22 78 -2 102 -10 10 -22 28 -26 40 -10 32 -43 25 -86 -18z m72 -34 c36 -28 26
-77 -16 -77 -29 0 -69 35 -59 53 23 40 45 47 75 24z"/>
<path d="M14717 11604 c-9 -9 -9 -91 -1 -133 5 -22 12 -31 23 -29 9 2 15 12
13 23 -1 11 -4 47 -5 79 -3 55 -13 76 -30 60z"/>
<path d="M5395 11540 c-13 -14 -15 -24 -8 -31 14 -14 65 10 61 30 -5 24 -32
24 -53 1z"/>
<path d="M15570 11460 c-15 -28 -4 -41 28 -34 41 10 46 20 21 38 -30 21 -36
20 -49 -4z"/>
</g>
</svg>
