<?xml version="1.0" standalone="no"?>
<!DOCTYPE svg PUBLIC "-//W3C//DTD SVG 20010904//EN"
 "http://www.w3.org/TR/2001/REC-SVG-20010904/DTD/svg10.dtd">
<svg version="1.0" xmlns="http://www.w3.org/2000/svg"
 width="1618.000000pt" height="1214.000000pt" viewBox="0 0 1618.000000 1214.000000"
 preserveAspectRatio="xMidYMid meet">

<g transform="translate(0.000000,1214.000000) scale(0.100000,-0.100000)"
fill="#000000" stroke="none">
<path d="M8960 11821 c0 -5 7 -14 15 -21 23 -19 19 -43 -6 -35 -27 9 -139 -42
-139 -63 0 -8 31 -65 70 -126 38 -62 74 -125 80 -140 14 -38 12 -146 -3 -176
-37 -75 -118 13 -97 106 10 44 6 53 -17 38 -26 -16 -26 -92 0 -144 37 -76 110
-82 140 -13 42 101 26 174 -73 336 l-68 112 44 23 c52 27 81 18 86 -25 3 -31
25 -37 41 -11 8 12 7 24 -3 43 -8 15 -13 39 -12 55 2 20 -4 32 -17 40 -24 12
-41 13 -41 1z"/>
<path d="M10655 11753 c11 -25 11 -37 1 -138 -8 -95 -16 -112 -54 -126 -29
-11 -18 -33 14 -26 23 4 23 4 21 -97 -2 -90 0 -101 16 -104 16 -3 18 2 16 45
-2 26 -2 78 -1 115 2 66 2 66 36 78 19 6 59 10 88 8 30 -2 54 1 56 7 4 16 -58
28 -116 22 l-54 -6 7 72 c4 40 10 89 15 109 8 40 -2 58 -33 58 -14 0 -17 -4
-12 -17z"/>
<path d="M9796 11745 c-10 -27 -7 -55 6 -55 9 0 9 -3 0 -12 -7 -7 -12 -44 -12
-95 l0 -83 -30 0 c-20 0 -30 -5 -30 -15 0 -10 10 -15 31 -15 l32 0 -5 -90 c-3
-50 -2 -93 3 -95 17 -11 29 36 29 109 0 54 4 76 13 77 6 1 39 3 72 4 43 2 60
7 60 16 0 9 -15 15 -42 17 -24 2 -43 -1 -43 -6 0 -5 -13 -7 -30 -4 l-30 4 0
114 c0 109 1 114 21 114 29 0 18 24 -13 28 -16 2 -28 -3 -32 -13z"/>
<path d="M9253 11698 c8 -42 8 -163 1 -297 -6 -102 -6 -104 15 -98 12 3 24 1
27 -4 3 -5 22 -9 43 -9 65 0 88 50 58 123 -27 64 -72 72 -102 19 l-16 -27 5
41 c3 22 6 94 7 160 1 116 1 119 -21 122 -20 3 -22 1 -17 -30z m120 -335 c2
-36 0 -38 -30 -41 -32 -3 -33 -2 -33 35 0 21 7 49 16 61 16 23 16 23 30 3 8
-11 16 -37 17 -58z"/>
<path d="M10171 11721 c-16 -11 -4 -34 14 -27 15 5 25 -55 25 -145 0 -66 -1
-66 -92 -60 -28 2 -38 -2 -38 -12 0 -18 68 -32 100 -22 17 6 20 2 20 -27 0
-19 -6 -57 -14 -86 -8 -32 -10 -55 -4 -58 17 -11 28 11 39 77 6 35 13 74 15
85 3 17 15 24 64 33 43 9 60 17 60 28 0 15 -22 14 -97 -4 -22 -5 -23 -3 -24
83 -1 49 -4 100 -8 114 -7 26 -36 37 -60 21z"/>
<path d="M4359 11701 c-13 -10 -46 -61 -72 -112 -42 -82 -48 -102 -48 -158 -1
-75 15 -103 82 -141 35 -19 58 -24 119 -25 60 0 75 3 75 15 0 11 -9 14 -37 12
-63 -6 -144 16 -178 48 -27 25 -30 34 -30 87 -1 50 6 71 47 152 48 93 75 120
107 108 11 -4 16 -19 16 -46 0 -40 14 -61 30 -45 4 5 10 34 12 64 l3 55 -51 3
c-38 2 -57 -3 -75 -17z"/>
<path d="M4874 11696 c-3 -8 -3 -19 0 -24 3 -5 6 -97 6 -205 1 -165 4 -196 17
-201 20 -8 35 2 26 17 -5 7 -10 104 -13 216 -4 151 -8 205 -17 209 -7 2 -16
-3 -19 -12z"/>
<path d="M5447 11703 c-6 -10 15 -83 24 -83 11 0 16 33 9 59 -6 25 -24 38 -33
24z"/>
<path d="M2691 11672 c-59 -20 -78 -23 -92 -13 -28 17 -51 14 -47 -6 2 -10 17
-22 33 -28 17 -5 31 -18 33 -28 2 -10 25 -52 53 -94 43 -66 49 -82 49 -128 0
-59 -12 -71 -58 -54 -45 17 -72 49 -72 85 0 43 -17 52 -32 19 -33 -72 109
-178 170 -128 19 15 23 28 23 74 1 61 -11 91 -68 170 -19 27 -33 56 -31 65 2
10 25 23 61 34 62 19 90 37 81 51 -7 13 -19 10 -103 -19z"/>
<path d="M14040 11634 c-62 -37 -80 -54 -80 -76 0 -24 22 -23 37 1 15 24 101
76 111 67 17 -18 -52 -110 -162 -219 -93 -91 -117 -120 -108 -129 9 -9 20 -4
50 23 87 84 112 88 98 18 -12 -60 -1 -85 38 -82 36 2 86 40 86 64 0 25 -10 24
-37 -5 -13 -13 -32 -26 -43 -29 -24 -6 -26 11 -6 77 13 43 13 48 -4 58 -17 11
-15 16 31 66 122 134 115 240 -11 166z"/>
<path d="M10910 11636 c0 -21 11 -25 38 -15 32 12 27 29 -8 29 -19 0 -30 -5
-30 -14z"/>
<path d="M15104 11600 c-38 -53 -63 -62 -106 -39 -19 10 -26 6 -64 -37 -48
-56 -71 -122 -53 -155 11 -22 12 -21 -76 -143 -35 -48 -42 -85 -19 -93 6 -2
14 9 17 25 3 16 31 60 61 99 45 58 59 70 78 66 39 -7 134 34 168 74 35 39 35
66 0 115 l-19 26 44 50 c25 28 45 53 45 56 0 3 -9 6 -20 6 -13 0 -33 -19 -56
-50z m-81 -81 c15 -3 6 -18 -45 -79 l-63 -75 -3 32 c-3 35 8 61 47 110 15 19
29 29 36 24 5 -5 18 -10 28 -12z m75 -72 c-2 -23 -12 -38 -37 -54 -33 -22
-101 -46 -109 -38 -2 2 22 35 54 73 49 57 62 67 77 60 13 -7 17 -18 15 -41z"/>
<path d="M9954 11625 c-4 -9 -2 -21 4 -27 15 -15 62 -1 62 18 0 9 -6 14 -12
11 -7 -2 -21 0 -31 5 -13 6 -19 4 -23 -7z"/>
<path d="M15543 11620 c-13 -5 -23 -16 -23 -25 0 -13 9 -14 57 -8 l57 6 -22
-30 c-12 -17 -26 -42 -32 -57 -6 -18 -19 -28 -40 -32 -36 -8 -41 -34 -6 -34
l24 0 -19 -56 c-20 -55 -20 -84 0 -84 5 0 12 10 16 23 29 107 38 126 69 129
38 4 44 23 12 40 l-26 13 30 45 c38 58 38 70 -2 70 -18 0 -42 2 -53 5 -11 2
-30 0 -42 -5z"/>
<path d="M13031 11598 c-4 -13 -11 -40 -15 -60 -4 -21 -22 -76 -41 -123 -19
-46 -32 -92 -28 -100 9 -26 36 -13 39 20 2 25 52 186 74 235 8 19 1 50 -11 50
-5 0 -13 -10 -18 -22z"/>
<path d="M13758 11596 c-72 -36 -108 -65 -108 -87 0 -22 15 -25 27 -5 18 31
143 93 143 71 0 -33 -100 -159 -143 -182 -16 -8 -46 -30 -68 -50 -71 -64 -38
-89 37 -27 l44 35 -6 -30 c-8 -41 11 -64 45 -56 47 11 111 47 111 61 0 15 -26
19 -34 5 -4 -5 -27 -16 -52 -25 l-46 -16 6 23 c4 12 9 36 13 52 3 17 24 50 46
75 67 77 92 141 65 168 -17 17 -26 15 -80 -12z"/>
<path d="M14700 11590 c-76 -26 -120 -56 -120 -81 0 -15 22 -10 44 9 22 19
127 62 152 62 44 0 -93 -157 -176 -201 -32 -17 -66 -40 -76 -50 -16 -17 -16
-19 0 -25 10 -4 36 6 67 25 28 17 52 31 54 31 3 0 11 -13 20 -30 12 -23 22
-30 45 -30 49 0 83 18 77 40 -3 11 0 20 6 20 6 0 8 3 4 6 -3 4 -18 -3 -33 -15
-35 -28 -58 -27 -78 4 -17 26 -16 27 31 76 68 70 104 129 101 159 -4 34 -19
34 -118 0z"/>
<path d="M15345 11563 c-14 -32 -36 -80 -48 -108 -11 -27 -27 -59 -34 -70 -15
-23 -17 -61 -4 -70 10 -5 25 12 26 30 0 6 15 41 33 79 17 38 32 72 32 76 0 4
12 28 26 54 24 42 25 66 4 66 -5 0 -20 -26 -35 -57z"/>
<path d="M5458 11508 c-5 -156 4 -253 22 -253 8 0 15 6 14 13 -1 6 -2 86 -2
177 -2 136 -5 165 -16 165 -12 0 -15 -22 -18 -102z"/>
<path d="M13238 11580 c-47 -29 -63 -60 -33 -60 8 0 15 4 15 8 0 5 16 16 35
25 33 16 35 16 35 -1 0 -28 -57 -109 -102 -145 -87 -69 -101 -84 -94 -95 11
-19 22 -15 71 28 25 22 48 40 50 40 2 0 1 -17 -2 -38 -8 -61 36 -79 91 -39 30
22 11 40 -24 22 -34 -18 -37 -14 -35 45 1 33 9 56 33 89 34 46 57 113 48 137
-8 22 -37 16 -88 -16z"/>
<path d="M7132 11523 c4 -52 28 -56 28 -4 0 30 -4 41 -16 41 -11 0 -14 -9 -12
-37z"/>
<path d="M9612 11544 c-30 -20 -28 -40 8 -81 28 -32 41 -89 24 -106 -9 -9 -61
20 -67 38 -9 21 -27 19 -27 -4 0 -23 42 -59 78 -68 59 -14 72 85 21 155 l-30
41 25 7 c29 7 35 34 8 34 -10 0 -28 -7 -40 -16z"/>
<path d="M7705 11500 c-4 -6 5 -24 19 -41 30 -35 32 -51 10 -73 -19 -19 -29
-14 -49 25 -19 36 -33 37 -46 2 -21 -57 -76 -72 -86 -23 -6 34 -20 47 -34 33
-7 -7 -4 -25 7 -52 14 -36 20 -41 49 -41 18 0 44 9 59 21 25 20 28 20 45 5 24
-21 43 -20 75 5 33 26 34 63 1 112 -26 38 -39 45 -50 27z"/>
<path d="M11301 11487 c-7 -19 -41 -209 -41 -231 0 -3 7 -6 15 -6 8 0 31 33
54 78 36 71 94 142 106 131 3 -3 9 -28 14 -55 13 -69 28 -104 45 -104 43 0
136 59 136 87 0 19 -8 16 -42 -12 -34 -29 -75 -42 -89 -28 -5 5 -14 38 -20 73
-11 71 -15 80 -33 80 -21 0 -80 -49 -110 -93 l-29 -42 7 35 c17 92 18 110 7
110 -6 0 -15 -10 -20 -23z"/>
<path d="M10916 11491 c-4 -6 -7 -37 -6 -69 2 -80 2 -79 -21 -101 l-21 -19 22
-12 c34 -18 42 -1 47 93 5 81 -6 134 -21 108z"/>
<path d="M3370 11460 c-16 -17 -32 -40 -35 -51 -10 -31 -33 -22 -55 21 -27 52
-47 53 -83 0 -16 -23 -17 -23 -17 -3 0 35 -22 45 -69 31 -40 -13 -41 -14 -41
-58 0 -25 -3 -55 -6 -67 -5 -17 -2 -23 10 -23 10 0 21 18 31 54 9 30 22 60 30
66 13 11 15 6 15 -33 0 -92 20 -100 55 -22 26 61 36 67 53 31 6 -13 35 -40 65
-60 46 -31 62 -36 108 -35 64 1 101 10 99 24 0 6 -28 9 -70 7 -37 -2 -77 1
-87 6 -17 10 -16 11 7 20 40 16 62 46 58 83 -4 46 -31 49 -68 9z m25 -40 c-10
-11 -20 -18 -23 -15 -3 3 3 14 13 25 10 11 20 18 23 15 3 -3 -3 -14 -13 -25z"/>
<path d="M3613 11473 c-18 -9 -33 -22 -33 -28 0 -6 20 -30 45 -52 25 -22 45
-46 45 -52 0 -17 -37 5 -51 30 -8 15 -14 18 -22 10 -15 -15 8 -56 40 -70 82
-37 95 30 18 97 l-36 32 36 16 c20 8 33 19 30 24 -9 14 -35 11 -72 -7z"/>
<path d="M6595 11479 c-37 -21 -55 -52 -55 -99 0 -60 9 -90 28 -90 12 0 14 10
9 58 -7 69 7 97 56 110 18 5 31 12 30 18 -3 14 -45 15 -68 3z"/>
<path d="M2903 11454 c-58 -25 -80 -83 -41 -108 13 -8 24 -7 46 6 27 16 28 16
41 -13 15 -35 48 -56 64 -40 7 7 3 18 -16 35 -15 14 -27 29 -27 35 0 5 -5 22
-10 37 l-11 27 -31 -31 c-30 -32 -48 -40 -48 -24 0 14 33 40 73 57 20 8 37 20
37 25 0 14 -39 11 -77 -6z"/>
<path d="M7288 11440 c-16 -16 -36 -30 -44 -30 -8 0 -14 -7 -14 -15 0 -8 4
-15 9 -15 4 0 12 -15 17 -32 11 -39 61 -68 129 -73 67 -6 58 18 -13 33 -62 13
-82 26 -82 53 0 12 12 18 40 22 72 9 92 45 40 72 -40 21 -47 19 -82 -15z m60
-21 c-7 -5 -19 -9 -27 -9 -11 0 -11 3 -1 14 6 8 18 12 27 9 12 -5 12 -7 1 -14z"/>
<path d="M11069 11429 c-26 -51 -29 -124 -6 -146 20 -20 70 -21 93 -3 40 34
37 108 -7 164 -30 38 -55 33 -80 -15z m71 -28 c23 -56 -2 -114 -44 -98 -21 8
-22 75 0 105 20 29 29 28 44 -7z"/>
<path d="M10385 11451 c-9 -15 -10 -101 -1 -127 9 -28 50 -46 78 -35 41 16 61
48 66 106 4 54 4 55 -22 55 -28 0 -33 -9 -15 -27 14 -14 4 -77 -16 -93 -8 -6
-24 -10 -37 -8 -21 3 -23 8 -23 67 -1 61 -14 88 -30 62z"/>
<path d="M6760 11440 c-70 -17 -91 -81 -41 -131 32 -31 84 -39 136 -19 41 16
20 29 -38 23 -37 -3 -58 0 -72 10 -19 14 -18 16 18 30 44 19 93 65 81 77 -16
14 -48 18 -84 10z m26 -39 c-3 -5 -20 -14 -38 -20 -31 -11 -31 -11 -13 9 18
19 62 29 51 11z"/>
<path d="M5071 11426 c-51 -28 -68 -103 -29 -130 26 -18 80 -21 109 -5 29 15
15 27 -28 22 -24 -2 -46 2 -58 11 -19 14 -19 17 -5 43 10 18 25 29 43 31 20 2
27 8 25 20 -4 22 -27 25 -57 8z"/>
<path d="M5557 11433 c-10 -16 22 -127 42 -147 47 -46 105 19 92 102 -5 31
-11 38 -34 40 -29 4 -38 -15 -12 -24 19 -8 20 -77 1 -93 -19 -16 -39 11 -51
72 -9 47 -26 69 -38 50z"/>
<path d="M7007 11390 c-9 -75 -16 -78 -49 -21 -16 28 -34 51 -39 51 -18 0 -8
-33 32 -102 48 -82 59 -79 78 16 15 78 14 106 -3 106 -8 0 -15 -17 -19 -50z"/>
<path d="M9170 11389 c0 -53 -15 -94 -31 -84 -5 4 -9 24 -9 45 0 21 -3 45 -6
54 -8 20 -44 21 -44 1 0 -8 5 -15 10 -15 6 0 10 -20 10 -43 0 -48 27 -84 54
-74 19 7 44 46 46 72 6 55 -1 95 -15 95 -11 0 -15 -12 -15 -51z"/>
<path d="M5747 11412 c-24 -26 -21 -37 14 -70 24 -22 30 -35 24 -48 -5 -13 -9
-15 -12 -6 -7 19 -33 14 -33 -7 0 -24 32 -36 60 -21 30 16 26 58 -11 96 -31
32 -31 32 -10 44 12 6 19 15 16 21 -10 14 -30 11 -48 -9z"/>
<path d="M4693 11404 c-56 -28 -56 -80 1 -71 24 3 36 -1 54 -20 22 -24 52 -28
59 -7 2 6 -5 14 -16 17 -14 3 -24 19 -33 51 -13 51 -18 53 -65 30z"/>
<path d="M5250 11410 c-12 -7 -12 -12 -2 -22 6 -6 12 -22 12 -35 0 -33 35 -49
65 -29 30 19 48 53 41 72 -9 24 -34 16 -38 -13 -4 -32 -38 -46 -38 -16 0 30
-22 54 -40 43z"/>
<path d="M7117 11413 c-2 -5 -1 -35 2 -68 4 -44 10 -60 21 -60 12 0 14 12 11
60 -3 63 -7 75 -21 75 -5 0 -11 -3 -13 -7z"/>
<path d="M9967 11414 c-11 -11 -8 -83 4 -105 17 -32 26 -13 23 48 -2 54 -11
72 -27 57z"/>
<path d="M13405 11330 c-6 -10 15 -50 26 -50 14 0 31 31 25 45 -6 17 -41 20
-51 5z"/>
<path d="M6103 11293 c-19 -58 -44 -104 -57 -109 -20 -8 -21 -34 -2 -34 31 0
86 94 86 148 0 18 -20 15 -27 -5z"/>
<path d="M14223 11300 c-24 -10 -30 -25 -14 -35 14 -8 61 16 61 32 0 15 -15
16 -47 3z"/>
<path d="M3794 11283 c-15 -49 -60 -135 -81 -155 -13 -12 -23 -27 -23 -35 0
-24 29 -14 54 20 34 45 89 164 81 177 -10 16 -25 12 -31 -7z"/>
<path d="M8525 11201 c-6 -11 16 -25 60 -36 17 -4 314 -9 660 -10 384 -1 669
-6 730 -13 179 -20 970 -34 1300 -22 360 13 584 26 608 35 34 14 11 30 -44 30
-30 0 -199 -7 -377 -14 -342 -15 -807 -12 -1627 10 -236 6 -597 9 -801 5 -310
-5 -380 -3 -428 9 -67 18 -73 18 -81 6z"/>
<path d="M9977 10914 c-4 -4 -7 -15 -7 -24 0 -9 -13 -29 -30 -45 -16 -16 -30
-35 -30 -42 0 -25 26 -13 70 32 l44 45 -20 20 c-11 11 -23 17 -27 14z"/>
<path d="M12856 10882 c-4 -7 -4 -26 -1 -44 4 -23 -4 -61 -25 -122 -23 -69
-27 -92 -18 -98 10 -6 9 -8 -3 -8 -9 0 -19 -9 -22 -21 -4 -15 -1 -19 11 -17
19 4 92 205 92 254 0 35 -23 73 -34 56z"/>
<path d="M7345 10869 c-11 -5 -29 -24 -41 -42 -37 -56 -47 -103 -42 -202 l4
-94 -34 -6 c-18 -3 -58 -8 -89 -10 -61 -5 -69 -8 -58 -25 7 -11 115 -7 159 7
34 10 48 -50 25 -114 -8 -24 -15 -30 -31 -25 -16 4 -19 1 -16 -14 2 -13 12
-19 28 -19 36 0 62 54 58 123 l-3 52 33 0 c23 0 32 4 29 13 -2 7 -17 11 -34
10 -28 -3 -31 0 -37 35 -12 75 -6 176 13 218 30 67 89 93 74 33 -4 -12 0 -19
10 -19 19 0 27 21 20 52 -10 37 -30 45 -68 27z"/>
<path d="M10095 10858 c-2 -7 -17 -49 -33 -93 -16 -44 -30 -84 -32 -90 -1 -5
-6 -20 -11 -33 -5 -13 -9 -28 -9 -33 0 -5 -10 -9 -22 -9 -13 0 -29 -4 -37 -9
-21 -13 -3 -32 24 -25 l24 6 -15 -54 c-19 -72 -18 -101 7 -132 15 -19 30 -26
55 -26 38 0 104 24 104 38 0 18 -13 20 -45 6 -96 -40 -124 5 -84 133 9 28 15
32 62 38 58 8 87 20 87 36 0 11 -20 9 -101 -7 -18 -3 -28 0 -33 11 -3 9 -2 14
3 11 7 -4 34 68 36 94 0 3 8 22 18 43 24 50 33 107 18 107 -6 0 -14 -6 -16
-12z"/>
<path d="M4027 10820 c-38 -30 -68 -104 -74 -187 -5 -60 -9 -72 -25 -77 -22
-5 -16 -26 8 -26 10 0 14 -13 14 -46 0 -47 15 -88 29 -79 5 2 6 33 4 68 l-5
63 38 9 c20 6 40 16 42 24 4 11 -4 13 -38 7 l-43 -7 6 66 c7 78 44 160 72 160
23 0 30 19 12 34 -11 9 -20 7 -40 -9z"/>
<path d="M2664 10822 c-14 -8 -144 -218 -144 -231 0 -5 -7 -14 -15 -21 -23
-19 -18 -31 10 -20 14 5 32 7 40 4 8 -3 29 -1 46 5 l31 11 -3 -64 c-2 -36 0
-68 4 -72 14 -15 27 20 27 73 0 42 4 55 20 65 24 15 26 28 5 28 -12 0 -15 15
-15 73 0 39 4 88 10 107 10 36 3 54 -16 42z m-24 -155 l0 -64 -37 -11 c-20 -6
-40 -9 -44 -6 -7 4 70 144 78 144 2 0 3 -28 3 -63z"/>
<path d="M4162 10804 c-26 -18 -52 -100 -52 -165 0 -26 -5 -60 -10 -75 -7 -19
-7 -30 1 -40 8 -10 9 -34 5 -74 -6 -50 -4 -60 8 -60 16 0 24 31 28 110 3 38 6
45 28 50 29 7 39 35 15 43 -8 4 -15 2 -15 -3 0 -6 -7 -10 -15 -10 -20 0 -20
79 0 148 16 51 16 52 55 52 22 0 40 4 40 9 0 24 -61 34 -88 15z"/>
<path d="M5105 10810 c-3 -5 -3 -15 1 -21 3 -6 3 -61 -1 -123 l-7 -113 -41 -9
c-58 -13 -64 -39 -7 -31 l43 5 -6 -74 c-6 -75 3 -101 22 -65 13 24 14 101 2
101 -5 0 -4 11 2 25 9 17 25 27 60 36 26 6 50 15 53 20 12 21 -8 26 -51 14
l-44 -14 6 130 c5 114 4 129 -10 129 -9 0 -19 -4 -22 -10z"/>
<path d="M11412 10768 c-22 -107 -55 -284 -60 -320 -3 -30 -1 -38 12 -38 10 0
16 9 16 25 0 13 7 50 15 82 9 32 22 101 31 153 8 52 17 107 20 123 5 20 2 27
-8 27 -10 0 -19 -18 -26 -52z"/>
<path d="M5725 10798 c-3 -7 -6 -60 -7 -118 l-3 -105 -47 -5 c-26 -3 -50 -9
-54 -12 -14 -14 7 -23 50 -22 l46 2 0 -53 c0 -38 -4 -54 -15 -59 -13 -4 -14
-10 -5 -26 13 -25 37 -26 44 -2 3 9 6 45 7 78 l2 62 41 7 c23 3 51 6 64 6 14
-1 22 5 22 15 0 14 -10 16 -72 10 -40 -4 -68 -3 -61 1 15 10 16 233 2 233 -5
0 -12 -6 -14 -12z"/>
<path d="M9430 10718 c0 -130 -8 -170 -31 -163 -32 10 -89 -21 -104 -58 -16
-39 -10 -100 11 -118 20 -17 58 12 98 74 36 56 56 130 56 205 0 27 5 53 12 60
15 15 -9 92 -29 92 -10 0 -13 -22 -13 -92z m-45 -209 c7 -21 -36 -99 -55 -99
-20 0 -11 73 12 97 27 28 35 29 43 2z"/>
<path d="M14220 10785 c0 -15 -7 -39 -15 -55 -9 -17 -13 -30 -9 -30 4 0 1 -7
-6 -15 -7 -8 -10 -24 -7 -35 3 -11 1 -20 -4 -20 -5 0 -14 -20 -20 -44 -6 -27
-18 -47 -28 -49 -10 -3 -6 -5 9 -6 15 -1 20 -4 13 -9 -11 -7 -53 -103 -53
-122 0 -6 6 -10 14 -10 8 0 24 29 39 68 l25 67 76 3 c50 2 76 -1 76 -8 0 -6
-4 -9 -10 -5 -5 3 -16 -5 -25 -19 -33 -50 24 -93 83 -62 41 21 44 27 36 86 -6
48 -8 49 -33 43 -14 -3 -29 -11 -33 -17 -5 -8 -8 -7 -8 2 0 9 -19 12 -66 11
-37 -1 -70 3 -77 10 -8 8 -2 36 21 105 36 105 39 136 17 136 -9 0 -15 -9 -15
-25z m151 -316 c-29 -23 -40 -24 -48 -2 -4 10 2 23 17 35 21 17 25 18 39 3 15
-15 14 -18 -8 -36z"/>
<path d="M8275 10790 c-3 -6 1 -13 9 -16 17 -6 16 -34 -3 -94 -6 -19 -11 -55
-12 -80 0 -25 -2 -81 -5 -125 -7 -98 8 -165 36 -165 26 0 34 17 13 29 -16 9
-18 24 -16 133 1 68 6 162 12 211 6 48 8 94 5 102 -7 17 -30 20 -39 5z"/>
<path d="M10937 10783 c-4 -3 -7 -18 -8 -32 0 -14 -13 -66 -28 -116 l-27 -90
-82 -15 c-57 -10 -82 -19 -82 -28 0 -12 11 -13 53 -8 28 4 62 9 73 12 l21 6
-18 -54 c-21 -61 -24 -129 -7 -146 29 -29 108 -3 108 35 0 26 -15 31 -27 9 -4
-8 -21 -18 -37 -22 l-29 -7 6 50 c3 27 13 68 22 91 14 33 22 42 41 42 27 0 32
17 8 27 -12 4 -14 14 -9 47 4 22 11 46 15 51 12 14 39 138 34 147 -6 10 -18
10 -27 1z"/>
<path d="M3129 10778 c0 -2 -2 -10 -4 -18 -1 -9 -10 -48 -20 -88 -19 -77 -21
-79 -110 -94 -11 -2 -20 -10 -20 -18 0 -15 4 -15 72 -4 l32 5 -15 -53 c-20
-76 -18 -131 5 -152 16 -15 25 -16 59 -7 46 13 71 35 48 44 -7 3 -17 2 -22 -3
-9 -8 -37 -13 -61 -11 -17 1 -16 51 2 124 16 69 15 67 55 76 39 8 39 26 0 26
-17 0 -30 2 -30 4 0 3 9 38 21 78 19 70 19 93 -2 93 -5 0 -9 -1 -10 -2z"/>
<path d="M3560 10737 c0 -14 9 -44 20 -68 47 -104 0 -273 -77 -275 -26 -1 -30
2 -26 20 8 36 37 86 50 86 7 0 13 7 13 15 0 29 -39 15 -65 -22 -28 -43 -33
-94 -9 -117 21 -21 83 -15 102 10 52 70 76 182 54 254 -32 107 -62 153 -62 97z"/>
<path d="M11260 10724 c-35 -91 -41 -124 -38 -213 2 -65 7 -96 16 -99 9 -3 12
18 11 86 -1 86 22 205 42 218 15 9 10 34 -6 34 -9 0 -20 -12 -25 -26z"/>
<path d="M3826 10733 c-12 -12 -5 -33 14 -43 27 -15 43 -4 30 19 -10 20 -35
33 -44 24z"/>
<path d="M5290 10686 c0 -25 12 -46 26 -46 15 0 18 18 8 44 -8 20 -34 21 -34
2z"/>
<path d="M5998 10684 c-9 -9 3 -44 16 -44 14 0 37 35 29 44 -8 8 -38 8 -45 0z"/>
<path d="M13412 10678 c-18 -18 -15 -28 9 -28 20 0 21 -4 15 -47 -7 -55 -31
-98 -69 -126 -35 -27 -54 -13 -36 27 17 37 5 43 -50 23 -65 -23 -71 -22 -71
13 0 42 -17 37 -29 -7 -13 -45 -14 -73 -3 -73 4 0 31 9 60 19 l52 19 0 -22 c0
-76 107 -51 151 36 25 50 33 153 11 153 -7 0 -16 6 -20 12 -6 10 -11 10 -20 1z"/>
<path d="M3297 10666 c-4 -9 -3 -18 2 -20 13 -8 52 6 48 18 -6 17 -44 19 -50
2z"/>
<path d="M12102 10644 c-42 -29 -45 -50 -18 -109 26 -58 25 -68 -10 -59 -28 7
-33 -16 -9 -36 12 -10 21 -10 41 -2 36 17 40 40 16 86 -36 68 -23 106 37 106
12 0 21 7 21 15 0 20 -49 20 -78 -1z"/>
<path d="M11844 10613 c-27 -78 -44 -101 -107 -147 -37 -27 -67 -53 -67 -58 0
-17 34 -7 71 23 32 25 42 29 54 19 20 -16 68 3 96 38 l20 26 -7 -42 c-8 -50 1
-92 21 -92 20 0 30 21 14 30 -10 7 -11 20 -2 67 6 32 14 66 18 76 11 27 -24
21 -46 -8 -11 -13 -33 -34 -50 -45 l-29 -22 21 54 c12 29 22 62 23 72 1 25
-22 33 -30 9z"/>
<path d="M13055 10603 c-53 -53 -79 -125 -53 -151 34 -34 118 5 118 55 0 20
-37 113 -45 113 -2 0 -11 -7 -20 -17z m35 -95 c0 -18 -28 -38 -54 -38 -22 0
-20 29 5 70 l21 34 14 -24 c7 -14 13 -33 14 -42z"/>
<path d="M2775 10563 c-3 -21 -12 -58 -20 -83 -23 -73 3 -85 36 -16 11 24 28
51 37 59 16 15 17 10 17 -61 0 -61 3 -77 14 -77 12 0 15 18 17 80 2 120 -8
138 -53 95 l-22 -20 2 27 c3 42 -21 39 -28 -4z"/>
<path d="M12882 10578 c-17 -13 -45 -33 -62 -46 l-30 -23 10 25 c6 17 6 26 0
26 -6 0 -10 -5 -10 -11 0 -5 -4 -8 -9 -5 -11 7 -51 -97 -41 -108 5 -4 43 21
86 57 43 36 80 64 82 62 2 -2 -4 -17 -12 -34 -21 -39 -21 -81 -1 -81 8 0 15 8
15 19 0 10 9 40 21 65 32 74 11 97 -49 54z"/>
<path d="M6113 10570 c3 -10 0 -21 -6 -23 -18 -6 -13 -105 6 -125 16 -15 20
-15 45 -2 59 34 66 98 15 146 -32 30 -68 33 -60 4z m67 -74 c0 -24 -27 -49
-44 -43 -14 5 -16 14 -10 44 4 21 9 42 12 47 6 11 42 -31 42 -48z"/>
<path d="M6323 10568 c-11 -13 -25 -32 -31 -43 -10 -18 -11 -17 -12 13 0 20
-5 32 -14 32 -9 0 -16 -19 -20 -60 -11 -98 13 -109 59 -25 16 30 32 55 36 55
3 0 6 -25 6 -56 0 -65 16 -89 56 -79 29 8 64 41 53 52 -4 4 -20 -1 -37 -11
-17 -10 -33 -16 -35 -13 -3 3 -5 31 -5 63 0 56 -11 94 -28 94 -4 0 -17 -10
-28 -22z"/>
<path d="M8631 10573 c-21 -17 -21 -19 -6 -63 9 -25 27 -62 40 -82 30 -45 30
-45 6 -58 -29 -15 -49 -3 -43 26 6 34 -24 32 -33 -3 -5 -21 -2 -32 15 -45 26
-21 40 -22 75 -6 40 18 42 51 6 106 -39 60 -49 107 -27 115 9 4 16 11 16 17 0
16 -25 12 -49 -7z"/>
<path d="M9550 10569 c-19 -11 -47 -34 -62 -52 -51 -58 -46 -137 9 -137 33 0
91 44 104 78 11 28 3 133 -9 131 -4 0 -23 -9 -42 -20z m28 -63 c3 -21 -5 -37
-29 -62 -38 -39 -54 -42 -69 -14 -7 14 -7 20 0 20 5 0 10 6 10 13 0 18 60 79
73 74 7 -2 13 -16 15 -31z"/>
<path d="M9716 10550 c-24 -22 -50 -40 -59 -40 -20 0 -37 -30 -37 -64 0 -38
21 -31 59 20 38 50 80 80 67 48 -14 -35 -18 -91 -8 -98 17 -10 93 6 99 21 8
21 1 23 -40 14 -42 -10 -42 -9 -22 49 19 55 19 90 0 90 -9 0 -35 -18 -59 -40z"/>
<path d="M14050 10563 c-57 -11 -48 -44 10 -35 21 3 30 10 30 23 0 11 -3 18
-7 18 -5 -1 -19 -4 -33 -6z"/>
<path d="M4431 10536 c-15 -16 -25 -43 -30 -82 -10 -68 -6 -84 19 -84 22 0 35
16 20 25 -14 9 -12 75 3 105 7 13 23 27 36 30 36 8 39 30 4 30 -18 0 -38 -9
-52 -24z"/>
<path d="M14100 10549 c0 -5 5 -7 10 -4 6 3 10 8 10 11 0 2 -4 4 -10 4 -5 0
-10 -5 -10 -11z"/>
<path d="M4607 10510 c-68 -76 -57 -160 21 -160 21 0 47 7 58 15 18 13 16 14
-28 15 -26 0 -50 5 -53 10 -4 6 -11 8 -16 5 -5 -4 -5 3 0 16 4 13 21 27 37 32
42 14 54 26 54 56 0 25 -16 51 -30 51 -4 0 -23 -18 -43 -40z m43 -14 c0 -2 -8
-10 -17 -17 -16 -13 -17 -12 -4 4 13 16 21 21 21 13z"/>
<path d="M4830 10530 c-6 -11 -19 -20 -30 -20 -13 0 -22 -12 -31 -37 -6 -21
-16 -43 -21 -50 -10 -12 -3 -33 11 -33 4 0 29 30 56 66 44 61 50 65 62 48 7
-10 13 -34 13 -55 0 -36 22 -69 34 -50 8 13 -2 89 -16 115 -21 41 -60 49 -78
16z"/>
<path d="M5275 10540 c-8 -13 -8 -127 0 -140 16 -27 25 -3 25 70 0 73 -9 97
-25 70z"/>
<path d="M5427 10526 c-42 -63 -26 -102 29 -73 27 14 29 13 49 -17 23 -34 49
-44 70 -26 19 16 9 32 -15 25 -25 -8 -44 28 -37 71 6 38 -6 52 -30 32 -12 -9
-15 -9 -9 0 15 24 -41 13 -57 -12z m38 -26 c-10 -11 -20 -18 -23 -15 -7 6 18
35 31 35 5 0 2 -9 -8 -20z"/>
<path d="M8369 10520 c-26 -25 -30 -36 -27 -72 3 -38 6 -43 30 -46 15 -2 38 4
52 14 16 10 26 12 26 5 0 -6 9 -20 20 -31 16 -16 25 -18 40 -10 26 14 25 28
-2 32 -21 3 -23 9 -23 57 0 34 -5 56 -12 58 -7 3 -13 -2 -13 -11 0 -20 -58
-86 -76 -86 -21 0 -17 44 5 64 13 11 27 15 40 11 16 -5 21 -2 21 13 0 18 -18
32 -42 32 -5 0 -23 -13 -39 -30z"/>
<path d="M5951 10514 c-15 -33 -14 -61 2 -67 10 -4 10 -6 0 -6 -18 -1 -16 -41
1 -41 10 0 15 15 18 48 3 26 8 54 12 63 4 10 2 18 -7 22 -9 3 -19 -4 -26 -19z"/>
<path d="M7551 10523 c-35 -29 -56 -190 -22 -169 4 3 11 28 15 56 4 28 11 62
16 76 9 22 14 24 45 18 39 -7 48 8 16 26 -28 14 -46 13 -70 -7z"/>
<path d="M7762 10520 c-19 -21 -21 -21 -30 -3 -15 26 -22 13 -32 -58 -9 -63
-7 -79 10 -79 11 0 26 48 22 68 -2 6 4 12 11 12 8 0 17 7 21 15 11 30 25 14
28 -32 2 -25 8 -48 15 -50 6 -3 25 19 41 47 16 29 32 48 35 43 2 -4 8 -32 12
-60 7 -56 19 -73 38 -54 8 8 8 11 -2 11 -7 0 -9 4 -6 10 9 15 -13 123 -27 131
-17 11 -47 -8 -61 -38 l-11 -25 -11 38 c-12 45 -27 52 -53 24z"/>
<path d="M11075 10522 c-40 -25 -56 -45 -61 -80 -6 -38 35 -75 75 -68 14 2 29
5 34 5 4 1 7 8 7 16 0 10 -10 14 -33 13 -37 -1 -57 7 -57 25 0 8 3 8 11 0 9
-9 23 -3 55 24 45 36 56 66 28 77 -22 9 -26 8 -59 -12z m30 -28 c-28 -21 -55
-36 -55 -29 0 6 62 45 70 45 3 -1 -4 -8 -15 -16z"/>
<path d="M2461 10497 c-6 -12 -25 -30 -42 -39 -22 -13 -30 -24 -27 -40 5 -36
31 -31 59 10 62 89 63 92 42 92 -11 0 -25 -10 -32 -23z"/>
<path d="M3767 10513 c-10 -10 -8 -116 3 -133 16 -25 24 -2 24 70 1 65 -7 84
-27 63z"/>
<path d="M4268 10503 c-35 -43 -44 -68 -37 -103 8 -39 32 -60 68 -60 34 1 69
26 54 41 -7 7 -14 6 -24 -4 -16 -16 -39 -12 -56 11 -11 13 -6 21 24 47 37 32
37 32 20 59 -20 31 -29 32 -49 9z"/>
<path d="M8101 10501 c-6 -11 -11 -33 -11 -50 0 -44 -10 -61 -36 -61 -30 0
-48 33 -41 77 5 28 3 34 -11 31 -39 -7 -21 -121 21 -132 74 -20 89 -5 100 91
6 55 -5 77 -22 44z"/>
<path d="M7366 10479 c-36 -42 -43 -75 -20 -100 10 -11 23 -18 30 -15 7 3 14
0 17 -7 5 -17 65 11 72 34 7 22 -44 119 -62 119 -6 0 -23 -14 -37 -31z m64
-69 c0 -23 -26 -33 -51 -20 -23 13 -23 15 -2 51 l18 30 17 -22 c10 -11 18 -29
18 -39z"/>
<path d="M3292 10477 c-15 -18 -8 -72 9 -72 9 0 15 14 17 43 3 42 -6 53 -26
29z"/>
<path d="M4100 10364 c0 -17 22 -14 28 4 2 7 -3 12 -12 12 -9 0 -16 -7 -16
-16z"/>
<path d="M5490 10226 l0 -84 -45 -6 c-31 -5 -45 -12 -45 -23 0 -12 9 -14 50
-8 l50 7 2 -49 c1 -26 1 -65 0 -86 -1 -32 1 -38 16 -35 15 3 17 14 13 86 l-3
82 46 0 c34 0 46 4 46 15 0 10 -11 15 -32 16 -18 1 -40 2 -48 3 -12 1 -16 19
-18 84 -2 64 -6 82 -17 82 -12 0 -15 -17 -15 -84z"/>
<path d="M3951 10279 c-5 -13 -13 -53 -16 -89 l-6 -65 -42 0 c-33 0 -42 -4
-45 -19 -4 -16 1 -18 30 -13 19 3 41 2 48 -3 13 -8 16 -90 4 -143 -5 -24 -3
-28 13 -25 15 3 18 15 21 85 l3 81 27 -2 c38 -2 40 17 3 28 -35 10 -36 18 -21
111 10 64 -1 97 -19 54z"/>
<path d="M6524 10254 c-11 -26 -14 -61 -10 -137 5 -119 13 -157 32 -157 11 0
12 13 6 63 -9 81 -8 194 2 235 12 45 -11 43 -30 -4z"/>
<path d="M8267 10243 c-12 -22 -17 -174 -7 -194 7 -13 8 -19 2 -15 -7 4 -10
-7 -8 -31 3 -52 21 -49 73 15 45 55 47 55 58 -11 3 -21 13 -41 21 -44 22 -8
28 3 16 34 -6 15 -13 45 -17 66 -9 58 -31 58 -82 1 l-44 -49 6 118 c5 78 3
117 -3 117 -6 0 -13 -3 -15 -7z"/>
<path d="M3261 10169 c-6 -18 -11 -72 -11 -120 0 -72 3 -89 15 -89 11 0 15 12
15 45 0 29 -4 45 -12 45 -9 0 -10 3 -2 8 6 4 14 27 17 52 3 25 9 55 13 68 11
36 -22 27 -35 -9z"/>
<path d="M7677 10180 c-18 -26 -14 -57 13 -111 11 -21 20 -43 20 -49 0 -18
-33 -11 -57 12 -17 16 -26 19 -34 11 -17 -17 33 -63 69 -63 57 0 65 34 27 110
-29 58 -25 85 14 75 14 -4 30 -13 34 -21 11 -20 27 -18 27 4 0 29 -14 41 -56
48 -35 5 -44 3 -57 -16z"/>
<path d="M6710 10155 c-16 -19 -4 -54 32 -87 30 -28 30 -28 7 -28 -40 0 -69
12 -69 26 0 19 -19 18 -27 -3 -11 -28 32 -53 93 -53 50 0 54 2 54 23 0 13 -13
36 -30 52 -43 41 -40 59 9 51 44 -7 63 7 32 23 -28 16 -87 13 -101 -4z"/>
<path d="M9420 10148 c-38 -20 -45 -28 -45 -53 0 -26 6 -33 52 -55 74 -36 76
-44 11 -36 -48 6 -58 5 -58 -8 0 -21 105 -43 125 -26 34 28 10 66 -57 94 -20
9 -39 20 -42 25 -8 13 33 41 60 41 28 0 36 10 23 27 -15 17 -17 17 -69 -9z"/>
<path d="M8057 10140 c-29 -23 -60 -96 -55 -131 5 -37 49 -53 116 -42 83 12
81 34 -2 31 -38 -1 -71 3 -77 9 -16 16 7 79 42 112 16 16 26 31 22 34 -10 11
-19 8 -46 -13z"/>
<path d="M4175 10140 c-21 -8 -47 -32 -78 -70 -14 -17 -17 -31 -12 -57 9 -47
33 -56 130 -46 65 7 80 11 83 26 3 14 -1 17 -20 13 -13 -3 -52 -7 -88 -8 -55
-3 -65 0 -68 15 -2 9 2 17 8 17 16 0 109 62 114 77 6 14 -20 43 -37 42 -7 0
-21 -4 -32 -9z m27 -32 c-6 -7 -25 -22 -44 -32 l-33 -19 20 23 c11 12 29 26
40 31 28 11 29 11 17 -3z"/>
<path d="M5082 10128 c2 -18 9 -22 27 -20 31 3 35 7 28 27 -4 8 -18 15 -32 15
-22 0 -26 -4 -23 -22z"/>
<path d="M7925 10140 c-3 -5 -3 -25 0 -43 8 -41 -21 -84 -50 -73 -15 5 -17 14
-12 56 6 53 -5 73 -22 41 -15 -27 -14 -104 1 -119 28 -28 83 -12 104 31 24 46
4 148 -21 107z"/>
<path d="M5698 10105 c-61 -41 -82 -113 -43 -145 15 -13 87 -16 105 -5 18 11
-1 34 -22 26 -45 -17 -87 8 -67 40 7 11 9 11 9 -3 0 -27 16 -22 55 20 39 42
44 67 17 81 -14 8 -27 4 -54 -14z m32 -31 c-8 -8 -23 -20 -34 -26 -20 -11 -20
-10 -6 8 18 23 32 34 44 34 5 0 3 -7 -4 -16z"/>
<path d="M9142 10114 c-18 -13 -62 -82 -62 -98 0 -2 7 -11 15 -20 17 -17 55
-8 87 21 15 14 17 12 20 -19 3 -36 20 -45 64 -34 30 8 22 26 -12 26 -22 0 -24
4 -24 45 0 33 4 45 15 45 20 0 19 13 -3 33 -23 21 -71 22 -100 1z m53 -38
c-15 -22 -57 -56 -70 -56 -3 0 -5 6 -5 14 0 21 47 66 70 66 19 0 20 -1 5 -24z"/>
<path d="M6080 10078 c-12 -19 -20 -51 -20 -75 0 -36 3 -43 19 -43 17 0 19 5
14 35 -8 51 19 88 58 80 16 -4 29 -3 29 2 0 18 -25 33 -52 33 -21 0 -33 -8
-48 -32z"/>
<path d="M5891 10065 c-33 -38 -39 -63 -19 -83 16 -16 63 -15 98 3 35 18 40
12 47 -59 l5 -53 -32 -6 c-46 -10 -110 -76 -110 -115 0 -36 20 -50 64 -46 38
4 70 35 91 90 16 43 18 45 49 38 17 -3 34 -11 37 -16 4 -7 9 -6 13 1 10 16
-31 51 -59 51 -22 0 -25 4 -26 38 -1 51 -31 154 -46 160 -7 2 -17 -8 -23 -22
-11 -29 -51 -52 -75 -42 -23 9 -1 45 36 59 32 13 33 30 2 35 -13 2 -31 -10
-52 -33z m114 -262 c-24 -60 -78 -94 -91 -59 -8 21 13 55 49 76 50 31 60 27
42 -17z"/>
<path d="M2573 10064 c-33 -48 -53 -64 -77 -64 -27 0 -43 -17 -29 -31 5 -5 22
-5 42 1 27 8 36 6 46 -6 22 -31 155 -38 155 -8 0 10 -14 14 -56 13 -68 -2 -90
14 -41 30 19 6 45 23 58 37 24 25 24 26 5 40 -33 23 -82 18 -103 -12z m47 -24
c-19 -10 -37 -16 -40 -13 -9 8 33 33 54 33 16 -1 13 -5 -14 -20z"/>
<path d="M3003 10071 c-47 -22 -67 -52 -59 -87 8 -29 30 -31 74 -4 35 21 44
15 39 -25 -1 -13 5 -21 18 -23 18 -2 20 3 21 58 1 41 -3 60 -11 60 -7 0 -15 9
-18 20 -6 24 -11 25 -64 1z m52 -31 c6 -9 -75 -54 -82 -46 -8 8 10 35 30 44
29 14 44 14 52 2z"/>
<path d="M3483 10083 c-8 -3 -10 -15 -6 -34 5 -24 0 -36 -23 -60 -33 -34 -40
-28 -49 44 -9 64 -31 58 -27 -7 2 -27 7 -59 12 -72 23 -61 120 8 120 86 0 40
-6 50 -27 43z"/>
<path d="M3623 10054 c-59 -63 -27 -119 47 -81 21 11 29 10 51 -2 26 -14 59
-10 59 8 0 5 -10 11 -22 13 -16 2 -24 11 -26 28 -7 63 -11 70 -44 70 -22 0
-40 -10 -65 -36z m77 -7 c0 -17 -28 -43 -57 -51 -30 -10 -29 2 4 36 29 30 53
37 53 15z"/>
<path d="M6248 10063 c-15 -10 -33 -30 -39 -46 -10 -24 -9 -30 7 -41 19 -15
36 -11 96 20 24 12 33 13 36 5 8 -25 49 -64 60 -57 7 4 3 18 -13 42 -13 20
-27 44 -30 55 -6 18 -35 28 -35 11 0 -11 -80 -56 -87 -49 -10 10 8 27 43 42
20 8 33 19 29 25 -9 15 -36 12 -67 -7z"/>
<path d="M2760 10046 c0 -36 18 -78 47 -108 34 -36 56 -24 73 39 7 26 14 56
17 66 3 12 -2 17 -16 17 -15 0 -21 -6 -21 -24 0 -12 -5 -38 -11 -56 l-12 -33
-18 24 c-11 13 -22 41 -25 62 -7 42 -34 52 -34 13z"/>
<path d="M5225 10044 c-20 -20 -55 -89 -55 -108 0 -35 21 -23 41 24 23 53 46
74 68 61 10 -6 10 -17 1 -50 -11 -41 -7 -61 10 -61 5 0 14 25 21 56 12 55 12
57 -10 75 -28 23 -54 24 -76 3z"/>
<path d="M5085 10040 c-3 -5 -3 -14 0 -20 3 -5 0 -36 -6 -69 -10 -48 -10 -62
0 -75 17 -20 34 -10 26 14 -3 10 -1 39 6 64 16 63 -3 124 -26 86z"/>
<path d="M3250 9929 c0 -24 23 -21 28 4 2 10 -3 17 -12 17 -10 0 -16 -9 -16
-21z"/>
<path d="M4634 9445 c-20 -31 -15 -94 21 -234 40 -160 53 -257 59 -451 4 -102
9 -224 12 -272 4 -63 2 -88 -6 -88 -13 0 -98 71 -168 138 -45 44 -69 50 -64
16 4 -24 83 -99 155 -147 31 -21 59 -42 62 -47 10 -16 42 -12 49 6 11 28 -14
575 -29 669 -9 49 -26 132 -39 185 -48 190 -45 224 22 218 32 -3 38 -7 46 -36
12 -41 32 -36 29 9 -2 43 -25 59 -85 59 -40 0 -50 -4 -64 -25z"/>
<path d="M2630 9423 c-25 -2 -52 -6 -60 -9 -8 -4 -53 -8 -99 -9 -46 -2 -87 -7
-91 -12 -9 -10 -30 -221 -30 -300 0 -42 5 -64 15 -73 8 -7 15 -9 15 -4 0 4 6
-1 14 -11 11 -16 17 -17 29 -7 11 10 28 9 78 -3 35 -8 101 -15 145 -15 80 0
82 1 88 26 4 14 3 89 -2 167 -5 78 -9 167 -8 197 1 62 2 61 -94 53z m65 -75
c-3 -29 -2 -110 4 -180 6 -70 8 -134 5 -143 -8 -20 -110 -20 -189 1 -33 8 -72
14 -87 11 -19 -2 -28 1 -28 10 0 7 -4 13 -10 13 -17 0 -7 176 15 281 6 29 19
31 205 45 41 4 77 8 79 10 11 10 12 0 6 -48z"/>
<path d="M2482 9289 c-28 -26 -41 -47 -38 -56 6 -13 9 -13 30 0 l24 16 -5 -42
c-7 -63 -10 -67 -42 -67 -16 0 -33 -5 -37 -11 -9 -15 12 -33 28 -23 7 5 22 7
33 6 11 -2 41 4 68 12 27 8 49 10 53 5 9 -16 24 1 24 28 0 22 -3 24 -22 18
-13 -4 -35 -9 -50 -12 -24 -5 -28 -2 -28 18 0 13 6 50 14 81 19 82 11 87 -52
27z"/>
<path d="M7110 9284 c-8 -2 -161 -13 -339 -25 -228 -15 -391 -20 -552 -18
-126 2 -229 3 -229 2 0 -1 4 -13 10 -27 6 -16 5 -47 -1 -88 -22 -133 -82 -434
-89 -447 -4 -7 -10 18 -13 55 -4 38 -13 132 -22 209 -8 77 -15 146 -15 153 0
23 -35 11 -78 -28 -24 -22 -41 -44 -37 -50 7 -11 33 0 60 26 9 9 19 14 22 11
3 -4 11 -64 18 -134 29 -285 42 -363 59 -363 3 0 10 8 15 18 10 18 91 419 112
554 l12 76 234 1 c129 1 292 6 361 11 632 45 614 44 916 31 159 -6 291 -9 294
-6 17 17 -33 25 -216 34 -189 10 -488 13 -522 5z"/>
<path d="M5127 9167 c-44 -28 -66 -55 -67 -79 0 -24 26 -23 33 1 9 37 117 83
117 51 0 -33 -97 -173 -133 -191 -50 -26 -120 -109 -90 -109 14 0 103 63 103
74 1 6 7 -7 15 -28 23 -65 35 -71 84 -46 39 19 60 44 48 56 -2 3 -21 -5 -41
-17 -43 -25 -54 -19 -65 32 -6 29 -1 41 39 94 25 33 54 79 64 103 17 37 18 45
5 57 -26 27 -71 27 -112 2z"/>
<path d="M7418 9179 c-28 -11 -43 -35 -28 -44 5 -3 18 -1 29 5 38 20 43 10 15
-27 -15 -21 -33 -41 -39 -45 -42 -26 -59 -47 -48 -59 9 -9 18 -7 39 10 33 26
44 27 37 3 -2 -10 4 -28 14 -40 18 -22 18 -22 53 -4 19 11 36 27 38 36 4 20
-12 21 -42 1 -23 -15 -23 -15 -29 27 -5 35 -1 47 19 71 29 35 30 53 5 67 -23
12 -27 12 -63 -1z"/>
<path d="M8157 9183 c-3 -5 -1 -30 4 -58 9 -60 11 -142 3 -172 -5 -20 -8 -20
-21 -8 -23 24 -52 18 -88 -18 -54 -54 -57 -157 -4 -157 34 0 114 89 134 150
24 74 13 270 -15 270 -5 0 -11 -3 -13 -7z m-25 -267 c16 -12 16 -15 -7 -48
-27 -40 -71 -72 -80 -58 -11 17 15 89 38 105 26 18 27 18 49 1z"/>
<path d="M5337 9034 c-16 -16 -7 -36 14 -31 20 5 21 3 16 -34 -6 -44 -29 -76
-65 -90 -13 -5 -20 -13 -17 -19 10 -17 51 -11 70 10 18 20 18 20 29 -2 6 -13
22 -25 35 -26 30 -5 101 27 101 45 0 15 -12 17 -25 4 -6 -5 -27 -13 -47 -16
l-38 -7 0 42 c0 34 6 47 31 71 17 16 37 29 45 29 8 0 14 7 14 15 0 23 -35 18
-67 -9 l-27 -24 -11 22 c-11 21 -45 33 -58 20z"/>
<path d="M6349 9033 c-1 -4 -1 -21 0 -38 1 -16 -9 -91 -22 -165 -14 -74 -22
-138 -20 -142 10 -18 33 -7 33 16 0 13 9 78 21 145 21 128 22 182 2 189 -7 2
-13 0 -14 -5z"/>
<path d="M8304 9016 c-15 -12 -16 -17 -7 -27 10 -10 15 -9 28 1 11 9 19 10 27
2 15 -15 3 -52 -31 -92 -25 -29 -32 -32 -40 -20 -16 23 -40 -4 -25 -28 18 -28
43 -26 71 7 l27 31 27 -26 c33 -31 108 -56 132 -42 26 14 20 28 -12 28 -38 0
-83 17 -98 37 -16 21 16 85 51 101 14 6 26 16 26 21 0 22 -23 21 -53 -2 l-32
-24 -18 23 c-20 27 -44 30 -73 10z"/>
<path d="M6737 8993 c-3 -5 -8 -36 -12 -71 -4 -38 -12 -62 -19 -61 -41 5 -76
-2 -76 -16 0 -11 11 -15 39 -15 l40 0 -2 -41 c-3 -59 20 -62 28 -5 7 45 8 46
44 46 36 0 61 14 61 33 0 5 -21 7 -46 4 l-46 -5 6 37 c3 20 8 51 12 69 5 25 3
32 -9 32 -9 0 -18 -3 -20 -7z"/>
<path d="M7268 8911 c-34 -29 -35 -30 -51 -10 -27 30 -117 19 -117 -16 0 -18
9 -19 44 -5 31 12 56 4 56 -19 0 -28 -36 -77 -74 -100 -20 -13 -36 -27 -36
-32 0 -15 31 -10 65 11 32 20 32 20 50 0 20 -22 74 -27 106 -10 33 18 21 28
-33 26 l-53 -1 1 32 c2 39 36 88 75 109 29 15 34 34 12 41 -6 2 -26 -9 -45
-26z"/>
<path d="M14232 8181 c-13 -22 -32 -84 -43 -138 -11 -54 -36 -147 -56 -206
-44 -133 -36 -152 30 -71 50 60 53 61 37 18 -13 -33 4 -94 26 -94 17 0 18 14
4 41 -8 15 -6 30 10 65 21 50 26 94 10 94 -5 0 -28 -16 -50 -36 -22 -20 -40
-34 -40 -31 0 2 7 24 16 48 8 24 27 94 40 154 14 61 34 125 45 143 18 31 18
52 0 52 -4 0 -17 -18 -29 -39z"/>
<path d="M10855 8188 c-2 -7 -12 -49 -20 -93 -9 -44 -23 -86 -30 -94 -9 -10
-39 -14 -89 -15 -65 -1 -76 -3 -76 -18 0 -14 9 -18 39 -18 22 0 42 5 44 13 4
9 6 9 6 -1 1 -9 11 -11 36 -6 19 3 35 3 35 -2 0 -4 -10 -57 -22 -116 -15 -78
-18 -112 -11 -119 14 -14 36 -1 29 16 -4 11 16 124 39 221 3 12 14 24 26 27
16 4 19 2 14 -11 -19 -49 -36 -137 -31 -158 10 -38 31 -39 86 -5 l51 32 -3
-78 c-2 -62 0 -78 11 -78 10 0 15 18 18 68 8 121 -9 140 -79 92 -20 -14 -42
-25 -47 -25 -24 0 27 168 65 213 28 33 34 97 9 97 -8 0 -15 -5 -15 -11 0 -27
-35 -81 -61 -95 -16 -8 -29 -13 -29 -12 0 2 7 37 15 78 9 41 17 81 18 89 3 18
-22 27 -28 9z"/>
<path d="M13946 8183 c-3 -3 -6 -15 -6 -25 0 -10 -7 -18 -17 -18 -28 0 -141
-79 -188 -132 -93 -103 -135 -248 -88 -300 45 -50 135 -68 220 -43 64 19 148
59 158 76 9 14 -13 38 -23 24 -14 -21 -60 -43 -127 -64 -78 -24 -133 -21 -184
10 -28 17 -31 24 -31 66 0 93 70 204 174 277 85 60 96 63 96 26 0 -38 21 -39
49 -4 25 32 26 47 6 68 -8 8 -15 19 -15 25 0 13 -15 22 -24 14z"/>
<path d="M9050 8029 c-21 -105 -28 -123 -48 -132 -24 -11 -24 -33 0 -31 16 1
16 2 4 -129 -3 -40 -1 -48 13 -45 13 3 17 20 21 85 3 45 8 84 10 86 3 3 36 8
73 12 l68 7 -28 -50 c-24 -43 -26 -53 -15 -76 25 -56 132 -8 132 59 0 33 -27
92 -44 98 -8 3 -48 1 -90 -5 -42 -6 -79 -8 -83 -5 -3 4 4 56 16 117 21 102 21
130 2 130 -4 0 -18 -55 -31 -121z m195 -188 c8 -36 -7 -67 -36 -76 -38 -12
-44 10 -15 59 15 25 31 46 36 46 4 0 11 -13 15 -29z"/>
<path d="M7842 8104 c-5 -11 -13 -35 -17 -54 -4 -19 -27 -96 -52 -170 -24 -74
-43 -143 -41 -153 6 -39 24 -14 49 70 14 48 41 137 59 196 22 74 29 112 22
119 -7 7 -13 4 -20 -8z"/>
<path d="M5501 8091 c-6 -11 -11 -38 -11 -60 0 -22 -9 -101 -20 -176 -20 -134
-19 -190 4 -182 6 2 12 24 12 48 1 24 9 94 17 154 22 156 27 224 17 230 -5 3
-14 -3 -19 -14z"/>
<path d="M4239 8083 c0 -5 0 -40 1 -80 l1 -71 -40 -33 c-23 -18 -41 -36 -41
-41 0 -14 27 -9 52 12 l25 19 8 -99 c5 -81 10 -100 22 -100 14 0 15 14 9 111
l-7 110 37 41 37 41 -6 -84 c-4 -46 -9 -101 -12 -121 -7 -48 16 -53 35 -8 14
33 26 36 54 15 11 -8 28 -15 38 -15 14 0 18 -8 18 -38 0 -56 27 -77 98 -76 58
1 132 19 132 33 0 17 -14 18 -74 5 -37 -8 -75 -10 -92 -5 -25 6 -29 13 -32 44
-2 21 0 37 5 36 19 -3 40 2 58 14 17 13 17 15 -1 45 -23 40 -45 41 -67 2 -21
-36 -48 -38 -77 -8 -16 18 -24 20 -38 12 -16 -10 -17 -5 -14 66 4 80 -7 120
-33 120 -8 0 -15 -3 -15 -7 -1 -5 -12 -21 -26 -38 l-24 -30 1 56 c1 31 -1 61
-5 68 -8 12 -26 15 -27 4z m301 -263 c0 -5 -4 -10 -10 -10 -5 0 -10 5 -10 10
0 6 5 10 10 10 6 0 10 -4 10 -10z"/>
<path d="M7525 8068 c-2 -7 -6 -40 -9 -73 -4 -33 -16 -94 -27 -135 -11 -41
-22 -85 -26 -98 -13 -52 41 -67 113 -31 67 32 108 121 72 157 -18 18 -72 14
-100 -7 l-24 -20 12 62 c23 119 25 157 8 157 -8 0 -16 -6 -19 -12z m105 -222
c0 -32 -36 -75 -76 -92 -77 -32 -84 -8 -18 65 52 58 94 70 94 27z"/>
<path d="M7130 8047 c0 -8 9 -17 21 -20 15 -4 19 -1 17 11 -4 21 -38 29 -38 9z"/>
<path d="M8684 8035 c-3 -8 -3 -19 1 -25 10 -16 35 7 28 26 -7 18 -22 18 -29
-1z"/>
<path d="M2615 7993 c-15 -80 0 -299 20 -297 6 0 23 25 39 54 l29 53 13 -38
c13 -38 28 -55 52 -55 17 0 15 10 -5 32 -9 10 -19 38 -22 61 -7 53 -35 57 -67
9 -21 -31 -23 -31 -29 -11 -4 11 -5 66 -3 122 2 68 -1 102 -8 104 -7 2 -15
-13 -19 -34z"/>
<path d="M11165 7998 c-9 -22 -2 -68 10 -71 14 -3 19 63 6 76 -7 7 -12 5 -16
-5z"/>
<path d="M5741 7930 c-17 -39 -31 -75 -31 -81 0 -18 -92 -109 -111 -109 -29 0
-23 35 12 75 34 39 29 66 -6 37 -99 -82 -50 -194 52 -116 25 19 33 21 33 10 0
-30 23 -65 52 -77 25 -10 35 -9 65 5 27 13 33 20 25 28 -9 9 -18 8 -37 0 -29
-13 -52 -7 -65 19 -17 31 -11 68 25 142 42 88 54 137 33 137 -9 0 -28 -29 -47
-70z"/>
<path d="M9810 7946 c-8 -11 -11 -37 -8 -81 4 -72 0 -76 -49 -45 -21 13 -35
16 -39 9 -11 -19 31 -50 76 -56 48 -7 63 7 49 44 -5 14 -9 42 -9 64 0 33 3 39
21 39 14 0 19 5 17 18 -4 22 -41 27 -58 8z"/>
<path d="M12355 7948 c-11 -5 -32 -24 -47 -41 l-28 -31 0 37 c0 57 -26 48 -33
-11 -3 -27 -15 -75 -26 -107 -19 -55 -20 -75 -2 -75 4 0 32 41 61 91 56 93 83
120 103 100 8 -8 3 -29 -16 -76 -30 -74 -34 -105 -12 -105 8 0 15 7 15 15 0 8
12 43 26 79 18 42 25 73 20 90 -8 33 -35 48 -61 34z"/>
<path d="M12944 7949 c-4 -7 0 -17 9 -24 23 -17 22 -77 -1 -98 -24 -22 -35
-21 -57 3 -24 27 -43 25 -97 -9 -25 -16 -55 -32 -66 -35 -19 -6 -20 -4 -13 21
5 15 14 40 21 56 7 15 10 30 7 33 -13 13 -34 -16 -52 -71 -18 -51 -18 -56 -3
-71 15 -15 22 -14 92 25 44 24 77 37 81 31 3 -6 20 -17 36 -26 28 -14 33 -14
55 1 14 9 32 31 41 49 14 30 14 39 2 77 -14 44 -40 62 -55 38z"/>
<path d="M9975 7898 c-29 -62 -30 -76 -9 -106 22 -32 73 -27 93 10 15 25 14
31 -14 87 -17 33 -34 60 -38 61 -4 0 -19 -24 -32 -52z m50 -37 c8 -17 12 -37
9 -45 -8 -20 -40 -21 -48 -1 -5 13 11 75 20 75 2 0 10 -13 19 -29z"/>
<path d="M7935 7916 c-38 -38 -67 -104 -60 -136 7 -33 19 -44 66 -64 29 -12
42 -12 89 1 58 15 87 34 76 51 -4 7 -17 5 -37 -5 -18 -9 -51 -18 -75 -21 -36
-4 -46 -1 -68 21 -15 16 -23 32 -20 41 3 9 10 13 15 11 15 -10 88 44 95 70 13
53 -39 73 -81 31z m53 -18 c-2 -6 -19 -23 -38 -37 -35 -27 -33 -14 3 27 22 24
41 30 35 10z"/>
<path d="M12526 7919 c-32 -25 -66 -89 -66 -123 0 -34 43 -66 90 -66 29 0 39
5 43 19 4 16 0 18 -32 14 -42 -5 -78 15 -68 41 4 9 16 16 27 16 11 0 36 7 55
14 29 12 35 20 35 45 0 31 -22 61 -44 61 -7 0 -25 -9 -40 -21z m54 -35 c0 -15
-45 -37 -62 -32 -6 2 2 16 17 31 28 27 45 28 45 1z"/>
<path d="M15084 7892 c-28 -26 -84 -76 -123 -111 l-72 -63 7 50 c7 58 -1 102
-19 102 -7 0 -32 -18 -55 -39 -43 -40 -78 -58 -90 -46 -12 11 49 57 69 52 14
-4 19 0 19 13 0 38 -41 30 -92 -18 -32 -29 -36 -67 -10 -81 23 -12 77 11 120
51 28 29 32 30 32 12 0 -65 -26 -142 -65 -194 -39 -50 -75 -111 -75 -125 0 -3
9 -5 21 -5 48 0 119 80 119 135 0 26 28 60 126 148 l31 27 -4 -27 c-3 -20 2
-34 17 -48 21 -19 22 -19 91 5 66 22 99 44 86 56 -3 3 -32 -4 -64 -15 -65 -23
-103 -27 -103 -11 0 27 32 81 70 118 23 23 39 46 35 52 -10 16 -17 12 -71 -38z
m-253 -300 c-5 -10 -18 -25 -27 -33 -11 -9 -9 -2 6 19 26 35 36 42 21 14z"/>
<path d="M10160 7905 c-6 -14 -10 -34 -10 -44 0 -9 -9 -34 -20 -56 -11 -22
-20 -45 -20 -52 0 -25 28 -13 40 17 7 17 26 49 43 72 26 36 31 39 39 24 7 -12
6 -32 -2 -62 -13 -47 -6 -70 13 -43 41 55 81 93 85 79 3 -7 16 -24 29 -36 30
-27 36 -33 73 -73 24 -26 36 -31 75 -31 48 0 107 20 120 40 13 20 -3 23 -45 6
-55 -22 -105 -21 -130 4 -27 27 -26 32 20 58 54 31 74 61 61 96 -19 50 -80 20
-111 -54 -7 -17 -18 -30 -26 -30 -16 0 -44 39 -44 62 0 27 -35 22 -55 -9 l-17
-26 -13 30 c-17 41 -32 48 -56 27 -17 -15 -19 -15 -19 -1 0 28 -20 29 -30 2z
m316 -53 c-35 -36 -41 -24 -9 17 17 21 29 29 31 22 2 -7 -7 -25 -22 -39z"/>
<path d="M7249 7889 c-30 -32 -52 -90 -43 -114 13 -32 54 -25 100 17 21 19 21
19 27 -12 7 -34 32 -49 50 -31 9 9 8 14 -3 21 -11 7 -15 27 -15 67 0 38 -4 58
-12 58 -7 0 -18 6 -24 13 -21 20 -49 14 -80 -19z m66 -13 c12 -12 9 -19 -21
-50 -19 -20 -39 -36 -44 -36 -19 0 -10 39 16 69 30 35 31 36 49 17z"/>
<path d="M8649 7898 c-19 -34 -18 -153 1 -153 10 0 14 14 15 50 1 28 5 67 10
88 9 42 -7 51 -26 15z"/>
<path d="M8782 7900 c-22 -20 -82 -104 -82 -114 0 -3 6 -6 14 -6 7 0 31 23 52
52 56 74 65 73 62 -4 -2 -66 6 -92 25 -85 15 5 10 146 -5 165 -15 18 -41 15
-66 -8z"/>
<path d="M2387 7894 c-33 -18 -56 -65 -49 -100 2 -13 18 -35 34 -49 25 -21 40
-25 92 -25 73 0 126 16 126 37 0 11 -5 13 -17 8 -10 -5 -48 -10 -86 -13 -81
-5 -117 12 -117 56 0 15 4 32 8 39 12 18 55 32 85 26 34 -7 38 22 5 31 -34 9
-50 7 -81 -10z"/>
<path d="M6516 7901 c-3 -4 -14 -32 -25 -62 -12 -31 -34 -68 -51 -84 l-29 -28
-33 72 c-18 39 -39 71 -45 71 -19 0 -16 -10 18 -86 44 -98 61 -105 115 -46 19
20 42 57 51 82 9 25 20 49 25 55 4 5 8 12 8 16 0 10 -29 19 -34 10z"/>
<path d="M6640 7873 c-38 -32 -60 -73 -60 -112 0 -45 27 -55 78 -29 23 11 42
24 42 29 0 17 18 9 23 -11 3 -12 14 -20 25 -20 28 0 39 20 19 35 -10 7 -17 24
-17 38 0 42 -17 40 -63 -8 -44 -46 -77 -58 -77 -29 0 27 37 80 65 92 28 13 32
27 10 36 -8 3 -28 -6 -45 -21z"/>
<path d="M6914 7878 c-37 -26 -73 -78 -81 -118 -9 -49 21 -37 41 15 19 48 66
95 97 95 10 0 19 7 19 15 0 22 -40 19 -76 -7z"/>
<path d="M11448 7859 c-28 -37 -36 -94 -14 -102 9 -4 34 8 60 28 l45 34 20
-88 c32 -134 33 -130 -45 -133 -60 -3 -69 -6 -88 -31 -20 -27 -20 -28 -1 -64
21 -38 65 -64 97 -55 24 6 64 58 73 95 6 24 12 28 39 25 40 -4 44 25 4 30 -23
3 -28 8 -28 30 0 27 -32 170 -51 230 -11 32 -39 45 -39 17 0 -20 -60 -86 -71
-79 -12 7 31 63 49 63 17 1 15 18 -4 25 -22 9 -21 9 -46 -25z m111 -298 c20
-13 -23 -81 -52 -81 -42 0 -80 69 -44 83 20 9 81 7 96 -2z"/>
<path d="M5315 7861 c-39 -24 -91 -80 -99 -107 -4 -13 0 -29 12 -43 15 -19 23
-22 56 -15 59 11 96 49 100 104 2 29 -2 51 -12 63 -19 21 -20 21 -57 -2z m33
-73 c3 -29 -21 -50 -70 -62 -25 -6 -28 -3 -28 18 0 28 54 79 79 74 9 -2 17
-15 19 -30z"/>
<path d="M11253 7845 c-42 -35 -83 -92 -83 -114 0 -24 26 -9 45 25 20 37 69
84 87 84 7 0 8 -19 3 -56 -5 -45 -4 -55 7 -52 20 7 40 91 28 122 -13 36 -38
33 -87 -9z"/>
<path d="M14348 7820 c-38 -40 -49 -57 -46 -78 4 -37 38 -40 94 -7 38 23 43
24 33 7 -7 -11 -9 -28 -5 -38 6 -15 15 -9 62 44 60 67 94 80 94 37 0 -14 -11
-37 -26 -51 -25 -26 -29 -54 -8 -61 18 -6 64 81 64 119 0 64 -35 74 -97 29
-27 -19 -44 -26 -51 -19 -6 6 -26 -2 -58 -24 -27 -18 -52 -37 -55 -42 -4 -4
-10 -3 -13 3 -12 18 46 89 77 97 30 6 32 27 3 32 -11 3 -37 -16 -68 -48z"/>
<path d="M11108 7843 c-6 -82 -5 -113 7 -113 13 0 30 104 20 121 -10 15 -25
10 -27 -8z"/>
<path d="M3450 7803 c-16 -26 -33 -56 -36 -67 -7 -23 -33 -56 -44 -56 -4 0
-11 17 -15 37 -10 53 -33 93 -53 93 -10 0 -33 -11 -52 -25 -18 -13 -37 -22
-43 -18 -5 3 -2 10 7 15 25 14 19 30 -11 26 -31 -3 -43 -38 -23 -64 18 -20 40
-17 82 11 41 28 43 27 64 -45 l15 -51 -32 -36 c-55 -63 -82 -161 -55 -198 12
-16 19 -18 33 -9 29 17 85 132 88 180 2 25 9 51 15 60 11 13 15 12 32 -6 13
-14 31 -20 63 -20 53 0 125 27 125 46 0 17 -22 18 -37 3 -7 -7 -38 -12 -69
-13 -49 -1 -59 2 -62 18 -2 10 9 31 26 50 39 41 54 72 47 96 -10 33 -34 23
-65 -27z m-129 -278 c-34 -73 -54 -86 -40 -27 5 20 9 40 9 44 0 15 54 70 58
59 2 -6 -10 -40 -27 -76z"/>
<path d="M7020 7810 c-10 -24 -10 -33 0 -45 16 -19 30 -10 30 20 0 13 5 27 10
30 6 4 8 11 5 16 -12 18 -33 8 -45 -21z"/>
<path d="M2823 7805 c-25 -17 -40 -72 -24 -88 7 -7 21 -3 48 15 l38 25 15 -41
c16 -42 54 -65 49 -29 -5 30 11 61 41 83 43 30 50 26 50 -33 0 -47 12 -77 30
-77 13 0 2 143 -12 151 -26 17 -59 8 -98 -27 -35 -31 -40 -34 -40 -16 0 11 -6
25 -14 31 -11 9 -21 6 -45 -15 -17 -14 -31 -22 -31 -18 0 4 8 13 18 20 26 20
3 38 -25 19z"/>
<path d="M13090 7751 c0 -5 6 -14 14 -20 16 -13 32 2 21 19 -8 12 -35 13 -35
1z"/>
<path d="M3761 7666 c-7 -8 -10 -20 -6 -26 3 -5 2 -10 -3 -10 -5 0 -16 -17
-24 -38 -15 -38 -16 -38 -101 -56 -78 -17 -100 -30 -82 -48 3 -2 37 4 77 14
39 10 73 17 75 15 1 -2 -2 -19 -7 -38 -26 -90 -1 -139 73 -139 47 0 95 26 79
42 -6 6 -17 6 -30 -1 -27 -15 -75 -14 -90 1 -15 15 -15 50 0 99 11 38 12 39
55 37 24 -1 46 2 50 6 11 11 -18 26 -49 26 -16 0 -28 2 -28 5 0 2 9 28 20 56
21 52 15 84 -9 55z"/>
<path d="M6315 7654 c-22 -8 -41 -14 -41 -14 -1 0 -9 -16 -18 -35 -21 -44 -16
-62 40 -141 24 -34 44 -72 44 -86 0 -49 -56 -96 -92 -76 -19 9 -24 43 -8 53
13 8 13 35 0 35 -14 0 -50 -42 -50 -58 0 -7 14 -27 30 -44 38 -37 70 -33 118
17 49 53 45 93 -18 179 -54 74 -57 95 -18 129 33 28 48 22 48 -23 0 -22 3 -40
8 -40 4 0 20 14 35 31 24 28 26 34 14 52 -20 30 -48 36 -92 21z"/>
<path d="M6863 7588 c-6 -7 -13 -26 -17 -41 -6 -24 -4 -28 10 -25 19 3 36 49
24 67 -5 9 -9 9 -17 -1z"/>
<path d="M7834 7476 c-24 -24 -44 -53 -44 -64 0 -12 17 -34 40 -52 39 -31 53
-71 30 -85 -5 -3 -10 -1 -10 4 0 6 -7 11 -15 11 -21 0 -19 -37 3 -48 24 -13
40 -5 58 30 22 42 11 73 -36 104 -22 15 -40 30 -40 35 0 15 68 79 84 79 9 0
16 7 16 15 0 29 -43 15 -86 -29z"/>
<path d="M6835 7483 c-3 -16 -14 -66 -26 -113 -12 -47 -22 -94 -23 -104 -2
-31 18 -29 38 4 25 43 85 102 97 95 5 -4 9 -25 9 -49 0 -49 22 -87 40 -70 8 8
9 14 1 18 -6 4 -11 26 -11 49 0 96 -23 114 -83 65 -28 -22 -38 -26 -34 -14 4
10 10 36 13 59 3 23 7 52 9 65 5 33 -24 28 -30 -5z"/>
<path d="M3924 7455 c-18 -44 -18 -70 2 -89 33 -34 144 -7 144 34 0 12 -15 29
-39 44 -22 14 -42 30 -46 36 -14 23 -46 10 -61 -25z m70 -26 c20 -12 36 -25
36 -29 0 -19 -74 -28 -85 -10 -5 9 3 60 11 60 1 0 19 -9 38 -21z"/>
<path d="M4884 7463 c-28 -44 -124 -141 -161 -164 -32 -20 -45 -49 -21 -49 14
0 63 37 110 83 l35 33 -5 -49 c-4 -40 -1 -53 13 -63 23 -17 42 -7 107 54 l48
45 0 -40 c0 -21 5 -44 12 -51 25 -25 98 -5 98 28 0 8 -6 10 -17 5 -10 -4 -27
-8 -38 -9 -29 -1 -31 48 -6 115 25 63 25 69 8 69 -7 0 -35 -30 -62 -66 -46
-61 -112 -124 -130 -124 -15 0 7 106 31 149 22 40 24 61 5 61 -5 0 -17 -12
-27 -27z"/>
<path d="M2470 7473 c-8 -3 -25 -14 -37 -25 -20 -19 -23 -19 -45 -4 -32 23
-68 21 -68 -3 0 -24 19 -38 30 -22 10 17 43 -17 36 -36 -3 -8 -6 -19 -6 -23 0
-5 -16 -21 -35 -36 -27 -20 -38 -24 -48 -15 -16 13 -27 5 -27 -21 0 -29 39
-27 83 4 l28 20 19 -20 c26 -28 67 -35 126 -22 43 10 63 23 64 41 0 4 -27 0
-60 -8 -51 -11 -66 -11 -88 0 -23 11 -27 19 -26 52 1 30 9 45 33 67 17 15 38
28 46 28 8 0 15 7 15 15 0 15 -13 18 -40 8z"/>
<path d="M7612 7409 c-48 -35 -69 -70 -68 -114 2 -48 24 -44 115 22 24 18 24
18 18 -9 -13 -49 19 -78 51 -46 18 18 14 31 -7 25 -18 -4 -19 -3 -5 42 18 58
18 81 0 81 -8 0 -16 7 -20 15 -9 23 -38 18 -84 -16z m66 -16 c-3 -19 -102
-103 -121 -103 -7 0 -8 3 -2 8 6 4 17 19 25 35 15 26 75 75 93 77 5 0 7 -8 5
-17z"/>
<path d="M6417 7414 c-17 -17 -6 -81 16 -102 44 -41 117 -15 117 42 0 13 3 32
6 41 5 13 2 16 -12 13 -13 -2 -21 -14 -24 -37 -10 -71 -75 -67 -75 4 0 36 -13
54 -28 39z"/>
<path d="M6632 7404 c-12 -8 -20 -19 -17 -24 3 -4 -2 -10 -10 -14 -17 -6 -20
-48 -5 -77 19 -35 130 -21 130 17 0 12 -5 14 -17 8 -10 -4 -35 -9 -55 -12 -35
-4 -38 -2 -38 22 0 17 11 34 34 53 48 38 28 63 -22 27z"/>
<path d="M5500 7266 c0 -8 10 -22 22 -30 30 -22 48 -3 23 24 -21 23 -45 26
-45 6z"/>
<path d="M13400 6958 c-39 -40 -117 -186 -150 -279 -11 -32 -19 -38 -51 -43
-39 -6 -55 -19 -44 -36 4 -6 15 -6 32 1 14 5 28 7 31 5 3 -3 -12 -43 -32 -88
-43 -96 -50 -140 -23 -146 13 -3 17 3 17 25 0 15 19 72 42 126 45 106 37 100
133 101 29 1 40 5 40 16 0 12 -13 15 -61 14 l-62 0 35 80 c45 106 85 174 121
209 24 24 31 26 41 13 6 -7 10 -20 9 -27 -2 -8 4 -14 12 -14 23 0 24 41 1 64
-30 30 -45 26 -91 -21z"/>
<path d="M11922 6863 c1 -16 -3 -72 -11 -125 -13 -97 -13 -97 -45 -103 -85
-16 -127 -28 -132 -37 -12 -18 5 -20 75 -5 66 13 71 13 71 -3 0 -23 -83 -192
-103 -209 -10 -7 -17 -17 -17 -22 0 -17 26 -9 48 14 21 22 95 167 105 206 4
18 10 21 31 15 20 -5 26 -2 26 10 0 8 -10 18 -23 21 l-23 6 19 115 c20 120 18
144 -8 144 -12 0 -15 -8 -13 -27z"/>
<path d="M5982 6864 c-22 -15 -30 -44 -12 -44 6 0 19 6 30 12 32 20 45 -2 27
-45 -10 -23 -35 -48 -75 -76 -34 -22 -63 -45 -67 -50 -11 -18 15 -22 45 -6 30
16 32 15 66 -14 48 -43 94 -38 94 11 0 22 -16 23 -28 2 -8 -15 -13 -14 -41 7
-36 26 -38 35 -12 48 22 12 61 88 61 119 0 14 -11 27 -30 37 -35 18 -31 18
-58 -1z"/>
<path d="M10642 6848 c-17 -21 -81 -168 -97 -222 -20 -66 -27 -77 -67 -95 -33
-16 -37 -38 -5 -34 21 3 21 4 -3 -57 -23 -60 -25 -70 -7 -70 7 0 27 35 43 77
29 72 33 78 67 86 46 11 61 41 17 35 -16 -3 -30 -2 -30 0 0 3 11 28 24 56 13
28 37 80 53 116 16 38 29 57 31 47 6 -32 32 -19 32 16 0 49 -33 74 -58 45z"/>
<path d="M8946 6833 c-3 -3 -6 -27 -6 -53 0 -25 -11 -77 -23 -115 -24 -69 -24
-70 -67 -77 -23 -4 -69 -4 -102 1 -60 8 -81 0 -59 -22 8 -8 46 -12 102 -12 70
1 88 -2 84 -12 -21 -56 -46 -157 -48 -193 -3 -69 19 -60 32 12 6 35 21 95 34
133 21 64 27 72 67 92 24 12 54 32 67 44 12 13 23 19 23 15 0 -4 -15 -47 -34
-95 -33 -85 -40 -111 -37 -138 2 -24 30 -13 57 21 l27 33 29 -33 c17 -19 39
-34 50 -34 12 0 31 -11 44 -25 19 -21 32 -25 79 -25 62 0 95 13 95 36 0 11 -5
14 -17 9 -35 -15 -113 -18 -128 -5 -12 10 -8 17 28 44 48 37 67 77 47 100 -7
9 -20 16 -30 16 -22 0 -77 -62 -86 -95 -13 -51 -74 -16 -74 43 0 45 -15 47
-46 7 -15 -20 -28 -34 -30 -32 -2 2 19 63 47 137 27 73 48 140 47 149 -6 32
-32 15 -65 -41 -29 -49 -91 -108 -114 -108 -4 0 2 27 12 61 27 86 24 191 -5
162z m324 -323 c0 -13 -51 -62 -58 -56 -2 3 6 19 18 35 21 31 40 40 40 21z"/>
<path d="M10869 6800 c-22 -23 -62 -90 -95 -160 -58 -120 -58 -121 -101 -132
-46 -11 -54 -35 -10 -30 l26 3 -35 -66 c-34 -66 -44 -110 -24 -103 6 2 30 41
53 88 38 75 48 88 92 112 27 14 68 29 91 33 41 6 74 28 57 38 -11 7 -112 -16
-141 -32 -18 -10 -16 0 19 76 72 154 139 228 139 151 0 -22 18 -24 27 -2 9 25
-14 64 -38 64 -13 0 -38 -17 -60 -40z"/>
<path d="M12492 6818 c-7 -7 -12 -21 -12 -31 0 -28 -28 -119 -71 -235 -47
-122 -52 -212 -14 -212 10 0 12 13 8 53 -4 44 1 66 32 142 20 49 48 128 61
175 13 47 27 93 30 103 6 20 -16 23 -34 5z"/>
<path d="M4846 6763 c-3 -3 -6 -23 -6 -44 0 -21 -15 -89 -34 -151 -44 -148
-48 -166 -41 -189 11 -33 30 -21 32 19 0 20 17 90 37 155 34 113 46 200 27
211 -4 3 -11 3 -15 -1z"/>
<path d="M7495 6691 c-20 -87 -28 -95 -106 -107 -21 -4 -42 -11 -45 -15 -10
-17 29 -22 74 -10 25 6 46 10 48 8 7 -6 -48 -182 -59 -188 -12 -9 0 -29 18
-29 11 0 50 105 70 190 2 8 6 28 9 43 4 15 10 25 15 23 5 -3 34 12 65 34 44
31 56 36 56 22 0 -29 -36 -144 -64 -205 -14 -32 -26 -64 -26 -72 0 -15 30 -22
30 -7 1 4 16 24 34 44 40 45 76 44 76 -3 0 -17 8 -34 22 -43 29 -21 101 -20
144 0 38 18 47 40 12 30 -88 -26 -148 -18 -148 19 0 20 7 26 38 34 57 16 80
36 66 58 -18 29 -41 27 -84 -7 -33 -26 -45 -30 -75 -24 -27 5 -34 10 -31 23
44 145 51 211 24 227 -5 3 -26 -12 -48 -35 -21 -22 -52 -47 -69 -55 l-29 -16
12 48 c7 26 16 57 20 70 6 17 4 22 -12 22 -15 0 -22 -14 -37 -79z"/>
<path d="M10279 6755 c-1 -5 0 -57 1 -115 1 -102 1 -107 -35 -177 -37 -74 -76
-113 -114 -113 -17 0 -21 6 -21 36 0 27 8 43 32 67 l32 32 6 -24 c7 -31 26
-38 35 -12 7 23 -14 61 -34 61 -26 0 -79 -40 -91 -71 -29 -70 -1 -132 56 -121
68 13 161 157 165 257 4 98 -1 151 -16 171 -8 10 -15 15 -16 9z"/>
<path d="M10434 6706 c-9 -23 0 -50 17 -54 13 -2 16 4 15 29 -2 35 -22 51 -32
25z"/>
<path d="M12057 6663 c-11 -10 -8 -43 4 -43 16 0 41 29 34 40 -7 11 -28 13
-38 3z"/>
<path d="M13965 6623 c-4 -17 -52 -72 -122 -141 -92 -89 -114 -115 -104 -125
10 -9 20 -4 49 28 20 21 51 53 70 69 l34 29 -7 -34 c-5 -26 -2 -39 10 -49 14
-11 24 -8 73 27 l57 40 0 -31 c0 -27 4 -31 30 -34 17 -1 44 6 63 18 52 32 36
56 -18 25 -59 -33 -60 -17 -9 91 32 69 36 94 14 94 -8 0 -15 -6 -15 -13 0 -27
-62 -106 -115 -146 -49 -37 -55 -39 -55 -21 0 22 30 87 60 130 10 14 21 35 24
48 6 18 3 22 -12 22 -13 0 -22 -9 -27 -27z"/>
<path d="M3735 6579 c-21 -47 -48 -82 -113 -145 -66 -63 -83 -84 -70 -89 11
-4 33 11 69 47 53 52 54 53 57 26 6 -51 41 -52 110 -2 21 16 22 16 22 -7 0
-36 14 -51 44 -47 32 4 36 22 5 26 -22 4 -22 15 -3 125 8 47 -10 50 -30 4 -13
-32 -90 -107 -109 -107 -15 0 1 49 43 134 22 43 37 82 34 87 -13 22 -33 4 -59
-52z"/>
<path d="M5280 6575 c-5 -14 -13 -37 -16 -50 -5 -21 -14 -26 -55 -31 -58 -8
-61 -29 -5 -29 37 0 38 -1 33 -32 -4 -20 -1 -36 7 -43 11 -8 16 -1 25 35 8 34
17 46 34 49 12 3 34 7 50 11 15 3 27 11 27 19 0 10 -11 12 -45 8 l-45 -5 14
41 c8 22 12 43 9 46 -12 12 -24 5 -33 -19z"/>
<path d="M5819 6555 c-33 -34 -34 -34 -54 -15 -24 23 -73 42 -86 34 -5 -3 -9
-14 -9 -26 0 -16 5 -19 24 -14 16 4 32 -1 47 -13 21 -17 22 -21 10 -49 -14
-33 -83 -102 -102 -102 -5 0 -7 5 -3 11 4 7 1 10 -7 7 -8 -3 -15 -14 -17 -26
-5 -31 38 -29 75 2 28 24 29 24 41 5 18 -28 103 -27 144 2 22 16 27 24 18 33
-8 8 -13 7 -20 -4 -5 -8 -10 -11 -10 -5 0 5 -5 4 -12 -3 -7 -7 -31 -12 -55
-12 -36 0 -43 3 -43 20 0 26 56 119 86 142 23 19 33 48 15 48 -4 0 -23 -16
-42 -35z"/>
<path d="M11206 6537 c-56 -54 -86 -118 -72 -154 7 -17 9 -16 27 6 11 14 18
33 16 43 -7 26 47 96 80 104 39 9 43 13 37 29 -12 31 -36 24 -88 -28z"/>
<path d="M11343 6530 c-34 -20 -63 -66 -63 -100 0 -46 72 -79 100 -45 18 21 3
38 -22 24 -13 -7 -24 -7 -30 -1 -7 7 -3 12 12 17 29 9 90 64 90 80 0 12 -36
45 -50 45 -3 0 -19 -9 -37 -20z m45 -32 c-6 -17 -68 -53 -68 -39 0 15 41 51
58 51 7 0 12 -6 10 -12z"/>
<path d="M4257 6533 c-4 -3 -30 -7 -59 -8 -38 -1 -53 -6 -53 -16 0 -11 16 -13
74 -11 41 1 77 4 79 7 4 4 -23 35 -31 35 -2 0 -7 -3 -10 -7z"/>
<path d="M10980 6514 c-81 -69 -66 -171 28 -190 25 -5 32 -3 32 10 0 9 -8 16
-18 16 -20 0 -62 27 -62 39 0 4 23 22 50 39 57 36 80 73 60 97 -19 23 -55 18
-90 -11z m65 -16 c-7 -16 -74 -63 -81 -56 -8 8 55 68 71 68 8 0 12 -6 10 -12z"/>
<path d="M11551 6516 c-12 -13 -30 -22 -39 -20 -13 3 -22 -9 -38 -51 -26 -66
-13 -83 25 -34 14 19 39 47 54 64 l28 30 -3 -64 c-4 -82 17 -97 27 -19 13 108
-7 144 -54 94z"/>
<path d="M8000 6500 c-21 -23 -30 -27 -30 -16 0 19 -16 21 -27 4 -21 -34 -44
-121 -34 -131 6 -6 12 -9 14 -6 36 51 121 149 129 149 6 0 8 -12 4 -32 -18
-91 -19 -128 -4 -128 16 0 29 56 32 140 1 42 -1 45 -27 48 -21 3 -35 -5 -57
-28z"/>
<path d="M12132 6510 c-40 -25 -71 -84 -56 -108 17 -27 51 -26 100 3 l45 26
-6 -23 c-7 -30 8 -53 30 -44 12 4 15 13 10 35 -3 17 1 45 11 70 18 46 13 61
-16 44 -14 -10 -19 -9 -24 2 -8 21 -55 18 -94 -5z m68 -33 c0 -17 -11 -30 -39
-45 -69 -39 -83 -22 -27 34 40 40 66 44 66 11z"/>
<path d="M11988 6503 c-28 -32 -49 -84 -43 -104 9 -29 28 -18 36 20 4 18 17
43 29 56 12 13 19 28 15 34 -9 16 -20 14 -37 -6z"/>
<path d="M12949 6488 c-36 -40 -44 -64 -29 -83 18 -21 59 -18 110 8 70 35 61
86 -18 101 -29 5 -37 1 -63 -26z m96 -18 c7 -11 -30 -36 -67 -45 -21 -5 -28
-3 -28 8 0 20 24 39 43 31 8 -3 18 -1 22 5 8 14 22 14 30 1z"/>
<path d="M10337 6447 c-16 -48 -7 -90 18 -81 9 4 14 17 13 38 -1 17 2 43 6 59
14 47 -20 33 -37 -16z"/>
<path d="M4173 6432 c-40 -10 -63 -21 -63 -29 0 -11 10 -13 48 -7 26 4 57 11
70 15 13 5 35 9 48 9 36 0 25 25 -12 27 -16 0 -57 -6 -91 -15z"/>
<path d="M5510 6256 c0 -3 7 -35 16 -73 21 -90 8 -169 -22 -138 -21 20 -35 19
-74 -8 -68 -45 -88 -120 -35 -133 50 -13 145 72 166 148 18 67 -7 208 -36 208
-8 0 -15 -2 -15 -4z m-22 -258 c-3 -20 -59 -68 -79 -68 -18 0 -8 42 16 65 32
32 68 34 63 3z"/>
<path d="M3370 6243 c-1 -39 -34 -152 -59 -202 -31 -59 -43 -71 -56 -51 -14
22 -57 9 -100 -31 -54 -50 -72 -101 -50 -136 18 -27 35 -29 74 -8 51 26 155
182 187 279 9 28 22 58 29 66 16 20 8 90 -11 90 -8 0 -14 -3 -14 -7z m-126
-290 c9 -21 -39 -90 -75 -109 -38 -19 -39 -19 -39 18 0 24 10 40 42 70 45 42
62 47 72 21z"/>
<path d="M4790 6179 c-51 -30 -83 -67 -76 -86 6 -14 13 -10 44 19 38 36 72 58
91 58 14 0 14 -35 0 -63 -20 -38 -103 -118 -139 -133 -44 -19 -100 -72 -100
-96 0 -32 42 -20 95 26 27 24 53 42 58 39 4 -2 14 -20 22 -39 8 -19 18 -34 24
-34 18 0 66 21 83 37 26 23 11 35 -22 18 -42 -22 -53 -18 -70 19 -16 33 -16
33 27 82 54 61 80 123 64 153 -15 27 -55 27 -101 0z"/>
<path d="M2320 6175 c0 -8 7 -15 15 -15 8 0 15 7 15 15 0 8 -7 15 -15 15 -8 0
-15 -7 -15 -15z"/>
<path d="M2488 6088 c-39 -17 -48 -25 -48 -46 0 -14 12 -38 26 -53 17 -18 24
-34 20 -45 -6 -15 -8 -16 -24 0 -23 20 -42 21 -42 2 0 -18 38 -46 62 -46 10 0
25 11 33 24 18 27 12 48 -24 80 -12 11 -21 24 -21 31 0 17 49 37 72 29 16 -5
19 -2 16 17 -4 31 -15 32 -70 7z"/>
<path d="M5017 6083 c-15 -14 -7 -34 11 -29 10 4 27 0 37 -8 25 -18 14 -44
-54 -118 -28 -31 -51 -59 -51 -62 0 -3 8 -6 18 -6 20 0 118 109 133 148 12 32
-3 57 -42 71 -37 13 -43 13 -52 4z"/>
<path d="M5660 6075 c-15 -18 -17 -16 38 -19 50 -2 67 -16 59 -48 -10 -37 -65
-108 -93 -118 -14 -6 -22 -14 -19 -20 12 -19 39 -10 76 26 l36 36 7 -26 c8
-33 42 -41 106 -26 56 14 97 41 86 58 -5 9 -13 8 -29 -2 -31 -20 -102 -37
-121 -30 -9 3 -16 16 -16 29 0 21 47 96 69 110 16 9 13 35 -3 35 -8 0 -25 -14
-37 -32 l-23 -31 -8 25 c-15 43 -101 66 -128 33z"/>
<path d="M2315 6034 c-20 -49 -20 -144 0 -144 11 0 15 13 15 53 0 28 7 65 15
81 15 28 13 46 -5 46 -6 0 -17 -16 -25 -36z"/>
<path d="M3491 6027 c-29 -59 -124 -173 -162 -192 -18 -10 -29 -23 -27 -32 6
-34 32 -24 84 33 41 44 54 53 54 38 0 -26 18 -44 39 -37 9 3 35 24 59 46 l42
41 0 -27 c0 -50 78 -93 94 -52 4 11 -1 15 -19 15 -34 0 -47 30 -39 91 6 44 5
51 -9 48 -9 -2 -38 -31 -64 -63 -79 -98 -87 -84 -29 51 30 71 32 83 12 83 -8
0 -24 -19 -35 -43z"/>
<path d="M5120 5997 c-64 -86 -49 -148 33 -132 59 12 67 16 67 36 0 16 -4 18
-17 10 -17 -9 -54 -14 -80 -12 -25 2 -13 39 27 84 42 48 50 67 25 67 -8 0 -32
-24 -55 -53z"/>
<path d="M4078 6028 c-48 -9 -58 -14 -58 -30 0 -16 4 -19 23 -14 12 4 55 12
95 19 47 7 72 16 72 24 0 15 -46 15 -132 1z"/>
<path d="M4110 5938 c-19 -4 -52 -8 -72 -9 -31 -1 -38 -5 -38 -21 0 -18 5 -20
32 -14 18 3 56 9 85 13 33 3 53 11 53 18 0 18 -20 23 -60 13z"/>
<path d="M10271 5484 c-28 -35 -34 -77 -29 -194 l4 -100 -34 0 c-18 0 -31 -3
-28 -8 2 -4 -14 -6 -36 -4 -35 4 -39 2 -36 -14 4 -20 6 -20 87 -8 l44 7 -7
-49 c-7 -52 -17 -69 -43 -69 -28 0 -25 -22 4 -30 37 -9 60 20 69 87 7 53 15
60 85 71 l37 5 -14 -26 c-20 -39 -17 -60 11 -88 29 -29 58 -26 88 8 28 33 22
76 -13 96 -16 9 -30 23 -30 31 0 11 -12 12 -61 7 -33 -4 -66 -9 -73 -12 -18
-7 -26 38 -26 138 0 99 18 148 55 148 14 0 33 -9 42 -20 22 -25 33 -25 33 -1
0 51 -94 69 -129 25z m182 -356 c13 -20 -6 -48 -33 -48 -21 0 -31 20 -23 50 7
25 40 24 56 -2z"/>
<path d="M12647 5504 c-4 -4 -7 -19 -7 -33 -1 -41 -56 -215 -71 -223 -8 -4
-33 -12 -56 -18 -28 -7 -43 -16 -43 -26 0 -12 6 -15 25 -10 14 3 36 9 50 12
20 5 25 2 25 -12 0 -31 -30 -147 -41 -160 -15 -18 10 -30 27 -12 8 8 21 50 30
94 8 43 19 86 23 94 5 8 33 19 66 25 33 6 60 16 63 24 4 11 -7 13 -57 8 -33
-3 -61 -1 -61 3 0 5 11 44 24 87 28 90 36 144 20 150 -5 2 -13 0 -17 -3z"/>
<path d="M6535 5470 c-4 -6 1 -27 10 -46 9 -19 15 -51 13 -72 -3 -35 -7 -39
-65 -67 -70 -34 -77 -40 -69 -54 4 -6 31 1 71 19 l65 29 0 -130 c0 -119 2
-130 18 -127 15 3 17 16 14 141 -3 136 -3 138 21 157 13 11 31 34 40 51 l15
32 7 -58 c7 -50 2 -182 -7 -226 -7 -33 26 -10 39 26 7 22 17 43 22 48 13 13
91 -44 91 -68 0 -12 6 -30 14 -41 13 -17 26 -19 102 -17 61 1 92 6 102 17 17
16 7 42 -11 28 -20 -16 -147 -24 -163 -11 -23 19 -17 49 9 49 28 0 79 46 75
68 -2 11 -15 18 -34 20 -25 2 -37 -3 -57 -28 -24 -27 -29 -30 -49 -19 -13 6
-31 18 -40 27 -10 8 -26 12 -38 9 -18 -5 -20 0 -21 41 0 56 -6 116 -15 155 -8
38 -34 32 -56 -13 -33 -69 -40 -69 -57 0 -16 62 -32 83 -46 60z m365 -275 c-7
-8 -17 -15 -22 -15 -6 0 -5 7 2 15 7 8 17 15 22 15 6 0 5 -7 -2 -15z"/>
<path d="M8098 5438 c-1 -18 -4 -49 -6 -68 -2 -19 -6 -63 -9 -97 l-5 -62 -41
-3 c-35 -2 -43 -7 -45 -25 -3 -23 12 -31 23 -13 3 6 19 10 34 10 35 0 41 -17
41 -117 0 -68 10 -97 25 -72 9 13 7 141 -1 176 -7 26 -6 26 37 20 24 -4 53 -9
65 -13 15 -4 21 -1 21 10 0 17 -52 36 -101 36 l-29 0 7 78 c4 42 9 98 13 125
5 39 3 47 -11 47 -11 0 -17 -10 -18 -32z"/>
<path d="M8585 5438 c-12 -38 -25 -125 -25 -167 l0 -48 -41 -6 c-45 -6 -61
-20 -57 -51 4 -26 28 -33 28 -8 0 20 18 32 50 32 14 0 20 -11 25 -52 5 -29 7
-71 7 -93 l-1 -40 20 24 c13 16 18 33 15 50 -3 14 -8 45 -11 69 l-7 42 56 0
c30 0 57 4 61 10 3 5 12 7 20 3 10 -3 15 1 15 11 0 15 -10 16 -76 12 l-77 -4
6 66 c4 37 9 88 13 115 5 33 3 47 -5 47 -6 0 -13 -6 -16 -12z"/>
<path d="M13735 5430 c3 -6 -1 -13 -10 -16 -12 -5 -13 -9 -4 -20 7 -8 9 -17 5
-21 -3 -3 -6 -1 -6 6 0 7 -4 10 -9 7 -9 -6 -31 -112 -55 -266 -9 -52 -18 -110
-22 -127 -5 -25 -3 -33 8 -33 16 0 36 82 63 264 9 61 25 131 35 157 15 41 15
49 3 53 -8 3 -11 1 -8 -4z"/>
<path d="M3276 5418 c-2 -7 -9 -31 -15 -53 -6 -22 -21 -52 -33 -66 -25 -27
-68 -59 -80 -59 -5 0 -8 28 -8 63 0 45 -6 69 -19 86 -23 31 -48 20 -26 -12 10
-14 15 -45 15 -89 0 -64 -1 -68 -26 -74 -14 -4 -45 -4 -70 0 -43 5 -44 5 -33
-15 10 -19 18 -21 71 -17 60 4 60 4 55 -21 -3 -14 -9 -53 -12 -87 -6 -51 -5
-62 9 -67 17 -7 31 7 22 22 -3 5 -1 45 6 90 l11 81 44 26 c24 14 57 43 72 65
22 30 30 35 35 23 11 -28 6 -94 -8 -122 -19 -37 -30 -109 -18 -116 12 -7 36
15 53 46 11 21 12 21 22 2 15 -28 69 -84 82 -84 6 0 22 -12 36 -26 23 -25 26
-26 107 -19 46 3 95 11 108 17 28 13 34 44 7 33 -31 -12 -141 -27 -170 -23
l-28 4 26 11 c33 14 59 50 59 81 0 38 -28 81 -53 82 -17 0 -58 -55 -67 -91 -6
-22 -15 -39 -20 -39 -16 0 -57 63 -65 98 -5 25 -11 33 -23 30 -15 -4 -17 7
-18 86 -2 92 -14 146 -34 146 -6 0 -12 -6 -14 -12z m260 -282 c6 -25 -10 -66
-26 -66 -4 0 -16 -3 -25 -6 -13 -5 -15 -2 -9 22 8 35 31 74 44 74 5 0 12 -11
16 -24z"/>
<path d="M4530 5376 c0 -8 14 -51 30 -96 46 -126 38 -222 -22 -264 -31 -22
-47 -20 -60 9 -9 19 -7 34 6 69 22 58 45 78 53 48 7 -27 33 -29 33 -3 0 23
-25 51 -45 51 -37 0 -94 -113 -81 -163 15 -63 66 -74 120 -27 68 60 75 151 24
296 -18 52 -39 94 -45 94 -7 0 -13 -6 -13 -14z"/>
<path d="M5564 5375 c-4 -8 -3 -22 0 -30 4 -13 10 -14 26 -5 16 9 18 15 10 30
-13 24 -28 26 -36 5z"/>
<path d="M12192 5347 c-15 -17 -19 -61 -7 -66 6 -2 15 5 20 15 6 11 18 18 28
16 22 -4 22 11 -1 31 -22 20 -26 21 -40 4z"/>
<path d="M10561 5294 c-24 -30 -36 -74 -45 -156 -5 -47 -3 -58 8 -58 15 0 20
19 32 109 4 33 14 61 26 73 18 18 21 18 37 4 19 -17 41 -21 41 -8 0 12 -54 62
-67 62 -6 0 -21 -12 -32 -26z"/>
<path d="M8850 5276 c0 -25 12 -46 26 -46 15 0 18 18 8 44 -8 20 -34 21 -34 2z"/>
<path d="M13311 5243 c-41 -50 -68 -120 -54 -142 14 -22 28 -12 29 22 2 37 64
127 87 127 25 0 16 24 -10 28 -14 2 -31 -9 -52 -35z"/>
<path d="M12810 5248 c-57 -39 -93 -100 -94 -159 -1 -42 3 -54 23 -70 29 -24
109 -26 151 -4 38 20 40 40 3 30 -48 -12 -117 -16 -131 -7 -7 5 -14 21 -15 37
-2 23 3 29 25 35 43 12 117 69 124 95 16 62 -26 83 -86 43z m60 -21 c0 -23
-94 -97 -107 -84 -10 10 26 57 60 77 38 23 47 25 47 7z"/>
<path d="M7663 5228 c-11 -13 -25 -31 -30 -41 -9 -17 -11 -16 -23 12 -15 37
-47 44 -35 9 4 -13 10 -60 12 -106 6 -99 20 -104 44 -15 18 68 56 136 71 127
7 -4 8 -37 4 -94 -6 -72 -5 -89 8 -99 14 -12 16 -9 16 22 0 20 5 58 10 85 20
92 -27 154 -77 100z"/>
<path d="M9302 5200 c-35 -21 -69 -54 -96 -93 l-15 -22 0 23 c-1 39 -20 23
-37 -33 -13 -40 -15 -58 -7 -66 15 -15 29 -5 59 42 30 48 93 119 105 119 5 0
0 -23 -12 -52 -37 -95 -13 -134 63 -105 70 27 138 97 94 97 -8 0 -16 -6 -19
-14 -8 -20 -109 -68 -121 -56 -6 6 -1 30 13 67 45 114 39 133 -27 93z"/>
<path d="M12281 5189 c-36 -36 -57 -73 -62 -109 -6 -37 23 -32 33 6 4 16 23
48 42 70 34 37 35 38 35 14 0 -14 -8 -56 -18 -93 -17 -65 -17 -69 0 -78 10 -5
20 -9 22 -9 5 0 20 122 21 180 1 39 -2 45 -20 48 -13 2 -33 -9 -53 -29z"/>
<path d="M13420 5198 c-46 -50 -65 -120 -35 -132 9 -3 30 8 50 25 l35 31 0
-33 c0 -44 13 -64 36 -55 13 5 15 9 6 18 -15 15 -15 61 -2 108 15 52 -4 63
-38 20 -15 -19 -37 -46 -49 -60 -20 -22 -22 -23 -23 -6 0 11 18 36 40 57 22
21 40 41 40 44 0 14 -42 2 -60 -17z"/>
<path d="M4733 5200 c-15 -6 -23 -18 -23 -34 0 -32 20 -44 27 -17 8 31 50 28
65 -4 14 -31 -5 -105 -27 -105 -16 0 -20 -25 -6 -34 18 -12 40 6 55 45 22 55
20 93 -6 123 -27 29 -55 38 -85 26z"/>
<path d="M11536 5188 c-9 -12 -16 -28 -16 -35 0 -7 -4 -13 -10 -13 -5 0 -10
-6 -10 -14 0 -8 -8 -13 -17 -12 -18 1 -40 -62 -29 -89 11 -30 28 -13 63 63
l36 77 9 -59 c7 -57 21 -86 40 -86 6 0 7 13 2 33 -4 17 -6 49 -6 69 3 77 -30
112 -62 66z"/>
<path d="M5585 5191 c-3 -6 -4 -15 -1 -19 3 -5 6 -37 7 -70 1 -46 6 -62 16
-62 11 0 13 16 11 77 -3 72 -16 101 -33 74z"/>
<path d="M7834 5190 c-45 -18 -53 -110 -13 -143 50 -40 149 -3 149 55 0 26
-72 98 -96 97 -11 0 -29 -4 -40 -9z m77 -49 c43 -43 35 -68 -23 -77 -43 -7
-72 17 -64 52 4 16 2 24 -6 24 -16 1 32 29 50 30 8 0 27 -13 43 -29z"/>
<path d="M11300 5178 c-33 -35 -52 -76 -48 -106 2 -21 9 -28 31 -30 16 -2 39
4 52 12 27 18 39 20 30 7 -7 -13 15 -61 29 -61 7 0 12 27 12 70 1 53 -2 70
-12 70 -7 0 -11 6 -8 14 4 9 -6 20 -25 30 -38 20 -36 20 -61 -6z m61 -34 c11
-14 9 -20 -19 -45 -56 -50 -80 -34 -42 29 22 35 41 40 61 16z"/>
<path d="M12134 5145 c-28 -61 -30 -130 -4 -130 10 0 14 8 12 28 -4 35 16 98
35 114 16 13 11 43 -7 43 -6 0 -22 -25 -36 -55z"/>
<path d="M13027 5171 c-38 -34 -55 -87 -38 -120 14 -25 59 -33 94 -16 23 12
27 11 27 -1 0 -27 -29 -84 -43 -84 -18 0 -63 -49 -76 -83 -25 -64 -7 -157 29
-157 25 0 51 51 77 152 17 65 18 67 45 61 34 -7 38 13 5 28 l-22 10 19 100
c14 71 16 103 9 110 -17 17 -33 1 -33 -32 0 -37 -40 -79 -75 -79 -48 0 -41 52
13 97 19 16 24 25 16 33 -9 9 -21 3 -47 -19z m53 -255 c0 -24 -53 -165 -61
-161 -23 15 -5 111 28 147 15 17 33 24 33 14z"/>
<path d="M2321 5176 c-16 -19 -17 -74 -3 -88 18 -18 62 10 62 39 0 52 -34 80
-59 49z"/>
<path d="M4897 5178 c-20 -16 -57 -102 -57 -134 0 -36 18 -64 41 -64 29 0 79
28 79 44 0 16 -15 15 -48 -2 -45 -25 -55 13 -22 86 10 23 26 45 35 48 18 7 20
34 2 34 -7 0 -21 -6 -30 -12z"/>
<path d="M5735 5136 c-31 -63 -46 -141 -25 -134 11 3 50 104 52 136 2 18 26
14 32 -5 3 -10 8 -44 12 -75 7 -61 23 -84 51 -73 17 6 17 7 1 19 -10 7 -19 34
-23 71 -8 68 -31 115 -56 115 -11 0 -27 -20 -44 -54z"/>
<path d="M8267 5170 c-14 -11 -38 -45 -53 -76 -22 -46 -25 -59 -16 -79 17 -37
80 -29 128 16 l21 20 7 -40 c6 -41 37 -64 58 -43 11 11 1 35 -12 27 -11 -7
-20 20 -20 61 0 20 -5 44 -10 55 -15 27 -40 24 -40 -6 0 -38 -85 -104 -106
-82 -10 9 32 91 60 116 25 24 35 51 17 51 -4 0 -20 -9 -34 -20z"/>
<path d="M9029 5152 c-32 -33 -59 -87 -59 -119 0 -40 25 -66 54 -57 81 26 109
92 66 162 -22 36 -37 39 -61 14z m51 -76 c0 -25 -38 -66 -62 -66 -23 0 -24 32
-1 71 27 45 62 42 63 -5z"/>
<path d="M8816 5109 c-28 -80 -29 -145 -3 -136 16 5 31 127 18 140 -7 7 -12 6
-15 -4z"/>
<path d="M5600 5014 c0 -8 5 -12 10 -9 6 3 10 10 10 16 0 5 -4 9 -10 9 -5 0
-10 -7 -10 -16z"/>
<path d="M10755 4986 c-14 -19 -48 -83 -74 -143 -43 -98 -51 -109 -82 -119
-38 -13 -47 -41 -11 -36 27 4 26 8 2 -63 -24 -69 -24 -75 -5 -75 8 0 19 17 26
43 13 49 37 99 53 109 6 4 25 8 43 8 41 0 63 9 63 26 0 10 -12 12 -50 7 -46
-5 -50 -4 -44 13 16 44 93 201 107 219 16 19 16 19 17 -17 0 -34 14 -57 27
-45 10 11 5 78 -7 92 -19 23 -37 18 -65 -19z"/>
<path d="M11010 4974 c-24 -22 -57 -72 -87 -130 -34 -68 -54 -96 -70 -100 -26
-7 -32 -34 -8 -34 19 0 19 -6 -5 -81 -10 -35 -16 -67 -11 -72 13 -13 27 13 51
96 24 82 32 91 92 102 39 7 66 29 50 39 -5 3 -30 0 -55 -8 l-46 -14 34 68 c56
111 107 158 140 130 12 -10 16 -9 21 3 19 50 -51 50 -106 1z"/>
<path d="M11995 4998 c-13 -44 -24 -88 -30 -123 -16 -101 -23 -113 -66 -122
-49 -10 -48 -28 2 -27 l36 0 -24 -74 c-13 -41 -28 -82 -33 -92 -6 -12 -6 -21
-1 -24 18 -11 40 25 61 97 29 99 28 97 40 97 5 0 10 7 10 15 0 8 -4 15 -8 15
-9 0 20 158 37 203 11 29 7 47 -10 47 -5 0 -11 -6 -14 -12z"/>
<path d="M14166 4993 c-3 -3 -6 -19 -6 -33 0 -47 -49 -182 -95 -262 -49 -84
-53 -98 -30 -98 8 0 15 4 15 10 0 12 120 140 131 140 5 0 9 -11 9 -24 0 -15
11 -33 30 -48 17 -13 46 -36 66 -52 31 -25 40 -28 81 -22 49 6 73 20 73 42 0
18 -11 18 -46 -1 -31 -16 -74 -20 -74 -7 1 4 20 16 43 28 48 23 66 59 51 102
-15 43 -55 42 -91 -2 -15 -20 -30 -46 -33 -58 -14 -57 -70 -12 -70 57 0 54
-12 57 -56 14 l-33 -32 30 92 c16 50 29 104 29 120 0 30 -12 46 -24 34z m222
-250 c3 -19 -38 -63 -59 -63 -16 0 -10 31 12 61 23 33 42 34 47 2z"/>
<path d="M13915 4933 c-4 -21 -14 -65 -24 -98 l-17 -60 -57 -3 c-42 -2 -57 -7
-57 -17 0 -11 13 -15 50 -15 50 0 50 0 44 -27 -10 -44 -34 -97 -46 -104 -13
-8 -4 -39 11 -39 14 0 44 63 61 122 9 36 21 53 51 74 22 15 39 30 39 34 0 17
-15 19 -38 4 -13 -9 -21 -11 -18 -5 4 6 13 39 20 73 8 35 15 69 17 77 2 8 -4
16 -13 19 -13 2 -18 -6 -23 -35z"/>
<path d="M4187 4943 c-4 -3 -7 -17 -7 -31 0 -28 -39 -160 -49 -166 -4 -3 -21
-7 -37 -10 -67 -12 -83 -18 -88 -31 -8 -22 7 -25 50 -10 54 20 67 19 56 -2
-19 -37 -54 -145 -48 -150 11 -11 33 17 45 59 26 85 47 114 91 126 22 5 40 6
40 2 0 -5 -13 -11 -30 -15 -35 -8 -39 -24 -9 -32 14 -4 18 -11 14 -22 -18 -44
-17 -77 4 -95 23 -21 51 -15 51 10 0 10 -5 14 -15 11 -22 -9 -27 8 -15 53 12
45 19 48 43 22 20 -22 22 -43 6 -59 -20 -20 1 -36 22 -17 29 26 24 70 -11 105
-16 17 -27 36 -24 44 7 17 -33 29 -77 23 -22 -4 -29 -1 -25 9 22 57 47 156 42
168 -6 16 -18 19 -29 8z"/>
<path d="M10366 4941 c-3 -5 -8 -49 -10 -99 -3 -65 -10 -101 -25 -131 -24 -46
-24 -46 -53 -30 -28 15 -87 -3 -117 -35 -13 -14 -25 -42 -28 -67 -13 -90 56
-80 153 23 77 81 95 123 101 238 4 64 2 99 -5 104 -6 3 -13 2 -16 -3z m-97
-294 c8 -10 3 -21 -22 -44 -29 -28 -68 -53 -81 -53 -10 0 -7 40 4 60 11 20 56
49 76 50 6 0 17 -6 23 -13z"/>
<path d="M7051 4908 c-4 -13 -11 -41 -15 -63 -12 -69 -15 -73 -56 -80 -26 -4
-40 -12 -40 -22 0 -12 7 -14 36 -8 l37 6 -6 -68 c-3 -37 -7 -77 -9 -87 -2 -10
2 -21 8 -23 15 -5 34 50 34 101 0 72 8 86 46 86 28 0 34 4 34 20 0 24 -27 37
-43 21 -13 -13 -31 -15 -23 -2 3 4 8 27 11 50 3 23 9 50 15 60 9 18 4 31 -12
31 -5 0 -12 -10 -17 -22z"/>
<path d="M7587 4867 c-21 -30 -37 -57 -37 -61 0 -13 -72 -121 -103 -153 -33
-35 -47 -41 -47 -20 0 16 52 67 68 67 7 0 12 7 12 15 0 16 -27 20 -49 6 -7 -5
-10 -14 -6 -21 4 -7 1 -10 -11 -8 -26 4 -57 -57 -43 -84 12 -22 59 -25 59 -3
0 8 6 12 14 9 8 -3 25 9 40 28 l26 33 0 -57 c0 -88 38 -115 118 -87 26 9 62
46 62 64 0 12 -28 3 -44 -14 -24 -26 -72 -36 -93 -20 -12 11 -14 27 -10 85 6
78 28 137 77 209 28 41 32 65 11 65 -4 0 -24 -24 -44 -53z"/>
<path d="M12615 4910 c-23 -37 -105 -308 -105 -347 0 -64 23 -51 32 18 4 30
27 113 53 184 25 72 47 134 48 139 3 13 -20 19 -28 6z"/>
<path d="M5745 4862 c-3 -26 -5 -52 -4 -58 1 -5 1 -26 0 -46 l-1 -38 -59 0
c-33 0 -62 -4 -65 -9 -12 -19 21 -28 75 -22 54 7 57 6 49 -14 -12 -32 -16
-130 -5 -130 6 0 9 3 8 8 -2 4 2 7 7 7 14 0 12 37 -2 43 -10 4 -10 6 -1 6 7 1
16 19 19 41 6 38 8 39 50 42 59 4 57 22 -2 26 l-47 3 7 95 c5 78 4 94 -8 94
-9 0 -16 -16 -21 -48z"/>
<path d="M12209 4883 c0 -5 -2 -16 -4 -25 -2 -11 6 -19 22 -23 33 -8 39 -1 25
30 -11 23 -41 35 -43 18z"/>
<path d="M10530 4861 c0 -10 9 -21 19 -24 26 -6 33 1 20 24 -13 25 -39 24 -39
0z"/>
<path d="M5366 4843 c-3 -3 -6 -19 -6 -35 0 -38 25 -37 28 1 2 29 -9 47 -22
34z"/>
<path d="M6441 4781 c-17 -18 -41 -55 -54 -82 -13 -28 -28 -50 -33 -49 -5 0
-14 -32 -20 -73 -13 -84 -39 -179 -61 -221 -10 -20 -12 -31 -4 -39 17 -17 36
16 63 106 l23 77 62 29 c75 35 114 87 120 159 4 52 -10 87 -44 110 -21 13 -25
12 -52 -17z m62 -45 c21 -63 -20 -139 -95 -177 l-40 -20 7 33 c21 94 81 204
108 195 6 -2 15 -16 20 -31z"/>
<path d="M6629 4763 c-52 -82 -92 -174 -81 -185 13 -13 32 -2 32 19 0 15 60
132 83 161 7 9 13 9 23 1 14 -12 34 -4 34 13 0 13 -30 37 -48 38 -7 0 -26 -21
-43 -47z"/>
<path d="M7237 4770 c-68 -43 -103 -121 -77 -170 11 -21 64 -42 85 -34 27 11
17 34 -14 34 -64 0 -65 58 -2 122 37 36 61 48 61 30 0 -5 -21 -28 -46 -52 -30
-28 -42 -46 -36 -52 7 -7 27 4 61 33 68 59 76 85 32 109 -14 7 -29 2 -64 -20z"/>
<path d="M8560 4779 c-35 -14 -60 -39 -60 -60 0 -10 20 -41 45 -69 25 -28 43
-55 40 -61 -8 -12 -52 -12 -76 1 -29 16 -25 -16 6 -36 44 -29 105 0 105 50 0
8 -20 35 -45 60 -25 25 -42 52 -39 59 3 8 19 20 37 28 49 21 37 48 -13 28z"/>
<path d="M11063 4734 c-47 -50 -53 -61 -53 -99 0 -52 15 -67 79 -73 39 -3 49
-1 55 14 8 20 -8 42 -18 25 -4 -6 -19 -11 -34 -11 -73 1 -70 51 6 94 55 32 74
64 52 91 -20 24 -31 18 -87 -41z m67 12 c0 -2 -8 -10 -17 -17 -16 -13 -17 -12
-4 4 13 16 21 21 21 13z"/>
<path d="M11311 4768 c-27 -15 -89 -112 -93 -148 -3 -29 11 -42 22 -20 5 8 19
37 32 63 25 54 60 87 90 87 25 0 18 24 -8 28 -10 1 -30 -4 -43 -10z"/>
<path d="M6765 4750 c-44 -29 -65 -61 -65 -100 0 -48 15 -60 72 -60 54 0 93
16 121 50 26 31 7 50 -21 22 -31 -31 -57 -42 -101 -42 -48 0 -52 10 -13 28 15
6 45 27 66 46 32 30 36 38 26 55 -14 26 -46 27 -85 1z m23 -45 c-21 -19 -43
-35 -50 -35 -7 0 4 16 24 35 21 19 43 35 50 35 7 0 -4 -16 -24 -35z"/>
<path d="M2458 4717 c-43 -23 -78 -48 -78 -54 0 -19 15 -16 71 13 28 14 50 22
48 17 -2 -5 -22 -43 -44 -85 -22 -42 -36 -80 -32 -84 4 -5 22 -3 39 4 28 10
33 9 45 -8 23 -33 57 -25 94 21 31 40 64 132 53 150 -14 23 -32 6 -36 -36 -6
-46 -41 -110 -67 -120 -8 -3 -20 4 -28 15 -8 11 -23 20 -34 20 -18 0 -15 9 26
85 41 75 49 106 27 104 -4 0 -42 -19 -84 -42z"/>
<path d="M11448 4746 c-10 -7 -18 -19 -18 -25 0 -7 -4 -10 -9 -7 -12 8 -38
-35 -46 -76 -5 -25 -2 -38 9 -47 30 -25 143 6 117 32 -5 5 -17 5 -29 -2 -26
-14 -72 -14 -72 -1 0 5 6 7 13 4 15 -5 95 50 104 72 8 23 -14 64 -34 64 -10 0
-26 -7 -35 -14z m38 -43 c-7 -19 -76 -59 -76 -44 0 12 71 74 77 67 3 -2 2 -13
-1 -23z"/>
<path d="M11650 4724 c-37 -34 -40 -35 -40 -14 0 38 -23 16 -37 -36 -27 -104
-9 -111 57 -21 25 34 50 60 55 59 6 -2 9 -31 7 -72 -3 -57 -1 -70 11 -70 19 0
32 124 18 163 -14 35 -23 34 -71 -9z"/>
<path d="M12000 4738 c0 -14 8 -18 40 -18 28 0 40 4 40 14 0 9 -14 15 -40 18
-33 3 -40 0 -40 -14z"/>
<path d="M3149 4712 c-42 -43 -56 -82 -43 -121 8 -22 16 -26 56 -29 54 -4 110
9 116 26 2 8 -18 11 -70 9 l-73 -2 2 35 c1 25 10 43 32 62 55 49 70 25 26 -40
-17 -25 -22 -39 -14 -47 12 -12 33 11 59 69 36 79 -24 104 -91 38z"/>
<path d="M5901 4715 c-53 -49 -69 -87 -47 -120 14 -22 24 -25 74 -25 40 0 67
6 91 21 44 26 29 49 -17 25 -17 -9 -50 -16 -73 -16 l-42 0 39 26 c62 42 81 83
52 112 -19 19 -35 14 -77 -23z m59 -14 c0 -11 -58 -61 -71 -61 -12 0 -3 17 24
48 21 22 47 30 47 13z"/>
<path d="M6159 4728 c-30 -28 -84 -151 -75 -173 9 -25 21 -11 45 53 11 33 30
71 42 86 21 26 53 34 64 16 8 -14 35 -13 35 1 0 18 -32 38 -61 39 -14 0 -37
-10 -50 -22z"/>
<path d="M8305 4707 c-35 -34 -45 -51 -45 -75 0 -26 5 -33 26 -38 14 -4 41 -2
58 3 32 10 33 9 33 -19 0 -46 53 -67 61 -24 3 14 0 17 -12 13 -12 -5 -16 0
-16 21 0 31 13 55 26 50 14 -5 17 82 3 98 -6 8 -29 14 -50 14 -32 0 -46 -8
-84 -43z m115 -3 c0 -25 -53 -71 -90 -79 -39 -9 -46 -2 -32 30 22 48 122 88
122 49z"/>
<path d="M9423 4732 c-63 -34 -98 -105 -67 -136 18 -19 46 -16 98 10 27 13 30
12 43 -6 12 -17 24 -20 66 -18 64 4 68 22 7 26 -25 2 -49 7 -54 12 -5 5 -1 27
8 52 17 42 17 43 -4 60 -27 22 -56 22 -97 0z m62 -39 c-4 -16 -12 -34 -18 -42
-14 -17 -77 -44 -84 -37 -9 9 7 77 17 71 5 -3 12 0 15 6 8 12 42 27 64 28 9 1
11 -6 6 -26z"/>
<path d="M2784 4721 c-43 -27 -60 -53 -66 -99 -8 -58 11 -82 65 -82 85 0 147
34 117 64 -7 7 -14 4 -24 -9 -10 -14 -27 -19 -67 -20 -51 0 -54 1 -57 26 -2
21 2 28 21 33 35 8 77 45 77 66 0 32 -32 42 -66 21z m22 -36 c-11 -8 -25 -15
-30 -15 -6 0 -2 7 8 15 11 8 25 15 30 15 6 0 2 -7 -8 -15z"/>
<path d="M12108 4688 c-13 -29 -22 -56 -20 -60 1 -5 -2 -8 -8 -8 -5 0 -10 -9
-10 -21 0 -24 35 -23 36 1 0 8 12 39 27 68 26 49 28 72 7 72 -5 0 -20 -24 -32
-52z"/>
<path d="M12319 4730 c-21 -12 -79 -102 -79 -122 0 -38 50 -29 100 18 l25 23
0 -37 c0 -25 5 -37 16 -40 12 -2 15 5 15 30 0 18 2 46 4 62 7 43 -12 42 -65
-4 -26 -23 -50 -39 -53 -36 -8 9 50 78 70 84 10 2 18 11 18 18 0 16 -27 18
-51 4z"/>
<path d="M14583 4725 c-13 -9 -23 -11 -23 -6 0 34 -51 -12 -97 -87 -41 -69
-16 -73 51 -7 62 60 104 91 112 82 3 -3 1 -22 -5 -44 -18 -62 -14 -83 12 -83
25 0 62 32 51 43 -4 3 -15 2 -26 -4 -17 -9 -18 -7 -11 18 4 15 8 44 8 63 0 30
-4 35 -25 38 -14 1 -35 -4 -47 -13z"/>
<path d="M3006 4688 c-40 -69 -59 -119 -48 -130 13 -13 32 -1 32 20 0 9 13 40
28 67 23 43 32 50 57 50 46 0 40 29 -7 33 -34 3 -38 0 -62 -40z"/>
<path d="M5317 4693 c-9 -16 -29 -174 -23 -180 14 -14 26 16 38 90 8 55 9 80
1 88 -6 6 -13 7 -16 2z"/>
<path d="M5431 4655 c-23 -25 -45 -45 -50 -45 -14 0 -20 -25 -10 -41 7 -11 20
-3 57 39 26 29 51 52 55 52 4 0 5 -34 1 -76 -6 -63 -5 -76 7 -72 17 6 38 137
27 167 -12 33 -42 25 -87 -24z"/>
<path d="M10423 4610 c-8 -32 -7 -42 4 -51 19 -17 26 -5 29 46 2 57 -18 60
-33 5z"/>
<path d="M12906 4512 c-8 -15 -24 -36 -36 -47 -28 -25 -53 -73 -45 -85 10 -15
25 -12 32 8 3 9 20 35 38 57 40 50 56 80 48 89 -12 12 -23 6 -37 -22z"/>
<path d="M4726 4509 c-25 -20 -58 -81 -112 -211 -20 -47 -34 -68 -46 -68 -25
0 -34 -21 -15 -35 14 -10 15 -18 6 -43 -12 -35 -9 -87 6 -87 5 0 13 19 17 43
13 78 27 95 90 112 56 15 88 34 76 45 -3 4 -31 0 -62 -8 -31 -9 -56 -12 -56
-8 0 4 16 45 36 91 51 122 94 182 94 130 0 -21 15 -27 25 -9 10 15 -3 56 -19
62 -8 3 -26 -3 -40 -14z"/>
<path d="M4943 4476 c-36 -32 -46 -51 -88 -169 -14 -38 -21 -47 -35 -42 -25 8
-37 -15 -17 -30 15 -11 15 -15 1 -53 -9 -23 -13 -49 -9 -59 5 -14 14 -4 38 47
28 57 36 65 62 68 52 5 73 11 78 26 5 12 -3 14 -44 9 -27 -3 -49 -2 -49 3 0
16 30 94 50 134 25 48 56 71 87 64 27 -7 33 20 7 30 -29 11 -44 6 -81 -28z"/>
<path d="M8737 4503 c-4 -3 -7 -51 -7 -107 0 -117 -15 -157 -82 -223 -45 -44
-78 -57 -86 -35 -6 18 94 113 116 110 11 -2 18 5 20 20 5 33 -18 28 -81 -19
-70 -52 -96 -97 -79 -135 11 -23 17 -26 44 -20 44 9 88 45 134 111 39 57 39
58 44 171 3 63 4 119 2 124 -4 12 -16 13 -25 3z"/>
<path d="M6772 4449 c-25 -44 -49 -104 -63 -159 -12 -49 0 -160 17 -160 11 0
13 18 12 78 -2 80 19 157 63 228 22 36 24 54 7 54 -7 0 -23 -18 -36 -41z"/>
<path d="M5980 4455 c0 -15 -6 -53 -14 -84 -8 -31 -17 -72 -20 -91 -5 -28 -13
-38 -36 -47 -38 -14 -40 -37 -4 -30 26 5 26 4 19 -42 -13 -86 -13 -91 -5 -91
17 0 30 29 36 83 l7 56 59 7 c37 4 62 12 65 21 8 20 4 21 -57 13 -30 -4 -56
-6 -58 -5 -2 2 6 43 17 91 28 125 29 138 9 142 -14 3 -18 -3 -18 -23z"/>
<path d="M11094 4443 c-41 -188 -63 -238 -127 -287 -42 -32 -47 -32 -47 -1 0
54 45 105 87 97 19 -4 24 15 7 28 -21 19 -78 -10 -104 -52 -24 -39 -26 -101
-4 -122 13 -14 19 -14 43 -2 15 8 46 35 68 59 40 44 42 44 47 21 14 -53 82
-84 114 -52 21 21 13 29 -22 23 -29 -6 -37 -3 -49 17 -24 36 -24 65 2 170 23
93 23 128 2 128 -6 0 -13 -12 -17 -27z"/>
<path d="M4367 4365 c-9 -124 -74 -238 -143 -251 -21 -4 -40 -2 -46 4 -17 17
10 70 43 87 26 14 28 13 34 -5 7 -23 21 -26 28 -6 8 19 -20 56 -42 56 -10 0
-34 -15 -55 -32 -41 -37 -59 -96 -36 -123 16 -19 73 -19 113 0 39 18 94 96
118 167 22 65 26 178 5 178 -9 0 -15 -21 -19 -75z"/>
<path d="M2826 4408 c-1 -7 -11 -35 -20 -63 -54 -155 -96 -288 -96 -301 0 -31
25 -6 46 45 26 63 96 167 163 241 l50 55 1 -31 c0 -17 -16 -75 -35 -130 -35
-99 -44 -154 -25 -154 10 0 65 71 72 92 4 10 70 -28 93 -52 6 -6 18 -20 27
-30 32 -36 186 -7 163 30 -4 7 -11 8 -18 2 -21 -17 -116 -21 -128 -6 -9 11 -5
16 16 24 48 18 96 62 93 84 -7 47 -104 22 -133 -34 -17 -33 -33 -31 -69 9 -23
25 -34 26 -56 6 -13 -12 -12 -2 7 56 29 84 28 152 -1 157 -21 4 -68 -38 -128
-116 -22 -29 -43 -51 -45 -48 -2 2 7 28 21 59 35 79 42 117 21 117 -8 0 -17
-6 -19 -12z m341 -223 c-15 -14 -33 -25 -40 -25 -7 0 1 12 16 25 15 14 33 25
40 25 7 0 -1 -12 -16 -25z"/>
<path d="M10774 4375 c5 -31 1 -67 -14 -123 -21 -79 -24 -170 -5 -175 6 -1 13
25 16 58 3 33 14 90 24 127 20 77 15 158 -12 158 -12 0 -14 -8 -9 -45z"/>
<path d="M7961 4379 c-17 -17 -31 -34 -31 -38 0 -21 16 -18 47 9 34 30 95 42
108 20 22 -35 -116 -182 -182 -195 -43 -7 -158 -78 -168 -102 -16 -44 46 -27
140 36 40 27 45 26 45 -9 0 -32 22 -50 64 -50 32 0 73 19 80 36 8 22 -12 26
-38 9 -14 -9 -35 -15 -48 -13 -18 2 -24 10 -26 39 -3 33 1 39 32 59 57 34 136
142 136 184 0 29 -30 46 -80 46 -41 0 -53 -5 -79 -31z"/>
<path d="M13366 4392 c-9 -15 6 -52 20 -52 9 0 14 11 14 30 0 29 -21 42 -34
22z"/>
<path d="M4486 4375 c-8 -22 1 -39 29 -52 32 -15 40 -1 20 37 -17 32 -39 39
-49 15z"/>
<path d="M12566 4358 c-28 -39 -16 -214 15 -234 22 -13 29 13 14 50 -10 24
-15 60 -13 98 4 76 18 88 77 68 30 -10 45 -10 53 -2 8 8 0 15 -27 26 -55 23
-101 21 -119 -6z"/>
<path d="M10050 4344 c-45 -19 -80 -53 -80 -76 0 -25 10 -23 35 7 11 13 37 32
58 40 l38 16 -18 -28 c-9 -15 -30 -43 -45 -61 -30 -35 -37 -72 -14 -72 7 0 19
7 26 15 15 19 30 19 30 2 0 -20 33 -47 58 -47 11 0 37 15 56 34 31 29 36 40
36 80 0 33 -4 46 -14 46 -18 0 -26 -22 -19 -50 6 -23 -39 -80 -63 -80 -17 0
-26 32 -19 63 4 14 2 28 -4 31 -6 4 -4 16 6 35 19 32 12 61 -14 61 -10 -1 -34
-8 -53 -16z"/>
<path d="M6125 4339 c-4 -6 1 -17 11 -24 24 -18 29 -18 45 1 10 13 10 17 -2
25 -19 12 -46 11 -54 -2z"/>
<path d="M11708 4333 c-9 -10 -27 -26 -41 -35 -38 -26 -49 -69 -29 -110 21
-40 41 -45 98 -23 79 30 89 91 26 158 -30 32 -33 32 -54 10z m13 -93 c5 0 14
12 20 27 8 22 12 24 19 13 19 -30 11 -60 -22 -80 -40 -24 -64 -25 -72 -4 -11
29 -6 54 17 77 l22 22 3 -27 c2 -16 8 -28 13 -28z"/>
<path d="M8852 4328 c-25 -25 -4 -61 22 -39 19 16 42 4 56 -30 11 -26 10 -32
-6 -51 -11 -11 -38 -29 -61 -40 -24 -10 -43 -23 -43 -28 0 -20 20 -18 69 6 48
24 53 25 70 10 26 -23 112 -21 142 3 29 24 18 38 -16 23 -31 -15 -102 -16
-110 -2 -8 14 11 46 57 96 35 38 38 45 23 51 -13 4 -26 -4 -48 -30 -33 -42
-43 -45 -52 -17 -12 36 -82 69 -103 48z"/>
<path d="M10185 4319 c-10 -14 -1 -21 19 -13 9 3 13 10 10 15 -7 12 -21 11
-29 -2z"/>
<path d="M11921 4313 c-35 -18 -71 -66 -71 -96 0 -10 13 -32 30 -48 23 -24 37
-30 62 -27 21 2 33 8 33 18 0 10 -8 14 -27 12 -26 -3 -68 26 -68 48 0 21 56
71 83 73 15 1 27 5 27 10 0 4 0 12 0 17 0 15 -31 12 -69 -7z"/>
<path d="M5348 4305 c-16 -9 -38 -39 -57 -77 -37 -78 -42 -111 -18 -116 12 -3
17 3 17 20 0 14 12 49 28 79 20 40 36 58 65 72 21 10 35 22 32 27 -9 14 -35
12 -67 -5z"/>
<path d="M10307 4297 c-46 -37 -56 -118 -18 -150 31 -28 68 -29 97 -4 23 20
26 28 20 58 -9 47 -39 84 -61 75 -17 -6 -17 -8 2 -29 44 -47 37 -91 -13 -85
-26 3 -29 7 -32 42 -3 31 2 44 24 67 36 38 21 58 -19 26z"/>
<path d="M5132 4290 c-40 -25 -63 -60 -69 -108 -4 -32 -1 -44 17 -62 20 -20
30 -22 78 -17 51 6 94 28 79 43 -3 3 -20 1 -38 -5 -45 -16 -84 -14 -100 5 -12
15 -11 18 5 28 66 40 96 68 96 91 0 37 -30 48 -68 25z m32 -33 c-2 -7 -18 -21
-35 -31 -31 -18 -31 -18 -20 2 17 32 66 57 55 29z"/>
<path d="M8282 4298 c-8 -8 -7 -17 5 -34 10 -17 13 -35 9 -59 -8 -40 -61 -106
-73 -90 -16 20 -35 16 -31 -7 4 -28 40 -36 72 -15 20 14 23 13 34 -4 23 -36
152 -19 152 20 0 14 -27 15 -35 1 -3 -5 -26 -10 -51 -10 -41 0 -44 2 -44 26 0
32 34 90 61 104 10 6 19 15 19 20 0 15 -37 12 -54 -5 -13 -13 -15 -12 -21 14
-8 37 -27 55 -43 39z"/>
<path d="M12085 4298 c-26 -15 -54 -50 -55 -66 0 -27 31 -71 64 -92 25 -15 48
-20 77 -18 60 4 64 28 5 28 -36 0 -52 6 -81 31 -19 17 -35 35 -35 40 0 6 11
21 25 34 18 19 35 25 65 25 29 0 40 4 38 13 -6 16 -78 20 -103 5z"/>
<path d="M5500 4260 c-17 -16 -36 -30 -40 -30 -4 0 -10 -17 -13 -37 -11 -65
31 -101 84 -73 23 13 24 26 3 47 -14 14 -16 14 -21 -6 -8 -29 -33 -27 -33 4 0
19 9 28 46 44 40 18 45 24 42 48 -4 38 -29 40 -68 3z"/>
<path d="M12404 4275 c-4 -8 -2 -21 4 -28 20 -26 23 -69 6 -88 -23 -25 -70
-25 -84 0 -15 29 -12 78 5 85 22 8 18 26 -5 26 -11 0 -27 -11 -35 -24 -13 -20
-14 -32 -6 -64 13 -48 40 -73 78 -74 62 -2 99 40 88 99 -13 69 -38 103 -51 68z"/>
<path d="M13501 4259 c-17 -17 -31 -36 -31 -42 0 -8 -4 -7 -12 1 -7 7 -16 12
-20 12 -11 0 -10 -88 1 -95 5 -3 27 20 48 52 50 75 64 79 56 15 -5 -46 -3 -51
20 -67 14 -9 38 -15 54 -13 24 3 28 7 28 36 0 19 -5 32 -12 32 -7 0 -13 -9
-13 -20 0 -21 -16 -26 -38 -11 -10 6 -11 22 -6 60 5 40 3 55 -7 62 -23 15 -36
10 -68 -22z"/>
<path d="M10585 4253 c25 -59 6 -113 -40 -113 -29 0 -41 32 -31 85 5 27 4 35
-7 35 -30 0 -38 -90 -11 -128 22 -32 74 -30 108 4 42 42 34 134 -12 134 -10 0
-12 -6 -7 -17z"/>
<path d="M13336 4216 c-29 -62 -34 -106 -11 -106 9 0 15 9 15 23 0 12 11 44
25 70 24 44 26 67 5 67 -5 0 -20 -24 -34 -54z"/>
<path d="M5697 4254 c-4 -4 -16 -7 -29 -8 -17 -1 -25 -10 -34 -41 -6 -22 -9
-43 -7 -47 7 -13 33 -9 33 5 0 7 14 26 30 42 35 34 38 25 15 -61 -8 -31 -12
-61 -9 -65 8 -14 47 -11 41 4 -15 40 -17 57 -8 57 13 0 25 63 17 95 -6 24 -34
34 -49 19z"/>
<path d="M6360 4231 c-48 -30 -74 -67 -68 -97 6 -31 35 -27 96 13 l57 38 0
-44 c0 -50 22 -74 52 -55 27 17 30 38 4 31 -32 -8 -37 16 -18 76 22 70 8 82
-41 35 -43 -41 -122 -93 -122 -79 0 11 66 70 80 72 6 1 16 2 22 3 7 0 14 9 16
19 5 26 -26 21 -78 -12z"/>
<path d="M6091 4193 c-16 -31 -30 -94 -24 -109 10 -28 33 -15 33 19 0 17 7 45
15 61 8 15 15 32 15 37 0 16 -29 9 -39 -8z"/>
<path d="M13660 4185 c0 -8 5 -15 10 -15 6 0 10 7 10 15 0 8 -4 15 -10 15 -5
0 -10 -7 -10 -15z"/>
<path d="M4414 4175 c-3 -8 -7 -29 -8 -47 -1 -26 3 -33 18 -33 17 0 20 7 21
48 0 32 -3 47 -13 47 -7 0 -15 -7 -18 -15z"/>
<path d="M2320 3996 c-5 -5 -10 -40 -10 -76 0 -37 -9 -109 -20 -161 -26 -124
-37 -264 -21 -283 6 -7 33 -17 59 -21 26 -4 81 -16 122 -27 53 -14 90 -18 125
-14 28 4 75 9 105 12 30 3 65 10 77 16 38 19 54 79 59 226 2 74 11 167 19 206
8 39 15 79 15 89 0 26 -39 22 -44 -5 -22 -102 -27 -148 -32 -257 -6 -155 -19
-210 -48 -216 -178 -35 -173 -35 -275 -9 -52 13 -111 24 -130 24 l-34 0 7 78
c3 42 15 120 26 172 11 52 20 123 20 158 l0 62 33 2 c17 0 39 0 47 0 68 -8
354 -2 363 7 6 6 9 13 6 15 -10 10 -459 12 -469 2z"/>
<path d="M2566 3906 c-8 -14 -25 -27 -36 -31 -11 -3 -20 -13 -20 -21 0 -17 14
-18 42 -3 18 10 20 9 14 -7 -12 -32 -18 -138 -8 -153 15 -21 32 -3 26 27 -3
15 2 61 10 102 9 41 16 83 16 93 0 25 -25 21 -44 -7z"/>
<path d="M9907 3734 c-11 -12 -8 -108 9 -264 8 -80 19 -298 25 -485 5 -187 13
-365 18 -395 5 -30 10 -88 10 -128 l1 -73 -30 16 c-16 8 -42 31 -57 51 -58 76
-70 87 -81 80 -17 -10 -3 -33 63 -104 57 -62 96 -82 121 -61 17 14 18 128 3
234 -5 39 -14 214 -18 390 -5 176 -17 402 -27 502 -10 101 -15 186 -11 189 4
4 27 -10 52 -31 25 -20 49 -35 51 -32 13 12 -9 44 -51 75 -52 38 -68 45 -78
36z"/>
<path d="M2433 3664 c-7 -3 -10 -11 -7 -18 3 -8 24 -11 66 -9 33 2 85 -3 115
-11 30 -8 61 -12 69 -9 20 8 18 43 -3 43 -10 0 -65 3 -123 5 -58 2 -110 2
-117 -1z"/>
<path d="M4780 3627 c-19 -7 -40 -23 -48 -37 -19 -36 -9 -211 22 -383 14 -76
31 -197 37 -269 13 -147 8 -544 -7 -571 -9 -15 -15 -10 -48 33 -72 94 -156
143 -156 90 0 -11 7 -20 15 -20 8 0 45 -31 83 -69 37 -39 80 -75 95 -80 25
-10 29 -8 39 17 16 41 23 456 9 610 -7 73 -23 194 -37 270 -13 75 -27 182 -31
238 -6 96 -5 102 17 122 26 24 66 29 72 10 3 -7 12 -9 24 -4 18 7 17 9 -9 32
-32 27 -30 27 -77 11z"/>
<path d="M6765 3614 c-143 -8 -370 -13 -505 -12 l-244 3 -12 -110 c-15 -148
-32 -380 -40 -550 -3 -77 -9 -167 -13 -200 -7 -59 -8 -59 -20 -31 -11 27 -30
145 -62 389 -6 48 -15 87 -20 87 -9 0 -159 -147 -159 -156 0 -2 8 -4 18 -4 10
0 40 22 67 50 26 27 52 47 55 45 4 -3 10 -33 14 -67 29 -267 68 -423 105 -423
22 0 30 46 41 240 26 454 43 650 62 672 5 7 6 17 2 24 -5 8 3 10 27 6 19 -3
68 -10 109 -17 56 -9 135 -9 325 0 415 18 1014 30 1500 29 438 -1 499 3 448
27 -32 15 -1409 13 -1698 -2z"/>
<path d="M3790 3580 c-58 -4 -146 -8 -197 -9 -88 -1 -117 -11 -96 -32 6 -6 5
-37 -1 -82 -5 -39 -10 -130 -11 -202 l0 -130 55 -1 c30 -1 73 -6 95 -13 59
-16 111 -14 195 10 41 11 95 22 120 22 l45 2 -3 135 c-4 222 -11 278 -35 295
-12 8 -31 14 -42 13 -11 -1 -67 -5 -125 -8z m145 -33 c16 -12 18 -34 23 -184
l5 -171 -39 -4 c-22 -3 -76 -15 -122 -28 -81 -21 -86 -21 -154 -6 -39 9 -86
16 -104 16 l-34 0 0 83 c1 71 23 274 32 282 2 1 82 6 178 10 96 4 177 9 179
11 7 7 17 4 36 -9z"/>
<path d="M3702 3490 c-35 -22 -57 -55 -42 -65 12 -8 31 3 48 27 19 26 32 22
32 -10 0 -35 -47 -111 -111 -179 -49 -51 -62 -83 -35 -83 8 0 28 16 45 35 l31
36 10 -25 c11 -30 44 -49 70 -41 20 6 70 60 70 76 0 19 -28 8 -44 -17 -24 -35
-57 -29 -69 13 -8 28 -5 39 21 80 40 63 54 102 47 130 -9 36 -37 45 -73 23z"/>
<path d="M10790 3569 c-244 -19 -260 -21 -260 -35 0 -8 10 -14 24 -14 31 0 36
-20 36 -147 0 -79 -3 -105 -16 -117 -13 -14 -15 -42 -14 -174 1 -86 1 -193 0
-237 l-1 -80 -14 50 c-22 79 -52 240 -69 369 -9 65 -21 125 -27 132 -13 15
-39 19 -39 5 0 -4 -27 -43 -60 -84 -33 -42 -60 -79 -60 -82 0 -3 8 -5 18 -5 9
0 39 30 67 66 59 79 56 82 80 -101 9 -71 32 -195 51 -275 44 -185 43 -180 59
-180 19 0 30 155 27 359 -2 123 1 166 10 172 9 6 13 55 16 169 l4 162 38 -6
c27 -4 39 -2 43 8 10 25 255 26 832 5 226 -8 499 -10 865 -5 294 4 545 7 558
7 15 -1 22 4 19 12 -3 9 -127 11 -583 8 -318 -2 -696 2 -839 8 -392 16 -648
19 -765 10z"/>
<path d="M14199 3483 c-1 -10 -1 -61 0 -113 4 -138 -18 -222 -82 -316 -72
-108 -128 -149 -144 -108 -10 27 16 91 49 119 24 20 37 25 59 20 22 -5 29 -3
29 9 0 15 -29 36 -49 36 -19 0 -94 -74 -108 -107 -19 -46 -16 -90 7 -113 16
-16 24 -18 47 -9 69 26 171 166 203 280 16 56 21 102 20 187 0 63 -2 118 -5
123 -10 15 -25 10 -26 -8z"/>
<path d="M7536 3441 c-19 -20 -26 -36 -22 -47 6 -15 8 -15 24 -1 9 9 29 20 45
26 22 9 27 8 27 -5 0 -20 -41 -78 -59 -82 -19 -4 -50 -44 -51 -64 0 -19 17
-23 39 -9 9 6 19 4 29 -5 25 -26 73 -13 99 25 21 32 23 51 3 51 -5 0 -11 -8
-14 -18 -9 -26 -53 -49 -67 -35 -9 9 -3 26 21 65 20 31 33 67 34 88 1 34 0 35
-39 38 -34 2 -45 -2 -69 -27z"/>
<path d="M12299 3437 c-28 -15 -45 -31 -47 -45 -4 -29 15 -28 44 3 39 43 57
29 30 -23 -15 -28 -75 -91 -88 -92 -5 0 -12 0 -17 0 -5 0 -16 -12 -26 -26 -23
-35 -6 -52 29 -29 14 10 26 13 26 7 0 -6 7 -18 16 -27 27 -26 136 -3 119 26
-3 3 -24 3 -47 -2 -34 -6 -45 -5 -55 8 -10 13 -7 22 22 54 61 67 82 132 52
158 -11 8 -25 5 -58 -12z"/>
<path d="M8659 3418 c0 -1 -1 -64 -2 -138 -2 -131 -3 -137 -35 -203 -32 -65
-83 -117 -113 -117 -31 0 -59 31 -59 65 0 73 107 163 125 105 7 -21 26 -23 32
-4 6 17 -37 64 -58 64 -23 0 -95 -63 -115 -101 -8 -16 -14 -46 -14 -68 0 -32
6 -44 31 -65 42 -35 77 -33 125 8 50 43 89 114 104 191 15 78 10 257 -7 263
-7 2 -13 2 -14 0z"/>
<path d="M6427 3323 c-4 -3 -7 -22 -7 -42 0 -40 -35 -255 -51 -314 -11 -42 -4
-77 15 -77 9 0 14 13 14 38 0 20 5 57 11 82 22 98 52 300 46 310 -7 12 -19 13
-28 3z"/>
<path d="M13300 3313 c-45 -19 -90 -52 -90 -64 0 -23 32 -20 57 5 14 14 32 27
39 27 57 5 59 4 58 -27 -3 -76 -115 -234 -194 -274 -41 -21 -103 -86 -97 -103
7 -23 25 -16 80 34 l57 50 -6 -44 c-7 -52 7 -84 42 -97 39 -15 72 3 70 39 -2
42 -11 46 -34 17 -38 -49 -54 -28 -45 61 5 49 11 64 43 98 54 59 77 96 105
169 27 71 25 87 -10 110 -29 19 -30 19 -75 -1z"/>
<path d="M10947 3273 c-4 -3 -7 -32 -7 -63 0 -52 -8 -88 -54 -260 -16 -60 -14
-69 12 -66 12 2 18 16 23 52 3 27 13 74 23 105 19 62 37 205 29 226 -6 14 -16
17 -26 6z"/>
<path d="M6835 3188 c-14 -29 -25 -59 -25 -67 0 -11 -11 -12 -50 -8 -63 8 -70
-16 -10 -34 43 -13 46 -22 31 -76 -6 -21 -5 -35 2 -42 20 -20 37 -12 35 17 -3
54 2 93 15 97 6 2 38 9 70 15 40 8 57 16 57 27 0 15 -22 14 -99 -4 -21 -5 -22
-3 -16 18 4 13 16 39 26 57 19 33 18 52 -2 52 -5 0 -21 -24 -34 -52z"/>
<path d="M5208 3192 c-24 -23 -38 -44 -34 -50 12 -20 34 -13 48 15 13 27 61
53 74 40 19 -18 -47 -124 -130 -210 -31 -31 -56 -64 -56 -72 0 -28 38 -15 69
22 25 31 31 34 31 18 0 -34 28 -65 59 -65 28 0 81 39 81 60 0 17 -22 11 -47
-12 -30 -28 -55 -16 -64 33 -6 28 -2 41 28 82 47 64 78 144 62 163 -23 28 -77
17 -121 -24z"/>
<path d="M7256 3223 c-3 -3 -6 -17 -6 -30 0 -19 4 -23 19 -18 23 7 61 -36 61
-69 0 -23 -41 -85 -65 -98 -7 -5 -16 -4 -20 2 -11 18 -25 10 -25 -15 0 -56 57
-37 110 37 28 38 30 39 30 16 0 -47 54 -73 101 -48 25 14 26 45 2 35 -10 -5
-29 -8 -43 -9 -22 -1 -25 4 -28 37 -4 41 31 107 56 107 6 0 12 7 12 15 0 32
-38 15 -74 -33 l-23 -32 -12 28 c-15 36 -81 88 -95 75z"/>
<path d="M11390 3205 c-7 -9 -15 -37 -18 -64 -4 -49 -4 -49 -46 -54 -23 -4
-52 -4 -64 0 -16 4 -22 1 -22 -11 0 -20 40 -30 86 -21 36 6 37 6 31 -23 -6
-27 6 -52 25 -52 4 0 8 11 8 24 0 47 9 56 60 56 30 0 52 6 60 15 14 17 12 18
-56 15 l-51 -2 3 39 c2 21 6 50 10 66 7 30 -6 36 -26 12z"/>
<path d="M14389 3157 c-72 -85 -86 -143 -48 -191 11 -14 30 -26 42 -26 42 0
113 57 94 76 -2 3 -22 -6 -42 -21 -44 -29 -49 -30 -69 -9 -31 31 -11 90 51
156 20 20 32 41 29 47 -11 18 -20 13 -57 -32z"/>
<path d="M8775 3180 c-4 -6 5 -24 19 -41 29 -35 33 -67 11 -109 -19 -37 -68
-72 -90 -64 -13 5 -16 2 -13 -17 6 -43 36 -35 94 25 48 50 54 60 54 98 0 30
-8 55 -25 81 -26 38 -39 45 -50 27z"/>
<path d="M9436 3176 c5 -12 -6 -16 -50 -18 -31 -2 -56 -7 -56 -13 0 -11 92
-19 127 -10 28 7 30 31 4 45 -26 14 -31 13 -25 -4z"/>
<path d="M14250 3151 c-15 -28 -13 -54 4 -48 10 4 15 -5 18 -31 7 -52 1 -61
-43 -68 -42 -7 -57 -20 -41 -36 15 -15 91 12 109 38 11 17 13 38 8 85 -4 35
-9 67 -11 71 -9 15 -33 8 -44 -11z"/>
<path d="M8925 3152 c-36 -25 -65 -76 -65 -113 0 -48 31 -84 63 -75 12 3 28 6
35 6 17 0 15 25 -3 40 -13 11 -13 15 -3 21 10 7 9 9 -3 9 -22 0 -43 -26 -33
-42 6 -10 3 -9 -9 1 -28 22 -21 66 18 107 19 20 32 40 29 45 -6 11 -16 11 -29
1z"/>
<path d="M11950 3120 c0 -13 7 -20 19 -20 23 0 61 -44 61 -70 0 -22 -64 -80
-89 -80 -10 0 -22 8 -25 17 -10 24 -30 0 -21 -26 10 -33 52 -31 108 5 34 23
39 23 54 9 18 -18 84 -17 90 2 6 18 -35 37 -51 24 -34 -28 -35 32 -1 81 14 20
25 42 25 47 0 22 -26 10 -44 -20 -19 -32 -19 -32 -31 -10 -12 24 -62 61 -82
61 -7 0 -13 -9 -13 -20z"/>
<path d="M5415 3109 c-10 -15 3 -27 36 -34 17 -4 33 -13 36 -21 7 -19 -24 -65
-48 -71 -21 -6 -25 -28 -9 -38 6 -4 21 0 34 8 20 14 23 13 34 -4 16 -25 56
-24 92 1 27 19 47 60 30 60 -5 0 -21 -11 -36 -25 -28 -26 -49 -32 -59 -15 -7
12 9 43 46 91 33 42 35 49 15 49 -8 0 -26 -13 -39 -30 -23 -27 -26 -28 -32
-11 -3 11 -13 22 -23 26 -43 18 -72 23 -77 14z"/>
<path d="M13483 3105 c-36 -15 -60 -50 -42 -60 6 -4 21 2 33 14 22 21 70 28
80 12 12 -18 -97 -141 -125 -141 -5 0 -9 -7 -9 -15 0 -30 37 -14 88 37 l52 52
0 -33 c0 -47 16 -71 48 -71 31 0 72 32 72 55 0 20 -6 19 -39 -6 -16 -12 -34
-18 -40 -15 -19 12 -12 70 14 108 14 20 25 42 25 47 0 16 -30 13 -36 -3 -4
-11 -11 -8 -29 10 -27 27 -46 29 -92 9z"/>
<path d="M9333 3073 c-13 -2 -23 -11 -23 -18 0 -11 17 -13 88 -8 95 6 97 7 87
22 -6 11 -106 13 -152 4z"/>
<path d="M10773 2513 c-31 -6 -49 -31 -35 -45 9 -9 15 -9 24 0 14 14 48 16 48
3 0 -5 -11 -18 -25 -29 -28 -22 -33 -42 -11 -42 22 0 29 -17 22 -56 -8 -41
-27 -44 -63 -8 -19 19 -28 23 -37 14 -17 -18 48 -72 82 -68 29 3 52 39 52 79
0 13 -1 35 -1 49 0 14 2 37 6 51 6 24 -15 61 -33 58 -4 -1 -17 -4 -29 -6z"/>
<path d="M10998 2493 c-8 -10 -41 -61 -73 -113 -32 -52 -76 -118 -97 -146 -40
-53 -48 -84 -23 -84 8 0 15 6 15 13 0 7 13 28 28 47 16 19 57 80 92 135 34 55
71 110 82 122 11 12 17 26 13 32 -9 16 -20 14 -37 -6z"/>
<path d="M11003 2289 c-37 -11 -61 -45 -44 -62 8 -8 15 -5 27 11 14 21 74 33
74 15 0 -41 -25 -83 -61 -108 -30 -19 -38 -30 -30 -38 7 -7 18 -7 36 1 18 9
31 9 50 0 46 -21 125 34 109 76 -9 24 -34 19 -34 -7 0 -26 -38 -50 -59 -38 -9
6 -8 16 4 44 24 57 20 96 -11 107 -14 6 -26 10 -27 9 -1 0 -17 -5 -34 -10z"/>
<path d="M10523 2244 c-3 -8 -2 -21 1 -30 5 -13 9 -14 21 -4 12 10 27 -1 89
-64 89 -91 117 -144 123 -235 9 -125 -40 -264 -137 -392 -72 -97 -185 -161
-203 -116 -4 9 -8 8 -16 -3 -15 -21 -14 -28 9 -40 14 -8 31 -8 58 1 166 49
334 340 320 553 -7 99 -36 155 -133 252 -80 81 -121 106 -132 78z"/>
<path d="M3821 2184 c-49 -44 -67 -84 -37 -84 8 0 17 9 21 20 7 23 79 82 89
73 16 -16 4 -81 -21 -120 -63 -92 -106 -143 -138 -162 -36 -21 -47 -51 -19
-51 24 0 55 20 82 51 30 36 46 37 68 0 27 -45 67 -64 110 -52 47 13 74 38 74
68 0 30 -18 30 -30 -2 -5 -14 -11 -25 -12 -25 -2 0 -18 -4 -36 -10 -32 -9 -36
-7 -81 40 l-48 49 27 33 c57 69 76 148 50 199 -17 30 -44 23 -99 -27z"/>
<path d="M9097 2192 c-43 -44 -34 -72 9 -31 14 13 30 19 39 15 14 -5 13 -11
-7 -47 -13 -22 -35 -49 -50 -60 -29 -21 -37 -54 -15 -62 6 -2 22 5 35 16 17
16 22 17 22 5 0 -21 33 -48 59 -48 29 0 81 52 81 80 0 12 -5 20 -11 18 -6 -2
-10 -7 -9 -11 2 -10 -47 -57 -58 -57 -14 0 -28 15 -39 42 -11 23 -8 32 17 70
37 54 37 64 0 83 -39 20 -42 20 -73 -13z"/>
<path d="M8642 2138 c-129 -119 -165 -194 -165 -353 -1 -83 3 -107 20 -141 44
-84 141 -149 242 -161 43 -5 53 -3 49 8 -2 7 -24 17 -47 22 -46 9 -133 60
-167 98 -29 32 -61 97 -69 139 -9 50 12 167 40 225 32 66 160 194 177 177 20
-20 30 -14 26 15 -5 46 -32 39 -106 -29z"/>
<path d="M4743 2158 c-9 -16 9 -28 40 -28 31 0 31 0 9 -16 -30 -21 -28 -29 16
-51 46 -23 52 -56 9 -61 -16 -2 -39 4 -52 12 -35 23 -47 20 -43 -11 3 -27 6
-28 61 -31 63 -3 107 15 107 44 0 9 -15 31 -33 49 l-34 34 39 17 c21 9 38 21
38 26 0 4 1 11 3 15 3 9 -154 10 -160 1z"/>
<path d="M8048 2139 c-32 -16 -58 -36 -58 -43 0 -19 30 -29 36 -12 6 15 81 52
90 44 23 -23 -87 -168 -128 -168 -21 0 -78 -51 -78 -70 0 -19 30 -23 49 -6 23
21 41 20 41 -2 0 -36 29 -62 68 -62 51 1 106 30 110 58 4 28 1 28 -44 -3 -61
-42 -95 -32 -108 31 -6 29 -2 36 43 75 73 65 105 156 62 179 -24 12 -15 15
-83 -21z"/>
<path d="M2444 2109 c-9 -15 4 -24 52 -37 46 -13 84 -15 108 -6 29 11 16 24
-24 24 -22 0 -57 7 -77 15 -42 18 -50 18 -59 4z"/>
<path d="M6123 2059 c-68 -40 -112 -92 -143 -171 -32 -80 -35 -232 -7 -286 42
-79 134 -93 221 -34 26 18 51 32 56 32 15 0 24 50 11 63 -8 8 -19 3 -43 -19
-64 -59 -120 -78 -173 -58 -31 12 -47 63 -47 148 0 129 48 228 136 280 64 37
86 35 86 -9 0 -42 21 -47 38 -10 17 37 15 49 -11 73 -31 30 -62 27 -124 -9z"/>
<path d="M12245 1999 c-4 -6 -14 -8 -22 -5 -27 11 -78 -21 -150 -93 -83 -83
-97 -115 -91 -211 3 -54 9 -76 32 -109 46 -66 85 -85 162 -78 68 7 108 23 157
65 94 82 92 80 81 98 -14 23 -41 40 -50 31 -4 -3 -1 -14 6 -22 11 -13 9 -20
-16 -46 -38 -39 -163 -99 -208 -99 -42 0 -102 47 -122 97 -18 42 -18 125 0
166 21 48 125 145 164 153 31 6 32 5 32 -25 0 -68 45 -16 49 57 1 31 -11 43
-24 21z"/>
<path d="M2441 1951 c-19 -3 -37 -12 -39 -20 -4 -11 5 -13 49 -8 30 4 83 7
118 7 55 0 62 2 51 15 -13 16 -108 19 -179 6z"/>
<path d="M10303 1923 c-4 -16 -7 -75 -7 -133 -1 -80 2 -105 12 -105 10 0 14
26 17 100 1 55 6 115 10 133 6 26 4 32 -9 32 -9 0 -19 -12 -23 -27z"/>
<path d="M4438 1872 c-15 -31 -55 -88 -88 -127 -33 -38 -60 -76 -60 -82 0 -29
30 -10 71 44 44 56 44 56 47 27 2 -16 11 -37 19 -46 28 -31 63 -22 113 30 l47
49 9 -31 c5 -18 17 -32 28 -34 15 -3 17 0 10 14 -10 22 -10 115 1 162 12 52
-18 40 -38 -16 -27 -78 -110 -170 -142 -158 -22 8 -18 63 10 131 14 33 25 68
25 78 0 35 -26 15 -52 -41z"/>
<path d="M6736 1914 c-8 -22 7 -24 103 -17 68 4 91 10 91 20 0 20 -186 17
-194 -3z"/>
<path d="M11457 1878 c-2 -18 -11 -57 -18 -85 -14 -53 -14 -53 -54 -54 -22 -1
-48 -1 -57 0 -10 1 -18 -4 -18 -13 0 -13 12 -16 53 -16 51 0 53 -1 62 -32 12
-39 31 -35 27 5 -1 15 3 29 10 31 7 2 41 12 75 23 56 16 83 36 69 51 -3 2 -35
-6 -70 -19 -36 -12 -69 -20 -72 -16 -3 3 1 27 10 53 9 26 16 60 16 76 0 40
-27 36 -33 -4z"/>
<path d="M5410 1883 c0 -10 -5 -35 -11 -55 -8 -32 -14 -38 -38 -38 -64 0 -121
-13 -121 -27 0 -12 12 -13 64 -8 l64 7 -3 -51 c-2 -33 2 -54 11 -62 16 -13 18
-8 32 61 8 46 15 50 60 36 18 -6 22 -4 22 12 0 15 -9 22 -36 26 -28 6 -34 11
-29 24 4 9 9 34 12 55 5 30 2 37 -11 37 -9 0 -16 -8 -16 -17z"/>
<path d="M8860 1880 c0 -13 7 -20 18 -20 26 0 52 -31 52 -62 0 -29 -34 -64
-72 -73 -24 -6 -28 -4 -28 14 0 14 -5 19 -15 15 -26 -10 -18 -53 10 -60 36 -9
68 2 102 34 29 27 30 27 39 7 14 -30 61 -50 90 -36 13 6 24 17 24 26 0 18 -5
18 -29 5 -13 -6 -25 -4 -41 7 -20 14 -22 22 -17 64 6 47 -7 76 -19 44 -5 -12
-13 -9 -45 20 -44 39 -69 45 -69 15z"/>
<path d="M9747 1894 c-3 -3 -3 -20 -1 -37 7 -49 -8 -64 -48 -49 -23 8 -35 9
-43 1 -14 -14 21 -39 56 -39 24 0 28 -4 31 -32 2 -23 9 -34 21 -36 16 -3 18 1
12 28 -8 36 4 50 41 50 12 0 25 7 28 16 9 24 -2 36 -24 24 -30 -16 -40 -12
-40 19 0 48 -15 73 -33 55z"/>
<path d="M6765 1851 c-18 -4 -31 -14 -33 -25 -3 -14 0 -17 11 -13 50 19 87 18
120 -2 41 -25 47 -26 47 -7 0 8 -13 24 -29 35 -29 21 -60 24 -116 12z"/>
<path d="M7775 1780 c-4 -7 -3 -15 1 -20 19 -17 126 -32 269 -36 184 -6 310 4
310 26 0 12 -11 14 -60 10 -168 -14 -429 -1 -497 25 -9 4 -19 1 -23 -5z"/>
<path d="M3543 1758 c-11 -19 14 -28 80 -28 40 0 117 -5 172 -11 104 -11 320
-13 336 -3 26 16 -8 22 -173 28 -101 4 -234 11 -296 14 -63 4 -116 4 -119 0z"/>
<path d="M7965 1661 c-18 -4 -31 -14 -33 -25 -3 -16 0 -18 25 -12 65 16 82 17
102 7 21 -11 20 -12 -14 -47 -21 -21 -35 -44 -35 -59 0 -22 4 -25 39 -25 41 0
71 -20 71 -46 0 -24 -29 -73 -49 -84 -11 -5 -34 -10 -51 -10 -25 0 -35 7 -51
35 -34 58 -55 36 -24 -25 23 -45 93 -57 141 -25 33 22 64 74 64 108 0 39 -40
77 -81 77 l-32 0 22 24 c12 13 38 32 57 42 19 10 33 23 31 27 -4 14 -98 47
-127 46 -14 -1 -38 -4 -55 -8z"/>
<path d="M3803 1612 c-56 -2 -73 -6 -73 -17 0 -17 10 -19 104 -15 l69 2 -42
-37 c-46 -42 -52 -65 -18 -65 34 0 84 -35 91 -65 19 -77 -106 -124 -134 -50
-11 28 -28 33 -36 10 -10 -24 22 -62 61 -75 31 -10 41 -9 83 12 39 19 49 29
56 61 13 53 -11 101 -61 122 l-37 16 29 24 c17 13 38 27 48 30 26 10 20 34
-10 40 -44 10 -54 10 -130 7z"/>
</g>
</svg>
