<?xml version="1.0" standalone="no"?>
<!DOCTYPE svg PUBLIC "-//W3C//DTD SVG 20010904//EN"
 "http://www.w3.org/TR/2001/REC-SVG-20010904/DTD/svg10.dtd">
<svg version="1.0" xmlns="http://www.w3.org/2000/svg"
 width="1618.000000pt" height="1214.000000pt" viewBox="0 0 1618.000000 1214.000000"
 preserveAspectRatio="xMidYMid meet">

<g transform="translate(0.000000,1214.000000) scale(0.100000,-0.100000)"
fill="#000000" stroke="none">
<path d="M9159 11703 c0 -16 -17 -73 -37 -128 l-37 -100 -80 -5 c-60 -4 -80
-9 -80 -19 0 -11 15 -14 72 -12 l71 2 -24 -77 c-27 -83 -28 -119 -4 -119 10 0
16 13 18 43 3 48 37 143 55 154 7 4 26 8 44 8 l32 0 -24 -36 c-41 -60 -30
-114 22 -114 64 0 93 61 53 112 -13 18 -16 28 -8 36 19 19 -3 32 -57 32 l-55
0 35 98 c38 106 44 152 20 152 -10 0 -15 -10 -16 -27z m61 -318 c14 -17 7 -43
-15 -52 -26 -10 -40 12 -27 42 13 29 24 31 42 10z"/>
<path d="M8046 11713 c-3 -3 -6 -18 -6 -32 0 -13 -9 -43 -20 -65 -26 -55 -73
-221 -68 -243 2 -10 10 -18 18 -18 11 0 17 15 21 51 7 59 43 172 71 224 10 19
14 36 9 38 -5 2 -7 11 -4 21 5 19 -9 35 -21 24z"/>
<path d="M10308 11613 c-17 -38 -46 -106 -64 -153 -54 -136 -43 -153 43 -68
l53 52 0 -29 c0 -44 57 -96 112 -102 49 -6 131 13 126 28 -4 12 -3 12 -71 4
-28 -4 -63 -2 -77 4 -16 6 -19 10 -8 10 9 1 30 13 47 27 26 22 31 33 31 70 0
31 -4 44 -14 44 -15 0 -96 -86 -96 -101 0 -5 -4 -9 -10 -9 -5 0 -10 18 -10 40
0 35 -3 40 -22 40 -12 0 -34 -12 -50 -27 -15 -14 -30 -25 -32 -22 -3 2 7 31
21 64 14 33 30 74 36 90 7 17 20 43 30 58 21 33 22 47 2 47 -10 0 -28 -27 -47
-67z m159 -187 c-3 -8 -16 -20 -28 -27 l-22 -11 23 31 c22 32 38 36 27 7z"/>
<path d="M14582 11668 c-7 -7 -12 -16 -12 -20 0 -16 -33 -46 -46 -41 -21 8
-72 -25 -99 -64 -30 -45 -34 -107 -8 -135 16 -18 15 -22 -15 -84 -34 -69 -39
-94 -19 -94 6 1 28 36 48 78 l36 77 44 3 c55 3 92 29 100 72 10 50 -1 102 -23
108 -23 6 -23 20 2 57 29 44 24 75 -8 43z m-91 -160 c-40 -72 -53 -84 -59 -53
-7 30 7 62 40 94 56 54 63 38 19 -41z m89 -13 c0 -53 -19 -75 -66 -75 -39 0
-39 -4 13 87 31 53 53 48 53 -12z"/>
<path d="M15073 11643 c-66 -20 -74 -47 -11 -37 l42 7 -23 -24 c-12 -13 -31
-38 -42 -55 -15 -25 -28 -32 -64 -37 -24 -4 -52 -4 -61 0 -12 4 -15 1 -12 -13
2 -14 14 -20 45 -24 l41 -5 -44 -75 c-44 -76 -49 -95 -23 -95 8 0 14 5 14 10
0 8 79 150 92 165 2 2 38 7 80 10 48 3 78 10 81 18 3 9 -14 12 -62 12 -36 0
-66 3 -66 8 0 4 23 35 50 69 71 88 67 97 -37 66z"/>
<path d="M5108 11613 c-19 -21 -44 -46 -55 -56 -21 -19 -21 -18 -16 22 4 32 2
41 -10 41 -9 0 -17 -14 -22 -37 -9 -52 -22 -73 -44 -73 -11 0 -22 -7 -25 -16
-9 -23 -3 -26 27 -15 29 11 28 14 6 -118 -12 -74 -11 -91 5 -91 13 0 16 17 42
192 4 29 14 42 40 58 18 12 45 36 60 53 l26 32 -5 -51 c-3 -28 -13 -82 -23
-121 -9 -39 -14 -79 -10 -90 7 -16 10 -15 29 12 12 16 30 38 40 48 17 17 19
17 42 -12 14 -16 25 -40 25 -54 0 -37 34 -57 98 -57 45 0 55 3 59 20 3 11 12
20 19 20 16 0 19 16 4 25 -13 8 -52 -14 -45 -26 8 -12 -75 -12 -94 0 -16 11
-8 41 12 41 7 0 28 15 46 34 24 25 31 40 27 54 -13 39 -39 36 -77 -7 l-36 -40
-23 24 c-26 28 -49 32 -69 13 -11 -11 -12 -8 -7 17 3 17 9 62 12 100 5 56 3
73 -8 83 -13 10 -21 6 -50 -25z m203 -206 c-13 -12 -20 -15 -16 -7 14 26 28
41 33 35 3 -3 -5 -16 -17 -28z"/>
<path d="M14214 11609 c-75 -38 -94 -56 -72 -64 9 -4 37 7 64 24 63 41 78 40
70 -1 -9 -45 -61 -123 -107 -159 -47 -37 -65 -67 -51 -81 7 -7 25 4 56 32 l45
42 15 -36 c19 -45 31 -50 78 -34 47 16 45 34 -3 30 -32 -3 -37 0 -49 27 -7 17
-16 31 -21 31 -5 0 6 22 25 50 28 41 56 120 56 160 0 19 -49 9 -106 -21z"/>
<path d="M6356 11613 c-2 -10 -7 -43 -11 -73 -3 -30 -18 -97 -32 -148 -32
-118 -22 -134 36 -57 23 30 46 55 51 55 4 0 11 -15 15 -32 12 -58 16 -68 31
-68 17 0 17 8 3 68 -12 48 -25 72 -39 72 -5 0 -22 -12 -39 -26 l-31 -26 10 27
c13 34 39 207 33 218 -8 13 -21 8 -27 -10z"/>
<path d="M10913 11618 c-5 -7 -28 -58 -50 -113 -81 -199 -78 -242 13 -175 l41
29 16 -34 c19 -39 31 -42 119 -25 78 16 128 32 128 43 0 10 -80 2 -140 -14
-52 -13 -68 -11 -80 11 -8 15 -5 33 15 79 14 33 25 65 25 71 0 26 -29 4 -65
-50 -39 -59 -95 -111 -95 -89 0 6 23 68 50 137 28 69 46 130 42 134 -5 5 -13
3 -19 -4z"/>
<path d="M14890 11612 c0 -20 27 -25 72 -16 66 14 59 32 -11 30 -42 -1 -61 -5
-61 -14z"/>
<path d="M13678 11595 c-25 -14 -50 -34 -53 -46 -10 -30 2 -35 28 -12 24 23
60 43 75 43 32 0 -66 -173 -108 -190 -34 -14 -59 -65 -41 -83 10 -9 20 -4 47
26 19 20 39 37 45 37 5 0 17 -16 25 -35 15 -37 42 -46 63 -21 13 15 -1 32 -18
22 -5 -3 -14 8 -20 24 -5 17 -15 30 -20 30 -18 0 -12 20 24 78 44 71 53 113
30 135 -21 21 -20 21 -77 -8z"/>
<path d="M14782 11595 c-22 -28 -90 -197 -94 -235 -2 -16 3 -25 15 -28 12 -2
17 3 17 19 0 27 41 142 75 208 27 54 19 77 -13 36z"/>
<path d="M12677 11581 c-23 -39 -70 -237 -62 -262 10 -31 29 -17 31 22 4 51
43 200 60 226 17 28 18 43 1 43 -7 0 -20 -13 -30 -29z"/>
<path d="M6830 11581 c0 -22 15 -35 29 -27 13 9 1 46 -15 46 -8 0 -14 -9 -14
-19z"/>
<path d="M13394 11589 c-10 -5 -30 -17 -44 -28 -19 -15 -22 -23 -13 -32 9 -9
15 -8 28 5 25 25 64 31 83 13 14 -15 13 -20 -13 -56 -25 -37 -64 -76 -139
-138 -25 -21 -28 -43 -6 -43 4 0 27 16 50 35 23 19 46 35 50 35 5 0 14 -16 20
-35 11 -33 40 -53 60 -40 17 10 11 35 -7 35 -11 1 -25 16 -35 37 l-17 36 35
41 c19 22 37 51 40 63 12 48 -44 91 -92 72z"/>
<path d="M12855 11551 c-17 -3 -30 -13 -30 -21 0 -8 5 -14 10 -13 97 15 105
15 105 0 0 -8 -36 -51 -80 -95 -44 -44 -80 -87 -80 -95 0 -11 21 -15 92 -20
83 -5 123 1 106 18 -3 3 -38 9 -78 12 l-71 6 64 66 c78 79 92 103 77 131 -11
21 -51 25 -115 11z"/>
<path d="M2814 11526 c-3 -8 1 -25 10 -38 9 -12 16 -32 16 -44 0 -32 -38 -76
-64 -72 -17 2 -21 10 -21 40 0 52 -11 56 -51 17 l-36 -34 7 43 c4 27 3 42 -4
42 -28 0 -42 -88 -17 -109 10 -8 19 -6 40 10 21 16 26 17 26 5 0 -48 72 -61
114 -19 34 33 40 61 30 120 -9 49 -38 71 -50 39z"/>
<path d="M2280 11503 c-17 -12 -25 -13 -28 -5 -2 7 -9 12 -16 12 -9 0 -13 -16
-14 -47 0 -27 -2 -65 -4 -85 -4 -50 14 -51 30 -2 25 72 45 104 64 104 17 0 18
-6 12 -75 -6 -63 -4 -75 8 -75 12 0 17 18 23 77 7 72 6 78 -15 95 -27 22 -30
22 -60 1z"/>
<path d="M7621 11493 c-17 -23 -20 -25 -21 -10 0 39 -24 8 -41 -54 -22 -78
-22 -79 -6 -79 6 0 29 27 50 60 34 53 41 59 63 54 28 -7 30 2 8 34 -20 29 -28
28 -53 -5z"/>
<path d="M7847 11513 c-4 -3 -7 -15 -7 -26 0 -19 -63 -87 -80 -87 -5 0 -13 14
-18 32 -12 48 -37 51 -29 3 12 -73 41 -82 101 -33 39 32 72 91 61 108 -7 12
-19 13 -28 3z"/>
<path d="M8094 11477 c-53 -53 -60 -96 -19 -123 43 -28 134 -8 135 30 0 4 -10
5 -22 1 -49 -15 -79 -17 -93 -5 -20 17 -19 25 4 27 11 1 38 13 61 28 34 21 41
31 38 53 -2 21 -9 28 -31 30 -22 3 -38 -6 -73 -41z m51 -12 c-16 -14 -34 -25
-40 -25 -5 1 4 12 20 25 17 14 35 25 40 25 6 -1 -3 -12 -20 -25z"/>
<path d="M3550 11475 c-5 -14 -13 -37 -16 -51 -8 -30 -100 -134 -120 -134 -8
0 -14 -7 -14 -15 0 -26 33 -16 73 21 32 30 37 33 37 15 0 -45 44 -31 102 33
l28 30 0 -39 c0 -22 4 -46 9 -53 12 -19 55 -11 59 11 3 15 0 18 -18 12 -22 -7
-22 -6 -15 69 8 90 -5 100 -49 38 -14 -21 -40 -52 -57 -68 l-31 -29 8 30 c4
17 15 48 25 70 10 22 19 50 19 63 0 30 -28 28 -40 -3z"/>
<path d="M3799 11488 c-1 -7 -1 -16 0 -20 0 -5 -5 -7 -11 -5 -27 5 -20 -54 12
-104 34 -52 34 -71 0 -89 -16 -9 -21 -8 -26 5 -9 23 -31 18 -30 -6 3 -58 100
-40 113 21 6 31 6 31 27 12 34 -31 62 -42 110 -42 49 0 86 24 67 43 -8 8 -15
7 -23 -1 -19 -19 -79 -14 -116 8 -44 27 -39 51 12 56 39 3 86 27 86 44 0 16
-44 40 -73 40 -37 0 -74 -38 -83 -85 l-7 -37 -28 44 c-33 48 -36 70 -14 88 8
7 15 19 15 26 0 17 -30 19 -31 2z m171 -78 c0 -5 -12 -10 -26 -10 -14 0 -23 4
-19 10 3 6 15 10 26 10 10 0 19 -4 19 -10z"/>
<path d="M4863 11488 c-8 -14 8 -28 31 -28 15 0 26 7 29 20 4 16 0 19 -25 17
-16 -1 -32 -5 -35 -9z"/>
<path d="M9980 11473 c-59 -41 -79 -105 -43 -134 33 -28 211 -6 200 24 -5 13
-6 13 -86 -3 -95 -20 -133 21 -70 74 35 29 40 31 57 14 9 -9 15 -9 25 1 10 10
8 15 -7 27 -26 19 -46 18 -76 -3z"/>
<path d="M2430 11454 c-15 -38 -12 -87 6 -112 22 -31 77 -30 109 3 33 32 31
57 -6 100 -49 56 -72 40 -24 -17 14 -16 25 -33 25 -38 0 -17 -32 -40 -56 -40
-30 0 -42 39 -25 85 14 41 14 45 -4 45 -9 0 -20 -12 -25 -26z"/>
<path d="M10626 11427 c-51 -48 -56 -67 -25 -98 18 -18 28 -20 67 -14 53 8 82
21 82 36 0 9 -88 3 -99 -7 -2 -2 -12 1 -22 7 -26 13 -13 37 40 73 39 27 45 46
17 46 -7 0 -34 -19 -60 -43z"/>
<path d="M6090 11439 c-41 -23 -80 -76 -80 -106 0 -11 9 -28 20 -38 16 -15 30
-16 87 -10 72 7 122 30 105 47 -6 6 -16 6 -28 0 -11 -5 -47 -13 -81 -17 -53
-6 -64 -4 -69 9 -8 22 20 62 59 86 28 17 34 18 54 5 29 -19 33 -19 33 3 0 11
-11 24 -25 30 -33 15 -34 15 -75 -9z"/>
<path d="M6752 11448 c-5 -7 -16 -41 -23 -75 -11 -51 -11 -65 0 -75 20 -21 37
13 35 69 -1 26 3 54 9 61 7 9 7 16 0 23 -7 7 -13 6 -21 -3z"/>
<path d="M6531 11415 c-17 -20 -31 -47 -31 -60 0 -21 5 -25 29 -25 16 0 41 4
55 10 21 8 26 6 31 -11 9 -26 58 -23 63 4 3 15 0 18 -17 12 -19 -6 -21 -4 -16
18 9 35 -8 41 -49 16 -19 -11 -43 -19 -53 -17 -15 4 -12 10 19 40 20 20 34 38
31 42 -14 13 -32 4 -62 -29z"/>
<path d="M6852 11383 c-30 -32 -40 -49 -32 -57 7 -7 23 3 53 32 23 23 46 42
50 42 4 0 5 -16 1 -35 -4 -22 -2 -35 5 -35 15 0 31 34 31 69 0 28 -3 31 -33
31 -26 0 -41 -9 -75 -47z"/>
<path d="M13877 11372 c-18 -19 -23 -42 -9 -42 17 1 54 38 48 49 -10 16 -20
14 -39 -7z"/>
<path d="M13050 11266 c0 -17 27 -29 35 -16 4 6 3 15 0 20 -9 15 -35 12 -35
-4z"/>
<path d="M10694 11221 c-65 -30 -103 -102 -104 -198 0 -20 -5 -33 -12 -33 -35
0 -85 -21 -85 -36 0 -11 7 -14 24 -10 13 3 34 9 48 12 32 8 34 -17 5 -63 -21
-36 -52 -55 -78 -51 -10 2 -17 -3 -17 -12 0 -23 42 -24 79 -1 32 20 63 73 68
120 2 18 13 28 42 38 45 15 52 12 37 -15 -11 -20 -6 -52 8 -52 10 0 53 108 47
119 -4 6 -27 3 -63 -10 -31 -10 -60 -19 -65 -19 -14 0 3 103 23 136 12 19 36
39 59 48 42 17 65 14 74 -10 6 -16 36 -19 36 -4 0 18 -48 60 -67 60 -10 0 -36
-9 -59 -19z"/>
<path d="M7470 11182 c-28 -27 -50 -43 -50 -36 0 7 5 16 10 19 16 10 12 37 -6
33 -10 -2 -27 -34 -44 -86 -19 -53 -50 -112 -86 -163 -43 -61 -54 -83 -45 -92
15 -15 41 16 120 143 91 146 201 244 201 180 0 -24 -38 -101 -91 -186 -63 -99
-46 -115 36 -34 28 28 53 50 56 50 14 0 18 -32 7 -49 -15 -25 -4 -49 29 -62
29 -11 150 -15 160 -6 14 15 -14 27 -65 27 -69 0 -104 9 -99 24 2 6 20 13 40
16 34 5 87 40 87 59 0 5 -7 15 -16 22 -14 11 -22 10 -57 -9 -36 -20 -42 -21
-57 -7 -19 17 -42 19 -56 5 -6 -6 8 26 29 70 35 69 39 83 29 105 -9 20 -19 25
-47 25 -28 0 -45 -9 -85 -48z m205 -182 c-3 -5 -12 -10 -18 -10 -7 0 -6 4 3
10 19 12 23 12 15 0z"/>
<path d="M8988 11210 c-52 -28 -92 -81 -119 -161 -21 -61 -27 -69 -49 -69 -40
0 -70 -11 -70 -25 0 -9 13 -12 45 -8 25 2 45 1 45 -4 0 -4 -5 -28 -11 -53 -12
-54 -33 -74 -61 -59 -22 12 -52 4 -43 -11 3 -5 25 -15 48 -21 38 -10 43 -9 59
11 9 12 23 48 29 81 9 45 16 59 29 59 23 0 80 29 80 41 0 13 -37 11 -60 -3
-28 -18 -32 -7 -15 43 9 24 14 52 11 62 -3 11 2 21 12 24 22 9 42 35 35 47 -4
5 -1 6 5 2 7 -4 22 0 34 8 28 20 54 20 62 1 7 -19 36 -20 36 -2 0 15 -41 57
-56 57 -5 -1 -25 -10 -46 -20z"/>
<path d="M11440 11204 c-6 -14 -7 -30 -4 -36 4 -7 2 -8 -4 -4 -7 4 -19 -16
-32 -53 l-22 -59 -59 -11 c-49 -10 -59 -15 -59 -33 0 -15 4 -18 18 -13 9 4 32
11 50 15 25 6 32 5 32 -6 0 -18 -35 -88 -63 -127 -13 -20 -16 -32 -9 -39 13
-13 62 54 93 127 12 30 31 57 41 61 10 3 18 12 18 21 0 9 -6 13 -15 9 -20 -7
-20 -8 19 81 19 42 32 81 30 85 -10 15 -25 8 -34 -18z"/>
<path d="M4110 11193 c-42 -30 -67 -65 -115 -160 -26 -53 -53 -93 -61 -93 -16
0 -18 -12 -4 -26 6 -6 6 -22 0 -44 -13 -46 -13 -50 4 -50 9 0 20 19 28 48 13
44 17 48 60 62 50 16 76 35 65 47 -4 4 -23 1 -43 -6 -20 -7 -38 -10 -42 -7 -9
10 53 129 89 170 21 25 37 35 49 31 20 -6 45 19 35 35 -9 15 -37 12 -65 -7z"/>
<path d="M5942 11153 c-11 -27 -25 -67 -31 -89 -12 -46 -22 -57 -65 -71 -43
-13 -48 -38 -7 -30 17 4 31 2 31 -3 0 -20 -33 -106 -47 -122 -10 -12 -11 -18
-3 -23 19 -12 46 26 70 98 23 72 18 69 98 67 4 0 7 -23 7 -50 0 -27 4 -50 8
-50 4 0 12 0 17 0 6 0 10 28 10 65 0 61 -2 65 -25 71 -14 3 -37 3 -51 0 -25
-7 -26 -5 -19 21 3 15 17 55 30 87 23 56 24 76 6 76 -5 0 -18 -21 -29 -47z"/>
<path d="M4245 11170 c-9 -10 -32 -57 -51 -102 -21 -52 -41 -86 -54 -92 -23
-10 -27 -33 -5 -38 12 -2 10 -14 -10 -63 -14 -33 -23 -66 -20 -72 6 -18 35
-16 35 3 0 8 10 44 22 79 19 54 27 64 50 69 20 4 28 12 28 26 0 25 -15 26 -29
3 -10 -17 -10 -17 -11 -1 0 23 36 120 55 144 13 17 16 17 26 4 9 -13 10 -12 5
3 -3 11 0 17 10 17 12 0 12 4 4 20 -14 25 -32 25 -55 0z"/>
<path d="M11654 11175 c-3 -8 -3 -19 1 -25 11 -18 25 -11 25 15 0 27 -17 34
-26 10z"/>
<path d="M5322 11118 c-16 -35 -32 -73 -36 -85 -5 -15 -18 -24 -42 -29 -33 -6
-54 -27 -41 -41 3 -3 19 -1 35 5 l29 10 -18 -60 c-22 -69 -24 -101 -7 -96 6 2
22 39 35 81 l24 77 59 0 c47 0 60 3 60 15 0 20 -27 30 -43 17 -6 -6 -24 -8
-39 -5 -26 5 -26 6 -13 42 7 20 23 54 34 75 19 37 20 56 1 56 -5 0 -22 -28
-38 -62z"/>
<path d="M9667 11174 c-4 -4 -7 -18 -7 -31 0 -13 -11 -55 -25 -94 -25 -73 -42
-180 -31 -198 15 -24 31 2 33 54 0 30 12 88 26 128 29 82 37 139 21 144 -5 2
-13 0 -17 -3z"/>
<path d="M6160 11115 c0 -18 24 -30 39 -21 16 10 1 36 -20 36 -10 0 -19 -7
-19 -15z"/>
<path d="M2435 11099 c-5 -6 -11 -62 -14 -124 -5 -96 -9 -118 -28 -144 -26
-34 -28 -52 -11 -69 35 -35 130 13 147 75 15 52 -8 87 -51 81 l-29 -5 5 76 c3
42 6 85 8 95 3 22 -17 33 -27 15z m65 -238 c0 -33 -20 -58 -57 -72 -42 -16
-42 -10 -6 46 40 61 63 71 63 26z"/>
<path d="M3750 11067 c0 -23 -8 -58 -19 -77 -17 -32 -21 -34 -59 -31 -30 2
-50 -3 -70 -18 -52 -37 -73 -111 -35 -125 38 -15 150 79 192 163 25 49 29 131
6 131 -11 0 -15 -11 -15 -43z m-60 -142 c0 -7 -92 -75 -101 -75 -18 0 -8 31
16 55 15 16 36 25 55 25 16 0 30 -2 30 -5z"/>
<path d="M5507 11093 c-14 -13 -6 -34 16 -42 31 -13 45 4 22 29 -19 21 -28 24
-38 13z"/>
<path d="M9042 11074 c3 -19 34 -41 43 -32 4 4 4 16 0 27 -8 25 -48 29 -43 5z"/>
<path d="M11452 11058 c5 -15 28 -18 29 -3 0 6 -7 12 -17 13 -10 3 -15 -1 -12
-10z"/>
<path d="M11882 11040 c-23 -16 -48 -30 -56 -30 -14 0 -66 -71 -66 -90 0 -15
28 -12 37 4 12 20 123 110 129 104 2 -3 0 -17 -6 -32 -25 -67 -2 -126 49 -126
35 0 128 29 141 45 19 23 -3 24 -60 5 -104 -36 -123 -21 -95 75 9 31 13 60 10
65 -11 18 -41 10 -83 -20z"/>
<path d="M11728 11054 c-3 -3 -4 -22 -1 -43 6 -43 -5 -56 -59 -66 -28 -5 -38
-4 -38 5 0 19 32 39 63 40 30 0 35 11 12 30 -19 16 -84 -16 -105 -52 -12 -23
-12 -28 0 -43 11 -14 24 -16 63 -11 72 8 97 28 97 75 0 57 -13 84 -32 65z"/>
<path d="M3860 11031 c0 -11 5 -23 12 -27 7 -4 8 -3 4 4 -4 7 -2 12 3 12 6 0
11 7 11 15 0 8 -7 15 -15 15 -8 0 -15 -9 -15 -19z"/>
<path d="M15567 11043 c-10 -9 -8 -25 2 -42 8 -13 15 -12 45 4 38 21 51 17 42
-13 -7 -20 -84 -62 -153 -82 -48 -15 -78 -42 -70 -64 5 -12 31 -15 119 -18
113 -3 136 1 124 21 -5 7 -47 11 -109 12 l-102 0 50 18 c62 22 134 58 158 79
22 19 23 78 1 86 -25 9 -62 7 -69 -4 -5 -8 -11 -8 -19 -1 -7 6 -16 8 -19 4z"/>
<path d="M4595 11011 c-43 -26 -66 -55 -74 -93 -13 -55 10 -78 40 -42 10 13
10 17 -1 24 -33 21 28 86 92 99 17 4 33 12 36 19 6 19 -59 15 -93 -7z"/>
<path d="M11546 11012 c-18 -30 -44 -118 -37 -125 15 -15 28 0 41 48 7 25 17
48 21 51 14 9 10 34 -5 34 -8 0 -17 -3 -20 -8z"/>
<path d="M4756 10970 c-24 -37 -56 -54 -56 -30 0 6 -7 10 -15 10 -8 0 -15 -4
-15 -9 0 -25 14 -41 36 -41 20 0 24 -5 24 -30 0 -19 6 -33 16 -37 23 -9 69 10
69 27 0 15 -7 16 -37 5 -28 -11 -23 34 6 64 23 25 30 41 27 69 -2 24 -29 11
-55 -28z"/>
<path d="M10780 10966 c-21 -49 -55 -75 -73 -57 -16 16 -27 13 -27 -8 0 -32
25 -44 57 -28 34 18 55 41 77 86 20 42 20 51 1 51 -9 0 -24 -19 -35 -44z"/>
<path d="M4344 10965 c-18 -20 -39 -54 -45 -75 -11 -35 -10 -42 6 -60 29 -32
155 -24 155 10 0 5 -27 7 -65 3 l-65 -6 0 30 c0 25 6 33 40 48 55 25 77 50 60
70 -20 24 -50 17 -86 -20z"/>
<path d="M5562 10956 c-71 -77 -51 -116 36 -72 l50 25 0 -35 c0 -44 6 -50 40
-38 33 12 46 50 13 39 -18 -5 -21 -2 -21 25 0 41 -22 48 -76 22 -52 -26 -55
-20 -12 25 22 23 29 36 22 43 -8 8 -24 -3 -52 -34z"/>
<path d="M6454 10964 c-41 -43 -48 -94 -13 -94 12 0 41 13 65 30 l44 29 0 -35
c0 -19 -5 -55 -11 -78 -10 -41 -14 -44 -50 -50 -78 -12 -145 -109 -104 -149
28 -29 69 -21 104 18 17 20 38 51 46 70 14 35 14 35 78 35 55 0 68 4 92 26 35
33 20 54 -17 24 -36 -27 -134 -30 -123 -2 25 63 11 192 -21 192 -8 0 -14 5
-14 10 0 23 -45 8 -76 -26z m66 -3 c0 -13 -61 -63 -68 -56 -6 6 48 65 60 65 4
0 8 -4 8 -9z m-10 -234 c0 -25 -59 -97 -79 -97 -29 0 -34 16 -16 50 21 40 95
76 95 47z"/>
<path d="M8984 10945 c-31 -71 -32 -105 -3 -105 16 0 19 4 15 17 -7 18 23 113
36 113 4 0 8 7 8 15 0 35 -33 12 -56 -40z"/>
<path d="M10928 10986 c-16 -8 -34 -18 -40 -23 -7 -4 -20 -6 -28 -5 -19 3 -66
-86 -53 -99 5 -5 34 15 66 46 57 55 86 71 71 38 -13 -31 -10 -78 5 -78 14 0
19 18 24 89 2 45 -7 52 -45 32z"/>
<path d="M11115 10983 c-43 -22 -85 -64 -85 -85 0 -29 43 -43 97 -32 26 5 49
15 51 23 4 11 -6 12 -51 7 -32 -4 -58 -3 -61 2 -7 12 57 62 78 62 16 0 22 25
8 33 -4 3 -21 -2 -37 -10z"/>
<path d="M4981 10966 c-13 -13 -30 -22 -40 -19 -18 5 -51 -51 -51 -87 0 -29
23 -24 42 8 20 33 86 98 93 91 2 -3 0 -21 -5 -40 -14 -47 -12 -69 3 -69 16 0
41 98 31 123 -9 25 -47 21 -73 -7z"/>
<path d="M9337 10950 c-50 -32 -74 -68 -64 -94 8 -20 53 -20 87 -1 34 19 42
18 35 -4 -3 -10 1 -24 10 -31 26 -22 31 -7 36 104 2 28 -21 56 -45 56 -6 0
-33 -14 -59 -30z m68 -29 c-8 -13 -79 -51 -96 -51 -16 0 19 38 56 61 29 18 54
12 40 -10z"/>
<path d="M5410 10909 c-17 -44 -20 -63 -12 -71 14 -14 14 -15 40 55 26 69 27
77 8 77 -7 0 -24 -27 -36 -61z"/>
<path d="M9134 10960 c-25 -10 -114 -109 -114 -127 0 -7 7 -13 15 -13 8 0 15
4 15 9 0 14 85 101 99 101 10 0 12 -11 7 -45 -5 -28 -3 -45 3 -45 28 0 43 94
19 118 -14 14 -15 14 -44 2z"/>
<path d="M6193 10931 c-49 -35 -97 -96 -88 -111 12 -20 36 -10 46 20 12 33 82
90 112 90 17 0 17 -3 -6 -45 -23 -41 -22 -65 3 -50 20 12 51 86 45 106 -10 30
-64 25 -112 -10z"/>
<path d="M2661 10921 c-6 -10 -22 -26 -37 -36 -14 -9 -24 -12 -20 -7 12 19
-17 25 -31 7 -15 -22 -16 -34 -4 -54 8 -12 13 -12 35 2 31 21 36 21 36 2 0 -8
-4 -15 -8 -15 -17 0 -95 -182 -96 -223 -1 -54 20 -59 27 -6 3 23 27 85 53 138
56 115 85 191 78 202 -9 14 -23 10 -33 -10z"/>
<path d="M3761 10867 c-16 -20 -18 -59 -4 -64 7 -3 16 4 19 14 3 10 10 26 15
35 5 10 9 20 9 23 0 10 -28 5 -39 -8z"/>
<path d="M12799 10598 c-1 -7 0 -25 1 -39 0 -14 -5 -44 -13 -68 -15 -41 -14
-42 6 -39 25 4 40 50 35 111 -3 37 -27 66 -29 35z"/>
<path d="M12945 10590 c-3 -11 -24 -39 -47 -62 -48 -51 -135 -177 -140 -203
-7 -41 21 -22 56 37 20 35 64 94 96 131 33 38 58 73 55 78 -4 5 -1 9 4 9 6 0
11 7 11 15 0 22 -28 18 -35 -5z"/>
<path d="M6694 10473 c-9 -15 -17 -33 -17 -40 0 -7 -3 -13 -7 -13 -4 0 -30
-36 -59 -81 -53 -84 -65 -123 -33 -117 9 2 17 10 17 18 0 15 103 187 132 221
7 8 13 21 13 27 0 22 -27 12 -46 -15z"/>
<path d="M6466 10471 c-29 -6 -56 -35 -44 -46 3 -4 15 -2 25 3 29 15 73 23 73
14 0 -5 -15 -24 -34 -42 -38 -37 -38 -63 0 -54 35 9 45 -23 15 -48 -29 -23
-101 -25 -101 -3 0 20 -19 19 -26 0 -16 -42 75 -62 135 -30 43 22 55 70 25 99
-14 15 -14 19 6 51 34 55 9 74 -74 56z"/>
<path d="M12943 10430 c-18 -11 -33 -27 -33 -35 0 -21 17 -19 47 5 31 24 43
25 43 3 0 -27 -49 -90 -86 -112 -35 -21 -46 -51 -19 -51 8 0 24 6 35 12 16 10
25 9 50 -6 55 -32 133 -2 80 31 -16 11 -21 10 -29 -4 -8 -16 -11 -16 -35 1
l-26 17 24 32 c72 95 39 163 -51 107z"/>
<path d="M7928 10413 c-60 -3 -78 -7 -78 -18 0 -14 16 -20 50 -17 31 3 156 5
180 3 48 -3 50 -9 35 -106 -10 -61 -15 -168 -15 -331 0 -132 -3 -288 -6 -346
l-7 -105 -112 -13 c-61 -7 -135 -11 -163 -8 -62 6 -84 -4 -61 -27 19 -19 160
-22 263 -5 33 5 70 9 81 7 18 -2 21 6 26 93 4 52 7 219 8 370 1 260 6 325 37
461 6 26 4 27 -58 38 -36 6 -73 10 -84 9 -10 -1 -54 -4 -96 -5z"/>
<path d="M6784 10386 c-31 -14 -49 -40 -38 -57 10 -16 32 -10 37 11 4 15 14
20 36 20 28 0 31 -3 31 -29 0 -33 -53 -86 -102 -103 -38 -13 -31 -30 16 -42
29 -6 47 -5 73 8 18 9 42 16 52 16 10 0 22 8 25 17 13 32 -11 35 -62 9 -60
-31 -81 -34 -35 -6 66 40 88 116 44 152 -27 21 -36 22 -77 4z"/>
<path d="M11054 10336 c-97 -65 -140 -140 -171 -296 -24 -122 -7 -244 58 -426
23 -61 44 -98 77 -136 60 -66 138 -128 163 -128 28 0 23 27 -5 34 -14 3 -58
39 -99 79 -65 63 -78 82 -104 152 -67 177 -83 333 -49 472 26 106 68 169 146
221 36 24 67 48 68 53 8 20 -36 7 -84 -25z"/>
<path d="M12555 10340 c-8 -14 3 -30 21 -30 25 0 128 -113 156 -172 34 -70 58
-158 58 -216 0 -138 -72 -316 -160 -395 -45 -41 -58 -47 -96 -47 -52 0 -63
-25 -14 -32 133 -20 300 245 300 474 0 144 -87 315 -203 399 -43 31 -53 34
-62 19z"/>
<path d="M3563 10293 c3 -21 13 -71 21 -112 15 -71 14 -117 -3 -106 -5 2 -29
-2 -55 -11 -48 -16 -80 -50 -91 -96 -14 -54 61 -88 113 -52 30 21 68 99 77
156 4 25 2 70 -5 101 -11 57 -17 95 -19 135 -1 15 -7 22 -22 22 -19 0 -20 -4
-16 -37z m15 -283 c-12 -33 -58 -80 -78 -80 -23 0 -39 20 -33 39 15 41 58 71
99 68 19 -1 21 -4 12 -27z"/>
<path d="M4039 10249 c-21 -21 -22 -27 -15 -168 6 -119 9 -450 4 -511 -1 -8 0
-37 0 -64 l2 -49 55 7 c78 9 124 33 97 50 -5 3 -30 -1 -57 -9 -26 -8 -52 -15
-57 -15 -5 0 -8 107 -7 238 1 130 -1 292 -6 359 -10 158 -11 155 109 152 58
-2 91 1 93 8 5 15 -32 23 -119 23 -66 0 -81 -3 -99 -21z"/>
<path d="M9555 10245 c-22 -13 -49 -28 -60 -33 -28 -13 -58 -49 -51 -60 3 -6
36 10 73 34 37 24 70 44 74 44 4 0 5 -10 1 -22 -5 -22 -64 -84 -148 -154 -51
-43 -55 -67 -7 -43 16 7 31 15 35 17 4 2 7 -13 6 -33 -1 -22 4 -41 13 -46 16
-11 135 -1 162 13 32 16 19 30 -23 24 -22 -3 -58 -9 -80 -12 l-40 -6 0 49 c0
45 4 52 50 98 51 50 79 108 67 139 -9 22 -25 20 -72 -9z"/>
<path d="M11557 10259 c-25 -15 -50 -66 -35 -75 6 -4 17 1 24 12 24 35 35 44
49 44 8 0 15 -5 15 -10 0 -12 -85 -97 -121 -122 -18 -12 -21 -19 -13 -28 9 -9
17 -8 33 2 22 13 22 13 87 -29 18 -12 25 -10 55 10 37 25 51 57 24 57 -8 0
-18 -6 -21 -14 -9 -23 -34 -27 -64 -10 l-28 17 45 58 c53 68 54 93 3 96 -19 2
-43 -2 -53 -8z"/>
<path d="M6370 10205 c0 -9 10 -19 23 -24 71 -28 180 -166 198 -252 21 -96
-10 -220 -82 -334 -27 -43 -32 -46 -66 -43 -44 3 -56 -17 -18 -32 58 -22 118
43 174 190 49 125 41 236 -22 330 -33 50 -127 150 -140 150 -5 0 -15 7 -23 15
-20 19 -44 19 -44 0z"/>
<path d="M10376 10211 c-10 -16 26 -29 62 -24 40 7 41 -2 2 -22 -36 -19 -33
-30 11 -39 41 -8 59 -23 59 -50 0 -30 -18 -46 -51 -46 -38 0 -59 10 -59 26 0
8 -7 14 -15 14 -8 0 -15 -8 -15 -18 0 -52 100 -74 145 -32 36 34 37 67 3 106
l-30 34 36 17 c20 9 35 22 33 27 -5 14 -173 20 -181 7z"/>
<path d="M5556 10177 c-19 -14 -19 -48 0 -54 6 -2 14 5 17 17 3 11 12 20 21
20 26 0 18 -16 -24 -50 -42 -34 -50 -54 -24 -64 20 -8 72 -8 102 0 39 11 18
29 -29 26 l-44 -4 39 40 c29 30 36 45 31 61 -8 25 -60 29 -89 8z"/>
<path d="M5056 10136 c-89 -96 -136 -379 -81 -486 21 -40 60 -56 156 -63 85
-7 119 -1 119 19 0 19 -39 18 -47 -2 -4 -11 -8 -12 -13 -4 -4 7 -41 16 -81 20
-61 7 -77 13 -95 34 -46 53 -41 208 12 368 29 87 66 128 115 128 19 0 29 5 29
15 0 11 -11 15 -37 15 -30 0 -43 -7 -77 -44z"/>
<path d="M4613 10130 c-28 -17 -53 -47 -53 -64 0 -15 29 -3 49 20 12 14 27 24
34 21 44 -14 -18 -119 -83 -138 -47 -14 -79 -44 -63 -60 8 -8 18 -6 35 5 22
14 29 14 92 -8 75 -26 108 -23 142 15 26 29 3 48 -25 20 -23 -23 -53 -26 -100
-10 -38 13 -38 19 -5 50 56 52 69 112 31 147 -23 21 -23 21 -54 2z"/>
<path d="M7645 10102 c-16 -11 -56 -45 -88 -77 -85 -85 -109 -183 -55 -232 43
-38 248 -12 248 31 0 18 -11 21 -25 7 -19 -19 -132 -35 -172 -25 -34 8 -38 13
-41 44 -6 63 14 104 84 169 36 34 69 59 75 56 5 -4 9 -22 9 -41 0 -28 4 -35
18 -32 23 4 26 38 8 82 -17 41 -20 42 -61 18z"/>
<path d="M13625 10080 c-11 -4 -33 -22 -49 -39 -22 -23 -27 -34 -19 -42 9 -9
20 -4 43 20 34 33 80 42 80 15 0 -25 -115 -167 -152 -188 -76 -43 -157 -102
-158 -113 0 -24 37 -13 93 27 30 22 57 40 60 40 2 0 2 -22 -1 -48 -3 -36 0
-53 13 -65 15 -16 19 -15 57 4 56 29 94 67 79 82 -8 8 -18 4 -38 -15 -34 -31
-72 -52 -81 -43 -3 3 -1 30 5 59 9 42 25 71 78 136 92 114 102 150 48 171 -28
11 -31 10 -58 -1z"/>
<path d="M5894 10038 c3 -18 2 -49 -2 -68 -6 -28 -13 -36 -37 -40 -39 -7 -41
-36 -2 -32 24 2 27 -1 27 -25 0 -35 14 -58 29 -49 7 5 9 20 5 41 -6 33 -5 34
22 32 24 -2 30 2 32 22 3 20 0 23 -21 19 -25 -5 -25 -4 -23 61 1 56 -2 66 -17
69 -16 3 -17 -1 -13 -30z"/>
<path d="M6297 9988 c-11 -132 -9 -178 7 -178 10 0 15 29 20 120 4 66 4 124 1
130 -15 24 -22 5 -28 -72z"/>
<path d="M12415 10029 c4 -17 1 -75 -5 -128 -10 -76 -10 -102 -1 -120 7 -12
18 -20 24 -18 14 4 17 37 6 53 -5 5 -3 50 3 100 12 97 6 144 -18 144 -12 0
-14 -7 -9 -31z"/>
<path d="M7095 10039 c-4 -5 -2 -22 4 -37 7 -16 8 -39 3 -57 -7 -24 -15 -31
-38 -33 -58 -5 -74 -12 -74 -32 0 -21 15 -27 25 -10 9 15 75 13 75 -2 0 -26
-23 -93 -34 -100 -15 -10 8 -32 26 -25 14 5 38 88 38 128 0 14 10 20 40 25 52
9 57 38 5 32 l-34 -4 6 42 c7 56 -21 107 -42 73z"/>
<path d="M11907 10013 c-3 -5 -11 -36 -17 -70 -12 -61 -14 -63 -44 -63 -17 0
-37 -4 -45 -9 -24 -16 -2 -29 39 -24 37 5 40 4 40 -18 0 -13 4 -30 9 -38 14
-22 31 -3 28 31 -2 30 -2 31 50 32 70 1 72 19 4 29 l-53 9 6 58 c4 35 3 61 -3
64 -5 4 -12 3 -14 -1z"/>
<path d="M8745 9999 c-16 -5 -55 -8 -85 -7 -43 2 -55 0 -55 -12 0 -11 14 -16
57 -18 69 -4 138 13 138 33 0 17 -11 18 -55 4z"/>
<path d="M5362 9960 l-22 -39 -25 24 c-13 14 -36 25 -50 25 -22 0 -26 -4 -23
-22 2 -15 10 -23 23 -23 49 0 60 -38 20 -75 -24 -22 -26 -23 -44 -6 -28 25
-45 11 -25 -20 18 -27 49 -31 77 -9 16 12 21 11 38 -6 23 -23 78 -25 119 -4
39 20 40 40 3 29 -16 -4 -44 -8 -63 -8 -48 -1 -51 27 -11 100 28 52 32 74 13
74 -4 0 -17 -18 -30 -40z"/>
<path d="M11220 9987 c0 -8 9 -22 20 -32 39 -36 20 -95 -44 -134 -42 -26 -46
-26 -46 0 0 12 -5 19 -12 17 -7 -3 -13 -18 -13 -34 0 -38 32 -44 81 -14 32 21
36 21 53 6 26 -24 95 -21 131 6 17 12 30 25 30 30 0 13 -35 9 -56 -7 -10 -8
-34 -15 -51 -15 -26 0 -33 4 -33 19 0 25 48 113 71 129 10 7 19 17 19 23 0 18
-31 9 -55 -16 l-23 -26 -22 31 c-22 31 -50 40 -50 17z"/>
<path d="M13825 9961 c-3 -6 4 -15 15 -21 11 -6 27 -22 36 -35 15 -23 15 -27
0 -50 -22 -33 -72 -58 -102 -51 -19 5 -24 2 -24 -13 0 -29 27 -33 77 -11 40
17 47 18 57 5 22 -28 126 -50 126 -25 0 5 9 9 19 7 11 -1 19 3 18 8 -1 6 -27
10 -58 10 -56 0 -89 15 -89 40 0 7 18 33 40 58 22 25 40 48 40 51 0 14 -40 5
-48 -11 -9 -15 -14 -13 -46 15 -38 34 -51 38 -61 23z"/>
<path d="M10184 9948 c-9 -14 20 -35 66 -48 42 -12 160 -12 250 -1 158 20 250
36 250 44 0 18 -39 19 -134 4 -198 -34 -396 -32 -396 3 0 14 -27 12 -36 -2z"/>
<path d="M10056 9926 c-22 -34 -21 -38 12 -34 21 2 27 8 27 27 0 34 -19 37
-39 7z"/>
<path d="M13132 9926 c-33 -19 -34 -21 -21 -50 15 -32 29 -33 55 -3 40 44 16
80 -34 53z"/>
<path d="M8633 9893 c-48 -3 -63 -8 -63 -19 0 -12 17 -14 105 -12 70 2 105 7
105 14 0 15 -25 24 -58 22 -15 -1 -55 -3 -89 -5z"/>
<path d="M9443 9889 c-134 -3 -246 -8 -249 -12 -4 -4 -13 -2 -20 4 -14 12 -32
-8 -18 -21 12 -10 618 0 635 11 39 23 -13 26 -348 18z"/>
<path d="M3284 9879 c-3 -6 -3 -13 0 -17 20 -20 112 -44 184 -49 86 -6 319 14
328 28 10 17 -49 21 -151 9 -125 -15 -231 -8 -302 19 -34 14 -54 17 -59 10z"/>
<path d="M4740 9859 c-156 -17 -280 -24 -280 -16 0 13 -43 4 -47 -10 -7 -21
87 -27 246 -14 85 6 158 14 163 17 10 6 11 34 1 33 -5 -1 -42 -5 -83 -10z"/>
<path d="M10365 9805 c-22 -8 -41 -15 -42 -15 -2 0 -3 -9 -3 -20 0 -21 15 -27
25 -10 10 17 76 30 96 19 24 -12 24 -30 0 -77 -24 -47 -63 -83 -103 -97 -40
-13 -77 -60 -60 -77 8 -8 21 -5 52 16 38 25 43 26 59 12 43 -39 164 9 145 58
-5 14 -11 12 -40 -14 -35 -31 -58 -36 -82 -21 -11 6 -6 18 21 54 64 83 72 158
21 177 -32 13 -41 12 -89 -5z"/>
<path d="M3316 9772 c-3 -5 8 -34 24 -63 16 -30 30 -57 30 -62 0 -4 -11 -12
-25 -17 -13 -5 -38 -28 -54 -50 -39 -54 -39 -107 -1 -129 23 -12 30 -12 64 4
47 23 66 52 71 108 3 37 -3 58 -36 120 -40 77 -63 105 -73 89z m74 -210 c0
-45 -32 -82 -72 -82 -35 0 -38 27 -7 76 39 63 79 66 79 6z"/>
<path d="M4552 9753 c-33 -6 -25 -39 8 -35 38 4 94 2 100 -4 2 -3 -10 -18 -29
-33 -40 -32 -36 -45 20 -68 21 -8 39 -21 39 -28 0 -24 -37 -46 -72 -43 -28 2
-35 8 -43 36 -12 41 -31 36 -28 -9 2 -42 25 -59 80 -59 98 0 128 102 39 134
-18 6 -18 8 7 34 38 39 35 59 -10 71 -38 11 -69 12 -111 4z"/>
<path d="M9365 9742 c-3 -3 -5 -11 -5 -19 0 -10 20 -13 78 -13 l77 0 -32 -20
c-44 -26 -42 -46 5 -55 82 -15 104 -58 50 -98 -37 -27 -109 -27 -146 0 -15 11
-27 26 -27 33 0 17 -21 24 -30 10 -20 -33 40 -84 112 -96 87 -14 178 62 150
124 -12 25 -54 52 -84 52 -12 0 -7 7 17 22 40 25 52 40 42 49 -9 8 -200 18
-207 11z"/>
<path d="M3625 9646 l-19 -35 -29 25 c-38 32 -107 35 -107 3 0 -18 4 -20 31
-14 35 8 69 -15 69 -47 0 -28 -30 -68 -51 -68 -24 0 -25 -26 -2 -34 10 -4 24
1 36 12 18 19 19 19 43 -5 20 -20 30 -23 57 -18 46 10 67 23 67 41 0 12 -5 14
-17 8 -10 -4 -35 -9 -55 -12 -36 -4 -38 -3 -38 24 0 15 14 51 30 81 17 29 30
57 30 63 0 23 -28 8 -45 -24z"/>
<path d="M9234 9125 c-4 -9 -2 -32 3 -53 6 -22 6 -79 1 -140 -8 -103 -80 -529
-96 -573 -9 -22 -9 -22 -20 11 -23 69 -42 250 -48 468 -4 123 -11 225 -16 228
-5 3 -36 -19 -68 -50 -32 -31 -66 -56 -74 -56 -9 0 -16 -7 -16 -15 0 -29 41
-15 89 30 l48 45 7 -207 c10 -294 37 -472 77 -509 16 -14 19 -14 33 9 9 13 23
57 31 98 37 182 68 372 77 464 16 168 15 165 46 163 53 -3 123 2 119 10 -8 12
48 13 958 17 1088 5 1210 7 1208 20 -3 20 -91 26 -268 18 -99 -4 -547 -7 -995
-8 -625 0 -828 -3 -870 -13 -30 -7 -83 -13 -117 -14 -38 0 -63 -5 -64 -12 -1
-21 -18 29 -18 57 -1 29 -18 37 -27 12z"/>
<path d="M5305 9049 c-55 -5 -280 -13 -500 -18 -590 -15 -937 -28 -964 -37
-15 -4 -26 -2 -31 6 -6 10 -14 10 -39 -1 -35 -16 -40 -34 -11 -42 33 -9 29
-173 -14 -502 -9 -76 -14 -93 -19 -70 -15 69 -27 159 -42 300 -20 187 -44 304
-66 318 -13 8 -24 5 -47 -14 -16 -13 -38 -29 -48 -35 -15 -9 -16 -15 -7 -25
10 -10 19 -7 48 15 20 16 38 26 41 23 10 -10 43 -209 54 -327 18 -201 50 -350
74 -350 17 0 33 61 46 180 6 52 16 131 21 175 5 44 9 132 9 196 l1 117 32 6
c44 8 500 25 962 35 355 8 721 26 755 37 13 4 13 6 0 14 -17 11 -107 10 -255
-1z"/>
<path d="M9953 8938 c-26 -12 -38 -37 -24 -51 5 -5 17 -1 30 12 12 12 29 21
38 21 12 0 0 -18 -37 -55 -46 -46 -53 -58 -43 -73 19 -29 163 -17 163 14 0 10
-6 14 -17 11 -28 -8 -113 -19 -113 -14 0 2 20 26 45 53 53 57 57 88 10 91 -16
1 -40 -3 -52 -9z"/>
<path d="M8359 8917 c-44 -20 -92 -66 -85 -82 6 -17 36 -20 36 -4 0 14 38 47
70 60 31 13 70 3 70 -17 0 -36 -78 -127 -133 -155 -80 -42 -150 -129 -103
-129 15 0 101 65 125 93 22 27 26 20 23 -38 -5 -69 11 -79 75 -44 54 29 65 42
57 63 -6 16 -8 15 -28 -2 -11 -11 -33 -27 -49 -37 l-27 -18 3 67 c3 54 8 71
29 94 43 47 58 75 58 113 0 33 -3 37 -31 43 -43 8 -60 7 -90 -7z"/>
<path d="M4452 8889 c-41 -16 -14 -31 44 -23 33 4 54 3 54 -3 0 -6 -27 -29
-60 -52 -64 -45 -68 -52 -46 -70 19 -16 138 -10 144 7 3 9 -13 12 -55 13 -58
0 -58 0 -33 17 14 9 40 31 58 49 28 27 31 35 22 53 -8 16 -20 20 -58 19 -26 0
-57 -4 -70 -10z"/>
<path d="M5997 8870 c-44 -27 -56 -47 -41 -63 4 -4 22 7 41 23 18 17 38 30 44
30 31 0 -59 -145 -105 -169 -43 -23 -106 -81 -106 -97 0 -23 18 -16 74 26 29
22 55 40 57 40 2 0 3 -26 1 -59 -3 -53 -1 -60 22 -79 22 -17 32 -18 65 -10 40
10 80 42 68 54 -3 4 -22 -1 -42 -10 -20 -10 -46 -16 -58 -14 -20 3 -22 8 -22
78 0 69 3 79 32 118 52 71 69 153 33 160 -8 1 -37 -11 -63 -28z"/>
<path d="M10790 8823 c-27 -89 -28 -177 -1 -237 11 -26 27 -46 35 -46 14 0 13
7 -4 50 -25 64 -25 148 0 220 23 67 24 80 5 80 -9 0 -22 -24 -35 -67z"/>
<path d="M10387 8844 c-4 -4 -9 -28 -13 -54 -4 -34 -12 -49 -28 -56 -25 -11
-22 -30 5 -27 19 3 21 -1 23 -42 1 -11 9 -21 20 -23 16 -3 18 1 15 35 l-4 38
52 -3 c43 -3 53 -1 53 12 0 15 -20 19 -94 19 -15 -1 -17 5 -12 31 11 59 11 69
0 73 -5 2 -13 0 -17 -3z"/>
<path d="M8580 8826 c0 -11 9 -16 26 -16 32 0 64 -17 64 -33 0 -20 -60 -88
-86 -98 -24 -8 -34 -39 -13 -39 41 0 129 96 129 140 0 36 -17 49 -74 56 -38 6
-46 4 -46 -10z"/>
<path d="M5104 8715 c1 -116 12 -153 37 -128 8 8 8 17 -1 33 -6 12 -8 34 -5
52 10 45 -4 158 -19 158 -10 0 -13 -28 -12 -115z"/>
<path d="M4756 8802 c-3 -5 -2 -32 3 -60 l8 -52 -43 0 c-32 0 -44 -4 -44 -15
0 -11 11 -15 43 -15 l43 0 -4 -35 c-3 -27 -1 -35 12 -35 9 0 16 8 16 19 0 41
11 51 56 51 37 0 44 3 44 19 0 23 -16 36 -25 21 -8 -13 -65 -13 -65 1 0 5 -4
8 -8 5 -5 -3 -6 8 -4 24 8 52 -14 101 -32 72z"/>
<path d="M2430 8786 c0 -12 21 -15 98 -18 53 -2 101 0 107 5 21 16 -22 27
-112 27 -74 0 -93 -3 -93 -14z"/>
<path d="M6937 8785 c-8 -20 -3 -21 96 -17 67 3 87 7 87 18 0 21 -175 20 -183
-1z"/>
<path d="M8711 8759 c-25 -41 -27 -75 -5 -83 24 -9 87 -7 104 4 23 14 3 24
-45 21 -50 -3 -52 -1 -28 40 13 22 14 32 6 40 -9 9 -17 3 -32 -22z"/>
<path d="M4217 8760 c-13 -19 -16 -19 -50 -5 -20 8 -43 15 -52 15 -28 0 -16
-21 21 -36 32 -14 35 -18 28 -42 -4 -15 -7 -41 -6 -59 1 -23 -4 -35 -17 -43
-12 -6 -21 -6 -23 0 -2 5 -9 6 -16 1 -17 -10 -4 -41 18 -41 9 0 28 9 42 19 16
13 29 17 39 10 16 -10 80 -12 103 -3 9 3 16 12 16 20 0 16 -26 19 -35 4 -3 -5
-11 -7 -18 -5 -7 2 -25 6 -40 10 -23 4 -27 10 -21 23 4 9 10 37 13 62 5 34 12
47 29 55 12 5 21 14 19 20 -7 19 -35 16 -50 -5z"/>
<path d="M6250 8740 c0 -11 5 -17 13 -15 31 12 50 -34 30 -71 -7 -11 -30 -33
-52 -49 -40 -27 -54 -55 -28 -55 8 0 31 15 52 34 39 33 39 33 56 12 12 -14 28
-20 55 -20 55 1 94 12 94 28 0 11 -14 13 -65 8 -73 -5 -78 0 -45 54 22 35 12
55 -14 28 -15 -14 -16 -14 -16 5 0 27 -34 61 -60 61 -13 0 -20 -7 -20 -20z"/>
<path d="M7035 8726 c-59 -8 -80 -15 -80 -26 0 -17 -4 -17 95 -6 80 9 114 21
105 37 -7 10 -13 10 -120 -5z"/>
<path d="M9769 8700 l-32 -40 -18 29 c-21 35 -38 46 -50 34 -6 -6 -3 -19 9
-34 36 -46 45 -69 31 -85 -18 -21 -60 -18 -66 6 -6 24 -21 26 -30 5 -9 -25 26
-55 63 -55 18 0 36 5 39 11 5 6 13 2 22 -11 13 -19 22 -21 57 -16 41 7 80 32
71 46 -3 4 -22 2 -42 -6 -21 -7 -44 -13 -50 -14 -32 -1 1 110 39 133 10 7 18
17 18 24 0 25 -30 12 -61 -27z"/>
<path d="M2433 8698 c-12 -21 14 -29 85 -27 73 1 121 13 108 27 -9 9 -187 8
-193 0z"/>
<path d="M8985 7700 c-8 -16 -14 -33 -13 -37 1 -4 -4 -26 -10 -48 -6 -22 -18
-87 -26 -145 -9 -58 -20 -121 -26 -140 -13 -44 -13 -80 0 -80 5 0 18 21 29 46
23 52 77 124 93 124 7 0 9 -21 5 -58 -6 -71 5 -95 38 -86 13 3 55 7 92 7 73 2
127 25 117 51 -4 11 -12 10 -42 -5 -20 -11 -45 -19 -56 -19 -17 0 -16 4 12 31
34 33 41 73 22 110 -28 51 -94 -10 -110 -101 -3 -22 -12 -36 -23 -38 -15 -3
-17 5 -17 55 0 86 -30 106 -82 56 -25 -24 -28 -25 -28 -7 0 45 43 251 56 272
15 22 12 42 -6 42 -5 0 -16 -13 -25 -30z m215 -292 c0 -12 -10 -32 -22 -45
-40 -43 -52 -21 -18 35 23 37 40 42 40 10z"/>
<path d="M12288 7688 c-9 -24 -46 -116 -82 -206 -37 -89 -67 -172 -69 -184 -4
-41 20 -28 67 36 69 94 71 95 71 23 0 -52 3 -62 19 -65 29 -6 45 17 23 33 -15
11 -17 21 -11 62 5 39 3 52 -10 63 -15 11 -22 8 -57 -26 l-41 -39 17 40 c9 22
35 85 56 139 22 55 47 105 56 111 18 14 14 49 -7 53 -10 1 -21 -13 -32 -40z"/>
<path d="M2865 7690 c-12 -19 5 -28 75 -44 91 -21 237 -20 323 3 84 22 86 20
63 -92 -9 -45 -16 -126 -16 -179 0 -119 14 -128 60 -38 17 33 33 60 35 60 11
0 27 -58 33 -120 6 -52 11 -65 26 -68 19 -4 36 13 36 36 0 6 -6 12 -14 12 -9
0 -16 18 -20 51 -4 28 -14 69 -23 91 -20 51 -49 49 -80 -7 l-23 -40 1 60 c0
33 6 89 14 125 18 82 19 121 2 144 -13 17 -17 17 -103 -4 -74 -19 -107 -22
-194 -18 -64 4 -120 12 -144 22 -45 19 -43 19 -51 6z"/>
<path d="M2355 7658 c-2 -7 -9 -37 -15 -66 l-12 -54 -67 6 c-36 3 -87 8 -113
12 -78 10 -58 -25 22 -40 35 -7 110 -52 110 -67 0 -5 -22 -42 -50 -83 -52 -78
-59 -96 -36 -96 8 0 17 -7 20 -15 7 -20 28 -10 100 47 27 21 51 36 54 34 2 -3
15 -36 27 -73 15 -47 27 -69 40 -72 15 -2 17 1 11 20 -4 13 -12 58 -18 98
l-12 75 74 68 c54 49 71 71 64 78 -6 6 -45 12 -85 13 l-74 2 -3 63 c-2 47 -7
62 -18 62 -8 0 -16 -6 -19 -12z m-45 -157 c0 -18 -18 -21 -30 -6 -10 13 -9 15
9 15 11 0 21 -4 21 -9z m64 -22 c3 -17 6 -46 6 -63 l-1 -31 -29 34 c-27 32
-28 35 -14 63 19 36 30 36 38 -3z m89 -11 c-23 -23 -44 -40 -46 -38 -3 3 -7
22 -11 43 l-7 37 53 0 53 0 -42 -42z m-123 -94 c0 -13 -58 -62 -99 -84 -21
-11 -23 -10 -18 5 4 9 23 41 43 71 35 52 37 54 55 38 11 -9 19 -23 19 -30z"/>
<path d="M7416 7563 c-4 -59 -13 -159 -22 -222 -9 -69 -11 -118 -6 -123 10
-10 37 31 71 106 11 25 25 46 30 46 6 0 31 -19 55 -42 33 -32 46 -54 51 -83
10 -58 14 -67 28 -62 31 11 -14 143 -60 175 -67 47 -67 47 -53 73 18 34 61 79
77 79 7 0 13 9 13 20 0 11 -6 20 -13 20 -22 0 -93 -82 -126 -145 l-31 -60 5
55 c5 62 17 246 16 257 0 5 -6 9 -14 11 -12 2 -16 -18 -21 -105z"/>
<path d="M5654 7613 c-25 -61 -44 -126 -44 -157 0 -17 -10 -40 -21 -52 -18
-19 -24 -21 -41 -11 -16 9 -22 9 -25 -1 -3 -6 -9 -10 -14 -7 -15 10 -65 -22
-77 -49 -35 -78 47 -72 138 10 l39 35 22 -50 c25 -59 50 -71 110 -51 42 14 76
44 61 54 -5 3 -28 -3 -50 -14 -59 -28 -70 -26 -92 23 -25 53 -25 61 0 113 23
47 45 156 36 179 -9 25 -25 17 -42 -22z m-125 -259 c-18 -22 -69 -47 -69 -34
0 11 58 50 74 50 5 0 3 -7 -5 -16z"/>
<path d="M5017 7634 c-4 -4 -7 -27 -7 -51 0 -60 -13 -80 -61 -93 -22 -6 -47
-14 -55 -17 -11 -4 -14 7 -14 53 0 73 -8 104 -27 104 -11 0 -12 -11 -7 -52 8
-57 8 -63 6 -90 -2 -21 -51 -25 -84 -7 -26 14 -52 -6 -28 -22 28 -18 62 -22
70 -9 16 25 37 -13 44 -80 8 -72 29 -130 47 -130 8 0 9 10 4 33 -37 164 -37
161 32 180 31 9 58 15 60 13 2 -2 -1 -45 -7 -95 -7 -51 -9 -99 -6 -107 7 -19
25 -18 33 4 4 9 20 37 36 61 l30 44 19 -22 c12 -16 18 -40 18 -73 0 -67 24
-60 28 8 3 57 -25 114 -57 114 -11 0 -30 -13 -44 -30 l-25 -29 -4 34 c-2 19
-1 35 3 35 6 0 21 114 23 184 1 37 -12 55 -27 40z"/>
<path d="M3145 7578 c-3 -13 -1 -55 5 -93 6 -39 10 -110 9 -160 -3 -73 -1 -90
11 -90 12 0 15 21 15 115 -1 63 -2 138 -4 165 -2 28 -2 56 0 64 2 8 -4 17 -13
19 -11 2 -19 -5 -23 -20z"/>
<path d="M3564 7589 c-9 -16 22 -43 40 -36 23 9 20 22 -9 35 -17 8 -26 8 -31
1z"/>
<path d="M11148 7480 c-43 -27 -78 -56 -78 -65 0 -23 22 -18 55 13 17 15 38
31 48 35 17 6 17 4 -2 -31 -39 -72 -73 -164 -63 -174 6 -6 36 16 78 56 l69 66
7 -46 c9 -64 14 -74 37 -74 27 0 77 72 92 133 6 29 18 56 25 60 22 13 16 27
-11 27 -20 0 -26 -7 -35 -42 -19 -75 -22 -82 -45 -116 -22 -32 -23 -32 -29
-10 -3 13 -6 37 -6 54 0 17 -6 37 -14 43 -12 10 -22 5 -54 -23 -22 -20 -43
-36 -46 -36 -12 0 4 39 40 99 59 97 44 104 -68 31z"/>
<path d="M11525 7512 c-35 -12 -52 -26 -74 -62 -30 -50 -28 -93 7 -120 23 -19
36 -22 95 -17 53 3 73 9 88 26 19 20 18 41 -2 41 -5 0 -17 -9 -26 -20 -28 -32
-153 -24 -153 10 0 5 6 7 13 5 21 -8 122 67 125 94 6 39 -27 58 -73 43z m40
-51 c-3 -6 -29 -23 -56 -37 l-50 -25 15 29 c8 16 21 33 28 39 30 24 79 19 63
-6z"/>
<path d="M10038 7450 c-34 -33 -66 -60 -70 -60 -4 0 -8 -7 -8 -15 0 -8 5 -15
10 -15 6 0 10 -6 10 -14 0 -39 93 -60 155 -36 27 10 30 38 4 32 -68 -17 -129
-12 -129 11 0 6 25 26 56 42 57 31 89 71 78 99 -11 30 -45 16 -106 -44z m50
-9 c-13 -17 -30 -30 -38 -30 -9 0 -2 11 18 29 41 38 50 38 20 1z"/>
<path d="M10410 7485 c-25 -13 -56 -34 -69 -49 -22 -23 -25 -24 -36 -9 -11 15
-13 15 -23 -3 -17 -31 -26 -140 -13 -148 6 -4 14 1 17 11 23 76 92 157 146
171 23 6 34 15 36 30 4 27 0 26 -58 -3z"/>
<path d="M12741 7450 c-28 -70 -57 -120 -70 -120 -14 0 -28 51 -24 88 3 24 0
32 -11 32 -13 0 -16 -12 -16 -52 0 -85 36 -130 77 -96 23 18 95 178 89 194
-10 26 -21 14 -45 -46z"/>
<path d="M9880 7480 c-6 -12 -22 -50 -36 -86 -13 -36 -32 -76 -41 -90 -15 -23
-17 -24 -26 -8 -5 9 -10 41 -10 71 0 61 -12 77 -28 36 -14 -37 -2 -118 22
-146 l19 -22 33 36 c17 20 45 71 60 113 18 49 34 76 43 76 21 0 13 34 -8 38
-9 2 -22 -6 -28 -18z"/>
<path d="M12907 7470 c-21 -18 -41 -49 -50 -77 -14 -42 -14 -49 1 -72 9 -14
21 -29 27 -33 29 -21 192 11 221 43 24 27 11 34 -28 17 -89 -41 -180 -48 -186
-15 -2 9 2 17 8 17 6 0 31 14 56 30 50 35 57 67 24 100 -26 26 -33 25 -73 -10z
m59 -22 c4 -7 -6 -23 -26 -40 -53 -44 -64 -36 -30 20 20 33 43 41 56 20z"/>
<path d="M13971 7414 c-50 -105 -59 -134 -39 -134 25 0 91 54 123 100 l30 44
3 -36 c2 -20 9 -42 17 -48 20 -16 109 -3 138 20 28 23 16 36 -20 22 -15 -6
-45 -14 -65 -18 l-37 -6 -3 53 c-3 47 -6 54 -23 52 -11 -1 -27 -11 -35 -23 -8
-12 -32 -41 -53 -64 l-38 -41 30 62 c31 62 39 103 22 103 -5 0 -27 -39 -50
-86z"/>
<path d="M13794 7461 c-64 -29 -121 -124 -94 -156 18 -22 37 -19 90 14 26 16
47 24 47 18 -1 -36 5 -47 23 -47 16 0 19 5 14 24 -3 15 3 41 19 72 44 87 0
120 -99 75z m86 -18 c-2 -24 -125 -123 -153 -123 -11 0 14 54 36 79 33 36 118
68 117 44z"/>
<path d="M6644 7439 c-87 -45 -104 -58 -104 -74 0 -16 26 -21 32 -7 2 5 29 22
61 39 67 37 68 35 11 -76 -18 -35 -31 -68 -28 -73 10 -16 31 -7 68 31 l39 40
29 -31 c23 -25 33 -29 55 -23 39 9 45 22 38 83 -3 31 -1 61 6 73 18 34 -5 47
-26 15 -14 -21 -16 -38 -10 -81 6 -54 6 -55 -18 -55 -19 0 -28 8 -36 30 -12
35 -29 38 -59 10 -27 -25 -27 -21 -3 27 29 57 33 79 18 91 -10 9 -28 4 -73
-19z"/>
<path d="M8817 7406 c6 -62 5 -66 -25 -95 -17 -17 -40 -31 -51 -31 -18 0 -21
6 -21 44 0 52 -12 64 -44 42 l-24 -15 21 38 c11 21 18 45 14 54 -9 25 -50 21
-83 -8 -16 -14 -32 -25 -36 -25 -10 0 -20 -38 -13 -50 3 -5 24 9 45 30 22 22
45 40 50 40 13 0 0 -25 -53 -103 -58 -88 -17 -100 57 -18 24 26 36 27 36 2 0
-30 11 -51 31 -62 27 -14 94 23 115 64 19 36 21 104 5 136 -21 39 -30 22 -24
-43z"/>
<path d="M9583 7450 c-65 -39 -84 -130 -37 -177 22 -22 32 -25 72 -20 25 3 48
10 50 16 2 6 10 11 17 11 17 0 28 17 20 30 -3 6 -21 2 -43 -10 -46 -25 -74
-25 -96 -1 -16 18 -16 19 8 25 13 3 39 18 56 32 24 21 30 33 28 57 -2 16 -12
36 -23 43 -18 12 -25 11 -52 -6z m47 -37 c0 -18 -66 -70 -76 -60 -8 7 23 64
38 70 25 10 38 7 38 -10z"/>
<path d="M7761 7449 c-47 -10 -69 -33 -51 -54 7 -9 27 -22 45 -29 40 -17 85
-71 85 -102 0 -20 -5 -24 -29 -24 -15 0 -44 11 -64 24 -38 26 -52 24 -36 -5
21 -41 119 -65 147 -37 35 35 -2 122 -67 160 -23 13 -41 26 -41 31 0 4 23 7
50 7 38 0 50 4 50 15 0 8 -3 15 -7 16 -5 0 -17 2 -28 3 -11 1 -35 -1 -54 -5z"/>
<path d="M12407 7412 c-43 -44 -61 -82 -38 -82 5 0 30 9 56 20 58 25 55 25 55
-3 0 -32 18 -47 56 -47 33 0 48 17 34 39 -5 9 -10 10 -14 2 -4 -6 -16 -11 -27
-11 -15 0 -19 7 -19 35 0 44 -17 52 -60 30 -18 -9 -29 -12 -25 -6 3 6 19 18
36 26 16 9 29 22 29 30 0 29 -36 14 -83 -33z"/>
<path d="M3665 7410 c-18 -36 -19 -40 -2 -40 12 0 57 51 57 65 0 3 -9 5 -20 5
-11 0 -26 -12 -35 -30z"/>
<path d="M7205 7418 c-45 -35 -54 -158 -13 -166 14 -3 16 4 11 51 -8 74 6 97
58 97 49 0 49 21 1 31 -24 5 -39 2 -57 -13z"/>
<path d="M9392 7415 c-18 -15 -37 -23 -46 -19 -17 7 -28 -15 -40 -78 -6 -31
-4 -38 9 -38 8 0 20 11 25 24 11 30 83 106 99 106 9 0 11 -16 6 -64 -8 -69 -1
-108 18 -100 16 6 21 162 6 180 -17 21 -44 17 -77 -11z"/>
<path d="M4585 7396 c-14 -19 -29 -50 -32 -69 -4 -30 -2 -38 21 -52 33 -22
107 -16 133 10 17 18 15 18 -40 12 -32 -3 -65 -3 -73 0 -24 9 -15 23 15 23 42
0 76 30 68 62 -5 20 -41 48 -62 48 -2 0 -16 -15 -30 -34z m61 -17 c8 -13 -13
-29 -39 -29 -15 0 -16 3 -7 20 12 22 35 26 46 9z"/>
<path d="M4413 7408 c-5 -7 -15 -25 -23 -40 l-13 -28 -19 30 c-10 17 -21 30
-25 31 -54 8 -73 5 -73 -10 -1 -9 -3 -41 -6 -71 -10 -105 -10 -104 9 -108 13
-3 17 3 17 28 0 40 20 119 31 126 5 3 16 -10 24 -30 23 -54 32 -55 72 -3 l21
28 7 -30 c7 -33 39 -66 54 -56 7 4 6 13 -3 28 -8 12 -19 39 -25 59 -15 45 -34
64 -48 46z"/>
<path d="M5264 7405 c-87 -36 -113 -157 -30 -139 41 9 106 42 106 54 0 23 -26
90 -35 94 -6 2 -25 -2 -41 -9z m30 -50 c16 -24 15 -25 -11 -38 -76 -39 -92
-29 -47 30 30 40 37 41 58 8z"/>
<path d="M6959 7413 c-18 -4 -49 -64 -49 -93 0 -25 46 -60 80 -60 43 0 94 40
98 76 5 55 -62 95 -129 77z m80 -44 c27 -26 24 -45 -11 -67 -40 -24 -84 -7
-81 32 4 57 50 74 92 35z"/>
<path d="M3567 7393 c-2 -5 -3 -15 -2 -23 1 -8 3 -27 3 -42 1 -18 8 -28 17
-28 11 0 15 12 15 50 0 37 -4 50 -14 50 -8 0 -17 -3 -19 -7z"/>
<path d="M3671 7361 c-11 -7 -6 -17 23 -46 20 -20 35 -42 33 -48 -2 -7 -21
-12 -43 -12 -29 0 -38 -4 -36 -15 5 -23 24 -31 57 -25 33 6 55 29 55 57 0 28
-72 100 -89 89z"/>
<path d="M14204 7204 c-16 -20 -49 -70 -73 -112 -24 -43 -44 -78 -45 -79 -1
-1 -35 -5 -76 -8 -76 -7 -102 -17 -84 -34 10 -10 76 -3 70 8 -2 3 13 5 35 3
48 -5 49 -17 13 -91 -32 -63 -63 -87 -93 -72 -27 15 -36 14 -22 -2 6 -8 8 -17
5 -20 -12 -12 45 -18 65 -7 33 17 80 88 97 147 14 47 19 53 48 58 18 4 41 5
52 3 11 -2 20 4 22 16 3 16 -2 18 -42 15 -25 -2 -46 -2 -46 0 0 12 58 102 92
143 35 43 42 68 19 68 -4 0 -21 -16 -37 -36z"/>
<path d="M10506 7193 c-5 -16 -25 -146 -26 -165 0 -4 -15 -8 -32 -10 -38 -3
-47 -33 -11 -33 13 0 23 -4 24 -8 3 -16 -24 -133 -34 -144 -6 -9 -5 -18 3 -28
17 -21 25 -11 39 50 30 126 28 123 63 121 17 0 33 5 35 12 3 7 -3 12 -14 12
-45 1 -48 33 -17 178 5 25 3 32 -9 32 -9 0 -18 -8 -21 -17z"/>
<path d="M2821 7088 c-20 -111 -21 -117 -42 -120 -26 -4 -25 -22 0 -26 17 -3
19 -9 14 -58 -5 -42 -3 -54 8 -54 10 0 10 -3 3 -8 -6 -4 -15 -22 -19 -40 -6
-29 -4 -33 11 -30 13 2 18 15 21 53 2 28 6 69 9 92 l5 42 61 3 c38 2 63 8 66
16 3 9 -13 12 -60 12 l-63 0 1 42 c1 24 5 51 9 60 11 28 11 81 0 85 -6 2 -16
-29 -24 -69z"/>
<path d="M12897 7153 c-2 -5 -10 -32 -17 -61 -7 -29 -36 -93 -66 -142 -30 -49
-54 -96 -54 -105 0 -37 29 -8 78 78 62 108 77 127 126 161 40 27 66 25 66 -4
0 -22 -39 -120 -57 -141 -18 -21 -17 -49 2 -49 8 0 15 3 15 8 1 4 11 20 24 35
l23 29 26 -26 c21 -21 24 -31 18 -53 -5 -16 -4 -38 0 -51 7 -18 16 -22 53 -22
65 0 96 14 96 45 0 30 -10 32 -33 5 -11 -13 -29 -20 -52 -20 -29 0 -35 4 -35
21 0 34 18 57 50 64 39 8 90 51 90 75 0 10 -7 23 -15 30 -13 10 -22 8 -56 -15
-22 -16 -45 -37 -50 -47 -15 -28 -45 -22 -59 12 -7 17 -17 30 -22 30 -5 0 -5
8 1 18 18 34 10 82 -17 100 -23 15 -27 15 -71 -9 l-47 -25 4 27 c4 25 -12 48
-21 32z m313 -161 c0 -4 -10 -13 -22 -21 -23 -14 -23 -14 -4 8 20 22 26 25 26
13z"/>
<path d="M4877 7134 c-4 -4 -7 -22 -7 -41 0 -101 -65 -141 -179 -112 -7 2 -16
-2 -18 -8 -7 -20 47 -35 105 -30 28 3 52 5 52 3 0 -1 -9 -42 -20 -91 -12 -56
-16 -93 -10 -99 11 -11 20 -4 24 16 32 170 41 193 93 228 25 17 47 30 48 28 2
-2 -13 -49 -32 -106 -24 -70 -32 -107 -25 -114 14 -14 52 12 52 35 0 10 -4 16
-9 12 -6 -3 6 40 24 96 35 103 42 169 19 169 -7 0 -20 -15 -29 -33 -8 -18 -29
-41 -46 -51 l-31 -18 8 33 c4 19 8 45 8 58 1 24 -14 38 -27 25z"/>
<path d="M3940 7028 c-25 -109 -33 -248 -14 -255 7 -2 13 27 18 84 3 48 15
122 26 163 23 88 25 110 7 110 -8 0 -22 -37 -37 -102z"/>
<path d="M11902 7088 c2 -13 8 -23 13 -23 6 0 11 10 13 23 2 15 -2 22 -13 22
-11 0 -15 -7 -13 -22z"/>
<path d="M10312 7069 c1 -13 8 -23 13 -21 15 3 12 35 -3 40 -9 3 -13 -3 -10
-19z"/>
<path d="M5406 7058 c-3 -13 -6 -38 -6 -55 0 -33 -4 -36 -65 -45 -11 -2 -21
-11 -23 -21 -3 -15 2 -17 36 -11 l39 6 -4 -53 c-3 -30 -9 -67 -14 -83 -12 -39
-11 -46 5 -46 19 0 33 45 42 129 l6 70 54 7 c62 7 73 17 48 45 -20 22 -34 25
-34 5 0 -12 -28 -25 -53 -26 -5 0 -7 21 -5 47 3 49 -15 71 -26 31z"/>
<path d="M2515 7060 c-10 -16 16 -43 28 -31 11 11 2 41 -12 41 -5 0 -13 -5
-16 -10z"/>
<path d="M6565 7017 c-65 -31 -80 -49 -65 -77 12 -23 30 -18 30 9 0 17 56 51
86 51 13 0 12 -4 -2 -31 -8 -17 -31 -53 -50 -79 -55 -77 -40 -107 26 -51 l35
29 15 -31 c21 -45 62 -48 118 -7 24 17 46 40 51 51 11 31 -9 129 -27 129 -11
0 -13 -11 -7 -59 6 -56 5 -60 -22 -85 -52 -48 -95 -42 -87 12 2 15 0 34 -5 42
-8 12 -13 12 -30 -4 -17 -15 -16 -10 7 33 21 40 25 54 16 68 -16 26 -33 26
-89 0z"/>
<path d="M9845 7035 c-5 -2 -36 -11 -67 -21 -34 -10 -58 -22 -58 -30 0 -18 17
-18 70 1 57 20 82 20 54 1 -30 -22 -97 -123 -90 -135 11 -17 23 -13 75 24 47
34 50 35 56 15 23 -72 115 -18 139 82 5 24 3 28 -19 34 -32 8 -42 -1 -25 -21
10 -12 10 -21 0 -45 -18 -42 -49 -58 -67 -34 -7 10 -13 21 -13 26 0 15 -32 8
-63 -14 -21 -14 -11 0 27 39 32 34 55 66 52 72 -7 10 -48 14 -71 6z"/>
<path d="M14470 7013 c-30 -28 -84 -136 -73 -147 14 -14 24 -3 47 47 13 30 34
64 47 75 22 22 59 29 73 15 3 -4 13 -8 21 -9 22 -3 18 24 -4 36 -35 18 -79 12
-111 -17z"/>
<path d="M8170 7023 c-51 -20 -110 -94 -110 -138 0 -36 30 -69 78 -86 39 -13
142 13 142 36 0 18 -24 20 -42 2 -19 -17 -91 -14 -122 6 -16 11 -26 27 -26 41
0 30 42 81 82 102 27 14 32 14 64 -5 42 -25 54 -26 54 -6 0 9 -19 25 -42 35
-45 21 -54 22 -78 13z"/>
<path d="M10115 6995 c-31 -30 -37 -81 -12 -97 18 -11 27 2 21 28 -8 33 20 64
57 64 21 0 27 4 23 15 -10 24 -62 18 -89 -10z"/>
<path d="M10629 6996 c-82 -56 -86 -135 -8 -156 51 -14 173 -4 189 15 17 20 1
23 -70 14 -68 -8 -116 -3 -137 14 -19 14 -16 27 7 27 11 0 20 4 20 8 0 5 18
18 40 31 41 23 49 38 28 59 -17 17 -29 15 -69 -12z"/>
<path d="M14682 6991 c-22 -16 -43 -34 -47 -40 -3 -6 -17 -11 -29 -11 -28 0
-76 -45 -76 -71 0 -31 22 -22 100 40 41 33 76 58 78 57 1 -2 -2 -16 -8 -31
-22 -58 8 -70 76 -31 41 23 42 23 58 5 20 -24 43 -24 84 1 54 33 39 54 -19 25
-33 -18 -49 -13 -49 15 0 30 -13 30 -59 -1 -24 -16 -48 -29 -53 -29 -10 0 -1
40 13 55 5 5 9 17 9 27 0 27 -31 22 -78 -11z"/>
<path d="M6899 6990 c-19 -10 -43 -34 -53 -52 -16 -29 -17 -40 -7 -70 7 -21
22 -40 37 -47 53 -24 191 -5 202 28 4 11 -1 12 -19 7 -52 -14 -146 -18 -167
-7 -28 15 -28 36 0 38 29 3 102 56 107 79 4 19 -24 44 -48 44 -9 -1 -32 -9
-52 -20z m61 -18 c0 -15 -34 -40 -64 -48 -36 -9 -28 9 18 37 34 21 46 24 46
11z"/>
<path d="M8374 6963 c-74 -80 -47 -135 48 -98 12 5 17 0 20 -17 2 -12 11 -24
20 -26 13 -2 16 4 16 27 -1 16 6 41 15 55 10 14 17 30 17 36 0 15 -26 12 -41
-6 -23 -28 -109 -64 -109 -45 0 23 63 81 87 81 34 0 24 24 -11 28 -21 3 -35
-5 -62 -35z"/>
<path d="M14242 6962 c-64 -59 -55 -122 17 -122 54 0 99 49 85 94 -7 22 -43
66 -54 66 -4 0 -25 -17 -48 -38z m68 -43 c0 -21 -7 -32 -24 -41 -54 -24 -75
16 -30 57 31 29 54 23 54 -16z"/>
<path d="M3451 6894 c-44 -92 -46 -100 -31 -109 5 -3 28 31 50 75 29 57 45 80
55 76 23 -8 30 16 10 31 -11 7 -24 13 -31 13 -6 0 -30 -39 -53 -86z"/>
<path d="M8555 6968 c-18 -55 -45 -138 -45 -143 0 -19 30 3 60 43 l35 47 3
-43 c4 -52 32 -75 80 -66 18 4 29 10 27 14 -3 5 3 6 12 4 20 -4 60 22 50 32
-4 4 -29 0 -57 -9 -72 -23 -80 -17 -80 59 0 35 -3 64 -7 64 -4 0 -19 -12 -34
-26 l-26 -25 4 24 c5 26 -14 48 -22 25z"/>
<path d="M10254 6934 c-18 -43 -15 -79 6 -79 10 0 15 10 15 32 0 18 6 38 13
44 17 18 15 39 -4 39 -8 0 -22 -16 -30 -36z"/>
<path d="M3228 6948 c-49 -41 -65 -118 -27 -138 24 -13 71 0 101 27 10 9 21
13 24 10 4 -3 3 -49 -1 -101 -7 -92 -8 -95 -34 -104 -31 -11 -60 -63 -68 -122
-6 -46 13 -110 33 -110 19 0 61 90 75 163 l12 57 38 0 c32 0 69 19 69 37 0 3
-23 2 -51 -2 l-52 -7 6 48 c3 27 1 57 -4 66 -6 12 -6 18 1 18 5 0 10 7 10 15
0 8 -5 15 -11 15 -8 0 -8 4 1 14 9 12 9 21 -2 42 -18 38 -34 40 -52 7 -17 -33
-64 -59 -79 -44 -13 13 -2 52 24 80 24 25 14 50 -13 29z m82 -342 c0 -2 -9
-34 -20 -70 -22 -68 -40 -87 -40 -38 0 33 35 112 50 112 5 0 10 -2 10 -4z"/>
<path d="M5126 6908 c-48 -55 -61 -103 -31 -115 9 -3 37 6 63 19 l48 25 -4
-27 c-5 -33 24 -68 42 -50 8 8 5 16 -10 29 -19 15 -20 20 -8 42 8 16 9 30 4
40 -8 12 -12 12 -32 0 -82 -51 -88 -54 -88 -37 0 9 20 37 45 62 25 24 45 49
45 54 0 24 -32 6 -74 -42z"/>
<path d="M2601 6911 c-27 -38 -61 -118 -54 -125 14 -14 25 -3 47 47 27 60 53
88 61 66 2 -8 6 -41 7 -73 2 -37 8 -61 16 -64 20 -6 17 142 -4 162 -23 24 -50
19 -73 -13z"/>
<path d="M2986 6910 c-48 -43 -59 -79 -35 -119 17 -27 24 -31 65 -31 44 0 114
24 114 39 0 18 -15 19 -47 6 -44 -18 -103 -20 -103 -2 0 6 16 21 37 32 20 11
43 30 50 42 13 19 12 24 -6 42 -27 27 -34 27 -75 -9z m54 -20 c0 -5 -13 -16
-30 -25 -33 -17 -38 -11 -13 17 17 19 43 24 43 8z"/>
<path d="M12000 6925 c-7 -8 -20 -15 -30 -15 -15 0 -29 -25 -30 -52 0 -16 20
-7 52 22 18 17 38 30 44 30 14 0 24 -23 24 -54 0 -27 8 -36 25 -30 15 6 5 75
-15 99 -16 19 -54 19 -70 0z"/>
<path d="M2474 6917 c-3 -8 -6 -44 -7 -79 -2 -47 1 -63 12 -63 8 0 14 16 17
45 2 25 5 58 6 74 3 31 -18 48 -28 23z"/>
<path d="M5004 6907 c-15 -13 -28 -34 -29 -46 -2 -21 -1 -21 27 6 31 30 32 27
17 -36 -12 -56 -4 -83 24 -79 12 2 22 10 22 18 0 8 -5 14 -12 13 -8 -2 -10 8
-5 35 10 57 8 105 -4 109 -7 2 -24 -7 -40 -20z"/>
<path d="M11829 6923 c-3 -21 -6 -30 -17 -57 -14 -31 -13 -56 2 -59 9 -2 26
39 40 96 5 20 3 27 -9 27 -8 0 -16 -3 -16 -7z"/>
<path d="M3642 6903 c-19 -7 -44 -74 -37 -100 7 -28 20 -29 63 -3 l34 21 5
-21 c9 -34 39 -21 35 15 -6 47 -18 53 -62 27 -50 -28 -51 -28 -39 8 6 17 18
30 26 30 8 0 13 5 11 12 -5 14 -18 18 -36 11z"/>
<path d="M11693 6466 c-51 -43 -91 -144 -108 -277 l-6 -47 -60 -6 c-39 -5 -62
-12 -66 -22 -8 -22 -3 -23 56 -12 29 5 55 7 58 4 3 -3 0 -35 -6 -72 -13 -70
-44 -144 -62 -144 -6 0 -9 -8 -7 -17 6 -33 33 -18 60 31 15 28 32 83 39 128
l13 78 40 0 c56 0 118 18 113 33 -3 7 -10 11 -16 9 -42 -9 -131 -13 -131 -6 0
24 52 192 71 231 22 45 68 83 102 83 11 0 32 -8 48 -17 36 -21 50 -9 22 19
-15 15 -38 23 -75 26 -47 4 -58 1 -85 -22z"/>
<path d="M2406 6441 c-9 -10 -19 -34 -22 -52 -6 -37 21 -204 62 -384 32 -139
49 -336 39 -460 l-7 -95 -54 81 c-30 45 -64 99 -75 120 -13 26 -26 39 -39 39
-11 0 -20 -2 -20 -5 0 -15 186 -285 196 -285 23 0 29 50 28 245 -1 189 -1 191
-53 445 -51 245 -57 308 -33 332 13 13 92 -64 92 -90 0 -24 16 -37 25 -22 17
28 -6 80 -52 115 -53 40 -63 42 -87 16z"/>
<path d="M4287 6424 c-4 -4 18 -33 48 -66 32 -34 72 -93 97 -145 l43 -87 -1
-140 c0 -126 -3 -150 -28 -223 -15 -48 -32 -82 -39 -80 -7 1 -12 -9 -12 -23 0
-15 6 -26 17 -28 12 -2 24 17 46 75 42 108 55 195 50 323 -4 99 -7 112 -42
181 -59 118 -66 130 -112 176 -43 43 -55 49 -67 37z"/>
<path d="M10760 6389 c-41 -17 -103 -33 -137 -36 -44 -4 -63 -10 -63 -19 0 -8
7 -14 15 -14 12 0 15 -16 15 -85 l0 -85 -25 6 c-19 5 -25 2 -25 -10 0 -8 11
-18 25 -22 23 -6 24 -10 27 -92 2 -57 7 -87 16 -90 9 -3 12 20 12 91 l0 94 75
13 c46 8 74 17 72 24 -4 13 -43 13 -104 2 l-43 -8 0 81 c0 74 2 81 20 81 11 0
56 14 102 30 45 17 92 30 104 30 28 0 42 19 23 31 -20 13 -26 11 -109 -22z"/>
<path d="M5787 6363 c-13 -13 -6 -22 29 -39 47 -22 130 -126 150 -188 21 -63
14 -138 -20 -212 -28 -61 -117 -178 -147 -195 -22 -11 -26 -39 -5 -39 17 0
102 91 144 155 76 115 92 257 39 347 -36 62 -94 126 -138 154 -43 27 -43 27
-52 17z"/>
<path d="M12522 6353 c-5 -10 -13 -45 -17 -77 -4 -33 -12 -71 -18 -85 -5 -14
-9 -30 -8 -34 0 -4 -7 -3 -18 3 -29 15 -144 13 -139 -2 3 -9 31 -14 81 -16 42
-2 77 -6 77 -9 0 -28 -46 -229 -53 -234 -14 -10 -1 -39 17 -39 17 0 17 0 47
160 17 90 29 128 42 140 11 8 28 29 39 45 l20 30 -6 -73 c-4 -40 -15 -100 -26
-132 -36 -108 -19 -124 31 -29 l32 60 24 -30 c14 -17 31 -31 38 -31 8 0 21
-13 30 -30 23 -44 56 -63 99 -55 35 7 75 39 63 52 -4 3 -17 1 -30 -5 -39 -20
-69 -19 -91 4 -23 22 -20 30 14 44 54 22 74 68 46 106 -14 18 -16 18 -50 -15
-20 -19 -39 -43 -42 -53 -11 -35 -47 -18 -64 30 -11 31 -19 42 -31 39 -17 -5
-18 2 -4 111 5 45 -5 102 -20 102 -7 0 -24 -29 -40 -65 -15 -36 -31 -65 -35
-65 -7 0 -2 29 25 148 7 27 -20 31 -33 5z m278 -276 c0 -2 -10 -12 -21 -23
-22 -19 -22 -19 -10 4 10 18 31 31 31 19z"/>
<path d="M3716 6288 c-76 -77 -108 -162 -110 -288 -1 -89 1 -100 32 -162 53
-109 155 -178 218 -149 34 15 24 25 -26 26 -81 2 -168 100 -190 214 -12 65 2
175 31 240 21 48 104 141 126 141 7 0 13 7 13 15 0 31 -43 14 -94 -37z"/>
<path d="M4141 6316 c-13 -15 1 -32 18 -22 17 11 42 -7 66 -48 82 -140 69
-419 -23 -493 -24 -19 -25 -22 -9 -28 29 -12 44 1 79 72 32 66 33 70 33 198 0
151 -16 219 -68 287 -35 46 -74 60 -96 34z"/>
<path d="M5043 6313 c4 -22 -17 -67 -56 -116 -23 -28 -28 -40 -19 -49 6 -6 13
-10 14 -7 2 2 17 22 34 44 16 22 40 57 53 77 20 34 21 40 7 53 -20 20 -38 19
-33 -2z"/>
<path d="M5321 6282 c-80 -83 -116 -212 -109 -389 l3 -95 37 -33 c39 -36 77
-51 104 -41 21 8 10 22 -25 29 -16 3 -42 17 -57 31 -28 23 -29 28 -32 124 -5
127 22 242 73 319 19 29 41 54 48 55 6 0 19 1 27 2 24 2 17 31 -8 34 -17 3
-34 -8 -61 -36z"/>
<path d="M6228 6288 c-2 -13 3 -36 10 -51 22 -45 27 -177 9 -231 -18 -51 -60
-112 -90 -128 -27 -14 -47 12 -47 62 0 27 8 44 31 68 38 38 56 40 65 7 7 -28
22 -33 30 -10 9 23 -23 65 -50 65 -80 0 -137 -137 -85 -204 30 -38 57 -33 108
22 57 61 84 130 82 215 -2 112 -52 260 -63 185z"/>
<path d="M2869 6271 c-35 -36 -38 -75 -10 -174 l18 -67 -41 -1 c-22 -1 -53 0
-68 1 -20 1 -28 -3 -28 -15 0 -14 11 -16 71 -13 80 3 89 -3 89 -67 0 -67 -11
-115 -27 -115 -20 0 -12 -34 9 -38 9 -2 22 7 29 20 15 26 23 228 9 228 -20 0
-56 154 -46 195 9 35 43 51 66 30 15 -13 18 -14 23 -1 7 17 -23 46 -47 46 -10
0 -31 -13 -47 -29z"/>
<path d="M8045 6280 c-9 -14 3 -102 13 -96 4 2 7 -15 8 -37 0 -23 4 -82 7
-132 4 -49 5 -84 1 -77 -10 22 -36 14 -32 -10 2 -19 11 -24 48 -29 45 -6 109
9 137 32 20 17 16 56 -8 78 -30 28 -56 31 -83 10 l-23 -18 -17 110 c-12 78
-14 114 -7 123 8 9 4 19 -13 35 -16 16 -26 19 -31 11z m155 -295 c17 -20 -1
-41 -41 -50 -40 -9 -44 -3 -24 34 17 34 45 40 65 16z"/>
<path d="M7734 6235 c-24 -25 -32 -40 -24 -45 8 -5 7 -9 -4 -13 -37 -14 -51
-187 -21 -251 35 -72 141 -86 232 -30 60 37 86 81 85 141 -2 57 -42 128 -92
160 -19 12 -44 31 -55 43 -11 11 -35 22 -53 26 -28 6 -37 2 -68 -31z m143 -54
c52 -24 93 -89 93 -149 0 -124 -219 -196 -261 -85 -12 32 -14 194 -2 202 6 3
15 16 22 29 10 18 20 22 59 22 26 0 66 -9 89 -19z"/>
<path d="M3166 6229 c-15 -12 -25 -28 -22 -35 3 -8 0 -14 -7 -14 -22 0 -38
-61 -44 -165 -7 -124 6 -177 54 -222 40 -39 81 -52 94 -32 14 22 11 29 -13 27
-32 -3 -74 28 -89 65 -9 21 -14 70 -13 144 1 93 5 119 24 157 20 43 40 63 65
65 6 1 10 7 10 13 0 21 -30 20 -59 -3z"/>
<path d="M11112 6163 c2 -14 12 -17 50 -14 27 1 58 -4 76 -13 16 -8 32 -12 36
-9 26 26 -32 53 -113 53 -44 0 -52 -3 -49 -17z"/>
<path d="M12993 6123 c-41 -45 -42 -46 -31 -16 13 34 5 54 -13 36 -21 -21 -59
-147 -48 -158 11 -11 20 -2 94 94 22 28 43 51 46 51 4 0 1 -21 -7 -47 -25 -82
-15 -123 31 -123 27 0 117 44 108 53 -3 4 -1 7 6 7 7 0 10 4 6 9 -3 6 -30 -2
-61 -16 -74 -34 -83 -25 -60 62 30 107 2 126 -71 48z"/>
<path d="M8996 6152 c-3 -5 -12 -44 -21 -88 -9 -43 -20 -82 -24 -87 -4 -4 -19
20 -34 53 -14 33 -30 60 -36 60 -18 0 -12 -31 17 -90 19 -38 34 -56 49 -58 27
-4 37 14 53 93 7 33 16 68 21 77 15 27 -9 65 -25 40z"/>
<path d="M8319 6131 c-20 -16 -21 -21 -10 -47 6 -16 30 -42 51 -58 49 -36 54
-71 13 -87 -33 -12 -73 -4 -73 16 0 8 -7 15 -15 15 -23 0 -18 -37 7 -54 45
-32 118 -13 138 34 15 36 0 66 -53 105 -22 17 -42 35 -44 42 -6 17 47 29 57
13 13 -21 32 -2 20 21 -14 25 -60 25 -91 0z"/>
<path d="M4000 6107 l-32 -34 -36 19 c-47 23 -105 25 -100 2 2 -11 15 -17 40
-19 40 -2 68 -19 68 -40 0 -19 -49 -75 -63 -72 -6 1 -13 -6 -15 -15 -5 -26 43
-24 61 2 14 20 14 20 33 -1 25 -28 60 -41 90 -33 29 7 54 44 30 44 -10 0 -13
-6 -10 -15 4 -8 1 -15 -5 -15 -6 0 -11 3 -11 8 0 4 -11 8 -25 8 -70 4 -74 63
-10 129 25 25 43 50 40 56 -10 15 -21 11 -55 -24z"/>
<path d="M5484 6125 c-4 -8 -3 -22 0 -31 5 -13 9 -14 20 -4 12 9 18 6 30 -19
9 -16 16 -41 16 -54 0 -31 -32 -72 -57 -72 -26 0 -22 -29 4 -33 15 -2 32 6 47
23 24 25 25 26 35 7 6 -11 25 -25 43 -31 38 -13 98 -4 98 15 0 7 4 16 10 19 6
4 7 -1 3 -12 -6 -16 -5 -16 11 -4 28 23 4 31 -42 15 -55 -18 -95 -3 -100 37
-4 33 57 115 81 111 11 -2 17 4 17 18 0 34 -34 23 -78 -24 -36 -39 -42 -42
-47 -25 -9 28 -55 79 -71 79 -8 0 -17 -7 -20 -15z"/>
<path d="M8764 6129 c-31 -16 -55 -63 -61 -124 -5 -45 -3 -56 11 -61 20 -8 44
10 27 20 -28 18 3 121 41 135 14 5 31 5 42 -1 24 -13 49 8 26 22 -8 6 -21 8
-27 5 -7 -2 -13 0 -13 5 0 12 -19 12 -46 -1z"/>
<path d="M9107 6103 c-20 -20 -37 -40 -37 -45 0 -5 -8 -8 -17 -6 -10 2 -19 -4
-21 -14 -2 -10 2 -18 9 -18 7 0 24 -14 39 -31 25 -30 28 -31 100 -30 41 1 82
3 90 4 38 8 60 20 60 33 0 12 -6 13 -22 7 -36 -13 -201 -10 -205 4 -2 6 11 14
29 18 73 15 101 61 60 98 -27 25 -45 21 -85 -20z m68 -14 c0 -15 -53 -45 -62
-35 -9 9 39 57 51 53 6 -2 11 -10 11 -18z"/>
<path d="M9867 6126 c-7 -19 1 -26 31 -26 18 0 23 4 18 16 -3 9 -6 18 -6 20 0
11 -39 2 -43 -10z"/>
<path d="M4753 6085 c-28 -28 -34 -41 -31 -67 3 -28 7 -34 31 -36 16 -2 39 4
53 13 23 15 25 15 35 -12 24 -65 40 -211 21 -199 -17 10 -86 -16 -114 -44 -34
-35 -38 -89 -8 -138 56 -92 143 -40 157 94 5 49 8 54 29 54 31 0 32 28 2 32
-21 3 -24 10 -30 81 -5 49 -16 98 -32 133 -14 30 -21 54 -15 54 16 0 10 36 -9
53 -28 25 -50 21 -89 -18z m52 -21 c0 -24 -27 -54 -48 -54 -14 0 4 43 26 63
25 21 23 22 22 -9z m63 -356 c-3 -24 -12 -60 -21 -80 -12 -30 -22 -38 -41 -38
-28 0 -56 41 -56 84 0 33 52 76 92 76 30 0 31 -1 26 -42z"/>
<path d="M6511 6065 c-44 -77 -41 -114 9 -133 34 -13 100 -1 114 20 13 22 1
35 -18 19 -8 -7 -34 -11 -58 -9 -55 4 -59 22 -19 89 29 46 33 69 11 69 -4 0
-22 -25 -39 -55z"/>
<path d="M8543 6105 c-64 -27 -88 -110 -44 -147 26 -20 82 -24 130 -7 30 11
39 38 10 30 -45 -12 -100 -12 -114 -1 -23 19 -18 30 15 30 17 0 44 7 60 15 37
19 40 57 8 79 -27 19 -25 19 -65 1z m57 -35 c0 -14 -38 -32 -62 -28 -21 3 -21
4 -4 21 18 18 66 24 66 7z"/>
<path d="M11082 6104 c-9 -7 -15 -14 -12 -14 65 -14 190 -20 190 -10 0 26
-148 46 -178 24z"/>
<path d="M6338 6076 c-26 -13 -38 -56 -15 -56 8 0 17 7 21 15 3 9 18 15 35 15
41 0 56 -28 38 -72 -14 -33 -53 -75 -66 -70 -3 1 -6 -4 -6 -10 0 -25 36 -19
64 10 16 16 35 48 42 71 11 38 10 44 -8 69 -23 31 -72 44 -105 28z"/>
<path d="M3305 6029 c-57 -68 -3 -127 78 -84 31 16 30 17 46 -55 18 -79 14
-109 -13 -116 -39 -9 -57 -78 -34 -129 23 -51 65 -20 83 63 5 25 12 32 30 32
17 0 23 5 22 18 -1 14 -7 17 -24 14 -21 -4 -23 -1 -23 39 0 24 -11 89 -23 143
l-22 100 -47 2 c-42 3 -50 0 -73 -27z m74 -13 l23 -13 -27 -21 c-47 -37 -80
-22 -51 23 19 28 22 29 55 11z m56 -298 c-4 -13 -9 -32 -12 -42 -5 -17 -6 -17
-14 -3 -13 22 0 67 18 67 10 0 12 -6 8 -22z"/>
<path d="M9867 5986 c-7 -19 1 -26 30 -26 28 0 30 16 4 30 -25 13 -28 13 -34
-4z"/>
<path d="M4181 5074 c-18 -20 -40 -52 -49 -70 -10 -21 -18 -30 -23 -23 -4 7
-14 9 -22 6 -10 -4 -17 -28 -22 -79 -3 -40 -13 -103 -22 -139 -20 -89 -15
-241 9 -266 12 -11 21 -14 28 -7 5 5 12 64 16 130 l7 122 61 -66 c34 -36 66
-77 73 -91 22 -48 51 -77 64 -64 9 9 5 19 -15 46 -14 18 -26 38 -26 43 0 5
-25 34 -55 64 l-55 54 34 27 c41 34 100 146 115 218 10 46 9 59 -6 90 -14 28
-25 37 -49 39 -25 2 -37 -4 -63 -34z m80 -10 c7 -9 12 -34 12 -56 -3 -63 -82
-218 -119 -232 -24 -9 -64 12 -64 33 0 34 60 174 96 224 36 50 53 57 75 31z
m-194 -421 c-2 -16 -4 -3 -4 27 0 30 2 43 4 28 2 -16 2 -40 0 -55z"/>
<path d="M3065 5060 l7 -32 -31 16 c-41 22 -52 20 -100 -14 -84 -61 -76 -103
49 -280 87 -122 104 -168 75 -200 -28 -31 -88 -43 -128 -27 -51 22 -71 59 -64
124 6 54 -1 65 -23 38 -19 -22 -7 -131 18 -164 35 -48 131 -53 200 -11 63 38
55 106 -25 217 -84 115 -123 184 -123 213 0 27 39 71 72 83 26 9 68 -30 68
-62 0 -28 16 -51 36 -51 19 0 24 28 12 58 -7 15 -12 47 -12 72 -1 35 -5 45
-19 48 -16 3 -18 0 -12 -28z"/>
<path d="M14541 5066 c-28 -30 -54 -98 -81 -214 -21 -91 -22 -92 -58 -102 -20
-6 -54 -13 -75 -16 -21 -4 -36 -12 -34 -18 4 -13 44 -13 100 -2 l38 8 -7 -53
c-4 -30 -15 -77 -26 -105 -15 -43 -22 -51 -38 -47 -24 6 -27 -15 -5 -43 14
-19 15 -18 35 6 28 36 49 94 63 180 l12 74 43 11 c51 12 52 31 1 28 l-36 -1
25 101 c13 56 33 119 43 140 17 32 23 36 44 31 27 -7 35 12 13 34 -18 18 -32
15 -57 -12z"/>
<path d="M15291 5031 c-6 -10 -8 -21 -5 -24 3 -2 -11 -55 -31 -116 l-37 -111
-59 -12 c-35 -7 -59 -17 -59 -25 0 -16 41 -17 75 -1 14 6 27 9 29 7 2 -2 -5
-38 -15 -79 -19 -72 -18 -114 1 -94 4 5 18 45 29 88 11 43 26 83 33 87 7 5 30
9 51 9 20 0 37 4 37 9 0 18 -29 32 -54 25 -33 -8 -33 -5 3 103 41 125 46 153
27 153 -8 0 -20 -8 -25 -19z"/>
<path d="M11736 5018 c-29 -44 -55 -114 -66 -178 -16 -92 -19 -100 -41 -100
-24 0 -25 -28 -1 -32 18 -3 18 -7 5 -68 -20 -90 -20 -95 -3 -95 15 0 28 43 44
137 6 33 11 38 41 44 28 5 35 11 35 30 0 13 5 24 11 24 5 0 7 5 4 10 -10 17
-37 11 -42 -9 -3 -11 -12 -22 -20 -25 -13 -5 -15 1 -9 44 15 109 66 227 89
204 3 -4 14 -4 23 0 13 5 14 9 4 21 -18 22 -57 18 -74 -7z"/>
<path d="M3438 5025 c-2 -3 1 -51 8 -107 15 -121 17 -316 4 -372 -8 -36 -6
-42 16 -63 45 -41 67 -40 119 8 56 52 68 79 54 117 -28 73 -101 106 -133 60
-15 -21 -16 -18 -16 56 0 180 -25 327 -52 301z m147 -391 c35 -37 32 -76 -6
-108 -70 -59 -109 -12 -68 83 12 28 28 51 36 51 8 0 25 -12 38 -26z"/>
<path d="M4645 4925 c-7 -102 1 -421 11 -457 3 -10 12 -18 21 -18 12 0 13 8 8
38 -6 37 -9 462 -3 512 2 16 -3 25 -13 28 -14 3 -18 -13 -24 -103z"/>
<path d="M11188 5025 c-3 -3 -3 -64 0 -134 6 -169 3 -181 -49 -181 -33 0 -47
-6 -70 -31 -68 -72 -54 -208 19 -182 30 11 82 76 104 133 20 49 22 74 23 217
0 148 -7 197 -27 178z m-27 -385 c-34 -90 -91 -139 -104 -90 -13 52 32 123 83
133 14 2 28 5 32 6 5 0 -1 -21 -11 -49z"/>
<path d="M12701 4903 c-7 -71 -17 -135 -21 -143 -6 -10 -22 -13 -53 -11 -26 1
-48 -2 -52 -9 -10 -17 -3 -21 51 -26 26 -2 48 -5 50 -7 6 -6 -17 -111 -25
-117 -14 -8 -2 -50 14 -50 8 0 18 22 25 58 6 31 13 70 16 85 4 17 15 32 27 36
21 8 21 8 1 21 -19 12 -20 16 -7 109 16 127 17 181 0 181 -9 0 -17 -37 -26
-127z"/>
<path d="M13276 4998 c-2 -7 -11 -62 -21 -123 -9 -60 -21 -114 -26 -119 -5 -6
-9 -24 -9 -40 0 -59 -12 -106 -27 -106 -8 0 -12 -4 -9 -9 4 -5 1 -11 -5 -13
-5 -2 4 -23 21 -46 28 -40 50 -48 50 -19 0 7 13 21 30 30 50 30 90 76 90 106
0 32 -31 69 -71 83 -31 11 -34 21 -19 83 16 72 22 172 11 180 -6 3 -13 0 -15
-7z m47 -306 c9 -8 17 -23 17 -32 0 -18 -42 -61 -79 -80 l-24 -12 7 62 c4 34
9 67 12 75 6 15 41 9 67 -13z"/>
<path d="M13551 4964 c-9 -21 -28 -101 -85 -355 -4 -20 10 -46 20 -37 3 4 19
67 35 140 25 118 41 181 64 256 10 32 -19 29 -34 -4z"/>
<path d="M12913 4952 c-11 -7 -6 -62 6 -62 4 0 15 6 24 13 15 11 15 14 -1 34
-10 13 -22 19 -29 15z"/>
<path d="M2186 4876 l-17 -74 -73 5 c-60 5 -74 3 -79 -10 -7 -20 9 -33 53 -41
58 -10 65 -19 50 -55 -13 -33 -57 -74 -70 -66 -4 2 -18 -7 -30 -20 -13 -14
-22 -25 -19 -26 40 -10 77 -4 99 16 26 24 90 65 102 65 4 0 19 -20 34 -45 14
-25 31 -44 38 -42 13 5 12 15 -6 75 -13 44 -13 44 22 73 19 15 50 33 68 40 32
11 40 23 23 34 -5 3 -30 0 -56 -7 -55 -15 -60 -10 -71 66 -14 107 -44 113 -68
12z m46 -56 c4 -24 1 -30 -14 -30 -19 0 -22 11 -12 47 8 30 21 21 26 -17z
m-87 -58 c-3 -3 -11 0 -18 7 -9 10 -8 11 6 5 10 -3 15 -9 12 -12z m95 -11 c0
-5 -7 -17 -16 -26 -12 -12 -19 -13 -30 -4 -24 20 -16 39 16 39 17 0 30 -4 30
-9z m-78 -63 c-7 -7 -12 -8 -12 -2 0 14 12 26 19 19 2 -3 -1 -11 -7 -17z"/>
<path d="M9155 4940 c-8 -13 3 -30 18 -30 18 0 102 -89 122 -129 22 -44 31
-164 16 -219 -14 -50 -84 -132 -112 -132 -11 0 -19 -7 -19 -15 0 -10 10 -15
27 -15 38 0 106 74 128 141 22 65 17 197 -10 250 -35 69 -154 174 -170 149z"/>
<path d="M6565 4929 c-38 -19 -69 -77 -73 -139 -4 -58 -5 -59 -43 -72 -49 -16
-46 -34 5 -30 l39 3 -7 -97 c-5 -75 -4 -95 6 -92 16 6 27 63 27 145 l1 63 41
6 c43 7 60 27 40 47 -8 8 -14 9 -19 1 -4 -6 -19 -13 -34 -16 -26 -5 -28 -3
-28 29 0 47 23 98 54 118 24 16 27 16 51 -3 14 -11 21 -23 15 -25 -6 -3 -5 -5
1 -3 20 4 19 36 -2 57 -21 21 -43 23 -74 8z"/>
<path d="M11538 4918 c-22 -34 -36 -85 -44 -156 l-7 -63 -31 3 c-41 4 -44 -26
-2 -30 26 -3 28 -6 21 -35 -12 -53 -11 -72 5 -72 10 0 18 18 25 55 8 42 15 56
30 58 25 5 58 39 45 47 -5 3 -19 1 -31 -5 -11 -7 -23 -9 -26 -6 -9 8 13 131
29 163 10 20 20 27 36 26 16 -2 22 3 22 17 0 29 -53 27 -72 -2z"/>
<path d="M15447 4913 c-11 -10 -8 -53 3 -53 13 0 32 38 25 50 -7 12 -19 13
-28 3z"/>
<path d="M8777 4880 c-79 -62 -117 -216 -86 -350 20 -90 82 -145 134 -122 35
16 32 36 -4 29 -44 -9 -77 23 -97 90 -37 128 7 296 89 336 20 10 37 23 37 28
0 16 -47 9 -73 -11z"/>
<path d="M11320 4870 c0 -11 -1 -23 -2 -27 -1 -5 6 -9 15 -11 13 -3 17 4 17
27 0 21 -5 31 -15 31 -8 0 -15 -9 -15 -20z"/>
<path d="M6340 4830 c-23 -23 -30 -25 -144 -25 -86 0 -120 -3 -124 -12 -2 -7
2 -13 10 -14 7 -1 22 -2 33 -3 11 -1 36 -3 55 -4 l35 -2 0 -80 c0 -92 3 -90
-99 -92 -57 -1 -66 -3 -66 -19 0 -17 6 -18 78 -13 42 4 105 7 140 6 46 0 62 4
62 14 0 8 -16 16 -40 20 -35 6 -40 10 -46 40 -3 19 -3 54 0 78 l7 44 61 11
c33 6 63 12 65 15 3 2 3 17 1 33 l-3 28 -25 -25z"/>
<path d="M9755 4830 c-3 -5 -3 -15 1 -22 4 -7 3 -8 -4 -4 -8 5 -12 0 -12 -13
0 -23 22 -41 28 -23 2 7 10 12 18 12 17 0 18 14 4 41 -12 21 -25 25 -35 9z"/>
<path d="M5400 4816 c0 -7 7 -19 15 -26 12 -10 16 -9 21 3 3 9 3 21 -1 27 -9
15 -35 12 -35 -4z"/>
<path d="M7427 4763 c-19 -27 -65 -76 -101 -111 -36 -35 -66 -68 -66 -73 0
-24 38 -4 76 39 l43 47 -11 -43 c-21 -86 40 -100 109 -25 l43 48 0 -33 c0 -37
40 -85 67 -80 26 5 26 25 -1 32 -33 8 -39 33 -26 107 7 35 8 65 3 70 -5 5 -34
-25 -68 -70 -57 -78 -78 -97 -95 -86 -13 8 14 88 49 145 53 86 36 112 -22 33z"/>
<path d="M4510 4740 c0 -45 -7 -74 -25 -110 -37 -74 -67 -62 -83 32 -9 53 -32
63 -32 14 0 -47 27 -114 52 -127 33 -18 58 0 89 64 22 48 29 76 29 125 0 48
-3 62 -15 62 -12 0 -15 -13 -15 -60z"/>
<path d="M4842 4784 c-52 -36 -84 -156 -59 -224 16 -46 51 -58 109 -39 53 17
171 115 164 136 -3 8 -1 11 4 8 6 -3 10 1 10 9 0 26 -12 19 -74 -44 -65 -65
-136 -101 -164 -84 -20 13 -34 61 -27 92 4 15 13 22 30 22 13 0 36 11 51 23
33 29 38 82 9 103 -24 17 -26 17 -53 -2z m38 -49 c0 -17 -8 -29 -25 -37 -34
-15 -40 -6 -20 31 19 38 45 41 45 6z"/>
<path d="M9041 4774 c-47 -60 -51 -135 -6 -156 33 -15 75 -3 75 22 0 23 -4 24
-30 8 -16 -10 -23 -10 -36 4 -14 14 -14 21 -4 52 6 21 21 45 32 56 11 10 17
23 13 29 -10 17 -22 13 -44 -15z"/>
<path d="M15770 4779 c-19 -12 -53 -37 -74 -57 -25 -22 -41 -31 -44 -23 -2 6
1 18 7 25 6 7 9 21 5 30 -7 19 -34 21 -34 2 0 -7 -9 -42 -20 -76 -11 -34 -20
-67 -20 -71 0 -20 24 -6 72 42 59 59 125 109 145 109 9 0 13 -14 13 -48 0 -27
6 -57 14 -67 14 -19 16 -19 50 -2 47 22 48 41 1 33 l-35 -7 0 50 c0 87 -16 99
-80 60z"/>
<path d="M11883 4755 c-10 -15 -28 -38 -40 -52 -13 -14 -20 -30 -16 -36 3 -5
7 -26 8 -45 3 -44 34 -72 82 -72 43 0 103 27 103 46 0 18 -11 18 -46 -1 -58
-30 -104 -17 -104 30 0 27 4 34 21 37 12 2 31 15 42 29 15 22 17 33 10 55 -13
38 -37 41 -60 9z m23 -50 c-3 -8 -10 -15 -15 -15 -7 0 -6 10 1 26 12 26 25 16
14 -11z"/>
<path d="M12110 4766 c-42 -23 -72 -87 -68 -148 2 -39 7 -53 18 -53 12 0 15
13 15 55 0 67 22 105 71 126 19 8 34 19 34 24 0 14 -41 12 -70 -4z"/>
<path d="M13580 4739 c-37 -52 -50 -98 -40 -142 10 -46 17 -56 45 -67 34 -13
144 16 174 46 35 33 20 40 -34 14 -66 -32 -124 -38 -142 -15 -7 11 -13 31 -13
45 0 21 5 26 26 25 36 0 89 72 80 109 -5 21 -13 26 -36 26 -24 0 -36 -9 -60
-41z m70 5 c0 -3 -9 -19 -21 -35 -34 -48 -55 -33 -23 16 14 22 44 35 44 19z"/>
<path d="M8875 4759 c-10 -15 3 -27 34 -34 45 -10 55 -28 28 -52 -12 -12 -33
-23 -46 -25 -29 -4 -39 -25 -16 -34 23 -9 81 20 101 51 25 38 7 69 -50 88 -27
9 -48 12 -51 6z"/>
<path d="M14973 4749 c-34 -22 -73 -76 -73 -102 0 -33 30 -49 79 -42 59 9 114
32 107 44 -7 10 -10 10 -89 -8 -47 -11 -67 -8 -67 9 0 18 56 73 87 86 18 8 33
19 33 24 0 17 -43 11 -77 -11z"/>
<path d="M7878 4747 c-61 -8 -81 -21 -63 -39 8 -7 129 12 140 23 19 19 -11 25
-77 16z"/>
<path d="M10543 4731 c-32 -20 -83 -95 -83 -122 0 -9 6 -23 13 -33 16 -21 42
-16 78 15 l23 20 10 -33 c10 -29 15 -33 46 -33 24 0 35 5 35 15 0 9 -10 15
-25 15 -24 0 -25 2 -23 58 1 35 -2 57 -9 57 -6 0 -28 -20 -50 -45 -22 -25 -46
-45 -54 -45 -17 0 -17 4 0 38 21 40 61 73 96 81 17 3 32 11 33 16 4 19 -58 16
-90 -4z"/>
<path d="M12216 4719 c-20 -24 -26 -41 -26 -79 0 -29 6 -52 15 -60 16 -13 55
-5 55 12 0 6 3 8 7 5 3 -4 15 1 25 10 19 17 19 16 12 -11 -11 -47 25 -29 59
29 31 54 65 95 79 95 12 0 10 -104 -2 -116 -7 -7 -5 -17 4 -30 14 -18 15 -18
26 10 6 16 10 59 8 95 -3 61 -5 66 -27 69 -15 2 -33 -6 -50 -22 -18 -18 -34
-24 -45 -20 -12 5 -19 1 -23 -15 -3 -11 -11 -21 -17 -21 -7 0 -25 -13 -41 -30
-30 -31 -55 -39 -55 -17 0 6 15 19 33 28 38 19 57 60 37 83 -19 24 -46 19 -74
-15z m34 -34 c-7 -8 -17 -15 -23 -15 -5 0 -2 9 8 20 21 23 35 19 15 -5z"/>
<path d="M12810 4724 c-23 -59 -42 -155 -36 -179 8 -32 32 -27 29 6 0 13 7 59
18 103 10 43 19 83 19 87 0 19 -21 7 -30 -17z"/>
<path d="M15349 4747 c0 -1 -2 -21 -3 -43 -2 -23 -11 -56 -20 -74 -20 -40 -20
-60 -2 -60 17 0 42 59 51 121 6 37 4 47 -9 52 -9 4 -16 5 -17 4z"/>
<path d="M15472 4723 c1 -10 -10 -31 -25 -47 -30 -32 -37 -86 -13 -105 21 -18
92 4 111 33 10 15 14 41 13 72 -3 43 -6 49 -25 49 -11 0 -25 3 -29 8 -14 14
-35 7 -32 -10z m56 -70 c3 -23 -30 -53 -60 -53 -24 0 -23 21 3 54 24 31 53 31
57 -1z"/>
<path d="M9735 4720 c-12 -19 -26 -134 -20 -162 12 -51 30 -25 32 46 2 37 7
76 13 86 5 10 10 23 10 29 0 14 -27 14 -35 1z"/>
<path d="M9870 4701 c-15 -29 -12 -55 9 -83 25 -31 34 -69 22 -87 -8 -12 -12
-12 -25 -2 -9 8 -16 22 -16 32 0 11 -7 19 -15 19 -33 0 -14 -65 24 -84 35 -19
58 -5 67 39 6 33 -2 58 -36 112 -12 19 -12 24 3 41 22 24 21 32 -3 32 -10 0
-24 -9 -30 -19z"/>
<path d="M12937 4709 c-39 -23 -62 -110 -35 -137 20 -20 53 -14 81 14 l26 25
3 -38 c2 -25 8 -38 17 -38 11 0 15 20 18 83 3 66 1 82 -10 82 -8 0 -20 -14
-27 -30 -12 -30 -63 -80 -81 -80 -13 0 -11 34 3 65 11 24 15 27 48 29 22 2 18
31 -5 33 -11 2 -28 -2 -38 -8z"/>
<path d="M8403 4688 c-43 -47 -56 -106 -33 -149 22 -40 113 -11 132 42 3 8 8
12 11 9 6 -6 11 -88 9 -144 -2 -37 -3 -38 -33 -32 -41 8 -65 -7 -79 -48 -13
-41 -5 -92 21 -135 38 -63 89 -18 104 92 5 37 11 47 26 47 10 0 19 7 19 15 0
8 -7 15 -16 15 -14 0 -16 8 -10 51 9 64 -10 188 -35 228 -16 26 -25 31 -57 31
-27 0 -45 -7 -59 -22z m67 -27 c15 -30 12 -56 -11 -85 -48 -62 -92 2 -49 72
22 36 44 41 60 13z m35 -323 c-9 -59 -25 -99 -39 -95 -20 6 -38 81 -27 110 8
21 17 27 42 27 31 0 31 0 24 -42z"/>
<path d="M14544 4684 c-10 -14 -19 -47 -22 -74 -4 -41 -1 -50 17 -59 45 -24
101 34 114 117 6 34 -10 41 -23 11 -33 -72 -47 -94 -62 -97 -24 -5 -24 33 1
80 10 21 16 40 13 43 -11 10 -22 4 -38 -21z"/>
<path d="M14800 4701 c-8 -6 -25 -8 -37 -4 -20 4 -26 -2 -43 -38 -11 -24 -20
-52 -20 -61 0 -30 19 -29 35 2 16 30 91 88 101 77 3 -3 -2 -29 -10 -57 -15
-51 -14 -70 4 -70 12 0 42 103 38 131 -3 26 -41 37 -68 20z"/>
<path d="M3190 4674 c-21 -55 -7 -167 23 -186 26 -16 64 -7 92 22 22 23 29 41
33 83 4 52 -9 97 -27 97 -5 0 -8 -31 -7 -69 1 -55 -3 -73 -18 -90 -24 -26 -52
-27 -66 -2 -15 29 -12 114 5 137 20 26 19 34 -5 34 -13 0 -24 -10 -30 -26z"/>
<path d="M7930 4663 c-25 -11 -52 -13 -93 -8 -47 5 -58 3 -55 -7 11 -32 142
-35 184 -3 31 22 5 35 -36 18z"/>
<path d="M11310 4575 c-15 -18 -6 -45 15 -45 9 0 15 9 15 24 0 31 -14 40 -30
21z"/>
<path d="M5397 4574 c-15 -15 -7 -45 11 -42 9 2 17 12 17 22 0 20 -16 31 -28
20z"/>
<path d="M10492 4463 c-48 -121 -90 -376 -68 -412 16 -25 26 4 26 72 0 63 30
197 77 350 9 29 -23 20 -35 -10z"/>
<path d="M11685 4478 c-33 -5 -104 -7 -158 -5 -54 2 -100 0 -103 -5 -10 -15
47 -28 126 -28 l78 0 -28 -68 c-15 -37 -37 -87 -49 -110 -12 -23 -24 -63 -28
-88 -6 -43 -8 -46 -32 -41 -92 18 -182 29 -195 24 -30 -12 -18 -36 17 -34 17
0 91 -7 163 -17 136 -20 164 -18 164 9 0 12 -6 15 -21 10 -11 -4 -32 -4 -46 0
-23 5 -25 9 -19 44 5 34 53 152 91 224 8 16 15 35 15 42 0 9 25 15 85 20 57 5
85 11 82 19 -5 14 -67 16 -142 4z"/>
<path d="M13603 4461 c-73 -53 -113 -134 -113 -231 l0 -47 -59 -7 c-68 -8 -97
-25 -87 -51 6 -16 8 -16 24 -2 9 9 41 19 71 23 l54 7 -5 -55 c-5 -66 -44 -148
-98 -207 -27 -29 -43 -39 -55 -35 -13 5 -16 2 -13 -12 7 -39 43 -28 92 28 63
72 99 148 104 225 l4 61 56 9 c44 6 58 12 60 27 4 20 -2 20 -92 0 l-29 -7 6
68 c8 81 40 143 95 180 l37 25 3 -25 c4 -34 28 -32 35 3 11 57 -29 67 -90 23z"/>
<path d="M9380 4440 c0 -11 -12 -49 -26 -84 -25 -63 -27 -65 -65 -68 -51 -4
-55 -22 -5 -26 36 -3 38 -5 33 -30 -3 -15 -9 -55 -13 -89 -5 -52 -4 -63 8 -63
11 0 18 23 28 91 l12 90 41 -1 c73 -3 87 -1 87 15 0 12 -13 15 -60 15 l-60 0
22 53 c29 72 35 117 14 117 -9 0 -16 -8 -16 -20z"/>
<path d="M6034 4426 c-8 -21 -1 -49 14 -54 8 -2 12 7 12 27 0 33 -17 51 -26
27z"/>
<path d="M12675 4313 c-87 -101 -137 -145 -151 -130 -11 10 22 54 56 73 31 19
38 38 19 49 -5 4 -32 -15 -60 -43 -52 -52 -63 -88 -34 -112 21 -18 53 -2 115
56 l50 47 -16 -44 c-26 -74 -6 -139 43 -139 34 0 98 37 114 66 19 37 3 40 -35
6 -100 -88 -134 -17 -61 128 21 41 46 86 56 99 22 27 25 51 7 50 -7 0 -53 -48
-103 -106z"/>
<path d="M2786 4363 c-3 -21 -6 -65 -7 -98 0 -56 -7 -106 -24 -197 -12 -60 17
-48 62 23 20 34 38 57 39 53 1 -5 5 -25 8 -46 7 -38 32 -57 50 -37 8 8 8 13
-1 16 -7 3 -13 19 -13 36 0 36 -19 78 -37 84 -6 2 -23 -13 -37 -33 l-25 -38 5
90 c2 49 6 110 9 137 5 59 -19 67 -29 10z"/>
<path d="M8925 4370 c-7 -12 12 -50 25 -50 6 0 10 14 10 30 0 30 -21 42 -35
20z"/>
<path d="M9591 4315 c-57 -54 -58 -56 -51 -96 8 -44 30 -65 75 -74 41 -9 75
-3 104 17 34 24 23 41 -14 22 -33 -17 -96 -14 -120 6 -30 25 -17 49 39 74 32
15 57 32 61 45 7 22 -10 61 -26 61 -6 0 -37 -25 -68 -55z m64 5 c-3 -5 -16
-15 -28 -21 -22 -12 -22 -12 -3 10 19 21 43 30 31 11z"/>
<path d="M14125 4360 c-8 -12 16 -50 32 -50 16 0 17 15 3 41 -12 21 -25 25
-35 9z"/>
<path d="M6156 4339 c-22 -17 -27 -28 -24 -58 3 -33 8 -38 61 -64 39 -19 57
-34 57 -46 0 -36 -62 -42 -97 -9 -19 17 -26 19 -36 9 -9 -10 -6 -17 16 -37 39
-33 99 -33 132 1 14 13 25 28 25 33 0 20 -38 55 -81 76 -44 21 -56 40 -40 64
9 16 47 19 74 8 24 -11 23 20 -2 34 -30 15 -56 12 -85 -11z"/>
<path d="M7341 4347 c-17 -22 -73 -198 -67 -214 10 -24 25 -13 71 52 26 36 49
65 51 65 2 0 1 -20 -3 -45 -4 -33 -1 -51 11 -70 19 -30 44 -31 106 -6 40 17
44 22 47 55 2 43 -15 45 -35 3 -16 -32 -79 -57 -93 -36 -5 8 -7 28 -4 44 17
88 18 125 2 125 -14 0 -54 -40 -89 -90 -14 -19 -12 -8 7 45 23 67 21 102 -4
72z"/>
<path d="M5264 4306 c-33 -32 -44 -51 -44 -73 0 -23 -9 -37 -35 -57 -32 -25
-36 -26 -42 -9 -9 26 -52 83 -63 83 -5 0 -16 -13 -24 -29 -32 -61 -106 -78
-106 -25 0 34 56 92 73 75 16 -16 27 -13 27 8 0 17 -18 31 -40 31 -20 0 -79
-63 -90 -95 -30 -90 83 -113 148 -30 l20 25 16 -34 c9 -19 16 -37 16 -41 0 -4
-17 -27 -39 -50 -58 -63 -80 -180 -42 -226 15 -19 21 -21 34 -11 28 23 69 134
75 199 4 58 8 66 40 93 l36 29 18 -30 c26 -42 79 -63 123 -49 63 21 114 80 70
80 -8 0 -15 -4 -15 -10 0 -15 -56 -40 -89 -40 -21 0 -37 9 -56 32 l-27 32 45
41 c56 50 72 78 57 105 -16 30 -38 24 -86 -24z m56 -4 c0 -4 -16 -23 -35 -42
-41 -39 -47 -26 -9 19 25 30 44 40 44 23z m-202 -264 c-6 -52 -47 -150 -59
-142 -8 5 -5 51 6 110 5 21 42 74 52 74 3 0 3 -19 1 -42z"/>
<path d="M4317 4326 c-15 -11 -18 -31 -20 -107 -2 -82 0 -94 16 -97 15 -3 17
6 17 75 0 102 12 121 64 103 43 -14 51 -11 33 14 -17 23 -86 31 -110 12z"/>
<path d="M7111 4311 c-45 -62 -49 -111 -11 -131 13 -7 27 -4 54 15 l36 24 0
-42 c0 -50 12 -72 34 -64 14 6 15 11 5 28 -8 15 -9 45 -3 98 4 42 8 80 9 86 0
5 -8 11 -17 13 -12 2 -18 -3 -18 -15 -1 -17 -1 -17 -11 0 -16 27 -55 21 -78
-12z m62 -32 c4 -15 -2 -29 -20 -45 -14 -13 -30 -24 -34 -24 -17 0 -9 47 12
74 23 29 34 28 42 -5z"/>
<path d="M10071 4323 c-5 -10 -14 -37 -20 -60 -7 -24 -22 -55 -36 -70 -22 -27
-25 -27 -41 -11 -10 10 -18 35 -20 56 -2 53 -19 79 -55 87 -25 6 -36 2 -60
-21 -29 -27 -69 -99 -69 -122 0 -31 32 -7 51 38 25 57 49 79 82 73 19 -4 22
-10 19 -41 -2 -23 4 -50 16 -72 35 -64 90 -49 127 33 29 63 42 127 26 127 -5
0 -14 -8 -20 -17z"/>
<path d="M10191 4314 c-58 -49 -78 -114 -41 -134 17 -9 31 -6 75 18 l53 29 6
-32 c7 -37 29 -51 45 -31 8 10 7 17 -5 26 -12 11 -14 24 -9 62 8 56 -4 62 -40
20 -24 -29 -101 -70 -111 -59 -9 8 24 64 47 81 17 11 26 12 40 3 23 -14 37 -2
23 21 -17 27 -48 25 -83 -4z"/>
<path d="M6015 4307 c-4 -9 -2 -23 4 -31 8 -10 7 -31 -4 -82 -22 -95 -22 -99
-5 -99 15 0 33 54 45 140 5 32 2 46 -13 65 -19 23 -21 23 -27 7z"/>
<path d="M2470 4293 c-19 -8 -52 -18 -74 -22 -27 -4 -42 -12 -44 -24 -5 -24
18 -22 105 9 41 15 76 24 79 21 12 -12 -85 -146 -127 -175 -20 -14 -26 -42 -8
-42 5 0 31 16 56 35 35 27 49 32 59 24 8 -6 12 -15 9 -19 -3 -4 5 -19 16 -34
30 -38 79 -36 113 4 38 46 49 135 16 135 -10 0 -14 -13 -15 -42 -1 -30 -8 -50
-25 -68 -35 -38 -58 -32 -80 19 -10 24 -24 46 -32 49 -10 3 -8 10 8 28 38 42
57 88 43 105 -15 18 -54 17 -99 -3z"/>
<path d="M4476 4272 c-37 -40 -45 -93 -17 -121 34 -34 91 -23 136 25 l25 27 0
-41 c0 -49 8 -72 25 -72 10 0 11 17 7 68 -8 112 -29 142 -55 80 -24 -56 -83
-92 -112 -68 -21 18 -19 34 12 70 22 27 32 31 59 27 37 -6 49 1 33 20 -21 24
-82 16 -113 -15z"/>
<path d="M9041 4253 c-49 -59 -88 -140 -74 -154 8 -8 19 4 42 48 17 32 43 71
57 87 25 26 27 26 45 10 23 -20 24 -47 5 -102 -10 -28 -11 -44 -5 -48 14 -8
24 4 38 45 16 50 14 89 -10 122 -29 41 -60 38 -98 -8z"/>
<path d="M3186 4267 c-27 -19 -14 -49 39 -89 51 -38 70 -77 51 -104 -18 -23
-66 -12 -66 16 0 11 -7 20 -15 20 -23 0 -18 -47 7 -64 54 -38 126 -2 114 58
-8 40 -39 81 -60 80 -9 -1 -16 4 -16 12 0 7 -9 19 -21 27 -25 18 -11 30 29 25
19 -2 27 2 27 12 0 20 -64 25 -89 7z"/>
<path d="M12353 4261 c-17 -11 -39 -17 -50 -15 -18 5 -22 -1 -63 -84 -23 -46
15 -34 73 24 60 60 79 66 53 15 -21 -39 -21 -81 -1 -81 8 0 15 9 15 20 0 12 9
38 20 60 24 47 25 66 4 74 -20 8 -14 9 -51 -13z"/>
<path d="M3404 4237 c-31 -28 -37 -42 -42 -85 -4 -47 -2 -54 27 -83 31 -30 35
-31 91 -26 68 6 113 25 118 50 4 22 -13 22 -36 0 -11 -12 -37 -19 -74 -21 -47
-3 -60 0 -77 17 -29 29 -26 50 7 61 76 28 102 61 76 99 -21 30 -49 26 -90 -12z
m64 -19 c-5 -16 -57 -42 -65 -34 -4 3 2 15 12 26 20 22 59 28 53 8z"/>
<path d="M4748 4235 c-43 -40 -65 -110 -32 -103 10 2 21 16 26 34 9 35 52 79
67 69 6 -3 11 -37 11 -76 0 -54 4 -71 16 -76 19 -7 41 11 25 21 -6 4 -11 34
-11 67 0 105 -35 127 -102 64z"/>
<path d="M14161 4254 c-25 -18 -25 -29 0 -111 15 -49 10 -60 -20 -42 -23 15
-36 7 -28 -15 8 -21 54 -31 72 -16 19 16 19 61 0 107 -16 38 -7 63 21 63 8 0
14 7 14 15 0 20 -30 19 -59 -1z"/>
<path d="M12086 4239 c-28 -22 -56 -68 -56 -93 0 -9 11 -23 26 -32 24 -16 26
-16 53 3 27 21 28 21 40 2 17 -29 33 -13 25 26 -3 19 -1 35 5 39 15 9 14 49
-1 64 -18 18 -62 14 -92 -9z m74 -19 c0 -6 -15 -27 -33 -47 -24 -25 -39 -34
-51 -30 -14 6 -15 10 -5 29 22 43 89 79 89 48z"/>
<path d="M2980 4218 c-25 -41 -27 -113 -4 -122 8 -3 13 -10 10 -15 -7 -11 22
-37 52 -46 34 -10 81 13 88 42 10 37 -17 84 -75 132 l-50 42 -21 -33z m40 -26
c0 -4 10 -12 23 -17 12 -6 31 -26 42 -47 16 -31 17 -38 5 -53 -17 -21 -58 -13
-82 17 -18 20 -23 63 -12 92 6 16 24 22 24 8z"/>
<path d="M8876 4192 c-20 -66 -18 -117 4 -117 10 0 14 8 12 24 -1 14 4 48 13
77 18 64 19 74 2 74 -8 0 -21 -25 -31 -58z"/>
<path d="M14054 4195 c-7 -19 -14 -40 -14 -47 0 -7 -7 -26 -15 -42 -10 -18
-12 -33 -6 -39 11 -11 34 1 26 14 -4 5 -2 9 3 9 9 0 42 102 42 128 0 25 -22
11 -36 -23z"/>
<path d="M3283 3988 c-5 -7 -16 -53 -23 -102 -10 -72 -16 -89 -31 -93 -24 -7
-24 -12 -1 -29 14 -10 17 -26 15 -89 -1 -66 1 -76 15 -73 19 4 19 3 21 97 l1
70 52 3 c70 4 77 27 8 26 -28 0 -54 2 -57 5 -2 3 2 45 10 94 15 85 11 118 -10
91z"/>
<path d="M8190 3936 l0 -64 -36 -4 c-22 -3 -46 2 -65 14 -36 22 -49 23 -49 3
0 -20 54 -46 100 -47 l38 0 -2 -91 c-1 -119 19 -131 27 -15 3 46 8 90 12 99 3
9 24 25 46 35 22 10 49 29 60 42 18 24 19 24 19 4 0 -12 -9 -67 -20 -123 -11
-56 -17 -106 -14 -110 10 -17 23 -8 48 36 15 25 29 45 32 45 3 0 17 -13 31
-30 13 -16 31 -30 38 -30 7 0 28 -12 46 -27 27 -24 45 -29 107 -33 44 -3 77
-1 81 5 5 5 19 36 32 68 40 100 64 101 72 4 5 -58 17 -84 34 -74 14 9 -4 135
-22 163 -21 32 -50 30 -76 -5 -12 -16 -30 -32 -41 -34 -11 -3 -19 -13 -18 -24
1 -10 2 -31 1 -46 -1 -25 -3 -27 -23 -16 -16 9 -23 9 -26 0 -5 -16 -65 -14
-88 4 -10 8 -14 15 -8 15 6 0 23 11 38 25 30 28 36 79 10 89 -23 9 -64 -21
-77 -55 -14 -37 -31 -37 -59 1 -23 31 -55 39 -77 18 -10 -11 -10 -4 -4 32 12
69 10 147 -5 162 -11 11 -19 6 -44 -25 -17 -21 -44 -45 -59 -53 l-29 -15 0 61
c0 47 -3 60 -15 60 -12 0 -15 -14 -15 -64z m370 -164 c0 -5 -9 -17 -20 -27
-22 -20 -26 -14 -10 16 11 19 30 26 30 11z"/>
<path d="M7235 3948 c-44 -5 -101 -6 -127 -3 -54 6 -73 -10 -31 -26 32 -12
227 -2 256 13 18 9 14 29 -6 27 -7 -1 -48 -6 -92 -11z"/>
<path d="M3488 3929 c-27 -15 -22 -36 10 -42 36 -7 47 5 25 31 -14 17 -22 19
-35 11z"/>
<path d="M7179 3788 l-24 -123 -52 3 c-72 5 -113 -5 -113 -28 0 -16 4 -17 37
-8 46 13 123 2 123 -18 0 -15 25 -20 34 -6 3 5 33 5 68 1 44 -5 65 -4 70 4 15
23 8 27 -44 27 -29 0 -62 3 -74 6 l-21 5 23 112 c27 132 28 147 10 147 -9 0
-21 -38 -37 -122z"/>
<path d="M2468 3879 c-49 -28 -84 -141 -58 -188 23 -45 140 -53 140 -11 0 21
-15 27 -25 10 -9 -15 -48 -12 -73 6 -43 30 -14 132 44 154 26 10 28 33 3 37
-8 2 -22 -2 -31 -8z"/>
<path d="M4700 3852 c-19 -9 -36 -25 -38 -35 -2 -10 13 -43 33 -73 59 -90 69
-144 25 -144 -22 0 -30 19 -30 71 0 48 -25 54 -34 7 -9 -48 21 -102 59 -106
45 -4 60 11 60 61 0 34 -9 57 -42 108 -24 36 -43 68 -43 72 0 3 15 10 33 15
17 4 32 14 32 22 0 21 -17 22 -55 2z"/>
<path d="M2682 3833 c-17 -7 -52 -77 -52 -106 0 -13 8 -31 18 -40 32 -29 80
-19 130 26 61 56 -15 153 -96 120z m72 -42 c10 -11 16 -28 14 -38 -4 -22 -72
-57 -95 -49 -34 13 11 106 52 106 6 0 20 -9 29 -19z"/>
<path d="M3800 3783 c0 -64 27 -135 57 -151 45 -24 93 33 93 110 0 51 -12 73
-34 65 -13 -5 -15 -11 -6 -26 21 -40 1 -121 -30 -121 -20 0 -43 54 -49 112 -8
83 -31 91 -31 11z"/>
<path d="M2862 3763 c-12 -38 -25 -76 -28 -85 -13 -36 25 -17 59 30 20 26 45
56 56 66 l21 19 0 -54 c0 -57 16 -99 39 -107 11 -4 12 1 6 19 -6 20 -13 93
-15 162 0 26 -31 20 -65 -13 l-32 -31 5 31 c3 21 0 30 -9 30 -9 0 -24 -28 -37
-67z"/>
<path d="M4071 3806 c-15 -15 -25 -42 -28 -70 -5 -38 -2 -48 20 -70 35 -35 71
-33 108 3 32 33 36 56 15 106 -24 58 -77 72 -115 31z m83 -38 c21 -30 20 -54
-4 -78 -24 -24 -43 -25 -64 -4 -31 31 -7 104 34 104 10 0 26 -10 34 -22z"/>
<path d="M4350 3786 c-8 -28 -27 -59 -56 -87 -24 -24 -44 -47 -44 -51 0 -17
40 -7 54 13 15 22 36 18 36 -7 0 -8 9 -23 21 -35 20 -20 21 -20 47 -3 15 10
36 29 47 43 48 60 46 59 42 18 -3 -34 0 -40 22 -48 34 -13 50 4 28 29 -11 12
-17 36 -17 71 0 68 -13 65 -76 -19 -62 -82 -79 -84 -78 -10 1 30 3 70 5 89 6
50 -16 49 -31 -3z"/>
<path d="M3589 3801 c-33 -26 -95 -159 -81 -173 16 -16 29 -2 47 52 16 49 58
110 75 110 10 0 28 -57 32 -100 2 -14 9 -25 18 -25 20 0 15 66 -8 115 -20 42
-48 49 -83 21z"/>
<path d="M6182 3797 c-17 -13 -44 -36 -58 -51 -15 -14 -29 -24 -32 -21 -3 3 0
11 6 17 19 19 14 30 -10 26 -18 -2 -23 -9 -23 -35 0 -17 -3 -29 -6 -27 -5 3
-29 -62 -29 -80 0 -18 27 1 91 67 39 39 68 63 64 52 -23 -71 -27 -116 -11
-140 18 -28 44 -31 97 -14 42 14 74 48 59 63 -7 7 -14 5 -22 -6 -13 -16 -69
-38 -95 -38 -18 0 -14 68 7 142 18 62 6 77 -38 45z"/>
<path d="M3135 3790 c-10 -16 -1 -22 35 -26 25 -3 31 0 28 14 -4 20 -52 29
-63 12z"/>
<path d="M3437 3786 c-3 -8 -9 -47 -13 -86 -6 -60 -4 -72 7 -68 8 3 17 22 20
44 19 119 20 124 5 124 -8 0 -16 -6 -19 -14z"/>
<path d="M5863 3778 c-30 -35 -46 -84 -40 -124 12 -75 46 -83 106 -23 67 67
68 140 3 159 -48 13 -45 13 -69 -12z m85 -50 c2 -19 -7 -38 -34 -68 -35 -39
-39 -40 -51 -24 -21 29 -15 60 18 94 37 36 63 36 67 -2z"/>
<path d="M4929 3749 c-16 -17 -29 -37 -29 -45 0 -8 -7 -14 -15 -14 -8 0 -15
-7 -15 -15 0 -8 4 -15 10 -15 5 0 17 -16 26 -35 9 -20 29 -42 45 -50 29 -16
98 -19 161 -9 36 6 78 35 78 54 0 15 -21 12 -41 -6 -11 -10 -44 -17 -91 -21
-65 -5 -76 -3 -100 17 -33 26 -36 40 -8 40 35 0 79 29 86 56 18 72 -53 101
-107 43z m78 -16 c7 -19 -29 -53 -58 -53 -25 0 -24 18 3 47 25 27 46 30 55 6z"/>
<path d="M7614 3653 c-3 -10 -15 -38 -27 -63 -17 -35 -28 -46 -49 -48 -20 -2
-28 -9 -28 -23 0 -58 102 16 124 90 7 25 12 49 9 54 -8 13 -24 7 -29 -10z"/>
<path d="M9384 3345 c-21 -32 -14 -150 24 -410 35 -242 38 -542 7 -620 -11
-27 -27 -51 -36 -53 -19 -4 -141 113 -137 132 2 8 0 15 -4 15 -24 2 -28 -1
-28 -21 0 -24 117 -144 155 -158 28 -11 60 22 82 84 27 76 24 399 -5 592 -33
223 -47 401 -32 419 19 23 39 18 50 -11 11 -29 37 -27 32 2 -10 55 -79 73
-108 29z"/>
<path d="M3382 3248 c-7 -7 -12 -44 -12 -97 0 -66 10 -126 45 -274 66 -274 83
-436 59 -554 -4 -20 -7 -21 -35 -11 -17 6 -45 24 -62 40 -18 16 -42 37 -54 45
-13 8 -23 22 -23 30 0 20 -44 13 -48 -9 -5 -25 107 -113 169 -133 52 -17 53
-17 69 3 26 31 33 174 16 302 -8 58 -35 189 -60 292 -34 138 -46 206 -46 262
0 76 10 94 30 56 11 -20 50 -28 50 -11 0 15 -57 71 -72 71 -8 0 -19 -5 -26
-12z"/>
<path d="M10667 3232 c-4 -6 6 -32 23 -59 82 -128 91 -282 26 -411 -20 -40
-39 -72 -42 -72 -3 0 -2 5 1 10 3 6 1 10 -4 10 -6 0 -11 -14 -11 -31 0 -56 32
-30 80 65 l45 88 0 107 c-1 93 -4 114 -28 172 -31 74 -80 139 -90 121z"/>
<path d="M11117 3218 c-4 -12 -2 -27 3 -32 13 -13 13 -80 1 -126 -5 -19 -15
-60 -21 -92 -9 -45 -15 -57 -34 -62 -86 -21 -117 -143 -41 -162 40 -10 71 18
90 81 8 31 13 60 10 65 -4 6 3 57 15 114 25 123 24 229 -1 234 -10 2 -19 -6
-22 -20z m-27 -353 c0 -23 -26 -81 -40 -90 -7 -4 -19 0 -27 8 -13 13 -14 21
-4 45 17 40 71 68 71 37z"/>
<path d="M10244 3198 c-54 -57 -134 -196 -164 -287 -45 -135 -38 -245 20 -303
32 -32 84 -39 94 -12 9 23 -3 37 -19 24 -21 -17 -53 -2 -71 32 -39 74 -24 209
35 328 44 88 122 201 148 213 13 6 22 15 20 21 -7 22 -33 15 -63 -16z"/>
<path d="M9865 3196 c-20 -15 -33 -99 -34 -223 -1 -57 -3 -63 -22 -63 -39 0
-99 -23 -99 -38 0 -11 7 -13 33 -7 90 20 81 24 73 -36 -4 -31 -17 -68 -31 -88
-23 -33 -24 -66 -1 -58 18 6 55 78 61 122 11 70 14 75 47 75 38 0 33 24 -6 28
l-28 4 7 121 c8 140 16 159 53 125 13 -13 28 -33 33 -45 11 -28 39 -21 32 8
-7 27 -66 89 -85 89 -8 0 -23 -6 -33 -14z"/>
<path d="M7647 3184 c-3 -3 4 -24 16 -47 17 -32 21 -59 21 -134 l1 -95 -46 -3
c-58 -3 -85 -21 -103 -65 -31 -78 27 -125 105 -84 53 27 74 90 74 224 0 146
-31 240 -68 204z m27 -329 c-10 -34 -34 -65 -59 -77 -34 -15 -55 -4 -55 30 0
44 39 71 97 68 18 0 22 -5 17 -21z"/>
<path d="M5600 3169 c0 -6 27 -45 60 -88 69 -89 87 -133 96 -234 7 -84 -16
-228 -47 -288 -28 -56 -79 -111 -96 -104 -22 8 -36 -5 -22 -21 49 -59 152 75
185 241 18 93 13 226 -11 295 -18 50 -133 209 -152 210 -7 0 -13 -5 -13 -11z"/>
<path d="M3928 3133 c-39 -45 -50 -84 -46 -170 3 -92 6 -88 -62 -95 -14 -2
-25 -9 -25 -18 0 -8 5 -14 10 -14 6 1 28 5 50 8 l40 7 23 -63 c26 -74 28 -92
7 -84 -10 4 -14 0 -12 -14 5 -28 13 -33 36 -20 27 14 27 49 1 118 -27 70 -26
79 13 87 47 11 59 22 44 46 -15 24 -22 24 -46 -2 -34 -37 -51 -19 -51 56 0 71
28 145 55 145 8 0 15 7 15 15 0 21 -33 19 -52 -2z"/>
<path d="M4241 3129 c-48 -52 -90 -212 -91 -344 0 -112 43 -206 112 -241 26
-14 58 -10 58 6 0 5 -15 13 -33 19 -63 21 -107 110 -107 215 0 126 54 317 95
332 19 8 20 34 0 34 -8 0 -23 -10 -34 -21z"/>
<path d="M6283 3072 c-74 -77 -83 -92 -60 -92 16 0 157 141 157 158 0 26 -28
7 -97 -66z"/>
<path d="M6743 3121 c-43 -20 -85 -77 -103 -143 -36 -125 -31 -307 11 -390 47
-92 162 -158 222 -126 26 14 21 31 -9 25 -63 -12 -147 40 -185 115 -38 74 -43
228 -12 357 17 73 72 141 113 141 33 0 43 9 29 27 -14 17 -16 16 -66 -6z"/>
<path d="M7220 3101 c0 -5 8 -15 17 -22 9 -8 36 -44 60 -81 94 -145 127 -250
104 -335 -13 -47 -78 -140 -103 -149 -24 -7 -23 -34 2 -34 12 0 37 22 65 57
115 147 99 264 -67 516 -25 37 -45 57 -58 57 -11 0 -20 -4 -20 -9z"/>
<path d="M4825 3044 c-48 -52 -70 -128 -70 -249 0 -97 3 -115 23 -150 13 -22
37 -50 55 -62 35 -23 102 -45 111 -35 13 12 6 52 -9 52 -8 0 -15 -4 -15 -9 0
-15 -61 6 -86 30 -53 50 -70 196 -36 302 26 77 48 109 72 102 23 -7 36 11 20
30 -18 22 -38 18 -65 -11z"/>
<path d="M5370 3054 c0 -3 14 -23 30 -44 37 -47 61 -101 71 -162 7 -43 3 -71
-28 -205 -4 -16 -1 -23 10 -23 20 0 50 109 51 185 0 61 -28 165 -45 165 -5 0
-9 5 -9 12 0 18 -50 78 -66 78 -7 0 -14 -3 -14 -6z"/>
<path d="M7975 2964 c-30 -31 -57 -65 -60 -75 -6 -17 -7 -17 -25 1 -20 20 -81
36 -105 26 -27 -10 -5 -34 31 -34 36 0 64 -16 64 -36 0 -17 -59 -76 -76 -76
-8 0 -14 -7 -14 -15 0 -26 41 -16 76 19 29 29 34 31 34 15 0 -32 45 -69 82
-69 27 0 37 6 51 32 23 40 7 59 -21 24 -24 -31 -43 -33 -65 -8 -20 22 -21 66
-4 104 14 31 83 108 97 108 5 0 10 6 10 14 0 34 -24 24 -75 -30z"/>
<path d="M11291 2968 c-20 -66 -58 -139 -96 -183 -19 -22 -35 -43 -35 -47 0
-10 40 -10 40 0 0 4 14 23 30 42 l29 35 16 -22 c25 -35 52 -28 106 28 44 45
49 48 49 27 0 -34 27 -68 54 -68 23 0 66 33 66 50 0 15 -26 12 -40 -5 -34 -42
-57 2 -46 91 5 42 3 54 -8 54 -7 0 -20 -15 -27 -32 -13 -34 -105 -138 -120
-138 -14 0 -11 60 6 123 18 71 19 87 2 87 -8 0 -20 -19 -26 -42z"/>
<path d="M8565 2954 c-27 -13 -56 -24 -62 -24 -7 0 -13 -5 -13 -10 0 -22 31
-21 84 3 34 16 58 22 62 16 9 -15 34 10 27 27 -7 20 -40 16 -98 -12z"/>
<path d="M5060 2930 c0 -15 7 -20 24 -20 29 0 56 -33 49 -60 -7 -27 -52 -65
-76 -65 -30 0 -28 -29 2 -33 26 -4 101 60 102 88 0 8 5 0 12 -19 14 -40 49
-68 95 -77 29 -6 32 -4 32 20 0 23 -3 25 -29 20 -45 -9 -75 26 -67 79 4 23 12
47 17 54 11 13 4 33 -11 33 -5 0 -14 -16 -22 -36 -11 -32 -14 -33 -25 -18 -18
24 -65 54 -85 54 -11 0 -18 -8 -18 -20z"/>
<path d="M10297 2865 c-44 -46 -76 -88 -73 -94 8 -12 46 -2 46 13 0 7 16 28
36 47 l35 34 -6 -27 c-9 -36 1 -78 19 -78 20 0 66 39 86 73 l18 30 11 -41 c12
-44 26 -54 54 -40 25 13 23 41 -3 33 -16 -5 -20 -2 -22 17 -1 13 -2 30 -4 38
-1 8 -2 27 -3 43 -2 42 -28 33 -55 -20 -13 -27 -36 -59 -51 -73 l-27 -25 8 30
c4 17 13 47 21 69 28 82 8 75 -90 -29z"/>
<path d="M5979 2925 c-14 -8 -32 -28 -39 -44 -26 -65 20 -119 78 -90 15 7 30
15 35 17 4 2 7 -2 7 -8 0 -6 14 -43 31 -82 32 -74 32 -98 -1 -98 -31 0 -98
-67 -106 -105 -13 -72 70 -160 111 -118 26 26 44 68 56 136 11 58 14 65 30 56
25 -13 37 10 14 28 -11 7 -24 13 -31 13 -6 0 -14 10 -17 23 -12 51 -86 232
-96 235 -6 2 -11 12 -11 22 0 10 -7 21 -16 24 -19 7 -13 8 -45 -9z m44 -46
c14 -10 0 -56 -19 -63 -18 -7 -44 10 -44 29 0 7 10 25 22 40 16 20 23 24 26
14 3 -8 9 -17 15 -20z m102 -326 c-10 -64 -40 -133 -60 -133 -23 0 -57 60 -50
90 10 40 54 75 113 89 2 1 0 -20 -3 -46z"/>
<path d="M7006 2891 l-18 -38 -23 23 c-13 13 -32 24 -42 25 -10 1 -31 2 -47 3
-47 2 -42 -21 6 -29 46 -8 78 -29 78 -52 0 -22 -58 -76 -75 -69 -18 7 -31 -12
-17 -26 16 -16 60 -1 88 29 23 24 25 25 42 10 24 -22 108 -23 128 -2 14 13 9
15 -45 15 -73 0 -83 16 -52 86 25 55 26 64 8 64 -8 0 -22 -17 -31 -39z"/>
<path d="M8610 2880 c-30 -10 -70 -19 -87 -19 -42 -1 -47 -31 -5 -31 44 0 192
44 192 58 0 17 -35 14 -100 -8z"/>
<path d="M4436 2865 c-26 -26 -41 -91 -28 -120 13 -29 47 -33 73 -9 17 16 19
15 29 -12 7 -16 14 -49 17 -74 4 -42 2 -48 -31 -79 -20 -19 -36 -42 -36 -50 1
-9 16 -33 35 -55 49 -56 65 -45 65 44 0 57 4 74 20 90 24 24 58 26 66 5 10
-24 34 -18 34 9 0 35 -48 53 -87 32 l-29 -15 -12 57 c-7 31 -23 81 -37 110
-14 30 -25 60 -25 68 0 19 -35 18 -54 -1z m34 -77 c0 -30 -16 -46 -32 -30 -7
7 -6 22 2 47 14 41 30 32 30 -17z m60 -275 c0 -36 0 -36 -20 -18 -19 17 -19
19 -4 37 23 24 24 24 24 -19z"/>
<path d="M3880 2701 c0 -6 4 -13 10 -16 6 -3 7 1 4 9 -7 18 -14 21 -14 7z"/>
</g>
</svg>
