<?xml version="1.0" standalone="no"?>
<!DOCTYPE svg PUBLIC "-//W3C//DTD SVG 20010904//EN"
 "http://www.w3.org/TR/2001/REC-SVG-20010904/DTD/svg10.dtd">
<svg version="1.0" xmlns="http://www.w3.org/2000/svg"
 width="1618.000000pt" height="1214.000000pt" viewBox="0 0 1618.000000 1214.000000"
 preserveAspectRatio="xMidYMid meet">

<g transform="translate(0.000000,1214.000000) scale(0.100000,-0.100000)"
fill="#000000" stroke="none">
<path d="M14921 11571 c-35 -52 -46 -60 -81 -66 -84 -14 -159 -126 -116 -174
15 -17 14 -22 -23 -87 -40 -69 -55 -124 -36 -130 6 -2 18 17 28 43 9 27 30 69
47 96 25 39 35 47 60 47 38 0 98 24 127 52 29 27 29 63 2 107 -20 33 -20 35
-2 69 10 19 28 46 41 60 26 29 28 42 7 42 -8 0 -32 -27 -54 -59z m-81 -106 c0
-10 -75 -125 -81 -125 -16 0 -18 34 -4 64 17 35 85 84 85 61z m65 -25 c19 -36
13 -63 -18 -83 -24 -16 -87 -32 -87 -23 0 8 81 136 86 136 2 0 11 -14 19 -30z"/>
<path d="M15456 11585 c-16 -8 -34 -15 -40 -14 -34 4 -66 -3 -86 -19 -22 -18
-23 -20 -7 -52 10 -18 17 -34 17 -35 0 -2 -14 -8 -30 -15 -17 -7 -37 -22 -45
-34 -15 -21 -20 -72 -9 -101 9 -23 62 -48 90 -41 29 8 39 38 39 124 0 61 1 62
32 73 54 17 113 66 113 93 0 21 -16 36 -38 36 -4 0 -20 -7 -36 -15z m44 -27
c0 -13 -88 -59 -117 -61 -22 -2 -28 2 -28 18 0 24 39 33 61 14 13 -10 17 -10
24 1 4 7 6 18 4 24 -2 6 8 11 26 11 16 0 30 -3 30 -7z m-144 -180 c-8 -75 -16
-87 -50 -64 -26 16 -35 58 -18 81 9 14 55 44 66 44 5 1 6 -26 2 -61z"/>
<path d="M15118 11523 c-32 -94 -61 -229 -54 -248 14 -37 25 -6 65 185 4 19
13 45 19 57 16 29 15 53 -1 53 -7 0 -20 -21 -29 -47z"/>
<path d="M14545 11543 c-22 -9 -43 -21 -47 -27 -15 -23 10 -25 60 -4 28 12 54
19 57 17 3 -3 -2 -28 -10 -56 -18 -59 -89 -133 -159 -163 -25 -10 -49 -28 -55
-39 -18 -33 6 -36 49 -6 45 31 70 27 70 -9 0 -37 42 -63 76 -47 27 12 24 33
-4 30 -34 -3 -42 1 -42 24 0 12 -4 28 -9 35 -6 10 6 29 40 63 48 49 85 134 77
177 -4 23 -53 26 -103 5z"/>
<path d="M12969 11511 c-17 -31 -29 -40 -58 -45 -37 -6 -77 -39 -100 -83 -16
-32 -14 -49 12 -79 l24 -27 -19 -49 c-20 -53 -24 -98 -8 -98 12 0 14 5 30 68
15 59 41 82 90 82 30 0 47 7 65 25 40 39 31 78 -28 118 -16 11 -16 15 13 60
33 53 37 67 16 67 -8 0 -25 -18 -37 -39z m-80 -115 c9 -11 8 -22 -6 -50 -9
-20 -22 -35 -27 -33 -16 5 -19 52 -6 77 13 24 23 25 39 6z m111 -35 c0 -24
-34 -51 -66 -51 l-34 0 20 39 c19 38 21 40 50 30 16 -6 30 -14 30 -18z"/>
<path d="M13821 11519 c-25 -15 -31 -23 -22 -32 8 -8 18 -7 40 6 16 9 39 17
50 17 17 0 21 -6 21 -34 0 -19 -5 -47 -10 -61 -14 -38 -85 -126 -125 -155 -19
-14 -35 -30 -35 -37 0 -25 20 -22 52 5 42 37 78 56 78 43 0 -19 49 -43 72 -37
34 9 51 22 44 34 -4 8 -15 8 -31 2 -32 -12 -55 -3 -55 21 0 11 -7 19 -16 19
-13 0 -12 5 6 28 46 58 67 161 38 190 -18 18 -69 14 -107 -9z"/>
<path d="M13170 11485 c0 -25 -9 -71 -20 -102 -24 -70 -27 -143 -5 -143 11 0
15 11 15 38 0 22 9 64 19 95 28 82 31 157 6 157 -11 0 -15 -12 -15 -45z"/>
<path d="M13625 11516 c-32 -14 -48 -30 -58 -58 -11 -30 11 -30 38 1 15 16 35
31 46 34 62 16 -33 -128 -128 -194 -67 -46 -55 -80 13 -39 l32 21 7 -21 c11
-34 97 -42 103 -9 3 18 -31 36 -36 20 -7 -20 -32 -11 -38 13 -4 18 6 41 45 97
61 88 72 142 31 146 -14 2 -39 -3 -55 -11z"/>
<path d="M3573 11308 c-6 -7 -11 -24 -11 -38 0 -36 -25 -118 -81 -260 -27 -68
-47 -128 -45 -132 10 -16 24 -7 40 24 34 66 164 182 164 147 0 -7 -12 -36 -27
-65 -22 -44 -24 -55 -14 -68 19 -23 31 -20 31 9 0 13 9 41 20 62 54 105 -5
136 -103 54 -17 -14 -27 -19 -24 -11 17 42 77 238 79 259 3 27 -14 38 -29 19z"/>
<path d="M5193 11310 c-28 -11 -30 -30 -4 -30 18 0 19 -3 5 -62 -8 -35 -20
-68 -27 -74 -17 -14 -122 -46 -177 -53 -31 -4 -45 -11 -45 -21 0 -20 60 -15
143 12 35 11 65 18 68 16 2 -3 -12 -53 -32 -111 -19 -59 -34 -117 -32 -129 4
-30 28 -36 28 -6 0 13 18 77 39 143 l40 120 60 3 c34 2 61 6 61 10 0 21 -26
31 -68 25 -40 -5 -44 -4 -39 13 18 64 28 126 23 139 -6 17 -12 17 -43 5z"/>
<path d="M2335 11284 c-177 -20 -355 -72 -355 -104 0 -15 20 -12 66 9 83 38
288 72 435 72 70 0 102 10 86 26 -12 12 -109 11 -232 -3z"/>
<path d="M14144 11286 c-18 -14 -18 -15 -1 -21 9 -4 24 -2 32 5 33 28 5 42
-31 16z"/>
<path d="M13234 11279 c-3 -6 -2 -15 4 -21 13 -13 32 -2 32 18 0 16 -26 19
-36 3z"/>
<path d="M5820 11270 c-13 -9 -13 -12 4 -25 31 -24 11 -118 -69 -329 -28 -76
-29 -103 -3 -120 23 -14 32 -3 18 21 -9 14 -7 30 10 78 75 204 81 227 83 303
2 80 -8 96 -43 72z"/>
<path d="M4251 11250 c-8 -4 -11 -12 -8 -17 10 -16 -38 -178 -83 -282 -22 -52
-40 -101 -40 -108 0 -29 35 -10 92 52 34 36 65 65 69 65 5 0 9 -15 9 -34 0
-39 33 -86 60 -86 29 0 34 19 7 29 -28 11 -37 29 -37 75 0 31 -15 56 -33 56
-4 0 -33 -24 -63 -52 l-56 -53 27 60 c28 63 85 248 85 277 0 21 -12 29 -29 18z"/>
<path d="M2492 11238 c-8 -8 -8 -15 -2 -23 16 -20 -14 -163 -55 -261 -50 -121
-51 -124 -29 -124 13 0 31 19 51 54 39 64 116 138 121 115 1 -8 -10 -46 -26
-83 -16 -38 -27 -77 -25 -87 8 -28 33 -23 33 5 0 13 9 46 21 73 44 100 45 133
4 133 -12 0 -40 -13 -63 -30 l-41 -29 14 38 c14 40 35 163 35 205 0 27 -18 34
-38 14z"/>
<path d="M2355 11187 c-17 -22 -17 -40 0 -34 26 11 18 -34 -30 -163 -55 -152
-62 -182 -41 -199 9 -8 16 -12 17 -10 1 2 3 20 4 39 2 19 24 91 49 160 44 119
53 169 40 204 -7 19 -25 20 -39 3z"/>
<path d="M5597 11163 c-3 -5 -21 -64 -42 -133 -20 -69 -41 -129 -46 -134 -5
-6 -9 -27 -9 -48 0 -47 25 -62 89 -55 62 7 111 58 111 117 0 33 -4 42 -25 52
-28 12 -72 -2 -100 -32 -25 -28 -2 -33 39 -9 40 24 56 19 56 -17 0 -39 -51
-84 -94 -84 -45 0 -51 11 -25 44 15 19 18 30 11 39 -7 9 0 46 24 125 19 62 34
120 34 128 0 15 -16 19 -23 7z"/>
<path d="M3745 11054 c-46 -49 -73 -118 -55 -139 17 -21 47 -19 80 5 l29 20 3
-37 c2 -31 7 -39 26 -41 24 -4 28 9 10 37 -9 15 -7 30 10 77 15 40 18 62 11
69 -7 7 -15 4 -25 -10 -28 -40 -98 -105 -111 -105 -11 0 -10 7 2 38 22 52 64
94 88 86 14 -5 18 -2 15 13 -6 34 -46 28 -83 -13z"/>
<path d="M3977 11062 c-45 -28 -46 -59 -3 -99 20 -19 36 -40 36 -48 0 -7 -14
-25 -32 -40 -26 -22 -39 -26 -71 -22 -32 4 -38 2 -35 -11 5 -27 72 -28 113 -2
66 41 72 87 19 141 l-36 37 31 23 c51 38 33 55 -22 21z"/>
<path d="M5944 11028 c-54 -56 -74 -97 -74 -153 0 -59 25 -85 81 -85 58 0 125
19 145 41 25 28 10 34 -33 14 -49 -24 -128 -32 -148 -15 -18 15 -20 84 -2 97
6 5 31 15 53 21 53 15 66 32 62 79 -4 55 -32 55 -84 1z m45 -33 c-8 -7 -25
-16 -39 -20 -23 -6 -23 -4 9 26 23 21 36 28 39 20 2 -7 -2 -19 -9 -26z"/>
<path d="M2723 11035 c-26 -18 -68 -87 -77 -128 -7 -31 14 -81 39 -91 49 -18
185 25 185 59 0 19 1 19 -58 -10 -81 -40 -132 -31 -132 25 0 20 12 34 53 60
43 29 52 40 52 65 0 36 -27 44 -62 20z m26 -42 c-20 -26 -43 -29 -30 -4 10 18
32 32 40 25 1 -1 -3 -11 -10 -21z"/>
<path d="M5324 11001 c-35 -22 -78 -73 -92 -112 -23 -59 36 -79 102 -34 20 14
39 25 41 25 2 0 5 -15 7 -32 2 -22 9 -34 21 -36 15 -3 17 1 11 22 -3 15 0 43
10 66 9 22 16 47 16 55 0 24 -27 17 -50 -12 -12 -16 -40 -40 -62 -55 -70 -47
-88 -32 -43 35 33 47 77 72 105 57 16 -9 22 -8 26 5 8 20 4 24 -32 30 -19 4
-40 -1 -60 -14z"/>
</g>
</svg>
