<?xml version="1.0" standalone="no"?>
<!DOCTYPE svg PUBLIC "-//W3C//DTD SVG 20010904//EN"
 "http://www.w3.org/TR/2001/REC-SVG-20010904/DTD/svg10.dtd">
<svg version="1.0" xmlns="http://www.w3.org/2000/svg"
 width="1872.000000pt" height="1404.000000pt" viewBox="0 0 1872.000000 1404.000000"
 preserveAspectRatio="xMidYMid meet">

<g transform="translate(0.000000,1404.000000) scale(0.100000,-0.100000)"
fill="#000000" stroke="none">
<path d="M15212 13533 c-6 -10 -8 -30 -5 -44 6 -33 -55 -159 -67 -139 -10 17
-103 7 -135 -14 -37 -24 -68 -84 -69 -133 -1 -44 6 -56 52 -82 11 -6 3 -25
-33 -79 -74 -116 -91 -172 -50 -172 8 0 15 9 15 20 0 26 17 60 76 150 35 55
50 70 69 70 38 0 102 29 118 54 13 19 13 28 2 60 -8 21 -18 43 -23 48 -6 6 7
39 36 91 38 65 46 90 47 130 0 53 -16 72 -33 40z m-114 -268 c9 -8 -69 -115
-83 -115 -9 0 -20 12 -26 26 -7 21 -5 36 11 69 21 43 21 43 58 33 20 -6 39
-11 40 -13z m46 -71 c6 -18 0 -24 -31 -37 -21 -8 -39 -14 -41 -12 -1 1 10 21
25 44 27 42 36 43 47 5z"/>
<path d="M15499 13548 c-1 -2 -3 -12 -4 -23 -5 -32 -69 -181 -140 -325 -36
-74 -65 -143 -63 -155 5 -31 31 -24 39 10 3 17 29 77 58 134 64 127 152 341
145 353 -5 7 -32 12 -35 6z"/>
<path d="M17690 13486 c-11 -24 -35 -63 -52 -87 -26 -36 -32 -40 -40 -26 -12
22 -16 21 -83 -4 -75 -28 -115 -81 -115 -150 0 -35 6 -55 24 -76 l24 -28 -65
-107 c-40 -66 -66 -121 -68 -142 -5 -50 19 -47 34 3 6 22 38 82 70 133 l59 93
55 2 c31 1 69 9 85 17 36 19 80 69 88 102 9 35 -3 88 -28 119 -19 24 -20 30
-8 49 53 83 79 130 74 137 -12 20 -34 6 -54 -35z m-162 -238 c-24 -36 -48 -74
-54 -84 -10 -17 -12 -16 -28 9 -35 53 5 138 75 163 56 19 58 -9 7 -88z m126
60 c36 -52 10 -130 -54 -163 -37 -19 -90 -20 -90 -1 0 17 111 186 121 186 5 0
15 -10 23 -22z"/>
<path d="M16365 13418 c-33 -15 -61 -32 -63 -38 -7 -21 26 -20 79 3 63 27 122
30 127 6 4 -22 -77 -140 -142 -208 -28 -29 -75 -69 -103 -87 -34 -23 -53 -42
-53 -54 0 -22 34 -28 45 -9 9 14 86 69 97 69 4 0 8 -13 8 -30 0 -20 8 -35 25
-46 23 -15 27 -15 50 0 31 20 24 38 -13 34 -25 -3 -27 0 -27 32 0 19 -3 40 -7
46 -4 6 4 22 18 35 30 28 104 130 128 177 45 88 -49 127 -169 70z"/>
<path d="M16083 13406 c-57 -29 -84 -56 -81 -80 4 -29 27 -31 38 -2 5 14 26
33 50 45 l41 20 -7 -22 c-17 -58 -138 -206 -189 -233 -81 -42 -101 -63 -75
-79 10 -6 105 38 115 55 3 5 20 10 36 10 23 0 30 -4 28 -17 -3 -35 1 -44 27
-54 33 -12 94 5 94 27 0 10 -10 12 -44 8 l-45 -7 -3 34 c-2 26 -8 35 -25 37
-31 5 -29 12 13 53 123 118 143 264 27 205z"/>
<path d="M17976 13398 c-41 -66 -100 -180 -128 -247 -17 -42 -39 -81 -47 -87
-13 -10 -13 -14 -2 -28 19 -23 39 -20 46 7 16 54 59 157 90 213 26 48 31 65
22 74 -9 10 -8 12 4 7 17 -5 46 22 50 45 5 43 -12 51 -35 16z"/>
<path d="M17173 13365 c-69 -32 -88 -54 -62 -70 5 -4 18 0 27 8 9 8 43 27 75
41 55 24 57 24 57 5 0 -11 -6 -32 -14 -47 -17 -33 -138 -150 -230 -222 -36
-29 -66 -58 -66 -66 0 -23 35 -16 61 12 26 28 90 68 128 79 22 7 24 5 18 -24
-12 -59 24 -107 71 -94 31 8 27 31 -5 35 -26 3 -28 6 -28 53 0 41 -4 51 -22
60 -22 11 -21 13 32 65 71 71 103 129 89 167 -13 39 -44 39 -131 -2z"/>
<path d="M18225 13359 c-51 -46 -59 -63 -40 -99 14 -28 14 -30 -7 -42 -13 -6
-29 -13 -36 -14 -24 -4 -63 -35 -74 -59 -13 -29 -5 -63 23 -98 17 -23 28 -27
69 -27 31 0 55 6 69 18 24 19 44 106 35 151 -5 25 -1 31 40 55 75 44 94 88 56
126 -32 32 -91 27 -135 -11z m106 -31 c15 4 10 -14 -8 -30 -18 -15 -77 -48
-87 -48 -3 0 -10 9 -17 21 -9 17 -7 25 13 46 33 36 60 45 76 25 7 -10 18 -16
23 -14z m-102 -176 c-2 -68 -12 -86 -52 -96 -48 -12 -79 12 -75 58 3 26 11 35
58 58 30 14 58 24 62 22 5 -3 8 -22 7 -42z"/>
<path d="M18286 13342 c-3 -6 -1 -14 5 -17 14 -9 20 -2 10 14 -6 8 -11 9 -15
3z"/>
<path d="M15495 13130 c-13 -14 -15 -24 -8 -31 14 -14 53 10 53 33 0 24 -23
23 -45 -2z"/>
<path d="M16682 13068 c-13 -16 -3 -70 12 -65 15 5 39 55 31 67 -9 14 -30 13
-43 -2z"/>
<path d="M5979 13020 c-23 -19 -23 -21 -6 -34 18 -14 17 -20 -26 -133 -25 -65
-59 -149 -75 -187 -27 -64 -31 -67 -41 -48 -7 12 -18 22 -26 22 -12 0 -14 -9
-9 -42 7 -46 26 -74 55 -83 61 -20 196 116 159 160 -15 18 -71 20 -87 4 -7 -7
15 57 48 142 43 111 58 162 53 181 -8 38 -18 41 -45 18z m1 -367 c0 -17 -39
-66 -66 -84 -33 -21 -60 -24 -70 -7 -4 6 -3 8 2 5 12 -7 26 2 40 28 18 33 94
79 94 58z"/>
<path d="M7961 13001 c-6 -10 -24 -24 -41 -29 -32 -12 -37 -21 -19 -39 8 -8 0
-27 -27 -68 l-38 -57 -61 7 c-89 11 -98 11 -102 -2 -6 -18 39 -33 97 -33 l49
0 -24 -55 c-35 -78 -41 -129 -21 -160 17 -26 68 -35 81 -15 3 6 15 10 26 10
11 0 17 5 14 10 -3 6 -1 10 6 10 9 0 10 3 3 10 -7 7 -22 6 -48 -5 -20 -9 -41
-13 -46 -10 -19 12 -10 81 19 141 31 66 43 74 120 74 44 0 44 0 26 20 -15 16
-26 19 -53 14 -41 -8 -43 -13 35 99 30 43 51 82 48 87 -10 16 -34 11 -44 -9z"/>
<path d="M4575 13000 c-4 -6 -2 -17 4 -24 7 -9 5 -35 -8 -90 -10 -42 -21 -79
-24 -83 -9 -8 -118 -33 -149 -33 -30 0 -46 -16 -31 -31 7 -7 37 -5 87 4 42 8
76 14 76 13 0 -5 -52 -133 -62 -153 -8 -17 -8 -26 2 -38 18 -22 27 -19 34 13
15 65 70 192 83 192 25 0 73 30 73 45 0 8 -4 15 -10 15 -5 0 -10 -3 -10 -7 0
-5 -11 -9 -25 -9 -27 -2 -28 -8 1 107 19 79 18 89 -10 89 -14 0 -28 -5 -31
-10z"/>
<path d="M4785 12990 c-3 -5 0 -18 6 -29 18 -28 -10 -122 -77 -261 -30 -62
-54 -118 -54 -126 0 -26 22 -14 66 35 44 49 110 98 120 89 2 -3 -5 -26 -16
-52 -11 -26 -20 -54 -20 -62 0 -8 -4 -14 -10 -14 -18 0 -11 -29 10 -40 15 -8
21 -8 24 2 1 7 12 43 24 80 26 80 27 101 6 119 -14 12 -24 10 -65 -14 -27 -15
-49 -26 -49 -24 0 2 14 32 31 68 41 84 69 217 48 230 -18 11 -36 11 -44 -1z"/>
<path d="M6212 12888 c-6 -8 -8 -19 -4 -26 10 -16 67 0 67 19 0 18 -49 24 -63
7z"/>
<path d="M7984 12815 c19 -14 36 -12 36 6 0 5 -12 9 -27 9 -27 -1 -27 -1 -9
-15z"/>
<path d="M2084 12778 c-16 -12 -47 -37 -68 -57 -28 -26 -37 -30 -31 -16 32 84
9 85 -85 4 l-70 -60 25 57 c14 32 23 64 20 72 -7 20 -40 10 -42 -13 -1 -11
-16 -58 -32 -105 -47 -131 -40 -179 14 -99 33 51 104 129 117 129 4 0 1 -14
-7 -31 -17 -32 -14 -59 6 -59 6 0 44 32 83 70 40 39 75 70 77 70 3 0 -7 -37
-23 -82 -31 -91 -33 -145 -6 -162 26 -16 50 10 26 28 -17 12 -17 17 2 82 10
38 26 86 34 106 20 46 21 88 2 88 -7 0 -26 -10 -42 -22z"/>
<path d="M2541 12754 c-33 -20 -49 -39 -67 -81 -30 -68 -32 -103 -4 -103 15 0
20 7 20 28 1 44 36 109 69 126 16 9 46 16 65 16 19 0 38 5 41 11 10 14 5 17
-40 24 -32 5 -49 1 -84 -21z"/>
<path d="M2698 12723 c-44 -45 -82 -125 -73 -153 4 -11 20 -27 38 -36 26 -14
39 -15 83 -5 30 7 55 19 58 28 9 23 3 25 -46 12 -51 -14 -98 -6 -98 17 0 27
30 74 44 68 16 -6 106 46 106 62 0 17 -34 44 -56 44 -11 0 -36 -17 -56 -37z
m61 -6 c-2 -1 -13 -9 -24 -17 -19 -14 -19 -14 -6 3 7 9 18 17 24 17 6 0 8 -1
6 -3z"/>
<path d="M6862 12749 c-51 -19 -142 -114 -142 -149 0 -22 40 -9 54 18 25 48
94 104 124 100 18 -2 27 2 27 11 0 19 -35 30 -63 20z"/>
<path d="M8609 12730 c-63 -33 -78 -47 -85 -85 -8 -43 4 -62 52 -86 38 -18 57
-21 111 -16 65 5 96 19 78 36 -6 4 -35 5 -65 2 -63 -8 -119 3 -137 27 -19 23
-16 32 10 32 53 0 127 59 127 101 0 26 -25 23 -91 -11z"/>
<path d="M2268 12729 c-35 -26 -68 -80 -68 -112 0 -36 34 -57 91 -57 40 0 51
4 69 27 26 33 21 80 -13 130 -25 38 -41 40 -79 12z m68 -76 c8 -42 -3 -55 -50
-56 -50 -1 -64 15 -41 50 44 69 79 72 91 6z"/>
<path d="M3635 12674 c-19 -42 -35 -83 -35 -90 0 -19 25 -17 41 3 19 23 111
95 115 90 3 -2 -5 -25 -17 -52 -17 -38 -19 -52 -10 -72 9 -20 17 -24 49 -21
32 3 37 7 40 31 2 19 -1 27 -12 27 -9 0 -16 -7 -16 -15 0 -8 -7 -15 -15 -15
-22 0 -18 24 15 90 32 64 37 90 17 90 -18 0 -88 -39 -115 -63 -22 -21 -23 -21
-16 -2 4 11 11 26 17 32 11 15 3 43 -12 43 -6 0 -26 -34 -46 -76z"/>
<path d="M8137 12731 c-29 -15 -37 -16 -37 -5 0 27 -31 14 -45 -18 -10 -25
-10 -35 -2 -40 9 -6 9 -8 0 -8 -14 0 -37 -75 -28 -90 11 -18 25 -10 38 23 34
79 107 133 166 121 24 -5 31 -3 31 9 0 32 -67 36 -123 8z"/>
<path d="M3480 12728 c-47 -15 -77 -97 -48 -126 20 -20 59 -14 95 14 30 23 34
30 31 67 -2 34 -7 42 -28 47 -14 4 -36 3 -50 -2z m50 -51 c0 -19 -33 -47 -56
-47 -18 0 -22 4 -17 18 3 9 10 22 15 28 11 14 58 15 58 1z"/>
<path d="M5012 12725 c-28 -21 -73 -108 -74 -146 -1 -34 26 -79 50 -80 28 -2
74 1 115 7 25 4 37 11 37 22 0 13 2 14 9 4 6 -10 13 -11 34 -1 15 7 27 18 27
26 0 16 3 17 -82 -7 -99 -27 -136 -26 -149 4 -15 32 2 62 40 69 16 3 42 17 57
30 25 22 27 28 19 53 -12 35 -49 43 -83 19z m48 -33 c0 -14 -38 -44 -50 -40
-14 4 17 48 36 48 8 0 14 -4 14 -8z"/>
<path d="M6305 12721 c-58 -36 -142 -149 -131 -177 9 -23 29 -7 59 45 31 56
89 111 117 111 16 0 17 -4 10 -27 -17 -55 -33 -98 -42 -109 -9 -12 18 -41 29
-30 11 11 53 138 53 161 0 46 -44 58 -95 26z"/>
<path d="M8329 12711 c-70 -47 -85 -63 -98 -109 -24 -86 32 -114 157 -77 32
10 52 21 52 30 0 18 -16 20 -23 3 -4 -10 -6 -10 -6 -1 -1 8 -9 9 -28 3 -16 -4
-47 -11 -71 -14 -33 -5 -44 -3 -49 9 -8 22 13 64 34 71 50 16 116 51 128 67
36 51 -27 63 -96 18z"/>
<path d="M6117 12704 c-4 -4 -7 -16 -7 -26 0 -10 -11 -40 -25 -67 -24 -48 -24
-61 0 -61 15 0 68 114 63 137 -3 18 -20 27 -31 17z"/>
<path d="M6514 12682 c-93 -81 -77 -147 21 -87 22 13 43 25 46 25 4 0 6 -17 5
-37 -1 -32 3 -39 21 -41 18 -3 21 2 21 35 0 21 2 52 4 68 2 21 -1 30 -12 30
-8 0 -18 8 -22 18 -11 25 -48 20 -84 -11z m27 -43 c-13 -11 -27 -17 -30 -13
-7 7 28 34 43 34 6 -1 0 -10 -13 -21z"/>
<path d="M7061 12655 c-41 -54 -59 -69 -48 -41 8 20 -3 27 -24 15 -14 -7 -19
-6 -19 4 0 22 -29 42 -41 30 -15 -15 17 -74 42 -80 10 -3 19 -7 19 -10 0 -2
-38 -57 -83 -121 -97 -135 -142 -213 -152 -260 -6 -29 -4 -33 10 -30 9 1 22
19 29 38 26 75 138 240 299 441 25 32 43 60 40 63 -15 15 -33 2 -72 -49z"/>
<path d="M5005 12080 c3 -5 1 -10 -6 -10 -8 0 -6 -6 4 -18 24 -26 24 -148 0
-174 -15 -17 -15 -20 -1 -34 13 -14 17 -13 31 10 23 34 28 195 8 219 -14 18
-46 24 -36 7z"/>
<path d="M4700 12016 c-48 -25 -56 -42 -28 -59 13 -9 22 -6 42 16 29 31 86 39
86 12 0 -9 -36 -50 -80 -92 -44 -42 -80 -82 -80 -89 0 -23 46 -27 126 -10 51
10 82 12 89 6 14 -12 25 -3 25 21 0 26 -23 29 -101 13 -39 -8 -73 -13 -76 -10
-2 2 23 28 56 57 70 61 89 98 73 134 -15 33 -71 34 -132 1z"/>
<path d="M10484 11965 c-4 -8 -16 -15 -28 -15 -29 0 -134 -63 -164 -98 -67
-78 -76 -100 -76 -180 0 -103 24 -157 93 -208 29 -21 50 -44 49 -51 -2 -7 -25
-41 -51 -75 -27 -35 -94 -124 -149 -198 -99 -133 -220 -270 -240 -270 -5 0
-22 8 -36 19 -35 24 -132 34 -201 21 -68 -13 -129 -61 -182 -143 -45 -70 -48
-102 -19 -178 20 -50 37 -77 90 -140 30 -36 96 -55 218 -63 77 -5 92 -3 132
16 53 28 120 117 144 195 25 78 7 161 -46 219 -21 23 -38 45 -38 50 0 5 24 33
54 64 49 51 202 248 270 348 16 23 32 42 35 42 4 0 20 20 35 45 16 25 31 45
33 45 2 0 20 -7 39 -15 41 -17 117 -22 154 -10 14 4 48 25 77 47 34 24 53 33
53 25 0 -19 135 -243 173 -287 17 -19 45 -66 64 -105 31 -66 56 -106 101 -165
42 -55 44 -68 21 -99 -25 -34 -38 -93 -39 -175 0 -47 6 -69 30 -112 44 -76 74
-97 184 -128 94 -26 99 -26 156 -11 106 27 173 85 247 211 40 68 47 86 46 132
-1 103 -44 166 -150 222 -62 32 -216 32 -308 1 -38 -13 -81 -34 -95 -47 l-25
-22 -28 37 c-54 71 -77 107 -110 176 -19 39 -47 86 -64 105 -33 39 -149 227
-169 276 -12 29 -11 36 11 77 63 112 77 215 40 286 -16 31 -124 113 -180 137
-47 19 -144 19 -151 -1z m53 -62 c33 -15 36 -15 45 0 14 26 31 21 110 -33 67
-47 74 -56 91 -106 18 -55 18 -57 -3 -119 -30 -90 -69 -145 -134 -190 -49 -34
-65 -40 -105 -38 -66 2 -148 32 -208 75 -46 33 -55 46 -69 96 -32 107 -16 169
65 249 34 34 124 83 154 83 10 0 35 -8 54 -17z m887 -988 c4 -12 15 -14 45 -9
33 5 48 2 83 -20 87 -52 107 -81 110 -160 3 -50 -60 -168 -127 -237 -39 -40
-52 -47 -123 -64 -78 -17 -82 -17 -153 1 -87 23 -116 44 -152 116 -25 50 -26
57 -18 130 7 64 15 87 44 131 42 62 55 75 94 87 15 5 46 16 68 24 54 20 121
21 129 1z m-1677 -65 c7 -37 14 -42 31 -24 7 8 9 15 5 15 -4 1 6 4 22 8 21 5
39 1 60 -11 17 -10 40 -18 52 -18 36 0 90 -55 97 -98 4 -20 11 -49 17 -63 12
-30 -11 -92 -60 -163 -36 -52 -113 -90 -164 -82 -18 3 -49 8 -70 11 -106 14
-125 24 -170 89 -81 115 -87 162 -32 243 52 78 115 120 183 122 17 1 24 -6 29
-29z"/>
<path d="M11245 11926 c-17 -7 -36 -20 -44 -30 -8 -10 -18 -13 -25 -7 -34 26
-134 9 -123 -22 4 -12 11 -12 71 0 29 6 29 6 23 -37 -7 -57 -25 -72 -91 -78
-46 -4 -56 -8 -56 -23 0 -24 48 -26 109 -4 36 12 43 12 47 0 3 -7 19 -18 36
-24 37 -13 137 -14 157 -2 27 17 -1 29 -69 29 -88 -1 -104 10 -95 66 8 48 47
93 90 104 31 9 41 35 15 39 -8 1 -29 -3 -45 -11z"/>
<path d="M4125 11909 c-47 -15 -72 -32 -116 -77 -31 -31 -63 -71 -72 -88 -19
-37 -26 -151 -10 -178 13 -24 -10 -69 -72 -138 -24 -27 -56 -69 -71 -96 -26
-44 -101 -151 -114 -162 -3 -3 -21 -24 -39 -48 -18 -23 -45 -55 -60 -70 -14
-15 -48 -51 -75 -80 -42 -47 -50 -51 -66 -40 -9 7 -37 28 -61 46 -31 24 -49
31 -64 26 -11 -4 -38 -8 -60 -9 -22 -1 -48 -2 -57 -3 -52 -5 -174 -162 -195
-252 -21 -92 -17 -140 18 -195 l31 -48 -34 -26 c-18 -14 -67 -57 -108 -95 -41
-38 -136 -122 -210 -185 -183 -157 -275 -243 -272 -253 1 -4 -3 -8 -9 -8 -6 0
-36 -23 -67 -50 -60 -54 -49 -51 -157 -35 -20 4 -39 14 -45 25 -8 16 -21 20
-59 20 -57 0 -96 -26 -181 -125 -70 -80 -95 -144 -85 -217 11 -82 46 -150 86
-169 78 -38 131 -51 177 -45 67 9 156 38 166 55 5 7 24 30 42 51 44 48 54 79
59 169 3 59 -1 89 -17 135 l-21 60 44 37 c24 21 42 44 41 51 -2 7 0 10 4 6 7
-8 39 18 144 116 30 29 98 87 150 131 52 44 146 126 209 183 63 57 127 112
141 122 l27 19 29 -30 c55 -58 115 -70 212 -45 40 11 54 12 57 3 2 -7 9 -32
16 -57 6 -25 29 -90 51 -144 29 -73 42 -125 49 -191 5 -49 14 -102 19 -117 5
-17 5 -30 -1 -33 -5 -4 -7 -10 -5 -13 2 -4 -4 -19 -15 -32 -69 -87 -74 -100
-74 -200 1 -111 22 -167 92 -237 44 -44 60 -50 173 -56 77 -5 185 25 226 64
36 32 84 142 91 204 7 62 -22 197 -45 218 -20 17 -160 77 -180 77 -8 0 -27 11
-44 25 -39 33 -84 32 -133 -1 -24 -16 -41 -22 -47 -16 -5 5 -14 52 -18 103
-10 104 -14 120 -59 228 -31 75 -61 174 -61 205 0 9 15 33 33 53 72 82 107
173 107 280 0 69 -10 98 -43 124 -20 16 -18 18 64 110 101 113 195 228 192
237 -1 4 5 11 13 15 7 4 26 29 41 55 29 51 151 202 163 202 4 0 14 -7 21 -16
23 -28 98 -54 153 -54 41 0 69 9 139 44 l87 44 24 -31 c13 -18 32 -45 42 -62
10 -16 46 -66 80 -110 90 -119 205 -288 264 -390 28 -49 62 -104 75 -122 21
-30 22 -39 17 -147 l-5 -115 62 -64 c42 -44 74 -68 101 -76 l40 -12 -25 -45
c-14 -25 -23 -49 -20 -54 3 -5 -14 -49 -38 -97 -25 -48 -73 -145 -107 -215
l-62 -128 -62 0 c-82 0 -152 -24 -199 -69 -84 -80 -134 -215 -112 -303 21 -80
67 -131 136 -151 36 -11 44 -17 44 -37 l0 -25 94 4 c71 3 103 8 130 24 45 25
101 77 101 93 0 6 7 17 14 24 8 6 22 45 32 87 16 73 16 76 -5 139 -32 97 -56
138 -101 174 l-40 32 40 76 c94 180 202 408 205 430 3 29 21 42 58 42 43 0
134 47 177 92 l38 40 29 -19 c248 -168 320 -218 353 -248 19 -18 69 -57 110
-88 41 -30 102 -81 135 -112 33 -31 78 -68 99 -82 22 -14 68 -49 102 -77 86
-70 176 -134 205 -145 25 -9 89 -69 89 -83 0 -4 7 -8 15 -8 9 0 15 9 15 23 0
26 -59 83 -107 103 -18 8 -42 23 -53 34 -10 10 -32 26 -49 34 -16 9 -58 40
-93 68 -34 29 -77 62 -94 73 -18 11 -69 53 -114 94 -45 41 -107 92 -138 114
-31 22 -75 57 -97 77 -39 36 -202 152 -307 218 -75 46 -81 53 -69 85 6 15 13
56 17 91 6 58 4 69 -19 108 -14 24 -48 65 -76 91 -48 45 -53 47 -108 47 -32 0
-88 3 -124 6 -66 7 -66 7 -108 -31 -23 -21 -49 -52 -58 -68 -14 -28 -16 -29
-25 -11 -6 10 -19 28 -30 39 -10 11 -47 67 -82 125 -62 103 -191 293 -238 349
-14 15 -55 73 -92 129 -66 100 -67 101 -53 134 24 56 29 107 16 166 -16 82
-31 105 -86 134 -67 36 -134 41 -208 17z m174 -42 c59 -29 79 -60 87 -129 8
-65 -11 -148 -32 -148 -8 0 -14 -8 -14 -18 0 -24 -24 -46 -72 -65 -105 -44
-211 -26 -268 44 -29 37 -33 48 -31 97 1 43 9 68 36 112 41 68 65 90 118 111
60 24 124 22 176 -4z m-952 -939 c164 -122 173 -135 155 -229 -18 -100 -93
-223 -131 -217 -9 2 -20 -7 -26 -20 -11 -25 -58 -42 -121 -42 -54 0 -105 34
-120 80 -7 22 -18 35 -29 35 -11 0 -27 19 -42 47 -23 43 -24 50 -13 110 15 79
50 146 115 215 50 52 51 53 109 53 51 0 65 -5 103 -32z m1859 -56 c31 -5 57
-22 107 -68 65 -60 67 -63 67 -110 0 -27 -5 -65 -10 -85 -14 -49 -71 -113
-101 -114 -17 0 -24 -6 -24 -20 0 -27 -40 -44 -111 -47 -80 -3 -120 13 -179
72 -47 48 -49 53 -53 113 -3 41 1 75 11 98 22 53 87 139 121 161 32 20 62 20
172 0z m-1491 -1026 c27 -13 66 -29 85 -36 120 -41 113 -34 131 -141 12 -74
12 -79 -15 -152 -15 -41 -36 -83 -46 -92 -37 -34 -121 -57 -204 -56 -97 1
-126 17 -171 92 -39 64 -56 164 -36 220 12 35 71 118 84 119 5 0 23 16 41 35
40 42 63 44 131 11z m-1583 -36 c21 -11 50 -20 67 -20 16 0 31 -6 35 -15 3 -8
11 -15 19 -15 18 0 57 -96 57 -140 0 -73 -13 -108 -55 -160 -47 -57 -83 -75
-170 -86 -35 -4 -66 -1 -100 10 -72 25 -92 40 -114 92 -24 53 -27 108 -9 166
12 41 95 142 156 191 32 25 37 26 56 12 12 -8 38 -24 58 -35z m2663 -10 c8 -7
22 -9 31 -6 21 8 70 -28 89 -64 8 -16 26 -59 39 -96 23 -63 24 -69 10 -121
-19 -71 -25 -83 -74 -127 -31 -28 -48 -36 -64 -32 -11 3 -39 -1 -61 -10 -37
-14 -47 -13 -125 5 -73 17 -89 25 -117 56 -18 21 -36 57 -43 85 -10 43 -9 57
9 112 24 69 76 148 117 174 58 39 157 51 189 24z"/>
<path d="M5803 11065 c-33 -23 -39 -69 -14 -110 l20 -35 -39 -26 c-47 -31 -50
-54 -14 -83 30 -23 93 -28 112 -9 15 15 16 73 1 100 -9 16 -7 24 10 42 25 26
26 39 7 74 -8 15 -17 35 -20 45 -7 21 -34 22 -63 2z m42 -56 c13 -25 14 -33 4
-46 -12 -13 -14 -13 -26 3 -14 19 -17 56 -6 67 10 11 11 9 28 -24z m-1 -144
c11 -44 -2 -53 -51 -34 l-28 11 30 24 c38 30 41 30 49 -1z"/>
<path d="M2675 11062 c-26 -5 -85 -50 -85 -64 0 -6 18 -27 40 -46 l40 -36 -35
-32 c-19 -17 -35 -38 -35 -47 0 -16 64 -77 80 -77 5 0 19 10 31 23 18 19 20
30 16 75 -6 52 -4 55 29 84 28 25 34 37 32 62 -2 24 -8 32 -27 34 -14 2 -34 9
-45 16 -12 7 -30 11 -41 8z m50 -57 c43 6 44 -3 6 -39 l-29 -28 -36 28 -36 29
22 17 c19 14 24 14 31 3 5 -9 19 -13 42 -10z m-43 -197 c-5 -5 -16 0 -28 13
-19 21 -19 21 6 41 l25 20 3 -32 c2 -18 -1 -37 -6 -42z"/>
<path d="M5618 11033 c-1 -4 -3 -60 -3 -123 0 -96 3 -115 15 -115 12 0 16 20
22 93 3 51 3 105 -1 119 -7 26 -26 41 -33 26z"/>
<path d="M12095 10698 c-46 -10 -64 -23 -49 -37 5 -6 25 -6 53 0 67 15 67 7 2
-39 -71 -50 -119 -108 -103 -124 7 -7 30 -7 79 2 37 8 99 14 137 14 73 1 90
12 65 42 -8 10 -20 13 -33 9 -31 -10 -190 -34 -194 -30 -5 5 112 91 160 119
57 32 50 51 -19 52 -32 1 -76 -3 -98 -8z"/>
<path d="M9080 10439 c0 -6 9 -22 20 -36 11 -14 20 -31 20 -37 0 -6 14 -31 30
-56 16 -25 30 -51 30 -59 0 -7 -16 -48 -35 -91 -40 -89 -43 -110 -15 -110 14
0 20 7 20 21 0 12 38 100 85 195 47 95 85 176 85 179 0 3 -8 5 -17 5 -12 -1
-31 -27 -58 -80 -21 -43 -42 -77 -46 -75 -3 3 -23 38 -43 80 -27 56 -42 75
-56 75 -11 0 -20 -5 -20 -11z"/>
<path d="M6760 9886 c-69 -22 -121 -57 -165 -114 -83 -105 -93 -203 -33 -309
24 -42 39 -57 84 -78 75 -36 196 -53 256 -36 51 14 135 82 167 135 17 28 21
51 22 133 1 143 -26 193 -134 245 -60 30 -147 40 -197 24z m104 -45 c23 -10
62 -28 87 -39 38 -17 52 -31 78 -78 52 -96 38 -208 -36 -275 -74 -68 -123 -82
-224 -63 -111 21 -150 44 -182 107 -29 58 -35 124 -16 174 22 59 88 132 147
163 67 34 91 36 146 11z"/>
<path d="M10544 9816 c-5 -13 16 -40 80 -105 47 -49 86 -92 86 -97 0 -12 -180
-95 -212 -98 -33 -4 -48 -14 -48 -33 0 -22 58 -9 150 34 41 20 86 35 99 34 28
-1 72 35 70 58 -1 9 -50 63 -110 120 -87 84 -110 101 -115 87z"/>
<path d="M9969 9711 l-22 -30 -20 25 c-15 20 -27 24 -56 22 -44 -4 -52 -33 -9
-33 46 0 65 -39 41 -88 -16 -31 -88 -87 -113 -87 -9 0 -25 -6 -36 -14 -14 -11
-16 -17 -7 -26 15 -16 67 1 114 36 l34 25 7 -30 c5 -16 21 -40 37 -54 31 -26
108 -44 124 -28 16 16 -1 28 -48 35 -49 8 -85 42 -85 81 0 30 55 136 82 156
22 17 17 39 -7 39 -8 0 -24 -13 -36 -29z"/>
<path d="M12174 9705 c-9 -23 3 -45 25 -45 11 0 30 -14 42 -32 12 -18 33 -45
47 -60 l24 -26 -28 -15 c-16 -8 -73 -29 -126 -47 -113 -38 -132 -49 -122 -73
7 -20 51 -20 47 0 -1 6 35 23 80 37 107 35 207 78 207 89 0 5 -21 31 -47 57
-27 26 -65 66 -85 89 -41 44 -55 50 -64 26z"/>
<path d="M11525 9668 c-16 -5 -66 -11 -110 -12 -61 -2 -80 -6 -80 -17 0 -18
118 -25 172 -10 20 6 38 9 39 8 2 -1 -31 -27 -73 -57 -42 -30 -99 -74 -127
-98 -28 -23 -57 -47 -63 -53 -27 -21 -14 -39 30 -39 23 -1 96 -3 163 -5 120
-4 159 4 138 25 -7 7 -62 11 -145 11 l-134 0 41 37 c47 42 104 85 184 140 67
47 80 82 28 81 -18 0 -46 -5 -63 -11z"/>
<path d="M12943 9537 c-29 -52 -53 -99 -53 -105 0 -30 -22 -15 -71 47 -30 38
-59 77 -65 87 -6 10 -15 14 -22 10 -14 -9 -16 -42 -2 -51 5 -3 37 -39 70 -80
l61 -74 -20 -38 c-10 -21 -44 -72 -75 -113 -30 -41 -66 -95 -78 -120 -13 -25
-26 -46 -30 -48 -5 -2 -8 -10 -8 -18 0 -11 9 -14 33 -12 28 3 32 6 29 28 -3
25 25 73 114 195 20 28 58 96 85 153 27 57 65 128 84 158 40 61 42 74 18 74
-12 0 -36 -31 -70 -93z"/>
<path d="M7560 9540 c-25 -10 -57 -22 -71 -28 -15 -6 -29 -8 -32 -5 -3 3 -19
-4 -35 -16 -17 -12 -34 -21 -39 -21 -6 0 -16 -19 -23 -41 -13 -38 -12 -43 5
-55 10 -8 25 -14 32 -14 22 0 15 -29 -13 -55 -15 -14 -38 -25 -50 -25 -25 0
-33 -23 -13 -35 19 -12 55 4 92 40 47 45 49 79 7 103 -35 20 -36 24 -12 44 17
14 145 71 190 83 21 6 30 29 15 38 -5 2 -28 -4 -53 -13z"/>
<path d="M7225 9449 c-4 -17 -7 -58 -8 -92 0 -49 -3 -61 -19 -65 -23 -6 -23
-15 2 -37 36 -33 48 -14 51 84 3 75 7 93 23 104 23 17 13 37 -19 37 -18 0 -25
-7 -30 -31z"/>
<path d="M10475 9369 c-33 -5 -85 -10 -115 -12 -41 -1 -55 -6 -55 -17 0 -13
15 -14 90 -10 143 7 296 6 343 -4 40 -7 44 -6 40 10 -6 36 -166 53 -303 33z"/>
<path d="M5186 9343 c-4 -16 -17 -54 -29 -85 -21 -57 -22 -58 -54 -52 -49 9
-79 -15 -98 -80 -17 -57 -9 -101 19 -112 12 -4 8 -19 -19 -76 -27 -56 -32 -75
-24 -90 12 -23 35 -18 32 7 -1 10 14 49 32 85 29 57 39 68 65 74 18 3 47 21
66 40 41 41 47 93 13 125 l-20 19 22 53 c12 30 27 59 32 66 11 16 -1 53 -18
53 -7 0 -16 -12 -19 -27z m-96 -244 c-17 -33 -36 -59 -43 -56 -17 5 -20 42 -7
81 9 28 15 33 45 34 l35 1 -30 -60z m85 41 c7 -23 -8 -54 -37 -74 -35 -25 -36
-20 -9 39 28 59 36 66 46 35z"/>
<path d="M12245 9313 c-51 -8 -132 -13 -187 -11 -74 3 -99 1 -103 -9 -11 -29
45 -36 195 -23 80 7 165 13 190 14 34 1 44 5 42 16 -4 16 -22 30 -37 29 -5 -1
-50 -8 -100 -16z"/>
<path d="M2001 9228 c-5 -13 -26 -36 -47 -53 -75 -60 -124 -108 -124 -123 0
-15 25 -14 123 4 l38 7 -6 -39 c-7 -42 9 -98 26 -92 6 2 12 55 15 133 3 72 6
141 7 154 3 32 -20 39 -32 9z m-13 -123 c-2 -2 -24 -8 -48 -14 l-45 -10 45 39
45 39 3 -26 c2 -13 2 -26 0 -28z"/>
<path d="M3847 9222 c-55 -37 -109 -133 -121 -219 -6 -35 -4 -41 18 -53 27
-14 89 -8 112 11 19 16 18 64 -3 84 -11 12 -26 15 -49 12 l-33 -6 17 39 c21
48 65 98 98 110 26 10 28 33 3 38 -8 1 -26 -6 -42 -16z m-12 -222 c0 -10 -12
-16 -32 -18 -35 -3 -41 6 -21 26 17 17 53 11 53 -8z"/>
<path d="M4865 9154 c-11 -17 -13 -29 -7 -37 6 -8 5 -30 -3 -62 -7 -27 -15
-66 -17 -85 -2 -29 0 -35 17 -35 17 0 21 9 26 55 3 30 11 73 18 95 24 85 4
126 -34 69z"/>
<path d="M12960 8739 c-44 -13 -90 -18 -143 -16 -114 3 -124 -16 -87 -168 11
-44 20 -89 20 -100 1 -38 16 -50 45 -37 14 7 25 18 24 24 -2 7 12 29 31 50
l34 36 65 -58 c36 -31 120 -97 186 -145 267 -196 549 -470 950 -925 61 -68
179 -194 264 -280 322 -324 408 -457 584 -900 93 -234 133 -326 284 -650 110
-236 167 -380 190 -480 23 -101 26 -371 9 -745 -20 -447 -36 -525 -144 -725
-25 -47 -60 -103 -77 -125 -17 -22 -39 -53 -49 -68 -37 -59 -162 -179 -269
-258 -317 -234 -336 -249 -331 -264 4 -8 8 -15 10 -15 11 0 153 114 158 126 3
8 10 14 17 14 37 0 366 261 353 281 -3 5 2 9 10 9 8 0 36 30 63 66 26 37 60
81 74 98 37 43 136 238 158 311 29 92 49 236 55 385 4 74 11 250 17 392 20
462 -6 583 -226 1043 -103 215 -183 398 -286 655 -160 399 -249 537 -540 835
-107 111 -251 264 -320 341 -191 215 -437 481 -467 505 -15 11 -65 58 -112
103 -114 111 -212 193 -350 294 -126 93 -248 193 -249 204 -2 12 74 97 92 103
9 4 17 14 17 23 0 8 9 26 21 38 21 22 19 45 -4 43 -7 -1 -41 -10 -77 -20z m7
-45 c-3 -3 -12 -4 -19 -1 -8 3 -5 6 6 6 11 1 17 -2 13 -5z m-47 -14 c-19 -13
-30 -13 -30 0 0 6 10 10 23 10 18 0 19 -2 7 -10z m-96 -9 c7 -11 -22 -23 -35
-15 -5 3 -9 9 -9 15 0 12 37 12 44 0z m-53 -64 c-1 -12 -15 -9 -19 4 -3 6 1
10 8 8 6 -3 11 -8 11 -12z m71 -69 c-7 -7 -12 -8 -12 -2 0 14 12 26 19 19 2
-3 -1 -11 -7 -17z m-55 -50 c-3 -8 -6 -5 -6 6 -1 11 2 17 5 13 3 -3 4 -12 1
-19z"/>
<path d="M4912 8538 c-7 -7 -12 -16 -12 -21 0 -15 -77 -121 -114 -156 -65 -63
-39 -89 54 -56 24 8 45 14 47 12 2 -2 7 -34 11 -71 9 -69 22 -94 42 -81 9 6
11 28 6 83 -6 68 -5 76 14 89 24 17 18 33 -12 33 -20 0 -20 4 -14 63 12 98 12
110 1 114 -6 2 -16 -2 -23 -9z m-12 -142 c0 -32 -3 -35 -45 -49 l-45 -16 41
50 c23 27 44 49 46 49 1 0 3 -15 3 -34z"/>
<path d="M10604 8396 c-3 -9 0 -39 7 -68 21 -79 16 -288 -8 -358 -17 -51 -21
-55 -63 -67 -103 -30 -109 19 -13 106 47 43 63 65 56 72 -16 16 -56 -11 -41
-28 8 -10 5 -13 -15 -13 -32 0 -107 -82 -107 -116 0 -59 82 -83 157 -47 58 27
75 80 80 243 3 86 -1 162 -9 209 -13 72 -31 100 -44 67z"/>
<path d="M4203 8353 c-13 -2 -23 -8 -23 -13 0 -4 -20 -11 -45 -14 -55 -9 -165
-86 -165 -116 0 -11 -16 -37 -35 -59 -19 -21 -35 -46 -35 -55 0 -10 -5 -27
-11 -38 -19 -35 -12 -119 11 -151 22 -28 19 -47 -6 -47 -8 0 -14 -6 -14 -13 0
-20 -252 -273 -350 -352 -75 -60 -162 -135 -217 -188 -58 -56 -63 -59 -97 -53
-20 4 -52 21 -71 38 -33 29 -39 30 -116 29 -91 -1 -150 -25 -208 -85 -41 -42
-101 -160 -101 -199 0 -48 46 -160 81 -195 47 -48 119 -89 187 -107 l62 -16
64 28 c97 43 154 101 178 182 11 36 24 93 27 126 6 53 4 65 -20 111 l-28 51
67 65 c37 36 110 100 162 143 106 88 280 250 404 375 l40 40 21 -20 c12 -11
57 -34 101 -51 69 -27 88 -30 155 -27 67 4 81 9 133 43 l59 39 29 -35 c15 -19
40 -54 55 -79 32 -55 108 -158 225 -305 48 -60 97 -122 108 -137 21 -28 50
-38 50 -18 0 12 -48 77 -139 190 -84 103 -171 220 -233 314 -29 43 -57 84 -62
91 -6 8 2 27 22 58 18 25 32 49 32 54 0 4 7 22 16 38 9 17 16 51 15 78 0 39
-8 59 -50 123 -44 68 -59 82 -120 115 -71 38 -117 51 -158 42z m140 -91 c32
-16 56 -37 74 -65 15 -23 36 -52 46 -64 30 -34 21 -144 -18 -201 -18 -28 -31
-39 -36 -31 -8 13 -39 5 -39 -10 0 -5 5 -13 10 -16 19 -12 10 -23 -44 -59 -50
-33 -60 -36 -129 -36 -71 0 -109 10 -195 53 -32 15 -88 96 -95 137 -9 50 13
121 49 162 18 20 33 40 35 45 2 4 27 28 56 52 44 37 58 43 98 43 38 1 51 -3
65 -22 23 -30 55 -21 44 12 -3 13 -11 25 -15 26 -5 2 -9 8 -9 13 0 9 8 6 103
-39z m-1194 -1037 c75 -38 86 -48 112 -95 25 -46 27 -56 19 -98 -29 -144 -64
-195 -167 -243 -58 -27 -65 -28 -115 -18 -99 22 -187 92 -218 176 -27 74 -25
111 11 179 38 73 52 90 109 126 41 26 50 28 105 22 41 -5 87 -21 144 -49z"/>
<path d="M9807 8283 c-12 -12 -7 -31 10 -37 24 -9 39 9 23 29 -14 16 -23 19
-33 8z"/>
<path d="M7415 8218 c4 -13 11 -43 16 -68 6 -25 13 -56 17 -70 13 -44 -25
-124 -74 -156 -37 -25 -51 -7 -35 45 8 29 17 41 34 43 34 5 28 33 -8 33 -26 0
-33 -7 -53 -47 -21 -41 -22 -52 -12 -82 12 -38 32 -47 70 -34 91 33 127 140
95 283 -14 63 -19 75 -37 75 -17 0 -19 -4 -13 -22z"/>
<path d="M6467 8213 c-2 -5 -7 -20 -11 -35 -6 -25 -10 -27 -68 -30 -35 -2 -63
-8 -65 -15 -4 -12 9 -17 70 -28 55 -9 51 -42 -14 -108 -64 -64 -83 -92 -75
-112 6 -17 36 -21 36 -4 0 5 5 7 12 3 7 -5 9 0 6 14 -4 14 2 32 14 47 32 40
32 22 2 -45 -17 -39 -24 -64 -18 -70 18 -18 40 14 69 100 15 47 36 94 46 105
19 19 20 19 74 -35 40 -40 58 -51 66 -43 8 8 1 28 -26 74 l-36 62 42 44 c24
23 51 46 61 49 22 7 24 34 3 34 -9 0 -32 -8 -53 -19 -68 -34 -81 -35 -94 -7
-11 25 -32 34 -41 19z m29 -110 c-10 -10 -19 5 -10 18 6 11 8 11 12 0 2 -7 1
-15 -2 -18z"/>
<path d="M7893 8137 c-14 -13 -23 -35 -23 -52 0 -28 37 -95 53 -95 15 0 6 -47
-14 -69 -29 -31 -74 -26 -74 9 0 38 -29 32 -33 -7 -4 -36 26 -63 69 -63 32 0
86 49 95 85 6 26 -12 69 -27 60 -5 -4 -9 0 -9 9 0 8 -8 28 -17 45 -17 29 -17
30 6 55 13 13 20 29 16 35 -9 15 -17 13 -42 -12z"/>
<path d="M8854 8133 c-12 -2 -33 -16 -47 -31 -21 -23 -28 -44 -41 -137 -14
-103 -11 -135 12 -121 5 3 15 52 22 108 15 125 33 153 92 144 20 -3 39 -2 42
3 8 12 -21 34 -34 26 -5 -3 -10 -1 -10 4 0 6 -3 10 -7 10 -5 -1 -18 -4 -29 -6z"/>
<path d="M11610 8112 c-30 -24 -22 -61 20 -85 34 -21 39 -46 12 -70 -22 -20
-43 -22 -60 -5 -22 22 -35 -6 -14 -32 15 -18 24 -21 50 -15 30 6 82 55 82 76
0 19 -23 54 -49 76 -31 25 -22 38 27 38 26 0 37 4 37 15 0 24 -76 25 -105 2z"/>
<path d="M7619 8095 c-65 -48 -90 -134 -49 -175 25 -25 51 -25 73 0 24 28 22
49 -3 43 -11 -3 -20 -9 -20 -14 0 -5 -7 -9 -15 -9 -8 0 -15 7 -15 16 0 8 -4
12 -10 9 -5 -3 -10 -1 -10 4 0 6 7 11 15 11 8 0 15 5 15 10 0 6 10 10 21 10
31 0 89 39 89 59 0 22 -28 61 -44 61 -6 0 -28 -11 -47 -25z m51 -28 c0 -15
-41 -37 -67 -37 -10 0 -3 9 18 24 40 28 49 31 49 13z"/>
<path d="M9305 8085 c-15 -19 -24 -39 -19 -46 4 -7 3 -9 -3 -6 -13 8 -36 -44
-31 -69 7 -36 34 -39 77 -11 40 26 41 27 41 6 0 -27 18 -59 33 -59 9 0 13 17
13 58 -1 31 3 69 8 85 12 39 -14 36 -51 -5 -37 -43 -83 -73 -83 -56 0 19 39
81 62 99 22 17 17 39 -7 39 -8 0 -26 -16 -40 -35z"/>
<path d="M9980 8097 c-57 -16 -122 -55 -117 -71 5 -16 14 -14 80 18 84 41 97
32 44 -30 -90 -106 -86 -150 15 -140 65 6 98 20 98 41 0 17 -14 19 -38 6 -20
-11 -102 -23 -102 -15 0 13 27 54 72 108 27 32 48 66 46 75 -4 21 -41 23 -98
8z"/>
<path d="M10261 8065 c-74 -69 -86 -146 -31 -197 24 -23 90 -25 90 -3 0 10
-10 15 -28 15 -34 0 -62 27 -62 61 0 37 10 45 79 65 76 23 92 41 68 78 -26 39
-60 34 -116 -19z m89 -4 c0 -5 -8 -11 -17 -14 -10 -2 -26 -8 -35 -12 -28 -11
-21 9 9 27 27 16 43 15 43 -1z"/>
<path d="M11332 8090 c-18 -11 -46 -41 -62 -67 -27 -42 -28 -49 -16 -67 17
-27 58 -32 98 -12 39 20 36 20 40 -6 6 -45 108 -62 108 -18 0 14 -8 17 -37 16
-33 -1 -38 2 -41 22 -2 13 3 40 11 61 30 74 -29 116 -101 71z m64 -42 c-3 -17
-12 -38 -19 -46 -17 -21 -78 -45 -88 -35 -13 13 27 71 63 93 45 27 52 25 44
-12z"/>
<path d="M9533 8072 c-29 -18 -47 -40 -58 -67 -19 -52 -19 -55 4 -55 12 0 21
9 25 24 8 31 59 86 81 86 15 0 17 -7 11 -49 -5 -35 -3 -51 6 -54 8 -3 6 -6 -4
-6 -19 -1 -24 -36 -9 -60 15 -24 32 24 38 106 5 66 4 78 -12 89 -26 19 -34 18
-82 -14z"/>
<path d="M6878 8043 c-1 -21 -2 -46 -1 -55 0 -10 -2 -16 -5 -14 -2 3 -15 -16
-29 -41 -18 -35 -21 -49 -12 -57 8 -8 17 -3 33 19 34 48 114 130 120 124 3 -3
1 -21 -4 -40 -20 -69 -7 -139 25 -139 17 0 19 14 6 38 -8 16 -3 64 14 148 10
45 -17 52 -67 19 -41 -27 -61 -27 -39 -1 16 19 6 36 -20 36 -15 0 -19 -8 -21
-37z"/>
<path d="M9086 8070 c-46 -14 -86 -59 -86 -96 0 -41 21 -58 65 -51 l35 6 0
-54 c0 -30 -4 -56 -9 -59 -4 -3 -21 0 -38 6 -46 17 -80 3 -103 -43 -44 -86
-12 -274 50 -294 24 -8 60 2 60 16 0 6 7 17 15 26 17 17 16 34 -3 41 -6 2 -17
-8 -23 -22 -7 -14 -20 -26 -30 -26 -41 0 -72 151 -47 225 13 39 15 40 56 39
24 0 47 -5 52 -10 6 -6 6 -41 0 -94 -6 -57 -6 -88 1 -95 14 -14 25 8 33 68 4
28 14 55 22 61 12 9 12 17 3 41 -13 33 -1 182 20 260 9 34 8 42 -6 53 -19 14
-26 14 -67 2z m26 -58 c-6 -44 -82 -81 -82 -41 0 16 56 69 72 69 10 0 13 -9
10 -28z"/>
<path d="M9772 8053 c-6 -10 -13 -42 -17 -70 -6 -45 -4 -53 9 -53 9 0 18 12
22 28 3 15 10 42 15 61 12 49 -9 73 -29 34z"/>
<path d="M8544 8038 c-74 -80 -54 -168 39 -168 51 0 114 38 123 75 14 57 -25
98 -104 111 -30 5 -41 2 -58 -18z m89 -33 c12 -1 25 -3 30 -4 4 0 7 -16 7 -35
0 -30 -4 -36 -40 -50 -69 -28 -110 -4 -89 52 16 43 39 64 56 51 7 -7 23 -13
36 -14z"/>
<path d="M7128 8008 c-16 -23 -22 -47 -23 -83 l0 -50 37 -3 c30 -3 43 2 63 23
29 28 27 53 -5 90 -9 11 -20 28 -23 38 -9 25 -23 21 -49 -15z m62 -74 c0 -14
-30 -34 -49 -34 -14 0 -14 21 -1 56 10 26 11 26 30 9 11 -10 20 -24 20 -31z"/>
<path d="M10865 7740 c-4 -6 -7 -40 -8 -75 -2 -55 -9 -77 -55 -167 -83 -163
-70 -177 57 -63 46 41 86 75 88 75 3 0 2 -13 -2 -28 -7 -34 10 -85 27 -80 12
4 19 106 10 136 -9 26 -50 10 -106 -40 l-58 -51 30 59 c35 70 53 144 49 198
-3 39 -19 57 -32 36z"/>
<path d="M9891 7713 c0 -6 3 -23 9 -37 7 -19 15 -24 36 -23 15 1 29 8 32 15 4
13 -36 32 -55 25 -6 -2 -13 4 -16 14 -3 10 -5 13 -6 6z"/>
<path d="M6795 7660 c-3 -5 -5 -31 -4 -57 1 -27 -2 -91 -6 -144 -8 -101 -2
-119 32 -100 10 5 30 12 46 16 35 7 107 72 107 96 0 37 -77 58 -130 35 -12 -5
-15 5 -15 59 0 36 3 65 8 65 4 0 7 9 7 20 0 21 -33 29 -45 10z m116 -181 c20
-10 20 -11 2 -31 -16 -18 -64 -48 -78 -48 -17 0 -1 51 21 69 31 24 29 24 55
10z"/>
<path d="M7024 7656 c-3 -9 -3 -24 1 -33 5 -12 9 -14 12 -5 3 6 9 9 15 6 6 -4
8 3 6 17 -4 27 -26 37 -34 15z"/>
<path d="M11917 7570 c-14 -11 -32 -18 -40 -14 -10 3 -21 -7 -35 -33 -59 -112
-85 -171 -90 -206 -4 -34 -3 -39 14 -35 12 2 32 29 54 75 35 72 35 73 75 73
69 1 165 58 165 99 0 53 -93 80 -143 41z m84 -20 c29 -16 23 -34 -18 -57 -52
-29 -113 -40 -113 -21 0 18 35 51 75 72 36 19 32 18 56 6z"/>
<path d="M7610 7570 c-40 -10 -73 -46 -89 -100 -22 -74 -6 -110 32 -72 16 17
18 24 8 36 -10 12 -8 22 8 55 21 41 46 56 74 45 23 -8 36 3 30 26 -6 22 -10
22 -63 10z"/>
<path d="M11445 7549 c-58 -51 -41 -107 30 -96 l35 6 0 -40 c0 -34 3 -39 23
-39 18 0 19 -2 7 -10 -13 -8 -13 -10 1 -10 25 0 30 12 13 31 -13 15 -14 24 -4
53 6 19 20 47 32 61 15 19 18 29 10 37 -9 9 -17 7 -32 -7 -19 -17 -20 -17 -29
7 -8 21 -29 38 -46 38 -3 0 -20 -14 -40 -31z m55 -24 c0 -8 0 -18 0 -22 0 -10
-47 -23 -54 -15 -7 6 33 52 46 52 4 0 8 -7 8 -15z"/>
<path d="M11166 7540 c-67 -59 -98 -167 -58 -203 23 -21 92 -22 118 -2 19 15
19 15 -1 8 -18 -6 -18 -5 -6 10 12 15 11 16 -19 6 -23 -9 -38 -9 -57 0 -21 10
-24 16 -18 44 9 41 16 50 62 73 53 26 73 44 73 64 0 18 -19 30 -45 30 -8 0
-30 -14 -49 -30z"/>
<path d="M9566 7537 c-10 -8 -29 -12 -42 -9 -14 2 -24 0 -24 -7 0 -6 -13 -39
-30 -73 -35 -72 -36 -78 -11 -78 11 0 23 11 30 28 7 15 25 43 42 62 l31 35 -7
-35 c-4 -19 -8 -42 -8 -50 -4 -30 32 -19 94 29 69 54 80 51 59 -14 -13 -40 -7
-70 17 -79 23 -9 39 9 24 27 -8 11 -9 26 -2 58 6 24 11 59 11 77 0 45 -22 42
-92 -13 -32 -25 -60 -45 -62 -45 -3 0 1 19 9 41 8 23 15 45 15 50 0 14 -34 11
-54 -4z"/>
<path d="M7366 7509 c-38 -30 -60 -83 -46 -109 12 -23 35 -25 70 -6 22 13 25
12 35 -6 17 -35 30 -21 33 37 1 42 -1 55 -12 55 -8 0 -16 -7 -19 -14 -7 -17
-66 -50 -75 -42 -12 12 36 61 64 66 36 6 39 34 3 38 -15 2 -37 -6 -53 -19z"/>
<path d="M7137 7504 c-15 -8 -32 -26 -37 -40 -13 -34 -13 -101 1 -110 16 -10
29 15 29 58 0 43 21 68 57 68 24 0 25 -2 18 -32 -13 -56 -11 -82 6 -86 12 -2
18 7 22 35 4 21 9 50 13 64 12 52 -49 76 -109 43z"/>
<path d="M7822 7489 c-44 -81 -74 -89 -86 -24 -7 37 -30 55 -47 38 -11 -11 34
-108 57 -121 14 -8 13 -14 -11 -61 -35 -69 -69 -201 -55 -215 16 -16 25 2 44
79 15 66 87 227 129 287 18 27 16 48 -4 48 -5 0 -18 -14 -27 -31z"/>
<path d="M9990 7489 c-36 -19 -59 -57 -60 -96 0 -31 28 -29 36 2 7 28 67 85
89 85 23 0 27 -18 15 -77 -12 -55 -9 -65 17 -64 11 0 33 119 26 139 -4 9 -11
20 -17 24 -19 13 -70 7 -106 -13z"/>
<path d="M9856 7468 c-2 -7 -11 -33 -20 -58 -9 -25 -16 -51 -16 -58 0 -14 29
-16 31 -2 2 16 5 22 23 64 17 39 16 66 -4 66 -6 0 -12 -6 -14 -12z"/>
<path d="M7027 7463 c-3 -5 -8 -34 -11 -66 -7 -53 -5 -58 11 -55 14 2 20 16
25 58 3 30 4 58 2 62 -6 10 -21 10 -27 1z"/>
<path d="M10244 7399 c-10 -17 8 -28 67 -41 63 -13 109 -5 109 18 0 13 -7 15
-29 11 -15 -3 -52 1 -82 8 -30 8 -55 15 -56 15 -1 0 -5 -5 -9 -11z"/>
<path d="M10934 7319 c-4 -7 4 -20 17 -30 l24 -19 -55 0 c-90 0 -128 -16 -197
-83 -54 -51 -66 -70 -83 -125 -30 -96 -27 -114 28 -181 26 -32 55 -70 66 -84
10 -15 27 -29 37 -32 11 -4 19 -14 19 -24 0 -35 -433 -462 -514 -507 -22 -11
-82 3 -151 37 -48 23 -71 24 -133 5 -26 -8 -64 -18 -86 -21 -53 -9 -129 -81
-150 -142 -20 -57 -21 -173 -2 -216 7 -18 32 -53 55 -79 84 -94 287 -139 401
-87 79 36 116 85 144 192 11 41 12 74 5 133 -7 70 -12 82 -38 106 l-30 27 92
83 c133 121 376 361 417 411 l35 44 96 6 c117 6 164 27 207 92 62 94 81 283
36 369 -15 30 -37 48 -99 82 -44 24 -88 42 -97 40 -10 -2 -18 0 -18 5 0 13
-17 11 -26 -2z m86 -93 c-14 -14 -13 -36 2 -36 6 0 20 7 29 16 17 15 20 15 43
0 34 -22 43 -41 57 -120 9 -52 9 -82 -1 -129 -26 -135 -87 -189 -204 -180
-123 9 -125 9 -203 91 -43 45 -73 85 -73 97 0 12 7 46 16 76 21 71 97 152 158
167 22 6 59 15 81 20 52 13 108 11 95 -2z m-958 -988 c13 -7 28 -19 34 -27 6
-8 15 -11 21 -8 18 11 84 -14 131 -50 49 -37 82 -105 82 -168 0 -37 -34 -128
-62 -168 -30 -42 -100 -69 -183 -70 -148 -3 -285 87 -307 201 -24 126 35 218
173 272 86 34 83 34 111 18z"/>
<path d="M5108 7300 c-2 -6 -35 -13 -73 -16 -51 -5 -84 -15 -122 -36 -44 -25
-56 -38 -83 -96 -26 -54 -32 -81 -33 -137 -2 -89 13 -137 63 -203 l40 -52 -32
-49 c-18 -26 -53 -80 -78 -119 -25 -39 -69 -106 -97 -149 -29 -43 -73 -113
-99 -155 -50 -83 -55 -85 -106 -40 -13 11 -31 13 -75 8 -32 -3 -90 -7 -130 -8
-90 -4 -111 -18 -178 -123 -49 -77 -50 -80 -48 -150 1 -39 6 -83 12 -97 16
-42 71 -98 120 -122 25 -13 60 -31 76 -40 20 -11 55 -16 108 -16 64 0 86 4
127 26 28 14 63 42 79 63 53 67 61 93 61 192 0 82 -3 98 -31 154 l-31 63 27
43 c15 24 60 94 100 154 262 398 233 362 271 342 16 -8 73 -18 129 -22 118 -8
149 1 218 64 29 27 46 37 50 29 2 -7 45 -67 94 -133 94 -126 229 -328 258
-386 16 -30 70 -103 102 -136 6 -7 19 -13 29 -13 13 0 14 -3 4 -15 -24 -29
-49 -152 -39 -196 10 -45 55 -139 67 -139 4 0 24 -16 46 -36 l38 -35 -20 -22
c-11 -12 -37 -48 -59 -79 -21 -32 -115 -139 -208 -238 -125 -135 -172 -179
-184 -174 -9 4 -70 8 -137 8 -117 1 -122 0 -169 -29 -59 -36 -101 -106 -127
-207 -15 -59 -16 -73 -3 -113 14 -47 52 -106 89 -138 12 -10 50 -32 86 -49 60
-29 72 -31 163 -29 152 2 180 22 253 175 33 70 36 86 35 152 -2 68 -5 78 -42
134 -25 38 -49 62 -65 66 -14 4 -24 10 -22 14 2 5 75 85 162 180 88 94 184
205 215 247 l56 76 108 4 c99 3 112 6 164 35 31 18 58 28 60 22 2 -5 24 -38
48 -74 161 -232 224 -335 265 -430 46 -107 56 -123 75 -112 5 3 -2 -8 -17 -26
-61 -74 -81 -225 -41 -312 12 -25 39 -64 60 -88 46 -52 117 -74 238 -74 103 1
160 13 191 43 41 38 93 142 108 212 18 86 8 132 -52 232 -40 68 -55 84 -97
106 -57 29 -112 43 -117 28 -2 -5 -36 -11 -75 -13 -75 -5 -101 -16 -167 -75
-28 -26 -29 -26 -23 -3 3 13 0 25 -8 30 -8 4 -34 50 -58 102 -24 52 -82 151
-128 219 -46 67 -105 155 -131 193 l-48 70 20 28 c40 56 74 170 71 240 -2 59
-6 68 -39 105 -20 22 -44 50 -52 63 -9 13 -43 32 -83 47 -37 13 -77 31 -88 39
-23 16 -49 11 -49 -9 0 -10 -14 -12 -57 -8 -50 4 -63 1 -93 -19 -19 -13 -50
-44 -69 -69 l-33 -46 -43 46 c-24 25 -60 75 -81 111 -54 94 -165 259 -259 385
-112 150 -110 146 -84 197 17 34 21 58 20 125 -1 45 -4 91 -8 100 -16 44 -74
122 -95 128 -13 4 -44 20 -69 36 -35 22 -58 29 -97 29 -27 0 -52 -5 -54 -10z
m149 -76 c91 -51 123 -103 123 -199 0 -79 -8 -118 -22 -109 -5 3 -15 0 -23 -6
-11 -9 -12 -17 -4 -32 16 -29 6 -42 -53 -76 -106 -60 -215 -70 -297 -26 -25
13 -51 24 -58 24 -19 0 -71 83 -84 134 -26 106 19 242 95 286 38 23 87 31 229
38 17 1 56 -13 94 -34z m984 -1005 c44 -16 67 -33 103 -74 42 -50 46 -58 46
-107 -1 -36 -11 -79 -33 -133 -31 -78 -33 -80 -97 -116 -53 -29 -79 -37 -141
-42 -61 -5 -79 -4 -89 8 -7 8 -22 15 -35 15 -66 0 -155 137 -140 217 13 71
116 223 163 241 63 25 135 22 223 -9z m-1891 -17 c0 -10 57 -8 82 2 23 10 67
-23 65 -49 -2 -16 4 -20 26 -18 23 1 31 -5 48 -39 18 -34 20 -55 17 -127 -3
-77 -7 -91 -35 -131 -42 -61 -101 -90 -181 -90 -52 0 -71 6 -135 40 -100 54
-127 93 -127 182 0 62 3 70 47 137 52 78 56 81 128 91 28 4 53 8 58 9 4 0 7
-3 7 -7z m2655 -1002 c4 -6 15 -8 25 -5 47 15 96 -28 147 -130 33 -64 35 -74
30 -133 -7 -69 -44 -155 -88 -202 -20 -22 -38 -30 -83 -35 -66 -9 -174 -2
-226 14 -45 13 -94 76 -117 147 -15 50 -15 57 2 121 21 79 61 141 118 180 58
40 177 67 192 43z m-1551 -46 c3 -9 13 -14 21 -10 8 3 36 -1 63 -9 39 -12 52
-22 62 -45 7 -16 18 -35 26 -41 19 -16 18 -117 -2 -187 -19 -65 -74 -137 -117
-152 -17 -5 -66 -10 -111 -10 -69 0 -90 4 -141 29 -33 15 -69 39 -81 52 -29
34 -62 90 -65 114 -8 57 50 202 95 235 35 26 88 38 167 39 62 1 78 -2 83 -15z"/>
<path d="M5816 7180 c-22 -4 -48 -18 -58 -30 -22 -28 -24 -90 -2 -132 15 -28
14 -31 -5 -52 -12 -12 -21 -35 -21 -50 0 -22 7 -30 37 -43 37 -15 37 -15 65
16 32 35 35 57 13 88 -14 20 -13 25 26 69 68 78 72 114 17 133 -17 6 -31 10
-32 10 -1 -1 -19 -5 -40 -9z m22 -42 c8 -8 15 -8 26 1 17 14 31 -2 19 -23 -12
-20 -84 -98 -87 -94 -30 34 -32 82 -6 108 23 23 31 25 48 8z m-18 -197 c0 -22
-25 -45 -40 -36 -15 9 -12 26 6 46 19 21 34 16 34 -10z"/>
<path d="M8642 7044 c-12 -8 -22 -19 -22 -25 0 -25 -238 -215 -349 -278 -113
-65 -316 -132 -505 -166 -77 -14 -165 -30 -195 -35 -80 -15 -81 -14 -74 20 10
52 -21 39 -159 -66 -42 -33 -84 -64 -94 -70 -21 -12 -11 -34 15 -34 27 0 128
-46 168 -77 22 -17 37 -23 44 -16 5 5 10 47 11 92 1 52 7 88 14 96 7 7 50 18
96 24 382 55 656 152 838 294 114 90 160 132 160 145 0 7 4 11 9 8 12 -8 94
70 89 85 -7 20 -21 21 -46 3z m-1227 -554 c-16 -30 -32 -42 -82 -60 -27 -10
-27 -10 6 18 22 19 31 33 26 42 -5 9 -2 10 12 6 12 -4 25 -1 33 9 20 24 22 18
5 -15z m-16 -84 c-7 -16 -17 -22 -26 -19 -12 5 -11 10 8 24 31 24 31 24 18 -5z
m41 -46 c0 -5 -2 -10 -4 -10 -3 0 -8 5 -11 10 -3 6 -1 10 4 10 6 0 11 -4 11
-10z"/>
<path d="M11569 7019 c-25 -15 -1 -32 50 -35 29 -1 55 -5 57 -7 13 -13 -16
-41 -82 -77 -41 -22 -72 -45 -69 -50 10 -17 33 -11 89 20 l53 30 11 -24 c13
-29 69 -49 122 -44 52 5 47 31 -6 34 -58 3 -82 12 -89 34 -8 26 13 57 53 76
37 17 38 41 1 36 -38 -4 -50 -4 -116 5 -35 5 -68 6 -74 2z"/>
<path d="M8713 7003 c-5 -10 -7 -58 -7 -108 1 -74 7 -106 34 -180 48 -137 153
-326 224 -407 115 -133 130 -158 90 -158 -8 0 -23 -9 -34 -20 -11 -11 -29 -20
-40 -20 -23 0 -27 -28 -6 -36 8 -3 28 2 45 10 28 15 36 15 93 0 148 -37 167
-44 189 -75 45 -63 63 2 23 86 -13 28 -31 76 -40 108 -16 54 -16 58 1 77 53
58 -80 8 -145 -55 l-35 -33 -65 76 c-99 116 -127 157 -190 282 -96 191 -126
316 -108 444 4 25 -20 33 -29 9z m526 -767 c-2 -2 -15 -9 -29 -16 -23 -12 -24
-12 -11 3 7 10 20 17 29 17 8 0 13 -2 11 -4z m-44 -87 c-14 -27 -20 -30 -48
-24 -18 4 -36 12 -42 18 -7 7 -6 8 2 3 7 -4 29 2 50 13 51 27 56 26 38 -10z
m69 0 c4 -20 1 -29 -10 -33 -27 -10 -35 4 -18 35 17 35 19 34 28 -2z"/>
<path d="M11170 6832 c0 -10 22 -45 49 -77 27 -33 91 -118 143 -190 51 -71
116 -155 143 -186 76 -85 135 -171 135 -197 0 -14 15 -39 35 -59 32 -32 36
-42 40 -102 8 -102 14 -120 59 -169 47 -51 154 -105 229 -115 50 -7 159 13
207 38 45 23 90 82 90 118 0 18 9 52 20 76 11 24 20 53 20 66 0 94 -125 237
-215 247 -24 2 -30 -1 -30 -17 0 -14 14 -26 45 -41 57 -27 125 -100 140 -151
10 -33 9 -46 -9 -91 -12 -29 -21 -63 -21 -76 0 -13 -14 -41 -31 -62 -61 -78
-195 -92 -323 -34 -131 60 -177 167 -122 285 59 128 226 196 286 117 16 -22
21 -24 29 -13 23 36 -33 80 -112 88 -45 5 -63 1 -103 -18 -61 -30 -110 -81
-118 -121 l-6 -31 -31 34 c-17 19 -38 48 -46 64 -21 40 -97 140 -148 195 -23
25 -78 97 -123 160 -44 63 -103 141 -131 174 -27 32 -47 64 -44 71 2 8 -5 18
-16 24 -29 16 -41 14 -41 -7z"/>
<path d="M2682 6642 c-57 -58 -92 -127 -92 -178 0 -78 61 -167 93 -135 6 6 20
11 32 11 27 1 59 28 78 66 20 39 13 68 -19 83 -31 14 -69 -4 -107 -49 -14 -16
-29 -30 -33 -30 -3 0 -5 26 -2 58 3 49 11 68 43 112 22 31 53 58 72 67 37 15
39 36 5 41 -16 2 -36 -11 -70 -46z m86 -204 c4 -21 -47 -68 -74 -68 -33 0 -30
16 11 57 35 35 58 39 63 11z"/>
<path d="M6684 6433 c-36 -7 -56 -37 -52 -79 3 -37 4 -38 56 -49 54 -13 92
-38 92 -62 0 -8 -11 -25 -25 -38 -27 -28 -75 -33 -115 -10 -18 9 -29 10 -37 3
-23 -18 -14 -37 23 -53 47 -19 104 -19 132 1 29 20 65 90 57 114 -11 35 -56
69 -101 76 -38 5 -44 10 -44 30 0 16 7 25 23 29 34 9 60 9 84 1 29 -9 42 13
18 31 -18 12 -65 15 -111 6z"/>
<path d="M6527 6376 c-4 -9 -2 -18 2 -20 5 -3 6 -57 3 -121 -4 -108 -4 -115
14 -115 18 0 19 9 19 132 0 114 -2 133 -16 136 -9 2 -19 -4 -22 -12z"/>
<path d="M12470 5737 c0 -17 54 -37 105 -37 34 -1 39 5 -58 -65 -66 -47 -86
-80 -57 -95 29 -15 139 -28 198 -23 43 5 52 9 52 25 0 27 -25 33 -89 22 -31
-5 -69 -7 -86 -4 l-30 6 49 34 c70 49 126 100 126 115 0 7 -22 14 -57 18 -32
4 -79 9 -105 13 -40 6 -48 4 -48 -9z"/>
<path d="M9540 5675 c-10 -43 -11 -58 -2 -67 9 -9 15 -9 24 0 9 9 16 1 30 -35
l18 -47 -45 -77 c-82 -139 -119 -259 -80 -259 8 0 15 7 15 15 0 65 108 275
141 275 15 0 19 7 19 33 0 32 19 66 88 156 21 28 30 47 23 54 -14 14 -27 2
-80 -74 l-49 -70 -12 37 c-7 20 -18 48 -26 62 -8 15 -14 33 -14 40 0 6 -8 12
-18 12 -14 0 -22 -13 -32 -55z"/>
<path d="M4084 5606 c-24 -53 -26 -54 -59 -49 -28 4 -35 2 -35 -11 0 -9 -5
-16 -10 -16 -18 0 -50 -64 -50 -98 0 -18 7 -46 15 -62 14 -27 13 -32 -9 -75
-18 -33 -23 -52 -17 -68 11 -30 37 -29 33 2 -4 37 35 96 64 97 35 3 94 50 110
91 15 35 10 57 -23 95 -13 15 -12 23 11 73 14 32 23 61 20 66 -12 20 -26 7
-50 -45z m-49 -113 c-3 -16 -18 -48 -32 -73 l-27 -45 -8 30 c-9 35 7 85 29 85
7 0 16 7 19 15 11 27 27 16 19 -12z m65 -45 c0 -21 -60 -88 -79 -88 -6 0 4 29
22 64 24 49 35 62 44 54 7 -6 13 -19 13 -30z"/>
<path d="M3811 5571 c-11 -7 -12 -27 -6 -95 4 -53 3 -91 -3 -99 -13 -16 4 -60
20 -54 9 2 13 35 15 110 0 58 4 111 8 116 7 12 -2 31 -13 31 -4 0 -13 -4 -21
-9z"/>
<path d="M7920 5108 c0 -2 -1 -85 -3 -186 -1 -101 1 -186 5 -188 18 -11 26 44
30 204 4 160 3 172 -14 172 -10 0 -18 -1 -18 -2z"/>
<path d="M7634 5052 c-61 -45 -69 -58 -44 -72 23 -12 40 -6 40 15 0 18 62 57
74 45 17 -17 -56 -140 -126 -214 -37 -39 -67 -76 -68 -83 -1 -32 26 -20 72 31
27 31 54 56 59 56 5 0 9 -16 9 -35 0 -51 31 -79 78 -70 43 8 62 21 62 42 0 11
-6 13 -22 8 -69 -21 -76 -20 -83 21 -3 22 -8 47 -10 57 -2 10 14 53 36 95 42
82 46 101 27 120 -20 20 -63 13 -104 -16z"/>
<path d="M5704 4550 c-26 -10 -54 -48 -54 -73 0 -10 10 -35 22 -56 l22 -39
-32 -36 c-40 -46 -50 -82 -31 -115 26 -46 99 -40 125 10 16 32 12 103 -7 114
-5 3 9 29 31 56 44 55 53 105 24 133 -17 17 -66 20 -100 6z m41 -40 c4 -6 16
-8 27 -4 17 5 19 3 13 -18 -4 -12 -19 -38 -32 -56 l-25 -34 -19 31 c-11 18
-19 39 -19 49 0 33 40 56 55 32z m-19 -195 c9 -36 -3 -73 -26 -80 -43 -14 -55
33 -19 79 26 33 37 33 45 1z"/>
<path d="M5520 4509 c-7 -13 -8 -24 -2 -32 6 -7 7 -32 2 -62 -12 -68 -12 -187
0 -205 15 -23 25 -2 25 53 0 29 4 100 9 160 8 95 7 107 -7 107 -9 0 -21 -9
-27 -21z"/>
<path d="M10620 4085 c-7 -9 -27 -22 -44 -29 -17 -7 -64 -35 -105 -62 -40 -27
-86 -56 -102 -64 -65 -34 -16 -59 176 -90 70 -11 155 -3 155 15 0 8 -31 14
-97 18 -54 4 -120 13 -147 20 l-49 14 34 25 c44 33 102 67 164 98 33 17 50 32
50 45 0 24 -19 30 -35 10z"/>
<path d="M9703 4064 c-23 -15 -47 -38 -54 -51 l-13 -23 -27 30 c-29 32 -57 38
-77 18 -16 -16 -15 -53 3 -68 19 -16 37 -3 30 21 -10 29 9 23 28 -10 21 -36
21 -55 2 -113 -19 -55 -67 -103 -120 -120 -49 -16 -54 -42 -8 -46 28 -3 41 5
87 50 50 48 55 51 66 35 28 -46 185 -78 185 -37 0 10 -14 15 -50 17 -27 2 -63
12 -80 21 -28 17 -30 22 -30 78 0 102 56 184 124 184 16 0 21 5 19 18 -5 27
-39 25 -85 -4z"/>
<path d="M11983 4056 c-40 -33 -180 -124 -203 -131 -11 -4 -20 -13 -20 -21 0
-23 64 -45 157 -54 47 -5 91 -14 99 -21 11 -9 18 -9 26 -1 21 21 -15 43 -88
52 -38 5 -84 12 -103 16 l-34 5 89 59 c119 79 138 95 130 109 -10 16 -21 14
-53 -13z"/>
<path d="M12472 4043 c2 -14 15 -19 58 -23 30 -3 54 -9 53 -14 -1 -4 -32 -30
-70 -58 -82 -60 -133 -107 -133 -125 0 -10 34 -13 150 -14 83 -1 156 -2 163
-3 6 -1 12 8 12 19 0 19 -6 19 -115 17 -63 -1 -121 1 -129 7 -10 6 14 28 95
86 60 42 109 82 109 88 0 13 -38 22 -132 32 -59 6 -65 5 -61 -12z"/>
<path d="M11105 3979 c-4 -5 18 -36 48 -68 66 -68 87 -123 70 -179 -6 -21 -30
-89 -52 -152 -42 -118 -48 -154 -31 -180 9 -13 11 -13 20 0 5 8 10 29 10 45 0
17 18 80 40 140 21 61 53 157 70 215 17 58 38 116 47 129 11 17 12 26 4 34
-16 16 -32 -4 -57 -70 -21 -55 -22 -56 -34 -33 -16 29 -109 130 -121 130 -4 0
-11 -5 -14 -11z"/>
<path d="M11711 3790 c-12 -7 -12 -11 -2 -24 17 -20 57 -32 166 -51 50 -8 102
-18 118 -21 20 -4 27 -2 27 9 0 31 -52 51 -151 57 -61 5 -104 13 -120 23 -15
10 -29 13 -38 7z"/>
<path d="M10300 3701 c0 -15 12 -23 53 -34 121 -34 160 -40 242 -33 69 6 83 4
88 -9 8 -19 36 -20 33 -2 -1 8 -9 26 -19 40 l-17 26 -127 -6 c-114 -5 -134 -3
-183 16 -67 26 -70 26 -70 2z"/>
<path d="M6901 3116 c-6 -7 -13 -42 -16 -77 -7 -81 -25 -178 -37 -202 -9 -17
-11 -17 -27 -3 -10 9 -24 16 -32 16 -24 0 -102 -53 -133 -90 -23 -28 -27 -41
-23 -72 7 -52 23 -68 65 -68 30 0 44 8 87 53 80 82 117 176 135 342 4 39 11
80 15 93 8 25 -15 31 -34 8z m-89 -320 c17 -12 16 -16 -11 -52 -34 -48 -87
-94 -107 -94 -20 0 -37 47 -25 68 19 34 91 91 116 91 6 0 18 -6 27 -13z"/>
<path d="M2865 3093 c-12 -12 -15 -26 -11 -52 15 -96 18 -181 7 -231 -12 -55
-49 -140 -61 -140 -7 0 -31 86 -77 272 -27 113 -47 147 -57 96 -40 -217 -52
-274 -72 -338 -13 -41 -24 -78 -24 -82 0 -13 40 -9 44 5 14 54 32 127 51 212
l22 100 15 -55 c8 -30 24 -91 34 -134 34 -141 73 -153 127 -38 32 67 32 68 32
230 0 90 -3 166 -7 168 -3 2 -14 -3 -23 -13z"/>
<path d="M3406 3059 c-3 -17 -6 -60 -6 -94 0 -114 -77 -296 -128 -303 -19 -3
-22 1 -22 27 0 35 58 107 98 122 26 10 25 32 -2 37 -23 5 -122 -95 -132 -132
-17 -70 41 -119 94 -79 40 30 106 166 120 249 10 59 16 147 13 192 -2 25 -29
11 -35 -19z"/>
<path d="M9535 3078 c-2 -7 -20 -60 -40 -118 -44 -129 -93 -237 -111 -244 -19
-7 -18 -61 3 -81 27 -27 58 -35 100 -23 57 16 90 43 109 93 31 81 -9 155 -76
141 l-28 -5 39 114 c22 63 37 120 34 125 -9 14 -25 13 -30 -2z m31 -294 c17
-66 -24 -126 -94 -140 -60 -12 -64 4 -21 76 59 99 101 122 115 64z"/>
<path d="M6072 3034 c2 -11 11 -20 22 -22 13 -3 17 1 14 14 -2 11 -11 20 -22
22 -13 3 -17 -1 -14 -14z"/>
<path d="M13177 3024 c-3 -3 -3 -20 0 -38 4 -25 -10 -64 -66 -184 -39 -84 -71
-159 -71 -167 0 -28 31 -15 45 18 17 42 49 81 86 108 42 29 51 13 32 -58 -17
-65 -14 -108 7 -108 9 0 14 8 13 20 -1 11 5 42 13 69 21 75 19 115 -8 125 -15
6 -32 4 -50 -5 -15 -8 -29 -14 -32 -14 -3 0 9 28 26 63 17 34 35 80 39 102 9
50 -11 92 -34 69z"/>
<path d="M9830 3002 c0 -24 8 -32 26 -25 22 8 17 43 -6 43 -13 0 -20 -7 -20
-18z"/>
<path d="M5118 2963 c-9 -10 -37 -34 -62 -53 -26 -19 -44 -41 -41 -48 2 -7 -3
-30 -11 -52 -19 -46 -13 -80 11 -60 7 6 21 33 30 59 21 63 39 88 85 111 30 15
37 24 33 40 -7 25 -23 26 -45 3z"/>
<path d="M1888 2931 c-27 -48 -54 -56 -136 -43 -44 8 -55 7 -59 -5 -7 -19 14
-33 48 -33 36 0 89 -20 89 -33 0 -15 -61 -107 -71 -107 -12 0 -11 -27 1 -35 6
-4 18 -1 27 7 10 7 14 8 10 1 -10 -16 2 -43 19 -43 8 0 14 9 14 20 0 12 18 40
39 63 l40 42 48 -47 c47 -46 83 -62 83 -35 0 7 -18 34 -40 61 -22 26 -40 54
-40 61 0 7 34 36 75 64 41 29 75 56 75 61 0 18 -18 19 -66 1 -27 -10 -61 -21
-76 -25 -24 -5 -27 -3 -30 26 -4 46 -23 45 -50 -1z m82 -65 c0 -3 -4 -8 -10
-11 -5 -3 -10 -1 -10 4 0 6 5 11 10 11 6 0 10 -2 10 -4z m-60 -32 c0 -22 -2
-24 -14 -14 -8 6 -12 18 -9 26 9 23 23 16 23 -12z m-36 -43 c3 -4 -6 -19 -20
-32 l-26 -24 19 32 c20 37 20 36 27 24z"/>
<path d="M12175 2920 c-9 -14 5 -32 20 -26 22 8 83 -83 70 -104 -4 -6 -30 -25
-58 -43 -66 -43 -84 -64 -69 -79 9 -9 17 -7 34 9 13 11 44 34 69 51 l46 31 18
-40 c19 -40 49 -67 59 -50 3 4 -7 32 -22 60 l-27 53 39 31 c86 70 89 73 83 91
-6 16 -13 13 -55 -21 -87 -71 -79 -68 -98 -31 -9 18 -26 43 -37 56 -21 23 -61
30 -72 12z"/>
<path d="M4810 2911 c0 -5 -20 -22 -44 -37 -72 -45 -94 -100 -58 -144 23 -28
89 -31 127 -6 62 41 82 130 39 177 -17 19 -64 27 -64 10z m28 -47 c43 14 28
-75 -19 -108 -29 -20 -78 -21 -85 -1 -10 26 4 59 36 80 16 11 30 27 30 35 0
12 2 12 9 1 5 -8 16 -11 29 -7z"/>
<path d="M5377 2914 c-4 -4 -7 -20 -7 -36 l0 -29 -37 25 c-33 23 -40 24 -58
12 -11 -7 -30 -28 -43 -46 -62 -92 -23 -148 70 -100 22 11 43 19 45 16 7 -6
-24 -112 -47 -162 -15 -34 -25 -43 -53 -48 -19 -4 -42 -15 -51 -25 -22 -24
-46 -113 -46 -168 0 -83 47 -48 112 82 14 28 23 55 21 61 -2 7 10 11 34 11 21
-1 37 2 36 6 -2 4 -3 12 -3 17 0 6 -7 10 -15 10 -19 0 -20 -8 15 89 43 117 68
280 44 288 -5 2 -13 0 -17 -3z m-27 -79 c5 3 10 2 10 -4 0 -13 -58 -57 -93
-70 -22 -9 -27 -8 -27 5 0 18 17 52 37 76 14 15 17 16 39 2 13 -9 28 -13 34
-9z m-103 -352 c-22 -50 -68 -129 -63 -108 2 11 8 36 11 55 9 44 31 80 50 80
12 0 13 -4 2 -27z"/>
<path d="M8672 2874 c-17 -14 -43 -45 -57 -68 -62 -107 1 -152 116 -82 55 33
55 33 79 14 28 -23 73 -20 78 5 3 13 -3 17 -27 17 -20 0 -35 7 -43 20 -17 26
-32 25 -72 -5 -44 -34 -99 -55 -115 -45 -20 12 25 88 68 117 44 30 49 29 47
-9 -1 -23 3 -33 14 -33 11 0 15 12 15 45 0 44 -1 45 -35 48 -25 2 -44 -5 -68
-24z"/>
<path d="M3828 2866 c-57 -34 -78 -57 -78 -86 0 -22 8 -31 35 -44 44 -21 51
-34 31 -54 -14 -14 -17 -14 -35 3 -19 16 -21 16 -27 1 -11 -29 4 -46 39 -46
35 0 77 33 77 61 0 19 -37 59 -54 59 -8 0 -19 6 -25 14 -10 11 -5 19 21 39 18
14 42 27 53 29 20 3 29 39 10 44 -5 1 -27 -8 -47 -20z"/>
<path d="M5520 2842 c-23 -26 -48 -59 -56 -74 -29 -55 13 -82 76 -49 22 11 41
16 41 11 5 -39 18 -54 34 -40 8 6 11 18 8 26 -3 8 2 33 11 56 24 58 7 72 -36
31 -71 -65 -125 -87 -93 -35 35 54 57 73 72 60 10 -8 17 -8 26 2 9 10 9 14 -1
17 -6 3 -10 9 -7 13 3 5 -3 14 -14 19 -17 9 -26 4 -61 -37z"/>
<path d="M5788 2865 c-21 -14 -38 -21 -38 -15 0 29 -24 2 -56 -66 -50 -106
-33 -116 40 -25 31 39 65 75 76 81 17 9 20 8 20 -13 0 -50 -12 -85 -31 -90
-23 -6 -25 -25 -3 -34 20 -8 49 9 49 28 0 8 3 17 7 20 5 3 9 34 10 70 3 57 1
64 -17 67 -11 1 -37 -9 -57 -23z"/>
<path d="M5987 2856 c-8 -19 -19 -50 -22 -70 -4 -20 -13 -36 -20 -36 -7 0 -18
-6 -24 -13 -8 -11 -6 -18 8 -32 11 -9 25 -15 32 -13 7 2 25 40 40 84 14 43 29
87 34 97 5 13 2 17 -12 17 -12 0 -25 -13 -36 -34z"/>
<path d="M7818 2875 c-24 -14 -48 -43 -48 -59 0 -3 17 -24 37 -47 l37 -41 -28
-25 c-20 -17 -38 -23 -60 -21 -22 2 -31 -1 -31 -12 0 -10 13 -16 41 -18 32 -2
48 2 71 22 46 39 47 61 6 106 -39 44 -37 56 10 68 35 9 43 36 12 39 -11 2 -32
-4 -47 -12z"/>
<path d="M11503 2878 c-5 -7 -20 -38 -33 -68 -12 -30 -29 -64 -36 -75 -19 -27
-17 -45 4 -45 10 0 26 18 40 44 13 24 35 55 48 67 l25 23 -3 -54 c-2 -35 1
-55 8 -55 13 0 53 28 104 73 l38 32 7 -64 c7 -66 26 -99 46 -79 8 8 8 17 0 31
-6 11 -11 48 -11 81 0 106 -13 113 -80 45 -55 -56 -72 -66 -91 -52 -11 8 -11
9 4 4 14 -5 17 1 17 39 0 44 -5 50 -38 46 -8 -1 -19 3 -26 9 -10 7 -16 7 -23
-2z"/>
<path d="M11888 2843 c-38 -40 -68 -92 -68 -117 0 -48 71 -58 129 -17 32 23
41 19 41 -21 0 -18 5 -28 15 -28 12 0 15 14 17 63 1 34 2 79 4 100 2 33 -2 40
-23 48 -48 18 -77 11 -115 -28z m96 -2 c3 -5 3 -23 0 -41 -11 -55 -124 -111
-124 -61 0 10 18 39 41 65 38 43 71 58 83 37z"/>
<path d="M14065 2861 c-16 -10 -46 -33 -65 -52 -19 -18 -41 -34 -50 -34 -9 0
-17 -13 -21 -35 -3 -19 -13 -50 -22 -67 -10 -18 -15 -33 -12 -33 3 0 -1 -10
-9 -22 -19 -30 -96 -224 -96 -243 0 -8 8 -15 18 -15 13 0 32 37 77 149 56 139
61 148 72 126 30 -56 99 -32 187 67 60 67 72 93 62 133 -11 45 -88 59 -141 26z
m109 -32 c6 -5 5 -18 -1 -32 -17 -37 -110 -133 -142 -146 -26 -11 -31 -10 -52
11 -22 22 -28 58 -11 58 4 0 13 9 20 21 8 12 9 18 3 14 -6 -3 -11 1 -11 9 0 9
8 16 18 16 9 0 30 12 45 26 44 40 102 51 131 23z"/>
<path d="M3563 2858 c-13 -6 -34 -35 -48 -65 -14 -29 -32 -53 -39 -53 -16 0
-29 -27 -20 -42 3 -5 12 -7 20 -4 11 4 13 -1 8 -19 -4 -16 0 -35 11 -51 14
-23 21 -25 52 -19 44 8 73 25 73 44 0 9 -7 11 -22 6 -13 -4 -35 -9 -50 -12
-26 -5 -28 -3 -28 25 0 40 9 62 25 62 21 0 75 56 75 78 0 11 -8 29 -17 40 -15
17 -22 18 -40 10z m3 -76 c-22 -23 -29 -10 -9 18 11 16 18 19 21 11 2 -7 -3
-20 -12 -29z"/>
<path d="M6260 2858 c-14 -5 -51 -10 -83 -10 -47 -1 -57 -4 -55 -17 3 -13 17
-16 66 -16 l63 0 -77 -72 c-48 -45 -74 -76 -69 -83 22 -35 165 -57 165 -25 0
18 -16 20 -23 3 -4 -10 -6 -10 -6 0 -1 6 -10 12 -20 12 -11 0 -32 5 -47 10
l-28 11 83 76 c59 54 81 81 79 96 -4 25 -15 29 -48 15z"/>
<path d="M6448 2840 c-24 -16 -53 -45 -63 -64 -16 -30 -17 -38 -5 -66 15 -37
43 -57 84 -62 45 -5 41 15 -6 37 -27 13 -44 28 -46 40 -2 17 6 23 47 34 83 21
122 66 89 99 -20 20 -52 14 -100 -18z m72 -11 c0 -9 -59 -39 -77 -39 -7 1 67
50 75 50 1 0 2 -5 2 -11z"/>
<path d="M3003 2815 c-22 -24 -44 -59 -48 -77 -6 -27 -3 -35 19 -55 32 -27 56
-29 102 -7 65 31 79 100 33 159 -29 36 -58 31 -106 -20z m89 -20 c28 -38 -14
-98 -65 -93 -42 4 -46 29 -12 73 26 34 60 43 77 20z"/>
<path d="M7548 2833 c-41 -42 -71 -118 -58 -143 13 -24 40 -26 80 -5 29 15 30
15 30 -9 0 -29 14 -40 37 -32 11 5 13 10 6 17 -11 11 -1 75 19 115 7 16 6 30
-3 50 -20 42 -74 45 -111 7z m79 -19 c3 -9 2 -19 -3 -23 -5 -3 -17 -18 -27
-33 -19 -30 -77 -66 -77 -48 0 21 40 89 62 104 28 20 37 20 45 0z"/>
<path d="M13444 2824 c-89 -58 -110 -140 -50 -200 26 -26 42 -34 70 -34 41 0
99 26 94 41 -5 14 -6 14 -56 -2 -39 -11 -45 -11 -70 8 -39 29 -41 62 -5 69 50
10 83 48 83 97 0 43 -22 50 -66 21z m8 -66 c-11 -11 -26 -18 -33 -16 -8 3 -2
14 17 31 33 31 48 16 16 -15z"/>
<path d="M10757 2834 c-4 -4 -7 -14 -7 -22 0 -7 -24 -46 -53 -86 -48 -66 -55
-72 -75 -63 -14 6 -26 25 -33 49 -10 39 -33 58 -49 42 -16 -16 37 -113 64
-120 24 -6 23 -7 -34 -97 -70 -111 -146 -227 -160 -244 -17 -20 -11 -43 10
-43 13 0 25 14 39 45 11 25 42 77 69 117 27 40 84 125 126 188 42 63 92 137
111 164 20 27 34 54 32 60 -4 13 -30 19 -40 10z"/>
<path d="M10374 2798 c-60 -63 -86 -148 -45 -148 19 0 46 53 36 70 -8 12 44
70 62 70 9 0 22 -8 29 -17 12 -17 13 -17 20 1 10 27 -8 51 -42 54 -22 2 -37
-5 -60 -30z"/>
<path d="M9716 2808 c-1 -7 -13 -42 -24 -78 -25 -75 -27 -100 -8 -100 16 0 71
154 62 175 -7 18 -25 20 -30 3z"/>
<path d="M9951 2809 c-13 -5 -32 -7 -43 -3 -15 4 -24 -8 -53 -68 -19 -40 -36
-84 -37 -97 -5 -45 21 -33 47 23 24 51 83 116 105 116 16 0 12 -42 -10 -105
-24 -69 -25 -95 -6 -95 19 0 70 163 62 196 -8 31 -34 44 -65 33z"/>
<path d="M13664 2795 c-28 -14 -57 -37 -65 -51 -12 -24 -12 -28 10 -45 31 -25
53 -24 111 5 l47 24 -9 -44 c-10 -48 3 -87 26 -78 10 4 13 16 9 37 -3 20 3 53
16 87 36 93 21 119 -32 58 -16 -18 -26 -27 -22 -20 6 12 -20 52 -35 52 -3 0
-29 -11 -56 -25z m61 -25 c17 -19 17 -20 -18 -35 -71 -30 -105 -13 -42 21 19
10 35 22 35 26 0 12 5 10 25 -12z"/>
<path d="M10118 2761 c-39 -39 -49 -55 -46 -77 5 -41 30 -52 72 -31 35 16 36
16 36 -2 0 -19 24 -51 38 -51 9 0 9 126 0 135 -3 4 -25 -7 -49 -24 -73 -53
-85 -36 -25 33 21 23 31 28 55 23 34 -7 49 7 31 28 -24 29 -61 17 -112 -34z"/>
<path d="M12645 2771 c-44 -4 -60 -10 -60 -21 0 -10 10 -15 33 -14 194 3 212
4 212 18 0 24 -56 29 -185 17z"/>
</g>
</svg>
