<?xml version="1.0" standalone="no"?>
<!DOCTYPE svg PUBLIC "-//W3C//DTD SVG 20010904//EN"
 "http://www.w3.org/TR/2001/REC-SVG-20010904/DTD/svg10.dtd">
<svg version="1.0" xmlns="http://www.w3.org/2000/svg"
 width="1618.000000pt" height="1214.000000pt" viewBox="0 0 1618.000000 1214.000000"
 preserveAspectRatio="xMidYMid meet">

<g transform="translate(0.000000,1214.000000) scale(0.100000,-0.100000)"
fill="#000000" stroke="none">
<path d="M13150 11705 c-6 -8 -9 -23 -5 -34 3 -11 -5 -41 -21 -74 -23 -47 -30
-54 -45 -46 -12 6 -34 5 -65 -3 -60 -16 -104 -71 -104 -129 0 -35 20 -69 41
-69 16 0 10 -20 -22 -66 -39 -57 -72 -131 -64 -145 11 -18 27 -5 40 34 7 20
30 63 51 96 32 49 45 61 73 66 87 16 119 60 87 120 -17 31 -17 32 23 106 27
48 41 87 41 111 0 41 -12 55 -30 33z m-112 -231 c10 -3 8 -14 -9 -45 -31 -54
-45 -65 -64 -49 -20 16 -19 45 1 80 16 27 26 29 72 14z m52 -71 c0 -14 -36
-36 -50 -31 -6 2 0 18 11 37 16 27 23 31 30 20 5 -8 9 -19 9 -26z"/>
<path d="M13394 11703 c-22 -68 -76 -195 -125 -296 -53 -107 -64 -154 -36
-144 6 2 14 14 17 28 4 13 26 62 50 109 52 103 121 268 123 294 3 25 -21 33
-29 9z"/>
<path d="M15276 11635 c-41 -72 -51 -82 -70 -66 -22 18 -102 -15 -136 -57 -38
-46 -42 -113 -9 -148 l20 -22 -54 -88 c-63 -102 -72 -127 -58 -151 9 -16 11
-15 20 10 6 16 11 31 11 35 1 4 25 45 54 92 l53 85 51 0 c57 0 93 21 130 76
27 39 24 86 -7 129 -18 25 -18 26 20 89 43 69 46 81 25 81 -8 0 -31 -29 -50
-65z m-92 -104 c3 -5 -15 -43 -41 -85 -37 -60 -49 -74 -60 -65 -18 16 -16 75
4 106 9 14 31 32 48 39 36 16 42 17 49 5z m74 -23 c21 -21 15 -92 -10 -116
-30 -27 -76 -44 -99 -37 -18 6 -18 7 0 43 25 48 79 122 89 122 4 0 13 -5 20
-12z"/>
<path d="M14143 11603 c-29 -14 -53 -28 -53 -33 0 -19 20 -19 61 0 52 23 119
27 119 6 0 -43 -163 -231 -227 -261 -21 -10 -33 -23 -33 -35 0 -27 32 -26 56
1 10 12 31 27 46 35 28 14 28 14 28 -16 0 -23 6 -33 25 -42 27 -12 55 2 55 28
0 17 -12 18 -27 3 -14 -14 -20 -3 -24 42 -3 29 5 45 43 95 88 115 105 157 73
184 -26 22 -86 18 -142 -7z"/>
<path d="M13880 11581 c-45 -27 -61 -54 -42 -73 7 -7 14 -3 21 11 12 22 69 56
78 47 20 -20 -125 -189 -194 -226 -41 -23 -57 -50 -29 -50 7 0 34 11 60 25 63
33 82 32 90 -5 5 -27 9 -30 46 -30 30 0 40 4 40 16 0 9 5 12 12 8 6 -4 8 -3 4
4 -4 6 -21 8 -41 5 -33 -5 -35 -4 -35 22 0 18 -6 28 -20 32 -27 7 -25 14 10
48 71 68 107 154 78 183 -17 17 -26 14 -78 -17z"/>
<path d="M15498 11517 c-26 -45 -59 -111 -73 -147 -14 -35 -31 -67 -38 -72
-13 -8 1 -41 17 -40 5 0 26 41 46 90 20 50 47 107 59 127 12 21 20 40 17 43
-3 2 6 13 19 24 14 11 25 28 25 39 0 40 -27 16 -72 -64z"/>
<path d="M14850 11561 c-37 -16 -66 -35 -68 -44 -5 -23 7 -21 80 13 52 25 64
27 66 15 8 -36 -92 -144 -230 -249 -36 -27 -50 -56 -27 -56 6 0 30 15 53 34
38 32 84 56 106 56 4 0 8 -15 7 -34 -1 -44 18 -66 55 -66 34 0 34 23 0 28 -19
3 -22 10 -22 49 0 37 -4 46 -21 50 -19 5 -16 10 29 57 63 66 82 94 82 126 0
27 -16 50 -34 50 -6 -1 -40 -13 -76 -29z"/>
<path d="M15760 11558 c-48 -33 -57 -51 -43 -88 12 -31 11 -32 -31 -49 -23
-10 -50 -26 -59 -36 -36 -36 -7 -115 48 -129 14 -4 40 0 59 8 28 12 37 23 46
57 7 24 10 58 7 76 -5 29 -2 35 25 49 35 18 78 61 78 79 0 22 -41 55 -69 55
-15 0 -43 -10 -61 -22z m52 -15 c-18 -7 -4 -23 20 -23 17 0 19 -2 7 -16 -7 -8
-26 -22 -42 -31 -27 -13 -31 -13 -46 2 -15 15 -14 18 17 46 18 16 38 29 45 28
9 0 9 -2 -1 -6z m-58 -150 c3 -10 2 -34 -2 -53 -12 -56 -72 -74 -100 -29 -19
31 -5 59 41 80 52 23 54 23 61 2z"/>
<path d="M13390 11355 c-10 -12 -10 -19 -2 -27 13 -13 42 6 42 28 0 19 -24 18
-40 -1z"/>
<path d="M14422 11302 c-15 -10 -10 -54 6 -60 11 -3 32 36 32 59 0 11 -20 12
-38 1z"/>
<path d="M5164 11255 c-4 -9 -1 -20 5 -25 13 -7 -19 -101 -91 -267 -20 -46
-28 -78 -23 -90 7 -17 7 -17 18 1 18 30 55 63 77 69 27 7 25 -5 -7 -43 -49
-59 -98 -60 -105 -2 -2 16 -9 27 -18 27 -16 0 -16 -46 1 -77 26 -48 107 -26
154 41 44 64 24 105 -39 81 -15 -5 -25 -6 -22 -2 22 36 96 250 94 271 -3 30
-35 41 -44 16z"/>
<path d="M6868 11236 c-15 -13 -33 -26 -40 -28 -10 -4 -10 -8 -1 -19 10 -12 6
-24 -20 -63 l-31 -49 -73 7 c-47 4 -73 2 -73 -4 0 -15 45 -30 90 -30 l39 0
-24 -52 c-28 -61 -32 -119 -9 -142 19 -19 32 -20 67 -3 38 17 46 41 10 32 -16
-4 -35 -8 -43 -9 -25 -2 -23 50 5 113 28 63 40 71 106 71 35 0 66 20 52 33
-13 13 -25 7 -19 -9 5 -13 3 -14 -6 -6 -7 6 -28 12 -46 14 l-33 3 51 72 c27
39 50 76 50 82 0 18 -23 12 -52 -13z"/>
<path d="M3957 11243 c-4 -3 -3 -11 3 -17 9 -12 -15 -133 -31 -150 -4 -5 -40
-16 -80 -25 -113 -26 -103 -53 11 -31 25 4 47 7 49 5 4 -4 -39 -114 -51 -131
-4 -6 -1 -19 6 -30 16 -22 11 -30 60 102 24 65 30 73 66 87 47 18 54 40 10 32
-34 -6 -34 -9 -15 70 19 80 19 95 -3 95 -10 0 -22 -3 -25 -7z"/>
<path d="M4137 11234 c-3 -3 -1 -14 5 -24 15 -23 -18 -129 -76 -246 -54 -108
-47 -134 17 -63 43 47 94 86 102 77 5 -5 -15 -61 -37 -106 -10 -19 -9 -25 2
-32 21 -13 33 -7 35 16 1 11 10 42 20 70 10 29 15 59 12 68 -8 21 -46 21 -75
0 -34 -24 -36 -12 -9 43 33 64 58 178 44 192 -12 12 -30 14 -40 5z"/>
<path d="M5367 11144 c-3 -3 -3 -12 -1 -19 6 -16 56 -5 62 13 4 12 -49 18 -61
6z"/>
<path d="M1776 11029 c-55 -40 -57 -40 -50 -15 10 40 -20 33 -82 -20 -30 -26
-54 -43 -54 -40 0 4 9 25 20 47 12 22 18 44 15 49 -9 14 -35 12 -35 -2 0 -6
-11 -39 -25 -73 -13 -34 -27 -80 -31 -103 -5 -35 -4 -42 10 -42 9 0 16 7 16
15 0 8 27 43 61 77 48 51 57 57 45 31 -36 -73 1 -72 74 2 30 30 57 55 61 55 4
0 -4 -34 -17 -75 -13 -42 -24 -84 -24 -94 0 -25 26 -45 47 -36 17 6 17 7 -1
21 -19 13 -19 16 12 111 47 144 43 153 -42 92z"/>
<path d="M2193 11029 c-53 -33 -99 -159 -58 -159 8 0 16 5 16 10 1 6 3 15 4
20 1 6 3 20 4 31 0 12 17 37 37 56 28 26 43 33 70 31 38 -2 55 9 34 22 -24 15
-72 10 -107 -11z"/>
<path d="M2351 11024 c-33 -23 -81 -103 -81 -134 0 -45 31 -64 92 -57 47 6 67
18 68 41 0 4 -8 5 -17 2 -9 -4 -36 -10 -60 -13 -34 -4 -44 -2 -49 11 -9 24 15
76 32 69 16 -6 94 41 94 57 0 9 -39 40 -50 40 -3 0 -16 -7 -29 -16z"/>
<path d="M7455 11014 c-60 -30 -82 -50 -90 -85 -5 -20 -1 -32 16 -48 28 -26
92 -45 122 -35 12 4 33 8 46 8 13 1 26 7 28 13 3 9 -15 12 -71 11 -61 -1 -80
2 -96 17 -26 24 -25 35 3 36 32 1 80 31 97 62 24 42 3 51 -55 21z"/>
<path d="M1943 10985 c-49 -51 -55 -85 -21 -109 28 -20 88 -21 113 -2 13 9 19
25 18 50 -1 37 -37 106 -56 106 -6 0 -30 -20 -54 -45z m75 -60 c-3 -32 -22
-41 -64 -31 -32 8 -30 27 7 67 30 32 31 33 45 14 8 -11 14 -33 12 -50z"/>
<path d="M5915 11019 c-53 -30 -113 -108 -100 -129 11 -18 22 -11 50 33 29 47
74 80 102 75 11 -2 18 3 18 12 0 19 -43 24 -70 9z"/>
<path d="M7038 11011 c-21 -10 -38 -15 -38 -10 0 5 -6 9 -14 9 -12 0 -26 -23
-31 -50 0 -3 -7 -22 -14 -42 -12 -37 -9 -58 9 -58 5 0 12 10 16 23 21 66 93
120 147 110 20 -4 27 -1 27 11 0 9 -6 16 -12 16 -7 0 -22 3 -33 6 -11 2 -37
-4 -57 -15z"/>
<path d="M3141 10954 c-17 -36 -31 -70 -31 -75 0 -19 24 -7 72 36 58 52 75 57
53 15 -30 -58 -10 -109 39 -96 25 6 41 42 24 52 -6 4 -15 -1 -20 -10 -5 -9
-13 -16 -18 -16 -17 0 -11 29 16 81 38 75 27 88 -41 50 -30 -17 -55 -27 -55
-22 0 6 5 13 10 16 15 9 12 35 -4 35 -8 0 -28 -30 -45 -66z"/>
<path d="M4340 11007 c-30 -15 -70 -90 -70 -132 0 -51 21 -70 74 -68 66 2 156
30 156 48 0 19 -1 18 -59 -1 -26 -8 -68 -14 -92 -12 -42 3 -44 5 -47 36 -3 27
0 32 18 32 43 0 90 36 90 70 0 10 -29 40 -38 40 -4 0 -18 -6 -32 -13z m25 -47
c-10 -11 -25 -20 -33 -20 -12 0 -12 4 3 20 10 11 25 20 33 20 12 0 12 -4 -3
-20z"/>
<path d="M5465 11008 c-49 -26 -135 -128 -135 -158 0 -27 33 -4 65 45 37 59
98 106 103 81 2 -7 -6 -38 -18 -67 -24 -65 -25 -71 -4 -67 17 3 54 97 54 139
0 36 -28 48 -65 27z"/>
<path d="M7197 10991 c-58 -38 -88 -84 -85 -131 l3 -35 57 -3 c58 -3 128 18
128 37 0 15 -17 14 -23 -1 -4 -10 -6 -10 -6 -1 -1 9 -8 10 -27 3 -42 -16 -104
-13 -104 6 0 28 19 51 47 57 42 8 98 50 98 72 0 31 -35 29 -88 -4z"/>
<path d="M2985 10993 c-45 -44 -37 -103 14 -103 53 0 93 56 75 104 -8 21 -68
21 -89 -1z m65 -31 c0 -12 -34 -42 -47 -42 -15 0 -17 14 -3 40 6 12 17 16 30
13 11 -3 20 -8 20 -11z"/>
<path d="M5284 10973 c-3 -10 -14 -37 -25 -61 -23 -50 -24 -62 -5 -62 16 0 66
107 59 126 -7 19 -23 17 -29 -3z"/>
<path d="M5617 10952 c-63 -65 -42 -107 31 -62 41 25 46 25 39 -2 -7 -24 8
-48 29 -48 8 0 12 12 12 33 0 17 3 44 7 60 6 21 4 27 -8 27 -8 0 -17 7 -21 15
-10 27 -50 17 -89 -23z m48 -12 c-3 -5 -16 -15 -28 -21 -22 -12 -22 -12 -3 10
19 21 43 30 31 11z"/>
<path d="M6111 10956 c-26 -41 -54 -67 -49 -45 2 9 -4 13 -19 11 -16 -2 -23 2
-23 12 0 16 -21 22 -33 10 -3 -4 1 -20 9 -36 12 -23 21 -29 38 -26 20 4 14 -8
-38 -76 -87 -115 -156 -234 -156 -268 0 -31 18 -38 26 -10 23 76 119 223 245
377 32 38 55 73 53 77 -11 17 -33 6 -53 -26z"/>
</g>
</svg>
