<?xml version="1.0" standalone="no"?>
<!DOCTYPE svg PUBLIC "-//W3C//DTD SVG 20010904//EN"
 "http://www.w3.org/TR/2001/REC-SVG-20010904/DTD/svg10.dtd">
<svg version="1.0" xmlns="http://www.w3.org/2000/svg"
 width="1132.000000pt" height="849.000000pt" viewBox="0 0 1132.000000 849.000000"
 preserveAspectRatio="xMidYMid meet">

<g transform="translate(0.000000,849.000000) scale(0.100000,-0.100000)"
fill="#000000" stroke="none">
<path d="M1465 8203 c-35 -9 -45 -24 -45 -68 0 -42 32 -99 74 -135 26 -21 39
-60 25 -76 -15 -19 -73 -18 -89 1 -11 13 -11 20 0 40 16 31 4 47 -16 21 -15
-21 -18 -54 -6 -72 27 -42 115 -41 134 1 16 35 4 64 -48 123 -36 41 -47 62
-48 89 -1 49 23 64 65 40 24 -13 35 -15 45 -6 42 35 -14 61 -91 42z"/>
<path d="M1230 8188 c-30 -16 -97 -138 -106 -196 -6 -37 -3 -44 25 -73 30 -30
35 -31 88 -26 31 3 63 13 71 21 20 19 10 31 -15 18 -10 -5 -36 -13 -59 -16
-32 -6 -45 -3 -64 12 -34 27 -29 77 17 165 32 60 42 72 63 72 23 0 25 -4 25
-42 0 -23 4 -45 8 -50 17 -16 38 31 35 77 -3 42 -5 45 -33 48 -16 1 -41 -4
-55 -10z"/>
<path d="M2343 8193 c-7 -3 -13 -12 -13 -22 0 -24 -30 -111 -38 -110 -19 3
-23 -2 -13 -14 7 -9 8 -24 1 -48 -28 -98 6 -158 64 -114 25 19 12 33 -15 17
-11 -7 -25 -10 -31 -6 -12 8 -6 75 11 117 9 23 16 27 52 27 33 0 39 3 30 13
-6 8 -23 12 -41 9 l-30 -4 20 58 c22 63 23 84 3 77z"/>
<path d="M2938 8162 c-8 -9 -22 -61 -31 -114 -16 -99 -38 -147 -78 -168 -33
-18 -23 25 12 55 36 29 32 44 -6 27 -49 -22 -64 -112 -20 -112 21 0 81 56 93
87 6 16 18 68 26 117 9 48 20 94 26 101 6 8 7 16 2 19 -5 3 -16 -2 -24 -12z"/>
<path d="M1973 8092 c0 -69 -4 -83 -33 -130 -33 -54 -46 -63 -56 -37 -8 20 13
45 38 45 23 0 19 23 -5 28 -46 9 -78 -86 -37 -108 18 -9 25 -6 50 20 49 53 70
108 70 188 0 53 -3 72 -13 72 -10 0 -13 -20 -14 -78z"/>
<path d="M10242 8163 c-8 -3 -22 -25 -32 -49 -18 -40 -43 -58 -52 -35 -3 10
-48 20 -45 9 1 -3 -8 -18 -21 -31 -13 -14 -26 -43 -29 -65 -5 -34 -1 -45 19
-65 l25 -25 -23 -43 c-13 -24 -23 -50 -24 -56 -1 -27 16 -10 45 44 24 46 36
59 62 65 37 10 83 60 83 92 0 13 -9 31 -19 40 -17 15 -18 22 -8 44 6 15 19 37
30 48 19 22 13 35 -11 27z m-83 -162 c-28 -64 -42 -77 -62 -56 -12 11 -15 25
-10 48 8 46 28 64 62 59 l29 -4 -19 -47z m62 -14 c-8 -21 -57 -65 -64 -56 -2
2 7 28 21 58 22 49 26 53 38 37 8 -11 10 -26 5 -39z"/>
<path d="M3810 8137 c0 -21 -32 -91 -51 -112 -5 -5 -25 -8 -44 -7 -19 2 -35
-2 -35 -8 0 -5 16 -10 34 -10 34 0 35 0 24 -30 -14 -43 -3 -78 28 -86 18 -5
31 -1 42 11 16 16 15 17 -9 11 -38 -8 -51 11 -38 57 10 36 12 37 55 37 28 0
43 4 39 10 -3 6 -19 10 -36 10 -16 0 -29 1 -29 3 0 1 9 20 20 42 21 42 27 95
10 95 -5 0 -10 -10 -10 -23z"/>
<path d="M8866 8134 c-3 -9 -4 -20 0 -25 3 -5 1 -9 -5 -9 -5 0 -13 -9 -16 -20
-5 -15 -15 -20 -40 -20 -69 0 -120 -91 -81 -145 12 -17 11 -25 -11 -62 -14
-24 -22 -50 -19 -59 4 -11 14 -1 34 37 25 47 31 54 55 51 99 -12 162 77 101
143 -25 27 -25 28 -10 66 9 22 16 44 16 49 0 16 -17 11 -24 -6z m-56 -105 c0
-16 -52 -109 -61 -109 -9 0 -19 26 -19 50 0 10 14 30 31 44 33 28 49 33 49 15z
m80 -63 c0 -20 -43 -55 -78 -62 -18 -4 -32 -2 -32 3 0 5 14 36 32 68 l31 58
24 -27 c12 -15 23 -33 23 -40z"/>
<path d="M10511 8119 c-46 -20 -46 -29 -3 -63 l24 -19 -36 -33 c-38 -35 -44
-59 -23 -89 33 -44 107 24 92 83 -6 23 0 32 37 64 36 31 41 40 32 54 -17 28
-36 30 -29 2 5 -18 -1 -28 -25 -46 l-31 -23 -19 23 c-20 25 -9 42 23 32 11 -3
17 0 17 10 0 24 -13 26 -59 5z m13 -180 c-9 -10 -21 -16 -25 -13 -16 9 -10 37
14 62 l22 24 3 -27 c2 -15 -4 -35 -14 -46z"/>
<path d="M2640 8113 c0 -10 -12 -64 -26 -121 -14 -56 -23 -109 -20 -117 10
-27 26 -16 26 18 0 17 11 75 25 127 29 113 29 110 10 110 -8 0 -15 -8 -15 -17z"/>
<path d="M9913 8113 c-18 -9 -33 -23 -33 -30 0 -16 8 -16 40 2 63 36 67 -1 8
-75 -22 -28 -51 -56 -64 -60 -23 -9 -43 -54 -30 -67 3 -3 14 1 25 11 16 14 24
15 63 5 44 -12 78 -8 78 9 0 5 -12 9 -28 9 -15 0 -40 3 -55 7 l-28 7 49 57
c56 64 68 92 52 122 -13 24 -33 25 -77 3z"/>
<path d="M10355 8093 c-4 -21 -18 -65 -31 -99 -25 -64 -29 -84 -16 -84 14 0
85 197 76 211 -11 19 -22 8 -29 -28z"/>
<path d="M2562 8103 c-17 -32 -62 -190 -62 -217 0 -14 5 -26 10 -26 6 0 10 9
10 20 0 11 15 68 34 125 19 58 30 107 25 110 -4 3 -12 -2 -17 -12z"/>
<path d="M9303 8099 c-36 -23 -48 -58 -14 -39 11 5 23 15 26 20 6 10 45 14 45
5 0 -27 -53 -89 -132 -156 -60 -49 -44 -71 17 -24 l33 24 12 -29 c10 -23 19
-30 40 -30 15 0 33 6 39 13 15 19 3 28 -20 14 -22 -14 -35 -4 -44 34 -5 20 2
35 35 75 68 81 42 145 -37 93z"/>
<path d="M9474 8111 c-10 -11 -2 -21 16 -21 27 0 25 -16 -5 -36 -23 -15 -31
-37 -12 -35 11 2 63 -27 81 -44 20 -21 7 -49 -34 -70 -43 -22 -67 -19 -84 13
-13 24 -15 25 -22 8 -12 -31 9 -51 59 -54 39 -3 50 1 81 29 57 49 50 70 -43
136 -8 6 34 32 62 38 51 12 32 33 -34 37 -33 1 -63 1 -65 -1z"/>
<path d="M2057 8093 c-12 -11 -8 -23 8 -23 8 0 15 7 15 15 0 16 -12 20 -23 8z"/>
<path d="M8979 8093 c-1 -5 -3 -19 -4 -33 -1 -14 -6 -58 -10 -97 -10 -99 9
-96 24 2 14 94 14 135 1 135 -5 0 -11 -3 -11 -7z"/>
<path d="M3975 8071 c-7 -12 12 -24 25 -16 11 7 4 25 -10 25 -5 0 -11 -4 -15
-9z"/>
<path d="M2476 8053 c-11 -11 -6 -23 9 -23 8 0 15 4 15 9 0 13 -16 22 -24 14z"/>
<path d="M2140 8015 c-22 -23 -22 -25 -6 -49 9 -14 16 -32 16 -41 0 -22 -29
-19 -38 5 -5 12 -12 16 -20 11 -18 -11 -4 -41 24 -51 50 -19 76 18 49 71 -16
30 -16 32 4 46 12 8 19 19 16 24 -10 14 -20 11 -45 -16z"/>
<path d="M3304 7993 c-62 -67 -32 -130 52 -109 34 9 20 27 -14 20 -18 -4 -32
-1 -40 8 -18 22 18 74 58 81 36 8 32 27 -6 27 -14 0 -36 -12 -50 -27z"/>
<path d="M3420 7984 c-19 -49 -21 -69 -7 -88 17 -24 61 -15 78 15 14 28 -4 73
-37 88 -22 10 -26 8 -34 -15z m48 -50 c-5 -26 -38 -31 -38 -7 0 24 21 46 33
34 5 -5 7 -17 5 -27z"/>
<path d="M3934 7994 c-3 -10 -13 -36 -22 -57 -11 -28 -12 -41 -4 -49 8 -8 13
-6 18 8 3 10 13 36 22 57 11 28 12 41 4 49 -8 8 -13 6 -18 -8z"/>
<path d="M4037 7983 c-37 -29 -65 -78 -53 -91 4 -4 16 5 27 20 11 14 28 37 39
50 l19 23 -2 -40 c-1 -28 2 -40 13 -42 12 -3 15 8 15 48 0 29 -5 54 -11 56 -5
2 -27 -9 -47 -24z"/>
<path d="M2694 7981 c-80 -49 -63 -165 21 -142 46 12 42 30 -4 24 -39 -5 -41
-4 -41 21 0 23 4 26 34 26 40 0 59 19 54 57 -4 34 -24 39 -64 14z m44 -23 c-3
-7 -15 -14 -29 -16 -23 -2 -23 -2 -5 13 24 18 39 20 34 3z"/>
<path d="M3583 7973 c-14 -9 -23 -11 -23 -4 0 24 -19 9 -39 -32 -39 -80 -25
-88 39 -21 l45 45 5 -32 c8 -52 26 -45 27 11 1 55 -12 63 -54 33z"/>
<path d="M2002 7948 c-5 -18 -7 -36 -5 -40 8 -15 21 -8 26 15 2 12 8 30 12 40
5 12 3 17 -9 17 -9 0 -19 -13 -24 -32z"/>
<path d="M2447 7973 c-5 -9 -10 -50 -8 -72 2 -24 18 0 24 36 6 30 -5 54 -16
36z"/>
<path d="M9050 7909 c0 -24 23 -21 28 4 2 10 -3 17 -12 17 -10 0 -16 -9 -16
-21z"/>
<path d="M4263 7913 c-24 -9 -13 -23 17 -23 32 0 40 14 14 24 -9 3 -16 6 -17
5 -1 0 -8 -3 -14 -6z"/>
<path d="M4538 7913 c-10 -2 -18 -9 -18 -14 0 -15 43 -7 48 9 4 12 0 13 -30 5z"/>
<path d="M9617 7895 c6 -17 25 -15 31 3 2 7 -5 12 -17 12 -14 0 -19 -5 -14
-15z"/>
<path d="M4407 7894 c-12 -13 -8 -20 14 -21 11 -1 19 3 17 9 -5 15 -22 21 -31
12z"/>
<path d="M10067 7243 c-4 -3 -7 -14 -7 -23 0 -9 -15 -52 -34 -96 -33 -76 -36
-79 -70 -82 -44 -4 -48 -22 -6 -22 35 0 35 -3 15 -60 -8 -24 -13 -45 -10 -48
10 -10 25 14 38 59 12 42 14 44 55 47 51 4 57 22 7 22 -19 0 -35 4 -35 8 0 5
16 45 35 89 19 45 35 88 35 97 0 16 -12 21 -23 9z"/>
<path d="M5976 7218 c-39 -192 -39 -193 -73 -198 -59 -9 -94 -87 -50 -114 23
-15 46 1 74 50 38 68 87 284 64 284 -6 0 -13 -10 -15 -22z m-56 -226 c0 -10
-31 -55 -44 -64 -6 -4 -14 -2 -18 4 -7 13 8 48 26 60 15 10 36 10 36 0z"/>
<path d="M6938 7156 c-39 -80 -45 -86 -73 -86 -41 0 -75 -10 -75 -22 0 -6 20
-8 45 -6 25 2 45 2 45 1 0 -1 -5 -14 -11 -30 -18 -47 -14 -95 11 -115 27 -22
40 -23 40 -4 0 7 -9 16 -20 19 -14 4 -20 14 -20 35 0 45 19 89 41 95 20 5 27
27 8 27 -5 0 8 35 30 77 25 47 37 81 31 87 -5 5 -25 -25 -52 -78z"/>
<path d="M4661 7208 c-5 -13 -12 -42 -15 -65 -11 -62 -27 -78 -75 -74 -23 1
-41 -2 -41 -8 0 -14 34 -23 64 -15 l26 6 -20 -58 c-13 -38 -17 -61 -10 -68 10
-10 9 -12 36 72 10 31 22 52 31 52 10 0 11 5 5 16 -6 11 -3 40 8 85 10 39 14
71 9 75 -5 3 -13 -5 -18 -18z"/>
<path d="M5565 7157 c-29 -60 -31 -62 -69 -63 -22 0 -42 -6 -44 -12 -2 -8 9
-12 33 -12 36 0 37 -1 30 -27 -19 -72 -21 -90 -14 -111 10 -25 44 -41 72 -34
23 6 10 19 -23 24 -23 3 -25 7 -24 48 1 25 6 58 13 74 11 28 13 28 62 23 37
-5 49 -3 46 6 -2 7 -22 13 -45 15 -23 2 -42 5 -42 7 0 1 11 23 25 46 24 43 32
79 18 79 -5 0 -21 -29 -38 -63z"/>
<path d="M1570 7139 c-12 -39 -32 -96 -46 -126 -13 -31 -24 -62 -24 -69 0 -27
17 -14 35 27 19 41 60 78 72 65 4 -4 1 -22 -6 -42 -23 -62 4 -59 29 3 17 46 7
66 -30 61 -35 -5 -35 -8 -10 62 21 60 25 90 11 90 -5 0 -19 -32 -31 -71z"/>
<path d="M2950 7210 c0 -3 -2 -33 -4 -67 -4 -68 -21 -130 -43 -155 -23 -26
-12 -53 24 -56 65 -6 142 103 100 145 -11 12 -19 12 -35 4 -11 -6 -22 -11 -24
-11 -3 0 -2 27 0 61 3 37 0 65 -7 72 -6 6 -11 9 -11 7z m64 -158 c10 -16 -24
-72 -54 -87 -18 -9 -34 -14 -36 -12 -7 6 37 79 56 94 18 14 27 16 34 5z"/>
<path d="M7065 7198 c-2 -7 -9 -38 -16 -68 -7 -30 -23 -86 -36 -124 -27 -82
-27 -76 -9 -76 8 0 17 8 20 18 4 10 21 32 39 50 l32 31 0 -51 c0 -77 20 -71
23 7 2 74 -11 84 -56 43 -23 -21 -25 -22 -17 -3 8 21 45 165 45 178 0 12 -20
8 -25 -5z"/>
<path d="M1508 7195 c-3 -3 -63 -9 -133 -13 -85 -5 -130 -11 -132 -19 -3 -9
14 -10 66 -6 l70 6 -6 -39 c-3 -21 -16 -74 -28 -117 -14 -46 -19 -80 -13 -83
5 -3 10 -4 12 -3 6 9 46 158 52 196 l6 42 61 8 c33 4 62 14 65 21 4 12 -10 17
-20 7z"/>
<path d="M1890 7128 c-14 -59 -17 -63 -48 -68 -38 -6 -43 -26 -6 -23 27 2 29
-6 14 -57 -6 -22 -6 -38 0 -44 10 -10 13 -5 30 61 l10 42 53 3 c63 4 70 22 9
24 -24 1 -45 4 -47 6 -3 2 0 20 5 39 6 18 10 44 10 56 0 43 -15 23 -30 -39z"/>
<path d="M4387 7163 c-12 -11 -8 -23 8 -23 8 0 15 7 15 15 0 16 -12 20 -23 8z"/>
<path d="M9897 7153 c-10 -9 -8 -43 2 -43 5 0 14 7 21 15 17 21 -4 48 -23 28z"/>
<path d="M3752 7129 c2 -6 8 -10 13 -10 5 0 11 4 13 10 2 6 -4 11 -13 11 -9 0
-15 -5 -13 -11z"/>
<path d="M8570 7117 c-26 -13 -93 -114 -87 -131 6 -18 27 -18 27 0 0 9 11 37
25 61 25 41 61 63 84 48 6 -3 11 0 11 8 0 8 -7 18 -16 21 -19 7 -14 8 -44 -7z"/>
<path d="M10165 7120 c-3 -6 1 -13 10 -16 19 -8 30 0 20 15 -8 14 -22 14 -30
1z"/>
<path d="M6508 7099 c-46 -24 -49 -48 -12 -92 25 -30 25 -31 7 -44 -10 -8 -28
-11 -40 -8 -16 4 -23 1 -23 -9 0 -20 33 -25 69 -10 39 16 41 45 6 86 -30 36
-31 45 -5 53 11 3 20 10 20 15 0 4 9 6 20 3 14 -4 20 0 20 11 0 21 -16 20 -62
-5z"/>
<path d="M9398 7083 c-57 -51 -67 -64 -68 -91 0 -12 -4 -30 -10 -40 -31 -55
-61 -147 -55 -170 10 -39 29 -11 57 83 19 61 29 81 44 83 50 7 66 14 98 43 38
33 53 77 36 108 -17 32 -54 26 -102 -16z m80 -21 c3 -27 -3 -35 -39 -62 -37
-26 -79 -40 -79 -25 0 19 44 86 67 104 36 26 47 22 51 -17z"/>
<path d="M5208 7083 c-50 -54 -76 -133 -43 -133 10 0 15 10 15 29 0 15 10 43
23 62 18 27 29 33 50 31 31 -3 36 13 8 28 -26 13 -23 14 -53 -17z"/>
<path d="M7890 7085 c-34 -25 -34 -25 -42 -4 -7 17 -13 20 -40 14 -40 -9 -41
-9 -62 -67 -19 -52 -13 -84 11 -53 7 11 13 26 13 35 0 19 48 75 57 67 3 -4 -4
-22 -16 -42 -25 -44 -26 -45 -4 -45 10 0 39 21 65 47 l47 46 -14 -48 c-17 -56
-19 -95 -5 -95 6 0 10 8 10 18 0 11 9 45 20 77 11 32 20 62 20 67 0 15 -26 8
-60 -17z"/>
<path d="M2372 7087 c2 -7 -8 -37 -21 -65 -14 -29 -21 -55 -17 -59 4 -4 29 17
56 47 l49 55 -15 -45 c-17 -49 -7 -90 21 -90 18 0 19 4 3 30 -10 16 -9 30 6
75 11 30 16 58 12 62 -3 4 -20 -1 -36 -11 -26 -15 -30 -15 -30 -2 0 9 -7 16
-15 16 -9 0 -15 -6 -13 -13z"/>
<path d="M5040 7077 c-14 -12 -33 -38 -41 -57 -20 -43 -53 -179 -46 -186 12
-12 25 7 41 60 15 45 22 55 46 59 36 8 73 59 74 106 1 31 -2 36 -24 38 -15 2
-36 -6 -50 -20z m60 -8 c0 -26 -53 -99 -73 -99 -5 0 -6 15 -2 33 9 44 75 103
75 66z"/>
<path d="M6329 7061 c-57 -57 -46 -111 17 -83 21 10 24 9 24 -9 0 -11 7 -22
15 -26 21 -7 33 6 15 17 -11 7 -12 15 -2 48 16 53 15 79 -4 86 -23 9 -23 9
-65 -33z m44 -23 c-19 -32 -53 -50 -53 -28 0 13 49 60 62 60 6 0 1 -15 -9 -32z"/>
<path d="M3086 7058 c-46 -42 -56 -88 -27 -117 22 -22 75 -29 86 -11 4 6 10 8
15 5 4 -3 13 2 20 10 14 17 7 19 -37 6 -50 -15 -73 -4 -73 33 0 33 33 76 58
76 22 0 12 -21 -18 -38 -16 -9 -30 -20 -30 -24 0 -15 27 -8 54 13 19 15 26 29
24 48 -4 38 -31 37 -72 -1z"/>
<path d="M4717 7072 c-10 -11 -22 -33 -26 -50 -18 -61 28 -97 92 -73 39 15 35
34 -5 25 -52 -11 -62 -10 -65 6 -3 10 8 19 28 25 41 12 58 38 43 63 -16 24
-47 26 -67 4z m46 -15 c6 -16 -29 -41 -38 -28 -3 5 2 17 11 25 19 19 21 20 27
3z"/>
<path d="M8015 7057 c-19 -19 -41 -37 -49 -40 -23 -9 17 -85 48 -93 31 -7 58
-2 56 11 -1 6 -7 9 -13 7 -20 -6 -55 8 -61 23 -4 10 5 19 27 29 41 17 70 49
65 73 -6 31 -37 26 -73 -10z m31 -23 c-9 -9 -20 -13 -24 -9 -4 3 2 13 12 21
25 18 33 10 12 -12z"/>
<path d="M8127 7084 c-4 -4 -7 -19 -7 -34 0 -15 -9 -39 -20 -53 -21 -26 -26
-47 -12 -47 4 0 25 23 46 50 43 57 60 64 44 19 -17 -49 4 -56 42 -13 27 31 31
33 24 13 -11 -34 -11 -71 1 -76 12 -4 39 123 29 138 -4 6 -18 -1 -35 -17 -28
-27 -29 -27 -29 -6 0 23 -33 32 -45 11 -5 -6 -11 -4 -19 6 -6 9 -15 13 -19 9z"/>
<path d="M8720 7024 l-43 -65 -13 38 c-8 21 -14 39 -14 41 0 1 -7 2 -16 2 -12
0 -14 -5 -9 -17 37 -88 39 -79 -36 -188 -38 -55 -69 -106 -69 -113 0 -26 20
-10 50 41 34 58 180 269 204 296 15 16 13 31 -4 31 -4 0 -27 -30 -50 -66z"/>
<path d="M9703 7080 c-29 -12 -29 -37 -1 -67 23 -25 20 -35 -14 -38 -33 -2
-35 -25 -2 -25 41 0 65 26 52 56 -6 13 -15 24 -20 24 -16 0 -8 30 10 32 9 0
23 2 31 2 8 1 16 7 19 14 4 14 -41 16 -75 2z"/>
<path d="M4892 7056 c-10 -14 -22 -22 -26 -19 -3 3 -7 2 -7 -3 -5 -34 -9 -52
-15 -71 -4 -16 -2 -23 7 -23 8 0 25 25 38 55 23 55 29 59 65 55 11 -1 17 3 14
12 -8 25 -54 21 -76 -6z"/>
<path d="M5351 7066 c-13 -7 -30 -24 -37 -37 -7 -13 -17 -24 -23 -24 -14 0
-13 -7 4 -50 21 -48 74 -59 125 -26 25 17 3 24 -35 11 -28 -9 -39 -9 -50 0
-23 19 -18 28 19 44 39 16 71 58 62 81 -7 18 -33 19 -65 1z m27 -36 c-13 -21
-37 -34 -46 -25 -8 8 29 45 45 45 11 0 11 -4 1 -20z"/>
<path d="M7224 7070 c-29 -12 -64 -71 -64 -108 0 -60 76 -79 138 -36 29 20 18
38 -11 20 -38 -23 -74 -28 -91 -10 -21 21 -20 43 2 38 23 -6 96 37 100 59 8
38 -28 56 -74 37z m46 -33 c0 -15 -41 -37 -67 -37 -13 0 -12 5 7 25 25 27 60
34 60 12z"/>
<path d="M9583 7064 c-61 -26 -86 -105 -35 -112 34 -5 82 18 92 43 10 26 2 72
-14 78 -6 2 -25 -2 -43 -9z m37 -38 c0 -27 -33 -56 -62 -56 -21 0 -21 1 -8 35
8 22 37 42 63 44 4 1 7 -10 7 -23z"/>
<path d="M2524 7034 c-8 -20 -14 -48 -12 -63 6 -56 93 -27 116 39 7 19 7 32 1
36 -5 3 -14 -8 -20 -25 -12 -34 -56 -68 -70 -54 -6 6 -3 26 6 52 18 52 18 51
4 51 -5 0 -17 -16 -25 -36z"/>
<path d="M2660 7029 c-6 -23 -17 -50 -23 -60 -25 -40 8 -31 48 14 49 53 59 58
45 21 -13 -32 -12 -34 2 -34 6 0 23 10 36 23 14 12 22 17 19 10 -18 -30 16
-53 57 -37 26 10 18 27 -9 20 -23 -6 -25 -4 -25 29 0 35 -20 49 -36 24 -5 -8
-10 -6 -16 5 -12 22 -27 20 -56 -6 l-24 -23 7 28 c5 17 3 27 -4 27 -5 0 -15
-19 -21 -41z"/>
<path d="M3285 7058 c-11 -7 -27 -12 -35 -13 -15 0 -44 -98 -32 -110 11 -11
18 -4 30 28 7 18 22 44 34 57 l21 23 8 -22 c11 -29 26 -26 32 6 8 40 -19 54
-58 31z"/>
<path d="M3843 7053 c-28 -19 -29 -40 -3 -73 11 -14 20 -28 20 -32 0 -13 -65
-9 -78 4 -9 9 -12 9 -12 -3 0 -40 61 -52 101 -20 l22 18 -22 32 c-26 36 -22
58 11 63 13 2 23 8 23 13 0 16 -38 16 -62 -2z"/>
<path d="M8349 7049 c-21 -21 -34 -62 -26 -84 8 -20 48 -28 80 -16 36 14 54
53 41 89 -8 22 -16 27 -43 28 -21 1 -41 -6 -52 -17z m66 -40 c0 -32 -2 -34
-35 -34 -29 0 -35 3 -32 20 4 23 40 57 56 52 6 -2 11 -19 11 -38z"/>
<path d="M1070 7030 c0 -33 19 -40 40 -15 16 20 5 45 -20 45 -16 0 -20 -7 -20
-30z"/>
<path d="M4327 7007 c-9 -30 -17 -63 -17 -75 0 -36 17 -25 25 15 4 21 13 50
21 65 18 34 18 48 1 48 -7 0 -21 -24 -30 -53z"/>
<path d="M10191 7025 c-34 -39 -40 -75 -15 -99 19 -20 37 -20 74 -1 53 27 68
91 28 119 -34 24 -53 20 -87 -19z m83 -11 c9 -25 7 -33 -14 -54 -23 -23 -68
-27 -76 -6 -3 8 5 28 17 45 25 34 63 41 73 15z"/>
<path d="M1676 7019 c-14 -17 -24 -35 -20 -40 7 -12 50 -12 72 0 15 8 18 5 17
-17 0 -16 6 -28 15 -29 12 -3 15 8 16 47 0 27 -2 50 -5 50 -3 0 -19 -9 -36
-20 -16 -11 -37 -20 -45 -20 -23 1 28 40 51 40 10 0 19 5 19 10 0 6 -13 10
-29 10 -20 0 -37 -9 -55 -31z"/>
<path d="M5686 7029 c-35 -27 -59 -76 -52 -103 9 -36 86 -63 86 -31 0 9 -9 15
-24 15 -38 0 -50 23 -31 59 15 30 71 68 83 57 9 -10 -29 -45 -52 -48 -11 -2
-20 -7 -19 -13 7 -37 93 19 93 61 0 20 -5 24 -29 24 -15 0 -40 -9 -55 -21z"/>
<path d="M10412 7025 c-28 -23 -30 -23 -25 -5 10 38 -15 20 -41 -30 -47 -89
-31 -105 34 -34 27 30 40 38 35 24 -9 -29 11 -50 49 -50 41 0 65 15 50 30 -9
9 -14 9 -18 1 -10 -16 -46 -14 -52 3 -3 8 2 28 10 45 9 16 16 32 16 36 0 13
-31 3 -58 -20z"/>
<path d="M3698 6980 c-16 -37 -23 -62 -17 -66 6 -3 11 -4 12 -3 1 2 12 23 25
46 22 41 29 83 15 83 -5 -1 -20 -27 -35 -60z"/>
<path d="M4430 6990 c-30 -29 -40 -45 -35 -58 6 -15 9 -14 23 8 22 32 62 70
75 70 9 0 5 -38 -9 -89 -5 -18 -4 -23 7 -19 19 6 39 88 27 111 -14 27 -43 20
-88 -23z"/>
<path d="M9821 6989 c-14 -40 -14 -39 3 -39 13 0 26 28 26 58 0 24 -18 12 -29
-19z"/>
<path d="M10094 6985 c-7 -19 -14 -41 -14 -50 0 -28 17 -15 29 23 7 20 15 43
17 50 3 6 1 12 -6 12 -6 0 -18 -16 -26 -35z"/>
<path d="M6947 6919 c-17 -10 -23 -29 -9 -29 5 0 16 6 27 13 22 17 7 29 -18
16z"/>
<path d="M1252 6873 c-11 -21 -22 -50 -26 -65 -6 -27 -13 -30 -66 -32 -41 -2
-28 -21 13 -21 33 0 37 -3 33 -20 -20 -69 -18 -92 5 -109 13 -9 29 -16 35 -16
18 0 60 37 51 46 -4 4 -13 2 -19 -4 -16 -16 -55 -15 -60 1 -8 20 16 99 32 108
8 4 27 10 43 14 41 8 34 29 -8 22 -41 -7 -43 0 -15 62 23 50 23 51 10 51 -5 0
-18 -17 -28 -37z"/>
<path d="M4155 6874 c-14 -61 -39 -131 -66 -186 -21 -41 -25 -59 -17 -64 7 -4
13 -3 16 4 2 6 17 8 37 5 23 -4 43 0 60 11 22 15 26 23 23 59 -3 40 -4 42 -36
42 -25 0 -31 3 -26 15 23 53 37 121 26 132 -8 8 -13 3 -17 -18z m33 -170 c4
-31 -12 -46 -48 -42 l-33 3 28 33 c29 35 48 37 53 6z"/>
<path d="M2198 6808 l-23 -73 -37 2 c-28 2 -38 -2 -38 -12 0 -10 10 -15 30
-15 34 0 36 -7 15 -57 -18 -43 -18 -43 -1 -43 7 0 19 20 26 46 7 25 18 47 24
49 6 2 23 6 39 9 38 9 35 29 -3 24 -25 -4 -30 -2 -24 11 12 31 34 106 34 119
0 6 -4 12 -9 12 -5 0 -20 -33 -33 -72z"/>
<path d="M5142 6853 c-6 -16 -14 -40 -18 -55 -4 -19 -13 -28 -32 -30 -34 -4
-42 -28 -8 -28 l25 0 -20 -57 c-20 -60 -24 -83 -11 -83 4 0 18 33 32 73 25 71
26 72 62 75 20 2 42 10 49 18 11 14 8 15 -34 9 l-46 -7 10 38 c6 22 15 43 20
49 13 13 11 25 -5 25 -7 0 -18 -12 -24 -27z"/>
<path d="M1400 6840 c0 -25 -32 -139 -55 -192 -13 -33 18 -19 58 25 l38 42 -6
-37 c-3 -20 -1 -39 4 -42 13 -8 17 1 25 57 6 38 4 48 -9 53 -9 4 -25 -2 -37
-12 -20 -19 -21 -19 -14 1 11 38 23 110 18 123 -7 23 -22 12 -22 -18z"/>
<path d="M3734 6818 c-7 -18 -21 -59 -33 -91 -25 -66 -31 -128 -15 -134 7 -2
13 15 17 44 3 26 19 82 36 123 16 41 27 78 25 82 -10 15 -19 8 -30 -24z"/>
<path d="M5765 6833 c-3 -8 -5 -39 -5 -68 0 -36 -4 -53 -12 -52 -47 1 -59 -5
-78 -42 -24 -48 -18 -71 20 -71 19 0 37 11 59 35 28 33 31 42 31 106 0 39 4
78 9 88 7 13 6 18 -4 18 -8 0 -17 -7 -20 -14z m-15 -155 c0 -16 -41 -58 -57
-58 -17 0 -16 21 3 48 16 23 54 30 54 10z"/>
<path d="M6454 6825 c-8 -34 -26 -46 -76 -51 -48 -6 -61 -12 -53 -24 3 -4 23
-6 45 -3 43 6 47 1 25 -37 -19 -33 -19 -84 0 -100 11 -9 22 -9 50 0 19 6 35
16 35 21 0 12 -24 11 -36 -1 -14 -14 -44 -2 -44 19 1 27 38 101 52 102 7 1 21
2 30 3 10 0 17 6 15 11 -1 6 -10 9 -21 7 -14 -2 -16 2 -11 15 14 34 17 63 6
63 -6 0 -13 -11 -17 -25z"/>
<path d="M3645 6828 c-3 -11 -37 -128 -61 -210 -3 -11 0 -18 8 -18 12 0 25 39
76 223 5 19 -16 24 -23 5z"/>
<path d="M2052 6808 c6 -18 28 -21 28 -4 0 9 -7 16 -16 16 -9 0 -14 -5 -12
-12z"/>
<path d="M3530 6814 c0 -15 22 -44 31 -39 11 7 -7 45 -21 45 -6 0 -10 -3 -10
-6z"/>
<path d="M3275 6773 c-39 -20 -38 -20 -30 -32 4 -8 13 -6 28 4 44 31 50 17 18
-42 -36 -66 -28 -86 18 -48 31 27 36 24 32 -17 -1 -9 8 -22 20 -28 59 -32 125
78 73 121 -21 17 -25 7 -12 -29 11 -28 10 -34 -9 -53 -31 -31 -61 -19 -55 23
4 29 3 30 -21 26 l-25 -5 20 38 c30 58 6 76 -57 42z"/>
<path d="M4315 6778 c-48 -26 -85 -72 -85 -104 0 -56 55 -78 129 -53 44 15 40
32 -6 22 -53 -10 -84 -7 -94 9 -16 24 -9 38 19 38 33 0 92 34 92 54 0 12 -26
47 -33 46 -1 0 -11 -6 -22 -12z m25 -27 c0 -13 -41 -41 -60 -41 -9 0 -4 9 15
25 32 26 45 31 45 16z"/>
<path d="M4960 6769 c-27 -11 -60 -38 -60 -50 0 -4 12 -22 27 -39 21 -26 24
-33 12 -41 -20 -12 -43 -11 -57 3 -15 15 -26 4 -19 -17 8 -18 55 -20 92 -3 31
14 31 16 -1 63 -30 45 -22 58 36 60 50 1 61 11 26 25 -15 5 -28 10 -29 9 -1 0
-13 -5 -27 -10z"/>
<path d="M6219 6747 c-40 -27 -80 -83 -73 -102 8 -20 31 -26 59 -13 21 9 29 8
47 -8 21 -19 21 -19 15 5 -3 14 -1 31 4 37 17 20 22 74 8 90 -15 19 -20 18
-60 -9z m49 -29 c-3 -23 -60 -68 -84 -68 -24 0 -15 21 22 56 42 40 67 44 62
12z"/>
<path d="M2302 6724 c-31 -26 -42 -43 -42 -64 0 -33 31 -60 67 -60 33 0 28 17
-7 25 -16 4 -32 11 -36 16 -10 17 6 45 27 46 28 2 59 31 59 55 0 27 -22 22
-68 -18z"/>
<path d="M1540 6728 c-12 -13 -28 -31 -37 -41 -13 -13 -14 -20 -5 -29 7 -7 12
-22 12 -35 0 -32 29 -44 73 -32 37 10 54 25 43 36 -4 4 -12 1 -18 -5 -7 -7
-27 -12 -45 -12 -45 0 -43 21 7 69 27 26 38 44 34 55 -9 23 -40 20 -64 -6z
m25 -28 c-10 -11 -20 -18 -23 -15 -3 3 3 14 13 25 10 11 20 18 23 15 3 -3 -3
-14 -13 -25z"/>
<path d="M2555 6718 l-36 -31 6 26 c7 25 5 26 -34 25 -39 0 -41 -2 -66 -55
-29 -65 -29 -63 -11 -63 8 0 31 19 51 43 28 32 36 37 32 20 -8 -36 13 -38 45
-4 16 17 31 31 34 31 2 0 2 -17 -2 -38 -4 -27 -2 -41 9 -50 18 -15 61 -7 78
14 10 13 6 14 -30 8 l-42 -7 7 29 c4 16 11 39 15 52 12 31 11 32 -6 32 -8 0
-30 -14 -50 -32z"/>
<path d="M5420 6743 c-44 -16 -100 -97 -81 -116 7 -7 15 -6 26 3 12 10 13 15
4 21 -18 11 43 68 80 75 17 4 31 10 31 15 0 10 -36 11 -60 2z"/>
<path d="M5202 6724 c-26 -18 -51 -64 -45 -82 9 -26 51 -33 93 -16 34 14 40
21 40 45 0 30 -30 69 -53 69 -7 0 -23 -7 -35 -16z m62 -37 c14 -23 -15 -47
-56 -47 -32 0 -35 10 -12 46 19 29 51 29 68 1z"/>
<path d="M5525 6709 c-47 -41 -63 -102 -32 -121 14 -9 64 -10 95 -2 40 11 23
23 -30 21 -40 -1 -53 2 -55 13 -3 11 10 19 41 28 49 13 81 48 70 76 -10 25
-50 19 -89 -15z m62 -12 c-6 -17 -67 -41 -67 -26 0 10 62 51 68 44 3 -2 2 -11
-1 -18z"/>
<path d="M1977 6685 c-33 -52 -33 -88 1 -93 12 -2 22 1 22 7 0 6 -7 11 -16 11
-19 0 -11 31 17 72 11 14 19 31 19 37 0 22 -16 10 -43 -34z"/>
<path d="M3495 6673 c-23 -56 -13 -76 13 -26 24 46 27 63 12 63 -5 0 -17 -17
-25 -37z"/>
<path d="M6566 6654 c-7 -18 0 -34 15 -34 12 0 12 37 0 44 -5 3 -12 -1 -15
-10z"/>
<path d="M2010 6604 c0 -8 5 -12 10 -9 6 3 10 10 10 16 0 5 -4 9 -10 9 -5 0
-10 -7 -10 -16z"/>
<path d="M9286 6319 c-3 -8 -19 -57 -37 -109 -17 -52 -42 -120 -54 -150 -30
-72 -41 -124 -26 -119 20 7 144 370 131 383 -6 6 -11 4 -14 -5z"/>
<path d="M8675 6290 c4 -17 0 -53 -10 -85 -15 -55 -16 -55 -55 -55 -29 0 -40
-4 -40 -15 0 -10 10 -15 34 -15 l35 0 -24 -57 c-27 -69 -33 -97 -20 -101 5 -2
22 34 39 81 29 83 30 84 73 95 25 7 43 18 43 26 0 12 -5 12 -30 3 -38 -14 -44
-7 -31 40 17 59 14 113 -5 113 -12 0 -14 -7 -9 -30z"/>
<path d="M9128 6277 c-3 -23 -14 -64 -26 -90 -20 -45 -23 -47 -61 -47 -50 0
-54 -17 -6 -26 19 -3 35 -8 35 -10 0 -2 -11 -29 -25 -60 -27 -61 -32 -88 -14
-82 7 2 24 37 39 78 24 65 31 76 58 84 42 12 52 37 11 29 l-29 -6 20 48 c29
67 37 125 18 125 -11 0 -17 -14 -20 -43z"/>
<path d="M5224 6223 c-37 -75 -41 -78 -78 -83 -49 -6 -61 -30 -16 -30 27 0 31
-3 24 -17 -14 -33 -16 -103 -4 -118 18 -21 57 -19 70 5 12 23 7 25 -22 9 -16
-9 -23 -8 -29 2 -24 39 5 116 46 121 14 2 25 8 25 13 -1 6 -8 9 -16 7 -20 -4
-18 1 21 75 19 36 35 72 35 80 0 30 -19 8 -56 -64z"/>
<path d="M1585 6285 c-5 -2 -56 -9 -112 -15 -66 -8 -103 -17 -107 -25 -3 -10
3 -12 22 -10 15 2 68 9 117 16 50 6 99 13 110 14 34 4 35 5 35 15 0 9 -43 13
-65 5z"/>
<path d="M1670 6228 c-12 -35 -38 -94 -56 -132 -32 -64 -41 -96 -29 -96 3 0
23 18 44 40 52 55 65 53 57 -10 -8 -60 6 -66 23 -9 10 34 10 44 -4 65 -18 27
-19 28 -46 13 -19 -10 -19 -9 -3 28 18 44 53 144 54 156 0 4 -4 7 -9 7 -4 0
-18 -28 -31 -62z"/>
<path d="M3535 6268 c-8 -13 -23 -47 -31 -77 l-16 -54 -55 6 c-39 4 -53 2 -50
-6 2 -7 24 -13 50 -15 l46 -3 -16 -52 c-8 -29 -19 -54 -24 -55 -13 -5 -1 -22
15 -22 8 0 21 26 31 65 16 57 21 65 41 65 13 0 24 5 24 10 0 6 -9 10 -19 10
-20 0 -20 1 -1 56 11 31 25 63 30 70 7 8 7 14 1 18 -5 4 -17 -4 -26 -16z"/>
<path d="M7334 6263 c-3 -16 -10 -37 -15 -48 -5 -11 -13 -32 -18 -47 -8 -22
-17 -27 -51 -30 -22 -2 -39 -7 -38 -13 2 -5 18 -9 37 -8 30 2 33 1 27 -20 -15
-49 -19 -97 -7 -97 6 0 11 6 11 13 0 29 32 117 40 112 12 -8 60 5 60 16 0 5
-13 9 -29 9 l-30 0 20 57 c10 31 19 62 19 70 0 24 -20 13 -26 -14z"/>
<path d="M6061 6228 c-20 -77 -27 -88 -62 -88 -35 0 -36 -23 -1 -28 28 -4 28
-6 -7 -69 -17 -31 -25 -56 -20 -64 10 -17 11 -16 44 61 35 80 42 90 66 90 11
0 19 5 19 10 0 6 -9 10 -20 10 -18 0 -18 2 -5 41 16 46 20 89 7 89 -5 0 -14
-24 -21 -52z"/>
<path d="M7200 6267 c0 -8 7 -18 16 -21 11 -4 14 -1 12 11 -4 21 -28 30 -28
10z"/>
<path d="M8260 6255 c0 -8 7 -15 15 -15 8 0 15 7 15 15 0 8 -7 15 -15 15 -8 0
-15 -7 -15 -15z"/>
<path d="M1325 6250 c-3 -5 1 -10 9 -10 8 0 18 5 21 10 3 6 -1 10 -9 10 -8 0
-18 -4 -21 -10z"/>
<path d="M3617 6243 c-4 -3 -7 -17 -7 -30 0 -13 -16 -66 -35 -117 -19 -52 -35
-99 -35 -105 0 -24 22 -8 52 39 40 60 63 67 54 14 -4 -19 -10 -42 -13 -50 -3
-8 0 -14 6 -14 28 0 42 108 18 128 -10 9 -19 8 -34 -3 l-20 -14 18 67 c11 36
19 72 19 79 0 14 -12 17 -23 6z"/>
<path d="M1467 6119 c-27 -67 -47 -128 -45 -137 5 -27 23 -14 29 20 3 18 19
65 36 103 34 77 49 135 36 135 -5 0 -30 -55 -56 -121z"/>
<path d="M4377 6225 c-9 -8 -19 -44 -22 -81 -5 -47 -11 -62 -18 -55 -19 19
-42 12 -75 -22 -33 -34 -41 -74 -20 -95 46 -46 124 51 135 166 3 31 12 64 20
74 19 21 0 33 -20 13z m-47 -177 c0 -17 -52 -67 -65 -61 -23 8 -18 32 16 65
25 25 33 29 40 17 5 -8 9 -17 9 -21z"/>
<path d="M6350 6230 c0 -5 5 -10 10 -10 6 0 10 5 10 10 0 6 -4 10 -10 10 -5 0
-10 -4 -10 -10z"/>
<path d="M2450 6200 c0 -10 -16 -63 -35 -117 -35 -98 -42 -133 -27 -133 10 0
82 218 82 248 0 12 -4 22 -10 22 -5 0 -10 -9 -10 -20z"/>
<path d="M2511 6178 c-39 -91 -63 -166 -59 -188 5 -36 24 -34 24 2 1 18 17 75
36 126 35 92 35 142 -1 60z"/>
<path d="M1835 6191 c-6 -11 9 -23 19 -14 9 9 7 23 -3 23 -6 0 -12 -4 -16 -9z"/>
<path d="M7783 6173 c-19 -7 -15 -47 7 -76 11 -14 20 -33 20 -42 0 -15 -7 -17
-45 -12 -51 5 -58 -12 -10 -25 35 -9 78 9 83 35 2 10 -8 33 -22 52 -14 18 -26
36 -26 39 0 3 16 8 35 12 19 3 35 10 35 15 0 9 -56 11 -77 2z"/>
<path d="M6625 6144 c-14 -15 -25 -31 -25 -37 0 -5 -10 -26 -22 -45 -19 -31
-22 -33 -29 -16 -4 10 -8 39 -8 62 -1 29 -5 42 -13 40 -14 -5 -12 -97 3 -136
9 -24 10 -24 30 -6 12 11 33 39 47 64 36 64 52 80 79 80 12 0 23 5 23 10 0 22
-61 10 -85 -16z"/>
<path d="M1213 6144 c-8 -22 15 -43 27 -24 5 8 10 21 10 28 0 17 -30 15 -37
-4z"/>
<path d="M2952 6140 c-45 -28 -50 -46 -18 -79 36 -37 33 -45 -14 -37 -31 5
-40 3 -40 -8 0 -17 67 -27 93 -14 24 12 21 30 -8 58 -14 13 -25 29 -25 36 0
16 31 34 59 34 12 0 21 7 21 15 0 21 -29 19 -68 -5z"/>
<path d="M6711 6125 c-76 -69 -88 -145 -26 -161 34 -9 112 4 129 21 7 8 16 11
20 8 3 -4 6 -1 6 5 0 14 -26 16 -34 3 -9 -14 -96 -22 -117 -10 -34 18 -20 49
30 68 48 18 87 60 78 85 -10 26 -44 18 -86 -19z m59 -4 c0 -10 -34 -34 -65
-45 -16 -6 -14 -1 9 23 29 30 56 41 56 22z"/>
<path d="M7385 6128 c-47 -45 -55 -81 -21 -103 29 -19 79 -25 84 -10 2 6 -15
14 -37 18 -23 5 -41 11 -41 15 0 4 18 17 41 30 46 26 57 46 39 67 -18 21 -26
19 -65 -17z m30 -22 c-16 -13 -32 -22 -34 -20 -8 7 32 44 48 44 11 0 6 -8 -14
-24z"/>
<path d="M7557 6114 c-36 -46 -53 -51 -22 -7 9 13 11 24 6 28 -12 7 -20 -6
-47 -73 -25 -60 -15 -77 20 -35 14 15 36 42 50 58 l26 30 -11 -28 c-18 -40 -4
-44 36 -8 20 17 37 31 39 31 3 0 4 -21 3 -47 -2 -38 2 -48 16 -51 18 -4 25 24
7 30 -6 2 -5 19 1 47 15 66 6 79 -34 48 -32 -24 -33 -24 -33 -5 2 37 -20 30
-57 -18z"/>
<path d="M6329 6111 c-44 -44 -50 -80 -19 -111 32 -32 100 -24 100 11 0 22
-25 25 -37 4 -5 -9 -17 -12 -31 -8 -23 6 -30 27 -12 38 6 4 8 15 5 25 -5 17
26 50 47 50 17 0 7 -29 -12 -35 -11 -3 -20 -13 -20 -22 0 -12 5 -12 32 4 36
21 46 46 28 68 -20 24 -40 18 -81 -24z"/>
<path d="M8177 6073 c-28 -81 -33 -113 -18 -113 5 0 14 21 20 47 7 25 21 64
31 86 18 37 19 57 2 57 -4 0 -20 -35 -35 -77z"/>
<path d="M8464 6136 c-44 -20 -46 -28 -18 -70 35 -51 26 -70 -30 -64 -35 4
-43 2 -39 -8 8 -21 48 -27 80 -12 36 17 41 52 14 89 -12 15 -21 30 -21 33 0 2
14 9 30 15 17 5 30 15 30 20 0 14 -8 13 -46 -3z"/>
<path d="M9360 6087 c-25 -37 -49 -67 -53 -67 -5 0 -7 24 -5 53 2 30 -1 53 -7
55 -6 1 -10 -30 -10 -76 -1 -77 -1 -77 -55 -154 -64 -91 -86 -138 -66 -138 8
0 19 14 27 32 7 17 37 65 67 107 108 150 153 222 150 238 -2 11 -19 -7 -48
-50z"/>
<path d="M5718 6127 c-16 -12 -58 -105 -58 -127 0 -27 21 -3 50 56 26 53 34
64 42 50 13 -24 30 -20 26 7 -4 26 -35 33 -60 14z"/>
<path d="M8286 6097 c-51 -51 -71 -83 -56 -92 13 -8 49 16 44 30 -3 6 11 26
31 45 38 37 41 32 24 -36 -8 -31 -9 -48 -1 -56 12 -12 36 83 31 121 -6 39 -25
36 -73 -12z"/>
<path d="M1780 6104 c-6 -14 -10 -31 -10 -38 0 -6 -5 -17 -11 -23 -12 -12 -4
-33 11 -33 7 0 40 94 40 114 0 17 -22 3 -30 -20z"/>
<path d="M4699 6112 c-52 -14 -58 -19 -68 -53 -17 -56 -28 -55 -35 1 -6 45
-14 59 -28 45 -2 -3 1 -31 7 -62 16 -78 38 -83 67 -16 19 45 24 50 71 63 28 8
52 21 55 28 4 14 4 14 -69 -6z"/>
<path d="M7121 6103 c-40 -50 -41 -106 -2 -111 13 -2 28 2 32 10 13 19 11 28
-6 28 -8 0 -15 -5 -15 -11 0 -5 -4 -7 -10 -4 -12 7 14 75 35 91 19 14 19 24 1
24 -8 0 -24 -12 -35 -27z"/>
<path d="M1864 6105 c-3 -8 -1 -30 6 -50 14 -44 8 -67 -17 -58 -10 4 -23 13
-29 21 -8 12 -12 12 -23 -1 -10 -13 -8 -18 19 -32 17 -9 41 -15 53 -13 20 3
22 8 20 66 -1 59 0 62 23 62 13 0 24 5 24 10 0 16 -70 12 -76 -5z"/>
<path d="M2272 6104 c-30 -12 -62 -58 -62 -89 0 -22 26 -30 55 -17 19 9 24 8
28 -9 8 -31 26 -22 25 14 -1 18 4 42 10 54 27 49 0 71 -56 47z m38 -20 c0 -15
-22 -43 -45 -58 -24 -16 -25 -15 -25 2 0 22 35 62 55 62 8 0 15 -3 15 -6z"/>
<path d="M3737 6109 c-40 -23 -62 -124 -32 -149 12 -10 24 -9 59 4 43 16 74
41 64 51 -2 3 -23 -4 -46 -15 -46 -22 -58 -24 -66 -11 -11 18 6 40 35 46 34 8
62 44 53 69 -7 18 -40 21 -67 5z m43 -23 c0 -16 -37 -32 -48 -21 -7 7 25 35
40 35 4 0 8 -6 8 -14z"/>
<path d="M4432 6105 c-12 -9 -33 -35 -47 -59 -20 -35 -24 -49 -16 -68 5 -14
15 -28 23 -30 22 -9 79 4 85 19 8 20 -4 28 -21 14 -8 -7 -25 -11 -38 -9 -31 4
-34 54 -3 51 24 -2 72 25 80 45 9 23 -5 52 -23 52 -10 0 -27 -7 -40 -15z m24
-43 c-23 -23 -33 -6 -10 19 12 13 20 16 22 9 3 -7 -3 -19 -12 -28z"/>
<path d="M5814 6101 c-39 -24 -64 -58 -64 -88 0 -38 58 -65 104 -47 30 11 16
23 -31 26 -39 2 -48 6 -48 22 0 14 8 19 34 21 41 3 86 35 86 61 0 27 -42 29
-81 5z m56 -7 c0 -12 -35 -33 -55 -34 -17 0 -15 4 10 20 31 20 45 25 45 14z"/>
<path d="M6116 6113 c-4 -5 -12 -8 -18 -8 -5 0 -16 -16 -23 -35 -7 -19 -16
-43 -20 -52 -5 -13 -3 -18 7 -18 8 0 23 19 34 43 22 50 30 57 67 57 15 0 27 5
27 10 0 12 -63 14 -74 3z"/>
<path d="M8878 6093 c-32 -35 -51 -71 -43 -83 9 -14 25 -12 25 3 0 20 50 88
61 82 6 -4 7 -33 3 -72 -6 -54 -5 -65 7 -61 10 3 14 24 14 79 0 67 -2 74 -20
77 -12 2 -31 -9 -47 -25z"/>
<path d="M2550 6078 c-11 -18 -20 -45 -20 -60 0 -23 4 -28 24 -28 28 0 86 45
86 66 0 19 -36 54 -55 54 -8 0 -24 -15 -35 -32z m60 -18 c0 -20 -46 -58 -57
-47 -3 4 0 20 7 37 14 35 50 42 50 10z"/>
<path d="M2803 6070 c4 -28 1 -45 -10 -55 -19 -19 -33 -10 -33 21 0 27 -17 33
-27 9 -5 -15 -63 -51 -63 -40 0 3 7 22 15 42 17 40 19 53 7 53 -11 0 -42 -66
-42 -91 0 -27 27 -35 59 -16 25 14 28 14 37 0 7 -12 18 -14 37 -9 36 9 50 39
42 87 -9 52 -29 52 -22 -1z"/>
<path d="M5274 6085 c-29 -29 -30 -71 -2 -89 26 -16 71 4 82 37 9 24 7 31 -18
52 -16 14 -31 25 -33 25 -2 0 -15 -11 -29 -25z m66 -36 c0 -5 -11 -16 -26 -25
-27 -18 -49 -9 -39 18 6 15 65 21 65 7z"/>
<path d="M6221 6065 c-25 -56 -25 -55 -8 -55 16 0 50 81 38 93 -6 6 -17 -10
-30 -38z"/>
<path d="M8721 6084 c-12 -15 -21 -35 -21 -44 0 -24 24 -42 44 -34 11 4 22 0
30 -11 9 -13 15 -15 20 -7 4 7 4 16 1 22 -3 5 2 24 11 41 15 31 15 33 -2 46
-28 21 -61 15 -83 -13z m63 -2 c7 -12 -31 -52 -50 -52 -16 0 -12 12 14 43 17
19 28 22 36 9z"/>
<path d="M9400 6010 c-19 -36 -2 -42 31 -11 l20 18 -21 6 c-13 3 -24 -1 -30
-13z"/>
<path d="M1710 5583 c-30 -48 -74 -116 -97 -150 -47 -69 -49 -73 -30 -73 7 0
23 18 37 40 14 22 27 40 30 40 3 1 23 3 44 6 l39 6 -7 -61 c-4 -36 -3 -61 2
-61 14 0 22 26 22 70 0 34 3 39 27 42 36 4 43 28 8 28 -31 0 -30 -16 -9 148 4
28 3 52 -2 52 -5 0 -34 -39 -64 -87z m32 -49 c-7 -58 -8 -59 -41 -62 -18 -2
-32 0 -30 5 8 17 74 121 76 119 2 -1 -1 -29 -5 -62z"/>
<path d="M8725 5613 c-9 -31 -30 -89 -46 -130 -16 -40 -29 -78 -29 -83 0 -22
20 -8 50 34 17 24 42 48 56 55 22 10 24 9 24 -20 0 -16 -9 -48 -21 -70 -11
-23 -18 -43 -15 -46 14 -14 33 10 50 64 14 48 16 64 7 81 -14 26 -38 28 -69 6
-12 -8 -22 -14 -22 -12 0 2 11 35 25 73 26 74 31 105 16 105 -5 0 -17 -25 -26
-57z"/>
<path d="M4851 5634 c-14 -17 -21 -42 -21 -68 0 -64 -9 -86 -35 -86 -30 0 -55
-10 -55 -22 0 -5 19 -6 46 -2 l47 7 -7 -43 c-5 -35 -21 -78 -44 -122 -2 -5 3
-8 11 -8 18 0 46 63 55 125 7 49 8 50 40 47 18 -2 32 1 32 6 0 12 -24 22 -52
22 -19 0 -20 4 -15 62 4 47 11 67 26 79 25 20 27 29 7 29 -8 0 -24 -12 -35
-26z"/>
<path d="M8060 5634 c-6 -14 -15 -46 -22 -71 l-11 -45 -48 6 c-28 4 -49 3 -49
-3 0 -10 24 -21 48 -21 39 -1 45 -14 28 -64 -17 -51 -21 -86 -8 -86 5 0 17 30
28 68 18 64 20 67 52 70 l33 3 -20 -40 c-24 -47 -25 -51 -8 -50 6 0 26 21 42
46 54 84 91 86 62 4 -19 -55 -21 -71 -8 -71 5 0 16 21 25 47 31 90 14 133 -39
99 l-24 -16 14 41 c17 48 20 109 5 109 -5 0 -10 -10 -10 -23 0 -13 -7 -47 -15
-75 -15 -50 -17 -52 -48 -48 -18 2 -32 5 -32 7 2 28 30 119 37 119 4 0 8 5 8
10 0 21 -31 9 -40 -16z"/>
<path d="M9185 5648 c-3 -7 -16 -53 -30 -101 -14 -49 -34 -106 -46 -128 -30
-60 -12 -70 32 -18 l38 44 1 -32 c0 -26 5 -34 25 -39 27 -7 85 12 85 27 0 5
-11 7 -25 3 -57 -14 -60 -12 -57 34 4 46 -8 54 -39 26 -14 -13 -12 1 12 83 16
54 29 101 29 106 0 12 -20 8 -25 -5z"/>
<path d="M3532 5542 c-33 -108 -40 -162 -22 -162 6 0 10 10 10 23 0 13 14 66
30 117 17 51 30 102 30 112 0 43 -17 11 -48 -90z"/>
<path d="M6719 5577 c-21 -73 -22 -75 -58 -81 -20 -3 -46 -3 -58 0 -17 5 -23
2 -23 -11 0 -15 8 -17 54 -13 l53 4 -13 -32 c-16 -39 -18 -94 -4 -94 6 0 10 6
10 13 0 7 7 37 15 65 14 46 19 52 50 58 22 4 35 12 35 21 0 11 -7 13 -25 9
-30 -8 -31 2 -8 67 13 35 14 50 6 58 -9 9 -17 -7 -34 -64z"/>
<path d="M6845 5608 c-40 -100 -74 -213 -65 -222 5 -5 21 12 39 40 16 27 26
51 22 54 -10 6 -9 70 0 64 3 -2 12 16 19 39 8 23 18 48 23 55 7 8 5 12 -6 12
-8 0 -22 -19 -32 -42z"/>
<path d="M5357 5610 c-10 -26 -16 -30 -49 -30 -45 0 -50 -16 -8 -25 17 -4 30
-8 30 -10 0 -1 -7 -22 -15 -45 -18 -51 -19 -102 -3 -118 14 -14 78 -16 78 -2
0 6 -14 10 -30 10 -43 0 -47 21 -21 101 19 59 25 69 45 69 40 0 86 12 86 23 0
6 -19 8 -50 4 -47 -6 -50 -5 -40 13 13 24 13 40 -1 40 -6 0 -16 -13 -22 -30z"/>
<path d="M7543 5578 c-37 -114 -55 -180 -49 -186 4 -3 21 9 39 26 40 38 47 40
47 7 0 -46 64 -54 99 -11 11 14 11 16 -2 16 -9 0 -19 -4 -22 -10 -3 -5 -15
-10 -26 -10 -15 0 -19 7 -19 30 0 36 -23 49 -52 31 -11 -7 -21 -11 -23 -9 -2
2 8 37 21 78 26 81 29 100 16 100 -5 0 -18 -28 -29 -62z"/>
<path d="M4382 5609 c2 -6 8 -10 13 -10 5 0 11 4 13 10 2 6 -4 11 -13 11 -9 0
-15 -5 -13 -11z"/>
<path d="M4955 5580 c-7 -12 2 -30 16 -30 12 0 12 27 0 35 -5 3 -12 1 -16 -5z"/>
<path d="M2300 5555 c0 -8 4 -15 9 -15 5 0 14 7 21 15 10 13 9 15 -9 15 -12 0
-21 -6 -21 -15z"/>
<path d="M3790 5547 c-40 -20 -71 -76 -68 -121 4 -52 24 -64 71 -41 20 9 37
24 37 31 0 12 -5 12 -31 -1 -17 -9 -37 -14 -45 -11 -19 7 -18 36 1 36 21 0 85
59 85 80 0 29 -22 41 -50 27z m21 -35 c-14 -27 -38 -45 -53 -40 -8 3 -3 14 14
31 32 32 54 36 39 9z"/>
<path d="M3592 5510 c-16 -53 -15 -85 4 -104 11 -12 20 -13 33 -6 20 10 57 61
53 73 -1 4 3 7 9 7 18 0 5 45 -13 48 -10 2 -18 -2 -18 -8 0 -6 4 -9 9 -6 16
10 -1 -41 -23 -69 -14 -18 -27 -25 -35 -21 -12 8 -11 32 5 99 10 42 -10 32
-24 -13z"/>
<path d="M5048 5533 c-29 -34 -61 -102 -55 -117 9 -23 27 -19 27 6 0 12 11 40
25 64 20 35 29 41 47 36 21 -5 22 -4 9 11 -17 22 -34 21 -53 0z"/>
<path d="M9017 5522 c-30 -31 -35 -63 -12 -82 29 -24 5 -74 -26 -54 -5 3 -9
-2 -9 -10 0 -26 47 -20 66 9 15 23 15 27 -7 61 l-22 37 31 28 c18 16 32 31 32
34 0 14 -29 2 -53 -23z"/>
<path d="M2421 5471 c-25 -82 -40 -98 -43 -44 -2 64 -3 66 -16 71 -8 2 -12 -9
-11 -40 3 -131 54 -128 93 6 11 36 16 41 39 38 15 -1 27 1 27 6 0 9 -43 32
-59 32 -5 0 -19 -31 -30 -69z"/>
<path d="M3246 5465 c-21 -41 -42 -75 -47 -75 -9 0 -14 19 -23 84 -5 40 -20
65 -32 53 -9 -9 14 -114 33 -150 8 -16 19 -27 26 -24 9 3 107 171 107 184 0 1
-6 3 -13 3 -7 0 -30 -34 -51 -75z"/>
<path d="M4458 5526 c-23 -17 -23 -31 2 -64 13 -17 18 -35 14 -45 -9 -24 -19
-21 -33 10 -9 19 -15 23 -23 15 -15 -15 16 -62 40 -62 40 0 56 56 27 94 -20
27 -19 34 7 38 12 2 23 9 26 16 5 16 -38 15 -60 -2z"/>
<path d="M5165 5523 c-48 -12 -58 -43 -25 -78 18 -20 19 -23 5 -35 -8 -7 -26
-12 -40 -12 -15 0 -25 -6 -25 -14 0 -29 78 -6 102 30 4 6 -4 22 -17 36 -14 15
-25 29 -25 33 0 3 18 12 40 18 61 19 48 37 -15 22z"/>
<path d="M5850 5516 c-6 -8 -17 -13 -24 -10 -10 4 -46 -86 -46 -116 0 -26 20
-5 36 35 17 46 65 96 72 76 6 -19 22 -12 22 9 0 24 -41 28 -60 6z"/>
<path d="M8873 5515 c-28 -20 -63 -77 -63 -104 0 -16 6 -21 24 -21 14 0 28 5
32 12 5 7 10 4 15 -10 5 -12 15 -22 24 -22 16 0 21 16 6 22 -6 2 0 24 11 51
11 26 18 50 15 54 -4 3 -25 -15 -48 -40 -43 -49 -63 -60 -51 -28 9 26 49 71
62 71 5 0 10 7 10 15 0 19 -10 19 -37 0z"/>
<path d="M2543 5488 c-45 -47 -58 -84 -38 -114 11 -17 25 -24 48 -24 36 0 77
23 64 37 -5 4 -15 -1 -23 -11 -8 -11 -14 -14 -14 -7 0 7 -5 9 -10 6 -20 -12
-50 6 -50 31 0 18 5 24 23 24 30 0 80 51 71 73 -10 26 -37 20 -71 -15z m42 -7
c-3 -6 -16 -16 -28 -22 -21 -11 -21 -10 2 15 23 25 40 29 26 7z"/>
<path d="M6946 5489 c-15 -17 -33 -44 -42 -60 -21 -41 -26 -36 -18 21 5 41 4
51 -10 56 -10 4 -23 1 -29 -5 -9 -9 -6 -13 11 -17 12 -4 19 -11 16 -16 -19
-30 -21 -76 -4 -97 l16 -23 19 29 c11 15 20 36 22 45 4 26 48 68 72 68 25 0
28 15 5 24 -26 10 -31 8 -58 -25z"/>
<path d="M1347 5503 c-10 -9 -9 -43 1 -43 10 0 42 33 42 43 0 9 -35 9 -43 0z"/>
<path d="M2690 5485 c-5 -14 -13 -44 -16 -66 -8 -48 13 -54 38 -11 9 15 28 38
42 51 l26 25 -6 -32 c-8 -41 2 -82 21 -82 17 0 20 16 5 25 -6 4 -8 25 -4 54 8
64 -6 70 -55 26 l-40 -36 9 30 c11 39 -6 52 -20 16z"/>
<path d="M6172 5503 c-6 -2 -10 -8 -8 -11 2 -4 -11 -14 -28 -22 -30 -15 -32
-14 -32 4 1 10 -5 21 -11 23 -7 3 -13 -3 -13 -13 0 -10 -7 -38 -16 -61 -9 -24
-14 -46 -10 -50 8 -8 56 37 56 53 0 12 59 48 66 41 2 -2 -1 -20 -7 -41 -17
-63 31 -90 82 -45 l24 20 -25 -4 c-14 -2 -34 -8 -44 -12 -18 -8 -19 -5 -12 36
14 85 11 95 -22 82z"/>
<path d="M7343 5475 c-44 -44 -43 -80 2 -80 17 1 40 4 53 9 22 7 23 6 16 -31
-3 -21 -12 -53 -20 -70 -12 -32 -14 -33 -58 -27 -40 6 -46 4 -47 -12 -5 -82
37 -111 79 -55 16 22 31 31 59 33 20 2 38 9 41 17 3 10 -3 11 -28 6 -31 -7
-33 -6 -26 16 15 51 36 155 36 178 0 26 -25 50 -53 51 -11 0 -35 -16 -54 -35z
m77 -14 c0 -23 -67 -58 -82 -43 -7 7 -2 19 15 36 31 31 67 35 67 7z m-61 -217
c2 -2 -4 -13 -14 -24 l-19 -21 -12 23 c-7 12 -10 26 -7 31 4 7 41 1 52 -9z"/>
<path d="M8257 5483 c-14 -16 -29 -43 -33 -60 -5 -25 -2 -34 17 -47 27 -19 50
-20 103 -5 49 14 34 31 -17 20 -52 -12 -77 -4 -77 26 0 24 40 73 60 73 17 0
11 -19 -10 -30 -23 -12 -27 -30 -7 -30 21 0 49 36 45 57 -5 30 -50 28 -81 -4z"/>
<path d="M3331 5474 c-30 -38 -28 -74 3 -74 14 0 28 5 31 10 10 16 23 12 30
-10 10 -31 23 -23 23 14 0 19 3 39 6 45 4 5 1 13 -5 16 -6 4 -26 -8 -45 -26
-18 -18 -37 -30 -40 -26 -11 11 26 58 43 55 9 -2 18 3 20 10 9 24 -45 13 -66
-14z"/>
<path d="M4346 5489 c-2 -8 -9 -29 -15 -48 -14 -42 -14 -61 -1 -61 14 0 42
102 30 114 -6 6 -11 4 -14 -5z"/>
<path d="M7271 5462 c-10 -35 -35 -67 -70 -87 -11 -6 -13 -2 -9 18 3 17 0 28
-9 31 -11 5 -13 -3 -11 -32 2 -28 8 -38 23 -40 27 -4 91 64 100 105 9 46 -12
51 -24 5z"/>
<path d="M2091 5464 c-39 -49 -18 -103 34 -90 25 6 26 6 19 -31 -9 -51 -10
-53 -49 -53 -35 0 -45 -13 -45 -55 0 -36 10 -55 30 -55 20 0 60 44 60 67 0 9
7 12 24 7 13 -3 27 -1 30 4 7 12 -20 36 -32 28 -4 -3 0 35 11 85 10 49 16 96
13 104 -10 26 -72 19 -95 -11z m71 -19 c-4 -25 -53 -60 -66 -48 -20 20 19 73
53 73 14 0 17 -6 13 -25z m-53 -184 c11 -7 10 -13 -5 -36 -15 -23 -19 -24 -26
-11 -9 17 -2 56 10 56 4 0 13 -4 21 -9z"/>
<path d="M4925 5453 c-4 -21 -9 -45 -11 -55 -6 -19 14 -35 20 -16 3 7 7 34 11
61 8 57 -11 66 -20 10z"/>
<path d="M6031 5477 c-6 -8 -8 -16 -5 -20 9 -9 -15 -46 -42 -63 -34 -23 -45
-8 -29 41 8 21 12 41 10 43 -16 17 -53 -73 -42 -102 4 -9 18 -16 33 -16 35 0
104 70 104 105 0 28 -12 32 -29 12z"/>
<path d="M7067 5479 c-23 -14 -58 -84 -51 -103 19 -50 134 5 134 64 0 45 -40
64 -83 39z m63 -40 c0 -16 -51 -59 -71 -59 -26 0 -24 23 7 59 21 25 29 29 45
21 10 -6 19 -15 19 -21z"/>
<path d="M7186 5464 c-8 -22 4 -40 15 -23 11 18 11 39 0 39 -5 0 -12 -7 -15
-16z"/>
<path d="M2262 5431 c-14 -46 -16 -89 -3 -75 13 14 40 102 33 108 -12 13 -19
5 -30 -33z"/>
<path d="M3857 5454 c-4 -4 -7 -14 -7 -23 0 -11 3 -12 11 -4 6 6 10 16 7 23
-2 6 -7 8 -11 4z"/>
<path d="M1198 5333 c-27 -31 -38 -61 -38 -102 0 -40 -1 -41 -35 -41 -19 0
-35 -4 -35 -10 0 -10 19 -14 51 -12 27 2 40 -108 19 -149 -15 -27 -1 -47 17
-24 8 12 13 48 13 100 l0 81 32 9 c34 11 55 41 22 32 -11 -3 -29 -8 -41 -12
-20 -5 -23 -3 -23 20 0 46 30 95 61 102 16 3 29 9 29 14 0 16 -57 9 -72 -8z"/>
<path d="M1727 5274 c-3 -3 -3 -12 0 -20 3 -8 2 -30 -1 -50 -6 -29 -11 -35
-29 -32 -12 1 -23 -2 -25 -7 -1 -6 9 -11 23 -13 24 -3 25 -6 23 -55 -2 -29 1
-54 7 -57 5 -3 11 16 13 45 4 67 7 73 37 77 14 2 24 8 23 13 -2 6 -13 9 -25 7
-21 -3 -23 1 -23 48 0 46 -7 60 -23 44z"/>
<path d="M1897 5244 c-13 -13 -7 -24 14 -24 11 0 19 5 17 12 -5 14 -22 21 -31
12z"/>
<path d="M1324 5136 c7 -30 -14 -80 -39 -89 -11 -5 -15 1 -15 23 0 38 -17 83
-29 75 -10 -6 -4 -64 10 -102 20 -55 92 -2 93 68 1 28 -4 44 -13 47 -10 3 -12
-2 -7 -22z"/>
<path d="M1402 5148 c-7 -7 -18 -13 -25 -13 -13 0 -17 -58 -6 -77 10 -16 29 0
29 25 0 29 15 51 29 43 6 -4 11 -23 11 -42 0 -19 4 -34 9 -34 16 0 22 51 9 78
-15 30 -37 39 -56 20z"/>
<path d="M1516 5138 c-22 -32 -20 -64 6 -82 31 -22 55 -20 68 5 15 26 5 37
-20 21 -26 -16 -37 -15 -44 4 -8 21 20 54 46 54 10 0 18 5 18 10 0 20 -59 10
-74 -12z"/>
<path d="M1846 5132 c-11 -18 -19 -92 -9 -92 15 0 36 81 25 92 -6 6 -12 6 -16
0z"/>
<path d="M1976 5131 c-4 -6 -13 -8 -20 -5 -16 6 -56 -41 -56 -65 0 -10 6 -26
14 -36 12 -16 17 -17 43 -6 75 31 110 112 51 119 -14 2 -29 -1 -32 -7z m44
-25 c0 -18 -56 -66 -76 -66 -11 0 -14 8 -12 27 2 20 12 29 38 39 46 16 50 16
50 0z"/>
<path d="M2192 5115 c-29 -24 -30 -24 -35 -5 -8 32 -22 23 -33 -22 -6 -24 -14
-51 -19 -60 -5 -13 -3 -18 9 -18 9 0 16 4 16 8 0 11 71 82 82 82 6 0 7 -16 3
-38 -9 -53 11 -70 54 -47 31 15 44 43 16 31 -51 -21 -48 -23 -41 37 9 66 -3
73 -52 32z"/>
<path d="M3820 5054 c-45 -38 -64 -81 -65 -149 -1 -56 -3 -60 -23 -57 -15 2
-22 -2 -22 -12 0 -10 9 -16 25 -16 21 0 25 -5 25 -31 0 -17 -5 -39 -10 -49 -7
-13 -7 -21 1 -26 17 -10 29 16 29 68 0 47 0 47 37 50 20 2 38 9 41 16 3 9 -6
11 -37 6 l-41 -7 0 58 c0 84 49 155 107 155 13 0 23 5 23 10 0 20 -59 10 -90
-16z"/>
<path d="M2400 5054 c0 -9 5 -14 12 -12 18 6 21 28 4 28 -9 0 -16 -7 -16 -16z"/>
<path d="M8912 5026 c-6 -13 -13 -43 -17 -68 -9 -61 -15 -67 -65 -76 -24 -4
-46 -14 -48 -21 -5 -14 -2 -14 79 4 15 3 16 -1 2 -48 -24 -86 -26 -97 -14 -97
6 0 21 34 33 75 20 70 24 75 60 90 21 8 47 15 57 15 26 0 51 10 51 20 0 11
-67 4 -104 -10 -16 -6 -31 -8 -33 -6 -5 4 8 70 23 124 8 29 -10 28 -24 -2z"/>
<path d="M4366 5028 c-2 -7 -9 -42 -15 -78 -9 -45 -19 -70 -34 -82 -19 -15
-20 -18 -6 -23 11 -4 15 -14 12 -25 -7 -25 5 -70 17 -70 6 0 10 22 10 49 l0
49 58 8 c70 11 71 30 2 26 -54 -4 -54 -4 -41 48 18 70 22 110 11 110 -6 0 -12
-6 -14 -12z"/>
<path d="M7413 4963 c-18 -76 -20 -78 -51 -81 -38 -4 -43 -22 -7 -22 26 0 26
-1 20 -62 -6 -58 -5 -62 9 -44 9 11 16 31 16 45 0 50 11 71 36 71 28 0 28 -2
9 -55 -18 -50 -18 -65 -2 -65 6 0 25 23 40 50 37 67 51 65 42 -5 -8 -70 9 -74
24 -4 12 54 2 89 -25 89 -25 0 -26 24 -5 81 25 64 24 59 6 59 -9 0 -21 -23
-33 -62 -17 -55 -23 -63 -46 -66 -14 -2 -26 0 -26 5 1 17 25 99 33 111 9 13 1
32 -12 32 -5 0 -17 -35 -28 -77z"/>
<path d="M6411 4946 c-11 -70 -14 -75 -39 -78 -15 -2 -26 -7 -24 -13 2 -5 11
-9 22 -7 18 3 18 0 4 -59 -10 -42 -11 -66 -5 -72 12 -12 14 -7 31 75 l11 57
42 3 c49 3 48 24 0 22 -28 -1 -32 2 -28 20 13 55 22 116 17 121 -13 13 -19 0
-31 -69z"/>
<path d="M6894 4978 c-8 -40 -11 -43 -46 -46 -48 -4 -50 -22 -4 -22 l35 0 -15
-44 c-9 -25 -14 -59 -12 -78 3 -28 7 -33 31 -34 15 -1 32 6 39 13 10 13 7 14
-17 11 -29 -3 -30 -1 -28 34 1 20 9 53 17 72 15 35 16 36 70 36 31 0 56 5 56
10 0 6 -25 10 -55 10 -39 0 -53 4 -51 13 15 45 15 67 3 67 -7 0 -17 -19 -23
-42z"/>
<path d="M2900 5000 c-156 -7 -149 -26 8 -22 119 3 152 8 152 20 0 9 -12 9
-160 2z"/>
<path d="M3102 4968 c0 -18 -12 -69 -26 -113 -41 -126 -33 -148 23 -65 18 28
38 50 43 50 6 0 8 -25 6 -57 -2 -34 1 -57 8 -60 6 -2 11 9 12 27 0 16 4 39 7
50 16 50 -27 79 -65 45 -16 -15 -16 -10 1 52 23 81 24 103 5 103 -9 0 -14 -11
-14 -32z"/>
<path d="M5674 4978 c-5 -7 -7 -24 -6 -38 1 -14 -7 -56 -18 -95 -20 -71 -26
-125 -12 -125 7 0 62 213 62 242 0 22 -16 32 -26 16z"/>
<path d="M5741 4870 c-23 -119 -23 -150 1 -150 10 0 12 11 10 38 -2 20 4 68
12 105 9 38 14 73 11 77 -3 5 -1 11 5 15 14 9 12 35 -2 35 -8 0 -22 -43 -37
-120z"/>
<path d="M2919 4968 c-10 -29 -35 -246 -28 -252 11 -12 16 3 29 99 7 44 14 97
17 118 4 24 2 37 -6 37 -6 0 -11 -1 -12 -2z"/>
<path d="M4510 4945 c0 -8 5 -15 10 -15 6 0 10 7 10 15 0 8 -4 15 -10 15 -5 0
-10 -7 -10 -15z"/>
<path d="M5580 4925 c0 -9 5 -15 11 -13 6 2 11 8 11 13 0 5 -5 11 -11 13 -6 2
-11 -4 -11 -13z"/>
<path d="M7030 4930 c0 -5 6 -10 14 -10 8 0 18 5 21 10 3 6 -3 10 -14 10 -12
0 -21 -4 -21 -10z"/>
<path d="M5375 4908 c-11 -7 -36 -14 -55 -18 -19 -3 -33 -10 -31 -15 1 -6 6
-9 10 -9 3 1 23 5 43 8 l37 7 -20 -55 c-17 -51 -17 -86 1 -86 4 0 19 10 34 21
l27 21 20 -21 c21 -22 45 -26 68 -12 17 11 10 96 -9 114 -10 10 -11 1 -6 -40
4 -33 3 -54 -4 -58 -13 -8 -52 24 -44 36 11 18 -31 8 -53 -13 -30 -28 -30 -11
1 64 28 68 24 81 -19 56z"/>
<path d="M6546 4869 c-14 -17 -26 -36 -26 -42 0 -7 -4 -6 -10 3 -14 21 -26 1
-34 -59 -3 -25 -13 -68 -22 -94 -15 -46 -13 -71 5 -51 4 5 16 33 27 62 10 28
24 52 31 52 22 0 63 31 78 59 l14 26 1 -25 c1 -82 82 -93 128 -18 30 50 36 78
18 78 -9 0 -16 -9 -16 -20 0 -11 -16 -37 -35 -58 l-35 -37 -19 22 c-21 25 -18
71 6 90 11 8 11 13 2 19 -7 4 -19 -1 -29 -14 l-18 -21 -6 29 c-7 38 -27 38
-60 -1z m47 -13 c4 -9 -11 -33 -33 -58 -46 -51 -55 -31 -15 32 27 42 39 49 48
26z"/>
<path d="M7648 4890 c-24 -15 -58 -74 -58 -102 0 -14 7 -31 15 -38 18 -15 114
-15 129 0 12 12 11 12 -64 14 -46 1 -55 4 -55 19 0 13 12 23 38 32 39 13 67
32 67 46 0 12 -30 39 -43 39 -7 0 -20 -5 -29 -10z m31 -38 c-9 -15 -49 -29
-49 -17 0 10 33 35 46 35 11 0 12 -4 3 -18z"/>
<path d="M3235 4853 c-76 -84 -51 -138 63 -134 21 1 31 5 27 12 -4 6 -1 10 6
8 27 -3 39 1 39 15 0 13 -5 13 -36 0 -20 -8 -52 -14 -72 -12 -31 3 -37 7 -40
29 -3 27 39 89 61 89 6 0 0 -11 -13 -25 -24 -26 -22 -42 5 -32 20 8 39 51 32
71 -10 26 -36 18 -72 -21z"/>
<path d="M4727 4830 c-10 -33 -17 -62 -17 -65 0 -13 21 -1 65 37 l47 42 -6
-40 c-10 -57 11 -74 59 -51 35 17 51 46 18 32 -46 -19 -53 -18 -53 7 0 14 5
39 11 57 6 18 9 35 6 38 -4 3 -29 -11 -56 -30 l-50 -36 6 35 c9 57 -12 38 -30
-26z"/>
<path d="M8199 4878 c-50 -41 -79 -121 -58 -160 11 -21 65 -24 104 -6 28 12
35 34 8 23 -10 -4 -35 -9 -55 -12 -37 -5 -38 -5 -38 24 0 24 6 33 29 43 46 18
78 57 65 78 -14 22 -35 26 -55 10z m31 -27 c0 -5 -11 -16 -25 -25 -29 -19 -33
-11 -8 16 17 19 33 24 33 9z"/>
<path d="M8330 4880 c0 -5 8 -26 17 -46 16 -32 16 -37 2 -44 -41 -23 -64 -49
-53 -59 7 -8 17 -4 34 14 28 30 37 31 63 8 19 -18 20 -17 13 11 -6 24 -2 34
23 57 29 26 40 49 24 49 -4 0 -21 -14 -38 -30 l-32 -31 -18 41 c-17 37 -35 53
-35 30z"/>
<path d="M2686 4861 c-6 -10 3 -41 11 -41 7 0 32 33 33 43 0 10 -38 9 -44 -2z"/>
<path d="M4168 4843 c-46 -51 -58 -75 -47 -94 7 -14 18 -18 42 -15 17 2 40 4
50 5 9 0 17 6 17 12 0 8 -14 10 -40 6 -22 -3 -42 -2 -45 3 -6 10 52 90 65 90
6 0 10 5 10 10 0 19 -26 10 -52 -17z"/>
<path d="M4567 4844 c-51 -51 -43 -104 17 -104 65 0 96 69 50 114 -22 22 -37
20 -67 -10z m47 -10 c38 -15 7 -74 -38 -74 -21 0 -21 38 1 62 18 21 16 20 37
12z"/>
<path d="M6265 4837 c5 -27 1 -37 -24 -61 -16 -15 -34 -26 -39 -22 -12 7 -22
56 -12 56 12 0 20 29 10 35 -14 9 -42 -54 -36 -81 4 -13 14 -28 24 -33 21 -11
66 4 57 19 -4 6 -1 9 5 8 7 -2 21 14 32 34 16 31 17 40 6 57 -19 31 -30 25
-23 -12z"/>
<path d="M6051 4829 c-26 -35 -31 -77 -10 -90 20 -12 22 -12 60 14 39 26 47
49 28 83 -17 34 -51 30 -78 -7z m66 -16 c5 -13 -35 -53 -54 -53 -18 0 -16 21
3 48 16 24 44 26 51 5z"/>
<path d="M8682 4838 c-35 -38 -53 -80 -40 -95 13 -16 81 -17 109 -3 31 17 22
30 -13 19 -83 -23 -100 -2 -43 55 19 20 35 38 35 41 0 13 -29 3 -48 -17z"/>
<path d="M3940 4835 c0 -26 -29 -75 -45 -75 -19 0 -34 28 -27 53 4 14 1 18 -9
15 -9 -3 -13 -16 -11 -39 7 -66 44 -78 86 -28 26 30 36 89 16 89 -5 0 -10 -7
-10 -15z"/>
<path d="M4025 4839 c-4 -6 -13 -8 -21 -5 -17 6 -21 -1 -26 -43 -2 -21 2 -36
10 -38 6 -3 12 2 12 11 0 8 11 28 25 43 l24 28 1 -36 c0 -22 7 -42 17 -50 15
-13 16 -11 10 20 -4 18 -7 44 -7 57 0 17 -6 24 -19 24 -11 0 -23 -5 -26 -11z"/>
<path d="M4460 4833 c0 -9 -5 -31 -12 -50 -6 -18 -9 -36 -5 -39 10 -11 18 0
27 38 4 18 11 41 15 51 5 12 2 17 -9 17 -9 0 -16 -8 -16 -17z"/>
<path d="M8515 4832 c-34 -29 -65 -74 -65 -93 0 -27 39 -24 84 6 33 23 36 23
36 5 0 -23 13 -32 34 -24 20 8 21 24 1 24 -13 0 -15 7 -9 35 7 40 -4 45 -31
15 -22 -24 -84 -64 -90 -58 -8 8 56 78 72 78 8 0 13 5 11 12 -7 19 -21 19 -43
0z"/>
<path d="M5563 4823 c0 -10 -4 -33 -8 -50 -5 -21 -4 -33 3 -33 11 0 32 53 32
81 0 24 -25 25 -27 2z"/>
<path d="M7730 4780 c0 -5 5 -10 10 -10 6 0 10 5 10 10 0 6 -4 10 -10 10 -5 0
-10 -4 -10 -10z"/>
<path d="M2090 4653 c-15 -112 -14 -111 -45 -115 -32 -4 -34 -22 -1 -26 22 -3
23 -6 15 -40 -4 -20 -6 -38 -4 -40 9 -10 25 11 25 33 0 29 24 55 51 55 10 0
19 5 19 11 0 7 -10 9 -25 7 -30 -6 -30 -1 -11 115 7 42 10 79 8 82 -15 14 -21
-3 -32 -82z"/>
<path d="M6022 4594 c-20 -103 -39 -145 -75 -168 -12 -8 -20 -7 -28 1 -19 19
20 77 54 81 36 4 34 22 -2 22 -22 0 -37 -9 -56 -34 -44 -57 -18 -112 42 -90
40 14 69 74 88 179 19 105 19 109 8 112 -5 2 -19 -45 -31 -103z"/>
<path d="M6596 4656 c-7 -18 -17 -48 -21 -67 -4 -19 -14 -42 -22 -51 -8 -9
-18 -33 -23 -53 -7 -33 -6 -37 17 -46 60 -22 119 7 137 68 14 45 -32 85 -73
63 -20 -10 -20 -9 -6 36 8 26 19 52 24 57 15 15 14 27 -4 27 -8 0 -21 -15 -29
-34z m64 -134 c0 -36 -39 -75 -71 -70 -35 5 -34 31 1 67 41 40 70 41 70 3z"/>
<path d="M7673 4666 c-11 -13 -25 -49 -32 -80 -11 -50 -15 -56 -38 -56 -15 0
-23 -5 -20 -12 2 -7 12 -12 21 -11 12 0 15 -4 12 -14 -3 -8 -9 -32 -12 -54
-10 -61 12 -47 28 18 l14 58 47 9 c29 5 47 13 47 22 0 8 -5 14 -11 14 -5 0 -8
-3 -6 -7 3 -5 -12 -9 -33 -9 l-38 -2 10 37 c13 48 36 91 48 91 6 0 10 5 10 10
0 19 -28 10 -47 -14z"/>
<path d="M5847 4673 c-4 -3 -7 -17 -7 -29 0 -13 -11 -58 -25 -101 -26 -81 -32
-143 -15 -143 6 0 10 10 10 23 0 12 11 58 24 101 39 125 44 180 13 149z"/>
<path d="M8333 4669 c-6 -6 -9 -17 -7 -23 2 -6 -4 -36 -14 -66 -17 -50 -21
-55 -46 -52 -34 4 -86 -45 -86 -82 0 -31 32 -66 60 -66 25 0 55 47 71 113 6
27 20 71 30 99 19 52 14 99 -8 77z m-53 -198 c-4 -15 -13 -38 -20 -50 -10 -20
-13 -21 -33 -8 -12 8 -23 21 -25 30 -5 22 33 57 62 57 22 0 24 -3 16 -29z"/>
<path d="M4167 4643 c-8 -16 -20 -45 -26 -65 -9 -26 -19 -38 -34 -40 -23 -3
-26 -24 -3 -22 9 1 11 -15 8 -57 -3 -40 -1 -59 7 -59 6 0 11 13 11 29 0 16 3
42 6 59 6 28 10 30 60 37 65 8 71 25 9 25 -53 0 -55 7 -21 73 17 34 20 47 10
47 -7 0 -20 -12 -27 -27z"/>
<path d="M4027 4654 c-14 -14 -6 -24 19 -24 16 0 24 5 22 13 -5 14 -31 21 -41
11z"/>
<path d="M5295 4650 c-5 -8 -21 -51 -36 -95 -15 -44 -30 -88 -34 -97 -13 -32
19 -19 45 17 14 19 27 35 30 35 3 0 3 -22 2 -50 -3 -37 0 -50 10 -50 9 0 14
19 16 70 1 39 0 70 -4 70 -3 0 -14 -5 -25 -10 -23 -13 -23 -16 -3 49 16 54 15
87 -1 61z"/>
<path d="M3113 4610 c-14 -36 -20 -40 -50 -40 -18 0 -33 -5 -33 -11 0 -7 9 -9
21 -6 27 7 33 -11 19 -63 -9 -35 -9 -46 5 -67 13 -19 22 -23 38 -18 34 9 51
13 65 14 6 1 12 6 12 11 0 7 -18 8 -50 4 -47 -6 -50 -5 -50 16 0 12 5 39 11
59 10 34 13 36 49 35 22 -1 47 4 57 12 16 12 12 13 -35 14 -51 0 -52 1 -41 23
7 12 16 25 22 28 11 8 1 29 -14 29 -6 0 -18 -18 -26 -40z"/>
<path d="M3262 4556 c-35 -150 -29 -169 26 -85 18 28 38 48 45 46 7 -2 12 -22
12 -45 0 -22 3 -43 7 -47 10 -10 20 36 16 76 -2 28 -7 35 -29 37 -19 2 -33 -5
-49 -25 -17 -21 -21 -23 -17 -8 3 11 11 40 17 65 6 25 13 53 16 63 3 10 0 17
-9 17 -9 0 -21 -30 -35 -94z"/>
<path d="M2205 4619 c-4 -6 -5 -12 -2 -15 7 -7 37 7 37 17 0 13 -27 11 -35 -2z"/>
<path d="M8847 4606 c-6 -16 2 -28 14 -20 12 7 11 34 0 34 -5 0 -11 -6 -14
-14z"/>
<path d="M1950 4600 c0 -5 7 -10 15 -10 8 0 15 5 15 10 0 6 -7 10 -15 10 -8 0
-15 -4 -15 -10z"/>
<path d="M10230 4590 c-23 -23 -54 -88 -65 -138 -11 -53 12 -37 31 21 22 67
50 107 76 107 11 0 18 5 16 13 -8 21 -36 19 -58 -3z"/>
<path d="M6763 4592 c-7 -4 -19 -24 -28 -45 -27 -64 2 -127 59 -127 33 0 76
24 76 42 0 6 -11 3 -25 -6 -33 -22 -72 -20 -85 3 -12 23 -13 52 -2 50 40 -7
79 34 67 71 -6 20 -39 27 -62 12z m37 -26 c0 -15 -40 -49 -48 -41 -7 7 27 55
38 55 6 0 10 -6 10 -14z"/>
<path d="M1441 4564 c-12 -15 -21 -30 -21 -35 0 -4 -6 -14 -13 -21 -7 -7 -19
-49 -26 -93 -17 -106 -16 -103 -24 -111 -12 -12 -8 -34 7 -34 9 0 18 20 26 53
19 85 20 87 43 87 50 0 127 75 127 123 0 26 -37 57 -69 57 -20 0 -36 -9 -50
-26z m83 -16 c14 -19 14 -24 0 -48 -17 -28 -72 -70 -92 -70 -26 0 -6 82 30
128 16 19 45 14 62 -10z"/>
<path d="M4525 4576 c-11 -8 -24 -12 -30 -10 -11 5 -45 -86 -45 -119 0 -31 19
-17 30 21 5 20 19 48 30 62 l20 25 -6 -47 c-7 -50 3 -61 26 -32 8 8 22 20 32
25 16 9 18 7 12 -15 -14 -58 47 -88 97 -47 32 26 20 35 -19 15 -45 -22 -55
-11 -47 52 3 30 3 54 -1 54 -4 0 -22 -12 -41 -26 l-33 -25 6 40 c7 44 0 50
-31 27z"/>
<path d="M7463 4570 c-37 -22 -40 -35 -16 -85 20 -42 12 -53 -29 -37 -34 13
-44 10 -33 -8 12 -20 53 -30 80 -20 30 11 32 32 5 75 -19 30 -19 33 -2 47 25
22 48 28 60 16 6 -6 12 -6 17 2 8 13 -11 30 -35 30 -8 0 -30 -9 -47 -20z"/>
<path d="M9642 4574 c-28 -19 -52 -65 -52 -98 0 -49 54 -73 96 -41 18 14 17
15 -16 13 -73 -4 -80 28 -15 60 44 21 51 34 39 66 -8 20 -23 20 -52 0z m28
-24 c0 -5 -9 -14 -21 -20 -19 -11 -20 -10 -9 9 11 22 30 29 30 11z"/>
<path d="M4326 4559 c-14 -11 -26 -26 -26 -34 0 -7 -4 -15 -10 -17 -15 -5 10
-86 28 -93 9 -3 18 -1 20 4 2 6 8 8 14 5 13 -8 59 16 52 27 -3 5 -20 2 -39 -5
-18 -8 -36 -12 -39 -8 -13 12 -5 41 13 47 36 11 71 46 71 71 0 20 -5 24 -29
24 -15 0 -40 -9 -55 -21z m52 -18 c-13 -22 -58 -46 -58 -32 0 11 49 51 61 51
5 0 4 -9 -3 -19z"/>
<path d="M5139 4560 c-48 -25 -53 -43 -24 -79 14 -16 25 -36 25 -45 0 -24 -45
-20 -64 7 l-16 22 2 -30 c3 -27 7 -30 41 -33 67 -6 86 31 42 82 -14 16 -25 31
-25 34 0 12 38 31 63 32 17 0 27 5 27 15 0 20 -27 18 -71 -5z"/>
<path d="M9326 4547 c-27 -47 -46 -106 -37 -112 5 -2 21 14 37 36 32 46 74 77
54 39 -22 -42 4 -44 60 -5 l51 36 -2 -28 c-4 -57 0 -73 21 -73 10 0 24 9 31
21 10 19 9 20 -12 14 -21 -7 -22 -6 -15 44 8 60 0 64 -56 26 -45 -30 -48 -31
-41 -5 4 15 0 20 -15 20 -12 0 -24 -4 -27 -10 -3 -5 -11 -10 -17 -10 -7 0 -7
4 1 13 10 13 6 27 -8 27 -3 0 -14 -15 -25 -33z"/>
<path d="M1625 4562 c-12 -8 -17 -25 -23 -74 -3 -30 0 -38 18 -48 19 -10 27
-9 49 7 36 27 39 66 7 98 -26 26 -35 29 -51 17z m50 -53 c7 -22 -10 -49 -32
-49 -20 0 -25 22 -14 53 12 30 36 28 46 -4z"/>
<path d="M1776 4549 c-33 -26 -33 -39 4 -74 17 -16 30 -32 30 -37 0 -10 -34
-11 -44 -1 -10 11 -36 12 -36 2 0 -5 11 -16 25 -25 21 -14 31 -15 50 -6 32 15
32 42 0 72 -14 13 -25 30 -25 37 0 16 39 33 58 26 6 -3 12 2 12 11 0 23 -42
20 -74 -5z"/>
<path d="M3454 4555 c-23 -15 -54 -73 -54 -99 0 -24 37 -56 65 -56 31 0 95 31
77 38 -7 2 -26 -1 -43 -7 -72 -25 -95 39 -26 72 42 19 57 44 36 58 -20 12 -31
11 -55 -6z m36 -20 c0 -2 -6 -5 -13 -8 -8 -3 -14 1 -14 8 0 7 6 11 14 8 7 -3
13 -6 13 -8z"/>
<path d="M9771 4521 c-37 -86 -24 -107 28 -43 22 26 30 32 31 20 0 -25 15 -22
45 10 l26 27 -1 -30 c-4 -55 -1 -65 20 -65 11 0 20 5 20 10 0 6 -5 10 -11 10
-8 0 -9 17 -4 55 7 57 2 64 -30 41 -17 -12 -21 -12 -31 2 -11 15 -14 15 -33
-2 -19 -17 -21 -17 -21 -3 0 32 -18 17 -39 -32z"/>
<path d="M2398 4502 c-9 -32 -20 -66 -24 -75 -12 -31 20 -18 45 18 30 44 41
44 41 0 0 -47 26 -61 75 -41 19 8 35 22 35 31 0 15 -3 15 -29 -1 -16 -9 -36
-14 -46 -10 -14 5 -16 14 -11 51 6 39 5 45 -10 45 -10 0 -26 -8 -37 -17 -19
-17 -19 -17 -12 7 4 14 10 31 12 38 3 6 -1 12 -8 12 -8 0 -21 -24 -31 -58z"/>
<path d="M7908 4520 c-26 -29 -38 -50 -38 -70 0 -38 16 -39 23 -2 10 48 44 82
83 82 24 0 34 5 34 15 0 10 -10 15 -32 15 -23 0 -40 -10 -70 -40z"/>
<path d="M8043 4542 c-27 -21 -46 -68 -38 -93 9 -26 62 -52 91 -45 34 9 30 26
-5 26 -16 0 -36 3 -45 6 -24 9 -19 34 7 34 37 0 67 27 67 61 0 25 -4 29 -27
29 -16 0 -38 -8 -50 -18z m57 -17 c0 -15 -38 -35 -63 -35 -14 1 39 50 54 50 5
0 9 -7 9 -15z"/>
<path d="M8927 4549 c-9 -5 -21 -8 -26 -4 -5 3 -21 -15 -34 -40 -33 -59 -17
-66 30 -14 l38 42 5 -29 c4 -23 11 -30 33 -32 15 -2 27 1 27 7 0 6 -9 11 -21
11 -15 0 -19 5 -14 19 6 19 -3 51 -14 51 -3 0 -14 -5 -24 -11z"/>
<path d="M10021 4525 c-48 -55 -41 -105 15 -105 64 0 98 76 54 120 -27 27 -33
26 -69 -15z m65 -20 c9 -24 -24 -67 -48 -63 -30 4 -32 20 -8 51 24 30 48 35
56 12z"/>
<path d="M10400 4551 c0 -6 -15 -35 -34 -67 -31 -52 -35 -55 -45 -36 -6 12
-11 32 -11 46 0 14 -4 26 -10 26 -15 0 -12 -73 4 -96 13 -18 9 -28 -50 -119
-67 -104 -70 -110 -55 -119 5 -3 18 11 29 33 11 21 51 85 88 142 127 197 128
199 99 199 -8 0 -15 -4 -15 -9z"/>
<path d="M1936 4541 c-4 -6 -10 -33 -13 -61 -5 -42 -3 -50 10 -50 10 0 14 6
11 14 -3 8 -1 31 5 52 10 37 1 68 -13 45z"/>
<path d="M2255 4530 c-11 -12 -19 -37 -19 -63 -1 -35 2 -42 19 -45 11 -1 35 7
53 18 24 15 32 27 32 47 -1 58 -49 82 -85 43z m59 -24 c9 -14 6 -22 -18 -42
-39 -35 -56 -18 -33 32 18 37 33 40 51 10z"/>
<path d="M3980 4518 c-21 -34 -27 -93 -11 -102 13 -9 39 3 45 21 5 12 1 14
-14 10 -13 -3 -20 0 -20 9 0 21 29 74 40 74 6 0 10 5 10 10 0 22 -32 8 -50
-22z"/>
<path d="M5572 4491 c-23 -33 -51 -62 -62 -66 -25 -8 -26 -25 -2 -25 10 0 29
11 42 25 24 25 24 25 32 5 10 -27 30 -25 66 5 29 24 30 24 35 5 10 -37 24 -21
30 33 3 28 2 55 -2 59 -3 4 -22 -14 -41 -39 -45 -60 -64 -68 -57 -22 3 19 8
44 12 57 13 39 -10 24 -53 -37z"/>
<path d="M7745 4519 c-31 -38 -29 -65 8 -92 l27 -21 28 21 c17 13 28 31 30 51
7 73 -46 96 -93 41z m66 -13 c15 -32 -4 -68 -34 -64 -28 4 -35 43 -11 69 23
25 32 24 45 -5z"/>
<path d="M8794 4513 c-24 -59 -29 -93 -13 -93 8 0 19 18 26 43 6 23 14 52 18
65 12 38 -13 25 -31 -15z"/>
<path d="M2160 4498 c-6 -24 -13 -49 -15 -55 -2 -7 2 -13 9 -13 7 0 16 13 19
29 3 16 9 40 13 55 4 16 2 26 -5 26 -5 0 -15 -19 -21 -42z"/>
<path d="M5407 4500 c-49 -70 -25 -118 44 -90 34 15 46 47 32 93 -13 47 -42
46 -76 -3z m63 -27 c0 -28 -46 -61 -62 -45 -8 8 -4 22 17 52 29 42 45 40 45
-7z"/>
<path d="M2343 4143 c-20 -35 -35 -81 -63 -191 -11 -43 -11 -43 -53 -40 -24 1
-41 -2 -40 -7 2 -6 20 -11 41 -13 l39 -3 -13 -76 c-7 -41 -16 -84 -19 -94 -4
-13 -2 -19 8 -19 11 0 18 20 27 73 18 113 22 121 60 127 18 3 35 11 38 18 3
10 -4 12 -32 7 -42 -8 -43 -6 -21 75 17 65 55 150 67 150 4 0 8 7 8 15 0 28
-26 15 -47 -22z"/>
<path d="M6617 4113 c-2 -5 -19 -54 -36 -110 -25 -82 -35 -102 -51 -105 -22
-3 -24 -24 -3 -22 9 1 8 -7 -2 -33 -18 -43 -18 -43 -2 -43 7 0 19 19 27 43 14
38 18 42 55 47 38 5 39 6 17 18 -12 7 -27 10 -32 7 -16 -10 -12 7 20 98 17 47
30 90 30 96 0 12 -17 15 -23 4z"/>
<path d="M2626 4058 c-14 -115 -15 -117 -50 -120 -36 -4 -38 -22 -2 -26 23 -3
24 -6 19 -58 -8 -73 11 -71 23 3 8 49 12 58 34 63 24 6 42 40 21 40 -6 0 -11
-4 -11 -10 0 -5 -7 -10 -16 -10 -12 0 -15 6 -10 23 3 12 9 50 13 85 7 77 -11
86 -21 10z"/>
<path d="M9833 4063 c-20 -57 -85 -221 -93 -235 -26 -47 11 -74 75 -57 41 12
61 44 51 83 -7 28 -25 33 -58 15 -11 -6 -21 -9 -23 -7 -2 2 10 37 26 78 42
105 49 129 38 135 -5 4 -12 -2 -16 -12z m3 -248 c-14 -21 -76 -34 -76 -16 0 6
17 22 37 35 41 28 63 17 39 -19z"/>
<path d="M1555 4059 c-60 -14 -93 -46 -88 -85 6 -36 -23 -185 -37 -194 -5 -3
-5 -11 1 -20 8 -13 11 -13 20 3 6 9 15 15 20 11 33 -20 139 38 139 76 0 10
-14 30 -32 45 -25 21 -29 28 -17 36 8 5 17 9 21 9 3 0 20 14 37 31 39 38 41
76 5 89 -14 6 -26 10 -27 9 -1 -1 -20 -5 -42 -10z m71 -31 c10 -15 -62 -78
-98 -85 -40 -8 -35 -24 17 -56 40 -23 44 -29 35 -47 -14 -27 -45 -42 -78 -38
-22 2 -27 8 -25 28 14 164 15 165 42 187 28 25 95 32 107 11z"/>
<path d="M2896 4023 c-3 -27 -22 -84 -41 -127 -19 -44 -32 -83 -29 -88 3 -4
27 10 53 32 26 22 50 40 54 40 4 0 7 -22 7 -50 0 -60 15 -66 24 -10 11 71 -18
97 -70 64 l-25 -17 22 54 c28 71 40 149 24 149 -7 0 -15 -20 -19 -47z"/>
<path d="M3876 4059 c-2 -8 -8 -31 -13 -53 -7 -32 -14 -40 -42 -50 -45 -15
-54 -38 -12 -30 35 7 35 5 20 -50 -7 -25 -7 -42 -1 -48 11 -11 12 -7 32 70 9
35 15 42 35 42 16 0 25 6 25 16 0 11 -6 14 -20 9 -23 -7 -25 3 -10 55 6 22 6
38 0 44 -6 6 -11 4 -14 -5z"/>
<path d="M4255 4050 c-3 -5 -3 -14 0 -20 3 -5 3 -25 -1 -44 -5 -28 -12 -36
-35 -41 -36 -8 -38 -25 -3 -25 28 0 29 -3 8 -85 -5 -21 -4 -27 7 -23 8 3 19
29 26 58 11 50 24 70 49 70 17 0 37 27 25 34 -5 4 -12 2 -16 -4 -3 -5 -13 -10
-21 -10 -10 0 -14 12 -14 44 0 44 -12 66 -25 46z"/>
<path d="M8396 4048 c-3 -7 -7 -47 -9 -89 -5 -73 -26 -135 -51 -151 -21 -14
-55 -8 -66 11 -16 32 -12 40 36 70 44 29 46 53 2 30 -83 -43 -91 -115 -15
-142 29 -11 67 14 89 57 22 42 41 213 26 222 -5 3 -10 -1 -12 -8z"/>
<path d="M9400 4053 c0 -5 -20 -70 -44 -146 -24 -75 -40 -140 -35 -143 11 -6
18 10 63 151 19 61 38 118 41 128 5 12 2 17 -9 17 -9 0 -16 -3 -16 -7z"/>
<path d="M3955 3978 c-10 -40 -24 -86 -32 -102 -10 -19 -11 -32 -5 -38 7 -7
15 -1 25 19 9 16 23 36 32 43 15 13 16 11 13 -20 -4 -46 18 -50 25 -4 7 41 -7
68 -31 59 -11 -4 -13 0 -9 17 15 63 19 98 9 98 -5 0 -18 -33 -27 -72z"/>
<path d="M7767 4043 c-2 -5 -7 -24 -11 -44 -4 -20 -18 -64 -31 -98 -40 -98
-30 -123 18 -46 19 29 36 45 49 45 16 0 19 -4 13 -22 -15 -49 -17 -68 -8 -68
14 0 33 46 33 80 0 33 -27 47 -58 31 -18 -10 -18 -8 -5 37 8 26 19 55 24 64 5
10 9 20 9 23 0 8 -28 6 -33 -2z"/>
<path d="M9480 4023 c-38 -83 -75 -274 -50 -258 6 3 10 16 10 28 0 18 28 116
67 240 9 28 -13 20 -27 -10z"/>
<path d="M6465 4020 c-8 -13 4 -32 16 -25 12 8 12 35 0 35 -6 0 -13 -4 -16
-10z"/>
<path d="M7630 4012 c0 -33 -24 -72 -45 -72 -31 0 -65 -11 -65 -21 0 -5 14 -9
30 -9 30 0 30 -1 24 -41 -6 -36 -4 -44 17 -60 26 -20 59 -25 59 -9 0 5 -11 12
-24 16 -32 8 -39 29 -24 70 10 28 17 33 47 36 20 2 34 7 31 13 -3 6 -15 9 -27
7 -22 -3 -22 -2 -8 32 19 45 19 56 0 56 -8 0 -15 -8 -15 -18z"/>
<path d="M6705 4000 c-3 -6 1 -13 10 -16 19 -8 30 0 20 15 -8 14 -22 14 -30 1z"/>
<path d="M9276 3994 c-8 -21 -1 -28 19 -20 9 3 15 11 13 18 -7 19 -25 20 -32
2z"/>
<path d="M3060 3991 c0 -5 7 -11 15 -15 9 -3 15 0 15 9 0 8 -7 15 -15 15 -8 0
-15 -4 -15 -9z"/>
<path d="M9957 3930 c-62 -54 -74 -124 -27 -147 42 -19 150 10 126 34 -4 5
-14 -1 -22 -11 -8 -11 -14 -15 -14 -10 0 5 -18 8 -41 6 -22 -3 -45 0 -51 6
-19 19 1 48 39 58 43 10 68 46 52 76 -13 25 -23 23 -62 -12z m32 -31 c-8 -5
-21 -9 -29 -9 -10 1 -7 7 10 21 17 14 26 17 28 9 3 -7 -2 -16 -9 -21z"/>
<path d="M2734 3939 c-25 -9 -64 -68 -64 -96 0 -10 5 -24 12 -31 15 -15 72
-16 99 -1 31 16 13 28 -25 17 -39 -12 -66 -6 -66 16 0 23 50 76 71 76 10 0 19
4 19 9 0 14 -23 19 -46 10z"/>
<path d="M4775 3918 c-15 -18 -25 -26 -22 -17 10 32 -8 41 -36 19 l-27 -21 0
20 c0 13 -6 21 -16 21 -11 0 -14 -5 -10 -16 3 -8 -4 -38 -15 -65 -27 -61 -16
-76 20 -30 61 80 61 80 49 39 -16 -54 -2 -59 37 -13 l34 40 -11 -44 c-12 -48
1 -68 34 -50 22 12 24 34 3 25 -19 -7 -19 10 0 64 24 67 3 81 -40 28z"/>
<path d="M4913 3928 c-42 -47 -57 -110 -31 -136 17 -17 50 -15 74 3 18 15 18
16 -11 14 -48 -2 -55 0 -55 16 0 8 8 15 19 15 26 0 71 38 71 59 0 16 -29 51
-42 51 -2 0 -14 -10 -25 -22z m42 -17 c6 -10 -32 -51 -47 -51 -12 0 -10 8 8
35 17 26 29 31 39 16z"/>
<path d="M9015 3943 c-11 -3 -26 -10 -32 -15 -23 -19 -4 -26 34 -13 21 7 40
12 42 10 2 -2 -13 -23 -33 -46 -57 -68 -49 -79 41 -53 15 4 23 1 27 -14 19
-57 86 -12 86 58 0 28 -4 40 -14 40 -11 0 -16 -14 -18 -47 -3 -53 -23 -68 -38
-28 -10 27 -18 28 -64 9 -14 -5 -10 5 17 40 20 27 34 52 31 57 -5 9 -45 10
-79 2z"/>
<path d="M1761 3918 c-5 -13 -17 -43 -27 -67 l-17 -44 -23 52 c-13 29 -28 50
-33 47 -10 -6 18 -89 36 -107 8 -8 3 -28 -18 -73 -28 -60 -37 -96 -21 -96 4 0
27 46 51 103 69 160 82 195 71 202 -6 3 -14 -4 -19 -17z"/>
<path d="M2406 3919 c-48 -38 -71 -110 -44 -137 20 -20 98 -13 98 9 0 5 -19 8
-42 7 -39 -3 -43 -1 -46 21 -3 20 -1 23 19 18 31 -8 79 27 79 58 0 37 -32 49
-64 24z m44 -17 c0 -16 -39 -44 -50 -37 -8 5 -6 13 6 26 17 19 44 26 44 11z"/>
<path d="M5981 3921 c-30 -30 -47 -68 -75 -170 -24 -90 -26 -111 -6 -111 13 0
45 65 59 118 9 30 17 42 31 42 29 0 90 63 90 93 0 46 -64 63 -99 28z m70 -17
c11 -14 8 -21 -24 -50 -20 -19 -41 -34 -46 -34 -15 0 6 73 25 87 23 17 29 16
45 -3z"/>
<path d="M8467 3908 c-14 -18 -28 -43 -31 -54 -9 -28 10 -69 39 -84 25 -14 67
-10 72 6 2 7 -6 10 -22 6 -25 -4 -65 20 -65 40 0 5 14 21 31 35 22 18 29 33
27 51 -4 37 -23 37 -51 0z m33 -12 c0 -2 -8 -10 -17 -17 -16 -13 -17 -12 -4 4
13 16 21 21 21 13z"/>
<path d="M4065 3904 c-29 -31 -31 -47 -11 -63 11 -9 20 -9 35 -2 17 9 20 8 23
-11 5 -33 28 -35 26 -1 -1 15 1 38 6 51 5 16 4 22 -7 22 -8 0 -17 7 -21 15 -8
22 -24 18 -51 -11z m55 -14 c0 -12 -40 -34 -47 -26 -9 8 17 36 33 36 8 0 14
-4 14 -10z"/>
<path d="M5137 3903 c-26 -27 -27 -27 -27 -5 0 25 -15 29 -36 7 -8 -8 -21 -12
-29 -9 -16 7 -35 -32 -35 -72 0 -24 30 -36 30 -11 0 6 9 23 20 37 17 23 19 23
14 4 -9 -35 14 -38 46 -5 l30 29 0 -38 c0 -39 16 -55 40 -40 9 6 8 10 -5 17
-14 8 -16 18 -10 51 11 70 4 77 -38 35z"/>
<path d="M5246 3885 c-30 -73 -3 -103 59 -65 47 29 47 61 -1 89 -19 12 -36 21
-37 21 -1 0 -10 -20 -21 -45z m63 -9 c10 -11 7 -17 -11 -30 -28 -20 -49 -21
-43 -1 3 8 7 22 10 30 6 19 29 19 44 1z"/>
<path d="M6294 3907 c-23 -20 -25 -26 -15 -46 14 -25 1 -51 -25 -51 -8 0 -14
-4 -14 -10 0 -21 50 -10 65 14 14 21 14 28 3 46 -11 18 -10 23 6 36 11 8 26
14 33 14 7 0 13 5 13 10 0 18 -38 10 -66 -13z"/>
<path d="M6902 3869 c-18 -34 -29 -65 -26 -70 2 -4 33 14 67 42 l62 50 3 -35
c3 -33 23 -52 43 -40 15 9 10 24 -7 24 -13 0 -15 7 -10 35 9 48 -13 56 -60 20
-36 -28 -57 -28 -34 0 9 10 10 19 3 26 -6 6 -20 -12 -41 -52z"/>
<path d="M7886 3899 c-34 -40 -33 -64 3 -100 32 -31 45 -34 87 -19 35 14 23
25 -22 21 -53 -4 -90 40 -46 56 31 11 50 34 45 54 -8 28 -38 23 -67 -12z m44
-3 c0 -2 -7 -7 -16 -10 -8 -3 -12 -2 -9 4 6 10 25 14 25 6z"/>
<path d="M8724 3921 c-46 -11 -50 -16 -63 -66 -6 -25 -15 -45 -20 -45 -10 0
-31 54 -31 81 0 11 -4 19 -10 19 -20 0 -11 -78 13 -105 20 -24 24 -25 43 -11
12 9 25 31 28 50 7 39 15 46 58 55 16 3 29 10 29 16 1 13 -10 14 -47 6z"/>
<path d="M1207 3913 c-11 -10 -8 -53 3 -53 10 0 30 32 30 49 0 12 -23 15 -33
4z"/>
<path d="M5433 3902 c-21 -12 -35 -29 -43 -56 -16 -53 3 -72 23 -23 23 53 52
79 82 71 27 -7 35 10 9 20 -23 9 -35 7 -71 -12z"/>
<path d="M6135 3875 c-21 -36 -24 -48 -15 -64 15 -28 34 -26 72 8 29 26 31 32
23 56 -6 15 -20 32 -32 36 -20 7 -26 2 -48 -36z m60 -5 c3 -5 -3 -18 -15 -30
-34 -34 -52 -22 -30 21 11 20 35 25 45 9z"/>
<path d="M6661 3868 c-19 -39 -20 -58 -1 -58 4 0 15 21 24 47 19 55 19 53 7
53 -5 0 -18 -19 -30 -42z"/>
<path d="M9236 3898 c-2 -7 -9 -28 -15 -47 -14 -42 -14 -41 2 -41 16 0 39 88
26 96 -5 3 -11 -1 -13 -8z"/>
<path d="M3030 3855 c0 -25 5 -45 10 -45 6 0 10 20 10 45 0 25 -4 45 -10 45
-5 0 -10 -20 -10 -45z"/>
<path d="M3111 3867 c-40 -30 -59 -62 -46 -75 3 -3 23 14 44 38 43 50 61 47
61 -10 0 -21 5 -42 11 -45 16 -10 17 -4 12 53 -8 72 -27 82 -82 39z"/>
<path d="M3252 3873 c-46 -66 -30 -104 29 -70 l28 15 6 -42 c11 -68 4 -89 -30
-98 -54 -14 -73 -73 -37 -118 24 -30 47 -18 72 38 12 26 26 55 31 64 5 11 5
19 -1 23 -6 3 -10 26 -10 51 0 59 -19 134 -36 141 -8 3 -11 9 -8 14 14 23 -27
6 -44 -18z m38 -21 c0 -5 -9 -17 -20 -27 -22 -20 -26 -14 -10 16 11 19 30 26
30 11z m20 -215 c0 -24 -25 -67 -39 -67 -19 0 -22 52 -5 71 23 26 44 24 44 -4z"/>
<path d="M6751 3865 c-36 -42 -38 -55 -11 -80 34 -31 100 1 100 48 0 28 -26
67 -45 67 -7 0 -27 -16 -44 -35z m59 -16 c14 -26 -3 -49 -36 -49 -28 0 -31 16
-8 48 19 27 30 28 44 1z"/>
<path d="M5626 3861 c-22 -42 -42 -45 -56 -10 -13 31 -30 39 -30 14 0 -22 28
-75 40 -75 5 0 -9 -38 -30 -84 -45 -96 -63 -169 -38 -148 9 7 19 28 22 48 4
19 34 88 67 153 32 66 59 122 59 125 0 17 -21 2 -34 -23z"/>
<path d="M6382 3868 c-17 -17 -15 -48 3 -48 10 0 15 10 15 30 0 34 -1 35 -18
18z"/>
<path d="M3717 3750 c-35 -30 -67 -101 -67 -147 0 -18 -5 -23 -26 -23 -16 0
-24 -5 -21 -12 2 -7 14 -13 26 -12 27 1 27 -16 0 -50 -15 -19 -24 -24 -33 -16
-7 5 -16 7 -19 3 -11 -10 13 -33 34 -33 21 0 59 54 59 83 0 11 13 24 35 33 19
8 35 19 35 25 0 6 -6 9 -12 6 -59 -21 -60 -21 -53 15 13 58 45 110 76 121 16
6 28 16 26 21 -7 20 -26 16 -60 -14z"/>
<path d="M2401 3680 c-31 -73 -36 -80 -63 -80 -15 0 -28 -4 -28 -10 0 -5 11
-10 24 -10 l24 0 -17 -45 c-12 -34 -13 -49 -5 -63 13 -20 74 -28 104 -12 33
18 14 28 -30 16 -44 -11 -63 0 -53 33 18 58 27 71 47 71 11 0 28 5 36 10 12 8
9 10 -12 10 -16 0 -28 4 -28 9 0 5 14 39 30 76 34 77 34 75 18 75 -7 0 -28
-36 -47 -80z"/>
<path d="M7221 3743 c-26 -45 -29 -47 -44 -34 -18 14 -30 1 -21 -23 10 -25 41
-19 66 14 23 32 32 60 17 60 -4 0 -13 -8 -18 -17z"/>
<path d="M4082 3722 c-6 -15 -13 -50 -16 -79 -9 -87 -59 -164 -88 -135 -8 8
-1 21 26 48 50 50 40 67 -13 19 -31 -29 -41 -44 -39 -63 5 -40 32 -50 65 -26
38 28 63 82 76 164 6 39 14 70 19 70 13 0 9 17 -6 23 -9 4 -18 -4 -24 -21z"/>
<path d="M4546 3739 c-2 -8 -10 -36 -17 -64 -16 -65 -25 -75 -66 -75 -22 0
-32 -4 -27 -11 3 -6 17 -9 30 -6 33 6 36 -4 19 -53 -18 -52 -19 -63 -3 -58 7
3 20 29 28 58 12 43 21 55 40 60 30 7 39 30 11 30 -12 0 -21 1 -21 3 0 2 7 27
16 56 11 37 12 57 5 64 -7 7 -12 6 -15 -4z"/>
<path d="M1486 3709 c-5 -16 -19 -157 -20 -209 -1 -36 17 -50 19 -15 1 11 8
64 15 118 9 72 10 101 2 109 -8 8 -13 7 -16 -3z"/>
<path d="M4660 3706 c0 -7 -20 -55 -45 -105 -25 -51 -42 -97 -39 -103 5 -7 27
10 56 43 l49 54 -4 -53 c-3 -36 -1 -52 7 -49 6 2 12 28 14 57 3 57 -9 76 -40
59 -16 -9 -16 -6 2 33 22 47 25 78 10 78 -5 0 -10 -6 -10 -14z"/>
<path d="M5684 3689 c-7 -12 15 -31 28 -23 4 3 8 12 8 20 0 17 -26 19 -36 3z"/>
<path d="M5781 3645 c-12 -31 -21 -60 -21 -64 0 -5 -9 -7 -20 -4 -14 4 -20 0
-20 -11 0 -9 7 -16 16 -16 13 0 15 -7 11 -36 -7 -44 13 -42 25 3 7 25 14 32
45 38 45 8 55 13 48 25 -3 4 -22 4 -42 0 -21 -5 -38 -8 -39 -7 -2 1 6 27 17
57 22 62 23 70 10 70 -5 0 -19 -25 -30 -55z"/>
<path d="M3806 3682 c-3 -6 -1 -14 5 -17 15 -10 25 3 12 16 -7 7 -13 7 -17 1z"/>
<path d="M1286 3648 c-3 -17 -9 -62 -13 -100 -5 -57 -3 -71 12 -88 25 -28 36
-25 78 18 45 46 49 79 10 88 -22 6 -32 1 -56 -27 -27 -32 -29 -32 -24 -9 14
60 19 150 10 150 -6 0 -13 -14 -17 -32z m90 -109 c6 -10 -42 -69 -57 -69 -11
0 -5 24 14 53 19 29 32 34 43 16z"/>
<path d="M6135 3619 c-41 -26 -84 -109 -55 -109 6 0 14 8 17 18 4 9 20 31 35
47 25 27 28 28 28 9 0 -31 9 -35 43 -18 29 16 30 15 24 -6 -7 -26 27 -64 50
-56 8 3 21 6 29 6 8 0 14 6 14 13 0 9 -11 12 -35 9 -31 -4 -35 -1 -35 18 0 12
8 35 17 51 21 35 12 47 -19 25 -13 -9 -33 -23 -45 -32 -22 -16 -23 -16 -23 9
0 34 -9 38 -45 16z"/>
<path d="M5952 3610 c-38 -23 -66 -74 -58 -105 7 -27 44 -39 80 -25 26 9 36
30 15 30 -5 0 -7 -5 -3 -12 5 -8 2 -9 -10 -5 -10 4 -26 7 -37 7 -29 0 -23 18
10 25 33 7 86 58 77 74 -17 26 -43 30 -74 11z m46 -22 c-6 -17 -68 -53 -68
-39 0 15 41 51 58 51 7 0 12 -6 10 -12z"/>
<path d="M4771 3579 c-47 -64 -36 -129 22 -129 36 0 97 20 97 32 0 10 -21 8
-83 -7 -20 -5 -28 -2 -37 14 -10 19 -7 23 22 35 68 29 91 88 36 94 -22 3 -33
-5 -57 -39z m50 -11 c-29 -23 -48 -24 -30 0 20 25 32 32 43 25 5 -4 -1 -14
-13 -25z"/>
<path d="M3752 3559 c-14 -60 -15 -69 -4 -69 10 0 32 68 32 99 0 39 -16 22
-28 -30z"/>
<path d="M3838 3583 c-37 -40 -62 -83 -53 -91 4 -4 14 3 24 16 9 13 28 38 43
55 l27 32 1 -47 c0 -27 4 -48 9 -48 11 0 25 86 16 100 -11 18 -41 10 -67 -17z"/>
<path d="M1561 3561 c-29 -40 -27 -75 5 -100 31 -24 36 -25 87 -10 21 5 37 16
37 24 0 17 -26 20 -35 5 -12 -19 -73 -12 -85 10 -9 16 -8 20 4 20 23 0 80 55
72 68 -14 24 -64 13 -85 -17z m59 5 c0 -2 -12 -12 -27 -21 l-28 -18 19 21 c17
20 36 29 36 18z"/>
<path d="M2523 3582 c-7 -4 -19 -25 -28 -46 -12 -29 -13 -41 -4 -52 15 -19 64
-18 83 2 19 19 20 28 4 71 -12 32 -30 41 -55 25z m37 -76 c-16 -21 -50 -21
-50 0 0 8 5 25 11 36 l11 20 21 -20 c17 -17 18 -23 7 -36z"/>
<path d="M5625 3560 c-21 -40 -20 -80 3 -80 9 0 23 4 30 9 17 10 11 47 -6 44
-15 -4 -16 13 -2 22 13 8 13 35 0 35 -5 0 -16 -13 -25 -30z"/>
<path d="M1160 3561 c-47 -9 -57 -16 -75 -52 -27 -51 7 -85 58 -58 16 9 22 9
25 0 2 -6 10 -11 18 -11 17 0 17 1 4 35 -7 19 -7 24 2 19 8 -5 9 -2 5 9 -3 10
-2 17 3 17 6 0 10 11 10 25 0 14 -3 24 -7 24 -5 -1 -24 -4 -43 -8z m4 -43 c-3
-13 -11 -29 -16 -35 -14 -17 -48 -17 -48 0 0 23 31 57 51 57 16 0 19 -4 13
-22z"/>
<path d="M6400 3500 c0 -5 5 -10 10 -10 6 0 10 5 10 10 0 6 -4 10 -10 10 -5 0
-10 -4 -10 -10z"/>
<path d="M2234 3159 c-4 -7 -2 -15 4 -17 15 -5 10 -26 -36 -169 -36 -114 -37
-145 -3 -102 50 64 58 72 69 65 7 -4 12 -19 12 -34 0 -32 25 -72 46 -72 8 0
14 7 14 15 0 8 -6 15 -14 15 -10 0 -17 16 -22 45 -8 55 -30 72 -64 48 -22 -16
-23 -16 -16 3 19 50 47 167 44 186 -4 25 -23 35 -34 17z"/>
<path d="M1695 3113 c-8 -66 -35 -184 -47 -207 -6 -12 -6 -22 0 -28 6 -6 20 8
38 43 16 29 40 59 53 68 l24 16 -7 -40 c-19 -103 -19 -118 -6 -113 7 2 14 13
15 24 1 10 7 42 14 71 7 29 10 57 6 63 -10 16 -46 12 -68 -7 -19 -17 -19 -17
-12 32 10 67 13 83 20 106 4 13 2 19 -9 19 -10 0 -17 -15 -21 -47z"/>
<path d="M4000 3136 c0 -7 8 -24 18 -37 11 -13 19 -31 20 -39 0 -8 4 -34 8
-56 6 -41 5 -43 -44 -80 -28 -22 -51 -45 -51 -51 -1 -18 2 -17 56 17 26 17 50
30 53 30 4 0 11 -17 16 -37 10 -39 34 -57 34 -25 0 10 5 33 11 50 9 25 19 34
56 44 51 15 55 29 12 43 l-30 10 31 30 c28 27 40 55 23 55 -4 0 -24 -16 -44
-36 l-37 -36 -41 37 c-23 21 -49 51 -58 66 -18 31 -33 38 -33 15z m94 -115
c17 -19 17 -20 -3 -31 -19 -10 -21 -8 -21 20 0 35 1 36 24 11z"/>
<path d="M3005 3103 c-4 -21 -16 -77 -27 -125 -20 -88 -21 -147 -3 -138 6 3 9
9 7 14 -3 8 39 217 54 269 4 11 0 17 -10 17 -10 0 -17 -13 -21 -37z"/>
<path d="M3100 3111 c0 -11 -11 -68 -26 -127 -24 -103 -25 -154 -4 -154 6 0
10 18 10 39 0 22 11 87 25 145 30 125 29 116 10 116 -8 0 -15 -9 -15 -19z"/>
<path d="M1274 3069 l-26 -51 -54 4 c-64 5 -78 -17 -16 -27 20 -4 41 -8 46 -9
4 -1 -10 -25 -32 -53 -59 -74 -38 -80 47 -15 42 32 46 33 58 16 7 -10 13 -27
13 -38 0 -28 15 -50 28 -42 9 6 5 40 -12 92 -5 17 3 24 54 49 33 16 60 32 60
37 0 4 -25 8 -55 8 -52 0 -55 2 -55 24 0 31 -9 56 -21 56 -5 0 -20 -23 -35
-51z m26 -24 c0 -8 -4 -15 -10 -15 -5 0 -7 7 -4 15 4 8 8 15 10 15 2 0 4 -7 4
-15z m50 -35 c-8 -5 -19 -10 -25 -10 -5 0 -3 5 5 10 8 5 20 10 25 10 6 0 3 -5
-5 -10z m-50 -16 c0 -8 -5 -12 -10 -9 -6 4 -8 11 -5 16 9 14 15 11 15 -7z
m-30 -22 c0 -4 -9 -13 -21 -20 -19 -12 -19 -11 -9 8 10 19 30 28 30 12z"/>
<path d="M3470 3070 c0 -5 11 -10 25 -10 14 0 25 5 25 10 0 6 -11 10 -25 10
-14 0 -25 -4 -25 -10z"/>
<path d="M3230 3060 c0 -5 7 -10 15 -10 8 0 15 5 15 10 0 6 -7 10 -15 10 -8 0
-15 -4 -15 -10z"/>
<path d="M2066 3039 c-33 -26 -33 -51 0 -95 23 -30 25 -38 16 -59 -14 -30 -38
-33 -47 -5 -3 11 -13 20 -20 20 -21 0 2 -57 26 -63 27 -7 69 29 69 61 0 14
-12 44 -27 65 l-27 39 23 19 c13 11 30 19 38 19 8 0 11 5 8 10 -10 16 -30 12
-59 -11z"/>
<path d="M1877 3003 c-30 -33 -49 -91 -37 -113 13 -24 17 -24 53 -5 26 13 28
13 37 -10 5 -14 16 -25 25 -25 18 0 20 16 4 26 -7 4 -9 24 -6 55 3 27 2 51 -2
53 -4 3 -22 -15 -39 -39 -46 -66 -67 -60 -38 10 11 25 21 35 36 35 13 0 20 5
18 13 -7 19 -33 19 -51 0z"/>
<path d="M2671 2974 c-34 -29 -38 -51 -16 -93 23 -45 101 -68 113 -32 3 9 -2
11 -17 6 -43 -13 -100 48 -80 87 5 9 25 22 44 29 19 7 35 17 35 21 0 18 -50 6
-79 -18z"/>
<path d="M2836 2962 c-33 -48 -29 -82 10 -82 64 0 83 46 41 96 l-23 26 -28
-40z m54 -34 c0 -7 -33 -28 -44 -28 -10 0 -6 30 7 50 11 19 13 19 25 3 6 -9
12 -20 12 -25z"/>
<path d="M3712 2958 c-19 -19 -30 -26 -26 -15 13 34 -16 16 -36 -23 -39 -76
-20 -81 46 -10 26 28 50 50 53 50 4 0 5 -18 3 -40 -4 -34 -1 -41 20 -50 16 -8
32 -8 51 -1 39 15 33 28 -10 27 l-38 -1 3 48 c3 40 1 47 -15 47 -10 0 -33 -15
-51 -32z"/>
<path d="M3303 2959 c-8 -8 -10 -28 -6 -56 4 -29 2 -43 -6 -43 -6 0 -11 9 -11
20 0 11 -4 20 -10 20 -16 0 -12 -46 5 -60 13 -10 19 -9 36 6 17 15 20 26 14
62 -6 42 -6 44 19 40 14 -2 26 2 28 7 4 15 -55 18 -69 4z"/>
<path d="M3495 2945 c-44 -43 -22 -105 37 -105 30 0 46 16 54 57 13 67 -43 97
-91 48z m65 -14 c13 -26 -6 -71 -31 -71 -32 0 -41 34 -18 64 24 31 35 32 49 7z"/>
<path d="M3165 2916 c-16 -43 -14 -66 6 -66 5 0 9 10 9 23 0 12 7 35 15 51 18
35 18 36 1 36 -8 0 -22 -20 -31 -44z"/>
<path d="M3421 2926 c-15 -17 -19 -80 -6 -86 6 -3 11 11 13 30 2 19 8 40 13
47 6 7 6 13 1 17 -6 3 -15 0 -21 -8z"/>
</g>
</svg>
