<?xml version="1.0" standalone="no"?>
<!DOCTYPE svg PUBLIC "-//W3C//DTD SVG 20010904//EN"
 "http://www.w3.org/TR/2001/REC-SVG-20010904/DTD/svg10.dtd">
<svg version="1.0" xmlns="http://www.w3.org/2000/svg"
 width="1056.000000pt" height="864.000000pt" viewBox="0 0 1056.000000 864.000000"
 preserveAspectRatio="xMidYMid meet">

<g transform="translate(0.000000,864.000000) scale(0.100000,-0.100000)"
fill="#000000" stroke="none">
<path d="M10 8570 c0 -78 7 -84 64 -55 27 14 179 22 271 14 38 -4 311 10 348
17 16 3 41 19 57 34 28 28 65 31 81 8 3 -5 21 -11 40 -14 68 -10 74 -10 71 8
-3 16 9 17 153 14 130 -3 158 -7 168 -20 17 -23 63 -15 60 10 -1 18 -1 18 13
0 14 -20 14 -20 14 0 0 17 7 19 57 17 32 0 66 -4 76 -8 9 -4 25 -4 35 0 9 4
289 9 622 11 333 2 835 6 1115 9 281 3 560 4 620 3 61 -1 133 -2 160 -1 499 7
748 13 753 17 3 3 -1071 6 -2386 6 l-2392 0 0 -70z"/>
<path d="M4823 8633 c15 -2 39 -2 55 0 15 2 2 4 -28 4 -30 0 -43 -2 -27 -4z"/>
<path d="M4938 8633 c17 -2 47 -2 65 0 17 2 3 4 -33 4 -36 0 -50 -2 -32 -4z"/>
<path d="M1228 8573 c7 -3 16 -2 19 1 4 3 -2 6 -13 5 -11 0 -14 -3 -6 -6z"/>
<path d="M750 8550 c0 -5 7 -7 15 -4 8 4 15 8 15 10 0 2 -7 4 -15 4 -8 0 -15
-4 -15 -10z"/>
<path d="M8809 8412 c-1 -4 -1 -11 0 -16 1 -4 -10 -5 -24 -2 -21 5 -24 4 -16
-6 6 -7 20 -24 32 -38 11 -14 18 -20 15 -13 -4 6 -1 15 5 19 8 4 9 3 5 -5 -5
-8 2 -11 23 -9 17 1 28 4 26 6 -2 2 6 13 17 24 15 15 23 17 32 8 8 -9 8 -11
-3 -8 -28 6 -21 -20 9 -30 16 -6 30 -7 30 -2 0 5 7 16 17 25 13 13 14 18 3 25
-7 4 -9 13 -6 19 5 8 0 8 -16 2 -13 -5 -38 -7 -56 -5 -21 2 -32 -1 -32 -9 0
-8 -3 -9 -8 -1 -8 13 -51 25 -53 16z m36 -32 c3 -5 1 -10 -4 -10 -6 0 -11 5
-11 10 0 6 2 10 4 10 3 0 8 -4 11 -10z m110 -20 c3 -5 1 -10 -4 -10 -6 0 -11
5 -11 10 0 6 2 10 4 10 3 0 8 -4 11 -10z"/>
<path d="M8153 8400 c-2 -3 -26 -6 -51 -7 -131 -5 -235 -13 -244 -19 -6 -4
-14 -1 -18 5 -8 14 -39 14 -300 6 -96 -4 -256 -8 -355 -10 -99 -2 -196 -7
-216 -13 -35 -9 -99 -62 -75 -62 27 0 77 -32 72 -46 -3 -8 -1 -14 3 -14 5 0
11 5 13 12 3 7 14 3 31 -12 14 -13 24 -27 21 -31 -2 -4 0 -10 5 -13 5 -3 11 3
14 14 4 14 10 18 22 14 12 -5 13 -9 5 -14 -9 -5 -9 -9 -1 -14 6 -4 14 0 18 10
6 16 7 16 18 0 16 -21 42 -11 50 17 13 43 38 92 42 80 3 -7 11 -13 19 -13 8 0
17 -7 20 -15 4 -8 10 -13 15 -10 4 3 6 11 3 19 -7 19 36 34 70 25 17 -5 32 -6
35 -4 2 3 10 -3 17 -13 8 -10 13 -12 14 -4 0 6 5 12 11 12 6 0 8 -8 4 -19 -10
-31 16 -40 59 -21 22 10 33 20 27 24 -6 4 -16 4 -22 0 -7 -4 -10 -1 -7 7 3 9
15 13 31 11 15 -2 27 1 27 7 0 6 4 11 9 11 5 0 7 -10 3 -22 -3 -13 -1 -19 5
-15 6 4 14 0 17 -9 5 -14 7 -14 22 0 18 18 34 21 34 5 0 -5 -4 -8 -9 -4 -5 3
-12 1 -16 -5 -3 -5 3 -10 14 -10 14 0 21 6 21 20 0 11 5 20 10 20 6 0 10 -12
10 -26 0 -19 4 -25 18 -22 9 2 16 10 14 17 -1 6 3 11 10 10 37 -4 58 2 59 19
0 16 1 16 12 -1 29 -45 47 -59 64 -52 17 6 17 7 1 19 -10 7 -15 16 -12 19 10
9 44 -16 45 -33 0 -9 4 -6 9 7 6 15 15 20 29 16 22 -6 30 12 9 20 -10 3 -10 8
1 18 8 8 11 9 8 3 -4 -6 1 -18 11 -26 31 -27 42 -30 42 -13 0 10 -6 15 -13 12
-8 -3 -14 1 -14 9 0 8 5 12 11 9 6 -3 19 -8 29 -11 9 -4 17 -13 17 -20 0 -8 5
-14 11 -14 7 0 9 11 6 27 -5 26 -4 26 9 8 8 -10 14 -14 14 -7 0 6 7 9 15 6 31
-12 66 39 40 58 -6 5 -6 8 2 8 6 0 15 -4 18 -10 3 -5 17 -10 30 -10 25 0 46
-26 38 -48 -3 -6 -10 -9 -16 -5 -7 3 -9 2 -4 -2 11 -12 99 -14 120 -3 13 7 25
5 43 -7 26 -17 31 -10 11 15 -7 9 -24 15 -39 15 -17 -1 -28 5 -31 16 -3 12 0
16 10 12 10 -4 13 1 9 21 -3 14 0 26 5 26 5 0 9 -9 9 -21 0 -14 5 -19 15 -16
8 4 17 2 20 -3 4 -6 11 -10 16 -10 6 0 8 4 4 9 -3 5 -1 12 4 16 21 12 -2 35
-35 35 -19 0 -34 3 -34 8 0 8 -129 10 -137 2z m64 -45 c-4 -8 -2 -17 3 -20 17
-10 11 -45 -7 -45 -9 0 -13 3 -10 7 4 3 2 12 -4 20 -7 8 -8 13 -1 13 5 0 8 9
5 20 -3 12 0 20 7 20 7 0 10 -7 7 -15z m-147 -35 c0 -5 -7 -10 -15 -10 -8 0
-15 5 -15 10 0 6 7 10 15 10 8 0 15 -4 15 -10z m-206 -14 c-10 -8 -21 -12 -24
-10 -5 6 21 24 34 24 6 0 1 -6 -10 -14z m-714 -31 c10 -12 10 -15 -4 -15 -9 0
-16 7 -16 15 0 8 2 15 4 15 2 0 9 -7 16 -15z m-110 -15 c0 -5 -5 -10 -11 -10
-5 0 -7 5 -4 10 3 6 8 10 11 10 2 0 4 -4 4 -10z m85 -11 c3 -4 13 -5 21 -2 12
4 15 1 12 -13 -4 -24 -38 -32 -38 -9 0 8 -11 20 -25 25 -14 5 -25 11 -25 13 0
7 50 -5 55 -14z"/>
<path d="M8411 8383 c-12 -16 -18 -20 -15 -10 3 9 1 17 -5 17 -6 0 -11 -9 -11
-21 0 -14 6 -19 18 -17 9 1 23 -1 29 -5 9 -6 11 -3 6 9 -5 14 -2 16 18 9 13
-4 34 -7 47 -7 12 0 22 -4 22 -9 0 -5 14 -9 31 -9 16 0 28 4 25 9 -3 5 1 12 9
15 9 3 18 -1 21 -9 4 -8 10 -12 15 -9 5 3 7 10 4 15 -4 5 -1 9 4 9 6 0 11 6
11 14 0 11 -11 14 -46 11 -39 -2 -77 -15 -46 -15 7 0 12 -6 12 -12 -1 -7 -10
-2 -22 12 -11 14 -23 20 -25 15 -2 -6 -19 -9 -38 -7 -19 2 -32 8 -29 13 13 22
-16 6 -35 -18z"/>
<path d="M9005 8402 c-9 -6 -10 -17 -6 -45 0 -4 10 -3 21 3 12 6 20 7 20 1 0
-5 9 -7 20 -4 11 3 20 1 20 -4 0 -14 33 -12 48 4 20 20 32 7 27 -32 -3 -20 0
-35 5 -35 6 0 10 14 10 30 0 22 5 30 18 30 13 0 14 -2 3 -9 -10 -6 -10 -10 -1
-16 6 -4 14 -4 17 -1 3 3 14 -5 24 -19 16 -20 24 -22 49 -15 18 5 32 5 35 -1
4 -5 14 -9 23 -9 15 0 15 2 2 10 -13 8 -12 10 3 10 24 0 21 16 -5 25 l-23 8
21 4 c14 3 24 14 27 31 7 35 -7 49 -28 28 -20 -19 -35 -21 -35 -3 0 10 -27 14
-120 14 -66 0 -117 -4 -114 -8 3 -5 -7 -4 -21 1 -31 12 -27 12 -40 2z"/>
<path d="M8660 8391 c0 -5 9 -7 20 -4 11 3 20 7 20 9 0 2 -9 4 -20 4 -11 0
-20 -4 -20 -9z"/>
<path d="M6040 8342 c-24 -2 -42 -12 -57 -30 -15 -18 -23 -22 -23 -12 0 10
-11 15 -30 16 -17 1 -30 -3 -30 -8 0 -5 -5 -6 -10 -3 -6 4 -8 9 -6 13 2 4 -45
8 -105 10 -63 1 -109 -2 -109 -7 0 -5 -16 -15 -36 -21 -28 -10 -38 -10 -44 0
-5 8 -25 10 -61 7 -31 -3 -59 -1 -66 5 -19 15 -17 -9 1 -28 10 -9 28 -13 50
-10 38 5 51 -1 37 -18 -7 -8 2 -11 31 -11 40 0 40 0 13 11 -17 7 -23 14 -17
18 7 4 20 3 29 -2 23 -12 95 -12 109 0 7 5 14 3 17 -6 4 -9 14 -12 28 -9 l21
6 -21 12 c-12 6 -19 14 -15 17 9 10 37 -3 58 -26 l18 -21 -6 23 c-9 27 11 30
30 5 12 -17 13 -16 14 7 1 14 4 19 7 13 2 -7 16 -13 29 -13 13 0 24 -4 24 -9
0 -6 12 -6 30 1 17 5 37 7 45 4 8 -3 15 -1 15 5 0 8 16 9 48 4 26 -4 59 -7 74
-7 15 1 40 -5 54 -13 15 -8 32 -11 38 -7 7 4 4 8 -7 10 -9 2 -14 8 -11 14 4 6
1 14 -7 18 -9 6 -2 11 21 17 63 17 42 28 -52 28 -51 0 -109 -1 -128 -3z m135
-32 c3 -5 1 -10 -4 -10 -6 0 -11 5 -11 10 0 6 2 10 4 10 3 0 8 -4 11 -10z"/>
<path d="M6263 8323 c-10 -20 -8 -23 8 -23 10 0 19 4 19 10 0 5 7 7 16 3 12
-4 14 -14 10 -34 -6 -33 1 -37 20 -11 12 15 15 15 24 2 9 -13 10 -13 11 0 2
20 2 22 -6 43 -4 10 -3 17 4 17 6 0 11 -9 11 -20 0 -11 6 -20 14 -20 8 0 17
-6 19 -12 4 -10 6 -10 6 0 1 18 39 15 50 -5 10 -17 10 -17 11 0 0 9 5 17 10
17 6 0 10 -7 10 -15 0 -16 16 -21 22 -6 2 5 21 12 43 14 22 3 53 8 69 13 25 6
28 5 23 -11 -6 -13 -3 -16 10 -11 9 4 19 3 22 -2 8 -12 51 4 51 18 0 6 -5 8
-12 4 -8 -5 -9 -2 -5 10 4 10 7 20 7 22 0 2 7 4 15 4 8 0 15 4 15 9 0 4 -53 7
-117 6 -159 -2 -163 -3 -163 -20 0 -8 -4 -15 -10 -15 -5 0 -7 7 -4 15 4 10 0
15 -11 15 -9 0 -14 -4 -11 -9 3 -5 -1 -12 -10 -15 -12 -4 -14 -1 -9 14 5 17 3
19 -17 12 -28 -9 -59 -9 -75 1 -22 14 -59 3 -70 -20z m337 7 c0 -5 -8 -10 -17
-10 -15 0 -16 2 -3 10 19 12 20 12 20 0z m-53 -37 c-8 -7 -37 9 -31 19 3 5 12
4 20 -3 8 -6 13 -14 11 -16z m156 10 c-7 -2 -19 -2 -25 0 -7 3 -2 5 12 5 14 0
19 -2 13 -5z"/>
<path d="M6850 8340 c0 -5 15 -10 33 -9 27 0 29 2 12 9 -28 12 -45 12 -45 0z"/>
<path d="M8674 8342 c-8 -5 -7 -16 3 -39 12 -31 36 -43 47 -24 3 5 18 9 33 9
15 0 29 5 31 11 2 6 15 11 30 11 14 0 22 3 18 7 -4 4 -23 6 -42 4 -19 -1 -41
3 -49 9 -9 7 -26 9 -41 6 -17 -5 -23 -3 -19 4 7 12 4 13 -11 2z"/>
<path d="M9050 8330 c0 -5 5 -10 11 -10 5 0 7 5 4 10 -3 6 -8 10 -11 10 -2 0
-4 -4 -4 -10z"/>
<path d="M5638 8323 c7 -3 16 -2 19 1 4 3 -2 6 -13 5 -11 0 -14 -3 -6 -6z"/>
<path d="M8140 8310 c0 -5 5 -10 10 -10 6 0 10 5 10 10 0 6 -4 10 -10 10 -5 0
-10 -4 -10 -10z"/>
<path d="M8493 8303 c9 -2 14 -9 11 -15 -4 -7 -2 -8 4 -4 20 12 13 26 -10 25
-18 -1 -19 -2 -5 -6z"/>
<path d="M8567 8295 c3 -8 9 -12 14 -9 12 7 11 11 -5 17 -10 4 -13 1 -9 -8z"/>
<path d="M8910 8300 c0 -5 5 -10 10 -10 6 0 10 5 10 10 0 6 -4 10 -10 10 -5 0
-10 -4 -10 -10z"/>
<path d="M9010 8300 c0 -5 5 -10 11 -10 5 0 7 5 4 10 -3 6 -8 10 -11 10 -2 0
-4 -4 -4 -10z"/>
<path d="M3644 8284 c5 -13 1 -15 -18 -12 -19 4 -23 1 -23 -19 0 -20 4 -24 20
-19 15 4 17 2 8 -7 -6 -6 -11 -17 -11 -25 0 -14 17 -14 70 1 8 2 12 2 8 0 -5
-3 -8 -11 -8 -19 0 -10 6 -11 26 -4 33 13 47 13 38 -1 -4 -7 3 -10 17 -8 13 1
31 -1 39 -4 8 -3 29 -5 45 -4 17 2 38 -4 47 -11 12 -10 21 -11 37 -3 27 15 31
14 31 -6 1 -17 1 -17 14 0 14 18 32 24 21 7 -3 -5 -1 -10 4 -10 18 0 12 18
-10 34 -20 13 -19 14 19 13 28 -2 37 -5 31 -13 -6 -7 1 -11 20 -11 20 0 28 4
24 14 -4 9 2 12 18 11 18 -2 25 3 27 20 4 23 16 29 27 12 3 -5 1 -10 -6 -10
-21 0 -2 -11 24 -14 18 -2 24 1 20 10 -3 8 -9 14 -14 14 -5 0 -9 10 -9 21 0
16 3 19 13 11 8 -7 18 -6 31 4 11 8 18 14 15 15 -2 1 -30 3 -61 5 -45 2 -58 0
-58 -11 0 -8 -4 -16 -9 -19 -5 -4 -7 3 -4 14 3 11 0 20 -6 20 -6 0 -11 -5 -11
-11 0 -5 -8 -9 -17 -7 -10 1 -24 -1 -30 -5 -7 -5 -13 -5 -13 0 0 4 -11 9 -25
9 -14 1 -25 -3 -25 -10 0 -6 -4 -5 -9 3 -5 8 -16 11 -24 8 -9 -3 -18 1 -21 10
-5 11 -16 13 -46 9 -24 -3 -40 -1 -40 5 0 5 -10 1 -21 -10 -19 -17 -23 -18
-36 -5 -19 19 -33 18 -49 -3 -12 -16 -13 -16 -14 -2 0 9 -6 16 -13 16 -7 0
-25 3 -41 7 -24 6 -28 4 -22 -10z m263 -20 c-3 -3 -12 -4 -19 -1 -8 3 -5 6 6
6 11 1 17 -2 13 -5z m123 -32 c0 -5 -7 -9 -15 -9 -8 0 -15 4 -15 9 0 4 7 8 15
8 8 0 15 -4 15 -8z m-53 -8 c-3 -3 -12 -4 -19 -1 -8 3 -5 6 6 6 11 1 17 -2 13
-5z m-237 -14 c0 -5 -5 -10 -11 -10 -5 0 -7 5 -4 10 3 6 8 10 11 10 2 0 4 -4
4 -10z m70 -5 c0 -9 9 -15 22 -15 16 0 19 -3 11 -11 -9 -9 -18 -6 -37 8 -14
11 -22 23 -19 27 11 11 23 6 23 -9z m90 11 c0 -3 -4 -8 -10 -11 -5 -3 -10 -1
-10 4 0 6 5 11 10 11 6 0 10 -2 10 -4z m230 -6 c0 -5 -9 -10 -19 -10 -11 0
-23 5 -26 10 -4 6 5 10 19 10 14 0 26 -4 26 -10z m-172 -32 c-3 -7 -15 -14
-29 -16 -24 -4 -24 -3 -4 12 24 19 38 20 33 4z"/>
<path d="M4639 8287 c-9 -9 -19 -13 -23 -10 -3 4 -6 2 -6 -3 0 -5 -22 -8 -50
-7 -34 2 -50 -1 -50 -9 0 -6 -7 -3 -15 8 -8 11 -15 14 -15 7 0 -7 -8 -13 -17
-12 -11 0 -13 3 -5 6 13 5 7 23 -8 23 -5 0 -16 -7 -24 -16 -15 -14 -16 -14
-16 0 0 17 -35 22 -45 6 -3 -5 -30 -8 -60 -7 -30 2 -52 1 -50 -2 3 -2 -4 -10
-15 -18 -26 -18 -25 -30 2 -29 14 1 27 -8 34 -22 7 -15 14 -20 18 -13 4 6 4
16 0 23 -5 8 -2 9 9 5 11 -4 17 -1 17 8 0 8 4 15 9 15 4 0 7 -11 6 -25 -2 -14
1 -23 6 -19 5 3 7 10 4 15 -4 5 -2 9 4 9 5 0 12 -8 14 -17 4 -16 5 -16 6 -2 0
9 8 19 15 22 10 4 13 1 9 -8 -4 -13 -1 -13 23 0 16 8 39 12 53 8 17 -4 22 -2
17 6 -5 7 2 11 18 11 17 0 26 -6 26 -15 0 -12 7 -14 28 -9 15 4 30 12 34 18 5
7 8 7 8 -3 0 -7 6 -11 14 -8 7 3 25 0 38 -8 22 -11 25 -10 24 4 -1 11 6 15 22
14 14 -2 22 3 22 12 0 8 6 18 14 22 12 7 12 10 0 21 -8 7 -14 8 -14 2 0 -5
-10 -11 -22 -11 -17 -1 -19 -2 -5 -6 26 -7 21 -23 -7 -23 -19 0 -25 6 -28 27
-3 25 -4 26 -19 10z"/>
<path d="M5355 8289 c-4 -6 -5 -12 -2 -15 2 -3 7 2 10 11 7 17 1 20 -8 4z"/>
<path d="M5388 8286 c-27 -20 -22 -24 27 -22 51 1 56 8 20 24 -31 14 -26 14
-47 -2z"/>
<path d="M6220 8290 c0 -5 5 -10 10 -10 6 0 10 5 10 10 0 6 -4 10 -10 10 -5 0
-10 -4 -10 -10z"/>
<path d="M7288 8293 c7 -3 16 -2 19 1 4 3 -2 6 -13 5 -11 0 -14 -3 -6 -6z"/>
<path d="M4820 8281 c0 -7 -4 -9 -10 -6 -5 3 -10 2 -10 -4 0 -5 5 -13 10 -16
11 -7 26 22 16 32 -3 4 -6 1 -6 -6z"/>
<path d="M5048 8283 c6 -2 18 -2 25 0 6 3 1 5 -13 5 -14 0 -19 -2 -12 -5z"/>
<path d="M7364 8274 c3 -9 6 -18 6 -20 0 -2 8 -4 18 -3 10 0 12 3 5 6 -7 2
-13 11 -13 19 0 8 -5 14 -11 14 -6 0 -8 -7 -5 -16z"/>
<path d="M2720 8272 c-8 -3 -18 -10 -22 -16 -6 -8 -8 -8 -8 0 0 16 -48 14 -54
-2 -4 -11 -12 -11 -32 -4 -23 9 -26 8 -20 -7 5 -16 4 -16 -8 1 -14 18 -53 16
-42 -2 2 -4 -24 -7 -60 -7 -35 1 -64 -2 -64 -7 0 -4 6 -8 14 -8 8 0 17 -6 19
-12 3 -8 6 -5 6 5 1 10 6 15 11 12 6 -4 7 -11 4 -17 -5 -7 2 -9 20 -6 14 3 26
1 26 -3 0 -5 11 -4 25 1 14 5 25 6 25 1 0 -5 10 -7 23 -4 18 5 20 3 10 -8 -19
-20 -16 -26 18 -38 40 -14 39 -14 39 5 0 11 -6 14 -20 9 -15 -5 -18 -3 -14 9
8 22 23 20 45 -5 16 -19 22 -20 54 -9 19 6 33 16 30 21 -4 5 -1 9 4 9 6 0 11
-4 11 -10 0 -16 18 -12 60 15 41 26 66 33 55 15 -3 -5 1 -10 9 -10 9 0 16 5
16 10 0 6 5 10 11 10 5 0 7 -5 4 -10 -4 -6 5 -5 19 2 14 6 26 15 26 20 0 4 4
8 9 8 5 0 7 -9 4 -20 -3 -11 -9 -17 -14 -14 -5 3 -9 0 -9 -5 0 -6 7 -11 15
-11 8 0 15 6 15 14 0 17 27 29 36 15 3 -5 15 -7 25 -4 11 4 27 1 35 -6 11 -9
18 -8 34 6 19 17 20 17 20 1 0 -13 5 -16 20 -11 10 3 28 1 40 -5 11 -6 20 -7
20 -1 0 5 9 7 20 4 11 -3 26 0 34 6 11 9 16 9 22 0 8 -14 22 12 23 44 1 17
-25 24 -31 8 -1 -5 -16 -12 -33 -16 -17 -4 -25 -3 -18 2 8 6 4 12 -13 20 -22
10 -24 9 -25 -15 -1 -16 -3 -20 -6 -10 -5 21 -51 32 -69 17 -8 -6 -14 -7 -14
-2 0 15 -73 10 -90 -6 -13 -13 -15 -12 -18 3 -3 11 -9 15 -19 12 -9 -4 -22 -1
-30 6 -11 9 -17 9 -25 -3 -7 -11 -11 -11 -15 -1 -5 13 -53 17 -53 4 0 -9 -91
-8 -106 0 -5 3 -16 3 -24 0z m362 -34 c-7 -7 -12 -8 -12 -2 0 14 12 26 19 19
2 -3 -1 -11 -7 -17z m-362 -54 c0 -2 -10 -9 -22 -15 -20 -11 -21 -10 -11 3 7
8 10 18 6 22 -4 4 0 4 10 0 9 -3 17 -8 17 -10z m70 6 c0 -5 -5 -10 -11 -10 -5
0 -7 5 -4 10 3 6 8 10 11 10 2 0 4 -4 4 -10z"/>
<path d="M4760 8270 c0 -5 5 -10 10 -10 6 0 10 5 10 10 0 6 -4 10 -10 10 -5 0
-10 -4 -10 -10z"/>
<path d="M6020 8266 c0 -11 9 -15 30 -13 39 3 39 22 0 25 -21 2 -30 -2 -30
-12z"/>
<path d="M7216 8268 c3 -5 10 -6 15 -3 13 9 11 12 -6 12 -8 0 -12 -4 -9 -9z"/>
<path d="M7300 8265 c0 -8 7 -15 16 -15 14 0 14 3 4 15 -7 8 -14 15 -16 15 -2
0 -4 -7 -4 -15z"/>
<path d="M4910 8260 c0 -5 5 -10 10 -10 6 0 10 5 10 10 0 6 -4 10 -10 10 -5 0
-10 -4 -10 -10z"/>
<path d="M5970 8260 c0 -5 5 -10 11 -10 5 0 7 5 4 10 -3 6 -8 10 -11 10 -2 0
-4 -4 -4 -10z"/>
<path d="M6140 8255 c0 -8 5 -15 10 -15 6 0 10 7 10 15 0 8 -4 15 -10 15 -5 0
-10 -7 -10 -15z"/>
<path d="M7715 8260 c-8 -13 15 -13 35 0 12 8 11 10 -7 10 -12 0 -25 -4 -28
-10z"/>
<path d="M8120 8266 c0 -2 9 -6 20 -9 11 -3 18 -1 14 4 -5 9 -34 13 -34 5z"/>
<path d="M8757 8263 c-4 -3 -7 -11 -7 -17 0 -6 5 -5 12 2 6 6 9 14 7 17 -3 3
-9 2 -12 -2z"/>
<path d="M12 8240 c0 -14 2 -19 5 -12 2 6 2 18 0 25 -3 6 -5 1 -5 -13z"/>
<path d="M3335 8250 c-3 -6 -3 -10 2 -10 4 0 1 -5 -7 -10 -13 -8 -13 -11 -1
-22 8 -7 11 -8 8 -2 -7 13 16 38 26 28 3 -3 15 -1 26 6 14 7 21 7 21 0 0 -5 5
-10 11 -10 8 0 8 4 0 13 -13 16 -77 21 -86 7z"/>
<path d="M3443 8245 c5 -14 29 -13 34 2 3 7 -4 11 -16 10 -12 -1 -20 -6 -18
-12z"/>
<path d="M3500 8250 c0 -5 5 -10 11 -10 5 0 7 5 4 10 -3 6 -8 10 -11 10 -2 0
-4 -4 -4 -10z"/>
<path d="M3530 8248 c0 -12 58 -10 65 2 4 7 -6 10 -29 8 -20 -1 -36 -6 -36
-10z"/>
<path d="M6630 8249 c0 -5 5 -7 10 -4 6 3 10 8 10 11 0 2 -4 4 -10 4 -5 0 -10
-5 -10 -11z"/>
<path d="M1510 8245 c0 -2 10 -13 22 -25 22 -20 75 -29 63 -10 -3 5 -12 6 -21
3 -9 -3 -24 4 -35 16 -19 20 -29 26 -29 16z"/>
<path d="M5707 8239 c7 -7 15 -10 18 -7 3 3 -2 9 -12 12 -14 6 -15 5 -6 -5z"/>
<path d="M6687 8242 c-24 -3 -27 -7 -21 -25 9 -26 9 -30 -1 -123 -5 -43 -4
-74 2 -77 14 -9 170 -13 178 -5 4 4 -5 22 -19 41 -16 21 -23 38 -17 41 6 4 15
23 20 43 8 29 7 42 -5 60 -8 13 -19 21 -25 17 -5 -3 -15 -2 -22 3 -24 18 -62
28 -90 25z"/>
<path d="M7525 8240 c-3 -5 1 -10 9 -10 9 0 16 5 16 10 0 6 -4 10 -9 10 -6 0
-13 -4 -16 -10z"/>
<path d="M2163 8233 c4 -3 2 -12 -4 -20 -16 -19 2 -16 29 5 l23 18 -27 2 c-15
1 -24 -1 -21 -5z"/>
<path d="M2380 8230 c0 -5 5 -10 11 -10 5 0 7 5 4 10 -3 6 -8 10 -11 10 -2 0
-4 -4 -4 -10z"/>
<path d="M7300 8230 c0 -5 5 -10 11 -10 5 0 7 5 4 10 -3 6 -8 10 -11 10 -2 0
-4 -4 -4 -10z"/>
<path d="M7480 8230 c0 -5 5 -10 10 -10 6 0 10 5 10 10 0 6 -4 10 -10 10 -5 0
-10 -4 -10 -10z"/>
<path d="M6130 8220 c0 -5 5 -10 11 -10 5 0 7 5 4 10 -3 6 -8 10 -11 10 -2 0
-4 -4 -4 -10z"/>
<path d="M6220 8219 c0 -5 5 -7 10 -4 6 3 10 8 10 11 0 2 -4 4 -10 4 -5 0 -10
-5 -10 -11z"/>
<path d="M413 8205 c-15 -17 -10 -308 6 -313 6 -2 11 -8 11 -13 0 -6 -5 -7
-11 -3 -7 4 -10 -7 -8 -34 2 -23 0 -44 -4 -48 -3 -4 -2 -14 3 -24 5 -10 8 -19
6 -21 -2 -2 2 -10 10 -17 12 -11 14 -7 14 22 0 19 4 37 9 40 5 4 7 -3 4 -15
-5 -19 -4 -20 14 -9 14 9 18 20 15 38 -4 20 -2 24 11 19 18 -7 33 8 17 18 -5
3 -10 15 -10 26 0 13 -4 18 -12 13 -7 -4 -8 -3 -4 5 4 6 2 18 -4 26 -10 12
-10 15 0 15 6 0 14 -9 17 -19 3 -11 13 -21 24 -24 23 -6 24 -3 3 17 -8 9 -12
21 -9 27 5 7 11 5 18 -4 15 -18 47 -29 47 -17 0 6 -9 10 -19 10 -29 0 -46 45
-25 70 7 8 14 19 16 25 2 5 9 9 16 7 6 -2 20 2 30 7 13 8 14 10 2 11 -13 0
-13 1 0 11 11 8 5 9 -23 4 -27 -4 -37 -3 -32 4 3 6 19 11 35 11 16 0 32 5 35
11 4 6 19 7 37 4 21 -5 28 -4 24 4 -4 6 -11 9 -16 6 -4 -3 -10 0 -12 5 -2 6
-13 12 -26 13 -23 1 -29 12 -12 22 6 4 17 1 25 -5 11 -9 19 -8 37 5 l23 17
-27 -6 c-27 -6 -47 7 -28 19 20 12 10 26 -10 15 -16 -8 -20 -8 -20 4 0 9 -8
13 -22 10 -13 -2 -17 -2 -10 2 28 13 8 19 -71 21 -55 1 -86 -3 -94 -12z m87
-90 c-7 -8 -8 -15 -3 -15 5 0 9 -9 9 -20 0 -11 -4 -20 -8 -20 -4 0 -8 -5 -8
-11 0 -6 9 -9 20 -6 28 7 25 0 -7 -17 -20 -11 -23 -15 -11 -16 12 0 15 -5 11
-16 -5 -13 -7 -13 -14 -2 -5 7 -9 9 -9 4 0 -6 -5 -5 -11 1 -8 8 -8 20 0 45 6
18 13 45 16 61 3 15 10 27 16 27 8 0 7 -5 -1 -15z m35 -105 c3 -5 1 -10 -4
-10 -6 0 -11 5 -11 10 0 6 2 10 4 10 3 0 8 -4 11 -10z m-25 -44 c0 -9 -30 -14
-35 -6 -4 6 3 10 14 10 12 0 21 -2 21 -4z m-50 -26 c0 -5 -7 -7 -15 -4 -8 4
-15 8 -15 10 0 2 7 4 15 4 8 0 15 -4 15 -10z m10 -90 c0 -5 -7 -10 -16 -10 -8
0 -12 5 -9 10 3 6 10 10 16 10 5 0 9 -4 9 -10z"/>
<path d="M1820 8212 c0 -4 9 -8 20 -9 11 -1 18 2 15 8 -7 11 -35 12 -35 1z"/>
<path d="M4803 8197 c-12 -12 -24 -38 -27 -57 -3 -19 -9 -48 -13 -65 -7 -28
-9 -59 -5 -112 2 -27 21 -29 68 -7 30 14 35 14 56 0 12 -9 25 -16 28 -16 11 0
7 190 -4 192 -42 5 -67 18 -60 29 3 6 0 16 -6 24 -10 11 -10 15 -1 15 7 0 9 5
6 10 -9 14 -17 12 -42 -13z"/>
<path d="M7560 8210 c0 -5 5 -10 11 -10 5 0 7 5 4 10 -3 6 -8 10 -11 10 -2 0
-4 -4 -4 -10z"/>
<path d="M1908 8203 c7 -3 16 -2 19 1 4 3 -2 6 -13 5 -11 0 -14 -3 -6 -6z"/>
<path d="M2860 8179 c0 -5 5 -7 10 -4 6 3 10 8 10 11 0 2 -4 4 -10 4 -5 0 -10
-5 -10 -11z"/>
<path d="M3223 8183 c-19 -7 -16 -20 7 -26 11 -3 20 -1 20 5 0 6 7 8 15 5 8
-4 17 -1 21 5 4 7 3 8 -4 4 -7 -4 -12 -2 -12 3 0 11 -25 13 -47 4z"/>
<path d="M7166 8163 c-5 -28 -4 -48 9 -123 5 -30 11 -40 26 -40 11 0 20 7 20
18 10 135 9 149 -17 161 -33 15 -32 15 -38 -16z"/>
<path d="M2486 8163 c-6 -14 -5 -15 5 -6 7 7 10 15 7 18 -3 3 -9 -2 -12 -12z"/>
<path d="M6965 8170 c4 -6 -2 -28 -14 -49 -21 -41 -18 -81 5 -81 7 0 16 -11
20 -25 5 -20 9 -23 20 -14 8 6 14 16 14 21 0 5 11 19 25 32 l26 24 -19 48
c-17 43 -23 49 -52 52 -21 2 -30 0 -25 -8z"/>
<path d="M140 8160 c0 -5 7 -10 16 -10 8 0 12 5 9 10 -3 6 -10 10 -16 10 -5 0
-9 -4 -9 -10z"/>
<path d="M1835 8160 c-3 -5 1 -10 9 -10 9 0 16 5 16 10 0 6 -4 10 -9 10 -6 0
-13 -4 -16 -10z"/>
<path d="M4115 8160 c-3 -5 1 -10 10 -10 9 0 13 5 10 10 -3 6 -8 10 -10 10 -2
0 -7 -4 -10 -10z"/>
<path d="M9136 8155 c-20 -20 -21 -64 -2 -71 8 -3 12 -13 9 -25 -8 -30 16 -69
41 -66 12 1 20 -3 19 -10 -2 -7 2 -13 7 -13 6 0 10 -7 10 -15 0 -8 -5 -15 -11
-15 -6 0 -17 -7 -25 -15 -9 -8 -29 -15 -45 -15 -34 0 -40 -25 -8 -35 25 -8
107 11 134 31 27 20 24 92 -6 117 -18 14 -20 24 -15 60 8 53 -6 75 -55 82 -26
4 -41 1 -53 -10z"/>
<path d="M10 8122 c0 -22 4 -43 8 -46 9 -5 5 74 -3 82 -3 3 -5 -13 -5 -36z"/>
<path d="M1165 8142 c-49 -44 -59 -96 -20 -114 26 -12 31 -23 15 -33 -13 -8
-13 -72 0 -80 6 -3 6 -15 0 -29 -10 -26 3 -46 31 -46 9 0 31 16 50 35 27 27
33 41 31 67 -2 18 -8 37 -13 43 -5 5 -9 37 -9 70 0 53 -3 64 -25 83 -30 26
-34 26 -60 4z"/>
<path d="M8658 8149 c-28 -11 -44 -41 -33 -59 4 -6 24 -8 48 -5 27 4 37 2 28
-3 -11 -8 -11 -10 0 -15 11 -4 11 -10 -3 -36 -9 -17 -13 -31 -8 -31 5 0 12 -9
15 -20 3 -11 13 -20 21 -20 8 0 14 -9 14 -21 0 -11 -4 -17 -10 -14 -5 3 -10
-1 -10 -9 0 -11 -9 -16 -29 -16 -57 0 -45 -45 14 -53 39 -5 70 9 84 40 15 34
14 42 -14 96 -14 26 -21 47 -16 47 11 0 24 66 16 89 -6 20 -46 41 -73 40 -9 0
-29 -5 -44 -10z"/>
<path d="M5240 8127 c-26 -21 -36 -59 -35 -132 2 -81 10 -115 31 -115 12 0 21
49 15 84 -4 18 30 116 45 131 31 31 -21 61 -56 32z"/>
<path d="M130 8120 c-9 -6 -10 -10 -3 -10 6 0 15 5 18 10 8 12 4 12 -15 0z"/>
<path d="M670 8120 c0 -5 7 -10 16 -10 8 0 12 5 9 10 -3 6 -10 10 -16 10 -5 0
-9 -4 -9 -10z"/>
<path d="M5037 8062 c-15 -15 -27 -33 -27 -40 0 -7 -5 -12 -11 -12 -14 0 -2
-56 18 -87 20 -30 31 -29 43 2 5 14 15 28 22 30 74 26 73 25 52 40 -11 7 -29
32 -39 54 -11 22 -23 41 -26 41 -3 0 -17 -13 -32 -28z"/>
<path d="M12 8040 c0 -14 2 -19 5 -12 2 6 2 18 0 25 -3 6 -5 1 -5 -13z"/>
<path d="M637 8039 c7 -7 15 -10 18 -7 3 3 -2 9 -12 12 -14 6 -15 5 -6 -5z"/>
<path d="M120 8029 c0 -5 5 -7 10 -4 6 3 10 8 10 11 0 2 -4 4 -10 4 -5 0 -10
-5 -10 -11z"/>
<path d="M1926 7964 c-29 -28 -13 -122 25 -156 26 -22 24 -32 -12 -63 -35 -29
-35 -30 2 -38 31 -8 86 25 108 64 17 30 9 71 -19 97 -11 10 -21 34 -24 55 -2
20 -7 41 -11 47 -9 15 -52 12 -69 -6z"/>
<path d="M6080 7960 c-13 -13 -20 -34 -21 -62 -1 -52 -4 -96 -14 -169 -7 -54
-7 -56 25 -82 40 -34 48 -34 64 4 8 18 16 27 20 21 6 -10 51 2 66 18 9 9 44
30 68 40 36 15 16 30 -39 30 -44 0 -51 3 -59 26 -6 14 -7 42 -4 63 5 32 1 45
-27 84 -36 52 -50 56 -79 27z"/>
<path d="M555 7950 c-8 -13 5 -13 25 0 13 8 13 10 -2 10 -9 0 -20 -4 -23 -10z"/>
<path d="M867 7935 c-9 -13 -17 -34 -17 -47 0 -54 12 -147 25 -193 31 -107 45
-173 45 -206 1 -19 7 -62 14 -97 16 -72 6 -87 -36 -58 -29 20 -77 21 -85 1 -7
-20 24 -55 49 -55 10 0 41 -23 68 -51 71 -73 91 -57 68 56 -6 28 -16 84 -23
125 -7 41 -20 113 -30 160 -21 107 -34 182 -41 242 -6 40 -4 48 14 57 11 6 28
8 36 5 9 -3 16 -1 16 6 0 6 5 8 10 5 6 -3 10 4 10 18 0 56 -88 79 -123 32z"/>
<path d="M2910 7926 c0 -8 15 -24 34 -35 46 -29 80 -85 96 -159 16 -78 9 -145
-25 -245 -29 -83 -62 -128 -149 -202 -31 -27 -30 -55 2 -55 21 0 94 76 118
122 8 15 18 28 23 28 7 0 25 37 47 95 11 31 12 38 17 161 4 89 2 126 -10 162
-17 49 -46 95 -56 86 -2 -3 -15 9 -27 25 -23 33 -70 44 -70 17z"/>
<path d="M3335 7883 c7 -83 -4 -154 -24 -160 -90 -28 -108 -48 -114 -130 -6
-66 13 -98 52 -88 83 21 131 155 121 340 -4 74 -8 90 -22 93 -15 3 -17 -4 -13
-55z m-22 -205 c2 -7 -1 -22 -6 -33 -6 -11 -12 -25 -13 -31 -1 -7 -11 -21 -22
-32 l-20 -20 -6 23 c-7 28 0 50 28 80 25 27 33 29 39 13z"/>
<path d="M130 7844 c0 -8 5 -12 10 -9 6 4 8 11 5 16 -9 14 -15 11 -15 -7z"/>
<path d="M1557 7842 c-41 -25 -68 -119 -74 -262 -7 -158 6 -220 55 -258 39
-31 112 -48 112 -26 0 7 -19 25 -42 41 -78 53 -83 67 -83 216 1 125 2 135 29
187 16 30 39 66 53 79 18 19 21 26 11 33 -18 11 -28 9 -61 -10z"/>
<path d="M6485 7850 c-9 -14 13 -40 33 -40 12 0 11 -5 -6 -23 -12 -13 -22 -28
-22 -34 0 -5 -9 -18 -20 -28 -28 -25 -25 -38 7 -32 17 3 33 -1 46 -14 23 -21
44 -24 81 -9 30 11 35 30 8 30 -10 0 -26 6 -35 13 -15 10 -15 18 -6 52 6 22
20 52 31 68 l19 27 -65 0 c-36 0 -68 -5 -71 -10z"/>
<path d="M2501 7816 c-37 -60 -82 -206 -88 -287 -9 -124 32 -179 109 -145 81
34 114 126 57 156 -14 8 -33 7 -68 -4 -27 -8 -51 -12 -54 -9 -3 2 -1 18 4 35
4 17 6 35 3 40 -3 5 -1 14 4 21 5 7 17 36 27 65 9 29 28 65 41 81 32 39 36 75
8 79 -16 2 -28 -7 -43 -32z m49 -334 c0 -13 -23 -39 -40 -44 -8 -3 -26 -1 -39
4 -19 7 -22 11 -12 21 9 9 14 9 21 -3 8 -13 10 -12 10 3 0 10 4 16 9 12 5 -3
12 -1 16 5 7 12 35 14 35 2z"/>
<path d="M4598 7829 c-10 -5 -18 -15 -18 -21 0 -15 31 -37 54 -38 16 0 17 -5
11 -37 -7 -38 -19 -58 -63 -101 -13 -12 -24 -35 -25 -50 -2 -26 -5 -27 -61
-30 -60 -3 -116 -32 -116 -59 0 -7 -5 -13 -11 -13 -5 0 -8 -4 -5 -9 4 -5 16
-4 30 2 13 7 22 15 20 19 -10 16 33 21 255 29 155 5 257 13 296 23 33 8 87 17
120 20 64 5 95 13 95 26 0 4 -6 10 -12 12 -16 5 -228 -25 -283 -40 -22 -6 -87
-12 -145 -13 -153 -2 -160 0 -117 43 26 26 30 28 56 28 11 0 27 8 36 17 16 16
16 17 -4 25 -23 8 -30 51 -10 63 6 4 8 13 5 21 -3 7 -1 16 4 19 6 4 10 16 10
28 0 17 -9 25 -40 35 -47 14 -59 15 -82 1z"/>
<path d="M9624 7823 c-8 -3 -9 -16 -2 -45 6 -29 5 -50 -3 -70 -6 -16 -10 -30
-8 -31 2 -1 14 -11 26 -21 20 -16 25 -17 40 -5 16 13 17 12 4 -3 -8 -11 -9
-18 -3 -18 15 0 26 -40 15 -51 -5 -5 -33 -10 -61 -10 -49 -2 -72 -12 -58 -27
4 -3 34 -6 67 -5 70 1 95 18 105 71 6 31 3 38 -26 62 -28 23 -34 35 -35 73 -2
24 -5 50 -9 56 -10 15 -39 29 -52 24z"/>
<path d="M9134 7779 c-3 -5 -14 -9 -24 -9 -11 0 -36 -16 -56 -35 -19 -19 -41
-35 -47 -35 -8 0 -7 -3 2 -9 9 -6 10 -11 2 -15 -6 -4 -11 -4 -11 1 0 4 -4 2
-8 -5 -13 -20 -2 -67 18 -80 14 -8 27 -8 49 -1 16 6 42 9 58 7 27 -3 28 -5 30
-66 2 -73 7 -92 25 -92 10 0 12 26 11 107 -2 80 1 111 12 123 17 19 27 62 18
76 -13 18 -72 43 -79 33z m-24 -93 c0 -7 -8 -16 -17 -20 -10 -3 -24 -9 -30
-12 -7 -3 -13 -1 -13 5 0 6 7 11 15 11 9 0 18 7 21 15 8 19 24 20 24 1z"/>
<path d="M3470 7736 c0 -9 -4 -16 -10 -16 -14 0 7 -51 28 -66 15 -11 14 -16
-16 -53 -31 -38 -39 -61 -26 -74 3 -3 14 -1 24 6 14 8 28 8 56 -1 29 -9 48 -9
76 0 48 14 51 38 5 38 -19 0 -36 3 -39 6 -7 7 29 93 48 115 15 17 19 49 6 49
-4 0 -18 -7 -30 -16 -21 -15 -25 -15 -41 0 -9 9 -32 19 -49 22 -25 5 -32 3
-32 -10z"/>
<path d="M410 7663 c0 -25 3 -43 8 -39 4 4 7 18 7 29 0 13 6 21 13 19 10 -2
10 2 2 18 -18 33 -30 23 -30 -27z"/>
<path d="M1738 7673 c-25 -6 -22 -26 7 -51 36 -32 31 -98 -8 -104 -23 -3 -35
-34 -20 -49 6 -6 22 -5 41 2 24 8 40 8 61 0 21 -9 34 -9 54 0 32 15 44 49 16
49 -30 0 -33 26 -11 85 23 59 16 75 -22 50 -22 -15 -26 -15 -57 4 -19 12 -36
20 -39 20 -3 -1 -13 -3 -22 -6z"/>
<path d="M2668 7659 c-19 -11 -25 -39 -8 -39 6 0 10 -7 10 -15 0 -18 14 -19
41 -5 17 10 19 7 19 -21 0 -17 -9 -47 -21 -65 -11 -19 -18 -38 -15 -42 8 -13
114 -14 121 -2 3 6 14 10 23 10 10 0 23 9 30 20 11 19 10 20 -33 20 -48 0 -55
10 -35 50 6 11 15 29 20 40 14 29 13 30 -22 30 -18 1 -44 7 -58 15 -30 17 -49
18 -72 4z"/>
<path d="M5578 7653 c-28 -8 -48 -20 -48 -28 0 -19 37 -38 53 -28 6 4 30 9 52
10 56 4 97 22 91 40 -4 8 -6 17 -6 19 0 9 -99 1 -142 -13z"/>
<path d="M2299 7656 c-2 -2 -39 -6 -83 -9 -43 -3 -81 -8 -84 -11 -2 -3 1 -12
8 -21 10 -12 30 -15 102 -12 49 3 92 7 95 11 7 7 -30 49 -38 42z"/>
<path d="M433 7615 c-3 -9 -3 -18 -1 -21 3 -3 8 4 11 16 6 23 -1 27 -10 5z"/>
<path d="M425 7543 c-19 -15 -19 -15 4 -8 18 6 22 4 16 -6 -6 -11 -5 -12 6 -1
21 19 -2 34 -26 15z"/>
<path d="M6969 7546 c-2 -3 -51 -7 -109 -11 -188 -11 -425 -36 -434 -45 -5 -5
8 -7 30 -5 22 2 95 7 164 10 69 4 148 10 175 15 28 5 101 10 164 11 126 3 161
7 161 20 0 9 -143 13 -151 5z"/>
<path d="M440 7495 c0 -8 -5 -15 -11 -15 -8 0 -8 -4 -1 -12 14 -19 12 -66 -4
-72 -21 -8 -18 -56 4 -56 14 0 15 2 2 10 -13 9 -13 10 0 10 13 0 13 1 0 10
-12 7 -8 12 18 21 35 12 39 21 19 41 -20 20 -26 43 -16 59 6 10 9 10 9 2 0 -7
5 -13 11 -13 8 0 8 5 -1 15 -7 8 -16 15 -21 15 -5 0 -9 -7 -9 -15z"/>
<path d="M6084 7468 c-19 -30 68 -38 146 -14 25 7 51 11 58 9 6 -3 12 -1 12 4
0 10 -210 11 -216 1z"/>
<path d="M9799 7360 c-9 -5 -38 -11 -63 -11 -49 -2 -56 -11 -30 -36 11 -12 27
-14 65 -10 47 6 49 5 49 -18 0 -25 -51 -75 -76 -75 -23 0 -16 -18 16 -42 23
-17 30 -30 30 -56 0 -33 29 -79 31 -50 5 62 12 86 34 114 26 34 32 54 16 54
-12 0 -21 53 -11 65 4 6 11 25 15 43 6 31 6 32 -27 32 -18 0 -40 -5 -49 -10z"/>
<path d="M10240 7355 c-7 -8 -10 -21 -7 -28 6 -16 56 -21 73 -7 7 6 14 7 17 3
8 -14 -12 -53 -27 -53 -7 0 -16 -6 -18 -12 -7 -19 20 -78 35 -78 8 0 7 -4 -3
-10 -8 -5 -34 -10 -57 -10 -47 0 -57 -15 -20 -29 57 -22 141 -10 158 21 16 30
7 71 -19 84 -15 8 -20 14 -12 19 8 5 8 10 -1 21 -7 8 -7 14 -1 14 16 0 8 34
-13 51 -10 9 -24 15 -30 12 -7 -2 -23 1 -38 6 -19 8 -28 6 -37 -4z"/>
<path d="M6421 7351 c-15 -10 -42 -98 -46 -157 -2 -22 -5 -44 -6 -50 -4 -17
13 -44 28 -44 8 0 28 10 45 21 26 19 34 20 67 11 37 -12 96 -3 96 13 0 5 -19
18 -42 29 -45 22 -44 17 -27 104 5 24 3 32 -8 32 -17 0 -48 -31 -48 -48 0 -7
-5 -12 -10 -12 -6 0 -16 -11 -22 -25 -6 -14 -15 -25 -21 -25 -9 0 -6 44 11
118 10 43 7 48 -17 33z"/>
<path d="M6914 7348 c-11 -17 -13 -148 -2 -148 4 0 8 -6 8 -14 0 -15 27 -30
33 -18 3 4 2 47 -2 96 -6 86 -18 114 -37 84z"/>
<path d="M4948 7336 c-10 -10 -18 -28 -18 -40 0 -13 -6 -29 -14 -35 -8 -7 -17
-23 -20 -37 -6 -21 0 -31 26 -55 41 -36 57 -34 72 11 6 19 16 35 21 35 20 1
55 17 55 24 0 4 -21 12 -47 17 -48 9 -48 9 -53 53 -5 43 -6 44 -22 27z"/>
<path d="M9498 7327 c-33 -31 -46 -67 -23 -67 9 0 26 5 37 11 13 7 18 7 14 1
-3 -6 -3 -13 2 -16 8 -5 -7 -94 -22 -128 -25 -55 23 -91 93 -69 43 12 53 28
24 37 -10 3 -26 10 -35 15 -13 6 -18 5 -19 -3 0 -7 -5 0 -9 15 -5 17 -5 39 1
54 5 13 9 37 9 52 0 15 5 32 11 38 17 17 -1 63 -28 74 -31 12 -26 13 -55 -14z"/>
<path d="M4632 7328 c-36 -45 -56 -224 -27 -248 21 -17 35 -4 35 33 0 42 41
65 76 42 12 -8 25 -23 29 -34 7 -24 34 -34 69 -25 34 8 33 20 -3 38 -34 18
-44 50 -35 116 6 45 5 50 -13 50 -11 0 -28 -9 -39 -21 -10 -12 -31 -30 -46
-41 l-28 -19 7 60 c6 60 -2 76 -25 49z"/>
<path d="M5118 7318 c-21 -16 -34 -129 -18 -158 12 -22 36 -27 42 -7 2 6 1 49
-2 95 -5 76 -6 82 -22 70z"/>
<path d="M423 7308 c-9 -15 -11 -68 -2 -68 6 0 16 23 24 57 5 18 -12 26 -22
11z"/>
<path d="M6689 7274 c-13 -30 -18 -55 -14 -74 7 -31 36 -62 42 -45 2 6 11 26
21 45 15 32 22 36 75 44 31 4 57 13 57 18 0 5 -10 9 -22 8 -13 -1 -42 -2 -65
-1 -35 1 -43 4 -43 20 0 10 -7 21 -15 25 -10 4 -21 -8 -36 -40z"/>
<path d="M1151 7282 c-6 -11 -11 -52 -11 -91 0 -64 3 -74 29 -103 26 -29 30
-31 57 -19 46 19 84 77 84 127 0 62 -30 93 -96 101 -46 5 -53 3 -63 -15z m117
-79 c2 -24 -1 -33 -12 -33 -8 0 -20 -9 -26 -20 -14 -25 -30 -26 -30 -1 0 11
-4 22 -9 25 -5 4 -4 19 2 37 10 25 16 29 42 27 26 -3 30 -8 33 -35z"/>
<path d="M425 7200 c3 -5 10 -10 16 -10 5 0 9 5 9 10 0 6 -7 10 -16 10 -8 0
-12 -4 -9 -10z"/>
<path d="M425 7157 c-19 -27 -19 -37 0 -37 8 0 15 4 15 9 0 5 8 11 18 13 17 3
17 4 0 20 -16 16 -18 16 -33 -5z"/>
<path d="M412 7076 c18 -18 63 -32 54 -17 -4 6 -14 11 -22 11 -8 0 -14 5 -14
10 0 6 -7 10 -16 10 -13 0 -13 -2 -2 -14z"/>
<path d="M490 7049 c0 -5 9 -9 20 -9 11 0 20 2 20 4 0 2 -9 6 -20 9 -11 3 -20
1 -20 -4z"/>
<path d="M432 6992 c4 -14 2 -22 -7 -22 -18 0 -23 -41 -8 -70 l13 -25 1 25 c1
14 2 33 1 43 -1 9 3 18 8 18 6 1 14 2 19 3 16 2 25 16 10 16 -11 0 -11 2 1 10
9 6 10 10 3 10 -6 0 -19 3 -29 7 -14 5 -16 2 -12 -15z"/>
<path d="M7478 6939 c-7 -5 -24 -7 -38 -4 -28 6 -54 -23 -44 -50 7 -17 40 -21
46 -5 2 5 13 7 25 4 16 -4 24 -16 27 -38 3 -17 9 -62 15 -101 32 -209 35 -290
17 -462 -10 -92 -20 -176 -22 -188 -11 -53 -25 -190 -22 -210 7 -35 -26 -48
-126 -52 -49 -1 -91 -5 -93 -7 -3 -3 -15 -1 -27 4 -25 9 -56 -4 -56 -25 0 -23
18 -28 114 -31 50 -1 118 -5 151 -9 122 -14 119 -15 125 30 3 22 0 63 -7 90
-10 44 -13 78 -14 160 0 29 12 88 21 100 14 18 4 454 -13 565 -12 84 -13 111
-3 135 7 16 10 43 6 60 -4 23 -12 31 -37 36 -17 3 -37 2 -45 -2z"/>
<path d="M7098 6923 c-23 -11 -28 -21 -28 -49 0 -27 5 -37 20 -41 11 -3 20 -7
20 -8 0 -2 -13 -17 -30 -35 -35 -38 -36 -40 -10 -72 25 -33 65 -40 112 -21 52
21 53 53 2 53 -36 0 -36 1 -30 32 3 18 15 41 25 53 65 69 5 134 -81 88z"/>
<path d="M3765 6839 c-11 -12 -38 -33 -59 -47 -44 -30 -58 -54 -29 -49 28 6
55 18 85 39 26 18 27 18 37 -1 6 -11 11 -33 11 -49 0 -16 7 -51 15 -78 28 -91
6 -547 -36 -744 -7 -30 -13 -145 -15 -255 -2 -110 -3 -202 -3 -205 -1 -3 -25
-4 -54 -2 -48 3 -54 1 -64 -21 -13 -29 -8 -37 22 -37 11 0 36 -11 55 -25 39
-28 72 -32 90 -10 10 12 11 45 1 159 -13 173 -14 277 -1 331 5 22 12 76 16
120 3 44 8 82 9 85 5 9 15 200 20 389 5 179 -7 347 -28 391 -15 32 -46 35 -72
9z"/>
<path d="M10254 6827 c-17 -19 -36 -85 -29 -97 3 -6 8 -29 11 -53 7 -68 10
-81 22 -85 14 -4 23 50 19 116 -2 29 0 55 6 59 5 3 7 14 4 24 -3 12 0 19 9 19
8 0 11 6 8 15 -7 18 -35 19 -50 2z"/>
<path d="M2044 6816 c-6 -7 -19 -30 -30 -52 -10 -21 -28 -52 -41 -67 -29 -36
-38 -70 -23 -96 8 -16 20 -21 54 -21 40 0 45 -3 55 -32 12 -34 38 -68 53 -68
5 0 7 4 4 9 -3 5 -8 64 -10 132 -6 161 -14 209 -35 209 -9 -1 -21 -6 -27 -14z"/>
<path d="M5373 6813 c-9 -24 -41 -69 -80 -116 -57 -64 -38 -102 46 -94 49 5
50 4 56 -27 9 -39 33 -78 45 -71 5 3 6 29 3 59 -4 38 -1 60 9 74 12 18 12 31
-2 104 -16 78 -19 83 -43 86 -19 2 -29 -2 -34 -15z"/>
<path d="M1398 6768 c-39 -85 -41 -98 -33 -181 10 -113 11 -126 24 -342 6
-104 13 -203 16 -220 2 -16 7 -138 10 -270 8 -306 11 -350 18 -362 4 -6 7 -36
8 -67 1 -31 6 -59 11 -62 19 -12 107 -12 124 0 25 19 11 43 -40 67 -42 21 -45
25 -57 83 -7 34 -13 77 -14 96 0 19 -4 51 -8 70 -3 19 -8 112 -11 205 -3 94
-11 296 -19 450 -22 426 -22 430 3 470 15 24 29 35 46 35 13 0 24 -4 24 -10 0
-5 9 -10 19 -10 65 0 -1 67 -74 77 -28 4 -34 0 -47 -29z"/>
<path d="M10076 6791 c-3 -5 -35 -9 -71 -8 -113 2 -149 -37 -96 -103 17 -21
31 -48 31 -59 0 -11 10 -30 23 -41 28 -27 80 -21 108 11 23 27 23 32 2 77 -16
34 -16 36 5 50 12 8 22 21 22 28 0 8 7 14 15 14 8 0 15 7 15 15 0 8 -4 15 -9
15 -5 0 -16 3 -24 6 -8 3 -18 1 -21 -5z"/>
<path d="M4493 6780 c-16 -6 -23 -18 -23 -37 -2 -129 -12 -304 -20 -335 -6
-20 -9 -40 -8 -45 1 -4 -1 -35 -5 -68 -17 -146 -24 -448 -13 -600 3 -49 8
-134 11 -189 4 -79 8 -101 22 -112 24 -18 69 -26 123 -22 37 2 45 7 45 23 0
14 -11 22 -41 30 -22 5 -53 19 -68 31 -27 20 -30 28 -44 145 -26 223 -25 475
3 708 13 112 27 217 30 235 3 17 7 62 9 99 2 38 6 70 9 73 2 2 30 7 63 9 32 3
63 10 68 15 14 14 -22 39 -55 40 -15 0 -39 2 -55 5 -16 2 -39 0 -51 -5z"/>
<path d="M3503 6719 c-18 -18 -16 -29 8 -55 19 -21 20 -25 8 -53 -8 -17 -17
-31 -21 -31 -14 0 -8 -57 6 -69 22 -18 141 -10 141 9 0 8 -9 16 -20 18 -23 5
-55 31 -55 45 0 6 7 18 15 27 19 21 29 80 17 98 -13 19 -84 27 -99 11z"/>
<path d="M1062 6694 c-28 -19 -28 -31 3 -99 21 -45 30 -55 50 -55 30 0 31 -4
4 -31 -24 -24 -21 -43 8 -47 31 -5 62 28 69 73 5 35 2 45 -25 79 -17 21 -31
42 -31 47 0 9 -40 49 -50 49 -3 0 -16 -7 -28 -16z"/>
<path d="M6716 6628 c-35 -20 -12 -48 40 -48 21 0 24 -5 24 -35 0 -27 -8 -42
-41 -74 -39 -37 -45 -61 -14 -61 7 0 17 9 20 21 4 11 13 18 20 16 7 -3 17 -1
22 4 5 5 25 1 51 -11 49 -24 102 -27 102 -5 0 8 -15 21 -34 29 -52 22 -50 69
6 148 7 9 9 20 5 24 -11 12 -57 -14 -57 -32 0 -16 -2 -15 -20 1 -23 21 -102
36 -124 23z"/>
<path d="M6303 6533 c-13 -8 -23 -21 -23 -28 0 -7 -6 -15 -12 -18 -26 -10 -88
-171 -95 -248 -4 -34 0 -55 13 -74 17 -26 21 -27 71 -22 63 7 127 40 142 75
10 21 9 28 -11 49 -21 22 -29 24 -85 21 l-63 -4 0 37 c0 21 5 41 10 44 6 3 10
15 10 26 0 10 4 19 10 19 5 0 12 11 16 25 3 13 21 34 39 45 34 21 49 45 39 61
-8 13 -36 10 -61 -8z m47 -301 c0 -10 -76 -42 -101 -42 -27 0 -20 21 12 37 26
14 89 17 89 5z"/>
<path d="M866 6481 c-36 -39 -27 -93 39 -241 18 -41 47 -113 64 -160 17 -47
36 -93 41 -103 22 -38 51 -127 45 -137 -12 -19 -84 -11 -106 11 -18 18 -23 19
-35 7 -34 -34 32 -78 117 -78 94 0 110 32 65 126 -70 146 -86 184 -123 294 -8
25 -19 54 -24 65 -10 24 -32 78 -34 85 0 3 -6 15 -13 27 -8 14 -9 24 -2 28 6
4 8 11 4 16 -4 7 6 8 28 4 21 -4 40 -1 51 7 18 13 18 14 0 34 -10 12 -36 24
-59 27 -33 6 -44 3 -58 -12z"/>
<path d="M5103 6483 c-22 -8 -14 -32 16 -48 54 -28 48 -84 -14 -138 -60 -51
-37 -85 30 -46 22 14 52 22 70 21 69 -5 112 34 54 48 -26 7 -29 27 -14 103 7
35 6 37 -18 37 -13 0 -38 7 -53 15 -29 15 -49 17 -71 8z"/>
<path d="M1922 6449 c-8 -12 -19 -18 -28 -15 -21 8 -74 -5 -74 -18 0 -7 11
-22 25 -34 35 -31 31 -56 -16 -107 l-41 -44 26 -7 c20 -5 35 1 62 21 30 23 47
28 89 27 64 0 84 10 66 32 -8 9 -24 16 -38 16 -29 0 -36 17 -37 88 -1 60 -13
74 -34 41z"/>
<path d="M2888 6460 c-44 -26 -108 -189 -108 -275 0 -67 27 -95 92 -97 52 -1
76 12 106 56 29 42 28 69 -3 86 -23 12 -31 11 -79 -13 -29 -15 -57 -27 -61
-27 -13 0 3 102 20 120 8 9 15 21 15 26 0 6 19 29 42 53 34 34 40 45 32 59
-13 21 -33 25 -56 12z"/>
<path d="M3375 6460 c-11 -5 -39 -6 -62 -3 -51 6 -57 -9 -21 -58 20 -27 21
-33 9 -62 -20 -49 -19 -62 4 -59 32 5 77 12 113 18 39 6 43 31 5 36 -26 3 -28
6 -27 43 1 22 5 52 9 68 8 28 3 31 -30 17z"/>
<path d="M440 6360 c0 -5 5 -10 10 -10 6 0 10 5 10 10 0 6 -4 10 -10 10 -5 0
-10 -4 -10 -10z"/>
<path d="M6895 6280 c-44 -4 -111 -15 -150 -24 -38 -9 -92 -22 -120 -28 -62
-13 -117 -48 -62 -39 4 1 31 4 60 6 29 3 68 9 87 14 69 19 209 41 254 41 46 0
69 16 45 31 -8 5 -18 8 -24 7 -5 0 -46 -4 -90 -8z"/>
<path d="M2500 6205 c-25 -14 -52 -25 -60 -25 -9 0 -25 -7 -36 -15 -19 -15
-19 -15 1 -31 23 -17 61 -13 109 12 17 9 41 22 53 28 25 12 36 32 27 47 -9 16
-47 9 -94 -16z"/>
<path d="M4061 6206 c-5 -6 -11 -29 -13 -51 l-3 -40 40 2 c22 2 52 12 67 23
15 11 31 20 37 20 15 0 21 28 8 38 -18 15 -126 21 -136 8z"/>
<path d="M1945 6148 c-49 -17 -117 -41 -150 -53 -33 -13 -84 -28 -113 -35 -54
-13 -127 -6 -117 11 4 5 -1 9 -9 9 -24 0 -31 -39 -9 -56 23 -18 155 -12 187
10 12 7 39 16 60 19 21 3 41 10 45 15 3 5 29 14 57 20 28 6 74 20 102 31 38
15 78 21 147 22 85 2 95 4 95 20 0 17 -9 19 -102 18 -87 0 -117 -5 -193 -31z"/>
<path d="M5780 6160 c-41 -13 -55 -22 -55 -36 0 -27 56 -30 125 -6 59 20 81
51 38 53 -13 0 -30 2 -38 3 -8 2 -40 -4 -70 -14z"/>
<path d="M3365 6131 c-67 -8 -235 -72 -235 -90 0 -14 82 -5 126 14 21 10 74
25 117 35 96 22 109 31 62 42 -11 3 -42 2 -70 -1z"/>
<path d="M1 6104 c0 -11 3 -14 6 -6 3 7 2 16 -1 19 -3 4 -6 -2 -5 -13z"/>
<path d="M6708 6110 c-43 -13 -89 -44 -84 -57 3 -6 0 -13 -6 -15 -6 -2 -8 -9
-4 -16 5 -8 17 -5 44 11 49 31 66 37 81 27 21 -12 -31 -100 -86 -148 -77 -67
-84 -75 -81 -97 4 -30 42 -30 82 0 30 23 36 24 62 13 16 -7 34 -18 41 -24 6
-6 30 -11 54 -12 36 -2 47 3 71 29 15 16 28 34 28 39 0 14 -31 20 -50 10 -10
-6 -37 -10 -60 -10 -35 0 -42 4 -51 27 -13 35 -5 64 27 102 33 39 42 92 19
114 -18 18 -44 20 -87 7z"/>
<path d="M5215 6099 c-44 -5 -91 -13 -105 -18 -14 -5 -68 -17 -120 -26 -52
-10 -117 -22 -145 -26 -60 -11 -86 -25 -68 -37 20 -13 216 18 318 49 77 24
209 42 280 37 45 -2 55 0 53 12 -4 18 -93 22 -213 9z"/>
<path d="M8750 6031 c-8 -9 -21 -28 -28 -41 -8 -14 -27 -36 -43 -49 l-30 -24
-6 22 c-7 26 -43 28 -83 4 -22 -13 -30 -26 -35 -62 -4 -25 -14 -62 -22 -81
-19 -47 -29 -165 -15 -193 20 -43 21 -57 7 -98 -8 -23 -13 -45 -10 -49 3 -5 1
-10 -5 -12 -5 -2 -6 -9 -1 -17 13 -21 27 -6 41 46 13 46 29 65 60 70 60 9 83
17 123 44 101 66 111 144 31 229 -24 26 -44 55 -44 65 0 17 32 65 66 100 17
16 28 66 16 64 -4 0 -14 -8 -22 -18z m-147 -216 c-2 -21 -12 -54 -23 -73 -13
-21 -18 -42 -14 -54 4 -13 2 -18 -4 -14 -6 3 -14 1 -18 -5 -19 -32 -25 41 -7
91 3 8 7 22 8 32 3 26 35 70 48 65 7 -2 11 -20 10 -42z m67 -6 c0 -5 6 -9 13
-9 20 0 57 -56 57 -86 0 -40 -72 -104 -117 -104 -38 0 -53 22 -35 51 7 10 12
26 12 34 0 8 4 15 8 15 11 0 33 86 26 104 -4 11 0 13 15 9 12 -3 21 -9 21 -14z"/>
<path d="M3 5990 c0 -25 2 -35 4 -22 2 12 2 32 0 45 -2 12 -4 2 -4 -23z"/>
<path d="M1877 5990 c-6 -16 -14 -30 -18 -30 -4 0 -13 -15 -20 -32 -7 -18 -24
-49 -37 -68 -33 -48 -44 -79 -36 -102 5 -17 12 -19 44 -14 21 3 45 8 52 11 12
5 15 -9 15 -72 0 -90 21 -153 51 -153 10 0 21 3 25 6 9 9 -4 35 -15 28 -16
-10 -8 215 11 264 11 32 13 45 4 50 -14 9 -29 67 -32 130 -2 24 -33 11 -44
-18z"/>
<path d="M545 5980 c-3 -5 -1 -10 4 -10 6 0 11 5 11 10 0 6 -2 10 -4 10 -3 0
-8 -4 -11 -10z"/>
<path d="M3261 5944 c-38 -32 -53 -57 -45 -78 10 -25 31 -19 51 14 20 35 33
39 33 10 0 -24 -16 -55 -48 -91 -21 -24 -42 -77 -42 -108 0 -10 10 -12 38 -8
23 2 53 -1 73 -10 27 -11 42 -12 75 -3 54 15 97 50 85 69 -8 12 -12 12 -25 2
-9 -7 -38 -15 -65 -18 -43 -4 -51 -2 -61 17 -14 25 -5 70 23 125 23 43 23 70
2 92 -21 21 -61 15 -94 -13z"/>
<path d="M5068 5850 c-83 -93 -95 -114 -79 -133 8 -11 25 -14 54 -11 54 5 67
-4 72 -50 4 -43 20 -66 47 -66 26 0 31 19 20 78 -5 28 -6 56 -1 63 4 7 1 25
-6 39 -7 14 -13 33 -13 40 4 63 -3 110 -16 110 -8 0 -43 -32 -78 -70z"/>
<path d="M530 5860 c0 -5 5 -10 11 -10 5 0 7 5 4 10 -3 6 -8 10 -11 10 -2 0
-4 -4 -4 -10z"/>
<path d="M1184 5820 c-18 -7 -21 -18 -23 -70 -1 -34 -2 -65 -3 -69 -3 -22 7
-31 42 -41 49 -13 73 -3 96 42 19 37 14 109 -9 132 -17 17 -69 20 -103 6z m70
-63 c7 -19 6 -31 -1 -38 -19 -19 -43 -2 -43 29 0 50 28 56 44 9z"/>
<path d="M2 5760 c0 -19 2 -27 5 -17 2 9 2 25 0 35 -3 9 -5 1 -5 -18z"/>
<path d="M8179 5694 c-13 -7 -32 -13 -42 -14 -11 0 -31 -8 -45 -19 -15 -10
-54 -21 -87 -25 -91 -11 -178 -41 -213 -73 -7 -7 -17 -13 -22 -13 -4 0 -22
-19 -39 -42 -32 -44 -29 -68 10 -68 19 0 90 30 99 42 8 10 113 58 128 58 6 0
12 4 12 10 0 11 67 31 84 24 7 -3 19 -17 27 -32 7 -15 15 -31 18 -36 2 -5 -1
-6 -7 -2 -6 3 -14 1 -18 -5 -5 -9 1 -10 19 -5 32 8 64 -29 72 -83 10 -64 38
-175 51 -201 7 -14 15 -33 18 -43 5 -17 33 -34 41 -25 4 4 -15 65 -27 83 -8
13 -88 300 -88 317 0 7 16 31 35 53 36 40 52 76 41 93 -10 17 -42 20 -67 6z
m-19 -82 c0 -14 -11 -21 -26 -15 -8 3 -11 9 -8 14 7 11 34 12 34 1z"/>
<path d="M446 5641 c-4 -7 -5 -15 -2 -18 9 -9 19 4 14 18 -4 11 -6 11 -12 0z"/>
<path d="M8035 5439 c-4 -6 -5 -13 -2 -16 7 -7 27 6 27 18 0 12 -17 12 -25 -2z"/>
<path d="M8000 5394 c0 -8 5 -12 10 -9 6 3 10 10 10 16 0 5 -4 9 -10 9 -5 0
-10 -7 -10 -16z"/>
<path d="M8440 5390 c-8 -14 -6 -19 7 -22 15 -3 15 -4 0 -20 -9 -9 -17 -27
-17 -40 0 -22 1 -21 20 7 11 17 20 40 20 53 0 12 5 22 10 22 19 0 10 16 -10
17 -11 1 -24 -7 -30 -17z"/>
<path d="M7925 5328 c-27 -22 -57 -51 -65 -64 -8 -13 -18 -24 -22 -24 -5 0
-34 -25 -65 -55 -45 -42 -53 -55 -38 -54 27 0 199 164 189 180 -4 7 -3 9 3 6
9 -6 59 41 51 48 -2 2 -25 -15 -53 -37z"/>
<path d="M463 5275 c-9 -25 4 -29 17 -6 7 15 7 21 0 21 -6 0 -13 -7 -17 -15z"/>
<path d="M2258 5249 c-15 -8 -49 -63 -101 -162 -27 -52 -12 -70 59 -65 32 2
56 -2 63 -9 7 -7 18 -13 26 -13 12 0 14 19 14 98 -1 121 -22 173 -61 151z"/>
<path d="M7955 5243 c-31 -5 -54 -28 -55 -55 0 -20 29 -31 62 -23 12 3 36 2
51 -3 l28 -7 -20 -27 c-35 -44 -41 -71 -21 -96 17 -20 59 -30 73 -16 3 3 1 18
-5 34 -7 21 -6 36 6 59 26 49 20 76 -23 110 -21 17 -45 30 -52 30 -8 -1 -27
-4 -44 -6z"/>
<path d="M3954 5208 c-58 -45 -69 -77 -34 -101 24 -17 18 -43 -17 -70 -33 -27
-29 -53 15 -81 43 -28 113 -34 132 -11 10 12 9 16 -6 21 -83 30 -84 30 -72 65
6 18 23 51 38 73 33 50 42 83 29 108 -13 24 -50 23 -85 -4z"/>
<path d="M6147 5178 c-19 -29 -38 -64 -42 -78 -4 -14 -11 -27 -14 -30 -19 -14
-50 -80 -45 -93 7 -19 37 -31 78 -32 25 0 31 -6 43 -40 13 -39 30 -58 44 -49
4 2 5 65 2 139 -5 99 -2 146 7 176 12 35 12 42 -1 50 -26 16 -38 9 -72 -43z"/>
<path d="M4378 5198 c-31 -11 -38 -45 -12 -55 13 -5 15 -18 9 -90 -4 -46 -11
-98 -16 -116 -31 -103 -15 -647 22 -738 12 -30 6 -199 -9 -225 -8 -14 -24 -18
-75 -19 -63 -1 -117 -22 -117 -45 0 -6 26 -10 58 -10 49 0 62 -4 82 -24 27
-30 71 -41 98 -27 18 10 19 20 16 123 -7 198 -14 289 -24 308 -9 17 -26 217
-31 360 -2 59 11 311 17 321 11 19 44 165 44 198 0 44 -16 54 -62 39z"/>
<path d="M1483 5120 c-50 -30 -64 -68 -63 -168 3 -134 26 -284 73 -462 14 -52
33 -133 42 -180 9 -47 23 -115 31 -151 8 -37 14 -77 14 -90 0 -50 32 -206 51
-244 10 -22 19 -43 19 -47 0 -18 72 -117 89 -123 10 -3 30 -1 45 5 23 8 25 13
16 29 -5 11 -18 22 -28 26 -25 7 -76 71 -100 126 -22 48 -35 101 -57 229 -8
47 -21 119 -30 160 -8 41 -20 102 -26 135 -6 33 -17 83 -25 110 -12 47 -40
183 -61 300 -13 74 -9 225 8 260 8 16 25 35 37 41 39 19 47 31 32 49 -16 20
-28 19 -67 -5z"/>
<path d="M7684 5095 c-4 -8 -10 -15 -14 -15 -7 0 -128 -112 -200 -185 -8 -8
-26 -25 -39 -38 -13 -12 -29 -28 -35 -36 -6 -7 -63 -67 -126 -132 l-115 -119
-61 0 c-55 0 -62 2 -67 22 -15 55 32 159 91 204 14 11 15 15 3 23 -20 13 -36
5 -81 -40 -47 -47 -69 -112 -71 -217 -1 -40 0 -73 2 -75 2 -1 18 -10 34 -19
17 -9 30 -21 30 -26 0 -10 -333 -352 -519 -532 -60 -58 -127 -130 -149 -160
-22 -30 -44 -57 -49 -58 -5 -2 -15 -17 -23 -33 -13 -23 -13 -32 -3 -49 21 -34
47 -20 79 42 29 56 226 272 499 547 41 42 98 103 125 135 28 32 70 77 94 100
25 22 52 49 62 58 10 9 26 32 35 50 17 33 138 172 208 240 51 49 66 49 62 1
-2 -28 3 -46 21 -69 29 -39 29 -49 -3 -95 -14 -20 -31 -57 -39 -82 -12 -41
-12 -47 5 -62 16 -15 18 -15 24 0 3 9 6 24 6 33 0 20 45 108 68 135 10 11 30
17 61 17 87 0 142 83 91 138 -12 12 -25 22 -30 22 -17 0 -16 36 3 63 11 16 16
32 11 37 -11 10 -44 -15 -69 -54 -17 -26 -22 -27 -64 -21 -25 4 -50 9 -54 12
-5 3 44 57 107 120 64 62 116 118 116 123 0 16 -20 11 -26 -5z m-140 -313 c2
-4 1 -14 -4 -21 -11 -19 -41 -6 -34 14 6 16 29 20 38 7z m96 -17 c10 -13 10
-19 -5 -35 -16 -18 -55 -28 -55 -15 0 13 31 65 39 65 5 0 14 -7 21 -15z"/>
<path d="M7761 5067 c-15 -39 -14 -57 4 -64 19 -7 20 -5 28 28 4 15 1 33 -7
45 -14 18 -15 18 -25 -9z"/>
<path d="M1179 5024 c-10 -13 -10 -21 3 -47 9 -18 19 -44 22 -58 5 -25 34 -43
64 -40 25 3 11 -36 -23 -65 -44 -36 -45 -54 -4 -54 22 0 41 10 65 34 47 47 47
88 -1 132 -19 17 -35 41 -35 52 0 19 -47 62 -68 62 -5 0 -15 -7 -23 -16z"/>
<path d="M5081 5004 c-24 -17 -27 -51 -12 -131 12 -59 13 -98 12 -438 0 -143
1 -273 3 -290 2 -16 7 -60 11 -97 6 -60 11 -70 49 -111 63 -65 121 -72 169
-19 15 17 17 24 7 42 -10 19 -17 21 -54 16 -36 -6 -45 -3 -63 16 -63 69 -74
148 -77 558 -2 179 -6 344 -10 368 l-7 42 59 0 c44 0 61 -4 66 -15 3 -8 15
-15 26 -15 29 0 27 45 -2 64 -36 22 -150 28 -177 10z"/>
<path d="M931 4977 c-48 -24 -46 -61 12 -242 14 -44 31 -106 36 -138 6 -32 13
-62 15 -66 3 -4 14 -43 26 -87 12 -43 29 -95 37 -114 9 -19 36 -78 60 -130 79
-171 103 -225 103 -235 0 -3 -15 -5 -33 -5 -33 0 -103 22 -188 58 -50 22 -78
16 -62 -13 10 -18 144 -75 176 -75 19 0 61 -25 89 -52 21 -21 59 -23 76 -6 16
16 15 59 -3 82 -8 11 -15 28 -15 38 0 10 -4 26 -10 36 -27 50 -118 252 -167
372 -47 116 -110 354 -119 453 -2 32 1 39 20 46 12 5 34 7 49 4 22 -4 27 -2
27 15 0 14 -14 30 -43 47 -50 29 -53 29 -86 12z"/>
<path d="M3732 4928 c3 -7 19 -17 36 -22 17 -6 50 -26 74 -46 40 -35 42 -39
46 -104 7 -103 -31 -205 -98 -263 -31 -27 -17 -48 27 -39 51 12 109 144 118
275 5 72 3 84 -17 115 -33 50 -105 96 -152 96 -26 0 -36 -4 -34 -12z"/>
<path d="M3434 4869 c-58 -115 -83 -321 -48 -395 18 -37 88 -94 116 -94 27 0
22 11 -30 62 -61 60 -74 100 -62 193 11 84 32 147 66 197 28 40 29 81 2 86
-12 2 -25 -12 -44 -49z"/>
<path d="M2295 4900 c-9 -15 4 -50 20 -50 7 0 13 -6 12 -12 -2 -73 5 -178 13
-178 17 0 40 58 40 104 0 55 -25 123 -51 136 -22 12 -26 12 -34 0z"/>
<path d="M450 4879 c0 -5 5 -7 10 -4 6 3 10 8 10 11 0 2 -4 4 -10 4 -5 0 -10
-5 -10 -11z"/>
<path d="M1999 4861 c-27 -34 -25 -61 5 -61 13 0 26 7 30 15 7 19 30 19 45 1
9 -11 8 -17 -2 -28 -8 -8 -18 -28 -21 -45 -6 -26 -3 -34 13 -42 11 -6 26 -10
33 -9 6 2 13 -4 15 -13 3 -14 -49 -44 -109 -63 -12 -3 -15 -11 -11 -22 15 -40
170 12 198 67 12 23 11 29 -8 57 -12 18 -28 32 -34 32 -9 0 -13 17 -13 50 0
66 -24 92 -81 88 -30 -2 -47 -10 -60 -27z"/>
<path d="M1687 4858 c-27 -21 -45 -79 -53 -170 -8 -100 3 -144 48 -188 16 -17
33 -30 37 -30 15 0 -1 52 -18 58 -24 9 -26 15 -29 91 -4 77 16 157 47 197 32
40 8 71 -32 42z"/>
<path d="M3052 4809 c-34 -33 -40 -57 -20 -77 17 -17 38 -15 61 6 19 16 19 16
15 -3 -2 -11 -10 -19 -16 -17 -7 1 -12 -5 -12 -13 0 -8 -5 -24 -12 -34 -6 -10
-8 -26 -4 -36 5 -14 13 -16 42 -10 73 13 87 -46 27 -118 -39 -46 -58 -57 -106
-57 -32 0 -45 -23 -27 -45 20 -24 78 -8 133 38 61 50 89 104 83 157 -5 38 -31
90 -45 90 -4 0 -3 27 2 60 12 72 1 90 -52 90 -28 0 -45 -8 -69 -31z"/>
<path d="M5842 4794 l-42 -36 -36 21 c-65 38 -99 7 -108 -98 -3 -36 -10 -69
-16 -75 -12 -12 -14 -56 -2 -56 4 0 16 7 26 15 11 8 39 15 61 15 31 0 53 8 83
30 52 37 66 63 57 107 -5 28 -1 41 19 68 14 19 26 36 26 39 0 16 -31 2 -68
-30z"/>
<path d="M3591 4794 c-17 -14 -31 -32 -31 -40 0 -16 26 -19 35 -4 10 16 35 11
35 -7 0 -9 -7 -24 -16 -34 -20 -23 -11 -53 21 -67 14 -6 25 -16 25 -21 0 -16
-50 -70 -70 -76 -30 -9 -25 -35 6 -35 33 0 87 32 108 65 24 37 23 90 -3 125
-17 24 -19 34 -11 49 7 13 7 28 0 45 -13 35 -58 35 -99 0z"/>
<path d="M4626 4664 c-19 -18 -20 -28 -5 -55 13 -26 55 -41 90 -34 29 7 49 37
28 44 -6 2 -20 12 -29 21 -18 18 -53 40 -64 40 -2 0 -12 -7 -20 -16z"/>
<path d="M2628 4567 c-48 -10 -62 -25 -51 -53 5 -13 15 -15 52 -9 98 13 129
33 99 63 -14 14 -33 13 -100 -1z"/>
<path d="M2150 4516 c-70 -28 -149 -63 -162 -72 -32 -25 -136 -46 -220 -46
-88 0 -101 -5 -74 -27 33 -27 283 2 318 37 7 7 20 12 29 12 10 0 39 11 66 24
65 33 132 49 187 44 48 -3 58 6 29 28 -23 17 -128 17 -173 0z"/>
<path d="M6387 4512 c-21 -4 -22 -36 -1 -56 19 -20 52 -20 117 -1 68 20 85 31
71 45 -10 10 -151 19 -187 12z"/>
<path d="M7845 4510 c-55 -3 -106 -9 -112 -13 -18 -11 -239 -58 -301 -64 -52
-5 -76 -23 -56 -43 12 -11 117 5 239 36 97 25 291 53 368 54 58 0 43 23 -23
34 -8 1 -60 0 -115 -4z"/>
<path d="M5940 4504 c-136 -16 -302 -54 -351 -82 -28 -16 -30 -52 -2 -52 10 0
12 6 8 20 -5 16 -2 19 22 18 15 0 51 5 78 11 28 7 87 16 132 21 45 4 87 11 94
15 6 4 65 7 130 6 95 -1 119 2 119 13 0 8 -8 17 -17 21 -22 8 -166 14 -213 9z"/>
<path d="M15 4469 c-4 -6 -5 -12 -2 -15 2 -3 7 2 10 11 7 17 1 20 -8 4z"/>
<path d="M10 2215 l0 -2216 127 3 c105 2 128 6 129 18 0 8 -1 10 -3 4 -2 -7
-13 -10 -24 -7 -26 7 -19 26 12 34 24 6 24 6 -5 14 -24 6 -26 9 -12 17 9 5 16
18 16 29 0 11 -4 18 -9 15 -5 -3 -16 5 -25 19 -10 15 -12 26 -6 30 6 3 10 0
10 -8 0 -17 37 -30 46 -16 3 5 0 9 -7 9 -7 0 -9 10 -7 25 3 14 2 27 -2 30 -4
2 -6 18 -5 34 1 17 -2 28 -7 25 -17 -11 -28 7 -16 26 7 10 16 16 20 14 4 -3 8
0 8 6 0 7 -8 9 -21 5 -19 -6 -20 -5 -9 15 9 18 9 24 0 30 -7 5 -9 13 -5 21 6
9 3 11 -8 6 -10 -3 -17 -2 -17 3 0 6 7 10 17 10 14 0 14 3 -3 22 -10 12 -13
18 -6 14 15 -9 15 -1 2 24 -7 13 -7 21 0 25 6 3 15 -4 20 -17 l10 -23 -3 25
c-1 15 -12 30 -27 37 -18 9 -20 13 -7 13 20 0 23 20 5 38 -8 8 -9 12 -1 12 12
0 12 18 0 38 -5 7 -3 12 3 12 6 0 8 5 5 10 -4 6 -1 18 7 27 11 15 11 16 -6 10
-14 -6 -17 -4 -12 10 4 9 1 21 -6 26 -9 6 -6 7 10 4 12 -3 22 -1 22 4 0 5 -4
9 -10 9 -24 0 -7 20 18 21 20 1 22 2 7 6 -11 3 -26 10 -33 16 -11 9 -10 12 2
19 21 12 20 45 -1 57 -10 6 -12 11 -5 11 20 0 14 41 -8 47 -30 8 -25 31 5 25
32 -6 32 3 -3 33 -15 13 -21 25 -14 25 6 0 12 -4 12 -10 0 -5 5 -10 11 -10 6
0 8 9 4 20 -4 11 -2 20 4 20 11 0 9 190 -3 209 -4 6 0 11 10 11 14 0 15 3 6
12 -17 17 -15 45 5 57 14 7 15 12 5 24 -10 11 -10 17 -1 22 6 4 15 1 20 -6 5
-8 9 -9 9 -4 -1 6 -7 19 -15 30 -10 12 -13 30 -9 52 4 22 2 33 -6 33 -8 0 -10
11 -6 33 6 32 6 32 -10 9 -9 -12 -21 -22 -26 -22 -10 0 10 42 25 52 7 4 6 12
-2 22 -13 16 -6 21 21 17 5 0 8 6 8 14 0 9 -6 12 -15 9 -10 -4 -15 0 -15 15 0
12 -4 21 -9 21 -5 0 -11 16 -13 35 -3 27 0 36 14 41 11 3 18 15 18 31 0 15 -3
24 -6 20 -4 -3 -13 1 -21 9 -19 19 -9 31 12 14 8 -7 15 -11 16 -9 7 36 6 40
-6 35 -8 -3 -17 -1 -20 5 -4 5 1 12 9 15 9 3 13 10 10 15 -6 11 21 41 30 32 3
-4 6 -2 6 4 0 6 -7 13 -15 17 -15 5 -22 27 -7 25 19 -3 26 2 13 10 -8 5 -11
16 -7 26 5 15 9 15 23 4 15 -13 16 -11 10 11 -4 14 -7 28 -7 32 0 4 -9 10 -21
13 -15 5 -17 10 -10 19 13 15 -8 66 -26 66 -15 0 -18 36 -4 45 5 3 12 -3 15
-12 3 -10 3 8 1 40 -3 31 -2 57 2 57 5 0 9 23 10 52 1 29 8 55 15 60 9 5 6 8
-9 8 -20 0 -20 2 -10 31 11 27 10 33 -8 46 -13 10 -14 14 -4 10 9 -3 22 -1 30
4 12 7 12 9 0 9 -8 0 -11 7 -8 20 3 11 1 20 -4 20 -5 0 -7 11 -3 24 4 17 -1
30 -16 44 -21 19 -21 19 -1 25 25 6 20 48 -9 89 -14 19 -16 28 -7 31 6 3 2 6
-10 6 -13 1 -23 6 -23 12 0 7 10 9 25 7 14 -3 28 -1 32 4 6 12 -17 29 -29 22
-4 -3 -8 0 -8 5 0 6 5 11 10 11 6 0 10 9 10 21 0 11 5 17 10 14 14 -9 12 9 -2
24 -7 7 -8 12 -3 11 20 -4 35 0 35 10 0 6 -9 10 -20 10 -23 0 -26 8 -6 24 8 6
17 27 20 47 6 35 5 36 -19 31 -32 -6 -32 11 0 26 14 6 25 17 25 25 0 16 -36
48 -45 39 -3 -4 -3 1 1 11 3 9 10 17 16 17 5 0 6 -4 3 -10 -3 -6 4 -10 16 -10
21 0 21 0 -4 20 -14 11 -31 20 -39 20 -9 1 -7 5 5 14 14 11 15 15 5 19 -7 3
-1 6 15 6 15 1 27 6 27 11 0 10 -21 14 -47 11 -21 -3 -15 7 15 23 19 11 22 15
10 16 -20 0 -24 15 -8 25 19 12 11 38 -10 32 -21 -5 -21 -5 -1 26 23 38 26 48
14 56 -4 3 -16 21 -26 39 -18 31 -12 43 10 21 9 -9 10 -6 6 10 -3 12 -9 24
-14 27 -16 10 -9 23 9 17 14 -6 15 -4 5 9 -7 8 -10 18 -6 22 4 4 -1 4 -12 0
-19 -6 -19 -6 -3 11 15 17 15 19 -8 44 -25 27 -31 51 -13 51 5 0 8 -4 4 -9 -6
-10 13 -26 21 -18 3 2 2 17 -2 31 -5 21 -9 24 -20 15 -8 -6 -14 -8 -14 -3 0 4
-7 -1 -16 -12 -14 -18 -15 -18 -4 4 6 13 9 30 6 38 -3 8 -1 14 4 14 6 0 10 7
10 15 0 8 -3 15 -7 15 -5 0 -8 15 -7 32 1 26 6 34 22 36 32 5 27 22 -7 28 -17
4 -32 13 -36 22 -5 13 -7 13 -19 -3 -9 -13 -15 -15 -20 -7 -4 7 -2 12 4 12 6
0 10 8 8 18 -2 12 3 16 16 14 14 -3 17 1 12 13 -3 9 -6 18 -6 21 0 2 -7 1 -15
-2 -20 -8 -35 4 -28 22 3 9 12 12 25 8 17 -5 18 -3 9 15 -14 26 -27 27 -40 4
-10 -17 -10 -17 -11 -1 0 9 12 30 26 45 14 15 23 22 19 16 -7 -15 4 -17 24 -4
10 6 5 11 -18 16 -27 6 -30 9 -20 22 12 13 14 13 24 -1 13 -16 25 -11 25 10 0
8 -11 12 -27 11 -32 -2 -33 0 -33 51 0 24 3 32 9 23 6 -9 11 -10 15 -2 4 6 12
8 18 5 7 -4 8 -2 4 4 -4 7 -15 12 -26 12 -10 0 -20 7 -24 15 -3 8 0 15 6 15 6
0 3 9 -7 20 -9 10 -15 26 -12 35 4 8 2 15 -3 15 -6 0 -10 4 -10 10 0 5 7 7 15
4 20 -8 19 6 -1 21 -13 9 -14 16 -6 30 6 11 7 28 2 41 -5 12 -6 25 -2 30 4 4
-1 4 -11 1 -16 -6 -17 -2 -12 32 3 23 1 42 -5 46 -7 4 -10 -696 -10 -2210z
m17 2073 c-3 -8 -6 -5 -6 6 -1 11 2 17 5 13 3 -3 4 -12 1 -19z m93 -549 c0
-15 -4 -19 -16 -15 -9 3 -18 6 -20 6 -2 0 -4 7 -4 15 0 8 9 15 20 15 14 0 20
-7 20 -21z m-3 -51 c-3 -8 -6 -5 -6 6 -1 11 2 17 5 13 3 -3 4 -12 1 -19z m3
-28 c13 -9 13 -10 0 -10 -8 0 -22 5 -30 10 -13 9 -13 10 0 10 8 0 22 -5 30
-10z m-13 -92 c-3 -7 -5 -2 -5 12 0 14 2 19 5 13 2 -7 2 -19 0 -25z m79 -234
c-3 -8 -1 -14 4 -14 6 0 10 -9 10 -20 0 -24 -34 -43 -61 -35 -16 5 -18 9 -8
21 10 12 14 12 20 2 11 -17 22 -3 24 28 0 20 -3 24 -17 21 -10 -3 -18 -1 -18
3 0 10 31 19 43 12 5 -2 6 -10 3 -18z m-81 -54 c3 -5 -1 -10 -10 -10 -9 0 -13
5 -10 10 3 6 8 10 10 10 2 0 7 -4 10 -10z m125 -274 c0 -11 -19 -15 -25 -6 -3
5 1 10 9 10 9 0 16 -2 16 -4z m-13 -88 c-3 -8 -6 -5 -6 6 -1 11 2 17 5 13 3
-3 4 -12 1 -19z m-2 -308 c3 -5 1 -10 -4 -10 -6 0 -11 5 -11 10 0 6 2 10 4 10
3 0 8 -4 11 -10z m35 -630 c0 -5 -7 -10 -15 -10 -8 0 -15 5 -15 10 0 6 7 10
15 10 8 0 15 -4 15 -10z m-40 -260 c0 -5 -4 -10 -10 -10 -5 0 -10 5 -10 10 0
6 5 10 10 10 6 0 10 -4 10 -10z m-20 -425 c0 -8 -4 -15 -10 -15 -5 0 -7 7 -4
15 4 8 8 15 10 15 2 0 4 -7 4 -15z m10 -195 c0 -5 -2 -10 -4 -10 -3 0 -8 5
-11 10 -3 6 -1 10 4 10 6 0 11 -4 11 -10z m-4 -77 c-11 -11 -17 4 -9 23 7 18
8 18 11 1 2 -10 1 -21 -2 -24z"/>
<path d="M5886 4318 c-9 -12 -16 -28 -16 -35 0 -7 -23 -36 -51 -65 -56 -58
-73 -90 -63 -121 5 -17 12 -19 59 -14 49 5 54 3 78 -25 42 -47 52 -34 51 68
-1 76 -8 181 -13 207 -3 15 -30 6 -45 -15z"/>
<path d="M7666 4296 c-47 -44 -59 -76 -30 -76 9 0 22 8 29 17 7 9 22 18 34 20
18 2 21 -2 21 -30 0 -45 -60 -132 -131 -190 -32 -26 -62 -59 -65 -72 -17 -69
37 -75 91 -10 21 24 45 47 54 50 9 3 42 -1 72 -9 30 -8 64 -13 75 -11 10 2 22
4 26 4 18 2 58 50 58 70 0 24 -8 26 -35 7 -31 -20 -66 -26 -108 -16 -21 4 -41
11 -44 14 -7 7 16 66 33 86 8 9 23 46 34 83 25 82 17 107 -35 107 -26 0 -44
-10 -79 -44z"/>
<path d="M110 4271 c0 -5 9 -7 20 -4 11 3 20 7 20 9 0 2 -9 4 -20 4 -11 0 -20
-4 -20 -9z"/>
<path d="M100 4241 c0 -5 -3 -16 -6 -25 -3 -9 -2 -16 4 -16 5 0 12 11 14 25 3
14 1 25 -3 25 -5 0 -9 -4 -9 -9z"/>
<path d="M1987 4212 c-35 -75 -83 -159 -104 -187 -28 -34 -28 -41 -2 -55 17
-10 27 -7 57 14 20 14 51 27 68 30 31 6 31 5 37 -41 3 -29 12 -52 23 -60 40
-29 57 -8 44 53 -19 91 -30 163 -30 200 0 29 -6 47 -23 62 -33 31 -49 27 -70
-16z m43 -96 c0 -22 -6 -36 -16 -40 -24 -9 -34 -7 -29 7 19 54 26 67 35 67 5
0 10 -15 10 -34z"/>
<path d="M75 4170 c3 -5 8 -10 11 -10 2 0 4 5 4 10 0 6 -5 10 -11 10 -5 0 -7
-4 -4 -10z"/>
<path d="M96 4143 c-6 -14 -5 -15 5 -6 7 7 10 15 7 18 -3 3 -9 -2 -12 -12z"/>
<path d="M90 4049 c0 -24 23 -21 28 4 2 10 -3 17 -12 17 -10 0 -16 -9 -16 -21z"/>
<path d="M150 3998 c0 -9 5 -20 10 -23 13 -8 13 5 0 25 -8 13 -10 13 -10 -2z"/>
<path d="M181 3934 c0 -11 3 -14 6 -6 3 7 2 16 -1 19 -3 4 -6 -2 -5 -13z"/>
<path d="M141 3928 c-1 -10 -6 -18 -11 -18 -7 0 -7 -6 -2 -17 5 -10 7 -25 5
-33 -3 -8 2 -5 12 8 13 17 14 29 7 50 -7 17 -11 21 -11 10z"/>
<path d="M1407 3909 c-10 -67 -1 -128 23 -154 30 -32 61 -32 94 2 30 30 39 56
34 103 -4 42 -41 71 -101 77 -44 5 -44 5 -50 -28z m94 -51 c3 -53 -4 -66 -26
-48 -21 18 -16 70 7 70 12 0 18 -8 19 -22z"/>
<path d="M144 3829 c-19 -21 -19 -21 1 -18 12 3 19 -1 18 -8 -2 -7 1 -13 7
-13 5 0 8 13 7 30 -2 36 -8 37 -33 9z"/>
<path d="M576 3787 c3 -10 9 -15 12 -12 3 3 0 11 -7 18 -10 9 -11 8 -5 -6z"/>
<path d="M2083 3548 c-6 -7 -13 -28 -16 -46 -4 -18 -27 -64 -52 -103 -25 -38
-45 -77 -45 -87 0 -33 16 -45 49 -39 21 5 31 3 31 -6 1 -33 13 -94 22 -110 17
-33 28 -6 28 68 0 47 5 78 13 87 23 23 27 47 15 97 -7 33 -8 58 -1 77 17 49
-17 96 -44 62z"/>
<path d="M3800 3517 c0 -7 14 -26 30 -42 17 -16 30 -34 30 -40 0 -6 16 -26 35
-45 19 -19 35 -38 35 -42 0 -5 9 -28 21 -51 30 -61 54 -337 30 -351 -5 -3 -12
-27 -15 -53 -4 -27 -12 -61 -18 -76 -12 -31 -1 -51 21 -38 20 13 61 187 61
261 0 86 -16 189 -41 273 -20 67 -28 79 -126 183 -33 35 -63 45 -63 21z"/>
<path d="M3473 3423 c-7 -2 -13 -10 -13 -17 0 -15 46 -59 78 -76 134 -69 170
-250 86 -436 -12 -27 -35 -62 -50 -77 -28 -29 -27 -57 3 -57 25 1 45 19 62 55
35 77 41 93 55 135 23 70 16 242 -12 300 -23 48 -83 111 -146 154 -40 27 -43
28 -63 19z"/>
<path d="M2659 3403 c-1 -5 -1 -12 0 -17 2 -10 6 -74 16 -256 18 -349 32 -449
76 -545 34 -76 58 -103 98 -111 38 -8 39 2 4 44 -54 61 -72 89 -79 118 -4 16
-10 34 -14 39 -13 18 -24 94 -35 260 -4 49 -9 93 -11 96 -2 4 -4 86 -5 183 0
161 -2 177 -19 186 -22 12 -30 13 -31 3z"/>
<path d="M3110 3325 c-18 -21 -19 -166 -4 -345 14 -161 23 -194 69 -248 23
-27 33 -32 71 -32 24 0 44 3 44 8 0 4 -17 17 -38 29 -64 36 -95 92 -107 192
-11 95 -12 328 -2 379 7 35 -10 45 -33 17z"/>
<path d="M4191 3287 c-8 -10 -7 -19 3 -33 24 -32 116 -13 116 24 0 24 -100 31
-119 9z"/>
<path d="M2423 3237 c-14 -30 1 -61 17 -37 12 18 12 31 2 48 -6 9 -11 6 -19
-11z"/>
<path d="M3380 3241 c0 -6 -9 -11 -20 -11 -43 0 -81 -90 -60 -145 8 -21 16
-25 47 -25 21 0 43 -4 49 -8 6 -4 16 -47 23 -97 16 -109 18 -118 31 -110 6 4
9 74 7 183 -2 141 -5 180 -17 193 -19 21 -60 34 -60 20z m8 -73 c-3 -7 -13
-15 -23 -16 -15 -4 -16 -2 -4 12 17 19 32 21 27 4z"/>
<path d="M1689 3213 c-18 -4 -44 -61 -52 -113 -4 -19 -11 -61 -16 -93 -18
-106 14 -259 55 -263 5 0 17 -4 27 -8 11 -5 27 -2 42 8 37 24 31 39 -14 34
-47 -4 -54 3 -67 69 -16 81 9 253 37 253 5 0 18 14 29 32 17 28 17 34 4 60 -8
15 -18 27 -22 27 -4 -1 -14 -3 -23 -6z"/>
<path d="M4237 3213 c-14 -13 -7 -42 11 -45 43 -9 83 16 66 43 -6 10 -67 12
-77 2z"/>
<path d="M5960 3174 c-19 -7 -44 -13 -55 -13 -50 -2 -110 -102 -95 -160 6 -26
53 -49 101 -50 52 -2 38 -54 -22 -85 -33 -16 -34 -34 -5 -46 34 -13 72 2 107
41 54 61 47 124 -16 146 -22 8 -52 12 -67 10 -23 -3 -28 0 -27 17 1 41 33 80
75 91 52 13 84 33 84 50 0 18 -31 18 -80 -1z"/>
<path d="M2840 3167 c-16 -8 -26 -23 -28 -40 -4 -31 0 -33 32 -12 22 15 56 12
56 -5 0 -4 -7 -24 -15 -45 -21 -50 -12 -73 33 -82 20 -4 40 -6 45 -5 4 1 7
-13 7 -31 0 -22 -9 -43 -30 -65 -34 -38 -36 -45 -15 -62 35 -29 94 46 99 125
3 39 0 46 -32 72 -19 15 -40 31 -46 35 -6 4 -9 28 -8 54 1 26 -3 53 -9 61 -14
16 -56 17 -89 0z"/>
<path d="M1870 3143 c-17 -7 -30 -23 -30 -40 0 -17 30 -44 41 -38 13 9 11 -42
-3 -66 -18 -29 13 -53 47 -37 36 16 57 4 49 -29 -11 -46 -49 -77 -84 -70 -25
6 -30 3 -30 -13 0 -11 11 -27 24 -35 22 -14 27 -14 62 2 30 14 43 30 64 77 39
86 33 102 -54 130 -14 5 -17 13 -13 34 3 15 -1 42 -8 59 -14 32 -30 39 -65 26z"/>
<path d="M1066 3114 c-15 -14 -16 -29 -10 -98 8 -107 17 -149 32 -154 9 -3 12
24 12 105 0 61 5 114 10 119 7 7 4 16 -9 28 -17 16 -20 16 -35 0z"/>
<path d="M5695 3045 c-25 -15 -55 -24 -81 -25 -51 0 -72 -20 -56 -54 9 -21 14
-22 64 -16 29 4 57 5 61 3 7 -4 1 -144 -8 -189 -5 -23 18 -50 34 -40 5 4 13
28 16 54 4 26 17 91 31 144 18 73 22 103 14 122 -12 32 -24 32 -75 1z"/>
<path d="M758 2945 c-8 -18 -8 -31 0 -49 21 -47 64 -61 165 -57 51 2 50 27 -2
36 -28 5 -52 19 -84 51 -25 24 -50 44 -56 44 -6 0 -17 -11 -23 -25z"/>
<path d="M2482 2917 c-24 -11 -47 -28 -53 -38 -5 -11 -16 -19 -23 -19 -15 0
-46 -32 -46 -47 0 -23 41 -21 67 3 14 13 29 24 34 24 4 0 14 6 22 14 8 8 31
23 52 33 21 10 37 23 36 28 -3 21 -48 22 -89 2z"/>
<path d="M5168 2832 c-47 -29 -68 -87 -68 -191 0 -128 18 -158 96 -168 58 -7
135 85 103 123 -11 13 -25 15 -76 10 -68 -7 -65 -10 -65 54 0 55 5 68 37 105
38 43 44 69 19 79 -9 3 -16 6 -17 5 -1 0 -14 -8 -29 -17z"/>
<path d="M1080 2773 c-22 -8 -60 -45 -60 -58 0 -7 11 -10 30 -7 17 2 30 8 30
12 0 5 23 14 50 21 63 16 67 39 8 38 -24 0 -50 -3 -58 -6z"/>
<path d="M855 2720 c-8 -13 3 -50 16 -50 6 0 7 -6 3 -12 -6 -10 -4 -10 7 0 7
6 22 12 33 12 31 0 86 23 86 35 0 8 -14 10 -47 5 -34 -6 -54 -4 -69 7 -15 9
-24 11 -29 3z"/>
<path d="M2026 2702 c-2 -1 -34 -10 -72 -21 -38 -10 -82 -23 -99 -29 -46 -16
-127 -33 -181 -37 -114 -9 -189 -17 -196 -21 -4 -3 -5 -11 -2 -19 4 -10 22
-13 72 -10 85 4 252 24 263 31 5 3 35 12 66 20 124 31 223 67 223 79 0 9 -12
13 -36 12 -19 -1 -37 -3 -38 -5z"/>
<path d="M225 2681 c-3 -5 -1 -12 5 -16 5 -3 10 1 10 9 0 18 -6 21 -15 7z"/>
<path d="M5360 2684 c0 -8 27 -34 35 -34 8 0 35 26 35 34 0 3 -16 6 -35 6 -19
0 -35 -3 -35 -6z"/>
<path d="M4802 2574 c-41 -27 -53 -40 -50 -57 2 -12 10 -23 19 -25 24 -4 149
80 146 98 -4 29 -59 22 -115 -16z"/>
<path d="M1087 2531 c-9 -15 -14 -31 -10 -34 3 -4 1 -12 -4 -19 -5 -7 -16 -34
-23 -61 -7 -26 -17 -50 -21 -53 -5 -3 -9 -23 -9 -45 0 -52 21 -52 91 1 30 22
57 40 61 40 8 0 22 -20 24 -35 1 -5 4 -23 7 -40 8 -52 39 -135 49 -135 7 0 8
15 5 38 -4 20 -10 71 -13 112 -10 107 -84 260 -126 260 -8 0 -21 -13 -31 -29z
m61 -118 c-6 -7 -19 -13 -29 -13 -24 0 -25 27 -2 60 l17 24 12 -30 c8 -20 9
-33 2 -41z"/>
<path d="M3980 2465 c0 -23 16 -68 44 -123 65 -131 72 -162 48 -249 -11 -39
-40 -108 -64 -152 -37 -69 -41 -83 -28 -91 12 -8 24 -1 53 32 21 24 40 54 43
68 3 14 14 44 25 67 13 28 21 69 23 125 3 74 0 93 -26 159 -16 41 -36 82 -45
91 -8 9 -20 36 -27 60 -17 56 -46 65 -46 13z"/>
<path d="M3616 2457 c-11 -7 -33 -25 -50 -42 -23 -23 -38 -29 -68 -29 -21 1
-45 7 -54 15 -13 10 -17 10 -25 -2 -12 -19 -11 -43 2 -56 17 -17 107 -5 152
19 l39 20 -6 -68 c-4 -45 -11 -73 -21 -80 -8 -6 -15 -16 -15 -23 0 -6 -8 -11
-18 -11 -16 0 -62 -41 -62 -55 0 -3 23 -3 51 1 l51 7 -6 -39 c-11 -71 -10
-134 2 -146 20 -20 29 2 40 110 6 57 15 109 21 116 7 8 9 31 5 57 -4 30 -1 57
10 83 23 54 21 113 -3 126 -23 12 -21 12 -45 -3z"/>
<path d="M4350 2442 c0 -5 -12 -14 -26 -21 -26 -12 -26 -12 -8 -30 16 -15 23
-16 49 -5 34 14 42 29 25 49 -13 16 -40 20 -40 7z"/>
<path d="M3210 2365 c-14 -7 -34 -30 -44 -50 -20 -36 -20 -36 2 -57 21 -21 22
-21 42 -3 20 18 20 18 20 -36 -1 -39 -9 -70 -30 -114 -47 -94 -34 -150 25
-111 23 15 55 13 55 -4 0 -12 49 -22 71 -15 25 8 25 35 0 35 -23 0 -69 56 -80
97 -4 17 -2 46 6 72 20 67 17 164 -5 184 -22 20 -29 20 -62 2z"/>
<path d="M4360 2345 c-14 -17 -5 -35 19 -35 20 0 54 33 44 43 -12 12 -50 7
-63 -8z"/>
<path d="M230 2261 c0 -6 4 -13 10 -16 6 -3 7 1 4 9 -7 18 -14 21 -14 7z"/>
<path d="M1967 2163 c-10 -10 -8 -91 2 -111 5 -9 15 -37 21 -62 15 -60 44
-100 61 -83 9 9 10 19 2 35 -11 24 -34 101 -54 181 -11 45 -18 54 -32 40z"/>
<path d="M1717 2149 c-25 -15 -50 -68 -43 -93 3 -11 19 -30 36 -41 l31 -20 -6
-71 c-7 -84 0 -93 67 -91 87 4 109 50 60 129 -17 27 -21 42 -14 54 12 21 4 54
-13 54 -6 0 -20 -9 -30 -20 -22 -25 -37 -25 -58 -2 -22 24 -7 47 26 38 32 -8
42 6 25 36 -7 13 -13 24 -13 25 0 8 -54 11 -68 2z m117 -260 c-7 -13 -54 -11
-54 2 0 6 5 20 11 32 l12 21 18 -23 c11 -13 16 -27 13 -32z"/>
<path d="M2865 2118 c-22 -5 -51 -17 -64 -27 -20 -15 -22 -21 -12 -39 16 -29
29 -28 84 9 68 45 64 73 -8 57z"/>
<path d="M1277 1843 c-11 -10 -8 -65 3 -58 5 3 7 0 4 -9 -8 -20 37 -79 49 -67
15 15 10 71 -10 108 -17 32 -32 40 -46 26z"/>
<path d="M2035 1772 c-11 -2 -29 -7 -40 -12 -11 -4 -45 -13 -75 -19 -30 -6
-77 -17 -105 -25 -27 -7 -72 -16 -100 -19 -27 -3 -52 -6 -55 -6 -2 -1 1 -6 8
-13 15 -15 123 -11 179 8 26 9 58 18 72 21 14 2 46 9 71 13 25 5 69 14 97 19
122 23 75 52 -52 33z"/>
<path d="M894 1708 c3 -13 10 -84 16 -158 6 -74 15 -151 21 -170 5 -19 9 -54
9 -77 0 -23 5 -65 11 -95 6 -29 13 -63 15 -75 2 -13 8 -23 13 -23 10 0 6 55
-8 119 -9 40 -37 325 -44 451 -1 34 -6 46 -20 48 -14 3 -17 -1 -13 -20z"/>
<path d="M200 1676 c0 -2 9 -6 20 -9 11 -3 20 -1 20 4 0 5 -9 9 -20 9 -11 0
-20 -2 -20 -4z"/>
<path d="M230 1620 c0 -5 5 -10 11 -10 5 0 7 5 4 10 -3 6 -8 10 -11 10 -2 0
-4 -4 -4 -10z"/>
<path d="M1330 1599 c-74 -11 -132 -31 -138 -48 -4 -11 2 -13 29 -7 19 4 50 9
69 11 107 12 131 18 126 32 -4 8 -6 17 -6 19 0 5 -8 4 -80 -7z"/>
<path d="M1376 1531 c-9 -16 -16 -35 -16 -41 0 -6 -14 -31 -31 -56 -45 -65
-68 -125 -62 -156 3 -16 12 -28 19 -28 17 0 116 51 126 64 3 5 11 -7 16 -28
18 -63 36 -96 54 -96 26 0 31 18 15 53 -9 18 -18 64 -20 102 -3 39 -8 78 -12
88 -7 17 -9 17 -26 -2 -11 -11 -19 -24 -19 -29 0 -15 -36 -42 -55 -42 -17 0
-17 1 -3 13 9 6 19 26 23 42 3 17 15 40 26 51 16 18 19 28 12 55 -12 43 -28
47 -47 10z"/>
<path d="M1001 1023 c-1 -12 4 -25 9 -28 12 -7 12 2 0 30 -8 19 -9 19 -9 -2z"/>
<path d="M215 780 c-3 -5 -1 -10 4 -10 6 0 11 5 11 10 0 6 -2 10 -4 10 -3 0
-8 -4 -11 -10z"/>
<path d="M7815 10 c-3 -5 -1 -10 4 -10 6 0 11 5 11 10 0 6 -2 10 -4 10 -3 0
-8 -4 -11 -10z"/>
</g>
</svg>
