<?xml version="1.0" standalone="no"?>
<!DOCTYPE svg PUBLIC "-//W3C//DTD SVG 20010904//EN"
 "http://www.w3.org/TR/2001/REC-SVG-20010904/DTD/svg10.dtd">
<svg version="1.0" xmlns="http://www.w3.org/2000/svg"
 width="1618.000000pt" height="1214.000000pt" viewBox="0 0 1618.000000 1214.000000"
 preserveAspectRatio="xMidYMid meet">

<g transform="translate(0.000000,1214.000000) scale(0.100000,-0.100000)"
fill="#000000" stroke="none">
<path d="M12416 11723 c-3 -3 -6 -18 -6 -32 0 -14 -14 -65 -32 -112 l-33 -86
-50 -2 c-55 -2 -73 -12 -52 -29 9 -8 24 -9 45 -3 17 5 33 7 36 4 3 -3 -9 -32
-25 -65 -22 -43 -27 -64 -20 -71 14 -14 21 -5 51 63 32 72 38 80 66 80 29 0
31 15 5 30 -19 10 -19 11 4 63 27 58 43 151 28 160 -6 4 -13 4 -17 0z"/>
<path d="M11675 11676 c-10 -14 -19 -47 -21 -73 -2 -27 -10 -64 -18 -83 -8
-19 -19 -49 -26 -67 -10 -25 -18 -33 -43 -35 -38 -4 -39 -22 -2 -26 29 -4 29
-2 11 -69 -9 -34 -11 -55 -4 -59 15 -10 24 6 38 69 11 46 19 61 37 68 25 9 23
29 -2 29 -12 0 -12 6 1 35 8 20 26 77 39 128 26 95 21 131 -10 83z"/>
<path d="M10788 11660 c-105 -69 -120 -109 -68 -175 41 -51 42 -105 3 -133
-41 -28 -72 -36 -89 -21 -21 18 -42 -4 -24 -26 16 -19 53 -19 95 1 85 40 102
111 46 189 -17 24 -31 50 -31 58 0 9 19 31 43 50 74 60 110 71 133 40 12 -17
13 -17 19 0 22 55 -54 65 -127 17z"/>
<path d="M11211 11598 c-12 -40 -34 -102 -49 -138 -31 -77 -38 -128 -16 -137
26 -10 101 27 133 64 34 40 36 45 21 74 -13 23 -35 24 -72 5 -34 -18 -34 -18
-4 69 36 106 41 135 23 135 -10 0 -22 -25 -36 -72z m63 -156 c15 -24 -70 -89
-101 -78 -19 8 -10 21 39 57 43 31 54 34 62 21z"/>
<path d="M7971 11623 c-17 -21 -31 -41 -31 -46 0 -4 -14 -41 -31 -81 -24 -57
-37 -76 -55 -80 -27 -7 -33 -36 -8 -36 11 0 14 -5 10 -16 -3 -9 -6 -18 -6 -20
0 -2 -7 -4 -16 -4 -23 0 -13 -34 11 -37 16 -1 16 -1 3 3 -25 8 -22 27 2 21 16
-4 24 3 38 31 14 30 26 39 75 55 32 10 61 17 64 13 3 -3 -4 -26 -16 -51 -23
-48 -27 -75 -11 -75 11 0 70 115 70 136 0 21 -60 27 -109 10 -24 -9 -45 -16
-47 -16 -1 0 11 30 27 66 17 37 28 73 25 80 -3 8 0 14 7 14 7 0 18 9 25 20 7
11 19 20 27 20 8 0 15 7 15 15 0 28 -38 15 -69 -22z"/>
<path d="M7415 11554 c3 -59 1 -71 -25 -113 -32 -52 -95 -121 -111 -121 -26 0
-19 34 15 69 52 53 49 85 -4 38 -61 -53 -75 -100 -40 -132 18 -17 21 -16 55 5
41 25 107 108 130 163 24 58 17 157 -11 157 -10 0 -12 -16 -9 -66z"/>
<path d="M7630 11586 c0 -20 4 -36 9 -36 6 0 6 -12 0 -32 -12 -43 -11 -48 4
-48 37 0 40 141 4 148 -13 3 -17 -4 -17 -32z"/>
<path d="M13801 11591 c-12 -16 -21 -32 -21 -35 0 -4 -9 -17 -20 -29 -17 -17
-23 -19 -29 -8 -13 20 -47 5 -77 -34 -33 -44 -42 -106 -20 -140 16 -24 15 -28
-29 -110 -45 -87 -52 -109 -36 -119 5 -3 30 37 56 89 48 94 48 95 85 95 45 0
117 48 126 85 11 44 -12 95 -48 107 -15 5 34 86 57 95 22 8 18 33 -4 33 -11 0
-29 -13 -40 -29z m-71 -116 c0 -3 -14 -33 -31 -67 -26 -52 -33 -59 -41 -44
-15 26 -1 83 25 101 21 15 47 20 47 10z m70 -36 c17 -31 4 -65 -34 -88 -31
-20 -66 -28 -66 -16 0 3 14 32 30 65 32 63 52 74 70 39z"/>
<path d="M15510 11588 c-11 -18 -20 -37 -20 -41 0 -16 -38 -49 -44 -38 -12 18
-52 -9 -75 -49 -25 -44 -27 -96 -6 -120 13 -15 11 -25 -20 -99 -32 -76 -36
-101 -16 -101 4 0 23 39 42 86 19 47 39 87 44 89 6 1 29 8 52 14 73 20 100
110 46 149 -26 19 -27 21 -12 39 20 21 49 78 49 93 0 21 -21 9 -40 -22z m-72
-126 c-1 -4 -12 -29 -23 -55 -22 -52 -35 -60 -35 -22 0 35 27 85 46 85 9 0 14
-4 12 -8z m60 -14 c26 -26 1 -79 -45 -93 -28 -8 -28 1 -3 59 20 48 28 54 48
34z"/>
<path d="M12573 11595 c-8 -21 1 -28 26 -20 12 4 18 12 14 21 -7 19 -32 18
-40 -1z"/>
<path d="M9905 11571 c-3 -6 -9 -34 -12 -63 -7 -67 -24 -101 -65 -131 -38 -27
-96 -52 -104 -44 -3 3 6 26 21 51 24 41 27 74 5 61 -18 -11 -72 -116 -66 -130
8 -21 59 -19 111 6 38 18 61 39 127 119 16 19 17 132 1 137 -6 2 -14 -1 -18
-6z"/>
<path d="M14585 11546 c-19 -21 -35 -42 -35 -49 0 -6 -6 -2 -14 8 -13 18 -15
18 -49 2 -19 -9 -40 -17 -46 -17 -6 0 -11 -7 -11 -15 0 -8 6 -15 14 -15 11 0
11 -7 -1 -42 -8 -24 -12 -58 -9 -76 4 -25 -3 -46 -28 -90 -42 -71 -52 -102
-34 -102 7 0 30 32 51 70 36 66 40 70 74 70 69 0 122 94 90 159 -13 26 -13 32
3 55 9 15 25 33 36 40 15 12 16 17 7 27 -10 10 -20 5 -48 -25z m-87 -139 c-39
-67 -42 -69 -33 -27 11 53 33 90 49 84 12 -4 8 -16 -16 -57z m68 -10 c-7 -34
-42 -77 -63 -77 -18 0 -17 3 18 65 33 58 55 64 45 12z"/>
<path d="M15833 11563 c-17 -6 -16 -32 2 -67 21 -39 19 -48 -14 -80 -45 -43
-46 -64 -5 -103 20 -18 42 -33 50 -33 22 0 36 48 32 112 -3 56 -2 58 30 75 38
21 50 49 29 70 -18 19 -37 10 -31 -15 3 -11 -5 -23 -24 -34 -28 -17 -28 -17
-40 15 -8 20 -8 35 -2 41 21 21 5 33 -27 19z m33 -229 c-4 -12 -10 -12 -26 -4
-26 14 -25 38 3 68 l22 24 3 -37 c2 -20 1 -44 -2 -51z"/>
<path d="M8146 11551 c-3 -4 3 -16 13 -25 21 -19 37 -7 27 19 -6 16 -32 20
-40 6z"/>
<path d="M14770 11531 c0 -11 -22 -46 -50 -77 -49 -56 -62 -85 -37 -83 6 0 32
4 57 8 l45 7 -9 -68 c-7 -50 -7 -71 2 -80 17 -17 22 -7 27 54 6 85 14 108 37
105 29 -3 35 23 8 30 -16 4 -20 11 -16 27 18 65 19 63 -15 80 -41 21 -49 20
-49 -3z m36 -62 c-13 -43 -29 -59 -60 -59 -18 0 -18 2 3 24 13 14 20 29 17 35
-6 9 29 41 45 41 4 0 1 -18 -5 -41z"/>
<path d="M15163 11525 c-26 -16 -40 -31 -37 -39 4 -11 14 -9 47 10 23 13 49
24 59 24 14 0 15 -4 5 -32 -12 -33 -94 -123 -132 -144 -15 -9 -17 -15 -9 -23
8 -9 19 -7 42 6 l32 18 30 -32 c29 -30 60 -44 60 -25 0 4 -16 24 -36 46 l-35
39 30 31 c41 43 67 111 51 131 -18 22 -60 18 -107 -10z"/>
<path d="M15635 11540 c-4 -7 0 -19 9 -28 15 -15 18 -15 26 -2 5 8 8 20 7 25
-5 15 -34 18 -42 5z"/>
<path d="M7760 11526 c0 -24 18 -28 30 -6 9 17 8 20 -10 20 -11 0 -20 -6 -20
-14z"/>
<path d="M5868 11503 c-28 -32 -31 -63 -13 -118 22 -64 15 -90 -20 -81 -27 7
-28 6 -19 -18 8 -22 47 -20 67 2 21 23 21 54 2 109 -15 43 -9 83 14 98 6 3 11
10 11 16 0 15 -26 10 -42 -8z"/>
<path d="M6059 11468 c-27 -29 -47 -57 -45 -63 2 -5 -1 -20 -5 -33 -11 -30 8
-69 37 -76 27 -7 111 11 120 26 9 13 -31 52 -45 44 -5 -4 -8 -13 -5 -20 3 -9
-5 -15 -24 -18 -41 -6 -52 0 -52 30 0 37 9 47 51 61 50 16 87 56 73 79 -22 35
-53 26 -105 -30z m57 -4 c-11 -7 -22 -12 -25 -9 -2 3 4 12 15 19 10 8 21 12
24 9 3 -2 -4 -11 -14 -19z"/>
<path d="M5566 11478 c-21 -50 -91 -124 -141 -148 -25 -12 -45 -28 -45 -36 0
-20 16 -18 61 8 27 15 35 24 27 30 -9 5 -7 8 6 8 11 0 30 10 43 22 19 17 23
19 17 5 -3 -9 -3 -28 0 -42 11 -43 52 -33 108 25 41 43 47 46 42 25 -4 -14 -1
-32 6 -40 14 -17 34 -9 26 10 -2 7 2 37 10 67 7 29 14 54 14 56 0 1 -8 2 -19
2 -10 0 -38 -25 -65 -60 -54 -68 -84 -90 -97 -69 -5 8 -4 15 1 17 6 2 10 12
10 22 0 10 9 39 20 65 19 45 19 65 0 65 -6 0 -16 -15 -24 -32z"/>
<path d="M2810 11485 c-9 -11 -10 -19 -3 -26 7 -7 14 -5 23 6 9 11 10 19 3 26
-7 7 -14 5 -23 -6z"/>
<path d="M11446 11490 c-58 -18 -106 -92 -85 -132 13 -25 21 -17 34 35 9 37
16 45 58 65 67 32 63 53 -7 32z"/>
<path d="M15628 11460 c-2 -23 1 -40 7 -40 6 0 6 -3 -1 -8 -19 -12 -48 -112
-36 -124 15 -15 29 -2 35 34 3 18 11 58 18 89 12 56 8 89 -10 89 -5 0 -11 -18
-13 -40z"/>
<path d="M2980 11477 c0 -7 14 -24 30 -39 42 -36 42 -88 0 -130 -33 -33 -67
-34 -62 -3 2 11 16 39 33 62 33 46 35 53 16 53 -19 0 -54 -39 -72 -82 -19 -46
-19 -53 1 -72 17 -18 64 -22 64 -5 0 5 4 8 8 5 5 -3 21 7 36 23 29 30 42 84
32 126 -12 46 -86 100 -86 62z"/>
<path d="M7079 11480 c-68 -20 -140 -110 -120 -148 15 -28 44 -32 87 -12 34
15 40 15 50 2 7 -10 18 -13 30 -8 13 5 15 9 7 14 -9 6 -9 15 2 36 18 34 20 97
3 114 -13 13 -21 14 -59 2z m37 -56 c2 -20 -7 -32 -44 -55 -85 -54 -113 -25
-42 43 49 45 84 51 86 12z"/>
<path d="M13948 11479 c-23 -13 -24 -44 -2 -35 13 5 15 0 9 -36 -4 -24 -14
-62 -21 -85 -14 -40 -11 -73 7 -73 8 0 18 31 38 120 14 60 13 83 -1 103 -10
12 -17 14 -30 6z"/>
<path d="M2645 11469 c-4 -6 1 -16 10 -23 12 -9 19 -37 25 -111 10 -110 14
-95 -77 -262 -21 -40 -26 -56 -18 -69 16 -26 29 -22 32 9 1 15 14 49 29 75 49
86 94 183 89 192 -3 4 -1 10 4 12 5 1 11 9 13 17 2 8 17 40 35 72 25 47 29 60
18 69 -13 11 -14 10 -72 -115 l-18 -40 -6 71 c-4 39 -12 81 -18 93 -12 22 -36
28 -46 10z"/>
<path d="M4235 11447 c-45 -25 -85 -79 -85 -113 0 -37 42 -59 92 -48 23 5 43
15 46 23 4 11 -4 13 -39 8 -65 -9 -78 3 -56 48 12 26 29 42 57 53 37 16 50 34
32 46 -4 2 -26 -5 -47 -17z"/>
<path d="M7600 11435 c-22 -36 -84 -95 -100 -95 -17 0 -11 22 16 57 16 21 23
40 19 51 -6 15 -10 13 -30 -12 -37 -47 -48 -73 -41 -100 8 -33 36 -34 79 -4
38 26 76 68 77 86 0 6 4 12 9 12 15 0 20 28 6 34 -9 3 -22 -8 -35 -29z"/>
<path d="M9300 11430 c-81 -81 -52 -152 36 -85 l33 25 -6 -36 c-5 -32 -4 -36
13 -32 10 2 20 12 20 23 1 11 5 41 9 68 4 26 4 47 0 47 -4 0 -25 -15 -45 -34
-21 -19 -48 -40 -60 -46 -19 -10 -20 -10 -12 7 17 32 60 73 77 73 8 0 15 7 15
15 0 28 -40 15 -80 -25z"/>
<path d="M3206 11438 c-9 -12 -16 -28 -16 -35 0 -7 -4 -13 -9 -13 -12 0 -75
-103 -72 -119 1 -7 -2 -10 -7 -7 -15 9 -37 -23 -25 -35 7 -7 22 3 47 32 29 35
36 39 36 22 0 -44 31 -35 93 27 33 33 62 60 64 60 1 0 3 -15 3 -33 0 -37 24
-77 46 -77 18 0 18 5 -1 34 -11 16 -15 42 -13 76 2 37 -1 54 -10 57 -7 3 -44
-28 -82 -68 -38 -41 -70 -71 -70 -68 0 3 11 34 25 69 26 67 31 100 16 100 -6
0 -17 -10 -25 -22z"/>
<path d="M9569 11446 c-47 -16 -109 -67 -109 -88 0 -25 19 -22 40 5 20 25 86
64 94 56 3 -3 -2 -24 -11 -48 -12 -31 -13 -45 -5 -53 8 -8 17 1 32 36 36 86
24 114 -41 92z"/>
<path d="M10974 11427 c10 -55 -28 -90 -78 -71 -11 4 -13 14 -10 34 4 16 1 31
-6 35 -14 9 -16 7 -23 -33 -8 -41 19 -72 64 -72 45 0 65 15 83 61 16 39 16 43
0 60 -26 28 -37 23 -30 -14z"/>
<path d="M12583 11424 c-25 -28 -33 -47 -33 -74 0 -44 28 -75 59 -65 25 8 32
32 34 112 2 72 -14 79 -60 27z m23 -101 c-3 -8 -10 -11 -16 -8 -14 9 -12 59 3
74 10 10 13 6 15 -19 2 -18 1 -39 -2 -47z"/>
<path d="M12746 11441 c-10 -16 -56 -140 -56 -151 0 -22 28 -7 80 41 30 28 64
55 74 61 16 9 18 8 11 -8 -16 -39 -16 -61 -1 -77 9 -9 23 -14 31 -11 20 8 19
34 0 34 -19 0 -19 -1 5 56 16 36 18 49 8 55 -13 8 -71 -19 -103 -48 -53 -48
-55 -48 -38 -3 11 28 13 44 6 51 -7 7 -13 7 -17 0z"/>
<path d="M4400 11398 c-37 -51 -45 -80 -30 -107 14 -28 42 -26 79 4 l30 26 3
-22 c6 -43 24 -29 34 27 14 75 -2 80 -61 19 -25 -26 -41 -43 -34 -39 8 5 9 3
4 -5 -6 -10 -11 -10 -22 2 -13 13 -13 18 2 46 9 18 25 41 36 52 19 19 18 39
-2 39 -5 0 -23 -19 -39 -42z"/>
<path d="M12045 11428 c-67 -37 -94 -97 -60 -132 21 -21 101 -31 131 -17 34
15 20 33 -19 26 -44 -8 -91 7 -96 31 -2 10 -8 23 -15 27 -7 6 -6 7 4 5 8 -3
30 6 49 19 18 13 42 23 52 23 11 0 19 7 19 15 0 18 -36 20 -65 3z"/>
<path d="M4580 11397 c0 -18 -6 -55 -14 -80 -15 -51 -3 -75 20 -41 41 60 62
84 92 105 47 32 58 15 32 -50 -22 -56 -26 -105 -9 -99 12 4 48 97 56 145 4 28
1 34 -22 45 -22 10 -32 9 -61 -7 -20 -10 -41 -28 -47 -39 -11 -20 -12 -19 -17
13 -7 47 -30 53 -30 8z"/>
<path d="M8413 11400 c-25 -19 -44 -27 -48 -20 -12 19 -22 10 -33 -29 -14 -45
-15 -81 -4 -81 5 0 23 18 40 40 42 51 98 94 116 87 11 -4 12 -14 6 -43 -9 -41
-3 -67 14 -61 15 5 27 96 15 119 -15 27 -59 22 -106 -12z"/>
<path d="M11787 11400 c-44 -38 -64 -84 -47 -105 16 -20 70 -19 99 1 18 13 25
14 31 4 14 -23 30 -1 23 33 -3 18 -7 34 -9 36 -2 2 -19 -10 -39 -28 -36 -31
-75 -41 -75 -18 1 15 56 77 70 77 5 0 10 7 10 15 0 24 -26 18 -63 -15z"/>
<path d="M8205 11393 c20 -50 23 -72 10 -83 -21 -17 -38 12 -25 44 13 35 13
36 -5 36 -9 0 -20 -12 -26 -27 -23 -61 25 -112 76 -79 28 18 30 32 13 87 -8
28 -17 39 -31 39 -14 0 -17 -4 -12 -17z"/>
<path d="M7670 11360 c0 -33 14 -40 28 -12 12 21 5 42 -14 42 -9 0 -14 -11
-14 -30z"/>
<path d="M12442 11356 c-20 -34 -19 -46 2 -46 11 0 46 54 46 71 0 22 -30 6
-48 -25z"/>
<path d="M14844 11299 c-10 -17 13 -36 27 -22 12 12 4 33 -11 33 -5 0 -12 -5
-16 -11z"/>
<path d="M14073 11293 c-20 -8 -15 -33 6 -33 16 0 31 18 31 36 0 5 -21 4 -37
-3z"/>
<path d="M9290 10873 c-60 -23 -128 -121 -167 -240 -24 -72 -30 -82 -52 -85
-30 -3 -31 -22 -2 -26 19 -3 19 -4 0 -69 -10 -36 -16 -70 -13 -74 10 -17 24
-9 30 19 3 15 12 48 21 74 13 42 18 48 49 54 36 7 49 18 39 33 -3 6 -18 6 -35
1 -29 -8 -30 -8 -24 18 15 62 70 178 101 213 40 44 87 67 106 50 16 -13 27 -5
27 21 0 14 -7 18 -32 17 -18 0 -40 -3 -48 -6z"/>
<path d="M11936 10808 c-8 -18 -24 -84 -37 -146 -12 -62 -25 -109 -28 -104 -7
11 -122 32 -134 25 -20 -12 18 -31 74 -37 l60 -7 -7 -32 c-22 -96 1 -118 26
-24 13 54 16 57 46 57 17 0 53 3 80 7 l49 6 -47 -51 c-27 -28 -48 -59 -48 -70
0 -44 53 -56 100 -22 31 22 56 81 46 107 -4 8 -1 22 6 30 10 12 9 18 -7 30
-11 7 -29 12 -40 9 -11 -3 -52 -8 -92 -12 l-71 -6 9 48 c26 133 42 184 56 184
20 0 12 34 -10 38 -12 2 -22 -7 -31 -30z m123 -364 c-23 -24 -59 -33 -59 -14
0 5 17 29 38 52 l37 41 3 -27 c2 -19 -4 -36 -19 -52z"/>
<path d="M10006 10818 c-3 -7 -17 -53 -32 -103 -15 -49 -31 -102 -36 -117 -6
-15 -9 -30 -8 -34 1 -4 -2 -10 -7 -13 -10 -7 -93 -178 -93 -191 0 -20 29 -9
36 13 4 12 15 32 24 44 9 12 32 58 50 102 19 45 47 97 63 116 31 38 93 75 127
75 20 0 20 0 2 -47 -10 -27 -42 -84 -70 -127 -70 -108 -60 -124 37 -56 62 43
88 51 76 23 -16 -39 -16 -50 3 -73 15 -19 31 -24 79 -28 61 -4 109 10 97 29
-3 6 -24 7 -49 3 -24 -3 -57 -3 -75 1 -27 6 -31 11 -28 33 3 23 10 29 45 36
47 11 62 32 38 55 -14 15 -18 14 -46 -1 -19 -11 -40 -15 -59 -11 -20 3 -39 0
-56 -12 -35 -23 -38 -16 -10 26 12 19 33 60 46 91 19 47 21 60 10 73 -23 28
-101 12 -151 -31 -14 -13 -18 -12 -29 1 -8 10 -9 15 -1 15 12 0 38 55 43 91 3
24 -19 39 -26 17z"/>
<path d="M5023 10760 c-28 -16 -60 -42 -71 -57 -22 -31 -42 -94 -42 -133 0
-22 -7 -28 -45 -38 -30 -8 -45 -17 -45 -28 0 -16 2 -16 67 2 17 5 22 1 25 -18
2 -12 -2 -38 -9 -55 -7 -18 -10 -33 -6 -33 5 0 3 -4 -2 -8 -6 -4 -21 -22 -34
-39 -12 -18 -29 -33 -37 -33 -19 0 -18 -19 2 -27 37 -14 114 109 114 183 0 41
1 42 43 49 23 5 46 8 51 9 5 1 11 7 14 15 4 11 -6 13 -53 8 l-57 -6 6 42 c12
73 37 109 99 141 32 16 57 35 57 43 0 20 -20 16 -77 -17z"/>
<path d="M2441 10747 c-8 -11 -9 -17 -1 -22 11 -7 9 -27 -12 -117 -11 -43 -14
-47 -48 -53 -20 -3 -43 -5 -51 -3 -8 2 -14 -4 -14 -12 0 -11 11 -15 45 -15
l46 1 -14 -54 c-16 -64 -11 -94 21 -111 27 -14 74 -1 83 24 9 24 -3 30 -30 15
-40 -21 -58 -7 -50 37 14 79 28 100 74 107 55 9 85 25 72 38 -6 6 -23 6 -48
-1 -63 -18 -64 -17 -48 47 17 72 17 94 1 116 -12 16 -15 16 -26 3z"/>
<path d="M3557 10743 c-2 -4 -3 -28 -2 -52 2 -24 -4 -59 -11 -78 -8 -18 -11
-33 -8 -33 4 0 2 -6 -4 -12 -15 -19 -45 -132 -40 -154 7 -40 23 -10 57 108 35
125 46 218 24 225 -6 2 -13 0 -16 -4z"/>
<path d="M6649 10713 c-1 -5 -2 -15 -3 -23 -1 -8 -12 -52 -25 -96 -21 -73 -28
-83 -58 -98 -36 -17 -47 -52 -13 -43 24 6 24 8 5 -36 -10 -25 -12 -38 -4 -43
15 -9 23 3 44 59 10 26 26 52 36 57 27 15 75 12 89 -5 14 -17 7 -102 -10 -119
-12 -12 -13 -46 -1 -46 15 0 28 23 43 75 20 69 11 106 -28 124 l-31 13 54 53
c37 38 53 62 53 80 0 30 -23 30 -29 0 -2 -11 -19 -35 -37 -53 -19 -19 -31 -39
-27 -45 3 -6 1 -7 -6 -3 -6 4 -24 -2 -41 -14 l-29 -21 29 87 c16 48 27 90 24
95 -6 11 -33 12 -35 2z"/>
<path d="M11169 10613 c-6 -16 -18 -65 -27 -110 -9 -46 -19 -83 -23 -83 -4 0
-13 26 -19 58 -17 80 -18 82 -34 82 -18 0 -15 -29 15 -132 16 -54 24 -68 39
-68 21 0 42 59 55 154 8 57 24 96 39 96 6 0 30 -9 53 -19 40 -18 53 -18 53 1
0 13 -81 48 -113 48 -21 0 -30 -7 -38 -27z"/>
<path d="M3156 10599 c-49 -33 -76 -64 -76 -88 0 -8 12 -28 27 -43 31 -32 22
-52 -24 -53 -18 0 -29 -6 -31 -17 -5 -24 27 -27 69 -7 52 26 56 46 18 85 -21
21 -28 37 -23 46 12 19 64 62 86 70 10 4 18 12 18 17 0 22 -20 19 -64 -10z"/>
<path d="M12289 10612 c-49 -22 -125 -117 -136 -173 -5 -27 -3 -31 13 -27 11
2 20 13 22 28 8 50 94 150 130 150 9 0 24 -8 34 -17 29 -26 46 -1 19 26 -21
21 -52 26 -82 13z"/>
<path d="M11613 10591 c-13 -11 -23 -27 -23 -36 0 -11 -5 -15 -14 -12 -9 4
-25 -9 -42 -34 -26 -38 -26 -40 -9 -59 32 -35 130 -53 110 -19 -4 5 -9 8 -12
6 -2 -3 -16 1 -30 8 -15 8 -30 12 -35 9 -4 -3 -8 3 -8 13 0 19 43 70 88 106
13 10 20 22 17 27 -9 14 -17 12 -42 -9z"/>
<path d="M3791 10582 c-4 -9 -11 -28 -14 -42 -8 -30 -85 -112 -101 -107 -6 2
-13 30 -16 63 -4 44 -9 59 -20 59 -23 0 -15 -123 10 -149 19 -19 20 -19 60 8
41 27 100 99 100 121 0 16 28 27 32 13 5 -15 98 -21 98 -5 0 8 3 7 9 -2 8 -12
12 -12 25 -2 27 23 18 30 -32 24 -37 -4 -60 0 -95 15 -44 19 -48 20 -56 4z"/>
<path d="M6040 10580 c-6 -11 -7 -20 -3 -20 22 0 -87 -91 -145 -121 -72 -37
-86 -49 -72 -63 5 -5 41 10 84 34 70 38 76 40 76 21 0 -12 5 -21 11 -21 5 0 7
-4 4 -10 -14 -23 34 -8 80 26 l50 35 5 -36 c3 -19 10 -36 15 -36 9 0 14 19 27
96 6 35 -31 28 -94 -19 -34 -25 -64 -44 -66 -41 -3 2 12 39 32 81 20 42 33 80
30 85 -9 15 -23 10 -34 -11z"/>
<path d="M8129 10563 c-69 -35 -77 -68 -29 -112 41 -37 37 -62 -15 -79 -52
-17 -93 -7 -101 24 -7 28 -34 33 -34 6 0 -30 29 -61 64 -67 62 -12 156 30 156
70 0 8 -16 33 -36 55 -20 21 -33 44 -29 50 9 15 64 42 74 36 12 -8 34 21 26
34 -9 15 -15 13 -76 -17z"/>
<path d="M11326 10548 c-69 -69 -81 -103 -46 -138 21 -21 84 -28 95 -10 4 6
11 8 16 5 5 -4 9 -1 9 4 0 6 -20 11 -44 11 -53 0 -73 18 -56 50 6 12 17 19 25
17 18 -8 85 57 85 82 0 34 -36 25 -84 -21z"/>
<path d="M3294 10569 c-3 -6 -2 -15 4 -21 7 -7 0 -24 -20 -53 -36 -50 -32 -75
10 -75 82 0 118 40 88 99 -19 35 -71 67 -82 50z m56 -70 c9 -15 8 -24 -1 -35
-11 -13 -59 -20 -59 -9 0 6 42 65 47 65 1 0 7 -9 13 -21z"/>
<path d="M4007 10534 c-26 -20 -47 -40 -47 -44 0 -4 -9 -10 -20 -13 -20 -5
-20 -5 0 -40 30 -50 43 -59 96 -62 33 -2 55 3 79 18 19 12 33 27 31 32 -5 15
-47 7 -61 -12 -15 -21 -84 -12 -103 14 -11 16 -6 21 50 48 66 32 85 52 75 79
-10 26 -51 18 -100 -20z m73 1 c0 -2 -15 -12 -32 -20 l-33 -16 24 21 c22 19
41 26 41 15z"/>
<path d="M5231 10544 c-12 -15 -21 -33 -21 -40 0 -8 -9 -22 -20 -31 -22 -19
-26 -48 -9 -59 16 -10 35 15 56 71 16 42 23 50 44 48 13 -1 31 1 39 3 12 5 12
8 -4 20 -30 21 -62 17 -85 -12z"/>
<path d="M6264 10526 c0 -24 -10 -63 -22 -87 -33 -66 -11 -75 39 -17 22 26 54
57 71 69 l31 22 -7 -37 c-4 -21 -10 -44 -13 -52 -3 -9 2 -14 15 -14 19 0 32
37 32 96 0 42 -46 38 -96 -8 l-22 -19 5 45 c5 40 3 46 -13 46 -16 0 -19 -8
-20 -44z"/>
<path d="M7683 10514 c-49 -52 -53 -54 -53 -30 0 16 -6 26 -15 26 -11 0 -15
-11 -15 -41 0 -32 -6 -46 -31 -69 -28 -25 -33 -50 -10 -50 10 0 151 141 151
152 0 11 56 38 64 31 13 -13 5 -49 -25 -114 -30 -64 -33 -99 -9 -99 5 0 10 9
10 19 0 10 11 39 25 62 48 86 42 169 -12 169 -20 0 -42 -15 -80 -56z"/>
<path d="M2566 10516 c-41 -38 -47 -48 -44 -77 3 -31 6 -34 37 -37 91 -9 178
86 131 143 -25 30 -74 18 -124 -29z m104 -15 c-1 -30 -37 -60 -79 -67 -33 -5
-41 -4 -41 8 0 21 38 68 55 68 7 0 18 7 25 15 15 18 40 3 40 -24z"/>
<path d="M8883 10546 c4 -9 -5 -21 -19 -31 -28 -18 -46 -57 -38 -79 9 -23 33
-27 70 -11 30 12 34 18 34 52 0 58 -10 83 -32 83 -13 0 -18 -5 -15 -14z m6
-92 c-8 -10 -15 -12 -22 -5 -7 7 -4 17 9 32 16 18 19 19 22 5 2 -9 -2 -24 -9
-32z"/>
<path d="M7097 10543 c-4 -3 -7 -15 -7 -26 0 -10 -9 -30 -20 -44 -21 -27 -26
-68 -10 -78 6 -4 7 -11 4 -17 -4 -6 -2 -8 4 -4 6 3 14 1 18 -5 17 -28 114 23
114 60 0 9 -18 34 -40 56 -21 22 -39 46 -40 53 0 13 -13 16 -23 5z m53 -88
c27 -28 18 -47 -31 -64 -26 -9 -29 -8 -35 15 -6 24 17 74 34 74 5 0 19 -11 32
-25z"/>
<path d="M5065 10530 c-4 -6 -1 -26 5 -46 10 -29 9 -39 -4 -59 -18 -27 -46
-34 -46 -11 0 7 9 25 20 39 23 30 26 47 6 47 -19 0 -56 -61 -56 -92 0 -14 7
-31 15 -38 22 -18 72 5 91 42 27 52 -2 164 -31 118z"/>
<path d="M6912 10510 c-23 -16 -46 -29 -52 -28 -5 2 -21 -16 -35 -39 -38 -62
-13 -65 48 -5 29 27 62 55 75 61 19 10 22 9 22 -6 0 -10 -5 -35 -11 -57 -7
-25 -7 -42 -1 -48 16 -16 35 31 36 92 1 48 -2 55 -19 58 -12 2 -40 -11 -63
-28z"/>
<path d="M7312 10483 c-40 -52 -53 -79 -46 -97 10 -25 44 -19 104 19 l55 34 9
-25 c14 -41 48 -28 63 25 7 24 17 49 23 56 8 10 8 15 0 20 -16 10 -48 -23 -53
-54 l-4 -26 -2 28 c-1 33 -15 34 -55 4 -44 -32 -106 -68 -106 -60 0 12 53 83
61 83 5 0 9 7 9 15 0 27 -28 16 -58 -22z"/>
<path d="M2932 10010 c-24 -11 -41 -24 -37 -30 3 -5 -1 -10 -9 -10 -16 0 -66
-59 -66 -78 0 -22 26 -12 42 16 23 38 91 85 124 85 34 0 78 -34 82 -64 10 -61
-61 -178 -119 -198 -46 -16 -59 -14 -59 10 0 25 -17 59 -31 59 -18 0 -55 -42
-41 -47 6 -3 12 -11 12 -19 0 -8 6 -17 13 -20 11 -4 8 -26 -15 -107 -28 -99
-30 -153 -5 -144 6 2 13 19 14 37 2 19 13 69 24 112 19 70 24 78 45 78 64 0
132 57 174 147 40 85 20 147 -56 179 -42 17 -40 18 -92 -6z"/>
<path d="M3701 9985 c-56 -52 -91 -120 -124 -236 -19 -69 -25 -80 -50 -89 -32
-11 -32 -37 0 -32 19 3 20 0 12 -35 -13 -57 -11 -105 4 -101 17 6 21 49 5 59
-10 7 -9 9 5 9 12 0 17 8 17 28 0 41 11 50 65 59 38 7 50 13 49 26 -1 9 2 14
7 11 5 -3 9 -1 9 4 0 18 -14 22 -34 9 -12 -8 -34 -17 -49 -21 -28 -7 -29 -6
-22 26 4 18 21 71 38 117 23 64 41 96 77 133 46 48 80 62 80 33 0 -8 7 -15 15
-15 8 0 15 6 15 14 0 63 -53 63 -119 1z"/>
<path d="M6480 9915 c-5 -13 -17 -53 -25 -87 -9 -35 -23 -73 -30 -85 -15 -22
-61 -41 -112 -47 -15 -2 -30 -4 -32 -5 -2 0 2 -8 9 -16 12 -15 45 -22 37 -7
-3 4 7 7 21 7 15 1 36 4 48 8 l21 7 -19 -72 c-18 -72 -17 -111 2 -92 6 6 21
52 34 103 13 51 26 93 28 94 2 1 15 13 30 26 l27 24 -18 -64 c-10 -35 -24 -83
-31 -107 -7 -23 -10 -45 -6 -49 3 -4 32 19 64 50 32 31 65 57 74 57 23 0 38
-30 38 -74 0 -45 14 -54 30 -17 10 25 9 36 -9 75 -17 40 -24 46 -50 46 -18 0
-42 -11 -62 -27 l-32 -28 6 33 c4 21 3 32 -5 32 -7 0 -5 5 4 13 17 13 42 102
33 117 -3 5 -1 11 5 15 16 10 12 55 -4 55 -17 0 -41 -64 -30 -81 4 -7 3 -9 -3
-6 -6 4 -18 -5 -28 -19 -22 -34 -26 -27 -13 26 6 25 11 51 11 58 0 6 4 12 9
12 4 0 8 11 8 25 0 32 -18 32 -30 0z"/>
<path d="M9837 9913 c-3 -10 -8 -36 -12 -58 -3 -22 -22 -100 -42 -173 -30
-111 -34 -136 -25 -158 17 -36 31 -22 28 29 -1 23 2 49 7 57 16 30 55 195 46
198 -5 2 -9 8 -9 13 0 6 4 8 9 4 10 -6 16 9 26 68 5 29 3 37 -9 37 -8 0 -17
-8 -19 -17z"/>
<path d="M7502 9908 c-7 -7 -12 -27 -12 -45 0 -50 -38 -176 -57 -190 -9 -7
-33 -15 -52 -19 -59 -9 -66 -13 -53 -26 9 -9 25 -9 62 -2 47 10 49 10 45 -10
-29 -129 -29 -126 -11 -126 16 0 20 9 37 98 9 49 15 62 30 62 26 0 35 20 11
27 -19 5 -19 7 -5 60 8 30 12 62 9 69 -3 8 -2 14 3 14 11 0 20 71 12 88 -5 9
-10 9 -19 0z"/>
<path d="M10228 9898 c-1 -13 -2 -32 -3 -43 -1 -11 -4 -25 -7 -30 -3 -6 -11
-38 -18 -71 -7 -34 -16 -67 -21 -75 -4 -7 -31 -16 -60 -19 -73 -7 -78 -30 -6
-30 l55 0 -13 -37 c-13 -39 -18 -67 -16 -92 3 -31 31 13 37 58 9 73 29 92 102
98 46 4 62 10 62 21 0 12 -12 14 -60 10 -33 -2 -60 -2 -60 1 0 3 9 49 20 101
11 52 20 103 20 113 0 25 -30 21 -32 -5z"/>
<path d="M13564 9844 c-8 -19 -21 -63 -27 -97 l-13 -62 -54 -3 c-74 -3 -102
-10 -97 -25 2 -8 25 -11 72 -9 l68 4 -7 -29 c-4 -15 -18 -52 -33 -81 -14 -29
-23 -56 -19 -59 15 -15 36 12 62 79 15 40 31 78 36 84 4 6 33 16 63 23 40 9
55 17 55 29 0 15 -2 15 -11 2 -7 -10 -12 -11 -15 -3 -4 8 -15 8 -40 1 -20 -5
-38 -7 -41 -4 -5 4 4 48 34 164 9 36 -16 26 -33 -14z"/>
<path d="M9146 9723 c-47 -228 -49 -243 -21 -243 9 0 15 18 17 53 3 28 17 108
31 176 31 142 32 151 14 151 -9 0 -22 -45 -41 -137z"/>
<path d="M4527 9835 c-7 -16 8 -29 23 -20 15 9 12 35 -4 35 -8 0 -16 -7 -19
-15z"/>
<path d="M6244 9821 c-5 -6 26 -41 38 -41 4 0 8 11 8 24 0 19 -5 24 -20 23
-12 -1 -23 -3 -26 -6z"/>
<path d="M10452 9787 c-23 -25 -29 -47 -11 -47 16 0 78 53 73 62 -10 15 -41 8
-62 -15z"/>
<path d="M7645 9779 c-4 -6 -1 -15 6 -20 21 -13 31 -11 27 8 -4 20 -24 28 -33
12z"/>
<path d="M3967 9731 c-63 -56 -114 -236 -67 -236 11 0 14 9 12 31 -4 41 44
159 74 183 14 11 33 17 44 14 22 -6 26 7 8 25 -18 18 -34 15 -71 -17z"/>
<path d="M12890 9710 c-20 -22 -56 -76 -80 -120 -49 -91 -56 -90 -66 13 -5 50
-10 67 -22 67 -12 0 -14 -11 -8 -70 10 -110 39 -148 78 -102 14 15 54 96 57
114 1 4 20 28 43 53 27 29 49 45 65 45 21 0 22 3 13 20 -16 30 -39 24 -80 -20z"/>
<path d="M3081 9702 c-63 -59 -68 -128 -11 -157 37 -19 63 -19 102 1 41 21 24
37 -24 22 -31 -9 -41 -8 -62 6 -30 19 -35 57 -8 54 40 -3 61 4 86 29 19 19 25
32 20 47 -15 48 -51 47 -103 -2z m69 -6 c0 -19 -19 -32 -55 -39 l-30 -5 35 29
c38 32 50 36 50 15z"/>
<path d="M13905 9722 c-27 -17 -85 -113 -85 -141 0 -5 -7 -14 -15 -19 -16 -9
-11 -42 6 -42 5 0 26 34 46 76 20 42 49 86 65 97 15 11 28 27 28 34 0 17 -9
16 -45 -5z"/>
<path d="M3390 9723 c-38 -7 -58 -31 -77 -92 -10 -31 -22 -59 -27 -62 -5 -4
-6 -15 -2 -24 9 -24 28 -6 45 42 27 76 43 103 63 103 27 0 60 19 53 31 -6 9
-12 10 -55 2z"/>
<path d="M4913 9718 c-5 -7 -15 -27 -22 -44 -15 -39 -91 -115 -91 -92 0 9 14
30 30 48 33 35 38 50 16 50 -16 0 -64 -54 -76 -86 -12 -29 -1 -64 18 -64 9 0
37 21 63 46 l46 45 11 -57 c13 -64 15 -126 6 -174 -6 -28 -10 -31 -33 -26 -14
4 -45 9 -68 13 -36 5 -43 2 -53 -17 -18 -35 -9 -154 14 -179 11 -12 23 -21 27
-21 20 0 69 55 98 109 18 34 39 61 47 61 14 0 19 12 8 23 -6 6 -11 99 -17 299
-3 71 -8 86 -24 66z m-55 -381 l43 -13 -40 -62 c-58 -89 -81 -82 -81 22 0 72
4 75 78 53z"/>
<path d="M11060 9722 c-8 -3 -18 -10 -22 -15 -3 -6 -14 -12 -23 -13 -26 -4
-55 -35 -55 -59 0 -11 18 -38 40 -60 45 -44 49 -59 19 -75 -16 -9 -24 -8 -38
4 -10 9 -23 16 -30 16 -21 0 -7 -34 21 -49 24 -14 30 -14 62 2 51 24 50 64 -4
117 -46 46 -45 62 11 87 37 17 56 38 41 46 -4 3 -14 2 -22 -1z"/>
<path d="M2486 9704 c-19 -18 -21 -55 -4 -72 7 -7 27 -12 45 -12 32 0 33 2 33
38 0 58 -39 82 -74 46z"/>
<path d="M3732 9693 c-27 -30 -51 -75 -63 -116 -15 -54 21 -84 70 -57 39 21
63 134 39 183 -12 23 -19 21 -46 -10z m11 -110 c-21 -43 -43 -55 -43 -23 0 21
23 73 44 99 20 25 19 -36 -1 -76z"/>
<path d="M6101 9699 c-30 -11 -65 -29 -78 -41 -38 -35 -53 -128 -22 -128 12 0
29 44 29 75 0 25 26 46 83 64 20 7 37 17 37 22 0 6 5 7 10 4 6 -3 10 -2 10 4
0 18 -15 18 -69 0z"/>
<path d="M14111 9687 c-13 -6 -33 -24 -45 -40 -18 -24 -19 -32 -8 -72 6 -24
13 -50 14 -57 2 -8 -9 -14 -29 -16 -27 -3 -40 4 -75 37 -43 42 -53 47 -62 33
-7 -12 59 -74 69 -65 4 5 5 3 1 -4 -9 -17 25 -33 71 -33 64 0 77 28 45 92 -22
43 -13 68 36 98 52 32 37 55 -17 27z"/>
<path d="M6848 9670 c-18 -13 -28 -16 -36 -8 -17 17 -29 1 -30 -43 -1 -23 -7
-59 -12 -81 -11 -38 -7 -58 10 -58 5 0 16 26 25 57 17 59 49 113 66 113 5 0 9
-18 9 -40 0 -48 13 -50 47 -10 34 41 44 38 41 -15 -2 -25 -6 -45 -10 -45 -5 0
-8 -12 -8 -26 0 -44 22 -21 43 45 15 49 17 68 8 87 -13 29 -42 31 -66 4 -19
-20 -19 -20 -31 10 -15 35 -23 37 -56 10z"/>
<path d="M9871 9664 c-12 -14 -29 -40 -38 -59 -13 -28 -14 -37 -3 -50 17 -21
26 -19 77 16 l46 30 -6 -29 c-4 -18 -1 -37 8 -48 16 -23 20 -15 29 59 8 64 -9
69 -76 24 -29 -19 -54 -34 -56 -32 -7 6 42 76 59 86 11 5 17 14 14 20 -10 16
-31 10 -54 -17z"/>
<path d="M10795 9678 c-11 -6 -44 -34 -73 -62 l-54 -51 16 39 c20 47 20 56 2
56 -8 0 -21 -17 -29 -38 -20 -50 -32 -132 -19 -132 5 0 35 29 67 65 31 36 65
70 75 75 17 9 16 4 -6 -50 -28 -69 -29 -83 -10 -99 10 -9 20 -9 40 0 33 15 36
44 3 35 -18 -4 -23 -1 -23 14 0 11 3 20 6 20 12 0 52 110 46 125 -6 18 -14 18
-41 3z"/>
<path d="M4200 9651 l-29 -29 -14 22 c-13 19 -16 20 -42 6 -16 -8 -36 -27 -45
-42 -9 -16 -20 -25 -23 -21 -9 8 -39 -65 -32 -77 11 -18 23 -10 49 34 45 76
76 98 68 47 -7 -47 17 -49 55 -2 38 45 53 51 53 22 0 -30 11 -51 27 -51 11 0
12 8 7 38 -10 53 -22 82 -35 82 -6 0 -24 -13 -39 -29z"/>
<path d="M5860 9669 c0 -5 -4 -8 -9 -4 -15 8 -91 -69 -91 -92 0 -30 55 -37 98
-12 l32 18 0 -33 c0 -28 13 -46 33 -46 1 0 2 33 1 74 0 46 -5 81 -13 90 -15
18 -51 22 -51 5z m30 -37 c0 -19 -86 -76 -95 -63 -5 10 69 81 85 81 6 0 10 -8
10 -18z"/>
<path d="M7109 9641 c-47 -47 -52 -89 -14 -126 29 -29 77 -33 132 -10 51 22
31 41 -25 24 -22 -6 -52 -9 -66 -5 -30 7 -44 45 -27 73 6 10 11 12 11 6 0 -29
71 -8 90 27 15 29 2 50 -32 50 -22 0 -41 -11 -69 -39z m67 -6 c-11 -8 -27 -15
-35 -15 -11 0 -10 4 5 15 10 8 26 14 34 14 11 0 10 -3 -4 -14z"/>
<path d="M12997 9655 c-20 -14 -37 -32 -37 -40 0 -8 -4 -15 -8 -15 -13 0 -32
-47 -32 -80 0 -31 22 -50 59 -50 29 0 26 18 -4 30 -47 18 -27 87 23 82 20 -2
39 5 58 21 25 22 27 27 16 51 -15 32 -28 33 -75 1z m39 -30 c-25 -19 -33 -19
-33 0 0 10 10 15 26 15 25 -1 25 -1 7 -15z"/>
<path d="M13159 9630 c-40 -40 -49 -56 -49 -84 0 -53 21 -67 93 -64 79 4 87
24 11 27 -31 1 -61 4 -65 7 -31 19 17 100 76 128 19 10 33 21 30 27 -14 21
-49 6 -96 -41z"/>
<path d="M4425 9658 c-10 -27 -10 -123 0 -126 10 -3 16 22 28 101 4 28 2 37
-9 37 -8 0 -17 -6 -19 -12z"/>
<path d="M4639 9652 c-73 -49 -109 -97 -109 -144 0 -18 29 -6 35 13 9 28 84
109 100 109 8 0 12 -14 11 -36 -2 -55 21 -54 29 0 11 70 -15 93 -66 58z"/>
<path d="M7733 9651 c-91 -57 -78 -191 19 -191 36 0 111 31 123 50 14 23 -11
30 -33 10 -30 -29 -103 -37 -125 -15 -22 22 -21 53 3 92 15 25 29 34 60 39 23
4 39 11 37 18 -6 19 -51 17 -84 -3z"/>
<path d="M8653 9645 c-40 -32 -73 -85 -73 -117 0 -26 32 -48 70 -48 30 0 24
20 -10 31 -41 15 -38 37 12 87 32 33 48 42 75 42 46 0 39 24 -8 28 -24 2 -43
-5 -66 -23z"/>
<path d="M13621 9626 c-39 -55 -41 -99 -6 -122 31 -20 80 -11 100 20 17 26 48
136 40 144 -11 12 -34 -23 -45 -69 -13 -53 -44 -84 -74 -73 -23 9 -20 42 9 80
26 34 31 49 16 58 -4 3 -22 -14 -40 -38z"/>
<path d="M8865 9617 c-77 -77 -48 -135 45 -89 39 19 40 19 40 1 0 -11 7 -19
15 -19 8 0 15 6 15 14 0 7 3 28 6 45 8 37 -12 43 -41 11 -17 -19 -84 -44 -93
-35 -9 9 29 55 59 70 30 16 35 35 11 43 -7 2 -33 -16 -57 -41z"/>
<path d="M6203 9638 c-15 -19 -33 -77 -33 -105 0 -42 22 -20 41 42 18 57 13
90 -8 63z"/>
<path d="M9265 9641 c-25 -11 -63 -51 -65 -71 -8 -55 16 -80 75 -80 37 0 43 3
38 17 -5 14 -1 15 25 10 31 -6 49 4 37 22 -3 6 -20 4 -41 -5 -20 -8 -50 -14
-68 -12 -25 2 -32 8 -34 29 -4 31 20 54 68 66 19 5 34 13 33 19 -3 12 -43 15
-68 5z"/>
<path d="M11775 9638 c-38 -19 -68 -68 -73 -118 -4 -42 -2 -50 18 -60 28 -15
72 2 100 38 21 26 28 78 9 66 -8 -4 -9 1 -4 16 5 15 2 25 -6 31 -10 6 -6 9 14
9 17 0 27 5 27 15 0 18 -53 20 -85 3z m22 -58 c11 0 14 -9 11 -37 -2 -32 -8
-40 -33 -49 -40 -14 -48 -8 -42 34 6 36 39 82 45 63 2 -6 10 -11 19 -11z"/>
<path d="M11999 9623 c-19 -15 -28 -20 -21 -11 14 18 0 34 -19 22 -25 -15 -62
-154 -41 -154 6 0 22 20 36 44 14 24 40 56 57 70 31 26 69 35 69 16 0 -5 7
-10 16 -10 10 0 14 7 12 23 -5 36 -66 36 -109 0z"/>
<path d="M7531 9590 c-15 -71 -14 -120 3 -120 12 0 17 25 29 139 4 47 -21 32
-32 -19z"/>
<path d="M9600 9617 c0 -26 -20 -47 -64 -66 -39 -16 -55 -1 -32 33 20 31 20
46 1 46 -17 0 -45 -50 -45 -80 0 -35 42 -47 91 -25 71 32 113 104 66 113 -12
3 -17 -3 -17 -21z"/>
<path d="M10361 9618 c-5 -13 -19 -45 -31 -73 -19 -45 -17 -63 7 -54 11 4 62
132 56 142 -8 14 -24 7 -32 -15z"/>
<path d="M10539 9623 c-31 -19 -59 -62 -59 -91 0 -28 24 -44 67 -44 49 0 83
37 83 91 0 60 -37 78 -91 44z m55 -29 c10 -25 7 -42 -10 -58 -18 -18 -74 -22
-74 -5 0 19 33 68 49 72 27 8 29 7 35 -9z"/>
<path d="M12062 9554 c-10 -35 -5 -48 15 -36 19 12 26 59 10 65 -10 4 -18 -6
-25 -29z"/>
<path d="M4672 9523 c2 -9 9 -18 16 -21 18 -6 15 25 -4 32 -11 4 -14 1 -12
-11z"/>
<path d="M8697 9513 c-22 -6 -17 -27 8 -31 12 -3 15 0 10 9 -6 9 -3 11 8 6 11
-4 17 -1 17 8 0 15 -9 17 -43 8z"/>
<path d="M13032 9513 c-6 -3 -9 -9 -6 -15 4 -6 0 -14 -7 -19 -8 -5 -9 -9 -3
-9 20 0 49 28 39 38 -5 5 -16 7 -23 5z"/>
<path d="M13399 9393 c-6 -16 -26 -62 -45 -104 -19 -42 -34 -82 -34 -88 0 -6
-15 -11 -34 -11 -55 0 -96 -11 -96 -27 0 -11 12 -13 59 -7 l59 6 -8 -38 c-22
-106 -22 -116 -3 -112 10 2 18 8 19 13 2 33 16 113 22 122 4 6 18 13 32 14 31
5 33 23 2 27 -18 3 -22 8 -16 25 7 23 58 139 75 170 10 19 4 37 -12 37 -5 0
-14 -12 -20 -27z"/>
<path d="M10943 9385 c-3 -9 -3 -18 0 -21 3 -3 1 -18 -3 -32 -5 -15 -14 -46
-20 -68 l-10 -41 -58 1 c-44 1 -57 -2 -57 -14 0 -11 10 -14 40 -12 61 4 68 -5
57 -69 -7 -37 -7 -58 0 -66 18 -22 29 -14 28 20 -1 17 3 48 7 67 8 31 13 36
48 40 44 6 65 16 65 31 0 6 -19 7 -49 3 l-49 -6 19 68 c23 85 24 114 4 114 -9
0 -18 -7 -22 -15z"/>
<path d="M12277 9393 c-2 -5 -17 -47 -32 -95 l-27 -88 -58 0 c-61 0 -76 -6
-60 -25 7 -8 28 -11 60 -8 28 2 50 3 50 1 -1 -16 -33 -104 -42 -115 -8 -10 -8
-17 0 -25 21 -21 37 0 55 70 14 53 25 75 43 87 35 23 39 14 14 -28 -27 -46
-23 -81 8 -85 29 -4 84 17 76 29 -3 5 3 9 12 9 9 0 33 12 52 27 30 23 34 24
28 7 -4 -10 -10 -40 -13 -67 -5 -39 -3 -46 9 -42 16 6 44 127 33 144 -11 18
-27 12 -99 -34 -63 -41 -96 -54 -96 -40 0 14 41 83 69 119 31 39 65 131 55
147 -11 19 -24 7 -46 -43 -13 -29 -22 -56 -21 -59 4 -11 -42 -47 -67 -54 -21
-5 -26 -2 -27 14 -1 12 2 21 6 21 7 0 41 107 41 130 0 12 -17 14 -23 3z"/>
<path d="M3503 9364 c-15 -24 -18 -49 -18 -164 0 -113 2 -135 15 -135 13 0 15
19 13 120 -1 91 2 127 14 153 22 45 3 66 -24 26z"/>
<path d="M6224 9363 c-3 -10 -10 -26 -15 -35 -12 -24 -11 -28 4 -28 8 0 22 9
33 21 18 20 18 22 2 33 -10 7 -15 16 -11 19 3 4 3 7 -1 7 -3 0 -9 -8 -12 -17z"/>
<path d="M8974 9326 c-6 -16 11 -46 27 -46 15 0 10 37 -6 50 -12 10 -16 9 -21
-4z"/>
<path d="M2767 9306 c-9 -23 19 -41 38 -26 12 10 13 16 4 26 -15 18 -35 18
-42 0z"/>
<path d="M6814 9300 c-63 -32 -81 -86 -43 -134 11 -15 18 -33 15 -41 -6 -18
-47 -20 -64 -3 -9 9 -13 7 -18 -5 -8 -22 1 -34 33 -40 32 -6 78 15 87 39 4 11
-4 32 -20 55 -38 55 -20 94 49 108 18 4 32 13 32 21 0 22 -26 22 -71 0z"/>
<path d="M12110 9295 c-10 -12 -9 -16 4 -21 9 -3 23 -3 32 0 13 5 14 9 4 21
-7 8 -16 15 -20 15 -4 0 -13 -7 -20 -15z"/>
<path d="M13566 9292 c-7 -12 32 -48 41 -38 8 8 -8 38 -24 43 -6 2 -14 0 -17
-5z"/>
<path d="M5358 9263 c-10 -2 -18 -11 -18 -19 0 -19 51 -15 58 4 2 8 -2 10 -14
5 -12 -4 -15 -3 -10 5 4 7 6 11 4 11 -2 -1 -11 -3 -20 -6z"/>
<path d="M6342 9222 c-73 -75 -124 -197 -82 -197 8 0 15 9 16 21 4 69 111 198
155 187 18 -5 21 -3 16 11 -4 10 -7 20 -7 22 0 2 -12 4 -26 4 -17 0 -40 -15
-72 -48z"/>
<path d="M6520 9262 c-70 -32 -113 -97 -108 -164 3 -47 27 -70 55 -52 26 16
24 53 -4 60 -28 7 -27 32 2 48 96 54 129 95 89 110 -9 3 -16 6 -17 5 -1 0 -9
-3 -17 -7z"/>
<path d="M11640 9244 c-31 -27 -80 -111 -80 -138 0 -20 28 -46 48 -46 9 0 42
15 72 32 30 18 63 31 72 29 13 -1 17 5 17 26 0 15 3 41 7 57 10 41 -14 30 -50
-23 -36 -54 -117 -107 -129 -85 -11 20 27 98 60 124 28 22 58 26 68 10 10 -17
25 -11 25 9 0 39 -66 42 -110 5z"/>
<path d="M5295 9236 c-16 -13 -33 -22 -37 -20 -4 3 -14 -6 -21 -18 -13 -20
-20 -65 -30 -177 -3 -35 21 -38 28 -4 22 101 48 170 72 189 14 12 23 29 21 38
-2 14 -7 12 -33 -8z"/>
<path d="M7945 9236 c-49 -23 -83 -63 -99 -114 -11 -33 17 -70 58 -78 41 -7
106 12 106 32 0 17 -9 18 -46 4 -15 -6 -40 -8 -56 -5 -22 5 -28 12 -28 34 0
37 52 98 93 107 17 4 35 9 40 10 4 1 10 2 13 3 8 1 -16 31 -25 31 -3 0 -28
-11 -56 -24z"/>
<path d="M2584 9239 c-51 -14 -49 -33 9 -90 49 -48 51 -52 32 -65 -25 -19 -80
-18 -100 2 -13 13 -18 14 -31 3 -22 -18 2 -39 54 -46 49 -7 85 1 106 23 25 24
19 41 -30 94 l-46 49 39 6 c55 9 65 14 58 25 -7 12 -48 12 -91 -1z"/>
<path d="M3604 9209 c11 -66 27 -94 56 -94 20 0 25 5 25 25 0 18 -5 25 -19 25
-14 0 -22 11 -30 39 -6 22 -17 41 -25 44 -11 4 -13 -4 -7 -39z"/>
<path d="M5451 9215 c-68 -62 -89 -126 -52 -159 22 -20 72 -18 79 3 3 9 0 12
-9 9 -26 -10 -59 10 -59 35 0 19 7 26 32 31 17 3 47 18 65 32 26 20 33 32 31
52 -5 42 -39 40 -87 -3z m34 -25 c-16 -16 -31 -27 -34 -24 -6 6 45 54 56 54 4
0 -6 -13 -22 -30z"/>
<path d="M8373 9231 c-46 -21 -73 -62 -78 -117 -1 -24 2 -34 12 -34 20 0 29
30 12 41 -8 5 -9 9 -4 9 6 0 18 13 27 30 9 16 33 37 54 47 38 18 57 43 32 43
-7 0 -32 -9 -55 -19z"/>
<path d="M8491 9212 c-41 -43 -71 -116 -54 -133 7 -7 20 9 41 54 33 72 58 92
103 82 22 -5 29 -3 29 8 0 17 -21 27 -57 27 -17 0 -39 -13 -62 -38z"/>
<path d="M11901 9237 c-39 -20 -63 -62 -69 -117 -4 -47 -3 -52 14 -48 13 2 28
25 45 67 25 64 41 82 54 62 9 -16 25 -13 25 3 0 15 -26 46 -38 46 -4 0 -18 -6
-31 -13z"/>
<path d="M12844 9213 c-19 -20 -35 -42 -35 -47 -1 -6 -5 7 -8 29 -7 48 -30 57
-72 26 -15 -12 -35 -21 -44 -21 -8 0 -15 -8 -15 -17 0 -10 -14 -45 -30 -77
-35 -68 -37 -86 -11 -86 17 0 45 49 65 117 4 12 21 34 39 49 l32 27 3 -23 c2
-13 -2 -43 -8 -67 -7 -24 -10 -47 -6 -50 7 -7 52 40 100 102 l23 29 30 -29
c22 -23 28 -35 22 -50 -13 -34 -10 -60 11 -83 18 -19 31 -22 93 -21 78 0 138
16 145 38 4 11 -2 12 -24 7 -16 -4 -63 -10 -104 -13 -89 -6 -109 6 -93 54 8
24 15 28 48 29 55 1 79 39 55 85 -16 30 -55 24 -84 -13 -24 -32 -25 -32 -45
-14 -11 10 -23 27 -26 37 -9 28 -23 23 -61 -18z m190 -35 c-7 -10 -34 -10 -34
0 0 4 5 13 12 20 9 9 14 9 19 0 4 -7 5 -16 3 -20z"/>
<path d="M5923 9203 c-25 -59 -28 -116 -8 -136 24 -24 39 -21 81 16 43 37 76
103 67 135 -7 28 -39 25 -36 -3 6 -51 -41 -125 -79 -125 -18 0 -20 5 -15 35 3
20 13 50 21 67 9 17 13 34 10 39 -11 18 -25 8 -41 -28z"/>
<path d="M8664 9208 c4 -18 15 -51 27 -73 l20 -40 -56 -112 c-57 -116 -61
-128 -45 -138 12 -8 151 273 177 358 11 36 -24 16 -44 -25 l-20 -43 -19 53
c-21 59 -51 74 -40 20z"/>
<path d="M2896 9189 c-26 -28 -36 -48 -34 -65 4 -30 22 -36 26 -9 2 12 14 34
27 50 l24 30 1 -51 c0 -62 21 -89 41 -52 14 28 60 78 71 78 4 0 8 -10 8 -22 0
-33 16 -56 30 -42 16 16 -1 74 -28 92 -20 13 -24 12 -51 -15 l-29 -29 -11 38
c-7 21 -18 38 -25 38 -8 0 -30 -18 -50 -41z"/>
<path d="M9277 9190 c-58 -63 -45 -120 23 -100 18 5 42 16 55 24 22 14 22 14
40 -64 23 -100 16 -130 -28 -130 -45 0 -75 -24 -87 -69 -11 -42 -3 -78 23
-100 24 -19 53 2 88 64 26 47 34 54 54 49 32 -8 41 14 11 27 -22 11 -24 16
-19 58 3 27 -1 71 -10 106 -10 35 -14 77 -10 103 7 52 -4 53 -49 8 -34 -34
-82 -55 -95 -42 -10 9 30 59 55 71 12 5 21 14 19 20 -8 23 -36 13 -70 -25z
m113 -305 c0 -22 -56 -105 -70 -105 -25 0 -14 85 13 102 14 9 57 11 57 3z"/>
<path d="M10524 9213 c-18 -56 -30 -76 -61 -103 -18 -17 -40 -30 -48 -30 -8 0
-15 -7 -15 -15 0 -21 33 -19 64 6 16 13 33 18 46 14 11 -3 39 2 63 13 l43 19
17 -29 c20 -35 41 -32 45 5 2 20 -1 27 -13 27 -14 0 -16 7 -10 40 8 49 -3 51
-42 8 -28 -33 -83 -65 -83 -49 0 5 7 28 15 51 8 23 12 46 9 51 -9 15 -24 10
-30 -8z"/>
<path d="M3746 9184 c-14 -21 -26 -43 -26 -47 0 -5 -25 -62 -55 -127 -34 -71
-53 -124 -49 -134 8 -22 26 -16 30 10 2 10 23 62 48 114 25 52 52 111 60 130
9 19 21 43 28 52 9 13 10 20 1 29 -8 8 -18 1 -37 -27z"/>
<path d="M5658 9178 c-40 -43 -54 -77 -44 -103 9 -23 38 -18 84 16 l42 31 -6
-49 c-3 -26 -21 -105 -40 -175 -53 -194 -60 -248 -33 -248 13 0 40 70 32 83
-3 5 -2 7 4 4 6 -4 22 15 37 41 29 53 60 92 73 92 4 1 21 12 38 25 28 24 29
24 10 44 -18 21 -45 28 -45 13 0 -4 5 -13 11 -19 8 -8 5 -14 -10 -23 -12 -6
-18 -16 -15 -22 4 -6 3 -8 -3 -5 -10 6 -47 -29 -76 -71 -15 -23 -15 -23 -14
17 1 23 5 41 9 41 11 0 38 101 53 200 7 49 16 94 20 100 11 18 -26 50 -58 50
-22 0 -40 -11 -69 -42z m77 -10 c-17 -26 -86 -80 -93 -74 -5 6 36 67 56 84 9
6 24 12 34 12 18 0 18 -2 3 -22z"/>
<path d="M8123 9205 c-12 -8 -31 -31 -43 -50 -17 -27 -19 -38 -10 -55 13 -25
34 -25 80 -1 34 19 34 19 45 -3 13 -25 45 -34 45 -12 0 9 -5 16 -11 16 -7 0
-9 12 -5 35 8 41 -9 47 -52 16 -15 -10 -37 -23 -49 -30 -35 -18 -30 12 9 49
35 34 28 61 -9 35z"/>
<path d="M8917 9177 c-30 -51 -42 -91 -33 -113 5 -13 9 -14 22 -4 8 7 13 19
10 26 -3 8 8 39 24 70 35 65 34 64 16 64 -8 0 -25 -19 -39 -43z"/>
<path d="M9063 9198 c-30 -34 -64 -98 -58 -109 12 -18 24 -8 51 41 15 28 32
49 38 47 6 -3 10 -26 9 -56 -2 -37 1 -51 11 -51 31 0 35 101 6 130 -25 25 -32
25 -57 -2z"/>
<path d="M3215 9200 c-3 -5 -3 -31 1 -58 4 -32 0 -76 -11 -125 -18 -80 -16
-107 9 -107 16 0 22 21 32 103 4 31 8 57 10 57 1 0 15 -5 30 -10 23 -9 31 -7
50 11 49 46 56 121 13 134 -13 5 -33 -2 -59 -19 -47 -31 -50 -31 -50 -7 0 23
-16 36 -25 21z m122 -75 c-18 -38 -53 -48 -64 -18 -9 22 54 80 70 64 8 -8 6
-21 -6 -46z"/>
<path d="M10224 9166 c-51 -51 -58 -87 -20 -111 28 -19 62 -13 98 18 24 20 52
77 32 64 -5 -3 -9 6 -9 19 0 13 3 24 8 24 4 0 7 7 7 15 0 11 -11 15 -36 15
-30 0 -45 -8 -80 -44z m76 -26 c15 -28 -33 -65 -77 -61 -20 2 -15 21 12 57 27
35 48 36 65 4z"/>
<path d="M6132 9178 c-7 -7 -12 -20 -12 -30 0 -9 -7 -21 -17 -26 -11 -7 -14
-15 -8 -28 5 -11 9 -23 9 -29 1 -5 8 -10 16 -10 9 0 18 20 27 60 7 33 12 63
13 68 0 11 -15 8 -28 -5z"/>
<path d="M13685 9176 c-42 -18 -93 -63 -111 -97 -20 -39 -5 -66 42 -75 40 -7
168 0 197 11 20 8 17 32 -4 26 -33 -9 -185 -11 -198 -2 -40 27 58 113 132 117
28 1 42 6 42 15 0 19 -62 22 -100 5z"/>
<path d="M2756 9164 c-3 -9 -6 -33 -6 -55 0 -28 4 -39 15 -39 11 0 15 11 15
39 0 22 5 43 10 46 6 4 8 11 5 16 -10 14 -32 11 -39 -7z"/>
<path d="M12040 9140 c0 -12 -11 -31 -25 -44 -27 -25 -33 -56 -11 -56 18 0 66
71 66 98 0 13 -6 22 -15 22 -8 0 -15 -9 -15 -20z"/>
<path d="M13470 9136 c0 -7 -7 -19 -15 -26 -19 -16 -16 -55 4 -55 8 0 18 14
23 32 5 18 13 35 18 38 17 10 11 25 -10 25 -11 0 -20 -6 -20 -14z"/>
<path d="M12060 8955 c0 -18 -5 -57 -11 -84 -9 -45 -13 -50 -32 -47 -69 14
-96 16 -103 5 -9 -15 15 -29 53 -29 55 0 62 -7 51 -47 -13 -47 -1 -142 18
-150 23 -9 25 0 14 55 -8 36 -8 62 0 91 l11 41 44 -5 c25 -2 49 -6 54 -9 5 -4
17 1 25 10 10 9 16 11 16 4 0 -14 21 -9 23 5 1 6 -32 12 -73 15 -85 6 -78 -8
-64 118 6 54 5 62 -10 62 -12 0 -16 -9 -16 -35z"/>
<path d="M7199 8948 c-1 -7 -1 -18 0 -24 1 -7 -11 -49 -25 -95 -15 -46 -27
-88 -29 -94 -1 -5 -6 -19 -10 -30 -49 -120 -52 -135 -31 -135 19 0 108 203 92
212 -7 5 -6 8 5 8 8 0 30 11 49 25 47 35 53 17 28 -84 -26 -104 -17 -120 42
-68 22 21 46 37 53 37 20 0 37 -21 37 -45 0 -12 8 -30 19 -39 22 -20 80 -30
100 -17 18 12 6 30 -17 24 -30 -7 -72 14 -72 37 0 12 5 18 10 15 18 -11 80 35
80 59 0 26 -17 46 -40 46 -21 0 -69 -50 -49 -51 8 0 6 -4 -6 -8 -12 -5 -28 -3
-41 6 -18 12 -25 10 -58 -12 -31 -21 -37 -22 -32 -8 31 110 31 147 -4 158 -13
4 -34 -2 -57 -16 -34 -21 -36 -22 -29 -3 4 10 10 40 13 67 5 39 3 47 -11 47
-9 0 -17 -6 -17 -12z m299 -210 c-2 -6 -15 -18 -28 -27 -21 -14 -23 -14 -16
-1 16 27 28 40 38 40 5 0 8 -5 6 -12z"/>
<path d="M3705 8888 c-3 -18 -13 -57 -22 -85 l-16 -53 -59 0 c-44 0 -60 -4
-65 -15 -8 -23 -1 -26 50 -16 25 4 50 5 56 2 6 -4 7 -27 2 -64 -8 -59 -6 -67
14 -67 8 0 14 24 18 61 3 34 10 65 17 69 6 4 30 7 53 8 23 1 48 9 56 17 14 13
8 15 -46 15 l-61 0 13 38 c7 20 16 56 20 80 5 34 4 42 -8 42 -9 0 -18 -13 -22
-32z"/>
<path d="M7784 8905 c-8 -20 16 -49 29 -36 11 11 0 51 -14 51 -5 0 -12 -7 -15
-15z"/>
<path d="M3947 8885 c-4 -8 -2 -17 4 -21 12 -7 41 15 33 27 -8 14 -31 11 -37
-6z"/>
<path d="M4592 8823 c-6 -2 -9 -10 -5 -16 4 -6 0 -8 -10 -4 -25 9 -87 -31 -87
-56 0 -25 46 -87 66 -87 7 0 14 -4 14 -10 0 -16 -34 -28 -63 -23 -39 8 -37
-23 2 -32 34 -7 91 18 91 40 0 8 -18 34 -40 56 -22 23 -40 44 -40 48 1 16 19
29 63 46 26 10 46 23 44 28 -4 13 -18 17 -35 10z"/>
<path d="M9923 8815 c-50 -21 -133 -109 -133 -139 0 -37 37 -58 96 -54 71 5
70 28 0 28 -60 0 -80 16 -56 45 6 8 8 20 4 26 -4 7 -3 9 3 6 5 -3 26 7 45 23
45 38 85 54 91 37 3 -9 7 -9 17 0 17 15 5 43 -17 43 -10 -1 -33 -7 -50 -15z"/>
<path d="M12300 8823 c-38 -12 -60 -28 -60 -43 0 -9 20 -36 45 -60 25 -24 45
-49 45 -55 0 -15 -58 -35 -109 -37 -48 -2 -60 -12 -32 -27 20 -11 105 0 140
18 40 22 44 38 21 76 -12 19 -35 45 -53 57 l-31 22 27 11 c15 6 25 14 21 17
-3 4 2 5 13 3 68 -14 113 -14 113 0 0 20 -35 28 -61 15 -15 -8 -19 -9 -15 -1
7 11 -34 14 -64 4z"/>
<path d="M11192 8743 c-19 -21 -41 -38 -48 -38 -19 0 -67 -96 -55 -108 7 -7
21 2 45 29 20 21 38 46 41 54 4 8 22 28 41 43 l34 29 1 -24 c1 -12 0 -35 -1
-50 -3 -59 39 -85 91 -57 16 8 25 7 40 -7 32 -29 169 -15 169 18 0 3 -34 4
-75 1 -80 -6 -93 2 -47 28 27 15 75 96 65 112 -2 4 -12 7 -22 7 -21 0 -101
-75 -101 -95 0 -16 -49 -45 -75 -45 -13 0 -16 10 -15 53 3 86 2 87 -26 87 -18
0 -39 -13 -62 -37z m258 -16 c0 -2 -12 -14 -27 -28 l-28 -24 24 28 c23 25 31
32 31 24z"/>
<path d="M7880 8748 c-64 -43 -118 -178 -72 -178 25 0 34 11 21 26 -16 19 34
110 71 129 16 8 52 15 80 15 72 0 62 24 -11 28 -44 2 -62 -2 -89 -20z"/>
<path d="M2725 8738 c-14 -13 -34 -39 -44 -58 -10 -19 -24 -35 -30 -35 -25 0
-38 -36 -40 -107 -2 -82 -8 -111 -28 -151 -16 -33 -8 -54 13 -36 21 17 39 64
53 139 18 93 19 97 46 104 13 3 40 21 59 40 28 26 36 41 36 69 0 51 -29 66
-65 35z m35 -36 c0 -17 -48 -72 -63 -72 -8 0 18 55 35 78 15 18 28 15 28 -6z"/>
<path d="M3102 8747 c-10 -11 -31 -86 -32 -110 0 -5 7 -7 17 -5 10 2 20 20 27
48 10 43 13 45 49 48 24 2 37 8 37 18 0 18 -83 20 -98 1z"/>
<path d="M3851 8705 c-26 -62 -27 -68 -12 -73 14 -5 65 104 56 118 -12 19 -21
10 -44 -45z"/>
<path d="M4031 8744 c-57 -18 -91 -50 -91 -85 0 -55 80 -60 141 -9 31 26 33
29 24 65 -6 21 -14 39 -20 41 -5 1 -30 -4 -54 -12z m49 -45 c0 -20 -46 -49
-77 -49 -55 0 -38 42 24 59 30 8 53 4 53 -10z"/>
<path d="M4290 8749 c0 -7 -3 -9 -7 -6 -4 4 -19 -5 -35 -20 -23 -22 -28 -24
-28 -9 0 10 -5 16 -11 14 -13 -4 -51 -146 -43 -160 7 -11 34 9 34 26 0 19 69
115 91 126 31 17 32 8 8 -43 -12 -25 -19 -52 -16 -61 9 -22 39 -21 35 2 -1 10
6 37 16 61 15 32 17 47 9 59 -12 20 -53 29 -53 11z"/>
<path d="M10072 8731 c-54 -46 -65 -88 -32 -121 26 -26 70 -26 104 1 40 31 29
113 -18 135 -20 9 -28 7 -54 -15z m58 -37 c15 -40 12 -53 -16 -66 -26 -12 -54
-4 -61 19 -4 12 44 73 58 73 5 0 14 -12 19 -26z"/>
<path d="M11651 8738 c-6 -16 -5 -27 5 -38 12 -13 18 -12 43 3 34 20 81 23 81
5 0 -7 -13 -33 -30 -58 -17 -26 -26 -48 -21 -53 13 -13 26 -2 56 49 21 36 24
48 15 60 -9 9 -9 14 -2 14 19 0 2 28 -20 33 -12 3 -38 0 -59 -7 -33 -12 -39
-12 -39 0 0 22 -20 16 -29 -8z"/>
<path d="M3320 8734 c-71 -31 -114 -95 -74 -111 9 -3 40 1 68 11 63 19 74 20
73 4 -1 -34 4 -48 17 -48 20 0 20 89 0 97 -7 3 -41 -4 -76 -16 -34 -11 -63
-19 -65 -17 -8 8 51 46 88 58 22 6 39 17 39 25 0 17 -26 16 -70 -3z"/>
<path d="M7687 8713 c-54 -86 -66 -123 -38 -123 9 0 81 134 81 150 0 21 -21 8
-43 -27z"/>
<path d="M10999 8732 c-9 -9 -33 -32 -53 -51 -42 -39 -45 -55 -13 -75 46 -30
118 14 102 64 -5 15 -1 26 12 35 17 13 17 14 -2 29 -24 19 -26 19 -46 -2z m6
-64 c-1 -13 -3 -26 -4 -30 0 -5 -15 -8 -33 -8 l-32 0 29 30 c34 36 43 38 40 8z"/>
<path d="M5993 8718 c-47 -34 -67 -72 -52 -100 16 -31 28 -38 70 -38 57 0 82
27 85 89 2 41 -2 53 -16 61 -29 15 -53 12 -87 -12z m67 -64 c0 -29 -23 -46
-57 -42 -41 5 -42 38 -2 73 31 25 34 26 46 9 7 -10 13 -28 13 -40z"/>
<path d="M10362 8732 c-12 -2 -20 -8 -17 -13 3 -5 0 -6 -8 -4 -7 3 -22 -3 -32
-15 -10 -11 -23 -20 -29 -20 -14 0 -57 -61 -50 -72 10 -16 23 -8 75 45 34 34
54 47 57 39 2 -8 -1 -19 -7 -25 -14 -14 -14 -44 -1 -52 13 -8 60 18 89 49 31
33 45 33 37 0 -7 -25 7 -54 25 -54 10 0 10 63 0 99 -10 38 -27 36 -70 -8 -22
-23 -42 -41 -45 -41 -2 0 1 13 7 30 13 34 3 48 -31 42z"/>
<path d="M10736 8695 c-25 -19 -46 -30 -46 -25 0 17 -27 11 -35 -7 -19 -47
-105 -297 -105 -304 0 -5 6 -9 14 -9 8 0 21 19 30 43 54 138 69 167 88 167 58
0 148 91 148 150 0 32 -42 25 -94 -15z m48 -29 c-19 -30 -72 -71 -81 -63 -11
12 7 37 48 67 48 34 58 33 33 -4z"/>
<path d="M2897 8695 c-19 -13 -37 -31 -41 -40 -11 -31 -6 -64 12 -74 21 -11
101 2 112 18 4 7 12 11 17 9 6 -2 10 2 10 7 -1 6 -9 9 -17 8 -8 -1 -36 -5 -62
-9 -42 -6 -48 -4 -48 11 0 12 5 15 16 11 35 -13 113 48 90 71 -14 15 -58 9
-89 -12z m53 -15 c-8 -5 -19 -10 -25 -10 -5 0 -3 5 5 10 8 5 20 10 25 10 6 0
3 -5 -5 -10z"/>
<path d="M2441 8699 c-36 -14 -81 -66 -81 -92 0 -64 92 -81 149 -28 36 34 40
67 10 105 -22 27 -39 31 -78 15z m64 -50 c13 -41 -31 -75 -86 -67 -32 4 -35
30 -5 59 30 30 83 35 91 8z"/>
<path d="M11611 8671 c-24 -34 -27 -51 -8 -51 22 0 58 45 51 63 -9 24 -20 21
-43 -12z"/>
<path d="M6213 8678 c-13 -6 -23 -16 -23 -22 0 -6 -9 -22 -20 -36 -23 -30 -26
-60 -5 -60 8 0 15 4 15 8 0 5 14 29 31 52 l32 44 27 -31 c15 -17 29 -36 32
-44 4 -13 28 -5 28 10 0 17 -65 91 -80 90 -8 0 -25 -5 -37 -11z"/>
<path d="M12490 8600 c0 -5 5 -10 10 -10 6 0 10 -7 10 -15 0 -8 7 -15 15 -15
18 0 20 21 3 38 -15 15 -38 16 -38 2z"/>
<path d="M13250 8223 c0 -5 16 -21 35 -36 49 -39 47 -69 -7 -97 -61 -31 -108
-69 -108 -86 0 -19 16 -18 32 4 11 15 50 39 125 76 45 23 33 94 -21 130 -26
17 -56 21 -56 9z"/>
<path d="M15410 8206 c0 -8 7 -22 16 -30 8 -9 13 -16 11 -16 -5 0 21 -84 47
-155 19 -52 20 -116 1 -161 -25 -60 -114 -175 -189 -246 -55 -52 -68 -69 -59
-78 25 -26 235 212 278 314 25 59 18 122 -24 241 -21 61 -42 118 -46 128 -9
20 -35 23 -35 3z"/>
<path d="M14218 8171 c-15 -16 -28 -37 -30 -47 -2 -11 -10 -18 -16 -17 -18 4
-109 -133 -149 -223 -47 -106 -55 -191 -23 -255 37 -74 90 -119 140 -119 32 0
20 17 -30 42 -66 34 -102 102 -97 183 3 37 16 88 35 133 45 106 157 262 209
290 10 6 14 16 10 26 -9 23 -20 20 -49 -13z"/>
<path d="M8464 8159 c-8 -13 42 -68 74 -80 12 -5 22 -12 22 -17 0 -5 -25 -36
-55 -69 -59 -66 -63 -73 -40 -73 14 0 110 94 128 126 11 19 -12 52 -45 63 -14
5 -34 21 -43 35 -19 28 -30 32 -41 15z"/>
<path d="M10060 8143 c-14 -9 -31 -23 -38 -30 -7 -7 -19 -16 -26 -20 -18 -11
-108 -144 -102 -150 3 -3 -1 -12 -9 -19 -23 -24 -77 -176 -82 -236 -7 -70 0
-98 32 -137 28 -33 82 -64 96 -55 5 3 9 0 9 -6 0 -6 12 -10 28 -8 34 4 32 21
-5 29 -84 17 -133 73 -133 151 0 73 75 264 137 346 13 18 21 38 17 45 -4 6 -4
9 1 5 4 -4 26 8 48 28 23 19 55 38 72 42 16 5 29 12 28 18 -4 16 -47 15 -73
-3z"/>
<path d="M4410 8128 c0 -13 -8 -60 -17 -105 l-17 -82 -67 -21 c-37 -11 -74
-20 -82 -20 -8 0 -17 -6 -20 -14 -5 -12 3 -14 37 -10 24 2 61 10 83 18 l40 14
-5 -69 c-4 -53 -1 -74 12 -94 20 -30 56 -33 79 -7 28 31 19 36 -27 17 -24 -11
-36 9 -36 61 0 81 9 102 48 111 50 12 57 37 8 31 -20 -2 -36 -4 -36 -3 0 1 9
41 19 90 11 49 18 92 15 97 -11 17 -34 7 -34 -14z"/>
<path d="M6361 8043 c-12 -54 -24 -109 -27 -122 -4 -21 -9 -23 -44 -18 -21 3
-41 2 -44 -1 -12 -11 18 -32 45 -32 34 0 33 2 14 -70 -18 -68 -19 -90 -2 -90
7 0 21 31 32 78 l20 77 48 3 c44 3 61 -8 37 -23 -6 -4 -8 -10 -5 -15 3 -5 1
-11 -5 -15 -13 -8 -13 -55 1 -55 5 0 8 -4 4 -9 -8 -14 32 -24 70 -17 45 9 85
42 85 71 0 37 -18 75 -36 75 -12 0 -14 -5 -9 -17 4 -10 10 -30 13 -46 4 -24 0
-29 -33 -43 -20 -8 -44 -14 -53 -12 -29 5 -25 44 7 81 17 19 31 39 31 45 0 7
-30 12 -73 14 l-74 3 19 85 c32 149 32 150 16 150 -11 0 -21 -28 -37 -97z"/>
<path d="M11130 8127 c0 -8 10 -22 21 -33 12 -10 37 -50 55 -89 39 -79 44
-146 18 -198 -48 -92 -224 -287 -261 -287 -7 0 -13 -7 -13 -15 0 -9 9 -15 23
-15 42 0 234 210 278 305 36 78 16 188 -54 292 -32 47 -67 68 -67 40z"/>
<path d="M13045 8109 c-38 -11 -88 -21 -110 -22 -27 -2 -40 -7 -40 -17 0 -24
39 -23 127 1 46 13 106 24 133 24 37 1 50 5 50 15 0 23 -78 22 -160 -1z"/>
<path d="M8242 8048 c3 -7 15 -15 29 -19 39 -11 157 -10 164 2 4 6 5 12 4 13
-2 2 -48 6 -102 10 -77 5 -98 4 -95 -6z"/>
<path d="M14387 8013 c-24 -23 33 -43 105 -37 l53 5 -82 -51 c-83 -52 -103
-79 -60 -81 12 -1 27 -2 32 -4 6 -1 18 -3 28 -3 27 -3 67 -48 67 -75 0 -40
-82 -97 -140 -97 -31 0 -58 33 -54 66 2 16 1 23 -2 16 -3 -6 -11 -9 -17 -5 -7
3 -9 3 -5 -2 4 -4 3 -14 -3 -21 -14 -17 3 -48 37 -70 17 -12 36 -15 65 -10
152 24 202 159 81 217 l-44 22 81 51 c44 28 81 56 81 63 0 8 -27 11 -87 10
-49 0 -97 2 -109 6 -11 4 -23 4 -27 0z"/>
<path d="M15100 7994 c-8 -2 -44 -5 -80 -6 -50 -2 -65 -6 -65 -18 0 -12 14
-14 79 -12 l78 4 -28 -52 c-31 -57 -66 -82 -86 -62 -16 16 -38 15 -38 -2 0
-15 21 -26 51 -26 18 0 17 -4 -11 -60 -35 -69 -35 -70 -15 -70 9 0 29 28 47
65 25 51 37 65 55 65 28 0 41 21 21 33 -13 9 -12 15 9 53 13 23 30 48 38 54
36 30 5 48 -55 34z"/>
<path d="M2850 7968 c-141 -98 -113 -281 37 -243 39 10 21 30 -24 27 -27 -2
-46 2 -57 13 -25 25 -19 40 20 54 64 23 117 124 82 159 -16 16 -20 15 -58 -10z
m40 -29 c0 -34 -80 -112 -97 -95 -7 7 17 43 52 79 29 28 45 34 45 16z"/>
<path d="M10285 7957 c-17 -18 -62 -60 -100 -94 -65 -59 -69 -64 -53 -79 12
-12 32 -17 68 -15 l51 1 -7 -48 c-4 -31 -2 -57 5 -71 17 -31 32 -16 26 27 -8
50 7 95 34 108 32 16 51 36 31 34 -32 -5 -40 1 -40 26 0 35 -24 26 -30 -12 -5
-27 -9 -29 -53 -32 -44 -3 -47 -2 -36 15 17 27 104 94 107 84 6 -18 32 1 32
23 0 12 5 27 11 33 11 11 5 34 -9 32 -4 0 -21 -14 -37 -32z"/>
<path d="M12362 7898 c-25 -54 -52 -95 -77 -117 l-39 -34 -6 24 c-5 18 1 32
22 54 40 43 18 59 -24 18 -61 -61 -21 -159 45 -109 9 7 17 19 17 25 0 7 4 10
9 6 6 -3 14 3 20 12 9 15 10 13 11 -12 0 -41 25 -75 56 -75 29 0 104 36 104
50 0 14 -23 12 -56 -5 -41 -21 -63 -19 -69 8 -7 26 20 148 41 188 18 35 18 49
-1 49 -8 0 -30 -35 -53 -82z"/>
<path d="M10785 7951 c-46 -29 -95 -78 -95 -95 0 -26 18 -18 52 20 32 36 86
70 96 60 12 -12 -31 -82 -104 -166 -70 -82 -86 -110 -65 -110 5 0 24 12 42 27
30 25 39 28 99 25 54 -2 72 1 91 17 30 25 19 37 -20 22 -18 -8 -46 -10 -75 -6
l-46 7 39 47 c65 78 85 133 59 159 -17 17 -38 15 -73 -7z"/>
<path d="M5688 7940 c-21 -16 -29 -35 -38 -88 -15 -91 -29 -112 -31 -47 -1 28
-2 57 -3 65 -1 8 -9 16 -19 18 -16 3 -17 -2 -11 -50 4 -29 12 -56 18 -60 8 -5
7 -8 -1 -8 -14 0 -17 -28 -7 -54 19 -49 65 22 85 131 6 32 15 63 20 68 6 6 39
12 75 15 85 7 87 24 3 28 -53 2 -70 -1 -91 -18z"/>
<path d="M6911 7924 c-37 -31 -39 -52 -8 -104 19 -35 20 -41 7 -54 -24 -23
-60 -30 -60 -12 0 9 -7 16 -15 16 -9 0 -15 -9 -15 -25 0 -34 38 -43 87 -18 48
23 53 52 22 111 l-24 43 24 20 c15 12 31 17 47 13 20 -5 24 -2 24 15 0 31 -50
28 -89 -5z"/>
<path d="M6708 7918 c-26 -9 -36 -27 -23 -40 9 -9 75 25 75 39 0 15 -14 15
-52 1z"/>
<path d="M4750 7895 c-5 -14 -10 -35 -10 -45 0 -28 -17 -34 -30 -10 -16 30
-42 24 -95 -22 l-48 -43 6 33 c4 21 3 32 -5 32 -7 0 -5 6 4 13 20 15 27 48 11
54 -18 6 -33 -29 -40 -97 -6 -60 -6 -60 21 -60 14 0 26 4 26 8 0 5 11 14 25
20 16 8 23 17 19 27 -4 11 -2 13 9 9 8 -3 18 0 22 6 5 8 15 3 30 -16 22 -27
23 -27 47 -12 17 11 27 29 31 55 2 21 6 44 8 52 7 26 -21 23 -31 -4z"/>
<path d="M5864 7899 c-36 -27 -81 -86 -88 -120 -9 -34 14 -71 48 -80 54 -15
155 20 111 37 -10 4 -20 3 -22 -2 -2 -6 -24 -8 -51 -4 -45 5 -47 7 -50 39 -2
22 0 31 8 26 6 -3 35 10 66 30 47 31 55 41 52 63 -4 35 -34 39 -74 11z m28
-32 c-9 -10 -26 -24 -37 -29 -19 -11 -19 -10 -2 9 9 11 17 24 17 29 0 5 9 10
20 10 18 0 18 -1 2 -19z"/>
<path d="M3170 7891 c-29 -55 3 -83 56 -52 l34 20 0 -74 0 -74 -40 -11 c-49
-13 -64 -39 -56 -97 13 -96 63 -120 100 -48 18 35 21 60 24 198 2 109 -1 157
-8 157 -6 0 -26 -11 -44 -25 -36 -27 -46 -30 -46 -15 0 6 7 10 15 10 8 0 15 7
15 15 0 22 -37 18 -50 -4z m107 -113 c-3 -7 -5 -2 -5 12 0 14 2 19 5 13 2 -7
2 -19 0 -25z m-29 -173 c-16 -64 -39 -67 -52 -8 -10 48 1 70 37 75 28 4 30 -6
15 -67z"/>
<path d="M4877 7868 c-36 -55 -35 -111 1 -116 13 -2 37 2 52 8 64 26 81 81 40
126 -35 36 -61 31 -93 -18z m83 -39 c0 -17 -45 -49 -69 -49 -5 0 -9 17 -8 39
1 28 7 41 22 48 24 11 55 -10 55 -38z"/>
<path d="M13167 7883 c-8 -16 -27 -62 -43 -103 -15 -41 -30 -68 -31 -60 -2 8
-7 42 -11 75 -10 80 -27 78 -74 -9 -21 -38 -40 -72 -42 -74 -3 -2 -4 34 -3 80
2 65 -1 83 -12 83 -10 0 -15 -24 -18 -103 -4 -88 -2 -103 12 -108 21 -8 37 8
73 74 26 48 30 51 35 30 4 -13 7 -39 7 -59 0 -20 6 -42 13 -48 21 -17 42 13
83 115 20 49 40 93 45 99 14 14 11 35 -6 35 -8 0 -21 -12 -28 -27z"/>
<path d="M6019 7851 c-45 -45 -51 -82 -17 -105 25 -18 94 -21 133 -6 43 16 19
29 -43 23 -45 -4 -60 -2 -71 10 -18 22 11 69 50 84 34 13 39 33 8 33 -12 0
-39 -17 -60 -39z"/>
<path d="M6648 7873 c-41 -47 -61 -124 -37 -139 14 -9 29 14 29 46 0 14 9 40
21 59 22 37 13 63 -13 34z"/>
<path d="M9260 7879 c-14 -4 -44 -7 -68 -8 -28 -1 -45 -6 -49 -16 -3 -9 -3
-18 0 -21 10 -10 67 7 61 18 -4 7 0 7 13 0 21 -12 103 -4 103 9 0 15 -35 26
-60 18z"/>
<path d="M8470 7872 c-79 -4 -90 -10 -110 -55 -10 -23 -21 -61 -25 -84 -9 -60
-22 -53 -30 15 -9 84 -15 111 -27 118 -16 10 -33 -13 -21 -28 6 -7 13 -43 16
-79 7 -77 24 -119 47 -119 19 0 32 27 50 105 19 82 32 95 95 95 50 0 78 13 59
28 -5 4 -29 6 -54 4z"/>
<path d="M11814 7826 c-59 -59 -36 -106 34 -70 21 10 40 20 44 22 3 2 4 -15 1
-37 -4 -32 -2 -42 11 -47 23 -9 46 13 27 26 -12 7 -12 15 2 52 21 55 21 58 -2
58 -10 0 -21 7 -25 15 -10 27 -56 17 -92 -19z m70 -4 c3 -5 -13 -19 -35 -32
-40 -22 -41 -22 -30 -2 17 32 54 51 65 34z"/>
<path d="M12050 7820 c-12 -23 -19 -49 -15 -57 5 -14 10 -12 32 8 l26 24 -7
-30 c-12 -48 -12 -50 3 -50 15 0 39 55 40 93 1 16 -5 22 -19 22 -11 0 -19 5
-17 11 1 6 -3 13 -10 16 -7 2 -21 -14 -33 -37z"/>
<path d="M13544 7819 c-11 -19 9 -25 74 -21 45 3 62 8 62 18 0 11 -16 14 -64
14 -36 0 -68 -5 -72 -11z"/>
<path d="M2982 7789 c1 -12 9 -24 16 -27 9 -3 13 3 10 19 -1 12 -9 24 -16 27
-9 3 -13 -3 -10 -19z"/>
<path d="M3450 7753 c-15 -20 -17 -28 -8 -34 14 -9 61 37 53 52 -10 15 -23 10
-45 -18z"/>
<path d="M9154 7749 c-12 -20 10 -24 99 -21 67 3 87 7 87 18 0 11 -19 14 -89
14 -54 0 -93 -4 -97 -11z"/>
<path d="M13533 7747 c-11 -19 17 -28 78 -25 36 2 63 7 62 13 -3 12 -133 23
-140 12z"/>
<path d="M14680 7719 c0 -18 -9 -46 -19 -63 -20 -32 -72 -76 -91 -76 -5 0 -10
-9 -10 -20 0 -11 7 -20 15 -20 20 0 103 76 121 111 19 38 19 99 -1 99 -10 0
-15 -10 -15 -31z"/>
<path d="M10454 7683 c-15 -47 -41 -100 -62 -125 -26 -31 -22 -54 7 -38 20 10
73 107 84 153 6 21 4 27 -8 27 -9 0 -18 -8 -21 -17z"/>
<path d="M7383 7606 c3 -8 -5 -19 -20 -27 -30 -16 -47 -45 -32 -55 12 -7 89
64 89 83 0 7 -9 13 -21 13 -14 0 -19 -5 -16 -14z"/>
<path d="M12184 7348 c-4 -6 5 -20 22 -32 16 -11 44 -36 62 -55 l34 -34 -56
-30 c-31 -16 -56 -36 -56 -43 0 -19 2 -18 80 19 38 17 70 38 70 46 0 15 -124
141 -139 141 -6 0 -13 -5 -17 -12z"/>
<path d="M11266 7293 c-3 -4 12 -26 35 -49 l41 -41 -28 -22 c-19 -15 -31 -18
-38 -11 -12 12 -46 14 -46 3 0 -5 11 -18 25 -31 l24 -23 46 31 c62 43 66 57
24 92 -19 16 -41 35 -50 43 -18 17 -23 18 -33 8z"/>
<path d="M11926 7273 c-21 -22 2 -28 107 -31 119 -3 170 3 165 20 -4 11 -262
21 -272 11z"/>
<path d="M4496 7249 c-14 -11 -26 -25 -26 -31 0 -5 -9 -22 -20 -38 -11 -15
-26 -52 -34 -81 -30 -111 -34 -119 -73 -119 -28 0 -34 -4 -31 -17 3 -13 12
-17 31 -15 25 3 26 1 17 -22 -5 -14 -19 -44 -30 -67 -16 -30 -19 -44 -11 -52
15 -15 23 -4 56 75 24 58 32 68 59 74 17 3 37 11 44 17 9 7 16 7 24 -1 7 -7
23 -12 36 -12 20 0 22 -4 16 -22 -3 -13 -13 -35 -20 -49 -21 -41 -30 -113 -14
-107 7 2 19 22 25 44 7 21 22 60 33 87 l21 47 51 0 c61 0 66 23 7 28 -20 2
-37 7 -37 11 0 18 88 197 103 209 13 11 16 10 22 -7 7 -23 20 -27 30 -11 9 14
-21 60 -38 60 -26 0 -66 -57 -111 -155 -44 -98 -46 -100 -83 -105 -27 -3 -42
0 -50 10 -9 12 -14 13 -24 3 -14 -14 -59 -18 -59 -5 0 4 4 12 9 18 9 10 33 94
31 108 -1 5 3 12 8 15 5 3 19 25 31 49 20 39 41 56 41 32 0 -5 7 -10 15 -10
16 0 19 17 9 44 -8 22 -26 20 -58 -5z"/>
<path d="M11033 7233 c-7 -2 -13 -11 -13 -18 0 -9 18 -14 57 -17 88 -5 143 2
143 18 0 11 -17 14 -74 14 -41 0 -80 2 -88 4 -7 3 -19 2 -25 -1z"/>
<path d="M4079 7203 c-1 -5 -1 -11 0 -15 5 -33 3 -150 -3 -176 -7 -31 -10 -32
-41 -26 -62 11 -155 -67 -155 -130 0 -61 49 -74 113 -31 78 53 129 177 122
296 -2 41 -5 77 -5 82 0 4 -7 7 -15 7 -8 0 -16 -3 -16 -7z m-41 -255 c23 -23
-67 -118 -112 -118 -19 0 -22 39 -3 63 16 22 78 67 92 67 6 0 16 -5 23 -12z"/>
<path d="M13191 7162 c-91 -92 -146 -240 -139 -375 3 -47 11 -95 20 -112 35
-65 140 -147 168 -130 18 11 10 23 -23 34 -42 14 -101 74 -122 123 -19 46 -19
146 -1 214 17 63 64 170 82 185 8 6 11 16 7 23 -3 6 -2 8 2 3 5 -4 21 4 35 18
15 14 39 29 53 33 38 10 38 26 0 30 -28 3 -40 -4 -82 -46z"/>
<path d="M14541 7188 c0 -7 19 -27 42 -43 77 -57 98 -175 47 -275 -32 -62
-108 -140 -136 -140 -15 0 -24 -6 -24 -16 0 -8 4 -13 9 -10 5 4 11 0 13 -6 7
-20 83 36 123 90 75 102 93 207 51 297 -33 72 -128 149 -125 103z"/>
<path d="M8737 7183 c-2 -5 -12 -40 -22 -80 -17 -72 -17 -72 -56 -78 -42 -7
-57 -21 -42 -36 6 -6 20 -6 37 2 14 7 29 9 32 6 4 -3 -1 -35 -10 -71 -19 -78
-20 -99 -4 -94 7 3 22 42 34 88 23 91 24 92 109 103 17 2 30 10 30 18 0 14
-12 15 -81 4 -23 -4 -33 -1 -38 10 -3 9 -2 14 3 11 5 -3 14 16 20 42 7 26 14
55 17 65 5 17 -20 26 -29 10z"/>
<path d="M9224 7074 c-26 -60 -54 -103 -93 -144 -83 -88 -134 -93 -76 -7 15
21 34 37 45 37 11 0 20 7 20 15 0 25 -44 17 -72 -12 -52 -56 -67 -113 -35
-135 15 -10 89 20 118 48 l27 26 7 -30 c3 -17 12 -35 18 -41 21 -17 77 -10 92
13 21 29 2 45 -24 22 -12 -11 -27 -16 -37 -12 -26 10 -13 88 29 176 45 95 54
130 34 130 -9 0 -30 -34 -53 -86z"/>
<path d="M2561 7087 c-6 -35 -11 -71 -11 -81 0 -23 -46 -39 -103 -33 -40 3
-47 2 -45 -12 3 -13 17 -16 71 -16 77 0 71 13 47 -108 -10 -54 -8 -77 9 -77 4
0 13 35 20 78 16 97 26 122 49 122 10 0 28 9 40 21 l23 20 -3 -43 c-2 -24 -9
-49 -15 -56 -7 -7 -13 -24 -13 -38 0 -38 22 -28 55 27 l31 50 24 -37 c14 -21
38 -42 55 -47 16 -6 38 -21 49 -35 17 -22 25 -24 74 -20 35 3 59 11 67 21 7 9
15 14 18 10 4 -3 9 2 13 11 10 27 -1 29 -37 7 -35 -21 -103 -28 -113 -12 -3 5
4 11 17 15 12 3 37 20 55 37 27 26 32 38 27 58 -4 14 -12 29 -18 33 -39 25
-103 -13 -113 -67 -3 -19 -8 -35 -10 -35 -21 0 -55 30 -70 61 -18 40 -31 48
-52 27 -16 -16 -15 -2 3 82 13 62 8 100 -15 100 -10 0 -15 -16 -24 -72 -5 -25
-18 -47 -43 -69 -44 -38 -49 -31 -34 57 7 36 9 69 6 74 -14 22 -24 7 -34 -53z
m372 -142 c4 -8 -6 -24 -24 -40 -46 -38 -63 -30 -38 18 20 38 52 49 62 22z"/>
<path d="M3094 7116 c-8 -22 0 -51 14 -51 6 0 13 5 14 10 0 6 8 15 16 21 14
10 13 13 -6 23 -27 14 -31 14 -38 -3z"/>
<path d="M4235 7100 c-8 -13 3 -50 15 -50 5 0 14 8 19 18 15 27 -18 58 -34 32z"/>
<path d="M14222 7084 c-27 -18 -45 -51 -33 -58 5 -3 21 6 35 19 15 14 31 25
35 25 17 0 33 -31 28 -53 -9 -34 -80 -124 -118 -150 -22 -15 -35 -32 -37 -50
-5 -37 19 -35 53 4 l26 32 28 -27 c27 -26 64 -33 89 -17 16 10 6 61 -13 61
-16 0 -37 -25 -28 -33 3 -4 1 -7 -5 -7 -19 0 -47 50 -36 64 42 55 74 114 74
136 0 59 -51 87 -98 54z"/>
<path d="M10312 7043 c-24 -29 -24 -35 -1 -115 10 -37 10 -52 1 -73 -15 -32
-32 -24 -32 16 0 19 -5 29 -15 29 -23 0 -19 -62 5 -88 25 -27 32 -27 54 -3 26
28 31 92 13 146 -13 37 -14 50 -4 66 6 10 15 20 19 20 5 1 13 2 18 3 20 2 10
21 -12 24 -16 2 -31 -6 -46 -25z"/>
<path d="M11913 7048 c3 -13 13 -54 21 -91 18 -79 33 -110 49 -105 7 2 25 31
41 63 17 34 31 54 33 45 12 -42 38 -90 49 -90 17 0 53 47 61 79 3 14 14 43 24
63 22 44 24 58 6 58 -13 0 -37 -47 -68 -128 -15 -41 -26 -32 -43 34 -7 30 -18
49 -27 49 -8 0 -28 -29 -45 -64 -33 -67 -35 -67 -49 9 -12 66 -26 100 -42 100
-11 0 -14 -6 -10 -22z"/>
<path d="M13654 7064 c-7 -3 -31 -23 -55 -46 -24 -22 -70 -58 -102 -80 -84
-57 -76 -73 31 -69 l82 3 -6 -34 c-3 -18 -7 -40 -8 -49 -4 -22 9 -43 21 -36 6
4 13 31 16 62 3 33 13 62 23 72 17 17 17 18 0 21 -11 2 -15 9 -12 19 3 8 6 30
6 49 0 24 8 42 25 58 31 28 18 46 -21 30z m-39 -123 l-7 -41 -55 0 -55 0 59
44 c32 24 60 43 61 41 2 -2 1 -22 -3 -44z"/>
<path d="M5072 7043 c-38 -18 -82 -78 -118 -159 -28 -64 -28 -64 -10 -64 8 0
27 28 44 63 37 80 83 133 123 141 18 3 29 11 27 18 -7 19 -29 20 -66 1z"/>
<path d="M6730 7037 c0 -13 39 -41 47 -33 3 2 2 14 -2 25 -7 23 -45 29 -45 8z"/>
<path d="M10086 7014 c-52 -39 -76 -79 -76 -124 0 -49 50 -54 101 -9 l24 21 3
-24 c6 -34 22 -51 38 -37 10 8 11 15 1 30 -9 14 -7 30 7 74 22 64 13 84 -18
40 -30 -43 -97 -105 -113 -105 -7 0 -13 10 -13 21 0 29 90 119 119 119 28 0
23 22 -6 26 -12 2 -40 -11 -67 -32z"/>
<path d="M11055 7039 c-11 -17 6 -140 27 -197 28 -74 46 -67 78 30 33 102 51
121 106 112 49 -7 69 11 29 26 -77 29 -131 -9 -160 -112 l-18 -63 -12 36 c-7
20 -16 67 -20 103 -7 65 -17 87 -30 65z"/>
<path d="M3229 7002 c-28 -27 -40 -45 -36 -56 4 -10 1 -16 -7 -16 -20 0 -61
-99 -47 -113 15 -15 25 -2 45 59 22 68 86 139 116 129 18 -6 21 -3 18 12 -6
33 -44 27 -89 -15z"/>
<path d="M8874 7012 c-33 -27 -62 -75 -75 -125 -11 -39 -10 -48 5 -72 14 -21
24 -26 48 -23 42 4 50 28 10 28 -18 0 -32 6 -36 16 -8 20 3 64 15 64 5 0 30
19 54 41 46 43 57 72 29 83 -22 9 -27 8 -50 -12z m36 -15 c0 -2 -12 -14 -27
-28 l-28 -24 24 28 c23 25 31 32 31 24z"/>
<path d="M7504 6991 c-41 -25 -93 -92 -100 -130 -12 -56 43 -93 79 -53 23 25
21 32 -8 32 -14 0 -25 -5 -25 -12 0 -8 -3 -9 -11 -1 -5 5 -7 22 -3 36 7 32 75
104 109 117 14 5 25 14 25 20 0 16 -32 12 -66 -9z"/>
<path d="M12629 7000 c-64 -8 -79 -15 -79 -37 0 -11 6 -14 23 -8 12 4 38 9 57
11 19 3 54 7 78 10 27 3 42 10 42 20 0 15 -26 16 -121 4z"/>
<path d="M4797 6970 c-39 -34 -62 -88 -53 -123 6 -25 57 -59 78 -53 7 2 25 7
39 10 16 3 29 15 32 27 4 16 2 19 -11 13 -35 -15 -88 -16 -100 -1 -10 11 -1
22 49 61 46 36 60 52 57 69 -5 36 -49 34 -91 -3z m33 -29 c-19 -16 -37 -27
-40 -24 -7 7 48 53 63 53 7 0 -4 -14 -23 -29z"/>
<path d="M5895 6988 c-27 -15 -60 -48 -74 -75 -30 -57 13 -133 75 -133 37 0
86 19 118 44 33 26 9 30 -43 7 -63 -27 -85 -27 -111 1 -25 28 -26 48 0 48 33
0 95 29 108 51 11 17 11 25 -3 45 -17 26 -39 30 -70 12z m45 -34 c0 -15 -67
-50 -78 -40 -3 3 -3 7 -1 9 2 2 17 13 33 25 34 26 46 28 46 6z"/>
<path d="M8402 6967 c-15 -41 -16 -122 -2 -148 14 -25 41 -24 74 2 18 14 26
28 23 40 -3 11 -1 17 3 14 5 -3 20 17 34 45 24 48 24 50 6 60 -29 16 -42 12
-35 -9 7 -22 -29 -113 -51 -132 -10 -8 -18 -8 -27 0 -13 10 -10 58 9 134 10
40 -19 35 -34 -6z"/>
<path d="M5433 6950 c-31 -24 -54 -36 -58 -30 -12 20 -33 -10 -44 -61 -14 -62
-14 -59 3 -59 8 0 17 8 20 18 8 23 86 106 115 121 25 14 26 7 6 -54 -9 -25
-13 -49 -10 -54 3 -5 1 -11 -5 -13 -16 -5 -17 -53 0 -53 8 0 16 11 18 25 2 14
12 50 24 81 22 62 21 112 -2 116 -8 2 -38 -15 -67 -37z"/>
<path d="M5641 6930 c-57 -68 -65 -106 -31 -140 22 -22 40 -26 40 -9 0 6 7 8
17 5 23 -9 9 4 -19 18 -17 9 -22 19 -21 41 4 50 6 55 18 55 20 0 69 70 58 81
-7 7 -28 -11 -62 -51z"/>
<path d="M8207 6970 c-22 -18 -56 -99 -80 -195 -3 -11 -15 -45 -26 -75 -15
-38 -18 -57 -10 -65 16 -16 37 19 65 112 18 57 30 80 39 77 20 -8 71 22 94 55
23 32 28 80 9 99 -18 18 -62 14 -91 -8z m71 -34 c5 -22 -45 -76 -70 -76 -21 0
-23 12 -7 43 29 56 70 73 77 33z"/>
<path d="M6827 6960 c-11 -16 -12 -31 -4 -71 8 -42 7 -53 -7 -67 -15 -15 -16
-15 -16 1 0 9 -7 17 -15 17 -19 0 -20 -34 0 -50 8 -6 23 -9 35 -5 32 10 43 41
35 103 -5 39 -3 57 5 62 13 8 5 30 -10 30 -5 0 -15 -9 -23 -20z"/>
<path d="M14956 6962 c-3 -5 3 -17 14 -27 14 -13 36 -17 91 -16 81 1 109 7
109 24 0 8 -27 12 -87 12 -49 0 -95 4 -104 8 -10 5 -20 4 -23 -1z"/>
<path d="M3067 6946 c-3 -8 -9 -42 -13 -75 -5 -51 -4 -61 8 -61 11 0 17 15 22
53 3 28 9 62 12 75 5 16 2 22 -9 22 -8 0 -17 -6 -20 -14z"/>
<path d="M5202 6953 c-7 -3 -24 -23 -38 -44 -23 -37 -23 -41 -10 -74 17 -41
38 -52 74 -39 40 14 40 34 -1 27 -26 -4 -36 -1 -40 11 -5 12 3 20 28 30 45 19
59 46 39 74 -15 22 -27 25 -52 15z m28 -43 c0 -5 -2 -10 -4 -10 -2 0 -12 -3
-20 -6 -12 -5 -15 -2 -10 10 7 17 34 22 34 6z"/>
<path d="M7860 6943 c-14 -10 -32 -16 -41 -15 -21 4 -76 -125 -60 -141 6 -6
12 -9 14 -6 2 2 25 34 51 72 26 37 51 67 57 67 5 0 9 -18 9 -40 0 -26 4 -40
13 -40 19 0 69 55 60 65 -5 4 -2 5 5 1 7 -4 19 -2 27 4 22 19 43 6 38 -23 -3
-14 0 -28 7 -32 14 -9 16 -7 24 32 6 25 3 36 -13 52 -28 28 -32 27 -85 -13
l-45 -35 -3 32 c-4 38 -23 44 -58 20z"/>
<path d="M7630 6918 c-26 -43 -26 -90 1 -114 19 -17 23 -17 47 -3 15 8 32 25
38 38 21 42 -12 111 -53 111 -7 0 -22 -15 -33 -32z m56 -23 c11 -27 -5 -65
-26 -65 -22 0 -27 29 -10 61 13 23 28 25 36 4z"/>
<path d="M11470 6938 c0 -11 19 -17 78 -24 85 -10 115 -8 110 8 -5 13 -14 15
-115 24 -61 6 -73 4 -73 -8z"/>
<path d="M4147 6905 c-19 -39 -22 -71 -8 -79 10 -7 36 22 28 31 -3 3 0 18 8
34 18 35 19 49 2 49 -7 0 -21 -16 -30 -35z"/>
<path d="M6711 6927 c-14 -18 -41 -94 -41 -118 0 -39 27 -17 39 32 8 28 22 58
32 67 10 9 16 19 13 24 -8 12 -30 10 -43 -5z"/>
<path d="M12547 6895 c-10 -24 38 -38 112 -31 66 6 88 16 77 35 -5 7 -13 8
-24 2 -19 -10 -106 -8 -138 3 -15 5 -23 3 -27 -9z"/>
<path d="M13827 6863 c-4 -3 -7 -18 -7 -31 0 -37 -45 -107 -85 -132 -39 -24
-45 -40 -15 -40 26 0 87 55 110 99 31 61 29 136 -3 104z"/>
<path d="M7565 6721 c-5 -9 43 -118 90 -200 47 -82 26 -211 -45 -275 -48 -43
-137 -90 -145 -76 -3 6 0 10 7 10 8 0 7 5 -4 16 -27 28 -41 6 -18 -27 26 -36
42 -36 105 0 76 44 131 108 144 170 22 103 13 154 -45 250 -18 30 -38 74 -46
98 -12 40 -30 55 -43 34z"/>
<path d="M5695 6664 c-14 -15 -25 -31 -25 -36 0 -5 -7 -16 -15 -24 -8 -9 -15
-22 -15 -30 0 -8 7 -14 15 -14 8 0 15 6 15 14 0 7 18 32 40 55 22 22 40 46 40
51 0 19 -31 10 -55 -16z"/>
<path d="M3984 6666 c-4 -9 4 -24 19 -38 64 -60 97 -235 59 -320 -21 -48 -70
-92 -114 -103 -30 -8 -37 -22 -15 -31 37 -14 129 57 158 121 22 48 24 139 5
211 -28 106 -96 203 -112 160z"/>
<path d="M3550 6657 c0 -29 48 -59 94 -61 25 0 46 -2 46 -2 0 -1 -11 -26 -25
-57 -28 -60 -50 -73 -111 -61 -26 5 -34 3 -34 -9 0 -18 21 -27 65 -27 l33 0
-21 -40 c-12 -22 -28 -40 -34 -40 -7 0 -13 -5 -13 -11 0 -15 19 -49 28 -49 5
0 23 32 41 71 22 48 40 73 57 79 25 10 32 26 13 32 -8 3 -3 25 16 65 15 34 24
66 21 72 -4 5 -28 9 -54 9 -47 -1 -92 14 -92 32 0 6 -7 10 -15 10 -8 0 -15 -6
-15 -13z"/>
<path d="M2423 6638 c-37 -40 -84 -148 -99 -227 -27 -135 -2 -235 74 -301 49
-44 87 -59 104 -42 8 8 3 14 -18 22 -93 36 -137 107 -137 225 0 92 18 162 66
250 28 52 36 60 65 63 44 4 44 32 -1 32 -22 0 -41 -8 -54 -22z"/>
<path d="M2932 6642 c-48 -14 -20 -27 50 -23 l71 3 -36 -32 c-20 -18 -37 -36
-37 -41 0 -5 21 -29 47 -53 41 -38 46 -48 47 -87 1 -38 -2 -45 -26 -57 -31
-14 -86 -8 -115 13 -17 13 -17 14 0 33 24 27 4 39 -28 18 -31 -20 -32 -39 -3
-65 74 -69 208 -40 208 45 0 49 -16 81 -57 120 -23 21 -34 37 -28 42 6 4 32
22 58 40 26 18 45 37 42 43 -7 10 -157 11 -193 1z"/>
<path d="M7159 6549 c-19 -37 -1 -78 52 -116 27 -19 49 -38 49 -43 0 -12 -57
-20 -92 -13 -18 4 -40 16 -49 27 -23 28 -37 11 -18 -22 19 -35 85 -49 145 -33
64 17 63 35 -7 102 -33 32 -59 64 -57 71 4 10 26 12 86 10 45 -2 91 -1 102 3
45 14 11 25 -92 30 -100 4 -108 3 -119 -16z"/>
<path d="M6191 6523 c-20 -71 -10 -143 19 -143 3 0 6 26 6 58 -1 31 3 72 7 90
13 49 -19 44 -32 -5z"/>
<path d="M5621 6531 c-19 -35 -51 -184 -51 -239 0 -62 25 -118 70 -156 17 -14
36 -27 41 -27 13 -2 22 -5 39 -12 8 -4 33 -8 54 -10 52 -3 60 20 9 28 -73 12
-121 35 -150 73 -25 34 -28 44 -28 117 0 54 8 103 22 150 12 39 23 74 23 80 3
19 -19 16 -29 -4z"/>
<path d="M4815 6522 c-55 -13 -26 -27 60 -29 65 -1 85 2 85 12 0 7 -6 15 -12
17 -21 7 -101 7 -133 0z"/>
<path d="M6805 6490 c-8 -14 19 -26 62 -29 52 -3 83 6 83 24 0 11 -17 14 -70
13 -39 0 -72 -4 -75 -8z"/>
<path d="M4925 6408 c-22 -5 -73 -8 -112 -5 -53 3 -73 1 -73 -8 0 -39 244 -27
258 13 4 14 -16 14 -73 0z"/>
<path d="M6368 6409 c-3 -8 0 -25 5 -39 16 -42 -1 -100 -39 -138 -26 -26 -38
-32 -46 -24 -19 19 -28 14 -28 -13 0 -39 50 -34 94 9 41 42 60 95 53 149 -6
43 -31 80 -39 56z"/>
<path d="M3204 6311 c0 -54 -19 -91 -60 -118 -21 -13 -27 -14 -34 -3 -11 18
-29 3 -23 -20 16 -60 134 26 148 107 8 48 0 83 -19 83 -8 0 -12 -17 -12 -49z"/>
<path d="M7926 5524 c-64 -17 -120 -55 -135 -92 -16 -38 1 -75 61 -129 147
-134 159 -149 156 -189 -2 -29 -9 -42 -28 -51 -38 -19 -128 -16 -178 7 -39 18
-41 21 -30 39 7 11 10 23 7 26 -10 9 -39 -6 -50 -27 -14 -27 1 -43 67 -68 76
-28 161 -27 204 3 77 52 55 129 -66 228 -41 33 -86 76 -101 95 l-26 35 20 27
c26 35 69 60 113 64 32 3 35 1 38 -27 5 -54 12 -75 27 -75 17 0 35 31 35 61 0
26 -40 89 -55 88 -5 -1 -32 -7 -59 -15z"/>
<path d="M5632 5492 c4 -15 -1 -17 -33 -14 -125 12 -279 -154 -279 -302 0
-110 30 -164 115 -209 57 -30 227 -38 256 -11 12 11 16 21 10 27 -12 12 -31 0
-31 -21 0 -11 -3 -13 -8 -6 -4 6 -45 13 -92 16 -96 5 -156 30 -194 81 -28 39
-30 174 -3 228 45 90 147 169 220 169 30 0 41 -18 52 -82 4 -23 11 -38 20 -38
12 0 14 16 11 79 -2 43 -6 83 -10 90 -12 18 -39 13 -34 -7z"/>
<path d="M8566 5463 c-10 -10 -7 -223 4 -223 5 0 7 -6 5 -12 -7 -17 30 -167
44 -181 24 -24 23 8 -2 111 -20 80 -27 132 -27 204 0 89 -7 118 -24 101z"/>
<path d="M3154 5415 c-10 -25 99 -332 149 -420 17 -30 29 -40 47 -40 l25 0 3
170 c3 113 8 181 17 203 13 30 17 32 64 32 39 0 51 4 51 15 0 12 -13 15 -59
15 -88 0 -94 -12 -102 -220 -4 -91 -7 -167 -8 -170 -6 -21 -122 266 -141 350
-18 79 -18 80 -30 80 -6 0 -13 -7 -16 -15z"/>
<path d="M4088 5393 c-2 -21 1 -79 6 -130 9 -98 4 -132 -17 -116 -17 14 -89
11 -94 -4 -3 -8 15 -13 59 -15 l63 -3 8 -60 c10 -69 9 -67 29 -60 12 5 13 15
5 56 -5 27 -8 51 -6 53 2 2 27 6 56 10 l51 6 -5 -39 c-4 -31 -1 -43 16 -60 45
-45 134 -9 127 52 -2 17 -15 40 -28 52 -13 11 -22 28 -20 38 4 21 -14 22 -59
3 -19 -7 -57 -16 -86 -20 -44 -5 -52 -3 -57 12 -8 29 -18 139 -18 202 0 44 -4
60 -13 60 -9 0 -15 -14 -17 -37z m246 -282 l37 -30 -20 -20 c-32 -32 -81 -22
-81 15 0 15 18 64 23 64 3 0 21 -13 41 -29z"/>
<path d="M2507 5413 c-3 -5 -8 -35 -12 -69 l-7 -61 -69 5 c-59 4 -69 2 -69
-11 0 -21 29 -36 85 -43 49 -7 51 -11 36 -76 -6 -25 -5 -38 1 -38 11 0 -22
-27 -57 -46 -24 -14 -27 -50 -4 -46 10 1 19 -6 22 -18 7 -26 27 -26 27 0 0 32
25 74 66 110 42 36 35 41 68 -42 8 -21 22 -38 30 -38 23 0 20 69 -4 100 -11
14 -20 28 -20 33 0 12 62 65 98 82 17 9 32 20 32 25 0 18 -20 21 -47 7 -15 -8
-49 -17 -75 -20 l-47 -7 -10 38 c-5 20 -13 54 -17 75 -6 37 -18 54 -27 40z
m19 -251 l-29 -27 7 25 c3 14 6 36 6 50 l0 24 22 -22 22 -22 -28 -28z m74 64
c0 -11 -19 -15 -25 -6 -3 5 1 10 9 10 9 0 16 -2 16 -4z"/>
<path d="M9058 5409 c-11 -6 -15 -16 -11 -26 4 -10 2 -14 -4 -10 -22 14 -31
-119 -13 -183 12 -41 -6 -73 -60 -104 -27 -16 -33 -17 -41 -5 -13 20 -12 24
17 58 14 17 35 31 46 31 25 0 18 24 -9 28 -23 3 -93 -68 -93 -96 0 -26 28 -62
49 -62 23 0 111 58 111 73 0 7 12 -5 27 -26 25 -36 44 -44 77 -31 27 10 20 37
-8 30 -24 -6 -43 9 -65 52 -10 18 -10 31 0 60 9 27 9 37 0 40 -6 2 -11 8 -11
13 0 6 5 7 10 4 6 -4 11 15 12 49 0 31 1 68 2 83 1 30 -11 37 -36 22z m-1
-161 c-2 -18 -4 -4 -4 32 0 36 2 50 4 33 2 -18 2 -48 0 -65z"/>
<path d="M13417 5403 c-3 -4 -8 -46 -11 -93 -9 -113 -24 -186 -41 -200 -31
-26 9 -96 61 -106 40 -7 71 10 108 60 17 23 18 28 6 36 -10 6 -19 1 -32 -21
-24 -40 -63 -54 -94 -35 -20 14 -21 19 -11 51 12 41 30 58 74 73 30 10 32 9
42 -19 12 -35 31 -38 31 -4 0 38 -42 61 -89 49 l-37 -10 8 75 c13 137 13 144
1 148 -6 2 -13 0 -16 -4z"/>
<path d="M3520 5374 c0 -8 5 -12 10 -9 6 4 8 11 5 16 -9 14 -15 11 -15 -7z"/>
<path d="M6583 5372 c-34 -3 -59 -25 -48 -42 8 -13 35 -13 35 0 0 11 118 14
144 4 11 -4 3 -16 -35 -46 -28 -21 -53 -46 -56 -55 -7 -17 32 -52 58 -53 28 0
138 -62 154 -86 8 -13 12 -30 9 -38 -8 -22 -102 -66 -139 -66 -59 0 -74 25
-90 149 -15 111 -29 151 -52 151 -17 0 -16 -35 1 -63 7 -12 16 -53 20 -92 10
-116 25 -153 65 -166 54 -18 126 -5 179 34 54 38 63 70 33 109 -23 29 -106 79
-163 97 -21 7 -38 16 -38 19 0 4 25 27 55 50 30 24 55 47 55 51 0 28 -103 51
-187 43z"/>
<path d="M10543 5266 c1 -47 6 -86 10 -86 5 0 5 -6 0 -12 -13 -20 -29 -133
-23 -159 3 -13 19 -30 35 -38 26 -12 33 -12 64 5 50 26 65 61 49 110 -8 23
-24 44 -40 53 -25 14 -29 14 -57 -7 -17 -12 -31 -18 -31 -13 0 5 5 11 12 13 7
3 11 39 12 108 1 92 -1 105 -16 108 -16 3 -18 -5 -15 -82z m95 -168 c7 -7 12
-27 12 -45 0 -38 -23 -54 -73 -51 -26 2 -32 6 -27 18 4 8 15 32 24 53 16 38
41 48 64 25z"/>
<path d="M14010 5258 c-53 -36 -103 -115 -108 -170 -4 -40 -2 -48 12 -48 10 0
16 8 16 23 0 12 13 50 30 84 34 74 77 107 126 98 20 -3 35 0 43 9 9 11 5 15
-20 20 -50 10 -64 7 -99 -16z"/>
<path d="M9755 5250 c-3 -5 15 -22 40 -37 83 -50 81 -47 65 -78 -8 -15 -45
-51 -82 -79 -64 -49 -84 -76 -55 -76 20 0 146 107 168 143 10 18 18 38 17 46
-3 13 -121 91 -138 91 -5 0 -12 -4 -15 -10z"/>
<path d="M8363 5212 c-79 -67 -54 -154 33 -117 34 14 36 14 58 -12 32 -37 53
-22 28 20 -11 18 -18 37 -15 44 9 24 -19 23 -48 -1 -36 -31 -69 -34 -69 -8 0
22 40 62 66 66 11 2 19 9 19 17 0 24 -39 20 -72 -9z"/>
<path d="M8131 5204 c-11 -15 -22 -38 -22 -53 -6 -98 15 -131 82 -131 43 0 48
11 20 41 -18 20 -20 20 -29 3 -18 -32 -42 1 -42 55 0 50 14 77 43 83 26 5 22
22 -7 26 -16 2 -30 -5 -45 -24z"/>
<path d="M8748 5208 c-28 -22 -68 -90 -68 -115 0 -36 42 -73 83 -73 18 0 37 3
41 7 4 4 14 8 22 8 7 0 13 5 11 10 -1 6 -21 9 -44 7 -51 -4 -78 9 -80 37 -1
14 4 21 17 21 27 0 90 39 90 56 0 15 -35 54 -48 54 -5 0 -15 -6 -24 -12z m32
-34 c0 -9 -32 -33 -44 -34 -5 0 -1 9 9 20 18 20 35 26 35 14z"/>
<path d="M4555 5203 c-40 -10 -65 -44 -65 -88 0 -69 11 -106 29 -102 9 2 14
10 12 18 -2 8 -6 35 -9 61 -6 60 8 78 59 78 40 0 55 22 23 34 -17 6 -18 6 -49
-1z"/>
<path d="M4712 5195 c-28 -12 -32 -18 -26 -37 3 -13 26 -44 50 -70 49 -53 56
-78 22 -78 -39 0 -71 23 -80 58 -9 34 -22 41 -32 17 -8 -21 7 -56 33 -80 16
-14 37 -19 74 -20 47 0 52 2 55 23 5 35 -15 76 -54 111 -19 18 -34 35 -34 40
0 4 14 12 32 17 17 5 33 15 36 22 5 16 -35 15 -76 -3z"/>
<path d="M6989 5181 c-44 -44 -33 -128 20 -155 31 -16 152 -30 181 -21 30 10
26 39 -4 31 -40 -10 -146 6 -169 25 -22 17 -22 17 -3 38 11 12 31 27 45 34 32
15 39 46 15 64 -28 20 -53 16 -85 -16z m61 -9 c0 -9 -46 -52 -55 -52 -12 0 -4
21 15 40 21 21 40 26 40 12z"/>
<path d="M13654 5166 c-35 -34 -44 -51 -44 -77 0 -47 23 -76 72 -89 47 -13 98
2 98 29 0 14 2 14 10 1 5 -8 10 -10 10 -4 0 20 -13 23 -46 9 -42 -17 -100 -4
-109 26 -8 25 -13 20 58 49 61 24 82 55 57 85 -23 28 -60 17 -106 -29z m81 4
c5 -9 -50 -40 -71 -40 -20 0 29 38 63 49 1 1 5 -4 8 -9z"/>
<path d="M12636 5160 c-19 -17 -36 -26 -38 -21 -1 5 -9 11 -17 13 -10 2 -15
-8 -17 -34 -2 -21 -11 -57 -22 -80 -19 -43 -19 -68 -1 -68 6 0 19 19 30 43 23
51 70 119 85 124 9 3 8 -14 -1 -59 -8 -35 -11 -76 -8 -91 8 -39 42 -54 83 -37
36 15 43 46 8 36 -47 -15 -53 -12 -56 24 -2 19 4 64 12 99 21 91 5 106 -58 51z"/>
<path d="M12936 5148 c5 -35 1 -50 -18 -77 -12 -19 -29 -36 -36 -39 -21 -7
-30 39 -15 87 16 56 16 61 -2 61 -19 0 -38 -74 -32 -124 11 -78 62 -81 109 -7
23 36 28 55 26 91 -2 33 -7 46 -20 48 -15 3 -17 -2 -12 -40z"/>
<path d="M5774 5146 c-27 -27 -34 -42 -34 -74 0 -53 22 -75 64 -66 17 3 38 13
47 20 14 13 18 12 29 -1 16 -19 40 -19 40 0 0 8 -5 15 -10 15 -6 0 -18 16 -27
35 -19 40 -43 46 -43 12 0 -24 -27 -57 -47 -57 -44 0 -28 82 22 112 19 11 32
24 29 29 -11 18 -37 8 -70 -25z"/>
<path d="M11522 5152 c-33 -31 -72 -101 -72 -130 0 -46 65 -58 105 -18 l24 24
3 -26 c2 -15 10 -28 19 -30 14 -3 17 9 18 73 2 91 -11 97 -51 25 -19 -33 -36
-52 -53 -56 -37 -9 -41 0 -19 48 22 51 58 86 93 90 40 5 38 28 -2 28 -24 0
-44 -8 -65 -28z"/>
<path d="M3549 5147 c-27 -18 -36 -32 -43 -70 -8 -39 -6 -50 9 -67 25 -28 117
-56 140 -43 15 9 7 14 -48 32 -59 20 -77 34 -77 62 0 5 17 7 38 3 32 -5 43 -2
70 21 38 32 40 48 10 69 -31 22 -59 20 -99 -7z m78 -24 c6 -17 -34 -35 -59
-27 l-22 7 24 19 c25 20 51 21 57 1z"/>
<path d="M3773 5153 c-13 -8 -23 -21 -23 -28 0 -8 -5 -15 -10 -17 -6 -2 -13
-19 -16 -38 -8 -50 24 -90 73 -90 38 0 107 36 97 51 -9 14 -30 10 -47 -9 -36
-40 -107 0 -91 51 8 27 43 67 59 67 6 0 12 7 12 15 0 19 -26 18 -54 -2z"/>
<path d="M13037 5163 c-5 -8 -38 -157 -38 -170 0 -4 4 -9 10 -11 6 -2 21 19
33 47 19 46 22 49 34 34 7 -10 8 -19 3 -21 -5 -2 -9 -12 -9 -23 0 -31 28 -22
54 19 13 20 36 50 52 66 29 28 29 28 32 6 2 -12 -4 -42 -13 -67 -16 -41 -15
-73 2 -73 5 0 19 34 32 76 l24 76 -21 21 c-18 17 -25 19 -46 9 -14 -6 -39 -30
-55 -52 l-30 -41 -3 33 c-2 24 -8 33 -20 32 -12 -1 -17 5 -15 19 2 20 -17 35
-26 20z"/>
<path d="M11866 5142 c-8 -13 3 -84 15 -98 14 -17 37 -8 78 30 l33 31 -25 -50
c-52 -106 -99 -225 -93 -240 7 -20 26 -19 26 0 0 9 29 82 65 162 36 80 65 152
65 160 0 25 -37 13 -84 -28 -31 -28 -46 -36 -46 -25 0 9 -8 16 -17 16 -17 1
-17 2 1 15 10 7 15 18 11 24 -7 13 -22 14 -29 3z"/>
<path d="M5992 5124 c-6 -12 -14 -44 -18 -74 -6 -42 -4 -52 7 -48 7 2 18 21
22 41 5 20 14 37 20 37 7 0 34 -11 62 -24 48 -23 65 -25 65 -6 0 10 -94 60
-112 60 -6 0 -16 8 -23 17 -11 15 -13 15 -23 -3z"/>
<path d="M9608 5133 c-16 -2 -28 -10 -28 -18 0 -10 16 -13 65 -11 68 2 89 11
65 26 -15 10 -51 11 -102 3z"/>
<path d="M10725 5130 c-3 -9 1 -36 10 -60 24 -69 47 -76 94 -29 17 17 31 25
31 18 0 -6 -23 -61 -50 -122 -28 -61 -50 -119 -48 -130 4 -27 28 -34 28 -8 0
11 22 69 50 128 58 127 72 189 45 199 -13 5 -29 -5 -60 -41 -41 -47 -43 -48
-54 -28 -6 12 -11 28 -11 35 0 8 -6 23 -14 34 -12 16 -15 17 -21 4z"/>
<path d="M11676 5129 c-31 -115 -35 -144 -17 -144 7 0 21 22 32 49 10 28 25
57 34 65 17 17 18 12 16 -59 -2 -40 15 -75 23 -50 10 33 13 116 5 132 -11 20
-44 24 -54 8 -5 -8 -11 -7 -21 1 -11 9 -15 8 -18 -2z"/>
<path d="M6102 4488 c-7 -7 -12 -17 -12 -23 0 -6 -24 -37 -53 -69 -48 -52 -54
-56 -67 -41 -22 26 -66 45 -105 45 -79 0 -175 -107 -159 -177 10 -43 32 -73
55 -73 26 0 130 62 180 107 41 38 45 35 73 -39 16 -44 39 -67 50 -49 5 7 -14
55 -49 123 -12 24 -11 28 7 45 11 10 43 44 71 76 44 51 48 60 36 73 -12 11
-17 12 -27 2z m-164 -152 l24 -24 -52 -41 c-87 -69 -138 -95 -155 -81 -22 19
-19 83 7 115 53 68 127 81 176 31z"/>
</g>
</svg>
