<?xml version="1.0" standalone="no"?>
<!DOCTYPE svg PUBLIC "-//W3C//DTD SVG 20010904//EN"
 "http://www.w3.org/TR/2001/REC-SVG-20010904/DTD/svg10.dtd">
<svg version="1.0" xmlns="http://www.w3.org/2000/svg"
 width="1618.000000pt" height="1214.000000pt" viewBox="0 0 1618.000000 1214.000000"
 preserveAspectRatio="xMidYMid meet">

<g transform="translate(0.000000,1214.000000) scale(0.100000,-0.100000)"
fill="#000000" stroke="none">
<path d="M3600 11735 c-57 -46 -75 -84 -94 -197 -4 -21 -11 -38 -16 -38 -6 0
-10 -7 -10 -15 0 -8 -7 -15 -15 -15 -31 0 -125 -42 -125 -56 0 -18 14 -18 48
0 15 8 44 17 65 21 l37 7 -5 -46 c-16 -144 -16 -136 4 -136 16 0 19 11 23 84
3 46 9 90 13 97 5 7 9 35 10 63 1 28 9 77 18 108 14 45 26 64 62 93 24 20 52
38 62 39 10 2 18 9 18 17 0 28 -41 17 -95 -26z"/>
<path d="M4190 11714 c-6 -14 -10 -44 -10 -66 0 -22 -5 -69 -12 -104 -11 -62
-12 -63 -47 -69 -48 -8 -69 -21 -56 -34 7 -7 22 -8 45 -1 52 15 53 14 47 -45
-3 -30 -2 -57 3 -60 15 -10 29 21 32 75 l3 55 62 16 c35 9 65 14 68 11 10 -10
5 -50 -15 -107 -21 -60 -20 -71 2 -62 16 6 48 102 48 144 0 37 -32 69 -57 58
-21 -9 -25 -10 -77 -20 -36 -7 -39 -6 -32 11 5 10 10 57 13 102 4 57 10 85 19
89 21 8 16 33 -6 33 -13 0 -24 -10 -30 -26z"/>
<path d="M2788 11700 c-41 -22 -68 -55 -68 -82 0 -27 18 -22 34 11 28 54 127
80 164 43 25 -25 46 -130 39 -192 -15 -128 -143 -298 -189 -252 -5 5 -15 27
-23 48 -7 21 -18 40 -24 42 -16 5 -14 -44 4 -78 35 -68 94 -63 160 14 54 64
95 153 102 223 7 69 -14 179 -41 210 -30 35 -106 41 -158 13z"/>
<path d="M4418 11654 c-11 -10 3 -34 19 -34 8 0 13 7 11 17 -3 18 -20 27 -30
17z"/>
<path d="M3718 11629 c-20 -11 -24 -54 -7 -64 6 -4 13 2 16 14 3 11 14 23 25
27 21 6 19 28 -3 31 -8 2 -22 -2 -31 -8z"/>
<path d="M14663 11633 c-6 -2 -21 -24 -33 -49 -22 -45 -35 -54 -43 -31 -3 7
-8 5 -13 -8 -4 -11 -11 -22 -15 -25 -3 -3 -21 -27 -38 -54 -31 -49 -40 -103
-21 -122 6 -6 0 -30 -17 -66 -24 -54 -26 -88 -3 -88 5 0 10 6 10 12 0 7 10 36
21 64 20 47 25 52 59 58 54 9 120 74 120 120 0 26 -7 40 -30 58 l-29 23 30 49
c29 45 29 69 2 59z m-111 -204 c-19 -41 -28 -54 -30 -40 -3 16 43 101 53 101
2 0 -9 -27 -23 -61z m90 44 c10 -9 18 -24 18 -33 0 -20 -57 -75 -88 -85 -23
-7 -23 -6 -9 27 25 58 51 108 56 108 2 0 13 -7 23 -17z"/>
<path d="M13031 11617 c-6 -7 -17 -45 -26 -83 -9 -38 -22 -85 -30 -104 -20
-49 -22 -75 -7 -75 16 0 37 53 62 155 10 41 21 82 25 91 8 22 -9 33 -24 16z"/>
<path d="M13182 11604 c-41 -25 -56 -54 -27 -54 8 0 25 10 37 22 21 21 23 21
26 5 7 -34 -7 -61 -59 -117 -57 -62 -109 -133 -109 -149 0 -20 29 -11 46 14
15 23 82 71 88 64 2 -2 9 -14 15 -26 6 -13 21 -23 31 -23 21 0 27 15 9 25 -5
4 -14 18 -19 31 -6 15 -17 24 -32 24 -22 0 -22 0 4 28 45 48 58 76 58 118 0
59 -16 69 -68 38z"/>
<path d="M13897 11619 c-14 -8 -15 -14 -7 -24 9 -10 3 -20 -26 -42 -116 -89
-127 -113 -49 -113 l44 0 -6 -85 c-5 -75 -4 -85 11 -85 12 0 16 10 16 43 0 74
11 115 31 120 23 6 25 27 3 27 -10 0 -14 6 -11 14 3 8 11 32 18 55 7 23 18 41
26 41 18 0 16 16 -4 40 -20 23 -22 23 -46 9z m-16 -116 c-6 -22 -14 -29 -37
-31 l-29 -3 35 30 c19 17 36 31 37 31 1 0 -2 -12 -6 -27z"/>
<path d="M15078 11614 c-48 -15 -63 -27 -53 -43 3 -5 30 -1 61 10 31 11 72 19
90 17 l33 -3 -34 -51 c-31 -46 -40 -52 -79 -58 -48 -8 -79 -31 -54 -41 8 -3
27 -1 43 5 36 14 40 9 20 -29 -9 -19 -23 -31 -35 -31 -11 0 -20 -3 -20 -8 0
-12 30 -52 40 -52 5 0 23 32 41 70 l32 70 54 0 c55 0 93 13 93 31 0 6 -22 8
-60 3 -33 -4 -60 -4 -60 0 0 4 11 23 24 44 14 20 26 46 28 57 3 18 -3 20 -57
22 -33 1 -81 -5 -107 -13z"/>
<path d="M13609 11597 c-37 -25 -51 -57 -25 -57 9 0 16 5 16 10 0 6 11 16 25
22 42 19 49 -1 25 -65 -17 -44 -36 -69 -88 -116 -53 -49 -63 -61 -49 -67 11
-4 26 1 37 11 17 15 25 16 64 6 57 -14 56 -14 56 4 0 9 -12 18 -30 22 -36 7
-37 13 -5 51 28 34 65 114 65 143 0 19 -33 59 -49 59 -4 0 -23 -10 -42 -23z"/>
<path d="M2755 11567 c-2 -7 -6 -68 -10 -135 -4 -97 -3 -123 7 -120 18 6 26
43 27 134 1 59 5 85 16 94 8 7 13 16 10 20 -8 14 -46 19 -50 7z"/>
<path d="M5062 11563 c-39 -19 -102 -89 -102 -114 0 -21 17 -35 53 -44 37 -10
43 -29 21 -63 -26 -40 -46 -52 -76 -46 -34 7 -39 -19 -7 -36 29 -16 77 15 112
72 35 56 27 81 -33 99 -22 7 -40 15 -40 19 0 10 84 87 103 93 18 7 23 22 9 31
-4 2 -22 -3 -40 -11z"/>
<path d="M14866 11493 c-28 -92 -33 -147 -16 -158 6 -4 17 -1 25 5 11 9 11 16
3 30 -9 13 -5 36 15 103 31 97 32 107 14 107 -9 0 -24 -34 -41 -87z"/>
<path d="M14305 11540 c-22 -16 -50 -34 -62 -39 -26 -12 -37 -28 -23 -36 11
-7 61 18 108 53 43 33 60 19 41 -33 -17 -46 -77 -110 -121 -128 -18 -8 -41
-24 -52 -35 -17 -19 -17 -22 -2 -28 9 -3 31 3 50 14 l34 20 35 -25 c29 -21 41
-23 63 -16 30 10 53 38 41 49 -4 4 -13 2 -19 -4 -16 -16 -50 -15 -73 2 -18 13
-18 16 18 55 107 118 77 236 -38 151z"/>
<path d="M3990 11536 c0 -17 27 -29 35 -16 4 6 3 15 0 20 -9 15 -35 12 -35 -4z"/>
<path d="M4597 11523 c-13 -12 -7 -24 18 -33 21 -8 25 -16 25 -47 0 -63 -19
-88 -65 -88 -33 0 -41 4 -43 21 -4 27 44 85 63 77 10 -3 15 1 15 11 0 25 -25
30 -55 10 -54 -35 -74 -123 -34 -145 37 -19 86 -15 113 10 52 49 52 162 0 181
-30 12 -29 12 -37 3z"/>
<path d="M4805 11513 c-16 -9 -37 -25 -47 -37 -9 -12 -17 -15 -18 -8 0 6 -7
12 -15 12 -15 0 -18 -9 -16 -46 1 -12 -5 -39 -13 -59 -16 -37 -13 -59 6 -53 5
2 24 33 41 68 30 62 87 117 107 105 5 -3 -3 -39 -17 -81 -17 -52 -22 -79 -15
-86 13 -13 32 -2 32 20 0 9 9 45 20 80 29 93 6 124 -65 85z"/>
<path d="M5677 11502 c-20 -22 -22 -42 -4 -42 17 0 59 44 50 53 -11 12 -29 8
-46 -11z"/>
<path d="M3157 11459 c-39 -29 -77 -99 -77 -141 0 -41 41 -93 82 -103 36 -9
103 11 135 41 16 14 22 23 16 19 -7 -3 -13 -1 -13 5 0 7 -9 5 -22 -5 -38 -26
-95 -37 -120 -24 -47 25 -51 59 -8 59 20 0 39 11 65 37 37 38 42 60 24 96 -23
42 -41 46 -82 16z m27 -80 c-18 -20 -44 -26 -44 -9 0 6 7 10 15 10 9 0 21 12
27 28 9 22 12 24 15 9 3 -10 -3 -27 -13 -38z"/>
<path d="M3661 11394 c-1 -76 0 -86 14 -80 9 3 26 6 38 6 15 0 31 14 51 45 32
52 50 54 54 7 3 -31 24 -43 37 -22 8 14 -12 75 -30 90 -20 16 -50 -2 -80 -50
-16 -26 -33 -40 -46 -40 -15 0 -19 5 -15 18 16 55 18 95 5 103 -24 15 -26 11
-28 -77z"/>
<path d="M3963 11397 c-2 -34 1 -68 6 -76 17 -27 30 1 30 69 0 59 -3 70 -17
70 -14 0 -17 -11 -19 -63z"/>
<path d="M13362 11388 c-13 -13 -16 -48 -4 -48 10 0 42 38 42 50 0 14 -23 13
-38 -2z"/>
<path d="M13958 11329 c-29 -21 -38 -49 -15 -49 20 1 70 47 63 59 -10 15 -17
14 -48 -10z"/>
<path d="M5652 11298 c-16 -16 -15 -38 2 -38 18 0 39 27 31 40 -8 13 -18 13
-33 -2z"/>
<path d="M13393 11064 c-29 -13 -53 -31 -53 -39 0 -21 12 -19 66 10 53 28 67
30 83 12 8 -10 -4 -29 -53 -83 -35 -38 -80 -78 -100 -89 -20 -11 -36 -25 -36
-32 0 -25 22 -23 62 6 49 36 58 38 51 11 -3 -11 -2 -31 1 -45 5 -19 13 -25 34
-25 35 0 125 29 134 44 15 23 -10 25 -60 6 -77 -29 -86 -27 -78 16 5 21 3 41
-4 49 -8 10 -8 15 2 22 24 14 88 99 88 116 0 20 -38 47 -65 47 -11 0 -44 -12
-72 -26z"/>
<path d="M10356 10872 c-2 -4 -10 -64 -16 -132 -7 -69 -13 -126 -15 -128 -1
-1 -29 -4 -60 -5 -32 -1 -60 -7 -62 -13 -5 -15 49 -25 87 -18 l29 6 3 -73 c2
-41 8 -74 13 -74 6 0 11 31 13 69 l3 69 39 -6 c41 -5 63 8 39 24 -8 5 -27 9
-42 9 l-29 0 7 88 c4 48 11 106 16 130 5 24 7 48 4 53 -7 11 -22 12 -29 1z"/>
<path d="M11607 10859 c-23 -13 -13 -29 19 -29 30 0 73 -21 97 -48 17 -19 16
-20 -40 -42 -69 -27 -77 -34 -70 -53 5 -13 20 -9 81 21 101 49 101 76 2 132
-44 26 -68 31 -89 19z"/>
<path d="M4090 10813 c-159 -55 -154 -53 -142 -65 6 -6 18 -7 29 -3 10 5 21 7
26 7 4 -1 53 14 108 33 110 38 132 41 191 23 30 -9 37 -15 32 -27 -58 -127
-95 -331 -62 -331 20 0 40 24 30 35 -4 5 -2 5 4 2 7 -4 19 4 28 18 l16 24 25
-24 c13 -14 33 -25 43 -25 15 0 18 -5 14 -25 -5 -29 12 -53 47 -66 43 -17 174
32 157 59 -4 7 -20 5 -49 -8 -52 -24 -115 -26 -123 -5 -8 19 21 65 40 65 25 0
58 34 51 53 -12 30 -61 22 -82 -13 -24 -41 -70 -40 -86 3 -9 24 -38 21 -66 -8
-13 -14 -26 -23 -28 -21 -9 8 26 148 52 211 34 82 32 89 -18 109 -63 24 -120
19 -237 -21z"/>
<path d="M8896 10808 c-3 -7 -7 -35 -11 -63 -8 -56 -22 -115 -55 -222 -21 -71
-23 -110 -5 -106 5 1 14 21 21 45 75 274 89 348 67 355 -7 3 -15 -1 -17 -9z"/>
<path d="M6797 10803 c-4 -3 -7 -29 -7 -57 0 -100 -141 -338 -179 -301 -7 7
51 85 71 96 24 13 23 29 -1 29 -22 0 -89 -74 -97 -107 -7 -28 11 -53 39 -53
59 0 191 219 203 338 5 51 4 62 -8 62 -8 0 -18 -3 -21 -7z"/>
<path d="M12813 10791 c-63 -18 -93 -35 -93 -53 0 -5 12 -8 28 -6 l27 3 -3
-152 c-3 -100 0 -164 8 -188 7 -20 14 -34 18 -31 3 3 6 95 7 203 l3 198 35 3
c46 4 51 -12 40 -123 -7 -71 -10 -80 -28 -80 -11 0 -20 -7 -20 -15 0 -8 9 -17
20 -20 18 -4 20 -13 20 -79 0 -51 4 -76 13 -78 8 -3 12 10 12 45 0 27 3 63 6
80 l6 31 27 -18 c14 -10 47 -30 73 -45 26 -15 60 -43 75 -63 62 -80 81 -98 93
-87 8 8 5 18 -12 39 -72 86 -115 126 -168 154 -61 33 -85 53 -51 44 52 -13
202 61 214 107 7 26 -45 105 -85 130 -43 26 -176 26 -265 1z m267 -47 c21 -19
42 -45 45 -55 14 -44 -75 -98 -161 -99 l-50 0 0 95 1 95 62 0 c58 0 66 -3 103
-36z"/>
<path d="M11373 10787 c-10 -17 11 -22 98 -26 96 -3 143 3 137 20 -4 12 -227
18 -235 6z"/>
<path d="M5582 10751 c-7 -4 -12 -12 -11 -17 1 -5 -3 -37 -10 -70 l-13 -62
-57 -11 c-31 -6 -65 -12 -76 -13 -11 -2 -20 -10 -20 -18 0 -8 7 -13 15 -12 8
2 31 5 50 6 19 2 45 6 58 10 12 4 22 5 22 3 0 -2 -9 -40 -20 -83 -10 -43 -17
-80 -15 -82 16 -16 34 17 49 91 l18 85 36 6 c20 3 38 3 40 1 3 -2 -10 -29 -27
-59 -62 -111 -30 -149 55 -65 50 50 54 52 54 28 0 -61 55 -78 92 -28 25 34 40
99 26 116 -15 19 -28 6 -28 -28 0 -33 -25 -89 -40 -89 -5 0 -12 12 -16 28 -12
56 -16 62 -34 62 -10 0 -28 -12 -39 -27 -27 -37 -64 -73 -69 -68 -2 2 15 35
37 73 23 39 41 76 41 82 0 9 -18 11 -60 8 -51 -4 -60 -2 -56 11 2 9 9 38 16
64 13 50 6 73 -18 58z"/>
<path d="M6917 10734 c-12 -12 -8 -21 11 -28 9 -3 23 -9 30 -12 10 -4 13 1 10
17 -3 24 -36 38 -51 23z"/>
<path d="M4190 10712 c0 -9 -11 -62 -25 -117 -35 -135 -45 -206 -33 -228 14
-27 28 -10 28 34 0 50 34 202 60 271 11 29 20 54 20 56 0 1 -11 2 -25 2 -17 0
-25 -5 -25 -18z"/>
<path d="M8020 10706 c0 -14 36 -26 58 -18 10 3 10 7 1 18 -15 18 -59 18 -59
0z"/>
<path d="M12205 10706 c-96 -30 -151 -80 -161 -147 -5 -28 -11 -39 -24 -39
-22 0 -45 -26 -31 -34 6 -4 21 -4 33 -1 20 5 26 1 36 -29 26 -72 96 -95 246
-79 85 9 106 24 61 45 -21 9 -28 9 -35 -1 -9 -16 -146 -21 -192 -8 -29 8 -63
59 -54 82 4 13 120 32 158 26 22 -3 31 14 14 28 -11 9 -34 9 -98 -2 -46 -8
-85 -13 -87 -11 -2 2 3 20 10 41 21 55 95 98 166 97 58 0 70 15 28 34 -14 7
-27 12 -28 11 -1 0 -20 -6 -42 -13z"/>
<path d="M14060 10702 c0 -10 3 -22 7 -25 10 -11 32 13 26 29 -8 20 -33 17
-33 -4z"/>
<path d="M10660 10622 c-21 -22 -30 -42 -35 -83 -9 -70 -4 -114 13 -114 10 0
15 20 18 65 2 36 6 75 9 87 6 26 47 53 53 34 5 -15 32 -14 32 2 0 19 -21 37
-43 37 -10 0 -31 -13 -47 -28z"/>
<path d="M9461 10631 c-11 -7 -10 -14 7 -37 11 -16 26 -61 32 -102 13 -81 31
-108 60 -92 30 16 40 43 40 109 0 58 1 61 28 67 43 9 82 26 82 35 0 17 -19 17
-76 0 l-59 -17 -3 -60 c-5 -125 -24 -139 -42 -31 -7 39 -21 87 -32 105 -11 17
-20 32 -21 32 -1 0 -8 -4 -16 -9z"/>
<path d="M6991 10601 c-17 -16 -31 -36 -31 -44 0 -9 -4 -17 -9 -19 -5 -1 -19
-26 -30 -55 -21 -55 -17 -69 20 -58 15 5 19 13 15 28 -7 26 18 85 51 120 33
33 39 34 45 2 3 -13 1 -22 -3 -19 -5 3 -11 -8 -15 -23 -4 -15 -13 -37 -20 -48
-16 -22 -19 -55 -5 -55 5 0 20 15 34 34 45 59 101 112 125 118 27 7 27 2 2
-62 -23 -58 -26 -90 -7 -90 13 0 57 122 57 158 0 36 -36 37 -92 3 -49 -31 -50
-31 -45 -9 13 52 -44 64 -92 19z"/>
<path d="M14173 10610 c-46 -27 -52 -62 -20 -107 14 -20 24 -40 21 -45 -8 -13
-52 -9 -57 5 -4 9 -7 9 -17 0 -33 -30 44 -58 91 -33 26 15 24 46 -6 82 -29 34
-21 62 21 79 14 5 24 14 22 21 -7 19 -21 19 -55 -2z"/>
<path d="M7761 10596 c-12 -13 -24 -39 -28 -59 -4 -30 -2 -37 21 -52 14 -10
26 -23 26 -30 0 -18 -30 -40 -54 -40 -29 0 -27 -29 2 -33 29 -4 69 22 84 54
10 22 8 28 -21 58 -32 33 -32 34 -17 64 8 16 22 32 31 35 8 4 15 11 15 17 0
19 -36 10 -59 -14z"/>
<path d="M8617 10576 c-53 -51 -68 -90 -43 -114 14 -15 18 -15 50 1 34 16 35
16 38 -6 2 -12 11 -23 21 -25 16 -3 18 1 13 25 -4 16 -3 41 3 55 5 14 6 31 1
39 -7 11 -16 6 -43 -24 -19 -20 -42 -37 -52 -37 -16 0 -16 1 0 27 27 40 68 72
93 73 32 0 23 24 -10 28 -19 2 -37 -9 -71 -42z"/>
<path d="M11375 10607 c-4 -9 -2 -24 5 -32 7 -8 10 -21 7 -28 -3 -7 1 -21 9
-32 8 -10 14 -29 14 -42 0 -36 42 -114 59 -111 18 4 30 57 30 141 1 39 5 59
15 63 22 8 78 8 114 -1 45 -11 44 17 -2 33 -39 14 -136 6 -148 -12 -4 -6 -8
-41 -8 -78 0 -66 -15 -100 -24 -56 -20 99 -30 131 -46 151 -17 20 -19 20 -25
4z"/>
<path d="M5924 10584 c4 -9 0 -24 -7 -33 -15 -17 -37 -75 -37 -97 0 -22 38
-54 65 -54 37 0 95 56 95 91 0 28 -30 69 -51 69 -5 0 -7 5 -4 10 3 6 -6 15
-20 20 -37 14 -48 12 -41 -6z m81 -94 c0 -27 -46 -65 -69 -57 -18 7 -21 43 -6
81 9 25 11 26 42 13 24 -10 33 -20 33 -37z"/>
<path d="M6831 10542 c-24 -68 -26 -92 -8 -92 7 0 21 28 32 63 23 73 23 79 9
84 -6 2 -21 -23 -33 -55z"/>
<path d="M7358 10585 c-30 -17 -80 -109 -71 -133 12 -33 26 -42 65 -42 41 0
108 25 108 41 0 4 -5 11 -11 15 -6 3 -8 17 -5 29 3 13 1 27 -4 30 -6 4 -8 15
-5 25 4 12 -2 24 -17 34 -27 19 -26 19 -60 1z m42 -37 c0 -18 -11 -31 -40 -51
-33 -23 -43 -21 -29 6 25 49 69 77 69 45z m13 -82 c6 -14 -20 -26 -58 -26 -18
0 -18 2 5 20 30 23 46 25 53 6z"/>
<path d="M10033 10567 c-37 -42 -61 -112 -46 -135 13 -21 124 -22 148 -2 26
22 3 29 -53 17 -74 -16 -83 -4 -48 67 15 31 34 56 42 56 8 0 14 7 14 15 0 25
-26 17 -57 -18z"/>
<path d="M7576 10559 c-35 -30 -38 -30 -31 -10 6 19 4 22 -12 19 -10 -2 -18
-12 -18 -23 0 -11 -5 -23 -12 -28 -7 -4 -15 -23 -19 -42 -3 -20 -10 -38 -15
-41 -14 -8 -11 -44 4 -44 6 0 26 23 42 51 28 48 98 119 117 119 4 0 5 -31 2
-69 -5 -46 -3 -70 5 -75 16 -10 20 8 23 94 3 73 2 75 -22 78 -16 2 -38 -8 -64
-29z"/>
<path d="M7975 10563 c-3 -16 -10 -48 -16 -73 -16 -64 -16 -85 0 -85 14 0 27
43 45 148 6 29 4 37 -8 37 -9 0 -18 -12 -21 -27z"/>
<path d="M8356 10561 c-20 -16 -40 -31 -44 -33 -9 -4 -52 -84 -52 -97 0 -22
31 -10 48 17 20 33 68 92 75 92 3 0 -1 -23 -8 -51 -15 -56 -11 -82 13 -77 10
2 17 17 19 48 8 94 8 123 -3 127 -6 2 -27 -10 -48 -26z"/>
<path d="M9802 10565 c-33 -28 -72 -99 -72 -131 0 -52 87 -86 124 -48 9 8 16
12 16 8 0 -4 9 1 20 11 31 28 8 40 -31 16 -40 -25 -72 -27 -89 -6 -16 20 -4
50 21 52 60 5 118 74 89 107 -18 23 -44 20 -78 -9z m58 -13 c0 -15 -25 -40
-47 -47 -30 -8 -29 0 3 30 27 25 44 32 44 17z"/>
<path d="M10471 10540 c-24 -46 -27 -80 -9 -98 20 -20 74 -14 104 11 25 22 26
25 14 61 -9 28 -21 42 -46 52 -18 8 -35 14 -38 14 -2 0 -13 -18 -25 -40z m76
-26 c12 -19 12 -24 -2 -38 -20 -20 -65 -21 -65 -2 0 8 5 27 10 41 12 31 36 30
57 -1z"/>
<path d="M8129 10533 c-51 -88 -18 -153 57 -117 48 23 58 45 40 88 -25 59 -72
73 -97 29z m67 -39 c7 -28 -11 -54 -37 -54 -14 0 -19 7 -19 25 0 57 43 80 56
29z"/>
<path d="M13990 10536 c0 -8 5 -18 11 -22 8 -4 10 -26 6 -61 -5 -47 -3 -54 11
-51 19 4 28 60 17 115 -4 24 -11 33 -25 33 -11 0 -20 -6 -20 -14z"/>
<path d="M4827 10304 c-4 -4 -7 -28 -7 -54 0 -65 -17 -110 -42 -110 -10 0 -39
5 -64 11 -33 9 -48 9 -56 1 -17 -17 -7 -22 61 -35 34 -6 61 -17 61 -23 0 -6
-7 -31 -15 -54 -8 -23 -15 -55 -15 -71 0 -19 5 -29 15 -29 9 0 15 9 15 21 0
11 9 52 21 90 20 66 22 69 52 70 61 3 65 4 73 12 15 14 -20 28 -54 22 -34 -6
-34 -6 -26 27 14 64 2 142 -19 122z"/>
<path d="M11260 10288 c-1 -13 -18 -66 -38 -118 -27 -71 -41 -95 -53 -92 -26
5 -38 -20 -32 -66 7 -53 32 -62 95 -34 67 29 110 70 106 100 -4 36 -30 49 -70
34 -17 -6 -33 -10 -34 -9 -2 1 12 43 31 92 18 48 31 94 28 102 -8 22 -33 15
-33 -9z m48 -216 c2 -6 -18 -25 -44 -42 -96 -61 -100 -23 -4 42 27 19 41 19
48 0z"/>
<path d="M4048 10295 c-3 -3 -3 -26 -1 -50 4 -30 -5 -83 -28 -173 -32 -126
-33 -130 -15 -156 14 -22 20 -25 32 -15 13 10 12 14 -2 30 -14 16 -14 24 7
101 40 149 45 181 31 186 -10 3 -10 7 -1 18 19 23 -3 79 -23 59z"/>
<path d="M9710 10259 c-73 -40 -114 -81 -140 -140 -11 -27 -25 -49 -30 -49 -6
0 -10 -7 -10 -15 0 -8 4 -15 9 -15 5 0 12 -13 16 -30 4 -17 13 -30 22 -30 12
0 14 7 9 34 -6 33 -5 34 41 50 25 9 54 16 64 16 22 0 35 18 21 32 -6 6 -15 4
-25 -6 -9 -9 -17 -11 -19 -6 -2 7 -14 7 -36 -1 -18 -6 -35 -9 -37 -7 -3 2 8
25 25 51 35 55 121 110 158 100 21 -5 23 -2 20 18 -4 34 -25 33 -88 -2z"/>
<path d="M5714 10200 c-18 -67 -20 -70 -49 -71 -16 -1 -39 -2 -50 -3 -11 -1
-21 -9 -23 -20 -4 -17 0 -18 47 -12 28 4 51 3 51 -2 0 -4 -9 -36 -21 -70 -21
-63 -20 -97 4 -89 6 2 12 10 12 18 1 8 10 45 20 82 l20 68 38 -6 c30 -6 37 -4
37 10 0 9 -4 14 -9 10 -5 -3 -12 -1 -16 5 -3 5 -15 10 -26 10 -23 0 -23 3 -4
66 19 61 19 74 1 74 -9 0 -21 -25 -32 -70z"/>
<path d="M8620 10191 c0 -10 7 -21 15 -25 11 -4 15 1 15 19 0 16 -6 25 -15 25
-8 0 -15 -9 -15 -19z"/>
<path d="M3336 10193 c-12 -12 -6 -33 9 -33 8 0 15 6 15 14 0 17 -14 28 -24
19z"/>
<path d="M8187 10131 c-51 -47 -88 -123 -118 -241 -21 -81 -22 -120 -4 -122
12 -1 17 10 51 100 24 63 33 76 65 92 45 23 72 56 94 114 23 60 17 90 -17 94
-20 2 -38 -7 -71 -37z m73 -3 c0 -26 -49 -117 -69 -127 -29 -16 -31 -14 -31
25 0 29 8 44 39 75 39 40 61 49 61 27z"/>
<path d="M11740 10088 c-57 -77 -76 -128 -47 -128 6 0 23 23 35 51 13 28 43
71 67 96 25 25 42 50 39 54 -13 22 -39 3 -94 -73z"/>
<path d="M11494 10132 c-21 -16 -45 -36 -53 -45 -7 -9 -22 -17 -32 -17 -20 0
-26 -15 -10 -24 4 -3 6 -17 4 -30 -4 -20 2 -29 28 -45 54 -33 169 -26 169 10
0 4 -27 5 -60 2 -45 -4 -65 -2 -84 11 -34 22 -24 46 19 46 58 0 115 32 115 66
0 15 -35 54 -48 54 -5 0 -27 -13 -48 -28z m56 -27 c0 -18 -31 -35 -62 -35 -22
1 -22 2 7 25 34 28 55 32 55 10z"/>
<path d="M11975 10137 c-54 -30 -57 -59 -11 -89 41 -26 44 -38 16 -63 -16 -14
-29 -16 -70 -11 -40 5 -50 4 -50 -7 0 -17 30 -27 83 -27 27 0 45 7 63 25 34
34 29 73 -13 101 -36 24 -34 28 25 58 18 9 30 21 27 26 -9 15 -26 12 -70 -13z"/>
<path d="M5890 10138 c-32 -10 -69 -65 -77 -112 -5 -34 -3 -37 28 -50 46 -18
93 -10 129 24 35 32 40 78 13 102 -42 35 -68 45 -93 36z m50 -43 c36 -18 38
-40 8 -72 -15 -16 -33 -23 -59 -23 -47 0 -53 10 -35 55 8 19 12 35 8 36 -8 1
29 17 41 18 4 1 21 -6 37 -14z"/>
<path d="M10377 10130 c-17 -14 -27 -16 -29 -8 -7 21 -36 0 -43 -33 -4 -18
-18 -52 -31 -77 -22 -42 -24 -62 -4 -62 4 0 20 20 35 45 44 76 125 151 125
117 0 -5 -18 -37 -41 -72 -37 -58 -40 -65 -24 -76 23 -17 47 -7 40 16 -3 11 7
38 25 66 16 26 30 61 30 76 0 24 -4 28 -29 28 -15 0 -40 -9 -54 -20z"/>
<path d="M2515 10098 c-36 -39 -37 -42 -19 -55 18 -14 18 -14 -1 -11 -17 3
-20 -3 -22 -38 -2 -32 3 -46 21 -63 24 -22 26 -22 120 -10 67 9 96 16 96 26 0
16 -32 17 -119 3 -73 -12 -91 -4 -91 42 0 25 2 27 19 18 29 -15 37 -13 76 21
41 36 46 70 13 93 -35 24 -53 19 -93 -26z m75 -3 c10 -13 10 -19 -5 -35 -20
-22 -33 -24 -55 -10 -12 7 -11 13 10 34 27 30 33 31 50 11z"/>
<path d="M10554 10125 c-4 -8 -4 -22 0 -30 3 -8 0 -15 -7 -15 -14 0 -38 -76
-30 -96 9 -23 42 -26 93 -9 60 20 72 38 62 95 -11 64 -30 63 -34 -1 l-3 -53
-43 -13 -44 -12 7 42 c4 23 13 54 21 68 13 26 10 39 -8 39 -5 0 -11 -7 -14
-15z"/>
<path d="M8721 10092 c-75 -79 -92 -102 -89 -119 6 -31 27 -25 46 14 26 51 88
113 113 113 10 0 28 -5 39 -12 27 -17 37 -2 15 22 -31 34 -81 27 -124 -18z"/>
<path d="M10817 10103 c-25 -24 -28 -25 -25 -8 5 30 -24 25 -32 -6 -4 -14 -20
-44 -35 -68 -23 -33 -26 -44 -16 -54 10 -9 28 4 83 63 l70 75 -6 -40 c-3 -22
-9 -50 -12 -62 -11 -41 22 -26 82 35 53 53 57 55 50 27 -14 -59 -12 -70 12
-73 30 -4 78 26 64 40 -7 7 -16 7 -28 0 -17 -9 -19 -6 -19 36 0 62 -23 67 -75
17 l-39 -38 -3 39 c-4 50 -31 56 -71 17z"/>
<path d="M3592 10108 c-5 -7 -17 -30 -26 -51 -9 -22 -27 -52 -40 -68 l-24 -29
-21 36 c-11 19 -24 46 -27 59 -7 28 -34 34 -34 7 0 -19 45 -109 65 -130 10
-11 18 -8 47 17 19 16 43 49 53 73 10 24 25 51 33 60 14 16 9 38 -7 38 -5 0
-13 -6 -19 -12z"/>
<path d="M4214 10106 c-30 -22 -57 -92 -44 -115 18 -34 101 -52 141 -30 29 15
13 31 -24 24 -35 -7 -87 8 -87 25 0 5 11 12 24 16 34 8 58 38 54 66 -4 28 -34
35 -64 14z m36 -25 c0 -5 -7 -12 -16 -15 -14 -5 -15 -4 -4 9 14 17 20 19 20 6z"/>
<path d="M7001 10081 c-54 -54 -75 -95 -61 -121 6 -11 12 -20 15 -20 2 0 31
12 64 26 51 22 63 24 77 13 29 -24 145 -5 129 21 -2 4 -27 5 -55 2 l-51 -5 7
38 c5 29 4 37 -7 33 -7 -2 -24 8 -37 24 -13 15 -28 28 -33 28 -5 0 -27 -18
-48 -39z m67 -13 c22 -22 13 -37 -38 -63 -74 -38 -79 -31 -24 33 39 46 44 48
62 30z"/>
<path d="M2825 10095 c-58 -30 -97 -104 -62 -118 24 -9 92 8 89 24 -3 11 0 11
13 -2 15 -15 15 -24 5 -75 -7 -33 -25 -101 -41 -153 -31 -99 -36 -141 -18
-141 6 0 33 20 60 44 36 33 60 46 86 48 50 4 53 24 3 26 -29 2 -50 -4 -77 -22
-20 -14 -38 -24 -39 -23 -2 2 8 39 20 82 29 96 79 306 74 310 -15 13 -87 13
-113 0z m65 -25 c12 -7 12 -12 -3 -28 -17 -19 -96 -46 -106 -36 -7 6 41 55 64
64 26 11 27 11 45 0z"/>
<path d="M3082 10087 c-28 -29 -54 -106 -47 -134 9 -36 47 -39 103 -8 48 26
79 66 67 86 -11 16 -25 10 -35 -16 -10 -28 -87 -72 -101 -58 -11 11 15 90 38
115 26 29 2 44 -25 15z"/>
<path d="M8347 10060 c-44 -44 -49 -53 -36 -65 12 -13 22 -12 76 4 l62 19 -5
-28 c-4 -19 -1 -29 10 -33 10 -4 18 -1 20 6 2 6 10 33 19 59 9 26 12 50 7 53
-5 3 -24 -4 -43 -15 -42 -25 -97 -42 -97 -30 0 12 50 50 66 50 8 0 14 7 14 15
0 31 -44 14 -93 -35z"/>
<path d="M3741 10054 c-46 -52 -52 -85 -19 -108 28 -20 56 -20 99 -2 29 12 35
12 44 -1 12 -17 55 -10 55 8 0 6 -4 7 -10 4 -10 -6 -14 6 -11 37 3 27 -19 32
-42 10 -30 -28 -76 -44 -104 -37 -32 8 -29 28 12 71 l35 37 29 -27 c20 -19 31
-24 36 -16 9 15 -43 70 -66 70 -10 0 -36 -21 -58 -46z"/>
<path d="M4390 10039 c-50 -103 -40 -115 35 -39 67 68 79 66 70 -9 -5 -46 -4
-59 8 -64 11 -4 17 8 24 53 14 88 -7 123 -59 95 -22 -11 -25 -10 -24 3 0 8 -4
17 -11 19 -7 3 -25 -22 -43 -58z"/>
<path d="M8575 10080 c-8 -26 -1 -35 20 -26 18 7 17 37 -2 43 -6 2 -14 -5 -18
-17z"/>
<path d="M9345 10089 c-4 -6 -4 -13 -1 -16 3 -4 -4 -11 -16 -17 -11 -6 -30
-24 -42 -39 -30 -41 -13 -62 50 -61 53 0 101 19 118 46 16 26 -10 64 -56 82
-46 19 -45 19 -53 5z m41 -59 c8 0 14 5 14 11 0 8 5 8 15 -1 23 -19 19 -26
-25 -44 -50 -20 -80 -20 -80 -2 0 17 54 59 58 45 2 -5 10 -9 18 -9z"/>
<path d="M3270 10038 c-6 -24 -12 -48 -14 -53 -2 -6 3 -16 10 -23 12 -11 15
-11 18 0 20 71 26 100 21 108 -12 20 -25 9 -35 -32z"/>
<path d="M8560 10016 c-15 -41 -16 -61 -1 -61 15 0 44 69 34 79 -12 12 -24 5
-33 -18z"/>
<path d="M7840 9711 c0 -11 8 -22 18 -25 9 -3 140 -5 289 -5 150 0 277 -2 282
-6 17 -10 522 -7 913 6 389 12 1265 7 1758 -10 151 -5 588 -11 970 -12 607 -3
695 -2 695 11 0 13 -82 15 -620 17 -341 2 -798 8 -1015 14 -712 21 -1029 24
-1460 15 -751 -15 -1785 -12 -1796 6 -10 16 -34 8 -34 -11z"/>
<path d="M4488 9134 c-156 -81 -260 -383 -191 -556 20 -50 109 -126 204 -173
74 -38 89 -42 89 -22 0 6 -28 26 -62 42 -88 42 -176 111 -197 154 -57 113 -17
319 89 457 43 54 115 98 129 76 4 -7 12 -8 21 -2 12 7 11 12 -4 29 -23 25 -20
26 -78 -5z"/>
<path d="M2570 9141 c0 -5 19 -20 43 -34 23 -14 50 -34 60 -45 21 -23 26 -18
-67 -66 -43 -23 -48 -35 -22 -51 12 -7 19 -5 31 13 9 12 21 22 26 22 6 0 31
14 56 31 l45 31 -28 29 c-50 52 -144 98 -144 70z"/>
<path d="M6534 9099 c-10 -16 6 -28 66 -50 138 -50 171 -155 109 -342 -18 -57
-34 -80 -100 -151 -44 -46 -79 -89 -79 -95 0 -25 33 -8 94 50 55 51 70 72 95
137 40 105 53 156 53 216 1 65 -20 113 -66 156 -39 37 -162 94 -172 79z"/>
<path d="M14460 9035 c-5 -13 -17 -53 -25 -87 -37 -146 -34 -138 -63 -138 -15
0 -42 4 -59 9 -37 11 -52 -1 -33 -24 8 -10 31 -15 62 -15 47 0 50 -1 44 -22
-3 -13 -9 -47 -12 -75 -6 -45 -4 -53 10 -53 11 0 16 9 16 28 0 15 6 50 13 77
l13 50 96 6 c53 4 101 10 107 13 28 17 -6 24 -94 19 -110 -7 -104 -15 -74 102
30 119 33 135 20 135 -6 0 -16 -11 -21 -25z"/>
<path d="M2558 9044 c-3 -3 -56 -5 -117 -6 -84 0 -111 -3 -111 -13 0 -19 80
-28 185 -20 100 8 131 18 105 35 -16 11 -53 13 -62 4z"/>
<path d="M7970 9010 c-124 -10 -300 -49 -300 -67 0 -17 8 -17 123 9 53 12 99
19 102 16 3 -2 10 -85 16 -184 6 -98 13 -181 15 -183 1 -1 8 0 15 4 8 6 10 44
5 149 -4 77 -9 160 -13 184 l-5 42 75 0 75 0 7 -124 c4 -68 6 -154 4 -192 -5
-91 11 -90 54 0 l33 70 25 -50 c13 -27 34 -53 47 -59 12 -5 25 -18 28 -28 3
-10 21 -25 39 -33 29 -12 41 -12 91 4 54 16 87 43 72 58 -4 3 -27 -3 -51 -15
-51 -25 -99 -27 -117 -6 -8 9 -8 15 -2 15 6 0 24 12 41 26 32 27 39 60 21 95
-23 43 -90 6 -106 -58 -8 -32 -19 -29 -34 10 -29 71 -60 84 -89 37 l-18 -30
-6 130 c-4 72 -4 144 0 160 6 34 19 33 -147 20z m380 -310 c0 -17 -34 -50 -52
-50 -15 0 -8 27 13 54 22 28 39 26 39 -4z"/>
<path d="M3450 8937 c0 -22 37 -27 185 -24 108 2 130 5 130 17 0 10 -9 15 -30
14 -119 -6 -216 -5 -247 1 -31 6 -38 4 -38 -8z"/>
<path d="M10846 8912 c-2 -4 0 -29 5 -54 6 -26 9 -64 7 -85 l-3 -38 -52 3
c-32 2 -53 -2 -53 -8 0 -14 44 -30 81 -30 29 0 29 0 29 -62 0 -66 10 -95 29
-84 7 5 9 31 5 79 -6 71 -6 73 19 84 26 12 26 12 29 -35 2 -39 7 -48 24 -50
16 -2 28 7 44 33 l22 36 17 -33 c10 -19 27 -35 44 -39 15 -4 42 -19 59 -34 29
-25 38 -27 92 -22 41 4 65 12 79 26 25 24 15 41 -14 23 -33 -21 -111 -26 -133
-9 -19 14 -19 15 12 31 37 19 40 34 11 65 -27 29 -50 24 -69 -16 -22 -49 -50
-40 -65 20 -10 39 -39 34 -71 -10 l-26 -38 7 59 c4 32 13 81 22 108 9 33 11
54 5 60 -16 16 -28 2 -52 -59 -13 -32 -31 -67 -41 -78 -19 -19 -19 -19 -19 20
0 77 -12 145 -26 145 -7 0 -15 -4 -18 -8z m334 -231 c0 -5 -7 -11 -15 -15 -15
-5 -20 5 -8 17 9 10 23 9 23 -2z"/>
<path d="M7300 8887 c0 -8 9 -17 21 -20 15 -4 19 -1 17 11 -4 21 -38 29 -38 9z"/>
<path d="M10143 8875 c-13 -29 0 -43 22 -25 8 7 15 9 15 4 0 -5 5 -1 11 9 5 9
7 22 4 27 -11 18 -40 10 -52 -15z"/>
<path d="M6117 8873 c-46 -24 -92 -27 -128 -9 -17 9 -36 16 -41 16 -5 0 -6
-42 -3 -92 5 -87 4 -91 -9 -57 -31 79 -57 122 -69 110 -8 -8 -5 -24 11 -58 12
-27 30 -70 40 -98 10 -27 25 -51 33 -53 23 -4 37 59 29 135 l-6 63 38 -7 c43
-6 122 12 139 34 19 22 -2 31 -34 16z"/>
<path d="M2635 8865 c-22 -7 -53 -14 -68 -14 -29 -1 -29 -1 -22 -51 8 -55 -2
-170 -15 -170 -4 0 -21 33 -39 73 -49 110 -65 140 -78 145 -15 4 -18 -34 -4
-42 4 -3 18 -33 31 -67 31 -85 77 -159 100 -159 15 0 20 13 30 68 6 37 10 90
8 117 l-3 50 65 16 c42 10 65 21 65 30 0 19 -22 20 -70 4z"/>
<path d="M4995 8863 c-22 -9 -65 -19 -95 -22 l-55 -6 3 -90 c3 -94 -5 -103
-28 -30 -34 108 -61 151 -83 129 -6 -6 9 -44 22 -54 4 -3 16 -37 29 -76 27
-87 39 -100 72 -77 21 15 22 20 17 95 l-6 78 38 0 c49 0 131 34 131 55 0 8 -1
15 -2 14 -2 0 -21 -8 -43 -16z"/>
<path d="M3470 8818 c0 -13 23 -17 123 -21 67 -4 133 -8 146 -9 29 -4 39 16
14 27 -10 4 -78 10 -150 13 -114 4 -133 2 -133 -10z"/>
<path d="M9435 8818 c-10 -6 -49 -18 -85 -27 l-65 -16 -5 -62 c-9 -108 -39
-100 -74 19 -18 64 -28 75 -46 53 -9 -11 -10 -18 -1 -29 6 -7 17 -34 25 -59
16 -54 52 -107 72 -107 25 0 54 61 54 112 0 44 2 48 28 53 69 15 137 42 137
55 0 18 -16 22 -40 8z"/>
<path d="M10317 8810 c-28 -22 -42 -63 -29 -86 4 -8 24 -22 43 -32 25 -12 34
-24 34 -42 0 -37 -32 -39 -46 -3 -10 27 -11 27 -24 9 -18 -24 -4 -53 29 -62
38 -9 60 -1 70 27 14 42 0 78 -40 96 -28 14 -34 22 -32 43 2 19 11 27 36 35
17 5 32 15 32 22 0 20 -44 16 -73 -7z"/>
<path d="M13242 8765 c-50 -56 -78 -113 -118 -238 -35 -109 -36 -119 -21 -134
20 -20 18 -22 46 52 52 135 70 179 70 168 1 -18 32 -16 59 3 50 35 85 153 52
175 -29 17 -58 9 -88 -26z m65 -36 c-5 -41 -51 -103 -71 -96 -21 7 -12 63 17
100 40 51 61 50 54 -4z"/>
<path d="M11757 8783 c-4 -3 -7 -15 -7 -25 0 -16 5 -19 29 -13 23 5 33 1 50
-21 11 -15 21 -35 21 -44 0 -22 -55 -91 -92 -116 -32 -22 -35 -32 -12 -41 12
-4 32 9 65 45 39 40 49 46 49 30 0 -26 53 -78 80 -78 43 0 98 45 79 64 -5 6
-18 1 -33 -13 -31 -29 -71 -22 -88 14 -14 30 8 85 53 134 16 18 29 37 29 42 0
22 -36 2 -65 -37 l-32 -41 -12 34 c-18 47 -91 90 -114 66z"/>
<path d="M13436 8759 c-45 -35 -61 -139 -25 -162 25 -16 65 0 109 42 31 30 40
45 40 72 0 48 -12 61 -58 65 -29 2 -47 -2 -66 -17z m40 -30 c4 -8 9 -8 17 0
19 19 37 12 37 -14 0 -26 -21 -52 -65 -81 -24 -15 -28 -16 -42 -2 -13 14 -13
20 5 62 21 46 35 56 48 35z"/>
<path d="M10114 8755 c-4 -9 -7 -42 -8 -73 -1 -43 2 -57 13 -57 10 0 15 15 17
50 2 28 4 59 6 69 4 24 -20 33 -28 11z"/>
<path d="M12553 8751 c-42 -26 -83 -88 -83 -127 0 -47 45 -79 88 -63 29 11 28
31 -2 27 -28 -3 -56 18 -56 43 0 25 67 99 90 99 23 0 33 27 14 34 -20 8 -14 9
-51 -13z"/>
<path d="M13656 8747 c-13 -13 -34 -23 -47 -23 -17 1 -24 -6 -31 -33 -5 -19
-16 -44 -24 -55 -41 -59 6 -46 58 17 56 67 72 80 76 61 2 -8 -2 -30 -8 -49
-17 -51 0 -75 51 -75 22 0 48 4 58 10 14 7 23 5 36 -10 25 -27 113 -28 145 -2
30 25 18 49 -13 27 -25 -17 -103 -20 -113 -4 -3 6 12 30 34 52 65 68 76 107
32 107 -29 0 -87 -56 -100 -96 -13 -38 -35 -54 -75 -54 -27 0 -27 1 -19 48 13
83 11 97 -13 100 -14 2 -32 -6 -47 -21z m209 -55 l-28 -27 23 33 c12 18 25 31
28 27 3 -3 -7 -18 -23 -33z"/>
<path d="M14088 8749 c-26 -14 -78 -94 -78 -118 0 -34 25 -24 43 17 9 21 28
49 42 62 22 21 25 21 31 5 4 -9 0 -40 -9 -69 -23 -74 -25 -111 -7 -111 8 0 16
11 18 25 2 14 10 47 18 74 20 69 18 103 -5 116 -24 12 -31 12 -53 -1z"/>
<path d="M5206 8723 c-13 -16 -33 -39 -43 -52 l-20 -24 -22 32 c-12 17 -29 31
-37 31 -21 0 -17 -33 6 -48 28 -17 26 -69 -4 -107 -20 -24 -27 -28 -37 -17 -7
6 -13 28 -13 47 0 22 -5 35 -13 35 -21 0 -26 -44 -9 -84 17 -40 46 -48 78 -19
16 14 20 15 36 1 24 -21 60 -28 89 -17 28 11 21 33 -9 26 -11 -3 -31 -1 -45 4
-22 8 -25 14 -19 40 6 31 69 127 93 142 15 9 17 37 3 37 -5 0 -21 -12 -34 -27z"/>
<path d="M3505 8720 c-15 -25 16 -33 127 -34 100 0 113 1 116 17 3 16 -6 18
-100 17 -57 -1 -110 1 -119 5 -10 3 -20 1 -24 -5z"/>
<path d="M12988 8668 l-47 -53 6 38 c5 35 4 37 -20 37 -14 0 -30 -6 -34 -12
-4 -7 -15 -13 -23 -13 -8 0 -17 -14 -21 -35 -12 -59 8 -68 40 -17 l21 32 0
-37 c0 -23 5 -38 12 -38 7 0 34 21 61 48 l49 47 -6 -38 c-9 -46 1 -97 18 -97
8 0 12 24 14 73 1 39 3 81 4 92 5 37 -27 25 -74 -27z"/>
<path d="M12714 8696 c-58 -26 -71 -126 -17 -134 33 -5 79 24 93 58 11 28 11
34 -7 58 -24 33 -31 34 -69 18z m50 -42 c6 -16 -34 -64 -54 -64 -19 0 -23 30
-6 55 18 28 51 33 60 9z"/>
<path d="M7328 8689 c-22 -12 -24 -39 -3 -39 16 0 29 22 23 39 -2 6 -9 6 -20
0z"/>
<path d="M9549 8681 c-22 -18 -23 -20 -6 -27 23 -9 56 21 41 36 -8 8 -18 5
-35 -9z"/>
<path d="M6140 8679 c0 -6 7 -17 15 -23 24 -17 36 -115 19 -148 -19 -37 -18
-88 1 -88 9 0 15 9 15 24 0 12 20 66 45 119 49 105 52 117 31 117 -7 0 -21
-21 -31 -46 l-18 -47 -16 49 c-12 37 -22 50 -38 52 -13 2 -23 -2 -23 -9z"/>
<path d="M9397 8644 c-11 -11 3 -24 24 -24 11 0 22 -6 25 -14 11 -28 -47 -109
-71 -100 -17 7 -26 -8 -15 -26 13 -22 60 -1 87 38 l22 33 3 -33 c4 -46 41 -63
94 -46 24 8 40 20 42 32 3 15 0 17 -14 11 -11 -5 -36 -10 -56 -13 -36 -4 -38
-3 -38 25 0 16 9 46 20 68 23 46 25 55 7 55 -7 0 -20 -12 -29 -27 -13 -20 -18
-23 -18 -11 0 27 -63 51 -83 32z"/>
<path d="M5487 8578 c4 -45 1 -58 -19 -88 -14 -20 -32 -35 -43 -35 -25 0 -26
-29 -2 -33 23 -5 71 39 87 78 17 41 9 124 -12 128 -14 3 -16 -4 -11 -50z"/>
<path d="M12964 8226 c-4 -12 5 -27 32 -51 l39 -34 -37 -35 c-38 -35 -44 -47
-31 -60 9 -9 93 75 93 94 0 17 -21 43 -62 79 -25 21 -28 22 -34 7z"/>
<path d="M3526 8221 c-11 -17 4 -36 49 -64 l45 -29 -21 -29 c-11 -16 -29 -34
-39 -39 -30 -16 -64 -70 -52 -82 12 -12 141 118 142 144 0 9 -16 30 -36 45
-20 15 -44 36 -53 46 -17 19 -27 21 -35 8z"/>
<path d="M5960 8197 c0 -7 14 -26 31 -43 17 -16 37 -42 46 -57 14 -28 13 -30
-27 -67 -25 -23 -40 -46 -38 -56 4 -22 28 -31 28 -11 0 8 18 31 40 51 46 41
48 57 19 106 -42 70 -99 114 -99 77z"/>
<path d="M12632 8150 c4 -29 38 -33 196 -22 99 6 139 18 101 31 -7 2 -9 -1 -4
-9 6 -9 3 -9 -15 0 -14 7 -61 11 -129 9 -58 -1 -117 1 -129 6 -21 7 -23 5 -20
-15z"/>
<path d="M3484 8135 c-5 -12 -24 -15 -84 -15 -73 0 -105 -11 -84 -29 5 -4 52
-4 104 -1 l95 5 2 28 c2 29 -23 39 -33 12z"/>
<path d="M7566 8040 l7 -103 -44 6 c-24 4 -57 9 -73 13 -21 5 -27 3 -24 -6 5
-17 63 -38 107 -39 32 -1 33 -2 27 -32 -3 -17 -6 -66 -6 -107 0 -66 -2 -73
-13 -57 -17 22 -31 5 -22 -26 5 -14 13 -19 25 -16 11 3 21 0 23 -6 2 -6 8 -7
15 -3 7 4 9 24 5 55 -3 27 -2 83 2 125 5 63 10 76 26 81 11 4 37 21 56 38 36
32 36 32 31 7 -4 -14 -12 -58 -19 -98 -16 -93 -6 -107 48 -65 l38 30 24 -29
c20 -24 29 -29 53 -24 20 4 28 2 28 -9 0 -28 30 -45 78 -44 119 3 145 34 29
34 -68 0 -72 1 -75 23 -2 13 1 29 7 36 14 16 4 46 -14 46 -8 0 -17 -9 -20 -20
-3 -11 -15 -25 -26 -31 -16 -8 -23 -6 -39 13 -11 13 -19 26 -20 29 0 4 -7 10
-17 13 -10 4 -27 -3 -46 -21 -17 -15 -27 -23 -24 -17 14 25 38 247 28 257 -7
7 -15 -1 -27 -29 -19 -46 -48 -80 -86 -100 l-28 -15 -1 48 c-1 76 -13 136 -27
141 -11 3 -12 -15 -6 -98z"/>
<path d="M12137 8100 c-35 -30 -95 -135 -116 -202 -7 -21 -21 -40 -32 -43 -22
-7 -25 -23 -6 -31 7 -2 13 -20 14 -39 1 -39 9 -55 27 -55 9 0 11 15 8 53 l-4
54 53 9 c70 12 83 40 14 31 -47 -7 -47 -7 -41 18 13 50 60 138 93 172 27 30
35 33 48 23 12 -10 16 -9 21 3 17 45 -32 49 -79 7z"/>
<path d="M5752 8092 c-13 -4 -23 -10 -23 -14 1 -5 1 -13 1 -19 0 -7 7 -8 18
-3 9 4 64 10 121 13 64 4 106 10 108 17 4 13 -185 18 -225 6z"/>
<path d="M11207 8093 c-3 -5 -13 -41 -22 -80 l-16 -71 -45 -7 c-30 -4 -44 -11
-44 -22 0 -13 8 -14 40 -9 47 7 47 9 25 -94 -8 -40 -12 -76 -9 -81 15 -25 29
5 44 92 l15 94 43 -3 c30 -3 42 0 42 10 0 10 2 10 9 -1 5 -8 14 -10 22 -6 16
11 -13 23 -56 24 -51 2 -55 9 -37 79 10 44 12 66 5 73 -6 6 -13 7 -16 2z"/>
<path d="M2697 8065 c-36 -34 -65 -92 -78 -157 -5 -29 -15 -63 -21 -75 -8 -17
-7 -25 4 -37 8 -8 18 -33 22 -55 6 -43 21 -60 38 -43 6 6 7 16 0 28 -6 11 -12
35 -14 54 -3 33 -2 34 42 44 l45 9 -44 8 c-24 5 -45 10 -46 11 -11 12 19 119
42 152 41 58 60 66 84 37 24 -29 36 -20 23 17 -13 38 -59 42 -97 7z"/>
<path d="M4941 7991 c-6 -11 -11 -28 -11 -38 0 -62 -55 -154 -116 -194 -62
-41 -74 -10 -18 46 20 20 34 39 31 42 -10 10 -62 -13 -62 -28 0 -8 -8 -21 -17
-30 -10 -9 -18 -30 -18 -47 0 -58 57 -49 135 19 l35 31 0 -24 c0 -47 67 -76
110 -48 21 13 4 24 -35 22 -30 -2 -35 1 -41 24 -4 15 2 61 15 110 11 47 21 93
21 104 0 27 -17 34 -29 11z"/>
<path d="M6690 7966 c0 -31 14 -40 30 -21 15 18 6 45 -15 45 -9 0 -15 -9 -15
-24z"/>
<path d="M12912 7982 c-15 -5 -65 -101 -82 -159 -7 -23 -16 -40 -21 -38 -4 3
-17 34 -29 69 -19 59 -39 84 -54 69 -10 -10 -7 -43 4 -43 5 0 14 -18 20 -40
12 -45 61 -107 77 -97 6 4 23 41 38 84 42 118 48 125 108 117 39 -6 49 -4 45
7 -5 14 -85 38 -106 31z"/>
<path d="M10063 7901 c-23 -16 -48 -40 -57 -53 -9 -12 -16 -17 -16 -10 0 6 -7
12 -15 12 -11 0 -15 -12 -15 -49 0 -52 -30 -162 -61 -223 -23 -45 -24 -58 -3
-58 17 0 56 81 81 170 14 50 18 57 32 48 22 -14 89 20 125 62 31 38 35 89 8
113 -25 23 -33 22 -79 -12z m67 -35 c0 -34 -40 -78 -85 -94 -20 -8 -39 -12
-41 -9 -9 9 28 71 59 99 37 36 67 37 67 4z"/>
<path d="M3548 7892 c-70 -14 -78 -18 -82 -41 -29 -150 -27 -146 -42 -126 -16
22 -44 109 -44 137 0 18 -25 36 -36 26 -8 -9 31 -143 52 -179 30 -51 55 -45
76 16 9 28 17 65 18 83 0 38 9 43 113 62 37 7 67 16 67 20 0 8 -26 21 -38 19
-4 -1 -42 -8 -84 -17z"/>
<path d="M9277 7868 c-48 -56 -74 -120 -61 -156 8 -23 16 -27 55 -30 55 -4 99
12 99 34 0 12 -5 14 -17 8 -31 -13 -94 -17 -105 -6 -28 28 62 165 102 155 22
-6 26 7 8 25 -21 21 -43 13 -81 -30z"/>
<path d="M10264 7885 c-39 -39 -67 -110 -54 -135 14 -26 52 -35 82 -20 60 32
74 68 40 110 -25 30 -49 18 -27 -13 22 -31 19 -45 -16 -63 -59 -30 -65 27 -9
89 23 26 31 30 41 20 18 -17 39 -16 39 2 0 16 -30 35 -55 35 -9 0 -27 -11 -41
-25z"/>
<path d="M8795 7802 l-50 -97 -8 45 c-16 86 -33 135 -47 135 -17 0 -17 2 7
-110 9 -44 21 -83 26 -87 11 -7 -17 -84 -70 -191 -42 -84 -65 -159 -54 -170
15 -15 28 0 36 39 3 20 22 70 41 110 61 131 114 257 110 262 -4 4 2 14 30 45
16 18 54 94 54 107 0 5 -6 10 -12 10 -7 0 -35 -44 -63 -98z"/>
<path d="M5940 7873 c0 -32 -52 -175 -61 -166 -4 4 -15 37 -23 72 -15 64 -38
101 -63 101 -18 0 -16 -27 3 -38 9 -5 22 -37 31 -73 8 -35 21 -74 29 -86 13
-21 11 -31 -28 -120 -30 -70 -42 -112 -42 -148 -1 -67 17 -74 25 -10 4 28 30
107 59 175 94 223 118 310 85 310 -8 0 -15 -8 -15 -17z"/>
<path d="M9649 7838 c-27 -29 -49 -59 -49 -65 0 -25 25 -12 66 35 l43 47 -9
-35 c-15 -53 -13 -100 5 -100 8 0 32 24 53 53 21 28 47 58 56 66 16 13 17 12
10 -15 -14 -55 -11 -69 19 -72 20 -2 27 1 27 13 0 10 -5 13 -11 9 -9 -5 -10 6
-5 38 13 85 -43 88 -100 6 -15 -21 -28 -38 -30 -38 -1 0 2 16 7 35 12 42 4 75
-18 75 -9 0 -38 -24 -64 -52z"/>
<path d="M10480 7861 c-32 -27 -36 -28 -52 -14 -15 13 -18 14 -20 2 -3 -33 -7
-65 -10 -83 -5 -30 19 -30 36 1 8 15 31 41 52 57 21 16 34 25 31 18 -13 -20
-24 -100 -16 -113 6 -10 16 -9 46 4 57 24 75 24 100 0 26 -27 54 -29 114 -8
34 12 44 13 51 3 7 -10 12 -9 21 6 22 35 70 87 90 98 32 17 50 -15 42 -74 -4
-38 -3 -48 8 -48 32 0 37 106 7 138 -24 26 -47 28 -77 7 -12 -8 -28 -12 -37
-9 -9 3 -16 1 -16 -5 0 -18 -70 -75 -108 -89 -39 -13 -82 -9 -82 9 0 6 14 22
30 36 49 40 34 102 -18 74 -11 -6 -27 -26 -36 -46 -10 -20 -23 -38 -29 -39 -7
-2 -27 -8 -44 -14 -37 -12 -39 -9 -22 51 8 28 7 42 -2 53 -16 19 -20 18 -59
-15z m210 -25 c0 -2 -8 -10 -17 -17 -16 -13 -17 -12 -4 4 13 16 21 21 21 13z"/>
<path d="M4355 7835 c-50 -52 -62 -79 -45 -100 18 -21 37 -18 76 11 l34 26 0
-25 c0 -64 40 -108 66 -72 19 26 17 38 -5 32 -25 -6 -34 27 -27 96 4 40 1 49
-17 62 -30 21 -33 20 -82 -30z m38 -37 c-23 -23 -46 -39 -49 -35 -10 10 56 77
75 77 10 0 0 -16 -26 -42z"/>
<path d="M2721 7861 c-9 -6 -7 -10 8 -14 12 -3 21 -1 21 3 0 14 -15 19 -29 11z"/>
<path d="M9492 7855 c-32 -23 -58 -100 -44 -130 15 -33 60 -34 90 -2 26 27 27
51 7 100 -19 45 -27 50 -53 32z m38 -87 c0 -21 -38 -44 -52 -30 -6 6 -3 23 7
48 16 37 17 38 31 20 8 -11 14 -28 14 -38z"/>
<path d="M6766 7844 c-34 -33 -15 -78 45 -109 17 -9 29 -24 29 -35 0 -21 -24
-27 -35 -10 -9 15 -35 12 -35 -5 0 -20 35 -37 68 -33 24 3 27 7 27 43 0 35 -4
42 -42 68 -46 30 -55 56 -24 64 12 3 17 11 14 19 -7 19 -28 18 -47 -2z"/>
<path d="M11793 7818 c-56 -58 -65 -116 -22 -139 16 -8 30 -5 67 14 57 29 83
68 64 94 -6 10 -16 28 -22 41 -14 32 -50 28 -87 -10z m49 -10 c-22 -22 -14
-41 13 -34 35 9 31 -8 -8 -38 -43 -33 -67 -34 -67 -2 0 26 44 86 63 86 8 0 7
-4 -1 -12z"/>
<path d="M4566 7825 c-8 -9 -21 -14 -28 -13 -9 2 -14 -13 -16 -49 -2 -41 0
-53 11 -53 8 0 18 12 22 28 16 68 65 99 65 42 0 -16 -4 -30 -10 -30 -17 0 -11
-25 10 -37 24 -16 29 -8 31 57 2 55 -8 70 -48 70 -12 0 -28 -7 -37 -15z"/>
<path d="M6666 7832 c-2 -4 -1 -14 3 -21 5 -7 6 -42 3 -77 -4 -53 -2 -64 10
-64 21 0 35 119 18 149 -11 22 -25 27 -34 13z"/>
<path d="M2421 7806 c-72 -40 -63 -146 12 -146 70 0 100 62 60 120 -10 14 -15
27 -13 30 11 12 -37 9 -59 -4z m40 -56 c24 0 27 -45 3 -54 -52 -20 -79 15 -48
62 15 22 19 24 22 10 2 -10 12 -18 23 -18z"/>
<path d="M7386 6793 c9 -28 7 -184 -2 -215 -3 -9 -20 -22 -39 -28 -19 -6 -35
-18 -35 -26 0 -15 21 -19 34 -7 3 4 15 8 26 10 18 3 20 -3 21 -52 2 -78 2 -80
19 -80 12 0 14 13 12 68 l-4 69 47 -8 c38 -5 47 -4 43 7 -2 8 -24 18 -48 24
l-43 9 7 97 c6 103 -5 159 -31 159 -12 0 -13 -6 -7 -27z"/>
<path d="M2672 6784 c-5 -10 -15 -45 -22 -76 -6 -32 -15 -58 -20 -58 -4 0 -27
9 -51 20 -53 24 -89 26 -89 5 0 -18 43 -41 94 -50 43 -9 51 -21 42 -69 -5 -25
-19 -43 -59 -72 -55 -42 -70 -70 -40 -80 10 -3 27 -10 37 -16 23 -12 35 1 62
67 12 29 29 48 55 62 l37 20 32 -64 c17 -37 36 -63 43 -60 16 5 10 32 -19 91
l-25 49 28 30 c15 16 48 43 71 59 32 22 41 33 33 41 -8 8 -19 7 -40 -6 -16 -9
-50 -20 -75 -23 l-45 -7 -7 62 c-3 33 -12 68 -19 78 -12 15 -13 15 -23 -3z
m14 -131 c-11 -11 -17 4 -9 23 7 18 8 18 11 1 2 -10 1 -21 -2 -24z m74 -37 c0
-2 -7 -9 -15 -16 -12 -10 -15 -10 -15 4 0 9 7 16 15 16 8 0 15 -2 15 -4z m-73
-53 c2 -6 -3 -13 -12 -16 -10 -5 -15 0 -15 14 0 21 21 22 27 2z m-98 -117 c-7
-16 -17 -22 -26 -19 -12 5 -11 10 8 24 31 24 31 24 18 -5z"/>
<path d="M6925 6706 l-7 -94 -36 -7 c-60 -10 -72 -16 -72 -31 0 -15 23 -14 83
2 11 4 17 0 18 -13 0 -10 4 -43 8 -73 6 -38 5 -57 -3 -62 -17 -11 19 -42 39
-34 12 4 14 12 9 28 -12 39 -21 139 -12 144 4 3 23 2 42 -1 20 -4 36 -2 40 4
8 13 -25 31 -59 31 l-27 0 7 100 c7 86 5 100 -8 100 -11 0 -16 -20 -22 -94z"/>
<path d="M3940 6731 c-5 -11 -10 -58 -10 -105 0 -93 3 -88 -64 -98 -11 -2 -21
-9 -24 -15 -6 -21 77 -17 85 4 4 10 15 -30 25 -92 11 -60 21 -111 24 -114 2
-3 9 0 15 6 8 8 6 35 -5 95 -9 47 -16 88 -16 91 0 4 27 7 61 7 81 0 76 23 -7
30 l-59 5 -3 78 c-2 48 2 84 8 93 12 14 6 34 -10 34 -5 0 -14 -9 -20 -19z"/>
<path d="M3273 6719 c-7 -7 -9 -36 -6 -86 6 -72 -12 -263 -27 -292 -21 -40
-128 280 -113 338 5 21 -24 48 -37 35 -22 -22 51 -289 102 -374 39 -64 68 -73
79 -25 15 69 32 225 30 293 l-1 72 53 0 c55 0 73 7 79 29 4 18 -142 27 -159
10z"/>
<path d="M7587 6693 c-11 -11 -8 -43 4 -43 12 0 38 29 39 43 0 9 -34 9 -43 0z"/>
<path d="M5792 6630 c-26 -28 -42 -82 -49 -167 -5 -64 -4 -73 11 -73 12 0 16
10 16 40 0 45 18 136 32 164 7 13 13 15 21 7 16 -16 27 -13 27 7 0 18 -18 42
-32 42 -4 0 -16 -9 -26 -20z"/>
<path d="M5193 6620 c-12 -5 -29 -23 -38 -39 -8 -17 -19 -31 -24 -31 -15 0 -9
-159 6 -164 17 -7 20 3 26 86 6 86 25 118 72 118 43 0 54 17 20 30 -31 12 -33
12 -62 0z"/>
<path d="M8233 6615 c-33 -14 -84 -80 -77 -99 2 -6 30 -24 62 -41 73 -38 79
-60 20 -73 -33 -7 -46 -6 -54 5 -16 19 -34 16 -34 -7 0 -31 31 -41 91 -30 55
11 79 24 79 45 0 22 -41 65 -83 87 -23 11 -43 22 -45 23 -2 2 4 15 13 29 15
23 43 39 70 41 6 0 10 6 10 14 0 20 -15 22 -52 6z"/>
<path d="M5577 6600 c-14 -11 -31 -20 -39 -20 -33 0 -51 -214 -26 -320 8 -37
16 -50 27 -48 13 3 17 21 19 96 3 87 4 93 22 87 11 -3 28 -1 39 4 25 14 71
107 71 146 0 68 -59 97 -113 55z m79 -35 c10 -42 -32 -135 -61 -135 -8 0 -15
7 -15 16 0 9 -9 29 -21 45 l-21 30 37 34 c44 42 72 45 81 10z"/>
<path d="M6173 6579 c-20 -20 -16 -42 16 -90 30 -45 34 -58 32 -97 -1 -20 -4
-21 -22 -11 -12 6 -24 20 -26 30 -7 25 -33 25 -33 0 0 -21 53 -71 75 -71 19 0
32 21 40 60 5 29 0 44 -29 90 -38 60 -35 82 10 61 31 -14 57 0 37 20 -17 17
-86 22 -100 8z"/>
<path d="M5282 6544 c-12 -8 -29 -28 -37 -44 -14 -26 -14 -34 -1 -65 18 -43
49 -52 122 -36 55 13 105 43 92 57 -4 4 -25 0 -45 -9 -88 -38 -143 -31 -143
17 0 23 33 66 50 66 17 0 11 -17 -12 -33 -18 -11 -20 -18 -11 -27 16 -17 89
50 80 73 -8 22 -65 22 -95 1z"/>
<path d="M5932 6544 c-49 -34 -67 -117 -36 -162 21 -30 93 -30 140 -1 43 26
35 43 -11 23 -45 -19 -101 -18 -109 1 -3 8 0 15 6 15 17 0 76 48 89 71 8 16 7
26 -6 45 -18 28 -41 31 -73 8z m52 -38 c-6 -17 -64 -59 -71 -53 -6 7 12 41 32
61 18 17 46 11 39 -8z"/>
<path d="M6560 6535 c-18 -19 -26 -22 -37 -14 -18 16 -25 -6 -21 -66 4 -60 21
-68 36 -17 15 50 48 92 72 92 30 0 44 -29 46 -94 2 -78 1 -76 19 -76 30 0 17
143 -17 179 -26 29 -69 27 -98 -4z"/>
<path d="M4166 6535 c-10 -28 -7 -49 14 -87 l19 -37 -30 -6 c-53 -12 -79 34
-39 70 11 10 17 22 14 26 -17 29 -64 -19 -64 -65 0 -57 61 -83 125 -54 29 13
32 34 8 67 -9 13 -17 40 -18 59 -1 38 -18 54 -29 27z"/>
<path d="M4335 6534 c-16 -8 -38 -25 -47 -37 -28 -35 -21 -137 9 -137 13 0 15
10 11 51 -4 43 -2 55 17 77 19 22 33 27 89 30 47 3 66 8 66 18 0 20 -106 18
-145 -2z"/>
<path d="M7130 6519 c-30 -49 -35 -78 -17 -96 11 -12 19 -13 36 -4 11 7 21 16
21 21 0 6 5 10 10 10 6 0 10 -8 10 -19 0 -24 24 -44 47 -39 22 4 24 33 3 33
-11 0 -15 11 -13 43 1 35 -1 42 -17 42 -10 0 -20 -3 -22 -7 -2 -5 -16 -19 -32
-33 l-28 -25 22 44 c28 56 12 81 -20 30z"/>
<path d="M3681 6508 c-17 -18 -37 -50 -43 -71 -10 -34 -9 -40 10 -60 36 -36
201 -35 178 1 -3 6 -23 8 -45 5 -22 -3 -56 -2 -75 1 -32 6 -36 11 -36 36 0 19
12 42 31 65 22 25 29 39 22 46 -7 7 -20 0 -42 -23z"/>
<path d="M7929 6508 c-62 -57 -86 -128 -44 -128 9 0 15 9 15 25 0 15 14 41 34
62 l33 37 -5 -52 c-4 -41 -1 -57 13 -72 23 -25 56 -25 86 -1 29 24 18 39 -15
21 -45 -24 -58 -8 -54 67 4 81 -10 90 -63 41z"/>
<path d="M3470 6517 c-33 -16 -70 -73 -70 -107 0 -31 21 -53 68 -68 28 -10 37
-9 49 4 13 13 18 13 25 2 8 -10 9 -10 6 2 -3 8 -18 15 -36 16 -34 2 -82 28
-82 45 0 5 8 12 18 16 57 20 102 45 102 58 0 17 -27 45 -43 45 -7 0 -23 -6
-37 -13z m40 -25 c0 -5 -11 -14 -25 -20 -16 -7 -25 -8 -25 -1 0 5 10 14 23 19
29 11 27 11 27 2z"/>
<path d="M6341 6504 c-24 -31 -25 -35 -9 -68 14 -31 68 -49 104 -36 37 14 29
29 -15 28 -56 -1 -72 13 -31 26 42 14 47 29 21 55 -28 28 -45 26 -70 -5z m44
-14 c3 -5 -1 -10 -10 -10 -9 0 -13 5 -10 10 3 6 8 10 10 10 2 0 7 -4 10 -10z"/>
<path d="M7757 6509 c-38 -23 -60 -102 -35 -127 35 -35 121 19 121 77 0 17 -4
36 -9 41 -15 15 -58 20 -77 9z m53 -53 c0 -25 -32 -56 -57 -56 -18 0 -16 40 4
62 24 27 53 23 53 -6z"/>
<path d="M7560 6430 c0 -47 3 -60 15 -60 12 0 15 13 15 60 0 47 -3 60 -15 60
-12 0 -15 -13 -15 -60z"/>
<path d="M5210 6013 c-66 -24 -173 -203 -204 -340 -23 -105 -21 -187 8 -248
27 -59 100 -129 163 -157 58 -25 174 -31 180 -8 4 13 3 13 -6 0 -6 -8 -11 -10
-11 -4 0 6 -26 14 -57 18 -79 9 -134 36 -192 94 -61 61 -76 107 -68 212 8 102
37 190 93 280 56 91 80 118 108 122 11 2 21 9 21 17 0 16 -13 22 -35 14z"/>
<path d="M3595 5989 c-4 -6 -5 -11 -4 -13 2 -1 16 -10 31 -19 15 -9 43 -31 63
-48 l35 -31 -45 -49 c-45 -48 -59 -89 -30 -89 9 0 20 12 26 27 6 15 13 30 17
33 4 3 22 22 41 42 l34 37 -48 43 c-27 24 -57 51 -67 61 -20 19 -44 22 -53 6z"/>
<path d="M3575 5879 c-16 -6 -68 -11 -115 -13 -66 -2 -85 -5 -85 -17 0 -11 17
-14 85 -13 94 2 173 19 168 36 -6 16 -18 18 -53 7z"/>
<path d="M6936 5862 c-3 -5 24 -36 59 -71 73 -70 85 -102 65 -179 -18 -72 -88
-233 -112 -259 -16 -17 -19 -26 -11 -34 6 -6 16 -8 22 -4 16 10 77 134 112
227 48 132 36 192 -60 281 -50 47 -65 55 -75 39z"/>
<path d="M11298 5844 c-3 -3 -2 -20 3 -37 12 -42 11 -95 -2 -156 -9 -43 -14
-51 -39 -56 -36 -8 -57 -32 -43 -46 8 -8 19 -6 37 6 31 21 32 14 12 -62 -13
-50 -8 -72 13 -59 4 3 14 33 21 67 14 63 30 80 55 59 9 -7 18 -10 21 -7 12 11
-5 37 -30 46 -24 10 -24 10 -11 71 18 87 -7 205 -37 174z"/>
<path d="M11776 5828 c-3 -7 -7 -41 -10 -76 -7 -78 -18 -100 -53 -104 -39 -4
-42 -28 -4 -28 29 0 31 -2 31 -37 0 -52 10 -83 25 -83 9 0 13 17 12 60 -2 71
9 83 66 74 29 -5 37 -3 37 10 0 17 -59 32 -86 22 -13 -5 -14 -2 -9 11 14 32
18 163 6 163 -6 0 -13 -6 -15 -12z"/>
<path d="M10158 5742 l4 -88 -40 -12 c-49 -15 -71 -37 -53 -55 9 -9 14 -9 19
0 8 13 62 36 69 29 2 -2 -3 -39 -11 -82 -9 -49 -11 -83 -5 -88 16 -17 26 6 39
97 l13 88 46 -3 c37 -2 47 1 49 15 3 17 -20 23 -74 18 -18 -1 -20 4 -21 62 -1
73 -9 107 -27 107 -9 0 -11 -22 -8 -88z"/>
<path d="M13810 5788 c-10 -24 -26 -74 -35 -113 -9 -38 -22 -96 -30 -127 -8
-32 -15 -62 -15 -68 0 -19 25 -10 53 20 45 47 97 52 97 9 0 -10 9 -28 21 -40
18 -18 28 -19 77 -13 65 8 99 21 85 35 -6 6 -30 5 -62 -1 -36 -7 -59 -6 -72 0
-26 15 -24 40 4 40 12 0 37 9 55 20 24 15 32 27 32 49 0 34 -22 55 -49 46 -20
-6 -66 -54 -73 -76 -3 -9 -9 -9 -24 1 -17 10 -26 10 -52 -4 -17 -9 -33 -16
-35 -16 -11 0 30 184 49 222 8 15 14 34 14 43 0 29 -21 15 -40 -27z m180 -188
c0 -11 -48 -45 -55 -38 -3 2 2 14 11 26 15 22 44 30 44 12z"/>
<path d="M12000 5795 c0 -10 7 -15 18 -13 21 4 19 22 -2 26 -10 2 -16 -3 -16
-13z"/>
<path d="M7316 5725 c-20 -30 -12 -68 12 -63 8 2 16 12 18 23 1 11 6 30 9 43
10 31 -18 29 -39 -3z"/>
<path d="M6600 5731 l-65 -6 3 -75 c1 -41 -1 -88 -6 -105 l-8 -29 -22 45 c-12
25 -22 64 -22 87 0 35 -3 42 -20 42 -24 0 -25 -8 -5 -85 17 -64 59 -135 81
-135 17 0 34 84 34 166 l0 66 28 -6 c35 -8 87 7 87 24 0 17 -6 18 -85 11z"/>
<path d="M5460 5708 c1 -28 36 -136 51 -154 18 -22 51 1 43 30 -3 13 1 40 10
60 13 32 19 36 53 38 21 0 45 1 55 0 20 -2 32 27 14 34 -7 3 -38 4 -67 2 -54
-3 -54 -3 -78 -52 -23 -45 -25 -47 -33 -26 -5 13 -10 37 -11 54 -3 38 -37 51
-37 14z"/>
<path d="M3376 5623 c10 -105 25 -163 48 -190 37 -43 51 -26 71 79 l18 93 73
0 c74 1 109 14 88 35 -6 6 -22 6 -44 0 -19 -6 -58 -8 -87 -4 -59 7 -52 17 -76
-104 -6 -34 -16 -63 -22 -63 -14 -1 -33 75 -34 133 -1 56 -9 78 -27 78 -11 0
-13 -12 -8 -57z"/>
<path d="M4260 5659 c-30 -4 -69 -6 -86 -3 -34 6 -54 -10 -36 -28 18 -18 207
3 207 22 0 18 -15 20 -85 9z"/>
<path d="M12400 5610 c-32 -33 -59 -60 -61 -60 -2 0 -4 17 -4 37 0 48 -18 56
-26 12 -3 -19 -16 -56 -28 -82 -25 -57 -26 -77 -6 -77 8 0 15 5 15 10 0 8 138
150 146 150 1 0 -3 -17 -9 -38 -12 -44 -4 -87 18 -96 20 -7 87 16 93 32 3 11
-6 12 -42 7 -42 -7 -46 -6 -46 13 0 12 9 44 20 72 40 100 14 107 -70 20z"/>
<path d="M8226 5620 c-19 -17 -46 -53 -60 -81 -20 -42 -23 -55 -14 -80 16 -45
93 -76 158 -62 48 9 29 28 -29 30 -105 3 -127 50 -65 135 35 46 39 49 70 43
27 -5 34 -3 34 10 0 8 -12 20 -26 25 -33 13 -28 14 -68 -20z"/>
<path d="M13391 5615 c-24 -19 -48 -35 -52 -35 -5 0 -9 -7 -9 -15 0 -23 24
-18 65 15 21 17 40 28 42 26 2 -2 -8 -28 -22 -56 -23 -45 -25 -55 -13 -66 12
-12 20 -11 53 6 37 19 41 19 52 4 7 -9 14 -22 16 -28 3 -8 12 -8 33 -1 24 8
33 21 49 70 11 33 24 66 29 73 10 16 -7 37 -23 28 -6 -4 -18 -33 -27 -64 -9
-31 -22 -64 -30 -71 -12 -13 -15 -11 -20 17 -9 43 -20 48 -52 25 -49 -36 -51
-34 -26 22 42 90 13 112 -65 50z"/>
<path d="M14168 5633 c-20 -23 -53 -91 -62 -125 -5 -24 -3 -28 14 -28 13 0 21
9 26 28 11 55 37 102 55 102 24 0 35 20 18 31 -21 13 -34 11 -51 -8z"/>
<path d="M11935 5618 c-10 -41 -10 -137 0 -139 6 -1 13 14 16 35 4 23 2 36 -5
36 -6 0 -5 4 2 9 17 11 21 72 5 78 -7 2 -15 -6 -18 -19z"/>
<path d="M14405 5625 c-67 -23 -123 -106 -94 -141 19 -24 65 -44 98 -44 35 0
139 36 160 55 28 27 1 32 -46 9 -68 -33 -123 -40 -162 -20 -40 21 -39 32 1 40
55 11 121 91 90 109 -4 3 -25 -1 -47 -8z m-9 -50 c-11 -8 -22 -12 -25 -9 -6 6
19 24 34 24 6 -1 1 -7 -9 -15z"/>
<path d="M8968 5598 c-44 -47 -65 -102 -77 -204 -14 -112 -14 -127 0 -122 17
6 48 87 48 126 1 29 4 32 21 27 32 -10 69 21 97 81 25 54 25 55 6 87 -26 45
-56 46 -95 5z m72 -40 c0 -11 -10 -38 -22 -59 -17 -31 -28 -39 -50 -39 -18 0
-28 5 -28 14 0 51 63 134 87 115 7 -6 13 -20 13 -31z"/>
<path d="M9842 5590 c-46 -42 -69 -94 -51 -117 15 -17 29 -7 29 21 0 26 65
106 85 106 23 0 35 -35 35 -104 0 -52 3 -66 15 -66 12 0 15 14 15 70 0 133
-45 165 -128 90z"/>
<path d="M10855 5614 c-9 -9 -23 -28 -32 -41 -12 -18 -19 -21 -29 -12 -20 16
-31 4 -37 -43 -20 -138 -20 -138 -6 -138 8 0 24 26 37 58 12 32 37 81 54 108
32 48 33 48 36 21 2 -15 -1 -51 -7 -78 -17 -78 -14 -119 7 -119 14 0 18 9 18
43 1 23 4 75 9 114 6 54 5 76 -5 88 -16 19 -25 19 -45 -1z"/>
<path d="M2725 5600 c-3 -5 -3 -15 0 -20 3 -6 -1 -13 -9 -16 -18 -7 -21 -39
-5 -49 19 -13 54 4 72 34 17 29 17 30 -5 45 -26 18 -44 20 -53 6z"/>
<path d="M9640 5556 c-34 -51 -38 -84 -12 -116 21 -25 73 -30 98 -9 25 21 15
29 -31 22 -52 -7 -58 5 -15 29 43 25 57 60 36 93 -23 36 -41 31 -76 -19z m50
-25 c-10 -19 -40 -36 -40 -23 0 4 7 18 16 30 18 26 39 20 24 -7z"/>
<path d="M12103 5581 c-39 -24 -53 -49 -53 -94 0 -40 20 -61 49 -52 32 10 113
112 109 137 -4 31 -61 36 -105 9z m70 -25 c-14 -25 -73 -86 -83 -86 -14 0 -12
43 3 64 7 10 29 21 47 26 19 4 36 8 38 9 2 1 -1 -5 -5 -13z"/>
<path d="M9208 5576 c-10 -7 -25 -30 -33 -51 -30 -71 8 -135 61 -100 23 15 28
33 24 83 -1 13 4 30 10 38 10 11 10 17 0 29 -15 18 -39 19 -62 1z m22 -87 c0
-27 -4 -39 -14 -39 -16 0 -27 24 -21 45 3 8 7 22 10 31 9 27 25 4 25 -37z"/>
<path d="M9441 5579 c-14 -5 -30 -8 -37 -5 -7 3 -17 -1 -22 -7 -15 -18 -24
-74 -17 -97 10 -31 32 -24 39 12 8 39 33 68 59 68 18 0 19 -5 13 -78 -6 -66
-4 -81 9 -92 22 -18 44 2 26 24 -8 9 -10 27 -6 45 13 59 8 114 -11 128 -21 15
-21 15 -53 2z"/>
<path d="M11022 5569 c-14 -11 -20 -23 -16 -30 4 -8 3 -9 -4 -5 -18 11 -15
-70 3 -88 24 -24 65 -3 91 45 15 30 10 59 -12 59 -7 0 -19 9 -26 19 -13 18
-14 18 -36 0z m32 -81 c-24 -26 -34 -23 -34 10 0 38 9 46 32 25 17 -15 17 -17
2 -35z"/>
<path d="M8455 5560 c-18 -20 -36 -95 -28 -116 14 -37 85 -19 109 27 17 34 6
69 -28 93 -29 20 -31 20 -53 -4z m52 -74 c-3 -8 -15 -20 -26 -26 -19 -10 -21
-8 -21 24 0 43 30 67 44 36 5 -10 6 -26 3 -34z"/>
<path d="M11481 5554 c-12 -15 -21 -32 -22 -38 0 -6 -3 -24 -5 -39 -5 -27 9
-57 26 -57 4 0 25 14 46 31 l39 31 5 -33 c3 -23 11 -35 24 -37 15 -3 18 0 13
19 -4 13 -7 45 -7 71 0 42 -3 48 -32 62 -44 22 -63 20 -87 -10z m69 -14 c12
-8 9 -15 -20 -45 -51 -52 -63 -46 -36 20 15 36 29 42 56 25z"/>
<path d="M8721 5528 c-21 -37 -25 -40 -31 -22 -13 35 -33 45 -63 31 -27 -13
-41 -63 -24 -92 13 -24 27 -17 27 14 0 16 6 34 14 40 11 9 15 5 20 -24 9 -46
27 -44 61 5 31 44 39 44 60 -6 13 -32 45 -48 45 -21 0 21 -60 117 -73 117 -6
0 -23 -19 -36 -42z"/>
<path d="M5781 5534 c-11 -14 -23 -35 -27 -46 -5 -18 -8 -17 -34 14 -23 26
-31 31 -41 21 -10 -10 -9 -17 8 -35 33 -38 36 -48 17 -69 -21 -23 -34 -24 -34
-3 0 11 -5 14 -16 10 -9 -3 -18 -6 -20 -6 -2 0 -4 -9 -4 -20 0 -30 31 -42 65
-24 26 13 29 13 42 -6 18 -26 63 -26 94 -1 22 18 23 20 6 27 -10 3 -23 2 -30
-5 -20 -20 -47 -13 -47 13 0 29 34 111 49 120 13 9 15 36 2 36 -5 0 -19 -12
-30 -26z"/>
<path d="M4162 5542 c-53 -2 -63 -6 -60 -20 3 -9 9 -16 15 -15 13 3 159 2 217
0 49 -2 57 15 14 30 -33 10 -71 12 -186 5z"/>
<path d="M6667 5544 c-4 -4 2 -19 13 -33 10 -15 26 -46 35 -69 16 -39 16 -46
0 -111 -17 -71 -15 -91 11 -91 9 0 14 11 14 33 0 17 11 75 25 127 28 109 31
150 11 150 -9 0 -16 -18 -21 -52 -6 -46 -8 -50 -16 -29 -12 30 -48 81 -58 81
-4 0 -11 -3 -14 -6z"/>
<path d="M7304 5507 c-8 -22 3 -37 27 -37 24 0 24 12 -1 35 -17 16 -20 16 -26
2z"/>
<path d="M6138 5425 c-3 -3 -3 -27 0 -55 4 -40 0 -57 -22 -96 -29 -53 -32 -64
-13 -64 21 0 70 98 70 139 0 59 -16 94 -35 76z"/>
<path d="M12792 5340 c-24 -44 -50 -84 -59 -89 -24 -13 -9 -45 14 -32 18 9
113 170 113 190 0 32 -30 2 -68 -69z"/>
<path d="M10304 5356 c-4 -9 0 -40 8 -69 21 -78 18 -83 -62 -90 -75 -6 -94
-13 -84 -28 3 -6 36 -7 81 -3 l76 7 -5 -66 c-3 -36 -2 -71 2 -77 16 -26 30 4
30 65 0 55 3 65 20 70 11 3 29 4 40 0 11 -4 29 0 42 9 19 13 19 16 5 22 -9 3
-37 4 -63 2 -43 -3 -45 -2 -41 21 5 24 -20 129 -34 145 -5 5 -11 2 -15 -8z"/>
<path d="M4504 5313 c-4 -27 -7 -71 -7 -99 l0 -52 -39 -6 c-51 -8 -46 -32 5
-28 40 4 39 5 57 -66 7 -26 16 -42 23 -39 13 5 14 15 2 66 l-7 34 61 -7 c53
-6 61 -5 61 10 0 11 -6 15 -20 11 -11 -3 -20 -1 -20 4 0 5 -8 8 -17 7 -10 -1
-31 0 -47 0 l-29 2 5 105 c5 83 3 105 -7 105 -9 0 -17 -18 -21 -47z"/>
<path d="M2443 5303 c-13 -26 -10 -327 2 -331 5 -2 22 43 37 100 32 120 44
152 71 192 19 27 21 28 34 10 18 -24 17 -93 -3 -150 -8 -25 -13 -49 -9 -52 10
-11 40 14 43 37 2 11 9 21 17 21 7 0 15 6 18 14 5 12 12 11 44 -5 20 -10 43
-19 50 -19 9 0 10 -6 2 -23 -14 -31 4 -75 36 -87 70 -27 155 -24 155 5 0 12
-9 14 -42 9 -24 -3 -50 -8 -58 -10 -8 -3 -11 -2 -7 2 4 4 -6 13 -23 20 -21 9
-30 20 -30 37 0 27 17 47 35 41 21 -9 36 21 25 50 -12 31 -34 34 -54 5 -12
-17 -20 -20 -47 -14 -18 4 -40 17 -50 29 -17 20 -17 21 -38 2 l-21 -19 0 50
c0 52 -27 103 -54 103 -26 0 -96 -105 -96 -145 0 -8 -5 -15 -11 -15 -5 0 -8 4
-5 8 2 4 6 39 7 77 2 69 -10 96 -28 58z"/>
<path d="M7350 5293 c0 -28 16 -47 34 -40 15 6 15 9 0 32 -19 29 -34 33 -34 8z"/>
<path d="M10994 5273 c-11 -16 -26 -42 -33 -60 -8 -19 -24 -35 -40 -41 -15 -5
-44 -25 -64 -45 -32 -30 -37 -39 -31 -64 3 -15 13 -35 21 -43 12 -13 19 -12
55 9 29 17 43 20 46 12 12 -37 49 -62 100 -68 44 -5 52 -3 52 11 0 11 -9 16
-29 16 -48 0 -77 16 -91 49 -12 29 -10 38 20 102 38 82 50 149 28 149 -8 0
-23 -12 -34 -27z m-54 -151 c0 -20 -49 -72 -68 -72 -23 0 -12 38 19 64 36 31
49 33 49 8z"/>
<path d="M14150 5286 c0 -20 27 -40 33 -24 2 7 2 19 -1 26 -6 16 -32 15 -32
-2z"/>
<path d="M7532 5230 c-52 -47 -53 -74 -2 -107 19 -12 44 -29 55 -37 19 -15 19
-16 2 -30 -20 -16 -42 -12 -70 13 -16 13 -19 13 -28 1 -6 -11 -3 -20 12 -33
32 -26 69 -32 98 -16 52 29 34 82 -41 120 -21 11 -38 23 -38 28 0 5 18 25 40
44 40 34 51 57 27 57 -6 0 -31 -18 -55 -40z"/>
<path d="M8439 5216 c-22 -51 -34 -154 -21 -175 6 -8 17 -11 25 -8 12 4 14 18
10 64 -4 39 -1 69 10 94 13 33 17 35 51 31 47 -5 51 22 5 32 -53 10 -60 7 -80
-38z"/>
<path d="M9560 5223 c-60 -11 -61 -42 -5 -126 50 -75 43 -109 -20 -93 -24 6
-36 36 -15 36 6 0 10 7 10 15 0 19 -14 19 -34 -1 -36 -36 -2 -84 61 -84 70 0
82 60 28 139 -48 69 -46 81 10 81 33 0 45 4 45 15 0 8 -6 15 -14 15 -8 0 -20
2 -28 4 -7 2 -24 1 -38 -1z"/>
<path d="M13622 5210 c-12 -11 -29 -34 -37 -50 -10 -20 -20 -27 -31 -23 -13 5
-15 -1 -9 -38 3 -24 -1 -93 -9 -153 -9 -60 -16 -111 -16 -113 0 -2 6 -3 14 -3
20 0 26 21 41 152 8 64 21 132 31 150 37 74 74 91 74 34 0 -39 -34 -89 -48
-69 -11 17 -36 -1 -29 -21 9 -22 53 -20 77 4 24 24 32 55 28 106 -3 35 -6 39
-33 42 -20 2 -38 -4 -53 -18z"/>
<path d="M14288 5210 c-52 -40 -89 -185 -48 -185 10 0 14 8 12 27 -4 34 35
126 59 139 21 11 47 1 68 -25 15 -18 31 -12 31 10 0 16 -56 54 -81 54 -9 0
-28 -9 -41 -20z"/>
<path d="M9132 5197 c-47 -49 -16 -218 31 -171 3 4 0 16 -8 28 -18 25 -20 107
-3 124 7 7 25 12 41 12 38 0 31 24 -9 28 -21 2 -36 -4 -52 -21z"/>
<path d="M11743 5205 c-67 -29 -99 -134 -47 -157 19 -9 33 -9 55 -1 27 11 31
9 38 -11 12 -31 38 -49 58 -41 16 6 16 8 2 18 -29 21 -40 53 -29 82 5 14 10
38 10 51 0 36 -22 25 -36 -16 -18 -54 -94 -80 -94 -31 0 35 48 80 93 88 23 4
46 6 50 5 5 -2 7 3 5 10 -6 18 -67 20 -105 3z"/>
<path d="M13843 5200 c-52 -31 -71 -90 -41 -127 12 -15 86 -17 108 -4 10 7 18
4 28 -10 7 -10 19 -19 27 -19 22 0 28 20 10 34 -15 11 -15 17 -5 53 13 42 8
79 -9 69 -5 -4 -12 -20 -16 -36 -8 -37 -49 -70 -87 -70 -52 0 -50 43 4 83 22
16 28 17 46 6 27 -17 37 -7 20 20 -16 26 -44 27 -85 1z"/>
<path d="M8926 5187 c-20 -20 -25 -21 -33 -8 -5 8 -14 11 -20 8 -13 -8 -11
-337 3 -338 10 0 32 89 33 139 1 26 5 32 24 32 50 0 97 60 97 123 0 63 -60 88
-104 44z m72 -30 c9 -44 -29 -107 -63 -107 -14 0 -14 3 0 30 14 28 13 34 -7
31 -14 -2 -8 16 13 43 23 30 52 31 57 3z"/>
<path d="M11936 5188 c-24 -33 -21 -41 36 -96 45 -44 50 -53 38 -66 -7 -9 -21
-14 -30 -11 -30 10 -33 -24 -4 -37 24 -11 29 -9 50 15 13 16 24 36 24 45 0 10
-22 40 -49 66 -46 46 -49 50 -35 71 24 37 -5 49 -30 13z"/>
<path d="M4954 5186 c-58 -25 -97 -155 -50 -164 15 -3 18 0 12 21 -6 26 14 86
36 104 17 14 49 18 71 8 26 -11 33 2 12 25 -21 23 -38 24 -81 6z"/>
<path d="M9759 5163 c-74 -70 -62 -153 22 -153 27 0 41 5 48 18 9 16 5 18 -37
18 -43 -1 -47 1 -47 22 0 19 9 27 53 41 69 24 79 33 64 66 -17 37 -55 33 -103
-12z m71 -1 c0 -9 -44 -32 -58 -32 -10 1 38 40 49 40 5 0 9 -4 9 -8z"/>
<path d="M14123 5184 c-11 -28 -10 -138 2 -144 13 -6 27 142 15 154 -6 6 -12
2 -17 -10z"/>
<path d="M3776 5182 c-2 -4 -10 -38 -16 -75 -7 -37 -16 -67 -20 -67 -8 0 -23
36 -37 89 -4 19 -14 36 -22 39 -11 4 -12 -4 -7 -34 4 -22 12 -41 17 -42 5 -2
6 -8 3 -14 -10 -16 27 -88 46 -88 21 0 36 34 50 109 6 30 12 56 15 59 2 2 18
-1 36 -7 31 -11 49 -8 49 9 0 19 -103 40 -114 22z"/>
<path d="M4245 5177 c-42 -14 -65 -36 -87 -84 -23 -53 -11 -87 38 -103 40 -14
139 -4 154 15 17 20 0 24 -60 13 -101 -17 -135 16 -90 89 15 25 29 34 60 39
22 4 40 12 40 19 0 19 -21 23 -55 12z"/>
<path d="M8634 5180 c-31 -12 -74 -68 -74 -96 0 -29 30 -61 65 -70 36 -9 92 4
99 22 5 14 -1 15 -42 9 -39 -5 -53 -3 -72 13 -21 17 -23 23 -13 45 18 38 59
63 78 47 8 -7 12 -16 9 -22 -3 -5 -11 -4 -20 3 -11 9 -15 8 -20 -6 -12 -31 33
-46 60 -19 22 22 20 50 -6 68 -25 18 -34 19 -64 6z"/>
<path d="M9302 5173 c-33 -16 -92 -95 -92 -123 0 -33 33 -50 97 -50 71 0 93 6
93 27 0 11 -5 13 -17 8 -27 -11 -127 -5 -134 7 -4 6 -2 22 4 35 7 16 13 20 18
12 8 -14 64 -5 86 12 19 17 16 66 -5 78 -13 7 -28 5 -50 -6z m38 -38 c0 -8 -3
-15 -7 -15 -5 0 -19 -3 -33 -7 -25 -6 -25 -6 -6 15 22 25 46 29 46 7z"/>
<path d="M9989 5173 c-28 -17 -73 -98 -64 -113 11 -17 34 2 45 36 14 40 55 73
72 56 7 -7 7 -31 0 -79 -5 -37 -8 -71 -5 -75 6 -11 63 -10 63 0 0 4 -6 14 -12
20 -8 8 -12 35 -10 72 5 94 -26 123 -89 83z"/>
<path d="M3977 5142 c-47 -49 -52 -102 -11 -129 31 -20 115 -24 121 -5 3 8 -7
12 -34 12 -41 0 -83 22 -83 44 0 7 19 17 41 22 52 11 67 32 51 68 -16 36 -42
32 -85 -12z m63 -12 c0 -5 -4 -10 -9 -10 -5 0 -18 -3 -28 -7 -16 -6 -16 -5 -4
10 15 19 41 23 41 7z"/>
<path d="M7345 5148 c-21 -52 -27 -101 -16 -131 12 -31 38 -32 33 -1 -7 37 -1
88 13 117 8 16 12 33 9 38 -10 18 -25 8 -39 -23z"/>
<path d="M12863 5161 c-18 -11 -39 -34 -48 -51 -36 -70 36 -116 111 -69 33 20
36 20 48 4 13 -19 77 -26 83 -9 2 6 -11 15 -29 20 -31 9 -33 12 -33 57 0 57
-14 62 -37 14 -33 -68 -118 -107 -118 -53 0 26 18 49 53 67 16 9 22 9 25 0 7
-22 34 -12 30 12 -4 30 -43 33 -85 8z"/>
<path d="M4703 5156 c4 -10 -4 -26 -18 -40 -41 -41 -28 -88 30 -112 48 -20 85
-5 84 33 -1 45 -51 127 -78 131 -18 3 -22 0 -18 -12z m67 -117 c0 -15 -48 -10
-64 7 -20 19 -20 20 1 55 l17 28 23 -40 c13 -23 23 -45 23 -50z"/>
<path d="M10535 5136 c-75 -50 -100 -127 -53 -160 41 -29 189 -13 160 16 -8 8
-19 8 -34 2 -31 -13 -99 -3 -111 17 -17 26 -1 49 33 49 38 0 119 36 127 56 7
20 -25 54 -51 54 -12 0 -44 -15 -71 -34z m85 -7 c0 -12 -67 -42 -83 -36 -12 4
52 47 71 47 6 0 12 -5 12 -11z"/>
<path d="M12605 4950 c-4 -6 -6 -23 -5 -38 1 -15 1 -29 0 -32 -1 -3 -7 -25
-13 -50 -12 -45 -12 -45 -64 -51 -67 -9 -83 -15 -83 -33 0 -10 7 -13 22 -11
108 21 106 22 87 -62 -13 -55 2 -153 26 -173 21 -17 30 11 14 42 -16 29 -16
121 -1 175 10 33 19 43 44 52 18 6 41 20 53 31 20 19 20 17 -4 -81 -28 -115
-23 -154 19 -154 19 0 31 11 51 48 l26 48 27 -41 c21 -32 32 -40 56 -40 17 0
30 -5 30 -10 0 -16 80 -50 118 -50 48 0 41 26 -9 34 -23 4 -50 11 -61 17 -20
11 -20 11 1 33 25 27 28 74 4 83 -18 7 -63 -38 -63 -63 0 -8 -8 -14 -18 -14
-12 0 -29 18 -46 51 -15 27 -33 48 -39 46 -7 -2 -25 -27 -40 -55 -27 -51 -47
-66 -47 -38 0 8 13 66 29 131 17 64 27 123 24 131 -9 24 -29 16 -56 -25 -23
-34 -61 -60 -72 -49 -2 2 2 35 10 73 7 39 11 73 8 78 -6 10 -21 9 -28 -3z
m316 -323 c-10 -9 -11 -8 -5 6 3 10 9 15 12 12 3 -3 0 -11 -7 -18z"/>
<path d="M10565 4919 c-4 -6 -7 -37 -7 -69 0 -67 -4 -70 -95 -70 -39 0 -53 -4
-53 -14 0 -8 6 -16 13 -19 13 -5 77 0 114 8 20 5 21 3 12 -27 -23 -80 -31
-158 -19 -173 21 -25 27 -17 28 38 1 49 24 152 37 165 3 3 27 9 52 12 26 3 48
11 51 18 3 11 -8 13 -53 10 l-57 -3 4 68 c4 51 2 67 -8 67 -7 0 -16 -5 -19
-11z"/>
<path d="M5729 4913 c-1 -4 -3 -21 -4 -38 -2 -16 -7 -56 -11 -89 l-7 -58 -43
6 c-24 3 -46 1 -49 -4 -6 -10 12 -19 70 -36 24 -8 31 -18 43 -59 17 -62 25
-78 40 -83 17 -5 15 26 -4 82 -9 26 -15 49 -13 50 2 2 24 6 49 9 25 3 47 6 48
6 2 1 2 6 0 13 -3 8 -23 11 -58 9 l-53 -3 8 59 c12 92 11 136 -2 140 -7 3 -14
1 -14 -4z"/>
<path d="M14746 4911 c-8 -12 41 -47 51 -37 10 10 -11 40 -30 44 -8 2 -18 -1
-21 -7z"/>
<path d="M2726 4880 c-33 -29 -66 -100 -66 -142 0 -13 -7 -18 -25 -18 -16 0
-25 -6 -25 -15 0 -14 11 -19 36 -16 8 1 11 -16 9 -51 -3 -56 7 -88 29 -88 10
0 12 16 8 69 l-5 69 54 15 c30 8 70 18 89 24 28 7 36 14 38 36 2 19 -1 27 -12
27 -9 0 -16 -7 -16 -15 0 -8 -17 -19 -42 -25 -24 -6 -58 -15 -77 -20 -33 -9
-33 -9 -28 20 11 52 35 98 61 115 30 20 62 13 69 -15 7 -28 27 -25 27 4 0 28
-33 56 -67 56 -12 0 -38 -14 -57 -30z"/>
<path d="M7917 4894 c-4 -4 -7 -49 -7 -100 l0 -93 -32 10 c-18 5 -45 18 -61
29 -25 19 -28 19 -34 4 -4 -11 1 -22 13 -31 20 -14 93 -38 108 -34 5 1 6 -13
2 -31 -18 -92 -19 -111 -5 -106 8 2 20 32 28 65 10 42 20 63 32 66 33 9 100
137 70 137 -15 0 -34 -39 -27 -56 3 -8 2 -12 -4 -9 -5 3 -17 -6 -26 -20 -9
-14 -20 -25 -24 -25 -4 0 -7 43 -6 97 1 90 -7 117 -27 97z"/>
<path d="M8066 4891 c-3 -5 -9 -38 -12 -73 -3 -34 -12 -103 -21 -151 -8 -48
-13 -90 -10 -94 13 -12 55 8 97 48 25 23 55 48 67 56 19 13 23 12 31 -4 6 -10
16 -46 22 -80 12 -59 32 -94 44 -75 7 11 -23 140 -40 175 -8 15 -21 27 -30 27
-26 0 -67 -26 -109 -69 -21 -23 -42 -41 -46 -41 -4 0 -3 15 2 33 8 27 17 88
31 226 3 24 -15 40 -26 22z"/>
<path d="M11614 4872 c-6 -4 -12 -32 -13 -62 -1 -30 -5 -80 -9 -110 l-7 -55
-63 1 c-43 1 -62 -3 -62 -11 0 -24 64 -35 73 -12 4 10 6 10 6 0 1 -7 10 -13
22 -13 15 0 19 -5 15 -17 -14 -48 -24 -107 -19 -119 10 -27 33 -15 33 17 0 16
5 50 11 75 l11 44 49 0 c41 0 49 -3 49 -19 0 -34 25 -44 90 -36 33 4 62 11 65
15 3 5 -15 26 -40 48 -25 22 -45 44 -45 50 0 17 -50 10 -61 -9 -7 -14 -21 -19
-55 -19 l-46 0 7 88 c4 48 11 97 16 109 9 24 -9 47 -27 35z m169 -260 c20 -22
13 -32 -20 -32 -18 0 -23 5 -23 25 0 30 20 33 43 7z"/>
<path d="M4724 4857 c-3 -8 4 -42 16 -76 54 -161 28 -271 -65 -271 -39 0 -40
24 -5 74 31 46 44 54 55 36 9 -15 35 -12 35 3 0 8 -9 22 -20 32 -18 16 -21 16
-44 1 -14 -8 -38 -35 -55 -59 -44 -65 -45 -89 -1 -112 28 -15 34 -14 75 4 56
25 85 70 85 131 0 47 -27 204 -39 229 -10 21 -30 25 -37 8z"/>
<path d="M7695 4801 c-7 -13 12 -51 26 -51 14 0 7 52 -8 57 -6 2 -14 -1 -18
-6z"/>
<path d="M14455 4768 c4 -18 13 -46 21 -62 13 -27 12 -32 -5 -50 -41 -46 -57
-116 -26 -116 9 0 15 9 15 23 0 26 35 87 50 87 5 0 20 -16 32 -35 24 -37 33
-42 43 -24 4 6 -5 27 -19 47 l-26 37 43 36 c32 29 39 40 30 49 -9 10 -20 4
-49 -24 -21 -20 -42 -35 -48 -33 -6 2 -16 23 -22 48 -7 29 -17 45 -28 47 -15
3 -17 -1 -11 -30z"/>
<path d="M6293 4759 c-72 -50 -53 -92 50 -114 38 -8 43 -28 15 -65 -20 -27
-28 -31 -58 -27 -19 2 -43 7 -52 11 -13 6 -18 4 -18 -8 0 -21 31 -36 78 -36
33 0 45 6 71 35 41 48 42 89 1 110 -16 8 -37 15 -48 15 -10 0 -26 6 -37 13
-17 13 -16 15 17 40 19 15 42 27 51 27 10 0 17 7 17 15 0 24 -41 17 -87 -16z"/>
<path d="M13642 4765 c-26 -22 -30 -23 -45 -8 -22 23 -96 23 -110 1 -15 -23
-4 -32 20 -17 14 8 28 9 49 2 26 -9 29 -14 27 -53 -3 -64 -63 -119 -98 -90
-12 10 -16 9 -21 -3 -9 -24 4 -37 34 -37 29 0 92 34 92 50 0 5 16 -1 35 -15
36 -24 133 -43 154 -30 23 14 9 22 -45 29 -78 9 -114 29 -114 64 0 29 34 92
50 92 5 0 14 9 20 20 15 29 -11 26 -48 -5z"/>
<path d="M14238 4775 c-53 -19 -107 -63 -114 -92 -15 -59 46 -99 115 -75 26 9
32 8 46 -14 11 -16 24 -24 37 -22 24 3 37 28 15 28 -8 0 -20 7 -27 15 -11 13
-9 23 8 54 27 47 28 83 4 104 -22 20 -34 20 -84 2z m55 -21 c13 -4 12 -13 -6
-55 -18 -41 -27 -51 -58 -60 -39 -12 -79 0 -79 24 0 19 49 63 90 80 19 9 36
16 37 16 1 1 8 -2 16 -5z"/>
<path d="M14943 4770 c-43 -26 -42 -54 1 -100 19 -19 36 -44 38 -55 2 -17 -3
-21 -36 -23 -28 -2 -42 1 -48 13 -5 8 -13 13 -19 10 -5 -3 -6 1 -3 9 4 10 1
16 -9 16 -18 0 -13 -25 12 -59 14 -19 28 -24 63 -25 87 -2 100 51 33 125 -19
22 -35 43 -35 48 0 5 14 14 30 20 17 5 30 17 30 25 0 21 -18 20 -57 -4z"/>
<path d="M9148 4765 c-15 -9 -35 -29 -43 -45 -9 -17 -19 -30 -24 -30 -10 0 -7
-132 3 -148 15 -25 26 -10 26 36 1 116 41 180 107 167 30 -5 34 -4 31 12 -4
24 -63 28 -100 8z"/>
<path d="M4940 4748 c0 -13 6 -33 14 -44 13 -17 15 -17 21 -2 11 27 1 63 -17
66 -13 3 -18 -3 -18 -20z"/>
<path d="M9550 4749 c-56 -22 -53 -51 12 -110 51 -47 52 -48 34 -68 -14 -15
-26 -19 -43 -15 -21 6 -24 3 -21 -12 5 -30 48 -29 81 1 39 37 34 60 -25 115
-38 35 -49 50 -38 54 61 22 70 27 65 36 -8 12 -32 12 -65 -1z"/>
<path d="M14727 4753 c-3 -5 -8 -43 -12 -85 -6 -65 -4 -78 8 -78 19 0 27 30
27 102 0 51 -11 81 -23 61z"/>
<path d="M7295 4714 c-44 -20 -90 -38 -102 -41 -23 -5 -31 -27 -13 -38 5 -3
35 8 67 24 32 16 70 33 86 37 l27 6 -25 -43 c-29 -52 -33 -107 -8 -116 9 -4
33 3 55 16 l38 22 28 -21 c39 -29 89 -24 114 11 17 23 18 30 6 73 -7 26 -21
52 -30 57 -28 15 -31 -10 -9 -55 38 -73 -22 -107 -80 -45 l-29 31 -37 -33
c-30 -26 -39 -29 -41 -17 -4 19 20 69 54 115 49 65 17 70 -101 17z"/>
<path d="M9781 4734 c-36 -26 -52 -77 -61 -202 -10 -131 -5 -174 19 -170 18 4
30 55 30 140 1 47 4 58 20 63 11 3 38 26 60 50 43 47 55 97 29 123 -17 17 -70
15 -97 -4z m79 -37 c0 -26 -55 -97 -76 -97 -23 0 -18 76 6 100 28 28 70 27 70
-3z"/>
<path d="M9333 4720 c-55 -33 -94 -148 -63 -185 22 -27 137 -8 148 24 4 11 -3
12 -34 6 -74 -15 -89 -13 -92 17 -3 23 4 30 62 58 77 38 84 59 30 88 -16 9
-27 7 -51 -8z m32 -40 c-10 -11 -25 -20 -33 -20 -12 0 -12 4 3 20 10 11 25 20
33 20 12 0 12 -4 -3 -20z"/>
<path d="M13937 4733 c-30 -3 -37 -8 -35 -21 3 -9 10 -16 17 -14 7 1 38 4 69
6 39 3 57 9 57 18 0 14 -42 18 -108 11z"/>
<path d="M3661 4680 c-64 -53 -71 -71 -46 -107 26 -37 155 -61 155 -29 0 9
-18 16 -54 20 -34 5 -60 14 -71 26 -17 19 -16 21 21 56 21 20 49 40 62 45 23
9 26 29 5 36 -6 2 -38 -19 -72 -47z"/>
<path d="M10023 4718 c-11 -5 -29 -25 -38 -42 -22 -40 -14 -101 15 -116 40
-21 147 -4 137 23 -2 6 -11 10 -18 8 -58 -14 -93 -13 -106 4 -20 28 -16 34 25
40 61 10 82 22 82 48 0 44 -45 60 -97 35z m65 -30 c-3 -7 -20 -14 -39 -16 -32
-2 -33 -1 -15 13 24 18 59 20 54 3z"/>
<path d="M10245 4705 c-26 -25 -31 -54 -15 -85 23 -43 170 -57 170 -15 0 9
-12 11 -42 8 -86 -9 -133 32 -85 73 15 13 27 28 27 34 0 18 -30 11 -55 -15z"/>
<path d="M4405 4704 c-23 -24 -18 -167 7 -172 15 -3 16 4 11 52 -3 30 -3 66 1
81 7 26 9 27 56 21 40 -5 50 -4 50 7 0 29 -98 37 -125 11z"/>
<path d="M5099 4697 c-24 -18 -36 -47 -44 -106 -10 -73 15 -66 33 10 17 67 27
79 63 79 41 0 62 -35 49 -80 -14 -48 -13 -70 3 -70 8 0 19 22 26 54 10 46 10
59 -3 84 -8 16 -23 32 -31 36 -27 10 -79 6 -96 -7z"/>
<path d="M5967 4675 c-21 -20 -37 -42 -37 -50 0 -8 -4 -15 -10 -15 -18 0 -10
-30 14 -57 23 -24 31 -26 96 -25 70 2 110 14 110 31 0 5 -38 6 -84 4 -95 -6
-119 6 -62 34 20 9 36 20 36 25 0 4 6 8 14 8 20 0 29 35 16 60 -16 30 -52 24
-93 -15z m63 -10 c0 -8 -13 -21 -30 -30 -43 -22 -47 -19 -15 15 32 33 45 38
45 15z"/>
<path d="M4198 4674 c-42 -27 -55 -59 -41 -101 19 -56 83 -67 131 -23 30 28
28 57 -6 88 -16 15 -33 34 -38 43 -8 15 -13 14 -46 -7z m65 -62 c23 -20 22
-29 -7 -47 -29 -19 -61 -8 -71 25 -15 46 34 60 78 22z"/>
<path d="M2483 4680 c-13 -5 -33 -29 -44 -53 -37 -76 -5 -126 59 -93 43 22 55
42 46 73 -4 16 -6 34 -5 41 2 14 -17 42 -28 41 -3 0 -16 -4 -28 -9z m19 -107
c-9 -7 -24 -13 -34 -13 -24 0 -23 17 4 60 l21 35 12 -35 c11 -30 10 -37 -3
-47z"/>
<path d="M3961 4673 c-6 -10 -11 -12 -11 -5 0 20 -24 14 -40 -10 -28 -42 -30
-56 -11 -79 15 -18 31 -24 83 -27 59 -4 67 -2 81 18 14 20 14 26 2 51 -16 31
-61 69 -81 69 -7 0 -18 -8 -23 -17z m63 -45 c25 -36 20 -48 -21 -48 -87 0
-111 33 -43 57 47 16 47 16 64 -9z"/>
<path d="M5413 4680 c-24 -10 -37 -43 -31 -81 4 -30 37 -36 80 -15 17 9 32 16
34 16 1 0 8 -15 14 -34 12 -36 55 -61 80 -46 17 10 4 30 -21 30 -20 0 -39 34
-39 73 0 16 -13 28 -45 45 -25 12 -46 22 -47 21 -2 0 -13 -4 -25 -9z m54 -46
c3 -9 -36 -34 -52 -34 -8 0 -6 36 2 44 10 10 46 3 50 -10z"/>
<path d="M7697 4682 c-3 -4 -9 -40 -12 -80 -6 -60 -5 -72 7 -72 16 0 28 46 28
112 0 35 -13 57 -23 40z"/>
<path d="M4927 4593 c-11 -10 -8 -81 4 -88 14 -9 15 -7 22 48 5 35 3 47 -7 47
-7 0 -16 -3 -19 -7z"/>
<path d="M3095 4439 c21 -94 23 -118 14 -164 -7 -42 -18 -59 -64 -103 -30 -29
-59 -51 -65 -47 -13 8 -13 56 0 91 8 19 8 30 0 38 -18 18 -31 -8 -37 -70 -9
-112 39 -123 132 -30 45 45 55 61 65 111 16 77 -4 198 -34 203 -17 4 -18 0
-11 -29z"/>
<path d="M4088 4414 c-3 -3 -2 -21 4 -41 11 -42 10 -43 -74 -74 -32 -12 -58
-25 -58 -30 0 -19 24 -18 80 4 l60 25 0 -28 c0 -16 -7 -63 -15 -104 -15 -79
-12 -106 10 -106 8 0 13 13 13 33 1 17 6 56 11 86 6 29 11 73 11 96 0 35 5 46
26 60 22 14 28 15 35 4 13 -22 11 -86 -7 -145 -11 -40 -12 -58 -4 -74 15 -27
27 -25 61 11 l29 31 20 -25 c11 -14 33 -28 49 -32 16 -3 37 -15 46 -26 30 -32
130 -50 193 -33 47 13 15 28 -60 29 -47 0 -81 5 -91 13 -14 12 -13 18 14 54
34 48 38 78 10 78 -18 0 -74 -54 -83 -80 -5 -17 -56 8 -63 31 -3 9 -13 23 -21
30 -12 10 -20 7 -44 -22 -34 -39 -36 -32 -15 47 11 43 12 67 5 95 -14 51 -34
66 -71 52 -17 -7 -27 -7 -23 -2 3 6 -2 19 -12 30 -18 20 -27 23 -36 13z"/>
<path d="M6786 4398 c-22 -32 -20 -39 12 -35 21 3 27 9 27 27 0 32 -20 36 -39
8z"/>
<path d="M6948 4334 c-26 -13 -55 -35 -64 -49 -23 -35 -2 -72 64 -109 58 -33
66 -52 25 -62 -33 -9 -59 7 -55 35 5 30 -16 26 -30 -5 -11 -23 -10 -29 11 -45
32 -26 84 -24 117 4 36 31 28 48 -41 93 -31 19 -59 42 -62 50 -8 20 15 44 65
66 23 10 42 25 42 33 0 21 -17 18 -72 -11z"/>
<path d="M6470 4323 c0 -10 14 -35 30 -55 l30 -36 -55 -47 c-53 -46 -72 -85
-40 -85 8 0 15 5 15 11 0 12 80 88 93 89 4 0 7 -13 7 -29 0 -24 14 -41 36 -41
7 0 3 54 -5 75 -6 15 1 30 30 64 22 24 39 50 39 57 0 24 -29 15 -44 -14 -8
-15 -23 -35 -33 -45 -19 -16 -21 -16 -38 3 -10 11 -19 30 -20 43 -2 28 -45 38
-45 10z"/>
<path d="M5480 4295 c-14 -17 -4 -38 16 -31 9 3 15 -6 19 -29 3 -19 8 -51 11
-71 3 -20 17 -48 31 -62 l26 -26 -42 -121 c-39 -113 -52 -177 -38 -191 12 -12
27 8 27 35 0 22 61 221 86 281 4 8 8 27 10 42 2 15 18 59 35 98 31 69 33 94 6
71 -12 -9 -53 -98 -71 -153 -3 -10 -10 -18 -15 -18 -12 0 -31 55 -31 91 0 63
-44 116 -70 84z"/>
<path d="M6694 4285 c-4 -8 -1 -21 5 -29 7 -8 11 -41 10 -74 -1 -32 1 -64 5
-71 15 -24 26 3 26 68 0 87 -29 152 -46 106z"/>
<path d="M6213 4245 c-49 -52 -53 -76 -18 -110 28 -29 63 -32 105 -10 23 12
30 13 30 3 0 -17 37 -41 44 -29 3 5 -1 25 -9 45 -8 19 -15 53 -15 75 0 30 -5
42 -25 55 -40 26 -65 20 -112 -29z m97 -4 c14 -28 13 -46 -7 -69 -25 -30 -66
-37 -86 -17 -15 15 -15 19 -2 45 16 30 51 60 72 60 7 0 17 -9 23 -19z"/>
<path d="M2487 4235 c-26 -20 -51 -44 -57 -55 -36 -67 29 -114 103 -76 24 13
27 13 27 -2 0 -27 29 -62 51 -62 25 0 24 15 -2 41 -17 17 -19 28 -14 73 8 61
-13 116 -44 116 -10 0 -39 -16 -64 -35z m83 -41 c0 -23 -41 -63 -71 -69 -66
-15 -61 36 9 87 34 24 38 25 50 11 6 -9 12 -22 12 -29z"/>
<path d="M5925 4200 c-3 -5 -25 -10 -49 -10 -23 0 -51 -7 -62 -15 -23 -17 -29
-16 79 -21 92 -4 102 1 67 36 -23 23 -26 24 -35 10z"/>
<path d="M2706 4169 c-19 -15 -26 -30 -26 -55 0 -44 14 -43 37 4 15 30 23 37
48 37 26 0 30 -4 31 -32 2 -41 10 -63 24 -63 14 0 13 103 -2 118 -19 19 -82
14 -112 -9z"/>
<path d="M7300 3690 c-41 -33 -85 -64 -98 -70 -13 -5 -22 -16 -19 -23 8 -25
35 -16 83 28 27 26 60 53 74 60 23 12 27 10 63 -31 21 -24 43 -44 48 -44 5 0
9 16 9 35 0 27 -4 35 -18 35 -25 0 -42 19 -42 47 0 13 -6 23 -12 23 -7 -1 -47
-28 -88 -60z"/>
<path d="M3414 3719 c-8 -14 34 -49 103 -86 29 -15 53 -30 53 -33 0 -3 -15
-15 -33 -28 -18 -12 -46 -35 -62 -52 -23 -24 -25 -31 -13 -35 9 -4 27 5 44 20
16 15 48 41 72 58 23 17 42 35 42 42 0 6 -27 23 -59 39 -32 15 -71 41 -87 57
-29 31 -48 36 -60 18z"/>
<path d="M14155 3714 c-16 -2 -100 -11 -185 -20 -161 -16 -240 -35 -240 -60 0
-17 14 -18 41 -3 18 9 232 38 405 54 l72 7 4 -174 c3 -95 8 -181 12 -191 11
-24 28 -17 46 19 8 16 16 31 18 33 1 3 12 -5 25 -17 13 -12 38 -25 56 -28 25
-5 33 -13 38 -35 7 -39 36 -66 84 -81 38 -11 45 -10 88 13 25 13 47 32 49 42
3 17 1 17 -25 4 -15 -7 -47 -15 -71 -16 -36 -2 -46 2 -75 31 l-32 33 40 3 c49
4 70 22 88 77 18 52 9 69 -36 69 -47 0 -82 -25 -103 -74 -16 -36 -21 -40 -44
-35 -14 3 -40 23 -57 43 -27 31 -34 34 -43 22 -5 -8 -10 -21 -10 -27 0 -7 -4
-13 -10 -13 -6 0 -11 65 -12 163 l-3 162 -45 1 c-25 1 -58 0 -75 -2z m402
-319 c-14 -30 -22 -35 -52 -35 -28 0 -33 3 -28 18 15 42 68 79 87 61 6 -5 3
-22 -7 -44z"/>
<path d="M8404 3676 c-3 -9 -2 -22 3 -29 23 -29 47 -136 47 -207 -1 -121 -58
-220 -130 -220 -41 0 -60 19 -75 73 -13 51 -17 178 -6 230 7 34 6 38 -10 35
-24 -4 -36 -79 -28 -173 13 -148 40 -195 115 -195 79 0 141 77 162 201 10 56
8 78 -13 179 -19 88 -29 116 -42 118 -9 2 -20 -4 -23 -12z"/>
<path d="M8970 3560 l0 -129 -39 -11 c-53 -14 -90 -44 -74 -61 9 -9 15 -8 28
5 9 9 17 16 18 16 1 0 17 4 35 10 l34 9 -3 -97 c-1 -54 1 -103 5 -110 17 -28
26 6 26 103 0 57 4 106 9 109 4 3 23 1 42 -4 22 -7 37 -6 44 1 13 13 -8 26
-57 34 l-38 7 0 124 c0 104 -2 124 -15 124 -13 0 -15 -21 -15 -130z"/>
<path d="M11906 3668 c-3 -13 -8 -50 -11 -83 -13 -124 -12 -122 -63 -130 -26
-4 -62 -13 -80 -21 -25 -10 -39 -11 -54 -3 -14 7 -28 7 -50 0 -17 -6 -33 -9
-37 -7 -19 12 -35 -17 -39 -71 -3 -48 0 -63 18 -85 54 -69 150 -3 150 102 0
30 19 41 100 54 l35 6 -3 -96 c-4 -107 3 -167 21 -161 7 2 11 43 11 125 1 94
4 125 15 131 8 5 43 12 78 16 64 7 65 7 58 33 -9 37 -12 38 -35 17 -11 -10
-41 -21 -66 -25 l-46 -7 6 31 c3 17 8 62 12 99 4 37 11 70 15 73 16 10 9 24
-11 24 -12 0 -21 -8 -24 -22z m-196 -312 c0 -12 -9 -36 -20 -53 -37 -61 -95
-34 -88 40 2 24 7 31 21 29 10 -2 17 3 17 12 0 21 32 25 53 8 9 -8 17 -25 17
-36z"/>
<path d="M10265 3659 c-4 -6 -4 -57 0 -114 l7 -104 -43 2 c-35 2 -44 -2 -47
-16 -3 -15 0 -18 16 -13 11 4 32 4 46 0 26 -6 26 -7 26 -105 0 -81 3 -99 15
-99 12 0 15 18 15 101 0 100 0 101 23 96 87 -20 87 -20 87 -5 0 14 -59 38 -93
38 -16 0 -27 71 -26 172 0 45 -13 69 -26 47z"/>
<path d="M12355 3659 c-4 -6 -8 -71 -9 -144 l-1 -134 -49 -8 c-69 -11 -76 -36
-8 -32 l50 4 6 -59 c3 -32 6 -79 6 -102 0 -33 4 -44 16 -44 13 0 15 13 14 78
-3 148 -7 136 50 129 82 -10 72 22 -13 38 l-37 7 0 134 c0 122 -8 162 -25 133z"/>
<path d="M3389 3637 c-9 -8 -48 -17 -99 -21 -111 -9 -152 -18 -158 -35 -4 -11
5 -13 44 -7 27 4 94 9 149 12 96 4 100 5 97 26 -4 32 -17 42 -33 25z"/>
<path d="M5252 3589 c-35 -34 -51 -57 -47 -67 4 -12 15 -6 49 27 l44 43 46
-35 c53 -41 84 -53 98 -39 14 14 1 32 -22 32 -23 0 -90 56 -90 76 0 26 -25 14
-78 -37z"/>
<path d="M14014 3568 c3 -29 6 -115 6 -190 0 -116 2 -138 15 -138 13 0 15 24
15 153 0 177 -6 227 -28 227 -12 0 -14 -10 -8 -52z"/>
<path d="M8784 3536 c-6 -17 11 -46 28 -46 14 0 5 53 -9 58 -7 2 -16 -4 -19
-12z"/>
<path d="M5967 3504 c-4 -4 -7 -36 -7 -72 l0 -64 -65 7 c-67 7 -87 3 -79 -18
2 -7 29 -13 66 -14 34 -2 66 -7 71 -12 5 -5 15 -31 22 -58 8 -30 18 -49 29
-51 20 -4 20 13 1 68 -8 24 -14 44 -13 45 2 1 19 6 38 11 20 6 35 16 35 24 0
16 -3 16 -49 4 l-28 -7 3 68 c4 64 -5 88 -24 69z"/>
<path d="M7315 3489 c4 -13 12 -86 17 -163 7 -119 7 -142 -7 -162 -20 -31 -53
-31 -64 -1 -5 13 -16 29 -25 36 -9 7 -16 24 -16 37 0 15 -6 24 -15 24 -10 0
-15 -10 -15 -29 0 -21 6 -30 22 -34 12 -4 19 -9 16 -12 -12 -13 13 -62 37 -73
34 -16 70 0 90 39 14 26 15 51 9 167 -8 158 -14 186 -39 191 -15 2 -17 -1 -10
-20z"/>
<path d="M9775 3480 c-27 -18 -31 -18 -47 -3 -9 8 -24 13 -32 10 -8 -3 -29
-51 -47 -106 -18 -56 -36 -101 -40 -101 -3 0 -11 31 -17 68 -15 89 -39 149
-55 133 -8 -8 -8 -20 1 -45 7 -19 19 -69 26 -113 18 -97 31 -133 51 -133 8 0
17 12 21 28 16 71 27 112 46 169 19 55 24 61 40 52 22 -12 47 -5 82 22 48 38
24 54 -29 19z"/>
<path d="M7750 3455 c0 -8 7 -15 15 -15 8 0 15 7 15 15 0 8 -7 15 -15 15 -8 0
-15 -7 -15 -15z"/>
<path d="M12580 3445 c0 -8 6 -15 14 -15 8 0 21 -3 30 -6 12 -4 16 0 16 15 0
17 -6 21 -30 21 -20 0 -30 -5 -30 -15z"/>
<path d="M10660 3422 c-49 -50 -79 -194 -45 -222 18 -15 17 -19 19 55 4 117
57 186 121 157 31 -14 46 5 20 25 -32 23 -83 16 -115 -15z"/>
<path d="M2548 3423 c-32 -37 -39 -60 -22 -77 20 -21 37 -20 58 3 22 24 18 84
-5 89 -8 1 -22 -5 -31 -15z"/>
<path d="M11370 3425 c-9 -11 -16 -12 -26 -4 -21 17 -34 1 -32 -39 1 -20 -2
-70 -7 -111 -8 -69 -7 -73 11 -69 20 4 31 36 33 103 2 58 33 105 71 105 39 0
48 -35 28 -110 -16 -59 -14 -80 7 -80 19 0 27 26 32 104 5 89 -11 116 -66 116
-22 0 -44 -6 -51 -15z"/>
<path d="M6430 3420 c0 -7 9 -43 21 -81 32 -104 87 -174 109 -139 13 20 40
113 40 138 0 17 9 22 60 29 82 11 77 29 -7 26 -69 -3 -96 -15 -86 -39 6 -16
-15 -103 -28 -118 -15 -17 -71 123 -67 165 2 18 -3 25 -19 27 -13 2 -23 -2
-23 -8z"/>
<path d="M8556 3413 c-9 -9 -7 -53 3 -53 4 0 -1 -32 -11 -71 -11 -39 -17 -73
-14 -76 14 -14 34 10 45 53 7 26 19 61 28 78 l17 31 10 -55 c13 -67 32 -64 28
4 -5 82 -34 110 -66 64 l-16 -22 0 21 c0 23 -13 37 -24 26z"/>
<path d="M12068 3393 c-61 -68 -71 -100 -39 -132 16 -16 26 -18 52 -11 17 5
40 17 50 26 18 16 19 16 19 -14 0 -41 34 -62 59 -38 15 15 14 17 -8 23 -23 6
-23 8 -17 75 4 46 3 68 -5 68 -6 0 -17 7 -25 15 -23 23 -58 18 -86 -12z m74
-57 c-21 -36 -62 -62 -85 -53 -21 8 -12 37 23 76 26 28 32 30 54 19 26 -11 26
-11 8 -42z"/>
<path d="M4885 3394 c-22 -10 -50 -13 -99 -8 l-69 5 7 -38 c15 -81 19 -153 9
-153 -11 0 -41 64 -62 131 -13 42 -45 76 -56 60 -3 -6 1 -23 9 -38 9 -16 25
-54 37 -86 26 -72 57 -111 82 -102 25 10 31 49 21 125 l-9 66 56 -4 c61 -5
119 17 119 43 0 18 -6 18 -45 -1z"/>
<path d="M5296 3370 c-34 -86 -14 -154 50 -166 43 -8 114 13 114 34 0 11 -6
12 -22 6 -40 -13 -108 -10 -118 6 -15 24 -11 73 9 112 10 21 16 40 13 43 -14
14 -31 1 -46 -35z"/>
<path d="M8745 3399 c-11 -30 -10 -162 1 -166 16 -5 30 155 15 170 -7 7 -12 6
-16 -4z"/>
<path d="M10443 3380 c3 -11 -3 -42 -14 -70 -34 -90 -23 -130 37 -130 65 0
123 80 106 145 -10 36 -64 75 -105 75 -24 0 -28 -3 -24 -20z m81 -36 c9 -8 16
-31 16 -50 0 -43 -39 -87 -73 -82 -18 2 -22 9 -20 37 2 43 32 111 49 111 7 0
20 -7 28 -16z"/>
<path d="M13027 3388 c-10 -5 -32 -28 -49 -51 -21 -29 -29 -35 -25 -20 3 13
-1 27 -9 34 -17 14 -20 6 -28 -83 -8 -79 9 -93 37 -30 9 20 30 53 46 72 29 35
29 35 24 8 -8 -40 6 -115 23 -133 18 -18 85 -20 102 -3 19 19 15 41 -5 33 -10
-4 -30 -10 -45 -13 -38 -6 -52 32 -43 120 6 70 1 83 -28 66z"/>
<path d="M3985 3380 c-50 -13 -85 -29 -85 -39 0 -19 20 -22 49 -6 36 18 88 20
94 3 4 -10 7 -10 18 0 10 9 11 17 3 30 -13 20 -37 24 -79 12z"/>
<path d="M3155 3360 c-7 -12 41 -182 68 -237 22 -46 53 -60 44 -20 -31 128
-12 184 73 212 28 9 62 15 75 13 28 -6 50 5 41 21 -11 17 -80 13 -139 -9 -43
-16 -58 -28 -76 -61 -13 -22 -25 -39 -26 -37 -2 2 -8 22 -13 45 -7 29 -6 45 2
53 8 8 7 13 -4 20 -19 12 -37 13 -45 0z"/>
<path d="M9815 3358 c-11 -6 -32 -22 -46 -36 -22 -22 -25 -31 -18 -60 14 -65
78 -101 101 -58 6 11 17 25 24 29 22 13 16 27 -12 27 -17 0 -28 -6 -31 -20 -7
-26 -29 -26 -43 1 -14 25 -8 32 28 36 38 5 80 23 85 36 2 7 1 22 -4 35 -9 25
-49 30 -84 10z m55 -27 c0 -10 -25 -21 -48 -21 -15 1 -14 3 2 15 22 17 46 20
46 6z"/>
<path d="M12722 3358 c-9 -9 -8 -16 4 -29 12 -13 13 -21 3 -43 -20 -43 1 -76
49 -76 43 0 82 23 82 48 0 31 -40 83 -75 98 -42 17 -48 17 -63 2z m97 -75 c14
-30 3 -43 -36 -43 -25 0 -31 27 -13 60 13 24 34 17 49 -17z"/>
<path d="M10057 3349 c-9 -5 -26 -28 -38 -50 -19 -38 -19 -42 -4 -59 17 -19
101 -35 129 -24 31 12 15 23 -44 30 -37 4 -60 11 -60 19 0 19 40 65 57 65 18
0 12 24 -8 27 -8 2 -22 -2 -32 -8z"/>
<path d="M6905 3259 l-18 -72 -18 24 c-10 13 -19 36 -19 52 0 17 -5 27 -15 27
-23 0 -18 -52 10 -105 23 -45 24 -49 9 -83 -43 -102 -54 -135 -56 -183 -3 -52
-2 -53 40 -82 32 -21 41 -32 33 -40 -15 -15 -89 -11 -107 4 -22 18 -40 -4 -20
-24 25 -25 98 -32 135 -13 43 23 39 47 -16 95 -40 33 -45 42 -33 51 8 5 21 8
28 5 8 -3 18 -2 23 1 14 9 -10 34 -32 34 -11 0 -19 2 -19 5 0 2 18 49 39 102
45 110 84 249 76 264 -14 21 -24 5 -40 -62z"/>
<path d="M12556 3321 c-3 -5 0 -35 7 -68 10 -41 19 -59 31 -61 15 -3 17 1 11
30 -19 93 -34 124 -49 99z"/>
<path d="M7744 3265 c-7 -18 3 -35 22 -35 8 0 14 10 14 25 0 27 -27 35 -36 10z"/>
<path d="M3956 3245 c-27 -8 -56 -21 -64 -29 -14 -14 -14 -16 1 -22 10 -3 23
-2 30 4 6 5 36 15 64 23 44 10 57 10 78 -1 36 -19 56 1 24 24 -28 19 -66 19
-133 1z"/>
<path d="M13374 3215 c-4 -8 -4 -22 0 -30 7 -20 36 -19 36 0 0 9 7 18 15 21
26 10 17 24 -15 24 -18 0 -33 -6 -36 -15z"/>
<path d="M4920 3205 c0 -8 9 -15 19 -15 30 0 45 -72 19 -98 -15 -15 -38 3 -38
30 0 13 -6 18 -17 16 -24 -4 -24 -43 -1 -42 12 1 17 -5 15 -20 -1 -15 4 -22
20 -24 34 -5 63 31 64 81 1 41 1 42 9 10 4 -18 13 -39 19 -47 17 -20 68 -39
87 -32 18 7 14 30 -7 32 -32 2 -38 5 -53 20 -9 9 -16 32 -16 54 0 44 -17 61
-35 36 -11 -14 -14 -15 -25 -1 -16 20 -60 20 -60 0z"/>
<path d="M14037 3163 c-3 -5 -8 -54 -12 -111 l-7 -103 -27 1 c-45 3 -62 0 -56
-9 3 -5 -5 -12 -17 -14 -13 -2 3 -5 35 -6 51 -1 58 -3 53 -18 -15 -50 -26
-115 -20 -124 10 -17 27 -5 31 22 1 13 8 45 14 72 12 51 6 48 118 70 36 6 66
18 69 25 5 16 -25 15 -105 -2 l-62 -13 6 102 c4 68 2 104 -5 109 -6 3 -13 3
-15 -1z"/>
<path d="M7712 3092 c-18 -43 -28 -76 -47 -166 -6 -27 -7 -27 -25 -11 -17 16
-22 16 -74 1 -30 -9 -68 -27 -83 -40 -24 -21 -26 -28 -18 -51 13 -36 57 -69
82 -61 10 3 42 28 71 54 l52 48 10 -33 c14 -41 75 -95 103 -91 27 4 35 28 9
28 -24 0 -69 41 -82 75 -16 41 -12 73 20 175 34 106 36 120 16 120 -7 0 -23
-21 -34 -48z m-78 -216 c-5 -12 -61 -62 -91 -80 -13 -7 -53 26 -53 44 0 16 80
50 117 50 24 0 31 -4 27 -14z"/>
<path d="M9443 3118 c-6 -7 -14 -39 -18 -70 -4 -32 -10 -58 -14 -59 -124 -21
-136 -25 -139 -43 -3 -16 0 -18 24 -12 15 4 47 11 71 15 l43 8 0 -82 c0 -89 5
-115 24 -115 7 0 11 30 11 95 0 55 5 99 11 105 6 6 43 14 82 17 57 5 69 9 65
21 -5 12 -20 14 -80 8 -81 -6 -79 -9 -62 63 10 46 1 72 -18 49z"/>
<path d="M11438 3091 c-30 -27 -33 -34 -36 -106 -4 -70 -6 -77 -28 -85 -32
-12 -31 -30 2 -30 25 0 25 -2 24 -62 -2 -87 -2 -88 15 -88 12 0 15 16 15 81
l0 81 67 -3 c45 -3 67 0 70 8 3 8 -19 14 -66 19 l-71 7 0 53 c0 68 13 101 46
116 24 11 29 10 49 -14 27 -31 54 -24 36 10 -26 49 -77 54 -123 13z"/>
<path d="M4427 3103 c-4 -3 -7 -17 -7 -29 0 -19 5 -23 30 -22 32 1 36 8 20 39
-11 19 -31 25 -43 12z"/>
<path d="M12317 3083 c-3 -4 -8 -27 -12 -50 -4 -24 -11 -45 -16 -48 -5 -4 -6
1 -3 10 6 15 4 15 -31 1 -21 -9 -46 -16 -56 -16 -18 0 -27 -24 -11 -33 4 -3
25 1 47 9 22 7 43 14 46 14 4 0 5 -37 2 -82 -6 -92 5 -153 28 -153 8 0 12 7
10 15 -9 37 -11 149 -4 189 8 43 11 46 80 81 71 36 71 36 76 13 2 -12 -4 -63
-13 -113 -10 -52 -13 -93 -8 -96 5 -3 32 16 61 43 45 42 52 45 55 28 6 -31 32
-55 60 -55 14 0 35 -9 46 -19 24 -23 157 -82 168 -75 16 10 7 23 -24 38 -18 8
-55 24 -83 36 l-49 21 33 20 c26 16 31 24 26 42 -4 12 -13 28 -20 36 -12 12
-17 12 -39 -3 -14 -9 -29 -28 -32 -42 -10 -40 -46 -29 -57 19 -11 45 -26 46
-71 7 l-34 -31 5 95 c5 84 4 96 -11 102 -19 7 -85 -24 -93 -43 -3 -7 -16 -13
-30 -13 -21 0 -24 4 -21 27 3 25 -15 43 -25 26z m388 -192 c-3 -6 -11 -11 -17
-11 -6 0 -6 6 2 15 14 17 26 13 15 -4z"/>
<path d="M13799 3056 c-6 -9 -5 -37 2 -42 5 -3 9 -1 9 4 0 6 9 8 20 5 13 -4
20 0 20 10 0 8 -11 17 -25 19 -14 3 -25 5 -26 4z"/>
<path d="M3291 3018 c-6 -17 -14 -55 -17 -84 -6 -51 -7 -52 -47 -60 -22 -5
-42 -15 -45 -23 -4 -11 5 -12 41 -7 27 4 48 3 51 -3 4 -5 8 -43 11 -83 3 -51
8 -73 17 -73 17 0 21 47 10 117 l-9 56 30 6 c17 4 46 3 64 0 35 -7 43 5 18 26
-10 9 -32 11 -65 7 -58 -7 -59 -5 -35 86 18 70 18 67 1 67 -8 0 -19 -14 -25
-32z"/>
<path d="M10545 3011 c-47 -21 -105 -73 -105 -94 0 -19 17 -32 63 -46 42 -14
48 -36 18 -72 -13 -16 -29 -23 -55 -23 -29 0 -36 -4 -36 -19 0 -17 5 -19 41
-14 46 6 94 45 104 84 8 31 -15 58 -61 73 -19 7 -34 15 -34 19 0 16 50 53 87
66 21 7 39 20 41 29 4 20 -12 19 -63 -3z"/>
<path d="M6355 3006 c-28 -20 -64 -224 -40 -226 6 -1 19 42 30 94 11 52 23 97
26 100 3 4 12 0 19 -9 15 -19 40 -20 40 -2 0 13 -22 36 -46 50 -6 4 -19 1 -29
-7z"/>
<path d="M8315 3011 c-7 -13 12 -51 26 -51 14 0 7 52 -8 57 -6 2 -14 -1 -18
-6z"/>
<path d="M13341 2963 c-17 -25 -31 -51 -31 -56 0 -13 -58 -87 -87 -113 -20
-17 -22 -23 -10 -32 11 -9 19 -6 37 13 l23 25 11 -23 c16 -30 45 -32 85 -4 34
23 35 23 53 5 11 -11 26 -18 35 -16 22 4 29 28 9 28 -28 0 -29 27 -2 86 29 63
32 84 14 84 -7 0 -23 -25 -36 -54 -24 -55 -45 -79 -96 -112 l-29 -18 5 45 c3
27 20 71 42 108 33 58 38 81 16 81 -4 0 -22 -21 -39 -47z"/>
<path d="M9644 2989 c-33 -17 -76 -90 -69 -119 11 -49 81 -82 174 -84 73 -2
57 19 -26 32 -55 8 -84 18 -98 33 -22 24 -25 21 55 49 53 18 64 47 29 79 -25
23 -34 24 -65 10z m50 -38 c6 -9 -65 -43 -73 -35 -2 2 4 13 14 24 19 21 50 27
59 11z"/>
<path d="M9932 2988 c-41 -52 -60 -178 -27 -178 11 0 15 12 15 48 0 53 19 88
56 102 15 6 22 15 18 25 -7 18 -48 20 -62 3z"/>
<path d="M5780 2975 c0 -23 37 -92 52 -98 7 -3 -11 -15 -39 -28 -29 -13 -53
-30 -53 -36 0 -20 26 -16 81 12 l50 26 34 -26 c18 -15 35 -31 37 -37 2 -6 11
-12 20 -14 25 -3 10 32 -28 66 l-34 30 34 14 c18 8 36 19 40 24 13 21 -15 22
-60 2 -54 -23 -64 -19 -95 42 -20 39 -39 50 -39 23z"/>
<path d="M4538 2969 c-38 -22 -8 -55 65 -73 32 -8 34 -24 6 -60 -20 -25 -59
-36 -59 -16 0 16 -20 12 -27 -6 -15 -41 62 -46 99 -6 23 25 48 64 48 76 0 14
-36 37 -73 47 -34 9 -38 13 -24 21 18 10 14 28 -6 28 -7 0 -20 -5 -29 -11z"/>
<path d="M10104 2953 c-10 -16 -28 -45 -42 -66 -20 -30 -23 -40 -13 -50 10 -9
15 -8 25 7 6 11 22 33 37 49 24 28 26 29 43 12 10 -10 14 -24 11 -34 -4 -9 -9
-33 -12 -53 -10 -66 21 -47 62 37 20 41 41 75 46 75 6 0 9 -21 7 -47 -3 -45
-1 -48 21 -48 13 0 26 6 29 13 2 6 -3 12 -11 12 -10 0 -13 7 -10 20 3 11 2 35
-1 54 -9 47 -39 56 -74 23 l-27 -26 -28 25 c-36 31 -43 30 -63 -3z"/>
<path d="M7043 2950 c-18 -11 -33 -25 -33 -31 0 -6 19 -29 42 -50 39 -36 41
-40 26 -55 -18 -18 -49 -22 -91 -11 -24 7 -28 5 -25 -9 4 -21 60 -38 94 -30
31 8 64 45 64 72 0 13 -14 32 -36 49 -40 31 -35 49 16 47 32 -1 42 21 14 32
-25 10 -37 7 -71 -14z"/>
<path d="M5499 2930 c-90 -61 -90 -61 -79 -101 16 -56 41 -73 118 -77 75 -4
156 12 149 31 -2 7 -13 11 -23 9 -107 -19 -195 -9 -207 21 -3 9 17 12 68 12
104 0 124 23 88 100 -21 45 -53 46 -114 5z m90 -27 c16 -34 4 -45 -57 -51 -66
-6 -73 10 -21 48 51 37 62 37 78 3z"/>
<path d="M7260 2935 c-43 -31 -59 -60 -60 -106 0 -56 17 -69 101 -82 74 -10
116 -6 105 12 -3 4 -38 12 -78 16 -82 8 -98 16 -98 54 0 25 3 26 54 27 87 1
134 45 84 78 -42 27 -71 27 -108 1z m80 -30 c-1 -13 -50 -27 -70 -19 -12 4
-12 8 5 20 22 16 66 15 65 -1z"/>
<path d="M13640 2945 c-7 -8 -18 -15 -25 -15 -18 0 -61 -118 -47 -132 7 -7 19
7 41 50 40 79 56 90 47 31 -19 -118 -19 -129 -4 -129 17 0 42 123 36 175 -3
34 -28 44 -48 20z"/>
<path d="M6175 2943 c-11 -3 -26 -10 -34 -16 -7 -6 -27 -11 -44 -12 l-31 0 2
-160 c1 -120 5 -160 14 -160 16 0 36 74 37 135 1 43 3 47 35 58 59 22 126 117
100 142 -13 12 -55 19 -79 13z m37 -65 c-28 -44 -77 -74 -97 -58 -31 26 28 90
83 90 l34 0 -20 -32z"/>
<path d="M3688 2911 c-62 -31 -84 -121 -44 -177 24 -32 40 -5 20 34 -18 36
-12 66 19 100 23 25 48 28 77 10 23 -15 38 -3 24 19 -17 27 -59 33 -96 14z"/>
<path d="M4391 2886 c-31 -62 -15 -157 23 -143 13 5 15 11 6 26 -15 30 -12 92
6 112 16 18 13 49 -5 49 -5 0 -19 -20 -30 -44z"/>
<path d="M6500 2920 c0 -5 -6 -10 -14 -10 -20 0 -56 -48 -56 -74 0 -28 34 -82
59 -96 48 -25 161 -20 161 8 0 11 -8 13 -41 8 -57 -9 -111 8 -131 41 l-16 28
50 15 c63 19 80 40 54 69 -20 21 -66 29 -66 11z m40 -30 c0 -5 -4 -10 -10 -10
-5 0 -9 -5 -7 -11 1 -6 -4 -14 -12 -17 -8 -2 -11 0 -7 6 4 6 -2 8 -16 4 -23
-5 -23 -5 -4 16 20 22 56 30 56 12z"/>
<path d="M11238 2913 c-40 -46 -51 -119 -23 -143 19 -16 71 -15 91 1 24 20 14
109 -12 109 -11 0 -14 -11 -12 -42 3 -40 1 -43 -22 -43 -58 0 -22 96 40 108
43 9 37 27 -8 27 -25 0 -45 -7 -54 -17z"/>
<path d="M2616 2893 c-7 -16 -22 -54 -32 -85 l-18 -58 -39 73 c-46 86 -53 95
-67 81 -7 -7 1 -29 25 -70 20 -32 41 -78 47 -101 19 -76 44 -53 87 79 15 46
26 65 36 62 20 -8 27 13 9 30 -22 22 -31 20 -48 -11z"/>
<path d="M13764 2907 c-10 -27 -9 -132 1 -137 9 -4 21 49 28 124 2 23 -21 33
-29 13z"/>
<path d="M2988 2900 c-9 -6 -24 -30 -33 -55 -17 -42 -17 -46 -1 -71 30 -45
146 -76 146 -39 0 9 -9 15 -25 15 -14 0 -41 7 -60 14 -30 13 -35 20 -35 49 0
36 21 64 40 52 21 -13 32 7 14 26 -19 22 -23 22 -46 9z"/>
<path d="M2774 2878 c-37 -42 -54 -77 -54 -111 0 -39 18 -58 55 -61 14 0 25
-4 25 -8 0 -5 14 -8 31 -8 47 0 30 22 -30 38 -43 12 -51 18 -49 35 2 14 19 26
56 40 55 21 62 33 36 72 -20 31 -45 32 -70 3z m51 -28 c3 -5 2 -10 -4 -10 -5
0 -18 -3 -28 -7 -16 -6 -16 -5 -4 10 15 19 27 22 36 7z"/>
<path d="M3485 2890 c-3 -5 12 -27 35 -50 48 -48 52 -70 12 -70 -38 0 -54 17
-41 43 7 13 8 22 1 29 -15 15 -30 2 -37 -33 -11 -49 17 -72 83 -67 29 3 57 9
62 14 13 13 -14 63 -58 109 -35 36 -47 42 -57 25z"/>
<path d="M8293 2838 c1 -24 -2 -60 -7 -80 -7 -31 -5 -38 7 -38 17 0 22 12 33
72 8 46 -2 88 -20 88 -9 0 -13 -13 -13 -42z"/>
<path d="M8396 2849 c-27 -31 -35 -74 -14 -67 7 3 20 18 29 34 14 25 22 29 53
27 45 -3 76 -19 76 -39 0 -8 -14 -33 -31 -54 -28 -34 -32 -60 -10 -60 9 0 67
82 75 107 11 36 -63 83 -131 83 -11 0 -33 -14 -47 -31z"/>
<path d="M4756 2669 c-39 -27 -80 -52 -93 -55 -13 -4 -22 -11 -20 -18 7 -19
50 -7 107 32 30 20 58 38 61 40 4 1 9 -15 13 -36 10 -65 108 -140 124 -94 2 6
-3 12 -12 12 -9 0 -30 13 -48 29 -28 25 -33 36 -34 82 -1 37 -6 55 -16 56 -7
1 -44 -20 -82 -48z"/>
<path d="M11002 2690 c-43 -26 -97 -140 -143 -300 -75 -262 -20 -414 178 -487
91 -33 113 -38 113 -24 0 6 -38 30 -85 53 -86 42 -163 107 -193 163 -38 73 0
293 82 469 18 39 31 77 28 84 -2 7 0 12 5 10 16 -4 83 26 80 37 -6 18 -31 16
-65 -5z"/>
<path d="M9690 2635 c-13 -31 -42 -78 -66 -104 -42 -47 -54 -71 -35 -71 17 0
109 107 122 143 14 40 23 46 33 22 5 -14 133 -80 149 -77 4 1 7 -3 7 -10 0 -9
3 -9 13 1 15 15 -5 33 -78 66 -27 13 -63 37 -79 54 -17 17 -33 31 -37 31 -4 0
-17 -25 -29 -55z"/>
<path d="M12410 2651 c0 -11 35 -55 96 -122 55 -61 72 -95 83 -171 15 -109
-14 -244 -74 -342 -19 -31 -51 -82 -70 -113 -25 -41 -32 -60 -24 -67 8 -8 14
-6 23 8 6 10 37 59 69 109 142 224 151 442 23 585 -28 32 -62 73 -75 90 -21
30 -51 43 -51 23z"/>
<path d="M5822 2624 c-96 -76 -160 -372 -108 -494 35 -80 51 -91 161 -115 33
-7 72 -16 88 -20 21 -6 27 -4 27 8 0 16 -9 20 -69 32 -49 10 -134 52 -158 77
-35 38 -46 99 -34 193 21 152 68 270 121 301 30 18 41 44 18 44 -7 0 -28 -12
-46 -26z"/>
<path d="M8725 2568 c-24 -88 -61 -163 -89 -181 -13 -9 -40 -19 -61 -23 l-38
-7 23 32 c12 18 29 35 36 38 15 6 19 43 5 43 -5 0 -30 -23 -55 -52 -36 -41
-43 -55 -35 -70 22 -40 137 -7 179 52 l23 33 19 -36 c20 -39 51 -62 74 -53 20
8 17 20 -8 31 -13 6 -32 27 -43 47 -18 34 -18 41 -6 95 24 105 24 113 8 113
-9 0 -20 -22 -32 -62z"/>
<path d="M11530 2618 c0 -7 -12 -41 -26 -75 -25 -59 -27 -61 -54 -52 -19 7
-44 6 -81 -3 -49 -12 -56 -18 -76 -58 -13 -24 -23 -58 -23 -76 0 -38 34 -84
62 -84 11 0 18 -3 16 -7 -2 -5 -20 -42 -41 -83 -21 -41 -37 -89 -37 -108 0
-46 22 -37 33 14 4 21 24 70 45 109 31 56 44 71 68 75 74 16 107 69 91 148 -9
43 -6 53 26 121 20 41 34 78 31 83 -8 13 -34 10 -34 -4z m-76 -166 c2 -4 -14
-40 -37 -80 -31 -53 -48 -72 -63 -72 -32 0 -57 34 -52 70 3 16 1 30 -4 30 -4
0 -8 5 -8 12 0 6 3 9 6 5 4 -3 23 5 43 18 35 24 104 34 115 17z m22 -98 c-6
-22 -51 -62 -61 -53 -2 2 11 28 28 57 31 52 46 50 33 -4z"/>
<path d="M3296 2591 c-4 -6 -9 -39 -13 -75 -6 -64 -6 -65 -37 -68 -19 -2 -32
-9 -34 -20 -3 -13 3 -15 35 -11 l39 5 12 -52 c7 -28 12 -63 12 -77 0 -15 5
-23 13 -20 14 4 15 62 3 121 l-9 38 54 -6 c103 -13 110 -16 99 -36 -38 -71 30
-121 110 -80 71 36 76 81 16 139 l-36 34 -25 -28 c-20 -20 -29 -25 -38 -16
-14 14 -67 15 -67 1 0 -5 -4 -10 -10 -10 -6 0 -9 6 -7 13 1 8 -14 12 -52 12
l-53 0 6 50 c3 27 7 59 8 69 3 21 -16 33 -26 17z m299 -185 c19 -28 12 -50
-21 -65 -81 -36 -114 16 -42 67 41 28 44 27 63 -2z"/>
<path d="M12139 2521 c-12 -23 -32 -42 -45 -45 -15 -4 -24 -14 -24 -26 0 -28
14 -25 55 11 l35 31 0 -90 c0 -49 2 -102 5 -118 9 -49 -2 -55 -78 -38 -53 12
-71 13 -82 4 -22 -18 -8 -30 35 -30 25 0 42 -6 48 -16 7 -13 24 -14 121 -8 74
5 110 11 108 18 -2 6 -29 12 -59 14 -43 2 -57 7 -60 20 -2 9 -6 80 -7 157 -2
77 -5 143 -8 147 -9 16 -22 7 -44 -31z"/>
<path d="M7060 2530 c0 -35 -29 -82 -46 -76 -9 3 -25 6 -35 6 -11 0 -17 5 -14
10 12 19 -24 22 -54 4 -84 -49 -91 -207 -12 -248 l30 -16 -25 -72 c-26 -78
-30 -113 -13 -123 15 -10 21 0 25 41 1 20 12 63 24 95 19 50 26 59 47 59 38 0
87 25 106 53 26 40 22 100 -10 137 -25 31 -26 32 -10 66 21 44 22 84 2 84 -8
0 -15 -9 -15 -20z m-57 -106 c12 -4 9 -20 -20 -87 -19 -45 -38 -86 -42 -90
-12 -13 -59 31 -66 62 -8 38 13 109 34 114 25 7 78 8 94 1z m62 -54 c23 -45
19 -75 -16 -104 -30 -25 -69 -35 -69 -17 0 10 62 151 66 151 2 0 10 -13 19
-30z"/>
<path d="M7300 2539 c0 -6 11 -24 24 -40 33 -38 69 -151 69 -213 0 -53 -31
-129 -80 -193 -21 -28 -26 -31 -43 -21 -26 17 -36 3 -20 -27 22 -41 50 -28 98
45 61 94 85 162 77 225 -8 59 -43 152 -77 200 -22 34 -48 46 -48 24z"/>
<path d="M3755 2488 c-29 -28 -36 -42 -41 -88 -7 -66 7 -110 36 -110 24 0 27
25 4 34 -14 5 -16 16 -10 63 4 32 14 65 23 75 20 22 53 24 53 3 0 -8 7 -15 15
-15 21 0 19 33 -3 53 -26 24 -38 21 -77 -15z"/>
<path d="M2597 2466 c-15 -24 -34 -74 -42 -111 -7 -37 -15 -69 -17 -71 -3 -2
-10 18 -17 44 -15 59 -54 112 -71 96 -9 -9 -7 -17 7 -33 10 -12 27 -49 38 -84
15 -48 25 -63 41 -65 17 -2 24 5 33 29 6 18 11 39 11 49 0 35 31 120 42 114
14 -9 28 15 28 49 0 40 -21 33 -53 -17z"/>
<path d="M4015 2496 c-95 -30 -102 -45 -55 -115 17 -25 29 -49 27 -55 -2 -6
-23 -12 -46 -14 -27 -2 -41 -7 -38 -15 4 -14 115 -18 123 -5 8 13 -17 80 -43
115 l-25 32 37 16 c21 8 48 15 60 15 27 0 41 26 19 34 -9 3 -16 6 -17 5 -1 0
-20 -6 -42 -13z"/>
<path d="M4751 2451 c-56 -70 -74 -125 -69 -205 8 -117 41 -159 126 -158 60 2
79 9 85 33 4 16 2 19 -11 13 -26 -11 -89 -17 -116 -10 -29 7 -56 77 -56 145 0
56 37 139 75 169 17 13 25 28 21 37 -9 24 -22 18 -55 -24z"/>
<path d="M10197 2470 c-26 -9 -48 -21 -48 -26 0 -16 33 -16 77 1 24 9 52 14
63 10 23 -7 39 14 20 26 -20 12 -57 9 -112 -11z"/>
<path d="M8106 2459 c-37 -29 -79 -104 -71 -128 12 -40 64 -38 122 5 39 29 41
29 45 2 4 -30 48 -39 48 -11 0 11 -4 23 -9 29 -5 5 -11 27 -13 49 -2 22 -8 40
-14 40 -6 0 -18 8 -28 18 -23 23 -47 22 -80 -4z m66 -28 c15 -17 14 -20 -6
-45 -11 -14 -38 -33 -58 -41 -35 -14 -38 -14 -38 1 0 33 54 102 80 104 3 0 13
-8 22 -19z"/>
<path d="M2814 2459 c-17 -5 -37 -16 -44 -24 -8 -9 -21 -13 -36 -9 -18 5 -24
2 -24 -10 0 -9 4 -16 10 -16 5 0 7 -13 4 -28 -9 -45 19 -100 60 -117 44 -19
76 -19 76 -1 0 8 -15 17 -34 20 -38 7 -62 29 -71 69 -7 25 -6 27 16 19 14 -5
38 -5 56 0 36 9 85 63 81 87 -4 19 -48 24 -94 10z m36 -44 c-27 -28 -93 -38
-70 -10 11 13 56 31 84 34 5 1 -1 -10 -14 -24z"/>
<path d="M6271 2409 c-24 -27 -50 -49 -58 -49 -18 0 -13 -32 5 -38 7 -2 27 11
45 30 l32 34 0 -83 0 -83 -82 0 c-67 0 -83 -3 -83 -15 0 -12 15 -15 73 -15 39
0 89 -3 110 -6 29 -5 37 -3 37 9 0 8 -5 17 -10 19 -19 6 -23 109 -7 175 22 91
5 97 -62 22z"/>
<path d="M8333 2446 c-53 -14 -82 -41 -65 -58 9 -9 16 -8 29 4 10 8 30 18 45
22 14 3 33 9 42 12 13 5 16 -1 16 -34 0 -49 8 -72 25 -72 9 0 11 17 9 61 -2
33 -6 65 -9 70 -8 11 -38 10 -92 -5z"/>
<path d="M3016 2407 c-32 -42 -35 -105 -8 -130 31 -28 172 -18 172 11 0 5 -35
9 -77 8 l-78 -1 -3 32 c-4 42 23 83 54 83 15 0 24 6 24 15 0 10 -10 15 -29 15
-22 0 -37 -9 -55 -33z"/>
<path d="M9720 2430 c0 -6 7 -21 15 -33 18 -28 41 -230 31 -280 -10 -51 -69
-117 -105 -117 -32 0 -76 41 -92 88 -6 18 -18 32 -26 32 -36 0 25 -117 73
-139 45 -20 77 -13 118 27 49 47 66 87 66 155 0 79 -20 218 -36 250 -14 26
-44 38 -44 17z"/>
<path d="M5245 2409 c-16 -5 -45 -8 -63 -5 -27 4 -33 2 -30 -12 3 -14 14 -17
63 -15 76 3 107 11 102 26 -5 16 -34 18 -72 6z"/>
<path d="M10239 2402 c-71 -22 -119 -46 -119 -58 0 -18 5 -18 69 7 31 11 72
19 95 17 26 -2 41 2 44 11 3 8 0 11 -7 7 -6 -4 -11 -3 -11 2 0 11 -50 20 -71
14z"/>
<path d="M5213 2333 c-41 -14 -55 -35 -33 -48 5 -3 21 2 36 12 16 10 46 17 75
17 43 0 47 2 38 18 -12 22 -56 23 -116 1z"/>
<path d="M11675 2333 c19 -43 17 -85 -4 -114 -25 -33 -27 -49 -6 -49 18 0 42
36 55 81 13 43 -6 99 -33 99 -14 0 -17 -4 -12 -17z"/>
<path d="M2902 2283 c-22 -4 -40 -28 -30 -38 9 -10 68 17 68 31 0 8 -3 13 -7
13 -5 -1 -18 -4 -31 -6z"/>
<path d="M6536 2188 c4 -13 7 -47 7 -75 -1 -29 2 -53 6 -53 30 0 42 76 19 125
-15 32 -44 35 -32 3z"/>
</g>
</svg>
