<?xml version="1.0" standalone="no"?>
<!DOCTYPE svg PUBLIC "-//W3C//DTD SVG 20010904//EN"
 "http://www.w3.org/TR/2001/REC-SVG-20010904/DTD/svg10.dtd">
<svg version="1.0" xmlns="http://www.w3.org/2000/svg"
 width="1617.000000pt" height="1213.000000pt" viewBox="0 0 1617.000000 1213.000000"
 preserveAspectRatio="xMidYMid meet">

<g transform="translate(0.000000,1213.000000) scale(0.100000,-0.100000)"
fill="#000000" stroke="none">
<path d="M12124 11653 c-3 -10 -23 -52 -45 -95 -68 -132 -83 -206 -52 -259 20
-33 42 -44 57 -29 8 8 6 15 -7 25 -13 9 -20 31 -24 72 -5 55 -3 63 46 157 28
54 51 106 51 116 0 26 -19 35 -26 13z"/>
<path d="M13957 11618 c-4 -24 -11 -60 -17 -81 -11 -38 -12 -39 -58 -35 -43 3
-48 1 -69 -31 -38 -56 -23 -120 32 -141 l23 -9 -19 -57 c-41 -124 -45 -224 -9
-224 16 0 22 20 11 34 -13 15 9 143 34 202 12 30 17 32 83 38 84 8 105 22 104
66 -1 37 -38 82 -83 100 -22 10 -28 17 -24 34 3 11 7 35 8 53 1 17 5 29 10 26
4 -2 7 2 7 9 0 7 3 23 6 36 5 17 2 22 -13 22 -16 0 -22 -9 -26 -42z m-58 -157
c12 -8 13 -16 3 -48 -20 -66 -27 -71 -56 -43 -29 26 -31 38 -14 75 12 26 40
33 67 16z m125 -63 c16 -26 -10 -46 -68 -54 -54 -8 -54 -9 -19 73 l14 34 31
-18 c17 -10 36 -26 42 -35z"/>
<path d="M14413 11623 c-15 -3 -23 -12 -23 -25 0 -17 4 -19 23 -13 12 4 66 9
119 11 l97 4 -31 -50 c-26 -43 -37 -51 -69 -56 -52 -9 -78 -28 -61 -45 9 -10
15 -10 24 -1 7 7 19 12 28 12 15 0 15 -5 -2 -56 -20 -60 -17 -114 8 -114 8 0
14 5 14 12 0 6 10 47 21 90 l21 79 74 -7 c54 -5 74 -4 74 5 0 14 -10 18 -72
26 -27 3 -48 10 -48 14 0 5 16 28 35 52 19 24 35 50 35 57 0 9 -30 12 -122 11
-68 -1 -133 -4 -145 -6z"/>
<path d="M13013 11598 c-40 -44 -63 -104 -63 -165 0 -73 15 -103 63 -127 46
-22 95 -16 134 19 57 49 -13 76 -129 51 l-38 -8 0 57 c0 62 37 147 72 166 20
11 16 29 -6 29 -7 0 -22 -10 -33 -22z m117 -247 c0 -14 -60 -31 -86 -25 -49
13 -21 28 59 33 15 0 27 -3 27 -8z"/>
<path d="M14251 11573 c-52 -199 -62 -313 -28 -313 8 0 13 20 13 58 1 65 43
262 56 262 4 0 8 7 8 15 0 8 -9 15 -20 15 -14 0 -22 -10 -29 -37z"/>
<path d="M12840 11555 c0 -37 -26 -223 -35 -246 -7 -20 12 -47 23 -34 15 15
50 282 40 300 -15 26 -28 17 -28 -20z"/>
<path d="M12300 11567 c-19 -7 -36 -20 -38 -29 -4 -19 18 -24 34 -8 5 5 31 13
57 16 37 5 47 4 47 -8 0 -24 -41 -71 -128 -148 -62 -54 -82 -78 -80 -94 3 -23
14 -24 166 -15 105 7 73 36 -42 38 l-59 1 81 84 c82 85 104 125 85 155 -13 20
-76 24 -123 8z"/>
<path d="M13556 11554 c-19 -18 -19 -20 -6 -45 15 -27 30 -24 30 6 0 27 6 30
29 16 24 -15 4 -57 -62 -132 -81 -92 -81 -93 -74 -113 8 -20 41 -20 162 -1 50
8 91 14 93 15 1 0 2 4 2 9 0 12 -115 19 -162 11 l-38 -7 35 38 c42 46 85 129
85 163 0 45 -63 72 -94 40z"/>
<path d="M15265 11441 c-64 -8 -139 -36 -131 -50 3 -4 -12 -17 -33 -29 -54
-31 -180 -160 -220 -226 -53 -88 -81 -177 -81 -254 1 -119 52 -191 178 -249
149 -69 305 -80 447 -30 178 62 206 93 278 312 65 195 66 282 5 386 -21 35
-43 54 -113 92 -83 47 -90 49 -178 52 -51 2 -119 0 -152 -4z m192 -27 c-3 -3
-12 -4 -19 -1 -8 3 -5 6 6 6 11 1 17 -2 13 -5z m-37 -33 c69 -4 132 -11 140
-15 8 -3 23 -20 32 -37 15 -26 23 -30 50 -27 30 3 35 -1 56 -42 20 -39 22 -56
18 -135 -5 -114 -69 -321 -119 -386 -63 -83 -247 -147 -389 -136 -86 7 -208
44 -267 81 -124 79 -145 209 -61 382 36 74 58 104 134 180 77 76 103 96 166
122 42 18 84 29 95 26 11 -3 76 -9 145 -13z m225 -51 c3 -6 -1 -7 -9 -4 -18 7
-21 14 -7 14 6 0 13 -4 16 -10z"/>
<path d="M15145 11160 c-10 -16 -27 -279 -20 -298 5 -15 7 -15 14 -2 10 17 23
131 25 208 1 31 7 56 14 61 7 4 10 15 6 24 -7 19 -29 23 -39 7z"/>
<path d="M15381 11140 c-38 -35 -37 -55 4 -116 41 -61 29 -124 -25 -124 -22 0
-29 5 -32 22 -4 26 -23 35 -31 14 -17 -44 47 -91 92 -67 58 31 66 98 21 177
-17 29 -27 55 -23 57 4 3 52 11 106 18 72 9 97 16 97 27 0 12 -13 13 -74 7
-49 -4 -76 -3 -81 4 -10 17 -18 14 -54 -19z"/>
<path d="M1900 11273 c-150 -166 -203 -413 -114 -530 54 -71 214 -177 236
-155 6 6 -9 20 -44 40 -86 50 -168 120 -186 160 -10 24 -16 64 -15 117 0 134
54 254 163 367 27 28 50 55 50 60 0 24 -35 0 -90 -59z"/>
<path d="M12570 11308 c0 -8 5 -19 12 -26 20 -20 40 -14 36 11 -3 25 -48 39
-48 15z"/>
<path d="M3058 11293 c6 -2 12 -10 12 -16 0 -7 13 -19 29 -29 39 -22 97 -111
112 -171 25 -100 -9 -220 -91 -327 -57 -74 -110 -149 -110 -156 0 -2 6 -4 14
-4 14 0 48 42 138 169 116 163 116 336 1 471 -32 37 -87 72 -110 69 -4 0 -2
-3 5 -6z"/>
<path d="M13177 11287 c-3 -8 0 -23 8 -34 13 -17 14 -17 20 0 4 9 14 17 22 17
8 0 13 6 11 13 -6 18 -54 21 -61 4z"/>
<path d="M2759 11079 c-66 -68 -119 -129 -119 -136 0 -20 36 -25 97 -14 31 6
72 11 90 11 l34 0 -7 -87 c-6 -88 4 -143 27 -143 6 0 10 14 9 33 -1 17 -2 67
-1 110 1 61 4 77 16 77 8 0 15 7 15 15 0 8 -7 15 -15 15 -9 0 -15 9 -15 23 0
12 -8 53 -19 90 -16 57 -16 69 -5 73 8 2 21 6 30 9 18 6 15 36 -5 43 -8 3 -62
-46 -132 -119z m95 -65 l7 -41 -74 -6 c-41 -4 -83 -10 -93 -13 -10 -4 15 28
56 72 75 79 75 79 86 54 7 -14 15 -43 18 -66z"/>
<path d="M2267 10978 c-4 -105 -4 -194 -2 -197 3 -2 10 0 16 6 12 12 25 317
15 356 -15 62 -23 16 -29 -165z"/>
<path d="M2404 10879 c-8 -14 11 -33 25 -25 16 10 13 36 -3 36 -8 0 -18 -5
-22 -11z"/>
<path d="M8726 10843 c-3 -16 -8 -52 -12 -81 -7 -61 -45 -113 -93 -130 l-29
-10 3 46 c4 66 -15 162 -32 162 -11 0 -12 -14 -7 -67 4 -38 6 -70 6 -73 -1
-81 1 -78 -48 -82 -49 -4 -84 13 -116 54 -12 17 -20 20 -28 12 -13 -13 20 -59
58 -78 35 -17 92 -28 92 -17 0 5 8 7 19 4 16 -4 19 -17 23 -94 4 -89 17 -124
38 -103 8 8 8 19 0 38 -5 15 -10 58 -10 96 0 68 0 68 32 79 18 6 45 24 61 39
l29 27 -8 -80 c-11 -110 -11 -148 1 -152 6 -2 16 12 23 30 13 35 77 117 92
117 5 0 12 -16 16 -35 6 -36 44 -75 72 -75 9 0 29 -12 44 -27 39 -37 131 -45
168 -15 32 26 20 39 -20 22 -37 -15 -107 -8 -129 14 -14 15 -14 16 1 16 28 0
77 49 89 88 14 48 -1 92 -32 92 -33 0 -86 -61 -100 -113 -6 -26 -14 -47 -18
-47 -19 0 -41 29 -51 68 -16 60 -33 63 -86 11 l-44 -43 6 79 c3 44 10 110 15
147 5 37 9 76 9 87 0 31 -28 25 -34 -6z m304 -248 c0 -35 -35 -85 -60 -85 -27
0 -1 76 38 108 22 17 22 16 22 -23z"/>
<path d="M5166 10723 c-12 -170 -12 -171 -57 -175 -51 -4 -51 -22 1 -26 l40
-3 0 -100 c0 -80 3 -99 15 -99 11 0 15 21 17 108 l3 107 55 7 c30 3 71 3 90
-1 35 -7 35 -8 32 -53 -4 -46 18 -108 38 -108 13 0 13 57 0 65 -6 4 -9 30 -8
58 3 51 2 52 -32 64 -22 8 -60 10 -106 7 l-70 -6 11 119 c12 124 12 133 -9
133 -9 0 -15 -28 -20 -97z"/>
<path d="M7810 10769 c0 -22 -5 -49 -10 -60 -6 -10 -14 -49 -17 -85 -7 -72
-31 -112 -84 -139 -31 -16 -86 -20 -107 -6 -21 13 -4 58 36 98 25 25 31 38 23
46 -21 21 -101 -83 -101 -132 0 -59 113 -67 193 -14 l45 31 11 -25 c14 -31 90
-65 138 -61 54 5 55 28 1 28 -50 0 -103 29 -119 64 -9 18 -7 39 5 88 21 85 22
208 1 208 -11 0 -15 -11 -15 -41z"/>
<path d="M9202 10784 c2 -11 11 -20 22 -22 13 -3 17 1 14 14 -2 11 -11 20 -22
22 -13 3 -17 -1 -14 -14z"/>
<path d="M4500 10769 c-36 -5 -100 -15 -143 -24 -58 -12 -82 -13 -92 -5 -10 8
-16 7 -23 -6 -9 -16 -15 -16 -46 -7 -21 7 -38 7 -42 2 -9 -15 4 -26 42 -33
l35 -7 -6 -67 c-5 -49 -12 -71 -26 -82 -66 -50 -65 -49 -49 -59 10 -7 19 -6
31 5 8 7 17 14 20 14 2 0 4 -46 4 -102 0 -85 3 -103 15 -103 12 0 14 13 12 67
-2 37 -1 86 3 109 l7 42 69 -6 c54 -5 69 -3 69 7 0 15 -30 26 -75 26 -55 1
-60 10 -46 88 l12 69 82 16 c45 9 107 19 137 22 84 9 100 14 100 30 0 8 -6 14
-12 14 -7 -1 -42 -5 -78 -10z"/>
<path d="M12045 10692 c-47 -16 -50 -19 -50 -52 0 -35 1 -36 108 -88 59 -29
107 -57 107 -63 0 -27 -100 -34 -187 -13 -18 5 -23 2 -23 -14 0 -32 48 -43
137 -32 75 10 113 29 113 56 0 20 -68 66 -154 104 -42 18 -76 39 -76 47 0 19
46 36 105 38 36 1 50 5 50 16 0 21 -71 22 -130 1z"/>
<path d="M10140 10696 c0 -21 23 -56 36 -56 11 0 14 5 10 16 -3 9 -6 22 -6 30
0 8 -9 14 -20 14 -11 0 -20 -2 -20 -4z"/>
<path d="M11112 10693 c-25 -10 -40 -60 -47 -155 -6 -84 -5 -99 8 -104 24 -9
41 5 27 21 -15 18 3 147 24 181 19 28 27 29 65 9 27 -13 41 -11 41 6 0 11 -69
49 -88 48 -9 0 -23 -3 -30 -6z"/>
<path d="M5383 10664 c-3 -8 0 -21 7 -27 9 -8 14 -9 16 -1 3 6 18 8 34 6 37
-5 40 15 4 28 -36 14 -54 12 -61 -6z"/>
<path d="M11346 10661 c-26 -28 -11 -68 48 -129 49 -51 50 -54 32 -68 -20 -14
-82 -19 -110 -8 -9 3 -16 15 -16 25 0 10 -7 19 -15 19 -23 0 -18 -47 7 -64 13
-9 43 -16 70 -16 97 0 131 43 84 105 -15 19 -31 35 -37 35 -13 0 -49 61 -43
72 3 5 11 5 18 -1 6 -5 17 -7 24 -2 9 5 8 12 -4 29 -19 27 -36 28 -58 3z"/>
<path d="M11670 10664 c-92 -62 -130 -137 -96 -189 15 -23 68 -41 116 -39 58
3 71 5 66 13 -4 5 2 7 11 5 21 -6 62 21 50 32 -4 4 -22 2 -40 -4 -52 -19 -141
-15 -168 6 -31 26 -20 44 37 64 81 28 118 80 82 116 -16 16 -29 15 -58 -4z
m40 -34 c0 -11 -58 -50 -74 -50 -6 0 3 14 19 30 29 30 55 39 55 20z"/>
<path d="M10680 10668 c-4 -63 -21 -180 -31 -201 -16 -36 -31 -23 -73 63 -43
87 -58 110 -73 110 -15 0 -17 -26 -4 -35 5 -3 26 -39 45 -81 44 -92 80 -132
102 -113 28 23 46 71 54 143 5 39 10 80 12 91 2 12 -3 21 -14 23 -10 2 -18 2
-18 0z"/>
<path d="M6119 10637 c-49 -33 -46 -63 11 -103 60 -43 101 -85 97 -98 -2 -6
-15 -17 -29 -23 -20 -10 -35 -9 -82 4 -60 17 -77 13 -60 -15 8 -11 31 -19 70
-24 154 -17 177 81 39 168 -59 38 -62 51 -20 71 35 16 48 43 21 43 -7 0 -28
-10 -47 -23z"/>
<path d="M9424 10652 c-6 -4 -16 -16 -22 -27 -15 -29 -52 -178 -52 -209 0 -37
30 -35 31 2 0 15 10 63 22 107 25 91 42 102 101 66 38 -24 56 -27 56 -8 0 7
-26 27 -59 45 -65 36 -62 35 -77 24z"/>
<path d="M5826 10580 c-33 -30 -35 -30 -41 -10 -5 16 -10 19 -20 10 -8 -6 -13
-19 -13 -28 1 -9 -2 -43 -6 -74 -6 -48 -5 -58 7 -58 9 0 23 20 33 46 20 52 77
118 96 112 7 -3 16 -19 20 -36 5 -18 12 -47 16 -64 6 -26 13 -33 32 -33 13 0
25 6 28 13 2 6 -3 12 -11 12 -10 0 -19 17 -26 51 -6 28 -16 59 -21 70 -16 28
-54 23 -94 -11z"/>
<path d="M7021 10564 c-47 -53 -68 -113 -51 -144 14 -27 38 -25 83 5 l37 26 0
-26 c0 -33 33 -65 67 -65 30 0 93 44 93 66 0 18 -14 18 -30 -1 -14 -16 -75
-21 -85 -6 -3 6 -1 29 4 53 8 33 7 46 -3 56 -12 12 -18 11 -40 -3 -14 -9 -35
-32 -46 -50 -20 -33 -46 -51 -53 -37 -8 15 14 69 43 105 36 42 69 48 102 17
30 -27 47 -10 24 24 -13 21 -24 26 -60 26 -40 0 -48 -4 -85 -46z"/>
<path d="M10851 10575 c-21 -19 -43 -35 -49 -35 -14 0 -23 -28 -12 -35 6 -4
10 -14 10 -24 0 -33 44 -62 113 -74 50 -8 72 -8 91 1 43 19 30 27 -49 29 -130
2 -168 51 -71 92 62 25 79 41 70 65 -11 28 -60 19 -103 -19z"/>
<path d="M7372 10582 c-6 -5 -24 -24 -38 -43 l-25 -34 6 38 c5 22 3 37 -3 37
-23 0 -33 -36 -36 -129 -1 -39 19 -53 28 -19 7 28 73 118 86 118 5 0 15 -18
21 -40 13 -44 42 -80 64 -80 18 0 20 16 4 26 -6 3 -22 32 -36 63 -30 67 -44
80 -71 63z"/>
<path d="M4580 10520 c0 -59 -2 -65 -36 -96 -38 -36 -78 -44 -88 -18 -11 29
-6 67 11 79 15 11 15 15 4 29 -39 46 -72 -79 -35 -132 26 -38 75 -30 129 22
l46 44 -3 62 c-2 40 -8 65 -15 68 -10 3 -13 -13 -13 -58z"/>
<path d="M10159 10558 c-8 -50 3 -189 14 -185 8 2 13 39 15 105 2 83 0 102
-11 102 -8 0 -16 -10 -18 -22z"/>
<path d="M10305 10556 c-27 -27 -65 -98 -65 -121 0 -33 26 -11 53 45 37 79 66
88 100 31 9 -16 17 -44 17 -63 0 -47 11 -79 24 -75 18 6 7 117 -16 155 -35 56
-74 67 -113 28z"/>
<path d="M4896 10529 c-32 -38 -42 -75 -26 -94 38 -46 230 -50 230 -5 0 5 -27
6 -59 3 -60 -6 -115 1 -139 16 -20 12 11 69 43 81 32 12 32 30 1 30 -15 0 -34
-12 -50 -31z"/>
<path d="M9177 10547 c-9 -23 0 -107 13 -122 13 -16 40 -20 40 -7 0 5 -7 23
-16 41 -11 21 -14 44 -10 67 5 26 4 34 -7 34 -8 0 -17 -6 -20 -13z"/>
<path d="M4707 10530 c-24 -19 -67 -94 -67 -118 0 -30 29 -7 49 38 41 91 77
85 90 -14 8 -60 16 -75 30 -60 16 16 -6 124 -30 150 -27 29 -39 30 -72 4z"/>
<path d="M5587 10543 c-12 -11 -8 -22 20 -48 l28 -25 -28 0 c-39 0 -70 18 -63
37 9 22 -3 36 -20 22 -22 -18 -17 -45 13 -69 21 -16 38 -20 77 -18 64 4 69 20
22 71 -36 39 -39 41 -49 30z"/>
<path d="M4665 10170 c-115 -5 -358 -11 -538 -13 -213 -3 -332 -8 -339 -15
-14 -14 1 -35 21 -27 9 4 180 9 381 11 201 3 379 6 395 8 17 2 165 7 330 11
297 7 652 -2 1010 -27 121 -9 788 -12 2310 -13 1355 -1 2224 -6 2370 -13 714
-33 908 -42 1075 -52 102 -6 352 -17 555 -25 204 -8 391 -17 416 -21 63 -9
189 13 189 33 0 12 -9 13 -47 6 -62 -10 -190 -7 -388 11 -88 8 -230 17 -315
21 -85 3 -333 15 -550 26 -564 29 -992 37 -2485 49 -909 7 -1385 7 -1530 0
-115 -5 -428 -10 -695 -10 -453 0 -656 6 -1090 30 -253 15 -831 20 -1075 10z"/>
<path d="M9243 9917 c-40 -59 -47 -76 -44 -104 1 -15 29 -17 50 -4 10 7 11 13
1 30 -10 20 -7 28 24 68 20 26 36 52 36 60 0 29 -27 9 -67 -50z"/>
<path d="M10795 9917 c-14 -24 -25 -55 -25 -70 0 -25 23 -57 40 -57 17 0 20
18 5 30 -21 18 -19 42 10 84 24 35 26 56 5 56 -5 0 -21 -20 -35 -43z"/>
<path d="M10223 9897 c-15 -29 -39 -77 -52 -107 -55 -125 -66 -146 -100 -183
-35 -39 -97 -77 -126 -77 -9 0 -15 9 -15 25 0 30 49 86 99 112 29 16 43 33 26
33 -3 0 -14 0 -25 0 -11 0 -45 -24 -75 -53 -46 -44 -55 -59 -55 -88 0 -19 5
-40 12 -47 29 -29 110 1 173 63 l35 36 0 -40 c0 -23 7 -46 16 -55 18 -19 20
-19 45 -5 23 12 16 29 -12 29 -16 0 -19 7 -19 50 0 62 19 118 81 245 54 110
55 115 35 115 -8 0 -27 -24 -43 -53z"/>
<path d="M10696 9894 c-14 -31 -26 -65 -26 -75 0 -29 20 -33 44 -10 17 17 18
23 8 30 -11 7 -10 16 6 47 19 38 19 64 2 64 -5 0 -20 -25 -34 -56z"/>
<path d="M9309 9869 c-28 -56 -32 -89 -12 -89 7 0 73 131 73 144 0 3 -7 6 -15
6 -8 0 -29 -27 -46 -61z"/>
<path d="M7775 9910 c-4 -6 -4 -29 0 -51 4 -22 1 -68 -6 -103 l-12 -64 -50 -8
c-28 -5 -52 -15 -55 -23 -4 -11 5 -13 48 -8 l53 6 -7 -68 c-6 -73 -1 -101 18
-101 8 0 12 27 14 82 1 45 6 86 11 91 4 4 41 11 81 14 l73 6 -36 -48 c-69 -89
-36 -141 74 -115 56 14 109 57 109 89 0 30 -36 97 -55 105 -9 3 -22 3 -28 -1
-7 -5 -58 -8 -115 -8 l-103 0 7 30 c13 48 11 178 -3 182 -6 2 -14 -1 -18 -7z
m263 -242 c40 -51 12 -99 -69 -118 -75 -18 -90 4 -42 61 25 29 79 69 94 69 4
0 11 -6 17 -12z"/>
<path d="M6055 9901 c-3 -6 -3 -16 1 -22 4 -6 -4 -53 -17 -104 l-23 -93 -39 6
c-50 6 -48 -18 2 -30 l32 -9 -7 -57 c-3 -31 -7 -61 -8 -67 0 -5 6 -10 14 -10
11 0 18 19 25 70 l10 70 63 3 62 3 -25 -37 c-27 -40 -33 -82 -12 -90 7 -2 43
9 80 26 83 38 107 39 107 5 0 -35 24 -31 41 7 27 62 98 68 137 11 32 -47 54
-65 64 -55 18 18 -48 99 -96 117 -39 15 -46 15 -79 1 -21 -8 -37 -19 -37 -23
0 -5 -18 -7 -39 -5 -28 3 -57 -4 -97 -22 -31 -15 -59 -25 -61 -23 -2 2 10 24
27 48 44 66 42 69 -51 69 -72 0 -80 2 -75 18 22 74 37 148 34 170 -3 27 -22
40 -33 23z"/>
<path d="M11568 9891 c-26 -21 -39 -56 -59 -158 l-11 -62 -77 -3 c-59 -2 -76
-6 -76 -18 0 -12 13 -14 72 -12 l73 4 -11 -29 c-5 -15 -23 -55 -39 -88 -20
-41 -26 -63 -19 -70 15 -14 33 14 66 99 14 39 30 75 33 79 4 4 39 11 78 15
l71 8 -37 -40 c-21 -23 -44 -56 -51 -74 -12 -29 -12 -35 1 -49 20 -19 42 -8
106 51 32 29 53 41 75 41 17 0 34 7 41 17 15 24 7 27 -41 19 -29 -6 -57 -22
-94 -55 -28 -26 -54 -45 -56 -42 -17 16 71 114 124 139 21 9 30 45 10 40 -11
-2 -137 -21 -180 -27 l-38 -5 7 37 c14 84 34 148 51 159 20 15 59 17 68 3 10
-17 25 -11 25 9 0 35 -72 43 -112 12z"/>
<path d="M12485 9873 c-9 -20 -25 -70 -37 -110 -19 -64 -24 -73 -49 -78 -33
-7 -46 -22 -31 -37 7 -7 16 -6 30 1 20 10 20 9 7 -37 -7 -26 -20 -65 -29 -86
-12 -28 -13 -43 -6 -50 15 -15 25 4 51 89 12 39 25 77 29 85 8 16 86 26 127
15 l23 -5 -21 -56 c-13 -35 -18 -59 -12 -65 6 -6 14 -5 20 3 13 17 43 106 43
129 0 20 -37 29 -117 29 -44 0 -54 3 -50 14 3 8 11 34 17 58 7 24 21 60 31 80
23 45 24 58 4 58 -8 0 -22 -17 -30 -37z"/>
<path d="M6777 9868 c-2 -7 1 -20 6 -29 6 -9 7 -39 3 -71 -7 -54 -7 -54 -48
-64 -58 -13 -66 -39 -10 -30 l41 6 -6 -37 c-3 -21 -12 -58 -19 -83 -14 -48
-13 -55 10 -47 8 3 21 37 32 84 9 43 22 81 28 85 6 4 27 7 47 6 20 -1 41 2 48
6 22 14 0 26 -49 26 l-49 0 6 54 c3 30 3 66 -1 80 -7 27 -31 35 -39 14z"/>
<path d="M3015 9850 c-4 -6 -11 -59 -17 -118 -14 -162 -11 -153 -65 -150 -67
4 -69 -19 -3 -28 l52 -7 -6 -43 c-3 -24 -8 -55 -12 -69 -4 -18 -2 -25 9 -25
19 0 25 17 33 86 l7 54 56 0 c55 0 92 12 78 26 -4 4 -42 7 -84 6 -43 0 -71 2
-61 4 12 4 17 20 20 65 1 33 -1 65 -7 71 -7 7 -6 9 1 5 15 -8 30 111 16 125
-6 6 -12 6 -17 -2z"/>
<path d="M12672 9798 c3 -32 28 -53 28 -23 0 9 4 14 9 10 19 -11 24 18 6 32
-32 23 -47 16 -43 -19z"/>
<path d="M13354 9800 c-42 -17 -39 -52 12 -113 32 -39 30 -70 -6 -100 -28 -24
-70 -27 -70 -6 0 5 -7 9 -16 9 -26 0 -12 -43 18 -58 26 -12 32 -10 72 17 67
46 75 93 26 157 -16 21 -30 44 -30 51 0 15 32 25 53 18 20 -8 34 15 16 26 -17
11 -47 10 -75 -1z"/>
<path d="M4780 9778 c0 -35 16 -56 31 -41 10 10 10 18 1 38 -14 31 -32 33 -32
3z"/>
<path d="M3735 9770 c-4 -7 -1 -19 8 -27 11 -12 19 -13 36 -4 24 13 28 31 7
31 -8 0 -21 3 -29 6 -8 3 -18 0 -22 -6z"/>
<path d="M2827 9764 c-10 -10 12 -44 28 -44 18 0 20 21 3 38 -13 13 -22 15
-31 6z"/>
<path d="M12970 9729 c0 -18 -15 -60 -35 -96 -40 -73 -40 -73 -21 -73 8 0 36
27 61 59 46 58 109 111 133 111 16 0 15 -33 -3 -77 -20 -49 -20 -75 3 -71 9 2
18 12 19 23 1 11 9 43 16 70 18 60 8 85 -32 85 -15 0 -46 -13 -69 -30 l-41
-29 -3 26 c-5 40 -28 42 -28 2z"/>
<path d="M9470 9720 c-7 -17 -47 -61 -88 -98 -110 -98 -114 -102 -107 -120 4
-12 16 -6 58 34 29 27 66 62 84 78 l31 28 -15 -51 c-15 -51 -13 -81 6 -81 5 0
31 17 58 39 l49 38 -4 -32 c-4 -37 12 -75 33 -75 23 0 29 22 10 36 -21 15 -16
57 16 131 32 76 5 104 -31 33 -24 -47 -102 -129 -107 -113 -2 6 8 41 22 78 14
37 25 76 25 86 0 30 -26 22 -40 -11z"/>
<path d="M10400 9728 c0 -7 -25 -26 -56 -43 -103 -55 -142 -126 -89 -161 19
-13 37 -15 76 -10 161 22 214 107 126 204 -22 24 -57 30 -57 10z m47 -76 c12
-28 10 -34 -13 -61 -18 -22 -39 -33 -79 -41 -142 -30 -122 44 35 127 33 17 41
13 57 -25z"/>
<path d="M12851 9731 c-10 -6 -12 -23 -7 -67 8 -74 0 -86 -50 -82 -34 3 -39 6
-39 28 0 18 9 29 32 40 36 17 44 40 14 40 -32 0 -81 -48 -81 -79 0 -40 28 -61
83 -61 63 0 82 28 73 104 -5 44 -3 55 10 60 8 3 12 10 9 16 -8 12 -25 13 -44
1z"/>
<path d="M12130 9704 c-25 -14 -53 -35 -63 -47 -10 -13 -15 -16 -12 -6 8 20
-20 49 -46 49 -52 0 -179 -86 -179 -121 0 -27 9 -24 58 21 38 36 99 70 123 70
21 0 6 -39 -35 -91 -51 -65 -68 -94 -59 -103 12 -12 19 -5 73 71 44 61 56 72
58 55 2 -12 13 -29 25 -37 36 -25 157 -16 157 12 0 11 -13 12 -63 7 -52 -5
-65 -3 -77 11 -10 12 -11 21 -3 33 16 26 73 62 99 62 27 0 33 25 8 34 -20 7
-12 10 -64 -20z"/>
<path d="M4709 9673 c-25 -58 -34 -149 -20 -187 17 -42 26 -23 27 57 1 72 23
147 43 147 6 0 8 7 5 15 -11 28 -35 15 -55 -32z"/>
<path d="M5250 9672 c-21 -21 -43 -36 -50 -34 -8 3 -10 -3 -5 -17 4 -14 3 -21
-6 -19 -7 2 -17 -21 -25 -57 -8 -33 -26 -99 -40 -147 -26 -83 -27 -118 -4
-118 14 0 27 35 50 141 10 49 33 118 50 154 47 99 120 138 120 64 0 -25 -10
-42 -46 -76 -31 -30 -51 -42 -63 -38 -21 6 -38 -22 -22 -38 15 -15 52 3 102
50 56 52 77 100 58 135 -27 51 -68 51 -119 0z"/>
<path d="M9773 9690 c-19 -11 -35 -15 -38 -10 -11 18 -20 10 -54 -46 -46 -77
-34 -101 22 -42 47 50 94 84 104 74 3 -3 2 -32 -4 -64 -10 -55 -4 -92 16 -92
15 0 25 169 11 185 -16 19 -19 19 -57 -5z"/>
<path d="M5430 9650 c-47 -47 -52 -82 -16 -105 30 -20 94 -11 139 19 43 29 44
47 7 90 -44 50 -77 49 -130 -4z m95 -6 c49 -32 35 -57 -43 -75 -68 -15 -79 7
-30 58 37 38 40 39 73 17z"/>
<path d="M5739 9663 c-40 -45 -99 -138 -99 -156 0 -36 27 -13 73 64 35 58 53
79 64 75 25 -10 35 5 17 25 -22 25 -26 24 -55 -8z"/>
<path d="M4894 9623 c-27 -32 -57 -64 -66 -71 -10 -7 -18 -20 -18 -28 0 -28
29 -13 74 39 45 51 46 52 40 20 -8 -42 2 -83 21 -83 8 0 28 21 46 47 30 43 33
45 46 27 8 -11 13 -36 11 -59 -2 -30 1 -40 12 -40 20 0 26 67 9 106 -15 37
-55 49 -74 23 -44 -62 -45 -62 -38 -14 16 105 4 112 -63 33z"/>
<path d="M3866 9635 c-43 -44 -45 -66 -8 -95 81 -63 78 -59 62 -70 -19 -13
-70 -13 -70 0 0 14 -33 13 -47 -1 -24 -24 -2 -39 59 -39 49 0 63 4 84 25 31
31 22 54 -38 87 -23 13 -43 29 -46 36 -2 7 11 26 29 43 23 21 29 33 21 41 -7
7 -21 -1 -46 -27z"/>
<path d="M2796 9603 c-27 -54 -49 -140 -42 -167 8 -34 32 -28 28 7 -2 25 32
131 50 154 10 13 3 33 -12 33 -5 0 -16 -12 -24 -27z"/>
<path d="M3701 9582 c-24 -51 -26 -112 -3 -120 8 -2 12 8 12 35 0 21 9 53 20
71 23 38 26 62 7 62 -8 0 -24 -22 -36 -48z"/>
<path d="M6630 9118 c1 -7 26 -40 56 -73 66 -70 104 -144 104 -200 0 -48 -47
-186 -81 -237 -13 -20 -35 -56 -49 -78 -14 -23 -35 -46 -47 -51 -13 -5 -23
-17 -23 -28 0 -52 52 -27 106 51 47 69 116 252 122 326 4 55 1 69 -26 125 -18
34 -57 88 -88 120 -55 57 -74 68 -74 45z"/>
<path d="M5800 9051 c-22 -23 -42 -58 -51 -87 -13 -49 -16 -151 -4 -204 l6
-29 -97 -3 c-67 -2 -99 -7 -102 -15 -3 -10 18 -13 80 -13 122 0 126 -2 134
-66 9 -72 -11 -154 -37 -154 -21 0 -25 -20 -7 -38 23 -23 37 -12 58 46 18 46
21 70 17 130 -5 69 -4 73 14 67 25 -8 61 4 56 18 -2 6 -12 12 -23 13 -60 3
-62 4 -68 37 -11 58 -9 161 5 206 13 44 58 101 79 101 6 0 22 -25 35 -55 37
-82 63 -71 29 11 -35 85 -68 94 -124 35z"/>
<path d="M6221 9012 c-59 -61 -104 -143 -142 -255 -46 -136 -12 -244 94 -299
41 -21 78 -21 85 0 2 7 -6 12 -20 12 -14 0 -45 13 -70 30 -90 60 -101 154 -36
312 35 85 96 183 128 203 8 6 24 12 35 15 25 7 26 34 1 38 -12 3 -37 -16 -75
-56z"/>
<path d="M7780 8905 c-8 -9 -33 -29 -56 -44 -27 -19 -52 -50 -77 -99 -45 -86
-49 -141 -13 -177 33 -32 66 -39 139 -29 56 8 62 11 62 33 0 13 -6 26 -12 29
-7 2 -13 -3 -13 -12 0 -23 -132 -23 -154 0 -34 33 -7 128 56 199 l33 39 5 -44
c3 -24 10 -45 16 -47 7 -2 28 12 49 31 33 31 37 40 31 68 -6 30 -31 68 -45 68
-4 0 -13 -7 -21 -15z m30 -85 c-6 -11 -15 -20 -20 -20 -14 0 -12 44 2 58 18
18 32 -12 18 -38z"/>
<path d="M6266 8835 c-3 -10 1 -18 12 -21 46 -15 62 -25 62 -40 0 -27 -39 -82
-71 -101 -30 -18 -39 -43 -15 -43 8 0 24 8 37 19 23 18 23 18 42 -5 20 -26 40
-28 106 -11 30 8 45 18 47 30 2 13 -2 17 -13 12 -46 -17 -107 -25 -117 -15
-12 12 37 120 54 120 5 0 10 7 10 15 0 18 -26 20 -36 3 -5 -8 -10 -7 -18 4
-12 16 -68 48 -84 48 -6 0 -13 -7 -16 -15z"/>
<path d="M3471 8775 c-22 -20 -46 -52 -53 -71 -8 -23 -19 -34 -33 -35 -45 -3
-50 -5 -50 -19 0 -10 10 -15 31 -14 29 2 32 -1 38 -36 4 -25 15 -46 32 -59 31
-25 64 -27 64 -6 0 8 -7 15 -15 15 -25 0 -55 38 -55 69 0 24 9 33 57 62 65 39
94 79 77 106 -19 31 -50 27 -93 -12z m69 -2 c-1 -23 -75 -82 -87 -70 -7 8 61
77 76 77 6 0 11 -3 11 -7z"/>
<path d="M6945 8790 c-9 -14 9 -18 95 -23 41 -2 83 -7 93 -11 12 -6 17 -4 17
8 0 9 -12 21 -26 26 -33 13 -171 13 -179 0z"/>
<path d="M3812 8755 c-17 -15 -23 -27 -19 -40 8 -19 13 -18 90 11 48 19 49 19
63 0 15 -21 19 -122 6 -142 -4 -6 -23 -15 -42 -19 -19 -4 -51 -18 -71 -32 -37
-24 -89 -106 -89 -139 0 -42 22 -95 46 -111 23 -15 28 -15 59 0 80 38 137 171
137 322 1 86 -18 164 -39 166 -84 8 -117 5 -141 -16z m143 -247 c-20 -93 -65
-171 -112 -197 -16 -8 -24 -7 -35 7 -25 29 -27 48 -11 101 20 69 78 116 146
120 16 1 18 -4 12 -31z"/>
<path d="M7002 8705 c-71 -14 -77 -18 -68 -41 5 -14 9 -14 22 -3 9 8 50 14
102 16 48 1 88 7 90 12 3 8 -63 33 -78 30 -3 -1 -33 -7 -68 -14z"/>
<path d="M7999 8663 c-1 -5 0 -24 1 -44 3 -71 -16 -111 -84 -178 -61 -61 -67
-64 -91 -53 -34 15 -55 15 -55 0 1 -18 70 -49 87 -40 35 20 138 131 154 167
24 51 26 155 4 155 -8 0 -15 -3 -16 -7z"/>
<path d="M4122 8618 c-14 -14 -16 -38 -3 -38 6 0 13 5 16 10 3 6 15 10 26 10
10 0 19 7 19 15 0 18 -41 20 -58 3z"/>
<path d="M3604 8579 c-11 -18 13 -34 31 -19 8 7 15 16 15 21 0 13 -38 11 -46
-2z"/>
<path d="M8531 8151 c-26 -26 -40 -78 -47 -178 l-7 -83 -69 0 c-51 0 -69 -3
-66 -12 3 -8 29 -14 73 -16 l68 -3 -7 -54 c-8 -67 -14 -85 -32 -85 -19 0 -18
-14 2 -30 24 -21 42 7 58 89 15 76 25 91 63 91 12 0 34 5 49 10 15 6 28 9 30
8 1 -2 -7 -31 -18 -65 -23 -71 -19 -110 15 -122 24 -10 59 6 90 41 21 25 26
173 5 166 -8 -3 -14 -29 -16 -70 -2 -54 -7 -69 -27 -88 -14 -14 -30 -20 -40
-16 -20 7 -14 45 16 115 31 72 24 87 -32 70 -19 -5 -53 -13 -76 -18 -38 -7
-42 -6 -47 14 -5 21 -2 65 10 145 11 72 59 103 99 64 13 -13 19 -14 28 -5 9
10 7 17 -12 32 -30 25 -85 25 -110 0z"/>
<path d="M9387 8128 c-3 -13 -11 -65 -18 -115 l-12 -93 -51 0 c-28 0 -57 -4
-65 -9 -27 -17 -1 -28 55 -23 l57 5 -6 -34 c-18 -105 -19 -149 -4 -149 15 0
19 12 33 128 l6 54 47 -6 c25 -4 58 -9 74 -12 16 -3 28 -1 29 5 0 6 1 16 2 22
1 7 -24 12 -67 14 -37 1 -70 5 -73 8 -5 5 4 86 22 195 4 24 1 32 -9 32 -8 0
-17 -10 -20 -22z"/>
<path d="M4974 8090 c-46 -48 -72 -111 -81 -192 l-6 -59 -46 6 c-25 4 -53 9
-63 11 -20 6 -35 -15 -18 -26 7 -4 38 -11 70 -14 67 -8 69 -10 77 -108 4 -51
10 -68 21 -68 13 0 14 13 9 80 l-6 80 67 0 c79 0 109 7 116 26 4 12 -12 13
-96 7 l-101 -6 6 55 c8 85 27 136 67 181 32 36 40 40 53 29 9 -8 17 -25 19
-39 5 -41 28 -41 28 -1 0 39 -30 78 -60 78 -10 0 -35 -18 -56 -40z"/>
<path d="M3217 8028 c-20 -127 -27 -167 -33 -183 -5 -13 -4 -16 4 -11 17 10
15 -5 -2 -18 -17 -13 -59 -144 -50 -157 12 -20 32 -4 87 71 31 44 61 80 66 80
5 0 14 -15 21 -34 17 -52 42 -70 89 -62 25 4 42 2 46 -5 9 -14 103 -2 134 18
28 18 14 41 -15 25 -29 -15 -92 -24 -98 -14 -3 5 6 19 19 30 31 27 39 60 25
96 l-11 29 -34 -33 c-19 -18 -41 -52 -48 -74 -10 -29 -20 -42 -35 -44 -18 -3
-26 6 -43 45 -11 26 -25 51 -31 54 -20 13 -58 -14 -89 -63 -36 -56 -47 -57
-24 -2 8 21 22 74 30 118 8 45 19 96 24 115 11 37 7 51 -13 51 -8 0 -16 -15
-19 -32z m259 -224 c-10 -14 -20 -23 -23 -20 -3 3 2 17 11 32 10 14 20 23 23
20 3 -3 -2 -17 -11 -32z"/>
<path d="M9596 8033 c-13 -13 -5 -30 21 -42 39 -18 51 2 15 27 -16 12 -32 19
-36 15z"/>
<path d="M11866 8009 c-2 -8 -18 -66 -35 -128 -33 -120 -55 -156 -114 -188
-36 -18 -57 -11 -57 21 0 67 61 143 123 153 44 7 45 27 1 31 -64 6 -142 -79
-152 -163 -10 -95 59 -113 140 -38 l27 25 15 -35 c17 -43 56 -70 98 -69 37 1
74 30 57 46 -8 8 -13 7 -16 -1 -6 -16 -57 -17 -83 -3 -11 6 -25 28 -31 50 -10
33 -9 46 4 77 9 21 25 77 36 125 16 74 17 89 5 99 -10 9 -15 8 -18 -2z"/>
<path d="M12743 8007 c-4 -8 -30 -24 -56 -38 -81 -39 -141 -124 -130 -181 3
-14 16 -37 30 -50 23 -21 32 -23 123 -21 115 2 177 16 177 39 0 11 -6 14 -21
9 -41 -11 -189 -24 -220 -18 -43 8 -56 21 -56 56 0 40 32 89 77 119 65 42 73
42 73 3 0 -44 16 -53 45 -25 36 34 37 57 5 90 -33 34 -36 35 -47 17z m34 -69
c-3 -8 -6 -5 -6 6 -1 11 2 17 5 13 3 -3 4 -12 1 -19z"/>
<path d="M5680 7985 c0 -18 5 -25 18 -25 28 0 34 11 15 32 -22 25 -33 23 -33
-7z"/>
<path d="M6717 8000 c-79 -24 -75 -75 17 -196 13 -16 -10 -44 -35 -44 -12 0
-24 11 -30 27 -9 24 -11 25 -25 11 -15 -14 -14 -19 7 -47 27 -36 42 -38 87
-11 42 26 42 57 -2 115 -59 76 -57 106 6 119 24 5 37 1 54 -15 23 -22 39 -13
28 16 -7 16 -44 36 -67 34 -7 0 -25 -5 -40 -9z"/>
<path d="M13694 7996 c-7 -19 3 -36 22 -36 10 0 14 8 12 22 -4 26 -26 36 -34
14z"/>
<path d="M9977 7911 c-33 -30 -46 -38 -55 -29 -14 14 -27 -13 -18 -37 3 -8 2
-15 -2 -15 -6 0 -16 -24 -39 -92 -10 -33 27 -20 42 15 8 17 39 59 70 92 52 56
56 58 51 30 -18 -91 -18 -131 -3 -143 47 -39 210 13 182 58 -4 6 -18 1 -35
-12 -17 -12 -50 -23 -81 -26 l-52 -5 8 49 c5 27 9 71 9 99 1 65 -19 70 -77 16z"/>
<path d="M2866 7900 c-51 -30 -78 -64 -69 -87 8 -20 33 -16 33 5 0 11 8 25 18
33 28 24 91 54 98 46 4 -3 -19 -47 -50 -98 -31 -50 -56 -97 -56 -105 0 -21 19
-17 41 9 11 13 18 17 19 9 0 -8 7 -29 16 -48 18 -38 46 -44 93 -20 37 20 101
92 101 115 0 10 3 39 6 65 4 29 3 46 -4 46 -13 0 -32 -54 -32 -91 0 -35 -47
-91 -91 -110 -28 -11 -33 -11 -46 7 -21 28 -11 119 20 177 14 26 23 55 20 63
-9 23 -64 16 -117 -16z"/>
<path d="M7157 7910 c-14 -11 -31 -20 -39 -20 -13 0 -48 -105 -48 -144 0 -29
21 -17 36 21 18 43 70 109 92 118 15 5 15 -5 0 -120 -5 -35 20 -21 65 37 42
54 45 56 51 34 3 -14 21 -31 44 -42 24 -12 36 -25 34 -35 -2 -9 8 -29 21 -45
22 -25 31 -28 80 -27 66 2 83 9 67 28 -8 10 -6 15 9 20 21 6 27 20 13 29 -12
7 -74 -23 -67 -34 4 -6 -9 -10 -34 -10 -28 0 -43 5 -49 18 -13 24 -4 42 21 42
35 0 87 38 103 75 15 36 10 65 -11 65 -19 0 -87 -48 -118 -83 -27 -31 -28 -31
-55 -16 -23 13 -27 21 -27 59 0 25 -5 45 -12 47 -7 2 -28 -18 -48 -46 -20 -28
-38 -51 -38 -51 -1 0 -2 16 -3 36 0 24 -7 42 -19 50 -25 19 -38 18 -68 -6z
m373 -40 c0 -13 -38 -47 -60 -53 -27 -7 -15 14 23 40 38 26 37 26 37 13z"/>
<path d="M5652 7898 c-5 -13 -6 -62 -4 -110 3 -67 7 -88 18 -88 11 0 14 22 14
110 0 107 -10 139 -28 88z"/>
<path d="M6891 7863 c-48 -66 -52 -98 -16 -115 33 -15 71 -2 97 33 20 26 20
27 -1 67 -12 23 -21 48 -21 57 0 28 -19 15 -59 -42z m59 -55 c0 -24 -46 -46
-62 -30 -8 8 -5 20 13 47 22 31 25 33 37 18 6 -9 12 -25 12 -35z"/>
<path d="M13767 7890 c-66 -41 -62 -76 14 -115 16 -9 29 -22 29 -30 0 -15 -42
-31 -57 -22 -14 9 -36 -9 -29 -22 13 -20 73 -12 102 12 35 31 26 59 -28 89
-23 13 -43 29 -46 35 -2 7 17 23 42 35 25 12 46 28 46 35 0 21 -22 15 -73 -17z"/>
<path d="M9083 7880 c-85 -49 -108 -103 -56 -137 37 -24 151 -23 189 2 33 22
18 43 -17 24 -36 -19 -135 -17 -155 2 -12 13 -14 21 -5 36 9 18 89 64 134 77
9 3 17 10 17 16 0 20 -56 9 -107 -20z"/>
<path d="M9725 7879 c-11 -11 -28 -27 -38 -36 -24 -23 -39 -81 -26 -104 13
-26 58 -24 100 4 39 26 46 52 28 113 -15 49 -32 55 -64 23z m34 -48 c31 -20
-14 -81 -59 -81 -15 0 -12 43 6 68 16 23 31 27 53 13z"/>
<path d="M11268 7875 c-40 -27 -78 -82 -78 -112 0 -57 74 -51 147 11 l40 35
-2 -53 c-1 -30 1 -59 5 -66 11 -17 30 -3 30 22 0 31 41 98 61 98 30 0 42 -27
36 -80 -4 -36 -3 -50 6 -50 15 0 77 55 77 69 0 15 -18 23 -25 11 -9 -15 -25
-2 -25 20 0 20 -53 70 -75 70 -8 0 -24 -10 -36 -22 -21 -23 -21 -23 -15 -2 4
12 2 34 -4 49 -10 26 -12 27 -29 11 -16 -15 -19 -15 -31 -1 -18 21 -40 19 -82
-10z m80 -43 c-2 -9 -21 -28 -43 -44 -83 -57 -111 -32 -42 38 40 40 48 44 67
34 12 -6 20 -19 18 -28z"/>
<path d="M5783 7879 c-12 -4 -27 -17 -33 -28 -15 -29 2 -57 48 -77 35 -15 36
-16 18 -30 -26 -18 -36 -18 -36 2 0 23 -24 11 -28 -14 -5 -36 30 -45 69 -19
54 37 49 79 -12 92 -34 8 -40 40 -9 50 20 6 26 20 13 28 -5 3 -18 1 -30 -4z"/>
<path d="M8860 7823 c-32 -31 -52 -60 -56 -80 -10 -51 21 -42 55 15 38 60 57
82 76 82 12 0 15 -15 15 -76 0 -56 3 -75 13 -72 16 6 29 122 17 154 -16 41
-62 33 -120 -23z"/>
<path d="M13646 7854 c-10 -26 -7 -104 4 -104 6 0 13 -1 16 -2 4 -2 8 25 9 60
2 45 -1 62 -10 62 -7 0 -16 -7 -19 -16z"/>
<path d="M3750 7837 c0 -14 -4 -15 -24 -6 -30 14 -87 -11 -106 -46 -19 -35
-19 -110 -1 -110 15 0 44 72 35 87 -10 16 18 38 50 38 43 0 76 24 59 41 -11
11 -13 10 -13 -4z"/>
<path d="M3837 7830 c-32 -25 -52 -82 -39 -107 21 -38 50 -55 98 -56 36 -2 49
2 51 13 3 11 -7 15 -43 16 -27 1 -52 8 -62 18 -15 15 -15 16 4 16 29 0 94 48
94 70 0 47 -59 65 -103 30z m70 -25 c3 -11 -47 -45 -66 -45 -17 0 -13 18 10
41 20 20 49 23 56 4z"/>
<path d="M9561 7818 c-21 -56 -23 -88 -6 -94 21 -8 21 -8 29 59 5 39 4 57 -4
57 -6 0 -14 -10 -19 -22z"/>
<path d="M10427 7683 c-20 -33 -43 -122 -36 -141 12 -32 41 -29 33 3 -6 24 11
84 28 95 4 3 5 16 1 28 -5 22 -18 29 -26 15z"/>
<path d="M6385 7577 c-4 -31 -4 -74 0 -98 l7 -42 -66 6 c-52 5 -66 3 -66 -7 0
-17 31 -26 87 -26 23 0 45 -6 49 -12 5 -7 11 -44 14 -82 3 -46 10 -71 19 -74
11 -4 12 12 10 78 l-4 82 80 -4 c63 -2 80 0 80 11 0 10 -21 15 -80 18 -44 3
-84 9 -89 14 -10 9 -14 143 -6 168 3 8 -2 16 -12 18 -13 3 -18 -7 -23 -50z"/>
<path d="M5534 7566 c-3 -8 -4 -20 -3 -27 2 -8 -1 -40 -5 -71 l-7 -58 -65 0
c-47 0 -64 -4 -64 -14 0 -15 79 -30 106 -19 21 8 34 -13 34 -58 0 -37 22 -79
33 -62 4 5 3 34 -2 62 l-8 53 60 -4 c38 -2 62 1 64 8 4 13 -28 24 -72 24 -52
1 -58 10 -46 73 12 55 7 107 -10 107 -5 0 -12 -6 -15 -14z"/>
<path d="M2780 7512 c-51 -25 -48 -56 10 -100 54 -41 64 -56 56 -86 -6 -26
-48 -48 -71 -39 -12 4 -14 13 -10 34 5 22 3 29 -8 29 -34 0 -36 -64 -2 -86 31
-20 68 -12 101 21 47 48 26 100 -67 167 -20 15 -22 19 -9 28 22 14 56 12 74
-5 19 -19 36 -19 36 0 0 13 -54 55 -70 55 -3 0 -21 -8 -40 -18z"/>
<path d="M5226 7520 c-61 -19 -85 -70 -48 -103 9 -8 43 -27 75 -42 31 -15 57
-33 57 -40 0 -31 -104 -38 -125 -8 -13 17 -14 17 -21 -1 -9 -23 26 -56 60 -56
31 0 89 18 111 34 32 23 6 60 -67 97 -59 30 -77 44 -78 61 0 15 47 32 100 34
38 2 55 7 55 16 0 16 -76 21 -119 8z"/>
<path d="M3419 7487 c-9 -7 -26 -27 -37 -45 l-20 -33 -18 38 c-14 28 -26 39
-47 41 -24 3 -30 -2 -47 -40 -34 -74 -20 -173 17 -123 14 21 18 65 4 65 -12 0
-1 47 14 60 19 16 37 -13 43 -70 2 -28 10 -50 16 -50 6 0 26 26 44 59 17 32
39 64 47 71 13 11 15 5 15 -42 0 -64 11 -78 62 -78 26 0 38 -4 38 -14 0 -28
48 -55 88 -49 77 12 85 46 9 37 -50 -6 -53 -5 -65 20 -10 22 -9 27 8 36 27 14
42 47 35 71 -11 33 -47 20 -71 -26 -15 -29 -27 -41 -47 -43 -26 -3 -27 -2 -27
50 0 71 -23 94 -61 65z"/>
<path d="M3005 7450 c-3 -5 -4 -14 -1 -19 3 -4 -4 -17 -15 -27 -12 -10 -27
-31 -35 -47 -14 -25 -13 -29 11 -53 23 -23 31 -25 78 -19 59 8 110 33 115 57
2 11 -21 35 -65 67 -73 54 -78 56 -88 41z m102 -92 c13 -15 13 -17 -4 -26 -27
-14 -88 -23 -107 -16 -23 9 -20 28 10 63 26 31 26 31 56 14 16 -10 36 -26 45
-35z"/>
<path d="M4838 7403 c-24 -21 -45 -38 -46 -39 -2 -1 -6 -21 -9 -43 -7 -53 11
-54 32 -4 20 47 53 83 76 83 20 0 39 -47 39 -100 0 -34 19 -67 32 -55 8 8 -2
93 -14 135 -11 36 -33 59 -55 60 -7 0 -32 -17 -55 -37z"/>
<path d="M4371 7403 c-12 -14 -24 -36 -27 -49 -14 -55 59 -118 114 -98 14 5
27 15 30 22 3 10 -4 12 -31 7 -30 -6 -40 -3 -61 18 -23 23 -24 29 -15 56 12
34 50 51 73 32 18 -15 27 -2 15 20 -16 30 -73 25 -98 -8z"/>
<path d="M5745 7397 c-62 -62 -38 -127 47 -127 20 0 48 4 62 10 22 8 25 6 28
-18 5 -41 34 -40 47 1 16 46 38 65 89 73 50 8 62 -8 38 -55 -21 -40 -21 -101
-1 -101 10 0 15 10 15 33 1 17 7 43 15 57 23 40 19 79 -9 91 -41 19 -115 2
-148 -33 l-28 -30 0 31 c0 21 -5 31 -15 31 -8 0 -15 -4 -15 -10 0 -35 -69 -61
-114 -44 -37 14 -4 79 47 92 38 10 39 26 2 30 -18 2 -35 -6 -60 -31z"/>
<path d="M4574 7356 c-39 -39 -43 -65 -14 -91 16 -14 29 -16 74 -11 31 4 66
16 78 26 l23 18 -48 46 c-26 25 -54 46 -63 46 -9 0 -31 -15 -50 -34z m82 -27
c19 -11 32 -24 29 -29 -3 -4 -26 -11 -51 -15 -58 -8 -74 4 -50 39 20 31 29 32
72 5z"/>
<path d="M8026 7331 c-4 -6 -2 -56 4 -112 5 -56 10 -105 10 -110 0 -5 7 -9 15
-9 18 0 19 24 4 140 -10 84 -20 112 -33 91z"/>
<path d="M13953 7318 c-16 -22 -53 -120 -59 -157 -3 -23 0 -43 9 -55 14 -19
16 -19 41 -3 29 20 26 41 -5 32 -17 -6 -18 -2 -13 27 4 18 19 60 35 93 26 56
29 75 10 75 -5 0 -13 -6 -18 -12z"/>
<path d="M12666 7278 c-30 -100 -34 -223 -8 -223 10 0 14 21 15 78 1 42 -1 77
-5 77 -10 0 3 32 19 48 14 14 9 32 -8 32 -5 0 -11 -6 -13 -12z"/>
<path d="M14021 7216 c-50 -77 -55 -126 -17 -152 29 -19 71 -15 71 6 0 9 -7
14 -18 12 -25 -4 -47 16 -47 42 0 11 18 47 40 80 36 53 42 76 21 76 -5 0 -27
-29 -50 -64z"/>
<path d="M13441 7256 c-9 -10 -11 -28 -7 -50 11 -57 8 -198 -4 -248 -13 -51
-51 -93 -92 -103 -26 -7 -28 -5 -28 22 0 37 46 99 83 112 32 12 36 31 7 31
-51 0 -120 -82 -120 -142 0 -45 20 -62 62 -54 96 19 130 96 132 295 1 130 -8
167 -33 137z"/>
<path d="M6714 7246 c-8 -21 16 -40 30 -26 7 7 4 16 -7 27 -15 15 -17 15 -23
-1z"/>
<path d="M12572 7208 c-23 -114 -24 -128 -7 -134 9 -4 23 0 32 8 12 13 12 19
2 35 -9 16 -10 30 -1 66 15 60 15 77 -1 77 -9 0 -18 -21 -25 -52z"/>
<path d="M11470 7193 c0 -5 7 -30 15 -57 8 -27 15 -66 15 -88 l0 -38 -62 -2
c-35 -1 -75 -1 -90 0 -18 1 -28 -3 -28 -12 0 -21 17 -24 98 -18 68 5 72 4 72
-16 0 -37 -19 -74 -35 -68 -8 3 -17 0 -21 -6 -9 -14 23 -38 41 -32 15 6 42 58
50 97 5 26 8 27 65 27 l61 0 -22 -29 c-29 -39 -23 -83 14 -95 28 -10 112 5
130 24 14 13 -1 45 -40 92 l-36 43 -82 -3 -82 -4 -6 64 c-7 77 -24 128 -43
128 -8 0 -14 -3 -14 -7z m249 -252 c29 -41 27 -48 -19 -56 -40 -7 -60 -2 -60
17 0 14 39 68 50 68 5 0 18 -13 29 -29z"/>
<path d="M7777 7183 c-32 -5 -46 -28 -28 -46 9 -9 14 -8 21 3 7 11 26 15 70
14 41 -1 60 3 60 11 0 22 -50 29 -123 18z"/>
<path d="M9859 7181 c-2 -6 -2 -55 1 -108 l5 -98 -65 -10 c-47 -7 -65 -14 -65
-25 0 -8 5 -14 10 -13 6 0 36 4 67 8 l58 7 -6 -33 c-3 -19 -10 -49 -16 -67
-11 -36 -7 -47 15 -39 8 3 20 33 27 71 l12 66 60 0 c58 0 98 12 98 29 0 5 -36
7 -80 4 -44 -3 -81 -4 -81 -2 -1 2 -4 51 -8 108 -4 65 -10 106 -17 108 -7 2
-14 -1 -15 -6z"/>
<path d="M9310 7138 c-7 -22 -10 -75 -8 -117 l3 -76 -58 -3 c-78 -4 -72 -26 8
-30 l58 -3 -7 -80 c-5 -64 -4 -79 7 -79 15 0 27 59 27 131 l0 39 75 0 c41 0
75 -3 75 -7 0 -5 -9 -21 -20 -38 -42 -64 -17 -88 63 -60 42 15 52 16 55 5 9
-27 51 -60 76 -60 31 0 44 18 19 26 -34 10 -48 21 -60 44 -18 36 -33 40 -87
19 -27 -10 -52 -16 -55 -14 -2 3 15 23 39 46 30 29 39 44 32 51 -6 6 -56 13
-111 16 -98 5 -99 5 -104 31 -7 35 -2 150 8 179 5 17 3 22 -8 22 -10 0 -20
-15 -27 -42z"/>
<path d="M7436 7149 c-54 -43 -67 -95 -41 -168 l14 -41 -74 0 c-60 0 -75 -3
-75 -15 0 -12 14 -15 63 -15 93 0 105 -6 118 -54 20 -72 12 -205 -11 -191 -17
10 -22 -17 -6 -33 14 -15 18 -15 31 -1 28 28 39 126 23 202 l-15 68 40 -3 c23
-2 42 2 44 8 4 13 -28 24 -70 24 -23 0 -31 7 -47 46 -11 25 -20 55 -20 65 0
45 44 99 81 99 6 0 27 -16 46 -36 37 -39 49 -39 39 0 -7 27 -62 66 -93 66 -11
0 -32 -9 -47 -21z"/>
<path d="M10132 7063 c5 -26 38 -29 38 -4 0 15 -6 21 -21 21 -14 0 -19 -5 -17
-17z"/>
<path d="M4030 7029 c-30 -48 -146 -161 -189 -184 -32 -16 -39 -29 -21 -40 15
-9 59 21 129 87 l59 56 -14 -51 c-18 -67 -17 -86 2 -94 10 -3 29 8 53 31 l38
37 6 -52 c7 -56 29 -91 47 -73 7 7 5 21 -6 44 -14 28 -15 40 -5 82 22 96 11
101 -59 26 -43 -46 -49 -50 -50 -30 0 12 14 58 31 102 27 72 31 100 11 100 -4
0 -18 -19 -32 -41z"/>
<path d="M12781 6992 c-30 -60 -78 -110 -143 -150 -21 -13 -38 -27 -38 -32 0
-22 30 -13 84 26 50 37 60 41 73 29 14 -15 33 -11 93 20 l30 16 0 -49 c0 -48
12 -72 37 -72 7 0 13 7 13 15 0 8 -4 15 -10 15 -13 0 -13 61 1 116 17 65 0 77
-42 30 -28 -32 -76 -66 -94 -66 -13 0 -2 39 25 89 28 52 30 71 10 71 -6 0 -23
-26 -39 -58z"/>
<path d="M13625 7039 c-8 -12 3 -29 20 -29 21 0 75 -50 75 -70 0 -42 -112 -88
-145 -60 -25 20 -18 60 16 91 26 24 28 30 15 35 -21 8 -55 -21 -73 -64 -40
-96 102 -139 190 -58 37 34 36 76 -3 114 -33 33 -86 56 -95 41z"/>
<path d="M5610 6973 c0 -32 -4 -74 -9 -93 -5 -19 -12 -61 -16 -92 -5 -49 -4
-58 9 -58 9 0 18 12 21 28 13 66 47 162 68 193 28 42 58 48 86 18 25 -27 27
-63 6 -112 -19 -46 -19 -57 0 -57 8 0 22 18 31 40 18 45 32 50 59 20 10 -11
36 -25 58 -32 23 -7 42 -20 47 -32 20 -51 91 -85 181 -86 31 0 59 14 59 30 0
3 -34 5 -75 5 -59 1 -80 5 -102 21 -34 25 -37 58 -7 62 34 5 57 37 50 67 -9
36 -42 32 -82 -11 -32 -33 -36 -35 -68 -24 -18 6 -44 22 -56 35 -13 14 -29 25
-37 25 -7 0 -13 9 -13 21 0 11 -13 34 -29 50 -42 41 -80 39 -120 -6 l-31 -36
0 41 c0 29 -4 40 -15 40 -12 0 -15 -13 -15 -57z m434 -98 c-4 -8 -11 -15 -16
-15 -6 0 -5 6 2 15 7 8 14 15 16 15 2 0 1 -7 -2 -15z"/>
<path d="M4236 6995 c-14 -13 -26 -33 -26 -45 0 -20 4 -25 73 -81 20 -17 37
-39 37 -48 0 -39 -59 -66 -102 -47 -13 6 -18 4 -18 -7 0 -45 78 -46 124 0 48
48 34 88 -54 154 -34 26 -35 27 -17 47 10 11 30 23 43 26 14 4 22 11 19 16
-11 18 -52 10 -79 -15z"/>
<path d="M4520 6989 c-32 -12 -70 -67 -70 -102 0 -38 47 -86 95 -97 84 -20
196 -7 180 21 -4 5 -24 6 -45 3 -67 -11 -149 5 -178 33 l-25 25 50 17 c67 23
103 47 103 71 0 35 -55 50 -110 29z m74 -28 c6 -10 -93 -56 -101 -47 -3 3 0
13 8 22 23 28 82 44 93 25z"/>
<path d="M10340 6990 c0 -5 -7 -10 -15 -10 -17 0 -55 -69 -55 -99 0 -11 10
-27 22 -35 47 -34 148 -8 148 37 0 35 -56 117 -80 117 -11 0 -20 -4 -20 -10z
m55 -117 c-25 -17 -69 -17 -84 1 -10 11 -10 20 0 38 27 52 31 53 68 13 32 -36
33 -39 16 -52z"/>
<path d="M10635 6979 c-22 -18 -29 -19 -36 -8 -13 21 -26 0 -34 -53 -6 -40 -5
-48 8 -48 9 0 18 9 22 19 7 25 73 83 87 79 6 -2 18 -23 27 -47 16 -43 53 -71
66 -51 8 13 -14 52 -25 45 -5 -3 -12 10 -16 30 -10 56 -52 70 -99 34z"/>
<path d="M13006 6939 c-28 -93 -19 -101 46 -38 l43 42 5 -59 c3 -33 9 -65 13
-71 11 -18 32 -16 47 3 11 13 10 16 -9 21 -21 5 -22 10 -16 53 7 51 -6 90 -29
90 -7 0 -25 -9 -40 -21 l-26 -20 2 22 c6 45 -21 30 -36 -22z"/>
<path d="M8755 6927 c-31 -31 -34 -32 -39 -13 -8 33 -27 5 -31 -45 -1 -24 -6
-61 -10 -81 -6 -31 -4 -38 9 -38 9 0 16 6 16 13 0 8 14 42 31 76 31 62 69 99
89 86 13 -8 13 -59 -1 -108 -5 -21 -7 -47 -4 -57 9 -28 35 -25 34 3 -1 12 2
52 6 90 7 58 5 70 -10 87 -26 29 -52 25 -90 -13z"/>
<path d="M8989 6922 c-14 -20 -32 -53 -39 -74 -12 -32 -11 -40 4 -62 20 -31
28 -31 83 -7 91 42 107 91 47 147 -19 19 -43 34 -52 34 -9 0 -29 -17 -43 -38z
m81 -22 c35 -35 22 -59 -49 -95 -55 -28 -64 9 -19 83 23 37 40 40 68 12z"/>
<path d="M10105 6878 c8 -38 31 -78 45 -78 13 0 13 3 -6 61 -19 57 -50 71 -39
17z"/>
<path d="M3461 6779 c-84 -18 -110 -56 -92 -139 6 -28 18 -64 26 -79 16 -33
12 -41 -24 -41 -33 0 -56 -14 -46 -29 6 -11 35 -9 88 5 14 4 17 -1 17 -31 0
-22 -6 -38 -15 -41 -19 -8 -20 -34 -2 -34 25 0 47 36 47 77 0 37 3 41 29 46
16 3 40 9 55 13 l26 6 -15 -36 c-37 -88 -8 -139 65 -117 54 16 67 35 52 74
-10 26 -9 33 3 40 26 14 16 27 -19 27 -43 0 -49 -16 -24 -58 23 -38 22 -39
-21 -52 -42 -12 -50 8 -27 69 9 25 18 53 19 61 3 21 -40 24 -106 7 l-56 -15
-15 32 c-8 17 -20 52 -26 78 -11 41 -10 52 4 73 19 29 53 39 107 32 41 -5 58
4 36 20 -19 16 -49 20 -86 12z"/>
<path d="M5266 6740 c-28 -42 -31 -56 -17 -64 10 -7 61 67 61 89 0 26 -16 17
-44 -25z"/>
<path d="M6492 6695 c-29 -24 -52 -85 -52 -139 0 -16 -7 -27 -20 -31 -26 -8
-27 -39 -2 -33 16 4 21 -4 30 -52 12 -55 34 -91 46 -72 3 5 -1 30 -9 57 -26
83 -24 85 50 80 50 -3 65 -1 65 9 0 9 -21 16 -65 21 -72 7 -72 8 -54 81 14 55
47 81 78 64 17 -9 22 -8 27 4 16 42 -49 49 -94 11z"/>
<path d="M6688 6703 c-20 -22 -38 -86 -38 -132 0 -19 -8 -43 -17 -53 -12 -14
-14 -21 -6 -26 6 -4 15 -21 19 -37 4 -17 16 -48 27 -69 16 -33 21 -37 28 -23
7 11 5 26 -4 44 -8 16 -17 43 -20 61 -7 32 -6 33 21 28 82 -16 102 -18 102 -7
0 18 -50 38 -102 40 -22 1 -25 58 -7 112 16 46 25 55 43 40 24 -20 41 -3 20
20 -21 24 -46 24 -66 2z"/>
<path d="M2365 6681 c-3 -6 1 -25 9 -43 25 -56 28 -93 12 -156 -20 -77 -21
-165 -2 -181 24 -20 39 23 43 129 4 91 25 170 45 170 15 0 46 -84 53 -144 10
-80 25 -87 70 -31 l37 45 30 -25 c16 -14 33 -25 38 -25 4 0 6 -8 3 -18 -2 -10
4 -28 14 -40 15 -19 31 -24 88 -28 73 -5 114 7 86 25 -8 5 -20 7 -28 4 -7 -3
-38 -2 -67 1 -71 9 -79 29 -23 54 56 25 72 44 57 71 -16 32 -56 27 -90 -11
l-30 -32 -28 27 c-38 37 -64 34 -94 -9 l-26 -35 -6 46 c-19 121 -80 191 -119
134 -14 -19 -15 -19 -21 14 -7 38 -40 75 -51 58z m435 -209 c0 -5 -12 -14 -27
-21 -28 -13 -28 -13 -9 8 20 22 36 27 36 13z"/>
<path d="M4254 6608 c3 -24 9 -59 12 -79 5 -29 2 -38 -12 -43 -11 -4 -20 -2
-22 3 -5 14 -29 14 -38 0 -9 -16 15 -29 54 -29 l32 0 -6 -42 c-4 -24 -11 -53
-15 -66 -12 -31 -11 -52 2 -52 14 0 35 55 43 113 8 49 16 54 80 47 11 -1 17 3
14 12 -3 7 -23 14 -46 16 -38 3 -42 6 -52 40 -6 20 -13 56 -17 80 -4 28 -11
42 -21 42 -12 0 -13 -9 -8 -42z"/>
<path d="M4525 6600 c-9 -15 4 -30 26 -30 19 0 22 19 4 32 -14 10 -23 10 -30
-2z"/>
<path d="M7287 6603 c-4 -3 -4 -28 -1 -55 6 -44 5 -48 -14 -48 -11 0 -22 -5
-24 -11 -2 -7 -11 -7 -30 1 -61 28 -142 -16 -136 -73 2 -26 11 -36 41 -50 41
-21 128 -28 134 -12 2 6 -25 16 -58 22 -34 7 -69 18 -77 27 -36 36 28 77 88
56 25 -10 35 -10 38 -1 2 6 12 11 23 11 16 0 19 -8 20 -42 2 -69 12 -102 33
-106 16 -3 18 0 12 19 -4 13 -9 45 -13 72 -7 53 -4 54 60 36 43 -12 64 -4 47
16 -6 7 -33 16 -59 20 l-49 7 -4 49 c-5 50 -18 76 -31 62z"/>
<path d="M7718 6553 c-64 -10 -59 -67 9 -102 21 -10 46 -28 57 -40 18 -20 18
-21 -10 -31 -16 -6 -49 -10 -74 -8 -34 2 -45 -1 -45 -12 0 -22 93 -25 140 -6
31 13 36 20 33 42 -2 20 -18 38 -60 67 -32 21 -58 42 -58 47 0 14 63 21 71 8
11 -18 34 5 26 26 -6 16 -30 18 -89 9z"/>
<path d="M4950 6543 c-44 -16 -113 -124 -89 -138 14 -9 27 3 45 38 16 31 51
66 67 67 4 0 7 -27 7 -60 0 -48 4 -61 19 -70 39 -20 159 0 169 29 4 11 -3 12
-34 5 -22 -4 -57 -8 -79 -8 l-40 -1 -3 60 c-4 77 -18 94 -62 78z"/>
<path d="M5365 6531 c-3 -6 6 -28 20 -48 32 -48 32 -77 -1 -110 -21 -20 -32
-24 -60 -20 -36 6 -56 -9 -33 -24 8 -5 30 -9 50 -9 30 0 43 7 69 36 34 39 35
56 13 144 -9 35 -43 54 -58 31z"/>
<path d="M3801 6506 c-27 -29 -53 -98 -41 -110 12 -12 30 2 30 25 0 28 54 81
74 73 15 -6 21 -30 16 -63 -3 -27 11 -61 25 -61 12 0 14 13 12 61 -3 50 -8 65
-26 80 -31 26 -63 24 -90 -5z"/>
<path d="M4008 6501 c-29 -26 -32 -32 -23 -57 14 -40 66 -64 137 -64 55 0 83
14 59 30 -7 4 -11 13 -9 20 5 22 -20 22 -32 1 -12 -23 -41 -27 -88 -10 -50 17
-51 59 -1 74 22 7 26 35 4 35 -8 0 -29 -13 -47 -29z"/>
<path d="M6178 6497 c-28 -25 -38 -42 -38 -64 0 -44 30 -66 100 -71 51 -4 63
-1 89 19 31 25 40 49 19 49 -22 0 -41 -17 -34 -29 9 -14 -82 -15 -119 -1 -40
15 -25 34 34 41 78 10 104 42 59 73 -35 25 -69 19 -110 -17z m87 -12 c0 -5
-15 -11 -34 -13 -31 -3 -33 -2 -21 13 14 17 55 17 55 0z"/>
<path d="M4660 6482 c-60 -46 -74 -72 -54 -100 18 -26 59 -29 109 -7 41 17 52
37 37 71 -8 16 -8 24 -1 24 21 0 3 34 -21 40 -19 5 -35 -1 -70 -28z m60 -41
c14 -27 14 -28 -21 -40 -69 -24 -93 -1 -43 38 33 26 50 26 64 2z"/>
<path d="M6880 6488 c-49 -33 -81 -84 -71 -111 17 -47 132 -75 176 -44 26 20
4 30 -38 19 -25 -7 -42 -5 -68 7 -32 15 -47 49 -24 53 6 1 36 14 68 30 41 21
57 34 55 46 -5 27 -58 27 -98 0z"/>
<path d="M4517 6473 c-4 -3 -7 -30 -7 -60 0 -39 4 -53 14 -53 10 0 15 15 18
50 4 65 -4 85 -25 63z"/>
<path d="M7985 6350 c-9 -15 3 -30 24 -30 25 0 33 11 20 27 -13 15 -35 17 -44
3z"/>
<path d="M9676 6071 c-4 -5 -2 -21 4 -36 5 -14 10 -54 10 -88 0 -65 12 -99 29
-82 9 11 -2 185 -14 204 -8 13 -22 14 -29 2z"/>
<path d="M4896 6008 c-8 -26 -26 -174 -26 -208 0 -38 14 -69 26 -57 4 4 8 35
9 70 1 34 5 92 9 128 6 47 5 68 -3 73 -6 4 -13 1 -15 -6z"/>
<path d="M5220 5951 c-41 -43 -90 -150 -122 -269 -15 -56 -21 -109 -22 -197
-1 -107 2 -125 22 -162 42 -79 112 -143 157 -143 28 0 15 26 -20 38 -66 25
-125 121 -133 219 -9 121 44 343 110 453 36 59 62 73 83 43 10 -13 17 -15 25
-7 13 13 -24 64 -47 64 -9 0 -33 -18 -53 -39z"/>
<path d="M6484 5945 c-4 -9 -5 -17 -3 -18 150 -98 190 -165 168 -282 -9 -54
-140 -326 -147 -307 -2 7 -8 10 -13 6 -5 -3 -9 0 -9 5 0 6 -7 11 -15 11 -21 0
-18 -10 11 -43 13 -16 30 -27 37 -24 7 2 45 69 85 148 88 175 103 237 77 326
-18 61 -47 95 -139 161 -39 28 -47 31 -52 17z"/>
<path d="M9471 5947 c-23 -11 -27 -34 -6 -30 76 13 99 20 103 31 5 16 -65 16
-97 -1z"/>
<path d="M5900 5924 c-38 -32 -112 -184 -133 -274 -41 -171 -31 -247 40 -316
41 -40 138 -88 156 -77 14 8 -4 23 -53 44 -69 30 -125 93 -134 151 -22 144 98
458 175 458 15 0 19 5 15 16 -3 9 -6 18 -6 20 0 13 -33 1 -60 -22z"/>
<path d="M4390 5927 c-14 -7 -35 -28 -47 -46 -27 -40 -30 -122 -9 -214 14 -56
14 -57 -8 -63 -36 -9 -89 -9 -118 -1 -23 6 -28 4 -28 -12 0 -14 10 -20 40 -25
22 -3 52 -4 65 -1 80 16 72 21 84 -48 29 -165 -5 -272 -64 -207 -17 19 -45 27
-45 13 0 -4 12 -20 27 -35 35 -37 76 -38 100 -1 20 30 25 169 10 254 l-9 47
43 14 c41 14 70 40 57 53 -3 4 -17 0 -30 -9 -12 -8 -36 -16 -52 -18 -28 -3
-30 0 -42 52 -25 107 -12 197 32 214 19 7 31 -5 40 -41 7 -25 34 -32 34 -9 0
27 -23 77 -39 86 -11 5 -26 4 -41 -3z"/>
<path d="M9142 5928 c-45 -58 -54 -133 -28 -243 8 -33 12 -64 9 -69 -3 -5 -45
-6 -94 -3 -84 5 -115 -2 -87 -20 7 -4 54 -10 103 -13 l90 -5 -2 -60 c-1 -33
-10 -87 -20 -120 -17 -53 -22 -60 -45 -60 -14 0 -30 -4 -35 -9 -4 -5 -3 -6 5
-2 7 4 12 1 12 -8 0 -22 43 -21 62 2 23 25 48 116 55 200 5 62 9 72 25 72 27
0 60 19 53 31 -4 5 -24 6 -45 3 -37 -6 -39 -5 -45 22 -4 16 -11 45 -16 64 -15
60 -11 132 11 168 11 17 24 32 29 32 23 0 43 -15 52 -38 7 -19 13 -22 21 -14
9 9 9 18 0 37 -18 39 -88 60 -110 33z"/>
<path d="M4652 5883 c5 -29 137 -42 145 -16 5 13 -15 19 -95 27 -46 4 -53 3
-50 -11z"/>
<path d="M10445 5890 c-9 -15 5 -52 18 -47 19 7 64 -21 90 -55 65 -86 74 -177
28 -273 -30 -64 -163 -215 -188 -215 -22 0 -10 -25 14 -28 30 -4 83 46 144
135 70 104 91 154 91 222 0 98 -47 179 -140 242 -49 33 -49 33 -57 19z"/>
<path d="M6310 5850 c0 -13 7 -20 18 -20 43 0 95 -101 95 -182 -1 -83 -52
-226 -92 -255 -15 -11 -15 -12 1 -18 25 -10 35 0 67 63 60 122 71 231 32 317
-38 86 -121 151 -121 95z"/>
<path d="M10050 5834 c-25 -14 -58 -37 -73 -52 -69 -66 -127 -189 -127 -269 0
-67 57 -133 130 -153 44 -12 153 -15 169 -5 26 15 5 23 -76 27 -101 5 -144 23
-173 71 -25 41 -25 78 0 153 26 77 94 163 154 194 40 22 48 23 56 10 15 -25
35 2 21 29 -15 27 -26 26 -81 -5z"/>
<path d="M5506 5815 c-9 -9 -19 -28 -22 -42 -7 -26 0 -106 11 -134 5 -14 -4
-17 -55 -23 -41 -5 -60 -11 -57 -19 3 -8 24 -11 64 -9 57 4 61 2 66 -20 9 -34
-9 -90 -35 -109 l-21 -17 22 -12 c19 -10 25 -9 36 7 19 25 36 109 29 139 -5
21 -3 24 20 24 14 0 30 8 35 19 14 25 5 31 -30 18 -24 -10 -32 -9 -39 3 -16
25 -23 101 -13 129 7 22 14 26 42 23 26 -2 32 1 29 15 -4 24 -60 29 -82 8z"/>
<path d="M7035 5711 c-3 -6 -1 -20 5 -31 9 -17 14 -19 25 -10 14 12 115 2 158
-15 13 -5 17 -2 17 14 0 12 -3 21 -7 21 -11 0 -132 19 -165 26 -14 3 -29 1
-33 -5z"/>
<path d="M7865 5710 c-11 -4 -37 -26 -58 -49 -31 -34 -37 -38 -37 -21 0 31
-44 70 -79 70 -34 0 -61 -23 -61 -51 0 -25 26 -25 33 1 7 25 39 26 61 1 26
-29 11 -67 -43 -107 -25 -19 -56 -37 -68 -40 -27 -7 -31 -34 -5 -34 19 0 76
32 108 61 20 19 20 18 20 -17 0 -59 41 -78 109 -50 46 19 47 41 3 31 -64 -14
-73 -12 -76 18 -4 33 45 116 90 151 34 26 35 48 3 36z"/>
<path d="M10215 5701 c-42 -26 -71 -60 -90 -103 -20 -49 -19 -81 4 -109 15
-19 28 -23 68 -22 67 1 163 29 163 48 0 19 -7 19 -60 0 -55 -20 -134 -20 -150
0 -25 30 22 125 78 158 l30 17 9 -52 c10 -64 27 -71 48 -21 35 84 -22 133
-100 84z"/>
<path d="M5990 5690 c0 -11 4 -20 9 -20 20 0 71 -53 71 -74 0 -23 -61 -88 -92
-99 -20 -7 -23 -22 -7 -33 6 -3 30 8 53 24 42 30 43 31 62 12 26 -27 74 -35
98 -17 24 18 13 41 -13 28 -25 -14 -59 -3 -67 21 -7 22 13 105 27 114 5 3 9 9
9 15 0 13 -38 11 -42 -3 -3 -8 -20 -1 -48 20 -51 37 -60 39 -60 12z"/>
<path d="M8408 5678 c-68 -8 -88 -14 -88 -26 0 -13 12 -14 88 -6 48 4 102 8
120 8 25 0 32 3 30 15 -4 20 -36 22 -150 9z"/>
<path d="M8325 5590 c-11 -18 7 -32 34 -27 29 6 124 -5 154 -18 24 -10 23 21
-1 34 -27 14 -179 23 -187 11z"/>
<path d="M7034 5565 c-4 -9 -4 -18 -2 -20 8 -8 194 -8 207 -1 25 16 -3 23 -91
25 -50 1 -95 4 -100 7 -4 3 -11 -2 -14 -11z"/>
<path d="M2944 4827 c-27 -18 -62 -54 -79 -80 -20 -31 -35 -44 -47 -41 -25 7
-34 -17 -13 -33 11 -7 24 -28 30 -45 11 -37 45 -58 93 -58 49 0 41 26 -9 33
-70 9 -80 52 -19 80 57 26 140 104 140 131 0 24 -17 46 -36 46 -6 0 -34 -15
-60 -33z m66 -11 c0 -14 -58 -66 -114 -102 -29 -18 -29 -18 -18 3 13 24 110
113 123 113 5 0 9 -6 9 -14z"/>
<path d="M3299 4780 c-24 -23 -30 -37 -27 -62 2 -26 8 -34 28 -36 38 -6 97 16
118 43 l20 25 6 -23 c3 -12 -1 -54 -10 -94 l-16 -72 -53 -11 c-66 -14 -96 -44
-102 -103 -7 -63 26 -137 61 -137 35 0 73 53 101 142 22 68 25 73 52 73 37 0
38 29 1 33 -30 4 -30 11 -6 105 12 49 -7 147 -28 147 -8 0 -18 -10 -23 -22
-13 -34 -53 -67 -89 -74 -24 -5 -32 -3 -32 8 0 23 39 58 65 58 16 0 25 6 25
15 0 28 -58 18 -91 -15z m101 -307 c-15 -55 -56 -133 -71 -133 -13 0 -39 62
-39 92 0 45 23 72 70 84 25 6 47 10 49 8 2 -2 -2 -25 -9 -51z"/>
<path d="M5214 4769 c-11 -18 -5 -189 7 -211 20 -38 25 -14 21 95 -4 110 -12
142 -28 116z"/>
<path d="M9459 4657 c-73 -49 -109 -163 -90 -286 6 -41 10 -76 8 -77 -2 -2
-32 -4 -67 -5 -81 -2 -100 -7 -100 -25 0 -15 65 -20 87 -6 7 4 30 6 53 4 l40
-4 0 -52 c0 -60 -10 -79 -34 -70 -14 5 -17 3 -14 -12 2 -10 13 -20 25 -22 35
-5 58 40 56 110 0 32 2 58 5 58 4 0 18 3 30 7 24 6 24 6 8 -25 -33 -64 -12
-112 49 -112 45 0 80 17 96 46 16 30 0 90 -35 127 -23 24 -26 25 -53 13 -15
-8 -47 -16 -70 -20 l-41 -6 -12 70 c-19 111 18 233 80 265 36 19 40 19 40 0 0
-8 7 -15 15 -15 18 0 20 31 3 48 -18 18 -41 15 -79 -11z m128 -425 c4 -19 0
-30 -17 -44 -24 -20 -75 -24 -85 -7 -11 17 3 55 32 89 l27 32 18 -22 c10 -12
21 -34 25 -48z"/>
<path d="M3593 4633 c0 -16 -3 -36 -7 -45 -13 -29 13 -21 45 13 35 37 36 45 7
53 -39 10 -45 7 -45 -21z"/>
<path d="M4753 4650 c-12 -5 -34 -27 -49 -50 -26 -38 -26 -44 -20 -128 4 -48
9 -105 12 -128 l6 -41 -49 7 c-29 5 -53 4 -60 -2 -20 -16 -5 -28 35 -28 79 0
82 -4 82 -89 0 -85 -21 -167 -47 -187 -14 -10 -15 -15 -6 -25 22 -22 42 -1 62
67 14 43 21 94 21 144 l0 78 35 6 c36 7 50 19 40 35 -3 6 -17 6 -36 -1 -16 -6
-33 -8 -36 -4 -10 10 -32 138 -33 191 0 93 63 163 92 101 6 -14 18 -26 27 -27
11 0 12 -2 3 -6 -13 -5 -7 -23 9 -23 16 0 10 33 -12 70 -31 51 -39 55 -76 40z"/>
<path d="M5105 4650 c-11 -5 -36 -9 -56 -9 -22 -1 -39 -7 -42 -15 -8 -21 2
-26 44 -20 67 10 94 20 97 37 4 18 -11 21 -43 7z"/>
<path d="M7024 4645 c-5 -11 4 -26 29 -46 20 -16 48 -55 64 -87 24 -50 28 -69
28 -147 0 -103 -16 -160 -71 -251 -59 -98 -114 -204 -114 -220 0 -27 24 -9 44
32 10 21 43 81 73 131 86 145 97 180 97 303 0 122 -14 164 -84 245 -50 58 -58
63 -66 40z"/>
<path d="M5673 4583 c-55 -52 -81 -87 -112 -150 -122 -245 -104 -444 46 -509
38 -16 83 -18 83 -4 0 11 -7 14 -52 24 -14 3 -41 18 -59 33 -78 66 -90 177
-36 334 42 122 77 181 146 247 51 50 56 52 68 35 12 -15 15 -16 23 -3 6 8 8
21 5 28 -3 8 -5 18 -5 23 0 26 -44 2 -107 -58z"/>
<path d="M6305 4620 c-84 -43 -140 -127 -176 -268 -22 -85 -16 -156 20 -236
19 -44 101 -136 121 -136 21 0 9 24 -30 63 -80 78 -110 186 -84 298 15 64 63
169 92 202 25 28 79 58 109 61 32 4 38 30 8 33 -11 2 -38 -6 -60 -17z"/>
<path d="M12367 4623 c-3 -5 -8 -24 -12 -43 -4 -19 -18 -55 -30 -81 -13 -25
-39 -91 -59 -147 -19 -55 -42 -115 -51 -131 -13 -25 -13 -34 -3 -51 17 -27 48
-25 111 6 89 45 128 94 107 135 -15 27 -88 26 -124 -2 -14 -11 -26 -18 -26
-15 0 8 55 153 84 221 14 33 26 70 26 82 0 22 -15 39 -23 26z m33 -342 c0 -23
-38 -55 -98 -81 -56 -25 -61 -25 -55 0 9 35 89 100 123 100 23 0 30 -4 30 -19z"/>
<path d="M6720 4612 c0 -4 27 -36 61 -70 105 -109 130 -196 88 -307 -22 -58
-125 -206 -156 -223 -14 -9 -16 -13 -6 -23 17 -17 67 31 129 124 117 173 111
290 -19 436 -54 60 -97 88 -97 63z"/>
<path d="M3080 4595 c0 -8 9 -15 20 -15 11 0 20 7 20 15 0 8 -9 15 -20 15 -11
0 -20 -7 -20 -15z"/>
<path d="M6009 4514 c-22 -9 -44 -29 -57 -53 -19 -33 -20 -45 -13 -92 5 -30
12 -62 16 -71 6 -16 1 -18 -41 -19 -67 -2 -106 -11 -112 -27 -3 -11 13 -12 82
-6 l86 7 0 -46 c0 -25 -4 -49 -10 -52 -5 -3 -14 -15 -20 -25 -16 -30 7 -34 35
-6 21 21 25 35 25 81 0 51 2 55 24 55 27 0 53 24 36 35 -6 3 -23 4 -39 0 -26
-5 -30 -3 -40 26 -14 41 -14 104 0 131 15 29 76 53 95 37 19 -16 31 -3 18 19
-15 23 -41 25 -85 6z"/>
<path d="M13650 4399 c-19 -12 -45 -33 -56 -46 l-21 -25 -7 26 c-8 31 -70 66
-87 49 -11 -11 -2 -63 12 -63 4 0 12 7 17 16 7 13 10 13 21 1 28 -35 -27 -107
-95 -126 -32 -8 -43 -28 -19 -37 9 -4 36 6 64 23 l48 30 10 -28 c15 -39 53
-55 101 -43 22 5 37 15 37 24 0 8 -7 13 -15 12 -64 -15 -78 -14 -89 7 -9 16
-8 28 8 58 23 45 78 100 106 105 21 3 28 29 10 35 -5 1 -26 -7 -45 -18z"/>
<path d="M11509 4360 l-44 -41 -8 31 c-12 45 -33 32 -29 -18 2 -26 -4 -58 -17
-88 -25 -55 -26 -64 -7 -64 8 0 25 20 37 44 12 25 42 64 66 88 l45 43 -8 -65
c-11 -87 -10 -128 4 -142 17 -17 39 6 25 24 -6 9 -6 45 0 106 9 79 8 95 -5
108 -13 14 -19 11 -59 -26z"/>
<path d="M12845 4380 c-39 -24 -72 -69 -91 -122 -29 -84 -10 -93 34 -15 29 52
92 117 113 117 6 0 17 -7 26 -15 16 -17 34 -16 40 2 4 12 -57 53 -78 53 -8 0
-28 -9 -44 -20z"/>
<path d="M6405 4379 c-4 -6 -5 -11 -4 -12 2 -2 21 -10 42 -20 23 -10 37 -24
37 -35 0 -20 -44 -65 -72 -75 -20 -7 -24 -37 -5 -37 6 0 27 9 45 20 26 16 34
17 38 6 8 -20 57 -27 116 -16 55 11 85 31 74 48 -4 7 -16 6 -34 -4 -30 -15
-132 -19 -132 -5 0 5 16 30 35 55 19 26 35 48 35 51 0 12 -26 3 -47 -17 -19
-18 -23 -19 -23 -5 0 9 -18 26 -40 37 -45 23 -56 24 -65 9z"/>
<path d="M10737 4331 c-10 -32 -32 -74 -48 -92 l-30 -34 6 30 c15 81 16 104 6
124 -19 34 -48 25 -105 -32 l-54 -53 6 38 c4 30 1 38 -11 38 -9 0 -19 -5 -22
-10 -4 -6 -12 -4 -21 5 -9 8 -31 15 -49 15 -30 0 -38 -6 -60 -44 -19 -32 -25
-56 -23 -83 5 -57 35 -56 99 4 l52 48 -8 -40 c-11 -59 -11 -67 1 -72 7 -2 23
15 37 39 14 24 46 65 73 91 61 62 75 52 51 -37 -28 -107 -2 -126 70 -51 33 35
43 41 43 26 0 -48 55 -51 110 -4 l32 26 -17 -39 c-81 -190 -102 -276 -75 -309
20 -24 27 -9 23 42 -5 52 15 113 103 305 36 77 43 102 34 111 -9 9 -16 6 -28
-13 -43 -64 -118 -130 -147 -130 -4 0 -5 35 -4 78 2 60 -1 78 -12 80 -9 1 -20
-18 -32 -57z m-290 -17 c5 -14 -41 -70 -68 -85 -16 -8 -19 -6 -19 13 0 38 37
90 62 86 12 -2 23 -8 25 -14z"/>
<path d="M12051 4327 c-35 -34 -61 -57 -57 -50 3 6 2 23 -4 37 -13 36 -44 33
-69 -6 -12 -19 -21 -26 -21 -17 0 8 5 20 12 27 16 16 1 29 -19 16 -15 -9 -49
-104 -55 -154 -5 -46 25 -27 67 42 53 88 57 91 54 36 -2 -26 0 -51 5 -55 4 -4
34 22 66 57 l58 65 0 -44 c0 -43 23 -78 43 -65 11 6 7 44 -5 44 -5 0 -6 25 -3
60 4 32 3 61 -1 64 -5 3 -37 -23 -71 -57z"/>
<path d="M12575 4378 c-11 -6 -37 -27 -57 -46 -32 -31 -38 -42 -38 -78 0 -64
34 -99 95 -98 57 1 70 12 49 42 -18 25 -34 29 -34 7 0 -23 -57 -20 -70 4 -21
40 -13 48 52 54 51 4 67 10 85 31 25 29 21 59 -10 81 -25 18 -45 18 -72 3z
m59 -41 c15 -23 0 -34 -58 -43 -58 -8 -60 7 -6 44 37 25 48 24 64 -1z"/>
<path d="M9736 4349 c-36 -28 -79 -190 -54 -205 17 -10 28 9 32 59 9 96 39
140 87 130 33 -6 39 11 10 27 -29 15 -45 12 -75 -11z"/>
<path d="M11671 4336 c-26 -41 -37 -116 -22 -144 24 -44 93 -35 128 17 21 31
52 118 45 126 -16 16 -31 -1 -42 -44 -14 -60 -61 -111 -88 -95 -33 21 -26 66
26 167 2 4 -3 7 -11 7 -9 0 -25 -15 -36 -34z"/>
<path d="M8276 4333 c-3 -4 -6 -15 -6 -25 0 -14 5 -17 23 -13 31 8 87 -29 87
-57 0 -15 -24 -46 -71 -91 -50 -48 -68 -72 -61 -79 8 -8 23 0 53 25 l42 36 21
-31 c24 -35 65 -51 113 -42 50 9 31 32 -30 36 -50 3 -52 4 -55 35 -4 38 15 77
57 118 17 17 31 33 31 38 0 13 -37 7 -51 -9 -11 -14 -14 -13 -28 5 -17 22
-114 64 -125 54z"/>
<path d="M7750 4309 c-14 -4 -44 -7 -67 -8 -31 -1 -43 -5 -43 -16 0 -11 11
-15 39 -15 68 0 131 12 131 25 0 17 -29 23 -60 14z"/>
<path d="M7652 4177 c-29 -9 -41 -33 -16 -31 71 4 134 19 134 30 0 17 -68 17
-118 1z"/>
<path d="M8516 4085 c4 -8 8 -15 10 -15 2 0 4 7 4 15 0 8 -4 15 -10 15 -5 0
-7 -7 -4 -15z"/>
<path d="M3366 3849 c-2 -8 -10 -52 -17 -97 -14 -97 -6 -209 16 -231 23 -23
27 -9 15 64 -8 51 -8 92 1 162 9 70 10 96 1 105 -8 8 -12 8 -16 -3z"/>
<path d="M2823 3718 c-53 -40 -76 -102 -71 -187 l3 -59 -44 0 c-24 0 -48 -5
-54 -11 -13 -13 3 -19 62 -23 l44 -3 34 -100 c33 -98 33 -100 17 -147 -8 -26
-23 -52 -31 -57 -18 -9 -9 -31 12 -31 18 0 40 42 55 101 10 39 8 54 -20 133
-35 103 -35 107 -15 100 22 -9 67 5 63 18 -3 7 -22 13 -43 15 -47 3 -55 14
-55 76 0 55 20 104 60 147 39 42 54 39 46 -9 -3 -22 -2 -42 3 -46 16 -9 32 33
29 73 -4 51 -38 55 -95 10z"/>
<path d="M3092 3713 c2 -12 14 -18 38 -20 19 -2 59 -8 87 -14 53 -10 83 -5 66
12 -9 9 -148 39 -180 39 -8 0 -13 -7 -11 -17z"/>
<path d="M5996 3688 c-30 -17 -77 -61 -88 -81 -17 -33 -23 -70 -21 -140 l1
-68 -99 2 c-55 1 -103 -1 -106 -5 -15 -15 15 -21 112 -24 l104 -4 6 -42 c4
-24 2 -60 -4 -82 -12 -42 -4 -58 19 -44 11 7 15 30 15 95 0 69 3 85 15 85 8 0
25 3 38 6 22 6 22 5 16 -49 -16 -134 85 -147 146 -18 35 75 9 87 -29 13 -10
-20 -28 -46 -40 -56 -20 -18 -23 -18 -38 -4 -21 21 -10 96 19 133 27 34 12 51
-28 31 -16 -8 -48 -18 -70 -22 l-42 -6 -7 50 c-10 73 9 129 58 175 28 26 46
35 60 31 14 -5 18 -2 15 12 -4 23 -26 28 -52 12z"/>
<path d="M6697 3694 c-10 -10 -9 -44 1 -44 23 0 49 -176 30 -196 -4 -4 -20 -7
-35 -8 -43 -2 -37 -31 6 -31 l33 0 -7 -76 c-4 -48 -2 -79 4 -83 15 -10 21 7
28 88 l6 76 63 0 c34 0 74 -4 87 -9 23 -9 24 -12 19 -85 -4 -63 -2 -76 10 -76
12 0 17 19 22 77 8 104 -3 116 -113 121 l-78 4 -7 67 c-6 71 -36 173 -52 178
-6 2 -13 0 -17 -3z"/>
<path d="M4876 3598 c-14 -19 -16 -20 -16 -4 0 11 -6 16 -17 14 -16 -3 -18
-15 -16 -103 2 -55 -3 -153 -10 -218 -13 -120 -9 -143 21 -114 12 12 17 51 22
175 5 126 11 167 26 198 10 21 23 39 28 39 6 0 19 -16 30 -35 18 -29 21 -53
22 -146 1 -121 7 -142 30 -123 8 6 14 15 14 19 0 4 7 24 16 45 l15 37 35 -36
c19 -20 39 -36 44 -36 6 0 10 -11 10 -23 0 -46 33 -62 123 -59 91 3 120 9 115
24 -3 7 -38 10 -94 9 -73 -2 -93 1 -104 14 -12 14 -11 18 1 26 8 5 21 9 30 9
17 0 43 25 51 50 10 28 -10 60 -36 60 -22 0 -39 -16 -83 -79 -5 -8 -55 43 -69
72 -19 36 -41 34 -50 -5 -7 -28 -9 -22 -16 44 -7 81 -17 108 -51 146 -26 28
-52 28 -71 0z m340 -243 c-3 -8 -15 -15 -27 -15 l-22 0 24 26 c23 24 37 19 25
-11z"/>
<path d="M7020 3550 c0 -19 5 -30 14 -30 17 0 28 24 20 45 -11 27 -34 17 -34
-15z"/>
<path d="M8163 3557 c-6 -10 52 -67 68 -67 6 0 8 9 5 20 -3 11 -9 29 -12 40
-4 14 -13 19 -30 18 -14 -2 -28 -6 -31 -11z"/>
<path d="M8710 3521 c-5 -11 -14 -52 -20 -92 -19 -132 -31 -151 -50 -76 -22
84 -32 107 -46 107 -18 0 -18 -2 5 -80 26 -90 41 -120 62 -120 19 0 42 50 53
115 10 57 28 105 38 99 11 -7 10 9 -2 40 -11 31 -25 33 -40 7z"/>
<path d="M9168 3530 c-22 -13 -35 -59 -42 -151 -6 -63 -4 -78 8 -82 17 -7 30
8 21 22 -8 15 25 154 41 171 11 12 21 12 56 3 42 -11 58 -10 58 7 0 9 -85 40
-109 40 -9 0 -24 -5 -33 -10z"/>
<path d="M4004 3505 c-8 -19 2 -45 16 -45 5 0 10 14 10 30 0 31 -16 41 -26 15z"/>
<path d="M9395 3490 c-65 -26 -58 -73 18 -123 65 -43 73 -68 27 -92 -37 -19
-84 -19 -100 0 -9 11 -16 13 -23 6 -7 -7 -5 -17 8 -31 26 -28 92 -27 136 3 63
42 45 103 -43 148 -21 11 -38 26 -38 34 0 22 49 39 77 26 29 -13 43 7 18 26
-21 15 -50 16 -80 3z"/>
<path d="M8941 3475 c-18 -9 -53 -27 -77 -43 -39 -25 -43 -31 -44 -68 0 -52
28 -90 78 -104 68 -19 132 -11 132 16 0 11 -9 13 -38 8 -50 -8 -119 11 -133
37 -18 34 -3 69 29 69 16 0 51 7 80 15 54 16 74 43 52 70 -15 19 -36 18 -79 0z
m54 -24 c-6 -5 -23 -12 -40 -15 l-30 -6 30 14 c35 18 54 20 40 7z"/>
<path d="M9749 3432 c-59 -38 -96 -107 -82 -155 10 -35 56 -71 112 -87 39 -11
161 5 161 21 0 5 5 8 11 7 6 -2 14 3 17 11 4 11 -3 12 -34 5 -51 -11 -161 -7
-197 8 -36 14 -50 48 -35 88 11 34 40 50 91 50 63 0 78 10 75 44 -3 28 -7 31
-38 34 -25 2 -48 -6 -81 -26z m81 -12 c0 -5 -12 -10 -27 -10 -22 0 -25 2 -13
10 20 13 40 13 40 0z"/>
<path d="M6469 3435 c-27 -15 -71 -67 -82 -98 -10 -28 33 -64 85 -72 71 -11
91 -5 93 28 0 16 -2 30 -6 33 -12 7 -39 -8 -39 -22 0 -17 -12 -17 -62 -3 -22
6 -38 16 -38 25 0 24 40 72 72 85 16 6 27 16 25 22 -5 17 -20 17 -48 2z"/>
<path d="M8306 3390 c-47 -43 -61 -73 -42 -89 15 -12 41 3 31 18 -8 14 62 84
79 78 13 -4 61 -97 76 -149 11 -37 23 -47 34 -29 7 11 -17 109 -35 143 -20 40
-52 68 -76 68 -13 0 -42 -17 -67 -40z"/>
<path d="M4053 3393 c-40 -27 -30 -59 27 -88 28 -14 50 -30 50 -36 0 -6 -18
-18 -40 -27 -39 -17 -54 -42 -25 -42 28 0 93 39 100 60 9 28 1 37 -56 66 -52
26 -54 39 -12 55 26 10 23 29 -5 28 -9 0 -27 -7 -39 -16z"/>
<path d="M6238 3393 c-41 -47 -62 -123 -34 -123 16 0 46 53 46 80 0 22 24 32
39 17 6 -6 11 -25 11 -42 0 -17 7 -41 16 -54 21 -30 38 -14 24 23 -5 15 -10
38 -10 52 0 28 -32 64 -58 64 -11 0 -26 -8 -34 -17z"/>
<path d="M7130 3384 c-8 -8 -31 -27 -50 -44 -29 -24 -33 -32 -24 -47 9 -14 24
-18 72 -17 96 1 120 40 60 95 -36 33 -37 33 -58 13z m45 -44 c10 -11 16 -22
13 -25 -3 -3 -30 -8 -59 -11 l-54 -5 25 20 c14 12 30 25 35 30 15 14 20 13 40
-9z"/>
<path d="M7296 3388 c-2 -7 -12 -35 -21 -61 -13 -35 -14 -52 -6 -60 13 -13 10
-15 45 46 39 68 46 65 140 -68 29 -41 29 -2 1 52 -37 68 -70 96 -107 91 -16
-3 -28 -1 -28 4 0 13 -20 9 -24 -4z"/>
<path d="M8175 3378 c-3 -8 -4 -57 -3 -109 2 -76 6 -94 18 -94 12 0 15 17 13
99 -3 94 -15 139 -28 104z"/>
<path d="M3950 3366 c0 -8 5 -18 11 -22 6 -3 9 -29 7 -63 -2 -45 0 -56 12 -56
19 0 27 104 10 135 -12 23 -40 27 -40 6z"/>
<path d="M10050 3166 c0 -16 27 -29 41 -20 19 11 9 34 -16 34 -15 0 -25 -6
-25 -14z"/>
<path d="M14045 2928 c-9 -120 -8 -167 6 -201 13 -30 37 -31 29 -1 -2 10 -3
81 -2 157 3 112 1 137 -11 137 -11 0 -16 -23 -22 -92z"/>
<path d="M13743 2827 c-52 -8 -63 -13 -63 -29 0 -14 5 -18 18 -14 57 16 140
27 168 23 18 -3 35 -2 39 1 4 4 11 7 16 7 5 0 10 5 12 10 3 14 -113 15 -190 2z"/>
<path d="M6147 2804 c-11 -11 -8 -310 3 -388 11 -70 26 -104 41 -89 5 5 4 24
-3 43 -6 21 -11 116 -12 234 -1 188 -6 222 -29 200z"/>
<path d="M7655 2790 c-3 -6 -6 -34 -5 -63 1 -28 1 -91 1 -139 l-1 -87 -47 -3
c-67 -4 -70 -28 -3 -28 44 0 51 -2 46 -17 -11 -38 -10 -107 1 -110 13 -5 19
13 28 85 l7 52 59 0 59 0 0 -68 c0 -44 5 -75 15 -88 18 -23 18 -20 15 86 -1
50 -7 88 -14 92 -6 4 -39 8 -74 8 l-63 0 2 142 c1 132 -6 170 -26 138z"/>
<path d="M12117 2788 c-2 -7 2 -22 9 -33 16 -26 26 -89 26 -174 1 -78 -19
-172 -34 -168 -6 1 -12 -8 -14 -20 -6 -33 24 -45 85 -33 69 13 87 24 100 61
13 38 1 66 -35 79 -34 13 -40 13 -60 -7 -16 -17 -17 -15 -11 36 7 56 -6 185
-24 239 -11 32 -34 43 -42 20z m143 -342 c0 -34 -23 -48 -83 -52 -29 -2 -45
-1 -37 3 8 3 28 21 46 40 38 40 74 45 74 9z"/>
<path d="M9024 2777 c-3 -9 -3 -42 0 -74 9 -83 6 -181 -9 -312 -7 -63 -11
-120 -8 -128 13 -33 110 2 157 58 66 78 70 129 12 149 -40 13 -83 -3 -111 -42
-17 -22 -17 -21 -11 34 4 40 2 58 -7 61 -9 4 -9 8 1 15 11 7 12 34 7 123 -6
110 -17 151 -31 116z m161 -347 c19 -30 -97 -150 -144 -150 -17 0 25 100 56
132 27 28 75 38 88 18z"/>
<path d="M6284 2758 c-13 -41 -8 -101 10 -113 10 -8 16 -27 16 -53 0 -43 -1
-44 -68 -57 -31 -6 -52 -29 -39 -41 3 -3 26 2 51 10 26 9 48 16 50 16 1 0 2
-42 2 -92 -1 -82 1 -93 17 -96 16 -3 18 0 12 28 -4 17 -4 63 0 101 l7 69 49 0
c37 0 49 4 49 15 0 11 -12 15 -50 15 l-50 0 0 73 c0 84 -15 147 -35 147 -7 0
-17 -10 -21 -22z"/>
<path d="M4347 2753 c-4 -3 -7 -37 -7 -74 0 -106 -5 -113 -102 -139 -87 -23
-104 -32 -94 -48 4 -7 35 -2 84 14 42 13 82 24 88 24 8 0 10 -31 8 -102 -2
-57 0 -116 4 -133 17 -63 27 -26 27 100 1 72 4 135 8 141 4 6 26 16 50 22 24
7 55 20 69 31 l25 20 -9 -47 c-13 -67 -15 -236 -3 -242 5 -3 13 15 16 40 9 60
37 122 52 117 7 -2 24 -28 39 -59 31 -65 47 -74 82 -47 l25 20 16 -34 c20 -42
51 -57 115 -57 38 0 50 4 50 15 0 8 7 15 15 15 8 0 15 5 15 11 0 7 -8 9 -22 4
-52 -17 -98 -17 -123 -1 -34 23 -31 47 10 75 40 27 52 59 35 90 -17 33 -57 27
-79 -11 -27 -46 -74 -107 -84 -108 -4 0 -19 25 -33 55 -32 67 -52 80 -84 58
l-23 -16 8 39 c14 79 14 182 -1 195 -15 12 -13 16 -33 -58 -12 -44 -35 -63
-95 -77 l-29 -7 5 90 c4 67 2 91 -7 91 -6 0 -15 -3 -18 -7z m430 -300 c-34
-35 -42 -27 -16 16 15 25 23 31 32 22 8 -8 5 -18 -16 -38z"/>
<path d="M6830 2601 c0 -59 -7 -148 -15 -197 -16 -86 -14 -127 5 -108 14 14
38 169 40 254 3 142 1 160 -15 160 -12 0 -15 -19 -15 -109z"/>
<path d="M10095 2668 c18 -80 20 -119 8 -213 -15 -125 -16 -145 -3 -145 18 0
31 51 41 150 10 109 34 190 55 190 30 0 47 -68 39 -157 -8 -99 7 -111 43 -33
l23 49 37 -41 c28 -31 36 -48 33 -70 -4 -38 22 -76 64 -94 61 -25 300 -16 273
11 -3 3 -62 7 -131 8 -118 2 -127 4 -151 26 -35 33 -35 54 0 41 40 -16 102 4
110 35 7 30 -7 75 -28 88 -21 14 -58 2 -91 -29 -26 -24 -30 -25 -46 -10 -10 9
-27 32 -37 51 -21 40 -39 45 -50 13 -6 -19 -9 -13 -15 30 -8 59 -50 125 -77
120 -9 -2 -26 -20 -37 -41 -20 -34 -40 -43 -28 -11 9 23 -6 64 -23 64 -13 0
-15 -6 -9 -32z m407 -203 c13 -28 4 -42 -27 -45 -61 -6 -73 14 -29 49 34 27
42 26 56 -4z"/>
<path d="M7874 2676 c-6 -16 11 -46 26 -46 4 0 7 12 6 27 -1 30 -23 43 -32 19z"/>
<path d="M6547 2674 c-11 -12 -8 -76 3 -69 6 3 10 1 10 -5 0 -6 3 -9 8 -7 11
8 8 80 -4 84 -5 2 -13 0 -17 -3z"/>
<path d="M6983 2644 c-8 -21 13 -42 28 -27 13 13 5 43 -11 43 -6 0 -13 -7 -17
-16z"/>
<path d="M12689 2616 c-37 -26 -76 -98 -86 -162 -10 -59 20 -41 39 24 9 32 27
71 39 86 20 26 26 27 87 24 76 -4 90 10 37 35 -48 23 -74 21 -116 -7z"/>
<path d="M12415 2581 c-58 -26 -91 -102 -65 -151 22 -41 152 -56 184 -21 17
18 15 19 -46 14 -68 -4 -110 10 -116 40 -3 12 8 22 35 33 121 48 136 60 107
89 -20 19 -49 18 -99 -4z m37 -33 c-24 -11 -46 -17 -49 -14 -7 6 56 34 77 34
8 0 -5 -9 -28 -20z"/>
<path d="M13500 2578 c-84 -42 -140 -178 -92 -221 10 -10 29 -17 43 -17 32 1
96 31 134 63 l31 25 12 -26 c15 -34 50 -58 65 -43 7 7 2 17 -17 32 -26 21 -28
26 -24 87 2 46 -1 66 -9 69 -13 5 -17 -2 -28 -51 -12 -55 -136 -139 -180 -123
-35 14 0 114 55 160 37 32 75 33 75 3 0 -27 22 -31 30 -6 7 24 -18 70 -38 70
-7 0 -33 -10 -57 -22z"/>
<path d="M2553 2523 c-28 -27 -58 -59 -67 -73 -16 -23 -18 -24 -30 -7 -7 9
-18 17 -25 17 -17 0 -13 -28 8 -49 12 -12 17 -27 14 -40 -8 -30 15 -87 42
-105 32 -21 68 -20 96 3 28 22 18 41 -11 23 -55 -34 -97 6 -92 86 1 14 11 26
26 32 29 11 103 75 117 102 12 23 3 58 -16 58 -7 0 -35 -21 -62 -47z m17 -38
c-13 -14 -28 -25 -33 -25 -6 0 0 11 13 25 13 14 28 25 33 25 6 0 0 -11 -13
-25z"/>
<path d="M11829 2540 c-18 -23 -25 -27 -36 -18 -21 17 -27 3 -26 -75 1 -89 20
-96 43 -17 32 108 65 130 75 53 14 -108 28 -120 53 -44 l14 43 22 -27 c24 -30
52 -30 91 0 18 13 18 16 4 28 -8 6 -18 20 -22 30 -3 9 -12 17 -18 17 -8 0 -8
-4 1 -15 10 -12 9 -15 -4 -15 -13 0 -16 -5 -11 -20 11 -36 -13 -21 -32 20 -20
43 -42 52 -50 20 -7 -25 -23 -26 -23 -2 0 20 -29 52 -48 52 -6 0 -21 -13 -33
-30z"/>
<path d="M11345 2518 c-25 -42 -26 -42 -23 -13 2 21 -1 30 -12 30 -11 0 -18
-25 -28 -103 -8 -57 -11 -110 -8 -118 10 -25 25 -15 36 24 17 58 78 169 83
152 12 -35 26 -160 21 -177 -4 -13 -3 -14 4 -5 7 11 11 10 16 -4 4 -11 10 -14
16 -8 6 6 3 42 -6 94 -26 144 -35 170 -55 170 -10 0 -29 -18 -44 -42z"/>
<path d="M7130 2531 c-22 -11 -44 -35 -58 -63 -31 -61 -18 -100 42 -123 45
-17 102 -17 99 0 -1 6 -19 13 -42 17 -61 10 -81 25 -81 58 0 57 74 112 107 79
8 -8 13 -7 18 2 5 7 -1 19 -15 31 -27 22 -27 22 -70 -1z"/>
<path d="M6675 2520 c-10 -11 -26 -43 -36 -72 -9 -29 -23 -54 -31 -56 -10 -3
-10 -1 1 6 7 5 10 15 6 22 -5 8 -11 8 -17 2 -13 -13 0 -92 15 -92 8 0 8 -3 -1
-8 -15 -10 -3 -177 13 -177 12 0 22 45 24 108 1 43 3 47 25 47 18 0 35 15 65
57 50 71 55 120 16 158 -29 30 -56 32 -80 5z m59 -45 c13 -36 -34 -150 -59
-141 -14 4 -8 62 11 114 16 42 37 55 48 27z"/>
<path d="M7972 2497 c-58 -60 -49 -130 16 -130 58 0 74 33 51 104 -20 59 -31
63 -67 26z m48 -75 c0 -20 -4 -23 -27 -20 -23 2 -28 7 -25 27 1 14 8 31 14 39
10 12 14 11 25 -4 7 -10 13 -29 13 -42z"/>
<path d="M8154 2499 c-52 -40 -64 -57 -64 -91 0 -42 27 -35 46 12 18 45 62 86
76 72 6 -6 5 -26 -2 -51 -21 -80 24 -150 86 -135 38 9 84 42 84 60 0 19 -6 18
-39 -7 -36 -26 -81 -22 -97 9 -8 15 -8 39 -1 77 15 89 -19 110 -89 54z"/>
<path d="M11540 2515 c-19 -22 -8 -129 15 -155 56 -62 159 30 141 126 -5 26
-12 34 -27 34 -19 0 -20 -4 -14 -51 6 -44 4 -53 -16 -75 -49 -52 -85 -12 -76
84 6 53 -1 64 -23 37z"/>
<path d="M5495 2488 c-11 -18 -25 -62 -32 -98 -16 -88 -15 -100 2 -100 8 0 15
2 15 4 0 15 31 146 40 170 l11 29 16 -23 c9 -13 18 -52 21 -91 4 -62 14 -90
28 -77 2 3 11 31 19 63 26 98 29 98 70 7 21 -45 44 -82 51 -82 8 0 14 4 14 9
0 22 -92 201 -103 201 -7 0 -21 -16 -31 -36 l-17 -36 -22 43 c-28 56 -55 62
-82 17z"/>
<path d="M5957 2514 c-3 -4 -4 -25 -1 -48 6 -38 4 -43 -20 -54 -15 -7 -31 -12
-36 -12 -17 0 -40 32 -40 54 0 27 -25 53 -35 37 -10 -17 17 -91 39 -107 29
-20 61 -17 101 9 42 27 50 47 35 92 -11 32 -28 44 -43 29z"/>
<path d="M7360 2501 c-27 -14 -35 -25 -35 -46 0 -37 42 -51 91 -30 l34 14 0
-42 c0 -46 17 -88 39 -95 11 -4 12 2 6 24 -5 16 -11 54 -14 84 -7 61 -6 61
-96 45 l-40 -6 24 20 c13 12 32 21 42 21 10 0 19 7 19 15 0 20 -28 19 -70 -4z"/>
<path d="M2955 2480 c-16 -31 -79 -70 -92 -56 -12 11 12 41 36 44 29 5 27 32
-3 32 -24 0 -76 -41 -76 -60 0 -50 52 -64 108 -30 18 11 34 20 36 20 2 0 9
-35 15 -77 7 -43 14 -88 17 -99 3 -17 -2 -23 -27 -28 -17 -3 -44 -20 -61 -36
-27 -27 -30 -36 -25 -71 19 -143 147 -98 147 52 l0 41 34 -6 c23 -4 37 -2 45
8 14 17 7 22 -39 25 -39 2 -50 14 -50 54 0 15 -6 58 -14 95 -8 37 -14 78 -13
91 3 36 -20 37 -38 1z m45 -312 c0 -41 -30 -103 -50 -103 -20 0 -43 51 -36 80
6 23 47 54 74 55 7 0 12 -13 12 -32z"/>
<path d="M9257 2483 c-10 -10 3 -74 20 -102 12 -19 21 -22 49 -18 19 3 34 4
34 2 0 -2 -11 -50 -25 -107 -33 -134 -33 -228 -1 -228 7 0 11 26 12 78 0 79
31 221 64 294 19 42 16 88 -6 88 -9 0 -14 -11 -14 -28 0 -29 -20 -54 -54 -66
-24 -8 -46 10 -46 39 0 43 -16 66 -33 48z"/>
<path d="M6476 2472 c-3 -4 -1 -26 4 -48 5 -21 10 -58 10 -80 0 -27 5 -44 15
-47 8 -4 16 -3 18 1 5 8 -10 136 -18 163 -7 20 -20 25 -29 11z"/>
<path d="M6907 2473 c-23 -22 5 -133 34 -133 12 0 12 37 -1 45 -5 3 -10 26
-10 51 0 41 -7 53 -23 37z"/>
<path d="M3343 2354 c-26 -13 -33 -23 -33 -45 0 -19 5 -29 15 -29 8 0 15 9 15
20 0 13 12 25 36 35 19 8 33 19 29 25 -9 14 -24 12 -62 -6z"/>
<path d="M2680 2320 c0 -11 7 -23 16 -27 20 -8 36 17 22 34 -16 20 -38 15 -38
-7z"/>
<path d="M12550 2009 c-6 -11 -22 -117 -35 -234 -13 -117 -31 -244 -40 -281
-8 -37 -12 -71 -8 -75 5 -4 21 3 37 16 24 19 27 26 18 38 -9 11 -8 40 4 128 9
63 19 116 24 119 12 8 15 32 6 68 -4 19 -3 70 4 118 9 65 16 87 31 95 11 5 17
14 14 20 -11 16 -44 10 -55 -12z"/>
<path d="M10212 1947 c-28 -29 -47 -85 -62 -180 -13 -76 -13 -77 -46 -83 -19
-3 -34 -12 -34 -18 0 -21 11 -25 37 -15 l26 10 -7 -61 c-7 -56 3 -100 22 -100
4 0 8 34 9 76 1 42 5 80 10 85 9 8 75 25 134 34 23 3 36 11 36 20 0 12 -8 14
-34 10 -92 -14 -106 -17 -119 -22 -17 -6 -15 14 8 122 19 88 55 133 72 90 8
-21 26 -19 26 3 0 20 -29 52 -47 52 -5 0 -19 -10 -31 -23z"/>
<path d="M11893 1916 c-12 -24 -27 -80 -34 -124 -12 -79 -13 -80 -45 -86 -32
-7 -62 -31 -51 -42 3 -4 20 -1 38 5 48 16 49 15 49 -43 0 -29 5 -77 10 -107 7
-37 7 -55 0 -57 -21 -7 -10 -33 13 -30 25 3 25 4 12 167 l-8 94 46 -7 c28 -4
48 -3 52 4 7 12 -35 30 -71 30 -16 0 -24 6 -24 18 1 35 27 138 43 169 20 38
21 53 4 53 -7 0 -23 -20 -34 -44z"/>
<path d="M8206 1923 c-4 -4 -4 -55 0 -113 l7 -105 -64 -14 c-84 -17 -129 -36
-129 -55 0 -18 11 -21 26 -7 12 11 145 43 152 36 7 -7 -17 -114 -34 -149 -16
-34 -11 -45 14 -30 18 12 50 109 51 157 1 33 23 35 94 11 60 -20 81 -55 71
-120 -5 -36 -3 -44 9 -44 24 0 33 80 14 127 -12 31 -24 42 -68 60 -30 12 -66
22 -81 23 -28 0 -28 0 -30 78 -1 77 -3 116 -6 140 -2 13 -15 16 -26 5z"/>
<path d="M11682 1873 c-35 -85 -62 -362 -40 -416 18 -42 28 0 28 111 1 128 19
251 44 300 20 38 20 52 2 52 -7 0 -23 -21 -34 -47z"/>
<path d="M13396 1912 c-3 -5 -8 -70 -12 -145 l-7 -136 -61 -3 c-80 -4 -79 -22
2 -26 l62 -3 0 -109 c0 -91 3 -110 15 -110 12 0 15 19 15 110 0 61 2 110 4
110 1 0 17 -5 34 -11 29 -10 31 -13 31 -65 0 -64 8 -94 25 -94 16 0 9 161 -8
173 -6 4 -28 12 -50 18 l-38 10 7 139 c4 90 3 140 -3 144 -6 3 -13 2 -16 -2z"/>
<path d="M3370 1864 c-6 -14 -9 -56 -8 -92 1 -37 -4 -94 -10 -127 -9 -48 -9
-77 2 -138 7 -43 16 -80 20 -84 25 -25 50 113 41 222 -5 54 -3 75 8 90 15 19
16 19 36 1 28 -25 41 -76 41 -158 0 -110 16 -127 50 -50 12 26 28 58 36 70
l16 24 31 -43 c17 -23 38 -56 47 -73 22 -45 72 -66 155 -66 86 0 115 8 114 29
0 9 -2 12 -5 6 -5 -13 -182 -3 -210 13 -36 19 -36 39 -1 46 72 14 102 70 59
109 -29 26 -61 20 -96 -18 l-32 -34 -27 34 c-15 19 -32 35 -37 35 -5 0 -22
-19 -37 -42 l-28 -42 -8 63 c-13 103 -57 161 -112 147 -22 -6 -25 -3 -25 22 0
15 5 33 11 39 13 13 5 43 -11 43 -6 0 -15 -12 -20 -26z m407 -250 c7 -20 -14
-41 -49 -49 -35 -9 -37 9 -6 42 25 27 46 30 55 7z"/>
<path d="M4564 1836 c-3 -8 0 -24 6 -36 16 -29 35 -11 26 24 -7 28 -23 34 -32
12z"/>
<path d="M2395 1810 c-7 -11 12 -50 24 -50 11 0 22 40 15 52 -7 11 -31 10 -39
-2z"/>
<path d="M8455 1801 c-8 -26 5 -53 22 -47 8 3 19 6 24 6 15 0 10 26 -9 43 -24
22 -29 21 -37 -2z"/>
<path d="M12700 1811 c-12 -8 -12 -13 4 -30 19 -21 46 -28 46 -12 0 5 -8 18
-17 30 -13 15 -22 18 -33 12z"/>
<path d="M12127 1766 c-7 -17 2 -56 13 -56 10 0 22 48 15 60 -9 14 -22 12 -28
-4z"/>
<path d="M13560 1751 c0 -12 4 -21 9 -21 5 0 17 -3 26 -6 13 -5 16 -2 13 17
-4 32 -48 41 -48 10z"/>
<path d="M5397 1732 c-32 -35 -48 -172 -27 -226 18 -48 26 -27 25 69 0 84 2
97 22 116 16 16 25 20 35 12 7 -6 22 -7 32 -4 17 7 15 10 -16 29 -43 27 -50
27 -71 4z"/>
<path d="M5805 1706 c-16 -7 -41 -25 -54 -40 -14 -14 -33 -26 -43 -26 -11 0
-18 -7 -18 -20 0 -11 4 -20 9 -20 5 0 11 -13 14 -29 13 -63 88 -121 187 -142
57 -12 106 -1 135 31 25 28 10 37 -24 17 -67 -40 -210 -2 -252 67 -24 39 -24
66 -1 67 62 2 130 26 142 50 26 48 -29 74 -95 45z m65 -26 c0 -14 -49 -32 -74
-27 -18 3 -16 6 14 20 41 19 60 21 60 7z"/>
<path d="M7113 1708 c-12 -6 -35 -36 -52 -67 -65 -123 -71 -402 -7 -378 18 7
39 105 34 162 -3 40 -1 44 24 49 17 3 39 21 56 45 l29 40 11 -25 c7 -13 23
-29 38 -34 34 -13 120 -13 145 1 21 11 17 29 -7 29 -8 0 -13 -4 -9 -9 5 -9
-16 -8 -104 5 l-35 6 60 24 c32 13 60 24 61 24 1 0 7 9 13 20 14 26 -3 60 -31
60 -30 0 -94 -36 -118 -65 l-20 -26 6 34 c6 39 -16 91 -46 107 -23 12 -20 12
-48 -2z m45 -40 c23 -29 23 -59 2 -103 -12 -25 -31 -50 -41 -56 -22 -11 -59
-3 -59 12 0 6 5 7 10 4 10 -6 15 26 11 76 -2 28 33 79 54 79 7 0 17 -6 23 -12z
m182 -48 c0 -10 -39 -33 -79 -45 -35 -11 -18 11 27 35 42 22 52 24 52 10z
m-282 -225 c0 -22 -4 -51 -8 -65 -5 -17 -8 3 -8 60 0 56 2 78 8 65 5 -11 8
-38 8 -60z"/>
<path d="M5016 1698 c-3 -7 -7 -58 -10 -112 -4 -54 -9 -103 -12 -108 -14 -23
-90 84 -97 137 -4 30 -21 44 -32 26 -18 -30 67 -185 117 -212 31 -17 38 -1 51
112 6 57 15 107 19 110 11 7 -8 59 -22 59 -6 0 -12 -6 -14 -12z"/>
<path d="M7509 1664 c-19 -43 -20 -51 -7 -122 9 -56 17 -77 28 -77 10 0 14 8
12 25 -7 53 -2 141 9 161 11 21 36 23 99 8 34 -8 12 24 -25 37 -73 25 -94 20
-116 -32z"/>
<path d="M5173 1676 c-38 -32 -67 -97 -59 -130 3 -14 20 -32 36 -41 39 -20
129 -20 159 1 28 20 14 42 -17 25 -33 -17 -107 -13 -132 7 l-22 18 40 18 c23
10 51 29 63 42 19 20 21 29 13 52 -13 36 -44 39 -81 8z m54 -23 c4 -10 -55
-53 -71 -53 -4 0 5 16 20 35 26 34 44 41 51 18z"/>
<path d="M5526 1684 c-7 -18 18 -64 34 -64 5 0 16 -13 25 -30 14 -26 14 -33
-1 -69 -18 -44 -37 -57 -54 -35 -14 16 -40 19 -40 4 0 -13 37 -50 51 -50 26 0
52 25 71 67 24 55 18 86 -25 132 l-32 34 27 -5 c16 -3 29 0 32 8 7 18 -3 24
-45 24 -25 0 -39 -5 -43 -16z"/>
<path d="M12301 1674 c-39 -33 -76 -95 -98 -165 -21 -68 -24 -224 -4 -258 13
-24 14 -24 28 -5 12 15 14 38 9 106 -7 99 -2 118 27 118 35 0 106 40 132 74
29 38 32 83 10 126 -20 39 -61 40 -104 4z m83 -30 c13 -33 5 -64 -24 -92 -29
-30 -96 -60 -107 -48 -3 3 6 30 21 60 38 78 95 119 110 80z"/>
<path d="M2565 1670 c-12 -20 7 -51 45 -70 50 -25 54 -33 36 -67 -35 -68 -86
-81 -86 -22 0 41 -24 33 -28 -10 -10 -97 112 -68 148 36 15 42 2 64 -48 87
-30 14 -38 22 -35 37 6 20 -21 28 -32 9z"/>
<path d="M7796 1640 c-37 -42 -47 -85 -24 -108 20 -20 90 -14 136 13 l42 24 0
-36 c0 -43 28 -93 52 -93 22 0 23 8 1 32 -11 12 -19 44 -22 90 -6 77 -23 97
-43 53 -23 -52 -148 -90 -148 -46 0 11 12 34 27 51 23 27 31 31 60 25 34 -6
42 2 21 23 -24 24 -64 14 -102 -28z"/>
<path d="M8840 1645 c-19 -20 -36 -31 -38 -25 -6 16 -30 12 -36 -7 -2 -10 -8
-37 -11 -60 -8 -52 5 -56 36 -10 27 39 80 97 90 97 3 0 9 -24 12 -52 7 -57 28
-82 60 -72 10 3 40 9 65 13 35 4 48 11 50 25 3 15 -1 18 -20 13 -12 -3 -44 -9
-70 -12 l-46 -7 -7 48 c-13 99 -29 107 -85 49z"/>
<path d="M6870 1660 c0 -5 -12 -10 -27 -10 -32 0 -97 -55 -89 -75 3 -8 1 -15
-4 -17 -15 -5 14 -52 40 -65 14 -7 42 -13 63 -13 98 0 138 76 80 153 -26 34
-63 50 -63 27z m44 -52 c22 -32 20 -64 -6 -82 -26 -18 -80 -21 -109 -6 -44 24
-5 94 56 103 17 2 33 5 37 6 4 0 14 -9 22 -21z"/>
<path d="M14024 1657 c-11 -7 -37 -25 -57 -42 -20 -16 -45 -30 -54 -30 -22 0
-53 -59 -53 -102 0 -48 16 -48 39 1 26 53 122 146 150 146 16 0 21 -7 22 -27
4 -70 8 -93 23 -121 21 -40 50 -55 90 -48 33 7 115 70 105 81 -4 3 -33 -5 -65
-19 -64 -26 -74 -24 -99 23 -7 15 -16 48 -20 74 -11 70 -36 90 -81 64z"/>
<path d="M4511 1638 c1 -44 26 -169 36 -179 20 -20 22 8 8 97 -8 49 -15 92
-15 97 0 4 -7 7 -15 7 -9 0 -15 -9 -14 -22z"/>
<path d="M4702 1643 c-13 -25 -42 -127 -42 -148 0 -10 6 -15 18 -13 9 2 16 9
15 14 -1 6 6 37 16 70 l19 59 16 -38 c9 -20 19 -59 22 -85 11 -96 15 -112 30
-112 30 0 -4 195 -43 241 -29 34 -39 36 -51 12z"/>
<path d="M11057 1613 c-19 -27 -39 -57 -45 -68 -11 -19 -11 -19 -12 3 0 13 4
31 9 41 13 23 -3 51 -19 35 -20 -20 -39 -214 -22 -214 5 0 25 33 46 73 20 39
45 83 56 97 l20 25 0 -62 c0 -34 4 -64 10 -68 5 -3 30 22 55 57 l45 62 0 -46
c0 -45 18 -78 41 -78 17 0 69 30 69 39 0 5 -18 7 -40 4 l-40 -6 0 67 c0 80
-12 85 -64 24 -35 -42 -36 -42 -36 -16 0 34 -17 78 -29 78 -5 0 -25 -21 -44
-47z"/>
<path d="M8566 1610 c-22 -22 -30 -39 -30 -66 0 -59 36 -74 101 -42 24 12 49
61 38 77 -3 6 1 11 9 11 22 0 20 27 -1 34 -62 18 -88 15 -117 -14z m74 -30 c8
-15 6 -24 -10 -40 -11 -11 -29 -20 -40 -20 -28 0 -27 44 2 64 29 21 35 20 48
-4z"/>
<path d="M2380 1618 c0 -38 31 -193 39 -201 17 -17 35 7 23 29 -5 11 -13 48
-17 84 -3 36 -9 73 -11 83 -6 19 -34 24 -34 5z"/>
<path d="M9914 1620 c-24 -10 -54 -52 -54 -77 0 -29 29 -63 54 -63 27 0 66 34
66 59 0 24 -28 91 -38 90 -4 0 -16 -4 -28 -9z m36 -75 c0 -6 -5 -16 -12 -23
-33 -33 -63 15 -32 49 17 19 19 19 31 3 7 -10 13 -23 13 -29z"/>
<path d="M11356 1614 c-19 -50 8 -114 48 -114 30 0 94 49 102 78 8 31 -20 62
-38 44 -7 -7 -12 -24 -13 -39 0 -35 -49 -67 -66 -43 -5 8 -7 32 -4 53 4 28 2
37 -9 37 -8 0 -17 -7 -20 -16z"/>
<path d="M13683 1610 c-29 -12 -53 -60 -53 -104 0 -27 6 -40 26 -52 35 -24 81
-22 107 4 20 20 20 25 9 68 -13 49 -41 94 -57 93 -5 0 -20 -4 -32 -9z m60
-106 c2 -31 -16 -40 -59 -30 -31 8 -33 52 -3 91 l22 27 19 -30 c10 -17 20 -43
21 -58z"/>
<path d="M12072 1598 c-16 -16 -16 -140 0 -156 19 -19 42 -15 32 6 -5 9 -9 47
-10 84 -1 74 -4 84 -22 66z"/>
<path d="M12798 1573 c-62 -67 -77 -147 -32 -182 50 -39 164 -37 164 3 0 12
-6 12 -35 3 -25 -7 -45 -7 -75 2 -50 15 -60 45 -34 102 21 48 48 69 87 69 41
0 29 24 -14 28 -27 2 -40 -3 -61 -25z"/>
<path d="M12647 1583 c-2 -5 -4 -37 -3 -73 1 -52 4 -65 18 -68 13 -3 16 6 17
45 1 79 -15 126 -32 96z"/>
<path d="M13057 1562 c-70 -78 1 -165 80 -98 l31 26 6 -30 c4 -21 11 -30 26
-30 21 0 27 15 10 25 -7 4 -8 24 -5 50 10 63 -9 67 -60 11 -49 -53 -85 -62
-85 -21 0 15 11 36 25 49 14 13 25 26 25 30 0 13 -38 5 -53 -12z"/>
<path d="M12946 1414 c-8 -22 1 -31 16 -16 9 9 9 15 1 23 -7 7 -12 5 -17 -7z"/>
<path d="M4020 1386 c0 -7 -31 -402 -33 -421 -1 -12 4 -20 12 -20 15 0 31 57
50 183 6 40 22 94 35 120 27 52 82 110 93 98 5 -4 10 -51 11 -105 3 -77 0
-109 -16 -156 -11 -33 -18 -63 -16 -67 11 -18 25 -5 61 57 21 35 41 65 45 65
4 0 9 -9 13 -20 3 -11 16 -28 29 -37 12 -10 26 -30 29 -45 11 -42 39 -52 135
-45 47 4 87 8 90 11 2 3 1 13 -3 23 -5 10 -7 26 -6 36 3 20 -3 21 -30 6 -11
-6 -18 -17 -15 -24 6 -18 -15 -25 -74 -25 -73 0 -95 41 -30 55 61 13 98 63 68
93 -23 23 -56 13 -91 -28 -19 -22 -39 -40 -45 -40 -13 0 -42 51 -42 75 0 22
-29 18 -52 -7 l-19 -23 5 47 c6 51 -10 155 -26 176 -6 6 -18 12 -27 12 -22 0
-87 -64 -112 -109 l-20 -36 7 78 c5 66 3 77 -10 77 -9 0 -16 -2 -16 -4z m430
-246 c0 -11 -33 -30 -51 -30 -8 0 -5 7 6 20 19 21 45 27 45 10z"/>
<path d="M6156 1378 c-2 -7 -11 -65 -20 -128 -10 -63 -22 -137 -27 -163 -15
-81 -12 -147 9 -153 9 -3 27 -11 40 -17 13 -6 40 -10 60 -10 30 1 43 9 69 39
18 20 36 52 39 71 9 48 -1 111 -22 134 -36 40 -118 11 -144 -51 -7 -17 -15
-29 -17 -26 -6 6 37 268 47 287 5 9 6 20 3 23 -11 10 -33 7 -37 -6z m125 -275
c23 -61 -19 -153 -70 -153 -30 0 -51 16 -51 40 0 39 72 140 101 140 5 0 14
-12 20 -27z"/>
<path d="M2770 1257 c0 -52 -3 -134 -6 -183 -7 -105 1 -123 62 -131 37 -5 45
-2 82 34 37 36 42 45 42 86 0 59 -16 95 -51 113 -38 19 -49 18 -77 -8 l-25
-23 6 70 c6 86 -1 135 -19 135 -11 0 -14 -20 -14 -93z m140 -137 c13 -24 13
-76 0 -101 -14 -25 -66 -51 -89 -44 -42 13 -31 115 18 164 24 24 52 16 71 -19z"/>
<path d="M9999 1325 c-1 -6 -2 -32 -3 -60 -1 -27 -6 -76 -10 -109 -8 -54 -8
-58 10 -54 16 3 20 17 28 101 7 86 6 101 -8 115 -9 9 -17 12 -17 7z"/>
<path d="M9580 1265 c-14 -8 -33 -14 -42 -15 -21 0 -33 -19 -21 -31 6 -6 26
-3 55 10 24 10 56 17 70 14 29 -6 48 15 27 28 -21 13 -61 10 -89 -6z"/>
<path d="M5560 1211 c0 -11 4 -22 8 -25 4 -2 6 -23 4 -45 -3 -31 -12 -48 -34
-67 -41 -34 -53 -20 -54 64 -1 50 -4 67 -15 67 -23 0 -19 -137 5 -164 27 -30
47 -26 90 17 60 58 73 115 36 152 -25 25 -40 25 -40 1z"/>
<path d="M7763 1188 c-78 -73 -106 -163 -59 -193 22 -15 27 -15 56 0 18 9 51
34 74 55 l41 38 -3 -37 c-3 -32 1 -42 24 -60 28 -22 65 -25 71 -6 2 6 -11 15
-29 20 -36 11 -39 22 -23 118 10 64 -9 63 -58 -3 -63 -84 -147 -125 -147 -72
0 39 90 152 121 152 5 0 6 -13 3 -30 -5 -23 -3 -30 10 -30 15 0 19 12 19 55
-1 33 -2 35 -28 35 -16 0 -43 -16 -72 -42z"/>
<path d="M5227 1193 c-9 -9 -29 -17 -44 -18 -27 0 -28 -2 -36 -68 -4 -38 -12
-77 -17 -87 -14 -26 -12 -50 4 -50 7 0 23 26 35 58 27 69 68 142 81 142 12 0
12 -80 0 -140 -5 -25 -6 -55 -3 -67 6 -28 33 -38 52 -19 13 14 13 16 -3 22
-15 6 -16 17 -10 100 6 78 4 98 -10 119 -19 30 -26 31 -49 8z"/>
<path d="M6524 1177 c-24 -14 -76 -72 -93 -104 -18 -36 -13 -77 13 -102 20
-19 35 -22 99 -22 73 0 123 13 113 30 -3 4 -41 6 -84 3 -86 -5 -122 6 -122 38
0 26 11 51 20 45 12 -7 82 24 108 48 28 26 28 42 0 61 -26 19 -27 19 -54 3z
m36 -37 c0 -9 -51 -40 -66 -40 -4 0 3 11 16 25 24 25 50 33 50 15z"/>
<path d="M12231 1105 c-6 -42 -11 -87 -11 -101 0 -13 -4 -32 -9 -42 -16 -30
-53 -179 -49 -198 2 -11 9 -19 17 -19 20 0 59 142 71 256 5 52 12 114 16 137
5 34 4 42 -9 42 -11 0 -18 -20 -26 -75z"/>
<path d="M5700 1075 c0 -110 12 -122 47 -47 13 26 32 58 44 72 l21 25 -5 -70
c-3 -39 -7 -77 -9 -85 -2 -7 4 -15 12 -17 10 -2 24 15 40 47 26 53 76 120 90
120 4 0 10 -40 12 -90 2 -66 7 -94 20 -106 25 -26 41 -8 23 26 -9 18 -15 56
-15 99 0 38 -3 76 -6 85 -12 31 -51 18 -93 -30 l-41 -47 0 46 c0 25 -4 49 -10
52 -16 10 -48 -13 -75 -53 l-25 -37 0 53 c0 40 -4 52 -15 52 -12 0 -15 -17
-15 -95z"/>
<path d="M8185 1149 c-9 -13 27 -40 39 -29 12 12 0 40 -18 40 -8 0 -18 -5 -21
-11z"/>
<path d="M2985 1138 c-8 -19 36 -106 69 -137 16 -15 31 -21 42 -17 13 5 14 3
6 -6 -5 -7 -22 -42 -37 -77 -21 -52 -25 -69 -16 -88 15 -34 31 -28 29 11 -1
20 13 62 37 110 41 84 58 166 33 166 -8 0 -25 -18 -37 -41 -13 -22 -28 -38
-34 -36 -7 2 -24 28 -40 58 -35 66 -45 77 -52 57z"/>
<path d="M6774 1138 c-39 -18 -50 -53 -46 -146 2 -36 5 -43 20 -40 9 2 17 11
17 20 0 9 10 27 23 40 27 30 28 42 2 35 -14 -4 -20 0 -20 13 0 31 26 43 80 37
62 -7 71 5 24 32 -38 23 -67 25 -100 9z"/>
<path d="M13772 1098 c-44 -59 -72 -118 -72 -155 0 -13 12 -35 26 -50 24 -24
30 -25 86 -19 52 6 88 22 88 39 0 3 -28 2 -62 0 -53 -4 -67 -2 -87 14 l-25 20
18 48 c10 26 38 68 62 93 49 50 53 62 25 62 -11 0 -35 -22 -59 -52z"/>
<path d="M13595 1120 c-10 -16 3 -29 25 -23 28 7 57 -59 41 -94 -15 -34 -101
-86 -118 -72 -20 17 -30 -19 -10 -38 11 -11 24 -13 44 -9 32 9 111 88 119 122
6 24 -11 89 -29 112 -11 14 -63 16 -72 2z"/>
<path d="M9323 1050 c-73 -44 -138 -193 -103 -235 29 -35 89 -11 152 60 l27
30 -1 -35 c-2 -77 22 -99 90 -81 39 11 77 42 66 54 -4 3 -19 0 -35 -8 -15 -8
-42 -15 -59 -15 -27 0 -30 3 -29 33 0 17 6 59 13 92 14 63 6 101 -19 91 -7 -2
-21 4 -31 15 -21 24 -31 24 -71 -1z m62 -32 c14 -6 25 -15 25 -21 0 -44 -114
-171 -148 -165 -42 8 -15 99 52 171 28 30 35 32 71 15z"/>
<path d="M8180 1040 c-24 -21 -21 -50 5 -50 18 0 45 23 45 38 0 5 -6 15 -13
21 -11 8 -19 6 -37 -9z"/>
<path d="M10332 1040 c-39 -16 -120 -105 -131 -145 -28 -101 49 -122 148 -39
l31 26 0 -24 c0 -12 9 -38 20 -55 23 -38 47 -45 34 -10 -7 19 -7 61 -1 162 3
42 -27 46 -41 6 -19 -54 -117 -136 -148 -124 -8 3 -14 17 -14 30 0 66 100 156
168 152 60 -3 66 -1 48 16 -16 17 -78 19 -114 5z"/>
<path d="M10646 1041 c-9 -15 2 -31 17 -26 19 8 77 -33 77 -54 0 -30 -36 -68
-85 -87 -48 -20 -57 -46 -18 -52 15 -2 37 11 68 39 44 40 45 41 45 16 0 -13 8
-35 19 -48 l19 -23 58 18 c75 23 114 39 114 48 0 17 -20 16 -70 -3 -65 -25
-110 -19 -110 15 0 28 55 112 86 133 29 19 31 33 5 33 -11 0 -38 -21 -60 -46
-23 -26 -41 -40 -41 -32 0 38 -107 98 -124 69z"/>
<path d="M13120 1043 c-63 -5 -75 -10 -61 -26 8 -10 38 -13 118 -11 97 3 139
13 116 27 -13 8 -123 15 -173 10z"/>
<path d="M11405 1033 c-47 -4 -75 -16 -75 -33 0 -10 200 -9 206 1 13 22 -52
38 -131 32z"/>
<path d="M12552 1024 c-13 -9 -37 -34 -53 -57 l-29 -40 -10 29 c-15 44 -90 80
-90 44 0 -5 14 -16 30 -25 43 -22 41 -61 -5 -105 -19 -19 -35 -29 -35 -22 0
17 -27 15 -33 -2 -7 -17 11 -36 35 -36 9 0 36 18 58 39 34 32 42 36 46 23 10
-32 21 -47 45 -61 21 -12 32 -11 82 3 38 11 57 22 57 32 0 13 -5 14 -22 9 -36
-13 -95 -10 -112 4 -9 7 -16 23 -16 35 0 31 57 105 86 112 14 4 23 11 21 18
-6 18 -30 18 -55 0z"/>
<path d="M13155 931 c-88 -24 -100 -30 -88 -42 7 -7 36 -4 91 10 45 12 93 18
110 15 26 -5 52 9 40 22 -13 12 -101 10 -153 -5z"/>
<path d="M11395 924 c-45 -17 -60 -28 -51 -42 3 -5 27 -2 58 9 29 10 77 18
106 19 38 0 52 4 50 13 -6 18 -115 19 -163 1z"/>
</g>
</svg>
