<?xml version="1.0" standalone="no"?>
<!DOCTYPE svg PUBLIC "-//W3C//DTD SVG 20010904//EN"
 "http://www.w3.org/TR/2001/REC-SVG-20010904/DTD/svg10.dtd">
<svg version="1.0" xmlns="http://www.w3.org/2000/svg"
 width="1617.000000pt" height="1213.000000pt" viewBox="0 0 1617.000000 1213.000000"
 preserveAspectRatio="xMidYMid meet">

<g transform="translate(0.000000,1213.000000) scale(0.100000,-0.100000)"
fill="#000000" stroke="none">
<path d="M12524 11629 c-23 -6 -50 -19 -60 -30 -17 -19 -17 -21 -1 -37 17 -16
18 -16 23 5 3 11 16 24 27 27 33 9 77 7 77 -2 0 -16 -57 -87 -134 -165 -83
-85 -95 -119 -46 -125 32 -4 214 60 209 73 -6 14 -43 8 -122 -21 -38 -13 -73
-24 -80 -24 -6 0 23 35 65 78 131 134 171 211 116 226 -13 3 -25 5 -28 5 -3
-1 -24 -5 -46 -10z"/>
<path d="M13191 11595 c-51 -55 -108 -172 -117 -238 -8 -54 12 -87 51 -87 22
0 107 49 120 70 10 17 -14 68 -36 75 -12 4 -37 -2 -59 -14 -22 -11 -40 -16
-40 -11 0 20 63 136 96 177 26 31 39 40 55 36 17 -5 20 -2 17 13 -6 36 -42 27
-87 -21z m23 -239 c-5 -14 -75 -56 -93 -56 -6 0 -11 10 -11 23 0 17 11 28 43
44 42 21 71 16 61 -11z"/>
<path d="M14130 11613 c-12 -16 -28 -43 -35 -60 -8 -18 -19 -33 -24 -33 -6 0
-11 -7 -11 -15 0 -18 -66 -151 -78 -159 -17 -11 -45 32 -38 58 8 32 63 96 82
96 8 0 14 9 14 20 0 11 -4 20 -9 20 -21 0 -78 -49 -98 -85 -31 -55 -29 -91 5
-123 27 -26 27 -28 14 -67 -15 -44 -13 -97 4 -102 7 -2 13 16 17 44 10 84 21
103 62 103 43 0 110 32 125 59 17 33 11 76 -15 115 -14 20 -25 43 -25 51 0 7
11 27 25 43 14 17 25 35 25 40 0 23 -20 21 -40 -5z m-10 -173 c12 -28 11 -34
-6 -50 -18 -17 -94 -54 -94 -45 0 14 73 134 80 130 4 -2 13 -18 20 -35z"/>
<path d="M12996 11618 c-2 -7 -13 -42 -24 -78 -22 -68 -52 -212 -52 -248 0
-11 5 -24 11 -28 13 -8 31 16 24 33 -6 17 31 188 55 256 11 32 18 62 15 68 -9
13 -25 11 -29 -3z"/>
<path d="M12282 11576 c-26 -55 -75 -243 -68 -262 3 -8 12 -14 21 -14 15 0 19
10 16 42 -3 23 37 172 56 213 9 19 23 35 31 35 21 0 8 25 -14 28 -15 2 -25 -9
-42 -42z"/>
<path d="M14522 11603 c-52 -3 -72 -7 -69 -16 3 -8 34 -12 100 -12 54 0 96 -2
94 -5 -1 -3 -17 -33 -35 -68 l-33 -63 -42 3 c-32 2 -42 -1 -42 -12 0 -10 12
-16 33 -18 27 -3 32 -7 27 -20 -4 -9 -10 -36 -12 -59 -5 -35 -3 -43 11 -43 10
0 16 9 16 25 0 14 7 41 14 60 15 34 16 35 75 35 48 0 61 3 61 15 0 11 -12 15
-50 15 -27 0 -50 3 -50 7 0 3 14 31 31 61 16 29 29 63 27 75 -3 24 -21 27
-156 20z"/>
<path d="M14332 11564 c-23 -44 -64 -180 -65 -217 -2 -32 2 -42 16 -45 19 -4
38 29 20 35 -12 4 0 57 39 166 15 41 18 61 10 69 -7 7 -13 5 -20 -8z"/>
<path d="M13660 11552 c-37 -18 -55 -62 -26 -62 9 0 16 4 16 10 0 14 55 40 85
40 14 0 25 -4 25 -9 0 -5 -26 -43 -58 -83 -80 -100 -93 -123 -86 -141 9 -25
36 -29 110 -17 73 12 84 16 84 32 0 9 -59 6 -132 -8 -43 -8 -35 12 37 101 66
80 82 112 71 140 -8 21 -82 19 -126 -3z"/>
<path d="M14923 11376 c-15 -13 -44 -31 -63 -41 -148 -75 -240 -228 -228 -379
8 -100 72 -156 222 -195 81 -22 95 -23 156 -12 187 34 297 151 336 362 21 107
14 173 -21 209 -40 42 -181 79 -302 80 -61 0 -76 -4 -100 -24z m169 -25 c30
-1 44 -8 69 -36 33 -36 69 -46 69 -20 0 8 -6 15 -14 15 -7 0 -19 7 -26 15 -10
12 -9 15 7 15 28 0 85 -20 105 -37 40 -35 29 -200 -22 -310 -55 -120 -145
-190 -275 -214 -45 -8 -69 -6 -144 11 -155 37 -209 96 -197 219 14 160 131
288 306 336 25 7 54 11 65 10 11 -2 37 -4 57 -4z"/>
<path d="M15115 11233 c-11 -2 -47 -11 -81 -19 -70 -16 -137 -18 -164 -4 -24
13 -37 -5 -20 -25 14 -17 111 -20 170 -6 55 12 62 5 35 -37 -58 -88 -52 -84
-118 -80 -52 2 -62 0 -65 -14 -3 -16 5 -18 53 -18 l56 0 -52 -74 c-49 -70 -55
-96 -24 -96 8 0 39 38 70 84 60 88 72 96 152 96 38 0 76 16 68 29 -2 5 -35 6
-72 3 l-67 -5 17 26 c9 15 25 39 34 55 9 15 26 35 37 44 19 15 19 19 6 31 -8
7 -24 12 -35 10z"/>
<path d="M12707 11354 c-18 -18 -5 -32 29 -32 27 0 34 4 32 17 -3 16 -48 28
-61 15z"/>
<path d="M2785 11275 c-60 -19 -159 -46 -220 -61 -115 -28 -136 -37 -119 -54
6 -6 33 -2 74 9 36 10 135 38 220 61 85 24 161 45 168 47 19 8 15 -52 -14
-184 -14 -65 -37 -142 -52 -170 -19 -38 -23 -56 -15 -64 7 -7 19 4 42 41 17
28 42 55 55 61 21 10 29 7 60 -17 25 -21 34 -34 30 -47 -9 -29 15 -74 47 -87
35 -15 132 -9 154 10 23 19 4 33 -29 20 -46 -17 -104 -12 -127 11 -30 30 -20
49 36 70 73 27 123 99 80 115 -27 11 -64 -6 -104 -47 -41 -43 -58 -44 -91 -5
-7 9 -25 16 -41 16 -16 0 -29 4 -29 8 0 5 9 53 21 108 21 103 26 164 15 183
-11 17 -41 12 -161 -24z m342 -301 c-41 -35 -58 -29 -19 7 19 17 37 27 40 24
4 -4 -6 -18 -21 -31z"/>
<path d="M5103 11299 c-16 -16 -17 -41 -2 -56 10 -10 -3 -62 -90 -358 -23 -78
-26 -111 -10 -120 15 -10 20 -2 24 42 2 22 17 82 34 134 37 119 72 243 81 292
9 46 -15 88 -37 66z"/>
<path d="M13322 11283 c2 -10 13 -19 26 -21 24 -4 29 7 10 26 -18 18 -40 15
-36 -5z"/>
<path d="M6895 11258 c-2 -7 -11 -53 -19 -103 -9 -49 -27 -123 -41 -164 -29
-86 -31 -101 -10 -101 8 0 15 5 15 11 0 14 130 138 153 145 25 8 47 -13 47
-46 0 -20 -12 -38 -40 -64 -42 -38 -63 -46 -54 -21 4 9 0 15 -9 15 -16 0 -27
-20 -27 -51 0 -33 44 -21 105 29 61 50 72 110 30 156 -35 38 -55 31 -144 -49
-27 -25 -32 -26 -28 -10 21 71 48 212 48 252 1 14 -21 15 -26 1z"/>
<path d="M2701 11113 c-14 -49 -35 -126 -48 -172 -13 -47 -23 -93 -21 -104 4
-27 28 -34 28 -9 0 11 19 87 41 169 52 184 55 203 37 203 -9 0 -22 -31 -37
-87z"/>
<path d="M8187 11148 c-19 -38 -8 -55 22 -36 13 8 21 23 21 40 0 38 -24 36
-43 -4z"/>
<path d="M7446 11076 c-36 -37 -109 -172 -100 -187 11 -19 23 -7 52 54 40 86
86 137 123 137 19 0 29 5 29 15 0 10 -11 15 -35 15 -26 0 -43 -8 -69 -34z"/>
<path d="M4804 11064 c-19 -19 -34 -39 -34 -44 0 -5 -6 -7 -14 -4 -19 7 -22 0
-46 -112 -12 -54 -32 -134 -46 -177 -23 -74 -24 -97 -5 -97 10 0 36 61 56 131
13 48 19 56 35 52 52 -14 116 36 156 122 28 58 30 85 9 124 -27 52 -65 54
-111 5z m84 -28 c12 -24 12 -34 -4 -74 -36 -96 -142 -164 -137 -89 3 37 55
149 83 177 26 26 41 22 58 -14z"/>
<path d="M7211 11060 c-52 -41 -81 -84 -81 -119 0 -28 47 -61 87 -61 55 0 123
21 123 37 0 11 -6 13 -22 8 -71 -23 -158 -12 -158 20 0 8 30 30 70 50 74 38
100 66 79 91 -19 23 -44 16 -98 -26z m69 2 c0 -5 -12 -14 -27 -21 l-28 -11 24
20 c26 22 31 24 31 12z"/>
<path d="M7709 11072 c-41 -5 -72 -44 -64 -80 3 -17 13 -36 21 -43 8 -7 19
-20 25 -30 8 -15 4 -21 -20 -34 -39 -20 -100 -20 -107 0 -10 24 -34 17 -34
-10 0 -47 60 -54 152 -18 52 21 56 44 18 104 -40 61 -31 79 37 79 29 0 43 4
41 12 -5 15 -37 24 -69 20z"/>
<path d="M3988 11027 c-52 -41 -98 -112 -98 -150 0 -31 54 -77 90 -77 35 0 70
15 70 31 0 7 -14 8 -39 4 -108 -18 -111 88 -5 169 36 28 52 34 75 29 30 -6 37
5 17 25 -22 22 -57 12 -110 -31z"/>
<path d="M5590 11061 c0 -5 7 -14 15 -21 8 -7 15 -16 15 -20 0 -9 -95 -70
-110 -70 -5 0 -12 16 -16 35 -3 20 -12 35 -20 35 -17 0 -18 -28 -4 -66 10 -25
7 -30 -25 -56 -58 -48 -39 -69 20 -23 l33 24 18 -20 c27 -30 68 -49 104 -49
40 0 35 22 -6 31 -33 6 -84 37 -84 50 0 4 32 28 70 53 39 25 70 51 70 58 0 7
-14 21 -31 31 -34 19 -49 22 -49 8z"/>
<path d="M6697 11024 l-32 -36 -5 29 c-13 72 -121 9 -160 -93 -19 -52 -19 -74
-1 -74 4 0 18 25 30 55 22 54 72 115 93 115 6 0 8 -21 6 -52 -2 -33 1 -53 8
-53 6 0 31 24 55 54 24 30 49 55 54 55 6 1 11 -19 13 -44 4 -63 9 -75 26 -61
15 13 12 91 -5 123 -15 28 -48 21 -82 -18z"/>
<path d="M6065 11034 c-28 -28 -39 -67 -22 -78 12 -8 10 -19 -14 -72 -16 -35
-29 -70 -29 -79 0 -26 28 -16 38 14 11 31 103 150 127 164 20 11 20 -10 0 -56
-8 -20 -15 -47 -15 -60 0 -34 25 -54 46 -36 14 12 14 14 -2 26 -16 12 -16 15
0 57 35 91 1 134 -63 81 l-31 -27 0 36 c0 42 -12 52 -35 30z"/>
<path d="M5207 11006 c-53 -57 -62 -73 -60 -107 1 -19 2 -42 2 -51 1 -10 12
-25 26 -34 24 -15 30 -15 109 10 84 26 118 48 96 61 -6 4 -16 2 -23 -3 -17
-14 -116 -42 -149 -42 -23 0 -28 4 -28 24 0 19 7 26 28 31 51 11 92 42 92 71
0 63 -51 86 -93 40z m59 -21 c8 -20 -10 -41 -47 -54 -36 -12 -37 -2 -3 38 29
34 42 38 50 16z"/>
<path d="M4184 10974 c-25 -32 -29 -46 -29 -101 0 -46 4 -66 15 -73 24 -16 37
-12 76 22 47 42 64 82 53 122 -11 37 -26 53 -60 61 -23 6 -31 1 -55 -31z m84
-53 c3 -25 -4 -39 -33 -68 -29 -29 -38 -34 -46 -22 -13 20 -11 55 5 92 11 27
18 33 42 32 25 -1 29 -6 32 -34z"/>
<path d="M4527 10951 l-44 -59 5 44 c6 52 -14 67 -57 41 -15 -8 -35 -15 -46
-14 -16 2 -21 -6 -25 -38 -4 -22 -14 -54 -23 -72 -11 -20 -13 -34 -7 -38 16
-10 30 4 50 49 10 22 32 55 50 71 l32 30 -7 -50 c-3 -27 -7 -59 -8 -69 -4 -39
23 -25 66 36 25 35 56 73 68 83 l22 20 -9 -40 c-11 -55 -11 -135 1 -135 6 -1
11 5 12 12 0 7 7 45 14 85 10 58 10 75 -1 88 -23 28 -47 16 -93 -44z"/>
<path d="M6410 10957 c-30 -61 -82 -99 -105 -76 -8 8 -16 32 -18 54 -5 50 -33
57 -30 7 4 -105 56 -130 133 -66 32 27 70 92 70 119 0 32 -26 13 -50 -38z"/>
<path d="M8161 10948 c-14 -38 1 -48 34 -24 16 12 17 16 6 30 -18 22 -30 20
-40 -6z"/>
<path d="M4763 10425 c-57 -24 -66 -75 -37 -209 10 -43 14 -88 10 -109 -9 -47
-42 -87 -72 -87 -15 0 -24 -6 -24 -15 0 -8 7 -15 15 -15 28 0 75 -30 75 -48 0
-9 -16 -68 -35 -131 -39 -128 -43 -171 -17 -221 22 -45 80 -70 117 -50 25 13
39 46 24 56 -5 3 -9 1 -9 -4 0 -5 -11 -14 -24 -20 -44 -20 -96 27 -96 89 0 15
16 79 35 142 43 142 46 165 20 185 -20 16 -20 16 3 61 26 51 26 89 2 216 -18
95 -10 121 39 136 48 14 71 7 71 -22 0 -29 25 -18 26 12 1 13 -3 30 -8 37 -14
16 -75 15 -115 -3z"/>
<path d="M14173 10434 c-30 -13 -12 -31 31 -31 58 0 96 -24 96 -62 0 -22 -11
-39 -47 -71 -84 -73 -104 -128 -72 -192 7 -13 3 -18 -24 -23 -45 -10 -77 -32
-77 -55 0 -11 13 -35 30 -53 50 -57 45 -102 -16 -167 -51 -54 -83 -63 -116
-33 -17 16 -20 16 -35 0 -16 -16 -16 -18 3 -38 12 -11 39 -23 60 -26 32 -4 46
1 80 26 49 37 88 109 88 166 1 31 -7 50 -31 82 -40 50 -31 62 51 70 31 3 56 9
56 14 0 4 -11 19 -25 33 -18 18 -25 36 -25 62 0 33 8 45 66 101 64 61 65 64
62 109 -2 37 -9 51 -28 65 -26 18 -105 33 -127 23z"/>
<path d="M8202 10408 c-20 -20 -14 -40 11 -36 14 2 22 10 22 22 0 24 -16 31
-33 14z"/>
<path d="M3490 10355 c-47 -30 -96 -60 -110 -66 -29 -13 -86 -81 -115 -136
-26 -50 -32 -150 -12 -189 56 -108 155 -120 342 -41 78 33 90 41 81 56 -4 6
-35 -2 -85 -23 -43 -19 -103 -40 -135 -47 -52 -11 -57 -11 -71 7 -18 23 -18
100 -2 241 13 114 6 103 121 173 l39 24 -6 -36 c-13 -82 20 -102 72 -43 38 43
40 83 8 113 -13 12 -27 22 -33 21 -5 0 -47 -25 -94 -54z m120 -15 c0 -10 -9
-28 -20 -41 l-19 -24 -1 25 c0 42 11 69 26 63 8 -3 14 -13 14 -23z m-260 -212
c-7 -52 -10 -122 -8 -156 1 -34 0 -62 -4 -62 -12 0 -58 62 -64 87 -13 50 4
125 41 181 20 29 39 52 42 49 2 -3 -1 -48 -7 -99z"/>
<path d="M6415 10304 c-29 -43 -40 -53 -50 -44 -21 17 -63 1 -90 -35 -38 -49
-67 -142 -62 -195 4 -37 0 -53 -22 -90 -53 -88 -63 -140 -28 -140 24 0 41 28
28 44 -10 11 -6 26 19 70 31 55 33 56 77 56 144 0 212 83 163 198 -12 29 -26
52 -31 52 -18 0 -8 28 26 73 38 49 43 67 21 67 -8 0 -31 -25 -51 -56z m-55
-80 c0 -18 -115 -192 -118 -179 -5 24 36 139 59 163 18 20 59 31 59 16z m61
-69 c33 -74 14 -119 -60 -144 -37 -12 -91 -15 -91 -4 0 14 113 193 122 193 5
0 18 -20 29 -45z"/>
<path d="M10387 10334 c-14 -15 -6 -34 14 -34 14 0 19 5 17 17 -3 18 -20 27
-31 17z"/>
<path d="M13026 10333 c-12 -12 -6 -33 9 -33 8 0 15 6 15 14 0 17 -14 28 -24
19z"/>
<path d="M11387 10285 c-21 -14 -35 -30 -32 -36 9 -14 24 -11 52 11 25 20 103
29 103 12 0 -15 -69 -123 -109 -171 -31 -37 -62 -59 -138 -95 -101 -49 -143
-79 -143 -103 0 -38 80 -10 171 59 68 53 70 52 42 -8 -20 -45 -24 -63 -16 -83
8 -23 14 -26 50 -24 41 2 121 36 135 57 11 17 9 56 -2 56 -6 0 -14 -11 -19
-23 -6 -15 -28 -32 -59 -45 -84 -36 -95 -26 -58 54 14 31 26 65 26 75 0 10 22
47 49 80 28 34 63 86 78 115 36 69 27 88 -43 92 -39 2 -57 -3 -87 -23z"/>
<path d="M9244 10269 c-16 -17 -46 -39 -66 -50 -43 -22 -56 -38 -37 -49 8 -5
29 3 57 22 36 25 43 27 38 12 -3 -11 -15 -59 -26 -107 -30 -131 -26 -127 -120
-127 -64 0 -80 -3 -80 -15 0 -12 15 -15 79 -15 72 0 79 -2 84 -21 7 -24 27
-16 27 10 0 19 26 31 67 31 12 0 27 9 34 21 8 15 8 19 0 15 -6 -4 -11 -2 -11
3 0 13 -27 15 -32 2 -1 -4 -12 -11 -24 -15 -20 -6 -19 -1 18 146 21 83 35 155
30 160 -4 4 -21 -6 -38 -23z"/>
<path d="M12696 10293 c-2 -2 -58 -4 -125 -4 -93 0 -121 -4 -121 -14 0 -20 44
-26 138 -20 94 6 95 7 -16 -41 -40 -18 -53 -28 -50 -41 2 -13 15 -19 48 -21
24 -2 50 -8 57 -14 18 -14 16 -64 -2 -92 -32 -49 -157 -82 -206 -55 -25 13
-40 50 -27 66 11 14 -4 25 -25 17 -22 -8 -19 -79 5 -101 30 -27 159 -25 213 4
58 31 77 56 83 112 3 40 1 52 -17 70 -11 11 -31 21 -43 21 -32 0 -17 9 69 44
85 35 105 60 53 68 -16 3 -32 3 -34 1z"/>
<path d="M5600 10130 c0 -122 -3 -154 -15 -167 -20 -19 -10 -33 23 -33 l27 0
-2 172 c-2 147 -4 173 -18 176 -13 3 -15 -17 -15 -148z"/>
<path d="M7208 10206 c-32 -35 -58 -68 -58 -74 0 -23 27 -12 58 24 18 20 34
35 36 33 2 -2 -3 -61 -12 -131 l-16 -127 -62 6 c-41 4 -64 2 -68 -6 -9 -13 -3
-15 89 -29 44 -7 71 -8 73 -2 2 6 26 10 53 10 35 0 49 4 49 14 0 20 -27 28
-67 20 l-35 -7 7 54 c3 30 13 100 21 157 14 96 13 124 -4 121 -4 -1 -33 -29
-64 -63z"/>
<path d="M9649 10233 c0 -4 -2 -34 -4 -67 -3 -32 -6 -60 -8 -62 -1 -2 -23 -4
-47 -6 -34 -2 -46 -8 -48 -22 -4 -17 1 -18 42 -12 46 7 47 7 41 -18 -3 -14 -7
-37 -10 -51 -4 -18 -1 -25 10 -25 17 0 18 2 31 65 l9 40 58 5 c73 6 75 24 3
28 l-54 3 1 61 c1 41 -2 62 -10 65 -7 3 -13 1 -14 -4z"/>
<path d="M11998 10185 c-7 -61 -21 -75 -74 -75 -44 0 -66 -13 -38 -24 9 -3 29
-6 46 -6 25 0 29 -3 23 -17 -3 -10 -9 -30 -12 -45 -10 -49 21 -32 40 22 17 47
20 50 52 50 19 0 37 -5 41 -11 4 -7 9 -8 17 0 17 17 -12 41 -50 41 -30 0 -33
2 -23 19 15 29 13 91 -4 91 -9 0 -15 -16 -18 -45z"/>
<path d="M8161 10201 c-40 -40 -73 -111 -78 -170 -5 -53 -3 -60 18 -75 28 -19
78 -21 104 -3 26 20 11 39 -20 25 -13 -6 -35 -8 -49 -4 -22 5 -26 12 -26 42 0
65 65 179 95 168 10 -4 15 0 15 15 0 27 -33 28 -59 2z"/>
<path d="M12906 10135 c-82 -99 -106 -168 -63 -184 27 -10 110 2 115 17 2 6 9
9 17 6 17 -7 30 15 17 28 -8 8 -15 8 -26 -1 -20 -17 -116 -27 -116 -12 0 18
63 112 94 140 14 14 26 30 26 38 0 26 -26 12 -64 -32z"/>
<path d="M4083 10130 c-23 -5 -52 -14 -64 -20 -32 -18 -10 -32 31 -20 19 6 59
11 88 11 35 1 52 5 52 14 0 25 -33 29 -107 15z"/>
<path d="M10305 10109 c-79 -94 -103 -229 -40 -229 27 0 115 37 115 49 0 18
-15 18 -57 0 -59 -25 -63 -24 -63 11 0 38 39 117 74 149 14 14 26 30 26 38 0
23 -27 14 -55 -18z"/>
<path d="M5345 10089 c-22 -4 -57 -8 -78 -8 -24 -1 -40 -6 -44 -16 -3 -9 -4
-18 -1 -20 2 -3 51 2 108 11 79 12 110 13 128 4 34 -15 54 4 26 25 -21 16 -76
18 -139 4z"/>
<path d="M4005 10011 c-10 -16 17 -25 85 -26 75 -2 90 2 90 21 0 11 -19 14
-84 14 -47 0 -87 -4 -91 -9z"/>
<path d="M13396 9983 c-3 -4 -6 -15 -6 -25 0 -13 8 -18 29 -18 17 0 32 4 36
10 7 11 -49 42 -59 33z"/>
<path d="M13553 9974 c-3 -8 0 -21 7 -27 10 -9 14 -9 17 0 3 8 14 11 29 7 17
-4 24 -2 24 9 0 28 -66 38 -77 11z"/>
<path d="M10657 9973 c-4 -3 -7 -12 -7 -19 0 -33 -43 -124 -75 -159 -23 -24
-34 -44 -30 -54 9 -22 78 56 105 117 34 76 38 146 7 115z"/>
<path d="M5870 9941 c0 -20 -15 -47 -46 -85 -25 -31 -42 -61 -39 -67 10 -16
20 -8 69 55 34 43 46 69 46 93 0 23 -5 33 -15 33 -10 0 -15 -10 -15 -29z"/>
<path d="M8633 9939 c-16 -16 -5 -43 12 -29 9 7 16 6 25 -4 23 -29 -38 -146
-76 -146 -16 0 -19 -26 -3 -36 29 -17 118 109 119 168 0 41 -52 72 -77 47z"/>
<path d="M6562 9901 c-17 -54 -48 -91 -78 -91 -19 0 -25 -5 -22 -17 13 -66
137 51 138 130 0 32 -27 17 -38 -22z"/>
<path d="M7589 9935 c-1 -5 -2 -32 -3 -60 -1 -53 -34 -115 -62 -115 -8 0 -14
-7 -14 -16 0 -11 8 -14 28 -12 55 6 104 145 67 194 -8 10 -15 15 -16 9z"/>
<path d="M13197 9923 c-7 -11 11 -53 22 -53 5 0 12 7 15 16 10 25 -24 58 -37
37z"/>
<path d="M2975 9068 c-102 -15 -269 -50 -287 -59 -21 -11 -24 -49 -4 -49 8 0
16 6 19 13 8 22 355 85 402 73 46 -12 37 -76 -40 -272 -24 -62 -45 -120 -47
-130 -6 -36 19 -22 57 30 39 54 55 62 55 27 0 -9 9 -27 20 -39 11 -12 20 -32
20 -45 0 -39 33 -61 81 -53 49 8 142 53 134 66 -3 5 -1 11 5 15 5 3 10 1 10
-6 0 -7 3 -10 6 -6 3 3 3 10 -1 16 -4 7 -28 0 -66 -19 -68 -35 -131 -44 -136
-20 -3 12 6 15 35 15 56 0 122 45 122 84 0 31 -14 41 -61 41 -20 0 -43 -12
-73 -40 -46 -43 -57 -41 -70 10 -11 47 -23 57 -47 42 -20 -13 -21 -12 -14 5
32 76 67 195 68 231 3 78 -37 93 -188 70z m355 -356 c0 -24 -82 -68 -103 -55
-15 9 52 63 80 63 13 0 23 -4 23 -8z"/>
<path d="M7477 9073 c-4 -3 -7 -14 -7 -23 0 -9 -9 -34 -19 -56 -11 -22 -23
-52 -26 -67 -8 -32 -17 -39 -70 -52 -24 -6 -40 -16 -40 -25 0 -8 6 -14 14 -12
8 2 27 6 42 9 l26 5 -24 -89 c-13 -48 -27 -99 -32 -113 -9 -30 -4 -50 13 -50
8 0 18 23 25 58 6 31 21 89 32 129 l22 72 55 3 c74 4 85 28 13 28 -28 0 -51 5
-51 10 0 6 11 37 25 70 32 76 33 134 2 103z"/>
<path d="M13220 9055 c0 -34 -137 -298 -191 -366 -27 -34 -43 -107 -28 -125
15 -18 29 -8 29 21 0 24 31 89 115 235 97 170 126 250 90 250 -8 0 -15 -7 -15
-15z"/>
<path d="M10506 9018 c-3 -18 -16 -56 -28 -85 l-21 -51 -59 -7 c-43 -5 -58
-11 -58 -22 0 -13 9 -15 55 -9 l54 6 -13 -42 c-8 -24 -23 -70 -35 -102 -25
-70 -25 -76 -7 -76 9 0 27 39 51 109 20 62 43 112 51 115 9 3 38 6 64 6 27 0
52 5 56 12 4 6 3 8 -4 4 -6 -3 -13 -2 -17 4 -3 5 -26 10 -51 10 -24 0 -44 1
-44 3 0 1 9 28 20 60 11 31 20 66 20 77 0 33 -27 23 -34 -12z"/>
<path d="M9489 8962 c-159 -184 -266 -333 -253 -353 10 -17 24 -9 40 23 9 18
29 48 43 65 25 31 29 33 94 33 39 0 67 -4 67 -10 0 -6 -6 -26 -14 -45 -8 -19
-18 -55 -21 -80 -6 -36 -4 -45 8 -45 8 0 17 13 21 33 3 17 14 58 24 91 14 48
22 61 45 68 32 12 36 28 6 28 -16 0 -19 4 -14 18 36 92 57 253 33 251 -7 0
-43 -35 -79 -77z m36 -94 c-14 -51 -31 -96 -38 -100 -7 -4 -36 -8 -65 -8 -47
0 -52 2 -43 18 21 38 165 204 169 193 2 -6 -8 -53 -23 -103z"/>
<path d="M13072 8988 c-17 -56 -134 -301 -148 -310 -12 -8 -12 -57 0 -77 11
-17 26 -3 26 23 0 13 25 74 56 137 67 136 104 226 104 251 0 34 -25 18 -38
-24z"/>
<path d="M13897 8993 c-4 -20 -18 -65 -33 -100 -26 -60 -29 -63 -63 -64 -50
-1 -84 -12 -89 -28 -4 -11 7 -12 52 -7 l56 7 -50 -95 c-51 -98 -60 -126 -37
-125 6 0 36 49 66 110 58 118 48 110 141 114 18 0 25 6 25 20 0 21 -18 24 -67
10 l-27 -7 24 60 c33 81 43 142 23 142 -10 0 -18 -13 -21 -37z"/>
<path d="M6127 9013 c-4 -3 -7 -18 -7 -33 0 -15 -9 -53 -20 -85 -25 -72 -60
-219 -60 -250 0 -25 15 -41 24 -26 3 5 8 27 11 48 4 36 31 142 69 276 16 54
15 77 -3 77 -4 0 -11 -3 -14 -7z"/>
<path d="M6229 9018 c-1 -2 -3 -14 -4 -28 -2 -25 -41 -190 -71 -304 -11 -42
-13 -61 -5 -69 16 -16 34 6 37 43 2 30 7 55 50 229 24 101 25 131 4 131 -5 0
-11 -1 -11 -2z"/>
<path d="M2910 8925 c0 -14 -20 -94 -45 -177 -49 -164 -60 -243 -35 -243 11 0
17 17 22 60 4 32 26 121 48 196 43 148 49 189 25 189 -9 0 -15 -9 -15 -25z"/>
<path d="M8486 8931 c-8 -12 4 -42 14 -36 12 8 103 -26 125 -46 24 -24 23 -25
-101 -104 -101 -63 -117 -80 -90 -91 10 -4 27 4 43 21 15 14 54 42 88 62 78
45 105 71 105 100 0 27 -25 45 -110 78 -74 29 -67 28 -74 16z"/>
<path d="M14085 8920 c-10 -16 4 -30 31 -30 27 0 33 24 8 34 -22 8 -32 8 -39
-4z"/>
<path d="M6963 8878 c-30 -33 -46 -94 -40 -148 6 -50 -4 -69 -46 -83 -13 -5
-17 -2 -15 10 2 9 -2 18 -9 20 -16 6 -29 -45 -15 -59 15 -15 67 0 97 28 24 22
26 28 19 82 -5 49 -3 66 16 103 22 42 23 43 33 22 6 -13 16 -23 24 -23 16 0
16 10 3 44 -12 32 -40 33 -67 4z"/>
<path d="M11052 8878 c2 -12 10 -23 18 -23 22 0 19 39 -3 43 -15 3 -18 -1 -15
-20z"/>
<path d="M10000 8863 c-17 -22 -20 -36 -16 -66 7 -43 -20 -106 -56 -131 -30
-21 -38 -20 -38 6 0 21 -1 21 -17 5 -14 -13 -15 -21 -7 -35 41 -65 164 56 151
149 -6 45 16 85 32 59 8 -12 13 -12 22 -3 9 9 9 16 -1 28 -19 23 -46 18 -70
-12z"/>
<path d="M10176 8841 c-16 -22 -34 -37 -41 -35 -8 3 -12 -14 -13 -59 -2 -82
16 -103 80 -93 63 10 109 26 102 37 -3 5 5 13 17 17 12 5 18 12 12 15 -5 3
-28 -3 -50 -14 -23 -11 -60 -21 -84 -22 -44 -2 -44 -2 -44 32 0 29 6 37 35 53
61 34 75 53 62 83 -16 36 -42 31 -76 -14z m54 -6 c0 -2 -10 -10 -22 -16 -21
-11 -22 -11 -9 4 13 16 31 23 31 12z"/>
<path d="M5849 8833 c-46 -42 -82 -104 -77 -136 5 -34 47 -33 96 3 l43 30 -7
-27 c-3 -16 -7 -34 -10 -41 -6 -20 14 -62 31 -62 19 0 33 32 17 38 -19 6 -14
45 15 123 l26 71 -24 19 c-36 28 -64 23 -110 -18z m80 -7 c10 -11 6 -21 -19
-50 -35 -40 -98 -82 -108 -72 -10 11 29 75 65 107 38 33 46 35 62 15z"/>
<path d="M7624 8847 c-31 -27 -27 -54 13 -91 21 -20 25 -30 19 -57 -7 -36 -32
-69 -51 -69 -7 0 -19 10 -28 23 -14 21 -16 21 -23 3 -10 -26 8 -50 39 -54 37
-4 62 12 81 52 24 50 21 93 -9 120 -34 32 -32 54 7 64 42 11 49 32 9 32 -17 0
-41 -10 -57 -23z"/>
<path d="M12613 8849 c-12 -4 -44 -30 -72 -56 -79 -77 -88 -158 -20 -182 38
-13 89 -14 108 -2 23 15 3 30 -32 25 -49 -8 -87 10 -87 41 0 37 16 65 64 107
40 37 66 48 66 28 0 -5 7 -10 15 -10 21 0 19 37 -2 48 -10 6 -28 6 -40 1z"/>
<path d="M13520 8824 c-64 -36 -96 -69 -119 -124 -32 -75 -12 -98 77 -85 68 9
82 15 82 32 0 11 -7 14 -22 10 -13 -3 -44 -9 -70 -12 -46 -7 -48 -6 -48 17 0
42 56 106 121 136 56 26 70 44 38 50 -8 1 -34 -10 -59 -24z"/>
<path d="M3525 8807 c-40 -40 -44 -72 -15 -110 11 -14 20 -34 20 -45 0 -24
-55 -62 -85 -59 -24 2 -29 -36 -5 -41 24 -4 109 55 121 84 8 23 5 34 -17 67
-22 34 -24 43 -15 64 6 14 25 30 41 36 32 12 35 30 6 35 -9 2 -32 -12 -51 -31z"/>
<path d="M13218 8807 c-47 -36 -88 -98 -88 -135 0 -36 43 -72 85 -72 38 0 75
15 75 30 0 5 -21 7 -48 3 -38 -4 -52 -2 -66 12 -32 32 -17 57 52 83 72 28 100
59 82 91 -15 30 -42 26 -92 -12z m60 -22 c-8 -8 -78 -35 -78 -30 0 11 75 54
79 44 1 -5 1 -12 -1 -14z"/>
<path d="M14451 8780 c-58 -38 -88 -53 -81 -41 14 26 13 41 -2 40 -13 0 -78
-93 -78 -110 0 -23 65 7 165 77 l66 46 -20 -33 c-25 -41 -27 -101 -5 -120 38
-31 175 4 182 46 2 12 0 16 -5 9 -4 -6 -35 -18 -68 -26 -100 -26 -119 3 -64
98 28 49 31 74 10 74 -5 0 -50 -27 -100 -60z"/>
<path d="M7110 8797 c-19 -18 -36 -35 -37 -37 -27 -71 -29 -90 -13 -121 16
-29 55 -24 126 16 67 37 80 50 65 59 -5 4 -39 -10 -75 -30 -71 -38 -96 -39
-96 -2 0 36 27 68 59 68 15 0 36 6 46 14 17 12 18 18 7 40 -15 34 -39 32 -82
-7z m50 -7 c0 -5 -5 -10 -11 -10 -5 0 -7 5 -4 10 3 6 8 10 11 10 2 0 4 -4 4
-10z"/>
<path d="M12812 8800 c-65 -47 -81 -92 -38 -112 21 -9 32 -6 70 16 61 36 83
68 68 101 -16 34 -49 32 -100 -5z m66 -26 c-4 -20 -84 -68 -92 -55 -3 5 8 23
25 40 33 33 73 42 67 15z"/>
<path d="M14200 8794 c0 -30 -3 -35 -12 -26 -22 22 -59 13 -95 -23 -29 -29
-34 -40 -31 -72 2 -30 9 -41 31 -51 37 -18 102 2 130 40 17 23 19 34 11 94
-10 75 -34 102 -34 38z m10 -74 c0 -35 -19 -58 -55 -68 -44 -12 -65 -4 -65 24
0 38 40 72 84 71 32 -1 36 -4 36 -27z"/>
<path d="M4814 8802 c-40 -32 -139 -206 -128 -223 12 -19 24 -6 58 64 48 97
93 152 112 136 8 -6 14 -18 14 -25 0 -19 17 -18 24 2 8 22 -20 64 -42 64 -9 0
-27 -8 -38 -18z"/>
<path d="M3772 8787 c-48 -36 -92 -96 -92 -127 0 -15 10 -36 23 -49 30 -28
117 -40 152 -21 29 16 36 47 8 34 -30 -15 -122 -9 -140 8 -17 18 -10 74 8 63
17 -11 99 34 111 61 11 22 9 28 -7 40 -25 18 -26 18 -63 -9z m28 -32 c-7 -8
-17 -15 -22 -15 -6 0 -5 7 2 15 7 8 17 15 22 15 6 0 5 -7 -2 -15z"/>
<path d="M4565 8794 c-71 -36 -134 -129 -121 -177 11 -44 53 -36 115 19 l51
46 0 -50 c0 -55 18 -73 45 -46 16 16 11 39 -6 29 -12 -8 -11 14 2 94 11 62 11
65 -11 83 -27 22 -37 22 -75 2z m65 -36 c0 -7 -29 -40 -64 -75 -62 -60 -96
-78 -96 -50 0 21 40 81 73 109 33 28 87 38 87 16z"/>
<path d="M8285 8801 c-45 -7 -59 -38 -15 -34 14 1 52 4 85 7 76 5 73 4 51 21
-20 15 -51 17 -121 6z"/>
<path d="M11864 8778 c-27 -18 -57 -48 -67 -66 -18 -30 -18 -35 -4 -49 14 -14
22 -12 80 20 l66 36 -6 -33 c-3 -23 0 -38 12 -49 19 -19 66 -22 96 -6 30 16
12 30 -30 23 -47 -8 -54 2 -42 56 6 29 6 44 -3 53 -7 7 -15 20 -19 30 -9 25
-28 21 -83 -15z m56 -21 c0 -8 -23 -26 -51 -42 -48 -26 -50 -26 -39 -6 10 21
66 61 83 61 4 0 7 -6 7 -13z"/>
<path d="M2383 8783 c-25 -17 -33 -83 -10 -83 25 1 49 28 43 48 -4 11 -2 23 4
27 14 9 13 25 -2 24 -7 0 -23 -7 -35 -16z"/>
<path d="M4972 8783 c-12 -8 -38 -37 -57 -63 -42 -57 -48 -115 -15 -145 28
-25 143 -16 173 14 27 26 15 39 -19 20 -15 -7 -52 -14 -83 -14 -55 0 -56 1
-59 30 -2 26 2 32 39 50 60 28 101 70 97 97 -4 29 -43 34 -76 11z m38 -28 c-7
-9 -27 -25 -44 -37 l-31 -21 34 36 c34 36 67 53 41 22z"/>
<path d="M11160 8779 c-30 -19 -32 -23 -28 -64 3 -24 15 -57 27 -74 19 -26 20
-33 9 -51 -16 -26 -55 -37 -79 -21 -24 14 -29 14 -29 -2 0 -26 37 -50 66 -43
30 8 84 60 84 83 0 8 -11 31 -25 51 -39 57 -29 102 22 102 28 0 30 15 5 29
-14 7 -27 5 -52 -10z"/>
<path d="M13983 8768 c-6 -7 -14 -24 -18 -38 -4 -14 -18 -41 -31 -60 -27 -38
-31 -60 -11 -60 16 0 69 89 63 106 -3 8 -1 14 3 14 13 0 23 32 13 42 -5 5 -13
3 -19 -4z"/>
<path d="M10989 8687 c-41 -65 -64 -136 -51 -149 9 -9 16 -1 28 28 30 76 56
124 65 124 5 0 9 9 9 20 0 33 -23 23 -51 -23z"/>
<path d="M12896 8641 c-4 -7 -5 -15 -2 -18 9 -9 19 4 14 18 -4 11 -6 11 -12 0z"/>
<path d="M2604 8508 c-29 -33 -46 -63 -83 -151 -27 -63 -37 -76 -52 -72 -23 8
-37 -16 -17 -28 13 -9 12 -14 -5 -47 -23 -40 -18 -81 7 -61 7 6 16 24 20 39 9
42 28 59 70 65 21 3 43 10 50 17 8 8 7 10 -6 5 -11 -4 -18 -2 -18 4 0 6 -9 11
-20 11 -11 0 -20 2 -20 4 0 2 13 36 30 75 44 107 90 164 90 111 0 -11 4 -20 9
-20 16 0 23 20 17 46 -8 31 -45 32 -72 2z"/>
<path d="M6786 8506 c-17 -13 -37 -21 -46 -19 -13 3 -22 -13 -42 -69 -14 -40
-42 -113 -62 -162 -28 -66 -34 -92 -26 -100 22 -22 49 28 115 216 17 48 86
128 111 128 21 0 36 -49 29 -90 -8 -44 -41 -123 -73 -174 -18 -29 -21 -41 -12
-50 9 -8 28 7 79 62 l67 74 12 -26 c6 -14 16 -26 22 -26 5 0 10 -12 10 -27 0
-16 9 -39 19 -52 15 -20 30 -25 80 -29 69 -5 114 3 109 20 -3 8 -27 11 -67 9
-69 -3 -111 16 -111 49 0 15 7 20 25 20 31 0 92 29 99 47 9 21 -5 43 -30 49
-26 7 -68 -15 -96 -49 -16 -21 -16 -21 -38 16 -25 43 -35 45 -66 16 l-22 -20
15 54 c34 121 -23 196 -101 133z m304 -184 c0 -9 -44 -32 -58 -32 -10 1 38 40
49 40 5 0 9 -4 9 -8z"/>
<path d="M5790 8483 c-30 -37 -58 -89 -79 -145 -6 -16 -17 -28 -26 -28 -8 0
-15 -7 -15 -15 0 -8 4 -15 10 -15 6 0 6 -9 0 -26 -14 -35 -12 -64 3 -64 7 0
18 20 25 45 l12 44 49 -2 c28 -1 50 2 50 8 1 6 -5 11 -12 11 -6 1 -26 5 -44 9
l-31 7 15 37 c8 20 29 58 46 85 28 44 31 46 39 27 10 -27 24 -27 31 1 6 21
-16 58 -34 58 -4 0 -21 -17 -39 -37z"/>
<path d="M3495 8468 c-4 -13 -21 -53 -37 -90 -23 -50 -36 -68 -50 -68 -25 0
-58 -18 -58 -32 0 -6 12 -8 31 -4 27 5 30 4 24 -12 -4 -9 -12 -30 -18 -47 -5
-16 -15 -33 -20 -36 -12 -9 1 -49 17 -49 6 0 22 34 34 76 l22 75 70 -7 c61 -6
70 -4 70 10 0 11 -9 16 -29 16 -16 0 -42 3 -59 6 l-30 6 28 62 c39 83 47 116
27 116 -9 0 -19 -10 -22 -22z"/>
<path d="M10153 8422 c-12 -26 -43 -83 -68 -127 -76 -136 -55 -159 68 -77 40
27 91 61 113 75 l41 26 -14 -49 c-21 -71 -15 -104 19 -108 34 -4 68 14 68 34
0 11 -5 14 -17 9 -62 -25 -63 -22 -32 83 12 40 19 75 15 79 -8 9 -43 -11 -175
-99 l-104 -70 51 94 c27 51 56 93 64 93 8 0 14 15 16 43 4 57 -17 55 -45 -6z"/>
<path d="M4335 8419 c-45 -23 -74 -56 -75 -81 0 -10 19 -36 43 -58 l42 -41
-25 -21 c-19 -15 -33 -18 -62 -14 -30 5 -38 3 -38 -9 0 -40 89 -36 131 6 28
28 24 49 -23 96 -36 36 -39 44 -28 58 18 22 64 45 90 45 24 0 27 25 4 34 -20
8 -13 9 -59 -15z"/>
<path d="M8142 8425 c-36 -26 -54 -71 -47 -116 6 -34 4 -39 -13 -39 -11 0 -31
9 -46 21 -28 22 -49 18 -39 -7 8 -20 73 -51 100 -46 27 4 37 32 29 77 -5 27
-2 39 19 62 l25 28 26 -29 c35 -40 52 -21 21 25 -27 40 -44 45 -75 24z"/>
<path d="M10523 8405 c-6 -16 22 -44 45 -45 16 0 15 11 -4 38 -18 26 -32 28
-41 7z"/>
<path d="M8318 8377 c-78 -60 -111 -136 -72 -168 16 -13 36 -9 117 26 10 4 17
4 16 -1 -5 -30 3 -63 18 -68 25 -10 40 10 25 34 -17 27 -15 45 8 90 11 22 20
48 20 60 0 27 -35 60 -64 60 -14 0 -44 -15 -68 -33z m94 -5 c16 -6 15 -10 -5
-47 -21 -38 -71 -73 -124 -90 -19 -5 -23 -2 -23 15 0 30 28 68 74 101 40 30
49 32 78 21z"/>
<path d="M8638 8373 c-28 -26 -38 -31 -30 -16 16 29 15 43 -3 43 -8 0 -20 -19
-29 -48 -7 -27 -23 -68 -35 -92 -19 -41 -20 -60 -1 -60 4 0 19 19 33 43 14 23
42 62 63 85 31 37 39 41 46 28 6 -11 5 -36 -1 -68 -6 -28 -9 -53 -7 -55 13
-13 51 15 92 69 l47 60 12 -29 c13 -32 59 -73 81 -73 7 0 26 -13 42 -29 30
-31 87 -46 151 -39 59 5 50 28 -11 29 -58 0 -119 18 -125 35 -2 6 10 17 26 24
43 17 63 44 59 77 -6 54 -59 31 -109 -47 -15 -22 -19 -23 -43 -12 -17 7 -34
29 -46 57 -11 25 -24 45 -29 45 -5 0 -30 -23 -55 -51 l-46 -51 0 40 c0 34 -19
72 -36 72 -2 0 -23 -17 -46 -37z m382 -33 c0 -5 -10 -15 -22 -21 -23 -12 -23
-12 -4 10 21 23 26 26 26 11z"/>
<path d="M3285 8390 c-7 -11 11 -40 25 -40 4 0 7 10 6 22 -1 24 -20 35 -31 18z"/>
<path d="M11007 8371 c-28 -49 -110 -127 -156 -150 -66 -34 -91 -42 -91 -29 0
17 92 98 112 98 22 0 29 12 18 30 -11 18 -40 5 -98 -45 -49 -42 -75 -86 -66
-110 13 -33 119 5 202 72 41 34 42 34 32 8 -14 -38 -12 -81 5 -95 14 -12 72
-9 94 4 26 17 9 27 -34 20 -43 -6 -45 -5 -45 19 0 14 15 55 34 92 19 36 36 76
38 88 5 33 -25 32 -45 -2z"/>
<path d="M4075 8378 c-11 -6 -38 -28 -61 -50 l-41 -39 5 30 c2 17 2 38 -2 46
-5 14 -9 14 -33 1 -16 -8 -36 -23 -46 -34 -11 -11 -24 -19 -31 -16 -20 8 -46
-30 -66 -94 -16 -56 -17 -72 -1 -72 4 0 29 34 56 75 49 76 103 127 92 88 -20
-66 -27 -105 -22 -113 10 -17 25 -11 34 13 18 45 122 149 137 135 2 -2 -7 -35
-20 -72 -33 -94 -18 -134 40 -108 32 15 31 36 -1 30 -32 -7 -32 10 -1 94 32
84 17 117 -39 86z"/>
<path d="M5492 8358 c3 -7 -15 -25 -39 -40 -72 -46 -90 -128 -28 -128 30 0 92
27 123 54 28 25 28 65 1 100 -21 26 -64 37 -57 14z m48 -67 c0 -20 -25 -39
-78 -60 -39 -16 -49 -10 -35 22 14 31 61 56 73 38 10 -17 33 -4 26 16 -3 8 -1
11 4 8 6 -3 10 -14 10 -24z"/>
<path d="M3643 8328 c-61 -43 -103 -154 -71 -186 17 -17 71 -15 115 3 50 21
32 37 -26 24 -88 -20 -96 12 -16 62 30 18 55 40 55 47 0 7 5 10 10 7 14 -9 12
39 -2 53 -17 17 -29 15 -65 -10z m24 -44 c-41 -35 -58 -29 -19 7 19 17 37 27
40 24 4 -4 -6 -18 -21 -31z"/>
<path d="M3237 8323 c-4 -3 -7 -15 -7 -25 0 -10 -9 -36 -20 -58 -23 -45 -26
-70 -7 -70 11 0 54 88 58 120 4 36 -7 51 -24 33z"/>
<path d="M10502 8318 c-20 -26 -54 -117 -50 -140 4 -31 22 -26 29 9 3 15 15
48 27 72 12 25 22 51 22 58 0 16 -14 17 -28 1z"/>
<path d="M2262 8275 c-117 -123 -46 -191 81 -76 41 37 36 85 -10 110 -28 14
-22 17 -71 -34z m68 -44 c-10 -19 -73 -61 -91 -61 -12 0 16 55 42 81 15 15 24
17 39 9 16 -9 18 -15 10 -29z"/>
<path d="M10590 8257 c-36 -29 -66 -61 -68 -70 -5 -25 12 -21 49 14 17 16 41
35 52 40 18 10 19 8 12 -33 -8 -47 -8 -48 -6 -65 1 -16 37 -17 46 -3 4 6 2 17
-4 24 -7 9 -8 29 -2 62 6 30 6 55 0 66 -5 10 -11 18 -12 18 -1 0 -31 -24 -67
-53z"/>
<path d="M11184 8165 c-10 -26 6 -36 32 -19 13 9 24 20 24 25 0 15 -50 10 -56
-6z"/>
<path d="M2855 7619 c-28 -4 -79 -17 -113 -28 -34 -10 -62 -15 -62 -10 0 5 -5
9 -11 9 -15 0 -54 -92 -89 -210 -17 -58 -40 -120 -51 -138 -23 -39 -24 -62 -4
-62 16 0 49 68 72 153 13 44 23 62 42 71 33 17 149 46 184 46 31 0 36 16 9 25
-23 7 -79 -1 -146 -21 -27 -8 -51 -12 -53 -10 -2 2 4 22 13 44 14 36 23 44 71
62 67 25 132 39 193 43 32 1 45 6 45 17 0 18 -32 21 -100 9z"/>
<path d="M6791 7598 c1 -22 -23 -84 -71 -186 -90 -193 -88 -219 12 -109 39 43
83 84 99 92 l28 15 -30 -64 c-16 -34 -27 -70 -24 -79 8 -19 38 -28 56 -16 11
8 10 12 -6 24 -19 15 -19 16 13 80 18 36 32 72 32 80 0 41 -56 19 -132 -53
l-48 -45 25 57 c14 32 36 78 49 104 39 80 43 132 10 132 -10 0 -14 -10 -13
-32z"/>
<path d="M5337 7613 c-4 -3 -7 -16 -7 -27 0 -12 -10 -60 -22 -108 -17 -68 -27
-88 -40 -88 -28 0 -68 -22 -68 -38 0 -10 6 -12 20 -8 69 21 64 25 56 -37 -4
-35 -2 -57 4 -57 15 0 30 36 30 73 0 32 3 35 38 41 77 12 88 4 67 -54 -10 -30
-12 -47 -5 -54 14 -14 25 1 38 49 6 22 14 50 17 62 6 19 2 22 -38 28 -25 4
-59 4 -76 0 -17 -4 -31 -4 -31 0 0 3 12 51 26 106 14 54 22 103 19 109 -7 12
-19 13 -28 3z"/>
<path d="M4678 7605 c-3 -3 -4 -19 -2 -35 2 -17 0 -30 -4 -30 -12 0 -33 -115
-25 -135 4 -12 3 -16 -4 -12 -17 11 -55 -110 -42 -134 13 -25 29 -15 29 18 0
25 13 74 31 118 13 30 37 136 41 174 3 31 -10 50 -24 36z"/>
<path d="M11004 7558 c-33 -100 -66 -163 -106 -205 -22 -22 -37 -46 -34 -52 4
-6 2 -11 -3 -11 -6 0 -11 5 -11 10 0 6 -13 4 -30 -5 -37 -19 -40 -19 -40 4 0
26 60 98 88 105 23 7 29 21 13 31 -18 10 -61 -18 -96 -64 -28 -36 -35 -53 -33
-81 2 -27 8 -36 25 -38 26 -4 78 21 115 55 l26 25 7 -30 c7 -36 27 -55 51 -50
17 3 17 4 0 21 -26 26 -17 84 33 200 43 102 50 137 27 137 -8 0 -22 -22 -32
-52z"/>
<path d="M4590 7580 c0 -11 -18 -55 -39 -98 -42 -84 -78 -208 -68 -235 3 -9
14 -17 23 -17 12 0 15 6 10 23 -8 33 27 149 69 229 37 72 45 118 20 118 -8 0
-15 -9 -15 -20z"/>
<path d="M3443 7571 c-7 -11 -29 -62 -49 -113 -20 -51 -53 -128 -75 -171 -21
-43 -39 -80 -39 -82 0 -13 33 -3 53 16 12 11 38 34 58 50 l36 28 26 -29 c16
-18 33 -27 42 -24 20 8 20 34 0 34 -9 0 -21 11 -27 25 -15 32 -48 32 -86 0
-29 -24 -29 -24 20 93 26 64 55 130 63 145 8 16 15 33 15 38 0 16 -25 10 -37
-10z"/>
<path d="M13262 7573 c4 -21 33 -25 33 -3 0 8 -8 16 -18 18 -14 3 -18 -1 -15
-15z"/>
<path d="M5540 7545 c0 -28 12 -32 30 -10 14 16 6 35 -16 35 -8 0 -14 -10 -14
-25z"/>
<path d="M8913 7500 c-18 -11 -33 -15 -33 -10 0 6 -9 10 -20 10 -11 0 -20 -5
-20 -11 0 -6 -27 -46 -60 -88 -33 -43 -60 -83 -60 -89 0 -24 28 -11 56 25 47
62 158 152 171 140 4 -4 -10 -39 -30 -78 -38 -71 -47 -118 -24 -120 39 -4 96
26 79 43 -7 7 -17 6 -32 -2 -33 -18 -35 -5 -6 45 74 126 64 187 -21 135z"/>
<path d="M9431 7473 c-27 -30 -37 -36 -33 -21 10 39 -22 13 -48 -38 -14 -28
-33 -61 -42 -74 -10 -14 -18 -30 -18 -37 0 -31 31 -7 99 77 41 50 76 89 77 87
2 -2 -4 -31 -12 -66 -9 -34 -14 -65 -11 -68 13 -12 55 9 92 46 22 23 43 41 46
41 3 0 10 -15 15 -32 7 -24 16 -34 34 -36 17 -2 30 -14 40 -35 22 -47 71 -57
152 -31 59 19 63 22 70 58 10 46 7 51 -22 36 -14 -7 -19 -17 -15 -29 4 -14 -2
-22 -26 -31 -44 -19 -117 -19 -129 0 -15 24 -13 27 41 56 51 28 79 65 79 104
0 28 -22 34 -58 16 -33 -17 -92 -83 -92 -103 0 -19 -37 -16 -44 3 -3 9 -6 31
-6 50 0 47 -16 43 -75 -16 -27 -27 -52 -50 -56 -50 -3 0 -2 23 4 51 8 42 7 53
-6 67 -15 15 -20 13 -56 -25z m359 -11 c0 -11 -39 -47 -69 -62 -23 -12 -23
-12 3 23 25 33 39 44 59 46 4 1 7 -3 7 -7z"/>
<path d="M9133 7457 c-63 -47 -93 -84 -93 -117 0 -34 26 -34 98 2 l69 33 -13
-39 c-18 -50 -18 -71 1 -86 21 -18 44 2 27 23 -15 17 6 82 43 139 25 37 32 68
17 68 -5 0 -21 -14 -38 -31 -34 -36 -152 -104 -162 -94 -13 12 95 105 122 105
29 0 36 24 10 34 -9 3 -17 6 -19 6 -1 0 -29 -19 -62 -43z"/>
<path d="M12227 7461 c-50 -47 -100 -143 -151 -292 -39 -116 -43 -139 -22
-139 9 0 28 40 52 113 68 204 140 327 192 327 30 0 45 -16 39 -41 -9 -37 -114
-157 -140 -161 -16 -2 -23 -11 -25 -30 -5 -46 21 -33 96 47 100 107 125 168
80 199 -38 27 -74 20 -121 -23z"/>
<path d="M12496 7474 c-53 -54 -110 -174 -88 -188 19 -11 43 5 37 25 -7 21 41
113 73 142 18 17 21 17 50 0 41 -24 54 -8 19 23 -36 31 -58 30 -91 -2z"/>
<path d="M13685 7487 c-45 -18 -70 -38 -94 -77 -28 -47 -27 -92 3 -127 22 -26
30 -28 93 -28 54 0 77 6 112 26 46 25 70 53 59 65 -4 3 -19 -3 -34 -15 -15
-11 -37 -21 -49 -21 -12 0 -42 -6 -66 -13 -63 -19 -108 -1 -109 44 0 11 11 18
33 22 52 8 128 48 139 72 14 30 -5 65 -35 64 -12 0 -36 -6 -52 -12z m59 -26
c3 -4 -2 -15 -12 -23 -21 -18 -103 -51 -110 -44 -9 10 23 39 63 57 46 21 52
22 59 10z"/>
<path d="M12894 7417 c-108 -106 -100 -151 24 -145 49 3 57 6 57 23 0 11 8 26
18 34 27 20 6 35 -27 20 -19 -9 -26 -18 -22 -31 4 -17 -1 -19 -42 -16 -26 2
-47 8 -50 16 -5 17 113 136 127 127 6 -3 16 -3 21 0 12 8 -5 45 -21 45 -6 0
-44 -33 -85 -73z"/>
<path d="M13408 7465 c-46 -31 -49 -60 -12 -104 32 -38 25 -67 -21 -87 -44
-18 -68 -9 -62 23 5 27 -11 42 -24 22 -29 -45 14 -96 71 -84 44 10 90 52 90
82 0 14 -11 38 -25 55 -14 16 -25 35 -25 42 0 14 51 46 75 46 9 0 15 6 13 13
-8 22 -42 18 -80 -8z"/>
<path d="M7244 7460 c-18 -12 -37 -34 -44 -51 -11 -27 -10 -33 9 -60 26 -35
21 -62 -16 -86 -24 -16 -26 -16 -39 2 -11 14 -17 16 -26 7 -9 -9 -7 -16 7 -32
27 -30 59 -25 94 15 36 41 40 79 11 110 l-20 22 21 26 c11 15 29 27 40 27 14
0 19 6 17 17 -5 24 -19 25 -54 3z"/>
<path d="M11542 7462 c-94 -53 -155 -150 -106 -169 22 -8 84 12 127 41 l36 25
-9 -25 c-7 -17 -6 -32 1 -46 9 -17 17 -19 52 -14 46 8 57 13 57 28 0 7 -15 9
-40 5 -49 -6 -51 3 -14 80 27 58 25 75 -6 55 -16 -10 -21 -9 -29 7 -15 28 -35
32 -69 13z m46 -45 c5 -23 -13 -44 -57 -66 -95 -48 -107 -32 -30 41 51 50 81
58 87 25z"/>
<path d="M12639 7422 c-79 -79 -90 -131 -33 -153 32 -11 107 -3 147 18 33 17
37 38 5 29 -86 -24 -158 -27 -158 -6 0 17 12 40 19 35 13 -8 77 14 105 36 40
32 32 99 -13 99 -8 0 -40 -26 -72 -58z m60 -23 c-13 -10 -33 -18 -44 -18 -16
0 -13 6 20 35 33 30 41 33 44 18 2 -10 -7 -25 -20 -35z"/>
<path d="M13184 7453 c-3 -10 -16 -47 -30 -82 -16 -41 -22 -67 -15 -74 11 -11
31 -1 31 17 0 7 11 41 25 75 14 34 23 66 20 71 -10 16 -25 12 -31 -7z"/>
<path d="M4751 7404 c-67 -72 -85 -142 -45 -175 18 -15 107 -7 129 11 23 19 4
33 -29 20 -15 -5 -41 -10 -57 -10 -24 0 -29 4 -29 23 0 16 11 28 38 42 78 40
112 91 80 123 -22 22 -45 13 -87 -34z m69 6 c0 -11 -37 -47 -63 -62 -16 -8
-17 -7 -8 10 10 18 58 62 67 62 2 0 4 -4 4 -10z"/>
<path d="M2322 7428 c-15 -15 -15 -35 -1 -43 11 -7 69 13 69 24 0 13 -24 31
-40 31 -9 0 -21 -5 -28 -12z"/>
<path d="M5939 7417 c-19 -13 -50 -33 -70 -45 l-36 -22 4 24 c8 39 -15 40 -31
1 -9 -20 -25 -48 -36 -62 -25 -32 -25 -43 0 -43 11 0 20 4 20 9 0 4 28 25 63
46 34 21 72 45 84 53 22 13 22 13 13 -20 -25 -84 -5 -125 54 -114 35 7 72 36
45 36 -11 0 -11 2 1 10 13 8 13 10 -2 10 -9 0 -18 -4 -20 -9 -1 -5 -15 -13
-30 -16 -26 -7 -28 -5 -28 22 0 17 6 51 14 76 18 62 4 76 -45 44z"/>
<path d="M7030 7427 c-8 -7 -30 -31 -48 -53 -52 -68 -37 -106 28 -69 35 20 41
18 30 -9 -6 -16 -5 -29 3 -40 11 -15 15 -15 32 -2 15 11 17 17 7 29 -10 11 -8
19 8 40 21 27 27 57 10 57 -6 0 -33 -11 -60 -25 -27 -14 -52 -25 -55 -25 -3 0
15 21 40 46 25 25 45 50 45 55 0 13 -22 11 -40 -4z"/>
<path d="M7979 7406 c-25 -19 -49 -42 -53 -51 -26 -68 16 -76 97 -19 26 19 48
34 50 34 1 0 2 -16 3 -36 1 -41 18 -56 54 -47 33 7 70 31 70 44 0 7 -9 9 -22
4 -43 -13 -78 -17 -78 -9 0 5 5 26 11 47 13 49 0 67 -50 67 -25 0 -50 -11 -82
-34z m60 -22 c-19 -14 -47 -32 -64 -40 -26 -13 -24 -10 14 26 24 22 53 40 64
40 18 0 15 -4 -14 -26z"/>
<path d="M5004 7420 c-56 -23 -73 -112 -29 -155 13 -14 34 -25 47 -25 39 0 68
12 68 27 0 12 -8 13 -39 8 -29 -5 -42 -2 -55 10 -32 33 -13 105 28 105 29 0
39 10 25 27 -13 15 -16 15 -45 3z"/>
<path d="M3163 7377 c-66 -71 -78 -94 -65 -122 15 -34 54 -41 107 -21 52 20
79 46 47 46 -11 0 -36 -7 -57 -16 -62 -26 -83 -2 -48 54 21 32 40 50 70 62 15
6 21 15 17 25 -10 25 -29 17 -71 -28z"/>
<path d="M10439 7410 c-38 -11 -79 -40 -79 -56 0 -20 20 -17 44 5 24 22 67 31
73 15 2 -6 -12 -19 -32 -30 -19 -10 -35 -21 -35 -25 0 -3 -6 -6 -12 -6 -7 0
-22 -4 -33 -9 -17 -7 -18 -6 -7 8 10 12 10 18 -2 27 -12 10 -18 8 -31 -12 -19
-30 -10 -57 20 -57 12 0 48 14 80 31 48 25 56 27 50 12 -12 -28 -18 -73 -10
-73 4 0 38 28 76 61 39 34 72 59 75 57 3 -3 -2 -24 -11 -46 -23 -56 -17 -87
15 -87 16 0 25 6 25 15 0 8 -6 14 -12 13 -18 -4 -16 9 12 79 14 34 25 67 25
75 0 29 -45 8 -107 -50 -34 -32 -40 -27 -23 17 11 29 -3 44 -24 27 -10 -9 -15
-8 -20 4 -6 16 -17 17 -57 5z"/>
<path d="M2930 7394 c-33 -21 -81 -84 -78 -102 7 -36 35 -37 97 -4 34 18 63
32 65 32 1 0 2 -19 2 -42 -1 -36 2 -43 18 -43 11 0 21 6 24 14 3 8 1 11 -4 8
-5 -2 -15 1 -22 9 -7 8 -9 14 -4 14 13 0 45 76 38 89 -8 12 -56 -7 -56 -22 0
-6 -3 -7 -7 -4 -3 4 -30 -7 -60 -24 -37 -21 -53 -26 -53 -17 0 16 44 60 78 77
12 7 20 16 17 22 -9 13 -26 11 -55 -7z"/>
<path d="M4103 7400 c-37 -15 -131 -113 -139 -144 -10 -40 13 -79 51 -86 28
-6 98 20 110 40 11 18 -17 21 -47 6 -39 -20 -62 -20 -78 -1 -11 13 -10 22 3
50 22 47 113 117 146 113 18 -2 26 2 26 12 0 18 -40 23 -72 10z"/>
<path d="M5650 7401 c0 -5 -13 -12 -30 -16 -46 -10 -92 -58 -88 -92 3 -27 5
-28 58 -28 46 0 63 6 103 33 26 18 47 39 47 47 0 7 -14 25 -31 39 -31 26 -59
34 -59 17z m35 -34 c23 -18 14 -32 -35 -57 -40 -21 -90 -27 -90 -11 0 16 53
61 71 61 11 0 19 5 19 10 0 14 13 13 35 -3z"/>
<path d="M4300 7362 c-29 -10 -69 -57 -65 -77 2 -11 4 -25 4 -31 2 -32 86 -21
135 17 27 21 35 62 15 75 -19 11 -73 21 -89 16z m54 -38 c24 -9 19 -22 -14
-39 -38 -20 -80 -20 -80 0 0 8 7 15 15 15 9 0 18 7 21 15 6 16 31 19 58 9z"/>
<path d="M2747 7264 c-3 -3 -15 -7 -28 -9 -69 -14 -144 -42 -144 -56 0 -16 2
-16 78 5 39 11 57 22 57 33 0 12 3 13 14 4 16 -14 69 -4 63 12 -3 11 -32 18
-40 11z"/>
<path d="M2989 7148 c-39 -37 -88 -120 -113 -194 -13 -38 -33 -88 -45 -111
-11 -23 -21 -49 -21 -58 0 -23 27 -18 34 8 3 12 10 28 14 35 9 13 106 52 132
52 27 0 46 18 33 31 -10 10 -46 3 -130 -28 -13 -5 30 117 59 167 41 68 98 117
83 71 -8 -26 13 -37 33 -18 13 13 13 21 4 42 -15 32 -50 33 -83 3z"/>
<path d="M3715 7143 c-3 -10 -11 -40 -16 -67 -16 -83 -50 -165 -71 -172 -14
-4 -18 -12 -15 -25 3 -11 -3 -44 -14 -74 -22 -64 -25 -105 -5 -105 8 0 16 15
20 38 3 21 15 61 27 89 20 48 23 51 66 57 25 3 68 6 95 6 47 0 49 -1 42 -22
-3 -13 -15 -35 -25 -49 -22 -32 -29 -70 -13 -76 12 -4 74 114 74 140 0 30 -27
39 -114 35 -48 -2 -86 -2 -86 -1 0 1 9 23 21 50 11 26 22 64 24 84 1 19 8 46
14 58 13 23 9 51 -8 51 -5 0 -12 -8 -16 -17z"/>
<path d="M3540 7081 c0 -13 26 -32 33 -24 14 13 6 33 -13 33 -11 0 -20 -4 -20
-9z"/>
<path d="M2470 7063 c0 -9 -14 -46 -30 -82 -31 -66 -31 -66 -68 -63 -57 5
-122 -33 -149 -88 -28 -54 -29 -81 -5 -110 18 -22 19 -22 51 -6 18 10 50 33
71 52 l38 35 7 -31 c4 -20 17 -36 37 -46 35 -18 78 -11 78 12 0 12 -6 15 -25
10 -18 -5 -31 0 -46 15 -26 26 -21 66 16 132 47 84 69 187 40 187 -8 0 -15 -8
-15 -17z m-80 -188 c0 -37 -131 -148 -152 -127 -25 25 22 104 76 128 42 18 76
18 76 -1z"/>
<path d="M3963 7035 c-8 -22 2 -29 43 -32 41 -2 46 18 9 35 -34 16 -44 15 -52
-3z"/>
<path d="M3137 7004 c-9 -10 12 -34 30 -34 19 0 12 34 -8 38 -8 1 -18 0 -22
-4z"/>
<path d="M2610 6934 c-45 -42 -50 -51 -50 -89 0 -63 29 -85 111 -85 64 0 101
12 85 27 -4 4 -37 6 -72 4 -73 -3 -94 7 -94 49 0 24 6 29 44 40 70 19 103 59
74 88 -22 22 -48 13 -98 -34z m66 -2 c-3 -5 -16 -12 -28 -15 l-23 -6 24 20
c23 19 39 20 27 1z"/>
<path d="M4410 6963 c-14 -9 -35 -25 -47 -36 -22 -19 -22 -19 -16 2 10 37 -25
24 -43 -16 -10 -21 -24 -46 -32 -55 -13 -16 -10 -38 7 -38 4 0 33 23 64 51 32
28 60 49 62 47 3 -2 1 -19 -5 -36 -11 -40 4 -88 30 -95 20 -5 115 24 132 41
23 23 -3 30 -45 12 -63 -29 -87 -27 -87 9 0 16 6 46 14 67 12 37 12 65 -2 63
-4 0 -18 -7 -32 -16z"/>
<path d="M3476 6938 c-2 -7 -9 -29 -16 -48 -18 -51 -17 -74 3 -78 11 -2 17 3
17 15 0 10 7 37 15 61 9 24 13 48 10 53 -9 13 -25 11 -29 -3z"/>
<path d="M3246 6915 c-72 -49 -123 -128 -95 -146 19 -12 32 -11 24 1 -3 6 -2
10 4 10 6 0 8 6 5 14 -9 24 86 119 103 103 2 -3 -5 -27 -16 -52 -26 -58 -27
-78 -3 -73 9 2 17 8 17 13 0 6 8 31 18 57 34 88 10 119 -57 73z"/>
<path d="M4164 6925 c-15 -11 -17 -16 -6 -26 34 -36 -2 -69 -75 -69 -35 0 -36
1 -19 19 10 11 31 25 47 31 29 12 40 40 16 40 -24 0 -105 -58 -112 -81 -9 -28
17 -50 54 -44 14 2 42 7 62 10 48 7 82 40 73 68 -4 12 -7 30 -6 39 1 25 -12
30 -34 13z"/>
<path d="M3050 6881 c0 -4 -11 -24 -23 -43 -18 -25 -22 -40 -16 -56 5 -12 10
-22 13 -22 6 0 56 109 56 121 0 5 -7 9 -15 9 -8 0 -15 -4 -15 -9z"/>
<path d="M4747 6853 c-4 -3 -7 -17 -7 -30 0 -35 34 -26 38 10 3 26 -14 37 -31
20z"/>
<path d="M8020 6388 c-64 -141 -110 -249 -110 -257 0 -5 -18 -12 -40 -16 -26
-4 -40 -12 -40 -22 0 -11 8 -14 30 -11 36 5 36 6 7 -53 -24 -48 -24 -69 -2
-69 7 0 23 30 36 68 l24 67 53 3 c50 3 52 2 52 -23 0 -14 -9 -43 -20 -64 -18
-36 -18 -51 1 -51 4 0 22 26 39 58 45 84 98 152 118 152 18 0 104 -49 86 -50
-18 0 -94 -76 -94 -93 0 -24 23 -21 80 8 27 14 51 25 54 25 3 0 6 -15 8 -32 2
-26 8 -34 27 -36 13 -2 28 1 34 7 6 6 19 11 28 11 20 0 44 26 31 34 -6 3 -26
-1 -46 -9 -49 -21 -49 -20 -42 26 9 58 1 64 -49 34 -49 -28 -55 -30 -55 -14 0
5 4 8 9 4 17 -10 41 36 30 57 -14 26 -69 58 -100 58 -28 0 -84 -49 -95 -83 -5
-17 -8 -17 -22 -3 -10 8 -38 16 -63 18 l-47 3 55 125 c30 69 60 137 68 151 14
25 11 39 -7 39 -5 0 -22 -28 -38 -62z"/>
<path d="M12009 6413 c-5 -15 -19 -59 -29 -98 -40 -143 -117 -257 -208 -308
-32 -18 -32 -18 -32 5 1 32 33 99 59 122 13 12 34 19 56 18 41 -2 46 13 11 30
-61 27 -156 -79 -156 -174 0 -49 20 -58 68 -32 100 54 181 164 222 304 13 41
30 87 38 101 15 27 11 59 -8 59 -6 0 -15 -12 -21 -27z"/>
<path d="M6185 6421 c-40 -16 -101 -97 -133 -173 -18 -42 -32 -81 -32 -86 0
-6 -39 -20 -87 -33 -109 -29 -124 -42 -113 -101 25 -129 69 -137 148 -27 24
33 50 76 59 95 16 32 20 34 66 34 l49 0 -30 -37 c-43 -55 -54 -82 -48 -109 15
-59 129 1 142 75 4 20 14 41 22 47 13 9 12 14 -6 32 -19 19 -34 22 -97 22
l-74 0 13 38 c39 109 95 184 148 197 24 6 29 3 38 -20 11 -30 37 -29 32 1 -9
45 -49 64 -97 45z m-18 -384 c-16 -25 -64 -54 -73 -45 -8 8 12 44 50 92 l31
38 3 -32 c2 -17 -3 -41 -11 -53z m-178 51 c-28 -53 -93 -129 -107 -126 -17 3
-35 58 -30 91 2 16 17 25 58 38 81 25 94 24 79 -3z"/>
<path d="M12676 6398 c-3 -13 -35 -72 -71 -133 -36 -60 -68 -117 -70 -126 -3
-9 -20 -20 -37 -25 -40 -12 -53 -39 -14 -32 14 3 26 3 26 1 0 -2 -13 -30 -30
-63 -33 -66 -36 -80 -16 -80 7 0 29 35 48 78 l36 79 58 11 c31 7 61 12 65 12
4 0 -8 -34 -27 -75 -32 -66 -38 -105 -14 -90 12 8 80 155 80 175 0 28 -10 30
-78 16 -34 -7 -62 -10 -62 -7 0 4 32 59 70 124 39 64 70 126 70 137 0 27 -26
25 -34 -2z"/>
<path d="M12277 6403 c-4 -3 -7 -23 -7 -44 0 -52 -18 -135 -42 -191 -21 -48
-37 -63 -34 -31 2 31 -38 26 -84 -9 -75 -57 -132 -153 -111 -187 28 -44 195
92 249 202 31 63 70 237 57 257 -7 12 -19 13 -28 3z m-117 -339 c-38 -40 -108
-94 -122 -94 -29 0 26 81 88 130 34 28 39 29 53 15 14 -13 12 -19 -19 -51z"/>
<path d="M5370 6343 c-53 -60 -97 -135 -111 -190 -9 -33 -22 -49 -66 -82 -56
-41 -127 -70 -140 -57 -11 11 39 95 76 128 21 18 41 28 52 25 25 -7 35 11 16
30 -13 13 -19 12 -56 -7 -76 -38 -152 -189 -104 -207 26 -10 104 15 159 51
l51 34 24 -31 c23 -29 31 -31 96 -35 68 -4 120 9 109 27 -3 5 -36 6 -74 3 -78
-5 -109 6 -118 43 -5 20 4 36 47 82 74 82 124 198 95 222 -11 9 -22 2 -56 -36z
m1 -80 c-11 -21 -34 -54 -51 -73 l-31 -35 22 45 c24 51 69 114 76 107 2 -3 -5
-22 -16 -44z"/>
<path d="M8880 6378 c0 -6 -25 -62 -57 -124 -60 -120 -63 -122 -157 -136 -11
-2 -21 -9 -24 -17 -4 -11 6 -13 51 -8 l57 6 -14 -32 c-7 -18 -21 -48 -31 -69
-18 -37 -14 -73 8 -66 6 3 13 13 15 24 2 10 17 52 35 92 30 71 32 73 81 87 72
22 79 20 71 -12 -3 -16 -20 -49 -36 -74 -28 -45 -37 -79 -21 -79 11 0 67 87
82 124 15 40 12 86 -5 92 -8 3 -36 -1 -62 -10 -25 -9 -50 -16 -55 -16 -5 0 14
44 42 97 52 101 61 133 35 133 -8 0 -15 -5 -15 -12z"/>
<path d="M7663 6318 c-50 -96 -143 -311 -143 -330 0 -18 29 -6 45 18 36 55 85
94 120 94 49 0 61 -21 27 -52 -39 -37 -105 -68 -131 -61 -16 4 -21 1 -21 -16
0 -16 6 -21 25 -21 55 0 185 87 185 124 0 53 -102 76 -153 36 -25 -20 -24 -17
14 67 22 48 49 104 59 124 23 42 25 59 7 59 -6 0 -22 -19 -34 -42z"/>
<path d="M10805 6234 c-27 -65 -60 -130 -73 -146 -23 -27 -133 -108 -148 -108
-25 0 75 148 109 160 31 10 28 30 -4 30 -29 0 -69 -44 -113 -122 -31 -55 -35
-71 -26 -88 6 -11 16 -20 22 -20 17 0 108 59 146 94 30 28 32 28 32 9 0 -44
67 -72 98 -41 20 20 13 27 -25 25 -36 -2 -38 0 -41 31 -2 18 4 47 13 65 24 46
85 202 85 216 0 6 -6 11 -13 11 -7 0 -34 -52 -62 -116z"/>
<path d="M2814 6306 c-7 -19 3 -36 22 -36 10 0 14 8 12 22 -4 26 -26 36 -34
14z"/>
<path d="M3250 6243 c-52 -119 -48 -115 -122 -132 -75 -18 -83 -23 -74 -47 4
-11 10 -13 19 -6 14 12 97 35 103 29 2 -2 -7 -34 -21 -71 -28 -73 -32 -106
-12 -106 6 0 25 41 41 90 16 49 34 94 40 100 5 5 31 10 57 10 52 0 79 7 79 21
0 5 -27 9 -60 9 -33 0 -60 2 -60 4 0 2 14 33 30 69 17 37 30 73 30 82 0 34
-22 11 -50 -52z"/>
<path d="M9089 6283 c-1 -16 -1 -32 0 -36 1 -5 -8 -11 -19 -14 -13 -3 -20 -14
-20 -29 0 -27 17 -32 26 -9 4 8 12 15 19 15 12 0 25 42 25 81 0 31 -30 23 -31
-8z"/>
<path d="M12857 6303 c-4 -3 -7 -17 -7 -31 0 -18 4 -23 16 -18 9 3 18 6 20 6
2 0 4 11 4 25 0 24 -18 34 -33 18z"/>
<path d="M12444 6255 c-8 -21 3 -48 19 -43 19 7 22 58 2 58 -8 0 -18 -7 -21
-15z"/>
<path d="M13200 6204 c-30 -20 -77 -56 -103 -81 -27 -25 -51 -43 -54 -39 -3 3
2 23 10 45 10 24 13 42 7 46 -11 7 -50 -52 -50 -75 0 -8 -9 -30 -20 -48 -22
-36 -25 -52 -10 -52 11 0 126 85 135 100 3 5 24 23 46 41 l40 32 -35 -70 c-20
-39 -36 -78 -36 -87 0 -24 37 -56 64 -56 38 0 124 31 142 52 24 25 9 35 -24
16 -37 -22 -106 -40 -126 -32 -9 3 -16 17 -16 31 0 24 71 156 90 168 12 7 14
45 2 45 -4 0 -32 -16 -62 -36z"/>
<path d="M4881 6180 c-23 -17 -51 -50 -63 -75 -21 -43 -21 -45 -3 -65 22 -25
48 -25 101 -1 68 31 103 92 69 121 -19 16 -40 3 -25 -15 8 -10 8 -19 0 -34
-11 -22 -79 -61 -105 -61 -18 0 -19 26 -2 57 14 26 75 73 94 73 7 0 13 7 13
15 0 24 -34 17 -79 -15z"/>
<path d="M4670 6183 c-45 -16 -123 -119 -118 -156 6 -42 102 -32 162 16 39 32
39 79 -1 118 -15 14 -35 24 -43 22z m-5 -63 c3 -5 15 -10 26 -10 51 0 -6 -64
-67 -76 -45 -8 -50 -2 -28 33 37 59 56 74 69 53z"/>
<path d="M6385 6175 c-16 -7 -43 -26 -59 -43 -15 -17 -34 -28 -42 -25 -8 3
-16 -5 -20 -24 -4 -15 -16 -43 -27 -61 -15 -26 -17 -36 -7 -45 9 -9 15 -8 24
7 33 55 98 137 119 151 14 8 42 18 63 21 32 4 69 21 54 25 -33 7 -81 5 -105
-6z"/>
<path d="M10225 6165 c-22 -8 -50 -25 -61 -39 -30 -35 -58 -110 -50 -139 11
-44 30 -42 140 11 4 2 5 -5 2 -16 -14 -41 14 -30 82 33 81 76 141 125 153 125
10 0 -4 -39 -25 -72 -7 -13 -22 -45 -31 -71 -17 -44 -17 -50 -2 -64 14 -14 19
-14 51 6 20 13 36 26 36 30 0 18 -15 20 -37 6 -32 -21 -30 -4 7 68 78 154 31
179 -104 56 l-57 -52 32 51 c36 59 31 94 -8 46 -17 -21 -23 -25 -23 -12 0 17
-36 48 -55 48 -5 -1 -28 -7 -50 -15z m59 -21 c9 -3 16 -13 16 -21 0 -8 4 -12
9 -9 5 4 7 -3 4 -14 -10 -37 -151 -126 -169 -107 -9 9 15 73 38 103 16 20 60
48 85 54 1 0 8 -3 17 -6z"/>
<path d="M11545 6164 c-43 -22 -94 -73 -116 -116 -23 -45 -24 -62 -3 -79 15
-12 33 -6 134 48 3 2 4 -15 2 -38 -5 -45 8 -65 34 -55 13 5 15 9 6 18 -17 17
-15 43 8 90 28 58 12 70 -42 31 -54 -38 -128 -76 -128 -65 0 22 64 104 99 128
44 29 71 26 71 -6 0 -11 7 -20 15 -20 10 0 15 10 15 28 0 51 -38 66 -95 36z"/>
<path d="M4318 6152 c-73 -48 -115 -157 -70 -181 34 -18 117 33 150 94 10 17
11 13 12 -26 0 -68 -10 -109 -28 -109 -26 0 -81 -49 -102 -90 -13 -25 -20 -59
-20 -95 0 -95 32 -121 82 -67 41 43 56 80 82 196 6 25 10 28 36 22 25 -5 30
-2 30 14 0 15 -7 20 -28 20 l-29 0 5 76 c5 79 -10 129 -35 120 -7 -3 -13 -1
-13 4 0 10 -28 40 -38 40 -4 0 -19 -8 -34 -18z m42 -55 c0 -36 -12 -55 -50
-81 -60 -39 -69 8 -14 72 44 52 64 54 64 9z m30 -235 c0 -56 -69 -190 -91
-177 -27 18 17 160 58 184 26 15 33 13 33 -7z"/>
<path d="M7211 6157 c-19 -7 -43 -24 -55 -40 -21 -28 -20 -37 10 -129 5 -14
-2 -17 -37 -20 -23 -2 -44 -9 -47 -15 -6 -20 93 -17 112 3 20 19 20 17 -5 66
-27 53 -19 85 26 104 46 19 85 18 85 -2 0 -8 7 -22 15 -30 13 -14 15 -12 15
18 0 19 -5 39 -12 46 -15 15 -62 15 -107 -1z"/>
<path d="M8499 6138 c-84 -88 -69 -165 28 -151 21 3 35 12 39 25 7 24 -2 36
-18 20 -15 -15 -65 -16 -73 -1 -9 13 38 84 70 105 14 9 22 20 19 25 -10 17
-34 9 -65 -23z"/>
<path d="M9409 6148 c-33 -35 -98 -78 -119 -78 -10 0 -47 -13 -82 -29 l-64
-28 19 55 c21 65 12 86 -27 62 -67 -42 -146 -112 -146 -130 0 -25 27 -26 35
-2 3 11 24 32 48 49 69 49 70 49 53 8 -16 -38 -21 -77 -11 -87 4 -3 37 10 75
28 37 19 74 34 82 34 22 1 102 40 127 63 l24 22 -6 -45 c-4 -25 -9 -77 -13
-117 l-6 -72 -49 -10 c-65 -14 -119 -37 -146 -63 -52 -49 -11 -168 58 -168 52
0 128 93 162 201 3 11 27 20 69 28 89 17 98 20 98 37 0 17 -19 15 -108 -8 -23
-6 -45 -8 -48 -5 -5 5 12 182 22 221 3 12 -1 30 -9 40 -14 19 -15 19 -38 -6z
m-41 -360 c-30 -63 -78 -118 -106 -118 -25 0 -52 41 -52 79 0 23 8 34 33 50
31 19 138 53 146 45 1 -1 -8 -27 -21 -56z"/>
<path d="M12865 6138 c-69 -54 -105 -139 -70 -168 22 -19 79 -4 116 31 30 28
31 32 25 79 -12 88 -22 97 -71 58z m40 -55 c6 -34 3 -40 -25 -66 -33 -30 -63
-32 -68 -6 -3 16 63 109 77 109 5 0 12 -17 16 -37z"/>
<path d="M3455 6138 c-30 -16 -75 -60 -75 -73 0 -7 9 -20 20 -30 11 -10 20
-24 20 -31 0 -19 -74 -64 -106 -64 -31 0 -28 -23 4 -28 42 -6 142 64 142 100
0 10 -9 23 -20 30 -30 19 -24 35 20 60 22 13 40 29 40 36 0 15 -18 15 -45 0z"/>
<path d="M7343 6064 c-21 -46 -23 -60 -14 -80 14 -31 37 -30 92 5 66 41 116
131 74 131 -8 0 -15 -7 -15 -15 0 -34 -110 -129 -124 -106 -3 5 6 30 19 57 29
57 30 64 9 64 -9 0 -26 -23 -41 -56z"/>
<path d="M2692 6018 c-18 -39 -36 -84 -39 -99 -6 -33 16 -51 24 -20 3 12 21
54 39 92 36 76 41 99 22 99 -7 0 -28 -33 -46 -72z"/>
<path d="M2863 6055 c-49 -42 -87 -100 -79 -120 7 -20 36 -8 36 15 0 23 87
113 100 105 16 -10 12 -31 -16 -96 -28 -69 -29 -112 0 -117 16 -3 18 0 12 22
-4 17 2 47 19 88 30 75 32 113 6 128 -29 15 -33 13 -78 -25z"/>
<path d="M12284 6038 c-4 -13 -15 -29 -25 -36 -25 -17 -24 -39 2 -47 26 -9 32
-1 47 51 15 52 15 54 -2 54 -8 0 -18 -10 -22 -22z"/>
<path d="M8245 5571 c-81 -46 -118 -113 -150 -269 -9 -42 -20 -80 -24 -85 -4
-4 -31 -10 -59 -14 -45 -5 -50 -8 -42 -23 8 -15 16 -17 51 -9 23 5 43 8 45 6
2 -1 -8 -26 -21 -55 -20 -42 -30 -53 -55 -58 -33 -7 -37 -16 -17 -32 31 -26
101 50 121 130 4 17 16 30 37 37 56 19 59 13 23 -40 -46 -69 -43 -119 8 -119
57 0 89 44 86 120 -3 66 -24 84 -88 77 -48 -6 -50 -5 -45 16 2 12 11 53 20 90
8 37 22 82 31 100 40 78 121 133 186 124 27 -4 38 -1 38 8 0 35 -81 33 -145
-4z m-26 -443 c1 -22 -33 -58 -54 -58 -22 0 -19 17 12 69 23 39 27 43 34 26 4
-11 8 -28 8 -37z"/>
<path d="M12289 5525 c-99 -36 -220 -153 -268 -260 -46 -102 -101 -242 -101
-258 0 -35 24 -10 48 49 47 119 95 214 109 214 8 0 13 8 12 18 -3 33 1 41 51
95 55 60 123 105 178 118 l34 7 -5 -41 c-8 -56 -76 -189 -154 -297 -34 -49
-63 -96 -63 -104 0 -29 33 -17 89 32 59 51 110 87 114 81 18 -27 37 -87 37
-113 0 -19 7 -40 17 -47 40 -34 184 3 230 59 17 21 22 23 23 10 0 -39 63 -45
103 -10 43 38 5 -26 -78 -128 -33 -41 -68 -84 -78 -95 -21 -23 -31 -59 -23
-80 9 -25 20 -17 46 37 14 29 54 88 89 132 77 96 155 222 146 236 -11 18 -25
11 -79 -40 -29 -27 -62 -50 -74 -50 -20 0 -20 1 -5 46 8 25 13 48 9 51 -10 10
-35 -18 -41 -48 -5 -20 -13 -29 -27 -29 -11 0 -33 -11 -50 -25 -35 -30 -122
-57 -154 -49 -32 8 -34 54 -3 54 12 0 39 10 61 22 33 19 39 27 36 51 -2 17
-12 36 -25 45 -22 14 -25 12 -65 -27 -30 -31 -43 -39 -49 -29 -5 7 -9 18 -9
25 0 6 -7 19 -16 27 -14 14 -18 14 -47 0 -18 -9 -47 -30 -64 -47 -43 -41 -42
-29 6 41 59 88 108 182 125 241 14 49 14 57 1 78 -17 26 -34 28 -86 8z m201
-360 c0 -14 -57 -51 -66 -42 -2 2 5 16 17 30 22 29 49 36 49 12z"/>
<path d="M2954 5501 c-67 -39 -110 -90 -151 -178 -41 -90 -62 -180 -66 -280
-3 -101 16 -105 54 -14 l27 64 17 -26 c19 -29 107 -77 142 -77 39 0 27 28 -15
35 -22 3 -55 20 -75 36 -31 25 -37 37 -37 68 0 41 35 103 104 186 85 101 116
148 116 175 0 49 -43 53 -116 11z m86 -20 c0 -9 -51 -78 -122 -164 l-48 -58 0
40 c0 22 -5 43 -10 46 -31 19 101 145 153 145 15 0 27 -4 27 -9z m-222 -284
c-10 -37 -25 -82 -33 -100 l-15 -32 5 53 c3 29 15 83 27 120 28 91 43 55 16
-41z"/>
<path d="M4557 5464 c-4 -4 -7 -20 -7 -35 0 -15 -30 -99 -66 -186 -87 -207
-98 -242 -78 -250 20 -7 27 2 30 35 1 15 29 90 61 167 80 190 82 195 85 234 3
32 -10 50 -25 35z"/>
<path d="M7460 5363 c-50 -98 -62 -113 -135 -174 -44 -37 -82 -66 -84 -63 -10
9 25 57 52 70 15 9 27 20 25 26 -9 25 -30 18 -68 -20 -32 -31 -40 -47 -40 -75
0 -65 23 -58 133 36 l58 50 -6 -49 c-10 -83 41 -137 79 -82 21 29 4 48 -20 23
-17 -17 -18 -17 -26 11 -11 42 13 127 67 233 47 94 54 121 33 121 -7 0 -38
-48 -68 -107z"/>
<path d="M9594 5428 c0 -59 -27 -143 -66 -208 l-33 -54 -55 3 c-62 3 -104 -10
-137 -41 -28 -26 -47 -81 -39 -114 9 -34 59 -32 118 5 61 39 165 161 199 235
31 68 56 174 46 199 -13 33 -32 18 -33 -25z m-146 -310 c-23 -35 -110 -98
-135 -98 -27 0 -28 8 -8 56 16 40 59 63 119 64 38 0 38 0 24 -22z"/>
<path d="M3444 5398 c-38 -59 -62 -116 -74 -176 -9 -40 -16 -51 -32 -54 -29
-4 -36 -28 -9 -28 17 0 21 -6 21 -32 0 -18 -5 -51 -10 -73 -5 -22 -5 -44 -1
-48 15 -15 31 21 38 89 l8 69 58 3 c31 2 57 0 57 -3 0 -3 -9 -24 -21 -46 -25
-50 -31 -124 -10 -124 9 0 16 13 18 35 2 19 15 61 30 92 15 32 23 61 19 65 -4
5 -37 9 -73 10 -35 1 -67 3 -69 6 -8 7 35 131 61 175 14 24 21 50 18 59 -5 13
-2 15 11 10 10 -4 15 -3 11 3 -11 18 -25 10 -51 -32z"/>
<path d="M10516 5342 c-6 -10 12 -72 21 -73 10 0 23 62 17 73 -3 5 -11 8 -19
8 -8 0 -16 -3 -19 -8z"/>
<path d="M10107 5334 c-14 -14 -7 -39 14 -52 33 -21 45 0 17 32 -13 15 -27 24
-31 20z"/>
<path d="M3604 5305 c-7 -17 1 -45 13 -45 11 0 32 47 25 55 -11 10 -33 5 -38
-10z"/>
<path d="M9714 5308 c-9 -15 27 -41 39 -29 13 13 1 41 -17 41 -8 0 -18 -5 -22
-12z"/>
<path d="M4670 5259 c-60 -36 -80 -60 -80 -95 0 -24 8 -39 31 -58 l30 -26 -28
-11 c-15 -6 -41 -11 -56 -11 -34 -1 -42 -12 -22 -28 12 -10 26 -9 72 6 71 23
81 50 33 84 -47 34 -39 67 27 105 49 28 60 44 37 52 -5 2 -25 -7 -44 -18z"/>
<path d="M5767 5250 c-82 -72 -119 -166 -83 -215 27 -38 129 -11 185 48 32 35
17 56 -18 24 -37 -35 -88 -59 -119 -55 -22 2 -28 9 -30 34 -4 40 28 80 72 88
71 13 115 97 54 104 -18 2 -37 -6 -61 -28z m44 -20 c-13 -11 -28 -20 -35 -20
-6 1 0 10 13 20 13 11 28 20 35 20 6 -1 0 -10 -13 -20z"/>
<path d="M6858 5239 c-48 -50 -63 -86 -46 -106 16 -19 56 -9 91 25 31 30 35
56 10 71 -17 10 -17 10 0 11 10 0 17 8 17 20 0 32 -30 24 -72 -21z m26 -60
c-17 -18 -44 -26 -44 -12 0 15 33 41 46 36 13 -5 12 -8 -2 -24z"/>
<path d="M5515 5227 c-72 -75 -106 -177 -60 -177 16 0 35 35 55 100 23 77 65
107 101 74 14 -12 23 -14 30 -7 8 8 4 17 -12 32 -36 33 -67 27 -114 -22z"/>
<path d="M5256 5219 c-76 -67 -100 -151 -45 -157 17 -2 37 6 55 21 l29 25 0
-40 c0 -27 6 -44 17 -51 21 -14 36 -1 20 15 -7 7 -12 20 -12 31 0 26 41 120
58 133 12 9 8 15 -20 32 -47 29 -61 28 -102 -9z m74 -21 c0 -13 -99 -108 -112
-108 -22 0 0 48 45 98 22 23 67 30 67 10z"/>
<path d="M9940 5226 c0 -48 -127 -212 -148 -191 -4 4 -7 36 -8 73 -1 66 -16
93 -29 51 -4 -13 -2 -24 5 -29 8 -5 9 -10 1 -14 -13 -8 -8 -75 8 -105 7 -11
18 -21 26 -21 33 0 119 101 169 198 14 26 15 37 5 48 -17 21 -29 17 -29 -10z"/>
<path d="M13785 5219 c-42 -38 -147 -188 -139 -201 13 -21 34 -2 79 73 26 44
61 91 77 104 24 20 31 22 57 12 35 -13 52 -3 30 18 -31 30 -64 28 -104 -6z"/>
<path d="M7043 5203 c-47 -59 -57 -82 -42 -99 28 -34 135 7 154 60 8 25 6 31
-18 52 -39 33 -59 30 -94 -13z m80 -17 c6 -15 -13 -36 -50 -55 -51 -26 -58 -3
-12 40 34 32 54 37 62 15z"/>
<path d="M8452 5232 c-27 -4 -63 -50 -91 -115 -25 -57 -27 -87 -6 -87 8 0 19
17 26 43 25 92 54 120 131 121 21 1 38 6 39 11 1 13 -69 32 -99 27z"/>
<path d="M13973 5219 c-49 -24 -100 -78 -109 -115 -9 -37 11 -73 51 -90 45
-18 85 -18 135 2 40 16 49 34 31 63 -11 17 -32 6 -25 -13 4 -9 -7 -18 -31 -26
-68 -22 -141 10 -129 57 4 16 17 23 50 28 24 3 46 10 49 16 4 5 10 7 15 4 13
-8 50 32 50 53 0 20 -18 42 -34 42 -6 0 -30 -9 -53 -21z m46 -33 c-8 -8 -32
-19 -53 -25 -45 -12 -39 -2 18 28 42 22 60 20 35 -3z"/>
<path d="M4207 5190 c-86 -75 -66 -165 23 -106 l40 26 0 -29 c0 -38 9 -61 24
-61 7 0 11 24 12 70 0 43 -4 70 -10 70 -6 0 -33 -16 -60 -35 -27 -19 -51 -33
-53 -31 -9 8 27 64 50 79 14 9 34 13 46 10 23 -6 28 6 9 25 -20 20 -45 14 -81
-18z"/>
<path d="M6535 5189 c-24 -21 -35 -40 -35 -58 0 -55 40 -66 90 -24 l32 27 -7
-65 c-4 -35 -9 -67 -12 -71 -2 -4 -17 -5 -33 -2 -56 12 -108 -72 -127 -202 -4
-33 -2 -42 12 -48 23 -8 117 91 147 156 l22 47 33 -20 c30 -19 53 -19 53 -1 0
4 -17 17 -38 29 l-39 22 8 53 c4 29 8 77 8 106 1 28 6 52 11 52 6 0 10 7 10
15 0 11 -12 15 -50 15 -41 0 -55 -5 -85 -31z m75 -18 c-11 -21 -58 -61 -71
-61 -5 0 -9 9 -9 19 0 23 45 61 72 61 15 0 17 -3 8 -19z m-20 -224 c0 -19 -53
-96 -89 -131 -36 -35 -36 -36 -15 35 26 88 40 109 74 109 18 0 30 -5 30 -13z"/>
<path d="M13465 5199 c-50 -26 -102 -75 -122 -113 -14 -27 -14 -31 3 -43 25
-19 86 -9 142 22 l44 25 -6 -23 c-3 -13 1 -32 8 -43 12 -15 16 -16 29 -5 13
10 14 17 5 31 -10 15 -6 28 20 70 18 28 32 54 32 58 0 7 -56 29 -95 38 -11 2
-38 -6 -60 -17z m83 -23 l24 -13 -39 -30 c-67 -53 -163 -90 -163 -62 0 17 78
89 114 105 38 16 36 16 64 0z"/>
<path d="M10825 5180 c-27 -18 -62 -46 -78 -63 -27 -32 -27 -32 -16 -4 9 20 9
31 2 38 -8 8 -21 -11 -47 -66 -62 -132 -43 -140 58 -24 38 44 86 89 107 99
l38 20 -15 -37 c-9 -20 -29 -60 -46 -89 -16 -29 -27 -58 -23 -64 15 -25 105 2
105 32 0 10 -16 8 -52 -7 -14 -5 -8 13 23 74 22 45 39 89 37 99 -5 28 -40 25
-93 -8z"/>
<path d="M3970 5178 c-34 -21 -40 -24 -59 -27 -15 -2 -53 -103 -43 -113 6 -6
16 0 28 17 54 77 99 115 134 115 6 0 -7 -34 -30 -75 -43 -77 -46 -115 -11
-115 26 0 31 10 18 31 -9 15 -8 24 6 46 37 58 60 111 54 127 -9 23 -56 20 -97
-6z"/>
<path d="M7924 5189 c-10 -17 13 -36 27 -22 12 12 4 33 -11 33 -5 0 -12 -5
-16 -11z"/>
<path d="M10183 5175 c-40 -17 -42 -38 -8 -87 14 -20 25 -42 25 -47 0 -14 -57
-56 -76 -56 -7 0 -14 -3 -14 -7 0 -5 0 -12 0 -18 0 -21 38 -9 78 26 49 42 53
66 17 114 -30 41 -24 50 46 58 29 4 54 13 57 20 5 17 -84 15 -125 -3z"/>
<path d="M10604 5178 c-4 -6 0 -16 9 -23 23 -17 21 -61 -3 -85 -22 -22 -63
-35 -85 -26 -14 5 -14 9 0 36 8 16 27 37 40 46 30 19 32 34 6 34 -23 0 -78
-61 -87 -97 -13 -51 47 -68 116 -33 46 23 62 49 62 96 0 51 -38 85 -58 52z"/>
<path d="M3123 5147 c-38 -44 -59 -95 -45 -109 8 -8 24 -3 56 16 l46 27 0 -44
c0 -45 19 -75 40 -62 8 5 8 11 -1 21 -8 9 -9 31 -5 64 8 62 -7 72 -59 41 -19
-11 -35 -17 -35 -13 1 14 39 57 52 57 19 0 16 29 -3 33 -9 2 -29 -12 -46 -31z"/>
<path d="M3713 5156 c-15 -13 -39 -45 -53 -70 -31 -57 -21 -82 32 -80 39 1
117 48 128 78 11 31 0 96 -16 96 -8 0 -14 -5 -14 -12 0 -9 -3 -9 -12 0 -18 18
-33 15 -65 -12z m77 -56 c0 -15 -80 -70 -102 -70 -24 0 -23 8 9 55 39 59 54
67 76 45 9 -11 17 -24 17 -30z"/>
<path d="M10392 5168 c-19 -24 -50 -131 -43 -150 11 -31 26 -22 32 21 3 21 13
58 24 80 12 28 15 45 8 52 -7 7 -13 6 -21 -3z"/>
<path d="M9630 5108 c-33 -70 -38 -108 -15 -108 8 0 15 8 15 19 0 10 13 44 29
76 17 33 28 62 25 67 -12 19 -27 4 -54 -54z"/>
<path d="M10026 5133 c-24 -47 -25 -113 -1 -113 11 0 15 11 15 38 1 20 7 48
15 62 18 32 18 40 0 40 -8 0 -21 -12 -29 -27z"/>
<path d="M11283 5014 c-7 -19 14 -44 25 -28 4 6 15 13 25 17 28 10 20 27 -13
27 -19 0 -33 -6 -37 -16z"/>
<path d="M6901 4881 l-43 -109 -47 -7 c-26 -3 -53 -10 -60 -15 -18 -11 -4 -32
17 -26 10 2 31 7 48 11 l32 6 -14 -63 c-17 -81 -18 -121 -1 -116 6 3 19 41 28
87 9 45 19 84 22 87 11 11 83 24 135 24 39 0 52 4 49 13 -3 8 -29 12 -89 11
l-85 -2 34 81 c19 45 39 84 44 88 12 7 1 39 -15 39 -6 0 -31 -49 -55 -109z"/>
<path d="M2310 4946 c-16 -42 -38 -137 -45 -196 -3 -30 -17 -95 -30 -144 -13
-49 -22 -93 -19 -97 14 -23 34 13 54 99 35 147 119 290 167 280 29 -6 23 -98
-11 -178 -15 -36 -31 -78 -36 -93 -13 -41 10 -44 51 -6 19 17 49 43 67 57 31
23 33 24 51 8 18 -16 18 -20 4 -56 -18 -45 -11 -85 16 -100 29 -15 111 -16
121 -1 4 7 10 12 14 12 3 -1 7 2 9 6 1 4 -27 8 -62 8 -48 0 -66 4 -74 16 -15
25 9 75 43 89 38 16 73 54 68 76 -5 30 -33 27 -71 -5 -30 -27 -36 -29 -47 -16
-18 22 -48 19 -84 -8 -56 -42 -58 -42 -41 0 9 21 22 65 30 97 12 51 12 64 0
93 -12 28 -19 33 -48 33 -35 0 -74 -33 -119 -100 -15 -23 -15 -21 -1 40 8 36
19 70 24 76 6 7 4 16 -6 24 -12 10 -16 8 -25 -14z"/>
<path d="M4996 4937 c-14 -18 -43 -77 -65 -132 -35 -87 -43 -100 -66 -103 -30
-4 -34 -32 -4 -32 13 0 19 -5 17 -12 -34 -94 -40 -118 -34 -133 10 -26 20 -10
46 73 13 41 28 75 34 77 65 17 96 30 93 39 -3 6 -9 10 -15 9 -69 -15 -74 -14
-67 9 15 49 58 143 79 175 24 35 39 34 30 -2 -8 -33 14 -41 28 -11 8 20 8 32
0 51 -16 35 -46 31 -76 -8z"/>
<path d="M6024 4952 c-51 -43 -122 -169 -139 -249 -4 -21 -13 -33 -23 -34 -9
-1 -33 -2 -52 -3 -25 -1 -36 -6 -38 -19 -3 -17 1 -18 51 -12 l55 7 -9 -46
c-11 -58 -25 -86 -44 -86 -8 0 -15 -6 -15 -14 0 -16 27 -29 41 -20 18 10 46
79 53 127 7 43 9 47 36 47 39 0 60 9 60 27 0 13 -9 15 -44 10 l-44 -6 10 35
c25 90 110 224 142 224 8 0 24 -11 37 -25 25 -26 49 -33 49 -14 0 20 -58 69
-82 69 -13 0 -32 -8 -44 -18z"/>
<path d="M3934 4864 c-10 -14 -25 -49 -34 -77 -13 -39 -22 -53 -38 -55 -28 -4
-29 -22 -2 -29 17 -5 19 -11 15 -47 -15 -116 -15 -116 -1 -116 17 0 26 21 26
63 0 18 3 49 6 69 6 35 8 37 56 43 29 4 52 13 55 21 8 22 2 24 -46 13 -24 -5
-46 -7 -49 -4 -3 2 7 33 21 67 15 35 27 66 27 71 0 16 -20 6 -36 -19z"/>
<path d="M7180 4871 c0 -19 26 -48 36 -39 3 3 2 17 -2 32 -7 30 -34 36 -34 7z"/>
<path d="M7862 4793 c-84 -30 -89 -80 -11 -129 22 -14 39 -30 37 -37 -7 -20
-91 -58 -116 -52 -19 5 -23 2 -20 -12 5 -28 48 -27 108 4 83 42 79 82 -16 139
-29 18 -6 47 45 58 28 7 41 15 39 25 -4 21 -17 21 -66 4z"/>
<path d="M3420 4772 c-48 -24 -61 -55 -51 -122 11 -70 6 -83 -30 -76 -30 6
-48 -9 -31 -26 18 -18 65 -12 83 11 14 18 16 34 12 96 l-6 75 38 15 c22 10 49
14 66 10 30 -7 37 3 17 23 -17 17 -57 15 -98 -6z"/>
<path d="M7565 4778 c-64 -36 -154 -147 -155 -190 0 -36 26 -15 70 54 43 67
104 123 122 112 15 -10 8 -55 -17 -104 -27 -53 -24 -80 7 -80 16 0 19 5 15 21
-3 12 3 39 14 60 23 46 25 102 3 123 -18 19 -32 20 -59 4z"/>
<path d="M3578 4732 c-42 -40 -51 -55 -55 -92 -4 -38 -1 -48 17 -65 26 -23
102 -25 148 -3 29 14 32 36 4 29 -9 -2 -44 -4 -77 -5 -53 -1 -60 1 -63 19 -2
16 11 27 62 52 69 34 91 67 66 98 -21 26 -50 17 -102 -33z m80 6 c-3 -7 -24
-24 -49 -36 l-44 -24 37 36 c38 36 63 47 56 24z"/>
<path d="M6082 4728 c-15 -20 -64 -120 -72 -149 -9 -30 2 -55 19 -45 6 4 11
16 11 27 0 36 59 139 86 149 14 6 22 14 19 20 -9 14 -51 12 -63 -2z"/>
<path d="M6524 4711 c-29 -17 -64 -81 -64 -115 0 -19 33 -45 71 -56 40 -12
109 4 109 24 0 11 -13 13 -57 9 -78 -6 -102 10 -83 56 15 37 54 71 82 71 25 0
18 24 -8 28 -10 1 -33 -6 -50 -17z"/>
<path d="M7253 4687 c-70 -65 -67 -127 6 -127 87 1 149 72 121 140 -11 27 -17
30 -49 28 -26 -2 -48 -13 -78 -41z m101 -3 c11 -30 -5 -62 -40 -79 -78 -37
-102 2 -39 63 37 35 69 41 79 16z"/>
<path d="M7066 4656 c-41 -62 -47 -96 -16 -96 14 0 20 7 20 24 0 13 11 40 25
60 25 37 32 66 16 66 -5 0 -25 -24 -45 -54z"/>
<path d="M4653 4656 c-82 -84 -65 -160 32 -142 41 8 60 36 68 103 5 46 3 54
-16 68 -30 21 -37 19 -84 -29z m65 -48 c2 -28 -2 -40 -20 -52 -28 -20 -57 -21
-64 -2 -7 18 21 72 43 85 27 16 38 8 41 -31z"/>
<path d="M6296 4688 c4 -7 3 -8 -5 -4 -32 20 -118 -74 -110 -119 5 -27 49 -31
90 -9 30 15 34 15 44 0 7 -9 20 -16 29 -16 13 0 15 4 6 19 -7 13 -7 28 0 46
13 35 13 35 -9 35 -10 0 -21 -7 -24 -15 -6 -14 -77 -55 -97 -55 -5 0 -10 4
-10 10 0 13 71 92 78 86 2 -3 13 -1 24 5 20 11 16 29 -8 29 -9 0 -12 -5 -8
-12z"/>
<path d="M6679 4184 c-112 -55 -181 -81 -247 -91 -24 -4 -32 -10 -30 -22 7
-30 114 0 264 74 61 30 113 55 115 55 3 0 2 -31 -2 -70 -7 -65 -24 -112 -103
-295 -14 -33 -26 -75 -26 -93 0 -52 28 -38 81 41 l47 68 7 -50 c10 -72 35
-101 90 -101 31 0 46 -5 56 -20 30 -44 121 -42 103 3 -7 18 -34 24 -34 7 0
-16 -14 -11 -27 9 -11 17 -7 25 27 59 58 57 55 131 -5 116 -26 -6 -52 -49 -78
-126 -5 -13 -17 -18 -41 -18 -45 0 -57 22 -64 112 -6 87 -20 88 -74 3 -23 -36
-43 -63 -45 -61 -3 2 18 55 46 118 27 62 54 131 60 153 15 57 18 177 5 182 -5
2 -62 -22 -125 -53z m317 -386 c-18 -26 -22 -17 -5 14 6 11 13 17 16 15 3 -3
-2 -16 -11 -29z"/>
<path d="M10461 4078 c-6 -29 -17 -84 -24 -123 l-12 -70 -50 -17 c-28 -9 -51
-23 -53 -32 -4 -20 4 -20 57 -1 l43 15 -6 -30 c-3 -17 -9 -43 -12 -60 -3 -17
-12 -30 -20 -30 -19 0 -18 -14 5 -34 26 -24 38 -5 53 87 11 74 12 75 45 82 21
4 33 12 33 22 0 12 -7 14 -30 10 -20 -5 -30 -3 -30 6 1 12 34 180 41 206 2 8
-4 16 -13 18 -13 3 -19 -8 -27 -49z"/>
<path d="M10115 4041 c-7 -13 16 -62 27 -59 5 2 9 7 9 11 -1 4 -1 18 -1 32 0
25 -23 35 -35 16z"/>
<path d="M6557 3993 c-13 -21 -77 -304 -77 -339 0 -8 6 -14 13 -14 10 0 23 43
42 138 15 75 34 152 41 171 14 33 11 51 -6 51 -5 0 -11 -3 -13 -7z"/>
<path d="M13866 3898 c-37 -122 -42 -131 -89 -169 -58 -47 -157 -78 -157 -49
0 17 72 91 114 117 29 19 35 27 25 33 -35 22 -169 -101 -169 -156 0 -60 119
-40 208 34 l49 41 22 -30 c28 -38 87 -67 102 -52 8 8 0 17 -30 32 -23 12 -48
35 -57 52 -14 29 -15 35 0 68 32 74 45 171 23 171 -7 0 -24 -39 -41 -92z"/>
<path d="M14592 3895 c-17 -19 -49 -60 -71 -92 -22 -32 -51 -71 -64 -88 l-24
-29 -18 34 c-11 20 -20 66 -23 108 -4 59 -8 72 -20 70 -31 -6 -10 -165 28
-218 18 -26 18 -26 -27 -100 -81 -132 -95 -159 -91 -181 6 -41 26 -31 51 25
14 31 39 75 55 98 16 24 48 79 72 123 42 81 135 213 171 243 10 9 19 22 19 29
0 24 -28 13 -58 -22z"/>
<path d="M7140 3903 c-25 -18 -49 -64 -66 -128 -18 -64 -17 -85 0 -85 16 0 21
13 32 75 4 22 15 57 26 79 19 37 21 38 60 32 34 -6 39 -4 36 11 -4 24 -61 35
-88 16z"/>
<path d="M8330 3912 c0 -4 -16 -14 -35 -21 -20 -7 -41 -21 -47 -30 -7 -11 -19
-16 -30 -13 -16 4 -18 -3 -18 -72 0 -45 4 -76 10 -76 12 0 16 10 25 64 8 48
61 106 97 106 32 0 40 8 27 31 -10 19 -29 26 -29 11z"/>
<path d="M9082 3854 c-40 -36 -72 -63 -72 -59 0 3 9 24 21 47 22 44 14 72 -13
44 -18 -18 -90 -235 -82 -247 10 -17 22 -9 43 31 11 22 31 56 45 77 27 44 103
119 111 111 3 -2 -4 -31 -15 -64 -24 -68 -28 -127 -10 -149 22 -26 29 -16 24
33 -5 36 0 65 20 121 29 82 33 121 13 121 -7 0 -45 -30 -85 -66z"/>
<path d="M7279 3873 c-73 -66 -112 -188 -73 -227 20 -21 35 -20 89 5 52 24 63
38 44 50 -12 7 -12 9 0 9 8 0 11 3 8 7 -4 3 -17 -3 -30 -15 -26 -24 -75 -45
-88 -36 -5 3 -9 16 -9 29 0 42 17 72 46 79 30 8 82 40 101 64 15 18 2 46 -27
62 -16 9 -27 4 -61 -27z m61 -12 c0 -9 -31 -34 -69 -56 -10 -6 -12 -4 -6 6 25
44 75 77 75 50z"/>
<path d="M8453 3888 c-50 -57 -63 -86 -63 -140 0 -56 12 -77 52 -91 22 -8 112
19 128 38 19 23 2 39 -21 19 -10 -9 -39 -19 -65 -22 -53 -6 -64 4 -64 56 0 25
4 32 20 32 26 0 90 57 90 80 0 53 -41 68 -77 28z m47 -17 c0 -17 -36 -54 -49
-50 -9 3 -6 12 9 32 21 27 40 35 40 18z"/>
<path d="M11674 3866 c-45 -44 -53 -71 -33 -108 13 -24 5 -60 -17 -83 -15 -15
-18 -15 -35 1 -11 9 -19 25 -19 36 0 10 -7 18 -15 18 -22 0 -18 -36 7 -70 27
-37 60 -39 87 -3 29 36 36 71 23 106 -15 39 1 74 45 102 18 11 32 26 33 33 0
25 -34 11 -76 -32z"/>
<path d="M12507 3883 c-54 -57 -82 -157 -57 -204 28 -51 180 -71 180 -24 0 10
-13 12 -52 8 -44 -4 -58 -2 -80 17 -38 29 -37 71 5 140 25 43 38 56 60 58 37
4 36 32 -1 32 -18 0 -38 -10 -55 -27z"/>
<path d="M5068 3870 c-20 -17 -46 -46 -58 -64 -19 -31 -24 -34 -55 -29 -31 5
-35 3 -35 -16 0 -11 9 -26 19 -33 14 -8 18 -19 15 -37 -8 -37 33 -95 69 -99
21 -3 26 0 21 12 -3 9 -12 16 -20 16 -19 0 -44 53 -37 79 4 15 23 30 57 45 88
40 132 106 94 144 -18 18 -30 15 -70 -18z m39 -48 c-21 -23 -77 -55 -77 -44 0
5 19 28 43 52 33 35 43 40 45 26 2 -10 -3 -25 -11 -34z"/>
<path d="M8045 3886 c-33 -14 -100 -83 -117 -121 -9 -20 -8 -29 7 -45 25 -27
45 -25 91 10 21 16 42 30 47 30 4 0 7 -17 7 -37 0 -46 13 -68 34 -60 17 7 22
37 6 37 -15 0 -12 61 4 108 14 38 13 41 -7 60 -34 30 -40 31 -72 18z m43 -48
c-3 -21 -98 -108 -118 -108 -24 0 -6 45 35 85 49 49 89 60 83 23z"/>
<path d="M11433 3885 c-44 -31 -81 -191 -48 -202 17 -5 57 98 45 113 -7 8 -7
20 1 38 11 24 17 28 35 25 10 -1 23 24 18 33 -8 12 -27 10 -51 -7z"/>
<path d="M11245 3880 c-31 -12 -71 -59 -105 -124 -18 -34 -45 -70 -64 -83
l-34 -22 2 84 c1 90 -10 119 -38 96 -8 -7 -20 -10 -25 -6 -21 13 -83 -8 -117
-40 -41 -39 -46 -80 -11 -96 31 -14 66 1 124 53 l46 43 -6 -49 c-4 -27 -7 -59
-7 -72 0 -17 -17 -36 -65 -71 -73 -54 -105 -106 -105 -169 1 -84 53 -96 109
-25 31 39 81 156 81 190 0 21 106 96 115 81 10 -16 77 -11 135 9 42 15 55 24
56 40 2 26 -14 38 -22 17 -8 -21 -111 -53 -124 -40 -7 7 5 21 34 43 48 36 66
66 66 110 0 32 -15 42 -45 31z m15 -49 c0 -19 -78 -97 -87 -87 -11 10 61 106
79 106 4 0 8 -8 8 -19z m-286 -40 c9 -14 -62 -71 -89 -71 -14 0 -25 4 -25 8 0
14 53 60 75 65 32 8 34 7 39 -2z m20 -228 c-20 -83 -92 -192 -116 -177 -15 9
-4 88 16 119 14 21 91 85 103 85 2 0 0 -12 -3 -27z"/>
<path d="M12340 3861 c0 -34 17 -50 27 -25 6 16 7 15 20 -2 19 -26 16 -78 -6
-98 -10 -9 -37 -20 -60 -24 -48 -8 -59 -25 -21 -30 39 -6 99 17 116 44 24 35
14 121 -16 146 -35 28 -60 24 -60 -11z"/>
<path d="M5486 3862 c-3 -5 -17 -7 -31 -5 -19 4 -33 -3 -60 -30 -39 -39 -42
-49 -19 -71 21 -22 35 -20 77 9 20 13 39 20 42 15 3 -5 0 -47 -6 -93 l-13 -85
-65 -5 c-84 -7 -105 -28 -99 -99 6 -58 30 -88 71 -88 37 0 90 53 108 107 7 21
19 44 28 50 13 11 14 14 2 22 -11 7 -11 23 -2 90 6 45 8 101 4 126 -6 44 -26
75 -37 57z m-40 -68 c-23 -16 -46 -19 -46 -5 0 6 10 17 22 25 30 21 52 2 24
-20z m24 -233 c0 -18 -29 -77 -50 -98 -29 -31 -58 -29 -71 4 -15 41 -7 76 21
90 29 14 100 17 100 4z"/>
<path d="M9276 3855 c-60 -45 -75 -129 -30 -164 34 -27 59 -26 113 2 76 39 90
99 36 153 -28 28 -88 32 -119 9z m103 -41 c27 -34 26 -46 -2 -72 -54 -51 -127
-49 -127 4 0 32 18 66 30 59 5 -3 15 3 22 15 18 28 53 25 77 -6z"/>
<path d="M10629 3843 c-43 -37 -89 -110 -89 -143 0 -36 29 -60 73 -60 47 0 89
19 82 38 -3 7 -5 22 -5 33 0 26 -28 14 -32 -14 -2 -17 -11 -23 -37 -25 -18 -2
-38 1 -44 7 -11 11 0 64 12 57 11 -7 91 23 114 43 13 11 16 23 12 41 -15 56
-38 63 -86 23z m51 -31 c0 -11 -12 -22 -32 -30 -41 -15 -47 -8 -18 23 27 29
50 32 50 7z"/>
<path d="M9990 3818 c-5 -24 -17 -67 -26 -97 -11 -38 -13 -56 -5 -64 13 -13
36 38 52 115 6 29 15 57 20 63 15 15 10 25 -11 25 -14 0 -22 -10 -30 -42z"/>
<path d="M10151 3844 c-29 -21 -101 -131 -101 -156 0 -29 18 -21 36 17 23 50
88 120 102 111 19 -12 14 -57 -13 -115 -18 -37 -22 -58 -15 -65 13 -13 22 -3
48 61 26 61 28 110 6 141 -18 26 -32 28 -63 6z"/>
<path d="M13351 3811 c-53 -67 -179 -139 -195 -112 -9 14 58 86 95 102 27 11
33 10 41 -4 13 -25 28 -21 28 8 0 47 -65 45 -128 -4 -69 -54 -89 -121 -41
-136 30 -10 58 0 126 44 l62 40 -25 -46 c-27 -51 -31 -83 -11 -83 18 0 58 44
102 113 20 32 43 61 51 64 27 10 45 -18 42 -66 -2 -35 1 -46 12 -46 21 0 31
73 15 105 -7 14 -25 32 -40 40 -26 14 -28 13 -63 -26 -21 -22 -43 -49 -50 -60
-7 -10 -1 5 13 34 24 49 26 72 5 72 -4 0 -22 -18 -39 -39z"/>
<path d="M10700 3714 c0 -8 5 -12 10 -9 6 4 8 11 5 16 -9 14 -15 11 -15 -7z"/>
<path d="M5683 3634 c-7 -19 2 -28 22 -21 19 8 19 23 0 31 -9 3 -18 -1 -22
-10z"/>
<path d="M5160 3620 c0 -23 25 -27 33 -6 7 16 -1 26 -20 26 -7 0 -13 -9 -13
-20z"/>
<path d="M3990 3589 c-15 -35 -37 -149 -36 -186 1 -29 -2 -33 -24 -33 -14 0
-49 11 -77 25 -50 23 -70 22 -55 -2 12 -19 94 -53 130 -53 l32 0 0 -70 c0 -56
3 -70 15 -70 12 0 15 15 15 74 0 72 0 74 28 79 15 3 35 9 45 12 15 6 17 1 17
-40 0 -83 32 -110 85 -74 18 13 40 35 51 50 22 33 34 29 34 -11 0 -38 20 -80
38 -80 10 0 12 6 7 23 -4 12 -12 52 -17 90 -12 74 -25 84 -55 41 -44 -64 -80
-97 -98 -91 -27 11 -16 101 18 151 27 39 33 75 21 135 -7 33 -34 43 -34 13 0
-10 -6 -38 -14 -63 -8 -24 -17 -56 -20 -71 -5 -20 -17 -32 -42 -43 -20 -8 -43
-15 -50 -15 -20 0 -18 79 2 152 12 43 14 62 6 70 -8 8 -14 4 -22 -13z"/>
<path d="M6469 3579 c-97 -10 -221 -24 -275 -31 l-99 -13 -3 -30 c-2 -16 -12
-61 -23 -98 -12 -38 -24 -110 -28 -160 l-6 -92 -13 115 c-15 130 -28 190 -42
190 -15 0 -128 -83 -134 -98 -9 -22 25 -27 43 -5 15 18 64 53 75 53 8 0 16
-49 30 -179 15 -135 30 -206 45 -215 20 -13 31 29 41 160 10 126 41 282 62
310 11 15 345 57 548 69 62 4 60 3 60 25 0 18 -6 20 -52 19 -29 -1 -132 -10
-229 -20z"/>
<path d="M4636 3568 c-2 -7 -4 -20 -5 -28 0 -8 -3 -37 -8 -65 l-8 -50 -53 -9
c-65 -11 -64 -32 1 -29 l46 1 7 -55 c3 -30 4 -74 1 -99 -5 -44 6 -65 25 -46
11 11 14 100 4 159 l-8 42 43 3 c26 2 46 9 53 20 15 24 7 27 -42 18 l-43 -7 2
41 c2 23 -1 48 -5 54 -4 7 -2 12 3 12 14 0 14 37 1 45 -6 3 -12 0 -14 -7z"/>
<path d="M3117 3426 c3 -45 1 -99 -6 -137 -9 -43 -9 -65 -2 -72 7 -7 13 -4 18
9 8 23 65 94 75 94 4 0 15 -26 24 -57 18 -65 39 -89 61 -71 11 9 10 14 -7 30
-11 10 -20 29 -20 41 0 31 -36 87 -57 87 -9 0 -25 -8 -35 -17 -19 -17 -19 -16
-17 32 4 69 -10 135 -27 135 -11 0 -13 -14 -7 -74z"/>
<path d="M8074 3456 c-40 -39 -44 -41 -44 -20 0 29 -35 54 -77 54 -44 0 -45
-28 -2 -32 18 -2 37 -11 43 -21 9 -15 6 -23 -19 -43 -16 -13 -47 -27 -68 -30
-41 -7 -55 -20 -39 -36 13 -13 68 5 117 37 l35 24 0 -29 c0 -25 5 -30 38 -39
51 -15 72 -14 72 3 0 9 -15 17 -40 21 -54 9 -53 33 5 91 25 24 45 49 45 54 0
21 -24 8 -66 -34z"/>
<path d="M6330 3412 c-37 -20 -51 -42 -27 -42 8 0 28 7 43 15 41 21 81 19 94
-5 13 -25 -12 -50 -140 -137 -47 -32 -86 -67 -88 -77 -4 -18 0 -19 64 -11 38
4 132 9 209 11 109 2 139 6 137 16 -12 47 -105 49 -302 9 -25 -5 -46 -8 -48
-7 -1 2 34 26 78 55 85 56 130 101 130 130 0 10 -10 27 -23 39 -29 27 -80 29
-127 4z"/>
<path d="M2383 3380 c-18 -11 -33 -27 -33 -35 0 -8 25 -31 55 -50 30 -20 55
-39 55 -44 0 -13 -22 -27 -64 -41 -34 -11 -41 -11 -51 4 -18 24 -35 20 -35 -8
0 -34 45 -43 110 -21 53 18 81 45 73 74 -2 10 -29 33 -59 53 l-55 35 31 13
c17 7 46 10 65 7 37 -6 58 9 34 24 -25 15 -93 10 -126 -11z"/>
<path d="M4399 3388 c-79 -64 -55 -167 29 -124 39 20 42 20 42 -2 0 -11 9 -27
20 -37 16 -15 23 -16 33 -6 9 10 8 14 -5 22 -13 7 -18 22 -18 49 0 45 -7 48
-52 20 -62 -38 -88 -19 -47 34 12 16 30 26 46 26 15 0 23 5 21 13 -6 17 -50
20 -69 5z"/>
<path d="M2853 3351 c-36 -22 -51 -68 -33 -101 18 -33 87 -60 138 -53 28 4 42
11 42 21 0 11 -9 13 -38 9 -74 -9 -137 38 -107 81 18 25 70 38 90 22 18 -15
31 6 15 25 -17 21 -69 19 -107 -4z"/>
<path d="M2691 3347 c-8 -11 -11 -28 -8 -47 8 -38 0 -60 -23 -60 -25 0 -41 23
-47 70 -7 48 -33 56 -33 11 0 -69 33 -110 88 -111 42 0 57 34 45 104 -7 44
-10 47 -22 33z"/>
<path d="M7304 3340 c-57 -8 -74 -16 -74 -31 0 -9 61 -7 150 6 8 1 16 9 18 18
4 19 -8 20 -94 7z"/>
<path d="M7270 3269 c-80 -22 -100 -33 -84 -48 5 -6 31 -2 69 10 34 12 85 21
118 20 31 0 57 4 57 9 0 28 -75 32 -160 9z"/>
<path d="M7754 3241 c-2 -2 -4 -10 -4 -18 0 -10 52 -12 276 -9 151 2 278 7
281 10 4 3 3 9 -1 14 -8 7 -544 10 -552 3z"/>
<path d="M8107 3123 c-4 -3 -7 -12 -7 -19 0 -15 -63 -113 -73 -114 -4 0 -22
29 -38 65 -17 36 -37 65 -45 65 -8 0 -14 -4 -14 -9 0 -15 42 -104 62 -133 19
-27 19 -27 -9 -69 -62 -91 -73 -115 -71 -143 2 -16 8 -31 13 -33 6 -1 33 46
62 105 28 59 75 142 103 184 31 45 50 84 46 93 -6 16 -18 19 -29 8z"/>
<path d="M3998 2871 c-83 -53 -138 -202 -172 -466 -20 -152 -20 -157 1 -153
13 2 18 13 18 38 1 19 7 79 15 132 l13 97 41 6 c23 3 63 6 90 8 29 1 51 7 54
15 2 6 -1 12 -8 12 -6 0 -8 -5 -4 -12 6 -10 5 -10 -7 -1 -10 8 -40 11 -88 8
l-72 -4 6 32 c42 212 159 342 229 254 25 -32 36 -34 36 -9 0 25 -40 60 -75 67
-23 5 -42 -1 -77 -24z"/>
<path d="M10774 2861 c-54 -33 -99 -118 -143 -268 -21 -71 -21 -72 -59 -75
-25 -2 -37 -8 -37 -18 0 -11 9 -14 33 -12 29 3 33 1 28 -15 -21 -71 -35 -158
-27 -166 14 -14 31 1 31 29 0 14 7 54 16 89 17 65 26 75 82 75 12 0 22 6 22
13 0 9 2 9 8 0 9 -14 64 -5 59 11 -4 11 -77 11 -124 1 l-21 -5 20 73 c11 39
31 97 45 128 43 98 122 153 131 91 4 -27 26 -24 30 4 7 47 -47 73 -94 45z"/>
<path d="M6260 2825 c-52 -8 -124 -21 -160 -29 -36 -8 -105 -16 -155 -17 -141
-2 -137 1 -151 -104 -12 -91 -42 -246 -48 -252 -2 -2 -6 36 -10 84 -7 98 -19
149 -40 178 -13 19 -16 17 -62 -31 -27 -28 -62 -60 -78 -71 -17 -12 -26 -25
-22 -32 10 -15 38 1 97 56 27 26 50 40 54 34 3 -6 12 -64 19 -128 7 -65 20
-135 29 -155 16 -39 47 -52 47 -20 0 9 17 101 37 205 l37 187 60 0 c68 0 158
13 256 35 36 8 108 18 160 23 86 6 95 9 95 27 0 26 -37 28 -165 10z"/>
<path d="M11375 2810 c-8 -16 -26 -71 -40 -121 -23 -86 -35 -118 -35 -91 0 11
-55 -4 -101 -28 -42 -23 -4 -31 53 -11 l55 19 -34 -110 c-36 -119 -41 -168
-19 -168 8 0 16 16 19 43 11 76 69 251 89 265 10 7 15 18 12 24 -5 7 -2 8 5 3
8 -5 29 8 57 36 24 24 44 40 44 37 0 -17 -56 -158 -82 -208 -64 -122 -42 -178
38 -99 25 24 54 59 65 77 26 40 35 40 43 2 3 -20 16 -37 36 -48 16 -9 30 -22
30 -28 0 -5 9 -20 20 -32 34 -36 148 -26 202 17 36 30 14 36 -41 12 -76 -32
-151 -26 -151 14 0 5 21 21 46 34 75 40 98 121 34 121 -27 0 -77 -45 -106 -96
-9 -16 -14 -17 -27 -6 -8 7 -18 28 -21 46 -4 19 -13 39 -21 46 -12 10 -20 3
-47 -36 -18 -27 -50 -66 -71 -89 l-37 -40 14 40 c8 22 25 63 39 90 36 73 69
172 65 197 -5 38 -33 31 -92 -23 -31 -28 -56 -47 -56 -42 0 20 33 119 46 141
15 22 12 42 -6 42 -5 0 -16 -13 -25 -30z m345 -290 c-12 -22 -58 -56 -66 -48
-8 9 46 68 62 68 12 0 12 -4 4 -20z"/>
<path d="M2745 2729 c-77 -16 -149 -31 -160 -32 -33 -5 -48 -18 -36 -30 7 -7
23 -6 53 1 101 26 268 53 309 50 37 -3 46 -7 58 -32 18 -39 17 -203 -3 -273
-13 -49 -12 -63 5 -63 4 0 25 29 48 65 l41 66 43 -46 c24 -25 52 -45 63 -45
12 0 25 -13 34 -33 13 -27 21 -32 56 -35 30 -2 45 2 59 18 22 24 12 39 -15 22
-27 -16 -55 -15 -70 3 -11 13 -7 21 25 48 31 27 38 39 39 72 1 35 -2 40 -22
43 -32 5 -70 -32 -78 -75 -3 -18 -12 -33 -19 -33 -7 0 -36 24 -64 53 l-52 52
-23 -26 -22 -26 0 96 c0 124 -16 165 -71 180 -47 13 -31 15 -198 -20z m514
-262 c-16 -34 -43 -46 -34 -14 7 21 35 51 42 43 2 -2 -2 -15 -8 -29z"/>
<path d="M8540 2698 c-6 -24 -18 -67 -26 -95 l-15 -53 -44 0 c-52 0 -99 -16
-90 -30 4 -7 28 -8 66 -4 l59 7 0 -81 c0 -68 2 -80 15 -76 11 5 15 24 15 79 0
41 5 77 10 80 6 4 35 9 65 12 39 4 55 10 55 20 0 12 -12 14 -56 11 l-55 -3 6
35 c4 19 13 54 21 77 15 42 12 63 -6 63 -5 0 -14 -19 -20 -42z"/>
<path d="M9926 2708 c-27 -131 -23 -123 -77 -137 -32 -8 -49 -18 -49 -28 0
-16 29 -15 74 3 15 6 17 3 13 -12 -7 -22 -10 -64 -8 -116 1 -27 6 -38 16 -38
12 0 15 13 15 59 0 32 3 72 6 89 6 29 9 31 57 34 34 2 52 8 54 18 4 12 3 12
-5 1 -7 -9 -12 -10 -16 -2 -4 6 -22 11 -40 11 l-33 0 13 62 c7 34 11 65 8 70
-10 15 -24 8 -28 -14z"/>
<path d="M13510 2717 c0 -18 -35 -41 -49 -33 -12 8 -120 -121 -128 -152 -3
-14 1 -55 11 -91 17 -68 52 -110 131 -162 45 -29 137 -26 194 6 53 31 54 31
72 -1 19 -36 88 -79 102 -65 7 7 -6 26 -45 63 l-55 53 34 74 c40 88 40 103 8
167 -49 95 -107 134 -232 151 -35 5 -43 3 -43 -10z m87 -48 c15 -6 36 -12 47
-15 10 -2 20 -5 21 -6 1 -2 -2 -39 -7 -83 -5 -44 -6 -95 -3 -113 6 -32 5 -33
-15 -22 -30 16 -55 -6 -27 -24 36 -22 45 -31 51 -52 5 -17 0 -24 -31 -37 -58
-24 -112 -28 -144 -12 -35 19 -42 30 -31 52 6 12 4 47 -5 98 -25 142 -8 189
78 213 19 6 35 11 36 11 1 1 14 -4 30 -10z m138 -92 c14 -24 25 -55 25 -69 0
-35 -49 -143 -60 -132 -17 18 -17 244 0 244 5 0 21 -20 35 -43z m-305 -190 c0
-24 -2 -26 -19 -18 -28 15 -57 141 -40 173 25 48 34 39 46 -45 7 -45 12 -95
13 -110z"/>
<path d="M12699 2703 c-10 -128 -19 -154 -50 -165 -31 -11 -35 -34 -5 -32 9 1
16 -4 16 -10 0 -31 -23 -133 -36 -158 -10 -19 -11 -29 -3 -34 21 -13 39 22 60
116 11 52 22 96 24 98 2 2 33 7 69 9 70 6 81 17 47 47 -12 11 -21 14 -26 7 -3
-6 -3 -12 2 -12 4 -1 -12 -5 -37 -9 -25 -4 -46 -7 -47 -6 -2 1 2 30 8 64 6 34
9 69 5 77 -6 15 -25 21 -27 8z"/>
<path d="M6130 2664 c-58 -16 -100 -38 -100 -54 0 -12 37 -13 44 -1 7 11 95
35 103 28 3 -4 -8 -36 -26 -72 -23 -46 -49 -79 -93 -117 -102 -89 -130 -117
-126 -130 9 -26 31 -17 88 38 33 31 62 55 63 53 2 -2 9 -19 17 -37 15 -40 54
-72 86 -72 34 0 93 31 100 53 9 29 -1 30 -41 2 -61 -41 -86 -33 -120 38 l-25
50 30 34 c55 62 98 171 77 192 -13 13 -8 13 -77 -5z"/>
<path d="M2822 2563 c-32 -232 -34 -268 -23 -295 18 -46 34 -34 26 20 -5 41
14 202 41 335 5 22 2 27 -13 27 -16 0 -21 -13 -31 -87z"/>
<path d="M7112 2608 c2 -12 11 -24 21 -26 14 -3 18 1 15 20 -2 12 -11 24 -21
26 -14 3 -18 -1 -15 -20z"/>
<path d="M12232 2555 c-16 -21 -19 -32 -11 -55 25 -83 29 -95 29 -102 0 -14
-44 -48 -61 -48 -23 0 -34 -19 -20 -33 15 -15 75 14 97 49 16 23 16 31 4 73
-7 25 -15 58 -17 72 -7 36 16 49 35 21 18 -27 32 -28 32 -4 0 22 -30 52 -53
52 -8 0 -25 -11 -35 -25z"/>
<path d="M3439 2557 c-22 -17 -39 -51 -39 -80 0 -14 -7 -43 -14 -65 -10 -28
-11 -44 -5 -48 18 -11 29 9 44 81 17 81 25 93 59 77 35 -16 46 5 16 30 -26 21
-39 22 -61 5z"/>
<path d="M9199 2547 c-19 -12 -43 -37 -54 -54 -11 -18 -28 -32 -37 -33 -14 0
-18 -8 -18 -35 0 -30 -19 -106 -79 -322 -9 -34 2 -54 20 -36 5 5 27 72 48 148
l38 140 38 7 c103 22 166 119 119 186 -19 28 -33 28 -75 -1z m56 -36 c12 -39
-27 -94 -82 -112 -19 -6 -37 -9 -39 -6 -9 9 23 72 54 105 34 36 58 41 67 13z"/>
<path d="M7986 2468 c-24 -51 -42 -96 -39 -100 10 -18 31 -3 70 52 23 32 51
63 62 69 20 11 20 11 0 -48 -11 -33 -19 -72 -17 -87 6 -51 88 -84 88 -35 0 12
-8 17 -27 16 -37 0 -40 25 -14 101 37 104 25 125 -43 79 -31 -21 -35 -22 -26
-6 13 25 13 51 -1 51 -5 0 -30 -42 -53 -92z"/>
<path d="M12439 2533 c-61 -51 -69 -63 -75 -107 -10 -72 36 -102 115 -75 22 8
30 16 27 26 -3 8 -6 19 -6 24 0 18 -42 9 -47 -11 -6 -24 -35 -26 -53 -5 -23
28 -3 60 57 91 47 24 58 34 58 54 0 36 -35 37 -76 3z"/>
<path d="M4267 2524 c-27 -27 -65 -114 -74 -171 -4 -26 -2 -33 10 -33 19 0 47
48 40 68 -7 19 24 96 46 116 15 14 23 15 45 5 35 -16 47 -2 17 22 -32 26 -53
24 -84 -7z"/>
<path d="M3673 2529 c-12 -4 -33 -26 -47 -47 -21 -33 -29 -39 -50 -35 -19 4
-26 1 -26 -11 0 -9 7 -19 16 -23 12 -4 14 -14 9 -39 -9 -51 4 -103 31 -121 34
-22 90 -9 126 29 42 45 20 60 -27 19 -44 -38 -74 -38 -93 1 -23 49 -7 92 49
126 31 20 51 40 55 57 9 35 -12 56 -43 44z m17 -32 c0 -2 -10 -12 -22 -23
l-23 -19 19 23 c18 21 26 27 26 19z"/>
<path d="M9641 2506 c-20 -21 -61 -113 -61 -136 0 -17 26 -11 44 9 10 11 13
20 6 23 -6 2 -2 20 12 48 20 39 27 45 55 45 38 1 53 12 33 25 -26 17 -66 11
-89 -14z"/>
<path d="M4072 2492 c-13 -15 -32 -46 -43 -69 -23 -49 -14 -87 26 -105 22 -10
30 -8 53 9 54 40 67 104 32 161 -24 39 -38 40 -68 4z m58 -72 c0 -36 -27 -70
-56 -70 -19 0 -24 5 -24 26 0 28 14 59 38 87 16 17 17 17 29 1 7 -10 13 -29
13 -44z"/>
<path d="M4479 2497 c-58 -39 -86 -126 -58 -179 9 -17 8 -23 -5 -30 -23 -13
-59 -80 -105 -196 -23 -56 -45 -110 -51 -120 -17 -31 -40 -136 -31 -145 15
-15 28 1 35 42 3 22 11 51 17 64 12 26 66 57 99 57 18 0 18 -3 -5 -52 -30 -64
-31 -89 -5 -113 23 -21 58 -15 113 21 25 17 37 32 37 48 0 30 -27 96 -40 96
-18 0 -20 -20 -3 -54 16 -34 16 -37 -1 -55 -28 -31 -72 -43 -87 -24 -11 12 -8
26 19 77 18 34 32 67 32 74 0 15 -83 16 -111 2 -10 -6 -19 -9 -19 -8 0 9 62
162 79 195 38 76 81 91 101 38 11 -29 35 -24 27 5 -3 12 6 22 33 34 54 24 120
74 120 91 0 20 1 21 -70 -27 -72 -48 -113 -53 -142 -19 -10 13 -18 34 -18 47
0 18 8 25 38 33 59 17 102 47 102 74 0 50 -46 61 -101 24z m65 -28 c-3 -5 -23
-19 -46 -30 -37 -19 -40 -19 -36 -2 2 10 18 26 37 35 34 17 57 15 45 -3z"/>
<path d="M7033 2508 c-6 -7 -14 -33 -17 -58 -4 -25 -12 -67 -18 -93 -7 -35 -7
-52 1 -60 6 -6 13 -8 16 -6 2 3 14 52 25 109 20 98 17 138 -7 108z"/>
<path d="M9367 2492 c-31 -32 -37 -85 -11 -100 18 -10 61 -4 70 9 10 16 23 9
26 -13 2 -18 10 -23 32 -23 16 0 31 6 34 13 2 7 -5 12 -17 12 -27 0 -26 12 1
60 13 21 20 42 16 45 -4 4 -31 -12 -61 -34 -58 -44 -87 -52 -87 -23 0 19 36
59 49 55 3 -2 6 3 6 9 0 24 -31 19 -58 -10z"/>
<path d="M8233 2468 c-43 -52 -46 -109 -8 -134 30 -20 63 -13 104 22 36 30 40
61 14 107 -34 61 -65 62 -110 5z m83 -23 c22 -33 15 -55 -24 -78 -26 -15 -35
-17 -47 -7 -21 17 -19 47 6 81 25 35 43 37 65 4z"/>
<path d="M7195 2469 c-19 -17 -35 -37 -35 -44 0 -7 14 -25 30 -38 30 -25 38
-51 21 -61 -11 -7 -61 32 -61 48 0 18 -28 16 -35 -2 -6 -17 48 -70 82 -78 29
-8 39 0 52 37 10 29 8 34 -25 64 l-36 33 41 27 c23 15 41 32 41 36 0 20 -41 7
-75 -22z"/>
<path d="M10443 2487 c-4 -7 -16 -16 -25 -20 -48 -17 -76 -128 -35 -135 35 -7
67 8 82 39 28 53 7 164 -22 116z m7 -65 c0 -24 -28 -62 -46 -62 -17 0 -18 14
-3 43 20 38 49 49 49 19z"/>
<path d="M8160 2330 c0 -5 5 -10 10 -10 6 0 10 5 10 10 0 6 -4 10 -10 10 -5 0
-10 -4 -10 -10z"/>
<path d="M5032 2257 c-24 -54 -89 -128 -106 -121 -16 6 -40 -21 -31 -36 11
-17 30 -11 76 24 26 19 57 57 74 90 17 31 36 56 43 56 22 0 8 25 -16 28 -16 3
-25 -6 -40 -41z"/>
<path d="M10283 2252 c-6 -4 -28 -62 -49 -129 l-37 -123 -48 0 c-49 0 -72 -15
-48 -31 8 -5 29 -6 48 -2 33 6 34 5 27 -23 -4 -16 -16 -47 -26 -69 -13 -26
-16 -43 -10 -49 16 -16 31 7 56 81 l23 68 48 7 c107 16 177 34 175 43 -2 17
-42 17 -117 0 -40 -10 -77 -16 -82 -14 -12 5 43 187 63 210 8 8 14 18 14 21 0
10 -26 16 -37 10z"/>
<path d="M6735 2185 c-206 -39 -239 -43 -263 -34 -14 5 -27 7 -31 4 -3 -4 -26
-70 -52 -148 l-45 -142 -7 124 c-4 68 -9 126 -12 129 -11 11 -185 -68 -185
-84 0 -20 15 -17 87 17 35 17 68 28 71 24 4 -4 8 -83 8 -176 2 -204 0 -191 20
-187 10 2 34 61 76 188 33 102 62 187 65 190 4 5 96 21 306 55 55 9 108 13
119 9 25 -7 42 14 26 33 -13 16 -90 15 -183 -2z"/>
<path d="M11584 2183 c-3 -10 -22 -56 -41 -103 -68 -162 -86 -237 -69 -287 8
-25 24 -30 31 -10 2 6 6 45 9 84 4 55 16 97 47 170 22 54 43 110 46 124 6 31
-14 49 -23 22z"/>
<path d="M3420 2154 c-14 -9 -51 -42 -82 -72 l-57 -55 14 53 c15 58 14 66 -8
57 -9 -3 -20 -34 -27 -74 -7 -37 -25 -114 -41 -170 -23 -87 -25 -104 -14 -120
16 -21 16 -21 41 82 9 39 25 87 36 108 21 42 107 134 151 162 26 17 27 17 27
-5 0 -12 -14 -56 -30 -98 -36 -88 -37 -135 -3 -140 13 -2 33 4 45 12 38 27 55
20 62 -23 4 -26 14 -44 31 -55 34 -22 116 -32 144 -17 27 15 17 35 -15 27 -42
-11 -104 5 -120 30 -19 29 -12 43 44 84 48 35 53 63 11 68 -20 2 -32 -5 -53
-32 -21 -28 -34 -36 -60 -36 -18 0 -41 -7 -52 -15 -10 -8 -23 -15 -28 -15 -13
0 -1 48 29 118 45 108 23 171 -45 126z"/>
<path d="M9404 2115 c-9 -23 14 -45 26 -25 5 8 8 19 7 24 -6 17 -27 18 -33 1z"/>
<path d="M7657 2113 c-8 -14 12 -53 28 -53 18 0 19 13 5 41 -11 20 -25 25 -33
12z"/>
<path d="M9567 2080 c-60 -52 -124 -220 -84 -220 13 0 37 59 37 92 0 24 55
102 83 117 23 12 28 12 43 -4 21 -21 30 -5 14 24 -15 30 -53 26 -93 -9z"/>
<path d="M9717 2058 c-42 -52 -90 -145 -82 -158 12 -20 24 -8 53 53 16 34 41
75 56 90 22 24 32 27 57 22 29 -7 30 -6 20 14 -20 37 -64 28 -104 -21z"/>
<path d="M10500 2086 c0 -17 35 -30 51 -20 9 5 6 11 -6 21 -24 17 -45 17 -45
-1z"/>
<path d="M9895 2029 c-31 -29 -45 -49 -43 -63 3 -22 21 -25 70 -11 24 6 28 4
34 -19 3 -15 14 -31 24 -36 28 -15 60 -12 60 5 0 8 -9 15 -20 15 -23 0 -40 28
-40 64 0 26 -17 34 -35 17 -6 -5 -21 -12 -35 -16 l-25 -7 24 26 c14 14 33 26
43 26 13 0 18 6 16 17 -6 30 -26 25 -73 -18z"/>
<path d="M6684 2049 c-41 -12 -72 -45 -56 -61 9 -9 17 -7 32 10 13 13 33 22
51 22 27 0 30 -3 23 -22 -8 -26 -108 -145 -173 -206 -42 -39 -44 -43 -29 -59
15 -15 20 -13 59 21 49 41 70 44 106 16 49 -38 162 -14 148 31 -4 12 -1 19 7
19 10 0 9 3 -2 10 -11 7 -19 5 -31 -10 -28 -33 -61 -34 -107 -4 l-42 28 24 25
c29 32 76 119 76 143 0 47 -21 56 -86 37z"/>
<path d="M10630 2019 c0 -6 9 -22 20 -36 30 -38 27 -81 -7 -94 -60 -22 -86 18
-37 58 21 16 26 25 17 34 -8 8 -19 3 -43 -18 -38 -34 -44 -78 -14 -100 24 -18
89 -11 115 13 25 23 25 78 -2 120 -20 33 -49 46 -49 23z"/>
<path d="M10839 2001 c-26 -22 -39 -27 -47 -19 -15 15 -50 -44 -58 -100 -10
-65 8 -72 41 -16 31 53 102 134 118 134 17 0 -1 -101 -22 -124 -14 -16 -17
-27 -10 -44 10 -25 30 -26 35 -1 2 7 10 32 18 54 18 49 20 117 4 133 -19 19
-41 14 -79 -17z"/>
<path d="M4629 1997 c-61 -41 -117 -177 -76 -185 12 -2 17 3 17 16 0 37 37
108 71 136 26 22 39 26 66 21 25 -4 33 -2 33 8 0 34 -64 36 -111 4z"/>
<path d="M4840 1970 c-28 -27 -50 -54 -50 -59 0 -6 -11 -13 -25 -17 -24 -6
-36 -34 -15 -34 6 0 10 -7 10 -15 0 -30 38 -55 83 -55 47 0 132 36 160 68 24
26 4 41 -23 17 -10 -9 -48 -23 -85 -32 -60 -13 -69 -13 -82 0 -20 20 -13 30
50 66 96 55 124 111 55 111 -21 0 -42 -13 -78 -50z m80 16 c0 -2 -12 -12 -27
-21 l-28 -18 19 21 c17 20 36 29 36 18z"/>
<path d="M7717 2002 c-26 -29 -21 -67 13 -95 35 -30 37 -47 12 -70 -23 -21
-42 -22 -42 -2 0 20 -26 19 -34 -1 -18 -47 56 -59 97 -16 37 38 35 75 -3 104
-40 29 -37 59 8 70 18 5 30 13 27 18 -10 17 -61 11 -78 -8z"/>
<path d="M11145 2003 c-38 -20 -115 -93 -115 -110 0 -41 99 -39 163 3 22 14
41 24 43 21 2 -2 -1 -18 -7 -34 -15 -44 -8 -118 11 -118 11 0 14 10 12 42 -2
27 6 63 22 105 31 77 32 92 8 86 -10 -3 -23 1 -30 9 -17 17 -70 16 -107 -4z
m88 -26 c7 -18 -79 -74 -125 -83 -43 -7 -48 3 -15 33 58 54 129 79 140 50z"/>
<path d="M3829 1986 c-22 -23 -55 -143 -43 -155 3 -3 13 0 22 5 11 8 18 27 20
60 2 33 9 55 23 69 19 19 21 19 49 3 37 -21 53 -3 20 24 -30 25 -63 23 -91 -6z"/>
<path d="M4010 1984 c-34 -29 -70 -92 -70 -122 0 -34 33 -53 78 -46 45 7 81
28 70 39 -4 4 -28 2 -54 -4 -60 -15 -73 -4 -51 41 9 18 17 27 17 20 0 -9 9 -7
30 8 40 29 55 57 39 76 -16 19 -23 18 -59 -12z"/>
<path d="M9330 1958 c0 -18 -11 -54 -24 -80 -13 -26 -21 -50 -18 -53 15 -15
32 0 51 46 25 62 28 119 6 119 -10 0 -15 -10 -15 -32z"/>
<path d="M10430 1944 c-23 -54 -23 -77 3 -82 13 -3 17 3 17 25 0 15 6 40 14
55 12 23 12 29 0 39 -11 9 -18 2 -34 -37z"/>
<path d="M7576 1973 c-3 -3 -6 -21 -6 -39 0 -17 -11 -52 -25 -75 -29 -51 -30
-55 -11 -62 21 -8 77 109 69 146 -6 29 -16 41 -27 30z"/>
<path d="M11725 1830 c-8 -13 14 -42 26 -34 5 3 9 14 9 25 0 20 -24 26 -35 9z"/>
</g>
</svg>
