<?xml version="1.0" standalone="no"?>
<!DOCTYPE svg PUBLIC "-//W3C//DTD SVG 20010904//EN"
 "http://www.w3.org/TR/2001/REC-SVG-20010904/DTD/svg10.dtd">
<svg version="1.0" xmlns="http://www.w3.org/2000/svg"
 width="1617.000000pt" height="1213.000000pt" viewBox="0 0 1617.000000 1213.000000"
 preserveAspectRatio="xMidYMid meet">

<g transform="translate(0.000000,1213.000000) scale(0.100000,-0.100000)"
fill="#000000" stroke="none">
<path d="M6102 11753 c-4 -10 -20 -67 -37 -128 l-30 -110 -44 3 c-52 5 -54
-17 -2 -32 l33 -9 -7 -55 c-4 -30 -13 -77 -20 -106 -10 -38 -10 -53 -2 -58 18
-11 28 15 46 121 l17 96 55 5 c50 5 54 7 54 30 0 18 -6 26 -23 28 -13 2 -25
-3 -28 -12 -3 -9 -17 -16 -30 -16 l-23 0 19 54 c10 29 23 79 30 110 9 45 15
56 31 56 23 0 25 25 3 34 -25 10 -34 7 -42 -11z"/>
<path d="M7513 11673 c-17 -38 -42 -94 -56 -125 -23 -51 -47 -76 -47 -49 0 16
-29 20 -62 9 -91 -31 -172 -123 -148 -168 21 -40 86 -20 173 52 26 21 47 34
47 28 0 -27 35 -82 57 -91 38 -14 141 36 119 58 -3 3 -21 -2 -40 -11 -25 -12
-41 -14 -60 -7 -54 21 -56 77 -5 159 32 52 82 190 73 203 -11 19 -22 7 -51
-58z m-103 -201 c0 -2 -19 -21 -42 -42 -48 -44 -123 -88 -133 -78 -20 19 31
84 88 112 27 13 87 19 87 8z"/>
<path d="M3945 11708 c-2 -7 -6 -35 -10 -63 -4 -27 -18 -99 -31 -159 -28 -124
-29 -199 -2 -204 15 -3 17 2 12 40 -4 29 3 80 20 155 14 62 28 135 32 163 4
28 11 53 15 56 5 3 9 9 9 15 0 14 -40 11 -45 -3z"/>
<path d="M2621 11648 c-33 -70 -51 -152 -52 -242 -1 -34 -4 -72 -8 -85 l-7
-24 -17 26 c-34 53 -57 130 -68 230 -12 108 -22 147 -39 147 -12 0 -14 -126
-1 -134 4 -3 11 -32 14 -64 8 -78 42 -162 85 -213 32 -37 37 -39 48 -25 6 9
19 69 29 134 19 129 50 245 71 263 8 6 26 8 44 4 46 -10 40 21 -7 34 -58 16
-60 15 -92 -51z"/>
<path d="M3617 11704 c-4 -4 -7 -30 -7 -58 0 -45 -38 -266 -55 -322 -9 -28 23
-62 60 -65 67 -5 96 2 120 25 32 32 42 101 21 149 -13 33 -19 37 -49 37 -25 0
-44 -9 -66 -29 -36 -34 -35 -36 -17 65 27 143 23 228 -7 198z m113 -289 c12
-31 -2 -104 -22 -116 -19 -13 -102 -11 -115 2 -14 14 4 46 56 102 41 43 68 47
81 12z"/>
<path d="M14034 11673 c-19 -59 -41 -96 -62 -104 -16 -6 -22 -14 -18 -25 6
-16 -62 -154 -76 -154 -5 0 -8 10 -8 23 0 24 36 79 67 102 14 11 15 16 6 26
-15 15 -34 1 -75 -55 -28 -39 -38 -99 -18 -111 18 -11 11 -33 -34 -98 -70
-102 -94 -198 -62 -243 20 -27 30 -11 31 52 1 45 10 72 51 152 l49 97 46 -3
c51 -4 122 25 133 53 14 38 6 103 -19 138 l-24 37 25 55 c24 52 25 75 3 75 -5
0 -12 -8 -15 -17z m-13 -203 c6 -21 9 -45 6 -54 -8 -21 -64 -48 -92 -44 l-24
3 40 73 c22 40 45 70 50 67 4 -3 14 -23 20 -45z"/>
<path d="M12946 11648 c-2 -7 -24 -70 -50 -140 -58 -157 -66 -185 -59 -204 11
-29 30 -13 35 29 3 23 26 95 52 160 25 64 47 127 49 139 2 23 -21 38 -27 16z"/>
<path d="M6295 11630 c-7 -11 12 -50 24 -50 11 0 22 40 15 52 -7 11 -31 10
-39 -2z"/>
<path d="M14410 11627 c0 -22 64 -40 148 -41 67 0 85 -7 63 -20 -5 -3 -23 -31
-40 -61 l-31 -54 -62 -3 c-49 -2 -63 -7 -66 -20 -3 -14 4 -16 51 -11 l54 5
-21 -65 c-11 -36 -22 -64 -25 -62 -6 6 -31 -15 -31 -26 0 -5 3 -8 8 -7 4 1 17
-4 29 -12 l22 -14 -38 -45 c-47 -57 -67 -96 -81 -156 -23 -101 30 -174 174
-245 95 -47 156 -60 281 -60 100 0 154 14 262 68 110 56 158 145 155 291 -2
132 -36 194 -119 222 -19 6 -47 17 -61 25 -14 7 -29 11 -33 9 -4 -3 -9 2 -12
10 -8 19 -100 45 -161 45 -69 0 -175 -24 -226 -50 -23 -12 -62 -40 -86 -62
-36 -33 -44 -37 -44 -21 0 10 4 23 8 29 4 5 16 35 27 67 l18 57 59 0 c73 0 77
23 5 28 -26 2 -47 5 -47 7 0 9 46 83 73 117 32 40 31 76 -1 63 -58 -25 -143
-24 -229 1 -17 5 -23 2 -23 -9z m555 -271 c38 -12 34 -12 -65 -14 -107 -1
-159 -10 -160 -26 0 -5 72 -10 159 -12 171 -2 255 -18 291 -54 45 -45 56 -207
20 -302 -26 -70 -65 -104 -169 -149 -65 -28 -91 -33 -177 -37 -120 -5 -188 8
-282 53 -132 63 -180 128 -160 217 26 117 172 273 293 311 87 28 186 33 250
13z"/>
<path d="M14703 11158 c-6 -7 -14 -40 -18 -73 -4 -33 -21 -93 -37 -133 -23
-57 -26 -76 -18 -92 6 -11 15 -18 20 -15 13 8 37 90 60 204 19 99 17 138 -7
109z"/>
<path d="M14857 11158 c-12 -9 -14 -17 -7 -28 7 -12 12 -12 22 -2 14 14 126
16 146 3 17 -10 -15 -38 -77 -66 -55 -24 -50 -45 14 -65 54 -16 75 -27 75 -38
0 -20 -133 -75 -173 -72 -38 4 -47 0 -41 -15 15 -37 173 2 227 57 27 26 28 30
15 51 -9 12 -36 29 -62 37 l-46 15 37 20 c73 40 95 87 47 105 -36 14 -157 12
-177 -2z"/>
<path d="M3257 11623 c-13 -12 -7 -24 16 -32 31 -12 41 -2 21 20 -18 20 -27
23 -37 12z"/>
<path d="M12339 11593 c-6 -15 -26 -62 -45 -103 -52 -116 -62 -195 -26 -188
12 2 16 12 14 34 -3 31 29 126 67 199 12 21 21 47 21 57 0 29 -19 30 -31 1z"/>
<path d="M12486 11607 c-12 -9 -17 -20 -13 -31 8 -20 26 -21 33 -1 12 30 114
13 114 -20 0 -7 -33 -42 -72 -77 -40 -35 -87 -78 -105 -96 -33 -34 -42 -65
-22 -78 13 -8 189 46 189 58 0 19 -30 17 -100 -7 l-75 -25 55 52 c30 28 78 73
107 99 63 59 73 84 44 112 -26 27 -126 36 -155 14z"/>
<path d="M13086 11568 c-66 -73 -108 -151 -110 -200 -1 -57 21 -71 104 -65
110 9 151 44 98 81 -26 18 -119 22 -149 6 -47 -26 4 73 78 151 48 51 60 79 34
79 -5 0 -29 -24 -55 -52z m34 -223 c-28 -16 -96 -20 -105 -6 -5 10 30 17 95
19 l35 1 -25 -14z"/>
<path d="M13612 11590 c-26 -16 -33 -26 -30 -47 4 -34 28 -43 28 -10 0 16 8
28 25 35 36 17 85 15 85 -2 0 -7 -45 -61 -99 -118 -108 -115 -124 -137 -111
-158 7 -11 25 -11 110 -1 117 14 130 18 130 37 0 15 -52 12 -148 -8 -28 -6
-54 -9 -57 -7 -4 5 17 29 132 151 56 60 73 84 73 107 0 17 -6 31 -16 35 -32
12 -90 5 -122 -14z"/>
<path d="M14227 11518 c-3 -46 -9 -109 -13 -140 -6 -47 -4 -58 8 -58 11 0 17
23 26 89 16 121 16 191 -2 191 -9 0 -15 -23 -19 -82z"/>
<path d="M5385 11572 c-117 -72 -151 -209 -64 -256 40 -22 89 -16 89 10 0 12
-7 14 -30 9 -24 -5 -35 -1 -56 20 -22 22 -25 32 -21 62 11 65 112 162 140 134
16 -16 27 -13 27 8 0 34 -40 40 -85 13z"/>
<path d="M6754 11575 c-4 -11 -18 -49 -33 -85 -42 -106 -33 -201 18 -182 64
23 211 154 211 188 0 31 -14 31 -27 1 -20 -42 -175 -163 -194 -151 -13 7 -5
59 18 122 13 34 19 40 29 31 11 -9 14 -5 14 23 0 19 -6 43 -14 54 -14 19 -15
19 -22 -1z"/>
<path d="M4270 11552 c-26 -13 -42 -15 -62 -8 -45 16 -115 -11 -169 -65 -46
-46 -48 -49 -38 -81 16 -47 44 -68 91 -68 25 0 51 -8 69 -21 39 -28 87 -28
130 -1 71 43 74 103 8 140 -62 35 -66 39 -48 57 9 9 33 22 55 30 21 7 40 18
42 24 6 17 -40 13 -78 -7z m-52 -82 c6 -11 30 -29 52 -40 56 -28 60 -47 22
-82 -47 -41 -116 -37 -117 7 0 6 -4 11 -9 12 -5 1 -13 7 -18 15 -7 10 -11 10
-22 -4 -16 -22 -59 -23 -80 -2 -31 30 -16 48 70 84 84 35 86 35 102 10z"/>
<path d="M5551 11517 c-5 -12 -17 -29 -27 -37 -60 -51 -43 -160 25 -160 33 0
85 31 106 64 29 43 -2 104 -73 144 -20 11 -23 10 -31 -11z m65 -54 c25 -33 17
-71 -18 -93 -48 -30 -72 -23 -76 21 -6 65 60 116 94 72z"/>
<path d="M7020 11506 c-108 -79 -117 -178 -17 -178 57 0 148 23 154 38 8 22
-5 30 -27 16 -11 -6 -50 -15 -88 -18 -56 -5 -70 -4 -75 8 -11 29 30 87 86 121
42 27 33 -1 -13 -40 -22 -19 -40 -43 -40 -54 0 -10 3 -19 6 -19 11 0 114 107
114 118 0 14 -29 42 -43 42 -7 0 -32 -16 -57 -34z"/>
<path d="M3057 11486 c-25 -26 -67 -137 -67 -173 0 -14 6 -23 15 -23 9 0 15 9
15 25 0 14 13 55 30 91 27 60 32 66 54 60 33 -8 42 9 14 28 -30 21 -35 20 -61
-8z"/>
<path d="M5772 11458 c-27 -28 -32 -30 -30 -13 4 29 -15 32 -29 4 -21 -43 -37
-115 -29 -135 8 -18 8 -18 19 -1 35 54 110 147 119 147 7 0 9 -19 5 -55 -6
-60 8 -128 25 -123 11 4 12 166 1 194 -9 24 -47 15 -81 -18z"/>
<path d="M3338 11460 c-39 -21 -81 -80 -76 -106 2 -9 11 -22 20 -28 20 -12 69
9 120 52 l28 24 0 -25 c0 -13 5 -38 11 -56 9 -24 16 -31 33 -29 20 3 31 29 11
27 -13 0 -23 35 -24 83 -1 48 -16 56 -49 25 -31 -28 -103 -77 -114 -77 -18 0
-6 24 31 61 25 26 44 37 54 33 27 -10 43 7 22 23 -23 16 -22 16 -67 -7z"/>
<path d="M6241 11467 c-21 -26 -62 -130 -59 -150 5 -34 25 -30 32 7 4 19 19
59 35 90 15 31 26 58 23 61 -9 8 -19 6 -31 -8z"/>
<path d="M6425 11462 c-16 -11 -36 -26 -44 -35 -18 -22 -28 -21 -34 4 -4 15
-12 20 -28 17 -26 -3 -39 -28 -15 -28 26 0 20 -66 -10 -117 -23 -40 -25 -63
-4 -63 5 0 25 29 45 63 39 71 93 132 126 142 32 11 50 -17 38 -58 -14 -50 -11
-97 6 -97 10 0 15 10 15 26 0 15 5 43 11 64 9 30 8 43 -5 68 -19 38 -54 42
-101 14z"/>
<path d="M2741 11444 c-26 -33 -37 -89 -22 -120 18 -41 74 -31 135 25 27 25
28 25 22 4 -8 -26 9 -63 28 -63 9 0 13 13 13 43 0 23 3 59 8 80 11 51 -2 48
-69 -17 -59 -58 -91 -75 -109 -57 -8 8 -7 23 3 54 12 34 20 43 43 45 37 5 36
32 -2 32 -20 0 -36 -9 -50 -26z"/>
<path d="M3189 11443 c-1 -10 -3 -34 -5 -53 -6 -47 3 -80 21 -80 12 0 14 8 9
38 -3 21 -1 55 4 75 9 33 8 37 -9 37 -11 0 -19 -7 -20 -17z"/>
<path d="M8790 11361 c0 -16 6 -21 24 -21 14 0 28 5 31 11 9 13 6 16 -28 24
-23 6 -27 4 -27 -14z"/>
<path d="M8527 11353 c-14 -13 -6 -33 12 -33 25 0 38 20 20 31 -17 11 -24 11
-32 2z"/>
<path d="M12684 11329 c-10 -17 13 -36 27 -22 12 12 4 33 -11 33 -5 0 -12 -5
-16 -11z"/>
<path d="M13272 11318 c2 -12 10 -23 18 -23 22 0 19 39 -3 43 -15 3 -18 -1
-15 -20z"/>
<path d="M8184 11306 c-7 -20 2 -46 16 -46 5 0 10 7 10 16 0 12 6 15 26 10 21
-6 25 -4 22 11 -4 24 -66 31 -74 9z"/>
<path d="M9507 10435 c-4 -8 -2 -17 4 -21 6 -3 7 -20 4 -37 -9 -44 -84 -247
-102 -275 -8 -13 -15 -37 -15 -54 -2 -50 34 -60 121 -31 67 21 111 69 111 121
0 85 -60 108 -124 46 l-36 -35 26 68 c40 105 58 176 50 206 -7 29 -30 36 -39
12z m87 -261 c21 -56 -13 -107 -86 -129 -75 -22 -82 -21 -64 13 25 46 106 132
126 132 10 0 21 -7 24 -16z"/>
<path d="M10735 10442 c-14 -10 -85 -120 -85 -131 0 -30 23 -13 61 44 23 35
49 67 56 69 8 3 11 10 8 16 -7 12 -26 13 -40 2z"/>
<path d="M6025 10400 c-3 -5 3 -46 15 -91 23 -93 25 -137 8 -194 -10 -37 -12
-38 -18 -15 -8 36 -63 40 -97 8 -54 -49 -66 -135 -22 -159 28 -15 52 -4 98 44
64 65 83 128 78 256 -3 58 -10 118 -16 134 -10 27 -34 36 -46 17z m-22 -321
c3 -12 10 -18 16 -14 21 12 11 -5 -25 -45 -53 -59 -98 -48 -73 18 22 58 71 83
82 41z"/>
<path d="M10436 10398 c-18 -63 -60 -185 -65 -191 -4 -4 -38 -10 -75 -14 -66
-6 -90 -18 -66 -33 12 -8 22 -7 97 5 l31 6 -33 -103 c-18 -56 -31 -106 -29
-110 13 -21 25 1 60 107 l38 114 55 6 c79 10 117 20 111 31 -5 9 -85 8 -127
-1 -13 -3 -23 -3 -23 -1 0 3 13 44 29 92 17 49 28 92 25 96 -8 12 -24 10 -28
-4z"/>
<path d="M11995 10381 c-3 -17 -4 -34 -2 -38 3 -5 -7 -59 -22 -122 l-26 -114
-47 -14 c-26 -7 -50 -17 -53 -22 -10 -17 15 -23 51 -11 19 7 38 10 41 7 12
-12 -9 -65 -28 -70 -22 -6 -26 -27 -5 -27 8 0 16 -6 19 -12 9 -27 35 13 41 64
4 29 13 56 19 60 15 10 107 10 107 1 0 -4 -7 -33 -16 -65 -16 -57 -15 -76 4
-64 12 7 42 103 45 142 l2 29 -74 -4 c-63 -3 -73 -1 -68 12 3 9 9 33 12 54 4
21 13 59 21 85 17 52 15 129 -3 135 -6 2 -14 -10 -18 -26z"/>
<path d="M6852 10368 c3 -17 2 -48 -2 -67 -5 -20 -11 -52 -14 -72 -6 -35 -8
-36 -58 -42 -56 -7 -82 -22 -60 -36 7 -4 31 -3 52 3 22 5 42 7 46 4 3 -4 0
-47 -7 -96 -12 -85 -9 -122 9 -122 4 0 13 48 20 108 7 59 17 111 21 115 5 5
34 11 65 14 31 3 59 10 62 14 3 5 0 9 -6 9 -6 0 -8 4 -5 10 3 5 0 8 -7 6 -7
-2 -34 -7 -59 -10 l-46 -5 13 73 c10 52 11 82 4 100 -14 37 -33 33 -28 -6z"/>
<path d="M9860 10371 c-14 -27 -13 -41 5 -41 8 0 15 5 15 11 0 6 7 9 15 6 20
-8 29 11 15 28 -17 21 -37 19 -50 -4z"/>
<path d="M12691 10348 c-7 -24 -26 -72 -41 -108 -30 -69 -63 -222 -58 -267 7
-58 24 -30 36 58 7 50 21 114 31 142 10 29 30 84 45 122 29 80 31 95 13 95 -8
0 -19 -19 -26 -42z"/>
<path d="M14045 10348 c-75 -218 -108 -276 -177 -313 -27 -15 -52 -25 -54 -22
-13 12 13 64 52 105 42 44 48 62 19 62 -18 0 -89 -95 -103 -138 -23 -68 4 -81
87 -42 50 24 67 39 98 87 20 31 49 91 65 133 16 41 33 79 39 85 15 15 11 55
-6 55 -9 0 -18 -6 -20 -12z"/>
<path d="M11464 10268 c8 -49 12 -56 27 -41 17 17 2 83 -18 83 -13 0 -14 -8
-9 -42z"/>
<path d="M12179 10264 c-11 -14 -10 -18 6 -30 27 -20 44 -18 38 6 -8 32 -28
43 -44 24z"/>
<path d="M4407 10168 c-34 -40 -35 -41 -46 -20 -13 25 -67 56 -81 47 -16 -10
-12 -25 8 -32 56 -20 67 -64 27 -111 -30 -36 -69 -50 -60 -22 8 24 -8 33 -29
17 -14 -10 -15 -18 -7 -40 12 -32 29 -34 80 -7 l39 19 6 -24 c10 -39 40 -49
102 -36 35 8 57 20 68 35 18 28 9 42 -13 22 -9 -8 -35 -19 -59 -26 -51 -13
-72 -2 -72 37 0 43 70 153 98 153 6 0 12 7 12 15 0 29 -39 15 -73 -27z"/>
<path d="M8224 10191 c-66 -40 -112 -132 -84 -166 17 -20 41 -12 109 36 30 22
56 37 58 35 2 -2 -1 -16 -7 -31 -15 -39 -4 -85 20 -85 22 0 35 16 20 25 -16
10 -12 49 10 101 22 51 15 79 -15 54 -13 -10 -15 -9 -15 7 0 44 -45 55 -96 24z
m64 -42 c2 -21 -6 -32 -52 -62 -60 -40 -82 -46 -72 -21 3 9 6 20 6 25 0 17 83
90 99 87 9 -2 17 -15 19 -29z"/>
<path d="M9929 10187 c-55 -38 -91 -91 -93 -136 -1 -50 18 -71 72 -78 33 -4
43 -2 48 11 9 23 -13 46 -25 27 -11 -17 -48 -6 -60 18 -13 23 -5 32 52 64 52
31 81 66 71 90 -9 26 -31 27 -65 4z m11 -47 c-32 -24 -40 -16 -9 9 13 11 26
17 29 14 3 -2 -6 -13 -20 -23z"/>
<path d="M10589 10185 c-26 -13 -49 -31 -52 -39 -4 -9 8 -32 29 -57 28 -33 32
-44 23 -56 -22 -25 -48 -34 -68 -24 -24 13 -33 4 -20 -20 12 -23 40 -24 79 -4
56 29 62 86 12 125 -30 24 -23 35 34 55 39 13 53 38 24 42 -8 1 -36 -9 -61
-22z"/>
<path d="M11812 10183 c4 -39 28 -42 28 -4 0 21 -5 31 -16 31 -11 0 -14 -8
-12 -27z"/>
<path d="M2680 10170 c0 -20 5 -30 15 -30 8 0 15 8 15 17 0 14 5 13 27 -9 45
-46 25 -134 -45 -188 -22 -18 -27 -19 -34 -5 -14 24 -25 18 -24 -12 2 -46 39
-43 90 9 l44 43 10 -27 c9 -25 15 -28 54 -27 66 2 127 27 114 47 -4 7 -17 6
-41 -4 -43 -18 -94 -18 -101 -1 -8 22 25 98 66 153 45 60 47 64 23 64 -10 0
-33 -23 -52 -50 -32 -48 -51 -56 -51 -23 0 23 -59 73 -86 73 -20 0 -24 -5 -24
-30z"/>
<path d="M4753 10178 c-22 -24 -45 -90 -38 -111 2 -7 6 -36 10 -65 l6 -54 -43
4 c-33 2 -43 0 -43 -12 0 -11 13 -16 45 -18 24 -2 48 -9 53 -15 11 -17 -2 -98
-20 -126 -14 -21 -17 -22 -25 -8 -5 10 -13 17 -18 17 -15 0 -12 -36 5 -50 40
-33 85 26 88 117 2 48 5 59 21 63 31 9 30 28 -1 32 -32 4 -41 25 -42 114 -1
45 4 68 17 84 l17 22 19 -21 c24 -26 36 -27 36 -3 0 22 -30 52 -52 52 -8 0
-24 -10 -35 -22z"/>
<path d="M7026 10179 c-60 -47 -76 -140 -31 -184 13 -14 33 -25 44 -25 34 0
196 62 214 83 22 25 14 34 -16 20 -54 -26 -145 -61 -173 -67 -23 -5 -36 -2
-48 9 -27 28 -19 53 24 75 43 22 80 54 80 69 0 16 -30 41 -49 41 -10 0 -30 -9
-45 -21z m52 -20 c-2 -5 -18 -20 -37 -31 l-34 -22 12 22 c16 30 68 58 59 31z"/>
<path d="M3154 10179 c-8 -13 3 -24 34 -34 15 -4 22 -2 22 7 0 30 -41 50 -56
27z"/>
<path d="M6210 10179 c-35 -14 -59 -38 -81 -81 -39 -76 -13 -151 57 -164 45
-8 114 11 114 33 0 11 -6 14 -22 9 -64 -19 -96 -18 -117 3 -11 11 -21 33 -21
47 0 60 90 162 106 120 6 -15 -22 -62 -51 -86 -18 -15 -20 -40 -2 -40 13 0 66
60 86 98 10 19 10 28 -4 48 -17 26 -27 28 -65 13z"/>
<path d="M8441 10181 c-7 -5 -11 -13 -8 -18 4 -5 -7 -38 -23 -72 -34 -70 -36
-81 -17 -81 7 0 23 17 34 38 27 46 93 112 93 91 0 -7 -5 -31 -10 -51 -8 -27
-8 -44 0 -59 17 -32 27 -12 35 68 6 63 5 74 -10 79 -9 4 -26 2 -39 -4 -17 -7
-25 -7 -32 4 -6 9 -14 11 -23 5z"/>
<path d="M9265 10171 c-35 -21 -85 -77 -85 -94 0 -7 -3 -21 -6 -33 -13 -47 59
-71 116 -38 37 22 60 64 60 109 0 72 -28 91 -85 56z m54 -69 c1 -31 -50 -82
-83 -82 -21 0 -26 5 -26 25 0 34 27 73 64 96 29 18 31 18 38 1 3 -9 7 -27 7
-40z"/>
<path d="M10154 10177 c-91 -54 -143 -132 -110 -165 13 -14 25 -14 91 -4 42 7
83 18 91 26 18 19 2 29 -28 17 -12 -5 -47 -12 -75 -16 -48 -6 -53 -5 -53 12 0
25 69 92 106 102 30 8 40 34 14 38 -8 1 -24 -3 -36 -10z"/>
<path d="M5065 10170 c-8 -12 16 -50 32 -50 16 0 17 32 1 48 -14 14 -25 15
-33 2z"/>
<path d="M13332 10126 c-33 -38 -57 -98 -48 -121 11 -30 77 -7 174 62 l24 17
-16 -39 c-10 -23 -13 -42 -7 -48 9 -9 78 23 136 62 41 28 48 26 43 -11 -7 -42
-1 -58 21 -58 25 0 33 11 20 27 -7 7 -9 28 -6 47 11 68 -19 68 -135 -3 l-38
-23 15 42 c13 36 13 42 0 47 -9 3 -26 -2 -40 -11 -30 -19 -35 -20 -35 -3 0 20
-33 47 -57 47 -12 0 -34 -15 -51 -34z m78 -22 c6 -14 10 -27 10 -29 0 -4 -97
-55 -105 -55 -11 0 27 76 46 93 29 23 38 22 49 -9z"/>
<path d="M6361 10123 c-6 -16 -15 -50 -21 -78 -5 -27 -12 -60 -16 -72 -12 -44
23 -24 54 30 28 50 58 85 66 76 2 -2 -1 -32 -7 -66 -11 -66 -1 -98 29 -86 17
6 19 30 3 35 -8 3 -8 19 1 61 20 98 -10 127 -70 65 l-31 -33 15 39 c15 37 14
56 -3 56 -5 0 -14 -12 -20 -27z"/>
<path d="M6586 10117 c-38 -40 -60 -97 -54 -137 6 -49 105 -27 141 32 13 20
-5 85 -32 119 l-19 24 -36 -38z m49 -41 c18 -42 13 -57 -24 -79 -44 -26 -55
-22 -47 15 5 27 44 98 54 98 2 0 9 -15 17 -34z"/>
<path d="M11401 10081 c-13 -38 -21 -77 -17 -87 9 -24 15 -15 42 63 27 78 29
93 11 93 -7 0 -23 -31 -36 -69z"/>
<path d="M11561 10100 c-69 -57 -86 -81 -69 -98 17 -17 28 -15 28 7 0 17 79
95 88 87 1 -2 -5 -31 -14 -64 -16 -57 -15 -92 3 -92 11 0 55 188 48 201 -11
16 -23 10 -84 -41z"/>
<path d="M11735 10059 c-19 -55 -24 -84 -17 -91 14 -14 32 -1 32 21 0 10 9 44
20 76 19 55 19 75 0 75 -4 0 -20 -36 -35 -81z"/>
<path d="M2340 10123 c0 -4 5 -22 12 -40 13 -36 51 -47 62 -17 8 21 -1 34 -24
34 -10 0 -20 7 -24 15 -5 15 -26 21 -26 8z"/>
<path d="M9790 10105 c-5 -14 -10 -33 -10 -42 0 -40 -34 -141 -61 -180 -31
-45 -85 -81 -99 -66 -5 4 -10 21 -12 37 -5 50 -28 44 -28 -8 0 -36 4 -48 21
-56 29 -16 62 -6 104 32 47 41 79 105 98 199 9 41 17 81 19 89 6 25 -22 21
-32 -5z"/>
<path d="M12275 10078 c-35 -19 -85 -71 -85 -90 0 -25 26 -23 94 7 31 14 58
25 60 25 1 0 2 -10 2 -21 -1 -34 25 -45 74 -30 37 11 60 34 48 47 -3 2 -21 -3
-41 -11 -49 -20 -50 -20 -43 20 9 45 1 58 -25 45 -14 -8 -25 -7 -41 4 -17 11
-28 12 -43 4z m35 -33 c0 -5 -56 -35 -66 -35 -12 0 41 39 54 40 6 0 12 -2 12
-5z"/>
<path d="M5062 9994 c-20 -14 -31 -54 -14 -54 4 0 18 12 31 26 29 30 17 52
-17 28z"/>
<path d="M3686 9946 c5 -36 2 -52 -16 -80 -28 -47 -56 -62 -68 -39 -9 14 -10
14 -16 -5 -24 -74 79 -39 120 40 25 49 18 128 -11 128 -11 0 -13 -10 -9 -44z"/>
<path d="M3078 9953 c-67 -70 -100 -210 -60 -246 24 -22 44 -21 93 3 37 19 58
44 47 56 -3 2 -26 -7 -52 -22 -58 -32 -76 -27 -76 23 0 47 51 157 79 173 23
12 29 40 8 40 -7 0 -25 -12 -39 -27z"/>
<path d="M5792 9863 c-5 -10 -19 -66 -32 -125 -22 -101 -24 -107 -49 -110 -15
-2 -26 -9 -26 -18 0 -10 8 -14 23 -12 23 3 23 3 7 -34 -8 -20 -15 -38 -15 -40
0 -2 -5 -3 -11 -1 -15 3 -21 -15 -10 -32 15 -24 39 -4 58 50 10 28 23 53 28
54 46 12 138 25 143 21 10 -11 -30 -84 -49 -89 -11 -3 -19 -10 -19 -15 0 -11
49 -26 58 -18 7 7 42 103 49 132 7 33 -9 36 -91 18 -42 -10 -79 -15 -82 -12
-3 3 -1 23 5 44 5 22 12 53 15 69 7 38 22 95 31 118 5 12 2 17 -9 17 -8 0 -19
-8 -24 -17z"/>
<path d="M8502 9858 c-7 -7 -12 -18 -12 -25 0 -18 -101 -219 -133 -267 -31
-44 -33 -56 -12 -56 8 0 28 20 44 44 33 48 108 112 119 102 3 -4 -2 -38 -12
-76 -16 -65 -16 -90 3 -90 9 0 41 127 41 163 0 13 -7 30 -15 37 -13 11 -21 9
-45 -9 -17 -12 -30 -20 -30 -17 0 2 14 33 31 70 17 36 28 70 24 76 -3 5 -2 10
3 10 14 0 24 32 14 42 -4 4 -13 3 -20 -4z"/>
<path d="M5620 9800 c0 -32 9 -37 28 -18 19 19 15 48 -8 48 -16 0 -20 -7 -20
-30z"/>
<path d="M2504 9795 c-36 -36 -62 -101 -76 -188 l-11 -76 -46 -6 c-25 -4 -52
-7 -60 -8 -8 -1 -14 -6 -13 -12 2 -5 27 -10 56 -10 53 0 53 0 39 -22 -9 -13
-19 -24 -24 -24 -5 -1 -15 -2 -21 -3 -22 -2 -14 -31 8 -34 15 -2 31 9 53 35
17 21 31 43 31 49 0 11 28 29 42 26 17 -4 78 30 78 43 0 18 5 19 -58 -5 l-53
-20 6 47 c9 63 23 110 48 155 22 41 43 54 62 38 18 -15 30 6 15 25 -18 22 -48
18 -76 -10z"/>
<path d="M3426 9768 c-3 -18 -17 -56 -30 -83 -27 -58 -60 -199 -52 -221 11
-29 23 -12 35 54 7 37 28 106 47 155 19 48 34 96 34 107 0 33 -27 23 -34 -12z"/>
<path d="M6007 9777 c-8 -22 7 -37 31 -30 27 7 28 19 3 33 -25 13 -28 13 -34
-3z"/>
<path d="M7354 9777 c-7 -20 3 -37 22 -37 18 0 18 24 -1 40 -12 10 -16 9 -21
-3z"/>
<path d="M9166 9771 c-10 -16 5 -41 25 -41 22 0 23 4 9 31 -11 20 -25 25 -34
10z"/>
<path d="M5418 9730 c-64 -34 -75 -79 -31 -130 32 -39 22 -64 -26 -66 -58 -2
-53 -34 5 -34 70 0 95 63 48 119 -14 17 -24 38 -21 46 8 19 54 48 80 50 28 2
29 29 2 32 -11 1 -37 -6 -57 -17z"/>
<path d="M8281 9737 c-14 -6 -45 -37 -70 -67 -24 -30 -51 -55 -60 -55 -12 0
-18 -14 -22 -52 -4 -32 -25 -90 -54 -149 -33 -66 -44 -99 -37 -106 6 -6 15 -7
20 -4 19 11 60 91 76 146 l16 56 38 -4 c30 -3 45 2 70 23 64 53 103 149 79
194 -15 31 -26 34 -56 18z m29 -60 c0 -36 -49 -121 -80 -137 -27 -15 -50 -12
-50 5 0 40 90 165 119 165 6 0 11 -15 11 -33z"/>
<path d="M2690 9716 c0 -13 44 -66 55 -66 11 0 5 31 -11 55 -18 27 -44 34 -44
11z"/>
<path d="M9636 9715 c-51 -18 -80 -47 -72 -71 3 -11 34 -36 68 -57 58 -36 61
-40 44 -52 -19 -15 -71 -10 -94 8 -18 14 -29 0 -16 -21 13 -21 86 -34 119 -22
13 5 26 18 30 30 8 26 -14 52 -72 87 -24 14 -43 29 -43 34 0 18 55 44 92 43
31 -1 38 2 36 15 -4 21 -44 24 -92 6z"/>
<path d="M8955 9708 c-35 -19 -65 -51 -65 -69 0 -9 14 -29 30 -42 17 -14 30
-30 30 -35 0 -14 -25 -21 -50 -15 -27 7 -24 -14 3 -31 25 -16 71 12 75 46 2
19 -4 31 -27 48 -17 12 -31 25 -31 30 0 13 65 50 89 50 12 0 21 6 21 15 0 18
-45 20 -75 3z"/>
<path d="M5139 9690 c-9 -5 -20 -26 -23 -45 -4 -20 -13 -35 -21 -35 -26 0 -59
-85 -43 -113 6 -12 22 -17 51 -17 67 0 126 50 127 108 0 35 -24 102 -37 102
-6 0 -17 2 -25 5 -7 2 -20 0 -29 -5z m61 -98 c0 -34 -52 -82 -89 -82 -50 0
-39 43 27 113 l36 37 13 -22 c7 -13 12 -33 13 -46z"/>
<path d="M5562 9687 c-37 -44 -56 -147 -27 -147 10 0 15 10 15 30 0 17 9 49
21 72 21 41 14 73 -9 45z"/>
<path d="M9245 9667 c-93 -61 -107 -140 -30 -172 55 -24 173 -15 183 13 3 9
-9 12 -40 11 -39 -2 -84 4 -130 17 -24 7 -22 31 5 71 31 45 80 71 101 54 9 -8
16 -20 16 -28 0 -19 24 -11 28 10 4 22 -33 57 -61 57 -12 0 -45 -15 -72 -33z"/>
<path d="M4893 9668 c-17 -12 -39 -35 -49 -50 -11 -15 -26 -27 -34 -25 -10 1
-18 -16 -27 -63 -7 -36 -23 -119 -37 -185 -17 -81 -22 -123 -15 -130 18 -18
24 3 59 188 11 55 13 57 43 57 81 0 177 90 177 166 0 60 -60 82 -117 42z m71
-14 c23 -9 20 -46 -6 -84 -30 -43 -65 -68 -107 -76 -33 -7 -34 -6 -27 20 10
39 50 99 82 125 29 23 34 24 58 15z"/>
<path d="M8636 9677 c-18 -13 -27 -92 -12 -115 11 -19 51 -14 81 10 l28 21
-13 -24 c-7 -13 -37 -63 -67 -111 -62 -101 -86 -155 -79 -174 9 -23 24 -16 31
16 4 16 37 81 74 143 110 181 139 247 111 247 -6 0 -35 -25 -65 -55 -29 -30
-59 -55 -66 -55 -8 0 -10 15 -6 55 3 30 4 55 3 55 -1 0 -10 -6 -20 -13z"/>
<path d="M6088 9633 c-53 -16 -128 -91 -128 -127 0 -47 21 -59 93 -54 125 10
166 63 115 147 -13 20 -21 38 -20 41 7 10 -14 7 -60 -7z m55 -52 c9 -16 17
-36 17 -45 0 -25 -43 -47 -104 -53 -46 -5 -57 -3 -62 11 -8 22 36 78 78 99 45
22 51 21 71 -12z"/>
<path d="M6310 9640 c0 -5 0 -13 1 -16 0 -4 -3 -10 -8 -13 -27 -19 -67 -111
-47 -111 3 0 31 27 62 60 71 74 92 78 92 15 0 -35 4 -47 22 -56 18 -10 24 -8
40 11 20 25 24 50 7 50 -7 0 -18 -8 -26 -17 -12 -16 -14 -14 -12 22 1 22 1 46
0 53 -1 14 -55 16 -81 2 -13 -7 -21 -7 -25 0 -8 13 -25 13 -25 0z"/>
<path d="M9069 9613 c-28 -44 -32 -116 -8 -121 13 -2 16 5 15 37 0 27 7 50 22
71 21 28 22 50 2 50 -5 0 -19 -16 -31 -37z"/>
<path d="M3003 9607 c-35 -40 -57 -91 -49 -112 10 -28 36 -28 94 -2 40 19 58
23 61 14 9 -31 61 -50 61 -22 0 8 -5 15 -10 15 -6 0 -16 11 -22 25 -14 31 -29
31 -95 1 -28 -13 -54 -22 -57 -19 -10 10 36 85 55 90 22 6 26 43 5 43 -8 0
-27 -15 -43 -33z"/>
<path d="M7405 9610 c-19 -21 -45 -91 -38 -102 10 -17 33 -7 33 15 0 12 9 33
20 47 22 29 28 20 32 -50 2 -31 7 -45 18 -45 11 0 14 13 13 58 0 31 -6 64 -12
71 -19 23 -49 25 -66 6z"/>
<path d="M7253 9608 c-23 -30 -54 -110 -49 -124 7 -19 28 -14 32 7 4 25 33 87
44 94 15 9 12 35 -4 35 -7 0 -18 -6 -23 -12z"/>
<path d="M2756 9566 c-38 -47 -60 -92 -51 -106 8 -13 35 0 35 17 0 18 60 103
72 103 13 0 28 -47 28 -86 0 -28 4 -35 17 -32 14 3 17 12 14 48 -7 106 -54
129 -115 56z"/>
<path d="M2638 9573 c-27 -31 -39 -63 -33 -83 8 -27 39 -27 32 -1 -2 11 4 33
14 50 29 49 20 72 -13 34z"/>
<path d="M12386 8693 c-3 -10 -10 -41 -15 -69 -6 -28 -37 -115 -70 -192 -33
-78 -66 -163 -72 -189 -7 -26 -18 -55 -25 -64 -19 -21 -17 -43 4 -62 23 -21
32 -13 32 26 0 45 35 153 87 269 37 83 92 256 93 291 0 15 -29 6 -34 -10z"/>
<path d="M5583 8612 c-4 -104 -29 -245 -53 -291 -18 -36 -83 -106 -115 -124
-11 -6 -15 -2 -15 15 0 30 56 98 81 98 22 0 26 28 4 36 -41 16 -132 -108 -119
-161 20 -78 179 53 214 177 21 73 42 280 31 304 -18 41 -26 27 -28 -54z"/>
<path d="M12746 8642 c-10 -26 -43 -101 -74 -168 -49 -107 -59 -122 -86 -130
-26 -8 -32 -16 -39 -53 -10 -49 -2 -91 16 -91 7 0 26 27 42 59 26 52 34 60 65
65 44 7 100 8 100 1 0 -3 -11 -23 -25 -45 -27 -42 -32 -70 -14 -70 7 0 45 20
85 44 41 25 74 43 74 41 0 -12 -61 -137 -106 -216 -30 -52 -54 -103 -54 -112
0 -23 28 -33 43 -17 9 10 9 14 0 17 -15 5 -9 21 37 98 44 71 120 232 120 252
0 7 -7 16 -15 19 -13 5 -38 -7 -112 -54 l-23 -14 14 34 c21 49 8 63 -56 60
-29 -1 -61 -5 -70 -8 -21 -6 -16 10 31 105 34 66 91 206 91 221 0 6 -6 10 -12
10 -7 0 -21 -21 -32 -48z m-152 -347 c-4 -8 -8 -15 -10 -15 -2 0 -4 7 -4 15 0
8 4 15 10 15 5 0 7 -7 4 -15z"/>
<path d="M11905 8630 c-9 -17 -25 -72 -35 -122 -21 -96 -54 -178 -97 -240 -34
-50 -26 -72 26 -65 84 11 180 81 165 120 -8 23 -51 33 -86 19 -33 -12 -33 -12
-12 36 9 20 24 77 34 125 10 49 26 100 35 113 15 24 13 44 -5 44 -5 0 -17 -14
-25 -30z m25 -325 c0 -14 -48 -43 -105 -65 -45 -17 -29 17 23 50 52 32 82 38
82 15z"/>
<path d="M13724 8624 c-21 -59 -37 -91 -56 -111 -31 -33 -40 -28 -21 12 9 19
14 38 10 41 -15 15 -37 -9 -50 -53 -12 -43 -19 -51 -63 -72 -50 -24 -119 -32
-161 -17 -34 12 -31 -22 3 -34 38 -15 78 -12 136 10 28 11 53 18 54 17 2 -2
-10 -45 -27 -97 -36 -116 -49 -210 -28 -210 10 0 18 21 25 68 6 37 25 112 43
167 28 88 35 103 66 122 19 12 35 21 35 19 0 -12 -46 -151 -66 -198 -25 -60
-31 -108 -14 -108 6 0 38 23 71 50 33 28 73 57 90 65 28 15 29 15 29 -6 0 -11
-14 -52 -30 -90 -31 -69 -32 -89 -4 -89 12 0 18 12 15 32 0 4 11 31 24 60 29
62 33 126 9 135 -20 8 -66 -14 -128 -62 -33 -25 -46 -31 -41 -19 26 62 107
314 107 337 1 36 -19 58 -28 31z"/>
<path d="M7976 8611 c-9 -13 4 -41 18 -41 20 0 26 11 15 31 -10 20 -24 24 -33
10z"/>
<path d="M11342 8603 c-5 -10 -14 -40 -21 -66 -6 -26 -32 -92 -57 -145 -38
-79 -44 -102 -39 -132 4 -19 11 -41 17 -47 14 -17 81 -16 122 1 61 25 86 94
48 129 -23 21 -52 21 -99 2 -20 -8 -38 -13 -40 -11 -2 2 8 28 23 58 31 61 74
183 74 210 0 23 -17 23 -28 1z m42 -279 c47 -18 -9 -84 -78 -91 -25 -3 -46 -3
-46 -1 0 6 21 68 23 68 1 0 20 7 42 15 22 8 41 14 42 15 1 0 8 -3 17 -6z"/>
<path d="M8376 8558 c-3 -7 -7 -31 -11 -53 -4 -22 -27 -100 -51 -174 -24 -74
-44 -143 -44 -152 0 -22 37 -49 67 -49 49 0 132 40 153 74 25 42 25 57 -1 90
-22 29 -74 35 -124 16 -23 -9 -26 -8 -21 6 19 49 56 192 56 215 0 30 -17 49
-24 27z m88 -284 c21 -20 20 -26 -4 -57 -23 -29 -110 -62 -140 -52 -23 7 -23
53 1 81 33 40 115 56 143 28z"/>
<path d="M12182 8513 c4 -39 28 -42 28 -4 0 21 -5 31 -16 31 -11 0 -14 -8 -12
-27z"/>
<path d="M8647 8524 c-4 -4 -7 -24 -7 -45 0 -21 -20 -98 -45 -171 -25 -73 -44
-144 -43 -157 4 -33 28 -40 28 -8 0 13 20 82 44 153 44 129 61 224 40 231 -5
2 -13 0 -17 -3z"/>
<path d="M2883 8492 c-10 -15 -46 -62 -81 -104 l-64 -78 -41 53 c-52 66 -95
107 -113 107 -25 0 -15 -18 35 -67 26 -26 60 -64 75 -84 l27 -37 -111 -112
c-78 -79 -108 -116 -101 -123 8 -8 43 21 118 96 58 59 107 107 108 107 5 0
104 -157 116 -182 14 -31 39 -38 39 -10 0 9 -29 61 -65 116 -36 54 -65 102
-65 106 0 10 120 159 149 184 25 22 27 42 6 50 -9 3 -21 -5 -32 -22z"/>
<path d="M12513 8484 c-3 -8 -1 -20 5 -26 15 -15 43 8 35 28 -7 19 -32 18 -40
-2z"/>
<path d="M10654 8457 c-71 -40 -142 -189 -170 -357 -17 -108 -17 -120 1 -120
18 0 35 33 64 123 19 57 26 67 46 67 51 0 165 150 165 218 0 26 -17 63 -34 74
-16 11 -48 9 -72 -5z m56 -68 c0 -40 -31 -97 -75 -139 l-37 -35 7 40 c4 22 8
55 9 74 1 25 11 42 39 68 42 38 57 36 57 -8z"/>
<path d="M14450 8418 c-16 -22 -30 -45 -30 -50 0 -5 -20 -39 -45 -77 -25 -38
-45 -73 -45 -80 0 -31 31 -2 86 82 33 50 67 91 75 91 8 -1 21 -3 29 -5 21 -5
15 52 -7 69 -25 18 -30 16 -63 -30z"/>
<path d="M9740 8420 c0 -11 40 -50 52 -50 15 0 8 27 -10 43 -20 19 -42 22 -42
7z"/>
<path d="M8810 8399 c-150 -90 -161 -219 -19 -219 30 0 71 5 92 11 31 8 36 13
27 24 -8 10 -19 11 -43 4 -50 -14 -123 -11 -137 6 -7 8 -10 25 -6 39 4 18 15
25 43 31 21 3 62 17 91 30 41 19 52 29 52 47 0 50 -42 62 -100 27z m70 -20 c0
-12 -86 -52 -101 -47 -12 4 70 58 88 58 7 0 13 -5 13 -11z"/>
<path d="M10855 8386 c-37 -39 -81 -144 -67 -158 12 -12 65 9 59 25 -2 6 -9
11 -15 10 -5 -1 -8 7 -5 17 3 11 8 20 12 20 4 0 21 20 39 45 26 37 37 45 63
45 44 0 32 24 -15 28 -32 3 -42 -2 -71 -32z"/>
<path d="M6129 8375 c-24 -20 -68 -62 -97 -93 -30 -32 -50 -48 -46 -37 3 11
15 42 26 69 35 90 5 96 -93 21 -43 -32 -55 -38 -52 -24 7 25 -25 26 -33 2 -4
-10 -19 -46 -35 -80 -19 -43 -24 -65 -16 -70 6 -3 16 2 21 11 25 41 53 71 114
122 36 30 67 53 68 51 2 -1 -8 -33 -21 -70 -47 -128 -27 -129 100 -6 93 90
106 95 84 30 -6 -17 -8 -43 -5 -56 6 -23 11 -25 59 -25 57 0 111 25 86 41 -7
4 -21 3 -30 -2 -19 -9 -89 -13 -89 -4 0 3 8 32 17 66 15 53 15 61 1 75 -13 13
-20 11 -59 -21z"/>
<path d="M7465 8396 c-37 -16 -101 -77 -109 -104 -9 -27 10 -62 32 -62 10 0
34 9 55 20 l37 20 0 -34 c0 -31 20 -66 39 -66 4 0 15 6 26 13 22 17 11 40 -16
32 -15 -5 -19 -1 -19 19 0 14 5 46 12 71 12 45 4 95 -17 101 -5 2 -24 -3 -40
-10z m35 -45 c0 -21 -60 -76 -91 -84 -36 -10 -30 14 14 58 47 48 77 58 77 26z"/>
<path d="M7675 8400 c-32 -12 -47 -36 -60 -95 -13 -55 -11 -65 11 -65 10 0 27
37 29 66 0 6 8 23 18 38 16 24 24 27 60 24 31 -2 42 1 42 12 0 23 -62 36 -100
20z"/>
<path d="M7904 8385 c-14 -14 -37 -50 -51 -81 -23 -51 -24 -57 -9 -72 14 -14
17 -14 36 3 16 15 20 27 16 48 -4 19 0 40 11 58 19 32 21 33 43 20 20 -14 32
-3 20 18 -16 31 -39 33 -66 6z"/>
<path d="M4768 8373 c-50 -57 -87 -213 -58 -248 21 -25 30 -7 31 58 0 57 15
110 45 161 12 19 13 19 55 3 56 -22 75 -6 28 22 -42 26 -81 27 -101 4z"/>
<path d="M7212 8287 c-79 -135 -85 -139 -107 -85 -9 23 -19 64 -22 90 -4 31
-11 48 -19 48 -19 0 -18 -51 1 -114 30 -97 66 -121 103 -68 44 62 131 216 126
224 -11 18 -24 4 -82 -95z"/>
<path d="M3215 8360 c-7 -23 1 -40 20 -40 16 0 26 25 19 45 -9 21 -32 19 -39
-5z"/>
<path d="M3906 8354 c-40 -41 -58 -121 -31 -144 19 -15 48 -5 91 32 l34 30 0
-27 c0 -14 4 -35 10 -45 19 -35 110 -38 110 -4 0 12 -7 14 -28 10 -16 -4 -35
-1 -46 7 -17 13 -18 19 -8 60 17 66 15 75 -18 92 -44 23 -83 19 -114 -11z m86
-15 c19 -11 19 -12 -13 -46 -19 -19 -46 -41 -61 -49 -32 -17 -36 -7 -17 43 22
57 50 74 91 52z"/>
<path d="M8083 8358 c-37 -42 -53 -72 -53 -100 0 -22 5 -28 23 -28 12 0 37 9
55 20 l32 20 0 -36 c0 -38 15 -74 30 -74 5 0 7 19 4 43 -3 26 0 58 10 86 9 24
13 47 11 52 -3 4 -33 -12 -67 -37 -33 -24 -63 -42 -66 -39 -3 2 7 23 22 46 21
32 30 38 41 29 16 -13 28 1 19 24 -9 23 -37 20 -61 -6z"/>
<path d="M12065 8304 c-27 -55 -34 -79 -26 -87 13 -13 12 -15 50 60 30 61 40
103 23 103 -5 0 -26 -34 -47 -76z"/>
<path d="M14004 8351 c-21 -15 -48 -38 -58 -50 -11 -11 -27 -21 -38 -21 -18 0
-24 -11 -11 -24 4 -4 6 -24 4 -46 -2 -32 2 -41 23 -55 21 -14 35 -15 73 -9 32
6 48 14 48 24 0 15 -35 16 -45 1 -3 -4 -20 -4 -37 1 -24 6 -33 14 -33 29 0 35
18 56 74 88 55 30 82 62 71 81 -10 17 -30 11 -71 -19z"/>
<path d="M14552 8363 c-35 -69 -7 -186 39 -157 18 11 8 -8 -40 -74 -57 -79
-91 -143 -91 -172 0 -37 18 -21 48 43 16 34 65 109 108 166 124 163 129 170
116 183 -9 9 -26 -4 -70 -50 -31 -34 -66 -62 -76 -62 -15 0 -17 7 -14 53 2 28
6 58 9 66 6 21 -18 25 -29 4z"/>
<path d="M4915 8318 c-44 -44 -62 -85 -51 -113 9 -23 32 -18 91 20 l55 35 0
-54 c0 -37 5 -58 16 -67 13 -10 17 -10 24 1 5 9 5 20 -2 27 -6 8 -8 37 -3 78
8 79 -2 83 -71 30 -85 -65 -100 -67 -64 -8 25 42 63 66 90 58 18 -6 21 -3 18
12 -2 11 -13 19 -31 21 -22 3 -38 -6 -72 -40z"/>
<path d="M5655 8346 c-40 -17 -91 -77 -100 -115 -17 -77 55 -98 125 -35 33 30
40 43 40 75 0 37 -17 89 -29 89 -3 -1 -20 -7 -36 -14z m35 -77 c0 -20 -9 -35
-33 -53 -47 -36 -67 -34 -67 5 0 22 9 40 30 59 38 36 70 31 70 -11z"/>
<path d="M11100 8349 c0 -5 -4 -7 -10 -4 -14 9 -66 -24 -81 -51 -20 -38 -5
-56 38 -48 92 16 145 76 94 104 -25 13 -41 13 -41 -1z m19 -28 c11 -7 7 -13
-17 -25 -17 -9 -39 -16 -49 -16 -14 1 -12 6 12 25 34 28 35 28 54 16z"/>
<path d="M14250 8343 c-52 -34 -110 -97 -110 -120 0 -59 102 -67 160 -13 36
33 39 70 10 118 -22 36 -25 37 -60 15z m34 -57 c24 -38 9 -59 -58 -80 -25 -8
-56 2 -56 19 0 14 74 85 89 85 5 0 16 -11 25 -24z"/>
<path d="M5140 8330 c0 -10 -11 -54 -25 -97 -17 -55 -21 -81 -14 -88 8 -7 18
-1 33 19 67 91 98 126 107 120 5 -3 9 -27 7 -52 -2 -37 0 -47 15 -50 15 -3 17
5 17 55 0 89 -37 110 -91 51 l-29 -33 6 48 c6 39 4 47 -10 47 -9 0 -16 -8 -16
-20z"/>
<path d="M12409 8308 c-40 -79 -45 -128 -13 -128 9 0 14 11 14 29 0 17 11 51
25 77 23 44 25 64 5 64 -5 0 -19 -19 -31 -42z"/>
<path d="M11545 8320 c-37 -23 -78 -92 -73 -123 5 -34 39 -32 88 6 l45 34 0
-41 c0 -30 4 -41 15 -41 10 0 15 10 15 30 0 17 4 49 9 73 7 38 5 44 -16 62
-29 24 -45 25 -83 0z m60 -30 c0 -14 -96 -93 -103 -85 -8 7 29 64 54 84 29 23
49 23 49 1z"/>
<path d="M2270 8311 c-21 -17 -23 -23 -15 -48 15 -42 39 -40 59 6 27 59 5 79
-44 42z"/>
<path d="M9800 8282 c-40 -39 -52 -72 -26 -72 8 0 17 8 20 18 4 10 20 29 37
41 37 27 56 16 61 -35 4 -49 22 -47 26 3 2 32 -2 47 -17 62 -30 30 -55 26
-101 -17z"/>
<path d="M9687 8274 c-4 -4 -7 -21 -7 -37 0 -20 -6 -30 -20 -34 -24 -6 -24 -7
-4 -38 27 -41 41 -31 49 36 7 56 -2 89 -18 73z"/>
<path d="M8926 8247 c-18 -13 -18 -14 -1 -21 22 -8 44 9 29 24 -7 7 -16 6 -28
-3z"/>
<path d="M3203 8184 c-10 -27 14 -40 37 -19 11 10 17 22 14 26 -9 15 -44 10
-51 -7z"/>
<path d="M14336 7299 c-27 -30 -73 -105 -113 -184 l-67 -133 -56 -9 c-38 -6
-55 -12 -55 -23 0 -16 12 -17 71 -5 l36 6 -6 -38 c-12 -66 -38 -108 -63 -105
-29 4 -31 -24 -3 -33 43 -14 81 39 96 134 7 43 20 51 90 51 l41 0 -54 -53
c-56 -57 -66 -89 -34 -106 26 -14 85 4 122 37 25 22 31 37 36 85 4 40 10 57
20 57 8 0 13 6 11 13 -5 14 -58 23 -58 9 0 -5 -34 -10 -75 -11 -41 -1 -75 2
-75 6 0 11 100 204 123 238 27 39 69 85 78 85 4 0 9 -17 11 -37 3 -43 21 -47
26 -7 11 88 -34 99 -102 23z m9 -391 c-4 -18 -9 -36 -12 -41 -9 -15 -65 -38
-86 -35 -20 4 -17 9 30 56 62 61 77 65 68 20z"/>
<path d="M2706 7297 c-3 -15 -20 -30 -47 -42 -89 -40 -175 -182 -186 -305 -4
-47 -2 -59 17 -84 30 -37 57 -33 203 35 123 56 132 62 123 78 -4 6 -43 -7
-104 -36 -53 -25 -117 -52 -141 -61 -41 -14 -45 -14 -58 3 -42 59 37 263 126
322 19 13 37 23 41 23 4 0 4 -21 0 -47 -14 -93 11 -109 59 -36 34 50 40 93 16
113 -8 7 -15 23 -15 36 0 31 -26 31 -34 1z m34 -74 c-1 -10 -7 -29 -15 -43
-13 -22 -14 -23 -15 -5 0 30 11 65 21 65 5 0 9 -8 9 -17z"/>
<path d="M12125 7300 c-3 -5 0 -10 7 -10 9 0 9 -3 2 -8 -18 -12 -26 -45 -12
-54 9 -5 9 -8 1 -8 -6 0 -23 -35 -37 -77 -33 -97 -35 -100 -69 -105 -32 -4
-37 -22 -7 -26 11 -2 20 -4 20 -5 0 -1 -11 -33 -24 -72 -13 -38 -20 -74 -16
-79 13 -13 27 1 33 34 4 17 16 52 28 80 17 40 28 51 58 61 20 6 53 20 74 31
l38 19 -11 -22 c-29 -53 -60 -163 -49 -173 7 -8 15 -5 27 10 24 29 102 84 119
84 12 0 14 -14 11 -67 -4 -85 15 -95 29 -16 19 103 -21 139 -98 89 -21 -15
-39 -21 -39 -15 0 6 20 58 45 115 25 56 45 110 45 118 0 33 -28 14 -50 -35
-24 -50 -65 -81 -137 -103 l-21 -7 24 77 c30 95 40 159 26 168 -6 3 -13 2 -17
-4z"/>
<path d="M6768 7278 c-3 -7 -2 -22 3 -33 23 -58 -13 -226 -59 -275 -22 -24
-46 -98 -40 -126 5 -29 50 -46 85 -33 68 25 126 115 103 158 -12 24 -41 41
-69 41 -20 0 -20 0 0 57 19 55 23 129 10 187 -6 32 -25 45 -33 24z m56 -313
c32 -32 -37 -125 -93 -125 -18 0 -20 4 -15 28 24 100 66 138 108 97z"/>
<path d="M9813 7233 c-6 -27 -29 -90 -52 -142 -65 -146 -86 -248 -53 -259 8
-2 12 7 12 25 0 51 49 194 101 296 27 53 37 127 17 127 -9 0 -18 -18 -25 -47z"/>
<path d="M12933 7259 c-23 -6 -33 -16 -33 -29 0 -22 26 -28 32 -8 6 17 206 23
288 9 68 -12 160 -61 160 -84 0 -31 -74 -77 -197 -123 -78 -30 -119 -32 -107
-6 18 40 46 172 40 187 -9 26 -24 9 -31 -38 -4 -23 -16 -71 -27 -105 l-19 -64
-66 4 c-86 4 -96 -15 -18 -33 53 -12 56 -14 50 -38 -4 -14 -17 -47 -30 -73
-32 -64 -37 -118 -10 -118 8 0 19 17 26 43 24 89 40 135 52 149 7 9 38 20 71
27 78 15 233 84 274 122 23 22 32 39 32 63 0 76 -105 117 -315 122 -77 2 -155
-1 -172 -7z"/>
<path d="M4807 7165 c-15 -36 -30 -85 -34 -110 -5 -42 -8 -45 -42 -51 -59 -10
-71 -15 -71 -30 0 -16 0 -16 58 -5 l44 9 -7 -47 c-4 -25 -11 -54 -16 -63 -13
-24 -11 -38 4 -38 19 0 37 44 44 103 l6 49 57 -4 c50 -4 60 -8 98 -46 50 -50
58 -79 15 -56 -37 18 -45 18 -41 -3 2 -10 6 -16 9 -13 3 3 13 -3 23 -12 21
-21 40 -23 53 -5 25 31 22 48 -13 87 l-36 39 29 6 c45 10 53 14 53 24 0 17
-31 21 -64 7 -21 -9 -39 -10 -47 -5 -8 5 -40 9 -73 9 l-59 0 7 43 c4 23 20 71
36 106 35 75 35 71 13 71 -12 0 -27 -21 -46 -65z"/>
<path d="M7512 7169 c2 -18 9 -34 16 -37 10 -3 13 5 10 29 -2 18 -9 34 -16 37
-10 3 -13 -5 -10 -29z"/>
<path d="M11917 7173 c-4 -3 -7 -15 -7 -25 0 -28 34 -19 38 10 3 21 -16 31
-31 15z"/>
<path d="M5790 7106 c0 -17 5 -26 16 -26 10 0 14 7 12 22 -5 32 -28 35 -28 4z"/>
<path d="M8530 7082 c-57 -28 -54 -73 11 -149 l42 -47 -27 -9 c-18 -6 -35 -4
-58 7 -36 19 -54 9 -34 -19 18 -25 108 -27 132 -3 21 20 14 38 -41 106 -19 24
-35 50 -35 58 0 19 53 44 95 44 24 0 35 4 35 15 0 21 -75 20 -120 -3z"/>
<path d="M8280 7079 c-64 -26 -81 -83 -34 -116 14 -10 40 -30 57 -44 27 -23
29 -29 18 -43 -18 -22 -48 -20 -61 4 -15 29 -32 25 -28 -7 6 -49 94 -58 119
-12 18 35 2 68 -51 101 -28 17 -50 38 -50 48 0 19 33 39 79 49 18 3 33 11 34
16 3 14 -52 16 -83 4z"/>
<path d="M3157 7073 c-13 -12 -7 -23 22 -38 39 -20 54 0 20 26 -26 20 -32 22
-42 12z"/>
<path d="M4503 7059 c-53 -34 -53 -79 2 -115 33 -21 31 -38 -5 -64 -34 -24
-39 -40 -12 -40 25 0 72 51 72 78 0 12 -13 31 -30 44 -41 30 -36 58 13 81 20
10 37 23 37 28 0 16 -44 9 -77 -12z"/>
<path d="M7216 7030 c-44 -49 -45 -69 -6 -114 l31 -34 -23 -16 c-27 -19 -50
-20 -66 -4 -16 16 -25 4 -17 -21 12 -39 106 -22 127 23 11 26 12 24 -38 94
-16 22 -15 24 25 62 46 44 49 50 22 50 -10 0 -35 -18 -55 -40z"/>
<path d="M14505 7038 c-32 -38 -77 -136 -69 -150 11 -18 27 -2 48 52 12 29 34
63 49 74 27 20 29 20 74 4 50 -18 71 -15 53 7 -11 14 -93 45 -116 45 -7 0 -24
-14 -39 -32z"/>
<path d="M11470 7029 c-52 -17 -101 -33 -107 -35 -7 -2 -13 -8 -13 -14 0 -17
51 -11 114 14 34 13 83 28 111 32 l49 7 -41 -49 c-23 -27 -57 -65 -77 -83 -20
-19 -36 -39 -36 -43 0 -16 29 -8 57 16 31 26 86 56 103 56 5 0 10 -16 10 -36
0 -116 89 -88 103 32 4 35 2 58 -7 69 -22 30 -36 9 -29 -44 5 -47 -8 -91 -27
-91 -6 0 -10 18 -10 39 0 43 -23 76 -47 67 -10 -4 -11 -1 -3 14 5 10 15 22 20
25 6 3 10 17 10 31 0 22 -4 24 -42 24 -24 0 -86 -14 -138 -31z"/>
<path d="M10236 6981 c-30 -37 -61 -75 -70 -83 -8 -9 -12 -19 -8 -23 4 -5 2
-5 -5 -1 -8 4 -10 22 -6 55 10 87 -34 118 -95 66 -17 -14 -34 -25 -38 -25 -10
0 -64 -99 -64 -118 0 -28 28 -7 64 49 82 126 137 111 86 -23 -23 -60 -24 -68
-10 -68 14 0 108 68 114 83 2 7 5 4 5 -5 1 -29 33 -21 94 22 32 22 57 36 57
32 0 -4 7 -57 15 -119 8 -62 12 -118 9 -126 -3 -9 -27 -18 -62 -22 -31 -4 -72
-14 -90 -22 -54 -25 -81 -104 -47 -133 12 -10 13 -16 4 -26 -6 -8 -17 -14 -24
-14 -8 0 -13 -16 -13 -44 -2 -79 49 -101 188 -82 95 13 124 26 102 48 -9 9
-12 9 -12 0 0 -7 -3 -11 -7 -10 -5 1 -44 -2 -88 -7 -94 -10 -125 -8 -144 10
-22 21 -5 55 28 55 37 0 110 26 133 47 11 9 18 26 16 38 -1 12 6 41 17 64 l19
43 65 -5 c84 -7 173 2 168 17 -4 13 -9 13 -133 22 -81 6 -91 9 -87 24 3 10 -2
68 -11 128 -9 62 -14 129 -10 151 8 48 -7 55 -38 16 -18 -23 -108 -91 -108
-82 0 15 31 76 44 87 17 14 22 50 6 50 -5 0 -34 -31 -64 -69z m124 -361 c0
-24 -34 -59 -63 -65 -18 -4 -42 -13 -54 -21 -18 -11 -22 -11 -27 2 -9 23 15
66 44 81 30 15 100 17 100 3z"/>
<path d="M11879 7013 c-6 -21 -20 -55 -31 -76 -21 -43 -17 -82 6 -56 20 22 68
147 61 158 -12 20 -23 11 -36 -26z"/>
<path d="M4023 6987 c-86 -91 -105 -152 -58 -183 43 -28 186 -1 156 29 -8 8
-14 8 -19 2 -8 -12 -77 -18 -109 -10 -31 7 -29 32 6 86 32 49 81 99 81 81 0
-7 7 -12 15 -12 17 0 18 4 9 38 -9 34 -26 27 -81 -31z"/>
<path d="M7043 7033 c-8 -3 -13 -22 -13 -45 0 -49 -25 -105 -52 -114 -11 -3
-22 -3 -26 0 -5 6 7 72 24 125 5 18 4 23 -7 19 -34 -11 -61 -126 -40 -167 15
-28 43 -27 80 4 32 28 49 68 55 133 5 43 0 53 -21 45z"/>
<path d="M7916 7000 c-56 -52 -73 -90 -57 -129 21 -50 95 -66 166 -37 42 18
48 41 9 32 -88 -22 -126 -19 -144 13 -18 34 -3 48 56 53 82 7 135 55 104 93
-7 9 -30 15 -51 15 -32 0 -48 -8 -83 -40z m109 0 c8 -12 -54 -40 -87 -40 -23
1 -22 1 5 25 29 26 71 33 82 15z"/>
<path d="M7554 7005 c-9 -14 -13 -32 -9 -45 8 -25 25 -27 25 -2 0 9 4 24 10
32 8 12 10 12 16 -3 4 -11 -4 -32 -21 -57 -43 -61 -21 -66 52 -10 70 53 87 59
97 34 10 -27 7 -48 -14 -89 -11 -22 -20 -41 -20 -43 0 -2 14 -2 31 0 29 3 31
6 35 53 13 135 -11 164 -90 110 l-36 -24 0 22 c0 49 -49 63 -76 22z"/>
<path d="M9465 7015 c-76 -38 -121 -130 -75 -155 16 -8 32 -4 79 20 33 16 62
34 66 40 14 23 25 7 25 -39 0 -31 5 -53 15 -61 8 -7 15 -11 16 -9 0 2 1 39 3
82 2 64 0 80 -13 85 -9 3 -23 14 -31 23 -23 26 -52 30 -85 14z m64 -38 c12
-16 0 -29 -60 -65 -72 -44 -93 -17 -34 43 37 37 74 45 94 22z"/>
<path d="M7447 6988 c-35 -47 -47 -73 -47 -103 0 -42 33 -29 41 16 3 20 16 50
28 68 33 46 12 65 -22 19z"/>
<path d="M9883 7000 c-68 -30 -107 -118 -68 -150 12 -10 24 -8 63 12 40 20 49
31 63 72 17 50 15 86 -5 86 -6 0 -30 -9 -53 -20z m27 -49 c0 -30 -38 -71 -66
-71 -27 0 -8 52 30 82 29 24 36 22 36 -11z"/>
<path d="M4267 6993 c-11 -11 -8 -23 6 -23 15 0 47 -31 47 -46 0 -25 -93 -52
-120 -34 -20 12 -2 42 29 50 30 7 31 24 3 28 -30 5 -72 -33 -72 -65 0 -60 115
-69 172 -12 28 27 28 29 13 58 -20 40 -60 62 -78 44z"/>
<path d="M5888 6963 c-34 -38 -78 -105 -78 -120 0 -29 27 -8 63 48 20 33 43
59 50 56 8 -2 12 -29 12 -82 0 -107 20 -111 29 -6 10 124 -19 165 -76 104z"/>
<path d="M5730 6939 c-15 -55 -18 -118 -5 -119 6 -1 15 22 21 50 7 28 17 57
23 64 6 7 9 21 5 30 -11 29 -33 17 -44 -25z"/>
<path d="M2135 6959 c-7 -11 6 -69 17 -75 15 -9 48 27 48 53 0 12 -3 23 -7 24
-5 0 -18 2 -31 3 -13 2 -25 -1 -27 -5z"/>
<path d="M3137 6903 c-4 -3 -7 -13 -7 -20 0 -19 52 -13 58 6 3 8 0 11 -6 7 -6
-3 -13 -2 -17 4 -7 12 -19 13 -28 3z"/>
<path d="M3247 6813 c-12 -21 -38 -83 -56 -138 -44 -131 -57 -155 -84 -156
-47 -3 -52 -4 -52 -19 0 -11 9 -14 32 -13 l32 3 -14 -39 c-22 -63 -23 -105 -2
-109 13 -3 17 4 18 30 0 18 8 53 17 77 15 38 24 46 67 63 28 11 52 24 54 30 2
7 5 7 10 0 4 -7 12 -8 21 -2 11 7 12 12 4 20 -8 8 -26 6 -66 -7 l-56 -19 25
65 c13 37 33 86 44 110 10 24 19 49 19 56 0 7 9 23 20 36 16 20 19 21 20 7 0
-24 30 -23 30 0 0 10 -5 23 -12 30 -22 22 -47 13 -71 -25z"/>
<path d="M3617 6734 c-3 -3 -1 -17 4 -31 14 -36 -15 -133 -39 -133 -38 0 -92
-21 -92 -37 0 -15 13 -14 74 4 22 6 22 7 -18 -101 -13 -39 -23 -74 -20 -78 9
-14 24 -9 30 10 3 9 19 54 36 100 l31 82 61 0 c63 0 93 10 82 28 -3 5 -32 8
-67 5 -61 -5 -62 -5 -55 18 15 52 17 85 7 112 -10 26 -21 33 -34 21z"/>
<path d="M6567 6710 c-19 -16 -39 -30 -43 -31 -26 -1 -149 -315 -142 -361 6
-44 25 -25 67 70 l43 99 37 -9 c20 -4 52 -10 71 -13 57 -9 78 -32 96 -110 17
-72 43 -113 64 -100 6 4 8 14 5 24 -4 9 -14 43 -21 76 -16 64 -32 87 -79 116
l-30 19 26 0 c54 0 139 85 139 139 0 35 -48 80 -103 96 -72 21 -92 19 -130
-15z m127 -16 c61 -21 83 -52 66 -94 -7 -17 -26 -40 -43 -52 -26 -19 -42 -21
-116 -19 -47 1 -87 3 -88 5 -1 1 5 26 13 56 17 59 69 120 102 120 10 0 40 -7
66 -16z"/>
<path d="M5598 6668 c-9 -13 -27 -46 -41 -74 -26 -52 -84 -107 -159 -149 -57
-33 -70 -33 -57 1 15 42 70 106 85 100 21 -8 28 14 10 32 -15 15 -20 12 -64
-35 -58 -61 -84 -126 -60 -149 13 -13 20 -12 64 6 27 12 62 32 79 44 53 40 55
40 43 5 -26 -75 34 -149 105 -128 42 12 77 37 77 54 0 13 -7 12 -41 -5 -52
-27 -90 -23 -106 11 -17 35 2 98 62 211 41 77 46 98 24 98 -3 0 -13 -10 -21
-22z"/>
<path d="M7520 6638 c-47 -33 -91 -99 -97 -147 l-6 -41 -59 0 c-79 0 -76 -24
4 -28 l55 -3 6 -49 c3 -27 2 -64 -3 -82 -11 -38 1 -56 21 -32 9 12 14 41 13
90 l-1 72 68 4 c38 2 69 2 69 1 0 -1 -9 -18 -21 -37 -43 -73 -3 -106 87 -71
49 19 60 42 51 102 -9 52 -26 67 -63 53 -16 -6 -67 -14 -113 -17 l-84 -6 6 38
c8 47 51 112 88 131 36 18 68 18 75 -1 8 -19 34 -20 34 -1 0 47 -76 60 -130
24z m154 -214 c15 -40 6 -65 -29 -80 -74 -31 -86 -7 -29 56 40 44 49 48 58 24z"/>
<path d="M3400 6590 c0 -33 11 -38 30 -15 15 18 6 45 -15 45 -10 0 -15 -10
-15 -30z"/>
<path d="M2523 6588 c-11 -13 -29 -38 -39 -56 -10 -18 -24 -30 -30 -28 -20 8
-34 -17 -34 -61 0 -23 -12 -92 -26 -152 -26 -114 -28 -161 -6 -169 17 -5 38
51 46 123 4 33 9 82 12 108 l6 49 22 -21 c31 -29 40 -27 92 21 50 46 84 104
84 143 0 59 -85 88 -127 43z m91 -31 c14 -22 -23 -96 -66 -133 -36 -30 -48
-30 -48 -3 0 15 -5 19 -15 15 -20 -7 -19 -3 6 47 39 77 59 98 87 95 14 -2 30
-11 36 -21z"/>
<path d="M10016 6509 c-35 -75 -54 -104 -78 -119 -17 -10 -35 -17 -40 -14 -13
8 -8 95 7 139 18 50 18 55 1 55 -19 0 -46 -82 -46 -141 0 -31 6 -55 19 -70 16
-20 21 -21 48 -10 56 23 108 90 135 173 19 58 22 78 13 82 -8 3 -29 -31 -59
-95z"/>
<path d="M2760 6576 c-19 -13 -52 -42 -73 -65 -32 -35 -38 -48 -35 -78 4 -49
28 -57 28 -9 0 50 72 126 118 126 33 0 42 16 20 38 -15 15 -16 15 -58 -12z"/>
<path d="M4904 6571 c-54 -33 -85 -102 -51 -114 16 -6 92 17 122 37 35 23 37
20 15 -16 -45 -74 -49 -152 -7 -146 25 3 37 38 13 38 -19 0 -7 44 29 105 35
61 33 88 -8 103 -47 17 -77 15 -113 -7z m84 -23 c-6 -17 -78 -58 -101 -58 -15
0 -16 3 -7 21 19 34 118 68 108 37z"/>
<path d="M8809 6553 c-62 -59 -115 -232 -60 -199 6 4 21 39 33 79 13 44 32 83
49 100 24 24 33 27 68 21 33 -5 41 -3 41 8 0 14 -38 28 -77 28 -7 0 -32 -17
-54 -37z"/>
<path d="M9281 6549 c-12 -19 -21 -38 -21 -42 0 -15 -53 -117 -60 -117 -7 0
-19 27 -36 84 -12 38 -30 30 -27 -12 3 -36 24 -82 47 -101 24 -20 43 1 94 107
31 66 41 97 34 104 -8 8 -17 1 -31 -23z"/>
<path d="M5194 6546 c-12 -10 -23 -11 -31 -5 -8 7 -19 0 -36 -23 -27 -37 -77
-132 -77 -148 0 -26 30 -5 65 45 40 58 103 120 113 111 3 -4 -4 -24 -16 -45
-27 -48 -34 -116 -12 -116 9 0 15 11 16 30 1 17 14 54 29 83 15 29 25 59 21
67 -7 19 -46 19 -72 1z"/>
<path d="M2864 6528 c-4 -6 -2 -14 4 -16 17 -5 62 -43 62 -51 0 -10 -51 -33
-58 -26 -3 2 2 13 11 23 21 23 21 28 2 36 -10 4 -22 -5 -35 -27 -24 -38 -26
-66 -5 -73 21 -8 125 42 125 60 0 19 -66 86 -85 86 -7 0 -17 -5 -21 -12z"/>
<path d="M9459 6517 c-35 -23 -79 -81 -79 -102 0 -7 9 -23 19 -36 16 -20 28
-24 73 -23 30 1 64 7 76 13 18 10 22 9 22 -4 0 -26 19 -16 43 23 30 46 104
115 120 109 19 -6 20 -44 2 -91 -16 -41 -14 -66 3 -66 4 0 17 29 30 63 18 50
20 70 13 90 -13 34 -51 44 -88 24 -15 -9 -36 -18 -45 -21 -9 -3 -29 -28 -43
-57 -18 -34 -30 -48 -36 -42 -7 7 -24 5 -51 -4 -56 -19 -98 -9 -98 23 0 18 5
24 21 24 30 0 98 40 105 62 13 43 -33 51 -87 15z m51 -12 c0 -2 -10 -9 -22
-15 -22 -11 -22 -10 -4 4 21 17 26 19 26 11z"/>
<path d="M7880 6503 c-22 -20 -36 -48 -51 -101 -11 -41 -18 -81 -14 -89 10
-27 25 -2 41 68 20 84 37 109 74 109 34 0 39 14 11 30 -27 14 -27 14 -61 -17z"/>
<path d="M8985 6511 c-58 -36 -90 -92 -79 -138 11 -42 106 -69 155 -43 34 19
22 32 -23 25 -57 -8 -98 7 -98 37 0 19 6 23 33 24 46 1 107 39 107 68 0 47
-43 59 -95 27z m60 -21 c6 -10 -27 -34 -62 -45 -34 -10 -28 12 10 35 36 23 43
24 52 10z"/>
<path d="M3352 6485 c3 -3 -8 -19 -24 -35 -19 -19 -28 -38 -26 -52 4 -29 38
-38 38 -10 0 11 7 36 15 55 18 44 18 47 3 47 -6 0 -9 -2 -6 -5z"/>
<path d="M10630 6350 c0 -18 40 -32 56 -20 7 7 11 16 8 21 -7 12 -64 11 -64
-1z"/>
<path d="M4193 6303 c-16 -6 -17 -40 -2 -45 6 -2 -2 -30 -20 -68 -33 -70 -39
-111 -18 -129 18 -15 28 -3 21 25 -4 15 6 48 26 92 40 88 37 143 -7 125z"/>
<path d="M11783 6042 c-4 -9 -16 -33 -28 -52 -11 -19 -36 -75 -55 -125 -18
-49 -37 -94 -42 -100 -5 -5 -27 -14 -50 -20 -59 -14 -66 -40 -8 -31 38 6 42 5
35 -11 -4 -10 -11 -30 -17 -44 -7 -21 -14 -26 -30 -21 -11 3 -19 1 -17 -4 21
-45 34 -64 43 -64 11 0 50 77 61 123 10 38 25 46 94 53 33 4 61 9 61 11 0 2
-5 13 -10 24 -11 19 -40 27 -40 10 0 -9 -69 -25 -77 -18 -7 8 66 187 93 226
28 42 29 47 9 55 -10 3 -18 -1 -22 -12z"/>
<path d="M12237 6033 c-4 -3 -7 -15 -7 -25 0 -25 -41 -137 -83 -230 l-36 -77
-58 -3 c-43 -2 -58 -7 -58 -18 0 -11 11 -14 49 -11 44 2 48 1 41 -16 -14 -33
-35 -106 -35 -120 0 -7 6 -13 13 -13 12 1 67 113 67 137 0 13 15 18 77 28 58
9 66 1 43 -43 -26 -48 -26 -89 0 -97 31 -10 60 3 132 61 71 57 93 86 84 110
-9 24 -34 15 -45 -17 -11 -31 -32 -52 -104 -101 -65 -45 -73 -34 -31 46 33 62
24 71 -66 70 l-69 -2 13 32 c8 17 25 56 39 86 33 73 68 190 61 201 -6 11 -18
12 -27 2z"/>
<path d="M12710 5989 c0 -44 -9 -68 -56 -156 l-56 -104 -37 2 c-20 2 -42 -1
-49 -5 -20 -12 -3 -26 34 -26 19 0 34 -1 34 -3 0 -2 -18 -38 -40 -81 -41 -79
-47 -101 -31 -111 6 -3 28 32 49 77 53 112 56 115 130 122 l62 6 -23 -38 c-46
-74 -59 -122 -34 -122 7 0 19 16 26 37 7 20 26 57 42 82 16 24 29 54 29 64 0
17 -5 19 -32 13 -65 -13 -118 -19 -118 -12 0 4 22 49 49 99 46 85 55 118 52
185 -1 12 -7 22 -16 22 -11 0 -15 -12 -15 -51z"/>
<path d="M9334 6011 c-17 -10 -41 -32 -52 -48 -23 -33 -72 -153 -92 -225 l-13
-48 -71 -21 c-39 -11 -80 -23 -91 -26 -28 -8 -45 -23 -45 -39 0 -18 29 -18 44
-1 12 15 135 51 144 42 11 -10 -33 -98 -59 -117 -21 -16 -31 -18 -47 -9 -26
14 -38 -2 -16 -23 24 -25 50 -19 92 19 28 25 44 50 57 93 16 55 21 60 55 71
66 19 128 10 90 -14 -18 -11 -70 -109 -70 -132 0 -30 38 -39 78 -19 93 48 101
174 15 207 -13 5 -45 4 -75 -1 -28 -6 -53 -8 -56 -6 -7 8 29 119 59 184 33 68
67 97 113 97 16 0 31 6 34 14 3 8 0 11 -7 7 -6 -4 -11 -2 -11 3 0 17 -42 13
-76 -8z m46 -383 c-1 -36 -12 -55 -50 -81 -51 -35 -53 -16 -5 58 19 30 39 55
45 55 5 0 10 -15 10 -32z"/>
<path d="M12941 5976 c-6 -7 -8 -22 -4 -31 5 -14 3 -16 -8 -10 -12 7 -12 6 -1
-6 11 -12 15 -11 28 5 24 33 10 73 -15 42z"/>
<path d="M11164 5939 c-3 -6 -7 -30 -9 -54 -4 -65 -30 -133 -90 -235 -30 -51
-55 -96 -55 -101 0 -23 38 -4 92 46 67 62 108 74 108 30 0 -31 -83 -98 -88
-71 -2 9 -8 16 -13 16 -6 0 -8 -4 -5 -9 3 -5 -1 -11 -9 -15 -17 -6 -20 -32 -5
-41 14 -9 81 23 114 53 40 39 50 69 31 98 -20 31 -66 32 -107 2 -17 -12 -29
-17 -26 -12 2 5 17 35 32 67 34 70 56 148 56 200 0 36 -12 48 -26 26z"/>
<path d="M7676 5898 c-28 -93 -83 -241 -115 -307 -38 -80 -43 -101 -20 -101 6
0 45 36 88 80 59 61 85 81 107 83 36 2 43 -26 19 -73 -21 -41 -103 -93 -89
-56 9 24 -14 27 -30 4 -19 -27 -21 -55 -3 -61 15 -5 84 28 115 57 71 64 70
166 -1 166 -30 0 -116 -50 -117 -68 -1 -4 -12 -20 -26 -37 l-26 -30 25 51 c34
68 97 250 97 280 0 25 -18 33 -24 12z"/>
<path d="M8007 5893 c-3 -5 -13 -37 -23 -73 -9 -36 -48 -135 -85 -220 -37 -85
-65 -158 -63 -162 9 -13 34 -9 34 6 0 8 23 65 51 127 59 135 85 201 94 249 4
19 12 40 17 47 10 13 3 33 -12 33 -5 0 -11 -3 -13 -7z"/>
<path d="M11970 5846 c0 -15 24 -28 34 -19 13 14 5 33 -14 33 -11 0 -20 -6
-20 -14z"/>
<path d="M7298 5834 c-11 -10 3 -34 19 -34 8 0 13 7 11 17 -3 18 -20 27 -30
17z"/>
<path d="M2857 5703 c-20 -38 -59 -105 -86 -151 l-48 -82 -16 72 c-9 40 -19
90 -22 112 -11 65 -23 90 -39 77 -20 -17 -31 -102 -14 -112 9 -6 10 -9 1 -9
-17 0 -5 -28 16 -35 11 -3 23 -29 35 -75 l18 -70 -27 -65 c-29 -74 -32 -150
-5 -150 11 0 14 9 12 33 -2 18 4 55 13 82 13 38 21 50 37 50 17 0 19 5 13 30
-5 25 7 52 84 182 50 84 91 158 91 163 1 6 -5 11 -12 13 -7 1 -30 -28 -51 -65z
m-200 -85 c-3 -7 -5 -2 -5 12 0 14 2 19 5 13 2 -7 2 -19 0 -25z"/>
<path d="M10658 5757 c-23 -18 -25 -51 -9 -125 13 -57 12 -64 -4 -82 -13 -14
-25 -18 -42 -14 -22 6 -24 4 -21 -17 5 -36 39 -35 78 1 31 29 32 33 25 78 -4
26 -8 67 -9 92 -1 40 1 45 23 48 15 2 28 -3 33 -12 9 -16 38 -22 38 -8 0 4 -7
18 -16 30 -17 25 -68 30 -96 9z"/>
<path d="M3075 5746 c-34 -15 -96 -80 -119 -125 -23 -43 -21 -98 3 -111 37
-19 72 -11 108 25 35 35 36 37 30 97 -5 58 -4 63 21 85 23 20 25 25 12 33 -19
12 -19 12 -55 -4z m-8 -119 c5 -39 2 -49 -21 -72 -36 -36 -70 -31 -74 10 -2
23 7 43 34 79 42 55 54 51 61 -17z"/>
<path d="M5185 5699 c-45 -74 -158 -185 -201 -199 -32 -11 -49 -34 -38 -51 3
-5 10 -9 16 -9 12 0 80 53 148 117 l45 41 -3 -39 c-7 -66 39 -65 115 5 l39 35
-4 -35 c-5 -38 17 -55 43 -34 19 16 19 30 0 30 -19 0 -19 -1 5 60 11 28 20 55
20 60 0 24 -31 5 -87 -54 -33 -35 -70 -69 -83 -76 -22 -12 -22 -11 -16 24 4
20 20 67 36 105 34 80 35 81 16 81 -7 0 -30 -27 -51 -61z"/>
<path d="M5453 5732 c-42 -46 -55 -109 -33 -166 6 -16 6 -27 0 -31 -18 -11
-11 -35 10 -35 25 0 35 36 21 74 -15 39 -14 88 4 112 8 12 11 24 8 28 -3 3 1
6 9 6 9 0 21 6 27 14 9 11 8 15 -4 20 -10 4 -26 -5 -42 -22z"/>
<path d="M6616 5733 c-9 -15 -36 -68 -60 -118 -24 -49 -51 -99 -60 -110 -14
-19 -16 -16 -18 50 -1 39 -2 87 -1 108 1 25 -3 37 -12 37 -21 0 -24 -22 -18
-140 9 -171 34 -162 141 49 34 69 64 116 75 119 23 6 16 26 -10 30 -15 2 -26
-6 -37 -25z"/>
<path d="M8324 5742 c-12 -9 -27 -28 -34 -42 -11 -21 -9 -31 21 -86 28 -53 31
-64 20 -78 -7 -9 -26 -16 -42 -16 -35 0 -48 -19 -24 -37 22 -16 51 -9 83 20
29 27 28 61 -3 116 -14 23 -25 51 -25 60 0 20 30 51 48 51 7 0 12 7 12 15 0
20 -30 19 -56 -3z"/>
<path d="M8396 5743 c-6 -14 -5 -15 5 -6 7 7 10 15 7 18 -3 3 -9 -2 -12 -12z"/>
<path d="M8079 5703 c-86 -80 -114 -182 -63 -222 46 -36 149 -17 197 37 28 31
2 37 -36 8 -38 -29 -84 -41 -120 -32 -18 4 -26 14 -29 37 -4 28 2 36 69 91 69
58 93 93 78 117 -13 22 -47 9 -96 -36z m36 -23 c-21 -22 -44 -40 -50 -40 -11
1 70 80 82 80 4 0 -11 -18 -32 -40z"/>
<path d="M11425 5728 c-64 -34 -81 -72 -50 -114 22 -29 19 -37 -25 -64 -38
-24 -53 -50 -28 -50 18 0 88 51 99 72 8 14 5 26 -11 49 -12 16 -19 36 -16 44
5 14 64 45 109 59 9 3 17 10 17 16 0 17 -53 10 -95 -12z"/>
<path d="M12923 5734 c-4 -11 1 -22 13 -30 38 -26 44 -35 44 -63 0 -42 -56
-75 -85 -51 -18 15 -9 37 17 43 22 6 16 27 -8 27 -18 0 -54 -36 -54 -55 0 -25
38 -55 69 -55 30 0 75 29 91 59 13 25 -4 82 -35 115 -28 30 -43 33 -52 10z"/>
<path d="M5684 5718 c-17 -13 -52 -38 -77 -57 -42 -31 -61 -61 -39 -61 4 0 6
-17 4 -38 -5 -55 23 -77 98 -76 65 1 153 41 125 56 -9 5 -25 3 -42 -5 -69 -35
-153 -28 -153 13 0 12 6 33 14 48 14 27 69 82 83 82 13 1 53 38 53 49 0 18
-34 12 -66 -11z"/>
<path d="M9568 5712 c-38 -20 -53 -37 -82 -92 -20 -37 -33 -70 -29 -74 14 -14
31 -4 38 22 9 37 93 122 122 122 26 0 35 12 27 34 -8 21 -19 19 -76 -12z"/>
<path d="M3262 5692 c-13 -43 -75 -142 -116 -185 -14 -15 -26 -35 -26 -43 0
-28 26 -12 68 43 37 49 42 53 42 30 0 -29 25 -43 49 -26 9 7 37 35 62 62 l47
50 -14 -53 c-12 -47 -12 -57 1 -77 17 -26 55 -31 55 -8 0 8 -7 15 -15 15 -21
0 -19 49 5 112 37 97 19 129 -33 60 -38 -50 -119 -134 -124 -129 -2 3 5 40 17
83 24 92 24 104 7 104 -8 0 -19 -17 -25 -38z"/>
<path d="M4222 5714 c-32 -22 -82 -114 -82 -151 0 -47 30 -61 76 -34 42 25 45
25 38 6 -4 -8 -3 -27 0 -41 5 -19 12 -24 28 -22 25 4 37 28 14 28 -20 0 -20 5
-1 66 8 27 15 57 15 67 0 26 -25 21 -41 -9 -16 -32 -65 -74 -85 -74 -8 0 -14
10 -14 22 0 30 56 115 80 121 22 6 28 37 7 37 -7 0 -23 -7 -35 -16z"/>
<path d="M10953 5708 c-6 -7 -13 -25 -17 -39 -9 -39 -64 -95 -78 -81 -9 9 -7
21 6 48 18 40 14 54 -11 38 -43 -27 -40 -109 4 -120 22 -6 32 -1 64 33 20 22
42 58 48 79 11 40 2 64 -16 42z"/>
<path d="M3947 5677 c-58 -55 -73 -153 -26 -177 43 -23 149 -4 149 27 0 11 -6
13 -22 8 -44 -15 -110 -11 -121 7 -16 24 20 105 55 126 26 15 30 15 57 -1 36
-21 52 -6 25 24 -27 30 -76 25 -117 -14z"/>
<path d="M6738 5672 c-59 -65 -74 -132 -29 -132 10 0 41 15 68 34 l50 34 -13
-38 c-17 -50 -10 -70 27 -70 35 0 77 36 60 53 -7 7 -16 6 -29 -6 -42 -39 -43
-4 -2 70 51 90 35 97 -55 25 -60 -49 -105 -77 -105 -67 0 10 47 80 64 94 8 7
22 11 31 8 19 -8 31 13 14 24 -26 16 -47 9 -81 -29z"/>
<path d="M7093 5675 c-17 -7 -40 -22 -52 -34 -25 -25 -54 -118 -40 -127 14 -9
23 3 43 58 20 54 29 63 81 80 21 7 40 19 43 26 5 16 -34 15 -75 -3z"/>
<path d="M13117 5658 c-13 -18 -34 -50 -46 -71 -20 -33 -21 -38 -6 -43 10 -4
35 12 75 50 32 31 63 56 68 56 6 0 20 -15 31 -33 24 -39 64 -60 95 -51 39 12
116 75 116 95 0 22 -15 25 -27 6 -15 -25 -80 -67 -104 -67 -16 0 -36 14 -61
42 -34 41 -38 42 -66 32 -25 -10 -30 -9 -25 2 10 27 -26 14 -50 -18z"/>
<path d="M7333 5645 c-64 -54 -82 -125 -33 -125 23 0 95 34 105 50 12 19 25
10 25 -18 0 -43 22 -66 54 -58 27 7 44 31 32 44 -4 3 -16 1 -27 -6 -25 -16
-34 3 -25 58 3 21 2 41 -3 44 -5 3 -24 -5 -42 -19 -36 -26 -104 -65 -114 -65
-3 0 1 13 10 29 21 41 67 71 109 71 27 0 34 3 30 15 -12 29 -76 19 -121 -20z"/>
<path d="M4473 5654 c-18 -9 -33 -21 -33 -25 0 -5 -11 -14 -25 -19 -15 -6 -25
-17 -25 -30 0 -11 -4 -20 -9 -20 -5 0 -19 -16 -31 -36 -16 -28 -18 -40 -10
-48 9 -8 16 -4 28 14 45 66 114 140 132 140 30 0 30 -52 -1 -111 -10 -20 -15
-39 -12 -43 17 -16 31 -1 52 57 24 70 21 111 -9 127 -23 12 -19 13 -57 -6z"/>
<path d="M11806 5641 c-20 -37 -20 -61 -2 -61 19 0 34 21 38 54 4 40 -17 44
-36 7z"/>
<path d="M7179 5594 c-18 -40 -27 -73 -24 -85 10 -30 28 -17 37 24 4 21 17 55
27 76 19 37 19 51 -1 51 -5 0 -23 -30 -39 -66z"/>
<path d="M11740 5118 c-172 -8 -317 -23 -400 -41 -48 -11 -57 -17 -73 -48 -21
-44 -56 -164 -92 -319 -15 -63 -31 -119 -35 -124 -23 -23 -24 96 -4 286 8 76
-6 82 -85 33 -74 -46 -94 -67 -89 -96 5 -33 24 -34 31 -2 4 20 20 37 59 60 29
17 54 28 56 24 1 -4 -4 -48 -11 -97 -10 -57 -12 -110 -7 -149 8 -66 35 -129
51 -120 22 14 64 117 86 213 30 129 71 263 87 279 6 7 36 17 66 23 63 12 360
39 475 42 60 2 80 6 80 17 0 23 -35 27 -195 19z"/>
<path d="M8698 5085 c-75 -70 -186 -241 -207 -320 -10 -35 -22 -47 -104 -102
-51 -34 -105 -66 -120 -72 -29 -11 -35 -26 -14 -34 14 -6 78 29 163 89 l61 43
1 -42 c1 -32 8 -48 29 -66 23 -20 34 -23 81 -18 30 3 62 13 71 21 11 10 21 12
31 6 53 -34 220 25 220 77 0 18 -27 16 -34 -3 -9 -23 -91 -56 -134 -52 -34 3
-37 6 -40 36 -4 41 32 98 78 126 68 39 42 -9 -31 -60 -37 -26 -52 -54 -27 -54
14 0 70 42 103 78 29 31 32 54 9 76 -13 14 -19 14 -43 1 -75 -38 -123 -105
-123 -172 0 -19 -3 -32 -6 -29 -3 3 -12 1 -19 -6 -20 -16 -88 -21 -113 -8 -16
8 -20 21 -20 58 0 46 2 50 88 137 89 92 136 168 161 263 20 71 -3 81 -61 27z
m9 -83 c-14 -33 -39 -80 -55 -104 -32 -45 -132 -148 -132 -135 0 42 190 320
207 303 2 -2 -7 -31 -20 -64z"/>
<path d="M9071 5012 c-11 -21 -25 -75 -32 -121 l-13 -83 -58 4 c-51 4 -58 2
-58 -14 0 -15 9 -18 59 -18 l59 0 -5 -82 c-3 -46 -10 -91 -15 -101 -10 -20 -3
-37 16 -37 15 0 26 43 26 104 0 71 11 116 28 116 25 0 102 32 102 41 0 13 -38
11 -77 -3 -18 -6 -35 -9 -39 -6 -9 9 16 148 32 180 8 15 14 34 14 43 0 27 -19
16 -39 -23z"/>
<path d="M4129 4980 c-49 -26 -140 -116 -172 -170 -53 -91 -52 -177 3 -205 65
-34 202 -7 221 43 21 56 -47 102 -151 102 -53 0 -60 -2 -60 -20 0 -11 3 -20 8
-21 4 0 40 -2 81 -5 83 -5 91 -8 91 -34 0 -26 -30 -40 -96 -47 -99 -10 -130
43 -84 145 37 82 205 232 218 194 7 -22 32 -13 32 13 0 21 -5 25 -27 25 -16
-1 -44 -9 -64 -20z"/>
<path d="M6865 4919 c-158 -7 -270 -20 -331 -38 -21 -6 -36 -5 -43 2 -20 20
-39 -12 -46 -81 -16 -159 -83 -401 -106 -386 -13 7 -11 208 2 279 9 49 8 60
-5 73 -14 14 -18 14 -38 -5 -13 -11 -58 -37 -100 -56 -73 -33 -90 -48 -70 -61
4 -3 44 13 87 35 43 21 80 38 81 36 1 -1 -1 -31 -5 -67 -11 -90 2 -266 23
-313 21 -48 48 -47 57 3 4 19 23 76 42 125 31 80 47 146 75 305 6 38 13 48 42
62 46 22 271 47 437 48 145 0 193 10 173 35 -14 16 -16 16 -275 4z"/>
<path d="M11537 4902 c-19 -21 -23 -62 -6 -62 6 0 13 9 16 20 3 11 11 20 19
20 14 0 34 -30 34 -53 0 -21 -68 -84 -117 -108 -23 -11 -43 -25 -43 -29 0 -20
23 -20 54 -1 42 26 43 26 50 -4 9 -35 38 -46 109 -43 59 3 62 4 65 31 3 28
-15 38 -24 12 -7 -19 -94 -21 -112 -3 -19 19 -15 31 24 76 37 44 76 69 115 75
13 2 25 9 27 15 7 22 -27 24 -72 3 -39 -17 -46 -18 -46 -5 0 17 -53 74 -68 74
-5 0 -16 -8 -25 -18z"/>
<path d="M9927 4822 c-45 -74 -119 -158 -189 -214 -26 -21 -30 -29 -21 -39 10
-10 27 0 80 46 37 33 65 55 61 51 -12 -14 11 -46 32 -46 10 0 38 15 62 33 68
52 66 51 55 2 -16 -71 15 -90 104 -65 37 10 67 35 56 46 -3 4 -24 -1 -47 -10
-22 -9 -52 -16 -66 -16 -23 0 -25 3 -19 31 4 17 17 63 30 102 13 39 22 75 19
79 -9 14 -32 -3 -44 -32 -13 -31 -91 -109 -128 -129 -40 -21 -26 29 33 124 30
48 55 93 55 101 0 33 -28 8 -73 -64z"/>
<path d="M10590 4834 c-19 -8 -66 -18 -103 -21 -79 -7 -87 -27 -11 -30 76 -4
222 54 162 64 -7 1 -29 -4 -48 -13z"/>
<path d="M10393 4723 c-7 -2 -13 -10 -13 -16 0 -9 30 -12 102 -10 127 1 118 0
118 18 0 12 -17 15 -97 14 -54 0 -104 -3 -110 -6z"/>
<path d="M6634 4685 c-4 -8 -3 -23 1 -32 6 -17 7 -17 20 0 14 20 36 17 69 -8
19 -14 19 -15 1 -49 -21 -38 -78 -70 -116 -64 -16 2 -24 -2 -24 -12 0 -21 57
-25 94 -5 29 14 32 14 50 -4 21 -21 86 -35 141 -29 19 2 33 7 32 12 -2 5 2 12
9 17 24 14 0 23 -26 9 -27 -15 -109 -8 -132 12 -12 10 -10 15 11 35 14 13 26
32 26 43 0 21 35 50 62 50 11 0 18 8 18 20 0 27 -20 25 -64 -5 l-36 -24 -36
24 c-41 28 -92 33 -100 10z"/>
<path d="M5659 4666 c-2 -3 -30 -6 -62 -8 -56 -3 -90 -19 -68 -32 6 -4 49 -2
97 4 48 6 100 8 115 5 22 -5 29 -3 29 8 0 8 -7 18 -16 21 -18 7 -88 8 -95 2z"/>
<path d="M5590 4570 c-36 -10 -80 -18 -97 -19 -35 -1 -44 -17 -16 -28 9 -3 59
3 112 15 53 12 122 22 154 22 44 0 57 3 57 15 0 21 -124 18 -210 -5z"/>
<path d="M4205 4559 c-181 -4 -402 -12 -490 -18 -88 -6 -205 -11 -260 -12
-144 -1 -190 -9 -190 -34 0 -13 8 -21 23 -23 12 -2 22 1 22 7 0 21 74 24 982
37 246 4 452 11 459 15 7 4 9 14 6 23 -7 18 11 18 -552 5z"/>
<path d="M4730 4484 c-52 -8 -156 -16 -230 -18 l-135 -5 -11 -75 c-13 -83
-111 -386 -125 -386 -13 0 -11 58 6 195 19 154 19 159 -2 152 -83 -25 -158
-58 -158 -69 0 -17 34 -12 98 13 37 15 48 16 44 6 -3 -8 -11 -73 -18 -144 -13
-139 -5 -213 26 -213 34 0 151 289 170 422 l7 46 87 7 c47 4 156 15 241 24
142 15 155 18 155 36 0 26 -30 27 -155 9z"/>
<path d="M3469 4336 c-2 -2 -39 -7 -82 -11 -79 -6 -131 -26 -171 -65 -26 -26
-11 -61 41 -93 21 -14 46 -33 56 -45 18 -19 17 -20 -8 -41 -28 -21 -80 -35
-110 -29 -10 1 -25 17 -34 33 -17 30 -41 44 -41 25 0 -17 27 -65 44 -79 39
-32 165 4 187 53 15 32 1 56 -60 97 -28 19 -51 41 -51 50 0 21 62 49 68 31 6
-19 32 -14 32 7 0 16 10 21 68 28 37 4 93 7 125 7 59 -1 72 8 38 26 -19 10
-93 14 -102 6z"/>
<path d="M4725 4313 c-16 -8 -42 -27 -57 -41 -21 -19 -28 -22 -28 -10 0 23
-33 48 -71 54 -41 6 -64 -7 -55 -31 5 -13 10 -14 19 -6 8 6 25 7 43 2 53 -14
41 -85 -24 -142 l-35 -31 -18 23 c-22 29 -36 18 -23 -19 16 -45 48 -41 104 15
47 48 50 49 67 31 21 -20 116 -41 171 -36 62 5 42 23 -36 31 -98 11 -122 21
-122 51 0 29 50 75 92 83 19 4 28 11 26 21 -4 22 -19 23 -53 5z"/>
<path d="M3755 4265 c-5 -2 -43 -13 -82 -25 -42 -13 -73 -28 -73 -36 0 -21 18
-26 42 -11 13 8 48 17 80 21 73 8 88 14 88 37 0 18 -24 24 -55 14z"/>
<path d="M8427 3573 c6 -195 -5 -366 -47 -699 -32 -257 -36 -319 -20 -329 23
-14 39 17 39 73 0 31 9 129 20 217 20 158 23 204 37 540 8 203 -1 365 -21 365
-12 0 -13 -30 -8 -167z"/>
<path d="M8228 3608 c-3 -40 -14 -113 -26 -163 -49 -211 -82 -533 -82 -816 0
-130 3 -169 15 -185 18 -24 17 -32 15 176 -2 275 32 601 87 838 32 139 36 215
11 220 -14 3 -17 -8 -20 -70z"/>
<path d="M11123 3658 c-4 -13 -7 -90 -5 -172 1 -82 -2 -163 -7 -180 -5 -17
-13 -50 -16 -73 -10 -63 16 -57 39 10 14 43 17 82 16 222 -1 94 -1 179 1 189
6 28 -18 31 -28 4z"/>
<path d="M12430 3648 c-71 -42 -93 -83 -84 -154 7 -60 7 -60 -86 -63 -70 -3
-84 -7 -74 -22 3 -6 40 -10 82 -9 43 1 82 1 88 1 13 -1 34 -45 34 -72 0 -25
-44 -43 -70 -29 -13 7 -21 7 -25 0 -9 -14 4 -32 17 -24 6 4 13 1 17 -5 11 -18
70 -1 88 25 15 23 14 33 -12 97 -6 15 -1 17 44 17 48 0 51 -1 41 -19 -34 -65
9 -98 113 -87 74 9 107 27 107 61 0 27 -45 61 -120 91 -39 16 -69 12 -42 -5 7
-4 -27 -7 -75 -7 l-87 1 -8 39 c-13 60 5 99 61 135 57 37 75 38 95 9 21 -30
40 -12 23 22 -19 38 -61 37 -127 -2z m217 -254 c36 -21 42 -38 16 -48 -30 -12
-128 -17 -142 -8 -19 13 -6 46 24 62 14 7 25 17 25 21 0 10 33 -2 77 -27z"/>
<path d="M5052 3608 c-126 -62 -213 -228 -170 -323 26 -57 112 -71 188 -32 37
18 46 27 48 54 4 41 -33 68 -92 67 -64 -1 -91 -11 -106 -41 l-14 -28 -4 28
c-9 71 61 186 144 238 28 17 37 19 49 9 12 -10 16 -9 21 4 7 18 -1 46 -13 46
-4 0 -28 -10 -51 -22z m34 -290 c10 -16 -30 -46 -72 -54 -34 -6 -99 5 -76 13
6 3 12 13 12 23 0 10 8 21 18 23 36 10 111 7 118 -5z"/>
<path d="M2845 3579 c-11 -16 32 -56 115 -106 112 -68 140 -91 140 -117 0 -35
-63 -90 -154 -135 -88 -42 -122 -71 -112 -96 5 -14 9 -14 33 3 16 11 55 36 88
57 121 78 137 89 156 113 10 14 19 39 19 57 0 40 -35 73 -140 136 -39 23 -83
55 -98 70 -29 32 -37 35 -47 18z"/>
<path d="M10720 3517 c-84 -22 -94 -78 -25 -140 25 -22 45 -46 45 -53 0 -17
-66 -37 -101 -30 -34 7 -47 -10 -25 -32 14 -14 22 -15 63 -4 106 29 118 63 48
132 -49 48 -56 73 -26 90 30 16 101 13 107 -5 4 -8 12 -15 20 -15 17 0 19 36
3 46 -24 15 -76 20 -109 11z"/>
<path d="M11515 3508 c-94 -52 -133 -151 -78 -202 41 -39 194 -50 201 -15 2
11 -14 14 -78 15 -88 1 -120 17 -120 59 0 52 85 134 111 108 17 -17 -5 -41
-58 -65 -41 -18 -52 -31 -35 -42 12 -7 87 29 111 53 26 26 27 55 1 81 -23 23
-27 24 -55 8z"/>
<path d="M12846 3490 c-27 -24 -37 -43 -49 -98 -15 -63 -11 -92 11 -78 5 3 12
24 15 46 6 49 48 107 82 116 16 4 37 -1 60 -15 20 -12 38 -21 41 -21 12 0 1
30 -21 54 -35 38 -93 36 -139 -4z"/>
<path d="M2675 3490 c-11 -5 -46 -17 -77 -25 -36 -10 -58 -22 -58 -31 0 -18
17 -18 70 1 23 8 55 15 71 15 32 0 79 -19 79 -32 0 -4 7 -8 15 -8 23 0 18 24
-12 52 -33 31 -61 40 -88 28z"/>
<path d="M11321 3451 c-11 -21 -25 -59 -32 -85 -6 -25 -15 -46 -19 -46 -4 0
-10 17 -14 38 -6 43 -40 92 -62 92 -19 0 -18 -20 2 -34 9 -7 23 -41 33 -76 10
-40 22 -66 31 -67 18 -3 63 58 79 108 7 22 20 39 31 42 20 5 19 26 -3 55 -16
20 -25 14 -46 -27z"/>
<path d="M9889 3461 c-21 -16 -22 -22 -11 -45 14 -32 32 -34 33 -3 0 21 1 21
10 -3 30 -75 3 -144 -55 -138 -29 3 -31 6 -34 48 -4 59 -16 70 -36 32 -10 -19
-31 -36 -57 -46 -52 -21 -60 -13 -58 64 2 74 1 78 -16 56 -15 -20 -20 -92 -9
-134 9 -33 48 -39 100 -14 33 16 44 18 44 8 0 -38 75 -60 122 -35 44 24 63
140 33 199 -18 35 -34 37 -66 11z"/>
<path d="M9225 3427 c-39 -38 -44 -41 -47 -23 -2 12 -10 21 -18 21 -12 0 -15
-16 -16 -75 -1 -41 -4 -84 -5 -95 -7 -36 25 -22 36 16 13 45 82 142 98 136 25
-8 37 -143 15 -165 -10 -10 -10 -15 2 -22 8 -5 23 -10 33 -10 15 0 17 11 17
86 0 93 -17 146 -52 165 -16 9 -26 3 -63 -34z"/>
<path d="M9464 3433 c-49 -44 -69 -113 -48 -168 10 -24 55 -43 91 -38 45 7 67
34 59 75 -8 39 -58 140 -73 145 -5 2 -18 -5 -29 -14z m50 -78 c14 -31 26 -62
26 -69 0 -26 -66 -36 -88 -14 -19 19 -14 82 9 112 11 14 22 26 24 26 1 0 14
-25 29 -55z"/>
<path d="M10895 3408 c-8 -18 -24 -47 -36 -65 l-20 -32 21 -21 c23 -23 41 -22
107 5 27 11 33 20 33 43 0 23 -10 38 -45 66 l-44 37 -16 -33z m59 -49 c20 -24
15 -32 -31 -47 -41 -13 -48 -3 -26 37 21 36 32 38 57 10z"/>
<path d="M7279 3264 c-58 -107 -106 -160 -186 -201 -29 -15 -53 -31 -53 -35 0
-31 73 1 156 68 35 28 43 31 48 18 10 -26 122 -14 179 19 l46 27 26 -26 c22
-22 31 -25 63 -19 20 4 40 9 44 11 12 7 10 24 -3 24 -5 0 -8 -4 -4 -10 3 -5
-7 -3 -22 5 -15 8 -34 15 -40 15 -18 0 -16 55 2 91 9 16 13 34 10 39 -13 21
-34 8 -59 -35 -39 -66 -127 -125 -188 -125 -22 0 -28 5 -28 21 0 18 47 109 82
160 12 18 5 49 -11 49 -6 0 -34 -43 -62 -96z"/>
<path d="M2600 3313 c-80 -12 -90 -15 -90 -28 0 -20 19 -29 34 -16 7 6 71 14
141 18 88 6 130 12 133 21 3 9 -20 12 -95 11 -54 -1 -109 -3 -123 -6z"/>
<path d="M6640 3270 c-8 -5 -38 -10 -67 -10 -59 0 -111 -16 -97 -30 5 -5 55
-5 119 -1 61 5 116 6 123 3 10 -3 13 2 10 19 -2 19 -10 24 -38 27 -19 1 -42
-2 -50 -8z"/>
<path d="M5074 3179 c-132 -4 -265 -11 -295 -17 -50 -10 -278 -21 -476 -24
-59 -1 -83 -5 -83 -13 0 -7 6 -15 13 -18 7 -3 107 -1 222 4 116 5 257 11 315
14 507 21 775 18 1060 -15 79 -9 106 -1 80 24 -10 10 -72 19 -195 30 -228 20
-341 23 -641 15z"/>
<path d="M6560 3143 c-125 -16 -137 -20 -122 -35 7 -7 37 -7 105 1 53 6 123
11 156 11 64 0 80 13 35 30 -30 12 -37 11 -174 -7z"/>
<path d="M9443 3015 c-32 -49 -170 -163 -211 -174 -39 -11 -72 -37 -72 -58 0
-31 45 -13 130 52 79 60 80 60 58 8 -16 -39 -18 -53 -9 -76 10 -26 14 -28 44
-22 40 9 88 37 150 87 l47 39 10 -26 c14 -37 90 -63 90 -30 0 9 -12 18 -29 21
-37 8 -41 25 -26 100 7 32 10 62 8 67 -10 18 -35 4 -48 -26 -41 -99 -194 -234
-218 -192 -9 17 67 170 104 211 22 23 25 54 7 54 -7 0 -23 -16 -35 -35z"/>
<path d="M4502 2911 c-47 -4 -67 -11 -78 -25 -27 -37 -19 -50 64 -107 50 -35
56 -67 16 -98 -29 -23 -112 -29 -131 -10 -16 16 -28 -8 -13 -26 30 -36 134
-24 176 22 47 50 35 98 -38 144 -26 17 -48 35 -48 40 0 19 31 21 44 4 14 -19
36 -13 36 9 0 18 45 26 142 26 59 0 79 3 76 13 -5 14 -141 18 -246 8z"/>
<path d="M5450 2909 c0 -6 -20 -41 -44 -79 -43 -67 -146 -163 -193 -181 -24
-9 -30 -24 -13 -34 13 -8 40 7 104 60 48 39 55 42 59 24 10 -37 84 -19 170 40
l44 30 -10 -37 c-12 -47 3 -88 38 -104 44 -20 139 22 111 50 -4 3 -16 1 -26
-6 -11 -7 -33 -12 -50 -12 -53 0 -60 49 -19 132 21 42 25 78 8 78 -6 0 -29
-20 -51 -45 -49 -56 -117 -103 -159 -112 -29 -6 -31 -5 -24 18 4 13 25 54 46
90 41 69 48 99 24 99 -8 0 -15 -5 -15 -11z"/>
<path d="M4940 2783 c-33 -6 -53 -24 -42 -35 6 -6 25 -5 48 1 23 6 54 7 74 2
72 -16 118 3 65 27 -25 12 -95 14 -145 5z"/>
<path d="M3946 2363 c-87 -84 -146 -197 -146 -279 0 -23 7 -38 26 -53 31 -25
60 -26 133 -7 88 24 117 68 66 102 -31 20 -135 13 -173 -12 -25 -16 -25 -16
-18 12 15 62 62 141 119 199 36 36 61 55 64 48 8 -23 33 -14 33 12 0 21 -5 25
-28 25 -20 0 -42 -14 -76 -47z m25 -295 c-35 -22 -103 -30 -110 -13 -6 17 42
35 94 35 l50 0 -34 -22z"/>
<path d="M9540 2401 c0 -5 18 -31 41 -57 50 -60 72 -102 94 -177 31 -108 1
-191 -113 -309 l-45 -47 -25 20 c-48 37 -58 15 -15 -32 16 -16 36 -29 46 -29
20 0 95 74 136 135 36 52 66 162 58 212 -17 102 -45 163 -121 257 -28 34 -56
47 -56 27z"/>
<path d="M8227 2351 c-69 -61 -136 -230 -141 -353 -3 -82 23 -194 55 -239 17
-25 77 -69 93 -69 3 0 6 7 6 15 0 8 -4 15 -10 15 -19 0 -68 87 -89 156 -11 39
-21 98 -21 131 0 118 95 332 141 318 15 -5 19 -1 19 19 0 38 -15 40 -53 7z"/>
<path d="M6480 2330 c0 -5 13 -16 29 -24 49 -26 116 -110 135 -170 27 -85 11
-146 -72 -274 -53 -82 -112 -150 -135 -156 -17 -4 -18 -7 -7 -21 32 -38 58
-14 162 150 74 117 91 160 91 235 1 55 -4 74 -33 129 -22 41 -52 78 -83 103
-46 36 -87 49 -87 28z"/>
<path d="M8656 2270 c-16 -5 -61 -12 -100 -16 -87 -8 -110 -21 -123 -72 -14
-53 2 -88 61 -131 25 -19 46 -38 46 -42 0 -23 -161 -41 -175 -19 -9 15 -25 12
-25 -5 0 -8 11 -22 25 -31 21 -14 34 -15 92 -4 77 13 113 32 113 59 0 11 -24
40 -55 66 -43 37 -55 54 -55 76 0 35 31 69 63 69 57 0 237 36 237 47 0 15 -59
16 -104 3z"/>
<path d="M5000 2203 c-87 -99 -154 -345 -130 -475 20 -102 96 -180 178 -182
45 -1 72 16 35 22 -66 12 -158 80 -174 130 -18 56 -6 213 25 307 33 102 84
190 111 190 13 0 20 7 20 20 0 33 -30 28 -65 -12z"/>
<path d="M9272 2178 c-11 -24 -32 -55 -46 -70 -32 -34 -104 -83 -133 -92 -27
-8 -30 -24 -7 -33 9 -3 39 11 75 35 33 23 57 37 54 31 -11 -17 4 -58 26 -69
24 -14 114 10 150 39 23 18 23 18 42 -5 26 -34 35 -30 34 14 -1 20 2 49 7 64
14 48 -19 47 -67 0 -41 -40 -100 -72 -133 -72 -13 0 -15 6 -10 33 3 17 15 44
26 59 32 43 42 78 29 94 -18 22 -27 17 -47 -28z"/>
<path d="M7737 2113 c-25 -38 -71 -94 -101 -126 -31 -32 -56 -62 -56 -67 0
-20 25 -9 60 25 32 32 38 34 50 20 18 -21 43 -19 100 10 l49 25 3 -33 c3 -30
5 -32 40 -31 43 1 69 19 61 40 -4 11 -9 12 -16 5 -6 -6 -20 -11 -30 -11 -14 0
-17 5 -13 17 14 36 18 100 7 107 -6 4 -31 -10 -55 -31 -49 -44 -93 -69 -102
-60 -6 6 8 31 60 106 28 41 29 71 2 71 -8 0 -35 -30 -59 -67z"/>
<path d="M7040 2150 c-30 -10 -65 -19 -77 -19 -31 -1 -30 -31 1 -31 13 0 43 7
67 16 24 8 62 17 84 18 27 2 40 7 40 17 0 21 -51 20 -115 -1z"/>
<path d="M5405 2120 c-55 -10 -107 -19 -116 -19 -17 -1 -52 -44 -63 -78 -5
-16 4 -34 39 -77 25 -31 45 -60 45 -65 0 -19 -20 -21 -54 -7 -33 14 -46 12
-46 -6 0 -10 62 -38 84 -38 22 0 46 29 46 56 0 15 -16 42 -40 68 -22 24 -40
50 -40 59 0 19 29 37 59 37 12 0 21 6 21 13 0 16 101 37 174 37 34 0 46 4 46
15 0 8 -6 15 -14 15 -8 0 -20 2 -28 4 -7 2 -58 -4 -113 -14z"/>
<path d="M8884 2110 c-113 -17 -94 -40 29 -34 82 5 120 15 106 28 -10 11 -87
14 -135 6z"/>
<path d="M6220 2091 c0 -13 -53 -77 -131 -158 -38 -40 -69 -77 -69 -83 0 -23
28 -7 72 42 l47 53 -6 -47 c-11 -89 31 -101 117 -34 l56 44 11 -29 c12 -32 37
-38 69 -15 17 13 17 15 3 21 -9 3 -22 5 -30 3 -10 -2 -13 6 -11 32 7 98 7 105
-8 108 -10 2 -23 -11 -34 -35 -34 -71 -105 -143 -142 -143 -15 0 7 76 45 150
45 88 48 100 26 100 -8 0 -15 -4 -15 -9z"/>
<path d="M7060 2060 c-69 -9 -140 -34 -140 -50 0 -14 16 -12 74 5 27 8 65 15
85 15 51 0 81 10 81 26 0 15 -3 15 -100 4z"/>
<path d="M5652 1974 c3 -14 20 -17 111 -18 60 0 111 2 114 7 9 15 -51 27 -138
27 -78 0 -90 -2 -87 -16z"/>
<path d="M4059 1934 c-310 -25 -573 -35 -609 -24 -50 14 -90 13 -90 -4 0 -8
10 -16 23 -19 83 -21 168 -19 582 10 147 11 479 10 534 -1 34 -6 42 -5 39 5
-13 38 -224 53 -479 33z"/>
<path d="M3785 1713 c-11 -2 -36 -10 -55 -18 -19 -8 -60 -21 -90 -29 -46 -13
-58 -21 -72 -51 -26 -53 -22 -71 22 -106 45 -37 49 -55 19 -93 -16 -21 -29
-26 -63 -26 -45 0 -66 13 -66 42 0 10 -7 18 -15 18 -26 0 -17 -44 14 -75 26
-24 35 -27 73 -22 53 7 108 61 108 104 0 34 -6 43 -47 72 -18 12 -33 28 -33
35 0 20 47 59 55 47 9 -15 28 -2 21 15 -3 9 6 15 32 19 20 4 52 11 70 17 18 5
55 10 83 11 36 2 53 7 60 20 8 14 6 17 -13 15 -13 -1 -36 1 -53 4 -16 3 -39 4
-50 1z"/>
<path d="M4330 1641 c0 -20 -49 -88 -134 -185 -39 -45 -47 -59 -37 -69 10 -9
18 -5 39 22 15 19 37 46 50 60 21 24 23 24 17 5 -8 -30 4 -54 27 -54 10 0 42
18 71 39 51 40 66 40 67 0 0 -9 9 -24 20 -34 16 -15 22 -16 35 -5 14 12 14 15
0 37 -14 21 -21 90 -13 138 6 40 -28 26 -61 -24 -50 -78 -111 -133 -111 -102
0 6 16 44 35 87 40 88 43 104 15 104 -13 0 -20 -7 -20 -19z"/>
<path d="M3979 1590 c-7 -5 -39 -12 -71 -15 -41 -5 -58 -11 -58 -22 0 -12 14
-13 83 -8 100 8 108 10 101 29 -7 17 -37 26 -55 16z"/>
<path d="M10368 1538 c-21 -11 -38 -24 -38 -28 0 -18 21 -20 50 -5 33 17 70
12 70 -9 0 -36 -24 -77 -54 -91 -43 -21 -136 -103 -136 -121 0 -22 28 -29 48
-11 21 18 77 47 92 47 5 0 10 -15 10 -33 0 -40 15 -57 51 -57 49 0 143 49 126
66 -4 4 -77 -9 -119 -22 -15 -4 -18 1 -18 35 0 22 -6 46 -14 53 -12 11 -9 17
16 38 29 25 47 75 48 133 0 26 -2 27 -47 26 -28 0 -64 -9 -85 -21z"/>
<path d="M8749 1396 c-2 -3 -44 -16 -92 -30 -69 -20 -92 -23 -106 -14 -15 9
-25 7 -52 -8 -51 -30 -50 -63 5 -173 25 -50 46 -93 46 -96 0 -14 -90 -3 -124
16 -40 21 -52 20 -42 -6 9 -25 72 -46 128 -43 79 5 82 19 23 137 -27 55 -46
103 -43 106 3 3 56 19 117 35 62 16 118 33 124 37 6 4 27 9 46 12 47 8 53 31
9 31 -19 0 -37 -2 -39 -4z"/>
<path d="M7183 1362 c-80 -44 -183 -216 -183 -303 0 -37 47 -89 81 -89 74 0
146 50 135 94 -14 56 -57 69 -136 41 l-42 -15 6 26 c22 88 126 224 171 224 31
0 40 16 17 29 -14 7 -27 6 -49 -7z m-112 -322 c7 0 17 7 23 15 16 22 69 24 74
3 3 -18 -16 -31 -60 -42 -31 -7 -68 21 -67 52 0 13 2 12 9 -5 5 -13 15 -23 21
-23z"/>
<path d="M8896 1204 c-19 -42 -52 -90 -92 -135 -60 -65 -77 -100 -54 -114 6
-3 14 4 19 17 12 31 81 85 81 64 0 -8 5 -18 10 -21 13 -8 94 32 117 57 25 27
32 22 31 -24 -1 -65 53 -90 103 -49 31 25 18 37 -20 21 -52 -21 -62 2 -40 98
22 94 -8 104 -61 21 -27 -41 -82 -89 -103 -89 -3 0 12 43 34 96 22 53 38 103
35 110 -11 30 -33 11 -60 -52z"/>
<path d="M10062 1228 c-6 -7 -20 -39 -32 -71 -21 -55 -54 -91 -160 -176 -22
-17 -23 -20 -8 -26 12 -5 33 7 68 36 37 31 53 40 62 31 13 -13 72 14 131 60
l37 30 0 -44 c0 -57 12 -69 58 -56 21 6 43 15 50 20 20 17 14 31 -10 24 -13
-3 -34 -9 -47 -13 l-24 -6 7 82 c6 73 5 81 -11 81 -10 0 -31 -21 -48 -47 -26
-42 -92 -99 -102 -90 -2 2 10 30 27 63 16 32 31 70 32 83 3 27 -14 38 -30 19z"/>
<path d="M7690 1223 c-67 -11 -100 -25 -100 -39 0 -13 6 -15 27 -9 86 21 135
26 149 14 12 -10 17 -10 27 0 9 10 8 15 -7 27 -19 14 -46 16 -96 7z"/>
<path d="M9575 1189 c-28 -13 -64 -19 -122 -19 -67 0 -83 -3 -83 -15 0 -12 15
-15 78 -14 142 1 215 22 182 53 -13 11 -21 11 -55 -5z"/>
<path d="M7720 1120 c-14 -4 -42 -8 -62 -9 -39 -1 -57 -16 -40 -33 13 -13 184
23 190 40 4 14 -48 15 -88 2z"/>
</g>
</svg>
