<?xml version="1.0" standalone="no"?>
<!DOCTYPE svg PUBLIC "-//W3C//DTD SVG 20010904//EN"
 "http://www.w3.org/TR/2001/REC-SVG-20010904/DTD/svg10.dtd">
<svg version="1.0" xmlns="http://www.w3.org/2000/svg"
 width="1617.000000pt" height="1213.000000pt" viewBox="0 0 1617.000000 1213.000000"
 preserveAspectRatio="xMidYMid meet">

<g transform="translate(0.000000,1213.000000) scale(0.100000,-0.100000)"
fill="#000000" stroke="none">
<path d="M15189 11633 c-6 -15 -18 -44 -26 -63 -26 -59 -73 -203 -73 -222 0
-29 29 -21 36 10 15 65 34 124 62 188 17 38 32 78 34 88 5 31 -21 30 -33 -1z"/>
<path d="M13730 11628 c-21 -50 -83 -217 -101 -273 -20 -63 -18 -105 5 -105
10 0 23 35 40 108 24 98 64 213 80 229 10 10 7 63 -4 63 -6 0 -15 -10 -20 -22z"/>
<path d="M14857 11643 c-2 -5 -10 -24 -16 -44 -10 -31 -15 -35 -37 -31 -15 3
-29 1 -33 -5 -3 -5 -23 -19 -43 -32 -77 -46 -99 -111 -57 -165 l21 -27 -37
-62 c-25 -42 -34 -66 -28 -76 14 -22 25 -15 38 22 6 19 22 51 34 71 21 33 27
36 67 36 92 0 162 64 151 137 -7 42 -23 63 -48 63 -22 0 -24 11 -7 43 26 50
28 58 23 67 -7 12 -22 13 -28 3z m-103 -197 c-37 -63 -49 -75 -60 -65 -37 31
-1 108 61 130 19 7 35 18 36 24 0 6 2 5 5 -1 3 -7 -16 -46 -42 -88z m130 22
c19 -53 -46 -113 -113 -106 l-29 3 40 68 c36 59 44 68 67 65 17 -2 29 -12 35
-30z"/>
<path d="M13204 11614 c-50 -34 -47 -31 -41 -49 5 -12 14 -9 51 17 40 28 49
30 71 20 47 -22 33 -50 -76 -153 -137 -129 -132 -149 28 -134 49 4 73 11 73
19 0 15 -75 28 -108 19 -12 -3 -22 -3 -22 0 0 2 34 38 76 78 114 111 126 150
61 190 -43 25 -67 24 -113 -7z"/>
<path d="M15395 11620 c-60 -9 -116 -19 -122 -23 -20 -12 -16 -40 3 -33 31 12
195 37 221 34 25 -3 25 -3 -22 -60 -43 -52 -52 -58 -96 -64 -34 -5 -49 -11
-49 -21 0 -12 10 -14 40 -11 22 2 40 3 40 3 0 -1 -11 -35 -25 -75 -14 -41 -21
-78 -17 -82 13 -13 27 10 52 85 25 76 30 80 123 91 37 5 60 13 64 22 8 22 2
24 -47 13 -77 -17 -85 -11 -45 40 41 51 46 87 13 93 -13 2 -72 -4 -133 -12z"/>
<path d="M13936 11579 c-94 -86 -149 -232 -107 -282 20 -25 81 -22 121 6 43
29 54 48 46 80 -8 35 -44 43 -101 24 -25 -8 -45 -12 -45 -10 0 2 12 27 26 55
27 53 80 113 127 143 32 20 35 35 8 35 -11 0 -44 -23 -75 -51z m32 -210 c4
-21 -56 -59 -91 -59 -40 0 -42 35 -3 53 67 31 89 32 94 6z"/>
<path d="M13007 11603 c-4 -3 -7 -13 -7 -20 0 -8 -21 -57 -46 -110 -25 -52
-43 -102 -40 -109 8 -21 36 -17 36 5 0 17 60 158 90 212 13 24 -14 42 -33 22z"/>
<path d="M14389 11585 c-33 -18 -46 -45 -21 -45 9 0 26 7 36 15 22 17 86 20
86 5 0 -5 -43 -52 -95 -104 -52 -52 -95 -101 -95 -110 0 -8 10 -22 22 -30 29
-20 156 -22 183 -3 24 18 11 41 -15 27 -21 -11 -119 -14 -145 -4 -12 5 6 29
80 105 121 124 127 160 27 159 -20 -1 -49 -7 -63 -15z"/>
<path d="M13472 11372 c-35 -10 -31 -27 6 -30 27 -3 32 0 32 17 0 22 -2 23
-38 13z"/>
<path d="M14054 11316 c-15 -12 -16 -17 -7 -27 10 -10 17 -9 33 6 32 29 10 47
-26 21z"/>
<path d="M2731 11294 c-11 -14 -21 -30 -21 -34 0 -4 -20 -15 -45 -24 -77 -30
-104 -90 -71 -155 8 -15 44 -54 81 -85 54 -48 66 -63 63 -85 -2 -21 -13 -30
-58 -48 -30 -12 -72 -25 -94 -28 -35 -7 -38 -6 -32 13 9 27 -6 35 -32 16 -27
-19 -28 -40 -3 -54 29 -15 61 -12 135 10 81 25 119 55 119 95 0 23 -16 43 -75
99 -42 39 -79 81 -83 94 -11 36 3 70 35 87 39 20 42 19 62 -15 19 -33 42 -38
76 -14 40 27 24 94 -22 94 -20 0 -20 0 0 14 17 14 18 16 3 31 -15 15 -18 15
-38 -11z m49 -83 c0 -23 -23 -34 -39 -18 -19 19 -12 37 14 37 18 0 25 -5 25
-19z"/>
<path d="M15409 11291 c-29 -24 -18 -38 16 -23 57 26 100 11 202 -70 77 -61
98 -108 90 -199 -8 -87 -45 -155 -126 -232 -58 -54 -81 -69 -156 -96 -48 -17
-128 -38 -178 -47 -88 -16 -94 -15 -147 3 -43 15 -62 29 -85 62 -28 40 -30 49
-30 129 1 75 5 94 29 140 75 145 254 262 400 262 63 0 106 -25 141 -80 37 -59
62 -52 31 9 -19 37 -80 89 -112 97 -53 13 -160 -2 -226 -33 -62 -29 -160 -102
-205 -152 -42 -47 -84 -145 -90 -209 -17 -189 94 -292 284 -262 143 23 276 75
350 139 135 115 190 284 131 401 -24 47 -113 126 -180 161 -48 25 -109 25
-139 0z"/>
<path d="M3237 11193 c-3 -4 -10 -33 -15 -63 -10 -56 0 -339 13 -360 12 -20
34 -11 29 13 -12 56 -19 296 -11 345 6 35 6 57 -1 64 -5 5 -12 6 -15 1z"/>
<path d="M5026 11178 c4 -13 8 -97 9 -188 0 -118 4 -172 14 -189 19 -35 34
-13 23 36 -5 22 -7 96 -4 165 5 133 -6 198 -35 198 -12 0 -13 -5 -7 -22z"/>
<path d="M4635 11163 c-3 -16 -13 -57 -23 -93 -23 -89 -24 -273 -1 -278 14 -2
15 8 12 75 -4 59 2 107 21 196 31 140 30 127 11 127 -8 0 -17 -12 -20 -27z"/>
<path d="M15435 11024 c-36 -74 -48 -107 -49 -147 -1 -40 3 -52 15 -55 14 -2
17 6 16 47 -1 40 8 66 46 139 50 97 55 112 34 112 -8 0 -35 -43 -62 -96z"/>
<path d="M15277 11069 c-17 -26 -77 -210 -77 -234 0 -8 6 -15 13 -15 15 0 98
251 87 264 -5 4 -15 -2 -23 -15z"/>
<path d="M3626 11039 c-64 -50 -84 -147 -42 -196 21 -24 31 -28 71 -26 25 1
52 6 58 11 7 5 28 15 49 21 33 11 56 36 44 49 -3 2 -29 -6 -58 -20 -80 -37
-114 -42 -139 -17 -14 14 -19 30 -17 52 3 29 6 32 39 32 39 1 86 26 96 52 7
17 -38 63 -61 63 -7 0 -25 -9 -40 -21z m64 -33 c0 -15 -21 -26 -51 -26 -22 0
-24 11 -7 28 17 17 58 15 58 -2z"/>
<path d="M2950 10982 c0 -11 -11 -24 -25 -30 -28 -13 -34 -52 -10 -72 18 -15
96 -15 124 -1 26 14 19 33 -25 66 -19 14 -34 33 -34 41 0 7 -7 14 -15 14 -8 0
-15 -8 -15 -18z m47 -62 l26 -20 -47 0 c-48 0 -59 11 -28 29 22 14 20 14 49
-9z"/>
<path d="M3305 10989 c-4 -5 6 -29 22 -51 15 -23 38 -60 51 -82 45 -81 72 -85
93 -17 18 60 -14 187 -37 150 -3 -6 -1 -34 5 -63 9 -34 9 -59 3 -76 l-9 -25
-21 35 c-55 91 -88 139 -94 140 -4 0 -10 -5 -13 -11z"/>
<path d="M4785 10922 c-22 -5 -36 -22 -29 -34 9 -13 41 -9 54 7 16 19 3 33
-25 27z"/>
<path d="M2603 10393 c-7 -3 -13 -12 -13 -22 0 -13 9 -17 34 -17 44 0 142 -72
162 -120 16 -39 18 -104 4 -155 -21 -75 -148 -243 -176 -232 -10 4 -14 -2 -14
-21 0 -38 20 -32 72 22 168 173 207 355 96 458 -62 58 -136 97 -165 87z"/>
<path d="M3570 10309 c-19 -5 -62 -8 -95 -7 -50 3 -60 0 -63 -14 -3 -16 5 -18
62 -18 36 0 88 5 116 11 75 16 79 7 13 -33 -65 -40 -98 -72 -89 -86 3 -5 31
-12 62 -15 98 -10 132 -72 81 -148 -42 -63 -156 -66 -167 -4 -7 37 -26 43 -33
10 -3 -18 2 -35 17 -52 30 -34 114 -44 161 -19 57 31 93 117 71 170 -17 41
-36 55 -93 70 l-48 13 62 39 c64 40 86 70 62 85 -17 11 -73 10 -119 -2z"/>
<path d="M4375 10278 c-3 -13 -6 -57 -7 -98 l-3 -75 -70 -1 c-52 -1 -70 -5
-70 -15 0 -11 18 -14 75 -14 l75 0 5 -44 c7 -64 30 -66 30 -3 0 45 2 50 25 56
14 4 30 4 35 1 13 -8 52 14 45 25 -3 5 -29 8 -58 7 l-52 -1 -3 68 c-2 46 1 72
9 77 16 9 4 39 -15 39 -9 0 -18 -10 -21 -22z"/>
<path d="M7005 10254 c-22 -26 -73 -70 -112 -100 -107 -80 -101 -91 40 -75 56
6 67 5 62 -7 -10 -27 -17 -121 -11 -146 3 -14 13 -26 21 -26 18 0 32 23 17 28
-15 5 -15 46 -1 113 l11 52 54 -6 c41 -4 54 -2 54 8 0 15 -31 25 -77 25 l-33
0 0 60 c0 41 4 60 13 60 13 0 38 46 29 55 -12 12 -29 2 -67 -41z m-9 -131 c-3
-3 -29 -8 -58 -10 -46 -3 -50 -2 -34 9 11 7 36 27 55 45 l36 32 3 -36 c2 -19
1 -37 -2 -40z"/>
<path d="M7800 10261 c-41 -21 -76 -45 -78 -54 -4 -18 23 -24 32 -8 4 5 36 23
73 40 56 27 69 30 80 18 10 -10 11 -20 4 -40 -16 -41 -111 -167 -127 -167 -4
0 -29 -14 -56 -31 -39 -25 -48 -36 -48 -59 0 -45 16 -44 68 4 27 26 54 46 60
46 5 0 15 -13 20 -29 7 -20 21 -32 44 -40 69 -23 178 21 178 71 0 16 -6 15
-53 -12 -62 -35 -121 -40 -135 -12 -26 51 -23 68 28 138 58 79 69 114 46 149
-22 34 -48 31 -136 -14z"/>
<path d="M4783 10265 c-28 -14 -58 -34 -68 -46 -18 -19 -18 -21 -2 -37 17 -16
18 -16 23 5 8 28 110 81 125 66 23 -23 -70 -178 -144 -243 -48 -42 -63 -68
-47 -84 9 -8 22 0 52 34 29 32 42 41 46 31 3 -8 16 -25 28 -38 22 -21 32 -24
96 -21 55 2 73 6 73 17 0 11 -14 14 -65 13 -71 -3 -77 0 -102 39 -17 26 -16
28 23 83 43 60 78 131 79 158 0 22 -27 48 -49 48 -9 0 -40 -11 -68 -25z"/>
<path d="M5915 10259 c-44 -10 -108 -17 -142 -16 -49 2 -67 -2 -90 -19 -46
-34 -38 -64 26 -96 86 -44 101 -56 101 -83 0 -54 -149 -90 -178 -44 -9 14 -17
18 -24 11 -14 -14 17 -59 47 -66 30 -8 81 2 126 25 98 49 81 119 -43 176 -32
14 -58 30 -58 34 0 17 41 29 99 29 54 0 172 19 212 35 14 5 23 37 10 34 -3 -1
-42 -10 -86 -20z"/>
<path d="M7426 10228 c-3 -13 -6 -45 -6 -71 l0 -48 -60 2 c-33 1 -63 0 -66 -4
-15 -15 12 -27 62 -27 l55 0 -3 -47 c-4 -58 14 -69 26 -16 4 21 10 44 12 51 2
8 27 12 78 12 65 0 99 10 83 26 -2 3 -39 5 -82 6 l-78 2 6 68 c5 53 3 68 -7
68 -8 0 -16 -10 -20 -22z"/>
<path d="M6365 10169 c-27 -4 -69 -5 -92 -2 -39 5 -43 3 -43 -16 0 -21 3 -21
107 -16 108 6 142 17 113 35 -8 5 -19 9 -25 9 -5 -1 -32 -5 -60 -10z"/>
<path d="M2409 10131 c-42 -41 -52 -88 -25 -110 16 -14 38 -5 92 35 l30 24 -4
-30 c-8 -56 34 -116 68 -95 15 9 12 25 -5 25 -27 0 -38 42 -26 99 15 71 15 74
-13 67 -15 -4 -28 0 -36 9 -20 24 -39 18 -81 -24z m70 -10 c9 -16 4 -23 -27
-45 -44 -30 -52 -32 -52 -10 0 14 51 74 64 74 3 0 10 -8 15 -19z"/>
<path d="M3730 10151 c0 -15 7 -19 35 -18 48 1 71 -22 55 -54 -15 -28 -46 -56
-78 -70 -13 -5 -22 -15 -19 -22 7 -23 35 -18 69 12 l34 29 16 -29 c11 -19 25
-29 40 -29 32 0 96 19 103 30 13 22 -7 27 -51 12 -41 -13 -47 -13 -61 1 -15
15 -15 19 1 55 10 21 29 52 43 68 22 26 23 29 7 33 -11 2 -27 -8 -41 -25 -20
-26 -24 -27 -35 -12 -15 20 -59 38 -94 38 -17 0 -24 -6 -24 -19z"/>
<path d="M5416 10122 c-2 -2 -47 -4 -100 -4 -97 0 -117 -6 -92 -27 9 -7 45
-10 104 -7 88 5 132 17 132 36 0 8 -37 10 -44 2z"/>
<path d="M6425 10073 c-75 -4 -184 -24 -191 -34 -13 -21 9 -26 63 -13 32 8 84
14 115 14 31 0 63 3 72 6 19 7 22 35 4 32 -7 -1 -35 -3 -63 -5z"/>
<path d="M5829 9341 c-26 -27 -62 -77 -78 -110 -30 -58 -54 -161 -42 -179 14
-20 74 -34 121 -29 101 12 163 68 108 98 -26 14 -146 6 -178 -11 -21 -11 -22
-10 -15 22 13 58 55 134 97 177 34 34 43 39 50 26 15 -26 29 -16 26 17 -5 51
-32 48 -89 -11z m89 -253 c-6 -18 -108 -43 -141 -34 -16 3 -25 11 -22 16 16
26 171 42 163 18z"/>
<path d="M3699 9356 c-2 -3 -49 -6 -104 -9 -87 -3 -100 -6 -104 -22 -3 -17 4
-18 85 -12 72 5 85 4 70 -6 -91 -57 -98 -97 -16 -97 41 0 56 -5 77 -26 21 -22
25 -32 20 -66 -9 -70 -78 -112 -151 -94 -23 6 -24 9 -14 26 17 27 2 37 -22 15
-45 -41 -15 -75 67 -75 89 0 153 58 153 138 0 68 -43 112 -113 112 l-32 1 29
23 c16 13 50 34 77 47 57 26 65 49 16 49 -19 0 -36 -2 -38 -4z"/>
<path d="M4715 9341 c-25 -4 -41 -12 -43 -22 -3 -18 28 -35 37 -20 9 14 97 24
116 14 14 -8 9 -17 -36 -56 l-53 -46 28 -11 c15 -5 35 -10 45 -10 23 0 51 -31
51 -57 0 -33 -55 -73 -101 -73 -33 0 -42 5 -61 35 -25 38 -26 39 -48 25 -12
-8 -8 -16 25 -50 35 -36 44 -40 87 -40 41 0 54 5 87 35 21 19 41 46 43 60 7
36 -26 84 -63 92 l-30 6 35 36 c42 43 44 54 14 75 -23 16 -61 18 -133 7z"/>
<path d="M5283 9243 c-18 -2 -33 -10 -33 -17 0 -10 23 -13 95 -12 79 1 95 4
93 16 -3 16 -84 22 -155 13z"/>
<path d="M3800 9201 c0 -14 10 -20 41 -24 23 -3 46 -10 52 -16 16 -16 -11 -59
-58 -93 -22 -16 -40 -34 -40 -40 0 -27 26 -15 79 34 80 77 75 121 -19 147 -53
14 -55 14 -55 -8z"/>
<path d="M3975 9174 c-34 -37 -60 -109 -49 -135 15 -33 81 -57 132 -46 28 5
42 13 42 24 0 12 -8 14 -44 9 -56 -9 -96 8 -96 41 0 28 22 74 44 92 18 15 21
41 6 41 -6 0 -22 -12 -35 -26z"/>
<path d="M5261 9155 c-106 -26 -90 -52 18 -30 64 14 75 14 101 0 36 -19 40
-19 40 -1 0 22 -40 46 -75 45 -16 -1 -54 -7 -84 -14z"/>
<path d="M4263 9137 c-9 -15 19 -37 41 -32 19 4 121 13 169 14 9 1 17 8 17 16
0 12 -19 14 -111 12 -61 -1 -113 -6 -116 -10z"/>
<path d="M4701 8896 c-47 -12 -56 -22 -41 -46 8 -12 11 -12 28 3 17 16 72 24
72 11 0 -3 -11 -20 -25 -36 -31 -36 -29 -49 11 -61 44 -15 84 -46 84 -66 0
-37 -103 -100 -163 -101 -39 0 -68 17 -60 36 4 12 1 15 -13 12 -14 -2 -19 -12
-19 -33 0 -23 6 -31 25 -36 104 -29 260 43 260 121 0 35 -37 76 -77 86 -13 4
-22 9 -21 13 2 3 12 23 23 44 19 38 19 39 0 53 -22 16 -25 16 -84 0z"/>
<path d="M5807 8885 c-57 -16 -61 -19 -53 -41 4 -11 10 -13 19 -6 21 17 120
34 145 25 23 -9 23 -10 -23 -61 -48 -53 -51 -72 -10 -72 36 0 77 -19 73 -33
-11 -31 -113 -58 -164 -42 -15 5 -23 2 -27 -9 -16 -41 86 -43 171 -3 74 34 75
86 2 108 l-40 12 35 39 c19 21 35 47 35 58 0 39 -73 50 -163 25z"/>
<path d="M4311 8828 c1 -13 -4 -42 -11 -65 -13 -42 -18 -46 -69 -47 -39 -1
-36 -24 3 -32 31 -5 36 -10 36 -35 0 -16 5 -29 10 -29 11 0 15 8 24 50 4 19
16 28 45 38 23 6 47 12 55 12 9 0 14 12 14 36 0 27 -3 34 -15 30 -8 -3 -19 -6
-24 -6 -5 0 -9 -9 -9 -20 0 -11 -4 -20 -9 -20 -5 0 -16 -3 -25 -6 -14 -5 -14
-1 1 39 18 48 13 77 -12 77 -11 0 -16 -8 -14 -22z"/>
<path d="M5451 8715 c-24 -56 -37 -64 -71 -43 -10 7 -22 9 -26 6 -13 -14 6
-39 36 -45 22 -4 29 -10 26 -22 -2 -9 -7 -30 -11 -47 l-6 -31 -252 -11 c-139
-7 -463 -17 -722 -22 -258 -6 -553 -15 -655 -20 -272 -14 -340 -13 -340 5 0
11 -12 15 -49 15 -27 0 -56 -3 -65 -6 -21 -8 -20 -30 2 -39 36 -15 210 -17
454 -6 689 31 2095 45 2924 29 320 -6 384 -5 400 7 13 9 16 17 9 24 -7 7 -297
13 -838 17 l-827 7 0 38 c0 47 21 69 66 69 43 0 83 18 64 30 -6 4 -32 5 -56 2
-49 -5 -52 0 -26 43 10 17 17 36 14 43 -8 26 -28 10 -51 -43z"/>
<path d="M5398 8073 c-18 -4 -108 -117 -108 -135 0 -20 21 -48 37 -48 9 0 40
13 68 29 l52 30 -24 -59 c-13 -33 -28 -84 -35 -114 -13 -68 -3 -146 19 -146
13 0 14 8 9 50 -9 64 15 161 60 252 31 62 42 98 29 98 -3 0 -26 -16 -51 -36
-26 -19 -64 -44 -86 -55 -37 -19 -38 -19 -38 0 0 10 18 38 39 62 36 41 41 43
61 31 33 -20 48 0 21 27 -21 21 -23 22 -53 14z"/>
<path d="M3675 8001 c-56 -12 -81 -22 -83 -33 -4 -20 15 -33 31 -20 14 11 108
35 114 29 2 -3 -11 -14 -30 -26 -68 -42 -71 -72 -9 -92 53 -16 122 -58 122
-73 0 -29 -107 -103 -135 -92 -8 3 -11 13 -8 27 7 25 -14 23 -30 -3 -15 -22
-2 -46 28 -54 54 -13 175 70 175 121 0 29 -49 69 -116 94 l-47 18 57 42 c59
44 63 50 44 69 -14 14 -11 14 -113 -7z"/>
<path d="M4755 7965 c-49 -11 -95 -30 -92 -39 4 -12 5 -12 115 4 49 7 79 7 92
0 27 -14 39 9 14 27 -16 12 -89 16 -129 8z"/>
<path d="M3921 7946 c-14 -17 -7 -22 33 -24 39 -3 56 -19 56 -53 0 -23 -11
-37 -55 -70 -51 -39 -62 -59 -30 -59 23 0 112 88 118 117 6 34 -7 69 -30 81
-37 20 -79 23 -92 8z"/>
<path d="M4114 7902 c-7 -4 -28 -27 -48 -50 -39 -47 -47 -91 -20 -112 19 -16
175 -15 205 1 22 11 20 37 -2 29 -8 -3 -52 -5 -99 -5 -105 0 -112 12 -46 83
25 27 46 52 46 56 0 8 -22 7 -36 -2z"/>
<path d="M4710 7820 c-8 -5 -25 -10 -37 -10 -15 0 -23 -6 -23 -16 0 -14 6 -15
38 -8 20 4 74 8 120 9 54 0 82 4 82 11 0 7 -7 15 -16 18 -25 10 -148 7 -164
-4z"/>
<path d="M5445 7549 c-49 -4 -155 -10 -235 -13 -118 -5 -146 -9 -148 -21 -4
-18 43 -19 263 -5 83 6 174 11 203 11 43 1 52 5 50 18 -4 20 -19 21 -133 10z"/>
<path d="M4000 7520 c-63 -4 -177 -8 -252 -9 -121 -1 -138 -3 -138 -18 0 -15
21 -16 253 -8 260 9 366 13 381 14 5 1 3 8 -4 16 -14 16 -39 17 -240 5z"/>
<path d="M5271 7381 c-42 -11 -37 -31 7 -31 78 0 93 -20 37 -47 -45 -21 -44
-36 3 -57 93 -42 101 -71 29 -104 -64 -30 -97 -36 -97 -16 0 8 -6 14 -12 12
-20 -7 -16 -52 4 -56 10 -2 43 4 74 13 62 18 114 61 114 93 0 22 -47 66 -80
77 -20 6 -20 7 5 27 40 32 31 69 -20 83 -22 7 -51 9 -64 6z"/>
<path d="M3818 7354 c-16 -16 -7 -24 26 -24 18 0 54 -3 80 -6 l47 -7 -38 -21
c-55 -31 -51 -56 15 -82 69 -28 85 -44 76 -78 -9 -38 -50 -66 -95 -66 -48 0
-69 8 -69 27 0 22 -24 10 -28 -13 -4 -26 34 -44 94 -44 56 0 99 24 119 66 31
65 11 104 -65 129 -28 9 -50 18 -50 21 0 2 23 15 50 29 54 27 60 39 31 55 -24
13 -184 25 -193 14z"/>
<path d="M5293 6832 c-74 -2 -93 -6 -93 -17 0 -12 18 -15 93 -15 l92 -1 -45
-23 c-25 -13 -53 -33 -64 -45 -22 -24 -18 -26 58 -35 57 -7 109 -34 114 -60 8
-42 -80 -96 -158 -96 -37 0 -50 4 -50 14 0 24 -18 28 -29 7 -18 -33 11 -51 82
-51 50 0 72 6 114 30 29 17 57 39 63 49 29 56 -10 108 -97 130 l-48 13 77 41
c114 62 106 66 -109 59z"/>
<path d="M4110 6796 c0 -7 8 -24 19 -37 31 -40 34 -66 13 -102 -11 -17 -22
-44 -26 -60 -4 -16 -23 -39 -48 -57 -37 -27 -43 -29 -51 -15 -8 15 -11 15 -28
-1 -23 -21 -24 -40 -4 -48 20 -7 62 9 102 40 l33 25 28 -21 c49 -36 172 -39
172 -4 0 11 -9 13 -38 8 -43 -7 -121 11 -128 29 -2 7 9 44 24 82 21 51 38 76
63 93 19 13 36 27 37 33 7 19 -38 8 -67 -17 -18 -14 -31 -20 -31 -13 0 16 -48
79 -61 79 -5 0 -9 -6 -9 -14z"/>
<path d="M4728 6772 c-20 -4 -25 -31 -5 -33 6 -1 23 0 37 0 14 1 57 -4 97 -12
73 -14 106 -10 81 10 -15 13 -184 41 -210 35z"/>
<path d="M4707 6673 c-16 -25 15 -37 102 -41 79 -4 91 -2 91 12 0 10 -9 16
-22 17 -103 4 -135 7 -149 13 -10 4 -19 3 -22 -1z"/>
<path d="M6820 5964 c-124 -27 -295 -44 -438 -43 -80 0 -149 -4 -154 -9 -5 -5
-5 -19 1 -35 9 -23 -14 -280 -36 -397 -6 -33 -6 -34 -15 -10 -5 14 -14 76 -19
139 -11 138 -23 186 -51 205 -20 14 -25 13 -61 -7 -51 -28 -96 -92 -77 -110
10 -9 14 -9 18 3 7 22 81 90 97 90 20 0 32 -55 44 -194 7 -75 17 -131 28 -154
45 -90 64 -37 99 279 l17 157 136 0 c156 1 287 15 416 44 50 11 114 22 143 25
34 3 52 9 49 16 -5 17 -121 18 -197 1z"/>
<path d="M3765 5745 c-111 -113 -207 -205 -213 -205 -20 0 -143 -153 -140
-175 5 -31 31 -24 40 11 7 27 83 108 198 210 19 17 99 97 177 177 93 97 147
145 156 141 8 -3 18 -1 21 4 9 15 -4 42 -21 42 -9 0 -107 -92 -218 -205z"/>
<path d="M3640 5913 c0 -9 -12 -50 -26 -91 -27 -80 -28 -115 -2 -120 12 -2 16
5 16 32 0 19 9 62 21 95 25 72 27 101 6 101 -8 0 -15 -8 -15 -17z"/>
<path d="M2524 5895 c-4 -8 -4 -22 0 -30 6 -17 26 -21 26 -5 0 22 29 8 62 -28
67 -75 59 -170 -24 -298 -57 -85 -192 -234 -214 -234 -8 0 -14 -7 -14 -15 0
-55 108 34 213 176 76 104 94 138 108 208 17 82 2 131 -61 194 -48 48 -86 60
-96 32z"/>
<path d="M9187 5818 c-15 -46 -45 -148 -67 -228 -22 -80 -37 -125 -34 -101 17
124 -2 321 -31 321 -8 0 -29 -9 -47 -19 -18 -11 -59 -27 -90 -37 -32 -10 -58
-24 -58 -31 0 -7 7 -13 15 -13 12 0 105 32 156 54 14 6 18 -4 26 -68 5 -41 6
-107 2 -148 -22 -220 -23 -228 -7 -228 22 0 51 73 92 232 19 76 44 158 56 183
11 25 25 56 30 69 8 23 15 24 112 30 57 4 150 8 208 10 58 2 152 9 210 16 58
6 120 8 138 5 24 -4 32 -2 32 8 0 8 -8 18 -17 21 -20 8 -225 -1 -333 -14 -41
-5 -132 -11 -201 -14 -120 -5 -127 -4 -132 14 -11 42 -33 19 -60 -62z"/>
<path d="M2256 5798 c-2 -7 -11 -69 -20 -138 -9 -69 -22 -148 -30 -176 -17
-65 -11 -101 21 -122 24 -15 28 -15 61 4 44 23 102 97 102 128 0 28 -29 56
-59 56 -12 0 -36 -7 -52 -16 l-30 -15 6 48 c4 26 13 88 21 136 8 48 12 92 9
97 -9 14 -25 12 -29 -2z m100 -293 c8 -20 -40 -93 -71 -107 -62 -28 -73 23
-17 82 40 41 78 52 88 25z"/>
<path d="M4942 5783 c3 -16 13 -18 75 -15 92 5 103 -3 56 -37 -54 -40 -86 -78
-80 -94 3 -8 20 -17 38 -21 58 -11 119 -46 125 -71 8 -33 -23 -94 -60 -116
-42 -26 -78 -24 -106 6 -28 30 -40 32 -40 6 0 -11 12 -29 26 -40 72 -57 197
12 211 115 6 51 -21 86 -85 110 -26 9 -51 20 -55 24 -8 7 44 59 92 92 52 36 5
58 -126 58 -66 0 -74 -2 -71 -17z"/>
<path d="M8065 5774 c-65 -33 -93 -60 -78 -75 8 -8 21 -3 50 19 44 36 93 52
93 31 -1 -52 -113 -209 -163 -230 -30 -13 -67 -54 -67 -75 0 -23 28 -16 62 15
l33 29 37 -34 c21 -19 45 -34 54 -34 42 0 134 70 134 102 0 26 -15 22 -35 -8
-21 -33 -93 -66 -116 -54 -9 5 -23 20 -32 33 -15 24 -14 26 30 78 75 88 112
186 81 217 -17 17 -26 15 -83 -14z"/>
<path d="M6675 5773 c-55 -11 -84 -12 -134 -3 -41 7 -67 8 -74 1 -25 -25 16
-35 144 -35 l66 0 -45 -33 c-78 -55 -75 -69 22 -109 29 -11 52 -28 54 -37 2
-10 -14 -35 -37 -58 -38 -38 -44 -41 -78 -35 -21 4 -50 16 -64 26 -27 19 -39
17 -39 -7 0 -18 76 -53 115 -53 37 0 77 26 110 70 44 59 30 92 -52 125 -24 10
-43 21 -43 26 0 5 24 25 53 44 71 47 87 60 87 73 0 18 -12 19 -85 5z"/>
<path d="M7823 5719 c-7 -27 -33 -91 -58 -142 -47 -94 -56 -137 -30 -137 8 0
15 7 15 16 0 8 23 65 51 125 54 117 72 189 48 189 -9 0 -19 -20 -26 -51z"/>
<path d="M7365 5740 c-3 -6 -3 -19 0 -30 9 -27 -3 -76 -22 -95 -8 -8 -32 -15
-52 -15 -44 0 -75 -25 -46 -36 9 -4 20 -3 24 2 3 5 21 9 40 9 32 0 33 0 28
-37 -4 -32 -2 -38 14 -38 15 0 19 7 19 34 0 46 20 60 75 53 25 -4 47 -2 50 3
8 13 -37 30 -76 30 -29 0 -29 1 -23 43 7 45 7 44 5 70 -1 18 -26 23 -36 7z"/>
<path d="M9402 5734 c3 -17 15 -20 96 -24 l92 -5 -47 -35 c-26 -19 -48 -40
-50 -47 -2 -6 15 -20 39 -31 84 -38 95 -82 31 -132 -38 -29 -128 -25 -174 9
-33 24 -50 21 -33 -7 30 -49 149 -68 213 -34 34 18 71 72 71 103 0 25 -35 65
-70 79 -36 15 -33 22 36 66 82 52 74 64 -45 64 -54 0 -113 3 -131 6 -28 6 -32
4 -28 -12z"/>
<path d="M4112 5679 c-17 -6 -22 -15 -20 -31 3 -21 29 -34 27 -14 -1 15 30 28
51 21 25 -8 25 -18 0 -71 -23 -47 -54 -79 -78 -79 -22 0 -28 -33 -7 -41 11 -5
31 7 60 36 33 32 43 38 38 22 -9 -35 37 -72 90 -72 47 0 84 20 73 39 -5 8 -13
8 -26 1 -53 -28 -117 0 -100 45 18 46 49 101 64 114 9 8 16 20 16 27 0 26 -29
14 -53 -21 l-24 -36 -6 29 c-8 39 -53 52 -105 31z"/>
<path d="M5403 5637 c-10 -17 22 -27 92 -27 39 0 80 -3 93 -6 16 -5 22 -2 22
10 0 8 -10 18 -22 20 -44 10 -180 11 -185 3z"/>
<path d="M8505 5643 c-57 -5 -71 -11 -57 -25 6 -6 47 -10 105 -9 58 1 98 -2
102 -8 9 -16 35 -14 35 2 0 29 -88 47 -185 40z"/>
<path d="M4728 5625 c-2 -3 -45 -6 -94 -7 -70 -2 -89 -6 -91 -18 -5 -25 13
-45 29 -33 7 6 42 14 78 17 98 10 120 16 120 32 0 13 -31 20 -42 9z"/>
<path d="M3755 5600 c-31 -12 -47 -37 -40 -60 7 -23 30 -22 30 1 0 29 48 41
59 13 11 -29 -22 -81 -93 -144 -68 -61 -86 -90 -58 -90 7 0 26 14 42 30 38 40
52 38 65 -9 12 -46 31 -56 79 -40 43 14 63 28 55 40 -3 5 0 9 5 9 6 0 11 5 11
10 0 15 -18 12 -48 -9 -48 -35 -63 -31 -77 17 -13 42 -12 45 16 85 43 62 47
100 16 131 -28 28 -32 29 -62 16z"/>
<path d="M5431 5521 c-48 -13 -35 -30 22 -30 30 1 68 -2 83 -5 33 -7 65 8 49
22 -13 13 -124 22 -154 13z"/>
<path d="M3755 4880 c-203 -170 -321 -287 -331 -327 -9 -35 16 -59 45 -44 24
13 28 31 6 31 -53 0 53 111 289 305 112 92 195 167 195 178 1 9 -2 17 -6 16
-5 0 -93 -72 -198 -159z"/>
<path d="M3646 5018 c-3 -7 -7 -24 -9 -38 -3 -14 -12 -43 -20 -66 -22 -59 -26
-139 -7 -139 11 0 17 17 22 62 4 34 14 75 22 92 18 34 21 87 6 96 -6 3 -12 0
-14 -7z"/>
<path d="M5175 4915 c-5 -2 -22 -6 -37 -9 -19 -4 -28 -13 -28 -26 0 -21 15
-27 24 -11 9 13 81 24 107 16 20 -7 19 -9 -20 -49 -23 -23 -41 -47 -41 -52 0
-6 36 -30 80 -54 85 -46 102 -69 81 -109 -14 -26 -61 -51 -95 -51 -16 0 -32 9
-42 25 -19 29 -34 32 -34 7 0 -29 42 -62 79 -62 91 0 168 103 118 158 -9 10
-45 33 -79 51 -35 19 -65 35 -68 38 -2 2 15 21 39 43 47 43 51 70 11 81 -27 7
-78 10 -95 4z"/>
<path d="M6725 4896 c-50 -23 -69 -41 -62 -60 6 -16 10 -15 37 7 35 30 87 44
103 28 25 -25 -69 -158 -173 -244 -48 -41 -65 -77 -35 -77 8 0 39 25 70 55 30
31 55 54 55 53 0 -2 -5 -19 -10 -38 -22 -74 21 -110 116 -95 46 7 104 46 104
71 0 20 -23 17 -37 -5 -22 -35 -120 -53 -146 -26 -12 12 -13 22 -2 69 7 30 11
57 8 59 -2 3 16 33 41 67 33 45 46 72 46 96 0 52 -50 69 -115 40z"/>
<path d="M4387 4866 c-92 -84 -78 -196 27 -213 44 -7 50 13 9 27 -46 16 -57
25 -64 53 -9 34 21 96 61 122 16 11 32 26 35 33 9 24 -32 11 -68 -22z"/>
<path d="M6454 4857 c4 -16 -7 -63 -29 -130 -41 -124 -44 -157 -14 -157 16 0
19 4 14 19 -3 11 10 68 30 129 39 118 41 155 11 160 -15 3 -18 0 -12 -21z"/>
<path d="M4192 4838 c4 -37 28 -51 28 -16 1 23 1 23 26 -5 17 -20 23 -35 18
-50 -11 -37 -47 -85 -61 -80 -14 5 -29 -40 -19 -56 11 -17 32 -2 66 45 60 84
60 148 1 179 -48 24 -63 20 -59 -17z"/>
<path d="M5720 4824 c0 -14 74 -25 150 -22 25 1 55 -2 68 -6 28 -10 31 14 3
31 -27 17 -221 14 -221 -3z"/>
<path d="M3846 4765 c-45 -16 -90 -55 -78 -67 13 -13 62 2 62 18 0 14 66 31
77 20 21 -21 -93 -166 -131 -166 -27 0 -46 -18 -46 -42 0 -22 12 -23 52 -2 25
13 49 15 105 11 56 -4 73 -2 73 8 0 15 -31 25 -79 25 l-34 0 20 23 c31 34 73
111 73 134 0 39 -41 56 -94 38z"/>
<path d="M4711 4759 c-13 -5 -22 -12 -19 -15 9 -9 218 -11 218 -2 0 25 -147
38 -199 17z"/>
<path d="M5700 4727 c0 -15 33 -20 184 -30 32 -2 47 18 19 26 -10 3 -60 8
-110 12 -79 5 -93 4 -93 -8z"/>
<path d="M4710 4405 c-7 -8 -10 -22 -6 -30 3 -8 1 -26 -4 -40 -8 -21 -16 -25
-50 -25 -29 0 -40 -4 -40 -15 0 -10 11 -15 35 -15 l35 0 -2 -70 c-4 -89 14
-96 26 -10 4 36 13 68 20 72 6 4 33 8 59 8 64 0 59 24 -6 28 l-46 3 6 48 c6
51 -6 71 -27 46z"/>
<path d="M5140 4394 c0 -21 3 -22 60 -17 l60 6 -45 -45 c-25 -25 -45 -51 -45
-57 0 -7 24 -23 53 -35 92 -41 109 -83 48 -119 -41 -24 -66 -21 -90 9 -22 29
-42 25 -34 -6 8 -28 42 -50 79 -50 46 0 114 52 114 88 0 36 -46 86 -93 101
-20 7 -37 17 -37 21 0 5 24 27 54 49 88 66 87 68 -41 73 -79 3 -83 2 -83 -18z"/>
<path d="M6582 4358 c3 -7 23 -14 45 -16 l40 -3 -28 -31 c-38 -39 -37 -65 2
-86 56 -31 92 -57 97 -70 6 -20 -67 -45 -133 -46 -49 -1 -60 -4 -63 -18 -7
-39 174 -11 213 31 35 39 -5 88 -110 135 -5 3 11 25 38 50 26 24 47 49 47 55
0 7 -28 11 -76 11 -56 0 -75 -3 -72 -12z"/>
<path d="M6116 4338 c-2 -7 -10 -31 -18 -53 -14 -40 -14 -40 -66 -41 -29 -1
-55 -4 -58 -7 -14 -14 11 -27 52 -27 39 0 45 -3 40 -17 -13 -44 -23 -103 -18
-108 13 -12 32 -3 32 16 0 11 5 40 11 64 l11 43 74 7 c59 6 77 12 85 26 14 27
1 44 -19 26 -15 -12 -122 -32 -122 -23 0 2 7 23 15 46 8 23 12 46 9 51 -8 13
-24 11 -28 -3z"/>
<path d="M3284 4081 c-2 -2 1 -10 7 -18 9 -10 57 -13 218 -13 113 0 280 -7
371 -15 127 -12 282 -15 665 -13 924 5 1375 1 1720 -16 239 -12 504 -16 895
-15 305 0 567 -2 583 -6 29 -8 36 5 13 24 -20 17 -139 21 -816 26 -344 2 -740
8 -880 12 -140 4 -642 6 -1115 5 -734 -3 -889 -2 -1055 13 -178 14 -596 26
-606 16z"/>
<path d="M3773 3772 c-57 -75 -125 -162 -153 -192 -73 -79 -111 -140 -108
-170 4 -35 33 -33 34 2 1 34 22 65 93 142 31 34 74 86 96 116 22 30 68 90 102
133 35 44 63 85 63 93 0 35 -32 4 -127 -124z"/>
<path d="M3625 3880 c-4 -12 -1 -27 5 -35 9 -11 9 -27 1 -65 -16 -72 -14 -130
3 -130 9 0 15 17 19 53 3 28 9 73 13 99 8 56 -1 98 -21 98 -7 0 -17 -9 -20
-20z"/>
<path d="M5736 3872 c-3 -6 -4 -16 -2 -24 3 -7 -14 -26 -37 -43 -31 -23 -43
-39 -45 -62 -3 -26 4 -36 43 -68 l46 -38 -22 -23 c-12 -13 -37 -27 -56 -30
-41 -8 -38 -30 4 -28 57 3 119 69 98 104 -4 6 -24 22 -46 36 -23 14 -39 32
-39 43 0 22 49 61 75 61 12 0 16 6 13 18 -4 16 5 17 118 15 114 -2 152 5 123
23 -7 4 -60 8 -118 9 -58 1 -116 5 -127 9 -12 4 -24 3 -28 -2z"/>
<path d="M5474 3785 c7 -29 -26 -151 -57 -207 -17 -31 -18 -40 -7 -53 7 -9 16
-12 21 -8 10 11 79 223 79 244 0 29 -11 49 -27 49 -11 0 -13 -7 -9 -25z"/>
<path d="M4185 3700 c-40 -64 -58 -107 -52 -124 12 -31 49 -44 104 -37 59 8
72 16 55 33 -7 7 -12 8 -12 3 0 -15 -108 -5 -114 10 -2 7 13 42 34 78 21 36
35 68 32 71 -12 12 -23 4 -47 -34z"/>
<path d="M4670 3727 c-50 -9 -66 -16 -68 -31 -3 -16 0 -18 25 -11 64 16 122
21 138 12 20 -11 45 7 30 22 -18 17 -59 19 -125 8z"/>
<path d="M4030 3710 c0 -16 4 -20 19 -15 29 9 51 -5 51 -32 0 -16 -19 -44 -55
-82 -55 -58 -67 -81 -41 -81 17 0 113 110 126 146 16 40 -14 78 -63 82 -32 3
-37 0 -37 -18z"/>
<path d="M3806 3634 c-9 -8 -16 -22 -16 -30 0 -19 26 -18 34 2 4 11 17 14 43
12 52 -4 48 -31 -12 -83 -125 -106 -160 -144 -148 -156 9 -9 16 -9 26 -1 12
10 131 52 149 52 4 0 8 -11 10 -25 5 -40 23 -30 23 13 0 36 -1 37 -35 36 -19
0 -48 -4 -65 -9 l-30 -8 30 23 c56 43 107 95 122 124 15 28 14 31 -7 48 -28
23 -102 24 -124 2z"/>
<path d="M4705 3630 c-16 -4 -49 -8 -72 -9 -33 -1 -43 -5 -43 -17 0 -15 9 -16
73 -9 39 4 89 8 110 7 24 0 37 5 37 13 0 24 -44 31 -105 15z"/>
<path d="M5252 3399 c8 -26 191 -39 494 -37 223 2 284 0 297 -10 16 -14 37 -9
37 8 0 30 -49 35 -360 35 -173 0 -350 4 -394 9 -66 8 -78 7 -74 -5z"/>
<path d="M4020 3253 c-19 -2 -80 -10 -135 -18 -55 -8 -158 -17 -230 -20 -189
-8 -274 -16 -280 -25 -3 -5 9 -16 27 -24 27 -14 34 -14 47 -2 12 9 64 15 186
20 94 3 209 13 257 21 102 16 190 21 206 11 11 -7 30 20 21 28 -8 8 -66 13
-99 9z"/>
<path d="M5696 3153 c-2 -16 -10 -58 -17 -94 -13 -73 -7 -119 17 -119 12 0 15
6 10 26 -4 15 1 62 10 105 16 75 15 109 -5 109 -5 0 -12 -12 -15 -27z"/>
<path d="M5932 3147 c-7 -18 -30 -58 -53 -88 -22 -30 -60 -83 -83 -119 -23
-36 -63 -94 -89 -129 -26 -35 -47 -72 -47 -83 0 -29 14 -19 53 37 18 28 65 95
102 150 141 205 155 227 155 246 0 31 -25 22 -38 -14z"/>
<path d="M3814 2942 c-55 -53 -149 -143 -208 -200 -90 -85 -106 -105 -96 -117
18 -22 37 -18 44 8 7 27 53 75 238 247 81 74 147 141 147 148 2 28 -29 7 -125
-86z"/>
<path d="M3656 3008 c-8 -30 -8 -132 0 -152 3 -9 12 -16 19 -16 9 0 12 25 12
95 0 67 -4 95 -13 95 -6 0 -14 -10 -18 -22z"/>
<path d="M5990 2979 c-31 -13 -80 -59 -80 -76 0 -18 35 -16 50 2 7 8 9 15 4
15 -25 1 35 30 61 30 62 0 57 -12 -55 -142 -44 -50 -80 -95 -80 -100 0 -18 36
-6 65 22 31 30 33 30 78 19 36 -10 54 -10 89 0 45 14 68 28 68 42 0 5 -5 9
-11 9 -5 0 -7 -4 -4 -10 3 -5 1 -10 -4 -10 -6 0 -11 4 -11 9 0 5 -19 2 -42 -6
-34 -12 -51 -12 -81 -3 l-38 11 33 40 c87 107 87 133 -2 154 -8 2 -26 -1 -40
-6z"/>
<path d="M3823 2789 c-35 -16 -63 -33 -63 -38 0 -23 23 -20 81 9 33 17 63 29
66 26 13 -13 -18 -57 -103 -147 -52 -54 -94 -103 -94 -108 0 -19 26 -12 49 13
22 23 28 24 146 23 68 -1 126 1 129 4 13 13 10 54 -4 54 -8 0 -14 -5 -13 -12
3 -16 -89 -26 -149 -16 l-47 8 36 40 c59 66 85 111 81 142 -4 39 -37 39 -115
2z"/>
</g>
</svg>
