<?xml version="1.0" standalone="no"?>
<!DOCTYPE svg PUBLIC "-//W3C//DTD SVG 20010904//EN"
 "http://www.w3.org/TR/2001/REC-SVG-20010904/DTD/svg10.dtd">
<svg version="1.0" xmlns="http://www.w3.org/2000/svg"
 width="1618.000000pt" height="1214.000000pt" viewBox="0 0 1618.000000 1214.000000"
 preserveAspectRatio="xMidYMid meet">

<g transform="translate(0.000000,1214.000000) scale(0.100000,-0.100000)"
fill="#000000" stroke="none">
<path d="M15022 11653 c-11 -16 -36 -61 -56 -101 -52 -103 -105 -184 -117
-176 -26 16 34 128 77 144 14 6 22 14 19 20 -12 20 -44 9 -75 -27 -55 -62 -76
-137 -46 -162 10 -8 13 -23 9 -47 -4 -26 -2 -34 9 -34 9 0 18 12 21 29 5 22
13 30 39 35 52 10 97 47 110 89 10 33 9 40 -11 61 l-22 24 30 60 c17 33 35 63
41 67 13 8 13 45 1 45 -5 0 -18 -12 -29 -27z m-38 -192 c10 -16 -12 -59 -38
-76 -42 -28 -48 -13 -17 38 30 46 44 56 55 38z"/>
<path d="M13241 11553 c-19 -49 -43 -108 -53 -132 -17 -41 -17 -61 1 -61 9 0
21 27 76 167 33 83 37 113 17 113 -4 0 -23 -39 -41 -87z"/>
<path d="M15401 11632 c-16 -5 -14 -29 3 -35 8 -3 38 -2 65 2 28 4 51 5 51 2
0 -4 -11 -23 -25 -44 -19 -27 -33 -37 -53 -37 -33 0 -57 -14 -48 -28 3 -5 -1
-12 -9 -15 -10 -4 -12 -1 -8 11 6 15 5 15 -11 3 -28 -24 -2 -36 33 -15 17 10
33 15 36 12 4 -3 -14 -41 -39 -84 -25 -43 -46 -87 -46 -96 0 -30 25 -20 38 16
7 18 30 61 53 96 l40 62 47 -4 c37 -2 47 0 47 12 0 10 -12 16 -32 18 -18 2
-33 5 -33 7 0 1 11 23 25 46 41 72 37 78 -49 76 -41 -1 -79 -3 -85 -5z"/>
<path d="M13446 11599 c-44 -30 -54 -48 -29 -56 6 -2 17 2 24 10 23 22 69 50
75 44 19 -18 -82 -164 -143 -207 -18 -12 -39 -33 -48 -46 -14 -22 -14 -25 0
-31 11 -4 31 8 59 36 49 48 64 51 71 14 4 -16 10 -35 14 -43 11 -21 45 -19 49
3 2 10 -3 17 -12 17 -9 0 -16 8 -16 18 0 9 -7 30 -15 45 -14 27 -13 31 20 74
38 50 61 112 52 137 -10 25 -49 19 -101 -15z"/>
<path d="M14254 11605 c-5 -11 -10 -13 -19 -5 -9 8 -19 1 -39 -24 -14 -19 -49
-58 -76 -86 -69 -71 -67 -84 13 -77 l64 6 -14 -52 c-16 -61 -14 -102 6 -102 9
0 15 16 17 45 7 78 22 118 46 122 29 4 36 28 8 28 -16 0 -20 4 -16 16 4 9 11
36 17 60 6 25 15 47 20 50 5 3 9 12 9 20 0 19 -29 18 -36 -1z m-29 -82 c-8
-27 -15 -51 -15 -54 0 -5 -69 -29 -84 -29 -6 0 104 129 111 130 1 0 -4 -21
-12 -47z"/>
<path d="M13897 11580 c-26 -16 -47 -36 -47 -45 0 -21 9 -19 59 15 42 28 45
29 63 14 10 -10 18 -24 18 -32 0 -24 -107 -150 -151 -177 -61 -39 -50 -75 11
-38 25 15 34 15 70 3 36 -12 45 -11 75 3 19 9 35 23 35 32 0 18 -8 18 -40 0
-31 -18 -42 -18 -64 -2 -16 12 -13 18 38 82 63 80 70 112 31 150 -31 32 -41
31 -98 -5z"/>
<path d="M15231 11587 c-6 -8 -8 -16 -5 -19 3 -3 -8 -37 -24 -75 -47 -109 -53
-173 -17 -173 18 0 28 17 18 33 -12 19 -4 53 33 140 33 75 37 107 16 107 -5 0
-15 -6 -21 -13z"/>
<path d="M14652 11569 c-50 -15 -97 -45 -96 -61 1 -9 -4 -15 -10 -15 -33 1
-46 -5 -46 -18 0 -24 30 -17 66 15 34 29 109 59 121 47 9 -10 -56 -103 -117
-167 -62 -66 -74 -86 -59 -96 7 -4 32 14 60 44 27 29 53 52 58 52 5 0 12 -13
16 -29 8 -39 29 -55 61 -47 30 8 27 32 -4 28 -17 -3 -22 4 -28 33 -3 20 -13
39 -20 42 -11 4 -6 15 16 43 17 21 37 55 46 76 15 35 15 39 -2 51 -20 15 -17
15 -62 2z"/>
<path d="M13645 11347 c-12 -9 -14 -16 -7 -21 17 -10 62 4 62 20 0 18 -31 18
-55 1z"/>
<path d="M14318 11309 c-27 -15 -21 -31 9 -27 17 2 29 10 31 21 4 19 -14 22
-40 6z"/>
<path d="M5176 10994 c-8 -22 -8 -24 5 -24 14 0 99 -52 99 -61 0 -3 -18 -14
-40 -24 -47 -21 -52 -27 -44 -49 9 -23 25 -20 64 12 19 16 45 34 58 41 30 16
28 28 -10 47 -18 9 -49 30 -69 45 -42 33 -54 36 -63 13z"/>
<path d="M5710 11008 c-1 -2 -2 -151 -2 -333 -2 -339 2 -375 37 -375 18 0 20
37 3 42 -13 5 -14 55 -9 358 3 203 -3 295 -20 306 -5 3 -9 4 -9 2z"/>
<path d="M5585 10960 c-8 -12 -5 -400 4 -525 5 -71 9 -90 21 -90 9 0 14 8 12
20 -1 11 -5 151 -8 310 -5 266 -10 316 -29 285z"/>
<path d="M3230 10947 c0 -21 34 -47 80 -61 23 -7 41 -16 42 -22 0 -5 -19 -23
-42 -39 -49 -35 -59 -52 -35 -61 15 -6 105 48 142 85 22 21 -7 46 -71 60 -30
7 -62 21 -71 31 -21 23 -45 26 -45 7z"/>
<path d="M5070 10920 c-14 -4 -41 -8 -61 -9 -37 -1 -66 -22 -55 -39 3 -6 38
-2 83 9 43 10 92 18 110 19 34 0 51 14 32 26 -8 4 -9 3 -5 -4 4 -7 3 -12 -3
-12 -5 0 -13 5 -16 10 -7 12 -49 12 -85 0z"/>
<path d="M6653 10883 c-24 -9 -13 -30 19 -39 24 -7 43 -26 75 -74 24 -35 43
-67 43 -71 0 -11 -66 -23 -79 -15 -6 4 -35 7 -66 7 -30 1 -55 4 -55 8 0 17 78
81 98 81 13 0 22 6 22 15 0 49 -84 7 -138 -68 -26 -37 -37 -44 -91 -56 -42 -9
-61 -18 -61 -28 0 -16 2 -16 85 4 18 4 20 0 17 -40 -11 -134 111 -199 229
-121 50 33 92 104 86 145 -3 28 -9 27 212 52 8 1 16 8 19 16 4 12 -10 13 -79
8 -46 -4 -101 -9 -121 -13 -34 -6 -38 -4 -49 22 -49 126 -112 189 -166 167z
m153 -245 c3 -10 -4 -37 -14 -61 -22 -50 -72 -86 -131 -94 -32 -4 -43 -1 -70
23 -37 33 -51 96 -32 133 12 21 18 22 127 19 98 -3 115 -5 120 -20z"/>
<path d="M6153 10851 c-13 -11 -23 -23 -23 -28 0 -5 -67 -74 -150 -153 -82
-79 -150 -150 -150 -157 0 -15 21 -17 36 -4 5 5 38 5 74 1 136 -17 320 -17
320 0 0 19 -38 30 -82 22 -23 -5 -86 -4 -138 1 -115 10 -124 12 -130 18 -3 3
62 70 143 149 81 78 146 148 144 153 -6 18 -21 17 -44 -2z"/>
<path d="M3075 10848 c-22 -5 -53 -7 -70 -4 -35 7 -61 -6 -50 -24 7 -12 39
-11 191 4 27 3 46 15 39 27 -8 11 -57 10 -110 -3z"/>
<path d="M4522 10838 c-15 -15 -16 -38 -2 -38 6 0 10 -64 10 -172 1 -246 20
-372 53 -339 6 6 5 21 -3 43 -8 21 -14 117 -17 263 -4 234 -11 273 -41 243z"/>
<path d="M4653 10835 c-10 -27 16 -457 32 -530 15 -69 34 -103 53 -91 7 4 6
16 -3 34 -24 47 -44 209 -49 402 -3 102 -5 188 -6 193 0 13 -21 7 -27 -8z"/>
<path d="M7827 10768 c-3 -40 -17 -122 -31 -183 -28 -118 -33 -209 -14 -221
14 -9 61 43 52 57 -3 6 -12 5 -22 -3 -14 -12 -15 -7 -9 42 4 30 18 104 32 165
28 124 33 215 11 215 -9 0 -15 -21 -19 -72z"/>
<path d="M8740 10783 c0 -20 -5 -76 -11 -125 -13 -96 -15 -99 -78 -77 -24 8
-36 8 -44 0 -12 -12 47 -41 86 -41 22 0 25 -5 30 -60 7 -65 21 -100 39 -100 6
0 8 11 4 28 -3 15 -9 51 -12 80 -6 43 -4 52 9 52 8 0 27 14 40 31 l24 31 7
-46 c4 -25 4 -50 1 -56 -8 -13 25 -26 34 -13 11 18 85 63 103 63 16 0 27 -25
42 -92 4 -16 13 -28 21 -28 20 0 10 71 -14 115 -15 25 -24 30 -53 29 -20 -1
-49 -11 -66 -22 l-30 -22 -4 32 c-3 17 -1 69 5 115 8 62 7 87 -1 95 -14 14
-20 9 -25 -18 -2 -10 -9 -32 -15 -47 -7 -16 -12 -33 -12 -39 0 -18 -50 -98
-60 -98 -12 0 -12 1 4 130 14 111 13 120 -10 120 -10 0 -14 -11 -14 -37z"/>
<path d="M11707 10804 c-3 -3 1 -27 9 -52 7 -26 14 -68 14 -94 l0 -48 -40 0
c-29 0 -40 -4 -40 -15 0 -11 11 -15 39 -15 l39 0 -5 -44 c-6 -45 11 -91 29
-80 5 4 7 19 4 35 -3 16 -3 43 1 60 6 30 8 31 45 25 50 -8 88 1 81 20 -7 19
-21 18 -26 -3 -4 -17 -5 -17 -6 0 -1 13 -10 17 -44 17 l-43 0 -2 55 c-1 30 -6
64 -12 74 -5 11 -10 31 -10 45 0 24 -18 35 -33 20z"/>
<path d="M13536 10799 c-5 -16 -40 -150 -50 -191 -5 -22 -12 -27 -44 -30 -25
-2 -37 -8 -37 -18 0 -11 9 -14 32 -12 l32 3 -6 -77 c-5 -63 -4 -76 8 -72 9 3
17 27 21 68 9 82 13 90 40 90 49 0 67 11 65 38 -2 15 -5 27 -7 26 -3 0 -16 -3
-29 -7 -20 -5 -22 -9 -13 -20 10 -12 8 -13 -11 -10 l-23 5 25 99 c20 76 23
101 14 110 -10 10 -13 9 -17 -2z"/>
<path d="M10033 10785 c-3 -9 -1 -41 5 -73 6 -31 14 -88 18 -127 5 -62 4 -73
-16 -98 -23 -28 -78 -62 -87 -53 -13 13 10 57 34 67 23 9 25 12 12 25 -20 19
-46 9 -64 -27 -31 -60 -10 -107 42 -94 15 3 47 26 71 51 l45 44 -7 87 c-4 48
-11 107 -15 130 -5 25 -5 46 1 49 10 6 -9 34 -24 34 -5 0 -11 -7 -15 -15z"/>
<path d="M13933 10770 c7 -27 -14 -160 -25 -160 -5 0 -6 5 -3 10 3 6 -4 10
-17 10 -38 0 -68 -12 -68 -26 0 -10 12 -12 48 -7 l49 5 -9 -68 c-5 -37 -14
-76 -20 -87 -6 -13 -7 -22 0 -29 17 -17 41 32 48 97 10 85 16 93 72 97 33 2
47 7 47 18 0 11 -12 13 -51 11 l-51 -2 9 63 c9 71 6 88 -18 88 -11 0 -15 -6
-11 -20z"/>
<path d="M10734 10737 c-3 -8 7 -39 21 -68 18 -37 29 -77 32 -124 l5 -70 -22
23 c-25 26 -47 23 -97 -15 -86 -64 -32 -174 63 -127 72 36 99 104 83 208 -18
113 -20 121 -37 150 -20 34 -40 44 -48 23z m21 -268 c4 -6 13 -8 21 -5 43 16
-10 -62 -54 -81 -61 -25 -86 26 -36 72 28 26 58 32 69 14z"/>
<path d="M7260 10720 c-12 -23 -6 -40 15 -40 19 0 27 17 20 40 -8 26 -21 25
-35 0z"/>
<path d="M10915 10717 c-8 -19 10 -47 31 -47 19 0 17 14 -5 41 -18 22 -20 22
-26 6z"/>
<path d="M11940 10685 c0 -16 39 -36 53 -28 4 2 2 13 -3 24 -13 23 -50 26 -50
4z"/>
<path d="M2910 10675 c0 -3 12 -23 26 -44 14 -22 32 -65 41 -97 18 -72 37
-110 59 -118 29 -11 37 4 30 60 -9 74 4 101 61 126 26 12 56 21 67 22 26 1 32
23 7 31 -24 7 -149 -47 -157 -68 -3 -8 -9 -37 -13 -63 l-7 -49 -13 55 c-18 75
-59 150 -83 150 -10 0 -18 -2 -18 -5z"/>
<path d="M14160 10655 c-19 -23 3 -44 26 -24 9 8 20 13 23 12 3 -2 6 3 6 10 0
18 -40 20 -55 2z"/>
<path d="M5120 10650 l-45 -5 -5 -98 c-3 -53 -9 -98 -15 -99 -5 -1 -24 23 -42
53 -54 93 -68 112 -80 117 -18 5 -16 -33 1 -50 8 -8 25 -37 39 -64 14 -27 39
-62 57 -79 l32 -30 19 24 c16 19 19 39 19 112 l0 88 55 3 c56 3 74 19 32 28
-12 3 -42 3 -67 0z"/>
<path d="M3871 10631 c-25 -3 -46 -12 -49 -18 -3 -10 19 -13 87 -13 80 0 108
8 83 24 -15 9 -79 13 -121 7z"/>
<path d="M12387 10622 c-15 -11 -35 -29 -43 -41 -11 -15 -22 -19 -37 -16 -20
5 -24 0 -34 -42 -7 -31 -8 -52 -1 -58 10 -10 12 -8 91 89 49 60 61 59 52 -4
-6 -44 -4 -52 19 -75 31 -31 85 -34 110 -6 19 21 3 42 -17 22 -6 -6 -20 -11
-31 -11 -41 0 -49 15 -50 86 -1 77 -11 87 -59 56z"/>
<path d="M13253 10624 c-4 -10 0 -20 10 -25 14 -8 13 -14 -9 -46 -28 -42 -29
-90 -1 -107 14 -8 20 -8 27 4 5 8 10 11 10 6 0 -5 12 1 26 15 20 19 25 32 23
64 -2 56 -1 67 11 60 6 -3 10 -2 10 4 0 17 -19 22 -41 11 -17 -10 -21 -8 -26
9 -6 25 -31 28 -40 5z m57 -99 c0 -29 -43 -65 -48 -41 -4 21 27 78 38 71 6 -4
10 -17 10 -30z"/>
<path d="M14588 10611 c-24 -16 -59 -46 -77 -67 -19 -21 -30 -30 -26 -19 34
89 5 84 -39 -6 -34 -68 -37 -89 -15 -89 5 0 46 36 91 80 44 45 83 79 85 76 3
-2 -2 -29 -11 -59 -31 -105 -17 -133 60 -124 43 4 85 29 72 42 -3 3 -26 0 -52
-7 -78 -21 -80 -9 -20 173 10 29 -23 28 -68 0z"/>
<path d="M7970 10594 c-69 -62 -76 -145 -14 -160 37 -10 95 3 128 27 l29 22
-6 -29 c-6 -34 1 -54 19 -54 9 0 14 11 14 28 0 34 41 107 60 107 12 0 16 -19
20 -84 3 -55 9 -86 18 -89 18 -6 20 154 1 189 -22 41 -106 19 -116 -31 -3 -17
-11 -29 -17 -28 -6 1 -32 -6 -57 -16 -65 -25 -93 -19 -97 20 -5 54 68 122 85
79 6 -18 -23 -55 -43 -55 -16 0 -27 -17 -20 -29 17 -27 96 33 96 74 0 25 -31
65 -50 65 -5 0 -28 -16 -50 -36z"/>
<path d="M13038 10614 c-16 -8 -28 -18 -28 -23 0 -5 -7 -8 -16 -7 -17 1 -64
-108 -64 -150 0 -36 27 -29 35 8 16 71 90 168 117 152 5 -3 8 -35 6 -72 -4
-82 16 -97 28 -20 10 66 8 87 -13 110 -19 22 -29 22 -65 2z"/>
<path d="M2433 10599 c-11 -15 -37 -89 -31 -92 1 -1 14 -8 27 -15 28 -16 37
-9 46 38 5 27 2 42 -12 59 -15 19 -21 21 -30 10z"/>
<path d="M11270 10579 c-114 -68 -118 -168 -8 -184 54 -8 128 10 128 31 0 12
-7 13 -37 7 -83 -17 -143 -2 -143 37 0 20 76 93 91 88 21 -7 11 -24 -24 -43
-35 -19 -50 -45 -26 -45 22 0 89 44 95 62 5 18 -19 68 -34 68 -4 0 -23 -9 -42
-21z"/>
<path d="M13646 10571 c-35 -36 -58 -99 -45 -123 14 -25 36 -22 73 9 30 25 31
25 34 5 4 -27 28 -46 48 -38 15 6 15 8 2 24 -14 15 -14 24 -2 67 7 28 13 56
14 63 0 19 -20 14 -41 -10 -20 -25 -25 -43 -9 -33 6 3 10 1 10 -5 0 -7 -6 -10
-12 -7 -7 2 -30 -12 -50 -31 -32 -30 -38 -33 -38 -17 0 32 37 84 65 91 14 3
25 12 25 20 0 24 -45 15 -74 -15z"/>
<path d="M12070 10549 c-43 -49 -46 -87 -9 -108 24 -13 31 -13 73 3 56 21 83
55 67 84 -11 21 -71 63 -87 61 -5 0 -25 -18 -44 -40z m88 -21 c20 -20 14 -33
-24 -51 -37 -18 -74 -15 -74 6 0 19 43 57 65 57 11 0 26 -5 33 -12z"/>
<path d="M14282 10535 c-43 -44 -53 -60 -50 -82 2 -23 8 -29 35 -31 23 -2 40
5 67 29 35 30 37 35 34 83 -4 68 -20 69 -86 1z m33 -62 c-26 -23 -55 -30 -55
-15 0 5 17 26 38 48 36 38 37 38 40 14 3 -17 -4 -31 -23 -47z"/>
<path d="M8370 10545 c-24 -39 -28 -91 -11 -124 15 -27 55 -28 97 -2 l31 19
18 -79 c9 -43 15 -84 12 -91 -2 -7 -48 -28 -100 -46 -53 -18 -98 -40 -101 -47
-11 -29 144 -135 197 -135 9 0 27 15 38 33 17 26 20 44 16 100 -4 55 -1 69 12
77 14 8 13 11 -6 16 -15 4 -23 14 -23 28 0 11 -6 41 -14 66 -7 25 -16 75 -20
111 -9 82 -30 109 -86 109 -33 0 -41 -5 -60 -35z m98 -32 c2 -24 -3 -39 -23
-59 -34 -34 -59 -28 -63 14 -5 47 22 84 56 80 22 -2 28 -9 30 -35z m71 -355
c1 -39 -16 -88 -31 -88 -15 0 -91 41 -126 68 l-34 26 24 9 c12 5 52 20 88 33
74 26 78 24 79 -48z"/>
<path d="M7251 10561 c-8 -5 -11 -16 -8 -25 3 -8 2 -18 -3 -21 -16 -10 -11
-45 5 -45 8 0 15 7 15 15 0 7 7 18 15 23 13 7 14 14 6 35 -12 30 -11 30 -30
18z"/>
<path d="M9569 10547 c-19 -12 -43 -39 -54 -59 -50 -93 57 -121 128 -33 6 6 7
4 4 -6 -8 -25 7 -84 21 -84 9 0 14 23 15 79 2 72 0 82 -21 103 -29 29 -50 29
-93 0z m64 -13 c22 -8 9 -40 -30 -74 -35 -31 -57 -37 -68 -20 -9 15 18 59 51
80 34 23 29 21 47 14z"/>
<path d="M11083 10546 c-38 -32 -55 -73 -51 -122 2 -27 8 -40 20 -42 14 -3 15
3 11 37 -4 30 0 48 17 75 25 41 21 39 55 26 22 -8 26 -7 23 6 -2 9 -13 23 -24
31 -19 12 -25 11 -51 -11z"/>
<path d="M11926 10548 c-3 -7 -7 -39 -10 -70 -5 -46 -3 -58 8 -58 17 0 26 31
26 93 0 43 -15 65 -24 35z"/>
<path d="M3842 10533 c2 -11 22 -20 67 -29 62 -13 81 -12 81 5 0 8 -56 25
-118 35 -27 5 -33 3 -30 -11z"/>
<path d="M11461 10515 c-36 -41 -36 -43 -15 -73 13 -19 24 -22 80 -22 61 0 64
1 60 23 -3 24 -32 35 -49 18 -6 -6 -24 -11 -39 -11 -21 0 -28 5 -28 18 0 26
33 54 55 46 13 -5 16 -2 13 12 -6 33 -42 28 -77 -11z"/>
<path d="M14101 10501 c-25 -58 -26 -84 -7 -100 17 -14 29 0 20 22 -3 9 4 37
15 63 25 55 26 64 7 64 -7 0 -23 -22 -35 -49z"/>
<path d="M9754 10522 c-32 -21 -47 -102 -19 -102 8 0 15 3 16 8 2 17 8 45 13
59 10 24 36 -4 36 -38 0 -37 27 -64 47 -47 13 10 13 13 -1 24 -9 6 -16 22 -16
35 0 49 -43 83 -76 61z"/>
<path d="M10895 10480 c-4 -21 -4 -49 0 -60 12 -38 28 -15 31 43 3 43 0 57
-10 57 -9 0 -17 -16 -21 -40z"/>
<path d="M9129 10472 c-15 -13 -20 -25 -15 -37 6 -17 8 -17 27 3 24 27 89 30
133 7 32 -17 42 -14 32 10 -14 37 -137 49 -177 17z"/>
<path d="M10230 10456 c0 -19 159 -28 177 -10 16 15 -26 24 -113 24 -48 0 -64
-3 -64 -14z"/>
<path d="M14969 10418 c0 -2 -2 -13 -3 -24 -3 -23 -46 -82 -90 -123 -28 -26
-34 -51 -13 -51 13 0 83 76 119 129 22 32 23 71 3 71 -8 0 -15 -1 -16 -2z"/>
<path d="M6348 10335 c-3 -3 -3 -39 0 -80 5 -74 4 -75 -19 -75 l-24 -1 26 -23
c24 -21 42 -79 44 -141 0 -22 31 -33 47 -17 6 6 5 18 -5 33 -8 13 -18 43 -22
66 l-7 42 64 3 c81 4 78 21 -4 28 l-63 5 -5 79 c-4 70 -15 98 -32 81z"/>
<path d="M15253 10318 c-33 -16 -74 -81 -80 -129 -4 -29 -11 -43 -24 -46 -23
-6 -25 -30 -3 -35 12 -2 23 -29 38 -87 16 -62 26 -85 39 -87 19 -3 21 8 8 34
-15 28 -34 123 -26 130 4 4 50 7 103 7 97 0 97 0 94 24 -3 33 -6 35 -32 21
-13 -7 -47 -12 -78 -11 -30 0 -63 -4 -73 -10 -17 -9 -19 -6 -19 26 0 48 22 97
55 123 30 24 74 29 92 11 20 -20 36 1 17 22 -19 21 -75 25 -111 7z"/>
<path d="M13140 10298 c6 -75 2 -82 -50 -101 -29 -10 -50 -24 -50 -32 0 -19 9
-19 53 0 20 8 39 15 43 15 4 0 4 -40 2 -90 -4 -64 -2 -93 7 -100 21 -17 25 0
25 103 l0 99 67 -4 c47 -2 68 1 70 10 3 6 1 12 -4 13 -4 0 -17 3 -28 5 -11 3
-39 6 -63 7 -39 2 -42 4 -37 25 3 12 3 33 -1 47 -8 32 -36 34 -34 3z"/>
<path d="M2778 10294 c-3 -3 -2 -22 4 -41 7 -25 6 -60 -2 -112 -6 -42 -12 -84
-14 -93 -1 -10 -5 -21 -9 -24 -12 -12 -8 -66 4 -62 6 2 23 32 37 67 25 64 64
103 83 84 6 -6 13 -30 16 -54 7 -54 23 -69 66 -59 23 5 43 1 71 -12 56 -28
162 -12 142 21 -4 5 -23 5 -47 0 -23 -5 -50 -7 -61 -3 -19 6 -19 6 2 29 14 15
20 33 18 50 -7 66 -78 55 -99 -15 -9 -31 -17 -40 -34 -40 -19 0 -23 7 -28 41
-9 70 -48 96 -96 63 l-23 -17 7 42 c13 80 -10 163 -37 135z m282 -219 c0 -12
-29 -35 -44 -35 -7 0 4 31 17 47 11 15 27 8 27 -12z"/>
<path d="M7477 10294 c-15 -15 -7 -45 11 -42 9 2 17 12 17 22 0 20 -16 31 -28
20z"/>
<path d="M4260 10235 c0 -59 -1 -60 -74 -67 -16 -2 -31 -8 -33 -15 -6 -17 27
-24 70 -14 33 8 37 7 33 -7 -3 -10 -7 -35 -11 -57 -3 -22 -8 -55 -11 -72 -8
-42 2 -83 21 -83 20 0 29 19 16 34 -9 10 -7 41 5 120 10 58 20 102 24 96 3 -5
19 -2 38 10 17 11 34 15 37 11 2 -5 1 -32 -5 -60 -26 -138 -21 -177 17 -130
10 12 29 35 43 50 l25 29 31 -29 c17 -15 33 -35 37 -44 12 -31 57 -50 130 -54
57 -4 76 -1 92 12 11 9 14 14 8 10 -7 -3 -13 -2 -13 3 0 5 -11 7 -25 4 -41 -7
-134 8 -151 26 -16 15 -15 17 12 28 62 25 79 75 31 90 -17 5 -29 -2 -54 -31
l-33 -39 -31 32 c-17 18 -35 32 -40 32 -5 0 -18 -13 -31 -30 -24 -32 -45 -41
-30 -12 29 53 18 192 -14 192 -8 0 -14 -6 -14 -14 0 -7 -12 -25 -26 -39 -33
-33 -51 -20 -46 34 3 31 1 39 -12 39 -13 0 -16 -11 -16 -55z m340 -149 c0 -2
-7 -7 -16 -10 -8 -3 -12 -2 -9 4 6 10 25 14 25 6z"/>
<path d="M11174 10233 c-8 -21 -22 -67 -29 -102 -8 -37 -23 -73 -34 -85 -19
-18 -21 -18 -21 -3 0 25 -71 23 -95 -3 -17 -18 -17 -21 -1 -45 20 -31 30 -31
92 0 27 14 51 25 54 25 4 0 11 -15 18 -33 15 -42 50 -62 94 -53 38 8 71 45 57
67 -7 11 -13 9 -34 -13 -32 -34 -60 -36 -80 -4 -26 39 -29 89 -10 139 9 25 14
51 10 58 -5 7 -4 10 2 6 12 -8 28 57 18 73 -12 19 -25 10 -41 -27z m-104 -213
c-20 -13 -50 -13 -50 0 0 6 15 10 33 10 24 0 28 -3 17 -10z"/>
<path d="M12189 10221 c-5 -43 -2 -56 11 -56 19 0 21 56 3 63 -7 2 -13 -1 -14
-7z"/>
<path d="M14167 10199 c-46 -31 -65 -63 -53 -94 3 -8 30 -27 60 -41 70 -33 84
-49 57 -63 -11 -6 -30 -11 -43 -11 -40 0 -68 -12 -68 -27 0 -12 9 -14 48 -8
70 10 112 31 112 53 0 22 -62 82 -84 82 -8 0 -24 9 -37 20 l-24 20 30 25 c17
14 40 28 53 31 14 4 22 13 20 22 -5 25 -21 23 -71 -9z"/>
<path d="M5711 10133 c-6 -32 -15 -76 -19 -97 -4 -22 -12 -41 -19 -43 -17 -6
-49 50 -57 99 -8 46 -22 78 -36 78 -36 0 27 -187 70 -210 45 -24 70 16 85 138
5 39 10 51 18 43 14 -14 44 -14 52 -1 3 6 -5 14 -19 20 -14 5 -26 14 -26 20 0
5 -9 10 -19 10 -16 0 -22 -11 -30 -57z"/>
<path d="M6814 10174 c-34 -17 -64 -70 -64 -114 0 -39 43 -90 61 -73 10 10 8
17 -9 36 -26 28 -27 47 -7 88 20 37 55 52 92 38 40 -15 52 6 15 25 -38 20 -49
20 -88 0z"/>
<path d="M7652 10161 c-17 -17 -32 -34 -32 -39 0 -13 30 -37 77 -61 69 -34 77
-67 18 -72 -42 -4 -56 2 -65 27 -6 14 -14 22 -20 19 -17 -10 -11 -41 11 -61
43 -39 149 -13 149 37 0 21 -55 70 -97 88 -21 8 -31 19 -30 31 1 10 4 18 7 18
18 -1 50 17 50 28 0 23 -34 16 -68 -15z"/>
<path d="M13358 10169 c-31 -12 -68 -65 -68 -98 0 -40 19 -60 72 -76 72 -21
97 -19 107 8 14 36 -5 50 -32 22 -12 -11 -22 -12 -53 -3 -69 18 -81 44 -43 92
15 19 29 26 47 24 40 -5 37 -25 -7 -48 -40 -20 -48 -30 -35 -43 9 -9 75 27 99
53 l20 22 -33 29 c-35 32 -35 32 -74 18z"/>
<path d="M6290 10161 c0 -5 5 -13 10 -16 6 -3 10 -2 10 4 0 5 -4 13 -10 16 -5
3 -10 2 -10 -4z"/>
<path d="M3228 10140 c-56 -30 -71 -70 -46 -125 15 -33 42 -34 34 -1 -3 13 -9
31 -12 40 -8 21 38 65 76 73 17 3 29 11 27 17 -6 18 -40 17 -79 -4z"/>
<path d="M3403 10139 c-37 -23 -56 -69 -44 -102 15 -39 78 -87 114 -87 39 0
84 27 69 42 -6 6 -17 6 -30 -1 -32 -17 -58 -13 -91 15 -40 33 -42 74 -5 103
52 41 63 12 12 -31 -48 -39 -25 -55 27 -19 31 21 39 33 37 52 -8 52 -37 62
-89 28z"/>
<path d="M5851 10125 c-17 -20 -31 -44 -31 -53 0 -10 -5 -23 -11 -29 -9 -9 -9
-20 1 -43 16 -39 37 -50 93 -50 36 0 51 6 76 29 16 15 27 31 24 35 -9 9 -25 8
-20 -1 17 -28 -104 -45 -137 -20 -21 16 -22 15 72 98 22 18 22 22 9 42 -22 33
-41 31 -76 -8z m49 -14 c0 -5 -7 -11 -15 -15 -15 -5 -20 5 -8 17 9 10 23 9 23
-2z"/>
<path d="M9135 10133 c-14 -16 -30 -43 -36 -61 -6 -18 -13 -31 -16 -28 -9 9
-44 -14 -38 -25 4 -5 15 -9 26 -9 10 0 19 -6 19 -13 0 -8 9 -22 19 -31 16 -15
36 -17 120 -15 55 2 103 0 107 -3 3 -4 27 6 52 21 l47 27 55 -23 c60 -25 104
-30 98 -11 -3 9 -90 44 -118 48 -3 0 9 8 25 17 36 19 65 43 65 55 0 15 -18 9
-67 -22 l-48 -31 -22 26 c-13 14 -23 35 -23 46 0 10 -7 19 -15 19 -21 0 -19
-37 5 -75 19 -31 19 -33 3 -40 -40 -16 -209 -31 -247 -21 -21 5 -26 12 -26 37
0 17 4 28 10 24 5 -3 30 3 55 14 49 22 56 41 29 79 -20 30 -48 28 -79 -5z m54
-17 c10 -12 7 -18 -18 -30 -42 -22 -45 -20 -21 14 25 35 24 34 39 16z"/>
<path d="M9989 10131 c-26 -26 -29 -36 -28 -88 2 -74 11 -119 24 -113 6 3 9
38 7 82 -3 67 -1 79 17 97 25 25 41 27 41 6 0 -20 19 -19 26 0 8 20 -13 45
-38 45 -11 0 -33 -13 -49 -29z"/>
<path d="M13571 10143 c-32 -26 -33 -86 -2 -136 33 -53 51 -34 23 23 -32 64
-11 105 49 95 21 -4 40 -2 43 4 8 13 -3 19 -50 27 -31 4 -45 1 -63 -13z"/>
<path d="M13780 10128 c-11 -18 -20 -38 -20 -45 0 -7 -6 -10 -14 -7 -18 7 -22
-1 -30 -58 -11 -71 12 -62 54 23 49 100 62 108 59 36 -1 -31 0 -59 3 -63 12
-12 49 18 77 63 27 43 29 45 40 25 6 -11 11 -32 11 -45 0 -39 24 -53 56 -32
24 15 25 28 3 31 -5 1 -13 2 -18 3 -5 0 -11 14 -14 29 -8 38 -40 77 -56 67 -7
-4 -26 -28 -42 -53 l-29 -46 0 36 c0 52 -9 68 -36 68 -17 0 -31 -10 -44 -32z"/>
<path d="M6080 10110 c-22 -22 -42 -51 -46 -65 -11 -43 10 -55 95 -55 88 0
121 7 121 25 0 9 -21 11 -89 7 -51 -3 -91 -1 -94 5 -8 13 33 68 66 88 32 19
35 35 7 35 -11 0 -38 -18 -60 -40z"/>
<path d="M7476 10141 c-4 -6 -6 -37 -5 -69 1 -33 -1 -64 -5 -70 -8 -14 14 -52
31 -52 9 0 11 25 8 97 -3 89 -13 120 -29 94z"/>
<path d="M10365 10141 c-30 -13 -57 -47 -53 -68 2 -10 22 -28 46 -41 44 -24
54 -45 26 -56 -27 -11 -52 -7 -58 10 -8 20 -26 9 -26 -16 0 -39 110 -38 130 1
17 30 4 53 -43 79 -23 13 -44 25 -46 26 -10 9 25 34 54 40 23 4 32 10 28 20
-6 15 -27 17 -58 5z"/>
<path d="M10551 10133 c-23 -19 -21 -25 20 -91 13 -21 12 -25 -6 -38 -17 -12
-20 -12 -28 1 -8 15 -37 21 -37 7 0 -17 32 -52 49 -52 23 0 61 41 61 66 0 10
-9 30 -20 44 -26 33 -25 39 6 50 14 6 22 14 19 20 -10 15 -41 12 -64 -7z"/>
<path d="M10773 10111 c-92 -66 -109 -131 -43 -163 37 -19 135 -24 159 -9 26
16 2 28 -48 23 -60 -5 -121 13 -121 36 0 9 7 26 15 36 13 17 15 17 21 3 6 -17
34 -24 34 -9 0 4 13 8 30 9 51 4 73 21 65 51 -15 60 -50 68 -112 23z m75 -23
c2 -11 -7 -18 -27 -23 -45 -10 -58 4 -24 26 31 21 47 20 51 -3z"/>
<path d="M6551 10089 c-51 -61 -43 -113 16 -111 36 1 126 31 135 45 10 16 -8
44 -42 64 -17 9 -30 23 -30 30 0 28 -46 12 -79 -28z m119 -49 c0 -9 -71 -30
-99 -30 -28 0 -27 27 1 57 l21 23 39 -22 c21 -12 38 -25 38 -28z"/>
<path d="M9757 10110 c-14 -11 -38 -46 -53 -77 -25 -50 -28 -53 -36 -33 -4 12
-6 26 -3 30 10 17 -14 20 -29 4 -13 -12 -14 -20 -5 -36 14 -26 17 -59 19 -176
1 -82 3 -93 18 -90 13 2 18 16 20 58 3 74 10 100 26 100 60 0 138 160 106 219
-14 26 -30 26 -63 1z m37 -57 c-9 -51 -40 -110 -63 -123 -29 -15 -32 -13 -25
18 24 101 105 198 88 105z"/>
<path d="M2412 10089 c-22 -11 -48 -29 -57 -39 -17 -19 -17 -20 1 -27 10 -4
19 -2 22 5 5 15 62 46 69 38 4 -3 -6 -34 -20 -68 -15 -35 -27 -66 -27 -70 0
-15 23 -8 52 17 36 31 46 31 50 3 4 -29 40 -34 91 -13 52 22 65 53 41 102 -18
36 -43 45 -36 13 15 -68 15 -68 -16 -84 -42 -22 -52 -20 -52 9 0 31 -21 41
-51 25 -20 -11 -21 -10 -14 6 5 11 10 35 13 55 5 46 -13 54 -66 28z"/>
<path d="M12149 10108 c-1 -1 -2 -31 -3 -66 -2 -52 1 -62 14 -60 19 4 22 119
2 126 -6 2 -13 2 -13 0z"/>
<path d="M14998 10093 c-9 -10 -28 -28 -42 -40 -30 -25 -34 -63 -8 -86 24 -21
82 -30 115 -18 39 15 37 64 -5 119 -18 23 -35 42 -38 42 -3 0 -13 -8 -22 -17z
m62 -97 c0 -22 -72 -22 -91 0 -11 14 -10 20 14 40 l27 23 25 -23 c14 -13 25
-31 25 -40z"/>
<path d="M10115 10065 c-38 -48 -40 -109 -5 -137 21 -17 35 -19 83 -15 59 5
95 23 79 39 -5 5 -20 4 -36 -2 -46 -17 -93 -12 -110 11 -19 28 -12 43 26 55
40 12 57 37 42 62 -20 31 -50 26 -79 -13z m49 -4 c3 -5 -1 -11 -9 -14 -9 -4
-12 -1 -8 9 6 16 10 17 17 5z"/>
<path d="M12267 10078 c-30 -28 -48 -71 -37 -88 10 -16 30 -4 30 19 0 9 9 27
20 39 17 18 25 20 41 11 17 -9 20 -19 17 -62 -4 -62 10 -72 28 -20 16 47 9 77
-23 103 -33 26 -46 25 -76 -2z"/>
<path d="M4802 9884 c-8 -8 -16 -39 -19 -70 -3 -30 -9 -57 -13 -59 -17 -11
-86 -15 -100 -6 -13 9 -12 17 4 66 14 40 16 59 8 67 -8 8 -15 0 -27 -28 -9
-22 -19 -51 -22 -66 -3 -16 -8 -28 -11 -28 -3 0 -20 12 -39 26 -19 14 -37 23
-41 20 -10 -10 11 -39 45 -61 27 -17 31 -28 37 -80 9 -86 29 -175 38 -175 18
0 19 30 4 110 -23 121 -26 115 44 115 35 1 60 -4 60 -10 0 -5 -5 -37 -10 -70
-19 -115 15 -128 82 -33 52 74 70 87 93 68 14 -12 16 -25 11 -76 -5 -52 -3
-63 12 -78 16 -14 21 -14 31 -3 9 11 8 17 -2 26 -10 7 -12 27 -9 66 4 48 1 59
-18 80 -43 45 -78 30 -140 -61 -18 -25 -33 -44 -34 -42 -9 11 22 159 37 175
12 14 17 37 17 81 0 64 -11 77 -38 46z"/>
<path d="M11062 9857 c-6 -7 -11 -42 -10 -78 1 -35 0 -110 -1 -166 -3 -103 1
-123 22 -123 9 0 12 48 12 184 0 101 -3 187 -6 190 -3 4 -11 0 -17 -7z"/>
<path d="M13124 9854 c5 -11 10 -44 13 -75 5 -52 4 -57 -17 -64 -29 -9 -91 3
-112 22 -16 14 -18 14 -24 -2 -10 -26 19 -43 88 -51 56 -6 59 -8 54 -30 -8
-30 -10 -154 -3 -161 16 -15 25 16 30 103 5 90 13 113 39 114 3 0 4 -17 1 -37
-6 -54 9 -118 29 -118 8 0 31 20 49 44 19 25 39 44 44 43 18 -3 18 -78 0 -96
-20 -20 -11 -36 21 -36 23 0 24 3 24 66 0 36 -5 74 -10 85 -18 32 -55 24 -88
-21 l-30 -41 -6 26 c-8 31 0 85 20 138 16 42 9 110 -10 104 -6 -2 -16 -26 -22
-54 -6 -28 -14 -56 -18 -62 -14 -22 -26 -10 -27 27 -1 56 -13 86 -33 90 -15 3
-17 0 -12 -14z"/>
<path d="M8174 9847 c-3 -9 3 -48 15 -86 28 -92 27 -149 -2 -192 -43 -64 -96
-63 -97 1 0 30 43 60 84 60 29 0 33 11 12 29 -11 9 -23 8 -52 -4 -59 -24 -74
-43 -74 -90 0 -101 112 -99 161 3 24 49 22 126 -5 221 -18 63 -32 82 -42 58z"/>
<path d="M8916 9852 c-3 -5 -8 -39 -12 -76 l-7 -67 -81 2 c-64 2 -81 -1 -81
-12 0 -11 20 -15 83 -17 l82 -3 0 -115 c0 -88 3 -115 13 -112 8 3 13 38 15
116 2 102 4 112 22 112 10 0 31 11 47 24 l29 24 -4 -89 c-5 -108 7 -116 65
-40 21 28 43 50 48 50 17 1 75 -58 75 -75 0 -50 57 -84 142 -84 66 0 98 9 98
25 0 10 -13 12 -54 8 -65 -7 -120 2 -141 23 -21 22 -19 44 5 44 11 0 36 7 55
14 32 14 35 19 35 54 0 73 -52 81 -109 17 -17 -19 -33 -35 -37 -35 -3 0 -19
11 -35 25 -36 29 -50 25 -89 -29 l-31 -41 5 55 c16 169 16 200 2 200 -7 0 -21
-20 -30 -45 -16 -42 -65 -95 -88 -95 -6 0 -8 16 -4 43 11 75 11 100 -1 104 -6
2 -14 0 -17 -5z m402 -189 c-2 -21 -10 -29 -37 -35 -46 -12 -49 -4 -13 32 38
37 54 38 50 3z"/>
<path d="M12135 9850 c-4 -6 -3 -16 3 -22 6 -6 -2 -27 -24 -61 -19 -28 -34
-56 -34 -61 0 -5 -18 -5 -42 -1 -65 11 -113 11 -116 0 -2 -5 30 -16 71 -24
l75 -14 0 -46 c2 -80 52 -119 155 -120 59 -1 135 30 161 66 10 14 21 45 24 68
l4 42 73 7 c41 4 85 4 99 0 20 -5 26 -2 26 9 0 24 -34 30 -124 22 l-81 -6 -47
43 c-79 74 -204 129 -223 98z m126 -79 c56 -38 79 -56 79 -65 0 -3 -52 -6
-116 -6 l-116 0 17 28 c28 44 57 72 75 72 9 0 36 -13 61 -29z m116 -137 c-3
-20 -12 -43 -19 -51 -21 -26 -90 -53 -135 -53 -84 0 -123 30 -123 96 l0 44
141 0 142 0 -6 -36z"/>
<path d="M3695 9823 c-7 -27 -10 -74 -19 -280 -4 -82 -2 -104 10 -114 12 -10
18 -9 32 5 13 12 14 19 5 24 -16 10 -18 268 -3 327 13 54 12 65 -4 65 -8 0
-17 -12 -21 -27z"/>
<path d="M13717 9843 c-4 -3 -7 -37 -7 -75 l0 -69 -55 6 c-45 6 -55 5 -55 -8
0 -15 40 -27 91 -27 35 0 44 -25 37 -106 -5 -54 4 -76 24 -56 11 11 14 116 4
148 -6 20 -2 21 70 28 73 6 114 21 97 36 -4 4 -40 3 -79 -3 -96 -14 -104 -10
-104 55 0 53 -10 84 -23 71z"/>
<path d="M2592 9763 c-6 -38 -8 -80 -5 -95 5 -26 3 -28 -26 -28 -43 0 -42 -28
1 -32 26 -2 33 -9 40 -33 12 -45 41 -95 55 -95 18 0 16 13 -9 66 -21 43 -22
46 -5 55 22 13 22 25 -1 31 -24 7 -34 61 -21 114 12 56 11 84 -5 84 -9 0 -17
-23 -24 -67z"/>
<path d="M6446 9765 c-4 -11 8 -24 38 -42 74 -45 75 -56 16 -119 -28 -30 -48
-59 -45 -64 8 -13 35 -13 35 1 0 5 23 32 51 59 l51 49 -18 32 c-17 28 -97 96
-115 98 -4 1 -10 -6 -13 -14z"/>
<path d="M11235 9721 c-45 -28 -82 -72 -88 -105 -14 -79 47 -115 190 -116 l93
0 -3 35 c-2 38 -25 48 -34 15 -5 -17 -14 -20 -69 -20 -35 0 -82 7 -104 16 -34
14 -40 21 -40 45 0 25 5 29 38 35 48 9 112 41 112 57 0 21 -30 57 -48 57 -9 0
-30 -8 -47 -19z m55 -25 c0 -8 -21 -21 -46 -30 -42 -14 -45 -14 -33 1 8 9 27
22 44 29 38 17 35 17 35 0z"/>
<path d="M2365 9710 c-10 -16 4 -30 29 -30 29 0 39 10 25 27 -13 15 -45 17
-54 3z"/>
<path d="M10343 9693 c-31 -34 -43 -64 -43 -108 0 -27 20 -65 34 -65 15 0 76
32 87 46 13 16 14 14 19 -17 3 -19 11 -35 20 -37 13 -2 15 14 15 94 0 88 -2
98 -20 105 -43 17 -85 10 -112 -18z m95 -33 c4 -32 -56 -100 -88 -100 -21 0
-22 4 -17 41 7 51 42 91 77 87 18 -2 26 -10 28 -28z"/>
<path d="M10600 9703 c-49 -34 -89 -94 -90 -135 0 -42 28 -36 36 8 7 39 57
104 80 104 25 0 46 -46 43 -97 -3 -37 0 -48 11 -48 37 0 25 121 -16 166 -21
23 -33 24 -64 2z"/>
<path d="M3875 9692 c-46 -38 -64 -76 -58 -119 8 -59 39 -85 100 -84 81 1 105
12 109 49 3 21 -1 32 -9 32 -19 0 -42 -18 -42 -32 0 -17 -92 -23 -111 -7 -24
19 -17 46 14 52 37 8 96 49 100 71 9 46 -63 73 -103 38z m69 -27 c4 -10 -8
-22 -37 -36 -23 -12 -45 -27 -49 -33 -5 -7 -8 -4 -8 7 0 22 52 77 73 77 8 0
17 -7 21 -15z"/>
<path d="M6987 9688 c-2 -7 2 -22 8 -33 16 -25 30 -213 25 -330 -7 -181 -6
-209 10 -213 24 -4 31 222 13 439 -6 70 -13 131 -17 138 -10 15 -33 14 -39 -1z"/>
<path d="M2746 9669 c-20 -17 -20 -17 27 -63 32 -32 47 -55 47 -73 l0 -26 -25
23 c-31 29 -45 18 -23 -18 26 -42 54 -40 75 4 14 28 15 38 6 41 -7 3 -13 11
-13 19 0 8 -18 27 -41 44 l-41 29 29 6 c46 11 53 14 53 25 0 16 -70 8 -94 -11z"/>
<path d="M10803 9678 c-79 -21 -85 -169 -7 -168 29 1 104 37 110 55 11 29 21
15 37 -54 25 -101 26 -98 -43 -103 -45 -3 -66 -10 -85 -28 -65 -61 4 -187 97
-178 39 4 70 50 78 118 4 40 8 45 33 48 33 4 31 24 -3 32 -20 5 -26 15 -36 70
-7 36 -20 85 -28 109 -9 24 -16 54 -16 67 0 15 -6 24 -15 24 -9 0 -15 -9 -15
-24 0 -33 -43 -82 -85 -96 -42 -14 -55 -7 -55 28 0 44 26 72 66 72 19 0 34 4
34 10 0 18 -34 27 -67 18z m157 -333 c0 -19 -7 -53 -16 -75 -20 -50 -52 -54
-95 -10 -24 23 -30 37 -27 62 4 39 34 58 96 58 41 0 42 -1 42 -35z"/>
<path d="M7685 9672 c-41 -8 -65 -42 -65 -92 0 -68 32 -89 85 -54 24 16 25 16
25 -8 0 -24 16 -48 33 -48 5 0 7 10 3 23 -3 12 0 48 6 80 12 57 12 59 -12 77
-29 22 -48 28 -75 22z m45 -51 c0 -24 -47 -81 -66 -81 -20 0 -18 64 2 84 23
23 64 21 64 -3z"/>
<path d="M13448 9653 c-32 -35 -48 -66 -48 -93 0 -29 21 -34 65 -16 46 20 45
20 45 -3 0 -10 7 -24 14 -31 20 -15 61 -9 61 10 0 10 -8 14 -24 12 -23 -4 -24
-2 -17 37 7 48 -4 53 -56 21 -18 -11 -39 -20 -46 -20 -19 0 16 55 45 71 13 7
23 18 23 26 0 22 -35 14 -62 -14z"/>
<path d="M4133 9635 c-26 -31 -29 -32 -28 -12 0 12 -4 24 -10 27 -11 5 -28
-127 -18 -142 7 -12 33 11 33 29 0 18 58 103 70 103 10 0 16 -17 26 -72 4 -25
12 -38 21 -38 13 0 15 9 9 47 -7 56 -30 93 -56 93 -10 0 -31 -16 -47 -35z"/>
<path d="M6815 9633 c4 -16 6 -75 6 -133 -2 -193 10 -390 25 -390 11 0 12 49
9 256 -2 140 -7 264 -10 275 -4 10 -13 19 -22 19 -12 0 -14 -6 -8 -27z"/>
<path d="M7875 9650 c-3 -5 -12 -7 -19 -4 -18 7 -22 -1 -31 -63 -9 -66 7 -70
36 -9 35 75 71 71 74 -7 2 -49 11 -70 26 -62 14 9 11 81 -5 120 -12 29 -20 35
-45 35 -16 0 -32 -4 -36 -10z"/>
<path d="M4363 9623 c-49 -31 -72 -75 -53 -98 16 -19 46 -19 100 0 24 8 44 14
45 13 2 -2 6 -26 10 -54 l6 -51 -52 -7 c-70 -10 -109 -47 -109 -106 0 -36 6
-48 39 -81 32 -33 45 -39 80 -39 36 0 44 4 61 33 14 23 20 50 20 94 l0 62 35
-2 c46 -3 44 15 -4 31 -39 13 -40 14 -45 75 -4 34 -7 82 -9 107 -2 45 -2 45
-42 48 -30 2 -51 -4 -82 -25z m87 -26 c0 -26 -25 -41 -85 -53 -36 -6 -37 -6
-25 15 13 26 67 61 93 61 11 0 17 -8 17 -23z m24 -213 c9 -24 7 -100 -4 -128
-14 -37 -62 -36 -101 3 -50 51 -35 115 31 131 54 12 67 11 74 -6z"/>
<path d="M6260 9641 c-88 -10 -55 -26 53 -26 90 0 119 6 103 22 -9 9 -95 11
-156 4z"/>
<path d="M5945 9631 c-3 -6 -1 -29 5 -52 24 -86 4 -512 -24 -531 -8 -5 -7 -11
2 -20 6 -6 12 -22 12 -35 0 -16 6 -23 20 -23 26 0 36 25 20 45 -10 11 -11 36
-5 93 4 42 10 113 15 157 8 88 4 255 -8 324 -7 43 -24 62 -37 42z"/>
<path d="M2395 9532 c0 -66 3 -87 13 -87 9 0 15 16 18 45 2 25 5 52 6 60 4 45
-3 70 -19 70 -16 0 -18 -11 -18 -88z"/>
<path d="M5787 9593 c-13 -12 -7 -43 8 -43 9 0 15 9 15 25 0 24 -10 32 -23 18z"/>
<path d="M5775 9475 c4 -40 0 -134 -11 -246 -12 -126 -14 -183 -6 -191 15 -15
35 1 28 25 -3 11 2 95 11 186 17 180 13 275 -14 285 -13 5 -14 -2 -8 -59z"/>
<path d="M6489 9444 c-6 -8 -8 -14 -3 -14 5 0 2 -5 -6 -10 -8 -5 -41 -10 -73
-10 -52 0 -58 -2 -67 -26 -6 -14 -10 -48 -10 -75 0 -51 -13 -89 -30 -89 -6 0
-10 5 -10 11 0 6 -13 41 -30 79 -16 38 -30 80 -30 94 0 19 -5 26 -20 26 -17 0
-19 -4 -14 -27 12 -51 75 -208 89 -222 30 -30 74 40 80 126 3 62 13 73 64 73
41 0 111 20 111 32 0 4 -9 17 -19 27 -17 17 -21 18 -32 5z"/>
<path d="M2563 8959 c-15 -29 -38 -59 -50 -67 -23 -14 -23 -14 -23 38 0 44 -3
51 -17 48 -15 -3 -17 -12 -15 -55 l4 -52 -49 -7 c-26 -4 -67 -7 -90 -6 -31 1
-43 -3 -43 -13 0 -7 8 -16 18 -19 19 -6 93 -1 134 9 22 6 23 4 20 -50 -4 -51
-2 -55 18 -55 12 0 18 4 15 10 -4 6 -4 32 0 59 5 41 11 50 41 66 20 10 42 30
50 44 14 24 14 17 9 -76 -9 -159 11 -194 63 -108 15 25 30 45 34 45 3 0 12
-16 18 -35 6 -19 21 -40 33 -46 12 -7 34 -27 50 -45 21 -26 41 -35 93 -47 67
-16 88 -14 112 10 11 11 3 13 -45 13 -49 0 -143 28 -143 43 0 1 16 1 35 -1 25
-3 42 1 55 13 25 23 25 40 0 65 -28 28 -72 25 -104 -7 -31 -31 -39 -26 -71 40
-11 23 -26 42 -33 42 -7 0 -25 -20 -41 -44 l-30 -44 2 138 c2 159 -6 174 -50
94z m303 -240 c11 -18 -13 -32 -43 -24 -27 6 -27 7 -9 21 24 17 42 18 52 3z"/>
<path d="M4535 8981 c-3 -16 -7 -68 -7 -115 -1 -64 -5 -86 -15 -86 -19 0 -16
-28 3 -32 9 -2 24 -27 35 -57 24 -70 48 -106 61 -93 6 6 3 23 -10 49 -27 52
-38 113 -22 113 7 0 39 -10 71 -22 l58 -23 -6 -41 c-5 -36 -2 -43 14 -48 20
-7 96 16 120 35 7 6 13 18 13 25 0 23 -75 65 -121 69 -24 2 -64 10 -88 19 -24
9 -52 16 -62 16 -14 0 -19 8 -20 28 -2 50 1 117 7 155 5 29 2 37 -9 37 -9 0
-18 -13 -22 -29z m270 -291 c4 -7 -53 -40 -71 -40 -9 0 -3 27 12 48 12 18 19
20 34 12 10 -6 22 -14 25 -20z"/>
<path d="M9384 8952 c-21 -15 -45 -27 -53 -27 -8 0 -24 -33 -41 -80 -15 -44
-42 -120 -59 -169 -17 -49 -28 -92 -25 -97 8 -13 24 -11 29 4 18 58 89 246
100 267 17 34 90 100 110 100 9 0 15 -9 14 -22 0 -34 -33 -146 -59 -205 -19
-43 -21 -54 -11 -67 18 -22 26 -14 41 41 12 46 30 79 30 57 0 -6 10 -21 23
-34 12 -14 22 -31 23 -40 1 -8 2 -25 3 -37 2 -38 36 -63 85 -63 49 0 103 16
129 38 26 23 5 37 -26 17 -14 -9 -50 -19 -79 -22 -61 -6 -82 8 -76 52 2 21 11
30 41 40 50 17 87 52 87 82 0 51 -66 41 -122 -18 l-37 -39 -18 26 c-19 29 -21
72 -8 146 13 81 -28 101 -101 50z m256 -172 c0 -10 -58 -50 -72 -50 -19 0 -5
22 25 40 36 22 47 25 47 10z"/>
<path d="M8160 8962 c0 -5 3 -12 7 -15 6 -7 5 -149 -2 -156 -3 -2 -29 -3 -60
-2 -30 0 -55 -3 -55 -8 0 -16 15 -21 64 -22 25 -1 46 -5 46 -8 0 -3 -7 -40
-16 -81 -21 -99 -22 -105 -4 -105 9 0 18 14 22 35 5 19 14 64 21 99 12 61 15
65 65 97 l51 33 -5 -32 c-4 -18 -15 -62 -25 -98 -20 -69 -24 -99 -12 -99 3 0
37 29 74 65 37 36 72 65 78 65 5 0 11 -27 13 -62 2 -50 6 -63 21 -66 19 -4 37
30 19 36 -7 2 -12 25 -12 57 0 68 -15 83 -62 59 -18 -9 -45 -28 -60 -42 -16
-14 -28 -24 -28 -21 0 2 7 29 15 59 8 30 15 70 15 87 0 18 5 53 12 78 7 24 9
47 5 51 -13 14 -47 -30 -54 -68 -4 -30 -14 -45 -42 -64 -47 -32 -54 -30 -49
11 3 27 1 32 -9 23 -10 -8 -9 -2 1 24 18 42 11 78 -15 78 -11 0 -19 -4 -19 -8z"/>
<path d="M11711 8932 c-8 -15 -7 -23 4 -32 11 -9 15 -9 15 -1 0 6 6 10 13 9 6
-2 12 6 12 17 0 26 -31 31 -44 7z"/>
<path d="M6542 8888 c-7 -7 -12 -17 -12 -23 0 -23 -114 -115 -143 -115 -8 0
-23 -12 -32 -27 -17 -26 -19 -26 -26 -8 -4 11 -13 48 -20 83 -9 49 -16 62 -28
60 -22 -4 -26 -54 -7 -74 13 -12 16 -38 16 -117 0 -62 -4 -97 -9 -88 -10 16
-31 6 -31 -14 0 -16 30 -35 54 -35 13 0 16 12 16 57 0 48 4 61 27 85 15 15 33
28 41 28 25 0 83 -51 94 -81 5 -16 14 -29 18 -29 37 0 5 79 -44 110 -21 12
-36 24 -34 25 2 2 31 24 65 49 60 44 100 97 88 116 -8 13 -18 13 -33 -2z"/>
<path d="M10587 8811 l-43 -40 -11 28 c-10 29 -56 47 -88 35 -17 -7 -29 -39
-20 -54 10 -16 22 -12 28 10 4 16 10 18 29 11 65 -24 -1 -141 -79 -141 -14 0
-23 -6 -23 -15 0 -21 54 -20 87 2 19 12 28 14 30 6 3 -7 14 -24 25 -38 16 -21
27 -25 57 -23 24 2 36 8 36 18 0 11 -9 14 -32 12 -66 -7 -65 68 3 149 19 22
34 38 34 35 0 -4 11 1 25 10 26 17 25 34 -1 34 -8 0 -34 -18 -57 -39z"/>
<path d="M11903 8843 c-30 -6 -45 -27 -41 -60 2 -22 13 -33 51 -51 53 -25 62
-55 27 -87 -20 -18 -21 -18 -45 5 -23 21 -55 22 -55 1 0 -19 70 -53 96 -47 25
7 64 59 64 87 0 21 -39 56 -78 70 -48 17 -39 43 16 47 44 3 50 10 30 30 -12
12 -24 13 -65 5z"/>
<path d="M7944 8825 c1 -8 8 -21 14 -27 16 -16 37 4 29 26 -8 21 -46 21 -43 1z"/>
<path d="M11492 8800 c-18 -22 -37 -40 -41 -40 -4 0 -22 14 -39 31 -19 19 -38
29 -47 25 -21 -8 -19 -21 9 -39 56 -37 58 -43 26 -94 -17 -26 -30 -52 -30 -58
0 -23 29 -11 40 16 7 15 20 35 30 44 17 15 20 15 44 0 14 -10 26 -21 26 -25 0
-10 62 -40 72 -34 14 9 9 24 -9 31 -10 4 -37 23 -61 42 l-42 35 45 46 c42 43
48 60 21 60 -6 0 -26 -18 -44 -40z"/>
<path d="M11184 8815 c-44 -18 -84 -70 -84 -109 0 -57 44 -74 94 -35 l26 20 0
-21 c0 -29 48 -76 63 -61 8 8 5 17 -13 36 -19 20 -22 31 -17 67 4 24 10 53 13
66 5 16 2 22 -10 22 -9 0 -16 4 -16 9 0 16 -26 19 -56 6z m41 -35 c14 -23 -48
-100 -82 -100 -24 0 -14 51 16 81 30 29 55 37 66 19z"/>
<path d="M3856 8779 c-23 -27 -26 -39 -26 -107 0 -93 -11 -118 -33 -76 -8 16
-20 54 -27 84 -16 69 -38 112 -53 107 -20 -6 -20 -48 1 -70 11 -12 23 -40 27
-62 17 -99 76 -150 103 -90 7 14 12 59 12 100 0 95 16 116 89 114 26 -1 53 1
59 5 28 17 7 26 -57 26 -65 0 -71 -2 -95 -31z"/>
<path d="M4278 8783 c-45 -48 -62 -106 -40 -139 20 -31 170 -46 192 -19 7 8
11 15 9 16 -2 0 -38 1 -79 3 -42 1 -81 6 -88 10 -34 21 15 123 57 118 17 -1
22 2 19 15 -5 29 -41 27 -70 -4z"/>
<path d="M7608 8753 c-38 -20 -68 -42 -68 -50 0 -20 17 -16 76 18 59 33 64 32
34 -11 -65 -91 -53 -161 15 -90 16 17 31 30 34 30 4 0 12 -13 19 -30 24 -52
86 -48 111 7 15 32 4 113 -16 120 -23 9 -26 -4 -15 -49 9 -35 8 -47 -4 -65
-20 -32 -31 -29 -54 17 -11 22 -24 40 -29 40 -5 0 -21 -10 -37 -22 l-29 -23
24 40 c14 22 31 49 38 60 37 55 -5 59 -99 8z"/>
<path d="M4032 8758 c-47 -52 -56 -128 -17 -154 20 -13 37 -15 83 -9 64 8 99
22 85 36 -5 5 -33 5 -68 -1 -33 -5 -68 -7 -77 -4 -22 7 -24 52 -3 60 8 4 15
13 15 21 0 13 3 13 16 3 13 -11 18 -10 36 7 16 17 18 24 9 42 -15 28 -52 27
-79 -1z m48 -18 c0 -5 -7 -10 -16 -10 -8 0 -12 5 -9 10 3 6 10 10 16 10 5 0 9
-4 9 -10z"/>
<path d="M4906 8767 c-10 -8 -18 -25 -18 -39 0 -29 41 -98 60 -98 18 0 15 24
-9 54 -36 46 -23 61 54 64 64 3 85 13 51 26 -29 11 -120 6 -138 -7z"/>
<path d="M6885 8755 c-41 -40 -33 -52 57 -93 115 -52 110 -96 -11 -98 -49 -1
-66 -4 -66 -15 0 -19 87 -24 138 -9 46 13 63 43 48 83 -8 21 -28 36 -78 59
-38 17 -70 33 -73 36 -3 2 7 14 23 26 15 12 27 25 27 29 0 16 -43 5 -65 -18z"/>
<path d="M11686 8772 c-11 -18 -17 -158 -7 -172 5 -8 13 -12 16 -8 11 10 17
176 6 182 -5 4 -12 3 -15 -2z"/>
<path d="M6625 8727 c-93 -89 -36 -155 110 -128 32 6 60 11 62 11 2 0 8 12 13
26 15 39 1 50 -26 21 -16 -17 -38 -27 -71 -32 -79 -10 -141 25 -70 40 56 13
107 37 117 56 14 25 -13 49 -56 49 -26 0 -44 -10 -79 -43z m105 8 c0 -4 -79
-45 -87 -45 -12 0 2 18 25 32 25 16 62 24 62 13z"/>
<path d="M5743 8713 l-31 -38 -24 23 c-29 26 -58 29 -58 5 -1 -17 -1 -17 -11
0 -5 9 -15 17 -22 17 -16 0 -17 -172 -1 -177 11 -4 54 83 54 110 0 26 13 26
33 1 l20 -25 32 31 32 31 11 -40 c14 -44 26 -52 60 -40 31 12 30 41 -2 33 -22
-5 -25 -2 -31 33 -15 87 -19 89 -62 36z"/>
<path d="M5991 8728 c-65 -52 -91 -126 -52 -147 14 -8 30 -5 67 14 l47 24 29
-25 c32 -26 68 -32 68 -11 0 7 -13 18 -29 24 -26 9 -30 17 -33 54 -3 50 -31
63 -36 18 -4 -38 -102 -91 -102 -55 0 22 40 66 61 66 13 0 19 7 19 24 0 34
-11 38 -39 14z"/>
<path d="M10817 8728 c-35 -10 -57 -31 -44 -44 3 -3 26 2 52 10 29 10 60 14
85 10 41 -7 50 2 28 24 -14 14 -67 14 -121 0z"/>
<path d="M7932 8698 c-1 -18 -6 -49 -12 -68 -6 -22 -6 -38 0 -44 18 -18 30 8
37 77 5 55 3 67 -9 67 -10 0 -15 -11 -16 -32z"/>
<path d="M2460 8691 c0 -44 18 -87 32 -73 15 15 1 102 -18 102 -9 0 -14 -10
-14 -29z"/>
<path d="M5459 8158 c0 -2 -2 -21 -5 -43 -7 -65 -25 -137 -49 -191 -20 -46
-26 -52 -64 -60 -47 -10 -55 -27 -15 -32 17 -2 24 0 20 7 -4 7 -1 8 8 5 19 -7
19 1 1 -80 -9 -36 -14 -69 -11 -71 13 -13 36 9 36 34 1 15 9 50 18 77 15 44
22 50 67 67 28 11 58 19 68 19 19 0 21 8 8 29 -8 12 -17 11 -61 -7 -38 -16
-51 -18 -47 -8 20 52 46 150 51 199 6 48 5 57 -8 57 -9 0 -16 -1 -17 -2z"/>
<path d="M2736 8119 c-10 -15 -20 -18 -39 -14 -20 5 -29 1 -42 -18 -20 -31
-37 -180 -34 -309 2 -54 0 -100 -3 -104 -10 -10 -48 39 -82 106 -18 36 -48
123 -66 193 -27 105 -36 127 -52 127 -18 0 -27 -35 -10 -42 4 -1 21 -52 37
-112 43 -166 120 -306 168 -306 35 0 42 29 43 189 1 180 13 241 47 241 42 0
65 12 70 35 5 31 -18 40 -37 14z"/>
<path d="M3306 8123 c-3 -3 -6 -43 -6 -87 0 -109 -5 -123 -44 -130 -38 -7 -74
-31 -64 -42 5 -4 26 -2 49 5 22 7 43 11 45 8 2 -2 8 -31 12 -66 8 -57 24 -92
37 -79 3 3 1 36 -4 74 -6 37 -8 70 -5 73 2 3 29 5 59 6 29 0 57 3 60 7 4 4 14
4 22 1 11 -4 14 -1 11 8 -3 10 -25 15 -76 17 l-72 3 0 99 c0 91 -7 120 -24
103z"/>
<path d="M5664 8039 c-8 -14 18 -31 30 -19 9 9 0 30 -14 30 -5 0 -12 -5 -16
-11z"/>
<path d="M6277 7942 c-47 -48 -49 -82 -7 -112 37 -26 38 -39 4 -71 -23 -21
-27 -22 -37 -8 -15 20 -37 13 -37 -11 0 -32 24 -43 62 -27 77 33 94 104 33
137 -33 18 -32 43 5 73 17 14 30 30 30 36 0 24 -19 18 -53 -17z"/>
<path d="M4625 7922 c-16 -11 -36 -26 -43 -34 -7 -9 -21 -14 -31 -11 -16 4
-19 -1 -19 -35 0 -22 -8 -66 -18 -98 -30 -104 -62 -269 -54 -278 11 -12 30 2
30 22 1 9 11 52 24 95 16 55 29 82 47 94 108 72 183 200 143 244 -21 24 -41
24 -79 1z m60 -22 c16 -26 -66 -153 -117 -181 -16 -9 -17 -5 -13 33 7 54 47
123 83 142 33 18 39 19 47 6z"/>
<path d="M5954 7911 c-18 -11 -35 -24 -38 -30 -5 -7 -11 -7 -20 2 -10 9 -11
14 -2 19 7 5 5 8 -6 8 -11 0 -19 -11 -23 -32 -4 -18 -20 -59 -36 -91 -32 -64
-35 -77 -16 -77 7 0 36 34 65 75 45 65 99 115 124 115 4 0 -11 -37 -33 -82
-42 -87 -46 -124 -16 -142 14 -9 26 -6 55 10 38 23 61 49 50 59 -4 4 -24 -5
-45 -19 -68 -47 -69 -33 -8 93 25 50 43 96 40 101 -10 16 -58 11 -91 -9z"/>
<path d="M6835 7920 c-10 -16 4 -50 21 -50 8 0 14 8 14 19 0 23 -25 47 -35 31z"/>
<path d="M4977 7890 c-37 -29 -66 -150 -37 -150 13 0 33 48 32 74 -2 38 18 59
49 52 24 -4 29 -2 29 13 0 17 -18 31 -39 31 -5 0 -20 -9 -34 -20z"/>
<path d="M2832 7875 c-17 -14 -34 -25 -40 -25 -5 0 -13 -21 -17 -46 -10 -67
12 -88 82 -81 58 6 100 24 86 38 -5 5 -32 4 -66 -3 -41 -9 -60 -9 -68 -1 -17
17 -1 50 29 57 76 18 100 44 70 74 -19 19 -44 14 -76 -13z m48 -15 c-8 -5 -19
-10 -25 -10 -5 0 -3 5 5 10 8 5 20 10 25 10 6 0 3 -5 -5 -10z"/>
<path d="M3068 7888 c-20 -16 -58 -78 -58 -95 0 -7 9 -22 20 -33 31 -31 160
-27 160 4 0 9 -21 12 -67 12 -61 -1 -68 1 -71 20 -2 11 11 37 28 58 16 22 30
40 30 42 0 9 -27 3 -42 -8z"/>
<path d="M3713 7880 c-45 -27 -64 -117 -34 -154 22 -26 30 -9 24 47 -5 50 -4
55 23 76 19 15 38 21 57 18 31 -4 47 10 26 24 -23 14 -62 10 -96 -11z"/>
<path d="M4793 7875 c-43 -30 -89 -135 -59 -135 8 0 27 -8 44 -17 29 -16 62
-13 62 7 0 5 -9 10 -20 10 -28 0 -25 15 6 28 33 16 59 75 44 102 -13 24 -47
26 -77 5z m47 -34 c0 -19 -43 -61 -61 -61 -17 0 -9 27 16 54 29 31 45 33 45 7z"/>
<path d="M5673 7849 c-34 -32 -43 -49 -43 -75 0 -58 57 -72 111 -27 53 45 79
133 39 133 -16 0 -20 -7 -20 -36 0 -61 -88 -124 -98 -70 -5 22 45 76 71 76 12
0 17 6 15 17 -6 31 -32 25 -75 -18z"/>
<path d="M4306 7847 c-79 -75 -75 -187 8 -187 62 0 136 67 136 124 0 35 -34
76 -63 76 -9 0 -19 5 -22 10 -10 16 -22 12 -59 -23z m108 -39 c25 -41 -47
-123 -104 -116 -23 3 -25 7 -24 47 1 35 7 49 29 68 32 28 82 28 99 1z"/>
<path d="M5146 7840 c-41 -45 -54 -83 -36 -105 17 -21 32 -19 73 9 l36 25 3
-27 c2 -17 10 -28 22 -30 16 -3 18 0 12 23 -4 15 -2 42 4 61 19 56 2 59 -50
10 -27 -26 -56 -46 -65 -46 -14 0 -14 3 2 31 10 17 30 41 46 52 32 24 35 37 8
37 -10 0 -35 -18 -55 -40z"/>
<path d="M3504 7845 c-56 -23 -88 -98 -60 -140 23 -35 62 -33 109 6 31 25 37
37 37 68 0 35 -13 56 -45 74 -6 3 -24 -1 -41 -8z m40 -31 c28 -11 20 -60 -13
-83 -33 -24 -60 -27 -62 -8 -3 31 4 54 24 75 22 24 27 25 51 16z"/>
<path d="M5534 7798 c-36 -58 -41 -93 -15 -93 8 0 15 10 16 21 1 12 16 44 33
71 37 57 37 60 17 60 -9 0 -32 -27 -51 -59z"/>
<path d="M6764 7749 c-7 -12 12 -29 33 -29 19 0 27 21 12 31 -19 12 -36 11
-45 -2z"/>
<path d="M3100 7272 c-23 -7 -70 -54 -86 -85 -27 -51 -34 -119 -19 -183 7 -32
12 -60 11 -61 -1 -1 -26 -8 -54 -16 -30 -7 -49 -17 -45 -22 5 -5 0 -3 -10 4
-13 11 -21 11 -29 3 -8 -8 -4 -14 15 -21 26 -10 35 -9 75 6 44 16 54 14 46 -9
-9 -29 -49 -108 -67 -131 -8 -9 -21 -15 -30 -11 -8 3 -18 1 -21 -4 -10 -17 5
-42 24 -42 36 0 111 116 125 193 5 27 12 37 25 37 22 0 53 28 45 40 -3 5 -17
5 -32 -1 -36 -14 -44 -2 -50 74 -6 73 7 123 44 167 19 23 30 29 49 24 17 -4
24 -2 24 9 0 20 -21 35 -40 29z"/>
<path d="M13483 7238 c3 -13 9 -57 12 -98 6 -66 4 -83 -18 -141 -37 -99 -40
-191 -6 -209 46 -25 128 51 143 135 10 50 -14 101 -52 108 l-29 6 -8 110 c-6
102 -8 111 -27 111 -16 0 -19 -5 -15 -22z m95 -277 c2 -19 1 -44 -2 -57 -9
-33 -55 -84 -77 -84 -22 0 -21 -5 -9 84 12 80 23 98 59 94 21 -2 27 -9 29 -37z"/>
<path d="M13967 7254 c-4 -4 -7 -30 -7 -58 0 -28 -3 -81 -6 -118 l-7 -67 -41
-3 c-28 -2 -41 -8 -41 -18 0 -11 9 -14 38 -12 31 3 37 0 37 -15 0 -24 -19
-180 -26 -215 -4 -21 -2 -28 9 -28 21 0 24 11 38 144 l12 118 53 -7 c64 -8 83
0 57 24 -13 12 -30 16 -61 13 l-43 -4 7 108 c4 60 8 115 8 123 1 16 -17 25
-27 15z"/>
<path d="M10630 7223 c-8 -3 -31 -16 -50 -29 l-35 -23 1 -128 c1 -197 3 -218
19 -239 12 -16 16 -17 24 -4 6 8 6 19 1 25 -9 11 -16 142 -12 257 2 71 4 79
27 94 56 36 164 30 215 -12 38 -32 38 -63 1 -103 -26 -28 -35 -31 -85 -31
l-56 0 0 70 c0 53 -3 70 -14 70 -32 0 -28 -310 4 -371 17 -32 33 -23 25 14
-13 60 -21 167 -12 167 18 0 124 -119 142 -159 19 -42 45 -55 45 -22 0 24 -75
126 -124 169 l-37 32 45 0 c52 0 94 30 120 85 16 34 16 38 -1 68 -27 47 -93
77 -168 76 -33 0 -67 -3 -75 -6z"/>
<path d="M6320 7132 c0 -49 -3 -110 -6 -136 l-7 -46 -46 0 c-51 0 -77 -12 -67
-29 5 -7 26 -9 63 -5 l55 7 -6 -29 c-5 -27 -9 -106 -7 -146 1 -10 8 -18 16
-18 12 0 15 14 15 63 0 34 3 79 6 100 7 37 7 37 55 37 l48 0 -15 -35 c-19 -47
-18 -71 7 -96 25 -25 54 -18 92 22 35 38 34 70 -4 108 -29 29 -35 31 -106 31
l-75 0 5 33 c4 17 7 75 9 127 2 83 0 95 -15 98 -15 3 -17 -7 -17 -86z m185
-236 c13 -19 14 -29 6 -45 -18 -32 -71 -40 -71 -10 0 20 29 79 39 79 6 0 18
-11 26 -24z"/>
<path d="M8004 7143 c-3 -32 -20 -103 -36 -158 -41 -139 -44 -155 -25 -155 9
0 18 12 22 28 6 28 59 102 73 102 4 0 18 -21 31 -46 27 -49 54 -73 86 -74 11
0 43 -3 71 -6 37 -4 60 -1 83 10 35 19 41 36 11 36 -11 0 -20 -4 -20 -10 0 -5
-22 -10 -50 -10 -54 0 -61 7 -31 34 31 28 45 70 31 95 -12 23 -23 26 -49 11
-20 -10 -51 -78 -51 -112 0 -20 -1 -20 -20 -3 -11 10 -29 38 -41 62 -24 50
-38 59 -67 44 -20 -10 -20 -9 -6 42 7 28 16 78 20 110 6 48 4 57 -9 57 -11 0
-17 -15 -23 -57z m202 -215 c-19 -26 -22 -7 -4 25 7 13 13 17 15 10 3 -7 -3
-23 -11 -35z"/>
<path d="M9655 7157 c-8 -12 -15 -26 -15 -32 -1 -5 -14 -25 -30 -44 l-30 -35
-23 22 c-32 30 -90 29 -156 -4 -60 -30 -76 -57 -67 -108 8 -41 38 -66 78 -66
29 0 127 50 148 75 20 24 27 18 51 -39 22 -53 56 -85 78 -72 19 12 12 36 -9
36 -11 0 -23 8 -26 18 -3 9 -15 36 -26 60 l-20 42 32 37 c30 34 60 90 60 112
0 20 -30 19 -45 -2z m-147 -179 c-60 -54 -87 -65 -117 -48 -74 39 58 137 142
106 l28 -11 -53 -47z"/>
<path d="M4324 7145 c-4 -8 -1 -22 6 -30 10 -12 10 -27 0 -75 -12 -55 -15 -60
-49 -72 -20 -6 -42 -13 -50 -14 -26 -5 -36 -23 -16 -30 11 -5 20 -3 23 4 2 7
8 9 14 6 6 -4 13 -2 17 4 4 7 12 7 20 2 12 -7 11 -18 -3 -74 -19 -78 -20 -106
-3 -106 8 0 20 33 31 85 10 47 24 91 30 99 6 8 38 17 70 21 l60 7 -17 -24
c-19 -24 -41 -70 -51 -104 -3 -11 0 -28 8 -39 13 -18 15 -17 57 18 l43 37 12
-29 c22 -52 70 -50 113 5 34 43 23 134 -16 134 -11 0 -14 -6 -8 -22 18 -59 17
-73 -11 -101 -31 -31 -54 -23 -54 20 0 37 -27 39 -71 4 -47 -39 -51 -23 -9 42
17 26 30 57 30 69 0 20 -3 21 -76 15 -70 -6 -76 -5 -69 11 13 31 15 125 4 139
-15 17 -28 17 -35 -2z"/>
<path d="M13732 7103 c5 -25 28 -28 28 -4 0 12 -6 21 -16 21 -9 0 -14 -7 -12
-17z"/>
<path d="M10100 7101 c-53 -11 -134 -59 -153 -91 -32 -54 -13 -112 50 -151 32
-20 55 -24 141 -27 96 -4 132 3 132 27 0 3 -40 5 -88 3 -49 -2 -107 1 -130 7
-45 13 -92 60 -92 94 0 19 1 20 13 3 11 -16 24 -17 110 -10 67 5 97 11 97 19
0 21 -30 26 -92 15 -33 -6 -73 -8 -90 -5 -28 7 -28 8 -13 25 23 25 101 58 154
64 48 5 56 10 46 25 -7 12 -31 12 -85 2z"/>
<path d="M11324 7095 c-8 -19 2 -45 16 -45 5 0 10 14 10 30 0 31 -16 41 -26
15z"/>
<path d="M5750 7070 c-101 -18 -103 -21 -115 -135 -11 -104 -26 -122 -40 -48
-4 20 -15 54 -25 74 -11 20 -17 39 -14 41 2 3 -3 11 -11 18 -11 9 -19 10 -26
3 -7 -7 -3 -26 14 -59 13 -27 28 -65 32 -84 13 -61 33 -100 48 -94 24 9 47 73
54 151 6 74 7 76 39 89 18 8 52 14 74 14 33 0 40 3 40 20 0 21 -2 22 -70 10z"/>
<path d="M8414 7007 c-37 -38 -44 -50 -44 -84 0 -45 8 -57 26 -42 8 7 11 22 7
40 -4 24 1 35 31 65 32 32 41 36 72 31 29 -5 35 -3 32 11 -2 12 -15 18 -41 20
-34 3 -44 -2 -83 -41z"/>
<path d="M13017 7019 c-44 -36 -67 -77 -67 -117 0 -59 48 -65 103 -14 l27 26
0 -28 c0 -37 45 -83 65 -66 13 11 11 15 -10 32 -28 22 -31 46 -13 111 10 40 9
46 -10 65 -30 30 -51 28 -95 -9z m61 -30 c-1 -39 -72 -119 -89 -102 -18 18 -1
64 37 100 44 41 53 41 52 2z"/>
<path d="M8598 7024 c-75 -40 -76 -150 -2 -190 33 -18 35 -18 67 -1 35 19 63
72 45 83 -6 4 -15 -1 -20 -11 -14 -23 -46 -55 -57 -55 -4 0 -20 11 -35 25 -28
26 -35 55 -13 55 19 0 97 53 97 66 0 13 -33 44 -46 44 -5 -1 -21 -7 -36 -16z
m42 -22 c0 -4 -15 -16 -32 -26 l-33 -18 28 26 c30 27 37 31 37 18z"/>
<path d="M6812 6987 c-52 -52 -53 -77 -7 -113 19 -14 32 -30 29 -35 -3 -5 -26
-9 -50 -9 -59 0 -55 -24 4 -28 85 -6 113 48 47 90 -19 13 -35 27 -35 32 0 4
19 25 41 46 23 21 39 43 35 49 -11 18 -19 14 -64 -32z"/>
<path d="M11465 7004 c-33 -35 -32 -67 3 -94 15 -11 37 -29 49 -38 12 -9 23
-26 25 -37 3 -17 -3 -20 -32 -20 -23 0 -34 4 -32 13 1 6 -5 12 -14 12 -8 0
-12 -4 -9 -10 3 -5 1 -10 -4 -10 -17 0 -13 -27 5 -34 9 -3 36 -6 60 -6 38 0
46 4 56 26 16 34 -3 69 -57 105 -49 33 -51 59 -8 79 18 8 33 21 33 28 0 22
-50 13 -75 -14z"/>
<path d="M13252 7005 c-17 -14 -35 -26 -39 -25 -4 0 -9 -34 -11 -76 -2 -65 -1
-75 13 -72 12 2 17 17 19 56 4 65 41 112 89 112 39 0 30 24 -10 28 -21 2 -40
-5 -61 -23z"/>
<path d="M6070 6997 c-32 -16 -82 -92 -82 -124 0 -42 25 -58 89 -55 68 2 95
10 90 25 -2 6 -30 9 -75 8 -67 -2 -72 -1 -72 19 0 32 47 100 70 100 24 0 33
15 17 28 -9 8 -20 7 -37 -1z"/>
<path d="M14141 6993 c-25 -21 -59 -169 -41 -187 18 -18 32 9 36 68 5 71 18
96 49 96 16 0 25 6 25 15 0 8 -4 15 -9 15 -5 0 -16 2 -24 5 -7 3 -24 -2 -36
-12z"/>
<path d="M6644 6992 c-19 -12 -31 -45 -43 -116 -8 -44 -9 -72 -2 -79 18 -18
28 2 34 68 9 91 15 100 71 96 29 -1 46 2 46 9 0 12 -10 16 -60 24 -19 3 -40 2
-46 -2z"/>
<path d="M5813 6968 c-71 -79 -56 -178 28 -178 34 0 80 20 73 31 -3 5 0 9 6 9
6 0 9 4 5 9 -3 6 -20 4 -42 -5 -20 -9 -46 -13 -59 -10 -19 5 -24 13 -24 41 0
26 5 35 23 40 60 19 88 38 85 59 -5 32 -67 35 -95 4z"/>
<path d="M7655 6983 c-42 -9 -95 -37 -95 -50 0 -17 18 -16 50 2 27 16 90 20
90 7 0 -5 -18 -37 -41 -72 -55 -85 -38 -102 29 -29 l50 54 7 -30 c10 -39 33
-65 58 -65 25 0 87 62 87 88 0 34 -19 74 -33 69 -13 -5 -13 -6 -2 -49 6 -22 1
-32 -21 -53 -15 -14 -32 -24 -38 -22 -5 2 -14 23 -20 48 -8 32 -16 44 -29 43
-12 -1 -17 6 -17 22 0 17 -8 27 -26 34 -14 6 -26 9 -27 9 -1 -1 -11 -3 -22 -6z"/>
<path d="M11346 6974 c-3 -9 -6 -33 -6 -54 0 -21 -4 -50 -9 -63 -11 -29 10
-70 27 -52 15 16 21 185 6 185 -6 0 -15 -7 -18 -16z"/>
<path d="M14317 6952 c-20 -20 -42 -52 -48 -71 -10 -29 -9 -35 8 -52 23 -23
55 -15 87 20 l19 21 11 -21 c13 -26 32 -22 29 6 -10 75 -22 81 -69 30 -17 -19
-39 -35 -47 -35 -23 0 -4 49 35 89 20 20 28 35 22 41 -6 6 -23 -4 -47 -28z"/>
<path d="M14511 6962 c-50 -50 -67 -149 -24 -140 14 3 17 12 15 35 -4 42 22
91 54 99 14 4 23 11 21 18 -7 22 -38 17 -66 -12z"/>
<path d="M12024 6934 c-39 -40 -45 -52 -42 -83 4 -51 41 -71 87 -48 32 16 33
16 38 -3 3 -12 14 -20 25 -20 15 0 18 4 13 18 -5 9 -8 48 -9 85 -1 56 -5 71
-20 83 -31 22 -43 17 -92 -32z m81 -4 c10 -16 -15 -79 -35 -90 -62 -33 -81 13
-28 67 33 34 52 41 63 23z"/>
<path d="M12198 6973 c-3 -5 -2 -50 0 -101 4 -99 20 -120 35 -45 7 37 57 103
78 103 5 0 9 -31 9 -69 0 -83 12 -99 64 -81 37 12 63 36 52 47 -4 4 -16 2 -26
-5 -11 -7 -29 -12 -40 -12 -19 0 -20 5 -18 65 2 49 -1 68 -13 81 -15 14 -19
14 -47 0 -17 -9 -37 -25 -45 -36 -14 -20 -15 -20 -21 14 -7 35 -21 54 -28 39z"/>
<path d="M14765 6825 c-101 -211 -138 -335 -100 -335 9 0 15 9 15 23 0 42 40
148 111 296 38 79 69 150 69 157 0 41 -28 -2 -95 -141z"/>
<path d="M4776 6963 c-4 -5 -13 -8 -19 -8 -7 0 -11 -7 -10 -16 2 -8 -6 -33
-17 -54 -24 -47 -25 -64 -4 -93 21 -31 57 -28 99 9 46 41 49 90 7 117 -17 10
-26 24 -24 35 3 17 -18 24 -32 10z m32 -69 c29 -20 28 -48 -4 -73 -51 -40 -74
-16 -48 49 18 45 21 46 52 24z"/>
<path d="M14636 6933 c20 -108 70 -155 108 -101 20 29 10 43 -19 24 -22 -14
-23 -13 -38 22 -9 20 -18 48 -19 62 -2 15 -10 26 -21 28 -16 3 -17 -1 -11 -35z"/>
<path d="M3195 6938 c18 -56 17 -83 -5 -111 -12 -15 -28 -27 -37 -27 -23 0
-11 76 17 105 22 23 15 40 -13 29 -23 -8 -59 -99 -51 -129 13 -53 61 -50 107
5 41 48 34 150 -10 150 -11 0 -14 -6 -8 -22z"/>
<path d="M3321 6941 c-28 -28 -48 -98 -32 -114 14 -14 31 6 31 38 0 11 7 31
16 44 14 19 23 22 51 18 41 -7 63 0 63 19 0 23 -105 19 -129 -5z"/>
<path d="M13706 6895 c-19 -46 -16 -80 7 -72 6 2 11 10 9 16 -1 6 5 25 13 41
18 35 19 60 3 60 -7 0 -21 -20 -32 -45z"/>
<path d="M13671 6714 c-40 -33 -75 -101 -91 -176 -8 -36 -18 -58 -27 -58 -7 0
-13 -7 -13 -15 0 -8 7 -15 16 -15 14 0 15 -9 9 -65 -5 -53 -4 -65 8 -65 15 0
27 47 27 108 0 29 3 32 28 30 37 -4 42 15 6 27 -16 5 -30 10 -31 10 -8 4 31
124 49 152 28 46 64 69 82 54 15 -13 23 -6 22 19 -2 27 -51 23 -85 -6z"/>
<path d="M5544 6700 c-28 -4 -114 -10 -192 -14 -151 -6 -172 -10 -172 -33 0
-10 9 -13 33 -9 17 3 82 8 142 11 61 3 154 10 208 16 54 6 100 9 103 7 2 -3
-2 -18 -11 -34 -9 -18 -15 -56 -15 -101 0 -64 2 -73 18 -73 10 0 27 6 37 14
16 11 22 11 45 -2 17 -10 26 -22 23 -32 -8 -32 24 -88 66 -114 32 -20 53 -26
98 -26 64 0 75 5 92 37 16 31 -7 43 -30 15 -38 -48 -166 -14 -188 49 -6 18
-11 34 -11 35 0 2 24 4 54 4 44 0 58 4 69 21 15 21 9 71 -12 92 -15 15 -54 0
-87 -32 -34 -36 -49 -38 -66 -11 -15 24 -31 25 -48 5 -24 -29 -32 -16 -28 45
3 38 11 66 22 79 10 11 16 28 14 38 -3 15 -14 18 -58 19 -30 1 -78 -2 -106 -6z
m346 -195 c0 -23 -4 -25 -42 -25 l-41 0 23 25 c13 14 32 25 42 25 13 0 18 -7
18 -25z"/>
<path d="M3272 6613 c3 -77 3 -78 -22 -81 -52 -6 -70 -13 -70 -28 0 -13 7 -15
38 -10 20 4 45 9 54 12 25 7 33 -54 20 -140 -12 -75 -3 -104 19 -65 8 15 13
60 14 116 l0 93 26 0 c48 0 89 12 89 27 0 11 -14 13 -62 11 l-63 -3 -9 73 c-7
51 -13 72 -24 72 -11 0 -13 -16 -10 -77z"/>
<path d="M7503 6628 c0 -35 -4 -122 -8 -193 -7 -115 -6 -132 9 -144 23 -19 45
1 26 24 -10 12 -11 41 -5 128 13 195 12 241 -5 245 -13 2 -16 -9 -17 -60z"/>
<path d="M10450 6601 l0 -81 -46 0 c-38 0 -45 -3 -42 -17 3 -14 12 -17 44 -15
39 3 42 2 48 -29 3 -17 6 -51 6 -75 0 -40 13 -64 28 -50 7 7 4 87 -4 129 l-6
27 58 -2 c80 -4 84 18 5 27 l-60 7 -3 76 c-2 49 -7 77 -15 80 -10 3 -13 -17
-13 -77z"/>
<path d="M13110 6631 c0 -17 5 -33 10 -36 6 -3 10 -26 10 -51 0 -41 -2 -45
-20 -39 -25 8 -28 -20 -4 -33 15 -9 15 -12 -1 -39 -20 -35 -80 -78 -94 -68
-20 12 -11 38 29 77 59 60 50 82 -15 33 -75 -58 -70 -161 8 -141 96 24 152
162 116 289 -12 45 -39 51 -39 8z"/>
<path d="M4005 6641 c-3 -6 -3 -16 0 -22 4 -6 2 -31 -5 -55 -12 -44 -14 -45
-49 -42 -47 4 -52 -14 -7 -26 31 -8 36 -13 36 -40 1 -42 16 -106 29 -119 22
-22 31 7 16 48 -8 22 -14 52 -15 66 0 26 1 26 96 33 103 7 118 11 108 28 -4 7
-39 8 -102 3 l-95 -7 9 28 c18 65 3 143 -21 105z"/>
<path d="M7019 6640 c-9 -5 -31 -33 -49 -60 -31 -48 -32 -53 -21 -92 7 -22 11
-41 9 -43 -2 -2 -23 0 -48 5 -50 9 -55 8 -47 -14 4 -9 28 -16 65 -21 55 -6 61
-9 80 -44 24 -43 21 -51 -20 -51 -43 0 -30 -24 15 -28 31 -3 39 1 48 22 10 21
8 31 -9 60 l-21 35 25 -11 c18 -8 28 -8 35 -1 8 8 3 16 -19 27 -17 9 -38 16
-47 16 -18 0 -35 38 -35 77 0 29 44 93 64 93 8 0 21 -16 30 -35 18 -38 32 -50
40 -36 14 22 -42 111 -68 111 -6 0 -18 -5 -27 -10z"/>
<path d="M7410 6648 c0 -2 -3 -64 -5 -138 -6 -142 -1 -190 18 -190 9 0 12 42
12 153 -1 173 -1 177 -15 177 -5 0 -10 -1 -10 -2z"/>
<path d="M14525 6627 c-22 -34 -35 -84 -35 -133 0 -36 -6 -47 -40 -78 -41 -37
-64 -44 -75 -25 -14 22 6 56 46 78 34 20 39 25 26 33 -20 11 -69 -13 -91 -44
-19 -27 -21 -79 -4 -96 7 -7 24 -12 38 -12 28 0 100 44 100 62 0 5 18 -6 40
-26 26 -23 50 -36 68 -36 45 0 122 30 122 47 0 11 -6 13 -22 8 -108 -32 -131
-30 -163 19 -14 22 -15 28 -2 53 17 34 30 160 17 168 -5 3 -16 -5 -25 -18z"/>
<path d="M10684 6626 c-6 -17 2 -36 17 -36 12 0 12 37 -1 45 -6 3 -13 -1 -16
-9z"/>
<path d="M8210 6598 c0 -16 19 -38 33 -38 4 0 7 10 5 22 -3 25 -38 39 -38 16z"/>
<path d="M11346 6595 c-19 -20 -20 -32 -1 -65 18 -32 19 -71 2 -94 -12 -16
-16 -17 -35 -5 -12 7 -24 10 -28 7 -12 -13 5 -37 32 -44 20 -5 32 -1 52 20 31
30 35 90 9 129 -12 18 -13 27 -4 36 8 8 8 14 0 22 -7 7 -15 5 -27 -6z"/>
<path d="M13812 6573 c4 -36 32 -39 32 -3 0 16 -6 26 -18 28 -14 3 -17 -2 -14
-25z"/>
<path d="M5423 6573 c-4 -9 -1 -60 5 -112 7 -53 12 -117 12 -143 0 -40 3 -46
16 -41 15 6 16 18 9 112 -5 58 -8 127 -8 154 1 35 -2 47 -13 47 -8 0 -18 -8
-21 -17z"/>
<path d="M11057 6542 c-15 -10 -34 -27 -42 -38 -14 -19 -14 -19 -28 0 -20 27
-31 4 -17 -38 6 -19 9 -39 8 -46 -2 -7 2 -14 9 -17 6 -2 20 15 31 39 23 51 54
81 79 76 14 -3 18 -13 19 -49 2 -98 34 -105 34 -8 0 46 -4 63 -20 79 -25 25
-37 25 -73 2z"/>
<path d="M13286 6539 c-36 -28 -82 -97 -90 -136 -11 -49 7 -73 54 -73 70 0
181 52 158 75 -2 2 -31 -7 -64 -20 -62 -26 -109 -32 -119 -15 -11 18 15 48 52
60 45 15 93 57 93 81 0 52 -37 65 -84 28z m54 -23 c0 -16 -51 -56 -71 -56 -7
0 2 16 21 35 37 38 50 43 50 21z"/>
<path d="M9640 6543 c-8 -2 -32 -23 -52 -46 -28 -31 -38 -37 -39 -24 -1 9 -2
23 -3 29 0 7 -10 14 -20 16 -17 4 -18 0 -11 -29 5 -19 9 -84 9 -146 1 -61 4
-114 8 -118 15 -16 26 8 32 75 6 58 10 70 25 70 28 0 98 67 111 106 10 30 9
38 -6 55 -17 19 -27 21 -54 12z m30 -53 c0 -23 -64 -90 -85 -90 -20 0 -19 8 6
50 34 58 79 81 79 40z"/>
<path d="M9784 6518 c-48 -54 -53 -69 -37 -109 19 -48 70 -71 117 -53 31 12
18 33 -16 28 -33 -5 -85 22 -63 32 40 18 90 52 101 69 12 18 11 24 -2 43 -23
33 -64 29 -100 -10z m76 -11 c0 -16 -66 -54 -76 -45 -9 9 42 58 61 58 8 0 15
-6 15 -13z"/>
<path d="M12192 6527 c-39 -41 -67 -139 -45 -160 11 -11 31 13 26 31 -2 10 5
39 17 66 20 47 21 48 55 42 40 -8 46 5 13 28 -30 21 -41 20 -66 -7z"/>
<path d="M9336 6515 c-30 -28 -36 -84 -11 -105 20 -17 112 -8 132 13 25 24 9
66 -32 83 -18 7 -36 18 -40 24 -9 15 -20 12 -49 -15z m94 -50 c18 -21 7 -28
-42 -29 -37 -1 -43 2 -46 22 -3 20 1 22 36 22 23 0 45 -6 52 -15z"/>
<path d="M9975 6520 c-25 -27 -29 -125 -5 -125 11 0 15 12 16 46 2 63 9 72 51
66 28 -5 34 -3 31 11 -5 27 -69 28 -93 2z"/>
<path d="M11985 6531 c-55 -23 -81 -95 -46 -130 26 -26 47 -26 88 -1 l32 19
13 -26 c7 -15 19 -29 27 -31 10 -3 11 3 5 29 -5 19 -7 54 -6 79 2 40 -1 46
-25 58 -30 14 -59 15 -88 3z m73 -48 c2 -14 -7 -29 -31 -47 -40 -31 -53 -32
-65 -8 -13 23 -1 51 29 68 34 19 63 14 67 -13z"/>
<path d="M14188 6524 c-45 -24 -74 -104 -50 -140 10 -17 84 -46 100 -39 23 9
8 28 -32 39 -21 6 -38 16 -38 21 0 6 24 19 54 30 59 23 73 52 42 86 -20 23
-39 23 -76 3z m57 -34 c0 -7 -17 -19 -37 -26 -44 -15 -49 -4 -11 26 28 22 48
22 48 0z"/>
<path d="M2304 6520 c-27 -10 -72 -65 -80 -95 -18 -71 23 -118 101 -117 60 2
85 10 79 26 -3 9 -21 11 -58 8 -30 -2 -63 1 -75 7 -28 15 -28 58 2 102 19 28
30 35 65 37 46 3 58 25 20 36 -28 7 -28 7 -54 -4z"/>
<path d="M8441 6519 c-43 -17 -151 -93 -151 -106 0 -18 35 -16 50 2 19 23 64
54 103 70 l34 14 -5 -68 c-3 -47 -1 -71 7 -76 19 -11 22 -2 27 81 4 94 -6 107
-65 83z"/>
<path d="M12365 6521 c-97 -24 -137 -132 -60 -161 56 -21 173 2 162 32 -2 7
-11 11 -18 9 -80 -23 -91 -24 -116 -15 -40 13 -43 55 -7 83 15 11 32 21 38 21
6 0 -4 -9 -21 -20 -33 -20 -43 -40 -20 -40 23 0 117 60 117 75 0 8 -4 15 -9
15 -5 0 -15 2 -23 4 -7 2 -26 1 -43 -3z"/>
<path d="M2963 6508 c-53 -17 -43 -42 28 -68 67 -26 80 -41 54 -69 -19 -22
-73 -47 -81 -38 -3 3 -7 25 -9 49 -2 24 -4 45 -4 47 -1 2 -8 -3 -17 -10 -12
-10 -14 -23 -10 -53 12 -70 37 -81 104 -47 78 40 82 108 7 137 -50 19 -59 34
-19 34 16 0 24 5 22 13 -6 16 -35 18 -75 5z"/>
<path d="M8638 6493 c-27 -30 -48 -65 -48 -82 0 -41 83 -54 137 -21 39 24 44
18 52 -66 l7 -64 -28 0 c-93 0 -146 -89 -99 -166 24 -40 103 -73 126 -54 20
16 35 74 35 134 l0 49 80 -6 c63 -5 80 -4 80 7 0 16 -43 26 -110 26 -53 0 -59
8 -61 85 -1 58 -30 139 -51 143 -12 2 -18 -3 -18 -17 0 -26 -46 -61 -81 -61
-39 0 -38 27 2 68 17 17 28 36 24 42 -10 16 -19 12 -47 -17z m152 -317 c0 -29
-5 -67 -11 -84 -10 -28 -13 -30 -37 -21 -106 40 -87 155 26 158 20 1 22 -3 22
-53z"/>
<path d="M10769 6491 c-35 -35 -38 -72 -8 -102 18 -18 30 -20 67 -16 78 9 105
65 57 120 -33 37 -77 37 -116 -2z m92 -20 c20 -16 22 -23 13 -38 -16 -25 -61
-40 -82 -27 -25 16 -26 40 -3 63 26 26 42 26 72 2z"/>
<path d="M10187 6499 c-22 -13 -47 -61 -47 -92 0 -40 21 -49 63 -28 34 17 37
18 37 2 0 -21 36 -61 55 -61 25 0 25 18 0 34 -19 12 -25 25 -25 52 0 47 -23
54 -60 19 -17 -16 -33 -26 -36 -22 -10 9 16 66 35 77 11 6 13 12 6 19 -7 6
-16 6 -28 0z"/>
<path d="M2701 6483 c-21 -18 -55 -119 -45 -135 14 -23 32 -5 37 37 5 47 29
85 54 85 18 0 33 -42 33 -95 0 -53 8 -75 26 -75 14 0 13 12 -1 129 -8 64 -59
91 -104 54z"/>
<path d="M13934 6490 c-47 -19 -94 -99 -80 -136 5 -13 9 -14 21 -4 8 7 12 16
9 21 -9 15 26 68 56 84 26 14 30 13 38 -1 5 -9 5 -36 -1 -65 -7 -36 -6 -53 3
-64 17 -20 29 -10 28 23 -1 15 2 46 7 68 6 35 4 45 -14 63 -23 23 -34 25 -67
11z"/>
<path d="M3540 6483 c-50 -18 -86 -96 -59 -129 14 -17 54 -12 81 12 14 14 17
12 28 -20 13 -41 39 -60 61 -45 11 8 10 12 -11 28 -21 17 -24 26 -23 80 2 50
-1 63 -17 71 -20 11 -36 12 -60 3z m45 -34 c9 -13 -21 -46 -57 -65 -26 -13
-28 -13 -28 4 0 22 18 45 45 60 25 14 32 15 40 1z"/>
<path d="M7639 6467 c-88 -75 -49 -201 51 -165 56 19 69 84 27 130 -12 13 -22
30 -22 38 0 23 -28 22 -56 -3z m53 -54 c39 -35 14 -87 -39 -81 -22 2 -29 9
-31 30 -7 57 32 86 70 51z"/>
<path d="M10654 6466 c-9 -36 -1 -70 17 -74 20 -4 33 26 20 42 -6 7 -8 22 -4
34 4 16 1 22 -11 22 -8 0 -18 -11 -22 -24z"/>
<path d="M2495 6470 c-3 -5 -15 -10 -25 -10 -24 0 -42 -33 -38 -68 4 -38 62
-75 103 -66 81 17 98 63 41 120 -33 33 -69 44 -81 24z m75 -60 c16 -30 12 -39
-22 -48 -59 -16 -115 33 -75 66 32 26 78 18 97 -18z"/>
<path d="M7850 6465 c-7 -8 -15 -35 -18 -60 -8 -74 24 -93 97 -55 l38 19 23
-24 c16 -17 34 -25 57 -25 38 0 40 2 46 88 4 47 2 62 -8 62 -17 0 -28 -32 -28
-82 0 -29 -4 -38 -16 -38 -24 0 -41 20 -41 46 0 32 -20 40 -39 17 -17 -21 -71
-53 -91 -53 -14 0 -11 69 3 88 15 20 -7 37 -23 17z"/>
<path d="M3737 6452 c-17 -11 -31 -31 -38 -55 -5 -21 -13 -45 -16 -53 -3 -8 1
-14 11 -14 9 0 25 20 38 47 27 54 42 60 46 18 6 -68 13 -95 27 -95 11 0 13 13
8 68 -9 104 -22 118 -76 84z"/>
<path d="M8168 6463 c-8 -15 7 -143 17 -146 17 -4 18 128 1 142 -8 7 -16 8
-18 4z"/>
<path d="M13747 6443 c-10 -10 -8 -96 3 -113 7 -11 12 -12 21 -3 9 9 9 20 0
44 -8 23 -8 36 0 45 17 20 -6 46 -24 27z"/>
<path d="M7163 6429 c-33 -33 1 -89 53 -89 32 0 74 28 74 49 0 17 -31 41 -53
41 -12 0 -31 3 -42 6 -11 3 -26 -1 -32 -7z m85 -41 c-7 -20 -54 -22 -61 -4 -5
13 1 16 29 16 24 0 34 -4 32 -12z"/>
<path d="M4190 6365 c0 -21 28 -31 43 -16 9 9 8 14 -3 21 -22 14 -40 12 -40
-5z"/>
<path d="M2640 6201 c0 -6 -3 -10 -7 -9 -5 1 -20 -2 -36 -6 -41 -12 -67 -51
-67 -102 l0 -43 -47 -3 c-71 -5 -68 -28 4 -28 56 -1 59 -2 95 -45 23 -26 36
-49 32 -58 -7 -20 -87 -58 -115 -54 -31 3 -35 -21 -5 -29 34 -8 112 23 136 54
28 35 25 56 -12 98 l-33 37 35 -6 c64 -12 73 -12 77 0 4 12 -49 31 -102 35
-27 3 -30 7 -33 40 -4 43 14 63 79 88 46 18 55 33 22 38 -13 2 -23 -1 -23 -7z"/>
<path d="M4527 6066 c-6 -14 42 -71 81 -96 22 -15 22 -15 4 -27 -18 -10 -19
-9 -14 9 5 19 2 20 -24 14 -16 -4 -81 -11 -144 -16 -158 -11 -200 -19 -200
-38 0 -12 9 -13 48 -8 26 3 79 8 117 11 39 3 97 8 130 11 l60 6 -40 -32 c-22
-17 -46 -38 -52 -47 -18 -23 -16 -53 2 -53 8 0 15 7 15 15 0 19 43 58 108 97
28 18 52 38 52 45 0 7 -18 24 -40 38 -21 14 -49 38 -61 55 -25 33 -34 37 -42
16z"/>
<path d="M3032 6048 c-28 -14 -37 -48 -26 -101 12 -56 30 -48 26 13 -3 58 14
73 70 63 33 -5 59 9 40 21 -20 12 -89 15 -110 4z"/>
<path d="M8320 6026 c0 -8 5 -18 10 -21 6 -3 10 -41 10 -85 0 -62 3 -79 16
-84 9 -3 20 -4 25 0 12 7 11 34 -1 34 -6 0 -10 30 -10 71 0 57 -4 75 -17 85
-23 17 -33 17 -33 0z"/>
<path d="M2778 6004 c-55 -29 -45 -93 16 -114 64 -21 156 23 139 67 -6 15 -64
47 -103 56 -14 3 -37 -1 -52 -9z m100 -42 c31 -18 27 -30 -14 -41 -55 -15
-110 13 -85 43 13 16 68 14 99 -2z"/>
<path d="M10760 5989 c-74 -60 -172 -168 -201 -222 -57 -108 -52 -238 16 -382
49 -103 105 -162 194 -203 53 -24 76 -31 84 -23 13 13 -3 33 -29 37 -38 6
-126 58 -154 92 -44 53 -97 162 -110 229 -31 147 10 254 147 383 47 44 89 80
94 80 5 0 9 7 9 15 0 21 -20 18 -50 -6z"/>
<path d="M9415 5940 c-8 -13 3 -30 20 -30 8 0 30 -14 49 -31 l35 -30 -44 -55
c-25 -30 -45 -61 -45 -69 0 -25 25 -17 42 13 9 15 36 47 60 71 40 40 42 44 24
55 -11 6 -36 25 -55 42 -41 36 -76 50 -86 34z"/>
<path d="M12650 5924 c0 -3 31 -36 68 -72 95 -93 117 -142 117 -258 0 -83 -3
-95 -34 -157 -42 -82 -174 -215 -195 -198 -22 19 -39 -11 -25 -43 11 -24 39
-37 39 -18 0 4 12 15 28 24 43 26 132 118 167 173 47 73 67 135 68 207 2 90
-57 210 -141 291 -52 49 -92 71 -92 51z"/>
<path d="M5563 5871 c-76 -91 -103 -169 -103 -296 0 -95 20 -145 78 -202 34
-33 117 -73 151 -73 25 0 9 27 -23 38 -55 20 -132 96 -153 150 -26 68 -24 192
5 255 30 66 79 127 97 120 11 -4 15 2 15 21 0 39 -29 33 -67 -13z"/>
<path d="M7660 5877 c0 -7 17 -23 38 -35 56 -32 119 -102 132 -149 8 -24 10
-59 6 -87 -7 -46 -125 -298 -145 -311 -14 -8 -5 -25 13 -25 16 0 130 218 151
287 31 101 13 173 -60 248 -64 66 -135 103 -135 72z"/>
<path d="M9420 5838 c-15 -6 -66 -8 -128 -4 -95 5 -103 4 -100 -12 4 -19 16
-21 140 -22 76 -1 134 14 131 35 -2 14 -15 15 -43 3z"/>
<path d="M6955 5718 c-49 -25 -75 -47 -75 -65 0 -20 19 -16 52 12 46 39 51 29
12 -22 -89 -116 -94 -176 -18 -202 56 -19 87 -9 150 51 l54 51 0 -35 c0 -39
15 -58 45 -58 28 0 85 37 85 55 0 19 -2 19 -44 -6 -19 -11 -41 -17 -47 -13
-19 11 -3 108 27 169 21 40 25 58 17 66 -8 8 -18 -2 -38 -38 -86 -152 -164
-230 -220 -219 -16 4 -36 13 -44 21 -13 13 -13 20 6 57 11 24 39 68 62 98 40
53 54 101 29 99 -7 -1 -31 -10 -53 -21z"/>
<path d="M8309 5700 c-32 -31 -33 -58 -4 -89 11 -11 8 -19 -21 -46 -42 -40
-43 -66 -1 -110 26 -29 43 -36 92 -44 33 -5 64 -5 69 -1 15 15 -5 30 -42 31
-56 2 -83 12 -105 40 -16 23 -17 29 -6 47 19 30 62 46 105 38 30 -6 35 -5 32
10 -2 11 -22 23 -53 33 -42 13 -50 20 -53 43 -4 37 27 52 91 45 41 -5 48 -4
43 9 -3 9 -6 18 -6 20 0 2 -25 4 -56 4 -48 0 -59 -4 -85 -30z"/>
<path d="M12073 5717 c3 -8 15 -48 27 -88 25 -85 56 -145 79 -154 24 -9 41 23
41 79 0 28 5 67 10 87 10 34 13 37 58 43 27 3 63 3 80 0 25 -5 32 -3 32 10 0
9 -5 16 -11 16 -5 0 -7 5 -3 11 4 8 -4 9 -27 4 -19 -4 -60 -8 -91 -9 -31 -1
-60 -5 -63 -8 -6 -6 -11 -55 -13 -147 -3 -74 -16 -58 -57 66 -23 70 -37 99
-50 102 -12 2 -16 -2 -12 -12z"/>
<path d="M5835 5703 c-11 -3 -33 -18 -49 -34 -17 -16 -38 -29 -49 -29 -12 0
-17 -6 -15 -17 5 -26 22 -25 63 2 31 22 36 23 31 8 -27 -68 -35 -125 -23 -161
11 -34 16 -37 52 -40 28 -2 54 5 85 21 l45 24 26 -30 c25 -29 27 -30 58 -17
35 14 61 36 61 51 0 5 -16 2 -36 -6 -20 -8 -42 -15 -50 -15 -27 0 -25 41 5
116 34 83 37 99 20 110 -17 10 -34 -16 -58 -94 -19 -63 -28 -76 -62 -99 -23
-15 -55 -26 -77 -27 -37 -1 -37 -1 -40 41 -2 29 5 63 23 105 38 92 37 102 -10
91z"/>
<path d="M4289 5661 c-91 -81 -130 -122 -124 -131 8 -12 64 15 71 35 3 8 25
30 49 50 l44 35 -25 -60 c-13 -34 -27 -81 -30 -105 -6 -38 -3 -47 19 -69 40
-40 87 -36 126 12 19 23 30 31 31 21 1 -49 93 -70 133 -30 l20 20 -24 20 c-31
26 -39 26 -39 0 0 -15 -5 -20 -22 -17 -20 3 -23 9 -23 53 1 28 3 73 5 100 5
45 3 50 -15 50 -17 0 -22 -11 -34 -70 -10 -53 -22 -80 -48 -112 -39 -49 -65
-54 -88 -19 -19 28 -10 73 32 168 41 93 16 115 -58 49z"/>
<path d="M10910 5673 c0 -17 54 -170 80 -225 34 -72 75 -19 75 95 0 77 0 77
27 77 15 0 30 5 33 10 3 6 27 10 51 10 51 0 56 18 10 33 -21 7 -37 5 -62 -7
-21 -10 -45 -13 -65 -9 l-31 6 7 -79 c3 -45 2 -90 -3 -104 -10 -24 -10 -24
-30 21 -11 25 -28 73 -38 105 -10 33 -22 65 -27 72 -13 17 -27 15 -27 -5z"/>
<path d="M9997 5663 c-53 -8 -23 -28 42 -28 44 0 64 -4 71 -15 7 -11 12 -12
21 -3 8 8 6 16 -10 32 -21 21 -53 24 -124 14z"/>
<path d="M4954 5650 c-40 -9 -54 -18 -54 -35 0 -22 22 -30 32 -11 7 12 25 16
83 16 65 0 98 10 82 26 -7 8 -110 10 -143 4z"/>
<path d="M9225 5643 c4 -10 16 -52 26 -93 25 -94 78 -204 102 -208 14 -3 17 4
17 36 0 22 7 56 15 75 8 20 15 61 15 92 l0 55 28 -7 c48 -13 117 -10 117 6 0
8 -7 16 -15 17 -8 2 -35 8 -60 14 -84 19 -117 23 -124 12 -4 -6 -2 -30 4 -54
8 -32 7 -61 -3 -113 l-13 -70 -23 60 c-12 33 -30 90 -38 128 -13 55 -19 67
-35 67 -15 0 -18 -4 -13 -17z"/>
<path d="M12425 5526 l-30 -55 -20 41 c-21 45 -45 61 -45 32 0 -10 10 -38 22
-62 21 -44 21 -47 5 -108 -22 -82 -22 -116 0 -112 12 2 17 14 19 43 1 49 33
133 78 208 19 30 31 58 28 61 -14 15 -30 2 -57 -48z"/>
<path d="M4917 5551 c-41 -16 -17 -25 65 -26 49 0 88 2 88 6 0 26 -104 40
-153 20z"/>
<path d="M6370 5526 l-33 -35 -27 30 c-35 36 -60 38 -60 4 0 -17 5 -25 18 -25
24 0 42 -19 42 -46 0 -31 -24 -47 -70 -47 -28 0 -40 -4 -40 -14 0 -21 29 -27
74 -15 38 10 42 9 59 -13 14 -19 28 -25 57 -25 24 0 40 5 44 15 4 11 -2 15
-27 15 -39 0 -57 15 -57 48 0 31 33 85 65 106 25 17 26 36 1 36 -6 0 -27 -16
-46 -34z"/>
<path d="M9935 5550 c-14 -23 18 -35 105 -38 77 -3 90 -2 90 12 0 9 -8 16 -17
17 -10 0 -45 2 -78 3 -33 1 -67 5 -76 9 -10 5 -20 4 -24 -3z"/>
<path d="M11355 5552 c-6 -4 -20 -20 -32 -35 l-22 -28 -17 25 c-9 14 -23 26
-30 26 -18 0 -18 -11 1 -36 28 -37 7 -116 -35 -127 -11 -3 -20 -10 -20 -15 0
-20 29 -20 53 -1 30 23 37 24 37 6 0 -30 38 -50 85 -45 25 3 49 9 53 12 13 14
-24 26 -60 20 -35 -5 -39 -3 -49 23 -15 39 3 95 46 137 32 32 35 46 11 46 -6
0 -16 -4 -21 -8z"/>
<path d="M7471 5508 c-17 -23 -31 -47 -32 -52 0 -6 -6 9 -12 34 -17 62 -43 63
-38 0 2 -24 7 -55 12 -68 8 -20 -1 -44 -46 -134 -31 -60 -55 -118 -53 -130 4
-29 28 -36 28 -9 0 29 98 223 121 239 10 7 16 19 13 26 -7 18 11 53 43 88 23
24 24 48 3 48 -4 0 -22 -19 -39 -42z"/>
<path d="M11631 5477 c-8 -8 -8 -14 0 -24 13 -14 -24 -101 -61 -143 -26 -30
-25 -42 1 -38 25 4 98 137 99 179 0 29 -21 44 -39 26z"/>
<path d="M6567 5453 c-4 -3 -2 -12 4 -19 15 -19 -8 -89 -48 -147 -36 -51 -40
-67 -19 -67 37 0 116 173 101 221 -6 19 -26 25 -38 12z"/>
<path d="M8334 5277 c-3 -8 -4 -36 -2 -63 2 -37 7 -50 21 -52 20 -4 35 27 18
38 -8 4 -11 23 -9 45 3 39 -16 61 -28 32z"/>
<path d="M7460 4221 c-115 -120 -189 -326 -177 -490 8 -112 37 -180 103 -240
67 -61 199 -130 216 -113 6 6 10 13 7 14 -2 2 -38 20 -80 41 -162 80 -215 164
-213 342 0 114 17 182 71 289 38 76 137 188 162 184 9 -2 16 4 16 12 0 8 -11
17 -24 18 -18 3 -37 -10 -81 -57z"/>
<path d="M6294 4185 c-3 -8 7 -31 24 -52 56 -72 56 -76 11 -113 -32 -25 -39
-38 -37 -58 4 -33 34 -37 32 -6 -1 15 12 30 42 49 24 15 44 33 44 39 0 6 -16
35 -35 64 -20 29 -33 57 -29 63 7 12 -13 29 -34 29 -7 0 -15 -7 -18 -15z"/>
<path d="M5303 4183 c-26 -10 -12 -33 36 -60 l50 -27 -51 -54 c-35 -37 -47
-57 -40 -64 7 -7 29 9 71 52 34 34 61 66 61 70 0 5 -20 20 -44 34 -24 14 -46
32 -50 41 -6 15 -12 17 -33 8z"/>
<path d="M12720 4117 c0 -8 9 -22 20 -32 28 -26 77 -113 99 -178 33 -96 36
-157 11 -239 -20 -67 -28 -79 -96 -145 -41 -40 -74 -75 -74 -78 0 -3 8 -5 18
-5 10 0 48 29 84 64 85 82 112 146 112 261 0 91 -20 163 -65 244 -55 98 -109
151 -109 108z"/>
<path d="M5080 4104 c0 -15 21 -21 95 -28 28 -2 62 -7 78 -11 38 -10 35 10 -5
32 -42 21 -168 27 -168 7z"/>
<path d="M6097 4103 c-23 -22 0 -28 108 -27 63 0 118 4 121 7 4 4 -5 11 -20
17 -30 11 -199 14 -209 3z"/>
<path d="M2814 4048 c-15 -24 -49 -90 -74 -148 -26 -58 -59 -131 -75 -163 -15
-32 -25 -61 -21 -64 14 -14 35 11 62 76 l29 71 48 0 48 0 -2 -70 c-2 -65 9
-100 32 -100 4 0 5 38 2 84 l-6 84 27 -5 c32 -7 35 13 4 28 -22 9 -23 15 -23
126 0 133 -9 148 -51 81z m21 -155 c-6 -42 -7 -43 -45 -43 l-39 0 16 38 c8 20
27 60 42 87 l26 50 3 -45 c2 -25 1 -64 -3 -87z"/>
<path d="M3605 4070 c-4 -6 -9 -60 -12 -120 -6 -108 -6 -110 -30 -110 -32 0
-65 -18 -57 -31 3 -6 22 -8 45 -4 l39 7 0 -66 c0 -52 3 -66 15 -66 12 0 15 15
15 71 l0 71 30 -7 c16 -4 34 -3 40 0 19 12 -10 35 -43 35 l-30 0 7 109 c6 101
-1 140 -19 111z"/>
<path d="M3246 4042 c-2 -4 3 -32 11 -62 8 -30 16 -84 17 -120 1 -54 -4 -75
-29 -125 -31 -62 -58 -77 -63 -37 -5 35 17 82 39 82 24 0 35 20 18 31 -52 33
-114 -86 -79 -152 30 -55 106 9 135 114 15 54 16 72 5 156 -7 53 -17 102 -23
109 -11 14 -24 16 -31 4z"/>
<path d="M3050 4003 c0 -5 9 -33 21 -63 35 -91 9 -222 -51 -258 -46 -28 -52 8
-13 79 20 37 32 49 50 49 29 0 30 26 1 33 -28 8 -43 -5 -79 -68 -34 -59 -37
-95 -8 -121 20 -18 21 -18 57 1 75 40 112 171 78 278 -8 27 -12 55 -9 63 4 10
-3 14 -21 14 -14 0 -26 -3 -26 -7z"/>
<path d="M3445 4000 c-9 -14 -6 -17 25 -22 17 -2 25 2 25 12 0 18 -40 26 -50
10z"/>
<path d="M8750 3951 l0 -60 -47 -3 c-35 -2 -48 -7 -48 -18 0 -12 10 -14 47
-12 l47 4 3 -79 c3 -76 20 -109 26 -48 1 17 5 54 8 84 l6 53 34 -5 c18 -3 36
-2 39 3 8 12 -17 28 -50 32 -26 3 -30 8 -33 36 -2 17 -9 32 -15 32 -7 0 -4 5
6 11 19 11 14 29 -9 29 -11 0 -14 -14 -14 -59z"/>
<path d="M3735 3969 c-4 -6 -5 -11 -4 -12 2 -1 15 -8 27 -15 28 -16 36 -11 27
17 -7 22 -39 29 -50 10z"/>
<path d="M11626 3933 c-3 -4 -6 -25 -6 -49 l0 -42 -46 -7 c-58 -8 -54 -31 5
-28 33 1 41 -1 37 -12 -7 -20 16 -75 32 -75 11 0 13 13 10 51 l-3 51 58 -6
c33 -3 57 -2 57 4 0 16 -37 30 -81 30 l-42 0 7 39 c4 28 2 40 -8 44 -8 3 -17
3 -20 0z"/>
<path d="M12315 3914 c-9 -14 -15 -15 -32 -5 -12 6 -35 11 -50 11 -28 0 -29
-2 -42 -77 -20 -120 -22 -124 -37 -83 -7 19 -13 44 -13 55 -2 42 -22 95 -36
95 -8 0 -15 -1 -15 -2 0 -2 7 -36 15 -75 21 -99 47 -167 67 -171 17 -3 24 22
49 161 10 57 14 67 28 61 9 -4 30 -9 48 -12 24 -3 34 1 43 17 18 34 -5 57 -25
25z"/>
<path d="M5132 3866 c-19 -42 -110 -168 -140 -193 -9 -7 -12 -19 -8 -30 7 -16
11 -14 39 18 18 19 46 54 62 76 l31 41 -1 -51 c0 -45 3 -52 21 -55 14 -2 33
10 57 38 l37 40 0 -30 c0 -41 25 -87 50 -95 28 -9 83 25 94 58 15 41 -1 45
-32 8 -33 -40 -62 -39 -76 2 -9 26 -7 42 21 165 4 16 1 22 -11 22 -9 0 -28
-24 -46 -57 -16 -32 -43 -74 -59 -93 -30 -34 -30 -35 -31 -10 0 14 9 58 20 98
24 86 24 92 5 92 -8 0 -23 -20 -33 -44z"/>
<path d="M5691 3891 c-6 -11 -11 -27 -11 -35 0 -10 -13 -17 -37 -21 -54 -9
-85 -23 -77 -36 6 -10 49 -7 96 7 15 4 17 -2 16 -48 -1 -62 9 -101 25 -95 8 2
11 26 9 72 l-4 68 35 -22 c26 -16 37 -18 43 -10 7 12 -27 44 -59 55 -14 4 -16
12 -11 39 7 38 -10 55 -25 26z"/>
<path d="M6815 3889 c-16 -10 -38 -19 -47 -19 -21 0 -33 -19 -20 -32 7 -7 25
-3 57 11 25 11 52 20 58 18 6 -1 13 8 15 21 4 28 -21 29 -63 1z"/>
<path d="M9490 3898 c-19 -4 -51 -10 -71 -13 -33 -5 -37 -9 -43 -43 -3 -20 -3
-62 -1 -92 6 -55 5 -55 -27 39 -18 52 -39 96 -45 99 -7 2 -13 -2 -13 -10 0
-20 61 -212 71 -222 5 -6 17 -2 29 9 18 16 20 29 18 97 -1 43 1 80 4 83 3 3
33 10 67 16 39 7 61 16 61 24 0 20 -10 22 -50 13z"/>
<path d="M2338 3883 c-29 -36 -16 -93 22 -93 41 0 65 64 34 94 -20 21 -37 20
-56 -1z"/>
<path d="M6110 3885 c0 -8 4 -23 9 -33 5 -9 18 -49 30 -88 45 -149 111 -153
111 -6 0 97 2 100 76 100 133 1 142 32 10 35 -105 2 -107 1 -116 -116 -3 -42
-9 -78 -15 -80 -9 -2 -46 95 -59 155 -7 31 -46 59 -46 33z"/>
<path d="M4565 3843 c2 -26 4 -50 4 -52 1 -2 8 2 17 9 21 18 15 84 -8 88 -15
3 -17 -4 -13 -45z"/>
<path d="M7739 3863 c-26 -13 -60 -25 -75 -26 -37 -3 -40 -32 -4 -31 14 0 35
4 47 8 23 7 23 7 -3 -43 -28 -54 -27 -97 2 -108 21 -8 92 27 140 69 21 18 35
27 30 21 -16 -28 42 -73 97 -73 14 0 7 58 -9 64 -22 8 -24 8 -24 -9 0 -9 -6
-12 -15 -9 -20 8 -19 32 5 79 14 27 17 42 10 49 -7 7 -28 -8 -64 -49 -59 -67
-150 -125 -159 -102 -7 18 15 61 62 124 53 70 43 79 -40 36z"/>
<path d="M4124 3828 c-22 -24 -50 -55 -61 -70 l-20 -27 1 32 c2 53 -17 46 -30
-13 -16 -67 -17 -110 -4 -110 6 0 25 21 43 47 46 66 108 145 112 141 1 -2 -2
-33 -7 -71 -6 -37 -7 -83 -4 -103 8 -38 37 -74 61 -74 22 0 85 60 85 81 0 27
-8 24 -48 -17 -32 -33 -36 -34 -51 -19 -12 12 -15 31 -12 88 7 148 7 151 -9
155 -8 1 -34 -17 -56 -40z"/>
<path d="M10715 3849 c-22 -14 -48 -19 -95 -19 -69 0 -97 -10 -85 -29 5 -9 28
-10 77 -6 l70 7 -23 -31 c-17 -23 -23 -45 -24 -84 0 -49 1 -52 28 -55 16 -2
49 8 80 25 l53 29 -4 -27 c-2 -15 1 -37 8 -49 10 -19 17 -21 48 -15 40 7 127
49 137 65 11 17 -5 32 -21 19 -7 -6 -28 -15 -46 -19 -18 -5 -44 -12 -57 -16
-23 -7 -24 -6 -18 31 3 21 18 55 32 77 24 37 26 58 4 58 -5 0 -35 -25 -66 -56
-52 -51 -117 -94 -143 -94 -5 0 -10 9 -10 20 0 36 27 87 69 129 59 59 51 82
-14 40z"/>
<path d="M3730 3830 c-17 -32 -18 -145 -1 -145 10 0 15 16 16 56 2 31 8 65 14
76 10 20 6 33 -10 33 -5 0 -13 -9 -19 -20z"/>
<path d="M3829 3799 c-13 -18 -24 -52 -27 -79 -4 -43 -2 -50 20 -64 27 -18 46
-14 91 16 33 24 37 76 7 118 -11 15 -17 30 -13 34 3 3 -8 6 -25 6 -23 0 -36
-8 -53 -31z m63 -26 c35 -32 10 -93 -39 -93 -18 0 -23 5 -23 25 0 27 25 85 37
85 4 0 15 -7 25 -17z"/>
<path d="M3395 3800 c-11 -18 7 -110 21 -110 10 0 13 15 12 60 -1 41 -6 60
-14 60 -7 0 -16 -4 -19 -10z"/>
<path d="M11196 3798 c-11 -48 -96 -289 -127 -362 -42 -96 -48 -126 -24 -126
8 0 15 7 15 15 0 7 16 50 35 94 50 114 136 363 130 378 -6 17 -25 17 -29 1z"/>
<path d="M6865 3790 c-16 -4 -54 -8 -82 -9 -39 -1 -53 -5 -53 -15 0 -19 40
-23 110 -13 56 8 84 23 74 38 -6 10 -6 10 -49 -1z"/>
<path d="M8295 3758 c-11 -11 -32 -28 -46 -39 -26 -18 -26 -18 -49 6 -26 28
-70 34 -70 10 0 -8 8 -15 18 -15 48 0 57 -62 15 -102 -31 -29 -73 -45 -73 -29
0 6 -7 11 -15 11 -9 0 -15 -9 -15 -25 0 -15 6 -25 14 -25 40 0 80 16 106 41
26 27 29 28 35 10 13 -41 111 -65 150 -38 25 19 11 41 -17 26 -30 -16 -85 -2
-104 26 -19 29 -12 44 50 105 25 24 46 48 46 52 0 15 -25 7 -45 -14z"/>
<path d="M11035 3760 c-3 -5 3 -19 14 -31 11 -12 23 -42 27 -65 4 -28 11 -44
20 -44 21 0 17 53 -8 105 -21 43 -40 56 -53 35z"/>
<path d="M12377 3691 l-23 -52 -23 45 c-22 45 -43 57 -56 35 -4 -6 2 -20 13
-32 11 -12 27 -38 35 -58 15 -36 14 -39 -29 -134 -51 -113 -64 -165 -41 -165
9 0 19 17 26 46 7 26 24 72 40 103 61 123 105 241 93 253 -9 9 -17 -2 -35 -41z"/>
<path d="M9552 3708 c3 -7 13 -15 24 -17 24 -4 34 -19 34 -53 0 -33 -33 -61
-95 -78 -46 -13 -57 -26 -30 -37 22 -8 104 25 132 53 27 28 31 88 7 122 -17
24 -79 33 -72 10z"/>
<path d="M9670 3688 c-26 -43 -26 -109 -1 -132 24 -22 75 -18 79 6 2 12 -4 16
-30 15 -30 -2 -33 1 -36 30 -2 17 4 45 12 62 30 57 9 73 -24 19z"/>
<path d="M4556 3691 c-9 -13 4 -41 19 -41 15 0 14 42 -2 47 -6 2 -14 0 -17 -6z"/>
<path d="M10097 3624 c-3 -3 -3 -21 0 -40 7 -41 -21 -78 -74 -100 -18 -8 -33
-21 -33 -29 0 -20 13 -19 60 5 64 32 104 106 80 149 -11 21 -22 26 -33 15z"/>
<path d="M6436 3322 c-8 -13 6 -27 67 -63 31 -18 57 -37 57 -41 0 -3 -27 -23
-60 -43 -40 -24 -60 -43 -60 -56 0 -21 15 -26 25 -8 4 6 38 30 76 55 48 30 67
48 63 59 -3 8 -40 35 -81 60 -83 50 -80 48 -87 37z"/>
<path d="M7560 3227 c0 -8 22 -26 50 -41 l49 -27 -39 -36 c-22 -19 -40 -39
-40 -44 0 -17 30 -9 48 12 9 11 29 27 45 35 39 21 35 48 -13 69 -22 10 -45 24
-51 32 -15 17 -49 17 -49 0z"/>
<path d="M4405 3168 c3 -35 8 -87 10 -116 l5 -54 -64 7 c-40 5 -66 3 -70 -3
-10 -16 7 -22 78 -29 l65 -6 6 -41 c2 -23 6 -54 7 -71 5 -54 23 -22 23 40 0
40 5 64 14 71 16 12 7 34 -13 34 -16 0 -26 51 -26 130 0 69 -8 100 -26 100
-11 0 -13 -14 -9 -62z"/>
<path d="M6300 3219 c-30 -5 -74 -6 -97 -3 -35 4 -43 2 -43 -10 0 -22 41 -30
116 -22 95 10 122 17 128 32 6 16 -17 17 -104 3z"/>
<path d="M9228 3205 c-111 -75 -228 -339 -228 -513 0 -120 49 -198 172 -275
86 -53 118 -65 118 -44 0 8 -24 27 -52 41 -85 43 -145 92 -174 142 -56 96 -38
264 48 443 48 101 138 201 181 201 17 0 27 5 27 15 0 24 -51 18 -92 -10z"/>
<path d="M2842 3199 c-41 -12 -119 -92 -127 -130 -15 -67 49 -134 170 -178
118 -44 163 -90 152 -157 -12 -72 -66 -114 -145 -114 -52 0 -84 27 -117 96
-25 52 -53 67 -40 21 25 -85 39 -109 79 -129 59 -30 156 -21 196 17 56 54 75
128 46 183 -24 45 -59 71 -142 103 -106 41 -144 66 -160 105 -17 40 -11 59 35
107 48 50 101 65 144 40 24 -14 32 -26 33 -51 2 -36 19 -62 42 -62 11 0 13 8
9 36 -8 47 -30 80 -70 104 -35 22 -55 23 -105 9z"/>
<path d="M14290 3190 c0 -6 29 -44 64 -85 66 -75 81 -109 79 -185 -1 -59 -47
-144 -116 -218 -81 -86 -123 -150 -108 -165 8 -8 22 2 48 34 21 24 66 75 101
112 83 88 105 140 105 237 0 90 -18 132 -95 218 -51 56 -78 74 -78 52z"/>
<path d="M7475 3157 c-22 -4 -68 -11 -102 -15 -35 -4 -65 -11 -66 -17 -3 -16
61 -18 143 -5 112 17 122 20 118 32 -5 14 -42 16 -93 5z"/>
<path d="M3339 3145 c-3 -3 -1 -26 4 -52 13 -62 1 -163 -19 -163 -17 0 -18
-22 -3 -37 9 -9 9 -26 1 -68 -14 -70 6 -135 42 -133 11 0 40 -4 62 -11 23 -6
49 -8 58 -5 46 18 62 131 25 178 -31 39 -68 35 -118 -16 l-42 -41 6 44 c4 24
11 68 16 98 10 62 10 144 0 180 -6 24 -22 37 -32 26z m145 -311 c38 -37 7
-142 -37 -128 -27 8 -66 36 -67 47 0 7 79 97 86 97 1 0 10 -7 18 -16z"/>
<path d="M3650 3051 l0 -100 -40 -11 c-22 -6 -40 -15 -40 -20 0 -14 19 -16 62
-5 l27 7 3 -99 c2 -77 6 -98 17 -98 12 0 14 19 12 103 -3 111 0 115 56 84 15
-8 24 -9 28 -1 4 6 5 12 4 13 -13 11 -71 36 -84 36 -11 0 -15 12 -16 53 -3
117 -5 130 -16 134 -10 4 -13 -20 -13 -96z"/>
<path d="M4616 3064 c-8 -21 0 -33 22 -30 25 4 29 46 4 46 -11 0 -23 -7 -26
-16z"/>
<path d="M5442 3018 c-18 -18 -14 -38 7 -38 24 0 33 13 25 34 -7 19 -16 20
-32 4z"/>
<path d="M6178 2975 c-25 -30 -75 -76 -110 -102 -58 -45 -85 -83 -58 -83 7 0
35 20 62 45 28 25 54 45 59 45 4 0 2 -15 -6 -33 -12 -30 -12 -37 1 -55 23 -33
52 -27 116 24 56 44 58 45 58 20 0 -98 82 -111 154 -26 30 36 33 50 11 50 -8
0 -15 -4 -15 -9 0 -11 -66 -51 -86 -51 -31 0 -7 135 34 182 8 10 12 25 8 35
-6 15 -12 12 -41 -22 -90 -106 -123 -140 -159 -167 -21 -15 -43 -28 -48 -28
-18 0 -5 39 42 124 45 79 53 107 32 106 -4 0 -28 -25 -54 -55z"/>
<path d="M7625 3002 c-49 -5 -86 -24 -96 -49 -5 -13 -9 -53 -9 -87 0 -46 -4
-67 -16 -77 -13 -10 -17 -10 -25 2 -23 34 -58 107 -70 147 -13 46 -35 51 -32
7 2 -31 56 -151 80 -177 21 -24 48 -23 73 2 16 16 20 33 20 90 0 96 16 112
108 110 86 -3 87 -3 73 14 -13 15 -58 23 -106 18z"/>
<path d="M12120 2980 c-25 -16 -57 -32 -72 -35 -16 -4 -28 -13 -28 -22 0 -16
29 -15 72 2 15 6 13 -4 -12 -56 -40 -86 -46 -121 -25 -142 34 -34 82 -19 153
47 l34 31 -7 -35 c-5 -27 -2 -42 12 -58 l18 -23 60 25 c57 23 87 48 73 61 -3
4 -24 -3 -47 -14 -63 -33 -74 -29 -68 22 7 55 21 91 52 131 14 18 25 38 25 44
0 26 -28 9 -65 -40 -126 -164 -252 -237 -211 -122 21 60 65 146 88 171 18 19
18 44 0 42 -4 0 -27 -13 -52 -29z"/>
<path d="M13815 2990 c-3 -5 -42 -10 -86 -10 l-80 0 -14 -32 c-7 -18 -16 -68
-20 -110 -4 -43 -10 -78 -14 -78 -10 0 -27 54 -41 125 -16 86 -20 95 -36 95
-18 0 -17 -3 1 -87 23 -99 44 -161 58 -166 7 -2 22 -1 33 4 19 6 23 18 29 91
11 128 10 126 99 126 83 0 96 4 96 33 0 20 -15 26 -25 9z"/>
<path d="M11140 2979 c-20 -4 -44 -19 -57 -35 -20 -26 -42 -98 -43 -142 -1
-27 -39 49 -40 79 0 14 -6 34 -14 45 -12 15 -17 17 -27 7 -10 -10 -10 -16 -1
-25 7 -7 12 -23 12 -37 0 -33 57 -134 73 -128 11 3 25 48 41 128 3 14 15 38
27 52 18 23 28 27 75 27 39 0 54 4 54 14 0 17 -52 24 -100 15z"/>
<path d="M3796 2916 c-19 -66 -20 -96 -3 -96 8 0 18 24 26 59 10 44 18 61 33
64 26 7 14 27 -17 27 -20 0 -26 -8 -39 -54z"/>
<path d="M4916 2958 c-3 -7 -7 -38 -10 -68 -4 -30 -9 -70 -12 -87 -5 -26 -3
-33 10 -33 9 0 16 3 16 8 1 4 22 31 49 60 l48 52 1 -35 c2 -44 26 -92 51 -100
30 -9 81 -2 81 12 0 8 -13 13 -34 13 -49 0 -66 28 -66 107 0 79 -14 82 -66 16
-21 -27 -41 -52 -45 -56 -3 -5 -3 15 2 43 8 52 4 80 -12 80 -5 0 -11 -6 -13
-12z"/>
<path d="M9435 2945 c-27 -7 -64 -14 -82 -14 -17 -1 -35 -6 -38 -11 -11 -18
26 -24 86 -14 l57 10 -39 -47 c-21 -25 -46 -52 -54 -59 -9 -8 -23 -27 -31 -43
-14 -25 -14 -31 1 -53 27 -42 82 -31 183 38 l42 29 0 -29 c0 -35 33 -72 65
-72 37 0 104 30 116 51 17 33 -1 43 -30 15 -52 -50 -121 -44 -121 11 0 31 12
55 61 119 22 28 39 56 39 62 0 28 -32 8 -72 -46 -82 -111 -258 -215 -258 -153
0 18 136 177 166 194 23 13 16 27 -13 26 -16 -1 -50 -7 -78 -14z"/>
<path d="M4594 2936 c-3 -7 -4 -38 -2 -67 2 -40 7 -55 19 -57 14 -2 16 6 13
50 -2 29 -3 61 -4 71 0 20 -18 23 -26 3z"/>
<path d="M4724 2913 c-73 -80 -12 -179 78 -126 35 20 50 65 29 86 -6 6 -11 20
-11 32 0 55 -50 59 -96 8z m67 -41 c14 -12 20 -25 16 -36 -9 -22 -48 -36 -69
-24 -31 16 -17 78 18 78 6 0 22 -8 35 -18z"/>
<path d="M8380 2936 c0 -13 -13 -16 -65 -16 -49 0 -65 -3 -65 -14 0 -21 19
-25 93 -19 70 6 83 18 52 49 -13 14 -15 14 -15 0z"/>
<path d="M2306 2917 c-12 -9 -17 -23 -14 -47 4 -46 27 -49 68 -12 24 23 30 35
25 51 -7 24 -50 29 -79 8z"/>
<path d="M3952 2896 c-13 -19 -22 -45 -20 -58 3 -20 8 -23 44 -21 35 1 43 -2
53 -23 7 -16 19 -24 36 -24 31 0 34 25 4 33 -19 5 -20 10 -14 46 6 34 4 41 -9
41 -9 0 -16 -4 -16 -10 0 -8 -51 -40 -65 -40 -12 0 -3 19 21 43 25 25 25 47 1
47 -7 0 -22 -16 -35 -34z"/>
<path d="M4174 2905 c-9 -14 -19 -45 -21 -69 -5 -37 -2 -46 18 -60 29 -20 89
-21 115 -2 14 11 16 18 8 26 -8 8 -14 9 -18 1 -8 -13 -65 -14 -85 -2 -17 11
-7 73 14 91 8 7 15 19 15 26 0 23 -28 16 -46 -11z"/>
<path d="M6930 2914 c-19 -9 -62 -19 -95 -22 -44 -5 -60 -11 -60 -22 0 -21 76
-15 151 10 32 11 69 20 84 20 16 0 30 7 34 15 7 21 -66 20 -114 -1z"/>
<path d="M13043 2923 c-23 -2 -44 -10 -47 -18 -8 -22 3 -24 69 -13 33 5 76 7
96 4 40 -6 50 -1 42 20 -5 14 -56 16 -160 7z"/>
<path d="M3134 2895 c-40 -61 -22 -154 38 -198 25 -19 28 -19 52 -3 14 9 32
26 40 39 18 29 29 98 17 116 -15 23 -31 2 -31 -42 0 -48 -22 -87 -49 -87 -46
0 -77 124 -38 152 11 9 16 20 11 31 -9 24 -21 21 -40 -8z"/>
<path d="M12663 2878 c-12 -13 -35 -58 -53 -101 -32 -78 -49 -87 -50 -27 0 46
-20 100 -37 100 -11 0 -14 -6 -9 -22 3 -13 11 -54 16 -92 6 -37 13 -72 16 -77
3 -5 -13 -39 -36 -76 -38 -64 -50 -103 -31 -103 14 0 136 220 167 300 9 25 26
57 36 72 32 47 18 66 -19 26z"/>
<path d="M10355 2878 c-76 -12 -108 -25 -102 -41 4 -12 9 -12 92 4 28 6 74 10
103 10 28 -1 52 3 52 8 0 10 -56 32 -74 30 -6 -1 -38 -6 -71 -11z"/>
<path d="M5451 2856 c-7 -8 -10 -19 -7 -25 9 -15 47 0 44 17 -4 22 -23 25 -37
8z"/>
<path d="M8280 2836 c-19 -7 -36 -20 -38 -29 -4 -21 -1 -21 59 0 46 16 49 16
68 -1 12 -11 27 -16 38 -12 15 6 13 10 -12 31 -33 27 -63 30 -115 11z"/>
<path d="M9881 2815 c-17 -20 -31 -41 -32 -48 0 -7 -4 -2 -9 10 -10 24 -78 49
-93 34 -14 -14 2 -31 29 -31 14 0 27 -6 30 -14 12 -31 -52 -116 -88 -116 -22
0 -23 -13 -3 -30 11 -9 20 -8 44 10 17 11 35 29 41 38 8 14 9 11 10 -15 0 -45
33 -74 74 -66 40 8 86 31 86 43 0 13 -33 13 -47 -1 -6 -6 -26 -9 -44 -7 -26 2
-35 8 -37 26 -4 27 41 128 70 160 15 15 19 25 11 33 -7 7 -20 -1 -42 -26z"/>
<path d="M13906 2756 c-34 -74 -49 -96 -39 -56 4 13 0 20 -9 20 -8 0 -22 18
-31 40 -11 29 -21 40 -36 40 -24 0 -28 -22 -6 -40 8 -6 17 -22 21 -33 4 -12
16 -35 26 -50 l20 -28 -27 -60 c-14 -33 -25 -67 -23 -76 5 -24 28 -28 28 -5 0
11 29 80 65 153 67 138 72 153 55 164 -5 3 -25 -28 -44 -69z"/>
<path d="M11210 2805 c-11 -13 -7 -17 19 -26 40 -14 41 -42 0 -80 -31 -29 -59
-38 -59 -19 0 6 -7 10 -15 10 -8 0 -15 -4 -15 -9 0 -50 53 -55 104 -11 l34 30
6 -25 c8 -33 47 -57 87 -53 46 4 51 28 6 28 -34 0 -67 20 -67 41 0 16 27 64
44 78 18 15 21 41 5 41 -6 0 -20 -12 -32 -26 -17 -22 -22 -24 -31 -12 -6 8
-25 22 -42 31 -28 15 -33 15 -44 2z"/>
<path d="M11646 2782 c-3 -5 0 -27 6 -50 18 -70 -22 -133 -73 -117 -17 6 -20
3 -17 -12 4 -22 39 -29 68 -13 28 15 60 69 60 100 0 60 -28 118 -44 92z"/>
<path d="M8283 2411 c-21 -15 -56 -48 -77 -72 -51 -59 -152 -271 -178 -371
-40 -158 -10 -292 83 -372 43 -36 189 -116 213 -116 33 0 13 17 -91 75 -146
82 -191 145 -192 270 -1 113 38 234 138 424 32 61 123 150 160 157 17 4 31 13
31 20 0 23 -45 16 -87 -15z"/>
<path d="M6660 2405 c0 -8 3 -15 8 -15 4 0 31 -21 60 -46 l52 -45 -65 -62
c-48 -46 -65 -69 -65 -89 0 -15 5 -30 10 -33 17 -11 41 16 34 38 -5 15 7 32
52 73 32 30 61 54 66 54 23 0 1 35 -54 84 -62 55 -98 70 -98 41z"/>
<path d="M6448 2297 c-48 -7 -68 -14 -68 -25 0 -12 11 -13 58 -8 31 3 90 9
130 12 47 4 71 11 69 18 -5 14 -104 16 -189 3z"/>
<path d="M11405 2291 c-3 -5 17 -39 45 -76 30 -39 56 -88 67 -123 23 -79 22
-185 -4 -244 -32 -70 -100 -166 -165 -231 -32 -32 -58 -60 -58 -63 0 -2 8 -4
18 -4 26 0 91 66 156 159 85 120 100 160 99 261 -1 105 -24 176 -88 266 -45
63 -58 73 -70 55z"/>
<path d="M2887 2272 c-28 -31 -20 -64 37 -150 87 -131 109 -224 55 -230 -63
-7 -147 59 -119 93 17 21 7 29 -19 15 -12 -6 -21 -19 -21 -30 0 -24 44 -77 81
-95 35 -19 99 -19 124 -1 39 28 2 153 -81 275 -51 73 -55 98 -19 107 26 6 85
1 123 -11 16 -5 22 -3 22 7 0 22 -37 34 -105 37 -49 2 -64 -2 -78 -17z"/>
<path d="M3720 2260 c-12 -8 -15 -33 -13 -137 1 -71 8 -159 14 -196 8 -53 8
-71 -1 -83 -7 -8 -11 -16 -9 -18 11 -9 48 -16 52 -9 3 4 -1 49 -9 98 -8 50
-15 150 -16 222 -2 73 -3 133 -3 133 0 0 -7 -5 -15 -10z"/>
<path d="M8828 2142 c-14 -20 -44 -50 -66 -66 l-41 -28 -23 27 c-45 52 -173
42 -204 -16 -8 -16 -14 -37 -14 -48 0 -22 57 -74 74 -68 6 2 37 12 68 21 31 9
60 21 63 26 13 22 46 9 66 -25 22 -36 33 -43 44 -24 4 6 -6 27 -23 48 l-29 37
43 29 c64 43 112 125 75 125 -5 0 -20 -17 -33 -38z m-173 -72 c19 -7 26 -16
23 -32 -2 -17 -16 -26 -66 -42 l-62 -20 -21 20 c-25 26 -16 52 25 70 38 16 66
17 101 4z"/>
<path d="M10470 2150 c-17 -19 -40 -51 -51 -72 -29 -57 -50 -64 -85 -27 -68
72 -116 76 -180 15 -42 -40 -45 -47 -39 -78 16 -77 112 -104 187 -52 21 15 39
25 41 23 1 -2 11 -21 21 -41 11 -21 23 -38 28 -38 17 0 20 31 5 48 -29 33 -29
57 -1 72 14 8 35 32 46 55 11 22 34 55 51 73 23 24 28 35 19 44 -8 8 -19 3
-42 -22z m-180 -106 c22 -20 40 -40 40 -45 0 -13 -84 -59 -108 -59 -85 0 -98
71 -22 123 34 24 45 22 90 -19z"/>
<path d="M6138 2108 c-31 -35 -70 -71 -86 -81 -30 -17 -31 -17 -37 2 -9 29
-87 71 -133 71 -47 0 -80 -30 -92 -85 -11 -48 -7 -56 40 -82 49 -29 104 -29
155 -2 l39 21 21 -26 c11 -14 30 -39 43 -56 26 -34 40 -38 49 -14 4 10 0 20
-10 25 -9 5 -30 31 -48 57 l-32 47 29 20 c58 41 146 135 140 150 -9 24 -19 18
-78 -47z m-192 -59 c47 -29 60 -55 39 -79 -25 -28 -82 -34 -127 -14 -44 20
-50 46 -17 88 25 32 59 34 105 5z"/>
<path d="M3895 2150 c-10 -16 16 -43 28 -31 11 11 2 41 -12 41 -5 0 -13 -5
-16 -10z"/>
<path d="M4793 2132 c-26 -4 -30 -24 -8 -42 12 -10 18 -10 30 0 16 13 20 36 8
42 -5 2 -18 2 -30 0z"/>
<path d="M9283 2098 c-11 -13 -28 -36 -36 -53 -9 -16 -44 -58 -79 -91 -50 -49
-71 -63 -100 -66 -25 -3 -38 0 -38 8 0 6 30 51 66 98 72 94 75 120 11 87 -20
-10 -57 -25 -82 -32 -25 -7 -45 -17 -45 -21 0 -18 32 -19 71 -4 l41 17 -41
-52 c-43 -54 -55 -84 -49 -116 3 -15 12 -18 58 -15 50 3 60 8 100 48 25 24 48
44 50 44 3 0 5 -16 6 -35 0 -19 3 -38 7 -41 12 -12 140 10 145 25 4 11 -7 13
-56 9 -33 -4 -63 -4 -65 -2 -13 13 17 103 48 146 32 44 38 68 16 68 -4 0 -17
-10 -28 -22z"/>
<path d="M10670 2086 c-6 -8 -34 -22 -61 -31 -30 -10 -49 -22 -49 -32 0 -15
20 -14 64 3 13 5 11 -5 -9 -50 -31 -70 -31 -71 0 -101 33 -34 72 -32 117 5
l36 30 0 -34 c0 -72 41 -99 113 -76 43 15 64 34 54 49 -4 7 -19 3 -43 -9 -62
-34 -92 -22 -92 37 0 36 38 121 64 142 18 15 21 41 6 41 -6 0 -50 -40 -97 -90
-47 -49 -93 -90 -102 -90 -53 1 -52 52 4 145 19 31 35 61 35 66 0 14 -26 10
-40 -5z"/>
<path d="M6450 2054 c-6 -14 -10 -30 -10 -35 0 -5 -29 -42 -64 -83 -36 -41
-62 -77 -58 -81 4 -4 2 -6 -3 -5 -32 7 -50 -15 -21 -26 8 -3 35 17 64 48 l51
53 10 -28 c18 -46 74 -35 139 26 30 29 32 30 32 9 0 -29 43 -51 65 -32 18 15
10 32 -13 28 -22 -4 -28 52 -11 94 8 20 9 32 2 39 -7 7 -25 -11 -56 -58 -41
-62 -88 -103 -116 -103 -17 0 -13 55 9 110 11 28 18 56 15 61 -11 16 -25 10
-35 -17z"/>
<path d="M3222 2037 c-30 -31 -52 -81 -52 -119 0 -23 46 -75 82 -94 31 -16 78
-12 78 6 0 6 -10 10 -22 10 -33 0 -87 36 -98 64 -12 33 4 87 36 117 25 24 26
24 40 5 19 -26 45 -6 28 22 -19 30 -56 26 -92 -11z"/>
<path d="M2363 2043 c-28 -19 -31 -63 -5 -63 10 0 23 -5 29 -11 17 -17 33 -1
33 35 0 29 -15 57 -29 55 -4 0 -16 -7 -28 -16z"/>
<path d="M4252 1991 c-29 -51 -28 -79 2 -92 18 -9 30 -7 55 5 25 13 32 14 36
4 4 -14 35 -146 35 -153 0 -2 -24 -5 -52 -7 -47 -3 -54 -6 -66 -31 -17 -36 -1
-110 30 -144 53 -57 126 -2 130 97 1 38 4 41 24 37 37 -7 38 21 2 31 -30 7
-33 13 -54 97 -13 50 -23 102 -24 117 0 52 -18 75 -59 76 -34 2 -40 -2 -59
-37z m47 -54 c-31 -25 -45 -8 -25 31 21 40 40 46 44 13 3 -17 -4 -31 -19 -44z
m91 -257 c0 -52 -24 -100 -50 -100 -34 0 -55 48 -51 118 1 20 6 22 51 22 l50
0 0 -40z"/>
<path d="M3462 1995 c-16 -13 -35 -38 -42 -55 -11 -26 -10 -33 5 -50 21 -23
50 -25 85 -5 33 19 37 18 43 -4 11 -43 87 -65 87 -25 0 10 -6 14 -14 11 -24
-10 -47 17 -53 61 -7 54 -19 61 -40 23 -26 -44 -83 -68 -83 -33 0 19 45 72 60
72 6 0 10 7 10 15 0 22 -25 18 -58 -10z"/>
<path d="M3890 1982 c0 -21 -5 -64 -11 -96 -7 -42 -7 -62 0 -69 20 -20 30 7
37 106 6 86 5 97 -10 97 -12 0 -16 -9 -16 -38z"/>
<path d="M7398 1999 c-30 -17 -20 -29 25 -29 23 0 59 -5 80 -11 28 -8 42 -7
53 1 21 18 10 27 -48 34 -29 3 -62 8 -73 11 -11 3 -28 0 -37 -6z"/>
<path d="M4037 1979 c-43 -33 -61 -75 -47 -110 7 -16 19 -29 26 -29 16 0 19
26 4 35 -5 3 -10 10 -10 15 0 18 62 80 80 80 23 0 43 -56 38 -108 -3 -32 0
-37 20 -40 22 -3 23 -2 16 50 -9 81 -33 122 -69 125 -18 2 -41 -5 -58 -18z"/>
<path d="M11175 1933 c-17 -31 -36 -58 -42 -60 -6 -2 -14 13 -18 36 -4 22 -13
45 -20 51 -29 24 -32 -1 -9 -66 l23 -67 -28 -56 c-36 -72 -48 -131 -27 -131 9
0 18 12 22 28 10 49 26 81 90 190 35 58 64 112 64 119 0 30 -27 8 -55 -44z"/>
<path d="M4797 1943 c-4 -3 -7 -12 -7 -20 0 -15 26 -18 34 -4 7 11 -18 33 -27
24z"/>
<path d="M9552 1925 c-12 -14 -28 -40 -36 -58 -11 -25 -15 -28 -15 -11 -2 49
-68 97 -92 67 -10 -11 -9 -18 5 -31 14 -14 18 -15 25 -3 7 11 11 10 20 -7 19
-35 13 -69 -16 -92 -27 -21 -46 -22 -87 -5 -14 6 -17 4 -14 -11 7 -40 89 -43
127 -5 19 19 19 19 25 -5 8 -30 38 -46 78 -42 45 4 49 28 5 28 -49 0 -62 19
-47 67 7 21 23 55 36 75 38 59 28 81 -14 33z"/>
<path d="M7360 1917 c0 -27 58 -37 159 -29 64 5 96 11 99 20 3 10 -17 13 -94
11 -55 -1 -114 1 -131 5 -26 6 -33 4 -33 -7z"/>
<path d="M9800 1865 c0 -8 4 -15 9 -15 30 0 11 -82 -30 -126 -17 -18 -18 -23
-5 -33 12 -10 19 -6 40 26 40 60 50 98 36 133 -13 31 -50 42 -50 15z"/>
<path d="M7984 1549 c-3 -6 5 -21 19 -33 14 -11 40 -38 58 -59 35 -41 30 -57
-18 -57 -41 0 -103 -31 -103 -50 0 -36 13 -33 140 28 45 22 54 72 18 102 -13
10 -39 33 -59 49 -41 34 -45 36 -55 20z"/>
<path d="M7111 1536 c-9 -11 1 -23 51 -61 35 -26 63 -52 63 -58 0 -7 -30 -28
-67 -47 -89 -46 -113 -70 -104 -104 4 -18 13 -26 27 -26 15 0 19 4 15 16 -8
21 54 78 111 104 69 31 79 76 21 106 -16 8 -46 31 -67 50 -32 28 -40 32 -50
20z"/>
<path d="M5475 1450 c-3 -5 -1 -18 5 -29 5 -11 10 -68 10 -126 l0 -107 -65 7
c-38 3 -65 2 -65 -4 0 -13 56 -31 96 -31 l32 0 -2 -63 c-2 -35 -8 -73 -15 -85
-6 -12 -10 -22 -9 -23 2 0 18 -2 36 -5 33 -4 33 -3 27 27 -8 37 -8 136 0 149
3 6 21 10 39 10 41 0 98 19 91 30 -3 5 1 11 7 14 7 4 2 4 -12 1 -14 -3 -49 -8
-77 -12 l-53 -6 0 106 c0 104 -10 157 -29 157 -5 0 -13 -4 -16 -10z"/>
<path d="M6870 1450 c-21 -13 -2 -28 43 -35 23 -3 64 -13 90 -22 49 -15 82
-12 75 9 -2 6 -13 12 -24 13 -10 1 -39 7 -64 14 -95 26 -108 28 -120 21z"/>
<path d="M7730 1445 c0 -15 8 -16 100 -20 19 0 54 -5 78 -9 34 -6 42 -5 42 7
0 19 -78 37 -160 37 -47 0 -60 -3 -60 -15z"/>
<path d="M2821 1377 c-25 -13 -26 -34 -1 -29 48 11 160 9 193 -3 95 -33 177
-124 177 -197 0 -56 -22 -101 -82 -164 -84 -89 -167 -127 -218 -101 -26 13
-33 33 -18 54 13 16 -10 27 -27 13 -30 -25 -16 -74 28 -96 63 -33 152 4 253
104 90 88 118 186 78 264 -28 54 -109 125 -169 147 -63 24 -176 28 -214 8z"/>
<path d="M4819 1367 c-12 -26 -11 -31 8 -45 27 -21 37 -75 29 -145 l-7 -52
-44 3 c-44 4 -46 3 -61 -33 -19 -45 -15 -114 7 -128 9 -5 28 -7 43 -3 60 15
113 216 87 329 -7 31 -21 67 -31 79 l-18 23 -13 -28z m16 -289 c-12 -41 -41
-83 -56 -83 -18 0 -24 56 -9 85 7 13 21 20 41 20 27 0 30 -3 24 -22z"/>
<path d="M3629 1323 c-1 -5 -1 -12 0 -17 1 -5 -13 -42 -31 -82 -32 -71 -34
-74 -74 -80 -23 -3 -56 -3 -74 1 -28 6 -31 4 -28 -12 3 -15 13 -18 66 -18 60
0 63 -1 57 -22 -28 -113 -7 -205 49 -211 37 -5 116 25 116 44 0 18 -2 18 -60
-3 -57 -20 -74 -11 -84 40 -8 45 10 139 31 155 9 6 37 12 62 12 48 0 81 13 67
27 -4 4 -32 7 -62 6 -30 -2 -54 1 -54 6 0 5 14 38 31 75 17 36 28 70 24 76 -7
12 -34 14 -36 3z"/>
<path d="M2957 1293 c-4 -3 -4 -17 0 -31 10 -41 -19 -292 -34 -292 -19 0 -16
-14 6 -34 37 -34 38 -31 57 249 5 73 4 93 -8 103 -8 6 -18 9 -21 5z"/>
<path d="M6839 1255 c-19 -7 -54 -22 -77 -34 -23 -11 -51 -21 -62 -21 -19 0
-38 -25 -27 -36 5 -5 126 33 142 45 6 5 26 13 45 20 l34 11 -31 -32 c-40 -42
-163 -218 -163 -233 0 -22 41 -55 68 -55 42 1 107 35 160 85 45 41 49 43 44
20 -6 -33 22 -75 51 -75 38 0 67 12 67 27 0 12 -8 13 -39 8 -29 -5 -40 -3 -44
9 -9 23 9 76 48 140 19 32 35 62 35 67 0 26 -33 1 -85 -67 -75 -95 -134 -148
-190 -170 -48 -18 -75 -14 -75 11 0 25 134 208 175 239 29 22 34 31 24 42 -14
17 -52 17 -100 -1z"/>
<path d="M6045 1250 c-7 -11 12 -50 25 -50 16 0 21 19 10 40 -12 22 -25 26
-35 10z"/>
<path d="M8142 1244 c-7 -13 -17 -15 -43 -10 -90 19 -107 18 -117 -1 -5 -10
-13 -62 -17 -115 -4 -54 -11 -98 -15 -98 -26 0 -70 161 -50 185 7 9 6 16 -4
25 -53 43 -44 -98 13 -209 15 -30 33 -57 39 -59 22 -7 43 58 49 154 7 108 12
114 71 91 20 -8 44 -12 52 -9 23 7 50 34 50 49 0 18 -17 16 -28 -3z"/>
<path d="M10044 1227 c-7 -19 30 -166 55 -215 20 -40 48 -69 57 -60 2 3 10 48
16 99 6 52 16 97 22 102 6 4 35 5 64 3 29 -3 59 -3 67 1 21 8 19 35 -2 30 -10
-2 -31 3 -46 10 -35 17 -116 8 -124 -15 -4 -8 -7 -33 -8 -56 -1 -22 -3 -59 -4
-81 l-2 -40 -18 35 c-19 36 -39 112 -45 165 -3 32 -23 45 -32 22z"/>
<path d="M12266 1203 c-4 -21 -17 -78 -28 -128 -20 -81 -22 -87 -30 -60 -18
66 -27 159 -17 172 8 9 6 17 -5 29 -23 22 -48 11 -41 -18 3 -13 9 -52 14 -88
11 -79 39 -177 53 -186 17 -11 26 9 47 102 11 51 24 110 30 132 l11 40 59 -5
c68 -6 111 2 111 20 0 9 -20 13 -67 13 -38 0 -82 3 -99 8 -30 8 -32 7 -38 -31z"/>
<path d="M4236 1209 c-62 -49 -94 -165 -97 -349 -1 -100 1 -126 13 -128 15 -3
42 84 54 176 6 45 10 52 28 52 26 0 46 15 70 50 16 24 16 24 16 -23 0 -26 3
-47 8 -47 4 0 22 9 40 20 35 21 36 42 2 33 -16 -4 -20 0 -20 21 0 39 24 79 67
114 31 25 35 32 21 37 -21 8 -66 -21 -89 -60 l-19 -30 0 43 c0 48 -21 96 -45
106 -22 8 -19 9 -49 -15z m54 -38 c32 -60 -18 -196 -65 -177 -17 6 -21 66 -5
66 6 0 10 7 10 15 0 8 -7 15 -15 15 -19 0 -19 4 1 43 32 62 54 74 74 38z
m-113 -248 c-2 -16 -4 -5 -4 22 0 28 2 40 4 28 2 -13 2 -35 0 -50z"/>
<path d="M11460 1203 c-24 -15 -67 -32 -94 -38 -27 -6 -51 -16 -54 -23 -5 -17
60 -33 73 -17 6 7 21 16 34 20 l24 7 -22 -30 c-47 -66 -51 -130 -11 -152 29
-15 104 20 160 75 l45 44 -4 -46 c-4 -55 14 -75 57 -64 35 9 45 51 12 51 -12
0 -18 -4 -15 -10 3 -5 -1 -10 -9 -10 -26 0 -13 102 21 167 10 18 14 35 10 39
-12 13 -37 -5 -50 -38 -31 -72 -151 -178 -202 -178 -45 0 1 114 75 185 16 16
30 32 30 37 0 16 -36 7 -80 -19z"/>
<path d="M9413 1188 c-16 -18 -42 -51 -57 -73 -14 -22 -58 -65 -98 -95 -40
-30 -72 -60 -70 -65 3 -15 57 -12 57 3 0 13 43 51 58 52 4 0 7 -6 7 -14 0 -22
40 -46 78 -46 44 0 81 20 125 69 l37 41 0 -56 c0 -46 3 -55 16 -52 13 2 17 18
18 83 1 54 7 90 19 113 16 29 16 33 2 38 -9 4 -17 5 -18 3 -1 -2 -11 -17 -23
-34 -11 -16 -29 -47 -39 -67 -33 -71 -105 -118 -160 -104 -42 11 -31 46 40
136 58 72 71 100 46 100 -4 0 -21 -15 -38 -32z"/>
<path d="M10867 1213 c-4 -3 -7 -14 -7 -24 0 -12 -21 -28 -65 -48 -36 -17 -63
-36 -60 -41 9 -15 25 -12 79 14 l48 24 -6 -78 c-5 -48 -3 -80 3 -84 14 -9 20
5 26 70 10 99 12 104 43 104 15 0 38 -7 50 -16 24 -17 44 -11 36 10 -7 19 -49
36 -91 36 -28 0 -33 3 -24 13 16 21 -14 39 -32 20z"/>
<path d="M8673 1194 c-7 -3 -13 -12 -13 -19 0 -9 16 -13 50 -13 28 0 64 -5 80
-12 29 -12 60 -8 60 8 0 17 -151 47 -177 36z"/>
<path d="M4986 1175 c-10 -28 -7 -133 6 -160 6 -14 22 -28 35 -32 43 -10 133
96 133 157 0 31 -22 20 -34 -18 -6 -17 -28 -51 -49 -74 -38 -42 -39 -42 -53
-23 -11 14 -14 40 -12 89 2 45 -1 71 -8 73 -7 2 -14 -3 -18 -12z"/>
<path d="M5248 1158 c-36 -31 -68 -87 -68 -119 0 -15 9 -37 19 -50 16 -20 28
-24 71 -22 33 1 58 7 68 17 23 22 12 27 -41 17 -62 -11 -92 7 -83 52 8 41 63
97 94 97 31 0 24 24 -9 28 -14 1 -35 -7 -51 -20z"/>
<path d="M2352 1148 c-21 -21 -14 -48 15 -59 24 -9 30 -7 46 12 10 12 16 29
15 38 -4 20 -58 27 -76 9z"/>
<path d="M4540 1138 c0 -6 -6 -19 -14 -27 -8 -9 -18 -32 -23 -51 -20 -77 21
-121 86 -94 49 20 71 43 71 71 0 32 -25 78 -52 97 -26 19 -68 21 -68 4z m90
-98 c0 -22 -46 -50 -81 -50 -20 0 -21 4 -16 45 2 25 13 55 23 66 l19 21 27
-31 c16 -17 28 -40 28 -51z"/>
<path d="M11984 1087 c-16 -23 -38 -63 -50 -88 -12 -26 -27 -49 -32 -53 -19
-12 -37 38 -37 104 0 51 -3 65 -15 65 -11 0 -16 -15 -18 -60 -2 -49 2 -69 23
-108 l25 -48 -39 -67 c-22 -37 -54 -87 -70 -112 -33 -48 -39 -70 -18 -70 17 1
190 283 218 357 5 13 20 39 34 57 26 35 31 51 16 60 -5 3 -21 -13 -37 -37z"/>
<path d="M8684 1088 c-17 -27 42 -35 154 -22 33 4 52 12 52 20 0 10 -23 12
-101 11 -55 -1 -103 -5 -105 -9z"/>
<path d="M12494 1028 c-20 -40 -38 -75 -40 -77 -15 -17 -46 98 -32 116 12 15
-14 28 -37 20 -12 -5 -11 -15 4 -72 10 -36 26 -74 35 -83 15 -17 13 -25 -28
-118 -50 -115 -69 -184 -60 -220 8 -33 29 -25 30 12 2 68 25 133 126 344 68
142 67 141 51 147 -7 3 -27 -26 -49 -69z"/>
<path d="M6043 1075 c-3 -9 -3 -18 -1 -21 9 -9 38 8 38 22 0 19 -29 18 -37 -1z"/>
<path d="M7432 1078 c-16 -16 -15 -58 1 -58 24 1 60 37 54 54 -7 19 -38 21
-55 4z"/>
<path d="M3307 1050 c-72 -85 -20 -183 72 -135 39 20 49 56 25 93 -10 15 -17
33 -15 41 3 16 -16 31 -41 31 -9 0 -27 -13 -41 -30z m65 -47 c25 -22 23 -39
-7 -59 -43 -28 -75 -1 -56 49 12 31 36 35 63 10z"/>
<path d="M9809 1055 c-18 -14 -44 -37 -56 -52 l-23 -28 -22 23 c-20 20 -20 22
-4 22 10 0 16 5 13 13 -5 14 -55 13 -70 -2 -6 -6 1 -20 21 -40 l30 -31 -69
-50 c-38 -27 -71 -50 -74 -50 -3 0 -5 7 -5 15 0 19 -24 19 -39 1 -13 -16 2
-32 19 -21 6 4 9 1 8 -6 -8 -37 88 7 158 72 l22 20 0 -40 c1 -56 17 -81 52
-81 34 0 90 30 90 48 0 16 -2 15 -44 -4 -50 -24 -66 -14 -66 43 0 44 4 50 56
101 60 58 63 90 3 47z"/>
<path d="M10430 1063 c-8 -3 -29 -21 -47 -41 l-32 -37 -7 33 c-7 33 -11 36
-38 26 -22 -8 -20 -27 4 -49 30 -27 24 -51 -17 -80 -37 -25 -38 -25 -45 -4
-10 25 -24 18 -31 -17 -8 -46 46 -45 102 2 24 20 31 22 31 10 0 -24 37 -56 65
-56 33 0 76 21 72 34 -3 6 -10 10 -18 8 -62 -15 -67 -14 -85 13 -17 26 -17 28
5 70 12 23 33 47 47 54 13 6 24 17 24 26 0 16 -5 17 -30 8z"/>
<path d="M7101 994 c0 -11 3 -14 6 -6 3 7 2 16 -1 19 -3 4 -6 -2 -5 -13z"/>
</g>
</svg>
