<?xml version="1.0" standalone="no"?>
<!DOCTYPE svg PUBLIC "-//W3C//DTD SVG 20010904//EN"
 "http://www.w3.org/TR/2001/REC-SVG-20010904/DTD/svg10.dtd">
<svg version="1.0" xmlns="http://www.w3.org/2000/svg"
 width="1618.000000pt" height="1214.000000pt" viewBox="0 0 1618.000000 1214.000000"
 preserveAspectRatio="xMidYMid meet">

<g transform="translate(0.000000,1214.000000) scale(0.100000,-0.100000)"
fill="#000000" stroke="none">
<path d="M13544 11577 c-68 -37 -89 -56 -78 -67 8 -8 26 -2 63 21 28 18 53 30
56 28 2 -3 -6 -27 -19 -55 -16 -34 -50 -74 -112 -131 -64 -59 -86 -85 -78 -93
8 -8 27 2 69 35 67 51 95 58 95 21 0 -14 5 -28 11 -31 14 -9 66 13 73 31 7 18
-13 29 -27 15 -17 -17 -25 -13 -29 12 -2 14 -11 23 -25 25 l-23 3 26 27 c33
35 74 119 74 155 0 34 -19 35 -76 4z"/>
<path d="M15735 11590 c-22 -4 -64 -7 -92 -6 -36 1 -53 -3 -53 -11 0 -12 34
-36 41 -29 2 2 28 6 57 10 l54 7 -18 -31 c-15 -24 -25 -30 -52 -30 -44 0 -72
-16 -72 -40 0 -24 8 -25 34 -5 38 29 46 16 17 -27 -16 -24 -32 -60 -35 -82 -6
-33 -5 -38 9 -32 9 3 19 6 21 6 2 0 4 12 4 26 0 14 15 48 32 75 32 48 34 49
73 44 22 -3 46 -1 54 4 17 11 4 34 -15 27 -8 -3 -23 -2 -34 2 -19 7 -19 9 11
45 26 32 32 59 11 56 -4 -1 -25 -5 -47 -9z"/>
<path d="M13340 11565 c-5 -14 -10 -32 -10 -39 0 -8 -23 -58 -50 -112 -28 -54
-49 -105 -48 -113 6 -28 32 -17 38 14 4 17 23 60 43 95 20 36 40 83 45 105 5
22 11 46 13 54 7 26 -21 23 -31 -4z"/>
<path d="M14028 11559 c-29 -19 -48 -39 -48 -50 0 -25 3 -24 52 11 79 58 93
35 31 -53 -37 -54 -52 -69 -83 -77 -38 -10 -100 -59 -100 -78 0 -5 6 -15 14
-21 11 -9 24 -4 60 24 l46 35 6 -25 c3 -13 14 -27 24 -30 23 -7 116 31 124 51
9 24 -9 24 -59 -1 -80 -41 -89 -5 -22 83 77 100 83 123 37 147 -16 8 -30 15
-32 15 -2 0 -24 -14 -50 -31z"/>
<path d="M14374 11569 c-10 -11 -53 -43 -96 -72 -49 -33 -77 -58 -75 -67 2 -8
8 -14 13 -13 6 1 34 5 62 9 l52 7 -30 -64 c-30 -64 -40 -134 -18 -127 6 2 16
24 23 49 21 81 58 141 95 153 42 14 55 41 17 34 -25 -5 -26 -5 -11 23 30 59 6
110 -32 68z m-8 -74 c-19 -29 -36 -38 -63 -33 -14 2 -7 11 27 34 25 17 47 29
49 28 2 -2 -4 -15 -13 -29z"/>
<path d="M15507 11533 c-49 -60 -127 -200 -127 -226 0 -42 22 -18 63 66 25 50
58 106 73 122 44 50 58 75 47 86 -6 6 -26 -11 -56 -48z"/>
<path d="M15260 11554 c-8 -20 -13 -23 -27 -15 -13 7 -28 2 -61 -21 -69 -47
-98 -110 -73 -157 7 -12 -1 -38 -30 -96 -44 -87 -50 -147 -16 -153 16 -3 17 1
12 30 -4 25 2 49 29 106 l35 72 58 0 c69 0 97 16 113 65 13 39 2 70 -30 80
-19 6 -19 7 5 52 13 26 22 50 19 55 -10 15 -24 8 -34 -18z m-40 -69 c-7 -8
-21 -15 -32 -15 -14 0 -18 -5 -14 -16 8 -22 -33 -89 -46 -76 -16 16 9 78 40
101 33 25 71 29 52 6z m48 -57 c11 -15 1 -48 -21 -66 -9 -8 -32 -12 -52 -10
l-36 3 31 43 c32 42 59 53 78 30z"/>
<path d="M14844 11516 c-33 -15 -74 -60 -74 -82 0 -21 17 -17 34 7 21 30 47
46 89 54 33 6 37 5 37 -13 0 -32 -89 -123 -145 -148 -55 -24 -80 -47 -70 -64
9 -15 27 -12 55 10 34 27 47 25 81 -11 29 -31 64 -36 64 -9 0 8 -5 14 -11 13
-6 -1 -23 10 -37 25 l-27 28 43 35 c51 43 95 124 80 148 -13 21 -79 25 -119 7z"/>
<path d="M13732 11308 c-19 -19 -14 -30 10 -26 13 2 24 11 26 21 4 20 -18 23
-36 5z"/>
<path d="M14372 11252 c2 -11 -3 -27 -11 -36 -9 -11 -11 -20 -5 -26 7 -7 21 1
40 21 28 30 28 31 10 45 -27 19 -38 18 -34 -4z"/>
<path d="M3104 11175 c-8 -19 -14 -66 -14 -109 l0 -75 -52 -3 c-64 -4 -66 -21
-4 -28 25 -3 48 -9 51 -12 4 -3 9 -28 13 -55 10 -65 27 -56 26 13 l-1 56 29
-4 c34 -5 45 6 27 28 -8 10 -21 13 -36 9 -22 -5 -23 -4 -23 67 0 45 6 84 15
102 8 15 12 32 9 37 -11 18 -25 8 -40 -26z"/>
<path d="M2489 11183 c-3 -22 3 -271 7 -293 2 -14 -11 21 -30 77 -37 109 -62
163 -74 163 -10 0 -32 -22 -32 -32 0 -4 6 -8 13 -8 18 0 27 -21 71 -162 20
-64 41 -120 47 -124 28 -17 34 18 31 182 l-3 165 79 -6 c52 -5 82 -4 86 3 9
16 -6 22 -71 27 -32 3 -73 8 -90 10 -18 3 -33 2 -34 -2z"/>
<path d="M5004 11158 c-8 -25 -7 -205 1 -218 3 -5 -20 -10 -52 -12 -44 -2 -59
-7 -61 -19 -2 -14 7 -16 55 -15 l58 1 3 -87 c2 -69 6 -88 17 -88 16 0 21 44
17 123 l-3 38 47 -7 c37 -5 46 -4 42 7 -3 8 -21 19 -42 24 -20 6 -41 17 -46
25 -12 19 -13 180 -1 199 11 18 2 51 -14 51 -8 0 -17 -10 -21 -22z"/>
<path d="M5199 11173 c-7 -43 -6 -63 1 -68 12 -7 41 42 34 59 -6 16 -33 22
-35 9z"/>
<path d="M2627 10990 c-35 -28 -45 -81 -24 -126 13 -27 26 -36 70 -49 55 -16
91 -12 84 9 -2 6 -26 14 -53 18 -33 5 -55 14 -67 30 l-19 22 43 11 c51 12 67
33 53 72 -12 36 -50 42 -87 13z m58 -30 c0 -7 -15 -20 -33 -27 -33 -13 -33
-13 -21 9 20 38 54 49 54 18z"/>
<path d="M3386 10968 c-20 -28 -19 -49 3 -118 11 -33 25 -56 35 -58 20 -4 20
7 2 55 -32 86 -27 121 16 110 13 -3 29 -2 37 2 11 7 9 11 -7 20 -33 18 -69 13
-86 -11z"/>
<path d="M4422 10974 c-53 -37 -67 -115 -29 -160 18 -20 35 -28 74 -31 55 -6
103 11 84 30 -7 7 -17 7 -33 0 -15 -6 -35 -7 -58 -1 -66 18 -79 67 -31 120 27
29 32 32 51 20 17 -10 21 -10 26 2 14 36 -42 50 -84 20z"/>
<path d="M2828 10953 c-17 -43 -16 -124 2 -135 21 -14 130 18 130 38 0 17 -5
17 -63 0 -29 -9 -49 -10 -53 -4 -8 12 5 79 18 95 11 13 3 33 -13 33 -5 0 -15
-12 -21 -27z"/>
<path d="M3619 10960 l-24 -20 28 -23 c15 -12 42 -35 60 -50 l32 -29 -45 7
c-25 3 -56 9 -68 12 -20 5 -23 2 -20 -13 2 -14 18 -21 69 -29 78 -13 89 -11
89 19 0 28 -16 48 -63 79 -37 25 -35 44 3 32 16 -5 20 -2 20 14 0 28 -49 29
-81 1z"/>
<path d="M5205 10951 c-3 -5 -10 -46 -17 -91 -9 -62 -8 -84 1 -93 18 -18 27 4
30 75 1 34 7 70 12 80 15 27 -10 55 -26 29z"/>
<path d="M3225 10903 c-32 -76 -2 -103 66 -59 47 32 53 67 14 84 -45 21 -64
15 -80 -25z m59 1 c23 -9 20 -17 -14 -37 -33 -20 -35 -19 -18 18 13 28 11 27
32 19z"/>
<path d="M4778 10910 c-31 -35 -48 -114 -29 -133 15 -15 31 7 31 41 0 36 42
103 53 85 3 -5 8 -32 12 -61 7 -56 34 -100 53 -88 16 10 15 33 -2 39 -7 3 -16
28 -20 58 -4 29 -12 61 -17 71 -15 27 -51 22 -81 -12z"/>
<path d="M5397 10933 c-9 -2 -29 -21 -42 -41 -24 -35 -26 -36 -31 -14 -8 29
-22 28 -36 -4 -9 -20 -9 -27 1 -33 10 -6 10 -17 3 -45 -7 -25 -7 -38 1 -43 12
-7 24 8 70 87 22 38 39 56 56 58 23 4 23 2 17 -51 -5 -37 -3 -57 4 -62 17 -10
21 -2 27 59 5 46 2 60 -12 76 -18 20 -25 22 -58 13z"/>
<path d="M4623 10898 c-30 -14 -44 -59 -29 -89 17 -35 73 -38 109 -5 33 31 34
50 2 81 -26 27 -47 30 -82 13z m67 -47 c0 -24 -20 -41 -47 -41 -32 0 -33 47 0
59 28 11 47 4 47 -18z"/>
<path d="M5640 10816 c0 -8 4 -18 10 -21 13 -8 52 14 45 26 -10 15 -55 11 -55
-5z"/>
<path d="M6021 10821 c-8 -5 -11 -16 -8 -25 6 -14 10 -14 27 -4 22 14 27 38 8
38 -7 0 -19 -4 -27 -9z"/>
<path d="M5852 10813 c-26 -5 -25 -26 2 -31 18 -4 46 14 46 29 0 9 -8 10 -48
2z"/>
<path d="M7346 10368 c-9 -29 -37 -105 -64 -168 -46 -111 -49 -115 -85 -124
-42 -11 -43 -16 -22 -91 27 -90 48 -81 77 32 9 36 17 48 42 58 35 15 126 30
126 22 0 -3 -13 -26 -30 -50 -31 -46 -39 -92 -18 -99 24 -8 59 5 89 33 26 25
30 33 24 61 -4 18 -11 37 -16 43 -5 5 -9 17 -9 27 0 14 -8 18 -41 18 -22 0
-60 -5 -85 -11 -25 -6 -47 -9 -50 -7 -2 3 14 48 36 99 46 107 72 187 64 200
-12 20 -23 6 -38 -43z m104 -330 c0 -25 -27 -58 -47 -58 -10 0 -9 9 7 40 22
44 40 52 40 18z m-225 -3 c-16 -49 -18 -51 -25 -25 -3 14 -2 28 4 32 17 12 26
9 21 -7z"/>
<path d="M14446 10383 c-13 -21 -41 -78 -62 -128 -21 -49 -42 -93 -47 -96 -5
-4 -25 -2 -44 3 -23 6 -39 6 -45 0 -17 -17 1 -32 38 -32 19 0 34 -4 34 -8 0
-4 -16 -38 -36 -76 -25 -46 -33 -71 -26 -78 15 -15 35 1 29 23 -3 11 -2 17 2
15 3 -3 21 24 40 59 28 55 37 64 64 67 38 4 50 28 13 28 -14 0 -26 2 -26 5 0
16 85 194 101 210 19 19 21 19 49 3 29 -16 30 -16 30 2 0 23 -28 40 -64 40
-19 0 -32 -10 -50 -37z"/>
<path d="M9416 10349 c-3 -8 -26 -75 -52 -149 -25 -74 -55 -151 -66 -171 -18
-33 -19 -40 -7 -65 17 -35 58 -43 95 -19 36 23 84 105 84 142 0 26 -5 34 -24
39 -13 3 -37 -1 -54 -10 l-30 -16 41 120 c33 93 39 121 30 131 -10 10 -13 9
-17 -2z m19 -276 c-13 -53 -65 -112 -99 -113 -13 0 -16 4 -11 18 4 9 8 24 9
34 3 22 25 47 61 70 41 24 48 23 40 -9z"/>
<path d="M6297 10343 c-2 -5 -19 -57 -38 -116 -30 -94 -37 -108 -59 -113 -43
-10 -50 -13 -50 -24 0 -5 16 -10 35 -10 l36 0 -7 -37 c-4 -21 -11 -48 -15 -61
-13 -33 -11 -42 6 -42 14 0 27 35 40 111 6 34 10 37 47 43 22 4 42 5 44 3 3
-2 -3 -20 -11 -40 -20 -47 -19 -74 2 -85 18 -11 55 1 86 27 22 18 20 109 -3
128 -17 14 -70 18 -70 5 0 -4 -18 -7 -40 -7 -22 0 -40 2 -40 5 0 11 29 98 49
148 20 51 21 72 1 72 -5 0 -11 -3 -13 -7z m88 -329 c-46 -34 -55 -3 -17 56
l16 25 10 -34 c8 -28 7 -36 -9 -47z"/>
<path d="M10778 10321 c-25 -16 -50 -36 -55 -44 -4 -9 -17 -15 -28 -14 -15 2
-21 -5 -23 -28 -2 -16 -18 -77 -37 -135 -39 -121 -45 -161 -27 -167 18 -7 72
114 78 178 4 30 17 73 30 95 28 49 88 104 113 104 17 0 18 -4 10 -39 -11 -50
-40 -124 -78 -200 -28 -54 -30 -71 -10 -71 4 0 28 30 52 68 24 37 54 75 65 86
21 18 22 18 28 0 15 -49 26 -66 44 -71 16 -4 18 -11 14 -47 -6 -39 -3 -45 26
-69 27 -23 41 -27 94 -27 69 0 82 6 63 28 -9 12 -9 16 1 19 17 7 15 33 -4 33
-8 0 -12 -4 -9 -10 4 -6 -1 -7 -11 -3 -14 5 -16 2 -12 -15 6 -20 2 -22 -36
-22 -97 0 -119 77 -34 121 47 24 78 53 78 74 0 25 -36 17 -84 -20 -67 -51 -88
-45 -101 28 -9 46 -19 53 -50 33 -14 -9 -25 -15 -25 -14 0 2 7 28 15 58 18 68
18 65 -1 84 -22 22 -33 20 -86 -13z"/>
<path d="M8270 10273 c-29 -149 -64 -222 -150 -316 -35 -39 -60 -57 -76 -57
-32 0 -42 40 -23 94 17 49 78 89 122 82 33 -7 37 13 7 32 -18 11 -28 9 -72
-15 -64 -35 -89 -68 -95 -127 -7 -61 15 -96 60 -96 37 1 64 22 130 102 53 66
103 166 113 226 3 22 9 41 13 40 20 -2 31 4 31 17 0 22 -28 75 -40 75 -5 0
-14 -26 -20 -57z"/>
<path d="M12439 10288 c-36 -71 -96 -239 -109 -310 -11 -55 -11 -70 0 -83 18
-21 23 -13 26 44 3 58 64 244 105 320 33 62 35 71 14 71 -8 0 -24 -19 -36 -42z"/>
<path d="M9236 10234 c-12 -30 -7 -36 27 -29 41 9 43 11 27 30 -16 20 -46 19
-54 -1z"/>
<path d="M13065 10121 l-38 -119 -40 -8 c-45 -10 -60 -31 -25 -36 15 -2 25
-13 32 -36 13 -46 38 -38 49 14 7 39 11 43 50 52 56 14 157 26 157 19 0 -3 -9
-22 -21 -41 -40 -67 0 -74 90 -16 34 22 64 40 66 40 10 0 -57 -122 -110 -200
-54 -80 -70 -130 -40 -130 8 0 15 9 15 19 0 11 28 61 63 113 73 110 112 190
104 212 -9 24 -44 19 -90 -12 -68 -46 -69 -46 -50 -8 9 20 14 38 11 42 -14 13
-108 14 -165 1 l-61 -14 13 41 c7 23 22 68 34 100 24 69 26 86 8 86 -8 0 -29
-48 -52 -119z"/>
<path d="M2785 10210 c-3 -6 -1 -25 6 -43 10 -29 9 -39 -14 -83 -29 -57 -97
-124 -127 -124 -24 0 -25 9 -5 57 24 57 20 76 -13 71 -27 -4 -28 -3 -19 22 13
34 3 60 -21 60 -24 0 -152 -82 -152 -97 0 -21 15 -15 82 27 34 21 64 37 66 36
6 -7 -56 -121 -72 -135 -9 -8 -16 -20 -16 -27 0 -27 29 -13 65 30 51 62 66 66
46 10 -46 -127 109 -99 181 33 34 61 50 130 37 155 -11 20 -34 24 -44 8z"/>
<path d="M12070 10195 c-7 -8 -28 -15 -47 -15 -29 0 -36 -5 -47 -32 -8 -18
-17 -53 -21 -78 -7 -46 -52 -136 -63 -126 -3 4 -6 38 -6 78 -1 45 -5 73 -13
75 -15 5 -36 -34 -27 -49 4 -6 8 -35 9 -64 1 -53 16 -84 40 -84 25 0 74 91 91
167 9 41 21 76 28 78 6 2 32 6 59 10 50 7 62 26 28 44 -14 8 -22 7 -31 -4z"/>
<path d="M3948 10151 c-31 -28 -33 -34 -35 -102 -2 -52 -7 -77 -20 -91 -16
-18 -18 -18 -30 -2 -18 24 -34 6 -22 -24 12 -32 55 -26 83 11 17 23 21 41 19
90 -3 59 -1 62 37 98 21 20 36 40 33 43 -13 12 -34 5 -65 -23z"/>
<path d="M3667 10134 c-13 -22 -59 -77 -100 -124 -70 -78 -90 -110 -69 -110 5
0 33 25 63 57 46 48 54 53 57 36 2 -12 11 -28 22 -38 22 -20 46 -10 98 38 l32
31 -6 -30 c-6 -32 15 -62 36 -49 13 8 13 32 1 37 -6 2 3 34 19 73 21 49 27 72
19 80 -7 7 -18 1 -36 -20 -62 -75 -124 -135 -138 -135 -19 0 -14 27 21 115 28
71 17 95 -19 39z"/>
<path d="M5567 10163 c-4 -3 -7 -43 -7 -88 0 -80 -14 -145 -30 -145 -14 0 -21
36 -25 123 -3 76 -5 82 -25 85 -20 3 -22 1 -17 -30 4 -18 9 -62 13 -98 19
-184 113 -148 114 44 0 76 1 78 23 72 86 -25 158 -15 156 22 0 9 -3 12 -5 6
-6 -14 -114 -10 -142 5 -23 12 -46 14 -55 4z"/>
<path d="M2906 10124 c-96 -99 -84 -209 20 -189 54 10 143 52 150 70 10 26 -1
27 -47 1 -53 -29 -121 -48 -143 -40 -9 3 -16 15 -16 25 0 11 5 16 13 13 16 -6
93 59 111 95 10 18 11 32 5 44 -16 28 -55 20 -93 -19z m64 -2 c0 -10 -16 -29
-57 -66 -44 -40 -42 -20 3 32 33 40 54 52 54 34z"/>
<path d="M6609 10138 c-62 -16 -118 -94 -123 -168 -2 -36 27 -32 35 5 9 45 34
98 52 114 10 7 37 16 62 19 45 5 61 24 29 36 -9 3 -16 6 -17 5 -1 -1 -18 -5
-38 -11z"/>
<path d="M4094 10107 c-21 -19 -45 -36 -53 -38 -19 -7 -21 -70 -3 -91 26 -31
157 -20 168 14 8 25 -2 34 -20 19 -8 -7 -40 -15 -71 -18 -52 -6 -57 -4 -53 13
2 12 18 24 43 32 66 22 93 60 63 90 -18 18 -31 15 -74 -21z m42 -23 c-30 -21
-42 -17 -15 5 13 11 26 17 29 14 3 -2 -4 -11 -14 -19z"/>
<path d="M5984 10103 c-69 -75 -80 -125 -33 -152 33 -19 95 -7 110 20 15 29 6
33 -31 14 -33 -17 -80 -14 -80 6 0 23 32 69 70 101 22 19 37 38 33 41 -14 15
-36 5 -69 -30z"/>
<path d="M12175 10128 c-65 -36 -115 -120 -99 -166 15 -44 90 -47 136 -6 27
25 7 40 -25 19 -28 -18 -82 -17 -82 2 0 6 28 30 61 52 75 50 87 64 79 91 -7
22 -38 26 -70 8z m4 -52 c-43 -33 -58 -39 -44 -16 8 14 66 50 79 50 5 0 -11
-15 -35 -34z"/>
<path d="M12880 10125 c0 -18 24 -30 40 -20 8 5 8 11 -1 21 -15 19 -39 18 -39
-1z"/>
<path d="M4873 10100 c-38 -23 -93 -95 -93 -122 0 -31 44 -21 93 22 l45 40 -5
-40 c-4 -25 -1 -46 7 -55 14 -17 70 -21 70 -5 0 6 0 13 0 18 0 4 -10 7 -23 7
-20 0 -22 4 -19 55 2 30 8 60 14 67 28 35 -38 45 -89 13z m6 -56 c-13 -14 -33
-30 -43 -36 -17 -9 -17 -7 3 21 22 31 52 53 60 45 2 -2 -6 -16 -20 -30z"/>
<path d="M5801 10103 c-30 -25 -61 -112 -50 -140 11 -29 77 -50 108 -34 11 7
21 18 21 26 0 18 -5 18 -30 5 -27 -14 -70 4 -70 30 0 15 7 20 25 20 30 0 75
41 75 68 0 41 -43 54 -79 25z m49 -20 c-1 -14 -27 -43 -39 -43 -15 0 -14 10 6
32 16 18 33 24 33 11z"/>
<path d="M8389 10097 c-70 -47 -112 -173 -71 -210 24 -22 37 -21 88 4 43 20
86 78 61 80 -7 0 -3 4 8 9 14 6 16 9 4 9 -23 1 -53 -24 -47 -41 8 -20 -80 -54
-96 -37 -8 8 -7 13 2 16 7 3 37 24 66 49 58 47 82 93 65 125 -13 25 -39 24
-80 -4z m50 -39 c-11 -20 -49 -57 -91 -87 -19 -13 -18 -11 1 25 26 49 41 68
66 81 27 15 37 6 24 -19z"/>
<path d="M8595 10111 c-35 -15 -75 -59 -75 -84 0 -13 9 -33 20 -45 25 -27 25
-39 -1 -53 -15 -8 -24 -8 -32 0 -17 17 -27 13 -27 -13 0 -33 20 -37 69 -16 54
25 59 42 25 91 l-27 40 22 22 c12 12 36 27 53 33 18 6 34 16 36 22 4 14 -33
15 -63 3z"/>
<path d="M9007 10102 c-20 -22 -71 -161 -63 -170 11 -11 31 18 57 86 l25 67
37 -3 c40 -3 49 11 18 28 -29 15 -56 12 -74 -8z"/>
<path d="M9647 10088 c-36 -39 -77 -115 -77 -145 0 -36 34 -56 87 -51 60 6
146 47 149 71 1 10 -1 17 -4 15 -84 -45 -166 -66 -190 -50 -24 16 -3 61 35 77
33 14 42 44 12 37 -8 -2 -3 8 10 22 28 29 43 36 17 7 -14 -15 -14 -20 -3 -30
12 -9 18 -6 31 14 41 62 -15 89 -67 33z"/>
<path d="M15157 10113 c-4 -3 -7 -17 -7 -30 0 -12 -16 -40 -35 -62 -68 -75
-33 -85 38 -11 50 52 76 66 57 31 -14 -27 -13 -47 5 -64 13 -13 22 -14 73 -2
73 17 109 33 116 52 11 27 -5 35 -28 15 -21 -20 -131 -50 -142 -40 -3 4 4 25
16 47 30 59 9 80 -45 45 -22 -15 -23 -14 -18 5 5 21 -15 30 -30 14z"/>
<path d="M14102 10092 c1 -10 -7 -31 -20 -46 -24 -31 -31 -72 -9 -60 9 6 9 5
-1 -8 -17 -21 9 -42 43 -34 55 14 72 100 29 147 -22 24 -46 25 -42 1z m38 -69
c0 -18 -28 -53 -42 -53 -13 0 -9 34 8 58 16 24 34 21 34 -5z"/>
<path d="M8775 10086 c-17 -7 -47 -34 -68 -59 -61 -75 -44 -116 48 -117 69 0
88 7 102 37 18 38 4 49 -24 19 -22 -24 -31 -27 -76 -24 -36 2 -52 7 -52 17 0
23 49 80 83 96 51 25 40 53 -13 31z"/>
<path d="M12490 10038 c-33 -45 -38 -79 -15 -98 12 -10 21 -10 45 0 32 13 70
54 70 75 0 17 -43 65 -58 65 -6 0 -25 -19 -42 -42z m45 -48 c-33 -35 -45 -38
-45 -12 0 19 31 40 59 41 9 1 4 -10 -14 -29z"/>
<path d="M14884 10036 c-51 -50 -55 -79 -12 -84 15 -2 35 1 46 7 15 8 18 6 18
-12 -1 -33 37 -30 39 2 1 15 17 38 38 57 21 17 37 36 37 43 0 14 -27 15 -35 1
-8 -12 -125 -73 -131 -68 -2 2 10 19 27 37 25 28 35 32 60 27 25 -5 30 -3 27
12 -2 11 -14 18 -36 20 -28 3 -40 -4 -78 -42z"/>
<path d="M9159 10040 c-6 -16 -17 -30 -25 -30 -18 0 -18 -34 1 -50 20 -17 31
-7 49 47 20 58 20 63 0 63 -8 0 -20 -13 -25 -30z"/>
<path d="M12648 10027 c-46 -35 -60 -75 -37 -104 15 -17 102 -14 121 5 17 17
0 34 -22 22 -10 -5 -33 -10 -50 -10 -51 0 -37 37 27 75 29 16 53 33 53 38 0
19 -53 4 -92 -26z"/>
<path d="M12790 9979 c-15 -28 -9 -63 12 -67 13 -3 18 3 17 20 0 13 2 33 6 46
10 29 -20 31 -35 1z"/>
<path d="M9499 9810 c-47 -25 -83 -67 -104 -125 -14 -36 -23 -45 -41 -45 -15
0 -24 -6 -24 -15 0 -8 7 -15 15 -15 12 0 12 -8 -5 -50 -24 -60 -25 -70 -6 -70
7 0 23 27 36 60 23 61 27 64 82 60 42 -2 68 9 68 31 0 16 -3 18 -19 9 -19 -10
-91 -14 -91 -5 0 10 25 62 44 89 24 35 103 73 119 57 16 -16 27 -13 27 8 0 35
-46 40 -101 11z"/>
<path d="M2680 9769 c0 -28 -11 -96 -26 -151 -29 -117 -26 -128 36 -108 49 16
90 52 90 78 0 24 -41 46 -69 37 -24 -7 -27 7 -11 49 9 24 14 86 11 129 0 9 -8
17 -16 17 -11 0 -15 -12 -15 -51z m67 -186 c4 -10 -58 -45 -66 -37 -2 2 6 15
19 29 24 25 41 28 47 8z"/>
<path d="M13807 9803 c-4 -3 -7 -13 -7 -20 0 -8 -24 -58 -53 -111 -65 -117
-89 -176 -81 -197 12 -29 38 -12 39 25 1 23 23 75 63 146 67 122 83 164 60
164 -8 0 -18 -3 -21 -7z"/>
<path d="M2928 9786 c-10 -7 -18 -21 -18 -30 0 -17 15 -22 24 -7 3 5 15 7 26
4 15 -4 20 0 20 15 0 11 -7 23 -16 26 -19 7 -15 8 -36 -8z"/>
<path d="M13086 9744 c-14 -31 -26 -59 -26 -61 0 -3 -16 -32 -36 -64 -19 -32
-32 -64 -28 -70 4 -7 3 -9 -3 -6 -14 9 -45 -55 -33 -67 6 -6 15 -5 23 2 10 9
17 7 30 -8 35 -42 153 -7 177 51 11 27 10 34 -7 57 -31 41 -81 42 -128 1 l-36
-32 55 104 c64 124 73 149 52 149 -8 0 -26 -24 -40 -56z m73 -182 c15 -28 -12
-59 -60 -72 -76 -21 -89 3 -33 56 39 38 78 44 93 16z"/>
<path d="M11182 9772 c-4 -9 -18 -36 -31 -59 -20 -35 -29 -41 -55 -41 -45 1
-117 -15 -117 -27 0 -17 48 -17 65 0 9 9 16 11 16 5 0 -6 4 -9 9 -6 5 4 16 4
23 1 12 -5 12 -15 -5 -63 -14 -38 -18 -67 -13 -86 6 -26 10 -28 43 -23 37 6
83 41 70 53 -3 4 -22 -1 -41 -10 -47 -22 -49 -21 -41 20 10 56 36 104 57 104
10 0 18 7 18 15 0 8 -5 15 -10 15 -6 0 5 25 25 55 19 31 35 58 35 60 0 14 -42
3 -48 -13z"/>
<path d="M14528 9775 c-9 -10 5 -66 16 -62 17 6 20 67 3 67 -7 0 -16 -2 -19
-5z"/>
<path d="M6233 9738 c-20 -18 -34 -26 -31 -17 8 21 -6 44 -21 34 -7 -4 -11
-14 -10 -23 1 -10 1 -19 0 -22 -13 -36 -58 -237 -55 -242 6 -9 34 2 34 13 0
19 73 195 91 221 28 39 59 46 81 18 24 -29 17 -67 -23 -133 -16 -27 -29 -53
-29 -58 0 -17 22 -9 41 16 11 13 33 34 49 45 l30 21 26 -20 c15 -12 32 -21 39
-21 7 0 10 -11 7 -28 -6 -45 27 -67 102 -67 65 1 115 20 98 37 -7 7 -21 6 -44
-2 -43 -16 -121 -2 -126 22 -3 17 13 35 73 83 23 18 27 26 19 35 -13 13 -40 3
-66 -23 -26 -26 -66 -29 -89 -6 -15 15 -28 19 -45 15 -23 -6 -24 -5 -18 32 5
32 2 43 -21 70 -34 41 -64 41 -112 0z"/>
<path d="M3469 9703 c-9 -37 -20 -59 -29 -60 -67 -8 -90 -16 -90 -28 0 -11 11
-13 50 -8 28 3 50 3 50 0 0 -17 -34 -103 -42 -108 -15 -9 0 -29 16 -23 14 5
51 82 58 119 3 16 13 21 57 25 76 7 81 30 6 30 l-57 0 7 33 c4 17 9 42 12 55
4 15 1 22 -10 22 -10 0 -19 -19 -28 -57z"/>
<path d="M13591 9639 c-61 -122 -74 -169 -46 -169 8 0 15 8 15 19 0 10 25 68
55 129 30 61 55 118 55 127 0 37 -22 7 -79 -106z"/>
<path d="M8414 9693 c-30 -32 -54 -52 -54 -45 0 34 -102 -17 -153 -77 -58 -69
-17 -97 74 -50 l37 18 6 -25 c4 -13 17 -29 29 -33 32 -12 101 1 105 20 2 14
-5 15 -47 11 -40 -3 -52 -1 -57 11 -9 25 21 77 86 148 54 61 63 79 37 79 -6 0
-34 -26 -63 -57z m-80 -94 c-16 -17 -46 -40 -67 -51 -73 -37 -56 4 22 54 61
38 83 37 45 -3z"/>
<path d="M12000 9725 c0 -16 46 -32 58 -20 8 8 -26 35 -45 35 -7 0 -13 -7 -13
-15z"/>
<path d="M7426 9679 c-14 -11 -26 -24 -26 -28 0 -4 13 -28 30 -52 16 -24 30
-49 30 -56 0 -17 -39 -26 -55 -13 -12 10 -16 9 -21 -3 -13 -35 29 -49 80 -26
36 17 38 43 5 91 -16 24 -29 48 -29 54 0 15 42 26 54 14 15 -15 36 -12 36 5 0
17 -30 35 -58 35 -11 0 -31 -9 -46 -21z"/>
<path d="M2500 9669 c-36 -15 -59 -39 -53 -55 3 -9 0 -14 -8 -12 -9 2 -13 -5
-12 -17 1 -11 -3 -23 -10 -27 -19 -11 13 -38 46 -38 44 0 99 60 94 104 -3 34
-14 56 -25 55 -4 0 -18 -5 -32 -10z m23 -41 c10 -29 -30 -78 -64 -78 -19 0 -8
42 17 65 30 28 40 31 47 13z"/>
<path d="M14357 9648 c-47 -63 -60 -109 -36 -124 14 -8 29 14 29 43 0 12 14
38 30 56 17 19 30 40 30 46 0 22 -30 10 -53 -21z"/>
<path d="M7856 9628 c-79 -74 -70 -128 22 -127 62 2 82 8 82 24 0 10 -14 12
-59 8 -38 -4 -61 -2 -65 6 -4 6 -2 11 5 11 22 0 97 40 103 56 8 20 -11 64 -28
64 -8 0 -35 -19 -60 -42z m40 -24 c-30 -21 -44 -16 -17 7 13 11 27 17 30 13 3
-3 -3 -12 -13 -20z"/>
<path d="M10163 9626 c-35 -35 -44 -51 -41 -73 5 -43 31 -39 97 11 l60 46 3
-27 c2 -23 10 -30 41 -37 44 -11 71 4 48 27 -11 10 -13 9 -8 -5 4 -10 2 -18
-3 -18 -6 0 -10 5 -10 10 0 6 -9 10 -20 10 -22 0 -25 16 -10 55 8 20 7 27 -6
32 -8 3 -20 1 -26 -5 -8 -8 -15 -7 -25 4 -25 24 -54 16 -100 -30z m77 2 c-1
-16 -90 -83 -90 -67 0 13 67 79 81 79 5 0 9 -6 9 -12z"/>
<path d="M11330 9648 c-18 -13 -46 -39 -63 -60 -27 -34 -28 -38 -15 -65 10
-22 21 -29 50 -31 20 -2 52 3 71 12 23 9 38 11 45 4 6 -6 14 -4 23 8 22 28
102 105 105 101 2 -2 -1 -20 -7 -41 -13 -48 -8 -91 11 -91 9 0 15 12 16 35 0
19 4 54 9 77 9 49 -7 63 -47 43 -19 -10 -21 -10 -10 1 16 17 15 29 -2 29 -18
0 -58 -47 -74 -86 -9 -20 -25 -33 -50 -42 -60 -21 -81 -25 -99 -17 -14 5 -5
13 42 37 62 31 95 55 95 69 0 14 -31 39 -49 39 -10 0 -33 -10 -51 -22z m60
-16 c0 -4 -20 -18 -45 -30 -55 -26 -58 -21 -8 13 39 26 53 31 53 17z"/>
<path d="M7640 9633 c-50 -41 -135 -242 -128 -300 5 -45 20 -33 56 42 24 49
47 79 75 100 59 44 98 97 99 135 2 55 -50 67 -102 23z m70 -26 c0 -13 -16 -42
-36 -66 -53 -61 -54 -52 -7 57 16 37 43 43 43 9z"/>
<path d="M8068 9640 c-66 -35 -96 -93 -62 -121 18 -14 99 -18 129 -5 19 8 19
8 -3 17 -13 5 -34 6 -47 3 -25 -6 -69 12 -60 26 3 4 23 11 45 15 54 9 85 35
76 63 -9 27 -29 27 -78 2z"/>
<path d="M12110 9625 c-33 -34 -34 -37 -23 -76 13 -48 4 -55 -53 -44 -44 8
-43 -12 1 -34 24 -12 32 -11 63 3 35 17 38 33 17 87 -4 10 4 28 19 47 49 57
29 71 -24 17z"/>
<path d="M14500 9650 c-12 -8 -12 -15 4 -59 9 -27 16 -60 14 -73 -3 -26 -36
-37 -49 -16 -6 10 -13 10 -26 2 -34 -21 -21 -39 29 -42 64 -4 93 23 83 76 -4
20 -13 49 -21 64 -9 16 -10 28 -4 28 5 0 10 7 10 15 0 17 -18 19 -40 5z"/>
<path d="M3003 9631 c-78 -36 -103 -121 -49 -167 39 -34 121 -25 87 9 -17 17
-13 31 4 17 12 -10 15 -10 15 4 0 18 -4 19 -37 10 -13 -4 -23 -13 -23 -21 0
-11 -4 -11 -20 -3 -28 15 -25 27 10 34 18 3 30 12 30 22 0 12 -6 14 -30 9 -45
-10 -41 26 5 48 50 24 60 21 40 -9 -24 -38 -4 -54 24 -18 24 30 27 54 9 72
-15 15 -15 15 -65 -7z"/>
<path d="M4482 9629 c-74 -37 -95 -121 -37 -147 32 -15 95 -15 130 -2 42 16
20 28 -44 23 l-60 -5 35 39 c51 54 67 81 60 98 -8 21 -33 19 -84 -6z m13 -59
c-40 -41 -55 -49 -55 -29 0 17 57 69 76 69 14 0 9 -10 -21 -40z"/>
<path d="M11670 9578 c-56 -97 -40 -111 39 -35 63 61 78 70 61 37 -13 -25 -9
-85 5 -84 6 1 13 16 17 35 4 19 10 46 14 61 9 37 -18 48 -60 24 -30 -17 -30
-17 -13 1 17 20 14 33 -9 33 -7 0 -31 -32 -54 -72z"/>
<path d="M3222 9623 c-27 -23 -62 -88 -62 -114 0 -29 42 -45 88 -33 22 5 37
15 37 24 0 8 -7 13 -15 11 -42 -11 -68 -12 -74 -2 -11 17 35 91 61 97 28 7 31
34 4 34 -10 0 -28 -8 -39 -17z"/>
<path d="M4813 9620 c-43 -26 -60 -58 -40 -77 16 -17 44 -7 83 29 l22 20 11
-52 c18 -85 17 -88 -36 -95 -71 -10 -82 -14 -99 -41 -30 -44 13 -124 66 -124
42 0 95 50 108 102 6 23 9 44 7 47 -1 3 13 7 32 8 37 2 69 21 56 34 -5 5 -26
4 -47 -2 -21 -6 -39 -9 -41 -7 -2 2 -8 32 -14 67 -11 71 -33 111 -59 111 -9 0
-31 -9 -49 -20z m87 -214 c0 -50 -52 -103 -89 -91 -22 7 -43 56 -32 74 7 10
34 17 114 30 4 0 7 -5 7 -13z"/>
<path d="M9166 9607 c-60 -67 -77 -147 -30 -147 29 0 93 43 104 69 16 40 -10
112 -40 110 -3 0 -18 -14 -34 -32z m49 -37 c10 -16 -13 -49 -45 -65 -37 -19
-40 -6 -10 43 19 32 43 41 55 22z"/>
<path d="M13376 9608 c-27 -18 -63 -50 -80 -71 -27 -34 -28 -39 -14 -53 14
-15 20 -14 62 4 25 12 46 17 46 13 0 -5 -7 -12 -16 -15 -22 -8 -7 -26 22 -26
17 0 24 6 24 19 0 10 9 30 20 44 43 55 19 61 -65 16 -68 -37 -64 -19 7 35 30
23 53 34 63 29 13 -4 16 -1 13 13 -5 29 -29 27 -82 -8z"/>
<path d="M11931 9589 c-23 -49 -27 -93 -10 -87 19 6 53 108 40 121 -7 7 -16
-2 -30 -34z"/>
<path d="M2890 9587 c0 -12 -8 -53 -19 -90 -10 -37 -17 -67 -15 -67 2 0 -9
-21 -24 -47 -34 -58 -56 -65 -70 -24 -12 35 -32 41 -32 10 0 -27 16 -56 39
-69 43 -22 100 61 135 198 20 80 21 112 1 112 -9 0 -15 -9 -15 -23z"/>
<path d="M3714 9556 c-9 -24 12 -44 28 -28 10 10 8 16 -5 29 -15 15 -17 15
-23 -1z"/>
<path d="M5123 9499 c-31 -20 -43 -39 -24 -39 22 0 82 32 79 42 -7 20 -22 19
-55 -3z"/>
<path d="M4644 9489 c-8 -14 11 -33 25 -25 16 10 13 36 -3 36 -8 0 -18 -5 -22
-11z"/>
<path d="M3428 9033 c-8 -10 -26 -37 -38 -60 -22 -39 -27 -43 -62 -43 -45 0
-100 -25 -96 -43 2 -7 -14 -36 -36 -65 -41 -57 -76 -137 -76 -177 0 -13 14
-41 32 -62 18 -21 28 -35 24 -31 -12 10 -86 -111 -86 -139 0 -22 29 -34 31
-13 1 6 2 15 3 20 0 6 19 41 41 79 31 54 48 71 75 81 52 19 163 136 178 186
17 57 15 101 -5 134 -16 28 -16 30 15 80 18 28 32 56 32 61 0 15 -16 11 -32
-8z m-73 -144 c4 -6 13 -8 20 -5 31 12 34 -70 4 -131 -19 -40 -90 -112 -132
-135 -19 -10 -10 8 92 192 27 50 28 56 12 57 -20 2 -56 -61 -45 -79 4 -6 3 -8
-3 -5 -5 3 -17 -7 -27 -24 -11 -18 -13 -29 -6 -29 6 0 -2 -14 -19 -31 -17 -17
-29 -35 -25 -40 3 -5 1 -9 -4 -9 -5 0 -14 -11 -20 -25 -15 -32 -29 -32 -44 0
-35 77 155 332 197 264z"/>
<path d="M9445 9021 c-87 -50 -159 -143 -194 -253 -7 -21 -16 -38 -20 -38 -5
0 -8 -12 -7 -27 0 -16 -3 -39 -6 -53 -8 -29 4 -56 21 -46 6 4 11 19 11 34 0
49 11 70 38 77 60 14 112 39 112 52 0 9 -6 13 -14 10 -46 -18 -97 -29 -103
-23 -9 9 48 124 82 164 30 36 98 86 132 96 18 6 21 4 16 -15 -4 -15 -2 -20 7
-17 20 6 34 33 27 52 -9 24 -46 19 -102 -13z"/>
<path d="M4294 8968 c-22 -35 -64 -106 -94 -159 -35 -63 -58 -95 -67 -92 -7 3
-13 -1 -13 -8 1 -16 28 -55 34 -48 2 2 23 40 47 84 23 44 60 109 82 145 73
118 73 118 61 130 -7 7 -22 -8 -50 -52z"/>
<path d="M4670 9021 c-57 -5 -76 -10 -78 -22 -2 -14 8 -15 79 -11 l82 5 -6
-69 c-4 -38 -16 -113 -27 -166 -14 -67 -18 -114 -14 -151 l6 -54 -32 -7 c-18
-3 -52 -6 -76 -6 -33 0 -44 -4 -44 -15 0 -13 14 -15 88 -13 l87 3 1 90 c1 50
11 137 22 195 11 58 23 133 25 168 5 59 4 62 -16 60 -12 -1 -56 -4 -97 -7z"/>
<path d="M7480 8995 c-5 -14 -10 -31 -10 -36 0 -5 -15 -55 -34 -112 -76 -233
-77 -237 -33 -237 23 0 83 36 125 73 32 29 30 75 -3 83 -14 3 -39 4 -56 0 -28
-5 -29 -4 -23 21 4 14 19 58 35 98 15 39 29 84 31 100 4 37 -19 45 -32 10z
m40 -264 c0 -11 -80 -81 -92 -81 -12 0 2 52 20 73 16 18 72 24 72 8z"/>
<path d="M13172 8987 c0 -17 -11 -59 -24 -92 -22 -55 -28 -61 -68 -75 -28 -10
-46 -23 -48 -34 -3 -15 0 -17 14 -11 53 21 53 22 29 -62 -14 -47 -20 -82 -14
-87 13 -14 25 2 37 54 20 84 40 119 70 125 59 13 75 43 19 37 l-28 -3 16 38
c21 50 35 112 28 129 -10 27 -31 15 -31 -19z"/>
<path d="M3680 8994 c-19 -8 -36 -17 -39 -20 -3 -2 -6 -37 -8 -77 -1 -40 -10
-115 -18 -167 -9 -52 -15 -124 -13 -160 3 -59 5 -65 28 -73 16 -6 41 -5 68 2
35 10 42 16 42 36 0 31 -20 43 -27 17 -5 -20 -56 -38 -74 -26 -13 8 -11 98 5
189 8 44 17 117 21 162 l8 82 34 12 c28 9 37 9 43 -1 10 -17 30 -3 30 21 0 15
-7 19 -32 19 -18 -1 -49 -8 -68 -16z"/>
<path d="M14670 8993 c0 -38 13 -63 31 -63 23 0 24 23 3 55 -19 29 -34 32 -34
8z"/>
<path d="M6621 8913 c-13 -48 -41 -130 -63 -182 -42 -105 -48 -145 -20 -139 9
2 16 11 14 21 -1 9 13 54 32 99 37 91 86 244 86 271 0 9 -6 17 -12 17 -8 0
-23 -37 -37 -87z"/>
<path d="M11344 8959 c-3 -6 -1 -16 5 -22 20 -20 12 -62 -35 -188 -54 -146
-63 -189 -40 -189 9 0 19 15 26 40 11 42 58 103 92 121 17 9 19 8 14 -8 -17
-57 -17 -71 0 -87 11 -12 27 -16 47 -13 20 3 36 -2 49 -15 30 -30 130 -18 136
16 3 14 0 17 -11 13 -41 -15 -88 -19 -102 -7 -14 11 -13 15 5 27 24 17 60 84
60 112 0 10 -7 21 -15 25 -17 6 -63 -50 -85 -103 -12 -29 -45 -50 -58 -37 -3
4 -1 30 5 59 6 28 9 55 6 60 -9 15 -42 6 -72 -19 -17 -14 -31 -24 -31 -21 0 3
11 35 25 71 31 82 33 151 6 166 -14 7 -22 7 -27 -1z"/>
<path d="M12380 8913 c-7 -32 -21 -85 -31 -118 -18 -58 -20 -60 -53 -61 -49
-1 -109 -44 -135 -96 -38 -80 -20 -147 31 -114 34 22 136 142 159 187 20 40
69 211 69 242 0 9 -6 17 -14 17 -10 0 -19 -20 -26 -57z m-70 -212 c0 -12 -131
-153 -137 -147 -11 10 10 68 35 98 32 38 102 72 102 49z"/>
<path d="M13359 8933 c-5 -14 -7 -33 -4 -42 5 -12 10 -8 25 14 11 17 20 36 20
43 0 23 -30 12 -41 -15z"/>
<path d="M9937 8943 c-4 -3 -7 -19 -7 -35 0 -35 26 -38 32 -3 5 25 -13 51 -25
38z"/>
<path d="M12520 8890 c0 -32 2 -33 38 -24 27 8 29 30 3 44 -32 16 -41 12 -41
-20z"/>
<path d="M2985 8898 c-42 -24 -95 -70 -95 -84 0 -18 26 -18 33 0 7 19 96 71
105 62 8 -9 -51 -122 -81 -156 -13 -14 -48 -47 -80 -73 -55 -47 -72 -77 -43
-77 8 0 39 23 69 50 30 28 58 50 61 50 3 0 6 -15 6 -34 0 -42 27 -64 70 -58
27 4 44 32 19 32 -6 0 -8 9 -4 20 8 25 -16 27 -39 4 -15 -14 -16 -12 -16 20 0
19 -4 38 -10 41 -5 3 4 24 21 48 38 53 59 101 59 138 0 25 -4 29 -27 29 -16 0
-37 -6 -48 -12z"/>
<path d="M4400 8897 c-36 -18 -36 -49 -1 -90 17 -19 31 -37 31 -41 0 -3 -13
-6 -30 -6 -19 0 -33 7 -40 20 -11 21 -40 17 -40 -6 0 -33 111 -59 138 -32 17
17 16 22 -24 69 l-36 43 24 17 c31 24 14 44 -22 26z"/>
<path d="M11157 8895 c-4 -8 -2 -15 3 -15 12 0 13 -60 2 -76 -4 -6 -25 -14
-47 -18 -63 -11 -75 -16 -75 -33 0 -16 12 -15 83 2 l25 7 -23 -74 c-13 -40
-25 -88 -27 -107 -4 -42 19 -54 27 -14 21 96 52 178 67 178 25 0 35 15 17 28
-11 9 -15 29 -15 72 1 47 -2 60 -15 63 -9 2 -19 -4 -22 -13z"/>
<path d="M3854 8873 c-3 -16 -12 -46 -20 -68 -18 -52 -18 -55 6 -55 15 0 22
11 31 45 17 68 34 75 49 20 16 -56 36 -57 65 -2 11 20 23 37 26 37 3 0 11 -11
17 -25 11 -24 42 -35 42 -16 0 16 -35 71 -48 76 -18 7 -30 -2 -52 -37 l-18
-30 -7 23 c-19 61 -80 82 -91 32z"/>
<path d="M9160 8884 c0 -9 7 -14 17 -12 25 5 28 28 4 28 -12 0 -21 -6 -21 -16z"/>
<path d="M5382 8803 c-40 -21 -72 -44 -72 -50 0 -21 26 -15 77 17 81 52 83 41
8 -71 -67 -99 -61 -121 16 -60 28 22 61 41 71 41 11 0 36 -13 54 -30 48 -41
73 -30 96 41 9 30 17 64 17 76 1 12 7 23 14 26 9 3 9 7 0 17 -20 21 -40 4 -47
-42 -10 -67 -26 -108 -42 -108 -8 0 -17 6 -20 14 -3 7 -20 22 -39 32 -32 17
-34 17 -60 0 l-27 -18 33 59 c32 58 35 93 6 93 -7 0 -45 -17 -85 -37z"/>
<path d="M7616 8767 c-58 -92 -65 -125 -36 -152 32 -28 155 -24 183 6 23 24
14 38 -13 21 -23 -14 -146 -16 -154 -3 -12 18 16 71 40 77 13 3 24 10 24 15 0
5 5 8 12 7 6 -2 18 9 27 24 12 21 13 31 3 52 -6 14 -18 26 -26 26 -8 0 -35
-33 -60 -73z m45 0 l-23 -22 17 28 c10 15 20 25 23 22 3 -3 -5 -16 -17 -28z"/>
<path d="M8345 8824 c-76 -39 -92 -81 -54 -143 l20 -34 -35 6 c-37 6 -59 -9
-35 -24 8 -5 31 -9 52 -9 49 0 56 20 28 71 -30 54 -21 76 45 106 30 13 52 29
49 34 -9 13 -36 11 -70 -7z"/>
<path d="M14623 8798 c-26 -46 -73 -157 -73 -174 0 -8 6 -14 13 -14 7 0 26 33
41 73 16 39 37 84 48 99 18 26 17 48 -2 48 -4 0 -17 -15 -27 -32z"/>
<path d="M5773 8799 c-39 -25 -88 -118 -78 -148 3 -12 16 -26 27 -32 35 -19
154 10 145 35 -5 13 -15 12 -74 -5 -34 -10 -44 -10 -57 1 -15 11 -15 15 -1 36
8 13 15 30 15 38 0 16 59 70 68 62 7 -8 -17 -34 -39 -41 -10 -4 -19 -15 -19
-27 0 -20 0 -20 31 -1 42 24 72 65 63 86 -8 23 -42 21 -81 -4z"/>
<path d="M8522 8804 c-47 -20 -86 -83 -127 -208 -35 -104 -39 -146 -17 -146 4
0 27 34 51 75 23 41 47 75 52 75 22 0 110 94 120 130 20 65 -17 100 -79 74z
m51 -37 c8 -20 -17 -69 -53 -102 l-32 -30 17 40 c9 22 19 45 22 51 2 7 -1 15
-7 19 -8 5 -8 11 1 21 14 18 45 18 52 1z m-89 -64 c-18 -44 -34 -64 -34 -42 0
14 36 79 44 79 3 0 -2 -17 -10 -37z"/>
<path d="M6644 8776 c-37 -37 -42 -60 -19 -90 22 -29 18 -45 -11 -56 -14 -6
-24 -16 -21 -23 13 -41 94 14 81 56 -3 12 -13 30 -22 39 -13 16 -13 20 2 43 9
13 27 27 41 31 14 3 25 12 25 20 0 25 -42 14 -76 -20z"/>
<path d="M8948 8783 c-41 -45 -60 -90 -48 -113 15 -28 48 -30 89 -3 32 20 14
38 -23 22 -14 -7 -29 -9 -32 -6 -10 10 15 63 41 87 14 13 22 27 19 31 -9 15
-19 10 -46 -18z"/>
<path d="M13729 8775 c-38 -27 -46 -30 -42 -14 3 12 0 19 -8 19 -14 -1 -99
-128 -99 -148 0 -32 30 -17 99 50 114 111 117 112 85 40 -30 -69 -27 -112 7
-112 28 0 119 48 126 66 10 26 -2 25 -61 -7 -31 -17 -60 -29 -63 -25 -3 3 6
32 21 65 14 32 26 68 26 80 0 32 -37 26 -91 -14z"/>
<path d="M6327 8780 c-33 -26 -80 -107 -73 -126 9 -23 40 -16 81 16 21 17 39
30 42 30 2 0 1 -11 -3 -25 -7 -26 11 -59 27 -49 5 3 9 21 9 41 0 20 9 50 20
69 14 22 17 35 10 39 -6 4 -14 4 -17 1 -3 -3 -15 1 -27 9 -27 20 -38 19 -69
-5z m53 -29 c0 -8 -47 -47 -80 -66 -13 -8 -13 -7 0 11 31 42 54 64 67 64 7 0
13 -4 13 -9z"/>
<path d="M8681 8765 c-66 -60 -80 -137 -27 -151 25 -6 108 25 120 45 15 24 -6
31 -37 12 -41 -24 -77 -35 -77 -22 0 5 16 19 34 31 41 24 87 91 68 98 -7 2
-10 8 -6 13 15 24 -41 5 -75 -26z m24 -35 c-16 -16 -31 -28 -33 -25 -7 7 39
55 52 55 5 0 -3 -13 -19 -30z"/>
<path d="M6768 8761 c-21 -22 -26 -36 -24 -76 1 -48 2 -50 33 -53 23 -2 40 5
68 29 32 28 36 37 31 63 -7 36 -15 44 -41 49 -11 1 -25 6 -31 9 -5 4 -22 -6
-36 -21z m76 -37 c7 -18 -35 -64 -60 -64 -13 0 -15 6 -10 28 11 45 57 69 70
36z"/>
<path d="M12584 8756 c-34 -40 -98 -182 -89 -196 4 -6 12 -10 19 -10 15 0 31
75 20 92 -5 7 -1 9 9 5 11 -4 17 -1 17 6 0 7 13 34 30 60 26 42 33 47 56 41
22 -6 25 -4 22 12 -2 12 -13 20 -29 22 -20 2 -34 -5 -55 -32z"/>
<path d="M12887 8730 c-39 -62 -46 -94 -24 -103 16 -6 72 16 82 33 11 18 -4
25 -26 11 -34 -21 -34 -4 -1 50 35 55 39 69 19 69 -6 0 -29 -27 -50 -60z"/>
<path d="M14720 8756 c-48 -37 -81 -99 -62 -118 7 -7 15 -1 26 18 22 40 57 79
83 93 20 10 21 9 20 -37 l-2 -47 43 1 c29 1 50 7 64 21 30 31 13 48 -22 23
-42 -30 -62 -27 -53 8 14 55 10 67 -22 69 -21 2 -43 -7 -75 -31z"/>
<path d="M13438 8753 c-61 -67 -74 -115 -40 -146 23 -21 41 -21 92 -1 100 40
107 152 9 168 -30 5 -39 2 -61 -21z m96 -35 c18 -30 -28 -80 -86 -94 -37 -8
-47 18 -24 61 29 53 87 70 110 33z"/>
<path d="M9814 8718 c-26 -45 -54 -109 -54 -125 0 -3 7 -3 16 -1 14 3 64 108
64 136 0 6 5 11 12 10 6 -2 14 5 16 15 8 36 -24 15 -54 -35z"/>
<path d="M10193 8743 c-70 -102 -51 -147 37 -87 l50 34 0 -72 c0 -40 -5 -90
-10 -110 -9 -32 -17 -39 -50 -48 -49 -13 -80 -60 -80 -119 0 -79 56 -61 106
33 l29 55 63 7 c64 7 111 31 98 52 -5 9 -13 8 -29 -2 -12 -7 -44 -16 -70 -20
-45 -5 -48 -4 -43 14 3 11 8 28 11 38 8 31 14 232 6 232 -4 0 -31 -18 -61 -40
-60 -44 -75 -45 -42 0 23 30 29 60 13 60 -5 0 -18 -12 -28 -27z m28 -351 c-11
-21 -27 -44 -35 -51 -14 -12 -16 -10 -16 11 0 29 35 78 56 78 12 0 11 -7 -5
-38z"/>
<path d="M12714 8742 c-78 -72 -106 -140 -65 -162 28 -14 81 -2 81 20 0 10 7
23 15 30 10 8 12 17 6 23 -12 12 -51 -9 -51 -27 0 -15 -24 -28 -34 -19 -14 14
-4 31 22 42 38 16 116 96 108 110 -12 19 -50 11 -82 -17z"/>
<path d="M13250 8758 c0 -7 -5 -30 -11 -51 -8 -32 -13 -36 -25 -27 -11 10 -15
9 -19 -1 -7 -20 9 -72 23 -77 15 -5 49 69 58 126 5 35 4 42 -10 42 -9 0 -16
-6 -16 -12z"/>
<path d="M9631 8678 c-22 -46 -67 -125 -100 -177 -34 -52 -61 -101 -61 -108 0
-7 -7 -13 -15 -13 -22 0 -18 -27 5 -33 16 -4 24 4 39 38 11 24 38 72 62 106
49 73 139 250 132 262 -11 18 -24 2 -62 -75z m26 10 c-3 -8 -6 -5 -6 6 -1 11
2 17 5 13 3 -3 4 -12 1 -19z"/>
<path d="M9943 8713 c-24 -26 -53 -60 -64 -76 -19 -25 -19 -27 -3 -34 13 -5
24 2 38 22 34 47 88 105 97 105 14 0 11 -47 -6 -87 -9 -20 -12 -40 -8 -44 27
-27 70 90 49 133 -20 41 -53 35 -103 -19z"/>
<path d="M9070 8705 c-12 -36 -8 -65 8 -65 5 0 12 12 16 28 3 15 8 37 12 50
11 38 -23 26 -36 -13z"/>
<path d="M9466 8731 c-7 -11 10 -105 24 -131 13 -24 36 -26 44 -4 8 22 8 24
-8 24 -8 0 -17 13 -20 30 -3 17 -9 44 -12 60 -6 30 -18 38 -28 21z"/>
<path d="M12448 8696 c-9 -8 -24 -35 -34 -60 -10 -25 -27 -47 -36 -50 -27 -7
-23 -46 5 -46 18 0 29 15 59 78 35 74 38 110 6 78z"/>
<path d="M2735 8408 c-4 -35 -7 -75 -6 -90 0 -17 -5 -28 -13 -28 -13 0 -56
-106 -56 -137 0 -25 31 -13 67 27 37 40 60 52 50 26 -3 -7 0 -19 6 -25 8 -8 8
-11 0 -11 -6 0 -9 -9 -6 -20 3 -11 12 -20 19 -20 20 0 19 113 0 129 -11 10
-22 6 -50 -20 -20 -17 -36 -29 -36 -27 0 2 13 42 30 88 32 92 40 170 16 170
-9 0 -16 -20 -21 -62z"/>
<path d="M6188 8412 c-10 -32 -40 -107 -68 -165 -41 -86 -51 -116 -48 -150 2
-31 8 -43 21 -45 15 -3 17 2 11 35 -6 39 -1 53 69 203 42 89 57 131 57 156 0
45 -25 24 -42 -34z"/>
<path d="M3320 8383 c-18 -43 -48 -108 -66 -144 -19 -37 -34 -74 -34 -83 0
-16 25 -23 32 -8 5 12 91 72 104 72 8 0 10 -14 6 -45 -4 -37 -2 -45 12 -45 26
0 31 4 28 20 -2 8 -3 31 -3 51 1 54 -20 67 -67 43 -20 -10 -40 -20 -43 -22 -4
-2 15 48 42 109 26 62 46 116 43 121 -12 19 -24 4 -54 -69z"/>
<path d="M4432 8448 c-5 -7 -18 -33 -28 -58 -10 -25 -33 -70 -50 -100 -58 -98
-87 -220 -53 -220 14 0 36 41 52 96 23 78 52 129 94 161 44 35 83 57 89 50 3
-2 -4 -46 -16 -98 -11 -51 -20 -97 -20 -101 0 -16 18 -7 60 32 39 36 45 39 60
25 11 -10 15 -26 12 -49 -6 -50 26 -79 76 -71 52 9 93 26 86 36 -3 5 0 9 6 9
6 0 8 4 5 10 -4 6 -17 4 -36 -6 -62 -31 -140 0 -94 38 50 41 56 50 53 80 -4
44 -22 45 -51 3 -24 -36 -26 -36 -36 -16 -14 25 -34 27 -51 5 -8 -8 -21 -19
-29 -24 -15 -8 -15 -2 0 73 24 120 16 128 -68 73 -29 -19 -57 -37 -62 -41 -6
-3 -2 15 9 41 20 46 15 79 -8 52z"/>
<path d="M6083 8439 c-3 -12 -17 -42 -31 -68 -118 -222 -135 -271 -91 -271 17
0 20 4 15 24 -4 16 9 52 45 122 28 54 59 115 69 134 30 57 34 80 15 80 -9 0
-19 -10 -22 -21z"/>
<path d="M5612 8408 c-16 -24 -39 -74 -52 -113 -12 -38 -33 -88 -45 -110 -13
-22 -24 -51 -26 -65 -4 -24 -2 -25 41 -22 25 2 70 16 100 30 59 29 78 59 66
105 -9 37 -44 44 -89 17 -20 -12 -37 -20 -37 -17 0 23 57 148 77 169 23 24 25
48 3 48 -5 0 -22 -19 -38 -42z m58 -198 c0 -10 -12 -28 -26 -39 -29 -23 -92
-46 -101 -37 -8 8 44 63 81 87 33 20 46 17 46 -11z"/>
<path d="M8495 8440 c-10 -16 4 -50 21 -50 11 0 14 8 12 27 -3 28 -22 41 -33
23z"/>
<path d="M6837 8434 c-4 -4 -7 -18 -7 -31 0 -28 23 -27 28 1 4 20 -11 40 -21
30z"/>
<path d="M13445 8408 c-371 -13 -1586 -15 -1607 -3 -12 6 -21 6 -28 -1 -8 -8
-3 -16 16 -29 21 -14 43 -16 113 -14 47 2 262 3 476 1 338 -3 653 3 1255 23
80 3 182 5 228 5 66 0 82 3 82 15 0 17 -103 18 -535 3z"/>
<path d="M2401 8335 c-30 -19 -59 -36 -65 -38 -8 -3 -8 -8 1 -17 9 -10 21 -7
60 16 42 24 46 25 33 7 -65 -91 -100 -148 -97 -157 8 -23 35 -15 85 24 45 36
52 39 52 22 0 -75 67 -67 108 13 5 11 12 40 13 65 3 35 0 45 -11 45 -10 0 -17
-14 -20 -45 -6 -45 -34 -100 -52 -100 -5 0 -8 19 -6 42 2 23 -2 43 -8 45 -6 2
-35 -16 -65 -39 l-54 -43 38 50 c48 64 79 123 72 135 -10 16 -27 11 -84 -25z"/>
<path d="M8226 8303 c-15 -21 -36 -53 -47 -70 -10 -18 -23 -33 -29 -33 -17 0
-31 39 -28 78 2 27 -1 37 -12 37 -27 0 -25 -87 2 -129 13 -20 28 -36 34 -36
16 0 45 35 74 88 14 26 32 47 40 47 9 0 16 11 18 28 5 39 -19 35 -52 -10z"/>
<path d="M2950 8315 c0 -8 7 -15 15 -15 8 0 15 7 15 15 0 8 -7 15 -15 15 -8 0
-15 -7 -15 -15z"/>
<path d="M7630 8300 c-8 -5 -25 -7 -37 -3 -18 4 -23 1 -23 -13 0 -11 -16 -39
-36 -63 -34 -44 -41 -80 -17 -89 7 -2 32 26 55 62 40 64 71 87 89 69 5 -5 0
-24 -11 -46 -24 -44 -24 -47 -7 -47 7 0 26 14 43 31 32 34 84 65 84 50 0 -5
-9 -26 -21 -46 -19 -32 -20 -65 -2 -65 14 1 64 117 57 134 -7 19 -40 20 -74 2
-22 -13 -27 -12 -47 10 -24 26 -31 28 -53 14z"/>
<path d="M7917 8261 c-49 -52 -59 -88 -33 -110 34 -28 109 25 108 76 -1 47 -8
77 -19 80 -5 2 -31 -19 -56 -46z m43 -33 c0 -16 -31 -48 -47 -48 -19 0 -16 13
8 44 20 25 39 27 39 4z"/>
<path d="M8835 8293 c-67 -35 -93 -76 -67 -105 27 -31 104 -19 149 24 20 19
21 19 18 2 -2 -11 -7 -40 -10 -65 -5 -40 -10 -48 -40 -62 -57 -27 -99 -136
-73 -186 7 -13 18 -24 23 -24 17 -1 63 74 87 140 25 69 23 68 145 78 96 9 113
13 113 30 0 11 -7 14 -22 11 -13 -3 -58 -8 -101 -11 -43 -3 -85 -9 -94 -12
-12 -5 -14 -1 -8 15 9 30 10 126 1 140 -13 21 -35 13 -50 -17 -22 -42 -116
-71 -116 -36 0 18 53 53 93 62 33 7 37 33 5 33 -13 -1 -36 -8 -53 -17z m40
-308 c-26 -53 -52 -76 -41 -35 3 11 9 30 12 43 8 28 47 72 52 57 2 -6 -8 -35
-23 -65z"/>
<path d="M6721 8211 c-44 -96 -50 -121 -26 -121 8 0 15 5 15 11 0 6 18 49 40
96 44 94 46 103 26 103 -7 0 -32 -40 -55 -89z"/>
<path d="M8396 8292 c-4 -6 -2 -21 4 -32 15 -29 -11 -87 -42 -92 -34 -5 -28
-23 10 -26 30 -3 34 0 52 40 11 24 20 50 20 59 0 24 -35 65 -44 51z"/>
<path d="M8615 8284 c-22 -8 -41 -14 -42 -14 -9 -1 -71 -94 -67 -101 8 -14 34
-11 34 4 0 23 64 76 100 84 l35 6 -18 -24 c-31 -44 -48 -79 -42 -89 10 -15 25
-12 32 8 4 9 17 34 31 54 41 64 11 98 -63 72z"/>
<path d="M3050 8272 c-131 -87 -89 -177 58 -121 41 16 13 30 -40 20 -76 -14
-81 2 -20 57 29 26 50 51 46 55 -10 10 -15 8 -44 -11z"/>
<path d="M5850 8278 c-14 -5 -40 -23 -57 -41 -52 -49 -39 -90 20 -68 24 9 27
8 27 -9 0 -24 45 -28 54 -5 3 9 0 15 -9 15 -18 0 -18 8 -1 39 12 22 11 67 -3
75 -3 2 -17 -1 -31 -6z m-11 -57 c-13 -11 -28 -20 -34 -20 -5 0 3 11 20 24 16
13 31 22 34 20 2 -3 -7 -13 -20 -24z"/>
<path d="M6876 8259 c-33 -38 -33 -59 -1 -89 33 -31 32 -46 -5 -65 -37 -19
-66 -19 -74 1 -8 20 -26 9 -26 -16 0 -45 77 -44 134 1 33 26 33 56 -1 91 l-27
28 32 33 c37 38 39 47 13 47 -11 0 -31 -14 -45 -31z"/>
<path d="M2865 8170 c-16 -49 -15 -80 3 -80 5 0 16 27 25 60 20 72 20 70 3 70
-8 0 -21 -21 -31 -50z"/>
<path d="M9275 8196 c-18 -13 -16 -46 4 -46 15 0 31 34 22 48 -5 9 -12 9 -26
-2z"/>
<path d="M7277 8018 c-21 -85 -78 -251 -100 -293 -28 -52 -34 -85 -16 -85 6 0
19 10 29 23 16 19 18 20 17 3 -3 -31 28 -43 60 -25 41 24 93 105 93 144 0 46
-30 71 -70 57 -37 -13 -37 -11 -11 81 14 47 16 67 8 67 -7 0 -4 5 6 11 20 12
23 39 3 39 -7 0 -16 -10 -19 -22z m53 -237 c0 -19 -13 -43 -41 -75 -40 -45
-42 -46 -60 -30 -27 25 -24 45 17 92 44 52 84 58 84 13z"/>
<path d="M2905 8011 c-8 -15 3 -31 21 -31 9 0 14 7 12 17 -4 20 -24 28 -33 14z"/>
<path d="M6192 7947 c-12 -13 -22 -29 -22 -36 0 -7 -6 -11 -14 -8 -7 3 -18 1
-24 -5 -8 -8 -15 -6 -27 5 -20 20 -49 11 -117 -39 -67 -50 -87 -96 -54 -123
18 -15 34 -8 133 65 39 30 74 54 76 54 3 0 -4 -17 -14 -37 -46 -89 -8 -122
101 -89 40 12 45 17 42 40 -2 17 3 29 13 32 18 7 20 34 3 34 -22 -1 -48 -26
-48 -48 0 -20 -42 -42 -81 -42 -33 0 -19 42 46 141 25 37 45 69 45 73 0 15
-39 4 -58 -17z m-92 -74 c0 -5 -22 -23 -48 -40 -26 -18 -57 -40 -70 -49 -30
-22 -41 -10 -16 17 46 53 134 100 134 72z"/>
<path d="M2987 7925 c-66 -50 -67 -63 -10 -112 62 -55 58 -59 -69 -72 -5 -1
-8 -8 -8 -17 0 -14 8 -15 58 -9 72 9 92 20 92 49 0 22 -54 86 -72 86 -27 0 26
62 65 75 21 8 22 21 3 28 -8 3 -35 -9 -59 -28z"/>
<path d="M5630 7912 c0 -5 -10 -13 -22 -16 -13 -3 -44 -22 -70 -41 -52 -38
-62 -71 -33 -109 25 -32 18 -39 -35 -34 -43 4 -50 3 -48 -11 4 -22 95 -28 123
-7 21 16 22 13 -17 76 -11 17 -9 23 12 45 14 13 45 35 70 48 44 23 58 46 33
55 -7 2 -13 -1 -13 -6z"/>
<path d="M4375 7898 c-3 -8 1 -32 9 -54 13 -39 6 -81 -13 -70 -4 3 -25 -5 -46
-17 -41 -23 -59 -57 -31 -57 9 0 16 3 16 8 0 8 100 66 104 60 1 -1 15 -20 30
-40 28 -38 56 -50 56 -25 0 8 -9 22 -21 33 -44 40 -43 52 6 76 25 12 45 25 45
29 0 19 -23 18 -61 -1 -22 -12 -43 -20 -45 -18 -2 2 -7 22 -12 43 -8 40 -28
57 -37 33z"/>
<path d="M4970 7896 c-52 -29 -129 -166 -110 -196 11 -18 41 -5 34 14 -17 43
82 166 132 166 16 0 24 5 22 13 -6 17 -49 19 -78 3z"/>
<path d="M4134 7881 c-17 -10 -41 -35 -53 -55 -13 -20 -29 -36 -37 -36 -8 0
-14 -7 -14 -15 0 -8 7 -15 15 -15 8 0 24 -9 35 -20 25 -25 80 -26 156 -4 51
15 72 29 60 41 -3 3 -34 -2 -70 -11 -111 -27 -162 -15 -89 23 78 39 108 103
53 109 -14 1 -39 -6 -56 -17z m48 -23 c-6 -7 -25 -21 -44 -31 l-33 -19 33 31
c32 31 66 45 44 19z"/>
<path d="M4727 7870 c-26 -23 -36 -27 -46 -17 -16 16 -29 -5 -36 -63 -4 -25
-29 -100 -56 -167 -27 -67 -46 -129 -43 -138 12 -29 32 -15 44 33 21 77 61
162 78 162 34 0 136 95 159 148 30 71 -36 99 -100 42z m73 -20 c0 -22 -98
-130 -118 -130 -19 0 -14 23 17 72 44 69 101 102 101 58z"/>
<path d="M2856 7878 c-3 -7 -9 -35 -16 -63 -6 -27 -16 -55 -22 -62 -7 -9 -6
-15 6 -19 23 -9 26 -4 46 68 17 63 17 88 -1 88 -5 0 -11 -6 -13 -12z"/>
<path d="M5356 7859 c-36 -24 -46 -36 -42 -50 19 -60 19 -59 2 -53 -20 8 -21
-15 -2 -42 22 -29 41 -3 42 59 0 49 2 53 37 72 35 19 43 35 21 42 -6 2 -32
-11 -58 -28z"/>
<path d="M7526 7820 l-55 -52 -8 32 c-10 36 -27 44 -31 14 -4 -31 15 -74 35
-74 9 0 32 14 50 32 18 18 33 28 33 22 0 -5 -28 -58 -62 -119 -92 -166 -101
-186 -90 -197 13 -13 32 -1 32 20 0 10 11 34 25 55 38 55 145 269 145 289 0
34 -21 28 -74 -22z"/>
<path d="M5108 7839 c-14 -11 -40 -32 -56 -47 -27 -26 -29 -30 -18 -62 l11
-35 63 0 c45 0 66 5 72 15 5 8 10 11 10 6 0 -5 7 -3 15 4 26 22 1 32 -38 15
-40 -17 -93 -20 -101 -6 -3 5 20 22 52 37 42 22 58 35 60 53 6 42 -28 52 -70
20z m22 -34 c-7 -8 -18 -15 -24 -15 -6 0 -2 7 8 15 25 19 32 19 16 0z"/>
<path d="M5723 7827 c-55 -42 -77 -84 -59 -112 24 -36 131 -39 131 -5 0 11
-12 14 -48 11 -77 -4 -73 37 8 91 25 16 24 14 -7 -15 -53 -48 -51 -77 2 -40
39 27 60 54 60 80 0 34 -36 30 -87 -10z"/>
<path d="M9267 7833 c-15 -14 -5 -29 39 -57 l45 -29 -21 -22 c-11 -12 -40 -32
-65 -44 -30 -15 -45 -29 -45 -42 0 -10 4 -19 8 -19 15 0 167 110 167 121 0 15
-120 101 -128 92z"/>
<path d="M10129 7772 c-43 -50 -131 -226 -159 -317 -11 -38 -24 -106 -27 -151
-5 -67 -2 -87 15 -126 11 -26 32 -54 46 -64 37 -23 156 -65 167 -59 20 13 6
23 -58 44 -80 26 -108 47 -128 95 -38 89 6 282 105 463 50 91 78 123 106 123
33 0 26 24 -8 28 -19 2 -34 -6 -59 -36z"/>
<path d="M9048 7753 c-10 -2 -18 -10 -18 -16 0 -9 39 -12 135 -13 93 0 134 3
132 10 -2 6 -17 14 -33 17 -33 8 -191 9 -216 2z"/>
<path d="M10845 7696 c-9 -20 -26 -61 -40 -91 l-24 -55 -55 0 c-31 0 -56 4
-56 10 0 13 54 40 80 40 11 0 20 7 20 15 0 22 -48 19 -88 -5 -64 -39 -115
-156 -98 -224 3 -13 17 -38 32 -55 l25 -30 -45 -78 c-44 -74 -58 -123 -36
-123 6 0 15 12 21 27 6 15 29 60 51 100 40 69 44 73 85 79 83 12 162 98 147
159 -3 14 -18 34 -32 45 l-25 20 33 78 c17 42 36 82 41 88 6 7 4 16 -6 24 -13
11 -17 7 -30 -24z m-85 -192 c0 -17 -95 -164 -106 -164 -24 0 -47 59 -40 103
11 68 17 72 85 69 34 -2 61 -6 61 -8z m70 -54 c0 -38 -53 -97 -98 -110 l-33
-9 32 57 c18 31 39 69 46 84 12 23 18 26 34 18 12 -7 19 -21 19 -40z"/>
<path d="M11455 7665 c-37 -54 -60 -66 -83 -43 -9 9 -21 8 -52 -2 -93 -31
-132 -200 -60 -265 19 -17 19 -18 -5 -66 -26 -50 -32 -89 -16 -89 6 0 22 27
36 59 25 56 29 59 68 65 57 9 117 44 145 86 30 44 25 96 -13 146 -31 40 -28
58 19 105 18 19 31 40 28 47 -8 25 -32 10 -67 -43z m-107 -190 c-29 -58 -57
-104 -63 -102 -5 2 -16 21 -24 43 -11 31 -11 48 -2 82 17 61 41 82 96 82 l45
0 -52 -105z m105 61 c44 -67 25 -124 -56 -162 -29 -13 -58 -24 -64 -24 -8 0 8
43 39 105 29 58 56 105 59 105 4 0 14 -11 22 -24z"/>
<path d="M11665 7700 c-3 -5 7 -20 22 -32 160 -130 187 -232 107 -398 -46 -98
-90 -153 -115 -145 -10 4 -19 2 -19 -4 0 -20 13 -41 25 -41 25 0 98 95 139
180 36 76 41 92 41 160 0 107 -34 169 -145 263 -35 29 -45 32 -55 17z"/>
<path d="M9281 7600 c-8 -4 -41 -11 -72 -15 -32 -4 -63 -13 -70 -21 -6 -7 -12
-49 -13 -91 0 -46 -5 -77 -11 -77 -5 1 -19 28 -29 60 -30 94 -35 104 -52 111
-8 3 -21 0 -27 -6 -9 -9 -7 -16 9 -29 12 -9 24 -31 27 -49 8 -41 44 -118 63
-134 12 -10 18 -9 32 4 12 13 18 41 22 105 l5 87 63 11 c35 6 69 17 75 23 15
15 -3 33 -22 21z"/>
<path d="M10400 7603 c-23 -8 -80 -65 -80 -80 0 -22 21 -15 61 22 22 19 44 35
49 35 39 0 -38 -128 -109 -182 -25 -18 -46 -39 -49 -45 -7 -22 28 -14 64 13
43 33 64 26 64 -21 0 -29 5 -37 26 -45 17 -7 32 -7 45 0 28 16 23 30 -11 30
-27 0 -30 3 -30 32 0 17 -7 40 -17 50 -15 17 -15 20 4 41 49 53 70 138 37 151
-18 7 -33 7 -54 -1z"/>
<path d="M9758 7508 c-26 -9 -36 -27 -22 -40 3 -4 17 0 32 8 35 18 51 18 74
-2 16 -16 18 -15 24 1 15 37 -47 56 -108 33z"/>
<path d="M9375 7413 c-4 -10 -9 -54 -12 -98 -4 -57 -10 -84 -22 -93 -14 -11
-14 -14 -1 -22 13 -8 12 -10 -2 -10 -10 0 -18 -5 -18 -10 0 -12 48 -33 58 -26
4 2 9 44 10 93 2 48 7 106 12 127 5 22 7 44 4 48 -8 13 -21 9 -29 -9z"/>
<path d="M9733 7403 c-7 -2 -13 -10 -13 -18 0 -8 14 -12 43 -12 23 0 52 -3 65
-7 29 -11 31 18 3 34 -20 10 -76 12 -98 3z"/>
<path d="M10920 7323 c0 -18 -11 -41 -30 -62 -30 -33 -34 -51 -13 -58 19 -7
75 84 71 114 -4 37 -28 42 -28 6z"/>
<path d="M10139 6743 c-92 -57 -200 -360 -201 -563 -1 -108 10 -139 66 -187
30 -27 129 -73 156 -73 24 0 6 27 -29 43 -69 31 -122 77 -142 120 -25 56 -25
168 1 272 53 221 129 366 192 369 28 1 31 30 3 33 -11 2 -32 -5 -46 -14z"/>
<path d="M10575 6689 l-26 -51 -62 4 c-62 3 -62 3 -67 -27 -3 -16 -16 -50 -28
-75 -28 -58 -30 -138 -3 -171 18 -23 18 -24 0 -67 -37 -85 -50 -147 -39 -176
16 -43 31 -26 34 39 3 65 48 181 66 170 19 -12 94 17 126 49 57 57 62 138 14
207 -18 25 -18 26 11 78 27 51 30 71 9 71 -6 0 -21 -23 -35 -51z m-52 -95 c5
-5 -85 -198 -100 -214 -9 -10 -23 27 -23 63 0 72 51 157 95 157 12 0 24 -3 28
-6z m67 -100 c0 -25 -7 -56 -16 -70 -19 -29 -63 -54 -95 -54 -25 0 -25 -2 34
122 41 85 42 86 60 66 10 -13 17 -37 17 -64z"/>
<path d="M11865 6730 c-9 -15 4 -30 25 -30 26 0 121 -96 145 -145 24 -52 24
-128 -2 -185 -27 -60 -110 -159 -139 -166 -30 -8 -31 -34 -2 -34 32 0 130 107
164 177 63 132 19 264 -119 364 -42 30 -62 36 -72 19z"/>
<path d="M11707 6680 c-14 -16 -29 -39 -32 -51 -5 -16 -12 -19 -28 -14 -12 3
-38 8 -58 11 -32 4 -40 0 -69 -32 -36 -41 -60 -92 -60 -125 0 -21 47 -74 84
-94 20 -11 18 -17 -35 -118 -20 -39 -18 -82 4 -74 7 2 27 43 46 90 28 75 36
87 56 87 30 0 83 63 91 108 4 18 1 52 -6 76 -11 39 -10 48 10 85 11 23 27 44
35 48 8 3 15 11 15 19 0 24 -27 16 -53 -16z m-141 -120 c2 0 13 6 24 12 16 10
23 10 35 -3 14 -14 12 -22 -16 -87 l-32 -71 -28 15 c-55 28 -62 70 -22 129 21
30 28 36 31 23 2 -10 5 -18 8 -18z m99 -77 c-7 -28 -44 -87 -51 -80 -2 2 5 27
17 55 23 55 46 72 34 25z"/>
<path d="M11270 6659 c-46 -28 -90 -70 -90 -86 0 -23 31 -14 57 17 25 31 81
66 90 57 21 -22 -72 -184 -148 -256 -41 -40 -47 -55 -27 -67 7 -5 24 7 42 27
34 39 88 79 105 79 6 0 11 -13 11 -29 0 -39 24 -58 48 -40 21 17 41 42 42 52
0 13 -23 8 -42 -10 -17 -15 -18 -14 -18 27 0 41 -1 42 -28 38 l-29 -4 28 45
c32 53 55 130 46 154 -9 23 -45 21 -87 -4z"/>
<path d="M9111 6574 c-30 -8 -57 -16 -59 -18 -2 -2 -4 -51 -6 -108 -1 -56 -7
-112 -13 -123 -11 -18 -13 -17 -32 25 -24 55 -44 138 -35 151 8 14 -26 63 -37
52 -12 -12 7 -120 32 -190 53 -141 108 -111 117 64 l4 92 32 10 c17 5 50 13
73 16 32 5 41 11 40 25 -1 22 -39 24 -116 4z"/>
<path d="M9623 6518 c-59 -16 -40 -34 34 -32 70 1 96 18 46 29 -15 4 -32 8
-38 9 -5 2 -25 -1 -42 -6z"/>
<path d="M10817 6443 c-3 -5 -10 -34 -16 -65 -12 -67 -37 -120 -54 -116 -13 3
-17 -3 -17 -27 0 -41 58 4 83 65 19 46 32 150 18 150 -5 0 -12 -3 -14 -7z"/>
<path d="M9602 6423 c-43 -8 -16 -28 41 -30 58 -2 72 8 38 27 -20 10 -37 11
-79 3z"/>
<path d="M9166 6365 c-15 -14 -26 -31 -23 -38 6 -18 37 -21 37 -3 0 17 38 42
48 32 11 -12 -33 -120 -73 -180 -71 -105 -71 -104 -59 -116 9 -9 20 0 44 33
17 24 42 49 56 55 21 10 25 8 39 -18 25 -49 70 -64 100 -34 20 21 4 44 -18 25
-20 -16 -43 -5 -57 29 -7 16 -21 32 -32 36 -13 4 -17 11 -12 22 29 70 51 146
47 163 -8 29 -63 25 -97 -6z"/>
<path d="M12514 5898 c-44 -46 -80 -107 -108 -180 -20 -54 -28 -64 -54 -72
-38 -11 -45 -41 -8 -34 l24 5 -25 -74 c-14 -40 -22 -81 -19 -90 10 -25 20 -7
51 89 l29 87 40 3 c29 2 42 8 44 20 3 14 -3 16 -34 11 -35 -6 -36 -5 -29 18
15 54 66 147 102 184 l38 40 3 -28 c5 -40 27 -28 27 14 0 29 -4 34 -25 37 -18
2 -34 -7 -56 -30z"/>
<path d="M14930 5886 c0 -18 6 -18 111 -12 104 7 110 6 105 -11 -27 -87 -50
-218 -55 -313 l-6 -115 -81 3 c-88 3 -154 -15 -154 -42 0 -24 15 -27 54 -11
22 10 68 15 124 15 l89 0 6 133 c4 100 12 160 35 247 16 63 27 119 25 123 -3
4 -60 6 -129 5 -114 -3 -124 -5 -124 -22z"/>
<path d="M9228 5853 c0 -21 -1 -44 -1 -50 1 -7 -2 -11 -6 -9 -4 3 -26 -51 -49
-119 -23 -68 -53 -147 -67 -177 -27 -57 -31 -83 -15 -93 6 -3 19 15 31 42 76
177 100 222 141 259 21 19 47 34 59 34 23 0 23 -4 -22 -115 -17 -42 -24 -74
-19 -79 6 -6 30 5 61 27 l52 36 21 -32 c14 -20 32 -33 49 -35 15 -2 27 -7 27
-12 0 -23 34 -40 80 -40 50 0 71 13 51 33 -7 7 -5 14 7 23 22 16 10 28 -23 20
-16 -4 -25 -13 -25 -26 0 -15 -7 -20 -24 -20 -39 0 -39 16 -1 39 53 31 86 121
45 121 -16 0 -88 -69 -95 -91 -10 -31 -47 -23 -73 16 -26 40 -35 42 -78 16
l-31 -19 24 60 c37 92 17 133 -51 104 -18 -8 -43 -24 -56 -37 -20 -21 -22 -22
-16 -4 22 60 38 135 33 149 -11 29 -27 17 -29 -21z m342 -243 c-6 -11 -16 -20
-22 -20 -6 0 -3 9 7 20 10 11 20 20 22 20 2 0 -1 -9 -7 -20z"/>
<path d="M2642 5868 c-14 -14 -16 -75 -3 -80 15 -5 -8 -116 -35 -170 l-25 -50
-23 21 c-42 40 -74 22 -120 -67 -14 -28 -15 -37 -4 -60 21 -43 51 -40 108 14
86 81 146 232 138 351 -3 48 -15 62 -36 41z m-100 -310 l21 -21 -41 -39 c-47
-44 -62 -47 -62 -15 0 20 44 97 55 97 3 0 15 -10 27 -22z"/>
<path d="M8460 5854 c-6 -15 -10 -37 -9 -48 1 -12 -1 -28 -4 -36 -3 -8 -13
-43 -23 -77 l-16 -62 -56 -19 c-31 -10 -58 -24 -60 -30 -5 -15 22 -15 65 0 18
6 35 10 37 7 3 -2 -2 -33 -11 -67 -9 -35 -13 -65 -10 -69 13 -13 35 19 40 60
10 64 27 117 38 117 6 0 7 -5 3 -11 -5 -9 1 -10 22 -4 16 4 35 8 42 8 6 0 12
7 12 15 0 12 -9 13 -44 9 l-43 -6 23 90 c13 50 24 102 24 115 0 34 -19 39 -30
8z"/>
<path d="M14037 5872 c-43 -3 -51 -7 -77 -43 -30 -41 -44 -94 -56 -209 -3 -36
-15 -89 -26 -117 -33 -89 -9 -114 87 -92 42 9 55 16 53 28 -4 18 -47 28 -57
13 -9 -14 -44 -23 -58 -14 -10 6 -8 19 6 57 10 28 22 79 25 115 12 114 27 169
53 201 23 27 31 30 76 28 31 -2 52 1 54 8 6 18 -27 28 -80 25z"/>
<path d="M13661 5851 c-10 -10 -31 -41 -47 -70 -16 -28 -32 -51 -36 -51 -13 0
-9 18 5 23 9 4 9 7 -1 18 -11 12 -18 11 -43 -4 -17 -9 -44 -17 -60 -17 -31 0
-51 -26 -31 -39 8 -5 6 -22 -8 -59 -22 -59 -25 -94 -9 -123 8 -16 4 -30 -24
-72 -83 -125 -123 -232 -87 -232 8 0 17 14 21 33 8 38 43 109 90 180 30 46 34
49 60 42 44 -13 93 6 133 50 46 51 49 103 10 149 l-25 31 28 51 c15 29 36 57
45 63 19 12 25 46 8 46 -5 0 -18 -8 -29 -19z m-99 -156 c-2 -5 -24 -43 -49
-83 -53 -84 -74 -85 -55 -2 17 75 38 102 76 98 17 -2 30 -7 28 -13z m68 -87
c0 -21 -10 -40 -34 -64 -28 -28 -42 -34 -75 -34 l-41 0 57 86 c58 85 58 85 75
64 10 -12 18 -36 18 -52z"/>
<path d="M3687 5853 c-3 -5 -8 -45 -11 -91 -8 -94 -30 -186 -52 -219 -7 -12
-14 -31 -14 -41 0 -21 35 -62 54 -62 25 0 86 55 106 96 25 51 25 76 -1 99 -17
16 -25 17 -49 8 l-30 -11 5 36 c18 124 23 177 19 184 -6 10 -21 10 -27 1z m67
-249 c13 -34 -69 -145 -95 -128 -21 13 16 102 53 128 28 20 34 20 42 0z"/>
<path d="M4957 5844 c-4 -4 -7 -21 -7 -39 0 -46 -26 -137 -71 -249 -27 -68
-36 -103 -29 -110 16 -16 27 2 68 110 55 146 150 278 174 242 24 -38 -1 -124
-53 -183 -20 -23 -29 -41 -25 -52 6 -13 19 -5 69 45 l62 61 22 -38 c21 -36 21
-41 8 -85 -14 -46 -14 -48 11 -73 22 -22 31 -24 67 -19 59 9 107 26 107 37 0
6 5 7 10 4 6 -3 10 1 10 10 0 11 -5 15 -15 11 -55 -21 -128 -36 -145 -31 -35
11 -22 85 15 85 28 0 53 23 70 64 25 60 -12 76 -60 26 -16 -16 -32 -30 -35
-30 -3 0 -16 18 -29 40 -23 42 -31 46 -47 30 -7 -7 -9 6 -6 42 3 42 0 58 -16
77 -17 23 -22 24 -50 12 -16 -7 -42 -29 -57 -49 l-26 -37 3 49 c3 46 -8 67
-25 50z m313 -213 c-11 -21 -30 -37 -30 -25 0 8 30 44 37 44 2 0 -1 -9 -7 -19z"/>
<path d="M6741 5818 c-6 -18 -13 -58 -17 -88 -11 -86 -17 -96 -68 -109 -31 -7
-46 -17 -46 -27 0 -12 6 -15 23 -9 58 18 67 18 67 -1 0 -35 -12 -64 -26 -64
-25 0 -27 -23 -3 -41 13 -10 27 -19 31 -19 4 0 12 26 18 58 19 94 17 92 60 92
21 0 50 4 63 9 22 9 24 7 20 -12 -3 -12 -14 -46 -26 -75 -15 -38 -18 -55 -10
-63 15 -15 33 -3 33 22 0 11 7 33 15 50 19 36 25 103 8 104 -6 0 -14 3 -18 7
-4 4 -18 3 -32 -3 -13 -5 -39 -9 -57 -9 l-33 0 13 86 c7 48 18 92 23 97 17 17
13 27 -8 27 -13 0 -23 -11 -30 -32z"/>
<path d="M11493 5805 c-16 -19 -44 -65 -61 -102 -52 -108 -58 -116 -107 -150
-73 -51 -99 -27 -43 41 26 32 33 35 40 22 14 -25 30 -19 26 12 -5 46 -39 40
-87 -14 -87 -99 -18 -166 86 -84 30 24 38 20 46 -19 7 -33 41 -51 61 -31 8 8
7 14 -6 21 -10 6 -18 15 -18 22 0 7 4 6 10 -3 8 -13 10 -12 10 3 0 9 -7 17
-15 17 -22 0 -19 59 6 95 11 17 35 60 54 97 19 36 39 69 45 73 15 9 12 35 -4
35 -8 0 -27 -16 -43 -35z"/>
<path d="M14633 5793 c-51 -67 -126 -227 -118 -252 10 -31 29 -21 36 20 8 46
82 189 114 222 15 14 24 31 20 37 -11 17 -22 11 -52 -27z"/>
<path d="M3524 5809 c-8 -14 11 -33 25 -25 16 10 13 36 -3 36 -8 0 -18 -5 -22
-11z"/>
<path d="M6966 5781 c-9 -14 4 -41 20 -41 15 0 17 10 8 34 -7 18 -20 21 -28 7z"/>
<path d="M13169 5741 c-30 -16 -54 -35 -54 -42 0 -22 36 -23 51 -1 18 26 82
48 96 34 30 -30 -49 -134 -185 -245 -46 -37 -57 -60 -37 -72 5 -3 39 21 75 55
35 33 67 60 70 60 3 0 3 -15 0 -34 -6 -27 -2 -39 15 -56 18 -18 28 -20 63 -15
38 7 75 30 65 41 -3 3 -23 1 -45 -4 -59 -14 -71 -3 -65 59 4 39 13 64 38 96
58 75 55 153 -5 153 -16 0 -52 -13 -82 -29z"/>
<path d="M14747 5740 c-56 -35 -60 -59 -17 -90 41 -29 25 -53 -34 -48 -54 4
-57 -22 -4 -35 30 -7 42 -5 62 10 41 29 44 61 10 88 -24 19 -26 25 -16 38 7 8
26 20 43 27 28 12 35 30 13 37 -5 2 -31 -10 -57 -27z"/>
<path d="M10693 5732 c-53 -29 -124 -101 -155 -159 -32 -59 -81 -188 -93 -240
-12 -60 21 -38 72 47 26 44 54 80 61 80 22 0 111 91 146 149 40 67 51 108 35
127 -15 18 -27 17 -66 -4z m22 -75 c-16 -30 -50 -79 -77 -108 l-49 -54 4 58
c4 50 10 64 38 94 32 32 100 75 108 68 2 -2 -9 -28 -24 -58z m-176 -176 c-29
-66 -37 -58 -8 8 12 29 24 49 26 47 3 -3 -5 -28 -18 -55z"/>
<path d="M14305 5700 c-10 -11 -25 -19 -34 -18 -14 3 -30 -45 -34 -107 -4 -40
27 -20 46 30 10 28 25 57 34 65 14 14 15 10 9 -32 -7 -58 4 -61 59 -18 21 17
39 30 41 30 2 0 3 -15 2 -32 -2 -24 1 -33 12 -33 18 0 36 93 22 107 -11 11
-45 -4 -81 -36 -20 -18 -23 -18 -18 -3 8 23 -9 67 -26 67 -8 0 -22 -9 -32 -20z"/>
<path d="M2944 5688 c-59 -45 -69 -81 -34 -113 11 -10 20 -23 20 -30 0 -20
-36 -46 -54 -39 -12 4 -16 1 -16 -15 0 -31 40 -27 73 7 32 34 34 60 7 95 -18
22 -19 29 -8 47 7 11 16 20 19 20 12 0 48 37 42 44 -10 10 -19 7 -49 -16z"/>
<path d="M10440 5693 c-49 -25 -62 -56 -55 -125 6 -55 5 -58 -16 -58 -12 0
-28 8 -35 18 -12 16 -13 16 -19 0 -13 -32 2 -48 42 -48 60 0 67 9 60 76 -9 83
11 114 71 114 22 0 32 5 32 15 0 8 -4 15 -9 15 -5 0 -15 2 -23 5 -7 3 -29 -3
-48 -12z"/>
<path d="M11098 5668 c-48 -46 -85 -98 -93 -129 -12 -49 64 -78 114 -43 30 22
14 38 -24 24 -16 -6 -35 -8 -42 -5 -18 6 -13 46 7 55 8 4 36 17 63 29 54 24
78 60 57 86 -19 23 -45 18 -82 -17z m36 -35 c-30 -22 -39 -15 -13 13 15 16 25
21 28 13 2 -7 -4 -18 -15 -26z"/>
<path d="M10856 5648 c-45 -47 -68 -90 -60 -112 8 -22 56 -38 103 -34 46 3 60
21 21 26 -68 7 -90 14 -90 27 0 10 10 15 28 15 38 0 69 24 77 60 7 31 -7 60
-27 60 -6 0 -29 -19 -52 -42z m39 -28 c-10 -11 -23 -20 -28 -20 -6 0 0 11 13
25 27 29 42 25 15 -5z"/>
<path d="M3051 5655 c-30 -26 -34 -34 -46 -92 -5 -27 -2 -37 19 -58 24 -23 31
-25 74 -19 72 10 122 40 107 64 -4 6 -15 4 -30 -6 -31 -20 -94 -35 -117 -28
-13 4 -18 16 -18 42 1 41 12 60 53 86 15 10 27 22 27 27 0 18 -39 8 -69 -16z"/>
<path d="M3339 5652 c-62 -32 -79 -58 -79 -124 0 -42 3 -48 21 -48 18 0 20 4
14 30 -13 58 1 84 62 116 52 27 67 44 45 52 -5 1 -33 -10 -63 -26z"/>
<path d="M2747 5653 c-9 -11 -24 -36 -33 -58 -9 -22 -22 -44 -30 -50 -12 -8
-9 -16 16 -44 28 -30 35 -33 71 -28 48 6 46 5 54 40 9 33 -13 37 -40 7 -21
-23 -36 -25 -53 -8 -9 9 -5 15 16 28 16 10 35 32 44 50 27 56 -7 104 -45 63z
m8 -61 c-15 -16 -16 -15 -4 12 7 15 15 23 17 16 3 -7 -3 -19 -13 -28z"/>
<path d="M3906 5650 c-35 -22 -76 -86 -76 -117 0 -12 10 -29 22 -37 39 -28
148 -16 148 15 0 6 -16 8 -45 3 -78 -11 -134 16 -61 30 37 7 86 55 86 85 0 19
-18 41 -34 41 -6 0 -24 -9 -40 -20z m27 -45 c-19 -25 -42 -39 -51 -30 -8 8 39
55 55 55 11 0 10 -6 -4 -25z"/>
<path d="M6167 5658 c-10 -5 -31 -31 -48 -56 -22 -35 -28 -40 -23 -21 6 30 -8
46 -24 26 -9 -10 -32 -112 -32 -139 0 -4 6 -8 14 -8 8 0 36 34 61 75 26 41 52
78 57 81 6 4 8 -12 7 -42 -4 -63 15 -69 58 -18 31 36 33 37 27 12 -6 -26 9
-66 30 -80 19 -13 52 -8 74 11 38 32 25 56 -14 26 -44 -33 -68 -3 -53 65 14
62 -1 69 -50 25 l-41 -37 0 35 c0 41 -17 60 -43 45z"/>
<path d="M4129 5641 l-24 -20 23 -44 c29 -55 26 -87 -11 -107 -26 -14 -29 -14
-47 10 -11 14 -24 39 -28 55 -5 17 -12 29 -18 28 -19 -5 -14 -44 11 -88 22
-36 32 -45 55 -45 33 0 78 33 91 67 7 19 4 35 -12 69 -19 36 -20 46 -9 59 22
26 -3 39 -31 16z"/>
<path d="M7322 5610 c-39 -28 -73 -50 -76 -50 -2 0 -3 14 -2 31 0 18 -5 34
-11 36 -8 3 -13 -4 -13 -17 0 -11 -9 -38 -20 -60 -25 -48 -25 -50 0 -50 11 0
51 23 89 50 75 55 87 60 71 31 -16 -31 -12 -69 9 -81 26 -14 98 -13 107 1 4 7
-4 20 -17 30 -29 23 -53 25 -45 4 3 -9 0 -15 -10 -15 -23 0 -27 26 -10 61 18
36 21 65 7 73 -5 3 -40 -17 -79 -44z"/>
<path d="M6458 5628 c-26 -22 -48 -61 -48 -88 0 -52 41 -64 98 -30 26 16 32
26 32 52 -1 55 -48 93 -82 66z m52 -64 c0 -15 -38 -44 -57 -44 -20 0 -15 34 9
65 20 26 22 27 35 9 7 -10 13 -23 13 -30z"/>
<path d="M8088 5610 c-43 -23 -65 -52 -74 -96 -11 -57 43 -69 107 -23 24 16
28 17 39 4 10 -12 16 -13 26 -4 9 8 11 16 5 23 -6 6 -14 34 -18 61 -10 59 -27
66 -85 35z m47 -43 c-8 -30 -41 -62 -73 -72 -22 -6 -23 -5 -17 17 10 31 24 48
60 69 34 21 38 20 30 -14z"/>
<path d="M12139 5589 c-54 -58 -48 -129 10 -129 86 0 132 80 76 135 -32 33
-51 31 -86 -6z m75 -31 c14 -23 -18 -68 -49 -68 -13 0 -27 5 -30 10 -10 16 5
50 21 50 8 0 17 7 21 15 6 19 22 15 37 -7z"/>
<path d="M7026 5566 c-69 -71 -72 -136 -6 -136 31 0 76 37 90 75 11 28 -7 96
-27 102 -7 3 -32 -16 -57 -41z m54 -33 c0 -31 -35 -73 -62 -73 -10 0 -18 3
-18 6 0 21 56 94 72 94 4 0 8 -12 8 -27z"/>
<path d="M3436 5550 c-7 -54 -3 -70 19 -70 8 0 13 12 14 33 0 17 2 43 3 57 2
16 -3 26 -13 28 -13 2 -18 -8 -23 -48z"/>
<path d="M9546 5355 c-56 -44 -79 -87 -111 -210 -29 -111 -30 -115 -10 -115 9
0 22 23 34 63 51 159 70 202 106 235 71 65 93 21 50 -100 -15 -40 -29 -85 -32
-100 -9 -47 19 -32 56 28 l33 56 19 -41 c10 -23 29 -46 43 -52 15 -7 28 -23
31 -41 11 -50 40 -60 122 -43 91 19 103 24 103 42 0 11 -6 14 -22 9 -13 -4
-45 -11 -71 -16 -27 -5 -52 -12 -57 -15 -18 -11 -40 8 -40 34 1 18 10 32 33
46 37 23 79 82 75 104 -2 9 -14 17 -27 19 -28 4 -65 -28 -92 -80 -11 -21 -23
-38 -28 -38 -15 0 -41 30 -45 53 -3 12 -7 34 -11 50 -6 28 -29 37 -38 15 -3
-7 -3 10 0 38 10 99 -37 122 -121 59z m324 -134 c0 -14 -49 -68 -50 -55 0 11
38 64 46 64 2 0 4 -4 4 -9z"/>
<path d="M5010 5348 c-1 -18 -9 -67 -18 -108 -17 -72 -19 -75 -50 -80 -43 -7
-46 -24 -4 -28 29 -3 32 -5 25 -30 -10 -39 -9 -66 2 -72 6 -3 16 21 24 53 11
48 17 57 35 57 12 0 28 6 35 13 11 10 13 10 7 0 -5 -10 4 -13 33 -13 23 0 41
-4 41 -10 0 -5 -4 -10 -10 -10 -15 0 -39 -55 -30 -69 6 -11 21 -7 71 17 35 16
65 26 67 21 2 -5 -15 -49 -37 -97 -49 -107 -55 -160 -15 -145 9 3 12 13 9 24
-4 11 13 61 41 123 26 58 44 112 41 120 -8 20 -44 20 -77 1 -40 -23 -46 -17
-15 15 16 16 25 33 21 37 -3 4 -49 6 -101 4 -52 -1 -95 1 -95 6 0 4 7 35 15
68 19 81 19 135 0 135 -10 0 -15 -10 -15 -32z"/>
<path d="M6707 5343 c-4 -3 -7 -30 -7 -60 l0 -53 -34 0 c-41 0 -91 -35 -64
-45 9 -4 25 -2 37 4 45 25 51 17 51 -74 0 -65 3 -85 14 -85 18 0 26 45 19 113
l-6 57 57 0 c43 0 56 3 56 15 0 11 -12 15 -50 15 l-50 0 0 60 c0 55 -6 70 -23
53z"/>
<path d="M13803 5288 c-58 -56 -64 -60 -57 -34 6 24 4 27 -12 24 -14 -2 -25
-28 -47 -108 -42 -153 -41 -150 -24 -150 10 0 22 19 32 49 8 26 29 70 46 97
33 52 117 144 133 144 17 0 -2 -107 -28 -158 -14 -28 -26 -56 -26 -62 0 -22
29 -8 73 36 48 50 61 51 70 6 8 -41 38 -74 69 -75 19 -2 29 -9 33 -24 11 -44
94 -65 184 -47 22 5 31 12 31 26 0 15 -3 17 -19 8 -11 -5 -46 -10 -79 -10 -44
0 -63 5 -75 18 -22 24 -21 31 7 53 33 26 61 88 47 102 -14 14 -58 -17 -86 -61
-35 -55 -68 -38 -89 44 -7 26 -17 49 -23 51 -6 2 -25 -9 -44 -24 -28 -23 -32
-25 -25 -8 32 85 28 165 -10 165 -8 0 -45 -28 -81 -62z"/>
<path d="M8060 5311 c0 -17 -12 -67 -26 -112 -26 -81 -32 -137 -19 -158 12
-20 25 0 25 38 0 21 9 64 20 96 11 33 23 83 27 112 5 45 3 53 -11 53 -11 0
-16 -9 -16 -29z"/>
<path d="M4205 5310 c-3 -5 -3 -19 0 -30 4 -11 -3 -72 -16 -134 -22 -112 -20
-172 4 -163 7 2 11 16 9 30 -1 14 7 71 18 126 11 54 20 113 20 129 0 32 -23
61 -35 42z"/>
<path d="M6340 5291 c0 -15 6 -21 21 -21 14 0 19 5 17 17 -5 26 -38 29 -38 4z"/>
<path d="M4800 5294 c0 -16 23 -44 35 -44 18 0 18 5 5 31 -10 17 -40 27 -40
13z"/>
<path d="M10858 5248 c-29 -23 -60 -51 -69 -62 -16 -20 -16 -20 -23 2 -4 12
-14 29 -22 37 -18 17 -80 20 -90 4 -9 -15 14 -29 48 -29 37 0 44 -29 19 -79
-23 -43 -54 -60 -77 -40 -12 10 -17 10 -27 0 -9 -10 -8 -15 7 -27 31 -22 65
-17 97 15 18 18 29 24 29 15 0 -7 11 -21 25 -30 31 -20 119 -15 143 9 22 22 8
33 -23 19 -36 -17 -90 -15 -105 3 -10 12 -10 21 0 45 14 33 106 120 127 120
15 0 18 26 4 34 -5 4 -33 -13 -63 -36z"/>
<path d="M12067 5273 c-12 -12 -7 -43 7 -43 13 0 26 20 26 41 0 10 -23 12 -33
2z"/>
<path d="M3772 5175 c-18 -42 -35 -89 -39 -106 -10 -49 -20 -42 -48 34 -14 39
-32 80 -40 91 -19 26 -45 13 -45 -22 0 -34 9 -45 25 -32 9 8 14 3 19 -16 14
-53 65 -154 79 -154 9 0 22 28 36 77 13 42 31 94 42 115 l20 38 28 -21 c48
-35 57 -12 13 32 -22 21 -44 39 -49 39 -5 0 -23 -34 -41 -75z"/>
<path d="M5910 5212 c-40 -40 -57 -83 -66 -173 -7 -58 15 -124 38 -117 17 6
36 67 37 119 1 44 2 46 39 57 91 28 126 104 62 137 -45 23 -69 18 -110 -23z
m91 -2 c10 -6 19 -17 19 -25 0 -18 -53 -55 -80 -55 -19 0 -21 4 -15 33 7 30
29 57 48 57 4 0 17 -5 28 -10z m-105 -132 c-3 -13 -8 -40 -11 -62 -3 -21 -9
-36 -11 -33 -9 9 8 117 17 117 5 0 7 -10 5 -22z"/>
<path d="M11934 5208 c-18 -36 -63 -88 -76 -88 -4 0 -19 18 -33 40 -28 44 -65
55 -65 20 0 -11 6 -20 13 -20 8 0 26 -17 40 -37 l27 -37 -40 -41 c-40 -40 -50
-65 -29 -65 6 0 29 19 50 43 l39 42 23 -27 c24 -29 47 -37 47 -16 0 7 -11 24
-25 38 l-25 26 33 40 c40 46 69 99 60 108 -13 12 -23 5 -39 -26z"/>
<path d="M6120 5221 c0 -6 5 -13 10 -16 6 -4 -2 -21 -20 -41 -32 -37 -39 -74
-17 -93 18 -15 116 11 134 35 27 37 9 76 -49 104 -47 22 -58 24 -58 11z m84
-68 c9 -23 -13 -43 -57 -50 -44 -7 -48 7 -12 42 28 29 60 32 69 8z"/>
<path d="M6952 5214 c-30 -21 -28 -54 8 -94 37 -42 38 -50 1 -50 -20 0 -36 9
-49 25 -18 22 -42 34 -42 20 0 -16 31 -63 45 -69 25 -9 74 -7 96 4 28 15 24
38 -17 82 -27 30 -33 43 -24 53 8 10 19 11 43 4 18 -5 33 -9 34 -9 2 0 3 8 3
19 0 13 -10 20 -31 25 -42 8 -41 8 -67 -10z"/>
<path d="M8634 5187 c-45 -46 -63 -90 -47 -116 16 -26 57 -25 90 3 l30 26 6
-68 c3 -37 3 -87 -1 -112 l-7 -45 -42 0 c-61 0 -82 -25 -89 -106 -8 -86 8
-139 42 -139 19 0 29 11 53 58 16 31 34 76 41 99 l13 41 53 -5 c36 -4 59 -2
69 7 25 21 17 31 -19 24 -19 -3 -48 -3 -66 1 -26 6 -30 10 -24 28 4 12 8 90 8
173 1 151 1 151 -23 162 -36 17 -40 16 -87 -31z m76 3 c0 -25 -43 -92 -65
-102 -14 -6 -27 -9 -30 -6 -11 10 16 61 46 89 32 30 49 36 49 19z m-24 -377
c-4 -16 -21 -57 -38 -93 -29 -62 -30 -64 -40 -40 -9 24 -4 132 8 151 3 5 21 9
41 9 33 0 35 -1 29 -27z"/>
<path d="M12283 5210 c-69 -24 -73 -27 -73 -56 0 -17 13 -34 50 -60 28 -20 50
-41 50 -48 0 -7 -14 -25 -30 -41 -34 -32 -56 -28 -75 13 -11 24 -28 24 -33 0
-4 -21 46 -68 73 -68 32 0 95 67 95 102 0 22 -10 34 -50 60 -27 18 -50 35 -50
38 0 10 69 40 90 40 24 0 33 15 17 28 -8 7 -28 5 -64 -8z"/>
<path d="M7800 5207 c-32 -16 -70 -73 -70 -106 0 -55 49 -68 98 -26 l30 25 6
-30 c4 -21 11 -30 26 -30 21 0 27 15 10 25 -12 8 -10 94 3 112 6 8 -2 17 -22
27 -36 19 -48 20 -81 3z m70 -35 c0 -17 -79 -94 -92 -90 -21 7 -20 30 2 66 16
26 26 32 55 32 19 0 35 -4 35 -8z"/>
<path d="M11449 5183 c-94 -79 -47 -166 53 -98 45 31 46 31 40 0 -2 -14 3 -36
12 -51 14 -21 24 -25 54 -22 25 2 38 8 40 20 3 14 -3 16 -31 11 -42 -6 -51 11
-37 72 9 37 8 42 -20 68 -38 34 -70 34 -111 0z m85 -16 c17 -12 14 -16 -31
-45 -54 -35 -73 -39 -73 -18 0 19 54 76 72 76 8 0 22 -6 32 -13z"/>
<path d="M4593 5193 c-27 -5 -71 -55 -80 -91 -13 -53 46 -112 117 -115 33 -1
45 2 47 13 3 12 -6 16 -38 17 -79 4 -115 49 -82 106 15 25 26 33 56 35 38 3
51 25 21 36 -9 3 -16 5 -17 5 -1 -1 -12 -4 -24 -6z"/>
<path d="M8399 5173 c-18 -16 -40 -27 -50 -25 -13 2 -18 -6 -22 -35 -3 -21 -7
-47 -9 -57 -6 -38 22 -27 41 16 23 53 64 93 87 84 14 -5 15 -15 10 -54 -11
-78 -11 -85 0 -89 13 -4 34 62 34 111 0 34 -27 76 -49 76 -5 0 -24 -12 -42
-27z"/>
<path d="M6430 5160 c-33 -35 -63 -96 -55 -110 10 -17 23 -11 30 13 10 32 54
87 70 87 19 0 28 -17 35 -63 6 -43 23 -50 28 -11 5 37 -5 71 -28 94 -27 27
-47 25 -80 -10z"/>
<path d="M11260 5181 c0 -11 -85 -41 -117 -41 -15 0 -23 -6 -23 -16 0 -14 7
-16 43 -11 52 8 134 30 143 40 4 4 -1 14 -12 22 -22 17 -34 19 -34 6z"/>
<path d="M2543 5170 c-43 -18 -72 -120 -43 -154 37 -45 140 18 140 85 -1 61
-42 91 -97 69z m37 -41 c0 -6 7 -9 15 -5 11 4 15 -2 15 -20 0 -29 -46 -76 -69
-72 -36 7 -17 108 20 108 11 0 19 -5 19 -11z"/>
<path d="M2940 5163 c-70 -36 -86 -130 -28 -163 23 -12 35 -12 102 4 72 17 96
30 82 43 -4 4 -39 -1 -79 -11 -75 -17 -107 -14 -107 9 0 18 17 28 59 35 41 6
64 40 52 74 -11 28 -38 31 -81 9z m50 -32 c0 -14 -9 -20 -35 -23 -44 -5 -45 5
-2 26 40 19 37 20 37 -3z"/>
<path d="M3984 5161 c-36 -22 -59 -70 -50 -106 10 -38 62 -66 115 -63 61 4 68
28 8 28 -30 0 -53 7 -71 21 -30 24 -34 39 -7 32 31 -8 81 24 81 52 0 22 -23
55 -38 55 -4 0 -21 -9 -38 -19z m44 -33 c-3 -7 -15 -15 -28 -16 -21 -3 -22 -2
-11 12 16 19 44 21 39 4z"/>
<path d="M8157 5150 c-44 -51 -47 -119 -7 -140 45 -24 116 40 104 94 -9 44
-31 76 -53 76 -11 0 -30 -13 -44 -30z m63 -54 c0 -17 -5 -37 -12 -44 -15 -15
-45 -16 -53 -2 -10 17 15 78 33 83 26 6 32 -1 32 -37z"/>
<path d="M2772 5136 l-38 -35 4 29 c3 21 0 30 -10 30 -9 0 -19 -21 -27 -57 -7
-32 -15 -68 -18 -80 -9 -40 20 -26 55 26 38 56 69 87 79 78 3 -4 -4 -32 -16
-63 -11 -31 -21 -66 -21 -79 0 -26 18 -44 24 -23 2 7 13 45 26 83 38 118 14
156 -58 91z"/>
<path d="M4314 5162 c-15 -10 -17 -85 -2 -104 36 -46 128 -16 128 42 0 23 -7
35 -32 50 -34 20 -74 26 -94 12z m71 -34 c44 -20 28 -58 -25 -58 -25 0 -33 15
-26 46 7 27 14 29 51 12z"/>
<path d="M12027 5078 c-3 -51 -3 -95 -1 -97 2 -3 10 1 17 8 7 7 13 47 16 96 2
70 0 85 -12 85 -11 0 -15 -20 -20 -92z"/>
<path d="M6293 5104 c7 -43 14 -51 27 -38 15 15 1 74 -18 74 -11 0 -13 -8 -9
-36z"/>
<path d="M4782 5117 c-7 -8 -9 -17 -5 -21 4 -4 8 -21 9 -39 3 -47 3 -47 20
-47 14 0 16 9 12 51 -6 57 -19 77 -36 56z"/>
<path d="M12904 4958 c-25 -39 -52 -78 -60 -86 -19 -19 -18 -34 3 -30 10 2 34
28 55 58 20 30 46 67 58 82 20 26 20 48 -1 48 -5 0 -30 -32 -55 -72z"/>
<path d="M4991 4931 c-7 -11 -12 -61 -12 -110 l-1 -89 -51 2 c-32 1 -52 -3
-54 -11 -3 -9 7 -13 29 -14 62 -1 73 -11 73 -65 0 -61 18 -69 27 -13 4 23 15
48 25 55 17 13 17 15 0 28 -17 13 -19 27 -16 120 4 108 -1 133 -20 97z"/>
<path d="M6097 4845 l6 -105 -31 6 c-42 8 -132 -14 -132 -32 0 -12 8 -13 38
-7 36 8 110 9 117 1 2 -1 -3 -41 -11 -88 -7 -47 -14 -86 -14 -87 0 -2 6 -3 14
-3 18 0 23 15 32 88 9 80 13 86 63 77 36 -6 41 -10 41 -34 0 -53 59 -76 126
-51 24 9 26 14 21 48 -4 22 -17 46 -32 60 -28 24 -61 29 -67 11 -3 -8 -24 -10
-71 -5 l-66 8 -3 106 c-3 90 -6 107 -19 110 -15 3 -16 -8 -12 -103z m239 -179
c8 -24 -12 -37 -51 -34 -37 4 -49 42 -16 53 12 3 21 11 21 16 0 15 40 -14 46
-35z"/>
<path d="M2707 4903 c-3 -4 -8 -40 -12 -79 l-7 -71 -44 -9 c-58 -12 -57 -30 1
-27 l45 3 -5 -60 c-3 -33 -7 -87 -10 -120 -4 -46 -2 -60 9 -60 18 0 26 31 26
105 0 109 8 133 47 146 24 7 39 21 49 43 13 29 13 25 8 -49 -4 -44 -13 -100
-21 -124 -11 -32 -12 -46 -3 -55 8 -8 14 -7 21 5 5 9 25 36 44 59 47 56 48 94
2 53 -19 -18 -19 -17 -12 54 8 83 -7 146 -33 141 -9 -2 -20 -19 -25 -38 -11
-44 -24 -60 -48 -60 -17 0 -19 5 -12 58 3 31 7 63 7 71 1 16 -20 26 -27 14z"/>
<path d="M6974 4848 c-4 -35 -6 -79 -5 -100 2 -26 -3 -39 -16 -47 -16 -9 -16
-10 -2 -11 21 0 29 -20 29 -77 0 -31 4 -43 13 -40 8 2 12 24 12 60 0 46 3 57
16 57 20 0 87 44 113 73 19 22 19 22 11 -23 -13 -67 -12 -143 2 -147 6 -2 19
4 30 15 10 10 32 28 50 40 l32 22 37 -25 c20 -14 50 -25 67 -25 17 0 40 -9 53
-21 29 -27 143 -58 173 -47 25 9 19 28 -9 28 -35 0 -115 21 -133 35 -17 12
-17 15 -3 44 20 37 21 81 2 81 -7 0 -24 -20 -37 -45 -28 -53 -49 -57 -103 -20
-20 14 -43 25 -49 25 -7 0 -33 -14 -57 -32 l-43 -32 7 34 c14 65 21 145 16
180 -7 51 -31 45 -47 -11 -14 -48 -58 -97 -107 -118 l-29 -12 7 101 c5 82 4
100 -8 100 -10 0 -16 -19 -22 -62z"/>
<path d="M13245 4878 c-12 -35 -35 -135 -35 -155 0 -12 -9 -45 -20 -73 -24
-60 -25 -70 -6 -70 8 0 28 22 45 49 49 80 105 93 132 30 11 -27 10 -36 -4 -60
-20 -37 -1 -52 25 -19 23 29 23 67 -2 108 -29 47 -64 58 -106 33 l-34 -20 1
22 c0 12 8 52 18 90 9 37 15 69 13 72 -9 9 -23 5 -27 -7z"/>
<path d="M4535 4860 c-8 -14 14 -42 27 -34 5 3 15 0 23 -6 12 -10 16 -9 21 5
4 9 3 20 -2 24 -16 15 -63 21 -69 11z"/>
<path d="M10435 4839 c-4 -12 -2 -26 5 -33 17 -16 44 22 29 41 -16 19 -27 16
-34 -8z"/>
<path d="M11467 4833 c-13 -13 -7 -24 21 -35 67 -27 152 -74 152 -83 0 -14
-94 -111 -152 -159 -45 -36 -62 -66 -37 -66 30 0 246 221 234 240 -6 10 -190
110 -203 110 -5 0 -12 -3 -15 -7z"/>
<path d="M12616 4802 c3 -16 -5 -74 -20 -136 -39 -163 -33 -187 27 -106 21 28
44 50 52 50 17 0 20 -36 6 -73 -11 -27 2 -58 18 -42 16 17 30 108 20 127 -13
25 -58 23 -85 -3 l-23 -21 15 57 c9 32 16 83 17 113 2 46 -1 57 -15 60 -15 3
-17 -2 -12 -26z"/>
<path d="M9229 4728 c-23 -40 -47 -85 -53 -100 -17 -47 -42 -35 -76 37 -29 61
-42 75 -53 58 -10 -17 52 -133 77 -144 l25 -12 -39 -76 c-21 -42 -47 -87 -59
-100 -44 -50 -84 -207 -55 -218 22 -8 50 5 37 18 -8 8 -7 26 4 63 19 67 239
508 259 519 8 4 12 12 9 18 -15 23 -37 4 -76 -63z"/>
<path d="M14129 4772 c-50 -32 -78 -66 -103 -126 -37 -89 -10 -89 35 0 25 52
43 73 78 95 25 16 56 29 69 29 14 0 22 5 20 13 -8 23 -53 18 -99 -11z"/>
<path d="M14305 4781 c-51 -32 -95 -86 -101 -123 -8 -44 24 -78 72 -78 42 0
164 38 186 57 33 29 9 30 -74 2 -94 -32 -130 -36 -148 -14 -15 18 -6 45 15 45
21 0 108 45 124 64 7 8 11 25 9 38 -4 30 -43 35 -83 9z m50 -21 c-7 -12 -81
-60 -91 -60 -12 0 21 33 51 52 34 20 49 23 40 8z"/>
<path d="M13843 4738 c-74 -46 -91 -79 -57 -112 20 -20 47 -20 89 0 26 12 38
13 54 4 27 -14 44 -4 32 18 -5 10 -7 30 -4 45 7 35 -18 37 -40 3 -28 -43 -117
-71 -117 -36 0 5 19 23 41 40 33 23 45 27 60 19 16 -8 19 -6 19 15 0 36 -23
38 -77 4z"/>
<path d="M3325 4735 c-33 -14 -64 -30 -69 -35 -20 -20 -1 -120 23 -120 14 0
23 52 11 60 -7 4 -10 16 -8 26 3 17 45 38 122 60 16 5 29 14 28 19 -3 19 -47
15 -107 -10z"/>
<path d="M4179 4720 c-26 -27 -45 -61 -59 -107 -41 -128 -37 -298 6 -262 8 6
14 21 14 32 0 50 23 147 35 147 39 0 125 118 125 172 0 67 -65 77 -121 18z
m88 -7 c4 -9 -5 -39 -21 -69 -28 -52 -50 -72 -61 -54 -4 7 -13 6 -26 0 -24
-13 -24 -12 1 44 32 75 92 119 107 79z"/>
<path d="M6830 4745 c0 -9 18 -24 41 -34 32 -15 45 -16 64 -7 24 11 24 11 -15
21 -22 6 -45 16 -52 23 -17 17 -38 15 -38 -3z"/>
<path d="M12503 4745 c12 -30 -39 -165 -63 -165 -18 0 -40 33 -40 61 0 35 -18
38 -66 8 l-33 -20 14 27 c17 34 4 64 -28 64 -27 -1 -122 -51 -122 -65 0 -19
37 -17 58 3 26 23 67 38 67 24 0 -6 -11 -30 -25 -53 -25 -44 -32 -79 -16 -79
4 0 32 19 60 41 29 23 53 40 54 38 1 -2 9 -17 17 -33 38 -73 93 -60 129 29 13
33 26 77 29 98 4 33 2 37 -18 37 -15 0 -20 -4 -17 -15z"/>
<path d="M12890 4750 c0 -15 38 -32 45 -20 3 5 3 15 0 20 -8 13 -45 13 -45 0z"/>
<path d="M2490 4743 c-27 -10 -40 -36 -40 -84 0 -77 47 -103 95 -54 31 30 33
82 4 119 -20 26 -31 29 -59 19z m31 -43 c25 -14 24 -52 0 -74 -27 -24 -41 -12
-41 33 0 51 7 58 41 41z"/>
<path d="M5122 4723 c-23 -13 -47 -34 -53 -45 -9 -17 -4 -26 37 -64 35 -33 45
-47 36 -56 -8 -8 -15 -8 -26 1 -21 18 -39 5 -26 -18 14 -28 48 -33 71 -10 28
28 24 49 -22 95 l-41 42 41 26 c22 15 41 33 41 41 0 19 -6 18 -58 -12z"/>
<path d="M10650 4732 c-67 -33 -45 -103 49 -152 l35 -18 -33 -7 c-20 -4 -37
-3 -44 4 -16 16 -37 14 -37 -4 0 -23 39 -38 83 -31 81 13 88 45 20 80 -86 43
-104 85 -47 106 19 8 31 7 41 -1 21 -18 41 4 23 26 -16 20 -47 19 -90 -3z"/>
<path d="M3055 4729 c-11 -6 -33 -25 -48 -42 -27 -31 -29 -31 -42 -13 -8 10
-16 23 -18 29 -2 6 -15 7 -31 3 -27 -7 -32 -31 -6 -31 7 0 27 -13 44 -28 71
-66 82 -75 99 -80 20 -7 67 8 67 22 0 5 -19 11 -42 13 -48 4 -61 23 -21 31 77
15 115 99 48 104 -16 2 -39 -2 -50 -8z m55 -29 c0 -10 -52 -40 -70 -40 -20 0
-10 19 18 34 32 18 52 20 52 6z"/>
<path d="M9861 4727 c-31 -16 -78 -75 -86 -109 -5 -19 -1 -32 14 -47 20 -20
23 -21 54 -5 17 9 35 22 39 28 4 6 8 -1 8 -16 0 -40 10 -57 40 -73 24 -12 30
-12 40 -1 9 12 5 17 -17 28 -25 12 -28 19 -28 63 0 28 3 62 8 77 6 21 3 32
-13 48 -23 23 -27 24 -59 7z m41 -39 c7 -21 -66 -102 -85 -95 -17 6 -9 37 19
75 25 32 59 43 66 20z"/>
<path d="M4364 4699 c-38 -74 36 -141 104 -93 29 20 28 58 -3 82 -14 11 -25
25 -25 31 0 6 -13 11 -30 11 -23 0 -33 -7 -46 -31z m59 -20 c30 -16 38 -31 25
-46 -25 -31 -77 3 -62 41 7 19 9 19 37 5z"/>
<path d="M11510 4708 c-19 -4 -87 -7 -150 -6 -101 3 -115 1 -118 -14 -3 -14 9
-17 90 -20 118 -4 204 4 220 20 19 19 -3 30 -42 20z"/>
<path d="M10219 4688 c-7 -13 -22 -35 -34 -50 l-22 -26 -24 39 c-13 21 -29 39
-36 39 -25 0 -23 -22 6 -57 17 -21 31 -41 31 -45 0 -4 -14 -23 -31 -43 -20
-22 -29 -41 -25 -52 5 -13 14 -8 43 26 l36 42 33 -32 c26 -26 37 -30 46 -21 9
9 4 20 -21 46 l-34 35 37 49 c20 27 36 55 36 61 0 20 -29 12 -41 -11z"/>
<path d="M12951 4645 c-56 -60 -61 -82 -21 -102 37 -19 134 -13 138 9 3 15 -3
16 -45 12 -26 -3 -59 -1 -73 4 l-25 10 48 45 c26 24 47 49 47 55 0 28 -22 17
-69 -33z"/>
<path d="M4567 4683 c-12 -11 -8 -88 5 -101 23 -23 29 -12 22 36 -4 26 -7 53
-7 60 0 13 -10 16 -20 5z"/>
<path d="M4701 4651 c-12 -22 -25 -42 -31 -46 -17 -10 -11 -25 10 -25 13 0 27
14 40 41 12 23 24 39 26 36 3 -3 13 -27 24 -53 10 -27 24 -49 31 -49 18 0 13
29 -14 85 -30 62 -59 65 -86 11z"/>
<path d="M10430 4646 c-12 -45 -5 -96 15 -96 6 0 11 17 12 38 1 20 5 52 9 70
10 52 -21 42 -36 -12z"/>
<path d="M9535 4670 c-3 -5 -32 -10 -65 -10 -61 0 -74 -9 -63 -49 7 -27 23
-27 30 -1 5 17 14 20 64 20 52 0 59 2 59 19 0 23 -16 36 -25 21z"/>
<path d="M12856 4648 c-22 -79 -25 -93 -16 -102 16 -16 32 8 37 57 3 27 1 47
-6 51 -6 4 -13 1 -15 -6z"/>
<path d="M3867 4453 c-11 -18 -29 -134 -25 -158 5 -23 3 -25 -34 -25 -49 0
-47 -23 3 -30 l34 -5 5 -75 c4 -58 8 -75 20 -75 12 0 14 13 12 72 l-4 72 38 3
c53 4 58 28 6 28 -40 0 -40 0 -44 43 -2 23 0 64 5 91 5 30 5 52 -1 58 -5 5
-12 6 -15 1z"/>
<path d="M8420 4453 c0 -5 -9 -62 -20 -128 -21 -129 -25 -202 -11 -224 15 -23
30 -3 24 32 -4 29 8 137 33 290 5 30 4 37 -10 37 -9 0 -16 -3 -16 -7z"/>
<path d="M9447 4448 c-2 -7 -2 -45 1 -84 l5 -70 -47 -18 c-26 -10 -45 -23 -43
-30 4 -11 11 -11 70 1 29 6 29 7 31 -111 1 -16 6 -31 13 -33 18 -6 26 34 18
94 l-7 56 51 -7 c81 -11 62 23 -21 38 l-37 7 -3 81 c-2 50 -7 83 -14 85 -7 2
-14 -2 -17 -9z"/>
<path d="M4020 4429 c0 -11 3 -18 8 -16 4 3 7 -19 7 -49 0 -30 -4 -54 -9 -54
-15 0 1 -211 18 -228 19 -20 42 -6 24 15 -10 12 -12 55 -11 167 2 83 0 159 -3
169 -7 24 -34 21 -34 -4z"/>
<path d="M3411 4396 c-17 -69 -15 -271 4 -286 12 -10 16 -8 25 15 7 20 7 31
-1 41 -10 12 -9 106 3 238 5 47 -18 41 -31 -8z"/>
<path d="M5400 4425 c0 -22 22 -68 42 -88 12 -12 18 -33 18 -63 0 -40 -2 -45
-19 -39 -29 9 -48 -3 -81 -53 -36 -55 -41 -115 -11 -132 33 -17 71 -11 95 14
40 44 58 185 37 280 -13 54 -81 123 -81 81z m56 -244 c-3 -9 -8 -29 -12 -46
-12 -55 -66 -88 -80 -50 -16 41 41 127 76 118 13 -4 19 -11 16 -22z"/>
<path d="M5841 4417 c-18 -22 -41 -97 -41 -132 0 -53 -9 -65 -46 -65 -24 0
-34 -5 -34 -15 0 -10 10 -15 33 -15 30 0 34 -3 45 -45 8 -30 17 -45 28 -45 12
0 15 6 10 23 -20 71 -20 75 13 82 17 3 39 4 50 0 23 -7 39 14 20 27 -8 5 -31
7 -53 4 l-39 -4 6 56 c3 31 11 69 18 85 11 25 14 26 30 11 21 -19 34 -3 19 26
-12 23 -42 26 -59 7z"/>
<path d="M6073 4420 c-32 -13 -52 -59 -59 -139 l-7 -70 -28 6 c-41 8 -40 -23
1 -32 27 -6 30 -11 30 -43 0 -42 18 -83 39 -90 11 -4 12 1 7 19 -4 13 -10 41
-13 62 -5 35 -4 37 21 37 27 0 60 22 50 33 -3 3 -22 3 -41 0 l-36 -6 7 74 c11
108 41 141 96 107 32 -20 37 2 7 28 -30 26 -40 28 -74 14z"/>
<path d="M7176 4368 c-3 -13 -7 -39 -8 -58 -3 -34 -5 -35 -48 -40 -60 -7 -53
-24 10 -28 57 -3 56 -1 40 -97 -6 -40 -6 -63 1 -70 17 -17 27 13 35 97 l7 78
38 0 c28 0 39 4 39 15 0 11 -11 15 -40 15 -43 0 -40 -4 -44 74 -1 36 -23 46
-30 14z"/>
<path d="M9236 4371 c-7 -10 4 -51 14 -51 8 0 20 24 20 40 0 11 -28 21 -34 11z"/>
<path d="M5584 4355 c3 -9 6 -19 6 -21 0 -2 9 -4 21 -4 29 0 21 34 -10 38 -19
3 -22 0 -17 -13z"/>
<path d="M9701 4352 c-13 -25 -3 -82 14 -82 20 0 29 70 12 88 -13 13 -16 12
-26 -6z"/>
<path d="M3219 4295 c-14 -7 -30 -25 -37 -39 -6 -14 -16 -26 -21 -26 -5 0 -9
-29 -10 -65 0 -36 -5 -84 -11 -106 -9 -31 -9 -44 0 -53 16 -16 47 24 55 73 5
30 12 41 31 45 31 8 93 93 94 128 0 17 -8 33 -22 42 -27 19 -45 20 -79 1z m60
-29 c15 -18 -4 -58 -42 -94 -19 -18 -26 -20 -34 -10 -17 20 -27 62 -14 54 6
-4 11 -1 11 8 0 14 45 56 60 56 4 0 13 -6 19 -14z"/>
<path d="M8033 4253 c-17 -32 -36 -76 -43 -98 l-13 -40 -13 50 c-7 28 -16 67
-19 88 -6 40 -31 60 -46 36 -5 -8 -3 -20 7 -30 7 -8 14 -25 14 -36 0 -30 39
-176 50 -187 14 -14 18 -6 41 74 11 39 29 90 40 112 19 37 21 39 34 21 12 -16
14 -16 20 -2 8 21 -11 69 -28 69 -8 0 -28 -26 -44 -57z"/>
<path d="M2615 4290 c-4 -6 -2 -17 5 -25 8 -10 7 -16 -5 -23 -48 -26 27 -106
95 -100 30 3 35 7 38 32 3 20 -4 36 -24 57 -15 16 -33 29 -40 29 -6 0 -23 9
-37 20 -16 13 -28 17 -32 10z m87 -77 c22 -20 24 -43 3 -43 -21 0 -75 28 -75
39 0 23 48 26 72 4z"/>
<path d="M6512 4292 c-34 -22 -30 -192 4 -192 9 0 12 21 11 83 l-2 82 28 3
c16 2 27 8 24 15 -4 15 -47 20 -65 9z"/>
<path d="M10339 4283 c0 -11 -3 -13 -6 -5 -6 16 -54 16 -77 -1 -27 -20 -14
-48 39 -85 51 -36 58 -63 20 -80 -42 -19 -82 -15 -88 9 -7 27 -27 15 -27 -16
0 -26 17 -35 68 -35 54 0 102 32 102 68 0 33 -12 50 -57 81 -46 32 -42 45 12
39 48 -6 64 4 45 27 -17 20 -30 19 -31 -2z"/>
<path d="M9934 4277 c-12 -7 -39 -28 -61 -48 -33 -30 -39 -42 -41 -82 -2 -36
2 -51 19 -68 20 -20 28 -21 123 -16 55 3 109 8 119 12 23 9 16 31 -9 27 -10
-1 -58 -5 -106 -9 -96 -7 -118 1 -118 43 0 21 5 24 38 24 22 0 53 7 70 16 27
13 32 21 32 53 0 56 -23 73 -66 48z m36 -43 c0 -22 -29 -43 -57 -44 -31 0 -29
14 5 39 33 25 52 27 52 5z"/>
<path d="M2421 4235 c-52 -56 -56 -97 -11 -120 34 -18 64 -19 91 -5 32 18 23
33 -17 27 -39 -7 -74 6 -74 26 1 15 56 77 70 77 5 0 10 9 10 20 0 32 -24 23
-69 -25z"/>
<path d="M2880 4265 c-8 -9 -21 -13 -36 -9 -23 6 -24 3 -25 -40 -1 -25 -2 -52
-3 -58 -1 -7 6 -14 15 -16 11 -2 19 6 23 24 8 32 43 84 57 84 5 0 9 -11 9 -25
0 -36 26 -42 56 -15 18 18 24 20 24 8 0 -22 28 -44 41 -31 7 7 3 22 -11 47
-25 40 -32 43 -55 20 -15 -15 -17 -15 -31 5 -18 24 -46 27 -64 6z"/>
<path d="M3579 4249 c-16 -17 -29 -35 -29 -40 0 -5 -7 -9 -15 -9 -18 0 -18 -4
-3 -33 6 -12 14 -29 18 -37 10 -22 95 -25 127 -5 31 21 17 43 -16 25 -27 -14
-83 -9 -88 7 -3 7 13 20 36 29 44 17 58 42 41 74 -15 28 -37 25 -71 -11z m41
-18 c0 -5 -7 -11 -14 -14 -10 -4 -13 -1 -9 9 6 15 23 19 23 5z"/>
<path d="M8192 4253 c-15 -6 -46 -65 -56 -107 -5 -19 -2 -36 10 -53 14 -23 21
-25 66 -21 27 3 57 12 66 21 19 20 8 35 -16 21 -9 -5 -33 -9 -52 -9 -42 0 -55
30 -18 44 37 15 68 49 61 69 -14 38 -30 48 -61 35z m28 -41 c0 -11 -22 -32
-32 -32 -5 0 -4 9 2 20 11 20 30 28 30 12z"/>
<path d="M8725 4225 c-59 -59 -57 -98 6 -131 38 -19 99 -19 99 1 0 10 -10 15
-30 15 -36 0 -90 25 -90 42 0 6 20 31 44 54 25 23 42 45 39 48 -14 13 -34 4
-68 -29z"/>
<path d="M6267 4220 c-94 -59 -68 -137 52 -156 44 -7 114 12 108 29 -3 7 -11
10 -18 8 -61 -20 -169 8 -169 45 0 16 7 20 61 28 50 9 73 27 65 54 -10 31 -43
28 -99 -8z"/>
<path d="M6672 4234 c-29 -20 -53 -68 -54 -107 -2 -44 40 -77 98 -77 32 0 44
4 44 15 0 11 -11 15 -36 15 -45 0 -74 15 -74 39 0 13 10 20 30 25 37 7 57 48
41 83 -12 27 -19 28 -49 7z m15 -49 c-4 -8 -11 -15 -17 -15 -7 0 -7 6 0 21 13
23 26 19 17 -6z"/>
<path d="M8515 4219 c-15 -28 -15 -33 0 -55 8 -13 22 -24 29 -24 7 0 26 -3 42
-6 17 -3 37 0 48 9 18 13 18 15 -3 55 -12 23 -28 42 -36 42 -19 0 -19 -15 1
-45 16 -25 16 -25 -15 -25 -34 0 -52 23 -32 43 16 16 14 37 -4 37 -8 0 -22
-14 -30 -31z"/>
<path d="M9658 4226 c-14 -31 0 -137 19 -144 10 -3 12 17 11 78 -2 87 -11 107
-30 66z"/>
<path d="M4310 4205 c-40 -41 -64 -44 -82 -10 -16 30 -44 19 -33 -14 11 -34
47 -53 79 -42 14 6 26 8 26 5 0 -3 -13 -37 -30 -76 -31 -72 -40 -133 -18 -126
6 2 17 24 23 49 16 54 63 167 81 194 18 25 18 55 1 55 -7 0 -28 -16 -47 -35z"/>
<path d="M6882 4213 c-38 -18 -75 -66 -70 -90 6 -29 24 -24 41 12 15 32 79 76
92 64 2 -3 -1 -33 -7 -67 -11 -61 -9 -80 10 -68 13 8 36 131 28 151 -7 20 -52
19 -94 -2z"/>
<path d="M9146 4212 c-9 -27 9 -112 28 -130 26 -26 42 -1 20 33 -10 15 -17 45
-17 71 0 45 -20 62 -31 26z"/>
<path d="M14190 4173 c-43 -44 -77 -127 -93 -225 -9 -61 -13 -68 -33 -68 -12
0 -29 -3 -38 -6 -28 -11 -17 -24 20 -24 l37 0 -7 -95 c-6 -80 -5 -95 8 -95 11
0 16 20 22 91 7 92 9 96 54 102 36 6 31 21 -7 25 -39 4 -40 14 -18 110 27 113
79 192 127 192 14 0 18 -8 18 -35 0 -19 4 -35 10 -35 5 0 6 7 3 17 -4 10 -2
14 4 10 15 -9 24 32 12 55 -7 12 -21 18 -46 18 -28 0 -43 -8 -73 -37z"/>
<path d="M5622 4148 c2 -24 8 -43 13 -43 6 0 11 19 13 43 3 33 0 42 -13 42
-13 0 -16 -9 -13 -42z"/>
<path d="M10501 4111 c-14 -4 -26 -12 -29 -19 -5 -15 54 -17 64 -1 10 16 -8
27 -35 20z"/>
<path d="M11990 3971 c0 -54 -3 -112 -6 -129 -6 -28 -9 -30 -35 -25 -39 7 -99
-5 -99 -21 0 -10 16 -13 59 -12 33 1 62 -2 66 -5 3 -4 -1 -44 -9 -89 -19 -99
-19 -90 -2 -90 14 0 22 27 41 132 8 40 15 42 83 17 34 -13 52 -11 52 5 0 8
-25 20 -62 30 l-63 17 3 134 c3 117 1 135 -12 135 -13 0 -16 -16 -16 -99z"/>
<path d="M5530 4025 c-8 -2 -63 -11 -122 -20 -72 -12 -109 -22 -112 -32 -6
-16 20 -14 144 7 90 16 197 19 234 8 19 -6 47 -21 62 -33 l27 -22 -27 -85
c-23 -69 -26 -89 -17 -107 14 -25 21 -26 46 -7 17 12 22 12 44 -5 13 -10 30
-19 37 -19 7 0 11 -6 8 -13 -2 -7 5 -25 16 -40 19 -23 28 -27 73 -26 70 2 109
11 115 28 4 11 -8 12 -61 7 -37 -4 -76 -5 -87 -1 -35 11 -23 39 25 63 40 20
44 24 35 42 -15 28 -56 25 -84 -5 -29 -31 -30 -31 -72 1 -28 22 -37 24 -49 14
-23 -19 -19 8 11 87 l25 68 -40 36 c-22 19 -57 41 -79 47 -36 11 -114 14 -152
7z"/>
<path d="M13700 4001 c0 -16 -3 -36 -6 -45 -4 -10 -1 -16 9 -16 18 0 27 21 27
61 0 19 -5 29 -15 29 -10 0 -15 -10 -15 -29z"/>
<path d="M10017 4013 c-5 -10 -11 -85 -10 -140 0 -42 0 -43 -33 -43 -21 0 -34
-5 -34 -12 0 -9 -3 -9 -9 1 -8 12 -14 13 -36 3 -42 -19 -20 -30 50 -24 l65 5
0 -72 c0 -56 3 -71 15 -71 12 0 15 14 15 69 l0 68 33 -1 c45 -1 46 17 2 28
l-37 8 4 94 c2 68 0 94 -9 94 -6 0 -14 -3 -16 -7z"/>
<path d="M7387 3969 c-40 -62 -49 -291 -14 -326 24 -25 29 -11 16 42 -14 57
-7 183 15 245 17 50 6 75 -17 39z"/>
<path d="M8099 3958 c0 -2 -4 -37 -9 -78 -4 -41 -13 -110 -19 -153 -9 -58 -9
-83 0 -99 11 -21 12 -21 25 -3 8 10 14 36 14 57 0 29 4 38 18 38 9 1 41 3 69
5 29 2 55 0 58 -6 9 -14 37 -11 57 8 30 27 22 -2 -32 -121 -28 -61 -50 -120
-50 -132 0 -36 11 -54 31 -54 20 0 26 15 9 25 -19 12 -10 47 41 155 27 60 53
125 56 144 5 31 3 36 -14 36 -11 0 -33 -10 -48 -21 -19 -16 -29 -19 -34 -10
-5 7 -33 10 -82 9 -85 -3 -77 -18 -65 125 5 65 4 77 -9 77 -8 0 -15 -1 -16 -2z"/>
<path d="M5548 3877 c-24 -99 -32 -169 -24 -212 12 -63 29 -34 33 55 2 47 10
108 18 136 18 63 19 94 3 94 -8 0 -20 -30 -30 -73z"/>
<path d="M12406 3931 c-9 -13 15 -51 32 -51 20 0 11 54 -10 58 -9 2 -19 -1
-22 -7z"/>
<path d="M6961 3881 c-11 -21 -28 -68 -37 -105 -9 -36 -20 -66 -25 -66 -13 0
-28 34 -34 81 -11 81 -15 89 -36 89 -25 0 -37 -29 -18 -44 8 -6 20 -38 27 -71
23 -113 80 -127 107 -27 36 129 57 166 71 127 7 -19 34 -20 34 -2 0 16 -42 57
-58 57 -6 0 -20 -17 -31 -39z"/>
<path d="M7932 3878 c2 -13 8 -23 13 -23 6 0 11 10 13 23 2 15 -2 22 -13 22
-11 0 -15 -7 -13 -22z"/>
<path d="M12798 3873 c-61 -29 -63 -54 -7 -105 43 -40 47 -62 14 -84 -17 -11
-25 -11 -49 1 -16 9 -31 13 -34 11 -10 -10 9 -37 33 -48 52 -23 134 49 103 91
-6 9 -28 33 -47 54 l-35 37 42 17 c38 14 54 36 35 46 -5 2 -29 -7 -55 -20z"/>
<path d="M9224 3846 c-22 -22 -34 -44 -34 -61 0 -39 -19 -21 -26 26 -7 43 -20
57 -36 41 -8 -8 -3 -32 16 -82 14 -39 26 -80 26 -91 0 -10 6 -19 13 -19 7 0
19 32 30 79 10 44 24 85 32 91 10 8 31 10 64 5 27 -4 51 -3 54 2 12 19 -12 34
-57 39 -44 4 -50 2 -82 -30z"/>
<path d="M7136 3849 c-59 -47 -74 -125 -31 -171 40 -43 95 -50 95 -11 0 10 -6
14 -20 10 -27 -7 -70 29 -70 59 0 21 4 24 29 19 62 -11 107 65 59 99 -29 20
-30 20 -62 -5z m54 -34 c0 -20 -39 -40 -53 -26 -7 7 -6 15 3 26 16 19 50 20
50 0z"/>
<path d="M14310 3851 c0 -10 9 -30 20 -44 11 -14 20 -30 20 -36 0 -13 -77 -34
-96 -27 -20 8 -17 42 6 64 17 16 18 21 7 30 -17 14 -39 -7 -57 -52 -15 -41 -4
-64 34 -71 72 -14 165 36 138 73 -7 9 -22 32 -33 50 -23 36 -39 41 -39 13z"/>
<path d="M9453 3823 c-52 -56 -57 -111 -14 -154 23 -22 39 -29 70 -29 49 0 60
15 33 43 -19 19 -22 19 -28 4 -8 -23 -30 -21 -54 3 -20 20 -29 67 -10 55 15
-9 70 24 82 50 25 56 -33 77 -79 28z m57 -7 c0 -3 -7 -12 -16 -20 -23 -23 -40
-19 -19 4 16 18 35 26 35 16z"/>
<path d="M10429 3836 c-41 -14 -68 -58 -75 -123 -5 -38 -3 -52 10 -62 23 -20
42 -1 26 26 -9 14 -9 29 -1 60 17 63 35 76 98 71 55 -5 72 2 50 20 -19 15 -73
19 -108 8z"/>
<path d="M13602 3792 c-17 -85 -16 -124 5 -120 16 3 19 19 26 142 3 53 -19 37
-31 -22z"/>
<path d="M11241 3804 c-70 -63 -78 -139 -18 -178 28 -19 109 -8 135 18 22 21
9 31 -25 18 -60 -23 -82 -23 -103 -2 -25 25 -25 46 0 87 29 47 67 70 92 54 24
-15 36 -6 22 17 -20 31 -59 26 -103 -14z"/>
<path d="M12517 3820 c-15 -12 -29 -36 -33 -55 -3 -19 -11 -35 -16 -35 -5 0
-8 -12 -6 -27 5 -48 31 -33 46 27 15 61 17 65 50 75 21 6 22 4 22 -59 0 -52 3
-66 15 -66 12 0 15 14 15 68 0 40 -5 73 -12 80 -18 18 -52 14 -81 -8z"/>
<path d="M9694 3796 c-42 -42 -47 -93 -11 -127 19 -18 30 -20 76 -15 38 3 61
12 75 27 l21 21 -30 -6 c-79 -17 -105 -18 -120 -6 -24 20 -18 56 15 88 17 17
30 35 30 41 0 20 -22 11 -56 -23z"/>
<path d="M11707 3803 c-22 -22 -29 -25 -36 -14 -5 7 -14 10 -20 7 -14 -9 -8
-99 7 -104 5 -1 24 20 41 48 35 56 57 62 78 20 7 -14 13 -42 13 -63 0 -26 4
-37 13 -35 30 10 18 108 -18 144 -31 31 -44 30 -78 -3z"/>
<path d="M13810 3803 c-37 -31 -101 -123 -94 -135 7 -11 34 -10 34 1 0 16 60
100 82 116 29 20 45 5 54 -52 6 -39 26 -65 40 -50 7 7 -16 99 -32 125 -19 29
-45 28 -84 -5z"/>
<path d="M4832 3808 c-21 -21 -14 -57 12 -70 31 -14 53 -5 68 26 8 20 8 29 -2
41 -15 18 -61 20 -78 3z"/>
<path d="M12210 3793 c-72 -48 -97 -92 -68 -121 17 -17 48 -15 85 7 27 17 33
18 43 5 16 -18 60 -19 60 0 0 7 -9 16 -21 19 -15 4 -19 11 -14 25 9 32 -14 37
-43 9 -39 -36 -72 -51 -85 -38 -14 14 6 37 65 70 46 27 53 41 19 41 -9 0 -28
-7 -41 -17z"/>
<path d="M7712 3769 c-53 -39 -64 -75 -32 -101 17 -14 32 -17 59 -12 43 8 51
12 51 25 0 5 -20 9 -45 8 -24 -2 -48 0 -52 4 -8 9 44 65 69 73 21 6 25 34 5
34 -7 0 -32 -14 -55 -31z"/>
<path d="M11459 3771 c-32 -33 -38 -71 -13 -95 20 -21 97 -21 114 -1 14 17 6
90 -12 112 -18 22 -58 15 -89 -16z m75 -33 c11 -42 7 -48 -29 -48 -40 0 -52
17 -35 49 15 29 56 28 64 -1z"/>
<path d="M7513 3763 c-12 -2 -26 -17 -33 -34 -10 -24 -10 -33 4 -54 27 -41 86
-32 112 17 13 24 13 32 2 46 -25 33 -34 35 -85 25z m51 -61 c-14 -22 -50 -27
-57 -9 -7 19 4 34 28 39 28 6 42 -8 29 -30z"/>
<path d="M10148 3743 c-9 -10 -21 -28 -27 -40 -35 -68 26 -104 113 -68 30 13
36 20 36 46 0 62 -85 105 -122 62z m76 -29 c25 -24 19 -41 -19 -54 -36 -12
-65 -8 -65 8 0 16 41 62 55 62 7 0 21 -7 29 -16z"/>
<path d="M12380 3724 c-13 -33 -13 -74 0 -74 6 0 13 0 17 0 4 0 8 22 10 50 3
54 -11 67 -27 24z"/>
<path d="M7857 3703 c-18 -17 -3 -83 18 -83 9 0 13 14 13 45 -1 42 -13 57 -31
38z"/>
<path d="M13184 3603 c-9 -32 -22 -78 -28 -103 -12 -44 -13 -45 -64 -54 -35
-6 -52 -14 -52 -24 0 -11 10 -14 45 -10 l45 6 0 -69 c0 -37 5 -80 10 -94 11
-30 37 -29 31 1 -2 10 -4 48 -5 84 l-1 65 53 -3 c40 -3 52 -1 52 11 0 10 -16
17 -51 21 -41 6 -49 10 -45 24 14 46 56 193 56 197 0 3 -6 5 -14 5 -9 0 -21
-22 -32 -57z"/>
<path d="M2556 3510 c-19 -289 -19 -270 -2 -270 9 0 29 -9 45 -21 34 -25 96
-34 134 -20 37 14 35 46 -5 107 -43 64 -72 69 -122 19 l-36 -36 4 38 c3 21 8
91 11 156 5 98 3 117 -9 117 -10 0 -15 -21 -20 -90z m150 -226 c29 -48 24 -63
-19 -64 -23 0 -87 29 -87 40 0 14 54 70 67 70 7 0 24 -21 39 -46z"/>
<path d="M4077 3563 c-20 -20 -37 -41 -37 -47 0 -6 -5 -3 -11 7 -18 30 -29 8
-29 -56 0 -34 -4 -87 -9 -118 -16 -99 -17 -174 -1 -174 11 0 18 28 28 110 7
61 20 134 28 162 14 50 65 123 85 123 23 0 30 -55 19 -149 -25 -215 -25 -203
-5 -200 10 3 26 26 39 56 11 29 24 53 27 53 3 0 11 -11 17 -25 7 -14 22 -30
35 -36 12 -6 29 -24 36 -41 18 -39 79 -67 149 -68 51 0 92 12 92 28 0 5 -36 8
-79 7 -65 0 -84 4 -107 21 -32 23 -42 44 -21 44 19 0 44 29 52 63 6 23 4 27
-16 27 -13 0 -34 -13 -51 -32 l-28 -33 -27 31 c-16 17 -33 39 -40 50 -12 18
-13 18 -33 -6 l-21 -25 7 27 c3 15 7 65 8 112 1 70 -2 87 -18 105 -27 30 -47
26 -89 -16z"/>
<path d="M12186 3588 c-2 -7 -14 -59 -27 -115 -22 -101 -23 -103 -51 -103 -22
0 -34 -10 -63 -52 -37 -56 -44 -98 -20 -118 12 -10 21 -10 40 -2 46 21 80 83
110 206 19 75 34 116 43 116 21 0 11 74 -11 78 -9 2 -19 -2 -21 -10z m-66
-273 c-13 -33 -50 -83 -67 -89 -23 -9 -14 29 17 72 34 48 66 58 50 17z"/>
<path d="M7042 3530 c-23 -17 -42 -34 -42 -39 0 -22 23 -22 45 -1 14 13 34 28
46 34 12 6 24 17 27 24 7 22 -34 13 -76 -18z"/>
<path d="M3315 3495 l-7 -55 -39 0 c-44 0 -109 -23 -109 -39 0 -19 18 -21 46
-6 16 8 43 15 60 15 l31 0 6 -95 c6 -97 11 -120 28 -109 5 3 7 43 3 100 l-7
94 59 0 c58 0 95 12 81 26 -4 4 -35 6 -68 5 l-61 -3 7 61 c6 51 4 61 -8 61
-11 0 -17 -15 -22 -55z"/>
<path d="M5672 3502 c3 -10 2 -41 -2 -70 -6 -48 -1 -117 15 -210 4 -21 14 -36
28 -42 18 -7 19 -9 4 -9 -23 -1 -20 -39 4 -54 25 -15 61 -1 111 43 58 50 81
104 67 154 -24 88 -132 72 -174 -26 l-13 -33 -7 49 c-4 27 -5 81 -3 120 6 80
3 96 -19 96 -10 0 -14 -6 -11 -18z m186 -174 c26 -26 10 -92 -33 -133 -25 -26
-69 -55 -80 -55 -16 0 -12 98 5 132 32 60 79 85 108 56z"/>
<path d="M13368 3513 c-2 -4 -4 -17 -4 -28 1 -29 31 -25 31 4 0 24 -19 40 -27
24z"/>
<path d="M6045 3500 c-3 -6 4 -24 16 -41 28 -40 48 -24 25 20 -17 32 -30 39
-41 21z"/>
<path d="M6715 3456 l-7 -45 -67 6 c-71 6 -96 -6 -89 -43 5 -27 28 -29 28 -3
0 21 3 21 55 16 30 -3 59 -8 65 -12 5 -3 10 -26 10 -51 0 -46 22 -114 38 -114
18 0 19 12 6 48 -7 20 -13 52 -14 70 0 29 3 32 29 32 37 0 86 18 76 28 -4 4
-28 7 -53 7 l-47 0 3 53 c2 40 -1 52 -12 52 -10 0 -17 -15 -21 -44z"/>
<path d="M9642 3471 c-12 -10 -34 -45 -49 -77 -16 -33 -39 -74 -52 -92 -28
-39 -76 -67 -87 -50 -8 13 49 68 71 68 8 0 15 6 15 14 0 20 -30 29 -36 11 -4
-8 -13 -15 -21 -15 -20 0 -63 -46 -63 -68 0 -57 51 -65 108 -17 35 29 42 31
42 10 0 -9 11 -27 25 -40 20 -21 34 -25 82 -25 64 1 106 21 85 42 -7 7 -12 8
-12 2 0 -6 -26 -12 -59 -13 -53 -2 -61 1 -80 25 -12 15 -21 35 -21 45 0 9 20
52 45 93 25 42 45 81 45 86 0 18 -18 19 -38 1z"/>
<path d="M12345 3470 c-8 -13 4 -32 16 -25 12 8 12 35 0 35 -6 0 -13 -4 -16
-10z"/>
<path d="M12455 3407 c-28 -28 -34 -42 -40 -100 -9 -79 -2 -106 21 -87 8 7 14
25 13 39 -5 70 2 103 27 128 22 22 31 24 65 19 30 -5 39 -3 39 8 0 17 -22 26
-62 26 -21 0 -40 -10 -63 -33z"/>
<path d="M13771 3395 c-21 -19 -42 -35 -46 -35 -22 0 -79 -95 -71 -117 9 -22
18 -15 85 68 83 105 111 115 71 28 -27 -61 -26 -93 6 -118 41 -33 164 -25 164
9 0 6 -24 7 -58 4 -63 -7 -102 5 -102 32 0 8 12 42 26 75 14 34 23 68 20 75
-10 25 -55 15 -95 -21z"/>
<path d="M11134 3363 c-34 -78 -70 -122 -110 -139 -66 -28 -71 -17 -16 39 49
50 64 77 42 77 -5 0 -34 -24 -65 -53 -57 -56 -69 -89 -37 -105 26 -14 103 12
137 46 l29 29 20 -24 c24 -31 81 -56 107 -48 30 10 23 20 -26 34 -68 20 -72
30 -46 111 22 66 22 90 0 90 -6 0 -21 -26 -35 -57z"/>
<path d="M8555 3382 c-64 -44 -60 -63 25 -135 18 -15 31 -29 29 -31 -2 -2 -31
0 -63 5 -39 7 -63 6 -69 0 -6 -6 -8 -13 -5 -16 11 -11 173 -33 182 -24 15 14
-13 57 -66 101 -26 22 -48 44 -48 49 0 5 20 19 45 31 45 22 60 48 28 48 -10
-1 -36 -13 -58 -28z"/>
<path d="M10564 3403 c-34 -7 -99 -68 -119 -113 -17 -37 -17 -42 -3 -56 18
-19 69 -12 89 12 16 20 29 18 29 -5 0 -33 11 -51 31 -51 17 0 18 3 8 21 -14
27 -4 78 26 131 14 24 25 49 25 56 0 12 -39 14 -86 5z m15 -62 c-10 -29 -56
-71 -91 -84 -40 -15 -1 65 45 93 47 29 58 26 46 -9z"/>
<path d="M12843 3378 c-48 -52 -57 -75 -39 -103 29 -44 136 -59 136 -19 0 12
-6 15 -24 10 -13 -3 -38 -1 -55 5 -41 15 -40 42 4 86 19 19 35 39 35 44 0 19
-27 8 -57 -23z"/>
<path d="M2278 3367 c-41 -38 -57 -79 -38 -102 19 -23 46 -18 83 15 l34 29 11
-23 c13 -28 45 -38 68 -21 15 11 14 13 -14 23 -27 9 -32 16 -32 41 0 34 -30
71 -58 71 -10 0 -34 -15 -54 -33z m62 -15 c0 -20 -21 -42 -57 -61 -32 -17 -29
2 8 44 35 39 49 44 49 17z"/>
<path d="M6976 3369 c-34 -26 -33 -40 4 -72 41 -37 39 -57 -5 -57 -29 0 -39 6
-53 30 -18 32 -42 40 -42 15 0 -8 12 -29 28 -45 28 -32 64 -40 110 -26 33 11
30 60 -8 97 -29 29 -24 45 11 37 8 -2 15 7 17 20 4 29 -25 30 -62 1z"/>
<path d="M9016 3368 c-39 -20 -76 -67 -76 -96 0 -47 54 -69 131 -56 65 12 59
30 -9 26 -55 -2 -92 10 -92 31 0 22 79 87 105 87 15 0 -10 -22 -46 -40 -21
-11 -39 -27 -39 -35 0 -21 10 -19 64 11 45 25 66 60 51 83 -9 15 -48 10 -89
-11z"/>
<path d="M9228 3330 c-48 -49 -58 -65 -58 -94 0 -25 6 -38 19 -46 25 -13 61
-13 61 0 0 6 12 22 26 35 22 20 24 26 11 31 -21 8 -57 -13 -57 -32 0 -9 -6
-14 -12 -11 -7 2 -13 15 -13 28 0 20 12 30 68 57 67 34 81 54 55 80 -22 22
-41 13 -100 -48z m82 25 c0 -2 -10 -9 -22 -15 -22 -11 -22 -10 -4 4 21 17 26
19 26 11z"/>
<path d="M13514 3366 c-40 -18 -72 -59 -80 -104 -12 -64 38 -76 127 -31 52 26
65 75 33 124 -18 28 -35 30 -80 11z m64 -59 c3 -21 -4 -31 -30 -47 -41 -25
-93 -28 -84 -4 3 9 6 19 6 23 0 5 11 20 24 34 33 35 80 32 84 -6z"/>
<path d="M12607 3359 c-24 -14 -47 -62 -47 -98 0 -41 25 -63 68 -59 41 3 57
28 19 28 -40 0 -57 10 -57 35 0 25 35 75 53 75 7 -1 1 -10 -12 -21 -19 -15
-21 -23 -12 -32 9 -9 17 -5 37 15 45 45 7 90 -49 57z"/>
<path d="M6434 3337 c-49 -43 -8 -99 80 -109 47 -5 42 20 -6 32 -74 20 -86 40
-38 65 17 9 28 20 25 25 -10 16 -32 11 -61 -13z"/>
<path d="M8809 3321 l-39 -39 0 29 c0 15 -4 30 -9 34 -14 8 -25 -16 -23 -50 2
-16 -4 -82 -13 -145 -19 -144 -19 -170 -1 -170 18 0 26 22 26 76 0 48 14 84
31 84 23 0 70 43 95 87 28 47 33 95 13 119 -19 23 -39 17 -80 -25z m51 -61
c-6 -15 -27 -42 -46 -61 l-34 -33 0 27 c0 36 34 101 62 122 22 15 23 14 26 -6
2 -11 -2 -33 -8 -49z"/>
<path d="M10757 3330 c-17 -14 -27 -16 -29 -8 -6 18 -28 -1 -28 -25 0 -12 -9
-36 -20 -54 -33 -55 -2 -50 51 8 l49 54 -6 -76 c-7 -80 0 -97 33 -85 12 5 13
10 5 18 -7 7 -9 41 -5 99 7 99 0 108 -50 69z"/>
<path d="M12302 3337 c-35 -42 -36 -107 -2 -107 14 0 18 7 18 33 0 17 3 44 7
60 8 29 -5 37 -23 14z"/>
<path d="M13294 3335 c-12 -28 -11 -124 1 -127 6 -2 13 21 16 49 4 29 9 60 13
68 3 9 2 14 -3 10 -5 -3 -11 1 -14 7 -3 9 -8 6 -13 -7z"/>
<path d="M2841 3324 c2 -11 -5 -33 -14 -51 -9 -18 -17 -41 -17 -51 0 -29 32
-52 72 -52 63 0 86 55 52 123 -9 18 -17 33 -18 34 0 0 -18 4 -39 8 -34 7 -38
5 -36 -11z m75 -70 c10 -39 -2 -56 -38 -52 -40 4 -46 25 -18 61 24 30 47 26
56 -9z"/>
<path d="M3107 3334 c-3 -4 1 -17 9 -30 15 -22 14 -25 -10 -49 -27 -27 -54
-29 -48 -4 14 57 14 69 0 69 -9 0 -20 -17 -27 -40 -24 -79 28 -106 94 -49 39
34 43 53 19 87 -15 22 -26 27 -37 16z"/>
<path d="M5480 3302 c-43 -42 -52 -79 -24 -103 23 -19 86 -17 118 5 23 14 27
22 21 44 -4 15 -12 33 -18 41 -7 8 -11 22 -9 33 6 33 -43 22 -88 -20z m54 -22
c35 -13 35 -47 0 -60 -25 -10 -64 1 -64 18 0 9 29 52 35 52 2 0 15 -4 29 -10z"/>
<path d="M6224 3326 c-61 -27 -80 -83 -44 -128 30 -38 111 -47 124 -13 3 10
-7 13 -42 13 -33 0 -50 5 -59 19 -12 16 -11 19 4 23 22 6 53 29 72 53 11 14
11 20 1 32 -15 18 -16 18 -56 1z m16 -30 c0 -2 -8 -10 -17 -17 -16 -13 -17
-12 -4 4 13 16 21 21 21 13z"/>
<path d="M6010 3248 c0 -7 7 -22 15 -32 31 -41 11 -127 -49 -206 -20 -26 -26
-30 -25 -15 4 38 -1 55 -16 55 -12 0 -14 -7 -9 -27 23 -94 39 -94 94 -3 49 81
60 146 36 205 -14 33 -46 49 -46 23z"/>
<path d="M11120 3097 c-3 -2 -66 -7 -140 -10 -136 -6 -462 -32 -555 -45 -38
-6 -51 -12 -53 -26 -3 -14 0 -17 13 -12 17 6 215 26 470 46 123 9 358 14 399
8 22 -4 33 17 13 25 -20 8 -141 19 -147 14z"/>
<path d="M10660 2931 c-118 -10 -223 -16 -232 -13 -19 4 -26 -22 -9 -32 4 -3
122 4 262 15 153 12 322 19 426 17 163 -2 197 2 179 20 -15 14 -412 10 -626
-7z"/>
</g>
</svg>
