<?xml version="1.0" standalone="no"?>
<!DOCTYPE svg PUBLIC "-//W3C//DTD SVG 20010904//EN"
 "http://www.w3.org/TR/2001/REC-SVG-20010904/DTD/svg10.dtd">
<svg version="1.0" xmlns="http://www.w3.org/2000/svg"
 width="1617.000000pt" height="1213.000000pt" viewBox="0 0 1617.000000 1213.000000"
 preserveAspectRatio="xMidYMid meet">

<g transform="translate(0.000000,1213.000000) scale(0.100000,-0.100000)"
fill="#000000" stroke="none">
<path d="M2322 11730 c-33 -21 -42 -36 -86 -155 -38 -105 -47 -147 -49 -243
-3 -149 40 -206 178 -231 73 -14 155 -5 155 17 0 12 -10 14 -52 9 -62 -8 -173
15 -201 41 -39 35 -51 74 -50 158 2 89 14 143 61 273 35 95 55 118 97 116 39
-2 49 4 34 21 -16 20 -48 17 -87 -6z"/>
<path d="M3165 11720 c-3 -6 4 -14 17 -19 66 -26 131 -157 132 -267 0 -60 -4
-80 -32 -136 -36 -73 -121 -162 -146 -152 -11 4 -16 0 -16 -15 0 -63 115 23
181 136 62 105 60 223 -7 355 -41 82 -108 132 -129 98z"/>
<path d="M4493 11698 c-4 -7 -7 -52 -6 -100 l2 -87 -50 -10 c-28 -6 -59 -11
-69 -11 -13 0 -20 -7 -20 -20 0 -22 13 -25 56 -11 16 5 44 12 63 15 l34 6 -7
-52 c-4 -29 -12 -58 -18 -65 -15 -18 -1 -30 20 -17 11 7 20 33 26 72 9 61 9
61 48 67 51 9 44 31 -9 28 l-40 -2 -6 65 c-4 36 -2 76 3 90 14 37 -7 62 -27
32z"/>
<path d="M5805 11604 c-44 -95 -118 -180 -194 -223 -41 -23 -43 -23 -32 -3 14
25 67 67 99 77 23 7 29 20 12 30 -17 10 -78 -25 -115 -66 -34 -38 -46 -81 -25
-94 13 -8 65 20 130 70 l56 43 1 -40 c2 -43 24 -85 49 -95 26 -10 123 17 152
42 38 33 21 41 -32 16 -24 -12 -60 -25 -79 -28 -29 -4 -37 -2 -47 17 -21 39
-6 113 44 216 48 100 55 124 33 124 -7 0 -30 -39 -52 -86z"/>
<path d="M14254 11678 c-5 -7 -25 -44 -45 -83 -35 -65 -40 -70 -71 -70 -59 0
-127 -73 -128 -138 0 -16 10 -38 23 -51 l23 -23 -33 -53 c-66 -102 -89 -200
-48 -200 11 0 15 11 15 38 0 41 50 149 90 192 16 17 40 29 66 33 64 10 94 40
94 91 0 29 -7 52 -21 70 l-21 27 42 80 c28 53 39 84 32 91 -6 6 -13 5 -18 -4z
m-139 -250 c-19 -35 -39 -64 -45 -66 -16 -6 -11 56 7 86 21 33 33 42 55 42 15
0 12 -10 -17 -62z m85 -15 c0 -18 -9 -28 -36 -39 -20 -8 -38 -13 -41 -10 -3 2
8 28 23 56 25 47 29 50 41 34 7 -10 13 -28 13 -41z"/>
<path d="M14725 11655 c-22 -8 -52 -14 -67 -14 -18 -1 -28 -6 -28 -16 0 -20
36 -19 116 2 35 9 66 14 69 11 3 -3 -11 -37 -32 -76 -37 -69 -39 -72 -75 -72
-47 0 -68 -8 -68 -27 0 -11 9 -13 43 -8 l44 7 -25 -75 c-23 -71 -24 -107 -4
-107 5 0 15 26 22 57 7 32 19 72 28 90 l16 33 65 -6 c102 -10 114 -10 118 3 4
12 -19 18 -110 28 l-58 7 42 74 c22 41 38 81 35 89 -7 19 -75 18 -131 0z"/>
<path d="M13006 11638 c-3 -7 -7 -26 -9 -43 -3 -16 -22 -70 -43 -120 -43 -104
-56 -185 -30 -185 11 0 16 9 16 29 0 32 53 193 76 228 16 26 19 89 4 98 -6 3
-12 0 -14 -7z"/>
<path d="M2863 11594 c-15 -20 -54 -69 -87 -111 -37 -47 -55 -78 -49 -84 6 -6
38 -3 89 9 l79 19 7 -84 c8 -98 12 -113 33 -113 12 0 14 6 8 28 -3 15 -7 68
-7 117 -1 50 -4 92 -8 95 -4 3 -8 41 -10 83 -2 89 -12 96 -55 41z m27 -74 c0
-40 -4 -62 -12 -64 -7 -2 -32 -8 -56 -13 -40 -10 -42 -9 -30 7 7 10 31 43 53
73 22 31 41 56 43 57 1 0 2 -27 2 -60z"/>
<path d="M13176 11582 c-64 -62 -93 -109 -101 -165 -10 -65 11 -97 63 -97 50
0 102 32 102 64 0 36 -23 49 -80 44 -28 -3 -50 -2 -50 3 0 26 27 68 77 120 71
74 61 102 -11 31z m31 -198 c4 -13 -39 -34 -71 -34 -27 0 -31 30 -6 42 22 10
73 5 77 -8z"/>
<path d="M4685 11611 c-8 -15 3 -31 21 -31 9 0 14 7 12 17 -4 20 -24 28 -33
14z"/>
<path d="M14475 11593 c-3 -15 -19 -73 -36 -128 -16 -55 -29 -104 -29 -108 0
-5 -7 -15 -15 -24 -9 -8 -14 -20 -12 -27 6 -17 52 -14 53 4 1 39 18 111 39
166 27 73 35 135 18 141 -7 3 -15 -8 -18 -24z"/>
<path d="M2465 11553 c3 -20 1 -92 -6 -159 -10 -101 -10 -126 1 -139 18 -21
25 -11 25 38 1 23 5 88 9 144 9 112 4 153 -20 153 -13 0 -15 -7 -9 -37z"/>
<path d="M12156 11555 c-16 -42 -66 -270 -62 -282 12 -31 24 -5 51 112 16 69
32 128 37 131 4 3 8 16 8 30 0 27 -24 33 -34 9z"/>
<path d="M13690 11559 c-13 -6 -28 -15 -32 -22 -13 -20 -9 -47 7 -47 8 0 15 7
15 15 0 17 39 35 76 35 13 0 24 -5 24 -10 0 -6 -34 -42 -76 -82 -104 -99 -129
-154 -82 -179 53 -28 336 38 302 71 -5 5 -40 -2 -79 -15 -83 -28 -199 -42
-209 -26 -12 20 23 69 99 137 82 74 97 100 69 121 -21 15 -78 16 -114 2z"/>
<path d="M12375 11537 c-22 -7 -46 -16 -53 -20 -17 -11 -15 -37 3 -37 8 0 15
4 15 9 0 11 59 20 94 14 60 -12 37 -56 -61 -120 -29 -18 -60 -45 -69 -59 -16
-23 -16 -27 -1 -41 13 -14 24 -14 74 -5 32 6 74 14 94 17 23 3 36 11 36 20 0
12 -10 14 -51 9 -28 -3 -67 -10 -86 -15 l-35 -8 40 37 c23 20 60 53 82 73 51
45 64 83 37 110 -25 24 -70 31 -119 16z"/>
<path d="M5346 11471 c-40 -26 -86 -98 -86 -133 0 -31 31 -68 58 -68 33 1 107
21 130 36 41 27 14 32 -58 11 -65 -19 -71 -20 -86 -5 -22 22 -11 72 14 64 22
-7 112 69 112 95 0 26 -45 25 -84 0z m44 -14 c0 -2 -15 -13 -32 -26 l-33 -22
28 25 c26 24 37 31 37 23z"/>
<path d="M5179 11470 c-1 -8 -1 -19 0 -23 1 -5 -5 -20 -13 -35 -7 -15 -19 -40
-25 -55 -12 -30 -37 -45 -52 -30 -5 5 -14 37 -20 71 -7 39 -16 62 -24 62 -10
0 -13 -12 -9 -47 9 -101 41 -146 84 -123 26 14 80 88 80 110 0 9 5 21 12 28
10 10 7 17 -10 34 -17 17 -22 19 -23 8z"/>
<path d="M3765 11438 c-82 -97 -65 -178 31 -154 13 4 24 13 24 21 0 10 -9 12
-35 8 -26 -4 -36 -2 -41 11 -7 17 29 86 52 99 8 4 14 14 14 22 0 27 -19 24
-45 -7z"/>
<path d="M4022 11457 c-9 -10 -6 -23 8 -50 26 -48 25 -56 -7 -68 -21 -8 -30
-6 -42 6 -14 14 -14 19 3 50 11 19 17 37 15 40 -13 12 -49 -29 -55 -62 -6 -31
-3 -39 16 -55 12 -10 31 -18 42 -18 26 0 74 26 81 44 5 13 -38 126 -48 126 -1
0 -7 -6 -13 -13z"/>
<path d="M4646 11438 c-13 -62 -13 -158 -1 -168 19 -16 23 -4 26 94 2 62 0 91
-8 93 -7 3 -14 -6 -17 -19z"/>
<path d="M4161 11380 c-20 -58 -22 -73 -11 -83 8 -8 14 -9 16 -1 10 25 76 124
84 124 5 0 14 -26 20 -57 15 -71 26 -93 46 -93 12 0 14 5 9 18 -4 9 -15 46
-24 81 -18 72 -39 93 -71 73 -12 -7 -20 -8 -20 -2 0 5 -6 10 -13 10 -7 0 -23
-32 -36 -70z"/>
<path d="M4796 11400 c-47 -44 -70 -85 -64 -119 5 -34 22 -25 36 19 17 50 74
113 99 108 23 -4 29 -62 13 -140 -12 -63 -5 -108 16 -108 10 0 14 11 13 38 0
20 3 75 7 123 6 73 4 87 -10 102 -28 28 -63 20 -110 -23z"/>
<path d="M2557 11363 c-11 -10 -8 -41 4 -48 6 -4 13 2 16 14 3 11 9 18 14 15
5 -3 9 2 9 10 0 16 -31 22 -43 9z"/>
<path d="M15100 11350 c-30 -4 -68 -13 -84 -19 -16 -6 -37 -9 -47 -6 -9 3 -21
0 -26 -7 -4 -8 -43 -35 -85 -61 -161 -99 -224 -227 -168 -338 26 -50 89 -91
195 -126 145 -47 388 -32 515 32 114 58 139 141 82 267 -59 131 -123 175 -297
204 l-110 19 60 7 c112 13 290 -23 283 -58 -4 -19 15 -19 27 0 14 24 -34 62
-95 75 -66 15 -187 20 -250 11z m56 -80 c150 -26 171 -33 218 -72 52 -42 106
-155 106 -220 0 -43 -5 -53 -39 -87 -45 -45 -135 -78 -236 -87 -132 -11 -150
-12 -138 -7 9 3 11 17 8 41 -4 26 2 50 17 82 l23 45 65 3 c97 5 106 22 17 37
l-38 6 56 61 c30 34 55 67 55 75 0 16 -70 16 -190 0 -64 -9 -85 -16 -85 -27 0
-9 8 -14 20 -13 11 1 60 7 109 13 49 6 90 9 92 8 1 -2 -24 -31 -57 -64 -51
-54 -65 -63 -106 -69 -75 -10 -91 -16 -97 -32 -5 -13 1 -14 41 -9 27 4 56 9
65 12 16 5 15 1 -3 -42 -15 -32 -20 -59 -16 -85 l5 -39 -36 0 c-44 0 -166 33
-157 42 4 3 1 16 -5 28 -9 17 -7 35 9 88 28 94 45 188 37 208 -11 29 -26 2
-37 -67 -5 -35 -19 -94 -31 -132 -11 -38 -17 -78 -14 -92 8 -30 6 -30 -38 -4
-123 72 -92 233 66 341 73 49 135 77 169 78 15 0 80 -9 145 -20z"/>
<path d="M12720 11321 c0 -24 18 -37 31 -24 13 13 1 43 -17 43 -8 0 -14 -9
-14 -19z"/>
<path d="M13353 11324 c-3 -8 0 -21 6 -27 10 -9 16 -8 26 7 8 10 12 23 9 27
-9 15 -34 10 -41 -7z"/>
<path d="M5021 10832 c-8 -14 -5 -23 11 -36 18 -16 20 -26 15 -81 -3 -35 -13
-91 -22 -125 -20 -77 -17 -183 6 -188 13 -2 15 7 11 55 -2 36 4 93 17 150 25
111 26 150 5 203 -18 44 -28 49 -43 22z"/>
<path d="M3740 10805 c-85 -19 -170 -41 -187 -49 -34 -16 -44 -36 -19 -36 21
0 24 -18 13 -72 -7 -34 -14 -47 -25 -46 -23 4 -27 -23 -4 -29 18 -4 21 -16 27
-86 3 -45 5 -102 3 -126 -2 -27 1 -45 9 -48 17 -6 27 76 20 174 l-6 84 42 -5
c23 -4 83 -7 132 -9 74 -2 90 1 90 13 0 10 -13 15 -45 17 -25 1 -79 4 -121 6
-42 2 -80 7 -86 10 -8 5 -1 122 8 132 9 8 288 68 326 69 48 3 65 13 43 26 -23
15 -52 11 -220 -25z"/>
<path d="M6940 10788 c-30 -50 -41 -94 -47 -190 -3 -48 -9 -86 -13 -83 -11 7
-183 -25 -194 -36 -21 -19 8 -21 100 -5 78 13 99 14 106 4 12 -19 5 -73 -9
-73 -19 0 -17 -18 2 -30 25 -15 45 20 45 80 l0 52 55 13 c30 7 58 11 61 8 3
-3 -7 -26 -21 -51 -32 -59 -34 -114 -3 -126 42 -15 114 16 124 55 7 27 -19 95
-43 115 -7 6 -13 20 -13 30 0 11 -7 19 -15 19 -28 0 -115 -22 -115 -29 0 -4
-9 -7 -20 -7 -17 0 -20 7 -20 51 0 55 12 110 37 168 19 43 29 46 45 12 6 -14
15 -25 19 -25 17 0 19 21 4 50 -22 42 -59 41 -85 -2z m154 -313 c28 -28 30
-57 6 -77 -31 -25 -70 -24 -70 2 0 23 31 90 41 90 4 0 14 -7 23 -15z"/>
<path d="M5670 10729 c-125 -56 -122 -123 8 -203 24 -15 45 -33 49 -42 19 -49
-121 -96 -174 -59 -31 22 -43 -2 -13 -27 32 -26 100 -23 159 7 92 46 82 92
-36 168 -45 29 -64 67 -43 91 6 8 36 25 66 37 49 21 64 38 38 46 -5 1 -29 -7
-54 -18z"/>
<path d="M9779 10687 c-28 -18 -34 -29 -34 -57 0 -35 5 -40 110 -113 34 -24
18 -47 -34 -47 -28 0 -44 7 -66 30 -16 17 -32 30 -37 30 -17 0 -7 -26 23 -57
26 -28 37 -33 77 -33 57 0 92 21 92 56 0 18 -13 32 -54 59 -99 63 -109 87 -46
113 41 18 54 42 21 42 -10 0 -33 -10 -52 -23z"/>
<path d="M8210 10675 c0 -28 17 -32 45 -12 23 17 12 37 -21 37 -19 0 -24 -5
-24 -25z"/>
<path d="M10377 10674 c-14 -15 -6 -34 14 -34 14 0 19 5 17 17 -3 18 -20 27
-31 17z"/>
<path d="M9066 10637 c-18 -27 -46 -154 -39 -174 11 -29 33 -13 33 25 0 41 17
111 32 129 7 9 18 8 44 -3 35 -15 60 -11 48 7 -7 11 -71 39 -90 39 -7 0 -20
-10 -28 -23z"/>
<path d="M9260 10632 c-55 -27 -53 -61 5 -103 50 -36 56 -61 18 -86 -20 -13
-24 -13 -40 6 -22 26 -33 27 -33 1 0 -49 84 -61 115 -17 28 39 19 71 -30 111
-25 21 -45 42 -45 47 0 5 20 14 45 21 25 7 45 18 45 25 0 18 -38 15 -80 -5z"/>
<path d="M9537 10625 c-20 -14 -37 -30 -37 -35 0 -6 -9 -10 -20 -10 -21 0 -26
-10 -11 -25 5 -6 11 -23 13 -40 2 -23 10 -32 40 -43 45 -17 108 -9 108 15 0
12 -7 14 -34 9 -45 -9 -86 8 -86 34 0 11 8 23 18 26 84 27 123 59 100 82 -19
19 -50 14 -91 -13z"/>
<path d="M5282 10620 c-38 -23 -69 -71 -78 -119 -6 -28 -3 -38 16 -53 26 -21
57 -16 113 19 l37 23 0 -35 c0 -23 6 -38 16 -42 19 -7 64 16 64 34 0 16 -22
17 -38 1 -18 -18 -16 49 3 102 19 54 19 62 -1 58 -9 -2 -22 -19 -28 -38 -20
-60 -129 -125 -151 -90 -4 6 4 32 17 58 25 51 71 83 91 63 13 -13 37 -14 37
-2 0 16 -30 41 -48 41 -9 0 -32 -9 -50 -20z"/>
<path d="M8707 10628 c-12 -9 -20 -39 -28 -98 -5 -46 -12 -86 -15 -89 -9 -9
-43 33 -63 80 -20 47 -30 56 -43 43 -10 -9 38 -104 68 -135 50 -53 68 -35 83
85 5 42 15 84 22 92 17 21 -2 38 -24 22z"/>
<path d="M4161 10611 c-23 -23 -41 -101 -41 -176 0 -63 12 -76 36 -39 14 20
15 27 4 34 -9 6 -11 22 -6 64 6 45 13 60 37 81 25 20 34 23 51 14 21 -11 48
-6 48 10 0 10 -62 31 -92 31 -10 0 -27 -9 -37 -19z"/>
<path d="M8859 10590 c-46 -48 -56 -79 -39 -120 9 -22 22 -32 49 -39 48 -13
146 -1 146 18 0 11 -16 14 -77 12 -70 -2 -78 0 -88 20 -14 25 -1 39 36 39 11
0 33 13 49 30 27 28 27 30 11 55 -23 35 -43 31 -87 -15z m51 -25 c-14 -17 -40
-20 -40 -6 0 6 10 17 22 26 26 17 37 3 18 -20z"/>
<path d="M4805 10555 c-6 -55 -11 -68 -32 -82 -23 -15 -28 -15 -52 -2 -24 14
-26 20 -25 72 1 60 -10 74 -26 31 -26 -67 -2 -129 53 -139 74 -14 117 34 117
130 0 40 -4 55 -14 55 -9 0 -16 -20 -21 -65z"/>
<path d="M8195 10548 c-14 -104 -12 -173 4 -173 9 0 14 14 16 45 1 25 5 78 10
118 7 61 6 72 -7 72 -11 0 -17 -17 -23 -62z"/>
<path d="M4343 10562 c-20 -23 -31 -29 -43 -22 -14 8 -19 2 -29 -29 -23 -77
-6 -152 19 -85 6 14 24 46 41 71 36 52 49 45 49 -24 0 -23 5 -45 11 -49 6 -3
34 19 64 51 l53 57 7 -47 c9 -55 40 -84 74 -65 30 16 26 30 -9 30 -20 0 -30 5
-30 15 0 36 -23 115 -33 115 -7 0 -33 -23 -58 -52 l-46 -52 -7 46 c-10 66 -29
78 -63 40z"/>
<path d="M3935 10550 c-44 -29 -65 -61 -65 -101 0 -65 61 -89 136 -53 54 26
60 69 18 136 -27 43 -46 47 -89 18z m68 -41 c34 -60 15 -92 -56 -93 -40 -1
-42 1 -45 30 -2 25 4 37 33 63 20 17 39 31 43 31 4 0 15 -14 25 -31z"/>
<path d="M8362 10516 c-22 -23 -43 -53 -47 -65 -7 -24 9 -51 31 -51 16 0 19
16 3 25 -7 5 -5 15 5 30 23 35 62 75 73 75 13 0 27 -37 43 -107 8 -33 17 -53
26 -53 18 0 17 4 -2 87 -26 115 -64 132 -132 59z"/>
<path d="M7239 10514 c-22 -27 -70 -138 -67 -156 5 -32 22 -22 39 23 26 73 44
104 59 102 8 -1 27 -5 43 -9 46 -11 32 20 -17 38 -39 14 -46 15 -57 2z"/>
<path d="M10313 10454 c-3 -8 -1 -20 5 -26 15 -15 43 8 35 28 -7 19 -32 18
-40 -2z"/>
<path d="M3260 10247 c0 -8 12 -18 28 -22 15 -4 657 -11 1427 -15 895 -5 1456
-11 1554 -19 85 -6 156 -9 159 -6 44 43 -292 52 -2218 60 -476 1 -884 6 -907
10 -35 6 -43 4 -43 -8z"/>
<path d="M5074 9817 c-10 -28 24 -85 71 -118 26 -19 61 -46 78 -61 28 -24 30
-28 17 -41 -8 -7 -34 -19 -56 -25 -69 -20 -135 -52 -128 -64 8 -12 26 -8 129
30 43 16 84 36 89 45 16 25 -5 69 -44 94 -83 53 -110 78 -121 110 -12 38 -27
50 -35 30z"/>
<path d="M3824 9800 c-23 -12 -51 -32 -64 -45 -20 -22 -21 -25 -6 -31 10 -4
26 3 42 19 28 28 87 52 104 42 33 -20 -29 -127 -128 -221 -42 -41 -72 -77 -68
-83 12 -18 22 -13 79 39 30 28 57 50 60 50 3 0 8 -13 12 -30 9 -39 40 -60 90
-60 50 0 125 26 141 48 17 24 7 34 -19 20 -60 -33 -136 -48 -164 -30 -6 4 -15
21 -19 37 -4 17 -10 35 -15 40 -4 6 10 39 32 75 74 123 36 186 -77 130z"/>
<path d="M4648 9760 c-20 -21 -74 -68 -120 -105 -46 -37 -87 -75 -92 -85 -22
-47 27 -75 149 -86 64 -6 77 -5 73 7 -3 9 -33 18 -84 25 -134 20 -137 25 -53
93 102 82 179 157 179 174 0 25 -11 20 -52 -23z"/>
<path d="M6803 9773 c-55 -19 -111 -69 -95 -85 9 -9 17 -6 33 11 24 26 78 51
109 51 47 0 2 -85 -107 -201 -35 -37 -63 -72 -63 -78 0 -18 22 -13 47 10 l22
22 33 -25 c18 -14 43 -28 56 -32 34 -11 120 3 139 22 9 10 18 16 20 15 2 -2 3
0 3 5 0 9 -5 9 -68 -6 -61 -14 -96 -8 -134 23 l-26 22 29 36 c98 119 125 198
73 217 -14 6 -26 10 -27 9 -1 0 -21 -7 -44 -16z"/>
<path d="M3365 9715 l7 -55 -46 0 c-34 0 -46 -4 -46 -15 0 -11 12 -15 49 -15
l49 0 7 -40 c4 -24 3 -46 -3 -53 -15 -18 1 -39 23 -31 15 6 17 15 12 61 -5 49
-4 53 16 54 41 2 47 4 49 14 2 6 -14 11 -35 13 -42 4 -43 5 -52 75 -4 32 -11
47 -21 47 -13 0 -14 -10 -9 -55z"/>
<path d="M2918 9702 l-40 -38 -28 28 c-22 22 -38 28 -69 28 -35 0 -41 -3 -41
-20 0 -18 4 -20 34 -15 75 14 100 -73 40 -136 -35 -37 -65 -45 -62 -16 4 33
-15 34 -31 2 -30 -60 48 -72 108 -16 28 26 29 27 51 9 16 -13 39 -18 82 -18
51 0 61 3 65 20 3 11 9 17 14 14 5 -3 9 0 9 5 0 14 -27 14 -35 1 -8 -13 -91
-13 -116 0 -43 24 -7 105 66 150 39 24 45 40 15 40 -12 0 -39 -17 -62 -38z"/>
<path d="M5870 9690 c0 -13 5 -18 15 -14 24 9 103 -5 119 -22 9 -8 12 -22 9
-32 -15 -44 -98 -106 -143 -107 -18 0 -25 -5 -25 -20 0 -24 22 -23 78 4 l37
18 0 -23 c0 -13 9 -28 19 -34 25 -13 135 -13 184 1 45 12 46 37 1 29 -16 -2
-60 -5 -99 -5 -55 0 -70 3 -73 16 -4 23 64 121 104 147 33 22 46 52 22 52 -7
0 -25 -12 -40 -27 l-28 -27 -15 22 c-17 24 -71 42 -127 42 -31 0 -38 -4 -38
-20z"/>
<path d="M5010 9668 c-25 -4 -103 -9 -175 -13 -109 -4 -131 -8 -134 -22 -3
-14 9 -15 120 -9 276 14 319 18 319 31 0 16 -69 23 -130 13z"/>
<path d="M6393 9654 c-15 -7 -17 -30 -3 -39 5 -3 18 0 29 7 15 9 28 9 57 0 41
-12 68 -2 47 19 -11 11 -111 22 -130 13z"/>
<path d="M3506 9310 c-47 -24 -86 -58 -86 -77 0 -21 24 -15 49 11 28 30 95 60
115 53 27 -11 18 -41 -34 -115 -45 -64 -54 -72 -102 -86 -73 -21 -142 -97
-102 -113 16 -6 40 4 91 37 l33 22 -15 -36 c-18 -42 -19 -72 -4 -82 14 -8 124
15 146 32 31 22 5 27 -59 11 -34 -9 -65 -14 -67 -11 -3 2 3 20 12 39 9 20 17
45 17 56 0 11 23 47 50 80 61 73 80 109 80 148 0 52 -54 66 -124 31z"/>
<path d="M6894 9252 c-23 -17 -52 -45 -64 -62 l-23 -32 -12 28 c-15 36 -32 50
-72 59 -36 7 -73 -8 -73 -30 0 -17 21 -20 36 -6 14 14 63 1 75 -20 14 -27 -2
-51 -64 -100 -29 -23 -52 -46 -52 -52 0 -26 28 -13 84 39 l61 56 0 -31 c0 -45
33 -63 112 -59 47 2 63 7 63 17 0 11 -13 14 -61 12 -68 -3 -91 12 -80 51 6 25
70 99 100 115 10 5 16 18 15 27 -4 15 -9 14 -45 -12z"/>
<path d="M4502 9211 c-114 -85 -134 -120 -90 -160 19 -18 168 -74 176 -67 1 2
0 10 -4 19 -3 9 -36 25 -73 36 -81 25 -98 40 -79 71 16 26 112 100 131 100 7
0 18 5 25 12 14 14 16 48 3 48 -5 0 -45 -27 -89 -59z"/>
<path d="M6064 9249 c5 -13 11 -55 14 -94 5 -51 11 -70 21 -70 12 0 14 14 12
62 -3 82 -14 117 -36 122 -15 2 -17 -1 -11 -20z"/>
<path d="M6313 9212 c-38 -33 -99 -95 -135 -139 -36 -43 -76 -87 -88 -98 -31
-28 -154 -175 -168 -202 -16 -29 -15 -33 8 -33 11 0 20 6 20 14 0 31 308 376
410 458 33 28 42 40 34 48 -9 9 -29 -4 -81 -48z"/>
<path d="M4940 9204 c0 -9 12 -27 27 -40 l28 -24 -180 3 c-201 2 -258 -5 -253
-31 4 -19 11 -19 78 -2 30 8 82 10 160 4 63 -4 141 -6 172 -5 85 3 136 -30 65
-42 -48 -8 -127 -47 -127 -63 0 -19 9 -18 60 7 24 12 64 24 89 28 63 9 66 35
11 84 -22 21 -45 37 -50 37 -6 0 -10 6 -10 14 0 16 -17 31 -47 40 -18 6 -23 3
-23 -10z"/>
<path d="M3710 9179 c0 -16 4 -19 20 -14 32 10 60 -12 60 -46 0 -38 -46 -87
-89 -95 -30 -6 -41 -27 -21 -39 14 -9 94 39 118 70 l20 25 6 -23 c3 -13 16
-29 28 -35 27 -15 115 -29 141 -24 38 8 8 27 -54 35 -35 4 -71 15 -79 23 -13
13 -12 21 13 66 16 27 26 52 23 55 -11 12 -34 -7 -52 -44 l-19 -38 -3 32 c-4
39 -43 73 -83 73 -23 0 -29 -5 -29 -21z"/>
<path d="M6254 8997 c-19 -17 -25 -29 -21 -42 7 -16 10 -15 34 9 30 31 83 36
83 9 0 -9 -34 -49 -75 -89 -41 -39 -75 -76 -75 -81 0 -6 11 -15 23 -20 45 -21
263 16 225 38 -7 4 -35 3 -63 -1 -82 -14 -135 -18 -135 -12 0 3 29 36 65 73
50 52 65 74 65 97 0 33 -14 42 -65 42 -21 0 -44 -9 -61 -23z"/>
<path d="M4835 8520 c-8 -13 -12 -7 108 -167 l46 -62 -95 -31 c-60 -20 -94
-37 -94 -46 0 -19 1 -18 102 15 137 46 145 54 107 94 -29 29 -139 179 -139
188 0 12 -29 19 -35 9z"/>
<path d="M2960 8520 c-1 -3 -3 -43 -4 -90 -2 -47 -13 -148 -26 -226 -24 -143
-23 -174 5 -174 13 0 15 6 11 28 -4 15 3 79 14 142 30 170 36 280 16 305 -8
11 -16 18 -16 15z"/>
<path d="M6156 8482 c-3 -5 -1 -24 4 -43 13 -44 13 -119 -1 -214 -8 -57 -7
-80 2 -91 13 -16 33 -8 26 10 -3 7 1 59 7 115 10 77 10 119 2 164 -10 56 -27
80 -40 59z"/>
<path d="M4089 8442 c-24 -21 -73 -61 -109 -89 -86 -67 -103 -87 -96 -111 7
-22 90 -62 176 -86 30 -8 65 -18 78 -22 13 -4 22 -2 22 5 0 17 -40 38 -100 51
-79 18 -154 58 -141 74 6 7 63 53 126 102 107 82 135 114 101 114 -7 0 -33
-17 -57 -38z"/>
<path d="M6371 8366 c-7 -9 -10 -24 -6 -33 6 -16 7 -17 18 -2 15 20 57 8 57
-16 0 -20 -68 -95 -86 -95 -15 0 -19 -26 -5 -34 5 -3 19 3 32 13 23 18 23 18
34 -3 19 -38 73 -58 139 -52 58 6 106 27 106 46 0 6 -9 6 -22 1 -86 -31 -198
-15 -198 29 0 36 46 97 89 116 41 19 55 44 25 44 -9 0 -32 -10 -51 -21 -31
-19 -36 -20 -51 -6 -27 24 -67 31 -81 13z"/>
<path d="M4575 8354 c-73 -9 -165 -13 -233 -10 -103 5 -113 4 -110 -12 5 -25
162 -28 361 -7 87 9 181 15 210 13 41 -2 52 0 52 12 0 21 -123 22 -280 4z"/>
<path d="M2700 8315 c-41 -13 -85 -24 -97 -24 -14 -1 -23 -7 -23 -16 0 -19 31
-19 93 0 47 14 137 21 166 14 31 -9 19 21 -15 36 -43 18 -30 19 -124 -10z"/>
<path d="M3174 8295 c-9 -23 4 -36 25 -23 28 17 75 -10 79 -45 4 -37 -39 -104
-72 -113 -14 -3 -27 -12 -30 -20 -8 -22 20 -28 46 -10 21 15 23 14 35 -15 15
-37 69 -61 126 -57 31 2 43 8 45 21 3 15 -1 17 -22 11 -34 -8 -92 3 -111 22
-34 34 -4 113 63 169 33 27 42 55 19 55 -8 0 -24 -11 -37 -25 -24 -25 -24 -26
-32 -5 -14 39 -122 67 -134 35z"/>
<path d="M5890 8299 c-19 -4 -49 -6 -66 -3 -36 7 -51 -8 -28 -27 13 -10 31
-11 95 -1 44 6 85 9 93 6 19 -7 32 16 15 27 -17 11 -62 10 -109 -2z"/>
<path d="M3234 7770 c-27 -11 -76 -69 -68 -81 6 -11 24 -2 41 22 18 24 73 43
73 24 0 -17 -86 -131 -105 -139 -19 -7 -20 -46 -1 -46 8 0 16 6 19 13 3 8 12
3 25 -14 12 -15 33 -30 47 -33 23 -6 105 9 105 19 0 16 -26 55 -37 55 -17 0
-17 -30 0 -31 6 0 1 -5 -12 -10 -30 -12 -52 -5 -79 24 l-22 23 35 42 c47 54
70 109 54 128 -13 15 -43 17 -75 4z"/>
<path d="M6620 7685 c-74 -7 -182 -18 -238 -24 -57 -6 -115 -8 -128 -5 -27 7
-27 7 -25 -226 1 -102 -16 -187 -34 -169 -2 3 -16 61 -31 129 -14 69 -30 129
-34 134 -9 9 -90 -33 -127 -67 -24 -21 -30 -51 -14 -62 5 -3 13 4 16 15 9 28
97 83 106 67 4 -7 16 -57 27 -112 26 -128 37 -157 59 -153 9 2 26 19 37 38 18
31 21 55 25 203 1 92 6 167 10 167 3 0 76 7 161 15 271 27 353 32 418 30 45
-2 62 1 62 10 0 29 -64 31 -290 10z"/>
<path d="M5676 7602 c-3 -5 -1 -24 4 -43 6 -19 10 -35 10 -36 0 -2 -27 -3 -60
-3 -47 0 -60 -3 -60 -15 0 -12 13 -15 59 -15 l60 0 3 -42 c2 -31 8 -44 20 -46
16 -3 17 2 12 42 l-7 46 67 0 c52 0 66 3 66 15 0 12 -14 15 -65 15 -69 0 -67
-2 -77 64 -3 21 -23 32 -32 18z"/>
<path d="M4583 7555 c-3 -9 -4 -17 -2 -18 2 -1 34 -18 72 -37 37 -19 80 -45
95 -57 24 -19 25 -23 12 -36 -8 -8 -49 -33 -91 -55 -54 -29 -80 -37 -91 -31
-26 15 -33 -10 -10 -34 19 -19 23 -19 39 -5 10 8 38 25 63 36 83 39 140 81
140 101 0 11 -12 28 -27 39 -33 23 -183 112 -189 112 -3 0 -7 -7 -11 -15z"/>
<path d="M4085 7514 c-16 -15 -60 -56 -97 -91 -83 -79 -81 -89 30 -140 43 -19
85 -42 95 -51 12 -11 21 -12 28 -5 15 15 -48 63 -120 91 -34 13 -61 27 -61 32
0 5 39 43 88 86 48 43 88 84 90 91 5 21 -21 14 -53 -13z"/>
<path d="M3061 7478 c-12 -12 -23 -30 -27 -40 -5 -17 -9 -16 -40 12 -38 33
-102 42 -123 17 -16 -20 -4 -26 35 -20 76 12 112 -57 57 -109 -41 -39 -85 -60
-95 -45 -6 9 -10 9 -19 0 -9 -9 -9 -16 1 -28 18 -22 54 -12 102 26 l37 30 21
-21 c22 -22 94 -28 105 -10 4 6 10 8 14 6 12 -8 34 11 27 23 -5 8 -13 8 -26 1
-27 -15 -86 -12 -99 4 -15 18 7 75 49 127 27 34 29 49 9 49 -5 0 -17 -10 -28
-22z"/>
<path d="M6475 7474 c-21 -22 -4 -44 20 -24 12 10 19 9 40 -4 43 -29 48 -51
19 -86 -32 -37 -80 -64 -89 -50 -9 15 -25 2 -25 -21 0 -12 7 -19 20 -19 25 0
92 33 109 53 10 13 15 12 36 -9 18 -18 35 -24 67 -24 52 0 78 14 61 31 -7 7
-17 8 -28 2 -21 -12 -61 -5 -75 12 -14 17 -2 42 46 95 21 22 31 41 24 45 -12
7 -59 -25 -60 -41 0 -6 -6 -17 -14 -23 -11 -10 -16 -8 -21 9 -7 23 -71 70 -97
70 -9 0 -24 -7 -33 -16z"/>
<path d="M4495 7435 c-44 -8 -117 -14 -161 -14 -67 -1 -83 -4 -88 -18 -4 -9
-1 -21 5 -27 8 -8 13 -8 16 2 3 8 28 12 74 12 67 0 263 25 280 36 5 3 9 9 9
15 0 12 -34 10 -135 -6z"/>
<path d="M5726 7303 c-4 -4 -51 -12 -104 -18 -75 -8 -97 -13 -97 -25 0 -8 6
-14 13 -12 7 1 61 4 120 7 103 5 107 6 107 27 0 23 -24 36 -39 21z"/>
<path d="M3247 6815 c-9 -8 -17 -20 -19 -27 -3 -8 -15 -5 -40 10 -42 26 -64
28 -72 6 -9 -24 -8 -27 15 -21 13 4 30 -4 50 -21 28 -25 29 -29 15 -48 -9 -12
-31 -29 -51 -38 -19 -9 -35 -21 -35 -26 0 -20 22 -20 53 -1 33 20 33 20 50 1
22 -26 86 -27 118 -1 29 24 18 38 -16 23 -36 -17 -72 -15 -79 4 -9 22 11 91
33 113 17 17 18 41 1 41 -5 0 -15 -7 -23 -15z"/>
<path d="M5820 6800 c-1 -3 -3 -61 -5 -130 -2 -69 -12 -184 -21 -256 -17 -132
-15 -184 10 -184 20 0 28 28 14 49 -8 14 -7 44 5 127 9 60 19 165 23 234 5
105 3 128 -10 145 -8 11 -16 18 -16 15z"/>
<path d="M7440 6777 c0 -7 24 -34 53 -59 54 -46 107 -134 107 -176 0 -58 -86
-190 -140 -213 -32 -15 -35 -32 -6 -37 25 -5 116 91 149 158 34 68 34 109 0
176 -46 91 -163 199 -163 151z"/>
<path d="M4030 6708 c-36 -39 -101 -98 -145 -132 -68 -53 -80 -66 -80 -91 0
-36 37 -57 135 -76 50 -9 71 -19 92 -42 24 -25 29 -27 34 -12 12 31 -35 63
-126 85 -47 12 -91 27 -98 34 -14 14 -23 6 171 171 74 63 106 97 106 113 1 36
-20 24 -89 -50z"/>
<path d="M4667 6774 c-11 -12 10 -39 102 -129 50 -49 88 -92 84 -95 -9 -7
-120 -52 -176 -71 -39 -14 -45 -36 -9 -32 45 5 213 77 223 95 9 16 -6 35 -100
128 -61 61 -112 110 -114 110 -2 0 -7 -3 -10 -6z"/>
<path d="M7018 6753 c-102 -119 -149 -307 -100 -401 32 -61 83 -95 152 -100
55 -4 90 6 90 27 0 3 -32 6 -71 6 l-70 0 -45 47 c-43 45 -44 49 -44 111 0 37
9 90 21 127 22 68 82 165 101 165 7 0 14 8 16 18 2 11 -3 17 -16 17 -10 0 -26
-8 -34 -17z"/>
<path d="M2925 6658 c-78 -28 -163 -118 -111 -118 16 0 31 34 21 50 -3 5 -1
10 4 10 6 0 11 -5 11 -11 0 -6 12 -2 28 9 41 29 94 44 106 32 14 -14 -22 -82
-80 -148 -36 -41 -52 -52 -76 -52 -22 0 -41 -11 -69 -39 -38 -38 -52 -81 -26
-81 16 0 104 57 114 73 4 6 11 -9 17 -34 10 -39 14 -44 42 -47 19 -2 38 3 48
13 9 9 16 13 16 9 0 -4 9 1 20 11 30 27 14 35 -30 14 -60 -29 -58 -30 -75 53
-1 9 6 25 18 35 40 35 106 135 113 169 11 58 -21 77 -91 52z"/>
<path d="M7293 6607 c-34 -32 -38 -33 -64 -20 -37 18 -93 13 -97 -8 -2 -13 6
-16 42 -15 54 1 65 -8 41 -34 -10 -11 -23 -30 -29 -43 -7 -12 -20 -22 -31 -22
-11 0 -21 -8 -23 -17 -5 -25 32 -23 69 3 25 17 29 18 29 4 0 -24 41 -35 90
-24 50 11 100 36 100 49 0 13 -10 13 -60 -5 -52 -18 -100 -20 -100 -2 1 33 30
90 58 114 31 25 42 53 22 53 -6 0 -27 -15 -47 -33z"/>
<path d="M4345 6590 c-104 -10 -198 -19 -207 -19 -24 -1 -23 -28 2 -36 11 -3
35 -2 52 4 43 14 260 31 388 31 82 0 100 3 100 15 0 10 -10 15 -29 15 -15 0
-48 2 -72 4 -24 2 -129 -4 -234 -14z"/>
<path d="M5983 6532 c-12 -8 -42 -80 -50 -125 -3 -16 1 -37 11 -52 40 -60 136
-6 136 76 0 69 -56 127 -97 101z m65 -92 c3 -40 -26 -80 -58 -80 -27 0 -33 32
-14 79 14 36 20 42 43 39 22 -3 26 -9 29 -38z"/>
<path d="M6282 6495 c-7 -14 -12 -32 -12 -40 0 -14 -88 -70 -97 -61 -6 6 3 45
15 64 5 7 17 15 27 16 24 3 31 24 12 32 -39 15 -91 -51 -85 -109 4 -41 34 -47
84 -16 20 12 39 18 43 13 8 -9 37 -127 43 -173 3 -20 -3 -26 -43 -37 -57 -17
-81 -43 -81 -87 0 -48 35 -124 61 -132 26 -8 63 14 87 50 9 13 18 52 21 85 5
55 9 63 32 71 14 6 35 8 47 5 13 -4 25 -2 28 3 10 16 -19 30 -68 33 l-49 3
-24 100 c-21 94 -22 102 -7 130 9 17 15 40 13 50 -6 30 -34 29 -47 0z m48
-372 c0 -48 -20 -102 -43 -118 -20 -14 -23 -14 -39 6 -11 13 -18 38 -18 66 0
40 3 45 33 58 51 22 67 19 67 -12z"/>
<path d="M6539 6408 c-45 -35 -64 -78 -35 -78 9 0 16 6 16 13 1 15 68 67 87
67 34 0 -12 -107 -84 -193 -47 -58 -21 -78 28 -22 42 48 73 47 85 -2 7 -32 14
-39 37 -41 23 -3 28 0 25 15 -2 10 -9 17 -16 16 -6 -2 -16 15 -22 36 -8 29
-17 41 -35 45 l-26 7 26 44 c19 31 25 55 23 82 -3 34 -6 38 -34 41 -23 2 -43
-6 -75 -30z"/>
<path d="M9277 5943 c-13 -12 -7 -19 54 -59 127 -82 180 -211 130 -319 -21
-47 -134 -156 -192 -185 -41 -21 -45 -42 -7 -35 53 11 206 154 233 219 25 59
19 134 -15 202 -32 65 -58 93 -137 148 -58 39 -57 39 -66 29z"/>
<path d="M7842 5918 c-6 -6 -12 -9 -12 -4 0 11 -61 -34 -93 -69 -66 -72 -114
-218 -102 -314 13 -113 88 -212 173 -232 40 -9 46 -6 57 29 7 23 -8 29 -33 13
-26 -16 -112 40 -138 92 -87 168 42 467 202 467 36 0 25 24 -12 28 -16 2 -35
-3 -42 -10z"/>
<path d="M7240 5866 c0 -13 6 -26 13 -28 8 -3 14 -35 17 -95 l5 -91 -73 -16
c-40 -9 -84 -16 -98 -16 -29 0 -64 -16 -64 -30 0 -12 84 -3 185 20 135 30 225
42 266 36 36 -6 39 -5 39 18 0 27 1 27 -152 5 -37 -5 -70 -9 -75 -9 -4 0 -7
35 -5 79 2 54 -1 90 -12 115 -17 41 -46 49 -46 12z"/>
<path d="M5168 5743 c-35 -32 -67 -63 -73 -69 -5 -6 -28 -24 -50 -40 -22 -16
-43 -33 -47 -39 -10 -14 11 -35 37 -35 26 0 82 -24 138 -59 26 -16 42 -20 49
-13 16 16 -125 102 -168 102 -8 0 18 27 59 60 41 33 77 66 80 74 8 21 64 49
72 36 11 -18 26 -10 23 13 -2 16 -11 23 -31 25 -21 3 -40 -8 -89 -55z"/>
<path d="M2740 5774 c0 -20 35 -45 47 -33 5 5 40 9 78 7 l69 -3 -47 -35 c-59
-45 -60 -62 -2 -84 60 -23 87 -58 74 -95 -13 -38 -65 -98 -100 -117 -39 -20
-74 -4 -65 31 3 13 2 27 -4 30 -6 3 -7 -1 -4 -9 4 -11 0 -16 -10 -16 -21 0
-21 -34 0 -54 24 -25 59 -29 92 -12 43 22 110 102 124 148 11 36 10 40 -18 69
-16 17 -44 38 -62 48 l-32 16 60 45 c92 70 85 77 -70 76 -87 -1 -130 -5 -130
-12z"/>
<path d="M5560 5770 c0 -12 126 -118 158 -133 12 -5 22 -13 21 -16 0 -3 -41
-25 -90 -49 -87 -42 -128 -79 -114 -102 5 -8 18 -2 39 18 17 17 76 52 131 79
55 27 100 56 100 63 0 8 -15 17 -33 21 -37 7 -95 45 -146 95 -34 33 -66 45
-66 24z"/>
<path d="M8057 5743 c-18 -18 -4 -30 32 -29 25 0 47 -6 59 -17 19 -17 19 -18
-1 -60 -25 -49 -43 -66 -74 -67 -13 0 -23 -5 -23 -10 0 -17 31 -24 60 -13 23
9 31 7 47 -8 31 -32 203 -48 203 -19 0 14 -18 21 -25 10 -4 -6 -13 -7 -23 -1
-9 4 -41 11 -71 14 -72 8 -87 21 -61 54 11 14 20 35 20 47 0 27 27 66 46 66 8
0 14 7 14 15 0 20 -29 19 -51 -1 -15 -14 -20 -13 -55 5 -38 21 -84 27 -97 14z"/>
<path d="M8942 5727 c-34 -36 -28 -61 28 -109 27 -24 50 -49 50 -55 0 -17
-111 -18 -128 -1 -9 9 -13 7 -18 -6 -9 -24 11 -35 61 -37 70 -2 90 2 107 22
24 28 12 54 -43 94 -27 19 -49 41 -49 48 0 13 134 37 204 37 16 0 26 5 26 15
0 17 -52 19 -135 5 -29 -5 -54 -4 -59 1 -14 13 -20 11 -44 -14z"/>
<path d="M4265 5718 c-107 -11 -119 -16 -123 -54 -3 -23 5 -36 47 -75 53 -49
61 -72 42 -122 -12 -32 -54 -43 -84 -22 -27 19 -37 19 -37 1 0 -7 11 -21 25
-30 61 -40 125 -1 133 83 l5 52 -52 48 c-66 61 -66 78 -3 80 87 4 227 26 227
36 0 13 -69 14 -180 3z"/>
<path d="M3879 5703 c-1 -5 -1 -31 1 -59 l2 -51 -46 -7 c-37 -6 -46 -11 -46
-28 0 -15 4 -18 18 -13 9 3 30 9 46 12 l29 6 -5 -76 c-3 -43 -2 -77 2 -77 19
0 30 31 30 87 0 59 1 63 23 63 13 0 29 6 36 13 11 10 13 10 7 0 -5 -9 2 -13
24 -13 56 0 28 25 -31 28 l-55 3 1 47 c0 46 -9 72 -26 72 -5 0 -10 -3 -10 -7z"/>
<path d="M3078 5669 c-22 -12 -24 -49 -3 -49 8 0 15 5 15 10 0 6 11 10 23 10
27 0 57 -28 57 -54 0 -45 -82 -126 -127 -126 -14 0 -23 -6 -23 -15 0 -28 29
-28 75 0 41 24 47 25 61 11 24 -25 167 -17 164 9 0 6 -28 9 -69 7 -38 -2 -71
0 -75 6 -9 14 30 82 64 110 31 26 40 52 17 52 -8 0 -22 -9 -32 -20 l-19 -21
-13 24 c-7 14 -28 32 -47 41 -39 19 -45 19 -68 5z"/>
<path d="M8585 5663 c-11 -3 -26 -10 -33 -16 -22 -18 2 -27 43 -16 22 6 68 9
103 6 55 -4 63 -3 60 12 -3 13 -17 16 -78 18 -41 0 -84 -1 -95 -4z"/>
<path d="M5485 5644 c-27 -8 -102 -17 -165 -19 -85 -3 -115 -8 -115 -17 0 -20
212 -15 297 7 37 9 72 13 79 10 7 -5 10 -1 7 11 -4 24 -37 26 -103 8z"/>
<path d="M7255 5519 c-11 -17 3 -23 58 -21 l52 2 -35 -30 c-19 -17 -40 -30
-48 -30 -7 0 -12 -8 -10 -17 2 -13 19 -21 59 -29 74 -15 82 -20 68 -45 -9 -18
-63 -48 -112 -63 -10 -3 -17 -12 -14 -19 12 -33 126 21 156 75 14 24 14 28 -3
47 -10 11 -34 23 -52 27 -19 3 -34 9 -34 12 0 2 17 19 37 37 55 47 42 65 -46
65 -39 0 -73 -5 -76 -11z"/>
<path d="M7690 5115 c0 -9 12 -20 28 -26 37 -14 70 -47 95 -94 40 -78 32 -256
-15 -349 -24 -47 -107 -138 -119 -130 -5 3 -9 -2 -9 -10 0 -60 134 66 170 160
34 89 39 240 11 314 -24 62 -54 100 -103 130 -39 24 -58 25 -58 5z"/>
<path d="M3265 5110 c-8 -13 3 -30 20 -30 27 0 65 -23 65 -39 -1 -9 -19 -36
-40 -61 -53 -60 -36 -79 21 -25 39 38 41 38 36 14 -11 -44 13 -63 79 -64 37 0
59 4 61 13 3 8 -8 12 -39 12 -52 0 -65 8 -69 40 -4 25 16 55 70 107 22 21 22
23 5 30 -13 5 -26 -3 -49 -30 -29 -34 -32 -35 -43 -17 -20 32 -105 69 -117 50z"/>
<path d="M7120 4952 c-13 -20 -23 -40 -22 -44 1 -5 -2 -8 -8 -8 -18 0 -59 -74
-70 -127 -14 -66 1 -126 41 -164 36 -34 176 -119 195 -119 8 0 14 7 14 15 0 8
-4 15 -9 15 -15 0 -142 80 -174 109 -62 57 -54 152 21 254 26 34 50 64 54 65
13 6 9 42 -4 42 -7 0 -24 -17 -38 -38z"/>
<path d="M7340 4914 c0 -20 4 -24 19 -19 26 8 34 -28 12 -54 -9 -12 -24 -32
-34 -46 -16 -22 -21 -24 -34 -13 -12 10 -18 9 -29 -7 -18 -25 -18 -34 3 -42 9
-4 33 3 55 16 l38 22 11 -25 c6 -13 23 -29 38 -36 37 -18 147 -25 155 -11 4 6
0 14 -8 17 -9 3 -13 10 -10 15 7 12 -13 11 -34 -2 -24 -15 -98 5 -112 30 -12
24 10 71 50 105 17 14 30 29 30 35 0 16 -32 13 -58 -5 -18 -12 -22 -13 -22 -1
0 18 -32 47 -53 47 -12 0 -17 -8 -17 -26z"/>
<path d="M5847 4913 c-3 -5 -5 -29 -5 -54 0 -26 -8 -91 -17 -145 -17 -103 -17
-211 0 -207 6 2 13 38 17 80 3 43 13 119 22 168 9 50 16 102 16 116 0 27 -24
57 -33 42z"/>
<path d="M4158 4832 c-43 -32 -85 -64 -94 -73 -23 -24 -10 -52 39 -85 23 -16
60 -43 83 -61 40 -32 64 -41 64 -25 0 12 -43 51 -103 92 -28 20 -53 43 -55 51
-2 10 29 37 83 72 47 32 85 64 85 72 0 25 -21 16 -102 -43z"/>
<path d="M4504 4876 c-4 -10 9 -32 36 -63 l42 -48 -33 -3 c-19 -1 -75 -9 -125
-17 -50 -8 -108 -15 -129 -15 -25 0 -35 -4 -33 -12 7 -20 51 -21 159 -4 115
18 165 20 174 6 3 -5 13 -10 22 -10 11 0 14 7 11 24 l-5 24 43 -26 42 -26 -54
-22 c-71 -29 -120 -67 -128 -100 -11 -43 9 -49 32 -10 24 41 66 69 137 92 50
17 68 31 59 46 -3 4 -37 27 -77 50 -39 23 -93 62 -119 86 -38 36 -49 41 -54
28z"/>
<path d="M2920 4758 c-18 -13 -42 -41 -53 -62 -18 -35 -19 -41 -6 -65 19 -34
68 -40 115 -12 l34 20 0 -25 c0 -14 11 -36 27 -50 23 -22 34 -25 76 -20 57 5
59 7 46 26 -8 13 -11 13 -22 -1 -11 -14 -16 -14 -52 5 -33 17 -41 27 -43 54
-2 21 4 41 17 58 24 30 28 74 7 74 -7 0 -24 -20 -37 -44 -25 -48 -79 -86 -121
-86 -22 0 -24 4 -20 30 6 40 66 94 97 86 27 -7 39 3 24 21 -17 19 -52 16 -89
-9z"/>
<path d="M6324 4725 c-3 -14 -4 -38 -2 -54 4 -26 1 -30 -29 -34 -35 -6 -63 0
-63 13 0 15 42 60 56 60 8 0 14 7 14 15 0 27 -37 16 -69 -20 -57 -65 -32 -111
55 -101 l52 6 16 -47 c22 -65 21 -70 -22 -77 -80 -12 -115 -70 -93 -153 16
-58 46 -93 81 -93 25 0 32 7 54 53 14 28 28 74 32 100 6 45 8 48 30 43 33 -9
32 21 -1 34 -14 5 -27 15 -29 22 -39 136 -39 138 -28 163 9 20 9 33 -3 60 -16
41 -42 46 -51 10z m52 -317 c-8 -57 -39 -138 -54 -138 -31 0 -67 85 -56 133 6
31 48 56 93 57 23 0 23 -2 17 -52z"/>
<path d="M5950 4715 c0 -9 6 -18 13 -20 8 -4 11 -20 9 -49 -5 -63 10 -86 56
-86 44 0 102 33 102 58 0 26 -27 60 -71 87 -45 29 -109 34 -109 10z m118 -60
c31 -29 35 -36 22 -45 -22 -15 -58 -23 -75 -16 -23 9 -18 96 6 96 5 0 26 -16
47 -35z"/>
<path d="M6560 4688 c-19 -13 -44 -40 -55 -61 -28 -52 -14 -71 55 -75 43 -3
58 -9 82 -32 44 -44 142 -66 167 -37 14 18 3 28 -24 21 -30 -8 -98 12 -118 34
-13 14 -15 25 -8 50 7 23 6 34 -5 43 -12 9 -16 6 -25 -20 -10 -28 -15 -31 -53
-31 -53 0 -59 6 -40 41 17 33 63 60 96 56 15 -1 23 3 23 13 0 25 -56 24 -95
-2z"/>
<path d="M3170 4581 c0 -6 5 -13 10 -16 6 -3 10 1 10 9 0 9 -4 16 -10 16 -5 0
-10 -4 -10 -9z"/>
<path d="M5807 4193 c-4 -3 -7 -13 -7 -21 0 -10 7 -12 26 -8 31 8 74 -16 74
-41 0 -20 -38 -102 -58 -125 -8 -10 -23 -18 -34 -18 -22 0 -23 -13 -3 -30 11
-9 19 -8 37 4 20 14 24 14 41 -2 30 -27 119 -23 152 8 29 27 32 43 8 38 -10
-2 -16 -11 -15 -19 2 -8 1 -11 -3 -7 -4 3 -21 2 -38 -3 -39 -11 -83 -3 -91 17
-3 9 3 27 14 41 11 14 20 34 20 44 0 11 11 29 25 41 32 28 32 42 0 36 -14 -3
-30 1 -36 8 -6 8 -16 11 -22 7 -6 -3 -7 -1 -3 5 13 21 -68 45 -87 25z"/>
<path d="M8346 4152 c-43 -59 -90 -175 -121 -295 -21 -85 -24 -91 -66 -118
-23 -16 -64 -37 -91 -47 -44 -15 -60 -33 -40 -46 9 -6 103 37 144 65 14 11 28
19 31 19 2 0 7 -18 11 -39 8 -50 65 -114 97 -109 33 5 34 25 1 31 -34 7 -58
40 -71 96 -9 40 -8 42 37 81 25 22 56 55 69 72 36 49 64 152 65 239 1 115 -11
125 -66 51z m32 -90 c-7 -98 -35 -165 -94 -223 -24 -24 -44 -41 -44 -38 0 13
50 169 70 219 23 58 58 120 67 120 3 0 3 -35 1 -78z"/>
<path d="M9258 4195 c-3 -3 19 -31 48 -61 78 -81 99 -140 98 -279 0 -102 -2
-116 -33 -187 -29 -69 -92 -167 -152 -237 -24 -28 -13 -46 21 -33 26 10 114
155 162 267 25 57 31 88 35 170 5 89 3 108 -20 172 -37 109 -130 217 -159 188z"/>
<path d="M10957 4158 c-65 -88 -177 -350 -177 -416 0 -28 -60 -72 -118 -87
-28 -7 -47 -18 -47 -26 0 -20 50 -12 108 16 l47 24 0 -42 c0 -77 58 -147 111
-134 39 10 63 32 56 51 -6 16 -9 16 -33 -3 -34 -27 -45 -26 -74 4 -18 19 -25
40 -28 84 l-4 59 69 68 c38 38 80 90 92 116 36 75 63 256 45 302 -9 24 -20 20
-47 -16z m18 -95 c-4 -38 -16 -96 -26 -130 -20 -62 -81 -153 -118 -173 -20
-10 -20 -9 -5 42 35 118 131 328 150 328 3 0 2 -30 -1 -67z"/>
<path d="M12112 4128 c-51 -75 -112 -252 -112 -324 0 -48 35 -150 64 -189 29
-38 119 -77 155 -68 34 9 19 27 -29 35 -50 9 -77 32 -122 102 -29 44 -32 57
-32 120 1 73 29 172 77 265 23 46 47 64 47 37 0 -17 15 -22 24 -7 3 5 3 23 0
40 -9 44 -37 40 -72 -11z"/>
<path d="M3693 4106 c-57 -62 -114 -175 -148 -294 -55 -186 -18 -275 153 -372
41 -23 78 -40 84 -38 20 7 18 38 -2 38 -28 0 -141 67 -177 105 -77 81 -66 217
34 420 45 92 82 140 96 126 6 -6 15 -11 19 -11 11 0 10 68 -1 74 -5 3 -31 -18
-58 -48z"/>
<path d="M12650 4151 c0 -5 23 -24 51 -41 60 -39 115 -108 130 -163 26 -97
-40 -261 -138 -341 -38 -32 -64 -46 -85 -46 -45 0 -29 -24 19 -28 36 -3 47 3
100 46 44 37 68 67 92 116 18 37 35 79 37 94 21 139 14 185 -39 254 -55 72
-167 145 -167 109z"/>
<path d="M4167 4133 c-12 -11 -8 -23 7 -23 8 0 16 -4 18 -8 2 -5 32 -31 67
-57 100 -76 125 -133 97 -227 -21 -72 -83 -163 -177 -261 -44 -45 -79 -85 -79
-89 0 -5 8 -8 18 -8 22 0 131 118 194 210 50 74 88 165 88 208 -1 37 -24 99
-47 124 -26 29 -161 138 -171 138 -5 0 -12 -3 -15 -7z"/>
<path d="M8792 4063 c-47 -47 -65 -74 -92 -143 -31 -77 -34 -94 -34 -190 -1
-89 3 -111 21 -146 41 -77 140 -141 149 -96 1 7 0 8 -2 3 -4 -7 -10 -7 -17 -1
-7 5 -27 22 -45 36 -48 39 -73 95 -79 180 -10 125 56 294 139 358 19 14 40 26
47 26 18 0 7 24 -12 28 -10 2 -41 -20 -75 -55z"/>
<path d="M7197 3974 c-10 -10 4 -34 21 -34 26 0 212 -132 212 -150 0 -8 -233
-126 -284 -143 -54 -18 -62 -42 -13 -34 38 6 289 128 320 155 34 30 21 45
-133 149 -76 52 -112 68 -123 57z"/>
<path d="M12442 3936 c-29 -33 -31 -34 -47 -16 -31 35 -125 37 -125 3 0 -11 6
-14 21 -10 12 3 35 3 50 0 23 -4 29 -11 29 -33 0 -31 -55 -91 -101 -110 -32
-14 -38 -34 -13 -44 18 -7 45 6 96 46 l36 28 29 -29 c35 -34 113 -52 138 -31
21 17 12 23 -38 25 -55 3 -85 19 -93 51 -8 30 21 89 54 111 12 9 22 22 22 29
0 25 -27 15 -58 -20z"/>
<path d="M6719 3946 c-10 -45 -21 -62 -55 -86 -130 -92 -140 -103 -130 -143 5
-20 22 -34 64 -56 31 -15 70 -31 86 -35 17 -4 42 -16 57 -27 18 -13 30 -16 34
-9 12 20 -27 49 -95 71 -78 24 -126 58 -117 82 3 9 38 37 76 62 74 49 115 94
109 122 -3 16 -27 31 -29 19z"/>
<path d="M3810 3931 c0 -5 18 -27 40 -49 61 -60 50 -102 -37 -146 -32 -16 -33
-16 -33 4 0 11 -7 20 -15 20 -15 0 -20 -26 -9 -54 3 -9 13 -16 20 -16 21 0 88
35 104 54 12 15 14 15 26 -3 15 -21 101 -57 149 -63 58 -6 39 17 -33 40 -93
30 -110 52 -86 111 9 23 29 52 45 65 32 27 37 46 14 46 -17 0 -75 -57 -75 -74
0 -5 -19 9 -43 32 -40 40 -67 53 -67 33z"/>
<path d="M4855 3925 c-5 -2 -45 -7 -88 -10 -66 -6 -78 -9 -74 -23 2 -10 8 -16
14 -15 69 13 274 25 299 16 30 -10 54 -7 54 7 0 22 -159 41 -205 25z"/>
<path d="M3208 3905 c-14 -8 -37 -37 -51 -65 -22 -43 -26 -47 -31 -27 -4 17
-8 19 -18 9 -9 -9 -9 -28 2 -89 8 -43 13 -91 12 -108 -2 -43 17 -168 28 -179
4 -4 14 2 20 15 12 22 10 84 -6 172 -7 36 -6 37 25 37 77 0 146 72 146 153 0
41 -4 53 -28 73 -32 27 -60 30 -99 9z m76 -31 c25 -25 29 -59 11 -98 -31 -66
-126 -101 -133 -49 -5 38 19 105 48 135 32 32 52 35 74 12z"/>
<path d="M8897 3883 c-15 -14 -7 -35 12 -30 28 7 51 -11 51 -42 0 -35 -49 -83
-113 -111 -27 -12 -46 -27 -44 -33 7 -21 48 -8 109 33 57 40 58 40 58 16 0
-38 43 -66 101 -66 57 0 79 7 79 26 0 11 -11 13 -53 8 -65 -8 -97 6 -97 42 0
29 24 80 53 111 19 21 19 23 3 29 -13 5 -25 -2 -40 -21 l-23 -29 -6 26 c-9 33
-70 61 -90 41z"/>
<path d="M2647 3855 c-39 -27 -67 -70 -67 -105 0 -19 -4 -21 -31 -15 -26 6
-30 4 -27 -12 2 -11 13 -19 30 -21 18 -2 30 -12 38 -33 7 -16 27 -37 43 -46
37 -18 137 -19 175 0 26 13 28 34 2 30 -8 -2 -47 -6 -86 -9 -69 -6 -71 -6 -92
21 -12 15 -22 31 -22 35 0 4 24 19 53 33 92 45 121 92 81 131 -22 23 -54 20
-97 -9z m80 -22 c4 -11 -3 -24 -23 -39 -33 -27 -82 -49 -90 -41 -10 10 22 58
52 77 37 23 53 24 61 3z"/>
<path d="M5642 3853 c-34 -16 -82 -70 -82 -91 0 -7 -9 -12 -19 -12 -26 0 -37
-18 -17 -26 12 -5 16 -20 16 -59 0 -46 4 -56 28 -75 35 -29 95 -23 185 18 62
28 79 43 83 70 3 15 -12 16 -22 1 -9 -16 -122 -66 -166 -74 -55 -10 -78 7 -78
58 0 23 4 47 8 52 4 6 33 23 65 39 63 32 82 55 73 92 -7 28 -28 30 -74 7z m46
-25 c-5 -15 -66 -58 -82 -58 -14 1 60 70 75 70 6 0 9 -6 7 -12z"/>
<path d="M9980 3848 c-41 -5 -112 -7 -157 -5 -64 3 -83 0 -83 -10 0 -21 47
-26 179 -18 69 4 140 8 156 9 19 1 30 6 30 16 0 19 -28 21 -125 8z"/>
<path d="M8456 3835 c-11 -8 -27 -26 -36 -40 l-17 -26 -7 31 c-3 18 -11 30
-17 28 -14 -5 -17 -201 -3 -207 5 -2 17 21 27 50 18 51 70 129 88 129 5 0 6
-41 3 -92 -5 -75 -3 -97 9 -113 12 -16 18 -17 28 -8 10 10 9 15 0 27 -10 12
-11 39 -6 105 6 82 5 91 -14 110 -25 25 -30 25 -55 6z"/>
<path d="M2880 3829 c0 -7 9 -27 21 -45 l21 -34 -36 -42 c-39 -45 -42 -53 -25
-63 6 -4 26 11 45 34 l36 41 50 -60 c27 -33 56 -60 64 -60 22 0 17 11 -37 75
l-50 60 48 42 c38 33 45 45 36 54 -9 9 -21 4 -53 -24 -22 -21 -44 -37 -48 -37
-5 0 -17 16 -28 35 -18 33 -44 48 -44 24z"/>
<path d="M4694 3819 c-3 -6 -3 -13 0 -16 3 -4 68 -8 143 -10 76 -2 151 -8 167
-14 39 -12 46 -11 46 5 0 8 -15 19 -32 24 -49 15 -316 24 -324 11z"/>
<path d="M7005 3815 c-60 -7 -146 -17 -190 -22 -61 -6 -80 -12 -80 -23 0 -9 8
-14 20 -13 226 26 446 43 474 38 20 -4 43 -13 52 -21 22 -20 40 2 28 34 -8 21
-13 22 -101 21 -51 -1 -142 -7 -203 -14z"/>
<path d="M11230 3775 c-31 -33 -39 -114 -16 -150 18 -27 53 -33 88 -14 11 6
21 9 23 7 3 -2 7 -40 11 -85 l7 -82 -34 -14 c-89 -37 -99 -114 -23 -164 26
-16 27 -16 45 5 10 13 21 48 25 78 l7 56 43 -6 c25 -3 46 -1 49 5 11 17 -16
39 -50 39 l-32 0 -6 83 c-7 85 -31 224 -40 234 -16 15 -27 -12 -22 -51 5 -33
3 -47 -14 -66 -16 -21 -23 -23 -38 -14 -13 9 -18 24 -17 59 0 40 5 52 27 70
26 20 27 35 2 35 -6 0 -22 -11 -35 -25z m95 -424 c-7 -45 -22 -61 -36 -40 -15
25 -10 57 13 73 28 20 31 16 23 -33z"/>
<path d="M9970 3769 c-47 -5 -112 -11 -145 -13 -63 -4 -84 -21 -39 -32 23 -6
66 -2 263 21 18 2 49 -2 67 -10 38 -16 56 -3 32 22 -20 19 -74 23 -178 12z"/>
<path d="M11006 3749 c-59 -46 -73 -123 -31 -164 37 -38 80 -33 122 12 31 32
34 42 30 74 -7 50 -42 99 -71 99 -13 0 -35 -9 -50 -21z m66 -46 c34 -33 35
-52 3 -87 -53 -58 -121 -4 -84 67 29 54 42 57 81 20z"/>
<path d="M11641 3679 c-35 -21 -69 -70 -78 -113 -3 -16 -14 -31 -25 -33 -24
-7 -23 -33 2 -33 11 0 20 -4 20 -10 0 -5 9 -19 20 -30 36 -36 177 -20 204 22
15 25 1 32 -28 13 -37 -24 -138 -32 -155 -12 -11 14 -7 19 27 36 66 33 101 92
88 145 -8 32 -38 38 -75 15z m49 -40 c0 -22 -69 -99 -89 -99 -39 0 37 119 77
120 6 0 12 -10 12 -21z"/>
<path d="M4664 3628 c-14 -22 49 -29 237 -27 187 3 226 7 198 25 -15 9 -430
11 -435 2z"/>
<path d="M10080 3633 c-19 -2 -69 -11 -110 -19 -41 -9 -117 -19 -169 -23 -62
-4 -96 -10 -99 -18 -6 -20 131 -16 246 6 55 11 136 23 181 26 58 6 81 11 81
21 0 14 -43 16 -130 7z"/>
<path d="M14354 3306 c-3 -9 8 -30 29 -53 86 -93 108 -121 129 -160 22 -41 22
-42 5 -96 -10 -30 -39 -88 -66 -129 -48 -72 -151 -182 -151 -161 0 14 -28 25
-42 17 -5 -3 -1 -14 11 -25 12 -11 21 -24 21 -29 0 -41 127 67 192 162 77 114
95 188 64 261 -12 30 -154 209 -177 222 -5 4 -12 -1 -15 -9z"/>
<path d="M4424 3296 c-61 -27 -115 -122 -154 -271 -32 -125 1 -234 93 -308 49
-39 103 -72 135 -82 38 -11 26 19 -15 39 -70 33 -134 88 -163 140 -43 74 -42
153 4 281 19 53 46 112 61 131 29 37 68 53 89 35 20 -16 30 3 16 29 -12 23
-23 24 -66 6z"/>
<path d="M4910 3304 c0 -3 27 -40 60 -81 109 -136 123 -191 71 -298 -32 -69
-108 -168 -121 -160 -14 8 -24 -15 -11 -28 26 -26 93 46 157 172 19 37 29 73
32 115 3 56 1 66 -35 125 -54 88 -115 160 -135 161 -10 0 -18 -3 -18 -6z"/>
<path d="M10377 3293 c-12 -11 -8 -34 6 -31 52 10 118 -53 143 -139 43 -148
-34 -395 -139 -447 -31 -15 -84 -23 -171 -26 -5 0 -2 -7 5 -16 11 -14 26 -15
82 -10 38 3 81 13 95 20 86 45 158 196 169 353 9 133 -38 242 -121 283 -45 21
-59 24 -69 13z"/>
<path d="M8961 3213 c1 -79 17 -141 41 -157 27 -17 34 2 13 37 -14 23 -20 53
-21 107 -1 60 -5 76 -18 78 -14 3 -16 -7 -15 -65z"/>
<path d="M13875 3260 c-79 -41 -196 -200 -227 -308 -42 -148 13 -253 162 -309
72 -27 90 -28 90 -9 0 7 -20 19 -45 26 -58 16 -131 73 -156 122 -26 51 -24
118 6 203 49 138 156 259 228 257 21 0 27 3 25 16 -5 25 -37 25 -83 2z"/>
<path d="M9854 3240 c-28 -16 -75 -55 -103 -87 -53 -59 -124 -192 -135 -251
-9 -53 11 -125 47 -162 32 -33 135 -90 162 -90 32 0 12 20 -50 51 -141 70
-163 147 -89 303 32 68 108 160 163 197 54 35 61 36 61 4 0 -16 6 -25 15 -25
19 0 21 60 3 78 -16 16 -15 16 -74 -18z"/>
<path d="M13045 3195 c-3 -8 -7 -22 -10 -31 -6 -17 11 -44 26 -44 5 0 9 20 9
45 0 43 -15 61 -25 30z"/>
<path d="M3820 3175 c0 -14 7 -28 15 -32 22 -8 28 2 21 32 -8 33 -36 33 -36 0z"/>
<path d="M8435 3153 c8 -35 8 -35 40 -31 l27 3 -22 28 c-29 37 -55 37 -45 0z"/>
<path d="M6620 3139 c0 -6 18 -31 40 -55 22 -24 40 -48 40 -53 0 -5 -12 -12
-27 -15 -39 -9 -217 -25 -345 -33 -86 -5 -108 -9 -108 -21 0 -12 17 -13 108
-9 59 2 167 10 241 17 109 11 138 11 154 0 18 -11 24 -9 43 14 25 29 51 33 78
13 17 -13 16 -15 -18 -35 -21 -12 -42 -22 -47 -22 -14 0 -146 -78 -155 -91 -3
-6 -3 -13 0 -16 9 -9 232 106 256 132 32 34 23 58 -26 66 -100 18 -125 29
-140 64 -16 39 -18 40 -61 50 -23 4 -33 3 -33 -6z"/>
<path d="M8736 3142 c-9 -2 -16 -10 -16 -17 0 -10 22 -14 83 -17 91 -4 110 -1
104 16 -3 11 -137 25 -171 18z"/>
<path d="M6085 3071 c-113 -30 -125 -36 -125 -58 0 -25 75 -90 143 -124 34
-17 72 -40 84 -52 21 -19 23 -19 29 -2 9 21 -7 34 -91 77 -73 38 -125 76 -125
93 0 8 36 21 98 35 53 13 103 24 110 26 19 5 14 34 -5 33 -10 0 -63 -13 -118
-28z"/>
<path d="M4557 3083 c-10 -9 -9 -43 1 -43 4 0 12 4 18 10 16 16 74 -26 74 -53
0 -37 -74 -97 -119 -97 -26 0 -27 -15 -3 -29 13 -7 30 -3 71 21 46 25 55 28
63 15 18 -33 133 -52 163 -27 26 21 17 25 -50 25 -48 0 -69 4 -82 17 -16 17
-16 20 0 52 9 19 28 43 42 52 24 16 35 44 16 44 -5 0 -23 -12 -40 -26 -27 -22
-32 -24 -37 -9 -7 17 -74 55 -97 55 -7 0 -17 -3 -20 -7z"/>
<path d="M13972 3073 c2 -11 11 -17 23 -16 26 4 41 -7 49 -33 8 -26 -36 -84
-64 -84 -24 0 -37 -20 -20 -30 16 -10 35 -4 73 23 25 17 29 18 40 4 16 -22 61
-37 107 -37 44 0 59 15 37 37 -12 12 -18 12 -34 2 -23 -14 -71 -2 -86 23 -13
20 -1 65 23 86 11 9 20 20 20 24 0 16 -40 8 -51 -10 -11 -18 -13 -17 -35 5
-29 29 -87 33 -82 6z"/>
<path d="M3542 3040 c-46 -28 -51 -48 -18 -77 15 -12 36 -23 46 -23 10 0 31
-5 46 -10 24 -9 25 -13 13 -24 -27 -27 -121 -69 -150 -68 -23 1 -29 -3 -27
-16 5 -25 58 -19 121 13 119 62 135 91 67 119 -22 9 -48 16 -58 16 -10 0 -27
6 -37 14 -18 13 -17 14 14 30 21 12 43 15 63 11 25 -6 29 -4 26 12 -5 27 -64
29 -106 3z"/>
<path d="M9924 3049 c-9 -15 5 -24 59 -39 27 -7 51 -19 54 -27 7 -18 -40 -68
-79 -84 -23 -9 -34 -9 -53 1 -37 20 -44 2 -12 -26 27 -23 30 -23 63 -9 19 8
49 25 65 38 l30 24 34 -34 c29 -29 39 -33 87 -33 49 0 78 12 78 31 0 4 -25 5
-55 2 -41 -4 -61 -2 -80 11 -48 31 -41 97 12 117 21 8 23 12 13 24 -17 21 -27
19 -52 -10 -15 -17 -25 -22 -37 -16 -38 20 -121 39 -127 30z"/>
<path d="M12747 3034 c-59 -32 -53 -79 18 -151 71 -71 60 -86 -53 -67 -30 5
-32 3 -23 -14 14 -26 97 -36 129 -16 35 23 28 56 -28 117 -63 69 -64 98 -5
109 23 4 27 32 5 35 -8 1 -28 -4 -43 -13z"/>
<path d="M8163 3025 c-18 -8 -33 -20 -33 -28 0 -8 25 -37 55 -65 30 -28 55
-58 55 -66 0 -24 -71 -41 -111 -27 -38 13 -58 1 -33 -20 25 -20 114 -18 147 4
43 28 36 62 -24 120 -28 27 -49 50 -47 52 2 2 23 7 46 11 28 4 42 3 42 -5 0
-6 6 -11 14 -11 15 0 16 16 3 38 -11 16 -74 15 -114 -3z"/>
<path d="M11014 3020 c-74 -11 -124 -29 -124 -46 0 -17 3 -17 64 1 69 21 159
22 190 1 15 -10 27 -12 31 -6 9 15 -4 31 -41 46 -36 15 -43 15 -120 4z"/>
<path d="M13188 3010 c-35 -19 -89 -86 -102 -128 -9 -27 15 -41 28 -17 23 39
100 115 117 115 28 0 50 -42 55 -107 8 -94 12 -103 39 -103 26 0 41 15 25 25
-5 3 -10 21 -10 38 0 75 -35 164 -71 182 -35 18 -36 18 -81 -5z"/>
<path d="M3932 3003 c-27 -23 -67 -122 -53 -136 15 -15 28 0 35 38 8 42 30 65
62 65 35 0 64 -34 64 -74 0 -32 24 -66 37 -52 11 10 11 59 2 92 -20 66 -103
104 -147 67z"/>
<path d="M8521 3006 c-16 -19 -21 -124 -6 -128 5 -2 13 20 18 47 10 62 17 69
51 54 39 -18 66 -68 66 -122 0 -76 37 -75 47 0 6 43 -19 103 -56 137 -28 26
-103 33 -120 12z"/>
<path d="M12147 2993 c-23 -26 -55 -114 -63 -172 -5 -42 -4 -51 9 -51 10 0 18
18 26 62 10 61 46 128 67 128 7 0 24 -16 39 -36 40 -52 55 -29 18 27 -41 65
-65 75 -96 42z"/>
<path d="M12400 2993 c-37 -15 -101 -67 -115 -93 -17 -33 -7 -73 22 -89 36
-19 187 -51 196 -42 13 13 -14 25 -100 46 -80 19 -98 33 -89 69 8 33 98 90
127 81 17 -6 20 -3 17 12 -3 18 -31 26 -58 16z"/>
<path d="M3746 2972 c-3 -4 -2 -39 2 -78 5 -52 11 -69 22 -69 12 0 14 12 12
60 -2 33 -6 68 -8 78 -6 18 -19 23 -28 9z"/>
<path d="M11898 2970 c-68 -20 -122 -85 -116 -138 3 -24 8 -27 46 -30 34 -3
56 4 98 27 l54 31 0 -50 c0 -37 4 -52 16 -57 20 -8 44 15 27 25 -8 5 -12 32
-11 75 1 82 -13 104 -38 60 -24 -41 -74 -74 -123 -80 -34 -5 -41 -3 -41 12 0
9 18 35 40 57 36 36 43 40 75 34 37 -7 48 7 23 32 -13 13 -13 13 -50 2z"/>
<path d="M8367 2963 c-4 -3 0 -15 9 -24 12 -14 15 -30 11 -59 -4 -35 -3 -41
11 -38 21 4 29 77 12 108 -11 20 -31 26 -43 13z"/>
<path d="M12987 2953 c-3 -5 -6 -26 -7 -48 0 -22 -2 -53 -3 -69 -3 -40 19 -44
27 -5 14 74 3 155 -17 122z"/>
<path d="M11010 2889 c-25 -3 -62 -4 -82 -1 -31 4 -38 1 -38 -12 0 -11 9 -16
28 -17 185 -5 232 -3 232 8 0 20 -74 32 -140 22z"/>
<path d="M11055 2759 c-16 -5 -72 -10 -122 -11 -62 -2 -93 -7 -93 -14 0 -21
44 -24 178 -12 109 10 132 15 132 28 0 18 -46 23 -95 9z"/>
<path d="M14595 2420 c-3 -5 9 -22 27 -37 89 -78 106 -95 136 -146 19 -31 40
-81 48 -112 13 -51 13 -62 -1 -112 -17 -57 -60 -107 -205 -240 -66 -60 -84
-83 -72 -95 16 -16 54 16 167 137 153 164 175 219 135 342 -27 82 -71 145
-153 218 -65 57 -72 61 -82 45z"/>
<path d="M4420 2396 c-90 -61 -190 -277 -190 -412 0 -85 25 -150 79 -204 26
-26 62 -55 79 -64 39 -20 126 -38 147 -29 23 8 13 27 -16 30 -32 2 -169 61
-193 82 -57 51 -80 171 -52 281 33 134 137 300 187 300 24 0 35 20 18 31 -19
12 -20 12 -59 -15z"/>
<path d="M4950 2406 c0 -8 11 -17 24 -20 34 -8 124 -92 146 -137 29 -56 26
-124 -11 -216 -27 -68 -113 -223 -124 -223 -3 0 -12 14 -21 31 -11 22 -19 28
-26 21 -13 -13 5 -64 29 -83 22 -19 62 29 121 141 123 234 113 334 -46 459
-58 45 -92 55 -92 27z"/>
<path d="M9174 2386 c-9 -23 13 -162 31 -197 9 -16 22 -29 30 -29 19 0 19 19
0 44 -14 19 -24 66 -28 145 -3 45 -22 66 -33 37z"/>
<path d="M9638 2368 c-83 -63 -155 -259 -144 -393 8 -108 30 -158 89 -211 85
-75 172 -107 172 -64 0 9 -7 14 -17 12 -27 -4 -90 32 -139 80 -97 94 -101 270
-10 464 27 59 72 104 103 104 20 0 28 9 21 26 -8 22 -28 17 -75 -18z"/>
<path d="M10115 2370 c-8 -13 55 -71 68 -63 6 3 7 1 3 -5 -3 -6 10 -23 29 -38
79 -60 94 -145 44 -240 -37 -69 -136 -219 -156 -235 -18 -16 -16 -29 5 -29 22
0 123 143 176 249 65 128 49 190 -77 304 -42 37 -78 67 -81 67 -2 0 -8 -5 -11
-10z"/>
<path d="M13900 2346 c-65 -48 -98 -89 -144 -186 -37 -78 -41 -92 -41 -165 0
-115 31 -191 110 -270 49 -49 70 -63 112 -74 29 -7 57 -10 63 -6 18 11 11 25
-13 25 -32 0 -124 66 -163 117 -45 59 -88 193 -81 248 7 49 47 140 89 202 32
47 121 120 126 104 7 -22 33 -11 30 12 -5 34 -37 31 -88 -7z"/>
<path d="M8903 2293 c-13 -2 -23 -11 -23 -19 0 -12 13 -13 70 -8 47 5 79 3
100 -6 35 -15 44 -10 35 19 -6 19 -14 21 -83 20 -42 -1 -87 -4 -99 -6z"/>
<path d="M6260 2229 c-30 -22 -81 -53 -112 -70 -81 -41 -78 -75 14 -133 42
-27 129 -47 145 -34 18 15 -4 41 -29 35 -10 -3 -33 -1 -50 4 -35 10 -108 57
-108 70 0 5 19 18 43 30 23 12 68 39 99 60 31 22 62 39 67 39 6 0 11 9 11 20
0 29 -18 24 -80 -21z"/>
<path d="M6806 2263 c-16 -16 -2 -47 42 -92 l47 -49 -195 -7 c-309 -10 -433
-19 -437 -31 -5 -15 42 -35 54 -23 9 9 532 33 595 26 21 -2 41 -7 45 -10 8 -9
-36 -57 -53 -57 -21 0 -84 -66 -84 -89 0 -32 14 -26 77 32 122 112 122 110 68
151 -19 15 -35 33 -35 39 0 33 -106 128 -124 110z"/>
<path d="M14140 2208 c-29 -16 -40 -58 -16 -58 9 0 16 6 16 14 0 17 53 28 84
17 79 -31 -10 -161 -101 -147 -22 3 -33 0 -37 -10 -13 -33 87 -30 133 4 35 26
71 80 71 108 0 59 -91 103 -150 72z"/>
<path d="M14347 2150 c-71 -45 -82 -97 -27 -125 33 -17 165 -39 180 -30 23 14
7 24 -47 30 -76 9 -123 24 -130 42 -8 19 33 60 74 74 19 6 32 16 30 22 -7 22
-32 18 -80 -13z"/>
<path d="M4555 2161 c-7 -12 1 -17 41 -25 38 -8 76 -42 72 -63 -4 -21 -46 -51
-94 -68 -43 -14 -65 -52 -22 -40 112 33 161 79 142 133 -15 44 -121 92 -139
63z"/>
<path d="M4753 2105 c-39 -38 -44 -49 -39 -72 11 -42 37 -63 92 -71 55 -9 95
-3 102 16 2 8 -12 12 -50 13 -29 1 -64 4 -78 8 -50 14 -31 84 30 116 17 9 28
20 25 25 -12 20 -39 9 -82 -35z"/>
<path d="M9791 2135 c3 -12 14 -19 33 -20 28 -1 56 -27 56 -53 0 -27 -21 -52
-65 -78 -39 -23 -61 -54 -37 -54 16 0 100 58 114 79 l15 21 10 -23 c13 -28 94
-73 116 -64 28 10 19 25 -19 36 -20 6 -45 18 -55 27 -20 18 -26 69 -9 79 16
10 12 35 -6 35 -9 0 -18 -9 -21 -21 -5 -19 -7 -18 -32 11 -32 38 -106 56 -100
25z"/>
<path d="M10857 2139 c-89 -10 -103 -15 -88 -33 9 -11 20 -12 44 -5 18 6 81 9
141 7 77 -2 111 1 113 9 7 21 -108 33 -210 22z"/>
<path d="M13357 2121 c-26 -4 -55 -14 -64 -23 -15 -16 -15 -19 0 -42 9 -14 38
-37 64 -52 102 -58 101 -74 -4 -74 -49 0 -63 -3 -63 -15 0 -15 45 -21 115 -16
32 3 65 26 65 46 0 15 -47 58 -85 79 -87 46 -82 67 19 68 67 1 81 9 47 28 -21
11 -22 11 -94 1z"/>
<path d="M4000 2107 c-49 -17 -46 -43 10 -82 35 -24 46 -39 48 -63 6 -59 -47
-105 -78 -67 -16 19 -30 19 -30 1 0 -46 73 -61 108 -23 55 58 42 143 -25 175
-18 9 -33 19 -33 23 0 8 37 19 68 19 31 0 23 24 -9 27 -13 1 -40 -3 -59 -10z"/>
<path d="M8760 2111 c-8 -6 -17 -8 -21 -5 -13 8 -70 -18 -80 -38 -14 -26 1
-43 61 -69 56 -24 91 -72 68 -95 -8 -8 -37 -17 -65 -21 -45 -5 -52 -3 -62 16
-11 20 -41 30 -41 12 0 -4 9 -20 21 -35 17 -21 29 -26 65 -26 25 0 60 6 79 14
72 30 50 112 -42 156 -29 14 -53 28 -53 33 0 10 48 29 83 32 33 3 41 10 32 24
-8 13 -25 14 -45 2z"/>
<path d="M3505 2079 c-85 -75 -99 -170 -28 -197 57 -21 82 -23 103 -5 31 27
24 36 -25 29 -83 -13 -113 27 -71 98 30 52 57 77 63 59 3 -7 11 -13 19 -13 22
0 14 54 -8 58 -9 2 -33 -11 -53 -29z"/>
<path d="M11908 2069 c-45 -30 -108 -108 -108 -135 0 -7 7 -20 16 -28 17 -18
39 -15 115 15 l46 18 1 -32 c1 -50 67 -98 80 -59 2 7 -8 16 -22 22 -23 8 -26
15 -26 59 0 55 -13 71 -38 48 -22 -19 -89 -47 -113 -47 -41 0 -7 60 64 111 37
27 41 28 53 11 12 -16 13 -16 19 1 10 24 -1 47 -22 47 -10 0 -39 -14 -65 -31z"/>
<path d="M12375 2067 c-30 -30 -35 -42 -35 -81 0 -53 19 -76 95 -112 54 -26
95 -30 126 -13 29 15 13 31 -25 24 -37 -7 -109 17 -143 48 -48 43 -12 137 52
137 35 0 28 24 -9 28 -20 3 -36 -6 -61 -31z"/>
<path d="M8168 2050 c-36 -36 -38 -92 -5 -141 28 -42 60 -59 112 -59 42 0 58
7 63 28 2 14 -17 16 -36 3 -8 -5 -31 -4 -54 2 -68 17 -102 103 -58 147 11 11
25 20 30 20 6 0 10 -9 10 -20 0 -27 14 -25 34 5 24 37 20 44 -26 43 -32 0 -48
-7 -70 -28z"/>
<path d="M12157 2062 c-23 -25 -29 -167 -7 -167 12 0 16 17 20 75 6 83 19 96
65 66 29 -19 45 -20 45 -3 0 17 -52 47 -82 47 -14 0 -32 -8 -41 -18z"/>
<path d="M12808 2065 c-34 -19 -68 -74 -68 -113 0 -36 35 -81 84 -110 29 -17
37 -18 46 -7 9 11 4 17 -25 31 -43 20 -75 58 -75 90 0 29 46 84 72 84 13 0 18
6 16 17 -4 22 -18 25 -50 8z"/>
<path d="M3746 2036 c-37 -34 -44 -62 -25 -97 23 -45 103 -44 144 1 14 16 15
24 5 54 -12 36 -52 76 -76 76 -7 0 -29 -15 -48 -34z m94 -62 c0 -38 -83 -51
-95 -14 -8 24 11 60 30 60 8 0 15 5 15 12 0 6 11 1 25 -12 14 -13 25 -33 25
-46z"/>
<path d="M8487 2063 c-10 -3 -16 -10 -14 -16 2 -7 0 -23 -5 -36 -6 -16 -5 -35
3 -53 10 -25 17 -28 54 -28 90 0 99 29 30 96 -25 24 -47 43 -48 43 -1 -1 -10
-3 -20 -6z m58 -73 l29 -30 -37 0 c-34 0 -37 2 -37 30 0 17 4 30 8 30 5 0 21
-13 37 -30z"/>
<path d="M13017 2058 c-24 -18 -28 -112 -4 -135 24 -24 138 -31 156 -10 20 25
4 55 -52 92 -29 19 -52 41 -52 47 0 18 -27 21 -48 6z m81 -78 c51 -37 53 -50
6 -50 -51 0 -74 15 -74 50 0 38 16 38 68 0z"/>
<path d="M10792 2021 c3 -13 25 -17 127 -21 67 -3 125 -2 127 1 11 18 -32 27
-139 31 -103 4 -117 2 -115 -11z"/>
<path d="M10930 1924 c-47 -13 -95 -23 -107 -23 -14 -1 -23 -7 -23 -16 0 -20
47 -20 111 1 35 12 71 15 119 12 70 -5 87 2 51 22 -49 26 -67 26 -151 4z"/>
</g>
</svg>
