<?xml version="1.0" standalone="no"?>
<!DOCTYPE svg PUBLIC "-//W3C//DTD SVG 20010904//EN"
 "http://www.w3.org/TR/2001/REC-SVG-20010904/DTD/svg10.dtd">
<svg version="1.0" xmlns="http://www.w3.org/2000/svg"
 width="1618.000000pt" height="1214.000000pt" viewBox="0 0 1618.000000 1214.000000"
 preserveAspectRatio="xMidYMid meet">

<g transform="translate(0.000000,1214.000000) scale(0.100000,-0.100000)"
fill="#000000" stroke="none">
<path d="M14924 11652 c-5 -4 -20 -31 -33 -59 -14 -29 -27 -53 -29 -53 -3 0
-11 8 -18 18 -13 16 -18 13 -64 -35 -41 -43 -50 -58 -50 -88 0 -20 5 -45 10
-56 9 -16 4 -31 -25 -78 -37 -60 -42 -96 -15 -96 8 0 15 10 16 22 1 12 15 44
33 71 29 46 35 50 83 56 60 8 103 29 118 55 24 46 1 131 -36 131 -12 0 -11 7
6 39 11 22 24 42 30 46 5 3 10 10 10 15 0 11 -25 20 -36 12z m-89 -142 c8 -12
-56 -121 -67 -114 -16 10 -7 58 18 91 26 34 38 40 49 23z m89 -16 c11 -29 6
-61 -13 -78 -17 -16 -91 -40 -98 -32 -2 2 13 31 33 64 37 62 65 79 78 46z"/>
<path d="M15128 11628 c-8 -7 -27 -44 -41 -83 -62 -172 -74 -235 -42 -235 10
0 15 10 15 33 0 17 16 77 36 132 19 55 35 104 37 110 1 5 9 15 17 22 11 8 12
15 4 22 -7 8 -15 7 -26 -1z"/>
<path d="M15405 11610 c-29 -10 -51 -23 -53 -33 -4 -21 8 -21 53 0 19 9 38 14
41 10 4 -4 -7 -33 -24 -64 -30 -56 -32 -58 -79 -63 -34 -4 -48 -9 -48 -20 0
-11 10 -14 39 -12 l40 4 -19 -29 c-10 -15 -24 -37 -32 -48 -17 -26 -17 -55 2
-55 8 0 15 5 15 11 0 6 15 35 33 64 32 54 49 65 100 65 17 0 27 5 27 15 0 11
-11 15 -36 15 l-35 0 30 54 c35 61 41 107 14 105 -10 -1 -40 -9 -68 -19z"/>
<path d="M14007 11524 c-64 -69 -76 -88 -66 -100 8 -10 25 -12 66 -7 51 6 55
5 50 -13 -21 -71 -27 -107 -21 -129 7 -27 28 -29 31 -4 1 8 5 40 8 72 4 39 13
64 25 75 13 11 16 20 9 28 -6 7 -6 21 -1 35 5 13 12 41 16 62 6 30 4 37 -9 37
-8 0 -14 5 -12 11 7 32 -26 9 -96 -67z m73 -23 l-12 -51 -46 0 -46 0 54 55
c29 30 56 53 58 50 2 -2 -1 -27 -8 -54z"/>
<path d="M14533 11565 c-28 -13 -54 -29 -58 -35 -9 -15 13 -39 23 -25 4 6 25
19 47 29 22 11 44 22 48 24 14 7 -5 -51 -29 -89 -13 -20 -38 -47 -56 -60 -39
-26 -67 -59 -68 -76 0 -23 25 -14 67 22 49 41 55 43 47 11 -3 -13 -1 -34 6
-45 15 -28 79 -29 104 -2 25 28 11 47 -20 27 -45 -30 -58 -22 -54 36 1 14 -3
29 -8 32 -5 3 4 31 19 62 36 71 39 114 7 114 -13 -1 -46 -12 -75 -25z"/>
<path d="M13787 11551 c-37 -24 -40 -28 -32 -41 4 -7 19 -3 46 12 35 20 41 20
55 7 14 -14 12 -20 -18 -59 -19 -25 -55 -55 -86 -71 -66 -34 -92 -57 -92 -81
0 -25 6 -23 72 17 l58 34 15 -28 c18 -36 44 -46 64 -27 13 13 11 16 -12 25
-15 6 -27 17 -27 26 0 8 -4 15 -10 15 -5 0 8 24 30 53 50 65 58 92 35 117 -22
24 -61 25 -98 1z"/>
<path d="M13354 11541 c-50 -23 -72 -47 -56 -63 9 -9 17 -7 32 10 20 22 66 39
76 29 7 -7 -34 -87 -59 -114 -11 -13 -26 -23 -33 -23 -13 0 -64 -56 -64 -71 0
-17 37 -9 55 11 10 11 29 20 42 20 12 0 32 -9 43 -20 24 -24 60 -27 60 -5 0 8
-5 15 -10 15 -6 0 -24 10 -40 21 l-28 21 35 64 c19 35 33 73 31 85 -5 32 -38
40 -84 20z"/>
<path d="M13177 11456 c-38 -87 -49 -156 -23 -156 8 0 15 16 19 43 3 23 20 72
36 109 34 75 37 88 18 88 -7 0 -29 -38 -50 -84z"/>
<path d="M5973 11415 c-7 -19 -11 -16 57 -39 94 -32 95 -35 50 -90 -38 -45
-52 -86 -30 -86 5 0 16 12 24 28 8 15 28 40 45 56 54 51 39 77 -68 120 -76 31
-70 30 -78 11z"/>
<path d="M13526 11325 c-9 -25 -8 -27 17 -23 12 2 22 10 22 18 0 21 -31 24
-39 5z"/>
<path d="M5747 11318 c-28 -19 22 -27 133 -22 63 3 117 7 119 9 1 2 0 9 -4 15
-8 12 -228 11 -248 -2z"/>
<path d="M14160 11294 c0 -9 7 -14 17 -12 25 5 28 28 4 28 -12 0 -21 -6 -21
-16z"/>
<path d="M2811 11178 c-1 -57 -5 -130 -11 -163 -5 -33 -10 -97 -10 -143 0 -71
2 -83 16 -80 13 2 16 22 18 108 2 58 9 152 15 210 13 113 8 170 -14 170 -11 0
-14 -21 -14 -102z"/>
<path d="M10578 11258 c-7 -13 -13 -30 -14 -39 -1 -15 -32 -100 -155 -429 -34
-91 -72 -194 -85 -230 l-24 -65 0 134 c0 73 5 198 12 278 9 115 8 147 -1 153
-8 4 -44 -9 -87 -31 -41 -22 -84 -39 -95 -39 -10 0 -19 -7 -19 -15 0 -25 50
-17 118 19 l62 34 -7 -82 c-13 -139 -10 -539 4 -543 7 -3 18 8 23 24 6 15 19
46 30 68 36 77 69 163 154 396 46 128 92 251 101 272 l16 39 557 -6 c357 -3
625 -11 747 -20 191 -16 490 -20 533 -8 56 16 7 26 -133 28 -82 0 -202 6 -265
12 -280 27 -562 35 -991 28 l-436 -6 1 22 c1 31 -29 35 -46 6z"/>
<path d="M3756 11262 c-3 -5 -1 -54 4 -108 5 -55 10 -103 10 -108 0 -8 -50 -5
-89 5 -7 2 -16 -2 -18 -8 -5 -15 37 -33 77 -33 26 0 29 -4 35 -43 4 -24 6 -57
4 -73 -4 -54 1 -74 17 -74 14 0 15 13 12 95 l-3 95 30 6 c17 4 43 13 58 21
l29 14 -4 -117 c-4 -139 7 -154 47 -65 35 76 52 93 71 66 8 -10 14 -31 14 -46
0 -38 10 -59 27 -59 27 0 -5 135 -37 155 -18 11 -48 -5 -70 -38 l-22 -32 6
151 c5 124 3 153 -8 157 -10 4 -16 -8 -20 -47 -9 -72 -36 -112 -82 -125 -21
-6 -39 -9 -41 -8 -1 2 -7 49 -12 106 -9 98 -21 136 -35 113z"/>
<path d="M7774 11255 c-4 -8 -15 -15 -25 -15 -23 0 -25 -16 -3 -28 14 -8 13
-15 -5 -68 -11 -32 -29 -113 -42 -179 -12 -66 -25 -126 -29 -133 -12 -23 -40
146 -42 256 -1 87 -4 102 -18 102 -9 0 -27 -11 -39 -24 -12 -13 -41 -32 -64
-42 -46 -20 -61 -34 -48 -47 9 -9 67 14 104 43 l27 21 0 -23 c2 -63 13 -152
30 -238 11 -52 21 -108 24 -123 6 -34 25 -59 38 -51 5 3 7 17 3 31 -3 15 5 55
24 106 16 45 37 121 45 170 9 48 26 111 38 141 l22 53 236 14 c136 8 421 14
677 14 244 0 443 3 443 7 0 4 -10 13 -22 19 -28 15 -901 6 -1157 -12 -159 -11
-174 -11 -183 5 -11 20 -27 21 -34 1z"/>
<path d="M5365 11239 c-4 -6 -1 -15 6 -20 11 -6 15 -53 17 -219 3 -174 6 -210
18 -210 11 0 14 25 15 138 1 257 -5 315 -33 320 -9 2 -19 -2 -23 -9z"/>
<path d="M6443 11228 c-29 -14 -31 -42 -3 -33 19 6 20 2 20 -164 0 -169 9
-227 33 -218 6 2 10 11 7 18 -2 8 -7 101 -10 208 -3 117 -9 195 -15 197 -5 1
-20 -2 -32 -8z"/>
<path d="M5235 11200 c-4 -6 -3 -34 1 -63 4 -29 10 -124 13 -212 5 -142 8
-160 24 -163 19 -4 19 -16 1 278 -4 63 -6 127 -5 143 3 27 -20 39 -34 17z"/>
<path d="M4477 11172 c-25 -28 -21 -42 13 -42 33 0 38 15 17 44 -12 16 -14 16
-30 -2z"/>
<path d="M6272 11178 c-16 -16 -15 -28 2 -28 11 0 15 -31 18 -152 5 -152 18
-222 39 -201 7 7 7 28 0 69 -6 32 -11 110 -11 175 0 65 -3 124 -6 133 -7 19
-25 21 -42 4z"/>
<path d="M8360 11175 c0 -8 14 -21 30 -30 17 -9 30 -18 30 -22 0 -12 -42 -73
-51 -73 -5 0 -9 -9 -9 -21 0 -30 20 -19 58 30 42 56 42 83 -4 110 -42 25 -54
26 -54 6z"/>
<path d="M8122 11138 c-17 -17 -15 -38 3 -38 8 0 15 5 15 11 0 8 18 9 58 5 92
-11 111 -12 114 -2 8 26 -166 48 -190 24z"/>
<path d="M11098 11114 c-28 -15 -38 -44 -15 -44 6 0 21 7 31 15 26 20 36 19
36 -2 0 -34 -38 -77 -77 -88 -41 -11 -56 -41 -27 -52 9 -3 25 -1 36 6 16 10
23 9 37 -3 10 -9 29 -16 42 -16 30 0 69 26 69 46 0 18 -5 18 -35 -2 -14 -9
-33 -13 -45 -9 -22 7 -26 20 -10 30 11 7 34 49 44 81 8 25 -16 54 -42 54 -9
-1 -29 -8 -44 -16z"/>
<path d="M12486 11099 c-35 -30 -47 -59 -25 -59 6 0 27 14 46 30 40 35 73 40
73 10 0 -21 -60 -70 -115 -95 -43 -20 -68 -42 -60 -54 10 -17 28 -13 65 14
l35 26 7 -30 c10 -36 25 -42 73 -31 35 8 54 23 55 43 0 11 -28 9 -35 -3 -3 -5
-19 -10 -36 -10 -42 0 -39 36 6 80 30 29 35 41 33 70 -3 33 -5 35 -45 38 -34
3 -47 -2 -77 -29z"/>
<path d="M5897 11032 c-42 -78 -118 -146 -184 -166 -35 -11 -29 15 22 111 25
45 45 85 45 88 0 18 -40 -1 -79 -38 -25 -23 -59 -52 -76 -64 -23 -17 -27 -24
-18 -34 9 -9 21 -4 53 21 l42 33 -21 -41 c-62 -122 20 -148 146 -45 l55 45 -3
-34 c-3 -54 0 -66 20 -73 23 -7 88 22 96 43 9 24 -4 27 -34 9 -16 -9 -34 -17
-40 -17 -17 0 -12 79 9 140 23 66 24 70 7 70 -8 0 -26 -22 -40 -48z"/>
<path d="M7130 11060 c-8 -6 -34 -15 -58 -21 -46 -12 -54 -19 -44 -36 5 -7 25
-4 62 10 30 11 74 20 98 19 45 -1 55 11 23 28 -25 13 -61 13 -81 0z"/>
<path d="M8963 11025 c-41 -25 -60 -55 -48 -75 10 -16 22 -12 28 9 5 21 54 57
64 48 3 -4 -13 -35 -35 -69 -63 -97 -96 -176 -82 -193 17 -20 37 -8 129 80
l76 73 -3 -47 c-3 -34 1 -51 12 -60 30 -25 120 9 101 39 -4 7 -14 5 -28 -5
-36 -25 -57 -19 -57 15 0 36 33 126 56 151 10 11 14 25 10 36 -6 15 -14 11
-49 -28 -124 -137 -161 -176 -189 -198 l-30 -24 27 54 c15 30 43 76 62 103 41
58 49 110 18 114 -11 1 -39 -9 -62 -23z"/>
<path d="M9533 11042 c-47 -3 -74 -25 -55 -44 9 -9 15 -9 24 0 7 7 41 12 83
12 64 0 95 10 95 30 0 7 -71 8 -147 2z"/>
<path d="M2964 11006 c-66 -66 -33 -149 70 -175 62 -15 80 -14 107 8 29 23 18
39 -16 23 -36 -17 -112 0 -143 32 l-27 26 56 0 c67 0 99 19 99 60 0 23 -7 33
-30 45 -46 24 -78 19 -116 -19z m97 -6 c48 -26 8 -54 -67 -48 l-39 3 29 28
c31 29 47 33 77 17z"/>
<path d="M3230 11005 c-29 -10 -37 -19 -47 -56 -15 -57 -16 -106 -2 -115 16
-9 29 15 29 54 0 41 34 92 60 92 25 0 39 -50 33 -117 -5 -48 11 -103 25 -88
11 11 11 126 0 178 -6 28 -18 51 -28 57 -22 12 -24 12 -70 -5z"/>
<path d="M8041 10976 c-87 -60 -98 -73 -82 -88 10 -11 15 -10 24 3 7 8 41 35
76 58 61 42 64 42 58 19 -4 -14 -25 -56 -47 -94 -30 -51 -40 -80 -40 -111 0
-38 3 -43 27 -49 36 -9 82 17 143 82 39 41 50 48 50 33 0 -53 36 -71 94 -49
33 12 36 45 4 34 -54 -18 -63 -12 -63 36 1 25 9 60 18 79 21 42 21 51 2 51 -8
0 -23 -17 -34 -38 -44 -86 -157 -202 -198 -202 -21 0 -15 42 13 96 55 103 65
125 71 154 5 28 3 30 -23 30 -17 -1 -55 -18 -93 -44z"/>
<path d="M3540 10970 c0 -32 -6 -47 -27 -66 -50 -46 -111 -12 -67 38 14 14 26
18 47 14 23 -5 28 -3 25 12 -5 23 -71 21 -98 -3 -27 -24 -26 -79 0 -105 25
-25 59 -19 108 17 l32 24 11 -28 c6 -15 12 -50 13 -77 l1 -50 -54 -15 c-69
-21 -88 -47 -73 -99 11 -37 71 -104 104 -115 9 -3 27 2 39 12 19 15 23 30 27
104 4 83 5 86 30 89 41 5 39 28 -2 28 -34 0 -36 2 -36 33 -1 34 -40 193 -53
215 -15 24 -27 12 -27 -28z m60 -309 c0 -74 -10 -111 -29 -111 -36 0 -98 91
-85 124 3 8 22 19 42 24 69 19 72 17 72 -37z"/>
<path d="M4487 10994 c-9 -10 12 -46 24 -39 14 9 11 45 -4 45 -8 0 -17 -3 -20
-6z"/>
<path d="M2287 10962 c-30 -19 -44 -49 -29 -64 17 -17 66 -5 78 21 23 45 -5
69 -49 43z"/>
<path d="M7040 10954 c0 -7 8 -15 17 -18 24 -10 143 4 143 16 0 5 5 6 10 3 6
-3 10 -1 10 5 0 7 -31 10 -90 8 -59 -2 -90 -7 -90 -14z"/>
<path d="M9472 10948 c4 -11 60 -24 138 -31 31 -4 24 18 -10 30 -48 16 -133
17 -128 1z"/>
<path d="M10786 10921 c-39 -15 -72 -33 -74 -39 -7 -22 27 -24 60 -4 18 11 44
23 57 27 l25 8 -27 -33 c-32 -37 -61 -92 -71 -131 -4 -19 0 -34 12 -49 24 -30
54 -23 119 29 l50 39 9 -32 c8 -29 12 -31 49 -29 21 2 46 9 53 17 17 17 6 42
-11 27 -7 -5 -23 -11 -37 -13 -23 -3 -25 0 -23 36 2 23 13 52 28 72 14 18 25
40 25 48 0 28 -30 17 -48 -16 -28 -54 -153 -168 -184 -168 -5 0 -8 13 -8 29 0
18 17 55 45 97 43 63 54 103 30 110 -5 2 -41 -9 -79 -25z"/>
<path d="M11616 10878 c-4 -40 -12 -75 -18 -79 -6 -4 -22 -4 -37 0 -40 11 -55
8 -59 -11 -3 -14 3 -18 25 -18 65 0 70 -6 65 -71 -4 -49 -2 -59 12 -59 12 0
16 10 17 43 1 72 9 81 79 92 38 6 65 16 68 24 4 12 -7 13 -62 7 l-66 -7 7 76
c5 63 4 75 -9 75 -11 0 -17 -18 -22 -72z"/>
<path d="M8642 10928 c-14 -14 -16 -44 -3 -53 11 -6 41 32 41 52 0 16 -22 17
-38 1z"/>
<path d="M12110 10854 c-74 -57 -80 -63 -80 -74 0 -18 28 -10 56 15 36 33 40
26 15 -24 -24 -47 -28 -113 -6 -131 20 -17 48 -5 111 46 l54 44 0 -29 c0 -42
20 -54 68 -41 43 11 91 44 81 55 -4 3 -29 -3 -57 -14 -27 -11 -53 -17 -56 -14
-12 12 -5 49 19 101 14 30 25 60 25 68 0 26 -25 14 -48 -24 -42 -67 -140 -162
-168 -162 -26 0 -15 51 26 126 22 40 40 78 40 84 0 20 -35 8 -80 -26z"/>
<path d="M12548 10725 c-7 -7 0 -83 13 -149 9 -47 8 -52 -28 -110 -20 -34 -41
-64 -47 -68 -12 -8 11 -38 30 -38 8 0 14 9 14 20 0 11 24 61 54 111 30 49 60
107 66 127 7 20 19 48 27 61 10 15 12 26 5 33 -16 16 -27 3 -58 -74 -27 -68
-29 -71 -35 -43 -4 17 -7 47 -8 67 -2 55 -15 81 -33 63z"/>
<path d="M11136 10641 c-9 -9 -16 -23 -16 -29 0 -22 -22 -24 -36 -3 -17 24
-59 28 -67 6 -7 -17 6 -27 26 -19 21 8 28 -20 11 -44 -19 -28 -80 -48 -98 -33
-10 9 -15 8 -18 -1 -15 -41 34 -50 97 -18 47 24 55 25 55 5 0 -17 30 -35 59
-35 16 0 21 6 21 24 0 14 -4 28 -10 31 -5 3 -10 2 -10 -3 0 -5 -7 -9 -15 -9
-8 0 -15 8 -15 18 0 23 31 89 42 89 11 0 10 27 -1 34 -4 3 -16 -3 -25 -13z"/>
<path d="M3905 9914 c-176 -41 -195 -47 -195 -61 0 -11 7 -14 23 -10 183 44
215 48 287 33 39 -8 83 -24 99 -36 34 -24 52 -66 40 -97 -9 -26 -68 -58 -123
-69 l-39 -7 5 74 c6 76 -4 125 -22 114 -6 -4 -10 -21 -9 -38 2 -18 2 -60 1
-94 l-2 -63 -38 0 c-21 0 -43 5 -49 11 -13 13 -33 4 -33 -15 0 -16 31 -26 82
-26 l37 0 3 -92 c2 -60 7 -93 15 -95 9 -3 13 22 15 92 l3 97 56 17 c120 38
154 79 125 154 -9 23 -27 49 -39 58 -47 34 -190 65 -242 53z"/>
<path d="M5177 9914 c-4 -4 -7 -45 -7 -91 l0 -83 -34 0 c-44 0 -66 -9 -66 -26
0 -10 12 -12 49 -7 l48 5 5 -91 c4 -96 18 -128 51 -115 21 8 23 34 3 34 -17 0
-29 63 -24 130 l3 45 60 1 c83 2 85 2 85 19 0 12 -15 15 -76 15 l-76 0 3 82
c4 76 -4 102 -24 82z"/>
<path d="M4550 9882 c0 -4 16 -43 35 -87 58 -135 59 -208 1 -270 -41 -43 -86
-49 -86 -11 0 25 41 66 66 66 8 0 14 7 14 15 0 27 -45 16 -78 -18 -45 -46 -48
-96 -7 -115 39 -18 97 9 131 61 41 62 44 132 9 227 -15 41 -27 81 -27 88 -1 6
-5 12 -9 12 -3 0 -9 9 -12 20 -5 19 -37 29 -37 12z"/>
<path d="M2624 9819 c-95 -36 -163 -132 -172 -240 -7 -93 31 -140 127 -155 41
-7 153 9 204 28 27 11 32 36 6 30 -74 -19 -185 -33 -215 -27 -21 3 -50 19 -67
36 -27 27 -29 35 -25 83 8 100 68 183 155 216 70 26 71 26 75 -12 4 -41 30
-48 46 -13 8 18 9 32 2 44 -19 36 -60 40 -136 10z"/>
<path d="M5625 9789 c-9 -14 24 -49 44 -48 10 0 12 2 3 6 -6 2 -9 9 -6 14 6
11 -13 39 -27 39 -4 0 -11 -5 -14 -11z"/>
<path d="M3479 9745 c-31 -17 -53 -65 -44 -95 4 -12 23 -40 43 -62 31 -34 34
-41 20 -54 -8 -8 -27 -16 -43 -17 -25 -2 -30 2 -35 25 -3 20 -9 25 -18 19 -18
-11 -12 -61 9 -74 38 -24 129 20 129 63 0 10 -18 40 -40 65 -22 25 -40 49 -40
53 0 18 32 50 55 56 15 4 25 12 22 19 -6 18 -28 18 -58 2z"/>
<path d="M3290 9732 c-43 -21 -42 -47 1 -106 33 -45 37 -77 13 -97 -14 -11
-18 -10 -29 5 -15 19 -35 14 -35 -9 0 -16 30 -35 54 -35 27 0 56 38 56 73 0
19 -12 50 -30 76 -17 24 -30 47 -30 51 0 13 48 29 71 23 18 -5 21 -3 16 11 -4
10 -7 20 -7 22 0 10 -48 2 -80 -14z"/>
<path d="M2927 9649 c-45 -26 -72 -145 -42 -185 16 -21 17 -19 19 51 1 66 26
105 66 105 37 0 39 17 4 30 -30 12 -25 12 -47 -1z"/>
<path d="M4170 9630 c-25 -25 -27 -95 -4 -128 12 -18 19 -20 36 -11 l20 11
-21 19 c-22 21 -28 68 -10 86 6 6 28 9 50 6 30 -4 39 -2 39 9 0 9 -13 18 -31
22 -48 9 -57 8 -79 -14z"/>
<path d="M3047 9622 c-24 -28 -37 -59 -37 -91 0 -54 63 -67 140 -28 51 25 63
60 35 103 -13 20 -23 24 -48 22 -36 -3 -39 -21 -5 -27 52 -8 51 -54 -2 -75
-51 -20 -79 -20 -86 -1 -8 21 15 75 32 75 18 0 18 26 0 33 -8 3 -21 -2 -29
-11z"/>
<path d="M4705 9630 c-15 -24 -16 -98 -2 -133 19 -44 38 -47 89 -12 43 29 64
79 49 119 -16 40 -31 31 -31 -18 0 -37 -5 -48 -31 -71 -18 -15 -36 -22 -41
-17 -10 10 -13 80 -4 108 5 15 3 23 -8 27 -8 3 -18 2 -21 -3z"/>
<path d="M4921 9609 c-45 -42 -52 -91 -16 -115 46 -30 202 1 180 36 -4 7 -11
8 -18 2 -16 -13 -119 -25 -140 -16 -9 3 -17 12 -17 19 0 21 41 65 61 65 10 0
19 7 19 15 0 22 -42 19 -69 -6z"/>
<path d="M4316 9597 c-14 -14 -28 -41 -32 -62 -14 -74 54 -98 112 -39 28 27
26 50 -5 94 -25 34 -46 36 -75 7z m52 -29 c19 -19 14 -46 -13 -64 -31 -20 -47
-10 -39 24 12 48 30 62 52 40z"/>
<path d="M5645 9574 c-8 -44 8 -66 25 -35 13 26 10 63 -6 68 -7 2 -15 -12 -19
-33z"/>
</g>
</svg>
