<?xml version="1.0" standalone="no"?>
<!DOCTYPE svg PUBLIC "-//W3C//DTD SVG 20010904//EN"
 "http://www.w3.org/TR/2001/REC-SVG-20010904/DTD/svg10.dtd">
<svg version="1.0" xmlns="http://www.w3.org/2000/svg"
 width="1617.000000pt" height="1213.000000pt" viewBox="0 0 1617.000000 1213.000000"
 preserveAspectRatio="xMidYMid meet">

<g transform="translate(0.000000,1213.000000) scale(0.100000,-0.100000)"
fill="#000000" stroke="none">
<path d="M15127 11633 c-2 -5 -10 -24 -16 -43 -6 -19 -22 -48 -35 -64 -22 -27
-26 -28 -60 -16 -33 10 -39 9 -79 -18 -46 -32 -97 -97 -97 -124 0 -17 54 -68
71 -68 5 0 0 -19 -12 -41 -20 -40 -20 -89 1 -89 5 0 21 27 36 60 25 56 29 60
61 60 45 0 97 23 117 51 25 36 21 91 -9 119 l-24 23 29 41 c32 45 48 100 32
110 -6 3 -13 3 -15 -1z m-100 -161 c10 -6 -1 -28 -38 -80 l-51 -73 -31 18
c-17 10 -32 24 -35 31 -2 7 18 35 46 62 48 49 80 61 109 42z m61 -34 c32 -32
1 -100 -52 -114 -55 -14 -58 -2 -14 64 23 34 45 62 48 62 3 0 11 -5 18 -12z"/>
<path d="M14080 11606 c-37 -25 -142 -163 -159 -209 -6 -16 -11 -41 -11 -57 0
-15 -7 -30 -15 -34 -18 -7 -19 -28 -3 -44 9 -9 16 -8 29 4 13 12 22 13 38 5
53 -29 131 0 131 49 0 32 -30 41 -90 25 -30 -8 -56 -12 -59 -10 -22 22 81 183
155 243 27 21 36 34 29 41 -8 8 -21 4 -45 -13z m-30 -301 c-7 -8 -27 -15 -44
-15 -29 1 -30 1 -12 15 11 8 31 15 44 15 21 0 22 -2 12 -15z"/>
<path d="M13807 11518 c-68 -153 -93 -234 -77 -253 17 -20 43 0 34 27 -7 24
18 100 73 215 46 99 50 113 30 113 -8 0 -34 -46 -60 -102z"/>
<path d="M15595 11613 c-85 -4 -102 -11 -91 -39 5 -13 9 -15 18 -6 7 7 38 12
71 12 l58 0 -20 -29 c-12 -16 -21 -37 -21 -46 0 -13 -8 -16 -42 -13 -34 2 -43
-1 -46 -15 -3 -14 4 -17 32 -17 l36 0 -24 -48 c-32 -62 -37 -105 -13 -110 13
-3 17 3 17 23 0 14 11 48 25 75 21 42 30 50 53 50 15 0 33 4 41 9 21 13 2 33
-25 27 -19 -5 -24 -2 -24 13 0 21 63 91 80 91 6 0 10 7 10 15 0 10 -9 14 -27
13 -16 -1 -64 -4 -108 -5z"/>
<path d="M13089 11497 c-30 -56 -66 -128 -79 -160 -22 -53 -23 -59 -8 -73 18
-19 38 -11 38 14 0 9 9 39 19 67 11 27 25 65 32 83 6 18 27 58 45 89 36 59 42
83 22 83 -7 0 -38 -46 -69 -103z"/>
<path d="M13340 11563 c-36 -14 -71 -31 -78 -38 -28 -26 13 -22 86 7 41 16 76
27 79 25 11 -12 -27 -59 -133 -164 -63 -62 -114 -119 -114 -127 0 -30 28 -39
101 -32 39 3 81 11 92 18 21 11 21 11 2 18 -10 4 -37 3 -59 -1 -96 -19 -96
-16 -5 79 125 132 161 187 145 227 -8 22 -42 18 -116 -12z"/>
<path d="M6397 11556 c-51 -23 -68 -41 -60 -63 7 -18 33 -17 33 2 0 8 16 22
36 30 49 20 57 19 43 -7 -21 -42 -74 -89 -122 -110 -48 -21 -87 -59 -87 -84 0
-22 16 -17 71 21 28 19 54 35 58 35 4 0 14 -15 22 -32 18 -43 49 -47 98 -15
27 18 40 35 45 58 3 18 4 34 1 37 -8 8 -35 -20 -35 -37 0 -9 -13 -20 -33 -26
-31 -10 -33 -9 -48 22 -16 31 -15 33 7 48 29 19 64 85 64 120 0 32 -26 32 -93
1z"/>
<path d="M15386 11571 c-4 -5 -18 -45 -32 -88 -14 -43 -35 -96 -48 -118 -25
-44 -24 -75 2 -75 12 0 21 14 29 43 6 23 26 84 43 135 23 64 30 96 23 103 -7
7 -13 7 -17 0z"/>
<path d="M14686 11548 c-41 -11 -116 -77 -116 -103 0 -24 18 -18 41 15 23 30
62 52 112 64 27 6 27 5 16 -16 -6 -13 -64 -76 -127 -140 -87 -89 -111 -119
-99 -123 9 -4 24 2 36 14 22 22 88 38 101 25 4 -5 10 -18 12 -29 2 -11 12 -21
22 -23 16 -3 17 1 11 30 -10 46 -22 58 -58 58 -31 0 -30 1 45 76 130 129 132
185 4 152z"/>
<path d="M3018 11388 c-19 -24 -50 -68 -70 -98 -19 -30 -55 -80 -79 -110 -64
-79 -79 -102 -79 -122 0 -26 27 -22 35 5 4 12 24 42 44 67 21 25 66 87 100
137 34 51 74 102 88 113 15 12 23 26 19 35 -9 24 -21 18 -58 -27z"/>
<path d="M5170 11399 c-236 -48 -451 -64 -478 -37 -20 20 -28 -2 -41 -107 -6
-55 -16 -131 -21 -170 -5 -38 -10 -122 -11 -185 l-1 -115 -20 44 c-16 35 -22
78 -29 195 -10 171 -16 216 -30 216 -19 0 -139 -105 -139 -122 0 -26 6 -23 66
28 30 26 56 45 58 43 2 -2 8 -77 13 -167 10 -143 14 -169 37 -216 29 -59 49
-81 66 -71 6 4 10 56 10 133 0 138 13 268 34 347 8 28 17 62 20 78 l6 27 139
0 c105 0 171 6 275 25 164 31 229 37 237 23 10 -15 29 0 29 22 0 36 -72 39
-220 9z"/>
<path d="M2830 11338 c-1 -35 -3 -83 -4 -107 -2 -78 19 -56 31 31 13 90 8 138
-13 138 -9 0 -13 -18 -14 -62z"/>
<path d="M7267 11344 c-3 -3 -45 -7 -94 -9 -48 -2 -191 -8 -317 -14 -174 -9
-232 -8 -243 0 -33 28 -45 -32 -60 -291 l-8 -145 -6 130 c-5 135 -25 244 -44
251 -9 4 -161 -89 -184 -112 -6 -6 27 -34 41 -34 4 0 8 7 8 15 0 8 27 32 60
55 l59 40 11 -37 c6 -21 15 -110 20 -198 9 -168 22 -235 45 -235 15 0 18 27
34 312 5 92 14 176 20 187 11 19 20 20 195 20 101 0 244 5 316 11 73 7 143 9
156 6 25 -7 30 5 18 38 -6 17 -16 20 -27 10z"/>
<path d="M13487 11310 c-27 -32 -21 -41 25 -38 45 3 64 26 29 35 -12 3 -21 9
-21 14 0 15 -15 10 -33 -11z"/>
<path d="M14244 11299 c-8 -14 18 -31 30 -19 9 9 0 30 -14 30 -5 0 -12 -5 -16
-11z"/>
<path d="M3042 11255 c-39 -17 -50 -41 -29 -63 15 -14 17 -13 26 11 8 20 18
27 36 27 15 0 25 -6 25 -14 0 -21 -42 -68 -90 -101 -47 -33 -52 -68 -10 -74
21 -2 127 16 139 25 7 6 -24 64 -33 61 -7 -2 -31 -36 -31 -43 0 -1 -15 -5 -33
-9 -33 -7 -32 -6 27 52 49 48 61 65 61 91 0 21 -6 35 -19 42 -25 13 -29 12
-69 -5z"/>
<path d="M15390 11155 c-9 -11 -11 -34 -7 -75 6 -53 4 -61 -14 -70 -28 -16
-39 -51 -29 -95 10 -42 55 -95 82 -95 41 0 63 112 33 170 l-15 28 49 17 c58
19 94 54 89 87 -4 27 -44 36 -78 18 -11 -6 -20 -7 -20 -2 0 10 -44 32 -64 32
-8 0 -19 -7 -26 -15z m65 -43 c3 -9 3 -13 -1 -10 -3 4 -15 -3 -25 -15 l-18
-22 -1 31 c0 17 3 33 6 37 9 9 32 -3 39 -21z m95 -1 c0 -14 -24 -30 -69 -46
l-42 -14 21 27 c26 32 90 56 90 33z m-122 -136 c16 -35 15 -87 -1 -109 -13
-18 -15 -17 -35 9 -27 34 -29 92 -4 111 24 18 27 18 40 -11z"/>
<path d="M3880 11153 c-14 -2 -60 -11 -104 -19 -43 -8 -101 -15 -128 -16 -40
0 -48 -3 -46 -16 5 -21 74 -20 183 3 41 8 97 15 124 15 45 0 73 12 54 23 -15
8 -58 14 -83 10z"/>
<path d="M5930 11119 c-25 -4 -90 -8 -145 -7 -85 1 -100 -2 -103 -16 -3 -14
10 -16 103 -16 58 0 138 5 177 12 54 9 75 9 89 0 25 -16 39 -15 39 3 0 33 -62
42 -160 24z"/>
<path d="M4901 11086 c-36 -20 -82 -96 -79 -130 5 -50 29 -54 97 -19 45 23 61
28 61 17 0 -8 9 -23 20 -34 27 -27 126 -29 147 -2 8 9 11 11 7 3 -5 -9 -3 -12
5 -7 25 16 -2 23 -62 19 -85 -7 -97 6 -74 81 10 29 17 60 17 69 0 28 -19 19
-34 -15 -20 -44 -34 -61 -80 -92 -72 -48 -100 -25 -50 41 33 44 63 56 86 36
16 -14 18 -14 24 2 5 12 1 23 -11 31 -23 17 -43 17 -74 0z"/>
<path d="M2495 11058 c-44 -35 -85 -98 -85 -133 0 -64 43 -72 117 -22 l49 33
-4 -28 c-5 -35 22 -78 48 -78 23 0 27 18 5 26 -24 10 -27 41 -9 103 16 59 14
98 -5 86 -6 -3 -15 4 -21 15 -14 27 -60 26 -95 -2z m75 -27 c16 -30 13 -40
-22 -72 -70 -65 -118 -72 -104 -15 7 29 81 106 101 106 8 0 19 -9 25 -19z"/>
<path d="M6918 11011 c-70 -44 -97 -110 -61 -146 21 -21 64 -14 114 20 l37 24
6 -25 c8 -29 46 -47 84 -38 35 9 99 41 107 54 14 23 -7 28 -39 9 -48 -28 -90
-38 -109 -27 -21 11 -21 30 -1 69 8 17 13 38 9 47 -6 15 -9 14 -26 -7 -14 -18
-19 -19 -19 -7 0 17 -34 56 -48 56 -4 0 -29 -13 -54 -29z m73 -44 c7 -24 3
-31 -29 -52 -84 -56 -122 -23 -53 46 45 46 71 48 82 6z"/>
<path d="M3810 11003 c-138 -9 -170 -15 -170 -29 0 -12 15 -14 93 -8 223 16
250 19 255 32 4 12 -57 14 -178 5z"/>
<path d="M5683 10997 c-33 -12 -38 -18 -30 -40 3 -9 8 -8 22 3 15 12 49 15
179 13 89 -1 180 -5 204 -8 45 -7 57 6 22 25 -31 16 -358 23 -397 7z"/>
<path d="M3775 10880 c-140 -24 -146 -24 -138 -4 4 12 0 15 -18 12 -18 -2 -24
-9 -24 -28 0 -25 1 -25 75 -22 96 3 290 35 293 47 3 16 -71 14 -188 -5z"/>
<path d="M5925 10869 c-38 -4 -111 -8 -161 -7 -90 2 -114 -4 -114 -24 0 -8 49
-9 173 -3 94 5 199 9 232 9 46 1 60 4 60 16 0 18 -82 22 -190 9z"/>
<path d="M8282 10245 c-18 -25 -56 -63 -85 -86 -86 -67 -98 -79 -92 -90 6 -9
53 -7 128 8 l28 5 -2 -69 c-2 -61 -1 -68 17 -68 17 0 19 7 16 71 -3 67 -2 72
20 78 22 6 22 7 5 20 -16 12 -17 19 -6 62 7 27 18 61 25 76 18 35 18 38 -3 38
-10 -1 -33 -21 -51 -45z m-7 -87 c-9 -42 -12 -44 -59 -53 l-40 -7 50 46 c27
25 50 45 52 46 2 0 1 -15 -3 -32z"/>
<path d="M6826 10163 c7 -101 10 -117 24 -108 22 14 7 195 -16 195 -11 0 -13
-17 -8 -87z"/>
<path d="M4503 10227 c-42 -16 -55 -30 -47 -50 7 -21 34 -23 34 -3 0 14 59 41
68 31 13 -12 -15 -60 -36 -63 -27 -4 -28 -22 -2 -55 40 -51 16 -83 -57 -73
-49 6 -74 20 -70 39 3 16 -45 15 -50 0 -11 -32 72 -73 147 -73 68 0 101 53 69
111 -8 16 -7 25 6 38 22 25 35 74 23 94 -10 19 -39 21 -85 4z"/>
<path d="M6980 10154 c-47 -47 -120 -117 -163 -156 -52 -47 -75 -74 -68 -81 7
-7 23 1 48 23 76 66 293 281 293 290 0 25 -31 3 -110 -76z"/>
<path d="M2925 10190 c-4 -6 0 -25 8 -43 10 -21 16 -67 18 -132 l2 -100 -44
-3 c-24 -2 -76 1 -114 5 -80 10 -105 7 -105 -11 0 -15 59 -20 200 -20 164 1
250 8 250 21 0 19 -37 25 -101 18 l-59 -7 0 100 c0 65 -5 112 -15 135 -16 40
-30 53 -40 37z"/>
<path d="M7065 10053 c-33 -30 -77 -67 -97 -81 -65 -43 -41 -63 46 -38 90 26
101 23 112 -31 8 -43 35 -76 50 -61 4 4 -1 23 -10 42 -21 45 -20 63 5 69 22 6
18 27 -5 27 -9 0 -11 13 -5 53 5 42 4 54 -9 65 -9 6 -18 12 -21 12 -3 -1 -33
-26 -66 -57z m56 -46 c-8 -21 -17 -27 -40 -27 -16 0 -38 -3 -48 -6 -11 -3 -7
4 11 18 16 13 41 36 55 52 23 25 26 26 29 9 2 -11 -2 -31 -7 -46z"/>
<path d="M8945 10045 c-166 -15 -511 -61 -527 -71 -5 -3 -8 -20 -7 -37 2 -33
-38 -341 -48 -367 -4 -10 -10 -4 -21 20 -12 26 -15 65 -14 157 1 68 -2 124 -8
128 -9 6 -127 -31 -145 -45 -10 -8 -16 -10 -35 -10 -5 0 -10 -7 -10 -15 0 -19
2 -19 88 10 41 14 76 25 79 25 3 0 2 -37 -2 -83 -8 -97 10 -189 51 -250 40
-60 39 -61 78 183 14 85 29 173 35 194 5 22 8 43 6 47 -5 7 59 20 194 39 157
22 414 40 588 40 176 0 211 6 186 31 -16 16 -321 18 -488 4z"/>
<path d="M5150 10035 c-98 -17 -415 -38 -456 -31 -30 6 -32 4 -37 -26 -3 -18
-8 -78 -11 -133 -14 -250 -18 -310 -21 -313 -9 -10 -38 68 -55 150 -40 189
-39 188 -138 122 -40 -27 -72 -55 -72 -61 0 -21 15 -15 79 27 33 22 62 40 64
40 6 0 14 -30 37 -139 21 -99 48 -159 82 -180 37 -23 35 -38 54 333 3 65 8
124 10 131 4 9 47 15 147 19 78 4 195 14 260 22 64 8 129 11 142 8 22 -5 25
-3 25 20 0 30 1 30 -110 11z"/>
<path d="M7770 9873 c-79 -4 -94 -10 -81 -31 6 -11 31 -11 134 -1 115 11 128
11 152 -5 32 -21 52 -9 31 19 -15 21 -82 26 -236 18z"/>
<path d="M2923 9838 c-26 -6 -43 -15 -43 -23 0 -20 20 -29 33 -16 15 15 74 14
80 -1 8 -22 -13 -49 -49 -64 -43 -18 -40 -40 5 -36 31 3 61 -11 61 -29 0 -19
-66 -49 -109 -49 -41 0 -43 1 -38 25 5 28 -10 29 -27 2 -27 -43 38 -72 113
-51 80 23 117 85 71 117 -20 14 -20 15 -3 44 16 28 16 32 1 55 -21 31 -41 37
-95 26z"/>
<path d="M3594 9839 c-10 -16 14 -35 27 -22 6 6 23 8 45 3 33 -8 316 -3 342 6
7 2 10 8 7 14 -9 14 -412 13 -421 -1z"/>
<path d="M6585 9816 c-41 -18 -101 -87 -110 -124 -18 -84 55 -103 142 -36 l33
25 0 -34 c0 -48 28 -70 86 -69 57 2 84 10 84 25 0 8 -22 12 -67 12 l-68 0 -5
75 c-5 79 -25 133 -50 137 -8 1 -28 -3 -45 -11z m54 -87 c-26 -51 -116 -98
-133 -70 -17 27 38 105 89 126 28 12 30 12 41 -13 6 -16 8 -34 3 -43z"/>
<path d="M4994 9778 c-60 -56 -65 -144 -8 -170 25 -12 31 -10 95 16 11 5 18 1
22 -14 7 -26 67 -53 85 -38 6 6 12 15 12 20 0 5 -6 8 -12 7 -27 -3 -38 2 -54
26 -15 24 -15 26 10 56 22 26 26 40 24 77 -3 48 -25 69 -35 33 l-5 -21 -25 20
c-36 28 -68 25 -109 -12z m96 -18 c26 -26 18 -65 -21 -102 -52 -49 -96 -29
-86 40 6 38 45 82 73 82 8 0 23 -9 34 -20z"/>
<path d="M8816 9786 c-91 -38 -143 -99 -130 -151 12 -48 92 -43 164 10 l35 26
6 -37 c7 -39 39 -74 68 -74 34 0 91 21 91 34 0 10 -13 12 -50 8 -32 -3 -55 0
-65 8 -19 16 -19 61 0 107 17 41 19 73 5 73 -6 0 -14 -8 -17 -17 -6 -15 -8
-14 -13 7 -8 33 -24 34 -94 6z m73 -38 c13 -20 11 -24 -25 -55 -61 -52 -154
-79 -154 -46 0 25 46 76 87 97 60 31 75 32 92 4z"/>
<path d="M2514 9722 c-54 -40 -76 -75 -72 -119 2 -25 11 -42 29 -56 26 -18 28
-18 63 -2 20 10 45 29 56 43 l20 25 0 -42 c0 -57 29 -85 78 -77 36 5 71 30 60
42 -4 3 -23 1 -43 -6 -59 -19 -69 -3 -61 96 6 78 5 82 -18 97 -46 30 -69 30
-112 -1z m93 -27 c6 -18 -20 -65 -55 -98 -54 -52 -106 -15 -71 51 30 54 111
85 126 47z"/>
<path d="M7885 9739 c-27 -5 -96 -10 -152 -11 -72 -2 -103 -7 -103 -15 0 -20
62 -25 175 -14 60 6 132 11 162 11 40 0 53 4 53 15 0 9 -9 15 -22 15 -13 0
-32 2 -43 4 -11 2 -42 0 -70 -5z"/>
<path d="M3700 9722 c-64 -7 -91 -14 -88 -24 2 -6 60 -11 148 -13 80 -2 156
-5 169 -7 37 -5 36 18 -1 27 -43 9 -196 21 -228 17z"/>
<path d="M5325 9629 c-4 -5 0 -18 8 -27 26 -30 29 -70 8 -116 -24 -56 -88
-126 -113 -126 -13 0 -18 -6 -16 -17 7 -34 32 -24 93 40 84 88 98 139 63 230
-11 27 -32 36 -43 16z"/>
<path d="M3900 9593 c-14 -2 -67 -11 -118 -20 -51 -8 -112 -13 -136 -11 -48 6
-73 -3 -62 -21 10 -16 108 -14 212 5 49 8 109 14 133 12 51 -3 67 16 26 32
-14 5 -27 9 -28 9 -1 -1 -13 -3 -27 -6z"/>
<path d="M7815 9589 c-29 -9 -138 -13 -180 -7 -12 2 -20 -3 -20 -12 0 -22 69
-30 155 -17 41 6 101 11 133 11 46 1 57 4 55 16 -4 18 -96 24 -143 9z"/>
<path d="M3718 9131 c-80 -71 -142 -276 -136 -455 2 -60 7 -91 16 -94 9 -3 12
20 12 90 0 129 3 138 51 138 28 0 39 4 39 15 0 11 -11 15 -36 15 l-37 0 7 53
c8 60 65 181 103 215 20 18 32 21 59 16 38 -7 47 8 15 26 -32 17 -59 12 -93
-19z"/>
<path d="M13017 9131 c-96 -62 -133 -175 -89 -274 l21 -46 -64 2 c-89 3 -86
-16 4 -28 44 -6 76 -15 79 -23 8 -24 -7 -57 -39 -90 -25 -26 -38 -32 -57 -27
-19 5 -23 2 -20 -12 4 -22 39 -28 68 -13 33 18 80 90 80 123 0 28 2 29 31 23
17 -3 40 -6 49 -6 15 0 18 -8 17 -44 -1 -24 4 -50 12 -60 31 -37 134 -3 147
49 8 32 -8 120 -21 114 -5 -2 -9 -27 -7 -56 2 -45 -1 -54 -24 -72 -28 -22 -59
-27 -68 -12 -6 9 -8 53 -4 91 3 23 0 25 -37 25 -116 2 -112 0 -134 60 -12 31
-21 71 -21 91 0 66 46 136 111 170 33 17 45 12 51 -21 5 -30 34 -26 30 4 -3
30 -29 61 -52 61 -9 0 -37 -13 -63 -29z"/>
<path d="M5632 9116 c-27 -31 -31 -32 -35 -15 -3 10 -13 19 -22 19 -13 0 -16
-6 -11 -25 4 -14 -2 -49 -15 -85 -11 -33 -18 -68 -14 -78 6 -15 9 -14 28 10
12 14 32 43 45 65 13 21 36 54 52 73 l29 35 1 -82 c0 -69 3 -86 20 -103 24
-24 46 -26 54 -5 4 11 -3 19 -19 25 -24 9 -25 13 -25 93 0 85 -8 107 -41 107
-9 0 -30 -15 -47 -34z"/>
<path d="M5838 9129 c-20 -11 -24 -45 -7 -51 11 -4 7 -17 -56 -181 -36 -98
-66 -220 -74 -302 -4 -52 -10 -70 -21 -70 -8 0 -39 38 -68 85 -46 74 -76 149
-97 243 -9 45 -31 43 -93 -9 -59 -50 -72 -64 -72 -76 0 -20 32 -4 76 37 27 24
52 41 55 37 3 -4 14 -38 24 -75 19 -76 99 -217 145 -259 49 -45 67 -38 80 30
35 177 63 280 99 373 22 57 43 116 46 130 6 25 10 27 98 33 93 6 301 15 477
21 118 4 110 2 110 19 0 8 -10 18 -22 22 -30 9 -435 -5 -589 -22 -43 -4 -58
-2 -68 10 -16 19 -20 19 -43 5z"/>
<path d="M13900 9075 c0 -13 -5 -56 -12 -94 l-12 -70 -75 -3 c-58 -2 -76 -6
-76 -17 0 -11 15 -14 73 -12 l72 2 0 -59 c0 -78 9 -122 26 -122 10 0 12 18 7
86 l-6 87 97 -5 c90 -5 128 -15 98 -25 -6 -3 -15 -23 -19 -45 -4 -28 -12 -42
-24 -45 -12 -3 -19 -14 -19 -29 0 -21 5 -24 34 -24 l33 0 8 63 c13 115 12 120
-15 128 -14 4 -60 7 -104 8 l-79 1 7 48 c19 130 20 152 2 152 -10 0 -16 -8
-16 -25z"/>
<path d="M11368 9063 c-25 -28 -49 -92 -62 -168 -7 -38 -17 -69 -22 -68 -5 1
-17 5 -26 8 -14 5 -18 2 -18 -13 0 -12 9 -22 24 -26 22 -5 23 -9 22 -87 -1
-58 3 -83 12 -86 9 -3 12 11 12 50 0 69 10 118 22 111 17 -11 88 7 88 23 0 11
-10 14 -42 11 -38 -3 -43 0 -46 20 -6 40 18 129 45 163 14 19 23 26 20 17 -7
-21 5 -30 27 -22 19 7 20 24 4 59 -13 29 -38 32 -60 8z"/>
<path d="M11897 9038 c12 -65 8 -162 -12 -268 -10 -52 -20 -107 -22 -122 -4
-21 -1 -28 10 -28 17 0 29 36 42 120 14 88 80 218 101 198 15 -16 15 -97 0
-156 -25 -94 -5 -110 46 -38 l31 45 17 -22 c9 -12 20 -39 24 -59 12 -66 89
-102 167 -79 70 21 66 51 -5 31 -54 -15 -113 0 -125 33 -7 19 -2 23 43 38 76
26 97 62 63 107 -19 24 -64 14 -100 -23 -34 -35 -34 -35 -52 -15 -21 24 -51
26 -62 5 -6 -9 -8 10 -6 47 6 107 -41 153 -89 88 l-23 -32 -10 84 c-8 67 -13
84 -28 86 -15 3 -17 -1 -10 -40z m360 -234 c6 -17 -13 -33 -56 -46 -37 -11
-38 -1 -6 32 32 34 53 38 62 14z"/>
<path d="M8086 9029 c-19 -16 -38 -40 -43 -52 -6 -19 -8 -16 -13 17 -3 22 -10
41 -16 43 -8 3 -14 -36 -18 -124 -4 -70 -9 -170 -12 -220 -5 -78 -3 -93 9 -93
18 0 23 21 37 145 12 109 30 174 64 225 30 46 60 56 81 27 20 -29 19 -79 -5
-165 -37 -134 -21 -151 34 -35 l37 76 20 -39 c12 -21 30 -48 40 -60 10 -11 19
-34 19 -51 0 -46 29 -74 82 -83 59 -9 134 2 130 18 -1 7 5 15 13 18 19 8 20
34 0 34 -8 0 -24 -9 -35 -20 -15 -15 -33 -20 -71 -20 -63 0 -89 13 -89 46 0
14 4 23 9 20 16 -10 101 26 121 51 25 32 25 45 2 73 -25 30 -55 22 -110 -28
-48 -44 -51 -43 -94 38 -14 27 -30 44 -40 44 -12 -1 -16 6 -16 27 1 43 -22 88
-53 104 -38 20 -43 19 -83 -16z m377 -193 c8 -19 -12 -43 -46 -56 -57 -21 -64
-11 -20 30 45 43 58 48 66 26z"/>
<path d="M2766 8969 c-26 -23 -58 -62 -71 -88 l-24 -46 -1 51 c0 54 -16 114
-31 114 -15 0 -30 -40 -27 -73 2 -21 8 -31 17 -29 15 3 14 -34 -8 -218 -7 -54
-7 -88 -1 -94 15 -15 19 -5 45 106 28 124 53 182 105 238 77 83 105 20 51
-115 -17 -42 -31 -83 -31 -91 0 -21 28 -17 35 6 3 11 19 29 34 40 l29 20 38
-22 c36 -19 39 -24 39 -65 0 -33 5 -48 19 -59 22 -16 92 -18 151 -4 28 6 42 6
47 -3 14 -22 42 7 43 44 1 19 10 51 19 72 15 30 23 37 48 37 40 0 32 24 -9 28
-35 3 -61 -25 -82 -88 -14 -43 -46 -60 -127 -67 -56 -5 -63 -4 -74 16 -17 33
-4 57 38 69 45 14 85 53 80 79 -6 31 -42 26 -94 -13 l-48 -37 -43 23 c-23 12
-50 20 -59 16 -13 -5 -15 -2 -9 16 4 13 9 48 12 79 4 49 2 60 -16 78 -29 29
-42 27 -95 -20z m305 -169 c-13 -11 -28 -20 -33 -20 -6 0 0 9 13 20 13 10 29
19 34 19 6 0 -1 -9 -14 -19z"/>
<path d="M7224 8999 c-10 -17 23 -46 38 -31 8 8 8 15 -2 27 -15 18 -26 19 -36
4z"/>
<path d="M14112 8983 c2 -10 10 -18 18 -18 22 0 18 29 -3 33 -14 3 -18 -1 -15
-15z"/>
<path d="M8940 8958 c0 -30 13 -58 26 -58 15 0 17 12 8 48 -7 23 -34 31 -34
10z"/>
<path d="M9874 8901 c-49 -30 -74 -93 -74 -184 0 -71 2 -77 20 -77 19 0 20 4
14 64 -4 38 -2 77 5 97 14 42 74 93 100 84 57 -18 78 -12 47 14 -27 22 -79 23
-112 2z"/>
<path d="M7432 8888 c-74 -36 -103 -96 -64 -131 10 -10 22 -17 27 -17 4 0 23
-10 42 -21 31 -19 33 -23 18 -32 -10 -5 -44 -7 -76 -3 -46 4 -59 3 -59 -8 0
-19 22 -26 80 -26 64 0 100 14 100 39 0 22 -48 63 -93 80 -15 6 -27 17 -27 25
0 17 60 72 89 81 12 3 21 10 21 15 0 19 -18 18 -58 -2z"/>
<path d="M13610 8859 c-138 -83 -131 -160 14 -167 91 -5 167 27 126 53 -5 3
-10 -2 -10 -12 0 -12 -3 -14 -8 -6 -5 8 -13 9 -22 3 -8 -6 -42 -10 -76 -10
-65 0 -101 17 -91 42 8 23 71 68 114 83 21 7 37 17 36 22 -5 17 -49 13 -83 -8z"/>
<path d="M14284 8867 c-3 -8 4 -33 15 -56 12 -22 21 -45 21 -51 0 -16 -47 -30
-80 -23 -60 12 -60 78 1 90 40 8 38 32 -2 29 -33 -2 -79 -44 -79 -71 0 -74
113 -112 172 -58 23 21 23 44 -1 91 -10 20 -19 41 -19 47 -1 16 -22 18 -28 2z"/>
<path d="M14507 8838 c-37 -32 -48 -37 -45 -22 2 12 -3 19 -12 19 -14 0 -37
-81 -26 -92 3 -3 22 7 42 23 78 62 73 62 67 0 -7 -66 8 -90 60 -100 48 -9 131
15 135 38 3 15 0 17 -14 11 -37 -15 -96 -23 -123 -16 -21 6 -27 14 -29 43 -2
20 4 53 12 73 33 78 7 87 -67 23z"/>
<path d="M7217 8863 c-4 -3 -7 -46 -7 -95 0 -89 8 -106 38 -76 15 15 16 58 1
58 -8 0 -10 19 -6 60 4 44 2 60 -7 60 -7 0 -16 -3 -19 -7z"/>
<path d="M9394 8857 c-3 -8 -6 -55 -7 -105 -1 -50 -5 -94 -9 -98 -12 -12 -36
15 -43 49 -10 50 -45 117 -61 117 -16 0 -19 -26 -5 -35 5 -3 17 -31 26 -63 22
-75 40 -102 69 -102 37 0 50 26 57 119 4 47 9 95 10 106 5 23 -28 34 -37 12z"/>
<path d="M10053 8855 c-44 -19 -43 -47 2 -111 31 -43 45 -84 30 -84 -18 0 -65
33 -65 45 0 19 -19 30 -31 18 -28 -28 50 -93 111 -93 43 0 29 78 -25 142 -32
38 -28 50 21 64 21 6 38 15 37 20 -4 15 -46 15 -80 -1z"/>
<path d="M6069 8844 c-8 -10 -9 -21 -2 -36 9 -20 10 -20 26 -3 16 16 22 16 55
3 24 -9 38 -21 40 -34 4 -26 -39 -79 -81 -101 -28 -14 -31 -14 -43 2 -7 10
-15 23 -18 29 -3 7 -8 6 -15 -3 -6 -10 -5 -23 5 -43 18 -35 49 -36 98 -3 l36
24 0 -23 c0 -40 22 -49 105 -41 53 5 81 12 97 27 l23 19 -40 -5 c-150 -19
-144 -19 -151 -1 -9 21 17 76 62 130 18 23 34 47 34 54 0 22 -25 10 -50 -23
-23 -32 -25 -33 -38 -15 -17 24 -39 36 -90 48 -32 7 -44 6 -53 -5z"/>
<path d="M9123 8852 c-15 -10 -83 -151 -83 -174 0 -38 21 -15 56 62 20 44 40
80 45 80 21 0 31 -78 20 -145 -8 -44 -9 -71 -2 -78 24 -24 34 14 35 140 1 47
-4 68 -20 89 -23 31 -34 37 -51 26z"/>
<path d="M9612 8837 c-18 -12 -39 -32 -48 -44 -8 -13 -22 -23 -30 -23 -8 0
-14 -7 -14 -15 0 -8 4 -15 9 -15 5 0 14 -15 20 -33 6 -18 24 -40 40 -50 55
-32 161 -14 161 29 0 12 -5 12 -32 -2 -34 -18 -98 -15 -123 6 -25 20 -18 49
13 56 43 10 101 46 108 66 15 48 -48 62 -104 25z m68 -22 c-20 -19 -94 -50
-85 -35 10 16 67 50 85 50 13 0 13 -2 0 -15z"/>
<path d="M10262 8839 c-55 -28 -92 -88 -92 -151 0 -40 5 -50 32 -73 31 -26 37
-27 104 -22 77 6 146 34 164 66 13 25 -8 42 -22 17 -24 -43 -178 -72 -223 -42
-22 15 -26 23 -23 59 3 40 5 42 48 55 90 26 125 56 104 90 -16 25 -43 25 -92
1z m62 -24 c-4 -8 -18 -18 -33 -21 -14 -3 -32 -7 -38 -10 -23 -7 -13 6 20 26
38 24 59 26 51 5z"/>
<path d="M8941 8803 c-8 -130 -6 -158 9 -161 12 -2 16 11 18 60 2 35 4 81 5
103 1 29 -2 40 -14 43 -12 2 -16 -8 -18 -45z"/>
<path d="M3530 8825 c0 -9 9 -15 25 -15 16 0 25 6 25 15 0 9 -9 15 -25 15 -16
0 -25 -6 -25 -15z"/>
<path d="M3712 8823 c3 -19 48 -32 48 -14 0 10 -31 31 -45 31 -4 0 -5 -8 -3
-17z"/>
<path d="M3987 8827 c-22 -17 -28 -192 -6 -192 11 0 15 20 17 83 3 75 11 98
27 72 9 -15 47 -12 43 2 -3 7 -18 21 -35 30 -24 14 -33 15 -46 5z"/>
<path d="M3365 8802 c-16 -10 -37 -31 -45 -46 -12 -23 -19 -27 -42 -22 -23 4
-28 2 -28 -13 0 -12 9 -21 24 -25 14 -3 28 -15 31 -26 9 -30 41 -42 88 -35 61
9 77 15 77 27 0 6 7 16 16 23 16 11 16 12 0 18 -10 4 -24 -1 -35 -12 -22 -22
-90 -34 -108 -19 -21 17 -15 25 26 32 22 3 52 17 68 30 24 21 26 27 18 52 -13
36 -48 42 -90 16z m62 -29 c4 -11 -55 -43 -79 -43 -7 0 2 14 20 31 33 29 52
33 59 12z"/>
<path d="M3785 8810 c-3 -5 -3 -15 0 -20 4 -6 -7 -26 -24 -46 -52 -58 -38
-104 31 -104 50 0 98 25 98 50 0 11 -15 37 -33 57 -19 21 -37 46 -40 56 -7 19
-22 22 -32 7z m55 -88 c20 -25 20 -27 4 -39 -23 -17 -84 -17 -84 0 0 7 7 22
15 33 8 12 12 23 10 26 -2 2 5 4 15 5 11 1 29 -10 40 -25z"/>
<path d="M4204 8799 c-22 -10 -55 -32 -74 -48 -27 -24 -31 -34 -22 -43 7 -7
12 -23 12 -35 0 -13 11 -35 25 -48 28 -29 74 -32 171 -11 70 15 90 24 77 37
-6 6 -38 3 -82 -6 -94 -20 -124 -19 -144 3 -26 29 -22 52 11 52 75 0 140 40
127 78 -10 34 -56 43 -101 21z m71 -28 c7 -13 -20 -27 -68 -36 -45 -9 -50 7
-9 29 31 17 68 20 77 7z"/>
<path d="M13352 8805 c-22 -16 -62 -83 -62 -105 0 -22 31 -9 41 17 16 42 39
63 70 63 33 0 38 -11 31 -72 -3 -31 -1 -48 6 -48 15 0 19 9 27 60 5 37 3 50
-12 67 -25 29 -72 38 -101 18z"/>
<path d="M11050 8789 c0 -6 -11 -25 -25 -43 -44 -58 -27 -136 30 -136 55 0
115 44 115 85 0 12 -14 41 -30 63 -24 33 -36 42 -60 42 -17 0 -30 -5 -30 -11z
m80 -72 c14 -27 14 -29 -14 -53 -38 -34 -80 -30 -84 8 -8 70 66 104 98 45z"/>
<path d="M3510 8509 c0 -3 -9 -29 -20 -59 -24 -65 -25 -80 -5 -80 8 0 15 5 15
10 0 15 38 50 55 50 10 0 15 -10 15 -30 0 -53 62 -74 108 -37 18 15 -5 28 -32
18 -30 -12 -46 -3 -46 25 0 46 -18 67 -52 60 -25 -5 -28 -4 -19 8 9 10 8 16
-4 26 -8 7 -15 11 -15 9z"/>
<path d="M3100 8340 c-14 -14 -20 -31 -18 -48 4 -32 21 -32 28 0 11 46 70 29
70 -20 0 -30 -80 -111 -130 -132 -30 -12 -42 -40 -17 -40 17 0 96 52 128 84
l24 24 1 -30 c2 -43 18 -53 82 -51 68 3 92 10 92 27 0 10 -17 12 -70 8 -70 -5
-70 -5 -70 21 0 32 55 105 103 136 23 15 34 28 28 34 -16 16 -47 -2 -95 -53
-46 -49 -46 -49 -46 -21 0 62 -70 101 -110 61z"/>
<path d="M5685 7671 c-11 -18 3 -28 46 -34 22 -3 43 -8 46 -10 9 -10 -15 -43
-42 -57 -21 -11 -25 -20 -22 -39 5 -27 -12 -69 -36 -89 -21 -18 -64 1 -85 38
-28 49 -57 36 -30 -13 21 -41 77 -72 113 -63 23 6 75 81 75 109 0 11 14 35 31
54 49 56 31 89 -58 108 -18 3 -34 2 -38 -4z"/>
<path d="M8234 7607 c-3 -8 -4 -25 -2 -38 1 -13 -2 -50 -6 -82 -6 -42 -5 -61
4 -72 18 -22 22 -13 28 52 8 112 7 146 -5 150 -7 3 -16 -2 -19 -10z"/>
<path d="M4253 7598 c-30 -14 -35 -34 -15 -54 16 -17 17 -16 21 2 4 23 19 34
49 34 29 0 28 -17 -4 -42 l-25 -20 20 -22 c12 -12 21 -28 21 -34 0 -16 -44
-26 -83 -18 -63 12 -72 11 -72 -4 0 -17 93 -41 128 -33 48 12 71 55 48 92 -7
10 -3 23 10 39 23 30 23 36 3 56 -17 18 -68 20 -101 4z"/>
<path d="M8402 7532 c-135 -195 -189 -290 -178 -317 7 -20 26 -9 30 17 3 21
112 203 145 241 39 46 61 79 61 94 0 26 -26 10 -58 -35z"/>
<path d="M9216 7543 c-9 -58 -7 -141 4 -148 14 -9 17 7 24 103 5 66 4 82 -7
82 -9 0 -17 -15 -21 -37z"/>
<path d="M9441 7533 c-22 -27 -73 -86 -114 -133 -84 -98 -107 -129 -107 -147
0 -20 26 -15 36 6 10 21 157 201 212 259 33 36 38 47 23 56 -5 4 -27 -15 -50
-41z"/>
<path d="M2998 7554 c-25 -11 -38 -23 -38 -35 0 -23 16 -25 36 -4 9 8 27 15
41 15 23 0 24 -2 12 -17 -8 -10 -26 -28 -41 -41 -35 -30 -35 -48 -3 -56 31 -8
32 -34 4 -70 -23 -29 -59 -34 -83 -11 -19 19 -36 19 -36 1 0 -36 77 -59 121
-36 42 23 67 124 33 137 -13 5 -11 10 9 32 32 34 47 65 39 78 -12 20 -56 23
-94 7z"/>
<path d="M10155 7560 c-4 -6 -1 -18 6 -26 9 -11 8 -22 -6 -53 -10 -23 -14 -47
-10 -60 8 -26 29 -23 33 5 1 10 8 36 14 57 16 52 -14 114 -37 77z"/>
<path d="M10320 7552 c0 -5 -24 -36 -52 -69 -58 -67 -133 -197 -123 -213 12
-20 22 -9 59 65 21 41 64 104 97 141 32 38 56 71 53 76 -7 11 -34 10 -34 0z"/>
<path d="M6345 7481 c-44 -10 -123 -28 -175 -41 -65 -15 -114 -20 -156 -17
l-62 4 -6 -51 c-3 -28 -13 -70 -21 -92 -8 -23 -23 -97 -35 -165 -33 -200 -63
-319 -79 -319 -21 0 -28 248 -11 390 5 41 5 79 0 83 -12 13 -214 -94 -218
-115 -4 -22 33 -25 41 -4 4 9 126 76 141 76 0 0 1 -93 1 -207 0 -155 4 -216
14 -241 33 -79 81 4 117 204 14 77 34 177 45 224 11 47 25 106 30 131 l11 45
52 2 c28 0 107 14 176 30 69 17 160 36 203 43 50 8 77 17 77 26 0 18 -47 16
-145 -6z"/>
<path d="M4765 7463 c-16 -2 -70 -13 -119 -25 -72 -17 -93 -19 -108 -9 -31 19
-46 -3 -52 -77 -10 -105 -25 -190 -51 -277 -13 -44 -34 -125 -46 -180 -11 -55
-25 -107 -29 -115 -13 -23 -28 24 -45 142 -8 55 -20 119 -25 143 -5 24 -13 82
-16 130 -4 47 -10 88 -15 90 -4 3 -25 -10 -48 -29 -22 -19 -56 -44 -75 -55
-38 -24 -48 -41 -35 -62 8 -12 12 -10 27 7 19 23 96 84 106 84 3 0 6 -11 6
-24 0 -13 16 -116 35 -230 32 -193 53 -266 75 -266 18 0 44 66 71 180 15 63
41 171 58 240 17 69 36 154 43 189 7 35 17 65 23 66 173 43 219 49 355 52 110
2 145 5 145 15 0 10 -30 13 -125 14 -69 1 -138 0 -155 -3z"/>
<path d="M8525 7451 c-26 -4 -40 -11 -40 -21 0 -12 11 -14 53 -12 31 2 52 0
52 -6 0 -16 -50 -52 -71 -52 -31 0 -30 -17 1 -44 l31 -25 -42 -31 c-23 -16
-50 -30 -61 -30 -10 0 -18 -7 -18 -15 0 -26 43 -17 98 20 54 37 65 62 37 85
-13 11 -11 16 20 37 45 30 50 78 9 93 -14 6 -26 9 -27 9 -1 -1 -20 -5 -42 -8z"/>
<path d="M9458 7403 c-21 -5 -24 -43 -4 -43 8 0 18 5 21 10 3 6 18 10 33 10
l27 -1 -37 -33 c-21 -18 -38 -38 -38 -43 0 -6 13 -16 30 -23 52 -22 57 -37 15
-57 -31 -15 -37 -15 -46 -3 -8 13 -10 13 -19 0 -27 -41 37 -53 90 -18 57 38
53 60 -18 104 -2 1 11 15 28 32 16 17 30 40 30 51 0 19 -6 21 -47 20 -27 -1
-56 -3 -65 -6z"/>
<path d="M10326 7384 c-38 -21 -20 -44 20 -25 15 6 29 10 31 7 7 -7 -32 -68
-57 -91 -27 -25 -25 -35 8 -36 22 0 17 -6 -36 -31 -57 -27 -73 -48 -36 -48 20
0 107 45 122 63 10 12 10 18 -3 31 -14 14 -13 19 10 55 47 71 13 114 -59 75z"/>
<path d="M3465 7359 c-55 -4 -143 -10 -197 -14 l-96 -8 -5 -36 c-3 -20 -17
-137 -31 -261 -30 -258 -35 -290 -46 -269 -4 8 -22 70 -40 137 -30 116 -32
128 -22 190 12 71 11 78 -12 69 -19 -7 -116 -136 -116 -153 0 -27 20 -13 56
36 20 28 37 50 38 50 1 0 0 -17 -2 -38 -4 -41 48 -254 79 -329 42 -100 58 -42
99 352 9 92 28 205 33 205 1 0 61 7 132 15 156 18 280 19 324 4 39 -14 57 -1
38 25 -17 24 -104 33 -232 25z"/>
<path d="M8973 7091 c-53 -41 -87 -88 -98 -132 -5 -21 -2 -30 15 -42 28 -19
67 -9 119 32 l39 31 5 -30 c8 -35 48 -64 77 -55 28 9 26 35 -4 35 -35 0 -49
23 -42 65 8 43 0 75 -19 75 -8 0 -15 12 -17 27 -5 39 -20 38 -75 -6z m67 -36
c16 10 12 -7 -9 -38 -21 -32 -82 -77 -105 -77 -37 0 -8 62 54 117 33 30 35 30
42 12 4 -11 12 -17 18 -14z"/>
<path d="M3490 7071 c-19 -10 -50 -37 -68 -61 -64 -83 -20 -129 73 -76 43 23
45 24 45 5 0 -32 44 -69 83 -69 38 0 73 21 63 39 -5 8 -13 8 -26 1 -68 -36
-105 22 -66 102 15 30 15 33 -6 55 -26 28 -52 29 -98 4z m75 -21 c14 -22 -64
-92 -118 -105 -33 -9 -34 3 -5 41 44 57 107 90 123 64z"/>
<path d="M7964 7070 c-33 -22 -78 -80 -89 -117 -4 -15 0 -28 14 -42 23 -23 37
-21 99 20 l42 28 0 -43 c0 -60 24 -81 84 -72 33 5 47 13 51 27 9 29 3 31 -33
13 -18 -8 -40 -14 -50 -12 -17 3 -20 36 -11 143 3 28 0 39 -8 38 -7 -2 -13 3
-13 11 0 14 -21 26 -43 26 -7 0 -26 -9 -43 -20z m22 -96 c-51 -47 -76 -55 -76
-26 0 23 57 91 84 102 16 6 23 3 31 -13 8 -17 2 -27 -39 -63z"/>
<path d="M9865 7071 c-16 -10 -49 -39 -72 -64 -34 -36 -43 -54 -43 -82 0 -31
3 -35 25 -35 31 0 96 31 116 56 13 16 14 13 19 -31 3 -29 11 -52 21 -58 23
-14 89 0 89 20 0 9 8 22 18 29 13 10 14 15 5 25 -10 9 -18 5 -42 -19 -16 -18
-36 -32 -45 -32 -23 0 -21 61 4 110 23 46 25 60 7 60 -8 0 -22 9 -32 20 -22
25 -32 25 -70 1z m55 -51 c0 -21 -106 -100 -135 -100 -27 0 39 91 89 121 31
19 46 13 46 -21z"/>
<path d="M4753 7068 c-23 -6 -40 -21 -58 -52 -31 -54 -32 -81 -1 -102 23 -14
28 -14 70 5 25 11 46 16 46 11 0 -23 34 -40 80 -40 56 0 80 7 80 25 0 8 -19
12 -62 11 -56 -1 -63 1 -66 20 -2 11 4 33 12 49 14 27 14 31 -4 47 -29 27 -61
36 -97 26z m63 -43 c14 -13 12 -18 -13 -41 -32 -30 -71 -47 -90 -40 -10 4 -10
12 -2 33 22 60 72 82 105 48z"/>
<path d="M6163 7058 c-47 -34 -85 -96 -72 -119 12 -23 34 -24 73 -4 36 19 36
19 36 -3 0 -30 21 -42 72 -42 35 0 48 4 48 14 0 8 3 21 6 30 8 21 -19 21 -40
1 -8 -8 -24 -15 -37 -15 -19 0 -21 4 -16 36 3 20 13 44 22 54 22 24 19 45 -10
58 -36 17 -46 15 -82 -10z m61 -16 c6 -10 -61 -76 -86 -85 -30 -10 -20 13 21
54 38 39 55 47 65 31z"/>
<path d="M6962 7063 c-44 -3 -53 -7 -50 -21 2 -10 12 -16 23 -15 11 1 51 4 88
6 73 5 90 12 67 27 -15 10 -25 10 -128 3z"/>
<path d="M7060 6939 c-19 -5 -66 -8 -105 -7 -55 1 -70 -2 -70 -13 0 -11 20
-14 100 -13 96 0 145 12 145 34 0 12 -22 11 -70 -1z"/>
<path d="M6666 6618 c-3 -13 -8 -43 -11 -68 -4 -25 -9 -60 -12 -78 -5 -33 12
-67 29 -56 5 3 7 16 4 28 -3 12 -1 38 4 57 4 19 11 58 15 87 6 43 4 52 -9 52
-9 0 -18 -10 -20 -22z"/>
<path d="M5564 6575 c-8 -20 5 -157 16 -175 17 -28 28 3 20 55 -5 28 -9 69 -9
93 -1 41 -16 57 -27 27z"/>
<path d="M6844 6512 c-40 -42 -102 -113 -139 -157 -37 -44 -76 -87 -87 -96
-12 -10 -19 -24 -16 -39 4 -31 24 -37 33 -10 8 26 184 237 254 305 50 48 64
76 39 74 -7 0 -45 -35 -84 -77z"/>
<path d="M5754 6528 c-16 -12 -32 -27 -36 -32 -4 -6 -62 -65 -130 -133 -91
-91 -119 -126 -111 -134 8 -8 52 29 168 146 96 96 153 161 148 166 -6 6 -21 1
-39 -13z"/>
<path d="M4609 6533 c-1 -5 -3 -24 -4 -43 -8 -111 -15 -126 -61 -149 -25 -11
-51 -21 -59 -21 -8 0 -15 -7 -15 -15 0 -21 33 -19 80 5 22 11 47 20 58 20 10
0 22 4 28 9 5 6 37 24 72 41 34 17 62 35 62 39 0 15 -43 5 -97 -23 -60 -30
-61 -28 -42 49 12 46 6 95 -11 95 -6 0 -11 -3 -11 -7z"/>
<path d="M6246 6498 c-3 -13 -9 -53 -12 -90 -7 -66 -8 -68 -35 -68 -15 0 -31
5 -34 10 -10 17 -25 11 -25 -9 0 -19 25 -31 68 -31 18 0 22 -5 22 -33 0 -38
22 -73 38 -63 15 9 16 36 2 36 -5 0 -10 15 -10 34 0 33 2 35 43 41 49 7 97 24
97 35 0 14 -13 18 -34 11 -11 -5 -41 -11 -65 -15 l-44 -7 6 48 c4 26 9 65 13
86 5 29 3 37 -9 37 -8 0 -17 -10 -21 -22z"/>
<path d="M8866 6481 c-3 -5 -7 -54 -8 -109 -3 -85 0 -104 14 -119 14 -14 20
-15 30 -5 10 10 10 15 -1 21 -10 7 -12 33 -9 115 2 79 0 106 -9 106 -6 0 -14
-4 -17 -9z"/>
<path d="M5125 6450 c-3 -5 -3 -25 0 -44 7 -33 6 -34 -25 -33 -49 3 -49 -20
-1 -28 38 -6 41 -9 41 -38 0 -18 4 -38 9 -46 15 -24 30 -2 24 35 -7 44 5 54
67 54 25 0 51 4 59 9 23 15 3 30 -34 25 -116 -14 -103 -18 -111 32 -6 43 -16
55 -29 34z"/>
<path d="M6948 6422 c-16 -2 -28 -10 -28 -17 0 -10 17 -15 58 -17 l57 -3 -42
-30 c-23 -16 -42 -34 -43 -39 0 -5 15 -22 33 -37 27 -24 30 -30 17 -39 -31
-21 -80 -23 -101 -4 -15 14 -22 15 -32 5 -9 -10 -7 -17 13 -33 19 -15 35 -19
67 -15 83 9 119 60 73 102 -20 18 -19 18 15 56 37 41 43 57 23 64 -22 7 -82
11 -110 7z"/>
<path d="M5752 6364 c-18 -7 -32 -20 -32 -29 0 -18 13 -19 39 -3 19 12 51 5
51 -10 0 -5 -18 -17 -40 -27 -63 -28 -46 -55 36 -55 18 0 42 -8 54 -18 19 -16
21 -22 11 -40 -17 -31 -48 -45 -87 -37 -35 6 -43 -2 -22 -23 24 -24 78 -14
114 22 56 56 39 110 -40 123 -35 5 -36 6 -16 20 22 16 27 55 8 70 -25 19 -44
21 -76 7z"/>
<path d="M4697 6323 c-13 -12 -7 -43 8 -43 8 0 15 5 15 10 0 11 30 13 55 4 14
-6 13 -9 -6 -30 -25 -27 -21 -34 24 -50 41 -14 44 -29 8 -44 -30 -12 -68 -10
-103 5 -12 5 -18 3 -18 -7 0 -44 94 -53 151 -15 43 29 44 57 4 77 -28 14 -30
18 -20 44 8 23 6 30 -10 42 -19 14 -96 19 -108 7z"/>
<path d="M9865 6188 c-104 -54 -151 -154 -90 -194 24 -16 29 -15 79 3 l54 20
20 -26 c18 -25 24 -26 100 -24 52 1 93 8 113 18 37 19 27 41 -12 27 -13 -5
-53 -12 -88 -16 -52 -6 -66 -4 -82 10 -24 22 -24 46 1 69 22 20 56 102 46 112
-13 14 -40 -14 -75 -76 -25 -47 -43 -67 -67 -77 -72 -30 -101 -7 -69 53 22 40
91 84 126 81 18 -2 25 2 27 20 4 29 -27 29 -83 0z"/>
<path d="M9340 6170 c-102 -7 -120 -12 -120 -37 0 -11 5 -13 18 -7 9 4 58 9
107 12 87 4 120 13 100 30 -6 4 -53 5 -105 2z"/>
<path d="M7930 6161 c-61 -5 -75 -9 -78 -24 -3 -16 2 -17 45 -12 26 3 80 7
118 8 66 2 90 11 79 29 -5 8 -40 8 -164 -1z"/>
<path d="M8584 6151 c-42 -25 -92 -89 -104 -130 -18 -67 26 -91 92 -51 43 26
44 25 52 -10 3 -17 13 -33 22 -37 21 -8 84 14 106 38 26 27 7 31 -40 8 -63
-31 -71 -16 -47 84 6 21 4 27 -8 27 -9 0 -18 -9 -22 -19 -6 -19 -94 -81 -115
-81 -20 0 -9 48 20 88 40 56 90 82 90 47 0 -8 7 -15 15 -15 18 0 20 41 3 58
-16 16 -28 15 -64 -7z"/>
<path d="M4264 6144 c-82 -43 -122 -136 -76 -177 25 -23 41 -21 96 8 l46 24 0
-28 c0 -16 6 -33 13 -38 18 -15 57 -23 57 -12 0 5 3 8 8 7 4 -2 9 1 12 7 3 5
-8 12 -25 15 -36 6 -44 34 -21 79 20 38 20 51 1 51 -8 0 -15 -4 -15 -10 0 -12
-96 -75 -128 -85 -47 -14 -41 54 9 104 39 40 57 39 61 -1 3 -33 22 -49 30 -26
9 24 -4 78 -21 88 -12 6 -27 4 -47 -6z"/>
<path d="M3051 6109 c-62 -11 -66 -13 -58 -32 4 -12 16 -12 78 1 53 11 81 12
106 4 26 -8 33 -7 33 4 0 32 -54 40 -159 23z"/>
<path d="M9408 6095 c-3 -3 -40 -9 -83 -13 -50 -4 -80 -12 -83 -20 -3 -10 19
-12 102 -10 58 1 106 6 106 10 0 28 -26 49 -42 33z"/>
<path d="M8049 6055 c-3 -2 -52 -7 -110 -11 -102 -5 -133 -15 -113 -33 10 -10
207 4 229 17 8 4 11 13 6 20 -4 7 -10 10 -12 7z"/>
<path d="M3080 5978 c-41 -4 -88 -5 -103 -2 -24 5 -28 3 -25 -13 3 -15 12 -18
53 -17 81 1 179 7 193 12 19 7 14 24 -5 20 -10 -1 -22 0 -28 3 -5 3 -44 2 -85
-3z"/>
<path d="M6792 5655 c-18 -25 -51 -54 -74 -66 l-41 -21 7 34 c3 18 15 40 25
49 15 12 17 19 8 28 -26 26 -44 6 -66 -77 -12 -42 -28 -52 -84 -52 -19 0 -27
-4 -24 -12 2 -8 21 -13 46 -12 l41 1 -2 -66 c-2 -52 1 -66 12 -66 11 0 16 16
18 67 l3 67 47 21 c26 12 59 33 74 47 l27 26 -14 -54 c-17 -63 -19 -105 -5
-114 5 -3 26 10 46 29 21 20 40 36 44 36 12 0 30 -24 30 -41 0 -22 18 -35 31
-22 13 13 -9 71 -31 83 -29 15 -52 12 -77 -11 l-22 -22 24 92 c30 110 29 101
8 101 -10 -1 -33 -21 -51 -45z"/>
<path d="M9778 5613 c-23 -26 -77 -138 -108 -223 -21 -58 -33 -76 -49 -78 -25
-4 -28 -27 -5 -40 13 -7 10 -22 -25 -115 -23 -59 -41 -110 -41 -113 0 -3 7 -4
16 -2 16 3 39 55 87 195 21 61 22 62 64 69 24 3 43 9 43 13 0 4 10 7 21 7 12
-1 24 5 27 13 4 11 -5 13 -47 7 -28 -4 -58 -9 -66 -13 -19 -7 17 97 68 196 35
68 46 76 62 42 20 -44 39 -19 20 27 -16 36 -43 42 -67 15z"/>
<path d="M8622 5423 c-6 -42 -13 -78 -15 -79 -2 -2 -40 -6 -85 -10 -46 -4 -85
-11 -88 -16 -13 -20 14 -25 85 -17 40 6 75 8 78 6 2 -2 -10 -43 -27 -90 -33
-95 -38 -137 -15 -137 9 0 15 9 15 21 0 11 14 63 32 115 30 89 33 94 60 94 18
0 28 5 28 15 0 9 -9 15 -25 15 -29 0 -28 -4 -10 80 18 83 18 80 -3 80 -14 0
-20 -14 -30 -77z"/>
<path d="M4686 5478 c-3 -7 -13 -69 -24 -138 -12 -69 -35 -163 -52 -210 -36
-100 -39 -111 -23 -117 6 -2 26 21 45 52 18 31 51 84 73 118 l40 62 5 -68 c4
-57 9 -72 29 -88 26 -21 53 -24 80 -9 15 8 17 6 13 -15 -7 -40 22 -75 63 -75
73 0 155 55 155 104 0 25 -19 19 -32 -10 -22 -48 -138 -86 -152 -49 -13 34 7
76 56 117 71 59 87 118 33 118 -31 0 -50 -20 -85 -89 -36 -72 -81 -98 -114
-65 -12 11 -16 36 -16 95 0 43 -4 79 -9 79 -25 0 -45 -17 -77 -64 -35 -52 -41
-55 -25 -12 6 13 17 71 26 128 8 57 18 113 21 126 5 16 2 22 -10 22 -9 0 -18
-6 -20 -12z m288 -279 c-24 -27 -30 -15 -9 18 12 17 20 23 23 15 2 -7 -4 -22
-14 -33z"/>
<path d="M14107 5418 c-54 -154 -99 -272 -121 -317 -39 -76 -36 -81 31 -75 88
8 156 52 172 110 21 76 -28 114 -95 75 -33 -19 -36 -20 -29 -4 19 47 85 244
85 253 0 5 -6 10 -13 10 -7 0 -20 -24 -30 -52z m48 -258 c0 -28 -7 -40 -43
-67 -39 -29 -102 -46 -102 -27 0 34 109 139 134 131 6 -2 11 -19 11 -37z"/>
<path d="M4475 5429 c-89 -25 -153 -37 -302 -55 -29 -3 -43 -10 -43 -20 0 -11
11 -13 58 -8 154 16 284 36 350 53 39 10 72 15 72 10 0 -5 7 -9 15 -9 18 0 20
31 3 48 -17 17 -38 14 -153 -19z"/>
<path d="M14793 5370 c-37 -9 -120 -59 -150 -92 -35 -38 -93 -141 -93 -165 0
-32 23 -29 37 5 7 15 16 34 21 42 5 8 18 33 29 55 13 26 41 54 82 83 53 35 71
42 112 42 35 0 49 4 49 14 0 11 -33 28 -50 25 -3 -1 -19 -4 -37 -9z"/>
<path d="M11460 5336 c0 -17 5 -26 16 -26 10 0 14 7 12 22 -5 32 -28 35 -28 4z"/>
<path d="M4352 5268 c-39 -120 -53 -266 -26 -275 7 -2 13 23 17 69 4 40 16
107 27 148 34 119 34 120 18 120 -10 0 -23 -23 -36 -62z"/>
<path d="M6365 5308 c-11 -6 -37 -26 -59 -44 -32 -28 -42 -31 -59 -23 -14 8
-23 8 -32 -3 -13 -13 -65 -163 -65 -186 0 -30 29 -6 73 63 47 72 135 165 157
165 11 0 7 -25 -15 -100 -28 -90 -29 -116 -6 -139 24 -24 53 -27 71 -6 16 19
3 40 -16 24 -10 -8 -17 -9 -28 0 -14 12 -12 36 19 149 25 96 12 130 -40 100z
m-127 -118 c-7 -10 -14 -18 -15 -16 -6 6 9 36 18 36 5 0 4 -9 -3 -20z"/>
<path d="M13141 5255 c-42 -26 -65 -51 -98 -107 -42 -70 -56 -124 -30 -116 6
2 28 35 49 73 33 64 113 154 124 142 3 -3 -8 -35 -25 -71 -34 -72 -39 -107
-16 -126 22 -18 36 -4 23 24 -8 20 -5 36 21 91 31 65 37 115 16 122 -6 2 -35
-13 -64 -32z"/>
<path d="M13397 5272 c-22 -24 -67 -123 -67 -147 0 -26 18 -45 42 -45 43 0
148 124 148 175 0 30 -27 14 -38 -24 -8 -23 -30 -55 -57 -80 -70 -65 -82 -53
-40 38 14 30 35 61 46 69 20 14 17 32 -5 32 -7 0 -20 -8 -29 -18z"/>
<path d="M7833 5245 c-13 -9 -30 -15 -40 -13 -12 2 -19 -6 -24 -27 -3 -16 -16
-50 -28 -75 -21 -46 -28 -105 -12 -114 14 -9 28 15 51 91 26 86 61 123 117
123 23 0 33 4 31 13 -7 18 -70 20 -95 2z"/>
<path d="M8260 5250 c0 -5 0 -12 -1 -15 0 -2 -13 -18 -29 -35 -43 -46 -56 -94
-35 -126 13 -21 22 -24 43 -19 88 21 133 111 89 179 -17 26 -67 38 -67 16z
m53 -73 c0 -49 -59 -103 -92 -83 -16 10 7 63 38 89 15 12 25 29 23 37 -3 12
-1 11 13 -2 10 -9 18 -27 18 -41z"/>
<path d="M9413 5245 c-66 -28 -112 -169 -64 -195 29 -15 37 -13 75 21 40 35
54 82 38 128 -8 24 -8 29 3 25 18 -7 31 16 14 27 -19 12 -28 11 -66 -6z m23
-67 c12 -38 -23 -98 -58 -98 -24 0 -24 45 1 86 21 34 48 40 57 12z"/>
<path d="M10395 5251 c-68 -28 -139 -216 -89 -235 18 -7 59 13 103 50 l31 26
0 -26 c0 -39 39 -60 96 -52 53 7 124 43 124 63 0 18 -8 17 -64 -12 -106 -54
-153 -19 -111 83 20 47 14 73 -24 95 -32 19 -37 19 -66 8z m69 -50 c13 -20
-106 -151 -138 -151 -32 0 46 164 82 173 18 4 47 -7 56 -22z"/>
<path d="M14355 5241 c-16 -10 -45 -32 -64 -49 -18 -18 -39 -32 -46 -32 -18 0
-28 -17 -16 -24 5 -4 7 -22 4 -41 -8 -52 8 -65 83 -65 64 0 84 11 65 34 -9 10
-8 15 4 20 9 3 13 10 10 16 -10 15 -35 12 -35 -5 0 -8 -5 -15 -11 -15 -5 0 -7
-4 -4 -10 4 -6 -10 -10 -34 -10 -22 0 -43 5 -46 10 -13 21 6 49 38 56 82 17
145 72 132 114 -8 25 -40 26 -80 1z m45 -26 c0 -8 -24 -27 -52 -41 -51 -26
-52 -26 -33 -4 16 19 73 60 83 60 1 0 2 -7 2 -15z m-20 -165 c0 -5 -2 -10 -4
-10 -3 0 -8 5 -11 10 -3 6 -1 10 4 10 6 0 11 -4 11 -10z"/>
<path d="M8020 5218 c-65 -45 -92 -114 -59 -154 15 -19 69 -18 97 2 49 34 66
118 31 160 -16 19 -31 18 -69 -8z m56 -74 c-9 -35 -42 -64 -71 -64 -21 0 -25
5 -25 29 0 35 33 79 63 83 27 4 41 -16 33 -48z"/>
<path d="M12270 5229 c-80 -32 -134 -150 -76 -165 32 -8 59 2 96 33 l30 25 0
-34 c0 -52 24 -78 71 -78 28 0 39 4 39 15 0 10 -10 15 -28 15 -51 0 -65 38
-40 108 12 33 12 35 -22 63 -38 32 -35 32 -70 18z m56 -40 c13 -21 -104 -115
-122 -97 -11 12 8 52 38 80 31 28 71 37 84 17z"/>
<path d="M13765 5190 l-51 -50 4 41 c4 41 4 42 -27 37 -17 -2 -32 0 -34 5 -13
39 -104 -69 -128 -151 -20 -69 2 -74 39 -9 28 49 109 133 120 123 2 -3 -5 -30
-17 -61 -12 -31 -21 -62 -21 -70 0 -27 24 -15 54 24 34 47 124 137 130 130 2
-2 -2 -35 -10 -74 -17 -90 -17 -97 2 -93 8 2 15 5 15 8 0 3 7 39 15 80 7 41
11 83 8 92 -10 32 -47 20 -99 -32z"/>
<path d="M11515 5185 c-68 -35 -75 -73 -23 -125 l29 -29 -26 -7 c-14 -3 -31
-1 -39 5 -17 14 -29 0 -20 -23 12 -32 114 -12 114 22 0 10 -13 31 -30 47 -16
16 -30 34 -30 41 0 16 53 54 75 54 20 0 15 24 -6 28 -8 1 -27 -5 -44 -13z"/>
<path d="M11370 5135 c0 -13 -9 -50 -21 -81 -15 -40 -18 -59 -10 -67 14 -14
52 70 59 130 4 35 2 43 -12 43 -10 0 -16 -9 -16 -25z"/>
<path d="M7045 4933 c-32 -82 -60 -150 -61 -151 -1 -2 -21 -6 -43 -9 -53 -7
-57 -33 -5 -33 29 0 34 -3 30 -17 -3 -10 -10 -39 -17 -66 -6 -26 -15 -50 -20
-53 -16 -9 -10 -24 10 -24 20 0 28 17 52 117 13 52 13 52 58 58 25 4 55 9 65
12 17 5 18 1 13 -41 -4 -25 -16 -64 -27 -86 -24 -47 -24 -50 -5 -50 24 0 57
79 63 147 5 71 5 71 -88 53 -25 -4 -46 -7 -48 -5 -4 4 89 238 99 250 14 14 11
45 -4 45 -8 0 -38 -62 -72 -147z"/>
<path d="M14817 5054 c-4 -4 -7 -17 -7 -30 0 -18 -69 -88 -129 -131 -3 -2 0
-8 6 -14 7 -7 29 4 69 35 62 46 82 73 86 115 3 24 -12 38 -25 25z"/>
<path d="M6861 4988 c-6 -29 -34 -101 -62 -160 -77 -167 -97 -268 -53 -268 12
0 15 6 10 24 -8 32 27 142 75 239 35 69 69 170 69 204 0 7 -6 13 -13 13 -8 0
-19 -22 -26 -52z"/>
<path d="M2705 4988 c-16 -48 -25 -102 -20 -118 3 -10 1 -21 -5 -25 -5 -3 -10
-21 -10 -38 0 -18 -9 -66 -21 -107 -33 -125 -33 -120 -16 -120 8 0 31 28 50
63 43 76 74 107 82 84 4 -8 0 -38 -9 -65 -12 -42 -12 -53 -1 -69 16 -21 16
-21 36 70 21 98 -14 136 -74 80 l-29 -28 5 40 c4 22 9 65 13 95 4 30 13 72 20
93 8 22 11 43 8 48 -8 13 -24 11 -29 -3z"/>
<path d="M4769 4953 c-1 -5 -2 -24 -4 -43 -1 -19 -24 -84 -50 -143 -34 -76
-45 -111 -38 -118 8 -8 22 1 49 31 21 23 50 48 65 55 26 14 28 13 54 -20 14
-19 34 -35 43 -35 10 0 22 -10 27 -22 8 -17 20 -24 49 -26 43 -4 117 20 137
44 21 25 0 28 -45 6 -56 -28 -116 -30 -116 -3 0 11 12 23 31 31 17 7 37 23 46
36 18 29 14 78 -8 82 -21 4 -87 -63 -95 -95 -9 -33 -29 -28 -55 13 -19 32 -25
35 -52 30 -17 -4 -42 -16 -55 -29 l-24 -22 27 60 c48 106 60 175 30 175 -8 0
-16 -3 -16 -7z m216 -193 c-10 -11 -23 -20 -28 -20 -6 0 0 11 13 25 27 29 42
25 15 -5z"/>
<path d="M9497 4898 c-14 -24 -38 -79 -53 -123 -15 -44 -28 -81 -29 -83 -1 -1
-28 -6 -61 -10 -32 -4 -58 -11 -59 -17 0 -15 74 -18 91 -4 19 15 19 -1 -1 -48
-18 -43 -19 -95 -3 -111 17 -17 63 -15 78 3 13 16 11 17 -30 19 -33 1 -37 29
-11 88 18 42 23 47 57 50 50 4 58 28 10 28 -20 0 -36 1 -36 3 0 20 53 151 74
181 14 22 25 44 23 50 -8 24 -27 14 -50 -26z"/>
<path d="M10360 4933 c-82 -12 -90 -15 -90 -29 0 -13 8 -14 43 -8 23 4 106 7
185 7 98 0 141 4 139 11 -2 6 -21 14 -43 18 -41 7 -190 8 -234 1z"/>
<path d="M7579 4908 c-1 -7 0 -24 0 -38 2 -25 -59 -211 -85 -262 -16 -32 -18
-64 -4 -73 6 -3 13 2 16 12 4 10 22 58 41 106 49 124 65 183 61 224 -3 34 -27
60 -29 31z"/>
<path d="M13357 4858 c-25 -35 -53 -80 -63 -101 -18 -38 -19 -38 -69 -35 -39
2 -50 0 -50 -12 0 -11 13 -16 46 -18 l45 -3 0 -50 c-1 -60 11 -70 74 -67 42 3
45 5 45 32 0 16 -6 31 -12 34 -8 2 -13 -5 -13 -17 0 -16 -6 -21 -29 -21 -33 0
-43 17 -35 59 l6 29 99 -1 c58 -1 100 2 101 8 2 6 -13 11 -32 12 -19 2 -63 6
-97 9 l-63 6 20 37 c10 21 35 59 54 85 38 48 42 61 27 71 -6 3 -30 -23 -54
-57z"/>
<path d="M3247 4903 c-6 -10 -88 -322 -90 -343 -4 -29 26 -14 37 19 13 40 96
105 104 82 3 -8 20 -30 38 -50 26 -29 35 -34 45 -24 10 11 7 19 -18 45 -17 18
-34 43 -38 56 -8 27 -49 30 -84 6 -22 -16 -23 -16 -17 2 3 11 14 55 25 99 10
44 22 88 26 98 5 12 2 17 -8 17 -9 0 -18 -3 -20 -7z"/>
<path d="M7264 4886 c-3 -9 -3 -24 1 -33 6 -17 7 -17 21 2 8 10 13 24 11 29
-6 17 -27 18 -33 2z"/>
<path d="M8291 4817 c-30 -45 -66 -95 -80 -110 -28 -31 -91 -70 -129 -82 -22
-6 -23 -5 -13 14 12 22 79 61 106 61 8 0 15 7 15 15 0 35 -100 -2 -139 -52
-26 -33 -24 -67 5 -71 28 -4 113 34 146 65 l27 25 6 -38 c11 -64 15 -74 41
-90 22 -15 28 -15 74 2 56 20 79 39 64 54 -6 6 -24 3 -49 -10 -56 -29 -83 -26
-92 8 -18 69 2 134 69 229 27 36 31 63 10 63 -4 0 -31 -37 -61 -83z"/>
<path d="M10929 4874 c-18 -19 -154 -94 -171 -94 -2 0 -3 11 -3 24 0 13 3 22
8 19 4 -2 7 12 7 31 0 40 -18 48 -37 17 -9 -14 -9 -21 -1 -23 8 -3 8 -14 -1
-40 -11 -32 -19 -39 -64 -54 -56 -18 -87 -39 -87 -61 0 -17 14 -17 30 1 12 15
78 41 85 34 2 -2 -6 -39 -18 -83 -19 -67 -26 -81 -45 -83 -28 -4 -28 -18 -1
-32 28 -15 46 1 60 54 6 22 20 68 31 101 20 60 20 60 82 83 33 13 78 35 99 49
l39 25 -7 -34 c-4 -18 -21 -65 -36 -105 -43 -107 -37 -117 37 -57 l44 37 21
-26 c23 -30 73 -43 111 -28 21 8 29 6 44 -10 16 -17 27 -20 69 -15 27 3 60 6
71 6 23 0 50 25 37 33 -5 3 -28 1 -53 -3 -59 -12 -82 -12 -100 0 -12 7 -12 12
4 28 19 22 20 103 0 109 -14 5 -46 -43 -54 -81 -11 -54 -94 -54 -119 0 -13 30
-46 31 -61 3 -21 -38 -21 -12 -1 47 29 87 37 154 19 154 -8 0 -25 -12 -39 -26z"/>
<path d="M2354 4861 c-48 -22 -124 -91 -124 -113 0 -9 7 -18 15 -22 9 -3 15 0
15 9 0 21 60 76 105 96 22 10 41 16 43 14 3 -2 -17 -32 -43 -67 -98 -130 -112
-197 -29 -133 18 14 35 25 37 25 2 0 5 -20 5 -45 1 -56 14 -81 46 -89 32 -8
65 5 98 40 36 39 46 69 49 150 2 54 -1 69 -12 69 -10 0 -15 -19 -20 -75 -3
-41 -10 -84 -16 -95 -20 -37 -50 -57 -80 -53 -28 3 -28 4 -31 76 -3 78 -10 85
-52 55 -22 -15 -21 -12 8 27 65 87 84 120 78 135 -7 20 -42 19 -92 -4z"/>
<path d="M13660 4845 c0 -16 6 -25 15 -25 9 0 15 9 15 25 0 16 -6 25 -15 25
-9 0 -15 -9 -15 -25z"/>
<path d="M2947 4833 c-9 -9 -9 -41 1 -46 4 -3 18 -1 31 4 23 9 23 10 6 29 -19
21 -28 24 -38 13z"/>
<path d="M14441 4818 c-38 -20 -48 -43 -33 -78 6 -16 17 -43 24 -58 23 -57
-12 -106 -74 -104 -35 1 -45 -14 -18 -28 41 -22 118 22 134 77 5 15 -2 44 -20
83 -30 68 -28 75 29 87 21 5 39 13 40 18 3 15 -55 17 -82 3z"/>
<path d="M7745 4810 c-8 -13 37 -31 49 -20 4 5 5 13 2 19 -9 14 -43 14 -51 1z"/>
<path d="M5302 4790 c-17 -11 -52 -41 -77 -67 -25 -25 -47 -44 -49 -42 -3 3 2
24 10 48 16 47 12 64 -10 40 -11 -12 -57 -167 -56 -191 0 -17 28 -6 38 15 16
35 131 156 163 173 27 13 29 13 29 -3 0 -9 -10 -47 -21 -83 -23 -71 -20 -120
7 -120 12 0 14 7 9 29 -4 18 2 51 15 89 39 111 15 157 -58 112z"/>
<path d="M11475 4791 c-56 -34 -132 -191 -92 -191 15 0 47 55 47 80 0 11 17
37 38 60 43 44 73 50 122 25 29 -15 45 -9 32 11 -23 36 -100 44 -147 15z"/>
<path d="M10287 4792 c-20 -3 -27 -8 -25 -20 3 -9 8 -16 14 -15 5 1 94 4 197
7 186 6 212 9 202 26 -5 8 -322 9 -388 2z"/>
<path d="M7340 4777 c-30 -15 -96 -101 -105 -136 -4 -14 -26 -70 -51 -124 -46
-104 -52 -127 -31 -127 7 0 33 40 57 89 24 50 47 88 52 85 18 -11 67 8 98 39
70 68 88 129 50 167 -23 23 -36 24 -70 7z m55 -38 c22 -35 -58 -139 -107 -139
-26 0 -29 3 -23 23 11 36 54 105 73 116 22 14 49 14 57 0z"/>
<path d="M14135 4764 c-22 -15 -45 -34 -51 -43 -42 -59 -47 -62 -82 -50 -31
11 -33 14 -27 45 8 47 -14 45 -71 -8 -42 -39 -45 -40 -39 -16 15 60 -36 93
-86 57 -38 -27 -89 -105 -89 -136 0 -42 32 -22 44 28 7 33 58 89 80 89 23 0
21 -57 -4 -98 -19 -31 -19 -52 -1 -52 5 0 35 25 67 55 53 50 60 53 68 36 5
-11 27 -24 53 -32 25 -7 56 -23 69 -36 16 -16 35 -23 63 -23 36 0 40 3 46 31
9 40 -2 49 -24 20 -14 -19 -24 -22 -45 -17 -38 9 -32 21 24 44 33 14 56 32 70
54 42 69 4 99 -65 52z m45 -23 c-14 -26 -59 -61 -79 -61 -10 1 -1 15 28 40 47
43 68 51 51 21z"/>
<path d="M4311 4750 c-59 -32 -91 -58 -91 -72 0 -16 25 -7 79 27 30 19 56 33
59 31 2 -3 -22 -38 -53 -80 -67 -89 -70 -119 -8 -87 21 10 55 33 77 50 21 17
43 31 47 31 5 0 18 -18 29 -40 17 -33 26 -40 50 -40 39 0 58 36 61 120 2 54 0
66 -14 68 -14 3 -17 -6 -17 -58 0 -60 -12 -100 -30 -100 -5 0 -19 18 -31 40
-27 47 -53 52 -96 17 -62 -50 -66 -50 -30 -2 48 64 61 90 54 109 -9 22 -24 20
-86 -14z"/>
<path d="M6480 4740 c-13 -47 -7 -73 23 -100 28 -26 75 -25 110 3 30 24 61 96
47 111 -13 13 -27 -1 -33 -33 -13 -64 -82 -93 -113 -46 -13 20 -14 31 -5 56
14 42 14 49 -4 49 -8 0 -19 -17 -25 -40z"/>
<path d="M12514 4763 c-13 -38 -41 -87 -86 -146 -26 -34 -47 -68 -48 -74 0
-28 30 -9 118 71 91 84 158 133 168 124 2 -3 -5 -27 -17 -54 -26 -61 -30 -132
-8 -146 9 -7 38 -8 72 -4 50 7 57 10 57 30 0 12 5 27 12 34 18 18 1 27 -28 13
-16 -7 -24 -17 -20 -26 6 -16 -29 -30 -61 -23 -24 5 -20 51 12 128 14 33 25
66 25 75 0 40 -92 -2 -180 -82 l-43 -38 33 53 c30 49 34 82 10 82 -6 0 -13 -8
-16 -17z"/>
<path d="M6299 4730 l-47 -40 -6 25 c-9 34 -39 49 -68 34 -60 -30 -118 -110
-118 -160 0 -38 26 -18 58 45 35 67 73 99 94 78 9 -9 9 -22 1 -55 -12 -42 -4
-65 16 -53 6 4 11 13 11 20 0 11 42 55 80 83 13 10 15 6 12 -29 -3 -27 0 -43
9 -49 24 -15 29 -10 27 29 -1 20 2 54 6 75 7 32 6 37 -10 37 -11 -1 -40 -19
-65 -40z"/>
<path d="M2871 4705 c-25 -67 -28 -135 -6 -135 10 0 15 11 15 35 0 19 9 58 20
86 10 29 17 56 14 61 -12 18 -24 5 -43 -47z"/>
<path d="M3018 4735 c-52 -35 -82 -87 -74 -130 9 -44 39 -65 93 -65 31 0 49 7
70 25 l28 25 -25 -5 c-14 -3 -37 -8 -52 -11 -45 -10 -75 2 -81 33 -7 37 17 75
64 104 38 24 51 49 26 49 -7 0 -29 -11 -49 -25z"/>
<path d="M7904 4730 c-43 -19 -81 -59 -90 -96 -9 -34 12 -64 45 -64 39 0 88
19 95 36 7 17 -18 18 -63 3 -21 -7 -36 -8 -42 -2 -18 18 2 39 54 58 66 23 79
33 75 59 -4 27 -24 29 -74 6z"/>
<path d="M13574 4695 c-26 -62 -39 -134 -27 -146 14 -14 36 -1 29 17 -6 15 21
114 35 129 14 14 11 35 -7 35 -8 0 -22 -16 -30 -35z"/>
<path d="M7651 4676 c-26 -41 -33 -111 -12 -111 8 0 15 9 16 20 4 41 17 85 26
85 5 0 9 9 9 20 0 30 -16 24 -39 -14z"/>
<path d="M9646 4669 c-35 -10 -86 -57 -86 -80 0 -44 81 -50 148 -9 65 40 16
111 -62 89z m61 -45 c4 -13 -66 -44 -97 -44 -30 0 -24 17 10 29 17 5 30 15 30
21 0 15 52 9 57 -6z"/>
<path d="M9941 4659 c-42 -17 -81 -50 -81 -69 0 -27 35 -43 78 -35 24 4 38 2
43 -7 19 -29 8 -48 -38 -72 -57 -29 -109 -81 -118 -117 -9 -36 22 -72 63 -71
74 2 131 69 132 154 0 35 2 38 38 44 20 4 61 15 89 25 40 13 61 15 85 8 65
-18 158 -5 158 22 0 8 -18 10 -64 5 -70 -7 -86 1 -56 29 23 21 25 44 7 69 -9
13 -20 16 -34 12 -34 -11 -73 -53 -73 -80 0 -22 -8 -28 -66 -46 -36 -11 -70
-20 -74 -20 -4 0 -11 15 -14 34 -9 47 -24 57 -69 46 -20 -4 -39 -4 -42 0 -7
12 27 38 55 42 14 1 25 9 25 17 0 19 -14 22 -44 10z m319 -46 c0 -12 -33 -43
-47 -43 -17 0 -17 10 4 32 16 18 43 25 43 11z m-270 -173 c0 -61 -51 -120
-102 -120 -58 0 -23 81 50 120 47 24 52 24 52 0z"/>
<path d="M11749 4568 c-1 -7 -2 -51 -3 -98 -1 -70 -6 -95 -28 -143 -52 -110
-174 -225 -198 -187 -5 8 -10 22 -10 31 0 28 44 82 83 102 28 14 35 22 25 28
-9 6 -9 9 -1 9 6 0 15 -4 18 -10 10 -16 35 -12 35 5 0 66 -167 -34 -186 -112
-8 -31 5 -72 27 -86 29 -18 73 4 137 69 92 94 124 168 130 302 4 89 2 102 -12
102 -9 0 -16 -6 -17 -12z"/>
<path d="M12641 4439 c-21 -46 -47 -108 -57 -136 -15 -43 -23 -53 -41 -53 -14
0 -23 -6 -23 -15 0 -8 7 -15 15 -15 18 0 18 -4 4 -53 -5 -20 -7 -42 -4 -48 10
-15 35 9 35 35 0 35 12 43 73 49 54 5 57 4 57 -17 0 -12 5 -27 12 -34 14 -14
64 -16 104 -2 16 5 48 14 72 20 27 7 42 16 42 27 0 11 -6 14 -22 9 -98 -25
-169 -38 -175 -32 -15 15 15 40 61 52 55 14 76 29 76 56 0 33 -28 31 -89 -5
-59 -35 -153 -56 -178 -39 -9 6 1 38 37 121 27 62 54 119 60 126 7 9 6 16 -5
25 -13 11 -21 1 -54 -71z"/>
<path d="M8231 4463 c-10 -21 -22 -72 -26 -113 -4 -41 -13 -104 -21 -140 -20
-90 -21 -92 -7 -97 7 -2 25 22 42 56 29 57 58 80 81 66 6 -4 9 -14 6 -23 -15
-58 -16 -92 -2 -92 17 0 41 89 31 120 -10 33 -45 41 -81 21 l-30 -18 12 94 c7
51 19 104 28 118 20 30 20 45 1 45 -8 0 -23 -17 -34 -37z"/>
<path d="M13265 4420 c-22 -44 -57 -99 -80 -121 -72 -74 -204 -134 -175 -80
18 35 121 115 148 116 33 0 40 20 12 35 -27 14 -51 0 -137 -85 -63 -61 -76
-91 -50 -114 20 -16 102 11 162 54 l50 35 3 -25 c5 -36 47 -65 94 -65 51 0 46
22 -6 31 -72 12 -73 46 -6 173 51 98 60 126 37 126 -7 0 -31 -36 -52 -80z"/>
<path d="M10505 4453 c-6 -37 -37 -133 -77 -241 -12 -31 -24 -50 -30 -46 -6 4
-17 -1 -24 -11 -11 -15 -10 -24 7 -57 20 -39 22 -40 60 -35 44 6 124 61 153
105 l19 29 23 -27 c14 -16 43 -33 69 -40 61 -17 157 -19 162 -2 3 8 -7 12 -34
12 -35 0 -108 13 -142 25 -8 3 13 18 47 36 62 30 78 53 67 89 -17 52 -94 40
-149 -24 -29 -32 -30 -32 -49 -13 -23 23 -78 18 -108 -9 -11 -10 -21 -15 -24
-12 -5 5 10 59 26 93 6 12 11 27 12 35 2 8 5 20 9 25 3 6 9 31 12 58 6 38 4
47 -8 47 -10 0 -17 -13 -21 -37z m270 -183 c0 -16 -70 -60 -97 -60 -23 0 -22
8 2 45 11 17 20 26 20 21 0 -6 6 -4 12 2 17 17 63 11 63 -8z m-190 -40 c16
-25 -105 -140 -147 -140 -30 0 -20 28 30 82 57 62 101 83 117 58z"/>
<path d="M2991 4408 c-16 -77 -26 -246 -17 -282 3 -14 12 -26 20 -26 10 0 12
18 8 78 -2 46 2 114 12 170 19 111 20 122 3 122 -8 0 -18 -25 -26 -62z"/>
<path d="M3134 4263 c1 -167 3 -198 16 -201 13 -2 15 25 16 198 0 182 -1 200
-17 200 -15 0 -17 -18 -15 -197z"/>
<path d="M7614 4371 c0 -55 -6 -80 -37 -149 -37 -83 -44 -112 -28 -112 9 0 52
41 88 85 31 36 41 25 35 -35 -4 -40 -2 -50 10 -50 11 0 17 16 22 54 3 30 3 61
0 69 -9 26 -36 29 -65 8 l-26 -19 13 38 c30 85 30 162 1 173 -10 4 -13 -11
-13 -62z"/>
<path d="M4470 4391 c0 -22 15 -35 29 -27 13 9 1 46 -15 46 -8 0 -14 -9 -14
-19z"/>
<path d="M2812 4364 c3 -28 31 -54 44 -41 13 12 -10 62 -29 65 -15 3 -18 -2
-15 -24z"/>
<path d="M7185 4355 c-33 -20 -72 -41 -87 -47 -16 -7 -28 -19 -28 -26 0 -21
43 -7 106 34 68 43 82 43 55 2 -43 -65 -82 -150 -79 -171 5 -33 55 -26 122 17
31 20 61 36 66 36 6 0 16 -12 22 -27 50 -117 116 -65 142 112 8 54 13 101 11
103 -2 3 -11 2 -18 -1 -10 -4 -17 -30 -22 -84 -6 -71 -37 -163 -55 -163 -4 0
-18 21 -31 46 -13 26 -29 49 -36 51 -8 3 -38 -11 -69 -31 -30 -20 -66 -41 -79
-46 -22 -9 -23 -8 -14 19 5 15 32 65 59 111 27 47 46 88 44 92 -11 17 -51 6
-109 -27z"/>
<path d="M2399 4332 c-79 -41 -101 -64 -82 -83 10 -10 18 -7 36 13 24 26 63
49 114 69 l28 10 -26 -28 c-41 -44 -119 -166 -119 -186 0 -39 25 -33 193 51 4
2 7 -6 7 -18 0 -32 18 -60 39 -60 31 0 91 75 91 113 0 17 -4 38 -9 46 -15 23
-30 3 -25 -32 5 -26 0 -37 -23 -59 -30 -28 -48 -22 -48 17 0 32 -32 29 -106
-10 -39 -20 -73 -35 -76 -32 -6 6 67 116 109 165 62 72 11 84 -103 24z"/>
<path d="M7870 4349 c0 -14 30 -38 48 -39 18 0 15 21 -5 36 -22 17 -43 18 -43
3z"/>
<path d="M11826 4325 c-45 -31 -81 -71 -97 -108 -19 -44 -1 -107 38 -133 39
-26 103 -37 137 -24 41 15 30 29 -23 28 -91 -2 -143 43 -126 109 8 34 98 123
124 123 45 0 27 -70 -29 -112 -33 -24 -40 -52 -12 -46 9 2 16 11 14 21 -2 11
2 15 11 11 17 -6 64 47 73 82 8 33 -20 74 -50 74 -13 0 -40 -11 -60 -25z"/>
<path d="M5753 4314 c-39 -26 -73 -69 -73 -93 0 -21 49 -61 74 -61 14 0 47 7
73 16 42 14 48 15 58 1 17 -24 114 -58 154 -55 44 4 48 22 6 26 -46 5 -122 31
-136 48 -9 11 -8 18 5 32 20 22 22 72 3 72 -8 0 -22 9 -32 20 -26 29 -82 26
-132 -6z m118 -36 c10 -38 -13 -65 -67 -76 -75 -16 -108 4 -77 48 43 61 131
78 144 28z"/>
<path d="M9014 4317 c-61 -33 -79 -49 -103 -87 -45 -74 -13 -142 72 -155 58
-9 157 11 157 31 0 12 -8 13 -37 7 -65 -14 -141 -8 -163 12 -43 38 -7 112 75
157 l50 27 19 -20 c13 -15 21 -18 29 -10 8 8 4 18 -13 36 -28 30 -34 30 -86 2z"/>
<path d="M4964 4323 c-31 -6 -72 -53 -78 -90 -5 -26 -1 -37 24 -62 35 -35 70
-43 159 -39 95 4 91 26 -5 27 -74 1 -124 15 -131 36 -2 6 21 19 49 29 83 29
106 57 72 90 -15 15 -44 18 -90 9z m70 -30 c4 -5 -18 -20 -51 -35 -59 -27 -79
-22 -48 12 22 24 83 38 99 23z"/>
<path d="M9345 4273 c-21 -40 -85 -83 -122 -83 -32 0 -29 17 9 51 39 37 26 61
-16 28 -32 -25 -49 -63 -41 -90 7 -21 54 -23 103 -2 33 14 57 10 47 -7 -10
-17 7 -59 26 -65 20 -7 49 10 49 27 0 6 -9 8 -19 5 -36 -9 -43 59 -11 100 22
29 27 73 8 73 -7 0 -22 -17 -33 -37z"/>
<path d="M12308 4294 c-79 -42 -57 -145 28 -131 71 12 96 67 53 121 -23 29
-42 32 -81 10z m72 -66 c0 -32 -76 -51 -87 -22 -8 21 7 46 38 61 20 11 26 10
37 -4 6 -9 12 -25 12 -35z"/>
<path d="M4727 4246 c-3 -30 -10 -64 -17 -76 l-11 -21 -30 26 c-17 14 -34 25
-39 25 -4 0 -12 16 -17 36 -10 42 -29 42 -26 -1 2 -36 92 -128 117 -119 40 15
80 175 45 182 -13 2 -17 -9 -22 -52z"/>
<path d="M12074 4270 c-23 -16 -52 -46 -66 -67 -62 -95 -69 -113 -44 -113 8 0
27 24 44 53 16 29 49 70 73 92 43 38 44 39 47 16 2 -13 -10 -44 -28 -74 -17
-27 -29 -56 -26 -63 7 -18 36 -18 36 -1 0 6 11 33 25 59 25 47 31 82 19 112
-9 24 -35 19 -80 -14z"/>
<path d="M4160 4273 c-62 -43 -91 -103 -70 -142 12 -24 41 -27 89 -10 23 8 30
16 26 27 -5 13 -3 13 11 1 10 -8 20 -14 23 -14 3 0 7 -21 9 -47 l3 -48 -39 0
c-51 0 -122 -38 -145 -77 -53 -92 8 -239 90 -218 61 15 106 89 120 197 4 33 9
45 19 41 29 -11 36 10 10 31 -23 19 -26 30 -33 131 -4 61 -10 108 -13 105 -3
-3 -16 5 -30 18 -29 27 -38 27 -70 5z m71 -81 c-13 -24 -85 -56 -106 -48 -24
9 -10 44 32 85 l35 33 25 -26 c18 -20 22 -30 14 -44z m15 -239 c-3 -32 -7 -67
-9 -78 -1 -11 -10 -29 -19 -39 -10 -11 -18 -22 -18 -26 0 -13 -59 -40 -74 -34
-41 16 -60 113 -34 170 15 32 78 63 127 64 l34 0 -7 -57z"/>
<path d="M4407 4283 c-5 -9 12 -185 18 -191 2 -2 9 -1 15 3 8 5 10 26 5 64 -3
31 -6 73 -7 94 -1 34 -19 51 -31 30z"/>
<path d="M9557 4260 l-34 -30 3 25 c4 44 -23 27 -37 -22 -8 -27 -14 -52 -14
-58 0 -5 -3 -12 -7 -15 -4 -3 -9 -16 -10 -29 -5 -42 19 -33 51 18 31 52 87
111 103 111 6 0 7 -26 3 -64 -8 -68 -1 -106 18 -106 8 0 12 26 11 88 0 48 -1
93 -2 100 -4 22 -51 13 -85 -18z"/>
<path d="M7825 4257 c-22 -34 -29 -86 -16 -120 14 -36 35 -25 27 15 -3 16 1
48 9 71 17 49 5 71 -20 34z"/>
<path d="M7945 4219 c-51 -47 -57 -74 -20 -91 19 -8 38 -8 79 2 51 12 65 25
66 63 0 13 -31 7 -36 -8 -8 -20 -81 -42 -95 -28 -7 7 2 21 30 45 39 34 52 58
31 58 -6 0 -31 -19 -55 -41z"/>
<path d="M2795 4227 c-12 -46 -10 -120 2 -124 10 -4 27 75 28 131 0 21 -25 15
-30 -7z"/>
<path d="M13336 4195 c4 -8 10 -12 15 -9 11 6 2 24 -11 24 -5 0 -7 -7 -4 -15z"/>
<path d="M5960 4004 c-8 -1 -95 -8 -193 -15 -118 -8 -176 -16 -174 -23 5 -14
75 -16 181 -5 44 4 127 9 184 11 94 2 126 8 104 22 -10 6 -82 13 -102 10z"/>
<path d="M5653 3868 c-3 -5 -2 -12 2 -16 6 -6 395 -11 395 -5 0 1 -13 9 -29
18 -23 11 -65 14 -196 13 -91 -1 -169 -6 -172 -10z"/>
<path d="M3332 3827 c-11 -24 -37 -57 -58 -73 -61 -48 -65 -49 -54 -19 14 38
12 75 -4 75 -7 0 -16 -14 -19 -32 -12 -72 -23 -86 -81 -103 -31 -9 -66 -13
-81 -9 -23 6 -26 4 -23 -12 3 -15 12 -19 43 -19 22 1 55 4 74 9 33 8 33 8 27
-23 -19 -97 -19 -91 4 -91 16 0 21 5 19 23 -1 12 2 41 6 65 7 41 21 56 102
105 6 4 0 -28 -15 -71 -14 -46 -22 -87 -18 -97 6 -17 10 -16 39 11 18 16 43
38 56 49 l24 20 -7 -36 c-7 -42 0 -69 19 -69 10 0 13 16 12 62 -2 74 -19 84
-71 44 l-34 -25 23 72 c12 40 29 86 38 104 10 18 17 41 17 52 0 37 -19 32 -38
-12z"/>
<path d="M5641 3608 c-22 -29 -56 -88 -77 -131 -31 -66 -41 -79 -65 -84 -33
-6 -38 -22 -9 -30 24 -6 23 -1 5 -53 -19 -53 -20 -103 -2 -98 6 3 13 13 15 24
9 53 37 126 53 134 10 6 42 10 73 10 58 0 86 7 86 21 0 5 -34 9 -75 9 -41 0
-75 3 -75 6 0 15 83 164 101 180 17 16 19 16 19 1 0 -20 18 -23 26 -4 6 17
-12 67 -25 67 -6 0 -28 -24 -50 -52z"/>
<path d="M4537 3604 c-4 -4 -7 -22 -7 -40 0 -31 -1 -32 -57 -40 -32 -4 -64 -8
-72 -9 -18 0 -26 -21 -12 -30 6 -3 36 -1 68 4 31 6 58 10 59 8 2 -2 -6 -31
-18 -66 -26 -75 -18 -116 21 -116 31 0 40 25 12 32 -19 5 -21 10 -15 37 3 17
14 51 24 76 l18 45 63 0 c70 0 92 19 32 29 -21 3 -49 6 -63 6 -22 0 -25 5 -25
32 0 30 -14 46 -28 32z"/>
<path d="M2884 3501 c-17 -10 -49 -36 -71 -57 l-41 -39 2 30 c1 20 -4 30 -16
33 -14 3 -18 -3 -18 -28 0 -17 -14 -58 -30 -91 -28 -54 -31 -79 -12 -79 4 0
36 36 72 79 64 77 152 151 158 132 2 -5 -8 -46 -22 -91 -14 -45 -26 -87 -26
-95 0 -21 29 -45 53 -45 41 0 97 21 97 35 0 18 0 18 -56 4 -65 -17 -69 -7 -39
90 40 127 23 168 -51 122z"/>
<path d="M10141 3403 c-27 -96 -32 -168 -11 -168 10 0 15 14 17 48 2 26 12 71
23 100 23 60 26 97 7 97 -8 0 -22 -31 -36 -77z"/>
<path d="M10274 3321 c-160 -172 -247 -280 -240 -297 8 -22 24 -17 40 14 8 15
25 38 38 52 13 14 36 43 52 65 16 22 60 72 97 110 36 39 82 86 100 106 19 20
41 38 48 40 16 6 9 39 -7 39 -5 0 -63 -58 -128 -129z"/>
<path d="M3831 3406 c-7 -8 -20 -12 -30 -9 -17 4 -21 -5 -32 -74 -17 -100 -17
-108 0 -108 9 0 18 15 23 35 27 111 58 153 97 128 28 -17 38 -2 16 22 -21 23
-57 26 -74 6z"/>
<path d="M7394 3410 c-12 -5 -25 -13 -28 -18 -3 -6 -15 -8 -26 -5 -17 4 -20 0
-20 -23 0 -16 -4 -43 -9 -60 -10 -34 0 -61 18 -50 6 4 11 15 11 24 0 19 76
112 91 112 5 0 9 -20 9 -45 0 -52 22 -70 71 -60 41 9 39 36 -3 33 -32 -3 -33
-1 -36 37 -5 62 -26 76 -78 55z"/>
<path d="M4003 3365 c-46 -49 -52 -68 -27 -103 24 -34 89 -30 142 8 52 38 55
69 11 111 -45 42 -74 38 -126 -16z m105 -5 c30 -29 28 -45 -12 -69 -39 -25
-94 -28 -102 -6 -8 20 19 60 53 78 37 20 36 20 61 -3z"/>
<path d="M4225 3376 c-53 -56 -58 -128 -12 -145 28 -11 108 13 124 36 20 26
15 59 -13 92 -46 55 -61 57 -99 17z m74 -32 c12 -15 21 -33 21 -40 0 -33 -94
-61 -106 -31 -10 26 31 97 56 97 5 0 18 -12 29 -26z"/>
<path d="M6107 3355 c-46 -35 -65 -70 -53 -100 9 -25 68 -18 119 15 30 19 47
25 47 17 0 -8 10 -23 23 -35 29 -27 122 -31 169 -6 38 20 25 40 -16 24 -41
-15 -121 -13 -136 5 -8 10 -10 29 -6 54 7 44 -9 65 -29 37 -12 -15 -13 -15
-18 4 -8 31 -48 25 -100 -15z m78 -12 c11 -30 -80 -91 -103 -68 -7 7 71 85 87
85 5 0 12 -8 16 -17z"/>
<path d="M5262 3330 c-80 -79 -21 -166 78 -115 56 29 67 90 24 124 -37 29 -67
26 -102 -9z m76 -16 c21 -4 25 -11 18 -37 -9 -36 -94 -66 -97 -34 -4 38 34 93
55 79 6 -3 17 -7 24 -8z"/>
<path d="M8130 3294 c-135 -21 -370 -48 -432 -48 -31 -1 -59 -4 -63 -8 -3 -3
-1 -24 6 -46 10 -34 9 -52 -4 -104 -9 -35 -30 -139 -46 -232 -17 -93 -33 -171
-35 -173 -2 -3 -7 24 -10 59 -20 244 -26 328 -26 361 0 55 -21 57 -85 8 -53
-41 -73 -81 -40 -81 8 0 15 6 15 14 0 7 17 25 39 39 l38 25 7 -86 c4 -48 11
-144 16 -215 9 -130 24 -207 39 -207 19 0 31 31 50 130 11 58 32 166 47 240
15 74 29 156 32 181 3 40 7 47 25 46 27 0 259 28 432 54 72 10 133 19 138 19
17 0 5 28 -15 34 -28 7 -22 7 -128 -10z"/>
<path d="M10242 3159 c-51 -114 -41 -128 36 -51 52 53 102 90 102 75 0 -6 -5
-24 -11 -42 -17 -48 -5 -81 29 -80 39 1 94 23 106 42 17 27 -1 30 -47 8 -59
-29 -71 -28 -61 7 4 15 8 45 8 67 1 53 -19 56 -78 11 -25 -20 -46 -31 -46 -26
0 6 5 10 11 10 13 0 8 42 -7 47 -6 2 -25 -29 -42 -68z"/>
<path d="M8835 3084 c-49 -8 -126 -16 -170 -18 -63 -3 -81 -7 -83 -20 -5 -22
48 -21 239 5 87 12 179 19 211 16 61 -5 82 5 49 22 -26 14 -134 12 -246 -5z"/>
<path d="M8060 3030 c-9 -16 -15 -19 -23 -11 -19 19 -62 12 -109 -19 -26 -17
-53 -42 -62 -55 -20 -31 -21 -79 0 -96 23 -19 79 -14 116 9 l31 20 16 -31 c15
-30 20 -32 66 -31 53 0 110 22 104 39 -2 6 -8 9 -14 8 -115 -27 -116 -27 -125
-13 -16 25 -11 56 12 85 13 17 22 43 22 68 1 45 -17 59 -34 27z m-36 -46 c13
-34 5 -55 -36 -84 -49 -36 -108 -42 -108 -11 0 38 80 111 121 111 9 0 20 -7
23 -16z"/>
<path d="M9740 3004 c-54 -23 -110 -99 -110 -150 0 -33 26 -64 54 -64 22 0 75
27 104 53 l22 20 0 -27 c0 -41 41 -76 89 -76 49 0 71 8 71 27 0 11 -8 12 -35
7 -49 -9 -84 2 -91 29 -3 13 4 51 15 85 25 73 26 82 7 82 -8 0 -20 -15 -26
-34 -19 -57 -128 -144 -164 -130 -34 13 -9 83 44 128 38 31 77 43 93 27 16
-16 27 -13 27 8 0 33 -43 40 -100 15z"/>
<path d="M8935 2970 c-93 -10 -199 -23 -235 -29 -36 -6 -84 -11 -107 -11 -33
0 -43 -4 -43 -16 0 -15 10 -16 78 -11 42 3 129 13 192 21 63 8 168 20 233 27
78 8 117 15 114 23 -5 17 -46 16 -232 -4z"/>
<path d="M8865 2829 c-44 -10 -108 -21 -142 -25 -44 -4 -63 -11 -63 -20 0 -18
41 -18 145 1 46 8 143 15 228 15 156 0 180 9 102 36 -53 18 -170 15 -270 -7z"/>
</g>
</svg>
