<?xml version="1.0" standalone="no"?>
<!DOCTYPE svg PUBLIC "-//W3C//DTD SVG 20010904//EN"
 "http://www.w3.org/TR/2001/REC-SVG-20010904/DTD/svg10.dtd">
<svg version="1.0" xmlns="http://www.w3.org/2000/svg"
 width="1617.000000pt" height="1213.000000pt" viewBox="0 0 1617.000000 1213.000000"
 preserveAspectRatio="xMidYMid meet">

<g transform="translate(0.000000,1213.000000) scale(0.100000,-0.100000)"
fill="#000000" stroke="none">
<path d="M10107 11688 c-4 -33 -22 -84 -49 -135 -41 -82 -42 -83 -80 -83 -47
0 -54 -27 -9 -32 l30 -3 -29 -65 c-34 -78 -40 -105 -21 -105 7 0 28 38 48 88
l35 87 37 0 c21 0 63 5 95 11 32 6 59 9 61 7 2 -2 -8 -43 -22 -91 -19 -67 -23
-91 -14 -100 14 -14 31 6 31 39 0 11 10 51 23 90 23 68 25 69 68 81 24 6 59
12 77 12 24 1 32 5 32 19 0 17 -5 18 -62 10 -33 -4 -63 -6 -65 -4 -3 2 14 42
36 88 36 76 42 108 16 90 -6 -4 -28 -43 -49 -87 -33 -70 -44 -83 -82 -103 -25
-12 -72 -25 -106 -29 l-61 -6 36 64 c38 69 71 173 63 195 -3 8 -12 14 -19 14
-10 0 -16 -17 -20 -52z"/>
<path d="M3065 11698 c-2 -7 -5 -44 -8 -83 -2 -51 -15 -99 -45 -179 -46 -120
-49 -136 -27 -136 8 0 15 4 15 9 0 15 98 129 120 141 20 11 20 9 15 -52 -6
-68 3 -95 30 -84 14 5 15 9 5 20 -7 10 -9 30 -5 60 15 100 -16 122 -85 60
l-40 -36 11 33 c6 19 17 52 25 74 19 57 24 185 7 185 -8 0 -15 -6 -18 -12z"/>
<path d="M7376 11685 c-3 -9 -6 -38 -6 -63 0 -62 -40 -202 -79 -279 -17 -35
-31 -74 -31 -88 0 -35 28 -32 44 5 11 27 13 28 28 14 25 -25 59 -11 122 49 44
42 56 59 56 84 0 39 -20 56 -70 56 -22 0 -46 -6 -55 -13 -19 -16 -20 -1 -1 60
18 60 25 182 10 187 -6 2 -14 -3 -18 -12z m104 -276 c0 -26 -75 -99 -101 -99
-22 0 -23 4 -7 30 17 27 2 37 -23 14 l-22 -19 12 25 c21 42 62 70 104 70 31 0
37 -3 37 -21z"/>
<path d="M15372 11659 c-38 -42 -148 -228 -158 -266 -8 -29 -22 -29 -35 0 -21
47 19 130 74 150 9 3 9 7 0 17 -9 9 -17 9 -39 -1 -71 -35 -96 -177 -38 -212
11 -6 10 -16 -7 -49 -23 -46 -49 -124 -49 -150 0 -17 29 -27 31 -10 3 41 11
67 36 121 l28 63 59 4 c97 8 156 53 156 121 0 39 -37 83 -69 83 -11 0 -22 4
-26 10 -8 13 37 81 75 113 29 25 33 47 9 47 -6 0 -27 -18 -47 -41z m12 -175
c51 -50 -14 -124 -109 -124 l-45 0 35 70 c33 66 37 70 69 70 19 0 42 -7 50
-16z"/>
<path d="M2749 11627 c-148 -111 -171 -130 -176 -143 -12 -31 8 -25 69 22 35
27 65 51 68 54 16 18 110 79 110 72 0 -5 -16 -35 -36 -68 -20 -32 -46 -75 -57
-94 -12 -19 -24 -37 -27 -40 -25 -22 -81 -113 -76 -125 10 -28 34 -15 66 34
49 77 58 81 57 22 -2 -40 3 -55 20 -72 29 -30 56 -21 125 41 112 100 147 250
52 226 -24 -6 -29 -34 -5 -28 18 4 13 -45 -9 -89 -12 -22 -44 -63 -71 -92
l-50 -52 -19 22 c-13 17 -17 33 -13 63 4 29 1 45 -10 58 -15 17 -13 22 23 77
63 94 76 156 33 155 -10 -1 -43 -20 -74 -43z"/>
<path d="M14362 11613 c-40 -52 -71 -113 -103 -207 -28 -85 -26 -118 10 -160
30 -34 131 -6 164 45 13 21 1 65 -24 90 -17 17 -28 20 -53 14 -17 -4 -41 -9
-53 -12 -23 -5 -23 -5 -9 34 33 94 99 203 123 203 7 0 13 7 13 15 0 28 -38 15
-68 -22z m36 -275 c20 -20 14 -37 -20 -58 -58 -35 -94 -26 -102 27 -5 32 96
57 122 31z"/>
<path d="M3780 11614 c-6 -14 -10 -30 -10 -36 0 -6 -18 -64 -40 -129 -61 -180
-52 -207 32 -102 l53 67 7 -64 c6 -57 18 -79 41 -80 5 0 5 15 0 33 -4 17 -6
57 -5 88 4 76 -14 82 -75 26 -51 -47 -52 -44 -12 58 25 64 47 153 41 160 -11
11 -23 4 -32 -21z"/>
<path d="M9872 11618 c2 -12 10 -23 18 -23 22 0 19 39 -3 43 -15 3 -18 -1 -15
-20z"/>
<path d="M14950 11629 c-46 -9 -90 -45 -90 -75 0 -22 20 -17 42 11 15 19 29
25 59 25 26 0 39 -4 39 -14 0 -19 -94 -144 -140 -186 -21 -19 -46 -47 -54 -61
-14 -22 -14 -28 -2 -38 11 -9 23 -1 63 40 50 52 73 57 73 18 0 -24 55 -82 72
-77 20 7 20 26 0 32 -13 5 -22 19 -26 46 -3 21 -13 46 -21 54 -14 14 -12 21
23 68 70 95 78 126 40 152 -12 9 -25 16 -28 15 -3 -1 -25 -5 -50 -10z"/>
<path d="M15605 11627 c5 -11 -23 -124 -69 -284 -16 -58 -11 -96 13 -91 12 2
15 13 13 43 -2 22 3 56 11 75 25 59 69 239 63 255 -3 8 -12 15 -20 15 -9 0
-13 -6 -11 -13z"/>
<path d="M14130 11614 c0 -19 -44 -220 -61 -278 -15 -49 -17 -72 -10 -79 18
-18 26 1 59 143 45 193 48 220 28 220 -9 0 -16 -3 -16 -6z"/>
<path d="M15697 11603 c-4 -3 -7 -15 -7 -25 0 -19 6 -19 128 -13 l127 7 -35
-26 c-19 -14 -57 -51 -85 -82 -49 -54 -51 -55 -82 -44 -18 7 -33 18 -33 26 0
8 -7 14 -16 14 -11 0 -14 -8 -12 -27 2 -19 11 -29 33 -36 40 -13 41 -14 22
-35 -41 -45 -63 -152 -32 -152 10 0 15 10 15 28 0 33 31 102 54 121 12 10 44
15 98 15 53 1 83 5 85 13 3 8 -15 12 -62 12 -37 0 -69 2 -72 5 -10 10 61 86
118 126 93 65 84 73 -76 68 -75 -3 -138 -1 -141 4 -6 10 -18 10 -27 1z"/>
<path d="M13301 11472 c-40 -83 -60 -134 -55 -145 9 -25 27 -16 35 19 3 16 29
75 58 131 54 108 59 123 38 123 -7 0 -41 -58 -76 -128z"/>
<path d="M13540 11581 c-55 -23 -66 -51 -21 -51 17 0 31 5 31 10 0 15 49 32
71 25 25 -8 34 -47 17 -79 -15 -29 -130 -134 -189 -173 -64 -42 -53 -59 44
-66 118 -10 197 -8 197 3 0 18 -39 30 -112 35 -39 3 -73 7 -75 9 -1 1 17 18
42 36 40 30 63 57 117 139 25 37 23 83 -5 109 -28 26 -57 27 -117 3z"/>
<path d="M11748 11540 c-80 -42 -98 -82 -58 -133 24 -31 14 -40 -35 -31 -41 7
-46 -6 -10 -30 37 -24 81 -21 100 8 17 26 12 42 -27 98 -17 23 0 40 67 69 30
13 55 30 55 37 0 19 -30 13 -92 -18z"/>
<path d="M3322 11543 c2 -10 11 -17 21 -17 9 1 14 -2 11 -7 -3 -5 0 -9 5 -9
15 0 14 23 -1 38 -18 18 -40 15 -36 -5z"/>
<path d="M10586 11528 c-42 -42 -105 -88 -119 -88 -11 0 -14 -13 -12 -52 1
-29 3 -56 4 -59 5 -26 114 -11 156 23 37 29 21 40 -28 18 -54 -25 -112 -27
-103 -4 3 9 6 19 6 24 0 5 26 20 57 35 91 41 123 81 91 113 -17 17 -26 15 -52
-10z"/>
<path d="M9220 11524 c-52 -23 -100 -63 -100 -85 0 -10 7 -19 15 -19 8 0 15 6
15 14 0 28 114 82 140 66 17 -11 -8 -55 -59 -105 -42 -40 -50 -58 -30 -71 12
-7 49 9 97 44 l32 24 0 -38 c0 -51 12 -67 48 -66 37 1 108 36 120 60 5 9 12
41 14 70 5 50 4 54 -23 67 -32 17 -52 2 -24 -19 12 -8 16 -24 13 -56 -3 -38
-8 -48 -37 -67 -19 -13 -45 -23 -59 -23 -24 0 -25 1 -18 55 5 49 4 55 -12 55
-10 0 -28 -7 -40 -16 -27 -19 -28 -14 -2 28 25 41 25 60 2 81 -23 21 -46 21
-92 1z"/>
<path d="M10865 11528 c-11 -6 -40 -29 -64 -52 -43 -41 -43 -41 -27 -9 18 37
21 63 5 63 -10 0 -89 -160 -89 -180 0 -23 24 -7 77 50 31 33 68 70 84 81 l28
20 -20 -60 c-28 -82 -23 -115 16 -119 31 -3 95 30 95 48 0 14 -14 13 -55 -7
-19 -9 -38 -13 -42 -10 -3 4 4 40 17 81 29 94 22 120 -25 94z"/>
<path d="M11369 11517 c-68 -46 -106 -137 -56 -137 23 0 70 21 119 54 l27 18
-8 -29 c-4 -15 -5 -39 -1 -53 6 -22 11 -25 52 -24 52 2 108 28 108 49 0 18 0
18 -36 1 -16 -8 -44 -17 -61 -21 -31 -6 -33 -5 -33 20 0 14 7 42 15 62 27 65
16 93 -21 51 -21 -23 -132 -98 -146 -98 -5 0 -1 14 9 31 21 35 74 71 100 67
10 -2 19 4 21 15 5 25 -47 22 -89 -6z"/>
<path d="M5920 11504 c-6 -14 -10 -29 -10 -34 0 -4 -11 -40 -24 -79 -14 -43
-20 -73 -14 -77 11 -7 6 -12 62 63 45 61 91 101 103 90 3 -4 -2 -26 -11 -50
-30 -80 -11 -133 34 -92 26 23 26 39 0 32 -24 -6 -25 2 -5 50 18 43 19 75 3
91 -20 20 -36 14 -85 -30 -29 -27 -42 -35 -35 -21 15 27 16 83 2 83 -6 0 -15
-12 -20 -26z"/>
<path d="M6207 11523 c-4 -3 2 -17 14 -29 11 -12 23 -40 26 -62 5 -35 2 -44
-23 -67 -41 -38 -51 -17 -21 48 24 52 25 67 6 67 -11 0 -44 -65 -53 -103 -8
-35 9 -67 35 -67 12 0 37 16 56 35 34 34 36 38 30 91 -7 70 -43 114 -70 87z"/>
<path d="M9653 11508 c-39 -43 -69 -168 -40 -168 18 0 38 37 32 63 -2 12 3 38
13 57 15 29 23 35 52 36 52 2 53 3 40 19 -19 23 -73 19 -97 -7z"/>
<path d="M7648 11493 c-45 -48 -61 -91 -48 -123 19 -46 43 -47 200 -9 48 12
67 26 55 38 -7 7 -25 5 -55 -5 -42 -15 -156 -21 -167 -10 -11 10 8 58 32 82
25 25 70 33 63 12 -2 -6 -21 -20 -41 -31 -36 -19 -41 -37 -10 -37 24 0 83 49
83 69 0 48 -71 57 -112 14z"/>
<path d="M8677 11488 c-36 -26 -53 -48 -77 -99 -32 -70 -36 -94 -20 -104 18
-11 38 13 55 65 20 61 74 117 120 126 41 7 45 21 9 34 -35 14 -34 14 -87 -22z"/>
<path d="M4836 11491 c-78 -40 -133 -145 -89 -170 22 -12 55 1 105 41 l39 30
-7 -28 c-4 -16 -11 -37 -16 -47 -11 -22 -2 -37 24 -37 14 0 18 5 14 15 -3 8 1
36 9 62 16 52 19 93 8 93 -5 -1 -37 -23 -73 -50 -58 -45 -90 -60 -90 -45 0 32
60 98 103 114 27 10 35 25 18 35 -4 3 -25 -3 -45 -13z"/>
<path d="M6617 11496 c-3 -8 3 -22 14 -32 10 -9 19 -23 19 -30 0 -22 -58 -81
-86 -88 -34 -9 -51 7 -59 55 -4 22 -13 43 -21 46 -8 3 -38 -13 -67 -35 -28
-23 -53 -39 -55 -37 -6 6 28 65 38 65 6 0 10 7 10 15 0 23 -26 18 -49 -11 -32
-41 -46 -93 -29 -110 12 -12 22 -8 74 30 57 44 59 44 67 23 22 -57 34 -72 59
-75 58 -7 148 67 148 121 0 27 -29 77 -44 77 -8 0 -16 -6 -19 -14z"/>
<path d="M4595 11486 c-41 -18 -82 -67 -96 -117 -11 -36 -10 -41 11 -64 18
-19 34 -25 67 -25 45 0 83 14 83 30 0 4 -28 8 -62 7 l-63 -2 -3 36 c-3 30 3
43 32 74 31 32 40 37 66 32 25 -5 30 -3 30 12 0 15 -21 34 -33 31 -1 -1 -16
-7 -32 -14z"/>
<path d="M8885 11448 c-59 -56 -61 -63 -43 -103 16 -35 75 -50 139 -35 27 7
52 16 55 21 3 5 14 9 25 9 10 0 19 7 19 15 0 19 1 19 -81 -6 -66 -20 -70 -20
-96 -4 l-27 18 40 20 c74 37 101 76 72 105 -22 22 -47 12 -103 -40z"/>
<path d="M3448 11433 c-59 -55 -86 -107 -67 -129 24 -29 149 -8 149 26 0 18
-2 18 -35 4 -47 -19 -85 -18 -85 2 0 22 96 118 109 109 18 -11 33 5 20 21 -19
23 -37 16 -91 -33z"/>
<path d="M9806 11444 c-11 -29 -7 -74 8 -74 14 0 30 66 20 82 -8 13 -21 9 -28
-8z"/>
<path d="M3261 11412 c-26 -50 -32 -117 -11 -117 10 0 17 14 21 40 3 22 13 54
22 71 15 30 14 44 -4 44 -5 0 -17 -17 -28 -38z"/>
<path d="M5022 11436 c-17 -27 -51 -120 -46 -128 10 -16 23 -7 39 27 22 44 62
88 78 82 16 -5 21 -61 7 -87 -9 -18 -8 -25 6 -41 9 -10 20 -19 23 -19 12 0 12
152 0 166 -14 17 -96 16 -107 0z"/>
<path d="M13810 11290 c0 -23 4 -24 31 -9 23 12 16 29 -12 29 -12 0 -19 -7
-19 -20z"/>
<path d="M14586 11278 c-3 -13 -6 -26 -6 -30 0 -14 27 -9 40 7 10 12 10 18 0
30 -17 21 -27 19 -34 -7z"/>
<path d="M4814 11121 l-38 -120 -38 -6 c-41 -7 -56 -21 -41 -36 6 -6 20 -6 38
1 34 13 37 11 29 -28 -4 -19 -14 -32 -26 -35 -19 -5 -21 -32 -2 -32 5 0 14 -4
21 -8 15 -10 23 5 37 67 11 51 12 51 61 63 64 14 115 16 115 3 0 -6 -11 -33
-25 -60 -28 -54 -32 -80 -12 -80 17 1 70 122 65 151 -3 22 -8 24 -58 24 -30 0
-72 -4 -92 -8 l-37 -8 19 63 c10 35 26 81 34 103 19 51 20 65 2 65 -10 0 -27
-40 -52 -119z"/>
<path d="M4107 11163 c-4 -3 -7 -14 -7 -23 0 -9 -7 -41 -16 -70 -13 -44 -18
-51 -26 -37 -11 21 -51 16 -88 -11 -70 -52 -115 -153 -75 -168 22 -9 74 15
117 54 38 34 38 34 38 10 0 -36 31 -61 66 -52 16 4 38 12 49 18 11 6 29 11 39
11 15 0 22 11 31 51 6 28 24 67 40 88 26 34 31 37 66 31 20 -4 40 -2 43 3 8
13 -46 35 -75 30 -35 -5 -102 -91 -108 -140 -5 -32 -11 -42 -26 -44 -11 -1
-35 -7 -52 -12 -20 -7 -35 -7 -39 -1 -3 5 5 46 17 92 34 131 40 158 34 168 -7
11 -19 12 -28 2z m-67 -183 c-22 -40 -130 -113 -130 -88 0 23 50 89 83 108 36
22 64 11 47 -20z"/>
<path d="M5061 11111 c-13 -23 3 -39 23 -22 6 6 25 9 42 8 20 -1 29 3 29 13 0
10 -13 16 -42 18 -33 2 -44 -1 -52 -17z"/>
<path d="M4461 11035 c-19 -14 -43 -38 -53 -54 -17 -26 -17 -30 -3 -44 16 -17
33 -13 126 27 40 17 49 13 49 -20 0 -23 13 -37 37 -40 20 -3 26 16 10 29 -9 7
-17 23 -19 36 -5 42 -31 48 -90 22 -86 -37 -98 -37 -54 3 22 20 45 36 53 36 7
0 13 7 13 15 0 22 -30 17 -69 -10z"/>
<path d="M2299 11017 c-66 -44 -102 -149 -54 -154 11 -2 42 14 69 35 27 20 57
43 66 50 16 12 17 6 16 -70 -1 -82 -1 -83 25 -86 14 -2 31 4 39 12 11 14 9 16
-14 16 l-27 0 2 78 c3 73 -2 109 -16 132 -11 18 -71 11 -106 -13z m81 -15 c0
-4 -15 -22 -32 -38 -39 -36 -98 -78 -98 -69 0 21 45 87 68 99 30 17 62 21 62
8z"/>
<path d="M3465 10956 c-19 -89 -15 -130 12 -140 25 -10 78 48 118 129 40 80
41 85 20 85 -10 0 -27 -25 -45 -62 -32 -70 -74 -127 -86 -115 -4 4 0 42 9 85
21 94 21 102 3 102 -9 0 -19 -28 -31 -84z"/>
<path d="M3714 11010 c-74 -54 -122 -150 -76 -150 10 0 48 18 85 40 36 22 67
40 69 40 2 0 3 -15 3 -32 0 -31 2 -33 34 -33 19 0 36 6 39 13 2 7 -6 12 -21
12 -24 0 -25 2 -20 41 l6 42 -29 -7 c-16 -4 -53 -23 -83 -42 -30 -18 -57 -31
-60 -29 -7 8 80 94 101 101 21 6 25 34 5 34 -7 0 -31 -13 -53 -30z"/>
<path d="M5664 11025 c-4 -8 -3 -23 0 -32 6 -15 8 -15 23 -1 16 17 12 48 -7
48 -6 0 -13 -7 -16 -15z"/>
<path d="M5224 11010 c-79 -17 -136 -79 -113 -123 18 -33 28 -37 99 -37 80 0
140 15 140 36 0 13 -6 14 -32 7 -18 -4 -64 -8 -103 -8 -67 0 -70 1 -70 24 0
31 43 63 96 70 44 6 63 25 32 33 -10 2 -32 1 -49 -2z"/>
<path d="M14430 10997 c-142 -33 -247 -129 -300 -275 -19 -52 -22 -75 -17
-137 11 -155 85 -246 237 -295 53 -16 208 -40 268 -40 61 0 180 42 257 91 63
40 149 130 175 183 24 50 27 140 6 189 -25 60 -104 116 -216 152 -32 10 -74
35 -100 58 -86 76 -192 101 -310 74z m177 -32 c28 -8 62 -24 75 -35 23 -19 22
-19 -52 1 -41 10 -106 20 -143 20 -68 2 -79 14 -22 22 61 8 93 7 142 -8z
m-211 -30 c16 -8 49 -17 74 -20 25 -3 99 -18 165 -32 93 -20 125 -32 144 -51
22 -23 25 -23 37 -8 11 15 16 15 70 -9 118 -52 154 -97 154 -193 0 -47 -5 -67
-28 -103 -63 -98 -177 -180 -311 -224 -61 -20 -144 -17 -278 11 -139 28 -211
74 -254 162 -19 38 -23 63 -23 137 0 77 3 98 26 145 36 73 79 124 142 166 28
18 51 34 52 34 1 0 14 -7 30 -15z"/>
<path d="M14654 10792 c-6 -4 -19 -21 -28 -39 -9 -17 -46 -66 -82 -107 -36
-41 -63 -79 -60 -84 3 -5 39 -7 81 -4 l75 5 0 -55 c0 -40 5 -59 18 -71 10 -10
22 -17 25 -17 4 0 4 32 1 70 l-7 70 34 1 c19 1 46 0 62 -1 15 -1 27 3 27 9 0
18 -45 31 -84 24 l-36 -6 6 89 c4 67 3 93 -8 106 -7 10 -18 14 -24 10z m1
-136 l-7 -66 -55 0 -54 0 57 70 c32 38 60 68 62 66 2 -3 1 -34 -3 -70z"/>
<path d="M14340 10763 c-3 -132 -11 -260 -19 -302 -12 -61 -7 -91 15 -91 9 0
14 8 12 23 -1 12 3 67 11 122 15 118 12 246 -6 253 -7 2 -13 0 -13 -5z"/>
<path d="M3268 10989 c-32 -18 -88 -101 -88 -129 0 -55 36 -46 153 38 l48 34
-7 -43 c-10 -74 -33 -148 -90 -288 -53 -129 -63 -180 -37 -188 6 -2 32 24 59
59 70 94 144 166 181 179 42 13 47 44 6 34 -48 -11 -104 -57 -162 -132 -30
-39 -57 -71 -58 -69 -2 2 14 45 35 97 21 52 48 121 60 154 25 73 57 233 48
243 -8 7 -23 -1 -126 -72 -39 -26 -74 -45 -77 -42 -4 3 7 25 24 49 34 47 79
70 92 48 14 -22 33 -3 21 20 -12 21 -53 25 -82 8z"/>
<path d="M5641 10831 c-17 -11 -7 -41 13 -41 22 0 30 20 15 36 -9 8 -19 10
-28 5z"/>
<path d="M4703 10458 c-24 -12 -30 -32 -12 -44 6 -3 16 -1 22 5 16 16 37 14
37 -4 0 -8 -4 -15 -10 -15 -15 0 -170 -162 -170 -178 0 -10 7 -12 23 -8 120
36 121 36 138 14 10 -13 24 -19 40 -16 28 4 33 33 6 33 -10 0 -23 11 -30 25
-14 26 -24 28 -67 16 -19 -5 -10 7 38 52 65 61 75 87 44 115 -21 19 -28 20
-59 5z"/>
<path d="M8566 10414 c-14 -16 -39 -53 -55 -84 -52 -97 -51 -96 -102 -76 -55
21 -82 13 -140 -41 -49 -45 -69 -81 -69 -122 0 -43 9 -60 42 -77 l30 -15 -26
-32 c-14 -18 -53 -72 -86 -121 -60 -90 -75 -138 -45 -149 18 -7 27 6 19 27 -8
20 20 67 103 177 63 85 66 87 112 91 63 6 135 42 149 74 17 35 15 91 -4 123
-15 25 -14 29 19 86 20 33 49 80 67 104 38 52 27 79 -14 35z m-162 -194 l25
-9 -61 -87 c-34 -47 -68 -88 -75 -91 -7 -3 -24 2 -38 11 -54 35 -17 125 70
170 35 19 45 19 79 6z m76 -100 c0 -51 -36 -80 -113 -94 l-38 -7 63 86 c56 77
64 84 75 69 7 -10 13 -34 13 -54z"/>
<path d="M5683 10308 c-114 -12 -168 -23 -166 -33 1 -6 12 -13 25 -16 21 -5
21 -6 -7 -12 -45 -9 -95 -44 -95 -66 0 -25 14 -35 84 -61 61 -23 100 -53 94
-73 -7 -22 -111 -68 -148 -65 -31 3 -35 6 -35 30 -1 34 -13 47 -25 28 -29 -45
4 -90 66 -90 57 0 162 52 170 84 12 51 -18 76 -161 135 -18 7 -18 9 9 26 15
10 50 23 79 30 53 12 75 34 35 36 -50 3 61 18 134 18 66 1 101 11 86 26 -9 9
-77 10 -145 3z"/>
<path d="M7093 10282 c-54 -39 -117 -124 -154 -208 -54 -124 -2 -195 108 -149
73 31 105 80 78 121 -20 32 -58 30 -115 -5 -34 -20 -45 -34 -45 -52 0 -17 5
-24 20 -24 13 0 19 6 17 16 -1 10 12 25 33 38 48 28 65 27 65 -4 0 -42 -103
-92 -135 -65 -59 49 86 302 186 328 19 4 34 15 34 23 0 27 -40 19 -92 -19z"/>
<path d="M6539 10248 c0 -1 -1 -29 -2 -60 -1 -31 -5 -60 -9 -64 -4 -4 -25 -10
-45 -13 -52 -9 -53 -37 -1 -33 l37 3 3 -47 c4 -67 28 -71 28 -5 l0 50 52 3
c69 4 79 28 11 28 l-50 0 1 67 c1 44 -3 67 -11 70 -7 3 -13 3 -14 1z"/>
<path d="M4403 10193 c-10 -16 -25 -41 -33 -57 -8 -16 -50 -67 -92 -112 -72
-75 -91 -104 -70 -104 5 0 34 25 65 55 l57 55 0 -33 c0 -36 15 -57 40 -57 26
0 96 55 124 97 29 41 31 37 15 -21 -6 -21 -8 -49 -5 -62 8 -30 43 -51 60 -34
8 8 5 15 -12 29 -23 17 -23 18 -8 75 15 61 8 112 -16 104 -7 -3 -29 -29 -49
-59 -34 -48 -90 -99 -111 -99 -26 0 15 134 61 199 21 29 21 51 1 51 -5 0 -17
-12 -27 -27z"/>
<path d="M7721 10179 c-52 -10 -73 -26 -51 -39 8 -5 21 -5 32 1 11 6 46 11 78
11 41 1 60 5 60 13 0 24 -44 29 -119 14z"/>
<path d="M5880 10154 c-17 -45 -97 -138 -149 -174 -47 -33 -61 -53 -43 -64 4
-2 38 20 75 50 l67 55 0 -35 c0 -47 23 -48 84 -1 l46 35 0 -39 c0 -24 5 -41
14 -44 23 -9 85 12 109 36 21 21 21 22 3 25 -10 2 -22 -1 -25 -7 -4 -6 -21
-14 -39 -17 -39 -8 -40 -1 -10 83 12 34 20 65 17 68 -4 3 -38 -26 -77 -65 -99
-100 -112 -95 -63 25 27 67 30 95 10 95 -5 0 -14 -12 -19 -26z"/>
<path d="M5010 10088 c-25 -5 -70 -12 -100 -16 -30 -4 -54 -10 -52 -14 1 -5 2
-13 2 -19 0 -7 16 -9 48 -4 26 3 63 8 83 9 117 11 166 25 142 39 -19 12 -81
14 -123 5z"/>
<path d="M7750 10065 c0 -15 -13 -17 -99 -20 -36 -1 -54 -21 -28 -31 26 -9
172 10 172 23 0 6 3 15 7 19 12 12 -2 24 -28 24 -15 0 -24 -6 -24 -15z"/>
<path d="M11659 10003 c0 -5 -3 -17 -6 -28 -2 -11 -9 -48 -14 -82 -5 -34 -16
-79 -23 -100 l-13 -38 -75 -6 c-77 -7 -98 -13 -98 -30 0 -6 31 -7 80 -3 67 6
80 4 80 -8 0 -18 -28 -106 -41 -130 -7 -14 -5 -18 11 -18 16 0 24 16 46 84 25
82 26 84 52 77 24 -7 27 -12 24 -42 -2 -19 -14 -60 -27 -91 -22 -57 -22 -68 0
-68 13 0 52 105 61 167 6 42 6 43 -32 59 -22 9 -40 17 -41 18 -1 1 2 18 7 38
16 55 38 192 33 201 -2 4 -8 7 -14 7 -5 0 -9 -3 -10 -7z"/>
<path d="M8837 9949 c-16 -16 -51 -41 -78 -54 -48 -25 -59 -38 -40 -50 22 -13
171 93 171 122 0 22 -23 14 -53 -18z"/>
<path d="M12776 9944 c-3 -9 -6 -30 -6 -48 0 -18 -9 -59 -20 -92 l-21 -61
-105 -16 c-111 -16 -124 -21 -108 -37 6 -6 41 -5 99 5 50 8 93 15 96 15 3 0
-3 -30 -12 -67 -22 -84 -23 -113 -5 -113 8 0 16 15 20 38 13 71 30 133 41 141
14 12 155 24 155 14 0 -5 -18 -26 -40 -48 -45 -44 -61 -80 -49 -113 7 -18 16
-22 51 -22 47 0 134 36 167 69 31 31 28 91 -5 122 -25 23 -32 24 -148 23
l-123 -2 18 49 c10 27 22 73 25 104 6 46 4 55 -9 55 -8 0 -18 -7 -21 -16z
m242 -236 c19 -19 14 -63 -11 -86 -25 -24 -97 -52 -133 -52 -53 0 -2 90 75
130 43 23 53 24 69 8z"/>
<path d="M10901 9894 c-12 -15 -21 -32 -21 -38 0 -21 -53 -151 -75 -184 -26
-38 -112 -102 -137 -102 -23 0 -24 41 -3 74 23 34 88 77 121 79 44 4 39 32 -5
30 -68 -3 -161 -94 -161 -157 0 -68 49 -74 132 -15 l58 40 0 -49 c0 -35 5 -54
18 -65 24 -22 32 -21 32 3 0 11 -5 20 -11 20 -9 0 -10 21 -6 73 5 64 31 146
91 288 12 29 -11 30 -33 3z"/>
<path d="M2487 9773 c-5 -121 -30 -216 -62 -243 -20 -16 -35 19 -70 166 -14
62 -32 120 -39 129 -29 40 -36 6 -36 -164 0 -109 -4 -171 -11 -178 -12 -12 -4
-33 11 -33 24 0 34 49 33 165 l-2 120 27 -100 c33 -118 46 -145 72 -145 24 0
65 53 84 108 8 22 18 74 22 114 3 40 11 79 17 86 13 17 -9 92 -27 92 -10 0
-14 -30 -19 -117z"/>
<path d="M4160 9820 c-27 -29 -43 -76 -56 -157 l-6 -43 -50 0 c-65 0 -60 -23
7 -30 l48 -5 14 -54 c10 -42 11 -56 1 -62 -14 -9 6 -39 27 -39 22 0 24 27 8
84 -23 81 -19 86 80 86 46 0 87 -3 90 -6 4 -4 -5 -20 -18 -36 -47 -56 -19 -90
45 -53 33 19 40 18 40 -3 0 -11 9 -27 20 -37 16 -15 23 -16 33 -6 9 10 8 15
-7 26 -13 10 -17 21 -12 40 9 34 -15 43 -61 21 -45 -22 -52 -15 -16 15 l29 24
-25 22 c-21 21 -34 23 -123 23 -97 0 -98 0 -94 23 3 12 8 40 11 62 4 22 14 52
23 68 18 29 42 36 42 12 0 -8 7 -15 15 -15 17 0 20 23 5 51 -15 27 -38 24 -70
-11z"/>
<path d="M3074 9783 c4 -27 9 -60 12 -74 4 -23 1 -27 -27 -33 -17 -3 -42 -6
-55 -6 -15 0 -24 -6 -24 -16 0 -13 10 -15 58 -12 l57 3 1 -90 c2 -83 12 -113
29 -85 4 6 6 49 6 95 l-1 84 38 3 c39 3 50 21 16 26 -67 10 -64 6 -79 110 -5
28 -12 42 -22 42 -12 0 -14 -9 -9 -47z"/>
<path d="M4823 9814 c-3 -9 -1 -26 6 -36 7 -12 8 -17 2 -13 -7 4 -11 -10 -11
-40 0 -38 -4 -47 -22 -54 -13 -5 -29 -6 -37 -3 -14 5 -33 -17 -25 -30 3 -4 21
-8 40 -8 33 0 34 -1 34 -40 0 -29 4 -40 15 -40 11 0 15 12 15 45 l0 45 88 0
c110 0 120 -6 93 -51 -25 -40 -27 -82 -6 -99 18 -15 99 -5 133 16 28 18 28 42
-1 85 -43 64 -43 62 -6 54 45 -10 58 -22 80 -73 20 -45 39 -48 39 -7 0 64 51
105 106 85 35 -14 56 -12 52 3 -7 19 -88 45 -117 37 -14 -3 -36 -21 -48 -39
-18 -27 -23 -29 -30 -16 -16 28 -126 58 -135 37 -1 -5 -56 -7 -120 -4 l-118 5
-1 36 c0 20 0 55 1 79 2 42 -15 58 -27 26z m304 -280 c-6 -7 -31 -15 -54 -19
-38 -6 -43 -4 -43 12 0 11 12 38 27 61 l27 41 28 -42 c22 -33 25 -44 15 -53z"/>
<path d="M11787 9823 c-4 -3 -7 -17 -7 -30 0 -25 17 -31 26 -9 3 8 13 12 25 9
12 -4 19 0 19 10 0 22 -47 37 -63 20z"/>
<path d="M6754 9730 l7 -60 -35 0 c-42 0 -86 -15 -86 -30 0 -7 20 -9 60 -4
l60 7 2 -44 c1 -24 3 -62 3 -83 1 -22 6 -41 12 -43 18 -6 26 35 18 103 l-7 64
34 2 c18 1 65 2 103 3 39 0 72 4 75 10 8 14 -77 27 -147 21 l-61 -5 -7 59 c-5
44 -11 60 -22 60 -13 0 -14 -10 -9 -60z"/>
<path d="M8517 9768 c-9 -7 -30 -38 -47 -68 l-30 -55 0 43 c0 35 -3 42 -19 42
-18 0 -19 -5 -14 -53 3 -29 0 -92 -6 -139 -12 -89 -8 -118 15 -118 10 0 14 13
14 43 0 75 60 235 102 273 19 18 20 18 35 -1 12 -16 14 -40 9 -117 -3 -57 -1
-98 4 -98 5 0 28 27 52 60 23 33 45 60 48 60 4 0 15 -19 26 -41 10 -23 31 -49
46 -59 15 -9 37 -28 48 -43 12 -15 30 -31 39 -37 27 -14 150 -32 172 -25 27 9
25 39 -2 32 -29 -8 -140 11 -166 29 -33 21 -28 32 17 44 48 13 110 64 110 92
0 26 -28 78 -42 78 -22 0 -118 -81 -135 -115 -22 -42 -32 -37 -67 33 -32 63
-55 67 -86 17 -12 -19 -23 -35 -25 -35 -1 0 -3 24 -3 54 -1 94 -44 142 -95
104z m418 -119 c4 -13 1 -27 -10 -39 -20 -22 -102 -56 -112 -47 -7 8 90 107
105 107 6 0 14 -9 17 -21z"/>
<path d="M10472 9725 c-12 -9 -19 -21 -16 -27 4 -6 3 -8 -3 -5 -11 7 -64 -45
-83 -82 -10 -19 -9 -26 3 -38 13 -13 19 -12 53 11 21 14 42 26 46 26 4 0 8
-19 10 -42 3 -43 3 -43 45 -46 43 -3 83 11 83 29 0 6 -19 7 -51 3 l-51 -7 7
62 c6 51 5 61 -8 61 -9 0 -18 -4 -21 -9 -3 -5 -22 -18 -41 -30 -33 -19 -35
-19 -26 -2 15 27 79 81 97 81 19 0 13 24 -7 28 -8 1 -24 -5 -37 -13z"/>
<path d="M10040 9705 c-31 -23 -35 -24 -52 -9 -53 49 -214 -57 -206 -136 3
-22 8 -25 40 -24 28 1 58 16 129 67 51 37 94 65 96 64 1 -2 -5 -23 -13 -47 -8
-25 -30 -94 -50 -155 -20 -60 -49 -140 -65 -176 -31 -72 -41 -129 -23 -136 7
-2 16 9 22 26 12 34 82 105 126 128 16 8 50 18 75 22 31 4 46 11 46 21 0 33
-117 4 -181 -45 l-32 -25 35 98 c19 53 43 125 53 160 10 34 28 87 39 118 30
78 19 92 -39 49z m-70 -39 c0 -15 -127 -106 -147 -106 -17 0 -16 5 2 40 25 48
145 102 145 66z"/>
<path d="M11057 9710 c-14 -11 -32 -20 -41 -20 -10 0 -23 -25 -41 -81 -14 -44
-25 -84 -25 -90 0 -16 30 -10 37 9 23 68 60 136 84 152 18 14 43 20 78 20 39
0 51 4 51 15 0 24 -110 21 -143 -5z"/>
<path d="M11298 9716 c-10 -7 -18 -18 -18 -25 0 -6 -3 -10 -7 -10 -23 4 -35
-5 -59 -41 -46 -69 -12 -88 87 -51 l50 20 -1 -22 c-4 -43 0 -56 22 -77 31 -29
41 -25 23 10 -8 16 -15 47 -15 68 0 52 -19 59 -86 31 -58 -24 -77 -20 -51 9
10 10 17 24 17 31 0 7 4 10 8 7 14 -8 68 41 57 53 -7 6 -16 5 -27 -3z"/>
<path d="M10179 9693 c-5 -16 -19 -46 -30 -69 -23 -49 -24 -77 -3 -98 19 -19
17 -19 57 -2 71 30 137 132 119 184 -9 25 -27 5 -34 -39 -6 -33 -17 -53 -47
-81 -22 -21 -50 -38 -61 -38 -18 0 -21 4 -16 28 4 15 17 50 30 77 14 27 22 53
20 57 -10 16 -25 7 -35 -19z"/>
<path d="M11810 9668 c-57 -34 -96 -90 -84 -121 3 -8 19 -21 35 -27 47 -20
219 -13 219 9 0 4 -42 8 -92 10 -51 1 -101 4 -110 7 -46 14 2 77 85 114 26 12
45 25 42 31 -11 17 -40 10 -95 -23z"/>
<path d="M2588 9663 c-32 -20 -68 -81 -68 -115 0 -41 29 -58 96 -58 36 1 67 6
78 15 23 17 23 17 -68 19 -49 1 -71 5 -74 15 -3 8 0 11 6 7 18 -11 76 19 105
54 25 29 26 35 14 54 -18 27 -54 31 -89 9z m62 -26 c0 -17 -25 -39 -67 -60
l-33 -15 15 28 c24 47 85 80 85 47z"/>
<path d="M2750 9626 c0 -8 9 -35 19 -59 l20 -46 -45 -18 c-41 -17 -53 -31 -38
-46 3 -3 25 4 49 15 l42 21 39 -27 c21 -14 46 -26 56 -26 32 0 28 19 -7 36
-19 9 -38 20 -40 24 -3 5 13 23 35 40 35 27 41 38 38 64 -2 21 -9 32 -21 34
-15 3 -18 0 -12 -18 5 -16 0 -29 -21 -51 -15 -16 -33 -29 -40 -29 -7 0 -20 23
-30 50 -17 46 -44 69 -44 36z"/>
<path d="M4539 9603 c-75 -79 -87 -121 -44 -149 33 -21 161 -12 188 15 20 20
-3 29 -40 15 -44 -15 -112 -18 -133 -4 -13 8 -12 14 5 46 10 20 36 51 57 68
35 31 40 46 13 46 -6 0 -27 -17 -46 -37z"/>
<path d="M6264 9619 c-47 -17 -85 -99 -69 -149 10 -30 45 -41 90 -27 38 11 60
39 51 62 -3 8 -1 17 4 20 15 9 12 48 -5 72 -17 25 -43 33 -71 22z m44 -41 c20
-20 14 -24 -23 -20 -40 5 -48 -14 -11 -27 48 -19 37 -61 -16 -61 -35 0 -43 19
-28 65 16 48 52 69 78 43z"/>
<path d="M6546 9612 c-3 -5 -4 -32 -4 -60 2 -61 -7 -73 -53 -75 -32 -2 -34 0
-33 28 1 17 3 41 5 54 6 36 -17 36 -30 0 -28 -79 -4 -125 62 -116 68 9 96 55
82 137 -6 38 -18 50 -29 32z"/>
<path d="M14437 9538 c-9 -5 -17 -16 -17 -24 0 -12 7 -14 30 -9 26 6 35 2 61
-26 52 -55 63 -87 62 -169 -1 -94 -29 -171 -85 -235 -58 -66 -177 -167 -189
-160 -14 9 -24 -24 -11 -37 25 -25 246 184 282 265 11 25 25 78 31 118 10 63
9 83 -4 129 -27 94 -114 174 -160 148z"/>
<path d="M4807 9518 c-7 -24 10 -51 24 -42 5 3 9 18 9 35 0 35 -25 40 -33 7z"/>
<path d="M15578 9503 c-9 -10 -22 -31 -31 -48 -24 -48 -58 -72 -112 -79 -85
-11 -170 -98 -162 -166 3 -31 -4 -44 -64 -118 -68 -82 -92 -133 -82 -172 9
-35 33 -24 33 16 0 44 10 64 73 139 28 33 54 64 58 68 4 5 19 1 34 -9 60 -39
193 -6 216 54 16 39 26 123 19 152 -4 18 -13 25 -28 24 -22 -1 -22 1 7 30 16
17 36 46 45 64 11 20 24 32 37 32 26 0 20 24 -7 28 -11 2 -27 -5 -36 -15z
m-204 -226 c-69 -72 -95 -78 -54 -12 23 37 63 70 95 78 11 2 22 5 24 6 2 0
-27 -32 -65 -72z m156 13 c0 -79 -29 -120 -101 -140 -29 -9 -94 4 -103 19 -3
4 26 41 63 82 59 64 74 75 105 77 36 3 36 2 36 -38z"/>
<path d="M7453 9483 c-7 -3 -13 -11 -13 -20 0 -8 -14 -56 -31 -107 l-31 -92
-57 7 c-31 3 -60 2 -66 -3 -15 -13 14 -28 57 -28 20 0 39 -4 42 -9 3 -4 -6
-38 -20 -75 -25 -64 -26 -96 -4 -96 5 0 10 6 10 13 0 6 12 45 27 85 19 50 33
72 44 72 10 0 20 6 23 13 5 10 7 10 12 0 8 -18 70 -16 88 3 9 9 16 11 16 4 0
-6 5 -8 10 -5 27 17 -7 25 -77 19 -72 -7 -76 -6 -69 12 5 10 21 59 37 108 28
86 28 109 2 99z"/>
<path d="M12600 9431 c0 -44 13 -59 35 -41 17 14 38 -15 55 -79 30 -113 -45
-244 -196 -342 -35 -23 -79 -45 -97 -48 -20 -4 -33 -14 -35 -25 -6 -30 50 -13
134 40 135 83 218 191 230 300 8 63 -23 155 -68 201 -43 44 -58 43 -58 -6z"/>
<path d="M13092 9434 c-62 -44 -136 -139 -189 -243 -31 -61 -38 -86 -41 -147
-4 -69 -2 -77 32 -138 39 -70 79 -108 102 -99 21 8 17 16 -15 34 -17 10 -40
41 -60 79 -37 76 -40 134 -10 214 40 108 154 256 227 295 12 6 33 9 48 5 22
-6 25 -4 22 12 -6 35 -57 29 -116 -12z"/>
<path d="M11010 9428 c-140 -87 -261 -225 -301 -345 -17 -52 -18 -68 -9 -102
22 -81 117 -153 223 -167 39 -6 47 -4 47 10 0 10 -8 16 -24 16 -74 0 -181 65
-208 128 -19 41 -19 45 -2 95 27 84 50 122 114 190 74 80 157 144 190 149 17
2 25 9 25 22 0 28 -15 29 -55 4z"/>
<path d="M7670 9391 c0 -24 18 -37 32 -23 8 8 7 16 -2 27 -17 21 -30 19 -30
-4z"/>
<path d="M14083 9389 c-18 -5 -33 -16 -33 -24 0 -23 17 -26 47 -9 21 12 39 15
67 10 38 -7 38 -7 19 -28 -10 -11 -35 -31 -55 -44 -52 -33 -49 -51 10 -60 93
-13 105 -37 41 -83 -57 -42 -98 -49 -120 -22 -20 24 -39 28 -39 6 0 -24 38
-55 68 -55 66 1 162 68 162 114 0 30 -42 66 -79 66 -25 1 -25 2 17 38 49 44
55 77 16 92 -31 12 -78 11 -121 -1z"/>
<path d="M2847 9368 c-4 -13 -11 -66 -17 -118 -13 -107 -22 -120 -82 -120 -31
0 -38 -3 -38 -20 0 -21 -1 -21 71 -6 l26 6 -8 -52 c-5 -29 -15 -56 -23 -60
-12 -7 -13 -13 -4 -33 12 -27 37 -34 39 -10 1 8 2 18 4 23 1 4 5 31 10 60 10
71 23 82 96 82 46 0 59 3 59 15 0 12 -14 15 -65 15 -36 0 -65 3 -65 8 0 43 25
189 32 193 15 9 2 39 -16 39 -7 0 -16 -10 -19 -22z"/>
<path d="M2550 9320 c0 -56 -28 -188 -46 -215 -22 -34 -9 -105 20 -106 62 -4
137 34 161 81 41 79 -12 148 -89 116 l-33 -14 8 42 c14 71 11 136 -6 136 -11
0 -15 -11 -15 -40z m114 -173 c22 -35 -55 -117 -110 -117 -19 0 -24 5 -24 28
0 76 100 143 134 89z"/>
<path d="M4652 9248 c-16 -51 -46 -131 -66 -178 -39 -92 -43 -110 -23 -110 8
0 22 19 32 43 72 172 140 278 194 298 20 8 28 7 38 -7 16 -22 8 -63 -33 -154
-44 -100 -51 -130 -31 -130 16 0 97 64 129 102 18 20 18 20 44 -11 14 -17 31
-31 38 -31 7 0 19 -11 26 -25 18 -33 68 -47 150 -43 48 2 66 7 68 18 2 13 -9
15 -73 12 -59 -3 -81 0 -102 13 l-26 17 48 17 c28 9 57 27 69 44 l20 27 -21
28 c-11 15 -31 28 -45 30 -32 4 -77 -32 -95 -77 l-15 -35 -19 25 c-10 13 -19
30 -19 37 0 32 -31 19 -85 -35 -31 -32 -55 -51 -52 -43 3 8 17 42 31 75 38 93
41 125 15 159 -27 34 -61 31 -114 -10 l-35 -26 6 31 c5 24 3 31 -8 31 -10 0
-25 -31 -46 -92z m456 -96 c3 -18 -4 -26 -32 -37 -45 -19 -56 -19 -56 0 0 23
48 67 68 63 9 -2 18 -13 20 -26z"/>
<path d="M12191 9324 c-63 -17 -81 -29 -81 -55 0 -25 26 -24 39 0 6 11 27 22
48 25 21 4 46 9 56 12 9 3 17 1 17 -4 0 -22 -120 -136 -180 -170 -45 -26 -65
-44 -65 -57 0 -32 28 -28 79 11 l48 36 -16 -30 c-21 -40 -20 -71 1 -79 39 -15
203 37 203 64 0 17 -9 16 -61 -6 -47 -20 -129 -37 -129 -26 0 3 9 24 21 46 11
22 18 46 16 52 -2 7 23 41 55 75 46 50 58 70 56 90 -4 33 -30 37 -107 16z"/>
<path d="M3314 9286 c-9 -24 0 -69 15 -74 10 -3 13 2 9 22 -4 20 -1 26 13 26
23 0 25 25 3 34 -24 9 -34 7 -40 -8z"/>
<path d="M14883 9289 c-15 -15 -17 -39 -4 -39 6 0 13 5 16 10 6 10 69 5 117
-10 35 -11 49 16 15 29 -46 18 -131 23 -144 10z"/>
<path d="M11251 9239 c-24 -21 -71 -56 -105 -76 -34 -20 -69 -43 -78 -51 -23
-19 -24 -57 -2 -48 9 3 18 6 20 6 2 0 4 6 4 13 0 6 25 27 56 44 46 27 55 30
53 15 -5 -54 20 -56 106 -8 l61 33 -4 -32 c-7 -60 67 -93 135 -61 47 22 34 32
-38 28 -73 -5 -77 4 -50 84 26 76 12 94 -31 41 -28 -35 -148 -108 -148 -90 0
5 21 30 45 56 43 46 59 87 33 87 -7 -1 -33 -19 -57 -41z"/>
<path d="M13244 9237 c-19 -26 -65 -65 -119 -101 -60 -40 -84 -61 -77 -68 7
-7 28 0 69 25 l58 36 3 -24 c5 -41 37 -41 111 3 l68 39 -1 -37 c-1 -53 18 -72
68 -68 28 2 41 8 41 18 0 11 -9 14 -37 12 -37 -3 -38 -3 -38 31 0 19 11 60 25
91 22 49 23 57 9 63 -9 3 -21 -3 -31 -18 -42 -61 -161 -145 -179 -126 -7 6 32
74 67 119 19 24 19 48 0 48 -4 0 -21 -19 -37 -43z"/>
<path d="M7580 9227 c-36 -57 -40 -129 -9 -135 12 -2 15 7 15 46 0 34 7 58 22
79 19 26 20 32 7 37 -10 4 -22 -5 -35 -27z"/>
<path d="M6225 9236 c-46 -20 -93 -80 -110 -141 -19 -64 -13 -93 21 -101 46
-12 179 27 171 50 -3 6 -11 9 -18 8 -8 -2 -42 -11 -77 -20 -71 -19 -82 -13
-74 38 3 21 13 33 35 42 85 36 112 54 122 81 8 24 6 31 -10 43 -23 17 -22 17
-60 0z m39 -40 c-6 -15 -81 -52 -90 -44 -2 3 9 17 26 32 34 28 73 36 64 12z"/>
<path d="M7795 9240 c-4 -6 -23 -19 -44 -30 -71 -36 -89 -130 -28 -146 31 -7
122 37 138 67 15 29 3 85 -24 104 -25 18 -34 19 -42 5z m40 -61 c8 -26 -17
-56 -64 -76 -62 -26 -72 34 -12 74 42 29 68 29 76 2z"/>
<path d="M6706 9232 c-2 -4 -1 -14 5 -22 5 -8 9 -34 9 -57 0 -83 18 -91 93
-40 53 35 96 102 78 120 -7 7 -17 -2 -32 -27 -12 -20 -41 -50 -65 -67 l-44
-30 -1 38 c-1 21 -1 42 0 46 2 13 -19 47 -29 47 -5 0 -11 -4 -14 -8z"/>
<path d="M7972 9192 c-46 -70 -66 -122 -52 -136 11 -11 12 -11 82 40 l43 32 0
-46 c0 -39 4 -48 26 -61 23 -13 38 -13 113 -1 82 13 129 31 115 45 -4 3 -46
-1 -94 -10 -48 -9 -98 -14 -111 -11 -34 9 -31 46 7 114 17 30 27 58 22 63 -4
4 -40 -19 -78 -51 -39 -33 -74 -60 -78 -60 -9 0 7 32 34 72 20 28 25 58 10 58
-5 0 -23 -21 -39 -48z"/>
<path d="M13618 9233 c-10 -2 -18 -11 -18 -18 0 -11 19 -13 93 -9 105 6 121
10 112 24 -6 10 -153 12 -187 3z"/>
<path d="M6449 9198 c-23 -18 -51 -45 -63 -61 -19 -25 -19 -28 -3 -44 15 -15
21 -15 84 10 38 15 72 27 76 27 24 0 -31 -207 -82 -309 -28 -56 -37 -82 -29
-87 7 -5 22 7 37 27 14 19 54 63 88 98 49 50 66 62 75 53 16 -16 28 -15 28 2
0 21 -27 38 -49 31 -11 -3 -35 -21 -54 -40 l-35 -35 23 78 c25 86 50 221 42
228 -3 3 -40 -9 -83 -25 -93 -36 -103 -38 -79 -11 34 38 82 61 109 54 19 -4
26 -2 26 9 0 16 -20 27 -50 27 -10 0 -38 -15 -61 -32z"/>
<path d="M6962 9215 c-24 -17 -52 -65 -52 -89 0 -23 29 -46 58 -46 15 0 46 11
70 25 l42 24 0 -28 c0 -15 9 -36 19 -45 20 -18 41 -15 41 6 0 7 -4 7 -13 -1
-11 -8 -13 -2 -12 32 1 23 5 54 9 70 5 17 4 27 -2 27 -9 0 -102 -57 -129 -80
-13 -10 -53 2 -53 16 0 19 37 64 57 69 14 3 23 11 20 18 -6 18 -30 19 -55 2z"/>
<path d="M11657 9224 c-4 -4 -7 -10 -7 -14 0 -7 121 -30 154 -30 27 0 17 28
-11 34 -64 12 -129 17 -136 10z"/>
<path d="M14870 9194 c0 -7 18 -15 43 -19 23 -3 57 -9 75 -12 30 -5 33 -3 30
16 -3 20 -10 22 -75 25 -54 2 -73 0 -73 -10z"/>
<path d="M3271 9171 c-15 -27 -42 -188 -35 -206 7 -17 20 -20 29 -5 3 5 7 37
9 72 2 35 11 82 19 105 8 23 12 45 9 48 -10 10 -21 5 -31 -14z"/>
<path d="M2280 9167 c0 -8 -9 -22 -21 -33 -48 -44 -64 -115 -30 -134 25 -13
104 3 149 30 35 21 42 54 20 93 -7 12 -12 29 -13 37 0 21 -105 28 -105 7z m80
-47 c11 -11 20 -27 20 -35 0 -22 -45 -47 -95 -53 -55 -6 -58 7 -15 66 34 47
59 53 90 22z"/>
<path d="M3080 9160 c-14 -4 -40 -8 -57 -9 -37 -1 -48 -31 -13 -31 20 0 20 0
-1 -29 -33 -45 -23 -66 33 -66 30 0 53 -6 65 -18 11 -9 25 -17 31 -17 21 0 13
23 -15 48 -23 19 -34 22 -66 16 -37 -6 -38 -5 -28 14 6 11 31 33 56 49 63 40
60 64 -5 43z"/>
<path d="M3390 9095 c-42 -43 -52 -57 -42 -67 9 -9 21 -3 53 31 23 23 44 40
47 36 3 -3 11 -38 17 -77 6 -44 16 -73 24 -76 12 -4 13 8 8 65 -6 70 -28 143
-44 143 -5 0 -33 -25 -63 -55z"/>
<path d="M13470 9081 c0 -5 5 -13 10 -16 6 -3 10 -2 10 4 0 5 -4 13 -10 16 -5
3 -10 2 -10 -4z"/>
<path d="M3657 8594 c-4 -4 -7 -16 -7 -26 0 -10 -11 -40 -24 -66 -13 -26 -33
-76 -44 -112 -11 -36 -35 -99 -52 -140 -59 -141 -53 -151 33 -55 32 36 67 70
78 76 19 10 20 7 18 -36 -3 -44 10 -73 28 -62 4 3 6 34 3 69 -4 55 -8 63 -27
66 -14 2 -36 -10 -61 -33 l-40 -36 39 111 c21 60 47 127 58 148 22 44 30 94
15 99 -5 2 -13 0 -17 -3z"/>
<path d="M13241 8563 c-8 -21 -30 -64 -51 -98 -67 -110 -136 -290 -120 -315
11 -17 30 -3 30 22 0 33 69 195 126 298 30 52 54 103 54 112 0 32 -26 19 -39
-19z"/>
<path d="M13735 8557 c6 -29 0 -40 -43 -94 -27 -34 -55 -75 -62 -92 -10 -25
-18 -30 -53 -33 -52 -4 -63 -28 -13 -28 l37 0 -17 -32 c-9 -18 -34 -59 -55
-90 -36 -54 -38 -75 -7 -63 7 3 36 46 63 94 53 95 62 101 148 101 19 0 27 4
24 13 -2 7 -23 12 -54 12 l-51 0 18 35 c10 19 27 44 39 54 42 38 64 84 57 121
-4 22 -13 35 -22 35 -11 0 -13 -8 -9 -33z"/>
<path d="M2293 8553 c-47 -65 -55 -92 -52 -181 3 -84 3 -86 -21 -93 -14 -4
-41 -7 -61 -8 -38 -1 -79 -24 -62 -34 6 -4 45 -1 87 6 83 15 86 13 86 -43 0
-35 -28 -70 -57 -73 -31 -2 -29 -15 4 -23 22 -6 32 -1 56 26 27 30 29 38 24
85 -5 52 -5 53 25 59 17 3 34 6 39 6 12 0 11 -37 -1 -45 -24 -15 -2 -105 26
-105 16 0 72 30 86 47 17 18 16 22 -12 82 -17 34 -30 69 -30 76 0 18 -19 30
-30 19 -5 -5 5 -42 22 -83 30 -71 30 -74 13 -87 -11 -8 -27 -14 -37 -14 -22 0
-24 38 -3 66 22 29 18 53 -12 67 -20 9 -27 9 -30 0 -5 -15 -64 -6 -75 11 -16
23 -8 136 11 175 30 59 47 68 74 42 32 -29 52 -29 36 2 -29 53 -75 61 -106 20z"/>
<path d="M11450 8544 c-6 -14 -10 -29 -10 -34 0 -22 -87 -219 -117 -265 -36
-56 -47 -100 -23 -100 8 0 33 36 57 80 64 122 127 194 203 233 54 28 66 31 68
18 4 -20 -38 -112 -77 -170 -32 -46 -40 -76 -19 -76 6 0 31 11 55 25 33 20 43
23 43 11 0 -20 39 -46 67 -46 16 0 27 -8 33 -24 5 -14 18 -30 29 -36 37 -19
131 -5 131 20 0 6 -21 8 -53 4 -43 -5 -57 -3 -70 11 -18 18 -15 35 7 35 7 0
32 14 54 30 44 32 55 67 28 89 -20 17 -44 3 -94 -55 -55 -61 -88 -56 -115 20
-1 5 -17 1 -35 -8 l-32 -16 40 75 c45 86 52 140 20 150 -27 9 -118 -34 -168
-79 l-40 -36 24 57 c25 61 31 113 14 113 -6 0 -15 -12 -20 -26z m390 -229 c0
-8 -44 -45 -54 -45 -5 0 1 11 14 25 21 23 40 32 40 20z"/>
<path d="M9160 8494 c0 -18 24 -24 93 -24 l62 -1 -45 -23 c-25 -13 -53 -33
-63 -44 -18 -20 -18 -21 2 -31 11 -6 27 -11 36 -11 9 0 29 -7 45 -15 26 -13
30 -21 30 -54 0 -93 -124 -153 -179 -87 -18 22 -31 20 -31 -4 0 -32 57 -62
104 -55 87 13 136 65 136 146 0 52 -17 73 -74 93 l-36 12 90 42 c49 23 90 46
90 52 0 13 8 12 -137 14 -91 2 -123 -1 -123 -10z"/>
<path d="M4260 8462 c0 -22 -7 -59 -15 -82 -8 -23 -12 -46 -9 -51 3 -5 1 -9
-4 -9 -4 0 -16 -26 -26 -57 -10 -32 -21 -64 -23 -70 -11 -27 23 -11 58 27 39
43 69 52 69 22 0 -34 35 -55 81 -49 41 5 83 33 73 48 -9 15 -27 10 -21 -5 4
-11 -5 -14 -43 -14 -47 -1 -49 1 -60 34 -9 27 -17 34 -36 34 -14 0 -34 -5 -44
-10 -17 -9 -17 -4 6 62 26 76 29 148 7 156 -9 2 -13 -9 -13 -36z"/>
<path d="M3887 8464 c-13 -13 -7 -61 8 -74 12 -10 16 -9 21 3 14 37 -8 91 -29
71z"/>
<path d="M6283 8431 c-66 -31 -97 -66 -68 -77 10 -4 22 1 30 13 7 11 32 28 55
38 52 23 67 12 47 -36 -14 -34 -98 -119 -117 -119 -18 0 -110 -73 -116 -93
-15 -48 43 -28 117 40 l26 24 -1 -63 c-1 -54 2 -63 19 -66 23 -5 192 77 200
96 9 23 -6 35 -23 19 -18 -14 -156 -87 -167 -87 -4 0 -3 30 0 68 7 61 11 71
50 113 51 54 64 99 41 134 -9 14 -20 25 -24 25 -4 0 -35 -13 -69 -29z"/>
<path d="M13876 8445 c-3 -9 1 -18 10 -22 19 -7 39 11 30 26 -10 16 -33 13
-40 -4z"/>
<path d="M5161 8379 c-23 -52 -174 -193 -218 -205 -22 -6 -34 -44 -15 -44 13
0 96 57 117 80 26 29 31 25 27 -20 -3 -30 0 -41 12 -46 17 -6 93 34 116 60 21
26 31 18 25 -17 -9 -48 11 -62 64 -43 23 7 41 9 41 4 0 -5 -13 -37 -29 -71
-42 -92 -45 -105 -26 -133 20 -31 36 -22 29 16 -4 20 3 52 25 104 17 41 31 84
31 95 0 18 -5 19 -54 16 l-54 -5 9 33 c5 17 25 64 44 103 19 39 35 76 35 83 0
28 -35 3 -63 -44 -16 -28 -43 -65 -60 -82 -40 -42 -105 -88 -114 -80 -9 9 25
80 64 135 33 48 43 92 20 92 -6 0 -18 -14 -26 -31z"/>
<path d="M10403 8386 c-61 -29 -124 -89 -153 -147 -30 -57 -35 -43 -9 25 20
56 20 58 2 72 -36 29 -62 35 -97 20 -41 -17 -106 -92 -106 -123 0 -39 29 -40
101 -1 l67 36 -10 -28 c-14 -40 -7 -94 13 -98 16 -3 41 31 77 101 20 38 70 85
114 108 47 24 64 24 64 0 0 -11 -4 -17 -8 -15 -4 3 -12 -13 -18 -35 -10 -39
-5 -71 11 -71 5 0 9 -13 9 -29 0 -43 31 -61 105 -60 71 1 97 9 101 33 2 13 -2
16 -14 10 -34 -14 -132 -17 -147 -4 -30 25 -17 48 47 82 34 18 70 44 80 58 21
28 15 60 -10 60 -22 0 -108 -57 -134 -89 l-21 -26 6 25 c3 14 11 39 18 57 10
26 10 34 0 47 -18 21 -27 20 -88 -8z m207 -51 c0 -8 -80 -58 -85 -53 -3 3 12
17 32 31 37 25 53 32 53 22z m-400 -17 c0 -12 -76 -61 -122 -80 -30 -12 -20
10 22 52 29 29 48 40 70 40 17 0 30 -5 30 -12z"/>
<path d="M14612 8399 c-45 -13 -55 -44 -40 -125 l12 -65 -33 -32 c-22 -21 -35
-28 -38 -19 -8 21 -35 14 -31 -9 6 -41 32 -46 71 -13 56 46 62 65 50 137 -6
34 -7 69 -2 78 5 9 26 19 49 22 49 6 60 14 40 27 -18 12 -34 11 -78 -1z"/>
<path d="M12623 8379 c-30 -11 -54 -28 -58 -39 -7 -22 15 -79 38 -99 28 -22
19 -38 -24 -45 -33 -5 -44 -3 -55 11 -8 11 -13 13 -14 6 0 -7 -7 -13 -15 -13
-24 0 -18 -27 8 -34 54 -14 141 3 151 31 4 10 -6 36 -29 68 -19 28 -35 54 -35
58 0 15 66 38 126 44 77 7 82 27 8 30 -30 2 -69 -5 -101 -18z"/>
<path d="M14353 8381 c-23 -11 -63 -39 -90 -63 -26 -24 -42 -35 -35 -26 18 23
6 44 -15 26 -26 -21 -87 -158 -75 -170 6 -6 16 -1 28 18 59 85 202 209 221
191 3 -3 -11 -33 -31 -65 -39 -64 -44 -87 -22 -95 15 -6 56 2 56 11 0 2 -7 10
-16 16 -13 10 -11 19 21 71 55 92 40 123 -42 86z"/>
<path d="M3150 8340 c-56 -31 -80 -54 -80 -77 0 -20 24 -15 38 8 13 20 104 69
129 69 19 0 -17 -88 -66 -160 -71 -103 -52 -108 57 -13 l77 67 6 -43 c5 -39
28 -71 49 -71 15 0 90 61 106 85 19 29 24 87 9 95 -5 3 -15 -16 -22 -42 -10
-32 -24 -54 -49 -73 -45 -34 -62 -27 -66 27 -4 52 -26 61 -69 29 -16 -12 -29
-20 -29 -19 0 2 9 27 20 57 12 29 18 62 15 72 -9 29 -61 24 -125 -11z"/>
<path d="M2593 8339 c-21 -6 -39 -21 -48 -40 -20 -37 -16 -104 5 -104 11 0 14
9 12 36 -5 54 22 80 83 82 37 2 50 6 50 17 0 18 -55 23 -102 9z"/>
<path d="M13240 8324 c-18 -47 -9 -81 26 -94 53 -20 176 45 161 84 -9 22 -28
20 -34 -3 -7 -26 -62 -54 -98 -49 -31 3 -35 16 -20 66 11 32 -23 29 -35 -4z"/>
<path d="M7885 8321 c-6 -19 -115 -126 -203 -199 -49 -41 -67 -73 -39 -72 6 1
50 36 97 80 47 43 86 77 88 75 2 -2 -4 -17 -12 -34 -20 -38 -20 -70 0 -78 16
-6 85 38 139 89 l31 28 -4 -35 c-3 -26 0 -36 13 -41 19 -8 40 16 24 27 -12 7
-3 47 22 104 44 95 11 99 -53 5 -41 -61 -132 -140 -145 -126 -3 3 15 46 41 96
25 50 46 93 46 96 0 13 -40 1 -45 -15z"/>
<path d="M13742 8258 c-25 -48 -39 -85 -33 -91 11 -11 42 32 71 101 39 90 9
82 -38 -10z"/>
<path d="M13978 8327 c-42 -10 -88 -57 -88 -88 0 -11 11 -31 25 -45 28 -28 50
-26 125 11 59 30 82 56 83 96 3 44 -29 54 -39 12 -17 -70 -138 -138 -158 -87
-14 36 29 74 83 74 20 0 31 5 31 14 0 20 -19 24 -62 13z"/>
<path d="M3816 8308 c-1 -7 -11 -35 -20 -63 -28 -80 -30 -95 -13 -95 14 0 47
76 63 143 5 21 3 27 -10 27 -9 0 -18 -6 -20 -12z"/>
<path d="M5750 8311 c-30 -8 -35 -38 -5 -33 41 7 101 6 118 -2 13 -6 17 -4 17
12 0 29 -65 41 -130 23z"/>
<path d="M3987 8284 c-44 -29 -98 -109 -90 -130 10 -28 39 -34 97 -23 34 7 53
16 49 22 -4 6 0 8 10 4 17 -7 67 11 67 23 0 17 -15 18 -48 5 -50 -22 -142 -31
-142 -15 0 34 93 114 122 104 13 -4 18 0 18 15 0 30 -36 27 -83 -5z"/>
<path d="M8578 8299 c-10 -5 -18 -17 -18 -24 0 -18 26 -20 36 -4 5 8 37 10
100 7 92 -5 113 1 75 22 -25 13 -171 13 -193 -1z"/>
<path d="M12850 8299 c0 -4 -9 -11 -20 -14 -24 -8 -80 -53 -80 -65 0 -5 7 -16
16 -24 16 -17 114 -21 164 -7 35 10 38 45 6 74 -14 14 -26 29 -26 35 0 6 -13
10 -30 10 -16 -1 -30 -5 -30 -9z m29 -55 c17 -8 29 -20 26 -25 -8 -12 -115
-12 -115 1 0 7 32 30 56 40 0 0 15 -7 33 -16z"/>
<path d="M5878 8234 c-3 -3 -22 -7 -41 -9 -107 -10 -158 -18 -163 -27 -8 -12
14 -28 30 -22 6 2 43 9 81 14 123 17 141 23 130 41 -7 10 -29 12 -37 3z"/>
<path d="M8125 8223 c-40 -21 -75 -53 -75 -70 0 -18 26 -17 33 2 9 21 87 59
87 42 0 -37 -93 -145 -175 -205 -50 -36 -80 -69 -80 -86 0 -24 25 -12 85 41
l65 56 5 -69 c4 -62 7 -69 27 -72 26 -4 148 61 157 83 8 21 -13 29 -32 12 -24
-21 -112 -70 -117 -65 -8 8 -8 150 1 156 23 17 86 105 94 130 16 56 -17 76
-75 45z"/>
<path d="M8575 8189 c-4 -6 -5 -12 -4 -14 10 -9 203 -8 206 2 2 6 -6 13 -19
17 -39 10 -176 7 -183 -5z"/>
<path d="M14760 8080 c0 -11 6 -20 14 -20 21 0 31 21 15 31 -22 14 -29 11 -29
-11z"/>
<path d="M6993 8073 c-8 -3 -10 -15 -7 -32 5 -24 -2 -37 -50 -85 -31 -32 -56
-62 -56 -67 0 -21 29 -6 72 39 53 54 68 80 68 116 0 27 -8 36 -27 29z"/>
<path d="M7492 7688 c-7 -7 -12 -23 -12 -36 0 -45 -62 -267 -80 -287 -33 -37
-34 -64 -5 -91 37 -34 68 -30 116 13 49 44 73 87 65 118 -8 32 -37 39 -80 21
-20 -8 -36 -13 -36 -10 0 3 11 49 24 102 39 157 41 203 8 170z m58 -293 c0
-32 -77 -115 -106 -115 -42 0 -23 69 28 100 31 18 78 27 78 15z"/>
<path d="M9259 7588 c-24 -50 -55 -114 -69 -142 l-25 -51 -65 -7 c-90 -10
-110 -16 -110 -33 0 -21 27 -19 39 3 6 9 11 12 11 4 0 -9 14 -11 55 -6 30 4
55 3 55 -2 0 -5 -11 -36 -25 -69 -28 -69 -31 -95 -10 -95 8 0 15 5 15 10 0 6
14 46 31 90 l30 79 47 6 c26 3 58 8 71 11 23 5 23 4 -7 -24 -57 -54 -64 -112
-13 -112 37 0 117 28 132 46 10 13 9 22 -7 51 -10 20 -17 47 -16 59 2 13 -2
24 -8 24 -6 0 -15 11 -20 25 -13 35 -33 32 -28 -5 4 -28 3 -30 -41 -35 -25 -3
-56 -7 -68 -9 -13 -2 -23 -2 -23 1 0 8 57 132 87 191 36 69 39 82 20 82 -7 0
-33 -41 -58 -92z m117 -235 c27 -36 13 -53 -53 -68 -44 -9 -44 12 -1 54 37 36
37 36 54 14z"/>
<path d="M8260 7629 c0 -7 -27 -72 -61 -146 -76 -168 -72 -191 20 -135 l46 29
0 -42 c0 -55 18 -75 67 -75 51 0 116 26 101 41 -8 8 -20 8 -44 0 -52 -18 -78
-14 -91 14 -9 21 -7 33 15 76 26 48 34 79 21 79 -3 0 -26 -17 -52 -38 -47 -39
-102 -76 -102 -69 0 2 25 57 55 123 57 124 65 154 40 154 -8 0 -15 -5 -15 -11z"/>
<path d="M5380 7563 c-22 -31 -50 -78 -63 -104 -22 -48 -23 -48 -70 -49 -59 0
-61 -23 -3 -28 l37 -3 -6 -53 c-7 -58 10 -108 40 -120 48 -18 125 6 125 40 0
18 -10 17 -34 -1 -31 -23 -73 -19 -91 9 -16 25 -14 96 4 125 5 8 40 13 99 14
83 2 92 4 92 21 0 18 -6 19 -90 13 l-90 -6 11 22 c28 55 65 107 76 107 12 0
35 55 26 64 -13 13 -23 4 -63 -51z"/>
<path d="M10187 7535 c-45 -34 -48 -35 -71 -20 -35 23 -81 16 -82 -12 -1 -24
21 -32 28 -11 4 10 10 10 32 0 26 -12 27 -12 10 -44 -23 -45 -85 -90 -126 -92
-10 -1 -18 -4 -18 -8 0 -5 0 -12 0 -18 0 -17 33 -11 79 15 50 29 51 29 51 11
0 -39 75 -57 139 -35 36 13 45 46 9 34 -103 -33 -143 -2 -101 78 20 40 68 84
111 103 17 8 32 19 32 24 0 22 -50 8 -93 -25z"/>
<path d="M11450 7515 c0 -22 80 -59 173 -79 15 -4 25 -11 22 -16 -4 -6 -48
-35 -98 -64 -111 -66 -197 -140 -181 -156 8 -8 25 1 60 33 27 25 89 68 139 97
49 29 100 64 113 77 33 33 19 45 -73 67 -38 9 -82 25 -97 36 -32 24 -58 26
-58 5z"/>
<path d="M3695 7488 c-60 -33 -125 -121 -125 -171 0 -32 33 -65 74 -73 39 -7
93 2 102 18 5 7 2 8 -6 3 -10 -6 -12 -4 -7 8 5 14 2 15 -19 7 -38 -15 -69 -12
-94 8 -18 15 -21 24 -15 51 13 59 93 131 145 131 11 0 20 7 20 15 0 18 -45 20
-75 3z"/>
<path d="M6530 7435 c-61 -79 -94 -110 -177 -171 -62 -45 -70 -54 -57 -67 7
-7 113 64 140 94 22 25 29 24 42 -6 15 -32 24 -31 84 5 26 17 50 30 53 30 3 0
5 -13 5 -30 0 -42 24 -51 91 -36 60 14 99 32 99 45 0 17 -14 20 -39 7 -14 -8
-48 -17 -74 -21 -57 -9 -60 1 -21 76 19 36 24 53 16 61 -8 8 -19 2 -39 -22
-27 -33 -123 -100 -142 -100 -13 0 24 82 62 136 22 31 28 47 20 55 -7 7 -26
-10 -63 -56z"/>
<path d="M2284 7463 c-4 -16 -22 -60 -40 -100 -37 -77 -42 -103 -20 -103 8 0
26 29 42 65 27 65 80 125 109 125 19 0 19 -1 -9 -79 -30 -84 -38 -156 -16
-156 10 0 17 15 21 50 4 28 16 75 28 105 25 65 26 93 6 110 -12 10 -23 8 -55
-8 -39 -19 -40 -19 -40 -1 0 29 -19 23 -26 -8z"/>
<path d="M2755 7433 c-15 -27 -30 -67 -32 -90 -5 -35 -2 -43 17 -53 18 -10 28
-8 61 14 35 24 39 25 39 8 0 -22 30 -52 51 -52 42 1 99 79 99 136 0 47 -22 76
-43 55 -9 -9 -9 -16 1 -31 19 -31 14 -57 -19 -94 -40 -46 -63 -39 -56 15 3 22
1 42 -4 45 -5 3 -28 -11 -51 -30 -23 -20 -48 -36 -55 -36 -22 0 -15 40 17 92
28 45 32 68 10 68 -4 0 -20 -21 -35 -47z"/>
<path d="M4524 7462 c-14 -9 -39 -59 -48 -94 -9 -39 -21 -35 -35 11 -6 21 -18
42 -26 45 -18 7 -19 -12 -4 -51 6 -15 14 -50 18 -78 4 -32 11 -50 20 -50 12 0
20 17 65 138 12 32 26 51 42 57 13 5 24 14 24 20 0 11 -40 13 -56 2z"/>
<path d="M2483 7428 c-48 -53 -59 -119 -22 -139 33 -17 102 -2 156 34 59 40
65 65 23 101 -43 35 -126 38 -157 4z m138 -28 l24 -20 -25 -20 c-33 -26 -103
-53 -126 -48 -26 5 -28 37 -4 76 17 28 25 32 64 32 29 0 52 -7 67 -20z"/>
<path d="M4984 7439 c-23 -12 -67 -86 -78 -131 -7 -33 10 -81 27 -75 6 2 11
13 9 23 -6 38 -2 65 18 104 27 52 51 65 96 50 41 -14 49 -10 31 13 -15 22 -75
30 -103 16z"/>
<path d="M3878 7432 c-20 -4 -23 -13 -8 -28 7 -7 4 -16 -10 -29 -28 -25 -26
-63 4 -76 34 -16 162 22 171 51 9 27 0 38 -48 59 -46 21 -83 29 -109 23z m103
-52 c31 -17 22 -28 -32 -44 -69 -21 -92 -9 -53 28 31 28 54 32 85 16z"/>
<path d="M4147 7398 c-44 -48 -77 -97 -77 -115 0 -26 26 -11 52 30 40 63 85
104 100 89 9 -9 9 -27 0 -76 -12 -66 -8 -100 12 -93 6 2 12 15 12 28 1 13 5
49 9 80 14 107 -36 133 -108 57z"/>
<path d="M4714 7398 c-47 -47 -55 -78 -28 -116 12 -18 25 -22 69 -22 62 0 109
15 102 33 -2 6 -11 10 -18 8 -8 -2 -38 -6 -68 -9 -39 -3 -56 -1 -62 9 -13 22
-11 29 11 29 31 0 128 39 133 54 10 26 -22 56 -59 56 -28 0 -45 -9 -80 -42z
m100 3 c6 -10 -46 -31 -73 -31 -12 1 -10 5 8 20 24 21 56 26 65 11z"/>
<path d="M7869 7361 c-45 -44 -53 -93 -20 -111 21 -11 167 12 184 29 18 18 -2
30 -36 20 -83 -23 -128 -27 -134 -13 -7 19 23 62 53 76 13 6 24 17 24 25 0 25
-32 13 -71 -26z"/>
<path d="M11040 7387 c0 -11 49 -16 217 -25 198 -11 257 -8 225 12 -10 6 -306
26 -394 26 -33 0 -48 -4 -48 -13z"/>
<path d="M7641 7344 c-23 -29 -25 -42 -12 -63 6 -10 19 -12 41 -8 23 5 30 3
27 -6 -6 -17 11 -47 28 -47 20 0 29 19 16 34 -8 10 -8 22 -1 40 12 34 -9 45
-48 25 -15 -7 -31 -15 -35 -17 -5 -3 -4 5 2 17 7 11 21 21 31 21 11 0 20 5 20
11 0 5 -4 7 -10 4 -5 -3 -10 -1 -10 4 0 20 -28 11 -49 -15z"/>
<path d="M11178 6893 c-25 -10 -38 -22 -38 -34 0 -23 -3 -23 45 1 42 21 80 26
90 10 3 -5 -30 -34 -75 -65 -44 -31 -83 -61 -86 -67 -4 -6 2 -17 12 -25 15
-11 40 -13 114 -8 114 8 130 12 130 31 0 12 -7 14 -27 10 -16 -2 -64 -7 -108
-11 l-80 -5 29 22 c16 13 51 40 78 61 51 40 61 69 29 87 -27 14 -69 12 -113
-7z"/>
<path d="M7880 6839 c-41 -5 -160 -25 -263 -45 -162 -32 -191 -35 -212 -24
-33 17 -53 0 -53 -44 0 -67 -65 -363 -87 -392 -10 -14 -11 13 -7 149 4 130 2
167 -8 167 -7 0 -34 -16 -60 -35 -26 -19 -67 -43 -91 -53 -53 -23 -77 -48 -62
-63 8 -8 17 -5 32 10 12 12 27 21 35 21 8 0 37 16 66 35 29 19 54 35 56 35 3
0 3 -77 0 -171 -3 -93 -2 -177 1 -185 8 -23 28 -16 40 14 6 15 23 54 36 87 26
60 52 154 82 297 16 75 17 76 48 76 18 0 100 14 182 31 183 38 271 50 364 52
53 1 71 5 71 16 0 16 -41 34 -73 32 -12 -1 -56 -5 -97 -10z"/>
<path d="M3606 6722 c8 -40 -15 -117 -76 -246 -28 -59 -48 -112 -45 -117 12
-18 25 -9 45 30 18 36 84 101 103 101 4 0 12 -12 18 -27 11 -31 94 -113 112
-113 21 0 112 27 135 39 27 14 31 47 5 36 -80 -34 -127 -43 -137 -27 -3 5 20
28 50 52 42 33 54 49 54 70 0 31 -22 45 -49 31 -23 -13 -101 -98 -101 -111 0
-25 -22 -6 -40 34 -24 57 -34 62 -75 37 l-35 -20 19 37 c49 96 64 213 29 220
-15 3 -17 -2 -12 -26z"/>
<path d="M5737 6544 c-51 -57 -199 -169 -231 -175 -25 -5 -32 -27 -12 -35 17
-6 41 8 148 85 l56 41 -16 -50 c-15 -46 -15 -52 0 -66 20 -20 35 -13 118 57
55 46 60 48 54 25 -8 -35 11 -56 50 -56 63 0 76 33 13 34 -37 1 -38 11 -5 94
29 74 11 90 -32 27 -29 -42 -154 -155 -171 -155 -8 0 0 34 19 80 5 14 26 49
46 78 33 47 39 73 18 71 -4 0 -29 -25 -55 -55z"/>
<path d="M12518 6577 c-16 -12 -39 -37 -52 -55 -22 -30 -25 -31 -30 -14 -16
49 -81 73 -117 43 -20 -17 -22 -22 -10 -33 11 -10 14 -10 18 0 7 17 43 15 64
-4 26 -23 -2 -79 -59 -116 -25 -16 -26 -16 -40 3 -7 10 -17 17 -22 14 -4 -3
-11 1 -14 7 -3 7 -3 -3 0 -22 4 -19 8 -38 11 -42 14 -25 95 11 134 60 l21 27
-7 -28 c-5 -18 -2 -36 10 -53 16 -25 21 -26 77 -21 67 6 87 17 64 36 -11 9
-20 10 -35 2 -31 -17 -78 -14 -85 6 -10 25 40 118 85 156 59 51 46 83 -13 34z"/>
<path d="M9763 6573 c-17 -6 -16 -23 1 -23 22 0 41 -56 28 -86 -15 -31 -77
-63 -93 -47 -8 8 0 23 30 56 44 48 49 57 27 57 -19 0 -96 -77 -96 -96 0 -71
92 -70 149 2 26 33 27 70 1 112 -20 32 -24 35 -47 25z"/>
<path d="M7800 6553 c-37 -22 -81 -89 -87 -131 -7 -53 26 -82 104 -91 70 -8
93 -4 93 15 0 10 -14 14 -57 14 -79 0 -108 17 -106 58 1 36 46 102 75 110 18
4 25 27 10 36 -4 2 -19 -2 -32 -11z"/>
<path d="M3230 6550 c-8 -5 -39 -15 -68 -21 -59 -14 -66 -20 -57 -49 7 -23 35
-27 35 -6 0 12 34 28 113 53 13 4 3 -16 -31 -63 -72 -100 -105 -161 -92 -169
13 -8 40 9 106 69 29 25 55 46 58 46 3 0 6 -15 6 -34 0 -31 20 -66 38 -66 18
0 54 35 71 68 25 49 32 127 11 127 -10 0 -17 -14 -21 -45 -10 -86 -69 -154
-69 -79 0 33 -15 69 -29 69 -5 0 -28 -16 -51 -35 -23 -19 -44 -35 -47 -35 -5
0 27 47 69 101 37 49 37 79 1 79 -16 0 -35 -5 -43 -10z"/>
<path d="M4017 6525 c-45 -46 -85 -131 -69 -147 14 -14 53 17 46 37 -7 17 18
64 49 93 23 22 27 23 54 9 18 -10 34 -12 43 -7 17 10 15 12 -27 34 -45 23 -58
20 -96 -19z"/>
<path d="M4214 6532 c-39 -34 -54 -62 -54 -100 0 -38 49 -82 90 -82 31 0 47
14 29 26 -8 4 -7 9 2 15 24 15 -1 23 -34 11 -26 -10 -34 -9 -46 2 -22 23 -8
39 57 64 64 24 78 41 62 73 -16 29 -68 24 -106 -9z m76 -10 c0 -10 -42 -35
-63 -37 -15 -2 -15 1 5 22 20 22 58 32 58 15z"/>
<path d="M7596 6551 c-8 -12 3 -41 15 -41 5 0 9 5 9 10 0 16 15 12 44 -11 24
-19 25 -22 12 -48 -8 -15 -35 -46 -60 -69 -46 -43 -57 -62 -33 -62 15 0 110
96 126 128 7 12 9 31 6 42 -12 38 -103 77 -119 51z"/>
<path d="M9493 6548 c-30 -15 -33 -28 -16 -73 8 -22 17 -54 20 -72 4 -27 1
-34 -26 -47 -19 -11 -31 -12 -31 -6 0 7 -8 10 -17 8 -23 -4 -23 -28 -1 -42 22
-14 81 14 104 49 16 25 16 29 -4 78 -12 29 -22 58 -22 65 0 13 26 21 90 24 25
2 45 8 45 13 0 14 -115 17 -142 3z"/>
<path d="M11695 6549 c-16 -5 -52 -8 -80 -7 -39 2 -50 0 -50 -12 0 -12 13 -15
65 -14 117 2 155 8 155 24 0 18 -47 23 -90 9z"/>
<path d="M10818 6540 c-7 -22 -234 -220 -251 -220 -19 0 -33 -23 -23 -39 11
-18 45 3 128 79 45 41 78 66 74 55 -24 -58 -14 -95 26 -95 24 0 90 33 107 54
20 23 29 19 23 -9 -5 -29 13 -55 39 -55 15 0 17 5 13 29 -4 18 2 46 15 76 35
79 8 88 -65 20 -53 -48 -129 -94 -139 -83 -9 9 35 103 69 147 14 19 23 38 20
42 -7 12 -32 11 -36 -1z"/>
<path d="M6357 6533 c-22 -6 -17 -28 6 -27 10 0 51 1 92 2 59 2 75 5 75 17 0
12 -15 15 -77 14 -43 -1 -86 -3 -96 -6z"/>
<path d="M11675 6465 c-5 -2 -31 -6 -57 -10 -34 -4 -48 -11 -48 -22 0 -13 8
-14 48 -8 26 4 70 9 97 10 35 1 50 6 50 16 0 13 -65 24 -90 14z"/>
<path d="M6392 6442 c-58 -12 -72 -18 -69 -31 2 -9 10 -14 18 -12 8 2 48 9 89
15 79 12 104 21 95 37 -8 12 -43 10 -133 -9z"/>
<path d="M8636 6231 c-4 -6 -5 -20 -1 -31 8 -24 -32 -118 -55 -130 -9 -5 -27
-6 -39 -3 -19 5 -22 2 -19 -13 4 -25 43 -30 73 -10 50 33 88 145 62 180 -10
13 -16 15 -21 7z"/>
<path d="M5518 5943 c-16 -2 -28 -11 -28 -18 0 -22 15 -26 49 -14 54 19 48 0
-21 -66 -74 -71 -88 -99 -65 -122 14 -14 24 -14 99 5 46 11 95 23 109 26 14 3
26 12 26 21 0 12 -7 14 -31 10 -49 -10 -139 -33 -158 -40 -38 -15 -16 23 47
83 44 43 65 70 65 86 0 34 -20 40 -92 29z"/>
<path d="M5176 5711 c-24 -46 -100 -114 -176 -157 -62 -35 -89 -64 -59 -64 13
0 122 63 165 95 l31 24 -16 -44 c-20 -57 -8 -74 36 -52 16 9 36 23 43 32 7 9
20 20 29 25 14 7 16 1 16 -42 0 -61 23 -85 52 -55 17 17 17 18 -5 23 -29 8
-29 39 -1 98 12 24 19 51 15 61 -5 14 -18 6 -77 -45 -39 -33 -73 -59 -75 -57
-3 2 10 37 27 78 17 41 31 80 32 88 4 27 -22 22 -37 -8z"/>
<path d="M2808 5670 c-33 -25 -67 -106 -71 -164 -3 -66 15 -57 33 16 26 102
53 133 99 109 30 -17 37 6 10 35 -27 29 -39 30 -71 4z"/>
<path d="M3853 5658 c-11 -13 -27 -34 -36 -47 l-16 -24 -12 26 c-23 51 -108
74 -133 35 -13 -22 -1 -35 19 -18 21 17 61 5 81 -25 22 -34 6 -73 -54 -125
-43 -39 -77 -55 -53 -26 19 22 -4 28 -30 8 -29 -24 -20 -52 17 -52 25 0 70 27
107 65 14 13 16 12 22 -15 8 -38 38 -58 90 -60 66 -3 75 -1 75 18 0 13 -2 14
-9 3 -6 -9 -11 -10 -15 -2 -4 6 -25 11 -46 11 -49 0 -74 23 -65 59 11 46 44
106 76 139 17 17 28 36 24 42 -9 15 -19 12 -42 -12z"/>
<path d="M4560 5671 c0 -4 -25 -11 -55 -15 -62 -7 -105 -24 -105 -41 0 -21 12
-24 35 -9 12 8 53 17 91 20 96 8 102 10 76 34 -22 21 -42 26 -42 11z"/>
<path d="M2550 5577 c-14 -7 -33 -28 -43 -47 -24 -45 -11 -86 29 -96 23 -6 33
-1 61 29 39 43 42 74 9 105 -28 26 -24 25 -56 9z m38 -47 c11 -18 9 -24 -14
-45 -15 -14 -30 -22 -35 -19 -21 13 -1 84 24 84 7 0 18 -9 25 -20z"/>
<path d="M4477 5557 c-76 -11 -87 -33 -16 -31 137 3 187 13 174 35 -7 11 -66
10 -158 -4z"/>
<path d="M9203 5525 c-29 -14 -53 -29 -53 -35 0 -16 29 -24 43 -11 24 19 87
42 87 31 0 -16 -81 -100 -112 -116 -15 -8 -28 -21 -28 -29 0 -19 13 -19 51 1
28 14 33 14 54 0 34 -22 94 -20 134 5 44 26 29 49 -17 25 -37 -19 -69 -20 -99
-3 l-22 12 35 45 c67 84 30 122 -73 75z"/>
<path d="M10589 5354 c-13 -14 -70 -60 -127 -101 -108 -79 -118 -96 -72 -120
23 -12 65 -11 142 3 l27 5 -6 -75 c-5 -60 -3 -80 11 -101 29 -44 36 -29 32 67
-4 108 -2 118 30 118 15 0 24 6 24 15 0 9 -9 15 -23 15 -23 0 -23 2 -17 48 5
26 6 50 4 54 -2 4 0 9 5 12 11 7 12 74 1 81 -4 2 -18 -7 -31 -21z m-14 -151
c-4 -25 -11 -33 -28 -34 -12 0 -46 -4 -74 -8 -29 -4 -58 -4 -64 0 -7 4 24 33
77 72 l89 65 3 -31 c2 -17 1 -46 -3 -64z"/>
<path d="M8889 5329 c-67 -43 -89 -64 -89 -86 0 -20 28 -16 40 6 11 22 128 96
137 88 28 -29 -91 -181 -173 -222 -57 -28 -89 -58 -79 -74 10 -18 29 -13 76
19 l44 29 10 -36 c15 -54 52 -77 109 -69 49 8 61 27 27 46 -26 13 -31 13 -31
-5 0 -20 -34 -19 -54 1 -9 8 -19 27 -22 42 -3 15 -7 31 -8 37 -1 5 26 43 61
84 63 74 82 118 68 160 -10 32 -44 26 -116 -20z"/>
<path d="M4267 5324 c-3 -4 -3 -34 0 -68 5 -54 2 -71 -26 -136 -17 -41 -31
-83 -31 -92 0 -25 19 -22 29 5 5 12 30 42 57 66 l47 45 20 -42 c23 -46 52 -62
112 -61 22 0 53 -1 68 -1 50 -1 103 36 68 48 -6 2 -8 -3 -5 -12 3 -9 1 -16 -5
-16 -6 0 -11 5 -11 10 0 6 -11 8 -26 4 l-27 -7 22 22 c28 28 30 91 2 91 -21 0
-66 -47 -76 -79 -8 -25 -38 -35 -63 -22 -10 5 -27 28 -37 50 -13 31 -24 41
-41 41 -13 0 -26 -4 -29 -10 -15 -24 -24 -7 -19 34 4 25 3 65 0 90 -7 43 -15
54 -29 40z m269 -212 c-18 -16 -18 -16 -6 6 6 13 14 21 18 18 3 -4 -2 -14 -12
-24z"/>
<path d="M7299 5236 c-22 -23 -25 -23 -41 -9 -10 9 -40 18 -68 21 -41 4 -50 2
-50 -11 0 -19 16 -31 25 -18 6 10 61 -4 79 -20 13 -12 -51 -115 -87 -138 l-32
-20 -16 21 c-19 24 -34 10 -24 -22 9 -29 41 -34 78 -13 31 18 33 18 67 0 37
-19 135 -20 135 -2 0 6 4 16 8 23 14 21 -24 28 -39 7 -10 -14 -21 -16 -50 -12
-48 8 -63 22 -46 45 22 30 51 96 46 104 -3 4 1 8 9 8 17 0 59 44 50 53 -11 12
-20 8 -44 -17z"/>
<path d="M5022 5221 c-89 -95 -107 -121 -84 -121 4 0 13 -13 19 -29 21 -56
105 -76 158 -37 31 23 10 35 -35 20 -42 -15 -84 -5 -94 21 -9 25 6 54 33 63
29 10 91 59 91 72 0 14 -30 40 -46 40 -9 0 -28 -13 -42 -29z m48 -16 c0 -2
-10 -10 -22 -16 -21 -11 -22 -11 -9 4 13 16 31 23 31 12z"/>
<path d="M8165 5243 c-22 -3 -46 -9 -53 -15 -24 -21 4 -28 68 -17 36 6 77 8
91 5 32 -6 43 2 28 21 -11 13 -48 14 -134 6z"/>
<path d="M9862 5203 c-18 -7 -33 -39 -26 -57 9 -22 34 -20 34 3 0 10 7 22 16
25 28 11 102 7 106 -6 3 -7 12 -9 22 -5 18 7 18 8 1 27 -14 16 -30 20 -79 19
-34 0 -67 -3 -74 -6z"/>
<path d="M3925 5184 c-41 -22 -74 -54 -91 -86 -31 -60 0 -68 34 -8 22 38 82
80 117 80 24 0 18 -12 -30 -69 -25 -29 -45 -57 -45 -61 0 -18 17 -18 46 1 35
23 56 25 48 4 -4 -8 1 -27 10 -41 13 -19 22 -23 39 -18 58 17 98 89 83 150
-10 40 -30 22 -31 -28 0 -30 -7 -54 -19 -67 -27 -30 -46 -27 -46 8 0 18 -8 35
-20 44 -18 12 -18 15 -4 35 8 12 14 32 12 45 -2 17 -10 22 -38 24 -19 2 -48
-5 -65 -13z"/>
<path d="M4762 5180 c-21 -13 -42 -40 -57 -73 -27 -57 -31 -82 -14 -92 13 -9
19 -3 24 26 15 82 70 136 124 124 35 -7 50 10 22 24 -30 16 -62 13 -99 -9z"/>
<path d="M8116 5127 c-11 -8 -15 -16 -10 -19 17 -8 224 7 227 17 4 17 -195 18
-217 2z"/>
<path d="M9940 5111 c0 -5 -18 -11 -40 -15 -47 -7 -80 -25 -80 -43 0 -16 22
-17 37 -2 6 6 38 13 72 16 56 5 61 8 61 29 0 19 -5 24 -25 24 -14 0 -25 -4
-25 -9z"/>
<path d="M7537 5103 c-4 -3 -7 -18 -7 -32 0 -14 -10 -62 -21 -106 -29 -111
-32 -136 -20 -167 18 -46 28 -32 35 49 4 42 16 114 27 160 11 46 17 88 14 93
-7 12 -19 13 -28 3z"/>
<path d="M5848 4679 c-33 -13 -39 -49 -8 -49 11 0 20 4 20 9 0 5 7 11 15 15
18 7 75 -4 75 -14 0 -4 -27 -28 -60 -54 -70 -55 -77 -80 -27 -100 43 -18 154
-28 162 -16 8 13 -37 30 -80 30 -19 0 -46 5 -60 10 l-27 10 60 50 c67 56 79
77 58 98 -18 18 -93 25 -128 11z"/>
<path d="M2934 4498 c-4 -24 -8 -79 -9 -123 -1 -90 -9 -108 -61 -155 -61 -53
-126 -74 -138 -44 -14 35 56 110 96 102 6 -2 14 5 16 15 10 46 -93 1 -128 -55
-25 -41 -25 -70 -2 -91 29 -26 73 -20 131 16 109 69 136 131 129 296 -3 85
-22 106 -34 39z"/>
<path d="M6678 4513 c-40 -25 -64 -74 -49 -101 6 -12 22 -23 34 -24 38 -2 81
4 100 14 17 9 18 5 16 -64 -1 -40 -1 -121 -1 -180 2 -89 5 -108 17 -108 13 0
15 27 16 183 0 100 3 195 5 210 4 23 -2 35 -25 58 -35 33 -72 37 -113 12z m87
-35 c15 -22 14 -24 -6 -40 -23 -19 -94 -24 -104 -8 -9 15 50 70 74 70 11 0 27
-10 36 -22z"/>
<path d="M5571 4471 c-12 -12 -18 -27 -15 -36 8 -21 21 -19 34 5 8 15 21 20
53 20 l42 -1 -63 -57 c-34 -31 -62 -62 -62 -69 0 -6 31 -16 70 -23 109 -18
124 -45 63 -111 -31 -32 -49 -42 -97 -51 -56 -12 -59 -12 -77 10 -20 26 -42
22 -32 -6 17 -50 93 -57 174 -14 131 68 128 184 -5 199 l-47 6 51 47 c39 36
51 54 48 71 -3 22 -9 24 -60 27 -46 2 -61 -1 -77 -17z"/>
<path d="M4160 4349 c-28 -22 -59 -54 -70 -71 -17 -29 -19 -29 -29 -10 -11 21
-86 62 -114 62 -12 0 -17 -9 -17 -29 0 -33 17 -51 26 -27 3 9 12 16 19 16 16
0 75 -48 75 -60 0 -33 -129 -128 -138 -101 -7 22 -34 12 -30 -11 6 -45 70 -30
148 33 28 24 36 26 43 14 13 -23 44 -36 110 -45 40 -6 65 -5 74 1 6 6 17 8 23
4 5 -3 10 1 10 9 0 9 21 37 47 63 45 46 47 47 51 23 8 -47 -19 -100 -88 -179
-39 -43 -70 -84 -70 -90 0 -22 27 -10 65 29 21 22 46 40 55 40 8 0 28 -14 42
-31 24 -26 33 -30 69 -27 56 4 65 28 11 28 -30 0 -44 6 -64 29 -15 16 -32 31
-40 33 -10 4 -9 9 4 24 29 33 48 91 48 144 0 44 -2 50 -21 50 -48 0 -128 -73
-115 -106 4 -10 -3 -14 -22 -15 -93 -3 -158 12 -167 41 -9 30 29 93 81 133 26
20 51 37 56 37 4 0 8 7 8 15 0 25 -26 17 -80 -26z"/>
<path d="M4918 4333 c-10 -2 -18 -11 -18 -18 0 -11 18 -13 93 -10 50 2 94 4
96 4 2 1 -2 8 -9 16 -9 11 -31 15 -79 14 -36 -1 -74 -3 -83 -6z"/>
<path d="M2264 4276 c-41 -41 -48 -98 -13 -117 18 -9 30 -5 77 24 l57 36 3
-55 c2 -39 7 -54 17 -54 8 0 15 8 15 18 0 21 62 97 93 113 17 10 24 8 39 -11
10 -12 18 -34 18 -49 0 -34 9 -44 25 -31 24 20 -8 110 -46 130 -24 13 -50 -1
-98 -52 l-31 -33 0 32 c0 27 -7 36 -43 58 -57 33 -72 32 -113 -9z m85 -12 l23
-16 -44 -29 c-23 -16 -49 -29 -55 -29 -22 0 -14 40 12 65 29 29 33 30 64 9z"/>
<path d="M6248 4299 c-55 -8 -88 -25 -88 -44 0 -19 10 -19 46 0 17 9 56 15 97
15 51 0 67 3 67 14 0 17 -57 24 -122 15z"/>
<path d="M5008 4223 c-17 -3 -28 -11 -28 -20 0 -12 8 -14 38 -9 20 3 63 6 95
6 44 0 57 3 57 15 0 12 -14 15 -67 14 -38 -1 -80 -4 -95 -6z"/>
<path d="M6253 4152 c-39 -2 -53 -7 -53 -18 0 -12 14 -14 77 -12 45 2 78 8 80
14 5 14 -35 20 -104 16z"/>
<path d="M12648 3790 c-37 -29 -68 -110 -79 -208 -15 -140 -18 -150 -45 -156
-25 -7 -32 -30 -14 -41 6 -4 17 -1 25 5 13 11 15 6 16 -26 2 -58 12 -97 28
-102 11 -4 12 9 6 66 -8 85 -9 84 120 74 l90 -7 3 -32 c4 -43 25 -57 82 -56
73 1 113 28 122 83 10 53 3 90 -16 90 -9 0 -14 -11 -13 -33 2 -81 -33 -113
-120 -108 -27 1 -31 32 -8 51 9 7 12 17 8 21 -10 10 -160 29 -225 29 l-47 0 5
33 c18 107 49 226 65 253 31 51 89 65 112 27 11 -18 37 -17 37 2 0 21 -59 55
-96 55 -17 0 -43 -9 -56 -20z"/>
<path d="M3222 3737 c-34 -11 -92 -68 -92 -91 0 -27 47 -82 106 -123 104 -72
144 -114 151 -155 5 -33 1 -42 -30 -73 -53 -53 -123 -42 -148 23 -9 24 -11 24
-26 9 -38 -38 38 -110 106 -100 122 19 170 136 89 220 -18 19 -69 61 -114 93
-91 66 -111 96 -87 129 14 21 29 29 78 45 21 6 27 -3 54 -76 14 -39 46 -36 71
5 26 42 25 53 -6 82 -30 28 -90 32 -152 12z m131 -39 c7 -11 8 -24 1 -38 -9
-21 -11 -20 -26 19 -15 38 -15 42 -1 39 9 -2 21 -10 26 -20z"/>
<path d="M8046 3721 c-4 -6 -5 -52 -3 -103 3 -51 3 -108 0 -125 -5 -31 -7 -33
-49 -33 -32 0 -44 -4 -44 -15 0 -11 12 -15 50 -15 l50 0 0 -86 c0 -64 3 -85
13 -82 8 3 13 32 15 85 l3 80 86 -1 c61 -1 88 3 90 12 3 8 -11 12 -49 13 -29
0 -70 3 -91 7 l-38 7 -4 124 c-4 115 -13 158 -29 132z"/>
<path d="M13173 3715 c-3 -10 0 -47 6 -84 7 -36 16 -139 20 -229 5 -101 12
-167 19 -174 14 -14 23 -7 22 18 0 11 -3 64 -5 119 -2 55 -10 143 -17 195 -6
52 -12 110 -12 129 -1 37 -22 53 -33 26z"/>
<path d="M13994 3683 c-9 -21 -24 -57 -34 -80 -10 -22 -25 -66 -34 -96 -17
-60 -11 -56 -129 -73 -26 -3 -50 -10 -53 -15 -13 -21 10 -25 77 -12 40 7 74
12 76 10 2 -2 -4 -24 -13 -48 -9 -24 -16 -68 -17 -98 -1 -47 2 -56 26 -77 21
-18 40 -24 77 -24 70 0 152 19 172 41 24 25 7 32 -31 13 -45 -22 -171 -30
-195 -12 -24 18 -24 77 0 153 21 66 31 70 140 60 61 -5 75 -4 72 6 -6 18 -42
27 -117 28 l-63 1 6 32 c3 17 22 68 41 112 38 88 41 101 25 111 -6 4 -17 -11
-26 -32z"/>
<path d="M7601 3578 c-2 -46 -4 -150 -5 -233 -1 -126 1 -150 14 -153 13 -2 15
14 12 110 -2 62 2 155 8 206 12 96 7 152 -13 152 -8 0 -13 -28 -16 -82z"/>
<path d="M2459 3630 c-1 -5 -3 -14 -4 -20 -1 -5 -3 -19 -4 -30 -1 -17 -10 -20
-93 -22 -75 -2 -93 -6 -93 -18 0 -11 16 -17 54 -22 55 -6 101 -25 101 -40 0
-5 -16 -40 -35 -78 -24 -48 -44 -74 -65 -85 -16 -9 -30 -23 -30 -32 0 -23 59
-9 85 20 11 12 42 37 69 55 56 38 57 37 81 -45 16 -56 30 -72 48 -54 7 7 6 27
-7 68 -9 32 -20 67 -22 78 -4 16 9 31 63 70 106 77 106 85 -6 85 l-78 0 -16
40 c-14 36 -45 56 -48 30z m-19 -110 c0 -5 -2 -10 -4 -10 -3 0 -8 5 -11 10 -3
6 -1 10 4 10 6 0 11 -4 11 -10z m60 -32 l-1 -43 -18 22 c-21 25 -17 63 5 63
10 0 14 -13 14 -42z m95 17 c-58 -49 -65 -50 -65 -10 l0 35 48 0 47 0 -30 -25z
m-125 -70 c7 -9 11 -17 9 -19 -20 -15 -55 -36 -61 -36 -4 0 0 16 9 35 19 39
25 42 43 20z"/>
<path d="M4679 3613 c-1 -4 -1 -62 1 -128 3 -151 -6 -213 -28 -211 -10 1 -18
-8 -20 -22 -4 -29 36 -47 57 -26 20 19 23 385 4 391 -7 3 -14 1 -14 -4z"/>
<path d="M14686 3605 c-25 -25 -39 -120 -30 -204 5 -42 8 -87 7 -100 -3 -33
24 -82 41 -75 11 4 11 15 1 67 -23 111 -27 172 -15 231 6 32 18 60 26 63 18 7
18 33 0 33 -8 0 -21 -7 -30 -15z"/>
<path d="M4130 3456 c0 -86 4 -146 10 -146 5 0 26 11 46 25 47 32 77 32 103
-1 28 -35 26 -69 -4 -99 -39 -40 -114 -30 -102 14 7 26 -7 36 -23 16 -18 -22
-15 -66 6 -82 19 -14 83 -10 115 8 98 52 62 199 -48 199 -16 0 -39 -7 -52 -16
l-23 -16 3 118 c2 105 1 119 -14 122 -15 3 -17 -11 -17 -142z"/>
<path d="M8292 3573 c2 -10 14 -19 26 -21 19 -3 23 1 20 15 -2 10 -14 19 -26
21 -19 3 -23 -1 -20 -15z"/>
<path d="M6960 3547 c0 -20 4 -24 20 -20 25 7 23 36 -3 41 -12 3 -17 -3 -17
-21z"/>
<path d="M9417 3543 c-9 -9 22 -43 40 -43 16 0 17 22 1 38 -13 13 -31 16 -41
5z"/>
<path d="M12363 3518 c-13 -6 -25 -19 -29 -30 -16 -53 4 -196 32 -219 24 -19
26 -4 10 52 -20 67 -21 133 -1 149 15 12 72 10 138 -6 47 -11 31 14 -26 41
-58 27 -89 30 -124 13z"/>
<path d="M4800 3500 c0 -5 13 -16 29 -25 35 -18 54 -2 25 20 -22 17 -54 20
-54 5z"/>
<path d="M7115 3460 c-16 -16 -36 -30 -46 -30 -14 0 -17 -10 -18 -57 0 -32 -4
-92 -8 -133 -9 -75 0 -154 20 -178 19 -24 27 3 34 112 6 104 7 108 32 117 40
15 90 69 101 107 22 82 -55 124 -115 62z m70 -21 c13 -20 -5 -58 -40 -85 -20
-15 -38 -24 -41 -21 -11 11 5 55 32 86 27 33 39 38 49 20z"/>
<path d="M11890 3465 c-16 -19 1 -65 24 -65 19 0 32 -64 20 -99 -5 -14 -17
-27 -26 -29 -25 -5 -58 34 -58 68 0 38 -11 38 -48 1 -56 -57 -116 -49 -110 13
2 23 -2 32 -14 34 -15 3 -18 -4 -18 -37 0 -73 51 -99 123 -65 33 16 34 16 64
-15 61 -61 123 -27 123 67 0 46 -16 100 -38 125 -19 21 -26 21 -42 2z"/>
<path d="M7424 3457 c-3 -10 -1 -37 6 -61 15 -55 7 -82 -31 -101 -23 -12 -34
-13 -50 -4 -19 10 -21 18 -17 65 3 30 1 57 -3 59 -16 11 -30 -27 -27 -76 2
-43 8 -55 29 -72 23 -17 32 -18 62 -8 45 15 68 42 76 88 8 50 4 73 -19 103
-17 22 -19 23 -26 7z"/>
<path d="M11261 3441 c-12 -16 -25 -39 -30 -52 -7 -18 -10 -19 -10 -6 -1 10
-9 17 -21 17 -24 0 -24 2 -4 -45 11 -26 14 -52 9 -85 -9 -63 -9 -172 0 -199
20 -64 62 25 52 112 l-6 47 34 0 c45 0 115 63 115 104 0 59 -57 136 -101 136
-10 0 -27 -13 -38 -29z m109 -97 c0 -30 -52 -84 -82 -84 -23 0 -48 22 -48 43
0 25 30 100 48 120 16 18 18 18 49 -17 20 -21 33 -46 33 -62z"/>
<path d="M12061 3451 c-63 -33 -78 -95 -28 -118 36 -16 183 -45 214 -41 14 2
28 8 30 14 2 7 -22 14 -68 18 l-72 7 37 30 c41 34 45 60 16 89 -24 24 -83 24
-129 1z m109 -26 c16 -20 3 -36 -50 -60 -32 -15 -45 -16 -65 -7 -37 17 -31 28
28 56 63 29 71 30 87 11z"/>
<path d="M6088 3440 c-14 -10 -32 -34 -41 -52 -14 -27 -17 -29 -17 -11 0 31
-10 53 -24 53 -9 0 -13 -26 -12 -97 1 -122 17 -129 55 -27 30 81 55 123 67
111 5 -4 16 -45 24 -89 9 -45 22 -84 28 -86 6 -2 21 19 33 47 22 51 39 66 39
34 0 -10 9 -37 20 -60 15 -34 24 -43 45 -43 30 0 34 25 6 33 -14 3 -25 25 -41
75 -28 97 -43 102 -75 27 l-17 -40 -14 59 c-14 57 -28 86 -44 86 -4 0 -19 -9
-32 -20z"/>
<path d="M7759 3428 c-50 -39 -58 -61 -33 -89 15 -17 29 -20 82 -18 62 2 63 2
80 -32 17 -33 64 -60 79 -45 4 4 -7 18 -25 32 -18 14 -32 34 -32 44 0 28 -18
35 -94 35 -43 0 -71 4 -73 11 -5 16 51 55 89 63 39 8 40 25 2 29 -23 2 -43 -6
-75 -30z"/>
<path d="M8679 3435 c-13 -13 -30 -25 -37 -25 -25 0 -45 -101 -22 -115 5 -3
16 10 24 30 19 45 54 95 67 95 5 0 9 -12 9 -27 0 -47 21 -104 46 -130 20 -20
32 -24 57 -19 40 8 55 22 40 37 -9 9 -9 16 0 30 6 10 8 21 4 25 -9 9 -47 -25
-47 -42 0 -10 -6 -11 -22 -5 -25 9 -46 57 -47 104 -1 36 -18 67 -35 67 -8 0
-24 -11 -37 -25z"/>
<path d="M8265 3418 c-10 -54 -2 -153 13 -153 9 0 13 26 15 93 2 69 0 92 -10
92 -6 0 -15 -15 -18 -32z"/>
<path d="M8450 3438 c0 -7 5 -20 10 -28 7 -11 0 -22 -25 -43 -39 -32 -42 -39
-19 -61 21 -21 112 -22 120 -2 8 20 -55 146 -72 146 -8 0 -14 -6 -14 -12z m44
-94 c9 -23 8 -24 -24 -24 -34 0 -38 7 -12 26 22 18 29 17 36 -2z"/>
<path d="M11504 3439 c-3 -6 0 -15 7 -20 7 -4 11 -9 9 -11 -103 -77 -129 -115
-98 -146 31 -31 163 1 174 42 6 26 -8 68 -39 113 -23 34 -41 41 -53 22z m55
-91 c9 -25 8 -35 -2 -46 -19 -18 -112 -22 -112 -4 0 12 82 81 97 82 3 0 11
-14 17 -32z"/>
<path d="M10348 3401 c-58 -37 -79 -91 -45 -113 20 -13 110 -8 136 6 24 13 26
12 45 -26 21 -45 86 -82 132 -76 37 5 26 22 -24 34 -64 16 -86 43 -92 111 -6
62 -24 81 -33 34 -4 -20 -17 -35 -36 -46 -38 -19 -111 -20 -111 -2 0 21 44 57
87 72 21 7 37 17 36 22 -5 19 -51 12 -95 -16z"/>
<path d="M3530 3403 c0 -28 41 -171 54 -189 10 -13 8 -28 -10 -79 -35 -96 -36
-175 -4 -214 12 -14 26 -21 36 -17 13 5 13 9 -5 32 -15 18 -21 41 -21 73 0 64
36 168 61 176 21 7 25 20 9 30 -11 6 23 73 68 133 13 18 21 36 18 40 -13 13
-42 -16 -79 -79 -20 -35 -41 -65 -46 -67 -12 -4 -40 103 -34 128 6 23 -12 50
-33 50 -8 0 -14 -8 -14 -17z"/>
<path d="M14455 3408 c-4 -9 -4 -21 -1 -27 3 -5 -10 -18 -29 -30 -62 -37 -38
-83 53 -101 90 -17 107 12 47 79 -19 21 -35 43 -35 48 0 5 -6 18 -14 29 -13
17 -15 18 -21 2z m41 -126 c-27 -4 -76 14 -76 27 0 5 12 13 27 18 23 8 31 5
49 -16 l23 -26 -23 -3z"/>
<path d="M6443 3399 c-71 -26 -119 -125 -78 -159 20 -17 68 -15 105 3 28 15
29 14 35 -13 8 -35 39 -64 60 -56 19 7 15 31 -5 31 -22 0 -34 54 -21 90 15 42
14 65 -3 65 -8 0 -20 -15 -26 -34 -12 -37 -58 -66 -104 -66 -50 0 -25 64 43
109 42 28 39 47 -6 30z"/>
<path d="M6704 3388 c-43 -49 -82 -146 -69 -169 9 -14 35 8 35 30 0 32 48 119
69 126 39 12 56 -16 65 -110 6 -63 12 -78 29 -72 25 8 -3 160 -35 194 -27 29
-69 29 -94 1z"/>
<path d="M6964 3395 c-12 -30 1 -166 16 -175 21 -13 34 4 21 28 -6 11 -11 52
-11 91 0 67 -12 93 -26 56z"/>
<path d="M14265 3401 c-3 -6 -3 -15 0 -21 3 -5 2 -10 -4 -10 -21 0 -71 -53
-71 -76 0 -35 41 -58 87 -49 77 14 86 30 54 93 -23 46 -56 77 -66 63z m43 -86
c12 -26 10 -29 -30 -39 -54 -13 -78 19 -36 48 32 23 53 20 66 -9z"/>
<path d="M9417 3393 c-7 -11 0 -147 8 -173 4 -11 12 -19 18 -17 12 4 12 141 1
180 -6 18 -19 23 -27 10z"/>
<path d="M4913 3351 c-68 -44 -80 -64 -58 -97 20 -31 42 -36 145 -32 66 2 85
6 88 18 2 13 -12 15 -90 12 -139 -4 -155 22 -50 83 48 28 59 44 36 52 -6 2
-37 -14 -71 -36z"/>
<path d="M9548 3369 c-21 -11 -38 -26 -38 -35 0 -8 21 -24 47 -35 43 -18 72
-43 73 -61 0 -12 -65 -9 -77 3 -16 16 -28 -8 -12 -27 9 -11 27 -14 63 -12 45
3 51 6 54 26 5 33 -24 71 -69 91 l-38 18 34 16 c19 9 35 21 35 27 0 16 -31 11
-72 -11z"/>
<path d="M3785 3344 c-25 -27 -35 -33 -35 -21 0 9 -7 17 -15 17 -10 0 -15 -10
-15 -32 0 -18 -3 -50 -6 -70 -9 -54 16 -50 39 6 21 50 70 102 87 91 7 -4 10
-27 8 -58 -4 -67 12 -70 51 -8 36 59 55 59 71 1 12 -44 31 -63 54 -54 22 9 20
31 -4 37 -11 3 -20 14 -20 25 0 29 -38 72 -63 72 -12 0 -28 -10 -36 -21 l-13
-22 -11 23 c-7 13 -22 30 -35 38 -21 14 -24 12 -57 -24z"/>
<path d="M4775 3360 c-14 -23 -8 -101 9 -118 14 -15 18 -15 26 -2 6 9 5 19 -2
28 -7 7 -11 31 -10 52 3 38 -11 60 -23 40z"/>
<path d="M4381 3351 c-17 -11 -4 -34 16 -27 10 4 8 -3 -6 -20 -56 -71 8 -102
112 -54 43 20 33 70 -20 98 -25 14 -82 15 -102 3z m103 -47 c9 -3 16 -10 16
-14 0 -12 -56 -32 -80 -28 -20 3 -20 4 -3 25 18 23 38 28 67 17z"/>
<path d="M11600 3167 c0 -7 5 -18 12 -25 7 -7 14 -52 16 -107 l4 -95 -33 -1
c-19 -1 -55 -1 -81 0 -37 0 -48 -3 -48 -15 0 -12 10 -15 43 -14 90 4 107 1
107 -18 0 -10 -9 -35 -20 -57 -19 -38 -16 -61 6 -47 15 9 44 79 44 104 0 18 5
19 58 14 31 -3 70 -5 86 -5 l28 -1 -32 -30 c-59 -55 -17 -108 76 -94 68 10 78
27 58 93 -8 24 -36 -9 -30 -34 5 -19 1 -23 -28 -28 -37 -6 -76 1 -76 13 0 14
70 70 96 76 37 9 23 29 -22 30 -21 1 -76 4 -121 9 l-83 7 0 79 c0 84 -22 159
-46 159 -8 0 -14 -6 -14 -13z"/>
<path d="M2585 3131 c-3 -6 -1 -29 5 -53 11 -52 12 -177 1 -235 -12 -62 4 -70
52 -27 21 20 53 42 71 49 33 14 86 9 86 -7 0 -21 -68 -76 -105 -87 -50 -14
-95 -14 -95 -1 0 6 -7 10 -15 10 -18 0 -20 -21 -3 -38 15 -15 71 -15 123 -1
52 15 128 89 123 121 -4 30 -50 52 -93 44 -18 -4 -50 -19 -71 -34 l-39 -29 0
121 c0 67 -3 133 -8 149 -7 27 -21 35 -32 18z"/>
<path d="M5176 3118 c-3 -13 -3 -53 1 -90 l6 -68 -39 0 c-21 0 -45 -4 -53 -9
-26 -16 -2 -28 47 -23 32 3 52 0 57 -8 4 -6 10 -43 14 -81 3 -38 10 -71 16
-72 16 -4 22 57 10 116 l-12 58 84 -2 c46 -1 87 1 91 5 15 15 -27 26 -105 26
l-83 0 -1 53 c-1 28 -1 67 0 85 3 38 -23 46 -33 10z"/>
<path d="M9669 3083 c-6 -16 -9 -64 -8 -108 2 -44 -1 -103 -5 -131 -12 -73 5
-75 55 -9 84 112 117 99 88 -35 -8 -38 -8 -54 1 -65 14 -17 34 -9 26 10 -3 8
-1 29 5 47 14 49 13 126 -1 143 -20 24 -44 18 -92 -24 l-44 -39 1 119 c1 119
-6 143 -26 92z"/>
<path d="M8530 3080 c-76 -26 -104 -60 -97 -119 2 -25 8 -54 12 -63 6 -14 2
-18 -17 -18 -14 0 -27 -3 -31 -6 -3 -3 -25 -7 -50 -9 -58 -3 -89 -14 -84 -28
4 -12 48 -12 77 0 8 3 24 5 36 4 11 -1 32 3 46 8 36 14 52 -7 44 -54 -6 -29
-11 -35 -31 -35 -14 0 -25 -5 -25 -12 0 -6 3 -8 7 -5 3 4 11 0 17 -9 28 -37
66 13 66 87 0 39 0 39 39 39 21 0 53 3 71 6 30 7 32 6 21 -14 -32 -59 6 -109
74 -96 52 9 66 43 40 92 -24 43 -73 82 -83 65 -4 -6 -46 -15 -93 -20 l-87 -9
-11 31 c-16 46 -13 83 8 104 25 25 116 53 147 45 26 -7 31 5 12 24 -17 17 -44
15 -108 -8z m185 -240 c20 -38 19 -39 -10 -50 -52 -20 -73 15 -33 57 12 13 23
23 24 23 2 0 10 -13 19 -30z"/>
<path d="M6779 3068 c-1 -4 -4 -29 -13 -105 -10 -82 7 -165 43 -205 37 -41 62
-29 27 13 -13 15 -28 43 -31 61 -10 45 -12 189 -2 195 13 8 7 43 -8 43 -8 0
-15 -1 -16 -2z"/>
<path d="M6663 3015 c-3 -10 -1 -26 5 -36 7 -10 19 -60 27 -111 15 -92 25
-116 44 -104 7 5 7 15 1 32 -6 14 -10 37 -10 52 0 15 -7 39 -14 55 -8 15 -11
27 -6 27 12 0 -14 93 -28 98 -7 2 -15 -4 -19 -13z"/>
<path d="M7612 3013 c-54 -26 -59 -48 -19 -86 19 -18 45 -39 58 -49 30 -21 16
-39 -32 -42 -38 -2 -50 -21 -19 -31 34 -11 89 13 97 42 6 27 -10 46 -79 94
-19 14 -21 19 -9 33 7 9 31 19 52 22 23 4 39 12 39 20 0 19 -47 17 -88 -3z"/>
<path d="M14395 3015 c-40 -21 -63 -52 -70 -96 -5 -29 -15 -41 -57 -67 -56
-34 -68 -33 -68 4 0 32 -16 37 -80 26 -59 -11 -90 -6 -90 14 0 18 62 64 88 64
28 0 37 17 14 29 -37 20 -132 -52 -132 -100 0 -37 44 -52 117 -41 l51 9 6 -31
c4 -20 2 -35 -6 -41 -37 -30 -60 -67 -73 -120 -24 -89 -3 -144 47 -132 38 10
59 60 65 150 6 78 7 83 41 114 19 17 46 37 59 44 21 11 25 10 39 -9 24 -34 70
-53 133 -54 67 -1 127 16 135 39 4 9 5 17 3 19 -1 2 -32 -2 -67 -8 -76 -13
-133 -5 -161 23 -25 25 -24 37 4 50 29 13 69 75 65 102 -4 28 -25 31 -63 12z
m-225 -382 c-14 -62 -33 -84 -50 -54 -13 26 -4 65 29 116 25 38 26 39 29 15 2
-14 -1 -48 -8 -77z"/>
<path d="M4994 3007 c-8 -23 3 -50 19 -44 13 4 11 36 -4 51 -5 6 -11 3 -15 -7z"/>
<path d="M4060 2991 c-29 -5 -35 -10 -35 -31 0 -24 5 -29 97 -85 49 -30 44
-57 -12 -72 -25 -6 -58 -9 -73 -6 -24 4 -28 2 -25 -14 3 -15 12 -18 57 -16 71
3 115 29 119 70 3 34 -14 50 -98 93 l-45 24 40 8 c22 5 49 6 61 4 26 -7 37 3
23 21 -12 13 -48 15 -109 4z"/>
<path d="M8887 2980 c-36 -29 -50 -79 -42 -151 6 -47 11 -59 23 -57 19 4 25
37 11 65 -15 28 -3 89 22 114 23 23 81 25 99 4 15 -19 30 -19 30 -2 0 46 -96
64 -143 27z"/>
<path d="M10958 2975 c-40 -54 -14 -104 76 -145 l61 -27 -77 -23 c-75 -22 -89
-32 -68 -45 12 -7 142 32 167 50 27 21 8 42 -62 70 -85 35 -102 62 -65 105 20
23 19 40 -3 40 -7 0 -20 -11 -29 -25z"/>
<path d="M12652 2985 c-12 -9 -29 -29 -36 -44 -19 -36 -48 -160 -40 -172 12
-19 33 13 40 59 11 76 46 142 74 142 13 0 30 -67 30 -117 0 -23 4 -44 9 -48
12 -7 56 39 78 80 l16 30 10 -25 c23 -57 70 -120 88 -120 27 0 24 17 -10 51
-16 16 -38 54 -48 86 -11 31 -24 58 -31 61 -6 2 -26 -23 -44 -55 l-33 -58 -7
43 c-15 90 -48 120 -96 87z"/>
<path d="M13040 2968 c-67 -46 -93 -105 -60 -138 18 -18 29 -21 58 -15 21 3
46 13 58 20 18 12 23 11 38 -7 13 -15 21 -17 29 -9 8 8 8 14 -1 23 -7 7 -12
22 -12 34 0 35 -20 39 -44 10 -21 -26 -81 -51 -97 -40 -32 19 21 97 67 99 21
1 29 7 29 21 0 27 -26 28 -65 2z"/>
<path d="M13733 2954 c-55 -46 -87 -98 -79 -129 10 -40 37 -48 112 -30 37 8
68 14 69 13 1 -2 8 -13 14 -25 12 -23 42 -30 75 -17 19 7 22 26 4 23 -55 -7
-66 18 -33 67 25 37 33 74 16 74 -10 0 -57 -53 -63 -70 -4 -14 -134 -51 -153
-43 -8 3 -15 12 -15 20 0 26 52 83 84 91 24 6 31 14 31 32 0 35 -15 33 -62 -6z"/>
<path d="M4334 2951 c-60 -37 -72 -72 -37 -112 34 -40 293 -73 280 -36 -2 7
-39 15 -92 19 -134 10 -239 58 -127 58 59 0 116 16 133 36 11 14 10 19 -10 35
-31 25 -106 25 -147 0z m116 -20 c0 -10 -50 -21 -94 -21 l-31 1 25 14 c27 16
100 20 100 6z"/>
<path d="M7204 2934 c-14 -34 -15 -44 -3 -79 25 -70 91 -84 145 -29 23 22 27
23 47 9 27 -19 61 -19 77 0 15 18 15 87 0 115 -14 25 -36 21 -31 -6 7 -42 5
-87 -5 -91 -6 -2 -23 8 -38 22 -30 27 -49 23 -61 -15 -9 -27 -61 -46 -81 -29
-28 23 -36 58 -20 90 12 24 12 30 0 40 -11 9 -17 4 -30 -27z"/>
<path d="M13304 2936 c-44 -36 -73 -146 -39 -146 8 0 17 12 21 28 22 100 46
126 90 97 39 -25 49 -56 35 -110 -11 -45 -9 -65 9 -65 13 0 34 104 27 131 -10
38 -49 78 -83 85 -23 4 -37 0 -60 -20z"/>
<path d="M7012 2938 c-7 -7 -12 -18 -12 -25 0 -7 -9 -17 -20 -23 -30 -16 -27
-65 6 -86 24 -16 29 -16 79 0 95 30 98 67 9 98 -27 9 -43 17 -36 17 16 1 16
31 -1 31 -7 0 -18 -5 -25 -12z m80 -74 c23 -7 23 -7 -7 -20 -47 -20 -95 -18
-95 4 0 10 2 21 5 24 7 7 67 2 97 -8z"/>
<path d="M6501 2931 c-8 -5 -10 -14 -6 -22 6 -9 4 -11 -7 -6 -9 3 -23 -2 -33
-13 -13 -14 -13 -19 -3 -23 8 -4 7 -6 -4 -6 -21 -1 -23 -11 -5 -34 10 -14 18
-15 47 -7 46 13 50 13 50 -7 0 -26 43 -83 63 -83 25 0 21 23 -9 51 -18 16 -25
33 -23 54 3 43 -11 84 -31 95 -22 12 -21 12 -39 1z m33 -46 c6 -17 -26 -38
-52 -33 -14 3 -13 7 8 26 28 26 36 27 44 7z"/>
<path d="M10190 2910 c-23 -24 -29 -27 -34 -14 -3 8 -10 12 -16 9 -15 -9 -12
-68 4 -90 13 -18 15 -17 34 21 11 21 29 48 41 58 21 19 21 19 23 0 0 -10 0
-31 -1 -46 -3 -40 17 -44 53 -8 l33 31 21 -35 c22 -38 55 -48 66 -21 3 9 0 15
-10 15 -8 0 -27 20 -42 45 -15 25 -31 45 -35 45 -5 0 -17 -10 -26 -22 l-18
-21 -11 31 c-14 41 -45 42 -82 2z"/>
<path d="M10542 2919 c-71 -35 -101 -91 -66 -120 15 -12 59 -7 140 16 16 5 23
1 27 -14 7 -29 18 -26 52 18 33 43 80 75 95 66 6 -3 10 -30 10 -58 0 -58 13
-88 29 -72 7 7 8 35 3 79 -12 97 -40 109 -116 51 l-46 -35 0 30 c0 39 -22 39
-36 1 -9 -22 -23 -32 -63 -46 -28 -9 -59 -14 -69 -10 -14 6 -11 12 22 41 22
19 47 34 57 34 24 0 32 15 16 29 -10 7 -24 5 -55 -10z"/>
<path d="M9912 2918 c-16 -16 -16 -102 0 -92 7 5 9 2 5 -8 -3 -9 1 -25 9 -36
29 -42 98 -35 129 12 16 24 16 29 0 76 -18 53 -31 68 -47 52 -6 -6 -4 -20 6
-40 21 -41 20 -79 -2 -91 -47 -25 -90 27 -79 94 6 37 -3 51 -21 33z"/>
<path d="M2962 2903 c-92 -45 -109 -135 -31 -162 44 -15 69 -14 69 4 0 9 -9
15 -24 15 -30 0 -72 33 -62 48 4 7 16 12 26 12 11 0 40 10 65 22 44 21 63 47
50 68 -9 15 -56 12 -93 -7z m57 -18 c-9 -9 -79 -35 -79 -30 0 3 15 12 33 20
32 14 55 19 46 10z"/>
<path d="M3184 2884 c-38 -39 -52 -79 -37 -103 20 -31 61 -53 111 -58 43 -4
52 -2 52 11 0 11 -9 16 -30 16 -39 0 -99 25 -106 44 -7 19 30 82 53 91 11 3
22 0 29 -9 15 -21 34 -20 34 2 0 52 -60 56 -106 6z"/>
<path d="M3707 2898 c-6 -24 4 -86 18 -108 15 -24 76 -42 119 -35 73 12 92 48
61 120 -13 32 -39 54 -50 43 -3 -2 4 -22 15 -44 30 -57 24 -77 -25 -85 -21 -4
-51 -3 -65 2 -25 9 -68 69 -49 69 14 0 7 52 -7 57 -7 2 -14 -6 -17 -19z"/>
<path d="M3502 2878 c5 -15 48 -18 48 -3 0 6 -11 11 -26 13 -18 3 -25 0 -22
-10z"/>
<path d="M3424 2847 c-40 -36 -41 -70 -4 -80 18 -5 90 6 122 18 13 5 21 -2 32
-29 17 -42 58 -66 84 -49 22 13 17 29 -8 26 -25 -3 -60 43 -60 78 0 34 -4 35
-55 9 -22 -11 -57 -20 -78 -20 -35 0 -38 2 -26 16 7 8 25 22 41 30 16 8 26 19
23 24 -11 18 -35 10 -71 -23z"/>
<path d="M4980 2836 c0 -55 18 -106 37 -106 11 0 13 8 9 28 -2 15 -8 48 -11
75 -8 63 -35 66 -35 3z"/>
<path d="M4617 2593 c3 -49 8 -90 10 -93 3 -3 -33 -12 -79 -21 -58 -11 -83
-19 -83 -30 0 -8 8 -13 20 -11 11 1 48 5 83 9 l62 6 0 -50 c0 -27 -5 -54 -12
-61 -14 -14 4 -38 21 -28 16 10 33 84 26 116 l-6 28 83 4 c46 2 84 3 86 2 2
-1 -6 -17 -17 -35 -24 -39 -27 -65 -8 -72 12 -4 97 14 130 28 16 7 16 4 -3
-44 -11 -28 -29 -74 -40 -103 -32 -78 -49 -162 -38 -181 15 -27 28 -19 28 16
0 44 21 112 76 249 48 120 47 146 -3 110 -30 -21 -111 -47 -120 -38 -3 3 5 21
17 41 36 59 26 67 -86 59 -111 -8 -114 -7 -114 72 0 71 -10 114 -26 114 -10 0
-12 -19 -7 -87z"/>
<path d="M3539 2616 c-2 -2 -1 -68 3 -145 7 -132 17 -181 38 -181 15 0 23 42
10 50 -8 5 -14 54 -18 140 -6 118 -15 154 -33 136z"/>
<path d="M4310 2566 c0 -28 14 -40 35 -32 12 4 13 10 3 31 -14 32 -38 33 -38
1z"/>
<path d="M3725 2506 c-82 -37 -120 -122 -73 -165 29 -28 159 -56 187 -41 26
13 17 34 -12 26 -26 -7 -115 12 -144 30 -45 28 -29 48 52 69 41 10 82 27 92
37 15 17 15 19 -2 38 -21 23 -57 25 -100 6z m75 -24 c0 -5 -25 -16 -55 -24
-30 -8 -55 -14 -55 -12 0 3 15 13 33 24 33 20 77 27 77 12z"/>
<path d="M3990 2476 c0 -7 11 -29 24 -49 l25 -36 -35 -20 c-41 -24 -58 -60
-39 -80 15 -15 36 -7 30 12 -6 16 4 28 37 50 27 17 28 17 91 -28 66 -46 82
-52 91 -36 3 5 -16 23 -43 41 -77 49 -79 55 -32 80 23 11 41 24 41 29 0 19
-16 18 -61 -4 -27 -14 -50 -25 -52 -25 -3 0 -16 18 -31 40 -27 40 -46 51 -46
26z"/>
<path d="M3339 2443 c-17 -21 -29 -31 -26 -22 7 21 -8 43 -23 34 -8 -5 -11
-38 -8 -109 1 -55 -1 -128 -5 -161 -9 -73 2 -100 30 -72 14 14 18 34 18 102 0
81 1 85 22 85 31 0 75 18 101 42 46 44 13 138 -48 138 -21 0 -37 -10 -61 -37z
m95 -26 c13 -37 0 -58 -48 -76 -50 -19 -62 -6 -41 44 8 21 21 45 27 52 18 22
51 11 62 -20z"/>
<path d="M2407 2421 c-47 -52 -63 -108 -43 -155 8 -19 24 -40 36 -46 45 -24
197 -5 187 23 -2 7 -13 11 -23 9 -82 -14 -141 -13 -157 3 -19 19 -22 76 -6
108 18 35 51 67 70 67 9 0 23 -10 32 -22 11 -17 18 -20 26 -12 9 8 6 18 -9 37
-32 40 -69 36 -113 -12z"/>
<path d="M4313 2431 c17 -81 54 -128 80 -102 9 9 7 16 -11 30 -15 11 -25 31
-29 59 -4 33 -10 42 -26 42 -16 0 -19 -5 -14 -29z"/>
<path d="M2704 2434 c4 -10 -5 -25 -24 -41 -36 -30 -64 -79 -56 -99 3 -8 18
-19 33 -25 32 -12 146 19 184 50 35 28 15 63 -60 101 -68 34 -86 37 -77 14z
m84 -54 c19 -11 32 -26 29 -33 -5 -17 -85 -46 -130 -46 l-38 -1 16 30 c13 26
67 70 85 70 3 0 20 -9 38 -20z"/>
<path d="M2931 2436 c-35 -10 -66 -60 -59 -94 5 -28 31 -19 41 13 12 38 26 55
44 55 14 0 17 -6 27 -52 8 -37 21 -35 61 7 l33 36 37 -26 c21 -14 44 -25 51
-25 23 0 16 30 -9 39 -13 5 -37 21 -54 35 l-31 26 -27 -36 -28 -36 -12 29
c-16 37 -30 43 -74 29z"/>
</g>
</svg>
