<?xml version="1.0" standalone="no"?>
<!DOCTYPE svg PUBLIC "-//W3C//DTD SVG 20010904//EN"
 "http://www.w3.org/TR/2001/REC-SVG-20010904/DTD/svg10.dtd">
<svg version="1.0" xmlns="http://www.w3.org/2000/svg"
 width="1872.000000pt" height="1404.000000pt" viewBox="0 0 1872.000000 1404.000000"
 preserveAspectRatio="xMidYMid meet">

<g transform="translate(0.000000,1404.000000) scale(0.100000,-0.100000)"
fill="#000000" stroke="none">
<path d="M16821 13471 c-7 -5 -18 -17 -24 -28 -7 -11 -28 -43 -47 -70 l-35
-49 -45 17 c-40 16 -42 18 -17 18 37 1 31 25 -7 29 -33 4 -91 -33 -126 -80
-17 -23 -25 -50 -28 -90 -4 -55 -3 -59 30 -92 l35 -35 -59 -85 c-39 -56 -58
-94 -56 -109 5 -34 28 -26 42 13 11 34 52 98 93 146 11 13 34 24 61 27 86 11
158 98 132 162 -25 62 -23 69 29 138 28 36 51 71 51 76 0 15 -14 21 -29 12z
m-136 -173 c9 -8 -97 -168 -111 -168 -7 0 -22 12 -34 27 -24 31 -22 85 5 127
14 20 23 23 75 22 33 -1 62 -5 65 -8z m55 -86 c0 -31 -63 -92 -95 -92 -23 0
-22 3 23 75 41 65 49 72 60 58 6 -9 12 -28 12 -41z"/>
<path d="M14665 13441 c-23 -10 -125 -115 -125 -130 0 -29 26 -16 78 38 62 65
88 75 98 37 12 -49 -79 -202 -157 -265 -66 -53 -104 -100 -91 -113 14 -14 44
4 104 60 32 29 49 40 51 31 19 -68 23 -74 50 -77 34 -4 117 59 117 89 0 27 -6
25 -57 -21 -25 -22 -49 -40 -54 -40 -4 0 -11 17 -15 38 -4 20 -10 42 -15 48
-5 6 6 32 28 65 51 76 73 128 73 172 0 69 -28 91 -85 68z"/>
<path d="M15595 13424 c-36 -14 -115 -15 -180 -3 -15 3 -20 -1 -20 -16 0 -28
88 -43 164 -27 30 7 57 10 59 8 2 -3 -13 -40 -34 -83 l-39 -78 -59 -10 c-57
-10 -83 -29 -54 -40 8 -3 33 -2 56 3 l41 10 -25 -65 c-13 -36 -24 -66 -24 -67
0 -2 -10 -2 -22 -2 -34 1 -36 -32 -3 -44 15 -6 30 -8 35 -5 4 3 22 42 40 87
18 46 38 89 43 96 5 7 32 12 64 12 47 0 54 3 51 18 -3 13 -14 17 -51 17 -26 0
-47 1 -47 3 0 1 18 38 40 82 60 119 54 137 -35 104z"/>
<path d="M14392 13403 c-14 -26 -71 -271 -74 -318 -2 -31 1 -40 15 -43 13 -3
17 3 17 22 0 31 31 173 59 270 11 38 18 73 15 77 -8 14 -23 10 -32 -8z"/>
<path d="M16245 13381 c-42 -22 -86 -41 -98 -43 -12 -2 -22 -10 -22 -18 0 -29
45 -21 119 19 85 48 121 53 111 19 -16 -50 -118 -188 -180 -242 -36 -32 -65
-64 -65 -71 0 -29 21 -24 62 13 24 22 58 47 77 56 l33 18 -7 -40 c-5 -33 -3
-44 14 -61 24 -24 55 -21 107 10 25 15 31 26 30 48 -1 16 -4 33 -8 37 -11 11
-38 -16 -38 -37 0 -12 -11 -23 -26 -29 -42 -17 -47 -13 -41 31 7 51 0 69 -24
69 -14 0 -7 16 37 80 62 90 78 145 49 166 -29 21 -47 17 -130 -25z"/>
<path d="M16963 13389 c-32 -36 -36 -55 -10 -52 12 0 16 -4 13 -13 -17 -45
-48 -194 -43 -207 10 -26 33 -10 35 25 2 18 14 70 27 117 26 88 32 161 15 161
-5 0 -22 -14 -37 -31z"/>
<path d="M15258 13386 c-9 -12 -13 -28 -9 -34 4 -7 -5 -67 -20 -135 -34 -145
-35 -160 -12 -155 12 2 24 39 49 158 19 85 34 163 34 173 0 24 -22 21 -42 -7z"/>
<path d="M17134 13388 c-13 -20 14 -28 91 -28 l84 0 -34 -56 c-19 -31 -36 -61
-38 -67 -2 -6 -25 -13 -53 -16 -34 -4 -49 -10 -49 -21 0 -11 9 -14 39 -12 35
4 38 2 31 -15 -39 -93 -45 -136 -18 -131 11 2 20 17 25 41 4 20 17 55 27 76
l20 38 90 7 c86 7 114 18 95 35 -5 5 -43 5 -84 1 -41 -4 -77 -6 -79 -4 -2 2
15 34 38 72 22 37 41 73 41 80 0 13 -218 13 -226 0z"/>
<path d="M4077 13163 c-3 -5 -8 -24 -12 -43 -13 -71 -36 -140 -45 -140 -5 0
-27 26 -49 58 -74 107 -84 116 -110 103 -24 -13 -24 -36 0 -36 8 0 33 -25 56
-55 23 -30 53 -69 67 -86 l25 -30 -55 -108 c-56 -109 -61 -136 -25 -136 19 0
31 18 31 50 0 10 22 62 48 116 27 55 54 113 60 129 14 38 42 152 42 171 0 15
-25 20 -33 7z"/>
<path d="M14859 13059 c-8 -16 -8 -24 1 -33 8 -8 16 -5 30 14 10 13 16 28 14
32 -10 15 -33 8 -45 -13z"/>
<path d="M3590 13051 c-5 -11 -10 -27 -10 -35 0 -9 -17 -47 -37 -86 -56 -105
-18 -113 44 -10 29 49 32 51 37 29 4 -20 17 -437 19 -634 0 -33 -1 -387 -2
-787 -2 -400 -1 -731 2 -735 2 -4 0 -71 -4 -147 -7 -106 -13 -144 -25 -157
-17 -18 -12 -55 5 -45 5 4 11 2 13 -4 3 -8 289 -11 663 -7 50 1 135 -4 190
-11 64 -8 218 -12 430 -12 182 1 368 2 415 2 818 -2 1000 -3 1000 -6 0 -2 -27
-20 -60 -40 -33 -21 -60 -41 -60 -46 0 -5 -16 -18 -35 -30 -19 -12 -35 -28
-35 -36 0 -26 35 -14 80 29 25 24 70 58 100 75 30 18 62 37 70 42 8 5 23 11
33 14 25 8 21 27 -12 62 -18 19 -26 36 -22 45 14 27 7 94 -9 94 -11 0 -16 -15
-20 -58 l-5 -59 -30 32 c-16 18 -47 43 -69 57 -36 23 -40 24 -55 8 -15 -16
-14 -19 18 -43 19 -15 53 -44 75 -64 l41 -37 -175 -2 c-587 -6 -1539 -4 -1615
4 -49 5 -234 11 -410 12 -469 3 -432 1 -430 28 1 14 18 33 51 55 27 19 69 50
93 70 24 19 88 65 141 101 120 81 233 166 325 246 102 89 137 114 275 200 69
43 184 121 255 174 72 53 164 121 205 151 82 58 225 164 335 246 39 29 129
101 201 161 72 59 172 142 224 183 51 41 132 109 180 150 49 41 138 111 198
155 61 44 111 86 111 94 1 8 3 12 6 9 3 -2 -5 -52 -17 -111 -18 -83 -20 -109
-10 -119 18 -18 23 -6 38 75 22 127 32 155 57 159 12 2 22 10 22 18 0 17 -94
33 -109 19 -20 -18 -115 0 -179 33 -23 12 -54 -9 -37 -26 12 -12 84 -33 149
-44 l44 -7 -119 -89 c-65 -50 -164 -128 -219 -175 -55 -47 -132 -111 -170
-141 -39 -30 -99 -79 -135 -110 -154 -132 -296 -241 -504 -390 -35 -25 -98
-70 -140 -100 -42 -30 -105 -77 -139 -104 -34 -27 -107 -78 -162 -114 -218
-140 -293 -193 -370 -259 -109 -94 -235 -190 -325 -249 -41 -27 -108 -74 -147
-104 -40 -30 -93 -69 -117 -87 l-44 -31 0 1046 c1 576 -2 1115 -6 1197 l-8
150 27 -30 c14 -16 33 -40 41 -52 9 -12 22 -19 30 -16 21 8 18 18 -16 57 -17
18 -39 54 -50 79 -22 48 -66 107 -81 107 -4 0 -13 -9 -19 -19z"/>
<path d="M15705 13020 c-9 -15 4 -30 26 -30 23 0 26 25 3 34 -21 8 -22 8 -29
-4z"/>
<path d="M6396 12468 c-9 -34 -7 -111 3 -127 16 -25 29 -1 28 52 0 28 3 62 7
75 6 18 4 22 -12 22 -12 0 -22 -9 -26 -22z"/>
<path d="M16390 12434 c-147 -47 -210 -61 -210 -44 0 19 -25 10 -62 -25 -21
-18 -38 -40 -38 -47 0 -8 25 -38 55 -68 30 -30 55 -62 55 -71 0 -23 -31 -48
-70 -55 -26 -6 -36 -3 -47 11 -10 15 -16 16 -25 7 -14 -14 -3 -38 24 -56 21
-13 89 7 125 38 44 38 37 77 -28 142 -59 60 -58 69 11 79 19 3 62 12 95 20 33
9 85 22 116 29 64 15 82 24 74 37 -6 9 -49 11 -75 3z"/>
<path d="M15607 12415 c-10 -7 -15 -19 -11 -29 3 -9 -2 -35 -11 -59 -29 -71
-85 -287 -79 -302 8 -21 34 -19 34 3 0 28 49 208 76 279 35 94 31 138 -9 108z"/>
<path d="M17664 12378 c-4 -6 -13 -37 -19 -67 l-11 -56 -56 -5 c-58 -5 -90
-22 -72 -39 5 -5 34 -5 64 -1 30 4 56 7 58 5 5 -4 -38 -128 -50 -142 -8 -10
-8 -17 -1 -24 19 -19 49 24 68 97 10 38 20 71 22 73 1 2 20 7 40 10 52 9 53
37 1 33 l-37 -3 6 38 c3 21 10 46 15 56 15 29 -11 52 -28 25z"/>
<path d="M15934 12353 c-3 -10 -10 -27 -14 -38 -5 -11 -12 -31 -15 -45 -4 -14
-19 -51 -33 -83 -18 -41 -22 -61 -14 -69 7 -7 15 -2 28 17 20 31 75 179 77
209 2 25 -21 33 -29 9z"/>
<path d="M6430 12220 c-11 -7 -14 -24 -12 -62 6 -99 6 -103 26 -106 17 -4 18
1 11 66 -4 45 -3 72 4 76 10 7 4 36 -8 36 -3 0 -13 -5 -21 -10z"/>
<path d="M16847 12141 c-69 -77 -57 -151 26 -151 44 0 103 24 111 45 6 17 -19
45 -40 45 -10 0 -14 -8 -12 -22 2 -18 -3 -23 -31 -29 -19 -4 -40 -5 -48 -2
-18 7 -16 44 4 73 23 34 35 41 60 35 25 -6 36 6 27 29 -12 30 -59 19 -97 -23z"/>
<path d="M17354 12149 c-10 -12 -29 -25 -41 -30 -24 -9 -67 -84 -58 -99 11
-18 30 -10 47 18 9 15 33 43 54 62 l37 35 -8 -40 c-4 -22 -9 -53 -12 -68 -5
-24 -2 -28 13 -25 23 4 49 119 34 149 -14 25 -42 24 -66 -2z"/>
<path d="M17112 12130 c-69 -65 -74 -130 -10 -130 40 0 73 21 93 60 16 30 12
53 -13 83 -21 24 -34 22 -70 -13z m53 -30 c14 -23 -42 -79 -65 -65 -12 7 14
61 32 68 20 8 26 8 33 -3z"/>
<path d="M17990 12101 c-34 -9 -32 -35 3 -39 18 -2 29 2 33 13 9 23 -6 33 -36
26z"/>
<path d="M17745 12074 c-42 -22 -51 -32 -38 -45 11 -11 65 10 78 32 13 21 -10
29 -40 13z"/>
<path d="M18153 12074 c-8 -21 13 -42 28 -27 13 13 5 43 -11 43 -6 0 -13 -7
-17 -16z"/>
<path d="M15644 12069 c-10 -17 13 -36 27 -22 12 12 4 33 -11 33 -5 0 -12 -5
-16 -11z"/>
<path d="M4938 11908 c-3 -7 -29 -15 -58 -18 -51 -5 -54 -7 -62 -38 -5 -18
-12 -59 -16 -90 l-7 -57 -28 75 c-15 41 -27 83 -27 93 0 20 -27 34 -40 21 -15
-15 79 -254 100 -254 15 0 30 35 31 72 0 18 6 57 12 87 l12 55 44 2 c48 2 77
23 68 48 -7 19 -24 21 -29 4z"/>
<path d="M6421 11836 c-8 -9 -11 -42 -9 -92 3 -66 6 -79 21 -82 15 -3 17 5 16
70 -1 40 0 82 2 92 5 24 -14 31 -30 12z"/>
<path d="M6850 11696 l-55 -11 3 -72 c2 -40 1 -87 -3 -104 l-7 -33 -14 25
c-22 39 -54 148 -48 163 3 8 -3 19 -15 26 -34 18 -36 -11 -7 -103 27 -87 64
-160 81 -160 25 0 49 68 53 148 l4 82 54 10 c32 6 59 6 69 0 27 -15 45 11 21
29 -23 16 -59 16 -136 0z"/>
<path d="M7035 11525 c-20 -36 -40 -65 -44 -65 -5 0 -14 20 -20 45 -11 44 -30
63 -49 51 -10 -6 35 -129 49 -134 5 -2 -12 -45 -38 -95 -51 -102 -65 -141 -56
-163 5 -14 32 -20 34 -6 4 54 8 74 16 85 6 6 43 77 84 157 40 80 77 148 83
151 11 8 1 39 -13 39 -5 0 -26 -29 -46 -65z"/>
<path d="M6386 11412 c-9 -57 -7 -105 7 -131 22 -43 31 -23 31 72 1 79 -1 93
-15 94 -12 1 -18 -10 -23 -35z"/>
<path d="M6385 11050 c-3 -5 -1 -35 5 -66 6 -30 10 -74 8 -97 -2 -32 1 -42 12
-42 21 0 29 72 15 147 -10 59 -26 81 -40 58z"/>
<path d="M6800 10465 c-8 -9 -8 -15 -2 -15 12 0 26 19 19 26 -2 2 -10 -2 -17
-11z"/>
<path d="M6750 10410 c-14 -11 -30 -20 -37 -20 -7 0 -12 -16 -11 -40 1 -64
-39 -109 -69 -79 -16 16 -33 2 -33 -27 0 -21 5 -24 34 -24 18 0 45 9 58 20 25
19 26 19 43 0 20 -22 83 -27 116 -10 22 13 26 50 4 50 -8 0 -15 -4 -15 -9 0
-5 -14 -12 -31 -16 -22 -5 -36 -2 -50 11 -23 21 -24 44 0 112 10 28 17 52 17
52 -1 0 -12 -9 -26 -20z"/>
<path d="M5140 10219 c-30 -11 -71 -21 -90 -23 l-35 -4 -5 -90 c-3 -50 -8 -93
-11 -97 -9 -8 -45 80 -60 148 -13 60 -24 76 -41 59 -20 -20 68 -269 107 -302
22 -18 27 2 32 131 5 100 8 119 22 119 39 1 176 48 176 61 0 20 -33 20 -95 -2z"/>
<path d="M5150 10037 c0 -7 11 -23 25 -35 34 -30 34 -80 -1 -122 -20 -24 -33
-30 -49 -26 -25 6 -51 -16 -40 -34 12 -19 61 -10 95 18 l34 29 34 -35 c32 -32
38 -34 80 -28 44 6 78 23 67 34 -3 3 -28 5 -55 3 -38 -2 -53 2 -69 18 -30 30
-28 85 4 115 14 13 25 28 25 34 0 22 -22 23 -44 3 l-22 -21 -22 30 c-23 30
-62 41 -62 17z"/>
<path d="M16051 9928 c-4 -13 -11 -57 -15 -98 -11 -115 -6 -110 -86 -103 -56
5 -74 2 -96 -12 -34 -22 -18 -42 23 -28 16 6 52 8 81 5 57 -5 60 -10 42 -72
-18 -61 -15 -109 6 -131 26 -25 147 -35 165 -13 18 22 4 28 -64 25 -85 -3 -93
7 -77 94 7 36 16 68 20 70 5 3 27 -2 49 -11 40 -16 71 -14 71 5 0 5 -23 17
-51 26 -28 10 -53 23 -55 30 -7 18 14 176 26 190 13 16 2 45 -16 45 -8 0 -18
-10 -23 -22z"/>
<path d="M14689 9894 c-10 -12 -14 -45 -13 -114 l0 -96 -26 4 c-23 3 -33 -4
-64 -47 -46 -63 -62 -112 -45 -143 17 -32 28 -38 76 -38 45 0 102 37 104 68 0
10 7 -1 15 -22 20 -54 32 -66 68 -66 33 0 76 24 76 42 0 10 -18 8 -67 -7 -37
-12 -46 25 -53 205 -4 113 -10 174 -20 194 -18 36 -33 42 -51 20z m39 -208
l-3 -61 -12 86 c-13 97 -5 171 9 85 5 -27 8 -76 6 -110z m-36 -71 c4 -79 -12
-109 -63 -120 -64 -14 -74 37 -23 115 22 33 32 40 55 38 25 -2 29 -7 31 -33z"/>
<path d="M11678 9894 c-3 -3 -3 -43 -1 -88 5 -80 5 -84 -16 -91 -13 -4 -33 -4
-46 -1 -13 3 -27 1 -31 -5 -11 -19 14 -32 56 -31 46 2 45 6 41 -135 -2 -67 1
-83 12 -83 22 0 27 23 27 131 l0 99 35 0 c19 0 35 4 35 10 0 5 7 7 15 4 9 -4
15 0 15 10 0 12 -11 16 -49 16 l-48 0 -7 69 c-8 91 -18 116 -38 95z"/>
<path d="M10970 9848 c0 -13 7 -32 15 -42 9 -12 15 -42 15 -78 l0 -58 -35 0
c-41 0 -115 28 -132 49 -9 13 -14 14 -25 3 -31 -31 58 -80 149 -81 l52 -1 3
-72 c3 -65 5 -73 23 -73 11 0 19 5 18 10 0 6 -4 39 -8 76 l-7 65 36 11 36 11
0 -48 c0 -111 32 -131 101 -61 27 26 51 46 53 42 2 -3 7 -31 11 -61 9 -71 21
-92 47 -88 25 3 37 28 14 28 -10 0 -17 14 -21 48 -8 60 -34 132 -47 132 -6 0
-35 -26 -64 -57 l-53 -58 -1 72 c0 55 5 80 20 105 24 39 25 67 5 114 -22 53
-39 38 -50 -47 -10 -71 -12 -75 -45 -92 -35 -17 -35 -17 -42 5 -3 13 -7 43 -7
68 -1 53 -20 93 -44 98 -12 3 -17 -3 -17 -20z"/>
<path d="M7633 9851 c-73 -4 -136 -10 -140 -14 -11 -12 11 -62 27 -62 8 0 14
7 14 17 -1 14 16 17 123 23 117 7 268 3 278 -6 2 -3 0 -23 -5 -44 -5 -22 -14
-92 -21 -156 -16 -160 -2 -191 42 -89 33 78 42 79 75 13 18 -36 36 -59 48 -62
11 -2 28 -14 38 -26 10 -13 35 -29 55 -36 77 -25 253 10 203 41 -8 5 -19 5
-25 1 -18 -14 -119 -21 -157 -11 -20 6 -41 17 -48 24 -9 12 -3 18 34 34 59 27
75 55 49 91 -29 37 -55 38 -87 1 -14 -17 -29 -42 -32 -56 -10 -38 -28 -28 -55
28 -32 67 -51 79 -82 50 l-23 -22 7 63 c3 34 10 88 14 119 7 57 7 58 -21 69
-39 15 -152 18 -311 10z m565 -289 c2 -6 -11 -18 -27 -27 -35 -17 -39 -11 -15
23 16 23 35 25 42 4z"/>
<path d="M7775 9733 c-4 -37 -13 -111 -21 -163 -21 -145 -16 -200 20 -200 11
0 13 13 9 59 -3 33 1 108 10 168 24 163 25 197 5 201 -13 3 -17 -9 -23 -65z"/>
<path d="M13612 9735 c-108 -34 -107 -80 1 -144 20 -13 42 -31 47 -42 22 -40
-30 -81 -67 -53 -26 19 -33 17 -33 -10 0 -43 76 -51 115 -11 48 47 30 99 -51
151 -30 19 -54 39 -54 45 0 16 66 39 118 42 34 1 47 6 47 17 0 20 -67 23 -123
5z"/>
<path d="M15044 9714 c-65 -34 -85 -54 -82 -78 4 -27 59 -63 111 -71 23 -4 55
-14 70 -22 27 -14 28 -15 10 -28 -30 -24 -79 -29 -112 -12 -23 12 -32 12 -40
3 -32 -38 87 -62 153 -31 45 21 63 50 45 71 -18 22 -59 41 -104 49 -47 9 -95
32 -95 45 0 16 86 60 117 60 29 0 50 20 36 34 -14 13 -63 4 -109 -20z"/>
<path d="M16313 9708 c2 -7 -9 -21 -24 -30 -15 -9 -35 -29 -45 -43 -23 -35 -3
-82 42 -101 41 -17 116 -18 132 -2 25 25 10 85 -30 119 -10 9 -18 20 -18 25 0
12 -37 44 -51 44 -6 0 -9 -6 -6 -12z m73 -109 c7 -15 14 -30 14 -32 0 -12 -56
-17 -86 -7 -46 16 -54 47 -20 77 26 22 28 22 52 6 14 -9 32 -29 40 -44z"/>
<path d="M13071 9684 c-22 -28 -25 -65 -13 -159 5 -35 12 -50 22 -50 13 0 14
15 11 92 -3 81 -1 94 14 100 10 3 26 1 37 -6 26 -16 38 15 12 34 -29 22 -60
18 -83 -11z"/>
<path d="M13320 9689 c-14 -6 -42 -28 -62 -49 -39 -40 -41 -59 -8 -119 22 -42
121 -68 134 -35 12 32 7 37 -34 30 -33 -5 -44 -2 -61 15 l-21 21 56 23 c31 13
63 28 71 35 22 18 18 57 -7 74 -26 18 -33 19 -68 5z m55 -39 c7 -11 -71 -53
-88 -47 -17 5 39 57 62 57 11 0 22 -4 26 -10z"/>
<path d="M13908 9683 c-15 -9 -32 -27 -39 -40 -7 -13 -21 -23 -31 -23 -23 0
-35 -27 -21 -49 11 -18 1 -281 -12 -312 -3 -10 -1 -20 6 -25 30 -18 60 84 60
209 l0 74 42 -4 c54 -5 87 13 110 59 17 35 17 39 2 72 -15 32 -25 39 -75 51
-8 3 -27 -3 -42 -12z m74 -40 c43 -38 9 -93 -58 -93 -51 0 -56 6 -39 46 25 61
62 79 97 47z"/>
<path d="M11438 9668 c-27 -21 -68 -89 -68 -112 0 -48 47 -60 102 -26 18 11
36 20 39 20 3 0 11 -17 17 -39 16 -50 36 -68 58 -50 14 11 14 14 1 24 -8 6
-21 31 -28 55 -7 25 -16 49 -19 53 -4 5 -27 -2 -51 -15 -78 -41 -82 -41 -77
-13 3 13 0 26 -6 29 -7 3 -7 5 1 5 7 1 23 12 36 25 13 12 29 25 37 28 16 5 5
28 -14 28 -7 0 -19 -6 -28 -12z"/>
<path d="M12407 9662 c-23 -25 -47 -86 -47 -119 0 -15 9 -42 19 -60 27 -43 97
-56 151 -27 34 18 41 42 10 36 -75 -15 -114 -14 -127 3 -19 27 -16 85 7 123
24 38 37 41 50 7 5 -14 14 -25 20 -25 19 0 22 30 6 55 -20 30 -65 34 -89 7z"/>
<path d="M9275 9655 c-16 -51 -13 -49 -40 -31 -36 24 -60 20 -89 -15 -45 -53
-59 -88 -47 -115 17 -38 54 -29 120 29 l34 29 12 -47 c17 -65 42 -81 69 -43
18 25 11 41 -14 33 -23 -7 -31 38 -18 104 4 25 6 51 3 58 -6 18 -25 16 -30 -2z
m-49 -66 c7 -13 -62 -78 -83 -79 -16 0 -16 5 -2 33 27 52 67 74 85 46z"/>
<path d="M9600 9638 c-28 -46 -31 -62 -28 -153 2 -63 6 -80 18 -80 12 0 14 13
12 70 -3 49 1 83 13 113 18 44 34 52 55 27 16 -19 40 -19 40 -1 0 19 -48 56
-71 56 -11 0 -28 -14 -39 -32z"/>
<path d="M12891 9645 c-40 -52 -24 -185 23 -185 25 0 29 34 7 49 -23 15 -27
53 -11 96 9 23 15 27 40 23 17 -3 35 1 41 8 12 15 5 20 -42 29 -32 6 -39 3
-58 -20z"/>
<path d="M10254 9645 c-4 -9 1 -24 11 -35 20 -22 36 -95 28 -128 -6 -24 -35
-36 -91 -36 -38 0 -52 16 -52 61 0 48 -29 53 -44 7 -3 -11 -24 -38 -47 -60
l-40 -39 2 100 c1 81 -1 101 -13 103 -17 3 -45 -51 -30 -56 6 -2 8 -25 5 -57
-7 -66 1 -101 27 -115 17 -9 27 -4 63 29 l42 39 22 -24 c24 -27 85 -33 142
-13 40 14 51 35 50 96 -1 87 -55 180 -75 128z"/>
<path d="M12680 9649 c-56 -20 -79 -115 -39 -158 29 -31 85 -26 111 10 17 23
18 31 8 66 -7 23 -22 52 -34 66 -17 21 -25 23 -46 16z m42 -80 c11 -37 10 -43
-7 -55 -26 -19 -32 -18 -50 9 -12 19 -13 30 -4 55 16 47 45 43 61 -9z"/>
<path d="M14129 9645 c-48 -26 -66 -103 -35 -150 13 -20 25 -25 56 -25 91 0
126 41 95 112 -34 79 -60 93 -116 63z m65 -56 c33 -39 33 -67 0 -79 -39 -15
-62 -12 -74 11 -14 24 -6 61 16 83 22 22 29 20 58 -15z"/>
<path d="M14382 9648 c-7 -7 -20 -13 -30 -13 -11 0 -18 -9 -20 -25 -2 -14 -7
-34 -12 -45 -15 -31 -16 -67 -3 -72 8 -3 21 15 34 44 21 49 46 83 60 83 13 0
29 -71 29 -127 0 -40 4 -53 15 -53 25 0 21 145 -5 188 -20 33 -47 41 -68 20z"/>
<path d="M7151 9632 c-31 -27 -35 -58 -10 -76 25 -17 52 -8 69 24 22 41 -24
82 -59 52z"/>
<path d="M9754 9638 c-4 -6 1 -17 10 -24 17 -12 16 -15 -8 -57 -29 -48 -34
-108 -12 -126 29 -24 147 31 181 83 28 43 -13 87 -109 120 -59 19 -53 19 -62
4z m120 -71 c35 -28 31 -38 -32 -78 -74 -47 -101 -35 -67 31 11 21 22 29 38
27 17 -1 22 3 21 21 -1 28 4 28 40 -1z"/>
<path d="M9406 9608 c-9 -12 -16 -30 -16 -38 0 -9 -5 -21 -11 -27 -16 -16 2
-128 21 -128 11 0 15 16 17 72 2 93 14 116 50 102 49 -18 74 8 28 29 -40 18
-72 14 -89 -10z"/>
<path d="M6294 9479 c-4 -7 10 -26 32 -45 21 -18 37 -34 34 -35 -3 -1 -70 -7
-149 -13 -81 -6 -146 -16 -148 -21 -2 -6 4 -20 12 -30 14 -19 16 -19 28 -3 12
15 38 18 175 23 89 3 162 4 162 2 0 -2 -18 -17 -41 -32 -47 -33 -72 -74 -58
-96 7 -11 13 -10 29 11 11 14 20 27 20 30 0 3 23 21 50 40 27 19 50 42 50 51
0 8 -15 23 -32 32 -18 10 -57 35 -87 57 -59 43 -66 46 -77 29z"/>
<path d="M2943 9388 c-4 -7 -8 -56 -8 -108 l0 -95 -59 -9 c-55 -9 -59 -8 -76
14 -19 25 -40 20 -40 -9 0 -28 51 -45 120 -38 l60 5 0 -90 c0 -93 10 -128 37
-128 11 0 14 6 9 23 -3 12 -9 63 -13 113 l-6 92 30 16 c17 8 45 28 63 43 l33
28 -6 -55 c-21 -167 -21 -189 -2 -196 14 -6 27 3 51 31 l32 39 46 -42 c25 -23
53 -42 62 -42 9 0 25 -11 36 -25 28 -36 89 -49 161 -35 66 13 97 28 97 47 0
16 -6 16 -55 -2 -61 -22 -138 -19 -166 6 -17 14 -20 22 -11 26 7 3 32 19 55
37 74 56 73 116 -1 116 -27 0 -42 -8 -68 -36 -19 -20 -34 -46 -34 -59 0 -41
-21 -39 -69 9 -26 25 -52 46 -58 46 -6 0 -20 -14 -31 -32 l-20 -31 4 142 c4
144 -3 181 -31 181 -11 0 -15 -13 -15 -49 0 -43 -4 -52 -35 -80 -51 -45 -62
-41 -61 22 1 36 5 51 14 50 15 -4 15 0 -2 41 -16 40 -31 51 -43 34z m467 -283
c0 -14 -79 -79 -87 -71 -2 2 1 15 6 29 16 43 81 76 81 42z"/>
<path d="M13406 9331 c-4 -6 -7 -25 -7 -43 1 -18 -2 -55 -5 -82 -6 -48 -6 -48
-38 -41 -52 11 -61 11 -61 -5 0 -10 16 -18 47 -24 l47 -9 3 -96 c2 -77 6 -96
18 -96 12 0 15 17 14 94 l-1 93 48 -6 c26 -4 50 -2 53 3 9 14 -20 32 -61 38
-38 5 -38 5 -37 52 0 25 4 54 8 63 16 35 -10 89 -28 59z"/>
<path d="M5044 9303 c15 -60 18 -95 11 -148 l-6 -54 -101 -3 c-55 -2 -102 0
-105 5 -10 17 -47 5 -74 -24 -60 -65 -44 -144 35 -174 66 -25 146 -7 146 32 0
11 -5 13 -17 7 -37 -16 -100 -16 -132 0 -25 14 -31 23 -31 50 0 56 46 92 92
72 9 -4 55 -6 102 -4 l85 3 3 -60 c2 -48 7 -60 21 -63 15 -3 17 5 17 57 0 60
1 61 28 61 15 0 37 3 49 6 22 6 22 6 6 -26 -20 -40 -9 -80 27 -97 31 -15 153
6 178 30 14 15 14 18 -1 35 -10 11 -37 28 -60 38 -23 10 -49 28 -58 39 -14 17
-20 18 -43 7 -15 -7 -26 -8 -26 -2 0 6 -23 10 -51 10 l-52 0 6 63 c7 79 -11
160 -38 165 -15 3 -17 0 -11 -25z m242 -284 c66 -25 58 -38 -28 -42 -43 -2
-53 1 -56 16 -5 23 4 47 17 47 6 0 36 -10 67 -21z"/>
<path d="M14551 9312 c-6 -11 -11 -43 -11 -70 l0 -50 -38 -7 c-21 -3 -58 -1
-82 4 -38 9 -47 8 -57 -6 -7 -9 -10 -19 -8 -23 8 -13 126 -11 143 2 12 10 14
10 8 1 -4 -8 -2 -13 6 -13 10 0 13 -25 13 -102 0 -106 15 -168 41 -168 21 0
25 16 9 46 -21 41 -21 223 0 229 8 3 22 7 30 10 8 2 16 4 18 4 1 0 18 7 39 15
l36 15 -5 -58 c-3 -33 -3 -71 1 -85 8 -31 35 -34 60 -7 17 19 18 18 43 -5 14
-13 33 -26 42 -29 9 -3 27 -25 39 -50 16 -34 33 -51 66 -66 41 -21 47 -21 102
-7 49 12 58 18 56 34 -6 33 -22 41 -38 19 -11 -15 -26 -20 -65 -20 -45 0 -54
4 -75 30 -33 41 -30 50 16 64 46 14 66 45 56 85 -12 47 -85 27 -115 -31 -7
-13 -17 -23 -24 -23 -24 1 -49 29 -49 55 0 39 -17 41 -48 4 l-29 -34 0 70 c0
46 5 77 14 89 19 26 19 66 0 66 -8 0 -21 -13 -30 -30 -16 -32 -48 -52 -107
-68 -44 -12 -46 -6 -26 60 10 33 9 41 -4 55 -15 14 -17 13 -27 -5z m402 -243
c-11 -12 -26 -20 -33 -17 -17 5 16 38 38 38 14 0 13 -3 -5 -21z"/>
<path d="M7982 9267 c-51 -52 -96 -148 -116 -249 -20 -99 -20 -113 5 -193 16
-53 31 -78 70 -117 62 -62 100 -78 205 -85 71 -5 84 -4 84 9 0 11 -17 17 -67
22 -103 10 -136 22 -186 66 -103 91 -115 265 -30 434 35 70 49 84 78 78 22 -4
25 -1 25 26 0 53 -22 56 -68 9z"/>
<path d="M11453 9288 c22 -99 29 -139 24 -144 -3 -3 -25 -10 -49 -15 -45 -11
-78 -34 -78 -55 0 -24 23 -27 39 -5 9 12 33 24 54 28 35 5 37 4 37 -20 0 -15
5 -60 11 -102 9 -61 15 -75 28 -73 9 2 15 12 13 23 -9 65 -14 175 -8 175 4 0
16 -5 26 -10 13 -7 21 -7 25 0 4 6 12 7 18 3 7 -4 6 0 -1 10 -8 9 -29 22 -48
29 -28 10 -34 17 -34 43 -1 56 -25 130 -45 133 -14 3 -17 -1 -12 -20z"/>
<path d="M12132 9297 c-8 -9 -7 -29 2 -70 l14 -58 -57 7 c-46 5 -59 3 -71 -11
-12 -14 -12 -18 1 -25 7 -5 24 -7 36 -3 13 3 39 2 58 -1 l35 -7 0 -97 c0 -102
8 -129 34 -119 13 5 14 12 6 32 -6 15 -10 62 -10 106 l0 79 73 0 c39 0 81 3
93 6 18 5 20 2 16 -24 -3 -25 3 -35 47 -72 54 -46 68 -77 29 -66 -64 18 -78
19 -78 3 0 -21 87 -48 112 -36 22 12 31 44 19 68 -6 10 -29 33 -51 51 -58 46
-53 68 20 80 22 3 35 11 35 20 0 15 -21 17 -85 9 -14 -1 -71 -2 -127 -1 l-101
2 -7 31 c-5 23 -11 29 -23 25 -16 -6 -16 -5 0 7 11 9 14 22 11 40 -6 33 -17
41 -31 24z"/>
<path d="M16680 9271 c0 -42 25 -77 35 -47 3 9 7 23 10 32 7 21 -12 54 -30 54
-11 0 -15 -11 -15 -39z"/>
<path d="M16287 9293 c-14 -13 -7 -42 12 -52 29 -16 45 9 25 37 -16 23 -26 27
-37 15z"/>
<path d="M10065 9280 c-4 -6 14 -41 39 -79 69 -104 79 -133 74 -222 -4 -61
-12 -91 -40 -150 -57 -121 -151 -216 -225 -228 -39 -7 -55 -27 -28 -37 64 -25
208 95 274 230 88 178 81 266 -35 441 -36 55 -47 64 -59 45z"/>
<path d="M16101 9197 c-45 -23 -65 -62 -69 -135 -3 -49 1 -72 12 -87 21 -28
43 -7 26 25 -17 32 -3 115 25 148 20 24 25 25 49 14 35 -16 46 -15 46 3 0 8
-13 21 -30 30 -35 18 -29 18 -59 2z"/>
<path d="M9343 9178 c26 -105 79 -254 97 -272 21 -21 21 -21 33 -1 19 32 25
64 26 151 l1 81 63 8 c34 4 71 8 82 9 11 1 20 8 20 16 0 16 -30 17 -145 8
l-55 -5 -5 -114 c-3 -63 -8 -107 -13 -99 -15 32 -56 184 -50 193 7 11 -26 47
-45 47 -10 0 -13 -7 -9 -22z"/>
<path d="M4289 9152 c-12 -31 -11 -52 6 -147 8 -43 13 -81 11 -83 -2 -2 -30
28 -62 67 -31 39 -60 68 -63 66 -4 -2 -7 9 -6 23 0 21 -5 28 -22 30 -13 2 -23
1 -23 -3 0 -21 51 -97 111 -165 95 -109 117 -98 93 46 -7 43 -13 96 -13 118
-1 32 2 37 16 32 30 -12 153 5 153 20 0 9 -11 14 -27 14 -16 0 -59 2 -96 3
-65 3 -70 2 -78 -21z"/>
<path d="M8467 9152 c-48 -14 -61 -14 -79 -3 -11 7 -24 9 -29 4 -4 -4 -10 -53
-11 -108 l-3 -100 -36 90 c-22 56 -42 91 -53 93 -18 4 -23 -37 -7 -53 5 -6 21
-39 35 -74 27 -66 60 -111 81 -111 14 0 25 67 25 156 l0 64 38 0 c20 0 55 5
77 12 22 6 47 12 55 12 8 1 16 9 18 19 4 21 -28 21 -111 -1z"/>
<path d="M16395 9137 c-38 -38 -52 -78 -39 -115 15 -43 37 -49 88 -24 l46 22
5 -23 c11 -51 25 -142 25 -163 0 -19 -8 -24 -42 -31 -49 -10 -77 -43 -85 -100
-7 -52 18 -128 56 -174 25 -28 32 -32 48 -23 25 15 51 98 52 169 1 65 10 88
31 83 26 -6 23 31 -3 41 -21 8 -25 18 -32 88 -5 43 -9 119 -9 168 -1 78 -3 90
-18 90 -10 0 -23 6 -30 13 -22 22 -59 13 -93 -21z m85 -26 c5 -11 10 -26 10
-33 0 -16 -60 -58 -83 -58 -24 0 -22 51 4 84 24 31 54 34 69 7z m37 -418 c-7
-93 -24 -156 -39 -147 -20 13 -48 90 -48 137 0 55 24 87 66 87 l27 0 -6 -77z"/>
<path d="M16848 9143 c-29 -31 -88 -148 -88 -175 0 -10 6 -18 14 -18 15 0 51
48 42 57 -7 7 39 96 58 112 9 7 23 10 32 7 14 -5 15 -15 10 -54 -23 -161 -18
-183 37 -181 73 1 137 43 109 71 -11 11 -16 10 -27 -5 -7 -10 -31 -21 -53 -24
-51 -7 -56 6 -36 103 15 74 15 78 -3 103 -28 37 -62 38 -95 4z"/>
<path d="M6216 9152 c-11 -18 16 -81 48 -116 19 -20 49 -63 68 -96 48 -87 58
-80 58 40 0 100 0 101 27 111 15 5 46 13 70 16 36 5 46 2 58 -13 11 -15 16
-17 27 -6 41 40 -65 66 -159 39 l-48 -14 -3 -74 -3 -74 -44 69 c-24 37 -50 81
-57 97 -13 28 -32 38 -42 21z"/>
<path d="M15772 9147 c-38 -22 -56 -57 -57 -113 0 -42 5 -57 24 -78 30 -32 58
-33 120 -2 59 31 79 68 62 119 -22 67 -97 104 -149 74z m70 -39 c22 1 48 -35
48 -65 0 -29 -35 -61 -77 -69 -50 -9 -66 9 -60 70 5 52 29 82 57 70 8 -4 23
-6 32 -6z"/>
<path d="M13144 9116 c-37 -37 -46 -84 -19 -106 17 -14 68 -5 86 16 16 20 29
18 29 -6 0 -27 20 -68 37 -74 21 -8 26 17 8 50 -8 16 -15 48 -15 72 0 83 -66
108 -126 48z m86 -17 c0 -15 -54 -59 -72 -59 -26 0 -22 18 11 51 27 27 61 31
61 8z"/>
<path d="M16254 9140 c-7 -7 -8 -29 -2 -64 6 -41 4 -63 -7 -90 -20 -48 -19
-66 5 -66 14 0 20 7 20 23 0 13 5 28 11 34 10 10 11 29 6 125 -2 34 -19 52
-33 38z"/>
<path d="M16641 9109 c-16 -47 -14 -171 3 -195 24 -32 35 -6 25 56 -9 57 -3
116 13 137 5 7 7 17 3 23 -12 20 -33 10 -44 -21z"/>
<path d="M11157 9109 c-31 -17 -38 -25 -35 -46 2 -21 15 -33 52 -52 63 -33 78
-55 51 -75 -28 -22 -87 -21 -83 0 4 25 -19 28 -32 5 -15 -28 18 -61 62 -61 39
0 96 37 104 68 8 30 -26 68 -86 95 l-45 20 39 18 c37 16 41 16 52 1 18 -24 44
0 28 26 -16 24 -63 25 -107 1z"/>
<path d="M5513 9110 c-29 -12 -50 -45 -62 -102 -12 -51 0 -98 25 -98 17 0 26
30 13 46 -14 17 -5 71 17 102 19 28 44 28 78 1 15 -12 30 -19 33 -15 4 3 1 6
-7 6 -10 0 -10 3 0 15 10 12 6 18 -22 35 -36 22 -43 23 -75 10z"/>
<path d="M4486 9063 c-56 -58 -58 -125 -5 -153 42 -23 179 -10 179 16 0 12
-12 13 -62 8 -75 -7 -118 6 -118 36 0 13 4 18 11 15 12 -8 97 21 121 42 21 19
15 35 -21 56 -43 25 -65 21 -105 -20z m87 -10 c7 -7 -46 -33 -66 -33 -5 0 -2
9 8 20 18 20 46 26 58 13z"/>
<path d="M7204 9073 c-51 -4 -52 -4 -57 -41 -2 -20 -3 -40 -1 -43 6 -11 189 0
193 12 7 21 -24 29 -86 23 -44 -4 -63 -3 -63 5 0 11 60 16 128 12 31 -3 33 -1
22 18 -11 22 -15 22 -136 14z"/>
<path d="M11876 9054 c-9 -9 -16 -32 -16 -55 0 -21 -4 -39 -10 -39 -13 0 -50
37 -50 50 0 6 -6 10 -14 10 -7 0 -20 10 -28 21 -17 26 -33 22 -101 -21 -38
-24 -47 -35 -47 -59 0 -34 13 -46 58 -56 25 -5 43 -1 78 19 41 23 48 24 72 12
38 -19 99 -29 107 -17 3 6 -4 24 -16 41 -19 25 -21 34 -11 54 10 23 14 24 47
15 41 -12 65 -6 65 14 0 9 -16 17 -46 21 -65 9 -71 8 -88 -10z m-134 -56 l21
-21 -23 -19 c-26 -21 -95 -22 -95 -1 0 10 58 60 73 63 1 0 12 -10 24 -22z"/>
<path d="M8546 8991 c-21 -23 -17 -57 7 -55 9 1 17 -2 17 -7 0 -17 -73 -89
-90 -89 -22 0 -32 -24 -18 -38 13 -13 41 -1 80 35 l26 25 14 -29 c12 -25 19
-28 64 -31 36 -2 54 1 63 12 21 25 5 35 -40 24 -57 -15 -68 -1 -44 54 10 24
25 49 34 56 21 17 0 38 -25 24 -14 -8 -20 -6 -29 11 -14 29 -37 32 -59 8z"/>
<path d="M9723 8935 c-15 -30 -31 -55 -35 -55 -10 0 -25 18 -48 58 -23 37 -60
45 -60 12 0 -11 7 -23 15 -27 9 -3 23 -19 31 -35 8 -16 24 -32 34 -36 18 -7
15 -15 -35 -102 -59 -101 -65 -133 -27 -138 19 -3 22 1 20 26 -1 19 12 53 39
98 63 107 124 234 118 244 -12 20 -26 8 -52 -45z"/>
<path d="M8928 8964 c-3 -3 -4 -23 -1 -44 7 -51 -33 -158 -61 -162 -25 -4 -32
-26 -11 -34 44 -17 89 52 110 167 9 48 -15 95 -37 73z"/>
<path d="M17530 8900 c0 -5 15 -29 33 -53 41 -54 115 -230 130 -309 23 -127
-44 -301 -157 -405 -86 -79 -110 -91 -134 -70 -19 18 -42 23 -42 10 0 -5 13
-24 29 -43 l29 -34 78 59 c100 77 152 142 194 241 55 128 53 260 -7 394 -52
116 -77 163 -99 190 -25 29 -54 40 -54 20z"/>
<path d="M14097 8819 l-26 -61 -58 3 c-46 3 -58 1 -58 -11 0 -11 14 -16 49
-20 l49 -5 1 -60 c1 -69 30 -126 75 -149 53 -28 188 21 153 56 -9 9 -16 8 -31
-6 -12 -11 -38 -18 -67 -19 -44 -2 -49 1 -71 32 -17 25 -23 48 -23 87 l0 53
98 3 c78 2 97 6 97 18 0 12 -15 14 -88 12 l-89 -4 7 24 c4 13 14 35 21 50 18
34 18 58 1 58 -8 0 -26 -27 -40 -61z"/>
<path d="M15061 8812 c-98 -103 -123 -149 -171 -317 -48 -163 -40 -298 20
-349 41 -34 166 -74 182 -58 12 12 11 12 -96 54 -77 30 -95 56 -102 143 -6 80
24 213 77 340 33 79 129 198 153 189 20 -8 30 14 16 31 -19 23 -29 19 -79 -33z"/>
<path d="M10814 8809 c-4 -7 -6 -52 -5 -102 l1 -90 -72 7 c-39 3 -78 12 -85
18 -10 8 -17 8 -25 0 -14 -14 5 -40 30 -41 9 0 45 -6 80 -12 l62 -12 0 -36
c-1 -20 -5 -56 -10 -81 -6 -31 -5 -47 3 -52 18 -11 24 -1 31 49 18 132 13 121
64 128 68 9 78 13 64 27 -7 7 -34 11 -63 9 l-51 -3 4 101 c3 75 1 101 -9 101
-6 0 -15 -5 -19 -11z"/>
<path d="M13635 8810 c-7 -11 22 -70 34 -70 15 0 19 23 8 53 -9 27 -30 36 -42
17z"/>
<path d="M11982 8770 c-4 -12 -21 -29 -37 -40 -29 -19 -29 -19 -40 3 -14 28
-45 35 -45 10 0 -11 5 -24 12 -31 9 -9 7 -13 -5 -18 -9 -3 -15 -9 -12 -14 2
-4 -8 -7 -23 -7 -68 -1 -107 -9 -107 -23 0 -21 38 -24 97 -6 29 8 53 14 54 13
1 -1 -1 -22 -6 -47 -4 -25 -10 -76 -12 -115 -3 -60 -1 -70 15 -73 18 -4 21 5
17 48 -1 14 4 64 11 113 12 83 15 89 47 109 18 11 36 17 40 13 4 -3 6 -51 4
-106 -3 -113 7 -129 54 -86 l27 26 19 -25 c11 -14 30 -24 44 -24 14 0 24 -6
24 -14 0 -8 12 -24 26 -35 23 -18 41 -21 126 -21 96 0 145 11 133 31 -4 5 -46
7 -103 3 -71 -4 -104 -2 -122 8 -37 20 -31 39 18 56 53 17 64 38 33 64 -35 27
-56 22 -96 -24 l-36 -43 -17 21 c-9 12 -22 30 -28 40 -11 18 -13 18 -38 -5
l-26 -24 -1 44 c0 24 -2 58 -3 74 -1 17 -3 51 -4 78 -1 35 -6 47 -17 47 -9 0
-19 -9 -23 -20z"/>
<path d="M2922 8744 c-38 -26 -100 -129 -127 -207 -52 -157 -25 -302 69 -364
37 -24 124 -45 132 -32 9 15 -5 27 -39 34 -62 13 -97 37 -125 84 -23 39 -27
57 -27 126 0 102 30 193 91 276 38 51 47 59 60 48 23 -19 39 3 22 30 -15 25
-26 26 -56 5z"/>
<path d="M7240 8663 c0 -118 -11 -162 -52 -208 -48 -56 -108 -56 -108 -2 0 30
60 125 82 130 23 6 23 26 1 34 -22 9 -86 -63 -109 -122 -21 -55 -13 -85 26
-108 41 -25 86 -10 134 43 l36 40 14 -34 c16 -40 46 -59 83 -54 31 4 44 28 15
28 -65 0 -75 26 -82 200 -4 127 -7 145 -22 148 -16 3 -18 -7 -18 -95z"/>
<path d="M17120 8738 c-30 -5 -83 -7 -118 -5 -58 4 -64 3 -72 -17 -4 -11 -6
-24 -4 -27 8 -14 15 -189 7 -189 -5 0 -25 38 -44 85 -18 47 -39 85 -46 85 -12
0 -14 -11 -17 -77 -1 -10 6 -18 14 -18 9 0 27 -28 45 -70 17 -40 37 -71 46
-73 21 -4 39 45 39 108 0 26 3 67 6 92 l6 45 77 6 c87 7 143 25 139 46 -4 19
-13 20 -78 9z"/>
<path d="M5917 8724 c-4 -4 -7 -28 -7 -53 0 -130 -43 -236 -109 -267 -30 -14
-35 -14 -48 -1 -21 20 -10 78 21 114 20 23 26 25 39 14 16 -13 37 -8 37 9 0
14 -30 40 -46 40 -17 0 -66 -46 -83 -77 -17 -34 -16 -88 3 -117 13 -20 25 -26
53 -26 29 0 44 8 78 43 l43 43 16 -33 c9 -19 16 -40 16 -48 0 -10 10 -15 29
-15 41 0 46 14 16 43 -37 33 -43 76 -32 200 9 92 9 110 -4 122 -8 9 -18 12
-22 9z"/>
<path d="M3312 8661 c-34 -53 -41 -59 -77 -63 -27 -3 -43 0 -51 10 -7 10 -20
13 -37 8 -47 -12 -61 -133 -20 -178 9 -10 19 -16 23 -13 18 11 2 -47 -33 -117
-21 -43 -37 -88 -35 -100 4 -26 28 -37 28 -11 0 10 19 57 42 105 41 86 42 88
77 88 93 1 152 35 168 97 5 23 -1 33 -42 70 -52 47 -52 44 3 105 24 26 25 58
2 58 -6 0 -27 -27 -48 -59z m-140 -93 c3 -7 19 -11 42 -10 l37 3 -25 -48 c-42
-80 -42 -80 -65 -59 -30 27 -30 126 0 126 4 0 9 -5 11 -12z m166 -41 c44 -41
18 -81 -64 -96 -27 -5 -50 -8 -52 -6 -2 1 13 32 33 69 38 68 41 70 83 33z"/>
<path d="M4050 8674 c0 -8 -10 -33 -22 -55 -20 -33 -28 -39 -53 -37 -35 2 -58
-9 -50 -23 4 -5 17 -9 31 -9 13 0 24 -3 24 -6 0 -4 -21 -38 -47 -76 -42 -65
-47 -69 -60 -52 -20 27 -16 94 8 134 25 41 36 50 65 50 12 0 24 7 27 15 7 17
-5 27 -25 21 -7 -2 -25 -7 -39 -10 -16 -3 -37 -22 -55 -48 -35 -53 -40 -136
-10 -180 18 -27 18 -28 -17 -85 -60 -100 -71 -163 -28 -163 21 0 36 27 19 32
-15 5 4 58 43 119 l30 47 57 -5 c76 -7 134 10 166 48 39 46 34 75 -24 131
l-51 49 26 50 c30 61 31 69 5 69 -11 0 -20 -7 -20 -16z m15 -175 c42 -37 45
-69 10 -97 -29 -23 -102 -36 -134 -24 l-22 8 30 40 c16 23 36 55 45 72 9 18
21 32 26 32 5 0 25 -14 45 -31z"/>
<path d="M4264 8679 c-8 -14 15 -34 71 -59 85 -38 112 -99 89 -207 -19 -92
-55 -133 -180 -209 -15 -10 -16 -15 -7 -25 16 -16 37 -5 117 57 63 50 89 93
107 182 24 115 -14 189 -121 240 -30 14 -58 28 -62 30 -3 1 -10 -2 -14 -9z"/>
<path d="M13193 8659 c-25 -9 -53 -47 -53 -70 0 -13 -6 -16 -21 -12 -20 6 -21
3 -14 -23 5 -16 10 -100 12 -187 4 -143 6 -158 21 -155 15 3 17 17 15 120 l-3
116 39 -5 c103 -14 161 101 91 180 -34 39 -56 48 -87 36z m61 -60 c31 -37 33
-58 5 -93 -14 -18 -30 -26 -51 -26 -26 0 -28 2 -18 15 14 17 4 39 -16 31 -17
-7 -17 1 -3 45 23 68 44 75 83 28z"/>
<path d="M7553 8646 c-72 -32 -62 -89 24 -121 72 -27 81 -37 47 -52 -52 -22
-124 -15 -124 13 0 8 -5 14 -11 14 -16 0 -2 -52 18 -67 23 -17 60 -16 116 3
90 30 80 81 -23 118 -27 10 -53 23 -57 29 -10 16 29 39 58 33 22 -4 26 -1 25
17 -1 27 -29 32 -73 13z"/>
<path d="M13452 8630 c-7 -11 -10 -26 -6 -32 5 -7 2 -9 -9 -5 -21 8 -57 -49
-57 -92 0 -31 29 -71 51 -71 6 0 26 7 43 15 98 46 108 178 16 200 -19 4 -28 0
-38 -15z m59 -40 c22 0 8 -60 -22 -89 -73 -74 -107 -2 -36 77 12 12 27 20 35
17 7 -3 18 -5 23 -5z"/>
<path d="M13732 8605 c-34 -38 -48 -75 -38 -101 9 -24 30 -11 37 25 7 35 46
84 60 75 5 -3 9 -34 9 -68 0 -84 11 -92 77 -60 29 13 55 29 58 34 11 18 -23
22 -54 6 -16 -9 -32 -16 -36 -16 -3 0 -5 19 -5 43 0 95 -53 125 -108 62z"/>
<path d="M15330 8621 c-5 -10 -12 -49 -15 -87 -4 -38 -9 -76 -12 -84 -6 -19
-53 71 -59 113 -4 36 -9 41 -29 33 -23 -8 -12 -51 36 -148 60 -120 72 -117 89
17 19 148 10 135 89 135 47 0 72 4 80 14 17 21 6 24 -87 24 -69 0 -84 -3 -92
-17z"/>
<path d="M6658 8594 c-47 -34 -87 -91 -95 -136 -4 -28 -1 -40 17 -58 20 -20
30 -22 86 -17 68 5 154 40 154 63 0 17 -24 18 -42 2 -14 -14 -16 -14 -92 -29
-67 -13 -86 -5 -86 34 0 27 1 29 13 14 11 -16 16 -16 74 12 88 43 112 82 73
121 -27 27 -58 25 -102 -6z m82 -28 c0 -20 -51 -55 -90 -63 -30 -6 -32 -5 -21
15 25 46 111 84 111 48z"/>
<path d="M10444 8586 c-24 -24 -34 -43 -34 -65 0 -40 27 -54 96 -49 47 3 54 1
54 -15 0 -23 47 -67 71 -67 25 0 24 27 -1 35 -35 11 -44 41 -26 86 17 42 14
59 -10 59 -8 0 -14 4 -14 9 0 21 -33 41 -67 41 -27 0 -43 -8 -69 -34z m96 -20
c5 -13 15 -26 22 -29 10 -4 10 -8 -2 -16 -20 -14 -76 -25 -95 -17 -23 9 -18
42 11 65 35 27 52 26 64 -3z"/>
<path d="M5323 8570 c-26 -10 -48 -50 -57 -102 -5 -30 -3 -41 13 -57 16 -16
26 -18 52 -11 18 5 42 19 55 31 l22 21 7 -40 c9 -53 40 -103 60 -96 19 8 19
21 1 39 -8 8 -19 38 -25 67 -28 124 -34 139 -58 149 -29 11 -41 11 -70 -1z
m70 -36 c19 -20 -45 -104 -79 -104 -19 0 -18 44 1 80 12 23 23 30 44 30 15 0
30 -3 34 -6z"/>
<path d="M6910 8558 c-11 -12 -20 -25 -20 -30 0 -4 -10 -7 -22 -5 -24 2 -35
-23 -37 -85 -1 -55 18 -47 60 24 20 34 40 63 46 65 5 2 9 -18 9 -44 0 -71 11
-103 34 -103 21 0 28 24 10 35 -5 3 -10 37 -10 74 0 90 -26 116 -70 69z"/>
<path d="M13588 8573 c-2 -4 -4 -35 -4 -68 1 -46 4 -60 16 -60 12 0 15 14 15
64 0 40 -4 66 -12 68 -6 2 -13 0 -15 -4z"/>
<path d="M5555 8523 c-38 -52 -50 -84 -41 -108 9 -24 25 -18 32 13 8 29 47 97
63 106 17 11 31 -30 31 -88 0 -62 16 -106 38 -106 11 0 13 8 7 38 -4 20 -9 61
-11 91 -7 110 -60 134 -119 54z"/>
<path d="M17259 8520 c-1 -5 -2 -13 -3 -17 0 -5 -11 -21 -22 -38 -12 -16 -32
-50 -44 -75 l-23 -45 -14 35 c-8 18 -12 46 -9 60 3 19 -1 32 -15 43 -38 33
-54 12 -32 -40 7 -18 13 -43 13 -57 0 -27 26 -59 41 -50 5 3 -8 -30 -30 -73
-49 -99 -55 -118 -41 -143 17 -32 34 -19 35 26 1 29 20 73 70 164 37 69 79
140 93 158 20 26 22 35 12 47 -14 17 -29 20 -31 5z"/>
<path d="M15471 8456 c-14 -17 -7 -36 14 -36 15 0 25 -22 25 -55 0 -32 -56
-78 -86 -71 -29 8 -56 -30 -33 -45 20 -12 25 -11 69 11 l40 20 20 -20 c12 -12
33 -20 53 -20 48 0 107 19 107 35 0 11 -14 13 -70 8 -61 -5 -70 -4 -70 11 0
29 26 81 60 120 26 29 30 40 21 49 -10 9 -19 4 -45 -23 l-32 -35 -19 29 c-24
36 -38 41 -54 22z"/>
<path d="M16087 8463 c-4 -3 -7 -19 -7 -34 0 -17 -12 -42 -31 -64 -29 -33 -32
-34 -45 -18 -13 17 -15 17 -29 -1 -18 -24 -18 -27 -2 -50 12 -17 16 -17 44 -3
43 23 91 81 98 121 9 45 -7 71 -28 49z"/>
<path d="M3547 8454 c-3 -3 -3 -34 0 -68 4 -51 2 -69 -16 -101 -27 -52 -42
-70 -64 -78 -19 -7 -20 -38 -1 -44 15 -5 72 54 96 101 26 51 30 158 7 181 -8
8 -18 13 -22 9z"/>
<path d="M10608 7925 c-94 -35 -120 -74 -121 -184 -1 -42 2 -97 7 -123 l7 -47
-38 -10 c-21 -6 -50 -11 -64 -11 -27 0 -47 -26 -32 -41 4 -4 34 -1 67 8 49 12
60 13 67 1 13 -19 11 -102 -3 -135 -6 -15 -11 -31 -10 -34 1 -4 -6 -6 -15 -5
-22 1 -29 -22 -8 -30 23 -9 61 30 73 76 5 21 7 60 5 87 -5 45 -3 51 17 56 29
8 23 43 -7 39 -20 -3 -21 3 -28 93 -9 121 -3 164 30 192 32 29 111 52 153 46
36 -6 39 -2 16 21 -19 19 -66 20 -116 1z"/>
<path d="M7568 7855 c-3 -3 -1 -26 3 -53 4 -26 5 -83 2 -127 l-6 -80 -61 -3
c-65 -3 -88 -14 -69 -33 8 -8 27 -9 60 -3 26 4 53 8 58 8 6 1 12 -35 15 -79 4
-62 8 -80 20 -80 12 0 14 15 11 83 l-3 84 76 -5 c42 -3 76 -2 76 2 0 11 -36
42 -41 37 -9 -10 -89 -15 -84 -5 4 5 1 9 -4 9 -7 0 -11 39 -11 109 0 60 -3
116 -6 125 -6 15 -25 21 -36 11z"/>
<path d="M3470 7833 c-59 -13 -84 -15 -159 -10 -36 3 -36 -18 0 -33 26 -11 51
-10 171 10 138 22 176 22 231 1 34 -13 42 -34 56 -144 8 -71 7 -103 -5 -172
-27 -143 -4 -152 50 -19 33 83 51 101 62 60 3 -14 20 -38 36 -52 22 -18 31
-35 33 -60 1 -18 10 -44 21 -55 17 -19 27 -21 84 -16 77 7 100 14 100 33 0 17
2 17 -79 4 -70 -12 -91 -4 -91 35 0 17 10 26 45 39 45 18 105 75 105 101 0 25
-46 48 -80 40 -30 -7 -90 -68 -90 -93 0 -28 -26 -4 -50 46 -14 28 -31 54 -37
57 -7 2 -24 -8 -38 -23 l-25 -27 0 38 c0 63 -21 180 -36 204 -33 52 -166 68
-304 36z m620 -281 c0 -16 -73 -72 -94 -72 -13 0 -5 20 20 49 24 29 74 44 74
23z"/>
<path d="M15430 7795 c-14 -17 -4 -55 16 -55 9 0 14 11 14 29 0 35 -13 47 -30
26z"/>
<path d="M5842 7748 c-11 -18 -34 -79 -51 -136 -28 -89 -37 -108 -76 -145 -52
-51 -88 -72 -109 -64 -38 15 35 114 75 102 22 -7 34 12 19 30 -18 22 -45 18
-80 -11 -61 -52 -78 -122 -36 -149 33 -22 66 -11 121 37 l45 40 0 -41 c0 -28
7 -48 20 -61 24 -24 50 -20 130 20 30 15 67 34 83 41 23 10 40 49 21 49 -3 0
-46 -20 -95 -45 -49 -25 -96 -45 -104 -45 -36 0 -30 89 10 167 28 53 77 222
69 235 -10 15 -22 8 -42 -24z"/>
<path d="M13594 7717 c4 -36 4 -86 1 -110 l-7 -45 -64 -4 c-64 -4 -97 -20 -78
-37 5 -5 31 -6 58 -1 82 12 89 7 81 -64 -3 -33 -8 -73 -11 -88 -4 -21 -2 -28
10 -28 23 0 36 41 36 116 0 37 4 64 10 64 6 0 27 -7 47 -15 29 -12 38 -13 45
-3 10 17 -16 36 -59 44 l-33 6 0 87 c-1 124 -2 135 -24 139 -17 4 -18 -1 -12
-61z"/>
<path d="M13027 7763 c-3 -5 -5 -42 -6 -83 0 -41 -10 -124 -21 -184 -24 -133
-25 -160 -3 -181 12 -12 24 -15 47 -9 17 4 56 10 86 13 43 5 56 10 58 25 4 17
-1 18 -55 13 -32 -3 -70 -9 -85 -13 -27 -6 -28 -5 -28 37 1 24 7 73 15 109 8
36 18 113 21 173 6 94 5 107 -9 107 -9 0 -18 -3 -20 -7z"/>
<path d="M2803 7728 c-4 -7 -15 -31 -23 -53 l-16 -40 -74 1 c-41 1 -84 3 -94
5 -41 9 -24 -21 39 -67 36 -26 65 -52 65 -57 0 -13 -71 -130 -88 -144 -8 -7
-12 -19 -8 -28 5 -14 21 -8 103 34 108 55 112 55 151 -11 16 -27 36 -36 46
-20 2 4 -4 34 -15 66 -11 32 -19 59 -17 60 2 1 27 21 56 45 96 79 92 111 -14
111 -61 0 -64 1 -64 24 0 30 -20 86 -30 86 -5 0 -12 -6 -17 -12z m17 -83 c0
-8 -4 -15 -10 -15 -5 0 -7 7 -4 15 4 8 8 15 10 15 2 0 4 -7 4 -15z m-80 -74
c-10 -20 -12 -20 -38 -3 l-26 17 34 5 c43 7 44 7 30 -19z m85 -22 c9 -67 -5
-83 -42 -47 -26 26 -26 27 -9 62 24 52 43 46 51 -15z m96 11 c-24 -22 -47 -40
-52 -40 -5 0 -9 18 -9 40 l0 40 53 0 52 -1 -44 -39z m-151 -101 c0 -11 -68
-51 -79 -47 -6 2 2 22 17 44 25 39 28 41 45 26 9 -8 17 -19 17 -23z"/>
<path d="M3534 7693 c18 -108 17 -142 -4 -258 -28 -148 -29 -159 -9 -163 24
-4 64 231 56 337 -3 47 -1 83 5 89 15 15 0 32 -29 32 -24 0 -25 -2 -19 -37z"/>
<path d="M12001 7717 c-6 -8 -9 -41 -6 -85 3 -45 -1 -95 -10 -134 -8 -35 -15
-87 -15 -115 0 -46 3 -53 19 -53 21 0 24 12 39 149 9 78 31 101 63 62 16 -20
18 -33 13 -87 -8 -81 7 -85 65 -17 37 44 41 46 65 35 20 -9 26 -19 26 -43 0
-22 10 -41 34 -65 31 -31 39 -34 94 -34 44 0 66 5 83 19 21 17 22 20 7 26 -9
4 -25 2 -37 -4 -32 -18 -86 -13 -115 10 -39 31 -34 55 13 63 45 7 59 35 35 72
-25 38 -54 41 -82 9 -20 -24 -27 -27 -43 -17 -31 20 -56 14 -83 -20 l-26 -33
0 40 c0 66 -55 119 -99 96 -15 -9 -16 -4 -10 47 3 31 2 65 -3 75 -10 20 -12
21 -27 4z m343 -222 c4 -10 -1 -15 -14 -15 -20 0 -26 11 -13 23 10 11 20 8 27
-8z"/>
<path d="M15440 7719 c0 -5 -4 -8 -8 -5 -8 5 -23 -157 -26 -268 -1 -41 20 -62
30 -29 13 42 49 114 61 125 20 16 25 5 24 -54 0 -29 2 -61 5 -70 10 -32 94
-16 94 17 0 8 -4 15 -10 15 -5 0 -10 -8 -10 -17 0 -14 -2 -15 -9 -4 -5 7 -14
10 -20 7 -7 -5 -11 10 -11 46 0 94 -43 135 -90 86 l-22 -23 7 93 c4 63 3 92
-4 92 -6 0 -11 -5 -11 -11z"/>
<path d="M6832 7685 c-20 -25 -45 -113 -57 -200 -12 -80 -21 -85 -39 -19 -35
130 -62 208 -74 212 -20 6 -25 -25 -8 -58 8 -17 25 -71 36 -119 22 -88 51
-151 70 -151 15 0 35 55 53 150 9 47 23 103 30 125 l14 40 57 0 c39 0 61 6 73
18 10 9 13 17 8 18 -142 9 -143 9 -163 -16z"/>
<path d="M13836 7688 c-8 -31 6 -41 37 -27 21 10 24 15 16 30 -14 26 -45 24
-53 -3z"/>
<path d="M4803 7595 c-46 -36 -83 -70 -83 -75 0 -26 27 -16 90 35 38 31 70 53
70 50 0 -3 -18 -48 -40 -100 -22 -52 -40 -101 -40 -110 0 -34 31 -28 74 14
l42 41 22 -44 c26 -55 62 -82 90 -67 34 18 75 82 79 125 6 48 -10 96 -32 96
-17 0 -19 -18 -6 -52 13 -34 3 -71 -29 -109 -33 -40 -46 -34 -79 37 -28 58
-45 64 -83 28 l-30 -29 17 40 c58 135 66 185 33 185 -7 0 -50 -29 -95 -65z"/>
<path d="M7963 7603 c-35 -33 -46 -81 -41 -173 2 -41 7 -55 18 -55 12 0 16 19
20 91 5 96 17 124 53 124 11 0 31 -10 43 -21 15 -14 29 -19 40 -15 16 6 14 10
-12 36 -44 44 -83 48 -121 13z"/>
<path d="M14983 7623 c-39 -5 -44 -11 -73 -93 -30 -85 -49 -114 -65 -100 -7 5
-29 44 -50 85 -21 42 -43 74 -49 72 -22 -7 -17 -47 8 -78 14 -17 26 -35 26
-41 0 -19 55 -88 71 -88 9 0 23 8 32 18 21 23 77 143 77 165 0 9 8 18 18 19 9
0 22 2 29 2 19 2 36 23 29 35 -4 6 -10 10 -14 9 -4 0 -21 -3 -39 -5z"/>
<path d="M16019 7615 c-35 -19 -54 -50 -74 -120 -21 -70 -14 -145 14 -145 15
0 17 10 17 73 -1 87 24 147 67 162 24 8 31 6 46 -14 15 -19 19 -20 29 -8 10
11 8 20 -9 41 -23 29 -51 32 -90 11z"/>
<path d="M6985 7569 c-46 -42 -63 -87 -50 -128 12 -38 93 -62 120 -35 9 9 15
11 15 4 0 -18 23 -6 26 14 2 15 -3 16 -41 11 -49 -8 -81 -1 -89 20 -7 19 3 47
15 39 5 -3 31 2 58 11 81 27 101 68 45 94 -39 17 -51 14 -99 -30z m85 -8 c0
-11 -61 -34 -68 -26 -8 8 31 34 51 35 9 0 17 -4 17 -9z"/>
<path d="M7252 7590 c-42 -26 -72 -76 -72 -120 0 -41 7 -53 38 -69 48 -26 224
11 194 41 -6 6 -23 6 -48 -1 -59 -16 -141 -14 -148 4 -17 45 25 109 80 124 16
4 29 14 29 22 0 22 -36 22 -73 -1z"/>
<path d="M16206 7573 c-20 -21 -39 -52 -42 -69 -3 -18 -12 -35 -20 -38 -20 -8
-17 -34 6 -46 11 -6 20 -17 20 -26 0 -25 47 -64 78 -64 59 0 190 85 178 116
-6 15 -8 15 -29 0 -108 -80 -165 -97 -187 -57 -20 39 -12 58 38 86 92 54 113
89 70 119 -37 26 -72 20 -112 -21z m94 -13 c0 -8 -28 -28 -87 -64 -22 -12 -14
11 13 43 25 30 74 44 74 21z"/>
<path d="M8657 7587 c-21 -5 -54 -25 -73 -44 -62 -62 -41 -143 41 -159 47 -9
99 6 103 30 3 16 0 18 -25 11 -71 -20 -130 7 -118 55 9 34 20 45 61 65 34 16
36 16 49 -2 17 -23 40 -5 31 25 -9 27 -23 31 -69 19z"/>
<path d="M5209 7568 c-40 -73 -39 -71 -21 -92 16 -18 16 -19 0 -13 -25 9 -24
-25 0 -46 43 -39 141 4 129 56 -7 29 -30 89 -40 105 -13 20 -55 14 -68 -10z
m56 -58 c8 -16 15 -35 15 -43 0 -16 -47 -40 -61 -32 -21 14 -3 105 21 105 5 0
16 -13 25 -30z"/>
<path d="M5437 7579 c-9 -5 -23 -22 -31 -37 -16 -33 -31 -198 -18 -206 12 -7
29 13 30 34 2 64 17 153 27 167 11 15 17 15 39 5 35 -16 46 -15 46 2 0 15 -42
46 -62 46 -7 0 -21 -5 -31 -11z"/>
<path d="M9757 7572 c-30 -33 -21 -60 28 -90 45 -27 63 -57 51 -87 -7 -20 -34
-19 -80 5 -41 20 -56 19 -56 -5 0 -18 63 -45 107 -47 38 -1 59 13 68 49 10 40
-13 80 -62 108 -36 21 -42 29 -33 40 7 8 22 13 33 12 14 -1 22 4 22 13 0 23
-57 25 -78 2z"/>
<path d="M13929 7529 c-58 -57 -88 -116 -73 -141 9 -15 34 -8 34 10 0 37 80
142 108 142 12 0 13 -11 7 -56 -12 -95 25 -124 114 -88 28 11 39 21 38 35 -1
20 -23 26 -29 8 -2 -5 -23 -13 -47 -16 l-44 -6 5 54 c6 62 -3 93 -32 109 -18
9 -28 3 -81 -51z"/>
<path d="M15762 7577 c-19 -6 -50 -30 -72 -57 -34 -40 -40 -55 -40 -93 0 -37
5 -49 26 -66 15 -12 40 -21 57 -21 43 0 162 37 177 56 24 27 -3 35 -47 13 -23
-11 -67 -23 -99 -26 -47 -5 -59 -3 -70 11 -18 25 -7 46 25 46 68 0 151 43 151
78 0 15 -54 73 -67 71 -4 -1 -23 -6 -41 -12z m58 -43 c20 -23 -8 -45 -64 -51
-51 -6 -58 3 -23 34 38 35 68 41 87 17z"/>
<path d="M7743 7548 c-62 -66 -71 -122 -26 -158 22 -17 35 -20 68 -14 54 9 92
29 100 54 6 20 -17 63 -51 90 -9 8 -20 24 -25 37 -12 31 -30 29 -66 -9z m72
-59 c42 -37 44 -52 10 -67 -38 -17 -82 -15 -94 5 -13 25 16 93 40 93 5 0 24
-14 44 -31z"/>
<path d="M15074 7561 c-38 -23 -64 -58 -64 -86 0 -35 35 -88 71 -107 56 -30
189 -20 219 18 21 25 -3 40 -31 20 -16 -11 -45 -16 -95 -16 -62 0 -75 3 -98
25 -35 32 -35 76 -1 104 31 24 77 35 107 26 l21 -7 -24 -14 c-13 -7 -34 -13
-46 -14 -31 0 -73 -21 -73 -36 0 -18 19 -27 33 -16 7 6 28 13 48 17 46 9 99
40 99 59 0 47 -106 64 -166 27z"/>
<path d="M9103 7536 c-25 -22 -29 -22 -40 -7 -11 14 -14 14 -23 1 -5 -8 -9
-35 -9 -60 0 -25 -4 -59 -9 -77 -8 -24 -7 -35 4 -43 11 -10 15 -7 23 11 41
108 71 159 92 159 21 0 31 -54 18 -98 -9 -33 -9 -46 0 -55 14 -14 28 3 37 44
3 15 20 44 36 64 28 34 32 35 47 20 12 -12 16 -36 16 -108 0 -75 3 -92 15 -92
12 0 16 19 18 96 2 92 1 98 -24 128 -31 38 -40 38 -75 5 l-27 -26 -13 23 c-23
46 -46 50 -86 15z"/>
<path d="M11087 7540 c-52 -41 -86 -95 -93 -148 -6 -44 -4 -52 9 -52 11 0 22
18 33 56 9 31 29 70 45 87 l29 32 -6 -77 c-6 -68 -5 -78 10 -78 9 0 16 4 16 9
0 4 23 33 51 62 28 30 48 48 44 41 -12 -23 6 -90 31 -118 21 -22 31 -25 61
-21 44 7 58 20 49 43 -5 13 -9 15 -18 6 -18 -18 -53 -14 -73 8 -18 20 -17 73
1 138 12 42 -31 25 -84 -33 l-50 -55 1 45 c1 29 -3 50 -14 60 -14 14 -18 14
-42 -5z"/>
<path d="M8890 7539 c0 -6 11 -20 24 -30 38 -30 39 -57 6 -91 -23 -23 -37 -29
-62 -26 -30 3 -33 7 -36 38 -3 29 2 39 29 62 26 22 31 30 21 40 -30 30 -97
-56 -88 -112 12 -75 84 -89 155 -32 48 39 53 86 16 131 -26 30 -65 42 -65 20z"/>
<path d="M9464 7531 c-17 -10 -41 -32 -52 -48 -17 -24 -19 -36 -12 -69 12 -53
50 -84 103 -84 80 0 164 36 141 60 -9 9 -19 8 -42 -4 -77 -40 -167 -25 -160
27 2 17 12 23 43 28 57 7 85 25 85 54 0 25 -33 55 -60 55 -8 0 -29 -9 -46 -19z
m66 -30 c0 -13 -9 -17 -50 -25 l-35 -7 24 21 c24 21 61 27 61 11z"/>
<path d="M10655 7526 c-13 -13 -27 -40 -31 -61 -9 -48 6 -120 26 -120 12 0 14
12 12 62 -5 84 8 107 59 100 38 -5 60 7 43 23 -5 4 -26 10 -47 13 -32 5 -43 2
-62 -17z"/>
<path d="M13765 7530 c-4 -6 -2 -16 4 -23 5 -7 11 -39 13 -72 2 -32 8 -60 14
-62 15 -5 27 123 13 148 -11 21 -34 25 -44 9z"/>
<path d="M10880 7521 c0 -5 -13 -14 -29 -19 -35 -12 -60 -47 -68 -95 -8 -50
25 -82 76 -73 41 6 81 45 81 79 0 35 -33 117 -47 117 -7 0 -13 -4 -13 -9z m6
-59 c39 -26 9 -92 -41 -92 -21 0 -25 5 -25 28 0 49 36 84 66 64z"/>
<path d="M13304 7501 c-78 -47 -87 -131 -14 -131 14 0 40 9 58 20 l32 20 0
-30 c0 -56 56 -85 95 -48 13 12 -12 27 -35 21 -25 -7 -33 25 -21 78 14 57 13
59 -3 59 -8 0 -16 7 -20 15 -8 21 -55 19 -92 -4z m86 -33 c0 -9 -52 -46 -84
-58 -41 -15 -34 22 11 58 30 24 40 28 55 18 10 -6 18 -14 18 -18z"/>
<path d="M6020 7454 c0 -8 5 -12 10 -9 6 4 8 11 5 16 -9 14 -15 11 -15 -7z"/>
<path d="M7409 7308 c0 -2 -2 -19 -4 -38 -9 -73 -15 -107 -30 -156 l-15 -51
-79 -7 c-85 -8 -125 -26 -104 -47 9 -9 16 -9 25 -2 18 15 148 22 148 8 0 -5
-9 -42 -20 -80 -23 -81 -26 -125 -7 -125 9 0 23 39 40 107 15 59 28 108 30
109 1 1 28 5 61 9 l58 8 -26 -39 c-28 -41 -35 -101 -14 -122 19 -19 56 -14
104 14 70 41 80 73 38 123 -22 26 -24 34 -13 47 23 28 -3 36 -66 19 -33 -8
-76 -15 -97 -15 -37 0 -38 1 -32 28 4 15 10 37 15 48 4 12 11 54 15 93 6 62 4
71 -10 71 -9 0 -16 -1 -17 -2z m189 -341 c-4 -26 -89 -72 -100 -54 -10 16 0
46 29 85 l25 33 24 -22 c14 -13 24 -32 22 -42z"/>
<path d="M3374 7198 c4 -13 11 -51 16 -85 9 -58 8 -68 -21 -138 -16 -42 -29
-83 -27 -91 5 -24 22 -21 35 6 19 39 90 113 105 108 9 -3 13 -27 14 -74 2 -96
2 -96 21 -92 15 3 18 16 20 73 3 93 -2 114 -34 126 -19 7 -31 6 -49 -6 -13 -8
-25 -15 -26 -15 -2 0 -1 21 1 46 2 26 -2 73 -9 105 -10 48 -16 59 -33 59 -15
0 -18 -5 -13 -22z"/>
<path d="M4135 7209 c-4 -5 -9 -48 -11 -95 -1 -46 -15 -132 -29 -191 -16 -66
-22 -110 -16 -116 14 -14 28 -1 35 30 3 16 24 48 45 73 l40 45 -6 -53 c-7 -62
12 -92 60 -92 37 0 97 28 97 46 0 17 -5 17 -58 -1 -24 -9 -48 -12 -54 -9 -6 4
-9 29 -6 63 3 31 3 62 1 69 -7 19 -37 14 -68 -10 l-28 -22 7 24 c13 43 19 237
8 244 -6 3 -14 1 -17 -5z"/>
<path d="M3703 7144 c-4 -11 1 -22 12 -30 34 -25 46 -12 25 27 -13 23 -28 25
-37 3z"/>
<path d="M6532 7115 c-45 -38 -49 -75 -17 -140 31 -61 29 -99 -7 -108 -29 -8
-66 16 -74 48 -3 14 -10 22 -15 19 -5 -3 -9 3 -9 12 0 14 -3 15 -12 6 -17 -17
16 -96 48 -111 96 -44 164 41 109 135 -39 66 -30 107 28 127 10 4 17 13 15 20
-8 22 -35 19 -66 -8z"/>
<path d="M8605 7091 c-40 -24 -85 -78 -85 -101 0 -37 38 -48 91 -26 13 6 18 0
23 -27 8 -42 41 -76 58 -59 9 9 7 16 -6 31 -20 22 -18 73 4 127 11 27 11 33
-6 52 -23 27 -40 28 -79 3z m55 -30 c0 -17 -32 -49 -60 -61 -46 -19 -50 -3 -8
35 20 18 34 36 31 39 -3 2 4 2 16 -1 12 -3 21 -8 21 -12z"/>
<path d="M8887 7059 c-23 -34 -30 -39 -43 -28 -9 7 -18 8 -23 3 -8 -9 -40
-131 -44 -168 -4 -40 23 -25 47 27 38 79 104 167 126 167 24 0 36 20 19 31
-29 18 -54 8 -82 -32z"/>
<path d="M9401 7003 c-33 -54 -69 -104 -81 -111 -19 -12 -22 -10 -35 22 -8 20
-15 49 -15 66 0 25 -4 31 -17 28 -38 -8 -5 -144 37 -155 15 -4 11 -19 -40
-119 -65 -128 -90 -208 -71 -227 15 -15 27 2 35 53 10 61 203 424 259 487 19
21 18 53 -2 53 -6 0 -37 -44 -70 -97z"/>
<path d="M3270 7016 c0 -69 -2 -78 -29 -108 l-29 -32 -7 42 c-4 23 -11 45 -17
48 -5 3 -34 -10 -64 -30 l-55 -37 29 58 c38 76 46 109 28 116 -8 3 -20 0 -26
-8 -6 -8 -34 -28 -61 -45 -27 -18 -49 -38 -49 -45 0 -26 21 -27 47 -1 39 40
46 31 18 -24 -28 -55 -33 -100 -11 -100 8 0 38 16 68 35 46 31 53 33 56 18 9
-56 13 -63 36 -63 31 0 93 69 101 113 11 57 1 132 -18 135 -15 3 -17 -7 -17
-72z"/>
<path d="M5714 7071 c-59 -36 -124 -131 -124 -182 0 -28 44 -69 74 -69 73 0
166 36 151 60 -8 13 -44 -1 -39 -15 3 -7 -2 -15 -12 -19 -11 -4 -15 -2 -11 6
3 10 -11 13 -57 13 l-61 0 0 35 c0 24 4 34 14 32 22 -5 77 17 120 49 47 34 54
69 19 93 -29 20 -36 20 -74 -3z m56 -36 c0 -15 -77 -65 -100 -65 -8 0 4 18 25
40 39 40 75 52 75 25z"/>
<path d="M5259 7053 c-14 -18 -23 -23 -26 -15 -3 6 -13 12 -24 12 -16 0 -19
-7 -19 -50 0 -27 -7 -68 -16 -90 -12 -29 -14 -44 -6 -52 15 -15 29 -2 42 40
15 47 79 144 91 136 13 -8 11 -37 -6 -89 -9 -25 -13 -50 -10 -55 9 -15 32 0
45 29 14 34 76 96 83 84 3 -4 1 -32 -4 -60 -14 -77 13 -119 48 -75 8 9 12 11
8 5 -3 -7 -1 -13 4 -13 19 0 12 22 -9 27 -18 5 -19 11 -14 72 5 57 4 69 -14
90 l-19 25 -37 -40 c-30 -32 -36 -36 -36 -19 0 26 -27 65 -45 65 -7 0 -23 -12
-36 -27z"/>
<path d="M8287 7048 c-58 -47 -93 -129 -69 -164 12 -19 49 -34 81 -34 24 0 31
4 31 20 0 11 5 20 10 20 6 0 10 5 10 10 0 19 -29 22 -61 6 -41 -20 -39 -21
-39 9 0 38 25 80 65 110 37 29 51 26 66 -12 11 -30 35 -25 31 8 -4 33 -31 59
-61 59 -14 -1 -43 -15 -64 -32z"/>
<path d="M9105 7050 c-15 -16 -31 -27 -36 -25 -18 11 -39 -8 -33 -30 3 -14 -4
-41 -19 -71 -33 -66 -43 -114 -24 -114 21 0 31 15 67 101 18 44 46 91 65 109
33 32 33 32 44 11 13 -23 41 -29 41 -8 0 24 -31 57 -54 57 -12 0 -35 -13 -51
-30z"/>
<path d="M5965 7026 c-49 -29 -70 -65 -61 -100 8 -31 47 -44 87 -29 25 10 27
8 33 -18 6 -33 31 -48 49 -29 9 10 9 14 0 17 -18 7 -16 59 3 88 19 28 15 70
-6 70 -8 1 -25 6 -37 13 -27 15 -21 16 -68 -12z m63 -28 c16 -16 -1 -44 -39
-63 -56 -29 -71 19 -16 54 38 24 39 25 55 9z"/>
<path d="M6213 7005 l-43 -46 2 33 c2 24 -1 33 -12 33 -8 0 -16 -9 -17 -20 -5
-41 -23 -116 -33 -135 -6 -11 -8 -25 -5 -30 12 -19 31 -10 47 23 9 17 37 58
62 90 49 60 80 73 91 36 7 -22 -14 -109 -27 -109 -4 0 -8 -7 -8 -15 0 -10 10
-15 30 -15 24 0 30 4 30 23 0 12 2 47 6 78 5 49 4 59 -15 78 -32 32 -60 26
-108 -24z"/>
<path d="M3637 7013 c-2 -4 -10 -45 -18 -91 -10 -63 -10 -85 -1 -94 26 -26 36
5 45 151 2 31 -15 53 -26 34z"/>
<path d="M3805 6976 c-16 -7 -38 -23 -49 -34 -37 -42 3 -121 70 -138 30 -8
130 14 144 31 20 24 2 34 -37 19 -80 -28 -153 -9 -153 41 0 25 33 55 61 55 10
0 20 6 22 13 4 9 8 8 16 -3 5 -8 14 -11 18 -6 10 9 -25 36 -46 36 -9 -1 -29
-7 -46 -14z"/>
<path d="M9503 6909 c-20 -20 -15 -46 9 -52 40 -11 49 8 21 42 -15 18 -20 20
-30 10z"/>
<path d="M2505 6880 c-9 -15 4 -31 23 -28 25 4 26 -31 3 -93 -27 -71 -75 -129
-104 -126 -28 3 -31 -36 -4 -41 47 -9 132 101 156 202 10 41 9 52 -4 72 -16
25 -58 33 -70 14z"/>
<path d="M9114 6378 c-4 -7 0 -16 11 -22 40 -24 76 -59 68 -67 -5 -5 -44 -4
-89 1 -132 18 -242 -5 -199 -40 12 -10 19 -10 27 -2 13 13 101 16 197 6 l61
-7 -56 -59 c-52 -54 -55 -61 -41 -75 13 -13 19 -14 31 -3 9 7 16 18 16 25 0 8
26 37 58 67 75 68 81 85 45 115 -39 33 -101 73 -112 73 -5 0 -13 -5 -17 -12z"/>
<path d="M14878 6362 c-42 -28 -124 -126 -164 -198 -70 -125 -105 -274 -90
-377 15 -96 142 -228 222 -231 43 -1 48 16 9 29 -41 14 -105 54 -134 85 -58
62 -76 136 -60 240 20 133 92 277 187 377 43 45 57 54 77 49 28 -7 42 9 25 29
-16 20 -39 19 -72 -3z"/>
<path d="M13925 6303 c-8 -42 -44 -161 -66 -224 l-20 -56 -67 -18 c-92 -23
-92 -23 -92 -34 0 -19 17 -20 76 -6 32 7 60 13 61 11 1 -1 -13 -47 -33 -101
-35 -102 -39 -160 -9 -135 8 7 15 20 15 29 0 26 70 215 83 223 7 4 27 8 45 8
22 0 32 5 32 15 0 11 -11 15 -36 15 -30 0 -35 3 -29 18 4 9 22 64 41 122 37
116 42 160 19 160 -8 0 -17 -12 -20 -27z"/>
<path d="M16110 6305 c-14 -17 -5 -35 19 -35 29 0 54 -66 59 -157 5 -89 -16
-180 -65 -278 -54 -108 -145 -201 -190 -193 -10 2 -19 -4 -21 -14 -3 -17 12
-23 47 -18 32 4 96 58 135 114 87 124 130 248 130 377 0 72 -4 94 -27 141 -30
60 -67 87 -87 63z"/>
<path d="M7676 6293 c-3 -4 -6 -17 -6 -30 0 -20 -58 -232 -66 -242 -2 -2 -29
-6 -61 -10 -42 -4 -58 -10 -58 -21 0 -12 11 -14 54 -12 51 3 53 2 47 -20 -3
-13 -15 -54 -25 -93 -11 -38 -17 -73 -15 -77 12 -19 32 -6 38 25 3 17 16 65
28 105 l21 72 52 0 c28 0 54 -3 57 -6 3 -3 -9 -29 -28 -57 -64 -96 -39 -164
50 -137 76 23 114 64 107 115 -6 39 -44 96 -63 92 -9 -3 -26 2 -37 10 -11 7
-43 17 -71 20 -27 3 -50 11 -50 17 0 6 11 47 25 91 34 109 39 151 21 158 -8 3
-17 3 -20 0z m150 -364 c19 -38 11 -63 -30 -89 -36 -22 -71 -26 -81 -10 -8 13
28 88 56 118 23 26 33 22 55 -19z"/>
<path d="M10160 6213 c-12 -49 -28 -108 -36 -133 l-14 -46 -93 -12 c-92 -13
-132 -31 -111 -52 7 -7 24 -6 53 5 40 14 131 21 131 10 0 -2 -11 -39 -26 -81
-27 -82 -29 -149 -4 -149 10 0 14 8 12 24 -3 26 6 59 40 154 22 63 20 62 91
41 12 -4 17 0 17 14 0 16 -9 22 -40 27 -22 4 -38 11 -35 15 3 5 19 60 36 122
17 62 33 121 36 131 4 12 0 17 -14 17 -17 0 -24 -15 -43 -87z"/>
<path d="M11845 6288 c-22 -72 -25 -89 -19 -99 4 -7 3 -9 -4 -5 -6 3 -14 -6
-19 -21 -8 -23 -22 -31 -88 -54 -44 -14 -81 -31 -82 -36 -7 -20 24 -21 81 -1
31 11 59 18 61 16 4 -4 -6 -43 -51 -205 -10 -37 -18 -51 -28 -47 -21 8 -28
-11 -15 -40 14 -30 34 -34 48 -8 5 10 28 86 51 168 24 91 47 153 56 159 9 6
32 20 51 33 l35 23 -5 -33 c-7 -42 -25 -101 -67 -210 -30 -80 -34 -118 -11
-118 5 0 30 36 56 80 26 44 52 83 58 87 11 7 64 -49 103 -109 33 -52 61 -75
99 -82 46 -9 115 3 115 20 0 8 5 14 11 14 5 0 7 -6 3 -12 -5 -9 -2 -8 10 1 24
20 3 40 -24 23 -25 -15 -104 -16 -133 0 -22 11 -46 37 -47 49 0 3 22 20 49 37
60 37 74 59 58 93 -26 52 -108 21 -132 -50 l-10 -31 -35 45 c-44 55 -57 61
-86 34 l-22 -21 24 84 c25 88 31 163 14 173 -6 4 -31 -15 -55 -41 -25 -26 -47
-45 -50 -43 -2 3 4 28 15 57 19 49 18 82 -1 82 -5 0 -11 -6 -14 -12z m325
-296 c0 -11 -28 -36 -57 -51 -20 -10 -22 -9 -16 6 10 29 35 53 55 53 10 0 18
-4 18 -8z"/>
<path d="M15268 6259 c-13 -17 -22 -35 -20 -40 1 -5 -4 -9 -11 -9 -7 0 -21
-13 -30 -30 -12 -19 -26 -29 -40 -29 -72 2 -176 -51 -203 -103 -22 -42 -14
-121 15 -152 l21 -23 -45 -69 c-47 -70 -54 -106 -22 -112 12 -3 17 3 17 20 0
13 18 51 41 86 40 61 41 62 87 62 56 0 104 26 132 72 23 39 25 76 6 138 l-14
45 55 75 c30 41 58 74 61 73 4 -2 7 3 7 9 0 26 -34 18 -57 -13z m-173 -248
c-37 -56 -71 -101 -75 -101 -29 0 -47 78 -26 118 22 42 79 76 117 68 21 -4 31
-1 36 10 3 8 8 13 10 10 3 -3 -25 -50 -62 -105z m105 -9 c1 -33 -33 -80 -69
-97 -74 -33 -76 -18 -13 77 l57 87 12 -27 c7 -15 12 -33 13 -40z"/>
<path d="M15886 6227 c-41 -57 -48 -63 -74 -59 -39 5 -85 -20 -142 -77 -72
-72 -90 -161 -40 -206 19 -17 19 -18 -11 -61 -37 -54 -62 -112 -54 -124 12
-19 33 -9 38 18 3 15 22 52 43 83 35 54 38 57 73 52 53 -6 121 31 145 81 25
51 32 124 16 171 -11 35 -10 39 21 83 18 26 40 52 48 58 15 12 9 44 -8 44 -6
0 -30 -28 -55 -63z m-99 -115 c7 -5 -8 -37 -48 -102 -32 -52 -60 -99 -62 -105
-8 -22 -37 19 -37 52 0 46 21 84 72 127 43 37 54 41 75 28z m58 -130 c-18 -59
-57 -92 -108 -92 l-28 0 27 48 c15 26 46 74 68 107 l40 60 9 -35 c7 -26 5 -49
-8 -88z"/>
<path d="M4126 6138 c-26 -166 -74 -261 -156 -307 l-40 -22 0 21 c0 29 27 91
52 117 17 18 24 20 35 11 18 -14 36 2 27 25 -10 27 -57 21 -87 -11 -28 -29
-67 -117 -67 -151 0 -10 8 -25 18 -34 16 -15 21 -14 57 2 101 45 165 155 194
331 20 118 19 130 -3 130 -9 0 -19 -37 -30 -112z"/>
<path d="M3649 6236 c-3 -3 -20 -8 -39 -11 -19 -3 -62 -14 -95 -25 -33 -10
-82 -22 -110 -26 -61 -8 -66 -11 -59 -29 8 -19 57 -13 194 27 136 38 138 39
122 45 -6 3 -10 9 -6 14 5 9 1 12 -7 5z"/>
<path d="M10585 6227 c-2 -6 -6 -41 -10 -76 -3 -35 -24 -131 -46 -213 -41
-157 -46 -188 -29 -188 6 0 13 -1 18 -2 4 -2 8 8 8 22 2 47 23 105 42 117 16
10 21 7 38 -20 10 -18 24 -47 29 -66 10 -35 38 -61 51 -48 4 4 2 17 -4 30 -6
12 -14 33 -18 47 -4 14 -18 41 -31 61 -13 20 -21 42 -18 50 3 8 50 55 105 103
60 53 100 96 100 107 0 28 -13 23 -57 -18 -21 -21 -71 -69 -111 -107 -40 -38
-74 -67 -77 -65 -2 3 4 36 14 74 10 39 21 98 25 131 6 51 4 63 -9 68 -9 3 -17
0 -20 -7z"/>
<path d="M17518 6213 c-14 -15 -37 -50 -50 -77 -24 -47 -26 -48 -71 -50 -58
-2 -95 -28 -124 -86 -25 -48 -30 -119 -11 -138 18 -18 39 -15 93 13 l49 24 23
-21 c14 -13 40 -23 70 -25 42 -4 51 -2 72 21 22 23 22 26 7 32 -10 4 -22 2
-29 -5 -16 -16 -82 -14 -97 4 -14 17 -8 35 35 93 26 36 84 177 88 214 3 33
-24 33 -55 1z m-28 -133 c-18 -38 -35 -69 -36 -67 -2 2 10 36 28 75 17 39 34
70 36 67 2 -2 -11 -36 -28 -75z m-82 -29 c8 -5 11 -18 8 -34 -3 -15 -8 -38
-11 -52 -5 -25 -77 -75 -108 -75 -41 0 2 118 55 150 37 23 38 23 56 11z"/>
<path d="M5821 6188 c-5 -13 -16 -57 -25 -98 -9 -41 -24 -105 -34 -142 -12
-50 -13 -71 -5 -79 15 -15 33 -3 33 22 0 11 7 34 16 50 l15 30 34 -25 c18 -14
38 -26 44 -26 6 0 11 -14 11 -30 0 -44 24 -85 57 -98 50 -20 128 -29 151 -19
37 17 19 31 -43 34 -73 3 -109 17 -124 49 -19 44 -14 64 17 64 34 0 86 31 108
65 16 24 16 27 -1 45 -11 12 -31 20 -51 20 -26 0 -39 -9 -71 -46 -44 -52 -56
-53 -108 -7 l-29 26 21 80 c21 77 21 107 2 107 -5 0 -13 -10 -18 -22z m223
-177 c7 -11 -22 -37 -57 -50 -31 -12 -30 -4 6 37 21 23 42 28 51 13z"/>
<path d="M4812 6188 c-5 -7 -17 -39 -26 -70 -25 -86 -186 -316 -186 -265 0 39
53 109 75 101 19 -8 26 24 7 35 -37 21 -112 -67 -112 -131 0 -82 50 -69 123
32 l43 59 -4 -57 c-5 -72 18 -109 62 -98 31 8 56 50 39 67 -8 8 -14 5 -22 -10
-7 -12 -18 -21 -25 -21 -36 0 -25 89 29 250 19 57 32 107 29 111 -7 13 -20 11
-32 -3z"/>
<path d="M5636 6158 c-2 -13 -10 -50 -17 -82 -15 -65 -13 -64 -112 -81 -29 -5
-37 -10 -35 -23 4 -17 11 -18 82 -6 l38 7 -7 -34 c-4 -19 -16 -61 -26 -93 -11
-33 -17 -68 -13 -78 7 -23 34 -24 34 0 0 9 12 63 26 120 24 92 29 102 50 102
32 0 75 21 71 34 -4 12 -21 12 -61 2 l-25 -6 19 67 c10 36 16 72 13 80 -8 21
-32 15 -37 -9z"/>
<path d="M13425 6158 c-7 -18 9 -74 21 -70 14 3 11 75 -3 79 -7 3 -15 -1 -18
-9z"/>
<path d="M3586 6148 c-2 -7 -27 -85 -54 -173 -28 -88 -53 -170 -56 -182 -7
-23 -44 -30 -196 -35 -50 -2 -65 -6 -65 -18 0 -12 15 -15 75 -15 68 1 215 11
215 15 0 8 117 24 124 17 12 -12 58 22 65 48 7 28 72 89 86 80 7 -4 9 -22 4
-50 -8 -53 3 -105 22 -105 21 0 20 163 -2 184 -23 24 -42 20 -77 -15 -17 -18
-40 -32 -51 -33 -14 -1 -23 -11 -29 -32 -8 -28 -14 -31 -70 -41 -34 -6 -63 -9
-65 -8 -1 1 22 80 53 176 30 96 55 179 55 186 0 17 -29 17 -34 1z"/>
<path d="M7077 6069 c-14 -19 -23 -21 -87 -18 l-73 4 -25 -104 c-20 -87 -27
-102 -37 -88 -13 19 -29 67 -47 151 -13 60 -32 82 -44 51 -4 -9 -2 -26 4 -38
6 -12 13 -42 17 -67 6 -46 40 -128 68 -165 23 -30 34 -12 65 111 l27 109 72 1
c92 2 105 7 100 41 -5 35 -21 40 -40 12z"/>
<path d="M8084 6077 c-59 -35 -97 -75 -133 -143 -45 -83 -55 -126 -30 -132 11
-2 19 9 27 35 40 126 127 219 202 216 28 -1 40 2 40 11 0 27 -68 35 -106 13z"/>
<path d="M2976 6049 c-32 -37 -32 -42 -4 -74 25 -29 41 -21 58 30 8 25 8 40 0
55 -15 27 -24 25 -54 -11z"/>
<path d="M12925 6048 c-58 -50 -91 -107 -124 -214 -29 -94 -54 -230 -44 -246
2 -5 10 -8 18 -8 13 0 22 24 69 191 15 52 18 56 41 51 33 -6 85 30 120 83 44
67 45 115 5 155 -27 27 -43 25 -85 -12z m69 -24 c17 -46 -20 -126 -73 -157
-31 -18 -35 -17 -31 16 1 10 -4 25 -11 33 -13 15 -9 22 55 92 33 35 51 40 60
16z"/>
<path d="M9251 6046 c-16 -19 -98 -31 -115 -17 -23 19 -36 -12 -46 -103 -14
-139 -36 -152 -47 -29 -5 69 -26 119 -44 107 -18 -11 22 -224 47 -245 32 -26
68 48 79 161 5 58 8 65 28 66 71 4 127 11 132 16 8 8 -5 58 -15 58 -4 0 -13
-6 -19 -14z"/>
<path d="M7373 6026 c4 -10 1 -13 -9 -9 -18 7 -47 -18 -75 -63 -57 -93 -39
-136 58 -138 40 -1 66 4 78 14 10 8 24 15 31 15 8 0 14 5 13 10 0 6 -10 9 -22
7 -66 -10 -134 -11 -146 -3 -34 22 56 150 97 137 25 -8 38 10 22 29 -17 20
-54 20 -47 1z"/>
<path d="M13125 5999 c-57 -50 -73 -146 -30 -175 18 -12 27 -11 64 8 48 24 69
51 77 100 5 27 1 40 -21 66 -33 40 -45 40 -90 1z m75 -55 c0 -36 -10 -52 -46
-75 -41 -25 -58 -17 -50 24 10 50 31 74 65 74 25 0 31 -4 31 -23z"/>
<path d="M4430 5994 c-55 -46 -89 -138 -71 -187 14 -35 53 -45 97 -24 39 19
49 54 12 42 -13 -4 -35 -9 -50 -12 -26 -5 -28 -3 -28 30 0 36 5 44 56 88 43
37 55 55 48 73 -9 23 -28 20 -64 -10z"/>
<path d="M10269 6005 c-49 -27 -88 -157 -55 -184 13 -11 38 -4 99 27 4 2 7 -7
7 -21 0 -22 29 -48 31 -29 0 4 2 27 4 52 1 25 10 61 19 79 18 33 16 61 -4 61
-6 0 -20 -20 -31 -45 -12 -27 -34 -55 -57 -70 -59 -41 -65 -33 -31 46 17 39
28 51 53 57 35 9 42 36 11 39 -11 2 -32 -4 -46 -12z"/>
<path d="M17094 5998 c-16 -13 -37 -32 -46 -43 -16 -20 -16 -20 -15 0 3 33
-25 23 -55 -20 -29 -42 -35 -70 -18 -80 10 -6 120 73 120 86 0 4 11 14 25 23
l25 16 -17 -42 c-9 -24 -20 -48 -25 -55 -10 -12 6 -53 20 -53 12 0 44 101 46
145 1 49 -17 56 -60 23z"/>
<path d="M7076 5990 c-36 -23 -65 -74 -66 -113 0 -39 25 -83 52 -91 66 -17
168 1 168 31 0 16 -12 16 -60 2 -58 -18 -106 -5 -119 31 -10 29 -8 31 27 46
69 28 99 73 70 102 -17 17 -39 15 -72 -8z m25 -41 c-13 -11 -26 -17 -29 -14
-7 6 29 34 43 34 6 0 -1 -9 -14 -20z"/>
<path d="M10800 6003 c-41 -15 -100 -98 -100 -140 0 -10 7 -29 16 -42 16 -22
22 -23 85 -18 37 3 77 11 89 17 23 12 22 37 -1 32 -55 -13 -123 -22 -135 -18
-25 10 -15 23 29 36 76 22 97 38 97 70 0 48 -39 78 -80 63z m39 -47 c10 -12 8
-18 -11 -30 -13 -8 -36 -18 -52 -22 -32 -8 -31 2 7 44 24 26 40 28 56 8z"/>
<path d="M4184 5965 c-73 -88 -74 -90 -63 -128 12 -46 38 -60 93 -52 54 8 71
19 63 39 -6 15 -10 15 -34 3 -39 -18 -83 -11 -83 14 0 22 24 48 69 75 36 21
48 49 31 69 -20 24 -46 17 -76 -20z"/>
<path d="M11057 5964 c-20 -20 -37 -43 -37 -52 0 -9 14 -30 31 -48 34 -35 33
-66 -2 -84 -15 -9 -21 -7 -25 5 -4 8 -14 20 -24 25 -15 8 -18 6 -16 -15 8 -70
87 -74 119 -7 17 36 11 64 -19 93 -13 12 -24 27 -24 32 0 13 40 63 48 60 4 -2
7 2 7 9 0 24 -22 17 -58 -18z"/>
<path d="M16784 5986 c-37 -17 -83 -73 -86 -107 -3 -21 1 -24 30 -22 18 0 55
12 82 25 l48 24 -6 -36 c-10 -59 -8 -85 7 -85 10 0 20 27 32 90 23 116 23 115
-3 114 -13 0 -34 2 -48 5 -14 3 -39 0 -56 -8z m60 -39 c-6 -16 -67 -47 -92
-47 -13 1 -9 8 16 30 33 31 86 42 76 17z"/>
<path d="M13343 5982 c-11 -7 -43 -93 -43 -117 0 -7 -5 -17 -12 -21 -8 -5 -9
-2 -5 9 9 24 -10 31 -22 8 -18 -32 -13 -46 20 -58 38 -15 49 -10 49 22 0 13 8
50 19 83 18 59 16 88 -6 74z"/>
<path d="M13496 5960 c-35 -31 -83 -116 -73 -127 12 -12 38 8 52 39 15 37 61
85 72 75 3 -4 -2 -33 -11 -65 -20 -65 -18 -107 4 -107 10 0 14 8 12 22 -2 12
4 38 13 58 27 66 16 135 -22 135 -7 0 -28 -14 -47 -30z"/>
<path d="M15377 5914 c-4 -4 -7 -18 -7 -30 0 -41 -47 -132 -94 -182 -25 -27
-46 -54 -46 -61 0 -46 108 60 147 146 27 59 36 123 17 130 -5 2 -13 0 -17 -3z"/>
<path d="M9483 5758 c-4 -7 -15 -44 -25 -81 -29 -114 -35 -121 -98 -127 -40
-4 -55 -9 -55 -20 0 -11 12 -15 50 -14 l51 1 -18 -53 c-25 -73 -27 -144 -5
-178 19 -28 45 -34 65 -14 22 22 14 41 -13 34 -20 -5 -26 -2 -31 19 -7 30 1
82 24 148 l17 47 55 0 c61 0 103 20 84 40 -8 8 -19 8 -38 0 -32 -12 -86 -13
-86 -2 0 4 11 42 25 85 14 43 25 86 25 97 0 24 -16 34 -27 18z"/>
<path d="M5075 5728 c-7 -18 -26 -64 -40 -103 -35 -96 -68 -169 -79 -176 -5
-4 -30 -10 -57 -13 -49 -7 -69 -20 -52 -37 6 -6 25 -6 51 0 25 5 42 5 42 0 0
-5 -10 -35 -23 -67 -26 -63 -25 -82 4 -82 13 0 19 7 19 23 0 12 10 49 23 82
22 57 24 59 72 72 28 7 64 13 81 13 36 0 70 22 60 39 -4 6 -10 9 -14 7 -4 -2
-25 -7 -47 -10 -22 -4 -55 -9 -72 -12 -18 -4 -33 -4 -33 -1 0 3 18 50 40 106
22 55 40 105 40 110 0 5 10 15 21 23 19 12 20 17 10 36 -16 30 -29 28 -46 -10z"/>
<path d="M5930 5667 c-25 -34 -64 -94 -88 -134 -33 -57 -48 -73 -65 -73 -30 0
-62 -24 -53 -39 4 -6 18 -8 32 -5 28 7 28 6 10 -43 -31 -83 -27 -135 11 -147
27 -9 187 47 191 67 2 8 -6 18 -18 22 -11 4 -19 14 -18 22 5 25 -19 27 -32 3
-8 -15 -8 -25 -1 -34 8 -10 -2 -16 -43 -29 -29 -9 -58 -17 -64 -17 -17 0 -13
46 7 105 l18 50 69 1 c106 1 114 3 114 19 0 11 -13 15 -57 16 -32 1 -68 4 -80
7 -21 7 -21 9 23 82 25 41 63 92 85 112 31 28 39 42 34 58 -10 32 -27 23 -75
-43z"/>
<path d="M12855 5680 c-3 -6 -3 -20 1 -32 6 -21 7 -21 20 -3 13 18 15 18 40
-6 31 -27 87 -142 104 -211 27 -104 -54 -230 -214 -333 -42 -27 -76 -52 -76
-56 0 -19 23 -18 72 5 61 27 201 167 234 232 31 64 26 162 -14 255 -42 98 -93
159 -132 159 -16 0 -32 -5 -35 -10z"/>
<path d="M7123 5653 c-7 -3 -13 -13 -13 -23 0 -27 -30 -88 -46 -94 -8 -3 -53
-10 -101 -17 -93 -12 -114 -22 -96 -40 8 -8 34 -8 96 3 l85 14 -33 -66 c-47
-95 -58 -126 -50 -149 7 -23 24 -28 29 -8 18 69 46 138 72 180 29 45 38 52 94
69 34 11 64 17 66 15 2 -2 -14 -42 -36 -89 -38 -82 -49 -131 -32 -142 11 -7
24 4 52 45 l24 37 28 -21 c17 -12 42 -21 62 -20 30 1 35 -2 40 -30 10 -49 31
-72 76 -86 45 -13 116 -3 173 26 26 13 38 43 17 43 -5 0 -10 -4 -10 -9 0 -5
-6 -8 -12 -7 -7 0 -37 -5 -66 -13 -89 -22 -142 -1 -142 58 0 17 6 21 36 21 66
0 121 85 78 120 -21 19 -99 -20 -122 -60 -23 -40 -80 -42 -119 -4 -15 15 -33
24 -44 21 -14 -4 -10 10 22 70 25 46 39 85 37 101 -4 33 -34 41 -43 12 -6 -19
-49 -43 -103 -57 -24 -6 -24 -5 -8 25 25 49 20 86 -11 75z m367 -233 c-9 -17
-47 -40 -66 -40 -15 0 1 23 29 40 41 25 50 25 37 0z"/>
<path d="M10653 5621 c-59 -44 -79 -70 -127 -166 -49 -101 -90 -221 -106 -318
-20 -112 13 -182 105 -222 71 -32 155 -37 155 -10 0 11 -11 15 -42 15 -60 0
-143 41 -168 82 -28 47 -25 112 10 236 65 224 170 383 243 368 25 -5 28 -3 25
16 -5 34 -48 33 -95 -1z"/>
<path d="M3461 5626 c-17 -20 -10 -81 9 -81 10 0 14 8 12 23 -2 12 2 22 7 22
16 0 14 25 -3 39 -10 9 -16 8 -25 -3z"/>
<path d="M4780 5615 c0 -28 25 -44 42 -27 7 7 6 17 -1 31 -16 30 -41 27 -41
-4z"/>
<path d="M8968 5602 c-19 -4 -23 -19 -9 -40 12 -20 46 -10 49 14 3 23 -12 33
-40 26z"/>
<path d="M8460 5515 c-75 -43 -107 -97 -135 -225 -9 -41 -26 -103 -38 -137
-17 -49 -19 -65 -9 -75 19 -19 23 -11 103 181 8 19 12 21 24 11 48 -40 185
109 185 201 0 24 -31 57 -60 64 -17 3 -40 -3 -70 -20z m88 -47 c4 -34 -19 -83
-59 -125 -33 -36 -49 -42 -49 -18 0 8 -7 15 -15 15 -8 0 -15 -5 -15 -12 0 -6
-2 -9 -5 -6 -13 12 17 96 35 101 13 3 17 11 13 25 -4 15 3 24 24 36 41 23 67
17 71 -16z"/>
<path d="M12134 5498 c-5 -7 -9 -53 -9 -103 0 -127 -11 -136 -47 -39 -16 43
-30 86 -30 94 -2 37 -48 57 -48 20 0 -11 9 -39 19 -62 11 -24 30 -72 43 -108
28 -77 48 -86 78 -38 15 26 20 50 20 111 l0 77 89 0 c66 0 92 4 101 15 16 19
8 22 -99 30 -46 4 -89 9 -96 11 -7 3 -17 -1 -21 -8z"/>
<path d="M3282 5482 c-34 -34 -85 -115 -104 -165 -17 -44 -17 -52 -5 -65 18
-17 41 -6 33 15 -8 19 22 85 66 146 30 41 37 46 48 32 14 -16 30 -11 30 10 0
15 -27 45 -41 45 -5 0 -17 -8 -27 -18z"/>
<path d="M3810 5482 c-34 -28 -29 -67 14 -111 36 -37 47 -70 24 -72 -7 -1 -26
0 -41 1 -30 2 -60 -17 -51 -31 3 -5 29 -9 58 -9 94 0 113 61 41 130 -48 46
-45 71 9 74 12 1 21 8 21 16 0 22 -48 24 -75 2z"/>
<path d="M8674 5484 c-4 -11 -15 -37 -25 -60 -22 -47 -25 -103 -6 -129 31 -41
124 24 147 103 11 35 11 45 -4 67 -11 17 -25 25 -45 25 -16 0 -36 3 -45 6 -10
4 -18 -1 -22 -12z m86 -56 c0 -51 -68 -124 -93 -99 -7 7 -7 22 2 51 9 30 20
44 44 54 44 20 47 19 47 -6z"/>
<path d="M11032 5492 c-7 -5 -19 -53 -27 -107 -8 -54 -17 -100 -19 -103 -11
-10 -52 85 -72 166 -6 21 -34 14 -34 -9 0 -27 47 -146 72 -181 41 -58 68 -21
88 119 l12 82 53 6 c32 4 61 3 73 -4 25 -14 40 3 22 24 -14 16 -145 21 -168 7z"/>
<path d="M9091 5462 c-77 -52 -145 -166 -111 -187 9 -5 42 40 80 108 8 15 29
37 46 48 l31 19 -24 -82 c-24 -84 -24 -128 1 -128 9 0 15 19 20 56 3 30 13 71
21 91 18 43 19 75 3 91 -16 16 -19 16 -67 -16z"/>
<path d="M3130 5467 c-59 -32 -101 -85 -117 -148 -10 -41 -12 -64 -5 -71 16
-16 29 -2 36 39 10 51 63 128 104 150 35 18 44 36 20 41 -7 1 -24 -4 -38 -11z"/>
<path d="M3525 5461 c-16 -10 -38 -27 -48 -38 -24 -27 -39 -83 -27 -98 5 -7 7
-14 4 -18 -3 -3 5 -12 18 -20 32 -20 111 -21 148 -2 42 22 39 39 -5 31 -19 -3
-50 -9 -67 -12 -22 -3 -40 0 -53 10 -29 22 -9 48 51 65 27 7 55 18 62 23 19
16 14 56 -7 68 -27 14 -42 13 -76 -9z m55 -30 c0 -5 -10 -11 -22 -15 -36 -9
-41 -7 -28 9 13 16 50 21 50 6z"/>
<path d="M4742 5458 c-37 -47 -94 -189 -82 -208 9 -15 30 -5 30 15 0 7 20 53
44 101 25 49 42 92 40 96 -7 12 -20 10 -32 -4z"/>
<path d="M2569 5436 c-45 -31 -88 -87 -95 -126 -7 -34 12 -62 58 -86 41 -21
156 -15 142 7 -3 5 2 9 10 9 9 0 16 4 16 9 0 6 -32 7 -75 4 -64 -5 -78 -3 -95
12 -29 26 -25 56 15 103 43 50 70 60 96 36 15 -13 22 -15 31 -6 9 9 6 18 -12
37 -29 31 -46 31 -91 1z"/>
<path d="M3360 5408 c-29 -63 -25 -138 6 -138 10 0 14 14 14 53 0 28 7 65 15
81 15 28 13 46 -6 46 -6 0 -19 -19 -29 -42z"/>
<path d="M6130 5438 c-37 -20 -82 -90 -87 -139 -7 -60 18 -84 80 -77 91 10
167 66 167 121 0 40 -45 97 -77 97 -10 0 -27 3 -38 5 -11 3 -31 0 -45 -7z
m105 -54 c31 -33 31 -47 4 -73 -47 -44 -147 -68 -164 -40 -11 16 24 99 39 93
6 -2 23 7 36 21 30 32 55 32 85 -1z"/>
<path d="M8906 5428 c-23 -73 -46 -159 -46 -172 0 -9 6 -16 14 -16 14 0 52
106 58 164 3 29 -18 49 -26 24z"/>
<path d="M12514 5408 c-9 -18 -32 -59 -51 -90 -37 -62 -53 -66 -73 -17 -18 42
-49 79 -66 79 -11 0 -14 -10 -12 -37 2 -26 8 -38 18 -38 8 0 23 -16 34 -35 10
-19 24 -38 30 -42 7 -5 -6 -42 -42 -113 -53 -107 -65 -155 -37 -155 8 0 15 6
15 14 0 7 32 76 70 152 70 139 88 170 142 252 15 24 26 48 23 53 -12 19 -35 8
-51 -23z"/>
<path d="M2822 5410 c-90 -55 -65 -175 26 -129 15 7 30 15 35 17 4 2 7 -3 7
-11 0 -23 29 -42 42 -29 8 8 8 15 -2 27 -8 9 -10 28 -7 50 8 49 -10 54 -49 11
-34 -37 -74 -48 -74 -21 0 9 11 27 25 41 21 21 28 24 41 13 17 -14 41 2 30 20
-17 26 -42 30 -74 11z"/>
<path d="M11303 5378 c-11 -13 -26 -33 -32 -46 l-12 -23 -30 26 c-41 34 -61
33 -57 -2 2 -18 9 -28 20 -28 10 0 23 -6 30 -13 16 -16 -15 -59 -62 -86 -26
-16 -36 -17 -51 -7 -16 9 -21 9 -25 -3 -20 -52 91 -45 135 8 16 20 31 21 31 3
0 -43 83 -63 115 -27 23 26 12 37 -24 23 -18 -6 -35 -7 -45 -1 -35 19 -10 111
41 154 25 21 24 44 -1 44 -7 0 -22 -10 -33 -22z"/>
<path d="M11547 5284 c-4 -4 -7 -25 -7 -46 0 -49 -22 -103 -49 -120 -23 -14
-28 -48 -7 -48 41 0 101 114 94 181 -3 32 -17 46 -31 33z"/>
<path d="M14623 4768 c-6 -7 -14 -31 -17 -53 -16 -89 -70 -294 -93 -353 -19
-49 -22 -67 -13 -75 9 -9 14 -8 24 6 12 15 16 16 40 3 37 -19 62 -10 107 37
41 41 63 96 57 137 -3 22 -8 25 -39 24 -23 -1 -50 -11 -73 -29 l-37 -28 6 29
c4 16 15 63 24 104 42 174 44 191 34 201 -7 7 -13 6 -20 -3z m67 -337 c-24
-85 -120 -149 -120 -80 0 27 82 109 109 109 17 0 18 -4 11 -29z"/>
<path d="M12121 4741 c-6 -11 -8 -27 -5 -35 4 -9 -13 -49 -39 -93 -25 -43 -48
-88 -52 -100 -5 -17 -14 -23 -34 -23 -55 0 -92 -12 -89 -29 2 -12 14 -15 49
-13 l46 3 -19 -73 c-11 -44 -16 -87 -13 -107 8 -41 55 -91 86 -91 35 0 106 38
112 60 8 31 -11 34 -44 6 -17 -15 -43 -26 -59 -26 -59 0 -75 72 -42 180 17 53
19 55 57 60 29 4 41 10 43 24 3 16 -1 18 -27 14 -28 -4 -31 -2 -25 16 3 12 26
56 51 98 33 57 44 86 41 109 -4 38 -22 48 -37 20z"/>
<path d="M15933 4688 c-7 -24 -15 -61 -18 -83 -4 -22 -11 -47 -16 -57 -12 -21
-98 -48 -156 -48 -44 0 -67 -20 -47 -40 8 -8 108 7 171 26 21 6 20 2 -19 -146
-28 -109 -37 -155 -29 -163 18 -18 26 1 56 123 50 206 50 206 100 236 25 14
59 42 76 63 l30 36 -7 -30 c-3 -16 -22 -75 -41 -130 -46 -129 -51 -165 -27
-165 10 0 38 19 62 43 33 31 46 38 50 28 9 -26 50 -61 71 -61 12 0 26 -13 38
-37 10 -21 32 -45 49 -55 29 -17 34 -17 100 0 58 14 70 21 72 40 3 20 0 22
-30 18 -18 -3 -55 -10 -83 -16 -46 -10 -51 -10 -67 11 -10 11 -18 25 -18 29 0
5 25 22 55 39 60 34 75 54 75 101 0 38 -19 47 -70 31 -43 -13 -77 -52 -86
-100 -4 -17 -10 -31 -14 -31 -24 0 -43 16 -61 51 -23 47 -42 49 -76 9 -14 -17
-27 -29 -30 -27 -2 2 9 40 25 83 16 43 35 109 42 146 20 110 -4 130 -57 49
-31 -47 -98 -109 -108 -99 -3 3 4 40 15 83 24 94 24 85 2 85 -12 0 -21 -13
-29 -42z m409 -265 c-10 -18 -99 -74 -91 -57 3 5 11 22 19 38 15 29 72 63 78
46 2 -5 -1 -17 -6 -27z"/>
<path d="M3495 4714 c-58 -5 -347 -45 -364 -50 -12 -4 -12 -7 2 -21 14 -14 23
-15 64 -6 26 6 113 19 193 28 184 21 192 23 187 38 -4 13 -22 16 -82 11z"/>
<path d="M4546 4691 c-4 -5 -2 -19 2 -32 16 -41 -25 -196 -80 -305 -29 -58
-32 -94 -9 -94 6 0 20 22 31 49 24 55 95 130 109 116 11 -12 -14 -141 -31
-162 -13 -16 -2 -30 27 -35 15 -2 20 3 21 22 1 14 7 56 14 93 7 37 10 78 6 91
-7 27 -40 40 -68 25 -10 -5 -18 -8 -18 -7 0 2 9 37 20 78 11 41 20 88 20 103
0 47 -28 84 -44 58z"/>
<path d="M13206 4688 c-3 -7 -6 -74 -8 -148 -4 -158 -18 -196 -94 -255 -73
-55 -123 -42 -110 30 13 65 95 123 139 96 15 -10 22 -10 31 -1 8 9 5 16 -14
32 -65 53 -192 -45 -192 -148 0 -39 15 -62 48 -75 56 -21 157 49 201 139 26
53 27 64 28 196 0 103 -3 140 -12 143 -7 3 -15 -1 -17 -9z"/>
<path d="M11438 4618 c-19 -40 -50 -108 -68 -151 -35 -78 -130 -200 -145 -185
-13 13 7 87 36 133 24 38 33 45 57 43 36 -4 36 23 0 36 -33 11 -57 -7 -93 -69
-52 -89 -55 -185 -6 -185 24 0 84 51 123 104 l28 39 0 -39 c0 -44 17 -82 42
-97 18 -12 88 14 110 40 19 23 -7 41 -29 21 -25 -23 -69 -32 -78 -17 -24 39 2
177 56 298 32 70 36 101 15 101 -8 0 -29 -33 -48 -72z"/>
<path d="M8419 4668 c0 -2 -2 -21 -4 -43 -2 -22 -10 -68 -16 -101 l-12 -62
-50 -8 c-55 -10 -81 -34 -59 -56 11 -11 16 -10 25 3 7 9 27 18 44 21 l32 4 0
-89 c0 -85 8 -116 28 -104 5 3 8 43 6 89 -2 46 0 89 4 95 5 7 41 15 81 19 51
5 72 11 72 20 0 11 -18 14 -70 14 -81 0 -78 -4 -56 103 15 73 13 97 -10 97 -8
0 -14 -1 -15 -2z"/>
<path d="M9500 4630 c0 -24 26 -38 42 -22 8 8 8 15 -2 27 -18 21 -40 19 -40
-5z"/>
<path d="M14357 4643 c-7 -12 11 -53 22 -53 16 0 23 18 16 40 -6 20 -30 27
-38 13z"/>
<path d="M5300 4585 c0 -21 28 -31 43 -16 9 9 8 14 -3 21 -22 14 -40 12 -40
-5z"/>
<path d="M14874 4577 c-147 -86 -167 -266 -35 -304 75 -22 211 21 211 66 0 30
-12 32 -35 7 -37 -39 -125 -57 -180 -36 -37 14 -60 73 -46 120 15 51 86 120
122 120 19 0 29 -5 29 -15 0 -16 -25 -29 -73 -40 -20 -4 -27 -11 -25 -23 5
-21 38 -19 87 6 49 24 60 46 41 80 -18 31 -61 40 -96 19z"/>
<path d="M3296 4508 c-4 -35 -16 -104 -27 -154 l-21 -92 -111 -8 c-89 -7 -112
-12 -112 -24 0 -11 10 -14 40 -13 22 1 113 5 202 9 89 4 167 10 173 14 6 4 8
13 5 22 -5 12 -14 14 -48 7 -23 -4 -57 -8 -74 -9 -28 0 -33 4 -33 23 0 13 7
43 15 68 15 45 36 198 28 212 -2 4 -10 7 -18 7 -9 0 -15 -20 -19 -62z"/>
<path d="M7557 4528 c-33 -42 -73 -129 -89 -190 -6 -26 -15 -48 -19 -48 -11 0
-46 100 -62 177 -15 76 -35 90 -50 33 -6 -25 -5 -37 5 -45 7 -5 19 -32 26 -60
18 -71 68 -174 88 -182 20 -7 28 5 49 76 29 99 67 181 92 201 16 12 23 27 21
42 -5 35 -33 33 -61 -4z"/>
<path d="M10541 4495 c-31 -67 -130 -177 -171 -190 -21 -7 -27 -30 -10 -40 11
-7 61 27 104 70 l24 24 -5 -39 c-4 -31 -2 -41 11 -46 28 -11 65 5 105 45 l38
38 -4 -41 c-6 -49 16 -78 42 -56 19 16 19 30 -1 30 -10 0 -14 6 -10 18 2 9 12
45 22 79 24 89 6 124 -31 61 -31 -55 -82 -112 -115 -132 l-32 -18 7 23 c4 13
25 66 45 118 35 86 41 121 20 121 -5 0 -22 -29 -39 -65z"/>
<path d="M5725 4528 c-57 -31 -59 -74 -5 -127 22 -22 40 -47 40 -56 0 -23 -54
-75 -79 -75 -18 0 -35 15 -36 32 0 15 -13 17 -24 4 -33 -39 26 -86 83 -66 53
19 86 58 86 105 0 41 -10 57 -60 98 -21 18 -21 19 -4 38 12 13 26 18 40 15 30
-8 42 13 19 31 -22 16 -33 16 -60 1z"/>
<path d="M10853 4520 c-37 -22 -44 -61 -18 -96 31 -41 11 -121 -40 -158 -17
-12 -21 -11 -38 10 -19 25 -47 32 -47 13 0 -22 42 -69 61 -69 31 0 68 29 94
75 30 51 31 88 4 139 -22 41 -21 43 13 60 24 12 31 37 13 43 -5 1 -25 -6 -42
-17z"/>
<path d="M14131 4516 c-13 -14 -33 -61 -47 -108 -19 -70 -21 -85 -10 -97 16
-15 40 -5 33 13 -7 18 30 146 48 166 10 11 25 15 45 12 34 -5 40 12 11 28 -31
16 -56 12 -80 -14z"/>
<path d="M11042 4505 c-62 -52 -91 -163 -56 -213 22 -32 114 -30 114 3 0 8 4
17 10 20 6 4 7 -1 3 -12 -6 -16 -5 -16 11 -4 22 18 6 37 -20 23 -40 -20 -72
-22 -88 -6 -25 25 -19 43 21 59 63 27 103 63 103 94 0 30 -27 61 -53 61 -8 0
-29 -11 -45 -25z m65 -32 c5 -13 -74 -69 -84 -60 -3 4 7 23 22 42 26 35 54 43
62 18z"/>
<path d="M4347 4490 c-19 -16 -44 -52 -55 -78 -31 -71 -69 -226 -78 -311 -6
-68 -5 -73 12 -69 13 2 25 26 44 84 22 69 33 88 81 135 92 91 130 210 79 251
-30 25 -44 23 -83 -12z m67 -51 c-1 -39 -37 -120 -65 -145 -17 -15 -18 -14
-16 27 2 34 -1 43 -12 41 -11 -2 -12 0 -4 10 6 7 13 24 16 38 8 34 45 72 65
68 12 -3 17 -14 16 -39z"/>
<path d="M13595 4492 c-22 -11 -46 -26 -53 -34 -18 -23 0 -63 42 -90 47 -30
51 -44 21 -74 -24 -24 -69 -32 -80 -14 -11 18 -25 10 -25 -14 0 -55 116 -35
149 25 20 36 8 70 -39 102 -22 16 -40 32 -40 37 0 12 38 32 75 40 34 7 41 34
10 37 -11 2 -38 -5 -60 -15z"/>
<path d="M6616 4458 c-40 -47 -60 -98 -54 -143 4 -42 29 -43 75 -3 74 65 70
64 87 24 17 -42 58 -63 91 -47 11 5 14 10 7 10 -7 1 -10 6 -7 11 3 6 -5 10
-19 10 -35 0 -50 32 -42 89 14 92 17 85 -46 88 -55 3 -57 2 -92 -39z m90 -2
c18 -14 16 -18 -45 -76 -35 -33 -65 -59 -67 -57 -9 9 19 76 47 110 34 42 37
43 65 23z"/>
<path d="M13293 4479 c-38 -24 -67 -90 -59 -134 17 -91 181 -167 181 -84 0 25
-15 29 -62 14 -17 -6 -30 0 -54 24 -17 17 -29 36 -27 43 2 6 22 17 43 25 77
27 98 74 49 112 -32 25 -31 25 -71 0z m56 -33 c10 -11 7 -17 -11 -30 -25 -18
-58 -21 -58 -6 0 10 40 50 51 50 3 0 12 -6 18 -14z"/>
<path d="M13829 4482 c-85 -56 -105 -92 -85 -152 14 -46 65 -73 119 -65 54 8
107 31 107 47 0 9 -3 9 -10 -2 -8 -13 -14 -8 -12 11 1 4 -16 0 -36 -7 -54 -19
-99 -17 -122 6 -20 20 -26 56 -12 76 15 22 84 68 105 69 12 1 21 5 20 8 -2 4
-3 12 -3 17 0 15 -42 10 -71 -8z"/>
<path d="M5055 4479 c-61 -18 -70 -61 -24 -113 32 -37 33 -62 3 -87 -12 -10
-19 -8 -39 11 -22 21 -25 21 -31 6 -9 -24 24 -56 57 -56 62 0 92 95 44 140
-14 13 -25 31 -25 41 0 20 31 33 59 24 24 -7 37 11 21 30 -14 17 -22 17 -65 4z"/>
<path d="M9630 4472 c-61 -42 -65 -78 -14 -134 29 -32 35 -46 32 -76 -4 -47
-38 -69 -82 -53 -22 9 -26 14 -17 25 16 20 -3 30 -29 16 -44 -24 -6 -70 64
-77 40 -5 48 -2 76 25 47 47 38 113 -24 171 -21 20 -23 27 -14 45 14 26 37 41
63 41 11 0 20 7 20 15 0 21 -45 23 -75 2z"/>
<path d="M2804 4469 c-8 -14 6 -49 20 -49 18 0 39 26 32 38 -8 14 -45 22 -52
11z"/>
<path d="M4724 4465 c-8 -21 13 -123 32 -152 19 -30 28 -29 59 4 14 15 25 25
25 21 0 -4 -27 -72 -59 -152 -67 -166 -78 -212 -58 -240 21 -29 38 -11 31 33
-5 29 1 54 26 112 67 157 141 359 135 369 -13 21 -33 8 -79 -55 -26 -36 -49
-65 -51 -65 -6 0 -26 78 -28 108 -3 30 -24 41 -33 17z"/>
<path d="M7765 4467 c-43 -14 -109 -61 -129 -91 -40 -62 -21 -127 47 -159 41
-20 112 -22 146 -4 29 15 28 33 -2 29 -105 -12 -177 15 -177 66 0 37 12 53 30
42 46 -29 170 18 170 64 0 46 -37 69 -85 53z m42 -42 c8 -23 -26 -44 -69 -45
-49 0 -48 11 5 38 50 26 56 27 64 7z"/>
<path d="M8058 4455 c-42 -29 -78 -82 -78 -117 0 -56 72 -124 135 -128 95 -6
117 7 76 44 -19 18 -47 14 -36 -5 9 -13 -31 -11 -68 5 -68 29 -87 80 -48 134
37 52 83 67 106 35 13 -17 35 -10 35 12 0 18 -39 45 -65 45 -11 0 -37 -11 -57
-25z"/>
<path d="M8890 4467 c-36 -18 -89 -129 -101 -212 -7 -52 -6 -70 3 -76 20 -12
28 0 28 41 0 42 37 153 65 196 17 27 40 29 103 9 37 -12 27 20 -12 39 -41 19
-53 20 -86 3z"/>
<path d="M14307 4473 c-9 -15 -29 -154 -23 -160 3 -3 11 -3 18 0 14 5 42 142
33 158 -7 11 -22 12 -28 2z"/>
<path d="M5383 4426 c-36 -41 -63 -100 -63 -139 0 -9 11 -24 26 -33 22 -15 32
-15 79 -5 56 13 106 43 93 57 -4 4 -31 0 -59 -9 -71 -24 -99 -22 -99 4 0 53
62 133 103 134 35 0 27 30 -9 33 -26 3 -38 -4 -71 -42z"/>
<path d="M12241 4430 c-68 -66 -76 -106 -31 -152 26 -25 35 -29 63 -23 123 27
164 107 92 180 -47 46 -72 45 -124 -5z m114 -40 c20 -38 9 -61 -39 -84 -40
-19 -68 -20 -84 -4 -27 27 -8 67 60 124 18 16 44 1 63 -36z"/>
<path d="M9445 4398 c-3 -35 -11 -87 -16 -117 -8 -38 -8 -56 0 -64 20 -20 29
5 45 117 15 113 15 126 -9 126 -9 0 -15 -20 -20 -62z"/>
<path d="M8579 4437 c-27 -20 -59 -80 -59 -110 0 -33 40 -77 70 -77 34 0 85
26 108 54 26 34 15 72 -34 116 -37 32 -59 37 -85 17z m79 -63 c28 -32 28 -38
-5 -64 -38 -29 -87 -24 -92 10 -1 14 5 39 15 58 20 38 44 36 82 -4z"/>
<path d="M3533 4418 c-4 -7 -8 -26 -10 -43 -1 -16 -11 -52 -22 -78 -12 -27
-21 -57 -21 -68 0 -33 25 -21 44 22 10 23 38 62 62 87 53 55 69 48 79 -38 4
-35 12 -61 21 -64 20 -8 22 3 14 72 -5 37 -15 71 -26 83 -23 25 -62 24 -91 -3
l-23 -21 0 26 c0 30 -15 43 -27 25z"/>
<path d="M5225 4420 c-3 -5 -4 -14 -1 -19 3 -5 -5 -24 -17 -42 -33 -49 -38
-66 -21 -73 28 -11 44 -6 44 13 0 10 7 32 15 47 19 38 20 84 1 84 -8 0 -18 -4
-21 -10z"/>
<path d="M9180 4120 c0 -38 -5 -92 -11 -120 l-11 -50 -48 0 c-27 0 -61 5 -76
10 -19 8 -30 8 -38 0 -20 -21 23 -40 91 -40 35 0 63 -4 63 -8 0 -16 -40 -125
-50 -137 -12 -14 6 -35 32 -35 14 0 18 8 19 33 0 17 10 59 22 92 l22 60 70 10
c51 7 70 14 70 25 0 15 -28 17 -104 4 -33 -5 -33 -5 -27 23 3 15 9 67 12 116
7 84 6 87 -15 87 -19 0 -21 -5 -21 -70z"/>
<path d="M5810 4119 c-13 -6 -33 -17 -43 -26 -20 -19 -57 -97 -57 -123 0 -11
-12 -21 -32 -26 -41 -12 -45 -40 -5 -36 26 3 27 1 27 -41 0 -49 25 -143 41
-153 22 -13 29 13 15 54 -14 38 -21 92 -17 134 1 15 8 17 47 11 38 -5 46 -3
42 8 -2 8 -23 18 -46 23 -36 9 -41 13 -36 30 27 89 66 127 109 108 34 -16 45
6 15 30 -25 20 -26 20 -60 7z"/>
<path d="M4344 4089 c-8 -14 -6 -197 2 -211 3 -4 -28 -8 -68 -10 -57 -2 -73
-6 -73 -18 0 -12 14 -15 73 -14 l72 2 0 -28 c0 -51 12 -90 28 -90 12 0 14 11
9 61 l-5 62 51 -6 c29 -4 58 -3 66 2 26 17 -1 31 -60 31 l-59 0 -2 83 c-1 45
-2 92 -2 104 -1 30 -21 49 -32 32z"/>
<path d="M7991 4046 c-9 -11 -9 -20 -2 -35 15 -27 14 -61 -5 -136 -12 -46 -23
-69 -40 -80 -28 -18 -32 -56 -8 -79 35 -36 155 -7 217 51 35 34 38 87 6 104
-24 13 -104 5 -125 -11 -10 -9 -11 5 -7 68 8 113 -5 155 -36 118z m159 -221
c0 -39 -146 -113 -172 -87 -15 15 72 100 108 104 40 5 64 -2 64 -17z"/>
<path d="M3338 4043 c-10 -54 -8 -354 2 -373 15 -28 36 -19 30 11 -6 32 -6
195 0 289 4 65 3 75 -13 78 -9 2 -18 0 -19 -5z"/>
<path d="M8280 4001 c0 -24 13 -33 35 -25 23 9 14 38 -13 42 -16 3 -22 -2 -22
-17z"/>
<path d="M4040 3981 c0 -20 26 -36 35 -21 8 13 -6 40 -21 40 -8 0 -14 -9 -14
-19z"/>
<path d="M8485 3961 c-48 -28 -69 -68 -69 -129 -1 -47 3 -57 27 -78 23 -20 39
-24 91 -24 63 0 105 17 92 38 -4 7 -17 8 -39 1 -69 -20 -137 -1 -137 39 0 14
7 17 40 14 77 -8 120 17 120 69 0 35 -47 89 -77 89 -10 0 -32 -8 -48 -19z m81
-46 c25 -38 4 -56 -61 -54 -46 2 -52 5 -47 21 6 24 49 58 73 58 10 0 26 -11
35 -25z"/>
<path d="M8841 3938 c-105 -52 -124 -155 -33 -183 30 -9 122 13 129 32 9 23
-3 26 -55 11 -77 -23 -122 5 -88 57 23 35 65 60 101 60 35 0 41 24 9 36 -15 5
-35 1 -63 -13z"/>
<path d="M6746 3935 c-3 -9 -6 -36 -6 -59 0 -23 -9 -59 -20 -81 -25 -49 -25
-65 -1 -65 13 0 25 16 41 53 24 56 56 97 76 97 17 0 26 -26 33 -90 5 -46 9
-55 26 -55 17 0 19 6 16 50 -3 55 -33 123 -58 132 -9 4 -29 -1 -44 -9 -27 -16
-28 -16 -31 10 -4 30 -23 40 -32 17z"/>
<path d="M2898 3925 c-32 -18 -68 -81 -69 -122 0 -15 -4 -36 -8 -46 -5 -15
-11 -9 -30 31 -14 30 -21 59 -18 73 3 12 1 31 -4 41 -15 27 -39 5 -39 -34 0
-57 96 -235 116 -215 3 3 8 40 11 82 8 131 39 173 114 161 30 -5 39 -3 39 8 0
31 -70 44 -112 21z"/>
<path d="M6514 3929 c-36 -10 -59 -34 -67 -70 -13 -55 49 -90 99 -55 19 14 20
13 23 -26 3 -52 16 -78 41 -78 23 0 25 17 5 44 -19 25 -19 77 0 123 20 46 19
50 -7 56 -13 3 -32 8 -43 11 -11 2 -34 1 -51 -5z m59 -35 c11 -11 -5 -34 -39
-55 -36 -22 -54 -19 -54 11 0 32 71 66 93 44z"/>
<path d="M3518 3913 c-38 -44 -50 -112 -27 -154 27 -50 104 -41 140 17 18 29
19 39 9 68 -23 71 -88 107 -122 69z m81 -59 c16 -35 14 -51 -9 -74 -27 -27
-58 -25 -71 4 -14 29 -4 76 15 76 8 0 16 7 20 15 7 20 31 9 45 -21z"/>
<path d="M3824 3921 c-11 -5 -33 -24 -48 -42 -23 -27 -27 -39 -22 -67 6 -43
38 -78 82 -92 39 -13 54 -7 54 22 0 16 -5 19 -24 14 -33 -8 -76 27 -76 63 0
34 35 68 75 73 19 2 30 9 30 18 0 17 -40 23 -71 11z"/>
<path d="M3110 3913 c-23 -9 -60 -45 -76 -75 -32 -61 12 -146 82 -164 37 -9
91 2 114 24 27 25 9 40 -23 20 -32 -20 -105 -8 -129 21 -24 30 -23 41 5 41 28
0 118 42 135 63 21 25 5 55 -36 67 -40 11 -49 11 -72 3z m75 -43 c7 -11 -66
-50 -95 -50 -26 0 -25 8 2 37 22 24 81 32 93 13z"/>
<path d="M7743 3903 c-4 -10 -17 -32 -30 -50 -33 -43 -30 -122 6 -139 31 -16
67 -3 117 40 33 28 39 39 39 74 0 56 -34 92 -87 92 -28 0 -40 -5 -45 -17z m97
-71 c0 -42 -72 -101 -107 -88 -12 5 -14 15 -10 42 9 52 32 74 79 74 35 0 38
-2 38 -28z"/>
<path d="M8264 3876 c-3 -14 -3 -29 0 -34 10 -17 -24 -215 -45 -258 -10 -22
-30 -51 -44 -64 -21 -20 -28 -22 -49 -12 -14 6 -32 25 -41 42 -24 47 -50 38
-33 -11 13 -37 57 -69 96 -69 39 0 95 63 116 129 18 57 39 214 34 260 -4 42
-25 52 -34 17z"/>
<path d="M4724 3857 c-47 -72 -106 -139 -115 -130 -5 5 -21 40 -34 78 -29 79
-31 83 -46 68 -13 -13 15 -114 43 -155 22 -32 21 -34 -52 -133 -64 -86 -110
-179 -110 -223 0 -46 20 -37 35 15 23 78 97 189 268 407 38 47 65 91 62 96
-11 18 -30 10 -51 -23z"/>
<path d="M5511 3861 c-7 -5 -10 -14 -7 -20 4 -7 -1 -11 -13 -11 -23 0 -51 -35
-51 -66 0 -46 67 -73 122 -50 57 24 66 42 43 83 -24 41 -74 76 -94 64z m17
-73 c8 -8 15 -8 26 1 10 9 16 9 21 1 13 -20 -4 -39 -40 -46 -44 -8 -69 9 -54
37 11 22 30 24 47 7z"/>
<path d="M4026 3831 c-10 -15 5 -89 20 -102 18 -14 37 -1 28 20 -4 9 -9 31
-13 50 -6 35 -24 51 -35 32z"/>
<path d="M9354 3707 c-16 -14 -24 -29 -20 -35 10 -16 17 -15 49 12 24 19 26
24 14 35 -12 9 -20 7 -43 -12z"/>
</g>
</svg>
