<?xml version="1.0" standalone="no"?>
<!DOCTYPE svg PUBLIC "-//W3C//DTD SVG 20010904//EN"
 "http://www.w3.org/TR/2001/REC-SVG-20010904/DTD/svg10.dtd">
<svg version="1.0" xmlns="http://www.w3.org/2000/svg"
 width="1617.000000pt" height="1213.000000pt" viewBox="0 0 1617.000000 1213.000000"
 preserveAspectRatio="xMidYMid meet">

<g transform="translate(0.000000,1213.000000) scale(0.100000,-0.100000)"
fill="#000000" stroke="none">
<path d="M9062 11778 c-57 -33 -72 -52 -53 -71 8 -8 14 -6 24 7 12 16 48 33
109 53 24 7 34 -22 18 -53 -7 -13 -52 -56 -100 -96 -102 -85 -118 -105 -93
-115 10 -4 19 -1 21 6 6 17 101 61 117 55 7 -3 17 -16 23 -29 6 -14 23 -27 37
-31 27 -7 93 0 103 11 13 12 -22 23 -58 18 -33 -5 -40 -2 -59 25 -12 17 -31
34 -43 38 -19 6 -17 9 24 45 25 21 53 55 63 75 16 35 16 37 -2 63 -28 37 -67
37 -131 -1z"/>
<path d="M14756 11718 c-2 -7 -7 -25 -10 -40 -4 -15 -18 -48 -33 -72 -26 -44
-27 -44 -54 -30 -26 13 -29 12 -59 -17 -60 -61 -71 -108 -33 -151 13 -15 10
-26 -36 -111 -56 -104 -66 -157 -30 -157 11 0 18 4 15 9 -3 5 2 12 12 16 16 6
16 7 0 19 -15 11 -12 20 33 104 47 86 52 92 82 92 42 1 113 33 126 59 15 27 5
64 -24 95 l-23 25 28 53 c32 59 42 109 23 115 -7 3 -15 -1 -17 -9z m-102 -206
c-9 -14 -25 -40 -36 -59 -23 -38 -38 -35 -38 7 0 39 44 90 70 83 20 -5 20 -7
4 -31z m74 -51 c-2 -20 -12 -29 -45 -41 -23 -8 -45 -12 -48 -9 -3 4 9 29 27
57 31 47 34 49 51 34 11 -9 17 -26 15 -41z"/>
<path d="M15140 11661 c-22 -4 -35 -12 -35 -21 0 -16 8 -16 124 -4 l54 6 -35
-43 c-20 -24 -41 -54 -47 -66 -9 -18 -20 -23 -52 -23 -48 0 -79 -14 -79 -36 0
-12 5 -14 18 -9 9 5 32 10 50 13 l34 4 -25 -48 c-37 -75 -51 -124 -38 -137 7
-7 15 0 27 29 59 144 65 153 103 160 53 8 101 24 101 33 0 16 -13 19 -40 9
-16 -5 -39 -8 -51 -6 -21 3 -20 6 20 52 27 31 41 56 39 70 -3 19 -10 21 -68
22 -36 1 -81 -1 -100 -5z"/>
<path d="M13585 11628 c-3 -7 -21 -76 -41 -153 -41 -157 -47 -210 -24 -210 10
0 15 11 16 30 2 35 61 270 76 302 11 22 4 43 -13 43 -5 0 -12 -6 -14 -12z"/>
<path d="M14906 11584 c-54 -118 -69 -204 -41 -240 15 -19 15 -19 30 0 11 14
12 23 4 33 -19 22 -5 105 29 178 36 76 38 85 18 85 -8 0 -26 -25 -40 -56z"/>
<path d="M13767 11576 c-38 -50 -126 -223 -116 -229 2 -1 13 -8 24 -15 60 -37
91 -37 140 2 23 18 27 28 21 49 -8 32 -43 44 -87 28 -18 -6 -35 -9 -38 -5 -9
8 55 125 89 162 33 37 38 52 15 52 -8 0 -29 -20 -48 -44z m36 -193 c14 -13
-27 -43 -60 -43 -43 0 -44 24 0 38 40 13 52 14 60 5z"/>
<path d="M12938 11568 c-13 -24 -38 -81 -56 -128 -18 -47 -38 -94 -44 -104 -8
-16 -7 -22 8 -33 23 -17 37 -12 39 13 8 71 55 206 84 239 20 23 22 46 5 52 -7
2 -23 -15 -36 -39z"/>
<path d="M8730 11585 c0 -8 24 -32 53 -54 158 -117 239 -269 240 -451 0 -105
-8 -155 -59 -374 -51 -220 -114 -341 -189 -366 -35 -12 -75 -1 -75 20 0 6 -7
10 -15 10 -36 0 -2 -50 44 -65 59 -18 141 50 192 159 30 65 74 222 110 396 58
284 10 471 -163 635 -113 107 -138 124 -138 90z"/>
<path d="M13168 11586 c-56 -15 -98 -41 -98 -61 0 -21 16 -19 49 6 15 11 47
23 71 26 41 6 42 5 35 -18 -16 -52 -37 -80 -95 -124 -167 -128 -138 -199 59
-147 93 24 94 44 2 38 -39 -3 -83 -9 -98 -12 -26 -7 -26 -7 -10 17 10 13 45
47 80 74 75 61 110 120 96 167 -8 28 -25 49 -39 47 -3 0 -26 -6 -52 -13z"/>
<path d="M14278 11589 c-21 -12 -24 -39 -5 -39 7 0 18 5 24 11 17 17 83 0 83
-21 0 -10 -34 -49 -75 -87 -89 -83 -96 -107 -34 -123 36 -10 126 -6 138 5 2 3
-1 11 -8 19 -9 10 -20 12 -44 6 -18 -5 -47 -6 -66 -2 l-34 7 70 65 c87 81 100
103 79 134 -21 32 -93 46 -128 25z"/>
<path d="M7385 11547 c-14 -24 -25 -49 -25 -55 0 -7 -4 -12 -9 -12 -19 0 -112
-278 -141 -420 -49 -237 -46 -368 12 -503 55 -130 92 -169 223 -232 104 -50
155 -64 155 -42 0 8 -18 19 -42 27 -85 25 -194 88 -236 135 -51 58 -97 168
-110 260 -19 140 22 384 105 615 25 69 45 133 44 143 0 9 6 17 13 17 8 0 19
13 26 30 7 16 18 35 26 41 18 15 18 39 -1 39 -8 0 -26 -20 -40 -43z"/>
<path d="M5142 11498 c-7 -7 -12 -22 -12 -35 0 -12 -13 -55 -29 -96 -16 -40
-34 -90 -40 -112 -15 -57 -62 -330 -66 -390 -6 -70 -27 -185 -35 -185 -15 0
-71 69 -89 111 -11 25 -28 90 -36 144 -26 158 -48 182 -119 126 -20 -16 -59
-44 -86 -61 -28 -18 -50 -38 -50 -46 0 -27 12 -20 170 94 16 12 20 11 30 -8 6
-11 17 -62 25 -112 9 -64 24 -112 49 -162 37 -75 110 -157 124 -141 9 10 63
265 82 390 36 229 93 407 133 420 12 3 132 8 267 11 215 4 416 17 459 30 9 3
11 8 5 14 -6 6 -145 7 -374 2 -298 -7 -367 -6 -378 5 -16 16 -15 16 -30 1z"/>
<path d="M7683 11484 c-7 -3 -13 -12 -13 -20 0 -11 9 -13 39 -8 50 8 58 -6 24
-46 l-27 -32 25 -18 24 -19 -30 -31 c-26 -27 -31 -29 -41 -15 -15 20 -34 19
-34 -3 0 -23 19 -42 41 -42 23 0 67 37 85 72 14 27 14 32 1 46 -14 13 -14 18
1 49 22 46 8 67 -44 70 -21 1 -45 0 -51 -3z"/>
<path d="M2936 11327 c-109 -229 -136 -327 -91 -327 17 0 28 17 16 24 -5 4 -3
28 5 59 17 66 151 349 169 360 8 4 12 14 9 22 -15 38 -38 8 -108 -138z"/>
<path d="M4859 11456 c-2 -2 -31 -6 -64 -8 -48 -3 -61 -8 -63 -22 -4 -18 22
-18 148 0 33 5 31 3 -27 -33 -41 -25 -63 -45 -63 -57 0 -16 5 -18 39 -12 45 7
71 0 71 -20 0 -19 -57 -82 -81 -89 -22 -7 -59 19 -59 42 0 17 -15 17 -30 -2
-11 -13 -8 -20 20 -45 48 -43 74 -39 131 19 38 37 49 55 49 80 0 26 -6 33 -32
44 l-33 14 42 21 c52 27 61 41 38 59 -17 12 -76 18 -86 9z"/>
<path d="M2705 11396 c-51 -24 -72 -43 -58 -57 9 -9 18 -7 40 8 61 44 100 36
68 -14 -10 -14 -46 -59 -81 -99 -69 -79 -79 -104 -40 -104 33 0 145 29 179 47
29 14 27 39 -2 30 -71 -22 -151 -44 -151 -41 0 2 24 32 53 66 94 112 108 146
68 168 -25 13 -39 12 -76 -4z"/>
<path d="M3100 11331 c-28 -8 -42 -51 -17 -51 9 0 17 5 19 11 2 6 21 9 43 7
l40 -3 -45 -43 c-43 -42 -44 -44 -26 -58 11 -8 23 -14 28 -14 4 0 8 -8 8 -18
0 -27 -41 -46 -80 -37 -27 6 -31 4 -28 -12 5 -25 68 -30 103 -7 42 28 50 52
27 83 l-20 27 29 32 c35 39 36 56 7 76 -24 17 -47 19 -88 7z"/>
<path d="M13334 11329 c-8 -14 11 -33 25 -25 11 7 4 36 -9 36 -5 0 -12 -5 -16
-11z"/>
<path d="M13917 11322 c-19 -21 -22 -52 -6 -52 16 0 38 31 39 53 0 22 -13 22
-33 -1z"/>
<path d="M5696 11314 c-18 -18 -19 -24 -7 -43 10 -16 31 -6 31 15 0 8 10 14
25 14 35 0 32 -25 -10 -71 -37 -41 -46 -83 -20 -93 18 -7 108 9 137 25 31 17
4 29 -39 17 -19 -5 -45 -8 -59 -6 l-25 3 34 40 c44 51 52 78 32 99 -21 20 -79
21 -99 0z"/>
<path d="M8425 11312 c-27 -1 -124 -11 -215 -22 -91 -11 -183 -21 -205 -23
l-40 -2 -7 -110 c-4 -60 -17 -164 -27 -230 -11 -66 -23 -141 -26 -167 -4 -27
-10 -48 -14 -48 -14 0 -79 194 -96 287 -9 48 -20 92 -25 96 -9 10 -138 -73
-139 -90 -1 -21 21 -15 69 17 24 16 47 26 51 22 3 -4 11 -38 19 -77 13 -71 65
-227 94 -284 36 -69 55 -31 102 199 14 69 28 173 31 232 l6 107 41 5 c23 3 91
13 151 22 61 9 182 18 270 21 144 5 163 4 178 -12 12 -12 26 -15 43 -11 37 10
29 47 -11 57 -34 9 -176 15 -250 11z"/>
<path d="M15228 11243 c-3 -10 -31 -52 -63 -94 l-58 -77 -35 15 c-48 20 -137
12 -162 -14 -31 -34 -50 -80 -50 -122 0 -31 7 -46 31 -70 l31 -31 -36 -45
c-20 -24 -49 -57 -64 -72 -91 -92 -136 -171 -121 -210 12 -33 24 -28 37 15 11
37 103 169 175 252 39 45 39 45 97 42 133 -8 211 94 146 190 l-24 36 46 58
c25 33 52 64 59 69 7 6 16 25 19 43 5 25 3 32 -9 32 -8 0 -17 -8 -19 -17z
m-164 -200 c16 -9 11 -18 -43 -81 -33 -39 -66 -74 -72 -77 -6 -4 -21 3 -35 16
-36 33 -31 90 12 140 16 18 108 19 138 2z m74 -48 c18 -40 14 -62 -16 -96 -25
-27 -37 -33 -87 -37 -58 -5 -59 -4 -45 15 42 57 116 142 126 142 6 1 16 -10
22 -24z"/>
<path d="M14721 11148 c-16 -40 -69 -222 -71 -243 -4 -39 0 -55 15 -55 10 0
15 10 15 33 0 17 18 88 40 157 22 69 40 126 40 128 0 1 -7 2 -15 2 -9 0 -19
-10 -24 -22z"/>
<path d="M5420 11138 c-43 -22 -99 -88 -111 -133 -8 -28 15 -65 40 -65 10 0
39 11 65 25 l46 24 0 -33 c0 -46 29 -70 87 -70 28 -1 48 4 50 12 3 8 -8 12
-35 12 -76 0 -93 57 -46 150 27 54 27 93 -1 70 -10 -8 -15 -9 -15 -2 0 27 -37
31 -80 10z m62 -26 c39 -16 -48 -116 -119 -137 -20 -5 -23 -3 -23 19 0 17 16
43 48 76 48 49 61 55 94 42z"/>
<path d="M6660 11127 c-37 -8 -55 -17 -55 -27 0 -9 8 -14 20 -13 11 2 44 5 73
9 33 4 52 3 52 -4 0 -16 28 -22 34 -6 7 18 -28 54 -51 53 -10 0 -43 -6 -73
-12z"/>
<path d="M3798 11074 c-46 -14 -66 -29 -54 -41 3 -3 32 2 64 11 73 20 106 20
122 1 9 -11 16 -13 23 -6 7 7 5 17 -8 31 -22 24 -77 26 -147 4z"/>
<path d="M2382 11036 c-49 -54 -72 -96 -72 -134 0 -61 52 -66 121 -11 20 16
40 29 43 29 3 0 6 -15 6 -34 0 -42 33 -86 66 -86 31 0 31 14 -1 28 -32 15 -41
52 -25 116 13 56 12 72 -7 70 -7 -1 -13 6 -13 16 0 10 -7 26 -16 34 -27 28
-59 19 -102 -28z m84 -3 c3 -10 9 -25 14 -34 10 -20 6 -26 -50 -70 -57 -45
-79 -54 -87 -33 -8 20 10 57 54 110 38 47 60 55 69 27z"/>
<path d="M8308 11051 c-71 -45 -114 -110 -102 -156 11 -45 62 -45 127 -1 l37
25 0 -24 c0 -34 34 -65 70 -65 26 0 30 4 30 26 0 23 -3 25 -32 22 -29 -3 -33
0 -36 24 -2 15 4 40 12 57 27 50 18 89 -12 59 -9 -9 -12 -7 -12 8 0 12 -8 28
-18 37 -17 16 -21 15 -64 -12z m52 -29 c0 -10 5 -23 11 -29 15 -15 -31 -65
-81 -88 -54 -24 -69 -11 -44 40 16 34 84 95 106 95 4 0 8 -8 8 -18z"/>
<path d="M6580 10984 c0 -19 27 -24 133 -24 95 0 141 10 125 26 -13 12 -258
10 -258 -2z"/>
<path d="M3803 10953 c-41 -4 -54 -15 -33 -28 18 -11 241 7 237 19 -4 11 -123
17 -204 9z"/>
<path d="M5616 9838 c-48 -180 -58 -275 -31 -298 8 -7 15 -11 15 -9 1 2 2 40
4 84 2 48 12 106 25 144 22 62 22 91 1 91 -6 0 -12 -6 -14 -12z"/>
<path d="M3160 9760 c0 -12 -17 -52 -39 -88 -21 -37 -52 -92 -68 -122 -17 -30
-50 -89 -75 -130 -58 -99 -74 -138 -60 -152 14 -14 32 -1 32 24 0 11 25 62 55
114 31 52 70 120 87 152 17 31 46 83 65 114 34 57 40 98 16 106 -8 2 -13 -5
-13 -18z"/>
<path d="M8153 9703 c-12 -43 -8 -222 5 -235 22 -22 31 5 21 65 -6 36 -6 80 1
119 5 33 7 65 4 69 -10 17 -24 9 -31 -18z"/>
<path d="M2886 9708 c-9 -30 -49 -226 -54 -261 -4 -37 12 -72 29 -61 5 3 6 16
3 29 -6 24 14 127 45 227 12 39 14 61 7 68 -14 14 -26 13 -30 -2z"/>
<path d="M3228 9612 c-21 -19 -29 -34 -25 -45 9 -23 37 -21 37 2 0 10 7 22 16
25 23 9 24 8 24 -14 0 -30 -23 -71 -80 -139 -27 -33 -50 -65 -50 -71 0 -17 21
-11 52 15 36 30 51 31 87 4 33 -24 78 -20 131 13 25 14 30 22 21 31 -8 8 -18
7 -39 -5 -42 -24 -79 -30 -94 -15 -7 8 -23 19 -35 26 l-22 11 29 47 c33 52 39
103 14 127 -21 22 -29 20 -66 -12z"/>
<path d="M2640 9556 c-27 -7 -45 -18 -45 -26 0 -9 8 -14 20 -12 11 2 45 5 75
7 61 4 73 16 35 33 -30 14 -26 14 -85 -2z"/>
<path d="M5078 9470 c-24 -14 -13 -36 25 -50 60 -22 285 -29 562 -19 256 10
518 2 584 -17 19 -6 22 -4 19 12 -2 13 -16 21 -48 27 -56 9 -376 13 -735 8
-290 -4 -343 0 -341 27 1 20 -40 27 -66 12z"/>
<path d="M6822 9464 c3 -17 14 -19 106 -22 86 -2 102 0 102 13 0 12 -15 15
-82 15 -46 0 -94 3 -107 7 -19 5 -22 2 -19 -13z"/>
<path d="M7676 9432 c-25 -25 14 -27 457 -30 365 -3 468 -6 489 -17 17 -8 30
-10 34 -4 9 16 -16 38 -50 44 -42 7 -923 14 -930 7z"/>
<path d="M6967 9374 c-3 -4 -34 -8 -69 -9 -46 -2 -63 -6 -63 -16 0 -17 53 -22
115 -11 28 5 45 13 45 21 0 16 -18 25 -28 15z"/>
<path d="M5767 9334 c-4 -4 -7 -34 -7 -66 0 -45 3 -58 15 -58 14 0 16 10 19
102 1 22 -15 34 -27 22z"/>
<path d="M5845 9258 c-38 -45 -85 -101 -102 -124 -35 -45 -44 -94 -18 -94 9 0
15 9 15 21 0 24 38 76 127 172 54 58 80 108 56 107 -5 0 -39 -37 -78 -82z"/>
<path d="M3952 9311 c-35 -9 -63 -20 -63 -24 -1 -26 9 -28 56 -13 55 19 89 22
123 11 28 -9 31 19 3 35 -25 13 -42 12 -119 -9z"/>
<path d="M8345 9273 c-38 -8 -149 -27 -245 -42 -157 -25 -175 -29 -173 -46 2
-27 -25 -370 -33 -411 -3 -19 -10 -34 -15 -34 -12 0 -37 90 -49 178 -20 141
-39 202 -63 202 -14 0 -87 -91 -87 -109 0 -23 26 -9 54 30 35 49 38 45 55 -66
29 -192 59 -287 93 -293 27 -5 46 80 63 283 8 98 15 187 15 196 0 13 25 20
143 38 78 12 186 31 239 41 116 24 155 25 174 5 9 -8 20 -15 25 -15 13 0 11
34 -3 48 -16 16 -107 14 -193 -5z"/>
<path d="M2380 9238 c-42 -45 -74 -113 -68 -144 8 -43 77 -20 151 51 l27 26 0
-44 c0 -48 17 -71 62 -82 20 -5 29 -2 36 12 9 16 6 18 -20 20 -47 1 -58 34
-39 113 9 41 5 60 -14 60 -7 0 -18 7 -25 15 -24 29 -68 18 -110 -27z m98 -12
c6 -29 -116 -141 -134 -123 -10 10 27 82 59 115 34 36 69 40 75 8z"/>
<path d="M5918 9219 c-24 -14 -23 -39 2 -39 11 0 20 5 20 10 0 6 9 10 20 10
30 0 25 -12 -26 -69 -40 -44 -44 -54 -33 -67 11 -13 25 -15 79 -9 36 4 71 12
78 17 22 19 12 29 -23 23 -114 -17 -112 -17 -89 2 35 30 66 82 62 106 -2 17
-10 23 -38 24 -19 2 -43 -2 -52 -8z"/>
<path d="M4008 9185 c-3 -3 -31 -9 -63 -13 -36 -4 -60 -12 -63 -21 -4 -11 7
-13 64 -7 38 4 81 7 97 7 16 0 27 5 27 13 0 20 -47 35 -62 21z"/>
<path d="M5470 9103 c-23 -8 -80 -65 -96 -95 -18 -36 -18 -82 1 -98 18 -15 57
1 113 46 l32 27 0 -36 c0 -45 22 -67 65 -67 41 0 53 16 31 38 -14 14 -18 15
-25 3 -5 -8 -16 -11 -26 -7 -15 6 -17 15 -11 71 6 61 5 66 -20 95 -27 30 -36
33 -64 23z m44 -49 c4 -11 -9 -32 -42 -65 -72 -72 -109 -61 -61 17 36 58 90
83 103 48z"/>
<path d="M8215 9051 c-30 -12 -103 -96 -111 -125 -16 -64 22 -73 90 -21 26 19
48 35 50 35 2 0 7 -11 10 -25 3 -13 16 -30 27 -36 40 -21 173 20 148 46 -2 2
-31 -3 -64 -10 -52 -12 -62 -12 -74 0 -12 12 -12 21 -2 54 10 35 9 44 -5 66
-17 26 -34 30 -69 16z m30 -51 c-7 -21 -104 -105 -112 -96 -14 14 62 107 97
118 20 7 23 3 15 -22z"/>
<path d="M7272 8515 c-30 -43 -61 -62 -48 -30 3 8 1 28 -5 43 l-11 27 -44 -48
-44 -49 0 34 c0 41 -8 52 -26 37 -8 -7 -11 -22 -8 -39 4 -16 1 -45 -6 -65 -9
-28 -9 -40 -1 -48 13 -13 18 -8 82 77 l29 39 0 -31 c0 -43 15 -48 54 -19 l32
25 12 -44 c16 -59 49 -81 95 -64 40 16 67 39 67 57 0 7 -7 13 -15 13 -8 0 -15
-5 -15 -10 0 -14 -60 -39 -76 -33 -21 8 -33 60 -27 118 3 32 2 55 -4 55 -5 0
-23 -20 -41 -45z"/>
<path d="M6850 8460 c0 -11 19 -44 43 -73 98 -120 141 -229 142 -357 0 -139
-51 -255 -164 -373 -57 -60 -95 -81 -132 -73 -24 4 -29 2 -29 -13 0 -42 66
-32 133 20 132 101 227 289 227 446 0 108 -55 245 -139 350 -26 32 -50 66 -54
76 -9 23 -27 22 -27 -3z"/>
<path d="M6589 8385 c-6 -5 -412 -37 -449 -34 -14 0 -30 1 -36 0 -7 -1 -17
-31 -23 -68 -56 -322 -101 -539 -116 -559 -10 -14 -15 -11 -38 19 -14 19 -43
74 -63 123 -37 90 -68 144 -84 144 -5 0 -31 -24 -59 -52 -50 -53 -65 -88 -36
-88 8 0 15 6 15 13 0 7 18 30 39 51 l39 38 15 -23 c8 -13 27 -55 41 -94 29
-76 83 -158 115 -175 29 -15 50 22 77 139 12 53 32 131 43 173 11 42 28 124
37 183 10 58 22 112 28 119 8 10 65 17 206 25 107 7 218 17 245 23 28 6 70 13
94 17 25 3 46 12 49 19 3 9 -15 12 -65 12 -39 0 -72 -2 -74 -5z"/>
<path d="M5810 8295 c-24 -25 -24 -25 -32 -5 -11 30 -25 24 -32 -12 -17 -101
-19 -138 -4 -138 8 0 20 12 27 26 13 28 71 104 80 104 3 0 14 -20 24 -44 24
-59 49 -80 82 -72 31 8 28 32 -4 29 -17 -2 -27 7 -44 45 -31 64 -50 92 -63 92
-6 0 -21 -11 -34 -25z"/>
<path d="M3081 8243 l-61 -68 20 48 c23 57 25 77 6 77 -8 0 -26 -35 -45 -86
-30 -82 -38 -124 -25 -124 3 0 35 30 70 68 50 52 62 61 54 39 -26 -73 -2 -86
59 -32 21 19 40 35 42 35 2 0 5 -11 6 -25 1 -14 3 -37 4 -51 2 -28 20 -40 45
-30 15 6 15 8 1 30 -9 13 -17 45 -19 71 -2 27 -8 50 -15 52 -6 2 -30 -12 -52
-33 -46 -41 -49 -39 -22 14 32 64 35 82 13 82 -12 0 -45 -27 -81 -67z"/>
<path d="M5315 8238 c-37 -29 -112 -188 -131 -280 -19 -87 -14 -181 12 -235
20 -41 82 -83 122 -83 34 0 23 16 -27 42 -62 32 -80 61 -87 138 -8 79 19 199
66 293 41 84 63 109 91 111 30 1 32 30 3 34 -11 2 -33 -7 -49 -20z"/>
<path d="M10040 8250 c-52 -5 -129 -14 -170 -19 -41 -6 -86 -9 -100 -8 -23 2
-25 -2 -32 -58 -3 -33 -16 -94 -27 -135 -19 -70 -51 -247 -66 -367 -4 -29 -10
-55 -15 -58 -14 -9 -118 74 -152 122 -41 56 -63 110 -72 176 -4 26 -12 47 -18
47 -23 0 -167 -105 -168 -122 0 -10 2 -18 5 -18 2 0 33 21 69 46 66 46 86 49
86 13 0 -32 54 -142 91 -183 37 -43 146 -126 165 -126 18 0 32 46 49 165 21
144 52 297 71 348 9 23 20 56 26 73 10 30 12 31 107 43 53 8 179 16 281 18
156 4 208 1 330 -18 182 -27 287 -34 323 -20 39 15 25 30 -22 24 -22 -3 -72 2
-113 10 -200 44 -471 63 -648 47z"/>
<path d="M9505 8168 l-57 -63 7 41 c8 49 -10 69 -25 29 -13 -34 -13 -142 0
-150 5 -3 16 7 24 22 8 15 35 52 60 81 l46 53 -2 -65 c-3 -78 17 -109 66 -104
42 4 42 32 1 33 l-30 0 -5 89 c-3 54 -10 91 -16 93 -7 2 -37 -24 -69 -59z"/>
<path d="M10419 8075 l-21 -35 -19 23 -19 22 -50 -55 c-41 -44 -49 -50 -40
-27 14 38 13 57 -3 57 -21 0 -56 -137 -42 -160 8 -12 39 19 98 99 l32 43 5
-28 c7 -40 31 -40 54 -2 l20 33 6 -44 c4 -25 15 -50 25 -57 23 -17 97 -18 113
-2 22 22 13 28 -33 21 -63 -8 -75 5 -75 83 0 76 -18 86 -51 29z"/>
<path d="M6417 8060 c-54 -34 -107 -110 -107 -152 0 -53 64 -55 141 -3 47 31
49 31 49 0 0 -35 39 -57 92 -53 49 4 58 22 13 26 -68 6 -75 10 -75 48 0 19 5
45 11 56 7 14 8 23 0 31 -7 7 -19 0 -38 -23 -35 -42 -110 -90 -140 -90 -27 0
-29 10 -8 49 15 29 101 111 116 111 5 0 9 -13 9 -30 0 -20 5 -30 15 -30 19 0
21 60 3 78 -18 18 -29 15 -81 -18z"/>
<path d="M3319 8016 c-2 -2 -76 -16 -164 -31 -150 -25 -231 -27 -282 -8 -8 3
-13 -2 -13 -15 0 -17 9 -21 70 -27 68 -7 164 4 347 41 40 8 104 14 143 14 66
0 90 10 54 24 -18 7 -148 8 -155 2z"/>
<path d="M4083 7987 c-2 -4 -1 -16 2 -27 7 -21 31 -27 37 -10 2 5 38 13 81 16
56 5 77 11 77 21 0 11 -19 13 -96 11 -53 -2 -98 -6 -101 -11z"/>
<path d="M2459 7913 c-60 -54 -92 -114 -79 -147 5 -14 14 -26 20 -26 15 0 88
38 95 50 3 5 14 14 24 19 16 9 17 5 17 -38 -1 -29 6 -57 17 -74 15 -24 24 -27
72 -27 57 0 75 11 55 35 -6 8 -9 19 -5 25 3 5 3 14 0 20 -9 14 -45 -11 -45
-32 0 -28 -47 -24 -56 5 -9 29 -7 79 6 127 8 30 8 46 -1 62 -26 50 -65 50
-120 1z m87 -4 c3 -6 1 -22 -6 -35 -16 -28 -117 -100 -127 -90 -12 11 28 76
66 107 38 31 56 36 67 18z"/>
<path d="M8085 7924 c-27 -7 -62 -11 -77 -8 -36 7 -39 -23 -4 -32 29 -7 181
26 187 41 6 16 -51 15 -106 -1z"/>
<path d="M9945 7883 c-61 -63 -91 -126 -76 -159 18 -39 58 -31 132 27 l37 29
6 -25 c8 -30 47 -58 77 -53 32 4 37 28 6 28 -27 0 -57 23 -57 44 0 7 5 27 11
45 6 17 8 39 5 48 -5 12 -19 2 -62 -46 -48 -53 -98 -91 -119 -91 -3 0 -5 11
-5 23 0 40 90 150 105 128 12 -21 25 -11 25 19 0 45 -32 39 -85 -17z"/>
<path d="M3103 7859 c-31 -28 -33 -29 -33 -9 0 15 -5 20 -17 18 -12 -2 -18
-13 -18 -29 -1 -14 -11 -41 -23 -61 -24 -39 -29 -68 -9 -67 6 0 36 29 65 65
29 35 57 64 61 64 5 0 14 -14 21 -30 7 -17 22 -35 32 -41 25 -14 64 -4 72 17
9 24 -2 30 -25 16 -26 -17 -37 -8 -61 44 -10 24 -22 44 -26 44 -4 0 -22 -14
-39 -31z"/>
<path d="M4148 7878 c-39 -7 -58 -15 -58 -25 0 -12 13 -13 73 -7 75 7 94 15
83 33 -8 12 -18 12 -98 -1z"/>
<path d="M8100 7809 c-25 -5 -72 -7 -105 -7 -47 1 -61 -2 -63 -14 -4 -22 36
-28 117 -17 36 5 89 8 118 9 43 0 75 13 62 24 -10 9 -90 11 -129 5z"/>
<path d="M6824 7247 c-3 -8 0 -26 6 -42 6 -16 13 -69 16 -119 6 -84 4 -94 -18
-126 -25 -38 -90 -75 -113 -66 -21 8 -19 39 6 70 22 28 48 33 79 14 27 -17 37
-2 15 22 -35 38 -105 19 -134 -37 -16 -31 -14 -78 4 -93 21 -17 81 -5 126 26
57 39 73 86 66 193 -8 125 -35 205 -53 158z"/>
<path d="M3787 7193 c-2 -5 -4 -53 -6 -107 -1 -55 -4 -103 -7 -108 -3 -4 -16
-8 -30 -8 -15 0 -24 -6 -24 -15 0 -10 10 -15 29 -15 37 0 44 -11 43 -67 -2
-67 22 -50 26 19 3 64 2 63 110 73 34 4 62 3 62 -2 -1 -4 -14 -33 -30 -63 -17
-30 -30 -64 -30 -76 0 -46 46 -57 108 -25 77 39 93 84 51 146 -30 44 -86 64
-149 54 -25 -4 -65 -10 -89 -14 l-44 -6 5 110 c5 88 3 111 -8 111 -7 0 -15 -3
-17 -7z m293 -310 c0 -15 -11 -30 -32 -43 -38 -24 -76 -35 -85 -26 -4 3 9 38
27 76 l34 70 28 -27 c15 -15 28 -37 28 -50z"/>
<path d="M2634 7143 c-61 -12 -164 -145 -164 -211 0 -46 24 -87 59 -102 66
-27 256 38 305 103 19 26 19 30 6 69 -10 27 -34 57 -71 89 -54 48 -91 62 -135
52z m92 -63 c56 -31 99 -89 90 -117 -12 -38 -126 -94 -218 -108 -42 -6 -50 -4
-72 18 -30 30 -33 65 -10 110 40 77 93 126 139 127 11 0 43 -13 71 -30z"/>
<path d="M5410 7143 c-55 -20 -97 -140 -106 -302 -3 -58 -7 -117 -8 -131 -3
-25 -4 -25 -117 -31 -287 -16 -739 -30 -784 -24 -27 3 -169 6 -315 6 -165 0
-310 6 -385 15 -66 8 -228 19 -360 24 -132 5 -286 12 -342 16 l-103 7 0 47 c0
45 2 48 31 54 17 3 44 19 60 35 39 40 40 89 0 133 -28 31 -29 32 -54 15 -14
-9 -28 -26 -32 -37 -4 -11 -14 -19 -22 -18 -13 3 -16 -14 -19 -106 -1 -59 -6
-112 -11 -117 -13 -13 -499 -19 -512 -6 -13 13 -41 1 -41 -18 0 -8 3 -16 8
-16 8 -2 211 -10 227 -10 6 1 79 4 163 7 l152 7 0 -31 c0 -17 5 -34 11 -38 14
-8 29 14 29 44 0 21 3 22 63 17 34 -3 188 -10 342 -15 154 -6 333 -17 397 -24
73 -9 223 -15 395 -15 153 -1 298 -4 323 -7 39 -4 214 1 793 23 l109 4 -3 -53
c-2 -41 0 -53 11 -53 9 0 18 16 24 40 4 22 10 46 12 53 3 9 71 12 296 12 161
0 325 3 363 5 39 2 259 9 490 15 231 6 524 18 650 26 127 8 397 17 600 18 237
3 435 10 550 20 113 11 255 16 380 14 169 -1 200 0 200 13 0 22 -360 24 -595
3 -121 -11 -319 -18 -575 -20 -214 -2 -439 -8 -500 -14 -167 -16 -1252 -50
-1614 -50 l-244 0 7 53 c3 28 6 61 6 72 0 18 5 20 35 17 32 -4 41 1 75 38 71
77 88 144 55 214 -24 51 -77 82 -115 69z m74 -64 c44 -52 31 -126 -34 -197
-30 -34 -70 -43 -70 -17 0 9 7 29 15 45 18 34 2 53 -20 24 -13 -18 -14 -16
-16 16 -2 49 0 59 23 113 17 40 25 47 48 47 19 0 37 -10 54 -31z m-2513 -123
c16 -35 3 -73 -31 -91 -43 -22 -49 -19 -40 21 21 90 49 118 71 70z"/>
<path d="M3491 7034 c-25 -32 -27 -76 -5 -95 14 -11 25 -9 75 19 l59 33 0 -46
c0 -36 6 -52 25 -71 20 -20 28 -23 45 -14 27 15 25 30 -4 30 -29 0 -36 16 -36
86 0 46 -3 54 -19 54 -10 0 -32 7 -47 15 -42 22 -70 18 -93 -11z m73 -17 c16
-11 13 -15 -23 -35 -35 -20 -41 -21 -41 -7 0 24 19 55 33 55 7 0 21 -6 31 -13z"/>
<path d="M5612 7004 c-46 -68 -55 -173 -17 -188 19 -7 30 13 16 27 -23 23 -4
111 32 153 20 23 25 25 50 13 20 -9 31 -9 38 -2 8 8 3 16 -19 27 -49 26 -67
20 -100 -30z"/>
<path d="M7018 7008 c-70 -75 -70 -75 -60 -95 5 -10 15 -31 23 -48 17 -36 61
-44 124 -24 22 7 47 12 55 11 9 -2 29 20 47 50 17 29 43 64 57 77 22 21 28 22
42 10 14 -11 15 -27 9 -107 -6 -77 -5 -94 6 -90 16 5 27 66 28 146 1 39 -4 57
-19 72 -29 29 -54 25 -93 -15 -19 -19 -41 -35 -50 -35 -10 0 -19 -11 -23 -27
-3 -16 -7 -32 -8 -37 -3 -11 -82 -36 -117 -36 -47 0 -55 65 -11 80 105 39 125
57 92 90 -31 31 -58 24 -102 -22z m76 3 c3 -4 -6 -13 -20 -20 -38 -17 -49 -13
-23 9 27 22 35 24 43 11z"/>
<path d="M7818 7030 c-46 -25 -68 -55 -68 -96 0 -69 73 -115 181 -113 68 1 99
10 113 31 16 26 0 32 -38 14 -67 -32 -188 -12 -215 36 -23 41 -7 76 45 100 62
27 95 14 37 -15 -24 -12 -43 -27 -43 -34 0 -19 14 -16 70 12 57 29 67 59 24
75 -37 14 -64 12 -106 -10z"/>
<path d="M6395 7028 c-11 -6 -32 -22 -47 -35 -14 -14 -31 -22 -36 -19 -17 10
-26 -16 -11 -28 8 -6 15 -24 17 -41 4 -44 53 -85 100 -85 28 0 39 4 39 15 0
10 -11 15 -34 15 -36 0 -73 29 -73 58 0 13 14 20 61 29 70 13 109 36 109 63 0
36 -79 54 -125 28z m83 -30 c-5 -14 -85 -40 -108 -35 -10 2 -3 11 20 25 38 24
94 30 88 10z"/>
<path d="M7528 7024 c-54 -29 -82 -134 -45 -171 21 -22 131 -30 181 -13 60 19
41 28 -53 23 -82 -5 -90 -3 -104 17 -20 29 -7 77 29 108 24 21 28 22 36 8 12
-22 28 -11 28 20 0 29 -29 32 -72 8z"/>
<path d="M4236 7008 c-8 -13 -20 -43 -26 -68 -7 -25 -17 -51 -23 -58 -7 -9 -7
-16 1 -24 18 -18 31 0 52 72 23 78 37 86 84 49 41 -32 56 -9 16 25 -40 33 -84
35 -104 4z"/>
<path d="M6103 7009 c-53 -20 -80 -49 -89 -97 -10 -48 19 -71 111 -85 87 -14
118 -12 112 6 -2 6 -43 17 -92 23 -91 12 -109 23 -99 59 11 36 41 57 105 75
35 9 64 21 64 26 0 17 -60 13 -112 -7z"/>
<path d="M3095 6996 c-43 -19 -66 -49 -72 -94 -9 -67 40 -101 132 -93 37 3 49
11 37 23 -15 15 -16 32 -2 23 6 -3 10 -1 10 4 0 17 -40 13 -46 -4 -8 -20 -68
-20 -88 1 -28 27 -18 39 50 59 36 11 73 28 82 38 16 18 15 20 -7 38 -27 22
-54 23 -96 5z m69 -24 c3 -5 -17 -16 -44 -24 -56 -18 -68 -5 -17 17 37 16 54
18 61 7z"/>
<path d="M5835 6981 c-159 -92 -139 -207 33 -186 77 9 92 14 92 31 0 12 -7 14
-27 10 -119 -23 -177 -14 -171 27 2 16 22 32 71 58 76 40 102 62 93 78 -11 18
-38 13 -91 -18z"/>
<path d="M3330 6967 c-43 -15 -61 -49 -58 -107 3 -53 27 -62 42 -17 8 21 7 30
-4 37 -11 7 -11 13 4 34 16 25 34 31 88 27 25 -2 46 13 31 22 -22 13 -72 15
-103 4z"/>
<path d="M6186 6388 c-3 -7 -7 -35 -9 -63 -3 -27 -11 -85 -18 -127 l-14 -78
-37 0 c-44 0 -88 -15 -88 -30 0 -7 20 -9 60 -4 38 4 60 3 60 -3 0 -6 -7 -50
-15 -97 -9 -48 -13 -92 -9 -97 10 -16 34 11 34 38 0 13 5 55 11 93 l12 69 51
3 c62 4 63 22 1 26 -52 4 -53 7 -30 112 17 76 19 156 5 165 -6 3 -12 0 -14 -7z"/>
<path d="M4334 6256 c-109 -38 -184 -74 -185 -88 0 -7 -4 -3 -9 10 -19 45 -30
23 -24 -45 4 -47 1 -86 -10 -128 -21 -78 -22 -165 -1 -165 11 0 15 12 15 44 0
78 10 106 36 106 14 0 64 20 113 44 57 29 96 43 110 39 16 -4 21 -1 21 16 0
33 -37 27 -139 -24 -50 -25 -97 -45 -104 -45 -17 0 -10 109 9 127 15 16 137
69 203 89 25 7 56 11 69 7 20 -5 23 -2 20 13 -5 28 -43 28 -124 0z"/>
<path d="M3397 6203 c-4 -21 -13 -67 -21 -103 -20 -87 -21 -184 -1 -200 8 -7
15 -11 15 -9 1 2 2 45 4 94 3 50 11 116 20 148 20 71 20 107 2 107 -8 0 -16
-15 -19 -37z"/>
<path d="M6383 6140 c-44 -26 -42 -51 6 -90 49 -38 59 -65 34 -92 -15 -17 -25
-19 -68 -13 l-49 6 18 -20 c28 -31 86 -28 120 5 38 38 33 67 -19 123 l-45 48
30 13 c16 7 30 19 30 26 0 19 -19 17 -57 -6z"/>
<path d="M5595 6118 c-31 -17 -85 -71 -85 -85 0 -7 -10 -21 -22 -33 -19 -17
-19 -35 0 -35 4 0 19 -13 34 -28 30 -30 72 -35 127 -16 29 10 44 39 20 39 -8
0 -8 4 0 14 17 20 -3 30 -28 14 -12 -7 -20 -19 -18 -27 2 -18 -24 -25 -58 -17
-42 11 -35 31 25 75 67 49 74 61 54 90 -17 24 -21 25 -49 9z m-9 -63 c-22 -19
-42 -32 -45 -29 -8 8 56 64 72 64 6 -1 -6 -16 -27 -35z"/>
<path d="M4870 6078 c-23 -18 -49 -46 -59 -63 -9 -16 -19 -32 -22 -35 -18 -16
-62 -338 -49 -354 11 -12 30 2 30 22 0 9 12 62 25 116 14 55 25 120 24 145 -3
58 28 121 72 149 36 22 55 20 64 -8 9 -29 -19 -81 -69 -130 -48 -46 -55 -60
-33 -60 21 0 125 114 133 144 12 50 -17 106 -56 106 -10 0 -37 -15 -60 -32z"/>
<path d="M5321 6055 c-60 -54 -115 -198 -71 -183 6 2 25 37 43 77 37 86 77
125 103 100 13 -14 13 -22 -7 -75 -12 -32 -26 -65 -31 -71 -6 -7 -8 -20 -4
-28 13 -35 32 -10 59 74 30 93 28 121 -9 135 -29 11 -44 6 -83 -29z"/>
<path d="M5811 6055 c-21 -19 -43 -35 -50 -35 -6 0 -25 -28 -42 -61 -23 -47
-28 -64 -19 -73 9 -8 14 -8 17 2 9 23 94 131 120 152 47 37 55 28 51 -57 -2
-63 0 -78 12 -80 12 -3 15 12 18 78 1 50 -2 87 -9 95 -20 24 -57 15 -98 -21z"/>
<path d="M4490 6050 c0 -5 19 -27 42 -49 24 -22 41 -41 38 -43 -3 -2 -29 -21
-57 -42 -51 -36 -64 -58 -44 -71 6 -3 13 1 18 8 4 8 31 30 59 50 l51 36 30
-32 c16 -18 37 -45 47 -60 19 -31 40 -27 30 6 -3 12 -23 42 -42 66 -21 26 -32
46 -25 48 22 8 93 63 93 73 0 17 -18 11 -75 -25 l-55 -36 -44 41 c-42 39 -66
50 -66 30z"/>
<path d="M5099 6037 c-20 -8 -28 -21 -38 -64 -16 -69 -4 -88 47 -79 70 11 98
78 47 112 -14 9 -23 20 -20 24 9 14 -8 17 -36 7z m41 -62 c17 -21 7 -41 -25
-49 -35 -9 -37 -6 -24 32 12 35 29 41 49 17z"/>
<path d="M3500 5938 l-19 -43 22 -17 c12 -10 25 -18 28 -18 7 0 19 61 19 98 0
37 -29 25 -50 -20z"/>
<path d="M4355 5946 c-111 -36 -205 -78 -205 -93 0 -18 0 -18 142 36 59 23
123 41 142 41 37 0 48 13 20 24 -23 9 -54 6 -99 -8z"/>
<path d="M5539 5523 c-1 -5 -3 -26 -4 -48 -1 -22 -12 -79 -26 -127 l-24 -88
-42 0 c-52 0 -96 -16 -90 -33 2 -6 11 -10 18 -8 35 9 109 13 109 5 0 -5 -5
-40 -10 -78 -6 -38 -8 -78 -4 -88 9 -30 28 -15 30 23 0 19 4 60 8 92 l7 57 82
0 c63 0 78 -3 69 -12 -20 -20 -13 -52 18 -80 33 -28 39 -62 14 -72 -22 -8 -67
4 -81 23 -17 24 -28 5 -13 -23 17 -33 80 -45 115 -22 36 24 34 74 -5 111 -35
34 -30 45 42 81 26 13 48 28 48 34 0 18 -20 20 -51 5 -22 -12 -57 -16 -126
-16 -53 0 -98 3 -101 6 -3 2 7 46 22 98 27 95 31 124 20 151 -6 16 -23 22 -25
9z"/>
<path d="M7613 5418 c7 -105 -4 -166 -45 -233 -30 -50 -33 -52 -43 -32 -5 12
-23 28 -37 37 -25 13 -30 13 -55 -2 -40 -24 -64 -75 -61 -128 2 -34 7 -46 21
-48 34 -7 68 8 114 51 94 87 152 218 140 319 -3 26 -2 50 3 53 14 9 -10 65
-27 65 -14 0 -15 -12 -10 -82z m-131 -260 c35 -28 31 -54 -14 -87 -23 -17 -48
-31 -56 -31 -22 0 -8 77 19 106 26 28 30 28 51 12z"/>
<path d="M4896 5453 c-2 -16 -8 -64 -11 -108 -14 -168 -46 -254 -103 -276 -35
-14 -47 1 -34 41 13 36 49 69 75 70 9 0 17 7 17 15 0 27 -40 16 -81 -22 -48
-45 -62 -99 -33 -127 43 -43 140 28 163 120 11 43 41 259 41 297 0 28 -28 19
-34 -10z"/>
<path d="M6862 5403 c-11 -27 -25 -72 -31 -102 -16 -76 -43 -132 -86 -180 -46
-51 -65 -53 -65 -8 0 22 11 49 31 77 40 55 25 76 -19 26 -54 -62 -63 -152 -16
-170 21 -8 60 15 96 58 l27 31 7 -42 c9 -60 37 -87 82 -79 39 6 68 28 58 44
-4 7 -16 6 -34 -4 -37 -19 -49 -18 -63 9 -20 37 -12 116 26 237 19 63 35 123
35 133 0 34 -28 16 -48 -30z"/>
<path d="M4266 5425 c-79 -22 -146 -84 -132 -122 7 -17 8 -17 21 0 11 16 13
16 19 1 3 -8 6 -49 6 -90 l0 -74 -34 0 c-24 0 -39 7 -49 21 -17 23 -29 13 -20
-19 6 -23 60 -46 86 -36 17 6 16 -6 -9 -87 -13 -41 -17 -46 -39 -41 -33 6 -32
-16 1 -28 45 -18 50 -13 73 83 22 89 24 94 64 120 99 63 207 182 207 228 0 45
-108 69 -194 44z m127 -26 c20 -5 37 -13 37 -18 0 -4 -13 -28 -30 -53 -28 -43
-87 -98 -157 -147 l-33 -22 -1 48 c-1 26 -1 67 -1 90 1 32 -3 43 -16 45 -37 8
88 65 148 67 8 1 32 -4 53 -10z"/>
<path d="M3353 5340 c-51 -29 -74 -64 -58 -89 10 -17 25 -13 25 7 0 22 22 43
67 66 41 21 53 20 53 -1 0 -50 -110 -224 -153 -244 -39 -18 -87 -109 -57 -109
6 0 26 18 46 40 20 22 40 40 44 40 4 0 12 -16 17 -36 12 -54 37 -66 93 -47 51
17 75 36 66 52 -5 7 -20 4 -46 -9 -52 -27 -69 -25 -80 8 -6 15 -15 35 -21 45
-8 15 -3 29 31 73 94 124 118 234 51 234 -14 0 -50 -14 -78 -30z"/>
<path d="M8417 5356 c-4 -9 -3 -18 2 -20 13 -8 52 6 48 18 -6 17 -44 19 -50 2z"/>
<path d="M8120 5346 c0 -25 12 -46 26 -46 16 0 16 5 8 38 -7 24 -34 31 -34 8z"/>
<path d="M9162 5318 c-63 -49 -97 -100 -84 -124 5 -9 31 -28 58 -43 74 -40 71
-80 -8 -102 -29 -7 -44 -7 -51 0 -17 17 -27 13 -27 -9 0 -26 36 -35 88 -21
109 30 115 108 11 161 -21 11 -39 27 -39 35 0 7 29 39 65 71 35 31 62 61 59
65 -8 14 -16 11 -72 -33z"/>
<path d="M7724 5315 c-7 -18 3 -35 20 -35 14 0 28 35 18 44 -10 11 -33 6 -38
-9z"/>
<path d="M8850 5234 c-25 -14 -54 -34 -66 -45 -21 -19 -21 -19 -16 12 7 49
-20 32 -35 -22 -7 -24 -22 -63 -34 -85 -21 -39 -21 -74 0 -74 5 0 14 15 20 33
12 36 101 131 144 153 25 13 27 13 27 -4 0 -10 -11 -46 -25 -80 -14 -34 -25
-68 -25 -77 0 -18 41 -20 58 -3 16 16 15 29 0 26 -17 -4 -16 5 10 85 16 51 19
73 12 88 -13 24 -16 24 -70 -7z"/>
<path d="M6319 5217 c-46 -30 -101 -114 -97 -146 3 -23 7 -26 39 -25 23 1 53
13 83 33 47 32 47 32 41 8 -13 -51 17 -42 76 24 l58 64 -6 -56 c-5 -47 -3 -57
12 -63 18 -6 45 9 45 25 0 5 -7 9 -15 9 -12 0 -14 11 -8 60 5 54 4 60 -13 60
-10 0 -38 -19 -62 -42 l-43 -43 7 43 c6 38 4 42 -13 42 -12 0 -26 7 -33 15
-17 20 -31 19 -71 -8z m61 -41 c0 -39 -105 -124 -127 -103 -8 9 44 94 69 112
34 23 58 19 58 -9z"/>
<path d="M7890 5164 c-12 -36 -37 -85 -56 -110 -34 -44 -38 -69 -9 -58 21 9
72 89 90 144 9 27 22 51 30 54 20 7 7 36 -15 36 -14 0 -24 -17 -40 -66z"/>
<path d="M8600 5221 c-8 -4 -33 -17 -54 -27 -65 -32 -123 -127 -96 -159 17
-20 46 -19 100 6 63 28 89 56 97 102 4 27 12 41 24 44 28 8 23 33 -5 33 -13 0
-30 2 -38 4 -7 3 -20 1 -28 -3z m13 -64 c4 3 7 -2 7 -11 0 -26 -52 -70 -100
-85 -23 -7 -44 -10 -47 -7 -10 10 42 87 71 106 27 17 33 17 47 4 8 -8 19 -11
22 -7z"/>
<path d="M5251 5204 c-45 -32 -68 -137 -36 -164 35 -29 155 -1 155 36 0 11 -6
10 -35 -2 -19 -7 -50 -14 -70 -14 -31 0 -35 3 -35 25 0 45 27 94 55 101 14 3
24 11 22 18 -6 18 -30 18 -56 0z"/>
<path d="M8166 5199 c-40 -32 -32 -67 22 -97 36 -20 41 -26 31 -39 -18 -21
-61 -40 -81 -36 -22 5 -24 -25 -3 -33 35 -14 125 48 125 85 0 14 -13 27 -39
41 -54 27 -59 39 -27 62 14 11 24 24 20 29 -8 14 -19 11 -48 -12z"/>
<path d="M4970 5158 c-37 -81 -19 -178 34 -178 35 0 106 83 106 124 0 30 -25
15 -44 -25 -22 -49 -63 -80 -77 -58 -12 20 -11 83 2 112 8 18 17 23 31 19 16
-4 19 0 16 19 -2 16 -11 25 -26 27 -18 3 -26 -5 -42 -40z"/>
<path d="M4537 5184 c-3 -3 -1 -16 5 -29 9 -20 6 -28 -16 -52 -34 -36 -35 -79
-2 -94 31 -14 87 -4 118 20 19 16 21 23 13 43 -12 28 -109 121 -118 112z m77
-103 c20 -22 7 -37 -41 -47 -39 -8 -50 9 -29 41 20 30 47 32 70 6z"/>
<path d="M4398 5166 c-8 -7 -22 -40 -32 -72 -19 -64 -11 -114 19 -114 17 0 19
13 5 39 -6 12 -4 34 7 70 15 45 20 51 41 49 34 -4 38 16 7 30 -32 15 -31 15
-47 -2z"/>
<path d="M7661 5148 c-6 -18 -12 -58 -13 -88 -2 -44 0 -55 13 -58 14 -2 18 9
22 65 3 37 8 78 12 91 5 16 3 22 -8 22 -9 0 -20 -14 -26 -32z"/>
<path d="M8007 5173 c-2 -5 -10 -34 -17 -66 -10 -41 -10 -61 -3 -68 15 -15 32
-3 27 19 -3 9 2 37 10 61 15 42 14 61 -4 61 -5 0 -11 -3 -13 -7z"/>
<path d="M8326 5130 c-30 -56 -32 -103 -3 -108 21 -4 35 27 17 38 -10 6 -7 19
14 55 29 54 32 65 13 65 -8 0 -26 -23 -41 -50z"/>
<path d="M7765 5139 c-9 -13 2 -88 15 -109 15 -24 35 2 21 28 -6 11 -11 34
-11 51 0 32 -14 49 -25 30z"/>
<path d="M3588 5046 c-6 -15 -8 -29 -5 -32 12 -12 37 5 37 25 0 31 -19 35 -32
7z"/>
<path d="M9837 4673 c-4 -3 -7 -27 -8 -52 0 -25 -13 -84 -28 -131 l-29 -85
-43 -7 c-64 -9 -105 -26 -92 -39 7 -7 22 -7 49 0 75 21 75 23 31 -109 -22 -67
-37 -123 -34 -127 11 -11 36 18 43 50 3 18 20 69 36 114 l30 82 45 3 c27 2 48
9 51 16 3 9 -6 12 -32 10 -19 -1 -38 1 -42 4 -3 4 8 51 25 105 17 54 31 110
31 124 0 27 -22 54 -33 42z"/>
<path d="M8529 4658 c0 -1 -2 -30 -3 -63 -3 -64 -38 -177 -88 -287 l-30 -66
21 -23 21 -23 55 19 c31 10 73 34 96 53 35 30 40 39 37 71 -3 33 -7 37 -41 45
-26 7 -48 6 -68 -1 -16 -6 -29 -10 -29 -9 0 1 12 36 26 77 28 82 38 199 17
206 -7 3 -13 3 -14 1z m79 -325 c5 -36 -97 -101 -139 -88 -29 9 -23 24 27 72
37 36 51 44 77 41 24 -2 33 -8 35 -25z"/>
<path d="M4520 4613 c1 -4 5 -28 10 -53 10 -54 -9 -180 -41 -263 -19 -49 -23
-54 -39 -44 -24 14 -63 -3 -85 -37 -34 -51 -14 -137 26 -121 26 10 90 102 119
172 58 140 74 342 27 351 -9 2 -17 0 -17 -5z m-73 -398 c5 -15 -57 -86 -68
-79 -11 7 -3 39 18 72 14 23 43 27 50 7z"/>
<path d="M4770 4595 c-6 -14 -10 -46 -10 -69 0 -79 -69 -243 -97 -232 -23 9
-100 -40 -118 -74 -19 -36 -19 -94 -1 -109 23 -19 127 95 177 195 24 48 38 87
34 95 -6 8 -4 10 5 4 10 -6 12 -4 7 8 -3 9 -2 17 3 19 11 4 30 95 30 144 0 42
-17 53 -30 19z m-151 -391 c-54 -55 -71 -57 -50 -6 13 30 55 61 84 62 14 0 5
-15 -34 -56z"/>
<path d="M5125 4608 c-14 -46 -48 -157 -72 -236 -29 -99 -49 -121 -95 -106
-16 5 -19 2 -16 -13 3 -14 11 -17 37 -15 28 2 32 0 26 -15 -4 -10 -14 -37 -22
-60 -8 -24 -19 -45 -24 -49 -15 -9 -10 -34 6 -34 17 0 35 33 59 107 9 28 23
54 31 57 31 11 135 18 135 9 0 -6 -9 -32 -21 -57 -16 -38 -18 -50 -8 -62 13
-16 22 -12 25 13 2 10 10 34 19 54 9 20 15 47 13 60 -3 23 -6 24 -81 22 -70
-2 -78 0 -72 15 17 44 54 196 49 203 -3 5 -1 9 3 9 11 0 44 90 37 101 -8 13
-24 11 -29 -3z"/>
<path d="M4247 4578 c-29 -39 -69 -117 -97 -190 -18 -45 -76 -170 -126 -271
-18 -36 -18 -47 0 -47 14 0 31 30 74 131 21 48 41 59 114 59 l30 0 -6 -63 c-7
-63 -1 -101 14 -92 5 3 11 39 15 80 5 54 11 75 21 75 17 0 18 12 4 26 -7 7 -7
39 0 100 16 143 12 224 -11 224 -4 0 -19 -15 -32 -32z m13 -175 l-12 -113 -53
0 -53 0 33 78 c18 43 45 103 61 133 36 69 40 52 24 -98z"/>
<path d="M8975 4577 c-8 -20 -15 -40 -15 -44 0 -4 -16 -48 -34 -98 l-35 -90
-54 -6 c-58 -6 -77 -14 -77 -30 0 -6 23 -7 62 -3 57 7 61 6 54 -12 -14 -37
-46 -159 -46 -176 0 -35 29 -19 35 20 4 20 16 67 27 103 19 64 21 66 61 75 54
12 66 40 13 31 -20 -3 -36 -3 -36 1 0 4 19 60 41 125 31 88 39 121 31 129 -9
9 -15 2 -27 -25z"/>
<path d="M7452 4473 c-11 -27 -29 -78 -41 -115 -25 -75 -55 -121 -126 -190
-49 -49 -78 -60 -88 -34 -9 23 11 81 38 110 14 15 25 34 25 44 0 11 3 13 11 5
14 -14 49 -5 49 13 0 39 -94 -12 -128 -68 -28 -47 -35 -87 -22 -119 22 -53 57
-47 138 26 45 40 53 44 58 28 15 -49 42 -66 69 -43 23 19 18 33 -10 26 -24 -6
-25 -4 -25 38 0 29 17 85 51 170 47 117 54 156 31 156 -5 0 -19 -21 -30 -47z"/>
<path d="M3258 4472 c-16 -9 -28 -22 -28 -29 0 -23 19 -24 41 -2 20 20 27 21
108 14 47 -4 92 -10 99 -14 8 -5 -15 -23 -63 -50 -69 -40 -86 -61 -49 -61 25
0 111 -48 118 -65 12 -33 6 -83 -15 -109 -31 -40 -71 -56 -139 -56 -47 0 -64
4 -81 21 -22 22 -49 19 -49 -5 0 -22 74 -46 141 -46 102 0 168 50 183 140 8
45 -21 94 -69 117 -19 9 -35 19 -35 22 0 3 29 24 65 46 92 56 88 69 -29 83
-127 16 -166 15 -198 -6z"/>
<path d="M10080 4471 c0 -11 9 -23 21 -26 28 -9 33 -1 17 24 -16 26 -38 27
-38 2z"/>
<path d="M5307 4473 c-13 -12 -7 -41 8 -47 18 -6 30 16 21 39 -6 16 -18 19
-29 8z"/>
<path d="M4901 4451 c-15 -10 -11 -43 6 -48 6 -2 16 5 22 15 13 24 -7 46 -28
33z"/>
<path d="M10764 4431 c-40 -25 -74 -68 -74 -96 0 -12 16 -44 35 -71 19 -27 35
-54 35 -60 0 -16 -47 -35 -102 -41 -58 -7 -59 -27 -2 -31 53 -4 128 34 132 67
2 15 -10 43 -33 77 -26 37 -35 59 -30 73 8 26 65 71 89 71 21 0 16 24 -5 28
-8 1 -28 -6 -45 -17z"/>
<path d="M5963 4404 c-45 -35 -43 -64 7 -104 45 -36 49 -56 19 -94 -17 -22
-24 -24 -41 -15 -31 17 -45 -5 -17 -25 33 -23 43 -20 78 19 44 51 42 87 -9
132 -22 20 -40 40 -40 44 0 4 16 16 36 28 19 12 32 26 29 31 -10 16 -28 12
-62 -16z"/>
<path d="M8056 4338 c6 -73 6 -73 -32 -125 -39 -52 -39 -52 -45 -25 -3 15 -10
26 -16 25 -6 -1 -9 12 -7 32 1 19 -2 35 -7 35 -5 0 -9 -5 -9 -11 0 -5 -4 -7
-10 -4 -15 9 -12 -28 4 -51 8 -11 16 -33 18 -49 2 -24 8 -30 28 -30 17 0 34
14 61 49 46 61 63 118 50 164 -10 33 -9 34 15 28 21 -6 25 -4 22 11 -2 13 -14
19 -41 21 l-37 3 6 -73z"/>
<path d="M9130 4373 c-18 -14 -42 -42 -54 -62 -31 -48 -58 -143 -46 -155 15
-15 30 6 36 45 8 49 44 117 78 146 23 19 37 24 63 20 23 -4 33 -2 33 8 0 34
-69 33 -110 -2z"/>
<path d="M8333 4378 c-6 -7 -13 -31 -16 -53 -5 -28 -17 -50 -42 -72 -48 -45
-59 -43 -53 12 4 34 2 45 -8 45 -8 0 -16 -11 -19 -25 -3 -14 -7 -36 -10 -49
-3 -14 1 -29 10 -36 39 -33 139 38 150 107 3 21 10 45 15 54 14 27 -9 40 -27
17z"/>
<path d="M9526 4349 c-88 -74 -88 -186 1 -213 27 -9 99 12 116 32 10 13 6 14
-33 8 -93 -16 -120 -5 -120 47 0 34 33 93 61 108 11 5 17 13 15 18 -3 4 9 5
26 3 23 -4 29 -1 26 9 -9 27 -52 21 -92 -12z"/>
<path d="M10485 4362 c-11 -9 -35 -34 -53 -55 -31 -36 -32 -37 -26 -11 5 20 4
25 -7 22 -8 -3 -13 -13 -12 -22 0 -10 -2 -15 -5 -11 -8 8 -53 -117 -47 -133 7
-20 20 -8 70 67 26 38 55 77 66 87 20 18 20 17 -1 -39 -25 -68 -24 -130 3
-135 16 -3 17 1 12 31 -5 26 0 56 19 108 38 105 31 135 -19 91z"/>
<path d="M10220 4339 c0 -12 -11 -30 -25 -41 -35 -28 -58 -75 -50 -105 5 -23
9 -25 47 -20 50 7 92 36 96 67 5 29 -37 120 -55 120 -7 0 -13 -9 -13 -21z m34
-75 c11 -27 7 -33 -30 -49 -61 -25 -70 -15 -33 36 22 32 53 38 63 13z"/>
<path d="M5676 4315 c-26 -19 -50 -35 -55 -35 -10 0 -36 -38 -63 -90 -22 -42
-22 -50 -3 -50 8 0 37 31 65 69 50 68 101 111 134 111 25 0 20 -31 -20 -113
-36 -76 -41 -122 -15 -122 20 0 40 36 24 42 -9 3 -3 23 19 66 17 34 35 75 39
91 21 73 -48 90 -125 31z"/>
<path d="M9269 4313 c-48 -43 -69 -81 -69 -122 0 -53 41 -51 119 7 30 23 33
23 27 5 -10 -31 10 -73 34 -73 23 0 25 8 6 33 -13 17 -10 54 9 98 13 33 -17
31 -53 -3 -47 -44 -102 -82 -109 -75 -16 16 13 71 58 110 27 23 49 45 49 50 0
18 -33 4 -71 -30z"/>
<path d="M10035 4320 c-7 -11 -42 -141 -52 -192 -4 -21 -1 -28 10 -28 10 0 21
25 36 78 12 43 21 86 21 95 0 9 5 19 10 22 6 3 10 13 10 21 0 16 -26 19 -35 4z"/>
<path d="M5455 4278 c11 -49 8 -69 -13 -97 -26 -35 -76 -36 -80 -3 -5 30 23
72 48 72 13 0 18 5 14 15 -4 8 -17 15 -30 15 -30 0 -64 -51 -64 -96 0 -94 106
-88 157 10 12 24 13 36 3 72 -8 27 -18 44 -28 44 -11 0 -13 -7 -7 -32z"/>
<path d="M6833 4294 c-18 -9 -51 -36 -73 -61 -33 -35 -41 -50 -38 -76 4 -44
37 -47 91 -10 70 47 67 47 61 13 -9 -42 6 -38 64 18 27 26 59 56 71 66 l22 20
-3 -85 c-3 -80 -2 -84 20 -87 23 -3 30 12 11 23 -6 5 -8 31 -3 76 7 71 -2 99
-32 99 -8 0 -35 -19 -61 -42 -32 -30 -42 -36 -34 -20 7 13 10 31 6 39 -5 13
-13 10 -43 -19 -42 -40 -121 -98 -134 -98 -21 0 -4 35 38 76 38 38 50 45 75
42 36 -6 49 10 24 29 -23 16 -23 16 -62 -3z"/>
<path d="M4815 4247 c-20 -37 -15 -87 9 -87 18 0 25 20 19 52 -3 14 0 29 6 32
16 10 14 36 -2 36 -8 0 -22 -15 -32 -33z"/>
<path d="M3572 4128 c-16 -16 -15 -35 1 -45 6 -4 12 -15 12 -23 0 -8 10 -16
23 -18 28 -4 31 32 3 48 -13 6 -17 17 -14 30 6 22 -7 26 -25 8z"/>
<path d="M10303 3806 c-22 -20 -25 -27 -16 -37 10 -10 18 -8 37 10 26 24 56
23 56 -2 0 -17 -56 -70 -96 -90 -40 -20 -58 -43 -50 -63 5 -14 10 -13 40 5 41
26 46 26 46 2 0 -33 26 -51 59 -41 46 13 69 29 76 51 10 32 -1 34 -35 5 -43
-36 -66 -34 -74 5 -5 27 -1 37 29 66 39 38 45 71 17 96 -26 24 -56 21 -89 -7z"/>
<path d="M6804 3776 c-37 -16 -50 -34 -36 -48 6 -6 21 -2 43 11 83 51 108 4
37 -68 -23 -23 -59 -52 -80 -63 -56 -32 -51 -70 5 -41 30 15 32 15 52 -11 11
-14 30 -26 42 -26 28 0 76 18 85 33 13 21 -2 26 -37 11 -46 -19 -50 -18 -69
11 -16 25 -16 26 19 57 20 17 43 44 51 60 34 65 -33 109 -112 74z"/>
<path d="M11259 3570 c-44 -23 -89 -74 -89 -100 0 -33 33 -42 87 -24 26 9 52
20 58 25 22 21 19 3 -17 -103 -41 -124 -45 -155 -23 -184 17 -22 17 -23 20 41
3 57 44 183 86 267 46 91 35 103 -38 38 -45 -39 -100 -64 -128 -58 -14 3 -14
5 0 26 21 29 78 59 83 43 5 -16 29 -14 36 4 8 22 -4 45 -23 45 -9 -1 -32 -10
-52 -20z"/>
<path d="M7985 3561 c-34 -7 -43 -38 -10 -33 11 1 49 4 85 7 65 5 65 5 38 -13
-129 -84 -137 -106 -41 -110 85 -3 103 -9 103 -33 0 -26 -65 -96 -111 -120
-64 -32 -119 -21 -119 24 0 29 -25 14 -28 -17 -5 -40 14 -56 67 -56 87 0 189
71 221 154 14 39 -2 64 -48 71 -98 16 -99 17 -16 70 79 51 73 65 -28 64 -46
-1 -96 -4 -113 -8z"/>
<path d="M5483 3552 c-24 -2 -43 -7 -43 -11 0 -5 -25 -21 -55 -35 -49 -25 -95
-66 -95 -87 0 -4 7 -15 16 -23 11 -12 36 -16 95 -16 78 0 119 -11 119 -31 0
-15 -89 -68 -135 -80 -22 -6 -46 -16 -53 -21 -7 -6 -28 -8 -48 -5 -29 5 -35 3
-32 -11 4 -23 61 -28 103 -8 18 9 38 16 44 16 7 0 29 9 50 20 150 76 131 150
-39 150 -63 0 -80 3 -80 15 0 28 152 96 210 94 14 0 54 2 90 6 36 3 83 7 105
8 22 1 39 7 38 12 -3 10 -203 15 -290 7z"/>
<path d="M7730 3522 c0 -22 -9 -65 -20 -98 -44 -128 -64 -260 -38 -252 7 3 17
36 24 74 6 38 23 106 38 152 30 95 34 162 11 162 -11 0 -15 -11 -15 -38z"/>
<path d="M10010 3551 c-23 -4 -36 -12 -38 -25 -3 -16 0 -18 22 -12 14 3 54 9
88 12 l63 7 -39 -35 c-44 -38 -42 -54 4 -56 51 -1 80 -26 80 -70 0 -107 -133
-181 -196 -109 -14 16 -24 41 -24 58 0 36 -17 38 -26 3 -15 -58 48 -124 118
-124 48 1 105 37 133 85 48 81 33 149 -39 180 l-30 13 35 21 c18 11 40 21 47
21 6 0 12 6 12 14 0 23 -120 33 -210 17z"/>
<path d="M6427 3544 c-4 -4 -7 -13 -7 -21 0 -10 19 -13 76 -13 l76 0 -44 -33
c-69 -53 -57 -76 45 -92 24 -4 43 -14 53 -30 15 -23 15 -27 -3 -57 -27 -46
-132 -100 -187 -96 -38 3 -41 5 -38 31 3 30 -21 39 -32 11 -18 -47 9 -74 72
-74 88 0 211 77 228 144 13 53 -44 106 -115 106 -17 0 -31 4 -31 10 0 13 83
60 132 75 81 23 58 35 -70 35 -66 0 -127 2 -134 5 -8 3 -17 2 -21 -1z"/>
<path d="M7244 3488 c-5 -7 -9 -15 -9 -18 -13 -94 -17 -117 -23 -126 -4 -6
-29 -10 -56 -10 -70 1 -71 -20 -1 -29 l55 -6 0 -45 c0 -32 4 -44 15 -44 11 0
15 12 15 50 l0 50 85 0 c69 0 85 3 85 15 0 12 -16 15 -80 15 -90 0 -86 -5 -69
84 11 59 1 94 -17 64z"/>
<path d="M2784 3450 c-28 -16 -63 -43 -77 -59 -16 -20 -35 -31 -51 -31 -30 0
-35 -17 -8 -28 13 -5 17 -19 17 -66 1 -51 4 -61 28 -82 32 -27 82 -32 91 -8 9
24 8 26 -21 20 -16 -3 -33 -3 -39 2 -29 19 -44 90 -26 119 4 7 36 27 70 44 65
32 96 65 90 95 -5 27 -19 26 -74 -6z m21 -30 c-7 -11 -65 -43 -65 -36 0 4 62
45 68 46 2 0 0 -5 -3 -10z"/>
<path d="M10643 3457 c-43 -16 -60 -34 -46 -48 8 -8 18 -6 37 6 18 12 36 15
61 11 31 -6 35 -4 35 14 0 11 -6 20 -14 20 -8 0 -20 2 -28 4 -7 3 -27 -1 -45
-7z"/>
<path d="M3140 3443 c-31 -12 -60 -47 -60 -74 0 -45 46 -52 102 -14 l36 24 10
-42 c17 -66 25 -144 18 -171 -5 -19 -14 -26 -48 -31 -102 -15 -138 -41 -138
-97 0 -34 18 -75 37 -82 39 -15 114 48 157 132 9 17 23 32 31 32 8 0 15 7 15
15 0 8 -4 15 -9 15 -4 0 -11 33 -14 73 -3 39 -14 104 -24 142 -15 55 -23 70
-38 72 -11 1 -29 4 -40 7 -11 3 -27 2 -35 -1z m38 -32 c11 -6 7 -13 -14 -30
-14 -11 -33 -21 -40 -21 -22 0 -16 27 8 44 26 18 28 19 46 7z m41 -323 c-19
-37 -82 -98 -101 -98 -20 0 -33 38 -23 69 6 19 40 35 95 44 14 2 29 5 33 6 4
0 3 -9 -4 -21z"/>
<path d="M5990 3375 c-13 -14 -22 -26 -19 -27 41 -25 48 -27 59 -13 13 16 10
57 -6 62 -5 2 -21 -8 -34 -22z"/>
<path d="M10650 3344 c-14 -3 -44 -7 -67 -10 -24 -3 -44 -11 -47 -21 -5 -13 3
-14 65 -8 88 9 122 18 127 33 4 12 -23 14 -78 6z"/>
<path d="M3420 3251 c-12 -24 -13 -51 -1 -51 10 0 41 45 41 60 0 17 -29 11
-40 -9z"/>
<path d="M2870 3206 c0 -16 27 -29 41 -20 19 11 9 34 -16 34 -15 0 -25 -6 -25
-14z"/>
<path d="M8563 3158 c-11 -18 -33 -39 -49 -47 -54 -25 -58 -27 -62 -39 -16
-49 118 20 139 71 19 44 -4 56 -28 15z"/>
<path d="M4460 2763 c-59 -66 -121 -166 -152 -245 -33 -81 -31 -205 3 -278 29
-62 93 -130 121 -130 27 0 23 8 -26 51 -61 54 -90 124 -89 219 0 45 7 94 17
123 36 101 156 267 192 267 18 0 16 41 -2 47 -7 2 -35 -22 -64 -54z"/>
<path d="M6014 2779 c-4 -7 7 -22 25 -36 17 -14 38 -38 46 -53 34 -66 6 -198
-67 -310 -50 -77 -175 -218 -209 -236 -16 -8 -29 -19 -29 -24 0 -13 26 -13 50
0 31 16 188 200 224 261 96 161 101 296 16 379 -33 32 -45 36 -56 19z"/>
<path d="M9795 2700 c-62 -10 -105 -26 -105 -40 0 -6 -5 -8 -11 -5 -16 11 -98
-24 -109 -46 -14 -25 1 -53 51 -100 46 -43 48 -60 13 -88 -30 -24 -65 -27 -94
-9 -24 15 -38 3 -24 -20 23 -37 128 -23 159 22 25 35 18 64 -30 115 -25 26
-45 53 -45 59 0 15 33 32 63 32 14 0 30 6 36 14 18 22 97 39 184 40 86 1 116
19 50 30 -45 7 -70 6 -138 -4z"/>
<path d="M9335 2670 c-10 -11 -21 -20 -24 -20 -4 0 -31 -21 -61 -47 -141 -124
-186 -185 -122 -168 41 11 107 24 110 21 1 -2 -4 -21 -12 -43 -8 -23 -16 -65
-18 -94 -2 -44 0 -54 15 -57 14 -3 17 4 17 44 0 26 7 71 17 100 15 49 18 52
43 47 37 -7 48 14 16 29 -30 13 -29 9 -15 67 6 27 24 60 45 83 19 21 32 43 29
48 -9 15 -20 12 -40 -10z m-74 -152 c-6 -17 -20 -27 -41 -32 -60 -11 -61 -6
-8 41 55 48 70 46 49 -9z"/>
<path d="M11087 2663 c-4 -3 -7 -12 -7 -19 0 -9 18 -11 74 -7 90 7 102 -5 44
-46 -24 -16 -58 -43 -76 -61 -28 -25 -32 -33 -22 -45 7 -8 18 -15 26 -15 27 0
84 -43 91 -68 12 -50 -77 -97 -164 -85 -37 5 -43 3 -37 -10 14 -38 108 -33
181 9 75 43 70 108 -11 160 l-48 32 38 28 c20 16 53 44 73 62 l36 32 -24 20
c-18 16 -38 20 -95 20 -40 0 -76 -3 -79 -7z"/>
<path d="M7964 2648 c-4 -7 2 -18 15 -27 73 -53 121 -94 121 -105 0 -7 -16
-34 -35 -59 -41 -54 -59 -94 -45 -102 13 -8 30 3 30 18 0 7 18 36 40 66 22 29
40 63 40 75 0 23 -33 58 -106 114 -47 36 -50 37 -60 20z"/>
<path d="M5015 2634 c-38 -8 -104 -18 -145 -22 l-75 -7 -6 -40 c-6 -32 -2 -48
18 -83 45 -78 9 -149 -64 -125 -19 6 -31 19 -38 41 -10 35 -28 38 -33 5 -5
-33 37 -73 84 -80 33 -4 45 -1 70 20 25 22 29 32 29 80 0 33 -6 61 -15 72 -8
10 -15 33 -15 52 0 31 2 33 35 33 66 -1 280 43 280 57 0 16 -34 15 -125 -3z"/>
<path d="M5708 2621 c-54 -34 -70 -68 -42 -88 24 -17 34 -17 95 6 32 13 49 15
46 8 -82 -193 -97 -268 -51 -250 9 3 12 13 9 24 -4 11 12 66 38 131 24 62 47
121 50 130 9 26 -34 68 -70 68 -16 0 -50 -13 -75 -29z m99 -17 c3 -10 -45 -35
-96 -49 -34 -10 -23 14 19 43 35 23 70 26 77 6z"/>
<path d="M7155 2633 c-40 -10 -85 -36 -85 -49 0 -18 10 -18 46 0 16 8 47 17
69 21 l40 6 -59 -54 c-32 -30 -56 -59 -53 -65 4 -5 33 -15 66 -21 69 -14 79
-23 58 -54 -28 -42 -91 -78 -151 -84 -38 -4 -56 -10 -56 -19 0 -17 58 -19 114
-3 45 12 124 81 132 116 9 33 -20 62 -68 69 -45 8 -47 16 -13 38 27 18 65 72
65 94 0 12 -62 15 -105 5z"/>
<path d="M10835 2628 c-2 -7 -6 -31 -10 -53 -9 -55 -66 -197 -85 -212 -13 -10
-12 -14 7 -34 17 -18 23 -19 26 -8 3 8 21 59 41 114 36 101 58 190 48 200 -9
9 -22 5 -27 -7z"/>
<path d="M6887 2613 c-4 -3 -7 -19 -7 -34 0 -15 -13 -58 -29 -95 -42 -101 -65
-179 -57 -200 9 -23 20 -9 35 46 7 25 28 83 46 130 41 106 51 160 32 160 -7 0
-17 -3 -20 -7z"/>
<path d="M6437 2578 c-3 -18 -10 -46 -16 -61 -10 -26 -15 -28 -54 -25 -32 2
-42 -1 -42 -12 0 -10 12 -16 37 -18 l38 -3 -15 -36 c-18 -42 -19 -63 -4 -63 6
0 20 22 32 49 l20 50 55 -2 c36 -1 56 2 59 11 3 8 -5 12 -24 12 -54 0 -75 11
-69 34 17 62 18 96 4 96 -10 0 -18 -13 -21 -32z"/>
<path d="M10301 2561 l-12 -48 -62 -9 c-45 -7 -62 -13 -62 -24 0 -16 12 -17
71 -5 l37 6 -7 -32 c-3 -18 -12 -45 -20 -61 -10 -19 -11 -30 -4 -35 18 -10 45
32 52 81 l7 44 89 7 c50 4 90 11 90 16 0 15 -48 22 -107 14 -52 -6 -55 -5 -49
12 17 42 19 83 4 83 -9 0 -19 -19 -27 -49z"/>
<path d="M7816 2502 c-92 -12 -129 -13 -160 -4 -26 7 -45 7 -50 1 -16 -15 7
-30 54 -36 45 -6 271 15 290 27 12 8 5 31 -8 29 -4 -1 -61 -9 -126 -17z"/>
<path d="M5275 2460 c-17 -19 -17 -20 10 -30 35 -13 51 0 36 29 -14 26 -23 26
-46 1z"/>
<path d="M6653 2104 c-39 -17 -62 -52 -42 -65 15 -9 29 -3 29 14 0 13 60 40
69 31 9 -9 -32 -75 -61 -97 -76 -59 -88 -70 -88 -83 0 -21 17 -17 54 11 l32
24 27 -34 c21 -27 35 -35 60 -35 37 0 107 43 107 65 0 22 -18 18 -52 -10 -41
-35 -74 -33 -98 7 l-19 32 23 26 c59 62 68 131 17 129 -14 0 -40 -7 -58 -15z"/>
<path d="M10568 2058 c-30 -10 -40 -48 -13 -48 8 0 15 5 15 11 0 6 12 9 28 7
19 -2 28 -9 30 -25 3 -18 -8 -28 -57 -53 -87 -44 -82 -83 12 -96 56 -8 97 1
97 22 0 13 -8 15 -41 10 -43 -6 -89 1 -89 13 0 4 23 18 50 30 54 24 68 49 55
98 -10 43 -33 51 -87 31z"/>
<path d="M5145 1872 c-102 -63 -196 -247 -198 -387 0 -101 40 -166 128 -206
48 -22 125 -26 125 -5 0 9 -17 15 -55 18 -62 5 -115 40 -149 98 -63 108 41
388 170 456 28 14 38 16 41 7 8 -22 25 -14 21 10 -4 29 -43 34 -83 9z"/>
<path d="M6435 1880 c-9 -14 5 -32 20 -26 8 3 15 1 17 -4 2 -4 30 -28 63 -52
109 -81 145 -192 97 -301 -36 -81 -164 -232 -197 -232 -8 0 -15 -3 -15 -7 0
-5 0 -12 0 -18 0 -56 174 115 231 226 26 53 34 79 34 123 0 107 -72 208 -193
274 -31 17 -53 24 -57 17z"/>
<path d="M3174 1851 c-79 -57 -107 -113 -107 -208 l0 -62 -43 -7 c-24 -3 -60
-3 -79 0 -28 6 -35 4 -35 -8 0 -21 40 -30 110 -23 65 6 73 -1 57 -46 -8 -24
-57 -62 -68 -53 -2 2 -16 6 -31 10 -42 10 -36 -20 6 -34 59 -19 118 23 132 95
5 27 12 34 36 39 46 9 49 8 42 -19 -8 -34 20 -65 58 -65 46 0 98 26 98 49 0
24 -46 81 -66 81 -21 0 -17 -15 12 -49 l26 -31 -27 -10 c-61 -23 -86 -7 -58
40 25 43 10 53 -60 39 -32 -5 -62 -7 -67 -4 -6 3 -10 33 -10 66 0 72 25 126
75 165 40 30 65 26 65 -11 0 -16 6 -25 16 -25 14 0 15 7 11 37 -6 33 -28 63
-47 63 -4 0 -25 -13 -46 -29z"/>
<path d="M8004 1796 c-34 -15 -50 -44 -34 -60 8 -8 16 -4 29 13 14 19 28 24
62 25 64 1 64 -23 0 -85 -55 -53 -62 -69 -31 -69 36 0 99 -39 106 -65 8 -31 1
-41 -46 -65 -51 -26 -96 -26 -110 0 -15 27 -30 25 -30 -5 0 -64 124 -60 198 8
42 39 18 110 -48 137 -16 7 -30 15 -30 19 0 4 16 22 35 41 82 80 11 154 -101
106z"/>
<path d="M11068 1763 c-3 -46 -4 -48 -35 -51 -40 -4 -43 -21 -5 -28 28 -6 28
-7 24 -59 -3 -35 0 -55 8 -60 15 -9 30 13 23 32 -3 7 -2 29 2 49 l6 37 62 -5
c71 -6 87 -2 87 18 0 11 -16 14 -71 14 l-70 0 5 50 c5 44 3 50 -14 50 -15 0
-19 -8 -22 -47z"/>
<path d="M11851 1800 c-42 -10 -66 -33 -57 -56 6 -16 8 -15 29 4 27 25 111 39
132 22 31 -26 -30 -90 -85 -90 -30 0 -24 -27 8 -38 39 -13 92 -60 92 -81 0
-31 -45 -42 -136 -35 -83 7 -98 2 -72 -24 17 -17 151 -15 193 2 45 19 61 50
41 80 -8 13 -28 34 -44 47 l-29 24 33 30 c44 39 53 76 25 104 -22 22 -66 26
-130 11z"/>
<path d="M5490 1773 c-53 -14 -90 -37 -78 -48 3 -3 38 3 77 14 43 12 85 17
106 14 46 -7 50 22 4 31 -39 8 -42 7 -109 -11z"/>
<path d="M6113 1783 c-7 -2 -13 -11 -13 -19 0 -12 9 -14 44 -9 50 8 86 0 86
-19 0 -7 -13 -25 -30 -41 -38 -36 -40 -65 -4 -65 39 0 64 -18 64 -45 0 -32
-73 -87 -109 -83 -17 2 -27 -2 -29 -13 -12 -62 143 11 169 79 14 36 -5 69 -48
84 l-33 12 26 27 c33 35 30 80 -6 90 -29 8 -100 10 -117 2z"/>
<path d="M10190 1781 c-55 -9 -110 -61 -110 -104 0 -8 14 -32 30 -53 55 -68
26 -150 -40 -112 -35 20 -46 10 -24 -20 10 -14 26 -22 45 -22 44 0 66 15 78
53 13 40 3 74 -33 118 -51 60 8 109 138 115 84 4 92 6 81 23 -7 12 -104 13
-165 2z"/>
<path d="M7686 1718 c-23 -163 -26 -210 -16 -228 13 -25 34 -15 26 12 -2 12
-1 44 4 72 19 112 21 176 5 176 -8 0 -16 -13 -19 -32z"/>
<path d="M9946 1734 c-3 -9 -6 -23 -6 -32 0 -9 -16 -54 -36 -99 -35 -83 -42
-138 -15 -138 8 0 15 14 17 36 1 21 17 67 34 105 38 84 49 144 27 144 -8 0
-18 -7 -21 -16z"/>
<path d="M11625 1709 c-4 -24 -16 -67 -26 -97 -29 -83 -34 -145 -15 -161 19
-16 18 -18 21 40 1 25 12 75 24 110 11 35 22 82 24 103 3 54 -19 58 -28 5z"/>
<path d="M7227 1657 c-10 -39 -21 -75 -26 -80 -4 -4 -24 -8 -44 -9 -56 -2 -49
-28 8 -28 38 0 45 -3 45 -19 0 -31 11 -51 27 -51 12 0 13 8 8 41 l-7 42 65 -7
c43 -4 68 -3 72 4 11 17 3 20 -69 27 -36 3 -66 9 -66 12 0 3 9 35 20 71 11 36
20 66 20 68 0 1 -8 2 -17 2 -14 0 -22 -17 -36 -73z"/>
<path d="M8777 1723 c-22 -22 -1 -28 93 -27 102 1 127 7 100 24 -17 11 -183
14 -193 3z"/>
<path d="M5325 1680 c-9 -14 9 -35 62 -71 24 -17 43 -36 43 -44 0 -20 -32 -35
-75 -35 -38 0 -43 -14 -13 -34 21 -13 104 19 119 45 16 30 3 54 -49 88 -45 29
-46 31 -19 31 18 0 27 4 25 13 -6 15 -84 22 -93 7z"/>
<path d="M3496 1635 c-16 -17 -52 -162 -42 -172 13 -13 31 19 43 79 16 79 25
87 64 64 42 -25 61 -7 23 23 -31 25 -66 27 -88 6z"/>
<path d="M8760 1604 c0 -16 22 -22 93 -25 33 -2 62 2 69 9 15 15 1 19 -89 25
-56 3 -73 1 -73 -9z"/>
<path d="M5850 1570 c0 -13 5 -20 13 -17 6 2 12 10 12 17 0 7 -6 15 -12 18 -8
2 -13 -5 -13 -18z"/>
</g>
</svg>
