<?xml version="1.0" standalone="no"?>
<!DOCTYPE svg PUBLIC "-//W3C//DTD SVG 20010904//EN"
 "http://www.w3.org/TR/2001/REC-SVG-20010904/DTD/svg10.dtd">
<svg version="1.0" xmlns="http://www.w3.org/2000/svg"
 width="1617.000000pt" height="1213.000000pt" viewBox="0 0 1617.000000 1213.000000"
 preserveAspectRatio="xMidYMid meet">

<g transform="translate(0.000000,1213.000000) scale(0.100000,-0.100000)"
fill="#000000" stroke="none">
<path d="M5076 11818 c-3 -7 -7 -35 -11 -63 -4 -27 -15 -86 -26 -130 -10 -44
-19 -92 -19 -106 0 -31 -15 -39 -71 -39 -29 0 -39 -4 -39 -16 0 -14 9 -16 55
-12 l55 5 -5 -31 c-10 -62 -10 -91 0 -95 14 -6 23 18 30 80 l6 57 56 8 c81 13
84 36 4 30 -72 -5 -70 -10 -41 114 27 112 36 195 21 204 -6 4 -13 1 -15 -6z"/>
<path d="M2242 11786 c-34 -39 -128 -270 -144 -355 -13 -73 -6 -177 17 -220
24 -47 108 -129 151 -147 50 -21 114 -26 114 -9 0 8 -17 16 -42 20 -57 10 -86
25 -135 74 -68 65 -78 92 -77 201 0 76 5 109 26 165 52 143 93 231 120 258 26
26 29 47 8 47 -4 0 -21 -15 -38 -34z"/>
<path d="M3260 11779 c0 -12 30 -81 66 -154 61 -120 67 -140 72 -208 4 -65 1
-82 -20 -128 -14 -30 -58 -91 -98 -137 -56 -64 -70 -86 -61 -95 9 -9 17 -5 34
15 158 187 177 220 177 318 0 84 -17 136 -83 263 -29 57 -56 113 -59 125 -8
28 -28 29 -28 1z"/>
<path d="M14772 11708 c-7 -7 -12 -20 -12 -31 0 -10 -10 -41 -21 -68 -23 -52
-44 -62 -73 -34 -20 21 -28 19 -58 -12 -80 -86 -89 -185 -19 -208 17 -5 16
-11 -15 -88 -37 -89 -44 -147 -19 -147 10 0 15 10 15 28 0 26 27 104 60 175
12 24 19 27 59 27 91 0 141 61 107 129 -9 16 -25 36 -36 44 -20 14 -20 14 5
68 14 30 25 65 25 80 0 14 5 30 12 37 9 9 9 12 -3 12 -8 0 -20 -5 -27 -12z
m-90 -174 c15 -5 13 -14 -19 -78 -19 -39 -37 -73 -39 -75 -2 -2 -15 1 -29 7
-31 14 -32 43 -4 97 23 45 48 68 64 60 5 -3 18 -8 27 -11z m88 -73 c10 -22 9
-28 -10 -43 -19 -15 -90 -41 -96 -35 -1 1 11 30 28 64 26 56 31 61 48 51 10
-7 24 -23 30 -37z"/>
<path d="M15378 11685 c-2 -3 -49 -9 -103 -15 -104 -11 -115 -14 -99 -30 7 -7
41 -7 104 0 51 6 94 9 96 7 2 -2 -14 -37 -35 -78 l-39 -74 -59 -1 c-45 -1 -59
-5 -61 -18 -4 -17 2 -19 61 -16 l38 2 -25 -41 c-14 -22 -33 -58 -41 -78 l-15
-38 -88 -2 c-101 -2 -205 -24 -271 -58 -164 -83 -234 -316 -128 -425 42 -42
87 -65 188 -90 112 -29 269 -25 341 9 128 61 176 145 162 283 -7 80 -20 112
-56 144 -38 35 -63 44 -196 73 l-126 28 53 6 c80 10 225 -26 270 -67 11 -10
21 -12 31 -5 13 8 12 12 -5 24 -11 9 -25 13 -32 11 -7 -3 -13 1 -13 9 0 7 -22
21 -50 30 -27 9 -50 20 -50 23 0 4 17 41 39 82 41 81 50 86 139 89 23 0 42 5
42 10 0 5 3 16 6 25 4 11 1 16 -10 16 -9 0 -16 -4 -16 -9 0 -5 -20 -11 -45
-13 -25 -2 -45 -2 -45 0 0 2 20 42 45 90 25 47 45 90 45 94 0 9 -44 11 -52 3z
m-438 -443 c0 -4 24 -8 53 -8 67 0 273 -49 314 -74 48 -29 64 -68 66 -168 2
-72 -2 -93 -19 -122 -29 -50 -115 -107 -182 -121 -119 -24 -320 7 -402 63 -59
41 -75 72 -74 146 1 121 59 210 169 263 63 31 75 34 75 21z"/>
<path d="M14916 11158 c-3 -7 -7 -35 -9 -63 -3 -27 -19 -86 -36 -130 -36 -92
-40 -138 -13 -133 11 2 17 13 18 33 1 17 15 68 32 115 35 97 45 190 22 190 -6
0 -12 -6 -14 -12z"/>
<path d="M15135 11152 c-93 -57 -166 -231 -120 -282 26 -29 80 -26 110 5 47
46 23 95 -46 95 l-39 0 15 37 c24 58 65 104 106 122 38 16 46 33 18 39 -8 1
-28 -6 -44 -16z m-18 -228 c6 -20 -28 -45 -56 -42 -29 3 -42 35 -19 49 18 12
71 7 75 -7z"/>
<path d="M13809 11617 c-78 -105 -107 -182 -87 -238 12 -35 41 -44 96 -30 60
17 87 42 78 74 -8 32 -39 36 -105 12 -38 -13 -41 -13 -41 3 0 30 46 116 93
173 43 53 49 69 23 69 -6 0 -32 -29 -57 -63z m55 -208 c-8 -13 -67 -39 -88
-39 -26 0 -7 27 27 38 44 14 70 14 61 1z"/>
<path d="M2993 11663 c-7 -3 -13 -11 -13 -18 0 -8 -36 -61 -80 -119 -44 -58
-80 -110 -80 -116 0 -15 20 -12 85 10 32 11 62 20 66 20 4 0 7 -31 6 -69 -1
-50 4 -76 16 -95 23 -34 39 -25 26 13 -6 15 -9 59 -7 97 l3 69 34 5 c50 7 53
30 4 30 l-40 0 1 86 c2 88 0 94 -21 87z m-20 -183 c-12 -11 -76 -31 -81 -26
-2 3 15 32 39 65 l44 59 3 -45 c2 -25 0 -49 -5 -53z"/>
<path d="M13596 11538 c-4 -73 -8 -151 -9 -173 -2 -30 2 -40 15 -43 13 -3 17
4 17 30 0 18 3 97 7 176 6 123 5 142 -8 142 -12 0 -16 -25 -22 -132z"/>
<path d="M15052 11653 c-17 -33 -71 -217 -74 -253 -2 -26 1 -35 12 -35 10 0
17 15 21 45 4 25 21 88 38 140 17 52 31 99 31 105 2 18 -19 16 -28 -2z"/>
<path d="M6283 11638 c-6 -7 -31 -56 -57 -109 -27 -57 -57 -103 -74 -116 -38
-28 -133 -76 -139 -69 -18 17 53 102 98 118 16 5 29 14 29 18 0 18 -29 17 -66
-4 -80 -45 -127 -166 -64 -166 22 0 108 40 152 72 27 18 27 18 38 -2 15 -29
69 -60 103 -60 41 0 97 26 97 45 0 9 -5 14 -12 11 -66 -27 -89 -29 -123 -13
-49 23 -53 53 -15 114 34 54 64 153 51 166 -4 4 -13 2 -18 -5z"/>
<path d="M5242 11624 c2 -11 11 -20 22 -22 13 -3 17 1 14 14 -2 11 -11 20 -22
22 -13 3 -17 -1 -14 -14z"/>
<path d="M12977 11614 c-4 -4 -7 -21 -7 -38 0 -17 -12 -82 -27 -144 -21 -85
-25 -117 -17 -130 14 -21 30 -14 27 13 0 11 10 64 23 118 14 54 25 114 26 133
1 35 -12 60 -25 48z"/>
<path d="M13160 11606 c-30 -8 -46 -18 -48 -30 -3 -16 0 -18 19 -12 13 4 41
10 62 13 58 9 54 -3 -66 -176 -56 -81 -54 -85 51 -78 106 8 132 15 132 34 0
11 -10 13 -45 9 -25 -3 -66 -9 -91 -12 l-46 -5 66 96 c66 96 80 137 54 163
-14 14 -28 14 -88 -2z"/>
<path d="M14293 11585 c-22 -9 -33 -21 -33 -35 0 -23 18 -26 34 -5 6 8 26 18
44 21 28 6 32 4 32 -15 0 -35 -17 -60 -91 -138 -47 -48 -67 -76 -63 -87 3 -9
11 -16 18 -16 27 0 173 54 190 71 24 22 13 38 -14 21 -17 -10 -132 -52 -144
-52 -3 0 20 26 51 58 30 31 64 76 75 100 18 40 18 45 4 68 -19 28 -53 31 -103
9z"/>
<path d="M2536 11571 c-4 -5 -2 -21 4 -35 10 -29 1 -120 -26 -259 -16 -82 -12
-117 13 -117 10 0 13 6 9 16 -3 8 3 66 13 127 31 178 34 215 21 247 -13 30
-24 37 -34 21z"/>
<path d="M4304 11540 c-53 -20 -94 -103 -96 -195 -1 -86 59 -131 108 -81 23
22 24 27 10 32 -10 4 -25 -1 -35 -10 -17 -16 -20 -16 -35 -1 -31 32 -13 159
30 206 9 10 28 19 41 19 13 0 23 6 23 14 0 18 -20 25 -46 16z"/>
<path d="M5689 11518 c0 -2 -2 -13 -5 -26 -6 -36 -32 -79 -56 -96 -37 -26 -49
-20 -46 24 2 43 -6 60 -23 43 -12 -12 -15 -85 -5 -102 10 -15 52 -14 84 3 49
25 92 132 62 151 -5 3 -10 5 -11 3z"/>
<path d="M5845 11492 c-16 -11 -36 -26 -44 -35 -7 -10 -19 -17 -26 -17 -7 0
-12 -10 -12 -22 1 -13 -2 -32 -6 -44 -16 -47 55 -92 119 -75 40 10 27 26 -22
27 -49 1 -64 9 -64 35 0 33 18 57 48 63 42 10 85 48 77 69 -9 22 -32 22 -70
-1z"/>
<path d="M4493 11485 c-3 -9 -3 -19 0 -22 4 -3 -4 -14 -17 -24 -33 -26 -59
-94 -46 -119 24 -45 108 -31 136 22 13 25 13 32 0 56 -9 15 -23 44 -32 65 -18
40 -31 47 -41 22z m35 -77 c32 -32 -13 -100 -54 -84 -30 11 2 96 36 96 3 0 11
-5 18 -12z"/>
<path d="M5332 11450 c-23 -17 -42 -35 -42 -40 0 -6 -7 -10 -15 -10 -8 0 -15
-6 -15 -14 0 -7 -7 -19 -15 -26 -18 -15 -20 -40 -4 -40 7 0 40 30 75 67 42 44
67 64 73 58 6 -6 11 -51 13 -100 2 -69 6 -90 17 -90 21 0 16 183 -6 207 -22
24 -33 23 -81 -12z"/>
<path d="M4666 11462 c-2 -4 0 -14 5 -22 8 -13 10 -13 18 0 10 15 6 30 -9 30
-5 0 -11 -4 -14 -8z"/>
<path d="M4709 11438 c-29 -29 -33 -31 -43 -16 -9 14 -12 9 -23 -30 -15 -57
-16 -92 -3 -92 5 0 25 24 43 53 68 104 103 112 91 21 -4 -37 -2 -59 6 -69 21
-26 25 -17 27 60 3 109 -34 137 -98 73z"/>
<path d="M5167 11390 c-20 -72 -21 -90 -4 -90 9 0 20 26 30 69 20 83 20 81 4
81 -8 0 -21 -25 -30 -60z"/>
<path d="M13427 11353 c-10 -9 -9 -43 1 -43 18 0 45 28 38 38 -8 13 -29 16
-39 5z"/>
<path d="M13961 11341 c-8 -5 -11 -16 -8 -25 6 -15 9 -15 32 0 14 9 22 20 19
25 -7 11 -25 11 -43 0z"/>
<path d="M2603 11264 c-8 -21 8 -34 35 -28 25 7 29 29 6 38 -25 9 -34 7 -41
-10z"/>
<path d="M3182 11109 c1 -12 9 -24 16 -27 9 -3 13 3 10 19 -1 12 -9 24 -16 27
-9 3 -13 -3 -10 -19z"/>
<path d="M4409 10890 c-46 -48 -113 -180 -130 -254 -11 -50 -16 -57 -46 -67
-18 -6 -33 -14 -33 -19 0 -16 19 -21 40 -10 25 13 27 -4 5 -57 -19 -46 -19
-65 1 -61 15 3 29 38 48 119 6 27 51 50 124 63 38 6 38 6 13 -42 -29 -58 -42
-112 -30 -133 15 -29 67 -24 122 11 48 30 67 61 67 106 0 40 -25 27 -49 -26
-22 -50 -59 -80 -97 -80 -14 0 -16 7 -11 36 3 20 15 54 27 75 41 79 14 103
-82 75 -29 -8 -54 -13 -56 -11 -8 7 31 110 60 163 17 29 46 69 65 87 33 32 37
33 49 17 12 -16 13 -16 19 1 10 23 -12 47 -43 47 -16 0 -38 -14 -63 -40z"/>
<path d="M8292 10868 c-39 -69 -102 -207 -102 -224 0 -8 -4 -15 -10 -15 -5 -1
-14 -3 -20 -4 -5 -1 -21 -3 -35 -4 -42 -2 -31 -31 11 -31 33 0 36 -2 30 -22
-15 -50 -18 -125 -7 -146 13 -24 67 -30 102 -12 33 18 21 30 -28 27 -43 -2
-48 0 -51 21 -2 12 2 47 8 77 l11 55 62 1 c34 1 65 1 70 0 4 0 7 6 7 14 0 12
-13 15 -55 15 -40 0 -57 4 -61 15 -3 8 22 71 55 140 34 69 61 130 61 135 0 24
-21 6 -48 -42z"/>
<path d="M4810 10824 c0 -14 -22 -113 -50 -220 -50 -193 -56 -228 -44 -258 14
-36 29 -14 30 42 1 34 19 124 47 227 50 180 57 235 32 235 -9 0 -15 -10 -15
-26z"/>
<path d="M5905 10747 c-1 -65 -6 -102 -17 -127 -24 -49 -58 -143 -58 -157 0
-27 26 -10 61 38 l37 50 6 -35 c8 -43 28 -60 62 -52 20 5 30 2 40 -13 20 -29
74 -37 113 -17 39 21 42 41 4 31 -16 -4 -32 -8 -38 -8 -62 -2 -71 17 -25 51
35 26 60 96 42 114 -18 18 -62 -19 -90 -75 -12 -26 -27 -47 -32 -47 -4 0 -15
-3 -24 -6 -13 -5 -16 3 -16 50 0 66 -21 85 -51 48 -9 -12 -20 -22 -23 -22 -12
0 -5 38 7 43 21 8 38 86 33 147 -2 30 -4 61 -5 68 -1 6 -7 12 -13 12 -10 0
-13 -25 -13 -93z m181 -195 c-17 -16 -18 -16 -5 5 7 12 15 20 18 17 3 -2 -3
-12 -13 -22z"/>
<path d="M10816 10828 c-5 -20 -23 -73 -77 -216 -51 -140 -59 -182 -34 -182 8
0 15 8 15 18 0 11 25 86 56 168 60 162 75 210 66 218 -9 10 -23 6 -26 -6z"/>
<path d="M2817 10814 c-4 -4 -4 -17 -1 -29 6 -24 -39 -304 -56 -349 -26 -69 2
-75 45 -9 17 25 47 55 67 67 35 20 38 20 54 4 25 -25 10 -66 -44 -118 -44 -41
-47 -43 -50 -22 -4 29 -20 28 -28 -2 -15 -60 28 -61 94 -1 80 72 98 145 42
175 -30 16 -54 12 -94 -15 l-37 -25 7 47 c3 27 14 88 24 138 17 86 15 135 -6
142 -6 2 -13 0 -17 -3z"/>
<path d="M8490 10740 c0 -11 7 -20 15 -20 8 0 15 9 15 20 0 11 -7 20 -15 20
-8 0 -15 -9 -15 -20z"/>
<path d="M12683 10731 c-23 -16 -48 -40 -57 -53 -16 -22 -16 -21 -16 25 0 35
-4 47 -15 47 -23 0 -38 -36 -24 -58 16 -25 -19 -134 -72 -223 -43 -72 -45 -79
-25 -79 15 0 86 105 110 164 36 88 134 187 171 172 24 -9 17 -59 -15 -109 -49
-78 -38 -87 40 -32 58 40 66 42 75 15 3 -11 17 -28 31 -39 15 -11 24 -29 24
-46 0 -59 41 -85 134 -85 70 0 99 9 91 28 -3 8 -1 18 4 21 15 10 -4 32 -21 26
-9 -4 -18 -15 -21 -26 -4 -16 -14 -19 -59 -19 -62 0 -98 20 -98 54 0 18 10 25
53 39 50 16 97 48 97 66 0 5 -8 19 -19 32 -16 20 -21 21 -48 10 -17 -7 -46
-28 -64 -46 -19 -19 -40 -35 -46 -35 -14 0 -43 50 -43 75 0 21 -22 19 -54 -6
l-27 -21 8 28 c25 96 -33 134 -114 75z m367 -111 c0 -11 -53 -40 -72 -40 -18
1 39 50 58 50 8 0 14 -4 14 -10z"/>
<path d="M11160 10729 c0 -20 21 -49 35 -49 18 0 19 19 1 43 -15 19 -36 23
-36 6z"/>
<path d="M9199 10675 c-36 -19 -40 -45 -18 -95 23 -51 24 -83 3 -104 -19 -20
-33 -20 -40 -1 -4 8 -12 15 -20 15 -30 0 -7 -51 28 -63 24 -8 74 36 81 70 3
17 -2 46 -14 72 -26 59 -24 70 11 83 31 10 36 31 9 35 -8 1 -26 -4 -40 -12z"/>
<path d="M11570 10654 c-57 -48 -76 -122 -36 -137 21 -8 79 10 103 32 11 11
24 17 27 14 10 -10 7 -163 -4 -163 -22 0 -79 -63 -99 -111 -41 -95 -10 -201
40 -139 31 38 99 181 99 207 0 19 5 23 29 23 16 0 31 -6 35 -15 8 -21 26 -19
26 3 0 27 -20 42 -58 42 l-34 0 3 129 c2 71 1 133 -3 137 -4 4 -14 -9 -22 -28
-19 -45 -79 -98 -111 -98 -14 0 -25 3 -25 8 0 16 40 71 59 82 21 11 29 40 12
40 -5 0 -23 -12 -41 -26z m79 -356 c-13 -29 -34 -71 -48 -93 l-26 -40 -3 32
c-4 41 34 128 67 154 34 27 37 12 10 -53z"/>
<path d="M7133 10650 c-43 -26 -50 -57 -25 -113 l20 -45 -21 -20 c-45 -40 -70
-52 -84 -41 -9 8 -14 7 -19 -4 -7 -20 3 -37 22 -37 24 0 104 50 121 76 14 22
14 28 -6 75 -21 48 -21 52 -5 70 20 23 52 25 60 4 8 -19 34 -20 34 -1 0 14
-45 56 -59 56 -3 0 -21 -9 -38 -20z"/>
<path d="M7923 10627 c-23 -25 -49 -59 -57 -76 -9 -17 -22 -31 -30 -31 -17 0
-42 29 -51 60 -9 29 -24 50 -36 50 -4 0 -20 -20 -35 -45 -14 -25 -28 -45 -30
-45 -3 0 -2 15 1 34 14 73 -38 99 -101 51 -18 -14 -37 -25 -43 -25 -6 0 -11
-7 -11 -15 0 -8 -9 -35 -21 -60 -19 -40 -19 -65 0 -65 4 0 17 20 28 44 26 53
80 116 99 116 17 0 19 -84 4 -126 -6 -15 -8 -34 -5 -42 8 -20 26 -3 75 70 l39
59 15 -36 c11 -24 26 -40 46 -48 16 -6 33 -20 36 -30 12 -39 109 -45 178 -10
34 18 22 38 -15 25 -50 -19 -105 -22 -124 -8 -18 13 -17 15 17 29 26 11 45 30
67 69 55 93 23 130 -46 55z m18 -45 c-24 -34 -61 -67 -45 -41 19 32 49 68 57
69 5 0 -1 -13 -12 -28z"/>
<path d="M10836 10661 c-3 -5 -11 -40 -18 -78 -18 -107 -3 -125 67 -78 l37 26
-43 -78 c-73 -132 -80 -147 -77 -172 5 -39 25 -35 32 6 3 21 22 64 41 96 83
138 134 257 108 257 -4 0 -34 -27 -66 -60 -67 -71 -82 -75 -73 -22 17 91 18
112 8 112 -6 0 -13 -4 -16 -9z"/>
<path d="M10492 10640 c-18 -11 -39 -20 -47 -20 -8 0 -18 -12 -21 -27 -4 -16
-16 -48 -27 -73 -11 -25 -37 -90 -58 -145 -20 -55 -42 -100 -48 -100 -18 0
-31 -27 -31 -62 0 -18 -23 -84 -51 -148 -49 -114 -58 -164 -31 -173 8 -2 12 7
12 25 0 16 22 81 50 144 27 62 50 126 50 141 0 38 10 58 29 58 18 0 76 127
111 241 19 63 42 95 87 118 35 18 43 13 43 -25 0 -28 -9 -44 -46 -82 -29 -30
-47 -42 -51 -34 -7 19 -23 14 -32 -10 -5 -14 -5 -28 1 -35 14 -17 41 -2 101
56 58 56 77 109 52 147 -19 29 -49 31 -93 4z"/>
<path d="M5707 10636 c-3 -8 1 -20 9 -26 29 -25 11 -115 -30 -149 -13 -11 -19
-8 -37 24 -22 36 -28 38 -72 20 -16 -7 -16 -1 7 43 30 59 32 80 10 89 -21 8
-75 -19 -143 -72 -77 -58 -88 -73 -66 -81 9 -4 20 -3 24 2 13 19 107 92 138
108 l32 16 -39 -82 c-22 -45 -40 -88 -40 -94 0 -27 19 -23 53 11 43 43 57 44
79 5 21 -37 47 -38 80 -2 37 40 48 65 48 116 0 59 -38 110 -53 72z"/>
<path d="M8926 10620 c-19 -17 -40 -47 -47 -67 -11 -33 -13 -35 -46 -30 -44 8
-60 21 -68 58 -8 37 -17 37 -49 -2 l-26 -30 6 28 c3 16 -1 36 -9 47 -27 37
-94 -3 -148 -89 -20 -32 -26 -85 -9 -85 11 0 40 53 40 73 0 8 19 31 41 52 51
46 63 34 41 -42 -21 -76 -6 -87 43 -28 l37 46 20 -21 c23 -24 59 -40 91 -40
12 0 28 -9 35 -20 10 -16 23 -20 66 -20 59 0 106 13 106 30 0 6 -27 7 -75 3
-41 -3 -75 -3 -75 1 0 3 17 22 39 41 42 38 67 86 57 110 -8 23 -32 18 -70 -15z
m34 -19 c0 -14 -49 -68 -50 -55 0 11 38 64 46 64 2 0 4 -4 4 -9z"/>
<path d="M6318 10602 c-18 -21 -40 -41 -49 -44 -8 -3 -20 -28 -27 -58 -25
-109 -8 -108 53 4 25 46 52 89 60 96 23 19 39 -24 30 -84 -11 -81 -11 -111 0
-114 11 -4 34 88 35 141 0 54 -24 96 -57 97 -6 0 -26 -17 -45 -38z"/>
<path d="M7305 10604 c-72 -85 -93 -162 -51 -189 32 -21 68 -11 112 30 27 26
34 40 34 71 0 42 -35 124 -53 124 -7 -1 -25 -17 -42 -36z m55 -33 c18 -36 12
-76 -18 -104 -31 -30 -82 -37 -82 -12 0 19 37 94 58 118 19 22 29 22 42 -2z"/>
<path d="M10257 10629 c-9 -5 -28 -31 -41 -57 l-24 -47 2 35 c0 19 -3 37 -9
40 -6 3 -20 -43 -33 -110 -13 -63 -34 -139 -47 -169 -26 -56 -32 -91 -15 -91
12 0 40 55 65 128 15 41 23 52 41 52 26 0 99 77 120 125 32 78 1 129 -59 94z
m43 -34 c0 -43 -80 -162 -101 -150 -17 11 68 165 92 165 5 0 9 -7 9 -15z"/>
<path d="M11328 10613 c-29 -31 -78 -108 -78 -122 0 -5 7 -11 15 -15 10 -3 20
8 33 37 23 50 65 97 87 97 20 0 20 -44 0 -100 -16 -46 -14 -56 8 -47 29 11 49
141 25 165 -21 21 -63 14 -90 -15z"/>
<path d="M9982 10605 c-25 -19 -72 -94 -72 -118 0 -32 64 -13 139 40 23 17 24
17 15 -7 -12 -36 -11 -103 2 -107 7 -2 14 11 16 34 3 21 11 59 18 84 12 41 11
47 -6 67 -22 26 -79 30 -112 7z m78 -25 c0 -10 -66 -55 -98 -68 -15 -5 -14 -2
2 23 11 17 27 35 35 42 19 15 61 17 61 3z"/>
<path d="M11144 10603 c-3 -10 -17 -46 -30 -81 -28 -73 -29 -85 -8 -80 16 3
64 123 64 160 0 23 -19 24 -26 1z"/>
<path d="M8436 10582 c-18 -29 -45 -122 -40 -136 11 -28 34 -19 34 13 0 16 9
50 20 76 11 26 20 49 20 51 0 7 -29 4 -34 -4z"/>
<path d="M3340 10573 c-39 -14 -90 -89 -90 -132 0 -36 43 -55 109 -48 70 8 93
16 88 31 -3 6 -9 10 -13 9 -51 -10 -132 -12 -144 -4 -13 9 -12 16 6 53 22 43
45 61 97 73 15 3 25 10 22 15 -7 11 -50 12 -75 3z"/>
<path d="M3871 10570 c-31 -5 -52 -16 -71 -37 -34 -38 -75 -142 -61 -156 12
-12 31 0 31 21 0 29 47 120 69 131 11 6 33 11 49 11 29 0 58 21 45 33 -3 4 -9
6 -12 6 -3 -1 -26 -5 -50 -9z"/>
<path d="M3090 10545 c-13 -13 -30 -27 -39 -30 -12 -4 -17 -19 -18 -65 -1 -50
2 -63 19 -75 33 -23 118 0 118 31 0 12 -5 14 -17 8 -31 -13 -93 -17 -93 -5 0
27 34 91 56 106 25 16 33 55 11 55 -8 0 -24 -11 -37 -25z"/>
<path d="M3539 10553 c-40 -50 -51 -99 -24 -109 8 -3 30 3 49 14 l34 20 5 -26
c3 -15 15 -37 27 -49 24 -26 60 -31 60 -8 0 8 -6 15 -14 15 -23 0 -46 41 -46
82 0 45 -11 47 -52 13 -42 -36 -53 -31 -28 11 22 39 14 68 -11 37z"/>
<path d="M3958 10518 c-61 -62 -73 -113 -37 -149 18 -18 29 -20 72 -15 51 7
101 27 112 47 13 20 -5 23 -40 6 -52 -25 -109 -32 -123 -15 -19 23 -3 55 39
73 50 23 71 47 67 77 -6 40 -35 33 -90 -24z m57 2 c-3 -5 -11 -10 -16 -10 -6
0 -7 5 -4 10 3 6 11 10 16 10 6 0 7 -4 4 -10z"/>
<path d="M9615 10403 c4 -16 7 -52 6 -82 -2 -40 1 -52 11 -49 8 3 14 25 15 64
2 72 -4 94 -24 94 -12 0 -14 -6 -8 -27z"/>
<path d="M13183 10358 c-14 -18 -49 -115 -57 -160 -6 -35 -9 -37 -51 -44 -31
-4 -45 -11 -45 -21 0 -12 9 -14 41 -10 l42 5 -6 -61 c-3 -34 -8 -70 -12 -81
-6 -14 -4 -17 11 -14 20 4 31 34 33 93 2 63 10 69 82 62 34 -4 65 -9 68 -12 3
-3 -7 -30 -22 -61 -26 -52 -28 -82 -5 -68 13 8 68 128 68 147 0 15 -66 27
-143 27 -32 0 -37 3 -33 18 2 9 8 33 12 52 3 19 15 54 26 79 18 43 12 76 -9
49z"/>
<path d="M9356 10287 c-55 -180 -68 -229 -82 -309 -11 -65 -12 -93 -4 -108 18
-33 28 -23 28 28 0 63 34 214 76 339 19 56 32 104 28 107 -16 16 -29 0 -46
-57z"/>
<path d="M12627 10187 c-37 -120 -43 -159 -31 -191 8 -21 54 -21 54 -1 0 8 -6
14 -12 13 -25 -5 -19 51 18 163 20 63 39 120 41 127 3 7 -3 12 -13 12 -15 0
-26 -24 -57 -123z"/>
<path d="M6940 10278 c-8 -13 -15 -28 -15 -33 0 -6 -13 -39 -29 -74 l-28 -64
-67 6 c-36 3 -76 9 -88 13 -13 3 -23 2 -23 -2 1 -26 22 -36 91 -41 l75 -6 -24
-70 c-14 -42 -21 -80 -17 -95 5 -22 10 -24 44 -19 56 7 131 43 131 63 0 12 -5
14 -17 9 -63 -27 -124 -47 -128 -43 -3 3 6 41 20 85 l25 79 66 -4 c40 -3 70 0
77 7 17 17 4 22 -66 22 l-65 1 40 83 c36 75 41 105 20 105 -4 0 -14 -10 -22
-22z"/>
<path d="M2310 10267 c0 -8 9 -22 19 -31 23 -21 37 -6 21 24 -12 23 -40 27
-40 7z"/>
<path d="M4840 10250 c0 -11 -14 -64 -31 -117 -35 -106 -45 -218 -21 -218 9 0
14 19 17 60 2 33 15 96 30 140 35 107 42 155 21 155 -9 0 -16 -8 -16 -20z"/>
<path d="M5585 10258 c-2 -7 -14 -51 -25 -98 -12 -46 -26 -93 -32 -105 -24
-46 -95 -105 -128 -105 -28 0 2 91 43 130 29 27 35 50 13 50 -19 0 -69 -68
-60 -82 4 -6 3 -8 -3 -5 -6 4 -18 -10 -27 -33 -12 -31 -13 -45 -4 -65 15 -34
54 -33 109 5 53 36 59 37 59 6 0 -26 27 -43 44 -26 7 7 6 14 -2 22 -17 17 -15
77 3 129 23 64 46 169 39 180 -8 13 -24 11 -29 -3z"/>
<path d="M9613 10243 c-1 -10 -7 -44 -14 -76 l-11 -58 -69 7 c-58 5 -69 4 -69
-8 0 -11 17 -17 61 -22 60 -7 61 -8 55 -34 -4 -15 -18 -49 -31 -77 -25 -51
-20 -79 8 -50 9 8 26 43 38 75 19 54 25 60 47 58 33 -4 41 19 9 27 l-24 6 13
67 c17 85 17 102 1 102 -7 0 -13 -8 -14 -17z"/>
<path d="M12255 10255 c-5 -2 -22 -6 -37 -9 -38 -9 -88 -54 -88 -80 0 -13 9
-31 21 -42 12 -10 27 -31 35 -47 13 -24 13 -28 -1 -33 -8 -4 -31 -3 -50 0 -27
5 -35 4 -35 -7 0 -19 22 -27 70 -27 69 0 77 51 19 118 -17 19 -28 39 -26 45 6
19 58 44 105 52 35 6 42 4 42 -9 0 -9 7 -16 15 -16 20 0 20 46 -1 54 -16 6
-52 7 -69 1z"/>
<path d="M13395 10230 c-8 -14 3 -30 21 -30 8 0 14 9 14 20 0 21 -24 28 -35
10z"/>
<path d="M14113 10198 c-13 -6 -25 -19 -29 -30 -11 -35 6 -95 37 -124 16 -15
29 -31 29 -36 0 -13 -63 -9 -94 7 -35 18 -36 18 -36 1 0 -35 92 -60 144 -40
25 10 19 43 -14 80 -52 60 -53 114 -1 114 26 0 50 15 39 25 -10 11 -56 13 -75
3z"/>
<path d="M9750 10188 c0 -7 5 -20 10 -28 12 -20 33 0 24 23 -7 20 -34 23 -34
5z"/>
<path d="M5782 10164 c-32 -22 -27 -54 14 -108 21 -25 34 -50 30 -53 -9 -10
-83 -10 -92 0 -4 4 -7 20 -6 37 1 33 -1 34 -27 20 -16 -8 -17 -14 -7 -45 13
-40 57 -61 108 -51 67 13 73 41 23 105 -43 54 -44 68 -3 79 17 4 33 13 36 20
6 18 -49 15 -76 -4z"/>
<path d="M8560 10137 c-25 -18 -52 -31 -61 -29 -11 2 -25 -18 -47 -72 -18 -42
-32 -82 -32 -91 0 -24 26 -17 38 10 18 40 88 130 119 155 l28 22 3 -33 c2 -18
-2 -53 -8 -77 -19 -78 1 -76 86 8 57 57 74 69 69 50 -8 -28 -8 -26 -6 -57 1
-19 7 -23 36 -23 38 0 48 19 15 27 -22 6 -25 24 -9 55 8 15 8 27 0 45 -9 20
-14 22 -32 12 -12 -6 -44 -34 -71 -62 l-50 -52 5 49 c5 55 -5 96 -25 96 -7 0
-33 -15 -58 -33z"/>
<path d="M3153 10148 c-34 -45 -78 -178 -69 -212 9 -35 32 -28 28 9 -3 27 54
175 67 175 4 0 12 -5 18 -11 19 -19 26 11 7 32 -20 22 -37 24 -51 7z"/>
<path d="M4967 10111 c-51 -55 -66 -93 -46 -117 18 -22 154 -17 154 6 0 12
-12 14 -61 12 -36 -2 -64 1 -68 7 -4 6 19 23 54 41 67 34 77 48 60 79 -17 33
-44 25 -93 -28z m63 9 c0 -5 -10 -15 -22 -21 -23 -12 -23 -12 -4 10 21 23 26
26 26 11z"/>
<path d="M13744 10134 c-76 -51 -129 -123 -106 -146 7 -7 16 -1 28 18 47 77
110 124 164 124 44 0 39 -29 -15 -91 -38 -42 -44 -53 -34 -66 14 -16 15 -15
80 71 33 44 40 100 13 110 -36 14 -92 5 -130 -20z"/>
<path d="M2722 10133 c-5 -10 -19 -47 -31 -83 -31 -93 -36 -99 -55 -62 -9 17
-20 48 -24 68 -4 21 -13 39 -20 42 -16 5 -28 -28 -13 -37 6 -4 13 -21 15 -39
4 -37 30 -80 53 -89 23 -9 48 26 73 105 13 37 26 71 31 77 14 14 11 35 -6 35
-8 0 -18 -8 -23 -17z"/>
<path d="M12343 10129 c3 -11 -2 -33 -11 -48 -22 -40 -11 -61 35 -62 86 -3
123 6 123 30 0 22 -20 39 -84 74 -58 32 -70 33 -63 6z m89 -77 c-18 -2 -44 -2
-57 0 -24 3 -25 4 -10 25 l16 23 42 -23 42 -22 -33 -3z"/>
<path d="M12782 10138 c-15 -18 -25 -83 -17 -107 14 -45 140 -9 170 49 16 30
13 50 -6 50 -5 0 -14 -11 -19 -25 -11 -29 -65 -65 -97 -65 -27 0 -30 27 -8 69
18 37 1 58 -23 29z"/>
<path d="M13507 10144 c-3 -3 -3 -12 -1 -19 3 -8 -7 -15 -29 -19 -68 -13 -88
-78 -32 -104 28 -13 86 -15 123 -6 29 8 30 58 2 94 -11 14 -20 33 -20 43 0 16
-30 24 -43 11z m43 -79 c7 -8 10 -22 6 -30 -7 -19 -75 -20 -101 -2 -17 13 -17
15 6 30 29 21 73 22 89 2z"/>
<path d="M2260 10116 c-25 -66 -41 -149 -31 -159 6 -6 13 -8 16 -6 4 5 20 64
47 168 6 25 -22 23 -32 -3z"/>
<path d="M3535 10083 c-62 -55 -65 -60 -63 -98 3 -36 7 -42 46 -62 l44 -23 69
21 c43 13 69 26 69 35 0 17 1 17 -74 -3 -54 -14 -66 -14 -91 -2 -49 23 -45 53
12 88 82 51 86 55 79 79 -4 12 -11 22 -16 22 -5 0 -38 -26 -75 -57z"/>
<path d="M2930 10122 c-34 -11 -73 -47 -86 -78 -8 -19 -19 -34 -24 -34 -6 0
-10 -7 -10 -15 0 -8 4 -15 9 -15 5 0 23 -13 39 -30 27 -27 37 -30 89 -30 32 0
64 4 72 9 26 17 2 28 -52 23 -56 -4 -97 9 -97 31 1 7 24 23 53 37 45 22 52 29
55 57 3 34 -19 55 -48 45z m20 -45 c0 -13 -68 -52 -76 -44 -3 2 8 16 22 30 29
29 54 35 54 14z"/>
<path d="M5153 10073 c-78 -84 -67 -135 20 -93 47 23 50 24 42 10 -10 -15 14
-50 34 -50 10 0 29 9 42 21 l24 20 -32 -4 c-38 -4 -38 -2 -18 46 8 20 15 41
15 47 0 17 -23 11 -49 -14 -28 -27 -83 -58 -89 -51 -8 7 56 80 82 95 32 17 33
30 4 30 -14 0 -42 -21 -75 -57z"/>
<path d="M10412 10113 c-36 -18 -112 -98 -112 -119 0 -7 10 -25 23 -39 18 -22
34 -27 84 -32 33 -3 86 -2 116 1 46 6 54 10 50 25 -4 16 -10 17 -46 9 -49 -11
-164 -5 -179 10 -6 6 -8 21 -4 35 5 20 12 24 47 25 63 3 93 21 97 60 2 17 -1
32 -7 32 -5 0 -15 2 -23 5 -7 2 -28 -3 -46 -12z m48 -32 c0 -9 -33 -21 -59
-21 -11 0 -9 4 5 15 21 16 54 20 54 6z"/>
<path d="M3291 10111 c-20 -13 -16 -66 8 -100 12 -16 21 -38 21 -49 0 -37 -71
-70 -83 -39 -4 9 -8 8 -16 -3 -14 -21 5 -40 40 -40 38 0 92 48 92 82 0 15 -10
40 -22 56 -27 38 -27 68 -1 75 11 3 20 10 20 16 0 13 -39 14 -59 2z"/>
<path d="M2400 10068 c-45 -61 -62 -96 -58 -120 4 -31 28 -35 28 -6 0 41 80
152 97 135 8 -9 8 -53 -2 -114 -6 -44 -5 -53 7 -53 10 0 18 21 27 69 15 85 3
124 -41 129 -22 3 -33 -5 -58 -40z"/>
<path d="M7110 10093 c-62 -43 -87 -102 -58 -131 17 -17 71 -15 115 3 77 33
93 72 47 119 -31 30 -69 34 -104 9z m78 -29 c33 -23 27 -43 -20 -64 -93 -42
-131 -11 -63 49 41 35 52 37 83 15z"/>
<path d="M9025 10082 c3 -17 2 -40 -4 -50 -11 -20 -68 -52 -94 -52 -16 0 -32
42 -28 74 2 11 -2 17 -11 14 -17 -6 -16 -81 2 -102 7 -9 23 -16 37 -16 34 0
100 36 119 64 21 33 15 90 -9 94 -16 3 -18 -1 -12 -26z"/>
<path d="M9914 10062 c-21 -16 -45 -36 -53 -45 -9 -11 -21 -15 -37 -11 -21 5
-24 1 -39 -53 -9 -32 -22 -73 -30 -91 -19 -42 -19 -82 -1 -82 8 0 17 12 21 28
3 15 16 46 27 70 18 36 26 42 52 42 57 0 146 76 146 125 0 15 -26 45 -39 45
-4 0 -26 -13 -47 -28z m56 -21 c0 -30 -100 -105 -117 -87 -4 4 14 28 42 52 47
42 75 55 75 35z"/>
<path d="M9686 10018 c-20 -28 -21 -78 -2 -78 7 0 16 12 19 28 3 15 8 37 12
50 9 29 -9 29 -29 0z"/>
<path d="M10585 9960 c3 -5 8 -10 11 -10 2 0 4 5 4 10 0 6 -5 10 -11 10 -5 0
-7 -4 -4 -10z"/>
<path d="M14410 9931 c-20 -14 -5 -25 36 -28 28 -2 35 1 32 15 -4 19 -45 27
-68 13z"/>
<path d="M6675 9616 c-41 -18 -62 -43 -47 -58 9 -9 17 -7 32 10 25 26 60 29
60 5 0 -21 -59 -74 -130 -116 -30 -17 -56 -40 -58 -50 -5 -24 11 -21 54 8 20
14 41 25 46 25 5 0 18 -16 29 -35 33 -55 50 -60 124 -35 61 20 95 44 82 57 -4
3 -30 -4 -58 -16 -76 -31 -100 -28 -124 16 l-20 36 43 42 c46 47 54 81 24 108
-22 20 -19 20 -57 3z"/>
<path d="M5090 9550 c0 -5 21 -21 48 -34 84 -43 161 -141 177 -227 9 -47 -20
-120 -80 -205 -52 -73 -98 -107 -132 -99 -18 4 -23 1 -23 -15 0 -32 26 -34 74
-6 86 50 183 195 193 290 7 60 -37 154 -104 221 -64 63 -153 107 -153 75z"/>
<path d="M4345 9521 c-80 -48 -106 -120 -86 -233 6 -34 9 -64 6 -66 -2 -2 -45
-9 -95 -16 -148 -18 -104 -39 55 -26 l50 4 7 -39 c4 -22 7 -81 7 -132 1 -101
-3 -108 -56 -108 -39 0 -43 -17 -8 -28 35 -12 72 -1 85 24 13 24 16 139 6 227
-6 43 -5 62 3 63 6 1 16 2 21 3 22 3 13 21 -12 24 -20 2 -28 10 -32 30 -24
122 -14 185 35 226 41 35 64 33 78 -4 10 -29 21 -37 34 -24 10 10 -14 64 -36
79 -27 19 -26 19 -62 -4z"/>
<path d="M4685 9499 c-84 -60 -138 -183 -138 -315 0 -110 22 -156 99 -207 58
-38 104 -48 104 -23 0 7 -12 16 -27 19 -44 9 -113 65 -130 105 -41 95 -7 270
68 355 21 25 39 50 39 55 0 6 11 10 24 9 30 -2 40 17 11 21 -11 1 -34 -7 -50
-19z"/>
<path d="M12742 9488 c-7 -7 -12 -19 -12 -27 0 -9 -23 -85 -51 -170 -34 -103
-49 -166 -47 -193 4 -54 22 -48 29 9 4 26 30 121 59 211 35 106 50 166 44 172
-7 7 -14 6 -22 -2z"/>
<path d="M11709 9473 c-1 -4 0 -25 1 -45 1 -20 -9 -69 -21 -107 l-23 -70 -45
-3 c-33 -2 -46 -7 -46 -18 0 -11 10 -14 41 -12 l42 3 -17 -73 c-11 -47 -22
-73 -31 -73 -20 0 -23 -20 -5 -35 25 -21 43 -4 55 57 28 133 25 131 133 135
86 4 75 23 -16 26 -70 3 -78 5 -72 20 35 87 44 191 18 200 -7 2 -13 0 -14 -5z"/>
<path d="M9321 9448 c-4 -13 -14 -47 -21 -75 l-12 -53 -56 0 c-69 0 -104 -9
-99 -24 2 -7 29 -10 75 -8 l72 4 -11 -29 c-6 -15 -11 -51 -12 -80 -1 -54 12
-79 48 -93 22 -8 142 13 157 28 16 16 0 34 -20 23 -9 -5 -43 -12 -76 -16 -68
-9 -76 -2 -76 61 0 59 17 101 44 108 13 3 54 10 91 15 73 11 84 16 68 32 -7 7
-28 7 -69 0 -32 -6 -68 -11 -80 -11 -22 0 -22 0 -7 53 19 70 20 79 6 84 -7 3
-17 -6 -22 -19z"/>
<path d="M10730 9368 c0 -13 7 -32 15 -42 12 -16 15 -17 20 -4 7 18 -11 68
-25 68 -5 0 -10 -10 -10 -22z"/>
<path d="M11171 9330 c-21 -22 -44 -53 -51 -70 -7 -18 -20 -30 -30 -30 -15 0
-20 -11 -25 -57 -10 -100 -23 -161 -50 -226 -28 -71 -31 -90 -12 -85 16 5 54
86 71 151 9 36 20 56 36 64 69 35 180 181 180 236 0 68 -60 77 -119 17z m85
-5 c9 -24 -36 -106 -89 -162 -28 -29 -54 -53 -60 -53 -25 0 40 150 86 198 34
35 54 40 63 17z"/>
<path d="M13429 9321 c-83 -38 -90 -68 -27 -123 36 -32 41 -39 28 -48 -8 -6
-36 -9 -62 -7 -53 4 -63 0 -47 -20 18 -21 112 -17 132 5 28 31 21 59 -23 88
-23 16 -40 34 -38 42 2 9 24 23 50 32 57 20 67 28 48 40 -18 12 -17 12 -61 -9z"/>
<path d="M13099 9302 c-60 -39 -107 -94 -115 -139 -6 -32 -3 -39 21 -61 23
-19 36 -23 64 -18 20 3 46 6 58 6 22 0 58 54 48 71 -9 14 -36 -2 -33 -19 2
-12 -9 -18 -42 -24 -72 -13 -99 6 -80 56 6 18 14 22 32 19 32 -6 116 49 124
82 8 30 -1 55 -19 55 -7 0 -33 -13 -58 -28z m35 -33 c-22 -24 -73 -53 -81 -45
-6 6 76 66 90 66 6 0 2 -9 -9 -21z"/>
<path d="M4780 9307 c0 -9 13 -18 30 -22 42 -9 67 -48 52 -80 -15 -31 -67 -64
-93 -58 -14 4 -19 0 -19 -16 0 -27 33 -28 77 -1 29 17 35 18 61 4 25 -12 39
-12 93 -2 45 9 64 18 64 28 0 8 -7 14 -15 12 -102 -23 -130 -21 -130 6 0 22
47 99 65 106 19 7 20 36 0 36 -8 0 -26 -15 -41 -34 l-27 -33 -26 28 c-30 32
-91 50 -91 26z"/>
<path d="M5692 9302 c3 -14 18 -18 77 -20 42 -2 79 2 84 7 16 16 9 18 -81 24
-74 5 -83 3 -80 -11z"/>
<path d="M8548 9306 c-38 -16 -78 -56 -78 -77 0 -9 19 -34 43 -53 l42 -36 -28
-25 c-15 -14 -35 -25 -43 -25 -23 0 -11 -24 13 -28 25 -4 83 51 83 79 0 18 -6
25 -59 67 -14 11 -21 24 -17 31 10 16 81 51 106 51 11 0 20 7 20 15 0 18 -43
19 -82 1z"/>
<path d="M8273 9290 c-17 -10 -37 -29 -43 -41 -9 -16 -14 -18 -20 -9 -14 23
-30 -1 -30 -45 0 -24 -16 -97 -35 -163 -44 -154 -54 -222 -32 -222 20 0 51 95
72 220 19 115 63 213 105 235 26 13 30 13 50 -3 34 -27 19 -74 -42 -135 -46
-46 -50 -48 -63 -31 -13 18 -14 17 -26 -9 -9 -20 -9 -31 -2 -38 37 -37 183
108 183 181 0 24 -51 80 -72 80 -7 0 -27 -9 -45 -20z"/>
<path d="M2760 9270 c0 -34 -46 -90 -74 -90 -23 0 -20 13 9 40 23 22 25 40 4
40 -6 0 -21 -12 -34 -26 -53 -57 -13 -111 53 -73 18 10 35 19 38 19 2 0 4 -43
4 -95 l0 -96 -37 7 c-56 11 -105 8 -114 -8 -5 -7 -9 -31 -9 -52 0 -69 66 -140
109 -116 21 11 56 79 71 142 15 60 9 330 -7 336 -9 2 -13 -7 -13 -28z m-29
-308 c16 -7 16 -10 0 -51 -9 -24 -24 -49 -33 -55 -26 -16 -58 21 -65 73 l-6
41 44 -1 c24 0 51 -3 60 -7z"/>
<path d="M6376 9288 c-9 -5 -16 -16 -16 -24 0 -11 9 -13 38 -8 43 7 68 -12 57
-45 -6 -21 -104 -101 -123 -101 -7 0 -12 -9 -12 -20 0 -11 3 -20 6 -20 11 0
49 23 78 47 l29 24 21 -24 c12 -14 31 -28 44 -32 31 -9 132 22 132 40 0 18 -3
18 -62 1 -53 -17 -85 -12 -93 15 -7 20 24 88 49 108 9 8 16 17 16 22 0 14 -27
10 -40 -6 -11 -14 -14 -14 -24 0 -15 21 -78 35 -100 23z"/>
<path d="M9569 9257 c-66 -44 -88 -77 -50 -77 12 0 21 4 21 10 0 11 89 74 96
67 3 -3 -16 -49 -41 -102 -28 -59 -42 -102 -37 -107 6 -6 30 13 63 47 l54 56
16 -38 c29 -69 57 -76 110 -29 46 40 61 72 61 127 -1 54 -16 76 -39 57 -15
-12 -17 -48 -3 -48 23 0 9 -60 -21 -95 -43 -49 -66 -46 -81 10 -13 48 -38 66
-63 45 -20 -16 -19 -11 5 41 11 24 20 52 20 62 0 30 -43 20 -111 -26z"/>
<path d="M9992 9270 c-42 -30 -82 -100 -82 -142 0 -26 27 -58 50 -58 70 0 160
67 160 120 0 43 -28 87 -61 99 -24 8 -34 5 -67 -19z m82 -32 c23 -32 20 -62
-10 -91 -29 -29 -87 -52 -109 -43 -48 18 32 154 92 156 6 0 19 -10 27 -22z"/>
<path d="M12772 9253 c-28 -66 -35 -99 -28 -128 5 -20 13 -25 39 -25 37 0 120
50 149 91 26 35 36 109 15 109 -9 0 -17 -14 -22 -37 -4 -20 -13 -46 -20 -56
-19 -27 -96 -77 -119 -77 -16 0 -17 5 -11 37 4 20 15 54 26 75 19 36 18 58 0
58 -5 0 -18 -21 -29 -47z"/>
<path d="M2372 9273 c-18 -7 -41 -56 -46 -95 -3 -27 -8 -34 -31 -38 -45 -8
-45 -32 0 -29 33 3 38 0 50 -27 16 -38 55 -68 69 -54 6 6 0 18 -17 34 -28 26
-36 66 -14 66 20 0 96 61 103 83 3 10 -2 29 -10 42 -13 20 -25 25 -54 24 -20
0 -43 -3 -50 -6z m77 -37 c9 -11 4 -20 -26 -45 -45 -37 -63 -39 -63 -8 0 53
60 88 89 53z"/>
<path d="M11477 9260 c-28 -85 -43 -119 -65 -138 -22 -21 -26 -22 -40 -8 -13
13 -13 20 2 65 19 60 19 61 3 61 -17 0 -35 -38 -43 -91 -5 -30 -2 -44 11 -59
27 -30 51 -24 101 23 35 33 46 51 51 83 5 43 -11 94 -20 64z"/>
<path d="M12165 9261 c-5 -9 18 -163 31 -203 7 -25 36 -22 62 5 26 27 61 105
62 134 0 12 7 29 17 38 14 14 14 18 2 26 -24 15 -33 4 -50 -57 -16 -62 -33
-100 -55 -122 -14 -13 -13 -15 -29 93 -13 93 -23 113 -40 86z"/>
<path d="M12454 9252 c-34 -28 -74 -87 -74 -110 0 -35 18 -35 72 -2 l51 32 -5
-47 c-6 -48 5 -64 37 -51 12 4 13 10 4 30 -9 19 -9 36 1 71 17 61 4 73 -40 36
-19 -15 -46 -34 -60 -41 -24 -13 -24 -12 -10 6 35 46 55 64 72 64 10 0 18 7
18 15 0 20 -40 19 -66 -3z"/>
<path d="M7963 9240 c-43 -26 -78 -93 -63 -120 15 -28 59 -26 104 5 l36 24 0
-27 c0 -25 15 -52 30 -52 3 0 5 32 6 70 0 39 -3 70 -7 70 -5 0 -20 -11 -34
-24 -31 -29 -94 -60 -103 -51 -3 3 2 21 12 39 18 34 60 61 77 51 14 -9 29 4
22 20 -7 21 -42 19 -80 -5z"/>
<path d="M7638 9223 c-14 -16 -30 -37 -36 -48 -10 -17 -11 -14 -12 23 0 29 -4
42 -14 42 -9 0 -15 -21 -19 -72 -4 -40 -9 -86 -13 -101 -6 -24 -4 -28 11 -25
10 1 22 15 26 31 9 35 77 137 91 137 5 0 7 -7 4 -16 -3 -9 -9 -39 -12 -69 -8
-63 7 -80 33 -37 29 46 89 112 96 105 4 -3 7 -17 7 -30 0 -38 18 -63 45 -63
29 0 34 25 6 33 -13 3 -20 18 -25 56 -8 63 -29 77 -60 38 -12 -15 -31 -39 -44
-54 l-23 -28 6 36 c11 71 -21 91 -67 42z"/>
<path d="M5702 9218 c6 -18 117 -31 135 -16 21 17 8 22 -68 25 -54 3 -70 0
-67 -9z"/>
<path d="M10834 9188 c-53 -58 -88 -118 -76 -130 7 -7 19 2 41 33 66 96 72
102 89 86 12 -13 13 -25 2 -82 -9 -48 -10 -69 -2 -77 13 -13 16 -7 31 62 16
68 13 98 -9 120 -27 27 -41 25 -76 -12z"/>
<path d="M10650 9153 c-7 -32 -16 -68 -21 -81 -11 -28 -1 -74 15 -69 6 2 17
37 24 78 18 103 19 121 5 126 -7 3 -16 -18 -23 -54z"/>
<path d="M2915 9120 c-9 -15 4 -30 26 -30 23 0 26 25 3 34 -21 8 -22 8 -29 -4z"/>
<path d="M2510 9060 c0 -35 14 -39 30 -10 12 23 6 40 -16 40 -9 0 -14 -11 -14
-30z"/>
<path d="M6773 8675 c-3 -11 8 -28 34 -50 49 -42 113 -163 113 -214 0 -49 -48
-143 -102 -202 -118 -125 -168 -183 -168 -191 0 -23 31 -1 97 70 208 219 239
300 167 439 -33 65 -110 163 -127 163 -4 0 -10 -7 -14 -15z"/>
<path d="M14256 8608 c-18 -86 -43 -186 -67 -267 -34 -110 -38 -174 -11 -169
12 3 16 12 14 32 -2 15 10 74 27 130 43 143 73 275 66 286 -11 17 -24 11 -29
-12z"/>
<path d="M3128 8605 c-44 -24 -118 -137 -146 -223 -19 -59 -25 -100 -26 -172
0 -87 2 -100 28 -148 38 -68 106 -105 186 -100 74 4 80 28 8 28 -76 0 -136 32
-168 90 -21 38 -25 57 -24 125 2 134 40 245 116 331 40 45 65 59 83 44 18 -15
31 6 15 25 -15 19 -37 18 -72 0z"/>
<path d="M12456 8598 c-3 -13 -12 -71 -22 -130 l-17 -108 -36 -2 c-20 -1 -51
-1 -69 0 -27 1 -33 -2 -30 -16 3 -14 14 -17 66 -15 l62 3 0 -45 c0 -33 -4 -45
-14 -45 -8 0 -17 -4 -21 -9 -8 -13 42 -64 54 -56 6 3 11 37 11 74 0 39 5 72
12 79 11 11 98 18 98 8 0 -2 -11 -33 -24 -69 -14 -35 -32 -104 -41 -153 -9
-49 -19 -99 -22 -111 -8 -36 24 -29 43 10 10 17 28 61 40 97 21 58 27 66 54
71 40 9 74 41 101 96 18 38 19 48 9 73 -14 34 -50 48 -83 33 -12 -5 -53 -11
-92 -12 -38 -1 -73 -5 -77 -7 -12 -8 -10 14 13 125 11 56 18 109 15 117 -8 21
-25 17 -30 -8z m224 -258 c13 -24 -4 -62 -49 -104 -42 -40 -57 -31 -52 33 3
46 7 55 35 72 39 24 53 24 66 -1z"/>
<path d="M7906 8572 c-9 -18 -27 -47 -40 -66 -13 -19 -30 -56 -37 -82 -8 -26
-18 -48 -24 -50 -5 -2 -29 -8 -52 -14 -28 -7 -43 -16 -43 -26 0 -16 2 -16 68
2 22 6 22 6 16 -62 -5 -62 -4 -73 18 -104 21 -31 29 -35 76 -38 53 -3 97 12
87 29 -4 5 -24 6 -45 3 -22 -4 -50 -4 -64 0 -32 8 -50 62 -41 123 l6 45 46 -4
c60 -4 71 19 14 28 -33 5 -41 11 -41 28 1 30 35 102 71 148 29 36 30 41 16 55
-14 14 -17 13 -31 -15z"/>
<path d="M8806 8578 c-3 -7 -12 -56 -22 -108 -9 -52 -32 -138 -51 -190 -38
-109 -38 -110 -18 -110 19 0 38 39 60 120 25 92 67 179 102 218 37 39 50 40
63 6 17 -43 11 -106 -15 -169 -14 -33 -25 -63 -25 -67 0 -21 30 -3 73 45 l49
52 34 -72 c18 -40 44 -79 56 -87 26 -16 147 -31 178 -21 11 3 20 12 20 18 0 8
-26 13 -79 14 -80 2 -150 22 -106 31 41 9 105 54 111 79 9 33 -7 77 -27 81 -9
2 -42 -20 -73 -48 l-56 -52 -10 27 c-5 14 -10 33 -10 41 0 24 -30 28 -58 7
l-27 -20 0 77 c0 63 -4 82 -19 99 -29 32 -59 26 -101 -21 -35 -38 -37 -39 -32
-15 4 15 10 38 13 52 5 19 2 25 -10 25 -9 0 -18 -6 -20 -12z m404 -218 c0 -17
-62 -70 -82 -70 -18 0 -6 25 28 56 41 39 54 42 54 14z"/>
<path d="M13112 8569 c-5 -13 -13 -54 -16 -91 l-7 -67 -37 -3 c-46 -4 -48 -22
-3 -26 l34 -3 -7 -77 c-4 -42 -12 -82 -18 -90 -8 -9 -8 -16 1 -25 21 -21 39
19 47 105 4 44 12 81 18 84 23 8 63 13 119 13 45 1 57 4 57 17 0 14 -13 15
-90 12 -56 -2 -90 1 -90 7 0 6 5 41 10 79 7 46 7 73 1 79 -7 7 -13 2 -19 -14z"/>
<path d="M4943 8523 c-57 -202 -63 -218 -98 -250 -33 -31 -77 -43 -89 -24 -9
15 54 101 75 101 21 0 27 34 7 46 -14 9 -91 -75 -109 -117 -24 -60 25 -91 96
-60 23 10 46 24 50 31 5 8 11 4 19 -12 21 -43 145 -33 185 16 20 24 -5 28 -41
6 -45 -27 -104 -27 -118 1 -9 16 -8 31 8 67 24 56 56 208 47 222 -11 18 -21
10 -32 -27z"/>
<path d="M6375 8460 c-3 -6 2 -13 12 -17 33 -11 53 -36 53 -65 0 -34 -59 -103
-118 -136 -37 -20 -40 -21 -35 -4 3 12 -1 19 -11 19 -18 0 -32 -39 -21 -56 3
-6 14 -11 24 -11 20 0 99 49 120 73 16 20 31 22 31 4 0 -26 36 -47 78 -47 67
0 142 20 142 37 0 12 -7 14 -27 9 -16 -3 -55 -9 -89 -12 -70 -8 -82 1 -60 44
16 31 100 112 116 112 5 0 10 7 10 15 0 32 -63 2 -106 -52 l-23 -28 -1 32 c0
45 -9 62 -41 78 -33 18 -46 19 -54 5z"/>
<path d="M10046 8449 c4 -7 0 -9 -14 -5 -22 7 -70 -13 -91 -38 -17 -20 -7 -46
40 -103 21 -26 39 -53 39 -59 0 -38 -74 -40 -85 -2 -8 24 -31 18 -27 -8 5 -30
26 -45 69 -51 34 -4 43 -2 57 18 24 35 20 57 -25 116 -23 31 -38 61 -35 69 7
17 65 44 96 44 11 0 20 7 20 15 0 9 -10 15 -26 15 -16 0 -23 -4 -18 -11z"/>
<path d="M14652 8434 c-120 -60 -170 -182 -94 -232 57 -37 299 -2 295 42 -1
12 4 15 15 11 13 -5 14 -4 5 6 -10 10 -15 9 -27 0 -13 -11 -185 -40 -243 -41
-28 0 -53 25 -53 54 0 39 35 73 82 80 77 12 108 26 114 52 6 25 -10 54 -30 54
-7 0 -35 -12 -64 -26z m62 -24 c-5 -5 -25 -12 -44 -15 l-35 -5 40 19 c39 19
58 20 39 1z"/>
<path d="M10439 8401 c-34 -54 -44 -64 -34 -32 7 23 -9 36 -23 18 -14 -17 -45
-165 -37 -177 11 -18 24 -1 64 78 21 42 48 88 60 102 l20 25 1 -82 c0 -46 4
-83 8 -83 5 0 31 27 57 60 l48 60 19 -41 c10 -22 26 -43 37 -46 11 -3 21 -17
25 -33 6 -35 42 -60 98 -70 54 -10 118 -1 118 16 0 11 -17 14 -69 14 -54 0
-74 4 -95 21 -36 29 -33 41 19 62 84 35 116 77 81 106 -23 19 -66 2 -113 -46
-24 -24 -49 -41 -54 -37 -6 3 -19 26 -30 51 -24 56 -42 54 -84 -7 l-30 -45 -5
65 c-4 58 -7 65 -27 68 -18 3 -30 -7 -54 -47z m381 -30 c0 -13 -67 -54 -81
-49 -6 2 6 16 28 31 40 28 53 33 53 18z"/>
<path d="M3562 8428 c-57 -72 -75 -190 -34 -230 26 -26 91 -29 139 -6 28 13
31 36 3 29 -8 -2 -38 -5 -66 -8 -49 -4 -51 -4 -63 25 -7 17 -10 41 -6 54 11
41 48 118 57 118 4 0 8 7 8 15 0 18 -24 20 -38 3z"/>
<path d="M10161 8383 c-42 -47 -56 -77 -49 -110 6 -34 67 -29 108 9 18 17 22
18 17 5 -8 -22 9 -67 25 -67 16 0 16 152 0 158 -5 1 -20 -13 -32 -33 -23 -37
-56 -65 -77 -65 -37 0 23 95 73 116 38 16 37 34 -1 34 -15 0 -37 -16 -64 -47z"/>
<path d="M14474 8413 c-21 -69 -63 -149 -87 -167 -29 -21 -29 -21 -43 -1 -10
13 -14 38 -12 70 1 38 -1 50 -12 50 -11 0 -16 -15 -18 -56 -2 -44 1 -61 18
-82 25 -31 39 -33 80 -12 20 11 39 37 64 88 18 39 35 83 37 96 5 29 -18 41
-27 14z"/>
<path d="M4400 8378 c-77 -106 -39 -166 59 -94 l48 36 -8 -45 c-8 -45 -4 -75
11 -75 4 0 20 17 36 38 37 49 74 82 90 82 8 0 14 -15 16 -37 2 -26 8 -38 18
-38 11 0 14 10 12 40 -2 22 -8 46 -14 53 -20 24 -60 13 -99 -28 l-37 -39 5 54
c4 38 2 55 -6 55 -6 0 -20 9 -31 20 -33 33 -64 26 -100 -22z m81 -4 c17 -15
16 -17 -14 -43 -42 -37 -77 -55 -77 -41 0 23 53 100 68 100 3 0 13 -7 23 -16z"/>
<path d="M13958 8376 c-54 -42 -87 -99 -72 -124 19 -29 45 -26 127 16 4 2 12
-10 18 -27 13 -37 45 -44 35 -8 -4 12 -9 34 -12 50 -8 32 -25 34 -68 8 -17
-10 -41 -22 -53 -25 -18 -6 -20 -4 -16 14 7 27 73 90 95 90 10 0 18 6 18 14 0
28 -29 24 -72 -8z"/>
<path d="M3392 8384 c1 -9 19 -23 38 -29 19 -6 36 -18 38 -26 3 -18 -49 -69
-74 -73 -23 -4 -30 -24 -10 -32 18 -7 80 29 101 59 8 12 15 34 15 50 0 22 -7
31 -32 41 -67 28 -80 29 -76 10z"/>
<path d="M13783 8388 c-5 -7 -20 -38 -32 -68 -12 -30 -28 -66 -36 -80 l-14
-25 -1 33 c0 66 -58 147 -90 127 -17 -11 -11 -35 10 -35 26 0 42 -33 51 -103
4 -32 9 -61 13 -64 15 -15 39 15 80 101 39 81 48 94 66 89 13 -4 20 -1 20 10
0 26 -50 37 -67 15z"/>
<path d="M11810 8376 c-66 -21 -107 -149 -62 -189 36 -33 104 -13 149 43 29
36 4 142 -37 153 -9 2 -32 -1 -50 -7z m70 -92 c0 -41 -50 -87 -89 -82 -22 3
-26 9 -29 38 -3 47 31 104 57 95 11 -3 23 0 27 6 11 19 34 -19 34 -57z"/>
<path d="M12065 8336 c-13 -45 -26 -64 -71 -103 -29 -26 -54 -56 -54 -65 0
-27 12 -22 60 27 l44 45 12 -30 c16 -36 44 -39 82 -10 l26 21 14 -26 c9 -18
20 -25 34 -23 29 4 34 24 8 31 -25 6 -25 30 0 86 11 24 20 52 20 62 0 33 -20
21 -39 -23 -22 -49 -94 -124 -110 -114 -16 10 -14 57 4 99 19 46 19 77 0 77
-9 0 -20 -20 -30 -54z"/>
<path d="M5970 8362 c0 -22 15 -38 24 -24 6 11 64 3 72 -9 8 -14 34 -11 34 4
0 19 -35 37 -85 44 -41 5 -45 4 -45 -15z"/>
<path d="M8023 8368 c-3 -6 2 -17 11 -24 16 -12 15 -15 -18 -47 -39 -38 -44
-58 -21 -77 13 -11 27 -11 71 -1 72 16 109 48 100 84 -7 29 -26 42 -92 62 -30
9 -46 10 -51 3z m95 -54 c12 -8 22 -20 22 -25 0 -11 -49 -33 -98 -44 -32 -7
-33 -6 -21 13 7 12 24 26 36 33 13 7 21 19 19 26 -7 18 15 16 42 -3z"/>
<path d="M12896 8371 c-3 -4 -1 -23 4 -42 6 -19 10 -39 10 -46 0 -18 -77 -55
-108 -51 -23 3 -27 8 -30 41 -2 23 -8 37 -17 37 -38 0 -20 -95 21 -110 31 -12
115 15 145 46 18 19 20 30 14 73 -6 45 -27 73 -39 52z"/>
<path d="M8084 7869 c-3 -6 3 -23 15 -37 182 -230 194 -346 64 -610 -60 -120
-134 -212 -172 -212 -27 0 -35 -17 -14 -29 25 -13 62 8 113 66 68 77 160 268
183 380 16 75 11 133 -17 213 -17 46 -143 240 -157 240 -4 0 -11 -5 -15 -11z"/>
<path d="M3067 7803 c-4 -3 -7 -13 -7 -20 0 -10 9 -12 34 -8 18 4 36 2 40 -3
3 -5 -19 -33 -50 -61 -44 -41 -55 -57 -52 -78 5 -43 26 -48 110 -28 49 11 79
24 86 36 15 23 15 23 -77 -1 -103 -27 -111 -15 -38 58 58 58 67 78 45 100 -13
13 -80 17 -91 5z"/>
<path d="M4584 7800 c-32 -13 -82 -79 -100 -132 -10 -32 -14 -74 -12 -128 3
-79 3 -81 -22 -86 -63 -13 -84 -20 -88 -32 -3 -10 11 -11 60 -6 l65 6 13 -63
c15 -70 20 -222 7 -235 -4 -5 -16 -3 -26 3 -24 15 -33 6 -20 -19 15 -27 60
-20 76 12 19 37 13 158 -13 283 -5 24 -3 27 20 27 22 0 26 4 26 29 0 31 -24
38 -40 12 -4 -8 -13 -10 -19 -7 -15 10 -13 152 3 199 17 47 64 109 79 104 7
-2 14 -28 17 -57 7 -74 26 -76 29 -2 2 70 -19 106 -55 92z"/>
<path d="M7218 7753 c-38 -40 -58 -75 -106 -188 -40 -94 -49 -128 -57 -207
-15 -155 51 -275 168 -304 25 -6 28 -4 25 12 -2 11 -20 24 -48 34 -87 30 -128
133 -110 275 10 77 39 161 92 270 39 79 67 109 85 93 19 -16 33 2 22 30 -12
31 -30 28 -71 -15z"/>
<path d="M4955 7753 c-49 -52 -92 -154 -119 -284 -17 -83 -6 -168 30 -222 29
-45 102 -82 140 -73 38 10 29 31 -15 32 -140 6 -173 201 -72 429 31 70 68 116
87 108 12 -4 15 -1 12 13 -5 29 -33 28 -63 -3z"/>
<path d="M5266 7772 c-3 -5 30 -44 72 -88 87 -89 140 -179 149 -252 4 -38 -1
-66 -26 -137 -17 -50 -41 -103 -52 -118 -15 -21 -18 -32 -10 -40 7 -7 14 -7
25 2 23 19 87 190 93 247 10 97 -50 216 -166 332 -63 62 -75 70 -85 54z"/>
<path d="M6794 7711 c-74 -45 -100 -132 -70 -235 10 -32 15 -61 11 -64 -3 -3
-35 -9 -71 -13 -69 -7 -84 -13 -68 -29 6 -6 36 -7 79 -1 39 5 74 5 79 1 13
-12 20 -179 9 -220 -5 -19 -16 -35 -24 -35 -20 0 -24 -18 -7 -29 42 -26 68 32
68 149 0 39 -4 87 -9 107 l-9 37 47 6 c58 8 94 22 86 35 -3 5 -18 7 -33 5 -15
-2 -45 -6 -68 -9 l-41 -6 -16 60 c-21 75 -21 113 -1 156 19 40 65 76 91 72 11
-2 18 3 18 12 0 22 -36 23 -71 1z"/>
<path d="M2765 7560 c-23 -9 -60 -43 -72 -65 -8 -14 -12 -14 -41 0 -62 31
-112 5 -77 -40 14 -20 15 -20 21 3 4 15 12 21 21 18 8 -3 19 -6 24 -6 5 0 9
-13 9 -29 0 -35 -41 -97 -62 -93 -11 2 -15 -4 -14 -15 5 -30 47 -22 71 13 l21
31 13 -27 c14 -33 57 -53 114 -54 59 -1 58 20 -2 28 -69 9 -96 33 -95 86 2 55
49 116 89 113 22 -2 26 2 23 19 -4 25 -15 30 -43 18z"/>
<path d="M4986 7563 c-13 -14 -5 -29 24 -41 16 -7 39 -29 51 -49 22 -34 22
-36 4 -49 -13 -10 -22 -11 -31 -3 -17 14 -35 3 -28 -16 9 -21 38 -27 68 -14
47 22 44 70 -8 127 -25 28 -71 54 -80 45z"/>
<path d="M7692 7518 c-17 -17 -15 -38 3 -38 8 0 15 5 15 10 0 12 30 13 49 1 9
-6 11 -18 7 -34 -7 -31 -114 -149 -127 -141 -14 8 -23 -26 -11 -38 9 -9 25 0
61 30 32 27 47 35 44 24 -2 -10 5 -26 15 -36 25 -22 93 -14 142 16 42 25 27
47 -17 25 -16 -9 -45 -18 -66 -22 -34 -7 -37 -6 -37 17 0 25 42 97 79 135 11
12 21 27 21 33 0 19 -29 10 -49 -16 -19 -24 -21 -25 -21 -7 0 43 -77 72 -108
41z"/>
<path d="M5126 7494 c-24 -61 17 -128 78 -126 45 2 76 18 76 38 0 12 -5 14
-17 8 -10 -4 -34 -9 -55 -12 -30 -3 -38 0 -48 18 -7 13 -9 37 -5 56 4 26 2 34
-8 34 -8 0 -18 -7 -21 -16z"/>
<path d="M5998 7472 c-44 -11 -68 -21 -68 -31 0 -11 10 -12 48 -6 26 4 67 10
92 14 31 4 45 11 45 21 0 21 -36 21 -117 2z"/>
<path d="M3550 7473 c-40 -5 -59 -18 -44 -32 11 -12 149 10 155 24 4 11 -54
15 -111 8z"/>
<path d="M7297 7393 c-10 -3 -16 -10 -14 -16 6 -18 212 -17 212 1 0 9 -26 13
-90 15 -49 2 -98 2 -108 0z"/>
<path d="M3581 7374 c-107 -23 -115 -55 -9 -35 76 15 108 27 108 41 0 13 -20
12 -99 -6z"/>
<path d="M5935 7350 c-3 -5 0 -13 8 -16 23 -9 142 0 142 11 0 14 -142 19 -150
5z"/>
<path d="M8430 7331 c0 -27 12 -32 34 -16 21 16 13 35 -15 35 -12 0 -19 -7
-19 -19z"/>
<path d="M14046 6917 c-42 -23 -58 -47 -32 -47 8 0 31 10 51 21 26 15 39 19
47 11 18 -18 -27 -77 -104 -138 -38 -31 -67 -59 -63 -62 11 -11 165 -13 186
-2 32 18 11 32 -37 24 -75 -11 -80 0 -23 53 75 70 95 116 63 147 -21 21 -42
20 -88 -7z"/>
<path d="M11772 6885 c-54 -45 -90 -146 -107 -296 l-7 -55 -89 -18 c-83 -17
-109 -29 -95 -43 3 -3 43 2 88 11 113 22 110 23 103 -21 -19 -112 -82 -245
-130 -274 -34 -21 -60 -25 -49 -7 4 7 3 8 -4 4 -9 -5 -9 -13 -2 -27 13 -24 27
-24 68 1 58 36 122 161 144 282 9 51 13 57 36 60 35 4 35 22 0 26 -27 3 -28 5
-28 65 0 101 49 243 92 271 22 14 29 6 35 -43 6 -40 16 -51 28 -31 10 16 -5
89 -22 105 -20 20 -27 19 -61 -10z"/>
<path d="M10620 6828 c-18 -24 -44 -86 -62 -144 -28 -94 -33 -103 -57 -106
-15 -2 -26 -9 -26 -18 0 -9 8 -14 22 -13 20 2 20 0 -13 -80 -38 -91 -40 -107
-20 -107 8 0 20 17 27 38 6 20 15 42 19 47 4 6 14 30 21 53 14 47 36 62 88 62
28 0 59 24 44 33 -4 3 -30 1 -56 -3 -33 -5 -47 -4 -44 4 2 6 12 36 21 67 15
55 81 169 97 169 4 0 11 -9 14 -21 7 -20 26 -22 32 -3 6 17 -37 64 -58 64 -11
0 -32 -18 -49 -42z"/>
<path d="M12530 6848 c0 -8 16 -41 36 -74 65 -107 87 -158 87 -199 0 -46 -39
-130 -91 -193 -30 -37 -39 -42 -71 -40 -20 2 -37 -1 -38 -7 -2 -5 0 -10 5 -11
4 0 21 -6 37 -13 29 -12 31 -11 79 41 55 59 116 177 116 223 0 34 -38 119 -97
214 -39 64 -63 86 -63 59z"/>
<path d="M8737 6771 c-6 -71 -41 -206 -59 -228 -6 -7 -23 -13 -39 -13 -19 0
-29 -5 -29 -15 0 -9 9 -15 25 -15 30 0 29 5 10 -67 -9 -34 -11 -61 -6 -66 14
-14 31 1 31 27 0 12 7 44 16 70 l16 47 72 -3 71 -3 -2 -33 c-1 -22 -9 -39 -22
-48 -12 -9 -21 -21 -21 -27 0 -11 39 -42 44 -35 7 9 35 97 41 125 8 42 -13 53
-103 53 l-68 0 22 69 c22 67 45 216 35 226 -18 18 -29 -2 -34 -64z"/>
<path d="M12068 6803 c-53 -48 -98 -119 -132 -209 -33 -89 -42 -156 -27 -225
14 -66 81 -209 99 -209 17 0 15 20 -6 55 -70 114 -83 242 -39 365 45 123 141
246 173 219 11 -9 15 -8 20 4 3 9 3 21 -1 27 -12 20 -45 10 -87 -27z"/>
<path d="M7961 6804 c-47 -39 -91 -138 -98 -220 l-6 -71 -88 -12 c-50 -7 -93
-19 -100 -27 -6 -7 -15 -11 -20 -8 -5 3 -9 0 -9 -5 0 -14 21 -13 100 4 36 8
77 14 93 15 27 0 27 0 26 -67 0 -91 -17 -137 -49 -141 -39 -6 -47 -20 -17 -31
34 -13 54 -5 71 28 21 41 27 79 27 153 0 50 3 68 13 68 8 0 27 3 44 6 l31 6
-21 -41 c-25 -51 -16 -98 24 -120 23 -13 30 -13 64 3 52 23 76 59 82 118 4 40
2 48 -12 48 -11 0 -16 -9 -16 -29 0 -47 -17 -79 -52 -101 -18 -11 -35 -20 -38
-20 -19 1 -32 23 -32 55 0 28 8 45 31 69 39 40 40 59 4 52 -16 -2 -49 -8 -75
-11 l-48 -6 0 39 c0 22 9 69 20 104 31 102 112 168 150 123 10 -12 16 -13 27
-3 13 10 12 15 -7 30 -32 26 -83 23 -119 -8z"/>
<path d="M4063 6804 c-18 -7 -64 -17 -103 -20 -69 -7 -91 -17 -74 -34 8 -8
151 10 202 26 19 6 22 3 22 -24 0 -17 -22 -103 -50 -190 -58 -185 -68 -236
-49 -247 8 -6 18 0 28 15 37 56 103 140 111 140 4 0 10 -17 13 -38 5 -29 20
-50 62 -90 30 -29 62 -52 70 -52 22 0 137 40 153 52 15 13 16 42 1 33 -6 -4
-36 -13 -67 -21 -100 -24 -136 -14 -67 19 41 20 66 55 67 97 2 68 -43 64 -100
-9 -20 -27 -42 -57 -48 -67 -10 -17 -12 -17 -26 11 -9 17 -19 49 -23 73 -4 24
-14 46 -22 49 -19 7 -71 -43 -91 -87 -32 -75 -20 -7 23 134 67 215 59 271 -32
230z m267 -363 c-5 -11 -15 -23 -22 -27 -7 -5 -8 -2 -3 7 21 37 44 55 25 20z"/>
<path d="M5192 6718 c-9 -11 -8 -19 4 -36 16 -23 34 -21 34 2 0 7 -6 20 -13
30 -11 15 -15 16 -25 4z"/>
<path d="M8957 6703 c-17 -16 -6 -43 16 -43 33 0 40 10 20 32 -17 19 -26 22
-36 11z"/>
<path d="M3890 6669 c0 -11 -12 -66 -26 -122 -18 -67 -27 -131 -28 -187 -1
-109 17 -117 25 -11 3 43 19 131 34 194 15 63 25 122 22 131 -9 23 -27 20 -27
-5z"/>
<path d="M6028 6620 c-25 -15 -67 -93 -79 -148 -11 -45 -15 -51 -49 -61 -54
-16 -79 -14 -137 14 -42 19 -53 29 -53 48 0 29 35 69 80 92 66 34 35 -13 -32
-50 -28 -16 -35 -29 -19 -39 11 -7 97 50 116 77 10 14 11 25 4 39 -30 57 -179
-39 -179 -116 0 -38 18 -57 80 -85 53 -24 98 -26 144 -7 32 13 34 13 39 -6 8
-31 27 -11 27 28 0 39 47 139 79 168 18 16 25 17 47 8 33 -15 44 -15 44 1 0
13 -60 47 -83 47 -7 0 -19 -5 -29 -10z"/>
<path d="M12281 6569 c-23 -34 -41 -73 -41 -88 0 -33 34 -66 76 -75 39 -9 104
16 104 38 0 20 -10 20 -46 1 -30 -15 -70 -11 -93 10 -21 20 -5 68 40 118 44
51 46 57 20 57 -13 0 -34 -22 -60 -61z"/>
<path d="M13078 6617 c-22 -6 -38 -17 -38 -25 0 -12 8 -13 38 -7 20 5 57 8 82
9 43 0 64 11 54 28 -7 11 -91 8 -136 -5z"/>
<path d="M12167 6613 c-16 -15 -6 -33 18 -33 14 0 28 -7 31 -15 9 -23 -43 -85
-76 -92 -31 -6 -47 -30 -31 -46 23 -23 141 83 141 127 0 34 -63 79 -83 59z"/>
<path d="M13621 6598 c-9 -24 -4 -48 9 -48 4 0 11 7 14 16 9 22 36 0 36 -30 0
-57 -106 -152 -155 -140 -21 5 -25 3 -25 -15 0 -16 6 -21 25 -21 30 0 95 31
115 55 12 14 15 13 26 -14 12 -30 16 -31 71 -31 64 0 154 33 137 50 -7 7 -26
5 -56 -6 -57 -19 -122 -16 -126 7 -6 34 87 142 141 162 9 3 9 8 1 17 -15 15
-45 1 -91 -43 -32 -30 -33 -30 -33 -8 0 24 -44 71 -67 71 -7 0 -17 -10 -22
-22z"/>
<path d="M5600 6568 c-18 -68 -41 -127 -56 -139 -19 -16 -49 12 -65 58 -6 19
-16 32 -22 30 -27 -9 15 -104 55 -127 24 -13 29 -13 47 4 20 19 64 124 76 184
5 25 3 32 -9 32 -10 0 -19 -16 -26 -42z"/>
<path d="M6242 6575 c-57 -17 -72 -32 -72 -66 0 -34 24 -60 79 -88 49 -25 58
-39 39 -58 -23 -22 -91 -28 -127 -10 -32 16 -45 10 -35 -17 7 -18 80 -31 128
-22 18 4 46 18 61 32 25 23 26 27 12 47 -8 12 -29 32 -48 44 -72 46 -85 60
-73 80 14 23 83 43 106 32 24 -13 35 11 13 28 -22 16 -28 16 -83 -2z"/>
<path d="M9337 6550 c-55 -35 -57 -35 -57 -15 0 21 -17 19 -30 -4 -5 -11 -28
-41 -50 -66 -22 -25 -40 -53 -40 -61 0 -18 29 -18 36 0 5 13 138 113 181 135
l22 11 -25 -60 c-31 -78 -31 -130 0 -167 23 -27 25 -27 63 -14 54 19 87 41 76
52 -5 5 -26 2 -51 -7 -34 -14 -44 -14 -57 -4 -22 18 -19 59 10 124 19 43 23
61 15 81 -13 33 -36 32 -93 -5z"/>
<path d="M5130 6548 c0 -13 -11 -54 -25 -93 -33 -94 -32 -155 2 -155 10 0 12
8 8 33 -4 22 2 58 19 111 30 90 33 126 11 126 -9 0 -15 -9 -15 -22z"/>
<path d="M6536 6551 c-91 -60 -78 -162 25 -191 50 -15 145 -12 184 4 39 17 49
43 13 32 -13 -4 -52 -10 -88 -13 -80 -6 -139 12 -157 47 -12 24 -11 25 30 32
56 8 116 35 124 54 3 8 -3 24 -12 34 -23 26 -81 26 -119 1z m92 -23 c-2 -6
-26 -19 -52 -28 -26 -8 -44 -19 -40 -23 4 -4 2 -7 -4 -7 -21 0 -13 28 14 49
29 23 88 29 82 9z"/>
<path d="M9085 6559 c-4 -5 5 -27 19 -48 14 -20 26 -45 26 -54 0 -24 -40 -47
-86 -50 -33 -2 -39 1 -42 20 -2 16 5 26 29 38 23 13 28 20 20 28 -16 16 -62
-10 -79 -45 -15 -31 -1 -64 31 -74 31 -10 97 7 127 33 36 30 39 68 10 106 -11
14 -20 32 -20 41 0 18 -25 22 -35 5z"/>
<path d="M5269 6503 c-47 -51 -79 -99 -79 -118 0 -29 20 -15 54 38 18 28 43
60 54 70 20 18 21 18 31 -2 6 -11 11 -47 11 -80 0 -67 6 -91 25 -91 16 0 8
141 -11 188 -17 43 -41 41 -85 -5z"/>
<path d="M8247 6519 c-27 -16 -107 -128 -107 -150 0 -33 26 -21 45 21 21 47
82 113 98 107 10 -3 27 -44 44 -106 3 -10 7 -11 15 -3 16 16 1 95 -23 121 -22
23 -44 26 -72 10z"/>
<path d="M10320 6510 c0 -5 -16 -17 -35 -26 -62 -29 -94 -91 -63 -122 18 -18
79 -14 114 7 44 27 60 90 32 126 -19 25 -48 34 -48 15z m20 -69 c0 -35 -31
-61 -72 -61 -47 0 -31 43 27 74 41 21 45 20 45 -13z"/>
<path d="M12980 6511 c-14 -4 -26 -15 -28 -25 -3 -16 0 -17 30 -10 18 5 64 9
102 9 85 0 101 19 24 28 -63 8 -94 7 -128 -2z"/>
<path d="M8388 6473 c-43 -50 -12 -113 53 -113 44 0 99 21 99 38 0 7 5 10 10
7 6 -3 10 -2 10 3 0 19 -12 19 -50 1 -63 -31 -110 -23 -110 17 0 14 6 27 14
30 8 3 17 12 20 20 8 20 -28 18 -46 -3z"/>
<path d="M6875 6024 c-60 -8 -143 -23 -183 -34 -88 -24 -80 -25 -84 3 -2 14
-11 23 -25 25 -21 3 -23 -1 -23 -40 0 -24 -7 -86 -16 -138 -8 -52 -17 -120
-20 -150 -12 -141 -27 -247 -39 -270 -12 -23 -13 -22 -23 30 -5 30 -8 126 -6
213 3 131 1 157 -11 157 -7 0 -16 -4 -19 -9 -3 -5 -50 -28 -103 -51 -114 -50
-110 -47 -96 -61 10 -10 42 1 188 67 6 3 9 -41 7 -123 -9 -335 84 -393 123
-78 8 66 25 177 37 248 l22 127 34 0 c19 0 60 6 91 14 66 17 334 49 406 48 46
-1 80 12 71 27 -8 13 -220 9 -331 -5z"/>
<path d="M13831 5985 c-42 -48 -59 -84 -80 -168 l-17 -72 -44 -5 c-58 -7 -66
-30 -11 -30 23 0 41 -5 41 -10 0 -6 -12 -58 -26 -116 -19 -74 -24 -108 -16
-116 16 -16 32 0 32 34 0 16 7 53 14 81 8 29 20 71 26 95 10 40 13 42 48 42
56 0 112 18 112 37 0 8 -6 13 -13 10 -29 -11 -127 -19 -127 -10 0 5 7 36 16
68 27 107 93 192 116 151 5 -9 13 -16 17 -16 17 0 20 30 5 45 -26 25 -59 18
-93 -20z"/>
<path d="M4036 5914 c4 -26 1 -70 -6 -105 -14 -65 -4 -109 25 -109 12 0 13 9
9 43 -4 24 -1 66 4 94 13 56 -1 123 -25 123 -11 0 -13 -10 -7 -46z"/>
<path d="M10097 5913 c-4 -3 -7 -46 -7 -94 l0 -87 -59 -7 c-38 -4 -67 -3 -80
5 -17 9 -22 8 -27 -5 -10 -26 3 -30 88 -29 l81 1 -7 -95 c-5 -70 -11 -98 -22
-107 -15 -10 -14 -14 8 -38 14 -15 28 -27 31 -27 3 0 6 17 6 38 0 20 2 48 4
62 3 14 5 59 6 100 l1 76 40 11 c22 5 40 7 40 4 0 -3 -6 -45 -13 -92 -8 -51
-10 -96 -5 -109 8 -22 9 -22 44 14 66 68 114 56 114 -28 0 -49 12 -71 34 -63
18 7 22 27 6 27 -5 0 -10 18 -10 41 0 91 -52 124 -126 78 -40 -24 -39 -28 -18
96 26 152 28 185 10 185 -11 0 -17 -14 -22 -51 -6 -46 -10 -53 -40 -65 -50
-21 -56 -18 -54 29 5 117 -1 152 -23 130z"/>
<path d="M11441 5868 c1 -24 1 -122 0 -218 -1 -180 5 -211 38 -190 12 7 13 17
2 66 -8 36 -12 110 -11 198 4 179 3 186 -15 186 -11 0 -15 -11 -14 -42z"/>
<path d="M4833 5883 c-22 -8 -14 -22 20 -36 62 -26 127 -147 127 -236 0 -99
-53 -243 -112 -301 -24 -24 -28 -34 -19 -43 10 -9 20 -3 47 27 107 123 143
329 80 454 -43 85 -109 147 -143 135z"/>
<path d="M3523 5843 c-29 -53 -47 -151 -41 -232 l5 -69 -36 -6 c-20 -3 -46 -3
-58 0 -26 7 -30 -7 -8 -26 10 -8 30 -10 63 -5 l49 6 11 -43 c24 -90 32 -135
32 -199 0 -71 -12 -94 -41 -79 -23 13 -35 -5 -19 -25 17 -21 46 -19 70 5 33
33 25 190 -16 324 -6 17 -2 18 34 12 46 -7 72 0 72 20 0 10 -15 14 -59 14
l-60 0 -7 46 c-11 76 10 208 40 249 14 20 15 20 45 -3 35 -26 41 -27 41 -8 0
20 -48 56 -75 56 -14 0 -28 -12 -42 -37z"/>
<path d="M4421 5854 c-55 -46 -111 -176 -131 -301 -15 -94 0 -153 52 -204 42
-40 137 -83 163 -73 25 10 11 28 -26 35 -78 13 -158 83 -161 142 -5 100 18
203 70 300 39 76 69 102 102 92 18 -6 21 -3 18 12 -5 29 -50 28 -87 -3z"/>
<path d="M8144 5869 c-4 -7 -8 -77 -10 -158 -2 -80 -4 -162 -6 -181 -3 -32 -1
-35 27 -38 59 -7 145 36 145 73 0 40 -66 59 -106 30 -21 -14 -21 -13 -27 70
-3 47 -2 110 3 141 5 31 7 61 4 65 -7 12 -22 11 -30 -2z m121 -299 c7 -11 -52
-50 -77 -50 -26 0 -22 15 8 39 28 22 59 27 69 11z"/>
<path d="M8665 5787 c-1 -125 -2 -127 -70 -127 -42 0 -55 -3 -55 -15 0 -11 12
-15 48 -16 26 -1 51 -1 56 0 12 2 -3 -120 -16 -137 -8 -9 -8 -16 1 -25 20 -20
39 18 47 94 l6 68 51 3 c70 4 76 28 7 28 l-52 0 7 69 c8 79 -1 151 -18 151 -8
0 -12 -29 -12 -93z"/>
<path d="M9516 5813 c11 -90 11 -249 0 -295 -7 -32 -6 -38 8 -38 9 0 19 15 26
38 12 47 65 122 84 122 22 0 46 -29 46 -55 0 -14 -11 -32 -26 -44 -31 -25 -59
-28 -51 -6 8 19 -13 31 -24 14 -15 -25 -10 -57 10 -64 29 -9 96 29 113 65 19
40 12 75 -20 100 -32 26 -60 25 -88 -1 l-23 -21 -5 38 c-4 22 -11 64 -16 95
-6 30 -10 70 -10 87 0 23 -5 32 -16 32 -15 0 -16 -8 -8 -67z"/>
<path d="M11890 5838 c1 -24 7 -72 15 -108 24 -109 24 -110 -39 -110 -63 0
-86 -7 -86 -25 0 -11 17 -12 75 -8 64 5 75 4 75 -10 0 -9 -4 -18 -9 -21 -4 -3
-11 -24 -14 -47 -3 -22 -13 -49 -23 -60 -13 -14 -15 -22 -6 -31 19 -19 39 -1
51 49 7 26 17 58 22 71 5 13 9 32 9 42 0 23 21 25 84 10 40 -9 82 2 71 19 -3
5 -40 12 -83 16 l-78 7 -17 96 c-10 54 -17 109 -17 125 0 17 -5 27 -15 27 -11
0 -15 -11 -15 -42z"/>
<path d="M3818 5843 c-49 -5 -53 -33 -5 -33 58 0 107 12 107 26 0 14 -20 15
-102 7z"/>
<path d="M2437 5826 c-8 -19 20 -43 34 -29 12 12 1 43 -16 43 -7 0 -15 -6 -18
-14z"/>
<path d="M12145 5790 c-6 -10 23 -60 35 -60 5 0 12 9 15 21 9 29 -35 63 -50
39z"/>
<path d="M12889 5763 c-80 -41 -79 -60 10 -135 19 -16 31 -35 29 -45 -4 -24
-87 -66 -103 -53 -15 13 -25 2 -25 -27 0 -44 59 -26 138 41 36 32 28 64 -30
118 -28 26 -50 49 -47 52 16 14 72 36 93 36 32 0 42 16 17 29 -25 14 -19 15
-82 -16z"/>
<path d="M12645 5760 c-17 -6 -72 -62 -103 -105 -15 -20 -53 -155 -47 -166 13
-19 44 22 65 87 26 77 91 156 111 136 17 -16 16 -105 -1 -155 -13 -42 -8 -67
14 -67 27 0 54 137 42 205 -7 34 -37 76 -53 74 -5 0 -17 -4 -28 -9z"/>
<path d="M6660 5685 c0 -24 5 -35 15 -35 8 0 15 9 15 21 l0 20 30 -21 c17 -12
30 -29 30 -39 0 -30 -43 -83 -83 -104 -34 -18 -37 -21 -24 -35 14 -13 19 -12
45 7 l31 21 25 -25 c14 -14 38 -26 53 -26 61 -3 136 3 159 11 48 19 23 28 -60
23 -93 -6 -131 0 -139 21 -9 22 50 132 81 155 20 15 24 23 16 31 -9 9 -20 4
-45 -18 l-34 -30 -33 29 c-18 16 -43 29 -57 29 -22 0 -25 -4 -25 -35z"/>
<path d="M5600 5696 c0 -30 28 -38 121 -33 96 6 105 8 94 28 -6 8 -32 9 -95 5
-59 -5 -90 -4 -95 3 -9 16 -25 14 -25 -3z"/>
<path d="M11017 5700 c-21 -4 -48 -16 -59 -28 -28 -27 -18 -61 33 -117 37 -40
38 -44 20 -50 -12 -3 -31 1 -46 11 -24 16 -25 15 -25 -4 0 -12 9 -26 21 -32
25 -14 95 -4 103 15 3 8 -17 42 -45 76 -27 34 -49 65 -49 70 0 21 94 43 122
28 24 -13 36 11 13 28 -20 14 -30 15 -88 3z"/>
<path d="M13543 5682 c-2 -9 -21 -26 -41 -37 -47 -26 -84 -80 -80 -120 3 -27
7 -30 40 -33 52 -4 116 30 133 72 15 35 10 101 -8 124 -14 18 -38 15 -44 -6z
m30 -93 c-8 -29 -48 -59 -87 -66 -29 -4 -36 -2 -36 10 0 24 59 87 80 87 11 0
22 5 26 12 10 15 23 -20 17 -43z"/>
<path d="M2574 5666 c-18 -14 -18 -15 -1 -22 22 -8 46 11 31 26 -7 7 -17 5
-30 -4z"/>
<path d="M4510 5666 c0 -8 9 -18 20 -21 25 -8 37 -50 20 -71 -7 -8 -35 -24
-62 -36 -52 -22 -62 -38 -25 -38 26 0 83 25 93 41 3 6 15 -3 25 -20 30 -49
102 -67 143 -36 16 12 17 18 8 27 -7 7 -12 8 -12 2 0 -9 -32 -11 -82 -6 -10 1
-22 11 -28 22 -12 22 -2 49 33 88 29 31 8 53 -22 23 l-20 -20 -30 29 c-31 32
-61 39 -61 16z"/>
<path d="M2392 5628 c0 -18 -3 -65 -7 -104 -5 -51 -4 -73 4 -79 18 -11 23 -1
25 57 2 29 6 70 11 90 5 26 4 43 -5 53 -19 23 -29 18 -28 -17z"/>
<path d="M9790 5640 c0 -11 0 -22 0 -26 1 -3 -8 -13 -19 -22 -28 -25 -35 -57
-16 -76 28 -28 124 -17 146 17 11 16 -1 44 -32 73 -16 15 -29 34 -29 41 0 7
-11 13 -25 13 -18 0 -25 -5 -25 -20z m57 -52 c39 -37 25 -58 -38 -58 -34 0
-38 19 -11 55 21 30 21 30 49 3z"/>
<path d="M2535 5640 c-13 -21 5 -59 40 -86 35 -26 44 -55 26 -82 -7 -11 -9
-11 -14 2 -10 25 -27 19 -27 -9 0 -27 29 -48 49 -36 19 12 40 83 30 102 -5 9
-23 29 -41 44 -17 15 -32 36 -33 48 -2 24 -20 34 -30 17z"/>
<path d="M11194 5597 c-82 -83 -112 -164 -84 -218 22 -39 94 -12 146 56 24 32
28 47 29 104 1 46 -3 73 -14 88 -9 12 -18 22 -21 23 -3 0 -28 -24 -56 -53z
m42 -111 c-8 -29 -74 -98 -89 -93 -21 7 -18 60 6 102 13 22 28 39 34 38 6 -1
19 7 29 19 l19 20 3 -32 c2 -18 1 -42 -2 -54z"/>
<path d="M12289 5609 c-37 -40 -46 -75 -28 -108 12 -21 23 -27 60 -29 93 -6
133 75 70 139 -38 37 -66 37 -102 -2z m76 -36 c30 -33 32 -49 6 -63 -40 -21
-91 -6 -91 26 0 15 39 64 50 64 5 0 21 -12 35 -27z"/>
<path d="M8344 5609 c-4 -7 -9 -31 -10 -54 -5 -52 13 -70 67 -68 70 3 110 48
95 108 -4 14 -13 25 -22 25 -12 0 -14 -7 -9 -34 6 -28 3 -36 -16 -50 -13 -9
-38 -16 -56 -16 -30 0 -33 3 -33 29 0 17 5 33 10 36 6 3 10 13 10 21 0 17 -26
19 -36 3z"/>
<path d="M11637 5608 c-2 -7 -2 -27 1 -45 6 -44 -4 -80 -28 -93 -16 -8 -22 -6
-36 15 -9 14 -17 38 -19 53 -2 35 -13 54 -26 47 -27 -18 15 -139 53 -151 49
-15 108 67 99 138 -6 42 -33 65 -44 36z"/>
<path d="M5625 5587 c-55 -13 -63 -33 -12 -30 17 1 62 2 100 2 59 1 82 10 60
24 -20 13 -103 15 -148 4z"/>
<path d="M12135 5578 c-12 -30 -1 -103 15 -103 12 0 14 11 12 50 -4 53 -17 79
-27 53z"/>
<path d="M3930 5196 l0 -44 -65 -12 c-40 -8 -64 -17 -62 -24 4 -12 48 -14 87
-4 25 7 25 6 25 -52 0 -58 17 -89 23 -40 1 14 5 45 8 69 l6 44 59 -6 c32 -3
61 -1 64 3 9 14 -31 30 -74 30 l-41 0 0 40 c0 29 -4 40 -15 40 -11 0 -15 -12
-15 -44z"/>
<path d="M9353 5165 c-29 -20 -62 -126 -70 -221 -6 -69 -7 -73 -32 -76 -15 -2
-26 -9 -26 -18 0 -9 7 -14 19 -12 26 5 32 -9 35 -76 3 -74 19 -135 34 -129 7
2 11 13 9 23 -1 10 -5 56 -9 100 -6 92 -11 87 82 100 61 8 91 22 77 36 -6 6
-37 4 -87 -5 l-78 -15 6 61 c8 97 27 166 52 195 l23 27 46 -16 c46 -16 61 -14
48 8 -9 15 -57 33 -85 33 -13 0 -32 -7 -44 -15z"/>
<path d="M7393 5098 c-4 -7 -8 -63 -8 -125 0 -62 -5 -117 -10 -122 -6 -6 -40
-11 -78 -13 -94 -4 -90 -22 7 -26 l79 -3 -6 -82 c-4 -45 -9 -92 -13 -104 -5
-17 -2 -23 9 -23 22 0 29 25 34 128 l6 92 33 0 c41 0 44 15 6 28 -28 10 -29
13 -35 95 -3 47 -2 100 3 118 10 32 6 49 -10 49 -5 0 -12 -6 -17 -12z"/>
<path d="M12410 5049 c-60 -12 -348 -16 -382 -6 -26 9 -26 8 -42 -60 -8 -38
-22 -114 -31 -168 -19 -118 -52 -238 -65 -230 -17 10 -30 107 -30 219 0 89 -3
116 -15 126 -23 19 -64 -2 -137 -70 -53 -49 -60 -59 -45 -65 12 -5 23 1 38 19
23 29 101 86 118 86 7 0 11 -42 11 -122 1 -144 20 -221 57 -226 41 -6 63 58
113 334 l21 121 77 -5 c69 -4 257 8 401 26 74 9 81 32 9 31 -29 -1 -73 -5 -98
-10z"/>
<path d="M6863 4933 c-15 -32 -18 -63 -16 -202 2 -107 7 -169 14 -178 22 -26
25 2 16 154 -8 142 -8 154 12 198 20 45 20 65 1 65 -6 0 -18 -17 -27 -37z"/>
<path d="M4525 4924 c-113 -35 -242 -50 -301 -35 -62 16 -71 6 -79 -82 -4 -40
-18 -132 -31 -205 -13 -73 -24 -146 -24 -162 0 -64 -18 -32 -59 103 -42 136
-63 187 -79 187 -4 0 -36 -26 -72 -58 -40 -37 -61 -62 -56 -70 5 -9 25 3 64
38 56 50 56 50 68 28 6 -13 30 -86 54 -163 23 -77 46 -148 52 -158 13 -26 33
-7 53 51 19 58 62 284 71 378 l6 69 107 1 c105 0 233 24 320 60 28 12 31 16
21 29 -16 19 -19 19 -115 -11z"/>
<path d="M3910 4910 c-8 -5 -45 -10 -82 -10 -68 0 -118 -12 -118 -28 0 -13
225 -3 278 12 24 7 43 16 43 21 -1 14 -102 18 -121 5z"/>
<path d="M7620 4901 c0 -23 22 -42 38 -32 9 5 8 12 -4 29 -19 27 -34 28 -34 3z"/>
<path d="M12280 4878 c-14 -5 -39 -16 -57 -24 -46 -19 -87 -93 -87 -157 0 -42
5 -53 28 -73 40 -35 73 -40 144 -21 69 18 122 50 122 73 0 16 -27 19 -32 4 -1
-5 -40 -19 -85 -31 -78 -20 -85 -20 -108 -5 -29 19 -34 70 -10 115 13 26 84
91 99 91 3 0 6 -13 6 -30 0 -20 5 -30 15 -30 22 0 37 44 25 75 -10 27 -21 29
-60 13z"/>
<path d="M8342 4840 c-42 -30 -51 -55 -36 -95 4 -9 32 -34 64 -55 98 -66 90
-125 -15 -125 -58 0 -65 -4 -40 -25 25 -20 103 -7 133 23 23 23 25 30 16 63
-7 29 -23 48 -69 84 -77 60 -80 84 -13 118 47 24 55 42 19 42 -10 0 -37 -14
-59 -30z"/>
<path d="M10468 4813 c-20 -16 -43 -39 -52 -53 l-15 -25 -1 28 c0 34 -34 69
-63 65 -28 -4 -29 -32 0 -36 46 -7 39 -90 -14 -152 -36 -42 -53 -50 -53 -25 0
23 -27 18 -33 -6 -18 -67 50 -61 112 10 15 17 21 19 21 9 0 -31 44 -58 97 -58
58 0 109 15 117 35 8 22 -9 26 -40 10 -35 -18 -115 -20 -132 -3 -33 33 17 139
88 186 19 13 37 27 38 33 7 19 -36 8 -70 -18z"/>
<path d="M7738 4786 c-7 -13 -21 -38 -31 -56 -24 -42 -15 -75 26 -100 67 -41
109 -13 84 57 -23 63 -51 123 -59 123 -4 0 -13 -11 -20 -24z m42 -88 c22 -49
14 -64 -23 -47 -27 12 -34 38 -21 73 10 27 24 18 44 -26z"/>
<path d="M9041 4776 c-28 -30 -63 -123 -56 -147 14 -42 90 -36 136 11 38 38
39 86 3 129 -31 37 -53 39 -83 7z m75 -52 c11 -44 -32 -94 -81 -94 -22 0 -19
49 5 88 25 41 66 45 76 6z"/>
<path d="M11180 4791 c-33 -4 -46 -11 -48 -24 -3 -15 0 -18 16 -13 12 4 48 8
82 9 49 1 60 4 58 17 -4 17 -39 21 -108 11z"/>
<path d="M2543 4774 c-7 -20 15 -44 25 -27 11 18 70 -11 83 -41 16 -34 -2 -76
-52 -121 -49 -44 -79 -45 -102 -5 -10 17 -22 30 -28 30 -16 0 -10 -31 12 -61
28 -40 76 -40 122 0 l33 30 11 -30 c14 -36 51 -51 122 -47 75 4 83 28 9 28
-29 0 -63 3 -76 6 -49 14 -37 101 24 173 26 30 34 45 26 53 -7 7 -18 2 -36
-17 l-26 -28 -28 26 c-46 44 -108 60 -119 31z"/>
<path d="M7126 4778 c-3 -7 -6 -40 -9 -72 -4 -65 -23 -89 -67 -84 -21 3 -27
11 -35 52 -6 27 -17 52 -24 54 -20 7 -7 -95 15 -119 36 -40 117 -16 135 39 16
49 17 134 2 139 -7 3 -15 -1 -17 -9z"/>
<path d="M8006 4756 c-28 -29 -32 -31 -32 -13 2 40 -20 26 -32 -20 -19 -80
-19 -127 -1 -131 11 -2 18 6 22 26 3 16 26 51 51 78 38 42 47 47 63 38 12 -7
20 -28 24 -63 8 -59 12 -66 34 -57 12 4 14 10 5 25 -5 11 -10 34 -10 51 0 37
-23 85 -45 94 -31 12 -48 6 -79 -28z"/>
<path d="M5511 4758 c-29 -14 -48 -32 -57 -54 -20 -48 -18 -107 5 -135 25 -31
36 -19 22 22 -24 70 -3 123 59 149 24 10 37 10 57 1 35 -16 52 1 22 23 -31 21
-55 20 -108 -6z"/>
<path d="M6479 4765 c-49 -26 -46 -52 13 -128 17 -21 27 -44 24 -52 -6 -17
-52 -20 -61 -5 -7 11 -25 4 -25 -10 0 -5 11 -17 24 -25 22 -14 28 -15 60 -1
51 21 51 47 0 117 -40 54 -41 64 -13 80 21 11 46 9 82 -6 12 -5 17 -3 17 9 0
34 -73 47 -121 21z"/>
<path d="M5714 4741 c-41 -26 -71 -61 -79 -93 -5 -21 -1 -33 19 -52 21 -21 35
-26 78 -26 67 0 98 9 98 26 0 11 -12 13 -54 8 -64 -8 -106 1 -106 21 0 8 6 15
13 15 7 0 29 14 50 31 60 50 44 109 -19 70z m6 -34 c0 -2 -10 -12 -22 -23
l-23 -19 19 23 c18 21 26 27 26 19z"/>
<path d="M5237 4724 c-28 -28 -52 -96 -43 -120 13 -33 71 -29 106 6 20 20 20
20 20 -8 0 -32 25 -72 46 -72 18 0 18 17 -1 36 -8 9 -15 28 -15 44 0 36 -9 60
-22 60 -6 0 -26 -13 -45 -30 -34 -30 -63 -39 -63 -20 0 20 27 75 43 89 15 12
17 10 17 -13 0 -17 5 -26 16 -26 12 0 14 9 12 38 -4 48 -33 54 -71 16z"/>
<path d="M6632 4705 c-17 -36 -15 -90 3 -105 20 -17 86 -6 102 17 20 26 16 42
-21 79 -41 41 -68 43 -84 9z m76 -50 c4 -19 -14 -35 -40 -35 -19 0 -24 32 -12
65 6 14 9 14 28 2 11 -8 23 -22 24 -32z"/>
<path d="M7556 4698 c-8 -32 -8 -103 1 -94 7 6 31 90 33 109 1 18 -28 5 -34
-15z"/>
<path d="M3193 4703 c-21 -3 -33 -10 -33 -19 0 -12 15 -14 93 -8 50 4 94 8 96
10 1 1 0 7 -4 13 -6 11 -84 12 -152 4z"/>
<path d="M4406 4679 c-78 -61 -87 -211 -15 -249 31 -17 156 -8 177 13 23 24
10 30 -35 18 -21 -6 -57 -11 -80 -11 -76 0 -106 76 -63 161 19 36 63 70 75 57
3 -3 7 -21 9 -40 4 -51 16 -66 33 -43 17 25 17 65 -3 93 -20 28 -63 29 -98 1z"/>
<path d="M11146 4681 c-64 -8 -75 -31 -14 -31 69 0 118 11 118 26 0 15 -17 15
-104 5z"/>
<path d="M13146 4649 c-3 -8 -15 -65 -26 -127 -11 -62 -25 -131 -32 -153 -20
-68 -79 -114 -94 -74 -10 24 3 59 36 100 19 24 27 42 21 48 -13 13 -25 4 -60
-50 -34 -51 -40 -102 -15 -127 32 -32 80 -16 117 40 l24 35 6 -30 c4 -21 19
-39 46 -57 42 -28 61 -25 61 7 0 15 -5 19 -18 15 -22 -7 -58 27 -67 64 -6 24
2 85 27 223 11 60 10 69 -5 84 -14 14 -17 14 -21 2z"/>
<path d="M3225 4591 c-63 -20 -79 -31 -68 -42 5 -5 40 0 84 12 41 12 80 23 87
25 6 2 12 8 12 14 0 15 -57 11 -115 -9z"/>
<path d="M4563 4423 c-3 -10 -17 -42 -29 -71 -13 -29 -24 -60 -24 -70 0 -9
-17 -52 -38 -95 -21 -42 -36 -80 -33 -82 15 -16 33 5 67 79 38 86 49 96 103
96 41 0 103 -44 180 -130 75 -82 206 -193 316 -267 234 -157 722 -339 1325
-495 129 -33 285 -73 345 -89 239 -63 697 -144 945 -168 426 -42 1000 -30
1510 30 304 35 424 48 568 59 153 12 172 16 172 34 0 7 4 6 9 -3 7 -11 17 -9
56 8 26 12 54 29 61 39 20 25 17 52 -5 52 -22 0 -45 -25 -36 -40 9 -15 -51
-37 -125 -46 -36 -3 -69 -9 -75 -12 -5 -4 -22 -5 -36 -4 -36 4 -227 -14 -519
-48 -577 -69 -1103 -82 -1570 -40 -252 23 -707 105 -992 180 -84 22 -239 62
-343 89 -557 143 -1044 326 -1271 477 -115 77 -247 189 -330 280 -82 91 -133
123 -191 124 -37 0 -37 0 -21 35 10 23 16 25 47 21 20 -3 61 -8 91 -12 30 -3
72 -15 92 -25 42 -21 68 -24 68 -8 0 18 -145 78 -205 85 -31 4 -63 13 -70 20
-19 19 -34 17 -42 -3z"/>
<path d="M12567 4386 c-61 -80 -71 -136 -24 -136 23 0 87 53 87 72 0 4 7 8 15
8 12 0 13 -9 9 -44 -8 -52 10 -94 31 -76 8 6 35 45 60 86 64 103 81 99 75 -18
-2 -39 8 -46 44 -32 19 7 22 34 4 34 -8 0 -13 16 -14 43 -2 120 -65 113 -138
-15 -15 -27 -28 -48 -29 -48 -1 0 -2 27 -2 61 -1 52 -4 63 -25 80 -37 28 -64
24 -93 -15z m31 -57 c-47 -56 -66 -64 -42 -16 23 45 54 76 70 70 10 -3 2 -19
-28 -54z"/>
<path d="M12695 3973 c-107 -9 -224 -27 -363 -55 -149 -30 -153 -31 -166 -12
-8 10 -17 16 -21 12 -4 -3 -8 -52 -11 -109 -4 -107 -17 -229 -36 -339 -10 -57
-12 -62 -21 -40 -5 14 -13 108 -17 210 -8 196 -15 240 -35 240 -21 0 -105 -80
-105 -100 0 -29 19 -34 29 -7 9 23 60 71 68 64 2 -2 7 -91 11 -198 7 -165 12
-201 30 -241 12 -28 28 -48 36 -48 9 0 16 2 16 4 0 2 6 39 14 82 16 83 30 205
42 339 3 44 7 80 8 80 14 5 394 76 426 79 71 9 153 9 172 1 12 -5 20 -2 24 9
4 9 5 18 3 20 -8 8 -66 13 -104 9z"/>
<path d="M10283 3898 c-29 -14 -31 -43 -3 -34 11 3 28 9 39 12 62 19 70 -115
12 -200 -23 -33 -36 -44 -41 -36 -11 18 -30 3 -30 -25 0 -27 12 -38 32 -30 16
7 79 88 95 124 l12 26 1 -30 c0 -59 42 -93 139 -114 40 -8 57 -8 67 0 17 14 8
31 -14 28 -74 -11 -162 38 -162 88 0 37 37 109 68 133 19 16 23 23 14 32 -16
16 -64 -30 -92 -86 l-20 -41 0 58 c0 48 -4 62 -25 82 -26 27 -56 31 -92 13z"/>
<path d="M11085 3819 c-11 -17 0 -21 76 -22 46 -1 74 2 76 9 2 6 -6 14 -19 18
-38 10 -126 7 -133 -5z"/>
<path d="M12512 3755 c-24 -7 -53 -22 -64 -32 -28 -24 -58 -91 -58 -129 0 -92
161 -162 273 -119 41 16 65 40 53 53 -3 2 -20 -2 -38 -11 -32 -15 -63 -15
-161 -2 -55 8 -97 40 -97 74 0 59 56 131 102 131 24 0 28 -4 28 -30 0 -35 24
-41 40 -9 9 16 8 28 -5 55 -18 38 -15 37 -73 19z"/>
<path d="M11110 3717 c-87 -9 -112 -19 -94 -37 8 -8 19 -8 38 0 15 5 54 10 86
10 55 0 83 13 64 29 -5 4 -47 3 -94 -2z"/>
<path d="M11552 3719 c-13 -5 -22 -15 -20 -21 6 -16 48 -23 48 -8 0 7 20 10
55 9 36 -2 60 2 68 11 9 10 9 11 0 6 -7 -4 -13 -2 -13 3 0 14 -106 13 -138 0z"/>
</g>
</svg>
