<?xml version="1.0" standalone="no"?>
<!DOCTYPE svg PUBLIC "-//W3C//DTD SVG 20010904//EN"
 "http://www.w3.org/TR/2001/REC-SVG-20010904/DTD/svg10.dtd">
<svg version="1.0" xmlns="http://www.w3.org/2000/svg"
 width="1617.000000pt" height="1213.000000pt" viewBox="0 0 1617.000000 1213.000000"
 preserveAspectRatio="xMidYMid meet">

<g transform="translate(0.000000,1213.000000) scale(0.100000,-0.100000)"
fill="#000000" stroke="none">
<path d="M14731 11624 c-16 -25 -32 -51 -33 -56 -3 -7 -11 -6 -25 3 -19 11
-27 9 -75 -23 -69 -45 -108 -112 -90 -152 6 -15 24 -32 39 -38 16 -7 29 -13
30 -13 2 -1 -6 -25 -17 -54 -18 -49 -18 -81 0 -81 4 0 11 12 14 26 4 14 14 43
24 64 15 37 20 40 69 46 90 11 136 65 109 128 -8 18 -24 40 -36 49 l-21 15 20
39 c11 22 27 45 35 52 9 8 16 20 16 27 0 28 -29 13 -59 -32z m-66 -94 c3 -5
-10 -41 -30 -80 -37 -74 -58 -86 -89 -54 -20 19 -20 19 4 63 31 53 99 96 115
71z m85 -91 c0 -34 -32 -59 -77 -59 -18 0 -33 2 -33 5 0 3 14 33 31 66 l30 61
25 -23 c14 -13 24 -34 24 -50z"/>
<path d="M15235 11654 c-115 -18 -115 -18 -115 -54 0 -33 19 -41 27 -11 4 15
20 21 85 31 44 6 82 10 84 8 2 -2 -7 -15 -19 -28 -12 -14 -33 -38 -46 -55 -21
-28 -28 -30 -84 -30 -48 0 -62 -3 -62 -15 0 -8 10 -15 25 -15 14 -1 37 -2 51
-3 l26 -2 -29 -56 c-30 -62 -37 -114 -14 -114 9 0 17 15 21 38 3 21 19 62 36
90 l29 52 54 0 c39 0 57 5 70 19 16 17 16 19 -1 25 -10 4 -19 2 -21 -3 -2 -6
-22 -11 -44 -11 l-40 0 51 57 c28 31 51 65 51 75 0 21 -7 21 -135 2z"/>
<path d="M13705 11583 c-56 -58 -115 -161 -115 -202 0 -12 9 -30 21 -42 41
-41 141 0 147 59 4 42 -31 61 -83 45 -19 -6 -35 -8 -35 -4 0 19 62 101 104
138 42 37 53 63 26 63 -4 0 -33 -26 -65 -57z m20 -188 c0 -14 -11 -24 -39 -33
-34 -11 -42 -11 -55 3 -15 15 -13 16 13 9 26 -6 29 -5 24 14 -4 14 -1 22 11
25 29 9 46 2 46 -18z"/>
<path d="M12881 11608 c-5 -13 -27 -68 -49 -123 -49 -125 -56 -153 -41 -171
16 -20 29 -8 29 28 0 29 74 232 92 253 13 15 9 35 -7 35 -9 0 -19 -10 -24 -22z"/>
<path d="M13100 11618 c-45 -12 -68 -34 -53 -49 8 -8 17 -7 34 4 13 9 42 19
64 23 l40 7 -105 -104 c-120 -120 -142 -152 -119 -175 13 -12 31 -13 97 -8 73
6 126 24 112 37 -3 2 -45 1 -95 -3 -49 -4 -92 -6 -94 -4 -2 2 51 59 117 126
67 67 122 125 122 129 0 13 -36 29 -62 28 -13 0 -39 -5 -58 -11z"/>
<path d="M13542 11618 c-7 -7 -12 -20 -12 -30 0 -10 -19 -59 -41 -109 -45 -99
-62 -175 -38 -167 7 2 18 24 25 49 6 24 26 75 43 112 28 59 61 142 61 153 0 9
-27 3 -38 -8z"/>
<path d="M14365 11609 c-46 -13 -139 -72 -143 -92 -4 -21 21 -23 39 -1 30 36
149 81 149 56 0 -4 -13 -28 -28 -53 -27 -41 -52 -66 -162 -158 -39 -32 -52
-61 -28 -61 6 0 33 18 59 40 26 22 55 40 63 40 9 0 25 -18 36 -40 20 -40 49
-56 87 -48 30 6 22 33 -8 30 -22 -3 -32 5 -58 43 l-31 45 45 62 c79 106 71
161 -20 137z"/>
<path d="M14919 11537 c-51 -106 -69 -173 -57 -209 6 -16 16 -28 23 -28 18 0
28 17 15 25 -5 3 -10 17 -10 31 0 35 43 154 74 202 30 48 32 62 11 62 -10 0
-31 -32 -56 -83z"/>
<path d="M7883 11513 c-9 -16 -36 -46 -59 -68 -23 -22 -46 -53 -50 -69 -17
-69 42 -121 126 -111 71 9 129 26 142 42 10 13 7 14 -23 8 -18 -4 -68 -9 -109
-12 -67 -4 -77 -3 -94 16 -21 23 -17 59 10 85 14 14 17 14 31 1 18 -19 48 -12
81 18 30 28 27 72 -5 71 -17 0 -20 2 -12 12 11 14 4 34 -11 34 -5 0 -17 -12
-27 -27z m37 -68 c-14 -16 -40 -20 -40 -6 0 10 17 19 39 20 11 1 11 -2 1 -14z"/>
<path d="M7143 11433 c-47 -146 -46 -139 -22 -167 33 -37 68 -33 128 14 56 44
64 70 29 94 -31 22 -70 20 -102 -5 -33 -26 -33 -18 3 75 16 41 26 77 23 80
-17 18 -31 -4 -59 -91z m115 -82 c17 -10 -59 -81 -88 -81 -30 0 -25 34 11 64
31 27 54 32 77 17z"/>
<path d="M7522 11508 c-5 -7 -14 -29 -19 -48 -8 -30 -15 -36 -54 -45 -50 -12
-51 -31 -1 -29 35 1 37 -4 22 -56 -7 -23 -6 -38 1 -45 14 -14 27 9 35 62 7 45
3 44 114 55 14 2 25 9 25 17 0 12 -13 14 -57 12 -62 -3 -66 1 -46 44 13 30 -1
55 -20 33z"/>
<path d="M5034 11481 c-58 -31 -101 -71 -127 -120 -40 -72 -35 -114 15 -136
35 -14 123 -1 150 23 28 24 12 31 -34 15 -51 -17 -107 -14 -121 8 -15 23 8 74
56 127 46 49 56 52 54 15 -3 -39 25 -37 36 2 5 17 13 37 17 45 7 16 2 41 -8
39 -4 -1 -21 -9 -38 -18z"/>
<path d="M4309 11488 c-1 -2 -3 -21 -5 -44 -3 -34 -16 -77 -70 -236 -4 -12 2
-18 26 -23 48 -11 96 3 130 36 50 51 53 99 6 121 -22 9 -30 7 -62 -17 -31 -24
-36 -25 -30 -9 18 45 38 144 33 158 -5 13 -24 22 -28 14z m91 -193 c0 -38 -95
-103 -118 -81 -3 4 16 28 42 55 46 47 76 57 76 26z"/>
<path d="M13275 11394 c-19 -20 -22 -30 -14 -40 17 -21 52 -2 54 30 1 38 -11
42 -40 10z"/>
<path d="M13853 11378 c-16 -21 -10 -72 9 -76 21 -4 31 28 19 62 -12 30 -15
31 -28 14z"/>
<path d="M15069 11151 c-28 -28 -39 -47 -39 -69 0 -52 20 -56 116 -27 l21 7
-24 -84 c-24 -84 -29 -195 -8 -191 6 1 13 33 16 70 8 81 49 210 84 261 14 20
25 42 25 49 0 20 -28 15 -40 -7 -11 -21 -11 -21 -41 5 -42 34 -65 32 -110 -14z
m101 -22 c13 -23 -20 -47 -74 -56 -30 -5 -36 -3 -36 11 0 10 13 30 29 46 31
32 64 31 81 -1z"/>
<path d="M2431 11089 c-28 -72 -57 -108 -140 -169 -58 -44 -76 -70 -47 -70 8
0 44 25 80 56 l66 55 -6 -43 c-5 -32 -2 -47 8 -56 12 -10 26 -1 75 48 l61 61
-5 -43 c-5 -45 14 -77 37 -63 14 9 13 32 -2 38 -10 3 -9 15 4 53 16 47 13 113
-5 107 -4 -2 -11 -3 -17 -3 -5 0 -10 -8 -10 -19 0 -10 -27 -47 -60 -82 l-59
-64 6 35 c3 19 19 71 34 114 32 89 35 106 16 106 -6 0 -23 -27 -36 -61z"/>
<path d="M2914 11118 c-37 -32 -84 -117 -84 -150 0 -32 23 -67 53 -79 47 -20
179 13 154 38 -4 4 -30 1 -57 -6 -82 -21 -129 5 -114 63 4 18 14 25 43 30 58
9 111 78 91 116 -15 29 -44 25 -86 -12z m52 -26 c-8 -23 -52 -55 -68 -50 -6 2
6 21 26 42 37 40 53 43 42 8z"/>
<path d="M4685 11133 c-47 -9 -115 -95 -115 -144 0 -26 27 -59 49 -59 6 0 30
9 51 20 32 16 40 17 40 6 0 -7 8 -24 18 -36 l18 -23 65 22 c36 12 70 30 77 41
16 27 1 26 -55 -1 -23 -11 -53 -19 -65 -17 -19 2 -23 8 -20 36 1 18 16 56 32
86 17 29 30 58 30 64 0 18 -28 14 -38 -4 -9 -16 -11 -16 -33 0 -13 9 -26 15
-29 15 -3 -1 -14 -4 -25 -6z m53 -42 c22 -14 -12 -68 -64 -101 -63 -40 -92
-24 -63 33 32 63 88 93 127 68z"/>
<path d="M2706 11105 c-32 -30 -35 -80 -6 -127 28 -46 26 -76 -6 -88 -34 -13
-44 -13 -44 4 0 23 -27 27 -33 5 -8 -31 21 -52 61 -45 71 11 92 68 52 134 -22
36 -25 113 -4 105 13 -5 27 24 15 31 -5 3 -20 -5 -35 -19z"/>
<path d="M3950 11105 c-40 -29 -90 -100 -90 -126 0 -27 29 -51 54 -43 30 9
108 63 128 88 16 20 16 19 2 -23 -18 -53 -12 -87 16 -96 31 -10 74 3 89 26 19
32 -1 44 -31 19 -52 -40 -64 -23 -39 56 18 56 16 95 -4 96 -6 0 -19 7 -30 14
-29 21 -57 17 -95 -11z m80 -15 c21 -13 6 -36 -56 -82 -43 -33 -84 -49 -84
-33 0 18 34 66 65 94 38 33 51 37 75 21z"/>
<path d="M5855 11087 c-64 -10 -80 -16 -83 -30 -3 -16 1 -17 30 -13 107 18
158 24 176 19 18 -4 40 12 29 23 -11 11 -77 11 -152 1z"/>
<path d="M6755 11074 c-114 -59 -147 -200 -42 -180 18 3 48 17 67 30 32 21 37
22 58 8 18 -12 34 -13 75 -6 46 8 52 12 50 32 -2 13 1 21 7 17 6 -3 10 3 10
14 0 27 -13 27 -25 -1 -6 -14 -24 -26 -48 -31 -52 -13 -68 2 -44 42 23 39 22
65 -2 58 -11 -2 -25 3 -35 14 -19 23 -32 24 -71 3z m61 -78 c-18 -28 -69 -62
-108 -71 -23 -6 -28 -4 -28 12 0 29 45 88 82 106 31 15 34 15 51 -4 17 -18 17
-22 3 -43z"/>
<path d="M5960 10991 c0 -5 -33 -12 -72 -16 -87 -9 -126 -21 -111 -36 13 -13
183 10 183 24 0 6 3 7 6 4 9 -8 44 11 44 23 0 6 -11 10 -25 10 -14 0 -25 -4
-25 -9z"/>
<path d="M3050 10950 c-11 -7 -12 -12 -3 -21 13 -13 33 -4 33 17 0 16 -9 18
-30 4z"/>
<path d="M11125 10941 c-89 -55 -170 -179 -231 -356 -38 -108 -44 -142 -28
-156 15 -13 14 -16 33 66 7 28 16 54 20 58 5 5 44 13 87 18 44 5 85 12 92 14
17 6 15 -3 -9 -37 -27 -37 -31 -91 -7 -96 19 -4 69 17 116 49 31 20 30 17 -24
-57 -68 -96 -101 -159 -106 -203 -4 -42 19 -54 27 -14 12 54 50 128 106 204
109 147 107 172 -7 103 -32 -20 -69 -40 -80 -44 -31 -12 -22 14 27 79 56 74
54 81 -22 56 -24 -8 -77 -18 -117 -23 -83 -10 -82 -12 -34 83 45 91 119 178
186 221 28 18 29 18 22 -3 -9 -29 10 -39 24 -13 11 21 5 60 -10 60 -5 0 -14 2
-22 5 -7 3 -26 -3 -43 -14z"/>
<path d="M8814 10818 c-9 -18 -27 -46 -40 -63 -12 -16 -38 -61 -57 -99 l-35
-70 -68 0 c-85 -1 -101 -19 -22 -26 31 -3 60 -8 63 -12 4 -4 -3 -36 -15 -72
-36 -108 -5 -129 107 -75 24 11 43 27 43 35 0 19 -7 18 -65 -11 -27 -13 -53
-25 -57 -25 -14 0 -8 44 11 95 21 55 21 55 119 41 43 -6 52 -5 52 7 0 19 -32
46 -37 31 -3 -8 -18 -8 -53 -1 l-49 9 24 48 c13 26 44 77 69 114 25 36 46 73
46 81 0 28 -20 25 -36 -7z"/>
<path d="M9990 10814 c-13 -32 -13 -51 -1 -59 12 -7 17 2 25 48 8 43 -9 51
-24 11z"/>
<path d="M10630 10816 c0 -8 -20 -79 -45 -158 -25 -78 -45 -153 -45 -165 0
-24 18 -32 24 -10 3 6 22 71 44 142 53 170 59 205 38 205 -9 0 -16 -6 -16 -14z"/>
<path d="M13072 10773 c-46 -68 -93 -157 -121 -231 -16 -40 -19 -58 -11 -73 6
-10 14 -19 17 -19 13 0 139 73 162 93 23 21 24 21 16 2 -39 -99 -40 -104 -24
-120 19 -20 69 -10 69 12 0 10 -7 14 -20 10 -11 -3 -22 -2 -24 2 -5 8 33 96
62 142 23 38 29 69 13 69 -5 0 -34 -24 -65 -52 -54 -52 -176 -128 -176 -110 0
40 103 235 152 289 19 20 18 43 -2 43 -5 0 -27 -26 -48 -57z"/>
<path d="M10850 10795 c0 -16 6 -25 15 -25 9 0 15 9 15 25 0 16 -6 25 -15 25
-9 0 -15 -9 -15 -25z"/>
<path d="M7194 10783 c-3 -10 -27 -62 -52 -115 -41 -86 -50 -98 -72 -98 -27 0
-88 39 -103 65 -11 21 -27 19 -27 -4 0 -26 66 -79 106 -87 19 -3 34 -7 34 -8
0 0 -7 -22 -15 -48 -8 -29 -10 -50 -4 -53 14 -9 29 4 29 25 0 33 32 88 54 93
12 2 29 8 38 12 15 6 15 3 6 -30 -10 -29 -9 -38 3 -51 14 -13 24 -12 93 15
l78 30 -6 -24 c-3 -13 -8 -29 -11 -37 -7 -18 10 -42 24 -34 6 4 11 15 11 25 0
10 6 36 14 58 19 53 8 70 -31 50 -44 -23 -136 -57 -141 -52 -12 12 15 73 49
110 43 47 59 81 59 130 0 60 -18 48 -62 -42 -36 -73 -50 -92 -83 -110 -22 -12
-41 -21 -42 -19 -7 6 39 102 63 134 26 33 29 72 7 80 -7 2 -16 -5 -19 -15z"/>
<path d="M12359 10773 c-1 -4 -1 -15 0 -23 1 -9 -23 -75 -54 -147 -52 -123
-79 -216 -67 -228 15 -15 32 -2 32 25 0 31 45 156 95 265 27 59 30 105 8 113
-7 2 -14 0 -14 -5z"/>
<path d="M12465 10758 c-4 -13 -38 -91 -76 -174 -38 -83 -69 -161 -69 -172 0
-26 29 -57 42 -44 6 6 5 17 -3 29 -10 17 -2 42 60 178 39 87 73 167 74 178 3
28 -20 32 -28 5z"/>
<path d="M13779 10638 c-46 -67 -104 -137 -128 -157 l-44 -36 15 30 c9 17 25
39 37 49 26 24 27 36 1 36 -40 0 -102 -135 -71 -154 12 -8 97 60 146 115 21
24 34 35 30 24 -31 -80 -38 -103 -32 -118 7 -18 47 -24 47 -7 0 5 7 7 16 3 12
-4 15 -2 12 8 -3 8 -15 13 -27 11 -30 -5 -26 7 50 166 32 67 59 129 59 137 0
38 -35 5 -111 -107z"/>
<path d="M7536 10701 c-8 -12 31 -44 43 -37 7 5 7 13 -2 26 -12 21 -32 26 -41
11z"/>
<path d="M13374 10665 c-4 -9 0 -21 9 -28 8 -7 16 -17 18 -24 3 -8 9 -9 19 -3
13 8 13 12 0 36 -18 33 -38 41 -46 19z"/>
<path d="M10400 10653 c-60 -43 -92 -86 -131 -175 -22 -51 -51 -117 -64 -146
-28 -59 -31 -82 -11 -82 11 0 66 96 66 115 0 21 44 93 54 89 7 -3 41 16 75 42
99 75 130 164 60 172 -13 1 -35 -6 -49 -15z m55 -35 c-7 -25 -109 -128 -126
-128 -16 0 42 99 74 126 37 31 61 32 52 2z"/>
<path d="M9690 10648 c-73 -15 -78 -33 -36 -130 15 -36 15 -39 -5 -59 -11 -11
-23 -19 -27 -17 -4 2 -19 10 -35 17 -37 19 -46 7 -17 -24 31 -33 62 -32 102 4
l33 30 -18 48 c-34 88 -33 91 7 98 20 4 33 11 30 16 -3 5 0 9 6 9 6 0 13 -7
16 -15 7 -18 34 -20 34 -2 0 16 -20 37 -34 36 -6 -1 -31 -5 -56 -11z"/>
<path d="M5798 10621 l-32 -28 13 -55 c14 -58 10 -78 -16 -78 -11 0 -14 -6 -9
-22 3 -13 6 -26 6 -30 0 -22 28 -4 43 27 20 42 21 70 6 114 -13 36 0 61 32 61
24 0 35 20 18 31 -21 13 -26 11 -61 -20z"/>
<path d="M9856 10580 c-38 -61 -44 -105 -16 -105 8 0 15 9 15 20 0 11 15 45
33 76 36 63 38 69 18 69 -7 0 -30 -27 -50 -60z"/>
<path d="M7678 10601 c-82 -52 -84 -81 -7 -119 48 -24 38 -37 -26 -36 -40 1
-55 -2 -55 -12 0 -8 12 -16 28 -20 15 -3 35 -8 44 -10 9 -3 31 2 48 11 46 24
39 62 -18 93 -42 24 -43 25 -25 44 10 11 35 29 56 39 20 11 37 24 37 29 0 19
-36 10 -82 -19z"/>
<path d="M13996 10605 c-27 -25 -36 -78 -16 -90 5 -3 14 -15 20 -25 8 -15 4
-23 -20 -40 -20 -14 -37 -19 -48 -14 -44 19 -56 9 -24 -19 28 -25 57 -21 97
14 41 36 43 50 13 91 -26 37 -17 58 30 73 18 5 32 15 32 22 0 22 -55 15 -84
-12z"/>
<path d="M5507 10565 c-21 -30 -69 -80 -107 -110 -67 -53 -87 -85 -55 -85 7 0
18 6 22 13 4 7 32 32 62 57 47 39 53 41 46 20 -26 -79 1 -86 95 -25 63 40 71
43 64 23 -5 -13 -8 -36 -9 -53 0 -23 4 -30 20 -30 11 0 21 8 23 19 3 11 0 16
-7 12 -14 -9 -14 -13 9 62 11 35 20 70 20 78 0 22 -26 16 -43 -10 -16 -24
-137 -110 -144 -102 -3 2 12 41 31 86 20 44 36 85 36 90 0 25 -28 4 -63 -45z"/>
<path d="M2963 10549 c-21 -35 -60 -85 -88 -111 -38 -38 -46 -51 -37 -60 10
-10 18 -7 39 14 24 24 28 25 48 12 20 -13 27 -12 79 15 50 27 56 28 56 12 0
-10 6 -23 13 -29 15 -13 83 -19 94 -9 10 11 -16 27 -44 27 -30 0 -33 9 -20 57
6 24 8 45 5 48 -4 4 -31 -14 -61 -38 -84 -68 -141 -78 -80 -14 38 40 53 68 53
101 0 46 -20 38 -57 -25z"/>
<path d="M5984 10588 c-48 -37 -70 -61 -83 -95 -12 -28 -11 -36 3 -58 9 -14
26 -25 39 -26 40 -2 82 3 92 11 6 4 22 10 38 14 15 3 27 13 27 21 0 19 -9 19
-53 0 -49 -20 -106 -20 -114 1 -9 24 9 48 43 58 89 26 114 52 82 84 -18 18
-41 15 -74 -10z m42 -23 c-11 -8 -25 -15 -30 -15 -6 0 -2 7 8 15 11 8 25 15
30 15 6 0 2 -7 -8 -15z"/>
<path d="M10003 10550 c-35 -33 -63 -64 -63 -70 0 -21 26 -9 67 32 l44 43 -12
-33 c-9 -28 -9 -36 3 -48 13 -13 19 -10 54 24 33 34 44 39 72 34 29 -4 33 -2
30 14 -6 32 -65 31 -99 -2 l-29 -28 11 32 c11 32 7 62 -8 62 -4 -1 -36 -27
-70 -60z"/>
<path d="M12044 10597 c-43 -25 -104 -116 -104 -155 0 -11 7 -25 15 -32 13
-11 22 -10 53 6 20 10 40 20 45 22 4 2 7 -11 7 -30 0 -18 4 -39 9 -47 15 -23
30 -3 24 32 -4 26 3 50 32 104 47 90 44 107 -15 110 -25 2 -55 -3 -66 -10z
m69 -29 c8 -24 -22 -65 -69 -97 -44 -28 -74 -39 -74 -26 0 3 9 23 20 44 33 66
110 115 123 79z"/>
<path d="M4077 10588 c-21 -4 -47 -13 -58 -19 -26 -14 -79 -97 -79 -124 0 -30
31 -55 66 -55 39 0 123 25 149 44 32 23 9 30 -40 12 -25 -10 -67 -19 -93 -19
-41 -2 -47 1 -50 20 -2 14 11 37 42 68 43 46 46 47 97 43 33 -2 54 1 56 8 6
18 -48 31 -90 22z"/>
<path d="M4604 10582 c-67 -37 -104 -64 -99 -72 3 -5 -4 -14 -15 -20 -18 -10
-30 -60 -14 -60 3 0 26 22 50 49 52 58 108 95 129 87 20 -7 19 -59 0 -97 -16
-30 -13 -49 8 -49 16 0 49 103 41 126 -11 29 -35 54 -53 54 -9 0 -30 -8 -47
-18z"/>
<path d="M13327 10579 c-60 -98 -78 -155 -41 -131 20 13 75 135 65 145 -6 6
-15 0 -24 -14z"/>
<path d="M2730 10581 c-29 -8 -79 -92 -80 -132 0 -14 9 -34 20 -44 17 -15 24
-16 48 -6 16 7 43 27 60 44 80 83 51 167 -48 138z m60 -50 c0 -34 -31 -76 -70
-96 -25 -13 -29 -13 -34 0 -7 19 7 57 28 74 9 7 13 17 11 22 -7 10 24 28 48
29 12 0 17 -8 17 -29z"/>
<path d="M10696 10578 c-2 -7 -9 -32 -17 -56 -9 -31 -9 -46 -1 -54 13 -13 42
50 42 93 0 29 -17 41 -24 17z"/>
<path d="M4338 10563 c-7 -10 -26 -25 -41 -33 -36 -18 -69 -63 -61 -84 9 -23
52 -20 102 9 l42 24 0 -29 c0 -25 15 -49 24 -39 2 2 6 28 8 57 4 36 1 55 -7
58 -6 3 -35 -11 -64 -31 -29 -19 -58 -35 -65 -35 -17 1 75 80 107 92 15 5 27
14 27 19 0 16 -59 9 -72 -8z"/>
<path d="M8860 10538 c-73 -100 -40 -146 71 -102 64 26 73 89 17 128 -35 25
-56 19 -88 -26z m86 -22 c8 -34 0 -43 -46 -57 -47 -14 -56 -9 -40 23 32 61 75
78 86 34z"/>
<path d="M2461 10505 c-25 -36 -49 -64 -55 -62 -6 2 -20 22 -31 45 -19 38 -38
52 -48 34 -3 -4 10 -33 29 -65 l34 -59 -44 -71 c-63 -101 -79 -142 -66 -168
14 -25 30 -16 30 17 0 14 7 39 16 57 28 54 183 294 199 307 16 13 11 30 -8 30
-7 0 -32 -29 -56 -65z"/>
<path d="M7470 10516 c-12 -51 -9 -76 9 -76 5 0 13 26 20 57 14 71 14 73 -2
73 -8 0 -19 -22 -27 -54z"/>
<path d="M13465 10552 c-35 -22 -115 -107 -115 -122 0 -22 27 -7 65 36 34 40
81 74 100 74 12 0 3 -41 -19 -91 -24 -50 -25 -69 -6 -69 17 0 61 114 58 150
-2 29 -7 35 -28 38 -14 1 -38 -6 -55 -16z"/>
<path d="M4380 10236 c0 -16 37 -46 57 -46 7 0 13 6 13 13 0 12 -12 21 -62 45
-5 2 -8 -3 -8 -12z"/>
<path d="M5172 10218 c-22 -12 -53 -31 -68 -43 -38 -30 -27 -66 31 -107 51
-36 54 -43 25 -58 -16 -9 -28 -7 -52 4 -40 20 -40 20 -36 -6 6 -42 81 -48 128
-10 31 25 20 54 -34 86 -37 21 -64 53 -54 61 43 32 88 55 105 55 13 0 23 6 23
14 0 24 -25 25 -68 4z"/>
<path d="M4156 10187 c-21 -7 -47 -23 -58 -37 -17 -24 -18 -29 -4 -67 13 -37
13 -43 -2 -55 -23 -20 -51 -11 -63 19 -10 27 -21 25 -26 -7 -3 -21 40 -60 67
-60 9 0 29 11 45 25 20 19 25 32 21 48 -20 66 -19 85 5 97 13 7 36 13 52 12
21 0 27 4 25 15 -4 22 -16 24 -62 10z"/>
<path d="M3437 10138 c-48 -59 -89 -140 -77 -152 6 -6 5 -16 -1 -28 -12 -21
-5 -48 11 -48 5 0 10 17 10 39 0 48 47 142 80 158 25 12 44 48 34 64 -10 17
-22 9 -57 -33z"/>
<path d="M3871 10151 c-11 -11 -22 -17 -24 -14 -3 2 -8 -5 -12 -16 -8 -27 18
-87 45 -101 30 -16 18 -24 -48 -30 -68 -6 -71 -24 -6 -28 96 -6 132 35 74 85
-45 38 -38 85 14 94 11 2 21 10 24 17 6 20 -46 14 -67 -7z"/>
<path d="M3125 10124 c-14 -15 -25 -32 -25 -39 0 -8 -9 -10 -25 -7 -17 3 -25
0 -26 -9 0 -8 -2 -23 -4 -34 -2 -11 -8 -65 -14 -120 -5 -55 -14 -115 -20 -132
-6 -22 -6 -35 1 -39 17 -11 26 8 50 103 22 89 24 92 58 102 20 6 51 27 70 46
29 30 35 44 35 79 0 24 -6 50 -14 59 -20 25 -59 21 -86 -9z m69 -30 c8 -32
-19 -83 -56 -104 -37 -20 -43 -9 -24 46 27 79 68 109 80 58z"/>
<path d="M4524 10112 c-58 -69 -68 -90 -56 -117 10 -21 18 -25 57 -25 48 0
100 20 108 42 5 14 -28 105 -45 125 -16 20 -31 14 -64 -25z m65 -49 c12 -33
12 -38 -5 -50 -20 -14 -80 -18 -88 -5 -7 12 52 92 68 92 7 0 18 -17 25 -37z"/>
<path d="M2892 10133 c-8 -3 -1 -15 20 -35 l32 -30 -33 -30 c-18 -16 -38 -27
-44 -25 -7 2 -17 21 -23 42 -10 38 -34 60 -34 32 0 -37 14 -77 27 -77 9 0 4
-10 -14 -28 -15 -16 -32 -27 -38 -25 -18 6 -79 -37 -68 -48 7 -7 32 1 75 22
l64 31 39 -26 c44 -30 70 -30 70 -1 0 15 -7 20 -28 21 -40 1 -58 22 -32 36 32
19 65 56 65 75 0 15 -51 75 -62 72 -1 0 -9 -3 -16 -6z"/>
<path d="M4800 10119 c-19 -11 -47 -35 -62 -52 l-27 -32 -1 27 c0 40 -26 26
-37 -20 -20 -77 4 -81 72 -11 44 44 92 79 110 79 10 0 5 -37 -10 -80 -20 -56
-12 -82 23 -78 28 3 44 28 18 28 -20 0 -20 5 -1 75 8 31 12 62 8 70 -8 21 -52
18 -93 -6z"/>
<path d="M3569 10088 c-16 -18 -42 -45 -57 -61 l-27 -27 23 -6 c12 -4 22 -12
22 -19 0 -15 51 -35 86 -35 42 0 35 19 -11 31 -50 13 -60 35 -20 45 50 12 75
73 41 96 -18 13 -26 9 -57 -24z m41 -17 c0 -5 -7 -12 -16 -15 -14 -5 -15 -4
-4 9 14 17 20 19 20 6z"/>
<path d="M2531 10064 c-22 -26 -41 -50 -41 -55 0 -4 -15 -9 -32 -11 -36 -3
-41 -18 -12 -33 12 -6 18 -18 16 -32 -5 -32 31 -63 73 -63 46 0 133 19 141 31
11 19 -4 21 -80 8 -67 -11 -78 -11 -92 3 -27 26 -8 56 50 82 62 28 88 58 77
90 -15 40 -54 32 -100 -20z m69 1 c0 -8 -13 -21 -30 -30 -35 -18 -38 -10 -8
22 25 26 38 29 38 8z"/>
<path d="M4305 10073 c-4 -21 -11 -49 -16 -62 -11 -27 4 -53 20 -35 12 12 33
113 25 125 -11 19 -23 8 -29 -28z"/>
<path d="M5455 10000 c-9 -15 6 -60 21 -60 9 0 14 12 14 35 0 34 -20 49 -35
25z"/>
<path d="M14030 9836 c0 -124 4 -146 27 -146 11 0 14 6 9 23 -3 12 -6 70 -6
130 0 88 -3 107 -15 107 -12 0 -15 -19 -15 -114z"/>
<path d="M12986 9858 c5 -24 8 -71 8 -105 -1 -47 2 -63 12 -63 20 0 27 43 20
116 -8 78 -14 94 -33 94 -13 0 -14 -7 -7 -42z"/>
<path d="M5273 9780 c-10 -12 -48 -50 -85 -87 -38 -36 -68 -71 -68 -78 0 -24
55 -38 105 -27 l45 10 -6 -63 c-7 -66 5 -105 31 -105 18 0 18 5 5 31 -6 11 -8
45 -4 84 7 63 8 66 35 72 42 8 39 37 -2 31 l-32 -5 6 79 c7 82 0 94 -30 58z
m-7 -147 c-8 -8 -88 -24 -94 -18 -3 3 16 28 44 56 l49 50 3 -42 c2 -22 1 -43
-2 -46z"/>
<path d="M13496 9758 c-3 -13 -6 -33 -6 -46 0 -21 -3 -23 -30 -17 -24 5 -30 3
-30 -9 0 -10 12 -19 30 -22 28 -6 30 -10 30 -49 0 -52 8 -75 25 -75 10 0 12
15 8 60 l-6 60 71 0 c77 0 102 6 102 24 0 9 -24 11 -86 8 l-87 -4 7 46 c6 37
4 46 -7 46 -8 0 -17 -10 -21 -22z"/>
<path d="M3761 9698 c-14 -29 -48 -64 -102 -106 -44 -35 -78 -69 -76 -75 4
-13 49 -15 118 -5 l45 7 -4 -59 c-3 -39 0 -65 8 -75 18 -22 30 -9 23 25 -3 16
-2 49 1 72 5 34 13 47 37 60 32 19 31 43 -2 33 -16 -6 -17 -3 -8 23 13 37 8
134 -7 139 -7 2 -21 -15 -33 -39z m9 -97 c-13 -48 -15 -50 -77 -57 l-48 -5 30
23 c17 12 46 37 65 55 19 17 36 30 38 28 2 -2 -2 -21 -8 -44z"/>
<path d="M14220 9684 c-45 -11 -293 -21 -336 -13 -22 4 -34 -2 -34 -16 0 -16
92 -22 252 -16 90 4 210 30 216 49 5 16 -27 14 -98 -4z"/>
<path d="M13020 9618 c-63 -5 -151 -7 -195 -4 -84 5 -113 -2 -100 -24 6 -10
51 -11 209 -5 111 5 238 9 283 10 84 1 109 9 83 25 -18 11 -121 11 -280 -2z"/>
<path d="M13964 9457 c-62 -59 -95 -98 -90 -105 5 -8 13 -9 24 -3 10 5 53 11
97 13 l80 3 5 -62 c3 -34 11 -68 18 -75 6 -6 12 -10 12 -7 6 51 3 196 -4 192
-5 -4 -7 15 -3 42 5 47 -12 95 -33 95 -5 0 -52 -42 -106 -93z m108 9 l-4 -44
-56 -11 c-30 -6 -57 -9 -59 -7 -4 4 108 106 117 106 3 0 4 -20 2 -44z"/>
<path d="M5487 9408 c-4 -66 -7 -171 -7 -232 0 -120 -6 -159 -24 -153 -20 7
-64 140 -87 262 -12 66 -25 123 -29 128 -3 4 -34 -15 -68 -42 -34 -27 -71 -52
-82 -56 -19 -6 -26 -25 -14 -38 7 -7 43 14 101 60 49 39 40 50 68 -92 22 -112
53 -201 82 -235 31 -37 44 -38 66 -1 14 23 17 54 17 159 0 71 3 169 6 218 l7
89 126 0 c69 1 198 3 286 5 143 4 163 3 187 -13 30 -21 45 -9 29 22 -16 29
-113 35 -335 21 -186 -12 -279 -9 -291 11 -4 5 -12 9 -19 9 -9 0 -15 -32 -19
-122z"/>
<path d="M4465 9500 c-75 -12 -406 -30 -437 -23 l-28 5 0 -95 c0 -52 -7 -132
-15 -178 -7 -46 -17 -111 -20 -144 -4 -33 -8 -62 -10 -64 -9 -9 -36 114 -44
202 -4 54 -13 103 -19 109 -7 7 -33 -12 -86 -65 -42 -41 -76 -79 -76 -85 0
-18 23 -27 28 -11 5 15 102 109 113 109 3 0 9 -35 11 -78 10 -134 57 -258 87
-226 26 27 72 275 74 400 l2 82 75 6 c41 3 168 11 283 18 144 8 207 16 207 24
0 6 -17 14 -37 18 -43 7 -39 7 -108 -4z"/>
<path d="M12921 9429 c-55 -44 -98 -85 -95 -91 6 -10 46 -8 140 8 l40 6 -4
-36 c-5 -41 23 -95 40 -78 7 7 6 17 -2 32 -15 28 -4 90 15 90 22 0 30 22 12
35 -12 9 -14 19 -8 46 8 36 -5 69 -26 69 -6 0 -56 -36 -112 -81z m105 15 c-3
-9 -6 -24 -6 -34 0 -21 -10 -26 -76 -36 l-49 -7 55 46 c56 48 87 60 76 31z"/>
<path d="M9203 9407 c-7 -23 -15 -66 -19 -96 l-7 -53 -55 4 c-67 4 -82 -15
-25 -31 21 -6 47 -11 57 -11 18 0 18 -6 12 -77 -12 -123 -12 -126 0 -130 15
-5 23 25 30 126 l7 83 68 -6 c41 -4 70 -3 73 3 10 15 -10 23 -75 28 -68 7 -68
8 -44 108 18 75 18 95 2 95 -7 0 -18 -19 -24 -43z"/>
<path d="M10437 9413 c-4 -9 -9 -82 -11 -158 -1 -49 -2 -50 -33 -53 -22 -2
-33 -9 -33 -19 0 -12 8 -14 35 -11 l35 4 0 -67 c0 -43 5 -70 13 -78 21 -17 24
-6 19 74 -5 84 -10 80 80 66 57 -10 98 -6 98 10 0 5 -7 5 -17 2 -9 -4 -14 -2
-11 3 4 5 -5 10 -19 11 -15 0 -51 4 -81 8 l-55 7 5 104 c4 80 2 104 -8 104 -7
0 -15 -3 -17 -7z"/>
<path d="M8990 9398 c0 -16 19 -38 33 -38 4 0 7 10 5 22 -3 25 -38 39 -38 16z"/>
<path d="M10270 9350 c0 -16 23 -60 31 -60 16 0 19 19 8 44 -12 25 -39 36 -39
16z"/>
<path d="M4415 9321 c-40 -24 -114 -108 -121 -137 -18 -73 35 -84 114 -24 l52
40 0 -35 c0 -45 23 -58 76 -43 70 19 114 40 114 54 0 17 5 18 -63 -6 -79 -28
-97 -27 -97 8 0 16 7 37 15 48 21 28 18 62 -10 89 -29 30 -41 31 -80 6z m63
-39 c9 -27 -137 -147 -155 -128 -12 12 29 76 71 112 40 35 75 41 84 16z"/>
<path d="M11384 9298 c-56 -49 -54 -79 9 -145 18 -19 27 -38 24 -47 -8 -19
-59 -21 -87 -4 -25 16 -35 5 -20 -21 20 -39 132 -22 143 21 4 13 -6 32 -27 56
-58 65 -61 78 -27 112 17 17 36 28 44 24 8 -3 17 1 20 9 4 10 -3 17 -20 20
-18 3 -34 -4 -59 -25z"/>
<path d="M7030 9306 c0 -8 29 -33 65 -57 l65 -44 -93 -8 c-78 -7 -209 -4 -281
5 -30 4 -29 -17 0 -31 20 -9 77 -11 204 -7 97 3 182 6 190 8 7 2 14 -2 17 -8
2 -6 -18 -21 -44 -33 -97 -44 -209 -123 -199 -139 10 -17 46 -15 46 2 0 14
108 83 193 123 72 34 66 49 -58 142 -80 61 -105 73 -105 47z"/>
<path d="M5794 9278 c-83 -56 -119 -134 -74 -158 17 -9 32 -6 75 14 30 14 55
21 55 15 0 -5 9 -18 20 -29 27 -27 94 -27 138 0 43 27 33 45 -15 25 -45 -19
-87 -19 -102 -1 -10 12 -8 24 7 58 18 42 18 44 -1 76 -10 17 -27 32 -37 32
-10 0 -40 -15 -66 -32z m60 -70 c-34 -36 -124 -74 -124 -50 0 19 43 68 82 94
l43 29 8 -26 c7 -20 5 -31 -9 -47z"/>
<path d="M12401 9299 c-94 -18 -185 -118 -154 -168 17 -27 47 -24 115 13 l65
34 -4 -43 c-4 -34 -1 -47 16 -64 28 -28 90 -28 122 0 l24 20 -53 -6 c-58 -6
-82 4 -82 36 0 30 31 99 43 96 23 -4 18 43 -7 68 -14 14 -29 25 -33 24 -4 -1
-28 -5 -52 -10z m43 -51 c-10 -13 -26 -28 -34 -36 -25 -21 -114 -72 -127 -72
-39 0 21 85 79 113 18 9 48 17 67 17 l34 0 -19 -22z"/>
<path d="M9464 9249 c-16 -5 -40 -19 -53 -33 -14 -15 -29 -22 -42 -19 -19 5
-27 -16 -12 -31 4 -4 6 -24 4 -45 -3 -49 25 -78 84 -87 58 -8 187 12 202 33
20 26 5 33 -35 16 -54 -23 -186 -23 -209 -1 -13 14 -15 23 -7 45 8 24 17 29
54 33 25 3 55 11 68 18 24 14 30 50 10 70 -14 14 -21 14 -64 1z m40 -39 c-5
-5 -25 -13 -44 -16 -33 -6 -34 -6 -15 9 22 18 76 24 59 7z"/>
<path d="M7958 9212 c-31 -33 -37 -47 -46 -112 -5 -41 -7 -81 -5 -87 8 -19 33
-15 33 5 2 73 30 171 55 192 10 9 21 8 44 -4 37 -19 51 -20 51 -3 0 13 -60 47
-83 47 -7 0 -29 -17 -49 -38z"/>
<path d="M8594 9228 c4 -13 9 -44 13 -70 5 -43 3 -50 -25 -77 -51 -51 -76 -39
-73 36 0 24 -3 43 -9 43 -6 0 -25 -16 -42 -36 -48 -55 -118 -84 -118 -49 0 9
11 43 25 76 24 57 25 84 3 77 -11 -4 -32 -56 -52 -127 -15 -53 -41 -69 -125
-77 -99 -11 -130 8 -109 66 7 19 11 21 17 11 18 -28 131 33 131 70 0 32 -25
33 -89 3 -73 -32 -107 -76 -96 -124 11 -50 43 -64 133 -57 42 3 91 12 107 21
17 9 46 16 66 16 22 0 51 10 73 25 46 31 52 31 60 0 13 -51 95 -42 134 15 24
37 29 97 11 149 -13 36 -45 45 -35 9z m-414 -73 c0 -6 -56 -35 -67 -35 -4 1 8
9 27 20 39 22 40 22 40 15z"/>
<path d="M8729 9224 c-46 -118 -51 -154 -20 -154 16 0 20 7 19 38 0 49 26 102
52 102 10 0 30 -4 44 -10 15 -5 28 -6 31 0 8 13 -37 40 -79 47 -32 5 -37 3
-47 -23z"/>
<path d="M11151 9194 c-41 -95 -151 -152 -159 -83 -2 19 6 34 33 58 39 34 60
39 69 16 9 -24 26 -17 26 10 0 39 -32 49 -79 26 -54 -28 -83 -71 -79 -118 2
-30 9 -41 30 -51 24 -11 33 -10 77 12 l49 25 16 -24 c19 -29 51 -32 84 -9 28
19 29 38 2 30 -11 -3 -29 -9 -40 -12 -17 -5 -20 -2 -20 22 0 16 9 43 20 59 22
34 27 95 8 95 -7 0 -24 -26 -37 -56z"/>
<path d="M8917 9203 c-12 -40 -12 -126 0 -130 12 -4 20 28 25 101 3 41 -16 62
-25 29z"/>
<path d="M10256 9158 c-10 -38 -7 -146 5 -153 15 -10 16 -8 22 88 5 69 3 87
-7 87 -8 0 -16 -10 -20 -22z"/>
<path d="M8340 8762 c0 -10 -103 -125 -222 -250 -72 -75 -90 -107 -61 -107 6
0 45 39 87 87 42 48 110 123 151 167 73 78 91 111 60 111 -8 0 -15 -4 -15 -8z"/>
<path d="M8084 8719 c-4 -7 -9 -45 -12 -86 -4 -60 -2 -73 10 -73 11 0 17 16
21 63 4 34 8 71 9 81 3 22 -17 33 -28 15z"/>
<path d="M10650 8717 c-3 -2 -57 -7 -120 -11 -63 -4 -167 -11 -230 -16 -185
-15 -290 -13 -305 7 -19 26 -45 9 -45 -30 0 -28 -33 -222 -82 -475 -6 -34 -15
-59 -19 -55 -11 12 -37 163 -48 282 -10 112 -20 134 -48 109 -10 -8 -37 -25
-60 -38 -42 -23 -60 -50 -48 -70 10 -16 22 -12 28 9 5 21 83 66 91 53 2 -4 7
-52 11 -107 9 -133 51 -317 72 -313 28 6 69 139 109 356 l39 212 45 1 c25 1
68 3 95 5 28 2 124 8 215 14 91 6 213 15 271 20 58 5 115 7 126 4 23 -6 36 6
25 23 -7 10 -113 28 -122 20z"/>
<path d="M6876 8612 c-3 -5 -15 -48 -26 -96 -11 -48 -29 -104 -40 -126 -18
-36 -23 -39 -74 -45 -54 -7 -97 -27 -85 -40 4 -3 31 -2 60 3 30 6 56 9 58 7 6
-7 -80 -155 -90 -155 -6 0 -9 -8 -7 -17 7 -38 33 -14 84 77 30 52 55 98 56
102 2 4 28 10 58 14 l55 7 -26 -29 c-30 -34 -59 -75 -59 -86 0 -14 32 -38 53
-38 41 0 109 41 123 76 17 40 4 84 -24 84 -10 0 -23 5 -29 11 -6 6 -36 9 -71
7 l-59 -3 18 42 c10 23 23 69 30 102 6 34 16 61 21 61 13 0 5 43 -9 47 -6 2
-14 0 -17 -5z m112 -319 c-3 -29 -38 -59 -80 -69 -40 -9 -36 14 9 59 44 45 76
50 71 10z"/>
<path d="M2896 8588 c-2 -7 -9 -44 -16 -82 -7 -39 -30 -111 -51 -162 -60 -142
-50 -171 27 -85 40 45 78 70 90 59 2 -2 -7 -39 -21 -82 -14 -43 -22 -82 -19
-87 12 -20 32 -7 37 24 3 17 13 61 23 95 18 63 18 64 -1 78 -28 21 -41 18 -86
-23 l-41 -37 17 39 c49 112 78 255 56 269 -6 4 -13 1 -15 -6z"/>
<path d="M6210 8565 c0 -14 -21 -87 -46 -161 -47 -142 -52 -186 -20 -192 16
-3 18 0 12 22 -5 19 7 67 38 159 52 156 58 190 34 195 -14 3 -18 -3 -18 -23z"/>
<path d="M8306 8555 c-36 -13 -55 -29 -56 -47 0 -12 24 -10 37 3 17 17 83 29
82 15 0 -6 -29 -35 -65 -64 -60 -50 -78 -82 -55 -97 5 -3 35 -2 67 1 42 5 58
12 61 25 3 10 12 20 20 23 19 8 7 26 -19 26 -11 0 -22 -8 -25 -19 -3 -14 -16
-20 -44 -23 l-39 -4 47 41 c99 83 105 92 77 119 -19 19 -37 19 -88 1z"/>
<path d="M3537 8514 c-4 -4 -7 -23 -7 -42 0 -47 -24 -136 -60 -220 -54 -128
-33 -136 68 -25 l69 76 -1 -46 c-1 -50 16 -79 35 -60 7 7 8 17 2 28 -5 9 -7
36 -3 59 13 84 -7 87 -81 11 -29 -30 -54 -53 -56 -51 -2 2 5 23 15 47 47 109
60 263 19 223z"/>
<path d="M4324 8497 c-8 -22 3 -37 27 -37 24 0 24 12 -1 35 -17 16 -20 16 -26
2z"/>
<path d="M10181 8435 c-45 -39 -73 -89 -69 -127 5 -50 43 -50 123 1 35 22 62
34 59 27 -8 -21 14 -64 36 -71 25 -8 188 14 196 27 13 21 -11 25 -78 12 -40
-8 -81 -14 -90 -14 -29 0 -38 31 -21 75 36 96 24 127 -22 54 -25 -39 -133
-119 -162 -119 -33 0 5 85 52 116 21 14 31 15 51 5 32 -14 34 -14 34 4 0 17
-30 35 -59 35 -11 0 -33 -11 -50 -25z"/>
<path d="M3152 8423 c5 -25 28 -28 28 -4 0 12 -6 21 -16 21 -9 0 -14 -7 -12
-17z"/>
<path d="M2532 8414 c-49 -20 -172 -102 -172 -114 0 -23 31 -22 53 2 24 25
135 93 142 86 3 -2 -22 -50 -55 -105 -58 -98 -68 -122 -53 -136 3 -4 37 22 74
58 37 36 73 65 81 65 7 0 21 -14 30 -30 31 -55 91 -27 103 47 3 21 10 48 16
61 12 30 12 52 -1 52 -14 0 -37 -49 -45 -97 -10 -60 -28 -71 -55 -33 -28 39
-59 39 -107 -2 -20 -18 -33 -26 -28 -18 5 8 24 39 42 69 51 85 41 123 -25 95z"/>
<path d="M5112 8410 c-36 -15 -121 -106 -142 -153 -39 -86 -13 -155 53 -142
92 18 176 62 163 84 -6 8 -16 6 -39 -8 -18 -10 -56 -26 -86 -35 -59 -17 -81
-10 -81 26 0 30 26 85 41 86 29 2 102 23 130 37 41 22 50 44 34 83 -15 33 -31
38 -73 22z m48 -50 c0 -19 -63 -50 -103 -50 -20 1 -19 3 13 31 58 50 90 57 90
19z"/>
<path d="M4406 8371 c-28 -30 -36 -73 -21 -120 8 -27 -10 -60 -42 -72 -38 -14
-64 -3 -61 28 4 34 -19 42 -27 10 -9 -35 20 -77 52 -77 38 0 89 28 101 56 7
15 9 47 6 83 -6 56 -5 60 20 76 27 18 35 45 13 45 -7 0 -26 -13 -41 -29z"/>
<path d="M5731 8378 c5 -50 -14 -108 -43 -133 -30 -25 -62 -32 -72 -17 -3 5 8
35 24 68 27 55 30 74 10 74 -4 0 -22 -28 -40 -61 -36 -70 -34 -104 7 -120 21
-8 34 -5 69 16 52 30 53 32 70 103 19 79 18 92 -6 92 -16 0 -20 -6 -19 -22z"/>
<path d="M7759 8382 c-73 -48 -121 -107 -121 -149 0 -55 35 -55 119 1 l52 34
3 -36 c4 -48 43 -71 85 -50 45 22 41 40 -6 32 -49 -8 -62 11 -41 60 7 17 15
44 18 60 4 23 2 28 -11 23 -10 -4 -17 2 -21 19 -8 29 -38 31 -77 6z m51 -36
c0 -32 -32 -67 -92 -101 -42 -24 -48 -25 -48 -9 0 25 45 81 88 109 47 30 52
30 52 1z"/>
<path d="M5928 8367 c-14 -12 -44 -34 -65 -49 -47 -32 -72 -73 -55 -90 9 -9
24 -7 64 11 29 12 58 25 65 27 6 3 14 -3 17 -14 7 -21 34 -37 45 -27 3 3 0 15
-7 25 -6 11 -9 26 -6 35 11 27 -24 28 -83 1 l-58 -26 31 27 c18 16 50 41 73
57 22 16 38 33 35 38 -9 14 -28 9 -56 -15z"/>
<path d="M5374 8367 c-56 -33 -124 -109 -124 -140 0 -9 8 -21 18 -26 21 -11
84 14 120 49 13 12 25 20 26 19 10 -11 -67 -214 -104 -277 -60 -101 -41 -113
35 -21 65 78 103 109 134 109 26 0 28 26 2 33 -20 5 -45 -6 -77 -35 -18 -16
-15 -1 23 114 23 73 43 141 43 150 0 33 -18 27 -55 -18 -42 -51 -107 -98 -127
-92 -8 3 8 25 40 57 31 30 59 51 67 48 14 -6 29 19 19 34 -7 12 -14 11 -40 -4z"/>
<path d="M3090 8329 c-23 -44 -24 -110 -2 -117 8 -2 12 9 12 35 1 21 7 49 15
63 17 29 19 60 5 60 -5 0 -19 -18 -30 -41z"/>
<path d="M8893 8358 c-13 -22 18 -28 133 -28 78 0 124 4 124 10 0 6 -6 13 -14
16 -22 8 -237 10 -243 2z"/>
<path d="M4211 8324 c-26 -33 -56 -126 -48 -148 4 -9 13 -16 22 -16 14 0 20
18 15 49 -2 20 29 97 45 111 15 12 12 30 -5 30 -5 0 -18 -12 -29 -26z"/>
<path d="M3280 8332 c0 -6 -9 -8 -19 -5 -14 4 -28 -6 -50 -38 -55 -76 -36
-116 50 -105 28 4 59 12 70 19 25 15 26 42 2 32 -34 -15 -113 -29 -120 -22
-13 14 31 79 59 89 29 10 35 22 18 33 -5 3 -10 2 -10 -3z"/>
<path d="M9005 8244 c-16 -2 -49 -7 -72 -10 -30 -4 -43 -10 -43 -21 0 -12 7
-14 33 -9 18 3 70 7 115 7 70 1 105 10 91 24 -7 6 -94 13 -124 9z"/>
<path d="M13001 8093 c-6 -32 -18 -81 -26 -109 -18 -61 -19 -87 -3 -82 15 5
36 65 53 158 18 92 18 90 1 90 -10 0 -18 -19 -25 -57z"/>
<path d="M13223 8023 c-37 -32 -95 -83 -128 -113 -33 -31 -84 -78 -112 -105
-51 -46 -69 -85 -38 -85 8 0 81 66 162 146 81 81 165 158 185 172 36 24 42 42
13 42 -8 0 -44 -26 -82 -57z"/>
<path d="M13260 7861 c-44 -11 -64 -27 -56 -46 6 -16 8 -16 24 -2 9 8 33 17
52 19 48 4 46 -19 -2 -51 -21 -13 -38 -30 -38 -37 0 -7 17 -18 38 -24 75 -21
78 -36 12 -70 -48 -24 -102 -27 -94 -5 8 20 -20 20 -36 0 -54 -65 118 -58 187
7 33 31 29 55 -13 80 l-35 21 25 26 c28 29 33 60 14 79 -13 13 -37 14 -78 3z"/>
<path d="M4083 7710 c-4 -15 -14 -20 -41 -20 -82 0 -192 -88 -192 -155 0 -48
43 -79 171 -126 56 -21 109 -45 118 -54 14 -14 14 -19 -4 -52 -25 -47 -97 -85
-168 -90 -62 -5 -88 7 -67 31 19 24 5 31 -30 16 -59 -25 -27 -67 59 -77 116
-14 251 70 251 156 0 31 -51 65 -151 101 -146 52 -174 81 -133 139 26 36 104
81 141 81 31 0 33 -2 33 -33 0 -18 7 -42 15 -53 15 -19 15 -19 36 6 17 20 19
32 14 70 -11 73 -40 107 -52 60z"/>
<path d="M5406 7705 c-35 -38 -56 -127 -56 -237 l0 -95 -32 -9 c-18 -6 -33
-16 -33 -24 0 -16 18 -17 48 -5 15 6 17 1 17 -48 0 -57 20 -91 41 -70 8 8 7
13 0 17 -6 4 -11 31 -11 61 0 39 4 54 16 59 23 9 94 -12 101 -30 15 -40 76
-31 131 19 30 28 28 20 -17 -65 -51 -94 -101 -243 -101 -301 0 -45 19 -75 40
-62 13 8 13 35 0 35 -32 0 19 178 95 329 45 91 54 124 35 136 -6 4 -30 -11
-54 -33 -59 -54 -81 -60 -110 -29 -24 26 -103 46 -125 32 -19 -11 -13 110 10
192 21 81 33 103 54 103 25 0 59 -38 60 -66 2 -36 22 -43 30 -11 10 38 -27
102 -66 116 -44 15 -47 14 -73 -14z"/>
<path d="M10554 7702 c-223 -161 -296 -654 -127 -852 l37 -43 -299 7 c-165 3
-552 13 -860 21 -308 8 -602 15 -653 15 -63 0 -91 3 -87 11 12 18 -4 75 -31
115 l-26 37 57 54 c45 43 56 59 53 81 -2 20 -9 28 -28 31 -14 1 -37 16 -52 32
-33 34 -75 38 -119 12 -39 -23 -38 -61 6 -142 35 -64 35 -65 15 -86 -28 -30
-52 -94 -46 -121 l6 -24 -422 0 c-233 0 -501 -3 -597 -7 l-174 -6 34 61 c28
52 38 62 60 62 14 0 47 3 73 6 68 10 53 30 -19 26 -47 -3 -57 -1 -48 10 87
114 124 171 119 183 -9 24 -51 35 -124 34 -98 -2 -126 -10 -130 -37 -4 -23 23
-33 30 -11 5 14 145 24 174 12 20 -8 18 -13 -46 -98 l-67 -90 -63 -5 c-83 -7
-96 -30 -16 -30 l55 0 -32 -60 -32 -60 -163 0 -163 0 63 73 c119 136 137 169
124 222 -16 62 -85 48 -183 -36 -56 -49 -67 -64 -58 -86 5 -13 12 -9 37 21 38
46 126 106 144 99 30 -11 14 -59 -42 -129 -95 -116 -126 -145 -141 -132 -10 8
-22 4 -51 -16 -35 -24 -46 -26 -141 -26 -112 0 -776 -34 -991 -50 -424 -33
-826 -77 -1060 -115 -80 -13 -212 -33 -295 -45 -132 -18 -484 -69 -705 -101
-97 -14 -781 -143 -925 -174 -286 -61 -648 -166 -780 -225 -37 -17 -72 -30
-79 -30 -7 0 -33 -14 -60 -30 -145 -92 -48 -232 186 -269 35 -6 146 -17 248
-26 222 -19 361 -40 401 -60 31 -17 39 -35 14 -35 -17 0 -20 -16 -4 -26 13 -8
56 14 63 32 25 64 -100 101 -434 129 -292 25 -339 33 -408 66 -67 33 -95 64
-90 101 4 33 92 87 229 141 110 45 407 131 534 155 1101 214 1288 248 1715
307 140 20 320 47 400 60 425 70 1230 137 1933 161 l197 7 -6 -29 c-9 -45 16
-62 53 -36 15 11 37 29 47 41 l19 21 18 -29 c9 -15 26 -30 36 -33 25 -7 90 19
97 39 9 23 -2 29 -24 15 -27 -16 -55 -15 -70 3 -11 13 7 15 148 15 159 0 161
0 164 -22 2 -13 11 -24 22 -26 15 -3 18 0 13 20 l-7 25 188 6 c103 4 378 7
612 7 358 -1 428 -3 444 -15 26 -20 65 -19 87 1 17 15 73 15 721 -1 1035 -26
1246 -31 1643 -38 198 -4 475 -11 615 -17 585 -22 1051 -33 1189 -27 380 16
821 141 877 248 13 25 12 38 -2 106 -30 151 -96 254 -194 303 -65 33 -130 48
-130 31 0 -6 0 -14 0 -18 0 -4 12 -8 28 -9 43 -2 124 -48 165 -93 45 -50 73
-103 92 -178 22 -83 20 -128 -7 -154 -72 -69 -370 -155 -666 -193 -177 -23
-354 -21 -1307 14 -148 5 -439 13 -645 16 l-375 6 -51 53 c-35 35 -59 71 -73
111 -27 72 -45 216 -38 304 7 86 48 210 94 289 40 67 123 146 130 124 3 -7 11
-13 19 -13 21 0 14 54 -7 58 -8 1 -33 -10 -55 -26z m-2024 -522 c18 -16 40
-30 47 -30 22 0 15 -14 -24 -51 -71 -66 -67 -66 -102 0 -36 67 -38 86 -13 100
30 18 57 12 92 -19z m-1 -267 c15 -52 6 -63 -49 -63 -40 0 -49 3 -53 21 -7 27
8 67 36 97 l22 23 17 -21 c10 -12 22 -37 27 -57z"/>
<path d="M12668 7704 c-10 -9 4 -44 17 -44 25 0 63 -59 85 -132 19 -62 22 -88
17 -168 -10 -167 -64 -326 -141 -416 -20 -23 -47 -45 -61 -48 -33 -8 -50 -40
-29 -56 39 -33 172 140 217 281 55 177 62 302 22 427 -18 58 -36 91 -64 121
-37 39 -51 47 -63 35z"/>
<path d="M4996 7538 c-22 -266 -24 -304 -15 -312 6 -7 12 -7 18 0 10 10 33
353 25 366 -13 21 -23 2 -28 -54z"/>
<path d="M12277 7593 c-24 -3 -37 -9 -34 -16 3 -8 30 -11 88 -9 91 2 91 2 10
-47 -71 -43 -64 -67 28 -98 30 -10 59 -26 65 -35 18 -30 -5 -70 -54 -95 -39
-20 -50 -21 -82 -12 -27 7 -38 15 -38 29 0 26 -26 25 -41 -1 -9 -17 -7 -25 12
-45 43 -46 169 -21 219 43 23 29 26 81 7 107 -7 10 -38 26 -67 36 -30 10 -55
22 -54 27 0 4 33 26 72 48 46 26 72 46 72 58 0 15 -10 17 -82 15 -46 -1 -100
-3 -121 -5z"/>
<path d="M11582 7563 c-53 -3 -63 -7 -60 -21 3 -14 15 -16 86 -13 45 1 82 1
82 -1 0 -2 -20 -20 -45 -38 -51 -38 -55 -62 -10 -67 40 -5 79 -35 83 -62 4
-27 -28 -64 -69 -82 -24 -9 -35 -9 -54 1 -13 7 -22 17 -19 22 10 17 -7 28 -27
18 -42 -23 -5 -80 53 -80 57 0 129 47 149 98 13 34 -17 81 -64 102 l-39 18 46
32 c44 32 62 55 48 64 -13 8 -97 13 -160 9z"/>
<path d="M4295 7513 c12 -70 40 -74 29 -4 -4 27 -12 41 -21 41 -12 0 -14 -8
-8 -37z"/>
<path d="M7747 7533 c-5 -8 -9 -71 -11 -162 -2 -83 20 -75 29 11 12 107 11
151 -2 155 -6 2 -13 0 -16 -4z"/>
<path d="M8872 7411 l5 -129 -45 -6 c-25 -3 -60 -6 -78 -6 -25 0 -34 -4 -34
-16 0 -15 9 -16 73 -11 39 4 104 11 142 17 39 5 96 9 128 10 43 0 57 3 54 13
-3 8 -33 12 -103 12 l-99 0 -6 30 c-4 17 -7 72 -8 123 -1 78 -3 92 -17 92 -15
0 -16 -14 -12 -129z"/>
<path d="M5154 7519 c-10 -17 23 -46 38 -31 8 8 8 15 -2 27 -15 18 -26 19 -36
4z"/>
<path d="M10858 7504 c-17 -16 8 -24 80 -24 l77 0 -55 -33 c-68 -41 -78 -67
-26 -67 42 0 126 -37 126 -55 0 -7 -22 -33 -50 -59 -39 -37 -56 -46 -84 -46
-39 0 -62 26 -51 60 7 23 -13 28 -33 8 -19 -19 -14 -55 12 -85 30 -34 88 -38
125 -8 138 113 145 154 31 203 l-45 19 64 32 c48 25 61 35 52 44 -13 13 -211
23 -223 11z"/>
<path d="M4771 7435 c-17 -20 -31 -40 -31 -44 0 -5 -9 -7 -20 -4 -17 5 -20 0
-20 -33 0 -62 -8 -212 -15 -295 -5 -56 -4 -79 5 -84 20 -12 28 13 35 111 7 90
8 93 36 105 34 14 72 55 99 110 23 43 27 138 8 157 -24 24 -64 14 -97 -23z
m79 -42 c0 -59 -43 -140 -88 -166 l-30 -17 4 52 c9 88 57 178 96 178 15 0 18
-8 18 -47z"/>
<path d="M11941 7426 c-7 -8 -8 -17 -3 -20 15 -9 52 5 52 20 0 18 -34 18 -49
0z"/>
<path d="M4427 7386 c-22 -23 -50 -103 -43 -122 9 -22 19 -10 40 49 10 27 21
46 24 42 3 -3 9 -27 12 -52 6 -52 25 -67 39 -31 5 13 23 39 39 58 28 33 30 34
54 18 14 -10 28 -14 32 -11 14 14 4 30 -30 48 l-37 20 -31 -38 -30 -38 -16 32
c-18 39 -32 45 -53 25z"/>
<path d="M5156 7313 c-7 -80 1 -134 22 -141 8 -2 11 23 11 85 -1 48 0 93 1 98
5 22 -1 35 -14 35 -10 0 -16 -21 -20 -77z"/>
<path d="M4265 7306 c-8 -68 -1 -106 18 -106 8 0 13 27 14 85 1 65 -2 85 -12
85 -9 0 -16 -20 -20 -64z"/>
<path d="M9665 7361 c-71 -5 -90 -9 -90 -21 0 -12 14 -14 80 -12 44 2 92 5
108 8 29 6 38 35 10 32 -10 -1 -58 -4 -108 -7z"/>
<path d="M11320 7341 c0 -19 25 -35 41 -26 11 8 -12 45 -28 45 -7 0 -13 -9
-13 -19z"/>
<path d="M7795 7310 c-22 -5 -86 -9 -142 -9 -82 -1 -103 -4 -103 -15 0 -23 50
-28 161 -16 57 6 135 14 172 17 43 4 66 10 64 17 -4 14 -98 17 -152 6z"/>
<path d="M9628 7258 c-57 -14 -88 -26 -88 -35 0 -17 6 -16 92 3 39 9 86 14
104 11 39 -7 48 15 15 33 -24 12 -17 13 -123 -12z"/>
<path d="M7706 7184 c-19 -18 -20 -30 -4 -40 6 -4 16 0 23 9 15 20 65 23 65 4
0 -8 -9 -22 -20 -32 -28 -25 -23 -69 8 -73 30 -4 28 -26 -4 -51 -38 -30 -77
-27 -117 9 -19 17 -37 30 -41 30 -16 0 -3 -32 25 -59 24 -24 39 -31 71 -31 51
0 102 30 119 71 11 28 10 33 -6 45 -10 8 -25 14 -32 14 -18 0 -16 15 3 31 23
19 33 51 22 72 -12 22 -90 24 -112 1z"/>
<path d="M8857 7183 c-4 -3 -7 -13 -7 -21 0 -11 8 -13 35 -9 28 5 35 2 35 -10
0 -9 -16 -30 -35 -49 -41 -38 -44 -54 -12 -54 40 0 52 -17 17 -24 -49 -9 -90
-7 -90 5 0 5 -5 7 -11 3 -8 -5 -8 -1 0 14 8 15 8 23 0 28 -20 12 -33 -13 -23
-48 9 -31 13 -33 56 -36 103 -7 156 29 108 73 -17 16 -18 20 -6 34 49 57 39
101 -23 101 -21 0 -41 -3 -44 -7z"/>
<path d="M8440 6653 c-25 -24 -79 -65 -120 -90 -41 -26 -104 -65 -140 -88
-102 -66 -220 -130 -570 -309 -520 -267 -622 -322 -677 -370 -53 -47 -99 -74
-109 -63 -6 5 29 52 120 157 50 59 80 117 64 126 -6 4 -20 -4 -32 -18 -240
-286 -247 -295 -240 -312 14 -36 117 -38 303 -6 35 6 66 8 69 6 6 -7 32 13 32
25 0 13 -59 11 -147 -6 -82 -16 -223 -20 -223 -7 0 4 24 7 53 7 50 0 58 3 111
50 31 28 74 59 94 71 92 52 385 207 702 369 190 98 386 203 435 235 50 31 132
83 184 115 99 62 161 116 161 140 0 26 -23 15 -70 -32z"/>
<path d="M5908 6270 c-4 -124 -3 -135 10 -135 9 0 15 18 18 57 2 31 4 60 5 65
6 34 -3 73 -16 73 -11 0 -15 -14 -17 -60z"/>
<path d="M6038 6172 c-43 -53 -93 -115 -113 -137 -41 -47 -79 -120 -70 -135
12 -19 35 -10 35 13 0 26 17 54 69 112 20 23 63 76 96 120 33 43 68 85 77 93
18 16 15 32 -5 32 -7 0 -47 -44 -89 -98z"/>
<path d="M6149 6060 c-44 -13 -81 -42 -69 -54 7 -7 18 -6 38 6 38 21 82 31 82
18 0 -6 -25 -36 -55 -66 -30 -31 -53 -59 -50 -64 3 -4 23 -11 45 -15 36 -6 39
-9 28 -23 -21 -25 -97 -55 -111 -43 -17 14 -41 -3 -34 -23 19 -50 187 26 187
85 0 11 -8 22 -17 25 -10 3 -25 8 -33 11 -13 4 -13 6 1 16 25 18 69 87 69 107
0 28 -31 36 -81 20z"/>
<path d="M3673 5991 c-89 -55 -172 -189 -208 -334 -49 -205 7 -336 168 -391
50 -17 107 -21 107 -8 0 4 -34 17 -75 30 -129 39 -184 109 -185 232 0 172 104
390 212 446 30 16 61 9 37 -8 -11 -8 -11 -9 1 -5 8 2 15 15 15 28 0 32 -30 36
-72 10z"/>
<path d="M5625 5951 c-10 -17 6 -39 35 -44 35 -8 141 -95 169 -141 67 -108 45
-284 -57 -446 -54 -85 -80 -102 -122 -80 -26 14 -39 -9 -15 -27 60 -43 128 12
199 160 68 140 80 238 45 359 -9 31 -32 62 -80 110 -67 66 -163 126 -174 109z"/>
<path d="M11292 5803 c-62 -42 -136 -140 -153 -204 -30 -112 50 -163 189 -118
40 13 55 55 27 76 -21 15 -101 17 -158 4 -38 -9 -39 -9 -32 17 13 51 33 88 75
135 46 51 109 97 135 97 8 0 15 7 15 15 0 26 -42 16 -98 -22z m26 -285 c-9
-25 -128 -31 -128 -8 0 9 36 15 98 18 23 1 32 -2 30 -10z"/>
<path d="M9496 5819 c-22 -5 -76 -10 -120 -12 -64 -2 -81 -5 -81 -17 0 -12 10
-14 43 -12 24 2 49 -2 58 -8 9 -9 32 -11 67 -7 l52 6 -40 -36 c-22 -19 -59
-44 -82 -55 -66 -29 -54 -52 26 -50 64 1 81 -5 81 -33 0 -30 -40 -59 -116 -85
-62 -22 -104 -26 -104 -10 0 14 -27 13 -36 -2 -10 -16 24 -38 60 -38 83 0 236
86 236 132 0 26 -34 59 -67 66 l-31 7 80 68 c43 38 77 74 75 80 -5 15 -51 18
-101 6z"/>
<path d="M2584 5796 c-8 -22 3 -49 19 -43 6 2 41 -14 77 -36 104 -63 130 -81
130 -94 0 -17 -69 -51 -155 -77 -80 -25 -97 -52 -32 -50 63 2 227 96 227 130
0 17 -46 54 -137 108 -43 26 -88 54 -100 63 -21 14 -23 14 -29 -1z"/>
<path d="M4643 5791 c-44 -20 -66 -62 -45 -83 14 -14 35 0 28 18 -7 17 29 41
72 50 27 5 32 4 32 -12 -1 -51 -61 -146 -166 -262 -51 -55 -74 -88 -70 -98 5
-13 18 -5 62 35 72 66 103 68 139 10 22 -33 29 -38 41 -29 11 10 14 10 14 0 0
-8 3 -11 6 -7 4 3 -4 19 -17 35 -13 16 -28 37 -34 46 -5 10 -25 21 -43 24
l-32 7 41 55 c56 73 91 151 87 192 -3 30 -6 33 -38 36 -19 1 -54 -7 -77 -17z"/>
<path d="M10228 5773 c-71 -39 -86 -57 -67 -79 16 -19 29 -17 29 4 0 21 84 72
118 72 25 0 34 -23 23 -53 -10 -24 -109 -122 -208 -206 -35 -29 -63 -59 -63
-67 0 -18 36 -18 43 0 3 8 21 26 40 40 37 28 67 26 67 -4 0 -50 95 -54 143 -6
48 48 21 67 -29 21 -34 -31 -84 -34 -84 -5 0 11 -8 25 -18 31 -16 10 -10 19
59 89 88 89 103 126 72 169 -28 37 -49 36 -125 -6z"/>
<path d="M3872 5769 c-42 -30 -72 -73 -72 -104 0 -28 25 -15 42 23 22 46 85
91 94 67 9 -24 -53 -119 -135 -207 -55 -59 -71 -82 -63 -90 9 -9 18 -6 36 11
38 36 100 38 177 7 67 -27 101 -21 55 9 -39 26 -96 44 -138 45 l-38 0 51 63
c84 104 106 159 73 191 -21 22 -32 20 -82 -15z"/>
<path d="M5394 5789 c-40 -11 -68 -43 -60 -66 7 -16 9 -16 24 5 30 39 112 49
112 14 0 -23 -72 -145 -117 -201 -20 -24 -58 -59 -85 -78 -26 -19 -48 -41 -48
-48 0 -28 23 -26 53 3 36 34 91 64 101 55 3 -4 6 -25 6 -48 0 -49 13 -65 55
-65 44 0 122 28 129 47 10 24 1 26 -34 8 -17 -9 -50 -17 -73 -18 l-42 -2 -6
49 c-3 29 -12 54 -21 59 -13 9 -9 21 32 81 26 39 55 85 64 103 17 33 22 88 9
96 -19 11 -71 15 -99 6z"/>
<path d="M10703 5719 c-18 -5 -35 -14 -39 -20 -10 -17 18 -30 35 -16 8 7 43
12 78 12 40 0 63 4 63 11 0 25 -74 31 -137 13z"/>
<path d="M8144 5699 c-3 -6 1 -18 10 -27 10 -11 16 -12 16 -4 0 15 166 17 175
2 8 -13 35 -13 35 -1 0 5 -7 17 -16 25 -12 12 -38 16 -114 16 -61 0 -101 -4
-106 -11z"/>
<path d="M9786 5654 c-17 -43 7 -60 37 -26 13 14 14 21 5 30 -17 17 -35 15
-42 -4z"/>
<path d="M4351 5641 c-16 -29 -14 -61 4 -61 8 0 15 7 15 15 0 8 5 15 11 15 14
0 7 42 -8 47 -6 2 -16 -5 -22 -16z"/>
<path d="M5026 5638 c-17 -26 -11 -68 9 -68 15 0 28 71 16 83 -5 5 -16 -1 -25
-15z"/>
<path d="M10680 5616 c0 -13 13 -16 65 -18 36 -1 75 -2 88 -2 13 -1 22 5 22
14 0 12 -18 16 -87 18 -75 3 -88 1 -88 -12z"/>
<path d="M8178 5563 c-16 -2 -28 -10 -28 -18 0 -10 19 -13 85 -12 73 2 85 4
85 20 0 14 -9 17 -57 16 -32 -1 -70 -4 -85 -6z"/>
<path d="M8920 5103 c-39 -48 -82 -137 -110 -229 -20 -66 -24 -72 -53 -78 -36
-7 -77 -32 -77 -46 0 -15 32 -11 54 5 37 28 48 19 30 -22 -37 -88 -73 -196
-68 -204 8 -13 24 -11 28 4 2 6 23 64 47 129 46 125 43 122 128 134 36 5 51
12 51 25 0 11 -65 7 -112 -7 -15 -5 -13 8 15 89 32 91 90 197 108 197 11 0 11
2 0 -37 -10 -34 0 -52 16 -30 15 18 25 66 18 88 -10 30 -41 22 -75 -18z"/>
<path d="M10422 5089 c-5 -13 -20 -49 -32 -79 -94 -229 -142 -400 -112 -400 7
0 14 12 17 28 19 90 30 124 71 225 82 199 90 225 77 238 -9 9 -14 7 -21 -12z"/>
<path d="M11290 5074 c-6 -14 -10 -32 -10 -41 0 -8 -22 -81 -49 -162 -55 -164
-77 -252 -68 -275 13 -32 24 -14 35 53 7 37 23 102 38 142 14 41 37 110 50
154 14 44 30 90 36 102 12 23 5 53 -12 53 -6 0 -15 -12 -20 -26z"/>
<path d="M10587 5083 c-4 -3 -7 -13 -7 -21 0 -8 -23 -72 -52 -143 l-51 -128
-44 -7 c-33 -5 -43 -10 -41 -23 4 -17 18 -19 57 -6 13 4 21 3 19 -1 -16 -29
-61 -185 -55 -191 13 -13 28 14 57 103 l28 89 56 5 c47 4 55 3 51 -10 -33
-109 -42 -175 -25 -185 12 -7 11 -10 40 113 21 88 21 94 5 106 -11 8 -36 11
-66 8 l-49 -5 14 39 c8 22 30 77 50 124 20 47 36 97 36 113 0 26 -9 34 -23 20z"/>
<path d="M5639 5068 c0 -2 -2 -10 -4 -18 -12 -57 -78 -309 -85 -327 -8 -18
-18 -23 -48 -23 -44 0 -53 -6 -45 -27 4 -11 15 -13 44 -8 l37 7 -15 -49 c-20
-64 -21 -78 -4 -78 9 0 22 25 35 68 21 68 21 69 76 93 30 13 61 23 68 24 16 0
15 -38 -4 -116 -12 -45 -14 -68 -6 -76 14 -14 26 11 42 82 26 119 3 156 -81
127 -28 -10 -53 -16 -56 -13 -4 3 11 70 32 148 51 194 50 188 31 188 -9 0 -16
-1 -17 -2z"/>
<path d="M5126 5028 c-65 -226 -81 -268 -102 -268 -44 0 -84 -13 -84 -27 0
-12 10 -14 51 -8 51 7 52 7 46 -16 -7 -30 -14 -78 -22 -146 -5 -43 -3 -53 9
-53 9 0 17 13 20 33 3 17 10 66 16 107 6 41 12 75 13 77 2 1 35 3 75 4 40 1
72 6 72 11 0 5 5 6 11 2 7 -4 10 -1 7 7 -3 8 -15 13 -29 11 -30 -5 -25 -5 -82
-3 -55 1 -55 -12 -2 154 18 56 30 107 28 114 -7 17 -23 17 -27 1z"/>
<path d="M7191 4939 c-18 -56 -42 -140 -53 -187 -19 -88 -27 -229 -14 -251 16
-25 26 4 26 75 0 96 33 255 75 364 18 47 31 88 28 93 -14 23 -32 -4 -62 -94z"/>
<path d="M12147 5009 c-8 -19 -30 -84 -48 -146 -31 -103 -36 -112 -62 -117
-27 -5 -46 -30 -33 -44 4 -3 16 0 27 7 12 7 23 11 25 8 5 -5 -18 -73 -42 -123
-9 -19 -14 -38 -10 -41 14 -14 46 33 68 103 23 73 23 74 53 68 17 -4 32 -8 34
-10 2 -1 -2 -25 -8 -51 -17 -79 -18 -108 -1 -108 16 0 32 73 34 149 1 39 0 40
-38 48 -22 5 -41 10 -43 12 -2 1 15 60 38 130 29 91 38 131 30 139 -7 7 -15 1
-24 -24z"/>
<path d="M12382 4935 c2 -14 8 -26 13 -26 6 0 11 12 13 26 2 18 -1 25 -13 25
-12 0 -15 -7 -13 -25z"/>
<path d="M10716 4922 c-7 -12 3 -42 14 -42 18 0 22 22 7 37 -9 9 -17 11 -21 5z"/>
<path d="M11413 4903 c-4 -9 1 -21 12 -29 22 -16 39 -5 30 19 -9 23 -35 29
-42 10z"/>
<path d="M3232 4832 c-89 -92 -129 -219 -87 -279 24 -34 82 -48 144 -34 66 14
121 37 121 51 0 11 -7 10 -109 -16 -58 -15 -96 -10 -123 14 -25 21 -23 92 3
144 40 79 161 186 127 114 -11 -26 -5 -56 11 -56 38 0 56 81 22 100 -37 19
-62 11 -109 -38z"/>
<path d="M5797 4863 c-13 -12 -7 -23 13 -23 11 0 20 7 20 15 0 15 -21 21 -33
8z"/>
<path d="M10944 4850 c-80 -40 -122 -112 -187 -320 -25 -80 -50 -157 -56 -172
-6 -17 -7 -29 -1 -33 28 -17 57 43 110 225 49 168 66 206 115 249 46 40 79 39
83 -4 6 -48 -15 -99 -61 -149 -49 -52 -77 -61 -69 -21 6 33 -24 34 -32 1 -11
-45 6 -63 54 -56 25 3 89 72 115 124 31 63 33 128 5 156 -25 25 -26 25 -76 0z"/>
<path d="M9650 4821 c-19 -15 -42 -26 -51 -24 -12 4 -20 -5 -29 -34 -7 -21
-23 -57 -36 -80 -26 -45 -32 -87 -11 -81 6 3 23 24 35 49 25 47 111 153 119
146 2 -3 -3 -33 -12 -67 -12 -47 -13 -65 -4 -76 14 -17 35 -7 99 45 67 55 70
56 60 22 -16 -57 29 -78 84 -38 31 22 11 40 -25 22 -27 -14 -29 -14 -29 2 0
10 9 38 20 62 18 40 19 61 2 61 -4 0 -25 -16 -47 -36 -76 -68 -126 -107 -131
-102 -3 3 2 33 10 66 9 33 16 67 16 76 0 25 -32 19 -70 -13z"/>
<path d="M7846 4831 c-4 -6 -2 -26 5 -45 9 -26 9 -44 0 -81 -12 -47 -64 -135
-80 -135 -13 0 -21 27 -21 75 0 99 -21 98 -90 -5 -30 -44 -60 -82 -67 -84 -39
-15 14 150 59 185 28 22 16 42 -16 27 -15 -6 -35 -35 -54 -77 -38 -82 -46
-124 -32 -150 23 -44 71 -19 128 67 l37 57 3 -35 c10 -124 76 -118 144 14 28
52 31 157 7 182 -11 11 -19 12 -23 5z"/>
<path d="M6026 4776 c-14 -25 -26 -48 -26 -52 0 -14 -72 -135 -77 -130 -13 13
-31 141 -22 153 7 8 4 15 -11 23 -12 6 -25 9 -28 5 -11 -10 27 -198 43 -214
25 -25 44 -4 101 109 29 56 58 106 65 110 13 9 6 40 -10 40 -5 0 -21 -20 -35
-44z"/>
<path d="M10127 4814 c-4 -4 -7 -15 -7 -24 0 -22 -73 -100 -93 -100 -21 0 -21
-1 -1 56 8 25 12 49 9 52 -11 12 -42 -35 -50 -74 -5 -29 -2 -41 13 -56 18 -18
22 -19 48 -5 32 17 72 57 99 100 16 25 16 30 3 43 -8 8 -17 11 -21 8z"/>
<path d="M4200 4784 c-6 -14 -10 -29 -10 -33 0 -5 -13 -48 -29 -96 -23 -71
-26 -88 -14 -92 7 -3 15 -4 16 -2 1 2 21 44 45 93 24 48 45 86 47 84 2 -2 -2
-26 -10 -53 -17 -55 -19 -95 -6 -95 5 0 33 28 63 62 94 111 113 117 83 28 -9
-28 -14 -61 -11 -74 8 -31 35 -41 55 -21 14 14 14 16 -7 21 -26 7 -26 8 -6 66
19 58 16 112 -9 116 -10 2 -39 -19 -75 -55 l-58 -58 12 54 c18 76 3 92 -44 49
l-25 -23 12 22 c15 28 14 33 -4 33 -9 0 -20 -12 -25 -26z"/>
<path d="M7333 4753 c-71 -70 -96 -130 -73 -174 18 -33 56 -23 111 28 l51 47
-7 -39 c-3 -22 -8 -50 -11 -63 -3 -17 2 -25 21 -34 32 -15 38 -8 24 30 -12 35
1 117 27 166 10 20 11 33 4 40 -7 7 -22 -4 -47 -35 -58 -68 -120 -129 -133
-129 -19 0 -22 28 -5 63 21 45 93 117 117 117 10 0 18 7 18 15 0 32 -48 16
-97 -32z"/>
<path d="M3593 4742 c-68 -68 -92 -152 -55 -185 24 -22 44 -21 92 3 79 40 122
177 68 214 -35 25 -54 19 -105 -32z m95 -26 c9 -71 -81 -166 -127 -137 -32 20
31 140 83 161 31 13 41 7 44 -24z"/>
<path d="M6197 4779 c-31 -18 -87 -117 -87 -155 0 -78 84 -109 183 -67 23 10
37 23 37 34 0 23 -17 33 -27 16 -22 -37 -118 -51 -147 -21 -21 21 -20 53 2 61
9 4 34 17 55 30 30 19 37 29 37 56 0 30 -15 58 -29 57 -4 0 -14 -5 -24 -11z
m23 -43 c0 -8 -14 -25 -32 -37 -33 -24 -30 -11 5 29 24 26 27 27 27 8z"/>
<path d="M4613 4747 c-32 -47 -43 -82 -43 -135 1 -50 12 -72 47 -90 33 -18 51
-15 93 15 60 44 100 109 100 166 0 73 -32 59 -36 -16 -2 -46 -44 -103 -97
-132 -35 -19 -36 -19 -56 -1 -39 35 -18 152 33 195 21 18 20 31 -1 31 -10 0
-28 -15 -40 -33z"/>
<path d="M3867 4740 c-44 -38 -103 -148 -88 -163 13 -13 10 -16 49 53 71 127
123 133 60 6 -14 -27 -17 -41 -9 -49 8 -8 32 12 83 66 66 70 98 92 98 68 0 -4
-10 -20 -21 -35 -18 -23 -20 -31 -10 -52 12 -27 38 -28 33 -2 -1 9 7 37 18 64
18 41 19 50 7 61 -12 12 -19 12 -48 0 -19 -9 -49 -29 -66 -46 l-33 -32 6 29
c4 20 1 34 -11 45 -22 23 -29 22 -68 -13z"/>
<path d="M11315 4686 c-26 -60 -28 -96 -7 -96 8 0 26 46 59 143 3 11 0 17 -10
17 -9 0 -26 -26 -42 -64z"/>
<path d="M11550 4740 c0 -6 -6 -10 -12 -9 -33 5 -78 -43 -78 -84 0 -39 71 -73
118 -56 35 13 17 35 -26 31 -75 -7 -76 55 -2 93 32 17 40 35 15 35 -8 0 -15
-5 -15 -10z"/>
<path d="M11749 4718 c-46 -36 -61 -76 -38 -104 16 -19 37 -18 81 6 l36 19 -9
-31 c-10 -38 -5 -48 26 -48 21 0 23 3 16 28 -4 15 -4 38 0 52 17 60 5 64 -61
20 -50 -33 -70 -38 -70 -15 0 21 50 64 85 73 35 10 36 26 2 30 -15 2 -40 -9
-68 -30z"/>
<path d="M12582 4708 c-24 -57 -47 -156 -37 -166 4 -4 40 28 79 71 39 42 75
77 79 77 3 0 2 -12 -3 -26 -16 -41 -12 -82 11 -105 41 -41 177 -8 187 45 5 22
-16 20 -36 -4 -21 -25 -105 -38 -127 -20 -21 18 -19 47 10 108 20 43 22 54 11
58 -21 8 -53 -12 -113 -69 -57 -53 -65 -50 -33 14 20 38 20 59 0 59 -5 0 -17
-19 -28 -42z"/>
<path d="M5217 4712 c-10 -10 -14 -22 -10 -25 3 -4 -1 -7 -11 -7 -10 0 -24
-17 -36 -46 -24 -54 -25 -77 -5 -94 20 -17 51 -4 100 41 39 36 42 37 37 14 -7
-40 6 -75 29 -75 16 0 18 3 9 19 -6 11 -7 45 -4 80 9 78 -2 79 -73 6 -57 -59
-90 -72 -77 -32 12 39 31 71 58 96 14 14 26 28 26 33 0 15 -27 8 -43 -10z"/>
<path d="M12364 4718 c-47 -12 -94 -71 -94 -118 0 -51 96 -50 155 2 40 35 50
63 36 101 -11 28 -35 31 -97 15z m74 -46 c5 -17 -51 -70 -82 -78 -60 -15 -72
16 -27 65 25 27 35 31 67 28 21 -2 40 -9 42 -15z"/>
<path d="M8543 4706 c-38 -17 -82 -80 -90 -129 -5 -32 -2 -38 20 -48 22 -10
32 -8 70 14 49 29 64 58 69 127 3 39 0 45 -17 47 -11 2 -34 -4 -52 -11z m35
-59 c4 -32 -45 -87 -77 -87 -34 0 -22 40 27 93 31 32 46 30 50 -6z"/>
<path d="M13816 4168 c-16 -56 -29 -94 -60 -168 l-35 -85 -61 -3 c-44 -2 -60
-7 -60 -17 0 -12 14 -15 59 -15 l58 0 -10 -47 c-6 -27 -14 -50 -18 -53 -11 -8
2 -61 15 -57 9 3 20 37 41 135 5 18 10 21 31 16 44 -11 58 -9 62 8 2 13 -5 17
-35 20 -35 3 -38 5 -36 30 1 15 18 63 37 107 35 76 47 141 26 141 -6 0 -12 -6
-14 -12z"/>
<path d="M4029 4123 c-6 -16 -35 -103 -66 -194 -59 -178 -66 -189 -132 -189
-35 0 -43 18 -30 62 11 41 12 38 -6 38 -8 0 -15 9 -15 19 0 25 -26 51 -52 51
-24 0 -80 -58 -104 -108 -16 -35 -16 -36 7 -54 26 -22 58 -18 99 12 l25 19 15
-32 c13 -28 21 -32 58 -35 24 -2 49 2 57 8 9 8 14 6 20 -7 6 -17 8 -16 24 4
16 19 20 20 33 7 25 -25 88 -28 124 -6 34 22 64 76 64 116 0 35 -20 75 -41 81
-26 9 -84 -21 -119 -61 -16 -19 -30 -33 -30 -31 0 5 67 197 89 257 25 65 25
70 6 70 -9 0 -20 -12 -26 -27z m87 -303 c-6 -37 -54 -90 -82 -90 -28 0 -54 20
-54 43 0 24 62 94 95 107 29 12 48 -16 41 -60z m-368 24 c2 -23 -4 -34 -26
-51 -69 -51 -93 -21 -36 45 41 48 58 50 62 6z"/>
<path d="M5096 4131 c-4 -5 -18 -61 -31 -123 -34 -152 -52 -213 -81 -270 -22
-43 -23 -49 -8 -55 9 -3 20 0 25 8 6 10 9 10 9 2 0 -38 106 -14 157 36 57 54
73 141 33 173 -28 22 -51 17 -103 -24 -37 -29 -38 -29 -32 -6 15 58 56 234 58
247 2 17 -19 26 -27 12z m92 -286 c4 -43 -34 -95 -88 -123 l-45 -22 -8 25 c-7
19 -3 35 17 69 49 84 118 112 124 51z"/>
<path d="M6658 4083 c-23 -6 -23 -15 0 -43 23 -28 42 -19 42 21 0 29 -6 32
-42 22z"/>
<path d="M7428 4027 c-4 -42 -17 -90 -41 -145 -45 -101 -72 -201 -59 -214 16
-16 32 1 32 34 0 17 21 82 46 145 58 143 74 243 40 243 -9 0 -15 -21 -18 -63z"/>
<path d="M8952 4027 c-11 -24 -30 -54 -43 -67 -24 -22 -94 -70 -103 -70 -3 0
6 25 20 55 13 31 24 62 24 70 0 22 -19 28 -27 8 -3 -10 -14 -36 -23 -58 -9
-22 -23 -55 -30 -73 -7 -18 -21 -37 -31 -42 -27 -15 -80 -12 -100 6 -10 9 -23
13 -28 9 -34 -20 22 -58 85 -57 38 1 44 -1 40 -16 -6 -20 -36 -151 -36 -158 0
-2 7 -4 15 -4 14 0 25 31 40 110 15 80 25 98 73 126 26 15 57 34 69 41 21 14
20 10 -12 -99 -19 -62 -35 -119 -35 -125 0 -21 24 -15 74 18 26 17 48 30 49
28 2 -2 7 -17 13 -34 6 -20 17 -31 32 -33 25 -4 29 10 7 28 -8 7 -15 26 -15
42 0 40 -22 45 -74 14 l-44 -26 20 73 c11 39 31 104 45 142 30 85 39 135 25
135 -6 0 -20 -20 -30 -43z"/>
<path d="M9464 4048 c-5 -7 -9 -15 -10 -18 0 -3 -8 -29 -17 -59 -9 -30 -17
-67 -17 -83 0 -22 -6 -29 -27 -34 -40 -10 -45 -14 -33 -29 6 -7 20 -11 30 -8
20 5 21 4 22 -87 1 -3 -2 -17 -6 -32 -5 -21 -3 -28 8 -28 24 0 31 21 31 95 0
54 3 70 15 72 102 13 125 33 39 33 l-51 0 7 43 c4 23 14 61 22 85 11 30 13 46
6 53 -8 8 -13 7 -19 -3z"/>
<path d="M13590 4048 c0 -7 5 -20 10 -28 12 -20 33 0 24 23 -7 20 -34 23 -34
5z"/>
<path d="M7607 4043 c-11 -10 -8 -61 3 -68 6 -3 14 5 20 19 14 37 -2 70 -23
49z"/>
<path d="M11727 3951 c-54 -36 -117 -128 -117 -171 0 -35 44 -70 87 -70 51 0
81 9 87 26 5 13 -4 14 -53 8 -52 -6 -60 -4 -73 15 -9 12 -13 33 -10 48 7 37
102 133 131 133 14 0 21 5 19 13 -7 19 -41 19 -71 -2z"/>
<path d="M12913 3941 c-63 -30 -88 -57 -77 -85 9 -23 23 -20 34 9 16 41 130
87 130 52 0 -18 -48 -83 -94 -126 -37 -36 -46 -61 -22 -61 8 0 38 20 68 44
l53 45 6 -31 c9 -41 39 -69 75 -70 40 -1 108 43 123 79 17 42 11 158 -9 158
-12 0 -14 -13 -12 -68 4 -67 3 -68 -33 -102 -58 -55 -119 -39 -114 29 3 36 -7
59 -23 50 -6 -4 -6 1 1 14 20 37 14 72 -15 82 -14 6 -26 10 -27 10 -1 0 -30
-13 -64 -29z"/>
<path d="M7212 3930 c-17 -11 -37 -29 -44 -40 -7 -11 -18 -20 -25 -20 -18 0
-54 -77 -93 -195 -18 -55 -41 -117 -51 -137 -22 -43 -25 -71 -6 -66 15 5 50
74 77 154 11 34 28 70 36 80 14 18 15 18 5 -2 -16 -34 11 -52 44 -30 55 36
133 191 121 240 -8 33 -28 38 -64 16z m34 -47 c-9 -38 -52 -122 -81 -157 l-24
-30 -12 26 c-10 22 -8 33 16 76 49 91 115 146 101 85z"/>
<path d="M5398 3893 c-72 -78 -83 -127 -36 -157 21 -13 98 16 136 52 l28 27
15 -29 c17 -35 56 -51 105 -42 55 11 43 34 -17 34 -62 0 -71 10 -63 75 6 39 4
47 -10 47 -9 0 -20 -10 -25 -22 -21 -53 -130 -127 -160 -109 -10 7 -10 14 3
38 26 51 68 96 76 82 11 -18 30 -1 30 27 0 39 -32 30 -82 -23z"/>
<path d="M4533 3919 c-23 -7 -33 -16 -33 -29 0 -22 26 -28 33 -7 2 8 26 12 70
12 44 0 67 4 67 11 0 25 -74 31 -137 13z"/>
<path d="M7713 3910 c-17 -10 -40 -34 -52 -54 -13 -20 -34 -39 -47 -42 -25 -6
-34 -34 -11 -34 9 0 12 -11 9 -33 -6 -53 15 -63 100 -49 38 7 78 17 89 22 29
16 23 33 -8 26 -80 -18 -145 -28 -149 -23 -3 3 -3 20 1 37 5 25 18 36 65 60
58 29 76 53 64 83 -9 24 -29 27 -61 7z m32 -30 c-3 -5 -16 -15 -28 -21 -22
-12 -22 -12 -3 10 19 21 43 30 31 11z"/>
<path d="M8047 3919 c-58 -14 -77 -27 -77 -55 0 -25 20 -76 42 -106 10 -14 8
-21 -12 -43 -16 -17 -33 -25 -49 -23 -33 4 -38 -19 -7 -33 22 -10 30 -8 61 16
58 43 63 65 26 115 -52 72 -39 92 72 108 62 9 77 32 20 31 -21 -1 -55 -5 -76
-10z"/>
<path d="M13306 3905 c-17 -26 -56 -120 -56 -135 0 -16 26 -11 41 6 8 9 13 26
11 38 -1 12 7 36 18 55 19 30 24 33 53 26 51 -11 60 -11 64 2 4 12 -54 33 -93
33 -12 0 -29 -11 -38 -25z"/>
<path d="M10785 3864 c-44 -63 -137 -144 -166 -144 -19 0 -37 -25 -26 -37 12
-11 59 8 54 21 -4 10 0 12 14 9 10 -3 19 0 19 6 0 6 5 11 12 11 6 0 21 9 33
20 l21 20 -3 -33 c-2 -17 1 -38 6 -46 14 -21 84 12 121 57 l29 35 15 -36 c17
-41 53 -56 92 -38 34 15 30 32 -6 25 -39 -8 -59 9 -66 57 -4 22 -12 39 -19 39
-6 0 -37 -25 -67 -55 -30 -30 -61 -55 -68 -55 -18 0 -4 45 31 103 58 94 35
130 -26 41z"/>
<path d="M11907 3889 c-47 -31 -65 -64 -53 -95 5 -12 16 -15 49 -12 23 3 50 8
60 12 15 7 17 2 17 -33 0 -44 15 -59 46 -47 16 6 16 8 0 24 -22 25 -20 60 4
100 31 51 22 86 -11 45 -41 -49 -139 -95 -139 -64 0 19 62 61 91 61 33 0 38
14 10 30 -26 13 -21 15 -74 -21z"/>
<path d="M6586 3839 c-30 -80 -34 -139 -11 -139 10 0 15 10 15 29 0 17 11 61
25 99 29 81 29 82 11 82 -8 0 -25 -30 -40 -71z"/>
<path d="M12154 3893 c-3 -10 -21 -54 -40 -98 -54 -126 -43 -140 34 -42 27 34
59 71 71 81 l21 19 -6 -91 c-5 -67 -4 -92 5 -92 6 0 14 0 17 0 11 0 15 208 4
215 -12 8 -57 -19 -82 -49 -17 -20 -17 -19 -4 21 8 22 12 44 9 47 -11 11 -24
6 -29 -11z"/>
<path d="M13980 3891 c-19 -11 -45 -31 -57 -45 -13 -14 -32 -26 -43 -26 -11 0
-20 -7 -20 -15 0 -8 9 -15 20 -15 16 0 20 -7 20 -31 0 -25 6 -32 36 -45 30
-13 48 -13 110 -3 65 10 106 30 92 44 -3 3 -40 -2 -83 -11 -58 -12 -84 -13
-101 -5 -32 14 -33 58 -1 70 81 32 107 46 112 62 14 42 -26 51 -85 20z m30
-25 c0 -2 -7 -7 -16 -10 -8 -3 -12 -2 -9 4 6 10 25 14 25 6z"/>
<path d="M10365 3886 c-6 -7 -39 -55 -74 -107 -53 -77 -66 -90 -71 -74 -4 11
-1 40 6 65 19 62 18 120 -1 120 -10 0 -15 -10 -15 -33 0 -18 -7 -54 -16 -79
-12 -36 -13 -55 -5 -84 10 -37 9 -41 -55 -135 -67 -100 -84 -150 -51 -157 12
-2 17 3 17 20 0 46 109 208 140 208 24 0 53 39 40 55 -10 12 36 87 96 159 32
38 36 56 11 56 -7 0 -17 -6 -22 -14z"/>
<path d="M10504 3857 c-54 -55 -94 -110 -94 -130 0 -22 28 -47 53 -47 11 0 41
10 65 21 54 27 72 63 61 122 -5 23 -8 45 -9 49 0 4 -8 12 -18 17 -13 7 -26 0
-58 -32z m56 -56 c0 -43 -18 -64 -69 -82 -69 -24 -59 21 24 103 34 34 45 28
45 -21z"/>
<path d="M6790 3873 c-58 -41 -82 -72 -87 -114 -5 -33 -3 -41 8 -37 8 2 15 15
17 27 4 25 82 111 100 111 17 0 15 -25 -4 -62 -26 -50 -3 -57 49 -14 l44 36
12 -26 c9 -20 17 -25 38 -22 17 2 29 10 31 21 3 13 -2 16 -20 15 -21 -3 -23 0
-20 35 4 45 -13 49 -48 12 -30 -32 -38 -31 -42 3 -4 34 -41 41 -78 15z"/>
<path d="M7501 3868 c-5 -13 -20 -53 -35 -91 -30 -77 -31 -87 -13 -87 14 0 59
100 71 157 9 37 -10 55 -23 21z"/>
<path d="M13462 3834 c-13 -19 -22 -45 -20 -57 4 -28 34 -30 31 -2 -1 11 9 34
22 51 13 17 21 34 18 38 -14 13 -29 4 -51 -30z"/>
<path d="M9156 3817 c-38 -47 -60 -93 -52 -114 7 -18 56 -16 78 4 17 15 18 15
18 -9 0 -30 22 -51 47 -46 25 5 31 40 6 36 -20 -3 -22 15 -8 65 10 37 -14 36
-58 -3 -19 -16 -37 -30 -41 -30 -15 0 -3 31 29 73 57 75 41 97 -19 24z"/>
<path d="M4540 3836 c-3 -2 -19 -6 -35 -9 -17 -2 -31 -11 -33 -19 -3 -14 9
-15 85 -11 99 5 121 10 107 22 -10 11 -116 25 -124 17z"/>
<path d="M4991 3618 c-5 -13 -22 -57 -39 -98 -16 -41 -34 -88 -39 -105 -7 -22
-19 -32 -46 -40 -43 -12 -44 -30 -1 -29 l31 1 -9 -46 c-5 -25 -13 -53 -18 -62
-10 -18 -4 -29 16 -29 6 0 17 24 24 53 22 95 10 85 114 103 l39 7 -7 -39 c-25
-132 -25 -144 0 -144 9 0 14 12 14 36 0 20 7 61 16 92 16 53 15 56 -2 69 -21
15 -53 16 -106 4 -49 -12 -49 -4 7 129 24 58 41 108 39 112 -9 15 -25 8 -33
-14z"/>
<path d="M4092 3548 c-25 -28 -70 -121 -78 -166 -7 -36 -27 -48 -98 -60 -22
-4 -41 -13 -44 -21 -4 -11 6 -13 44 -9 27 3 56 9 66 13 17 7 16 2 -7 -103 -3
-12 -17 -27 -30 -32 -28 -11 -32 -25 -10 -34 37 -14 68 29 84 119 6 32 15 63
21 69 5 5 34 11 64 14 l56 4 -30 -53 c-35 -64 -37 -79 -10 -79 11 0 20 7 20
15 0 45 74 139 115 147 11 2 19 8 18 13 -4 19 -46 17 -74 -4 -23 -17 -33 -19
-55 -11 -17 7 -38 7 -62 0 -20 -5 -37 -8 -39 -6 -7 6 29 99 50 133 17 26 27
32 44 28 29 -7 41 14 18 32 -26 18 -38 16 -63 -9z"/>
<path d="M5217 3555 c-9 -21 2 -45 20 -45 10 0 13 9 11 27 -3 30 -23 41 -31
18z"/>
<path d="M2545 3438 c-75 -88 -95 -168 -42 -168 27 0 58 20 110 69 l38 36 -16
-38 c-15 -36 -13 -57 4 -57 4 0 38 29 76 65 39 35 73 65 78 65 12 0 8 -43 -8
-74 -12 -22 -12 -32 -4 -42 16 -20 39 -17 37 4 -1 9 2 34 6 54 21 95 -24 116
-101 46 -27 -25 -44 -35 -40 -25 4 11 10 30 14 44 5 23 3 25 -15 21 -14 -4
-28 2 -43 18 -32 34 -52 30 -94 -18z m79 -12 c15 -23 14 -25 -24 -59 -76 -69
-115 -85 -89 -35 19 37 80 118 89 118 4 0 15 -11 24 -24z"/>
<path d="M2943 3465 c-7 -20 13 -82 35 -107 19 -22 55 -23 72 -3 34 41 23 5
-26 -89 -54 -104 -67 -160 -44 -196 14 -22 24 -3 21 40 -2 31 9 61 54 149 31
60 67 126 81 146 30 45 30 57 2 53 -13 -2 -22 -9 -20 -16 1 -6 -1 -11 -5 -11
-20 3 -34 -2 -28 -11 3 -5 0 -10 -8 -10 -8 0 -22 -9 -32 -20 -10 -11 -24 -20
-32 -20 -15 0 -33 40 -36 79 -3 29 -24 39 -34 16z"/>
<path d="M6595 3445 c-31 -31 -31 -59 0 -110 31 -51 32 -89 3 -109 -25 -18
-68 -21 -68 -6 0 6 -7 10 -15 10 -16 0 -19 -9 -9 -34 8 -21 65 -21 103 -1 17
8 34 28 40 47 10 29 8 39 -19 91 -35 66 -33 94 8 103 46 10 53 14 47 24 -12
19 -65 11 -90 -15z"/>
<path d="M4664 3389 c-22 -16 -45 -37 -51 -46 -20 -26 -16 -77 7 -98 24 -22
109 -32 139 -16 32 18 15 32 -29 25 -52 -9 -100 11 -100 40 0 23 48 75 88 95
12 7 22 16 22 21 0 20 -38 9 -76 -21z"/>
<path d="M6324 3401 c-39 -24 -94 -106 -94 -141 0 -49 47 -65 100 -35 33 19
35 19 48 -10 7 -15 20 -25 32 -25 21 0 27 15 10 25 -18 11 -10 56 16 91 17 22
24 40 19 51 -5 15 -13 10 -48 -30 -49 -56 -93 -87 -124 -87 -40 0 -26 48 30
108 31 32 62 42 69 20 4 -12 28 -3 28 12 0 13 -30 40 -43 40 -7 0 -26 -9 -43
-19z"/>
<path d="M5449 3363 c-19 -25 -40 -54 -47 -64 -15 -20 -8 -39 14 -39 7 0 35
15 61 34 27 18 63 41 81 50 l32 17 -6 -38 c-4 -29 -1 -44 13 -62 17 -20 24
-22 66 -16 52 8 104 42 89 57 -6 6 -18 5 -33 -5 -36 -23 -86 -31 -96 -15 -4 7
-8 33 -8 58 0 59 -21 62 -99 15 -54 -32 -61 -24 -12 16 19 17 15 39 -8 39 -7
0 -28 -21 -47 -47z"/>
<path d="M4347 3365 c-102 -78 -59 -153 52 -90 52 30 51 30 51 4 0 -37 19 -59
50 -59 20 0 30 5 30 15 0 8 -9 15 -20 15 -29 0 -34 21 -16 64 22 53 3 55 -80
6 -38 -22 -74 -40 -81 -40 -28 0 -7 32 50 74 20 16 37 32 37 37 0 18 -29 8
-73 -26z"/>
<path d="M5263 3337 c-58 -51 -39 -112 34 -109 53 2 83 26 83 65 0 76 -56 97
-117 44z m87 -42 c0 -25 -17 -35 -61 -35 -34 0 -40 27 -11 52 38 34 72 26 72
-17z"/>
<path d="M8192 2818 c0 -13 -11 -58 -26 -100 -30 -87 -33 -118 -11 -118 8 0
15 7 15 15 0 8 14 58 31 110 16 52 27 100 24 105 -12 19 -35 10 -33 -12z"/>
<path d="M10041 2721 c-34 -62 -54 -135 -60 -211 l-6 -85 -93 -9 c-76 -7 -100
-6 -132 7 -44 17 -67 4 -35 -19 32 -24 87 -28 205 -15 83 9 123 10 143 2 37
-14 47 -14 47 3 0 15 -49 36 -83 36 -18 0 -19 5 -15 78 3 56 13 97 35 149 17
40 28 74 25 78 -10 10 -21 5 -31 -14z"/>
<path d="M5681 2615 c-56 -52 -98 -123 -88 -150 9 -23 54 -15 105 20 20 14 39
25 42 25 3 0 4 -15 2 -33 -5 -41 29 -87 64 -87 31 0 32 27 2 32 -40 5 -46 49
-15 107 14 28 22 53 18 56 -5 2 -42 -17 -82 -43 -73 -48 -109 -66 -109 -56 0
11 59 90 84 114 23 21 30 22 46 12 26 -16 30 -15 30 8 0 17 -26 40 -45 40 -3
0 -28 -20 -54 -45z"/>
<path d="M8220 2567 c-47 -4 -137 -9 -200 -11 -63 -2 -117 -4 -119 -5 -2 0 2
-7 8 -15 13 -16 73 -16 321 -2 139 8 158 12 144 26 -14 14 -58 17 -154 7z"/>
<path d="M9179 2545 c-3 -2 -32 -6 -65 -8 -50 -3 -59 -6 -59 -23 0 -13 6 -18
20 -16 11 1 52 7 90 12 39 6 89 7 113 4 45 -7 57 7 23 26 -20 10 -113 14 -122
5z"/>
<path d="M10425 2494 c-89 -46 -153 -167 -99 -188 18 -7 61 9 99 38 55 41 58
42 50 7 -5 -22 -2 -39 10 -58 16 -24 21 -25 77 -20 35 3 67 12 76 21 23 23 9
29 -35 17 -53 -15 -90 -14 -96 4 -7 17 19 112 39 140 26 37 7 50 -28 18 -17
-15 -18 -15 -18 4 0 18 -18 33 -38 33 -4 0 -20 -7 -37 -16z m51 -31 c7 -10 14
-21 14 -25 0 -13 -123 -98 -143 -98 -18 0 -18 2 4 39 21 34 91 101 107 101 3
0 11 -8 18 -17z"/>
<path d="M7643 2462 c-25 -4 -103 -70 -134 -113 -33 -47 -40 -85 -20 -110 l17
-22 45 20 c24 11 65 36 92 56 l47 37 0 -29 c0 -36 23 -61 55 -61 34 0 56 10
48 23 -4 6 0 8 10 4 8 -3 21 0 27 8 18 22 -5 27 -43 9 -70 -34 -87 11 -42 112
29 65 30 74 12 74 -8 0 -19 -12 -26 -27 -11 -24 -14 -26 -22 -10 -13 22 -39
34 -66 29z m44 -48 c14 -14 11 -20 -32 -64 -50 -50 -129 -100 -141 -88 -15 16
11 64 62 114 57 56 84 65 111 38z"/>
<path d="M6540 2450 c-14 -4 -46 -8 -72 -9 -37 -1 -48 -5 -48 -17 0 -14 9 -15
63 -10 167 15 188 19 184 30 -4 13 -92 18 -127 6z"/>
<path d="M9215 2435 c-103 -27 -165 -55 -165 -76 0 -19 15 -26 24 -10 9 14
122 53 176 60 28 3 51 10 51 16 1 18 -37 22 -86 10z"/>
<path d="M8132 2407 c-5 -6 -9 -19 -10 -27 0 -8 -16 -59 -36 -113 -32 -88 -35
-102 -24 -125 28 -59 123 -31 155 45 26 64 -10 105 -71 79 l-34 -14 24 59 c25
62 30 94 15 103 -5 3 -13 0 -19 -7z m62 -175 c8 -13 -25 -72 -46 -83 -29 -16
-49 -4 -45 27 5 41 74 83 91 56z"/>
<path d="M6580 2353 c-94 -9 -172 -26 -177 -39 -9 -24 1 -25 68 -9 35 8 99 15
141 15 42 0 80 5 83 10 10 16 -52 29 -115 23z"/>
<path d="M10810 2301 c0 -24 18 -37 32 -23 8 8 7 16 -2 27 -17 21 -30 19 -30
-4z"/>
<path d="M5795 2294 c-49 -7 -168 -13 -263 -12 -169 1 -201 -4 -172 -22 23
-15 338 -12 457 5 59 8 123 16 142 17 19 2 36 9 39 16 5 16 -79 14 -203 -4z"/>
<path d="M9875 2238 c-27 -79 -76 -261 -78 -288 -2 -33 0 -35 32 -38 65 -6
184 99 184 164 0 57 -42 68 -109 29 l-42 -25 23 77 c13 42 22 80 19 85 -8 12
-24 10 -29 -4z m105 -163 c0 -14 -15 -41 -34 -63 -37 -40 -101 -80 -112 -70
-12 13 17 75 49 105 60 57 97 68 97 28z"/>
<path d="M5605 2084 c-42 -105 -55 -128 -82 -145 -27 -17 -33 -27 -33 -55 0
-46 26 -69 93 -84 74 -17 103 -2 140 69 30 61 34 93 12 111 -19 16 -69 -1
-124 -40 l-41 -30 29 78 c16 42 41 104 55 137 29 68 32 85 13 85 -7 0 -35 -55
-62 -126z m115 -140 c0 -3 -9 -27 -21 -53 -23 -54 -53 -74 -99 -64 -39 7 -46
20 -24 44 41 46 144 98 144 73z"/>
</g>
</svg>
