<?xml version="1.0" standalone="no"?>
<!DOCTYPE svg PUBLIC "-//W3C//DTD SVG 20010904//EN"
 "http://www.w3.org/TR/2001/REC-SVG-20010904/DTD/svg10.dtd">
<svg version="1.0" xmlns="http://www.w3.org/2000/svg"
 width="1617.000000pt" height="1213.000000pt" viewBox="0 0 1617.000000 1213.000000"
 preserveAspectRatio="xMidYMid meet">

<g transform="translate(0.000000,1213.000000) scale(0.100000,-0.100000)"
fill="#000000" stroke="none">
<path d="M13275 11614 c-23 -48 -85 -266 -85 -298 0 -16 6 -26 15 -26 8 0 15
9 15 20 0 45 72 275 89 288 12 8 17 21 14 33 -8 30 -29 23 -48 -17z"/>
<path d="M13476 11581 c-57 -61 -126 -185 -126 -228 0 -26 25 -53 48 -53 27 0
97 44 100 63 6 29 -17 47 -59 47 -22 0 -39 3 -39 6 0 19 63 107 112 156 32 31
58 59 58 62 0 3 -8 6 -18 6 -11 0 -44 -27 -76 -59z m-12 -212 c-9 -15 -64 -40
-74 -34 -10 6 -14 38 -6 46 9 9 86 -3 80 -12z"/>
<path d="M14349 11589 c-13 -28 -34 -58 -46 -67 -13 -8 -22 -20 -21 -27 5 -22
-55 -116 -72 -113 -26 5 -23 52 4 85 14 17 22 33 18 37 -4 4 -1 6 7 4 8 -1 17
5 19 15 6 29 -13 19 -57 -28 -47 -51 -54 -95 -21 -130 l21 -22 -46 -91 c-25
-50 -45 -94 -45 -97 0 -3 -9 -14 -20 -25 -20 -20 -28 -46 -11 -35 5 3 12 1 16
-5 13 -22 33 -8 38 27 4 20 28 78 54 129 44 88 49 94 82 100 115 18 150 68 96
132 l-25 29 30 54 c33 59 37 79 17 79 -8 0 -24 -23 -38 -51z m11 -164 c0 -19
-25 -35 -65 -42 l-37 -6 33 53 32 53 19 -23 c10 -12 18 -28 18 -35z"/>
<path d="M14783 11633 c-50 -3 -63 -7 -63 -20 0 -14 13 -15 111 -9 l111 6 -52
-58 c-51 -58 -53 -59 -96 -54 -35 4 -44 1 -44 -11 0 -9 13 -17 35 -21 l35 -7
-25 -50 c-24 -46 -26 -69 -6 -69 5 0 23 29 40 65 l32 64 72 3 c86 4 92 21 11
28 l-57 5 48 53 c75 83 66 87 -152 75z"/>
<path d="M12624 11603 c-4 -10 -24 -59 -45 -108 -41 -94 -46 -123 -29 -156 18
-33 27 -21 34 41 7 59 38 149 56 160 14 9 16 73 3 77 -7 3 -16 -4 -19 -14z"/>
<path d="M14575 11534 c-9 -42 -25 -101 -36 -132 -10 -30 -19 -63 -19 -74 0
-26 27 -22 33 5 2 12 16 60 30 107 36 122 43 170 24 170 -10 0 -20 -23 -32
-76z"/>
<path d="M12803 11593 c-7 -2 -13 -11 -13 -18 0 -10 13 -12 54 -8 34 3 56 1
60 -5 13 -22 -27 -78 -115 -163 -88 -85 -108 -122 -75 -135 8 -3 41 1 73 10
32 9 69 17 82 18 14 2 26 9 29 16 5 17 -61 16 -122 -3 l-50 -15 25 26 c13 15
53 54 88 88 60 58 101 119 101 150 0 29 -30 46 -78 45 -26 0 -53 -3 -59 -6z"/>
<path d="M13922 11580 c-38 -23 -61 -65 -45 -81 8 -8 16 -2 29 21 27 44 94 55
94 15 0 -28 -65 -119 -124 -173 -32 -28 -56 -58 -53 -65 3 -9 31 -11 108 -8
57 1 107 5 112 8 24 15 -4 23 -80 23 l-87 0 48 48 c53 52 106 135 106 168 0
47 -61 72 -108 44z"/>
<path d="M2668 11583 c-10 -2 -18 -11 -18 -19 0 -19 30 -30 40 -15 4 7 22 11
41 9 45 -4 49 -30 10 -69 -39 -38 -39 -49 -1 -49 39 0 73 -33 65 -63 -10 -33
-52 -67 -84 -67 -28 0 -91 44 -91 64 0 6 5 4 10 -4 5 -8 10 -10 10 -4 0 18
-13 24 -27 13 -14 -12 -18 -49 -5 -49 4 0 12 -10 17 -22 7 -17 21 -24 52 -29
71 -9 136 34 149 99 5 27 1 37 -28 66 -28 28 -32 37 -23 48 45 47 13 99 -57
97 -24 -1 -51 -3 -60 -6z"/>
<path d="M2336 11558 c-2 -7 -18 -59 -35 -116 -18 -56 -33 -114 -33 -130 -1
-43 12 -90 27 -95 19 -8 26 3 15 23 -13 24 3 139 29 214 23 64 27 116 11 116
-6 0 -12 -6 -14 -12z"/>
<path d="M15075 11341 c-106 -27 -245 -142 -316 -261 -51 -86 -69 -141 -69
-209 1 -102 47 -168 153 -217 117 -53 225 -67 339 -43 76 16 202 81 278 142
56 46 67 60 87 117 20 55 23 81 21 175 -4 149 -5 151 -177 233 -125 60 -142
65 -211 68 -41 2 -89 0 -105 -5z m113 -50 c102 -2 134 -12 157 -49 22 -35 50
-44 42 -12 -4 17 3 15 64 -15 60 -31 69 -39 78 -72 14 -50 14 -168 0 -235 -9
-46 -19 -61 -75 -115 -72 -70 -191 -134 -284 -154 -114 -24 -257 4 -364 71
-138 88 -107 290 74 470 73 73 142 117 204 130 20 4 32 2 34 -6 2 -7 27 -12
70 -13z"/>
<path d="M14989 11163 c-1 -5 0 -18 1 -30 0 -12 -22 -74 -50 -138 -42 -94 -49
-119 -40 -130 18 -22 30 -18 30 10 0 14 20 69 44 123 40 89 50 124 47 160 -1
13 -30 17 -32 5z"/>
<path d="M15141 11124 c-26 -11 -32 -17 -23 -26 9 -9 20 -9 45 0 46 17 77 15
77 -3 0 -9 -34 -52 -75 -96 -118 -126 -103 -157 78 -160 59 -1 111 1 114 4 17
18 -18 27 -107 27 -151 0 -159 8 -77 90 28 30 62 67 75 84 26 35 29 81 6 90
-27 10 -77 6 -113 -10z"/>
<path d="M13582 11324 c2 -11 11 -20 22 -22 13 -3 17 1 14 14 -2 11 -11 20
-22 22 -13 3 -17 -1 -14 -14z"/>
<path d="M12990 11295 c0 -19 36 -39 45 -25 8 13 -13 40 -31 40 -8 0 -14 -7
-14 -15z"/>
<path d="M3566 11263 c-3 -21 -11 -92 -16 -158 -6 -66 -16 -154 -23 -195 l-12
-75 -30 80 c-17 44 -51 140 -75 213 -41 121 -60 151 -68 109 -2 -9 4 -31 12
-49 9 -18 33 -85 55 -148 44 -132 77 -219 90 -239 33 -52 82 100 96 299 10
136 1 126 99 125 54 0 89 4 97 12 21 21 1 28 -76 28 -55 1 -78 5 -93 18 -31
28 -50 21 -56 -20z"/>
<path d="M2400 11275 c0 -8 7 -15 15 -15 8 0 15 7 15 15 0 8 -7 15 -15 15 -8
0 -15 -7 -15 -15z"/>
<path d="M5005 11269 c-4 -6 -5 -13 -2 -15 3 -3 -1 -29 -9 -57 -8 -29 -14 -72
-14 -97 0 -25 -7 -93 -16 -152 -18 -124 -16 -161 8 -166 15 -3 17 4 15 50 -2
60 17 234 38 353 8 44 15 83 15 88 0 11 -28 8 -35 -4z"/>
<path d="M4680 11138 c0 -40 -7 -120 -15 -177 -17 -117 -14 -127 40 -137 25
-4 49 1 89 19 82 38 98 90 36 122 -37 19 -63 19 -100 0 l-29 -15 2 127 c2 93
-1 127 -10 130 -10 4 -13 -14 -13 -69z m137 -203 c12 -9 20 -22 17 -29 -8 -22
-100 -57 -129 -50 -14 3 -25 8 -25 11 0 27 67 83 100 83 9 0 25 -7 37 -15z"/>
<path d="M4255 11120 c-8 -12 16 -50 32 -50 16 0 17 15 3 41 -12 21 -25 25
-35 9z"/>
<path d="M5502 11075 c-46 -20 -39 -44 23 -75 83 -41 98 -55 86 -78 -17 -31
-64 -46 -111 -34 -48 12 -62 -1 -33 -29 38 -39 156 4 177 64 13 35 -8 58 -83
93 -48 23 -53 28 -36 35 11 4 32 8 48 8 17 1 27 6 27 16 0 20 -53 19 -98 0z"/>
<path d="M5184 11025 c-27 -14 -63 -38 -80 -54 -26 -23 -30 -34 -26 -62 6 -42
26 -66 63 -74 33 -7 139 12 139 25 0 5 6 7 14 4 8 -3 19 3 25 15 16 30 14 33
-16 17 -47 -23 -136 -38 -166 -27 -44 17 -35 48 16 61 62 15 127 48 134 67 4
10 -2 23 -16 35 -29 23 -27 23 -87 -7z m66 -20 c0 -8 -92 -46 -98 -41 -7 7 61
46 81 46 9 0 17 -2 17 -5z"/>
<path d="M3782 11014 c-29 -20 -64 -89 -60 -117 5 -34 37 -31 98 7 l55 35 3
-60 c3 -50 7 -62 28 -76 19 -12 28 -13 37 -4 8 8 6 15 -11 27 -18 13 -22 25
-22 72 0 103 -64 161 -128 116z m72 -27 c17 -13 14 -17 -39 -50 -33 -20 -60
-35 -62 -33 -8 7 17 55 38 75 27 24 38 26 63 8z"/>
<path d="M4052 11013 c-16 -6 -72 -120 -72 -145 0 -12 8 -18 25 -18 21 0 24 4
19 28 -3 17 4 41 19 67 22 37 26 40 65 38 43 -2 51 4 30 25 -12 12 -62 15 -86
5z"/>
<path d="M4385 10978 c-35 -19 -73 -59 -86 -90 -10 -25 -9 -32 4 -45 15 -15
20 -15 61 1 25 10 61 28 81 41 l35 24 0 -35 c0 -65 38 -97 70 -59 12 15 10 17
-20 19 -19 1 -24 44 -11 93 13 46 0 64 -27 40 -18 -16 -20 -16 -37 3 -20 22
-40 25 -70 8z m53 -30 c7 -7 12 -15 12 -19 0 -10 -69 -50 -102 -60 -28 -8 -28
-7 -13 21 12 23 68 69 86 70 3 0 10 -5 17 -12z"/>
<path d="M4200 10934 c-15 -37 -12 -80 5 -94 8 -7 15 -11 16 -9 0 2 2 32 4 67
4 65 -8 82 -25 36z"/>
<path d="M11283 10500 c-69 -41 -108 -94 -159 -210 -47 -106 -53 -115 -80
-118 -69 -7 -174 -35 -174 -46 0 -19 12 -27 24 -17 12 9 117 31 148 31 23 0
20 -15 -22 -107 -18 -38 -35 -63 -44 -63 -21 0 -21 -19 -1 -27 26 -9 52 25 91
118 20 49 42 89 48 89 6 0 29 3 50 7 l39 6 -30 -44 c-58 -85 -48 -126 29 -117
62 7 101 28 112 61 13 35 -13 142 -35 142 -16 0 -16 -12 2 -78 12 -44 12 -49
-6 -67 -11 -10 -39 -22 -62 -26 -38 -6 -43 -4 -43 13 0 11 18 43 40 73 22 29
37 57 33 63 -3 5 -32 7 -69 4 -72 -5 -71 -16 -12 113 53 116 145 209 177 177
15 -15 34 4 25 26 -8 23 -42 21 -81 -3z"/>
<path d="M7187 10474 c-8 -16 -29 -79 -47 -139 -17 -61 -47 -147 -65 -191 -36
-87 -47 -139 -29 -139 6 0 46 42 90 93 43 52 80 89 82 83 2 -5 -1 -27 -7 -48
-15 -52 -14 -116 2 -137 13 -18 53 -19 48 -2 -2 5 3 13 11 18 9 6 6 8 -12 6
-24 -3 -25 -1 -24 47 1 28 5 74 9 102 7 46 5 53 -11 60 -14 5 -32 -9 -80 -61
l-62 -68 28 78 c62 171 101 307 91 317 -6 6 -15 -1 -24 -19z"/>
<path d="M5718 10444 c-3 -3 -4 -22 -1 -43 4 -31 -5 -61 -49 -162 -91 -206
-108 -279 -65 -287 16 -3 17 1 12 30 -7 35 33 149 104 298 30 64 37 102 25
148 -6 22 -15 27 -26 16z"/>
<path d="M7673 10438 c-6 -7 -15 -26 -21 -43 -6 -16 -31 -79 -57 -140 -67
-158 -93 -297 -62 -324 20 -16 39 6 24 29 -8 14 -8 36 2 87 11 61 28 108 116
322 17 39 23 67 17 73 -5 5 -13 4 -19 -4z"/>
<path d="M7982 10427 c-6 -6 -29 -75 -52 -152 -23 -77 -51 -157 -61 -177 -25
-50 -72 -102 -116 -129 -29 -18 -37 -19 -44 -8 -11 17 -3 62 19 108 20 41 93
102 99 84 8 -24 33 -14 33 12 0 36 -23 41 -67 14 -56 -34 -91 -78 -110 -137
-18 -57 -12 -96 18 -115 30 -19 102 25 157 97 l22 29 0 -27 c0 -29 16 -66 34
-78 21 -14 53 -8 91 18 28 19 45 23 67 19 54 -12 200 35 169 55 -7 4 -37 -1
-68 -12 -53 -17 -93 -23 -93 -14 0 2 16 27 35 56 46 69 70 159 46 174 -9 6
-86 -71 -115 -116 -10 -15 -21 -48 -24 -73 -6 -41 -12 -50 -45 -69 -37 -21
-38 -21 -52 -2 -31 41 -14 141 50 307 35 91 43 133 26 143 -5 3 -13 0 -19 -7z
m148 -262 c-18 -46 -49 -101 -64 -114 -36 -30 -8 45 37 100 17 21 33 39 34 39
1 0 -2 -11 -7 -25z"/>
<path d="M14635 10420 c-3 -5 -4 -10 -1 -10 2 0 1 -12 -4 -27 -5 -16 -31 -100
-59 -188 -28 -88 -51 -163 -51 -167 0 -5 7 -8 15 -8 8 0 15 -4 15 -9 0 -19 44
-19 79 -1 47 25 62 39 84 73 55 86 -16 155 -94 90 l-32 -27 8 25 c4 13 22 72
41 130 19 58 34 111 34 117 0 15 -26 16 -35 2z m63 -281 c4 -30 -28 -73 -69
-95 -25 -13 -32 -13 -49 -1 -20 14 -19 15 9 54 53 74 103 93 109 42z"/>
<path d="M3807 10313 c-4 -3 -7 -36 -7 -72 0 -36 -7 -111 -15 -166 -8 -55 -15
-103 -15 -107 0 -14 31 -8 36 7 4 8 10 12 15 9 5 -3 7 1 4 8 -6 17 69 71 93
66 10 -2 18 -14 20 -31 3 -22 -6 -37 -36 -67 -44 -45 -69 -51 -68 -19 1 31
-20 35 -28 5 -17 -67 41 -77 105 -18 52 46 71 86 57 121 -18 49 -63 55 -114
16 -40 -31 -46 -31 -39 -2 9 41 24 229 18 243 -6 15 -16 18 -26 7z"/>
<path d="M4154 10308 c-11 -16 -26 -55 -70 -178 -49 -140 -58 -260 -19 -260
12 0 14 8 9 39 -9 54 19 171 68 293 28 67 37 103 30 110 -6 6 -12 5 -18 -4z"/>
<path d="M8417 10261 c-82 -54 -174 -246 -118 -246 9 0 21 24 32 62 29 105 97
179 155 170 37 -6 48 1 33 20 -16 19 -69 16 -102 -6z"/>
<path d="M13729 10227 c-24 -18 -51 -31 -60 -29 -20 4 -43 -27 -92 -126 -30
-60 -34 -74 -21 -79 17 -6 35 13 65 72 21 39 138 159 147 150 2 -2 -12 -39
-32 -81 -40 -85 -43 -105 -20 -125 14 -11 19 -9 35 11 23 30 24 40 4 40 -19 0
-20 -4 15 73 32 71 39 127 16 127 -7 0 -33 -15 -57 -33z"/>
<path d="M3371 10241 c-8 -5 -10 -14 -7 -20 8 -13 46 -15 46 -2 0 16 -25 30
-39 22z"/>
<path d="M5412 10215 c-16 -13 -35 -38 -42 -55 -7 -16 -19 -30 -26 -30 -18 0
-29 -30 -39 -100 -4 -30 -18 -81 -30 -112 -13 -31 -26 -71 -30 -87 -9 -41 3
-91 21 -91 19 0 29 27 48 138 18 105 21 113 41 106 26 -10 87 38 126 99 44 68
48 93 18 131 -26 33 -49 33 -87 1z m68 -26 c21 -39 -64 -169 -111 -169 -10 0
-19 5 -19 10 0 24 63 146 83 162 28 23 34 22 47 -3z"/>
<path d="M8564 10207 c-56 -37 -65 -64 -35 -106 25 -34 26 -54 7 -70 -11 -9
-15 -9 -19 1 -3 10 -7 10 -17 1 -17 -16 -5 -43 18 -43 26 0 62 41 62 71 0 13
-9 35 -20 49 -28 36 -25 43 25 74 25 16 45 32 45 37 0 21 -22 16 -66 -14z"/>
<path d="M10405 10226 c-36 -16 -65 -42 -65 -60 0 -7 16 -31 35 -53 37 -43 38
-65 4 -83 -30 -17 -42 -12 -37 14 5 26 -16 44 -28 25 -10 -17 5 -77 22 -83 32
-12 104 44 104 81 0 12 -16 41 -35 62 l-36 39 23 16 c13 9 40 19 61 23 22 3
37 11 37 19 0 18 -45 18 -85 0z"/>
<path d="M9540 10190 c-104 -104 -107 -232 -4 -171 19 12 36 21 37 21 1 0 2
-16 2 -37 0 -20 6 -38 13 -40 7 -3 12 5 12 22 0 14 9 43 20 65 11 22 20 46 20
55 0 23 -30 18 -50 -8 -22 -28 -87 -64 -97 -54 -12 13 37 94 79 133 35 31 42
54 17 54 -5 0 -27 -18 -49 -40z"/>
<path d="M13903 10222 c-21 -13 -63 -121 -63 -162 0 -64 49 -86 123 -55 54 22
92 60 107 105 12 36 12 43 -3 57 -18 19 -21 15 -32 -49 -6 -40 -41 -73 -95
-88 -76 -22 -90 23 -40 125 28 57 29 83 3 67z"/>
<path d="M11454 10175 c-24 -25 -52 -62 -63 -84 -13 -25 -27 -38 -38 -37 -13
1 -17 -5 -15 -23 1 -14 5 -27 8 -30 11 -11 39 18 76 80 47 78 71 99 112 99 39
0 50 8 35 27 -24 28 -70 15 -115 -32z"/>
<path d="M14217 10193 c-40 -28 -105 -142 -92 -162 10 -18 23 -4 55 60 29 56
73 99 87 85 6 -6 -6 -80 -23 -143 -12 -44 23 -24 87 47 34 39 63 69 65 67 2
-1 -4 -30 -13 -65 -16 -66 -13 -92 12 -92 10 0 15 8 13 23 -1 12 4 55 11 95
21 105 7 113 -68 38 l-58 -58 4 49 c4 38 1 53 -12 66 -21 22 -24 22 -68 -10z"/>
<path d="M7407 10199 c-27 -16 -69 -106 -65 -142 3 -29 6 -32 36 -30 42 2 82
37 82 72 0 32 -18 99 -28 105 -4 2 -15 0 -25 -5z m22 -95 c1 -18 -35 -54 -54
-54 -11 0 -4 33 16 73 19 37 23 40 30 22 4 -11 8 -30 8 -41z"/>
<path d="M9305 10180 c-21 -22 -32 -27 -41 -19 -18 15 -33 3 -27 -20 3 -10
-11 -52 -31 -92 -38 -78 -43 -99 -23 -99 6 0 31 36 55 81 99 183 157 193 95
16 -24 -68 -25 -79 -12 -92 13 -13 17 -13 34 0 16 12 17 16 7 23 -11 7 -8 26
13 96 26 81 26 87 11 111 -22 33 -46 32 -81 -5z"/>
<path d="M10095 10149 c-91 -89 -164 -92 -151 -8 9 53 -9 58 -54 14 l-37 -37
1 39 c2 55 -29 57 -78 3 l-36 -40 6 40 c5 31 3 40 -8 40 -9 0 -21 -25 -33 -71
-10 -40 -29 -93 -42 -118 -27 -53 -28 -61 -10 -61 8 0 34 33 60 73 25 39 61
87 81 106 l34 33 -7 -33 c-4 -19 -15 -48 -24 -65 -9 -17 -13 -34 -10 -38 11
-11 33 -6 33 7 0 7 20 33 45 57 38 38 45 41 45 23 0 -36 33 -67 71 -65 34 1
35 0 31 -32 -7 -56 31 -65 161 -40 16 3 27 12 27 22 0 15 2 15 10 2 7 -11 12
-12 20 -4 19 19 -5 26 -47 15 -71 -18 -131 -22 -138 -11 -14 23 6 58 50 86 47
29 85 78 85 108 0 27 -23 16 -85 -45z"/>
<path d="M4502 10168 c-23 -18 -43 -39 -43 -48 -3 -35 4 -57 27 -88 14 -17 22
-37 19 -42 -8 -14 -38 -13 -53 2 -8 8 -15 9 -23 1 -16 -16 17 -43 51 -43 33 0
60 23 60 50 0 10 -11 32 -25 48 -33 39 -32 62 6 102 25 25 33 29 40 19 6 -10
9 -8 9 9 0 30 -19 28 -68 -10z"/>
<path d="M12630 10136 c-24 -37 -44 -66 -46 -66 -2 0 4 16 12 35 37 90 7 97
-103 22 l-78 -53 4 39 c3 34 1 38 -15 35 -11 -2 -24 3 -30 10 -15 20 -48 8
-97 -36 -80 -73 -113 -160 -59 -154 13 1 50 17 81 36 57 33 58 33 53 10 -7
-37 13 -29 91 37 74 63 127 96 127 81 0 -5 -10 -33 -22 -61 -15 -37 -18 -55
-10 -63 15 -15 68 29 101 85 l26 46 0 -57 c0 -54 1 -57 26 -60 14 -2 46 6 72
17 26 11 47 18 47 16 0 -2 -22 -39 -50 -81 -33 -51 -50 -87 -50 -108 l0 -32
-286 -1 c-183 0 -289 -4 -296 -11 -16 -16 2 -34 27 -28 45 11 619 8 623 -3 2
-6 8 -11 13 -11 6 0 7 5 4 10 -3 6 -2 10 4 10 5 0 12 -4 15 -9 10 -15 47 0 44
18 -2 12 -17 17 -62 19 l-58 3 6 37 c3 22 32 76 70 132 59 87 96 151 96 165 0
17 -35 0 -61 -30 -27 -31 -122 -85 -148 -85 -7 0 -10 26 -9 71 2 47 -1 73 -9
76 -6 2 -30 -25 -53 -61z m-284 -28 c-3 -13 -6 -28 -6 -35 0 -9 -100 -73 -115
-73 -11 0 40 72 71 100 41 36 59 39 50 8z"/>
<path d="M14844 10182 c-59 -33 -85 -60 -91 -95 -7 -46 18 -71 85 -86 37 -8
56 -7 76 2 33 15 34 37 1 37 -14 0 -25 -4 -25 -9 0 -5 -18 -5 -42 1 -82 18
-90 59 -16 78 71 19 113 43 113 65 0 27 -58 31 -101 7z m46 -22 c-8 -5 -19
-10 -25 -10 -5 0 -3 5 5 10 8 5 20 10 25 10 6 0 3 -5 -5 -10z"/>
<path d="M5766 10145 c-43 -52 -66 -92 -66 -117 0 -25 21 -22 65 8 l38 25 -8
-23 c-21 -67 1 -102 50 -80 31 14 23 36 -11 28 -29 -8 -29 -9 -4 49 11 26 20
53 20 61 0 19 -27 18 -58 -4 -15 -10 -34 -23 -41 -27 -20 -11 19 43 53 74 14
14 26 30 26 38 0 26 -26 12 -64 -32z"/>
<path d="M6254 10180 c-28 -11 -84 -68 -95 -97 -17 -45 -11 -79 16 -91 52 -24
185 -7 185 23 0 15 -12 20 -23 9 -9 -9 -108 -16 -134 -9 -16 4 -23 13 -23 28
0 18 14 31 62 58 35 19 64 42 66 51 4 22 -27 38 -54 28z"/>
<path d="M2620 10165 c0 -8 9 -24 19 -34 11 -11 31 -57 45 -104 26 -84 45
-115 66 -102 13 8 38 66 56 129 7 27 18 53 25 57 17 10 2 41 -18 37 -10 -2
-20 -18 -25 -38 -22 -88 -39 -140 -47 -140 -4 0 -16 28 -26 63 -22 76 -61 147
-80 147 -8 0 -15 -7 -15 -15z"/>
<path d="M15109 10157 c-36 -30 -69 -89 -69 -121 0 -31 20 -34 45 -6 17 18 14
25 -9 21 -11 -2 18 45 48 77 21 24 39 25 104 6 36 -10 27 22 -9 35 -48 17 -81
13 -110 -12z"/>
<path d="M3186 10136 c-38 -37 -60 -173 -30 -183 8 -3 14 18 19 57 9 74 44
125 81 116 29 -8 54 2 54 20 0 10 -14 14 -50 14 -40 0 -56 -5 -74 -24z"/>
<path d="M4242 10145 c-32 -23 -72 -97 -72 -133 0 -38 30 -62 78 -62 40 0 162
50 162 67 0 14 -14 11 -95 -18 -74 -27 -115 -21 -115 16 0 16 4 23 13 19 17
-6 97 66 97 87 0 17 -19 39 -35 39 -6 0 -20 -7 -33 -15z m37 -28 c-2 -1 -13
-9 -24 -17 -19 -14 -19 -14 -6 3 7 9 18 17 24 17 6 0 8 -1 6 -3z"/>
<path d="M5982 10138 c-21 -27 -52 -98 -52 -121 0 -37 32 -60 72 -52 49 11 88
33 88 51 0 12 -5 14 -17 9 -82 -35 -113 -37 -113 -9 0 21 35 88 54 103 9 7 13
17 10 22 -8 13 -30 11 -42 -3z"/>
<path d="M2912 10102 c-35 -33 -51 -94 -32 -117 18 -22 49 -18 98 10 l44 25
-4 -43 c-3 -39 -1 -42 25 -45 19 -2 27 1 27 12 0 8 -4 18 -10 21 -5 3 -10 26
-10 51 0 54 -11 56 -77 14 -52 -34 -73 -38 -73 -14 0 40 40 83 78 84 13 0 22
6 22 15 0 26 -55 18 -88 -13z"/>
<path d="M3506 10099 c-49 -39 -72 -113 -43 -138 18 -14 68 0 119 34 l38 25 0
-28 c0 -40 33 -68 62 -55 l23 11 -29 13 c-27 13 -28 15 -22 71 5 44 4 58 -6
58 -7 0 -19 -9 -26 -20 -27 -44 -142 -100 -142 -70 0 42 62 104 74 75 8 -21
26 -19 26 3 0 20 -18 42 -36 42 -6 0 -23 -9 -38 -21z"/>
<path d="M3302 10031 c-7 -21 -12 -47 -12 -58 0 -24 25 -48 40 -38 13 8 13 35
-1 35 -6 0 -9 6 -6 14 3 8 9 31 13 50 9 51 -19 49 -34 -3z"/>
<path d="M2366 9838 c-7 -23 -55 -211 -79 -305 -13 -51 -21 -95 -19 -98 18
-18 32 3 47 73 17 76 18 79 44 74 36 -6 47 -17 88 -82 39 -61 69 -89 96 -90
24 0 21 15 -8 34 -13 9 -46 49 -72 88 l-48 73 18 37 c10 20 45 60 78 89 66 57
86 86 71 101 -11 11 -155 -131 -176 -173 -12 -24 -59 -54 -64 -41 -1 4 9 45
23 92 14 46 25 94 25 106 0 26 -18 42 -24 22z"/>
<path d="M6136 9778 c-4 -17 -30 -89 -73 -207 -22 -59 -31 -97 -25 -103 8 -8
97 75 148 139 14 16 14 15 7 -17 -4 -19 -8 -57 -8 -85 0 -49 1 -50 29 -48 30
2 79 40 70 54 -8 14 -27 10 -21 -3 3 -8 -6 -14 -24 -15 -19 -1 -29 3 -29 12 0
28 41 190 50 199 13 13 13 46 0 46 -5 0 -27 -26 -48 -57 -22 -32 -58 -78 -81
-103 l-40 -45 6 35 c3 19 10 40 14 46 16 20 59 145 54 155 -9 13 -25 11 -29
-3z"/>
<path d="M7007 9700 c-9 -22 -17 -50 -17 -63 0 -44 -22 -98 -46 -113 -13 -9
-26 -15 -29 -13 -2 2 2 23 8 47 9 33 8 44 -2 54 -10 10 -15 10 -18 1 -11 -30
-49 -66 -94 -88 l-49 -25 3 64 c1 35 5 62 8 60 3 -2 11 8 18 22 11 25 8 44 -8
44 -15 0 -42 -75 -48 -134 -4 -50 -2 -64 11 -76 15 -12 24 -10 73 14 55 27 55
27 70 6 22 -31 57 -25 92 15 17 20 31 39 31 43 0 38 23 129 36 143 9 10 13 23
9 28 -13 21 -31 10 -48 -29z"/>
<path d="M5830 9710 c-6 -12 -10 -24 -7 -26 2 -2 -7 -43 -20 -92 -30 -110 -31
-117 -14 -117 7 0 29 29 48 65 40 75 80 130 93 130 17 0 22 -48 10 -104 -6
-31 -9 -60 -5 -65 9 -15 34 -2 33 17 0 9 3 44 6 77 8 69 -7 108 -41 113 -17 3
-30 -8 -55 -42 -17 -25 -33 -45 -34 -43 -2 1 2 22 7 46 11 51 -2 77 -21 41z"/>
<path d="M5551 9670 c-41 -62 -146 -161 -218 -206 -50 -33 -65 -56 -44 -69 6
-3 13 0 18 7 4 7 26 25 48 39 22 14 63 47 92 73 l51 46 -5 -41 c-8 -59 9 -65
77 -27 30 17 66 39 79 50 13 10 26 16 29 14 2 -3 -3 -28 -12 -55 -20 -63 -20
-63 6 -59 19 3 24 11 31 58 4 30 18 77 32 105 36 74 16 78 -54 8 -33 -33 -84
-72 -112 -87 l-51 -28 7 33 c8 37 32 86 64 134 12 17 21 36 21 43 0 26 -27 9
-59 -38z"/>
<path d="M7199 9673 c-29 -27 -60 -47 -70 -45 -12 2 -21 -8 -30 -35 -6 -21
-23 -52 -36 -70 -22 -29 -24 -53 -5 -53 4 0 34 34 66 76 60 76 124 139 133
130 2 -2 -1 -38 -8 -80 -17 -98 -11 -105 67 -83 32 9 64 23 72 31 17 17 6 42
-11 27 -15 -12 -100 -41 -105 -36 -2 2 3 37 12 79 25 121 2 137 -85 59z"/>
<path d="M4346 9689 c-14 -11 -31 -30 -37 -41 -15 -29 -51 -160 -45 -166 15
-14 34 13 45 64 26 118 50 140 142 129 65 -8 80 6 28 24 -50 17 -103 13 -133
-10z"/>
<path d="M6622 9685 c-12 -14 -26 -25 -32 -25 -5 0 -10 -4 -10 -9 0 -5 -13
-23 -30 -41 -38 -41 -58 -103 -40 -125 21 -25 59 -18 96 19 31 31 34 40 34 90
0 31 6 65 12 76 21 33 -4 45 -30 15z m-26 -150 c-15 -23 -53 -42 -63 -31 -9 8
18 65 46 99 l26 31 3 -38 c2 -22 -3 -47 -12 -61z"/>
<path d="M3236 9662 c-8 -16 -18 -52 -22 -81 -4 -28 -11 -54 -17 -58 -6 -4 -7
7 -3 31 9 49 -16 60 -50 22 -14 -14 -43 -35 -65 -46 l-40 -21 7 28 c4 15 11
38 15 51 12 31 12 32 -9 32 -14 0 -21 -13 -30 -51 -16 -68 -15 -77 8 -84 13
-4 40 4 75 23 52 28 54 29 57 9 2 -11 11 -25 21 -31 26 -16 53 21 62 85 4 29
14 67 21 86 12 29 12 33 -1 33 -8 0 -21 -13 -29 -28z"/>
<path d="M4135 9665 c-22 -12 -41 -29 -43 -38 -2 -10 -7 -15 -12 -12 -13 8
-43 -80 -35 -104 11 -37 40 -44 90 -22 43 19 85 69 85 101 0 30 -21 88 -33 92
-6 2 -30 -5 -52 -17z m50 -54 c3 -10 0 -31 -7 -46 -18 -39 -87 -71 -102 -46
-8 12 11 71 30 92 23 25 71 25 79 0z"/>
<path d="M3457 9660 c-14 -11 -30 -20 -36 -20 -10 0 -81 -142 -81 -161 0 -5 6
-9 13 -9 7 0 27 27 45 60 18 33 47 74 64 91 30 30 32 30 45 13 15 -21 8 -94
-9 -105 -12 -8 -6 -51 7 -56 13 -4 33 48 41 107 5 37 2 50 -16 73 -26 32 -39
34 -73 7z"/>
<path d="M2700 9662 c-8 -2 -30 -18 -47 -35 -18 -17 -33 -26 -33 -19 0 7 -7
12 -15 12 -10 0 -15 -10 -15 -32 0 -18 -3 -43 -6 -55 -10 -36 23 -29 42 10 18
35 69 87 86 87 7 0 8 -14 3 -42 -13 -67 -11 -121 2 -125 8 -3 12 4 11 19 0 13
4 41 10 63 24 82 8 132 -38 117z"/>
<path d="M6393 9626 c-21 -27 -30 -32 -40 -24 -17 14 -23 7 -40 -40 -16 -48
-16 -62 1 -62 14 0 27 13 87 83 17 21 34 36 36 34 2 -3 -6 -39 -19 -81 -19
-67 -20 -78 -8 -91 19 -19 49 -3 33 17 -8 9 -6 29 8 73 10 33 19 75 19 93 0
27 -3 32 -25 32 -16 0 -34 -12 -52 -34z"/>
<path d="M2864 9642 c-18 -11 -43 -67 -50 -109 -4 -30 -2 -44 11 -56 28 -29
74 -16 96 25 14 26 18 127 6 135 -15 9 -27 -20 -27 -68 0 -47 -27 -88 -49 -74
-17 10 -13 38 14 91 23 46 23 72 -1 56z"/>
<path d="M12086 9615 c-8 -23 10 -27 82 -20 88 8 581 -12 639 -26 32 -9 47 -9
55 -1 32 32 -121 49 -499 56 -231 5 -272 4 -277 -9z"/>
<path d="M7634 9489 c-8 -14 11 -33 25 -25 6 4 11 11 11 16 0 13 -29 20 -36 9z"/>
<path d="M14540 9122 c0 -28 -51 -196 -72 -235 -16 -31 -27 -37 -76 -37 -57 0
-52 -24 6 -28 23 -2 42 -5 42 -8 0 -3 -16 -44 -36 -90 -20 -47 -34 -87 -31
-91 13 -13 36 21 68 100 17 45 35 85 38 89 3 3 31 9 62 13 l57 7 -9 -48 c-5
-27 -20 -71 -34 -99 -15 -32 -21 -53 -15 -59 21 -21 74 91 86 185 l7 52 -71
-6 -71 -6 19 44 c25 58 60 185 60 218 0 17 -5 27 -15 27 -10 0 -15 -10 -15
-28z"/>
<path d="M14902 9138 c-7 -7 -12 -32 -12 -57 0 -33 -13 -77 -47 -153 -46 -106
-47 -108 -80 -108 -23 0 -33 -5 -33 -15 0 -9 9 -15 25 -15 14 0 25 -5 25 -12
0 -19 -72 -168 -82 -168 -4 0 -8 -7 -8 -15 0 -8 8 -15 19 -15 13 0 29 24 60
89 22 49 41 94 41 100 0 19 39 31 78 25 l40 -6 -19 -62 c-10 -33 -23 -62 -29
-64 -5 -2 -10 -9 -10 -17 0 -13 28 -41 35 -34 5 6 57 179 58 199 2 12 -11 15
-57 17 -32 1 -61 5 -64 7 -3 3 14 47 37 97 23 51 43 112 45 137 2 24 9 48 16
52 14 9 5 30 -14 30 -6 0 -17 -5 -24 -12z"/>
<path d="M9377 9083 c-2 -5 -5 -25 -5 -46 -1 -24 -22 -78 -62 -156 l-61 -119
-39 5 c-53 7 -110 -4 -110 -22 0 -12 11 -13 59 -9 70 8 79 -1 53 -53 -35 -68
-57 -152 -44 -165 9 -9 13 -7 17 8 4 10 22 61 42 111 40 102 29 94 146 107 44
5 61 -4 36 -20 -6 -3 -18 -22 -26 -41 -12 -31 -12 -38 2 -59 14 -22 23 -25 62
-22 36 2 50 9 65 29 18 24 19 29 5 55 -8 16 -24 38 -36 48 -12 11 -21 26 -21
34 0 12 -14 13 -86 7 -48 -4 -85 -3 -83 2 3 4 27 53 55 108 55 107 69 152 59
185 -6 20 -20 26 -28 13z m102 -395 c21 -37 8 -58 -34 -58 -29 0 -35 4 -35 20
0 27 30 72 44 67 6 -2 17 -15 25 -29z"/>
<path d="M10232 9048 c-7 -7 -12 -28 -12 -48 0 -20 -13 -74 -28 -120 l-29 -85
-53 -10 c-73 -14 -83 -40 -11 -32 28 3 51 4 51 2 0 -2 -12 -47 -26 -100 -25
-94 -28 -140 -10 -140 5 0 15 27 23 60 7 33 20 88 29 121 16 61 17 62 57 68
22 4 59 4 83 0 l43 -6 -45 -54 c-24 -30 -44 -61 -44 -69 0 -24 35 -17 87 18
l50 34 -10 -45 c-6 -30 -6 -47 2 -55 19 -19 29 4 37 81 6 69 6 72 -15 72 -11
0 -21 -4 -21 -9 0 -5 -16 -21 -35 -35 -19 -15 -35 -25 -35 -22 0 15 65 76 81
76 24 0 37 29 18 41 -8 5 -22 3 -36 -6 -15 -10 -23 -11 -25 -3 -3 7 -32 12
-81 12 -42 1 -77 4 -77 7 0 3 11 39 25 80 28 81 43 179 28 179 -5 0 -14 -5
-21 -12z"/>
<path d="M10775 9023 c-4 -21 -14 -51 -22 -68 -26 -48 -123 -316 -123 -336 0
-11 3 -19 8 -19 4 0 38 38 76 85 37 47 70 85 72 85 3 0 -5 -18 -16 -40 -25
-49 -27 -122 -3 -145 37 -37 173 8 173 57 0 21 -8 23 -29 5 -23 -20 -109 -49
-121 -42 -28 18 13 150 75 239 19 26 19 46 1 46 -13 0 -83 -70 -144 -145 -17
-22 -32 -36 -32 -32 0 4 21 58 46 120 67 162 73 180 74 205 0 37 -27 25 -35
-15z"/>
<path d="M3652 8950 c-56 -94 -82 -150 -142 -307 -13 -34 -28 -59 -32 -57 -4
3 -8 88 -8 189 0 186 -3 215 -24 215 -16 0 -12 -379 6 -443 13 -49 26 -61 39
-36 4 8 33 82 65 164 58 152 141 308 170 319 17 7 16 47 -2 53 -7 2 -39 -42
-72 -97z"/>
<path d="M10627 9044 c-4 -4 -7 -19 -7 -33 0 -35 -41 -194 -79 -307 -32 -94
-40 -167 -20 -180 16 -10 29 16 23 46 -3 15 9 71 30 135 40 127 73 255 78 304
3 32 -10 50 -25 35z"/>
<path d="M12788 9025 c-9 -21 -9 -28 0 -34 9 -6 5 -27 -15 -84 l-27 -76 -48
-6 c-45 -6 -78 -27 -60 -38 4 -3 26 -2 47 3 22 5 40 8 42 7 1 -2 -7 -36 -17
-77 -23 -88 -25 -120 -7 -120 7 0 22 39 37 102 l25 103 75 13 c41 7 85 11 98
9 26 -5 29 -1 36 36 4 22 1 27 -14 27 -11 0 -23 -6 -27 -14 -6 -12 -103 -35
-144 -36 -4 0 4 30 18 67 25 69 27 133 6 141 -7 2 -18 -8 -25 -23z"/>
<path d="M6647 9023 c-4 -3 -7 -18 -7 -32 0 -35 -39 -170 -89 -311 -44 -122
-48 -163 -17 -168 15 -3 18 0 13 20 -4 15 9 66 34 138 49 138 101 330 94 348
-5 13 -18 16 -28 5z"/>
<path d="M6527 9013 c-27 -55 -107 -446 -94 -460 16 -15 26 19 61 197 21 101
44 199 52 217 15 31 13 53 -6 53 -5 0 -11 -3 -13 -7z"/>
<path d="M14733 9013 c-7 -3 -13 -13 -13 -24 0 -13 7 -19 24 -19 14 0 27 4 30
9 8 12 -26 39 -41 34z"/>
<path d="M15044 8987 c-8 -22 3 -37 27 -37 24 0 24 12 -1 35 -17 16 -20 16
-26 2z"/>
<path d="M4880 8969 c0 -20 -28 -173 -56 -301 -16 -79 -18 -138 -4 -138 13 0
12 -3 40 150 12 69 29 153 36 188 18 84 18 122 -1 122 -8 0 -15 -9 -15 -21z"/>
<path d="M4274 8969 c-7 -12 12 -29 34 -29 18 0 15 27 -4 34 -21 8 -22 8 -30
-5z"/>
<path d="M4590 8960 c0 -25 -57 -306 -71 -347 -24 -73 14 -103 93 -73 88 34
128 80 128 146 0 80 -56 94 -132 33 l-38 -30 7 33 c3 18 16 80 29 138 12 58
20 108 17 113 -9 15 -33 6 -33 -13z m118 -272 c2 -26 -4 -43 -22 -66 -43 -50
-136 -76 -136 -37 0 15 49 83 81 111 49 44 73 41 77 -8z"/>
<path d="M11966 8913 c-11 -108 -35 -183 -62 -193 -28 -11 -40 -50 -27 -93 8
-30 11 -31 53 -29 56 4 148 48 173 84 24 33 17 71 -18 94 -29 19 -53 13 -97
-24 l-32 -27 8 25 c35 123 46 230 22 230 -9 0 -15 -21 -20 -67z m118 -179 c3
-8 1 -24 -4 -35 -14 -26 -106 -71 -137 -67 -26 3 -25 5 28 61 57 59 100 75
113 41z"/>
<path d="M3120 8876 c-10 -21 -11 -28 0 -41 17 -20 33 -19 53 3 21 23 22 52 3
52 -8 0 -21 2 -28 5 -9 3 -20 -5 -28 -19z"/>
<path d="M7310 8859 c-75 -30 -80 -79 -14 -149 51 -55 51 -63 -6 -105 -41 -31
-46 -31 -53 -3 -5 18 -8 19 -21 8 -9 -7 -16 -20 -16 -29 0 -38 44 -52 92 -30
24 11 78 86 78 109 0 7 -20 35 -45 61 -25 26 -45 58 -45 69 0 28 61 54 107 45
34 -6 42 2 21 23 -14 14 -63 15 -98 1z"/>
<path d="M13917 8839 c-20 -17 -48 -50 -62 -73 -48 -82 -24 -113 56 -73 l48
23 -6 -27 c-7 -37 13 -71 40 -67 12 2 22 10 22 18 0 8 -6 14 -13 12 -26 -5
-23 29 7 95 23 48 29 69 21 77 -11 11 -13 9 -53 -45 -16 -21 -88 -69 -104 -69
-25 0 -12 22 47 82 33 33 60 64 60 69 0 18 -26 9 -63 -22z"/>
<path d="M15135 8848 c-49 -25 -79 -51 -116 -102 -36 -49 -37 -79 -3 -105 35
-28 119 -30 121 -3 1 14 -6 16 -40 14 -57 -4 -82 14 -68 50 6 16 18 27 28 27
31 -1 117 33 141 54 24 22 29 56 10 75 -16 16 -26 15 -73 -10z m55 -23 c0 -16
-38 -38 -85 -49 -27 -7 -28 -6 -15 8 12 12 85 54 98 56 1 0 2 -7 2 -15z"/>
<path d="M5329 8832 c-66 -42 -73 -55 -55 -89 8 -15 28 -41 45 -56 17 -16 31
-33 31 -37 0 -15 -39 -21 -61 -10 -32 17 -47 -3 -18 -24 29 -20 58 -20 87 0
32 22 27 51 -19 96 -22 22 -39 47 -37 56 2 9 26 28 55 42 52 25 69 50 35 50
-10 0 -38 -13 -63 -28z"/>
<path d="M8192 8807 c-33 -78 -137 -177 -217 -207 -30 -11 -29 -37 1 -32 10 2
51 26 91 52 l72 49 3 -27 c5 -42 40 -41 96 5 35 29 42 32 29 13 -22 -31 -22
-103 -1 -124 18 -19 20 -19 45 -6 26 14 24 28 -5 32 -23 3 -23 3 -10 55 7 28
25 75 39 104 14 30 23 59 21 66 -10 24 -35 13 -63 -29 -30 -45 -102 -118 -117
-118 -12 0 1 44 39 132 18 42 30 79 27 82 -14 15 -29 1 -50 -47z"/>
<path d="M8550 8848 c-30 -11 -70 -47 -70 -63 0 -7 14 -29 30 -50 36 -45 36
-50 9 -95 -20 -32 -22 -33 -35 -15 -19 25 -45 4 -28 -23 24 -38 69 -20 100 40
20 39 17 62 -12 97 -33 39 -28 63 16 77 19 6 36 16 37 21 6 16 -19 21 -47 11z"/>
<path d="M12206 8838 c-25 -14 -19 -28 14 -28 34 0 46 -17 56 -78 5 -35 3 -44
-19 -66 -30 -30 -57 -34 -57 -8 0 9 12 37 25 61 14 24 23 46 21 49 -14 13 -40
-13 -62 -62 -20 -44 -23 -59 -14 -76 18 -33 66 -26 107 15 34 34 35 39 30 85
-11 89 -53 135 -101 108z"/>
<path d="M13684 8833 c-3 -10 -17 -43 -30 -74 -28 -65 -29 -78 -10 -104 13
-18 15 -18 59 -1 44 16 107 74 107 97 0 6 7 26 16 45 9 19 14 37 11 41 -13 13
-36 -8 -48 -44 -6 -21 -19 -48 -28 -61 -20 -29 -88 -65 -96 -52 -3 5 8 41 25
79 16 38 30 74 30 80 0 18 -30 12 -36 -6z"/>
<path d="M14172 8820 c-18 -11 -39 -20 -48 -20 -9 0 -27 -26 -45 -65 -33 -74
-35 -85 -14 -85 8 0 15 4 15 9 0 5 21 32 46 60 47 52 89 81 119 81 22 0 19
-57 -6 -124 -22 -57 -20 -82 5 -55 39 42 62 168 35 195 -25 24 -71 27 -107 4z"/>
<path d="M15340 8818 c-66 -34 -66 -64 -1 -130 28 -28 51 -57 51 -63 0 -15
-43 -35 -74 -35 -12 0 -32 12 -45 26 -12 14 -29 24 -38 22 -21 -4 -19 -9 20
-50 29 -30 36 -33 73 -28 105 15 121 66 44 142 -27 27 -50 55 -50 62 0 19 72
46 120 46 29 0 40 4 40 15 0 24 -87 19 -140 -7z"/>
<path d="M13499 8810 c-41 -21 -119 -105 -119 -127 0 -28 34 -26 91 3 l57 30
-15 -50 c-31 -105 -67 -195 -125 -309 -54 -108 -62 -137 -38 -137 4 0 18 20
30 45 31 63 103 140 149 158 42 17 57 32 42 42 -12 7 -78 -20 -105 -43 -15
-13 -18 -14 -13 -2 58 139 81 201 96 261 10 40 24 75 30 77 15 5 14 45 -1 60
-17 17 -37 14 -79 -8z m41 -28 c0 -13 -41 -48 -79 -67 -47 -24 -37 1 18 43 43
32 61 39 61 24z"/>
<path d="M4007 8799 c-36 -28 -102 -168 -87 -183 8 -8 15 -6 26 8 8 11 14 26
14 33 0 7 5 13 10 13 6 0 10 9 10 21 0 26 27 72 51 87 12 8 26 9 43 3 41 -16
51 9 11 27 -36 17 -48 15 -78 -9z"/>
<path d="M7158 8815 c-3 -3 -3 -27 0 -55 3 -38 0 -56 -17 -84 -23 -37 -87 -83
-99 -71 -4 4 -7 32 -7 63 0 43 -4 57 -15 57 -8 0 -17 -13 -21 -31 -8 -42 -44
-91 -80 -110 -26 -13 -30 -13 -35 1 -7 18 11 96 33 143 16 34 13 48 -10 39
-16 -6 -57 -125 -57 -166 0 -36 31 -65 60 -56 12 4 36 20 55 36 33 29 34 30
45 9 16 -29 52 -25 102 13 53 40 76 85 80 157 2 43 0 55 -12 57 -9 2 -18 1
-22 -2z"/>
<path d="M12545 8783 c-12 -77 -17 -87 -54 -125 -61 -60 -73 -53 -69 38 4 102
-15 109 -29 12 -12 -90 -3 -118 39 -118 20 0 43 13 77 45 44 41 50 53 60 107
6 33 8 65 5 69 -11 19 -23 7 -29 -28z"/>
<path d="M6224 8798 c-24 -11 -54 -68 -54 -102 0 -27 29 -56 56 -56 10 0 33 9
51 20 l32 19 -5 -27 c-5 -30 15 -77 31 -71 6 2 9 11 7 19 -7 35 -2 78 13 113
14 35 14 38 -5 57 -37 37 -85 48 -126 28z m95 -41 c13 -16 -28 -60 -72 -76
-48 -18 -60 5 -32 59 13 25 21 30 54 30 21 0 44 -6 50 -13z"/>
<path d="M3739 8785 c-33 -18 -81 -107 -77 -143 5 -44 39 -41 93 9 l45 42 0
-31 c0 -43 9 -62 30 -62 26 0 34 17 13 28 -15 9 -16 16 -6 64 6 29 7 57 2 62
-5 5 -36 -17 -76 -54 -68 -64 -87 -67 -57 -8 25 51 45 68 76 68 18 0 28 5 28
15 0 8 -4 15 -9 15 -5 0 -15 2 -23 5 -7 2 -24 -2 -39 -10z"/>
<path d="M5023 8771 c-22 -16 -44 -34 -48 -40 -3 -6 -17 -11 -31 -11 -15 0
-24 -6 -24 -15 0 -8 4 -15 9 -15 6 0 3 -12 -5 -27 -19 -38 -18 -67 5 -87 16
-15 30 -16 78 -11 72 9 133 33 133 51 0 18 -9 18 -51 0 -47 -19 -121 -28 -138
-17 -13 8 -12 15 3 48 15 33 24 40 76 56 64 21 94 45 88 74 -5 30 -49 27 -95
-6z m57 -10 c0 -5 -10 -11 -22 -14 -22 -6 -22 -6 -4 8 23 17 26 18 26 6z"/>
<path d="M6766 8791 c-4 -5 5 -26 19 -47 14 -20 25 -50 25 -66 0 -25 -6 -32
-46 -49 -25 -12 -48 -18 -51 -15 -8 8 15 59 43 97 26 35 18 63 -10 40 -22 -19
-76 -130 -76 -158 0 -29 13 -29 84 -2 72 26 97 57 86 104 -15 65 -58 122 -74
96z"/>
<path d="M4192 8768 c-38 -46 -54 -153 -22 -153 10 0 14 8 12 26 -1 15 7 48
18 74 20 47 15 80 -8 53z"/>
<path d="M4288 8743 c-74 -78 -86 -143 -25 -143 30 0 42 5 94 37 18 11 19 9
15 -18 -5 -31 14 -63 30 -53 5 3 7 16 4 29 -3 13 3 45 16 74 17 41 18 54 9 64
-10 9 -20 4 -44 -24 -57 -65 -142 -104 -130 -60 9 35 74 103 92 96 9 -4 22 -9
29 -12 20 -8 14 25 -7 37 -32 16 -45 12 -83 -27z"/>
<path d="M11695 8747 c-44 -25 -85 -79 -85 -111 0 -48 45 -59 108 -27 l38 19
-4 -34 c-3 -25 0 -35 13 -40 22 -9 45 13 26 25 -17 11 -4 55 30 102 28 39 12
63 -22 33 -22 -18 -22 -18 -15 0 7 20 -18 56 -38 56 -6 0 -29 -10 -51 -23z
m66 -50 c7 -25 4 -29 -41 -52 -76 -38 -96 -31 -66 23 15 28 66 63 85 60 8 -2
18 -15 22 -31z"/>
<path d="M15190 8659 c0 -6 -9 -8 -20 -4 -14 5 -20 2 -20 -9 0 -18 23 -21 51
-6 23 13 25 30 4 30 -8 0 -15 -5 -15 -11z"/>
<path d="M2986 8502 c-4 -6 -10 -43 -15 -82 -11 -81 -17 -93 -36 -66 -9 12
-20 16 -32 11 -16 -6 -14 -10 14 -34 l32 -27 -9 -89 c-10 -95 -6 -135 15 -135
8 0 12 21 13 68 1 37 4 88 7 113 6 45 8 47 44 53 21 3 55 17 75 31 l38 26 -7
-33 c-4 -18 -18 -66 -32 -106 -33 -97 -25 -118 25 -70 44 41 96 78 110 78 6 0
12 -21 14 -47 2 -34 7 -48 18 -48 11 0 14 11 11 50 -5 83 -33 95 -105 46 l-43
-30 19 67 c29 102 25 212 -8 212 -10 0 -14 -12 -14 -38 0 -21 -7 -47 -15 -59
-14 -20 -101 -61 -110 -52 -2 3 1 37 7 78 7 49 7 76 0 83 -6 6 -12 6 -16 0z"/>
<path d="M8066 8460 c-20 -18 -36 -36 -36 -41 0 -21 -53 -90 -60 -78 -17 26
-34 2 -31 -43 2 -32 -6 -67 -24 -113 -25 -62 -27 -95 -7 -95 5 0 24 39 42 88
51 133 84 193 133 241 l45 43 18 -27 c25 -39 30 -132 10 -191 -19 -57 -20 -64
-3 -64 7 0 32 27 56 60 38 51 88 98 95 88 30 -42 45 -82 36 -94 -17 -20 -8
-55 20 -75 35 -25 160 -41 167 -22 3 8 -2 22 -11 31 -14 14 -18 15 -25 3 -6
-10 -20 -11 -52 -6 -55 9 -79 21 -79 40 0 11 10 13 43 9 85 -11 147 56 98 105
-29 29 -65 26 -103 -8 l-33 -29 -20 36 c-28 50 -54 52 -102 8 l-39 -35 -1 49
c0 31 -10 68 -24 97 -31 62 -61 68 -113 23z m414 -165 c17 -20 -1 -41 -42 -50
-44 -10 -54 7 -22 38 30 31 46 34 64 12z"/>
<path d="M9875 8480 c-4 -7 -4 -38 -1 -71 l7 -59 -76 0 c-66 0 -76 -2 -73 -17
2 -13 15 -16 70 -15 l66 1 7 -97 c7 -110 11 -125 26 -120 8 3 11 38 10 107
l-2 103 90 -4 c50 -1 91 -7 91 -12 0 -6 5 -5 12 2 22 22 -5 32 -100 38 l-92 7
-2 36 c-1 20 -2 48 -3 64 -1 33 -19 55 -30 37z"/>
<path d="M10655 8470 c-4 -6 2 -23 12 -38 15 -22 19 -52 21 -170 3 -114 7
-145 18 -149 8 -3 16 -4 18 -2 8 12 -12 300 -24 332 -14 36 -32 47 -45 27z"/>
<path d="M3883 8429 c3 -23 3 -57 0 -76 l-6 -35 -49 5 c-36 5 -48 3 -48 -7 0
-15 30 -26 69 -26 l24 0 -7 -104 c-5 -86 -4 -105 9 -116 8 -7 16 -9 16 -4 3
16 5 67 7 142 l2 74 98 -3 c90 -3 97 -2 100 16 3 19 -3 20 -94 17 l-96 -3 7
40 c9 56 -3 121 -22 121 -13 0 -15 -8 -10 -41z"/>
<path d="M9405 8438 c4 -12 10 -63 12 -111 l5 -88 -43 -41 c-37 -35 -46 -39
-77 -34 -76 12 -80 72 -7 96 33 11 39 10 60 -10 28 -26 51 -19 34 11 -26 49
-118 44 -158 -8 -43 -54 -11 -108 71 -119 44 -6 47 -5 98 44 l52 50 -4 113
c-3 111 -4 114 -27 117 -21 3 -23 1 -16 -20z"/>
<path d="M2501 8419 c-52 -23 -101 -57 -101 -70 0 -5 11 -9 25 -9 14 0 25 4
25 10 0 10 79 54 86 48 2 -2 -13 -26 -32 -54 -38 -53 -84 -137 -84 -154 0 -21
44 -9 90 25 26 19 50 35 54 35 3 0 12 -16 20 -35 11 -26 21 -35 39 -35 27 0
48 39 61 113 12 63 -26 42 -39 -23 -12 -60 -22 -69 -35 -35 -22 59 -52 63
-107 12 -44 -39 -34 -8 21 73 31 46 56 86 56 91 0 23 -37 27 -79 8z"/>
<path d="M9455 8430 c-3 -5 -1 -10 4 -10 6 0 11 5 11 10 0 6 -2 10 -4 10 -3 0
-8 -4 -11 -10z"/>
<path d="M10445 8431 c-11 -18 6 -81 22 -81 8 0 12 4 9 9 -4 5 -1 11 5 13 9 3
9 12 2 33 -10 31 -27 43 -38 26z"/>
<path d="M2815 8420 c-7 -12 20 -60 34 -60 17 0 18 12 4 41 -15 30 -27 36 -38
19z"/>
<path d="M5251 8388 c0 -24 -9 -70 -20 -103 -29 -81 -54 -193 -47 -210 9 -24
23 -17 30 16 7 36 82 154 120 188 l26 25 -1 -70 c-1 -39 2 -80 5 -91 15 -47
69 -32 106 30 l20 32 0 -30 c0 -45 11 -75 26 -75 8 0 14 5 14 10 0 19 63 139
81 156 14 12 22 13 38 5 27 -15 37 -56 24 -105 -12 -43 -8 -66 12 -66 7 0 15
19 19 46 10 79 7 101 -20 133 -46 55 -94 37 -134 -50 l-25 -53 -5 64 c-3 36
-10 65 -17 67 -14 5 -38 -38 -47 -86 -7 -38 -32 -71 -53 -71 -18 0 -17 115 2
170 8 23 15 46 15 51 0 25 -35 1 -103 -70 l-76 -79 16 46 c8 26 17 73 20 105
5 48 3 57 -11 57 -13 0 -16 -9 -15 -42z"/>
<path d="M6526 8422 c-7 -12 23 -74 34 -67 11 7 13 35 4 59 -6 17 -29 22 -38
8z"/>
<path d="M10933 8355 c-41 -18 -41 -30 -1 -63 131 -111 136 -122 53 -122 -30
0 -64 5 -74 12 -19 12 -51 5 -51 -11 0 -16 60 -31 122 -31 62 0 98 12 98 33 0
22 -45 75 -94 113 -26 20 -45 38 -42 41 3 3 39 8 81 12 41 3 76 10 78 16 3 16
-134 16 -170 0z"/>
<path d="M9606 8340 c-102 -31 -150 -127 -78 -160 33 -15 212 -36 235 -27 36
14 14 25 -65 31 -95 8 -156 20 -170 34 -14 14 8 50 45 72 39 24 87 27 87 5 0
-8 -3 -15 -7 -15 -5 0 -23 -9 -42 -21 -24 -14 -31 -23 -23 -31 7 -7 23 -3 54
13 52 29 63 67 26 93 -12 9 -25 16 -28 15 -3 0 -18 -5 -34 -9z"/>
<path d="M2786 8331 c-11 -18 -29 -148 -23 -165 10 -26 27 -9 27 27 0 18 6 56
13 85 8 28 12 54 9 57 -8 8 -20 6 -26 -4z"/>
<path d="M6303 8324 c-3 -9 -1 -19 4 -23 6 -3 14 -25 17 -47 6 -36 4 -45 -16
-63 -12 -12 -32 -20 -43 -19 -16 2 -20 10 -20 42 0 54 -22 58 -41 9 -23 -59
-113 -99 -137 -62 -8 12 -5 27 10 58 17 34 18 43 7 52 -11 9 -18 3 -34 -32
-25 -56 -25 -84 0 -109 27 -27 47 -25 114 8 46 24 58 27 67 15 18 -21 65 -15
99 14 31 26 32 29 26 81 -9 79 -36 118 -53 76z"/>
<path d="M10145 8316 c-17 -7 -45 -30 -63 -51 -30 -34 -32 -39 -19 -58 12 -18
24 -22 68 -22 30 0 73 3 96 8 36 6 42 4 48 -12 9 -28 70 -64 95 -56 27 9 20
29 -11 33 -44 7 -60 31 -53 79 3 24 3 43 -1 43 -4 0 -19 -13 -34 -28 -22 -25
-37 -30 -100 -36 -40 -4 -76 -5 -79 -1 -18 18 64 85 104 85 12 0 30 -7 39 -16
13 -13 19 -14 28 -5 9 10 7 17 -12 32 -27 22 -63 24 -106 5z"/>
<path d="M3632 8299 c2 -8 17 -20 31 -27 37 -18 35 -53 -4 -86 -17 -14 -37
-26 -44 -26 -17 0 -35 31 -35 59 0 11 -5 23 -11 27 -38 23 -22 -87 17 -112 20
-14 26 -13 63 5 49 25 71 55 71 96 0 41 -17 62 -59 70 -26 6 -32 4 -29 -6z"/>
<path d="M6725 8288 c-33 -26 -85 -105 -85 -129 0 -38 20 -27 45 24 29 63 58
92 81 83 13 -5 15 -19 12 -79 -2 -57 0 -72 11 -72 23 0 28 138 7 170 -20 31
-35 31 -71 3z"/>
<path d="M7000 8298 c-65 -24 -90 -87 -49 -124 15 -14 34 -19 71 -17 57 1 88
23 88 61 0 20 3 22 14 13 18 -15 62 -117 70 -162 l6 -37 -42 -5 c-24 -3 -67
-9 -97 -13 -70 -8 -106 -41 -97 -85 16 -84 76 -159 126 -159 74 0 129 62 139
158 7 62 7 63 82 48 28 -6 36 -5 36 8 0 10 -19 19 -56 28 l-55 14 -16 64 c-24
95 -85 200 -115 200 -13 0 -25 -30 -25 -67 0 -16 -8 -24 -27 -29 -16 -3 -32
-7 -38 -9 -21 -6 -55 15 -55 34 0 24 36 51 67 51 13 0 23 6 23 14 0 19 -20 25
-50 14z m200 -353 c0 -75 -57 -149 -108 -143 -37 5 -86 70 -85 114 1 19 4 38
7 42 9 8 82 19 139 21 l47 1 0 -35z"/>
<path d="M5860 8276 c-5 -13 -12 -25 -17 -27 -22 -10 -63 -74 -63 -99 0 -36
10 -42 68 -42 129 -2 183 86 100 164 -38 35 -75 37 -88 4z m83 -48 c37 -49 -5
-88 -94 -88 -29 0 -39 4 -39 16 0 22 86 107 102 102 6 -2 20 -16 31 -30z"/>
<path d="M6514 8287 c-9 -24 2 -161 13 -164 20 -7 24 15 17 96 -6 75 -17 100
-30 68z"/>
<path d="M3413 8277 c-27 -15 -59 -56 -73 -92 -8 -22 -7 -33 6 -52 13 -21 22
-24 50 -20 84 14 113 67 77 142 -18 38 -26 41 -60 22z m41 -53 c13 -34 5 -52
-28 -68 -45 -21 -56 -20 -56 5 0 57 67 108 84 63z"/>
<path d="M10444 8179 c8 -80 12 -92 27 -83 6 3 9 36 6 78 -4 58 -8 72 -22 75
-16 3 -17 -3 -11 -70z"/>
<path d="M11236 8102 c-3 -6 1 -15 8 -21 19 -16 68 -19 73 -4 4 10 -4 14 -59
29 -9 3 -19 1 -22 -4z"/>
<path d="M14154 7900 c-115 -57 -193 -163 -280 -377 -21 -52 -34 -73 -49 -75
-24 -4 -33 -35 -11 -40 23 -5 -49 -118 -75 -118 -23 0 -25 -13 -4 -30 22 -18
51 11 95 94 l34 64 71 15 c90 20 135 28 135 22 0 -2 -14 -26 -31 -53 -52 -84
-24 -140 48 -96 62 38 123 115 123 154 0 26 -29 5 -59 -45 -27 -44 -84 -95
-107 -95 -13 0 1 34 36 89 22 34 40 66 40 71 0 14 -52 12 -148 -6 -46 -8 -85
-14 -87 -12 -6 6 74 181 102 221 81 117 173 189 260 203 31 5 42 2 57 -15 20
-22 36 -20 36 4 0 20 -38 42 -85 49 -33 6 -51 1 -101 -24z"/>
<path d="M14496 7751 c-4 -5 -42 -82 -86 -169 -43 -88 -83 -162 -87 -165 -5
-3 -22 -38 -38 -77 -21 -51 -26 -76 -19 -87 5 -9 13 -15 18 -15 5 1 26 44 47
96 21 52 71 161 113 243 41 81 76 154 78 162 4 16 -18 26 -26 12z"/>
<path d="M10387 7708 c-5 -39 -31 -93 -161 -328 -19 -36 -36 -73 -36 -82 0
-27 24 -21 43 10 25 41 130 150 122 127 -4 -11 -14 -51 -22 -89 -13 -56 -13
-70 -2 -76 20 -13 29 -2 29 33 0 18 9 62 19 99 14 48 16 69 8 77 -17 17 -24
14 -69 -26 l-41 -38 25 40 c89 143 144 295 106 295 -11 0 -17 -14 -21 -42z"/>
<path d="M3139 7705 c-40 -22 -210 -64 -287 -71 -105 -10 -107 -10 -110 -25
-6 -31 237 7 416 66 19 6 22 4 22 -19 0 -43 -29 -227 -47 -298 -9 -37 -13 -71
-9 -75 4 -4 29 5 56 20 46 26 50 26 58 10 5 -10 13 -37 17 -61 6 -38 27 -63
40 -50 3 2 -3 35 -13 73 -21 83 -37 96 -87 72 -35 -17 -36 -17 -31 0 10 32 34
186 41 259 7 73 -3 114 -28 114 -7 -1 -24 -7 -38 -15z"/>
<path d="M7530 7678 c-11 -18 -23 -49 -27 -68 -9 -50 -60 -200 -74 -216 -6 -7
-27 -16 -48 -20 -49 -9 -76 -23 -64 -35 6 -6 25 -6 51 -1 l42 10 -27 -47 c-15
-25 -31 -47 -35 -49 -4 -2 -8 -10 -8 -19 0 -33 36 -4 74 62 41 69 42 69 111
91 39 12 74 19 79 14 5 -5 0 -21 -12 -37 -25 -36 -52 -100 -44 -107 14 -15 32
-3 41 29 5 19 19 48 30 64 12 16 21 40 21 54 0 35 -35 41 -108 19 l-59 -19 29
96 c16 53 38 119 49 146 22 58 23 65 9 65 -6 0 -19 -15 -30 -32z"/>
<path d="M6687 7638 c-9 -29 -31 -93 -49 -143 l-33 -90 -45 -5 c-33 -4 -46
-10 -48 -23 -3 -15 2 -17 38 -11 l41 7 -26 -59 c-14 -33 -33 -69 -40 -81 -10
-14 -11 -24 -4 -28 17 -11 35 13 70 90 30 66 37 75 61 75 58 0 61 -8 28 -66
-31 -55 -38 -88 -20 -99 12 -7 69 80 77 118 3 15 23 45 44 67 31 32 46 40 74
40 40 0 47 17 10 26 -33 8 -75 -10 -110 -46 -22 -23 -32 -27 -46 -20 -10 6
-29 10 -43 10 -14 0 -26 2 -26 3 0 4 19 60 64 186 30 85 32 101 12 101 -7 0
-20 -23 -29 -52z"/>
<path d="M6125 7638 c-17 -49 -57 -187 -74 -256 -11 -46 -30 -104 -41 -129
-30 -68 -28 -74 28 -67 66 9 105 29 152 80 44 47 45 51 30 88 -14 38 -51 43
-103 12 l-44 -25 17 72 c10 40 29 106 43 147 13 41 23 78 20 83 -7 11 -23 8
-28 -5z m63 -307 c2 -14 -6 -33 -20 -48 -39 -42 -128 -80 -128 -55 0 19 62 94
93 112 38 24 51 21 55 -9z"/>
<path d="M10926 7602 c-14 -26 -68 -197 -83 -259 -7 -29 22 -32 30 -3 3 11 16
24 30 29 14 5 28 15 32 20 13 22 22 10 21 -26 -1 -32 2 -38 19 -38 18 0 20 7
20 54 0 68 -19 85 -65 59 -17 -9 -30 -16 -30 -15 0 10 41 138 51 160 9 20 9
31 2 38 -8 8 -16 3 -27 -19z"/>
<path d="M11690 7600 c0 -15 25 -40 40 -40 22 0 6 45 -17 48 -13 2 -23 -2 -23
-8z"/>
<path d="M2995 7568 c18 -55 17 -96 -4 -136 -49 -95 -58 -212 -18 -220 14 -3
15 4 10 46 -5 49 11 119 43 181 26 50 10 151 -24 151 -10 0 -12 -6 -7 -22z"/>
<path d="M4150 7577 c0 -7 7 -23 16 -36 22 -30 39 -13 23 22 -13 28 -39 37
-39 14z"/>
<path d="M7700 7551 c-12 -23 -5 -45 11 -35 6 3 21 -4 35 -17 13 -12 27 -19
31 -15 10 10 -17 56 -44 73 -19 13 -23 12 -33 -6z"/>
<path d="M9032 7554 c2 -12 30 -24 93 -40 50 -13 94 -23 98 -23 5 -1 7 -13 5
-28 -2 -21 -23 -43 -83 -90 -143 -113 -155 -124 -155 -144 0 -22 18 -26 26 -5
3 8 54 52 114 97 125 96 152 134 126 175 -9 13 -19 24 -21 24 -3 0 -48 11
-101 25 -114 30 -106 29 -102 9z"/>
<path d="M10620 7549 c0 -11 40 -48 53 -49 14 0 7 27 -11 43 -21 19 -42 22
-42 6z"/>
<path d="M3443 7535 c-7 -21 27 -59 40 -46 7 7 7 19 -1 36 -13 28 -30 33 -39
10z"/>
<path d="M12514 7536 c-17 -8 -55 -38 -84 -67 -30 -30 -61 -54 -69 -54 -9 0
-17 -11 -19 -25 -5 -30 -136 -342 -163 -387 -19 -30 -12 -52 11 -38 16 10 107
196 137 278 32 90 62 139 126 204 54 56 110 84 130 64 14 -14 -18 -84 -61
-132 -30 -35 -137 -116 -114 -87 10 12 10 18 1 23 -17 11 -63 -40 -55 -60 24
-62 236 118 263 223 3 13 1 34 -6 48 -12 28 -47 31 -97 10z"/>
<path d="M10000 7510 c-55 -17 -200 -90 -200 -100 0 -17 24 -12 96 21 122 55
120 56 57 -29 -32 -42 -65 -85 -74 -95 -34 -37 -54 -86 -41 -99 9 -9 21 -1 54
34 42 45 125 105 132 97 3 -2 0 -23 -7 -46 -8 -32 -8 -45 2 -57 20 -24 33 -20
78 24 38 36 83 126 83 165 0 8 5 17 10 20 10 6 14 45 5 45 -13 0 -55 -58 -66
-90 -16 -49 -68 -140 -80 -140 -6 0 -7 9 -2 23 4 12 8 40 8 62 0 34 -3 40 -22
43 -13 2 -37 -7 -55 -19 -28 -21 -26 -16 20 45 69 91 69 118 2 96z"/>
<path d="M13696 7487 c-44 -47 -86 -129 -89 -174 -3 -48 24 -55 28 -7 3 37 49
125 83 159 20 20 27 22 42 12 27 -16 37 -1 15 23 -25 28 -43 25 -79 -13z"/>
<path d="M11621 7481 c-22 -40 -61 -159 -61 -185 0 -17 5 -26 16 -26 9 0 14 7
12 18 -3 18 39 140 54 157 11 12 10 42 -1 50 -6 3 -15 -3 -20 -14z"/>
<path d="M13465 7490 c-37 -15 -125 -105 -125 -127 0 -42 28 -56 99 -50 77 6
129 23 114 38 -6 6 -27 6 -61 -1 -65 -14 -117 -10 -117 10 0 8 13 17 30 20 38
8 73 26 103 53 26 24 27 31 6 51 -17 18 -21 18 -49 6z m16 -44 c-6 -8 -21 -16
-32 -19 -20 -5 -20 -5 -3 14 20 23 54 28 35 5z"/>
<path d="M6390 7464 c-81 -45 -92 -86 -35 -130 19 -14 35 -32 35 -40 0 -20
-50 -49 -85 -49 -20 0 -30 -5 -30 -15 0 -33 67 -24 114 16 48 40 38 86 -25
122 -15 9 -17 15 -8 29 13 21 85 64 96 57 13 -8 27 6 21 21 -8 21 -32 18 -83
-11z"/>
<path d="M12810 7477 c0 -7 -14 -26 -31 -43 -42 -40 -81 -109 -77 -136 5 -37
44 -35 85 4 19 18 40 44 47 58 19 37 27 102 14 117 -14 17 -38 17 -38 0z m5
-85 c-3 -16 -21 -44 -40 -62 -60 -59 -55 -17 8 63 33 42 42 42 32 -1z"/>
<path d="M13002 7463 c-37 -53 -63 -114 -57 -134 14 -43 84 -45 141 -4 20 13
22 13 27 -5 4 -14 14 -20 35 -20 46 0 94 39 129 105 36 68 39 85 18 85 -9 0
-27 -27 -44 -65 -23 -51 -37 -68 -65 -82 -20 -9 -39 -13 -43 -10 -4 4 3 28 15
53 21 43 22 64 2 64 -4 0 -22 -19 -39 -42 -37 -51 -77 -78 -113 -78 -22 0 -28
5 -28 20 0 22 21 61 53 97 18 20 16 43 -3 43 -5 0 -17 -12 -28 -27z"/>
<path d="M7182 7446 c-105 -95 -90 -176 33 -176 41 0 45 2 45 24 0 13 6 26 13
29 8 3 9 8 2 15 -14 14 -55 -3 -55 -23 0 -13 -6 -15 -32 -10 -41 9 -48 13 -48
29 0 24 62 98 91 109 16 6 29 17 29 24 0 24 -40 13 -78 -21z"/>
<path d="M7794 7459 c-3 -5 -2 -18 1 -29 4 -11 2 -20 -4 -20 -15 0 -61 -72
-61 -96 0 -49 72 -72 110 -34 24 24 25 51 4 114 -13 37 -14 50 -4 56 8 5 3 9
-14 12 -15 3 -29 1 -32 -3z m32 -106 c9 -34 -7 -58 -37 -58 -20 0 -23 5 -21
24 2 25 28 61 43 61 5 0 12 -12 15 -27z"/>
<path d="M4841 7425 c-43 -39 -76 -98 -67 -121 8 -20 46 -17 81 6 17 11 33 20
36 20 4 0 4 -19 2 -43 -5 -44 14 -76 37 -62 14 9 13 32 -2 37 -9 3 -7 21 7 68
14 45 16 65 8 67 -7 3 -9 11 -6 19 7 19 -15 44 -38 44 -11 0 -36 -16 -58 -35z
m72 -15 c5 -19 -27 -50 -80 -79 -38 -20 -28 11 18 58 47 46 55 49 62 21z"/>
<path d="M10665 7441 c-39 -24 -81 -70 -89 -98 -5 -17 0 -29 19 -49 21 -21 31
-24 58 -19 47 10 114 44 121 61 11 28 -5 36 -28 16 -28 -25 -101 -53 -121 -46
-8 3 -15 15 -15 26 0 21 61 84 91 93 10 4 16 12 12 21 -7 18 -12 18 -48 -5z"/>
<path d="M11709 7440 c-15 -11 -34 -32 -44 -46 -15 -24 -15 -28 1 -75 17 -46
17 -50 1 -66 -16 -16 -17 -16 -17 4 0 33 -19 38 -30 9 -21 -56 25 -76 74 -31
29 27 31 39 11 75 -23 39 -18 63 20 100 19 19 35 38 35 42 0 14 -24 8 -51 -12z"/>
<path d="M3556 7424 c-69 -47 -67 -72 9 -93 67 -18 74 -27 34 -44 -19 -8 -47
-19 -64 -24 -41 -12 -47 -43 -8 -42 32 1 110 45 127 72 14 24 -18 52 -77 68
l-42 11 24 17 c14 9 34 23 44 32 35 28 -6 31 -47 3z"/>
<path d="M5039 7433 c-1 -38 -10 -70 -34 -117 -49 -98 -24 -101 48 -5 57 75
88 97 108 73 10 -13 8 -24 -10 -67 -30 -69 -33 -80 -22 -96 11 -17 31 -6 31
18 0 11 9 38 20 62 25 56 25 84 0 109 -26 26 -40 25 -82 -4 l-36 -24 2 31 c0
16 -5 32 -11 34 -7 3 -13 -4 -14 -14z"/>
<path d="M7990 7439 c0 -7 -18 -40 -40 -75 -39 -61 -50 -94 -31 -94 5 0 42 31
82 69 l74 70 3 -42 c5 -63 26 -80 87 -72 77 10 95 16 95 32 0 12 -8 13 -42 7
-24 -4 -56 -8 -73 -8 -30 -1 -30 0 -30 51 0 72 -14 83 -63 50 l-39 -25 5 24
c3 17 0 24 -12 24 -9 0 -16 -5 -16 -11z"/>
<path d="M4105 7337 c-49 -95 -54 -132 -18 -125 13 2 20 16 24 46 3 24 19 62
36 86 30 43 37 76 16 83 -5 2 -31 -39 -58 -90z"/>
<path d="M4264 7420 c-37 -15 -37 -30 -4 -76 17 -24 30 -52 28 -62 -5 -25 -44
-27 -58 -3 -14 28 -30 27 -30 -2 0 -33 18 -47 60 -47 20 0 41 5 48 12 21 21
14 74 -15 108 -21 26 -24 33 -12 41 8 5 22 6 32 3 14 -5 18 -1 15 13 -4 20
-32 26 -64 13z"/>
<path d="M10481 7370 c-31 -60 -39 -100 -22 -100 11 0 81 141 75 152 -11 18
-24 5 -53 -52z"/>
<path d="M5758 7361 c-61 -63 -78 -101 -58 -126 20 -24 54 -17 103 20 l46 35
-9 -29 c-15 -55 9 -108 44 -95 20 8 21 23 1 30 -19 8 -19 50 0 105 12 33 13
44 3 50 -7 4 -16 5 -20 3 -4 -3 -8 8 -8 24 0 26 -14 42 -38 42 -3 0 -32 -27
-64 -59z m69 -15 c-2 -27 -11 -42 -41 -65 -45 -36 -56 -38 -56 -12 0 19 75
111 90 111 5 0 8 -15 7 -34z"/>
<path d="M2575 7390 c-7 -12 12 -40 27 -40 13 0 6 43 -9 47 -6 2 -14 -1 -18
-7z"/>
<path d="M8723 7393 c-16 -6 -17 -29 -3 -38 6 -4 17 -2 24 4 6 6 61 12 121 13
76 2 110 7 113 16 3 9 -25 12 -120 11 -67 0 -129 -3 -135 -6z"/>
<path d="M6915 7371 c-69 -42 -108 -121 -64 -129 9 -2 41 8 70 22 59 29 73 32
66 13 -7 -20 21 -79 35 -74 7 2 11 11 9 18 -2 8 -7 34 -10 59 -7 54 -18 56
-104 16 l-59 -27 22 31 c20 28 53 52 75 56 6 0 14 2 19 2 9 2 -12 32 -23 32
-3 0 -20 -8 -36 -19z"/>
<path d="M3430 7346 c-19 -52 -16 -126 5 -126 11 0 15 11 15 38 0 20 3 54 6
75 8 43 -11 52 -26 13z"/>
<path d="M3430 7109 c0 -11 -20 -72 -45 -136 -25 -63 -45 -119 -45 -124 0 -20
31 -7 81 36 29 25 56 45 60 45 3 0 9 -25 11 -56 5 -62 34 -101 78 -106 30 -4
35 24 6 28 -37 5 -51 32 -52 96 -1 84 -17 94 -79 50 -25 -17 -45 -28 -45 -24
0 4 14 43 30 85 33 87 38 127 15 127 -9 0 -15 -9 -15 -21z"/>
<path d="M2986 7063 c-16 -132 -89 -272 -166 -317 -29 -16 -33 -17 -47 -3 -14
13 -14 22 -4 59 10 35 22 51 63 78 28 19 55 36 59 36 5 1 14 2 19 3 16 2 12
18 -6 25 -22 8 -93 -34 -132 -78 -83 -95 -29 -207 69 -142 88 59 159 193 175
335 5 51 4 61 -9 61 -11 0 -17 -16 -21 -57z"/>
<path d="M3878 7058 c-9 -18 -24 -58 -33 -88 -10 -30 -30 -76 -46 -102 -36
-60 -48 -118 -25 -118 9 0 21 11 25 24 5 13 23 45 39 72 16 27 40 79 52 117
13 37 27 67 32 67 4 0 8 14 8 30 0 42 -30 40 -52 -2z"/>
<path d="M3227 6973 c-2 -5 -7 -21 -11 -36 -9 -40 -89 -117 -121 -117 -33 0
-33 25 0 89 22 45 23 61 4 61 -5 0 -20 -22 -34 -50 -65 -127 3 -183 109 -89
44 38 90 114 82 134 -6 16 -22 20 -29 8z"/>
<path d="M2332 6688 c-7 -7 -12 -23 -12 -37 0 -27 -47 -105 -85 -141 -27 -26
-33 -50 -11 -50 13 0 74 74 109 130 31 52 30 129 -1 98z"/>
<path d="M3740 6625 c-6 -8 -9 -18 -6 -24 10 -16 46 0 46 20 0 23 -23 25 -40
4z"/>
<path d="M5922 6403 c-122 -330 -200 -489 -226 -463 -7 7 -12 89 -14 230 -3
175 -7 220 -17 220 -20 0 -20 -13 -15 -239 4 -175 8 -211 23 -234 10 -15 24
-27 31 -27 19 0 108 141 138 220 14 36 42 109 62 162 21 54 43 97 49 95 7 -1
12 10 12 28 0 40 -29 46 -43 8z"/>
<path d="M7167 6243 c-27 -98 -63 -230 -80 -294 l-31 -116 -276 -13 c-323 -15
-1513 -9 -1890 10 -129 7 -289 12 -355 12 -146 -1 -603 -21 -628 -28 -10 -3
-228 -9 -485 -13 -376 -6 -471 -5 -487 5 -17 11 -24 10 -44 -5 -13 -10 -21
-23 -18 -28 8 -13 642 -7 937 8 514 26 584 27 980 16 253 -7 1060 -12 2150
-12 960 0 1810 -3 1890 -8 80 -4 208 -10 285 -13 127 -5 509 -28 900 -54 338
-23 469 -29 640 -30 186 0 225 4 225 24 0 8 -41 11 -132 11 -125 1 -348 12
-688 35 -980 67 -1386 81 -2301 82 l-657 0 5 22 c3 11 14 53 24 93 11 40 22
89 25 110 2 21 22 105 44 186 44 162 46 177 27 177 -7 0 -30 -68 -60 -177z"/>
<path d="M3244 6368 c-69 -54 -152 -196 -183 -313 l-23 -85 21 -44 c15 -30 32
-48 54 -57 45 -19 144 -18 187 3 19 9 47 20 63 23 30 8 41 20 32 34 -3 6 -29
2 -62 -10 -77 -26 -181 -26 -216 1 -52 41 -37 150 41 288 74 133 158 191 182
127 11 -29 17 -30 44 -10 18 14 16 52 -3 41 -5 -3 -14 1 -21 9 -19 23 -83 19
-116 -7z"/>
<path d="M6856 6289 c-2 -8 -16 -68 -31 -134 -14 -66 -39 -160 -54 -208 -26
-85 -24 -122 5 -83 11 16 13 16 19 -3 3 -12 18 -24 31 -27 20 -5 33 1 61 27
60 58 76 104 47 133 -21 22 -60 20 -93 -4 l-28 -19 24 97 c41 170 48 211 35
224 -9 9 -12 8 -16 -3z m61 -325 c2 -6 -7 -26 -20 -45 -24 -36 -59 -48 -82
-29 -13 10 -12 16 6 39 35 44 87 64 96 35z"/>
<path d="M6497 6228 c-11 -9 -14 -18 -7 -28 7 -12 12 -12 29 4 31 28 12 49
-22 24z"/>
<path d="M9101 6139 c-28 -28 -60 -68 -71 -88 -28 -55 -81 -65 -94 -18 -3 12
-6 34 -6 50 0 15 -3 27 -7 27 -4 0 -32 -24 -61 -52 l-54 -53 8 35 c21 93 5
108 -57 53 -44 -39 -45 -38 -21 26 3 9 -1 12 -14 9 -13 -2 -23 -20 -35 -63 -9
-33 -26 -79 -38 -102 -11 -23 -21 -51 -21 -63 0 -33 26 -23 42 18 16 39 106
167 114 160 2 -3 -1 -30 -7 -61 -5 -32 -7 -62 -3 -68 4 -7 29 11 64 46 l57 57
11 -30 c12 -34 45 -56 73 -49 16 4 18 1 13 -18 -10 -41 33 -71 91 -65 27 3
108 45 125 64 23 28 0 32 -42 7 -73 -42 -138 -37 -138 10 0 10 13 25 29 33 71
37 153 186 102 186 -5 0 -31 -23 -60 -51z m10 -47 c-21 -30 -51 -58 -51 -49 0
8 60 77 67 77 2 0 -5 -13 -16 -28z"/>
<path d="M9333 6160 c-13 -5 -23 -13 -23 -17 0 -4 28 -33 62 -63 54 -49 60
-59 55 -82 -10 -37 -92 -104 -110 -89 -8 6 -17 8 -20 4 -14 -13 -6 -43 14 -53
17 -10 27 -7 60 16 102 71 130 149 69 196 -77 59 -86 67 -67 68 9 0 17 7 17
15 0 17 -23 19 -57 5z"/>
<path d="M4037 6088 c-39 -114 -41 -128 -18 -128 13 0 32 20 56 60 37 61 84
102 73 64 -26 -89 -31 -114 -25 -121 4 -4 39 24 77 62 39 38 70 67 70 64 0 -2
-9 -30 -20 -62 -24 -68 -25 -83 -4 -91 21 -8 18 -9 43 13 21 18 14 40 -9 26
-16 -10 -12 12 14 85 14 37 22 71 19 74 -15 15 -42 2 -89 -42 l-50 -48 1 45
c0 58 -20 64 -68 21 l-36 -31 10 33 c12 43 12 48 -5 48 -8 0 -24 -30 -39 -72z"/>
<path d="M8306 6114 c-41 -41 -55 -35 -18 8 13 16 13 18 -3 24 -18 7 -45 -18
-45 -42 0 -6 -16 -46 -35 -88 -51 -112 -45 -142 12 -63 71 96 101 133 118 147
17 14 18 13 12 -10 -20 -72 -36 -161 -31 -175 8 -20 54 -20 54 0 0 8 -4 15
-10 15 -15 0 -12 38 11 125 31 119 12 136 -65 59z"/>
<path d="M5992 6135 c-26 -19 -72 -94 -72 -119 0 -29 29 -29 70 -2 l40 26 0
-39 c0 -43 20 -71 51 -71 26 0 24 26 -2 33 -20 5 -21 10 -15 57 8 62 -7 72
-57 41 -46 -28 -53 -26 -32 7 23 36 44 52 60 46 18 -7 30 16 14 27 -20 12 -32
11 -57 -6z"/>
<path d="M6248 6131 c-24 -20 -98 -154 -98 -180 0 -31 34 -1 51 44 22 61 70
120 95 120 26 0 24 29 -2 33 -11 2 -32 -6 -46 -17z"/>
<path d="M4446 6125 c-25 -25 -52 -123 -40 -143 19 -30 52 -26 89 11 45 45 51
98 13 130 -25 21 -42 22 -62 2z m54 -62 c0 -24 -40 -73 -60 -73 -15 0 -12 23
10 75 17 40 23 45 35 35 8 -7 15 -23 15 -37z"/>
<path d="M7268 6098 c-33 -26 -56 -51 -57 -63 0 -11 -3 -39 -7 -61 -5 -36 -2
-46 23 -74 24 -27 36 -32 70 -32 47 1 126 42 132 68 3 16 1 17 -13 5 -9 -7
-16 -10 -16 -6 0 4 -6 3 -13 -3 -7 -6 -36 -14 -64 -18 -47 -6 -52 -4 -68 19
-16 24 -15 28 3 71 17 37 29 48 70 66 70 30 83 70 23 70 -18 0 -49 -16 -83
-42z"/>
<path d="M8483 6073 c-53 -57 -71 -92 -58 -112 10 -17 47 -13 83 9 18 11 34
20 36 20 2 0 4 -16 3 -35 -1 -46 17 -65 40 -42 11 11 13 17 5 17 -17 0 -15 43
3 87 22 53 5 64 -40 25 -38 -34 -94 -66 -101 -59 -6 6 60 85 100 119 31 27 31
27 6 28 -17 0 -40 -17 -77 -57z"/>
<path d="M3530 6093 c0 -10 -12 -41 -27 -70 -26 -50 -27 -55 -13 -80 22 -39
55 -41 91 -7 32 31 36 56 15 96 -10 19 -11 29 -3 37 9 9 6 13 -11 17 -12 4
-22 10 -22 15 0 5 -7 9 -15 9 -8 0 -15 -8 -15 -17z m44 -89 c5 -18 2 -32 -10
-45 -42 -46 -64 2 -28 59 17 27 29 22 38 -14z"/>
<path d="M4680 6048 c-22 -33 -40 -67 -40 -75 0 -26 29 -13 57 26 30 41 61 66
71 56 3 -3 8 -32 10 -66 6 -87 41 -99 110 -36 26 24 28 34 8 34 -8 0 -14 -5
-13 -11 1 -6 -6 -11 -15 -11 -9 0 -20 -4 -24 -8 -18 -17 -34 -6 -34 26 0 17
-5 49 -11 70 -8 30 -15 37 -34 37 -14 0 -25 5 -25 10 0 25 -24 5 -60 -52z"/>
<path d="M3770 6075 c-19 -14 -37 -30 -41 -36 -4 -7 -9 -4 -14 10 -3 11 -12
21 -19 21 -15 0 -29 -119 -16 -133 4 -5 21 11 38 35 33 48 79 94 87 87 2 -3 0
-21 -5 -40 -25 -85 -7 -89 64 -14 28 30 57 55 64 55 8 0 11 -21 9 -67 -1 -51
1 -68 11 -68 18 0 27 141 11 161 -18 22 -33 17 -82 -26 l-46 -41 9 32 c16 56
-13 66 -70 24z"/>
<path d="M6416 6055 c-36 -84 -50 -145 -38 -157 20 -20 43 13 46 64 2 24 11
59 20 76 16 32 15 52 -4 52 -6 0 -16 -16 -24 -35z"/>
<path d="M6547 6012 c-38 -39 -46 -69 -25 -90 18 -18 41 -15 81 12 l36 25 3
-37 c2 -27 8 -38 22 -40 16 -4 18 0 13 27 -4 21 0 49 12 81 26 67 10 73 -47
17 -42 -40 -81 -67 -96 -67 -19 0 0 33 34 63 37 32 42 47 15 47 -6 0 -28 -17
-48 -38z"/>
<path d="M6096 5981 c-3 -5 0 -14 8 -20 10 -9 15 -8 19 3 9 22 -15 37 -27 17z"/>
<path d="M13835 5525 c-57 -20 -121 -95 -171 -200 -44 -92 -112 -310 -101
-322 26 -25 139 213 186 394 13 46 56 87 110 103 39 11 61 -8 61 -53 0 -41
-27 -86 -128 -221 -77 -101 -91 -131 -65 -131 6 0 30 24 54 54 24 30 51 63 60
74 16 20 18 19 48 -34 18 -30 36 -61 41 -69 5 -8 11 -28 15 -43 8 -38 61 -61
119 -52 85 14 126 27 126 42 0 12 -7 13 -27 8 -79 -20 -137 -24 -162 -12 -37
18 -34 49 6 59 44 11 85 62 81 102 -5 51 -39 47 -97 -13 l-49 -50 -35 60 -35
59 33 51 c56 82 60 180 9 199 -31 12 -30 12 -79 -5z m220 -325 c-7 -23 -48
-54 -65 -48 -6 2 6 20 26 41 39 40 50 42 39 7z"/>
<path d="M5932 5428 c1 -30 -10 -105 -26 -173 -36 -154 -41 -200 -27 -210 25
-15 38 16 44 98 2 45 15 123 26 173 23 94 20 153 -7 162 -9 3 -12 -11 -10 -50z"/>
<path d="M8065 5438 c-53 -62 -68 -95 -67 -155 l0 -53 -41 0 c-23 0 -49 -5
-57 -10 -25 -17 8 -29 60 -23 43 5 48 3 53 -18 8 -31 9 -83 1 -103 -3 -9 -15
-16 -26 -16 -26 0 -18 -24 10 -28 36 -5 56 38 50 112 l-6 64 42 5 c22 3 51 8
63 11 l22 5 -20 -39 c-27 -51 -35 -106 -19 -125 16 -19 61 -19 105 -1 27 12
35 21 35 41 0 33 -16 65 -44 87 -18 15 -19 20 -8 39 7 11 11 24 7 27 -5 5
-137 -13 -177 -24 -16 -5 -18 2 -18 49 0 43 6 63 31 101 33 49 65 74 80 59 5
-5 15 -26 22 -48 19 -54 42 -61 34 -9 -8 50 -37 88 -69 92 -20 2 -34 -7 -63
-40z m154 -284 c26 -33 26 -50 2 -64 -26 -13 -71 -13 -71 1 0 29 24 89 36 89
7 0 22 -12 33 -26z"/>
<path d="M10957 5453 c-3 -5 -12 -30 -20 -58 -9 -27 -35 -95 -57 -150 -48
-116 -58 -188 -25 -193 12 -1 40 15 73 43 l52 47 0 -36 c0 -36 27 -76 51 -76
6 0 33 8 59 17 37 13 51 25 69 57 28 53 58 92 65 85 3 -3 0 -31 -6 -62 -11
-50 -10 -59 4 -74 15 -14 19 -14 33 -3 16 13 15 15 -1 27 -17 12 -17 16 -2 64
12 35 14 58 8 75 -11 29 -20 30 -53 4 -22 -17 -26 -18 -31 -4 -3 8 -11 12 -17
9 -6 -4 -8 -13 -5 -21 3 -8 2 -14 -3 -14 -5 0 -13 -19 -19 -43 -13 -51 -59
-85 -92 -67 -24 13 -25 41 -4 119 18 62 14 91 -10 91 -13 0 -28 -24 -79 -122
-10 -20 -34 -49 -54 -64 l-35 -27 7 34 c4 18 25 76 47 129 22 52 44 113 50
135 6 22 15 45 20 52 10 13 3 33 -12 33 -5 0 -11 -3 -13 -7z"/>
<path d="M9253 5438 c-8 -10 -73 -367 -73 -400 0 -5 6 -8 14 -8 15 0 25 37 47
165 25 153 51 208 102 220 20 5 32 1 51 -19 39 -38 33 -108 -18 -229 -16 -36
-14 -57 4 -57 5 0 23 25 40 56 l32 55 18 -29 c10 -17 27 -35 36 -40 14 -8 18
-20 15 -54 -3 -53 15 -73 74 -82 47 -7 107 5 113 22 2 8 -16 11 -67 11 -82 -1
-91 3 -91 40 0 26 3 29 46 34 54 6 87 33 87 72 0 56 -46 58 -107 5 -21 -19
-40 -28 -50 -24 -18 7 -56 74 -56 99 0 8 -4 15 -10 15 -5 0 -10 18 -10 40 0
54 -22 94 -59 110 -31 12 -86 6 -97 -11 -3 -6 -11 -3 -18 6 -10 14 -14 14 -23
3z m397 -247 c0 -18 -54 -50 -66 -39 -4 5 52 58 62 58 2 0 4 -8 4 -19z"/>
<path d="M12720 5365 c0 -24 24 -44 37 -31 9 8 -14 56 -27 56 -5 0 -10 -11
-10 -25z"/>
<path d="M3041 5333 c-21 -21 -44 -48 -53 -61 l-15 -23 -36 36 c-28 28 -43 36
-64 33 -17 -2 -28 -9 -28 -18 0 -9 8 -14 21 -13 30 3 76 -41 67 -64 -3 -10
-22 -40 -41 -66 -32 -44 -36 -47 -52 -32 -16 14 -17 13 -16 -22 2 -60 27 -55
80 18 26 35 44 54 44 43 -5 -66 44 -111 108 -99 43 8 48 18 26 46 -20 23 -45
19 -35 -6 7 -20 -17 -19 -45 1 -48 33 -18 131 63 202 26 23 44 46 40 52 -11
18 -26 11 -64 -27z"/>
<path d="M7330 5314 c-27 -25 -52 -55 -56 -66 -4 -15 -9 -17 -20 -7 -8 6 -14
20 -14 30 0 36 -19 28 -80 -34 -34 -34 -60 -54 -56 -44 3 10 9 43 12 73 6 51
6 54 -16 54 -13 0 -39 -17 -61 -39 l-39 -39 0 30 c0 51 -23 26 -36 -39 -7 -34
-17 -70 -23 -82 -14 -25 -14 -61 0 -61 5 0 16 15 24 33 30 71 146 206 120 140
-3 -10 -9 -39 -12 -65 -8 -70 13 -73 85 -11 57 50 57 50 73 29 9 -11 18 -41
22 -65 3 -29 15 -53 32 -70 22 -23 33 -26 90 -25 36 0 68 4 72 7 3 4 1 18 -5
31 -8 19 -8 26 1 29 7 2 9 8 5 12 -12 13 -38 -3 -38 -24 0 -25 -38 -37 -77
-24 -51 17 -74 105 -30 118 33 11 67 45 88 90 37 80 12 88 -61 19z m14 -39
c-9 -14 -19 -23 -22 -20 -5 4 26 45 35 45 2 0 -4 -11 -13 -25z"/>
<path d="M3517 5336 c-18 -14 -24 -66 -6 -66 17 0 39 27 39 49 0 26 -11 32
-33 17z"/>
<path d="M4333 5315 c-36 -15 -91 -77 -99 -112 -10 -37 16 -55 59 -41 63 20
81 16 94 -22 6 -19 12 -56 12 -81 1 -44 -1 -48 -41 -74 -80 -52 -128 -97 -149
-137 -27 -53 -19 -88 19 -88 58 0 167 110 192 195 16 53 100 108 169 110 50 2
110 29 160 70 32 27 40 20 20 -17 -8 -15 -8 -23 1 -32 9 -8 16 -5 28 12 10 13
41 48 70 78 78 80 102 72 78 -23 -8 -32 -18 -82 -22 -110 -6 -45 -4 -53 10
-53 9 0 16 7 16 15 0 8 11 49 25 91 31 94 32 133 4 163 -32 34 -74 22 -126
-35 l-43 -46 0 36 c0 47 -15 46 -39 -2 -11 -21 -36 -51 -55 -66 -33 -25 -104
-56 -129 -56 -6 0 17 28 51 63 70 74 98 141 67 164 -24 16 -43 5 -92 -54 -46
-55 -68 -94 -77 -140 -5 -23 -20 -40 -54 -62 l-47 -31 -8 63 c-10 80 -33 113
-78 110 -19 0 -46 -4 -61 -8 -39 -10 -36 6 10 55 53 55 102 54 113 -3 6 -26
23 -26 27 1 8 54 -49 90 -105 67z m333 -82 c-14 -28 -96 -113 -96 -101 0 22
25 64 62 104 44 48 60 46 34 -3z m-291 -307 c-29 -60 -155 -166 -155 -130 0
29 44 84 99 125 36 26 67 46 69 44 2 -2 -4 -19 -13 -39z"/>
<path d="M6752 5300 c-65 -47 -104 -144 -70 -178 18 -18 36 -15 89 18 l49 30
-6 -43 c-5 -33 -2 -46 10 -56 22 -18 46 1 28 21 -13 16 -3 67 21 115 18 33 23
83 9 83 -5 0 -22 -20 -40 -45 -32 -46 -118 -109 -133 -99 -36 22 44 144 95
144 21 0 31 21 15 31 -20 13 -22 12 -67 -21z"/>
<path d="M11780 5304 c-6 -14 -10 -45 -10 -68 0 -44 -29 -96 -54 -96 -6 0 -17
14 -23 30 -14 38 -34 38 -70 -1 -15 -16 -36 -35 -45 -40 -28 -15 -23 23 7 55
14 15 25 31 25 37 0 17 -26 9 -48 -13 -40 -44 -48 -99 -18 -120 18 -13 25 -10
71 33 l44 41 12 -25 c16 -34 34 -40 69 -22 39 20 53 47 61 120 4 33 10 68 14
78 5 12 2 17 -9 17 -9 0 -21 -12 -26 -26z"/>
<path d="M6544 5310 c-11 -4 -37 -27 -57 -51 -21 -23 -37 -37 -37 -31 0 7 -7
12 -15 12 -11 0 -15 -11 -15 -35 0 -20 -9 -53 -20 -75 -21 -42 -26 -70 -11
-70 5 0 33 42 64 93 59 98 80 123 112 129 22 3 24 -16 10 -100 -9 -50 8 -92
37 -92 23 0 23 19 1 35 -15 12 -16 18 -1 85 15 69 15 73 -3 91 -21 21 -33 22
-65 9z"/>
<path d="M8435 5300 c-3 -5 -8 -18 -10 -29 -8 -43 -48 -167 -56 -175 -12 -13
-12 -56 0 -56 17 0 31 28 56 116 31 107 41 119 57 76 7 -18 18 -32 25 -32 17
0 16 16 -3 67 -13 33 -22 43 -40 43 -12 0 -26 -4 -29 -10z"/>
<path d="M10597 5303 c-3 -5 -8 -28 -11 -53 -4 -25 -16 -71 -28 -103 -12 -35
-17 -62 -12 -67 13 -13 24 -3 68 58 21 29 40 52 41 50 1 -2 -1 -29 -5 -60 -8
-56 0 -122 17 -139 4 -4 15 -4 23 1 12 7 12 12 2 22 -15 15 -16 115 -1 177 15
66 -2 74 -50 27 -33 -33 -39 -35 -34 -16 4 13 1 25 -8 31 -11 7 -10 9 4 9 13
0 17 8 17 35 0 32 -12 46 -23 28z"/>
<path d="M5139 5280 c-113 -59 -117 -165 -7 -177 53 -6 108 9 133 37 17 19 17
20 -1 20 -11 0 -24 -4 -30 -10 -5 -5 -31 -13 -57 -16 -35 -5 -53 -2 -72 10
-33 22 -32 44 3 52 54 12 62 16 92 41 39 32 40 63 3 63 -16 -1 -44 -10 -64
-20z m17 -35 c-11 -8 -24 -15 -30 -15 -5 0 -1 7 10 15 10 8 24 14 29 14 6 0 1
-6 -9 -14z"/>
<path d="M10311 5246 c-17 -29 -31 -58 -31 -63 0 -6 -27 -40 -61 -77 -37 -41
-59 -72 -55 -81 4 -12 10 -12 36 3 16 9 30 24 30 33 0 9 9 24 20 34 19 18 20
17 20 -4 0 -37 40 -47 88 -22 51 26 52 26 52 -2 0 -23 17 -47 32 -47 5 0 8 10
6 23 -3 28 20 108 37 127 20 22 29 67 15 75 -15 10 -34 -9 -63 -65 -17 -32
-37 -52 -72 -72 -27 -14 -53 -24 -57 -22 -16 10 -7 66 16 97 26 36 48 95 40
108 -11 18 -23 8 -53 -45z"/>
<path d="M5354 5255 c-44 -58 -68 -145 -41 -145 16 0 37 41 37 70 0 11 13 34
29 52 28 32 30 32 65 20 24 -9 41 -10 53 -4 14 9 11 12 -21 26 -62 26 -91 21
-122 -19z"/>
<path d="M11895 5238 c-52 -68 -64 -89 -65 -110 0 -32 21 -19 84 47 34 36 67
65 74 65 10 0 13 -17 10 -71 -2 -49 1 -73 9 -76 12 -4 28 87 25 137 -3 37 -25
55 -51 41 -17 -10 -21 -9 -21 4 0 29 -26 15 -65 -37z"/>
<path d="M5519 5221 c-82 -81 -22 -168 63 -92 l33 29 10 -31 c13 -40 30 -33
31 13 0 19 4 47 8 63 12 41 -8 34 -71 -23 -56 -51 -75 -57 -81 -27 -5 23 52
79 72 71 12 -4 16 0 16 15 0 34 -38 26 -81 -18z"/>
<path d="M2427 5230 c-27 -22 -35 -54 -17 -65 34 -21 85 44 57 72 -11 12 -18
10 -40 -7z"/>
<path d="M12642 5218 c-18 -39 -44 -129 -38 -135 15 -15 34 10 46 61 7 32 17
59 22 62 4 3 8 12 8 20 0 22 -25 17 -38 -8z"/>
<path d="M11390 5221 c0 -5 -13 -23 -29 -39 -36 -35 -48 -75 -32 -108 16 -37
73 -34 113 6 26 27 30 36 25 67 -4 20 -16 46 -28 59 -23 24 -49 32 -49 15z
m41 -107 c-11 -24 -52 -41 -70 -29 -19 11 -12 35 22 69 l32 33 14 -25 c10 -18
10 -31 2 -48z"/>
<path d="M12786 5149 c-48 -51 -55 -63 -44 -76 11 -13 14 -12 28 8 8 13 30 41
49 62 40 45 51 37 49 -35 -1 -44 13 -78 32 -78 4 0 5 30 3 68 -5 69 -23 112
-47 112 -8 0 -39 -27 -70 -61z"/>
<path d="M3475 5124 c-19 -19 -16 -49 4 -49 9 0 16 13 18 33 5 36 1 39 -22 16z"/>
<path d="M14200 5076 c0 -9 5 -16 10 -16 6 0 10 4 10 9 0 6 -4 13 -10 16 -5 3
-10 -1 -10 -9z"/>
<path d="M14967 4993 c-14 -45 -28 -102 -42 -165 -6 -31 -11 -32 -69 -18 -22
5 -44 6 -48 3 -19 -11 15 -32 61 -38 l49 -7 -26 -94 c-14 -52 -22 -97 -18
-101 18 -18 42 21 66 108 l27 94 64 5 c35 3 70 9 77 13 27 18 8 24 -62 19
l-75 -5 5 64 c5 70 21 129 34 129 4 0 6 9 3 20 -9 35 -31 22 -46 -27z"/>
<path d="M12460 4956 c-5 -15 -10 -30 -10 -34 0 -3 -11 -44 -26 -90 -23 -77
-28 -85 -60 -98 -35 -15 -43 -42 -10 -36 21 4 21 3 -14 -80 -34 -79 -36 -88
-16 -88 8 0 30 40 52 95 l39 95 50 10 c27 5 59 11 69 12 11 2 21 9 24 17 4 12
-7 13 -62 8 -61 -6 -66 -5 -57 11 5 9 19 54 31 100 16 60 20 86 12 94 -8 8
-14 4 -22 -16z"/>
<path d="M3730 4883 c-17 -49 -34 -102 -37 -120 -4 -23 -12 -33 -30 -38 -25
-6 -27 -31 -1 -29 12 1 12 -8 1 -64 -8 -35 -12 -66 -11 -68 12 -12 32 23 42
72 l12 59 46 3 c54 4 62 -7 42 -63 -18 -51 -17 -55 2 -55 11 0 15 6 11 20 -3
11 -2 18 2 15 9 -5 31 38 31 59 0 28 -35 57 -73 60 -21 2 -40 6 -43 9 -6 6 25
110 50 169 20 46 20 58 2 58 -9 0 -27 -34 -46 -87z"/>
<path d="M11613 4960 c-12 -5 -40 -27 -61 -49 -45 -46 -64 -104 -56 -166 l6
-40 -81 -19 c-73 -17 -93 -30 -75 -49 4 -3 23 1 44 9 21 9 60 16 86 17 48 2
48 2 56 -37 14 -65 -38 -142 -190 -280 -33 -30 -51 -54 -48 -62 10 -27 60 11
148 111 104 119 128 163 125 230 l-2 50 40 0 c52 0 56 26 5 32 -19 2 -44 5
-55 7 -25 3 -36 53 -23 106 7 26 25 53 54 80 45 42 70 44 76 7 2 -11 9 -22 16
-25 19 -6 15 53 -6 71 -21 19 -27 20 -59 7z"/>
<path d="M6427 4921 c-3 -16 -25 -73 -48 -127 -39 -92 -69 -182 -69 -211 0 -7
6 -13 14 -13 8 0 20 24 30 66 9 36 35 106 57 156 42 92 53 148 33 155 -6 2
-14 -9 -17 -26z"/>
<path d="M10273 4917 c-5 -6 -19 -46 -32 -87 -12 -41 -27 -86 -33 -100 -37
-89 -58 -146 -58 -163 0 -38 26 -9 57 64 17 41 37 87 44 103 26 62 111 136
155 136 25 0 14 -61 -30 -155 -34 -74 -39 -105 -17 -105 5 0 26 27 47 60 20
33 38 60 39 60 1 0 18 -7 38 -15 27 -11 35 -20 35 -40 0 -35 27 -63 75 -76 42
-11 137 -3 137 12 0 5 5 8 11 7 6 -2 14 3 16 11 4 10 -3 11 -38 5 -56 -11
-138 -7 -155 7 -8 6 -14 22 -14 34 0 18 7 24 40 29 22 3 49 15 60 26 43 43 9
105 -42 79 -13 -6 -37 -25 -55 -42 -31 -29 -33 -29 -75 -17 l-44 13 10 47 c11
53 5 74 -22 89 -15 8 -30 5 -65 -13 l-46 -23 -6 28 c-8 34 -19 43 -32 26z m14
-82 c-15 -16 -19 -13 -11 9 3 9 10 13 15 10 5 -3 3 -11 -4 -19z m353 -64 c0
-14 -23 -29 -55 -36 l-30 -6 28 25 c28 26 57 34 57 17z"/>
<path d="M8454 4863 c-17 -27 -40 -66 -52 -88 -18 -35 -44 -61 -125 -124 -9
-8 -20 -11 -23 -8 -9 9 24 64 51 85 25 20 33 42 16 42 -16 0 -71 -51 -86 -81
-19 -35 -19 -50 -1 -75 14 -18 16 -18 60 14 54 38 56 38 56 13 0 -36 34 -64
75 -63 51 2 62 14 41 46 -20 31 -40 34 -33 6 4 -16 0 -20 -18 -20 -46 0 -42
58 10 130 35 48 85 143 85 160 0 25 -28 6 -56 -37z"/>
<path d="M12807 4897 c-6 -16 39 -64 50 -54 11 12 -11 62 -28 65 -9 2 -19 -4
-22 -11z"/>
<path d="M14018 4875 c-8 -17 -8 -32 -1 -47 9 -21 10 -21 26 12 9 18 17 39 17
47 0 23 -30 14 -42 -12z"/>
<path d="M14423 4850 c-18 -10 -39 -30 -48 -44 -10 -14 -22 -23 -31 -19 -9 3
-14 -2 -14 -16 0 -12 -11 -43 -24 -69 -58 -114 -153 -368 -142 -379 19 -20 73
69 141 235 10 23 25 42 32 42 18 0 60 28 131 88 80 67 102 122 62 162 -25 25
-66 25 -107 0z m87 -25 c26 -32 -18 -84 -158 -188 -20 -15 -22 -5 -10 43 26
105 128 193 168 145z"/>
<path d="M3875 4830 c-15 -29 -13 -50 4 -50 4 0 13 11 19 24 8 18 16 23 32 19
18 -5 21 -2 18 13 -2 12 -13 20 -30 22 -21 3 -30 -3 -43 -28z"/>
<path d="M7822 4794 c-53 -46 -61 -82 -32 -145 25 -52 19 -75 -21 -81 -11 -2
-20 -7 -20 -13 0 -17 41 -17 67 -1 30 20 31 53 4 106 -13 26 -18 49 -14 65 6
26 61 75 82 75 7 0 12 7 12 15 0 26 -36 16 -78 -21z"/>
<path d="M7549 4783 c-14 -44 -117 -156 -160 -173 -16 -7 -29 -19 -29 -26 0
-30 47 -9 106 48 l41 39 -5 -56 c-4 -50 -3 -55 15 -55 11 0 39 14 61 30 l42
30 0 -43 c0 -46 13 -67 43 -67 17 0 17 2 3 22 -22 30 -20 77 4 139 20 50 21
79 2 79 -5 0 -15 -13 -22 -29 -13 -32 -94 -121 -110 -121 -18 0 -11 39 20 117
34 83 37 103 16 103 -8 0 -20 -17 -27 -37z"/>
<path d="M6150 4788 c-45 -30 -88 -112 -70 -133 19 -23 43 -18 91 19 24 19 45
34 46 32 1 -1 -3 -30 -9 -64 -8 -45 -9 -65 -1 -73 16 -16 35 -1 28 20 -3 10 2
47 11 82 20 79 22 103 9 108 -5 2 -19 10 -30 17 -26 19 -37 18 -75 -8z m70
-28 c0 -12 -102 -91 -109 -85 -10 10 33 76 58 90 25 13 51 10 51 -5z"/>
<path d="M13266 4779 c-31 -36 -31 -36 -10 -111 16 -55 16 -60 -1 -78 -10 -11
-26 -22 -36 -25 -25 -8 -24 -35 0 -35 26 0 81 56 81 83 0 12 -7 43 -14 68 -18
58 -5 91 38 99 44 7 45 30 3 30 -27 0 -41 -7 -61 -31z"/>
<path d="M3260 4770 c-6 -12 -18 -43 -26 -69 -13 -45 -57 -101 -70 -88 -8 7
17 116 28 123 15 10 8 32 -9 30 -12 -2 -24 -21 -35 -57 -32 -103 -16 -157 38
-128 42 22 73 77 105 188 7 23 -19 24 -31 1z"/>
<path d="M6515 4780 c-3 -6 -10 -8 -15 -5 -13 8 -60 -35 -60 -55 0 -10 11 -32
25 -48 14 -17 25 -37 25 -45 0 -22 -30 -30 -50 -12 -24 22 -32 7 -14 -26 17
-34 32 -36 68 -8 35 27 35 75 1 108 -14 13 -25 27 -25 32 0 13 53 36 73 31 14
-3 18 1 15 14 -4 21 -33 31 -43 14z"/>
<path d="M8075 4776 c-77 -35 -126 -139 -99 -211 10 -25 62 -47 95 -40 38 9
32 29 -9 31 -42 2 -62 20 -62 54 0 19 6 29 20 33 11 3 20 12 20 21 0 9 6 13
14 10 18 -7 86 53 86 75 0 16 -18 41 -29 41 -4 -1 -19 -7 -36 -14z m22 -43
c-22 -25 -77 -56 -77 -44 0 14 59 61 77 61 15 0 15 -2 0 -17z"/>
<path d="M9486 4750 c-42 -46 -43 -57 -16 -110 11 -22 20 -43 20 -48 0 -17
-44 -22 -60 -7 -37 34 -54 9 -19 -26 16 -16 28 -20 52 -15 60 12 68 36 36 114
-12 28 -11 36 5 67 11 19 26 35 33 35 16 0 13 22 -4 27 -5 2 -26 -14 -47 -37z"/>
<path d="M12827 4762 c-71 -51 -100 -129 -58 -152 42 -22 129 -4 161 35 8 10
15 43 16 81 3 59 1 64 -18 64 -19 0 -20 -4 -15 -47 3 -26 0 -57 -6 -69 -11
-25 -63 -47 -99 -42 -42 6 -33 37 26 93 31 29 56 56 56 59 0 13 -27 3 -63 -22z"/>
<path d="M13110 4774 c-14 -10 -37 -28 -52 -42 -28 -25 -28 -26 -28 -4 0 30
-16 28 -33 -5 -7 -16 -24 -45 -36 -65 -36 -59 -5 -58 59 3 30 28 67 60 83 70
l27 20 0 -39 c0 -24 7 -49 19 -63 16 -20 22 -22 42 -12 l24 12 -23 7 c-23 7
-30 24 -34 88 -3 46 -14 52 -48 30z"/>
<path d="M14677 4770 c-9 -11 -23 -35 -31 -54 -18 -42 -54 -70 -73 -54 -20 17
-15 47 13 75 16 16 22 29 16 35 -25 25 -72 -38 -72 -98 0 -25 34 -54 63 -54
25 0 83 59 102 103 26 62 17 87 -18 47z"/>
<path d="M3375 4744 c-53 -37 -79 -73 -69 -98 10 -26 34 -26 87 2 29 15 55 28
60 30 4 2 7 -15 7 -37 0 -45 23 -67 53 -50 25 14 22 43 -4 36 -19 -5 -20 -2
-18 41 4 60 -10 64 -86 21 -31 -17 -59 -28 -63 -24 -8 8 52 61 90 78 16 6 28
18 28 24 0 23 -34 14 -85 -23z"/>
<path d="M2734 4738 c-51 -34 -94 -101 -94 -145 0 -42 33 -63 100 -63 53 0 60
2 60 20 0 26 17 25 40 -2 l18 -23 70 36 71 37 -24 -62 c-13 -33 -45 -115 -73
-181 -46 -114 -72 -195 -72 -229 0 -35 29 -12 74 59 57 90 121 155 152 155 24
0 39 14 30 28 -11 18 -66 -1 -107 -36 -23 -20 -55 -56 -71 -81 -15 -25 -28
-42 -28 -38 0 4 29 79 65 167 61 148 125 320 125 334 0 14 -31 4 -37 -11 -14
-40 -48 -75 -96 -103 -29 -16 -58 -30 -64 -30 -42 0 27 113 83 136 36 15 38
34 3 34 -28 0 -108 -77 -91 -88 10 -7 9 -12 -4 -23 -9 -8 -20 -13 -23 -11 -3
2 -8 -2 -11 -10 -3 -7 -11 -13 -17 -14 -7 -1 -20 -2 -28 -2 -8 -1 -15 -9 -15
-17 0 -19 -70 -21 -88 -3 -23 23 -11 38 68 84 86 49 110 75 89 100 -18 22 -53
17 -105 -18z m71 -8 c-9 -15 -95 -63 -102 -57 -3 3 16 20 43 36 49 32 70 39
59 21z"/>
<path d="M12661 4728 c-31 -73 -43 -136 -31 -159 19 -34 34 -16 36 42 0 33 9
71 22 98 12 24 19 48 16 52 -11 19 -25 7 -43 -33z"/>
<path d="M4345 4738 c-11 -6 -38 -25 -59 -42 -36 -28 -39 -29 -34 -9 4 14 1
24 -9 27 -22 9 -23 8 -23 -22 0 -15 -9 -44 -20 -65 -41 -77 -25 -75 65 8 39
35 73 65 77 65 4 0 -2 -20 -13 -45 -30 -67 -20 -85 44 -84 62 1 99 10 97 24 0
6 -27 9 -65 7 l-65 -4 10 26 c5 14 16 39 25 56 29 57 16 84 -30 58z"/>
<path d="M6701 4743 c-27 -11 -60 -58 -61 -85 0 -36 33 -58 90 -58 45 0 90 21
90 41 0 9 -98 111 -103 108 -1 0 -8 -3 -16 -6z m48 -63 c38 -33 34 -50 -14
-50 -65 0 -83 23 -48 62 21 23 21 23 62 -12z"/>
<path d="M11694 4734 c-4 -10 -15 -39 -25 -63 -33 -77 -22 -121 32 -121 60 0
118 66 134 153 6 30 4 37 -8 37 -9 0 -18 -13 -22 -32 -13 -58 -42 -105 -75
-118 -44 -18 -59 -2 -41 43 30 75 35 97 23 109 -8 8 -13 7 -18 -8z"/>
<path d="M14150 4743 c-8 -3 -32 -22 -54 -42 -27 -25 -35 -29 -27 -14 14 28
14 33 -4 33 -19 0 -45 -51 -45 -90 0 -43 18 -38 75 25 72 78 99 70 55 -15 -22
-43 -26 -70 -10 -70 15 0 60 99 60 131 0 14 -5 30 -12 37 -13 13 -15 13 -38 5z"/>
<path d="M9214 4708 c-39 -35 -64 -82 -64 -122 0 -38 32 -42 86 -12 l45 25 -3
-22 c-3 -29 9 -47 33 -47 20 0 26 15 10 24 -5 4 -8 12 -7 19 18 90 18 106 -4
136 -27 39 -50 39 -96 -1z m71 -18 c4 -12 -1 -29 -12 -44 -21 -29 -93 -72 -93
-56 0 25 30 78 55 98 34 27 42 27 50 2z"/>
<path d="M11963 4720 c-18 -11 -33 -15 -33 -10 0 6 -6 10 -14 10 -17 0 -64
-77 -72 -120 -10 -46 15 -37 60 22 22 27 53 59 70 69 l31 19 5 -60 c3 -33 10
-61 15 -63 14 -3 25 114 14 136 -13 22 -36 22 -76 -3z"/>
<path d="M12113 4712 c-84 -81 -61 -162 45 -162 49 0 66 13 68 50 1 24 -2 30
-15 28 -9 -2 -20 -13 -26 -26 -11 -24 -43 -29 -77 -11 -15 8 -18 17 -13 37 8
32 42 71 73 83 12 5 22 13 22 19 0 20 -48 9 -77 -18z"/>
<path d="M13976 4686 c-39 -87 -49 -122 -43 -140 9 -24 27 -20 27 7 0 12 16
56 35 96 18 41 31 79 29 83 -12 18 -26 5 -48 -46z"/>
<path d="M3979 4687 c-33 -27 -49 -58 -49 -91 0 -35 32 -49 93 -43 81 7 116
61 82 126 -12 24 -20 29 -57 29 -30 1 -51 -6 -69 -21z m75 -18 c69 -32 23 -97
-60 -87 -38 4 -41 28 -9 67 30 35 34 36 69 20z"/>
<path d="M5305 4673 c-11 -2 -44 -9 -72 -14 -43 -9 -53 -14 -53 -31 0 -15 4
-18 18 -13 65 28 229 44 249 24 20 -20 36 1 17 22 -13 15 -30 19 -78 18 -34
-1 -70 -3 -81 -6z"/>
<path d="M7676 4551 c-3 -5 1 -11 9 -15 8 -3 15 -1 15 4 0 13 -18 22 -24 11z"/>
<path d="M6610 4523 c0 -36 -54 -221 -68 -235 -6 -6 -34 -13 -61 -16 -37 -3
-51 -9 -51 -20 0 -12 10 -14 50 -10 28 3 50 4 50 2 0 -15 -45 -102 -57 -112
-12 -9 -14 -15 -6 -23 15 -15 50 5 58 33 4 13 16 44 27 70 17 41 24 47 63 57
76 19 77 18 50 -47 -30 -73 -35 -117 -15 -117 8 0 17 14 21 35 4 20 17 57 28
84 24 54 27 82 9 88 -7 3 -38 -1 -69 -7 l-55 -12 33 116 c34 117 36 141 8 141
-10 0 -15 -10 -15 -27z"/>
<path d="M3960 4412 c-38 -89 -168 -208 -196 -179 -9 8 22 71 44 91 12 10 28
16 36 13 22 -9 31 12 13 30 -11 11 -19 12 -34 4 -36 -18 -82 -80 -89 -117 -13
-72 39 -81 119 -20 66 50 64 50 59 -13 -5 -65 9 -101 38 -101 28 0 34 17 10
30 -14 8 -20 21 -20 46 0 43 25 135 51 186 22 43 25 88 7 88 -7 0 -24 -26 -38
-58z"/>
<path d="M8028 4443 c-6 -25 12 -63 30 -63 10 0 13 7 8 23 -3 12 -6 30 -6 40
0 9 -6 17 -14 17 -8 0 -16 -8 -18 -17z"/>
<path d="M9424 4404 c-29 -64 -87 -153 -142 -222 -27 -32 -32 -46 -24 -54 9
-9 24 2 63 45 28 32 69 67 91 78 l40 20 -7 -65 c-5 -47 -4 -70 5 -81 20 -25
25 -11 25 75 0 68 -3 85 -17 94 -13 8 -23 8 -38 -2 -11 -6 -22 -12 -25 -12 -7
0 17 43 29 51 5 4 5 12 2 18 -4 6 -3 11 2 11 5 0 17 18 27 40 14 31 15 44 7
52 -9 9 -18 -3 -38 -48z"/>
<path d="M6351 4426 c-9 -11 -10 -20 -1 -36 12 -22 37 -22 32 0 -2 7 2 16 9
20 14 9 3 30 -15 30 -8 0 -19 -6 -25 -14z"/>
<path d="M10137 4423 c-11 -10 -8 -53 3 -53 10 0 30 32 30 49 0 12 -23 15 -33
4z"/>
<path d="M6802 4404 c4 -20 34 -41 45 -31 10 11 -11 41 -31 45 -12 3 -17 -2
-14 -14z"/>
<path d="M6150 4383 c-19 -10 -36 -21 -38 -25 -2 -4 -10 -8 -18 -8 -7 0 -21
-11 -29 -24 -20 -30 -10 -53 36 -89 l31 -24 -27 -21 c-15 -12 -31 -19 -36 -16
-15 9 -22 -25 -8 -42 11 -13 18 -10 56 28 23 23 43 50 43 59 0 9 -16 26 -35
38 -19 11 -35 26 -35 33 1 18 25 48 39 48 6 0 11 4 11 9 0 5 18 11 40 15 26 4
40 11 40 21 0 20 -27 19 -70 -2z"/>
<path d="M10561 4389 c-55 -11 -71 -24 -71 -60 0 -33 29 -66 71 -81 16 -5 29
-14 29 -19 0 -18 -43 -31 -86 -24 -35 5 -44 3 -44 -8 0 -17 29 -27 77 -27 40
0 98 47 88 71 -3 8 -26 25 -51 37 -52 26 -65 49 -39 68 26 19 85 18 100 -3 13
-17 35 -10 35 11 0 32 -47 47 -109 35z"/>
<path d="M5715 4339 c-54 -44 -75 -84 -140 -270 -39 -113 -47 -164 -25 -164
19 0 96 146 105 198 4 20 10 35 15 32 4 -3 35 15 69 40 44 34 67 60 87 100 25
52 26 56 10 80 -25 37 -62 33 -121 -16z m95 -20 c0 -24 -13 -43 -59 -90 -33
-32 -64 -59 -70 -59 -22 0 -10 58 20 101 59 83 109 105 109 48z"/>
<path d="M9160 4353 c-14 -9 -31 -26 -39 -36 -8 -11 -22 -27 -33 -36 -10 -8
-18 -21 -18 -29 0 -7 -6 -23 -14 -35 -13 -20 -116 -297 -116 -311 0 -3 7 -6
16 -6 8 0 19 12 25 28 25 71 80 177 91 174 15 -4 114 93 149 147 33 50 36 82
13 105 -20 21 -43 20 -74 -1z m56 -28 c12 -30 -72 -142 -120 -159 -14 -5 -17
-3 -11 11 4 10 11 33 17 51 10 34 77 112 97 112 6 0 14 -7 17 -15z"/>
<path d="M10239 4348 c-99 -59 -152 -159 -100 -188 25 -13 97 -13 122 1 32 17
13 26 -45 21 -45 -4 -57 -1 -62 12 -13 35 71 128 120 131 24 2 34 30 13 38 -8
3 -30 -4 -48 -15z"/>
<path d="M3377 4330 c-56 -35 -88 -83 -85 -125 4 -38 36 -45 75 -17 51 35 50
35 49 -25 -1 -47 2 -58 17 -61 21 -4 35 27 17 38 -14 9 -7 53 21 118 25 58 24
75 -8 90 -35 16 -32 17 -86 -18z m67 -18 c3 -5 -2 -18 -10 -30 -18 -26 -103
-86 -111 -78 -12 12 22 69 56 92 37 25 56 30 65 16z"/>
<path d="M9899 4337 c-24 -13 -51 -35 -59 -50 -13 -23 -12 -30 3 -63 20 -42
10 -58 -30 -49 -18 4 -23 1 -23 -15 0 -25 45 -28 78 -4 26 18 28 34 6 76 -16
32 -16 32 15 60 17 15 43 28 57 28 18 0 25 5 22 17 -5 25 -20 25 -69 0z"/>
<path d="M5923 4333 c-4 -10 -21 -38 -40 -62 -42 -55 -52 -104 -28 -131 26
-29 59 -24 99 14 39 36 45 67 25 125 -9 24 -9 35 0 44 19 19 13 27 -19 27 -20
0 -33 -6 -37 -17z m33 -88 c7 -40 -5 -66 -40 -85 -19 -10 -29 -11 -37 -3 -14
14 3 70 32 107 19 24 19 25 2 20 -15 -5 -15 -4 -3 4 20 15 38 -2 46 -43z"/>
<path d="M3601 4314 c-25 -21 -31 -23 -31 -9 0 48 -43 -25 -57 -96 -7 -35 13
-46 29 -16 14 26 63 84 90 105 14 11 14 8 5 -28 -10 -35 -9 -43 8 -60 15 -14
24 -17 35 -9 13 8 13 11 -3 24 -17 12 -18 18 -7 50 22 67 -13 87 -69 39z"/>
<path d="M6275 4290 c-3 -5 -3 -10 2 -10 4 0 -2 -7 -14 -15 -27 -19 -39 -70
-23 -91 10 -11 16 -11 26 -3 8 6 11 16 7 23 -12 19 -9 40 10 58 18 19 23 48 8
48 -6 0 -13 -4 -16 -10z"/>
<path d="M9564 4264 c-8 -20 -14 -52 -12 -72 3 -35 5 -37 41 -37 20 0 37 -2
37 -5 0 -5 -35 -59 -83 -128 -28 -39 -41 -98 -24 -104 5 -2 15 14 21 34 7 20
27 54 44 76 17 21 48 70 68 108 20 38 45 81 55 96 11 14 19 33 19 42 0 28 -25
17 -45 -21 -20 -36 -67 -73 -94 -73 -14 0 -12 42 5 98 11 37 -15 26 -32 -14z"/>
<path d="M10011 4267 c-26 -42 -32 -102 -11 -102 9 0 17 14 21 38 3 21 11 43
18 50 13 13 15 47 2 47 -5 0 -19 -15 -30 -33z"/>
<path d="M4891 4264 c-32 -27 -71 -91 -71 -117 0 -32 24 -36 65 -11 52 31 66
30 90 -8 24 -37 73 -58 86 -37 6 10 0 16 -21 22 -21 5 -36 20 -50 47 -11 22
-26 40 -33 40 -6 0 -33 -11 -59 -24 l-47 -23 20 38 c10 21 29 45 41 53 21 15
24 14 44 -11 28 -36 45 -12 17 25 -27 36 -45 38 -82 6z"/>
<path d="M6860 4280 c0 -6 12 -21 27 -34 31 -27 26 -51 -13 -66 -33 -13 -47
-5 -34 20 14 26 -9 39 -27 15 -17 -24 -17 -40 3 -59 20 -20 40 -20 84 2 47 23
53 66 14 105 -27 27 -54 36 -54 17z"/>
<path d="M7012 4248 c-32 -51 -38 -86 -16 -95 13 -5 26 4 49 31 l31 37 13 -36
c14 -39 53 -71 72 -59 9 5 3 14 -17 30 -25 20 -29 30 -28 69 1 49 -14 59 -47
29 -16 -15 -17 -14 -12 5 9 34 -23 26 -45 -11z"/>
<path d="M8059 4242 c-40 -41 -58 -87 -41 -104 7 -7 15 1 27 28 16 39 42 74
55 74 4 0 13 -21 19 -46 10 -38 15 -45 33 -42 23 3 47 33 35 44 -3 4 -13 2
-21 -5 -11 -9 -15 -5 -21 26 -7 40 -21 63 -37 63 -6 0 -28 -17 -49 -38z"/>
<path d="M7897 4263 c-4 -3 -7 -13 -7 -22 0 -9 -16 -39 -36 -68 -30 -44 -34
-55 -24 -73 13 -25 35 -22 36 6 1 10 16 47 34 81 18 34 29 66 26 72 -8 12 -20
14 -29 4z"/>
<path d="M10781 4136 c-7 -8 -8 -17 -3 -20 15 -9 52 5 52 20 0 18 -34 18 -49
0z"/>
<path d="M4989 3173 c-23 -58 -23 -166 1 -275 13 -57 27 -107 31 -112 20 -23
20 35 0 118 -27 116 -27 173 0 275 8 27 -21 22 -32 -6z"/>
<path d="M5855 3181 c-3 -6 -4 -14 -2 -18 3 -5 7 -51 11 -104 6 -84 5 -97 -9
-103 -9 -3 -21 -4 -26 -1 -12 8 -51 -14 -44 -26 4 -5 22 -9 41 -9 35 0 35 -1
29 -32 -4 -18 -12 -39 -17 -45 -11 -14 -4 -43 10 -43 12 0 31 43 38 89 6 37 7
38 70 53 35 8 64 13 64 11 0 -2 -11 -21 -25 -41 -14 -20 -25 -50 -25 -66 0
-28 1 -28 39 -23 35 4 87 30 148 73 21 15 21 15 12 -23 -4 -21 -26 -87 -47
-148 -49 -139 -57 -175 -36 -175 8 0 16 6 18 13 5 21 98 311 107 335 12 30 12
72 0 72 -5 0 -36 -20 -69 -45 -61 -46 -130 -81 -140 -71 -7 7 44 83 75 112 14
13 23 30 20 38 -5 12 -16 10 -69 -9 -35 -12 -78 -25 -95 -28 l-33 -6 -1 67
c-1 122 -21 190 -44 153z"/>
<path d="M7886 3129 c-3 -8 -7 -54 -9 -104 -5 -94 -8 -111 -26 -158 -14 -35
-14 -34 4 -41 10 -3 23 9 40 37 32 56 70 91 89 84 21 -8 34 -65 24 -107 -12
-52 -10 -92 4 -88 7 3 18 33 26 67 12 57 12 68 -3 108 -11 27 -27 49 -41 55
-21 10 -29 7 -57 -20 l-33 -32 4 96 c3 61 1 99 -6 106 -8 8 -13 7 -16 -3z"/>
<path d="M3195 3113 c-27 -8 -93 -16 -145 -17 l-95 -1 -2 -124 c-1 -137 -15
-174 -32 -89 -17 84 -54 169 -71 166 -11 -2 -14 -14 -12 -43 2 -22 8 -44 12
-50 5 -5 15 -37 24 -71 17 -65 51 -150 64 -158 17 -10 30 12 46 81 9 40 16
111 16 158 0 84 0 85 23 80 13 -4 70 3 128 15 57 12 119 22 137 22 39 0 43 20
7 36 -31 14 -37 14 -100 -5z"/>
<path d="M5690 3096 c0 -28 19 -44 30 -26 11 17 0 50 -16 50 -8 0 -14 -10 -14
-24z"/>
<path d="M4545 3098 c-5 -16 -31 -157 -40 -215 -4 -24 -10 -43 -15 -43 -17 0
-79 108 -90 158 -7 28 -16 55 -22 58 -51 32 2 -136 67 -212 26 -30 52 -54 58
-54 11 0 58 153 74 238 4 25 9 30 18 22 27 -22 28 12 2 36 -29 27 -46 30 -52
12z"/>
<path d="M6855 3090 c-10 -16 18 -43 40 -38 14 3 13 6 -8 26 -17 17 -27 20
-32 12z"/>
<path d="M8672 3073 c2 -10 13 -19 26 -21 24 -4 29 7 10 26 -18 18 -40 15 -36
-5z"/>
<path d="M8453 3028 c-38 -18 -28 -86 18 -131 25 -23 24 -33 -6 -62 -29 -30
-61 -32 -75 -5 -6 11 -15 20 -20 20 -16 0 -11 -36 8 -60 17 -21 21 -22 55 -11
40 13 87 62 87 90 0 10 -13 35 -30 56 -16 21 -30 47 -30 58 0 16 5 18 30 15
35 -5 47 6 30 27 -14 17 -36 18 -67 3z"/>
<path d="M9168 3024 c-16 -8 -28 -23 -28 -33 0 -10 27 -43 60 -73 44 -40 59
-60 54 -72 -8 -20 -44 -36 -80 -36 -33 0 -26 -24 7 -28 36 -4 75 13 95 43 14
21 14 30 4 55 -7 16 -27 39 -44 50 -18 10 -40 28 -50 39 -17 19 -17 20 3 30
11 6 26 10 33 9 7 -2 13 4 13 12 0 21 -34 23 -67 4z"/>
<path d="M4690 2962 c-66 -66 -64 -145 3 -173 42 -18 126 -13 149 7 22 21 14
38 -12 24 -29 -15 -113 -12 -138 6 -12 8 -22 26 -22 38 0 21 6 25 47 31 89 13
124 44 97 84 -25 36 -79 28 -124 -17z m95 -1 c7 -12 -19 -26 -64 -35 l-35 -6
24 25 c23 25 64 33 75 16z"/>
<path d="M5424 2975 c-57 -28 -79 -61 -64 -99 13 -35 43 -47 116 -48 58 0 94
12 94 32 0 3 -35 5 -78 2 -83 -5 -107 6 -100 45 4 26 86 65 121 59 23 -5 28
-3 25 12 -5 27 -57 26 -114 -3z"/>
<path d="M8118 2995 c-9 -9 10 -101 26 -134 9 -17 27 -33 42 -37 14 -4 23 -12
21 -18 -55 -150 -73 -195 -89 -212 -18 -20 -25 -54 -10 -54 30 1 52 15 52 34
0 30 64 197 110 286 43 83 51 111 33 117 -6 2 -26 -23 -43 -56 -32 -59 -52
-77 -72 -65 -17 11 -38 71 -38 109 0 32 -15 46 -32 30z"/>
<path d="M8627 2994 c-4 -4 -7 -43 -7 -86 0 -70 2 -78 19 -78 18 0 19 6 14 78
-5 76 -13 99 -26 86z"/>
<path d="M8824 2980 c-51 -20 -85 -89 -68 -135 18 -45 147 -62 194 -25 l25 20
-72 -6 c-116 -11 -156 31 -92 95 31 32 66 40 86 20 16 -16 28 8 13 26 -14 16
-53 19 -86 5z"/>
<path d="M2347 2960 c-24 -28 -21 -57 8 -76 53 -35 99 24 54 72 -27 29 -39 30
-62 4z"/>
<path d="M5130 2956 c-36 -20 -72 -88 -64 -121 12 -48 87 -69 144 -40 26 13
30 21 30 56 0 22 -9 58 -20 79 -22 44 -45 50 -90 26z m53 -42 c18 -7 31 -41
25 -71 -9 -47 -108 -38 -108 10 0 29 38 80 54 72 6 -3 19 -8 29 -11z"/>
<path d="M7662 2947 c-26 -28 -40 -89 -48 -215 -7 -102 0 -172 16 -172 18 0
43 65 48 127 4 59 6 63 29 63 32 0 81 52 89 95 8 42 -16 90 -56 110 -39 20
-53 19 -78 -8z m87 -44 c40 -50 -18 -151 -65 -113 -10 9 -14 30 -12 69 1 31 3
59 5 64 9 17 53 5 72 -20z m-102 -225 c-2 -13 -4 -3 -4 22 0 25 2 35 4 23 2
-13 2 -33 0 -45z"/>
<path d="M3657 2954 c-10 -10 -9 -64 1 -64 5 0 17 6 28 14 15 12 17 19 8 32
-12 20 -27 27 -37 18z"/>
<path d="M6850 2941 c-22 -42 -5 -158 23 -148 6 2 10 11 8 18 -2 8 -4 44 -4
82 1 68 -8 83 -27 48z"/>
<path d="M6996 2928 c-32 -43 -59 -106 -52 -124 3 -8 13 -14 22 -14 9 0 14 6
11 13 -6 17 24 87 46 105 15 12 19 8 40 -40 24 -54 51 -86 60 -71 9 14 -67
158 -85 161 -9 2 -27 -11 -42 -30z"/>
<path d="M5690 2944 c0 -4 8 -28 17 -55 17 -46 43 -67 43 -34 0 28 -32 95 -46
95 -8 0 -14 -3 -14 -6z"/>
<path d="M3634 2769 c-3 -6 -2 -15 2 -19 12 -12 38 5 30 19 -9 14 -23 14 -32
0z"/>
<path d="M12122 1888 c-26 -43 -116 -227 -129 -265 -10 -28 -16 -31 -87 -43
-42 -7 -79 -17 -82 -22 -13 -21 14 -26 69 -11 33 8 61 12 64 10 2 -3 -11 -50
-31 -104 -22 -62 -32 -101 -26 -107 14 -14 24 0 44 68 10 32 26 78 36 101 l18
42 71 10 c39 5 71 8 71 8 0 -1 -7 -16 -16 -33 -41 -83 -19 -151 44 -137 17 3
46 20 63 36 27 25 31 34 25 62 -7 35 -78 107 -106 107 -9 0 -42 -5 -74 -11
-32 -6 -60 -9 -62 -7 -8 8 136 289 151 294 22 9 19 34 -4 34 -11 0 -28 -14
-39 -32z m80 -350 c37 -30 22 -79 -30 -99 -42 -16 -50 13 -22 86 10 27 28 32
52 13z"/>
<path d="M11183 1883 c-10 -16 -24 -39 -30 -53 -64 -142 -109 -226 -131 -247
-34 -31 -95 -63 -121 -63 -18 0 -19 3 -10 30 6 16 29 48 51 71 25 26 36 45 30
51 -24 24 -127 -108 -120 -154 5 -40 79 -36 142 7 20 14 38 25 40 25 1 0 3
-13 3 -29 0 -46 28 -81 65 -81 38 0 91 31 119 71 27 39 9 37 -47 -6 -53 -40
-69 -43 -85 -14 -16 31 -3 99 32 166 36 70 109 233 109 245 0 18 -30 6 -47
-19z"/>
<path d="M13077 1903 c-4 -3 -7 -23 -7 -44 0 -44 -33 -156 -66 -220 -36 -71
-187 -199 -210 -177 -9 10 23 52 67 88 30 24 44 29 52 21 18 -18 29 -13 25 12
-2 15 -11 23 -30 25 -21 3 -39 -9 -88 -57 -50 -50 -61 -65 -58 -88 4 -39 45
-42 101 -10 56 33 143 121 166 166 24 47 71 188 71 212 0 11 7 19 15 19 22 0
18 37 -4 50 -23 12 -26 12 -34 3z"/>
<path d="M7735 1878 c-3 -13 -21 -91 -40 -174 -36 -156 -41 -199 -26 -208 12
-8 22 8 51 74 24 55 56 100 71 100 5 0 6 -29 2 -64 -3 -35 -3 -76 1 -90 5 -22
12 -26 45 -26 49 0 71 8 71 27 0 11 -9 13 -47 7 l-46 -7 7 83 c6 79 0 110 -25
110 -5 0 -28 -17 -51 -37 -24 -22 -39 -31 -35 -20 4 9 16 59 28 110 12 50 26
97 31 104 5 7 7 17 3 23 -11 18 -34 11 -40 -12z"/>
<path d="M3970 1864 c-83 -36 -118 -85 -135 -186 -7 -44 -12 -45 -66 -17 -29
14 -39 25 -35 36 7 18 -10 43 -30 43 -21 0 -17 -43 6 -72 10 -14 41 -35 68
-46 l50 -22 7 -77 c13 -147 59 -313 86 -313 10 0 20 4 23 8 3 5 -9 51 -25 103
-20 60 -33 125 -36 180 l-6 86 49 7 c69 9 171 85 180 133 22 119 -37 180 -136
137z m88 -97 c3 -54 1 -59 -30 -87 -40 -36 -88 -60 -122 -60 -24 0 -26 4 -26
40 0 69 27 118 79 145 25 14 57 24 71 22 23 -2 25 -6 28 -60z"/>
<path d="M14020 1872 c0 -7 -14 -41 -31 -76 -34 -70 -29 -67 -146 -82 -37 -5
-53 -11 -53 -21 0 -13 12 -14 70 -8 39 4 70 5 70 2 0 -2 -23 -54 -51 -116 -48
-105 -56 -148 -23 -120 8 6 14 16 14 21 0 4 23 57 50 116 l51 107 39 -3 c32
-3 40 -1 40 12 0 10 -9 16 -23 16 -13 0 -26 3 -30 6 -3 4 8 33 24 67 28 54 29
61 15 75 -11 11 -16 12 -16 4z"/>
<path d="M5935 1851 c-8 -14 -8 -182 0 -203 5 -13 -3 -18 -42 -23 -70 -10 -83
-15 -83 -31 0 -12 7 -14 28 -10 92 18 99 18 107 -1 4 -10 9 -61 11 -113 2 -52
3 -97 4 -99 0 -2 7 2 15 9 17 14 19 91 6 173 l-8 47 74 -4 c99 -7 95 15 -5 28
-84 11 -84 12 -81 145 2 79 -8 110 -26 82z"/>
<path d="M8091 1836 c-13 -24 -8 -46 9 -46 11 0 40 57 32 64 -12 13 -29 5 -41
-18z"/>
<path d="M2970 1821 c0 -6 5 -13 11 -17 6 -3 -6 -14 -29 -24 -45 -20 -86 -69
-106 -126 l-13 -39 -99 0 c-80 0 -99 -3 -99 -15 0 -12 19 -16 95 -18 l95 -3
20 -36 c33 -60 66 -77 154 -81 119 -6 171 32 171 126 l0 38 73 17 c86 20 88
21 85 5 -2 -7 4 -13 12 -13 21 0 24 39 5 55 -14 11 -28 12 -78 2 -34 -6 -71
-14 -83 -17 -15 -5 -23 0 -32 19 -21 47 -92 115 -131 126 -45 12 -51 12 -51 1z
m43 -73 c3 -10 7 -10 20 0 12 10 21 11 35 3 25 -13 66 -77 58 -90 -7 -11 -122
-36 -203 -46 -61 -7 -63 -3 -32 63 30 61 109 106 122 70z m117 -208 c-15 -35
-48 -50 -114 -50 -72 0 -114 17 -137 54 l-19 31 138 20 137 20 3 -23 c2 -13
-2 -37 -8 -52z"/>
<path d="M10471 1751 c-34 -42 -39 -78 -20 -145 9 -32 8 -41 -5 -55 -13 -12
-20 -13 -35 -4 -16 10 -20 9 -25 -3 -9 -23 2 -34 32 -34 35 0 72 26 72 50 0
11 -5 39 -12 63 -13 52 -7 82 27 121 23 27 25 46 5 46 -4 0 -22 -18 -39 -39z"/>
<path d="M5415 1770 c-3 -5 -4 -19 0 -29 8 -26 -9 -65 -42 -95 -15 -14 -30
-26 -33 -26 -3 0 -5 29 -5 65 0 62 -13 94 -33 81 -7 -4 -7 -18 0 -40 6 -18 8
-54 4 -79 -7 -43 -10 -47 -44 -57 -49 -13 -85 -13 -100 2 -9 9 -13 7 -18 -6
-4 -10 -2 -22 4 -28 11 -11 67 -13 112 -3 25 5 25 5 25 -60 0 -46 5 -69 17
-81 25 -26 39 -9 21 27 -11 22 -13 45 -8 82 6 47 10 54 48 78 l42 25 -3 -59
c-4 -67 3 -107 20 -107 7 0 31 19 54 41 l43 42 16 -59 c22 -80 33 -104 46
-104 23 0 -20 157 -51 185 -20 18 -21 18 -61 -21 l-41 -39 8 95 c11 133 11
173 -3 177 -6 2 -14 -1 -18 -7z"/>
<path d="M7435 1740 c-99 -40 -133 -295 -58 -443 36 -72 48 -57 51 64 l3 104
38 24 c83 51 108 154 53 218 -30 35 -57 45 -87 33z m63 -56 c46 -32 16 -140
-50 -175 -23 -12 -42 5 -33 29 3 8 -2 26 -11 41 -15 26 -15 30 1 62 33 64 51
73 93 43z m-98 -271 c0 -70 -5 -66 -15 11 -5 41 -3 56 4 52 6 -4 11 -32 11
-63z"/>
<path d="M10724 1721 c-17 -11 -49 -40 -70 -65 -21 -25 -44 -46 -51 -46 -7 0
-12 -12 -11 -27 0 -16 -3 -44 -7 -63 -10 -53 19 -85 74 -83 47 2 109 39 93 55
-7 7 -18 5 -33 -6 -29 -20 -95 -21 -102 -2 -12 32 9 71 49 89 21 11 54 33 72
50 85 81 74 152 -14 98z m27 -38 c-12 -23 -50 -57 -80 -73 l-24 -12 22 30 c37
53 105 97 82 55z"/>
<path d="M10128 1688 c-12 -24 -30 -59 -40 -78 -10 -19 -47 -69 -83 -110 -60
-70 -73 -95 -48 -95 5 0 34 29 63 65 29 36 58 70 64 77 8 9 11 -1 11 -40 0
-46 3 -52 22 -55 21 -3 61 38 115 118 16 24 16 24 6 -23 -11 -54 -6 -77 18
-77 11 0 15 6 11 19 -2 11 3 58 12 106 15 73 15 88 4 92 -8 3 -15 4 -17 2 -1
-2 -23 -38 -48 -79 -26 -41 -58 -86 -72 -99 -24 -23 -26 -23 -26 -5 0 10 14
61 30 113 16 51 27 97 24 102 -11 18 -24 8 -46 -33z"/>
<path d="M4424 1706 c-7 -19 3 -36 22 -36 10 0 14 8 12 22 -4 26 -26 36 -34
14z"/>
<path d="M14260 1684 c-19 -8 -56 -33 -82 -55 -26 -21 -54 -39 -62 -39 -29 0
-21 -19 30 -75 36 -40 156 -59 242 -40 34 7 39 31 6 28 -36 -3 -170 16 -197
28 -36 16 -34 29 6 29 63 1 147 56 147 97 0 15 -28 43 -43 43 -7 -1 -28 -8
-47 -16z m53 -40 c-7 -19 -49 -40 -98 -50 l-40 -7 32 27 c34 28 93 57 105 50
4 -3 5 -11 1 -20z"/>
<path d="M8024 1634 c-21 -51 -21 -140 2 -165 28 -31 69 -24 116 19 29 28 39
44 35 56 -6 14 -13 10 -46 -24 -28 -30 -46 -41 -63 -38 -22 3 -23 7 -23 71 0
54 4 71 18 81 23 18 22 36 -4 36 -14 0 -25 -11 -35 -36z"/>
<path d="M8912 1623 c-80 -81 -105 -119 -93 -142 14 -26 54 -15 122 34 l49 35
-7 -27 c-14 -51 -10 -97 9 -101 13 -2 16 4 15 30 0 18 5 60 13 93 11 52 11 65
-1 90 -22 47 -51 44 -107 -12z m78 -7 c0 -17 -15 -35 -55 -65 -57 -43 -85 -58
-85 -46 0 10 122 135 132 135 4 0 8 -11 8 -24z"/>
<path d="M9142 1657 c-13 -16 -92 -185 -92 -198 0 -5 6 -9 14 -9 7 0 32 43 56
95 43 96 53 105 92 84 31 -17 45 5 17 25 -28 19 -72 21 -87 3z"/>
<path d="M13465 1651 c-22 -10 -48 -21 -57 -24 -19 -7 -100 -146 -92 -159 11
-17 32 -7 44 21 22 55 130 155 147 137 5 -5 -11 -32 -63 -104 -15 -20 -15 -25
-3 -37 12 -13 18 -11 44 11 18 15 25 27 18 30 -8 4 -4 17 13 41 28 42 30 65 8
87 -19 19 -11 20 -59 -3z"/>
<path d="M13135 1648 c-50 -29 -89 -98 -80 -141 16 -74 128 -135 149 -81 4 10
-3 14 -27 14 -39 0 -72 21 -65 41 3 8 18 21 34 29 37 19 74 57 74 76 0 19 -19
57 -34 66 -15 10 -28 9 -51 -4z m55 -57 c-1 -20 -55 -61 -80 -61 -18 0 0 54
28 79 24 22 26 22 39 5 7 -10 13 -20 13 -23z"/>
<path d="M9299 1602 c-76 -76 -78 -143 -6 -171 31 -11 47 -12 91 -2 56 12 96
34 84 46 -4 4 -23 2 -42 -5 -59 -19 -123 -18 -143 4 -13 13 -15 20 -5 23 6 3
9 10 5 16 -4 6 0 8 9 5 16 -7 106 52 121 77 13 23 -10 55 -40 55 -18 0 -41
-15 -74 -48z m81 9 c0 -12 -82 -72 -89 -65 -7 7 65 74 79 74 5 0 10 -4 10 -9z"/>
<path d="M13673 1617 c-80 -62 -106 -114 -74 -146 23 -23 43 -26 72 -11 26 14
51 67 44 91 -4 10 1 33 9 51 30 59 13 64 -51 15z m-11 -120 c-21 -20 -42 -16
-42 8 0 7 12 28 28 46 l27 33 3 -33 c2 -24 -3 -40 -16 -54z"/>
<path d="M2339 1609 c-16 -16 -18 -23 -8 -35 18 -22 45 -17 58 12 20 45 -12
61 -50 23z"/>
<path d="M5670 1592 c-66 -67 -53 -182 20 -182 31 0 118 30 141 48 35 29 15
47 -24 23 -40 -24 -110 -43 -131 -35 -19 7 -22 64 -3 64 26 0 117 50 117 64 0
20 -39 46 -68 46 -13 0 -36 -13 -52 -28z m68 -11 c10 -6 3 -13 -23 -25 -44
-21 -54 -15 -26 13 23 23 30 25 49 12z"/>
<path d="M6110 1550 c-79 -79 -34 -156 58 -100 l34 21 23 -26 c31 -32 81 -35
90 -4 9 27 1 33 -24 19 -19 -10 -23 -7 -41 35 -22 50 -41 57 -58 20 -12 -26
-67 -59 -82 -50 -19 12 -9 34 30 68 22 19 40 39 40 45 0 24 -31 11 -70 -28z"/>
<path d="M14420 1511 c0 -6 5 -13 10 -16 6 -3 10 1 10 9 0 9 -4 16 -10 16 -5
0 -10 -4 -10 -9z"/>
<path d="M4407 1503 c-4 -3 -7 -12 -7 -20 0 -15 26 -18 34 -4 7 11 -18 33 -27
24z"/>
<path d="M3357 1424 c-3 -3 -1 -14 5 -23 8 -14 5 -26 -15 -58 -15 -23 -31 -44
-37 -48 -16 -10 -12 -25 8 -25 19 0 82 86 82 112 0 38 -24 61 -43 42z"/>
<path d="M6570 1416 c0 -8 6 -16 12 -18 17 -6 0 -43 -53 -113 -28 -37 -39 -60
-34 -72 6 -16 8 -15 26 7 44 57 99 146 99 162 0 30 -12 48 -31 48 -10 0 -19
-6 -19 -14z"/>
<path d="M4960 1343 c0 -44 -18 -123 -61 -275 -31 -109 -35 -163 -11 -163 9 0
15 15 17 45 1 25 14 81 28 125 25 79 51 195 61 268 4 32 2 37 -15 37 -15 0
-19 -7 -19 -37z"/>
<path d="M5550 1184 c-86 -37 -94 -83 -25 -140 43 -35 45 -38 29 -55 -24 -26
-99 -53 -129 -45 -31 8 -33 -7 -3 -28 41 -29 77 -18 142 42 49 44 47 69 -11
121 l-47 42 32 21 c17 11 50 22 72 25 25 4 40 11 40 19 0 19 -55 18 -100 -2z"/>
<path d="M5228 1163 c-20 -16 -44 -41 -54 -56 -17 -25 -24 -28 -56 -24 -20 3
-39 2 -42 -1 -10 -9 15 -32 35 -32 15 0 17 -6 12 -35 -11 -68 49 -97 148 -73
52 13 71 35 26 31 -84 -9 -110 -7 -120 8 -20 32 -1 63 53 82 60 21 89 64 71
103 -14 31 -30 30 -73 -3z m37 -42 c-3 -6 -16 -16 -28 -22 -21 -11 -21 -10 2
15 23 25 40 29 26 7z"/>
<path d="M4206 1140 c-50 -47 -103 -138 -93 -164 17 -43 67 -32 137 31 36 32
51 41 47 28 -21 -76 -15 -125 18 -125 19 0 31 40 14 51 -11 6 -11 19 -1 67 25
121 7 147 -45 63 -17 -26 -51 -62 -76 -80 -81 -55 -90 -34 -22 57 49 68 69 82
115 82 45 0 33 24 -13 28 -31 3 -43 -3 -81 -38z"/>
<path d="M4688 1092 c-39 -40 -58 -67 -58 -83 0 -54 52 -65 113 -24 20 14 37
31 37 37 0 6 3 9 6 6 3 -3 0 -42 -6 -86 l-12 -79 -95 -7 c-52 -4 -108 -13
-124 -21 -69 -36 -39 -149 51 -195 57 -29 77 -25 125 23 41 40 65 93 65 143 0
25 23 34 88 34 36 0 43 3 40 18 -3 14 -13 16 -61 13 l-59 -3 9 48 c4 27 8 85
8 129 0 63 -3 80 -15 80 -8 0 -17 -14 -21 -35 -9 -40 -68 -100 -100 -100 -16
0 -19 4 -14 23 7 24 88 107 105 107 5 0 10 7 10 15 0 30 -34 14 -92 -43z m72
-278 c0 -47 -25 -106 -57 -134 -40 -36 -44 -36 -94 -8 -36 20 -69 68 -69 101
0 34 56 52 178 56 32 1 42 -3 42 -15z"/>
<path d="M4435 1090 c-29 -30 -44 -38 -61 -34 -26 7 -38 -8 -29 -36 10 -31 31
-24 87 28 l51 47 -6 -71 c-5 -67 2 -94 24 -94 12 0 15 173 3 191 -10 17 -30 9
-69 -31z"/>
</g>
</svg>
