<?xml version="1.0" standalone="no"?>
<!DOCTYPE svg PUBLIC "-//W3C//DTD SVG 20010904//EN"
 "http://www.w3.org/TR/2001/REC-SVG-20010904/DTD/svg10.dtd">
<svg version="1.0" xmlns="http://www.w3.org/2000/svg"
 width="1618.000000pt" height="1214.000000pt" viewBox="0 0 1618.000000 1214.000000"
 preserveAspectRatio="xMidYMid meet">

<g transform="translate(0.000000,1214.000000) scale(0.100000,-0.100000)"
fill="#000000" stroke="none">
<path d="M12860 11684 c-6 -15 -9 -33 -6 -41 3 -7 2 -13 -2 -13 -5 0 -21 -27
-37 -60 -28 -60 -38 -69 -50 -50 -11 17 -98 11 -131 -9 -35 -21 -64 -75 -64
-118 0 -36 32 -72 70 -79 l28 -6 -39 -81 c-40 -82 -52 -151 -25 -141 7 3 16
22 20 42 3 20 21 66 39 102 32 62 36 65 83 76 65 14 100 38 113 76 17 49 13
75 -17 99 l-27 23 32 63 c18 34 35 78 38 96 8 44 -11 59 -25 21z m-107 -200
c3 -4 -10 -37 -29 -75 -30 -61 -38 -69 -63 -69 -40 0 -65 31 -57 72 10 52 42
78 96 78 26 0 49 -3 53 -6z m77 -29 c31 -38 -29 -120 -83 -113 l-26 3 36 63
c36 64 51 73 73 47z"/>
<path d="M14880 11613 c-18 -27 -33 -54 -33 -60 0 -7 -3 -13 -6 -14 -59 -7
-133 -39 -128 -53 3 -6 -5 -29 -16 -51 -13 -27 -20 -58 -19 -99 1 -48 -5 -71
-34 -127 -33 -66 -43 -109 -26 -109 4 0 25 36 47 79 38 78 39 79 71 74 63 -10
166 71 180 142 9 50 -2 84 -34 97 -15 7 -29 13 -31 15 -2 1 16 32 39 68 27 42
40 69 33 76 -6 6 -21 -8 -43 -38z m-94 -157 c0 -13 -5 -24 -10 -23 -6 1 -12
-7 -14 -18 -2 -11 -7 -22 -11 -25 -4 -3 -15 -16 -24 -30 l-17 -24 0 28 c0 35
45 116 64 116 8 0 13 -10 12 -24z m92 2 c34 -28 -1 -108 -65 -148 -54 -35 -86
-36 -88 -3 -1 12 2 21 6 20 4 -1 7 1 8 6 1 4 9 15 19 25 9 9 28 41 42 69 26
53 42 59 78 31z"/>
<path d="M15156 11618 c-15 -57 -53 -170 -66 -203 -28 -66 -34 -105 -17 -105
10 0 21 18 30 48 8 26 29 85 46 132 31 87 39 140 21 140 -6 0 -12 -6 -14 -12z"/>
<path d="M15324 11579 c-10 -17 5 -23 44 -21 20 2 46 0 58 -5 20 -8 20 -9 -13
-65 l-34 -58 -54 0 c-42 0 -55 -3 -55 -15 0 -11 12 -15 45 -15 25 0 45 -4 45
-9 0 -5 -7 -28 -15 -51 -8 -23 -15 -51 -15 -62 0 -38 21 -12 44 52 l22 65 54
5 c69 6 81 30 16 30 -25 0 -46 4 -46 8 0 4 13 29 29 54 16 25 27 48 24 51 -2
3 5 8 16 12 12 3 21 12 21 19 0 16 -176 20 -186 5z"/>
<path d="M12961 11457 c-57 -130 -74 -197 -50 -197 9 0 19 19 26 49 6 26 32
93 57 148 49 106 53 123 34 123 -7 0 -37 -55 -67 -123z"/>
<path d="M14525 11552 c-71 -31 -115 -55 -115 -64 0 -11 44 -10 56 1 15 16
115 52 125 46 24 -16 -84 -141 -152 -175 -54 -28 -99 -69 -99 -91 0 -29 17
-23 71 22 59 49 83 48 87 -3 3 -41 26 -68 43 -51 8 8 7 13 0 17 -6 4 -11 24
-11 45 0 23 -6 44 -15 51 -14 11 -11 17 21 43 42 35 94 112 94 139 0 18 -28
38 -52 37 -7 0 -31 -8 -53 -17z"/>
<path d="M13851 11551 c-37 -6 -51 -25 -27 -34 8 -3 30 -2 48 4 18 5 47 9 65
9 l32 0 -47 -70 -47 -70 -45 2 c-35 2 -45 0 -45 -12 0 -10 12 -16 32 -18 l33
-3 -15 -30 c-9 -16 -17 -46 -18 -66 -3 -50 20 -55 29 -6 13 74 45 113 93 113
27 0 27 28 0 32 -18 3 -16 9 25 68 25 36 46 71 46 78 0 13 -94 15 -159 3z"/>
<path d="M13545 11524 c-71 -31 -69 -29 -62 -47 4 -12 17 -9 66 14 33 16 63
29 66 29 11 0 -26 -74 -62 -122 -24 -33 -51 -56 -79 -68 -39 -17 -74 -59 -74
-90 0 -18 27 -11 58 15 36 30 42 31 42 7 0 -26 20 -42 52 -42 41 0 98 26 98
44 0 20 -10 20 -46 1 -48 -25 -71 -20 -78 17 -4 23 -2 36 7 43 25 18 105 143
112 174 13 58 -9 64 -100 25z"/>
<path d="M13042 11290 c-1 -31 11 -37 38 -20 12 7 12 13 4 27 -19 31 -41 27
-42 -7z"/>
<path d="M13977 11254 c-4 -4 -7 -11 -7 -16 0 -13 50 -6 53 7 2 12 -36 19 -46
9z"/>
<path d="M6327 11243 c-12 -11 -8 -23 9 -23 8 0 13 -4 10 -9 -4 -5 -15 -53
-26 -107 -11 -54 -22 -100 -25 -102 -3 -3 -39 -6 -82 -7 -45 -2 -79 -7 -81
-13 -5 -17 43 -25 99 -18 27 4 49 3 49 -2 0 -5 -9 -35 -20 -68 -12 -32 -19
-70 -18 -83 4 -32 28 -40 28 -9 0 12 12 58 26 100 23 71 28 78 52 78 15 0 33
4 41 9 22 14 2 34 -28 28 l-27 -6 12 67 c7 37 18 86 24 110 6 24 8 48 5 53 -7
10 -39 12 -48 2z"/>
<path d="M2660 11233 c-164 -15 -273 -30 -430 -60 -90 -17 -111 -26 -94 -43 8
-8 20 -7 40 1 16 7 33 11 38 10 4 -1 14 3 20 9 7 5 15 7 18 5 3 -3 63 3 135
14 71 12 168 24 216 27 54 4 84 11 80 17 -4 6 2 8 16 4 14 -3 21 -1 18 6 -4
13 -12 15 -57 10z"/>
<path d="M11637 11222 c-24 -5 -16 -26 11 -30 14 -2 22 2 22 12 0 18 -10 24
-33 18z"/>
<path d="M6507 11214 c-3 -3 -3 -12 0 -20 7 -19 -30 -136 -83 -266 -48 -116
-51 -128 -31 -128 6 0 25 25 41 55 28 55 81 105 110 105 21 0 21 -34 1 -91
-15 -42 -14 -69 3 -69 4 0 18 32 31 71 21 66 22 72 6 95 -23 35 -40 39 -79 16
l-33 -20 18 49 c28 73 57 182 52 197 -5 13 -25 16 -36 6z"/>
<path d="M12037 11168 c-3 -13 -16 -54 -29 -92 -23 -67 -26 -70 -59 -73 -59
-6 -79 -13 -79 -29 0 -12 9 -13 51 -8 47 6 51 5 46 -12 -3 -10 -8 -34 -12 -51
-4 -18 -14 -37 -22 -42 -21 -11 -8 -30 17 -24 19 5 24 18 45 105 6 23 13 27
46 30 51 4 55 22 7 26 l-37 3 29 81 c17 45 30 88 30 95 0 22 -27 14 -33 -9z"/>
<path d="M2613 11096 c-7 -41 -28 -117 -48 -169 -19 -52 -35 -102 -35 -111 0
-25 19 -19 32 12 23 52 69 112 106 137 47 32 66 33 56 3 -23 -77 -47 -128 -60
-128 -20 0 -18 -14 5 -34 22 -20 40 -14 39 12 0 9 11 47 26 85 33 85 33 105 2
113 -32 8 -59 -2 -95 -32 l-29 -24 13 51 c24 89 29 159 13 159 -9 0 -17 -23
-25 -74z"/>
<path d="M4713 11133 c6 -34 -15 -116 -55 -216 -23 -55 -29 -80 -21 -88 8 -8
24 7 58 51 50 65 73 80 112 72 29 -6 29 -21 -2 -81 -22 -45 -23 -61 -4 -61 15
0 60 101 57 128 -2 16 -13 32 -30 42 -25 13 -32 13 -71 -1 l-44 -15 20 74 c15
57 17 80 8 98 -15 33 -35 31 -28 -3z"/>
<path d="M2419 11148 c0 -2 -2 -25 -4 -53 -1 -27 -12 -89 -24 -136 -25 -102
-28 -169 -7 -169 9 0 15 18 19 58 3 31 16 106 30 165 26 110 26 137 1 137 -8
0 -14 -1 -15 -2z"/>
<path d="M13193 11133 c-7 -3 -13 -10 -13 -17 0 -7 -22 -70 -50 -139 -27 -69
-50 -136 -50 -147 0 -38 22 -16 45 45 12 33 39 103 58 155 35 90 37 113 10
103z"/>
<path d="M3666 11121 c-9 -15 23 -36 36 -23 5 5 7 15 4 21 -9 13 -33 14 -40 2z"/>
<path d="M2876 11103 c-3 -3 -6 -12 -6 -20 0 -15 36 -18 45 -4 7 12 -29 33
-39 24z"/>
<path d="M10845 11050 c-77 -33 -79 -67 -10 -128 44 -38 38 -53 -20 -55 -25
-1 -40 4 -46 16 -14 24 -31 21 -27 -5 6 -47 103 -61 143 -22 23 24 18 41 -25
88 -22 24 -40 48 -40 55 0 6 20 16 45 23 43 12 59 31 33 41 -7 2 -31 -4 -53
-13z"/>
<path d="M8768 11023 c-36 -39 -48 -66 -48 -106 0 -43 31 -83 69 -92 36 -8
109 13 136 38 20 19 20 19 -10 13 -16 -4 -48 -11 -69 -15 -69 -15 -107 16 -91
76 9 36 35 73 51 73 22 0 16 -19 -10 -31 -22 -10 -44 -49 -28 -49 15 0 73 41
79 56 8 23 -14 64 -35 64 -10 0 -30 -12 -44 -27z"/>
<path d="M9726 11039 c-49 -14 -96 -71 -96 -119 0 -34 28 -77 54 -84 35 -9 86
4 86 21 0 12 -8 14 -35 9 -27 -5 -39 -2 -55 14 -25 25 -25 46 0 87 24 39 65
53 84 28 11 -15 13 -15 25 -1 28 33 -9 59 -63 45z"/>
<path d="M10570 11028 c-50 -34 -74 -73 -73 -115 2 -64 63 -98 140 -77 34 9
17 24 -28 24 -71 0 -111 43 -51 55 75 16 122 66 107 114 -9 28 -52 28 -95 -1z
m70 -18 c0 -21 -49 -60 -75 -60 -34 0 -29 18 15 48 35 24 60 29 60 12z"/>
<path d="M4425 11025 c-56 -17 -145 -63 -145 -75 0 -16 28 -11 78 14 26 13 58
27 72 31 24 7 23 6 -11 -36 -59 -73 -89 -122 -89 -146 0 -33 27 -29 80 9 24
18 45 28 47 23 13 -37 31 -60 49 -63 24 -3 80 47 95 85 12 32 12 123 0 123
-16 0 -25 -23 -22 -57 3 -35 -10 -66 -42 -100 -28 -31 -34 -29 -41 13 -9 47
-28 52 -76 20 -22 -14 -42 -26 -45 -26 -6 0 28 49 76 111 33 42 44 75 27 81
-7 3 -31 -1 -53 -7z"/>
<path d="M8255 10997 c-34 -33 -45 -51 -45 -74 0 -63 74 -113 141 -96 46 12
47 29 2 29 -56 0 -91 12 -103 33 -8 17 -6 20 20 26 39 9 90 51 90 75 0 64 -42
67 -105 7z m75 -1 c0 -19 -39 -46 -65 -46 -17 1 -15 5 15 30 38 33 50 37 50
16z"/>
<path d="M10343 11018 c-18 -13 -35 -30 -38 -38 -3 -8 -19 -23 -36 -33 l-31
-17 4 25 c3 14 0 33 -7 42 -12 16 -14 16 -37 1 -22 -15 -27 -15 -40 -2 -13 14
-20 6 -55 -68 -26 -53 -37 -87 -31 -93 6 -7 17 0 31 20 12 17 41 50 65 75 l44
45 -6 -31 c-3 -18 -8 -43 -12 -58 -11 -44 18 -31 101 46 l77 72 -8 -44 c-16
-89 -5 -117 41 -106 28 7 29 32 1 30 -14 -2 -16 8 -14 74 2 44 -1 76 -7 78 -6
2 -25 -6 -42 -18z"/>
<path d="M3778 11004 c-45 -29 -47 -44 -13 -88 38 -50 33 -56 -40 -56 -51 0
-65 -3 -65 -15 0 -12 14 -15 64 -15 35 0 71 3 80 6 24 9 19 59 -9 93 l-26 30
41 27 c22 15 40 31 40 35 0 16 -35 8 -72 -17z"/>
<path d="M6742 11018 c-12 -6 -32 -26 -43 -45 -11 -18 -27 -33 -34 -33 -20 0
-29 -20 -16 -33 6 -6 11 -22 11 -34 0 -38 43 -73 88 -73 84 0 232 36 232 56 0
17 4 17 -69 -2 -85 -21 -199 -24 -211 -4 -17 26 -6 42 40 57 46 15 100 58 100
78 0 18 -34 45 -56 44 -10 0 -29 -5 -42 -11z m56 -36 c4 -12 -76 -57 -85 -48
-3 3 9 19 26 36 30 31 51 35 59 12z"/>
<path d="M7731 11016 c-50 -28 -66 -99 -30 -131 20 -19 22 -19 91 10 15 6 15
0 -4 -61 -11 -37 -36 -108 -55 -158 -65 -169 -79 -236 -48 -236 14 0 87 88 88
106 1 5 21 26 46 47 42 35 70 51 125 71 14 5 16 10 9 17 -30 30 -146 -42 -206
-127 -17 -25 -33 -41 -35 -36 -1 5 20 68 48 141 27 73 57 161 66 194 8 33 27
83 41 110 33 66 16 85 -24 25 -29 -44 -104 -95 -123 -83 -16 10 -11 51 8 69
13 11 28 14 49 10 19 -4 33 -1 38 6 17 27 -47 47 -84 26z"/>
<path d="M7988 10988 c-5 -108 11 -148 60 -148 53 0 137 126 118 177 -10 26
-31 8 -37 -33 -7 -49 -23 -80 -54 -100 -46 -30 -58 -13 -53 71 5 68 3 75 -14
75 -14 0 -18 -9 -20 -42z"/>
<path d="M8470 11028 c-11 -116 -9 -159 10 -178 27 -27 89 -27 124 1 53 42 92
169 51 169 -10 0 -15 -10 -15 -30 0 -38 -34 -106 -59 -120 -28 -15 -67 -12
-81 5 -9 11 -10 29 -1 76 6 34 8 66 5 70 -5 8 -34 13 -34 7z"/>
<path d="M9945 11016 c-54 -24 -95 -70 -95 -108 0 -72 93 -106 145 -53 29 28
31 51 11 100 -9 22 -11 37 -5 41 6 4 6 11 -2 20 -14 17 -16 17 -54 0z m45
-113 c0 -20 -30 -43 -59 -43 -61 0 -68 53 -14 101 l37 32 18 -39 c10 -21 18
-44 18 -51z"/>
<path d="M11496 10986 c-36 -34 -66 -90 -66 -124 0 -10 8 -26 18 -35 30 -27
102 -20 102 9 0 11 -9 13 -39 8 -24 -4 -41 -2 -45 5 -14 21 15 81 56 115 22
19 37 39 33 45 -10 17 -21 13 -59 -23z"/>
<path d="M13577 11013 c-15 -26 20 -167 45 -184 5 -3 -21 -46 -57 -95 -37 -49
-73 -101 -81 -116 -8 -16 -19 -28 -24 -28 -6 0 -10 -9 -10 -20 0 -38 31 -15
74 54 27 42 157 220 218 298 26 33 45 64 42 69 -9 15 -29 10 -39 -10 -23 -43
-88 -121 -101 -121 -14 0 -19 15 -29 92 -6 43 -28 79 -38 61z"/>
<path d="M2986 10969 c-53 -36 -59 -61 -18 -86 53 -33 62 -44 52 -63 -12 -23
-70 -43 -96 -34 -10 4 -27 14 -36 22 -16 13 -18 13 -24 -2 -11 -28 19 -48 72
-49 56 -1 87 13 110 49 21 32 8 66 -36 89 -39 20 -38 31 5 56 19 12 35 25 35
29 0 21 -21 17 -64 -11z"/>
<path d="M4936 10959 c-45 -37 -50 -45 -52 -86 -2 -61 26 -95 82 -96 56 -1 94
11 94 29 0 13 -6 15 -27 9 -32 -8 -91 -8 -104 1 -5 3 -9 18 -9 34 0 25 6 32
38 45 61 24 67 30 67 66 0 48 -28 48 -89 -2z m54 -14 c-7 -8 -17 -15 -23 -15
-5 0 -2 9 8 20 21 23 35 19 15 -5z"/>
<path d="M11710 10983 c-61 -41 -120 -120 -105 -143 10 -17 32 1 51 42 18 40
86 97 92 78 2 -6 -10 -35 -27 -66 -29 -51 -33 -74 -11 -74 13 0 70 117 70 144
0 13 -7 27 -16 30 -21 8 -25 7 -54 -11z"/>
<path d="M13339 10974 c-82 -46 -91 -106 -16 -112 20 -2 49 4 66 12 16 9 31
16 33 16 2 0 3 -19 3 -42 0 -39 2 -43 28 -46 28 -3 38 15 12 24 -19 8 -19 41
0 74 28 49 7 84 -26 44 -19 -23 -84 -54 -114 -54 -29 0 -32 11 -7 32 23 21 86
52 78 40 -11 -18 15 -25 32 -9 13 13 13 19 2 31 -17 22 -38 20 -91 -10z"/>
<path d="M3627 10983 c-4 -3 -7 -14 -7 -24 0 -10 -10 -39 -22 -64 -16 -33 -19
-48 -11 -56 19 -19 69 90 64 139 -1 13 -14 16 -24 5z"/>
<path d="M5188 10963 c-27 -21 -38 -38 -43 -68 -11 -68 -11 -80 4 -80 14 0 22
19 35 78 9 39 41 67 77 67 40 0 34 24 -7 28 -20 2 -41 -6 -66 -25z"/>
<path d="M5415 10979 c-11 -7 -35 -25 -52 -42 -28 -26 -33 -38 -33 -78 0 -38
5 -53 30 -79 29 -31 33 -32 94 -28 55 3 68 8 99 38 20 18 34 37 31 42 -6 10
-43 -8 -67 -33 -27 -29 -107 -26 -135 4 -36 38 -29 60 25 77 55 17 86 57 67
87 -14 22 -33 26 -59 12z m26 -47 c-10 -20 -61 -37 -61 -20 0 9 62 49 68 43 2
-2 -1 -12 -7 -23z"/>
<path d="M12870 10948 c-19 -12 -41 -22 -49 -22 -8 -1 -18 -14 -22 -29 -4 -16
-12 -34 -18 -41 -15 -18 -101 -216 -101 -232 0 -35 32 -6 74 68 16 27 36 48
49 52 66 16 167 130 167 187 0 44 -44 52 -100 17z m70 -21 c0 -25 -55 -96 -98
-128 -24 -17 -45 -29 -47 -27 -11 11 28 98 54 120 51 46 91 61 91 35z"/>
<path d="M2836 10948 c-9 -28 -27 -104 -29 -118 -1 -8 5 -15 13 -15 10 0 20
21 31 65 9 36 15 68 12 73 -7 11 -23 8 -27 -5z"/>
<path d="M12128 10916 c-56 -58 -59 -115 -7 -137 59 -24 161 30 174 92 10 43
-17 68 -81 75 -48 6 -52 5 -86 -30z m134 -14 c10 -10 -5 -53 -23 -69 -20 -16
-88 -33 -105 -26 -21 8 -17 51 9 84 20 27 26 29 67 24 24 -3 48 -9 52 -13z"/>
<path d="M13854 10835 c-3 -8 -3 -19 1 -25 9 -14 35 6 35 26 0 19 -29 18 -36
-1z"/>
</g>
</svg>
