<?xml version="1.0" standalone="no"?>
<!DOCTYPE svg PUBLIC "-//W3C//DTD SVG 20010904//EN"
 "http://www.w3.org/TR/2001/REC-SVG-20010904/DTD/svg10.dtd">
<svg version="1.0" xmlns="http://www.w3.org/2000/svg"
 width="1618.000000pt" height="1214.000000pt" viewBox="0 0 1618.000000 1214.000000"
 preserveAspectRatio="xMidYMid meet">

<g transform="translate(0.000000,1214.000000) scale(0.100000,-0.100000)"
fill="#000000" stroke="none">
<path d="M12355 11708 c-2 -7 -9 -31 -15 -53 -7 -22 -21 -61 -33 -88 -16 -39
-23 -46 -39 -41 -10 3 -42 0 -70 -8 -41 -10 -52 -10 -56 0 -4 13 -32 17 -32 3
0 -4 5 -21 10 -38 8 -21 8 -38 0 -57 -13 -35 2 -95 29 -120 19 -17 18 -19 -19
-104 -56 -126 -69 -202 -34 -202 8 0 14 10 14 25 0 25 0 25 30 10 17 -9 35
-13 40 -10 17 10 11 35 -7 35 -10 1 -28 6 -39 13 -21 12 -21 12 18 105 l40 92
45 0 c53 0 100 20 138 60 21 22 27 38 27 72 -1 38 -6 48 -42 80 l-41 37 25 59
c31 73 44 142 27 142 -6 0 -13 -6 -16 -12z m-131 -310 c-20 -40 -38 -75 -41
-78 -10 -11 -33 36 -33 70 0 54 23 80 71 80 l39 0 -36 -72z m115 46 c38 -31
41 -71 9 -101 -35 -31 -63 -43 -102 -43 l-36 0 42 85 c23 47 46 85 49 85 4 0
21 -12 38 -26z"/>
<path d="M14273 11656 c3 -8 0 -19 -7 -25 -7 -6 -18 -29 -25 -51 -12 -42 -27
-50 -45 -25 -10 14 -17 12 -59 -16 -58 -38 -99 -104 -101 -161 -1 -35 4 -45
35 -72 l36 -31 -29 -65 c-28 -62 -34 -115 -13 -115 6 0 11 11 13 23 2 13 16
54 32 90 26 62 31 67 66 75 112 23 171 155 99 221 l-24 22 25 59 c28 71 30 85
8 85 -10 0 -14 -6 -11 -14z m-63 -150 c0 -2 -13 -33 -28 -68 -16 -34 -35 -78
-43 -95 -16 -38 -19 -39 -48 -15 -38 31 -32 85 15 140 29 34 42 42 70 42 19 0
34 -2 34 -4z m58 -47 c23 -45 -7 -107 -64 -134 -20 -9 -37 -15 -40 -13 -7 8
71 177 81 174 6 -1 16 -13 23 -27z"/>
<path d="M12545 11608 c-2 -7 -6 -31 -10 -53 -4 -22 -19 -79 -35 -126 -38
-116 -42 -159 -15 -159 10 0 15 10 15 31 0 17 14 72 31 123 34 102 49 196 30
196 -6 0 -13 -6 -16 -12z"/>
<path d="M13876 11600 c-48 -24 -76 -49 -76 -67 0 -17 15 -17 30 2 14 17 95
55 116 55 25 0 15 -46 -20 -91 -41 -51 -85 -94 -181 -174 -75 -62 -85 -73 -85
-92 0 -24 22 -13 77 37 68 62 93 65 93 12 0 -39 14 -62 37 -62 7 0 13 7 13 15
0 8 -4 15 -10 15 -5 0 -10 16 -10 36 0 19 -5 44 -11 55 -9 18 -3 29 48 82 86
89 100 117 94 185 -2 19 -70 14 -115 -8z"/>
<path d="M13035 11591 c-49 -24 -75 -45 -75 -60 0 -17 17 -13 58 13 20 14 49
28 65 31 40 10 36 -20 -12 -91 -50 -74 -95 -118 -151 -147 -53 -27 -90 -71
-73 -88 13 -13 65 14 98 51 27 29 52 25 90 -17 25 -27 37 -35 45 -27 8 8 -1
24 -32 56 l-44 45 49 54 c61 68 89 121 85 162 -3 27 -7 32 -33 35 -16 1 -48
-7 -70 -17z"/>
<path d="M13364 11578 c-9 -18 -52 -64 -95 -102 -103 -91 -103 -113 1 -97 l51
8 -7 -45 c-11 -70 -10 -77 6 -77 11 0 17 17 23 63 8 54 12 65 34 73 25 9 23
29 -2 29 -12 0 -12 8 1 53 8 28 19 60 24 69 15 27 12 58 -5 58 -9 0 -23 -15
-31 -32z m-26 -118 c-9 -34 -15 -40 -45 -46 -18 -4 -36 -4 -39 -2 -4 5 81 88
90 88 2 0 -1 -18 -6 -40z"/>
<path d="M14645 11586 c-62 -27 -66 -64 -15 -135 l20 -29 -45 -26 c-64 -38
-74 -91 -23 -129 20 -15 35 -18 61 -13 42 8 60 43 56 110 -3 44 -1 47 39 73
41 27 64 75 48 102 -5 8 -103 62 -109 61 -1 -1 -16 -7 -32 -14z m72 -42 c45
-18 49 -24 33 -55 -9 -16 -58 -49 -74 -49 -7 0 -46 70 -46 84 0 15 20 36 34
36 6 0 30 -7 53 -16z m-47 -193 c0 -60 -35 -87 -74 -58 -26 19 -17 47 23 74
46 31 51 29 51 -16z"/>
<path d="M14456 11578 c-3 -7 -4 -20 -4 -28 0 -8 -11 -47 -25 -86 -30 -83 -53
-195 -44 -218 11 -27 27 -18 27 15 0 39 34 174 58 231 11 24 22 55 26 71 5 23
3 27 -14 27 -11 0 -22 -6 -24 -12z"/>
<path d="M4161 11356 c-8 -9 -8 -15 -2 -18 7 -2 7 -17 1 -43 -5 -22 -16 -77
-25 -122 -8 -45 -29 -125 -45 -179 -17 -53 -30 -103 -30 -110 0 -28 29 -13 40
20 6 19 28 54 50 78 54 60 66 46 45 -53 -18 -91 -19 -109 -2 -109 9 0 20 32
32 94 18 89 18 96 2 120 -21 31 -36 33 -71 5 -29 -23 -30 -22 -16 15 6 17 6
26 0 26 -6 0 -10 8 -10 18 0 13 2 14 9 3 11 -17 14 -7 36 109 27 146 28 160
12 160 -8 0 -20 -6 -26 -14z"/>
<path d="M13436 11321 c-12 -13 -14 -21 -6 -26 11 -7 50 21 50 37 0 15 -27 8
-44 -11z"/>
<path d="M12575 11300 c-4 -6 -3 -16 3 -22 6 -6 12 -6 17 2 4 6 3 16 -3 22 -6
6 -12 6 -17 -2z"/>
<path d="M2666 11233 c-39 -67 -106 -158 -243 -330 -40 -51 -73 -97 -73 -103
0 -26 29 -4 79 59 l55 69 70 4 c39 3 79 8 88 12 15 7 17 -1 15 -71 -2 -63 1
-78 13 -78 11 0 14 9 12 32 -2 18 11 121 28 230 31 194 32 243 7 243 -7 0 -30
-30 -51 -67z m19 -136 c-9 -56 -20 -105 -23 -108 -14 -13 -77 -29 -114 -29
l-39 0 55 73 c31 39 72 98 93 129 21 31 40 52 42 47 1 -6 -5 -56 -14 -112z"/>
<path d="M2900 11285 c0 -8 8 -15 19 -15 31 0 20 -75 -53 -354 -24 -92 -26
-136 -7 -136 16 0 30 26 25 46 -3 12 11 83 32 160 37 140 58 272 47 299 -7 20
-63 20 -63 0z"/>
<path d="M6045 11290 c-5 -9 33 -30 54 -30 4 0 27 -14 50 -31 83 -60 125 -223
87 -336 -30 -89 -117 -190 -156 -181 -19 4 -24 -21 -6 -28 44 -17 116 49 172
156 26 50 29 64 29 155 -1 119 -24 184 -87 241 -58 52 -128 79 -143 54z"/>
<path d="M5656 11253 c-77 -118 -126 -312 -107 -417 15 -80 38 -116 94 -144
69 -36 197 -37 197 -2 0 12 -47 14 -54 1 -6 -9 -100 10 -132 27 -93 50 -106
206 -32 395 18 44 44 98 59 121 26 38 29 56 9 56 -6 0 -21 -17 -34 -37z"/>
<path d="M3954 11249 c-3 -6 -1 -15 6 -19 10 -6 8 -27 -10 -98 l-22 -91 -49
-10 c-28 -6 -61 -11 -74 -11 -16 0 -25 -6 -25 -15 0 -17 43 -20 100 -6 l36 8
-13 -61 c-15 -75 -16 -106 -3 -106 13 0 14 4 35 102 9 43 19 77 23 77 40 -6
59 18 21 28 -12 4 -18 11 -15 20 9 23 46 170 46 182 0 14 -47 14 -56 0z"/>
<path d="M3725 11150 c-3 -5 -3 -15 0 -20 7 -12 45 5 45 20 0 13 -37 13 -45 0z"/>
<path d="M5890 11126 c-36 -6 -71 -15 -77 -19 -8 -5 -13 -30 -13 -64 l0 -55
48 7 c40 5 52 3 75 -15 45 -36 29 -71 -44 -90 -35 -10 -48 -8 -95 11 -39 17
-57 20 -65 12 -29 -29 52 -67 127 -60 94 9 145 53 130 112 -8 33 -61 65 -108
65 -34 0 -38 3 -38 25 0 19 7 26 38 34 20 6 52 11 70 11 21 0 32 5 32 14 0 22
-10 24 -80 12z"/>
<path d="M11822 11107 c-7 -8 -37 -17 -68 -20 -63 -6 -69 -10 -61 -31 5 -13
12 -14 32 -6 15 6 46 10 69 10 37 0 45 4 50 22 7 28 -7 44 -22 25z"/>
<path d="M12433 11104 c-8 -21 -1 -25 53 -30 65 -6 105 3 97 23 -4 10 -15 13
-37 9 -17 -3 -48 -2 -69 3 -30 7 -40 6 -44 -5z"/>
<path d="M14810 11094 c-13 -32 -13 -41 0 -49 5 -3 15 5 21 19 6 13 20 27 30
29 30 8 22 27 -11 27 -24 0 -33 -6 -40 -26z"/>
<path d="M14908 11113 c-27 -7 -31 -33 -5 -33 29 0 51 15 43 29 -7 11 -10 12
-38 4z"/>
<path d="M13047 11104 c-3 -4 -21 -8 -39 -10 -33 -4 -67 -28 -55 -40 3 -4 20
-1 36 6 16 6 48 13 70 14 46 2 62 13 41 26 -17 11 -44 13 -53 4z"/>
<path d="M13528 11103 c-38 -4 -50 -19 -25 -29 21 -8 167 10 170 21 3 13 -64
19 -72 7 -3 -5 -17 -13 -31 -17 -22 -7 -23 -6 -11 9 7 9 12 15 10 14 -2 -1
-21 -3 -41 -5z"/>
<path d="M14520 11091 c0 -4 -10 -6 -22 -4 -22 4 -68 -20 -58 -30 3 -3 40 -2
83 0 52 4 77 10 77 18 0 13 -30 25 -62 25 -10 0 -18 -4 -18 -9z"/>
<path d="M14138 11079 c-25 -10 -44 -36 -34 -47 3 -2 21 3 40 12 19 9 51 16
71 16 25 0 35 4 33 13 -6 15 -74 19 -110 6z"/>
<path d="M4760 11028 c-65 -45 -65 -72 0 -113 23 -14 44 -33 47 -41 10 -26
-15 -64 -53 -80 -32 -14 -38 -13 -61 1 -21 14 -24 22 -19 47 5 24 3 29 -11 26
-42 -8 -26 -82 22 -105 31 -15 37 -15 80 1 50 20 75 54 75 106 0 26 -8 35 -50
61 -28 17 -49 36 -47 43 2 6 21 20 41 31 29 15 40 17 43 8 6 -17 33 -17 33 0
0 40 -51 48 -100 15z"/>
<path d="M3570 11014 c-19 -8 -38 -21 -42 -28 -4 -7 -18 -11 -30 -9 -22 4 -23
2 -24 -81 -1 -113 17 -113 46 1 6 22 19 52 29 65 17 19 23 21 39 11 23 -14 32
-8 32 23 0 31 -9 35 -50 18z"/>
<path d="M4375 11006 c-14 -14 -25 -30 -25 -36 0 -5 -4 -10 -8 -10 -5 0 -7 14
-4 30 3 23 0 30 -12 30 -11 0 -16 -9 -16 -28 0 -15 -4 -32 -10 -38 -12 -12
-40 -131 -32 -138 12 -13 30 -5 36 17 7 30 85 151 93 144 3 -3 -2 -27 -11 -53
-35 -103 -10 -111 64 -21 74 88 85 92 74 31 -4 -27 -8 -67 -8 -89 -1 -38 1
-40 29 -40 21 0 31 5 33 18 3 15 0 18 -17 12 -25 -8 -25 -6 -6 85 8 40 13 76
9 81 -14 23 -58 8 -98 -33 l-42 -43 0 49 c1 58 -13 68 -49 32z"/>
<path d="M3116 11003 c-3 -4 -16 -8 -29 -10 -49 -8 -110 -104 -94 -147 12 -31
78 -12 114 31 9 12 13 4 18 -39 4 -29 5 -69 3 -88 -3 -34 -4 -34 -66 -45 -119
-22 -146 -69 -92 -163 38 -65 68 -82 104 -58 31 20 61 77 71 133 5 30 10 40
21 36 16 -6 20 32 5 41 -5 3 -12 76 -16 161 -7 149 -13 173 -39 148z m-9 -60
c4 -11 -5 -27 -30 -50 -55 -49 -73 -42 -42 17 23 45 61 63 72 33z m8 -310 c-8
-55 -38 -118 -59 -126 -23 -9 -86 76 -86 117 0 24 66 52 129 55 22 1 23 -1 16
-46z"/>
<path d="M3319 10985 c-3 -2 -22 -6 -44 -7 -29 -3 -39 -8 -41 -23 -16 -112
-16 -115 0 -140 9 -13 27 -27 41 -31 78 -19 162 129 105 186 -18 18 -50 26
-61 15z m44 -46 c15 -23 0 -67 -33 -100 -33 -33 -42 -35 -64 -13 -32 31 -12
106 33 123 34 13 51 10 64 -10z"/>
<path d="M3684 10943 c-24 -58 -30 -113 -11 -113 9 0 17 14 22 37 4 21 13 50
21 65 18 35 18 48 -1 48 -8 0 -22 -17 -31 -37z"/>
<path d="M13317 10868 c-59 -41 -124 -128 -132 -176 -3 -20 -8 -47 -11 -59 -6
-29 -2 -39 12 -35 6 1 24 -5 40 -13 38 -20 46 -19 78 6 28 22 35 66 12 75 -8
3 -33 0 -56 -6 -23 -6 -45 -9 -48 -6 -3 3 0 25 7 48 15 48 118 158 149 158 24
0 32 8 25 26 -8 21 -24 17 -76 -18z m-29 -244 c-8 -9 -26 -14 -39 -12 -22 4
-20 5 11 15 47 15 46 15 28 -3z"/>
<path d="M14416 10867 c-7 -19 -17 -43 -20 -55 -4 -12 -15 -22 -25 -22 -25 0
-65 -33 -91 -76 -23 -37 -30 -108 -11 -127 12 -12 3 -35 -37 -104 -36 -60 -45
-108 -22 -108 8 0 16 11 18 23 2 13 16 45 31 70 15 26 30 55 34 64 5 14 15 16
61 11 55 -6 56 -5 96 34 29 30 40 49 40 71 0 33 -39 87 -70 97 -18 6 -17 9 11
71 33 75 35 84 14 84 -8 0 -21 -15 -29 -33z m-66 -144 c-1 -10 -14 -43 -30
-73 l-29 -55 -1 39 c0 22 9 53 21 72 23 37 39 44 39 17z m85 -28 c33 -32 31
-60 -4 -96 -28 -28 -61 -36 -95 -23 -13 5 -10 17 19 75 20 38 40 69 46 69 5 0
21 -11 34 -25z"/>
<path d="M12233 10833 c-45 -73 -43 -70 -53 -54 -12 21 -76 -12 -101 -52 -21
-35 -25 -97 -8 -128 8 -16 3 -34 -27 -93 -22 -43 -35 -79 -31 -89 8 -21 27
-22 27 -2 0 9 14 42 30 75 29 58 32 60 69 60 52 0 86 14 116 46 33 36 31 53
-10 102 l-36 41 37 58 c21 32 42 61 47 64 11 8 1 29 -14 29 -5 0 -26 -26 -46
-57z m-69 -101 c5 -9 -55 -112 -66 -112 -12 0 -9 59 3 83 18 33 51 49 63 29z
m61 -62 l29 -30 -25 -26 c-17 -16 -42 -28 -69 -31 l-42 -6 33 61 c19 34 37 62
40 62 3 0 18 -14 34 -30z"/>
<path d="M12971 10847 c-61 -25 -83 -49 -63 -69 11 -11 16 -9 30 9 16 21 100
58 110 49 22 -22 -69 -138 -127 -162 -62 -26 -118 -94 -78 -94 8 0 33 14 55
30 23 17 44 30 47 30 2 0 2 -13 -1 -29 -10 -48 10 -71 60 -71 29 0 48 6 60 19
22 24 7 34 -31 19 -50 -19 -64 -7 -56 49 5 38 16 59 50 97 45 50 57 78 51 117
-4 33 -39 35 -107 6z"/>
<path d="M12465 10848 c-2 -7 -9 -35 -15 -63 -6 -27 -20 -78 -30 -113 -14 -46
-17 -69 -10 -88 13 -33 30 -22 30 19 0 18 9 59 19 92 26 84 36 151 22 159 -6
4 -13 1 -16 -6z"/>
<path d="M14005 10806 c-51 -24 -95 -59 -95 -76 0 -16 26 -11 41 7 15 17 106
63 127 63 20 0 14 -54 -10 -90 -13 -18 -45 -47 -72 -64 -79 -51 -140 -110
-133 -130 6 -15 17 -10 72 34 36 29 68 50 71 47 3 -3 13 -20 22 -39 20 -39 56
-59 86 -48 34 12 26 36 -11 32 -29 -3 -34 1 -53 39 l-20 43 40 41 c55 56 74
120 44 149 -21 22 -50 20 -109 -8z"/>
<path d="M14662 10780 c-6 -27 -27 -82 -46 -122 -43 -91 -50 -138 -21 -138 10
0 15 10 15 27 0 14 18 65 40 112 45 99 61 171 38 171 -9 0 -19 -18 -26 -50z"/>
<path d="M14865 10808 c-80 -41 -85 -58 -38 -109 l23 -25 -28 -40 c-38 -52
-43 -69 -28 -90 15 -20 44 -15 94 16 25 15 32 27 32 50 0 17 -6 39 -12 51 -14
21 -7 30 82 98 31 24 37 56 10 56 -8 0 -14 -6 -13 -12 2 -7 -22 -28 -52 -48
-30 -19 -55 -40 -55 -47 0 -6 -11 -1 -25 12 -14 13 -25 26 -25 30 0 10 68 40
91 40 14 0 19 5 17 17 -5 25 -27 26 -73 1z m21 -209 c-66 -51 -85 -42 -40 17
26 33 28 34 44 17 15 -17 15 -19 -4 -34z"/>
<path d="M12520 10601 c-13 -25 -13 -51 0 -51 12 0 41 55 33 64 -11 11 -22 6
-33 -13z"/>
<path d="M13440 10595 c-10 -12 -10 -19 -2 -27 15 -15 48 14 38 31 -10 15 -21
14 -36 -4z"/>
<path d="M2141 10389 c-6 -13 -22 -83 -36 -156 -14 -72 -39 -170 -55 -217 -34
-96 -36 -106 -16 -106 18 0 78 185 102 312 10 54 19 97 20 95 2 -1 7 -46 13
-99 10 -102 22 -138 46 -138 15 0 79 94 120 175 l20 39 3 -29 c2 -16 -6 -77
-18 -136 -23 -114 -23 -170 1 -177 11 -3 11 -2 -1 7 -10 7 -11 11 -2 11 7 0
12 13 12 33 0 17 7 61 16 97 8 36 20 103 25 149 16 143 -8 160 -67 49 -47 -91
-104 -181 -110 -175 -3 2 -11 62 -18 131 -9 89 -18 132 -29 143 -15 15 -17 14
-26 -8z"/>
<path d="M3907 10248 c-5 -131 -29 -227 -51 -209 -26 21 -80 22 -114 1 -63
-39 -72 -114 -20 -153 23 -17 31 -18 56 -8 89 37 157 191 163 366 3 104 1 125
-15 125 -10 0 -15 -28 -19 -122z m-60 -231 c17 0 -21 -72 -49 -91 -48 -34 -88
-9 -74 47 7 30 55 58 86 50 13 -4 30 -6 37 -6z"/>
<path d="M9887 10343 c-3 -5 -8 -24 -12 -43 -4 -19 -14 -47 -21 -62 -8 -15
-16 -35 -18 -45 -2 -10 -9 -33 -16 -50 -11 -30 -16 -33 -53 -34 -23 -1 -49 -1
-59 0 -21 2 -32 -15 -16 -25 6 -4 33 -7 58 -5 l47 2 -4 -53 c-7 -92 54 -152
114 -113 31 20 22 30 -25 30 -49 0 -68 32 -58 98 l7 47 40 0 c44 0 83 16 74
30 -3 5 -27 7 -52 3 l-46 -6 8 29 c5 16 8 39 8 51 -1 13 3 20 8 17 5 -3 9 -4
9 -2 0 2 9 28 20 58 11 30 20 60 20 67 0 14 -26 18 -33 6z"/>
<path d="M7983 10318 c4 -12 1 -69 -5 -126 l-11 -103 -36 3 c-27 2 -36 -1 -36
-12 0 -10 12 -16 33 -18 36 -4 38 -14 22 -107 -5 -30 -4 -54 1 -60 16 -16 27
12 34 87 8 74 7 74 81 69 18 -1 36 4 44 13 11 14 6 16 -49 16 -71 0 -68 -7
-50 129 12 90 7 131 -17 131 -12 0 -15 -6 -11 -22z"/>
<path d="M7525 10268 c-21 -72 -22 -355 0 -384 18 -24 17 -32 17 169 -1 122 3
178 13 208 19 52 19 59 0 59 -9 0 -20 -20 -30 -52z"/>
<path d="M14897 10272 c-9 -10 -24 -51 -33 -92 -37 -167 -43 -183 -91 -227
-47 -44 -103 -60 -103 -29 0 26 56 74 93 81 22 4 37 13 37 21 0 32 -90 3 -130
-42 -38 -44 -38 -83 2 -102 34 -16 64 -5 118 44 55 49 64 70 94 203 14 63 32
122 41 131 8 9 12 20 8 23 -10 11 -19 8 -36 -11z"/>
<path d="M3045 10268 c-23 -69 -70 -360 -62 -382 12 -32 24 -15 30 42 5 49 11
61 38 84 71 59 141 57 157 -4 5 -18 5 -35 1 -38 -14 -10 -23 -90 -10 -90 15 0
29 37 37 97 8 60 -18 99 -73 109 l-37 7 58 54 c44 41 56 58 51 73 -8 24 -18
25 -35 5 -7 -8 -9 -15 -4 -15 5 0 -16 -25 -46 -55 -45 -46 -52 -57 -40 -66 11
-7 8 -8 -12 -3 -21 5 -30 1 -44 -20 -9 -15 -18 -25 -20 -24 -1 2 3 33 10 70 9
46 10 70 2 78 -7 7 -7 10 1 10 13 0 35 58 27 71 -8 13 -24 11 -29 -3z"/>
<path d="M13048 10274 c-3 -3 -4 -22 -1 -42 3 -23 -7 -87 -27 -166 -31 -130
-32 -156 -6 -156 9 0 14 11 14 33 1 17 10 67 21 110 11 43 23 100 27 127 9 69
-5 117 -28 94z"/>
<path d="M10794 10257 c-8 -22 11 -46 26 -31 7 7 5 17 -4 30 -14 18 -15 18
-22 1z"/>
<path d="M14104 10197 c-12 -34 -40 -109 -63 -167 -22 -58 -41 -108 -41 -112
0 -20 26 -3 67 42 53 59 80 77 95 62 7 -7 4 -21 -10 -44 -29 -49 -36 -78 -19
-78 21 0 71 103 62 129 -10 32 -51 38 -87 11 -16 -12 -31 -20 -33 -18 -2 1 14
47 36 102 41 103 47 136 27 136 -7 0 -23 -28 -34 -63z"/>
<path d="M12356 10241 c-3 -4 1 -17 9 -27 11 -15 16 -16 26 -7 10 10 9 15 -1
28 -14 17 -26 19 -34 6z"/>
<path d="M8200 10207 c0 -19 10 -27 26 -20 21 8 17 33 -6 33 -11 0 -20 -6 -20
-13z"/>
<path d="M6151 10172 c-46 -38 -38 -67 34 -121 38 -29 55 -49 55 -64 0 -35
-15 -49 -53 -50 -45 -1 -75 24 -79 67 -4 41 -22 40 -26 -1 -6 -62 58 -113 124
-97 45 11 64 33 64 75 0 33 -7 43 -61 90 l-61 53 26 23 c29 24 65 29 96 13 26
-14 39 9 15 27 -33 23 -97 16 -134 -15z"/>
<path d="M3384 10178 c-7 -10 20 -38 38 -38 12 0 10 24 -4 38 -15 15 -25 15
-34 0z"/>
<path d="M5834 10157 c-26 -24 -37 -43 -41 -74 -14 -105 29 -159 119 -149 61
6 108 31 108 56 0 25 -15 25 -39 1 -28 -28 -96 -37 -126 -17 -27 18 -33 36
-11 36 7 0 33 21 56 46 36 39 41 50 36 76 -13 67 -48 75 -102 25z m66 -16 c14
-27 -3 -63 -40 -84 -36 -22 -40 -21 -40 3 0 28 26 77 47 89 23 13 21 14 33 -8z"/>
<path d="M8863 10165 c-41 -18 -41 -37 -2 -95 34 -51 34 -69 -1 -87 -22 -11
-27 -10 -42 8 -10 12 -18 29 -18 40 0 25 -17 33 -28 12 -12 -23 11 -78 38 -93
27 -14 86 4 100 30 16 30 12 53 -20 103 -33 52 -32 53 33 66 17 4 32 12 35 19
5 17 -54 15 -95 -3z"/>
<path d="M11491 10152 c-33 -27 -34 -32 -39 -111 -4 -77 -3 -83 14 -79 15 3
18 11 15 53 -4 82 26 134 77 135 13 0 22 6 22 15 0 25 -53 18 -89 -13z"/>
<path d="M12135 10168 c-47 -26 -46 -59 5 -128 22 -29 40 -59 40 -66 0 -38
-88 -34 -105 4 -11 26 -23 28 -32 6 -16 -44 84 -85 140 -57 40 20 36 59 -13
124 -46 62 -48 71 -17 92 28 19 13 42 -18 25z"/>
<path d="M4574 10151 c-17 -11 -41 -39 -52 -63 -22 -45 -52 -194 -52 -258 0
-20 -6 -58 -14 -83 -10 -32 -11 -49 -4 -54 18 -11 36 25 49 100 7 40 14 75 15
80 1 4 2 22 3 40 1 33 1 33 51 33 43 0 55 5 85 34 54 52 60 134 12 164 -39 25
-61 26 -93 7z m81 -38 c22 -21 14 -77 -16 -109 -44 -47 -111 -38 -104 13 2 16
4 33 4 40 1 6 13 25 27 42 29 35 63 40 89 14z"/>
<path d="M5699 10168 c-1 -1 -3 -21 -4 -44 -3 -44 -37 -132 -67 -176 -22 -32
-54 -44 -73 -28 -20 17 -19 97 1 156 15 46 13 74 -5 74 -12 0 -28 -57 -42
-142 -18 -114 47 -166 125 -98 59 53 118 243 79 257 -7 3 -14 3 -14 1z"/>
<path d="M7115 10148 c-54 -29 -58 -78 -15 -157 17 -30 28 -57 25 -60 -11 -11
-90 25 -100 46 -8 16 -15 19 -28 12 -26 -15 -6 -43 47 -69 51 -24 94 -23 110
2 8 14 4 30 -22 77 -38 69 -40 94 -10 115 31 22 59 20 65 -4 6 -24 33 -27 33
-4 0 8 -5 24 -10 35 -12 21 -62 26 -95 7z"/>
<path d="M7795 10085 c-8 -79 -40 -125 -85 -125 -25 0 -30 5 -36 35 -3 20 -4
53 0 75 7 47 -10 63 -25 23 -13 -34 -7 -139 9 -155 17 -17 75 -13 106 7 38 25
54 62 62 139 6 55 4 66 -8 66 -12 0 -17 -17 -23 -65z"/>
<path d="M5311 10114 c-27 -35 -26 -54 4 -115 28 -55 26 -69 -12 -69 -16 0
-27 7 -30 20 -6 24 -31 26 -40 3 -17 -43 83 -70 128 -34 l23 19 -33 62 c-29
54 -32 65 -22 87 11 23 16 25 51 19 31 -5 40 -3 40 8 0 36 -81 35 -109 0z"/>
<path d="M11638 10120 c-33 -25 -68 -97 -68 -137 0 -56 37 -73 119 -57 24 5
31 12 31 30 0 32 -19 40 -37 15 -11 -16 -23 -21 -46 -19 -28 3 -32 7 -32 32 0
23 5 30 23 33 30 4 75 28 91 47 7 8 11 27 9 43 -2 23 -8 29 -34 31 -19 2 -40
-5 -56 -18z m60 -22 c-6 -18 -54 -51 -68 -46 -16 5 34 58 55 58 9 0 15 -5 13
-12z"/>
<path d="M1503 10123 c-7 -2 -13 -18 -13 -35 0 -22 4 -29 17 -26 9 2 16 8 15
13 0 6 6 14 14 18 35 20 6 46 -33 30z"/>
<path d="M2471 10117 c-49 -25 -80 -129 -47 -156 19 -16 70 9 87 42 12 21 13
19 23 -23 9 -35 16 -46 34 -48 26 -4 29 13 6 35 -12 12 -14 27 -10 54 6 37 -8
86 -29 101 -15 11 -37 9 -64 -5z m53 -23 c13 -5 9 -15 -22 -55 -20 -26 -43
-48 -51 -49 -22 0 -5 62 25 88 28 25 27 24 48 16z"/>
<path d="M4788 10087 c-28 -67 -24 -123 11 -158 16 -16 37 -29 47 -29 31 0 80
47 112 108 39 72 42 105 10 100 -18 -2 -22 -10 -23 -39 -2 -46 -66 -137 -97
-139 -21 -1 -48 43 -48 75 0 20 9 53 20 75 24 48 24 50 3 50 -12 0 -24 -15
-35 -43z"/>
<path d="M7318 10123 c-10 -2 -18 -10 -18 -17 0 -7 -11 -19 -25 -26 -43 -23
-60 -113 -27 -143 29 -26 67 -30 107 -12 69 34 88 124 36 176 -29 28 -38 31
-73 22z m66 -75 c11 -43 -9 -83 -50 -98 -32 -13 -74 4 -74 29 0 39 20 73 50
84 17 6 30 15 30 20 0 5 8 7 18 5 10 -2 21 -18 26 -40z"/>
<path d="M10938 10103 c-42 -46 -83 -132 -70 -145 15 -15 23 -6 47 52 24 59
53 90 82 90 32 0 43 -34 36 -105 -5 -47 -3 -57 8 -53 17 6 32 82 24 125 -8 43
-30 63 -69 63 -22 0 -40 -8 -58 -27z"/>
<path d="M11213 10106 c-34 -28 -59 -93 -48 -125 11 -35 57 -52 132 -49 42 2
68 8 71 16 3 9 -15 12 -66 12 -112 0 -141 45 -76 115 20 22 29 25 59 19 39 -7
48 8 16 26 -31 16 -57 12 -88 -14z"/>
<path d="M11834 10087 c-43 -43 -61 -84 -50 -112 8 -21 39 -19 86 5 l40 20 0
-24 c0 -30 26 -54 42 -38 8 8 8 15 -2 27 -8 10 -10 29 -6 55 5 31 3 40 -8 40
-8 0 -19 -6 -23 -14 -10 -16 -93 -60 -100 -52 -8 8 45 86 64 93 9 3 24 1 34
-5 41 -26 57 4 17 32 -34 24 -47 20 -94 -27z"/>
<path d="M2662 10053 c-7 -38 -13 -77 -15 -87 -4 -37 18 -25 48 25 33 57 67
84 91 75 14 -5 16 -16 11 -59 -7 -59 0 -97 17 -97 16 0 20 144 5 171 -13 25
-59 25 -92 -1 -33 -26 -34 -26 -29 10 3 21 0 30 -10 30 -9 0 -18 -22 -26 -67z"/>
<path d="M5112 10076 c-17 -19 -33 -44 -37 -56 -6 -20 -7 -21 -20 -3 -19 26
-27 12 -28 -56 -3 -86 19 -82 62 14 39 88 54 104 82 87 24 -16 29 -15 29 2 0
14 -36 46 -51 46 -4 0 -20 -15 -37 -34z"/>
<path d="M8374 10098 c-5 -8 -17 -17 -26 -21 -22 -8 -58 -65 -58 -92 0 -32 28
-65 56 -65 14 0 37 12 51 26 23 23 25 31 20 81 -6 61 -28 96 -43 71z m12 -74
c12 -48 -24 -90 -54 -61 -11 12 -11 19 1 49 17 40 45 46 53 12z"/>
<path d="M12528 10082 c-31 -34 -88 -139 -88 -164 0 -41 28 -13 60 58 19 44
43 82 58 92 23 15 26 15 43 -7 25 -30 24 -43 -6 -131 -25 -75 -26 -86 -3 -77
15 5 58 129 58 165 0 25 -26 81 -38 83 -51 8 -61 6 -84 -19z"/>
<path d="M10014 10074 c-10 -14 -19 -47 -22 -73 -3 -40 -1 -52 17 -70 23 -23
70 -28 89 -9 27 27 7 101 -37 134 -10 8 -11 13 -2 18 6 4 9 12 6 17 -11 17
-34 9 -51 -17z m44 -57 c21 -25 25 -66 8 -73 -23 -9 -46 14 -46 46 0 39 17 52
38 27z"/>
<path d="M12362 10088 c-16 -20 -34 -100 -30 -138 5 -50 28 -51 28 -1 0 22 7
61 16 87 16 47 8 78 -14 52z"/>
<path d="M14513 10081 c-39 -24 -103 -117 -103 -149 0 -37 19 -22 55 43 39 71
76 98 123 89 30 -6 33 -4 30 12 -5 27 -64 30 -105 5z"/>
<path d="M3550 10083 c-43 -16 -130 -121 -130 -158 0 -24 27 -17 34 9 8 32 85
113 115 121 22 7 23 5 17 -26 -18 -101 -19 -109 -5 -109 14 0 39 81 39 126 0
36 -29 52 -70 37z"/>
<path d="M8552 10049 c-36 -36 -42 -38 -42 -20 0 12 -6 21 -15 21 -9 0 -15 -9
-15 -25 0 -14 -7 -41 -15 -61 -13 -31 -13 -36 1 -41 9 -3 22 4 32 18 9 13 35
44 59 69 40 42 43 44 43 20 0 -31 35 -90 53 -90 25 0 27 13 5 37 -16 17 -22
37 -23 66 0 59 -28 62 -83 6z"/>
<path d="M10764 10077 c-9 -24 1 -162 11 -162 6 0 11 12 13 28 2 15 -1 27 -7
27 -6 0 -11 10 -11 23 0 16 3 18 9 8 6 -9 10 -1 13 27 2 23 2 46 0 51 -5 15
-22 14 -28 -2z"/>
<path d="M13276 10063 c-4 -9 -19 -36 -34 -59 -23 -36 -31 -42 -56 -39 -37 5
-39 7 -40 52 -1 27 -6 39 -18 41 -15 3 -18 -4 -18 -36 0 -45 31 -92 60 -92 17
0 14 -9 -20 -77 -47 -93 -72 -170 -58 -179 13 -9 16 -4 43 71 23 62 55 121
144 262 18 28 30 56 26 62 -9 16 -22 13 -29 -6z"/>
<path d="M14251 10035 c-72 -78 -42 -132 48 -86 41 21 41 21 41 1 0 -11 7 -20
15 -20 8 0 15 8 15 19 0 10 7 35 15 55 14 33 14 37 0 42 -9 4 -23 -4 -36 -20
-22 -28 -97 -71 -106 -62 -9 9 47 77 71 86 13 5 15 9 6 10 -13 0 -13 1 0 10
12 8 11 10 -6 10 -13 0 -39 -18 -63 -45z"/>
<path d="M8156 10038 c-12 -54 -12 -91 -1 -95 11 -3 35 71 35 107 0 33 -27 23
-34 -12z"/>
<path d="M3343 10023 c-11 -28 -9 -108 2 -108 6 0 11 14 11 30 1 17 6 41 12
55 5 14 8 28 5 33 -8 13 -23 8 -30 -10z"/>
<path d="M12773 10010 c-35 -21 -52 -63 -36 -89 6 -9 26 -17 47 -19 l36 -3 0
-80 c0 -69 -2 -79 -17 -79 -38 0 -97 -23 -119 -45 -31 -31 -31 -75 0 -142 25
-53 56 -73 91 -59 23 8 52 82 59 145 3 30 7 56 9 58 3 2 30 -6 61 -18 32 -11
60 -18 63 -15 12 11 -20 35 -67 51 l-49 16 -3 97 c-2 53 0 115 4 137 5 31 3
43 -10 53 -21 16 -31 15 -69 -8z m47 -24 c0 -20 -22 -56 -34 -56 -24 0 -29 20
-10 41 15 17 44 27 44 15z m-8 -298 c3 -23 -2 -45 -29 -126 -19 -55 -40 -53
-70 8 -38 73 -30 103 33 125 54 19 62 18 66 -7z"/>
<path d="M2810 9766 c0 -45 -23 -149 -55 -253 -12 -37 20 -28 45 13 25 40 93
89 109 79 24 -14 11 -64 -27 -104 -46 -48 -82 -60 -118 -36 -21 13 -25 22 -21
45 7 33 -1 44 -20 29 -14 -12 -17 -47 -7 -74 8 -20 56 -45 86 -45 53 0 132 72
145 130 9 44 6 62 -15 78 -23 18 -45 15 -84 -12 l-35 -23 13 54 c22 96 22 173
-1 173 -11 0 -15 -13 -15 -54z"/>
<path d="M3107 9803 c-4 -3 -7 -18 -7 -32 0 -14 -16 -78 -35 -141 -38 -123
-46 -168 -30 -171 6 -2 13 8 17 22 4 13 23 76 43 139 41 135 47 219 12 183z"/>
<path d="M3829 9667 c-47 -32 -48 -62 -4 -119 19 -26 35 -52 35 -57 0 -6 -17
-11 -39 -11 -28 0 -42 6 -53 22 -15 22 -38 18 -38 -6 0 -41 106 -69 143 -37
25 20 21 46 -18 100 -19 26 -35 53 -35 59 0 21 58 43 95 36 39 -7 48 8 16 26
-31 16 -65 12 -102 -13z"/>
<path d="M2079 9640 c-21 -22 -45 -40 -53 -40 -23 0 -32 -22 -14 -34 14 -9 13
-14 -10 -44 -19 -25 -26 -45 -25 -74 1 -22 -7 -83 -17 -135 -24 -114 -24 -113
-6 -113 10 0 20 25 31 78 30 140 28 134 75 159 145 77 205 243 88 243 -23 0
-41 -10 -69 -40z m97 -5 c14 -35 -40 -118 -101 -155 -34 -21 -68 -19 -46 3 7
7 5 14 -7 23 -15 12 -15 13 4 8 17 -4 23 2 34 36 25 75 99 129 116 85z"/>
<path d="M2331 9654 c-26 -33 -64 -133 -57 -151 7 -16 25 -17 30 0 21 74 34
105 53 127 22 23 24 24 37 8 15 -20 36 -24 36 -7 0 51 -65 67 -99 23z"/>
<path d="M3188 9643 c-46 -50 -78 -105 -78 -137 0 -41 10 -55 48 -66 39 -11
136 14 129 33 -2 7 -13 10 -23 7 -10 -2 -41 -4 -69 -5 -46 0 -50 2 -53 26 -3
23 0 25 25 22 55 -8 122 71 103 121 -13 35 -49 34 -82 -1z m55 -9 c11 -11 -23
-64 -49 -76 -38 -17 -39 -3 -4 42 31 40 41 46 53 34z"/>
<path d="M2467 9629 c-83 -71 -58 -173 38 -155 38 7 58 28 80 79 20 48 19 63
-5 87 -29 29 -71 25 -113 -11z m92 -13 c9 -11 8 -24 -5 -56 -18 -44 -47 -63
-83 -53 -38 10 -21 93 20 93 11 0 22 7 25 15 8 19 28 19 43 1z"/>
<path d="M3396 9648 c-15 -52 -50 -139 -57 -144 -14 -8 -10 -34 5 -34 8 0 30
24 49 53 19 28 45 61 57 72 l23 20 -7 -25 c-3 -14 -9 -44 -12 -66 -10 -68 10
-64 87 17 l69 74 -7 -50 c-13 -90 -10 -129 10 -133 16 -3 18 1 13 25 -3 15 0
60 7 99 15 84 13 94 -17 94 -20 0 -56 -27 -56 -42 0 -2 -17 -23 -39 -46 l-39
-40 15 55 c8 30 12 62 9 69 -8 20 -36 17 -62 -7 l-23 -21 6 21 c4 15 1 21 -11
21 -9 0 -18 -6 -20 -12z"/>
<path d="M4000 9481 c0 -27 19 -36 37 -18 18 18 9 37 -18 37 -12 0 -19 -7 -19
-19z"/>
<path d="M9098 9352 c-21 -44 -37 -63 -68 -81 -23 -13 -43 -21 -45 -19 -3 2 0
20 5 39 13 45 13 109 0 109 -12 0 -13 -4 -29 -84 -6 -33 -15 -64 -21 -70 -5
-5 -40 -12 -76 -15 -38 -3 -69 -11 -71 -18 -5 -15 29 -20 90 -12 26 3 47 5 47
3 0 -1 -6 -19 -14 -40 -24 -71 -29 -114 -12 -114 9 0 18 12 22 28 20 88 37
134 52 139 48 15 71 26 68 32 -3 4 3 7 13 8 15 1 14 -6 -11 -58 -29 -62 -36
-109 -16 -109 7 0 36 23 65 52 l53 52 -7 -66 c-4 -43 -2 -68 5 -72 12 -7 17 8
27 87 12 95 -15 112 -76 46 l-38 -42 44 112 c25 61 45 120 45 131 0 37 -25 19
-52 -38z"/>
<path d="M9623 9373 c0 -21 -4 -64 -8 -95 -7 -54 -10 -58 -39 -63 -17 -4 -51
-5 -75 -3 -61 4 -66 -18 -7 -27 25 -4 60 -5 76 -3 24 4 29 1 26 -11 -3 -9 -10
-35 -17 -59 -7 -24 -21 -48 -31 -53 -25 -13 -23 -35 4 -42 12 -4 24 -5 25 -3
2 2 16 43 31 92 27 86 29 89 64 98 26 7 37 15 41 33 2 12 0 23 -5 23 -5 0 -6
5 -3 10 3 6 3 10 -2 10 -14 0 -29 -14 -36 -32 -3 -10 -12 -18 -18 -18 -8 0
-10 13 -5 43 20 120 20 137 -1 137 -15 0 -19 -7 -20 -37z"/>
<path d="M5525 9388 c-42 -133 -71 -211 -91 -247 -45 -81 -20 -84 55 -6 64 67
87 72 75 18 -12 -62 -11 -88 6 -88 21 0 37 119 20 140 -16 20 -59 19 -81 -1
-16 -15 -16 -12 2 36 11 28 17 55 14 61 -4 5 -1 9 5 9 6 0 10 10 8 23 -2 12 3
27 11 33 8 6 11 16 7 22 -9 16 -26 15 -31 0z"/>
<path d="M12946 9343 c-3 -3 -6 -19 -6 -35 0 -16 -20 -69 -45 -119 -41 -81
-58 -149 -42 -165 12 -12 27 8 27 36 0 16 20 70 45 121 25 52 45 107 45 125 0
32 -11 50 -24 37z"/>
<path d="M5209 9330 c-62 -18 -158 -101 -190 -162 -34 -66 -20 -137 32 -164
41 -21 229 -20 229 1 0 8 5 15 10 15 6 0 10 7 10 15 0 8 -9 15 -20 15 -11 0
-23 -7 -26 -15 -5 -12 -25 -15 -91 -15 -76 0 -86 2 -108 25 -15 14 -25 36 -25
53 0 92 184 246 235 196 25 -26 45 -1 20 26 -19 21 -34 23 -76 10z"/>
<path d="M13787 9334 c-4 -4 -7 -33 -7 -64 0 -108 -38 -206 -93 -237 -35 -20
-77 -16 -77 6 0 22 63 81 88 81 29 0 49 17 35 31 -19 19 -96 -15 -127 -56 -49
-64 -22 -121 51 -104 97 21 148 116 155 283 2 55 -8 77 -25 60z"/>
<path d="M7739 9260 c-53 -56 -92 -190 -54 -190 9 0 16 14 20 38 12 68 26 102
57 132 35 36 50 37 71 8 14 -21 16 -22 22 -5 10 24 -21 57 -53 57 -16 0 -39
-14 -63 -40z"/>
<path d="M7579 9247 c-55 -27 -88 -85 -70 -123 12 -28 47 -32 91 -9 25 13 29
13 34 0 10 -28 26 -15 26 21 0 19 5 44 10 55 13 22 -1 53 -29 68 -14 8 -30 5
-62 -12z m61 -36 c0 -10 -16 -33 -35 -50 -53 -46 -81 -41 -63 10 16 48 98 81
98 40z"/>
<path d="M6711 9234 c-38 -32 -40 -68 -6 -114 29 -39 31 -62 9 -84 -22 -22
-33 -20 -40 9 -7 28 -22 33 -30 10 -9 -22 23 -65 47 -65 29 0 69 44 69 77 0
15 -12 44 -26 64 -31 46 -28 69 11 90 17 8 31 20 33 27 4 21 -35 13 -67 -14z"/>
<path d="M7935 9242 c-42 -35 -94 -110 -100 -144 -10 -54 18 -78 93 -78 64 0
118 13 147 34 32 23 11 29 -46 12 -61 -18 -140 -21 -156 -5 -21 21 -3 47 36
54 62 10 101 40 101 76 0 63 -34 87 -75 51z m45 -42 c0 -22 -42 -53 -65 -48
-12 2 -9 11 16 41 31 38 49 41 49 7z"/>
<path d="M5693 9228 c-30 -33 -63 -90 -63 -109 0 -9 7 -22 15 -29 12 -10 20
-9 41 4 l25 17 -6 -35 c-8 -41 1 -76 20 -76 10 0 14 9 11 29 -2 15 5 54 14 85
11 34 14 58 8 62 -5 3 -27 -8 -49 -26 -22 -18 -42 -30 -45 -28 -8 8 58 98 72
98 8 0 14 7 14 15 0 22 -34 18 -57 -7z"/>
<path d="M6429 9207 c-117 -78 -62 -256 64 -208 38 15 35 35 -4 27 -50 -10
-77 2 -89 39 -20 61 27 131 82 123 21 -3 21 -4 4 -21 -10 -10 -31 -21 -47 -24
-28 -5 -39 -26 -19 -38 16 -10 90 34 102 60 9 21 8 29 -7 45 -23 26 -44 25
-86 -3z"/>
<path d="M10233 9210 c-41 -25 -51 -61 -29 -107 9 -19 14 -39 11 -44 -9 -13
-53 -11 -58 4 -4 9 -7 9 -17 0 -11 -10 -11 -15 0 -28 18 -22 76 -19 100 5 20
20 19 36 -8 77 -31 49 18 89 94 77 50 -7 61 10 18 26 -39 15 -76 12 -111 -10z"/>
<path d="M11600 9217 c-13 -7 -38 -31 -55 -54 -16 -23 -38 -42 -47 -42 -20 -1
-24 -16 -8 -26 6 -3 10 -15 10 -26 0 -11 11 -31 25 -44 21 -22 33 -25 104 -25
86 0 111 5 111 24 0 9 -24 11 -88 8 -73 -4 -91 -1 -105 13 -26 25 -21 34 31
56 26 11 55 28 65 36 20 18 23 63 5 81 -15 15 -17 15 -48 -1z m30 -42 c0 -12
-47 -45 -65 -45 -4 0 3 14 15 30 23 32 50 40 50 15z"/>
<path d="M13055 9202 c-56 -39 -92 -108 -86 -169 1 -7 7 -13 15 -13 10 0 17
16 22 48 8 58 33 95 76 112 18 8 34 14 36 15 5 4 -10 35 -17 35 -3 -1 -24 -13
-46 -28z"/>
<path d="M5925 9192 c-65 -46 -68 -47 -61 -24 8 23 -9 39 -21 20 -8 -13 -48
-115 -60 -150 -9 -30 25 -21 41 10 28 54 154 157 172 140 3 -3 -11 -38 -31
-78 -41 -81 -52 -130 -29 -130 8 0 14 6 14 13 0 7 18 51 40 97 23 46 40 93 38
104 -5 34 -56 33 -103 -2z"/>
<path d="M6140 9173 c-55 -56 -73 -109 -49 -152 18 -33 54 -41 112 -26 52 13
73 27 63 44 -4 6 -18 5 -41 -5 -51 -21 -102 -19 -110 6 -13 40 35 123 82 141
13 5 23 14 21 21 -9 26 -31 18 -78 -29z"/>
<path d="M9275 9188 c-44 -52 -61 -94 -45 -113 16 -19 44 -19 74 0 23 16 23
16 17 -22 -9 -48 -3 -73 15 -73 10 0 14 12 14 43 0 23 9 59 20 80 11 20 20 44
20 52 0 19 -29 20 -36 1 -7 -18 -82 -68 -95 -64 -14 5 48 98 66 98 8 0 15 7
15 15 0 26 -37 16 -65 -17z"/>
<path d="M11339 9197 c-19 -13 -42 -26 -51 -30 -10 -3 -18 -12 -18 -18 0 -7
-16 -31 -35 -55 -35 -42 -43 -68 -26 -78 9 -6 71 58 71 74 0 16 52 71 83 86
24 13 31 14 38 2 15 -23 10 -48 -16 -74 -29 -29 -30 -37 -11 -53 11 -9 19 -3
40 33 30 51 33 82 10 114 -19 28 -43 28 -85 -1z"/>
<path d="M4590 9195 c-13 -15 -7 -45 8 -45 16 0 34 29 28 45 -7 19 -20 19 -36
0z"/>
<path d="M10645 9197 c-11 -6 -28 -11 -38 -12 -12 0 -23 -13 -32 -37 -7 -21
-20 -50 -30 -64 -13 -20 -14 -29 -5 -38 9 -8 17 -4 34 18 11 16 34 43 49 60
l29 31 -6 -28 c-9 -39 16 -45 55 -13 46 39 57 35 49 -19 -6 -39 -5 -45 9 -43
9 2 24 -8 33 -24 29 -46 102 -49 84 -3 -4 11 -12 14 -27 10 -26 -9 -42 11 -29
36 5 9 23 19 40 22 44 9 80 36 80 61 0 28 -18 46 -39 38 -31 -11 -90 -64 -106
-96 l-16 -31 6 46 c4 36 2 49 -11 60 -14 11 -22 10 -53 -7 l-38 -20 5 21 c5
30 -17 47 -43 32z m265 -42 c0 -2 -10 -10 -22 -16 -21 -11 -22 -11 -9 4 13 16
31 23 31 12z"/>
<path d="M11053 9147 c-40 -41 -53 -61 -53 -83 0 -41 16 -54 66 -54 77 0 123
65 91 130 -9 16 -11 30 -6 30 5 0 9 7 9 15 0 10 -10 15 -27 15 -18 0 -42 -16
-80 -53z m73 -22 c28 -43 -17 -94 -73 -83 -28 5 -26 30 4 69 32 41 49 44 69
14z"/>
<path d="M13195 9169 c-45 -40 -65 -78 -65 -124 0 -30 5 -37 28 -46 27 -11 54
-3 53 16 -1 6 -7 11 -14 11 -6 1 -18 2 -24 3 -7 0 -13 12 -13 24 0 19 9 27 41
37 48 16 89 46 89 65 0 18 -28 45 -45 45 -8 0 -30 -14 -50 -31z m61 -18 c-3
-5 -20 -14 -38 -20 -31 -11 -31 -11 -13 9 18 19 62 29 51 11z"/>
<path d="M10380 9158 c-27 -45 -25 -84 5 -113 44 -44 105 -22 105 38 0 26 -62
107 -81 107 -5 0 -18 -15 -29 -32z m80 -77 c0 -21 -22 -33 -45 -25 -21 9 -29
48 -14 75 l12 23 23 -28 c13 -15 24 -35 24 -45z"/>
<path d="M12646 9170 c-39 -12 -86 -59 -86 -87 0 -32 28 -44 80 -32 31 7 46 7
48 0 2 -6 11 -11 19 -11 10 0 14 6 10 20 -3 10 1 24 9 31 20 16 17 32 -11 63
-26 28 -26 28 -69 16z m50 -41 c11 -18 -20 -40 -65 -46 -48 -7 -53 6 -13 36
30 22 67 27 78 10z"/>
<path d="M14061 9121 c-62 -67 -89 -76 -115 -36 -16 25 -46 34 -46 15 0 -5 18
-28 40 -50 21 -21 35 -42 30 -45 -5 -3 -43 -54 -83 -113 -75 -109 -117 -189
-117 -224 0 -34 20 -14 44 42 32 81 154 254 245 351 44 46 81 89 81 96 1 33
-27 20 -79 -36z"/>
<path d="M13448 9142 c-34 -14 -88 -73 -88 -98 0 -20 5 -24 28 -24 15 0 43 11
62 25 19 14 34 25 35 25 1 0 0 -14 -3 -30 -4 -30 11 -60 30 -60 6 0 7 11 4 25
-4 14 -1 44 6 67 11 38 10 42 -11 59 -25 20 -35 22 -63 11z m32 -36 c0 -6 -76
-56 -85 -56 -5 0 4 14 20 30 16 17 37 30 47 30 10 0 18 -2 18 -4z"/>
<path d="M4036 8968 c-39 -272 -56 -320 -128 -383 -23 -19 -45 -35 -50 -35
-19 0 -6 69 22 113 25 39 35 47 60 47 35 0 42 25 9 35 -40 13 -109 -59 -130
-137 -30 -114 70 -114 152 0 43 59 65 129 83 260 19 137 19 132 1 132 -8 0
-16 -13 -19 -32z"/>
<path d="M2216 8948 c-3 -7 -7 -51 -10 -98 -2 -47 -9 -96 -13 -108 -8 -21 -10
-22 -22 -8 -30 35 -76 16 -120 -50 -49 -75 -39 -164 19 -164 72 0 169 197 170
346 0 27 5 55 11 61 6 6 8 16 5 22 -10 15 -36 14 -40 -1z m-57 -240 c19 -12
19 -13 -4 -57 -28 -56 -71 -104 -88 -98 -15 4 -21 40 -13 73 7 26 63 94 77 94
5 0 18 -5 28 -12z"/>
<path d="M3106 8864 c-9 -51 -28 -128 -42 -171 -13 -43 -24 -91 -24 -106 0
-49 22 -25 40 43 10 36 26 99 37 140 31 112 38 176 21 183 -11 4 -19 -17 -32
-89z"/>
<path d="M9636 8886 c-25 -30 -46 -60 -46 -68 0 -7 -9 -24 -19 -37 -16 -21
-26 -24 -73 -22 -39 1 -59 -3 -68 -14 -15 -17 -12 -18 57 -15 l52 2 -20 -51
c-32 -87 -22 -126 31 -111 40 11 70 29 70 42 0 10 -18 8 -67 -7 -30 -9 -30 10
-2 76 21 47 23 49 63 50 72 1 94 9 81 29 -4 7 -22 9 -51 4 -24 -3 -44 -3 -44
0 0 10 78 124 90 131 12 8 13 45 1 45 -5 0 -29 -24 -55 -54z"/>
<path d="M7602 8913 c-10 -19 -26 -87 -27 -113 0 -11 -16 -16 -59 -20 -35 -3
-61 -10 -64 -17 -4 -14 4 -16 61 -13 20 1 37 0 37 -3 0 -2 -7 -24 -15 -47 -8
-23 -12 -47 -8 -53 3 -5 1 -7 -4 -4 -6 4 -13 -3 -17 -16 -8 -32 -8 -37 8 -37
8 0 25 31 41 78 32 88 48 107 103 116 23 3 42 13 46 22 9 24 0 29 -27 16 -12
-6 -34 -13 -49 -16 l-26 -6 13 48 c7 26 14 53 16 61 6 21 -18 25 -29 4z"/>
<path d="M7765 8918 c-2 -7 -9 -33 -15 -58 -7 -25 -29 -83 -51 -129 -21 -46
-39 -90 -39 -97 0 -24 25 -15 43 15 18 30 76 85 83 78 2 -2 -3 -24 -11 -47
-15 -43 -14 -70 3 -70 9 0 42 96 42 123 0 21 -34 31 -61 16 -20 -10 -21 -9
-14 7 37 88 55 174 36 174 -6 0 -14 -6 -16 -12z"/>
<path d="M7400 8907 c0 -19 10 -27 26 -20 21 8 17 33 -6 33 -11 0 -20 -6 -20
-13z"/>
<path d="M12016 8893 c-3 -4 -6 -21 -6 -39 0 -37 -64 -224 -80 -234 -5 -3 -12
-20 -16 -36 -5 -28 -3 -31 33 -43 35 -12 44 -11 79 7 70 36 104 93 78 131 -19
26 -40 27 -81 1 -18 -11 -33 -17 -33 -14 0 4 11 37 24 74 31 85 39 147 21 154
-7 2 -16 2 -19 -1z m54 -272 c-14 -27 -84 -63 -105 -55 -14 6 -11 12 17 42 41
43 91 67 96 47 2 -8 -2 -23 -8 -34z"/>
<path d="M12343 8883 c-3 -10 -28 -72 -56 -138 -55 -133 -70 -205 -43 -205 11
0 16 9 16 26 0 14 25 88 55 163 30 76 55 143 55 149 0 20 -20 24 -27 5z"/>
<path d="M6667 8843 c-3 -4 -10 -28 -16 -53 -7 -25 -26 -88 -43 -141 -29 -89
-32 -129 -10 -129 5 0 13 19 19 43 6 23 25 93 43 155 24 79 30 116 23 123 -6
6 -13 7 -16 2z"/>
<path d="M3479 8803 c-72 -76 -78 -89 -134 -276 -21 -71 -20 -97 4 -82 5 3 19
31 31 63 18 48 25 73 29 113 1 3 12 4 25 2 52 -10 113 44 136 124 29 95 -24
127 -91 56z m71 -4 c0 -36 -28 -94 -57 -119 -53 -47 -83 -38 -56 17 33 69 113
141 113 102z"/>
<path d="M2667 8810 c-28 -22 -34 -42 -42 -139 -3 -35 -8 -68 -11 -73 -11 -18
-27 10 -39 69 -8 38 -16 58 -26 58 -27 0 -2 -122 32 -156 40 -40 79 25 79 131
0 42 14 79 34 92 6 4 26 5 44 2 24 -5 32 -3 32 9 0 14 -28 27 -61 27 -9 0 -28
-9 -42 -20z"/>
<path d="M7224 8791 c-56 -34 -102 -109 -88 -145 11 -30 33 -17 44 27 6 23 13
47 15 54 2 7 22 24 45 38 22 14 38 30 35 35 -9 14 -16 13 -51 -9z"/>
<path d="M2315 8767 c-58 -58 -71 -171 -24 -209 24 -21 53 -23 98 -7 23 8 31
17 31 35 0 29 -10 30 -33 4 -21 -25 -59 -26 -80 -2 -19 20 -23 57 -7 47 15 -9
97 75 105 108 16 61 -39 75 -90 24z m65 -5 c0 -15 -51 -82 -71 -92 -19 -11
-19 -10 -4 27 8 21 25 46 36 56 22 18 39 22 39 9z"/>
<path d="M4988 8753 c-3 -27 -12 -64 -21 -83 -21 -40 -21 -50 -3 -50 7 0 30
20 51 45 36 44 91 82 103 71 3 -3 -7 -28 -22 -56 -16 -29 -26 -61 -24 -78 4
-36 21 -35 28 3 4 17 19 54 35 83 22 42 25 55 15 67 -18 22 -52 18 -93 -9
l-35 -24 -5 24 c-2 13 0 21 4 18 12 -7 11 7 -1 26 -9 13 -10 13 -10 0 0 -12
-2 -12 -9 -2 -5 9 -10 -3 -13 -35z"/>
<path d="M3665 8766 c-52 -52 -72 -157 -39 -204 20 -28 54 -29 54 -1 0 12 -4
18 -11 13 -6 -3 -15 0 -20 7 -17 27 -8 54 24 74 43 27 76 88 61 112 -17 28
-41 27 -69 -1z m28 -48 c-18 -31 -43 -49 -43 -30 0 14 40 62 52 62 5 0 2 -14
-9 -32z"/>
<path d="M4869 8775 c-15 -8 -41 -36 -58 -62 -56 -84 -25 -131 52 -79 20 14
37 21 37 16 0 -6 7 -10 15 -10 8 0 15 8 15 17 0 9 5 31 11 48 10 28 9 35 -11
58 -27 31 -26 31 -61 12z m44 -36 c12 -8 -40 -67 -74 -85 -16 -8 -29 -12 -29
-9 0 26 79 121 89 107 3 -4 10 -10 14 -13z"/>
<path d="M11594 8761 c-32 -19 -90 -102 -96 -136 -2 -14 3 -20 17 -20 11 0 19
6 17 13 -3 17 29 70 62 101 19 18 32 22 55 18 33 -7 48 5 28 21 -25 20 -53 21
-83 3z"/>
<path d="M2833 8760 c-28 -11 -72 -78 -83 -124 -16 -73 49 -107 135 -72 43 18
48 42 8 31 -16 -4 -46 -8 -68 -9 -38 -1 -40 1 -43 30 -3 29 0 32 35 38 51 8
86 36 81 66 -4 31 -37 51 -65 40z m32 -40 c7 -11 -39 -44 -55 -38 -14 4 17 48
35 48 8 0 16 -4 20 -10z"/>
<path d="M6980 8749 c0 -5 -5 -7 -12 -3 -7 5 -9 2 -6 -8 4 -8 -2 -19 -13 -26
-53 -33 -63 -126 -17 -151 24 -14 30 -14 62 1 54 26 95 123 68 165 -7 12 -54
33 -73 33 -5 0 -9 -5 -9 -11z m43 -33 c23 -18 21 -46 -6 -87 -15 -22 -32 -35
-50 -37 -36 -4 -45 20 -24 64 13 25 23 34 42 34 26 0 35 24 13 33 -7 3 -8 6
-3 6 6 0 18 -6 28 -13z"/>
<path d="M10584 8708 c-64 -60 -69 -91 -17 -96 17 -2 46 4 62 13 26 13 31 13
31 1 0 -7 9 -24 19 -37 15 -19 22 -21 32 -12 9 9 8 15 -5 28 -20 21 -20 23 4
62 l19 32 -28 30 c-16 17 -36 31 -46 31 -9 0 -41 -23 -71 -52z m99 -2 c6 -15
-78 -66 -109 -66 -14 0 -9 9 21 40 40 40 78 52 88 26z"/>
<path d="M11395 8735 c-16 -13 -34 -24 -40 -25 -13 0 -35 -48 -35 -77 0 -13
-4 -23 -9 -23 -5 0 -17 -24 -27 -52 -9 -29 -28 -77 -41 -107 -18 -39 -21 -57
-13 -65 16 -16 43 23 82 117 28 68 35 77 57 77 82 0 154 117 103 163 -25 23
-42 21 -77 -8z m63 -34 c4 -25 -56 -91 -82 -91 -23 0 -20 32 6 66 44 57 70 66
76 25z"/>
<path d="M3233 8743 c-7 -2 -13 -11 -13 -19 0 -8 -4 -14 -8 -14 -17 0 -43 -77
-40 -115 6 -70 70 -73 116 -5 19 28 22 43 17 75 -10 67 -35 93 -72 78z m30
-40 c3 -5 8 -22 11 -39 6 -25 2 -38 -19 -63 -34 -40 -55 -40 -55 -1 0 53 47
129 63 103z"/>
<path d="M6386 8706 c-65 -64 -80 -90 -66 -115 16 -30 54 -26 95 10 l35 31 -6
-30 c-6 -30 12 -79 24 -67 4 4 8 26 8 50 1 24 11 62 22 85 l20 41 -21 20 c-33
30 -63 24 -111 -25z m82 6 c9 -6 -3 -23 -42 -60 -53 -51 -76 -63 -76 -42 0 12
89 110 99 110 3 0 12 -4 19 -8z"/>
<path d="M6792 8743 c-14 -6 -72 -87 -72 -102 0 -5 7 -17 16 -25 11 -12 20
-13 34 -6 36 19 38 10 15 -69 -16 -52 -16 -52 -51 -45 -70 13 -124 -36 -124
-113 0 -39 22 -73 48 -73 20 0 83 62 103 102 16 32 24 38 47 36 19 -2 27 2 30
16 2 10 0 16 -5 13 -5 -3 -15 -2 -22 2 -10 7 -11 16 -2 42 6 19 17 67 26 106
20 98 6 136 -43 116z m13 -62 c-6 -21 -45 -49 -45 -33 0 13 41 64 47 58 3 -2
2 -14 -2 -25z m-66 -220 c12 -8 10 -16 -13 -50 -29 -42 -69 -74 -80 -64 -3 4
-6 22 -6 40 0 57 58 100 99 74z"/>
<path d="M9758 8705 c-50 -54 -59 -73 -46 -97 11 -22 56 -23 105 -3 52 22 73
44 73 75 0 36 -19 59 -57 66 -29 6 -36 2 -75 -41z m100 -23 c3 -18 -5 -26 -40
-42 -46 -21 -78 -26 -78 -11 0 15 42 62 64 71 32 13 51 7 54 -18z"/>
<path d="M7945 8709 l-36 -32 7 27 c6 24 4 27 -12 24 -10 -2 -20 -12 -22 -23
-2 -11 -19 -41 -38 -68 -35 -49 -43 -77 -21 -77 7 0 39 27 72 61 33 33 69 65
79 71 18 10 17 8 -2 -25 -20 -32 -29 -67 -17 -67 3 0 26 15 52 34 44 31 106
66 117 66 2 0 2 -17 -1 -38 -6 -48 17 -77 55 -67 24 6 51 31 52 48 0 14 -51 7
-56 -8 -12 -32 -24 -1 -18 46 7 49 7 49 -22 49 -16 0 -48 -11 -71 -24 l-41
-24 1 26 c3 40 -33 41 -78 1z"/>
<path d="M12415 8722 c-41 -25 -95 -89 -95 -111 0 -41 34 -64 97 -69 40 -3 63
0 68 8 11 18 -1 23 -25 10 -15 -8 -20 -8 -16 -1 5 7 -3 11 -22 11 -17 0 -40 9
-53 19 l-24 19 21 29 c26 36 83 75 97 66 14 -8 -30 -43 -54 -43 -22 0 -26 -18
-5 -26 22 -8 83 22 91 45 8 26 -11 61 -33 61 -9 0 -31 -8 -47 -18z"/>
<path d="M7315 8693 c-9 -20 -13 -44 -10 -52 9 -23 34 8 42 52 8 49 -12 49
-32 0z"/>
<path d="M12830 8688 c-67 -56 -111 -88 -120 -88 -4 0 -2 18 4 41 8 33 8 42
-4 49 -8 6 -22 7 -30 3 -8 -3 -25 -6 -38 -6 -17 1 -31 -13 -58 -59 -52 -90
-36 -105 32 -29 60 65 79 77 64 35 -6 -14 -10 -34 -10 -45 0 -27 48 -25 91 4
61 41 62 42 50 19 -15 -28 -14 -77 2 -91 26 -21 73 -24 106 -7 41 22 32 37
-14 25 -84 -23 -96 17 -35 109 63 94 47 111 -40 40z"/>
<path d="M11730 8713 c-24 -9 -80 -65 -96 -96 -12 -23 -13 -32 -2 -55 32 -67
138 -23 138 58 0 21 -4 42 -10 45 -17 11 -11 25 11 25 12 0 19 5 17 13 -5 13
-35 19 -58 10z m10 -94 c0 -32 -39 -65 -65 -55 -22 8 -18 35 11 73 21 27 29
32 40 22 8 -6 14 -24 14 -40z"/>
<path d="M13023 8518 c-34 -16 -30 -42 5 -33 33 8 46 20 38 34 -9 13 -14 13
-43 -1z"/>
<path d="M2232 8148 c-48 -24 -42 -80 24 -228 38 -84 45 -109 41 -142 -14
-104 -139 -191 -188 -132 -11 13 -8 68 6 112 5 16 3 22 -8 22 -17 0 -40 -59
-39 -101 1 -40 17 -65 52 -79 61 -25 160 39 197 129 21 50 12 102 -36 212 -23
53 -44 112 -48 132 -5 32 -3 38 22 49 24 11 29 10 45 -10 15 -18 17 -29 9 -55
-13 -44 -11 -57 6 -57 40 0 48 93 10 134 -25 27 -55 32 -93 14z"/>
<path d="M4689 8136 c-46 -31 -92 -120 -114 -218 -15 -70 -19 -78 -47 -87 -17
-6 -41 -11 -54 -11 -13 0 -26 -5 -30 -11 -11 -19 16 -27 52 -16 19 6 37 8 40
4 20 -19 -65 -175 -88 -161 -7 4 -8 2 -4 -4 4 -7 2 -12 -5 -12 -8 0 -8 -4 1
-15 28 -34 96 56 130 171 12 39 16 43 71 59 34 11 59 24 59 32 0 17 -22 17
-67 -2 -20 -8 -37 -14 -39 -13 -1 2 4 32 12 67 30 129 96 216 154 204 34 -6
41 10 11 27 -29 15 -43 13 -82 -14z"/>
<path d="M12252 8078 c-7 -7 -12 -17 -12 -22 0 -6 -17 -48 -37 -93 l-37 -82
-52 -11 c-52 -11 -84 -33 -66 -44 6 -3 28 1 50 8 22 8 42 12 45 10 3 -3 -8
-33 -23 -67 -16 -34 -25 -66 -20 -71 14 -14 26 1 54 73 26 65 30 71 57 71 19
0 29 5 29 15 0 8 -9 15 -20 15 -19 0 -19 2 6 58 41 90 55 135 46 144 -4 4 -13
3 -20 -4z"/>
<path d="M9385 8050 c-9 -17 -13 -36 -9 -42 4 -6 3 -8 -2 -5 -6 3 -25 -35 -44
-85 -31 -79 -39 -91 -68 -104 -34 -14 -36 -40 -2 -31 16 4 17 1 9 -27 -13 -43
-11 -68 3 -64 7 3 19 25 26 51 13 45 13 46 59 49 63 4 71 28 9 28 l-45 0 14
34 c8 18 11 36 8 40 -4 3 -1 6 5 6 7 0 12 6 12 13 0 6 16 43 34 82 19 38 32
73 30 77 -10 16 -24 7 -39 -22z"/>
<path d="M10911 8039 c-16 -17 -50 -69 -77 -117 -64 -116 -101 -169 -146 -214
-39 -39 -47 -58 -25 -58 19 0 39 18 87 80 23 30 45 55 49 54 3 0 25 -4 49 -9
l43 -8 -7 -60 c-6 -49 -4 -59 7 -55 8 3 18 28 23 60 6 43 13 57 27 61 23 6 25
27 3 27 -9 0 -14 6 -11 13 2 6 13 60 22 118 25 141 13 170 -44 108z m9 -129
c-10 -57 -22 -105 -24 -107 -3 -3 -23 -2 -46 2 l-41 7 42 76 c47 87 79 135 85
129 3 -2 -5 -50 -16 -107z"/>
<path d="M11127 8053 c-3 -4 -23 -66 -46 -138 -23 -71 -54 -157 -70 -190 -28
-55 -28 -74 0 -75 11 0 142 360 144 394 0 12 -22 19 -28 9z"/>
<path d="M14837 8053 c-4 -3 -7 -16 -7 -27 0 -12 -27 -70 -61 -131 -33 -60
-63 -122 -66 -137 -10 -51 15 -29 52 45 21 39 48 90 61 112 29 51 52 116 47
133 -5 13 -16 16 -26 5z"/>
<path d="M7551 7953 c-31 -101 -82 -197 -114 -217 -14 -9 -21 -7 -32 7 -7 11
-11 26 -8 35 10 28 66 82 85 82 19 0 25 25 8 35 -13 8 -60 -17 -87 -47 -50
-54 -51 -118 -2 -143 26 -14 30 -13 57 10 43 36 77 99 117 214 39 113 41 121
21 121 -9 0 -25 -34 -45 -97z"/>
<path d="M12375 8014 c-9 -22 -21 -49 -26 -61 -4 -12 -33 -64 -64 -114 -73
-119 -67 -147 13 -61 32 34 63 62 69 62 18 0 23 -42 7 -78 -18 -44 -18 -62 0
-62 9 0 22 22 33 56 15 50 16 58 2 82 -11 19 -23 27 -42 27 -15 -1 -26 4 -23
10 2 5 19 43 37 83 23 53 29 76 21 84 -8 8 -15 0 -27 -28z"/>
<path d="M3327 8033 c-19 -34 -107 -318 -102 -331 4 -12 17 -4 60 38 30 30 58
51 61 47 4 -4 8 -26 8 -49 1 -24 6 -43 14 -46 10 -3 12 11 10 59 -3 60 -4 64
-29 67 -17 2 -35 -6 -54 -25 -22 -22 -27 -24 -20 -8 17 44 75 229 75 242 0 14
-16 18 -23 6z"/>
<path d="M14178 7966 c-20 -41 -57 -106 -82 -145 -51 -78 -55 -91 -28 -91 20
1 72 44 72 60 0 6 4 9 9 5 5 -3 15 0 23 7 16 15 38 21 38 11 0 -5 -16 -28 -35
-52 -34 -43 -40 -62 -19 -67 14 -4 84 98 84 124 0 33 -28 39 -72 15 -43 -24
-46 -22 -19 15 24 34 91 168 91 182 0 5 -6 10 -13 10 -7 0 -29 -33 -49 -74z"/>
<path d="M6720 8002 c0 -21 -38 -133 -75 -220 -26 -62 -30 -96 -10 -95 6 1 15
19 21 40 7 22 21 58 33 81 26 52 61 159 61 190 0 13 -6 22 -15 22 -8 0 -15 -8
-15 -18z"/>
<path d="M11954 8009 c-3 -6 -2 -15 3 -20 13 -13 43 -1 43 17 0 16 -36 19 -46
3z"/>
<path d="M15097 7993 c-3 -5 -12 -33 -21 -64 -39 -138 -94 -219 -147 -219 -40
0 -44 16 -14 55 33 44 77 69 93 53 8 -8 13 -7 18 6 10 25 -10 40 -42 32 -41
-11 -124 -97 -124 -129 0 -61 104 -63 156 -3 51 59 126 276 96 276 -6 0 -13
-3 -15 -7z"/>
<path d="M3546 7967 c-25 -18 -12 -39 17 -28 23 9 30 32 12 38 -6 2 -19 -3
-29 -10z"/>
<path d="M8942 7943 c2 -10 10 -18 18 -18 22 0 18 29 -3 33 -14 3 -18 -1 -15
-15z"/>
<path d="M9576 7944 c-7 -17 9 -44 26 -44 13 0 6 53 -8 57 -6 2 -14 -4 -18
-13z"/>
<path d="M5695 7853 c-9 -32 -26 -70 -37 -86 -32 -44 -7 -58 29 -16 15 19 44
49 63 69 33 33 35 34 38 13 2 -12 -1 -39 -7 -60 -7 -24 -7 -41 -1 -47 17 -17
29 6 36 66 9 81 -22 113 -68 71 -19 -17 -19 -16 -16 11 6 53 -20 39 -37 -21z"/>
<path d="M5530 7886 c-38 -21 -72 -73 -68 -104 3 -24 7 -27 38 -27 20 1 40 -6
46 -14 10 -13 14 -13 28 -2 9 7 16 21 16 30 0 9 7 25 15 35 18 24 19 68 3 84
-16 16 -47 15 -78 -2z m60 -29 c0 -23 -84 -87 -97 -74 -8 9 15 44 43 66 30 24
54 27 54 8z"/>
<path d="M6888 7886 c-71 -31 -158 -150 -131 -177 7 -7 20 8 41 44 38 67 84
107 123 107 18 0 29 5 29 14 0 19 -32 25 -62 12z"/>
<path d="M2480 7864 c-41 -35 -70 -94 -70 -143 0 -51 35 -81 92 -81 35 0 98
23 98 36 0 3 -4 2 -10 -1 -5 -3 -10 -1 -10 5 0 7 -6 8 -19 0 -29 -15 -97 -12
-111 5 -8 9 -11 30 -7 55 8 58 77 144 77 95 0 -25 -23 -65 -37 -65 -16 0 -17
-16 -2 -25 11 -8 54 28 71 58 13 25 2 64 -21 77 -16 8 -26 5 -51 -16z"/>
<path d="M13882 7870 c-26 -24 -28 -59 -7 -100 14 -28 14 -30 -7 -41 -12 -6
-35 -12 -52 -13 -36 -2 -43 -29 -9 -34 29 -4 113 33 113 50 0 7 -7 32 -16 55
-21 55 -8 76 45 71 27 -2 36 1 36 12 0 25 -76 25 -103 0z"/>
<path d="M6996 7835 c-87 -89 -97 -167 -23 -173 38 -3 77 11 77 29 0 7 -15 8
-41 4 -28 -5 -44 -3 -49 5 -14 23 2 45 53 70 63 31 96 72 77 95 -21 26 -49 17
-94 -30z m48 -20 c-31 -24 -39 -17 -13 11 13 14 25 20 27 14 2 -6 -4 -18 -14
-25z"/>
<path d="M7640 7855 c-6 -14 -10 -51 -10 -81 0 -52 1 -54 26 -54 26 0 26 0 10
-25 -54 -82 -118 -203 -120 -225 -2 -37 17 -36 30 2 12 34 102 190 181 310 23
37 43 72 43 78 0 23 -25 3 -61 -50 -24 -35 -44 -54 -59 -55 -21 -2 -22 1 -17
57 6 62 -7 86 -23 43z"/>
<path d="M9088 7867 c-34 -16 -68 -47 -68 -63 0 -7 12 -27 27 -44 l27 -32 -25
-19 c-31 -24 -45 -24 -52 1 -7 26 -27 26 -27 1 0 -57 41 -68 97 -25 40 30 41
46 8 90 -27 35 -27 35 29 64 56 29 42 52 -16 27z"/>
<path d="M6464 7842 c-58 -43 -106 -101 -102 -125 4 -30 50 -34 94 -8 19 12
37 21 39 21 1 0 8 -14 14 -31 13 -38 35 -29 27 11 -3 17 2 42 14 66 20 39 18
51 -19 82 -20 17 -23 16 -67 -16z m61 -23 c9 -14 -21 -46 -72 -76 -68 -39 -75
-22 -14 36 53 51 74 61 86 40z"/>
<path d="M11446 7840 c-119 -76 -86 -207 34 -139 44 25 74 84 68 135 -4 40
-43 41 -102 4z m74 -30 c0 -28 -37 -76 -69 -90 -42 -17 -59 -3 -42 37 22 52
111 95 111 53z"/>
<path d="M11697 7843 c-35 -25 -107 -129 -107 -154 0 -26 38 1 60 43 27 50 68
98 82 98 14 0 38 27 31 34 -12 11 -28 6 -66 -21z"/>
<path d="M3845 7830 c-9 -17 -13 -36 -9 -42 4 -6 3 -8 -4 -4 -16 9 -26 -52
-12 -69 7 -8 23 -15 36 -15 25 0 64 35 64 57 0 18 17 16 24 -3 9 -24 7 -101
-5 -171 -10 -57 -13 -63 -36 -63 -82 0 -137 -82 -113 -171 13 -49 42 -66 74
-46 24 16 72 104 81 150 5 24 9 27 28 21 53 -17 68 4 19 26 -27 13 -32 19 -27
40 3 14 8 64 11 112 6 70 3 96 -10 132 -23 60 -43 66 -62 18 -20 -51 -29 -65
-42 -70 -20 -6 -14 53 9 82 19 24 19 46 -1 46 -5 0 -17 -14 -25 -30z m71 -367
c-14 -56 -58 -134 -74 -131 -19 4 -31 43 -24 87 5 35 49 71 86 71 15 0 17 -5
12 -27z"/>
<path d="M8357 7825 c-45 -35 -87 -97 -87 -130 0 -27 50 -65 85 -65 42 0 97
19 92 33 -6 18 -24 19 -40 2 -9 -8 -21 -13 -29 -11 -7 2 -25 7 -39 10 -50 11
-48 66 2 66 18 0 42 12 64 31 29 26 35 38 33 63 -4 43 -26 43 -81 1z m53 -13
c0 -11 -60 -55 -67 -48 -6 5 47 55 60 56 4 0 7 -4 7 -8z"/>
<path d="M8614 7847 c-6 -17 1 -91 11 -107 3 -5 -10 -21 -30 -37 -36 -29 -46
-53 -22 -53 8 0 22 9 32 20 22 24 43 26 51 5 8 -20 41 -38 55 -29 7 4 1 17
-15 33 -27 28 -27 61 -2 61 19 0 86 66 86 84 0 25 -12 19 -64 -29 -28 -25 -58
-45 -70 -44 -11 0 -16 3 -10 5 8 3 10 20 7 47 -6 48 -19 68 -29 44z"/>
<path d="M11225 7845 c-56 -26 -91 -69 -79 -99 9 -25 34 -27 79 -7 l43 19 5
-24 c2 -13 1 -24 -3 -24 -4 0 -11 -12 -14 -27 -24 -96 -26 -101 -45 -96 -27 7
-94 -33 -114 -67 -30 -50 -13 -140 26 -140 20 0 92 80 118 130 23 45 33 93 16
83 -5 -3 -2 5 6 18 14 20 47 174 47 214 0 9 -42 37 -53 35 -1 -1 -15 -7 -32
-15z m35 -34 c0 -13 -50 -51 -66 -51 -22 0 -16 17 12 39 28 22 54 28 54 12z
m-40 -261 c0 -21 -39 -86 -69 -114 l-30 -29 -6 26 c-4 14 -3 39 2 54 14 42
103 96 103 63z"/>
<path d="M12721 7830 c-23 -17 -40 -34 -37 -38 2 -4 -4 -8 -14 -8 -15 0 -18 6
-13 28 7 36 -20 48 -59 25 -15 -9 -28 -12 -28 -7 0 23 -31 7 -46 -22 -9 -18
-28 -48 -41 -66 -19 -26 -23 -36 -14 -45 9 -9 25 2 68 46 30 31 63 62 73 67
17 9 18 7 8 -23 -5 -17 -12 -39 -15 -48 -8 -27 17 -33 41 -10 29 31 128 102
133 98 2 -3 -4 -23 -13 -46 -9 -22 -14 -48 -10 -56 8 -22 38 -19 34 3 -2 9 4
37 14 61 10 25 17 50 14 58 -9 22 -51 15 -95 -17z"/>
<path d="M14350 7841 c0 -10 -13 -33 -30 -51 -35 -38 -38 -63 -9 -83 14 -11
30 -12 55 -7 42 10 45 12 45 36 -2 75 -10 108 -27 115 -29 12 -34 10 -34 -10z
m29 -93 c1 -13 -7 -18 -29 -18 -30 0 -40 13 -19 25 6 4 8 14 5 22 -3 8 -2 11
3 8 5 -3 13 0 17 7 8 13 22 -13 23 -44z"/>
<path d="M2665 7823 c-58 -58 -72 -125 -27 -131 13 -2 34 4 47 12 31 20 32 20
38 -4 3 -11 9 -20 15 -20 12 0 24 112 13 123 -4 4 -20 -8 -35 -27 -27 -36 -63
-62 -73 -53 -8 8 23 60 51 86 14 14 26 28 26 33 0 17 -28 7 -55 -19z"/>
<path d="M3630 7804 c-45 -42 -80 -107 -66 -121 11 -11 36 7 36 27 0 21 81
110 100 110 15 0 12 -42 -5 -83 -8 -20 -15 -46 -15 -57 0 -11 7 -20 15 -20 8
0 15 9 15 21 0 11 5 30 12 42 19 36 27 89 17 109 -17 31 -56 21 -109 -28z"/>
<path d="M4885 7838 c-38 -20 -70 -62 -81 -106 -7 -26 -7 -45 -2 -48 13 -8 22
3 38 46 20 54 49 80 87 80 38 0 46 24 11 34 -29 7 -29 7 -53 -6z"/>
<path d="M7176 7817 c-39 -38 -54 -80 -36 -102 17 -21 43 -19 74 6 26 20 28
20 40 4 9 -12 19 -16 31 -11 17 6 17 8 1 25 -14 15 -15 23 -5 45 11 23 9 28
-11 46 -32 28 -53 25 -94 -13z m70 -9 c4 -6 -8 -25 -29 -45 -60 -55 -79 -39
-26 22 33 37 44 42 55 23z"/>
<path d="M1750 7820 c-17 -32 5 -53 26 -25 8 10 13 24 11 29 -6 19 -26 17 -37
-4z"/>
<path d="M3022 7810 c-51 -51 -51 -114 -1 -141 27 -14 103 -3 120 17 18 22 6
26 -44 12 -41 -11 -48 -10 -67 7 -37 34 9 109 61 98 33 -6 39 11 10 27 -31 16
-47 12 -79 -20z"/>
<path d="M4698 7817 c-45 -37 -61 -102 -32 -131 22 -22 31 -20 65 13 23 24 29
38 29 73 0 39 -13 68 -29 68 -4 0 -18 -10 -33 -23z m32 -43 c0 -33 -17 -64
-35 -64 -19 0 -19 14 1 56 19 40 34 44 34 8z"/>
<path d="M2863 7810 c-19 -11 -41 -38 -53 -64 -24 -54 -24 -56 -4 -56 8 0 24
19 34 44 18 40 58 71 86 65 21 -4 34 2 34 16 0 22 -58 19 -97 -5z"/>
<path d="M8856 7769 c-24 -35 -36 -65 -36 -87 0 -38 23 -40 28 -3 2 13 17 46
33 73 43 73 22 86 -25 17z"/>
<path d="M9638 7800 c-43 -33 -91 -99 -84 -116 8 -22 44 0 52 31 7 28 58 75
81 75 13 0 14 -9 8 -55 -5 -46 -4 -55 9 -55 17 0 29 49 24 101 -3 30 -7 34
-34 37 -19 2 -40 -5 -56 -18z"/>
<path d="M9835 7810 c-31 -12 -47 -36 -43 -67 3 -25 8 -28 42 -31 27 -2 47 3
66 17 l27 20 -3 -89 c-4 -121 -18 -171 -47 -169 -65 6 -113 -24 -147 -92 -26
-49 -25 -74 2 -93 19 -13 25 -13 57 0 46 19 88 59 112 106 l19 37 35 -14 c42
-18 55 -19 55 -2 0 6 -18 20 -40 29 -34 14 -40 20 -35 40 10 46 14 80 20 188
8 125 3 132 -55 80 -42 -37 -85 -41 -76 -7 3 12 6 25 6 29 0 4 12 8 28 10 18
2 22 5 12 9 -8 4 -24 3 -35 -1z m55 -358 c0 -19 -61 -92 -89 -107 -34 -17 -61
-20 -61 -6 0 52 66 121 116 121 19 0 34 -4 34 -8z"/>
<path d="M11832 7778 c-26 -50 -27 -58 -7 -58 14 0 55 67 55 90 0 25 -27 6
-48 -32z"/>
<path d="M14624 7785 c-7 -19 -14 -38 -14 -43 0 -16 -38 -44 -56 -40 -27 5
-41 35 -26 58 6 11 12 27 12 35 0 28 -25 15 -44 -24 -14 -30 -16 -43 -7 -60
23 -42 83 -54 119 -23 22 18 64 117 54 126 -12 13 -24 4 -38 -29z"/>
<path d="M3478 7793 c-9 -19 -8 -73 1 -73 14 0 31 33 31 59 0 20 -25 30 -32
14z"/>
<path d="M9474 7783 c-3 -10 -10 -28 -15 -41 -12 -30 -12 -52 1 -52 12 0 37
47 41 79 5 29 -18 41 -27 14z"/>
<path d="M13090 7640 c0 -50 -50 -107 -83 -94 -15 5 -31 -21 -21 -37 20 -32
107 32 129 96 7 22 11 43 8 47 -9 16 -33 7 -33 -12z"/>
<path d="M5883 7562 c-21 -27 -53 -80 -72 -119 l-34 -71 -63 -7 c-48 -5 -64
-10 -64 -22 0 -13 9 -15 55 -9 30 3 55 2 55 -3 0 -5 -7 -25 -15 -45 -15 -36
-13 -56 6 -56 5 0 11 6 13 13 23 73 41 107 56 107 23 0 33 27 14 38 -12 7 -10
17 17 68 42 78 76 118 107 124 41 8 39 30 -2 30 -31 0 -41 -7 -73 -48z"/>
<path d="M8000 7570 c0 -6 -12 -40 -27 -75 l-28 -64 -45 -3 c-32 -2 -45 -7
-45 -18 0 -11 9 -14 38 -12 l38 4 -17 -39 c-24 -52 -31 -117 -13 -111 8 3 14
11 14 19 0 8 11 40 24 72 l23 57 45 0 c37 0 44 3 41 18 -3 13 -12 16 -36 14
-38 -4 -38 -3 -12 47 27 55 35 101 15 101 -8 0 -15 -5 -15 -10z"/>
<path d="M6479 7553 c-5 -52 -42 -132 -62 -134 -6 -1 -16 -2 -22 -4 -5 -1 -18
-3 -27 -3 -10 -1 -18 -9 -18 -18 0 -13 7 -15 36 -10 l35 7 -25 -48 c-28 -51
-31 -68 -17 -78 6 -3 25 24 43 61 18 37 38 68 43 70 6 2 29 8 53 14 26 7 42
16 39 23 -4 13 -20 13 -61 3 l-25 -6 19 46 c24 55 25 84 5 84 -8 0 -15 -3 -16
-7z"/>
<path d="M2000 7486 c0 -8 4 -16 9 -18 10 -3 -26 -115 -59 -183 -25 -51 -25
-58 -2 -78 46 -42 103 -30 159 32 48 55 3 110 -69 83 -18 -6 -33 -10 -35 -9
-1 2 7 32 19 68 22 69 19 119 -7 119 -8 0 -15 -6 -15 -14z m96 -198 c4 -6 -8
-25 -30 -45 -30 -28 -43 -33 -64 -28 -38 9 -38 12 -11 41 37 40 90 57 105 32z"/>
<path d="M5957 7474 c-14 -15 -6 -34 14 -34 14 0 19 5 17 17 -3 18 -20 27 -31
17z"/>
<path d="M5122 7445 c-20 -17 -32 -21 -39 -14 -14 14 -20 3 -55 -96 -32 -92
-32 -95 -15 -95 7 0 27 28 43 62 29 62 95 138 119 138 7 0 15 -9 18 -20 7 -27
27 -25 27 3 0 51 -50 62 -98 22z"/>
<path d="M4290 7428 c0 -32 27 -129 39 -141 6 -6 -11 -38 -48 -91 -63 -88
-101 -156 -101 -181 0 -30 20 -14 45 36 15 28 69 112 121 186 52 75 94 142 94
149 0 8 9 19 20 26 26 16 26 38 0 38 -13 0 -27 -15 -44 -47 -14 -27 -34 -61
-45 -77 l-19 -29 -11 39 c-6 21 -14 56 -17 77 -7 40 -34 52 -34 15z"/>
<path d="M6069 7425 c-56 -36 -109 -121 -116 -182 -3 -25 0 -33 12 -33 8 0 15
9 15 20 0 60 86 170 132 170 31 0 33 3 18 31 -13 24 -17 23 -61 -6z"/>
<path d="M4563 7409 c-16 -18 -33 -37 -40 -44 -23 -24 -53 -80 -53 -100 0 -72
105 -53 145 25 8 16 15 52 15 79 0 40 -4 52 -20 61 -16 9 -24 5 -47 -21z m37
-52 c0 -49 -44 -106 -82 -107 -31 0 -19 35 35 103 37 46 47 47 47 4z"/>
<path d="M8391 7410 c-24 -16 -54 -39 -67 -51 l-23 -21 6 21 c4 15 1 21 -10
21 -17 0 -34 -34 -98 -189 -36 -89 -40 -111 -19 -111 8 0 48 78 46 91 -1 3 7
14 17 24 10 9 16 24 13 31 -3 8 1 14 9 14 8 0 15 4 15 9 0 4 20 11 45 14 84
12 157 74 159 134 1 34 -2 38 -24 40 -14 1 -45 -11 -69 -27z m69 -5 c0 -36
-67 -95 -124 -109 l-28 -7 23 29 c35 43 129 107 129 87z"/>
<path d="M7731 7414 c-22 -16 -23 -21 -18 -82 7 -67 -2 -92 -29 -92 -9 0 -14
11 -14 31 0 44 -24 32 -28 -14 -4 -47 24 -65 67 -42 37 18 45 42 36 106 -8 59
4 79 47 79 19 0 28 4 26 13 -7 19 -60 20 -87 1z"/>
<path d="M2281 7380 c-41 -57 -54 -94 -47 -135 10 -52 38 -62 112 -40 81 23
144 55 144 71 0 17 7 19 -76 -15 -104 -42 -130 -47 -143 -22 -15 27 -14 51 2
45 19 -7 67 34 83 72 30 72 -27 91 -75 24z m35 -35 c-9 -14 -21 -25 -27 -25
-11 0 -4 15 19 43 22 25 28 12 8 -18z"/>
<path d="M4768 7366 c-15 -29 -52 -81 -84 -115 -43 -46 -54 -65 -46 -73 9 -9
21 -1 48 30 31 37 37 40 50 27 9 -8 18 -15 22 -15 10 0 55 32 83 58 l24 23 5
-33 c4 -25 11 -34 28 -36 20 -3 26 5 20 26 -2 4 -6 6 -10 5 -11 -4 -10 15 7
77 18 68 18 70 0 70 -17 0 -38 -34 -27 -45 4 -3 3 -5 -3 -4 -5 2 -33 -21 -62
-51 -28 -30 -55 -51 -59 -47 -5 4 8 39 28 77 20 37 34 71 31 74 -16 15 -31 2
-55 -48z"/>
<path d="M8062 7376 c-21 -19 -47 -51 -57 -70 -17 -32 -18 -36 -2 -60 21 -31
55 -41 104 -29 60 14 54 33 -11 30 -30 -1 -60 3 -66 9 -14 14 -2 44 16 44 24
0 91 38 98 55 24 63 -22 75 -82 21z m58 0 c0 -2 -8 -10 -17 -17 -16 -13 -17
-12 -4 4 13 16 21 21 21 13z"/>
<path d="M6187 7389 c-15 -9 -18 -21 -15 -62 l3 -52 -43 -3 c-28 -2 -42 -7
-39 -15 5 -16 71 -21 97 -7 19 10 21 19 18 63 -3 51 -3 52 25 50 21 -1 27 3
27 18 0 14 -7 19 -27 19 -16 0 -36 -5 -46 -11z"/>
<path d="M5885 7327 c-18 -45 -19 -77 -2 -77 17 0 41 90 28 103 -7 7 -15 -1
-26 -26z"/>
<path d="M8584 7216 c-15 -12 -16 -17 -7 -27 10 -10 17 -9 33 6 32 29 10 47
-26 21z"/>
<path d="M2252 6883 c-37 -55 -74 -125 -68 -130 3 -4 -1 -14 -10 -24 -27 -30
-75 -181 -62 -196 7 -9 7 -13 -1 -13 -6 0 -13 -17 -17 -38 -7 -44 -50 -96 -90
-109 -37 -12 -43 -33 -10 -33 16 0 42 14 65 35 l39 36 7 -30 c12 -54 115 -122
115 -76 0 8 -6 15 -14 15 -25 0 -65 41 -75 76 -9 33 -7 40 31 87 49 62 92 151
84 172 -3 9 0 15 10 15 8 0 14 6 13 13 -1 6 1 20 6 30 4 11 8 35 9 55 1 21 4
39 7 42 3 3 9 26 13 53 7 43 5 47 -13 47 -11 0 -28 -12 -39 -27z m8 -104 c-17
-95 -97 -277 -122 -279 -12 0 -10 21 7 76 11 37 12 50 2 56 -9 6 -9 8 1 8 6 0
12 6 12 14 0 8 6 21 13 28 6 7 30 48 51 91 21 42 41 76 43 73 2 -2 -1 -33 -7
-67z"/>
<path d="M7543 6878 c-26 -12 -53 -64 -132 -248 l-57 -135 -57 -3 c-44 -2 -55
-6 -50 -17 3 -10 19 -15 44 -15 21 0 39 -4 39 -8 0 -15 -67 -207 -83 -238 -15
-30 -14 -44 4 -44 13 0 31 38 74 165 l42 120 38 5 c21 3 40 11 43 19 3 10 -3
12 -27 9 -17 -2 -31 0 -31 5 0 20 143 337 157 349 8 6 34 13 56 14 54 3 52 2
37 19 -14 17 -65 19 -97 3z"/>
<path d="M10648 6752 c-10 -31 -25 -87 -34 -124 -18 -74 -29 -82 -98 -71 -30
5 -38 3 -34 -7 6 -18 56 -32 86 -25 l22 5 -20 -52 c-11 -28 -25 -55 -32 -59
-9 -6 -10 -13 -3 -25 18 -28 29 -16 60 62 26 65 35 78 65 90 19 8 49 26 67 40
l32 24 -13 -37 c-8 -21 -28 -69 -46 -107 -41 -91 -29 -106 37 -45 48 45 108
77 120 65 4 -4 1 -21 -5 -39 -27 -76 -4 -92 28 -20 23 53 19 80 -15 89 -29 7
-54 0 -97 -30 l-34 -23 38 96 c22 53 51 122 65 154 18 43 22 62 14 70 -14 14
-25 2 -40 -44 -15 -48 -72 -113 -127 -145 -25 -15 -47 -25 -49 -22 -2 2 4 35
14 73 10 39 16 75 14 81 -2 6 3 17 12 24 18 15 20 60 3 60 -7 0 -21 -26 -30
-58z"/>
<path d="M2631 6739 c-12 -28 -29 -79 -38 -114 -13 -55 -20 -65 -44 -74 -36
-12 -38 -31 -3 -31 21 0 24 -4 19 -20 -14 -45 -22 -121 -12 -127 14 -9 23 12
37 88 13 78 23 87 76 71 19 -5 36 -6 39 -2 8 13 -36 40 -66 40 -26 0 -27 0
-16 48 5 26 20 71 33 101 28 62 29 71 10 71 -7 0 -23 -23 -35 -51z"/>
<path d="M3427 6723 c-18 -29 -103 -190 -133 -250 -40 -81 -52 -165 -23 -171
13 -2 16 6 15 40 -1 45 27 109 121 280 36 65 45 90 37 98 -7 7 -14 8 -17 3z"/>
<path d="M3886 6660 c-9 -22 -16 -47 -16 -56 0 -8 -20 -64 -45 -124 -45 -110
-53 -144 -36 -155 16 -9 52 36 41 50 -14 17 5 65 26 65 9 0 31 9 48 19 26 16
39 18 80 10 71 -13 100 -34 92 -67 -4 -15 -7 -33 -8 -39 -1 -7 -5 -13 -10 -13
-4 0 -8 -4 -8 -10 0 -22 30 -8 45 20 33 64 4 113 -81 135 l-47 12 44 31 c76
54 112 89 99 97 -11 7 -27 -3 -165 -105 -44 -32 -81 -57 -83 -56 -5 6 55 176
69 192 10 13 10 17 -2 25 -22 14 -26 11 -43 -31z"/>
<path d="M5015 6673 c-3 -16 -13 -52 -23 -82 -16 -49 -21 -55 -57 -65 -48 -14
-59 -36 -16 -36 l30 0 -20 -47 c-11 -27 -27 -52 -35 -56 -22 -12 -17 -29 9
-25 16 2 31 21 56 76 19 39 41 72 48 72 7 0 10 6 7 14 -3 8 1 34 9 58 26 76
30 118 13 118 -9 0 -18 -12 -21 -27z m-75 -163 c0 -5 -8 -10 -17 -10 -15 0
-16 2 -3 10 19 12 20 12 20 0z"/>
<path d="M9684 6643 c-38 -90 -53 -133 -47 -133 3 0 -1 -8 -9 -17 -18 -22 -53
-106 -62 -150 -9 -37 10 -55 23 -21 9 24 47 120 106 265 18 45 30 84 27 87
-12 13 -23 4 -38 -31z"/>
<path d="M10414 6659 c-10 -17 13 -36 27 -22 12 12 4 33 -11 33 -5 0 -12 -5
-16 -11z"/>
<path d="M5044 6574 c4 -10 -1 -22 -11 -30 -16 -11 -16 -13 -2 -19 8 -3 28 -1
43 4 26 10 26 11 10 36 -18 28 -50 35 -40 9z"/>
<path d="M11430 6568 c-25 -13 -47 -31 -49 -42 -1 -10 7 -40 19 -67 13 -26 20
-54 17 -62 -8 -22 -45 -10 -70 24 -12 18 -25 25 -30 20 -23 -23 26 -76 82 -87
24 -5 32 -1 47 21 17 26 17 28 -9 81 -15 30 -27 58 -27 63 0 11 54 33 83 35
28 1 29 30 2 34 -11 1 -40 -8 -65 -20z"/>
<path d="M2357 6553 c-75 -79 -76 -210 -2 -201 38 4 44 26 8 30 -40 4 -44 42
-8 70 63 50 81 88 53 116 -17 17 -21 16 -51 -15z m14 -46 l-23 -22 17 28 c10
15 20 25 23 22 3 -3 -5 -16 -17 -28z"/>
<path d="M2719 6528 c-26 -29 -29 -39 -27 -88 3 -53 2 -55 -22 -55 -28 0 -34
-22 -9 -38 21 -13 44 -4 64 27 14 21 14 31 4 65 -11 37 -10 42 12 68 13 16 28
29 34 30 20 3 16 23 -5 23 -11 0 -35 -15 -51 -32z"/>
<path d="M5772 6540 c-23 -10 -45 -26 -48 -35 -4 -8 3 -38 15 -66 24 -54 19
-72 -18 -82 -22 -5 -35 2 -44 26 -10 27 -29 20 -25 -10 2 -17 13 -33 30 -42
24 -14 30 -14 63 2 54 26 55 39 11 148 -5 12 2 20 25 29 36 15 42 16 87 6 48
-11 44 20 -5 33 -47 13 -40 14 -91 -9z"/>
<path d="M6538 6541 c-14 -11 -33 -39 -42 -61 -18 -45 -23 -48 -42 -22 -12 16
-13 16 -19 -1 -8 -18 10 -47 29 -47 6 0 17 -14 25 -31 l14 -31 66 5 c88 7 171
33 171 54 0 11 -6 14 -22 9 -96 -27 -143 -37 -171 -34 -48 5 -45 29 7 57 65
34 82 55 70 89 -12 35 -51 40 -86 13z m59 -28 c4 -10 -55 -53 -71 -53 -11 0
22 58 36 63 17 7 31 3 35 -10z"/>
<path d="M11023 6524 c-18 -14 -34 -33 -34 -42 -1 -9 -4 -4 -8 12 -9 44 -22
37 -38 -19 -8 -27 -21 -58 -29 -69 -15 -23 -19 -56 -5 -56 4 0 27 26 49 58 23
33 58 72 78 87 l36 28 -7 -24 c-4 -13 -16 -39 -26 -57 -42 -73 -14 -70 68 9
35 34 66 59 69 57 2 -3 -1 -28 -7 -55 -13 -56 -8 -83 16 -83 12 0 15 6 10 20
-4 11 1 45 10 76 13 43 13 59 4 70 -14 17 -45 10 -75 -17 -26 -24 -32 -24 -36
4 -4 31 -37 32 -75 1z"/>
<path d="M3465 6493 c-44 -60 -54 -106 -30 -133 37 -41 106 -14 139 54 19 41
8 85 -24 93 -11 3 -20 12 -20 19 0 29 -31 12 -65 -33z m85 -42 c0 -51 -80
-107 -96 -67 -8 20 24 84 44 89 42 11 52 7 52 -22z"/>
<path d="M6170 6514 c-24 -21 -34 -24 -40 -14 -11 18 -26 5 -34 -30 -3 -17
-17 -46 -31 -64 -14 -18 -25 -38 -25 -44 0 -24 29 -11 49 22 23 37 110 121
117 113 3 -3 0 -24 -6 -46 -16 -59 -4 -69 36 -30 34 33 47 76 20 66 -11 -4
-14 1 -13 21 3 38 -31 41 -73 6z"/>
<path d="M6308 6524 c-17 -9 -28 -23 -28 -35 0 -21 0 -21 35 1 56 34 73 6 34
-56 -23 -38 -22 -77 2 -82 19 -3 35 28 20 38 -6 3 -2 17 9 35 22 34 26 85 8
103 -16 16 -47 15 -80 -4z"/>
<path d="M8639 6509 c-17 -17 -20 -28 -14 -64 5 -39 3 -46 -19 -60 -30 -20
-71 -12 -62 12 9 22 -3 36 -20 22 -19 -16 -18 -43 4 -62 23 -21 54 -22 92 -2
34 17 44 44 36 89 -8 41 12 61 49 52 18 -4 24 -3 23 6 -7 34 -58 38 -89 7z"/>
<path d="M3651 6484 c-87 -78 -70 -167 29 -154 29 3 61 46 67 88 4 33 1 47
-18 71 -13 16 -27 30 -31 30 -5 1 -26 -15 -47 -35z m59 -19 c14 -17 7 -69 -11
-92 -6 -7 -24 -13 -40 -13 -25 0 -29 4 -29 29 0 28 42 91 60 91 4 0 13 -7 20
-15z"/>
<path d="M9376 6494 c-50 -34 -81 -100 -61 -129 18 -28 60 -22 112 14 l43 30
-7 -44 c-5 -36 -3 -45 9 -45 17 0 23 21 34 119 8 72 2 81 -56 81 -22 0 -50
-10 -74 -26z m104 -12 c0 -15 -85 -91 -112 -101 -25 -9 -28 -8 -28 10 0 34 72
99 109 99 17 0 31 -4 31 -8z"/>
<path d="M9765 6489 c-20 -18 -35 -40 -35 -53 0 -26 29 -56 53 -56 21 0 21 -9
1 -60 -12 -29 -22 -40 -38 -40 -47 0 -96 -60 -96 -119 0 -58 37 -47 92 26 17
24 38 43 45 43 7 0 13 5 13 11 0 5 6 7 13 4 6 -4 4 0 -5 7 -11 10 -14 19 -7
29 14 21 59 172 59 197 0 13 -6 22 -15 22 -8 0 -15 5 -15 10 0 19 -30 10 -65
-21z m60 -31 c-9 -43 -18 -51 -44 -43 -28 9 -26 29 5 54 37 29 47 26 39 -11z
m-85 -217 c0 -13 -51 -73 -57 -67 -2 2 3 18 11 34 13 25 23 35 44 41 1 1 2 -3
2 -8z"/>
<path d="M4696 6489 c-35 -28 -59 -76 -52 -105 8 -32 51 -42 87 -22 26 15 27
15 32 -4 8 -28 29 -18 33 16 2 16 8 34 13 39 18 18 12 39 -19 68 -35 34 -58
36 -94 8z m71 -36 c13 -20 11 -23 -32 -49 -32 -18 -50 -23 -57 -16 -12 12 5
50 36 74 25 21 35 19 53 -9z"/>
<path d="M5926 6459 c-47 -51 -59 -81 -46 -115 9 -23 14 -26 43 -20 17 3 45
20 60 37 25 27 28 37 25 85 -3 48 -5 54 -24 54 -13 0 -37 -17 -58 -41z m54
-28 c0 -33 -25 -66 -57 -76 -18 -5 -22 -3 -17 9 3 9 2 16 -4 16 -11 0 58 78
71 79 4 1 7 -12 7 -28z"/>
<path d="M7783 6485 c-12 -8 -28 -12 -37 -9 -11 4 -23 -12 -46 -62 -34 -76
-36 -84 -15 -84 8 0 15 4 15 9 0 7 31 50 76 104 22 27 28 14 14 -28 -20 -60 0
-66 57 -19 71 60 72 60 66 14 -5 -32 -2 -40 10 -40 21 0 35 99 16 110 -13 9
-61 -11 -91 -37 -15 -13 -16 -11 -15 18 2 39 -16 48 -50 24z"/>
<path d="M8427 6494 c-4 -4 -7 -22 -7 -41 0 -27 -7 -38 -42 -63 -44 -32 -71
-37 -92 -17 -12 10 -12 16 0 39 17 33 -2 51 -23 22 -15 -20 -11 -67 7 -90 20
-23 73 -17 116 14 48 35 59 49 67 83 7 27 -13 66 -26 53z"/>
<path d="M9941 6483 c-15 -11 -15 -12 1 -18 16 -6 16 -9 1 -41 -37 -77 27
-125 87 -65 34 34 37 56 13 105 -16 31 -22 35 -52 33 -19 -1 -41 -7 -50 -14z
m79 -48 c15 -18 4 -52 -22 -66 -33 -18 -45 4 -25 46 18 38 28 43 47 20z"/>
<path d="M10207 6482 c-37 -41 -60 -132 -34 -132 14 0 26 19 51 83 8 20 22 37
30 37 9 0 16 7 16 15 0 21 -43 19 -63 -3z"/>
<path d="M10345 6454 c-18 -44 -19 -74 -2 -74 13 0 49 89 41 102 -11 17 -24 7
-39 -28z"/>
<path d="M7517 6441 c-49 -55 -60 -77 -48 -100 16 -28 38 -33 79 -14 20 9 45
15 55 14 9 -1 17 4 17 11 0 7 7 26 15 42 28 53 0 52 -52 -1 -26 -27 -55 -49
-63 -49 -30 2 -20 33 25 77 24 24 45 47 45 52 0 21 -42 2 -73 -32z"/>
<path d="M8093 6450 c-46 -28 -58 -55 -38 -86 34 -52 135 -25 135 38 0 18 -41
68 -57 68 -4 0 -22 -9 -40 -20z m61 -35 c10 -28 -5 -45 -40 -45 -40 0 -46 21
-12 44 28 20 44 20 52 1z"/>
<path d="M4049 6018 c-29 -31 -139 -242 -139 -266 0 -6 -16 -14 -35 -18 -37
-7 -50 -18 -40 -34 4 -6 15 -6 30 0 14 5 25 6 25 2 0 -5 -16 -57 -35 -116 -33
-101 -36 -126 -16 -126 4 0 27 59 50 130 30 90 47 130 58 130 11 0 13 7 9 28
-5 20 4 49 34 111 57 118 74 139 105 134 29 -6 44 19 25 42 -19 23 -38 18 -71
-17z"/>
<path d="M3814 5981 c-49 -22 -90 -78 -126 -171 -26 -65 -31 -81 -42 -132 -5
-21 -13 -27 -38 -30 -43 -4 -50 -28 -8 -28 23 0 31 -4 27 -14 -3 -8 -11 -34
-18 -57 -7 -24 -16 -46 -19 -49 -15 -14 -29 -60 -19 -66 17 -10 25 4 62 101
33 85 37 90 73 100 52 14 60 40 9 32 l-37 -6 7 36 c13 69 57 172 91 212 39 45
106 73 126 53 16 -16 28 -15 28 3 0 16 -30 35 -57 35 -10 0 -37 -9 -59 -19z"/>
<path d="M5227 5883 c-2 -5 -8 -26 -12 -48 -4 -22 -18 -74 -31 -116 l-24 -76
-55 3 c-30 2 -57 -1 -60 -6 -9 -15 35 -32 70 -28 30 3 32 2 25 -17 -4 -11 -18
-44 -29 -74 -12 -30 -19 -61 -16 -69 9 -23 20 -6 55 83 17 44 39 86 48 94 11
8 13 15 6 18 -8 3 -6 19 7 56 24 68 48 174 41 181 -8 8 -20 7 -25 -1z"/>
<path d="M5439 5878 c-1 -2 -3 -12 -4 -23 -7 -46 -46 -166 -84 -257 -23 -54
-41 -107 -41 -117 0 -27 19 -37 26 -14 3 10 25 70 49 133 80 210 96 280 65
280 -5 0 -11 -1 -11 -2z"/>
<path d="M4640 5835 c0 -10 7 -15 18 -13 21 4 19 22 -2 26 -10 2 -16 -3 -16
-13z"/>
<path d="M7400 5793 c-19 -27 -43 -60 -52 -75 -20 -31 -54 -36 -122 -17 -25 7
-42 7 -48 1 -14 -14 23 -32 82 -39 44 -5 48 -8 39 -24 -5 -10 -10 -39 -11 -63
-2 -38 3 -50 26 -75 34 -35 106 -57 137 -41 29 16 16 27 -41 32 -64 6 -90 29
-90 79 0 21 5 50 12 64 11 24 15 25 94 25 84 0 105 8 80 29 -10 8 -33 10 -69
6 -38 -5 -57 -3 -62 5 -4 7 -3 15 2 19 20 13 82 104 77 112 -10 16 -20 9 -54
-38z"/>
<path d="M11286 5769 c-82 -87 -125 -169 -122 -237 1 -40 -3 -51 -26 -70 -48
-41 -25 -61 25 -21 21 16 31 18 46 10 31 -17 91 -14 91 4 0 10 -10 15 -32 15
-51 0 -64 14 -34 34 35 22 80 92 70 107 -4 7 -3 10 3 6 10 -6 89 159 95 198 2
15 -3 21 -23 23 -21 2 -39 -11 -93 -69z m64 -13 c-12 -25 -18 -51 -14 -58 4
-6 3 -8 -3 -5 -6 4 -22 -18 -36 -51 -27 -60 -98 -144 -105 -123 -7 21 18 101
44 142 26 41 125 151 131 146 2 -2 -6 -25 -17 -51z"/>
<path d="M9995 5808 c-2 -7 -18 -60 -35 -118 -41 -141 -57 -184 -92 -254 -16
-32 -27 -61 -24 -64 20 -20 93 121 125 240 10 40 28 100 40 133 12 32 21 63
21 67 0 13 -30 9 -35 -4z"/>
<path d="M11899 5818 c0 -2 -12 -39 -27 -83 l-27 -80 -45 -3 c-43 -3 -70 -16
-70 -33 0 -4 23 -5 51 -2 50 6 51 6 45 -18 -4 -13 -20 -51 -37 -83 -33 -67
-35 -76 -15 -76 15 0 68 101 81 152 7 27 13 31 72 43 22 4 31 12 30 24 -1 16
-5 17 -34 8 -18 -6 -35 -8 -38 -5 -3 3 5 36 19 74 14 37 23 71 20 76 -5 7 -23
12 -25 6z"/>
<path d="M3364 5772 c-75 -14 -82 -18 -92 -45 -6 -17 -9 -34 -5 -40 3 -6 1 -7
-5 -3 -9 6 -37 -64 -46 -118 -1 -6 -10 -26 -19 -44 -21 -39 -15 -52 24 -52 30
0 40 17 15 26 -12 5 -12 12 1 52 9 26 17 48 18 50 1 1 31 10 66 19 69 17 85
25 75 41 -4 7 -25 5 -61 -5 -31 -9 -57 -14 -60 -12 -2 3 2 23 9 44 13 37 18
41 68 53 29 7 70 15 91 16 42 4 52 10 42 25 -8 13 -19 13 -121 -7z"/>
<path d="M4086 5742 c-8 -13 11 -35 33 -39 28 -4 38 17 16 34 -21 15 -41 17
-49 5z"/>
<path d="M11510 5705 c0 -28 24 -34 34 -9 10 26 7 34 -14 34 -15 0 -20 -7 -20
-25z"/>
<path d="M6655 5672 c-47 -11 -94 -62 -67 -74 12 -5 42 -68 42 -88 0 -21 -36
-50 -61 -50 -9 0 -23 10 -31 22 -20 30 -41 16 -26 -18 19 -42 80 -45 128 -6
30 25 29 68 -4 121 -25 39 -25 41 -7 51 11 5 35 10 55 10 29 0 56 14 45 24 -9
8 -56 13 -74 8z"/>
<path d="M2811 5651 c-16 -10 -7 -47 15 -55 21 -8 48 14 52 42 3 18 -1 22 -25
22 -15 0 -34 -4 -42 -9z"/>
<path d="M4200 5636 c-43 -29 -81 -100 -73 -138 3 -15 13 -34 24 -44 33 -30
159 -31 159 -1 0 8 -15 11 -50 9 -88 -7 -124 39 -84 108 23 38 67 62 104 56
32 -5 38 2 18 22 -19 19 -60 14 -98 -12z"/>
<path d="M5621 5627 c-12 -19 -21 -36 -21 -39 0 -10 -92 -99 -97 -94 -3 3 -9
34 -12 68 -4 47 -10 63 -21 63 -12 0 -14 -11 -12 -55 2 -30 10 -68 18 -84 14
-29 13 -31 -69 -140 -146 -193 -200 -287 -179 -308 7 -7 19 7 38 43 42 85 159
247 337 469 37 46 66 88 64 94 -7 22 -26 15 -46 -17z"/>
<path d="M4679 5640 c-22 -13 -75 -98 -83 -134 -9 -39 11 -85 40 -92 27 -7 92
22 108 48 18 29 -1 31 -38 3 -48 -37 -70 -31 -74 21 -2 34 3 49 30 84 39 51
53 58 61 31 3 -14 -5 -30 -26 -51 -46 -45 -22 -60 26 -16 32 29 37 39 31 63
-12 51 -37 65 -75 43z"/>
<path d="M6854 5639 c-30 -15 -74 -88 -74 -124 0 -35 26 -65 56 -65 26 0 80
34 94 60 12 23 0 81 -25 118 -18 24 -21 25 -51 11z m43 -67 c5 -20 8 -43 5
-50 -5 -17 -61 -45 -78 -38 -26 10 -14 65 24 109 23 27 39 20 49 -21z"/>
<path d="M7094 5630 c-64 -14 -124 -86 -124 -150 0 -22 39 -29 41 -7 1 6 2 25
3 41 2 35 56 86 90 86 21 0 56 22 56 35 0 5 -27 3 -66 -5z"/>
<path d="M8296 5618 c-10 -14 -16 -43 -16 -80 0 -61 -16 -88 -51 -88 -12 0
-21 9 -25 28 -13 60 -19 71 -32 63 -19 -11 1 -91 29 -114 25 -20 53 -15 87 16
18 17 22 31 22 78 0 71 7 89 32 89 26 0 18 24 -9 28 -13 2 -27 -6 -37 -20z"/>
<path d="M11587 5609 c-40 -33 -48 -69 -22 -103 21 -28 19 -56 -4 -56 -11 0
-23 5 -26 10 -11 17 -25 11 -25 -10 0 -27 41 -43 75 -30 20 8 25 16 25 43 0
18 -7 42 -15 53 -8 10 -15 27 -15 36 0 19 50 58 74 58 9 0 16 7 16 15 0 25
-43 17 -83 -16z"/>
<path d="M4540 5606 c-4 -13 -14 -43 -20 -67 -7 -24 -21 -61 -31 -81 -14 -26
-16 -39 -7 -44 16 -10 34 19 63 107 14 42 33 80 41 83 20 8 8 26 -17 26 -11 0
-23 -10 -29 -24z"/>
<path d="M8766 5615 c-16 -9 -35 -23 -42 -33 -13 -16 -13 -16 -14 1 0 38 -27
14 -44 -41 -9 -32 -39 -103 -67 -158 -27 -54 -47 -105 -44 -113 9 -24 41 14
71 85 25 59 29 64 59 64 19 0 47 12 73 30 77 57 104 135 57 166 -17 11 -25 11
-49 -1z m54 -35 c0 -28 -100 -130 -128 -130 -26 0 -26 -1 -8 36 19 37 85 101
111 107 11 3 21 5 23 6 1 0 2 -8 2 -19z"/>
<path d="M12099 5623 c-31 -5 -109 -68 -109 -89 0 -8 23 -31 51 -51 50 -35 51
-37 28 -45 -36 -14 -86 -1 -92 22 -8 31 -29 24 -25 -7 4 -37 46 -57 101 -49
23 4 48 10 56 15 25 16 4 57 -45 88 l-46 30 34 26 c18 14 49 27 68 29 23 2 35
8 35 18 0 16 -15 20 -56 13z"/>
<path d="M4922 5613 c-7 -2 -28 -25 -47 -50 -34 -45 -35 -45 -29 -15 5 24 3
32 -8 32 -16 0 -48 -85 -48 -126 0 -31 27 -32 40 -1 5 12 34 49 65 82 l56 60
-6 -40 c-4 -22 -13 -53 -21 -69 -15 -31 -11 -46 11 -46 17 0 37 66 39 130 1
38 -2 45 -19 47 -11 1 -26 -1 -33 -4z"/>
<path d="M8925 5588 c-33 -18 -76 -61 -86 -85 -12 -32 8 -81 42 -98 33 -18 74
-19 118 -4 36 13 45 46 9 35 -58 -18 -104 -18 -121 -1 -21 21 -22 45 -2 45 32
0 95 40 101 65 12 50 -15 69 -61 43z m35 -28 c0 -10 -58 -50 -73 -50 -15 0 5
21 37 41 36 22 36 22 36 9z"/>
<path d="M4035 5578 c-23 -62 -45 -134 -45 -145 0 -7 6 -13 13 -13 7 0 23 31
36 70 12 38 26 72 31 75 17 11 11 25 -10 25 -11 0 -23 -6 -25 -12z"/>
<path d="M8440 5571 c-16 -31 -12 -69 10 -91 38 -38 92 -15 109 47 11 40 7 53
-15 53 -9 0 -14 -10 -14 -28 0 -16 -9 -37 -20 -47 -19 -17 -21 -17 -40 0 -18
17 -19 20 -5 41 8 13 15 28 15 34 0 17 -29 11 -40 -9z"/>
<path d="M10461 5553 c-55 -46 -79 -121 -49 -151 15 -15 53 -16 79 -2 24 14
24 10 -2 -102 -12 -49 -27 -92 -33 -94 -7 -3 -31 -1 -54 4 -32 8 -44 7 -53 -4
-15 -19 -28 -143 -18 -171 20 -54 91 -9 133 84 12 27 26 43 40 45 22 3 21 24
-1 22 -16 -2 -16 4 2 55 8 23 21 80 29 126 8 46 22 98 31 115 16 32 17 79 1
83 -4 1 -17 -20 -28 -48 -21 -55 -58 -95 -89 -95 -13 0 -19 7 -19 23 0 28 46
97 65 97 20 0 27 16 12 29 -10 8 -22 4 -46 -16z m-13 -387 c11 -11 -60 -126
-78 -126 -13 0 -18 92 -6 118 9 20 15 23 45 17 20 -4 37 -8 39 -9z"/>
<path d="M11427 5573 c-3 -5 -9 -37 -13 -71 -5 -52 -4 -62 8 -62 15 0 27 43
31 109 2 24 -16 40 -26 24z"/>
<path d="M9142 5560 c-26 -11 -84 -124 -75 -146 12 -31 33 -10 54 51 21 63 27
68 81 63 51 -5 71 5 41 20 -30 16 -77 21 -101 12z"/>
<path d="M10254 5545 c-43 -18 -109 -94 -94 -109 8 -8 22 1 55 37 52 55 91 65
82 20 -12 -62 -12 -68 3 -68 18 0 35 62 27 97 -8 31 -35 39 -73 23z"/>
<path d="M10021 5507 c-26 -53 -27 -99 -3 -120 25 -23 54 -21 86 4 37 29 33
75 -9 104 -19 12 -29 27 -27 38 7 34 -27 16 -47 -26z m61 -44 c24 -21 23 -40
-3 -53 -27 -15 -49 3 -49 41 0 34 23 39 52 12z"/>
<path d="M3277 5513 c-31 -4 -35 -6 -24 -18 20 -20 148 -16 145 5 -3 16 -49
21 -121 13z"/>
<path d="M9456 4957 c-11 -34 -27 -91 -36 -127 l-16 -64 -48 3 c-60 3 -60 -20
0 -31 l39 -8 2 -85 c3 -125 39 -182 110 -171 21 3 40 5 41 6 2 0 2 5 0 12 -2
6 -22 12 -43 12 -55 1 -76 38 -76 140 0 41 3 81 6 87 5 7 25 9 61 4 37 -4 54
-3 54 5 0 14 -43 30 -81 30 -29 0 -30 1 -23 38 4 20 18 68 31 106 26 78 29
106 11 106 -7 0 -22 -28 -32 -63z"/>
<path d="M8234 4990 c-43 -17 -63 -85 -90 -302 -5 -48 -6 -48 -42 -48 -20 0
-55 5 -77 11 -61 15 -70 15 -70 -1 0 -18 70 -38 138 -39 26 -1 47 -4 47 -8 -1
-27 -31 -147 -40 -158 -7 -9 -6 -16 4 -24 21 -18 33 5 52 102 12 63 23 91 36
98 23 13 23 29 -1 29 -16 0 -18 6 -14 48 10 107 25 189 41 222 16 32 21 35 61
35 40 0 65 16 44 28 -19 11 -70 15 -89 7z"/>
<path d="M10826 4992 c-2 -4 -13 -43 -24 -87 -12 -44 -34 -111 -50 -150 -30
-73 -29 -73 -96 -64 -38 5 -46 -18 -9 -27 66 -14 63 -10 46 -62 -9 -26 -20
-52 -25 -58 -10 -14 0 -46 14 -42 5 2 19 33 32 68 18 54 26 66 46 68 14 2 32
9 40 16 8 7 23 16 34 20 12 4 17 13 13 26 -3 10 0 21 7 24 6 2 3 5 -6 5 -10 1
-18 -3 -18 -8 0 -8 -64 -51 -75 -51 -2 0 10 35 27 78 29 75 68 210 68 238 0
15 -16 19 -24 6z"/>
<path d="M3345 4969 c-4 -6 -3 -15 2 -20 7 -7 -7 -28 -38 -61 -85 -89 -113
-178 -87 -268 23 -77 109 -105 231 -75 14 4 28 2 31 -4 12 -19 38 -13 32 7 -5
14 6 27 40 52 115 82 111 175 -12 299 -49 49 -59 54 -112 60 -31 4 -62 10 -69
14 -6 4 -15 2 -18 -4z m151 -75 c42 -23 100 -98 110 -141 13 -49 -21 -104 -88
-147 -26 -17 -26 -17 -33 12 -10 48 -76 145 -88 133 -8 -8 -6 -19 6 -39 31
-47 59 -113 53 -127 -8 -23 -105 -29 -154 -10 -36 15 -43 23 -53 58 -14 52 -5
111 26 163 13 23 22 44 20 48 -3 3 -2 4 2 1 8 -6 43 25 43 39 1 18 63 45 90
39 14 -3 44 -16 66 -29z"/>
<path d="M9616 4943 c4 -10 7 -29 7 -43 0 -31 -13 -328 -14 -338 -8 -51 19
-37 45 24 11 28 28 61 37 74 l16 24 12 -21 c9 -17 9 -39 0 -93 -7 -39 -9 -73
-5 -77 13 -13 26 14 37 82 10 59 10 75 -2 100 -20 42 -56 41 -86 -4 l-23 -34
0 29 c0 16 5 80 10 142 11 118 5 152 -26 152 -12 0 -14 -5 -8 -17z"/>
<path d="M4707 4933 c-2 -4 -5 -35 -6 -68 -1 -33 -9 -104 -17 -157 -17 -108
-16 -179 4 -186 8 -2 12 10 12 40 0 25 6 89 14 144 20 137 24 226 9 231 -6 2
-13 0 -16 -4z"/>
<path d="M4341 4863 c-15 -57 -26 -264 -17 -290 7 -17 8 -17 20 -1 7 10 12 36
10 57 -4 55 8 63 72 47 43 -10 63 -34 77 -92 8 -32 17 -49 27 -49 8 0 14 7 13
15 -11 86 -51 143 -111 157 l-36 8 72 65 c68 61 88 90 60 90 -7 0 -48 -34 -91
-75 -42 -41 -78 -75 -80 -75 -7 0 12 140 22 158 6 11 7 22 4 26 -17 16 -32 2
-42 -41z"/>
<path d="M7124 4886 c3 -13 2 -46 -4 -73 -5 -28 -14 -104 -19 -169 -6 -65 -14
-129 -17 -141 -5 -19 -2 -23 15 -23 11 0 21 6 22 13 5 122 15 154 49 172 61
32 73 17 60 -76 -6 -43 -6 -67 2 -76 18 -22 25 -6 32 73 8 97 -7 129 -57 122
-18 -3 -40 -8 -49 -13 -15 -6 -18 -2 -18 27 0 19 5 60 11 91 11 64 5 97 -18
97 -11 0 -14 -6 -9 -24z"/>
<path d="M3947 4894 c-14 -14 -7 -35 11 -32 9 2 17 10 17 17 0 16 -18 25 -28
15z"/>
<path d="M13797 4858 c-13 -18 -41 -68 -61 -112 -29 -64 -38 -76 -50 -67 -30
25 -115 -33 -142 -97 -30 -68 27 -95 98 -47 29 20 49 50 98 152 34 70 71 140
82 156 31 43 7 58 -25 15z m-124 -220 c10 -29 -55 -98 -92 -98 -23 0 -10 43
23 76 35 35 61 43 69 22z"/>
<path d="M10604 4849 c-10 -17 13 -36 27 -22 12 12 4 33 -11 33 -5 0 -12 -5
-16 -11z"/>
<path d="M5928 4774 c-34 -18 -50 -46 -41 -71 3 -10 20 -36 37 -58 18 -22 39
-52 49 -67 17 -27 17 -28 -6 -33 -44 -11 -123 38 -111 69 8 20 -11 29 -26 11
-27 -33 35 -101 104 -112 39 -6 86 16 86 42 0 8 -22 44 -50 80 -27 36 -50 72
-50 80 0 35 78 58 120 35 26 -14 39 9 15 27 -25 17 -93 16 -127 -3z"/>
<path d="M2846 4754 c-18 -18 -20 -30 -6 -39 16 -10 50 14 50 35 0 24 -23 26
-44 4z"/>
<path d="M6598 4730 c-12 -16 -27 -30 -33 -30 -12 0 -42 -157 -32 -167 16 -16
35 10 40 57 4 29 18 72 32 96 26 44 50 55 73 32 9 -9 15 -9 25 1 10 10 8 15
-7 27 -33 24 -73 18 -98 -16z"/>
<path d="M12086 4676 c-31 -47 -60 -87 -65 -90 -5 -4 -12 20 -16 51 -6 63 -15
87 -30 84 -10 -2 -11 -7 -1 -110 l5 -64 -68 -81 c-79 -95 -101 -126 -101 -143
0 -26 26 -11 50 28 14 23 65 84 113 137 80 87 187 232 187 253 0 31 -26 7 -74
-65z"/>
<path d="M3659 4728 c-6 -12 -11 -47 -11 -77 0 -47 4 -59 27 -78 32 -28 45
-29 78 -3 45 36 74 165 37 165 -8 0 -14 -7 -12 -15 6 -24 -19 -97 -40 -119
-15 -17 -23 -19 -38 -11 -16 9 -20 21 -20 70 0 32 5 62 10 65 11 7 4 25 -10
25 -5 0 -15 -10 -21 -22z"/>
<path d="M4084 4740 c-36 -14 -74 -69 -74 -105 0 -50 37 -75 109 -75 68 0 103
9 98 24 -2 7 -27 10 -69 8 -37 -2 -75 1 -87 7 -29 16 -27 56 5 88 22 22 31 24
65 19 46 -7 55 13 14 32 -30 14 -33 14 -61 2z"/>
<path d="M9897 4722 c-45 -49 -61 -157 -31 -200 13 -20 24 -23 63 -21 25 1 54
6 64 11 34 17 16 26 -39 21 -62 -7 -74 1 -74 49 0 21 8 30 38 45 20 10 36 24
35 31 -2 6 2 12 7 12 14 0 13 43 -2 58 -17 17 -42 15 -61 -6z m43 -30 c0 -12
-39 -46 -45 -41 -6 7 24 49 36 49 5 0 9 -4 9 -8z"/>
<path d="M3887 4723 c-4 -3 -7 -40 -7 -80 0 -65 2 -74 17 -71 10 2 17 12 17
23 -1 11 -2 46 -2 78 -2 53 -9 67 -25 50z"/>
<path d="M6123 4696 c-80 -71 -88 -173 -16 -197 43 -14 110 -6 131 15 24 23
10 28 -41 14 -68 -18 -102 -4 -102 42 0 34 1 35 44 37 68 4 115 58 91 103 -17
32 -63 26 -107 -14z m82 -6 c10 -15 -33 -50 -62 -50 l-27 0 29 30 c29 31 49
37 60 20z"/>
<path d="M6366 4711 c-43 -29 -68 -74 -64 -118 3 -33 7 -38 30 -41 15 -2 38 4
52 13 24 16 25 16 32 -9 3 -14 13 -26 21 -26 12 0 14 7 9 32 -4 18 -1 57 6 87
11 49 10 55 -7 67 -25 19 -45 17 -79 -5z m57 -17 c17 -17 -51 -114 -80 -114
-26 0 -14 51 21 86 33 33 47 40 59 28z"/>
<path d="M12396 4678 c-19 -29 -48 -65 -63 -81 l-29 -27 0 46 c1 43 -2 49 -31
65 -32 18 -33 18 -57 -4 -28 -25 -66 -93 -66 -117 0 -29 24 -48 67 -53 37 -4
48 -1 80 24 l37 30 13 -26 c16 -30 14 -30 64 -5 25 13 37 25 33 33 -4 7 -3 9
1 4 5 -4 19 3 32 15 l23 21 0 -24 c0 -28 9 -43 28 -47 10 -2 11 7 6 33 -4 25
-1 45 15 75 24 46 27 73 8 68 -15 -3 -138 -143 -132 -149 2 -2 -8 -4 -21 -4
-13 0 -24 5 -24 10 0 6 18 42 39 82 36 66 40 83 20 83 -4 0 -24 -24 -43 -52z
m-116 -52 c0 -34 -47 -88 -74 -84 -27 4 -25 38 5 79 27 38 69 41 69 5z"/>
<path d="M12962 4717 c-18 -22 -71 -145 -65 -151 15 -15 34 -3 47 29 14 32
102 102 114 91 2 -3 -3 -27 -13 -55 -12 -38 -14 -55 -5 -71 14 -26 30 -17 30
18 0 15 7 49 15 76 8 26 12 52 9 57 -7 12 -41 11 -66 -2 -17 -9 -23 -8 -30 5
-11 19 -22 20 -36 3z"/>
<path d="M13420 4702 c-57 -36 -100 -87 -100 -118 0 -33 35 -66 67 -62 35 4
43 28 10 28 -30 0 -51 23 -43 48 5 14 19 21 48 25 56 8 93 36 93 73 0 39 -21
41 -75 6z m36 -27 c-11 -8 -25 -15 -30 -15 -6 0 -2 7 8 15 11 8 25 15 30 15 6
0 2 -7 -8 -15z"/>
<path d="M6855 4706 c-84 -37 -122 -134 -69 -175 34 -27 164 -31 164 -6 0 12
-13 15 -61 15 -33 0 -69 5 -80 10 -30 17 -23 54 16 92 44 41 61 47 102 37 33
-7 54 5 37 21 -17 16 -79 20 -109 6z"/>
<path d="M10950 4708 c-38 -14 -61 -39 -86 -93 -43 -91 -24 -145 50 -145 45 0
83 20 72 38 -4 8 -16 7 -40 -3 -31 -13 -37 -13 -56 3 -18 15 -21 24 -15 50 5
23 12 32 26 32 45 0 109 51 109 86 0 30 -27 45 -60 32z m28 -40 c-5 -15 -67
-53 -74 -46 -2 3 7 17 20 31 26 28 61 37 54 15z"/>
<path d="M11247 4659 c-36 -39 -58 -56 -62 -49 -4 7 -3 15 2 19 14 9 15 71 1
71 -6 0 -24 -11 -38 -25 -25 -24 -27 -24 -26 -6 1 11 -3 21 -8 23 -9 3 -61
-114 -71 -164 -10 -45 16 -34 48 20 16 26 39 60 52 76 l23 29 -11 -47 c-8 -34
-7 -50 1 -58 9 -9 26 2 69 45 55 55 77 62 54 18 -28 -51 0 -146 32 -111 9 10
9 13 0 17 -17 6 -16 47 2 107 19 62 19 96 1 96 -8 0 -39 -27 -69 -61z"/>
<path d="M13212 4695 c-39 -32 -71 -97 -64 -130 5 -31 35 -52 77 -57 38 -4 43
25 5 30 -35 5 -50 20 -50 49 0 19 4 24 16 19 9 -3 33 -2 53 4 46 12 65 45 47
81 -16 33 -48 35 -84 4z m56 -27 c-2 -14 -13 -24 -30 -29 -34 -9 -35 -3 -6 28
27 29 40 29 36 1z"/>
<path d="M4908 4648 c-45 -81 -61 -84 -86 -16 -20 55 -42 75 -42 39 0 -27 26
-90 45 -111 13 -15 11 -22 -15 -64 -81 -128 -162 -328 -140 -350 14 -14 18 -6
35 57 18 71 99 231 159 317 41 59 106 172 106 185 0 3 -6 5 -14 5 -8 0 -30
-28 -48 -62z"/>
<path d="M10463 4688 c-21 -22 -53 -113 -47 -133 1 -5 5 -22 8 -37 5 -21 12
-28 30 -28 31 0 72 33 61 49 -4 8 -10 9 -14 3 -3 -5 -16 -12 -28 -16 -21 -7
-23 -4 -23 34 0 49 25 106 52 121 10 5 16 14 13 20 -10 15 -30 10 -52 -13z"/>
<path d="M8486 4679 c-34 -27 -56 -80 -56 -135 0 -32 4 -44 15 -44 11 0 15 11
15 40 0 82 42 137 94 124 30 -7 43 12 17 25 -30 16 -55 13 -85 -10z"/>
<path d="M8270 4593 c-30 -50 -35 -89 -16 -117 30 -46 89 -42 122 10 21 31 8
65 -33 92 -16 9 -28 23 -28 31 0 29 -23 21 -45 -16z m78 -81 c-2 -22 -8 -27
-32 -27 -37 0 -51 21 -37 58 11 27 11 27 41 12 25 -13 31 -22 28 -43z"/>
<path d="M9713 4129 c3 -10 2 -19 -3 -21 -8 -3 -55 -117 -65 -159 -5 -21 -15
-28 -56 -37 -28 -7 -59 -12 -69 -12 -10 0 -22 -5 -26 -11 -13 -22 13 -28 69
-15 46 11 57 11 53 1 -8 -23 -47 -150 -51 -167 -2 -10 2 -18 9 -18 14 0 26 24
46 95 22 76 43 125 50 120 14 -8 40 6 40 22 0 10 -6 12 -20 8 -19 -6 -18 1 15
90 40 110 41 122 19 122 -10 0 -14 -7 -11 -18z"/>
<path d="M9213 4097 c-5 -6 -18 -34 -28 -62 -10 -27 -42 -106 -72 -174 -30
-69 -53 -136 -51 -150 4 -33 28 -40 28 -8 0 13 22 76 49 138 67 157 102 257
92 264 -5 2 -13 -1 -18 -8z"/>
<path d="M5020 4003 c-12 -54 -23 -108 -26 -120 -4 -19 -12 -22 -61 -25 -78
-4 -86 -28 -9 -28 36 0 56 -4 56 -12 0 -6 -10 -42 -22 -80 -12 -37 -19 -70
-16 -74 14 -13 28 9 49 79 13 40 26 76 30 80 4 5 24 10 45 10 55 3 56 25 1 29
l-44 3 18 85 c33 157 33 150 16 150 -12 0 -21 -26 -37 -97z"/>
<path d="M8470 4033 c0 -11 6 -28 14 -39 14 -19 15 -19 22 0 8 20 -5 47 -24
54 -7 2 -12 -5 -12 -15z"/>
<path d="M6767 4013 c-8 -16 -19 -50 -26 -78 -33 -139 -62 -216 -84 -224 -26
-10 -47 -4 -47 14 0 7 20 38 45 68 24 30 41 57 38 61 -12 12 -34 6 -40 -11 -4
-10 -20 -31 -35 -48 -48 -50 -50 -96 -5 -116 29 -13 70 2 91 33 12 19 61 181
93 306 8 31 -14 28 -30 -5z"/>
<path d="M11814 3983 c-22 -66 -70 -186 -91 -226 -38 -76 -22 -88 36 -28 52
54 76 65 67 31 -3 -11 -8 -28 -11 -38 -7 -24 28 -57 51 -48 16 6 16 8 0 25
-12 13 -15 29 -10 64 7 53 -7 68 -46 47 -12 -6 -24 -10 -26 -7 -2 2 12 43 31
91 19 48 33 92 30 97 -10 15 -25 10 -31 -8z"/>
<path d="M3785 3973 c-22 -9 -57 -16 -77 -17 -41 0 -59 -21 -27 -31 18 -6 16
-10 -20 -54 -47 -56 -61 -88 -61 -141 0 -54 16 -85 63 -117 101 -70 258 2 297
136 14 51 -13 126 -55 154 -22 14 -35 30 -35 44 0 12 -9 27 -19 33 -24 12 -17
13 -66 -7z m87 -84 c43 -28 58 -56 58 -105 0 -69 -64 -144 -141 -164 -54 -15
-85 -6 -126 35 -55 55 -45 120 34 213 46 53 47 54 92 50 25 -3 63 -15 83 -29z"/>
<path d="M8624 3858 c-55 -52 -64 -58 -64 -39 0 38 -24 17 -32 -27 -4 -23 -34
-96 -67 -162 -63 -126 -71 -150 -47 -150 17 0 67 77 96 145 20 49 22 50 63 50
28 0 53 8 76 24 64 46 127 175 100 207 -24 29 -59 16 -125 -48z m100 10 c-9
-32 -34 -78 -57 -109 -23 -32 -89 -64 -112 -55 -14 5 -12 12 13 48 16 24 52
64 80 91 56 52 88 62 76 25z"/>
<path d="M7775 3898 c-11 -6 -42 -29 -68 -51 l-49 -40 2 29 c3 47 1 54 -19 54
-19 0 -131 -104 -131 -121 0 -6 -11 -27 -25 -47 -28 -40 -32 -62 -12 -62 7 0
31 30 54 68 23 37 55 80 72 96 l30 29 -6 -51 c-3 -29 -3 -52 1 -52 9 0 49 21
56 29 25 29 91 84 95 79 3 -3 -6 -31 -20 -62 -26 -59 -26 -100 1 -110 14 -6
18 3 14 41 -1 13 11 53 25 89 22 55 24 69 13 80 -10 10 -18 10 -33 2z m-195
-82 c0 -3 -4 -8 -10 -11 -5 -3 -10 -1 -10 4 0 6 5 11 10 11 6 0 10 -2 10 -4z"/>
<path d="M7975 3898 c-65 -36 -123 -124 -105 -158 12 -22 68 -28 87 -9 7 7 12
3 17 -15 3 -14 13 -26 22 -26 12 0 14 7 9 30 -5 22 -1 39 14 64 12 18 21 40
21 49 0 31 -19 26 -41 -10 -26 -45 -57 -72 -81 -73 -45 0 8 86 69 115 43 20
57 45 26 45 -10 0 -27 -6 -38 -12z"/>
<path d="M9275 3866 c-81 -45 -133 -149 -88 -174 17 -10 68 2 88 19 16 15 27
10 20 -10 -7 -23 12 -74 25 -66 5 3 10 24 10 46 0 22 7 56 15 76 17 41 7 65
-20 43 -17 -14 -21 -35 -3 -24 7 4 8 3 4 -5 -4 -6 -11 -9 -15 -6 -4 2 -23 -7
-41 -20 -37 -27 -70 -33 -70 -12 0 26 53 89 87 103 19 8 33 20 31 26 -6 16
-20 18 -43 4z"/>
<path d="M11579 3857 c-96 -50 -103 -58 -147 -146 -35 -71 -82 -204 -82 -233
0 -5 6 -8 14 -8 14 0 79 122 91 173 4 15 14 27 24 27 27 0 124 49 154 78 16
15 35 40 44 55 13 25 13 31 -2 53 -19 30 -40 30 -96 1z m71 -30 c0 -28 -40
-67 -95 -95 -64 -31 -84 -35 -81 -17 5 32 55 83 107 109 65 32 69 32 69 3z
m-230 -221 c0 -11 -19 -15 -25 -6 -3 5 1 10 9 10 9 0 16 -2 16 -4z"/>
<path d="M8133 3862 c-6 -4 -21 -27 -33 -52 -12 -25 -31 -57 -41 -72 -11 -14
-19 -31 -19 -37 0 -25 29 -7 88 54 81 85 95 85 86 1 -4 -40 -3 -66 4 -70 16
-10 21 5 28 80 5 59 4 72 -11 84 -15 13 -22 11 -57 -9 -38 -21 -39 -21 -29 -2
12 21 2 34 -16 23z"/>
<path d="M8808 3805 c-33 -72 -32 -107 3 -126 16 -8 31 -7 64 6 49 18 69 43
95 121 17 48 17 56 4 61 -18 7 -15 11 -39 -62 -15 -45 -28 -65 -54 -82 -19
-13 -39 -22 -45 -20 -21 7 -17 58 8 104 30 53 32 63 10 63 -9 0 -27 -26 -46
-65z"/>
<path d="M2978 3846 c-21 -15 -25 -70 -5 -64 6 3 19 16 27 31 18 32 4 52 -22
33z"/>
<path d="M11102 3814 c-15 -26 -38 -60 -51 -76 -22 -27 -23 -66 0 -53 6 4 30
38 55 76 30 48 50 69 64 69 11 0 20 7 20 15 0 10 -10 15 -30 15 -26 0 -35 -7
-58 -46z"/>
<path d="M12070 3844 c-43 -19 -70 -43 -70 -63 0 -8 12 -32 26 -53 15 -21 25
-41 21 -44 -3 -3 -33 -6 -68 -8 -36 -1 -64 -7 -66 -13 -6 -17 59 -27 114 -17
59 11 67 37 29 93 -14 20 -26 40 -26 44 0 9 76 47 95 47 20 0 14 24 -6 27 -8
1 -30 -4 -49 -13z"/>
<path d="M9809 3825 c-92 -48 -123 -117 -76 -170 17 -21 33 -27 76 -30 57 -5
126 8 137 26 11 19 -4 21 -61 9 -75 -16 -122 -6 -137 26 -14 31 0 44 48 44 45
0 97 49 92 87 -4 36 -22 38 -79 8z m51 -20 c0 -14 -48 -45 -69 -45 l-26 1 28
17 c15 9 27 19 27 22 0 3 9 6 20 7 11 1 20 0 20 -2z"/>
<path d="M4095 3828 c-55 -30 -122 -135 -140 -218 -4 -19 -18 -62 -32 -94 -20
-47 -22 -61 -11 -67 14 -9 41 18 33 31 -3 5 2 11 11 14 8 3 12 10 9 16 -3 5
-2 10 3 10 5 0 17 20 26 45 10 25 24 45 32 45 41 0 124 63 150 112 40 76 -12
144 -81 106z m63 -48 c4 -36 -36 -91 -86 -119 -24 -13 -45 -21 -47 -19 -6 6
13 77 28 107 14 28 65 62 87 59 8 -2 16 -15 18 -28z"/>
<path d="M4552 3815 c-45 -21 -56 -32 -77 -77 -27 -57 -31 -83 -15 -93 6 -4
21 17 34 48 28 61 76 107 113 107 17 0 24 5 21 17 -5 25 -18 25 -76 -2z"/>
<path d="M5214 3820 c-58 -37 -103 -124 -90 -174 10 -41 52 -50 147 -32 72 14
123 37 108 50 -2 2 -44 -5 -94 -15 -97 -20 -135 -15 -135 18 0 26 12 39 40 46
40 10 100 65 100 92 0 20 -17 35 -38 35 -4 0 -21 -9 -38 -20z m38 -32 c-6 -7
-25 -22 -44 -32 l-33 -19 29 32 c28 30 72 47 48 19z"/>
<path d="M10877 3799 c-64 -45 -82 -83 -52 -106 25 -18 44 -17 87 5 l35 18
-14 -50 c-14 -46 -27 -88 -48 -153 -6 -20 -14 -23 -62 -23 -43 0 -58 -5 -78
-24 -42 -42 -57 -134 -29 -174 35 -50 99 -9 149 96 29 61 31 63 62 57 41 -7
52 11 16 27 -15 7 -29 13 -31 14 -2 1 13 54 32 118 38 122 45 151 53 204 5 31
4 32 -29 32 -25 0 -51 -12 -91 -41z m83 -5 c0 -28 -56 -74 -90 -74 -29 0 -31
2 -19 17 18 21 89 73 101 73 4 0 8 -7 8 -16z m-105 -356 c-17 -54 -78 -138
-101 -138 -19 0 -26 33 -15 80 13 58 36 80 83 80 36 0 39 -2 33 -22z"/>
<path d="M6208 3801 c-36 -23 -50 -39 -59 -69 -21 -72 22 -106 79 -62 23 18
27 19 34 5 14 -25 24 -10 38 55 7 33 17 63 22 66 16 10 -13 34 -41 34 -15 0
-48 -13 -73 -29z m69 -33 c-17 -41 -83 -96 -98 -81 -16 16 9 63 50 90 50 34
64 31 48 -9z"/>
<path d="M8353 3767 c-36 -68 -40 -87 -20 -87 15 1 80 127 72 140 -11 19 -20
10 -52 -53z"/>
<path d="M11249 3810 c-43 -22 -71 -63 -67 -93 2 -17 11 -23 40 -25 20 -2 46
2 57 8 18 9 21 7 27 -15 9 -35 38 -34 31 1 -2 14 0 41 6 60 15 49 3 52 -43 10
-36 -33 -90 -49 -90 -28 0 22 83 78 100 67 5 -3 12 0 16 6 7 11 -12 29 -31 28
-5 0 -26 -8 -46 -19z"/>
<path d="M6406 3802 c-15 -9 -37 -36 -47 -60 -23 -53 -24 -62 -4 -62 8 0 15 4
15 9 0 4 11 25 25 45 14 21 22 43 18 53 -5 17 -5 17 12 2 15 -15 16 -22 5 -53
-12 -38 -11 -75 4 -79 5 -1 17 30 27 68 17 65 17 71 2 83 -21 15 -22 15 -57
-6z"/>
<path d="M4275 3783 c-79 -70 -99 -140 -47 -167 33 -17 78 -10 86 12 3 10 9
23 12 29 4 9 -3 12 -21 11 -15 -2 -30 -8 -32 -15 -6 -16 -29 -17 -38 -2 -4 5
-4 22 0 37 5 19 9 22 15 12 20 -32 114 39 108 82 -5 34 -45 35 -83 1z m55 -24
c0 -11 -4 -17 -10 -14 -5 3 -22 -2 -37 -12 l-28 -17 29 32 c35 37 46 40 46 11z"/>
<path d="M4694 3785 c-31 -21 -50 -71 -34 -90 14 -17 51 -20 66 -5 8 8 15 6
24 -5 21 -25 32 -17 25 18 -10 47 -21 54 -48 29 -27 -25 -37 -28 -37 -9 0 19
37 50 49 42 18 -11 34 5 20 21 -15 18 -39 18 -65 -1z"/>
<path d="M14316 3201 c-8 -12 3 -41 15 -41 5 0 9 5 9 10 0 17 46 11 63 -8 10
-10 17 -22 17 -25 0 -4 -23 -19 -52 -33 -120 -61 -163 -108 -156 -168 5 -44
28 -46 28 -3 0 48 34 86 112 127 35 18 71 40 81 48 43 38 -3 102 -74 102 -21
0 -40 -4 -43 -9z"/>
<path d="M6357 3193 c-4 -6 3 -48 14 -94 44 -172 1 -318 -105 -359 -38 -14
-56 2 -56 51 0 49 28 79 72 79 17 0 39 -7 48 -15 16 -14 18 -14 23 -1 10 25
-41 58 -77 50 -68 -14 -96 -50 -96 -125 0 -36 26 -79 48 -79 57 0 128 54 164
124 29 57 35 173 14 268 -17 77 -38 119 -49 101z"/>
<path d="M3844 3138 c16 -94 26 -208 21 -243 -16 -99 -83 -173 -133 -146 -48
26 -70 117 -52 221 16 99 16 105 1 105 -20 0 -43 -123 -38 -201 7 -96 55 -164
115 -164 59 0 127 90 138 180 7 60 -11 231 -27 261 -16 31 -32 23 -25 -13z"/>
<path d="M6066 3152 c-3 -6 -10 -52 -16 -103 -5 -52 -14 -118 -20 -148 -22
-117 -4 -228 31 -193 10 9 10 15 1 24 -15 15 -15 87 -2 159 9 46 23 151 32
238 3 24 -15 40 -26 23z"/>
<path d="M8195 3104 c-66 -40 -95 -63 -95 -76 0 -14 25 -9 46 10 20 17 98 62
108 62 13 0 4 -58 -14 -99 -20 -43 -189 -219 -290 -303 -35 -28 -42 -39 -33
-48 12 -13 38 1 113 63 19 16 50 35 68 43 l33 13 -2 -37 c-3 -47 5 -60 45 -77
48 -20 146 9 120 35 -8 8 -14 9 -18 1 -8 -13 -85 -14 -105 -2 -9 6 -12 24 -10
57 l4 49 -31 0 -32 0 75 78 c79 83 112 141 113 195 0 34 -15 72 -28 72 -4 0
-34 -16 -67 -36z"/>
<path d="M13574 3095 c8 -32 -17 -167 -45 -244 -15 -40 -17 -57 -9 -65 9 -8
23 2 53 37 23 26 45 47 49 47 4 0 4 -16 1 -35 -8 -52 8 -65 83 -65 38 0 64 4
64 11 0 5 5 7 10 4 6 -3 10 -2 10 3 0 14 -22 20 -44 12 -11 -3 -35 -4 -55 0
-35 6 -36 7 -33 46 4 59 -18 75 -60 44 -20 -15 -29 -18 -26 -8 14 34 39 180
36 205 -2 18 -10 29 -22 31 -16 3 -18 0 -12 -23z"/>
<path d="M10440 3015 l0 -95 -47 7 c-27 3 -68 12 -93 19 -29 9 -48 10 -54 4
-17 -17 6 -28 102 -48 51 -10 91 -20 89 -23 -2 -2 -7 -23 -11 -46 -5 -34 -3
-43 9 -43 8 0 17 11 20 25 3 14 7 36 10 50 5 22 10 25 50 25 24 0 47 5 50 10
8 13 -44 33 -72 27 -23 -4 -23 -2 -23 89 0 77 -3 94 -15 94 -12 0 -15 -17 -15
-95z"/>
<path d="M10620 3015 c0 -27 6 -30 29 -16 17 11 7 41 -14 41 -9 0 -15 -9 -15
-25z"/>
<path d="M11912 2975 c-11 -13 -25 -39 -33 -57 -7 -18 -17 -36 -23 -40 -14 -9
-19 -95 -6 -103 11 -7 35 40 50 102 12 47 48 96 56 76 8 -18 34 -16 34 1 0 14
-36 46 -51 46 -4 0 -16 -11 -27 -25z"/>
<path d="M4022 2964 c-30 -21 -28 -53 6 -100 52 -71 55 -81 32 -104 -24 -24
-72 -26 -90 -5 -16 19 -40 20 -40 1 0 -21 46 -46 85 -46 41 0 95 44 95 77 0
10 -18 44 -40 77 -22 32 -40 63 -40 67 0 15 45 21 74 9 15 -5 32 -7 37 -4 14
8 -11 36 -27 30 -7 -3 -16 -1 -19 4 -9 15 -48 12 -73 -6z"/>
<path d="M9983 2970 c-45 -18 -81 -142 -49 -169 13 -11 19 -11 31 -1 20 16 19
40 -1 40 -16 0 -15 14 8 73 10 27 22 32 66 28 26 -2 31 24 6 33 -20 8 -34 7
-61 -4z"/>
<path d="M5330 2950 c-11 -11 -20 -17 -20 -14 0 3 -12 -3 -27 -14 -16 -11 -38
-23 -51 -27 -25 -7 -25 -28 0 -33 8 -2 38 13 67 33 29 20 55 35 57 33 2 -3
-12 -29 -31 -59 -53 -84 -42 -128 23 -89 l31 19 18 -36 c23 -48 44 -60 79 -48
52 19 81 102 61 178 -4 15 -14 27 -22 27 -11 0 -13 -12 -8 -63 5 -57 3 -66
-18 -91 -30 -35 -54 -27 -70 22 -17 54 -23 57 -66 31 l-38 -24 23 35 c35 52
64 119 57 130 -10 16 -44 11 -65 -10z"/>
<path d="M12352 2954 c-25 -17 -25 -20 -7 -109 5 -24 2 -33 -15 -43 -16 -9
-25 -10 -34 -2 -10 7 -17 6 -26 -5 -11 -13 -11 -19 3 -32 13 -14 20 -14 46 -4
61 26 69 50 46 143 -6 24 -4 28 20 34 20 5 30 2 37 -10 14 -25 30 -19 26 12
-3 23 -8 27 -38 30 -21 2 -45 -4 -58 -14z"/>
<path d="M13107 2957 c-29 -13 -112 -141 -101 -158 11 -18 24 -8 48 39 37 73
56 92 98 95 42 2 48 11 19 27 -24 12 -29 12 -64 -3z"/>
<path d="M3072 2948 c-17 -17 -15 -38 4 -38 18 0 44 23 44 39 0 15 -33 14 -48
-1z"/>
<path d="M11282 2948 c-32 -16 -36 -46 -12 -102 24 -53 20 -96 -8 -96 -23 0
-42 19 -42 42 0 10 -7 18 -15 18 -23 0 -18 -46 7 -70 29 -27 73 -26 92 2 21
30 20 64 -5 118 -19 42 -19 45 -3 57 15 11 21 10 36 -3 16 -16 18 -15 24 1 5
12 1 23 -11 31 -22 16 -32 17 -63 2z"/>
<path d="M7513 2935 c-38 -27 -61 -165 -28 -165 11 0 15 11 15 39 0 84 43 133
91 102 24 -15 29 -14 29 4 0 33 -70 46 -107 20z"/>
<path d="M4248 2924 c-16 -8 -37 -32 -48 -54 -52 -101 -3 -160 121 -146 69 8
111 24 106 40 -3 6 -11 9 -18 7 -8 -2 -44 -8 -81 -14 -57 -9 -70 -8 -92 7 -16
10 -26 26 -26 41 0 22 4 25 38 25 27 0 45 7 60 23 27 29 28 41 2 67 -24 24
-27 24 -62 4z m47 -33 c7 -12 -26 -31 -51 -31 -16 0 -16 1 1 20 19 21 40 26
50 11z"/>
<path d="M5855 2922 c-44 -15 -50 -21 -58 -52 -9 -41 5 -90 27 -90 10 0 13 13
12 52 l-1 52 39 11 c39 11 56 28 39 38 -4 3 -30 -2 -58 -11z"/>
<path d="M6977 2925 c-8 -8 -17 -12 -20 -9 -9 9 -88 -36 -82 -46 9 -15 20 -12
77 15 28 14 53 23 55 22 1 -2 -14 -27 -33 -55 -51 -72 -36 -99 37 -68 11 5 19
-1 27 -19 14 -30 50 -46 74 -33 28 14 56 79 60 138 2 44 0 55 -12 55 -11 0
-17 -15 -21 -55 -7 -73 -26 -112 -53 -108 -13 2 -22 12 -24 25 -5 33 -26 47
-51 33 -27 -14 -26 -7 4 38 33 49 33 82 1 82 -14 0 -31 -7 -39 -15z"/>
<path d="M9613 2910 c-18 -10 -39 -33 -48 -50 -8 -16 -22 -30 -30 -30 -17 0
-20 -16 -6 -25 6 -3 6 -18 0 -37 -5 -18 -12 -74 -15 -125 -6 -83 -5 -93 10
-93 35 0 66 149 34 164 -10 5 -10 7 0 12 6 3 12 12 12 20 0 8 18 21 40 30 68
27 97 84 70 135 -13 24 -27 24 -67 -1z m47 -36 c0 -28 -19 -52 -50 -62 -42
-15 -46 1 -9 42 33 38 59 47 59 20z"/>
<path d="M12578 2901 c-49 -31 -71 -72 -57 -109 11 -28 50 -46 84 -38 29 7 29
32 -1 29 -51 -5 -70 39 -31 74 40 37 87 54 87 32 0 -10 -69 -44 -83 -41 -5 2
-7 -3 -4 -10 6 -18 57 -12 87 10 29 22 37 47 20 67 -19 23 -51 18 -102 -14z"/>
<path d="M12797 2896 c-30 -27 -38 -41 -35 -63 2 -18 10 -29 22 -31 23 -5 96
27 97 42 0 6 6 -13 12 -43 19 -86 36 -76 33 19 -2 44 -6 83 -10 87 -3 4 -21
-7 -39 -24 -62 -59 -117 -70 -62 -13 16 17 37 30 48 30 24 0 17 24 -9 28 -11
2 -35 -12 -57 -32z"/>
<path d="M13238 2904 c-79 -40 -99 -111 -43 -148 48 -31 185 -33 185 -3 0 9
-21 13 -74 12 -59 0 -78 4 -95 19 -29 27 -27 40 17 76 28 23 44 30 64 26 34
-7 48 12 23 31 -23 16 -21 17 -77 -13z"/>
<path d="M10138 2904 c-49 -26 -63 -78 -30 -107 21 -19 54 -22 82 -7 15 8 23
4 40 -20 12 -17 30 -30 41 -30 25 0 24 10 -6 39 -15 14 -25 34 -25 52 0 19 -5
29 -15 29 -8 0 -15 9 -15 20 0 10 -9 24 -19 30 -24 12 -20 13 -53 -6z m49 -44
c11 -16 9 -21 -9 -35 -28 -19 -47 -19 -55 0 -6 17 23 55 41 55 6 0 17 -9 23
-20z"/>
<path d="M12054 2876 c-46 -45 -55 -77 -31 -110 15 -21 71 -34 112 -26 45 8
32 25 -21 27 -49 3 -74 16 -74 40 0 22 67 85 85 81 27 -5 19 -22 -16 -34 -18
-6 -35 -16 -37 -22 -7 -22 21 -23 63 -3 48 23 58 47 29 75 -28 28 -63 19 -110
-28z"/>
<path d="M5655 2884 c-14 -15 -28 -39 -32 -52 -14 -56 32 -107 85 -93 39 11
48 33 34 83 -7 24 -14 52 -15 63 -3 31 -42 31 -72 -1z m53 -58 c17 -35 9 -58
-19 -54 -32 4 -43 28 -30 61 13 34 31 31 49 -7z"/>
<path d="M7294 2888 c-38 -29 -44 -38 -44 -69 0 -35 23 -52 62 -47 18 3 40 1
49 -5 20 -12 52 -2 46 16 -2 6 -9 11 -15 10 -6 -2 -16 6 -22 17 -10 19 -13 19
-33 5 -30 -21 -57 -19 -57 3 0 30 34 54 64 46 28 -7 36 12 14 34 -17 17 -31
15 -64 -10z"/>
<path d="M9768 2894 c-31 -16 -48 -43 -48 -73 0 -29 40 -68 78 -75 27 -5 32
-2 32 13 0 13 -7 19 -26 19 -14 0 -31 5 -37 11 -8 8 -5 11 12 11 64 0 103 57
65 94 -19 20 -41 20 -76 0z m58 -26 c10 -15 -24 -38 -55 -38 l-26 1 28 24 c31
28 42 31 53 13z"/>
<path d="M10711 2881 c-36 -34 -38 -45 -12 -87 34 -56 117 -70 141 -24 14 26
-7 78 -46 114 -36 33 -45 33 -83 -3z m75 -36 c28 -28 29 -68 3 -73 -8 -1 -27
7 -42 18 -39 31 -35 75 6 79 4 1 19 -10 33 -24z"/>
<path d="M10961 2891 c-12 -12 -27 -21 -35 -21 -10 0 -13 -13 -10 -52 3 -71
26 -77 44 -11 24 88 38 92 81 23 23 -37 37 -50 54 -50 34 0 41 18 12 29 -14 5
-35 29 -49 53 -28 51 -64 62 -97 29z"/>
<path d="M9317 2885 c-65 -48 -89 -139 -45 -169 40 -28 98 -14 136 32 20 25
14 73 -14 114 -28 40 -47 46 -77 23z m58 -51 c23 -23 15 -63 -17 -87 -23 -17
-33 -19 -55 -11 -30 10 -35 27 -20 59 26 54 61 69 92 39z"/>
<path d="M10579 2863 c-4 -45 -7 -62 -14 -85 -6 -22 -4 -28 9 -28 32 0 49 108
19 118 -7 2 -13 0 -14 -5z"/>
<path d="M9840 2764 c0 -10 7 -14 22 -12 32 5 35 28 4 28 -17 0 -26 -5 -26
-16z"/>
<path d="M8730 2725 c0 -3 5 -14 12 -25 11 -17 8 -24 -17 -50 -23 -24 -26 -33
-16 -43 10 -10 18 -5 42 23 32 38 38 84 13 94 -19 7 -34 8 -34 1z"/>
<path d="M5309 2563 c-19 -38 -34 -69 -35 -71 -1 -1 -29 -7 -63 -13 -42 -8
-61 -16 -61 -26 0 -12 10 -13 56 -7 l57 7 -7 -44 c-11 -74 40 -149 84 -121 11
6 27 12 35 12 8 0 15 7 15 15 0 8 -7 15 -15 15 -8 0 -15 -4 -15 -9 0 -14 -48
-10 -61 5 -6 7 -11 37 -11 66 1 65 16 78 89 78 39 0 53 4 53 14 0 18 -34 24
-80 14 -19 -4 -36 -5 -38 -3 -2 2 8 25 22 51 26 49 33 84 17 84 -4 0 -24 -30
-42 -67z"/>
<path d="M14165 2590 c-4 -6 -3 -14 0 -20 9 -15 35 -12 35 4 0 17 -27 29 -35
16z"/>
<path d="M6160 2575 c0 -11 7 -15 23 -13 12 2 22 8 22 13 0 6 -10 11 -22 13
-16 2 -23 -2 -23 -13z"/>
<path d="M3785 2530 c-3 -11 -3 -24 0 -30 3 -6 3 -19 0 -30 -5 -14 -19 -21
-56 -26 -34 -5 -49 -11 -49 -22 0 -11 9 -14 45 -10 25 3 45 5 45 4 0 -1 -5
-27 -10 -58 -11 -59 -4 -92 25 -121 19 -19 67 -22 96 -7 34 19 22 32 -24 25
-65 -10 -80 19 -62 123 7 44 25 56 70 50 36 -5 27 17 -10 27 -34 8 -37 11 -32
40 2 16 2 36 0 43 -7 19 -31 14 -38 -8z"/>
<path d="M5585 2541 c-8 -15 3 -31 21 -31 9 0 14 7 12 17 -4 20 -24 28 -33 14z"/>
<path d="M4990 2517 c-13 -7 -39 -31 -56 -54 -19 -24 -34 -37 -37 -30 -9 25
-20 -4 -28 -75 -11 -102 -36 -230 -50 -261 -14 -30 -8 -43 15 -34 17 7 32 53
48 154 l12 72 46 -5 c59 -7 107 18 138 71 31 54 26 119 -13 152 -30 26 -40 28
-75 10z m76 -71 c9 -52 -28 -113 -79 -128 -51 -15 -73 -2 -70 42 1 37 49 109
84 127 32 16 57 0 65 -41z"/>
<path d="M8728 2484 c-44 -23 -37 -57 21 -101 27 -21 54 -48 59 -60 9 -18 7
-22 -11 -27 -46 -12 -95 -7 -102 12 -7 16 -8 15 -14 -3 -15 -40 84 -62 134
-29 47 31 28 75 -60 141 -29 22 -29 23 -11 38 11 8 30 15 43 15 14 0 23 6 23
15 0 20 -46 19 -82 -1z"/>
<path d="M8922 2484 c-33 -23 -27 -48 23 -104 25 -28 45 -57 45 -65 0 -20 -35
-19 -66 1 -39 26 -54 2 -16 -25 30 -21 106 -29 116 -12 11 18 -15 75 -54 117
-45 49 -48 60 -20 69 24 8 40 -1 40 -21 0 -18 26 -18 33 0 3 7 -1 23 -9 35
-18 25 -60 28 -92 5z"/>
<path d="M6378 2472 c-27 -8 -48 -21 -48 -29 0 -17 18 -16 70 2 23 8 47 15 53
15 16 0 -47 -53 -121 -102 -89 -59 -82 -73 31 -71 100 1 130 8 107 24 -9 5
-45 7 -85 3 l-70 -6 41 28 c71 50 143 109 148 122 6 13 -33 33 -62 31 -9 0
-38 -8 -64 -17z"/>
<path d="M6632 2470 c-90 -55 -96 -178 -10 -193 45 -8 169 17 183 37 7 8 15
13 18 9 4 -3 7 -1 7 5 0 15 -5 15 -64 -3 -59 -18 -147 -20 -164 -3 -22 22 -14
43 18 45 77 5 134 61 107 103 -15 26 -53 25 -95 0z m68 -24 c0 -19 -19 -32
-57 -41 -22 -4 -33 -3 -33 4 0 13 58 51 78 51 6 0 12 -6 12 -14z"/>
<path d="M7579 2470 c-19 -10 -41 -26 -48 -34 -8 -9 -19 -16 -26 -16 -7 0 -15
-18 -18 -41 -3 -23 -10 -45 -15 -48 -6 -3 -9 -33 -9 -66 1 -33 -1 -95 -6 -137
-6 -66 -5 -78 7 -78 16 0 34 50 55 151 11 50 15 56 54 73 90 42 161 144 132
191 -17 28 -80 30 -126 5z m100 -49 c-16 -42 -112 -131 -141 -131 -2 0 -4 23
-5 51 -2 43 2 54 24 75 14 13 41 29 59 36 19 7 34 16 34 20 0 4 9 0 19 -9 16
-13 17 -21 10 -42z"/>
<path d="M4771 2471 c-25 -7 -29 -11 -56 -75 -12 -26 -15 -53 -12 -80 10 -73
67 -88 123 -32 28 28 34 42 34 76 0 23 -5 51 -12 63 -7 12 -12 29 -13 37 0 17
-28 22 -64 11z m49 -60 c18 -34 12 -80 -15 -106 -27 -28 -45 -31 -63 -13 -18
18 -15 54 8 98 23 44 52 53 70 21z"/>
<path d="M8407 2439 c-49 -41 -61 -71 -43 -108 19 -36 55 -51 137 -58 61 -5
66 -4 71 15 5 17 2 19 -14 13 -24 -9 -133 12 -153 29 -26 21 -18 57 20 85 35
27 65 30 73 8 2 -8 -16 -21 -42 -33 -44 -18 -56 -33 -37 -44 11 -7 84 28 100
48 18 22 6 62 -21 70 -40 10 -53 7 -91 -25z"/>
<path d="M5805 2427 c-30 -30 -35 -32 -35 -15 0 13 -6 18 -17 16 -11 -2 -17
-11 -15 -23 6 -37 3 -55 -12 -86 -15 -31 -13 -55 4 -44 5 3 30 37 55 75 26 39
49 70 51 70 3 0 2 -24 -1 -54 -9 -72 5 -79 58 -26 38 37 43 39 52 23 15 -27
62 -73 74 -73 18 0 12 26 -10 46 -12 10 -29 34 -38 53 -9 19 -21 36 -27 38 -7
2 -25 -14 -40 -36 -16 -22 -32 -41 -36 -41 -3 0 -4 20 -1 43 3 31 0 47 -11 56
-13 11 -21 8 -51 -22z"/>
<path d="M7789 2440 c-39 -20 -61 -60 -63 -113 -2 -49 16 -44 30 10 13 52 43
83 80 83 27 0 33 24 8 34 -19 7 -12 9 -55 -14z"/>
<path d="M8163 2445 c-61 -43 -78 -130 -32 -167 33 -27 119 -21 119 9 0 11 -9
13 -43 8 -34 -5 -48 -3 -61 11 -20 19 -16 66 8 93 7 9 11 23 8 31 -4 12 -2 13
9 3 17 -14 45 -1 35 16 -9 15 -17 14 -43 -4z"/>
<path d="M7910 2419 c-29 -18 -60 -65 -60 -92 0 -8 9 -26 21 -41 17 -21 29
-26 65 -26 37 0 51 6 76 30 26 27 30 36 25 67 -11 68 -69 97 -127 62z m90 -45
c14 -35 13 -41 -12 -64 -29 -27 -84 -27 -98 0 -8 15 -7 27 4 49 17 33 28 39
69 40 21 1 30 -5 37 -25z"/>
<path d="M6145 2386 c-4 -25 -4 -49 -1 -54 3 -6 0 -12 -6 -15 -10 -4 -11 -7 0
-18 7 -8 15 -9 21 -3 10 11 21 103 14 122 -9 25 -22 11 -28 -32z"/>
<path d="M3980 2400 c-33 -33 -23 -93 21 -115 39 -21 82 -19 110 4 23 19 23
21 9 48 -16 28 -85 82 -107 83 -7 0 -22 -9 -33 -20z m70 -35 c16 -8 34 -24 40
-34 8 -16 6 -21 -10 -26 -36 -11 -78 4 -84 31 -12 45 6 54 54 29z"/>
<path d="M5577 2389 c-17 -28 -28 -101 -17 -119 14 -22 30 0 30 41 0 22 5 50
11 61 17 31 -5 46 -24 17z"/>
<path d="M8594 2302 c3 -5 0 -13 -6 -15 -9 -4 -10 -6 -1 -6 17 -1 25 16 12 25
-7 4 -9 3 -5 -4z"/>
<path d="M9150 2257 c0 -20 9 -25 31 -20 28 8 24 33 -6 33 -14 0 -25 -6 -25
-13z"/>
</g>
</svg>
