<?xml version="1.0" standalone="no"?>
<!DOCTYPE svg PUBLIC "-//W3C//DTD SVG 20010904//EN"
 "http://www.w3.org/TR/2001/REC-SVG-20010904/DTD/svg10.dtd">
<svg version="1.0" xmlns="http://www.w3.org/2000/svg"
 width="1618.000000pt" height="1214.000000pt" viewBox="0 0 1618.000000 1214.000000"
 preserveAspectRatio="xMidYMid meet">

<g transform="translate(0.000000,1214.000000) scale(0.100000,-0.100000)"
fill="#000000" stroke="none">
<path d="M13169 11698 c-1 -2 -3 -13 -4 -25 -1 -13 -10 -42 -19 -66 -16 -42
-16 -42 -60 -39 -38 3 -51 -1 -89 -30 -57 -42 -77 -75 -77 -128 0 -35 6 -48
33 -74 l33 -30 -38 -74 c-21 -40 -38 -82 -38 -92 0 -26 19 -35 26 -13 3 10 23
54 45 98 38 77 42 82 83 93 82 22 132 120 91 179 -13 19 -11 28 20 101 19 44
35 85 35 91 0 9 -37 17 -41 9z m-62 -164 c-3 -3 -12 -4 -19 -1 -8 3 -5 6 6 6
11 1 17 -2 13 -5z m-22 -34 c4 -6 -11 -43 -33 -83 -30 -55 -43 -71 -58 -69
-49 8 -59 82 -18 131 21 25 34 31 64 31 21 0 42 -5 45 -10z m55 -58 c0 -16
-12 -39 -32 -59 -51 -52 -59 -39 -21 32 35 66 53 75 53 27z"/>
<path d="M15246 11577 c-31 -52 -42 -63 -60 -60 -16 3 -33 -7 -63 -40 -48 -52
-62 -102 -44 -153 10 -29 9 -39 -12 -81 -37 -73 -51 -122 -39 -136 10 -11 12
-17 12 -34 1 -23 20 26 20 50 0 15 12 56 27 91 l27 63 46 -5 c39 -3 51 0 77
22 59 50 68 132 19 181 l-24 24 44 66 c24 37 44 69 44 71 0 2 -8 4 -17 4 -11
0 -33 -25 -57 -63z m-93 -162 c-37 -75 -62 -88 -48 -25 7 31 59 100 76 100 5
0 -8 -34 -28 -75z m98 5 c10 -34 9 -43 -10 -74 -22 -36 -53 -51 -88 -44 -21 4
-22 0 25 95 39 79 55 84 73 23z"/>
<path d="M14375 11578 c-22 -5 -64 -12 -94 -16 -71 -9 -81 -32 -15 -32 30 0
54 6 66 17 10 9 18 11 18 5 0 -6 6 -10 13 -8 6 3 27 7 45 10 l33 6 -44 -63
c-24 -34 -46 -69 -50 -78 -4 -11 -24 -18 -66 -23 -45 -5 -61 -11 -61 -22 0
-13 9 -15 52 -9 47 7 50 6 43 -11 -20 -51 -25 -83 -15 -109 10 -26 38 -30 31
-4 -14 55 15 125 57 135 29 8 44 23 35 36 -2 5 -13 6 -24 3 -28 -9 -23 4 26
70 53 71 59 106 18 104 -16 -1 -46 -5 -68 -11z"/>
<path d="M13386 11553 c-3 -10 -10 -51 -16 -91 -5 -40 -14 -91 -20 -115 -14
-60 -12 -97 3 -97 13 0 26 63 53 240 3 25 11 48 17 51 12 9 0 29 -18 29 -7 0
-16 -8 -19 -17z"/>
<path d="M15608 11555 c-36 -20 -49 -46 -42 -84 5 -25 1 -37 -25 -66 -47 -54
-37 -106 24 -121 53 -13 60 -5 60 76 0 72 2 78 37 120 51 63 53 84 8 87 -19 2
-47 -4 -62 -12z m52 -23 c0 -17 -53 -63 -62 -54 -12 12 10 50 32 56 25 6 30 6
30 -2z m-58 -182 c1 -39 -6 -46 -37 -32 -31 14 -32 31 -3 67 18 24 22 25 30
11 5 -9 10 -30 10 -46z"/>
<path d="M13989 11523 c-47 -24 -69 -47 -56 -59 3 -3 25 6 50 20 52 31 97 35
97 9 0 -43 -89 -150 -188 -228 -28 -22 -53 -46 -56 -53 -12 -27 25 -23 61 7
38 31 38 31 41 9 7 -47 53 -61 93 -29 18 14 21 22 12 32 -6 8 -11 18 -11 24 0
5 -6 11 -12 13 -8 3 -10 -4 -6 -19 3 -13 3 -18 0 -11 -8 18 -24 4 -17 -15 4
-11 2 -14 -8 -11 -8 2 -15 18 -17 35 -2 24 6 41 39 79 88 101 120 175 87 201
-28 22 -59 21 -109 -4z"/>
<path d="M15383 11525 c10 -25 -53 -211 -77 -227 -16 -11 7 -30 26 -23 9 4 18
16 21 28 4 12 20 60 36 107 37 103 39 130 10 130 -14 0 -19 -5 -16 -15z"/>
<path d="M14875 11505 c-27 -13 -56 -24 -62 -25 -7 0 -13 -5 -13 -10 0 -21 28
-20 81 4 66 29 84 23 68 -22 -13 -37 -97 -103 -154 -122 -48 -15 -85 -47 -85
-72 0 -28 31 -22 86 17 65 46 74 45 74 -9 0 -47 19 -72 46 -62 18 7 13 32 -6
28 -10 -2 -11 9 -6 44 3 27 2 52 -4 59 -8 9 -1 20 25 39 64 49 89 137 43 150
-33 8 -38 7 -93 -19z"/>
<path d="M2986 11364 c-71 -18 -109 -43 -126 -84 -23 -55 -4 -88 80 -145 80
-54 105 -83 115 -130 15 -78 -138 -192 -202 -150 -32 21 -48 81 -34 130 10 38
8 55 -9 55 -25 0 -37 -155 -15 -191 15 -23 66 -40 103 -33 111 20 202 113 187
192 -12 62 -32 89 -107 138 -109 70 -118 89 -73 143 19 22 40 33 82 41 67 14
74 8 66 -62 -5 -38 -3 -49 11 -54 22 -8 45 13 67 61 24 51 23 61 -1 85 -23 23
-59 24 -144 4z m128 -32 c2 -4 -4 -26 -15 -47 -13 -26 -18 -31 -14 -15 2 14 5
35 5 48 0 21 14 30 24 14z"/>
<path d="M13490 11282 c0 -6 -3 -18 -6 -27 -5 -13 -2 -16 17 -13 29 4 34 41 7
46 -10 2 -18 -1 -18 -6z"/>
<path d="M14504 11269 c-3 -6 -2 -15 4 -21 13 -13 32 -2 32 18 0 16 -26 19
-36 3z"/>
<path d="M3991 11173 c-13 -54 -38 -135 -56 -181 -31 -77 -36 -112 -14 -112 4
0 15 13 24 28 20 34 80 76 94 67 6 -3 11 -22 11 -41 0 -24 4 -34 13 -32 16 6
21 62 7 89 -12 21 -39 23 -82 4 -17 -7 -17 -4 -3 41 20 62 55 205 55 222 0 6
-6 12 -13 12 -8 0 -22 -36 -36 -97z"/>
<path d="M2123 11188 c-9 -12 -21 -43 -37 -91 -5 -16 -8 -17 -35 -2 -17 8 -41
15 -54 15 -38 0 -87 -21 -87 -36 0 -20 60 -44 110 -44 66 0 46 -46 -49 -110
-53 -36 -65 -60 -31 -60 11 0 20 5 20 11 0 7 10 9 24 5 20 -5 29 0 43 21 10
14 33 42 52 60 39 39 55 33 66 -25 15 -87 25 -112 45 -112 26 0 27 49 1 106
-10 23 -22 56 -26 73 -6 30 -5 32 40 52 38 17 44 23 35 35 -9 10 -17 11 -30 4
-38 -21 -50 -13 -50 34 0 68 -15 93 -37 64z m3 -116 c-11 -10 -15 4 -8 28 l7
25 3 -23 c2 -13 1 -26 -2 -30z m-96 -2 c11 -7 6 -10 -22 -10 -20 0 -40 5 -43
10 -8 13 45 13 65 0z"/>
<path d="M4252 11187 c-7 -7 -7 -18 -2 -27 7 -11 11 -11 24 -1 9 8 16 20 16
27 0 18 -24 18 -38 1z"/>
<path d="M6885 11191 c-3 -6 -4 -15 -1 -19 8 -14 -24 -150 -55 -230 -47 -122
-39 -130 51 -47 61 56 88 70 75 38 -25 -59 -29 -93 -13 -110 14 -13 20 -14 32
-3 21 16 20 30 0 30 -10 0 -14 6 -11 14 48 125 22 161 -63 89 -40 -35 -43 -36
-36 -13 44 138 61 249 39 257 -6 2 -14 -1 -18 -6z"/>
<path d="M5300 11165 c0 -8 9 -15 20 -15 11 0 20 7 20 15 0 8 -9 15 -20 15
-11 0 -20 -7 -20 -15z"/>
<path d="M7636 11096 c-14 -19 -31 -46 -38 -60 -8 -19 -16 -25 -27 -20 -9 4
-31 9 -48 12 -48 6 -44 -24 6 -47 l39 -17 -28 -45 c-15 -24 -37 -52 -49 -61
-23 -19 -19 -48 8 -48 9 0 21 10 26 22 10 23 100 88 121 88 7 0 22 -21 35 -47
25 -50 43 -63 52 -40 5 14 -4 38 -33 84 -13 20 -12 24 5 37 11 8 36 19 56 25
45 14 69 38 46 47 -9 3 -25 0 -38 -6 -12 -7 -35 -16 -51 -21 l-30 -8 6 53 c6
42 4 57 -9 70 -9 9 -18 16 -20 16 -1 0 -14 -15 -29 -34z m31 -33 c-3 -10 -8
-30 -11 -45 -7 -30 -36 -39 -36 -12 0 16 37 74 46 74 3 0 3 -8 1 -17z m-47
-113 c0 -5 -9 -14 -20 -20 -22 -12 -27 -1 -8 18 14 14 28 16 28 2z"/>
<path d="M3654 11060 c-12 -5 -25 -13 -29 -19 -3 -6 -16 -11 -28 -11 -18 0
-25 -11 -43 -70 -20 -65 -18 -90 6 -75 5 3 14 23 20 45 12 44 67 98 111 107
16 3 29 12 29 19 0 16 -33 17 -66 4z"/>
<path d="M3235 11031 c-55 -34 -80 -72 -83 -127 -4 -68 23 -104 77 -104 45 0
82 23 65 40 -8 8 -15 7 -26 -4 -30 -30 -88 4 -88 51 0 18 6 23 25 23 34 0 82
25 95 49 16 31 12 69 -9 81 -25 13 -21 13 -56 -9z m45 -35 c0 -16 -26 -46 -40
-46 -5 0 -15 -3 -24 -6 -26 -10 -19 22 10 45 31 24 54 27 54 7z"/>
<path d="M3739 11016 c-72 -49 -100 -130 -57 -160 38 -27 172 7 143 36 -3 3
-28 -1 -56 -8 -57 -15 -79 -10 -79 17 0 28 68 98 104 107 17 5 30 12 29 18 -5
19 -49 14 -84 -10z"/>
<path d="M4554 11006 c-26 -26 -35 -42 -32 -62 5 -44 32 -53 80 -26 23 12 43
20 46 17 2 -2 7 -45 10 -95 l5 -90 -47 0 c-116 0 -188 -98 -140 -193 20 -40
54 -77 69 -77 21 0 53 43 97 130 32 63 48 84 61 82 21 -4 23 24 2 32 -12 4
-15 25 -16 93 -1 48 -8 117 -17 153 -16 62 -18 65 -50 68 -26 3 -39 -3 -68
-32z m76 -5 c0 -23 -15 -43 -41 -56 -35 -19 -39 -19 -39 0 0 20 45 65 65 65 8
0 15 -4 15 -9z m20 -298 c0 -28 -86 -178 -103 -181 -18 -4 -57 64 -57 98 0 52
59 100 123 100 29 0 37 -4 37 -17z"/>
<path d="M3385 11001 c-60 -36 -82 -100 -43 -125 13 -8 24 -5 48 13 l32 23 -4
-39 c-3 -33 0 -38 19 -41 21 -3 22 -1 17 40 -3 27 0 59 10 86 15 43 15 43 -10
52 -33 13 -34 13 -69 -9z m39 -34 c-23 -40 -74 -74 -74 -50 0 13 63 72 72 67
4 -3 5 -11 2 -17z"/>
<path d="M4307 10990 c-14 -16 -32 -30 -40 -30 -12 0 -32 -56 -40 -110 -5 -38
27 -8 65 60 30 52 50 76 65 78 26 4 32 -17 20 -76 -5 -24 -6 -46 -2 -50 11
-11 33 27 40 69 14 83 -56 121 -108 59z"/>
<path d="M5373 10988 c-21 -18 -32 -25 -24 -15 10 12 11 21 4 28 -14 14 -24 1
-68 -84 -39 -75 -42 -87 -20 -87 8 0 15 4 15 8 0 12 99 121 119 132 17 8 16 6
0 -43 -23 -67 -23 -90 0 -111 24 -22 81 1 81 33 0 14 -17 14 -25 1 -8 -13 -45
-13 -45 -1 0 5 9 38 20 73 11 34 20 71 20 81 0 27 -35 20 -77 -15z"/>
<path d="M6048 11010 c-26 -16 -58 -74 -58 -107 0 -42 21 -57 66 -48 l37 6 -7
-54 c-9 -77 -13 -84 -54 -92 -60 -11 -89 -32 -102 -71 -23 -68 7 -175 52 -190
32 -10 50 18 83 131 l29 96 39 -7 c63 -10 38 24 -30 41 -1 0 8 45 18 100 31
158 32 165 20 165 -6 0 -11 6 -11 14 0 25 -50 34 -82 16z m51 -34 c6 -7 8 -26
5 -44 -5 -23 -14 -34 -37 -41 -42 -15 -47 -14 -47 13 0 24 43 86 60 86 4 0 13
-6 19 -14z m-44 -316 c-18 -80 -51 -165 -65 -165 -21 0 -42 72 -35 117 7 41
20 55 62 68 43 13 45 12 38 -20z"/>
<path d="M7140 11013 c-25 -9 -50 -35 -50 -52 0 -8 18 -34 40 -56 36 -37 39
-43 26 -55 -21 -16 -86 -5 -86 15 0 20 -26 19 -34 -1 -9 -23 -9 -24 29 -40 48
-20 91 -18 115 6 29 29 25 45 -22 90 -47 46 -43 61 16 63 27 1 36 5 34 16 -3
17 -42 24 -68 14z"/>
<path d="M4155 10945 c-13 -47 -15 -69 -7 -77 11 -11 35 -2 27 12 -3 5 2 30
11 55 15 46 14 75 -5 75 -5 0 -17 -29 -26 -65z"/>
<path d="M5241 10964 c-35 -79 -46 -123 -33 -136 8 -8 13 -6 18 8 4 10 18 46
31 79 29 72 32 87 16 92 -6 2 -21 -17 -32 -43z"/>
<path d="M6670 10985 c-13 -14 -29 -25 -36 -25 -14 0 -50 -67 -41 -76 7 -7
-17 -89 -49 -172 -24 -59 -24 -87 -2 -80 9 3 30 53 66 160 13 41 19 47 38 42
65 -16 149 86 124 152 -13 34 -68 34 -100 -1z m70 -29 c0 -38 -10 -54 -47 -77
-36 -23 -40 -23 -43 1 -4 28 0 38 26 69 32 38 64 41 64 7z"/>
<path d="M6239 10975 c-34 -18 -81 -117 -73 -150 9 -35 34 -32 34 4 0 70 48
131 102 131 18 0 28 5 28 15 0 19 -55 19 -91 0z"/>
<path d="M6399 10945 c-50 -27 -76 -94 -47 -123 19 -19 44 -14 76 13 36 30 38
31 45 4 3 -12 11 -19 17 -17 14 4 20 97 8 104 -5 3 -31 -15 -59 -40 -49 -44
-69 -50 -69 -22 0 19 47 59 72 61 28 2 30 29 3 32 -11 2 -32 -4 -46 -12z"/>
<path d="M3849 10405 c-86 -72 -151 -198 -166 -324 -7 -61 -24 -73 -92 -64
-32 4 -41 2 -41 -10 0 -17 75 -32 104 -21 34 13 -11 -57 -72 -113 -46 -42 -54
-53 -40 -58 28 -11 105 61 136 127 17 37 33 58 44 58 21 0 32 16 22 32 -5 7
-11 5 -21 -7 -12 -17 -13 -16 -13 16 0 57 29 159 62 220 35 67 117 149 148
149 27 0 21 24 -7 28 -11 2 -38 -12 -64 -33z"/>
<path d="M4329 10380 c-1 -8 -1 -22 0 -30 2 -17 -43 -213 -60 -267 -9 -28 -15
-33 -42 -33 -92 0 -161 -116 -109 -180 30 -37 66 -21 113 52 40 63 67 140 112
328 25 104 25 105 6 125 -15 15 -19 16 -20 5z m-98 -399 c-11 -21 -32 -53 -47
-70 -21 -25 -29 -29 -40 -20 -43 36 17 128 84 129 l22 0 -19 -39z"/>
<path d="M1722 10293 c-7 -38 -32 -135 -56 -217 -25 -82 -43 -153 -40 -158 11
-18 25 -5 63 61 37 63 97 128 108 117 2 -2 -5 -32 -16 -67 -23 -69 -27 -114
-10 -124 17 -11 59 4 59 21 0 11 -6 15 -20 11 -27 -7 -26 8 6 99 14 41 22 78
19 84 -16 27 -80 1 -125 -50 -18 -21 -21 -22 -15 -5 54 164 77 295 53 295 -11
0 -18 -20 -26 -67z"/>
<path d="M6135 10344 c-18 -13 -20 -26 -20 -127 0 -100 -3 -118 -27 -169 -18
-38 -40 -67 -69 -87 -47 -34 -70 -38 -89 -16 -11 13 -10 20 1 41 19 37 83 84
120 89 38 5 46 12 32 26 -24 24 -84 0 -139 -56 -59 -59 -68 -91 -34 -125 27
-27 62 -25 108 4 51 33 77 63 104 121 19 42 23 67 23 159 1 91 4 110 18 121
14 10 15 15 5 23 -9 7 -19 6 -33 -4z"/>
<path d="M2961 10341 c-8 -5 -11 -16 -8 -25 4 -9 -13 -48 -43 -98 -28 -45 -50
-85 -50 -89 0 -8 -93 -32 -129 -33 -13 -1 -26 -6 -28 -13 -6 -18 33 -25 78
-13 22 6 43 9 45 7 3 -2 -4 -28 -16 -56 -38 -97 -20 -151 51 -151 42 0 56 9
75 45 18 35 18 35 -5 35 -22 0 -52 -30 -30 -30 9 -1 8 -4 -4 -11 -10 -6 -30
-9 -45 -7 -25 3 -27 7 -26 43 1 22 13 66 27 98 24 54 28 57 61 57 25 0 36 4
36 15 0 9 -9 15 -25 15 -14 0 -25 4 -25 8 0 5 20 40 45 79 64 99 71 159 16
124z"/>
<path d="M9601 10309 c-5 -13 -17 -49 -26 -79 -9 -30 -44 -106 -76 -168 -33
-62 -57 -117 -54 -123 12 -18 26 -9 40 25 16 39 76 92 110 99 43 8 47 -5 24
-78 -22 -72 -16 -115 16 -115 18 0 18 5 5 29 -6 13 -3 38 10 82 26 85 25 94
-11 109 -26 11 -36 11 -64 -3 l-33 -16 33 72 c40 89 60 166 46 180 -7 7 -13 2
-20 -14z"/>
<path d="M10130 10302 c-57 -13 -76 -21 -78 -35 -3 -14 1 -18 15 -13 94 28
190 34 199 12 10 -25 -19 -68 -76 -114 -162 -128 -210 -186 -210 -249 0 -39
35 -82 53 -64 7 7 6 16 -6 29 -9 10 -17 27 -17 38 0 45 88 144 184 208 63 42
95 82 103 129 10 64 -49 85 -167 59z"/>
<path d="M7167 10243 c-10 -10 -8 -43 2 -43 20 0 41 13 41 25 0 7 -7 16 -16
19 -19 7 -19 7 -27 -1z"/>
<path d="M8930 10173 c-22 -18 -35 -23 -38 -15 -2 6 -10 12 -17 12 -10 0 -12
-9 -8 -34 3 -22 -2 -49 -16 -81 -25 -56 -26 -75 -7 -75 8 0 26 30 42 71 32 82
73 124 111 114 20 -5 24 -2 21 12 -5 30 -51 28 -88 -4z"/>
<path d="M9347 10165 c-20 -14 -37 -29 -37 -34 0 -4 -11 -13 -24 -19 -17 -8
-30 -26 -40 -59 -8 -26 -23 -69 -35 -94 -11 -25 -22 -55 -24 -65 -2 -10 -11
-37 -21 -59 -22 -51 -26 -110 -8 -110 8 0 28 43 49 105 19 58 36 106 38 108 1
1 14 -2 28 -7 68 -26 186 100 187 200 0 64 -47 78 -113 34z m83 -32 c-1 -65
-82 -173 -130 -173 -33 0 -36 53 -5 103 31 48 90 97 117 97 13 0 18 -7 18 -27z"/>
<path d="M3860 10145 c0 -8 9 -15 20 -15 11 0 20 7 20 15 0 8 -9 15 -20 15
-11 0 -20 -7 -20 -15z"/>
<path d="M8577 10120 c-60 -38 -76 -69 -53 -105 13 -20 25 -25 57 -25 22 0 49
5 60 10 18 10 19 7 21 -50 4 -136 9 -123 -47 -134 -37 -8 -53 -17 -62 -36 -18
-35 -16 -89 5 -130 35 -70 81 -45 114 63 l21 69 53 -6 c33 -4 55 -2 59 5 12
19 -3 24 -80 28 l-30 1 1 118 c0 64 4 132 9 151 7 29 4 36 -16 52 -34 26 -58
24 -112 -11z m79 -36 c-1 -23 -9 -41 -21 -50 -41 -30 -110 -7 -82 28 14 19 77
58 93 58 6 0 10 -16 10 -36z m-4 -328 c-5 -37 -28 -90 -45 -105 -13 -10 -17
-6 -27 24 -15 46 -4 94 23 104 37 14 52 7 49 -23z"/>
<path d="M5773 10115 c-28 -20 -73 -95 -73 -122 0 -52 74 -70 116 -28 23 23
25 31 21 92 -3 58 -6 68 -23 71 -10 1 -29 -4 -41 -13z m33 -60 c10 -40 -3 -74
-32 -81 -49 -12 -55 26 -13 80 26 33 37 33 45 1z"/>
<path d="M1924 10102 c-3 -9 -16 -41 -30 -70 -31 -67 -31 -97 1 -118 33 -22
78 -10 120 31 38 39 50 80 36 118 -11 28 -31 39 -89 50 -26 5 -34 3 -38 -11z
m99 -53 c13 -48 -41 -113 -89 -107 -24 2 -29 7 -27 28 0 14 11 42 23 63 18 31
28 37 55 37 25 0 34 -5 38 -21z"/>
<path d="M2335 10110 c-3 -5 1 -20 10 -34 10 -15 15 -40 13 -68 -2 -35 -8 -45
-31 -56 -46 -22 -79 3 -82 62 -1 23 -27 14 -66 -21 l-42 -38 42 65 c26 40 38
67 32 73 -12 12 -101 -13 -101 -29 0 -19 11 -23 37 -13 22 8 21 4 -17 -50 -23
-33 -39 -64 -35 -70 11 -19 41 -12 80 19 l38 30 18 -29 c21 -34 46 -44 86 -35
50 12 73 42 73 96 0 69 -35 131 -55 98z"/>
<path d="M4895 10113 c-54 -13 -115 -85 -115 -136 0 -51 66 -66 120 -27 27 19
28 19 23 1 -5 -21 26 -34 48 -20 11 6 11 11 1 21 -17 17 -15 43 8 88 25 49 25
60 1 60 -11 0 -23 5 -26 10 -6 10 -25 11 -60 3z m50 -43 c8 -26 -8 -54 -49
-85 -37 -28 -86 -34 -86 -10 0 51 55 102 122 114 4 0 9 -8 13 -19z"/>
<path d="M6310 10112 c-58 -20 -120 -103 -120 -161 0 -53 71 -89 148 -76 48 8
70 21 57 34 -7 6 -24 6 -50 -1 -57 -14 -119 7 -123 42 -3 23 1 25 36 26 80 2
126 52 100 109 -12 27 -26 34 -48 27z m20 -61 c0 -25 -5 -30 -40 -39 -21 -5
-42 -7 -45 -4 -8 8 56 72 72 72 8 0 13 -12 13 -29z"/>
<path d="M9065 10110 c-48 -19 -91 -92 -74 -123 15 -25 70 -21 113 8 33 23 36
23 36 5 0 -20 16 -35 23 -23 3 5 6 33 8 63 2 49 1 55 -17 53 -10 -1 -23 5 -27
13 -9 15 -31 17 -62 4z m44 -34 c16 -19 4 -44 -30 -61 -63 -33 -81 -3 -28 46
35 33 42 35 58 15z"/>
<path d="M5487 10038 c-19 -40 -31 -77 -26 -82 5 -5 33 17 67 52 73 78 94 81
52 7 -34 -59 -36 -98 -6 -103 15 -3 18 0 13 19 -4 15 4 40 23 75 39 67 39 94
2 94 -15 0 -38 -7 -50 -16 -22 -15 -23 -15 -20 1 2 10 -2 20 -9 22 -7 3 -26
-26 -46 -69z"/>
<path d="M7899 10070 c-33 -27 -69 -83 -69 -108 0 -6 7 -18 16 -26 14 -14 19
-14 52 0 20 8 49 27 65 41 l27 27 0 -36 c0 -40 24 -72 47 -64 8 3 17 6 19 6
13 0 1 20 -16 25 -18 6 -20 15 -20 80 0 67 -2 73 -22 79 -43 11 -63 6 -99 -24z
m71 -18 c0 -35 -61 -92 -99 -92 -18 0 2 42 36 76 37 37 63 44 63 16z"/>
<path d="M7305 10060 c-16 -11 -42 -36 -57 -57 -16 -20 -28 -33 -28 -29 0 5
-6 4 -13 -2 -16 -14 -16 -64 0 -69 7 -3 21 13 31 34 31 61 112 133 112 100 0
-7 -7 -35 -16 -60 -15 -45 -14 -77 3 -77 12 0 45 123 41 151 -4 31 -34 35 -73
9z"/>
<path d="M3052 10053 c-35 -30 -72 -94 -72 -124 0 -35 39 -64 74 -55 36 9 87
55 102 93 15 34 5 80 -19 95 -21 13 -64 9 -85 -9z m62 -19 c21 -8 21 -53 0
-82 -8 -12 -29 -29 -46 -38 -27 -14 -32 -14 -46 -1 -13 13 -13 20 -2 47 7 17
26 42 42 55 33 28 31 27 52 19z"/>
<path d="M3954 10026 c-50 -60 -94 -123 -94 -134 0 -29 29 -6 75 60 28 39 56
73 63 76 17 5 15 -39 -4 -88 -12 -29 -14 -44 -6 -52 14 -14 40 38 49 97 10 79
-34 100 -83 41z"/>
<path d="M7090 10018 c0 -26 -35 -88 -49 -88 -14 0 -7 -30 9 -40 10 -6 22 9
47 58 38 76 41 92 13 92 -14 0 -20 -7 -20 -22z"/>
<path d="M3815 10018 c-44 -120 -52 -158 -34 -158 13 0 41 65 44 103 1 15 5
30 9 34 10 10 7 33 -4 33 -6 0 -13 -6 -15 -12z"/>
<path d="M9974 9609 c-4 -8 1 -9 17 -4 22 7 22 6 10 -9 -19 -23 1 -45 24 -26
22 18 19 37 -7 44 -32 8 -36 8 -44 -5z"/>
<path d="M15333 9486 c3 -8 0 -19 -7 -25 -8 -6 -26 -45 -42 -86 -32 -83 -31
-83 -140 -77 -29 2 -43 -2 -47 -12 -5 -11 6 -16 47 -21 30 -4 63 -4 75 0 26 8
26 3 1 -70 -11 -32 -20 -68 -20 -81 0 -26 18 -42 24 -22 2 7 14 50 27 95 23
78 26 82 54 85 35 3 40 22 8 26 -13 2 -23 5 -23 6 0 1 12 31 26 67 38 92 46
129 27 129 -9 0 -13 -6 -10 -14z"/>
<path d="M2810 9422 c-57 -36 -94 -89 -123 -178 l-24 -69 -42 3 c-31 3 -41 0
-41 -12 0 -9 11 -16 33 -18 30 -3 32 -5 29 -38 -1 -19 -7 -39 -12 -44 -14 -14
-12 -58 2 -54 6 2 21 31 34 64 15 40 28 60 40 62 50 8 64 14 64 27 0 10 -9 12
-36 8 l-36 -6 7 34 c24 113 120 227 183 217 10 -2 17 3 17 12 0 26 -48 22 -95
-8z"/>
<path d="M2290 9420 c-33 -21 -11 -23 272 -32 102 -3 139 12 58 23 -89 12
-315 19 -330 9z"/>
<path d="M6814 9388 c1 -26 -10 -71 -27 -113 l-28 -70 -42 0 c-67 -1 -147 -73
-147 -132 0 -61 72 -84 115 -37 100 108 200 380 144 392 -13 2 -16 -6 -15 -40z
m-74 -216 c0 -14 -74 -114 -92 -126 -14 -8 -22 -7 -34 6 -23 23 -5 64 43 101
34 25 83 37 83 19z"/>
<path d="M12227 9318 c-53 -164 -76 -253 -68 -267 13 -20 27 8 50 99 12 47 35
123 52 169 28 79 31 111 11 111 -4 0 -24 -51 -45 -112z"/>
<path d="M15456 9423 c-12 -12 -6 -43 9 -43 8 0 15 9 15 19 0 21 -13 34 -24
24z"/>
<path d="M5855 9376 c10 -52 -20 -134 -81 -224 -60 -87 -58 -119 4 -61 51 49
102 89 112 89 4 0 2 -17 -6 -37 -21 -59 -17 -89 13 -113 31 -24 88 -24 88 0 0
10 -8 14 -22 12 -28 -4 -63 14 -63 33 0 8 9 42 21 76 27 78 17 91 -44 57 l-45
-25 26 51 c33 65 38 168 9 174 -16 3 -17 -1 -12 -32z"/>
<path d="M10888 9359 c-41 -49 -44 -51 -85 -46 -23 2 -45 2 -48 -1 -10 -10 18
-32 41 -32 28 0 28 3 9 -50 -19 -53 -11 -105 18 -125 27 -19 61 -19 77 0 7 8
19 15 26 15 8 0 14 7 14 15 0 20 -46 20 -58 -1 -14 -24 -49 -9 -57 25 -4 17 1
44 14 73 l19 45 96 13 c68 9 96 17 96 26 0 16 -41 18 -110 4 -25 -4 -46 -7
-48 -6 -1 2 14 19 34 39 32 31 39 57 14 57 -5 0 -28 -23 -52 -51z"/>
<path d="M3727 9394 c-4 -4 -7 -24 -7 -45 0 -21 -12 -69 -26 -107 -24 -65 -28
-71 -59 -76 -19 -4 -58 -4 -86 0 -41 6 -51 4 -47 -7 5 -16 71 -32 116 -27 18
2 31 2 29 -1 -9 -16 -57 -122 -57 -126 0 -3 7 -5 15 -5 9 0 27 27 44 64 29 65
66 97 102 89 14 -3 11 -14 -17 -71 -37 -73 -41 -92 -20 -92 7 0 30 29 51 65
37 63 95 115 128 115 22 0 21 -9 -7 -95 -14 -40 -20 -74 -15 -79 14 -15 24 3
48 81 27 92 27 111 -3 125 -20 9 -31 7 -61 -11 -20 -11 -38 -21 -40 -21 -2 0
7 26 20 59 25 61 37 160 20 161 -5 0 -16 -27 -22 -60 -7 -34 -21 -81 -32 -106
-18 -40 -23 -44 -55 -44 -20 0 -36 4 -36 8 0 4 9 32 19 62 31 89 30 175 -2
144z"/>
<path d="M14673 9384 c-3 -8 1 -22 9 -30 12 -12 16 -12 33 1 20 15 20 15 1 30
-25 19 -35 19 -43 -1z"/>
<path d="M11720 9369 c0 -11 -27 -86 -60 -167 -44 -106 -57 -149 -49 -156 8
-8 14 -5 23 8 37 64 122 136 160 136 13 0 12 -7 -4 -42 -23 -52 -26 -104 -5
-111 18 -8 28 8 20 33 -3 10 4 41 16 69 26 61 21 81 -21 81 -35 0 -65 -13 -97
-43 -30 -27 -29 -21 12 79 38 91 44 134 20 134 -9 0 -15 -9 -15 -21z"/>
<path d="M8581 9315 c-16 -35 -32 -73 -36 -85 -5 -14 -15 -20 -38 -20 -53 0
-77 -11 -77 -32 0 -15 4 -18 18 -13 9 5 31 10 48 12 l32 5 -20 -72 c-11 -39
-17 -78 -14 -86 10 -26 25 -15 31 24 4 20 13 59 22 85 15 47 16 48 52 45 47
-4 51 25 4 32 l-32 5 30 68 c31 73 35 97 19 97 -5 0 -23 -29 -39 -65z"/>
<path d="M2430 9333 c0 -16 -18 -80 -39 -143 l-38 -115 -72 4 c-66 3 -101 -7
-101 -28 0 -3 86 -6 192 -6 144 0 192 3 195 13 4 9 -15 12 -74 12 -43 0 -84 4
-91 9 -11 7 -7 29 22 114 39 114 46 167 21 167 -10 0 -15 -10 -15 -27z"/>
<path d="M13067 9293 c-14 -13 -6 -24 15 -21 27 4 36 28 11 28 -11 0 -23 -3
-26 -7z"/>
<path d="M10029 9241 c-59 -42 -61 -45 -120 -190 -43 -103 -46 -121 -25 -121
13 0 56 93 56 121 0 20 24 46 39 42 26 -6 104 40 128 76 25 37 30 80 11 99
-19 19 -31 15 -89 -27z m71 -11 c0 -44 -73 -109 -106 -96 -22 8 -2 40 48 76
43 32 58 37 58 20z"/>
<path d="M14408 9251 c-35 -22 -48 -37 -52 -63 -15 -76 -30 -120 -43 -125 -27
-10 -36 15 -34 91 2 60 -1 76 -12 76 -11 0 -16 -18 -19 -72 -6 -99 -1 -115 34
-127 45 -16 65 0 83 67 8 31 19 68 23 82 10 34 68 71 108 68 36 -2 50 5 39 21
-13 22 -80 12 -127 -18z"/>
<path d="M5572 9225 c-27 -25 -56 -45 -64 -45 -10 0 -21 -23 -33 -67 -10 -38
-38 -109 -63 -160 -41 -85 -46 -113 -21 -113 5 0 14 12 20 28 6 15 25 56 43
92 29 60 34 65 62 62 32 -2 77 33 128 100 94 125 39 203 -72 103z m88 -4 c0
-35 -108 -171 -136 -171 -40 0 -11 74 58 143 49 49 78 60 78 28z"/>
<path d="M9799 9255 c-15 -8 -29 -22 -33 -30 -3 -9 -10 -14 -15 -11 -10 7 -54
-42 -76 -85 -34 -65 -77 -201 -67 -211 10 -10 52 39 52 61 0 6 4 11 9 11 5 0
17 19 26 43 14 38 21 45 60 55 63 17 125 78 125 123 0 57 -29 72 -81 44z m51
-46 c0 -24 -52 -74 -91 -88 -30 -10 -32 -3 -9 39 7 14 12 27 10 30 -5 8 73 49
82 44 4 -3 8 -14 8 -25z m-189 -166 c-12 -20 -14 -14 -5 12 4 9 9 14 11 11 3
-2 0 -13 -6 -23z"/>
<path d="M10269 9263 c-1 -4 -2 -16 -3 -25 -1 -9 -17 -27 -36 -40 -41 -28 -60
-69 -40 -92 29 -36 111 -4 124 47 7 29 -15 109 -32 115 -6 2 -13 0 -13 -5z
m11 -98 c0 -29 -43 -56 -61 -38 -7 7 0 18 21 37 39 32 40 32 40 1z"/>
<path d="M10484 9251 c-17 -10 -48 -47 -69 -81 -34 -55 -36 -63 -22 -77 17
-18 41 -8 33 13 -6 16 30 79 62 107 11 10 31 21 46 25 14 4 26 12 26 17 1 18
-44 16 -76 -4z"/>
<path d="M12410 9256 c-14 -8 -38 -30 -54 -50 -15 -20 -33 -36 -40 -36 -6 0
-24 -16 -39 -35 -24 -30 -27 -40 -19 -68 10 -35 0 -72 -37 -145 -25 -48 -26
-62 -7 -62 18 0 53 60 68 115 11 39 15 44 49 49 39 6 93 57 123 115 20 38 21
98 2 117 -17 17 -15 17 -46 0z m30 -54 c0 -63 -108 -178 -131 -141 -4 8 -3 16
3 20 6 4 7 12 3 19 -5 8 -4 11 2 7 6 -4 16 6 23 22 12 30 77 101 92 101 4 0 8
-13 8 -28z"/>
<path d="M15509 9193 c-39 -37 -68 -74 -67 -82 4 -20 43 -21 43 -2 0 16 94
116 101 108 3 -3 0 -24 -6 -47 -12 -44 -6 -81 10 -64 12 13 37 116 32 137 -7
33 -44 17 -113 -50z"/>
<path d="M13837 9224 c-42 -28 -119 -139 -115 -163 6 -31 24 -19 52 34 27 51
102 132 113 122 2 -3 -9 -37 -26 -75 -17 -39 -31 -77 -31 -86 0 -21 21 -31 31
-15 4 8 4 16 -3 20 -5 4 -6 8 -1 10 13 6 63 127 63 155 0 33 -34 32 -83 -2z"/>
<path d="M15870 9194 c-17 -68 -37 -84 -118 -91 -72 -7 -84 5 -45 45 33 32 73
52 109 52 36 0 25 24 -12 28 -37 4 -121 -50 -144 -91 -14 -27 -14 -29 9 -48
26 -21 85 -25 140 -9 l33 9 -6 -32 c-4 -18 -10 -56 -13 -86 -5 -45 -4 -53 8
-46 11 6 12 5 2 -6 -7 -7 -13 -21 -13 -30 0 -11 -11 -19 -32 -23 -40 -8 -123
-63 -137 -91 -10 -20 -14 -46 -12 -78 1 -22 58 -57 92 -57 59 0 118 85 119
168 0 39 2 43 20 37 12 -4 20 -2 20 5 0 7 -9 14 -20 17 -17 4 -20 14 -20 55 0
56 27 197 41 214 5 7 12 35 16 63 5 41 3 51 -9 51 -10 0 -19 -19 -28 -56z
m-50 -387 c0 -48 -40 -120 -72 -131 -38 -13 -78 14 -78 53 0 32 41 73 95 97
46 20 55 17 55 -19z"/>
<path d="M5174 9232 c-26 -18 -96 -126 -101 -156 -10 -60 14 -48 47 23 30 65
80 129 80 103 0 -7 7 -12 15 -12 18 0 18 5 5 31 -11 20 -27 24 -46 11z"/>
<path d="M9276 9225 c-11 -12 -14 -27 -10 -58 5 -34 2 -46 -16 -64 -24 -26
-62 -30 -80 -8 -17 21 -30 19 -30 -6 0 -14 11 -25 36 -35 43 -18 65 -12 99 27
19 24 25 42 25 81 l0 49 53 -2 c40 -2 52 0 52 11 0 23 -107 26 -129 5z"/>
<path d="M9600 9226 c0 -8 5 -18 10 -21 20 -12 9 -36 -35 -80 -71 -71 -115
-58 -71 21 25 44 26 64 6 64 -17 0 -62 -101 -56 -124 8 -34 50 -49 85 -32 32
17 97 86 113 122 10 21 8 27 -10 44 -25 24 -42 26 -42 6z"/>
<path d="M11964 9221 c-104 -63 -93 -201 16 -201 43 0 80 14 80 30 0 16 -32
11 -53 -7 -11 -10 -17 -12 -13 -5 5 8 -1 12 -18 12 -27 0 -56 23 -56 45 0 8 6
12 14 9 21 -8 107 36 118 62 8 18 7 29 -6 49 -20 30 -40 31 -82 6z m59 -25 c6
-15 -22 -46 -41 -46 -7 0 -12 -4 -12 -9 0 -5 -11 -11 -25 -13 -20 -4 -23 -2
-15 12 11 20 68 70 80 70 4 0 10 -6 13 -14z"/>
<path d="M6887 9209 c-9 -6 -15 -14 -12 -19 3 -5 -3 -11 -14 -15 -30 -9 -71
-77 -71 -117 0 -88 88 -90 154 -4 59 79 63 136 11 156 -33 12 -45 12 -68 -1z
m64 -29 c14 0 11 -37 -5 -69 -20 -38 -84 -93 -104 -89 -42 8 -8 109 43 128 14
5 25 17 25 26 0 11 5 14 16 10 9 -3 20 -6 25 -6z"/>
<path d="M14034 9201 c-61 -37 -96 -110 -60 -124 14 -5 65 4 100 19 16 6 18 4
13 -10 -10 -25 2 -66 19 -66 10 0 14 13 14 43 0 25 8 54 20 72 26 39 26 40
-14 64 -41 26 -53 26 -92 2z m65 -24 c8 -11 7 -18 -7 -29 -26 -23 -58 -38 -81
-38 -18 0 -19 3 -10 18 11 18 68 62 80 62 4 0 12 -6 18 -13z"/>
<path d="M13166 9185 c-20 -14 -43 -25 -49 -25 -12 0 -57 -79 -57 -100 0 -6 7
-10 15 -10 8 0 15 4 15 10 0 13 68 88 90 100 15 8 16 5 6 -31 -13 -50 0 -74
40 -74 25 0 29 4 32 30 2 27 1 28 -11 13 -34 -43 -46 -12 -23 54 9 26 10 40 3
47 -15 15 -19 14 -61 -14z"/>
<path d="M14952 9202 c-35 -11 -92 -71 -92 -98 0 -28 46 -46 61 -23 6 10 3 15
-11 17 -24 4 -25 15 -5 32 8 7 12 17 8 24 -3 6 -3 8 2 4 4 -4 14 -3 21 2 6 6
31 14 53 18 23 4 43 12 44 17 2 12 -49 16 -81 7z"/>
<path d="M15367 9203 c-12 -20 -18 -113 -8 -113 24 0 43 101 22 115 -5 3 -12
2 -14 -2z"/>
<path d="M4004 9163 c-19 -20 -41 -56 -50 -80 -15 -40 -15 -44 0 -69 23 -34
73 -54 135 -54 55 0 104 17 98 34 -3 6 -11 9 -18 7 -46 -13 -118 -12 -152 3
-35 14 -38 19 -35 48 2 28 7 32 25 30 51 -7 100 47 84 92 -15 37 -47 33 -87
-11z m41 -33 c-10 -11 -22 -17 -27 -14 -5 3 1 17 14 31 26 28 39 12 13 -17z"/>
<path d="M7076 9149 c-57 -64 -74 -114 -48 -148 21 -28 56 -40 91 -31 40 9 34
25 -11 28 -52 3 -58 8 -58 37 0 40 11 55 41 55 63 0 98 35 85 86 -11 41 -48
31 -100 -27z m74 6 c0 -15 -29 -35 -51 -35 -7 0 -2 11 11 25 27 28 40 32 40
10z"/>
<path d="M7330 9182 l-35 -17 0 -70 c0 -63 -2 -70 -20 -70 -12 0 -21 9 -25 23
-6 29 -24 30 -28 2 -8 -48 59 -79 90 -42 25 28 29 52 16 94 -14 47 -4 58 52
58 26 0 31 3 20 10 -13 9 -13 10 0 11 10 0 8 3 -5 9 -28 12 -26 12 -65 -8z"/>
<path d="M4906 9160 c-43 -38 -58 -79 -42 -111 14 -30 58 -37 91 -15 13 9 26
16 29 16 6 0 -41 -180 -52 -199 -5 -8 -17 -15 -27 -17 -54 -8 -64 -15 -74 -51
-12 -43 0 -103 24 -123 23 -19 47 8 74 85 23 64 24 65 61 65 35 0 67 19 54 32
-3 3 -23 4 -44 1 l-38 -5 23 81 c14 46 26 99 29 119 2 20 9 50 15 65 6 16 11
41 11 56 0 27 -2 28 -50 30 -42 0 -55 -4 -84 -29z m83 -9 c32 -21 -34 -101
-83 -101 -27 0 -19 48 13 81 31 30 46 35 70 20z m-80 -363 c-1 -25 -35 -99
-42 -92 -9 9 -9 88 0 97 11 12 43 8 42 -5z"/>
<path d="M8055 9173 c-16 -8 -38 -23 -48 -31 -17 -16 -18 -15 -12 11 10 37
-20 37 -33 0 -5 -16 -26 -50 -46 -76 -23 -30 -35 -55 -31 -65 4 -12 17 -5 58
35 52 52 122 103 139 103 5 0 -4 -19 -20 -42 -16 -24 -32 -53 -36 -65 -10 -32
2 -63 25 -63 20 0 26 15 9 25 -15 9 -4 38 41 108 21 33 36 63 33 68 -8 14 -46
10 -79 -8z"/>
<path d="M14684 9168 c-42 -32 -53 -50 -54 -80 0 -35 24 -48 67 -36 19 5 37 8
39 6 2 -2 1 -28 -3 -56 l-6 -52 -58 0 c-77 0 -94 -22 -87 -113 9 -105 52 -157
107 -128 31 17 44 48 56 131 9 60 15 75 28 74 9 -1 17 4 17 12 0 8 -7 14 -16
14 -14 0 -15 10 -9 69 4 38 13 87 20 108 7 21 11 41 8 45 -9 17 -23 7 -37 -27
-19 -45 -96 -78 -96 -41 0 17 56 66 76 66 8 0 14 7 14 15 0 22 -33 18 -66 -7z
m33 -311 c-10 -105 -41 -148 -79 -109 -20 20 -34 105 -24 146 6 24 11 26 58
26 l51 0 -6 -63z"/>
<path d="M5246 9146 c-67 -63 -32 -121 50 -83 29 14 34 14 34 2 0 -18 19 -30
30 -19 4 5 10 26 13 47 8 49 -12 58 -53 24 -32 -28 -68 -42 -77 -33 -9 9 38
56 65 67 29 11 28 29 -2 29 -14 0 -40 -14 -60 -34z"/>
<path d="M8207 9131 c-42 -47 -53 -80 -38 -110 28 -51 120 -28 141 34 11 33
-2 85 -22 85 -4 0 -7 6 -5 12 1 7 -7 14 -19 16 -14 2 -33 -10 -57 -37z m61
-13 c41 -41 -18 -117 -64 -83 -17 12 -17 15 9 54 29 44 36 48 55 29z"/>
<path d="M14540 9118 c-29 -52 -40 -108 -20 -108 6 0 13 8 16 18 15 47 39 93
55 108 10 9 16 21 13 25 -13 21 -36 5 -64 -43z"/>
<path d="M12956 9138 c-20 -33 -38 -96 -31 -108 14 -23 33 -8 38 32 4 27 14
48 28 59 12 9 19 21 15 28 -11 18 -34 13 -50 -11z"/>
<path d="M14971 9130 c-19 -11 -36 -26 -37 -35 -3 -19 0 -19 35 0 28 14 29 14
35 -15 10 -51 32 -37 32 20 0 57 -9 61 -65 30z"/>
<path d="M8734 8963 c-8 -21 -29 -77 -45 -126 -15 -48 -44 -121 -64 -163 -19
-42 -35 -83 -35 -90 0 -27 18 -13 50 37 38 58 93 104 115 95 18 -7 18 -19 0
-71 -18 -49 -19 -88 -3 -83 17 6 51 125 44 153 -8 32 -45 41 -83 21 l-30 -15
33 99 c18 54 40 112 48 128 20 39 20 52 1 52 -8 0 -22 -17 -31 -37z"/>
<path d="M2096 8915 c-10 -36 -19 -85 -20 -109 0 -24 -4 -42 -8 -39 -5 2 -8 0
-8 -6 0 -11 -39 -21 -98 -23 -24 -1 -45 -5 -49 -11 -12 -19 14 -25 75 -18 34
4 62 4 62 1 0 -4 -9 -33 -20 -65 -24 -69 -25 -85 -6 -85 8 0 22 30 37 80 12
44 28 81 33 82 6 0 16 2 21 3 6 2 16 3 23 4 6 0 12 8 12 17 0 12 -7 15 -28 12
l-28 -4 12 71 c7 38 17 83 23 98 14 37 14 57 -2 57 -7 0 -21 -29 -31 -65z"/>
<path d="M7780 8902 c-13 -42 -39 -114 -57 -159 -36 -90 -43 -153 -18 -153 10
0 15 10 15 30 0 16 9 52 20 80 11 28 18 56 15 61 -4 5 -1 9 5 9 7 0 10 7 6 15
-3 8 -1 15 3 15 9 0 61 143 61 168 0 6 -6 12 -12 12 -7 0 -24 -35 -38 -78z"/>
<path d="M5932 8918 c-49 -66 -75 -116 -68 -133 3 -9 0 -12 -9 -9 -9 4 -19 -4
-26 -20 -7 -14 -15 -26 -19 -26 -11 0 -50 89 -56 130 -7 45 -34 56 -34 14 0
-29 48 -156 63 -166 10 -6 -99 -182 -177 -288 -40 -54 -56 -110 -32 -110 9 0
16 3 17 8 3 30 13 50 56 109 58 82 203 301 202 308 0 3 7 15 16 28 9 12 33 49
55 82 21 33 48 70 60 83 19 21 20 42 1 42 -5 0 -27 -24 -49 -52z"/>
<path d="M11252 8865 c-37 -121 -48 -131 -139 -122 -31 3 -55 1 -59 -5 -11
-17 18 -28 79 -28 31 0 57 -2 57 -5 0 -3 -11 -28 -25 -55 -25 -50 -32 -90 -16
-90 5 0 26 36 47 80 20 44 43 80 50 80 8 0 13 11 12 28 -1 15 11 67 25 116 25
81 27 106 9 106 -4 0 -22 -47 -40 -105z"/>
<path d="M3292 8888 c-12 -40 -29 -101 -38 -135 -18 -66 -32 -76 -74 -53 -13
7 -21 7 -26 -1 -9 -16 9 -30 42 -32 28 -3 29 -4 26 -47 -2 -25 -8 -53 -13 -63
-10 -18 -4 -37 11 -37 9 0 15 21 37 109 6 26 15 36 42 45 49 16 55 41 8 32
l-36 -7 25 92 c14 50 30 102 35 116 13 34 11 53 -5 53 -8 0 -21 -29 -34 -72z"/>
<path d="M1917 8923 c-3 -16 -2 -32 3 -37 10 -11 44 40 35 54 -12 19 -33 10
-38 -17z"/>
<path d="M7666 8933 c-3 -3 -6 -26 -6 -50 0 -30 -15 -79 -45 -151 -50 -119
-52 -125 -29 -120 25 5 104 208 104 268 0 46 -9 67 -24 53z"/>
<path d="M10262 8893 c-17 -27 -40 -69 -53 -94 l-22 -47 -64 -7 c-47 -5 -63
-10 -63 -22 0 -13 10 -15 54 -11 l53 4 -13 -32 c-17 -40 -18 -85 -3 -117 17
-38 89 -64 89 -33 0 22 -11 46 -22 46 -5 0 -6 -5 -2 -11 4 -7 -1 -10 -12 -7
-28 5 -40 50 -26 95 19 61 23 63 110 70 45 3 79 10 76 14 -3 5 3 9 12 9 11 0
14 3 9 9 -6 4 -44 5 -85 1 -41 -4 -76 -7 -78 -5 -4 3 67 127 84 146 18 20 18
39 0 39 -8 0 -28 -21 -44 -47z"/>
<path d="M4035 8912 c-6 -4 -11 -29 -13 -57 -4 -90 -14 -109 -55 -116 -42 -7
-52 -13 -43 -28 4 -5 22 -7 40 -4 l34 5 -9 -43 c-12 -64 -11 -89 5 -89 9 0 16
17 21 48 12 88 14 91 53 94 49 4 55 28 7 28 -33 0 -37 2 -32 23 3 12 9 47 12
78 7 54 0 75 -20 61z"/>
<path d="M7460 8834 c0 -15 22 -44 31 -39 18 12 10 45 -11 45 -11 0 -20 -3
-20 -6z"/>
<path d="M9302 8824 c-12 -8 -45 -22 -72 -30 -54 -16 -59 -22 -80 -106 -7 -27
-16 -48 -21 -48 -5 0 -19 34 -31 75 -13 44 -27 75 -35 75 -17 0 -16 -15 3 -81
17 -59 52 -119 70 -119 11 0 50 93 56 135 2 13 20 27 54 40 71 28 102 50 89
64 -8 8 -17 6 -33 -5z"/>
<path d="M3065 8799 c-42 -12 -75 -45 -75 -75 0 -14 9 -42 20 -64 25 -49 25
-76 1 -90 -22 -11 -71 2 -71 20 0 5 -7 10 -15 10 -21 0 -19 -23 3 -43 31 -29
74 -31 105 -7 33 27 35 63 6 124 -12 24 -19 51 -16 60 8 21 53 39 94 38 29 0
31 2 22 19 -10 20 -27 22 -74 8z"/>
<path d="M2261 8771 c-35 -33 -34 -47 11 -99 30 -35 35 -61 16 -80 -21 -21
-55 -13 -76 16 -18 24 -21 25 -28 9 -8 -21 19 -55 54 -68 16 -6 32 -4 51 6 51
26 55 73 10 135 l-32 44 24 18 c14 12 31 17 44 14 27 -7 38 3 24 21 -19 22
-65 15 -98 -16z"/>
<path d="M13475 8776 c-86 -40 -139 -117 -119 -175 11 -31 78 -71 120 -71 46
0 94 19 94 38 0 14 -2 14 -9 3 -7 -11 -9 -11 -14 0 -4 10 -6 10 -6 2 -1 -19
-76 -16 -117 3 -34 16 -45 34 -21 34 6 0 36 11 65 25 39 18 52 30 53 47 1 19
2 20 6 4 4 -16 7 -15 24 10 23 36 25 90 3 98 -22 9 -24 8 -79 -18z m48 -65
c-20 -27 -68 -55 -117 -67 l-30 -7 20 34 c21 36 86 86 119 91 27 4 31 -19 8
-51z"/>
<path d="M14190 8782 c-25 -12 -43 -33 -62 -72 -34 -69 -38 -93 -16 -98 12 -2
19 5 24 25 3 15 8 36 11 46 7 27 53 77 71 77 10 0 24 5 32 10 13 9 13 11 0 20
-20 13 -19 13 -60 -8z"/>
<path d="M4316 8746 c-14 -25 -38 -66 -52 -92 -31 -56 -67 -75 -92 -51 -16 16
-16 20 1 66 21 59 21 61 3 61 -15 0 -46 -68 -46 -103 0 -70 74 -90 127 -34 43
46 109 175 96 188 -8 8 -19 -3 -37 -35z"/>
<path d="M9402 8777 c-38 -12 -99 -75 -108 -113 -14 -57 54 -134 119 -134 28
0 195 83 209 104 20 29 -13 21 -96 -24 -52 -27 -104 -50 -118 -50 -14 0 -37
13 -53 30 -34 35 -28 44 37 54 46 8 118 68 118 100 0 44 -38 56 -108 33z m78
-31 c0 -34 -101 -87 -140 -74 -19 6 21 49 64 69 49 22 76 24 76 5z"/>
<path d="M13767 8742 c-20 -21 -37 -42 -37 -47 0 -21 -21 -85 -28 -85 -4 0
-16 31 -26 70 -18 70 -30 90 -46 74 -8 -9 20 -113 43 -161 21 -45 60 -18 78
53 8 32 23 55 55 83 50 44 53 51 21 51 -13 0 -38 -16 -60 -38z"/>
<path d="M4452 8750 c-18 -11 -38 -31 -44 -45 -6 -14 -17 -25 -24 -25 -7 0
-17 -8 -22 -17 -13 -24 -14 -123 -3 -123 17 0 49 50 56 87 10 57 35 91 77 108
22 8 36 20 33 25 -10 16 -37 12 -73 -10z"/>
<path d="M4567 8730 c-71 -63 -88 -153 -35 -181 45 -24 191 31 162 61 -8 8
-15 8 -26 -3 -20 -21 -109 -38 -125 -25 -24 19 -14 63 22 105 31 37 75 62 75
43 0 -10 -50 -60 -61 -60 -4 0 -7 -8 -6 -18 1 -18 2 -18 35 1 65 38 84 109 31
115 -18 2 -38 -9 -72 -38z"/>
<path d="M14410 8752 c0 -17 -32 -72 -125 -218 -47 -73 -95 -170 -88 -178 14
-14 24 -3 54 56 17 33 46 84 64 112 97 152 125 202 125 223 0 14 -6 23 -15 23
-8 0 -15 -8 -15 -18z"/>
<path d="M3403 8706 c-44 -46 -53 -62 -59 -105 -5 -41 -4 -51 8 -51 8 0 19 18
26 44 16 60 71 131 103 131 32 0 32 29 -1 33 -20 2 -37 -10 -77 -52z"/>
<path d="M7081 8719 c-57 -37 -71 -57 -45 -66 5 -2 21 8 35 21 30 28 89 60 89
49 0 -4 -21 -38 -47 -76 -36 -52 -44 -70 -35 -79 9 -9 22 -2 57 32 l45 44 0
-40 c0 -105 101 -113 140 -10 16 43 13 113 -6 120 -25 10 -34 7 -34 -9 0 -8 5
-15 10 -15 15 0 12 -56 -5 -95 -30 -72 -75 -53 -75 31 0 42 -3 54 -16 54 -11
0 -14 6 -9 23 8 24 8 25 6 45 -2 23 -47 12 -110 -29z"/>
<path d="M12307 8740 c-13 -11 -43 -49 -67 -85 -38 -58 -42 -69 -31 -91 14
-31 27 -24 37 18 13 63 74 138 112 138 28 0 25 20 -5 31 -15 6 -29 2 -46 -11z"/>
<path d="M12523 8753 c-12 -2 -34 -18 -49 -36 -24 -29 -26 -37 -21 -100 4 -58
2 -69 -14 -77 -19 -11 -45 -5 -71 17 -9 8 -22 12 -27 8 -20 -12 8 -44 50 -56
35 -11 43 -10 67 8 26 20 27 24 23 92 -4 86 11 111 66 111 27 0 34 4 31 17 -3
19 -19 23 -55 16z"/>
<path d="M13914 8741 c-41 -25 -74 -68 -74 -98 0 -33 39 -69 84 -77 49 -9 72
8 32 24 -15 5 -33 10 -40 10 -18 0 -49 36 -44 52 3 7 11 13 19 13 8 1 28 5 44
9 79 20 95 41 53 70 -29 20 -36 20 -74 -3z m49 -28 c-7 -2 -19 -2 -25 0 -7 3
-2 5 12 5 14 0 19 -2 13 -5z"/>
<path d="M6202 8734 c-5 -11 -13 -33 -16 -49 -4 -17 -24 -54 -46 -83 -55 -72
-54 -98 1 -46 26 25 29 25 44 10 9 -9 19 -16 22 -16 6 0 64 40 81 57 18 17 32
16 32 -2 0 -8 11 -22 24 -30 19 -13 29 -14 45 -5 31 16 26 30 -10 30 l-32 0 6
55 c3 34 2 55 -4 55 -6 0 -38 -28 -71 -62 -70 -72 -80 -66 -58 30 8 36 9 57 2
64 -7 7 -13 4 -20 -8z"/>
<path d="M11384 8727 c-16 -13 -37 -26 -46 -30 -10 -3 -20 -19 -23 -34 -3 -15
-15 -47 -25 -69 -17 -39 -17 -54 1 -54 3 0 25 30 47 68 47 78 82 115 108 110
12 -2 19 3 19 12 0 25 -49 24 -81 -3z"/>
<path d="M11746 8743 c-15 -15 12 -165 34 -187 21 -21 84 75 82 126 -1 26 2
28 41 29 55 1 89 11 95 27 3 11 -11 12 -69 6 -41 -4 -77 -12 -81 -18 -4 -6 -8
-26 -8 -43 0 -18 -4 -33 -8 -33 -5 0 -15 -12 -22 -27 l-13 -28 -13 40 c-7 22
-13 54 -13 72 -1 32 -12 48 -25 36z"/>
<path d="M3764 8721 c-17 -10 -39 -36 -49 -57 -25 -54 -7 -86 57 -98 49 -9 83
-3 73 14 -3 5 -17 10 -30 10 -44 0 -75 18 -75 43 0 26 38 67 61 67 23 0 30 11
18 27 -15 17 -18 17 -55 -6z"/>
<path d="M8873 8729 c-60 -17 -93 -88 -57 -123 21 -22 50 -20 74 4 26 26 26
25 33 -9 7 -31 34 -48 51 -31 8 8 6 14 -6 21 -21 12 -24 69 -7 101 9 18 8 24
-7 35 -20 15 -35 15 -81 2z m42 -49 c-20 -39 -62 -67 -77 -52 -19 19 6 57 43
69 50 16 51 16 34 -17z"/>
<path d="M12060 8719 c-19 -12 -50 -35 -67 -52 -58 -55 -36 -127 42 -141 43
-8 71 -1 79 20 10 26 -4 37 -24 19 -12 -11 -26 -14 -46 -9 -67 16 -72 49 -10
58 57 9 96 39 96 75 0 24 -15 51 -29 51 -4 0 -22 -10 -41 -21z m40 -33 c0 -19
-19 -32 -60 -40 -36 -7 -35 -4 14 32 33 25 46 28 46 8z"/>
<path d="M12685 8715 c-80 -40 -117 -115 -86 -173 15 -28 49 -36 120 -29 71 8
91 15 91 33 0 8 9 14 20 14 11 0 20 5 20 10 0 13 -1 13 -42 -4 -51 -22 -155
-31 -173 -16 -16 13 -20 46 -9 74 5 12 10 14 19 6 17 -14 98 6 120 30 23 25
16 74 -10 78 -11 1 -42 -9 -70 -23z m65 -15 c0 -13 -38 -36 -73 -44 -41 -10
-25 11 27 35 49 22 46 21 46 9z"/>
<path d="M1822 8693 c-7 -21 -17 -60 -22 -87 -6 -27 -15 -57 -20 -67 -14 -25
9 -37 26 -14 12 17 32 95 38 150 1 14 6 28 9 32 11 11 8 23 -6 23 -8 0 -19
-17 -25 -37z"/>
<path d="M3634 8718 c-4 -7 -8 -23 -9 -36 -1 -26 -56 -82 -80 -82 -11 0 -15
12 -15 45 0 32 -4 45 -14 45 -17 0 -27 -49 -17 -86 16 -62 108 -31 151 49 13
25 21 51 17 60 -7 20 -23 22 -33 5z"/>
<path d="M10481 8721 c-7 -5 -22 -6 -32 -4 -22 6 -89 -56 -89 -82 0 -9 13 -30
29 -46 42 -41 97 -41 146 2 38 34 43 55 20 98 -19 37 -46 49 -74 32z m59 -76
c0 -21 -50 -55 -81 -55 -16 0 -38 9 -50 21 -18 18 -19 23 -6 42 7 11 33 26 58
32 39 10 46 9 62 -8 9 -11 17 -25 17 -32z"/>
<path d="M11554 8720 c-33 -13 -74 -69 -74 -100 0 -49 56 -70 98 -37 14 11 14
12 30 -26 15 -36 35 -25 27 14 -4 16 -1 52 6 79 12 46 11 51 -7 65 -21 16 -49
18 -80 5z m50 -26 c31 -12 -30 -94 -71 -94 -41 0 -20 60 32 88 24 14 20 13 39
6z"/>
<path d="M5905 8710 c-10 -16 4 -30 29 -30 13 0 31 -9 41 -20 15 -17 16 -24 5
-49 -20 -50 -90 -83 -90 -43 0 20 24 45 53 55 21 8 22 26 3 33 -37 14 -90 -52
-84 -104 3 -23 8 -27 41 -30 32 -3 43 2 72 31 69 69 54 139 -37 161 -15 3 -30
2 -33 -4z"/>
<path d="M14266 8713 c-3 -3 -6 -32 -6 -63 0 -60 15 -86 39 -71 9 6 10 11 2
15 -6 4 -11 31 -11 61 0 51 -9 73 -24 58z"/>
<path d="M7402 8653 c-20 -54 -21 -73 -2 -73 8 0 50 100 50 120 0 6 -6 10 -14
10 -7 0 -23 -26 -34 -57z"/>
<path d="M5037 8594 c-11 -11 3 -24 24 -24 12 0 19 5 17 13 -5 14 -31 21 -41
11z"/>
<path d="M8406 8538 c-2 -7 -11 -42 -20 -78 -10 -36 -20 -70 -24 -77 -6 -9
-59 -21 -99 -23 -7 0 -13 -7 -13 -16 0 -13 9 -15 50 -12 42 2 49 0 44 -12 -3
-8 -11 -43 -17 -77 -12 -71 0 -117 30 -111 24 4 30 38 8 38 -15 0 -16 7 -10
48 3 26 11 64 17 85 10 34 14 37 50 37 27 0 38 4 38 15 0 10 -10 15 -34 15
l-34 0 19 61 c10 33 19 71 19 84 0 27 -18 44 -24 23z"/>
<path d="M2594 8519 c-3 -6 -1 -15 7 -19 7 -5 14 -34 17 -69 8 -117 -66 -282
-131 -289 -39 -5 -44 19 -16 75 19 37 32 50 57 57 17 5 32 16 32 24 0 24 -61
6 -92 -28 -30 -33 -52 -101 -43 -131 4 -10 15 -24 27 -30 47 -25 131 49 169
150 26 69 39 233 19 256 -15 18 -36 20 -46 4z"/>
<path d="M4886 8509 c-3 -8 -17 -59 -31 -114 l-26 -100 -49 3 -48 4 15 55 c17
65 14 107 -7 111 -13 2 -16 -8 -16 -50 0 -29 -8 -70 -17 -90 l-16 -38 -76 0
c-57 0 -76 -3 -73 -12 3 -9 30 -14 76 -16 l71 -3 -24 -63 c-16 -42 -20 -67
-14 -77 12 -19 20 -7 48 80 l23 69 49 4 c27 1 49 2 49 2 0 -1 -9 -23 -21 -49
-16 -36 -18 -50 -9 -59 9 -8 15 -6 24 8 6 10 28 40 48 67 43 55 75 70 94 45
13 -18 9 -41 -20 -108 -20 -46 -20 -58 -3 -58 8 0 26 31 41 69 28 68 29 97 4
129 -16 19 -63 14 -94 -10 -18 -15 -26 -17 -22 -8 3 8 16 57 29 107 18 72 21
95 12 104 -10 10 -13 9 -17 -2z"/>
<path d="M11443 8498 c-17 -22 -24 -49 -44 -166 -20 -118 -41 -172 -82 -210
-32 -30 -90 -35 -95 -9 -5 24 84 111 105 103 22 -9 36 3 22 20 -21 25 -47 15
-103 -38 -65 -63 -75 -89 -47 -117 39 -39 115 -21 157 36 41 55 54 94 74 212
22 131 28 151 41 151 5 0 9 7 9 15 0 18 -24 20 -37 3z"/>
<path d="M8806 8428 c-10 -35 -31 -106 -47 -159 -33 -109 -37 -159 -14 -159
10 0 15 10 15 30 0 25 16 84 75 271 19 58 19 79 2 79 -8 0 -21 -26 -31 -62z"/>
<path d="M10922 8461 c-27 -27 -92 -162 -92 -191 0 -16 -46 -30 -101 -30 -36
0 -49 -4 -46 -12 2 -9 25 -13 65 -13 34 0 62 -2 62 -6 0 -30 -38 -104 -66
-128 -40 -35 -41 -41 -13 -41 33 0 77 56 98 123 19 63 20 65 89 83 23 6 2 24
-28 24 l-29 0 13 38 c35 98 71 147 110 147 31 0 26 29 -5 33 -19 2 -35 -6 -57
-27z"/>
<path d="M12182 8433 c-11 -27 -23 -62 -26 -79 -7 -31 -7 -31 -106 -44 -70 -9
-100 -17 -100 -27 0 -16 24 -16 109 -3 35 6 66 9 69 6 3 -3 -12 -48 -32 -101
-20 -52 -36 -102 -36 -110 0 -26 28 -16 34 13 9 37 67 184 79 200 5 6 22 12
38 12 39 0 39 28 0 32 l-30 3 20 55 c32 90 33 90 16 90 -8 0 -23 -21 -35 -47z"/>
<path d="M12324 8468 c-6 -7 -21 -47 -34 -88 -13 -41 -40 -110 -62 -152 -21
-43 -38 -82 -38 -88 0 -21 30 -9 44 18 19 36 94 105 106 97 18 -11 10 -49 -20
-104 -33 -60 -36 -71 -17 -71 20 0 77 113 77 154 0 29 -5 39 -25 48 -19 9 -29
8 -49 -5 l-25 -17 35 102 c20 59 31 105 26 110 -5 5 -13 3 -18 -4z"/>
<path d="M3634 8438 c1 -13 9 -23 17 -23 8 0 15 10 17 23 3 17 -2 22 -17 22
-16 0 -20 -5 -17 -22z"/>
<path d="M6914 8448 c-4 -6 -2 -14 4 -16 18 -6 14 -41 -9 -92 -74 -160 -89
-201 -73 -207 9 -3 33 13 65 46 27 28 54 51 59 51 6 0 10 -13 10 -29 0 -53 8
-61 59 -61 46 1 81 17 81 39 0 14 -27 15 -35 1 -3 -5 -22 -10 -41 -10 -32 0
-34 2 -34 34 0 32 -20 66 -40 66 -5 0 -22 -12 -39 -26 -17 -14 -31 -24 -31
-21 0 3 15 38 34 78 44 96 50 123 30 143 -18 19 -30 20 -40 4z"/>
<path d="M8592 8388 c3 -7 13 -15 22 -16 12 -3 17 1 14 10 -3 7 -13 15 -22 16
-12 3 -17 -1 -14 -10z"/>
<path d="M11056 8392 c-8 -14 5 -53 18 -49 15 5 14 49 -1 54 -6 2 -14 0 -17
-5z"/>
<path d="M14639 8378 c-29 -57 -103 -178 -109 -178 -3 0 -21 27 -40 60 -18 32
-39 61 -46 64 -19 7 -28 -12 -14 -29 7 -8 27 -40 46 -70 l33 -56 -48 -62 c-65
-82 -91 -127 -91 -154 0 -36 17 -27 38 20 11 23 42 71 71 107 105 134 208 300
194 313 -12 12 -22 7 -34 -15z"/>
<path d="M15075 8333 c-28 -36 -74 -83 -104 -103 -55 -38 -75 -62 -69 -82 3
-8 11 -5 24 8 10 10 43 36 71 56 l52 38 -5 -29 c-7 -35 10 -71 34 -71 10 0 34
11 54 25 35 24 37 24 43 6 7 -22 29 -33 50 -25 19 8 20 24 1 24 -27 0 -27 19
-2 63 26 43 33 77 18 77 -4 0 -36 -29 -70 -65 -71 -75 -108 -87 -96 -32 3 17
21 60 37 94 45 90 25 99 -38 16z"/>
<path d="M6742 8349 c-47 -14 -36 -34 16 -30 52 3 54 -8 10 -73 -29 -45 -79
-86 -103 -86 -6 0 -16 9 -22 20 -11 16 -10 18 2 14 18 -7 21 26 3 44 -9 9 -9
12 1 12 15 0 61 46 61 61 0 17 -26 9 -48 -14 -23 -24 -72 -127 -73 -155 0 -10
-3 -12 -6 -4 -2 6 -10 12 -18 12 -7 0 -18 7 -25 15 -10 12 -9 20 5 41 17 26
14 60 -5 49 -5 -3 -10 0 -10 9 0 34 -53 26 -104 -16 -31 -25 -37 -36 -34 -62
3 -27 7 -31 35 -34 18 -2 40 1 49 6 12 6 23 3 40 -15 13 -12 31 -23 42 -23 14
0 18 -8 18 -35 0 -19 -2 -32 -5 -30 -4 5 -32 -67 -54 -137 -11 -37 -7 -55 11
-44 5 3 33 61 62 130 29 69 56 123 61 120 13 -8 81 31 110 63 38 40 69 94 69
120 0 19 -34 55 -50 52 -3 0 -20 -5 -38 -10z m-239 -114 c7 -16 -41 -55 -67
-55 -27 0 -18 29 17 50 38 24 43 24 50 5z"/>
<path d="M7762 8313 c-15 -26 -53 -74 -84 -107 -32 -32 -58 -63 -58 -68 0 -18
33 -7 60 20 l28 29 9 -31 c12 -44 50 -47 96 -6 l35 30 6 -26 c9 -33 32 -25 28
9 -1 14 4 43 13 63 29 69 8 90 -32 31 -33 -48 -89 -107 -102 -107 -21 0 -11
68 19 125 17 31 30 63 30 71 0 28 -21 13 -48 -33z"/>
<path d="M14820 8352 c0 -5 -12 -15 -27 -23 -34 -18 -83 -95 -83 -130 0 -30
23 -59 46 -59 28 0 74 31 89 60 8 16 15 52 15 80 0 27 5 50 10 50 6 0 10 7 10
15 0 10 -10 15 -30 15 -16 0 -30 -4 -30 -8z m10 -77 c0 -46 -17 -80 -48 -94
-54 -25 -55 33 -1 94 39 44 49 44 49 0z"/>
<path d="M9728 8289 c-45 -46 -58 -65 -58 -89 0 -36 33 -56 73 -46 40 10 86
54 92 89 6 36 -6 92 -21 92 -5 0 -13 3 -19 6 -5 3 -36 -21 -67 -52z m73 -52
c-13 -34 -75 -67 -93 -49 -17 17 6 54 51 86 33 24 37 25 44 8 5 -10 4 -30 -2
-45z"/>
<path d="M9980 8301 c-29 -46 -131 -141 -151 -141 -5 0 -9 -7 -9 -15 0 -24 30
-17 68 16 35 31 36 31 43 10 12 -30 66 -28 115 5 22 15 40 22 42 16 9 -29 46
-62 68 -62 31 0 31 18 0 29 -38 15 -39 39 -7 105 20 41 26 64 20 71 -11 10
-22 0 -83 -80 -31 -40 -81 -75 -109 -75 -25 0 -16 30 29 96 19 28 34 56 34 62
0 28 -30 9 -60 -37z"/>
<path d="M6325 8330 c-38 -8 -66 -23 -88 -47 -24 -27 -58 -131 -46 -139 17
-10 48 26 47 55 -1 15 4 37 11 49 13 25 60 52 90 52 23 0 38 18 25 29 -5 4
-22 5 -39 1z"/>
<path d="M13500 8332 c-8 -2 -28 -16 -43 -31 -26 -23 -28 -24 -25 -6 7 46 -23
15 -61 -61 -23 -45 -41 -84 -41 -88 0 -15 29 -4 43 17 28 40 123 137 135 137
20 0 13 -32 -18 -85 -30 -50 -38 -85 -21 -85 16 0 81 127 81 159 0 32 -23 52
-50 43z"/>
<path d="M13694 8314 c-66 -45 -94 -82 -94 -124 0 -45 35 -80 79 -80 45 0 101
12 96 20 -3 5 3 6 13 3 17 -4 50 22 41 31 -2 3 -29 -2 -59 -10 -65 -17 -95
-18 -121 -4 -23 13 -26 60 -4 60 8 0 39 12 70 26 38 18 57 34 61 50 15 58 -20
70 -82 28z m52 -23 c-6 -9 -63 -41 -73 -41 -11 0 13 24 40 40 31 19 44 20 33
1z"/>
<path d="M1980 8293 c-43 -37 -43 -37 -37 -11 8 29 -5 45 -20 25 -5 -6 -15
-32 -22 -57 -7 -25 -24 -66 -37 -92 -29 -57 -29 -58 -6 -58 10 0 25 12 33 28
8 15 17 29 20 32 3 3 25 31 48 63 47 62 67 73 57 30 -17 -75 -19 -135 -5 -144
22 -14 49 -11 49 6 0 8 -7 15 -15 15 -19 0 -19 27 0 105 8 33 15 68 15 78 0
28 -33 20 -80 -20z"/>
<path d="M2287 8324 c-2 -3 -17 -7 -33 -10 -36 -7 -63 -30 -80 -71 -44 -103
17 -163 114 -114 51 26 75 56 74 91 -1 48 -55 123 -75 104z m-9 -56 c10 -10
15 -10 21 1 12 20 33 -22 29 -57 -4 -35 -76 -77 -115 -67 -23 5 -25 10 -20 44
9 71 53 111 85 79z"/>
<path d="M3755 8313 c-67 -35 -133 -118 -120 -151 5 -13 12 -9 38 19 17 19 30
39 29 46 -3 13 55 60 78 63 46 7 51 -13 20 -81 -12 -28 -16 -47 -10 -53 13
-13 23 -1 43 52 25 64 22 100 -9 112 -32 13 -33 12 -69 -7z"/>
<path d="M9609 8298 c-31 -45 -121 -149 -125 -145 -2 2 -8 34 -13 71 -10 69
-27 104 -43 88 -5 -5 -5 -19 0 -33 5 -13 12 -59 16 -102 l7 -78 -74 -102
c-112 -156 -134 -197 -104 -197 6 0 26 24 43 53 41 71 142 209 236 324 90 109
104 131 90 145 -6 6 -18 -2 -33 -24z"/>
<path d="M13245 8307 c-44 -32 -63 -57 -76 -99 -10 -31 -9 -41 5 -63 20 -30
46 -31 103 -5 45 20 48 27 56 112 3 36 0 51 -13 63 -22 20 -39 19 -75 -8z m49
-43 c13 -35 6 -74 -16 -88 -62 -39 -93 -28 -77 27 17 59 78 100 93 61z"/>
<path d="M3545 8283 c-4 -21 -15 -62 -26 -92 -20 -58 -19 -67 5 -58 15 6 42
81 53 150 4 29 2 37 -10 37 -9 0 -17 -14 -22 -37z"/>
<path d="M7982 8228 c-17 -50 -29 -95 -26 -100 11 -17 24 -7 45 35 28 54 66
104 86 111 13 6 15 -3 8 -69 -5 -61 -4 -75 7 -75 9 0 18 22 25 66 18 106 -9
142 -72 92 -27 -21 -27 -21 -17 -1 6 11 8 23 5 27 -18 18 -33 -3 -61 -86z"/>
<path d="M2738 8290 c-49 -38 -74 -132 -48 -180 13 -24 72 -41 108 -31 56 16
115 52 104 63 -8 8 -24 4 -56 -11 -51 -23 -106 -27 -124 -9 -7 7 -12 26 -12
43 0 29 2 31 30 27 45 -6 80 21 80 61 0 57 -36 73 -82 37z m50 -31 c-4 -27
-30 -44 -53 -35 -16 6 -15 9 9 31 33 31 48 32 44 4z"/>
<path d="M5105 8292 c-78 -48 -106 -121 -64 -163 20 -20 29 -21 96 -15 77 6
123 22 131 44 3 9 -2 10 -20 3 -12 -5 -25 -9 -28 -9 -3 0 -35 -3 -73 -7 -48
-5 -71 -4 -82 5 -25 21 -17 35 28 47 61 17 99 49 95 82 -4 33 -41 39 -83 13z
m55 -22 c0 -10 -22 -24 -64 -40 -36 -13 -32 -5 11 25 40 27 53 31 53 15z"/>
<path d="M12495 8281 c-55 -35 -91 -83 -94 -127 -2 -42 7 -56 47 -68 28 -9
134 12 127 25 -3 5 0 6 7 4 16 -7 56 20 46 31 -4 4 -27 0 -50 -9 -95 -34 -148
-31 -148 9 0 20 5 24 33 24 48 0 121 40 125 68 4 27 -23 62 -47 62 -9 0 -29
-9 -46 -19z m63 -33 c2 -11 -11 -21 -43 -33 -58 -23 -70 -11 -25 26 37 31 63
34 68 7z"/>
<path d="M6000 8268 c-56 -29 -88 -78 -72 -114 15 -31 53 -32 115 0 l47 23 -6
-26 c-34 -156 -49 -195 -71 -187 -9 4 -36 10 -59 13 -36 5 -44 2 -54 -16 -23
-43 17 -171 54 -171 19 0 60 50 82 99 16 37 20 39 55 38 46 -2 51 15 9 26 -34
9 -35 11 -16 63 7 22 19 71 26 109 7 39 19 84 26 101 7 17 10 34 7 38 -13 12
-33 6 -34 -11 0 -14 -2 -15 -6 -3 -6 18 -33 40 -48 40 -6 0 -31 -10 -55 -22z
m72 -43 c2 -15 -8 -26 -45 -44 -26 -13 -54 -21 -62 -17 -26 10 4 57 50 77 42
19 51 16 57 -16z m-83 -286 c17 -6 31 -13 31 -16 0 -12 -53 -93 -61 -93 -12 0
-25 29 -33 71 -9 51 3 59 63 38z"/>
<path d="M10976 8258 c-17 -60 -40 -108 -51 -108 -20 0 -30 -21 -14 -31 27
-17 40 -8 63 44 34 77 40 107 21 107 -9 0 -17 -6 -19 -12z"/>
<path d="M11061 8232 c-40 -43 -78 -109 -68 -119 13 -12 57 20 57 42 0 19 56
85 73 85 12 0 8 -46 -7 -82 -19 -43 -5 -72 17 -37 8 13 20 41 27 62 10 32 9
42 -4 62 -23 35 -53 31 -95 -13z"/>
<path d="M8540 8234 c-6 -14 -13 -44 -16 -66 -9 -56 16 -47 33 12 7 24 18 47
24 51 6 4 8 12 5 18 -12 19 -36 12 -46 -15z"/>
<path d="M3081 8014 c-23 -41 -41 -80 -41 -86 0 -6 -24 -9 -65 -6 -55 3 -65 2
-63 -12 2 -10 18 -17 51 -20 26 -3 47 -8 48 -13 0 -4 -10 -38 -22 -77 -18 -59
-19 -75 -9 -106 12 -35 14 -36 52 -31 43 6 74 25 61 38 -5 5 -23 3 -41 -3 -55
-21 -61 11 -22 127 l17 50 86 5 c86 5 109 12 91 30 -11 11 -56 1 -48 -11 3 -5
0 -9 -5 -9 -6 0 -11 5 -11 10 0 6 -20 10 -45 10 -25 0 -45 4 -45 10 0 5 16 38
35 73 35 63 44 97 26 97 -5 0 -28 -34 -50 -76z"/>
<path d="M2287 7938 c-4 -13 -1 -26 6 -30 9 -6 9 -8 -1 -8 -7 0 -10 -5 -7 -10
4 -6 11 -8 16 -5 12 8 12 -101 -1 -144 -18 -65 -78 -104 -95 -63 -4 9 -8 37
-9 61 -1 40 -3 45 -29 48 -17 2 -39 -4 -56 -17 -16 -11 -32 -20 -35 -20 -3 0
10 26 29 58 64 106 56 147 -21 112 -48 -22 -164 -106 -164 -120 0 -20 27 -9
81 31 71 53 109 73 109 57 0 -6 -28 -58 -61 -115 -39 -66 -58 -108 -52 -114 6
-6 35 11 78 46 38 30 75 55 82 55 9 0 13 -15 13 -43 0 -54 22 -87 60 -87 37 0
85 46 99 96 12 43 15 154 5 203 -8 37 -39 43 -47 9z"/>
<path d="M2717 7813 l-37 -38 6 34 c6 26 4 33 -7 29 -20 -7 -84 -177 -72 -189
7 -7 18 0 34 23 30 44 111 139 115 136 1 -2 -4 -27 -11 -56 -22 -84 4 -121 69
-96 26 10 18 24 -14 24 -26 0 -30 3 -30 29 0 16 7 48 15 72 28 78 -6 94 -68
32z"/>
<path d="M2540 7830 c0 -6 -10 -8 -24 -4 -53 13 -131 -64 -124 -123 4 -40 27
-39 80 2 49 37 51 37 62 -7 4 -16 13 -28 22 -28 13 0 15 6 8 28 -9 32 -9 55 1
105 6 31 5 37 -9 37 -9 0 -16 -5 -16 -10z m-30 -44 c0 -16 -78 -82 -86 -73 -9
9 14 44 42 66 31 25 44 26 44 7z"/>
<path d="M3180 7681 c-7 -14 -7 -22 1 -27 14 -8 43 21 35 35 -11 17 -24 13
-36 -8z"/>
<path d="M14784 7341 c-79 -48 -131 -153 -141 -282 l-6 -78 -41 -6 c-48 -8
-92 -33 -79 -46 5 -5 26 -2 48 6 22 8 46 14 53 15 17 0 16 -87 -3 -140 -18
-52 -19 -70 -2 -70 16 0 47 93 47 143 0 52 7 65 36 59 32 -6 31 15 -1 30 -21
10 -25 18 -25 58 0 107 54 233 119 277 42 29 68 29 97 2 l22 -21 -3 27 c-1 15
-9 31 -16 36 -23 15 -72 10 -105 -10z"/>
<path d="M8996 7196 c-44 -97 -47 -108 -36 -126 9 -13 12 -12 25 4 8 10 12 22
10 26 -3 4 9 37 25 74 31 69 37 96 20 96 -6 0 -26 -33 -44 -74z"/>
<path d="M11430 7228 c-29 -115 -100 -268 -162 -347 -13 -17 -15 -28 -8 -35 7
-7 29 9 73 51 67 65 115 98 104 70 -3 -8 -9 -46 -12 -84 -6 -57 -4 -71 9 -82
13 -11 22 -11 42 -2 30 13 27 37 -4 33 -25 -4 -26 -1 -11 87 8 55 8 67 -6 80
-14 15 -19 14 -53 -4 l-37 -21 27 56 c27 53 78 203 78 228 0 7 -7 12 -15 12
-8 0 -18 -17 -25 -42z"/>
<path d="M13915 7258 c-6 -18 -103 -274 -126 -333 -20 -53 -25 -95 -10 -95 5
0 33 27 62 60 29 33 53 59 55 57 2 -1 -2 -21 -7 -43 -19 -74 23 -118 89 -93
29 11 18 33 -14 26 -13 -2 -31 1 -40 8 -16 11 -15 17 4 80 11 38 19 72 16 77
-12 18 -40 5 -81 -37 -24 -25 -43 -43 -43 -40 0 2 12 30 26 62 22 49 104 270
104 280 0 9 -31 1 -35 -9z"/>
<path d="M8263 7248 c-33 -42 -153 -382 -153 -433 0 -16 6 -25 15 -25 8 0 15
9 15 20 0 30 76 262 117 354 20 46 30 83 25 88 -5 5 -13 3 -19 -4z"/>
<path d="M13065 7183 c-16 -200 -27 -232 -118 -330 -54 -58 -92 -84 -111 -77
-22 8 -20 27 6 77 12 23 21 46 20 50 -1 5 2 6 6 3 5 -3 17 3 27 14 20 22 55
26 72 9 6 -6 16 -8 23 -4 21 13 -20 45 -58 45 -28 0 -42 -8 -73 -42 -24 -26
-38 -50 -35 -60 2 -10 -1 -18 -9 -18 -15 0 -25 -22 -25 -54 0 -26 28 -56 52
-56 35 0 122 77 190 170 35 47 54 127 63 253 5 82 4 97 -9 97 -11 0 -16 -19
-21 -77z"/>
<path d="M13716 7178 c-34 -99 -40 -108 -77 -108 -37 0 -82 -18 -74 -29 3 -6
27 -7 54 -4 l49 6 -29 -82 c-32 -92 -38 -151 -14 -151 10 0 15 10 15 27 0 16
14 69 31 120 30 92 30 92 66 95 49 4 57 28 9 28 l-36 0 17 43 c9 23 20 47 24
52 4 6 9 25 11 44 6 64 -18 42 -46 -41z"/>
<path d="M5908 7188 c-24 -35 -61 -93 -82 -130 -27 -45 -47 -69 -63 -73 -23
-5 -28 -33 -6 -28 6 1 6 -12 0 -37 -23 -86 57 -146 167 -126 54 10 47 35 -8
29 -54 -6 -112 12 -127 39 -8 15 -8 31 0 59 10 34 15 38 54 44 104 17 168 37
165 54 -1 9 1 21 5 28 10 16 -4 22 -30 12 -14 -5 -21 -14 -17 -23 4 -10 -8
-17 -46 -25 -51 -11 -90 -14 -90 -7 0 18 128 206 140 206 6 0 10 9 10 20 0 37
-28 20 -72 -42z"/>
<path d="M3190 7229 c-41 -5 -120 -16 -175 -24 -55 -8 -126 -17 -158 -21 -36
-4 -56 -11 -54 -18 6 -17 139 -8 275 20 15 3 22 0 22 -11 0 -8 -29 -98 -65
-198 -66 -184 -79 -235 -60 -237 9 -1 31 58 131 346 38 111 42 114 129 114 31
0 32 -2 29 -32 -5 -42 -36 -136 -86 -257 -28 -69 -35 -98 -27 -105 8 -8 16 -4
27 14 32 50 102 110 128 110 21 0 24 -3 19 -22 -4 -11 -20 -43 -36 -70 -27
-46 -30 -68 -9 -68 4 0 18 19 31 43 12 23 28 53 35 67 18 33 18 55 -1 70 -23
19 -60 15 -96 -11 -30 -21 -32 -21 -25 -3 34 85 77 233 73 251 -4 20 0 23 24
23 19 0 29 5 29 15 0 17 -37 18 -160 4z"/>
<path d="M9097 7213 c-44 -50 -58 -153 -21 -153 12 0 15 6 10 25 -4 17 2 43
19 79 14 29 25 56 25 59 0 13 -17 7 -33 -10z"/>
<path d="M15379 7185 c-23 -91 -31 -105 -63 -105 -42 -1 -106 -16 -119 -29
-16 -16 8 -38 25 -24 7 6 34 14 60 18 l47 7 -34 -78 c-19 -44 -35 -88 -35
-100 0 -40 22 -85 49 -98 54 -28 149 -26 159 2 3 9 -15 12 -61 12 -121 0 -141
53 -74 194 l37 78 64 -7 c39 -4 66 -3 70 4 9 15 -8 22 -69 28 -49 5 -53 7 -46
27 20 53 22 76 6 76 -8 0 -16 -2 -16 -5z"/>
<path d="M2162 7141 c-7 -21 -12 -47 -12 -58 0 -11 -5 -35 -11 -52 l-11 -33
-102 3 c-80 2 -101 0 -101 -11 0 -18 48 -31 115 -29 30 0 58 0 63 0 4 -1 -1
-18 -12 -39 -13 -26 -41 -53 -85 -81 -80 -52 -94 -67 -77 -84 8 -8 14 -8 19
-1 4 5 25 23 47 40 22 16 34 22 28 13 -7 -9 -10 -19 -6 -22 15 -16 34 -4 53
33 18 35 71 79 114 96 9 3 17 -10 24 -38 12 -46 66 -138 81 -138 5 0 14 7 21
15 18 22 -1 80 -45 138 -19 25 -35 48 -35 50 0 2 38 21 85 42 47 21 85 42 85
46 0 16 -17 17 -85 3 -110 -21 -103 -25 -111 66 -7 89 -23 105 -42 41z m15
-123 c-3 -7 -5 -2 -5 12 0 14 2 19 5 13 2 -7 2 -19 0 -25z m-22 -85 c-22 -15
-28 -12 -19 10 3 9 12 13 21 10 14 -5 13 -8 -2 -20z m110 -93 c9 -16 13 -30
11 -30 -3 0 -12 14 -21 30 -9 17 -13 30 -11 30 3 0 12 -13 21 -30z"/>
<path d="M6811 7110 c-30 -69 -37 -110 -20 -110 8 0 24 27 37 63 28 75 30 89
16 94 -6 2 -21 -19 -33 -47z"/>
<path d="M6889 7095 c-17 -35 -29 -72 -27 -82 5 -28 30 -21 34 8 1 15 14 49
28 76 24 48 25 63 4 63 -5 0 -23 -29 -39 -65z"/>
<path d="M14856 7093 c-13 -13 -6 -63 9 -63 10 0 15 10 15 29 0 30 -12 46 -24
34z"/>
<path d="M11136 7032 c-75 -56 -119 -155 -84 -190 26 -26 136 2 125 31 -5 13
-9 13 -54 -5 -41 -15 -59 -2 -49 37 8 31 80 112 107 120 20 7 22 26 3 32 -6 2
-27 -9 -48 -25z"/>
<path d="M12344 7049 c-8 -14 11 -33 25 -25 6 4 11 14 11 22 0 16 -26 19 -36
3z"/>
<path d="M11925 7024 c-59 -31 -61 -70 -5 -125 22 -22 40 -46 40 -53 0 -29
-76 -36 -115 -10 -20 13 -25 13 -25 3 1 -39 49 -62 104 -49 79 18 89 65 26
124 -42 39 -49 56 -27 75 24 19 78 26 88 10 11 -19 34 3 26 25 -8 21 -72 21
-112 0z"/>
<path d="M4882 7000 c-23 -17 -42 -35 -42 -41 0 -6 -8 -8 -18 -5 -16 5 -20 -3
-30 -51 -6 -32 -14 -68 -18 -80 -5 -19 -2 -23 15 -23 15 0 21 6 21 23 1 57 76
161 126 173 14 4 31 1 39 -6 12 -10 16 -9 21 3 17 47 -54 51 -114 7z"/>
<path d="M7204 7001 c-65 -49 -88 -89 -137 -234 -49 -144 -57 -187 -33 -187
14 0 36 49 36 81 0 11 4 19 9 19 4 0 14 20 21 45 7 25 18 45 24 44 37 -4 60 7
111 52 65 60 85 94 85 143 0 69 -51 85 -116 37z m84 -34 c4 -35 -27 -86 -81
-132 -49 -42 -77 -46 -77 -10 0 43 25 88 74 133 52 48 79 51 84 9z"/>
<path d="M7675 7005 c-16 -13 -34 -25 -40 -25 -11 -1 -99 -145 -110 -181 -6
-17 -4 -21 8 -16 11 4 14 2 11 -8 -3 -8 -12 -11 -19 -9 -14 6 -52 -83 -62
-145 -10 -58 18 -32 67 62 42 81 47 87 77 87 25 0 40 10 78 52 49 55 95 135
95 166 0 46 -58 56 -105 17z m75 -15 c0 -41 -109 -190 -138 -190 -32 0 20 132
67 171 35 29 71 38 71 19z"/>
<path d="M13397 6994 c-25 -20 -50 -33 -56 -30 -18 11 -50 -50 -85 -165 -19
-63 -44 -141 -55 -173 -24 -69 -26 -96 -7 -96 8 0 27 44 51 118 20 64 44 133
52 152 12 30 16 33 24 18 18 -32 59 -22 103 26 57 62 91 126 82 159 -10 39
-51 36 -109 -9z m83 -6 c0 -18 -81 -138 -101 -148 -27 -15 -29 -13 -29 29 0
34 6 45 51 85 50 45 79 58 79 34z"/>
<path d="M8624 7001 c-17 -10 -40 -31 -52 -46 l-22 -28 0 32 c0 59 -24 27 -38
-50 -7 -41 -15 -86 -18 -101 -5 -22 -2 -28 10 -28 9 0 16 7 16 15 0 8 14 37
30 65 17 28 27 56 24 62 -4 7 -2 8 5 4 6 -4 14 0 17 8 8 22 65 55 89 53 12 -1
20 4 20 13 0 22 -46 23 -81 1z"/>
<path d="M14978 7003 c-37 -42 -88 -199 -72 -224 9 -15 34 10 34 35 0 63 58
185 81 171 17 -11 31 6 18 21 -16 19 -43 18 -61 -3z"/>
<path d="M3729 6992 c-13 -10 -29 -17 -36 -15 -7 3 -15 -8 -19 -24 -3 -15 -10
-41 -14 -58 -16 -56 -16 -120 -1 -120 9 0 19 21 27 61 23 113 56 151 121 139
30 -5 34 -4 31 12 -5 27 -76 30 -109 5z"/>
<path d="M7427 7004 c-3 -3 -4 -11 -2 -17 3 -7 -10 -21 -27 -32 -17 -11 -42
-40 -55 -64 -20 -39 -21 -47 -9 -65 21 -33 80 -33 122 -1 50 39 68 78 54 121
-13 38 -66 75 -83 58z m51 -82 c3 -26 -3 -38 -30 -62 -38 -35 -88 -42 -88 -12
0 37 75 114 105 108 6 -2 11 -17 13 -34z"/>
<path d="M3494 6981 c-44 -27 -94 -94 -101 -135 -7 -43 15 -81 52 -90 29 -7
118 30 109 46 -3 4 2 8 10 8 10 0 16 9 16 25 0 32 -6 31 -39 -4 -49 -53 -116
-52 -116 0 0 17 5 23 17 21 40 -6 148 71 148 106 0 43 -45 54 -96 23z m66 -20
c0 -22 -104 -90 -117 -77 -9 9 78 86 97 86 11 0 20 -4 20 -9z"/>
<path d="M7854 6965 c-37 -90 0 -173 73 -162 63 11 103 63 118 155 6 40 6 42
-19 42 -23 0 -25 -3 -20 -29 7 -35 -10 -93 -34 -114 -28 -25 -67 -31 -86 -12
-20 20 -21 71 -1 109 8 15 12 32 9 37 -11 18 -25 8 -40 -26z"/>
<path d="M8322 6980 c-40 -25 -85 -92 -80 -122 3 -20 8 -23 43 -22 22 0 48 4
57 8 13 6 17 1 20 -26 2 -21 8 -33 18 -33 11 0 14 9 12 33 -2 19 5 49 17 72
28 53 10 60 -39 16 -38 -34 -85 -55 -97 -42 -10 10 45 84 67 91 12 4 27 1 35
-5 8 -6 19 -9 24 -6 15 10 3 32 -23 44 -18 8 -30 6 -54 -8z"/>
<path d="M9685 6986 c-44 -19 -117 -102 -113 -129 4 -30 40 -34 84 -8 45 27
45 27 38 -7 -8 -37 20 -69 43 -50 13 10 13 14 -4 25 -17 13 -17 16 9 65 32 59
24 86 -14 51 -31 -27 -118 -77 -124 -70 -3 3 14 26 39 51 34 36 51 46 75 46
34 0 45 23 16 34 -9 3 -16 6 -17 6 -1 -1 -15 -7 -32 -14z"/>
<path d="M9896 6988 c-3 -7 -7 -27 -10 -44 -3 -18 -25 -76 -49 -130 -55 -123
-91 -230 -83 -249 6 -17 26 -20 26 -4 0 6 12 41 27 77 14 37 26 74 26 82 0 20
15 33 60 55 40 19 138 119 162 165 15 29 11 60 -7 60 -18 0 -74 -33 -106 -63
l-32 -31 11 32 c12 34 7 62 -11 62 -6 0 -12 -6 -14 -12z m123 -50 c-14 -27
-128 -138 -141 -138 -5 0 5 20 21 44 17 24 27 47 23 51 -4 5 -2 5 5 2 6 -4 21
5 32 19 12 15 21 24 21 20 0 -4 10 0 22 8 29 21 31 20 17 -6z"/>
<path d="M10403 6953 c-53 -49 -108 -137 -97 -154 10 -17 22 -6 52 51 32 61
103 123 128 113 12 -4 15 -1 12 13 -6 35 -41 27 -95 -23z"/>
<path d="M11637 6980 c-32 -25 -67 -97 -67 -136 0 -69 101 -121 188 -98 41 11
17 27 -40 28 -65 1 -111 28 -116 68 -3 22 0 24 30 20 62 -7 110 55 88 112 -12
32 -47 34 -83 6z m53 -32 c0 -30 -28 -58 -58 -58 -24 0 -24 0 -6 28 33 51 64
66 64 30z"/>
<path d="M3935 6973 c-49 -25 -104 -84 -121 -130 -15 -39 -15 -44 0 -68 22
-34 56 -40 113 -21 72 25 177 79 179 94 2 7 0 8 -3 2 -2 -5 -9 -8 -14 -5 -5 3
-45 -10 -89 -29 -106 -46 -133 -51 -154 -30 -21 21 -16 36 15 45 87 23 169
108 139 144 -15 19 -27 18 -65 -2z m35 -31 c0 -13 -41 -48 -77 -66 -40 -20
-42 -9 -5 26 42 39 82 59 82 40z"/>
<path d="M4664 6980 c-39 -15 -92 -75 -105 -119 -12 -39 -11 -45 5 -56 23 -17
47 -9 94 30 l39 34 -1 -42 c-1 -33 3 -42 18 -45 15 -3 18 0 13 18 -3 13 -1 48
5 78 9 42 9 57 0 60 -7 2 -12 10 -12 17 0 20 -31 34 -56 25z m26 -50 c0 -21
-77 -99 -97 -100 -7 0 -13 3 -13 6 0 26 75 114 97 114 7 0 13 -9 13 -20z"/>
<path d="M6158 6983 c-26 -7 -22 -23 5 -23 77 0 53 -111 -34 -155 -35 -19 -79
-19 -79 -2 0 23 52 94 81 111 32 19 38 36 13 36 -27 0 -73 -39 -99 -84 -41
-70 -30 -106 33 -106 69 0 141 57 161 127 10 35 -8 87 -34 97 -18 6 -20 6 -47
-1z"/>
<path d="M10210 6978 c-14 -5 -33 -11 -43 -12 -14 -1 -31 -32 -68 -126 -27
-69 -66 -162 -86 -208 -20 -45 -33 -85 -29 -89 16 -17 43 19 74 98 27 69 39
87 63 98 39 17 156 155 165 194 5 23 2 34 -12 44 -21 15 -30 15 -64 1z m43
-46 c-5 -21 -107 -142 -130 -156 -12 -6 -14 -4 -8 15 14 44 47 104 73 132 30
32 73 38 65 9z"/>
<path d="M10574 6978 c-40 -22 -84 -73 -90 -105 -9 -48 8 -63 71 -63 78 0 94
18 102 107 l6 71 -35 0 c-19 0 -43 -5 -54 -10z m52 -71 c-4 -23 -12 -47 -18
-54 -12 -15 -98 -18 -98 -3 0 24 33 72 62 90 45 27 62 17 54 -33z"/>
<path d="M10792 6960 c-109 -79 -85 -193 28 -135 28 15 30 14 30 -4 0 -27 28
-47 47 -35 19 12 17 30 -3 26 -18 -4 -19 -5 16 76 35 83 35 82 12 82 -12 0
-23 -13 -31 -36 -9 -24 -27 -45 -59 -65 -80 -51 -109 -31 -51 35 33 38 89 72
89 54 0 -6 3 -8 6 -5 9 9 -15 37 -31 37 -6 0 -31 -13 -53 -30z"/>
<path d="M13134 6980 c-47 -19 -94 -103 -94 -168 0 -13 14 -37 30 -54 30 -30
42 -31 113 -12 35 10 16 24 -28 19 -37 -4 -50 0 -67 17 l-21 21 51 24 c80 38
110 91 82 144 -11 20 -32 23 -66 9z m43 -36 c9 -25 -12 -58 -50 -79 -39 -21
-52 -17 -43 12 7 22 64 83 78 83 5 0 11 -7 15 -16z"/>
<path d="M15130 6972 c-48 -26 -52 -62 -11 -93 36 -27 38 -35 12 -49 -23 -12
-51 -3 -51 16 0 8 -7 14 -16 14 -25 0 -13 -42 17 -59 22 -12 31 -13 58 -1 34
14 54 41 46 62 -3 7 -19 22 -35 33 -32 21 -34 32 -7 49 13 8 20 6 31 -9 13
-18 15 -18 21 -3 10 25 2 52 -15 56 -8 1 -31 -6 -50 -16z"/>
<path d="M14241 6946 c-17 -20 -6 -23 83 -17 51 4 81 11 84 19 6 18 -152 17
-167 -2z"/>
<path d="M5000 6913 c-19 -15 -36 -31 -38 -35 -2 -5 -12 -8 -21 -8 -18 0 -21
-13 -23 -93 -1 -43 33 -72 85 -71 43 1 152 49 176 77 22 27 -7 29 -46 3 -52
-35 -120 -57 -150 -50 -30 8 -43 40 -31 75 7 22 20 28 83 43 80 19 105 37 88
64 -18 29 -83 27 -123 -5z m65 -18 c-40 -19 -67 -18 -35 0 14 8 34 14 45 14
15 -1 13 -4 -10 -14z"/>
<path d="M14784 6875 c-19 -46 -19 -95 1 -95 10 0 15 10 15 28 0 15 7 40 15
56 8 15 12 32 9 37 -11 18 -25 8 -40 -26z"/>
<path d="M12230 6867 c0 -8 7 -28 16 -46 13 -26 19 -30 30 -20 19 15 18 31 -4
50 -31 27 -42 31 -42 16z"/>
<path d="M4909 6365 c-40 -22 -64 -87 -64 -176 l0 -76 -54 -14 c-66 -17 -86
-46 -25 -35 22 3 50 9 63 13 l24 6 -6 -84 c-3 -46 -9 -94 -13 -106 -5 -17 -2
-23 9 -23 21 0 27 23 34 116 5 73 8 81 24 77 26 -7 24 12 -3 37 -20 18 -23 31
-23 93 1 81 21 131 60 149 18 8 28 8 40 -2 12 -10 16 -9 21 5 13 33 -40 46
-87 20z"/>
<path d="M5696 6358 c-3 -13 -7 -41 -10 -63 -3 -22 -11 -57 -16 -77 l-11 -38
-70 0 c-52 0 -70 -3 -67 -12 3 -8 29 -14 70 -16 l65 -3 2 -50 c3 -89 57 -179
108 -179 30 0 30 18 -1 30 -39 14 -67 65 -73 130 l-6 58 49 7 c27 3 55 7 63 8
8 1 16 8 19 15 3 10 -9 13 -49 12 -30 -1 -59 -1 -65 -1 -8 1 -5 29 7 89 10 48
17 93 14 100 -7 20 -24 14 -29 -10z"/>
<path d="M4036 6224 l-39 -145 -51 2 c-39 2 -51 0 -51 -11 0 -10 14 -16 44
-18 42 -3 43 -4 37 -34 -11 -56 30 -166 54 -142 7 7 6 20 -5 40 -15 29 -20 99
-9 128 4 12 20 16 55 16 37 0 49 4 49 15 0 11 -12 15 -46 15 -40 0 -45 2 -39
18 9 22 56 199 62 235 4 19 1 27 -9 27 -9 0 -26 -46 -52 -146z"/>
<path d="M4170 6341 c0 -11 6 -22 13 -24 10 -4 10 -6 0 -6 -8 -1 -13 -17 -13
-45 0 -42 -23 -154 -53 -256 -14 -46 -12 -80 3 -80 5 0 24 18 42 41 18 23 45
55 60 73 l27 31 1 -78 c0 -73 1 -78 25 -87 26 -10 68 0 79 19 9 14 -14 25 -26
13 -5 -5 -19 -7 -29 -5 -18 5 -20 13 -18 84 4 111 -7 118 -77 45 -31 -31 -53
-49 -50 -39 46 157 63 333 31 333 -8 0 -15 -9 -15 -19z"/>
<path d="M2727 6344 c-4 -4 -4 -17 -1 -28 4 -17 -18 -140 -51 -281 -2 -11 -14
-24 -27 -30 -12 -5 -27 -23 -33 -38 -19 -55 37 -109 99 -93 65 16 156 136 142
189 -11 45 -94 74 -125 45 -11 -11 -12 -9 -8 7 19 71 38 177 35 201 -3 27 -18
41 -31 28z m84 -273 c21 -16 22 -21 10 -49 -18 -44 -82 -109 -114 -117 -15 -4
-30 -6 -32 -3 -8 8 29 114 53 150 27 42 49 47 83 19z"/>
<path d="M3796 6274 c-3 -8 -1 -35 4 -59 19 -83 15 -168 -9 -233 -42 -112 -91
-133 -134 -56 -9 15 49 94 68 94 17 0 20 26 4 36 -13 8 -75 -50 -95 -88 -20
-39 -18 -56 15 -89 62 -61 127 -26 172 93 26 68 30 172 10 245 -7 24 -7 41 -1
47 15 15 12 26 -9 26 -10 0 -22 -7 -25 -16z"/>
<path d="M2050 6230 c-11 -7 -12 -12 -3 -21 14 -14 56 -2 50 14 -5 16 -28 19
-47 7z"/>
<path d="M5007 6206 c-7 -19 1 -26 30 -26 26 0 32 25 7 34 -24 9 -31 7 -37 -8z"/>
<path d="M3012 6125 c-17 -14 -34 -35 -37 -45 -4 -13 -14 -19 -28 -17 -18 2
-22 -5 -28 -47 -4 -27 -13 -61 -19 -77 -11 -27 -7 -49 9 -49 4 0 31 47 60 105
51 104 70 125 111 125 30 0 20 24 -12 28 -16 2 -37 -7 -56 -23z"/>
<path d="M5177 6102 c-13 -27 -28 -47 -34 -45 -13 5 -29 -156 -19 -183 11 -29
23 -4 45 96 12 52 28 106 36 120 12 22 14 23 20 8 7 -19 35 -25 35 -8 0 5 -5
21 -12 35 -18 40 -46 32 -71 -23z"/>
<path d="M5390 6133 c-28 -10 -70 -57 -70 -78 0 -12 19 -39 45 -64 50 -47 60
-77 23 -66 -13 4 -37 21 -54 37 -37 34 -56 22 -29 -18 20 -31 80 -58 111 -50
19 5 24 13 24 37 0 24 -11 42 -45 76 -25 24 -45 48 -45 52 0 10 31 36 51 44 9
3 26 -1 37 -9 28 -19 40 1 16 27 -17 19 -35 22 -64 12z"/>
<path d="M3167 6057 c-123 -74 -113 -219 13 -204 58 7 100 26 100 45 0 10 -6
12 -22 7 -85 -25 -100 -27 -124 -17 -13 7 -24 20 -24 29 0 15 9 19 41 19 93 3
149 106 72 135 -14 5 -32 0 -56 -14z m63 -28 c0 -37 -65 -78 -97 -61 -11 7 -7
15 22 40 35 31 75 43 75 21z"/>
<path d="M3364 6006 c-80 -79 -39 -150 56 -101 28 15 30 14 30 -3 0 -10 9 -27
20 -37 16 -15 23 -16 33 -6 9 10 8 14 -5 22 -22 12 -23 49 -4 104 11 30 11 44
3 53 -9 12 -13 11 -22 -1 -9 -12 -12 -12 -23 -1 -21 23 -43 16 -88 -30z m88
-29 c-19 -33 -67 -61 -88 -53 -20 8 -17 20 12 55 20 25 32 30 59 28 l33 -2
-16 -28z"/>
<path d="M4995 6040 c-3 -5 -4 -14 0 -19 3 -5 1 -12 -4 -15 -13 -9 -23 -74
-16 -107 9 -42 39 -39 33 3 -5 28 3 80 18 131 6 18 -20 25 -31 7z"/>
<path d="M4490 6028 c0 -5 12 -13 26 -18 32 -13 87 -13 80 -1 -4 5 3 7 14 4
13 -4 20 0 20 9 0 10 -17 14 -70 14 -38 1 -70 -3 -70 -8z"/>
<path d="M2034 5995 c-9 -37 4 -44 26 -15 25 32 25 40 0 40 -13 0 -22 -9 -26
-25z"/>
<path d="M10100 5383 c0 -13 -15 -23 -47 -33 -37 -12 -54 -25 -79 -63 -35 -50
-52 -130 -40 -190 3 -18 7 -39 8 -48 2 -10 -42 -46 -127 -103 -71 -49 -140
-97 -151 -108 -24 -21 -47 -19 -123 15 -54 24 -94 17 -151 -24 -72 -52 -112
-173 -75 -226 14 -20 14 -23 -7 -34 -89 -48 -196 -104 -338 -177 l-165 -84
-89 -2 c-84 -1 -91 -3 -122 -31 -38 -35 -84 -122 -84 -158 0 -32 -42 -53 -148
-73 -42 -8 -104 -23 -137 -33 -33 -11 -80 -23 -105 -26 -25 -4 -79 -20 -120
-35 -162 -60 -169 -61 -222 -38 -27 11 -52 27 -56 34 -6 11 -18 12 -54 6 -56
-11 -137 -71 -168 -125 -20 -35 -21 -44 -11 -98 10 -59 30 -97 68 -131 21 -19
125 -58 154 -58 28 0 97 50 124 91 29 44 44 158 28 206 -12 34 -2 47 44 50 18
2 57 14 88 28 30 13 83 29 118 36 34 6 82 18 107 26 24 8 86 23 136 33 51 10
109 26 129 35 34 17 36 17 49 -1 14 -19 13 -23 -99 -189 -18 -27 -51 -76 -72
-107 -40 -60 -73 -79 -99 -58 -8 8 -37 12 -67 11 -41 -1 -63 -9 -112 -41 -72
-47 -95 -82 -95 -145 0 -80 40 -136 125 -176 68 -33 98 -35 152 -14 71 28 106
94 119 223 5 46 3 57 -16 77 -30 32 -23 57 46 147 31 40 66 93 80 118 13 25
34 58 47 73 l24 28 56 -18 56 -18 6 -55 c3 -30 14 -91 25 -135 11 -44 22 -113
25 -154 4 -40 9 -79 11 -86 3 -8 -11 -19 -38 -30 -95 -36 -144 -111 -133 -206
7 -62 25 -85 101 -132 82 -51 154 -44 225 20 30 27 40 46 50 90 6 31 9 77 6
101 -4 39 -12 51 -63 98 -39 35 -68 53 -85 54 -31 0 -36 12 -45 121 -3 41 -15
103 -25 138 -10 35 -19 81 -19 103 0 21 -4 47 -10 57 -9 18 -2 22 88 47 32 8
51 58 59 153 6 78 6 79 -25 106 l-31 27 177 90 c97 50 221 112 274 139 l96 49
54 -22 c29 -12 54 -22 55 -22 1 -1 -12 -55 -28 -121 -16 -66 -29 -129 -29
-141 0 -17 -8 -23 -32 -28 -38 -8 -78 -40 -113 -92 -20 -29 -25 -49 -25 -96 0
-55 3 -62 34 -92 55 -51 93 -76 114 -76 24 0 25 -4 47 -125 9 -49 20 -110 25
-135 9 -44 8 -46 -27 -75 -40 -32 -83 -115 -83 -158 0 -55 92 -143 174 -165
30 -9 46 -8 74 4 91 38 141 107 142 196 0 62 -13 95 -58 140 -35 35 -39 37
-77 28 -64 -15 -95 -13 -95 8 0 9 -7 26 -15 36 -8 11 -15 32 -15 46 0 14 -9
65 -19 113 l-19 87 43 19 c74 33 122 150 91 224 -16 40 -85 97 -116 97 -21 0
-22 3 -16 53 9 62 40 201 55 240 7 19 18 27 35 27 43 0 95 29 112 62 18 34 24
124 12 173 -8 29 -5 32 127 124 74 52 150 103 170 112 35 17 37 17 88 -7 57
-26 92 -29 152 -10 l40 12 47 -49 c25 -27 63 -74 85 -104 21 -30 54 -75 75
-100 34 -43 36 -49 31 -100 -6 -54 -6 -54 41 -98 26 -25 56 -45 69 -45 12 0
31 -7 41 -15 11 -8 27 -13 36 -10 31 10 55 -158 30 -205 -8 -15 -6 -21 7 -29
20 -11 20 -11 -28 -33 -73 -33 -93 -148 -39 -229 27 -42 49 -59 92 -72 13 -5
15 -14 11 -46 -3 -22 -1 -60 5 -83 6 -24 13 -83 17 -133 l6 -90 -33 -21 c-47
-30 -98 -132 -98 -196 0 -65 11 -83 67 -108 26 -11 54 -27 63 -35 25 -22 118
-16 160 10 74 47 84 66 88 171 4 89 3 97 -19 120 -27 29 -125 84 -149 84 -9 0
-21 -5 -28 -12 -7 -7 -12 -10 -13 -7 -2 9 -6 47 -13 109 -4 36 -12 88 -18 116
-15 73 -6 100 35 107 102 16 142 61 141 162 -1 120 -72 205 -163 192 -49 -6
-47 -11 -55 140 -6 94 -5 103 13 113 11 5 28 23 37 39 l17 29 45 -36 c59 -49
265 -253 260 -258 -3 -2 -20 1 -39 6 -45 13 -49 13 -49 -5 0 -8 12 -17 28 -21
15 -4 37 -13 50 -21 24 -15 47 -9 36 9 -4 6 -3 9 2 6 5 -4 7 -30 5 -59 -3 -57
-6 -56 -43 10 -19 34 -48 42 -48 12 0 -19 -18 -64 -45 -111 -26 -44 -20 -52
33 -44 26 4 49 10 52 14 12 18 77 3 105 -23 49 -45 77 -52 158 -37 81 14 115
42 149 120 40 91 -5 174 -121 226 -85 38 -116 33 -174 -28 l-50 -51 -58 61
c-32 34 -61 62 -66 62 -4 0 -19 16 -32 36 -14 20 -53 56 -87 80 -83 59 -96 81
-99 168 -3 54 -7 73 -20 81 -10 5 -30 20 -45 33 -15 12 -37 22 -48 22 -12 0
-24 5 -27 10 -11 18 -48 10 -95 -20 -26 -16 -52 -41 -59 -54 l-13 -24 -28 31
c-15 18 -52 66 -82 107 -31 41 -69 88 -86 103 l-30 29 18 31 c10 18 28 68 39
112 18 71 19 82 6 102 -8 12 -15 28 -15 36 0 27 -61 97 -85 97 -12 0 -36 7
-51 15 -40 21 -74 19 -74 -2z m149 -87 c46 -44 56 -90 36 -166 -20 -79 -31
-100 -51 -100 -8 0 -26 -7 -39 -16 -59 -38 -189 -4 -221 58 -37 71 10 219 80
249 11 5 54 7 94 5 63 -3 77 -7 101 -30z m-757 -486 c38 0 95 -24 112 -48 37
-48 18 -192 -25 -192 -10 0 -21 -5 -25 -11 -4 -7 -24 -9 -55 -6 -29 4 -49 2
-49 -4 0 -17 -78 30 -99 60 -26 37 -26 59 0 119 24 54 94 111 113 92 6 -6 18
-10 28 -10z m1128 -30 c0 -5 15 -10 33 -10 21 0 40 -9 56 -25 13 -14 29 -25
36 -25 16 0 24 -59 15 -117 -11 -72 -79 -121 -134 -95 -11 6 -33 13 -47 16
-15 3 -41 19 -59 36 -30 28 -32 33 -25 77 9 65 28 98 72 128 41 27 53 31 53
15z m684 -476 c4 -11 13 -14 30 -10 17 4 34 -3 61 -24 21 -17 42 -30 47 -30 5
0 13 -12 18 -26 14 -36 -5 -96 -44 -138 -25 -28 -43 -36 -93 -45 -53 -10 -67
-9 -93 4 -35 18 -67 65 -76 112 -7 38 19 112 52 148 27 30 88 35 98 9z m-2514
-83 l42 -33 -7 -62 c-11 -93 -20 -107 -89 -124 -71 -17 -130 -5 -139 29 -3 12
-10 19 -14 16 -5 -3 -14 3 -21 14 -7 11 -8 19 -2 19 5 0 10 7 10 15 0 8 -7 15
-16 15 -17 0 -14 19 13 78 25 52 52 68 121 67 53 0 65 -4 102 -34z m2078 -59
c7 -9 20 -41 28 -70 13 -45 14 -59 2 -95 -11 -35 -21 -46 -62 -66 -42 -21 -52
-23 -80 -13 -18 7 -40 12 -49 12 -9 0 -32 21 -52 48 -34 43 -37 51 -33 99 5
60 28 92 61 86 12 -2 33 3 47 11 34 19 121 12 138 -12z m-1488 3 c0 -16 7 -18
56 -15 17 1 36 -6 43 -14 8 -9 22 -16 32 -16 31 0 41 -68 19 -134 -15 -47 -52
-77 -105 -87 -43 -8 -51 -6 -90 21 -24 17 -51 40 -60 52 -33 48 -11 136 46
181 38 30 59 34 59 12z m-1657 -275 c25 -16 52 -30 60 -30 29 0 42 -31 41 -96
-2 -70 -19 -106 -78 -163 l-35 -34 -60 23 c-64 23 -117 72 -125 113 -13 62
-13 84 0 109 17 32 112 108 136 108 9 0 37 -13 61 -30z m532 -232 c14 -6 25
-17 25 -24 0 -8 16 -21 36 -29 l37 -15 -5 -65 c-13 -158 -105 -219 -231 -151
-84 46 -123 144 -82 204 48 67 159 108 220 80z m1392 -160 c13 -12 30 -45 39
-74 16 -49 16 -53 -2 -90 -29 -57 -87 -99 -137 -99 -50 0 -123 43 -156 92 -20
27 -21 36 -12 71 13 47 43 87 85 114 42 26 149 18 183 -14z m1238 -4 c24 -9
50 -29 64 -50 21 -30 23 -42 18 -97 -5 -57 -9 -65 -47 -99 -43 -38 -77 -46
-159 -39 -26 2 -76 34 -99 61 -18 22 -9 98 18 153 48 96 95 112 205 71z
m-2030 -56 c15 -16 31 -28 34 -28 4 0 15 -18 24 -39 34 -76 1 -161 -76 -199
-40 -20 -52 -22 -85 -13 -48 13 -129 67 -136 89 -23 82 -5 151 50 189 39 27
51 30 110 29 42 -1 57 -6 79 -28z"/>
<path d="M4702 5336 c-55 -29 -92 -87 -112 -176 -10 -47 -10 -61 3 -91 l15
-36 -42 -23 c-22 -13 -54 -33 -71 -46 -16 -12 -64 -36 -106 -53 -42 -17 -109
-52 -150 -76 -41 -25 -78 -45 -82 -45 -4 0 -11 9 -15 19 -4 11 -24 33 -46 50
l-39 31 40 18 c54 24 113 65 113 78 0 13 -43 34 -71 34 -11 0 -37 9 -59 20
-62 31 -63 30 -58 -64 l4 -84 -22 15 c-34 22 -97 2 -125 -40 -12 -17 -28 -37
-36 -44 -15 -12 -41 -118 -41 -167 1 -33 -29 -63 -71 -72 -14 -4 -77 -31 -140
-61 -110 -52 -220 -93 -248 -93 -7 0 -41 -14 -74 -31 l-61 -30 -29 27 c-26 25
-36 28 -90 27 -73 -2 -116 -32 -148 -105 -12 -26 -26 -50 -31 -53 -15 -9 -12
-56 5 -105 18 -50 18 -50 5 -50 -6 0 -47 -17 -93 -39 -45 -21 -116 -49 -157
-61 -41 -12 -129 -48 -195 -79 -168 -82 -167 -81 -212 -27 -7 8 -17 16 -23 18
-15 5 30 84 59 104 22 16 26 31 12 52 -7 11 -16 11 -50 1 -34 -10 -49 -10 -77
0 -20 7 -38 10 -42 6 -4 -3 6 -30 21 -58 35 -68 35 -92 -2 -111 -36 -19 -85
-75 -112 -128 -24 -47 -20 -110 9 -150 9 -13 22 -32 28 -43 6 -11 31 -30 55
-42 36 -19 54 -22 102 -17 88 8 105 18 129 71 17 38 19 59 15 122 -3 42 -8 85
-12 96 -5 17 10 27 112 77 65 31 158 69 208 83 49 15 115 40 146 56 31 16 71
32 88 35 40 8 41 -7 1 -86 -16 -32 -45 -103 -63 -157 -26 -75 -106 -263 -124
-292 -1 -2 -10 4 -19 14 -16 15 -18 15 -33 0 -15 -15 -14 -18 12 -41 15 -13
36 -24 47 -24 15 0 19 -10 22 -62 5 -91 -5 -119 -56 -156 -38 -27 -53 -32
-103 -32 -83 0 -111 31 -127 142 -9 60 8 119 45 154 37 36 158 69 175 48 15
-19 24 -17 24 5 0 37 -23 43 -97 26 -115 -27 -167 -78 -180 -175 -5 -34 6
-111 22 -150 8 -22 -44 -50 -94 -50 -48 0 -55 -19 -16 -44 14 -9 25 -20 25
-24 -1 -12 -69 -42 -95 -42 -16 0 -25 -6 -25 -15 0 -22 69 -19 99 4 19 14 28
16 47 7 13 -6 24 -17 24 -23 0 -7 7 -13 15 -13 8 0 15 6 16 13 1 39 13 104 21
120 8 16 11 16 31 2 14 -10 45 -15 91 -15 62 0 74 3 122 35 29 19 56 45 61 58
13 39 5 188 -11 206 -14 15 -11 27 31 116 25 55 61 145 80 200 41 120 92 225
109 225 6 0 14 -7 18 -15 3 -8 14 -15 24 -15 17 0 20 -15 30 -162 7 -90 14
-232 15 -317 l2 -154 -45 -12 c-66 -17 -102 -39 -145 -86 -36 -40 -37 -44 -32
-97 3 -31 19 -82 35 -114 l29 -59 -35 -24 c-19 -13 -41 -21 -49 -18 -13 5 -42
-22 -43 -39 0 -4 9 -16 21 -27 l20 -19 -22 -16 c-13 -9 -29 -16 -36 -16 -7 0
-13 -7 -13 -15 0 -21 33 -19 64 6 14 11 26 16 26 10 0 -6 5 -11 12 -11 6 0 19
-7 29 -16 10 -9 22 -13 27 -10 15 9 35 93 29 118 -10 40 4 48 102 55 110 7
135 22 177 109 21 42 25 64 21 96 -7 55 -67 140 -109 156 l-33 12 -1 252 c-1
139 -5 290 -9 336 l-8 82 24 -2 c17 -2 27 5 37 26 14 28 15 29 29 10 33 -44
82 -136 132 -244 28 -63 74 -154 102 -202 27 -47 65 -126 83 -175 19 -48 40
-102 47 -120 13 -31 12 -32 -43 -82 -67 -62 -88 -102 -88 -173 0 -71 30 -122
100 -169 52 -36 82 -43 156 -40 31 1 103 61 125 103 25 49 34 110 21 148 -10
29 -9 32 16 42 15 6 46 11 70 10 38 0 42 2 42 24 0 14 -7 27 -15 31 -14 5 -13
7 3 19 27 18 48 72 34 86 -7 7 -15 1 -26 -21 -14 -26 -43 -51 -59 -51 -3 0 -8
11 -11 25 -7 27 -36 35 -36 10 0 -9 -6 -18 -14 -21 -7 -3 -16 -23 -20 -45 -3
-21 -9 -39 -12 -39 -10 0 -83 40 -88 49 -4 5 -20 13 -37 16 -37 8 -70 39 -86
80 -6 16 -27 73 -47 125 -20 52 -56 128 -81 170 -24 41 -76 142 -115 224 -39
82 -87 176 -106 208 l-36 59 27 39 c23 33 26 46 22 92 -2 29 -8 63 -12 75 -6
18 -1 25 35 43 23 12 75 30 116 41 40 10 128 46 195 79 67 33 128 60 136 60
29 0 95 41 89 56 -11 30 11 12 32 -25 13 -22 31 -43 42 -46 11 -4 20 -12 20
-20 0 -7 7 -16 16 -19 18 -7 15 -34 -12 -125 -14 -48 -17 -51 -49 -51 -26 0
-42 -9 -74 -42 -45 -47 -91 -130 -91 -164 0 -12 15 -55 34 -95 36 -78 70 -110
133 -123 43 -10 113 12 123 39 4 11 15 26 23 33 16 13 12 18 122 -152 32 -49
70 -116 85 -150 27 -58 28 -62 11 -81 -47 -54 -54 -75 -49 -155 4 -66 9 -84
37 -127 29 -44 38 -51 74 -56 93 -13 195 20 221 71 21 41 39 140 32 177 -4 18
-15 40 -26 50 -11 10 -20 24 -20 31 0 24 -71 46 -148 48 l-73 2 -45 84 c-25
47 -56 99 -68 115 -12 17 -44 65 -70 108 l-49 79 21 37 c35 62 37 108 10 171
-22 49 -31 58 -79 80 -30 13 -55 25 -57 26 -2 1 5 39 15 83 14 66 21 81 36 81
11 0 31 13 45 28 15 16 37 34 49 40 29 16 53 89 62 190 0 6 6 12 13 12 6 0 41
18 78 40 36 22 107 58 159 80 51 22 107 51 124 64 50 37 108 61 122 50 56 -41
67 -45 127 -47 72 -2 115 17 142 64 10 16 21 29 25 29 5 0 27 -27 50 -60 23
-32 54 -69 69 -80 15 -12 59 -50 98 -86 59 -54 70 -68 66 -89 -5 -28 -12 -31
-30 -13 -10 10 -14 10 -21 0 -6 -9 -19 -11 -45 -7 -41 8 -45 -2 -23 -58 13
-32 13 -32 -49 -87 -59 -52 -77 -80 -53 -80 6 0 35 21 65 46 47 41 54 44 54
25 0 -22 7 -25 34 -15 10 4 16 18 16 36 0 16 12 46 26 66 l26 37 -7 -32 c-10
-48 40 -116 97 -134 42 -14 43 -15 40 -54 -4 -57 -22 -155 -33 -186 -10 -26
-65 -59 -99 -59 -10 0 -34 -19 -53 -42 -40 -52 -63 -149 -48 -212 11 -46 75
-116 107 -116 11 0 35 -5 51 -11 38 -13 61 -72 92 -229 11 -58 26 -136 34
-175 29 -140 30 -153 5 -160 -50 -16 -86 -54 -102 -109 -30 -103 -17 -153 56
-202 38 -25 54 -29 129 -32 l87 -4 40 36 c77 70 94 152 48 231 -15 24 -38 52
-54 63 -30 22 -126 47 -141 38 -6 -4 -13 10 -16 31 -19 125 -81 411 -99 461
-14 40 -14 42 4 42 28 0 62 37 58 63 -1 12 7 38 19 57 35 56 48 124 34 171
-16 52 -76 119 -107 119 -20 0 -22 3 -15 23 5 12 14 61 22 110 9 57 18 87 26
87 7 0 13 7 13 15 0 11 11 15 37 15 28 0 42 6 58 26 l21 26 25 -38 c14 -22 56
-84 92 -139 37 -56 67 -106 67 -113 0 -7 -6 -23 -14 -35 -7 -12 -19 -47 -26
-79 -12 -52 -11 -59 9 -101 23 -48 44 -61 125 -76 27 -5 53 -16 58 -25 13 -23
45 -20 93 11 32 20 51 43 74 90 35 71 38 98 17 148 -17 40 -101 124 -131 130
-83 17 -93 16 -124 -11 -17 -14 -38 -24 -45 -21 -8 3 -53 64 -101 136 -47 72
-90 133 -95 136 -5 3 2 22 15 42 16 22 25 50 25 73 0 59 -18 139 -37 164 -28
37 -96 76 -134 76 -52 0 -107 -19 -114 -38 -3 -9 -18 -32 -33 -50 l-28 -34
-101 90 c-55 50 -117 114 -137 142 -20 28 -43 53 -51 56 -11 5 -15 25 -15 83
0 98 -25 146 -90 178 -46 22 -115 27 -148 9z m189 -91 c20 -34 26 -140 8 -151
-6 -3 -8 -16 -5 -28 13 -54 -81 -102 -153 -76 -78 27 -130 106 -116 178 9 50
54 119 85 131 69 28 147 4 181 -54z m-870 -385 c82 -37 91 -49 90 -119 -1
-122 -36 -175 -115 -179 -22 -2 -43 -5 -47 -8 -17 -10 -65 26 -83 63 -10 21
-21 44 -25 52 -4 8 -2 38 4 67 8 39 21 65 51 98 46 51 62 55 125 26z m1462
-17 c48 -34 64 -63 73 -141 7 -70 -10 -112 -47 -112 -14 0 -19 -6 -18 -17 2
-10 -3 -28 -10 -41 -11 -20 -18 -22 -61 -19 -121 11 -199 119 -160 222 18 47
80 120 108 126 52 13 76 9 115 -18z m-2328 -469 c14 -9 25 -23 25 -30 0 -8 6
-14 13 -14 8 0 19 -11 25 -25 36 -78 -18 -182 -105 -208 -29 -8 -53 -10 -60
-5 -7 5 -14 5 -18 -2 -11 -18 -44 18 -38 41 4 13 0 19 -10 19 -59 0 -44 148
21 211 33 32 108 39 147 13z m835 -107 c37 -18 47 -30 62 -70 23 -61 13 -104
-37 -170 -28 -37 -44 -47 -82 -57 -27 -6 -57 -14 -68 -16 -12 -3 -31 3 -46 15
-32 25 -84 151 -75 183 3 13 27 49 53 81 45 56 47 57 97 57 33 0 67 -8 96 -23z
m1976 -38 c25 -24 50 -60 55 -80 10 -32 8 -44 -17 -99 -18 -41 -36 -65 -51
-71 -31 -12 -100 -12 -107 0 -3 5 -29 14 -56 21 -63 15 -80 38 -80 108 0 59
17 99 50 122 13 8 32 23 44 33 16 13 33 17 69 14 41 -4 55 -11 93 -48z m-569
-62 c45 -42 57 -84 42 -139 -16 -52 -84 -158 -104 -158 -7 0 -15 -5 -17 -12
-3 -7 -24 -2 -63 18 -73 36 -100 81 -99 165 1 74 31 125 82 139 20 5 43 14 50
18 23 15 77 0 109 -31z m-3205 -279 c-15 -15 3 -38 30 -38 10 0 36 -11 56 -25
20 -14 42 -25 49 -25 7 0 13 -11 13 -24 0 -14 4 -27 8 -30 15 -9 11 -90 -6
-126 -14 -29 -25 -37 -67 -48 -44 -11 -57 -10 -104 5 -39 13 -56 25 -63 43 -5
14 -15 32 -22 40 -46 53 -11 152 76 217 34 25 50 31 30 11z m2243 -322 c56
-23 80 -60 78 -116 -6 -129 -66 -178 -209 -171 -43 2 -84 66 -91 143 -7 68 7
108 50 144 27 23 38 26 82 21 27 -3 68 -12 90 -21z m-1331 -248 c11 18 84 -18
106 -53 31 -50 35 -87 12 -136 -35 -79 -60 -95 -154 -102 -51 -3 -88 -1 -95 5
-37 31 -85 180 -67 210 17 29 85 81 122 94 34 12 38 11 53 -8 10 -13 19 -17
23 -10z m554 -106 c142 -13 195 -154 97 -260 -31 -35 -36 -37 -97 -37 -55 0
-68 4 -103 30 -51 39 -62 52 -76 95 -17 54 3 111 57 168 43 45 46 46 59 28 10
-12 31 -20 63 -24z m1918 19 c31 -14 47 -30 63 -63 36 -74 28 -113 -37 -180
-34 -36 -39 -38 -100 -38 -89 0 -157 36 -174 92 -9 29 -8 48 1 81 18 60 24 69
60 94 27 18 36 20 52 10 14 -9 22 -9 27 -1 18 27 55 29 108 5z"/>
<path d="M9674 5321 c-42 -26 -67 -62 -53 -76 7 -7 18 0 37 22 15 18 40 35 55
39 15 3 26 11 24 18 -6 18 -30 17 -63 -3z"/>
<path d="M9830 5305 c0 -11 7 -15 23 -13 12 2 22 8 22 13 0 6 -10 11 -22 13
-16 2 -23 -2 -23 -13z"/>
<path d="M4478 5279 c-33 -19 -18 -29 40 -25 39 3 57 9 57 18 0 16 -73 22 -97
7z"/>
<path d="M4303 5218 c-52 -29 -62 -41 -44 -52 13 -8 132 64 125 75 -9 14 -26
10 -81 -23z"/>
<path d="M9460 5208 c-11 -12 -20 -28 -20 -35 0 -7 -7 -13 -15 -13 -18 0 -19
-14 -4 -41 8 -16 13 -18 25 -8 8 6 14 20 14 30 0 10 14 34 31 54 28 32 29 35
10 35 -11 0 -29 -10 -41 -22z"/>
<path d="M4159 5110 c-19 -19 -29 -38 -27 -52 4 -27 28 -36 28 -11 0 11 11 30
25 43 26 24 33 50 14 50 -6 0 -24 -13 -40 -30z"/>
<path d="M9455 5020 c-11 -4 -41 -6 -67 -4 -28 3 -48 0 -48 -5 0 -6 11 -27 25
-47 14 -20 25 -45 25 -55 0 -57 35 -66 45 -12 4 24 20 49 42 70 48 46 36 77
-22 53z"/>
<path d="M3477 5013 c-20 -20 -1 -28 69 -30 53 -1 74 2 71 10 -7 21 -123 38
-140 20z"/>
<path d="M3695 4981 c-9 -15 9 -44 51 -80 25 -23 40 -29 47 -22 7 7 -5 26 -40
61 -29 29 -54 47 -58 41z"/>
<path d="M3265 4920 c-16 -16 -34 -30 -41 -30 -20 0 -27 -19 -14 -35 11 -13
18 -10 50 19 21 19 48 39 59 46 28 14 27 30 -2 30 -13 0 -36 -13 -52 -30z"/>
<path d="M3125 4786 c-23 -55 -32 -130 -15 -124 15 5 42 96 34 110 -3 4 0 8 5
8 14 0 14 27 1 35 -6 4 -17 -10 -25 -29z"/>
<path d="M9966 4811 c-7 -10 13 -61 24 -61 10 0 118 38 131 46 8 4 6 10 -5 16
-11 6 -31 4 -61 -8 -43 -16 -46 -16 -64 0 -11 10 -21 13 -25 7z"/>
<path d="M10266 4811 c-11 -17 6 -41 29 -41 13 0 26 -8 29 -17 5 -12 10 -13
18 -5 16 16 3 38 -33 56 -38 19 -36 19 -43 7z"/>
<path d="M10330 4628 c0 -64 -3 -75 -27 -100 -20 -21 -24 -31 -15 -40 9 -9 16
-8 29 4 10 8 26 18 36 21 9 4 17 13 17 21 0 7 16 21 35 30 19 9 35 22 35 28 0
6 -18 27 -40 47 -22 20 -40 42 -40 49 0 6 -7 12 -15 12 -12 0 -15 -15 -15 -72z"/>
<path d="M8528 4680 c-50 -30 -88 -155 -48 -155 10 0 14 8 12 22 -3 24 18 72
43 97 10 10 34 16 62 16 31 0 43 4 41 13 -6 15 -87 20 -110 7z"/>
<path d="M9710 4676 c0 -9 3 -16 8 -16 4 -1 27 -5 51 -9 45 -9 71 -6 71 9 0 8
-16 13 -92 26 -31 5 -38 3 -38 -10z"/>
<path d="M10004 4659 c-10 -17 10 -30 55 -36 52 -7 55 11 5 32 -43 18 -51 18
-60 4z"/>
<path d="M10253 4653 c-34 -6 -29 -33 5 -33 15 0 33 -5 40 -12 17 -17 28 18
12 37 -13 15 -17 16 -57 8z"/>
<path d="M3014 4616 c-3 -7 4 -32 15 -57 12 -24 21 -59 21 -76 0 -48 26 -42
58 14 15 25 40 59 56 75 46 45 31 59 -65 57 -52 -1 -82 -6 -85 -13z"/>
<path d="M8856 4621 c-15 -24 106 -123 126 -103 6 6 0 16 -18 28 -15 11 -42
34 -60 52 -35 34 -40 37 -48 23z"/>
<path d="M9760 4541 c-11 -17 -29 -33 -40 -36 -22 -7 -28 -45 -7 -45 16 0 97
82 97 98 0 22 -28 12 -50 -17z"/>
<path d="M8444 4468 c-27 -17 -65 -37 -84 -44 -28 -10 -35 -17 -35 -39 0 -25
5 -29 46 -39 25 -7 62 -22 83 -34 20 -12 41 -22 45 -22 4 0 8 26 9 58 1 31 4
78 8 105 7 58 -2 60 -72 15z"/>
<path d="M5055 4464 c-22 -23 -17 -107 7 -112 14 -3 16 3 11 32 -4 24 0 44 10
60 23 35 3 50 -28 20z"/>
<path d="M2607 4428 c-41 -11 -45 -34 -6 -31 13 2 42 4 64 5 28 2 40 8 40 18
0 19 -45 22 -98 8z"/>
<path d="M2817 4433 c-10 -10 13 -33 34 -33 10 0 23 -8 28 -17 9 -16 12 -16
20 -3 8 11 5 20 -7 31 -19 19 -66 32 -75 22z"/>
<path d="M2408 4352 c-38 -27 -51 -62 -23 -62 8 0 15 4 15 10 0 5 20 21 45 36
25 14 45 30 45 35 0 18 -46 8 -82 -19z"/>
<path d="M9126 4371 c-4 -6 0 -23 8 -36 18 -28 52 -32 105 -14 36 13 45 45 9
35 -67 -19 -78 -19 -96 4 -13 17 -21 20 -26 11z"/>
<path d="M4823 4325 c-10 -14 -33 -45 -50 -68 -34 -44 -41 -67 -20 -66 13 0
97 113 105 141 7 26 -14 22 -35 -7z"/>
<path d="M7702 4324 c-25 -17 -30 -54 -7 -54 8 0 15 6 15 13 0 15 48 38 56 26
10 -17 34 -9 34 11 0 16 -7 20 -38 20 -21 0 -48 -7 -60 -16z"/>
<path d="M9935 4300 c-27 -10 -51 -22 -53 -28 -6 -19 16 -22 58 -7 23 8 53 15
66 15 28 0 42 19 23 31 -19 12 -35 10 -94 -11z"/>
<path d="M10848 4298 c-38 -22 -51 -48 -24 -48 7 0 19 7 26 15 7 8 28 15 46
15 36 0 42 8 22 28 -16 16 -27 15 -70 -10z"/>
<path d="M10233 4263 c-9 -22 4 -27 66 -24 34 1 62 -2 66 -8 9 -16 35 -13 35
4 0 22 -28 32 -99 37 -47 3 -64 1 -68 -9z"/>
<path d="M5014 4225 c6 -31 4 -36 -24 -50 -31 -16 -36 -39 -9 -41 8 -1 16 -3
19 -4 20 -7 50 -12 80 -14 l35 -1 2 73 c2 78 -5 87 -43 51 l-22 -21 -11 21
c-18 34 -34 26 -27 -14z"/>
<path d="M10490 4230 c-7 -17 -26 -45 -41 -61 -45 -49 -34 -63 35 -46 27 7 44
7 57 -1 10 -7 24 -12 30 -12 17 0 3 59 -21 92 -11 15 -20 34 -20 43 0 26 -27
16 -40 -15z"/>
<path d="M2273 4238 c-12 -16 -33 -76 -33 -94 0 -8 6 -14 13 -14 11 0 47 82
47 109 0 15 -15 14 -27 -1z"/>
<path d="M7530 4215 c-6 -8 -14 -32 -17 -54 -5 -33 -2 -42 16 -53 28 -17 27
-28 -3 -28 -31 0 -56 -10 -56 -21 0 -20 76 -85 99 -84 21 0 26 8 43 69 21 78
13 103 -22 71 -18 -16 -20 -16 -20 -2 0 10 -7 17 -15 17 -19 0 -19 27 -1 62
19 36 2 54 -24 23z"/>
<path d="M8020 4222 c0 -11 96 -92 109 -92 28 0 16 23 -30 60 -48 38 -79 50
-79 32z"/>
<path d="M9708 4209 c-24 -9 -78 -77 -78 -99 0 -22 27 -7 53 30 16 22 35 40
43 40 8 0 14 5 14 11 0 5 5 7 10 4 6 -3 10 1 10 9 0 18 -13 19 -52 5z"/>
<path d="M9075 4180 c-4 -6 -8 -21 -11 -34 -7 -41 -31 -90 -58 -119 -14 -15
-26 -32 -26 -38 0 -13 27 -11 59 6 16 8 58 22 95 31 36 9 66 20 66 23 0 4 -11
18 -25 31 -14 13 -37 43 -51 67 -25 43 -38 52 -49 33z m50 -120 c-3 -5 -10
-10 -16 -10 -5 0 -9 5 -9 10 0 6 7 10 16 10 8 0 12 -4 9 -10z"/>
<path d="M8915 4130 c-11 -18 15 -30 68 -30 35 0 47 4 47 15 0 10 -10 15 -32
15 -18 0 -43 3 -54 6 -12 3 -25 0 -29 -6z"/>
<path d="M4638 4053 c-31 -36 -41 -65 -27 -74 10 -6 19 2 31 26 10 18 22 37
28 40 11 7 4 25 -9 25 -4 0 -15 -8 -23 -17z"/>
<path d="M11218 3932 c-14 -28 -13 -52 2 -52 11 0 50 67 43 74 -14 13 -32 4
-45 -22z"/>
<path d="M8350 3937 c0 -38 81 -65 94 -31 9 23 -3 37 -20 23 -11 -9 -18 -8
-32 5 -22 19 -42 21 -42 3z"/>
<path d="M3779 3852 c-20 -15 -45 -32 -55 -39 -18 -11 -18 -11 1 -19 11 -4 25
-14 31 -22 6 -8 16 -12 23 -8 6 4 24 0 39 -10 29 -20 72 -44 78 -44 9 0 3 40
-11 66 -8 16 -15 37 -15 47 0 29 -19 57 -38 56 -9 0 -33 -12 -53 -27z"/>
<path d="M5762 3827 c-29 -29 -52 -58 -52 -65 0 -11 23 -16 73 -15 9 0 17 -3
18 -6 0 -3 2 -16 3 -28 2 -13 5 -26 9 -29 10 -10 27 6 27 27 0 18 1 19 25 3
42 -27 63 7 25 41 -11 10 -27 42 -36 72 -8 29 -21 53 -28 53 -6 0 -35 -24 -64
-53z"/>
<path d="M4020 3836 c0 -8 5 -18 11 -22 7 -4 9 -22 6 -45 -5 -40 9 -62 24 -38
12 19 11 76 -1 100 -12 22 -40 26 -40 5z"/>
<path d="M8850 3840 c0 -5 4 -10 9 -10 5 0 7 -9 4 -20 -5 -17 0 -20 28 -20 19
-1 52 -7 74 -15 50 -18 55 -18 55 -2 0 18 -41 36 -96 44 -28 3 -44 11 -44 19
0 8 -7 14 -15 14 -8 0 -15 -4 -15 -10z"/>
<path d="M5049 3793 c-26 -41 -33 -118 -10 -118 8 0 14 14 16 38 1 21 12 51
23 67 25 34 28 50 8 50 -8 0 -25 -16 -37 -37z"/>
<path d="M11059 3794 c-14 -14 -39 -26 -55 -28 -42 -5 -38 -31 5 -29 39 2 102
56 85 73 -6 6 -18 1 -35 -16z"/>
<path d="M9140 3785 c0 -20 32 -35 74 -35 25 0 36 4 36 15 0 10 -10 15 -34 15
-19 0 -38 5 -41 10 -9 15 -35 12 -35 -5z"/>
<path d="M9964 3787 c-3 -8 9 -31 29 -52 31 -34 38 -37 71 -31 23 4 36 3 36
-4 0 -5 7 -10 15 -10 8 0 15 6 15 14 0 24 -28 39 -61 32 -27 -5 -36 -1 -65 30
-26 26 -35 32 -40 21z"/>
<path d="M4456 3739 c-19 -29 -33 -56 -30 -61 9 -14 29 -9 39 11 6 10 18 33
28 51 12 21 15 36 9 42 -7 7 -22 -8 -46 -43z"/>
<path d="M9703 3783 c-34 -6 -29 -33 5 -33 15 0 33 -5 40 -12 9 -9 15 -9 24 0
9 9 7 16 -7 32 -18 20 -22 21 -62 13z"/>
<path d="M3800 3721 c-15 -30 -12 -53 7 -49 10 2 18 15 20 36 5 35 -11 43 -27
13z"/>
<path d="M10465 3730 c-4 -6 1 -22 10 -36 13 -21 22 -24 43 -19 33 8 57 29 48
44 -5 7 -15 7 -32 -1 -22 -10 -28 -9 -39 5 -14 20 -21 21 -30 7z"/>
<path d="M5794 3583 c-3 -10 -12 -33 -20 -51 -15 -34 -11 -57 8 -46 12 7 47
83 48 102 0 19 -30 14 -36 -5z"/>
<path d="M4033 3523 c-7 -32 -15 -70 -19 -85 -5 -21 -3 -28 8 -28 16 0 40 64
31 86 -3 8 0 14 7 14 14 0 10 62 -5 67 -6 2 -16 -23 -22 -54z"/>
<path d="M3770 3530 c-7 -17 -10 -34 -6 -37 12 -13 41 14 41 37 0 35 -21 35
-35 0z"/>
<path d="M4990 3557 c0 -13 30 -138 35 -146 11 -19 38 -13 30 7 -4 9 -11 37
-16 62 -14 68 -19 80 -35 80 -8 0 -14 -1 -14 -3z"/>
<path d="M7481 3507 c-28 -74 -34 -106 -21 -122 14 -17 34 -10 26 11 -6 17 23
104 35 104 5 0 9 7 9 15 0 24 -39 18 -49 -8z"/>
<path d="M2105 3447 c-18 -48 -17 -108 3 -115 8 -2 12 8 12 32 0 20 7 53 15
72 14 35 13 54 -5 54 -4 0 -16 -20 -25 -43z"/>
<path d="M3741 3349 c-19 -105 3 -111 32 -9 12 39 13 58 5 67 -18 23 -23 15
-37 -58z"/>
<path d="M5710 3394 c-6 -14 -10 -29 -10 -33 0 -5 -10 -15 -22 -24 -17 -11
-20 -18 -12 -27 19 -19 52 9 68 57 8 23 12 44 8 47 -11 12 -23 5 -32 -20z"/>
<path d="M7975 3331 c-11 -5 -23 -7 -28 -4 -20 12 -15 -30 8 -66 14 -23 23
-46 20 -50 -2 -5 1 -14 9 -20 18 -15 41 12 55 66 7 23 16 45 21 48 6 3 10 13
10 21 0 16 -60 19 -95 5z"/>
<path d="M5030 3322 c0 -14 112 -102 122 -96 22 14 -5 -42 -31 -63 -23 -19
-24 -22 -9 -28 9 -4 33 -1 53 5 20 7 39 10 42 7 2 -3 18 -1 34 5 36 12 37 37
5 68 -14 12 -28 35 -31 51 -8 36 -32 38 -41 4 -3 -14 -10 -25 -14 -25 -4 0
-28 18 -53 40 -41 37 -77 52 -77 32z"/>
<path d="M7485 3290 c-10 -16 42 -79 71 -86 14 -4 30 -2 37 5 8 8 2 14 -21 22
-19 6 -36 22 -44 40 -13 29 -32 37 -43 19z"/>
<path d="M2120 3248 c0 -6 5 -38 12 -69 10 -48 16 -58 35 -62 33 -6 38 9 14
40 -12 14 -24 43 -27 65 -4 22 -12 38 -20 38 -8 0 -14 -5 -14 -12z"/>
<path d="M10490 3244 c0 -17 47 -87 66 -97 8 -4 18 -6 23 -3 10 7 34 96 27
103 -3 3 -30 6 -60 8 -41 2 -56 -1 -56 -11z"/>
<path d="M7770 3222 c0 -16 36 -42 57 -42 31 0 53 10 53 25 0 9 -11 11 -34 8
-19 -2 -37 0 -41 6 -7 13 -35 15 -35 3z"/>
<path d="M8126 3208 c-21 -33 -27 -69 -18 -102 13 -48 32 -44 31 6 -2 55 8 88
28 88 19 0 11 24 -10 28 -9 2 -22 -7 -31 -20z"/>
<path d="M9657 3194 c-8 -8 18 -59 44 -85 23 -23 49 -25 49 -4 0 8 -4 15 -10
15 -5 0 -22 18 -36 40 -26 40 -35 46 -47 34z"/>
<path d="M9480 3170 c-8 -5 -32 -7 -52 -3 -63 9 -48 -27 36 -95 33 -27 49 -11
49 48 0 56 -7 67 -33 50z"/>
<path d="M2543 3138 c-26 -33 -21 -143 6 -143 11 0 14 17 14 73 0 76 -4 90
-20 70z"/>
<path d="M10420 3124 c-18 -46 -9 -55 33 -33 30 16 30 15 17 38 -15 29 -38 26
-50 -5z"/>
<path d="M8583 3093 c-54 -5 -55 -20 -5 -65 20 -18 43 -47 50 -62 19 -43 36
-18 37 56 1 60 -7 80 -30 76 -5 -1 -29 -3 -52 -5z"/>
<path d="M8895 3043 c7 -42 18 -59 48 -74 34 -19 44 6 13 33 -14 13 -28 34
-29 48 -2 14 -12 27 -22 28 -15 4 -17 -1 -10 -35z"/>
<path d="M9865 3070 c-7 -11 3 -15 45 -23 14 -2 33 -8 43 -12 24 -10 23 21 -2
35 -25 13 -78 13 -86 0z"/>
<path d="M9400 3055 c-7 -8 -18 -15 -26 -15 -18 0 -28 -20 -16 -32 13 -13 82
29 82 50 0 17 -25 15 -40 -3z"/>
<path d="M10205 3040 c-3 -5 -22 -10 -41 -10 -25 0 -34 -4 -34 -16 0 -14 8
-15 48 -9 50 7 75 21 66 36 -7 12 -31 11 -39 -1z"/>
<path d="M8160 2976 c0 -22 40 -66 61 -66 27 0 24 14 -12 49 -33 33 -49 39
-49 17z"/>
<path d="M9090 2959 c0 -21 34 -38 75 -39 43 0 58 7 63 28 2 10 -10 11 -47 6
-31 -4 -51 -2 -55 5 -9 14 -36 14 -36 0z"/>
<path d="M3097 2953 c-2 -4 -1 -39 4 -77 5 -38 7 -72 4 -74 -3 -3 0 -11 6 -19
15 -17 39 1 33 25 -3 9 -8 46 -12 81 -6 58 -22 86 -35 64z"/>
<path d="M8450 2935 c-36 -13 -48 -29 -31 -40 12 -7 101 30 101 42 0 13 -30
11 -70 -2z"/>
<path d="M2580 2902 c0 -30 67 -82 104 -82 29 0 17 19 -25 41 -23 11 -44 29
-46 40 -7 24 -33 25 -33 1z"/>
<path d="M3550 2835 c-5 -13 -23 -31 -40 -40 -30 -16 -31 -17 -15 -35 10 -11
20 -18 24 -16 3 2 15 -2 25 -9 17 -13 17 -15 2 -30 -17 -18 -22 -45 -7 -45 5
0 18 11 29 24 18 23 20 24 35 8 27 -26 41 -3 28 44 -6 22 -11 58 -11 82 0 40
-1 42 -30 42 -23 0 -33 -6 -40 -25z"/>
<path d="M3190 2727 c0 -24 61 -127 76 -127 21 0 18 13 -16 70 -16 28 -30 55
-30 60 0 6 -7 10 -15 10 -8 0 -15 -6 -15 -13z"/>
<path d="M3460 2620 c-8 -5 -29 -10 -47 -10 -35 0 -53 -17 -28 -26 28 -11 120
9 120 26 0 18 -25 24 -45 10z"/>
<path d="M10435 2370 c-4 -6 -1 -18 6 -26 15 -18 18 -230 5 -396 -7 -89 -6
-118 3 -118 6 0 13 6 15 13 3 6 12 39 22 71 18 60 68 131 85 120 5 -3 9 -35 9
-72 0 -76 9 -98 36 -88 13 5 15 9 6 18 -7 7 -12 40 -12 76 0 35 -5 72 -10 83
-16 29 -49 23 -84 -14 l-31 -33 0 165 c0 117 -4 173 -13 189 -14 24 -27 28
-37 12z"/>
<path d="M11202 2349 c-55 -56 -66 -95 -56 -203 l9 -94 -65 -9 c-47 -6 -65
-12 -65 -23 0 -16 6 -16 88 -5 l48 7 -7 -44 c-4 -23 -13 -58 -20 -77 -18 -43
-18 -61 0 -61 15 0 40 67 51 138 6 38 9 42 36 42 19 0 29 5 29 15 0 10 -10 15
-29 15 -35 0 -37 6 -46 111 -6 65 -4 82 13 115 11 21 30 48 41 59 19 16 26 17
53 7 49 -18 69 5 23 26 -42 19 -71 14 -103 -19z"/>
<path d="M11959 2308 l-24 -73 -69 0 c-47 0 -71 -4 -73 -12 -3 -7 0 -14 6 -14
6 -1 16 -3 21 -4 6 -1 33 -3 60 -4 l51 -1 -7 -102 c-8 -122 4 -177 44 -208 31
-25 86 -23 128 5 39 25 16 39 -31 20 -83 -35 -111 2 -109 145 2 136 6 150 49
150 19 0 35 5 35 10 0 6 5 10 11 10 5 0 7 -6 3 -12 -4 -7 -3 -9 1 -5 5 4 10
13 11 21 1 10 -10 12 -47 8 l-49 -5 15 49 c28 89 28 94 12 94 -9 0 -23 -26
-38 -72z"/>
<path d="M4445 2324 c-34 -37 -45 -86 -46 -202 l0 -99 -56 -9 c-83 -13 -84
-37 -2 -32 l64 3 9 -73 c8 -77 1 -166 -14 -157 -13 8 -20 -9 -10 -25 7 -11 14
-12 27 -4 27 17 34 62 28 172 l-6 102 24 0 c14 0 30 7 37 15 11 13 7 15 -29
15 l-41 0 0 100 c0 102 12 153 43 178 10 9 17 10 22 2 9 -14 45 -13 45 3 0 11
-43 37 -62 37 -5 0 -20 -12 -33 -26z"/>
<path d="M10255 2340 c-3 -5 -11 -59 -17 -120 l-12 -111 -25 6 c-30 6 -57 -8
-47 -24 4 -6 20 -11 37 -11 l29 0 0 -72 c1 -90 13 -158 31 -170 13 -8 35 -7
88 6 30 7 51 25 51 42 0 18 -10 18 -37 -1 -11 -8 -36 -16 -54 -17 -32 -3 -33
-2 -41 46 -5 27 -8 74 -6 105 3 55 4 56 33 57 47 1 55 3 55 14 0 5 -19 13 -41
16 l-42 7 7 66 c3 36 9 90 12 119 5 34 3 52 -4 52 -6 0 -13 -4 -17 -10z"/>
<path d="M3765 2080 c0 -177 3 -240 12 -240 6 0 15 15 18 32 9 37 44 96 70
118 17 14 18 13 11 -10 -12 -42 -19 -137 -12 -164 3 -14 13 -26 21 -26 11 0
13 10 8 48 -3 26 0 74 7 105 9 45 9 61 0 72 -19 23 -38 18 -70 -17 l-29 -32 0
152 c0 158 -6 202 -25 202 -8 0 -11 -67 -11 -240z"/>
<path d="M5125 2258 c-8 -28 -15 -66 -15 -84 0 -31 -2 -33 -42 -36 -30 -2 -43
-8 -43 -18 0 -11 9 -14 35 -12 l35 3 0 -88 c0 -92 13 -141 48 -180 26 -29 73
-31 80 -3 4 16 1 18 -23 14 -21 -5 -31 -1 -43 17 -25 35 -40 120 -33 182 l7
55 72 17 c103 24 102 24 89 37 -9 9 -28 9 -77 -1 -36 -7 -69 -10 -72 -7 -10 9
15 120 27 124 18 6 10 32 -10 32 -15 0 -23 -12 -35 -52z"/>
<path d="M8934 2268 c12 -102 14 -167 7 -228 -5 -36 -9 -57 -10 -47 -1 23 -13
22 -29 -4 -11 -17 -11 -33 0 -90 11 -61 15 -69 35 -69 12 0 25 -4 28 -10 3 -5
28 -10 55 -10 86 0 148 75 137 166 -5 47 -28 81 -64 95 -28 10 -89 -7 -105
-30 -11 -15 -13 5 -14 123 -1 138 -2 141 -23 144 -21 3 -22 1 -17 -40z m176
-243 c35 -42 18 -135 -32 -169 -31 -22 -91 -20 -111 2 -16 17 -16 23 2 76 24
73 54 106 97 106 17 0 37 -7 44 -15z m-183 -87 c-3 -7 -5 -2 -5 12 0 14 2 19
5 13 2 -7 2 -19 0 -25z"/>
<path d="M9968 2289 c-2 -7 3 -40 13 -74 9 -33 20 -79 23 -101 7 -39 6 -40
-34 -58 -82 -36 -107 -133 -49 -187 39 -37 78 -38 113 -3 40 40 39 101 -5 277
-16 65 -28 125 -27 135 3 19 -28 29 -34 11z m57 -324 c0 -65 -2 -70 -27 -84
-25 -15 -29 -14 -52 8 -37 35 -34 75 9 118 53 53 70 43 70 -42z"/>
<path d="M2591 2262 c-28 -20 0 -29 78 -24 112 6 173 -10 227 -63 41 -39 44
-45 44 -96 0 -35 -6 -63 -18 -80 -39 -60 -135 -118 -206 -126 -49 -6 -139 27
-134 49 2 7 0 14 -5 16 -35 12 -37 -29 -1 -57 109 -86 321 -15 383 129 39 91
8 169 -89 224 -50 28 -64 31 -160 34 -58 2 -111 -1 -119 -6z"/>
<path d="M3585 2200 l-7 -70 -44 0 c-32 0 -44 -4 -44 -15 0 -11 11 -15 38 -15
l39 0 -1 -111 c-1 -99 1 -112 19 -126 25 -19 110 -12 133 10 24 24 10 29 -42
15 -62 -16 -80 -5 -84 53 -1 24 1 71 5 104 l8 60 48 5 c62 7 65 24 4 28 l-48
3 7 47 c3 26 10 52 15 58 11 13 1 24 -22 24 -14 0 -18 -13 -24 -70z"/>
<path d="M4572 2188 c5 -15 37 -18 41 -3 1 6 -9 12 -22 13 -16 3 -22 -1 -19
-10z"/>
<path d="M11324 2189 c-6 -11 13 -39 27 -39 5 0 9 9 9 19 0 21 -26 36 -36 20z"/>
<path d="M2779 2188 c0 -1 -2 -52 -3 -113 -2 -60 -6 -122 -10 -137 -7 -22 -5
-28 8 -28 23 0 30 41 31 164 0 79 -3 110 -12 113 -7 3 -13 3 -14 1z"/>
<path d="M9282 2109 c-13 -5 -26 -18 -29 -29 -3 -11 -9 -20 -14 -20 -5 0 -9
-43 -9 -95 0 -75 3 -95 14 -95 15 0 41 115 30 132 -3 5 -3 25 0 44 6 27 12 34
29 34 12 0 31 -7 41 -15 26 -20 35 -19 29 3 -4 15 -52 54 -65 51 -1 0 -14 -4
-26 -10z"/>
<path d="M4676 2081 c-25 -27 -35 -81 -29 -154 6 -88 11 -107 28 -107 12 0 15
14 15 62 0 44 5 67 17 80 16 18 16 19 -5 25 -24 6 -29 32 -12 64 13 23 33 25
50 4 17 -20 32 -19 28 3 -2 9 -10 16 -16 15 -7 -2 -12 4 -12 12 0 22 -43 19
-64 -4z"/>
<path d="M11652 2075 c-56 -47 -42 -92 41 -130 43 -20 49 -51 17 -80 -28 -25
-66 -7 -86 40 -16 40 -34 46 -34 13 0 -41 36 -86 73 -93 45 -9 70 5 91 50 16
33 16 39 2 59 -8 13 -35 33 -60 45 -76 35 -55 87 35 83 26 -1 50 2 54 7 8 13
-3 18 -56 26 -40 6 -49 4 -77 -20z"/>
<path d="M11452 2058 c-11 -13 -25 -36 -31 -51 -13 -33 -19 -152 -9 -162 16
-16 28 10 28 58 0 29 5 69 10 89 11 39 43 67 55 48 9 -15 35 -12 35 5 0 15
-29 35 -53 35 -7 0 -23 -10 -35 -22z"/>
<path d="M3376 2045 c-21 -14 -41 -23 -46 -20 -5 3 -12 0 -16 -7 -10 -16 -5
-341 6 -352 14 -14 30 39 30 100 0 49 2 55 19 49 29 -9 50 4 77 51 35 59 45
156 19 184 -24 26 -45 25 -89 -5z m72 -43 c5 -45 -15 -108 -43 -139 -25 -28
-25 -28 -41 -8 -12 15 -14 33 -10 72 8 68 14 81 45 98 35 19 45 14 49 -23z"/>
<path d="M4882 2058 c-45 -22 -35 -83 23 -137 31 -28 34 -71 6 -71 -33 0 -71
19 -71 35 0 20 -19 19 -27 -1 -10 -27 30 -56 86 -62 46 -4 51 -2 59 19 13 34
-2 75 -43 120 -20 22 -34 46 -32 52 6 18 52 20 67 3 16 -20 40 -21 40 -1 0 15
-56 56 -75 54 -5 0 -20 -5 -33 -11z"/>
<path d="M9455 2045 c-59 -21 -78 -49 -72 -109 4 -40 11 -55 37 -79 30 -27 37
-29 86 -23 67 8 84 15 84 33 0 11 -7 14 -22 10 -91 -23 -122 -17 -146 30 -28
52 7 113 64 113 38 0 31 -35 -11 -54 -34 -16 -48 -46 -22 -46 21 0 75 38 87
61 10 18 9 26 -7 47 -25 33 -30 34 -78 17z"/>
<path d="M3074 2030 c-35 -14 -54 -50 -54 -103 0 -58 27 -90 90 -107 50 -14
69 -8 67 19 -1 22 -23 29 -29 10 -7 -22 -98 29 -98 56 0 6 19 15 43 21 29 6
41 14 39 24 -2 8 0 12 4 8 12 -12 34 12 34 38 0 37 -47 54 -96 34z m63 -37 c5
-13 -46 -43 -72 -43 -23 0 -18 16 12 40 28 22 54 23 60 3z"/>
<path d="M9665 2007 c-63 -63 -56 -158 11 -165 19 -2 40 4 55 17 l24 20 21
-26 c15 -19 26 -24 39 -19 17 6 17 8 -4 29 -17 19 -21 36 -21 87 0 48 -4 66
-17 76 -32 24 -72 17 -108 -19z m82 -31 c10 -31 8 -38 -19 -70 -16 -20 -38
-36 -49 -36 -39 0 -33 76 11 120 29 29 45 25 57 -14z"/>
<path d="M4042 1995 c2 -13 16 -17 61 -18 46 -2 57 1 55 13 -2 11 -19 16 -61
18 -50 3 -58 1 -55 -13z"/>
<path d="M4547 2004 c-4 -4 -7 -45 -7 -91 0 -67 3 -83 15 -83 16 0 16 -1 17
102 1 66 -7 89 -25 72z"/>
<path d="M11314 2002 c-14 -9 -26 -139 -14 -147 15 -9 28 28 31 88 3 60 0 70
-17 59z"/>
<path d="M10863 1993 c-7 -2 -13 -10 -13 -16 0 -8 23 -12 65 -13 66 -2 81 7
46 26 -20 10 -76 12 -98 3z"/>
</g>
</svg>
