<?xml version="1.0" standalone="no"?>
<!DOCTYPE svg PUBLIC "-//W3C//DTD SVG 20010904//EN"
 "http://www.w3.org/TR/2001/REC-SVG-20010904/DTD/svg10.dtd">
<svg version="1.0" xmlns="http://www.w3.org/2000/svg"
 width="1618.000000pt" height="1214.000000pt" viewBox="0 0 1618.000000 1214.000000"
 preserveAspectRatio="xMidYMid meet">

<g transform="translate(0.000000,1214.000000) scale(0.100000,-0.100000)"
fill="#000000" stroke="none">
<path d="M12355 11708 c-2 -7 -9 -31 -15 -53 -7 -22 -21 -61 -33 -88 -16 -39
-23 -46 -39 -41 -10 3 -42 0 -70 -8 -41 -10 -52 -10 -56 0 -4 13 -32 17 -32 3
0 -4 5 -21 10 -38 8 -21 8 -38 0 -57 -13 -35 2 -95 29 -120 19 -17 18 -19 -19
-104 -56 -126 -69 -202 -34 -202 10 0 14 12 14 39 0 24 16 77 41 135 l41 96
45 0 c53 0 100 20 138 60 21 22 27 38 27 72 -1 38 -6 48 -42 80 l-41 37 25 59
c31 73 44 142 27 142 -6 0 -13 -6 -16 -12z m-131 -310 c-20 -40 -38 -75 -41
-78 -10 -11 -33 36 -33 70 0 54 23 80 71 80 l39 0 -36 -72z m115 46 c38 -31
41 -71 9 -101 -35 -31 -63 -43 -102 -43 l-36 0 42 85 c23 47 46 85 49 85 4 0
21 -12 38 -26z"/>
<path d="M14273 11656 c3 -8 0 -19 -7 -25 -7 -6 -18 -29 -25 -51 -12 -42 -27
-50 -45 -25 -10 14 -17 12 -59 -16 -58 -38 -99 -104 -101 -161 -1 -35 4 -45
35 -72 l36 -31 -29 -65 c-28 -62 -34 -115 -13 -115 6 0 11 11 13 23 2 13 16
54 32 90 26 62 31 67 66 75 112 23 171 155 99 221 l-24 22 25 59 c28 71 30 85
8 85 -10 0 -14 -6 -11 -14z m-63 -150 c0 -2 -13 -33 -28 -68 -16 -34 -35 -78
-43 -95 -16 -38 -19 -39 -48 -15 -38 31 -32 85 15 140 29 34 42 42 70 42 19 0
34 -2 34 -4z m58 -47 c23 -45 -7 -107 -64 -134 -20 -9 -37 -15 -40 -13 -7 8
71 177 81 174 6 -1 16 -13 23 -27z"/>
<path d="M12545 11608 c-2 -7 -6 -31 -10 -53 -4 -22 -19 -79 -35 -126 -38
-116 -42 -159 -15 -159 10 0 15 10 15 31 0 17 14 72 31 123 34 102 49 196 30
196 -6 0 -13 -6 -16 -12z"/>
<path d="M13876 11600 c-48 -24 -76 -49 -76 -67 0 -17 15 -17 30 2 14 17 95
55 116 55 25 0 15 -46 -20 -91 -41 -51 -85 -94 -181 -174 -75 -62 -85 -73 -85
-92 0 -24 22 -13 77 37 68 62 93 65 93 12 0 -39 14 -62 37 -62 7 0 13 7 13 15
0 8 -4 15 -10 15 -5 0 -10 16 -10 36 0 19 -5 44 -11 55 -9 18 -3 29 48 82 86
89 100 117 94 185 -2 19 -70 14 -115 -8z"/>
<path d="M13035 11591 c-49 -24 -75 -45 -75 -60 0 -17 17 -13 58 13 20 14 49
28 65 31 40 10 36 -20 -12 -91 -50 -74 -95 -118 -151 -147 -53 -27 -90 -71
-73 -88 13 -13 65 14 98 51 27 29 52 25 90 -17 25 -27 37 -35 45 -27 8 8 -1
24 -32 56 l-44 45 49 54 c61 68 89 121 85 162 -3 27 -7 32 -33 35 -16 1 -48
-7 -70 -17z"/>
<path d="M13364 11578 c-9 -18 -52 -64 -95 -102 -103 -91 -103 -113 1 -97 l51
8 -7 -45 c-11 -70 -10 -77 6 -77 11 0 17 17 23 63 8 54 12 65 34 73 25 9 23
29 -2 29 -12 0 -12 8 1 53 8 28 19 60 24 69 15 27 12 58 -5 58 -9 0 -23 -15
-31 -32z m-26 -118 c-9 -34 -15 -40 -45 -46 -18 -4 -36 -4 -39 -2 -4 5 81 88
90 88 2 0 -1 -18 -6 -40z"/>
<path d="M14645 11586 c-62 -27 -66 -64 -15 -135 l20 -29 -45 -26 c-64 -38
-74 -91 -23 -129 20 -15 35 -18 61 -13 42 8 60 43 56 110 -3 44 -1 47 39 73
41 27 64 75 48 102 -5 8 -103 62 -109 61 -1 -1 -16 -7 -32 -14z m72 -42 c45
-18 49 -24 33 -55 -9 -16 -58 -49 -74 -49 -7 0 -46 70 -46 84 0 15 20 36 34
36 6 0 30 -7 53 -16z m-47 -193 c0 -60 -35 -87 -74 -58 -26 19 -17 47 23 74
46 31 51 29 51 -16z"/>
<path d="M14456 11578 c-3 -7 -4 -20 -4 -28 0 -8 -11 -47 -25 -86 -30 -83 -53
-195 -44 -218 11 -27 27 -18 27 15 0 39 34 174 58 231 11 24 22 55 26 71 5 23
3 27 -14 27 -11 0 -22 -6 -24 -12z"/>
<path d="M4161 11356 c-8 -9 -8 -15 -2 -18 7 -2 7 -17 1 -43 -5 -22 -16 -77
-25 -122 -8 -45 -29 -125 -45 -179 -17 -53 -30 -103 -30 -110 0 -28 29 -13 40
20 6 19 28 54 50 78 54 60 66 46 45 -53 -18 -91 -19 -109 -2 -109 9 0 20 32
32 94 18 89 18 96 2 120 -21 31 -36 33 -71 5 -29 -23 -30 -22 -16 15 6 17 6
26 0 26 -6 0 -10 8 -10 18 0 13 2 14 9 3 11 -17 14 -7 36 109 27 146 28 160
12 160 -8 0 -20 -6 -26 -14z"/>
<path d="M13436 11321 c-12 -13 -14 -21 -6 -26 11 -7 50 21 50 37 0 15 -27 8
-44 -11z"/>
<path d="M12575 11300 c-4 -6 -3 -16 3 -22 6 -6 12 -6 17 2 4 6 3 16 -3 22 -6
6 -12 6 -17 -2z"/>
<path d="M2666 11233 c-39 -67 -106 -158 -243 -330 -40 -51 -73 -97 -73 -103
0 -26 29 -4 79 59 l55 69 70 4 c39 3 79 8 88 12 15 7 17 -1 15 -71 -2 -63 1
-78 13 -78 11 0 14 9 12 32 -2 18 11 121 28 230 31 194 32 243 7 243 -7 0 -30
-30 -51 -67z m19 -136 c-9 -56 -20 -105 -23 -108 -14 -13 -77 -29 -114 -29
l-39 0 55 73 c31 39 72 98 93 129 21 31 40 52 42 47 1 -6 -5 -56 -14 -112z"/>
<path d="M2900 11285 c0 -8 8 -15 19 -15 31 0 20 -75 -53 -354 -24 -92 -26
-136 -7 -136 16 0 30 26 25 46 -3 12 11 83 32 160 37 140 58 272 47 299 -7 20
-63 20 -63 0z"/>
<path d="M6045 11290 c-5 -9 33 -30 54 -30 4 0 27 -14 50 -31 83 -60 125 -223
87 -336 -30 -89 -117 -190 -156 -181 -19 4 -24 -21 -6 -28 44 -17 116 49 172
156 26 50 29 64 29 155 -1 119 -24 184 -87 241 -58 52 -128 79 -143 54z"/>
<path d="M5656 11253 c-77 -118 -126 -312 -107 -417 15 -80 38 -116 94 -144
69 -36 197 -37 197 -2 0 12 -47 14 -54 1 -6 -9 -100 10 -132 27 -93 50 -106
206 -32 395 18 44 44 98 59 121 26 38 29 56 9 56 -6 0 -21 -17 -34 -37z"/>
<path d="M3954 11249 c-3 -6 -1 -15 6 -19 10 -6 8 -27 -10 -98 l-22 -91 -49
-10 c-28 -6 -61 -11 -74 -11 -16 0 -25 -6 -25 -15 0 -17 43 -20 100 -6 l36 8
-13 -61 c-15 -75 -16 -106 -3 -106 13 0 14 4 35 102 9 43 19 77 23 77 40 -6
59 18 21 28 -12 4 -18 11 -15 20 9 23 46 170 46 182 0 14 -47 14 -56 0z"/>
<path d="M3725 11150 c-3 -5 -3 -15 0 -20 7 -12 45 5 45 20 0 13 -37 13 -45 0z"/>
<path d="M5890 11126 c-36 -6 -71 -15 -77 -19 -8 -5 -13 -30 -13 -64 l0 -55
48 7 c40 5 52 3 75 -15 45 -36 29 -71 -44 -90 -35 -10 -48 -8 -95 11 -39 17
-57 20 -65 12 -29 -29 52 -67 127 -60 94 9 145 53 130 112 -8 33 -61 65 -108
65 -34 0 -38 3 -38 25 0 19 7 26 38 34 20 6 52 11 70 11 21 0 32 5 32 14 0 22
-10 24 -80 12z"/>
<path d="M4760 11028 c-65 -45 -65 -72 0 -113 23 -14 44 -33 47 -41 10 -26
-15 -64 -53 -80 -32 -14 -38 -13 -61 1 -21 14 -24 22 -19 47 5 24 3 29 -11 26
-42 -8 -26 -82 22 -105 31 -15 37 -15 80 1 50 20 75 54 75 106 0 26 -8 35 -50
61 -28 17 -49 36 -47 43 2 6 21 20 41 31 29 15 40 17 43 8 6 -17 33 -17 33 0
0 40 -51 48 -100 15z"/>
<path d="M3570 11014 c-19 -8 -38 -21 -42 -28 -4 -7 -18 -11 -30 -9 -22 4 -23
2 -24 -81 -1 -113 17 -113 46 1 6 22 19 52 29 65 17 19 23 21 39 11 23 -14 32
-8 32 23 0 31 -9 35 -50 18z"/>
<path d="M4375 11006 c-14 -14 -25 -30 -25 -36 0 -5 -4 -10 -8 -10 -5 0 -7 14
-4 30 3 23 0 30 -12 30 -11 0 -16 -9 -16 -28 0 -15 -4 -32 -10 -38 -12 -12
-40 -131 -32 -138 12 -13 30 -5 36 17 7 30 85 151 93 144 3 -3 -2 -27 -11 -53
-35 -103 -10 -111 64 -21 74 88 85 92 74 31 -4 -27 -8 -67 -8 -89 -1 -38 1
-40 29 -40 21 0 31 5 33 18 3 15 0 18 -17 12 -25 -8 -25 -6 -6 85 8 40 13 76
9 81 -14 23 -58 8 -98 -33 l-42 -43 0 49 c1 58 -13 68 -49 32z"/>
<path d="M3116 11003 c-3 -4 -16 -8 -29 -10 -49 -8 -110 -104 -94 -147 12 -31
78 -12 114 31 9 12 13 4 18 -39 4 -29 5 -69 3 -88 -3 -34 -4 -34 -66 -45 -119
-22 -146 -69 -92 -163 38 -65 68 -82 104 -58 31 20 61 77 71 133 5 30 10 40
21 36 16 -6 20 32 5 41 -5 3 -12 76 -16 161 -7 149 -13 173 -39 148z m-9 -60
c4 -11 -5 -27 -30 -50 -55 -49 -73 -42 -42 17 23 45 61 63 72 33z m8 -310 c-8
-55 -38 -118 -59 -126 -23 -9 -86 76 -86 117 0 24 66 52 129 55 22 1 23 -1 16
-46z"/>
<path d="M3319 10985 c-3 -2 -22 -6 -44 -7 -29 -3 -39 -8 -41 -23 -16 -112
-16 -115 0 -140 9 -13 27 -27 41 -31 78 -19 162 129 105 186 -18 18 -50 26
-61 15z m44 -46 c15 -23 0 -67 -33 -100 -33 -33 -42 -35 -64 -13 -32 31 -12
106 33 123 34 13 51 10 64 -10z"/>
<path d="M3684 10943 c-24 -58 -30 -113 -11 -113 9 0 17 14 22 37 4 21 13 50
21 65 18 35 18 48 -1 48 -8 0 -22 -17 -31 -37z"/>
</g>
</svg>
