<?xml version="1.0" standalone="no"?>
<!DOCTYPE svg PUBLIC "-//W3C//DTD SVG 20010904//EN"
 "http://www.w3.org/TR/2001/REC-SVG-20010904/DTD/svg10.dtd">
<svg version="1.0" xmlns="http://www.w3.org/2000/svg"
 width="1618.000000pt" height="1214.000000pt" viewBox="0 0 1618.000000 1214.000000"
 preserveAspectRatio="xMidYMid meet">

<g transform="translate(0.000000,1214.000000) scale(0.100000,-0.100000)"
fill="#000000" stroke="none">
<path d="M13069 12027 c-64 -18 -143 -61 -147 -81 -5 -22 14 -20 48 4 53 38
170 67 170 42 0 -17 -78 -82 -121 -100 -49 -21 -99 -62 -99 -81 0 -20 36 -12
78 19 23 17 43 30 45 30 2 0 27 -22 55 -50 28 -27 56 -50 61 -50 25 0 18 21
-13 45 -19 14 -42 38 -51 51 -16 25 -16 26 19 60 42 41 71 93 59 104 -16 16
-59 19 -104 7z"/>
<path d="M12354 11991 c-25 -39 -39 -43 -71 -19 -16 13 -110 -77 -118 -113 -5
-20 0 -39 14 -62 l21 -34 -20 -41 c-28 -58 -38 -132 -18 -132 10 0 17 13 21
40 8 60 38 116 61 112 23 -4 76 17 76 30 0 5 4 7 9 4 12 -8 71 60 71 81 0 9
-11 30 -24 48 l-25 32 30 36 c28 34 31 57 9 57 -6 0 -21 -18 -36 -39z m-67
-89 c-10 -10 -14 -22 -10 -25 3 -4 1 -7 -5 -7 -7 0 -20 -16 -29 -35 -21 -43
-39 -45 -48 -4 -6 25 -2 36 20 59 15 16 39 30 54 32 35 5 37 2 18 -20z m65
-65 c-16 -27 -88 -74 -99 -64 -6 7 36 88 59 114 l21 22 17 -22 c17 -21 17 -24
2 -50z"/>
<path d="M14950 12024 c0 -3 9 -17 20 -32 24 -29 25 -27 -56 -85 -43 -31 -53
-34 -58 -21 -11 30 -6 53 14 59 23 7 27 35 6 35 -8 0 -27 -11 -42 -24 -28 -23
-28 -24 -12 -64 15 -39 15 -42 -4 -59 -35 -31 -57 -91 -47 -127 13 -48 43 -66
105 -66 49 0 54 2 54 23 0 12 -12 57 -27 99 l-27 76 24 21 c14 12 44 33 68 48
52 35 59 55 32 93 -19 26 -50 41 -50 24z m-76 -273 c14 -36 26 -68 26 -73 0
-15 -63 -8 -82 9 -24 21 -23 58 3 100 12 19 23 33 24 31 2 -2 15 -32 29 -67z"/>
<path d="M13370 11949 c-94 -74 -109 -127 -50 -181 26 -24 34 -26 57 -17 37
14 53 28 53 48 0 31 -19 45 -67 50 l-48 6 49 47 c27 26 58 48 70 50 11 2 22
11 24 21 6 30 -33 20 -88 -24z m23 -136 c10 -9 -13 -33 -33 -33 -9 0 -25 9
-35 20 -18 20 -17 20 22 20 22 0 43 -3 46 -7z"/>
<path d="M12524 11963 c-3 -10 -14 -40 -25 -67 -10 -26 -16 -53 -12 -59 3 -5
2 -7 -4 -4 -15 10 -46 -102 -32 -119 19 -23 26 -16 32 30 4 24 22 83 42 130
19 46 35 90 35 95 0 18 -30 12 -36 -6z"/>
<path d="M13955 11966 c-41 -18 -62 -43 -47 -58 9 -9 15 -8 24 5 13 17 59 37
84 37 8 0 14 -7 14 -17 0 -22 -48 -83 -66 -83 -7 0 -14 -4 -14 -10 0 -5 -6
-10 -13 -10 -8 0 -28 -18 -46 -40 -26 -33 -29 -41 -16 -46 16 -7 45 9 84 46
19 19 25 20 32 9 5 -8 9 -19 9 -24 0 -12 72 -85 83 -85 19 0 4 41 -21 59 -16
11 -33 36 -40 57 -10 33 -9 40 14 70 18 23 24 42 22 65 -3 30 -6 33 -38 36
-19 1 -49 -3 -65 -11z"/>
<path d="M14380 11953 c0 -43 -13 -56 -47 -49 -26 6 -35 2 -61 -28 -34 -39
-48 -91 -37 -134 4 -15 6 -43 5 -62 -5 -90 -5 -95 9 -95 8 0 15 14 17 38 5 60
16 72 63 68 60 -4 110 15 117 45 9 37 -3 95 -26 127 -19 24 -20 32 -10 62 12
37 7 55 -16 55 -9 0 -14 -10 -14 -27z m-60 -150 c-30 -76 -53 -89 -58 -33 -3
47 29 100 62 100 l24 0 -28 -67z m87 16 c22 -42 16 -78 -13 -89 -30 -12 -77
-13 -72 -2 2 4 14 33 27 65 26 60 38 66 58 26z"/>
<path d="M14640 11960 c0 -12 -4 -29 -9 -39 -15 -27 -40 -194 -34 -224 3 -15
11 -27 18 -27 8 0 14 28 18 88 4 48 13 110 20 137 8 28 16 56 18 64 2 8 -4 17
-13 19 -13 2 -18 -3 -18 -18z"/>
<path d="M10923 11835 c-39 -27 -113 -170 -128 -246 -7 -39 -15 -72 -17 -74
-2 -2 -21 -10 -42 -17 -47 -16 -47 -34 -1 -30 19 2 35 2 35 0 0 -2 -7 -28 -15
-58 -19 -72 -19 -110 0 -110 8 0 15 8 15 18 0 9 7 50 17 90 l17 72 54 0 c68 0
67 24 -1 28 -43 3 -47 5 -42 25 3 12 9 44 15 70 12 54 61 148 99 190 17 19 34
27 51 25 17 -2 25 2 25 12 0 21 -55 24 -82 5z"/>
<path d="M7180 11818 c-5 -13 -9 -18 -10 -13 -2 24 -81 -119 -97 -175 -17 -62
-36 -83 -78 -84 -11 -1 -21 -5 -22 -11 -1 -5 13 -9 31 -8 l33 2 -14 -67 c-23
-109 0 -172 61 -172 44 0 66 9 66 26 0 11 -9 13 -39 8 -35 -6 -41 -3 -56 20
-15 23 -16 35 -7 89 17 105 23 113 78 116 29 1 55 8 64 17 14 15 10 16 -42 12
-52 -4 -56 -3 -53 16 1 12 7 34 14 49 6 16 11 32 11 37 0 11 69 113 87 127 8
6 12 16 8 22 -10 18 -25 13 -35 -11z"/>
<path d="M11536 11788 c-2 -7 -11 -58 -20 -113 -22 -131 -42 -192 -67 -200
-22 -7 -26 -35 -5 -35 11 0 10 -12 -4 -62 -14 -51 -21 -64 -39 -66 -30 -5 -21
-26 12 -30 30 -4 37 7 61 99 l18 67 51 10 c29 6 53 9 55 7 2 -2 -4 -27 -12
-55 -15 -51 -14 -70 4 -70 4 0 21 24 38 53 38 67 70 97 82 77 10 -16 4 -59
-16 -113 -24 -63 4 -76 30 -14 20 48 27 113 16 141 -13 34 -46 34 -82 -1 l-29
-27 35 74 c43 93 54 134 36 128 -15 -5 -20 -12 -54 -90 -23 -54 -27 -58 -77
-72 -29 -9 -56 -16 -60 -16 -4 0 -1 20 6 45 8 24 21 86 31 137 9 51 21 98 26
105 5 7 7 17 3 23 -9 14 -35 13 -39 -2z"/>
<path d="M13540 11765 c-13 -16 -7 -45 10 -45 6 0 14 10 19 23 14 36 -5 51
-29 22z"/>
<path d="M7317 11763 c-3 -5 -8 -34 -12 -65 -6 -48 -5 -58 8 -58 14 0 27 46
27 103 0 25 -13 36 -23 20z"/>
<path d="M12560 11746 c0 -10 9 -16 21 -16 24 0 21 23 -4 28 -10 2 -17 -3 -17
-12z"/>
<path d="M2800 11718 c-58 -5 -125 -14 -150 -21 -25 -6 -49 -10 -54 -9 -5 2
-16 0 -25 -4 -9 -4 -28 -6 -42 -5 -25 2 -57 -23 -42 -32 5 -3 42 1 83 9 41 7
129 18 195 24 171 15 218 23 223 38 4 14 -25 14 -188 0z"/>
<path d="M11695 11715 c-3 -8 -7 -22 -10 -30 -3 -10 2 -15 15 -15 11 0 20 7
20 15 0 8 5 15 10 15 6 0 10 7 10 15 0 8 -9 15 -20 15 -11 0 -23 -7 -25 -15z"/>
<path d="M12990 11722 c0 -4 6 -14 13 -21 10 -11 9 -13 -5 -8 -14 5 -19 -2
-24 -31 -4 -20 -18 -68 -30 -106 -13 -38 -22 -72 -19 -74 12 -12 -31 -43 -67
-48 -21 -4 -41 -11 -45 -16 -10 -17 18 -26 49 -17 26 7 29 6 23 -9 -16 -41
-36 -135 -33 -155 4 -28 22 -25 26 5 9 66 47 170 66 181 12 6 24 10 28 9 4 -1
20 3 35 9 26 10 27 12 8 19 -11 5 -30 6 -42 3 -28 -6 -28 -5 1 87 13 41 20 77
15 78 -5 2 -9 10 -9 18 0 9 5 12 10 9 6 -3 15 6 20 20 14 37 12 55 -5 55 -8 0
-15 -4 -15 -8z"/>
<path d="M8920 11711 c0 -5 7 -36 15 -68 26 -101 15 -170 -38 -230 -33 -38
-104 -93 -119 -93 -4 0 -8 15 -8 34 0 25 9 44 34 70 18 20 41 36 50 36 17 0
22 25 7 34 -14 9 -73 -36 -99 -74 -16 -25 -22 -46 -20 -74 6 -79 58 -72 151
21 75 74 92 120 82 216 -4 39 -8 86 -9 102 -1 23 -6 31 -23 33 -13 2 -23 -1
-23 -7z"/>
<path d="M3833 11673 c0 -21 -3 -49 -6 -63 -10 -41 -64 -222 -81 -270 -9 -25
-16 -48 -16 -52 0 -16 31 -7 37 10 3 9 15 29 25 44 11 16 16 32 13 38 -3 5 -1
10 6 10 6 0 27 17 45 38 37 41 41 33 20 -43 -7 -27 -11 -56 -8 -63 2 -7 -1
-19 -8 -27 -12 -15 2 -55 20 -55 9 0 11 20 14 113 1 12 5 25 10 29 5 3 10 28
10 54 1 63 -22 70 -70 23 -19 -18 -34 -30 -34 -26 0 12 29 117 35 127 3 6 10
42 14 80 6 62 5 70 -10 70 -12 0 -16 -9 -16 -37z"/>
<path d="M8669 11703 c-1 -5 0 -55 1 -113 2 -133 -12 -191 -60 -241 -39 -41
-69 -49 -90 -24 -23 28 38 145 76 145 8 0 14 7 14 15 0 8 -8 15 -17 15 -25 -1
-51 -22 -45 -38 2 -7 -2 -11 -8 -10 -19 5 -51 -56 -53 -100 -2 -49 16 -72 55
-72 57 0 119 59 146 139 12 35 17 247 6 275 -6 16 -23 22 -25 9z"/>
<path d="M12729 11679 c-9 -17 -8 -23 2 -30 20 -13 23 -11 35 16 19 39 -16 52
-37 14z"/>
<path d="M4520 11678 c-1 -1 -3 -34 -6 -72 -3 -38 -9 -76 -13 -85 -5 -9 -14
-41 -21 -71 -6 -30 -21 -85 -33 -123 -31 -98 -13 -105 49 -17 27 38 54 68 59
67 6 -2 16 -28 23 -58 20 -80 53 -109 82 -73 8 8 9 14 4 13 -25 -6 -44 16 -54
67 -6 29 -20 64 -30 76 l-18 23 -31 -23 c-35 -26 -36 -22 -16 62 8 33 12 63 9
67 -2 4 1 9 7 11 15 5 17 130 2 135 -7 3 -13 3 -13 1z"/>
<path d="M2749 11663 c-5 -80 -4 -93 8 -97 13 -5 20 14 25 69 2 21 -2 30 -14
33 -10 2 -18 0 -19 -5z"/>
<path d="M2889 11658 c-1 -1 -3 -39 -4 -83 -2 -54 -13 -116 -34 -189 -22 -75
-29 -112 -22 -119 6 -6 12 -9 13 -6 2 2 16 29 31 60 29 58 82 118 93 106 4 -4
6 -36 5 -72 -1 -50 2 -65 12 -65 17 0 30 125 16 152 -13 24 -58 23 -84 -2
l-22 -20 14 67 c16 78 14 165 -4 171 -7 2 -14 2 -14 0z"/>
<path d="M7286 11580 c-4 -28 -18 -89 -31 -135 -39 -134 -30 -152 28 -56 20
32 43 64 52 71 13 11 15 8 15 -16 0 -16 -7 -51 -15 -78 -17 -56 -12 -89 13
-84 11 2 16 12 14 28 -1 14 4 56 12 94 21 96 2 128 -52 90 l-22 -15 7 43 c11
63 10 101 -3 105 -7 2 -14 -16 -18 -47z"/>
<path d="M5680 11555 c0 -11 7 -15 23 -13 12 2 22 8 22 13 0 6 -10 11 -22 13
-16 2 -23 -2 -23 -13z"/>
<path d="M9097 11545 c-40 -28 -70 -79 -94 -158 -10 -35 -11 -53 -4 -60 7 -7
15 0 26 26 8 20 15 41 15 47 0 20 38 85 64 109 14 13 42 27 62 30 52 8 57 31
7 31 -25 0 -52 -9 -76 -25z"/>
<path d="M9782 11547 c-29 -31 -28 -55 8 -139 17 -38 30 -74 30 -79 0 -12 -48
-1 -77 17 -12 8 -26 28 -30 45 -10 37 -27 39 -31 4 -5 -37 51 -90 105 -100 23
-3 47 -4 53 0 17 11 11 50 -20 123 -36 84 -37 98 -9 112 16 9 25 8 40 -6 29
-26 48 -3 20 25 -27 27 -62 27 -89 -2z"/>
<path d="M9563 11547 c-18 -7 -41 -20 -53 -29 -24 -21 -16 -51 30 -106 34 -41
37 -52 14 -52 -23 0 -74 55 -74 79 0 12 -6 21 -15 21 -23 0 -18 -35 10 -80 19
-29 33 -41 60 -46 45 -8 65 0 65 26 0 21 -41 93 -60 105 -35 22 29 65 97 65
23 0 33 4 31 13 -6 16 -65 19 -105 4z"/>
<path d="M2725 11493 c-42 -144 -56 -206 -47 -215 14 -14 20 0 47 100 13 48
28 101 34 119 7 24 6 35 -4 43 -11 9 -17 -1 -30 -47z"/>
<path d="M6357 11533 c-16 -16 -4 -64 27 -110 54 -79 58 -123 9 -123 -22 0
-73 42 -73 61 0 5 -7 9 -15 9 -40 0 9 -76 61 -96 51 -19 79 -8 89 36 8 38 0
62 -42 126 -26 39 -33 57 -27 78 4 19 2 26 -8 26 -8 0 -18 -3 -21 -7z"/>
<path d="M9272 11520 c-62 -38 -89 -112 -57 -157 19 -27 84 -48 120 -39 40 10
25 30 -23 29 -31 0 -46 5 -64 24 -19 20 -20 25 -8 33 8 5 23 10 33 10 64 0
109 66 71 104 -20 21 -32 20 -72 -4z m37 -52 c-25 -21 -61 -24 -53 -5 2 7 17
20 32 29 35 21 52 1 21 -24z"/>
<path d="M4306 11487 c-32 -33 -32 -45 0 -118 15 -32 24 -65 20 -74 -9 -25
-35 -29 -56 -10 -26 23 -37 13 -22 -20 9 -20 19 -25 46 -25 60 0 83 58 50 122
-32 62 -35 87 -11 108 15 15 18 23 10 31 -9 9 -18 5 -37 -14z"/>
<path d="M5932 11498 c-7 -7 -12 -38 -12 -69 0 -91 -22 -122 -35 -51 -12 63
-32 102 -54 102 -28 0 -35 -17 -13 -29 11 -6 25 -34 35 -68 9 -32 23 -67 31
-78 15 -20 15 -20 37 2 18 18 24 38 28 95 7 80 6 79 79 63 44 -10 43 12 -3 31
-42 17 -77 18 -93 2z"/>
<path d="M8274 11481 c-46 -32 -84 -87 -84 -119 0 -12 10 -28 21 -36 24 -17
54 -9 97 25 l26 20 16 -32 c20 -44 45 -52 36 -13 -10 41 -9 64 5 107 16 49 4
71 -42 75 -26 2 -45 -5 -75 -27z m90 -10 c6 -10 -33 -62 -69 -93 -53 -46 -92
-29 -55 24 39 58 108 96 124 69z"/>
<path d="M13522 11497 c-8 -7 -39 -37 -70 -68 -91 -88 -95 -90 -76 -35 26 74
-3 102 -50 51 -21 -22 -24 -23 -30 -9 -9 23 -20 9 -36 -41 -7 -22 -22 -57 -33
-78 -14 -26 -18 -40 -10 -48 11 -11 47 30 75 86 16 30 58 75 58 61 0 -4 -9
-24 -20 -46 -22 -43 -26 -70 -10 -70 25 0 79 36 134 89 33 31 55 49 49 41 -6
-8 -16 -32 -22 -52 -15 -46 -3 -74 38 -83 31 -7 111 10 111 24 0 16 -12 18
-51 10 -56 -13 -80 1 -69 40 4 16 20 50 35 75 26 44 26 67 2 66 -7 -1 -18 -6
-25 -13z"/>
<path d="M5419 11483 c-90 -56 -69 -191 22 -142 11 5 33 28 49 51 17 23 30 36
30 30 0 -6 -4 -14 -10 -17 -6 -3 -10 -51 -10 -108 l0 -102 -44 3 c-24 2 -53
-1 -65 -7 -46 -25 -67 -142 -36 -201 34 -66 124 -11 158 96 16 50 31 363 18
381 -10 14 -50 33 -68 33 -10 0 -30 -8 -44 -17z m61 -29 c0 -21 -19 -56 -43
-77 -47 -41 -64 17 -18 63 32 33 61 39 61 14z m4 -297 c17 -12 17 -15 -3 -66
-21 -56 -56 -101 -77 -101 -44 0 -44 145 -1 172 19 12 61 9 81 -5z"/>
<path d="M7508 11490 c-30 -18 -58 -76 -58 -119 0 -32 6 -48 26 -68 22 -22 31
-24 67 -19 23 4 46 11 51 16 11 11 -38 25 -54 15 -19 -12 -48 5 -58 35 -9 24
-8 28 4 23 8 -3 22 -2 32 2 9 5 23 9 30 11 19 4 52 35 52 49 0 20 -40 65 -58
65 -9 0 -25 -5 -34 -10z m50 -47 c2 -16 -5 -23 -29 -32 -39 -14 -39 -14 -39 1
0 17 42 59 54 55 6 -2 12 -13 14 -24z"/>
<path d="M11925 11481 c-112 -69 -128 -233 -25 -256 42 -9 120 4 120 21 0 8 5
14 11 14 5 0 7 -4 4 -10 -9 -14 7 -12 28 4 21 16 22 36 2 36 -8 0 -15 -4 -15
-9 0 -16 -122 -33 -152 -22 -55 21 -50 95 9 126 60 32 93 65 93 91 0 30 -31
32 -75 5z m25 -25 c0 -3 -15 -14 -32 -26 l-33 -22 28 26 c27 25 37 31 37 22z"/>
<path d="M4056 11452 c-68 -99 -47 -171 38 -127 36 19 34 19 29 -7 -6 -31 19
-63 42 -54 16 6 16 8 2 24 -18 20 -13 52 17 110 16 32 15 52 -4 52 -5 0 -16
-13 -25 -30 -14 -27 -79 -80 -97 -80 -25 0 4 80 41 114 26 24 27 36 2 36 -10
0 -30 -17 -45 -38z"/>
<path d="M6108 11468 c-76 -64 -39 -158 62 -158 20 0 30 5 30 15 0 9 -10 15
-26 15 -27 0 -64 16 -64 28 0 4 13 13 29 19 39 14 53 42 38 74 -17 32 -36 34
-69 7z m42 -26 c0 -11 -11 -24 -25 -30 -31 -14 -33 0 -3 28 27 25 28 25 28 2z"/>
<path d="M11330 11476 c0 -14 29 -26 68 -26 14 0 22 6 22 16 0 12 -7 15 -25
12 -14 -3 -25 -1 -25 3 0 5 -9 9 -20 9 -11 0 -20 -6 -20 -14z"/>
<path d="M3147 11469 c-26 -15 -68 -86 -61 -104 7 -18 20 -19 65 -3 76 25 110
73 77 106 -15 15 -57 15 -81 1z m57 -28 c7 -11 -22 -37 -51 -45 -28 -9 -29 3
-3 32 21 23 45 28 54 13z"/>
<path d="M10557 11421 c-41 -43 -57 -72 -57 -103 0 -33 18 -48 57 -48 66 0
123 48 123 102 0 27 -18 77 -29 80 -38 10 -63 2 -94 -31z m84 -15 c24 -52 -20
-106 -86 -106 -40 0 -30 46 23 103 32 33 49 34 63 3z"/>
<path d="M13097 11428 c-69 -60 -93 -119 -67 -167 11 -21 61 -34 96 -25 36 9
23 30 -16 26 -65 -5 -86 57 -27 81 51 22 98 67 95 91 -5 32 -39 30 -81 -6z"/>
<path d="M5669 11424 c-36 -92 -41 -144 -13 -144 9 0 14 11 14 30 0 16 7 50
16 76 11 32 12 50 5 57 -7 7 -14 1 -22 -19z"/>
<path d="M12639 11427 c-5 -12 -21 -42 -34 -67 -32 -57 -31 -85 0 -106 20 -13
30 -14 59 -4 60 19 111 70 71 70 -8 0 -15 -3 -15 -7 0 -23 -93 -43 -105 -23
-8 13 34 107 51 114 19 7 18 32 -1 40 -10 3 -19 -2 -26 -17z"/>
<path d="M3194 11326 c-8 -32 -37 -34 -61 -6 -19 21 -43 27 -43 10 0 -22 50
-60 78 -60 33 0 50 16 54 50 4 32 -20 37 -28 6z"/>
<path d="M3585 11220 c-3 -5 -3 -14 0 -20 3 -5 -4 -28 -15 -51 -22 -41 -22
-41 -67 -35 -39 5 -44 4 -41 -12 2 -12 15 -18 42 -20 34 -3 37 -6 32 -25 -4
-12 -10 -48 -13 -79 -8 -78 12 -110 64 -106 49 4 57 28 9 28 -32 0 -36 3 -41
34 -4 19 -1 59 6 90 10 48 16 56 35 56 29 0 54 10 54 21 0 5 -13 9 -30 9 -35
0 -35 0 -15 47 8 19 15 44 15 54 0 20 -24 26 -35 9z"/>
<path d="M3711 11178 c0 -18 -4 -64 -9 -103 -12 -93 -10 -160 5 -160 6 0 30
26 53 58 23 31 46 55 51 52 5 -4 8 -28 7 -55 -1 -27 1 -52 4 -56 31 -31 40 99
9 137 -17 21 -21 22 -37 9 -9 -8 -29 -32 -44 -52 l-27 -37 5 62 c2 34 5 77 5
94 1 18 6 33 10 33 16 0 2 45 -14 48 -13 2 -17 -5 -18 -30z"/>
<path d="M2234 11189 c-3 -6 -3 -14 2 -18 12 -8 12 -91 0 -84 -5 4 -7 -17 -4
-46 5 -50 4 -53 -16 -48 -11 2 -29 8 -38 12 -13 5 -18 2 -18 -10 0 -9 13 -22
30 -28 29 -11 30 -13 30 -78 0 -45 -4 -69 -12 -72 -10 -3 -10 -7 -1 -17 6 -7
19 -10 27 -7 13 5 16 23 16 85 l0 79 51 11 c29 7 54 10 56 8 3 -2 0 -21 -6
-43 -28 -99 -4 -108 63 -24 44 56 79 81 94 66 4 -4 9 -32 12 -62 6 -62 25 -81
35 -34 8 39 -11 107 -36 125 -28 19 -53 10 -95 -36 -28 -32 -33 -42 -23 -49 9
-6 10 -9 2 -9 -20 0 -21 13 -8 80 7 36 16 85 18 110 3 25 8 52 12 61 8 21 -14
36 -26 18 -4 -8 -11 -39 -15 -69 -10 -85 -19 -95 -98 -114 l-29 -7 7 63 c3 35
9 82 12 106 6 38 5 42 -14 42 -11 0 -24 -5 -28 -11z"/>
<path d="M5904 11152 c7 -30 -1 -92 -29 -217 -19 -86 -19 -115 -1 -115 8 0 16
17 20 46 3 26 15 62 27 80 17 28 27 34 55 34 69 0 125 -21 145 -54 21 -35 25
-86 7 -104 -9 -9 -9 -15 0 -24 18 -18 34 3 39 54 8 83 -48 142 -147 155 l-39
6 20 26 c11 14 41 41 67 59 26 18 47 37 46 43 -1 5 -2 16 -2 24 -3 23 -31 18
-42 -7 -12 -28 -35 -58 -45 -58 -4 0 -26 -21 -48 -46 -44 -50 -61 -45 -45 13
14 52 7 107 -15 111 -16 3 -18 -1 -13 -26z m93 -158 c-3 -3 -12 -4 -19 -1 -8
3 -5 6 6 6 11 1 17 -2 13 -5z"/>
<path d="M2034 11095 c-7 -18 3 -35 21 -35 18 0 28 32 13 42 -19 11 -28 10
-34 -7z"/>
<path d="M3994 11095 c-36 -15 -74 -81 -74 -128 0 -74 80 -124 152 -94 33 14
65 43 56 52 -3 3 -20 -3 -39 -12 -69 -34 -139 -8 -139 52 0 17 10 26 45 40 49
18 70 44 60 74 -8 26 -26 31 -61 16z m17 -45 c-30 -26 -49 -26 -26 0 10 11 25
20 34 20 12 -1 10 -5 -8 -20z"/>
<path d="M6835 11058 c-18 -63 -19 -117 -1 -140 11 -16 14 -9 19 52 3 39 12
84 20 100 8 16 12 31 9 34 -16 17 -33 0 -47 -46z"/>
<path d="M1735 11037 c-52 -20 -87 -49 -76 -60 8 -8 23 -4 50 11 39 22 81 29
81 13 0 -5 -22 -37 -50 -72 -27 -35 -50 -72 -50 -81 0 -23 20 -34 31 -17 5 8
9 11 9 7 0 -5 21 8 48 28 l47 37 3 -34 c7 -65 48 -78 101 -33 35 29 50 74 41
119 -9 45 -24 32 -30 -26 -4 -38 -12 -56 -29 -70 -44 -36 -55 -26 -51 49 2 41
-12 41 -75 1 l-49 -31 35 43 c64 79 71 111 26 123 -27 7 -25 7 -62 -7z"/>
<path d="M6626 11015 c-9 -13 -16 -28 -16 -32 0 -15 -61 -83 -74 -83 -17 0
-50 39 -66 78 -7 17 -19 32 -26 32 -19 0 -18 -13 7 -65 23 -48 52 -75 81 -75
22 0 23 5 -8 -76 -38 -100 -53 -153 -56 -201 -5 -66 15 -49 34 28 33 135 117
343 159 395 9 11 2 24 -12 24 -3 0 -14 -11 -23 -25z"/>
<path d="M6284 10991 c-38 -23 -74 -68 -74 -92 0 -11 10 -29 21 -40 20 -20 29
-21 104 -17 82 6 125 19 125 40 0 7 -5 6 -15 -2 -9 -7 -15 -8 -15 -2 0 6 -13
7 -37 1 -64 -14 -129 -11 -144 8 -9 11 -10 14 -2 9 32 -19 133 30 133 64 0 14
-37 50 -52 50 -7 0 -27 -9 -44 -19z m56 -30 c0 -15 -26 -31 -61 -37 l-34 -6
28 26 c27 25 67 35 67 17z"/>
<path d="M2021 10962 c-12 -22 0 -118 14 -115 13 4 19 133 6 133 -6 0 -15 -8
-20 -18z"/>
<path d="M6796 10644 c-10 -27 -7 -54 8 -54 13 0 26 28 26 58 0 18 -27 15 -34
-4z"/>
<path d="M4385 10527 c-38 -54 -40 -57 -22 -57 11 0 2 -35 -37 -142 -29 -79
-58 -163 -66 -188 -14 -41 -18 -45 -63 -55 -59 -12 -62 -31 -4 -28 l43 2 -10
-58 c-8 -50 -7 -63 7 -85 22 -32 48 -33 84 -2 35 31 22 46 -18 22 -26 -15 -33
-16 -40 -5 -11 18 -11 16 1 80 11 56 21 69 58 69 13 0 22 6 22 16 0 11 -7 14
-30 10 -16 -2 -30 -3 -30 -1 0 12 96 277 124 343 20 46 36 92 36 103 0 31 -23
21 -55 -24z"/>
<path d="M13422 10484 c-21 -32 -22 -62 -2 -49 10 6 -17 -81 -53 -175 l-25
-65 -48 -7 c-27 -5 -66 -5 -86 -2 -29 4 -38 2 -38 -9 0 -19 51 -29 113 -21 47
7 50 6 42 -12 -32 -75 -51 -144 -44 -155 13 -21 23 -3 54 94 16 48 34 87 40
87 6 0 20 7 31 15 19 14 19 15 -2 21 -21 5 -20 8 22 130 45 127 54 184 32 184
-7 0 -23 -16 -36 -36z"/>
<path d="M12707 10433 c-39 -20 -101 -113 -137 -208 -19 -47 -37 -85 -42 -85
-4 0 -8 -12 -8 -27 0 -16 -11 -49 -24 -75 -20 -41 -21 -50 -9 -60 18 -15 25
-6 48 66 10 32 24 60 29 62 6 2 38 7 70 12 37 4 61 12 64 21 4 11 -8 13 -62 9
-48 -4 -66 -3 -63 6 39 101 80 178 114 215 36 40 44 45 61 34 22 -13 32 -8 32
18 0 22 -41 29 -73 12z"/>
<path d="M7855 10420 c-3 -5 -4 -14 -1 -19 6 -9 -6 -41 -46 -129 l-19 -44 -61
4 c-71 4 -94 -17 -31 -27 76 -13 73 -9 47 -73 -44 -107 -27 -182 42 -182 39 0
101 37 86 52 -8 8 -18 6 -37 -6 -14 -10 -38 -16 -53 -14 -25 3 -27 6 -26 53 0
29 10 72 23 101 22 50 24 52 87 69 40 11 64 23 64 31 0 18 -17 18 -69 -1 -22
-8 -41 -12 -41 -10 0 2 11 25 24 52 35 71 50 118 43 137 -7 18 -23 21 -32 6z"/>
<path d="M6005 10398 c-2 -7 -6 -56 -8 -108 -3 -52 -12 -119 -21 -148 -15 -46
-19 -51 -36 -42 -47 25 -103 -3 -145 -74 -40 -68 -29 -126 24 -126 21 0 41 14
80 54 28 30 51 62 51 70 0 9 4 16 9 16 12 0 46 84 59 145 12 55 22 193 15 213
-3 6 -9 12 -14 12 -5 0 -11 -6 -14 -12z m-77 -327 c28 -17 -81 -150 -112 -138
-33 13 -10 78 43 124 28 24 47 28 69 14z"/>
<path d="M3150 10384 c-58 -9 -233 -58 -243 -69 -19 -18 -45 -25 -51 -12 -3 8
-9 6 -19 -6 -9 -10 -18 -14 -21 -8 -4 5 -19 6 -39 1 -17 -4 -44 -11 -59 -14
-16 -4 -28 -13 -28 -21 0 -20 -1 -20 131 15 152 39 159 41 159 49 0 3 15 7 33
8 17 1 51 8 75 14 23 6 45 9 49 5 14 -14 -53 -302 -84 -359 -12 -23 -13 -31
-3 -40 9 -9 15 -8 24 7 32 52 88 126 95 126 16 0 18 -37 5 -70 -19 -43 -18
-70 2 -70 10 0 14 6 11 14 -3 7 -2 17 3 22 4 5 13 25 19 45 23 72 -22 116 -70
68 -11 -11 -22 -19 -24 -17 -2 2 5 28 15 58 10 30 24 93 32 139 7 47 18 86 25
88 7 3 13 11 13 19 0 14 -3 15 -50 8z"/>
<path d="M13547 10383 c-3 -5 -14 -42 -26 -83 -11 -41 -39 -122 -61 -180 -41
-106 -48 -140 -30 -140 9 0 90 103 90 115 0 3 16 22 35 42 19 20 35 35 35 33
0 -3 -9 -34 -20 -70 -22 -71 -26 -120 -10 -120 6 0 12 6 14 13 53 184 58 217
27 217 -11 0 -40 -23 -65 -52 l-45 -51 36 114 c19 63 39 122 44 131 5 10 9 22
9 28 0 12 -27 14 -33 3z"/>
<path d="M12436 10353 c-9 -22 5 -34 32 -27 25 7 29 29 6 38 -24 9 -31 7 -38
-11z"/>
<path d="M8527 10293 c-4 -3 -7 -15 -7 -25 0 -26 24 -17 28 10 3 21 -8 29 -21
15z"/>
<path d="M2920 10254 c0 -20 -13 -93 -29 -163 -17 -70 -31 -134 -33 -141 -2
-8 4 -15 13 -17 12 -3 20 18 39 99 31 137 49 241 43 251 -2 4 -11 7 -19 7 -9
0 -14 -11 -14 -36z"/>
<path d="M2209 10231 c-13 -43 -27 -51 -96 -51 -32 0 -43 -4 -43 -15 0 -12 13
-15 55 -15 30 0 55 -4 55 -10 0 -15 -49 -122 -64 -140 -18 -21 -26 -59 -14
-66 5 -4 23 9 39 27 15 19 45 51 66 71 l38 37 19 -40 c22 -47 50 -66 72 -48
27 22 7 105 -32 127 -13 7 -8 16 35 53 59 51 67 75 21 65 -16 -3 -43 -9 -59
-12 -25 -5 -31 -2 -42 22 -21 41 -36 40 -50 -5z m86 -71 c-12 -13 -22 -17 -28
-11 -13 13 1 31 25 31 21 0 21 -1 3 -20z m-59 -31 c3 -6 -8 -25 -25 -43 l-32
-31 18 42 c19 44 27 51 39 32z m64 -61 c25 -41 28 -70 5 -47 -15 14 -38 79
-29 79 2 0 13 -15 24 -32z"/>
<path d="M4520 10215 c0 -19 5 -25 21 -25 15 0 19 4 15 16 -3 9 -6 20 -6 25 0
5 -7 9 -15 9 -9 0 -15 -9 -15 -25z"/>
<path d="M13762 10213 c-45 -22 -92 -92 -92 -137 0 -40 35 -87 78 -105 43 -18
146 -10 150 11 3 14 -5 16 -56 11 -86 -8 -142 26 -142 86 0 15 10 23 43 32 72
19 97 36 97 67 0 29 -16 52 -34 52 -6 0 -26 -8 -44 -17z m48 -29 c0 -13 -54
-44 -76 -44 -20 0 44 52 74 59 1 1 2 -6 2 -15z"/>
<path d="M11297 10163 c-13 -21 -36 -60 -52 -88 -47 -84 -78 -126 -86 -118
-13 14 -13 119 1 152 14 36 7 52 -15 30 -18 -19 -34 -89 -25 -114 4 -11 6 -31
3 -45 -3 -17 3 -34 16 -50 l21 -25 36 40 c20 22 45 58 56 80 12 22 38 66 59
98 22 32 39 63 39 68 0 23 -32 6 -53 -28z"/>
<path d="M9773 10162 c-27 -32 -29 -73 -8 -132 8 -23 15 -49 15 -56 0 -16 -33
-19 -58 -5 -9 5 -25 5 -35 2 -17 -6 -18 -8 -3 -20 27 -22 109 -26 126 -7 11
15 10 26 -8 79 -28 79 -28 98 3 127 14 13 25 27 25 32 0 18 -36 6 -57 -20z"/>
<path d="M10924 10162 c-21 -16 -48 -45 -59 -65 -11 -20 -25 -37 -31 -37 -16
0 -7 -77 12 -107 24 -38 108 -42 177 -7 29 15 36 34 13 34 -7 0 -30 -7 -49
-15 -49 -20 -90 -19 -111 4 -29 32 -15 52 57 89 80 41 105 71 89 107 -15 33
-49 32 -98 -3z m70 -11 c7 -10 -30 -44 -71 -65 -45 -22 -41 -6 7 38 41 37 55
43 64 27z"/>
<path d="M11682 10148 c-26 -23 -41 -36 -34 -28 6 8 12 22 12 32 0 32 -34 4
-55 -44 -11 -24 -22 -45 -25 -48 -3 -3 -16 -22 -28 -42 -17 -26 -19 -38 -11
-44 8 -4 42 25 92 80 77 84 121 121 112 94 -46 -138 -55 -198 -30 -198 8 0 15
8 15 18 0 9 12 56 26 104 15 47 24 94 21 102 -11 27 -46 18 -95 -26z"/>
<path d="M6560 10173 c-49 -18 -61 -57 -38 -120 9 -25 9 -39 2 -51 -18 -28
-43 -26 -54 3 -11 30 -37 29 -32 -1 5 -28 32 -54 56 -54 21 0 76 43 76 59 0 4
-7 29 -16 54 -20 58 -14 74 27 85 39 10 51 32 17 31 -12 0 -30 -3 -38 -6z"/>
<path d="M9167 10142 c-20 -21 -37 -43 -37 -50 0 -7 -4 -12 -9 -12 -12 0 -41
-80 -41 -113 0 -17 5 -27 15 -27 8 0 15 9 15 20 0 44 42 129 80 164 22 20 45
36 51 36 5 0 7 5 4 10 -12 20 -42 9 -78 -28z"/>
<path d="M6048 10128 c-77 -84 -78 -198 0 -198 83 0 161 128 122 201 -6 10
-17 19 -25 19 -8 0 -15 5 -15 10 0 25 -46 7 -82 -32z m96 -18 c4 -4 5 -26 1
-49 -8 -51 -58 -103 -95 -99 -23 3 -25 7 -23 47 1 29 11 57 29 83 23 33 31 38
53 33 14 -4 30 -10 35 -15z"/>
<path d="M7234 10103 c-20 -38 -45 -80 -56 -95 -10 -14 -18 -31 -18 -37 0 -19
27 -12 43 12 41 63 157 165 157 138 0 -7 -17 -43 -37 -81 -35 -64 -37 -70 -22
-85 11 -11 24 -15 38 -10 25 8 23 31 -2 29 -13 -1 -7 16 25 77 23 44 38 85 34
94 -10 28 -35 28 -70 1 -41 -31 -50 -33 -36 -7 13 26 13 31 -4 31 -8 0 -31
-30 -52 -67z"/>
<path d="M8902 10152 c-73 -42 -112 -90 -112 -140 0 -38 33 -77 74 -88 37 -9
96 4 96 21 0 11 -10 13 -44 9 -38 -6 -47 -3 -76 23 -32 29 -32 30 -17 60 19
37 71 82 109 95 16 6 28 14 28 18 0 17 -29 18 -58 2z"/>
<path d="M9343 10139 c-35 -22 -73 -91 -73 -131 0 -14 11 -37 25 -52 21 -23
32 -27 72 -24 63 4 71 28 10 28 -49 0 -77 18 -77 51 0 12 9 21 28 25 65 16
110 75 82 109 -16 20 -29 19 -67 -6z m27 -44 c-13 -14 -31 -25 -39 -25 -11 0
-5 11 17 31 39 35 56 31 22 -6z"/>
<path d="M9560 10136 c-60 -40 -92 -81 -88 -111 5 -43 30 -53 81 -34 42 15 44
15 53 -5 5 -11 15 -22 22 -24 10 -3 12 4 7 31 -5 27 -1 45 18 80 24 42 25 57
5 57 -4 0 -19 -18 -33 -40 -27 -43 -55 -65 -97 -75 -64 -16 -16 60 71 111 17
10 31 22 31 26 0 15 -35 7 -70 -16z"/>
<path d="M6313 10123 c-78 -50 -107 -143 -57 -182 41 -33 154 -21 154 16 0 10
-5 13 -17 8 -71 -28 -136 -12 -131 33 2 17 8 26 17 24 25 -5 78 18 106 48 25
26 27 33 17 55 -15 32 -38 32 -89 -2z m57 -18 c0 -16 -56 -55 -79 -55 -19 0 4
27 44 52 36 22 35 22 35 3z"/>
<path d="M7498 10134 c-16 -8 -28 -21 -28 -28 0 -8 -7 -27 -15 -42 -21 -40
-19 -80 5 -104 27 -27 43 -25 85 11 31 28 35 36 29 63 -3 17 -16 42 -28 55
-15 17 -17 25 -8 28 6 3 12 11 12 19 0 18 -17 17 -52 -2z m30 -66 c7 -7 12
-24 12 -38 0 -32 -17 -50 -47 -50 -19 0 -23 5 -23 32 0 17 7 40 17 50 19 21
25 22 41 6z"/>
<path d="M9987 10110 c-43 -39 -44 -42 -40 -88 6 -64 20 -89 57 -102 37 -13
117 9 162 45 45 36 20 42 -42 10 -93 -47 -144 -35 -144 36 0 34 3 39 28 45 74
18 111 85 50 92 -20 2 -38 -7 -71 -38z m63 5 c0 -2 -10 -10 -22 -16 -21 -11
-22 -11 -9 4 13 16 31 23 31 12z"/>
<path d="M11387 10098 c-61 -61 -77 -101 -51 -129 22 -24 76 -34 103 -19 29
15 16 33 -19 25 -16 -4 -38 -2 -49 4 -27 15 -16 47 17 54 15 3 43 16 62 29 27
18 35 31 35 53 0 52 -36 45 -98 -17z m59 -4 c-30 -21 -45 -16 -16 6 14 10 27
16 30 13 3 -2 -4 -11 -14 -19z"/>
<path d="M3365 10120 c-51 -21 -109 -117 -97 -162 2 -10 14 -24 25 -30 29 -15
112 -11 147 7 38 20 40 40 3 30 -16 -4 -53 -8 -83 -9 -49 -1 -55 1 -58 21 -2
17 3 23 27 28 28 6 91 65 91 85 0 7 -28 41 -33 39 -1 0 -11 -4 -22 -9z m-4
-61 c-35 -28 -51 -22 -17 7 15 14 31 22 35 19 3 -4 -5 -15 -18 -26z"/>
<path d="M8625 10099 c-19 -17 -35 -36 -35 -43 0 -6 -11 -23 -25 -38 -14 -16
-22 -33 -19 -42 10 -27 23 -18 55 39 29 52 61 85 83 85 5 0 6 -31 2 -75 -6
-61 -4 -75 7 -75 16 0 27 48 27 116 0 70 -37 84 -95 33z"/>
<path d="M4945 10078 c-47 -41 -68 -88 -55 -122 26 -70 149 -78 218 -14 40 39
20 48 -31 14 -34 -23 -107 -32 -136 -17 -14 8 -21 21 -21 41 0 28 3 30 38 30
46 0 85 35 80 72 -5 37 -48 36 -93 -4z m65 -8 c0 -11 -33 -30 -52 -30 -7 1 -3
9 11 20 25 22 41 26 41 10z"/>
<path d="M8466 10098 c-2 -7 -14 -48 -26 -90 -23 -75 -23 -97 -1 -84 10 6 44
99 46 126 0 9 4 21 9 28 8 14 0 32 -15 32 -5 0 -11 -6 -13 -12z"/>
<path d="M12332 10076 c-16 -24 -22 -45 -20 -70 4 -49 22 -47 29 3 3 22 13 49
22 59 9 10 17 24 17 30 0 23 -25 11 -48 -22z"/>
<path d="M4670 10070 c-17 -18 -30 -37 -30 -43 0 -6 -3 -7 -6 -4 -10 10 -45
-13 -38 -24 3 -5 -4 -26 -15 -45 -12 -19 -21 -42 -21 -50 0 -33 28 -9 80 68
30 45 62 84 70 86 12 4 13 2 4 -9 -6 -8 -17 -36 -24 -62 -21 -78 -1 -79 56 -5
26 35 53 66 59 70 16 12 24 -25 9 -47 -18 -25 -18 -75 -1 -75 15 0 38 88 24
97 -5 3 -4 9 3 13 7 4 9 16 5 29 -10 33 -49 27 -83 -15 l-29 -35 1 37 c1 51
-24 57 -64 14z"/>
<path d="M4479 10053 c-24 -61 -40 -124 -34 -134 11 -17 28 -4 32 25 2 16 12
50 22 77 10 26 16 50 13 53 -12 12 -23 5 -33 -21z"/>
<path d="M3479 9835 c-1 -14 -2 -28 -3 -32 -1 -5 -6 -38 -10 -75 -4 -37 -14
-91 -22 -120 -7 -29 -14 -59 -14 -65 0 -27 27 -11 59 36 56 83 84 75 96 -24 9
-65 35 -85 35 -27 0 52 -16 104 -40 130 -26 28 -32 28 -68 -3 l-29 -25 8 44
c12 64 14 130 4 146 -5 9 -4 11 3 6 8 -5 12 0 12 13 0 31 -30 26 -31 -4z"/>
<path d="M8895 9820 c-8 -16 -27 -66 -41 -112 -48 -152 -92 -214 -146 -206
-18 2 -24 10 -26 36 -4 38 21 64 81 82 44 13 54 44 10 34 -51 -12 -68 -22
-102 -53 -28 -27 -32 -35 -26 -63 4 -18 14 -41 23 -50 31 -36 115 -14 141 36
l14 26 11 -23 c15 -29 54 -47 88 -40 23 4 25 7 13 19 -7 8 -25 14 -40 14 -19
0 -28 7 -36 28 -14 35 -7 63 41 183 22 55 38 105 35 110 -11 16 -24 10 -40
-21z"/>
<path d="M7050 9815 c-15 -18 -3 -40 14 -26 9 7 16 7 23 0 14 -14 25 3 17 25
-8 20 -38 21 -54 1z"/>
<path d="M6204 9809 c-10 -17 33 -56 47 -42 8 8 8 17 0 32 -13 23 -36 28 -47
10z"/>
<path d="M2325 9763 c-43 -22 -65 -44 -65 -62 0 -9 23 -40 51 -70 60 -65 62
-91 8 -105 -47 -11 -86 -1 -94 24 -4 11 -10 18 -15 15 -5 -3 -11 1 -13 7 -3 7
-6 1 -6 -13 -2 -48 21 -64 92 -64 117 0 143 61 62 143 -25 25 -44 53 -43 62 2
8 20 24 40 35 36 19 38 19 51 1 11 -16 15 -16 25 -3 10 12 10 18 -3 31 -20 20
-51 20 -90 -1z"/>
<path d="M2993 9708 c-44 -49 -72 -136 -46 -145 7 -3 17 6 22 19 43 112 56
125 107 116 12 -2 19 3 19 12 0 10 -12 16 -40 18 -32 2 -45 -2 -62 -20z"/>
<path d="M8320 9722 c-48 -16 -62 -59 -36 -110 8 -15 17 -44 21 -65 6 -30 4
-37 -8 -37 -9 0 -25 10 -37 22 -15 16 -23 19 -31 11 -9 -9 -5 -18 14 -37 29
-29 68 -34 87 -11 15 18 7 78 -15 121 -21 42 -19 63 10 74 36 14 31 44 -5 32z"/>
<path d="M2774 9701 c-35 -21 -74 -71 -74 -94 0 -42 64 -45 108 -5 l22 21 0
-20 c0 -11 9 -31 19 -44 16 -20 22 -22 33 -11 11 11 10 14 -1 21 -16 10 -19
52 -8 94 5 20 4 27 -7 27 -8 0 -16 7 -20 15 -7 20 -35 19 -72 -4z m66 -21 c0
-13 -79 -80 -95 -80 -22 0 -18 14 14 49 15 16 27 32 25 34 -3 2 9 4 26 5 16 0
30 -3 30 -8z"/>
<path d="M5050 9698 c-79 -53 -106 -146 -54 -187 28 -22 88 -28 113 -12 23 15
3 30 -33 24 -71 -11 -97 36 -55 104 24 38 65 63 104 63 37 0 27 24 -11 28 -18
2 -43 -6 -64 -20z"/>
<path d="M2510 9688 c-45 -48 -42 -120 7 -158 47 -37 62 -15 18 26 -33 30 -32
38 10 53 47 17 62 45 40 77 -19 30 -48 31 -75 2z m50 -23 c0 -14 -37 -41 -46
-33 -6 6 26 48 37 48 5 0 9 -7 9 -15z"/>
<path d="M4535 9658 c-29 -30 -57 -69 -63 -88 -6 -19 -25 -73 -42 -120 -41
-110 -48 -150 -26 -150 10 0 19 11 23 30 3 17 9 30 14 30 4 0 15 26 24 58 23
81 26 90 32 75 3 -7 16 -13 29 -13 29 0 114 82 114 110 0 10 4 21 9 24 15 9
22 68 10 82 -25 30 -70 16 -124 -38z m97 16 c13 -12 -26 -97 -60 -130 -38 -37
-52 -42 -52 -20 0 8 -5 16 -12 18 -20 7 9 63 53 103 37 33 59 42 71 29z"/>
<path d="M6185 9698 c-2 -7 -15 -49 -29 -93 -30 -91 -31 -105 -13 -105 14 0
67 155 67 193 0 20 -19 23 -25 5z"/>
<path d="M6343 9696 c-17 -8 -36 -23 -42 -34 -11 -20 -6 -52 8 -52 4 0 12 -15
18 -34 12 -38 -5 -76 -32 -76 -16 0 -55 52 -55 74 0 9 -6 16 -14 16 -27 0 -25
-30 5 -75 25 -36 36 -45 60 -45 33 0 79 38 79 66 0 10 -9 37 -21 61 -24 50
-17 67 32 78 17 4 28 12 26 18 -5 18 -28 18 -64 3z"/>
<path d="M7146 9679 c-33 -28 -106 -145 -106 -168 0 -6 7 -11 15 -11 17 0 58
78 48 93 -3 6 -1 7 5 3 7 -4 12 -2 12 5 0 17 66 79 85 79 19 0 19 -17 1 -72
-27 -84 -29 -100 -9 -96 17 3 21 12 45 115 9 42 9 55 -1 67 -21 25 -57 19 -95
-15z"/>
<path d="M4792 9685 c-35 -25 -75 -101 -68 -130 8 -32 30 -32 72 0 l33 25 -5
-25 c-5 -31 11 -65 31 -65 18 0 18 5 4 31 -7 15 -6 34 5 74 26 89 -9 133 -72
90z m51 -21 c9 -10 -29 -60 -64 -85 l-30 -21 7 27 c4 16 21 41 38 56 33 30 39
33 49 23z"/>
<path d="M7680 9682 c-40 -20 -71 -68 -72 -112 -1 -17 -5 -33 -10 -36 -12 -7
-10 -42 3 -49 15 -10 20 -2 25 37 12 83 45 134 92 141 30 4 39 16 22 27 -20
13 -20 13 -60 -8z"/>
<path d="M5269 9671 c-40 -22 -74 -81 -65 -116 15 -59 100 -96 171 -74 71 22
71 45 -1 29 -80 -19 -156 27 -135 81 12 34 46 62 68 56 14 -3 9 -8 -19 -21
-38 -16 -47 -29 -28 -41 13 -8 86 30 93 49 6 16 -11 41 -34 49 -10 3 -32 -2
-50 -12z"/>
<path d="M7405 9682 c-46 -10 -114 -90 -115 -135 0 -10 11 -29 25 -43 22 -22
32 -25 92 -22 42 2 68 8 71 16 3 9 -14 12 -61 12 -46 0 -70 5 -81 16 -20 20
-20 22 4 61 26 43 64 67 95 59 18 -5 25 -2 25 8 0 19 -29 34 -55 28z"/>
<path d="M8489 9678 c-54 -44 -67 -131 -24 -173 28 -29 102 -36 102 -10 0 10
-11 15 -33 15 -18 0 -40 7 -48 16 -27 27 -19 51 27 76 35 19 42 28 42 53 0 25
-5 31 -25 33 -14 2 -32 -3 -41 -10z m30 -36 c-7 -10 -18 -19 -25 -19 -11 0
-10 5 3 19 9 10 20 18 25 18 4 0 3 -8 -3 -18z"/>
<path d="M7770 9642 c-35 -35 -40 -45 -40 -85 0 -28 6 -52 16 -61 16 -16 60
-19 103 -7 34 9 39 31 8 31 -14 0 -27 -4 -29 -10 -6 -18 -63 5 -66 27 -2 16 4
22 27 26 45 9 73 42 69 80 -5 49 -39 48 -88 -1z m60 -7 c0 -17 -48 -51 -58
-41 -4 4 6 19 21 32 33 28 37 29 37 9z"/>
<path d="M7985 9647 c-72 -72 -20 -158 58 -97 l26 20 3 -37 c2 -25 8 -39 19
-41 13 -2 15 7 11 60 -8 119 -55 157 -117 95z m72 -41 c-8 -21 -54 -49 -67
-41 -17 11 -11 35 16 62 23 23 27 24 41 10 9 -8 13 -22 10 -31z"/>
<path d="M3195 9651 c-57 -35 -97 -86 -93 -117 6 -51 101 -94 147 -65 21 13 5
29 -24 23 -30 -5 -81 14 -89 35 -15 37 63 105 122 108 25 0 37 5 37 15 0 23
-65 24 -100 1z"/>
<path d="M4313 9655 c-37 -16 -43 -46 -18 -79 17 -23 20 -92 4 -101 -20 -13
-58 5 -76 35 -18 31 -43 40 -43 16 0 -8 15 -31 34 -50 39 -42 82 -48 111 -16
22 24 22 87 0 129 -15 31 -15 31 12 43 15 6 40 10 56 9 19 -2 27 2 27 13 0 21
-62 21 -107 1z"/>
<path d="M6986 9625 c-10 -24 -14 -50 -10 -57 4 -7 3 -10 -1 -5 -12 11 -38
-54 -26 -66 11 -11 31 -1 31 17 0 8 9 34 21 60 11 25 18 50 15 55 -3 5 1 12
10 15 8 3 12 10 9 16 -13 22 -33 8 -49 -35z"/>
<path d="M2573 9527 c5 -15 39 -16 44 -2 2 6 -8 12 -23 13 -17 1 -24 -2 -21
-11z"/>
<path d="M9154 9499 c-10 -17 13 -36 27 -22 12 12 4 33 -11 33 -5 0 -12 -5
-16 -11z"/>
<path d="M6324 9107 c-20 -17 -25 -29 -20 -43 7 -18 8 -17 26 6 l18 24 4 -25
c5 -37 23 -24 23 18 0 45 -15 51 -51 20z"/>
<path d="M11510 9074 c-7 -16 -23 -71 -38 -121 l-26 -93 -44 0 c-38 0 -79 -20
-66 -32 2 -3 27 -3 55 0 47 4 51 3 46 -14 -19 -63 -47 -171 -47 -181 0 -25 28
-13 34 15 4 15 16 62 28 105 20 76 21 77 53 77 54 0 95 12 95 27 0 11 -12 13
-61 7 -57 -6 -61 -6 -56 12 3 10 11 39 17 64 7 25 19 67 27 93 11 35 13 51 5
59 -8 8 -14 3 -22 -18z"/>
<path d="M2818 9082 c-29 -2 -48 -8 -52 -18 -4 -11 4 -14 39 -14 46 0 95 14
95 28 0 8 -9 9 -82 4z"/>
<path d="M12314 9073 c-3 -10 -10 -25 -15 -33 -5 -8 -24 -46 -41 -84 l-32 -69
-63 6 c-34 4 -65 2 -68 -3 -8 -13 11 -21 70 -27 52 -6 53 -6 44 -31 -5 -14
-10 -49 -11 -78 -2 -60 19 -99 60 -115 46 -18 122 4 122 35 0 6 -5 4 -10 -4
-5 -8 -10 -10 -10 -3 0 6 -8 9 -19 6 -12 -3 -17 -11 -14 -19 3 -8 0 -14 -6
-14 -6 0 -11 4 -11 9 0 5 -14 12 -30 16 -17 4 -35 16 -41 27 -12 22 -8 136 5
157 4 6 38 11 80 11 67 0 75 2 90 25 21 32 20 35 -9 35 -15 0 -25 -6 -25 -14
0 -10 -17 -15 -60 -18 -33 -1 -60 0 -60 3 0 3 20 45 45 93 25 49 45 93 45 97
0 17 -31 9 -36 -8z"/>
<path d="M2515 9069 c-172 -28 -195 -35 -181 -57 3 -6 26 -4 58 5 29 8 80 16
113 19 33 3 67 7 75 11 8 3 50 4 93 3 64 -1 77 1 77 14 0 14 -15 16 -92 15
-51 -1 -115 -5 -143 -10z"/>
<path d="M7971 8987 c-12 -45 -28 -100 -35 -122 -10 -36 -15 -40 -46 -43 -19
-2 -38 -9 -42 -15 -6 -9 -8 -8 -8 1 0 19 -54 11 -58 -8 -2 -13 9 -15 69 -12
68 4 71 4 60 -15 -7 -14 -7 -23 1 -31 9 -9 8 -12 -3 -12 -9 0 -21 -19 -31 -50
-12 -38 -13 -50 -4 -50 14 0 35 44 59 120 12 36 20 46 46 53 18 4 31 14 31 23
0 12 -6 15 -26 10 -22 -6 -25 -4 -20 11 8 26 37 135 40 150 1 7 5 16 9 19 12
12 8 54 -5 54 -8 0 -23 -36 -37 -83z"/>
<path d="M6261 9013 c-58 -116 -68 -142 -117 -294 -21 -64 -34 -124 -31 -133
8 -20 27 -12 27 11 0 8 12 48 26 88 30 84 47 96 142 103 13 1 22 9 22 18 0 14
-7 15 -46 9 -26 -3 -53 -9 -62 -12 -24 -10 -9 45 40 145 45 94 48 104 33 109
-6 2 -21 -18 -34 -44z"/>
<path d="M4740 8997 c0 -12 -13 -76 -30 -142 -23 -92 -27 -121 -17 -127 7 -5
8 -8 1 -8 -14 0 -37 -70 -32 -100 5 -35 30 -46 67 -30 95 39 145 171 76 202
-22 10 -29 8 -55 -17 -34 -33 -34 -33 -19 35 6 29 12 57 13 63 1 7 7 28 13 47
6 19 14 50 17 68 5 27 3 32 -14 32 -14 0 -20 -7 -20 -23z m70 -266 c0 -38 -77
-121 -112 -121 -26 0 19 99 62 136 27 24 50 17 50 -15z"/>
<path d="M14300 8999 c0 -24 23 -21 28 4 2 10 -3 17 -12 17 -10 0 -16 -9 -16
-21z"/>
<path d="M2861 8988 c-25 -26 -27 -38 -6 -38 8 0 15 -3 15 -7 0 -31 -34 -200
-50 -253 -11 -36 -20 -71 -20 -77 0 -32 30 -6 79 69 30 45 57 76 59 70 2 -7
-2 -35 -8 -63 -9 -37 -9 -54 -1 -62 16 -16 22 -5 37 74 10 53 11 76 3 86 -18
21 -29 16 -69 -29 l-39 -42 9 40 c22 99 34 240 21 248 -5 4 -19 -4 -30 -16z"/>
<path d="M2685 8991 c-3 -5 -1 -12 4 -16 6 -3 8 -11 6 -18 -11 -29 -64 -301
-59 -308 2 -4 -1 -9 -7 -11 -6 -2 -11 -19 -12 -38 -3 -51 25 -47 35 5 4 22 23
116 42 209 19 94 33 173 30 178 -7 11 -31 10 -39 -1z"/>
<path d="M9500 8923 c1 -20 19 -35 35 -29 14 5 15 9 5 21 -13 16 -40 21 -40 8z"/>
<path d="M8121 8887 c-14 -18 -4 -27 31 -27 30 0 35 9 16 28 -16 16 -33 15
-47 -1z"/>
<path d="M8813 8851 c-53 -33 -53 -55 0 -142 32 -54 28 -79 -14 -79 -23 0 -34
8 -50 35 -34 58 -56 36 -24 -24 28 -56 112 -60 136 -7 11 24 -1 60 -46 136
-14 23 -13 26 12 48 19 17 34 22 53 18 33 -6 44 2 29 21 -16 19 -59 16 -96 -6z"/>
<path d="M14737 8840 c-14 -16 -27 -33 -29 -38 -5 -15 -79 -62 -97 -62 -11 1
-8 8 13 24 26 22 29 46 6 46 -18 0 -71 -61 -68 -78 3 -13 14 -17 51 -16 41 0
53 5 86 38 l38 37 6 -49 c3 -27 2 -67 -3 -89 -5 -22 -11 -54 -12 -72 -2 -25
-7 -31 -24 -31 -65 0 -125 -49 -154 -127 -35 -93 -23 -173 25 -173 25 0 89 56
80 70 -3 5 1 12 8 17 8 4 30 49 50 98 l35 90 87 7 c87 6 113 16 101 37 -5 8
-13 8 -27 1 -30 -17 -161 -8 -166 10 -4 13 -3 13 5 1 8 -11 12 -3 16 30 10 81
14 259 6 259 -5 0 -19 -13 -33 -30z m-33 -342 c-3 -13 -13 -38 -20 -57 -8 -18
-12 -37 -9 -41 3 -5 -5 -20 -17 -35 -70 -83 -75 -88 -88 -80 -19 12 -6 107 22
158 33 60 128 106 112 55z"/>
<path d="M14162 8776 c-23 -47 -43 -95 -45 -107 -3 -30 20 -36 28 -7 4 13 25
58 46 102 43 86 45 96 26 96 -7 0 -32 -38 -55 -84z"/>
<path d="M11181 8834 c-19 -14 -22 -22 -17 -53 17 -104 18 -119 8 -125 -16
-10 -60 14 -65 35 -5 20 -37 27 -37 8 0 -35 55 -79 99 -79 40 0 50 62 25 161
-5 23 -2 28 25 37 17 6 31 16 31 21 0 17 -43 13 -69 -5z"/>
<path d="M13490 8826 c-94 -50 -133 -140 -80 -186 24 -21 71 -24 70 -5 -1 15
-48 25 -53 12 -3 -7 -5 -3 -5 8 1 11 -1 26 -3 34 -3 9 10 19 39 27 23 7 56 23
73 34 25 19 30 28 27 58 -2 19 -8 37 -13 39 -6 2 -30 -8 -55 -21z m38 -28 c-6
-16 -47 -45 -77 -53 -32 -10 -20 9 27 40 42 27 56 31 50 13z"/>
<path d="M13975 8838 c-11 -6 -31 -20 -45 -32 -15 -13 -19 -14 -11 -4 13 17 8
38 -10 38 -6 0 -17 -17 -26 -37 -8 -21 -29 -57 -45 -81 -21 -31 -27 -47 -20
-54 8 -8 32 11 84 65 40 43 78 77 85 77 8 0 3 -25 -15 -74 -14 -41 -23 -78
-18 -83 12 -12 30 19 56 96 20 58 22 72 11 85 -16 19 -19 19 -46 4z"/>
<path d="M3074 8815 c-31 -31 -50 -76 -58 -135 -9 -60 9 -92 55 -104 30 -7 44
-5 79 15 44 25 69 53 58 65 -4 3 -22 -5 -40 -19 -43 -32 -73 -41 -97 -28 -43
24 -37 96 9 106 60 13 101 80 68 113 -19 19 -47 14 -74 -13z m56 -20 c0 -17
-47 -51 -57 -41 -7 7 36 56 49 56 4 0 8 -7 8 -15z"/>
<path d="M5240 8827 c-13 -7 -35 -28 -47 -47 -12 -19 -31 -44 -42 -55 -10 -11
-22 -36 -26 -55 -4 -19 -12 -40 -17 -47 -10 -13 -3 -33 12 -33 6 0 28 37 50
83 59 118 84 146 119 128 27 -15 41 7 16 26 -23 16 -33 16 -65 0z"/>
<path d="M7441 8805 c-38 -34 -66 -87 -54 -99 4 -3 1 -6 -5 -6 -15 0 -16 -66
-1 -76 14 -8 29 14 22 33 -7 17 14 69 44 111 19 25 31 32 59 32 38 0 45 14 15
30 -30 15 -38 13 -80 -25z"/>
<path d="M13174 8819 c-17 -19 -19 -19 -30 -4 -12 16 -39 12 -29 -5 9 -14 -17
-74 -51 -119 -19 -24 -34 -50 -34 -58 0 -29 28 -10 66 43 21 31 56 75 77 98
33 36 38 38 32 16 -4 -14 -18 -47 -32 -73 -41 -78 -16 -80 62 -6 84 81 98 89
89 55 -3 -14 -15 -43 -25 -63 -21 -42 -24 -59 -9 -68 9 -6 31 37 30 58 -1 4 6
14 14 23 22 22 32 84 15 95 -23 14 -34 11 -84 -27 -34 -27 -44 -31 -36 -16 6
11 11 32 11 46 0 21 -5 26 -23 26 -13 0 -32 -9 -43 -21z"/>
<path d="M3812 8818 c-15 -15 -16 -45 0 -50 8 -3 1 -31 -20 -87 -33 -85 -39
-121 -22 -121 5 0 17 12 27 28 10 15 39 58 66 95 31 45 46 75 42 85 -7 18 -17
10 -57 -49 -16 -23 -16 -22 -2 25 8 27 14 57 14 68 0 21 -29 25 -48 6z"/>
<path d="M3926 8811 c-21 -23 -13 -49 9 -31 11 9 12 5 5 -22 -4 -18 -15 -50
-24 -70 -20 -47 -20 -92 0 -112 30 -31 45 -14 22 24 -10 16 -7 33 15 99 32 96
35 131 9 131 -11 0 -27 -9 -36 -19z"/>
<path d="M4105 8813 c-28 -69 -55 -162 -55 -189 0 -121 198 -12 216 119 6 39
4 47 -10 47 -10 0 -16 -9 -16 -25 0 -38 -35 -100 -72 -127 -50 -36 -77 -48
-83 -37 -8 12 2 95 15 116 13 24 40 93 40 104 0 16 -28 9 -35 -8z"/>
<path d="M4507 8819 c-9 -5 -25 -24 -34 -42 l-17 -32 -6 29 c-7 40 -25 43 -54
11 -23 -25 -25 -25 -21 -6 2 13 -1 21 -11 21 -8 0 -14 -3 -15 -7 -2 -23 -9
-45 -32 -103 -25 -60 -26 -80 -7 -80 4 0 23 23 40 51 25 41 29 54 18 61 -10 7
-9 8 4 6 9 -2 24 6 32 17 14 19 15 17 5 -15 -35 -112 -15 -119 55 -19 26 39
51 68 54 65 3 -3 -3 -33 -13 -65 -10 -33 -15 -67 -12 -75 9 -24 32 -9 33 22 1
15 9 52 17 82 23 78 11 106 -36 79z"/>
<path d="M4963 8808 c-28 -32 -63 -104 -63 -131 0 -39 27 -67 65 -67 43 0 65
9 65 26 0 11 -9 13 -41 8 -43 -7 -59 3 -59 39 0 11 8 17 23 17 24 0 56 28 75
65 13 27 -2 65 -26 65 -10 0 -28 -10 -39 -22z m28 -47 c-8 -14 -8 -21 2 -24 6
-2 0 -4 -15 -3 -23 1 -25 4 -16 21 6 11 16 26 21 34 15 18 21 -3 8 -28z"/>
<path d="M7071 8800 c-43 -38 -82 -90 -75 -101 3 -5 -1 -6 -9 -3 -18 7 -37
-17 -42 -53 -8 -54 -24 -128 -34 -155 -6 -16 -9 -28 -6 -28 2 0 -7 -28 -21
-61 -23 -59 -24 -79 -3 -79 20 0 64 119 74 201 9 70 21 89 58 89 70 0 147 81
147 154 0 72 -33 85 -89 36z m59 -30 c0 -63 -42 -114 -103 -125 l-39 -8 17 33
c19 36 103 130 116 130 5 0 9 -14 9 -30z"/>
<path d="M13702 8813 c-57 -28 -94 -71 -90 -107 4 -37 22 -43 74 -21 27 11 35
18 27 26 -8 8 -20 8 -42 1 -25 -9 -31 -8 -31 3 0 16 68 75 87 75 23 0 25 -22
4 -44 -13 -13 -17 -26 -12 -32 5 -5 11 -20 13 -33 5 -39 25 -35 31 6 4 21 18
54 32 73 16 22 22 37 15 44 -6 6 -14 5 -22 -2 -11 -8 -17 -6 -26 9 -15 23 -18
23 -60 2z"/>
<path d="M14414 8808 c-16 -13 -35 -29 -43 -36 -7 -7 -20 -11 -27 -8 -8 3 -20
-8 -29 -29 -9 -18 -25 -41 -36 -51 -19 -17 -26 -54 -10 -54 15 0 96 90 93 103
-2 7 0 9 4 5 4 -4 24 8 46 27 33 30 58 44 58 31 0 -2 -7 -23 -15 -46 -17 -47
-14 -60 9 -41 17 15 48 100 40 112 -10 17 -61 9 -90 -13z"/>
<path d="M8475 8779 c-45 -41 -45 -41 -45 -15 0 16 -5 26 -15 26 -10 0 -15
-10 -15 -33 0 -18 -9 -50 -20 -72 -24 -46 -25 -55 -6 -55 7 0 32 24 55 54 44
59 107 113 118 102 4 -4 -3 -38 -16 -76 -26 -75 -27 -85 -9 -85 14 0 57 111
57 151 1 31 -12 44 -45 44 -8 0 -35 -19 -59 -41z"/>
<path d="M7249 8798 c-9 -7 -25 -29 -35 -48 -11 -19 -26 -41 -34 -47 -13 -12
-13 -15 3 -27 9 -7 17 -18 17 -24 0 -19 49 -47 62 -34 7 7 4 14 -11 24 -29 18
-27 30 13 66 27 24 34 38 33 64 -2 36 -22 47 -48 26z m2 -61 l-23 -22 17 28
c10 15 20 25 23 22 3 -3 -5 -16 -17 -28z"/>
<path d="M9619 8791 l-24 -19 17 -64 c12 -47 13 -65 5 -71 -16 -10 -60 1 -73
19 -16 20 -34 17 -34 -7 0 -43 131 -64 146 -24 3 8 -1 42 -10 77 -9 34 -13 64
-11 67 3 2 24 7 48 10 54 8 55 25 1 29 -29 2 -48 -3 -65 -17z"/>
<path d="M10931 8793 c-13 -10 -37 -31 -52 -47 l-28 -30 6 37 c7 44 -12 51
-27 11 -7 -19 -7 -31 1 -40 9 -11 8 -14 -2 -14 -18 0 -41 -68 -26 -77 13 -8
70 54 62 67 -4 6 -1 10 6 10 7 0 28 14 46 32 31 30 33 31 33 10 0 -13 6 -22
16 -22 11 0 14 9 12 37 -4 43 -15 50 -47 26z"/>
<path d="M11589 8786 c-86 -59 -42 -149 49 -102 l27 14 -3 -40 c-4 -34 -2 -39
14 -36 13 2 17 13 17 43 0 24 9 52 24 73 30 46 29 61 -4 61 -16 0 -41 3 -58 6
-22 4 -39 0 -66 -19z m82 -17 c26 -13 14 -29 -41 -54 -57 -26 -74 -8 -32 34
33 34 43 36 73 20z"/>
<path d="M11796 8798 c-2 -7 -8 -35 -13 -63 -6 -27 -12 -56 -14 -64 -8 -29 22
-21 34 8 7 17 16 29 18 26 3 -3 18 9 34 25 40 42 49 38 41 -18 -7 -57 2 -112
19 -112 8 0 12 27 11 97 -1 114 -11 124 -70 72 l-36 -31 2 32 c3 32 -18 55
-26 28z"/>
<path d="M8277 8793 c-4 -3 -7 -15 -7 -25 0 -12 -7 -18 -21 -18 -34 0 -79 -53
-79 -94 0 -59 61 -70 115 -20 22 20 25 30 21 71 -2 27 -5 58 -5 71 -1 22 -11
28 -24 15z m3 -95 c0 -29 -28 -58 -57 -58 -29 0 -31 32 -3 60 27 27 60 26 60
-2z"/>
<path d="M10399 8780 c-47 -25 -99 -85 -99 -114 0 -33 37 -76 65 -76 35 0 71
16 78 35 9 23 -20 31 -42 11 -26 -23 -50 -20 -63 9 -10 21 -8 30 9 53 26 35
90 71 115 64 16 -4 19 -1 16 14 -4 26 -36 27 -79 4z"/>
<path d="M5973 8758 c-41 -44 -53 -70 -53 -112 0 -25 6 -38 19 -46 32 -17 49
-12 86 25 38 39 47 85 21 120 -8 11 -12 25 -9 32 10 26 -34 13 -64 -19z m57
-62 c0 -23 -47 -76 -68 -76 -10 0 -13 9 -10 33 7 50 11 60 33 79 18 16 21 16
33 1 6 -9 12 -26 12 -37z"/>
<path d="M7635 8769 c-39 -22 -75 -63 -75 -85 0 -30 26 -38 63 -19 39 19 37
20 37 -15 0 -33 19 -47 48 -35 16 6 16 7 -2 20 -15 12 -17 22 -12 59 8 54 0
58 -48 21 -49 -37 -67 -30 -22 9 28 24 45 32 63 28 19 -4 24 -1 21 9 -6 18
-47 22 -73 8z"/>
<path d="M10622 8773 c-19 -7 -52 -78 -52 -112 0 -43 40 -72 82 -60 41 11 78
47 78 75 0 38 -22 74 -49 81 -14 3 -30 9 -36 13 -5 4 -16 5 -23 3z m73 -57
c31 -28 -20 -91 -67 -84 -29 4 -35 36 -13 77 13 27 19 30 42 24 15 -3 32 -11
38 -17z"/>
<path d="M6810 8749 c-33 -14 -58 -37 -86 -81 -32 -51 -32 -95 1 -110 59 -27
175 60 161 120 -4 15 -8 35 -10 45 -2 17 -23 37 -36 36 -3 0 -16 -5 -30 -10z
m40 -62 c13 -24 13 -28 -10 -53 -24 -25 -77 -54 -100 -54 -31 0 10 92 57 128
22 16 35 11 53 -21z"/>
<path d="M8078 8743 c-9 -10 -21 -36 -28 -58 -7 -22 -18 -47 -26 -55 -8 -10
-10 -21 -5 -29 16 -26 37 -3 56 58 10 34 22 64 27 67 11 7 10 34 0 34 -5 0
-16 -8 -24 -17z"/>
<path d="M9416 8718 c-2 -7 -16 -46 -30 -86 -30 -84 -32 -102 -11 -102 8 0 15
6 15 14 0 8 14 48 30 89 17 42 30 80 30 86 0 15 -30 14 -34 -1z"/>
<path d="M10952 8711 c-8 -4 -16 -27 -19 -50 -4 -32 -2 -41 9 -41 20 0 42 26
29 34 -6 4 -6 18 -1 36 9 31 5 36 -18 21z"/>
<path d="M12660 8673 c0 -19 -46 -91 -70 -110 -8 -6 -24 -18 -35 -27 -15 -11
-17 -17 -8 -27 16 -16 115 75 106 98 -4 11 -2 14 5 9 13 -8 32 24 32 53 0 12
-7 21 -15 21 -8 0 -15 -8 -15 -17z"/>
<path d="M2175 8628 c-2 -7 -8 -44 -14 -83 -5 -38 -17 -98 -26 -132 l-17 -62
-52 -11 c-28 -6 -69 -14 -90 -18 -22 -4 -42 -14 -44 -21 -4 -11 7 -13 59 -7
35 4 68 11 74 16 6 5 17 5 24 1 11 -7 8 -34 -17 -142 -40 -174 -40 -174 -23
-174 10 0 25 47 51 157 20 86 42 163 49 172 7 8 11 21 8 28 -2 7 4 42 14 78 9
36 20 90 24 120 4 30 12 58 17 61 14 9 1 29 -18 29 -8 0 -16 -6 -19 -12z"/>
<path d="M8796 8532 c-2 -4 18 -47 46 -95 79 -136 79 -215 0 -299 -51 -54
-107 -88 -147 -88 -15 0 -25 -6 -25 -14 0 -72 206 54 246 151 18 42 20 126 4
168 -17 45 -101 185 -110 185 -5 0 -11 -3 -14 -8z"/>
<path d="M2289 8528 c-3 -11 -11 -59 -25 -158 -9 -63 -25 -135 -35 -159 -23
-52 -24 -81 -5 -81 8 0 21 21 30 48 9 26 32 65 52 87 l35 40 -6 -89 c-6 -71
-4 -87 6 -84 16 5 27 63 25 132 -1 63 -24 81 -59 48 l-24 -23 8 53 c6 35 5 54
-2 59 -8 5 -8 8 1 11 13 4 33 95 24 109 -5 8 -23 13 -25 7z"/>
<path d="M10611 8496 c-8 -13 -10 -30 -6 -37 6 -8 4 -11 -7 -6 -10 3 -20 -4
-28 -21 -6 -15 -11 -28 -11 -30 1 -1 -3 -8 -9 -15 -6 -6 -16 -20 -23 -29 -11
-17 -65 -29 -125 -28 -15 0 -22 -5 -19 -13 3 -8 23 -11 64 -9 l60 3 -5 -55
c-8 -100 13 -136 81 -136 47 0 95 26 79 42 -6 6 -17 6 -30 -1 -25 -13 -67 -14
-91 -2 -15 8 -16 19 -10 76 3 36 9 68 11 71 3 2 34 7 69 10 35 4 68 10 73 15
15 14 -21 22 -74 17 -28 -3 -50 -3 -50 -1 0 7 51 96 71 125 11 14 19 31 19 37
0 20 -26 11 -39 -13z"/>
<path d="M12924 8463 c-7 -32 -33 -114 -58 -182 -26 -69 -44 -131 -41 -139 8
-22 29 -8 36 24 4 16 25 81 48 143 44 123 60 211 38 211 -7 0 -17 -24 -23 -57z"/>
<path d="M8293 8481 c-57 -41 -92 -87 -131 -171 -43 -92 -54 -188 -28 -238 24
-46 93 -94 131 -90 38 4 36 21 -3 29 -42 9 -87 44 -102 79 -39 93 61 326 157
366 31 14 43 37 24 48 -5 3 -26 -7 -48 -23z"/>
<path d="M13729 8425 c-30 -66 -37 -74 -64 -77 -19 -2 -30 -9 -30 -18 0 -10 8
-14 23 -13 26 3 26 1 7 -52 -18 -52 -19 -86 -1 -111 12 -15 17 -16 27 -7 10
10 10 15 0 27 -14 16 -8 56 15 116 11 28 21 36 42 38 15 1 32 9 38 18 9 12 13
12 16 2 4 -10 8 -10 22 1 25 21 6 32 -34 21 -60 -17 -62 -14 -30 50 28 56 31
80 11 80 -4 0 -23 -34 -42 -75z"/>
<path d="M9627 8473 c-11 -11 -8 -20 9 -27 23 -9 37 3 23 20 -13 15 -22 18
-32 7z"/>
<path d="M8520 8392 c-41 -36 -76 -72 -78 -79 -5 -18 23 -16 38 2 7 9 30 29
51 46 l38 30 -20 -55 c-10 -31 -19 -69 -19 -86 0 -29 -1 -30 -50 -30 -27 0
-61 5 -75 12 -19 9 -28 9 -37 0 -20 -20 3 -31 72 -38 36 -4 67 -11 70 -15 8
-11 121 23 117 35 -2 6 -19 10 -37 9 l-32 -1 6 44 c3 24 16 69 29 100 22 51
26 95 8 93 -3 0 -40 -30 -81 -67z"/>
<path d="M10910 8441 c0 -15 6 -21 21 -21 25 0 22 33 -4 38 -12 2 -17 -3 -17
-17z"/>
<path d="M6135 8430 c-10 -16 24 -45 37 -32 8 8 8 15 -2 27 -14 17 -26 19 -35
5z"/>
<path d="M3504 8417 c-29 -15 -84 -79 -90 -104 -4 -13 -11 -23 -16 -23 -6 0
-7 8 -4 17 6 15 -8 32 -26 33 -5 0 -8 -27 -8 -59 0 -33 -5 -72 -10 -87 -15
-40 5 -58 55 -48 66 12 145 100 163 181 16 69 -17 115 -64 90z m36 -59 c0 -67
-81 -178 -130 -178 -38 0 -21 52 51 157 43 62 79 72 79 21z"/>
<path d="M7771 8389 c-35 -34 -71 -101 -71 -134 0 -43 38 -105 74 -120 81 -34
212 -7 251 51 47 72 -62 218 -171 230 -45 5 -52 3 -83 -27z m135 -28 c46 -21
78 -57 94 -107 10 -30 9 -38 -7 -56 -27 -31 -76 -48 -137 -48 -43 0 -60 5 -84
25 -52 43 -51 114 3 171 38 40 69 43 131 15z"/>
<path d="M3658 8343 c-72 -74 -114 -193 -70 -193 26 0 34 11 21 27 -9 10 -5
27 17 70 30 63 63 97 79 82 14 -14 25 -11 25 9 0 17 -18 42 -30 42 -3 0 -22
-17 -42 -37z"/>
<path d="M4596 8359 c-37 -29 -33 -53 19 -108 48 -52 56 -71 27 -71 -24 0 -49
21 -54 43 -5 28 -23 25 -26 -4 -4 -30 18 -56 54 -65 32 -8 70 2 78 22 8 21
-17 67 -48 88 -14 9 -31 26 -37 38 -15 28 10 48 63 48 27 0 38 4 38 15 0 24
-81 20 -114 -6z"/>
<path d="M2180 8350 c0 -16 4 -18 22 -11 32 12 34 31 4 31 -19 0 -26 -5 -26
-20z"/>
<path d="M4811 8354 c-30 -22 -25 -62 19 -132 17 -28 28 -56 25 -62 -10 -16
-46 -2 -75 28 l-25 27 -3 -23 c-5 -31 13 -50 58 -63 44 -13 80 1 80 31 0 11
-17 49 -37 86 -34 62 -35 68 -19 79 9 7 30 11 46 9 15 -3 31 0 35 6 10 15 5
18 -40 25 -29 5 -46 2 -64 -11z"/>
<path d="M2524 8329 c-87 -69 -114 -153 -66 -201 19 -20 33 -23 95 -23 49 1
82 6 105 18 34 19 42 37 16 37 -9 0 -12 -5 -8 -12 4 -6 3 -8 -4 -5 -5 4 -32 2
-60 -4 -58 -14 -118 -5 -131 19 -5 9 -7 29 -4 44 4 23 9 26 33 22 22 -5 36 1
68 31 47 41 59 69 42 90 -19 23 -43 18 -86 -16z m56 -18 c-11 -21 -53 -53 -84
-65 -17 -6 -17 -5 -5 11 47 58 113 98 89 54z"/>
<path d="M6286 8339 c-34 -27 -33 -57 4 -116 35 -55 38 -73 9 -73 -32 0 -59
19 -59 40 0 21 -24 27 -35 10 -13 -21 7 -49 48 -69 101 -49 126 28 45 141 -17
24 17 61 48 54 26 -7 43 12 23 25 -23 15 -55 10 -83 -12z"/>
<path d="M12315 8321 c6 -34 3 -41 -25 -65 -55 -46 -90 -30 -90 41 0 50 -10
53 -69 23 -56 -28 -101 -69 -101 -91 0 -28 38 -25 42 3 2 14 18 31 43 45 51
29 55 29 55 -5 0 -35 33 -72 65 -72 34 0 87 34 107 68 15 24 15 34 5 61 -17
46 -40 41 -32 -8z"/>
<path d="M4345 8340 c-66 -27 -104 -122 -67 -168 20 -26 95 -38 137 -22 43 16
19 31 -39 24 -40 -5 -56 -3 -68 9 -9 9 -19 13 -23 9 -5 -4 -5 1 -2 11 4 10 7
21 7 23 0 2 10 4 23 4 31 0 84 34 92 60 5 15 1 27 -14 41 -11 10 -21 19 -23
18 -2 0 -12 -4 -23 -9z m12 -55 c-15 -14 -36 -25 -45 -25 -13 1 -11 6 11 25
15 14 36 25 45 25 13 -1 11 -6 -11 -25z"/>
<path d="M13145 8336 c-16 -7 -39 -23 -50 -36 l-20 -22 -5 28 c-4 22 -10 28
-25 26 -37 -6 -155 -137 -155 -172 0 -22 30 -8 45 20 9 17 20 30 25 30 6 0 10
6 10 13 0 13 50 67 63 67 4 0 -2 -23 -13 -52 -10 -28 -17 -56 -13 -61 3 -5 37
23 76 64 77 81 93 79 57 -5 -24 -58 -25 -76 -4 -76 11 0 15 6 11 20 -3 11 -2
18 3 15 10 -6 42 78 44 117 1 37 -9 42 -49 24z"/>
<path d="M9761 8313 c-69 -36 -141 -105 -141 -137 0 -38 16 -40 41 -4 31 45
89 102 118 118 22 11 23 11 16 -6 -41 -98 -48 -125 -37 -150 12 -24 38 -42 48
-31 3 3 -2 17 -11 30 -16 24 -15 29 10 89 50 118 42 135 -44 91z"/>
<path d="M11002 8313 c-62 -40 -131 -183 -89 -183 8 0 24 11 37 25 18 19 21
28 12 37 -22 22 46 108 85 108 12 0 14 -8 8 -37 -3 -21 -13 -48 -21 -60 -19
-30 -18 -43 5 -43 24 0 45 25 35 42 -4 7 -3 10 1 5 5 -4 26 9 47 30 l38 37 -6
-62 c-6 -51 -4 -62 8 -62 11 0 17 15 22 53 13 110 0 128 -58 83 l-35 -26 -3
37 c-4 49 -28 53 -86 16z"/>
<path d="M13466 8319 c-31 -24 -33 -47 -6 -96 26 -48 13 -67 -42 -58 -39 7
-48 -1 -26 -23 19 -19 76 -14 98 8 25 25 25 46 0 88 -26 43 -25 49 10 67 17 9
30 20 30 25 0 17 -36 11 -64 -11z"/>
<path d="M3812 8314 c-12 -8 -31 -33 -43 -55 -17 -34 -18 -45 -9 -75 13 -40
35 -54 83 -54 27 0 41 7 61 31 49 58 46 117 -7 149 -39 24 -56 25 -85 4z m53
-23 c21 -2 36 -19 45 -49 5 -20 5 -30 -1 -27 -5 4 -9 1 -9 -6 0 -22 -33 -49
-60 -49 -49 0 -65 43 -35 99 8 16 12 31 10 33 -3 3 5 4 18 2 12 -1 27 -3 32
-3z"/>
<path d="M13325 8320 c-3 -5 -12 -7 -21 -3 -9 3 -28 -9 -49 -32 -44 -46 -46
-85 -8 -115 30 -24 62 -21 103 9 22 16 25 26 25 76 0 43 -4 59 -17 66 -21 11
-25 11 -33 -1z m22 -73 c5 -35 3 -38 -28 -51 -79 -33 -94 35 -19 87 29 20 39
13 47 -36z"/>
<path d="M4046 8291 c-35 -37 -47 -109 -22 -130 9 -8 19 -11 22 -8 4 3 13 0
21 -8 17 -17 85 -20 114 -4 30 16 12 30 -31 23 -21 -3 -54 -1 -74 6 -29 9 -36
17 -36 37 0 36 36 81 68 85 36 4 34 22 -3 26 -23 2 -37 -4 -59 -27z"/>
<path d="M6083 8308 c2 -7 -6 -34 -19 -60 -22 -44 -23 -83 -2 -76 13 5 59 120
53 136 -2 6 -12 12 -21 12 -8 0 -14 -6 -11 -12z"/>
<path d="M12648 8305 c-29 -16 -88 -95 -88 -117 0 -40 48 -49 98 -18 l32 20 0
-30 c0 -20 5 -30 15 -30 9 0 15 9 15 24 0 13 7 40 15 59 8 20 15 41 15 47 0
16 -26 12 -41 -7 -21 -25 -90 -73 -106 -73 -23 0 -14 18 31 66 42 43 47 46 81
40 32 -6 36 -5 33 11 -4 24 -63 28 -100 8z"/>
<path d="M11337 8292 c-60 -37 -87 -152 -46 -193 19 -19 29 -21 86 -15 66 7
106 23 99 41 -2 5 -10 8 -17 6 -107 -30 -163 -21 -157 26 2 21 10 29 36 37 48
14 84 51 80 84 -4 34 -40 40 -81 14z m53 -20 c0 -12 -30 -37 -53 -45 -15 -6
-16 -4 -7 13 15 28 60 52 60 32z"/>
<path d="M10819 8273 c-18 -44 -39 -115 -39 -130 0 -7 6 -13 13 -13 9 0 47 96
51 132 1 3 4 10 9 14 12 12 8 24 -8 24 -9 0 -20 -12 -26 -27z"/>
<path d="M9522 8273 c-66 -57 -95 -160 -52 -183 16 -8 30 -6 65 9 44 20 60 41
30 41 -9 0 -29 -7 -46 -15 -26 -14 -30 -14 -35 0 -4 8 -3 26 0 40 9 34 65 96
85 93 9 -2 16 4 16 12 0 22 -38 24 -63 3z"/>
<path d="M8636 8215 c4 -8 10 -12 15 -9 14 8 10 24 -6 24 -9 0 -12 -6 -9 -15z"/>
<path d="M11547 8146 c-3 -8 0 -17 8 -20 8 -3 11 -13 8 -26 -5 -18 -2 -21 13
-18 26 5 25 47 -2 65 -19 12 -22 12 -27 -1z"/>
<path d="M3330 8133 c0 -19 -29 -116 -51 -169 -15 -38 -6 -72 16 -54 7 6 11
19 8 28 -3 9 -2 14 2 9 11 -9 52 87 60 140 5 31 3 40 -14 51 -18 10 -21 10
-21 -5z"/>
<path d="M2886 8008 c-10 -119 -7 -112 -61 -118 -77 -8 -71 -37 7 -31 24 2 26
-1 25 -37 -1 -22 -5 -38 -8 -36 -7 4 -31 -97 -25 -104 16 -15 33 16 50 91 17
81 20 85 48 91 17 3 41 6 55 6 13 0 26 7 29 15 4 8 11 12 17 8 6 -4 7 -1 3 6
-5 7 -19 10 -34 6 -15 -3 -42 -7 -61 -10 -30 -3 -32 -2 -27 18 4 12 9 55 13
95 5 60 3 72 -9 72 -11 0 -17 -18 -22 -72z"/>
<path d="M3730 8028 c-11 -18 -30 -59 -41 -90 -12 -31 -27 -59 -35 -62 -7 -3
-36 -1 -64 3 -49 8 -68 1 -55 -18 3 -5 30 -13 60 -16 l54 -7 -1 -49 c0 -27 6
-56 12 -64 15 -18 83 -20 129 -4 33 12 38 37 5 29 -10 -2 -39 -4 -64 -5 -42 0
-45 2 -48 29 -7 60 3 73 63 79 60 6 78 13 69 28 -3 6 -27 8 -60 3 l-54 -6 14
39 c8 22 23 58 35 81 12 23 21 46 21 52 0 21 -21 9 -40 -22z"/>
<path d="M2226 8005 c-3 -8 3 -19 14 -25 22 -12 33 0 24 24 -8 20 -30 21 -38
1z"/>
<path d="M2610 7903 c-26 -10 -50 -35 -50 -53 0 -9 13 -37 30 -61 32 -47 38
-75 18 -82 -24 -8 -83 12 -101 34 -13 17 -21 19 -29 11 -9 -9 -6 -18 12 -37
65 -69 190 -48 161 28 -5 13 -21 41 -35 62 -24 35 -25 39 -10 56 9 10 26 19
38 21 11 2 21 8 21 13 0 12 -33 16 -55 8z"/>
<path d="M2197 7858 c-38 -104 -49 -188 -23 -188 9 0 15 18 19 52 7 59 37 148
49 148 4 0 8 7 8 15 0 8 -8 15 -19 15 -12 0 -23 -13 -34 -42z"/>
<path d="M2330 7864 c-53 -45 -92 -144 -56 -144 15 0 26 21 26 47 0 22 48 83
66 83 18 0 18 -33 -1 -96 -9 -31 -11 -52 -5 -58 14 -14 26 2 39 56 15 64 14
104 -5 122 -21 21 -27 20 -64 -10z"/>
<path d="M4082 7857 c-31 -32 -41 -57 -23 -57 21 0 41 13 41 26 0 8 11 19 24
26 22 9 30 6 64 -21 45 -35 85 -40 136 -16 35 17 60 50 50 66 -4 7 -17 0 -34
-16 -15 -14 -43 -28 -63 -32 -31 -5 -42 -1 -72 26 -47 41 -82 41 -123 -2z"/>
<path d="M3054 7818 c-42 -37 -55 -66 -42 -90 11 -23 40 -23 87 1 l38 20 -4
-22 c-2 -12 3 -31 11 -42 12 -16 17 -18 27 -7 9 8 10 15 2 23 -9 9 -6 43 9
109 4 16 -37 40 -69 40 -12 0 -39 -14 -59 -32z m84 -6 c16 -11 -10 -35 -61
-57 -44 -18 -47 -8 -11 34 26 31 48 38 72 23z"/>
<path d="M3360 7828 c-14 -5 -35 -18 -47 -30 -12 -11 -26 -17 -32 -14 -15 10
-54 -85 -41 -98 8 -8 17 -2 33 19 35 48 84 95 100 95 17 0 16 -3 -4 -78 -13
-48 -7 -61 17 -41 12 10 14 23 10 52 -4 22 -3 36 3 33 11 -7 22 30 15 49 -8
19 -26 24 -54 13z"/>
<path d="M3145 6941 c-4 -20 -13 -31 -23 -31 -50 0 -159 -106 -201 -193 -36
-76 -66 -214 -57 -269 15 -94 73 -157 152 -166 60 -6 98 12 139 68 38 52 44
84 18 112 -15 17 -15 18 3 19 10 0 44 8 73 18 57 19 79 41 41 41 -22 0 -110
-25 -142 -41 -9 -4 -32 -3 -52 2 -36 10 -56 6 -56 -11 0 -5 27 -19 60 -31 36
-13 60 -28 60 -36 0 -22 -52 -90 -78 -102 -53 -25 -122 -4 -157 46 -43 61 -34
213 18 327 28 60 97 140 147 170 l32 18 -7 -79 c-6 -68 -5 -82 10 -97 16 -16
19 -16 35 -1 25 23 50 78 50 110 0 15 -9 43 -20 61 -12 18 -20 45 -18 60 4 38
-19 42 -27 5z m35 -130 c0 -14 -9 -39 -20 -56 l-20 -30 0 26 c0 14 3 48 7 74
5 43 7 46 20 30 7 -11 13 -30 13 -44z"/>
<path d="M9472 6845 c-50 -42 -84 -123 -88 -209 -2 -41 0 -95 5 -120 l8 -46
-61 -2 c-33 -1 -74 -2 -89 -1 -21 1 -27 -3 -25 -15 3 -15 16 -17 91 -14 l87 4
1 -29 c2 -49 -2 -137 -7 -155 -3 -11 -15 -18 -31 -18 -32 0 -25 -24 8 -28 46
-5 59 24 61 136 2 101 2 101 27 104 35 4 32 22 -4 28 -26 5 -31 10 -36 50 -4
25 -8 50 -10 55 -10 34 30 186 56 210 52 49 52 49 67 21 10 -19 17 -23 28 -16
13 8 13 13 0 37 -21 37 -50 40 -88 8z"/>
<path d="M10544 6847 c-3 -8 -6 -70 -8 -138 -3 -122 -27 -274 -46 -293 -13
-13 -13 -62 0 -86 13 -25 80 -43 112 -31 43 16 88 87 88 140 0 36 -43 91 -72
91 -29 0 -58 -18 -68 -43 -8 -17 -9 -13 -5 17 3 21 7 42 10 46 3 4 7 43 10 86
4 56 2 80 -7 86 -10 6 -10 8 0 8 8 0 12 19 12 59 0 57 -14 88 -26 58z m100
-369 c21 -30 20 -53 -6 -99 -22 -40 -48 -55 -83 -50 -42 6 -44 19 -14 78 48
95 74 112 103 71z"/>
<path d="M10867 6843 c-9 -15 -11 -68 -3 -82 13 -20 26 5 26 52 0 34 -12 49
-23 30z"/>
<path d="M2243 6763 c-17 -37 -36 -85 -44 -106 -12 -34 -17 -38 -39 -32 -14 3
-58 8 -97 12 -61 5 -73 3 -73 -9 0 -17 40 -28 96 -28 18 0 44 -4 59 -10 l25
-10 -31 -61 c-17 -34 -51 -80 -75 -102 -42 -38 -56 -67 -34 -67 6 0 8 -10 4
-24 -3 -13 -2 -26 3 -29 11 -7 45 18 41 30 -2 4 5 26 15 48 17 37 41 58 124
107 l32 19 31 -42 c17 -24 37 -67 46 -96 14 -47 30 -64 46 -48 3 3 -3 30 -13
60 -10 30 -21 82 -25 115 l-6 59 48 30 c26 17 56 31 66 31 18 0 36 26 25 37
-3 3 -27 -2 -53 -11 -72 -24 -90 -22 -98 15 -3 17 -6 52 -7 78 -1 56 -11 93
-25 98 -6 2 -25 -27 -41 -64z m40 -85 l5 -68 -29 0 c-15 0 -30 4 -34 9 -3 6 7
40 22 77 15 38 28 64 29 58 1 -5 4 -39 7 -76z m7 -109 c0 -4 -8 -13 -19 -18
-14 -8 -23 -5 -39 12 l-21 22 39 -3 c22 -2 40 -8 40 -13z m-89 -60 c-35 -28
-43 -23 -24 16 15 32 18 34 32 20 15 -15 14 -18 -8 -36z m99 -1 c0 -18 -2 -20
-9 -8 -6 8 -7 18 -5 22 9 14 14 9 14 -14z"/>
<path d="M11847 6793 c-7 -7 -1 -167 9 -246 4 -36 3 -38 -11 -23 -27 27 -64
19 -105 -22 -64 -64 -63 -154 1 -187 41 -22 57 -19 94 18 51 51 57 92 46 284
-9 155 -17 194 -34 176z m-9 -308 c21 -22 22 -28 12 -66 -11 -40 -49 -89 -69
-89 -5 0 -22 10 -37 23 -23 20 -26 28 -20 60 7 37 55 97 78 97 7 0 23 -11 36
-25z"/>
<path d="M12284 6665 c-1 -75 -3 -138 -6 -140 -2 -2 -21 0 -43 5 -25 6 -44 5
-50 -1 -13 -13 9 -26 58 -35 l39 -6 -6 -57 c-4 -31 -9 -75 -13 -98 -4 -34 -2
-43 10 -43 16 0 22 23 33 133 l6 67 49 0 c37 0 49 4 49 15 0 11 -12 15 -49 15
l-50 0 6 118 c5 112 -2 162 -25 162 -4 0 -8 -61 -8 -135z"/>
<path d="M14416 6778 c-2 -7 -14 -58 -27 -113 -23 -100 -37 -134 -48 -117 -3
6 -31 11 -61 13 -44 3 -55 1 -55 -11 0 -11 14 -15 59 -17 32 -2 62 -5 65 -8 3
-3 -3 -35 -13 -71 -9 -37 -14 -69 -11 -72 11 -12 30 20 45 76 l15 57 60 3 c58
3 75 12 75 41 0 9 -6 11 -17 6 -10 -4 -39 -11 -64 -14 l-46 -7 13 55 c7 31 20
83 28 116 9 32 16 63 16 67 0 13 -30 9 -34 -4z"/>
<path d="M10845 6685 c-4 -42 -8 -137 -9 -212 -1 -106 2 -137 12 -141 11 -3
13 5 11 34 -3 35 4 161 16 315 3 41 1 60 -9 68 -12 10 -15 -1 -21 -64z"/>
<path d="M13355 6740 c-4 -6 0 -22 9 -35 21 -32 20 -45 -10 -136 l-26 -78 -39
-3 c-49 -4 -52 -22 -4 -26 l34 -3 -19 -52 c-13 -34 -16 -55 -10 -61 14 -14 25
0 45 62 l17 52 55 0 c68 0 69 23 1 28 l-46 3 25 82 c23 75 24 85 11 126 -14
45 -31 61 -43 41z"/>
<path d="M4100 6706 c0 -65 -31 -211 -60 -279 -27 -64 -30 -87 -12 -87 4 0 27
25 52 56 24 31 57 65 72 75 l27 20 -6 -66 c-5 -54 -3 -68 12 -85 20 -22 65
-26 96 -10 16 9 17 14 6 30 -14 24 -37 26 -37 5 0 -8 -9 -15 -20 -15 -27 0
-34 37 -21 111 17 97 -3 104 -81 32 -28 -27 -46 -39 -41 -28 16 31 34 122 39
203 4 60 2 72 -11 72 -10 0 -15 -10 -15 -34z"/>
<path d="M9596 6698 c-3 -13 -6 -84 -6 -158 0 -130 10 -203 30 -215 22 -13 27
7 13 47 -11 33 -14 79 -11 192 2 104 0 150 -8 153 -6 2 -14 -6 -18 -19z"/>
<path d="M7081 6641 c-8 -14 -7 -22 3 -30 14 -12 14 -32 2 -223 -6 -80 13 -76
65 17 23 41 46 72 51 69 5 -3 7 -39 5 -79 -4 -73 1 -85 33 -85 5 0 6 35 3 78
-9 143 -37 167 -91 80 l-32 -53 4 100 c4 98 -3 145 -23 145 -6 0 -15 -9 -20
-19z"/>
<path d="M10332 6644 c2 -11 11 -20 22 -22 13 -3 17 1 14 14 -2 11 -11 20 -22
22 -13 3 -17 -1 -14 -14z"/>
<path d="M14832 6596 c-50 -27 -98 -150 -72 -181 18 -21 30 -9 30 31 0 48 23
99 55 120 22 15 34 16 66 7 32 -8 39 -8 39 4 0 29 -77 42 -118 19z"/>
<path d="M15313 6598 c-41 -20 -30 -57 38 -126 34 -34 65 -62 70 -62 11 0 11
-3 -1 -34 -8 -23 -15 -26 -54 -26 -53 0 -96 14 -114 37 -9 13 -15 14 -24 5
-19 -19 18 -50 79 -68 79 -23 143 0 143 50 0 31 -39 90 -87 131 -45 39 -53 59
-27 69 33 13 66 6 71 -14 7 -25 26 -21 32 5 7 39 -72 59 -126 33z"/>
<path d="M10999 6569 c-16 -17 -30 -35 -30 -40 -1 -5 -2 -13 -3 -19 0 -5 -10
-16 -21 -24 -16 -12 -18 -17 -7 -27 6 -7 12 -28 12 -45 0 -91 133 -131 199
-60 30 31 10 45 -25 17 -37 -29 -94 -28 -122 2 -30 32 -29 73 2 81 37 9 86 60
86 89 0 29 -23 57 -47 57 -8 0 -28 -14 -44 -31z m52 -43 c-16 -29 -61 -53 -61
-32 0 25 51 79 63 67 7 -7 7 -18 -2 -35z"/>
<path d="M4500 6559 c-34 -14 -60 -39 -60 -58 0 -9 27 -44 59 -79 69 -72 82
-99 55 -119 -51 -37 -136 15 -136 83 0 35 -21 24 -25 -14 -6 -48 48 -103 107
-108 51 -5 93 12 98 40 7 35 -9 67 -69 130 -33 36 -58 70 -54 75 11 18 74 30
107 20 36 -10 60 3 41 22 -16 16 -93 21 -123 8z"/>
<path d="M8207 6559 c-27 -16 -47 -64 -47 -114 0 -33 4 -45 15 -45 11 0 15 11
15 41 0 64 24 99 68 99 31 0 23 24 -9 27 -13 2 -32 -2 -42 -8z"/>
<path d="M13089 6546 c-74 -39 -75 -45 -29 -113 51 -78 52 -100 3 -109 -48 -9
-87 5 -91 34 -5 34 -32 28 -32 -8 0 -23 7 -33 32 -46 40 -21 120 -14 149 12
26 23 20 52 -28 122 -20 29 -34 54 -32 56 15 13 80 41 107 45 44 8 45 25 2 28
-21 2 -53 -7 -81 -21z"/>
<path d="M14670 6515 c0 -69 -20 -109 -60 -124 -28 -9 -34 -8 -56 14 -24 24
-32 69 -14 80 15 9 12 35 -5 35 -19 0 -35 -31 -35 -70 0 -37 55 -100 88 -100
27 0 84 40 99 70 17 32 13 142 -4 148 -10 3 -13 -12 -13 -53z"/>
<path d="M15005 6545 c-45 -26 -79 -74 -69 -99 13 -34 124 -66 124 -36 0 11
-7 14 -53 24 -30 7 -28 26 3 26 40 0 100 32 106 56 14 55 -42 69 -111 29z m85
-15 c0 -12 -25 -25 -73 -38 -44 -12 -41 0 7 29 33 20 66 25 66 9z"/>
<path d="M7415 6536 c-44 -44 -42 -88 6 -148 37 -45 0 -80 -43 -41 -12 11 -22
13 -28 7 -17 -17 12 -44 51 -50 29 -5 41 -2 58 15 27 27 26 31 -4 72 -45 61
-50 77 -35 104 7 13 26 29 41 34 16 5 29 15 29 20 0 20 -51 11 -75 -13z"/>
<path d="M7962 6540 c-22 -14 -32 -26 -28 -36 3 -8 2 -12 -4 -9 -5 3 -14 -3
-19 -13 -7 -14 -6 -25 5 -40 18 -26 44 -28 83 -7 28 14 28 14 44 -25 9 -25 22
-40 32 -40 13 0 15 5 9 18 -4 9 -10 44 -12 78 -3 57 -5 61 -35 74 -18 7 -34
15 -37 17 -3 1 -20 -6 -38 -17z m52 -26 c24 -9 19 -22 -16 -44 -57 -35 -79
-18 -36 27 23 25 28 26 52 17z"/>
<path d="M13549 6533 c-45 -24 -58 -37 -81 -83 -29 -57 -36 -100 -17 -100 18
0 39 28 33 44 -3 8 4 33 17 55 16 29 35 45 70 60 26 12 52 21 58 21 6 0 11 7
11 15 0 22 -30 18 -91 -12z"/>
<path d="M3877 6511 c-14 -17 -37 -55 -51 -86 -15 -30 -29 -55 -32 -55 -3 0
-2 20 1 44 4 26 3 46 -3 50 -15 9 -24 -10 -27 -59 -2 -24 -5 -47 -8 -52 -3 -4
-8 -33 -12 -63 -11 -90 -13 -103 -20 -136 -5 -21 -3 -34 6 -39 19 -12 34 17
60 111 21 76 26 84 48 84 63 0 125 94 119 181 -3 39 -6 44 -29 47 -19 2 -33
-5 -52 -27z m53 -30 c0 -16 -5 -42 -11 -58 -20 -53 -89 -108 -89 -70 1 34 72
157 91 157 5 0 9 -13 9 -29z m-136 -167 c3 -8 2 -12 -4 -9 -6 3 -10 10 -10 16
0 14 7 11 14 -7z"/>
<path d="M6267 6523 c-4 -3 -7 -18 -7 -32 -1 -23 -2 -24 -11 -8 -17 30 -70 22
-107 -16 -35 -36 -41 -70 -16 -105 24 -35 75 -30 118 13 l35 34 10 -47 c5 -26
13 -71 17 -101 7 -51 6 -54 -12 -46 -38 16 -70 17 -83 2 -31 -38 -21 -146 19
-182 42 -38 100 14 100 90 0 14 7 28 15 31 8 4 12 11 8 18 -4 6 1 5 10 -3 13
-10 17 -10 17 -1 0 6 -9 14 -20 17 -15 4 -20 14 -20 37 0 17 -7 66 -15 109 -8
43 -15 94 -15 112 0 35 -18 85 -30 85 -4 0 -10 -3 -13 -7z m-33 -68 c11 -8 15
-19 11 -27 -35 -60 -90 -77 -101 -31 -6 21 -2 31 20 50 31 26 44 28 70 8z m45
-270 c27 -14 28 -16 20 -61 -15 -81 -48 -93 -70 -27 -12 37 -5 103 12 103 5 0
23 -7 38 -15z"/>
<path d="M8350 6502 c-50 -51 -62 -128 -26 -177 12 -17 25 -20 84 -18 72 2
142 23 142 44 0 7 -9 9 -22 5 -74 -20 -147 -27 -167 -17 -34 19 -37 59 -10
110 24 45 45 58 76 47 12 -5 10 -11 -13 -28 -38 -29 -45 -41 -33 -53 7 -7 14
-5 22 5 7 8 24 23 40 33 48 31 30 77 -31 77 -24 0 -42 -8 -62 -28z"/>
<path d="M5330 6508 c-57 -5 -106 -11 -109 -14 -3 -2 0 -9 6 -15 11 -11 193
-1 193 11 0 5 9 6 20 3 14 -4 20 0 20 11 0 9 -6 15 -12 15 -7 -1 -60 -6 -118
-11z"/>
<path d="M6452 6508 c-28 -14 -34 -36 -30 -123 4 -84 22 -90 26 -8 4 92 8 103
42 103 32 0 37 9 18 28 -14 14 -25 14 -56 0z"/>
<path d="M6899 6488 c-18 -18 -30 -25 -26 -16 7 20 -10 35 -24 21 -5 -5 -11
-56 -14 -113 -3 -58 -7 -139 -10 -182 -4 -46 -2 -79 4 -82 18 -11 30 29 33
107 3 74 4 76 26 70 48 -12 162 98 162 157 0 38 -38 70 -82 70 -28 0 -44 -8
-69 -32z m111 -13 c19 -23 4 -61 -41 -106 -64 -64 -111 -38 -78 44 27 69 87
100 119 62z"/>
<path d="M9765 6489 c-91 -80 -55 -210 57 -209 43 1 77 25 60 42 -10 10 -17
10 -32 0 -42 -26 -97 0 -102 48 -3 20 5 28 45 47 39 19 47 27 47 51 0 27 -15
52 -32 52 -4 0 -23 -14 -43 -31z m45 -19 c0 -9 -32 -30 -46 -30 -4 0 1 9 11
20 19 21 35 26 35 10z"/>
<path d="M12021 6494 c-74 -62 -31 -173 46 -119 21 15 23 14 42 -30 19 -42 30
-53 43 -39 4 3 -3 25 -13 50 -14 31 -18 54 -13 79 4 23 2 35 -5 35 -6 0 -11 7
-11 15 0 14 -29 35 -49 35 -5 0 -23 -12 -40 -26z m61 -24 c16 -18 16 -21 -8
-50 -28 -32 -51 -39 -60 -16 -6 17 20 72 38 79 7 3 13 6 13 6 0 1 8 -8 17 -19z"/>
<path d="M12482 6504 c-51 -35 -71 -133 -32 -154 16 -8 30 -6 64 8 l43 20 13
-34 c10 -24 20 -34 35 -34 35 0 37 12 8 36 -24 19 -28 29 -28 72 0 64 -11 75
-30 29 -16 -39 -49 -67 -77 -67 -22 0 -24 30 -3 70 12 23 22 30 45 30 36 0 47
16 21 29 -26 14 -33 14 -59 -5z m65 -10 c-3 -3 -12 -4 -19 -1 -8 3 -5 6 6 6
11 1 17 -2 13 -5z"/>
<path d="M3374 6497 c-16 -8 -23 -27 -32 -86 -15 -98 -15 -124 0 -119 7 3 23
44 35 92 12 48 24 90 27 93 3 3 19 0 36 -7 39 -16 52 -4 21 21 -25 20 -54 23
-87 6z"/>
<path d="M3577 6478 c-37 -49 -43 -92 -16 -111 23 -16 43 -13 72 11 20 17 19
17 32 -22 19 -56 31 -40 31 39 -1 41 -5 75 -10 75 -5 0 -24 -18 -43 -40 -38
-44 -63 -52 -63 -20 0 37 30 71 59 68 18 -2 27 2 29 15 3 14 -4 17 -32 17 -28
0 -40 -7 -59 -32z"/>
<path d="M14015 6491 c-74 -18 -118 -75 -90 -117 23 -35 115 -55 115 -25 0 4
-21 12 -46 19 -38 10 -45 16 -42 34 4 28 45 57 83 60 17 1 34 3 38 6 9 4 -11
33 -22 31 -3 -1 -20 -4 -36 -8z"/>
<path d="M10012 6453 c3 -21 8 -46 12 -55 6 -13 -1 -23 -28 -39 -20 -11 -36
-25 -36 -30 0 -16 37 -9 64 12 l26 21 31 -26 c36 -31 76 -43 91 -28 8 8 3 14
-18 22 -16 6 -38 20 -50 31 l-20 19 43 45 c24 25 43 50 43 55 0 21 -26 8 -68
-32 -46 -46 -62 -43 -62 15 0 18 -5 27 -16 27 -13 0 -15 -8 -12 -37z"/>
<path d="M6604 6441 c-31 -47 -29 -85 4 -89 13 -2 32 4 43 14 18 16 19 16 20
-7 1 -13 2 -31 3 -39 0 -8 12 -17 25 -18 21 -3 23 -1 16 20 -4 12 -7 44 -6 70
1 25 -2 49 -7 52 -5 3 -24 -10 -42 -29 -19 -19 -38 -35 -42 -35 -17 0 -7 23
22 52 17 16 28 34 24 39 -11 19 -35 8 -60 -30z"/>
<path d="M10300 6444 c-19 -48 -5 -104 25 -104 22 0 28 20 11 39 -11 12 -14
28 -9 54 7 44 -12 51 -27 11z"/>
<path d="M13799 6443 c-23 -66 -32 -83 -50 -99 -15 -14 -21 -14 -34 -4 -17 14
-20 56 -5 65 15 9 12 35 -5 35 -36 0 -48 -87 -15 -120 23 -23 33 -24 63 -8 28
15 48 42 69 98 22 55 22 60 3 60 -9 0 -20 -12 -26 -27z"/>
<path d="M14050 6350 c-12 -23 -4 -25 34 -10 33 12 34 30 1 30 -14 0 -29 -8
-35 -20z"/>
</g>
</svg>
