<?xml version="1.0" standalone="no"?>
<!DOCTYPE svg PUBLIC "-//W3C//DTD SVG 20010904//EN"
 "http://www.w3.org/TR/2001/REC-SVG-20010904/DTD/svg10.dtd">
<svg version="1.0" xmlns="http://www.w3.org/2000/svg"
 width="1618.000000pt" height="1214.000000pt" viewBox="0 0 1618.000000 1214.000000"
 preserveAspectRatio="xMidYMid meet">

<g transform="translate(0.000000,1214.000000) scale(0.100000,-0.100000)"
fill="#000000" stroke="none">
<path d="M12193 11698 c-6 -7 -22 -47 -37 -88 l-27 -75 -39 -1 c-101 -3 -154
-70 -118 -149 7 -15 25 -33 41 -41 15 -8 27 -18 25 -22 -25 -57 -39 -105 -34
-118 9 -23 20 -9 40 51 20 61 32 77 72 98 51 26 96 84 92 119 -2 18 -11 36
-23 42 -11 6 -22 12 -24 13 -5 3 48 135 61 150 10 13 3 33 -11 33 -5 0 -13 -6
-18 -12z m-88 -215 c-4 -10 -16 -42 -27 -70 -12 -29 -24 -53 -28 -53 -18 0
-60 43 -60 61 0 48 35 77 94 78 23 1 27 -2 21 -16z m65 2 c6 -8 9 -23 5 -34
-6 -20 -64 -75 -71 -68 -5 5 40 117 47 117 4 0 12 -7 19 -15z"/>
<path d="M12350 11625 c-7 -8 -43 -77 -80 -154 -54 -111 -66 -142 -56 -150 10
-9 25 14 67 100 30 62 54 115 55 118 2 19 24 59 38 70 9 7 16 17 16 22 0 14
-26 10 -40 -6z"/>
<path d="M14419 11613 c-8 -10 -27 -37 -41 -59 -15 -23 -33 -42 -40 -41 -38 1
-50 -4 -44 -19 4 -11 1 -14 -12 -10 -50 16 -107 -130 -67 -174 12 -14 9 -23
-30 -85 -46 -73 -54 -95 -32 -95 7 0 32 33 56 74 43 71 46 74 96 85 29 7 67
25 88 42 31 25 37 37 37 68 0 37 -23 71 -48 71 -7 0 -12 4 -12 9 0 15 68 114
85 124 17 9 11 27 -9 27 -7 0 -19 -8 -27 -17z m-144 -232 c-16 -28 -33 -51
-38 -51 -15 0 -2 73 18 104 16 24 20 25 33 13 13 -13 11 -21 -13 -66z m99 59
c37 -14 36 -62 -1 -88 -23 -16 -85 -42 -100 -42 -3 0 70 139 74 140 1 0 13 -4
27 -10z"/>
<path d="M14853 11621 c-74 -12 -102 -59 -67 -109 9 -13 14 -24 13 -26 -74
-47 -79 -52 -79 -82 0 -77 120 -108 152 -39 9 20 8 33 -5 67 -9 23 -16 42 -14
43 75 47 127 116 107 140 -13 16 -38 17 -107 6z m77 -29 c0 -5 -9 -17 -20 -27
-19 -18 -20 -17 -20 2 0 11 3 23 7 26 9 10 33 9 33 -1z m-70 -27 c0 -14 6 -25
13 -25 6 0 1 -9 -13 -20 -25 -20 -25 -20 -42 1 -10 12 -18 27 -18 35 0 14 27
33 48 34 6 0 12 -11 12 -25z m-25 -139 c19 -45 11 -66 -25 -66 -31 0 -60 23
-60 46 0 11 54 54 68 54 2 0 9 -15 17 -34z"/>
<path d="M12960 11587 c-53 -25 -100 -63 -100 -79 0 -24 5 -23 57 17 71 54 82
47 31 -19 -54 -71 -111 -126 -170 -167 -56 -38 -70 -60 -48 -74 6 -4 39 16 73
44 34 28 66 51 70 51 5 0 6 -14 2 -31 -12 -53 36 -85 86 -59 32 18 23 33 -15
26 -42 -8 -49 2 -34 44 8 24 8 38 0 50 -9 14 -6 22 14 41 33 31 104 137 104
155 0 17 -36 18 -70 1z"/>
<path d="M13265 11579 c-33 -4 -79 -6 -102 -2 -34 4 -43 2 -43 -10 0 -20 51
-29 128 -21 l64 7 -36 -47 c-20 -26 -36 -51 -36 -55 0 -5 -23 -11 -52 -14 -28
-4 -56 -11 -61 -16 -15 -15 17 -25 53 -17 17 3 30 3 30 0 0 -3 -18 -32 -40
-64 -41 -61 -46 -75 -31 -84 5 -3 32 30 61 74 53 81 55 82 124 84 45 1 43 23
-3 31 -23 4 -41 10 -41 15 0 4 21 31 46 59 25 28 43 55 39 61 -7 11 -13 11
-100 -1z"/>
<path d="M14614 11548 c-9 -13 -24 -52 -70 -180 -23 -65 -23 -103 0 -95 6 2
13 19 17 38 3 19 23 78 44 132 27 69 35 101 28 108 -8 8 -13 7 -19 -3z"/>
<path d="M13988 11513 c-27 -14 -48 -32 -48 -40 0 -19 11 -16 64 13 51 29 76
26 76 -7 0 -27 -119 -143 -170 -166 -44 -19 -70 -46 -70 -73 0 -31 32 -25 69
14 l34 35 27 -20 c37 -28 102 -36 119 -15 17 20 5 42 -14 26 -18 -15 -68 -4
-89 19 -16 17 -13 22 53 80 75 67 91 99 66 137 -20 32 -57 31 -117 -3z"/>
<path d="M12390 11345 c-6 -8 -10 -22 -8 -32 3 -16 5 -16 26 5 12 12 20 27 17
32 -9 14 -21 12 -35 -5z"/>
<path d="M11599 11292 c-68 -45 -117 -127 -148 -247 -11 -43 -26 -82 -33 -86
-7 -5 -32 -9 -54 -9 -37 0 -72 -19 -59 -32 3 -3 28 -3 55 0 32 3 50 1 50 -6 0
-6 -13 -47 -30 -92 -35 -95 -34 -90 -15 -90 9 0 19 10 24 23 67 190 59 175
102 182 21 4 39 12 39 18 0 7 5 6 11 -3 9 -13 10 -13 6 0 -3 10 -17 15 -44 14
l-41 -1 24 89 c26 97 40 125 93 180 24 27 38 35 46 28 19 -16 41 15 25 35 -16
19 -19 19 -51 -3z"/>
<path d="M13386 11291 c-9 -15 22 -33 44 -26 31 10 25 35 -9 35 -17 0 -32 -4
-35 -9z"/>
<path d="M5842 11200 c-47 -29 -70 -74 -78 -151 l-6 -67 -37 -6 c-20 -3 -48
-6 -62 -6 -28 0 -57 -24 -41 -34 5 -3 39 0 76 5 37 6 70 9 72 6 12 -12 -21
-111 -51 -150 -33 -43 -35 -57 -9 -57 22 0 75 97 87 160 10 51 15 60 31 58 34
-5 30 22 -4 29 -31 6 -32 8 -26 42 3 20 6 46 6 58 0 23 41 77 71 93 15 9 17 7
12 -6 -4 -12 -1 -15 17 -12 30 4 35 21 15 42 -21 21 -33 20 -73 -4z"/>
<path d="M8549 11188 c-1 -2 -3 -12 -4 -23 -1 -11 -20 -74 -43 -140 -48 -143
-55 -175 -43 -194 14 -21 31 -3 31 32 0 18 20 91 45 162 49 141 53 165 30 165
-8 0 -16 -1 -16 -2z"/>
<path d="M5000 11170 c0 -5 -8 -10 -18 -10 -29 0 -121 -50 -133 -72 -19 -35 0
-73 66 -137 51 -48 65 -68 65 -91 0 -36 -28 -53 -87 -53 -49 0 -77 18 -69 46
5 22 -9 57 -23 57 -5 0 -11 -17 -13 -37 -4 -29 1 -43 22 -67 23 -25 35 -30 76
-30 95 -2 146 42 124 108 -6 18 -39 60 -75 94 -36 34 -65 68 -65 75 0 19 29
43 73 62 49 20 57 19 57 -10 0 -20 5 -25 25 -25 34 0 39 18 20 63 -14 33 -45
52 -45 27z"/>
<path d="M4133 11159 c-18 -18 -16 -49 2 -49 8 0 15 7 15 15 0 20 19 19 93 -6
81 -27 101 -40 121 -84 23 -48 10 -80 -56 -140 -63 -57 -104 -66 -165 -36 -36
17 -43 24 -33 35 15 19 -6 32 -25 16 -26 -22 -18 -58 18 -81 51 -32 139 -23
199 20 95 68 128 155 82 218 -42 59 -220 124 -251 92z"/>
<path d="M4525 11144 c-16 -12 -21 -34 -6 -34 10 0 3 -96 -9 -125 -4 -11 -14
-45 -20 -77 -13 -56 -9 -88 9 -88 15 0 33 38 22 44 -5 4 -5 20 1 41 l11 34 74
3 c93 4 101 22 11 26 l-68 3 0 43 c0 24 3 57 6 73 l6 30 119 9 c68 5 119 13
119 19 0 14 -255 13 -275 -1z"/>
<path d="M8397 11154 c-4 -4 -7 -17 -7 -29 0 -12 -18 -68 -41 -126 -43 -109
-55 -184 -30 -184 9 0 15 14 18 38 2 21 21 84 43 140 21 56 40 115 42 131 3
28 -11 44 -25 30z"/>
<path d="M12042 11108 c-7 -7 -12 -17 -12 -24 0 -6 -14 -39 -32 -73 -30 -59
-33 -61 -71 -61 -47 0 -47 -23 1 -28 27 -3 32 -8 32 -28 0 -14 4 -34 10 -44
12 -22 93 -55 115 -46 23 9 10 23 -28 31 -42 9 -67 32 -67 62 0 23 1 23 108
23 59 0 113 4 121 9 14 9 7 31 -10 31 -6 0 -8 -3 -6 -7 3 -5 -42 -7 -99 -5
l-104 3 26 49 c14 27 22 55 18 61 -4 7 -3 9 4 5 13 -8 27 33 15 45 -5 5 -14 4
-21 -3z"/>
<path d="M4220 11095 c-13 -15 -5 -39 11 -30 14 10 11 -29 -10 -106 -21 -72
-19 -99 5 -99 9 0 14 11 14 28 0 15 7 52 15 82 18 67 19 112 3 128 -16 16 -23
15 -38 -3z"/>
<path d="M13282 11046 c-23 -35 -45 -71 -48 -80 -5 -14 -18 -16 -63 -14 -44 2
-56 0 -56 -12 0 -8 9 -15 20 -16 87 -4 80 2 80 -60 0 -47 4 -59 24 -75 28 -23
91 -26 91 -4 0 10 -10 15 -29 15 -46 0 -79 67 -53 106 4 6 61 15 131 20 92 7
126 13 129 23 4 12 -16 13 -122 7 l-127 -7 12 23 c7 13 28 45 46 71 30 43 35
67 15 67 -4 0 -27 -29 -50 -64z"/>
<path d="M2825 11019 c-21 -39 -53 -77 -136 -161 -52 -52 -74 -67 -100 -70
-39 -3 -46 -21 -10 -26 41 -6 66 6 114 55 l47 47 0 -31 c0 -23 6 -33 20 -38
31 -10 55 2 103 54 l45 48 -5 -53 c-6 -61 7 -75 49 -53 13 8 47 12 80 10 106
-5 122 18 68 98 -17 24 -30 50 -30 57 0 19 40 44 83 51 22 3 37 11 37 19 0 21
-50 17 -100 -8 -59 -30 -64 -61 -21 -130 17 -27 31 -52 31 -55 0 -3 -32 -2
-71 1 -62 6 -73 5 -85 -11 -13 -17 -13 -17 -14 4 0 12 11 57 25 100 14 43 25
81 25 86 0 16 -30 5 -41 -15 -18 -33 -92 -132 -106 -141 -7 -4 -19 -14 -27
-22 -8 -8 -19 -15 -25 -15 -27 0 0 76 56 157 32 47 37 73 13 73 -5 0 -17 -14
-25 -31z"/>
<path d="M3342 11024 c-81 -48 -111 -162 -56 -211 14 -13 37 -23 51 -23 36 0
143 50 143 66 0 18 -14 18 -52 -2 -81 -42 -138 -36 -138 13 0 25 6 31 50 46
88 31 134 89 98 125 -19 19 -49 14 -96 -14z m73 -13 c11 -20 -85 -84 -102 -68
-8 9 17 37 52 59 34 20 41 22 50 9z"/>
<path d="M9280 10998 l-35 -43 -5 35 -5 35 -55 0 c-48 0 -55 -2 -52 -19 2 -10
-9 -42 -24 -72 -21 -41 -25 -57 -16 -66 15 -15 48 13 57 50 7 28 42 72 57 72
5 0 6 -22 2 -50 -4 -30 -3 -50 3 -50 16 0 44 36 36 46 -5 5 -4 6 1 1 6 -4 27
10 49 30 l40 38 -6 -59 c-6 -65 4 -96 32 -96 28 0 34 13 12 30 -17 13 -19 21
-11 59 18 99 -22 129 -80 59z"/>
<path d="M7488 11019 c-23 -13 -23 -31 2 -79 25 -50 25 -63 -3 -95 -24 -29
-52 -26 -62 6 -7 22 -35 26 -35 5 0 -25 41 -66 67 -66 33 0 83 53 83 89 0 14
-9 45 -20 68 -18 42 -18 42 1 48 11 4 33 3 50 0 26 -6 30 -4 27 12 -2 14 -13
19 -48 20 -25 2 -53 -2 -62 -8z"/>
<path d="M9554 11020 c-33 -13 -84 -81 -84 -112 0 -38 32 -68 73 -68 37 0 78
19 85 39 6 19 -49 6 -65 -16 -7 -9 -13 -13 -13 -7 0 5 -10 14 -22 19 -13 6
-24 18 -26 29 -3 11 0 16 7 12 16 -10 78 20 91 44 9 17 8 26 -5 46 -8 13 -16
24 -18 23 -1 0 -11 -4 -23 -9z m16 -52 c0 -12 -3 -18 -6 -15 -4 3 -15 2 -25
-4 -27 -14 -24 6 3 25 28 20 28 20 28 -6z"/>
<path d="M9740 11007 c0 -8 -11 -42 -25 -76 -24 -58 -25 -81 -5 -81 5 0 16 15
25 34 17 36 75 97 75 79 0 -7 -4 -23 -10 -37 -10 -28 -4 -56 13 -56 6 0 28 17
49 37 l38 37 0 -36 c0 -40 21 -64 47 -53 17 6 17 7 -1 20 -16 12 -18 22 -12
64 9 68 -6 73 -61 20 -29 -28 -43 -36 -38 -24 16 42 16 52 1 64 -13 11 -20 11
-41 -3 -24 -16 -25 -16 -25 4 0 11 -7 20 -15 20 -8 0 -15 -6 -15 -13z"/>
<path d="M10085 11010 c-4 -6 4 -30 18 -53 39 -67 41 -84 15 -100 -39 -25 -65
-29 -82 -12 -14 14 -14 19 1 50 9 19 25 37 35 41 19 6 25 34 7 34 -24 0 -50
-23 -69 -61 -24 -46 -19 -72 15 -95 43 -28 145 16 145 63 0 22 -59 143 -70
143 -5 0 -12 -5 -15 -10z"/>
<path d="M10326 11005 c-14 -11 -23 -12 -32 -4 -20 16 -34 2 -34 -34 -1 -18
-7 -50 -15 -72 -18 -50 -18 -55 -1 -55 8 0 27 27 42 60 27 60 58 90 93 90 28
0 52 11 45 21 -8 14 -77 10 -98 -6z"/>
<path d="M12840 11000 c0 -21 16 -26 39 -11 18 11 5 31 -20 31 -12 0 -19 -7
-19 -20z"/>
<path d="M10588 10968 c-14 -18 -40 -57 -58 -85 -18 -29 -35 -53 -36 -53 -2 0
-13 18 -24 39 -16 32 -18 45 -10 67 14 36 5 61 -15 44 -26 -22 -29 -74 -5
-119 11 -23 27 -44 34 -47 10 -4 3 -26 -26 -86 -43 -87 -72 -196 -56 -213 11
-12 28 12 28 41 0 52 76 219 157 343 34 53 51 87 45 93 -6 6 -19 -3 -34 -24z"/>
<path d="M6766 10956 c-37 -34 -44 -62 -26 -97 14 -24 46 -24 88 1 l32 20 0
-25 c0 -25 31 -65 49 -65 21 0 22 23 1 37 -20 14 -22 21 -16 70 6 49 4 57 -16
73 -35 29 -72 25 -112 -14z m82 -8 c19 -19 15 -26 -27 -54 -61 -40 -84 -14
-34 38 29 31 43 34 61 16z"/>
<path d="M7705 10978 c-3 -7 -12 -33 -20 -58 -9 -24 -25 -60 -35 -78 -23 -39
-25 -52 -7 -52 8 0 30 24 50 53 40 58 87 107 87 90 0 -5 -5 -25 -11 -42 -21
-59 3 -59 70 -1 34 29 65 50 69 46 4 -4 7 -27 7 -49 0 -31 4 -42 15 -42 12 0
15 13 15 58 0 40 -4 61 -15 67 -22 14 -24 13 -74 -24 l-45 -35 -3 31 c-4 42
-19 44 -58 11 -30 -25 -32 -25 -21 -5 12 23 8 42 -10 42 -5 0 -12 -6 -14 -12z"/>
<path d="M8095 10963 c-68 -35 -101 -86 -85 -127 8 -22 16 -26 53 -26 24 0 52
7 63 15 28 21 32 19 36 -22 2 -26 8 -38 18 -38 11 0 14 9 12 36 -2 20 2 56 8
79 15 54 -1 74 -25 33 -35 -60 -135 -100 -135 -54 0 38 85 105 101 79 10 -17
40 9 32 28 -7 18 -40 17 -78 -3z"/>
<path d="M12422 10936 c-23 -24 -42 -53 -42 -64 0 -32 -32 -165 -46 -194 -18
-35 -18 -48 2 -48 17 0 39 48 55 119 9 41 14 49 34 49 44 0 135 83 135 123 0
40 -19 59 -58 59 -32 0 -45 -7 -80 -44z m106 -9 c5 -23 -71 -97 -98 -97 -11 0
-20 2 -20 5 0 14 33 81 47 98 21 23 66 19 71 -6z"/>
<path d="M6109 10948 c-37 -25 -95 -129 -85 -154 3 -9 10 -13 15 -10 9 6 42
72 54 108 3 9 20 24 36 33 25 12 34 13 50 3 26 -16 36 -6 21 21 -14 27 -48 27
-91 -1z"/>
<path d="M5935 10951 c-3 -5 -1 -12 5 -16 5 -3 10 -24 10 -46 0 -29 -7 -47
-25 -65 -53 -53 -85 -6 -40 59 29 44 32 60 8 55 -22 -4 -63 -75 -63 -110 0
-50 41 -71 95 -46 45 20 78 115 56 157 -12 22 -36 28 -46 12z"/>
<path d="M12622 10934 c-36 -19 -67 -57 -77 -96 -5 -21 -2 -29 15 -38 18 -10
24 -9 31 1 5 8 4 15 -1 17 -20 7 -9 41 21 66 32 27 65 40 90 34 8 -2 14 4 14
12 0 21 -53 23 -93 4z"/>
<path d="M12955 10923 c-67 -36 -124 -100 -110 -123 10 -17 19 -11 44 25 20
30 77 75 94 75 3 0 -3 -18 -14 -40 -10 -21 -19 -47 -19 -58 0 -21 18 -42 37
-42 17 0 17 27 1 32 -10 4 -7 18 11 55 37 79 19 110 -44 76z"/>
<path d="M11557 10892 c-22 -24 -38 -69 -31 -87 9 -21 50 -30 90 -17 28 8 36
7 51 -10 20 -22 60 -19 101 8 20 13 23 22 20 55 -2 21 0 39 4 39 5 0 8 7 8 16
0 14 -8 15 -47 9 -25 -4 -56 -13 -68 -21 -21 -13 -23 -13 -28 6 -5 21 -31 27
-42 10 -3 -5 2 -21 11 -35 20 -30 12 -42 -34 -51 -27 -6 -32 -4 -32 13 0 11 9
32 20 45 28 36 8 54 -23 20z m197 -38 c11 -29 6 -42 -21 -51 -34 -12 -53 -7
-53 15 0 39 61 70 74 36z"/>
<path d="M12763 10855 c-26 -40 -29 -65 -9 -65 13 0 56 69 56 90 0 22 -26 8
-47 -25z"/>
<path d="M3086 10407 c-6 -30 -9 -33 -35 -29 -36 5 -104 -29 -154 -76 -25 -25
-47 -61 -67 -114 -34 -87 -36 -114 -15 -164 35 -85 145 -75 283 25 50 37 53
57 10 76 l-33 14 63 1 c46 0 63 3 60 12 -3 7 -21 16 -41 19 -41 6 -147 -12
-149 -26 0 -11 61 -45 81 -45 25 0 -15 -35 -79 -69 -146 -78 -212 -10 -150
154 13 34 39 76 59 96 35 34 125 78 137 66 3 -3 1 -22 -6 -42 -9 -28 -9 -40
-1 -48 17 -17 47 26 55 77 3 23 9 56 12 74 5 25 3 32 -9 32 -9 0 -17 -13 -21
-33z"/>
<path d="M5190 10350 c0 -14 -7 -20 -22 -20 -13 0 -45 -7 -71 -15 -156 -47
-274 -175 -284 -308 -5 -58 -3 -65 23 -96 41 -50 96 -71 182 -71 41 0 88 6
107 14 42 18 48 42 8 31 -116 -28 -231 -11 -273 42 -56 71 23 244 143 313 50
29 154 66 163 58 2 -2 -1 -19 -6 -38 -11 -38 -4 -80 15 -80 6 0 20 9 29 19 17
19 18 29 17 139 -1 21 -6 32 -16 32 -8 0 -15 -9 -15 -20z"/>
<path d="M8912 10332 c1 -15 -20 -84 -45 -153 -51 -136 -77 -229 -70 -242 9
-16 30 17 46 73 8 30 34 107 56 172 43 122 51 178 27 178 -10 0 -14 -10 -14
-28z"/>
<path d="M4035 10318 c-15 -70 -50 -176 -82 -247 -42 -94 -32 -113 30 -55 45
44 117 100 117 91 0 -2 -7 -24 -15 -47 -8 -23 -15 -46 -15 -51 0 -19 34 -39
66 -39 59 0 132 40 108 59 -5 3 -8 4 -6 2 8 -15 -117 -39 -131 -25 -3 3 3 31
14 61 10 31 19 62 19 70 0 24 -36 14 -93 -28 -32 -22 -57 -38 -57 -35 0 3 7
20 15 38 20 46 65 197 65 220 0 31 -28 20 -35 -14z"/>
<path d="M5577 10334 c-4 -4 -7 -24 -7 -45 0 -21 -16 -78 -36 -126 -50 -125
-76 -230 -63 -254 15 -28 29 -14 29 29 0 33 16 84 92 291 10 29 18 65 16 79
-3 26 -18 38 -31 26z"/>
<path d="M12474 10323 c-17 -53 -71 -179 -110 -253 -24 -47 -40 -88 -35 -93 9
-9 101 82 113 112 4 9 7 13 7 8 1 -4 14 -1 31 8 16 8 31 15 34 15 3 0 -13 -31
-35 -70 -39 -69 -48 -100 -30 -100 15 0 104 169 97 185 -11 29 -66 15 -113
-28 -18 -16 -15 -3 21 79 54 125 62 154 41 154 -9 0 -18 -8 -21 -17z"/>
<path d="M8599 10273 c-5 -45 -15 -80 -44 -148 -44 -103 -50 -132 -35 -150 7
-9 10 -18 6 -22 -3 -3 1 -15 11 -25 40 -44 125 -3 158 76 l20 48 -25 20 c-32
26 -76 17 -112 -22 -16 -17 -28 -28 -28 -25 0 2 16 42 35 88 43 105 55 167 31
167 -9 0 -16 -3 -17 -7z m68 -224 c25 -25 -41 -109 -84 -109 -24 0 -31 14 -13
25 6 4 8 11 5 16 -8 11 30 61 53 71 24 10 27 9 39 -3z"/>
<path d="M10780 10221 c0 -28 21 -37 36 -16 16 22 10 35 -17 35 -12 0 -19 -7
-19 -19z"/>
<path d="M6092 10203 c2 -10 10 -18 18 -18 8 0 16 8 18 18 2 12 -3 17 -18 17
-15 0 -20 -5 -18 -17z"/>
<path d="M3346 10177 c-10 -8 -28 -12 -40 -10 -19 4 -23 -4 -39 -69 -23 -90
-25 -112 -12 -118 6 -2 23 27 38 65 37 94 52 108 99 101 28 -5 38 -3 38 7 0
34 -50 49 -84 24z"/>
<path d="M3801 10155 c-23 -21 -45 -33 -54 -30 -14 6 -27 -21 -33 -72 -2 -12
-15 -50 -30 -85 -33 -79 -42 -138 -21 -138 10 0 26 33 48 97 31 90 36 98 64
104 51 10 90 36 110 73 16 29 17 39 7 60 -16 36 -44 33 -91 -9z m55 -39 c-16
-26 -74 -62 -83 -52 -7 7 34 63 60 81 30 21 45 3 23 -29z"/>
<path d="M12864 10124 c-27 -20 -43 -31 -36 -23 16 17 15 29 -3 29 -16 0 -115
-142 -115 -166 0 -27 21 -14 88 54 66 66 130 118 137 110 2 -2 -10 -34 -26
-71 -17 -37 -29 -76 -27 -85 4 -20 59 -24 66 -4 2 7 -5 12 -17 12 -12 0 -21 2
-21 4 0 2 14 33 31 70 17 36 29 73 27 83 -6 33 -51 27 -104 -13z"/>
<path d="M13788 10118 c-19 -24 -53 -67 -76 -97 l-42 -53 -10 27 c-5 14 -10
53 -10 86 0 44 -3 60 -12 57 -19 -7 -22 -119 -5 -161 15 -34 14 -34 -40 -108
-96 -130 -133 -188 -125 -193 4 -2 14 -1 22 5 8 5 11 9 5 9 -5 0 -1 8 11 18
11 9 56 64 98 122 151 205 229 300 246 300 17 0 6 24 -12 28 -9 2 -31 -16 -50
-40z"/>
<path d="M3482 10121 c-34 -34 -57 -84 -48 -106 8 -22 63 -19 94 6 l27 21 5
-27 c5 -29 34 -55 46 -42 4 3 1 13 -6 22 -10 12 -10 24 0 61 19 66 3 71 -55
19 -56 -50 -94 -61 -74 -22 25 47 52 68 81 62 21 -5 28 -3 28 8 0 16 -20 27
-50 27 -10 0 -32 -13 -48 -29z"/>
<path d="M7969 10132 c-48 -32 -87 -83 -98 -126 -6 -24 -18 -47 -27 -50 -11
-4 -14 -13 -11 -28 4 -12 -9 -61 -29 -116 -24 -63 -32 -98 -26 -104 12 -12 49
57 76 140 15 44 21 52 42 52 79 0 194 96 194 161 0 33 -35 75 -70 83 -16 3
-35 -1 -51 -12z m81 -41 c16 -31 12 -48 -22 -87 -33 -37 -97 -73 -130 -74 -17
0 -17 2 -1 43 35 89 75 137 114 137 18 0 32 -7 39 -19z"/>
<path d="M12013 10127 c-29 -12 -53 -28 -53 -34 0 -18 21 -16 71 7 79 36 86
26 34 -46 -19 -27 -42 -59 -51 -71 -9 -12 -13 -27 -9 -33 8 -12 34 1 87 43 21
17 39 28 41 26 1 -2 10 -21 20 -41 21 -47 44 -49 92 -7 50 44 84 169 46 169
-5 0 -15 -24 -21 -53 -8 -40 -20 -63 -45 -87 l-35 -33 -15 37 c-18 42 -39 54
-66 38 -16 -11 -16 -9 2 23 45 76 1 104 -98 62z"/>
<path d="M14103 10128 c-11 -13 -30 -39 -43 -58 -34 -52 -82 -101 -107 -111
-20 -7 -33 -39 -17 -39 13 0 51 25 81 52 30 29 31 29 38 9 8 -27 50 -28 90 -1
l30 20 5 -27 c3 -17 16 -33 33 -41 28 -14 67 -8 67 10 0 5 -6 8 -14 5 -21 -8
-56 21 -56 46 0 12 9 37 20 55 21 35 26 62 10 62 -5 0 -36 -27 -69 -60 -73
-73 -97 -79 -76 -19 8 22 24 53 35 70 33 45 10 68 -27 27z"/>
<path d="M13925 10123 c-113 -58 -158 -193 -64 -193 56 0 86 43 91 134 2 29 7
40 25 47 13 5 23 13 23 19 0 14 -40 11 -75 -7z m-5 -73 c0 -43 -20 -80 -47
-86 -30 -8 -37 -1 -29 30 7 27 53 86 67 86 5 0 9 -13 9 -30z"/>
<path d="M5863 10106 c-15 -12 -34 -21 -40 -19 -13 5 -20 -9 -42 -80 -13 -40
-6 -80 12 -74 6 2 14 17 18 33 13 63 69 134 105 134 8 0 14 5 14 11 0 5 5 7
12 3 7 -4 8 -3 4 4 -12 19 -53 14 -83 -12z"/>
<path d="M8202 10110 c-29 -24 -123 -180 -116 -192 11 -18 25 -5 60 58 20 36
48 79 61 95 27 31 57 38 67 14 9 -26 27 -16 24 13 -3 23 -8 27 -38 29 -23 2
-43 -4 -58 -17z"/>
<path d="M9000 10111 c-43 -24 -80 -72 -87 -116 -4 -28 -1 -36 20 -50 33 -21
102 -31 111 -16 4 6 13 11 19 11 7 0 6 -4 -3 -10 -12 -8 -12 -10 5 -10 35 0
65 12 65 26 0 10 -14 12 -65 7 -74 -7 -125 9 -125 38 0 39 106 127 127 105 17
-17 -42 -64 -111 -89 -8 -3 -8 -8 0 -16 25 -27 144 51 144 94 0 46 -41 57
-100 26z"/>
<path d="M9629 10101 c-16 -16 -29 -34 -29 -39 0 -4 14 -30 32 -56 25 -39 29
-50 17 -57 -22 -14 -49 -11 -49 6 0 19 -14 19 -34 -1 -22 -21 -20 -33 7 -44
15 -8 35 -7 67 3 56 16 63 42 26 96 -14 20 -26 45 -26 54 0 21 33 39 68 37 41
-3 45 -1 32 15 -21 26 -78 19 -111 -14z"/>
<path d="M10894 10119 c-51 -15 -59 -32 -40 -84 10 -24 16 -57 14 -72 -3 -25
-7 -28 -38 -28 -24 0 -35 5 -36 15 -1 8 -2 19 -3 24 -2 16 -31 -16 -31 -35 0
-39 93 -55 123 -21 21 23 22 81 3 127 -17 39 -10 45 49 45 43 0 54 17 20 30
-14 6 -27 10 -28 9 -1 0 -16 -5 -33 -10z"/>
<path d="M12594 10087 c-35 -39 -39 -47 -33 -82 8 -45 33 -67 74 -63 36 4 40
22 5 26 -23 3 -50 26 -50 44 0 4 17 12 38 17 87 24 112 101 32 101 -19 0 -39
-13 -66 -43z m67 -7 c-13 -11 -31 -20 -40 -20 -12 1 -11 5 8 20 13 11 31 20
40 20 12 -1 11 -5 -8 -20z"/>
<path d="M5643 10096 c-35 -30 -63 -83 -63 -120 0 -53 75 -70 116 -25 14 16
15 25 5 63 -15 61 -14 74 7 72 28 -2 20 29 -9 32 -17 2 -37 -6 -56 -22z m30
-123 c-6 -16 -30 -24 -49 -16 -20 7 -12 58 14 86 17 19 17 18 28 -19 6 -22 9
-44 7 -51z"/>
<path d="M7013 10104 c-9 -25 13 -40 26 -16 10 19 6 32 -11 32 -5 0 -11 -7
-15 -16z"/>
<path d="M10312 10099 c-46 -23 -92 -80 -92 -114 0 -47 52 -59 107 -25 l32 19
3 -21 c5 -34 28 -34 28 -1 0 16 11 52 25 79 30 58 31 73 8 73 -10 0 -29 3 -43
6 -16 4 -41 -2 -68 -16z m75 -26 c5 -12 -7 -29 -41 -60 -48 -43 -96 -58 -96
-29 0 22 51 77 85 92 40 17 44 17 52 -3z"/>
<path d="M9240 10086 c0 -14 -11 -55 -24 -92 -23 -64 -25 -84 -7 -84 4 0 32
36 62 80 29 44 57 80 61 80 4 0 -2 -21 -12 -46 -26 -60 -25 -64 10 -64 23 0
44 12 80 46 28 26 50 44 50 42 0 -3 -7 -25 -15 -49 -20 -55 -13 -92 17 -87 26
4 37 28 13 28 -11 0 -15 5 -11 15 19 49 36 126 31 135 -11 18 -24 11 -85 -45
-33 -30 -62 -55 -65 -55 -2 0 0 12 5 26 13 33 13 81 0 89 -15 9 -61 -23 -67
-46 -8 -30 -18 -22 -18 13 0 17 -6 33 -12 35 -8 3 -13 -5 -13 -21z"/>
<path d="M10559 10092 c-59 -38 -139 -156 -121 -174 15 -15 29 -2 52 42 36 70
78 110 116 110 38 0 44 14 15 30 -26 13 -32 13 -62 -8z"/>
<path d="M11105 10092 c-66 -41 -101 -118 -79 -177 8 -19 55 -45 82 -45 31 0
182 80 182 96 0 21 -13 18 -77 -20 -76 -44 -109 -51 -139 -31 -31 20 -33 65
-4 65 64 0 119 54 106 104 -8 31 -29 33 -71 8z m45 -22 c0 -17 -47 -60 -65
-60 -15 0 -15 2 -1 22 9 12 26 28 38 35 28 15 28 15 28 3z"/>
<path d="M6184 10066 c-25 -25 -34 -29 -39 -19 -8 22 -30 9 -31 -18 0 -13 -4
-38 -8 -56 -12 -52 9 -46 58 18 69 88 102 95 71 14 -16 -44 -15 -75 3 -75 9 0
42 96 42 123 0 15 -36 47 -53 47 -5 0 -24 -15 -43 -34z"/>
<path d="M6373 10078 c-48 -34 -68 -89 -41 -116 7 -7 32 -12 56 -12 35 0 49 6
72 29 17 16 31 24 33 17 5 -12 -2 -179 -8 -212 -4 -19 -9 -21 -44 -14 -42 8
-108 -9 -123 -32 -14 -21 -1 -88 22 -113 68 -72 129 -47 164 67 4 14 12 16 36
12 38 -8 40 10 2 30 l-27 14 7 119 c11 157 -8 245 -46 214 -10 -9 -15 -8 -20
4 -8 22 -46 18 -83 -7z m71 -14 c42 -16 -7 -84 -61 -84 -43 0 -44 22 -2 61 33
31 38 33 63 23z m25 -333 c12 -8 12 -16 -3 -55 -23 -59 -43 -71 -83 -46 -40
24 -54 77 -27 97 20 15 92 17 113 4z"/>
<path d="M5294 10083 c-19 -13 -34 -50 -34 -82 0 -52 58 -67 118 -31 60 37 36
100 -44 115 -16 3 -34 2 -40 -2z m75 -42 c31 -20 -27 -72 -64 -57 -25 9 -15
49 15 57 35 10 33 10 49 0z"/>
<path d="M8368 10077 c-6 -8 -22 -12 -34 -9 -41 8 -89 -101 -65 -147 32 -59
122 -27 166 59 33 64 -22 144 -67 97z m46 -42 c8 -32 -29 -90 -67 -106 -23
-10 -31 -9 -44 4 -15 15 -15 20 2 62 10 27 22 44 29 42 7 -3 23 1 37 9 33 18
36 18 43 -11z"/>
<path d="M5999 10010 c-7 -22 -16 -40 -21 -40 -5 0 -8 -10 -6 -22 6 -41 30
-25 49 32 22 67 23 70 4 70 -8 0 -19 -17 -26 -40z"/>
<path d="M10653 9984 c-17 -38 -22 -59 -15 -66 13 -13 32 -2 32 18 0 8 9 32
20 54 24 47 24 50 4 50 -9 0 -26 -23 -41 -56z"/>
<path d="M6993 9956 c-18 -11 -31 -25 -30 -30 6 -19 25 -16 53 8 40 34 21 52
-23 22z"/>
<path d="M15060 9895 c-13 -16 -7 -30 13 -30 20 0 68 -135 69 -195 2 -93 -32
-163 -120 -248 -41 -40 -72 -75 -68 -79 12 -12 57 21 115 83 105 112 131 238
77 373 -28 71 -52 111 -65 111 -5 0 -14 -7 -21 -15z"/>
<path d="M13060 9842 c-25 -26 -66 -87 -90 -135 -40 -77 -48 -86 -75 -89 -37
-4 -40 -22 -3 -26 l26 -3 -15 -45 c-14 -42 -14 -47 0 -62 19 -18 21 -14 32 50
3 21 17 50 31 65 14 16 23 22 19 15 -5 -10 1 -13 26 -10 22 2 34 8 34 18 0 11
-9 14 -37 12 -21 -2 -38 0 -38 3 0 17 55 114 91 163 38 49 48 56 77 53 18 -3
15 26 -4 33 -24 9 -25 9 -74 -42z"/>
<path d="M2106 9848 c-2 -7 -31 -98 -65 -201 -34 -103 -59 -192 -56 -197 11
-18 23 -11 30 17 3 15 18 38 32 51 21 19 23 26 12 33 -12 8 -12 9 1 7 8 -2 30
8 48 20 17 13 32 22 32 19 0 -2 -7 -24 -16 -49 -19 -56 -16 -113 6 -113 11 0
14 9 12 36 -2 19 6 59 18 88 11 29 18 57 15 62 -11 17 -54 9 -84 -17 -17 -14
-31 -22 -31 -17 1 15 48 168 65 207 16 39 14 66 -5 66 -6 0 -12 -6 -14 -12z"/>
<path d="M4341 9821 c-40 -40 -61 -100 -61 -176 l0 -35 -56 0 c-40 0 -55 -4
-52 -12 6 -18 56 -22 76 -6 11 9 14 10 8 1 -5 -9 -1 -13 10 -13 14 0 16 -7 11
-51 -4 -28 -11 -57 -18 -65 -11 -14 -5 -34 12 -34 15 0 39 65 39 107 0 27 6
42 20 51 27 16 26 36 -1 29 -21 -6 -21 -4 -14 56 3 34 13 76 22 94 18 38 58
67 84 60 10 -3 19 -1 19 4 0 4 8 5 18 2 15 -6 15 -5 3 10 -25 31 -76 22 -120
-22z"/>
<path d="M13905 9840 c-7 -21 -62 -113 -161 -264 -35 -55 -64 -108 -64 -118 0
-28 24 -21 36 10 6 15 44 79 85 142 114 175 141 221 135 236 -8 20 -24 17 -31
-6z"/>
<path d="M5236 9824 c-20 -19 -20 -32 1 -176 15 -108 15 -119 0 -142 -16 -25
-69 -46 -114 -46 -25 0 -31 27 -13 60 10 19 87 53 109 48 20 -5 25 21 6 28
-26 10 -96 -15 -127 -46 -32 -32 -39 -89 -13 -110 20 -17 105 -7 144 16 58 34
60 58 24 302 -5 38 -3 44 16 49 11 3 21 12 21 19 0 19 -35 18 -54 -2z"/>
<path d="M11568 9810 c-124 -82 -229 -297 -199 -407 14 -50 72 -137 94 -141
24 -5 21 12 -7 45 -82 98 -81 190 5 335 48 82 99 134 157 160 23 11 40 23 37
29 -11 17 -41 9 -87 -21z"/>
<path d="M14679 9803 c-6 -21 -25 -64 -41 -95 -44 -89 -70 -165 -66 -195 4
-40 22 -31 30 15 4 22 32 94 62 161 31 66 56 127 56 135 0 31 -29 15 -41 -21z"/>
<path d="M9996 9823 c-3 -3 -6 -16 -6 -28 0 -12 -25 -95 -56 -184 -30 -89 -54
-174 -52 -188 4 -37 28 -42 28 -6 0 15 25 100 55 188 30 87 55 171 55 186 0
28 -12 44 -24 32z"/>
<path d="M8252 9790 c-7 -8 -26 -33 -41 -55 -26 -35 -36 -41 -86 -50 -66 -12
-73 -30 -11 -29 l43 0 -18 -40 c-19 -42 -24 -91 -13 -121 15 -37 110 -59 155
-34 33 17 12 28 -41 22 -87 -10 -110 32 -69 128 l21 49 83 0 c91 0 115 5 115
25 0 10 -20 12 -87 7 -93 -5 -91 -7 -50 49 22 31 21 74 -1 49z"/>
<path d="M12369 9753 c-12 -27 -25 -58 -30 -70 -7 -19 -16 -23 -48 -23 -41 0
-63 -16 -42 -30 7 -4 23 -5 37 -2 28 5 29 -3 9 -51 -33 -80 -8 -131 61 -125
53 4 57 28 5 28 -54 0 -60 17 -35 89 l20 56 50 5 c41 4 49 8 52 28 3 22 -12
30 -23 12 -3 -5 -19 -10 -35 -10 l-29 0 21 48 c11 26 25 50 31 53 12 8 2 39
-13 39 -6 0 -20 -21 -31 -47z"/>
<path d="M9127 9711 c-42 -77 -43 -81 -23 -81 17 0 89 127 81 141 -12 18 -21
8 -58 -60z"/>
<path d="M14180 9743 c-7 -21 -32 -71 -56 -112 -43 -75 -49 -113 -21 -148 27
-35 138 15 177 79 25 41 25 49 0 76 -24 25 -54 28 -91 8 l-27 -14 24 47 c13
25 25 57 26 70 5 39 -19 35 -32 -6z m75 -124 c22 -35 -57 -114 -107 -107 -51
7 -25 65 47 102 35 19 51 20 60 5z"/>
<path d="M9219 9720 c-13 -22 -29 -40 -36 -40 -18 0 -16 -37 2 -44 10 -4 26
12 50 50 38 60 42 74 21 74 -8 0 -25 -18 -37 -40z"/>
<path d="M10932 9702 c-24 -51 -28 -87 -11 -98 14 -8 30 16 24 36 -3 8 4 29
15 45 11 17 20 38 20 48 0 32 -25 16 -48 -31z"/>
<path d="M10847 9691 c-38 -50 -49 -101 -22 -101 8 0 15 8 15 18 0 11 14 38
30 60 31 43 36 57 22 66 -5 3 -25 -17 -45 -43z"/>
<path d="M2608 9653 c-15 -32 -34 -79 -43 -105 -15 -44 -40 -76 -50 -66 -8 8
-25 109 -25 149 0 30 -4 39 -16 39 -33 0 -1 -212 36 -235 24 -15 68 50 106
160 9 27 28 60 41 73 25 25 23 42 -6 42 -11 0 -26 -19 -43 -57z"/>
<path d="M4441 9686 c-8 -10 -8 -16 2 -25 11 -8 18 -7 31 7 16 19 13 32 -9 32
-7 0 -18 -6 -24 -14z"/>
<path d="M2744 9671 c-18 -11 -40 -33 -50 -50 -10 -17 -22 -31 -26 -31 -4 0
-8 -24 -8 -53 0 -60 21 -89 73 -101 53 -13 197 28 175 49 -4 4 -37 0 -75 -9
-97 -22 -143 -8 -143 44 0 23 5 29 32 34 18 3 50 18 70 33 86 59 40 138 -48
84z m66 -19 c0 -14 -43 -50 -72 -61 -38 -14 -35 1 7 38 34 30 65 40 65 23z"/>
<path d="M6735 9664 c-35 -18 -82 -61 -97 -87 -5 -10 -6 -32 -3 -48 9 -40 45
-55 86 -34 16 9 29 11 29 5 0 -5 7 -10 16 -10 12 0 15 7 11 27 -5 29 16 83 39
96 23 13 16 35 -16 52 -35 18 -29 18 -65 -1z m35 -34 c0 -5 -10 -30 -22 -55
-24 -49 -62 -70 -79 -44 -14 23 -11 30 31 71 39 36 70 49 70 28z"/>
<path d="M7035 9660 c-12 -4 -27 -15 -34 -24 -12 -14 -15 -13 -31 7 -18 21
-20 21 -47 5 -27 -16 -101 -121 -102 -145 -2 -32 30 -7 68 52 41 67 68 86 57
40 -3 -14 -9 -36 -12 -50 -11 -43 18 -29 60 30 22 30 41 55 43 55 2 0 1 -30
-2 -67 -6 -72 3 -100 29 -90 13 5 14 10 5 25 -9 14 -10 36 -2 81 11 71 2 94
-32 81z"/>
<path d="M9422 9644 c-39 -31 -62 -73 -62 -113 0 -24 7 -34 30 -46 45 -23 169
-15 178 13 3 9 -12 11 -65 6 -108 -10 -135 14 -93 81 23 37 68 60 105 53 15
-3 30 1 37 10 10 13 10 14 1 8 -7 -4 -13 -2 -13 3 0 15 -37 14 -43 -1 -4 -10
-6 -10 -6 0 -2 20 -34 14 -69 -14z"/>
<path d="M11911 9650 c-36 -23 -37 -36 -10 -128 13 -40 12 -45 -6 -58 -39 -29
-93 -8 -79 31 5 13 2 16 -12 13 -12 -2 -20 -13 -22 -30 -8 -69 126 -79 157
-12 8 19 7 35 -9 77 -11 28 -20 57 -20 64 0 15 54 33 80 26 18 -5 21 -2 18 13
-5 27 -55 29 -97 4z"/>
<path d="M14387 9655 c-8 -8 -17 -12 -19 -9 -10 9 -68 -67 -68 -90 0 -51 106
-99 167 -75 26 10 27 12 8 19 -11 5 -35 9 -53 9 -18 1 -47 8 -65 17 l-31 17
43 16 c52 19 86 59 76 90 -7 24 -37 28 -58 6z m23 -35 c0 -11 -33 -30 -52 -30
-7 0 -2 9 12 20 28 22 40 25 40 10z"/>
<path d="M3704 9637 c-85 -50 -117 -113 -76 -150 24 -22 50 -21 88 2 l32 19
21 -29 c22 -29 51 -39 51 -18 0 7 -8 18 -17 25 -14 10 -18 27 -18 86 l0 73
-30 2 c-16 2 -39 -3 -51 -10z m60 -26 c7 -11 -57 -96 -78 -104 -20 -8 -46 2
-46 17 0 20 31 57 64 77 34 21 52 24 60 10z"/>
<path d="M7275 9642 c-38 -8 -73 -42 -91 -87 -15 -41 -15 -46 0 -70 32 -49
116 -42 170 14 24 25 28 36 23 67 -10 59 -47 87 -102 76z m65 -53 c24 -45 -10
-92 -76 -105 -64 -12 -79 53 -22 101 37 31 83 33 98 4z"/>
<path d="M10095 9638 c-30 -13 -65 -70 -65 -105 0 -47 34 -65 95 -49 66 17 83
64 43 122 -25 37 -44 45 -73 32z m43 -48 c43 -40 19 -80 -47 -80 -25 0 -31 4
-31 21 0 21 36 79 49 79 4 0 17 -9 29 -20z"/>
<path d="M10354 9641 c-12 -5 -25 -14 -28 -19 -3 -5 -16 -7 -29 -5 -19 4 -26
-1 -35 -24 -19 -49 -34 -115 -28 -129 8 -21 24 -17 32 9 4 12 22 46 40 75 38
59 72 78 115 63 30 -10 50 2 32 20 -14 14 -75 20 -99 10z"/>
<path d="M13930 9634 c-45 -31 -100 -88 -100 -105 0 -34 61 -30 118 7 24 16
25 16 19 -6 -7 -27 1 -50 18 -50 13 0 32 106 20 118 -3 3 -14 1 -23 -6 -30
-21 -66 -39 -92 -46 -22 -6 -20 -2 14 29 22 19 50 35 62 35 31 0 39 17 15 29
-25 14 -22 14 -51 -5z"/>
<path d="M14763 9635 c-41 -17 -41 -35 -3 -78 17 -19 30 -37 30 -41 0 -11 -62
-37 -83 -34 -14 2 -22 -2 -22 -12 0 -22 48 -24 87 -4 57 29 62 56 22 104 -31
36 -27 43 21 44 19 1 35 5 35 9 0 4 0 12 0 17 0 14 -50 12 -87 -5z"/>
<path d="M4837 9619 c-48 -25 -75 -77 -61 -117 18 -51 124 -81 170 -48 14 11
16 18 8 26 -8 8 -14 9 -18 1 -17 -26 -121 -3 -131 30 -12 38 49 99 98 99 21 0
1 -20 -33 -34 -22 -9 -40 -23 -40 -31 0 -20 13 -19 59 4 48 25 62 42 54 69 -7
29 -53 29 -106 1z"/>
<path d="M4550 9618 c0 -7 9 -24 20 -38 11 -14 20 -30 20 -37 0 -6 -25 -26
-55 -43 -55 -31 -69 -50 -39 -50 20 0 84 38 100 58 9 12 17 8 44 -26 34 -43
55 -56 72 -46 5 3 -7 22 -26 42 -20 19 -36 41 -36 48 0 7 15 25 34 39 19 14
37 32 40 40 11 29 -14 24 -51 -10 -21 -19 -41 -35 -45 -35 -4 0 -18 16 -30 35
-23 34 -48 47 -48 23z"/>
<path d="M7866 9615 c-22 -11 -32 -12 -42 -4 -19 15 -37 -1 -71 -60 -15 -25
-33 -54 -41 -64 -12 -14 -13 -20 -4 -29 10 -10 26 1 73 49 56 56 124 102 135
90 3 -3 -6 -28 -20 -56 -14 -28 -26 -59 -26 -70 0 -27 19 -37 26 -14 3 10 17
43 31 74 14 31 23 64 21 75 -4 25 -44 29 -82 9z"/>
<path d="M9688 9610 c-14 -10 -31 -33 -38 -50 -11 -28 -11 -34 7 -58 27 -36
78 -46 123 -24 29 14 35 23 38 54 4 42 -24 78 -58 78 -11 0 -20 5 -20 10 0 16
-25 11 -52 -10z m32 -35 c0 -17 9 -19 30 -5 19 12 40 -6 40 -35 0 -26 -17 -35
-65 -35 -44 0 -59 24 -39 62 16 30 34 37 34 13z"/>
<path d="M10568 9614 c-34 -18 -35 -35 -3 -82 30 -44 31 -59 5 -67 -28 -9 -72
15 -88 48 -18 37 -34 34 -30 -5 4 -38 38 -66 91 -75 73 -11 100 48 51 112
l-26 35 27 12 c21 9 31 9 46 0 42 -27 67 -6 27 22 -28 20 -65 20 -100 0z"/>
<path d="M12089 9606 c-71 -49 -90 -116 -44 -161 26 -27 86 -37 105 -19 8 8
-23 24 -47 24 -12 0 -29 7 -37 16 -28 27 -19 48 29 68 53 21 71 46 55 76 -14
25 -18 25 -61 -4z"/>
<path d="M2273 9613 c-12 -2 -38 -22 -57 -43 -82 -90 -46 -159 49 -94 40 27
54 22 55 -18 0 -11 8 -18 18 -18 29 0 34 11 17 37 -13 19 -14 31 -4 65 10 39
9 44 -11 60 -22 18 -27 19 -67 11z m35 -55 c-18 -28 -95 -84 -104 -76 -7 8 13
46 39 76 12 13 32 22 50 22 28 0 29 -1 15 -22z"/>
<path d="M7460 9588 c-17 -29 -18 -33 -4 -36 15 -4 49 33 49 52 0 24 -26 14
-45 -16z"/>
<path d="M7602 9568 c-9 -39 -21 -60 -44 -80 -62 -52 -92 -47 -90 17 1 23 -3
35 -12 35 -21 0 -27 -28 -16 -70 17 -64 71 -66 139 -5 39 36 69 109 58 140
-11 28 -22 16 -35 -37z"/>
<path d="M4421 9586 c-16 -19 -20 -108 -6 -113 12 -4 36 108 25 120 -4 4 -12
1 -19 -7z"/>
<path d="M12732 9560 c-17 -11 -38 -30 -48 -44 -39 -61 33 -89 96 -38 19 15
22 24 16 54 -8 45 -25 52 -64 28z m38 -51 c0 -9 -52 -31 -58 -24 -3 3 5 16 18
30 18 19 26 22 32 13 4 -7 8 -16 8 -19z"/>
<path d="M5926 9431 c-14 -22 -38 -66 -53 -96 -25 -51 -30 -55 -55 -50 -21 5
-28 3 -28 -9 0 -8 9 -18 21 -21 16 -5 19 -12 14 -28 -27 -86 -28 -104 -9 -143
23 -48 76 -77 123 -68 39 8 36 28 -5 32 -61 5 -75 13 -89 45 -10 25 -11 44 -4
76 17 75 23 81 87 82 84 1 167 21 167 39 0 8 -6 14 -14 12 -67 -15 -121 -22
-158 -22 l-45 0 47 86 c31 57 43 90 37 96 -7 7 -19 -4 -36 -31z"/>
<path d="M2976 9408 c-28 -38 -46 -96 -46 -153 0 -52 -12 -72 -30 -50 -20 24
-49 18 -86 -19 -27 -27 -34 -42 -34 -73 0 -52 35 -88 71 -74 57 22 96 95 108
202 10 90 16 110 40 148 35 54 16 70 -23 19z m-91 -229 c4 -6 13 -8 21 -5 8 3
14 2 14 -2 -1 -15 -46 -86 -61 -95 -48 -30 -69 44 -24 88 26 27 40 31 50 14z"/>
<path d="M9450 9351 c0 -17 -64 -168 -105 -248 -16 -32 -14 -53 6 -53 6 0 45
30 87 67 l77 67 3 -45 c4 -48 38 -97 56 -79 6 6 3 16 -8 29 -12 14 -17 33 -16
63 2 24 2 49 1 56 -3 26 -42 10 -105 -43 l-65 -55 49 102 c51 106 62 158 35
158 -8 0 -15 -8 -15 -19z"/>
<path d="M10840 9307 c0 -68 -57 -214 -100 -257 -27 -27 -77 -27 -85 0 -8 26
8 54 50 85 23 18 41 25 55 20 16 -5 20 -2 20 14 0 17 -6 21 -31 21 -25 0 -43
-11 -80 -49 -53 -52 -60 -80 -33 -119 20 -29 81 -30 116 -3 71 56 156 321 103
321 -10 0 -15 -10 -15 -33z"/>
<path d="M12863 9293 c-16 -21 -42 -57 -56 -80 -25 -40 -30 -43 -72 -43 -38 0
-45 -3 -45 -19 0 -16 5 -18 40 -14 l39 6 -9 -34 c-14 -49 -12 -74 8 -99 15
-19 24 -22 48 -15 l29 8 -28 11 c-34 13 -42 40 -25 91 13 39 15 40 61 43 55 4
61 25 9 30 -18 2 -32 6 -32 10 0 12 30 54 63 89 16 17 26 36 23 42 -11 18 -21
13 -53 -26z"/>
<path d="M13041 9308 c-5 -13 -21 -60 -36 -106 -15 -45 -38 -99 -51 -118 -45
-65 -20 -90 29 -29 26 33 99 66 113 52 3 -3 -4 -35 -17 -71 -18 -51 -21 -68
-12 -77 10 -10 14 -8 19 7 3 10 14 40 25 66 37 91 14 125 -67 100 -19 -5 -34
-9 -34 -9 0 1 14 40 30 86 17 46 30 92 30 102 0 26 -19 24 -29 -3z"/>
<path d="M7515 9310 c-8 -12 20 -24 35 -15 5 3 10 10 10 16 0 12 -37 12 -45
-1z"/>
<path d="M11982 9278 c-18 -18 -15 -41 4 -34 9 3 18 6 20 6 8 0 4 29 -4 34 -5
3 -14 0 -20 -6z"/>
<path d="M7119 9265 c-40 -21 -43 -42 -14 -98 25 -47 25 -50 9 -68 -22 -25
-50 -24 -57 1 -7 27 -27 25 -27 -3 0 -51 63 -65 105 -22 30 29 31 61 5 95 -11
14 -20 33 -20 42 0 20 29 38 59 38 12 0 21 7 21 15 0 19 -46 19 -81 0z"/>
<path d="M2343 9251 c-60 -37 -104 -146 -71 -179 20 -20 65 -14 97 14 l31 26
0 -27 c0 -34 17 -65 35 -65 17 0 20 26 5 35 -18 11 -10 75 15 125 14 27 25 56
25 65 0 17 -16 20 -25 5 -4 -7 -14 -5 -28 5 -28 20 -45 19 -84 -4z m68 -37
c12 -32 -4 -60 -56 -99 -37 -29 -65 -28 -65 3 0 25 49 98 74 111 31 15 36 13
47 -15z"/>
<path d="M6875 9256 c-33 -14 -90 -74 -108 -113 -8 -19 -7 -27 6 -40 15 -15
21 -14 75 13 l59 29 0 -36 c0 -42 8 -59 28 -59 11 0 13 11 8 48 -3 32 0 60 11
87 17 39 16 39 -10 62 -31 27 -30 26 -69 9z m49 -34 c10 -16 -89 -92 -119 -92
-15 0 -1 24 35 60 38 38 72 51 84 32z"/>
<path d="M8759 9250 c-86 -45 -135 -136 -109 -200 7 -16 21 -32 32 -36 33 -10
136 6 142 23 6 14 -3 15 -63 9 -64 -7 -71 -5 -81 14 -18 34 -4 57 40 63 57 7
128 52 136 84 5 20 2 31 -16 45 -27 22 -36 22 -81 -2z m66 -29 c12 -20 -105
-84 -122 -67 -14 14 66 76 99 76 9 0 19 -4 23 -9z"/>
<path d="M7320 9249 c-40 -16 -68 -48 -63 -70 3 -11 18 -29 34 -40 34 -24 35
-29 10 -60 -19 -23 -20 -23 -39 -5 -25 22 -47 13 -32 -14 22 -42 81 -36 105
10 22 42 19 58 -17 91 -32 29 -32 31 -14 45 11 7 31 14 44 14 17 0 23 5 20 17
-4 21 -17 24 -48 12z"/>
<path d="M2635 9238 c-11 -6 -32 -22 -47 -36 -23 -21 -28 -23 -28 -9 0 9 -6
17 -13 17 -12 0 -22 -25 -55 -137 -2 -7 3 -13 12 -13 8 0 31 25 51 55 39 59
87 103 93 86 2 -6 -7 -38 -19 -71 -16 -43 -19 -64 -11 -72 13 -13 32 -2 32 20
0 10 9 44 20 75 15 44 18 62 10 77 -12 23 -17 24 -45 8z"/>
<path d="M3681 9156 c-28 -52 -55 -97 -60 -100 -5 -3 -11 17 -15 45 -9 65 -25
99 -48 99 -21 0 -23 -17 -5 -39 8 -9 19 -46 26 -83 l11 -67 -44 -69 c-63 -99
-78 -130 -74 -160 4 -35 21 -31 29 7 7 34 40 93 119 211 73 109 142 235 133
243 -14 15 -23 4 -72 -87z"/>
<path d="M5650 9242 c-31 -5 -80 -39 -80 -56 0 -7 11 -30 25 -51 24 -35 25
-39 10 -61 -18 -28 -16 -27 -48 -15 -14 6 -28 19 -32 31 -8 26 -25 16 -25 -16
0 -19 8 -29 36 -40 49 -20 77 -12 99 30 19 36 17 51 -17 98 -17 24 6 48 48 48
22 0 34 5 34 14 0 17 -17 23 -50 18z"/>
<path d="M8980 9231 c-40 -21 -100 -94 -100 -122 0 -10 11 -26 24 -34 22 -15
27 -15 63 1 21 10 41 19 44 21 4 2 9 -10 12 -27 4 -18 13 -30 22 -30 13 0 15
7 9 35 -5 29 -1 43 20 76 27 40 31 76 7 71 -6 -1 -19 4 -27 13 -20 19 -32 19
-74 -4z m60 -47 c0 -17 -12 -33 -42 -54 -38 -28 -88 -40 -88 -22 0 32 100 119
122 106 4 -3 8 -16 8 -30z"/>
<path d="M9196 9229 c-34 -27 -76 -92 -76 -119 0 -36 36 -61 83 -58 30 2 43 8
45 21 2 9 -2 17 -8 17 -6 0 -9 -4 -6 -8 9 -14 -63 0 -76 15 -24 30 41 116 90
119 35 1 36 28 1 32 -14 2 -37 -6 -53 -19z"/>
<path d="M4987 9233 c-2 -5 -10 -26 -17 -48 -7 -22 -26 -64 -42 -94 -19 -35
-26 -57 -20 -63 15 -15 30 -2 56 51 27 52 108 141 113 124 2 -6 -6 -34 -17
-63 -31 -78 -14 -85 58 -22 l59 51 -7 -42 c-10 -54 3 -89 31 -85 24 3 48 33
36 44 -3 4 -13 1 -22 -6 -13 -11 -15 -8 -15 23 0 19 7 54 15 78 25 69 4 72
-59 10 l-54 -54 1 49 c2 57 -16 68 -62 35 -29 -21 -29 -21 -24 -1 4 14 0 20
-10 20 -9 0 -18 -3 -20 -7z"/>
<path d="M10325 9223 c-16 -8 -38 -23 -48 -32 -11 -9 -29 -15 -40 -14 -18 2
-28 -10 -54 -66 -18 -38 -33 -74 -33 -80 0 -24 26 -8 50 30 30 49 125 139 147
139 13 0 14 -3 1 -22 -49 -77 -69 -120 -66 -144 4 -39 28 -43 28 -5 0 18 16
55 40 93 42 67 50 102 24 112 -19 7 -13 8 -49 -11z"/>
<path d="M5301 9177 c-12 -25 -21 -63 -21 -90 0 -39 4 -49 25 -63 33 -22 71
-6 120 48 31 34 36 45 33 80 -4 57 -28 63 -28 8 0 -35 -6 -48 -35 -77 -68 -68
-112 -14 -66 81 25 50 25 56 7 56 -8 0 -24 -19 -35 -43z"/>
<path d="M10503 9200 c4 -14 -4 -25 -29 -41 -40 -24 -84 -84 -84 -114 0 -31
19 -45 63 -45 34 0 47 7 85 45 43 43 44 47 39 92 -3 32 -12 53 -27 65 -30 25
-54 24 -47 -2z m45 -72 c5 -38 -55 -98 -97 -98 -46 0 -40 25 20 82 54 53 72
56 77 16z"/>
<path d="M4029 9131 c-35 -44 -74 -84 -87 -87 -23 -7 -27 -34 -6 -41 17 -6 76
48 70 63 -12 31 5 12 18 -21 21 -48 53 -47 109 4 41 38 42 38 43 15 1 -14 7
-31 14 -39 16 -19 47 -19 47 0 0 8 -7 15 -15 15 -15 0 -15 3 4 123 5 30 3 37
-10 37 -9 0 -22 -15 -30 -34 -15 -37 -96 -126 -114 -126 -20 0 -13 43 14 99
18 35 23 56 16 63 -6 6 -30 -17 -73 -71z"/>
<path d="M7842 9169 c-11 -24 -31 -70 -45 -101 -17 -37 -22 -60 -15 -64 6 -4
47 30 91 75 44 44 82 79 84 77 2 -1 -5 -24 -14 -50 -13 -35 -15 -51 -7 -64 15
-23 94 -28 133 -7 39 20 41 40 4 30 -52 -13 -113 -17 -113 -7 0 5 10 32 21 60
39 93 -2 110 -82 35 l-50 -47 17 43 c12 31 14 45 6 53 -8 8 -17 -1 -30 -33z"/>
<path d="M7595 9167 c-39 -39 -45 -75 -17 -100 10 -10 31 -17 46 -17 24 0 28
-3 22 -22 -3 -13 -6 -32 -6 -43 0 -14 -13 -25 -45 -39 -54 -21 -75 -56 -75
-118 0 -50 22 -88 52 -88 42 0 98 91 98 159 0 25 8 27 25 4 8 -11 18 -14 31
-9 17 7 15 11 -19 40 -36 32 -37 35 -31 82 4 27 15 58 25 69 19 21 24 41 21
82 -2 17 -8 23 -24 22 -13 0 -33 2 -45 6 -18 6 -30 0 -58 -28z m72 -45 c-14
-32 -25 -42 -50 -42 -31 0 -32 29 -2 60 22 23 32 27 46 19 16 -8 17 -13 6 -37z
m-27 -213 c0 -36 -22 -97 -42 -119 -27 -29 -48 -10 -48 44 0 42 22 75 60 89
26 9 30 8 30 -14z"/>
<path d="M11026 9190 c-38 -12 -60 -33 -81 -80 -10 -22 -24 -40 -32 -40 -14 0
-19 -26 -5 -32 4 -1 14 -16 22 -33 22 -41 57 -52 122 -36 59 15 128 56 128 77
0 20 -17 17 -53 -10 -38 -28 -117 -51 -145 -42 -39 13 -33 34 21 64 71 40 99
73 95 108 -3 32 -23 39 -72 24z m30 -59 c-8 -9 -34 -28 -58 -41 l-42 -23 20
34 c21 36 86 77 93 58 1 -5 -4 -18 -13 -28z"/>
<path d="M3804 9155 c-41 -44 -63 -107 -44 -130 29 -35 97 -11 129 45 27 49
27 85 -1 104 -33 23 -47 20 -84 -19z m66 -55 c-15 -36 -53 -65 -75 -56 -20 7
-4 50 33 89 23 24 28 25 40 13 13 -12 13 -20 2 -46z"/>
<path d="M7473 9163 c-3 -10 -12 -33 -19 -52 -16 -40 -18 -91 -4 -91 6 0 12 6
14 13 3 12 36 112 44 135 2 6 -3 12 -12 12 -9 0 -19 -8 -23 -17z"/>
<path d="M11907 9138 c-37 -62 -50 -99 -38 -111 12 -12 31 0 31 20 0 8 12 37
27 64 19 35 23 53 16 60 -8 8 -18 -2 -36 -33z"/>
<path d="M13268 9160 c-43 -23 -65 -52 -74 -96 -4 -24 0 -37 19 -60 25 -28 28
-29 116 -29 49 0 93 4 97 8 9 9 -12 57 -25 57 -5 0 -11 -9 -14 -20 -9 -36
-146 -24 -160 14 -13 33 6 51 56 53 63 2 99 25 95 61 -3 23 -8 27 -38 29 -20
2 -51 -6 -72 -17z m72 -24 c-15 -14 -80 -32 -80 -22 0 9 54 35 75 36 17 0 17
-2 5 -14z"/>
<path d="M12078 9140 c-15 -11 -33 -17 -42 -14 -11 4 -16 0 -16 -13 0 -11 -7
-28 -15 -39 -18 -24 -19 -54 -2 -54 7 0 20 13 30 29 22 38 74 81 97 81 17 0
17 -2 -1 -50 -22 -58 -24 -83 -7 -78 15 5 50 92 52 128 1 22 -4 25 -35 28 -24
2 -43 -4 -61 -18z"/>
<path d="M6589 8983 c-6 -16 -24 -77 -40 -138 -30 -111 -81 -236 -104 -255
-18 -15 -44 65 -51 155 -11 150 -27 153 -79 18 -21 -54 -51 -125 -67 -157 -20
-43 -25 -63 -17 -70 16 -16 31 10 80 135 l43 109 13 -76 c15 -90 46 -164 67
-164 35 0 91 115 143 292 43 150 49 178 34 178 -6 0 -16 -12 -22 -27z"/>
<path d="M8615 8970 c-3 -5 -4 -19 0 -30 10 -31 -14 -100 -67 -193 -38 -66
-48 -91 -40 -99 9 -9 19 -4 39 18 38 40 98 84 117 84 12 0 7 -16 -19 -75 -30
-66 -33 -97 -7 -81 15 9 74 156 68 171 -8 22 -63 19 -96 -5 l-29 -21 30 58
c36 71 49 153 26 171 -10 9 -17 10 -22 2z"/>
<path d="M14402 8958 c-5 -7 -30 -54 -55 -104 -42 -83 -48 -91 -83 -100 -48
-12 -61 -39 -15 -32 20 3 30 1 27 -6 -3 -6 -11 -30 -18 -53 -7 -24 -16 -43
-20 -43 -4 0 -8 -9 -8 -20 0 -38 27 -9 60 66 33 75 34 76 66 71 18 -3 35 -3
38 0 10 10 -15 33 -35 33 -17 0 -15 9 21 79 21 44 45 81 51 83 14 5 5 38 -9
38 -5 0 -14 -6 -20 -12z"/>
<path d="M12626 8928 c-19 -94 -30 -137 -42 -165 -12 -30 -16 -32 -66 -35 -40
-2 -54 -7 -56 -20 -3 -15 4 -16 54 -11 56 6 57 6 51 -18 -3 -13 -9 -52 -13
-86 -5 -53 -4 -63 9 -63 15 0 19 12 33 128 l6 52 53 0 c57 0 85 7 85 21 0 5
-29 9 -64 9 l-63 0 23 96 c13 53 21 101 18 105 -10 16 -24 9 -28 -13z"/>
<path d="M14531 8927 c-5 -14 -11 -33 -13 -43 -2 -11 -5 -21 -8 -24 -3 -3 -23
-32 -44 -65 -22 -33 -57 -86 -79 -118 -61 -91 -43 -101 51 -28 89 69 111 77
87 31 -30 -59 -6 -110 52 -110 34 0 28 27 -8 35 -34 8 -34 17 -8 81 17 44 6
68 -28 59 -15 -3 -40 -16 -55 -27 -16 -11 -31 -18 -34 -16 -2 3 13 29 34 59
44 62 82 138 82 162 0 27 -19 30 -29 4z"/>
<path d="M8365 8858 l-50 -82 -57 3 c-47 2 -58 0 -58 -13 0 -11 9 -16 28 -16
15 0 37 -3 49 -6 20 -6 20 -8 7 -40 -21 -49 -17 -72 16 -105 24 -25 37 -30 67
-27 45 4 58 28 15 28 -69 0 -92 35 -66 99 14 36 19 39 62 46 62 8 112 24 112
36 0 9 -67 5 -116 -7 -28 -7 -28 -7 -13 17 8 13 26 42 39 64 13 22 28 43 33
46 11 8 2 39 -10 39 -4 0 -30 -37 -58 -82z"/>
<path d="M4799 8923 c-1 -5 -3 -17 -5 -28 -1 -11 -16 -76 -33 -145 -17 -69
-31 -140 -31 -158 0 -40 15 -72 35 -72 17 0 20 16 5 25 -18 11 -11 73 25 221
20 80 33 149 30 154 -7 12 -24 13 -26 3z"/>
<path d="M3197 8904 c-4 -4 -7 -22 -7 -40 0 -58 -30 -177 -60 -243 -51 -108
-41 -116 44 -36 32 30 64 55 71 55 7 0 18 -13 23 -29 12 -33 47 -58 57 -40 4
5 0 18 -8 27 -8 9 -22 32 -31 50 -20 38 -32 40 -79 8 l-36 -25 10 27 c15 38
37 149 40 201 3 41 -8 61 -24 45z"/>
<path d="M6947 8893 c-4 -3 -7 -36 -7 -73 0 -87 -34 -158 -99 -206 -55 -40
-75 -44 -66 -11 14 44 69 96 103 97 13 0 22 6 22 15 0 44 -76 14 -123 -49 -66
-86 -27 -151 56 -94 96 65 137 136 137 235 0 34 5 65 10 68 6 3 10 10 10 16 0
10 -33 12 -43 2z"/>
<path d="M9095 8863 c-16 -68 -35 -91 -77 -98 -21 -4 -55 -7 -74 -7 -27 0 -34
-4 -32 -16 3 -14 14 -16 61 -14 l57 3 -21 -40 c-31 -61 -35 -111 -11 -141 18
-22 27 -25 78 -23 56 2 102 23 111 50 5 13 -9 11 -51 -6 -17 -7 -50 -11 -75
-9 -42 3 -46 6 -49 30 -4 31 44 135 68 148 8 4 32 11 53 15 38 7 67 38 47 50
-6 4 -16 2 -23 -3 -7 -5 -22 -13 -33 -16 -21 -6 -21 -6 -8 31 7 21 13 46 14
56 0 28 -27 20 -35 -10z"/>
<path d="M13156 8789 c-9 -39 -16 -77 -16 -83 0 -6 -21 -20 -46 -30 -45 -19
-84 -63 -84 -97 0 -33 36 -52 87 -46 56 6 73 25 73 84 0 24 5 43 10 43 14 0
12 28 -2 32 -10 4 -8 22 5 79 21 89 21 89 3 89 -9 0 -19 -25 -30 -71z m-16
-169 c0 -29 -5 -42 -19 -50 -26 -13 -68 -13 -77 1 -12 21 55 88 89 89 4 0 7
-18 7 -40z"/>
<path d="M14136 8844 c-8 -21 1 -34 25 -34 23 0 26 35 3 44 -21 8 -21 8 -28
-10z"/>
<path d="M13772 8780 c-106 -54 -111 -57 -88 -66 9 -3 42 8 78 26 l62 32 -48
-53 c-81 -93 -74 -138 16 -102 92 37 99 38 119 12 22 -29 27 -25 69 59 24 47
29 67 21 75 -14 14 -25 2 -41 -45 -14 -45 -23 -52 -49 -39 -15 8 -35 4 -90
-19 -39 -16 -71 -27 -71 -24 0 2 29 38 65 79 61 69 76 98 58 108 -5 2 -50 -17
-101 -43z"/>
<path d="M4329 8812 c-52 -23 -109 -98 -109 -144 0 -15 10 -39 23 -53 19 -23
34 -28 97 -35 41 -5 78 -6 83 -3 21 13 -4 26 -55 29 -74 5 -106 18 -114 48 -7
28 13 71 48 102 32 30 50 34 71 16 28 -25 45 0 18 27 -22 22 -35 24 -62 13z"/>
<path d="M2397 8784 c-4 -4 -7 -19 -7 -34 0 -44 -88 -110 -127 -96 -20 8 -16
27 14 58 29 31 43 35 43 14 0 -15 27 -29 34 -18 8 13 -7 64 -20 69 -8 3 -26
-3 -42 -12 -84 -54 -98 -145 -22 -145 36 1 104 34 125 61 16 23 17 20 11 -96
-9 -168 -8 -165 -65 -158 -60 7 -75 -10 -75 -81 0 -82 42 -144 82 -120 19 12
59 86 67 126 5 24 9 27 33 22 40 -8 39 23 0 32 -19 4 -28 11 -24 19 10 27 17
261 9 309 -8 47 -21 65 -36 50z m-38 -390 c30 -6 32 -9 25 -38 -8 -40 -42
-106 -53 -106 -18 0 -42 83 -34 121 6 31 12 33 62 23z"/>
<path d="M2553 8770 c-41 -25 -71 -83 -75 -146 -2 -38 0 -49 12 -49 11 0 17
15 20 50 7 59 20 86 57 115 l28 22 3 -21 c5 -29 32 -27 32 2 0 24 -17 47 -34
47 -6 0 -25 -9 -43 -20z"/>
<path d="M3748 8758 c-42 -44 -59 -88 -49 -124 9 -35 30 -41 73 -20 17 9 32
15 32 14 1 -2 9 -16 18 -33 20 -36 78 -56 102 -36 20 17 10 34 -15 26 -11 -4
-31 0 -44 9 -19 13 -25 25 -25 54 0 20 7 46 15 56 8 11 15 32 15 48 0 23 -4
27 -22 26 -13 -1 -33 2 -46 6 -18 6 -29 1 -54 -26z m65 -40 c-5 -37 -35 -73
-64 -81 -15 -4 -19 0 -19 23 0 34 44 90 70 90 15 0 17 -6 13 -32z"/>
<path d="M4553 8750 c-68 -41 -76 -108 -18 -146 22 -15 32 -15 67 -5 48 15 88
52 88 82 0 26 -61 89 -86 89 -11 0 -33 -9 -51 -20z m101 -55 c4 -12 -1 -44 -8
-45 0 0 -19 -7 -41 -14 -47 -17 -75 -6 -75 27 0 26 16 50 44 64 21 12 70 -8
80 -32z"/>
<path d="M4905 8735 c-42 -42 -48 -92 -15 -125 43 -43 155 -14 182 46 11 24
10 29 -17 51 -17 13 -41 33 -53 43 -34 29 -57 25 -97 -15z m83 -30 c61 -19 70
-45 22 -70 -75 -39 -137 2 -98 65 15 24 12 24 76 5z"/>
<path d="M6632 8754 c-70 -49 -68 -184 2 -184 9 0 28 11 41 25 20 19 25 34 25
75 0 38 4 50 15 50 22 0 19 27 -4 40 -28 14 -53 13 -79 -6z m38 -84 c0 -39
-29 -78 -49 -65 -17 10 -13 63 6 96 22 37 43 22 43 -31z"/>
<path d="M7258 8754 c-19 -10 -28 -23 -28 -39 0 -16 10 -31 28 -42 36 -22 72
-55 72 -65 0 -19 -42 -48 -71 -48 -27 0 -30 3 -29 28 3 41 1 45 -15 28 -18
-18 -20 -57 -3 -74 7 -7 29 -12 51 -12 29 0 46 7 68 29 47 47 37 77 -46 138
l-30 21 38 16 c21 9 35 21 32 26 -9 14 -35 12 -67 -6z"/>
<path d="M10119 8742 c-63 -41 -89 -76 -89 -124 0 -53 43 -98 93 -98 60 0 202
89 178 113 -8 8 -17 5 -33 -10 -33 -31 -117 -73 -144 -73 -36 0 -66 35 -62 73
2 26 7 31 24 29 28 -4 104 30 129 57 15 17 17 26 9 39 -17 27 -55 25 -105 -6z
m71 -12 c0 -11 -90 -54 -97 -46 -5 4 77 56 90 56 4 0 7 -5 7 -10z"/>
<path d="M10974 8752 c-83 -46 -101 -75 -80 -126 8 -19 26 -42 41 -52 30 -19
112 -28 135 -14 22 13 3 25 -34 22 -50 -5 -104 21 -112 54 -9 35 3 54 56 83
35 19 46 22 61 13 25 -16 39 -15 39 3 0 17 -30 35 -57 35 -10 -1 -32 -9 -49
-18z"/>
<path d="M11537 8746 c-21 -8 -47 -22 -57 -31 -17 -15 -18 -15 -16 2 2 25 -26
23 -30 -3 -2 -11 -15 -41 -29 -65 -13 -24 -25 -50 -25 -56 0 -26 28 -12 56 29
35 50 98 98 131 98 29 0 29 -8 -2 -54 -28 -42 -31 -59 -12 -75 16 -12 27 -5
27 18 0 9 12 40 28 69 26 52 27 53 8 68 -24 17 -30 17 -79 0z"/>
<path d="M14075 8684 c-39 -85 -41 -94 -22 -94 15 0 89 148 81 161 -12 20 -25
5 -59 -67z"/>
<path d="M7010 8732 c-24 -13 -44 -35 -63 -75 -26 -50 -28 -59 -17 -91 6 -20
20 -41 30 -46 27 -14 75 -12 115 4 42 18 48 41 8 32 -102 -23 -123 -17 -123
34 0 39 11 65 20 50 9 -15 74 2 101 26 33 29 19 84 -21 84 -8 0 -31 -8 -50
-18z m60 -26 c0 -18 -13 -26 -57 -36 -34 -8 -34 -8 -16 12 16 19 47 36 66 37
4 1 7 -5 7 -13z"/>
<path d="M9948 8730 c-25 -19 -78 -115 -78 -139 0 -21 39 -11 45 12 13 43 37
92 53 105 9 6 31 12 50 12 45 0 37 24 -9 28 -24 2 -44 -4 -61 -18z"/>
<path d="M2973 8709 c-25 -26 -31 -28 -30 -13 1 11 -4 19 -13 19 -11 0 -22
-33 -43 -124 -15 -68 -36 -143 -48 -166 -22 -43 -23 -96 -2 -103 7 -2 15 2 17
10 2 7 16 51 30 98 l27 86 33 -4 c26 -3 39 2 65 28 65 65 89 150 53 183 -27
25 -54 21 -89 -14z m75 -26 c6 -39 -62 -143 -94 -143 -21 0 -22 37 -2 82 36
79 89 113 96 61z"/>
<path d="M8745 8696 c-49 -49 -64 -88 -45 -111 17 -20 39 -19 75 5 l30 20 5
-32 c3 -21 11 -34 23 -36 15 -3 17 1 11 22 -6 27 29 116 47 116 5 0 9 10 9 21
0 16 -5 20 -18 17 -10 -3 -27 1 -37 8 -31 23 -53 16 -100 -30z m102 1 c19 -1
-3 -24 -61 -63 -55 -37 -75 -35 -51 4 25 40 68 73 85 66 8 -4 21 -7 27 -7z"/>
<path d="M12208 8720 c-71 -38 -93 -113 -42 -146 49 -33 194 -40 194 -10 0 8
-24 12 -70 13 -76 1 -120 20 -120 51 0 38 86 92 108 70 8 -8 13 -7 18 5 15 40
-28 48 -88 17z"/>
<path d="M5198 8723 c-31 -5 -42 -33 -54 -135 -6 -50 -4 -58 9 -58 10 0 19 11
23 28 29 132 54 156 129 127 69 -26 77 -3 11 29 -33 15 -61 18 -118 9z"/>
<path d="M11177 8712 c-51 -34 -68 -73 -51 -117 23 -58 174 -16 174 49 0 12
-9 36 -20 54 -23 38 -59 42 -103 14z m74 -32 c23 -13 25 -43 4 -60 -8 -6 -32
-14 -54 -17 -32 -4 -42 -2 -47 11 -8 22 20 64 48 69 13 2 24 5 26 6 2 0 12 -4
23 -9z"/>
<path d="M11750 8715 c-14 -7 -34 -12 -45 -10 -16 4 -26 -8 -52 -61 -27 -56
-30 -66 -16 -71 9 -4 19 1 25 11 33 59 128 135 128 102 0 -8 -9 -35 -20 -61
-21 -50 -26 -90 -11 -100 11 -6 23 10 27 39 2 12 13 47 24 79 16 46 18 62 9
73 -14 18 -37 17 -69 -1z"/>
<path d="M11955 8716 c-41 -18 -85 -71 -85 -103 0 -15 14 -39 35 -60 34 -34
38 -35 94 -31 60 4 100 23 83 40 -5 5 -20 4 -36 -2 -50 -18 -95 -12 -124 17
l-27 28 47 6 c69 10 122 39 126 68 2 13 0 27 -5 31 -16 16 -78 20 -108 6z m75
-40 c-18 -16 -75 -36 -104 -36 -19 1 -18 3 9 25 21 17 42 25 70 25 34 0 37 -2
25 -14z"/>
<path d="M2678 8704 c-26 -14 -58 -60 -58 -83 0 -6 11 -17 23 -26 21 -14 28
-14 66 0 45 15 61 13 61 -9 0 -7 9 -21 20 -31 16 -14 23 -16 32 -7 9 9 8 15
-4 24 -24 19 -27 39 -11 77 21 52 1 61 -39 18 -34 -36 -71 -52 -104 -45 -15 3
-13 8 11 36 20 25 34 32 54 30 18 -2 27 2 29 15 4 22 -41 23 -80 1z"/>
<path d="M9728 8705 c-38 -21 -70 -77 -62 -110 10 -41 45 -52 88 -27 28 17 35
18 40 6 14 -35 32 3 53 110 5 26 3 28 -16 23 -11 -3 -24 -1 -27 4 -8 13 -45
10 -76 -6z m71 -29 c14 -17 -17 -59 -59 -81 -56 -29 -59 30 -4 74 31 24 47 26
63 7z"/>
<path d="M12852 8693 c-32 -6 -102 -76 -102 -101 0 -11 10 -33 23 -48 20 -22
32 -27 80 -28 71 -1 75 17 5 26 -32 4 -57 13 -65 24 -16 22 -10 28 42 44 56
17 85 37 85 59 0 17 -21 33 -38 30 -4 -1 -17 -4 -30 -6z"/>
<path d="M5387 8563 c-10 -9 -9 -43 1 -43 12 0 32 23 32 37 0 14 -22 18 -33 6z"/>
<path d="M7687 8513 c-3 -10 -21 -54 -41 -98 -35 -80 -36 -80 -73 -80 -48 0
-54 -28 -8 -33 30 -3 31 -4 32 -56 1 -30 8 -67 17 -84 21 -41 117 -85 103 -47
-4 8 -2 17 3 20 4 3 11 -1 13 -7 3 -8 6 -6 6 5 1 18 -14 23 -23 8 -10 -15 -45
0 -66 27 -14 18 -20 40 -20 78 l0 54 93 1 c119 2 120 2 125 17 3 9 -3 13 -14
12 -11 -1 -56 -2 -101 -1 -60 1 -83 5 -83 14 0 7 16 45 35 86 19 40 35 79 35
87 0 20 -27 17 -33 -3z"/>
<path d="M10665 8468 c-15 -18 -37 -52 -48 -75 -20 -41 -23 -43 -66 -43 -26 0
-52 -4 -60 -9 -25 -16 -2 -29 44 -23 25 2 45 1 45 -4 0 -5 -7 -31 -15 -59 -18
-57 -13 -90 14 -105 22 -11 113 -2 105 11 -3 5 2 6 10 3 11 -4 16 0 16 11 0
11 -6 15 -17 12 -61 -17 -92 -17 -101 -1 -11 20 2 89 25 123 13 21 20 23 64
18 37 -5 49 -3 49 7 0 17 -22 26 -61 26 -16 0 -29 3 -29 6 0 12 24 51 52 82
26 30 30 52 8 52 -4 0 -20 -14 -35 -32z"/>
<path d="M10867 8468 c-2 -18 -21 -80 -41 -137 -20 -57 -37 -117 -39 -133 -3
-38 20 -48 32 -15 13 33 115 137 135 137 22 0 20 -10 -9 -77 -25 -56 -30 -110
-10 -106 5 1 13 15 16 30 4 15 16 50 28 76 25 59 27 93 4 106 -21 11 -84 -18
-119 -56 -31 -34 -30 -20 5 72 37 95 42 129 20 133 -12 2 -18 -6 -22 -30z"/>
<path d="M14067 8453 c-16 -28 -82 -208 -93 -253 -16 -67 -18 -120 -4 -120 12
0 13 4 30 90 10 58 63 205 90 253 11 18 6 37 -10 37 -5 0 -11 -3 -13 -7z"/>
<path d="M4906 8441 c-3 -4 -1 -23 4 -42 21 -74 4 -153 -46 -205 -33 -35 -88
-47 -97 -21 -12 33 56 109 92 102 17 -3 21 0 19 13 -8 43 -87 10 -124 -54 -22
-38 -25 -49 -15 -70 18 -41 51 -49 105 -26 40 18 50 29 76 84 31 64 35 99 24
182 -6 43 -24 60 -38 37z"/>
<path d="M8927 8433 c-4 -3 -7 -23 -7 -43 0 -38 -30 -104 -89 -197 -31 -49
-36 -83 -11 -83 5 0 42 29 81 65 39 36 79 65 90 65 10 0 19 -1 19 -2 0 -2 -7
-25 -15 -52 -18 -60 -19 -86 -2 -86 15 0 51 129 42 152 -16 41 -63 29 -132
-34 -42 -38 -45 -39 -28 -13 42 66 64 112 73 153 13 58 2 98 -21 75z"/>
<path d="M3269 8311 c-40 -39 -49 -55 -49 -83 0 -19 5 -39 12 -46 17 -17 58
-15 78 3 16 14 18 13 23 -15 5 -21 12 -30 27 -30 22 0 27 15 9 26 -21 13 12
124 38 124 7 0 13 4 13 9 0 16 -61 61 -82 61 -12 0 -43 -22 -69 -49z m91 -3
c0 -40 -62 -108 -99 -108 -21 0 -11 48 16 80 37 44 83 60 83 28z"/>
<path d="M4509 8301 c-70 -73 -78 -145 -19 -176 50 -26 190 3 190 40 0 18 -4
19 -38 1 -45 -22 -116 -27 -140 -10 -30 21 -29 54 1 54 32 0 124 56 132 80 9
28 -20 60 -53 60 -18 0 -41 -16 -73 -49z m95 10 c3 -5 0 -13 -7 -19 -23 -19
-89 -53 -94 -48 -2 2 12 20 32 40 35 35 59 45 69 27z"/>
<path d="M5272 8328 c-54 -26 -74 -63 -70 -130 2 -42 8 -55 30 -71 25 -19 32
-19 82 -8 59 13 136 62 136 86 0 24 -36 17 -54 -10 -21 -32 -115 -61 -146 -45
-13 7 -20 21 -20 41 0 19 4 28 11 24 30 -19 119 40 119 80 0 22 -23 56 -38 55
-4 -1 -26 -10 -50 -22z m58 -33 c0 -16 -59 -57 -74 -52 -22 7 -15 28 16 47 39
24 58 25 58 5z"/>
<path d="M3510 8324 c0 -9 -8 -28 -19 -42 -27 -40 -61 -109 -61 -127 0 -30 27
-14 105 65 44 44 83 80 86 80 4 0 3 -16 -2 -35 -6 -20 -9 -52 -7 -73 3 -37 4
-37 50 -40 44 -3 48 -1 54 23 8 33 -4 46 -20 22 -7 -9 -23 -17 -35 -17 -25 0
-26 15 -9 89 21 93 -15 94 -107 3 -55 -54 -57 -49 -8 23 19 28 16 45 -7 45
-12 0 -20 -7 -20 -16z"/>
<path d="M11170 8323 c-65 -43 -110 -100 -110 -141 0 -10 10 -28 23 -40 23
-22 50 -27 125 -24 33 2 42 6 42 20 0 16 -6 18 -47 13 -65 -8 -91 -3 -103 19
-16 30 -4 43 70 78 67 31 98 61 85 82 -9 15 -57 11 -85 -7z"/>
<path d="M11903 8325 c-49 -21 -57 -45 -33 -104 21 -54 18 -76 -11 -92 -27
-14 -63 6 -56 32 3 10 0 22 -5 26 -7 4 -8 1 -3 -7 6 -10 4 -12 -8 -7 -29 11
-21 -38 9 -62 33 -26 64 -27 91 -1 32 30 36 56 17 111 -20 56 -13 72 38 84 21
5 29 2 38 -14 13 -26 30 -27 30 -3 0 24 -31 52 -56 52 -10 -1 -33 -7 -51 -15z"/>
<path d="M8640 8317 c-43 -22 -38 -58 14 -104 26 -22 46 -45 46 -52 0 -6 -14
-18 -30 -26 -39 -20 -100 -11 -108 17 -6 24 -26 18 -30 -10 -4 -25 21 -40 80
-48 35 -5 50 -1 78 18 53 36 52 67 -4 114 -25 21 -46 44 -46 50 0 17 49 27 66
13 22 -18 42 4 24 26 -15 18 -56 19 -90 2z"/>
<path d="M14395 8290 c-21 -16 -41 -30 -45 -30 -11 0 -40 -87 -40 -117 0 -14
6 -23 15 -23 8 0 15 7 15 15 0 27 48 112 76 134 36 28 69 26 101 -5 19 -19 28
-23 37 -14 8 8 3 19 -22 41 -43 39 -87 39 -137 -1z"/>
<path d="M6248 8284 c-67 -48 -75 -124 -18 -179 25 -24 41 -30 93 -33 66 -4
128 7 134 25 3 7 -27 10 -91 9 -107 -1 -130 10 -142 72 -6 28 -2 37 30 67 41
39 78 45 108 18 15 -13 21 -14 31 -4 9 10 7 16 -12 32 -33 27 -88 25 -133 -7z"/>
<path d="M12752 8281 c-76 -55 -92 -122 -43 -172 24 -23 38 -29 73 -29 82 0
190 43 174 69 -5 8 -12 9 -19 3 -19 -15 -117 -42 -154 -42 -35 0 -77 32 -70
53 2 7 19 16 39 22 19 5 47 18 62 28 23 15 27 24 24 55 -4 49 -30 53 -86 13z
m43 -41 c-18 -20 -66 -33 -59 -16 3 6 19 21 37 34 35 24 50 13 22 -18z"/>
<path d="M5043 8290 c-69 -15 -123 -72 -103 -109 10 -20 23 -26 45 -21 6 1 20
3 32 5 13 1 30 8 39 16 15 12 15 7 9 -56 -4 -39 -9 -72 -12 -75 -2 -2 -21 -3
-41 -1 -57 4 -92 -28 -92 -82 0 -47 27 -99 60 -117 43 -23 100 46 100 119 l0
30 50 -6 c41 -5 50 -3 50 9 0 11 -15 17 -48 22 l-48 6 7 53 c12 86 10 193 -3
204 -7 5 -28 7 -45 3z m6 -59 c-10 -29 -44 -51 -66 -44 -23 8 -14 33 20 53 46
29 58 26 46 -9z m-15 -217 c35 -13 3 -134 -35 -134 -23 0 -49 48 -49 89 0 41
39 62 84 45z"/>
<path d="M9385 8278 c-15 -12 -43 -54 -61 -92 -31 -67 -34 -86 -14 -86 12 0
56 77 64 112 8 37 48 62 85 55 34 -7 45 1 30 20 -17 20 -73 16 -104 -9z"/>
<path d="M12380 8282 c-28 -12 -44 -32 -73 -85 -35 -64 -39 -87 -16 -87 5 0
22 24 39 53 60 107 115 137 75 40 -8 -19 -15 -39 -15 -44 0 -11 37 -12 42 -1
7 15 119 105 124 99 4 -3 1 -20 -5 -38 -6 -18 -11 -45 -11 -61 0 -50 73 -65
88 -18 3 9 -3 11 -22 8 -36 -7 -41 8 -22 71 27 92 -5 107 -85 40 l-49 -41 0
35 c0 23 -6 37 -16 41 -9 3 -16 6 -17 5 -1 0 -18 -8 -37 -17z"/>
<path d="M13555 8277 c-49 -27 -88 -82 -79 -111 14 -49 85 -77 153 -60 53 13
39 30 -22 26 -41 -3 -59 1 -77 16 -21 17 -23 24 -15 48 15 41 88 80 120 66 29
-13 43 1 25 23 -18 21 -59 18 -105 -8z"/>
<path d="M14162 8283 c-12 -10 -33 -26 -47 -36 -19 -14 -25 -27 -25 -57 0 -50
32 -76 84 -66 98 19 127 119 46 161 -36 18 -33 19 -58 -2z m67 -47 c19 -23 -3
-62 -42 -75 -45 -15 -67 -6 -67 29 0 47 80 81 109 46z"/>
<path d="M6531 8255 c-32 -37 -39 -72 -21 -106 13 -23 59 -25 100 -4 29 15 29
15 32 -17 2 -20 9 -34 18 -36 12 -2 16 10 17 60 1 35 3 77 5 93 2 23 -1 30
-14 30 -9 0 -20 4 -24 8 -4 4 -24 7 -45 7 -30 0 -43 -7 -68 -35z m108 -4 c12
-8 12 -13 -2 -35 -22 -33 -61 -59 -84 -54 -47 9 -6 98 45 98 15 0 33 -4 41 -9z"/>
<path d="M6878 8278 c-8 -7 -23 -18 -35 -25 -17 -10 -22 -9 -27 2 -3 8 -9 15
-13 15 -9 0 -63 -128 -63 -147 0 -27 27 -11 69 41 23 30 51 62 62 72 19 17 19
16 13 -42 -6 -52 -4 -61 15 -78 16 -15 24 -17 33 -8 9 9 7 15 -7 26 -17 12
-18 19 -8 72 10 57 5 84 -18 84 -4 0 -14 -6 -21 -12z"/>
<path d="M7087 8250 c-38 -34 -43 -37 -43 -18 1 32 -22 33 -29 1 -3 -15 -10
-41 -15 -58 -7 -19 -6 -33 0 -39 7 -7 30 10 73 54 l62 65 5 -75 c4 -56 9 -75
19 -75 20 0 20 163 0 176 -22 14 -27 11 -72 -31z"/>
<path d="M9582 8268 c-95 -46 -96 -151 -2 -179 32 -10 48 -9 92 5 63 19 118
51 118 67 0 13 -13 10 -98 -26 -70 -29 -108 -27 -138 6 -9 10 -15 21 -13 23 2
2 32 16 67 31 44 20 64 34 68 51 12 48 -23 57 -94 22z m68 -13 c0 -5 -75 -45
-85 -45 -15 0 9 22 38 34 35 16 47 18 47 11z"/>
<path d="M12115 8275 c-63 -33 -96 -105 -60 -135 9 -8 30 -11 54 -7 37 5 40 3
50 -25 14 -40 37 -32 33 12 -3 20 5 53 19 83 l23 49 -24 19 c-30 23 -55 24
-95 4z m71 -29 c8 -21 -13 -54 -46 -71 -66 -34 -95 -2 -42 47 41 39 79 49 88
24z"/>
<path d="M9125 8262 c-85 -52 -66 -140 25 -115 40 10 41 10 36 -11 -6 -24 20
-70 34 -61 5 3 7 19 4 35 -4 19 1 44 16 74 26 54 17 82 -14 44 -38 -46 -126
-77 -126 -44 0 8 14 26 32 41 25 21 38 25 65 20 34 -6 42 2 21 23 -17 17 -59
15 -93 -6z"/>
<path d="M7288 8224 c-87 -104 -3 -186 100 -98 50 43 57 86 19 122 -38 36 -76
28 -119 -24z m100 4 c22 -22 13 -56 -22 -83 -73 -55 -117 -4 -53 60 37 37 55
43 75 23z"/>
<path d="M13774 8240 c-60 -34 -71 -53 -48 -88 15 -22 21 -24 72 -20 42 4 60
10 74 28 25 31 23 75 -4 94 -30 21 -35 21 -94 -14z m86 -29 c0 -25 -37 -51
-72 -51 -40 0 -45 20 -12 47 37 29 84 31 84 4z"/>
<path d="M14521 8121 c-15 -10 -8 -41 9 -41 15 0 25 29 14 40 -5 5 -15 5 -23
1z"/>
</g>
</svg>
