<?xml version="1.0" standalone="no"?>
<!DOCTYPE svg PUBLIC "-//W3C//DTD SVG 20010904//EN"
 "http://www.w3.org/TR/2001/REC-SVG-20010904/DTD/svg10.dtd">
<svg version="1.0" xmlns="http://www.w3.org/2000/svg"
 width="1618.000000pt" height="1214.000000pt" viewBox="0 0 1618.000000 1214.000000"
 preserveAspectRatio="xMidYMid meet">

<g transform="translate(0.000000,1214.000000) scale(0.100000,-0.100000)"
fill="#000000" stroke="none">
<path d="M12763 11743 c-21 -38 -41 -76 -46 -87 -5 -12 -13 -16 -25 -11 -53
22 -87 17 -130 -17 -60 -48 -94 -103 -100 -159 -4 -41 0 -53 28 -93 19 -25 37
-46 42 -46 15 0 8 -19 -37 -112 -48 -99 -53 -119 -31 -137 16 -14 29 -1 21 21
-3 7 15 55 39 105 l44 91 48 -16 c44 -14 51 -14 98 2 57 21 135 86 154 129 33
79 -5 177 -77 197 -22 6 -43 15 -46 21 -9 14 67 138 81 132 18 -7 27 16 14 32
-22 27 -38 16 -77 -52z m-86 -139 c9 -13 2 -34 -40 -113 -29 -54 -59 -108 -68
-121 l-16 -24 -31 43 c-18 24 -32 55 -32 68 0 66 101 179 150 168 14 -4 30
-13 37 -21z m86 -35 c50 -12 77 -50 77 -110 0 -50 -50 -108 -120 -138 -43 -19
-56 -20 -90 -11 -22 6 -40 16 -40 23 0 7 27 61 60 121 33 61 60 114 60 118 0
10 3 10 53 -3z"/>
<path d="M5704 11725 c-4 -8 -14 -15 -23 -15 -33 0 -95 -28 -129 -58 -33 -30
-34 -34 -30 -85 3 -40 13 -65 36 -98 18 -24 44 -61 59 -82 l26 -38 -24 -26
c-36 -39 -104 -66 -146 -58 -32 6 -34 8 -28 36 5 22 3 29 -9 29 -8 0 -20 -9
-26 -21 -14 -25 8 -64 41 -74 58 -19 186 36 211 90 14 32 6 50 -61 138 -61 81
-68 127 -26 167 22 21 84 49 108 50 4 0 5 -22 1 -50 -5 -41 -4 -51 10 -56 27
-10 56 24 56 67 0 21 -5 41 -10 44 -6 4 -10 12 -9 18 4 37 -16 53 -27 22z"/>
<path d="M6401 11688 c-5 -13 -19 -56 -32 -96 l-23 -73 -41 7 c-62 11 -80 10
-80 -5 0 -8 9 -15 20 -17 11 -2 34 -5 52 -9 l31 -6 -19 -54 c-24 -70 -24 -110
1 -135 17 -17 33 -20 99 -20 44 0 92 4 106 10 49 19 16 29 -75 23 -128 -8
-141 10 -94 132 l16 44 62 3 c44 2 62 7 64 18 2 12 -8 14 -53 12 -30 -2 -55
-2 -55 1 0 3 14 44 30 90 35 99 35 97 15 97 -9 0 -19 -10 -24 -22z"/>
<path d="M15000 11695 c0 -27 -60 -135 -75 -135 -8 0 -18 7 -23 16 -24 42
-129 -36 -152 -113 -15 -49 -7 -86 24 -118 l23 -23 -33 -55 c-34 -59 -82 -193
-72 -203 13 -13 27 8 48 74 12 37 36 91 53 120 28 46 36 52 65 52 62 0 139 54
161 113 18 47 13 77 -18 106 l-29 28 34 67 c19 38 31 72 28 77 -9 15 -34 10
-34 -6z m-93 -163 c15 -10 -85 -182 -103 -175 -24 9 -37 59 -24 97 18 56 47
86 83 86 18 0 37 -4 44 -8z m78 -29 c26 -25 12 -72 -34 -115 -37 -35 -85 -57
-98 -45 -4 5 24 58 84 155 16 26 26 28 48 5z"/>
<path d="M2811 11667 c-11 -11 -179 -14 -209 -3 -21 8 -23 6 -20 -15 3 -23 6
-24 83 -24 44 0 101 3 127 7 l47 8 -6 -33 c-3 -17 -20 -79 -38 -137 -18 -58
-36 -121 -40 -140 -4 -19 -12 -41 -17 -47 -15 -19 -160 -17 -205 2 -44 19 -53
19 -53 1 0 -8 18 -21 40 -30 33 -13 75 -16 230 -14 105 2 190 6 190 11 0 14
-51 27 -107 27 l-55 0 7 42 c4 23 16 67 27 97 10 31 28 91 38 135 11 43 21 80
23 82 2 3 54 5 116 6 101 1 134 8 117 25 -10 10 -285 10 -295 0z"/>
<path d="M13011 11667 c-6 -8 -8 -16 -5 -20 3 -3 -6 -39 -22 -79 -68 -181 -95
-271 -86 -280 14 -14 32 -1 32 22 0 10 14 56 30 102 65 177 80 222 80 245 0
26 -12 30 -29 10z"/>
<path d="M13560 11661 c-52 -28 -97 -78 -83 -92 9 -9 20 -3 45 21 30 30 83 60
107 60 16 0 -14 -85 -49 -140 -35 -54 -74 -91 -173 -163 -60 -44 -85 -77 -56
-77 16 0 94 48 114 70 25 27 35 25 35 -8 0 -42 21 -64 55 -60 25 2 30 7 27 27
-3 32 -9 38 -24 23 -19 -19 -28 -14 -28 17 0 17 -5 33 -11 36 -6 4 11 29 41
61 57 61 99 142 103 200 2 38 1 39 -33 41 -19 2 -51 -6 -70 -16z"/>
<path d="M15480 11670 c0 -6 7 -22 16 -35 12 -19 22 -23 40 -19 15 4 24 2 24
-5 0 -19 -62 -77 -111 -104 -50 -28 -69 -23 -69 19 0 28 13 37 63 44 42 6 51
17 25 33 -13 9 -29 6 -65 -9 -44 -18 -48 -22 -51 -58 -2 -21 1 -43 7 -49 18
-18 13 -26 -39 -58 -76 -47 -67 -86 27 -122 39 -15 43 -15 59 0 13 13 15 30
12 81 l-4 64 53 30 c29 16 66 42 82 57 53 50 50 111 -6 111 -13 0 -26 7 -29
15 -7 17 -34 21 -34 5z m-90 -290 c0 -21 -4 -42 -10 -45 -12 -7 -80 23 -80 36
0 12 73 58 83 52 4 -2 7 -22 7 -43z"/>
<path d="M13883 11629 c-74 -80 -133 -194 -133 -257 0 -82 83 -97 158 -29 62
57 -8 114 -88 72 -26 -14 -30 -14 -30 -1 0 40 84 173 130 208 17 12 30 28 30
35 0 25 -29 13 -67 -28z m11 -237 c11 -18 -45 -62 -80 -62 -25 0 -39 25 -21
37 43 28 91 40 101 25z"/>
<path d="M15211 11652 c-5 -10 -9 -32 -9 -49 1 -19 -20 -70 -56 -137 -56 -105
-64 -130 -47 -140 14 -9 141 257 144 300 2 41 -16 56 -32 26z"/>
<path d="M4052 11576 c-38 -79 -43 -85 -74 -88 -36 -3 -37 -23 -2 -23 l22 1
-19 -49 c-39 -98 -18 -137 72 -137 67 0 99 8 99 25 0 10 -17 12 -75 8 -91 -7
-99 3 -69 86 l20 56 65 8 c68 8 86 18 74 37 -5 9 -24 11 -61 6 l-53 -6 16 37
c8 21 22 47 29 58 16 22 18 51 5 59 -5 3 -27 -32 -49 -78z"/>
<path d="M14556 11608 c-63 -24 -110 -58 -98 -70 5 -5 28 1 58 17 64 33 114
43 114 23 0 -26 -66 -102 -135 -153 -154 -116 -165 -126 -165 -145 0 -30 13
-25 78 29 32 27 73 52 91 56 31 7 33 6 25 -16 -5 -13 -9 -42 -9 -64 0 -38 2
-40 33 -43 27 -3 32 0 32 18 0 17 -4 20 -21 15 -20 -7 -21 -4 -15 21 20 89 19
93 -3 102 -21 8 -21 8 9 30 49 37 110 120 110 152 0 41 -40 52 -104 28z"/>
<path d="M4374 11519 c-7 -12 26 -40 41 -35 6 1 10 9 10 16 0 17 -42 33 -51
19z"/>
<path d="M1906 11499 c-38 -30 -30 -79 14 -79 15 0 40 55 40 89 0 17 -25 13
-54 -10z"/>
<path d="M3297 11465 c-46 -32 -47 -53 -5 -101 41 -46 30 -70 -31 -67 -28 1
-41 -2 -41 -12 0 -30 81 -34 110 -5 29 29 25 64 -12 105 -34 40 -34 39 25 71
15 8 25 19 22 24 -10 16 -28 12 -68 -15z"/>
<path d="M5859 11465 c-36 -19 -79 -85 -79 -121 0 -44 30 -68 76 -61 68 11 95
63 72 139 -14 48 -34 61 -69 43z m39 -57 c12 -44 -4 -87 -34 -94 -60 -15 -73
34 -23 91 17 19 35 35 40 35 5 0 12 -15 17 -32z"/>
<path d="M6042 11452 c-56 -52 -95 -162 -57 -162 8 0 15 9 15 20 0 46 67 140
100 140 9 0 21 -5 27 -11 16 -16 28 8 13 26 -20 24 -65 18 -98 -13z"/>
<path d="M3789 11461 c-14 -5 -37 -16 -51 -25 -32 -21 -71 -100 -63 -127 10
-31 29 -17 38 28 9 48 38 77 92 95 60 20 44 47 -16 29z"/>
<path d="M3484 11441 c-103 -63 -97 -171 10 -171 53 0 108 18 103 34 -2 6 -13
10 -23 8 -86 -14 -110 -13 -123 1 -21 26 -10 49 26 52 64 5 103 51 71 83 -16
16 -28 15 -64 -7z m31 -31 c-3 -5 -14 -10 -23 -10 -15 0 -15 2 -2 10 20 13 33
13 25 0z"/>
<path d="M6843 11434 c-7 -18 6 -45 25 -52 14 -4 35 35 28 54 -7 19 -45 18
-53 -2z"/>
<path d="M3035 11398 c-4 -24 -14 -55 -21 -70 -17 -34 -17 -35 2 -42 11 -4 19
4 29 28 22 52 63 96 91 96 27 0 30 -14 14 -70 -11 -38 3 -67 20 -40 16 26 23
110 10 125 -15 18 -71 20 -88 3 -9 -9 -15 -9 -24 0 -20 20 -26 14 -33 -30z"/>
<path d="M4521 11404 c-28 -36 -28 -90 0 -104 48 -26 105 31 97 96 -3 25 -8
29 -39 32 -30 3 -41 -2 -58 -24z m67 -27 c4 -19 -35 -60 -48 -52 -15 9 -12 36
7 57 19 21 37 19 41 -5z"/>
<path d="M4339 11418 c0 -2 -2 -15 -4 -29 -2 -15 -11 -41 -19 -57 -19 -37 -21
-62 -3 -62 13 0 57 99 57 130 0 11 -7 20 -15 20 -8 0 -15 -1 -16 -2z"/>
<path d="M4719 11418 c0 -2 -2 -14 -5 -27 -2 -13 -13 -44 -24 -69 -37 -82 -20
-84 56 -4 54 56 55 57 53 27 -3 -73 13 -95 69 -95 34 1 72 18 72 33 0 4 -24 5
-52 4 l-53 -2 1 40 c1 22 5 52 9 68 6 22 4 27 -12 27 -10 0 -35 -14 -56 -31
l-37 -30 6 30 c5 24 3 31 -10 31 -9 0 -16 -1 -17 -2z"/>
<path d="M13004 11289 c-3 -6 -2 -15 4 -21 13 -13 32 -2 32 18 0 16 -26 19
-36 3z"/>
<path d="M14026 11292 c-10 -16 24 -37 41 -26 9 5 15 14 15 19 -2 13 -49 19
-56 7z"/>
<path d="M7906 10798 c-2 -7 -9 -43 -16 -81 -20 -111 -45 -182 -66 -185 -32
-6 -41 -22 -15 -29 24 -6 24 -9 5 -106 -5 -24 -3 -28 13 -25 12 2 19 13 21 33
2 17 8 47 13 67 8 32 15 39 49 48 39 10 50 23 31 34 -5 4 -21 2 -35 -4 -32
-12 -32 -11 -2 92 34 121 40 168 21 168 -9 0 -17 -6 -19 -12z"/>
<path d="M10885 10753 c-12 -65 -74 -241 -110 -313 -19 -38 -35 -76 -35 -85 0
-30 26 -14 60 36 37 54 96 107 107 95 4 -3 1 -29 -6 -57 -22 -86 9 -80 34 6
12 41 13 59 5 75 -14 26 -29 25 -73 -4 l-35 -24 38 111 c47 138 58 197 37 197
-9 0 -17 -14 -22 -37z"/>
<path d="M5920 10759 c-7 -11 -9 -26 -7 -33 5 -12 -43 -192 -58 -215 -4 -8
-29 -11 -69 -10 -47 2 -61 0 -61 -12 0 -10 16 -15 57 -17 60 -3 66 -13 31 -53
-7 -9 -10 -18 -7 -22 12 -12 45 14 55 42 11 30 45 51 84 51 34 0 55 10 55 27
0 11 -7 14 -22 10 -13 -3 -37 -8 -54 -12 l-32 -6 34 118 c18 65 33 126 34 136
0 24 -27 21 -40 -4z"/>
<path d="M9590 10761 c0 -5 4 -12 9 -15 13 -9 -14 -115 -54 -217 -19 -48 -35
-90 -35 -94 0 -4 -7 -23 -17 -42 -14 -30 -14 -36 -2 -44 24 -15 32 -5 45 52 7
30 32 109 56 177 37 105 41 124 28 132 -13 8 -12 10 3 10 28 0 18 44 -10 48
-13 2 -23 -1 -23 -7z"/>
<path d="M10700 10732 c0 -21 -11 -74 -24 -118 -25 -86 -38 -96 -97 -75 -25 9
-29 8 -29 -8 0 -19 26 -31 68 -31 12 0 22 -2 22 -5 0 -24 -24 -105 -31 -105
-15 0 -10 -37 5 -43 22 -9 32 11 46 86 11 63 14 67 39 67 28 0 52 12 54 26 1
5 5 8 10 7 4 -2 7 8 7 22 0 30 -20 33 -27 5 -3 -11 -8 -20 -12 -20 -3 0 -16
-3 -28 -6 l-22 -6 23 78 c13 44 26 98 29 122 4 36 3 42 -14 42 -15 0 -19 -7
-19 -38z"/>
<path d="M12440 10731 c-7 -14 -7 -22 1 -26 12 -8 51 24 43 36 -9 15 -33 10
-44 -10z"/>
<path d="M2445 10711 c-12 -20 5 -29 70 -36 54 -5 65 -10 63 -23 -1 -10 1 -23
5 -29 5 -8 3 -11 -5 -8 -9 3 -26 -26 -50 -85 -21 -50 -38 -97 -38 -105 0 -12
-8 -14 -42 -8 -60 11 -132 10 -138 -1 -3 -6 33 -16 80 -23 144 -21 264 -15
253 13 -4 10 -19 12 -64 7 -41 -4 -59 -2 -59 6 0 6 20 59 45 117 25 57 45 109
45 113 0 14 28 21 78 21 46 0 82 13 71 25 -3 3 -66 7 -140 9 -74 2 -141 7
-150 10 -10 4 -20 3 -24 -3z"/>
<path d="M5160 10585 c0 -107 -10 -137 -60 -179 -59 -49 -91 -20 -45 40 19 25
32 33 46 29 27 -9 43 3 28 21 -21 25 -55 16 -93 -26 -75 -84 -23 -157 70 -99
19 11 46 41 60 65 22 38 26 57 26 122 0 42 4 82 10 89 6 8 3 15 -11 22 -11 6
-22 11 -25 11 -3 0 -6 -43 -6 -95z"/>
<path d="M8091 10666 c-10 -12 -8 -17 8 -25 22 -12 34 -1 25 23 -8 20 -18 20
-33 2z"/>
<path d="M10480 10656 c0 -10 9 -16 21 -16 24 0 21 23 -4 28 -10 2 -17 -3 -17
-12z"/>
<path d="M6063 10615 c-8 -22 -1 -26 35 -19 18 4 32 13 32 20 0 20 -59 18 -67
-1z"/>
<path d="M7166 10620 c-35 -11 -66 -38 -66 -58 0 -8 14 -37 31 -63 25 -39 28
-51 19 -68 -26 -49 -83 -47 -96 4 -5 21 -31 41 -41 31 -2 -2 -1 -15 3 -30 8
-32 58 -76 86 -76 25 0 88 62 88 87 0 11 -14 41 -32 68 -30 46 -31 48 -13 61
10 8 40 14 67 14 34 0 48 4 48 14 0 23 -44 31 -94 16z"/>
<path d="M7606 10588 c-18 -18 -40 -32 -48 -30 -11 2 -21 -19 -38 -82 -12 -47
-20 -93 -16 -102 4 -9 8 -15 11 -13 2 3 28 52 57 109 54 107 83 135 95 91 7
-26 33 -28 33 -3 0 25 -28 62 -47 62 -8 0 -30 -15 -47 -32z"/>
<path d="M10217 10539 c-33 -36 -47 -60 -47 -80 0 -15 -5 -40 -10 -55 -12 -30
0 -53 17 -32 6 7 18 36 27 63 20 63 52 115 69 115 8 0 22 -9 32 -20 22 -24 35
-26 35 -5 0 20 -44 65 -63 65 -8 0 -35 -23 -60 -51z"/>
<path d="M2822 10564 c-30 -21 -28 -43 13 -103 19 -28 35 -53 35 -55 0 -13
-74 -25 -92 -15 -19 10 -38 5 -38 -10 0 -16 57 -32 86 -25 42 9 74 32 74 51 0
9 -17 41 -37 70 -31 45 -35 56 -23 63 23 15 51 12 72 -7 14 -12 21 -14 30 -5
9 9 7 16 -7 32 -22 24 -81 27 -113 4z"/>
<path d="M12784 10567 c-29 -16 -71 -68 -84 -101 -15 -41 10 -93 54 -111 61
-26 183 -11 194 24 3 10 -3 11 -29 5 -19 -5 -59 -9 -90 -9 -66 0 -99 22 -99
66 0 25 2 27 38 23 67 -8 113 37 88 87 -13 28 -42 34 -72 16z m44 -39 c-3 -24
-51 -48 -65 -34 -9 8 41 56 58 56 6 0 9 -10 7 -22z"/>
<path d="M3549 10531 c-78 -78 -30 -132 71 -81 l40 20 0 -24 c0 -27 24 -56 46
-56 19 0 18 26 -1 34 -19 7 -19 45 0 70 11 15 12 23 3 33 -9 11 -14 11 -29 -3
-18 -16 -19 -16 -19 2 0 56 -58 58 -111 5z m79 -21 c-1 -23 -7 -31 -31 -40
-64 -22 -75 -6 -28 41 39 38 60 38 59 -1z"/>
<path d="M13757 10555 c-39 -20 -64 -52 -82 -105 -17 -50 -41 -90 -54 -90 -5
0 -12 21 -16 48 -8 58 -40 132 -56 132 -7 0 -9 -9 -6 -22 18 -67 39 -156 43
-175 12 -59 89 1 117 91 22 69 55 100 110 101 31 1 43 5 45 18 3 14 -4 17 -35
17 -21 0 -51 -7 -66 -15z"/>
<path d="M14165 10551 c-16 -10 -38 -27 -47 -37 -25 -28 -68 -119 -68 -143 0
-34 27 -24 40 15 35 106 101 170 149 145 18 -10 21 -9 21 8 0 35 -49 41 -95
12z"/>
<path d="M14490 10557 c0 -8 -11 -24 -25 -37 -26 -24 -82 -98 -204 -265 -70
-95 -121 -182 -121 -205 0 -25 20 -5 55 53 55 93 214 309 285 386 41 45 52 81
25 81 -8 0 -15 -6 -15 -13z"/>
<path d="M7301 10515 c-38 -54 -38 -89 1 -118 24 -18 32 -19 66 -9 110 33 107
144 -4 167 -27 5 -33 1 -63 -40z m104 -8 c46 -34 -33 -115 -85 -87 -26 14 -25
35 1 71 22 32 54 37 84 16z"/>
<path d="M11114 10530 c-34 -24 -43 -27 -48 -15 -3 8 -13 15 -21 15 -13 0 -15
-6 -10 -29 5 -23 -1 -39 -26 -74 -29 -41 -32 -67 -9 -67 5 0 17 14 25 31 17
31 96 113 127 130 15 8 15 5 6 -29 -6 -20 -17 -50 -25 -66 -11 -21 -12 -31 -3
-40 13 -12 20 -4 77 77 17 25 42 51 54 57 21 12 22 11 15 -26 -19 -105 -19
-113 -2 -120 22 -9 47 13 28 25 -10 6 -11 17 -2 53 26 100 -7 136 -72 79 l-34
-29 1 26 c0 39 -31 39 -81 2z"/>
<path d="M8415 10528 c-32 -17 -75 -66 -75 -86 0 -38 76 -55 116 -27 21 14 22
13 28 -32 8 -58 8 -147 0 -167 -5 -12 -16 -14 -50 -9 -57 8 -90 -13 -104 -68
-10 -36 -8 -46 12 -87 19 -39 28 -48 54 -50 41 -4 80 34 96 92 l12 46 22 -21
c14 -13 24 -17 28 -10 9 14 -9 47 -28 54 -12 5 -14 19 -9 71 3 36 0 121 -7
189 -12 122 -13 125 -37 123 -13 0 -39 -9 -58 -18z m52 -34 c6 -19 -38 -64
-62 -64 -38 0 -38 16 1 50 35 30 54 35 61 14z m-19 -320 c17 -5 22 -14 22 -38
0 -35 -32 -94 -57 -103 -42 -16 -72 90 -36 129 17 19 33 22 71 12z"/>
<path d="M9310 10531 c-54 -29 -73 -56 -74 -104 -1 -39 1 -42 27 -45 16 -2 39
4 53 13 24 15 26 15 43 -6 13 -16 23 -20 37 -15 19 7 19 8 0 21 -14 11 -17 21
-12 49 9 50 -6 52 -52 6 -37 -37 -72 -52 -72 -30 0 38 70 100 114 100 9 0 16
7 16 15 0 20 -37 18 -80 -4z"/>
<path d="M4727 10534 c-4 -4 -7 -18 -7 -30 0 -34 -20 -72 -48 -90 -22 -14 -26
-14 -40 0 -13 13 -14 21 -3 57 9 30 9 45 2 52 -17 17 -29 -3 -37 -59 -5 -45
-3 -55 15 -73 27 -27 51 -27 85 0 33 26 53 64 58 108 3 32 -10 50 -25 35z"/>
<path d="M5336 10510 c-14 -17 -26 -36 -26 -41 0 -6 -8 -8 -19 -4 -15 4 -20
-1 -25 -26 -18 -90 8 -107 44 -28 34 71 66 105 86 88 19 -16 31 -3 18 19 -19
29 -49 26 -78 -8z"/>
<path d="M8211 10513 c-15 -16 -35 -27 -44 -25 -12 2 -17 -4 -17 -20 0 -13 -7
-32 -15 -42 -8 -11 -15 -28 -15 -38 0 -33 25 -19 55 31 16 28 41 59 56 70 24
18 29 18 39 6 7 -9 10 -26 6 -42 -12 -50 -11 -57 5 -61 9 -1 16 3 17 10 1 7 5
30 8 51 7 44 -16 87 -47 87 -11 0 -33 -12 -48 -27z"/>
<path d="M9667 10514 c-30 -29 -45 -89 -30 -113 13 -20 50 -26 69 -11 12 11
14 7 14 -22 0 -19 -7 -57 -15 -84 l-14 -49 -43 3 c-55 5 -78 -19 -85 -82 -6
-52 15 -96 46 -96 23 0 63 46 87 100 10 22 20 36 23 31 3 -5 17 -11 31 -12 31
-5 35 24 5 29 -33 6 -35 15 -20 72 8 30 17 84 19 120 3 36 8 77 12 92 5 24 1
29 -21 38 -39 15 -50 13 -78 -16z m56 -18 c8 -21 -25 -80 -47 -84 -16 -4 -18
0 -12 29 6 32 31 69 46 69 5 0 10 -6 13 -14z m-56 -294 c10 -6 8 -18 -8 -49
-27 -54 -47 -72 -60 -52 -12 18 -11 51 1 83 10 26 41 35 67 18z"/>
<path d="M13857 10509 c-101 -67 -75 -169 45 -169 60 0 106 16 90 32 -8 8 -21
9 -44 2 -41 -13 -98 -1 -115 23 -13 16 -11 19 22 25 49 11 92 34 105 58 8 15
6 24 -10 40 -27 27 -38 25 -93 -11z m73 -18 c0 -8 -65 -41 -81 -41 -16 0 1 20
34 40 29 18 47 18 47 1z"/>
<path d="M4385 10514 c-64 -33 -97 -82 -75 -109 17 -21 49 -19 88 5 18 11 35
20 38 20 17 0 -27 -182 -67 -279 -24 -57 -28 -76 -19 -85 9 -8 14 -7 18 4 3 8
26 36 52 63 44 44 68 54 117 48 18 -2 27 20 12 30 -20 12 -79 1 -111 -22 l-28
-19 10 22 c16 39 39 140 46 208 4 36 11 71 17 78 7 9 4 18 -8 32 -22 24 -50
25 -90 4z m55 -22 c0 -21 -86 -80 -98 -67 -11 10 12 37 48 57 38 20 50 22 50
10z"/>
<path d="M6173 10510 c-48 -21 -85 -72 -81 -110 2 -15 15 -31 37 -44 31 -18
41 -19 106 -9 51 7 79 17 94 32 11 11 21 23 21 26 0 10 -31 5 -53 -9 -48 -30
-177 -27 -177 5 0 49 91 111 135 91 31 -14 46 5 20 25 -25 18 -52 16 -102 -7z"/>
<path d="M8026 10513 c-2 -10 -8 -37 -11 -60 -4 -24 -14 -47 -23 -52 -14 -8
-14 -13 -4 -36 7 -14 16 -24 21 -21 16 10 41 98 41 143 0 43 -14 59 -24 26z"/>
<path d="M12325 10522 c-14 -10 -35 -59 -35 -82 0 -32 45 -46 86 -28 36 17 29
32 -11 25 -43 -7 -51 5 -28 43 17 30 9 57 -12 42z"/>
<path d="M9915 10487 c-42 -42 -45 -74 -10 -107 55 -52 145 -14 145 62 0 41
-19 60 -72 73 -23 6 -34 1 -63 -28z m89 -13 c19 -7 21 -55 4 -72 -27 -27 -98
-9 -98 25 0 35 54 62 94 47z"/>
<path d="M4817 10486 c-32 -29 -44 -71 -27 -91 17 -20 39 -19 78 5 30 18 32
19 32 2 0 -19 18 -42 32 -42 14 0 -4 112 -21 132 -22 25 -63 23 -94 -6z m58
-16 c4 -6 12 -7 18 -3 7 4 6 -1 -2 -11 -13 -16 -62 -46 -76 -46 -11 0 -4 18
16 44 22 28 34 32 44 16z"/>
<path d="M5481 10484 c-57 -47 -33 -95 36 -75 30 9 32 7 35 -17 2 -19 10 -28
26 -30 24 -4 29 7 11 25 -8 8 -8 22 0 49 10 35 9 41 -10 57 -30 24 -62 21 -98
-9z m78 -13 c16 -10 8 -16 -41 -29 -42 -12 -49 -1 -16 22 25 18 37 19 57 7z"/>
<path d="M6001 10483 c-9 -18 -14 -54 -12 -82 2 -24 31 8 31 35 0 12 4 25 10
29 11 6 2 35 -11 35 -4 0 -12 -8 -18 -17z"/>
<path d="M10406 10444 c-14 -33 -16 -48 -7 -57 12 -12 11 -14 34 36 20 45 22
67 5 67 -7 0 -21 -21 -32 -46z"/>
<path d="M14254 10434 c8 -54 38 -96 57 -77 7 7 6 14 -3 24 -8 8 -18 32 -23
53 -6 22 -16 42 -24 44 -11 4 -12 -5 -7 -44z"/>
<path d="M12534 10425 c-14 -10 -16 -17 -8 -25 13 -13 44 -3 44 15 0 21 -15
26 -36 10z"/>
<path d="M2650 10420 c0 -5 5 -10 11 -10 5 0 7 5 4 10 -3 6 -8 10 -11 10 -2 0
-4 -4 -4 -10z"/>
<path d="M11708 10343 c-14 -27 -31 -47 -38 -45 -18 4 -40 -18 -40 -39 0 -38
48 -16 90 43 28 39 40 88 21 88 -4 0 -20 -21 -33 -47z"/>
<path d="M4162 10273 c-11 -27 -25 -67 -31 -90 l-12 -43 -49 0 c-38 0 -50 -4
-50 -15 0 -11 12 -15 44 -15 l44 0 -1 -72 c-1 -112 38 -168 115 -168 42 0 46
6 23 36 -12 15 -16 16 -24 5 -12 -19 -46 -6 -67 27 -17 27 -25 137 -10 160 3
5 32 12 65 16 48 6 61 11 66 27 8 26 0 35 -18 20 -8 -6 -35 -14 -60 -17 l-47
-7 16 54 c9 30 23 67 30 82 14 27 12 47 -5 47 -5 0 -18 -21 -29 -47z"/>
<path d="M2656 10270 c-30 -36 -44 -81 -52 -172 -4 -38 -12 -69 -18 -69 -6 -1
-17 -2 -25 -3 -28 -2 -23 -26 6 -26 27 0 28 -1 28 -54 0 -30 3 -57 7 -61 16
-16 28 10 28 60 0 54 0 54 35 61 45 8 40 30 -5 26 l-33 -2 7 70 c7 81 30 146
57 160 25 14 28 13 39 -16 6 -14 14 -22 20 -19 15 9 12 42 -6 59 -24 25 -59
19 -88 -14z"/>
<path d="M2869 10243 c-41 -35 -57 -75 -65 -162 -6 -66 -9 -71 -30 -71 -13 0
-24 -4 -24 -10 0 -13 32 -28 48 -23 8 3 12 -8 12 -35 0 -36 19 -70 32 -57 3 3
3 25 1 49 l-5 43 45 11 c24 7 48 19 51 28 7 17 -4 17 -79 -2 l-28 -7 7 74 c8
80 24 120 58 143 30 21 78 20 94 -1 12 -17 13 -17 19 0 20 51 -80 66 -136 20z"/>
<path d="M7090 10240 c0 -16 -14 -61 -31 -99 -30 -66 -33 -70 -68 -73 -24 -2
-36 -8 -36 -18 0 -11 9 -14 32 -12 l33 3 -16 -38 c-9 -21 -21 -41 -27 -44 -5
-4 -7 -15 -3 -24 11 -31 37 -11 56 44 10 29 23 57 30 61 7 4 38 11 70 14 32 4
63 13 70 21 16 19 -2 26 -41 15 -31 -9 -89 -14 -89 -7 0 1 11 29 25 62 28 69
33 125 10 125 -10 0 -15 -10 -15 -30z"/>
<path d="M11190 10208 c-6 -24 -29 -90 -51 -148 -48 -123 -58 -165 -38 -158 8
2 35 60 61 129 73 192 79 219 54 219 -10 0 -19 -16 -26 -42z"/>
<path d="M13119 10193 c-37 -62 -46 -69 -102 -78 -21 -3 -41 -13 -44 -21 -8
-22 0 -25 36 -13 18 6 34 9 37 6 3 -3 -4 -23 -15 -46 -28 -54 -26 -77 8 -112
32 -31 64 -36 106 -17 41 19 30 43 -13 27 -35 -13 -69 -4 -83 23 -9 17 -6 31
17 79 29 63 24 60 134 71 43 5 27 23 -22 26 -27 2 -48 5 -48 8 0 2 11 22 25
44 28 45 31 60 11 60 -7 0 -28 -26 -47 -57z"/>
<path d="M5713 10225 c-3 -9 -3 -18 0 -22 4 -3 0 -21 -8 -40 -8 -20 -15 -44
-15 -54 0 -14 -7 -19 -26 -19 -32 0 -66 -18 -59 -31 4 -5 22 -7 42 -3 34 6 36
6 29 -17 -3 -13 -9 -50 -13 -81 -5 -48 -3 -58 9 -58 12 0 18 16 23 58 12 102
10 100 66 94 41 -4 49 -2 49 12 0 11 -9 16 -32 16 -58 0 -65 11 -45 73 17 53
15 87 -4 87 -5 0 -12 -7 -16 -15z"/>
<path d="M13711 10231 c-11 -7 -12 -26 -7 -90 6 -69 5 -80 -7 -75 -17 6 -148
-57 -177 -86 -67 -67 64 -125 151 -67 53 35 68 77 71 196 1 56 6 105 10 107 4
3 8 9 8 15 0 11 -30 12 -49 0z m-1 -203 c0 -28 -33 -79 -59 -92 -61 -32 -145
-10 -103 27 20 18 132 73 150 73 6 1 12 -3 12 -8z"/>
<path d="M7314 10209 c-10 -17 23 -46 38 -31 8 8 8 15 -2 27 -15 18 -26 19
-36 4z"/>
<path d="M3461 10161 c-18 -12 -5 -31 20 -31 14 0 19 6 17 17 -4 20 -18 26
-37 14z"/>
<path d="M6845 10151 c-38 -22 -54 -47 -89 -131 -39 -92 -41 -100 -24 -100 21
0 60 45 57 66 -5 32 20 89 50 118 24 23 35 27 60 21 24 -5 31 -3 31 9 0 14
-28 36 -47 36 -4 0 -22 -8 -38 -19z"/>
<path d="M12383 10139 c-34 -10 -73 -51 -73 -78 0 -9 11 -40 25 -68 l24 -53
-37 0 c-21 0 -43 5 -50 12 -9 9 -15 9 -24 -1 -28 -28 72 -56 126 -35 22 8 20
22 -10 87 -30 66 -23 91 29 105 36 10 47 7 47 -14 0 -8 7 -14 15 -14 18 0 20
41 3 58 -14 14 -30 14 -75 1z"/>
<path d="M6419 10117 c-44 -29 -48 -64 -15 -127 l26 -50 -24 -6 c-32 -8 -66 3
-66 22 0 19 -29 18 -37 -2 -14 -37 72 -67 130 -45 33 13 34 28 2 91 -14 27
-25 56 -25 64 0 23 58 50 75 36 18 -15 31 6 15 25 -17 21 -42 19 -81 -8z"/>
<path d="M2375 10107 c-108 -61 -112 -188 -6 -217 44 -11 111 4 111 25 0 11
-11 13 -52 8 -29 -3 -55 -7 -57 -9 -5 -5 -41 37 -41 48 0 5 12 13 28 19 55 21
112 98 98 134 -8 21 -34 19 -81 -8z m40 -37 c-14 -28 -67 -70 -88 -70 -20 0
28 62 61 79 20 11 38 20 40 21 1 0 -5 -14 -13 -30z"/>
<path d="M10205 10115 c-16 -8 -37 -19 -45 -24 -8 -5 -23 -12 -32 -15 -10 -3
-18 -13 -18 -23 0 -10 -14 -40 -30 -68 -16 -27 -30 -56 -30 -62 0 -25 31 -13
48 18 41 74 76 120 106 139 65 40 71 22 26 -77 -16 -36 -30 -74 -30 -84 0 -25
19 -34 26 -12 3 10 19 49 35 87 32 77 37 121 13 130 -23 9 -35 7 -69 -9z"/>
<path d="M10423 10085 c-52 -44 -81 -114 -64 -151 21 -47 132 -68 148 -28 3 8
10 11 17 7 6 -3 8 -2 3 2 -4 5 -32 8 -61 6 -46 -2 -56 1 -69 20 -14 20 -14 26
-1 58 16 41 69 91 96 91 39 0 3 -54 -47 -70 -35 -11 -44 -23 -25 -35 15 -9 96
34 110 60 7 13 10 35 6 49 -10 40 -61 36 -113 -9z"/>
<path d="M11412 10073 c-18 -27 -50 -68 -72 -92 l-40 -44 0 39 c0 53 -10 84
-25 84 -10 0 -12 -18 -8 -77 l5 -78 -71 -85 c-71 -84 -137 -202 -125 -221 6
-10 34 7 34 21 0 14 113 177 173 249 147 175 187 226 184 235 -8 23 -26 13
-55 -31z"/>
<path d="M3031 10091 c-8 -5 -10 -14 -7 -20 9 -13 33 -15 40 -2 9 14 -18 31
-33 22z"/>
<path d="M7244 10085 c-3 -8 -3 -19 1 -25 3 -5 -7 -34 -24 -64 -31 -54 -39
-86 -22 -86 15 0 72 105 78 143 4 26 1 36 -11 40 -10 4 -19 1 -22 -8z"/>
<path d="M6587 10083 c-12 -12 -7 -22 8 -17 23 9 18 -5 -15 -43 -16 -18 -30
-40 -30 -48 0 -23 37 -55 64 -55 36 0 86 46 86 79 0 34 -26 71 -50 71 -10 0
-22 5 -25 10 -7 11 -28 13 -38 3z m81 -75 c4 -20 -31 -58 -53 -58 -24 0 -29
27 -10 56 18 29 58 30 63 2z"/>
<path d="M7669 10057 c-24 -18 -52 -47 -62 -65 -18 -31 -18 -34 -2 -58 15 -24
21 -26 63 -20 25 3 50 10 57 16 9 7 16 -5 28 -48 9 -31 19 -64 22 -74 5 -11 0
-18 -16 -23 -59 -19 -159 -146 -159 -202 0 -62 36 -68 106 -18 67 48 102 98
110 157 l7 49 51 -2 c39 -2 51 0 51 11 0 11 -15 16 -57 18 l-57 3 -22 66 c-19
57 -20 74 -12 134 5 38 7 73 4 77 -15 21 -71 11 -112 -21z m75 -34 c-8 -48
-27 -69 -66 -77 -64 -13 -61 37 4 85 57 40 71 39 62 -8z m46 -275 c0 -41 -25
-90 -64 -126 -60 -55 -84 -68 -93 -47 -12 34 53 130 112 166 35 22 45 24 45 7z"/>
<path d="M13338 10072 c-84 -56 -90 -154 -10 -177 30 -9 28 11 -5 39 -19 16
-24 28 -19 42 6 15 9 16 16 4 7 -12 16 -11 57 6 39 16 49 25 51 47 6 54 -38
73 -90 39z m62 -27 c0 -16 -49 -45 -77 -45 -14 1 -11 7 15 30 35 32 62 39 62
15z"/>
<path d="M5397 10050 c-46 -40 -64 -83 -49 -116 20 -42 61 -50 119 -22 16 8
26 8 37 -1 20 -17 41 -4 25 15 -9 11 -8 23 5 54 20 50 20 60 1 60 -8 0 -24 9
-35 20 -28 28 -64 25 -103 -10z m86 -20 c33 -39 -8 -100 -66 -100 -39 0 -51
23 -33 59 16 30 52 61 71 61 6 0 18 -9 28 -20z"/>
<path d="M7457 10056 c-24 -17 -38 -21 -45 -14 -8 8 -19 -7 -36 -47 -15 -32
-26 -61 -26 -66 0 -20 31 -7 44 20 18 34 81 91 101 91 19 0 19 -37 0 -70 -18
-31 -19 -70 -2 -70 27 0 58 139 37 165 -17 21 -32 19 -73 -9z"/>
<path d="M10666 10049 c-43 -38 -58 -62 -50 -83 9 -23 32 -27 71 -11 46 19 43
20 41 -16 -4 -43 18 -48 27 -7 4 18 14 46 22 62 24 47 2 54 -53 17 -69 -46
-101 -40 -49 9 14 14 38 25 53 26 35 1 36 28 0 32 -18 2 -37 -7 -62 -29z"/>
<path d="M10899 10062 c-64 -42 -107 -127 -65 -127 13 0 23 11 31 34 16 47 60
83 99 80 35 -3 59 7 51 22 -10 15 -89 10 -116 -9z"/>
<path d="M3616 10030 c-41 -46 -42 -48 -20 -78 18 -26 59 -29 91 -7 12 9 24
11 27 6 4 -5 1 -11 -6 -13 -17 -6 0 -28 23 -28 25 0 25 34 -1 85 -11 22 -20
45 -20 51 0 12 -22 24 -45 24 -7 0 -29 -18 -49 -40z m77 -11 c4 -3 -2 -18 -13
-32 -24 -31 -60 -36 -60 -10 0 18 52 66 60 55 3 -4 9 -9 13 -13z"/>
<path d="M3870 10060 c-8 -5 -22 -7 -32 -4 -21 6 -24 0 -32 -58 -6 -40 -5 -48
9 -48 8 0 18 8 22 18 9 25 45 62 54 56 5 -3 9 -18 9 -33 0 -28 21 -57 32 -45
8 7 -2 85 -14 107 -10 19 -26 21 -48 7z"/>
<path d="M3212 10044 c-77 -39 -104 -113 -57 -159 20 -21 34 -25 84 -25 66 0
79 8 51 33 -11 9 -22 12 -25 7 -11 -18 -71 -11 -91 11 -17 19 -17 23 -3 47 20
37 74 71 100 65 17 -5 20 -2 17 13 -4 25 -35 28 -76 8z"/>
<path d="M12586 10052 c-25 -5 -106 -86 -106 -105 0 -8 8 -25 18 -37 17 -21
21 -22 55 -11 45 15 61 42 54 92 -3 20 0 42 5 47 12 12 -1 20 -26 14z m-8 -78
c-2 -15 -12 -33 -24 -41 -18 -12 -23 -11 -33 1 -11 12 -8 20 13 41 32 32 48
32 44 -1z"/>
<path d="M12742 10035 c-32 -27 -75 -103 -66 -117 11 -17 24 -6 43 36 25 57
59 80 106 72 36 -7 44 1 23 22 -21 21 -74 14 -106 -13z"/>
<path d="M3007 10013 c-11 -10 -8 -121 3 -128 13 -8 18 7 24 78 4 43 2 57 -8
57 -7 0 -16 -3 -19 -7z"/>
<path d="M3440 9966 c0 -34 5 -58 14 -65 20 -17 24 -4 19 62 -4 39 -10 57 -19
57 -10 0 -14 -15 -14 -54z"/>
<path d="M8704 9861 c-45 -27 -90 -86 -120 -158 -19 -45 -32 -63 -46 -63 -19
0 -25 -26 -7 -32 8 -3 6 -16 -5 -42 -17 -42 -21 -86 -7 -86 12 0 32 26 25 32
-2 3 2 23 11 45 l16 40 81 7 c78 6 118 21 101 36 -4 4 -41 3 -80 -3 -40 -6
-76 -8 -79 -4 -12 12 65 154 97 181 39 33 78 44 90 25 6 -11 11 -11 20 -2 9 9
9 16 -1 28 -17 20 -58 19 -96 -4z"/>
<path d="M9495 9870 c-4 -6 -8 -21 -9 -33 -6 -51 -49 -158 -68 -168 -10 -6
-38 -9 -61 -7 -33 2 -42 -1 -45 -15 -3 -14 5 -17 47 -17 28 0 51 -2 51 -5 0
-2 -13 -44 -30 -92 -16 -50 -25 -92 -20 -97 13 -13 27 1 34 36 3 18 18 63 32
101 23 61 28 67 54 67 28 0 55 21 43 33 -3 4 -17 4 -29 1 -13 -4 -24 -4 -24 0
0 3 11 39 25 80 14 41 25 84 25 95 0 23 -16 36 -25 21z"/>
<path d="M9624 9843 c9 -22 -37 -159 -78 -235 -69 -128 -57 -140 38 -40 35 37
67 64 70 61 3 -3 -5 -38 -19 -77 -23 -65 -25 -109 -5 -97 5 3 21 42 35 86 22
65 25 86 16 105 -13 30 -22 30 -60 -1 l-30 -26 29 79 c16 43 31 97 35 120 5
38 4 42 -16 42 -16 0 -19 -4 -15 -17z"/>
<path d="M2984 9748 c-8 -90 -8 -120 1 -163 2 -11 4 -37 4 -57 1 -28 5 -38 17
-38 15 0 16 10 11 80 l-6 81 48 -7 c30 -4 51 -2 55 4 7 11 -7 17 -66 28 l-38
6 6 53 c7 56 0 105 -15 105 -5 0 -12 -42 -17 -92z"/>
<path d="M11906 9828 c-3 -7 -14 -47 -26 -88 -29 -102 -42 -120 -85 -120 -24
0 -35 -5 -35 -15 0 -11 11 -15 36 -15 30 0 35 -3 29 -17 -16 -42 -18 -83 -3
-83 9 0 19 19 27 49 12 48 14 50 52 53 50 4 55 22 7 26 l-36 3 29 82 c29 84
37 137 19 137 -6 0 -12 -6 -14 -12z"/>
<path d="M8440 9817 c0 -14 31 -47 43 -47 16 0 5 40 -12 50 -26 13 -31 13 -31
-3z"/>
<path d="M4104 9784 c-8 -19 -17 -48 -21 -65 -7 -37 -12 -40 -68 -41 -25 0
-48 -5 -51 -10 -11 -18 20 -28 64 -22 36 5 41 4 36 -10 -3 -9 -3 -42 1 -73 5
-43 14 -63 36 -85 25 -25 35 -29 76 -26 34 2 48 7 48 18 0 11 -10 14 -42 12
-31 -3 -47 2 -61 16 -23 23 -37 89 -27 131 6 29 9 30 68 33 46 2 62 7 62 17 0
12 -13 14 -59 12 l-59 -3 7 29 c4 15 14 41 22 57 7 16 11 32 8 37 -11 18 -25
8 -40 -27z"/>
<path d="M11532 9804 c-5 -11 -22 -56 -37 -102 -22 -68 -30 -82 -44 -76 -54
23 -106 0 -134 -59 -13 -28 -15 -41 -6 -66 11 -31 17 -35 54 -31 51 5 124 114
175 263 17 49 21 70 13 78 -8 8 -14 6 -21 -7z m-94 -222 c5 -16 -61 -82 -82
-82 -24 0 -20 49 6 77 24 25 68 28 76 5z"/>
<path d="M2482 9791 c-11 -7 -10 -16 8 -51 52 -101 29 -225 -47 -256 -59 -25
-92 10 -58 62 13 21 21 24 46 19 23 -5 29 -3 29 9 0 9 -11 21 -24 27 -33 16
-64 -3 -86 -54 -17 -36 -17 -44 -4 -69 39 -75 160 -27 194 78 16 48 7 136 -20
197 -12 26 -22 47 -23 47 -1 0 -8 -4 -15 -9z"/>
<path d="M12845 9705 l-30 -64 -60 -3 c-45 -2 -61 -7 -63 -19 -2 -13 7 -15 59
-11 53 4 61 2 56 -11 -17 -44 -27 -100 -22 -117 4 -11 17 -23 30 -26 35 -9
125 15 125 32 0 12 -8 13 -37 8 -68 -14 -88 -11 -85 11 13 95 29 114 97 115
45 0 75 11 75 26 0 10 -14 12 -65 7 -74 -7 -79 -1 -45 55 23 37 26 62 8 62 -7
0 -26 -29 -43 -65z"/>
<path d="M12342 9724 c-20 -14 -22 -24 -22 -98 0 -55 -5 -89 -14 -102 -14 -19
-15 -19 -46 5 -44 32 -64 13 -25 -23 36 -33 68 -33 94 0 17 22 21 41 21 110 0
76 2 83 21 89 15 5 25 2 31 -9 12 -22 28 -20 28 4 0 19 -27 40 -52 40 -8 0
-24 -7 -36 -16z"/>
<path d="M6341 9660 c-41 -16 -78 -33 -82 -37 -5 -5 -12 -33 -17 -63 l-8 -55
-23 52 c-28 62 -56 92 -73 75 -9 -9 -7 -17 8 -33 10 -11 31 -44 45 -72 17 -34
32 -53 46 -55 22 -3 23 -1 39 92 7 42 19 49 129 83 30 9 55 23 55 30 0 20 -37
14 -119 -17z"/>
<path d="M6489 9667 c-73 -49 -101 -137 -60 -188 16 -20 28 -24 70 -24 60 1
73 11 59 45 l-10 25 -15 -22 c-28 -42 -93 -16 -93 38 0 26 3 29 34 29 38 0 99
37 104 64 4 19 -24 56 -43 56 -7 0 -27 -10 -46 -23z m56 -27 c7 -11 -46 -40
-72 -40 -15 1 -13 5 10 25 29 26 52 32 62 15z"/>
<path d="M9815 9653 c-14 -15 -25 -31 -25 -35 0 -5 -9 -17 -20 -28 -19 -19
-19 -25 -9 -60 17 -56 42 -75 98 -74 58 1 104 12 96 23 -3 5 3 7 12 5 26 -6
51 12 36 27 -8 8 -16 8 -32 0 -11 -6 -44 -16 -72 -21 -42 -8 -57 -7 -76 5 -36
24 -29 48 22 73 49 24 65 55 45 91 -15 29 -44 26 -75 -6z m36 -44 c-35 -29
-45 -23 -20 12 16 23 24 28 33 19 8 -8 5 -16 -13 -31z"/>
<path d="M12499 9657 c-75 -51 -100 -127 -54 -172 24 -25 65 -34 65 -15 0 6 5
10 11 10 5 0 7 -5 4 -11 -4 -5 9 -3 29 5 36 15 39 16 53 16 4 0 2 5 -4 11 -7
7 -23 7 -53 -1 -49 -13 -85 -7 -94 16 -8 21 4 65 15 58 5 -3 26 0 47 7 38 14
46 16 61 18 16 2 23 39 11 61 -14 26 -49 26 -91 -3z m66 -17 c7 -12 -41 -32
-64 -27 -11 2 -7 8 14 20 36 19 42 20 50 7z"/>
<path d="M13905 9673 c-54 -10 -67 -16 -100 -44 -27 -24 -35 -39 -35 -65 0
-47 37 -71 85 -57 27 9 35 8 39 -4 7 -17 32 -12 29 6 -2 6 13 41 32 77 20 37
34 72 32 78 -4 11 -46 15 -82 9z m25 -38 c0 -1 -7 -19 -15 -39 -25 -60 -115
-84 -115 -31 0 26 23 49 70 68 28 12 60 13 60 2z"/>
<path d="M2678 9654 c-55 -29 -78 -122 -37 -144 26 -14 63 -6 89 20 19 19 20
19 20 2 0 -28 37 -59 52 -44 9 9 7 16 -6 31 -14 16 -17 30 -12 63 6 40 4 44
-27 66 -39 26 -43 26 -79 6z m61 -38 c9 -11 4 -22 -23 -51 -19 -20 -41 -35
-48 -33 -21 7 -20 42 2 71 23 30 51 35 69 13z"/>
<path d="M2892 9658 c7 -20 68 -23 68 -4 0 12 -10 16 -36 16 -24 0 -34 -4 -32
-12z"/>
<path d="M3757 9658 c-23 -18 -47 -81 -47 -123 0 -70 85 -120 168 -99 20 5 38
15 40 23 4 11 -5 12 -42 7 -76 -12 -136 18 -136 67 0 8 12 18 26 21 39 10 74
36 74 55 0 25 -29 61 -49 61 -9 0 -25 -6 -34 -12z m46 -32 c6 -15 -6 -29 -35
-39 -22 -8 -23 2 -2 31 18 25 30 28 37 8z"/>
<path d="M6672 9658 c-16 -21 -54 -170 -44 -180 5 -5 23 11 40 36 18 25 47 55
64 67 29 21 31 22 24 3 -19 -48 -18 -72 3 -93 24 -24 44 -27 60 -7 13 15 -1
32 -18 22 -5 -3 -14 0 -20 8 -8 10 -7 24 4 56 8 23 15 49 15 56 0 24 -44 15
-83 -17 -38 -31 -51 -22 -22 17 18 24 19 44 1 44 -7 0 -18 -6 -24 -12z"/>
<path d="M13155 9665 c-5 -2 -22 -6 -37 -9 -41 -9 -43 -37 -7 -111 24 -47 30
-68 22 -76 -15 -15 -70 -2 -93 23 -18 20 -20 20 -26 3 -15 -38 81 -79 132 -56
33 14 31 47 -6 118 -18 36 -25 62 -20 67 5 5 32 9 60 8 37 -1 50 3 50 14 0 8
-6 14 -12 14 -7 0 -22 2 -33 5 -11 2 -24 2 -30 0z"/>
<path d="M3506 9639 c-38 -30 -33 -61 16 -115 45 -49 43 -65 -11 -66 -40 -1
-46 5 -31 32 17 32 -3 48 -24 19 -33 -48 -10 -84 54 -84 41 0 90 28 90 51 0 8
-20 36 -45 62 -50 52 -54 66 -24 82 16 9 24 8 38 -4 23 -21 31 -20 31 2 0 44
-50 55 -94 21z"/>
<path d="M4382 9648 c-23 -23 -12 -58 34 -108 25 -27 43 -53 40 -58 -8 -13
-70 -24 -90 -16 -10 4 -15 12 -12 19 3 8 -2 16 -10 19 -17 6 -29 -17 -20 -39
12 -31 53 -40 114 -24 76 19 78 38 12 109 -27 30 -48 60 -47 65 5 14 57 19 57
6 0 -6 7 -11 15 -11 8 0 15 6 15 13 0 23 -23 37 -60 37 -20 0 -41 -5 -48 -12z"/>
<path d="M8372 9648 c-7 -7 -12 -16 -12 -21 0 -5 -11 -32 -25 -59 -20 -39 -23
-54 -14 -64 20 -24 39 -16 39 16 0 17 11 52 25 79 22 44 23 61 5 61 -3 0 -11
-5 -18 -12z"/>
<path d="M14100 9652 c-37 -17 -58 -41 -79 -94 -13 -31 -20 -62 -16 -68 11
-18 31 5 55 64 21 52 58 84 81 70 6 -3 18 -3 27 1 16 6 15 8 -2 21 -21 15 -41
17 -66 6z"/>
<path d="M14284 9646 c-16 -7 -49 -35 -72 -62 -46 -54 -47 -72 -6 -114 22 -23
32 -25 102 -24 74 1 152 23 152 42 0 18 -14 21 -41 7 -15 -8 -61 -16 -103 -17
-61 -2 -79 1 -93 15 -16 16 -16 17 12 17 68 1 145 57 145 105 0 44 -38 56 -96
31z m66 -25 c0 -36 -39 -65 -99 -76 -28 -5 -31 -3 -22 12 24 45 121 96 121 64z"/>
<path d="M5896 9613 c-15 -15 -30 -39 -33 -54 -3 -16 -11 -26 -20 -25 -24 2
-28 -25 -5 -31 11 -2 22 -13 25 -24 9 -33 63 -48 130 -37 31 5 57 14 57 19 0
4 7 6 15 3 10 -4 15 0 15 12 0 16 2 17 10 4 8 -13 10 -12 10 3 0 15 -5 17 -22
11 -86 -27 -160 -31 -178 -9 -10 12 -9 15 5 15 9 0 33 16 52 35 28 28 34 41
31 67 -3 29 -7 33 -34 36 -22 2 -37 -4 -58 -25z m64 -17 c0 -8 -5 -18 -10 -21
-6 -4 -8 -10 -5 -14 4 -7 -36 -31 -50 -31 -14 0 -2 34 20 55 27 28 45 32 45
11z"/>
<path d="M3166 9589 c-38 -45 -44 -78 -17 -100 18 -15 27 -16 54 -7 18 6 37
15 44 20 8 6 15 2 23 -12 11 -20 66 -60 83 -60 5 0 7 10 5 23 -2 14 -11 23
-26 25 -28 4 -44 34 -36 66 11 45 -6 50 -40 12 -30 -32 -80 -56 -92 -43 -8 8
25 67 42 74 8 3 21 0 29 -7 23 -19 39 -1 19 21 -25 28 -58 23 -88 -12z"/>
<path d="M11564 9600 c-80 -52 -62 -137 21 -97 34 16 34 16 37 -10 2 -15 8
-28 14 -30 14 -4 25 87 13 101 -4 4 -28 -4 -53 -19 -57 -33 -73 -24 -29 15 22
20 38 27 53 23 18 -5 21 -2 18 13 -5 26 -37 28 -74 4z"/>
<path d="M11979 9585 c-85 -57 -55 -134 42 -108 38 10 41 9 49 -13 10 -25 38
-44 57 -37 16 6 5 33 -13 33 -10 0 -14 12 -14 40 0 46 -6 48 -57 20 -21 -11
-45 -20 -55 -20 -55 0 -5 69 58 79 52 8 57 31 7 31 -24 0 -52 -9 -74 -25z"/>
<path d="M5207 9473 c-2 -4 -7 -24 -11 -43 -9 -50 -42 -100 -66 -100 -13 0
-20 -7 -20 -20 0 -31 28 -24 70 18 29 29 40 49 45 86 5 29 3 52 -3 58 -5 5
-12 6 -15 1z"/>
<path d="M4101 9317 c-8 -20 -81 -358 -81 -372 0 -3 7 -5 15 -5 17 0 15 -7 55
194 16 82 36 156 44 165 7 9 11 22 9 29 -8 20 -33 14 -42 -11z"/>
<path d="M2448 9225 c-3 -3 3 -48 13 -101 31 -160 68 -209 109 -142 14 22 20
50 20 88 0 61 -2 60 107 95 50 16 82 39 70 51 -3 4 -52 -11 -109 -33 l-103
-38 3 -60 c2 -41 -2 -66 -12 -80 -14 -19 -15 -19 -26 10 -7 17 -19 72 -28 123
-14 82 -26 105 -44 87z"/>
<path d="M3063 9195 c-33 -14 -53 -55 -53 -111 0 -23 5 -34 15 -34 10 0 16 16
21 50 7 56 16 67 59 72 17 1 29 7 28 13 -3 17 -39 23 -70 10z"/>
<path d="M2802 9172 c-31 -29 -52 -69 -52 -97 0 -8 13 -29 29 -47 24 -27 36
-32 81 -34 53 -3 90 8 90 26 0 5 -24 6 -52 4 -58 -5 -101 10 -106 39 -2 12 3
17 18 17 12 0 37 15 56 34 28 28 33 38 25 58 -13 35 -51 35 -89 0z m58 -17 c0
-17 -47 -51 -57 -41 -7 7 36 56 49 56 4 0 8 -7 8 -15z"/>
<path d="M4952 9169 c-63 -41 -81 -116 -38 -166 21 -24 30 -27 77 -26 64 2
112 18 106 36 -2 6 -11 10 -18 8 -8 -2 -39 -6 -70 -9 -43 -3 -59 0 -72 13 -25
24 -22 55 6 55 27 0 96 39 110 62 15 23 -8 48 -42 48 -14 0 -41 -10 -59 -21z
m68 -17 c0 -10 -70 -45 -77 -39 -2 3 8 14 23 26 27 21 54 28 54 13z"/>
<path d="M3283 9154 c-10 -14 -30 -40 -44 -57 l-26 -30 -6 40 c-7 41 -30 72
-41 55 -6 -10 21 -99 36 -118 5 -8 -10 -48 -42 -109 -27 -54 -50 -106 -50
-116 0 -10 -7 -25 -16 -34 -12 -12 -14 -19 -6 -27 19 -19 39 -1 51 47 12 49
131 287 159 318 8 9 11 17 6 17 -5 0 -1 5 9 11 9 6 15 14 12 20 -10 15 -23 10
-42 -17z"/>
<path d="M4246 9159 c-30 -24 -56 -69 -56 -98 0 -29 34 -45 71 -32 24 8 30 7
39 -10 11 -20 50 -27 50 -8 0 7 -7 17 -16 24 -15 10 -15 14 1 44 26 52 28 79
6 91 -31 16 -66 12 -95 -11z m74 -24 c0 -29 -83 -94 -95 -75 -8 13 21 66 42
79 27 15 53 13 53 -4z"/>
<path d="M4484 9166 c-38 -17 -74 -61 -74 -92 0 -40 19 -37 36 7 17 42 58 69
104 69 11 0 20 7 20 15 0 19 -43 19 -86 1z"/>
<path d="M4690 9143 c-43 -22 -76 -79 -66 -116 11 -45 84 -49 126 -7 11 11 23
20 26 20 7 0 -1 -50 -18 -121 l-11 -46 -36 13 c-51 18 -67 17 -91 -8 -43 -46
-14 -198 39 -198 22 0 86 68 96 101 3 13 10 33 15 44 4 11 15 61 24 110 19
103 8 199 -23 208 -9 3 -23 8 -31 11 -8 3 -31 -2 -50 -11z m60 -48 c0 -34 -44
-77 -73 -73 -31 4 -32 30 -2 67 34 40 75 43 75 6z m-27 -247 c13 -7 16 -15 11
-31 -11 -37 -31 -71 -52 -90 -19 -18 -20 -18 -36 5 -19 26 -21 109 -4 126 12
12 47 7 81 -10z"/>
<path d="M5170 9016 c0 -21 21 -31 30 -15 5 7 6 17 4 21 -9 14 -34 9 -34 -6z"/>
</g>
</svg>
