<?xml version="1.0" standalone="no"?>
<!DOCTYPE svg PUBLIC "-//W3C//DTD SVG 20010904//EN"
 "http://www.w3.org/TR/2001/REC-SVG-20010904/DTD/svg10.dtd">
<svg version="1.0" xmlns="http://www.w3.org/2000/svg"
 width="1617.000000pt" height="1213.000000pt" viewBox="0 0 1617.000000 1213.000000"
 preserveAspectRatio="xMidYMid meet">

<g transform="translate(0.000000,1213.000000) scale(0.100000,-0.100000)"
fill="#000000" stroke="none">
<path d="M14283 11678 c-15 -24 -39 -57 -53 -73 -25 -29 -26 -30 -54 -15 -22
12 -30 12 -33 3 -3 -7 -12 -13 -22 -13 -25 0 -90 -58 -122 -109 -45 -70 -35
-143 22 -163 11 -4 8 -17 -13 -60 -16 -30 -28 -60 -28 -66 0 -6 -6 -12 -12
-15 -10 -3 -9 -9 4 -22 20 -21 38 -12 38 19 0 13 8 30 19 40 10 9 26 34 36 55
15 34 23 40 59 45 115 19 176 123 128 218 l-19 36 31 40 c30 39 64 95 66 109
1 4 -3 9 -9 11 -5 2 -22 -16 -38 -40z m-113 -118 c18 -10 17 -14 -20 -74 -21
-35 -48 -83 -60 -105 -23 -46 -29 -48 -61 -22 l-23 19 17 55 c19 60 66 111 93
100 10 -4 17 2 21 16 6 24 8 25 33 11z m49 -133 c-10 -37 -59 -77 -93 -77 -18
0 -8 22 60 138 l19 32 12 -29 c9 -20 9 -39 2 -64z"/>
<path d="M14702 11660 c-105 -23 -112 -26 -112 -46 0 -12 5 -15 23 -9 47 14
160 32 178 28 16 -5 14 -10 -17 -51 -34 -45 -82 -72 -130 -72 -11 0 -29 -6
-40 -14 -15 -12 -17 -17 -6 -27 9 -10 15 -10 24 -1 11 11 78 18 78 7 0 -2 -25
-41 -56 -86 -39 -58 -54 -89 -52 -108 3 -30 17 -32 33 -5 5 10 24 41 41 68 17
28 34 61 38 73 12 39 62 83 93 83 28 0 53 15 53 33 0 4 -8 7 -17 6 -54 -5 -55
-1 -18 48 67 87 39 106 -113 73z"/>
<path d="M13270 11650 c-14 -4 -38 -9 -55 -9 -38 -2 -63 -17 -50 -30 6 -5 30
-6 61 -1 28 5 65 5 82 2 l32 -7 -40 -66 c-36 -60 -43 -67 -80 -73 -48 -8 -57
-36 -11 -36 l30 0 -30 -56 c-16 -31 -29 -64 -29 -74 0 -10 -5 -20 -12 -22 -17
-6 0 -28 22 -28 13 0 22 12 30 38 7 20 26 62 43 93 30 57 31 57 86 63 31 4 62
10 70 15 26 16 1 28 -49 23 -27 -2 -50 -2 -50 2 0 3 13 27 29 53 42 68 48 99
23 112 -23 12 -65 13 -102 1z"/>
<path d="M13066 11643 c-3 -3 -6 -16 -6 -27 0 -19 -45 -204 -68 -282 -6 -17
-6 -37 -2 -44 14 -22 35 -4 37 31 1 19 15 86 32 149 17 63 31 127 31 142 0 27
-12 43 -24 31z"/>
<path d="M13788 11580 c-79 -52 -92 -67 -77 -91 7 -11 11 -10 24 7 16 24 124
99 131 92 9 -10 -30 -115 -58 -156 -17 -25 -59 -75 -94 -112 -85 -90 -87 -121
-2 -60 52 38 108 41 131 8 14 -22 16 -22 23 -4 12 31 -9 51 -59 54 l-45 3 53
71 c37 49 59 90 70 133 32 116 11 128 -97 55z"/>
<path d="M12356 11608 c-9 -33 -67 -210 -86 -261 -21 -60 -19 -97 5 -97 8 0
17 12 21 28 14 60 45 171 68 246 14 44 23 83 20 88 -8 12 -24 10 -28 -4z"/>
<path d="M12605 11611 c-30 -13 -85 -67 -85 -84 0 -30 18 -26 52 13 32 35 81
60 94 48 9 -10 -128 -225 -166 -259 -22 -20 -40 -41 -40 -47 0 -24 20 -20 56
13 47 43 69 44 89 5 13 -25 45 -43 45 -25 0 19 -43 85 -55 85 -8 0 -15 2 -15
5 0 3 24 46 54 95 60 100 74 139 54 151 -16 11 -57 10 -83 0z"/>
<path d="M14424 11578 c-9 -43 -51 -141 -86 -201 -32 -54 -35 -82 -12 -91 23
-9 31 -1 32 31 0 15 22 73 47 127 53 113 67 166 42 166 -9 0 -18 -13 -23 -32z"/>
<path d="M12767 11313 c-8 -7 11 -33 24 -33 5 0 9 9 9 20 0 19 -20 27 -33 13z"/>
<path d="M4087 11283 c-2 -4 -5 -28 -6 -53 -1 -40 -34 -176 -45 -187 -2 -2
-29 -7 -60 -10 -41 -4 -56 -10 -56 -21 0 -12 10 -14 55 -9 64 6 62 11 36 -96
-17 -71 -15 -97 8 -83 5 3 17 46 27 96 18 86 19 90 45 90 49 0 89 12 89 27 0
12 -10 14 -50 8 -58 -8 -60 -3 -35 81 19 64 24 156 8 161 -6 2 -13 0 -16 -4z"/>
<path d="M13416 11282 c-8 -14 6 -53 18 -49 18 6 20 57 2 57 -8 0 -17 -4 -20
-8z"/>
<path d="M5255 11186 c-19 -35 -42 -84 -50 -108 -9 -24 -35 -65 -60 -90 -44
-47 -144 -103 -167 -96 -20 7 46 67 81 74 36 7 42 34 9 34 -32 0 -81 -32 -113
-74 -71 -93 53 -88 178 7 l47 37 0 -29 c0 -68 71 -82 141 -28 74 56 62 81 -13
27 -94 -68 -128 -4 -67 127 50 106 69 153 69 169 0 30 -20 11 -55 -50z"/>
<path d="M6210 11212 c0 -24 49 -99 89 -136 37 -36 38 -40 6 -54 -21 -10 -25
-9 -25 3 0 9 -10 20 -23 26 -23 10 -44 6 -221 -41 -43 -12 -90 -20 -105 -18
-33 4 -35 -22 -3 -38 19 -9 30 -9 50 2 15 7 49 18 77 24 162 32 196 37 202 27
3 -5 -3 -14 -13 -20 -10 -6 -41 -32 -67 -58 -43 -42 -48 -52 -45 -85 4 -47 23
-55 32 -13 12 64 168 177 226 164 41 -9 53 20 19 45 -43 32 -123 114 -149 152
-27 40 -50 50 -50 20z"/>
<path d="M15566 11201 c-3 -5 -23 -7 -44 -4 -81 11 -172 -38 -188 -102 -14
-58 55 -76 135 -35 24 12 45 19 47 17 3 -2 -11 -25 -29 -49 -40 -52 -127 -217
-127 -240 0 -22 27 -41 46 -34 13 5 14 9 4 21 -9 11 -9 23 1 52 15 47 64 136
100 183 33 43 92 177 84 190 -8 12 -22 13 -29 1z m-31 -51 c0 -31 -124 -90
-160 -77 -14 6 -14 10 -1 35 14 27 42 44 91 55 36 9 70 2 70 -13z"/>
<path d="M4284 11158 c3 -13 6 -29 6 -35 0 -7 7 -13 15 -13 15 0 20 26 9 54
-10 26 -37 20 -30 -6z"/>
<path d="M2251 11078 c-5 -18 -24 -88 -42 -155 -26 -101 -30 -125 -19 -138 10
-12 16 -13 26 -4 9 7 11 16 5 23 -8 10 28 172 58 256 6 18 8 36 5 41 -10 17
-23 9 -33 -23z"/>
<path d="M2581 11070 c-68 -10 -131 -90 -70 -90 10 0 19 6 19 13 0 29 37 50
75 43 19 -4 35 -12 35 -19 0 -19 -65 -97 -128 -154 -47 -42 -55 -54 -44 -65
11 -11 18 -10 43 4 27 16 34 16 58 4 53 -28 95 -29 149 -6 28 12 57 29 63 36
23 27 -2 28 -57 1 -47 -23 -60 -26 -95 -18 -66 15 -66 22 -5 97 31 38 60 80
63 93 12 49 -27 72 -106 61z"/>
<path d="M2358 11018 c-10 -29 -29 -89 -43 -133 -31 -97 -32 -125 -6 -125 20
0 39 32 22 38 -8 3 3 44 54 202 18 55 19 70 2 70 -7 0 -20 -24 -29 -52z"/>
<path d="M3370 10992 c-46 -46 -59 -85 -39 -121 11 -19 24 -27 52 -29 27 -2
37 1 37 11 0 22 -24 39 -37 26 -7 -7 -14 -5 -23 6 -10 12 -10 21 0 44 17 43
45 64 93 70 55 8 54 25 -1 29 -39 3 -47 -1 -82 -36z"/>
<path d="M4755 11012 c-49 -30 -95 -89 -95 -122 0 -46 25 -63 82 -56 59 8 98
22 98 35 0 6 -18 7 -42 4 -83 -11 -102 -9 -106 10 -2 12 3 17 20 17 54 0 126
70 113 110 -8 25 -31 26 -70 2z m35 -32 c0 -11 -59 -50 -75 -50 -11 1 55 60
67 60 4 0 8 -5 8 -10z"/>
<path d="M3778 10982 c-16 -9 -28 -20 -28 -24 0 -5 -7 -8 -15 -8 -18 0 -49
-64 -41 -85 9 -24 19 -17 51 33 17 26 41 52 55 59 23 12 25 11 28 -13 2 -14
-4 -46 -12 -72 -11 -31 -13 -49 -6 -56 14 -14 24 0 38 49 21 75 22 91 6 113
-18 26 -39 27 -76 4z"/>
<path d="M4465 10990 c-12 -20 -16 -106 -6 -132 23 -60 106 -18 152 76 16 33
29 61 29 63 0 3 -10 3 -22 1 -15 -2 -25 -15 -35 -45 -13 -38 -62 -93 -83 -93
-15 0 -21 54 -10 90 5 19 10 38 10 42 0 11 -28 10 -35 -2z"/>
<path d="M3552 10951 c-42 -75 2 -114 84 -75 55 26 59 85 9 104 -50 19 -70 12
-93 -29z m94 -12 c9 -15 -15 -36 -48 -44 -23 -6 -28 -4 -28 12 0 10 5 24 12
31 15 15 55 16 64 1z"/>
<path d="M4212 10978 c-21 -27 -62 -118 -62 -138 0 -34 33 -20 41 16 3 18 17
52 31 77 24 42 26 57 8 57 -4 0 -12 -6 -18 -12z"/>
<path d="M4305 10968 c-60 -33 -102 -108 -60 -108 8 0 15 9 15 20 0 11 16 30
38 45 l37 25 3 -24 c2 -13 -4 -41 -12 -61 -20 -46 -20 -55 -2 -55 18 0 46 70
46 113 0 51 -24 68 -65 45z"/>
<path d="M5222 10523 c-11 -15 -33 -68 -49 -118 -27 -79 -38 -121 -59 -223 -2
-13 -9 -20 -14 -17 -6 4 -13 -2 -17 -11 -4 -10 -2 -19 3 -21 6 -2 8 -42 6 -98
-4 -83 -2 -95 12 -95 13 0 16 12 16 64 0 119 1 121 86 135 41 7 78 10 83 6 5
-3 12 -1 16 5 4 6 11 7 17 4 6 -4 9 -1 6 7 -5 16 -77 19 -146 5 -42 -8 -42 -7
-33 16 6 12 24 72 42 133 28 99 62 185 74 185 2 0 10 -20 17 -44 7 -24 18 -43
23 -42 28 4 -16 128 -47 134 -9 2 -25 -10 -36 -25z"/>
<path d="M14141 10426 c-9 -10 -10 -43 -5 -114 4 -55 4 -115 0 -134 l-6 -35
-70 -7 c-54 -6 -70 -11 -70 -23 0 -13 10 -14 66 -8 66 7 66 7 59 -17 -14 -45
-44 -96 -61 -102 -13 -5 -14 -9 -4 -21 7 -8 16 -15 21 -15 12 0 59 83 70 125
8 29 14 35 38 35 31 0 59 24 41 35 -5 3 -10 2 -10 -3 0 -5 -10 -7 -22 -5 -22
4 -23 8 -24 139 l-1 134 23 -15 c29 -19 34 -19 34 -1 0 16 -37 46 -56 46 -6 0
-17 -6 -23 -14z"/>
<path d="M15005 10388 c-2 -7 -9 -65 -15 -128 -7 -63 -14 -117 -16 -119 -2 -2
-28 3 -58 12 -30 8 -57 13 -60 9 -17 -17 1 -30 59 -42 73 -15 71 -12 51 -108
-13 -61 -9 -84 12 -59 6 7 16 44 23 82 6 39 17 73 23 77 6 4 29 8 51 8 41 0
105 33 87 44 -6 3 -22 2 -37 -4 -14 -5 -47 -10 -72 -10 l-45 0 6 38 c3 20 8
70 12 110 4 52 10 72 20 72 8 0 14 7 14 15 0 18 -49 21 -55 3z"/>
<path d="M10565 10328 c-8 -32 -8 -44 1 -211 8 -163 20 -185 40 -70 23 138 79
273 114 273 13 0 50 -50 56 -77 4 -13 -1 -45 -10 -72 -30 -93 -16 -108 33 -33
l31 47 0 -43 c0 -37 6 -50 35 -79 21 -21 35 -45 35 -59 0 -51 100 -80 179 -53
33 12 38 37 5 31 -72 -14 -106 -13 -129 2 -28 18 -33 46 -9 46 8 0 38 10 65
21 57 25 71 54 45 95 -30 45 -45 42 -104 -21 l-55 -59 -18 23 c-12 14 -19 39
-19 65 0 49 -12 71 -34 63 -12 -5 -16 0 -16 16 0 25 -34 85 -59 104 -45 34
-96 -6 -126 -99 -10 -29 -21 -57 -26 -62 -12 -13 -11 115 0 133 5 8 7 20 4 28
-8 21 -32 15 -38 -9z m475 -220 c0 -4 -10 -12 -21 -19 -26 -13 -79 -29 -79
-23 0 2 17 22 37 45 34 38 38 39 50 23 7 -10 13 -21 13 -26z"/>
<path d="M13394 10335 c-7 -16 1 -200 12 -288 5 -43 25 -70 39 -55 3 3 -2 43
-10 89 -8 46 -15 123 -15 171 0 81 -12 120 -26 83z"/>
<path d="M12287 10303 c-12 -12 -7 -43 7 -43 13 0 26 20 26 41 0 10 -23 12
-33 2z"/>
<path d="M15271 10291 c-14 -26 -14 -61 0 -61 6 0 13 9 16 20 3 11 14 20 25
20 27 0 19 34 -9 38 -14 2 -26 -4 -32 -17z"/>
<path d="M9635 10290 c-10 -16 -1 -23 88 -69 52 -26 89 -53 95 -66 10 -22 8
-24 -36 -29 -172 -21 -332 -28 -602 -25 -596 7 -1030 -4 -1037 -28 -3 -6 10
-19 27 -28 25 -13 31 -13 36 -2 8 22 475 41 739 29 262 -11 502 -7 715 12 190
18 226 26 222 49 -3 20 -3 21 39 3 l33 -14 -76 -35 c-139 -64 -237 -142 -210
-169 13 -13 47 -6 47 11 0 13 161 121 243 163 53 28 51 46 -8 75 -288 141
-301 146 -315 123z"/>
<path d="M12634 10276 c-9 -22 2 -46 21 -46 12 0 15 8 13 27 -3 30 -25 42 -34
19z"/>
<path d="M4885 10251 c-7 -13 14 -59 31 -65 22 -8 26 11 9 44 -16 30 -29 38
-40 21z"/>
<path d="M7251 10229 c-21 -12 -31 -27 -31 -43 0 -28 14 -41 88 -81 77 -42 85
-57 46 -96 -21 -20 -44 -32 -72 -36 -35 -5 -44 -2 -66 22 -23 25 -26 26 -33
10 -9 -26 39 -65 80 -65 44 0 119 39 137 72 25 45 5 76 -75 119 -38 21 -71 42
-73 47 -7 22 32 31 158 38 74 3 137 8 139 10 1 1 0 7 -4 13 -4 7 -53 11 -134
10 -108 0 -133 -3 -160 -20z"/>
<path d="M6257 10178 c-19 -34 -40 -81 -47 -103 -7 -22 -15 -44 -18 -49 -6
-11 -27 42 -52 134 -21 77 -46 97 -37 29 7 -50 51 -187 65 -201 6 -6 -9 -63
-39 -150 -72 -204 -81 -258 -43 -258 10 0 14 12 14 39 0 44 93 326 115 348 8
8 13 19 9 24 -8 14 23 105 59 171 23 42 28 61 20 69 -8 8 -20 -6 -46 -53z"/>
<path d="M12098 10228 c-42 -15 -65 -62 -77 -162 -6 -49 -9 -92 -6 -94 2 -2
11 -2 20 1 11 5 15 21 15 60 0 57 31 133 63 151 14 9 21 6 37 -14 16 -21 20
-23 25 -8 8 20 -9 54 -33 66 -10 6 -28 5 -44 0z"/>
<path d="M3159 10153 c-29 -27 -53 -59 -56 -75 -3 -15 -12 -28 -19 -28 -18 0
-18 -19 0 -39 54 -60 67 -71 90 -77 31 -7 76 2 76 16 0 6 -15 10 -34 10 -30 0
-86 31 -86 48 0 4 19 17 43 30 72 38 107 111 71 146 -23 23 -30 21 -85 -31z
m71 -7 c0 -20 -38 -65 -71 -81 -26 -14 -29 -14 -29 0 0 20 68 95 86 95 8 0 14
-6 14 -14z"/>
<path d="M15410 10178 c0 -7 -12 -20 -28 -29 -15 -9 -35 -30 -45 -47 -17 -30
-17 -31 6 -57 18 -22 31 -27 70 -27 51 0 87 21 87 51 0 23 -63 120 -77 121 -7
0 -13 -6 -13 -12z m36 -71 c14 -16 23 -35 21 -41 -2 -6 -25 -12 -50 -14 -54
-4 -71 16 -43 47 9 10 16 22 16 28 0 20 32 9 56 -20z"/>
<path d="M15605 10160 c-18 -35 -29 -40 -20 -9 6 16 3 20 -11 17 -19 -3 -43
-78 -44 -135 0 -25 4 -33 18 -33 13 0 23 15 36 49 9 27 23 57 30 67 11 14 11
7 3 -45 -12 -73 -1 -107 38 -117 34 -9 75 3 75 22 0 12 -7 14 -34 9 -49 -10
-60 14 -46 97 15 93 13 108 -10 108 -12 0 -26 -12 -35 -30z"/>
<path d="M14397 10173 c-3 -5 -8 -32 -12 -61 -4 -33 -16 -63 -30 -80 -20 -23
-25 -25 -40 -12 -26 21 -47 69 -43 98 2 19 -2 27 -12 27 -10 0 -16 -12 -18
-35 -4 -48 47 -130 81 -130 50 0 96 80 97 168 0 29 -12 43 -23 25z"/>
<path d="M6641 10161 c-14 -4 -26 -12 -29 -19 -3 -9 22 -12 97 -12 83 0 101 3
101 15 0 12 -13 15 -59 15 -33 0 -65 2 -73 4 -7 2 -24 1 -37 -3z"/>
<path d="M3627 10154 c-4 -4 -7 -20 -7 -35 0 -31 -49 -79 -81 -79 -25 0 -24
11 2 44 14 18 28 26 40 23 24 -6 34 9 19 28 -31 37 -119 -47 -106 -100 9 -34
60 -34 110 0 40 27 41 26 49 -42 l5 -42 -55 -26 c-53 -27 -93 -71 -93 -106 0
-26 44 -84 66 -87 34 -5 80 42 93 95 17 67 30 95 39 89 13 -8 35 11 28 23 -4
6 -15 11 -25 11 -15 0 -22 17 -37 102 -18 94 -29 119 -47 102z m23 -268 c0
-60 -44 -131 -75 -120 -7 3 -18 18 -23 34 -12 34 4 62 52 91 40 24 46 24 46
-5z"/>
<path d="M11823 10141 c-60 -37 -99 -120 -75 -159 17 -26 77 -26 135 1 85 39
94 80 34 145 -36 37 -50 39 -94 13z m75 -37 c14 -9 22 -26 22 -43 0 -23 -8
-31 -49 -51 -54 -25 -101 -22 -101 7 0 27 40 81 68 92 37 13 35 13 60 -5z"/>
<path d="M7553 10135 c-13 -9 -23 -22 -23 -30 0 -22 20 -28 34 -10 18 25 60
16 64 -13 4 -29 -79 -114 -106 -110 -23 4 -22 -26 1 -30 17 -4 79 37 105 68
11 13 11 13 6 -3 -16 -45 57 -89 122 -73 36 9 24 32 -14 28 -86 -9 -95 65 -18
137 25 24 35 51 18 51 -5 0 -25 -16 -45 -35 -31 -30 -37 -33 -37 -17 0 40 -70
63 -107 37z"/>
<path d="M14699 10127 c-45 -30 -68 -71 -53 -94 9 -15 28 -18 95 -20 80 -3 85
-2 102 22 17 24 17 26 1 32 -10 4 -22 0 -29 -10 -9 -13 -28 -17 -79 -17 -36 0
-66 3 -66 8 0 17 31 50 58 61 16 7 29 19 29 27 0 20 -19 17 -58 -9z"/>
<path d="M14535 10116 c-15 -15 -27 -20 -33 -14 -10 10 -75 -69 -69 -86 7 -22
27 -14 78 32 50 46 54 48 55 26 3 -37 12 -54 29 -54 12 0 14 8 9 43 -8 49 -20
77 -35 77 -5 0 -21 -11 -34 -24z"/>
<path d="M12788 10088 c-56 -61 -72 -92 -53 -108 12 -10 16 -9 22 6 12 35 66
104 81 104 12 0 13 -9 9 -45 -7 -50 -1 -75 18 -75 20 0 19 124 -1 144 -23 24
-33 20 -76 -26z"/>
<path d="M13031 10104 c-44 -37 -65 -79 -51 -104 16 -31 94 -31 146 0 l32 18
5 -28 c6 -29 27 -43 52 -34 21 8 19 21 -5 27 -17 4 -19 11 -14 51 8 56 0 58
-62 11 -34 -26 -55 -35 -85 -35 -48 0 -52 19 -10 61 20 20 39 29 61 29 41 0
35 24 -7 28 -21 2 -40 -5 -62 -24z"/>
<path d="M15187 10103 c-3 -15 -6 -41 -6 -58 -1 -16 -3 -39 -4 -50 -1 -12 4
-20 13 -20 24 0 37 144 13 152 -6 2 -13 -9 -16 -24z"/>
<path d="M12606 10088 c4 -18 10 -60 13 -92 4 -38 11 -61 20 -64 12 -4 13 9 8
74 -6 90 -13 114 -34 114 -11 0 -13 -7 -7 -32z"/>
<path d="M12216 10102 c-15 -24 -16 -88 -3 -106 19 -25 41 -12 26 15 -7 15 -7
29 0 51 11 30 7 48 -9 48 -5 0 -11 -4 -14 -8z"/>
<path d="M12427 10103 c-4 -3 -7 -25 -7 -48 0 -22 -5 -46 -12 -53 -17 -17 -64
-15 -82 4 -19 18 -19 20 -5 45 6 12 8 28 4 37 -5 13 -8 14 -19 1 -8 -8 -17
-28 -21 -46 -5 -27 -2 -37 19 -58 30 -30 89 -34 124 -9 13 9 25 14 26 13 9
-10 34 -143 29 -155 -3 -8 -19 -14 -37 -14 -63 0 -106 -19 -123 -55 -15 -31
-15 -37 1 -79 38 -99 142 -131 181 -55 20 39 21 196 1 279 -9 36 -21 88 -27
117 -11 50 -38 90 -52 76z m63 -370 c0 -108 -47 -144 -107 -83 -36 36 -45 70
-29 102 12 24 42 35 99 37 l37 1 0 -57z"/>
<path d="M4891 10040 c-29 -60 -31 -104 -6 -114 8 -3 19 2 27 11 10 13 10 17
1 20 -19 7 -16 28 12 82 23 46 23 61 3 61 -5 0 -22 -27 -37 -60z"/>
<path d="M6565 10060 c-15 -24 18 -34 126 -38 92 -4 111 -2 107 9 -3 10 -32
16 -99 20 -52 4 -101 10 -110 13 -10 4 -20 2 -24 -4z"/>
<path d="M3986 10024 c-17 -16 -22 -54 -8 -54 12 0 42 34 42 48 0 19 -18 23
-34 6z"/>
<path d="M3305 9980 c-7 -12 12 -40 27 -40 13 0 6 43 -9 47 -6 2 -14 -1 -18
-7z"/>
<path d="M2465 9424 c-9 -22 -24 -67 -32 -101 -12 -47 -20 -63 -37 -67 -39
-11 -101 -6 -122 9 -22 15 -34 11 -34 -10 0 -27 127 -51 160 -30 6 4 9 -41 8
-118 -2 -122 3 -152 25 -144 8 2 10 44 8 134 l-3 131 54 24 c29 14 54 24 56
23 1 -1 -3 -49 -10 -106 -6 -57 -12 -115 -12 -128 -1 -39 21 -35 43 6 10 21
34 58 51 82 l33 45 18 -37 c11 -20 29 -42 42 -48 12 -7 31 -22 43 -34 30 -33
97 -42 132 -18 15 10 36 18 46 18 14 0 22 13 33 50 16 57 35 75 75 75 38 0 52
-29 43 -96 -7 -59 0 -94 19 -94 19 0 20 157 1 187 -25 37 -48 45 -100 31 -40
-11 -48 -18 -66 -56 -10 -25 -19 -53 -19 -64 0 -10 -4 -16 -10 -13 -5 3 -20
-1 -31 -9 -14 -9 -33 -13 -53 -9 -47 9 -53 20 -23 47 23 21 27 33 27 81 0 81
-26 72 -74 -27 -25 -52 -28 -52 -69 15 -10 15 -23 27 -30 27 -14 0 -67 -52
-86 -85 l-12 -20 5 20 c3 11 10 84 17 163 9 106 9 146 1 154 -18 18 -26 1 -32
-59 -5 -58 -24 -83 -76 -97 -20 -6 -21 -4 -14 31 3 21 15 60 25 86 13 34 15
51 7 59 -8 8 -15 0 -27 -28z m320 -292 c-10 -10 -16 -12 -13 -7 3 6 8 19 13
30 5 14 9 16 12 7 3 -8 -3 -21 -12 -30z"/>
<path d="M4363 9424 c-3 -10 8 -44 26 -80 20 -39 35 -86 38 -120 l6 -56 -27
17 c-70 46 -178 -34 -178 -132 0 -39 16 -63 44 -63 50 0 138 71 172 137 29 57
16 157 -35 271 -20 44 -35 53 -46 26z m31 -270 c21 -21 20 -27 -10 -64 -25
-29 -91 -70 -114 -70 -17 0 -11 63 10 98 30 49 84 66 114 36z"/>
<path d="M4713 9222 c-6 -4 -26 -37 -45 -74 l-35 -67 -26 55 c-25 51 -40 64
-50 46 -3 -4 4 -25 15 -47 41 -82 47 -109 33 -142 l-13 -31 -124 -7 c-131 -7
-335 -2 -380 10 -22 6 -28 4 -28 -8 0 -31 73 -40 301 -35 l215 5 -23 -64 c-13
-35 -23 -75 -23 -88 0 -37 26 -31 33 8 4 29 70 208 85 232 4 6 8 19 9 29 5 32
64 144 79 150 8 3 14 10 14 15 0 12 -24 21 -37 13z"/>
<path d="M5833 9194 c-5 -1 -33 -9 -63 -17 -30 -9 -84 -18 -120 -22 -151 -15
-183 -83 -68 -147 24 -13 43 -30 43 -38 0 -16 -46 -45 -87 -55 -24 -6 -28 -4
-28 14 0 12 -6 21 -15 21 -17 0 -31 -43 -20 -61 12 -18 89 -5 139 25 38 22 46
32 46 56 0 26 -8 34 -54 60 -30 17 -57 37 -60 45 -6 16 19 39 33 30 6 -3 20
-1 31 5 10 6 66 17 124 25 118 17 156 28 156 49 0 12 -23 16 -57 10z"/>
<path d="M4973 8990 c-13 -5 -23 -17 -23 -26 0 -13 5 -15 23 -8 12 4 50 8 85
7 44 0 62 3 62 12 0 7 -7 16 -16 19 -23 9 -105 6 -131 -4z"/>
<path d="M5007 8900 c-42 -8 -65 -24 -49 -34 5 -3 35 -1 67 5 31 6 74 8 95 4
43 -7 62 8 31 24 -22 12 -86 13 -144 1z"/>
<path d="M4185 8841 c-3 -5 3 -27 14 -48 11 -21 22 -56 26 -79 l6 -40 -35 4
c-64 7 -136 -53 -136 -115 0 -96 121 -78 178 27 20 39 23 54 18 108 -8 93 -49
177 -71 143z m31 -206 c15 -38 -71 -117 -111 -101 -18 6 -19 45 -2 66 35 44
102 64 113 35z"/>
<path d="M4388 8718 c-17 -6 -28 -17 -28 -29 0 -23 0 -23 36 -4 43 22 74 20
74 -6 0 -41 -70 -139 -100 -139 -18 0 -34 -23 -23 -34 13 -12 33 -5 66 23 l33
30 18 -21 c16 -18 26 -20 97 -16 54 3 85 10 96 20 25 25 7 41 -27 23 -38 -20
-139 -20 -146 -1 -8 20 21 77 58 114 25 27 28 33 14 38 -9 4 -25 -1 -34 -9
-16 -15 -19 -15 -30 3 -13 22 -58 25 -104 8z"/>
<path d="M15165 8225 c-33 -35 -108 -177 -119 -227 -5 -23 -12 -28 -36 -29
-51 -2 -55 -4 -55 -19 0 -11 9 -14 33 -12 37 2 37 3 17 -45 -21 -49 -46 -163
-39 -174 13 -21 23 -5 38 65 9 40 27 93 39 117 l22 44 75 5 c75 5 100 13 100
31 0 5 -33 7 -85 3 l-84 -7 54 104 c30 57 67 115 82 128 24 21 28 22 38 7 16
-21 35 -20 35 2 0 53 -68 57 -115 7z"/>
<path d="M5804 8193 c8 -64 60 -173 82 -173 11 0 14 -5 9 -17 -3 -10 -9 -39
-12 -65 -5 -39 -3 -48 9 -48 11 0 17 15 22 49 6 47 70 211 101 257 19 30 19
44 -1 44 -10 0 -31 -34 -60 -95 -24 -52 -49 -95 -54 -95 -13 0 -50 74 -50 100
0 30 -27 90 -41 90 -8 0 -10 -14 -5 -47z"/>
<path d="M11376 8118 c-8 -51 -56 -209 -67 -224 -11 -14 -69 -154 -69 -165 0
-5 6 -9 13 -9 11 0 46 63 114 207 9 17 31 48 49 69 28 30 36 34 49 24 26 -21
19 -95 -15 -162 -52 -101 -38 -115 38 -37 54 56 62 54 66 -16 4 -70 20 -80
124 -79 89 2 153 17 136 34 -5 5 -37 5 -80 -2 -38 -6 -86 -8 -106 -4 -40 7
-61 36 -27 36 31 0 117 40 124 58 9 25 -28 67 -62 70 -23 2 -36 -4 -56 -27
-26 -32 -37 -31 -37 4 0 36 -12 37 -47 3 l-33 -32 16 46 c24 72 -4 148 -55
148 -5 0 -23 -11 -39 -25 l-30 -25 15 60 c15 58 13 90 -5 90 -5 0 -12 -19 -16
-42z m309 -253 c0 -14 -11 -24 -39 -33 -21 -7 -41 -10 -44 -8 -2 3 6 19 18 36
25 36 65 39 65 5z"/>
<path d="M9933 8138 c-5 -7 -15 -44 -22 -83 -20 -116 -33 -168 -53 -219 -12
-31 -15 -53 -9 -59 14 -14 28 -1 34 30 6 30 72 113 89 113 6 0 9 -26 7 -67 -4
-58 -2 -68 14 -71 14 -3 17 5 19 50 3 83 0 102 -18 115 -13 10 -22 9 -45 -2
l-28 -15 6 38 c3 20 11 66 19 101 14 63 8 96 -13 69z"/>
<path d="M9369 8108 c0 -1 -2 -19 -4 -38 -4 -38 -60 -192 -95 -260 -17 -32
-19 -45 -10 -54 9 -8 16 -5 28 14 9 14 39 48 66 75 l51 50 3 -28 c2 -16 -1
-34 -7 -41 -8 -10 -8 -22 -1 -41 9 -23 13 -25 26 -15 11 10 14 29 12 79 -3 58
-5 66 -24 69 -12 2 -35 -9 -53 -24 l-32 -26 22 53 c52 132 60 177 32 187 -7 2
-13 2 -14 0z"/>
<path d="M10630 8095 c-13 -16 -5 -75 11 -75 17 0 30 50 19 71 -13 23 -14 23
-30 4z"/>
<path d="M2474 8054 c-4 -15 0 -40 11 -64 14 -31 17 -56 13 -122 -10 -154 -46
-202 -95 -129 -27 40 -72 177 -80 244 -6 46 -15 58 -29 36 -3 -6 -7 -77 -8
-158 -1 -80 -6 -157 -10 -170 -8 -19 -6 -22 10 -19 22 4 32 35 33 113 l2 60
25 -60 c59 -143 135 -153 170 -24 16 62 19 255 4 293 -12 33 -38 33 -46 0z"/>
<path d="M9620 8036 c0 -21 4 -24 28 -21 15 2 32 4 37 5 15 1 -35 40 -51 40
-8 0 -14 -10 -14 -24z"/>
<path d="M4551 7996 c-13 -7 -36 -31 -51 -54 l-27 -41 -24 37 c-41 63 -134 71
-134 12 0 -13 6 -25 13 -27 7 -3 12 4 12 16 0 39 71 16 90 -29 16 -38 -5 -84
-59 -132 -46 -43 -61 -47 -61 -18 0 26 -16 26 -30 -1 -42 -78 80 -58 144 24
l25 31 9 -25 c12 -30 29 -44 62 -52 36 -9 68 2 76 25 8 27 -1 33 -26 15 -14
-10 -31 -12 -48 -8 -23 6 -27 14 -30 47 -4 51 32 122 75 149 47 29 33 58 -16
31z"/>
<path d="M12597 8003 c-3 -4 -8 -22 -11 -39 -6 -24 -3 -33 10 -38 21 -8 21 -8
26 38 3 36 -12 60 -25 39z"/>
<path d="M7920 7961 c0 -16 22 -26 118 -57 116 -38 117 -38 77 -46 -22 -4
-148 -12 -280 -18 -132 -5 -343 -15 -470 -21 -424 -20 -575 -22 -710 -10 -138
13 -185 7 -185 -25 0 -13 5 -15 23 -9 28 10 60 10 277 -1 120 -6 225 -5 335 3
88 6 320 16 515 23 195 6 391 15 435 20 44 6 91 10 105 10 24 0 23 -1 -10 -21
-19 -12 -76 -43 -127 -69 -106 -55 -142 -80 -143 -97 0 -20 18 -15 63 16 23
16 76 45 118 65 82 41 194 120 194 138 0 18 -57 43 -201 87 -119 36 -134 38
-134 12z"/>
<path d="M9043 7943 c-45 -19 -96 -48 -114 -63 -30 -24 -32 -30 -22 -51 l11
-24 10 25 c10 25 79 69 132 85 20 6 13 -5 -35 -54 -66 -68 -79 -87 -70 -101 4
-6 18 -2 35 10 16 11 45 27 66 36 l37 15 -7 -31 c-13 -66 29 -88 92 -50 42 26
65 78 56 128 -7 42 -52 114 -65 106 -14 -8 -11 -25 7 -45 21 -24 34 -86 24
-114 -10 -28 -49 -65 -66 -65 -8 0 -14 18 -16 48 -3 47 -3 47 -37 45 l-33 -1
45 46 c44 46 62 82 42 88 -5 1 -47 -13 -92 -33z"/>
<path d="M5091 7962 c-19 -4 -36 -12 -38 -18 -5 -16 27 -41 35 -27 11 16 73
23 117 13 42 -9 68 1 49 20 -13 13 -119 20 -163 12z"/>
<path d="M13480 7953 c-27 -10 -52 -37 -75 -83 -32 -65 -38 -95 -20 -110 16
-14 19 -10 29 47 3 18 17 51 31 73 20 32 32 41 65 46 46 8 56 34 13 33 -16 0
-35 -3 -43 -6z"/>
<path d="M9678 7940 c-29 -17 -88 -107 -88 -133 0 -24 22 -57 38 -57 51 0 152
58 152 86 0 18 -26 18 -37 0 -12 -19 -68 -46 -98 -46 -42 0 -31 35 30 96 30
31 55 57 55 60 0 8 -35 4 -52 -6z"/>
<path d="M10566 7928 c-1 -7 -13 -43 -25 -80 -23 -68 -22 -88 5 -88 15 0 38
46 29 60 -3 4 2 27 10 51 16 44 14 69 -5 69 -6 0 -12 -6 -14 -12z"/>
<path d="M12974 7905 c-7 -19 -14 -42 -14 -50 0 -9 -12 -41 -27 -71 l-27 -55
-23 38 c-13 21 -23 50 -23 66 0 17 -5 27 -15 27 -20 0 -20 -56 0 -90 8 -14 14
-35 15 -48 0 -27 21 -37 48 -23 28 15 70 90 83 149 10 41 15 49 30 45 24 -7
24 9 1 30 -26 24 -31 22 -48 -18z"/>
<path d="M10677 7924 c-3 -3 -3 -13 1 -22 5 -14 3 -15 -10 -4 -14 11 -19 9
-37 -14 -12 -15 -20 -32 -18 -38 3 -9 50 -38 82 -50 15 -5 -36 -56 -57 -56
-21 0 -24 -28 -3 -36 16 -6 81 39 95 67 15 27 3 45 -42 62 -47 19 -46 33 5 60
20 10 34 23 31 28 -6 10 -37 12 -47 3z"/>
<path d="M13897 7915 c-103 -35 -163 -141 -102 -181 43 -28 207 -2 177 28 -7
7 -21 7 -43 -1 -35 -12 -88 -14 -113 -5 -22 8 -20 36 5 68 19 24 26 26 64 20
48 -7 110 9 118 31 7 15 -19 40 -49 47 -12 3 -37 0 -57 -7z m58 -35 c-11 -5
-33 -9 -50 -9 -23 -1 -26 2 -15 9 8 5 31 9 50 9 29 0 31 -2 15 -9z"/>
<path d="M13614 7895 c-15 -23 -15 -27 6 -60 24 -39 21 -68 -7 -63 -12 2 -18
-3 -18 -16 0 -28 18 -30 48 -6 30 24 35 56 12 86 -19 25 -19 50 0 58 22 8 18
26 -5 26 -11 0 -27 -11 -36 -25z"/>
<path d="M9528 7883 c-14 -35 -16 -117 -3 -121 6 -1 13 17 17 40 3 24 11 55
16 69 6 15 8 30 5 33 -13 12 -24 5 -35 -21z"/>
<path d="M13122 7880 c-66 -41 -76 -136 -17 -174 29 -19 103 -21 140 -4 26 12
29 36 4 29 -51 -13 -101 -12 -124 3 -33 22 -32 36 5 36 17 0 30 5 30 10 0 6 3
9 8 9 18 -3 31 3 56 26 31 29 32 39 6 65 -26 26 -66 25 -108 0z m85 -27 c6
-16 -55 -53 -84 -53 -31 0 -29 13 8 45 32 26 69 30 76 8z"/>
<path d="M12640 7832 c-58 -56 -74 -92 -50 -107 16 -10 41 15 35 35 -6 19 65
90 90 90 20 0 20 -51 0 -116 -18 -61 -19 -84 -1 -84 15 0 49 125 48 175 -1 28
-31 65 -53 65 -6 0 -37 -26 -69 -58z"/>
<path d="M2830 7811 c-14 -66 -8 -122 16 -146 22 -22 30 -19 78 25 l43 40 11
-25 c15 -32 48 -33 93 -2 29 19 34 29 37 69 2 32 -2 50 -13 62 -22 22 -35 20
-35 -4 0 -11 5 -20 10 -20 6 0 10 -16 10 -35 0 -29 -5 -37 -32 -51 -30 -15
-32 -15 -45 2 -7 10 -13 35 -13 56 0 48 -25 52 -34 5 -4 -20 -22 -49 -46 -72
l-39 -38 -12 27 c-10 21 -10 40 -1 85 15 73 15 81 -2 81 -8 0 -18 -22 -26 -59z"/>
<path d="M5034 7861 c-2 -2 -4 -10 -4 -18 0 -17 205 -19 215 -2 4 6 5 12 4 14
-6 5 -210 11 -215 6z"/>
<path d="M12501 7825 c-49 -77 -67 -180 -31 -180 10 0 15 10 16 30 1 60 5 72
38 128 19 30 31 58 28 61 -12 13 -24 4 -51 -39z"/>
<path d="M2630 7818 c-25 -55 -25 -89 1 -122 23 -30 56 -33 99 -11 61 32 57
87 -10 135 -17 12 -28 26 -25 31 4 5 -6 9 -20 9 -21 0 -30 -8 -45 -42z m90
-38 c11 -11 20 -26 20 -34 0 -18 -38 -46 -62 -46 -27 0 -44 44 -30 75 14 30
44 33 72 5z"/>
<path d="M6015 7848 c-44 -5 -171 -7 -283 -4 -187 6 -203 5 -200 -11 3 -15 26
-17 213 -20 116 -3 246 0 290 5 46 5 85 6 91 1 17 -14 37 14 22 29 -13 13 -19
13 -133 0z"/>
<path d="M14749 7830 c-83 -14 -119 -42 -119 -91 0 -38 86 -37 162 2 35 18 38
23 35 57 -3 41 -9 44 -78 32z m41 -43 c0 -17 -38 -35 -90 -43 -42 -7 -52 4
-26 25 33 27 116 40 116 18z"/>
<path d="M3275 7663 c-3 -32 -17 -77 -30 -100 -23 -41 -23 -53 0 -53 20 0 57
94 59 150 2 75 -20 77 -29 3z"/>
<path d="M5955 7693 c-116 -9 -145 -15 -169 -36 -13 -12 -34 -29 -46 -37 -30
-21 -18 -44 46 -85 30 -19 54 -39 54 -44 0 -14 -23 -28 -57 -36 -42 -8 -70 1
-76 25 -7 28 -27 25 -27 -4 0 -49 65 -69 139 -42 72 26 68 76 -11 125 -48 30
-51 34 -34 46 10 8 36 17 58 20 21 4 42 13 44 20 3 7 26 13 57 14 88 3 160 15
165 29 4 12 -40 14 -143 5z"/>
<path d="M12184 7599 c-30 -29 -65 -75 -79 -104 l-24 -53 -78 -7 c-43 -5 -87
-9 -97 -9 -11 -1 -21 -7 -24 -15 -4 -12 11 -13 92 -8 l96 6 -16 -32 c-27 -53
-74 -106 -88 -101 -9 3 -13 -3 -12 -17 0 -12 7 -24 14 -27 19 -6 79 65 110
130 27 56 27 56 80 63 63 9 65 30 4 30 -23 0 -42 1 -42 3 0 25 102 152 121
152 5 0 8 -14 7 -31 -2 -18 2 -34 8 -36 13 -4 24 28 24 75 0 48 -31 42 -96
-19z"/>
<path d="M13037 7553 c-22 -77 -26 -82 -76 -91 -51 -8 -55 -27 -6 -27 25 0 34
-4 30 -13 -11 -30 -28 -142 -22 -149 13 -13 25 12 41 89 19 84 10 77 109 93
22 3 37 11 37 20 0 11 -11 13 -52 8 -48 -6 -51 -5 -43 13 12 29 24 98 19 106
-12 18 -22 4 -37 -49z"/>
<path d="M10544 7574 c-7 -28 6 -61 22 -56 14 3 11 75 -3 79 -7 3 -15 -8 -19
-23z"/>
<path d="M11170 7548 c-7 -18 -28 -58 -45 -88 -18 -30 -36 -66 -40 -80 -4 -14
-15 -30 -24 -37 -14 -10 -14 -13 3 -32 23 -26 32 -21 40 23 4 19 18 56 33 83
42 77 73 142 73 153 0 23 -29 7 -40 -22z"/>
<path d="M13277 7563 c-12 -11 -8 -50 6 -62 19 -15 28 -3 21 28 -8 31 -18 44
-27 34z"/>
<path d="M8656 7549 c-2 -8 -11 -34 -20 -59 -8 -25 -22 -72 -31 -105 -9 -33
-26 -77 -38 -97 -21 -38 -19 -55 5 -45 7 2 35 48 61 100 90 176 211 259 161
109 -9 -26 -23 -60 -31 -76 -26 -50 0 -53 56 -6 42 35 53 41 65 31 10 -8 13
-23 10 -39 -8 -38 28 -67 97 -81 55 -12 109 -7 109 9 0 4 -28 11 -62 14 -61 7
-118 29 -118 45 0 5 22 11 49 15 62 8 101 37 85 63 -16 26 -60 28 -101 3 -32
-19 -37 -19 -53 -5 -21 19 -40 19 -66 1 -21 -15 -21 -15 -6 31 14 40 14 49 1
72 -9 17 -25 27 -43 29 -24 3 -38 -6 -81 -52 l-52 -55 16 44 c12 35 13 47 4
56 -10 10 -13 9 -17 -2z m364 -138 c-8 -5 -28 -11 -45 -15 l-30 -6 25 15 c14
8 34 14 45 14 16 0 17 -1 5 -8z"/>
<path d="M10182 7519 c1 -12 9 -24 16 -27 9 -3 13 3 10 19 -1 12 -9 24 -16 27
-9 3 -13 -3 -10 -19z"/>
<path d="M12725 7458 c-66 -36 -113 -113 -101 -164 6 -21 12 -24 49 -24 57 0
87 9 87 26 0 11 -13 14 -52 12 -51 -3 -53 -2 -50 22 3 35 33 72 73 92 33 17
44 38 24 44 -5 2 -19 -2 -30 -8z"/>
<path d="M10855 7430 c-21 -17 -45 -40 -53 -52 -14 -19 -13 -22 3 -34 14 -11
25 -10 66 7 71 27 80 26 69 -12 -5 -18 -7 -36 -4 -40 9 -16 34 -9 34 9 0 9 3
33 6 53 8 48 -9 54 -81 29 -46 -16 -55 -17 -55 -4 0 7 3 13 8 12 11 -3 82 43
82 53 0 19 -39 8 -75 -21z"/>
<path d="M13450 7445 c-9 -11 -7 -16 10 -25 32 -17 23 -59 -19 -87 -33 -23
-101 -32 -101 -14 0 11 67 71 80 71 6 0 10 7 10 15 0 26 -29 16 -75 -26 -50
-46 -55 -63 -24 -90 48 -42 179 27 179 94 0 53 -36 91 -60 62z"/>
<path d="M9695 7431 c-19 -8 -18 -9 5 -14 17 -3 13 -4 -12 -4 -78 2 -143 -118
-90 -166 40 -36 115 -15 171 48 33 38 39 71 20 108 -20 37 -49 46 -94 28z m41
-42 c4 -8 9 -7 15 2 5 9 10 5 14 -14 13 -51 -59 -120 -120 -115 -35 3 -43 25
-25 69 20 47 98 87 116 58z"/>
<path d="M9885 7409 c-43 -38 -89 -114 -81 -134 9 -23 21 -18 39 18 36 67 54
92 80 107 23 13 30 13 48 2 27 -17 49 -1 29 23 -22 26 -75 19 -115 -16z"/>
<path d="M12331 7422 c-6 -11 -11 -27 -11 -35 0 -23 -56 -65 -96 -73 -45 -8
-53 0 -31 37 22 39 22 48 -2 42 -23 -6 -44 -51 -39 -85 10 -72 185 -1 203 84
9 38 -8 59 -24 30z"/>
<path d="M12495 7424 c-16 -8 -40 -25 -53 -37 -13 -12 -25 -21 -28 -19 -14 8
-27 -4 -50 -49 -24 -48 -26 -79 -6 -79 5 0 15 13 22 30 14 35 99 116 135 130
53 20 58 13 28 -40 -20 -35 -25 -52 -17 -60 8 -8 20 4 42 40 18 28 32 57 32
64 0 36 -54 47 -105 20z"/>
<path d="M13602 7428 c-13 -16 -52 -105 -52 -119 0 -15 30 -10 36 6 5 12 104
75 118 75 2 0 -1 -13 -6 -28 -13 -34 -4 -81 17 -89 22 -8 65 5 72 23 8 22 -2
27 -27 14 -37 -20 -47 2 -27 57 30 84 18 92 -61 43 -58 -36 -66 -37 -51 -9 13
25 -2 47 -19 27z"/>
<path d="M10625 7404 c-46 -30 -105 -84 -105 -96 0 -4 6 -8 13 -8 19 0 49 35
40 45 -5 4 0 5 9 2 9 -3 22 1 29 9 7 9 25 22 41 30 l28 15 0 -41 c0 -27 5 -43
15 -47 22 -8 23 -5 16 57 -7 67 -27 74 -86 34z"/>
<path d="M13176 7391 c-13 -14 -29 -36 -35 -48 -17 -33 7 -42 31 -12 10 13 27
35 38 47 11 13 20 27 20 31 0 17 -31 6 -54 -18z"/>
<path d="M10440 7390 c0 -12 -9 -33 -21 -49 -22 -30 -23 -81 -2 -88 7 -3 15 8
18 24 4 15 15 48 25 73 10 24 16 48 14 52 -10 16 -34 7 -34 -12z"/>
<path d="M10241 7381 c-83 -29 -131 -71 -118 -105 7 -18 51 -22 89 -7 13 4 35
11 50 14 26 7 26 6 21 -36 -9 -69 -28 -106 -60 -112 -53 -12 -104 -39 -122
-64 -42 -59 -55 -151 -27 -179 14 -14 18 -14 37 3 32 30 159 200 159 214 0 7
4 10 9 7 4 -3 16 1 27 8 15 11 16 17 6 29 -15 18 5 158 25 170 23 14 15 57
-13 67 -14 6 -26 10 -27 10 -1 -1 -26 -9 -56 -19z m57 -33 c-5 -17 -64 -45
-112 -54 -50 -9 -41 8 22 41 51 26 96 33 90 13z m-74 -260 c-17 -30 -93 -125
-114 -143 l-23 -20 6 37 c9 56 28 90 66 115 37 25 77 31 65 11z"/>
<path d="M10047 7338 c-28 -76 -31 -98 -13 -98 9 0 18 6 20 13 2 6 11 35 20
62 20 60 20 65 2 65 -7 0 -20 -19 -29 -42z"/>
<path d="M13917 7304 c-13 -13 -7 -44 8 -44 8 0 15 7 15 15 0 8 0 18 1 22 1
10 -16 15 -24 7z"/>
<path d="M4787 7007 c-3 -8 8 -42 24 -78 16 -35 29 -68 29 -74 0 -5 -21 -10
-46 -10 -42 -1 -51 -5 -85 -43 -44 -50 -56 -90 -37 -129 20 -42 54 -55 97 -37
77 32 117 98 108 177 -6 46 -40 178 -51 196 -10 15 -33 14 -39 -2z m37 -203
c9 -8 16 -28 16 -44 0 -51 -80 -114 -124 -97 -40 15 -15 106 38 138 38 23 50
24 70 3z"/>
<path d="M6557 6903 c-4 -3 -7 -39 -7 -79 0 -41 -7 -110 -16 -154 -17 -86 -13
-130 12 -130 12 0 15 6 10 24 -3 13 1 59 8 103 26 141 22 266 -7 236z"/>
<path d="M7935 6853 c-4 -21 -11 -53 -17 -72 -17 -54 -12 -168 7 -198 20 -31
43 -18 26 15 -21 40 -8 197 24 275 5 13 2 17 -13 17 -17 0 -22 -8 -27 -37z"/>
<path d="M4956 6831 c-9 -14 3 -40 47 -103 37 -54 38 -58 27 -93 -7 -20 -10
-56 -8 -81 2 -24 2 -44 0 -44 -2 0 -65 -8 -140 -17 -75 -10 -170 -18 -210 -18
-60 0 -72 -2 -70 -15 6 -29 73 -25 418 20 41 6 119 11 173 13 69 1 97 5 97 14
0 7 -12 16 -27 20 -26 7 -45 7 -163 0 -43 -2 -45 -1 -48 27 -5 39 17 113 34
120 8 3 14 17 14 32 0 15 11 46 25 70 16 27 21 45 15 49 -17 10 -36 -11 -60
-67 l-22 -52 -20 25 c-10 13 -28 43 -38 67 -19 41 -33 52 -44 33z"/>
<path d="M9555 6719 c-48 -12 -97 -17 -122 -14 -31 5 -52 1 -82 -15 -57 -28
-55 -55 10 -126 39 -43 48 -59 38 -65 -21 -13 -113 -11 -127 3 -16 16 -29 1
-16 -20 16 -24 127 -29 160 -7 35 23 30 42 -27 102 -28 29 -49 59 -46 66 2 7
41 17 93 24 144 19 208 36 212 56 2 9 0 16 -5 16 -4 -1 -44 -10 -88 -20z"/>
<path d="M4020 6649 c-9 -16 -8 -25 6 -40 9 -10 23 -19 30 -19 18 0 27 36 14
60 -14 26 -36 26 -50 -1z"/>
<path d="M7148 6613 c-20 -5 -24 -28 -8 -38 6 -4 17 -1 25 5 14 12 46 10 108
-5 37 -10 35 10 -3 30 -27 14 -84 18 -122 8z"/>
<path d="M5423 6563 c-7 -2 -13 -13 -13 -23 0 -15 6 -17 39 -13 21 3 62 -2 94
-11 67 -19 67 -19 67 -2 0 23 -152 63 -187 49z"/>
<path d="M8645 6540 c-11 -18 4 -27 42 -24 21 2 64 3 96 3 44 1 57 4 57 16 0
12 -17 15 -94 15 -53 0 -98 -4 -101 -10z"/>
<path d="M6615 6526 c-49 -6 -197 -10 -328 -9 -215 2 -238 1 -235 -14 3 -14
32 -16 238 -21 242 -5 565 12 577 31 17 27 -90 33 -252 13z"/>
<path d="M8125 6521 c-19 -18 -345 -32 -455 -20 -99 11 -123 8 -104 -11 16
-16 196 -33 289 -26 50 3 139 9 198 12 101 7 108 8 105 27 -3 23 -19 32 -33
18z"/>
<path d="M7165 6501 c-26 -4 -40 -11 -40 -21 0 -16 9 -16 88 -5 31 4 47 11 47
21 0 15 -22 16 -95 5z"/>
<path d="M7283 6495 c0 -8 7 -15 15 -15 7 0 12 5 10 12 -6 18 -25 21 -25 3z"/>
<path d="M5395 6469 c-12 -18 29 -25 133 -23 139 2 135 1 130 17 -4 9 -40 12
-132 13 -70 0 -129 -3 -131 -7z"/>
<path d="M8653 6432 c-19 -2 -33 -9 -33 -17 0 -10 20 -13 93 -12 68 2 92 5 92
15 0 14 -87 22 -152 14z"/>
<path d="M4102 6418 c-18 -18 -15 -55 5 -63 22 -8 65 38 57 60 -7 18 -45 20
-62 3z"/>
<path d="M3860 6376 c0 -37 23 -50 50 -28 31 25 21 52 -20 52 -25 0 -30 -4
-30 -24z"/>
<path d="M4730 6361 c0 -5 11 -33 25 -63 14 -29 25 -66 25 -82 0 -27 -1 -28
-17 -14 -30 26 -51 28 -76 8 -47 -37 -75 -151 -47 -185 18 -22 65 -13 98 18
36 33 72 115 72 166 0 50 -46 161 -66 161 -8 0 -14 -4 -14 -9z m19 -191 l23
-20 -26 -45 c-25 -42 -51 -65 -75 -65 -19 0 -12 71 11 111 25 44 33 46 67 19z"/>
<path d="M7896 6298 c4 -18 7 -40 7 -48 0 -8 -1 -44 -2 -80 -5 -129 -2 -160
14 -160 8 0 15 3 15 8 5 64 1 273 -4 290 -4 12 -14 22 -22 22 -12 0 -14 -7 -8
-32z"/>
<path d="M6270 6290 c0 -11 6 -20 14 -20 20 0 55 -51 63 -90 6 -32 6 -32 -18
-17 -32 21 -62 7 -107 -52 -24 -32 -32 -52 -30 -75 3 -29 5 -31 45 -30 74 1
146 72 145 143 -1 39 -30 110 -60 144 -21 24 -52 22 -52 -3z m50 -161 c0 -6 7
-9 15 -5 43 16 -11 -55 -59 -78 -65 -31 -74 -13 -26 52 28 39 70 58 70 31z"/>
<path d="M5047 6285 c-24 -23 -59 -126 -52 -152 6 -26 35 -36 91 -31 25 2 40
8 42 18 2 13 -8 16 -50 15 -51 0 -53 1 -50 25 1 13 13 48 27 77 24 53 20 76
-8 48z"/>
<path d="M4878 6259 c-21 -12 -24 -39 -5 -39 7 0 18 5 24 11 7 7 23 9 37 5 41
-10 35 -51 -15 -98 -31 -29 -39 -42 -30 -51 14 -14 78 45 98 92 13 31 13 36
-5 60 -21 29 -74 39 -104 20z"/>
<path d="M6461 6241 c-20 -13 -2 -34 24 -27 14 4 31 -1 44 -12 21 -17 21 -18
4 -52 -10 -19 -30 -41 -45 -48 -33 -15 -39 -52 -9 -52 38 0 107 105 97 146
-10 39 -81 67 -115 45z"/>
<path d="M6622 6216 c-49 -72 -45 -142 9 -169 47 -22 95 -3 69 27 -6 8 -8 26
-4 40 3 14 2 26 -3 26 -18 0 -46 -39 -40 -55 8 -18 -4 -20 -21 -3 -20 20 -14
73 13 112 14 20 25 41 25 46 0 21 -26 8 -48 -24z"/>
<path d="M7895 5898 c-60 -5 -155 -12 -210 -16 -79 -5 -100 -10 -100 -22 0
-11 9 -14 35 -13 19 2 103 8 185 14 83 6 204 13 270 15 90 2 120 6 120 16 0
16 -142 19 -300 6z"/>
<path d="M6048 5890 c-56 -10 -68 -16 -68 -37 0 -11 6 -14 23 -8 77 24 128 27
263 16 77 -7 219 -11 315 -11 96 1 181 0 189 -2 7 -2 16 5 18 15 2 9 -2 17
-10 18 -7 0 -119 1 -248 3 -129 2 -280 6 -335 9 -55 3 -121 2 -147 -3z"/>
<path d="M7784 5751 c-23 -10 -45 -24 -48 -30 -13 -20 4 -50 42 -72 47 -28 92
-69 92 -85 0 -27 -87 -46 -142 -30 -23 7 -28 5 -28 -8 0 -28 48 -40 109 -27
117 23 124 82 16 156 -30 21 -55 42 -55 46 0 16 41 30 88 30 159 2 206 5 209
15 10 29 -222 33 -283 5z"/>
<path d="M6245 5750 c-4 -6 0 -19 8 -28 20 -22 56 -102 57 -123 0 -14 -8 -16
-43 -12 -79 9 -156 -55 -142 -117 20 -90 174 -52 214 52 14 37 -3 121 -38 183
-27 50 -44 64 -56 45z m43 -196 c29 -8 28 -27 -5 -64 -53 -59 -156 -48 -124
13 24 45 76 65 129 51z"/>
<path d="M6450 5658 c0 -7 13 -48 29 -91 28 -73 28 -79 15 -124 -27 -91 -11
-175 31 -159 16 6 17 8 1 24 -9 10 -16 32 -16 48 0 42 20 108 36 117 7 4 11
14 8 22 -6 15 45 113 73 141 11 11 13 18 5 26 -15 15 -27 4 -70 -67 l-38 -64
-24 70 c-13 39 -29 69 -37 69 -7 0 -13 -6 -13 -12z"/>
<path d="M1560 5313 c-31 -12 -70 -45 -70 -59 0 -20 20 -17 45 6 24 22 95 39
95 23 0 -6 -22 -31 -50 -57 -27 -26 -50 -53 -50 -61 0 -7 17 -19 38 -25 20 -7
40 -16 45 -19 4 -4 -7 -28 -23 -53 -37 -56 -112 -126 -118 -110 -6 19 -26 14
-40 -9 -9 -14 -10 -25 -4 -31 20 -20 68 4 128 66 102 103 115 153 49 177 l-33
12 44 45 c34 34 44 51 42 71 -3 23 -8 26 -43 28 -22 1 -47 -1 -55 -4z"/>
<path d="M1317 5294 c-4 -4 -7 -18 -7 -31 0 -14 -5 -33 -11 -44 -15 -28 -50
-240 -43 -261 8 -25 38 -24 31 1 -5 22 27 222 41 248 23 43 14 112 -11 87z"/>
<path d="M1189 5248 c-27 -100 -55 -265 -49 -287 12 -46 30 -36 30 16 0 40 24
164 55 286 6 21 4 27 -9 27 -10 0 -19 -15 -27 -42z"/>
<path d="M13421 5143 c-55 -27 -125 -121 -161 -218 -26 -68 -36 -85 -49 -80
-9 4 -40 9 -70 12 -48 6 -53 4 -49 -13 3 -15 13 -19 57 -21 30 -2 57 -5 59 -8
3 -3 -7 -42 -22 -88 -29 -88 -32 -152 -6 -152 11 0 14 10 13 40 -2 24 9 70 25
115 l28 75 57 3 c39 2 57 7 57 16 0 8 7 19 15 26 12 10 13 15 4 20 -17 11 -49
0 -49 -16 0 -9 -12 -14 -34 -14 l-35 0 18 53 c28 81 55 128 101 175 57 59 120
81 103 36 -4 -12 -1 -15 13 -12 25 4 29 31 9 52 -21 20 -41 20 -84 -1z"/>
<path d="M11547 5073 c-4 -3 -7 -15 -7 -25 0 -10 -16 -68 -36 -129 l-35 -110
-32 3 c-38 4 -47 -25 -9 -30 28 -4 28 -9 -3 -82 -29 -68 -32 -110 -10 -110 8
0 15 8 15 18 0 9 12 50 27 90 l28 73 45 -5 c25 -3 63 -2 85 2 34 6 40 11 42
34 3 37 -12 43 -38 17 -16 -16 -34 -22 -66 -22 -23 0 -45 2 -48 4 -2 3 14 61
36 129 22 68 37 130 35 137 -6 14 -19 17 -29 6z"/>
<path d="M10784 5045 c-37 -15 -77 -66 -92 -115 -7 -19 -18 -75 -27 -124 -8
-49 -17 -91 -19 -93 -2 -2 -31 -4 -65 -5 -43 -1 -61 -5 -61 -14 0 -18 35 -27
76 -19 41 7 42 1 8 -49 -24 -35 -29 -37 -60 -31 -19 3 -34 2 -34 -3 0 -16 25
-32 51 -32 28 0 66 36 94 90 11 21 25 29 63 37 l50 10 -14 -33 c-18 -44 -18
-79 2 -95 13 -11 22 -9 58 10 23 13 52 38 64 55 25 37 53 112 45 120 -16 16
-30 2 -41 -41 -19 -70 -112 -149 -112 -95 0 15 16 44 52 94 19 27 6 29 -68 14
-38 -8 -70 -13 -71 -12 -7 7 37 217 51 244 27 53 87 81 100 47 8 -23 28 -18
24 6 -5 36 -37 50 -74 34z"/>
<path d="M3589 5025 c-66 -24 -119 -55 -119 -70 0 -20 6 -19 71 13 30 16 65
31 77 34 12 4 22 13 22 22 0 19 -3 19 -51 1z"/>
<path d="M6637 5015 c-8 -7 -20 -28 -27 -47 -21 -56 -64 -163 -66 -167 -2 -2
-18 -6 -36 -10 -41 -9 -46 -38 -5 -33 15 2 27 1 27 -2 0 -4 -12 -49 -26 -101
-15 -52 -23 -102 -20 -111 9 -23 20 -9 33 41 6 22 21 75 33 117 l23 77 40 3
c54 4 60 26 8 30 l-39 3 22 50 c30 69 66 125 66 103 0 -10 7 -18 15 -18 17 0
20 23 5 49 -13 26 -37 33 -53 16z"/>
<path d="M4117 4918 c-16 -51 -42 -128 -58 -171 -39 -103 -46 -137 -27 -137
15 0 60 89 73 145 18 80 112 188 178 206 65 17 65 3 3 -120 -31 -61 -56 -117
-56 -126 0 -24 26 -18 47 11 l19 26 30 -30 c22 -22 28 -35 23 -49 -11 -30 1
-73 26 -89 20 -13 29 -12 86 9 59 23 64 27 61 52 -2 17 3 32 14 39 13 10 14
15 5 20 -17 11 -51 -22 -51 -49 0 -17 -10 -25 -39 -35 -54 -17 -73 -8 -69 32
2 27 10 36 43 51 88 41 141 127 78 127 -34 0 -78 -28 -116 -72 -27 -32 -27
-33 -42 -13 -9 11 -22 28 -30 38 -14 16 -12 24 20 87 42 82 44 106 11 121 -39
18 -92 2 -151 -46 l-54 -44 15 41 c17 50 18 68 1 68 -7 0 -24 -39 -40 -92z
m363 -143 c-8 -9 -26 -23 -42 -31 -38 -20 -28 3 14 33 35 24 49 23 28 -2z"/>
<path d="M1722 4984 c-5 -9 -7 -25 -5 -35 6 -21 33 -26 33 -6 0 6 3 22 6 35 8
27 -20 31 -34 6z"/>
<path d="M5277 4994 c-3 -3 -3 -25 1 -47 17 -109 -5 -181 -86 -284 -45 -56
-125 -104 -144 -85 -16 16 8 66 50 103 29 26 40 30 69 24 30 -5 34 -4 31 12
-2 13 -14 19 -41 21 -35 3 -44 -2 -87 -45 -53 -53 -68 -91 -51 -129 40 -88
238 77 286 239 25 85 5 224 -28 191z"/>
<path d="M11803 4984 c-6 -17 15 -64 29 -64 15 0 19 26 9 53 -12 30 -29 35
-38 11z"/>
<path d="M2889 4983 c-1 -4 0 -24 1 -43 1 -24 -17 -74 -55 -157 -58 -126 -75
-186 -57 -197 6 -4 42 26 80 66 l69 72 -5 -52 c-5 -60 3 -102 21 -102 9 0 13
26 13 95 2 117 -6 120 -89 38 l-58 -58 16 40 c9 22 35 78 56 124 31 67 39 94
37 130 -2 24 -9 46 -15 49 -7 2 -13 0 -14 -5z"/>
<path d="M3314 4955 c-8 -19 -22 -68 -30 -107 -9 -40 -18 -79 -20 -85 -2 -7
-19 -13 -39 -13 -24 0 -35 -4 -35 -15 0 -11 11 -15 36 -15 l37 0 -6 -75 c-3
-41 -4 -75 -2 -75 2 0 11 7 19 16 11 11 16 35 16 80 l0 65 33 -6 c35 -6 63 7
53 24 -4 6 -11 9 -16 6 -18 -11 -60 7 -60 26 0 25 35 151 49 177 15 27 14 32
-5 32 -8 0 -22 -16 -30 -35z"/>
<path d="M7520 4930 c-19 -12 -49 -38 -67 -58 l-32 -37 2 45 c1 34 -2 45 -13
45 -11 0 -17 -16 -22 -56 -6 -48 -43 -161 -89 -268 -7 -16 -7 -27 1 -35 14
-14 25 0 40 49 26 83 71 163 124 222 49 53 109 94 121 81 2 -2 -18 -51 -45
-109 -28 -57 -50 -112 -50 -121 0 -27 21 -21 60 18 l35 34 17 -22 c12 -15 16
-32 12 -48 -7 -30 -7 -28 -5 -63 1 -17 13 -40 30 -58 33 -33 87 -39 148 -17
38 14 47 44 11 34 -13 -4 -44 -9 -69 -13 -58 -7 -89 18 -89 72 0 39 2 40 29
24 24 -16 57 -6 109 31 54 41 63 73 29 107 -21 22 -30 25 -63 18 -25 -4 -50
-19 -72 -42 l-33 -36 -24 23 c-16 15 -30 20 -44 15 -19 -6 -17 1 15 69 20 41
34 83 32 93 -5 26 -56 28 -98 3z m270 -165 c11 -13 8 -20 -15 -45 -36 -38 -78
-53 -100 -36 -16 11 -15 15 11 45 41 49 82 63 104 36z"/>
<path d="M8540 4908 c0 -15 9 -27 25 -35 32 -14 40 -1 19 32 -20 31 -44 33
-44 3z"/>
<path d="M2505 4873 c-61 -31 -115 -80 -115 -105 0 -26 13 -22 37 10 23 32
143 100 143 81 0 -13 -53 -103 -113 -192 -53 -79 -43 -103 19 -48 26 23 51 41
55 41 5 0 9 -21 9 -48 0 -64 20 -92 67 -92 74 0 174 143 159 225 -4 21 -13 35
-22 35 -11 0 -14 -12 -13 -49 3 -79 -68 -181 -126 -181 -29 0 -35 17 -35 92
l0 60 -29 -4 c-20 -3 -28 -1 -24 6 4 6 22 35 40 63 44 69 53 95 42 116 -13 23
-35 21 -94 -10z"/>
<path d="M8996 4848 c-14 -29 -40 -88 -60 -130 -19 -43 -39 -78 -44 -78 -5 0
-15 21 -23 47 -15 48 -35 66 -45 40 -6 -17 46 -129 62 -134 18 -6 53 50 101
160 24 56 49 104 55 108 13 8 4 39 -12 39 -6 0 -21 -24 -34 -52z"/>
<path d="M9465 4830 c-21 -22 -45 -40 -52 -40 -7 0 -13 -7 -13 -15 0 -9 -9
-33 -20 -55 -24 -46 -27 -120 -6 -120 15 0 66 116 66 150 0 10 22 38 49 61 47
41 56 59 27 59 -6 0 -30 -18 -51 -40z"/>
<path d="M9124 4803 c-76 -83 -93 -145 -51 -187 31 -31 104 -42 151 -22 49 20
48 40 -1 31 -94 -17 -148 1 -141 47 2 13 17 25 40 33 87 30 123 75 94 120 -24
36 -43 31 -92 -22z m71 -2 c7 -12 -18 -37 -56 -56 -38 -20 -37 -9 3 32 33 35
43 39 53 24z"/>
<path d="M9705 4840 c-3 -5 -11 -8 -16 -5 -15 10 -69 -28 -76 -53 -6 -24 7
-57 44 -115 l18 -28 -33 -30 c-26 -24 -36 -27 -52 -19 -25 13 -38 -6 -17 -27
21 -21 62 -10 98 27 37 36 36 64 -1 119 -17 24 -30 50 -30 57 0 19 40 44 83
51 21 3 36 11 34 17 -5 15 -43 20 -52 6z"/>
<path d="M11855 4820 c-4 -6 -1 -17 5 -25 10 -12 9 -15 -3 -15 -18 0 -57 -51
-57 -74 0 -25 37 -56 66 -56 14 0 39 9 55 21 35 25 38 64 9 101 -10 14 -17 28
-13 31 3 4 -6 11 -21 17 -34 12 -33 12 -41 0z m55 -75 c12 -22 11 -27 -5 -45
-21 -24 -48 -26 -65 -5 -12 14 -8 27 18 58 21 24 36 21 52 -8z"/>
<path d="M5506 4763 c-43 -69 -47 -119 -13 -158 27 -32 86 -47 118 -31 32 16
20 31 -24 28 -90 -8 -113 57 -52 148 38 57 42 70 21 70 -8 0 -31 -26 -50 -57z"/>
<path d="M12052 4808 c-7 -7 -12 -15 -12 -20 0 -4 -14 -30 -31 -59 -21 -37
-27 -55 -19 -63 7 -7 15 -4 25 12 21 29 88 92 99 92 5 0 6 -21 2 -46 -6 -47 7
-89 25 -79 5 4 9 35 9 69 0 69 -14 92 -50 83 -13 -3 -20 0 -20 9 0 17 -12 18
-28 2z"/>
<path d="M9849 4797 c-36 -18 -89 -103 -89 -143 0 -63 50 -88 160 -82 50 3 55
5 55 26 0 13 7 27 15 32 11 7 12 12 4 20 -15 15 -54 -8 -54 -32 0 -15 -9 -18
-47 -18 -27 0 -59 6 -73 13 -28 14 -38 54 -20 87 l12 22 22 -21 c27 -26 67
-27 89 -3 21 23 21 41 1 70 -23 34 -47 43 -75 29z m51 -47 c21 -40 -14 -55
-46 -19 -16 17 -16 22 -4 29 23 15 38 12 50 -10z"/>
<path d="M11182 4759 c-56 -54 -67 -81 -47 -119 24 -47 138 -64 183 -28 24 21
11 25 -58 20 -76 -5 -100 5 -100 42 0 25 58 86 86 90 25 4 24 30 -1 34 -12 1
-37 -14 -63 -39z"/>
<path d="M11706 4730 c-27 -68 -31 -111 -11 -111 6 0 12 11 13 23 2 13 15 49
28 80 28 66 29 78 11 78 -8 0 -26 -31 -41 -70z"/>
<path d="M3500 4777 c-38 -19 -47 -59 -28 -112 18 -49 13 -59 -28 -49 -22 6
-25 4 -22 -12 2 -14 13 -20 40 -22 52 -4 66 23 43 84 -9 24 -14 52 -10 63 7
22 45 35 59 21 16 -16 26 -12 26 9 0 31 -38 39 -80 18z"/>
<path d="M5367 4773 c-10 -10 -8 -43 2 -43 6 0 13 5 16 10 20 32 45 -21 33
-67 -9 -36 -26 -48 -81 -58 -23 -5 -37 -13 -37 -22 0 -13 8 -14 41 -9 23 4 50
11 60 17 50 26 70 119 35 158 -18 20 -56 28 -69 14z"/>
<path d="M11049 4762 c-70 -46 -151 -154 -131 -174 6 -6 28 14 62 58 28 38 64
77 80 87 l29 19 -6 -65 c-4 -51 -3 -65 9 -70 12 -4 16 9 22 70 3 41 3 79 0 84
-8 14 -37 10 -65 -9z"/>
<path d="M8475 4733 c-31 -74 -49 -153 -38 -164 18 -18 33 0 33 39 0 20 11 61
25 90 29 63 30 72 10 72 -8 0 -22 -17 -30 -37z"/>
<path d="M8630 4729 c-60 -65 -74 -81 -87 -103 -18 -30 -16 -38 9 -34 14 2 34
24 57 62 40 65 60 82 85 73 20 -8 21 -51 1 -107 -16 -46 -14 -56 8 -47 16 6
37 72 37 120 0 26 -7 41 -26 56 -15 12 -31 21 -37 21 -5 0 -26 -18 -47 -41z"/>
<path d="M12946 4750 c-62 -40 -83 -125 -44 -175 19 -24 26 -27 67 -22 76 8
108 68 73 137 -11 23 -18 50 -15 60 4 17 0 20 -23 20 -16 0 -42 -9 -58 -20z
m64 -64 c17 -35 19 -49 10 -65 -24 -45 -84 -55 -101 -17 -14 30 -6 64 22 99
29 38 44 34 69 -17z"/>
<path d="M3028 4723 c-37 -40 -51 -71 -44 -99 5 -19 13 -24 37 -24 16 0 42 8
56 17 26 17 27 17 20 0 -10 -27 3 -47 29 -45 25 2 31 12 14 23 -6 4 -7 23 -4
44 3 21 2 41 -3 44 -6 4 -29 -7 -52 -24 -24 -18 -48 -29 -57 -25 -14 5 -14 10
3 39 11 17 31 38 46 45 15 7 25 17 22 23 -11 17 -41 9 -67 -18z"/>
<path d="M6290 4673 c-36 -32 -52 -101 -30 -128 22 -26 78 -19 111 15 27 26
30 35 27 82 l-3 53 -37 3 c-28 2 -43 -3 -68 -25z m60 -17 c0 -8 6 -16 13 -19
21 -7 -5 -60 -36 -71 -52 -19 -63 39 -15 84 26 24 38 26 38 6z"/>
<path d="M5585 4499 c-82 -5 -259 -12 -393 -17 -222 -8 -281 -17 -261 -36 3
-3 122 -1 264 5 554 23 560 23 560 38 0 19 2 19 -170 10z"/>
<path d="M5260 4408 c0 -8 9 -31 20 -53 43 -85 9 -164 -85 -201 -79 -30 -97 6
-35 70 31 31 46 28 61 -12 7 -19 13 -22 21 -14 19 19 -3 65 -35 76 -24 9 -32
6 -67 -29 -43 -42 -57 -83 -40 -114 15 -29 64 -27 128 5 98 49 128 138 80 234
-23 44 -48 64 -48 38z"/>
<path d="M5445 4360 c-3 -5 -3 -14 0 -20 3 -5 12 -47 20 -92 7 -46 16 -90 19
-99 4 -9 -7 -41 -25 -75 -67 -124 -81 -161 -87 -216 -8 -91 17 -75 54 35 36
107 73 195 138 327 26 52 44 100 41 108 -8 22 -22 6 -56 -68 -17 -39 -35 -70
-40 -70 -4 0 -10 30 -14 68 -9 94 -29 136 -50 102z"/>
<path d="M8605 4196 c-37 -16 -61 -45 -61 -70 1 -26 26 -33 26 -7 0 30 69 70
80 46 3 -5 -12 -18 -32 -28 -21 -10 -38 -23 -38 -28 0 -5 16 -19 35 -30 19
-12 35 -25 35 -29 0 -5 -24 -23 -54 -40 -40 -22 -62 -29 -80 -24 -23 5 -26 3
-26 -21 0 -25 2 -27 31 -21 17 3 59 22 95 42 70 39 80 61 44 99 l-21 22 26 17
c30 20 34 61 6 76 -24 13 -29 12 -66 -4z"/>
<path d="M9120 4144 c-62 -17 -86 -35 -76 -59 6 -17 33 -15 29 3 -2 8 32 20
112 39 14 3 11 -3 -13 -22 -41 -34 -107 -123 -133 -178 -22 -49 -24 -106 -6
-132 21 -28 38 -11 24 24 -24 66 53 199 162 282 24 18 33 30 28 42 -8 21 -51
21 -127 1z"/>
<path d="M8020 3941 c-30 -10 -71 -22 -92 -25 -69 -12 -57 -52 44 -145 76 -70
69 -80 -75 -118 -44 -11 -61 -12 -72 -3 -21 18 -37 3 -24 -22 10 -18 17 -20
58 -14 62 8 140 34 174 58 45 32 36 58 -43 128 -39 35 -69 68 -67 74 6 17 86
30 102 16 14 -12 31 3 21 19 -6 10 65 21 135 21 37 0 49 4 49 15 0 22 -139 20
-210 -4z"/>
<path d="M6991 3856 c-29 -47 -56 -99 -62 -115 -6 -17 -15 -31 -19 -31 -14 0
-30 60 -30 110 0 50 -27 99 -47 87 -13 -8 -5 -47 8 -47 5 0 9 -24 9 -53 0 -37
7 -67 24 -98 l23 -44 -47 -95 c-26 -52 -53 -114 -60 -138 -8 -24 -19 -42 -27
-42 -8 0 -13 -6 -10 -12 2 -7 14 -13 26 -13 18 0 26 11 45 65 12 36 35 89 50
118 15 29 44 93 66 142 22 49 58 119 80 157 47 76 50 84 33 90 -6 2 -34 -34
-62 -81z"/>
<path d="M7341 3840 c-80 -20 -90 -25 -75 -40 6 -6 39 -2 92 10 46 11 94 20
108 20 13 0 24 6 24 13 0 19 -65 17 -149 -3z"/>
<path d="M8275 3789 c-9 -14 2 -23 28 -24 28 0 34 -31 10 -57 -26 -29 -71 -50
-93 -43 -16 5 -20 2 -20 -14 0 -42 92 -17 137 37 l23 27 0 -32 c0 -46 34 -67
81 -52 44 15 53 24 45 44 -5 15 -8 15 -28 1 -33 -23 -68 -21 -68 5 0 22 58 81
72 73 4 -3 8 1 8 9 0 30 -31 26 -70 -9 l-40 -36 0 25 c0 14 -7 33 -16 41 -18
18 -60 21 -69 5z"/>
<path d="M7321 3767 c-19 -7 -36 -18 -39 -26 -4 -10 4 -11 39 -5 24 5 68 8 97
7 53 -3 67 8 33 27 -26 13 -87 12 -130 -3z"/>
<path d="M9036 3523 c-13 -14 -5 -33 14 -33 11 0 20 6 20 14 0 15 -24 28 -34
19z"/>
<path d="M11701 3277 c-59 -30 -80 -92 -81 -233 0 -78 -3 -93 -17 -99 -17 -6
-17 -7 1 -21 12 -8 27 -42 38 -86 18 -74 42 -108 62 -88 8 8 7 13 0 18 -12 8
-28 52 -43 120 l-9 44 65 -4 c44 -2 68 1 70 9 6 16 -31 26 -89 24 l-48 -1 0
83 c0 111 21 182 60 202 38 19 64 8 78 -35 13 -37 32 -39 32 -4 0 30 -50 84
-77 84 -10 0 -29 -6 -42 -13z"/>
<path d="M15090 3213 c0 -54 -44 -212 -78 -280 -44 -88 -54 -126 -42 -157 16
-42 46 -31 42 16 -2 22 4 51 16 75 30 58 83 250 89 321 5 53 3 62 -11 62 -12
0 -16 -9 -16 -37z"/>
<path d="M2831 3227 c-8 -11 -8 -23 3 -48 8 -19 19 -67 25 -108 16 -99 -3
-165 -61 -222 -42 -41 -83 -58 -99 -42 -12 12 6 74 32 107 23 29 66 35 75 11
9 -22 34 -18 34 5 0 23 -28 40 -68 40 -39 0 -84 -50 -101 -113 -12 -41 -12
-50 4 -73 20 -31 47 -28 108 12 87 57 125 151 107 269 -5 39 -13 89 -16 112
-8 50 -25 70 -43 50z"/>
<path d="M9915 3217 c-3 -7 -1 -34 4 -60 6 -25 8 -73 5 -106 -7 -65 -7 -64
-76 -77 -24 -4 -38 -12 -38 -21 0 -8 -5 -11 -12 -7 -7 5 -8 3 -3 -5 4 -8 17
-10 34 -6 14 4 41 11 59 15 l32 8 0 -59 c0 -46 -3 -57 -14 -53 -8 3 -17 0 -22
-7 -4 -7 -2 -15 4 -17 7 -2 19 -10 26 -18 23 -22 35 4 38 86 l3 75 68 3 c51 2
67 6 67 17 0 16 -30 20 -104 15 l-38 -2 7 50 c10 77 -23 216 -40 169z"/>
<path d="M5633 3207 c-50 -14 -72 -32 -57 -47 7 -7 20 -6 40 5 32 16 64 20 64
7 0 -13 -53 -59 -76 -66 -26 -8 -51 -35 -56 -60 -3 -17 5 -19 85 -21 48 -2 89
1 92 5 7 11 -40 40 -66 40 -20 0 -19 2 11 36 52 60 63 115 23 113 -10 -1 -37
-6 -60 -12z"/>
<path d="M12417 3167 c-3 -7 -6 -76 -6 -153 -1 -76 -7 -170 -12 -208 -8 -47
-8 -71 0 -79 12 -12 19 4 58 136 28 101 79 208 100 215 17 5 32 -61 41 -170 4
-58 12 -93 19 -95 7 -3 25 15 41 40 l28 44 19 -41 c41 -88 86 -109 219 -104
120 5 109 24 -16 30 -100 4 -155 19 -143 39 4 5 15 9 25 9 11 0 34 13 52 29
29 26 31 31 22 62 -8 28 -15 35 -40 37 -31 3 -49 -10 -89 -63 -15 -19 -15 -16
-13 35 4 75 -16 73 -56 -5 l-30 -59 -12 96 c-26 202 -81 209 -160 21 l-25 -58
3 124 c2 86 -1 125 -8 128 -6 2 -14 -2 -17 -10z m417 -254 c8 -21 -11 -41 -52
-52 -31 -9 -31 -9 -21 12 28 54 61 72 73 40z"/>
<path d="M14407 3152 c-8 -11 4 -62 14 -62 11 0 23 46 14 59 -7 13 -22 14 -28
3z"/>
<path d="M8405 3100 c-4 -6 4 -28 18 -48 36 -54 51 -108 50 -185 -2 -119 -64
-204 -132 -181 -17 6 -27 18 -29 35 -4 31 32 79 59 79 28 0 21 34 -8 38 -29 4
-83 -68 -83 -113 0 -51 21 -70 78 -70 40 0 56 5 78 25 33 31 60 90 68 151 15
107 -65 324 -99 269z"/>
<path d="M10142 3078 c2 -15 11 -24 26 -26 25 -4 27 1 12 29 -15 27 -42 25
-38 -3z"/>
<path d="M13983 3084 c-4 -10 -2 -19 4 -21 6 -2 22 -13 34 -24 13 -11 25 -16
27 -10 5 15 -16 49 -38 61 -16 9 -22 7 -27 -6z"/>
<path d="M6393 3064 c-8 -22 15 -44 26 -25 10 16 4 41 -10 41 -5 0 -12 -7 -16
-16z"/>
<path d="M7242 3053 c-11 -16 -29 -46 -41 -68 l-22 -40 3 55 c2 46 0 55 -14
58 -17 3 -18 -10 -18 -163 0 -159 8 -213 31 -200 5 4 9 39 9 78 0 40 7 99 15
132 16 60 50 125 65 125 18 0 33 -88 32 -182 -2 -123 15 -132 48 -25 13 39 25
75 27 79 1 3 18 -9 37 -28 19 -19 41 -34 50 -34 9 0 16 -6 16 -14 0 -26 41
-66 80 -76 46 -12 129 3 162 30 28 22 16 40 -15 21 -12 -8 -51 -16 -88 -19
-60 -4 -69 -2 -90 19 l-23 23 34 14 c41 17 59 39 60 73 0 29 -16 49 -41 49
-16 0 -51 -35 -74 -75 -15 -26 -49 -5 -75 45 -11 22 -24 40 -29 40 -5 0 -14
-13 -21 -30 -17 -41 -26 -38 -33 14 -8 59 -36 126 -52 126 -8 0 -22 -12 -33
-27z m326 -144 c-3 -24 -33 -48 -44 -36 -8 8 23 57 37 57 6 0 9 -10 7 -21z"/>
<path d="M9174 3056 c-8 -22 3 -49 19 -43 6 2 12 14 12 27 0 27 -22 39 -31 16z"/>
<path d="M5150 3043 c-43 -13 -97 -13 -147 3 -17 5 -23 2 -23 -9 0 -8 -16 -25
-36 -37 -42 -26 -41 -50 1 -62 76 -23 115 -41 115 -52 0 -7 -23 -23 -51 -36
-40 -19 -54 -22 -69 -13 -23 15 -32 6 -19 -18 13 -25 43 -24 106 5 68 32 82
58 49 91 -14 14 -45 30 -70 37 -25 7 -46 15 -46 19 0 13 57 28 126 32 71 4
124 22 132 45 5 15 -10 14 -68 -5z"/>
<path d="M4727 3033 c-4 -3 -7 -20 -7 -37 0 -17 -9 -63 -20 -101 -22 -75 -26
-158 -10 -199 18 -48 29 -28 23 42 -4 50 0 86 15 142 29 109 35 160 19 160 -8
0 -17 -3 -20 -7z"/>
<path d="M13785 3026 c-98 -43 -164 -163 -121 -222 14 -18 15 -17 30 18 9 21
18 55 20 77 4 49 15 63 69 90 37 18 43 19 64 6 31 -21 43 2 13 27 -26 21 -35
22 -75 4z"/>
<path d="M3000 3007 c0 -2 14 -46 30 -97 17 -51 30 -99 30 -107 0 -7 4 -13 9
-13 5 0 1 -25 -10 -55 -10 -30 -19 -62 -19 -71 0 -15 -22 -16 -275 -9 -267 7
-275 6 -275 -12 0 -27 9 -34 29 -22 10 7 106 7 277 2 226 -7 375 -4 551 11 46
4 63 12 63 28 0 10 -88 8 -305 -5 -28 -2 -30 0 -27 28 2 17 19 64 39 105 61
128 84 193 73 204 -14 14 -25 0 -44 -59 -9 -27 -25 -65 -34 -83 l-18 -32 -23
72 c-36 110 -39 118 -56 118 -8 0 -15 -1 -15 -3z"/>
<path d="M8883 2987 c-25 -11 -32 -24 -45 -87 -19 -93 -21 -130 -6 -130 10 0
19 22 27 73 7 39 17 82 22 95 10 25 41 29 59 7 17 -20 30 -19 30 3 0 10 -12
25 -27 32 -38 19 -35 19 -60 7z"/>
<path d="M14074 2970 c-45 -36 -104 -107 -104 -126 0 -7 7 -20 16 -29 30 -29
112 6 151 65 l23 33 0 -43 c0 -23 -7 -73 -16 -110 l-17 -67 -42 5 c-38 4 -45
1 -60 -22 -26 -39 -31 -106 -11 -144 30 -59 95 -49 111 16 24 101 25 103 46
92 15 -9 21 -7 26 6 4 10 2 19 -3 21 -34 12 -38 21 -26 61 21 68 26 158 12
207 -16 57 -27 64 -41 28 -36 -93 -73 -129 -122 -121 -19 4 -14 12 46 72 73
73 81 110 11 56z m33 -308 c10 -6 10 -21 -3 -68 -19 -75 -30 -86 -55 -55 -22
26 -24 54 -8 100 11 31 38 41 66 23z"/>
<path d="M10521 2955 c-16 -14 -33 -36 -37 -48 -4 -12 -16 -28 -26 -36 -14 -9
-17 -16 -9 -24 6 -6 11 -25 11 -41 1 -55 41 -86 111 -86 54 0 139 50 139 82 0
15 -20 8 -62 -22 -73 -53 -158 -34 -158 36 0 28 4 34 20 34 44 0 110 52 110
87 0 18 -29 43 -50 43 -10 0 -32 -11 -49 -25z m59 -19 c0 -15 -45 -56 -61 -56
-16 0 -9 21 16 45 27 28 45 32 45 11z"/>
<path d="M14509 2952 c-34 -22 -54 -47 -87 -107 -27 -51 -39 -82 -33 -88 12
-12 41 9 41 28 0 8 14 27 31 44 17 17 27 36 24 42 -12 19 60 79 95 79 14 0 12
-47 -5 -104 -8 -27 -15 -55 -15 -63 0 -13 30 -19 30 -5 0 4 9 40 20 81 18 68
19 77 5 98 -20 31 -51 29 -106 -5z"/>
<path d="M6510 2955 c-6 -8 -14 -32 -17 -53 -5 -34 -1 -44 36 -86 47 -54 49
-61 21 -76 -33 -18 -63 4 -55 41 8 36 -8 39 -30 5 -19 -29 -11 -52 26 -71 37
-20 51 -19 83 6 26 21 36 59 14 59 -6 0 -8 3 -5 6 4 4 -9 25 -29 47 -30 33
-35 44 -30 71 4 17 11 33 16 34 15 5 12 32 -4 32 -7 0 -19 -7 -26 -15z"/>
<path d="M14315 2958 c-2 -7 -11 -46 -20 -87 -9 -41 -23 -80 -31 -86 -17 -12
-9 -45 11 -45 7 0 18 12 24 28 17 40 50 185 45 194 -8 12 -24 9 -29 -4z"/>
<path d="M8603 2928 c-17 -18 -36 -43 -42 -55 -28 -55 3 -146 54 -159 56 -14
155 14 155 43 0 9 -10 9 -41 -2 -45 -16 -97 -19 -115 -7 -16 11 -34 48 -34 71
0 15 6 21 24 21 33 0 90 41 94 68 8 57 -48 69 -95 20z m65 -15 c-2 -9 -18 -23
-36 -30 -27 -11 -32 -11 -26 -1 25 44 69 66 62 31z"/>
<path d="M10344 2953 c-7 -2 -9 -29 -6 -78 5 -79 -4 -153 -17 -139 -5 5 -16
32 -25 59 -9 28 -24 62 -33 75 -10 14 -18 32 -18 40 0 8 -10 16 -22 18 -29 4
-30 -17 -2 -53 12 -15 34 -59 48 -98 23 -62 30 -72 51 -72 36 0 50 37 50 133
0 48 4 82 10 82 6 0 10 4 10 10 0 12 -32 28 -46 23z"/>
<path d="M13467 2914 c-61 -44 -96 -111 -79 -149 9 -19 19 -25 42 -25 41 0 94
23 125 54 43 43 27 156 -23 156 -9 0 -38 -16 -65 -36z m83 -50 c0 -39 -27 -68
-78 -85 -34 -11 -52 -3 -52 26 0 18 37 67 65 85 39 26 65 16 65 -26z"/>
<path d="M14708 2903 c-54 -55 -74 -98 -57 -119 16 -20 26 -18 98 16 52 25 62
27 56 13 -7 -20 -8 -23 -6 -40 0 -7 7 -13 14 -13 17 0 40 91 26 105 -6 6 -33
-3 -74 -23 -70 -34 -85 -38 -85 -22 0 16 81 100 96 100 8 0 14 7 14 15 0 29
-36 15 -82 -32z"/>
<path d="M11430 2920 c-13 -11 -27 -20 -31 -20 -15 0 -49 -68 -49 -97 0 -60
62 -81 130 -44 49 26 57 56 32 113 -26 60 -52 74 -82 48z m42 -52 c30 -24 31
-54 1 -77 -38 -31 -87 -25 -91 10 -3 30 32 79 57 79 9 0 24 -6 33 -12z"/>
<path d="M9582 2895 c-41 -51 -56 -103 -36 -132 20 -31 53 -29 100 7 l39 29
16 -21 c10 -13 23 -19 33 -15 17 7 22 37 6 37 -5 0 -10 15 -10 34 0 28 -7 41
-37 65 -49 40 -75 39 -111 -4z m78 -10 c17 -9 30 -19 30 -24 0 -14 -88 -91
-105 -91 -24 0 -18 51 10 93 14 20 28 37 31 37 3 0 18 -7 34 -15z"/>
<path d="M5411 2892 l-34 -28 -39 19 c-28 14 -42 17 -50 9 -16 -16 -1 -44 20
-40 24 4 52 -19 52 -43 0 -26 -38 -62 -57 -55 -20 8 -33 -1 -26 -19 7 -20 43
-19 71 1 12 8 22 11 22 6 0 -15 48 -32 89 -32 27 0 44 7 60 24 31 33 18 53
-16 26 -29 -23 -71 -26 -97 -7 -36 26 13 137 60 137 8 0 14 7 14 15 0 24 -33
18 -69 -13z"/>
<path d="M9432 2878 c-8 -23 -25 -67 -39 -97 -25 -53 -26 -53 -39 -30 -7 13
-16 41 -19 61 -4 21 -11 40 -15 43 -5 3 -7 12 -4 19 6 17 -14 32 -26 20 -11
-11 23 -137 45 -170 20 -31 39 -30 63 4 24 34 72 149 72 174 0 34 -25 18 -38
-24z"/>
<path d="M13868 2881 c-17 -41 -13 -94 6 -88 6 2 14 19 17 38 3 19 10 46 14
62 12 44 -19 34 -37 -12z"/>
<path d="M10097 2903 c-8 -16 8 -168 18 -165 16 4 15 172 -1 172 -7 0 -15 -3
-17 -7z"/>
<path d="M3942 2890 c-25 -10 -25 -38 -1 -31 35 11 89 12 137 3 52 -9 75 -1
55 19 -14 14 -164 21 -191 9z"/>
<path d="M6366 2884 c-3 -9 -6 -30 -6 -48 0 -18 -7 -41 -15 -52 -18 -24 -20
-74 -2 -74 17 0 34 35 41 84 3 20 8 52 11 71 5 26 2 35 -8 35 -8 0 -18 -7 -21
-16z"/>
<path d="M9110 2896 c0 -2 9 -23 20 -47 24 -53 26 -105 4 -126 -24 -24 0 -42
26 -18 15 13 20 30 20 64 0 54 -32 131 -55 131 -8 0 -15 -2 -15 -4z"/>
<path d="M3902 2758 c3 -8 33 -15 79 -19 41 -3 95 -9 122 -14 40 -6 46 -5 41
8 -11 29 -251 54 -242 25z"/>
<path d="M2721 2516 c-10 -12 -8 -17 7 -25 39 -21 54 -109 28 -160 -32 -60
-123 -118 -148 -93 -14 14 16 68 50 89 15 9 33 23 40 32 7 9 12 10 12 3 0 -7
9 -12 20 -12 11 0 20 7 20 15 0 19 -40 20 -83 1 -71 -30 -117 -114 -82 -149
60 -61 215 62 215 170 0 51 -19 100 -47 126 -18 15 -22 16 -32 3z"/>
<path d="M2963 2415 l-23 -34 -46 19 c-54 24 -64 25 -64 6 0 -7 22 -22 48 -33
47 -20 48 -21 44 -61 -4 -38 -7 -42 -48 -59 -24 -10 -44 -22 -44 -26 0 -17 30
-18 60 -2 30 15 33 15 51 -1 29 -26 114 -22 145 7 30 28 15 52 -14 26 -23 -21
-95 -23 -111 -3 -9 10 -7 17 5 27 11 9 14 23 10 49 -4 26 0 45 14 68 19 30 19
52 2 52 -4 0 -17 -16 -29 -35z"/>
<path d="M4055 2366 c-33 -33 -65 -144 -65 -227 l0 -69 -46 0 c-63 0 -54 -24
11 -28 l48 -3 -6 -53 c-3 -30 -15 -72 -26 -95 -19 -36 -25 -40 -46 -35 -18 4
-25 2 -25 -9 0 -17 19 -27 46 -23 39 6 84 101 84 179 l0 37 50 0 c53 0 62 10
37 44 -12 17 -47 14 -47 -5 0 -5 -11 -9 -25 -9 -24 0 -25 2 -25 64 0 68 31
185 55 210 8 8 24 12 35 9 24 -6 28 22 4 31 -25 10 -34 7 -59 -18z"/>
<path d="M8040 2356 c0 -8 5 -18 11 -21 11 -8 5 -79 -12 -148 -10 -37 -11 -38
-28 -23 -27 24 -65 6 -100 -49 -46 -72 -56 -102 -43 -130 25 -55 99 -12 166
93 35 56 67 232 50 276 -8 20 -44 21 -44 2z m-33 -227 c9 -9 9 -18 -2 -38 -18
-35 -80 -101 -94 -101 -17 0 -13 37 9 79 33 66 62 85 87 60z"/>
<path d="M4853 2299 c-7 -7 -8 -22 -2 -42 5 -20 5 -64 -2 -118 l-11 -87 -54
-7 c-39 -5 -54 -11 -54 -22 0 -12 9 -14 49 -8 l50 7 -5 -59 c-3 -32 -10 -78
-15 -102 -11 -48 -6 -62 16 -40 13 13 31 88 40 164 2 17 4 33 4 36 1 4 32 10
70 14 43 4 72 12 75 20 8 21 0 22 -69 12 -36 -5 -68 -7 -71 -5 -2 3 0 37 6 76
9 69 4 158 -10 167 -4 2 -12 -1 -17 -6z"/>
<path d="M6828 2279 c-21 -5 -79 -29 -129 -55 -67 -33 -89 -48 -80 -57 8 -8
37 2 108 36 64 30 118 49 156 53 38 5 57 11 57 20 0 16 -52 17 -112 3z"/>
<path d="M10548 2275 c-3 -3 -3 -49 0 -103 3 -82 1 -106 -18 -155 -26 -68
-123 -178 -142 -159 -8 8 -6 24 7 59 24 62 59 97 89 89 28 -7 40 3 25 21 -53
63 -187 -102 -150 -183 10 -22 16 -25 39 -19 37 9 114 86 148 149 25 46 28 63
32 166 3 93 1 118 -10 128 -8 6 -17 10 -20 7z"/>
<path d="M6960 2193 c-7 -32 -28 -118 -46 -192 -39 -153 -38 -151 -21 -150 6
0 26 30 44 67 18 37 39 76 48 87 l16 20 -2 -20 c-1 -11 -1 -28 0 -39 1 -24 64
-86 88 -86 11 0 30 -11 43 -25 19 -20 33 -25 70 -25 59 0 110 17 110 37 0 11
-6 13 -22 8 -50 -17 -124 -17 -137 -1 -12 14 -8 23 28 61 34 37 42 52 39 78
-2 26 -7 32 -27 32 -30 0 -91 -74 -91 -111 0 -31 -15 -30 -45 2 -20 22 -25 37
-25 80 0 62 -10 67 -51 28 l-26 -25 23 103 c28 123 28 128 10 128 -10 0 -19
-20 -26 -57z m230 -192 c0 -14 -51 -73 -58 -67 -3 3 6 21 19 41 23 34 39 44
39 26z"/>
<path d="M12273 2224 c-3 -9 0 -20 8 -25 12 -7 11 -21 -5 -91 -21 -89 -23
-167 -5 -199 21 -40 34 -15 30 59 -1 39 3 102 9 140 7 38 10 81 6 95 -7 30
-34 43 -43 21z"/>
<path d="M9055 2221 c-8 -14 17 -62 29 -58 6 3 10 10 8 17 -2 7 2 16 9 20 6 4
8 13 5 19 -9 13 -43 15 -51 2z"/>
<path d="M5175 2181 c-3 -5 2 -17 11 -26 19 -19 40 -6 31 19 -7 17 -32 21 -42
7z"/>
<path d="M8250 2145 c-9 -11 -16 -13 -24 -5 -5 5 -18 10 -29 10 -13 0 -18 -6
-15 -22 2 -13 9 -23 16 -23 6 0 12 -3 12 -7 0 -5 0 -19 0 -33 0 -16 -6 -25
-15 -25 -8 0 -15 -7 -15 -16 0 -14 11 -16 85 -12 82 4 114 16 101 36 -3 6 -22
6 -51 -1 -25 -6 -47 -8 -49 -6 -8 8 -14 79 -6 74 10 -6 42 30 33 38 -11 12
-30 8 -43 -8z"/>
<path d="M6744 2102 c-6 -4 -15 -38 -19 -77 -4 -38 -16 -103 -26 -144 -23 -88
-23 -91 -6 -91 18 0 45 89 58 191 6 46 14 91 19 100 13 24 -3 37 -26 21z"/>
<path d="M5591 2055 c-19 -13 -52 -43 -73 -67 -37 -40 -39 -41 -24 -11 18 37
20 59 6 68 -6 3 -15 -6 -21 -22 -6 -15 -26 -58 -45 -96 -60 -118 -37 -132 48
-29 31 37 70 80 87 97 l31 29 -11 -32 c-24 -70 19 -152 81 -152 34 0 79 20 99
43 20 25 -4 28 -46 5 -54 -30 -89 -20 -104 30 -9 31 -8 47 9 94 27 75 20 83
-37 43z"/>
<path d="M9190 2053 c-45 -18 -51 -68 -15 -121 47 -69 22 -98 -37 -42 -25 24
-34 28 -45 18 -23 -19 33 -68 85 -75 37 -5 43 -3 51 18 9 26 -7 80 -34 109
-25 27 -18 50 20 66 51 21 26 47 -25 27z"/>
<path d="M4608 2040 c-29 -18 -58 -76 -58 -118 0 -47 25 -72 73 -72 32 0 98
26 108 42 15 24 -2 26 -50 6 -67 -29 -101 -20 -101 26 0 38 41 96 67 96 18 0
12 24 -8 27 -8 2 -22 -2 -31 -7z"/>
<path d="M8998 1983 c-18 -72 -11 -107 20 -101 21 4 29 38 12 48 -10 6 -10 15
-1 40 15 43 14 80 -1 80 -8 0 -20 -29 -30 -67z"/>
<path d="M10622 2038 c-21 -21 -13 -28 27 -22 34 5 41 3 51 -16 15 -29 0 -88
-30 -115 -17 -15 -20 -15 -25 -3 -7 18 -32 19 -32 1 0 -7 9 -20 19 -30 27 -24
64 -3 88 50 25 53 25 89 2 117 -21 25 -82 36 -100 18z"/>
<path d="M5283 2008 c-53 -55 -68 -121 -35 -151 29 -26 61 -20 98 17 27 27 34
42 34 74 0 95 -40 119 -97 60z m61 -14 c13 -34 6 -75 -19 -99 -63 -64 -89 13
-28 85 28 34 38 37 47 14z"/>
<path d="M10790 1975 c-12 -37 -19 -76 -16 -90 10 -40 106 -58 106 -20 0 9
-11 13 -30 13 -50 -2 -56 13 -32 83 12 34 19 66 16 71 -12 19 -24 4 -44 -57z"/>
<path d="M4357 2010 c-45 -35 -60 -130 -21 -130 10 0 14 12 14 38 0 28 7 45
24 62 37 34 55 21 54 -40 -1 -49 11 -78 29 -67 14 9 -1 137 -17 147 -24 15
-55 11 -83 -10z"/>
<path d="M4255 2010 c-4 -6 -12 -32 -18 -58 -9 -35 -17 -48 -33 -50 -27 -4
-51 43 -33 65 19 22 -4 38 -26 17 -37 -37 19 -133 68 -118 37 11 37 12 68 133
5 17 -17 26 -26 11z"/>
<path d="M11475 2012 c-6 -5 -46 -17 -90 -27 -44 -10 -84 -21 -89 -26 -20 -18
28 -21 95 -5 40 10 82 15 99 11 33 -7 39 7 16 38 -15 19 -18 20 -31 9z"/>
<path d="M5115 1967 c-9 -24 -17 -66 -18 -93 -2 -39 1 -49 16 -52 14 -3 17 4
17 48 0 28 7 67 15 87 19 44 19 53 1 53 -8 0 -22 -20 -31 -43z"/>
<path d="M8000 1935 c-8 -2 -79 -11 -157 -21 -101 -13 -143 -22 -143 -31 0
-17 33 -16 150 3 130 20 409 29 484 15 66 -12 94 -2 55 20 -17 9 -78 14 -199
15 -96 2 -182 1 -190 -1z"/>
<path d="M6026 1904 c-10 -26 -7 -34 13 -34 26 0 36 17 21 35 -16 19 -26 19
-34 -1z"/>
<path d="M11285 1871 c-9 -15 8 -21 97 -32 86 -11 188 -5 221 13 36 19 3 28
-63 17 -44 -7 -90 -7 -149 0 -104 13 -99 13 -106 2z"/>
<path d="M12545 1859 c-44 -4 -111 -14 -150 -23 -127 -26 -330 -41 -381 -28
-58 16 -84 15 -84 -2 0 -14 26 -20 125 -32 28 -3 142 4 255 17 113 12 245 24
293 27 66 3 90 8 94 19 3 8 0 19 -8 24 -16 10 -31 10 -144 -2z"/>
<path d="M7916 1803 c17 -52 9 -157 -15 -206 -36 -75 -121 -130 -121 -79 0 22
57 79 84 84 31 5 32 28 1 28 -35 0 -78 -31 -105 -75 -21 -33 -21 -37 -6 -60
38 -58 132 -5 176 98 40 92 37 237 -6 237 -13 0 -15 -5 -8 -27z"/>
<path d="M10715 1780 c-27 -4 -79 -13 -115 -20 -77 -14 -405 -19 -439 -6 -19
7 -22 6 -19 -10 2 -10 14 -21 28 -25 36 -10 241 -9 340 1 47 5 159 12 250 16
165 6 195 13 172 36 -15 15 -143 19 -217 8z"/>
<path d="M12620 1761 c-35 -18 -53 -51 -28 -51 7 0 22 7 32 15 25 19 57 19 81
1 19 -13 18 -15 -13 -44 -18 -17 -60 -44 -92 -59 -41 -19 -60 -34 -60 -46 0
-10 3 -17 8 -15 4 2 29 12 55 22 l48 19 25 -26 c14 -15 35 -27 47 -27 28 0 87
55 87 81 0 24 -14 17 -48 -23 -29 -34 -45 -35 -65 -5 -14 21 -12 24 19 60 43
47 43 72 2 97 -41 25 -54 25 -98 1z"/>
<path d="M8056 1698 c8 -51 19 -74 49 -108 l23 -25 -29 -60 c-36 -76 -39 -139
-7 -156 18 -10 24 -8 35 7 13 17 12 19 -6 22 -15 2 -21 11 -21 28 0 28 59 164
71 164 5 0 9 8 9 18 0 9 16 43 35 75 38 63 42 77 22 77 -7 0 -21 -17 -32 -37
-11 -21 -33 -51 -48 -68 -28 -29 -29 -29 -43 -10 -8 11 -17 30 -19 43 -3 12
-7 33 -10 47 -3 14 -12 25 -20 25 -12 0 -14 -9 -9 -42z"/>
<path d="M10345 1680 c-3 -5 3 -26 14 -47 25 -50 39 -113 20 -95 -48 45 -142
-37 -185 -161 -20 -58 -7 -87 36 -87 22 0 44 14 88 58 79 77 106 130 99 196
-9 87 -52 168 -72 136z m45 -173 c0 -39 -123 -187 -155 -187 -38 0 11 128 66
174 28 24 89 33 89 13z"/>
<path d="M12059 1628 c0 -2 -2 -40 -5 -85 -2 -45 -9 -94 -14 -108 -14 -36 -13
-98 2 -113 29 -29 36 -13 37 93 1 57 5 126 10 152 7 34 6 50 -2 55 -12 8 -26
10 -28 6z"/>
<path d="M12285 1589 c-58 -54 -59 -79 -4 -130 51 -47 50 -75 -3 -104 l-37
-20 -24 23 c-27 25 -37 28 -37 9 0 -18 40 -53 69 -60 36 -9 69 12 91 59 24 49
21 60 -34 113 -40 39 -44 52 -20 72 17 14 32 17 119 23 43 2 60 7 60 17 0 9
-14 15 -42 17 -24 2 -43 7 -43 13 0 24 -54 6 -95 -32z"/>
<path d="M10671 1503 c-14 -51 -50 -108 -61 -97 -5 5 -17 31 -28 59 -19 48
-44 76 -57 63 -9 -8 54 -141 70 -150 10 -6 6 -26 -16 -85 -32 -87 -37 -138
-14 -147 11 -4 15 2 15 28 0 42 18 94 75 216 24 52 46 106 47 119 5 40 -20 35
-31 -6z"/>
<path d="M12455 1440 c-11 -18 24 -42 52 -37 13 2 28 -2 34 -9 12 -14 -12 -43
-60 -75 -15 -9 -21 -20 -17 -27 12 -19 42 -14 75 14 l31 26 0 -35 c0 -49 23
-70 69 -62 44 8 101 59 84 76 -9 9 -19 6 -41 -10 -17 -11 -40 -21 -51 -21 -45
0 -38 71 9 98 30 17 40 42 18 42 -7 0 -28 -9 -45 -20 -24 -14 -33 -16 -33 -6
0 35 -107 75 -125 46z"/>
</g>
</svg>
