<?xml version="1.0" standalone="no"?>
<!DOCTYPE svg PUBLIC "-//W3C//DTD SVG 20010904//EN"
 "http://www.w3.org/TR/2001/REC-SVG-20010904/DTD/svg10.dtd">
<svg version="1.0" xmlns="http://www.w3.org/2000/svg"
 width="1617.000000pt" height="1213.000000pt" viewBox="0 0 1617.000000 1213.000000"
 preserveAspectRatio="xMidYMid meet">

<g transform="translate(0.000000,1213.000000) scale(0.100000,-0.100000)"
fill="#000000" stroke="none">
<path d="M3880 11709 c-61 -10 -204 -23 -340 -29 -232 -11 -303 -16 -513 -41
-100 -12 -108 -11 -120 5 -13 17 -17 17 -78 2 -69 -18 -85 -28 -75 -45 10 -15
86 -14 241 4 156 18 148 17 140 5 -3 -5 1 -22 9 -37 7 -15 30 -76 49 -134 20
-59 43 -121 52 -139 9 -17 15 -33 13 -36 -2 -2 -75 -6 -163 -9 -87 -4 -163 -9
-167 -11 -4 -3 -8 -11 -8 -18 0 -16 70 -32 79 -18 9 14 375 31 666 31 261 -1
315 5 315 35 0 15 -27 29 -40 21 -16 -10 -95 -17 -252 -22 l-156 -5 -8 58 c-7
56 1 256 12 299 5 21 14 22 132 29 297 16 337 22 337 51 0 10 -4 19 -10 21 -5
1 -57 -6 -115 -17z m-385 -196 c-3 -76 -8 -162 -11 -190 l-5 -53 -85 0 c-46 0
-84 2 -84 5 0 3 25 49 55 102 56 102 105 219 105 253 0 11 7 20 15 20 13 0 15
-18 10 -137z m-75 107 c0 -53 -137 -321 -152 -298 -4 7 -19 47 -32 88 -13 41
-36 106 -50 143 -18 49 -22 69 -13 72 16 6 87 11 175 13 65 2 72 0 72 -18z"/>
<path d="M14326 11611 c-32 -51 -37 -53 -71 -35 -16 8 -35 12 -42 10 -7 -3
-13 -1 -13 4 0 6 -7 10 -16 10 -11 0 -15 -6 -11 -20 3 -11 2 -20 -3 -20 -4 0
-20 -18 -35 -40 -22 -32 -28 -52 -29 -96 0 -48 3 -59 25 -78 l25 -22 -23 -49
c-28 -60 -31 -118 -7 -113 11 2 17 15 19 38 3 43 31 110 48 114 92 25 131 41
158 67 30 28 31 33 26 81 -4 32 -14 60 -27 74 l-22 22 26 41 c30 47 31 51 11
51 -8 0 -26 -18 -39 -39z m-58 -83 c-2 -7 -23 -48 -48 -91 -55 -94 -74 -98
-78 -16 -3 49 1 61 23 88 22 25 34 31 67 31 27 0 38 -4 36 -12z m66 -43 c24
-36 20 -60 -14 -89 -29 -24 -99 -51 -108 -41 -7 7 82 155 94 155 7 0 19 -11
28 -25z"/>
<path d="M14751 11631 c-34 -4 -56 -11 -59 -20 -4 -12 11 -13 87 -8 50 3 91 3
91 0 0 -3 -17 -31 -37 -64 -36 -54 -41 -58 -85 -65 -33 -4 -48 -11 -48 -21 0
-11 10 -14 38 -11 l38 3 -27 -65 c-15 -35 -25 -68 -23 -72 9 -14 34 -9 34 7 0
9 13 43 28 78 26 57 32 63 73 75 61 18 77 28 63 42 -8 8 -21 7 -48 -4 -20 -8
-36 -13 -36 -10 0 3 19 31 41 63 23 33 38 64 35 70 -7 11 -71 12 -165 2z"/>
<path d="M13222 11618 c-7 -7 -12 -23 -12 -37 0 -15 -11 -72 -25 -129 -27
-112 -31 -157 -15 -167 6 -4 17 -1 25 5 11 9 12 16 3 30 -9 14 -9 28 0 57 6
22 21 84 32 138 20 95 17 128 -8 103z"/>
<path d="M13880 11591 c-25 -15 -54 -38 -64 -50 -19 -20 -19 -23 -3 -39 17
-16 18 -16 23 4 6 25 100 88 119 80 15 -5 9 -42 -13 -83 -16 -28 -99 -103
-116 -103 -17 0 -56 -46 -56 -66 0 -22 21 -16 52 13 l28 27 31 -37 c30 -36 34
-38 83 -35 37 2 52 7 54 19 2 14 -5 15 -45 12 -45 -5 -50 -3 -71 27 l-24 31
50 53 c114 120 78 228 -48 147z"/>
<path d="M13317 11594 c-17 -17 13 -24 104 -24 l99 0 -29 -41 c-17 -22 -31
-45 -33 -50 -2 -5 -30 -12 -63 -17 -43 -5 -60 -11 -60 -22 0 -11 11 -14 49
-11 44 2 48 1 41 -16 -21 -53 -27 -75 -21 -88 9 -25 24 -17 32 17 18 83 50
115 102 101 16 -4 22 -1 22 11 0 10 -11 19 -30 23 -16 3 -30 7 -30 10 0 7 54
78 63 81 4 2 7 10 7 18 0 11 -24 14 -123 14 -68 0 -127 -3 -130 -6z"/>
<path d="M14545 11578 c-8 -23 -38 -162 -43 -201 -4 -34 -2 -38 14 -35 13 2
19 12 20 33 1 27 23 131 40 193 5 16 2 22 -10 22 -9 0 -19 -6 -21 -12z"/>
<path d="M12730 11565 c-27 -7 -45 -17 -45 -26 0 -16 2 -16 67 -5 85 15 83
-15 -6 -94 -125 -111 -139 -150 -46 -129 19 5 56 9 82 9 42 0 69 13 55 27 -8
8 -67 7 -112 -1 l-40 -7 83 79 c47 46 82 88 82 99 0 48 -47 67 -120 48z"/>
<path d="M12517 11554 c-4 -4 -7 -19 -7 -33 0 -14 -11 -61 -25 -104 -28 -87
-31 -117 -12 -117 12 0 64 167 69 224 3 28 -11 44 -25 30z"/>
<path d="M13603 11343 c-18 -6 -16 -33 1 -33 19 0 31 19 20 30 -5 4 -15 5 -21
3z"/>
<path d="M12930 11319 c0 -25 33 -22 38 4 2 12 -3 17 -17 17 -15 0 -21 -6 -21
-21z"/>
<path d="M8752 11265 c-7 -14 -12 -70 -12 -124 l0 -98 -45 -1 c-25 -1 -50 -4
-56 -7 -20 -13 4 -25 47 -25 l44 0 0 -71 c0 -61 2 -70 17 -67 14 2 16 14 14
71 -2 63 -1 68 16 63 27 -9 106 7 111 22 3 10 -7 13 -39 12 -87 -4 -81 -12
-76 103 2 56 7 112 11 125 12 32 -17 29 -32 -3z"/>
<path d="M7980 11247 c-60 -30 -95 -122 -80 -212 5 -33 10 -62 10 -63 0 -2
-33 -2 -74 -1 -41 2 -78 0 -83 -4 -15 -16 24 -27 98 -27 l77 0 5 -32 c6 -37
-22 -86 -45 -79 -7 2 -21 6 -30 8 -31 9 -20 -24 11 -37 54 -22 108 36 96 104
-6 30 -4 34 19 40 14 3 26 13 26 22 0 12 -7 14 -30 9 -26 -6 -31 -3 -41 22
-20 52 -15 125 11 172 32 57 71 73 104 42 28 -26 36 -26 36 -2 0 23 -36 51
-65 51 -11 0 -31 -6 -45 -13z"/>
<path d="M15286 11219 c-36 -10 -66 -37 -66 -59 0 -10 11 -34 25 -55 15 -20
25 -38 23 -39 -2 -1 -27 -21 -55 -45 -61 -49 -66 -74 -29 -118 27 -32 83 -53
140 -53 46 0 86 36 86 78 0 26 -46 112 -68 126 -12 7 86 106 105 106 44 0 -26
58 -80 67 -39 6 -54 -12 -19 -23 46 -15 47 -16 15 -30 -31 -13 -49 -39 -19
-28 29 11 25 -15 -5 -37 -36 -26 -56 -19 -78 25 -15 33 -7 45 37 55 21 4 28
10 23 22 -5 12 -13 14 -35 8z m71 -236 c44 -76 17 -112 -74 -98 -50 7 -97 44
-91 72 2 10 27 34 57 55 62 43 66 42 108 -29z"/>
<path d="M5595 11183 c-60 -8 -114 -18 -119 -23 -5 -5 -6 -16 -2 -25 5 -13 9
-15 20 -6 13 11 131 30 187 31 l27 0 -24 -60 c-35 -86 -49 -162 -36 -199 6
-17 8 -32 4 -35 -4 -2 -62 -7 -128 -11 -86 -5 -123 -4 -128 4 -10 16 -36 13
-36 -4 0 -34 40 -37 270 -26 122 6 226 14 232 17 5 3 15 1 23 -6 11 -9 18 -3
36 32 26 52 68 108 80 108 5 0 9 -20 9 -45 0 -25 7 -61 14 -80 18 -42 41 -48
32 -7 -4 15 -10 55 -14 88 -8 67 -25 96 -48 87 -8 -3 -32 -30 -54 -61 l-40
-55 0 41 c0 42 -16 65 -30 42 -4 -6 -5 -32 -2 -57 6 -57 -2 -63 -99 -63 -61 0
-78 3 -83 16 -14 35 -5 117 20 181 14 38 23 76 20 87 -5 20 -7 20 182 0 41 -5
62 -3 62 4 0 13 -17 18 -100 32 -83 13 -139 11 -275 -7z"/>
<path d="M8962 11128 c6 -16 36 -34 44 -25 9 9 -15 37 -33 37 -8 0 -13 -5 -11
-12z"/>
<path d="M9680 11083 c-39 -36 -41 -40 -30 -67 6 -16 25 -45 42 -65 28 -31 29
-36 14 -39 -16 -3 -37 1 -128 25 -11 3 -18 -1 -18 -10 0 -18 18 -26 90 -41
108 -23 129 5 65 85 -19 24 -35 52 -35 61 0 21 46 58 72 58 26 0 18 24 -10 28
-14 2 -36 -10 -62 -35z"/>
<path d="M6583 11066 c-27 -23 -28 -28 -27 -105 2 -101 11 -154 27 -148 8 2
12 33 12 93 0 49 4 99 8 112 10 26 44 29 88 7 21 -11 35 -13 47 -6 16 9 15 10
-3 17 -11 4 -37 18 -57 31 -47 29 -60 29 -95 -1z"/>
<path d="M6364 11052 c-40 -33 -74 -88 -74 -121 0 -39 23 -87 49 -101 38 -20
149 0 159 28 5 15 -20 15 -68 1 -50 -15 -84 -6 -98 26 -18 39 -16 42 34 48 28
3 54 13 70 28 61 57 -8 144 -72 91z m64 -38 c4 -25 -15 -42 -56 -50 -41 -8
-42 9 -5 48 31 32 57 33 61 2z"/>
<path d="M6210 11024 c-6 -14 -10 -38 -10 -53 0 -42 -11 -91 -21 -91 -5 0 -23
25 -40 56 -23 41 -35 52 -43 44 -17 -17 45 -122 79 -135 33 -12 41 0 50 70 3
27 9 69 12 93 6 48 -11 59 -27 16z"/>
<path d="M7005 11038 c-48 -26 -65 -51 -65 -92 0 -49 6 -58 47 -80 34 -17 119
-21 142 -7 25 16 2 28 -47 23 -58 -5 -112 18 -112 48 0 15 7 20 29 20 75 0
106 36 66 76 -27 27 -32 28 -60 12z m45 -37 c0 -11 -25 -21 -53 -21 -22 1 -22
1 -3 15 22 17 56 20 56 6z"/>
<path d="M9373 11030 c-18 -11 -33 -24 -33 -29 0 -5 -8 -11 -18 -14 -19 -4
-32 -44 -32 -93 0 -41 28 -28 41 18 6 24 26 57 46 77 32 32 36 33 45 17 7 -12
6 -32 -1 -62 -12 -49 -8 -67 16 -62 23 5 29 130 8 152 -21 21 -33 20 -72 -4z"/>
<path d="M6761 11022 l-22 -17 29 -30 c30 -31 52 -66 52 -84 0 -6 -9 -15 -20
-21 -16 -8 -23 -7 -37 10 -24 28 -35 25 -31 -7 2 -21 10 -29 35 -37 78 -22
112 60 53 127 -37 43 -38 51 -1 44 34 -7 45 1 30 20 -16 18 -63 16 -88 -5z"/>
<path d="M8519 11023 c-99 -66 -125 -136 -60 -162 34 -15 111 2 136 29 18 20
3 39 -18 22 -23 -19 -89 -32 -109 -21 -15 8 -16 13 -7 31 15 28 68 73 87 73
21 0 26 19 9 33 -10 9 -19 7 -38 -5z"/>
<path d="M8283 11003 c-15 -16 -45 -37 -66 -47 -21 -11 -45 -33 -53 -48 -11
-21 -22 -28 -43 -28 -40 0 -55 22 -47 71 6 35 4 40 -11 37 -48 -9 -28 -122 24
-133 15 -4 34 -9 41 -11 14 -4 57 35 79 71 11 18 12 16 12 -17 1 -27 5 -38 16
-38 8 0 15 9 15 21 0 38 58 119 87 119 29 0 34 -38 12 -90 -13 -31 -26 -47
-33 -43 -6 4 -5 -1 3 -10 23 -28 35 -20 60 42 23 58 22 89 -1 119 -18 21 -65
14 -95 -15z"/>
<path d="M9155 11020 c-5 -5 -20 -18 -32 -29 -68 -61 -2 -165 73 -116 26 17
29 41 11 95 -3 8 -8 25 -12 38 -8 23 -23 28 -40 12z m24 -72 c13 -36 -3 -63
-31 -53 -25 10 -30 35 -13 61 21 32 31 30 44 -8z"/>
<path d="M8949 10973 c-14 -37 -8 -88 11 -88 10 0 15 11 16 35 1 19 5 45 9 58
11 33 -23 29 -36 -5z"/>
<path d="M2289 10653 c-27 -70 -40 -124 -45 -193 -6 -80 3 -107 31 -96 14 5
15 9 5 21 -17 21 -6 130 21 204 33 88 33 91 15 91 -9 0 -21 -12 -27 -27z"/>
<path d="M2560 10623 c-1 -21 -5 -84 -9 -141 -9 -103 -6 -142 10 -142 13 0 17
32 24 183 6 121 5 137 -9 137 -12 0 -16 -10 -16 -37z"/>
<path d="M2380 10618 c0 -7 -5 -64 -11 -127 -11 -118 -7 -161 14 -161 8 0 13
30 16 103 7 183 6 190 -6 194 -7 3 -13 -1 -13 -9z"/>
<path d="M11497 10477 c-26 -25 -63 -136 -78 -231 -16 -100 -13 -96 -80 -96
-46 0 -59 -3 -59 -15 0 -12 13 -15 60 -15 l60 0 0 -52 c0 -70 17 -128 37 -128
12 0 14 6 8 28 -3 15 -9 57 -12 95 l-5 67 63 1 c35 1 72 1 82 0 9 -1 17 4 17
13 0 13 -14 16 -75 16 -87 0 -84 -6 -59 116 9 44 30 103 47 133 32 57 32 57
51 -1 8 -27 26 -21 26 8 0 33 -15 61 -40 74 -16 9 -25 6 -43 -13z"/>
<path d="M2690 10359 c0 -24 23 -21 28 4 2 10 -3 17 -12 17 -10 0 -16 -9 -16
-21z"/>
<path d="M9073 10351 c-63 -29 -77 -57 -70 -144 4 -40 9 -82 13 -93 5 -20 1
-23 -47 -29 -29 -4 -72 -7 -96 -7 -31 1 -43 -3 -43 -13 0 -22 58 -27 133 -12
l67 15 0 -42 c0 -46 -27 -99 -60 -116 -19 -10 -26 -8 -51 16 -22 21 -32 25
-40 17 -15 -15 41 -73 69 -73 26 0 78 44 97 81 8 15 15 48 15 73 0 40 3 46 25
52 18 4 25 13 25 30 0 13 -4 24 -10 24 -5 0 -10 -4 -10 -9 0 -5 -9 -11 -19
-14 -17 -4 -21 3 -30 45 -24 108 -8 158 54 174 20 5 30 1 47 -21 15 -20 23
-23 29 -14 8 14 -2 38 -27 63 -19 20 -20 20 -71 -3z"/>
<path d="M5446 10342 c-12 -19 -8 -422 4 -422 17 0 23 25 31 134 4 61 12 127
18 147 14 46 52 103 72 107 24 4 50 -22 58 -58 8 -40 -12 -142 -34 -177 -19
-29 -19 -73 -1 -73 8 0 17 12 21 28 3 15 17 41 31 57 24 28 26 29 37 11 7 -10
22 -31 35 -46 13 -17 22 -41 22 -62 0 -58 25 -72 117 -64 96 9 170 48 133 71
-5 3 -17 -2 -27 -12 -18 -18 -62 -27 -143 -28 -39 0 -45 3 -48 23 -3 18 1 22
26 22 38 0 112 63 112 95 0 27 -24 55 -48 55 -18 0 -80 -54 -98 -85 -10 -17
-14 -13 -47 38 -20 31 -40 57 -45 57 -4 0 -8 24 -8 53 0 60 -20 101 -59 119
-41 18 -72 2 -105 -55 l-31 -52 1 50 c1 28 1 56 1 63 -1 14 -17 16 -25 4z
m431 -239 c4 -11 -4 -25 -27 -45 -62 -51 -83 -28 -28 29 36 37 46 40 55 16z"/>
<path d="M3917 10334 c-4 -4 -7 -47 -7 -94 l0 -87 -30 -6 c-18 -4 -30 -13 -30
-23 0 -12 6 -14 31 -9 l32 7 -5 -69 c-6 -76 5 -124 24 -105 6 6 10 45 10 91
l-1 81 55 1 c75 2 77 2 82 17 3 9 -15 12 -68 12 l-72 0 3 92 c4 85 -3 112 -24
92z"/>
<path d="M14843 10329 c-38 -11 -50 -26 -34 -42 9 -9 16 -8 31 1 48 30 170 22
183 -12 4 -9 -11 -29 -36 -51 -83 -72 -111 -101 -139 -144 -34 -54 -37 -109
-9 -135 28 -26 43 -11 24 22 -10 18 -14 38 -10 54 10 40 66 107 132 161 33 26
64 56 69 67 28 61 -103 110 -211 79z"/>
<path d="M3417 10324 c-3 -4 -2 -15 4 -26 7 -13 7 -68 0 -175 -13 -202 -8
-212 59 -113 22 33 45 60 50 60 5 0 12 -22 16 -49 8 -60 17 -76 39 -67 12 4
14 10 7 19 -5 6 -13 33 -16 59 -7 46 -26 78 -47 78 -11 0 -47 -35 -67 -66 -10
-16 -12 4 -7 113 4 88 3 139 -5 152 -11 21 -22 26 -33 15z"/>
<path d="M9866 10322 c-3 -5 -2 -32 3 -59 5 -27 7 -68 4 -92 l-6 -42 -63 7
c-54 5 -64 4 -64 -9 0 -12 16 -17 64 -22 l63 -7 7 -66 c8 -75 13 -87 31 -72 9
7 10 22 4 53 -15 78 -16 77 41 60 55 -16 80 -12 80 11 0 10 -10 14 -28 14 -15
-1 -44 4 -63 11 l-35 11 0 90 c0 69 -3 94 -16 106 -9 10 -18 12 -22 6z"/>
<path d="M3080 10283 c-41 -27 -80 -66 -80 -80 0 -20 24 -16 37 7 7 11 25 26
41 34 l28 14 -33 -126 c-18 -70 -33 -137 -33 -149 0 -36 25 -27 67 22 20 25
41 45 45 45 4 0 16 -20 27 -44 22 -50 49 -69 86 -60 33 8 82 59 88 92 9 40
-24 233 -40 239 -22 9 -22 2 -7 -77 28 -146 18 -198 -41 -220 -22 -8 -55 8
-55 28 0 7 -6 15 -14 18 -8 3 -12 12 -9 20 7 20 -15 44 -35 37 -9 -3 -30 -18
-46 -32 -25 -23 -28 -24 -23 -6 28 97 57 230 53 241 -7 18 -25 17 -56 -3z"/>
<path d="M13873 10266 c-34 -6 -68 -18 -75 -27 -7 -8 -25 -23 -40 -32 -40 -25
-35 -42 21 -82 54 -39 88 -82 74 -96 -5 -5 -30 -12 -56 -15 -34 -5 -53 -2 -71
10 -26 17 -40 9 -30 -18 8 -20 63 -30 116 -22 101 16 106 55 17 138 l-62 58
35 14 c19 8 45 12 56 9 16 -4 22 -1 22 11 0 12 10 16 43 17 67 0 122 13 122
28 0 18 -91 22 -172 7z"/>
<path d="M4634 10205 c-4 -9 -2 -21 3 -26 14 -14 45 1 41 20 -4 22 -37 26 -44
6z"/>
<path d="M10105 10210 c-9 -15 4 -30 27 -30 14 0 18 5 14 16 -3 9 -6 18 -6 20
0 8 -29 4 -35 -6z"/>
<path d="M6692 10178 c4 -37 23 -48 31 -17 7 27 -1 49 -20 49 -10 0 -13 -9
-11 -32z"/>
<path d="M7825 10176 c-84 -23 -86 -46 -10 -111 72 -61 71 -85 -5 -85 -24 0
-27 3 -23 21 5 16 2 20 -12 18 -10 -2 -23 -11 -28 -21 -18 -28 9 -48 62 -48
56 0 91 22 91 56 0 25 -11 39 -74 91 l-40 32 30 11 c16 7 46 9 66 7 40 -5 56
4 35 21 -22 17 -51 20 -92 8z"/>
<path d="M7545 10156 c-47 -47 -45 -102 7 -161 21 -25 34 -33 41 -26 8 8 4 18
-10 33 -26 29 -43 62 -43 83 0 29 46 65 85 65 24 0 35 4 35 15 0 27 -86 20
-115 -9z"/>
<path d="M12607 10151 c-9 -42 -76 -181 -87 -181 -6 0 -10 6 -10 14 0 20 -62
156 -71 156 -21 0 -18 -26 10 -85 52 -110 51 -164 -5 -240 -46 -62 -104 -197
-104 -243 0 -50 20 -54 31 -6 3 16 65 149 137 296 72 147 132 277 134 290 5
36 -28 36 -35 -1z"/>
<path d="M7116 10138 c-3 -13 -6 -36 -6 -51 0 -36 -20 -117 -29 -117 -4 0 -23
34 -44 75 -20 41 -41 75 -46 75 -14 0 -25 -21 -15 -29 5 -3 26 -41 46 -83 37
-76 49 -87 76 -69 16 10 42 93 42 136 0 17 5 36 11 42 14 14 5 43 -15 43 -7 0
-16 -10 -20 -22z"/>
<path d="M8085 10119 c-38 -35 -45 -48 -45 -78 0 -44 18 -72 66 -101 28 -18
44 -21 80 -16 55 7 104 32 104 51 0 19 0 19 -40 -2 -19 -9 -54 -16 -78 -16
-38 0 -50 5 -74 31 -15 18 -28 36 -28 41 0 5 16 12 36 16 55 10 84 26 90 51
10 41 1 59 -33 62 -26 3 -41 -5 -78 -39z m83 -6 c-3 -17 -67 -46 -78 -36 -8 7
49 53 66 53 9 0 14 -7 12 -17z"/>
<path d="M3678 10125 c-14 -13 -33 -42 -43 -64 -14 -33 -15 -43 -5 -56 16 -19
47 -19 84 0 16 9 30 14 30 13 1 -2 6 -16 12 -33 7 -23 16 -30 34 -30 16 0 25
6 25 15 0 8 -7 15 -15 15 -12 0 -14 11 -13 48 2 35 -1 47 -11 47 -8 0 -18 -5
-21 -10 -7 -12 -79 -50 -95 -50 -17 0 28 78 55 96 25 16 25 34 1 34 -7 0 -24
-11 -38 -25z"/>
<path d="M13033 10131 c-60 -16 -93 -34 -81 -47 4 -3 46 4 94 16 66 17 92 20
110 11 30 -13 45 6 19 26 -23 16 -63 15 -142 -6z"/>
<path d="M4745 10126 c-19 -14 -19 -15 -2 -50 16 -35 24 -96 11 -96 -3 0 -15
5 -26 11 -14 7 -23 8 -30 1 -7 -7 0 -17 23 -31 50 -31 69 -28 71 12 3 53 -2
90 -14 104 -8 10 -6 17 8 28 16 13 17 16 4 25 -20 13 -23 13 -45 -4z"/>
<path d="M7305 10115 c-22 -8 -45 -22 -52 -32 -24 -35 -33 -42 -48 -37 -9 4
-15 0 -15 -10 0 -9 7 -16 15 -16 8 0 21 -13 29 -28 26 -50 101 -67 171 -38 42
18 48 41 8 32 -80 -19 -108 -18 -133 3 l-25 20 30 1 c69 1 132 75 90 107 -22
16 -20 16 -70 -2z m32 -50 c-28 -25 -67 -34 -67 -16 0 16 43 41 70 41 l25 -1
-28 -24z"/>
<path d="M10444 10099 c-36 -28 -73 -87 -74 -116 0 -26 28 -12 56 28 28 41 69
79 85 79 5 0 9 -20 9 -44 0 -24 6 -48 13 -54 16 -13 104 15 112 36 9 24 -2 26
-39 8 -50 -24 -56 -21 -56 27 0 74 -41 88 -106 36z"/>
<path d="M14123 10119 c-21 -21 -15 -26 26 -25 37 1 81 -24 81 -45 0 -9 -118
-69 -137 -69 -15 0 -18 -26 -3 -35 5 -3 32 6 60 20 l50 25 0 -24 c0 -40 25
-56 86 -56 42 0 54 3 54 15 0 9 7 18 15 21 8 4 15 12 15 20 0 21 -27 17 -51
-7 -28 -28 -83 -23 -87 8 -4 25 47 87 89 109 31 15 39 44 14 44 -8 0 -15 -9
-15 -21 0 -15 -4 -19 -19 -14 -11 3 -22 1 -26 -5 -4 -6 -19 0 -40 15 -39 31
-95 42 -112 24z"/>
<path d="M6700 10010 c0 -91 3 -110 15 -110 12 0 15 19 15 110 0 91 -3 110
-15 110 -12 0 -15 -19 -15 -110z"/>
<path d="M6826 10104 c-9 -8 -19 -27 -22 -42 -3 -15 -12 -48 -19 -75 -8 -30
-9 -49 -3 -53 16 -10 26 8 42 75 17 72 18 74 39 66 25 -10 40 -59 33 -112 -4
-26 -2 -54 3 -62 13 -19 20 -1 27 66 8 70 -10 114 -56 138 -26 13 -30 13 -44
-1z"/>
<path d="M4635 10098 c-11 -37 -15 -187 -5 -193 6 -4 13 -5 16 -2 3 2 7 50 11
106 4 74 3 101 -6 101 -6 0 -13 -6 -16 -12z"/>
<path d="M9584 10090 c-56 -22 -86 -119 -47 -151 22 -19 154 -14 194 6 37 20
39 40 2 31 -66 -17 -148 -24 -165 -15 -24 13 -23 54 2 79 25 25 66 35 84 21
19 -16 32 5 16 24 -14 16 -53 19 -86 5z"/>
<path d="M10199 10060 c-39 -38 -38 -87 2 -109 24 -13 31 -13 68 4 48 21 53
45 19 99 -28 43 -51 45 -89 6z m63 -27 c24 -22 23 -38 -5 -50 -25 -12 -57 -1
-57 19 0 12 29 48 38 48 3 0 14 -7 24 -17z"/>
<path d="M9236 10059 c-3 -8 -7 -34 -8 -59 -3 -44 -4 -45 -37 -45 -43 0 -62
25 -43 56 17 27 1 49 -23 29 -24 -20 -19 -77 11 -107 20 -20 32 -24 57 -19 18
3 42 17 55 32 18 21 21 32 16 67 -7 47 -21 68 -28 46z"/>
<path d="M10077 10053 c-13 -12 -7 -100 7 -112 20 -17 24 -4 19 62 -5 54 -11
66 -26 50z"/>
<path d="M11146 10029 c-31 -37 -33 -69 -6 -94 26 -24 104 -16 134 14 19 20
20 23 6 49 -15 25 -70 60 -97 62 -6 0 -23 -14 -37 -31z m92 -27 c21 -3 13 -39
-10 -46 -57 -15 -85 -3 -74 32 5 16 31 20 84 14z"/>
<path d="M9348 10033 c-24 -12 -28 -21 -28 -54 0 -33 3 -40 17 -37 9 2 20 12
23 23 12 44 26 58 47 46 20 -10 20 -13 7 -51 -14 -40 -12 -60 6 -60 11 0 40
98 34 115 -6 14 -48 36 -67 34 -7 -1 -24 -8 -39 -16z"/>
<path d="M12926 10031 c-11 -18 36 -30 125 -31 118 -2 119 -2 119 15 0 12 -17
15 -89 15 -49 0 -102 3 -119 6 -17 4 -32 1 -36 -5z"/>
<path d="M14849 9729 c-8 -15 -8 -24 0 -32 15 -15 46 16 38 37 -9 22 -24 20
-38 -5z"/>
<path d="M2653 9516 c-91 -43 -85 -79 32 -176 84 -70 151 -143 156 -170 6 -30
-11 -68 -33 -74 -78 -21 -214 9 -203 44 8 25 -8 32 -31 15 -48 -36 52 -95 161
-95 85 0 115 14 133 62 12 32 12 40 -3 71 -18 38 -99 121 -181 186 -63 50 -73
70 -44 93 61 50 141 38 133 -19 -5 -35 16 -66 39 -58 43 17 23 90 -35 125 -41
26 -61 25 -124 -4z"/>
<path d="M11889 9515 c-52 -28 -56 -68 -22 -203 9 -34 14 -65 10 -68 -3 -3
-38 -8 -79 -11 -80 -5 -83 -6 -73 -24 6 -8 30 -9 85 -5 66 6 78 5 84 -9 13
-34 -24 -125 -50 -125 -9 0 -14 -6 -11 -12 7 -24 41 -13 64 20 12 19 25 53 29
78 3 24 9 44 13 45 3 0 16 2 28 3 28 3 37 11 28 25 -3 6 -16 9 -28 6 -42 -11
-58 20 -92 178 -3 18 1 38 11 56 15 25 20 27 50 21 35 -8 55 3 37 21 -17 17
-57 18 -84 4z"/>
<path d="M6432 9428 c-21 -46 -45 -107 -53 -137 -9 -35 -20 -56 -33 -60 -16
-7 -17 -9 -5 -21 11 -10 14 -30 11 -77 -5 -72 9 -115 43 -133 28 -15 87 -6
110 17 24 24 4 36 -31 18 -61 -32 -94 -7 -94 71 0 78 7 90 51 100 50 11 47 30
-3 26 l-37 -2 15 52 c9 29 31 84 50 121 35 72 40 92 24 102 -5 3 -27 -32 -48
-77z"/>
<path d="M4326 9468 c-23 -32 -20 -117 5 -183 12 -31 19 -58 17 -61 -3 -2 -24
3 -48 11 -53 19 -60 19 -60 1 0 -8 22 -21 53 -31 28 -10 56 -21 61 -26 5 -4
-1 -34 -14 -69 -22 -58 -24 -61 -51 -55 -30 7 -37 -3 -17 -23 19 -19 56 -14
72 11 8 12 22 45 32 73 14 41 21 50 36 46 15 -4 18 -11 13 -33 -5 -20 -1 -33
14 -48 30 -30 67 -26 103 9 26 27 30 36 25 67 -6 37 -31 72 -43 61 -3 -4 -1
-22 6 -42 8 -25 8 -41 1 -55 -22 -41 -85 -34 -74 9 3 10 16 28 29 41 24 22 32
49 15 49 -5 0 -14 -7 -21 -15 -13 -16 -57 -20 -76 -7 -18 12 -64 155 -64 197
0 59 10 68 48 45 18 -11 32 -24 32 -30 0 -5 7 -10 15 -10 35 0 2 51 -52 79
-31 16 -40 14 -57 -11z"/>
<path d="M12684 9465 c-4 -8 -7 -61 -8 -118 l-1 -104 -54 14 c-35 9 -57 11
-63 5 -13 -13 12 -26 81 -42 l53 -13 -5 -51 c-3 -28 -8 -61 -12 -73 -5 -17 -3
-23 8 -23 19 0 37 51 37 107 l0 45 43 -2 c64 -4 77 -1 77 15 0 12 -14 15 -64
15 l-65 0 -7 45 c-6 42 -4 74 12 163 5 25 3 32 -10 32 -9 0 -19 -7 -22 -15z"/>
<path d="M3170 9278 c-2 -84 -4 -178 -4 -208 -1 -76 17 -80 26 -5 22 202 19
365 -7 365 -9 0 -13 -39 -15 -152z"/>
<path d="M7906 9378 c-19 -73 -19 -73 -71 -78 -36 -4 -51 -10 -53 -21 -3 -14
4 -16 42 -12 l46 6 0 -58 c0 -72 24 -115 79 -140 44 -19 88 -14 98 11 8 22 -4
29 -30 15 -55 -29 -117 32 -117 114 l0 52 76 7 c74 6 113 21 97 37 -4 4 -28 4
-53 -1 -25 -5 -58 -9 -74 -10 -23 0 -27 3 -21 18 17 45 18 72 1 72 -9 0 -18
-6 -20 -12z"/>
<path d="M8683 9318 c0 -40 -8 -101 -17 -134 -20 -77 -21 -148 -2 -163 23 -19
33 11 41 119 8 118 33 176 87 205 l38 20 22 -23 c30 -30 28 -99 -7 -181 -29
-69 -30 -81 -11 -81 8 0 27 27 42 60 l29 59 27 -26 c17 -17 28 -37 28 -54 0
-15 11 -41 24 -56 22 -26 30 -28 97 -28 98 0 104 21 8 27 -54 4 -76 10 -86 24
-17 23 -17 45 1 38 7 -3 30 2 50 10 44 18 47 46 10 75 -35 27 -48 26 -77 -5
l-24 -25 -17 25 c-9 14 -23 26 -31 26 -10 0 -12 9 -8 34 7 41 -21 104 -53 118
-29 14 -65 4 -103 -27 l-30 -26 -3 28 c-2 16 -10 29 -19 31 -13 2 -16 -9 -16
-70z m362 -154 c-10 -8 -22 -14 -26 -14 -15 0 -20 21 -9 35 9 11 17 12 33 3
20 -10 20 -11 2 -24z"/>
<path d="M12930 9370 c0 -23 39 -43 54 -29 11 10 -21 49 -41 49 -7 0 -13 -9
-13 -20z"/>
<path d="M9644 9366 c-4 -9 -2 -22 5 -29 8 -8 14 -8 23 1 10 10 8 16 -5 29
-15 15 -17 15 -23 -1z"/>
<path d="M10066 9309 c-2 -8 -7 -49 -9 -91 -8 -116 -18 -125 -56 -47 -17 35
-31 69 -31 76 0 7 -7 13 -16 13 -13 0 -15 -7 -10 -32 7 -38 76 -160 93 -165
19 -7 42 61 52 151 8 65 7 84 -4 95 -12 13 -15 13 -19 0z"/>
<path d="M10811 9304 c-30 -8 -61 -19 -68 -25 -25 -21 -15 -66 24 -105 40 -40
38 -61 -9 -78 -36 -13 -58 -1 -58 30 0 30 -19 28 -31 -3 -5 -13 -2 -28 7 -42
26 -37 114 -22 146 23 16 23 6 54 -27 86 -19 19 -35 40 -35 47 0 19 55 44 108
48 26 2 49 4 51 4 2 1 -2 8 -9 16 -15 18 -29 18 -99 -1z"/>
<path d="M10485 9289 c-40 -19 -68 -75 -68 -135 0 -60 12 -80 39 -70 13 5 15
9 6 18 -7 7 -12 33 -12 59 0 57 30 100 73 102 24 2 41 27 18 27 -5 0 -15 2
-23 4 -7 3 -22 0 -33 -5z"/>
<path d="M10944 9257 c-36 -36 -44 -51 -44 -80 0 -50 27 -67 107 -67 54 0 63
3 68 21 8 25 -1 37 -17 21 -16 -16 -101 -15 -116 0 -21 21 -13 49 22 84 37 37
63 43 73 18 6 -17 -7 -34 -28 -37 -23 -4 -40 -18 -34 -28 11 -17 45 -9 77 20
l33 29 -21 29 c-34 45 -67 42 -120 -10z"/>
<path d="M5369 9269 c-7 -14 -8 -24 -1 -31 13 -13 32 -2 32 18 0 12 4 12 25
-2 38 -25 33 -66 -13 -116 -22 -24 -49 -42 -63 -43 -33 -2 -39 -35 -6 -35 26
0 105 52 114 76 4 11 10 7 25 -16 17 -29 22 -31 56 -25 45 8 52 12 52 31 0 11
-7 13 -27 8 -16 -4 -32 -7 -38 -8 -20 -2 -15 46 9 90 38 68 16 88 -24 22 -17
-29 -18 -29 -25 -8 -7 24 -60 60 -87 60 -10 0 -22 -9 -29 -21z"/>
<path d="M10230 9271 c0 -6 -7 -11 -15 -11 -8 0 -15 -7 -15 -16 0 -8 -4 -13
-10 -9 -13 8 -47 -65 -42 -92 2 -13 7 -23 12 -23 5 0 7 -6 4 -14 -3 -7 7 -23
23 -36 23 -18 35 -20 73 -15 41 6 90 37 90 57 0 11 -35 5 -52 -10 -30 -24 -74
-26 -97 -3 -33 33 -26 53 31 81 60 29 78 52 62 78 -12 19 -64 30 -64 13z m40
-30 c0 -12 -69 -55 -77 -48 -7 8 47 57 63 57 8 0 14 -4 14 -9z"/>
<path d="M13329 9248 c-15 -18 -39 -46 -53 -63 -26 -32 -24 -33 -41 21 -9 29
-27 2 -22 -32 3 -19 1 -48 -5 -65 -7 -20 -7 -34 -1 -40 6 -6 34 21 78 76 37
47 69 84 72 82 2 -3 0 -22 -5 -43 -19 -84 22 -138 103 -136 49 0 65 7 65 26 0
9 -16 11 -59 8 -53 -4 -60 -2 -71 18 -12 22 -10 66 6 148 6 28 4 32 -16 32
-13 0 -35 -14 -51 -32z"/>
<path d="M3326 9262 c-2 -4 -8 -36 -12 -71 l-7 -64 -19 51 c-11 29 -25 52 -33
52 -19 0 -28 -33 -12 -45 8 -5 18 -21 22 -35 16 -51 56 -121 68 -117 8 2 12
33 12 97 0 66 4 95 13 98 17 5 15 29 -4 36 -20 8 -22 8 -28 -2z"/>
<path d="M3524 9260 c-75 -30 -95 -156 -33 -203 25 -18 27 -18 84 2 67 24 74
29 80 59 5 28 0 28 -36 -3 -31 -25 -88 -41 -114 -31 -31 12 -16 50 33 81 36
23 48 37 50 59 5 41 -19 54 -64 36z m8 -62 c-35 -31 -47 -32 -36 -4 7 18 56
48 64 39 3 -2 -10 -18 -28 -35z"/>
<path d="M9647 9243 c-2 -4 -7 -35 -10 -68 -7 -66 2 -126 20 -132 7 -3 11 24
11 84 0 48 2 94 3 102 4 15 -16 27 -24 14z"/>
<path d="M12916 9237 c-17 -54 -24 -131 -15 -148 16 -31 26 -15 32 53 3 35 9
70 12 79 4 10 0 19 -10 23 -9 3 -17 0 -19 -7z"/>
<path d="M13037 9219 c-31 -25 -37 -37 -37 -68 0 -63 45 -89 106 -62 53 24 68
44 61 81 -17 83 -66 102 -130 49z m74 -21 c11 2 19 -7 23 -25 9 -34 -25 -64
-69 -61 -24 3 -31 8 -33 30 -4 31 31 73 51 61 7 -4 19 -6 28 -5z"/>
<path d="M2971 9226 c-79 -44 -59 -146 26 -133 34 6 73 36 73 57 0 9 -63 89
-70 89 -3 0 -16 -6 -29 -13z m41 -43 c28 -25 23 -50 -12 -58 -50 -11 -64 11
-34 53 18 26 22 27 46 5z"/>
<path d="M4667 9228 c-20 -16 -47 -79 -47 -111 0 -33 25 -65 40 -51 8 8 8 18
-1 38 -10 22 -10 33 4 62 21 43 38 50 70 29 35 -22 49 1 16 26 -28 22 -58 24
-82 7z"/>
<path d="M7308 9215 c-42 -28 -56 -64 -40 -100 13 -28 45 -39 101 -33 36 3 40
1 44 -22 3 -14 1 -27 -4 -29 -6 -1 -29 -17 -52 -35 -53 -40 -84 -98 -71 -135
15 -42 54 -40 104 5 49 44 70 82 70 123 0 40 49 70 102 64 45 -6 136 19 172
48 42 33 17 41 -39 14 -28 -13 -68 -27 -90 -31 l-40 -7 50 34 c51 35 61 53 51
95 -8 29 -25 30 -76 4 -45 -23 -80 -68 -80 -102 0 -16 -10 -30 -30 -41 l-29
-18 -11 41 c-11 40 -26 50 -47 29 -16 -16 -84 -7 -97 14 -9 15 -5 23 23 49 29
26 39 29 73 25 33 -4 39 -3 36 11 -5 29 -76 27 -120 -3z m328 -42 c-6 -20 -83
-69 -93 -60 -9 10 31 56 62 71 34 17 39 15 31 -11z m-206 -188 c0 -46 -89
-140 -111 -118 -17 17 11 71 54 103 46 34 57 37 57 15z"/>
<path d="M12245 9214 c-27 -29 -50 -88 -40 -104 10 -16 33 6 40 40 3 15 15 36
26 46 28 25 56 7 50 -32 -8 -60 -6 -79 9 -79 8 0 15 7 16 15 0 8 4 32 8 53 17
78 -56 118 -109 61z"/>
<path d="M3025 9220 c3 -5 8 -10 11 -10 2 0 4 5 4 10 0 6 -5 10 -11 10 -5 0
-7 -4 -4 -10z"/>
<path d="M6275 9222 c-62 -4 -85 -11 -85 -26 0 -11 13 -13 63 -9 70 6 70 6 65
25 -2 9 -16 12 -43 10z"/>
<path d="M9792 9214 c-26 -18 -82 -111 -82 -137 0 -33 31 -14 45 27 8 22 27
53 44 70 l30 30 10 -25 c5 -15 6 -52 1 -90 -4 -35 -4 -68 0 -73 15 -16 32 37
34 104 1 54 -3 72 -18 89 -23 25 -34 26 -64 5z"/>
<path d="M12421 9195 c-17 -20 -31 -42 -31 -49 0 -22 33 -53 69 -65 48 -16 61
-14 61 9 0 15 -7 20 -29 20 -16 0 -38 8 -50 18 -20 16 -21 18 -6 40 9 12 23
22 31 22 17 0 15 31 -2 37 -6 2 -25 -12 -43 -32z"/>
<path d="M12021 9189 c-35 -58 -25 -107 28 -128 69 -29 149 63 103 119 -26 32
-44 20 -29 -20 9 -24 8 -32 -8 -50 -22 -24 -63 -23 -79 2 -8 13 -6 26 7 54 25
51 6 69 -22 23z"/>
<path d="M6573 9182 c-7 -4 -15 -26 -18 -47 -5 -32 -3 -44 12 -57 47 -42 111
-40 127 4 11 31 -12 74 -47 87 -47 18 -62 20 -74 13z m92 -69 c8 -23 -8 -35
-40 -31 -35 4 -54 30 -36 51 15 19 66 5 76 -20z"/>
<path d="M6320 8568 c-11 -18 -28 -53 -37 -78 -9 -25 -20 -49 -25 -54 -4 -6
-8 -18 -8 -28 0 -34 -25 -7 -55 60 -38 87 -54 112 -72 112 -10 0 -13 -8 -11
-25 2 -14 7 -25 12 -25 5 1 26 -36 47 -82 23 -51 43 -83 52 -82 11 1 10 -13
-9 -74 -13 -42 -27 -79 -31 -83 -9 -9 -141 -16 -162 -9 -8 3 -16 -2 -18 -11
-5 -23 36 -32 105 -23 51 6 55 5 48 -12 -4 -11 -8 -21 -8 -24 -2 -21 5 -30 23
-30 14 0 19 6 18 18 -2 9 0 26 4 38 7 19 17 21 144 28 75 4 139 9 141 11 2 2
1 9 -3 15 -5 9 -41 10 -133 5 -71 -4 -123 -4 -120 1 4 10 15 34 46 104 11 25
22 64 25 87 4 35 25 86 75 186 2 4 -4 7 -12 7 -9 0 -25 -15 -36 -32z"/>
<path d="M12794 8523 c-15 -22 -19 -46 -19 -106 l0 -79 -77 7 c-66 6 -78 5
-78 -8 0 -12 18 -17 79 -23 l79 -6 5 -42 c3 -22 2 -45 -3 -50 -12 -12 10 -56
28 -56 12 0 14 13 10 70 -3 38 -2 67 3 64 12 -7 49 19 49 35 0 10 -8 12 -29 8
-28 -6 -29 -5 -36 41 -7 56 1 111 21 133 7 8 14 21 14 27 0 22 -27 12 -46 -15z"/>
<path d="M11796 8499 c-41 -49 -53 -105 -39 -179 l10 -50 -55 7 c-75 8 -68
-18 9 -32 l54 -10 3 -43 c4 -50 -10 -72 -39 -65 -17 5 -20 2 -17 -13 2 -12 13
-20 30 -22 37 -4 58 30 58 95 0 50 1 53 26 53 23 0 25 -3 19 -28 -8 -38 13
-54 66 -50 36 3 45 8 65 40 23 36 23 36 4 58 -16 18 -22 20 -34 10 -12 -9 -13
-16 -4 -30 15 -24 -5 -50 -38 -50 -32 0 -32 33 1 62 24 21 34 48 17 48 -5 0
-23 -7 -40 -16 -18 -8 -46 -14 -64 -12 -29 3 -33 7 -41 43 -12 59 -1 123 30
163 l26 35 23 -29 c19 -23 24 -25 29 -12 9 22 -23 68 -45 68 -10 0 -34 -19
-54 -41z"/>
<path d="M7943 8483 c-16 -6 -17 -43 -2 -43 7 0 18 -8 25 -17 21 -29 35 -4 19
35 -14 32 -19 35 -42 25z"/>
<path d="M8820 8469 c0 -7 5 -29 12 -51 9 -31 8 -56 -5 -126 -31 -167 -32
-184 -11 -180 22 4 42 68 43 141 2 110 92 218 120 143 11 -27 3 -67 -27 -148
-19 -52 -20 -68 -1 -68 4 0 21 23 39 50 18 28 34 50 37 50 2 0 15 -12 28 -27
18 -21 21 -32 13 -46 -15 -28 15 -64 64 -77 59 -16 154 -2 152 23 -2 14 1 15
12 6 9 -8 14 -8 14 -1 0 17 -19 25 -33 14 -41 -32 -177 -18 -177 18 0 15 7 20
25 20 42 0 95 27 95 47 0 45 -59 58 -103 23 l-26 -21 -22 31 c-13 16 -31 30
-42 30 -15 0 -17 5 -12 29 4 17 0 44 -9 65 -13 31 -20 36 -46 36 -18 0 -43 -9
-57 -20 -35 -27 -40 -26 -47 15 -4 21 -13 35 -21 35 -8 0 -15 -5 -15 -11z
m360 -209 c0 -5 -4 -10 -9 -10 -5 0 -18 -3 -28 -7 -16 -6 -16 -5 -4 10 15 19
41 23 41 7z"/>
<path d="M5180 8438 c-13 -18 -32 -48 -42 -68 -14 -28 -17 -31 -18 -13 0 24
-53 73 -78 73 -28 0 -45 -17 -38 -35 4 -13 10 -14 19 -7 20 17 61 -8 65 -39 4
-34 -35 -89 -83 -116 -41 -23 -81 -31 -70 -14 3 5 1 12 -4 15 -5 4 -13 1 -16
-4 -8 -14 23 -50 42 -50 23 0 86 36 116 65 26 27 27 27 27 6 0 -39 29 -71 65
-71 48 0 65 9 65 34 0 12 5 27 11 33 8 8 8 13 -1 18 -15 9 -40 -13 -40 -36 0
-13 -7 -19 -23 -19 -29 0 -47 18 -47 46 0 34 54 146 84 173 31 29 33 41 8 41
-10 0 -29 -15 -42 -32z"/>
<path d="M9890 8448 c0 -7 5 -20 10 -28 12 -20 33 0 24 23 -7 20 -34 23 -34 5z"/>
<path d="M13004 8426 c-4 -11 0 -24 9 -34 15 -14 17 -14 23 2 4 11 0 24 -9 34
-15 14 -17 14 -23 -2z"/>
<path d="M10285 8367 c-2 -6 -6 -36 -9 -66 -6 -58 -28 -101 -51 -101 -15 0
-23 34 -27 114 -2 28 -8 51 -15 53 -9 3 -11 -18 -10 -80 2 -68 6 -89 21 -106
34 -38 88 -6 104 62 23 93 24 124 7 131 -9 3 -17 0 -20 -7z"/>
<path d="M10628 8360 c-38 -20 -64 -72 -55 -107 3 -10 8 -30 11 -45 4 -19 13
-28 26 -28 26 0 37 21 16 32 -11 6 -16 23 -16 53 0 49 22 72 82 84 17 4 33 12
36 19 6 19 -58 14 -100 -8z"/>
<path d="M13407 8320 c-41 -46 -46 -48 -49 -28 -5 37 -22 19 -34 -36 -6 -28
-13 -57 -15 -65 -2 -8 4 -17 14 -19 9 -2 17 2 17 8 0 13 91 130 100 130 4 0 4
-16 2 -35 -6 -52 5 -83 35 -98 48 -26 176 24 144 56 -6 6 -16 4 -26 -6 -20
-21 -84 -33 -104 -20 -13 9 -15 26 -13 87 4 94 -7 98 -71 26z"/>
<path d="M11002 8345 c-29 -21 -52 -66 -52 -103 0 -41 28 -62 83 -62 40 0 47
3 47 19 0 26 -17 36 -35 21 -24 -20 -60 -8 -63 21 -3 22 2 28 23 33 45 11 76
37 73 60 -4 27 -45 33 -76 11z"/>
<path d="M5598 8338 c-38 -7 -58 -15 -58 -24 0 -17 19 -17 91 -4 35 7 56 7 63
0 15 -15 26 -12 26 9 0 32 -23 36 -122 19z"/>
<path d="M10002 8323 c-49 -71 -67 -133 -37 -133 8 0 15 7 15 16 0 9 12 38 27
66 23 42 28 47 41 34 9 -8 17 -43 20 -85 5 -79 25 -97 36 -32 6 40 -13 120
-34 146 -19 23 -47 18 -68 -12z"/>
<path d="M10376 8319 c-32 -37 -35 -90 -7 -118 26 -26 99 -46 130 -35 42 15
33 29 -22 32 -89 5 -122 48 -79 102 14 18 25 22 45 16 38 -9 34 -24 -8 -32
-38 -7 -53 -20 -38 -35 12 -12 79 10 100 34 17 18 17 20 -10 43 -39 34 -79 31
-111 -7z"/>
<path d="M10797 8332 c-32 -20 -34 -34 -8 -76 10 -17 22 -42 26 -56 6 -20 5
-23 -6 -12 -17 16 -29 15 -29 -1 0 -16 41 -57 57 -57 27 0 17 81 -18 137 l-20
32 26 14 c21 11 24 15 13 24 -10 9 -20 7 -41 -5z"/>
<path d="M7912 8313 c-4 -10 -7 -49 -7 -88 0 -54 3 -70 14 -70 12 0 15 19 17
88 1 82 -8 109 -24 70z"/>
<path d="M12130 8323 c-62 -23 -118 -153 -67 -153 9 0 17 15 20 38 10 57 33
84 70 80 27 -2 33 -8 35 -31 2 -16 -4 -46 -12 -68 -19 -48 -20 -69 -3 -69 17
0 47 88 47 138 0 56 -39 84 -90 65z"/>
<path d="M7105 8309 c-47 -11 -60 -22 -52 -43 5 -14 9 -14 34 -1 32 17 79 20
88 5 11 -17 25 -11 25 10 0 13 -10 24 -26 30 -14 6 -26 10 -27 9 -1 -1 -20 -5
-42 -10z"/>
<path d="M8036 8307 c-28 -20 -15 -49 32 -75 35 -20 42 -28 36 -45 -19 -63
-82 -80 -75 -20 3 21 -18 24 -29 3 -13 -24 0 -54 30 -70 28 -15 73 11 94 54
27 56 19 74 -48 108 -18 10 -25 18 -17 22 13 8 15 36 3 36 -5 0 -16 -6 -26
-13z"/>
<path d="M9872 8281 c-20 -65 -13 -121 14 -121 11 0 13 9 8 38 -4 24 0 51 9
74 8 20 13 39 9 42 -14 15 -30 3 -40 -33z"/>
<path d="M13150 8301 c-86 -56 -104 -141 -30 -141 37 0 94 40 98 69 4 27 -15
78 -31 84 -7 2 -23 -3 -37 -12z m38 -58 c2 -16 -5 -26 -27 -37 -34 -18 -61
-21 -61 -7 0 5 12 24 26 41 30 35 57 36 62 3z"/>
<path d="M12363 8289 c-37 -11 -73 -52 -73 -84 0 -31 31 -56 77 -62 43 -6 149
13 158 28 14 21 -8 25 -64 11 -66 -16 -129 -10 -138 14 -15 38 82 88 126 64
27 -14 40 8 16 27 -21 15 -55 16 -102 2z"/>
<path d="M12966 8253 c-3 -3 -6 -20 -7 -37 0 -17 -4 -40 -8 -51 -10 -24 -3
-45 14 -45 20 0 35 123 16 134 -4 3 -11 3 -15 -1z"/>
<path d="M11072 8241 c4 -13 18 -16 19 -4 0 4 -5 9 -11 12 -7 2 -11 -2 -8 -8z"/>
<path d="M5665 8232 c-4 -4 -36 -7 -73 -7 -73 0 -96 -18 -35 -29 67 -11 153
-7 153 7 0 26 -29 45 -45 29z"/>
<path d="M7060 8201 c-32 -4 -46 -11 -48 -24 -4 -18 -2 -18 103 -3 22 4 51 8
64 10 14 1 27 8 29 14 4 13 -65 14 -148 3z"/>
<path d="M6125 8019 c-78 -41 -80 -69 -4 -94 27 -9 56 -26 64 -38 13 -19 13
-23 -2 -39 -18 -20 -67 -24 -107 -8 -21 7 -26 6 -26 -5 0 -39 110 -49 154 -14
14 11 26 27 26 35 0 31 -30 72 -62 84 -18 6 -42 15 -53 19 -17 7 -15 10 20 27
30 14 62 19 130 19 84 0 111 7 99 27 -3 4 -49 8 -102 8 -78 -1 -105 -5 -137
-21z"/>
<path d="M14810 7343 c-42 -29 -68 -64 -112 -150 -38 -73 -46 -83 -70 -83 -18
0 -28 -5 -28 -15 0 -8 9 -15 20 -15 11 0 20 -3 20 -7 0 -5 -18 -53 -40 -107
-42 -105 -48 -130 -27 -124 6 3 32 54 57 116 25 61 49 114 53 119 4 4 38 7 74
8 87 0 96 20 13 28 -34 3 -64 7 -67 10 -5 6 21 60 45 89 82 102 114 123 137
91 10 -14 16 -15 26 -6 9 9 6 17 -14 37 -30 30 -53 33 -87 9z"/>
<path d="M9074 7265 c-39 -16 -54 -51 -65 -160 -17 -149 -16 -149 -80 -157
-30 -4 -69 -8 -87 -10 -18 -1 -36 -6 -39 -11 -12 -20 16 -26 80 -16 38 6 71 8
75 5 3 -4 -25 -51 -63 -106 -53 -79 -66 -103 -56 -113 9 -9 14 -9 21 3 60 99
138 209 148 210 16 0 16 0 -18 -66 -40 -76 -39 -127 3 -132 39 -5 127 81 127
124 0 69 -21 91 -54 58 -18 -18 -11 -38 10 -30 10 4 14 -2 14 -20 0 -17 -14
-40 -39 -65 -70 -70 -82 -40 -26 65 42 80 44 96 9 96 -21 0 -25 3 -19 18 7 16
18 86 30 194 8 63 31 90 81 93 49 3 49 2 35 19 -14 17 -49 17 -87 1z"/>
<path d="M4800 7223 c-7 -26 -14 -85 -17 -130 l-6 -81 -46 -7 c-59 -8 -80 -20
-65 -35 9 -9 22 -9 50 -1 66 18 65 19 62 -71 -3 -73 -1 -83 15 -86 14 -3 18 1
13 15 -3 10 -2 50 2 88 l7 70 44 0 c24 0 46 5 48 11 4 13 -28 24 -69 24 -26 0
-28 3 -28 38 0 20 5 66 10 102 16 100 16 103 4 107 -7 2 -17 -17 -24 -44z"/>
<path d="M11391 7233 c-9 -19 -9 -29 -2 -31 18 -6 -9 -167 -39 -238 -18 -42
-19 -43 -50 -31 -25 9 -36 9 -58 -3 -31 -18 -87 -114 -78 -136 25 -64 151 26
210 152 44 92 71 301 40 311 -6 2 -16 -9 -23 -24z m-97 -329 c14 -5 13 -9 -4
-34 -24 -33 -90 -75 -90 -57 0 15 39 80 54 89 14 9 20 10 40 2z"/>
<path d="M4341 7138 c-6 -62 -20 -151 -31 -197 -20 -81 -20 -111 -3 -111 4 0
16 17 25 38 10 20 32 53 49 71 30 34 32 34 45 16 8 -11 17 -36 20 -57 4 -20
13 -39 20 -42 22 -9 22 26 -2 92 -20 53 -53 65 -88 32 l-24 -21 3 44 c2 25 5
49 8 54 3 4 8 50 12 101 6 77 5 92 -7 92 -12 0 -18 -26 -27 -112z"/>
<path d="M12730 7219 c0 -18 -12 -77 -26 -131 l-27 -98 -39 0 c-43 0 -82 -16
-73 -30 3 -5 29 -6 57 -3 46 6 51 4 45 -12 -4 -10 -12 -37 -18 -61 -6 -24 -17
-49 -25 -55 -20 -16 -17 -29 5 -29 17 0 51 51 51 77 0 4 5 25 11 46 8 32 14
37 38 37 16 0 39 9 52 20 l24 21 -49 -7 c-44 -6 -48 -5 -42 12 46 154 56 233
29 242 -9 2 -13 -7 -13 -29z"/>
<path d="M7850 7186 c0 -19 -9 -78 -20 -132 -42 -214 -44 -254 -14 -254 10 0
14 13 14 44 0 24 11 102 25 172 29 150 32 204 10 204 -10 0 -15 -10 -15 -34z"/>
<path d="M6487 7193 c-4 -3 -7 -49 -7 -102 0 -66 -6 -115 -19 -156 -25 -79
-38 -195 -22 -195 18 0 41 63 57 158 16 91 56 182 97 220 25 24 25 24 36 4 19
-36 12 -118 -15 -195 -31 -84 -35 -120 -14 -124 15 -4 40 53 55 125 6 31 25
45 25 19 0 -8 11 -23 23 -36 20 -18 23 -29 19 -69 -6 -66 8 -76 93 -67 43 4
63 10 58 18 -4 6 0 8 10 4 10 -3 17 -2 17 4 0 7 -26 10 -72 7 l-73 -3 0 29 c0
24 6 30 35 40 30 9 35 16 35 41 0 24 -5 31 -23 33 -14 2 -29 -4 -36 -14 -18
-24 -41 -12 -61 30 -10 20 -21 36 -26 36 -5 0 -9 25 -9 55 0 64 -22 115 -49
115 -17 0 -69 -51 -98 -96 -11 -16 -12 -6 -7 54 5 59 4 72 -8 72 -8 0 -18 -3
-21 -7z"/>
<path d="M10047 7183 c-3 -5 -10 -40 -16 -80 -6 -39 -24 -107 -40 -150 -40
-108 -46 -143 -28 -143 17 0 48 69 70 153 23 86 96 187 136 187 23 0 9 -70
-29 -149 -22 -45 -40 -89 -40 -97 0 -26 28 -15 56 22 l28 36 12 -25 c8 -14 20
-27 27 -30 8 -3 15 -17 15 -31 0 -57 54 -94 118 -81 13 3 36 7 50 10 17 4 24
11 20 20 -3 9 0 12 10 8 7 -3 14 0 14 6 0 14 -16 14 -41 0 -29 -15 -120 -14
-130 3 -22 34 -10 54 40 67 62 16 91 36 91 65 0 60 -76 53 -129 -11 -24 -29
-33 -34 -44 -24 -8 6 -17 25 -21 41 -3 17 -12 30 -20 30 -13 0 -13 4 0 35 17
42 18 107 2 123 -23 23 -60 13 -98 -27 l-37 -39 8 36 c4 20 6 40 3 44 -6 10
-21 10 -27 1z m321 -218 c-7 -7 -24 -16 -38 -19 l-25 -7 28 26 c28 25 62 25
35 0z"/>
<path d="M12906 7162 c-8 -13 7 -63 18 -59 18 6 19 54 2 60 -9 3 -17 3 -20 -1z"/>
<path d="M4006 7139 c-77 -41 -116 -69 -116 -84 0 -23 12 -19 78 25 55 37 82
48 82 34 0 -3 -20 -43 -44 -87 -24 -45 -52 -104 -61 -130 -16 -42 -16 -50 -4
-63 13 -12 21 -6 60 46 l46 59 11 -38 c16 -51 54 -85 86 -77 40 10 83 53 102
101 26 69 9 182 -25 161 -7 -5 -7 -15 -1 -32 25 -66 -6 -161 -63 -191 -38 -19
-53 -6 -73 63 -9 31 -21 54 -29 54 -7 0 -25 -15 -39 -32 -36 -46 -32 -26 10
51 82 148 75 191 -20 140z"/>
<path d="M11997 7133 c-4 -3 -7 -24 -7 -45 0 -50 25 -52 33 -1 8 46 -5 68 -26
46z"/>
<path d="M2565 7113 c-33 -17 -95 -72 -95 -85 0 -16 36 -7 48 12 12 19 90 65
98 57 6 -6 -49 -87 -125 -181 -45 -57 -68 -93 -62 -99 6 -6 21 0 41 17 38 31
36 31 82 6 24 -12 39 -16 43 -9 10 15 -12 37 -50 49 l-33 11 64 85 c63 83 82
123 69 143 -9 16 -45 13 -80 -6z"/>
<path d="M5554 7107 c-9 -24 0 -52 16 -52 21 0 24 39 6 55 -13 10 -17 9 -22
-3z"/>
<path d="M2230 7068 c0 -18 -8 -55 -19 -83 -27 -74 -35 -155 -17 -180 12 -16
17 -18 28 -7 9 9 10 17 1 30 -13 22 -3 98 22 159 18 45 17 104 -2 111 -9 2
-13 -7 -13 -30z"/>
<path d="M2349 7088 c0 -2 -2 -12 -4 -23 -3 -11 -13 -64 -25 -119 -23 -114
-25 -149 -8 -144 13 5 70 266 61 281 -4 6 -22 10 -24 5z"/>
<path d="M13062 6987 c-22 -45 -50 -91 -61 -101 l-21 -19 0 66 c0 53 -3 67
-15 67 -23 0 -22 -168 1 -177 23 -8 75 54 120 145 21 39 41 72 46 72 4 0 8 7
8 15 0 8 -9 15 -19 15 -14 0 -30 -22 -59 -83z"/>
<path d="M13244 7011 c-51 -36 -74 -72 -74 -115 0 -35 24 -73 50 -78 8 -1 43
4 78 11 52 12 62 17 62 35 0 11 3 31 6 44 9 33 -12 27 -28 -8 -9 -21 -24 -33
-48 -40 -59 -17 -79 -13 -86 16 -8 31 4 40 58 49 44 8 102 44 106 67 4 23 -25
48 -57 48 -15 0 -46 -13 -67 -29z m90 -9 c6 -10 -39 -37 -76 -46 -37 -9 -35 4
5 32 32 23 62 28 71 14z"/>
<path d="M7966 6990 c-40 -37 -45 -47 -51 -101 -9 -74 8 -105 61 -115 58 -11
229 84 201 112 -4 4 -15 0 -24 -9 -20 -18 -142 -77 -159 -77 -7 0 -22 8 -34
18 -18 15 -21 24 -16 49 6 25 14 32 49 42 99 29 133 121 45 121 -19 0 -43 -13
-72 -40z m94 2 c0 -14 -33 -38 -68 -50 -30 -10 -32 -10 -22 8 19 36 90 69 90
42z"/>
<path d="M5536 6989 c-38 -92 -47 -194 -16 -194 10 0 14 9 13 30 -2 39 26 148
41 157 8 5 6 12 -6 25 -17 16 -18 15 -32 -18z"/>
<path d="M7421 7006 c-7 -8 -20 -12 -30 -9 -16 4 -19 -4 -24 -64 -10 -103 -9
-123 7 -123 18 0 26 24 24 71 -1 21 7 52 18 70 17 29 26 34 62 37 29 2 42 8
42 18 0 19 -83 19 -99 0z"/>
<path d="M4535 7000 c-13 -21 -24 -72 -18 -86 7 -20 30 -18 64 7 l30 21 -6
-24 c-6 -25 15 -73 29 -67 14 7 15 149 0 149 -7 0 -15 -4 -19 -10 -3 -5 -19
-19 -35 -30 -31 -22 -41 -13 -15 14 8 8 15 19 15 25 0 14 -37 14 -45 1z"/>
<path d="M11477 6989 c-53 -40 -82 -125 -54 -162 16 -22 69 -37 90 -26 26 15
10 36 -22 31 -40 -6 -61 30 -35 59 9 10 27 19 40 19 13 0 35 11 51 24 24 21
26 26 15 50 -14 32 -46 34 -85 5z m58 -18 c6 -10 -25 -31 -46 -31 -8 0 -5 7 6
20 20 22 31 25 40 11z"/>
<path d="M5654 6977 c-22 -20 -25 -27 -16 -44 6 -11 23 -28 37 -37 14 -9 25
-25 25 -35 0 -24 -37 -71 -56 -71 -19 0 -67 47 -59 59 9 16 -12 22 -25 6 -16
-19 14 -70 51 -85 41 -18 71 -8 96 29 32 47 30 84 -7 114 -35 30 -38 43 -10
52 23 7 27 35 6 35 -8 0 -27 -10 -42 -23z"/>
<path d="M11727 6986 c-61 -22 -107 -76 -107 -126 0 -33 24 -22 45 22 23 48
57 76 100 81 17 2 30 10 30 18 0 19 -23 21 -68 5z"/>
<path d="M7672 6953 c1 -30 -4 -41 -32 -65 -40 -33 -80 -38 -80 -9 0 11 5 23
10 26 17 10 11 25 -10 25 -39 0 -40 -77 -1 -96 33 -17 72 -1 116 47 34 38 41
61 29 93 -12 32 -33 18 -32 -21z"/>
<path d="M12114 6918 c-35 -67 -39 -71 -45 -48 -4 14 -7 42 -8 62 -1 40 -16
57 -34 38 -8 -9 -9 -14 -1 -16 6 -3 9 -17 7 -32 -3 -15 2 -45 9 -67 21 -63 45
-55 91 33 31 59 42 72 62 72 16 0 25 6 25 15 0 10 -10 15 -34 15 -31 0 -36 -4
-72 -72z"/>
<path d="M12356 6967 c-69 -39 -100 -103 -67 -136 22 -22 56 -18 102 12 23 15
24 15 25 -9 3 -37 12 -54 29 -54 12 0 14 8 9 40 -5 30 -2 48 15 75 24 42 28
70 7 62 -8 -3 -16 2 -19 14 -7 26 -51 25 -101 -4z m83 -21 c21 -25 -103 -115
-126 -92 -15 15 15 62 52 83 47 27 58 28 74 9z"/>
<path d="M14410 6972 c-60 -20 -106 -85 -90 -126 24 -63 130 9 130 87 0 28
-19 47 -40 39z m10 -45 c0 -18 -28 -55 -51 -67 -30 -17 -25 26 7 55 30 28 44
32 44 12z"/>
<path d="M11898 6927 c-47 -75 -54 -96 -36 -114 20 -19 41 -7 34 20 -6 23 7
51 37 84 18 20 18 53 0 53 -4 -1 -20 -20 -35 -43z"/>
<path d="M12842 6958 c-20 -26 -62 -118 -62 -138 0 -11 7 -20 15 -20 8 0 15 8
15 18 0 9 16 45 34 79 18 34 31 65 28 68 -9 8 -19 6 -30 -7z"/>
<path d="M9238 6920 c-23 -14 -78 -106 -78 -130 0 -33 25 -23 39 15 27 75 86
116 119 83 16 -16 29 -1 16 20 -13 20 -71 27 -96 12z"/>
<path d="M2787 6905 c-8 -18 11 -31 25 -17 11 11 3 32 -12 32 -4 0 -10 -7 -13
-15z"/>
<path d="M2690 6788 c0 -11 -9 -66 -19 -122 -11 -56 -26 -144 -34 -196 -8 -52
-16 -101 -18 -109 -2 -8 3 -16 12 -18 12 -3 19 8 28 44 16 63 95 214 128 244
l26 24 -7 -50 c-3 -27 -9 -81 -12 -118 -7 -68 -7 -69 17 -65 15 2 35 20 55 49
l30 46 13 -29 c8 -16 24 -34 37 -40 18 -8 24 -19 24 -43 0 -49 29 -69 89 -62
50 6 121 35 91 37 -10 1 -9 4 5 10 15 7 16 9 4 9 -9 1 -33 -6 -54 -15 -20 -8
-51 -14 -69 -12 -27 3 -31 7 -34 35 -3 29 1 33 40 51 55 24 72 45 64 77 -10
38 -39 31 -84 -20 -22 -25 -44 -45 -49 -45 -18 0 -40 35 -47 73 -9 51 -31 47
-61 -12 -32 -63 -50 -76 -42 -30 23 134 20 179 -12 179 -28 0 -56 -28 -96 -94
-41 -69 -43 -59 -15 74 24 116 25 150 5 150 -9 0 -15 -9 -15 -22z m390 -268
c0 -5 -10 -15 -22 -21 -23 -12 -23 -12 -4 10 21 23 26 26 26 11z"/>
<path d="M4027 6693 c-13 -12 -7 -33 8 -33 8 0 15 9 15 20 0 20 -11 26 -23 13z"/>
<path d="M6776 6666 c-29 -28 -51 -122 -42 -183 l6 -43 -43 0 c-65 0 -118 -11
-114 -24 3 -7 30 -10 80 -7 l77 3 0 -42 c0 -29 -6 -47 -17 -55 -15 -11 -15
-13 5 -24 18 -9 23 -8 32 8 5 11 10 40 10 64 l0 45 59 4 c59 3 60 3 54 -23 -4
-20 2 -33 22 -53 24 -24 33 -27 64 -21 20 4 42 12 49 18 23 18 42 65 42 100 0
26 -6 36 -25 45 -30 14 -47 -4 -22 -23 22 -16 21 -39 0 -75 -35 -60 -125 -39
-93 21 16 29 8 34 -57 37 -82 4 -91 9 -99 47 -8 46 13 139 37 161 20 18 21 18
49 -12 15 -18 29 -37 32 -45 2 -7 9 -9 15 -6 17 11 -4 63 -34 87 -34 26 -59
25 -87 -4z"/>
<path d="M7570 6585 l0 -105 -65 0 c-51 0 -65 -3 -65 -15 0 -12 14 -15 64 -15
l65 0 6 -55 c5 -40 12 -55 23 -55 12 0 14 10 8 55 l-6 55 59 0 c53 0 83 12 68
27 -3 3 -33 6 -66 6 l-61 2 0 102 c0 85 -3 103 -15 103 -12 0 -15 -18 -15
-105z"/>
<path d="M8748 6634 c-12 -12 -9 -64 3 -64 6 0 13 10 16 21 6 20 11 21 80 17
40 -3 76 -8 80 -12 4 -3 -25 -38 -64 -76 -40 -38 -79 -83 -88 -100 -21 -40
-16 -92 7 -96 23 -3 31 11 19 33 -16 30 11 73 93 149 42 39 76 76 76 81 0 6
-9 18 -20 28 -16 15 -41 20 -108 23 -48 2 -90 1 -94 -4z"/>
<path d="M7805 6596 c-18 -13 -18 -14 2 -36 l21 -22 12 22 c10 18 9 25 -2 36
-12 12 -17 12 -33 0z"/>
<path d="M4001 6514 c-22 -67 -21 -104 4 -104 13 0 25 30 25 64 0 10 6 24 14
30 17 13 10 76 -9 76 -7 0 -22 -30 -34 -66z"/>
<path d="M4131 6510 c-46 -58 -58 -87 -41 -104 8 -8 15 -6 26 8 8 11 14 27 14
35 0 9 14 31 32 50 30 32 32 33 45 15 10 -13 11 -31 6 -64 -13 -76 -10 -125 7
-125 8 0 14 7 12 15 -2 8 2 43 8 77 13 68 9 103 -16 127 -27 27 -52 18 -93
-34z"/>
<path d="M4508 6482 c-20 -42 -44 -86 -52 -97 -14 -19 -15 -17 -16 25 0 73
-27 146 -46 127 -4 -4 5 -78 22 -184 6 -40 26 -42 52 -5 35 48 111 199 105
206 -16 16 -31 -1 -65 -72z"/>
<path d="M4892 6530 c-26 -26 -92 -143 -92 -164 0 -3 6 -6 13 -6 18 0 51 36
43 48 -6 10 42 90 66 110 9 7 29 12 45 10 20 -2 28 1 28 12 0 10 -12 16 -36
18 -30 2 -42 -3 -67 -28z"/>
<path d="M5370 6538 c-19 -13 -43 -42 -54 -65 -15 -30 -27 -42 -43 -43 -29 0
-31 -30 -3 -30 13 0 25 -12 34 -34 24 -57 102 -82 173 -55 41 15 93 52 93 67
0 18 -21 15 -44 -7 -48 -43 -139 -53 -174 -21 -32 30 -28 56 10 69 18 7 50 23
70 38 48 32 53 78 12 93 -34 13 -36 13 -74 -12z m70 -27 c0 -12 -49 -47 -84
-61 -33 -12 -33 -8 5 35 29 33 79 49 79 26z"/>
<path d="M5128 6530 c-62 -33 -98 -93 -63 -106 12 -5 14 -15 9 -43 -11 -62
-18 -67 -44 -31 -26 37 -48 28 -29 -12 13 -30 51 -53 72 -45 16 6 37 79 37
126 0 16 5 33 11 36 6 4 8 13 5 21 -6 17 23 34 58 34 29 0 36 24 10 34 -22 8
-24 8 -66 -14z"/>
<path d="M4658 6517 c-90 -75 -89 -187 3 -187 55 0 148 64 126 86 -4 4 -17 -2
-30 -13 -29 -26 -79 -45 -109 -41 -34 5 -38 53 -5 62 13 3 36 17 51 31 14 13
29 23 33 22 11 -4 26 30 20 47 -9 23 -57 20 -89 -7z m52 -11 c0 -3 -15 -14
-32 -26 l-33 -22 28 26 c27 25 37 31 37 22z"/>
<path d="M7915 6520 c-9 -15 4 -30 27 -30 16 0 18 -4 12 -17 -13 -28 -9 -84 7
-94 25 -16 85 -10 102 9 23 25 21 65 -2 86 -18 16 -111 56 -131 56 -5 0 -12
-4 -15 -10z m116 -60 c23 -13 25 -46 3 -54 -45 -17 -74 7 -54 45 12 22 23 23
51 9z"/>
<path d="M8159 6493 c-40 -34 -66 -91 -48 -107 7 -7 13 -7 15 -1 16 39 52 90
67 93 15 3 17 -5 17 -62 0 -53 4 -70 20 -86 23 -23 38 -25 64 -5 23 18 12 39
-14 25 -29 -15 -40 10 -39 85 1 48 -2 70 -12 76 -22 14 -36 11 -70 -18z"/>
<path d="M7104 6420 c-34 -51 -44 -74 -37 -81 16 -16 30 -4 57 50 14 26 32 53
40 60 14 12 18 9 30 -20 10 -25 11 -38 4 -47 -14 -16 14 -48 32 -37 17 11 6
82 -18 114 -35 47 -56 40 -108 -39z"/>
<path d="M7284 6436 c-19 -19 -34 -41 -34 -51 0 -49 53 -85 124 -85 47 0 110
19 88 27 -6 3 -9 9 -6 15 4 6 -2 6 -14 -1 -45 -24 -144 -7 -156 26 -9 23 13
54 50 69 19 8 32 19 29 24 -12 20 -48 9 -81 -24z"/>
<path d="M7789 6411 c-12 -40 -5 -82 10 -65 7 8 31 83 31 98 0 3 -7 6 -15 6
-8 0 -19 -17 -26 -39z"/>
<path d="M8835 6176 c-19 -29 -15 -42 10 -32 20 7 30 35 17 48 -7 7 -15 2 -27
-16z"/>
<path d="M11186 5509 c-41 -36 -87 -112 -110 -185 l-17 -51 -45 -1 c-25 -1
-49 -4 -55 -7 -19 -13 4 -25 46 -25 l45 0 -26 -57 c-14 -32 -35 -75 -45 -95
-13 -26 -16 -39 -8 -44 13 -8 45 30 54 64 3 12 17 47 30 77 l25 54 50 -2 c61
-3 67 15 8 26 -23 5 -44 10 -46 12 -7 6 48 126 76 167 38 56 73 75 107 60 31
-14 47 5 20 25 -31 22 -71 16 -109 -18z"/>
<path d="M12937 5514 c-4 -4 -7 -18 -7 -30 0 -13 -11 -47 -24 -76 -107 -232
-106 -230 -124 -223 -63 28 -97 13 -133 -57 -37 -72 -14 -133 48 -126 22 2 37
17 71 68 68 101 206 397 200 427 -3 18 -20 27 -31 17z m-179 -357 l22 -13 -38
-54 c-43 -62 -68 -74 -77 -37 -10 38 32 113 65 116 3 0 15 -5 28 -12z"/>
<path d="M14163 5472 c-3 -9 -21 -51 -40 -92 -19 -41 -43 -98 -54 -127 l-20
-52 -54 -6 c-30 -4 -61 -5 -69 -2 -8 3 -20 -1 -26 -8 -17 -21 8 -28 75 -23 30
3 55 3 55 1 0 -2 -9 -36 -20 -75 -23 -84 -25 -108 -7 -108 7 0 21 35 34 86 24
93 36 114 62 114 18 0 41 18 41 33 0 5 -11 6 -25 3 -14 -4 -25 -4 -25 -1 0 10
61 159 85 205 29 58 29 56 10 64 -10 3 -18 -1 -22 -12z"/>
<path d="M10195 5428 c-2 -7 -11 -44 -20 -83 -26 -115 -98 -325 -112 -325 -7
0 -13 -7 -13 -15 0 -10 11 -15 35 -15 32 0 35 2 30 23 -3 12 7 57 25 105 36
99 91 303 84 314 -8 12 -24 10 -29 -4z"/>
<path d="M6698 5388 c-3 -24 -17 -72 -32 -108 -57 -136 -88 -242 -76 -254 16
-16 24 0 64 114 44 124 64 159 116 200 73 58 77 38 20 -120 -37 -104 -41 -130
-21 -130 5 0 25 28 46 62 35 55 40 60 49 43 6 -11 26 -35 44 -53 18 -19 32
-45 32 -58 0 -28 32 -64 58 -64 44 0 136 21 143 32 11 18 -7 34 -23 21 -21
-17 -118 -26 -134 -12 -24 20 -17 55 14 68 60 26 95 72 82 107 -20 52 -72 33
-115 -41 -15 -25 -31 -42 -36 -39 -5 3 -19 24 -30 46 -17 33 -24 39 -45 35
-13 -2 -24 -3 -24 -2 0 1 7 22 15 45 38 108 -7 156 -85 91 l-35 -28 4 43 c2
34 0 44 -12 44 -10 0 -16 -14 -19 -42z m350 -174 c-3 -19 -55 -61 -63 -52 -7
7 44 68 57 68 5 0 8 -7 6 -16z"/>
<path d="M8800 5404 c-12 -31 -2 -48 23 -38 21 8 22 37 2 54 -12 10 -16 7 -25
-16z"/>
<path d="M11726 5388 c-9 -24 -24 -74 -35 -113 -10 -38 -33 -99 -50 -135 -33
-70 -41 -130 -17 -130 14 0 39 56 66 147 29 95 200 256 200 187 0 -9 -22 -59
-50 -111 -27 -52 -50 -101 -50 -109 0 -29 23 -23 62 17 l41 42 16 -27 c9 -14
23 -29 33 -32 13 -4 16 -12 12 -34 -5 -22 0 -35 21 -56 25 -25 31 -26 88 -21
34 3 63 10 65 16 2 6 8 9 13 5 5 -3 9 2 9 11 0 13 -6 16 -26 11 -84 -21 -127
-19 -137 8 -10 24 4 54 27 60 45 11 76 45 76 82 0 21 -6 37 -14 40 -19 7 -58
-22 -85 -64 -26 -40 -40 -38 -64 11 -9 20 -20 37 -24 37 -4 0 -18 -10 -31 -22
-21 -20 -19 -14 12 43 43 79 47 126 12 135 -37 9 -64 -4 -118 -54 -26 -24 -48
-41 -48 -37 0 20 24 85 32 85 4 0 8 11 8 25 0 40 -27 29 -44 -17z m319 -215
c-26 -18 -32 -7 -9 18 12 14 20 17 23 8 2 -7 -4 -18 -14 -26z"/>
<path d="M4816 5338 c-8 -29 -20 -83 -26 -120 -12 -65 -13 -68 -40 -68 -39 0
-60 -9 -60 -27 0 -12 8 -13 40 -8 l40 7 0 -39 c0 -22 -5 -44 -10 -49 -8 -8 -6
-15 5 -24 22 -18 35 1 35 55 0 22 4 46 8 53 5 7 41 16 87 20 53 5 80 11 83 21
4 12 -10 13 -81 9 l-85 -6 5 37 c3 20 12 59 20 86 19 65 21 97 6 102 -6 2 -18
-18 -27 -49z"/>
<path d="M4698 5375 c-6 -7 -225 -50 -358 -71 -57 -9 -124 -13 -147 -10 -48 6
-65 -7 -32 -25 15 -8 48 -9 100 -5 l77 6 -14 -67 c-8 -38 -24 -96 -35 -130
l-20 -62 -64 -6 c-36 -4 -80 -4 -99 -1 -41 8 -56 -8 -25 -25 15 -7 51 -10 105
-6 77 4 83 3 88 -16 4 -17 7 -18 20 -8 9 8 14 17 11 21 -2 4 34 10 81 13 81 6
120 19 109 37 -3 5 1 11 7 13 9 4 8 6 -2 6 -9 1 -21 -4 -26 -9 -6 -6 -47 -13
-91 -17 l-82 -6 24 79 c13 43 29 104 35 134 l10 55 178 35 c144 28 177 38 180
53 3 16 -17 24 -30 12z"/>
<path d="M13440 5354 c-10 -25 -6 -44 8 -44 7 0 32 48 32 62 0 19 -31 6 -40
-18z"/>
<path d="M14390 5314 c-6 -15 -8 -29 -5 -33 10 -10 40 16 40 34 0 30 -24 29
-35 -1z"/>
<path d="M8045 5298 c-11 -6 -31 -20 -44 -32 -44 -40 -120 -218 -107 -251 10
-27 26 -7 54 68 13 34 31 82 41 107 11 29 29 53 51 68 33 22 44 23 98 7 17 -6
22 -3 22 9 0 30 -75 46 -115 24z"/>
<path d="M5756 5285 c-7 -18 34 -49 48 -35 6 6 3 17 -9 30 -22 24 -31 25 -39
5z"/>
<path d="M8452 5230 c-83 -60 -128 -156 -88 -189 29 -24 80 -24 118 1 36 22
50 48 27 48 -6 0 -25 -10 -41 -22 -24 -17 -36 -19 -57 -12 -14 5 -27 17 -29
27 -8 40 76 132 129 140 13 2 24 10 24 18 0 25 -40 20 -83 -11z"/>
<path d="M8919 5245 c-15 -8 -41 -34 -58 -57 -18 -24 -39 -43 -48 -43 -9 0
-20 -11 -24 -25 -57 -193 -79 -284 -69 -294 18 -18 32 15 70 161 10 39 12 42
31 30 16 -10 26 -8 57 9 39 23 117 127 128 171 13 52 -34 78 -87 48z m61 -27
c0 -25 -59 -115 -96 -148 -38 -33 -38 -33 -46 -10 -6 17 -2 34 16 65 42 70
126 133 126 93z"/>
<path d="M9084 5203 c-33 -34 -84 -139 -84 -171 0 -33 35 -25 36 8 3 76 84
169 120 139 10 -8 18 -9 24 -3 14 14 -9 42 -42 49 -22 6 -33 1 -54 -22z"/>
<path d="M3747 5202 c-31 -35 -20 -82 19 -82 27 0 51 38 41 64 -11 27 -43 37
-60 18z"/>
<path d="M12954 5176 c-25 -26 -48 -64 -58 -94 -28 -83 -4 -127 75 -138 35 -5
49 -2 69 14 31 26 20 39 -19 22 -23 -9 -38 -9 -65 0 -49 16 -47 40 7 104 61
71 80 103 73 121 -10 26 -38 16 -82 -29z m16 -40 c0 -2 -8 -10 -17 -17 -16
-13 -17 -12 -4 4 13 16 21 21 21 13z"/>
<path d="M13530 5195 c-11 -13 -10 -18 3 -28 15 -11 14 -17 -8 -71 -42 -103
-56 -101 -64 7 -5 55 -10 72 -21 72 -12 0 -14 -12 -12 -65 5 -82 19 -115 52
-115 30 0 60 42 84 116 15 43 15 57 5 76 -15 27 -22 29 -39 8z"/>
<path d="M14538 5117 c-26 -50 -53 -101 -61 -111 -13 -18 -14 -17 -10 10 2 16
0 49 -6 73 -6 27 -6 53 0 68 7 18 5 25 -7 30 -27 10 -27 11 -24 -154 1 -40 6
-76 11 -79 22 -13 60 31 113 127 57 104 66 129 44 129 -7 0 -34 -42 -60 -93z"/>
<path d="M14763 5181 c-22 -16 -48 -39 -56 -51 -9 -12 -20 -19 -26 -15 -6 3
-14 -2 -18 -11 -4 -10 -2 -19 3 -21 5 -2 8 -23 6 -46 -7 -82 37 -95 160 -51
80 30 108 48 92 64 -6 6 -32 -1 -73 -21 -35 -17 -82 -31 -105 -32 -41 -2 -41
-2 -41 33 0 32 3 36 39 45 52 13 119 75 114 107 -5 35 -45 35 -95 -1z m67 -7
c0 -13 -66 -64 -84 -64 -18 0 -18 1 -2 19 10 11 32 26 49 35 37 18 37 18 37
10z"/>
<path d="M9579 5172 c-68 -44 -100 -129 -65 -174 21 -29 97 -58 118 -47 26 14
15 25 -30 33 -53 8 -76 35 -68 80 10 54 89 114 137 104 8 -2 14 4 14 12 0 28
-56 23 -106 -8z"/>
<path d="M9878 5180 c-39 -21 -81 -70 -92 -107 -5 -15 -1 -28 13 -42 19 -19
22 -19 58 -5 21 9 44 21 51 26 9 8 12 3 12 -21 0 -21 5 -31 15 -31 9 0 15 9
15 25 0 14 7 42 15 62 8 19 15 44 15 54 0 29 -26 23 -39 -9 -12 -28 -83 -82
-108 -82 -35 0 7 74 56 99 21 11 41 18 44 15 3 -3 11 -3 17 1 8 5 8 11 -1 21
-15 18 -26 17 -71 -6z"/>
<path d="M13207 5182 c-46 -31 -66 -58 -90 -124 -24 -65 -25 -98 -3 -98 7 0
18 24 25 55 7 32 26 73 45 98 34 45 66 60 66 32 0 -21 24 -14 28 9 4 19 -15
46 -32 46 -6 0 -23 -8 -39 -18z"/>
<path d="M5827 5172 c-27 -29 -20 -61 18 -95 39 -34 43 -48 19 -71 -20 -20
-44 -21 -44 -1 0 8 -7 15 -15 15 -8 0 -15 -8 -15 -18 0 -47 66 -58 99 -16 31
39 27 71 -14 107 -42 37 -44 54 -9 67 14 6 22 14 19 20 -10 16 -40 12 -58 -8z"/>
<path d="M8192 5182 c-47 -14 -90 -59 -97 -104 -7 -38 -5 -44 19 -65 33 -28
123 -33 133 -8 8 21 -2 29 -23 17 -21 -11 -84 1 -95 20 -15 23 -10 38 19 49
15 6 46 20 69 31 81 39 62 85 -25 60z m8 -36 c0 -2 -7 -7 -16 -10 -8 -3 -12
-2 -9 4 6 10 25 14 25 6z"/>
<path d="M8692 5163 c-34 -87 -42 -173 -17 -173 9 0 15 10 15 26 0 42 22 118
38 131 17 14 9 43 -11 43 -8 0 -19 -12 -25 -27z"/>
<path d="M9323 5168 c-72 -76 -58 -178 24 -178 45 0 69 14 89 51 17 35 13 69
-13 95 -10 9 -18 24 -18 33 0 27 -57 26 -82 -1z m88 -69 c16 -30 -17 -73 -60
-77 -25 -3 -33 1 -40 20 -5 13 -6 30 -3 38 14 43 83 55 103 19z"/>
<path d="M10770 5161 c-21 -21 -30 -39 -30 -63 0 -42 15 -58 53 -58 66 0 120
64 101 118 -8 23 -16 27 -52 30 -36 3 -47 -1 -72 -27z m83 -15 c15 -12 16 -18
8 -35 -14 -24 -42 -41 -70 -41 -28 0 -28 43 -1 70 23 23 38 25 63 6z"/>
<path d="M13694 5148 c-40 -36 -67 -88 -58 -112 10 -26 58 -19 99 14 21 17 39
29 41 28 1 -2 -3 -22 -9 -46 -10 -36 -9 -45 6 -59 22 -22 48 -3 28 21 -10 12
-7 27 13 79 14 35 26 68 26 73 0 13 -50 34 -82 34 -17 0 -42 -13 -64 -32z m96
-7 c0 -9 -102 -91 -113 -91 -19 0 -3 37 29 66 33 31 84 47 84 25z"/>
<path d="M14275 5118 c-17 -34 -42 -76 -57 -93 -26 -30 -26 -31 -8 -55 l18
-24 50 107 c58 123 58 121 40 125 -9 2 -26 -23 -43 -60z"/>
<path d="M5722 5112 c-26 -68 -29 -112 -7 -112 9 0 15 9 15 25 0 13 11 49 24
79 13 30 22 57 18 60 -15 16 -29 1 -50 -52z"/>
<path d="M13297 5123 c-13 -27 -34 -67 -46 -91 -17 -30 -21 -46 -13 -54 13
-13 32 -2 32 21 0 9 4 21 9 27 20 20 71 126 66 135 -12 18 -25 8 -48 -38z"/>
<path d="M2727 4998 c-27 -34 -83 -150 -108 -220 -10 -30 -19 -38 -48 -45 -42
-10 -54 -33 -17 -33 30 0 30 0 11 -64 -16 -53 -12 -86 10 -86 8 0 13 11 13 28
-1 15 7 51 16 80 18 53 28 59 86 54 20 -2 60 19 60 31 0 5 -24 8 -55 5 -30 -3
-55 -3 -55 -1 0 13 69 165 89 198 19 31 26 36 29 22 2 -10 9 -16 15 -14 20 6
19 32 -1 57 l-19 23 -26 -35z"/>
<path d="M3500 4926 c-6 -8 -17 -38 -24 -67 -8 -30 -35 -85 -60 -122 -49 -73
-70 -128 -64 -167 1 -14 10 -25 18 -25 17 0 71 102 97 185 23 71 105 160 147
160 28 0 28 -1 24 -44 -5 -44 -41 -127 -95 -218 -22 -36 -25 -50 -16 -59 9 -9
20 1 47 44 35 54 73 97 85 97 12 -1 51 -98 51 -127 0 -44 20 -64 72 -70 47 -5
99 7 132 32 33 25 8 35 -37 15 -73 -34 -137 -22 -137 25 0 20 5 25 25 25 54 0
119 52 113 91 -8 53 -75 45 -130 -15 l-27 -30 -16 37 c-8 20 -15 41 -15 47 0
9 -15 14 -34 11 -5 -1 -5 8 -1 21 3 13 9 46 12 75 5 46 3 53 -20 68 -23 15
-28 15 -61 1 -31 -13 -38 -13 -42 -1 -8 20 -31 26 -44 11z m24 -51 c-4 -8 -8
-15 -10 -15 -2 0 -4 7 -4 15 0 8 4 15 10 15 5 0 7 -7 4 -15z m326 -173 c0 -14
-38 -50 -60 -57 -45 -14 -36 15 14 46 34 21 46 24 46 11z"/>
<path d="M6343 4923 c-3 -10 -25 -61 -48 -113 -43 -97 -71 -200 -61 -226 12
-30 24 -11 35 52 7 36 32 111 56 165 45 98 55 139 35 139 -6 0 -13 -8 -17 -17z"/>
<path d="M7309 4873 c-51 -46 -67 -77 -75 -147 l-7 -56 -84 0 c-63 0 -84 -3
-81 -12 3 -9 32 -14 88 -16 l83 -3 -5 -74 c-5 -83 -19 -107 -56 -103 -34 4
-39 -16 -7 -30 54 -25 87 20 93 130 5 78 5 78 32 78 38 0 60 9 60 25 0 10 -12
12 -46 8 l-47 -5 7 53 c9 64 26 99 66 133 38 31 60 33 67 6 7 -25 33 -26 33
-2 0 25 -31 52 -58 52 -12 0 -40 -17 -63 -37z"/>
<path d="M5327 4894 c-9 -10 12 -44 27 -44 8 0 19 7 26 15 10 12 8 16 -15 25
-31 12 -30 12 -38 4z"/>
<path d="M8221 4823 c-37 -146 -30 -133 -73 -133 -27 0 -38 -4 -38 -15 0 -16
9 -19 48 -15 22 2 23 -2 22 -52 -2 -72 -2 -72 15 -58 10 8 15 30 15 61 l0 49
35 0 c21 0 35 5 35 13 0 9 3 8 9 -2 5 -8 16 -11 30 -6 39 12 21 25 -34 24 -31
-1 -59 1 -62 5 -4 4 3 37 15 74 25 79 27 102 9 102 -8 0 -19 -21 -26 -47z"/>
<path d="M5744 4846 c-8 -21 -1 -49 14 -54 8 -2 12 7 12 27 0 33 -17 51 -26
27z"/>
<path d="M9957 4853 c-22 -21 3 -35 147 -85 50 -17 55 -33 22 -67 -34 -35
-202 -125 -221 -117 -8 3 -17 1 -20 -4 -8 -13 5 -40 20 -40 24 0 201 102 238
138 64 62 48 94 -64 131 -36 12 -75 28 -85 36 -22 16 -28 18 -37 8z"/>
<path d="M5124 4796 c-41 -35 -124 -180 -124 -216 0 -31 29 -33 35 -2 19 93
129 242 158 213 13 -13 37 -15 37 -2 0 16 -30 41 -49 41 -10 0 -35 -15 -57
-34z"/>
<path d="M8390 4780 c0 -15 5 -20 18 -18 9 2 17 10 17 18 0 8 -8 16 -17 18
-13 2 -18 -3 -18 -18z"/>
<path d="M4852 4725 c-35 -29 -72 -100 -72 -136 0 -33 27 -69 51 -69 39 0 80
31 100 75 10 24 17 49 15 57 -3 7 -10 32 -16 56 -13 50 -33 55 -78 17z m48
-44 c23 -44 3 -103 -42 -122 -25 -10 -31 -10 -39 2 -12 18 -2 66 23 107 22 36
42 41 58 13z"/>
<path d="M2372 4719 c-53 -26 -95 -92 -90 -141 3 -28 7 -34 32 -36 42 -5 80
15 126 64 47 51 53 93 18 118 -29 21 -35 20 -86 -5z m78 -41 c0 -41 -114 -128
-137 -105 -22 23 45 117 83 117 13 0 24 4 24 10 0 5 7 7 15 4 8 -4 15 -15 15
-26z"/>
<path d="M5977 4702 c-32 -33 -45 -85 -27 -107 17 -20 33 -19 82 5 52 25 54
25 62 -2 5 -21 7 -22 22 -7 13 13 14 21 5 38 -15 26 -45 27 -99 1 -53 -26 -56
-25 -47 8 9 35 33 62 57 62 10 0 18 7 18 15 0 25 -44 17 -73 -13z"/>
<path d="M7945 4723 c-78 -21 -122 -116 -75 -163 18 -18 31 -20 87 -18 49 2
69 7 77 20 13 22 1 35 -18 19 -8 -7 -36 -11 -67 -9 -63 4 -79 21 -60 65 15 37
51 57 97 56 28 -1 34 3 32 15 -3 18 -37 24 -73 15z"/>
<path d="M5381 4694 c-37 -31 -65 -112 -51 -149 13 -35 63 -33 121 3 24 15 50
32 57 36 16 10 9 -37 -19 -130 l-19 -61 -62 -18 c-77 -21 -88 -29 -88 -66 0
-38 39 -139 53 -139 11 0 96 139 113 183 3 9 16 17 28 17 38 0 66 12 66 27 0
11 -9 14 -35 11 -19 -2 -35 -3 -35 -3 0 1 9 36 20 78 25 100 36 222 21 231 -6
4 -14 0 -17 -8 -5 -14 -8 -14 -21 -1 -24 25 -97 19 -132 -11z m121 -29 c14
-30 2 -46 -61 -87 -57 -36 -81 -37 -81 -3 0 36 25 91 47 104 10 6 33 11 51 11
25 0 35 -6 44 -25z m-76 -362 c-13 -27 -31 -57 -39 -68 -14 -18 -15 -17 -26
20 -17 63 -14 73 22 84 67 19 70 16 43 -36z"/>
<path d="M5830 4707 c-29 -15 -99 -122 -99 -154 -1 -36 16 -27 37 20 33 75 89
127 106 99 3 -5 -1 -31 -8 -59 -14 -53 -8 -85 11 -61 10 12 33 95 33 117 0 13
-36 51 -47 51 -5 0 -19 -6 -33 -13z"/>
<path d="M9597 4713 c-13 -12 -7 -43 8 -43 8 0 15 4 15 10 0 6 59 9 153 9 83
0 158 0 165 0 6 1 12 8 12 16 0 13 -26 15 -173 15 -96 0 -177 -3 -180 -7z"/>
<path d="M5210 4673 c-30 -50 -38 -110 -17 -119 24 -9 41 5 27 21 -14 16 -5
49 22 87 18 26 17 48 -2 48 -4 0 -18 -17 -30 -37z"/>
<path d="M5680 4699 c0 -6 -14 -40 -31 -77 -33 -72 -36 -125 -7 -130 14 -3 16
3 12 30 -4 24 4 51 29 103 19 39 33 73 30 78 -7 11 -33 8 -33 -4z"/>
<path d="M8490 4672 c-61 -59 -52 -115 16 -98 14 4 37 18 50 31 19 19 23 29
15 43 -6 10 -7 28 -4 40 9 36 -31 27 -77 -16z m50 -44 c0 -3 -13 -11 -30 -17
-36 -12 -39 0 -9 30 17 17 23 19 30 8 5 -8 9 -17 9 -21z"/>
<path d="M8805 4698 c-16 -5 -41 -9 -55 -10 -18 0 -37 -15 -67 -52 -23 -29
-45 -60 -49 -69 -10 -28 31 -21 44 7 12 26 61 65 105 84 l29 12 -21 -33 c-25
-41 -27 -70 -5 -88 21 -17 78 -17 98 1 23 18 5 35 -21 21 -22 -11 -63 -4 -63
12 0 6 14 32 31 58 17 27 28 53 24 59 -7 12 -10 12 -50 -2z"/>
<path d="M7502 4636 c-21 -79 -63 -99 -87 -42 -18 43 -35 55 -35 24 0 -44 13
-69 41 -84 27 -13 31 -13 69 11 41 26 54 53 48 101 -5 43 -23 39 -36 -10z"/>
<path d="M7640 4658 c-11 -12 -20 -25 -20 -29 0 -4 -8 -6 -17 -5 -13 1 -19 -8
-21 -32 -2 -19 -1 -40 2 -48 10 -26 41 1 55 46 14 48 38 62 58 34 14 -18 13
-41 -2 -76 -10 -25 21 -24 35 1 17 33 11 68 -16 100 -31 37 -46 39 -74 9z"/>
<path d="M8317 4604 c-26 -51 -29 -82 -6 -68 11 7 59 99 59 114 0 28 -28 4
-53 -46z"/>
<path d="M5876 4018 c-22 -78 -69 -204 -108 -284 -52 -109 -158 -154 -158 -67
0 29 85 123 111 123 11 0 19 7 19 15 0 43 -98 -13 -139 -79 -43 -68 -15 -136
54 -136 28 0 43 8 75 41 l40 41 0 -34 c0 -51 24 -78 70 -78 21 0 45 3 54 6 18
7 22 34 5 34 -6 0 -8 7 -5 16 3 8 2 12 -4 9 -6 -3 -10 -13 -10 -21 0 -17 -51
-19 -68 -2 -23 23 -14 102 22 181 35 76 76 201 76 231 0 19 -29 22 -34 4z"/>
<path d="M6815 3909 c-29 -26 -35 -38 -35 -71 0 -34 7 -45 49 -86 40 -38 47
-51 40 -65 -14 -23 -36 -21 -42 4 -7 26 -33 19 -29 -7 10 -50 58 -59 91 -18
31 39 26 54 -30 103 -43 37 -50 48 -47 74 2 23 12 37 35 52 34 21 43 45 18 45
-8 0 -30 -14 -50 -31z"/>
<path d="M5233 3906 c-33 -29 -34 -76 -2 -130 28 -48 22 -87 -15 -105 -29 -13
-31 -13 -58 20 -17 20 -31 29 -37 24 -13 -15 4 -51 34 -71 39 -25 100 -5 122
40 15 32 14 36 -12 93 -41 92 -35 105 53 129 23 6 2 24 -28 24 -16 0 -41 -11
-57 -24z"/>
<path d="M4646 3901 c-34 -38 -84 -225 -63 -238 13 -8 48 39 37 51 -11 11 17
102 43 138 16 21 27 27 42 23 11 -4 28 -9 38 -12 11 -3 17 0 17 11 0 10 -6 13
-15 10 -8 -4 -15 -2 -15 4 0 7 -50 32 -65 32 -1 0 -9 -8 -19 -19z"/>
<path d="M5050 3902 c-29 -14 -36 -23 -38 -54 -2 -29 3 -43 29 -72 18 -21 29
-42 25 -51 -6 -17 -43 -20 -48 -4 -2 6 -11 10 -21 8 -15 -4 -14 -7 7 -33 22
-28 25 -29 55 -16 58 24 61 69 7 119 -49 46 -24 93 41 76 29 -7 28 11 -3 31
-17 12 -25 11 -54 -4z"/>
<path d="M6665 3868 c-3 -8 -22 -13 -49 -13 -53 0 -97 -35 -127 -100 -23 -49
-24 -69 -3 -89 21 -22 35 -20 78 9 41 28 56 31 56 12 0 -19 20 -36 36 -30 8 3
14 11 14 19 0 8 5 14 11 14 5 0 7 5 4 11 -4 6 -13 8 -21 5 -21 -8 -18 47 6 94
11 22 20 46 20 54 0 20 -19 31 -25 14z m-35 -64 c0 -33 -77 -114 -109 -114
-26 0 -26 10 -1 61 20 38 70 79 98 79 6 0 12 -12 12 -26z"/>
<path d="M3820 3831 c-16 -16 -34 -49 -41 -74 -7 -31 -15 -44 -25 -40 -7 2
-18 2 -24 -2 -15 -10 7 -35 31 -35 10 0 23 -9 30 -21 19 -37 85 -58 162 -52
56 5 67 9 67 24 0 10 5 21 10 24 15 9 12 25 -4 25 -8 0 -21 -8 -28 -18 -28
-40 -140 -33 -176 11 -10 12 -7 16 18 21 43 8 90 57 90 93 0 35 -32 73 -61 73
-11 0 -33 -13 -49 -29z m70 -16 c27 -32 -21 -95 -74 -95 -21 0 -2 69 26 93 25
21 32 21 48 2z"/>
<path d="M4775 3825 c-38 -40 -55 -88 -48 -131 7 -34 30 -64 51 -64 19 0 122
50 122 60 0 19 -17 17 -62 -6 -60 -31 -78 -26 -78 19 0 30 5 36 39 52 56 25
88 61 75 83 -20 32 -62 27 -99 -13z m65 -4 c0 -11 -50 -44 -57 -38 -6 7 34 47
47 47 6 0 10 -4 10 -9z"/>
<path d="M5418 3833 c-55 -61 -64 -151 -17 -185 18 -14 33 -17 53 -12 30 7 30
30 0 27 -34 -3 -54 16 -54 50 0 45 21 71 70 87 48 16 56 25 40 45 -20 24 -64
18 -92 -12z"/>
<path d="M4394 3806 c-20 -20 -34 -28 -34 -20 0 23 -29 16 -35 -8 -2 -13 -7
-59 -9 -103 -2 -44 -7 -116 -11 -160 -6 -78 2 -114 23 -101 15 9 35 130 27
165 -5 23 -3 31 7 31 20 0 116 87 133 121 47 91 -29 147 -101 75z m70 -2 c35
-13 7 -76 -59 -130 -25 -20 -48 -35 -51 -32 -10 10 39 122 64 145 28 26 25 25
46 17z"/>
<path d="M4090 3796 c0 -19 9 -45 22 -61 l22 -28 -30 -24 c-16 -14 -40 -34
-53 -45 -17 -14 -20 -23 -12 -31 7 -7 25 2 62 33 l51 43 26 -22 c36 -29 69
-42 87 -34 22 8 13 28 -14 29 -12 1 -33 12 -46 24 l-25 23 40 43 c34 37 53 84
34 84 -3 0 -27 -23 -52 -51 l-46 -51 -18 22 c-10 12 -18 35 -18 51 0 19 -5 29
-15 29 -10 0 -15 -10 -15 -34z"/>
<path d="M7655 3681 c-3 -6 0 -31 6 -56 7 -29 10 -81 6 -138 -9 -131 -12 -137
-57 -137 -74 0 -144 -116 -106 -175 38 -58 104 -9 149 111 40 107 47 142 47
237 0 52 4 86 9 82 17 -10 23 16 8 33 -7 9 -17 25 -20 35 -7 18 -32 23 -42 8z
m-30 -371 c6 -10 -28 -85 -53 -112 -36 -41 -63 -3 -38 55 20 50 74 84 91 57z"/>
<path d="M12453 3554 c-4 -10 0 -22 10 -29 27 -19 57 -96 57 -145 0 -55 -37
-138 -75 -168 -70 -55 -127 5 -74 79 19 28 59 40 59 19 0 -5 7 -10 15 -10 19
0 19 24 1 39 -43 36 -130 -35 -130 -104 0 -43 19 -64 67 -72 107 -17 205 176
153 302 -8 18 -12 36 -8 39 6 7 -47 66 -60 66 -5 0 -11 -7 -15 -16z"/>
<path d="M13734 3540 c-7 -7 -5 -33 8 -83 27 -108 26 -112 -26 -113 -59 -2
-100 -32 -122 -90 -20 -52 -14 -71 28 -91 48 -24 141 26 172 92 20 42 16 103
-12 220 -17 69 -29 84 -48 65z m10 -226 c16 -6 21 -39 10 -69 -8 -20 -76 -55
-108 -55 -31 0 -37 17 -19 60 14 35 30 49 68 62 28 9 31 9 49 2z"/>
<path d="M9453 3483 c-19 -114 4 -238 46 -251 15 -5 13 19 -8 118 -14 61 -13
134 0 147 13 13 4 33 -16 33 -9 0 -17 -18 -22 -47z"/>
<path d="M11172 3411 c-41 -41 -54 -114 -30 -166 13 -29 33 -33 42 -8 5 11 1
22 -10 30 -37 27 9 143 57 143 10 0 30 -5 44 -12 34 -15 45 -1 16 23 -35 29
-84 25 -119 -10z"/>
<path d="M7903 3313 l-45 -97 -39 44 c-30 34 -38 51 -35 70 6 31 -7 55 -23 46
-14 -9 -14 -66 0 -103 5 -15 24 -42 41 -60 34 -35 30 -53 -12 -53 -16 0 -49
-6 -72 -14 -135 -45 -295 -58 -387 -30 -55 16 -67 14 -58 -9 13 -36 204 -48
329 -21 40 8 91 17 113 20 22 2 50 6 62 9 20 5 21 3 12 -24 -15 -41 -8 -85 14
-89 13 -3 17 3 17 23 0 14 7 41 14 60 l15 35 85 0 c47 0 95 -4 109 -9 33 -13
56 2 41 26 -8 14 -32 20 -102 27 -98 9 -113 20 -88 59 8 12 22 42 32 67 9 25
26 57 36 72 22 32 23 48 2 48 -10 0 -32 -35 -61 -97z"/>
<path d="M13900 3389 c0 -12 8 -23 20 -26 27 -7 25 -24 -5 -70 -27 -38 -30
-73 -7 -81 12 -4 72 109 72 135 0 16 -51 63 -67 63 -7 0 -13 -9 -13 -21z"/>
<path d="M14062 3354 c-79 -71 -98 -104 -80 -141 19 -39 54 -54 120 -49 62 4
117 31 100 48 -7 7 -17 6 -31 -2 -25 -13 -132 -4 -156 14 -13 10 -13 15 5 43
11 18 44 52 75 75 52 41 69 68 43 68 -7 0 -41 -25 -76 -56z"/>
<path d="M12779 3305 c-16 -35 -29 -69 -29 -75 0 -26 -20 -4 -49 55 -30 62
-53 86 -69 71 -3 -4 -1 -15 6 -24 6 -9 22 -37 34 -62 11 -25 31 -56 43 -70 18
-20 21 -34 17 -72 l-4 -48 -47 -1 c-25 0 -55 -2 -66 -5 -19 -4 -81 -10 -365
-35 -69 -6 -129 -15 -134 -20 -21 -19 10 -27 79 -18 269 31 530 40 552 18 8
-8 13 -8 17 0 5 7 44 11 101 11 89 0 120 9 99 30 -5 5 -51 10 -103 11 -68 2
-95 7 -98 17 -11 26 16 141 46 205 36 75 36 77 15 77 -9 0 -27 -25 -45 -65z"/>
<path d="M15272 3327 c-19 -24 -69 -65 -112 -93 -60 -37 -79 -54 -80 -71 0
-25 15 -30 27 -10 4 8 37 33 73 57 36 23 75 52 88 63 l22 21 -15 -50 c-46
-148 -67 -224 -72 -266 -5 -45 -8 -48 -42 -58 -20 -5 -71 -10 -113 -10 -63 0
-78 -3 -78 -15 0 -8 6 -16 13 -16 41 -4 206 3 287 13 52 6 116 12 142 12 49 2
64 8 54 25 -4 6 -53 9 -121 8 -106 -2 -115 -1 -115 17 0 23 23 115 60 236 55
181 50 223 -18 137z"/>
<path d="M10912 3317 c-40 -42 -57 -88 -42 -116 9 -18 20 -21 68 -20 79 0 124
18 136 51 13 36 -4 72 -46 98 -48 29 -79 25 -116 -13z m93 -13 c22 -4 45 -30
45 -51 0 -17 -31 -32 -84 -39 -64 -9 -78 -2 -65 33 15 40 50 75 69 67 8 -3 24
-8 35 -10z"/>
<path d="M8498 3260 c-29 -18 -22 -40 12 -40 17 0 30 5 30 10 0 13 45 13 87 1
35 -10 47 -3 33 18 -10 17 -138 26 -162 11z"/>
<path d="M9750 3189 c-308 -30 -521 -39 -582 -25 -30 6 -38 5 -38 -6 0 -32 78
-38 349 -28 144 5 280 12 304 16 82 11 137 26 137 38 0 15 -53 16 -170 5z"/>
<path d="M8595 3170 c-57 -14 -107 -40 -102 -52 5 -15 7 -15 70 9 39 14 52 15
79 5 40 -15 52 -7 32 24 -17 25 -28 27 -79 14z"/>
<path d="M14598 3153 c-57 -15 -73 -29 -58 -53 7 -11 11 -10 24 3 22 21 94 31
130 17 42 -16 60 4 27 31 -27 22 -45 22 -123 2z"/>
<path d="M13134 3082 c-6 -4 -16 -17 -22 -28 -15 -28 7 -49 38 -39 17 5 20 13
18 38 -3 32 -15 42 -34 29z"/>
<path d="M14547 3036 c-9 -22 21 -56 49 -56 52 0 164 31 164 46 0 17 1 17 -80
-1 -86 -19 -97 -19 -103 5 -6 23 -22 26 -30 6z"/>
<path d="M7514 3015 c-4 -8 0 -23 8 -33 18 -20 38 -97 38 -145 0 -31 -3 -34
-31 -35 -45 -1 -78 -27 -101 -79 -25 -57 -16 -103 24 -117 61 -21 125 75 134
201 6 86 -22 216 -49 221 -9 2 -20 -4 -23 -13z m32 -270 c-12 -46 -25 -74 -46
-95 -25 -25 -36 -25 -50 -1 -20 39 32 121 78 121 21 0 23 -4 18 -25z"/>
<path d="M9440 3011 c0 -11 11 -41 25 -67 65 -122 -6 -293 -117 -282 -29 3
-33 7 -36 34 -7 66 71 111 113 64 21 -23 35 -26 35 -7 0 25 -45 57 -81 57 -47
0 -74 -21 -94 -74 -15 -40 -15 -46 -1 -74 8 -16 26 -32 39 -36 60 -15 148 41
179 113 43 99 15 291 -41 291 -14 0 -21 -6 -21 -19z"/>
<path d="M13585 3023 c-30 -8 -47 -25 -36 -36 6 -6 23 -5 47 3 39 13 361 9
582 -6 77 -6 92 -5 92 7 0 33 -60 39 -366 38 -164 -1 -308 -4 -319 -6z"/>
<path d="M9695 2866 l-16 -24 -36 19 c-21 11 -45 19 -55 19 -29 0 -30 -20 -1
-30 68 -24 73 -52 23 -133 -28 -45 -31 -67 -10 -67 4 0 18 17 30 37 19 32 23
35 31 20 25 -43 93 -42 134 3 26 29 9 43 -24 19 -32 -23 -69 -22 -84 3 -14 21
5 85 33 115 11 12 20 27 20 33 0 19 -29 10 -45 -14z"/>
<path d="M12420 2861 c0 -5 7 -25 16 -46 8 -20 14 -51 12 -69 -3 -29 -5 -31
-40 -28 -48 4 -92 -20 -124 -68 -48 -73 -32 -150 31 -150 64 0 149 117 161
223 8 64 -16 147 -42 147 -8 0 -14 -4 -14 -9z m-3 -177 l22 -6 -24 -48 c-27
-53 -79 -103 -104 -98 -12 3 -16 15 -15 47 1 38 7 50 37 78 38 34 47 37 84 27z"/>
<path d="M7666 2813 c-13 -14 -5 -29 23 -40 23 -8 31 -19 37 -49 12 -66 -37
-125 -53 -63 -11 41 -33 51 -33 15 0 -14 3 -26 8 -26 4 0 7 -15 7 -32 0 -28 4
-33 25 -36 14 -2 34 3 44 11 17 12 21 12 38 -5 29 -29 84 -24 119 11 29 30 37
55 20 66 -6 3 -15 -3 -21 -14 -13 -24 -69 -42 -87 -28 -7 5 -13 19 -13 30 0
20 40 98 67 129 15 16 10 38 -7 38 -5 0 -21 -20 -35 -45 l-27 -45 -25 31 c-28
32 -77 62 -87 52z"/>
<path d="M13797 2780 c-3 -12 1 -24 11 -29 14 -8 16 -26 16 -103 0 -101 -10
-130 -62 -186 -36 -38 -59 -41 -68 -7 -15 58 31 125 86 125 19 0 30 5 30 14 0
38 -75 20 -119 -27 -50 -55 -34 -167 24 -167 33 0 89 51 117 108 39 81 27 292
-17 292 -7 0 -15 -9 -18 -20z"/>
<path d="M12663 2708 c-11 -13 -25 -31 -30 -42 -9 -17 -11 -16 -17 8 -3 14
-12 26 -20 26 -9 0 -13 -17 -12 -62 l1 -63 -35 -11 c-36 -12 -47 -36 -19 -42
8 -1 31 8 51 22 l36 24 6 -29 c8 -43 56 -64 110 -49 43 12 75 44 56 55 -6 3
-10 2 -10 -3 0 -9 -18 -13 -65 -13 -33 0 -75 40 -75 71 0 24 37 87 55 94 19 7
20 36 2 36 -8 0 -23 -10 -34 -22z"/>
<path d="M14118 2658 c-9 -7 -26 -47 -38 -88 -16 -54 -24 -70 -31 -59 -4 9
-26 33 -47 55 -21 21 -41 46 -44 54 -4 11 -8 12 -18 4 -15 -15 -5 -35 57 -111
l46 -57 -17 -45 c-9 -26 -24 -71 -33 -101 -9 -30 -22 -62 -29 -70 -7 -8 -14
-24 -16 -35 -2 -17 3 -20 32 -20 31 0 35 3 35 25 1 50 108 415 125 425 12 7
13 35 2 35 -5 0 -15 -6 -24 -12z"/>
<path d="M9855 2584 c-34 -10 -125 -16 -280 -20 -368 -7 -475 -14 -475 -29 0
-20 20 -23 87 -14 34 5 192 8 350 6 276 -2 291 -1 361 21 113 35 73 69 -43 36z"/>
<path d="M9353 2334 c-3 -8 4 -25 15 -37 21 -22 42 -68 42 -91 0 -8 -16 -16
-38 -20 -40 -6 -73 -35 -110 -97 -28 -46 -27 -54 3 -84 45 -46 115 -24 155 48
32 56 40 100 30 167 -12 87 -78 164 -97 114z m37 -243 c-23 -46 -59 -74 -84
-65 -44 17 7 116 64 124 44 6 48 -6 20 -59z"/>
<path d="M9706 2251 c-6 -9 -76 -212 -76 -220 0 -2 -16 18 -35 45 -20 27 -38
66 -41 87 -5 27 -11 37 -25 37 -11 0 -19 -4 -19 -10 0 -27 52 -146 74 -169
l26 -27 -29 -60 c-34 -71 -44 -113 -35 -148 10 -40 25 -27 44 40 15 51 125
368 145 417 5 12 2 17 -8 17 -9 0 -18 -4 -21 -9z"/>
</g>
</svg>
