<?xml version="1.0" standalone="no"?>
<!DOCTYPE svg PUBLIC "-//W3C//DTD SVG 20010904//EN"
 "http://www.w3.org/TR/2001/REC-SVG-20010904/DTD/svg10.dtd">
<svg version="1.0" xmlns="http://www.w3.org/2000/svg"
 width="1872.000000pt" height="1404.000000pt" viewBox="0 0 1872.000000 1404.000000"
 preserveAspectRatio="xMidYMid meet">

<g transform="translate(0.000000,1404.000000) scale(0.100000,-0.100000)"
fill="#000000" stroke="none">
<path d="M14543 13538 c-5 -7 -27 -59 -48 -115 -32 -87 -41 -103 -59 -103 -12
0 -29 9 -39 20 -14 17 -20 18 -36 8 -22 -13 -18 -28 6 -28 10 0 2 -15 -25 -44
-52 -56 -69 -109 -52 -160 7 -22 22 -42 36 -48 13 -6 24 -14 24 -17 0 -3 -27
-55 -60 -114 -60 -108 -76 -152 -53 -152 11 0 92 141 131 228 13 29 25 39 55
48 21 5 55 25 75 44 36 33 37 35 34 102 -2 51 -7 72 -21 87 -19 19 -19 20 0
68 11 27 17 54 14 59 -4 5 -2 9 3 9 6 0 15 14 21 30 5 17 7 30 4 30 -3 0 2 9
11 19 10 11 15 25 11 30 -8 14 -20 14 -32 -1z m-139 -352 c-20 -53 -40 -96
-45 -96 -18 0 -39 33 -39 61 0 36 20 76 52 106 20 18 57 34 66 27 2 -1 -14
-45 -34 -98z m96 -2 c0 -31 -36 -74 -72 -87 -23 -8 -23 1 3 65 12 29 25 64 31
78 l10 25 13 -25 c8 -14 14 -39 15 -56z"/>
<path d="M16703 13463 c-17 -32 -38 -84 -47 -115 -10 -35 -22 -58 -31 -58 -19
0 -30 -20 -17 -29 8 -5 3 -27 -14 -71 -32 -81 -35 -83 -62 -64 -46 32 -20 124
47 165 33 20 39 34 19 42 -24 8 -85 -41 -107 -86 -33 -69 -24 -125 27 -154
l28 -16 -20 -57 c-17 -49 -18 -62 -8 -85 18 -40 35 -26 37 31 1 27 7 61 13 76
10 23 16 26 60 26 90 1 142 36 142 97 0 38 -37 104 -66 117 -21 10 -24 16 -18
42 3 17 15 51 25 75 10 24 19 48 19 53 0 5 7 16 15 25 9 8 14 20 12 26 -8 26
-26 13 -54 -40z m-10 -216 c24 -17 47 -87 36 -108 -15 -29 -129 -55 -129 -30
0 5 9 31 21 58 11 26 25 58 30 71 10 25 18 27 42 9z"/>
<path d="M14716 13438 c-2 -7 -7 -40 -10 -73 -2 -33 -27 -132 -55 -220 -55
-171 -59 -196 -36 -215 22 -18 34 -4 29 33 -4 22 9 77 39 172 53 165 70 239
65 279 -3 31 -25 47 -32 24z"/>
<path d="M15289 13428 c-1 -1 -3 -23 -5 -47 -2 -24 -15 -89 -29 -145 -31 -122
-37 -201 -15 -201 10 0 16 12 18 35 1 19 16 93 33 163 31 130 34 187 12 195
-7 2 -13 2 -14 0z"/>
<path d="M15633 13407 c-18 -13 -32 -31 -33 -42 0 -21 -69 -93 -153 -159 -36
-28 -45 -41 -37 -51 8 -10 25 -7 80 13 39 14 73 23 75 20 3 -2 0 -29 -5 -60
-10 -62 -1 -113 19 -113 9 0 14 21 16 70 3 112 5 115 81 115 57 0 65 2 62 18
-3 14 -14 17 -61 17 -31 0 -57 2 -57 5 1 26 32 115 49 139 38 53 21 66 -36 28z
m-44 -147 c-6 -16 -15 -30 -19 -30 -5 0 -17 -3 -27 -7 -11 -4 -6 7 16 30 19
21 36 37 37 37 2 0 -2 -13 -7 -30z"/>
<path d="M16220 13394 c-36 -20 -72 -42 -80 -49 -8 -7 -24 -15 -35 -17 -11 -2
-20 -10 -20 -18 0 -26 33 -22 77 8 56 38 123 72 143 72 24 0 19 -68 -11 -127
-36 -70 -79 -121 -117 -137 -35 -14 -107 -84 -107 -103 0 -36 57 -14 114 46
17 17 35 31 41 31 6 0 20 -28 30 -62 22 -71 50 -90 103 -72 44 16 35 40 -15
36 -41 -4 -42 -3 -52 35 -6 21 -11 43 -11 50 0 6 -7 18 -15 27 -14 13 -11 22
30 85 55 85 74 154 54 197 -20 41 -52 41 -129 -2z"/>
<path d="M17223 13405 c-48 -21 -46 -66 7 -136 l39 -52 -43 -48 c-55 -62 -66
-97 -36 -121 26 -21 63 -23 111 -7 74 25 85 56 44 128 l-26 44 51 47 c27 25
50 53 50 61 0 22 -21 39 -46 39 -31 0 -39 -17 -14 -30 24 -13 21 -19 -28 -58
l-37 -30 -31 42 c-18 22 -35 51 -38 63 -6 19 -2 23 34 33 24 6 40 16 37 23 -5
18 -38 19 -74 2z m92 -255 c21 -41 19 -55 -10 -68 -33 -15 -95 -15 -95 0 0 17
63 97 77 98 7 0 19 -13 28 -30z"/>
<path d="M16929 13408 c-3 -20 -13 -178 -13 -228 -1 -52 2 -65 15 -68 14 -2
17 15 23 115 12 186 13 177 -6 181 -10 2 -18 2 -19 0z"/>
<path d="M15743 13069 c-34 -22 -40 -33 -23 -44 15 -10 70 27 70 47 0 23 -8
22 -47 -3z"/>
<path d="M14802 13049 c-26 -10 -25 -32 2 -37 20 -4 46 15 46 34 0 16 -15 17
-48 3z"/>
<path d="M9592 12632 c-17 -15 -44 -47 -57 -72 -42 -74 -113 -223 -120 -252
-5 -17 -17 -30 -36 -37 -33 -11 -38 -30 -10 -38 18 -5 18 -8 -6 -85 -26 -85
-28 -143 -4 -143 10 0 16 13 17 40 2 22 16 78 31 125 l28 85 45 8 c63 11 63
12 78 20 23 15 1 28 -36 21 -20 -3 -45 -8 -54 -11 -29 -7 -22 18 37 134 54
107 135 214 135 179 0 -22 34 -17 38 5 3 18 -23 49 -41 49 -7 0 -27 -13 -45
-28z"/>
<path d="M3156 12568 c-101 -226 -242 -489 -294 -550 -7 -9 -11 -22 -7 -27 13
-22 35 -10 55 30 12 22 36 64 55 93 35 55 56 66 126 66 l29 0 -1 -111 c0 -61
4 -116 9 -121 17 -17 34 2 27 30 -4 15 -3 68 0 119 7 88 9 93 30 93 12 0 42 7
65 15 31 11 46 12 56 5 9 -8 14 -6 19 11 8 25 -11 43 -35 32 -32 -13 -110 -26
-117 -19 -4 4 1 62 12 129 35 223 21 319 -29 205z m1 -150 c-9 -45 -18 -108
-22 -138 -3 -30 -12 -58 -18 -62 -7 -4 -30 -8 -53 -8 l-40 0 67 138 c38 75 68
143 69 151 0 8 3 12 6 9 3 -4 -1 -44 -9 -90z"/>
<path d="M3889 12493 c-1 -124 -6 -135 -59 -151 -25 -7 -52 -17 -61 -22 -11
-6 -21 -3 -32 7 -17 17 -51 10 -45 -9 7 -20 76 -29 120 -17 22 5 42 9 44 7 2
-2 -6 -49 -17 -104 -11 -54 -22 -130 -25 -167 -3 -61 -2 -68 14 -65 14 3 18
18 23 78 6 64 44 269 52 275 1 2 25 14 53 28 28 14 66 38 84 53 27 24 32 25
27 8 -4 -10 -20 -64 -36 -119 -17 -55 -44 -138 -60 -183 -27 -73 -29 -83 -14
-89 11 -4 23 3 37 23 38 53 121 147 132 151 6 2 21 -13 33 -33 12 -20 30 -38
41 -41 15 -4 18 -11 14 -29 -8 -30 19 -74 45 -74 39 0 121 46 121 69 0 15 -26
14 -42 -2 -16 -17 -74 -37 -82 -30 -3 4 -6 17 -6 30 0 16 12 30 40 48 49 31
61 68 32 98 -18 17 -23 18 -37 7 -9 -8 -25 -31 -36 -52 -11 -21 -24 -38 -29
-38 -5 0 -22 19 -37 42 -16 24 -37 44 -47 46 -11 3 -36 -15 -67 -48 -27 -28
-49 -50 -49 -47 0 2 7 24 16 48 8 24 31 99 49 165 19 67 38 129 41 138 4 9 0
18 -9 22 -10 3 -38 -17 -79 -59 -36 -35 -78 -69 -95 -74 l-30 -11 9 41 c5 23
8 61 5 84 -2 23 0 46 5 51 14 14 1 32 -23 32 -17 0 -19 -8 -20 -87z m402 -316
c-10 -9 -11 -8 -5 6 3 10 9 15 12 12 3 -3 0 -11 -7 -18z"/>
<path d="M5947 12443 c-32 -162 -67 -242 -132 -302 -43 -39 -95 -56 -95 -30 0
22 42 84 79 116 27 24 33 35 24 44 -26 26 -143 -111 -143 -169 0 -70 107 -48
184 39 52 57 80 123 112 259 32 139 34 173 14 178 -12 2 -21 -27 -43 -135z"/>
<path d="M7050 12545 c-6 -8 -9 -18 -6 -23 5 -9 -9 -85 -47 -247 -13 -59 -14
-60 -53 -65 -26 -3 -39 -10 -39 -20 0 -11 9 -14 38 -12 38 4 39 3 33 -25 -12
-62 -26 -186 -21 -191 15 -15 34 32 44 113 7 49 15 93 18 98 3 5 27 6 54 2 41
-6 49 -4 49 9 0 9 -1 16 -2 17 -2 0 -23 3 -48 5 -25 3 -46 6 -47 7 -2 2 4 32
41 205 15 67 24 127 21 132 -9 14 -21 12 -35 -5z"/>
<path d="M12805 12473 c-113 -166 -206 -282 -228 -285 -15 -2 -22 -10 -22 -25
0 -14 -23 -45 -60 -83 -47 -47 -57 -62 -47 -72 10 -10 29 4 90 64 75 75 79 77
145 89 37 6 71 9 74 5 3 -3 -10 -41 -29 -83 -47 -102 -55 -136 -31 -131 10 2
24 22 34 48 9 25 31 75 48 113 l31 67 43 0 c47 0 73 12 63 29 -4 6 -24 8 -51
4 -51 -6 -55 2 -30 51 22 42 54 172 57 236 5 84 -17 77 -87 -27z m14 -109
c-40 -164 -36 -158 -104 -165 -33 -3 -62 -4 -64 -3 -2 2 28 45 66 96 39 51 81
110 94 130 13 20 25 35 27 33 2 -1 -7 -43 -19 -91z"/>
<path d="M13900 12459 c-25 -4 -125 -8 -222 -8 -168 0 -227 -8 -213 -30 2 -5
43 -6 89 -4 l84 6 -3 -54 c-2 -31 -19 -97 -40 -154 -72 -196 -74 -204 -42
-192 18 7 117 290 120 344 2 42 3 43 37 44 19 1 46 0 59 -1 32 -3 184 20 200
30 15 9 6 31 -12 29 -7 -1 -32 -5 -57 -10z"/>
<path d="M13128 12413 c-10 -2 -18 -8 -18 -13 0 -5 -12 -23 -26 -40 -20 -23
-24 -34 -16 -42 9 -9 17 -6 33 8 22 19 22 19 14 -1 -4 -11 -33 -94 -65 -185
-31 -91 -62 -175 -69 -188 -17 -31 -7 -59 14 -42 8 7 32 13 53 14 55 3 160 81
226 169 49 64 72 210 40 255 -21 30 -66 52 -108 52 -19 0 -38 5 -41 10 -6 10
-9 11 -37 3z m117 -58 c47 -19 58 -51 45 -129 -15 -82 -61 -150 -147 -214 -65
-50 -96 -62 -107 -43 -10 15 119 379 139 393 15 11 32 10 70 -7z"/>
<path d="M10975 12339 c-9 -14 45 -63 57 -51 15 15 -9 62 -31 62 -11 0 -23 -5
-26 -11z"/>
<path d="M16649 12228 c-88 -121 -194 -216 -284 -254 -68 -28 -26 49 60 111
58 41 65 52 40 61 -20 8 -115 -69 -149 -121 -29 -44 -33 -67 -12 -84 30 -25
104 5 194 76 42 34 42 34 32 8 -27 -72 2 -125 68 -125 42 0 79 21 68 38 -4 6
-17 8 -34 3 -49 -13 -72 -3 -72 30 0 45 21 86 90 174 69 90 94 131 85 145 -14
22 -36 6 -86 -62z"/>
<path d="M5461 12255 c-53 -61 -89 -147 -72 -174 15 -23 56 -4 120 55 l60 55
-6 -55 c-6 -60 5 -86 38 -86 23 0 25 17 4 39 -12 14 -12 25 -1 76 8 33 17 70
21 83 10 30 -20 30 -52 0 -22 -21 -23 -21 -23 -2 0 24 -18 44 -41 44 -9 0 -31
-16 -48 -35z m59 -19 c0 -8 -5 -18 -11 -21 -6 -4 -8 -13 -5 -20 5 -14 -71 -91
-81 -82 -11 12 69 137 88 137 5 0 9 -6 9 -14z"/>
<path d="M6036 12281 c-3 -4 -4 -17 -2 -28 9 -42 9 -81 2 -130 -9 -61 -1 -93
22 -93 9 0 53 37 97 83 44 46 97 93 118 106 38 23 45 35 26 46 -17 11 -89 -43
-160 -119 l-67 -70 -3 48 c-3 26 -1 50 3 52 7 4 2 74 -7 102 -5 14 -21 16 -29
3z"/>
<path d="M16299 12253 c-6 -16 -17 -44 -24 -63 -7 -19 -27 -57 -44 -85 -41
-66 -91 -167 -91 -183 0 -28 33 -5 48 33 8 22 29 59 45 83 41 61 109 212 103
228 -9 22 -26 16 -37 -13z"/>
<path d="M6379 12230 c-71 -74 -76 -170 -11 -170 16 0 41 9 55 20 l26 21 7
-25 c8 -32 29 -50 50 -42 14 5 14 8 -1 23 -12 12 -16 27 -12 54 8 60 -11 65
-67 19 -26 -22 -52 -37 -57 -34 -18 11 -8 52 21 92 31 44 47 50 82 31 15 -8
23 -8 32 1 8 8 5 16 -14 30 -39 30 -68 25 -111 -20z"/>
<path d="M10716 12239 c-46 -40 -53 -79 -28 -145 23 -57 15 -89 -19 -79 -18 6
-20 3 -17 -22 4 -37 28 -40 61 -7 31 30 35 74 12 114 -26 46 -19 85 21 118 20
17 33 35 30 41 -11 17 -23 13 -60 -20z"/>
<path d="M8004 12241 c-44 -27 -92 -88 -112 -143 -12 -34 -29 -56 -58 -78
l-41 -29 -21 85 c-12 47 -22 94 -22 104 0 41 -29 19 -44 -33 -8 -29 -26 -62
-38 -73 -26 -23 -86 -50 -94 -42 -20 20 46 111 93 129 27 10 26 32 -1 37 -25
5 -94 -63 -118 -116 -21 -47 -17 -78 12 -87 27 -9 116 32 144 66 l25 29 9 -33
c24 -79 24 -82 -19 -127 -23 -24 -50 -62 -60 -84 -40 -87 -11 -202 44 -180 35
13 87 160 87 246 0 33 5 41 46 69 38 26 50 30 63 20 56 -40 151 -32 196 17 28
30 30 38 13 48 -6 4 -19 -2 -29 -15 -31 -38 -125 -55 -148 -27 -10 12 -4 20
31 44 82 57 144 143 131 180 -7 18 -54 15 -89 -7z m35 -50 c-24 -40 -98 -106
-107 -96 -15 15 97 135 125 135 3 0 -6 -18 -18 -39z m-293 -343 c-4 -30 -17
-76 -30 -103 l-24 -50 -12 30 c-9 23 -9 40 -1 73 11 43 59 117 69 108 2 -3 1
-29 -2 -58z"/>
<path d="M3350 12205 c-32 -33 -35 -34 -42 -15 -13 35 -23 22 -51 -67 -31
-102 -32 -103 -13 -103 8 0 32 28 54 63 33 51 121 150 98 110 -12 -22 -24
-117 -19 -146 7 -34 27 -44 49 -26 14 12 14 14 -2 26 -17 13 -17 17 -3 91 9
42 14 83 12 90 -9 23 -49 12 -83 -23z"/>
<path d="M7279 12217 c-70 -47 -121 -173 -84 -210 24 -24 66 -21 109 8 l36 24
0 -25 c0 -14 5 -34 10 -45 13 -23 60 -26 60 -4 0 8 -7 15 -15 15 -25 0 -27 44
-6 108 25 73 26 82 6 82 -8 0 -21 -16 -30 -35 -20 -41 -59 -81 -98 -102 -58
-30 -67 21 -17 101 25 41 41 55 70 61 31 6 35 12 20 30 -16 20 -21 19 -61 -8z"/>
<path d="M10351 12172 c-44 -75 -112 -144 -184 -186 -47 -28 -56 -39 -37 -51
12 -7 127 64 155 95 18 20 18 20 29 -2 17 -35 47 -33 106 7 29 20 57 38 62 41
5 4 6 -9 3 -29 -8 -38 8 -77 30 -77 18 0 32 23 17 28 -16 5 -15 51 3 102 31
88 8 107 -47 40 -36 -43 -125 -107 -135 -96 -4 3 12 46 34 96 23 49 38 91 35
94 -16 16 -35 0 -71 -62z"/>
<path d="M11429 12189 c-55 -64 -61 -73 -53 -93 14 -36 115 -26 170 17 14 10
28 16 32 12 13 -13 5 -150 -12 -212 -22 -74 -26 -76 -175 -78 -120 -3 -124 -6
-109 -84 10 -53 41 -103 80 -125 24 -15 31 -15 61 -3 68 29 148 161 182 302
14 55 16 93 11 175 -4 58 -11 109 -15 113 -4 4 -24 -12 -44 -37 -37 -45 -88
-70 -127 -64 -17 3 -15 8 20 48 22 25 40 50 40 57 0 29 -20 19 -61 -28z m75
-430 c-30 -53 -85 -109 -109 -109 -32 0 -85 80 -85 129 0 19 8 21 98 24 53 1
103 4 110 5 9 1 3 -16 -14 -49z"/>
<path d="M3560 12219 c0 -6 18 -29 40 -51 50 -51 51 -74 5 -94 -46 -19 -58
-11 -51 35 12 69 12 86 -3 86 -18 0 -46 -95 -37 -129 8 -32 45 -43 97 -27 45
14 74 50 65 84 -3 13 -24 42 -48 65 -41 41 -68 53 -68 31z"/>
<path d="M4518 12210 c-20 -11 -45 -32 -56 -47 -37 -54 -55 -144 -31 -159 18
-11 29 10 36 65 7 64 48 111 108 126 21 6 40 16 43 23 6 19 -57 14 -100 -8z"/>
<path d="M6710 12218 c-14 -5 -37 -21 -52 -35 l-27 -26 2 29 c1 19 -3 29 -12
29 -9 0 -19 -21 -28 -60 -7 -33 -18 -64 -23 -69 -15 -15 -12 -46 5 -46 8 0 21
13 29 28 17 32 110 122 127 122 8 0 9 -27 4 -101 -6 -84 -5 -101 6 -97 17 6
44 155 35 192 -8 33 -34 46 -66 34z"/>
<path d="M14008 12187 c-53 -27 -60 -55 -23 -99 14 -17 25 -38 23 -47 -5 -25
-53 -26 -77 -2 -43 43 -58 12 -16 -33 30 -32 72 -34 109 -5 34 27 33 56 -4
101 l-31 37 29 15 c22 11 32 12 41 3 8 -8 15 -7 27 5 37 37 -19 55 -78 25z"/>
<path d="M9175 12186 c-78 -34 -114 -137 -61 -171 21 -14 28 -14 58 -2 70 29
95 94 63 157 -18 34 -19 34 -60 16z m23 -84 c16 -12 14 -15 -12 -38 -15 -14
-36 -23 -45 -22 -23 5 -17 55 11 85 21 22 23 23 26 6 2 -10 11 -24 20 -31z"/>
<path d="M10893 12178 c-19 -25 -63 -136 -63 -157 0 -29 33 -25 38 4 5 31 45
119 59 128 7 4 13 13 13 18 0 6 -4 7 -10 4 -5 -3 -10 -1 -10 4 0 15 -15 14
-27 -1z"/>
<path d="M11063 12132 c-87 -69 -131 -132 -92 -132 5 0 37 29 72 63 61 63 94
81 116 67 9 -5 5 -25 -15 -74 -19 -49 -24 -70 -16 -78 8 -8 16 -8 27 2 8 7 13
15 11 18 -3 2 4 26 15 53 33 85 22 119 -37 119 -22 0 -47 -12 -81 -38z"/>
<path d="M15245 12119 c-74 -24 -125 -63 -107 -81 9 -9 18 -7 40 9 28 21 121
57 128 50 2 -2 -18 -32 -46 -66 -50 -62 -63 -101 -35 -101 21 0 65 22 65 32 0
5 4 6 10 3 5 -3 26 3 47 13 57 29 94 36 87 17 -9 -23 24 -30 62 -11 22 10 39
27 45 45 7 19 21 33 40 40 39 13 41 46 2 36 -39 -9 -73 -33 -73 -50 0 -15 -27
-45 -41 -45 -5 0 -9 7 -9 15 0 24 -56 18 -117 -11 -30 -14 -57 -23 -61 -20 -3
4 6 19 20 34 37 40 58 74 58 94 0 24 -37 23 -115 -3z"/>
<path d="M15706 12089 c-81 -96 -67 -167 25 -128 60 24 81 81 40 112 -9 7 -16
18 -16 26 0 27 -22 22 -49 -10z m51 -64 c-5 -14 -55 -41 -62 -33 -4 4 1 20 11
36 15 26 20 28 36 19 10 -7 17 -16 15 -22z"/>
<path d="M15881 12054 c-26 -33 -26 -39 -1 -64 38 -38 141 -18 175 34 17 26
15 56 -5 56 -6 0 -15 -11 -20 -24 -12 -32 -39 -46 -89 -46 -45 0 -49 5 -25 31
15 17 12 39 -6 39 -5 0 -18 -12 -29 -26z"/>
<path d="M2155 11960 c-3 -5 -13 -54 -21 -107 -20 -134 -59 -295 -84 -344 -12
-22 -20 -50 -18 -62 5 -37 31 -24 46 23 19 58 76 136 114 156 41 21 84 15 80
-11 -7 -39 -37 -89 -77 -132 -45 -46 -71 -56 -62 -23 7 27 -13 37 -30 15 -18
-25 -17 -64 2 -71 46 -18 125 43 174 135 37 70 40 115 10 132 -29 15 -84 5
-128 -24 l-37 -25 22 102 c26 122 41 220 36 235 -5 14 -19 14 -27 1z"/>
<path d="M6840 11934 c0 -10 -24 -67 -54 -128 -29 -61 -57 -121 -60 -133 -6
-17 -16 -23 -39 -24 -60 -3 -65 -4 -73 -11 -17 -17 17 -36 55 -31 l39 5 -11
-41 c-6 -22 -15 -41 -19 -41 -14 0 -9 -47 7 -60 17 -14 24 -1 44 87 l13 51 84
12 c47 7 87 10 89 8 2 -2 -11 -25 -29 -51 -19 -26 -39 -61 -47 -78 -11 -28
-10 -33 7 -46 24 -18 64 -9 132 29 29 17 55 28 58 25 2 -2 -4 -24 -15 -49 -10
-24 -22 -64 -26 -88 -4 -24 -14 -50 -22 -58 -8 -8 -12 -21 -9 -28 6 -17 18
-17 -319 -5 -588 22 -2909 31 -2928 12 -14 -14 -30 -15 -22 -1 10 16 -91 12
-104 -4 -21 -25 16 -34 104 -25 82 8 2211 3 2615 -6 444 -10 874 -30 975 -45
33 -5 118 -14 189 -20 71 -6 159 -17 195 -25 65 -14 97 -7 75 15 -18 18 -512
79 -659 81 -53 1 -120 16 -79 18 18 1 21 8 22 49 1 51 31 146 62 200 20 34 19
52 -3 52 -7 0 -50 -23 -97 -50 -47 -28 -93 -50 -103 -50 -20 0 -19 3 57 125
40 64 29 72 -71 57 -96 -15 -113 -15 -113 -1 0 6 25 63 55 126 61 127 69 155
43 161 -12 2 -18 -3 -18 -14z"/>
<path d="M5727 11934 c-4 -4 -7 -15 -7 -24 0 -9 -24 -66 -54 -126 -70 -140
-91 -214 -79 -274 7 -40 12 -45 37 -48 60 -7 167 53 187 105 11 30 -3 68 -35
89 -32 20 -75 8 -120 -34 l-29 -27 7 30 c4 17 32 80 61 140 54 110 70 165 49
172 -5 2 -13 0 -17 -3z m41 -316 c20 -20 13 -45 -20 -73 -31 -26 -46 -34 -97
-50 -21 -6 -23 -5 -18 14 4 18 3 20 -9 10 -34 -28 -10 7 39 57 54 54 82 65
105 42z"/>
<path d="M6322 11876 c-6 -13 -14 -53 -17 -88 -9 -87 -30 -149 -81 -245 -45
-84 -53 -113 -31 -113 15 0 91 140 118 218 10 29 23 90 29 135 7 45 16 85 22
88 13 8 1 29 -16 29 -7 0 -18 -11 -24 -24z"/>
<path d="M4150 11739 c-19 -12 -52 -37 -73 -57 -36 -35 -37 -36 -35 -12 5 39
-24 31 -38 -10 -60 -186 -61 -190 -41 -190 6 0 25 25 41 56 34 65 116 158 157
179 15 8 44 15 64 15 44 0 45 12 2 28 -42 15 -36 16 -77 -9z"/>
<path d="M6026 11745 c-6 -16 28 -40 44 -30 15 9 12 32 -6 39 -24 9 -31 7 -38
-9z"/>
<path d="M6503 11744 c-8 -21 13 -42 28 -27 13 13 5 43 -11 43 -6 0 -13 -7
-17 -16z"/>
<path d="M5023 11730 c-18 -10 -39 -32 -47 -48 -13 -25 -13 -32 5 -72 23 -51
22 -88 -3 -104 -13 -8 -23 -8 -38 2 -27 17 -32 15 -28 -10 4 -31 51 -45 84
-23 48 31 50 72 10 167 -11 25 35 68 73 68 34 0 51 18 30 31 -22 14 -52 10
-86 -11z"/>
<path d="M4669 11679 c-23 -43 -53 -79 -100 -118 -63 -52 -87 -91 -56 -91 19
0 69 55 60 65 -5 4 -3 5 3 2 7 -4 23 2 36 12 l24 20 -4 -30 c-3 -20 1 -31 13
-35 18 -7 37 1 100 40 l41 25 -4 -33 c-3 -23 1 -35 12 -39 17 -7 31 8 21 23
-3 5 6 32 20 61 40 79 22 82 -77 15 -45 -31 -84 -52 -86 -47 -2 5 9 38 24 73
49 117 28 161 -27 57z"/>
<path d="M2464 11683 c-15 -21 -38 -52 -51 -70 -15 -21 -25 -53 -29 -91 -6
-52 -4 -62 15 -81 35 -35 131 -22 131 18 0 11 9 23 20 26 22 7 26 20 9 30 -17
11 -69 -16 -69 -36 0 -15 -7 -19 -35 -19 -28 0 -36 5 -40 23 -10 37 11 73 56
98 57 32 83 75 66 109 -19 38 -42 36 -73 -7z m32 -38 c-9 -14 -21 -25 -27 -25
-6 0 -1 14 11 31 26 36 40 31 16 -6z"/>
<path d="M4271 11653 c-17 -21 -36 -43 -40 -49 -5 -6 -12 -25 -16 -42 -5 -26
-2 -36 20 -58 23 -23 32 -25 67 -20 48 8 58 13 58 30 0 8 -17 12 -52 11 -46 0
-53 3 -55 20 -2 15 10 26 50 45 48 23 52 28 52 60 0 30 -4 35 -26 38 -20 2
-34 -6 -58 -35z m59 -8 c0 -2 -10 -10 -22 -16 -21 -11 -22 -11 -9 4 13 16 31
23 31 12z"/>
<path d="M5276 11669 c-49 -39 -73 -118 -44 -147 18 -18 64 -15 108 8 38 19
40 19 40 2 0 -22 18 -42 38 -42 10 0 12 7 8 26 -4 16 0 44 10 70 13 34 14 48
5 57 -8 8 -18 3 -40 -24 -35 -42 -126 -88 -143 -71 -13 13 4 62 30 85 23 21
66 25 86 8 27 -22 45 2 21 29 -24 27 -84 27 -119 -1z"/>
<path d="M6417 11624 c-4 -4 -7 -38 -7 -76 0 -52 3 -68 14 -68 15 0 32 88 24
125 -3 20 -20 30 -31 19z"/>
<path d="M5982 11597 c-6 -6 -20 -35 -31 -64 -17 -45 -18 -53 -5 -63 12 -10
16 -7 25 18 6 17 19 47 29 68 18 35 19 54 1 54 -5 0 -13 -6 -19 -13z"/>
<path d="M5440 11504 c0 -8 5 -12 10 -9 6 3 10 10 10 16 0 5 -4 9 -10 9 -5 0
-10 -7 -10 -16z"/>
<path d="M12176 10464 c-27 -27 -38 -54 -28 -67 7 -8 -19 -73 -84 -207 -124
-260 -124 -277 4 -160 43 38 80 70 84 70 4 0 -2 -27 -14 -60 -18 -56 -19 -62
-4 -84 11 -17 22 -23 36 -19 24 6 26 28 4 41 -14 8 -13 16 6 80 33 107 8 122
-79 47 -29 -25 -55 -45 -57 -45 -2 0 5 19 17 42 34 66 129 269 146 310 23 57
4 88 -31 52z"/>
<path d="M6930 10442 c-25 -16 -71 -52 -102 -81 -32 -29 -58 -51 -58 -48 0 3
10 31 22 62 16 42 18 59 9 68 -15 15 -42 -11 -47 -45 -6 -50 -52 -187 -71
-214 -31 -43 -133 -243 -133 -260 0 -19 24 -18 42 4 25 27 103 172 129 237 42
103 247 291 281 257 23 -23 -42 -208 -97 -274 -41 -48 -8 -69 36 -22 45 49 57
49 137 -1 1 -1 -7 -23 -19 -49 -26 -60 -22 -96 13 -116 26 -14 33 -13 115 15
81 28 117 54 100 72 -4 4 -17 1 -29 -6 -30 -19 -127 -51 -154 -51 -36 0 -38
17 -9 76 22 44 34 58 66 71 22 8 43 23 48 32 8 16 -2 61 -14 61 -4 0 -27 -16
-51 -37 -45 -36 -45 -36 -77 -20 -18 9 -41 23 -52 29 -11 7 -21 14 -23 14 -2
1 4 19 13 40 9 22 23 68 31 103 14 60 14 65 -3 82 -32 31 -56 31 -103 1z"/>
<path d="M13401 10408 c-36 -94 -78 -192 -129 -304 -57 -123 -66 -150 -63
-181 1 -14 40 -18 42 -5 1 4 2 21 3 37 2 26 34 103 168 406 19 45 18 69 -3 69
-5 0 -13 -10 -18 -22z"/>
<path d="M10300 10377 c0 -44 -38 -192 -63 -245 -14 -31 -23 -40 -30 -33 -15
15 -54 14 -60 -1 -4 -10 -6 -10 -6 0 -1 18 -42 15 -78 -7 -40 -25 -111 -118
-119 -157 -4 -22 0 -34 15 -48 20 -18 23 -18 64 -2 82 31 202 147 249 241 46
91 75 285 43 285 -10 0 -15 -10 -15 -33z m-125 -307 c30 -1 29 -2 -35 -62 -60
-56 -125 -98 -150 -98 -18 0 -10 31 20 75 40 58 90 97 115 90 11 -2 34 -5 50
-5z"/>
<path d="M13155 10398 c-2 -7 -17 -58 -33 -114 -17 -56 -39 -119 -50 -140 -58
-112 -146 -187 -212 -182 -46 4 -51 33 -16 92 40 68 114 106 140 71 14 -19 36
-13 36 10 0 8 -11 22 -24 30 -94 62 -273 -157 -186 -227 67 -54 204 29 282
173 37 66 103 273 93 290 -9 13 -25 11 -30 -3z"/>
<path d="M16672 10388 c-7 -7 -12 -16 -12 -21 0 -6 -37 -87 -82 -181 -72 -151
-82 -179 -86 -238 -4 -61 -2 -68 15 -68 16 0 18 8 19 58 0 47 8 74 48 157 125
260 135 283 122 294 -9 7 -16 7 -24 -1z"/>
<path d="M2546 10338 c-2 -7 -11 -60 -20 -117 -19 -117 -39 -164 -90 -209 -66
-58 -98 -52 -117 22 -18 72 -20 76 -34 76 -7 0 -41 -23 -75 -52 l-62 -52 66
129 c68 132 82 187 50 199 -20 8 -103 -29 -173 -78 -29 -20 -57 -36 -62 -36
-15 0 -10 -30 6 -36 9 -4 26 4 40 19 22 21 153 97 169 97 10 0 -22 -76 -78
-183 -47 -89 -55 -111 -46 -128 8 -15 17 -18 33 -13 25 7 105 76 97 83 -3 2 2
5 11 6 12 2 18 -7 23 -35 17 -110 109 -121 197 -23 19 21 40 52 47 69 16 37
59 248 54 263 -5 15 -32 14 -36 -1z"/>
<path d="M10745 10326 c-16 -12 -17 -16 -6 -30 16 -19 11 -48 -19 -128 -20
-54 -23 -57 -58 -60 -27 -2 -38 -8 -40 -22 -3 -15 0 -18 16 -14 45 12 46 -5 9
-116 -31 -96 -34 -128 -8 -111 5 3 26 55 46 116 28 82 43 113 56 116 22 6 24
14 8 30 -8 8 -4 30 15 81 43 121 36 178 -19 138z"/>
<path d="M16126 10308 c-3 -7 -7 -33 -10 -58 -19 -137 -87 -244 -188 -294 -68
-34 -88 -34 -88 0 0 17 14 40 40 66 36 36 44 40 75 35 39 -6 57 9 31 28 -27
20 -93 2 -131 -35 -91 -88 -59 -185 48 -143 110 43 195 135 229 247 17 59 28
130 22 148 -6 21 -23 24 -28 6z"/>
<path d="M13575 10237 c-24 -18 -11 -37 26 -37 32 0 34 3 19 31 -13 23 -20 24
-45 6z"/>
<path d="M8155 10189 c-55 -28 -95 -76 -95 -114 0 -19 12 -47 30 -72 l30 -41
-30 -22 c-34 -24 -100 -39 -100 -22 0 6 4 13 10 17 5 3 7 12 4 20 -8 20 -40 3
-49 -25 -18 -58 91 -69 159 -16 44 33 45 53 5 109 -30 43 -30 45 -15 75 17 33
72 72 102 72 10 0 31 -12 46 -27 23 -22 31 -24 41 -14 10 10 5 19 -25 47 -44
40 -59 41 -113 13z"/>
<path d="M5326 10159 c-28 -33 -32 -47 -39 -124 -4 -35 -11 -54 -27 -67 -25
-20 -45 -24 -34 -7 4 7 -1 10 -12 7 -11 -2 -19 -12 -19 -23 0 -32 55 -32 92
-1 28 24 31 32 35 97 4 67 6 74 37 100 32 26 35 49 6 49 -7 0 -25 -14 -39 -31z"/>
<path d="M15270 10108 c-12 -46 -33 -103 -46 -127 -15 -28 -21 -48 -15 -54 14
-14 27 -2 60 56 31 54 120 148 106 112 -4 -11 -12 -32 -18 -47 -8 -20 -8 -31
0 -39 9 -9 21 -4 50 18 21 16 53 40 71 52 l33 23 -22 -45 c-12 -25 -19 -52
-16 -61 8 -20 46 -21 72 -3 24 18 11 41 -16 27 -24 -13 -24 -13 6 52 46 98 28
113 -61 47 -58 -43 -73 -45 -54 -10 26 49 -28 56 -82 11 l-37 -30 10 32 c16
50 15 62 -2 66 -13 2 -21 -15 -39 -80z"/>
<path d="M2672 10155 c-36 -30 -92 -137 -92 -175 0 -42 33 -65 91 -63 49 1 99
24 99 44 0 7 -10 9 -27 4 -16 -4 -48 -8 -73 -9 -44 -1 -45 0 -48 33 -3 30 3
39 58 91 43 39 61 63 58 76 -5 28 -32 28 -66 -1z"/>
<path d="M3485 10159 c-43 -34 -105 -119 -105 -143 0 -35 23 -57 68 -66 58
-10 134 6 129 28 -2 10 -10 15 -18 13 -144 -35 -179 8 -84 106 47 48 56 54 70
43 22 -19 44 2 25 25 -18 21 -53 19 -85 -6z"/>
<path d="M5502 10149 c-41 -30 -95 -110 -107 -159 -9 -37 27 -80 67 -80 37 0
108 20 108 30 0 4 10 10 22 14 17 4 20 8 11 17 -8 8 -22 7 -56 -6 -24 -9 -59
-15 -78 -13 -31 3 -34 6 -33 35 3 47 33 82 94 106 61 25 80 47 61 71 -20 23
-42 20 -89 -15z"/>
<path d="M9041 10126 c-28 -30 -51 -60 -51 -65 0 -23 -40 -10 -60 19 -26 36
-53 38 -95 6 l-32 -24 0 30 c0 67 -78 61 -159 -14 -21 -19 -21 -19 -27 3 -9
32 -31 17 -38 -27 -4 -21 -14 -58 -22 -81 -12 -35 -12 -45 -1 -54 10 -8 18 -1
34 31 28 56 86 117 131 140 54 28 65 5 29 -65 -44 -86 -20 -90 64 -9 l67 64
33 -35 c18 -19 38 -35 45 -35 6 0 11 -11 11 -24 0 -35 35 -56 93 -56 40 0 48
3 45 16 -5 25 -36 42 -47 26 -12 -20 -60 4 -61 30 0 4 17 16 39 27 88 45 125
103 89 139 -20 20 -33 14 -87 -42z m49 -21 c-7 -9 -23 -21 -34 -27 -16 -8 -14
-3 8 21 29 31 51 36 26 6z"/>
<path d="M17119 10170 c-40 -12 -79 -41 -79 -59 0 -9 14 -36 30 -60 17 -24 30
-50 30 -57 0 -7 -20 -25 -45 -39 -51 -31 -85 -27 -85 9 0 29 -10 39 -27 25
-35 -30 5 -89 60 -89 39 0 127 53 128 78 2 32 -2 47 -27 84 -13 21 -24 42 -24
47 0 15 62 33 74 21 14 -14 23 -12 30 6 7 18 -10 44 -28 43 -6 0 -23 -4 -37
-9z"/>
<path d="M4084 10144 c-21 -14 -60 -47 -86 -72 -52 -51 -56 -51 -32 -3 12 24
13 36 5 44 -15 15 -21 6 -64 -90 -37 -83 -45 -113 -28 -113 5 0 56 47 113 105
58 58 110 105 116 105 11 0 -9 -71 -27 -94 -18 -23 -54 -143 -48 -159 3 -9 15
-17 24 -17 25 0 63 28 63 46 0 17 -22 18 -38 2 -7 -7 -12 -8 -12 -2 0 13 33
99 64 164 30 63 33 95 10 104 -21 8 -16 9 -60 -20z"/>
<path d="M4965 10128 c-12 -25 -58 -76 -120 -132 -55 -50 -100 -95 -100 -100
0 -25 30 -13 77 31 72 66 103 90 94 75 -11 -19 2 -62 19 -62 8 0 39 16 69 35
l55 35 -10 -29 c-7 -21 -7 -36 1 -50 12 -23 12 -23 34 -15 19 7 21 30 4 37 -9
3 -3 24 21 71 18 37 31 69 28 72 -10 10 -47 -7 -47 -22 0 -8 -4 -13 -8 -10 -5
3 -32 -13 -61 -34 -29 -22 -57 -40 -63 -40 -12 0 -2 32 33 103 34 67 35 77 12
77 -11 0 -26 -17 -38 -42z"/>
<path d="M12356 10129 c-66 -58 -106 -140 -73 -152 15 -6 69 16 107 43 15 11
30 20 32 20 2 0 2 -16 0 -36 -4 -33 -2 -35 19 -32 19 2 23 8 21 30 -1 14 7 43
19 63 16 26 19 39 11 47 -8 8 -30 -2 -80 -35 -39 -26 -78 -50 -88 -54 -16 -6
-16 -4 3 23 31 43 75 82 98 86 26 4 26 32 -1 36 -12 2 -38 -13 -68 -39z"/>
<path d="M3708 10143 c-24 -28 -68 -120 -68 -143 0 -45 36 -34 133 41 l27 21
-10 -28 c-14 -37 -5 -74 19 -74 26 0 31 10 18 31 -9 14 -7 29 11 71 14 33 18
56 13 61 -10 10 -19 6 -96 -52 -76 -57 -78 -58 -60 -14 8 21 27 48 41 61 25
22 25 42 0 42 -7 0 -20 -8 -28 -17z"/>
<path d="M3965 10150 c-10 -16 16 -43 28 -31 11 11 2 41 -12 41 -5 0 -13 -5
-16 -10z"/>
<path d="M16734 10146 c-41 -18 -102 -72 -120 -107 -31 -61 -4 -113 59 -112
53 1 100 12 116 28 23 22 7 29 -43 16 -90 -22 -116 -11 -102 45 6 21 11 25 28
20 12 -3 28 0 36 7 8 7 38 24 66 38 40 20 52 31 54 52 3 25 0 27 -30 27 -18
-1 -47 -7 -64 -14z"/>
<path d="M15661 10091 c-27 -27 -54 -64 -60 -81 -9 -28 -8 -34 14 -56 31 -31
70 -31 118 1 42 29 53 58 41 113 -4 20 -8 44 -8 52 -1 9 -13 16 -29 18 -21 3
-37 -7 -76 -47z m79 -52 c0 -28 -6 -42 -22 -53 -26 -18 -74 -21 -83 -6 -8 12
15 52 53 92 32 35 52 22 52 -33z"/>
<path d="M10797 10113 c-35 -5 -30 -27 6 -31 15 -2 27 -5 27 -8 0 -3 -18 -27
-40 -55 -44 -56 -58 -94 -43 -118 17 -27 40 -24 117 18 81 45 88 47 80 27 -3
-8 -1 -16 3 -19 15 -10 30 7 38 41 10 50 -14 51 -96 4 -86 -50 -109 -58 -109
-39 0 19 86 136 105 143 8 4 15 15 15 25 0 16 -7 19 -37 18 -21 -1 -51 -4 -66
-6z"/>
<path d="M12617 10095 c-31 -21 -41 -24 -53 -14 -17 14 -16 15 -43 -38 -37
-73 -20 -84 45 -30 49 41 113 81 120 74 3 -3 1 -22 -5 -44 -15 -53 -14 -93 3
-93 15 0 40 101 34 141 -5 35 -52 37 -101 4z"/>
<path d="M8328 10058 c-91 -99 -70 -164 35 -108 46 25 50 25 42 -1 -10 -32 3
-69 24 -69 21 0 39 32 22 38 -19 6 -12 37 20 86 44 71 25 76 -61 16 -111 -76
-134 -66 -50 20 47 48 55 70 28 70 -7 0 -34 -24 -60 -52z"/>
<path d="M13443 10098 c-6 -7 -21 -35 -34 -62 -13 -26 -33 -52 -45 -56 -32
-13 -38 -40 -14 -62 24 -23 50 -17 50 10 0 11 18 52 40 92 37 67 42 90 21 90
-5 0 -13 -6 -18 -12z"/>
<path d="M13665 10099 c-46 -13 -175 -135 -175 -165 0 -22 4 -25 28 -22 21 2
27 8 25 25 -4 33 133 150 152 131 3 -3 -2 -25 -11 -49 -21 -57 -23 -94 -5 -94
14 0 18 8 47 110 12 45 12 51 -3 63 -19 13 -17 13 -58 1z"/>
<path d="M16185 10086 c-9 -13 -18 -40 -22 -59 -4 -30 -1 -40 21 -62 22 -22
33 -26 58 -21 78 15 157 91 141 133 -9 24 -31 14 -38 -17 -8 -35 -80 -83 -117
-78 -32 4 -37 59 -8 88 11 11 18 25 15 30 -11 17 -34 11 -50 -14z"/>
<path d="M10354 10078 c-29 -24 -84 -104 -84 -125 0 -30 47 -25 103 11 31 20
58 36 61 36 3 0 1 -11 -4 -24 -12 -32 -2 -66 19 -66 25 0 31 10 19 30 -9 13
-6 28 12 64 34 72 17 77 -75 21 -42 -25 -80 -44 -83 -41 -11 12 62 77 83 74
27 -4 26 23 -2 33 -16 6 -29 2 -49 -13z"/>
<path d="M13996 10078 c-9 -12 -27 -39 -39 -58 -21 -32 -27 -35 -72 -35 -48 0
-50 1 -48 28 1 15 9 35 18 43 11 11 13 20 6 27 -16 16 -39 0 -55 -38 -29 -68
11 -111 93 -102 35 4 52 12 75 38 l29 33 -7 -115 c-10 -161 -8 -156 -74 -169
-143 -28 -203 -69 -218 -147 -9 -49 13 -110 48 -131 24 -14 30 -14 74 3 26 10
68 39 95 64 40 39 51 58 70 122 l22 76 71 17 c105 25 148 47 170 88 21 40 16
79 -8 59 -8 -7 -17 -23 -20 -36 -8 -30 -41 -48 -133 -73 l-69 -20 4 165 c5
173 -1 205 -32 161z m-26 -388 c0 -5 -9 -34 -21 -64 -36 -98 -160 -180 -196
-131 -7 11 -13 38 -13 61 0 56 35 97 98 118 76 24 132 31 132 16z"/>
<path d="M11415 10065 c-27 -7 -69 -14 -92 -14 -44 -1 -65 -17 -42 -32 14 -9
36 -7 139 12 30 5 64 11 75 12 25 3 45 15 45 28 0 12 -64 9 -125 -6z"/>
<path d="M11293 9848 c-21 -27 -23 -48 -5 -49 13 0 12 -2 -4 -9 -12 -5 -24
-21 -28 -37 -4 -15 -34 -99 -67 -186 -71 -185 -69 -210 9 -136 51 50 140 119
153 119 4 0 -1 -27 -12 -59 -27 -80 -23 -115 14 -119 19 -2 27 1 27 12 0 9 -7
16 -15 16 -19 0 -19 2 5 74 33 99 21 133 -37 107 -26 -12 -112 -78 -125 -96
-16 -22 -7 18 21 87 16 40 38 103 49 140 12 37 28 81 37 98 21 40 3 70 -22 38z"/>
<path d="M6029 9843 c-2 -11 -6 -27 -8 -33 -1 -3 -12 -36 -24 -75 l-23 -70
-53 -3 c-43 -3 -52 -6 -47 -18 4 -10 -6 -5 -25 10 -17 14 -34 26 -39 26 -17 0
-20 -19 -4 -34 21 -21 54 -29 109 -24 36 2 44 0 40 -12 -32 -111 -45 -184 -34
-191 18 -11 26 -4 33 33 4 18 16 68 27 110 20 73 23 79 66 104 24 14 46 24 48
22 1 -1 -15 -47 -37 -101 -37 -91 -42 -127 -20 -127 5 0 44 29 87 65 43 36 82
65 87 65 9 0 4 -30 -14 -88 -11 -38 -10 -41 21 -44 22 -3 24 1 27 52 2 30 5
69 7 85 2 26 -2 30 -24 33 -20 2 -42 -9 -80 -40 -75 -61 -81 -64 -70 -36 24
61 80 187 92 206 11 18 11 24 1 34 -11 11 -16 9 -30 -8 -19 -24 -113 -97 -118
-91 -2 1 6 32 17 67 11 35 17 70 15 77 -6 14 -25 18 -27 6z"/>
<path d="M6675 9795 c-24 -20 -27 -26 -16 -39 9 -11 10 -24 3 -48 -6 -18 -13
-45 -16 -60 -5 -22 -11 -26 -30 -22 -45 8 -41 -31 4 -48 4 -2 2 -32 -6 -68
-18 -88 -18 -140 1 -140 8 0 16 13 19 33 3 17 11 65 17 105 l12 72 36 1 c86 2
104 5 108 17 4 9 -13 12 -61 12 -56 0 -66 3 -66 18 0 16 31 130 45 163 10 27
-18 29 -50 4z"/>
<path d="M12490 9801 c0 -24 -137 -348 -157 -372 -17 -21 -17 -26 6 -50 23
-25 45 -16 37 14 -3 12 11 60 36 116 22 53 56 132 74 175 41 96 46 129 22 134
-13 2 -18 -3 -18 -17z"/>
<path d="M1765 9800 c-10 -17 15 -40 42 -40 24 0 24 0 6 25 -19 26 -38 32 -48
15z"/>
<path d="M14826 9732 c-10 -42 -31 -106 -47 -141 l-30 -65 -29 32 c-32 35 -57
40 -98 18 -39 -20 -98 -87 -105 -117 -8 -30 13 -64 43 -72 33 -9 153 57 199
109 38 43 83 142 97 212 4 18 11 35 15 38 5 3 9 18 9 35 0 21 -5 29 -17 29
-14 0 -22 -18 -37 -78z m-123 -206 c15 -22 15 -25 -1 -39 -23 -21 -112 -67
-129 -67 -41 0 -15 68 40 108 41 28 71 28 90 -2z"/>
<path d="M4547 9758 c-11 -65 -35 -108 -61 -108 -35 0 -56 -10 -56 -26 0 -21
27 -29 45 -14 23 19 26 9 14 -53 -12 -58 -5 -142 12 -153 18 -11 22 4 20 78
-1 40 3 87 7 103 8 29 11 30 63 30 41 0 54 4 54 15 0 9 -11 16 -29 18 -19 3
-26 0 -21 -8 5 -7 -1 -7 -16 2 -13 7 -25 13 -26 14 -2 0 7 24 18 54 11 29 18
59 15 66 -10 26 -33 14 -39 -18z"/>
<path d="M9160 9765 c-20 -24 1 -41 29 -23 12 7 20 17 18 23 -6 17 -33 17 -47
0z"/>
<path d="M15333 9768 c-4 -7 -19 -42 -33 -78 l-25 -65 -50 -5 c-36 -4 -50 -9
-50 -20 0 -10 12 -16 38 -18 20 -2 37 -5 37 -8 0 -2 -23 -50 -51 -105 -45 -92
-57 -141 -28 -124 13 9 111 206 150 305 17 41 35 83 40 93 16 29 -10 52 -28
25z"/>
<path d="M3782 9739 c-35 -13 -21 -34 24 -35 51 -2 59 4 38 27 -19 21 -28 22
-62 8z"/>
<path d="M12186 9734 c-3 -9 -6 -28 -6 -43 0 -90 -68 -190 -152 -226 -36 -15
-38 -14 -38 4 0 11 25 45 55 76 51 51 61 75 32 75 -16 0 -84 -77 -108 -123
-59 -114 81 -97 182 21 39 46 55 88 65 175 6 47 4 57 -9 57 -8 0 -18 -7 -21
-16z"/>
<path d="M8078 9664 c-18 -13 -45 -29 -60 -35 -31 -12 -41 -37 -62 -139 -8
-41 -19 -87 -25 -101 -5 -15 -7 -30 -4 -33 12 -12 31 -6 36 12 24 76 78 205
96 231 33 46 57 56 88 36 17 -12 28 -14 36 -6 14 14 -6 36 -43 50 -25 8 -34 6
-62 -15z m-111 -256 c-3 -8 -6 -5 -6 6 -1 11 2 17 5 13 3 -3 4 -12 1 -19z"/>
<path d="M12671 9664 c-30 -38 -28 -74 4 -74 21 0 26 6 31 38 11 68 -1 80 -35
36z"/>
<path d="M3294 9636 c-70 -33 -134 -120 -134 -185 0 -34 15 -42 48 -28 26 12
28 23 6 35 -41 23 51 144 120 157 26 5 36 12 36 26 0 25 -14 24 -76 -5z"/>
<path d="M4770 9631 c-37 -10 -36 -33 4 -91 20 -29 36 -56 36 -61 0 -11 -37
-49 -48 -49 -23 0 -44 29 -45 63 -1 28 -5 37 -16 34 -21 -4 -16 -84 6 -109 24
-27 79 -23 108 7 33 32 32 72 -4 126 -17 24 -28 45 -26 48 2 2 26 4 52 6 34 1
48 6 48 16 0 16 -73 22 -115 10z"/>
<path d="M6358 9592 c-45 -50 -65 -97 -48 -117 14 -17 51 -20 66 -6 5 5 19 12
32 16 19 5 22 3 22 -19 0 -61 32 -29 47 47 5 23 2 27 -16 27 -12 0 -44 -11
-71 -24 -28 -13 -50 -22 -50 -19 0 22 48 85 70 90 36 8 40 12 33 28 -10 27
-49 16 -85 -23z"/>
<path d="M9274 9615 c-36 -16 -97 -83 -125 -137 -16 -31 -17 -38 -4 -48 21
-17 48 -5 40 19 -4 13 7 35 35 70 49 62 82 78 116 56 24 -15 38 -7 28 18 -4
11 -48 40 -57 36 -1 0 -16 -7 -33 -14z"/>
<path d="M15343 9623 c-13 -2 -23 -11 -23 -19 0 -21 151 -16 158 5 3 8 0 11
-6 7 -6 -3 -13 -2 -17 4 -6 10 -68 12 -112 3z"/>
<path d="M2958 9565 c-32 -30 -58 -58 -58 -62 0 -4 -14 -42 -31 -83 -40 -98
-69 -191 -63 -202 3 -4 1 -8 -4 -8 -10 0 -42 -82 -42 -107 0 -54 62 45 123
197 11 29 22 37 58 47 119 32 196 181 131 256 -25 28 -54 19 -114 -38z m102
-27 c0 -65 -50 -130 -124 -158 -23 -8 -27 -8 -23 4 3 8 11 34 18 57 15 52 42
96 77 126 32 27 52 15 52 -29z"/>
<path d="M9420 9594 c-65 -55 -80 -135 -34 -181 23 -23 31 -25 82 -21 64 5
222 72 222 94 0 7 -9 18 -19 24 -27 14 -31 13 -24 -7 4 -11 3 -14 -5 -9 -7 4
-12 3 -12 -2 0 -11 -100 -56 -147 -66 -89 -20 -119 59 -51 132 22 23 48 30 48
12 0 -6 -11 -15 -24 -20 -29 -11 -42 -28 -29 -41 14 -14 80 17 88 42 4 11 4
31 1 45 -9 33 -55 32 -96 -2z"/>
<path d="M9037 9604 c-4 -4 -7 -20 -7 -35 0 -33 -20 -80 -30 -74 -4 3 -13 -2
-20 -10 -10 -13 -9 -19 5 -35 10 -11 24 -20 31 -20 15 0 57 121 52 151 -3 23
-19 35 -31 23z"/>
<path d="M3904 9556 c-28 -24 -58 -60 -69 -79 -18 -33 -18 -36 -1 -62 23 -35
61 -48 116 -40 102 16 104 48 2 39 -56 -5 -70 -4 -82 11 -12 14 -11 20 3 43 9
15 23 26 32 24 9 -2 32 9 51 23 27 21 34 33 32 53 -5 41 -30 37 -84 -12z"/>
<path d="M4227 9580 c-31 -25 -57 -70 -57 -99 0 -11 12 -29 26 -40 40 -32 124
-27 124 7 0 13 -4 12 -22 -4 -16 -13 -19 -14 -10 -2 11 14 9 16 -23 15 -19 -1
-42 6 -50 14 -14 14 -13 19 8 50 16 23 31 34 47 34 18 0 25 5 25 20 0 28 -35
31 -68 5z"/>
<path d="M8228 9571 c-115 -73 -164 -201 -85 -222 45 -12 167 22 167 46 0 14
-42 11 -87 -6 -13 -5 -38 -9 -54 -9 -22 0 -29 5 -29 19 0 35 10 49 32 43 14
-3 26 1 34 13 8 10 17 16 20 12 11 -10 60 23 76 52 17 29 10 64 -15 74 -8 3
-35 -7 -59 -22z m46 -35 c-6 -15 -72 -56 -90 -56 -12 0 30 42 61 61 33 20 38
19 29 -5z"/>
<path d="M1828 9567 c-42 -36 -77 -120 -55 -134 35 -22 76 -2 44 22 -14 10
-13 15 6 51 15 25 31 40 46 42 23 4 24 2 18 -44 -6 -53 7 -98 25 -92 16 6 13
144 -3 164 -17 21 -50 17 -81 -9z"/>
<path d="M8523 9575 c-14 -10 -20 -22 -16 -32 4 -11 2 -14 -8 -11 -16 5 -49
-32 -49 -56 0 -25 43 -24 106 4 l41 18 -32 -102 c-18 -55 -64 -171 -103 -258
-66 -147 -76 -174 -73 -205 2 -26 25 -11 93 61 62 67 128 112 190 130 27 8 17
51 -10 51 -12 0 -23 -4 -23 -10 -1 -5 -25 -23 -53 -38 -28 -15 -70 -47 -93
-70 -24 -22 -43 -38 -43 -35 0 4 27 65 59 136 33 71 69 163 81 203 12 41 31
96 42 122 28 66 16 75 -57 43 -77 -35 -88 -32 -42 9 22 18 36 39 32 44 -8 15
-17 14 -42 -4z"/>
<path d="M8761 9551 c-23 -45 -27 -91 -9 -109 17 -17 78 -14 113 6 52 29 124
86 125 99 1 28 -23 21 -74 -21 -63 -51 -124 -76 -136 -55 -5 7 -2 28 7 48 19
46 21 63 6 68 -7 2 -21 -14 -32 -36z"/>
<path d="M11513 9556 c-34 -37 -58 -98 -49 -121 8 -22 45 -18 80 8 17 12 43
30 58 40 l26 16 -25 -44 c-36 -65 -11 -88 44 -41 22 19 25 27 16 38 -8 9 -9
19 -3 28 6 8 10 25 10 38 0 34 -36 28 -105 -17 -33 -22 -62 -38 -64 -36 -8 9
37 71 60 82 30 15 31 37 3 41 -14 2 -31 -9 -51 -32z"/>
<path d="M11753 9564 c-29 -14 -53 -30 -53 -35 0 -21 31 -20 65 1 20 12 39 20
42 16 4 -3 2 -32 -4 -64 -11 -57 -3 -87 19 -80 10 4 20 69 22 143 1 51 -18 55
-91 19z"/>
<path d="M14963 9582 c-28 -4 -100 -70 -108 -98 -15 -55 53 -66 137 -23 48 25
52 24 33 -5 -20 -30 -16 -91 5 -91 10 0 15 10 15 30 0 17 15 54 33 83 17 29
32 56 32 61 0 14 -29 21 -36 10 -3 -6 -38 -26 -77 -45 -107 -51 -139 -44 -72
15 40 34 46 36 63 19 9 -9 15 -9 24 0 17 17 -19 49 -49 44z"/>
<path d="M15494 9572 c-61 -34 -104 -79 -104 -111 0 -41 78 -53 147 -22 41 19
42 19 59 0 14 -16 30 -19 88 -18 96 1 181 20 181 39 0 9 -8 14 -20 12 -11 -1
-59 -7 -106 -14 -48 -6 -94 -8 -103 -5 -22 9 -20 34 4 64 16 20 18 29 8 40 -9
11 -18 6 -52 -31 -42 -46 -119 -82 -151 -70 -26 10 -18 27 35 66 38 29 68 37
88 25 20 -13 33 2 22 24 -13 24 -54 24 -96 1z"/>
<path d="M3412 9524 c-47 -63 -52 -86 -21 -107 39 -28 169 24 185 75 10 33
-21 68 -61 68 -19 0 -35 5 -35 10 0 26 -30 5 -68 -46z m99 -2 c37 5 35 -27 -3
-50 -42 -25 -98 -38 -98 -22 0 23 55 89 66 79 6 -5 22 -8 35 -7z"/>
<path d="M12695 9559 c-54 -28 -89 -67 -75 -84 15 -18 65 -4 65 19 0 10 8 22
18 27 21 12 21 11 -3 -46 -21 -50 -26 -95 -11 -95 6 0 21 11 35 24 22 20 26
33 28 96 2 43 -1 75 -7 77 -6 1 -28 -6 -50 -18z"/>
<path d="M12935 9556 c-38 -17 -90 -72 -104 -109 -9 -24 -8 -31 13 -52 26 -26
39 -26 124 -5 l32 8 0 -78 0 -79 -45 -7 c-89 -13 -145 -76 -145 -161 0 -79 54
-104 123 -58 42 29 62 62 81 137 l13 53 91 10 c50 6 93 13 97 17 4 3 -1 18
-10 32 -10 14 -13 26 -7 26 6 0 13 -6 15 -12 4 -10 6 -10 6 -1 1 6 -3 15 -9
18 -14 9 -50 -13 -50 -30 0 -12 -14 -15 -62 -15 l-63 0 7 112 c3 62 9 123 13
136 6 18 4 22 -13 22 -16 0 -24 -10 -32 -40 -6 -22 -20 -45 -32 -51 -29 -15
-110 -17 -115 -2 -2 7 13 31 35 54 31 34 48 43 83 48 30 4 44 11 44 21 0 20
-51 24 -90 6z m50 -378 c-27 -98 -65 -148 -113 -148 -36 0 -36 84 0 128 17 19
66 41 96 42 19 0 22 -4 17 -22z"/>
<path d="M1676 9552 c-14 -23 -54 -141 -49 -146 17 -17 33 -1 48 47 10 28 24
60 32 69 8 9 12 22 8 27 -7 13 -32 15 -39 3z"/>
<path d="M3740 9527 c-5 -12 -18 -69 -30 -127 -23 -114 -45 -169 -82 -214 -28
-33 -48 -28 -48 10 0 14 -7 27 -15 30 -8 4 -15 10 -15 16 0 5 5 6 10 3 6 -3
10 3 10 14 0 28 -17 35 -30 12 -16 -31 6 -118 35 -137 32 -21 58 -6 99 59 39
62 49 91 75 217 11 52 22 102 26 111 10 27 -24 33 -35 6z"/>
<path d="M12571 9538 c-47 -57 -62 -79 -71 -102 -16 -43 -13 -66 10 -66 15 0
20 7 20 28 0 29 17 59 58 104 13 14 21 31 18 37 -9 15 -23 14 -35 -1z"/>
<path d="M2106 9317 c-14 -19 -42 -85 -62 -148 -20 -63 -38 -116 -40 -118 -2
-2 -13 4 -24 14 -16 15 -23 16 -33 6 -9 -10 -6 -17 16 -37 l28 -24 -32 -61
c-27 -50 -30 -62 -18 -70 18 -11 34 -6 35 12 1 8 13 39 27 70 26 54 29 56 81
68 56 12 96 34 84 46 -4 4 -30 2 -58 -5 -28 -7 -54 -10 -57 -7 -7 8 54 200 72
223 11 15 16 16 28 6 13 -11 16 -10 22 8 7 23 -9 50 -31 50 -7 0 -24 -15 -38
-33z"/>
<path d="M9536 9246 c-25 -35 -59 -92 -76 -128 l-31 -65 -56 -6 c-31 -3 -61
-11 -66 -16 -20 -20 6 -29 56 -21 46 7 48 6 42 -14 -3 -12 -11 -47 -17 -79
-11 -52 -10 -60 9 -85 33 -44 64 -49 119 -21 47 24 74 52 62 64 -4 4 -26 -5
-51 -19 -70 -41 -107 -31 -107 29 0 40 27 132 42 141 6 4 41 8 77 9 51 2 67 6
69 18 4 18 -42 26 -99 16 l-37 -6 18 40 c17 38 50 87 99 148 22 28 23 59 2 59
-6 0 -30 -29 -55 -64z"/>
<path d="M4397 9293 c-4 -3 -7 -18 -7 -32 0 -55 -11 -69 -71 -96 -36 -16 -67
-24 -79 -20 -23 7 -41 -22 -20 -35 13 -8 81 4 112 21 11 6 21 9 24 7 2 -2 -15
-62 -38 -132 -30 -94 -38 -130 -29 -139 6 -6 13 -8 16 -5 3 3 27 72 53 154
l48 148 47 28 c26 15 47 24 47 20 0 -16 -41 -149 -56 -180 -8 -18 -18 -48 -21
-67 -10 -61 18 -55 98 19 39 36 75 66 80 66 4 0 23 -10 42 -23 26 -18 32 -27
26 -42 -23 -59 -2 -106 52 -120 36 -9 190 43 196 66 3 10 11 15 19 12 8 -3 14
0 14 5 0 21 -18 21 -64 -3 -55 -28 -147 -50 -170 -42 -20 8 -21 66 -2 93 8 10
33 23 57 29 52 13 67 33 53 72 -14 41 -37 39 -85 -6 -47 -46 -68 -50 -94 -21
-28 31 -49 25 -120 -36 l-66 -55 17 38 c19 42 74 229 74 250 0 18 -35 16 -51
-3 -11 -14 -61 -44 -73 -44 -2 0 -2 18 1 40 4 31 2 40 -9 40 -8 0 -18 -3 -21
-7z m388 -222 c-3 -6 -11 -11 -17 -11 -6 0 -6 6 2 15 14 17 26 13 15 -4z"/>
<path d="M7404 9129 c-33 -9 -97 -73 -116 -115 -13 -27 -16 -28 -52 -14 -20 7
-26 16 -26 40 0 37 -24 40 -65 8 -26 -20 -26 -22 -9 -29 10 -3 25 -2 32 3 9 8
12 5 12 -10 0 -25 35 -52 66 -52 17 0 24 -8 29 -29 3 -16 15 -37 25 -46 40
-36 170 -43 170 -8 0 10 6 13 16 9 10 -4 14 -2 11 6 -2 7 -11 11 -18 9 -42
-14 -121 -12 -144 3 -37 24 -33 52 8 60 43 8 113 60 133 98 14 27 14 32 -1 54
-17 26 -23 27 -71 13z m46 -40 c0 -20 -66 -74 -104 -86 l-37 -12 34 42 c45 55
107 87 107 56z"/>
<path d="M6460 9108 c-48 -33 -58 -66 -38 -128 9 -27 14 -58 11 -69 -9 -35
-85 -55 -97 -26 -6 17 -32 20 -41 4 -4 -5 1 -19 11 -30 36 -40 147 -14 160 37
4 14 1 49 -6 78 -16 69 -11 88 28 108 26 12 41 14 69 6 24 -7 39 -6 46 1 18
18 -7 33 -60 38 -39 4 -55 0 -83 -19z"/>
<path d="M7034 9094 c-27 -14 -61 -37 -75 -51 l-26 -24 5 26 c4 22 1 26 -12
23 -20 -4 -79 -135 -71 -157 4 -10 30 9 83 61 74 72 118 105 128 95 3 -2 -4
-28 -16 -56 -30 -77 -11 -92 53 -43 37 28 47 44 25 41 -34 -4 -36 1 -23 45 10
32 10 47 2 55 -15 15 -17 15 -73 -15z"/>
<path d="M10095 9093 c-16 -9 -48 -31 -70 -49 -22 -18 -49 -32 -60 -31 -16 2
-21 -5 -23 -33 -2 -19 -11 -43 -20 -53 -9 -10 -17 -25 -18 -35 -1 -9 -23 -68
-49 -130 -44 -106 -50 -142 -25 -142 6 0 13 8 17 18 3 9 23 58 45 108 l39 92
38 -5 c55 -7 102 11 151 60 40 39 90 126 90 155 0 19 -46 62 -67 62 -10 -1
-31 -8 -48 -17z m72 -39 c17 -44 -79 -165 -147 -185 -60 -18 -70 -3 -40 60 44
95 167 177 187 125z"/>
<path d="M10359 9068 c-82 -63 -109 -131 -71 -178 18 -22 28 -25 84 -24 78 1
178 29 178 49 0 18 0 18 -75 0 -89 -21 -152 -20 -165 4 -8 16 -6 23 12 35 12
9 28 16 36 16 26 0 88 39 99 62 6 14 7 32 2 46 -12 32 -49 28 -100 -10z m66
-20 c-6 -16 -74 -52 -82 -44 -3 2 14 18 38 35 44 32 53 34 44 9z"/>
<path d="M6705 9061 c-39 -18 -76 -52 -108 -101 -21 -31 -21 -44 -1 -64 18
-18 48 -14 106 15 l37 19 -2 -43 c-2 -36 1 -42 18 -42 14 0 20 7 21 25 2 51 5
58 29 94 14 20 25 41 25 46 0 19 -32 10 -68 -20 -39 -31 -130 -75 -139 -67
-17 17 60 94 113 112 39 13 52 37 24 42 -8 2 -33 -6 -55 -16z"/>
<path d="M1783 9053 c-19 -7 -16 -22 12 -55 14 -16 25 -40 25 -52 0 -45 -69
-106 -120 -106 -32 0 -35 25 -9 77 20 39 29 48 52 49 36 1 44 11 25 31 -40 39
-116 -33 -125 -121 -5 -39 -2 -46 20 -61 25 -16 30 -16 76 0 52 17 110 71 112
103 3 38 -4 67 -23 103 -20 39 -23 41 -45 32z"/>
<path d="M9834 8980 c-28 -49 -50 -76 -54 -69 -5 6 -16 8 -29 4 -17 -5 -23 -1
-31 20 -6 15 -10 32 -9 39 4 32 -2 47 -18 44 -14 -3 -17 -12 -15 -48 5 -65 26
-93 65 -88 l32 3 -68 -113 c-93 -154 -115 -222 -74 -222 9 0 17 15 21 38 5 34
29 78 194 350 58 94 67 122 42 122 -6 0 -31 -36 -56 -80z"/>
<path d="M10623 8880 c-25 -10 -30 -25 -13 -35 14 -9 62 23 55 35 -7 12 -13
12 -42 0z"/>
<path d="M16477 8285 c-15 -18 -39 -54 -53 -80 l-26 -46 -57 7 c-31 3 -60 7
-65 8 -6 0 -11 -6 -13 -15 -4 -17 38 -29 101 -29 23 0 27 -3 21 -17 -22 -51
-35 -122 -29 -157 9 -56 53 -98 96 -94 25 2 33 8 33 23 0 16 -6 19 -31 17 -60
-6 -81 66 -48 165 9 26 21 51 28 55 6 4 50 8 99 8 81 0 87 1 87 21 0 11 -4 18
-9 15 -5 -3 -8 2 -7 11 0 9 -5 18 -11 20 -7 3 -13 -2 -13 -11 0 -12 -11 -16
-47 -16 -27 0 -58 -3 -71 -6 -19 -5 -21 -3 -16 12 4 11 25 41 46 67 23 27 37
54 34 62 -8 22 -18 18 -49 -20z"/>
<path d="M9389 8258 c-36 -72 -79 -129 -153 -206 -67 -70 -140 -121 -154 -107
-4 3 4 26 17 51 25 46 73 88 101 89 14 0 16 6 12 35 -7 44 -129 -59 -157 -133
-14 -38 -15 -50 -5 -62 27 -32 90 -12 160 51 l39 36 -6 -52 c-5 -44 -3 -54 17
-75 27 -29 47 -31 97 -10 31 13 34 17 22 31 -10 13 -10 17 1 24 7 4 10 15 6
25 -5 15 -9 14 -36 -5 -26 -18 -29 -25 -18 -37 10 -13 8 -14 -18 -11 -26 3
-29 7 -32 45 -3 44 23 108 78 188 41 60 82 144 75 155 -12 19 -25 10 -46 -32z"/>
<path d="M12355 8239 c-13 -24 -14 -33 -5 -39 27 -16 45 -4 45 30 0 44 -20 49
-40 9z"/>
<path d="M7158 8183 c-51 -75 -55 -78 -98 -83 -54 -6 -64 -33 -13 -38 l31 -3
-25 -57 c-54 -122 2 -223 114 -206 53 8 109 48 81 59 -10 4 -27 0 -40 -9 -12
-9 -39 -16 -60 -16 -79 0 -100 74 -52 181 l26 58 67 6 c96 8 115 16 119 46 2
18 -2 26 -12 26 -9 0 -16 -6 -16 -14 0 -7 -8 -13 -19 -13 -10 0 -39 -3 -65 -6
l-47 -7 46 66 c42 60 50 87 25 87 -5 0 -33 -35 -62 -77z"/>
<path d="M10675 8163 c-16 -8 -53 -37 -81 -65 -45 -43 -51 -46 -50 -26 1 14
-5 23 -14 23 -10 0 -18 -19 -27 -65 -6 -36 -23 -88 -37 -116 -29 -58 -33 -84
-12 -84 9 0 34 40 60 93 47 95 83 141 148 191 26 19 46 27 63 24 14 -3 25 -1
25 4 0 5 5 6 10 3 6 -4 7 -12 4 -18 -4 -7 -1 -6 7 1 12 11 10 16 -10 33 -28
23 -46 23 -86 2z"/>
<path d="M15084 8141 c-47 -12 -79 -40 -119 -106 -24 -41 -35 -70 -33 -90 5
-46 31 -38 46 15 32 112 68 145 154 145 64 0 86 19 42 35 -28 11 -45 11 -90 1z"/>
<path d="M15730 8143 c-54 -20 -75 -68 -55 -124 21 -60 19 -95 -7 -113 -36
-26 -50 -20 -47 18 4 42 -5 54 -26 33 -20 -20 -19 -56 1 -86 13 -19 22 -22 47
-17 71 14 99 75 72 156 -16 47 -16 53 -1 75 18 27 36 31 54 13 9 -9 15 -9 24
0 26 26 -21 61 -62 45z"/>
<path d="M11824 8111 c-44 -27 -77 -74 -108 -154 -29 -73 -30 -100 -5 -105 16
-3 27 21 34 73 5 36 42 110 66 132 30 27 71 43 110 43 49 0 29 25 -22 28 -30
2 -54 -4 -75 -17z"/>
<path d="M13843 8109 c-23 -11 -61 -37 -85 -58 -24 -21 -50 -40 -58 -43 -10
-4 -34 -64 -64 -159 -27 -85 -61 -183 -77 -218 -34 -75 -35 -81 -10 -81 23 0
61 86 110 248 18 56 36 102 41 102 6 0 10 -5 10 -10 0 -6 11 -15 25 -22 20 -9
33 -6 79 16 67 33 186 155 186 191 0 53 -82 71 -157 34z m95 -15 c38 -11 25
-40 -53 -112 -94 -88 -168 -112 -134 -45 7 16 15 31 17 36 2 4 -4 7 -14 7 -28
0 41 66 100 95 55 28 52 27 84 19z"/>
<path d="M11191 8082 c-46 -48 -98 -146 -107 -199 -5 -36 -3 -45 19 -67 20
-20 36 -26 71 -26 49 0 96 14 96 29 0 6 -23 8 -52 6 -28 -2 -63 1 -76 6 -23 9
-24 13 -18 56 6 47 28 90 79 156 31 40 46 47 43 21 -2 -25 21 -28 34 -5 14 28
-3 61 -32 61 -12 0 -37 -17 -57 -38z"/>
<path d="M2135 8099 c-11 -6 -45 -37 -76 -68 l-55 -58 6 -58 c4 -39 12 -62 25
-71 33 -24 183 -12 200 16 14 22 -8 27 -58 14 -64 -18 -124 -10 -132 17 -11
34 4 55 58 77 63 26 127 77 127 101 0 38 -51 54 -95 30z m55 -27 c0 -17 -95
-80 -105 -70 -7 7 22 36 55 57 38 23 50 26 50 13z"/>
<path d="M12042 8090 c-45 -21 -81 -55 -82 -79 0 -7 16 -28 35 -47 37 -35 47
-77 19 -88 -25 -10 -94 -7 -94 4 0 6 -7 10 -15 10 -8 0 -15 -6 -15 -12 0 -27
19 -40 62 -45 109 -13 157 80 77 147 -20 17 -28 31 -24 41 9 23 78 52 103 45
25 -8 38 10 22 29 -16 20 -36 19 -88 -5z"/>
<path d="M15964 8085 c-70 -35 -114 -83 -121 -132 -7 -53 9 -80 55 -92 42 -11
166 0 200 18 30 16 27 30 -5 26 -154 -21 -206 -18 -217 11 -11 27 3 54 28 54
12 0 46 7 75 16 43 12 55 21 66 47 13 32 10 56 -9 69 -16 11 -17 11 -72 -17z
m56 -22 c0 -17 -17 -32 -43 -42 -66 -25 -72 -5 -9 29 41 21 52 24 52 13z"/>
<path d="M10849 8076 c-112 -60 -185 -200 -133 -257 21 -23 44 -24 115 -3 84
23 109 35 109 50 0 18 -6 18 -82 -6 -76 -24 -117 -25 -125 -5 -9 24 26 105 42
99 19 -8 112 36 153 71 71 59 11 98 -79 51z m56 -25 c-7 -12 -94 -61 -108 -61
-20 0 84 69 106 70 5 0 6 -4 2 -9z"/>
<path d="M14556 8091 c-4 -5 -11 -33 -16 -63 -12 -62 -36 -99 -73 -112 -34
-12 -43 -3 -29 29 10 21 9 27 -4 32 -8 3 -25 -3 -37 -14 -29 -26 -99 -73 -110
-73 -4 0 4 20 18 45 27 50 32 75 13 75 -18 -1 -91 -128 -84 -146 9 -23 51 -16
106 16 28 17 52 30 54 30 2 0 6 -9 9 -20 6 -24 34 -26 81 -6 57 24 89 82 98
175 3 33 -13 53 -26 32z"/>
<path d="M5150 8071 c0 -12 9 -30 20 -41 16 -16 18 -24 9 -47 -19 -52 -125
-143 -149 -128 -15 9 -12 72 5 106 14 27 14 30 -1 36 -12 4 -30 -7 -60 -39
-48 -51 -92 -88 -105 -88 -16 0 -9 34 15 76 25 44 21 68 -10 62 -21 -4 -36
-50 -38 -117 -2 -75 38 -79 113 -11 l30 28 7 -32 c9 -43 22 -56 54 -56 31 0
115 61 147 107 52 74 47 143 -9 134 -5 0 -7 4 -5 10 1 6 -4 14 -10 16 -8 3
-13 -4 -13 -16z"/>
<path d="M12835 8071 c-16 -10 -49 -39 -71 -63 -40 -44 -41 -46 -34 -93 12
-81 69 -108 183 -86 34 7 72 14 83 17 21 4 63 54 45 54 -5 0 -24 -6 -43 -14
-48 -20 -179 -31 -205 -18 -22 12 -35 44 -24 59 3 5 32 17 64 27 66 20 97 45
97 79 0 26 -28 57 -51 57 -8 0 -27 -9 -44 -19z m55 -40 c0 -13 -14 -24 -46
-36 -25 -9 -47 -15 -50 -12 -7 7 65 67 81 67 8 0 15 -8 15 -19z"/>
<path d="M14729 8066 c-31 -15 -87 -98 -95 -142 -10 -52 16 -86 64 -82 26 2
38 8 40 21 3 14 -3 17 -30 15 -30 -3 -33 0 -36 25 -4 36 9 51 58 66 49 14 76
50 61 79 -14 27 -34 32 -62 18z m31 -36 c0 -9 -32 -30 -46 -30 -4 0 1 9 11 20
19 21 35 26 35 10z"/>
<path d="M4350 8059 c-96 -38 -187 -202 -225 -402 -19 -101 -19 -137 0 -137
23 0 36 35 51 139 20 130 21 135 40 116 9 -8 26 -15 38 -15 54 0 160 111 191
200 20 55 19 66 -5 90 -22 22 -51 24 -90 9z m70 -51 c-1 -56 -82 -173 -140
-203 -34 -18 -44 -7 -30 30 13 34 13 35 -7 36 -14 0 -13 2 5 9 24 10 29 26 10
32 -14 5 68 97 97 109 40 16 65 11 65 -13z"/>
<path d="M12242 8058 c-7 -7 -12 -18 -12 -26 0 -7 -14 -47 -31 -88 -29 -69
-32 -104 -11 -104 5 0 24 39 42 88 19 48 38 93 43 100 15 19 -14 47 -31 30z"/>
<path d="M12555 8003 c-38 -72 -100 -152 -110 -142 -3 4 -10 46 -16 95 -10 89
-21 117 -38 99 -5 -6 -4 -50 4 -109 10 -75 18 -103 34 -119 l21 -21 44 48 c24
27 59 74 78 106 32 55 34 57 68 53 25 -4 40 0 49 11 18 22 5 36 -28 30 -16 -4
-32 -1 -35 5 -16 25 -37 8 -71 -56z"/>
<path d="M6462 8050 c-29 -4 -59 -13 -67 -20 -24 -20 -18 -58 17 -107 30 -44
30 -47 13 -60 -11 -7 -33 -13 -51 -13 -24 0 -33 5 -37 22 -5 18 -8 19 -21 8
-22 -17 -20 -47 3 -55 33 -10 89 -8 120 4 47 20 48 44 6 108 -21 32 -33 59
-28 64 5 5 36 12 70 15 68 7 89 16 79 33 -8 12 -25 12 -104 1z"/>
<path d="M8525 8031 c-72 -41 -97 -108 -55 -146 24 -21 61 -14 108 21 l32 25
0 -30 c0 -33 27 -68 42 -53 5 5 4 20 -2 36 -8 22 -6 40 6 80 16 50 16 54 -2
74 -26 30 -69 28 -129 -7z m95 -25 c0 -20 -86 -96 -110 -96 -23 0 -28 36 -7
62 29 38 117 63 117 34z"/>
<path d="M6725 8031 c-39 -18 -76 -52 -108 -101 -25 -37 -22 -86 9 -117 23
-23 30 -25 82 -18 68 8 140 41 124 57 -7 7 -25 5 -58 -6 -94 -32 -152 -15
-138 41 5 18 12 20 43 16 60 -8 151 49 151 94 0 17 -36 53 -52 53 -7 0 -31 -9
-53 -19z m65 -36 c0 -21 -59 -55 -95 -55 l-30 1 37 34 c40 37 88 48 88 20z"/>
<path d="M11452 8028 c-24 -49 -33 -108 -22 -143 20 -62 87 -66 170 -11 60 40
92 136 48 144 -14 3 -18 -3 -18 -28 0 -45 -14 -66 -64 -95 -78 -45 -113 -27
-102 52 3 26 13 54 22 64 17 19 12 39 -10 39 -7 0 -18 -10 -24 -22z"/>
<path d="M5302 7985 c-47 -50 -53 -60 -50 -93 4 -55 34 -61 145 -33 92 23 114
34 97 51 -6 6 -41 1 -97 -15 -84 -23 -117 -24 -117 -4 0 5 8 12 18 15 72 23
142 69 142 93 0 18 -32 41 -58 41 -18 0 -41 -16 -80 -55z m77 -6 c-13 -10 -33
-20 -44 -23 -15 -4 -12 2 13 25 18 16 38 27 44 23 7 -4 2 -14 -13 -25z"/>
<path d="M5603 8005 c-41 -35 -83 -105 -83 -138 0 -33 30 -16 54 31 35 69 69
102 106 102 36 0 42 25 8 34 -37 9 -42 8 -85 -29z"/>
<path d="M8852 8024 c-18 -13 -26 -13 -38 -3 -18 15 -24 10 -69 -65 -49 -82
-46 -115 6 -60 31 33 140 116 146 110 2 -2 -3 -29 -12 -60 -19 -63 -14 -100 9
-75 18 19 48 133 40 153 -8 21 -53 21 -82 0z"/>
<path d="M2535 7995 c-43 -45 -46 -81 -8 -96 18 -7 36 -6 56 1 17 5 32 10 33
10 2 0 4 -30 4 -68 0 -76 1 -75 -107 -107 -62 -19 -97 -56 -88 -95 19 -77 81
-139 124 -125 32 10 69 61 86 118 31 102 32 331 2 370 -7 9 -24 19 -40 23 -23
5 -33 0 -62 -31z m55 -51 c-14 -16 -50 -19 -50 -4 0 6 12 23 28 38 l27 27 3
-23 c2 -13 -2 -30 -8 -38z m24 -241 c-18 -82 -27 -105 -49 -130 -23 -27 -24
-28 -52 -11 -34 20 -61 83 -46 107 5 9 37 26 69 37 81 29 86 29 78 -3z"/>
<path d="M4676 8015 c-8 -8 -21 -15 -30 -15 -24 0 -86 -107 -86 -149 0 -26 32
-51 67 -51 32 0 100 44 127 82 25 36 21 91 -10 122 -30 30 -46 32 -68 11z m50
-42 c7 -10 14 -26 14 -35 0 -25 -50 -79 -88 -95 -47 -20 -60 -6 -42 46 16 49
45 82 65 75 8 -4 17 1 21 10 8 20 14 20 30 -1z"/>
<path d="M14150 8005 c0 -8 9 -19 20 -25 43 -23 12 -108 -52 -141 -39 -20 -78
-25 -78 -10 0 16 83 103 107 112 27 10 26 32 -2 37 -21 5 -129 -104 -138 -138
-9 -34 27 -63 66 -54 65 14 113 50 144 108 17 33 11 87 -13 111 -20 19 -54 20
-54 0z"/>
<path d="M2277 7883 c-13 -13 -7 -24 20 -34 36 -13 57 6 29 27 -21 15 -39 18
-49 7z"/>
<path d="M2790 7835 c-17 -18 -21 -28 -13 -36 8 -8 21 -4 46 17 20 15 33 32
31 36 -10 16 -41 8 -64 -17z"/>
<path d="M5828 7835 c-32 -18 -34 -27 -12 -46 14 -11 18 -11 29 4 10 13 28 17
88 17 43 0 79 5 82 11 10 16 7 17 -80 23 -62 5 -86 3 -107 -9z"/>
<path d="M13255 7828 c-17 -5 -61 -12 -100 -16 -51 -5 -70 -11 -70 -22 0 -22
45 -28 105 -12 30 8 80 17 110 21 30 3 55 10 55 16 0 14 -66 23 -100 13z"/>
<path d="M15080 7823 c-46 -7 -53 -12 -41 -26 8 -11 25 -12 73 -5 35 5 79 6
99 3 39 -7 63 10 38 26 -14 9 -121 10 -169 2z"/>
<path d="M9412 7719 c-23 -12 -66 -45 -96 -75 -51 -51 -52 -52 -48 -24 6 39
-4 61 -22 54 -18 -7 -36 -56 -30 -81 8 -28 -30 -115 -93 -220 -51 -86 -59
-113 -30 -113 14 0 55 63 102 153 62 123 158 236 232 275 28 15 30 15 36 -3
11 -27 -25 -120 -74 -192 -49 -72 -60 -103 -36 -103 12 0 36 19 105 81 l32 29
0 -35 c0 -23 8 -43 22 -57 13 -13 21 -32 20 -45 -8 -56 57 -90 144 -77 75 11
74 39 -2 35 -74 -3 -104 7 -104 34 0 20 7 26 38 34 45 13 79 42 88 76 8 32 -4
65 -23 65 -27 0 -81 -40 -104 -76 -14 -24 -25 -32 -32 -25 -12 12 -14 56 -4
94 6 21 4 29 -9 34 -9 3 -19 2 -23 -3 -3 -5 -19 -20 -34 -34 l-29 -25 27 52
c35 71 44 147 20 173 -22 25 -21 25 -73 -1z m233 -269 c-9 -10 -25 -20 -35
-23 -17 -4 -18 -2 -10 13 14 26 54 53 58 40 2 -6 -3 -19 -13 -30z"/>
<path d="M17116 7678 c-8 -18 -20 -51 -28 -72 -11 -34 -19 -41 -61 -53 -35
-10 -47 -19 -47 -33 0 -25 20 -37 34 -18 9 12 47 33 46 25 -1 -1 -14 -51 -31
-112 -16 -60 -32 -120 -36 -132 -8 -32 21 -30 35 2 6 14 21 62 32 108 38 152
34 144 98 157 77 15 112 30 112 46 0 17 5 17 -76 -1 -36 -9 -68 -14 -71 -12
-2 3 3 24 12 48 21 57 23 71 8 76 -7 3 -19 -10 -27 -29z"/>
<path d="M14806 7652 c-9 -27 -32 -75 -52 -107 -72 -121 -95 -205 -56 -205 14
0 19 8 19 28 0 15 14 55 31 88 69 130 93 183 95 209 3 47 -20 39 -37 -13z"/>
<path d="M6217 7683 c-3 -5 -8 -26 -12 -48 -4 -22 -15 -57 -24 -77 -13 -32
-21 -37 -51 -40 -40 -3 -50 -31 -12 -36 26 -4 24 -18 -9 -84 -25 -48 -30 -133
-9 -133 10 0 17 15 21 47 10 64 58 168 78 168 9 0 23 4 31 10 12 8 12 11 -3
28 -16 17 -16 22 -3 54 19 45 24 110 9 115 -6 2 -13 0 -16 -4z"/>
<path d="M14405 7588 c-21 -57 -44 -116 -52 -132 -14 -26 -14 -31 -1 -40 10
-8 14 -22 10 -45 -8 -58 46 -68 138 -25 88 40 141 118 105 153 -20 20 -93 18
-156 -3 -24 -8 -44 -14 -45 -13 -1 1 13 40 33 87 49 120 49 120 25 120 -16 0
-27 -19 -57 -102z m175 -120 c0 -33 -73 -89 -143 -109 -39 -11 -49 -4 -35 27
9 20 9 27 -1 33 -9 6 -5 12 12 24 50 33 167 50 167 25z"/>
<path d="M16377 7663 c-2 -4 -10 -26 -17 -48 -7 -22 -21 -57 -32 -78 l-19 -39
-76 3 c-54 3 -78 0 -81 -9 -6 -19 48 -34 100 -27 l48 6 -21 -53 c-35 -87 -42
-109 -36 -115 16 -15 36 12 65 88 l31 84 54 16 54 16 -25 -50 c-14 -28 -27
-70 -30 -94 -6 -54 9 -56 71 -9 47 36 81 56 94 56 4 0 8 -21 8 -47 0 -37 4
-48 18 -51 18 -4 38 29 20 35 -7 3 -8 17 -2 44 5 22 7 44 4 50 -15 24 -95 0
-142 -44 -49 -44 -38 -8 46 150 31 59 38 111 16 116 -5 1 -23 -22 -40 -52 -20
-37 -42 -60 -67 -73 -52 -27 -60 -20 -38 30 23 52 29 93 13 99 -6 2 -13 0 -16
-4z"/>
<path d="M14025 7650 c-11 -18 6 -30 41 -30 28 0 35 4 32 17 -4 19 -63 30 -73
13z"/>
<path d="M5116 7529 c-66 -73 -117 -169 -181 -342 -36 -97 -45 -131 -36 -140
19 -19 46 19 85 123 64 164 58 156 103 152 33 -3 46 2 88 37 60 50 85 92 85
146 0 53 -23 85 -60 85 -22 0 -40 -13 -84 -61z m102 19 c29 -29 3 -107 -51
-151 -55 -45 -83 -54 -91 -29 -10 29 20 89 71 143 50 53 53 55 71 37z"/>
<path d="M10798 7547 c-85 -44 -87 -61 -14 -137 31 -32 56 -63 56 -68 0 -14
-25 -32 -59 -42 -24 -7 -35 -4 -55 11 -29 23 -46 24 -46 5 0 -21 49 -56 78
-56 37 0 110 38 117 60 8 26 -8 54 -67 117 l-50 52 49 24 c72 37 95 38 111 5
7 -16 20 -28 29 -28 12 0 14 6 8 28 -17 70 -62 78 -157 29z"/>
<path d="M5712 7544 c-87 -43 -180 -172 -131 -182 11 -2 30 19 58 62 43 68 95
106 145 106 29 0 44 19 25 31 -22 14 -42 11 -97 -17z"/>
<path d="M15193 7560 c-33 -13 -43 -42 -43 -119 0 -41 -4 -71 -10 -71 -5 0
-10 5 -10 10 0 6 -7 10 -16 10 -11 0 -14 -8 -12 -32 2 -27 8 -34 29 -36 41 -5
54 21 54 107 1 42 4 82 9 89 10 17 36 15 58 -5 15 -13 21 -14 31 -4 9 10 6 17
-16 37 -30 26 -40 28 -74 14z"/>
<path d="M14975 7551 c-11 -5 -29 -18 -39 -30 -11 -12 -31 -21 -47 -21 -33 0
-45 -15 -29 -35 9 -11 8 -19 -4 -37 -25 -35 -20 -73 12 -98 23 -18 35 -21 76
-15 62 8 92 23 77 38 -7 7 -18 7 -33 1 -13 -5 -41 -7 -63 -4 -34 4 -40 9 -43
32 -5 40 46 93 94 96 69 5 92 32 56 65 -20 19 -28 20 -57 8z m42 -207 c-3 -3
-12 -4 -19 -1 -8 3 -5 6 6 6 11 1 17 -2 13 -5z"/>
<path d="M7875 7528 c-16 -12 -52 -42 -78 -67 -45 -43 -47 -44 -37 -17 7 19 7
33 1 39 -11 11 -31 1 -31 -17 0 -7 -14 -41 -31 -75 -23 -47 -28 -66 -20 -74 8
-8 35 13 106 83 52 52 95 92 95 89 0 -4 -7 -26 -15 -49 -20 -57 -19 -86 5
-110 33 -33 150 -19 150 18 0 15 -2 15 -10 2 -5 -8 -10 -10 -10 -4 0 7 -19 9
-54 6 -68 -5 -75 8 -41 92 41 102 31 128 -30 84z"/>
<path d="M5403 7503 c-18 -21 -41 -38 -51 -38 -9 0 -18 -8 -20 -17 -2 -10 2
-18 8 -18 7 0 8 -6 0 -19 -15 -30 -12 -56 10 -76 18 -16 25 -16 67 -5 60 16
98 39 86 51 -6 6 -26 4 -52 -6 -63 -22 -83 -20 -79 8 2 16 19 30 60 50 61 31
76 53 58 87 -16 30 -48 24 -87 -17z m47 -18 c-7 -8 -17 -15 -22 -15 -6 0 -5 7
2 15 7 8 17 15 22 15 6 0 5 -7 -2 -15z"/>
<path d="M6410 7533 c-8 -3 -34 -19 -56 -35 -68 -49 -85 -142 -32 -181 23 -17
34 -18 84 -11 65 10 79 28 38 46 -22 10 -28 10 -32 0 -5 -17 -67 -15 -82 4
-22 26 -1 67 40 77 93 24 112 42 85 83 -16 25 -20 26 -45 17z m15 -43 c-3 -5
-11 -10 -16 -10 -6 0 -7 5 -4 10 3 6 11 10 16 10 6 0 7 -4 4 -10z"/>
<path d="M11415 7526 c-17 -7 -52 -34 -78 -60 -41 -41 -46 -44 -37 -20 13 33
-2 56 -22 36 -12 -12 -48 -120 -51 -156 -3 -30 20 -30 37 1 17 33 141 163 156
163 15 0 12 -35 -5 -76 -27 -65 -3 -71 59 -14 l43 39 22 -29 c12 -17 28 -30
36 -30 10 0 15 -10 15 -29 0 -16 7 -34 15 -41 40 -33 215 10 191 48 -3 5 -29
1 -58 -9 -58 -20 -104 -24 -112 -10 -8 12 4 41 16 41 6 0 31 10 55 22 47 23
77 66 67 92 -11 30 -51 17 -108 -35 -47 -42 -58 -49 -75 -40 -11 6 -22 24 -26
41 -8 36 -18 37 -59 6 l-31 -23 3 36 c5 49 -12 64 -53 47z m305 -70 c0 -2 -7
-7 -16 -10 -8 -3 -12 -2 -9 4 6 10 25 14 25 6z"/>
<path d="M13150 7443 c0 -106 12 -146 47 -151 25 -4 74 52 106 121 14 31 30
50 45 53 36 10 28 36 -10 32 -28 -3 -35 -11 -64 -67 -32 -62 -69 -110 -78
-100 -2 2 -6 49 -9 104 -3 83 -7 101 -20 103 -15 3 -17 -9 -17 -95z"/>
<path d="M7548 7497 c-51 -26 -74 -75 -64 -132 15 -79 92 -80 161 -3 33 36 36
44 30 77 -14 78 -52 95 -127 58z m69 -42 c12 0 19 -9 21 -26 4 -33 -58 -92
-91 -87 -24 3 -34 40 -23 84 8 28 57 58 68 41 4 -7 15 -12 25 -12z"/>
<path d="M16742 7458 c-77 -76 -67 -115 22 -85 l45 15 3 -36 c2 -26 8 -38 21
-40 20 -4 35 27 18 37 -9 6 -9 15 -1 35 23 60 10 68 -61 37 -24 -11 -46 -18
-48 -15 -9 8 62 62 75 57 18 -7 28 16 14 32 -20 24 -33 18 -88 -37z"/>
<path d="M13785 7482 c-49 -30 -95 -89 -95 -122 0 -37 25 -41 34 -5 10 41 79
105 112 105 35 0 59 14 50 29 -11 17 -68 13 -101 -7z"/>
<path d="M4825 7480 c-36 -15 -102 -79 -119 -115 -16 -33 -16 -38 -2 -60 40
-61 112 -71 181 -24 66 45 83 113 43 165 -36 46 -57 54 -103 34z m50 -40 c81
-31 25 -149 -71 -150 -48 0 -80 27 -69 59 6 20 91 101 106 101 4 0 19 -4 34
-10z"/>
<path d="M5864 7480 c-29 -11 -84 -77 -84 -100 0 -35 33 -42 89 -20 51 20 51
20 51 0 0 -11 9 -29 20 -40 16 -16 25 -18 40 -10 11 6 20 20 20 31 0 17 -3 18
-20 9 -17 -9 -20 -8 -20 9 0 11 5 32 12 46 6 14 8 28 5 31 -4 4 -39 -7 -78
-25 -39 -18 -74 -29 -77 -26 -3 3 8 19 24 36 24 25 35 30 67 27 40 -4 45 2 21
26 -17 17 -38 19 -70 6z"/>
<path d="M13484 7471 c-38 -23 -84 -81 -84 -105 0 -28 27 -29 92 -5 45 16 63
19 66 11 2 -7 11 -19 19 -28 15 -14 17 -14 25 0 5 9 6 22 1 29 -4 6 -6 20 -5
30 5 28 -19 29 -88 2 -35 -14 -66 -25 -69 -25 -15 0 65 69 83 72 24 3 29 31 6
35 -8 2 -29 -5 -46 -16z"/>
<path d="M11055 7469 c-39 -22 -85 -73 -85 -95 0 -45 40 -50 127 -17 14 5 15
0 9 -36 l-6 -42 32 3 c24 2 32 7 29 18 -12 47 -12 72 3 95 32 49 8 77 -30 34
-21 -24 -89 -58 -117 -59 -14 0 -15 3 -5 19 16 27 65 53 102 55 20 1 31 7 31
16 0 19 -62 25 -90 9z"/>
<path d="M14100 7473 c-29 -11 -70 -57 -70 -78 0 -51 66 -60 143 -20 49 27 54
26 35 -4 -14 -23 -3 -53 19 -49 15 3 18 12 24 63 3 26 -10 65 -21 65 -5 0 -29
-13 -52 -29 -51 -35 -108 -50 -108 -28 0 23 34 47 71 50 44 3 47 31 4 34 -16
1 -37 -1 -45 -4z"/>
<path d="M13926 7448 c-30 -48 -49 -97 -42 -114 4 -10 10 -14 16 -8 17 17 69
128 64 136 -9 14 -23 9 -38 -14z"/>
<path d="M8695 7391 c-55 -14 -131 -59 -165 -97 -29 -34 -32 -42 -28 -89 4
-46 12 -62 68 -134 74 -95 80 -125 35 -171 -53 -55 -155 -91 -155 -54 0 11 -6
14 -22 9 -40 -12 -45 -25 -19 -46 28 -23 53 -24 115 -3 56 19 131 87 141 127
11 42 0 69 -67 158 -51 67 -63 89 -63 120 0 51 44 96 123 127 74 30 121 27
141 -9 13 -24 13 -29 -8 -60 -13 -19 -19 -25 -15 -14 12 32 10 88 -3 92 -14 5
-15 3 -34 -80 -14 -64 -6 -84 30 -72 30 9 71 74 71 112 0 65 -67 104 -145 84z"/>
<path d="M4546 7248 c-2 -7 -17 -51 -34 -98 -17 -47 -34 -97 -37 -112 -7 -28
-20 -33 -100 -40 -19 -2 -30 -9 -30 -18 0 -12 11 -14 57 -12 l56 4 -9 -39
c-12 -52 -1 -153 17 -153 11 0 14 18 14 74 0 109 8 124 67 128 34 2 48 7 48
18 0 11 -11 14 -47 11 l-47 -2 40 115 c22 64 37 121 34 126 -9 14 -25 12 -29
-2z"/>
<path d="M10199 7258 c-1 -2 -3 -22 -4 -45 -2 -23 -11 -66 -20 -94 -19 -57
-41 -71 -128 -84 -39 -6 -52 -4 -68 11 -15 14 -22 15 -32 5 -9 -10 -7 -16 12
-32 26 -21 85 -25 139 -10 38 11 40 5 13 -47 -23 -45 -62 -174 -55 -181 13
-13 39 20 50 64 7 27 27 80 44 119 27 63 36 74 79 97 l49 26 -18 -51 c-10 -28
-27 -76 -38 -106 -22 -58 -16 -90 15 -90 9 0 44 16 79 35 34 19 64 35 67 35 2
0 2 -19 0 -43 -4 -32 -1 -46 11 -56 22 -18 45 1 28 22 -8 9 -9 24 -2 48 15 51
13 79 -6 79 -9 0 -50 -18 -91 -41 -41 -23 -76 -39 -79 -36 -5 5 41 126 86 227
36 80 41 113 18 118 -11 2 -18 -6 -23 -26 -6 -30 -53 -81 -92 -101 -31 -16
-34 -14 -22 17 19 49 28 126 15 134 -11 8 -25 10 -27 6z"/>
<path d="M7140 7219 c0 -40 16 -69 39 -69 27 0 32 24 10 43 -10 9 -19 23 -19
31 0 8 -7 16 -15 20 -11 4 -15 -2 -15 -25z"/>
<path d="M7241 7221 c-30 -42 -27 -77 8 -96 23 -11 36 -12 60 -4 34 12 40 26
16 36 -22 8 -33 -6 -15 -17 8 -6 11 -10 7 -10 -6 0 -46 22 -66 37 -3 2 5 17
18 33 20 29 21 50 1 50 -5 0 -18 -13 -29 -29z"/>
<path d="M5546 7198 c-38 -44 -45 -78 -21 -98 13 -10 19 -10 35 5 24 22 26 35
5 35 -25 0 -17 17 20 47 19 15 35 34 35 41 0 26 -40 10 -74 -30z"/>
<path d="M14351 7223 c-5 -10 -17 -46 -26 -80 -10 -35 -23 -67 -29 -72 -11 -9
-100 -15 -141 -9 -12 2 -20 -3 -20 -12 0 -18 67 -33 116 -26 l37 6 -29 -93
c-16 -50 -32 -111 -35 -135 -4 -38 -3 -43 13 -40 13 2 20 16 24 48 4 25 20 85
36 134 l28 89 98 32 c53 18 97 29 97 26 -1 -9 -61 -118 -99 -178 -29 -46 -34
-73 -13 -73 4 0 45 25 92 55 81 53 138 71 127 41 -12 -32 -18 -104 -9 -110 17
-10 31 18 38 77 12 104 -36 114 -158 33 -24 -16 -19 -2 43 119 39 75 68 142
66 148 -7 21 -25 13 -49 -23 -24 -35 -109 -79 -185 -95 l-33 -7 15 43 c8 23
22 47 31 53 12 9 13 17 5 39 -12 31 -26 35 -40 10z"/>
<path d="M15915 7181 l-27 -59 -77 -18 c-42 -10 -82 -18 -90 -18 -21 -1 -25
-25 -7 -32 9 -4 45 1 81 10 35 9 67 16 69 16 3 0 -1 -17 -10 -39 -8 -21 -30
-89 -49 -150 -29 -96 -31 -113 -18 -118 16 -6 33 12 33 38 0 15 57 195 81 254
9 23 25 35 68 53 31 13 62 26 69 29 10 4 12 -3 6 -33 -10 -61 -30 -100 -79
-163 -84 -107 -53 -109 102 -4 l115 77 28 -34 c22 -27 26 -39 19 -58 -27 -71
0 -97 113 -107 l77 -7 7 27 c8 30 -1 44 -18 27 -14 -14 -116 -16 -136 -3 -8 4
-12 21 -10 36 3 26 9 30 63 42 69 16 105 45 105 84 0 60 -64 58 -131 -3 -40
-37 -44 -38 -56 -21 -29 39 -43 53 -58 53 -8 0 -52 -25 -97 -56 -46 -31 -75
-47 -65 -36 44 49 74 191 45 220 -8 8 -25 4 -67 -18 -30 -16 -56 -28 -58 -26
-2 2 4 20 12 40 15 36 13 56 -5 56 -5 0 -21 -27 -35 -59z m479 -150 c9 -13
-26 -38 -64 -45 l-35 -7 35 30 c36 31 55 38 64 22z"/>
<path d="M6662 7218 c-7 -7 -12 -18 -12 -26 0 -8 -8 -36 -17 -63 -16 -45 -20
-49 -51 -49 -35 0 -53 -23 -33 -43 8 -8 14 -8 23 1 7 7 19 12 28 12 14 0 18
-16 23 -95 7 -97 21 -145 38 -128 6 6 6 43 -1 99 -5 49 -10 95 -10 103 0 11
16 12 84 6 59 -5 86 -3 91 5 11 18 4 20 -84 27 -92 7 -91 5 -64 90 17 55 10
86 -15 61z"/>
<path d="M15097 7167 c-8 -17 -20 -49 -28 -70 -12 -33 -23 -43 -76 -68 -65
-31 -81 -45 -66 -60 6 -6 26 0 54 16 24 13 47 25 51 25 10 0 -32 -141 -53
-178 -22 -38 -17 -57 11 -42 20 11 50 82 70 168 13 58 19 63 70 72 22 3 36 12
38 23 4 19 -30 37 -36 19 -2 -7 -12 -12 -22 -12 -17 0 -17 2 2 53 11 28 24 56
29 62 15 15 10 25 -11 25 -13 0 -24 -11 -33 -33z"/>
<path d="M5631 7176 c-20 -24 -19 -70 2 -74 11 -2 17 3 17 15 0 11 7 28 15 39
8 10 15 22 15 27 0 13 -37 8 -49 -7z"/>
<path d="M5985 7128 c-36 -19 -65 -51 -65 -70 0 -10 22 -40 49 -66 83 -80 90
-119 20 -108 -54 9 -91 27 -85 42 8 20 -14 28 -31 11 -44 -44 92 -109 175 -83
16 5 22 15 22 37 0 41 -21 77 -69 121 -23 20 -41 41 -41 47 0 15 60 51 83 51
10 0 30 -12 44 -26 19 -19 28 -23 34 -13 10 16 -5 45 -31 59 -24 13 -80 12
-105 -2z"/>
<path d="M10623 7104 c-6 -16 14 -36 31 -31 19 6 17 26 -4 37 -16 9 -22 8 -27
-6z"/>
<path d="M13139 7097 c-27 -21 -79 -99 -79 -120 0 -11 12 -40 26 -64 20 -34
23 -47 14 -58 -17 -20 -99 -46 -126 -39 -28 7 -31 -7 -8 -30 26 -27 76 -20
126 18 60 46 64 60 33 112 -14 23 -25 51 -25 60 0 31 51 94 83 102 17 4 32 13
34 18 5 15 -59 15 -78 1z"/>
<path d="M2545 7086 c-16 -7 -41 -25 -54 -39 -13 -14 -29 -23 -37 -20 -8 3
-18 -6 -25 -24 -6 -15 -21 -50 -34 -78 -33 -70 -40 -115 -21 -140 16 -20 16
-20 31 -1 8 10 22 53 31 94 14 65 23 83 62 124 44 47 69 60 121 62 16 1 26 7
26 16 0 20 -61 24 -100 6z"/>
<path d="M3750 7083 c-39 -27 -41 -34 -36 -106 5 -65 3 -70 -21 -93 -33 -31
-69 -40 -89 -24 -12 10 -17 11 -27 1 -9 -10 -7 -17 12 -32 29 -24 59 -19 112
17 50 34 61 63 48 124 -13 59 -1 87 38 92 17 2 28 9 28 18 0 22 -36 23 -65 3z"/>
<path d="M3295 7066 c-48 -21 -121 -108 -134 -160 -12 -49 -8 -71 16 -81 24
-8 39 11 24 29 -8 9 -10 27 -6 45 9 42 88 127 131 141 19 7 33 17 31 23 -5 17
-28 18 -62 3z"/>
<path d="M6947 7073 c-33 -5 -61 -44 -52 -72 3 -12 33 -41 66 -66 32 -26 59
-50 59 -55 0 -5 -16 -14 -36 -20 -34 -12 -63 -10 -111 5 -17 6 -23 3 -23 -8 0
-54 183 -45 204 9 9 24 -10 51 -69 94 -30 22 -55 47 -55 55 0 20 47 30 66 15
12 -10 17 -11 27 -1 9 10 7 17 -12 32 -13 10 -26 18 -30 18 -3 -1 -18 -4 -34
-6z"/>
<path d="M12219 7030 c-29 -27 -57 -47 -62 -43 -5 3 -15 21 -23 39 -8 19 -20
34 -27 34 -8 0 -37 -29 -66 -65 -29 -36 -55 -65 -58 -65 -2 0 -1 25 2 55 12
94 -16 104 -94 31 -24 -23 -41 -36 -38 -31 3 6 1 17 -4 25 -8 13 -12 12 -24
-4 -21 -27 -76 -176 -69 -187 11 -18 24 -8 44 31 11 22 50 71 86 108 l65 67
-3 -70 c-3 -58 0 -70 13 -73 16 -3 129 102 129 120 0 4 5 8 10 8 6 0 10 -7 10
-15 0 -8 9 -22 20 -33 17 -16 18 -22 8 -54 -14 -48 -4 -86 26 -94 14 -3 51 2
83 13 46 14 58 22 58 39 0 11 6 28 13 36 18 22 0 31 -32 17 -27 -13 -36 -38
-13 -40 19 -1 -55 -27 -80 -28 -28 -1 -32 7 -21 46 7 25 18 37 56 53 66 29 92
57 92 97 0 50 -35 45 -101 -17z m56 -10 c-3 -5 -16 -15 -28 -21 -22 -12 -22
-12 -3 10 19 21 43 30 31 11z"/>
<path d="M6224 7051 c-103 -63 -113 -180 -19 -211 71 -23 268 21 236 53 -7 7
-19 6 -38 -2 -15 -7 -66 -15 -114 -18 -85 -6 -87 -5 -104 21 -11 16 -15 35
-11 50 5 20 14 25 58 31 79 10 88 14 88 40 0 23 -32 55 -55 55 -5 0 -24 -9
-41 -19z m56 -31 c0 -5 -12 -10 -26 -10 -14 0 -23 4 -19 10 3 6 15 10 26 10
10 0 19 -4 19 -10z"/>
<path d="M2998 7018 c-18 -24 -40 -43 -48 -43 -10 0 -15 -10 -16 -30 -1 -16
-10 -50 -21 -75 -31 -71 -83 -265 -76 -289 3 -13 12 -21 21 -19 15 3 22 20 57
144 14 50 29 74 81 129 73 77 110 157 94 200 -15 40 -53 33 -92 -17z m62 -10
c-1 -25 -38 -94 -73 -133 l-36 -40 14 48 c22 73 96 171 95 125z"/>
<path d="M12540 7053 c-23 -9 -70 -55 -86 -85 -18 -35 -18 -82 1 -98 15 -12
45 -8 103 16 8 4 12 -4 12 -24 0 -34 22 -57 46 -48 15 6 15 8 0 25 -22 24 -12
67 28 125 28 42 35 86 12 86 -8 0 -29 -25 -46 -55 -22 -39 -44 -62 -70 -75
-70 -36 -87 -23 -50 37 22 37 61 65 93 67 31 1 28 31 -3 33 -14 1 -32 -1 -40
-4z"/>
<path d="M3400 7024 c-41 -35 -60 -74 -60 -123 0 -52 30 -75 87 -66 51 8 58
17 34 46 -21 24 -21 24 -27 3 -9 -33 -58 -18 -62 19 -2 19 1 26 10 22 18 -6
99 36 115 60 11 18 10 24 -3 43 -20 29 -56 28 -94 -4z m70 -19 c0 -7 -63 -45
-74 -45 -5 0 1 11 14 25 20 22 60 35 60 20z"/>
<path d="M12792 7037 c-6 -6 -20 -37 -32 -67 -12 -30 -33 -74 -46 -98 -23 -38
-23 -43 -8 -49 12 -4 26 5 48 33 50 63 132 144 145 144 16 0 8 -57 -16 -113
-13 -29 -14 -40 -5 -49 14 -14 44 10 48 39 1 10 7 45 13 77 17 95 -14 112 -93
51 -48 -36 -57 -35 -30 3 22 32 1 59 -24 29z"/>
<path d="M3888 7003 c-72 -76 -93 -159 -48 -195 25 -20 65 -19 116 4 24 11 34
38 14 38 -5 0 -10 -3 -10 -7 0 -5 -24 -8 -53 -8 -49 0 -52 1 -55 27 -3 22 2
30 25 40 69 29 112 95 81 126 -19 19 -32 15 -70 -25z m42 -16 c0 -2 -12 -14
-27 -28 l-28 -24 24 28 c23 25 31 32 31 24z"/>
<path d="M2676 6978 c-52 -60 -60 -104 -26 -138 31 -31 153 -19 167 16 7 20
-3 29 -19 17 -16 -12 -95 -24 -114 -16 -8 3 -14 15 -14 27 0 15 16 30 60 54
60 33 73 55 48 80 -25 25 -56 13 -102 -40z m74 18 c0 -2 -8 -10 -17 -17 -16
-13 -17 -12 -4 4 13 16 21 21 21 13z"/>
<path d="M4162 6985 c-19 -15 -33 -21 -37 -15 -14 22 -32 7 -63 -56 -25 -48
-31 -69 -23 -77 8 -8 27 6 69 51 32 34 61 62 66 62 4 0 4 -24 0 -52 -10 -70
-7 -99 12 -118 14 -13 17 -13 30 4 18 25 18 36 -1 36 -13 0 -15 9 -9 53 4 28
11 62 15 75 24 64 -6 82 -59 37z"/>
<path d="M14758 6956 c-50 -47 -58 -59 -58 -90 0 -30 3 -36 22 -36 12 0 40 11
62 24 l41 24 -3 -60 c-3 -52 -2 -59 13 -56 13 2 18 15 20 48 1 25 6 57 10 72
11 42 -18 47 -77 14 -83 -47 -70 -18 26 61 35 29 42 53 13 53 -7 0 -38 -25
-69 -54z"/>
<path d="M10695 6981 c-3 -6 0 -38 7 -72 l12 -61 -27 -24 c-16 -13 -37 -24
-48 -24 -23 0 -25 -25 -3 -34 21 -8 71 21 97 56 19 25 19 30 6 94 -14 64 -30
87 -44 65z"/>
<path d="M8821 6934 c-30 -68 -27 -90 15 -112 44 -23 141 31 132 74 -3 19 -67
67 -105 78 -19 6 -25 0 -42 -40z m89 -24 l25 -20 -24 -21 c-31 -26 -65 -21
-69 9 -4 25 13 52 32 52 6 0 22 -9 36 -20z"/>
<path d="M10577 6973 c-2 -5 -10 -28 -17 -53 -7 -25 -20 -52 -28 -62 -12 -14
-11 -20 3 -42 26 -39 45 -33 45 13 0 21 7 58 15 82 9 24 13 49 11 56 -6 14
-23 17 -29 6z"/>
<path d="M7120 6830 c-54 -21 -61 -46 -12 -42 35 2 95 40 86 54 -7 11 -22 9
-74 -12z"/>
<path d="M11319 6826 c-120 -49 -150 -91 -130 -180 6 -29 22 -68 35 -87 33
-50 56 -114 56 -159 0 -83 -107 -143 -160 -90 -27 27 -40 63 -33 90 5 18 2 21
-13 18 -31 -5 -30 -59 2 -107 19 -30 38 -44 67 -53 36 -11 44 -10 86 13 33 17
52 36 69 69 31 60 25 101 -32 215 -46 92 -56 139 -35 176 14 27 125 79 167 79
32 0 32 0 12 -20 -37 -37 -39 -100 -2 -100 54 0 83 99 42 140 -26 26 -62 25
-131 -4z"/>
<path d="M11949 6703 c-16 -42 -69 -166 -78 -183 -11 -21 -71 -31 -104 -18
-21 8 -31 8 -40 -1 -19 -20 20 -41 76 -41 43 0 48 -2 42 -17 -11 -28 -32 -105
-39 -140 -4 -25 -1 -35 13 -42 25 -14 31 -5 31 44 0 54 38 165 59 172 32 12
42 25 30 39 -6 8 -15 11 -20 8 -12 -7 26 89 57 145 13 24 21 47 18 52 -11 18
-35 8 -45 -18z"/>
<path d="M1976 6702 c-3 -4 -1 -26 4 -48 5 -21 10 -72 10 -112 0 -57 -5 -83
-24 -120 -27 -54 -106 -132 -134 -132 -42 0 -56 51 -23 91 13 16 33 24 67 28
34 4 49 10 49 21 0 21 -86 16 -121 -7 -62 -40 -64 -141 -3 -162 41 -14 84 6
138 64 73 79 86 115 86 244 0 82 -4 118 -13 128 -15 15 -29 17 -36 5z"/>
<path d="M10413 6693 c-3 -10 -19 -49 -35 -86 -16 -38 -28 -75 -26 -84 4 -24
27 -28 34 -6 3 10 19 53 35 96 16 43 27 82 24 87 -10 16 -25 12 -32 -7z"/>
<path d="M12243 6635 c-28 -56 -35 -77 -26 -86 17 -17 43 -3 43 23 0 23 34 88
52 99 12 8 -1 39 -17 39 -8 0 -31 -34 -52 -75z"/>
<path d="M12340 6674 c-19 -50 -32 -114 -26 -129 10 -26 35 -17 34 13 0 15 7
49 16 76 8 27 13 53 10 58 -10 15 -25 8 -34 -18z"/>
<path d="M8227 6683 c-2 -5 -7 -20 -10 -34 -5 -20 -17 -29 -60 -42 -66 -21
-96 -42 -81 -56 7 -8 19 -7 40 3 37 18 74 29 74 22 0 -15 -61 -190 -70 -201
-7 -9 -7 -21 0 -39 12 -32 40 -35 40 -3 0 28 34 146 61 214 20 50 23 53 82 72
76 26 97 27 97 2 0 -10 -25 -74 -56 -140 -31 -67 -53 -128 -50 -136 10 -28 43
-15 108 45 64 58 66 59 83 40 10 -11 25 -22 34 -25 12 -4 15 -15 13 -54 -4
-55 7 -84 43 -107 23 -15 31 -15 99 1 73 16 129 46 114 60 -4 4 -38 -2 -76
-14 -38 -13 -82 -21 -98 -19 -59 6 -71 110 -14 121 15 4 44 22 64 41 32 30 37
40 34 73 -3 32 -7 38 -29 41 -20 2 -35 -7 -65 -41 -21 -24 -44 -52 -49 -62
-10 -17 -13 -16 -47 14 -20 17 -40 31 -45 31 -5 0 -33 -25 -63 -55 -29 -30
-55 -53 -57 -51 -2 2 19 53 47 113 27 61 50 117 50 125 0 9 -9 26 -19 39 -18
23 -21 23 -67 10 -88 -25 -92 -25 -99 -2 -6 21 -20 28 -28 14z m436 -193 c-5
-18 -52 -60 -67 -60 -11 0 16 43 38 62 28 23 35 22 29 -2z"/>
<path d="M10282 6634 c-42 -73 -49 -102 -28 -110 21 -8 49 15 42 33 -7 18 29
89 51 102 16 9 16 12 3 21 -26 17 -35 11 -68 -46z"/>
<path d="M13702 6644 c-5 -11 -19 -62 -31 -115 -14 -59 -33 -114 -51 -142 -28
-44 -112 -112 -124 -100 -23 24 24 95 65 97 33 1 32 30 -2 34 -57 7 -121 -85
-100 -142 17 -42 57 -35 123 22 65 56 100 119 124 222 9 41 21 83 26 94 7 13
6 22 -5 33 -13 14 -16 13 -25 -3z"/>
<path d="M14175 6627 c-29 -71 -106 -339 -101 -353 11 -29 33 -14 39 25 6 51
87 301 102 321 7 8 10 21 8 28 -9 23 -34 12 -48 -21z"/>
<path d="M6920 6523 c-29 -21 -50 -43 -90 -100 -76 -106 -37 -194 79 -179 101
14 141 28 141 51 0 12 5 26 12 33 8 8 9 15 2 22 -12 12 -54 -15 -54 -35 0 -32
-146 -48 -174 -19 -29 28 1 102 34 84 27 -14 85 7 114 41 20 23 24 37 19 62
-11 59 -37 72 -83 40z m50 -47 c0 -40 -76 -86 -94 -58 -7 12 60 82 78 82 10 0
16 -9 16 -24z"/>
<path d="M11508 6490 c-22 -22 -43 -40 -47 -40 -4 0 -13 -21 -19 -47 -12 -42
-11 -50 6 -72 10 -14 31 -28 47 -33 32 -8 105 0 105 12 0 4 9 10 20 13 32 8
25 30 -7 23 -72 -17 -119 -18 -132 -2 -19 23 -6 66 20 66 24 0 91 33 108 54 8
9 11 26 7 41 -10 41 -59 34 -108 -15z m72 0 c0 -5 -15 -17 -32 -25 l-33 -16
28 25 c31 28 37 31 37 16z"/>
<path d="M12970 6508 c-19 -13 -43 -21 -55 -20 -15 2 -24 -8 -39 -44 -11 -26
-32 -62 -49 -81 -28 -32 -32 -69 -5 -57 7 3 42 39 77 80 35 41 73 80 83 85 22
12 23 15 -22 -73 -14 -26 -21 -50 -18 -54 14 -13 54 6 116 56 34 28 62 49 62
47 0 -2 -9 -29 -20 -61 -10 -31 -17 -63 -13 -71 8 -21 33 -18 33 4 0 10 7 35
15 54 8 20 15 55 15 77 0 52 -19 53 -85 0 -27 -21 -51 -38 -52 -36 -2 1 5 21
14 44 13 34 13 44 3 57 -16 19 -18 19 -60 -7z"/>
<path d="M14345 6470 c-40 -39 -65 -72 -69 -91 -7 -35 14 -83 43 -99 26 -14
147 -13 174 1 29 16 28 14 21 32 -5 15 -8 15 -30 0 -34 -22 -141 -14 -161 13
-22 30 -12 57 22 64 47 10 113 48 120 69 9 29 -11 71 -36 71 -12 0 -47 -25
-84 -60z m85 7 c0 -12 -49 -47 -66 -47 -4 0 5 14 21 30 31 32 45 38 45 17z"/>
<path d="M2163 6498 c-79 -84 -67 -188 23 -218 47 -16 125 -5 117 16 -4 10 0
12 13 7 11 -4 15 -3 11 4 -4 6 -32 9 -69 6 -52 -4 -67 -2 -85 13 -39 34 -38
58 7 109 41 48 48 77 19 83 -8 1 -25 -8 -36 -20z"/>
<path d="M13917 6506 c-3 -8 -3 -23 0 -34 10 -38 -54 -121 -104 -137 -19 -5
-23 -3 -23 17 0 13 5 29 10 34 13 13 3 44 -14 44 -33 0 -46 -52 -27 -103 13
-33 34 -39 74 -22 70 29 137 134 123 191 -7 26 -31 32 -39 10z"/>
<path d="M15574 6481 c-36 -27 -51 -34 -50 -23 2 23 -33 27 -40 5 -4 -10 -24
-39 -45 -65 -22 -26 -39 -51 -39 -57 0 -33 37 -14 157 84 l32 26 -14 -35 c-21
-50 -19 -99 6 -130 25 -31 56 -33 108 -7 49 26 68 48 53 63 -9 9 -18 6 -36
-11 -16 -16 -38 -24 -63 -25 -38 -1 -38 -1 -41 42 -2 33 4 55 27 96 17 29 31
59 31 65 0 22 -36 10 -86 -28z"/>
<path d="M4044 6502 c-17 -11 -44 -89 -44 -126 0 -52 40 -80 102 -73 26 4 57
11 68 17 37 20 11 31 -55 24 -58 -6 -64 -5 -75 16 -10 18 -9 31 5 67 15 39 20
44 41 39 29 -8 39 8 18 28 -16 17 -42 20 -60 8z"/>
<path d="M6660 6485 c-21 -22 -24 -34 -21 -78 5 -68 4 -118 -3 -125 -3 -3 -15
3 -26 13 -31 28 -43 6 -19 -33 24 -37 39 -40 65 -11 16 18 19 37 19 113 0 84
2 92 22 101 12 5 24 17 26 27 8 28 -35 23 -63 -7z"/>
<path d="M2513 6438 c-12 -73 -37 -138 -53 -138 -17 0 -32 50 -34 110 -2 41
-6 55 -17 55 -24 0 -18 -138 8 -173 45 -60 90 -28 119 87 17 66 19 69 42 60
27 -10 58 -12 49 -2 -4 3 -2 12 4 20 9 10 6 13 -12 13 -13 0 -37 7 -53 15 -15
8 -31 15 -35 15 -4 0 -12 -28 -18 -62z"/>
<path d="M6346 6472 c-18 -34 -104 -122 -174 -177 -52 -40 -62 -58 -40 -71 6
-4 31 14 60 44 27 29 52 52 56 52 3 0 16 10 29 22 l23 21 0 -30 c0 -17 6 -36
14 -42 17 -15 36 -7 112 50 l52 38 -1 -34 c-1 -37 14 -62 31 -51 6 4 8 21 5
39 -3 19 2 49 11 71 9 21 16 42 16 47 0 21 -39 6 -71 -27 -18 -19 -55 -51 -81
-70 -56 -40 -60 -32 -23 58 14 34 25 67 25 75 0 24 -29 14 -44 -15z"/>
<path d="M4312 6483 c-18 -7 -52 -77 -52 -107 0 -16 9 -32 24 -42 23 -14 28
-14 71 5 25 11 43 16 40 10 -4 -5 -3 -18 0 -30 5 -15 14 -19 33 -17 16 2 27 9
27 18 0 8 -6 14 -12 13 -16 -4 -16 9 -1 42 20 44 -6 48 -73 11 -43 -23 -61
-28 -69 -20 -16 16 13 71 46 86 13 6 23 16 21 22 -4 12 -35 18 -55 9z"/>
<path d="M4605 6443 c-11 -21 -40 -59 -64 -85 -27 -29 -41 -53 -38 -63 4 -8
13 -12 20 -9 9 3 16 -3 20 -15 8 -32 19 -26 65 37 46 63 109 128 116 121 3 -3
-4 -40 -16 -82 -21 -78 -21 -78 -2 -98 18 -18 25 -19 71 -9 49 11 94 42 75 53
-4 3 -26 0 -48 -8 -76 -27 -90 -15 -59 58 24 59 18 137 -11 137 -7 0 -28 -13
-47 -29 l-33 -30 4 30 c7 44 -28 39 -53 -8z"/>
<path d="M13305 6436 c-22 -29 -45 -84 -45 -108 0 -4 11 -15 24 -23 21 -14 28
-14 58 -2 46 20 72 51 65 79 -4 12 -1 28 5 35 13 16 7 24 -21 26 -11 1 -23 7
-25 14 -9 23 -34 14 -61 -21z m60 -38 c6 -26 3 -35 -15 -50 -49 -39 -66 -11
-29 48 26 42 36 43 44 2z"/>
<path d="M15260 6422 c-19 -9 -41 -29 -50 -44 -13 -25 -13 -31 0 -55 22 -39
61 -49 107 -26 62 30 72 107 18 131 -33 15 -33 15 -75 -6z m52 -35 c20 -10 23
-17 17 -35 -9 -23 -49 -38 -74 -28 -22 8 -18 43 7 60 27 19 21 19 50 3z"/>
<path d="M2864 6223 c-3 -10 -12 -34 -19 -53 -7 -19 -18 -59 -25 -89 -11 -46
-17 -55 -46 -67 -18 -8 -49 -14 -68 -14 -21 0 -36 -6 -40 -15 -8 -23 19 -29
72 -17 26 6 48 9 49 8 4 -3 -36 -129 -48 -152 -14 -27 -8 -58 12 -62 11 -2 19
12 28 50 7 29 22 81 33 116 18 56 24 65 66 89 26 14 59 38 75 52 l27 25 -19
-54 c-10 -30 -31 -85 -45 -123 -47 -123 -29 -144 52 -64 112 110 172 94 127
-34 -9 -24 -13 -49 -11 -56 8 -19 36 -16 36 4 0 9 7 40 16 68 20 62 13 101
-21 117 -36 16 -87 2 -135 -40 -31 -26 -42 -31 -36 -17 5 11 26 69 47 128 50
145 39 174 -36 97 -22 -23 -55 -50 -73 -61 l-34 -19 7 32 c4 18 16 60 26 92
10 33 16 63 13 68 -9 14 -24 9 -30 -9z"/>
<path d="M2242 6148 c-5 -7 -24 -65 -41 -128 -17 -63 -36 -124 -42 -136 -6
-11 -9 -36 -7 -55 3 -31 8 -36 62 -57 53 -21 62 -22 94 -10 49 18 71 53 84
130 13 74 4 98 -37 98 -25 0 -89 -40 -116 -73 -9 -12 -21 -19 -25 -15 -10 11
33 168 51 188 19 21 20 70 1 70 -7 0 -18 -6 -24 -12z m113 -276 c-13 -68 -75
-100 -133 -69 l-23 13 37 47 c21 27 56 59 78 72 l41 25 3 -27 c2 -14 1 -42 -3
-61z"/>
<path d="M5842 6063 c-17 -54 -34 -110 -38 -125 -8 -35 -31 -36 -44 -3 -11 28
-28 33 -36 11 -8 -21 14 -56 41 -66 22 -8 23 -13 15 -35 -20 -53 -28 -134 -14
-146 16 -13 15 -16 39 96 l17 80 75 42 c85 48 83 55 27 -90 -53 -136 -35 -141
84 -24 93 89 103 89 82 2 -14 -59 -8 -88 16 -83 16 3 25 53 26 146 0 26 -18
52 -37 52 -7 0 -41 -26 -76 -59 l-64 -59 49 151 c47 144 51 175 21 180 -5 1
-16 -20 -23 -48 -8 -28 -28 -64 -45 -83 -31 -32 -105 -77 -114 -68 -2 2 11 51
30 108 19 56 33 106 30 111 -15 24 -33 -3 -61 -90z"/>
<path d="M4556 6125 c-3 -9 -6 -35 -6 -58 0 -27 -18 -87 -51 -167 -51 -127
-58 -172 -26 -178 14 -3 17 4 17 33 0 20 8 52 19 73 38 76 82 222 79 264 -3
43 -21 61 -32 33z"/>
<path d="M5640 6056 c0 -18 30 -30 43 -17 5 5 6 14 3 20 -10 16 -46 13 -46 -3z"/>
<path d="M6815 6009 c-90 -57 -97 -92 -35 -164 22 -25 40 -50 40 -55 0 -20
-82 -52 -116 -45 -27 5 -34 3 -34 -10 0 -37 67 -38 138 -1 63 33 62 64 -4 139
-40 44 -41 47 -11 74 47 43 76 56 92 43 23 -19 40 1 26 29 -16 29 -39 26 -96
-10z"/>
<path d="M5349 5930 c-38 -39 -69 -74 -69 -77 0 -3 -13 -35 -30 -70 -33 -69
-39 -113 -15 -113 8 0 15 5 15 10 0 6 17 45 37 88 33 70 124 192 143 192 4 0
11 -12 14 -26 9 -33 32 -25 29 10 -2 33 -19 56 -40 56 -9 0 -46 -32 -84 -70z"/>
<path d="M4291 5973 c-13 -9 -21 -11 -17 -5 12 20 -1 13 -34 -17 -27 -24 -29
-29 -14 -35 10 -4 24 0 35 10 10 9 33 19 51 23 19 4 33 13 33 21 0 21 -26 23
-54 3z"/>
<path d="M6350 5945 c-26 -27 -37 -32 -47 -23 -7 6 -15 9 -18 6 -15 -15 -111
-216 -107 -226 8 -24 21 -11 90 86 75 104 132 166 132 141 0 -8 -12 -48 -25
-89 -43 -130 -35 -131 92 -9 52 49 97 89 99 87 2 -2 -7 -37 -20 -77 -25 -80
-24 -110 4 -108 14 1 18 9 18 32 -1 16 10 65 22 108 37 123 13 125 -115 13
-40 -36 -66 -53 -61 -41 18 47 29 103 23 118 -11 28 -51 20 -87 -18z"/>
<path d="M4801 5913 c-17 -76 -31 -96 -80 -115 -49 -19 -57 -11 -40 40 20 62
37 81 77 84 44 4 52 31 10 36 -65 8 -133 -76 -126 -156 4 -50 26 -61 84 -39
l46 17 -6 -33 c-3 -17 -8 -51 -12 -73 l-6 -42 -63 6 c-60 4 -64 3 -80 -22 -14
-21 -17 -41 -13 -99 5 -77 22 -123 51 -141 29 -17 91 58 119 145 l22 68 45 3
c33 2 47 8 49 19 2 13 -5 16 -37 15 -22 0 -43 3 -47 7 -11 11 14 174 31 208
19 36 20 129 2 129 -9 0 -19 -22 -26 -57z m-61 -333 c0 -56 -77 -190 -93 -163
-13 21 -28 127 -22 153 6 29 9 30 61 30 47 0 54 -3 54 -20z"/>
<path d="M5035 5960 c-8 -13 3 -30 20 -30 18 0 39 -64 31 -95 -14 -55 -147
-87 -154 -38 -4 25 28 76 67 110 23 19 24 22 9 28 -27 11 -43 0 -77 -49 -45
-65 -49 -98 -18 -130 33 -33 67 -33 134 -1 67 31 90 71 74 131 -6 22 -16 47
-23 56 -17 21 -54 32 -63 18z"/>
<path d="M2535 5942 c-27 -5 -91 -68 -110 -108 -39 -83 66 -127 140 -58 22 20
25 31 24 77 -2 62 -23 96 -54 89z m15 -77 c15 -45 0 -72 -44 -81 -38 -7 -56 0
-56 20 0 15 68 96 80 96 5 0 14 -16 20 -35z"/>
<path d="M4175 5870 c-14 -22 -25 -46 -25 -53 0 -40 79 -51 123 -17 28 22 42
26 32 9 -11 -17 -8 -79 5 -94 9 -11 17 -12 31 -4 23 12 25 29 4 29 -21 0 -19
36 5 89 24 52 25 70 5 78 -10 3 -27 -7 -45 -28 -72 -80 -161 -98 -100 -19 23
30 25 50 5 50 -8 0 -26 -18 -40 -40z"/>
<path d="M5535 5790 c-21 -52 -25 -74 -17 -82 13 -13 46 -2 36 13 -3 6 4 33
16 59 21 45 22 80 2 80 -5 0 -22 -32 -37 -70z"/>
<path d="M6941 5736 c-9 -10 -8 -16 4 -26 19 -16 41 1 32 24 -8 20 -21 20 -36
2z"/>
</g>
</svg>
