<?xml version="1.0" standalone="no"?>
<!DOCTYPE svg PUBLIC "-//W3C//DTD SVG 20010904//EN"
 "http://www.w3.org/TR/2001/REC-SVG-20010904/DTD/svg10.dtd">
<svg version="1.0" xmlns="http://www.w3.org/2000/svg"
 width="1872.000000pt" height="1404.000000pt" viewBox="0 0 1872.000000 1404.000000"
 preserveAspectRatio="xMidYMid meet">

<g transform="translate(0.000000,1404.000000) scale(0.100000,-0.100000)"
fill="#000000" stroke="none">
<path d="M17735 13949 c-59 -19 -137 -28 -154 -20 -17 10 -51 -3 -51 -18 0 -5
15 -12 33 -15 l32 -7 -32 -27 c-66 -57 -92 -120 -143 -346 -43 -192 -33 -241
59 -304 77 -52 118 -65 206 -65 69 0 90 4 155 33 107 49 165 86 199 129 50 63
53 80 41 228 -18 224 -67 338 -162 377 -23 10 -51 22 -60 27 -27 14 -90 18
-123 8z m175 -71 c25 -13 54 -38 66 -55 36 -54 64 -179 70 -314 l6 -124 -31
-42 c-39 -53 -84 -84 -192 -128 -132 -55 -215 -48 -330 26 -81 52 -86 92 -34
314 51 219 78 265 190 324 58 31 193 30 255 -1z"/>
<path d="M17755 13709 c-51 -47 -88 -116 -83 -156 4 -40 32 -37 34 4 2 39 34
92 80 132 38 34 65 39 84 16 24 -29 -5 -91 -67 -149 -114 -103 -191 -184 -198
-206 -4 -14 -2 -27 6 -36 12 -11 29 -11 109 1 102 15 165 6 165 -25 0 -23 32
-24 44 -1 9 17 7 24 -16 46 -32 29 -89 33 -202 15 -35 -6 -66 -8 -69 -5 -3 3
51 60 120 128 129 124 148 152 148 212 0 45 -22 65 -71 65 -32 0 -47 -7 -84
-41z"/>
<path d="M12560 13727 c-45 -23 -134 -178 -164 -287 -48 -176 -45 -170 -75
-170 -15 0 -32 5 -39 12 -17 17 -36 -4 -27 -32 6 -19 12 -22 44 -17 l38 5 -23
-89 c-22 -85 -23 -124 -2 -117 6 2 22 51 37 108 l26 105 68 10 c37 6 68 13 68
18 1 21 -10 24 -61 17 -30 -4 -56 -6 -58 -5 -1 1 9 40 22 86 14 48 49 127 81
184 60 106 78 131 108 147 18 9 19 6 16 -53 -5 -72 12 -89 29 -31 30 101 -9
149 -88 109z"/>
<path d="M15942 13543 c-12 -38 -47 -113 -77 -168 -106 -191 -144 -290 -124
-327 10 -18 29 -25 30 -10 6 92 21 131 144 361 30 57 55 110 55 117 0 7 9 21
20 31 23 22 17 63 -9 63 -12 0 -23 -19 -39 -67z"/>
<path d="M2229 13576 c-19 -20 -10 -38 17 -33 l26 5 -28 -24 c-16 -14 -55 -45
-87 -71 -95 -77 -149 -167 -182 -305 -38 -162 -1 -293 94 -335 46 -20 150 -20
224 0 73 19 178 82 253 149 154 141 189 299 105 473 -44 89 -73 112 -161 129
-90 18 -247 25 -261 12z m206 -42 c9 -4 29 -33 45 -65 32 -62 46 -77 61 -62 6
6 -3 32 -22 67 l-31 57 29 -7 c41 -10 70 -40 106 -113 29 -59 32 -74 32 -156
0 -69 -4 -98 -19 -125 -96 -177 -314 -310 -489 -298 -106 8 -153 70 -151 203
3 142 69 297 160 371 24 20 42 41 41 47 -1 7 4 11 12 9 8 -2 28 10 45 27 43
41 133 63 181 45z"/>
<path d="M2358 13356 c-86 -30 -140 -64 -136 -85 2 -9 30 -30 63 -47 78 -39
82 -61 24 -115 -45 -42 -72 -49 -87 -22 -11 18 -46 11 -40 -9 9 -25 56 -51 81
-44 33 8 115 88 123 120 9 37 -19 73 -74 97 -44 19 -46 21 -28 35 13 9 23 11
30 4 15 -15 50 -12 121 11 66 21 89 49 41 49 -13 0 -26 7 -30 15 -7 19 -7 19
-88 -9z"/>
<path d="M8216 13568 c-2 -7 -11 -68 -19 -134 -14 -105 -22 -135 -60 -217 -25
-53 -57 -112 -73 -132 -20 -27 -24 -39 -16 -47 9 -9 31 9 86 69 79 85 132 119
167 108 19 -6 21 -13 16 -51 -10 -90 -119 -178 -165 -132 -9 9 -7 17 10 35 18
20 20 26 9 33 -9 5 -23 2 -37 -8 -30 -22 -34 -34 -25 -69 6 -25 13 -28 51 -31
24 -2 54 -1 67 2 58 15 133 119 133 186 0 68 -84 94 -150 45 -19 -14 -35 -25
-37 -25 -3 0 5 21 30 80 8 19 20 76 27 125 7 50 16 95 21 101 11 13 -3 66 -19
72 -7 2 -14 -2 -16 -10z"/>
<path d="M10187 13508 c4 -66 2 -81 -30 -163 l-36 -90 -38 0 c-49 0 -52 -25
-5 -37 22 -6 32 -14 29 -22 -3 -8 -11 -32 -18 -55 -7 -23 -16 -41 -21 -41 -4
0 -8 -7 -8 -16 0 -10 7 -14 23 -12 18 2 26 16 43 68 l20 65 47 3 c47 3 47 3
37 -22 -12 -33 2 -72 30 -81 32 -10 98 3 152 29 46 22 47 22 50 3 6 -42 28
-28 58 37 33 76 55 89 125 79 36 -5 45 -3 45 10 0 19 -21 27 -73 27 -51 -1
-104 -27 -121 -61 -7 -13 -18 -23 -25 -21 -7 1 -26 -9 -42 -22 -33 -28 -129
-59 -153 -50 -19 7 -21 34 -3 55 6 9 33 24 60 33 26 10 51 25 56 34 10 20 -3
62 -19 62 -19 0 -64 -27 -89 -54 -20 -21 -34 -26 -73 -26 -26 0 -48 5 -48 10
0 6 12 38 26 73 45 109 52 247 12 255 -14 3 -16 -6 -11 -70z"/>
<path d="M16782 13524 c-33 -30 -46 -74 -25 -81 7 -3 17 7 22 21 17 43 51 58
104 46 57 -12 98 -31 92 -41 -6 -9 -118 -72 -186 -105 -50 -24 -105 -81 -114
-117 -9 -35 -1 -122 10 -120 6 1 14 19 19 40 19 84 24 92 116 167 13 10 56 36
95 57 81 44 110 71 101 94 -8 23 -88 56 -150 62 -48 5 -56 3 -84 -23z"/>
<path d="M3465 13530 c-3 -5 -1 -18 5 -29 14 -28 12 -137 -4 -199 -8 -30 -12
-60 -9 -68 3 -8 1 -14 -4 -14 -16 0 -36 -71 -24 -83 7 -7 28 9 72 56 74 82 94
86 86 21 -7 -61 9 -116 31 -112 10 3 15 11 12 19 -2 8 -5 47 -5 87 0 53 -4 75
-15 82 -27 17 -49 11 -89 -25 l-39 -36 15 57 c13 50 19 146 14 209 -3 34 -32
57 -46 35z"/>
<path d="M4136 13528 c-3 -7 -14 -53 -25 -102 -11 -48 -23 -91 -26 -94 -3 -3
-27 -9 -53 -12 -33 -3 -47 -10 -47 -20 0 -12 11 -14 49 -12 l49 2 -5 -84 c-3
-50 -10 -91 -18 -101 -22 -27 4 -41 29 -16 17 17 21 34 22 86 1 36 3 70 4 75
1 6 3 19 4 30 1 17 8 20 54 20 60 0 88 13 70 31 -6 6 -32 10 -62 8 -59 -5 -58
-5 -35 86 9 33 17 71 18 84 1 26 -21 41 -28 19z"/>
<path d="M7340 13498 c0 -29 -6 -58 -35 -185 -4 -17 -13 -23 -33 -24 -41 -1
-97 -24 -97 -40 0 -14 4 -14 78 -2 20 3 37 2 37 -2 0 -19 -33 -132 -42 -142
-7 -9 -5 -15 7 -19 26 -10 34 5 65 124 l11 44 57 -4 c46 -2 57 0 57 12 0 11
-14 16 -54 18 l-53 3 5 32 c39 207 39 217 11 217 -9 0 -14 -11 -14 -32z"/>
<path d="M11446 13521 c-4 -5 -4 -27 0 -48 4 -27 -4 -71 -26 -152 -18 -63 -36
-121 -41 -130 -5 -9 -15 -33 -23 -53 -14 -34 -13 -39 4 -60 l19 -23 16 38 c8
21 18 52 21 70 4 18 19 78 36 135 21 75 28 120 26 164 -3 57 -17 83 -32 59z"/>
<path d="M3119 13494 c-13 -14 -59 -50 -101 -80 -43 -30 -78 -61 -78 -69 0
-24 22 -29 39 -7 15 19 36 35 114 85 l28 18 -27 -53 c-15 -29 -44 -80 -65
-114 -48 -76 -82 -151 -74 -164 11 -18 27 -11 82 40 31 28 58 48 62 45 3 -4
11 -27 16 -52 7 -30 19 -53 36 -65 24 -18 28 -19 63 -4 71 30 113 110 103 200
-3 29 -1 58 4 63 6 6 4 15 -7 24 -14 11 -18 11 -29 -4 -9 -12 -10 -31 -2 -72
8 -50 7 -61 -17 -109 -19 -38 -35 -57 -58 -67 -27 -11 -32 -10 -44 6 -8 10
-16 35 -20 54 -12 76 -27 85 -85 47 -39 -26 -40 -27 -28 -4 7 12 27 46 46 76
44 68 103 191 103 214 0 26 -33 22 -61 -8z"/>
<path d="M15537 13503 c-2 -5 -8 -26 -11 -48 -4 -22 -39 -100 -77 -174 l-70
-134 33 -28 c42 -35 69 -42 116 -29 55 15 99 45 117 81 24 46 13 76 -39 101
-42 20 -45 20 -86 4 -23 -9 -40 -13 -38 -9 2 4 16 32 32 62 34 65 59 147 52
167 -6 15 -22 19 -29 7z m51 -279 c18 -12 20 -19 12 -34 -11 -21 -49 -43 -90
-53 -66 -16 -63 49 3 82 50 25 47 25 75 5z"/>
<path d="M15014 13485 c-10 -25 2 -39 34 -41 24 -1 32 3 32 15 0 36 -54 57
-66 26z"/>
<path d="M10895 13386 c-8 -19 -15 -43 -15 -52 0 -38 -25 -97 -57 -134 -19
-22 -38 -40 -43 -40 -5 0 -17 27 -26 60 -9 34 -22 60 -30 60 -20 0 -27 -20
-15 -43 6 -12 17 -42 24 -67 10 -35 18 -46 36 -48 34 -5 88 51 123 128 17 36
36 72 42 80 7 8 12 31 12 50 -1 50 -31 53 -51 6z"/>
<path d="M4880 13371 c-6 -12 -5 -24 3 -35 10 -14 16 -15 39 -4 36 17 35 33
-2 46 -25 9 -31 8 -40 -7z"/>
<path d="M9726 13368 c-19 -26 -21 -54 -4 -64 15 -10 38 24 38 58 0 34 -13 36
-34 6z"/>
<path d="M14236 13323 c-26 -65 -91 -162 -132 -197 l-34 -28 2 104 c2 86 -1
110 -16 132 -9 15 -23 25 -29 23 -20 -6 -21 -40 -2 -53 16 -12 17 -24 11 -108
-8 -102 1 -136 33 -136 27 0 131 116 170 190 19 36 39 68 44 71 13 9 4 43 -13
47 -10 1 -22 -15 -34 -45z"/>
<path d="M14404 13321 c-70 -51 -98 -97 -84 -137 14 -35 39 -37 99 -5 l57 29
9 -21 c6 -12 17 -23 26 -25 13 -2 15 8 14 55 -1 37 -6 57 -13 56 -6 -2 -39
-21 -73 -43 -34 -22 -68 -40 -76 -40 -26 0 -12 34 33 78 36 34 51 42 69 38 27
-7 38 4 29 28 -9 24 -47 19 -90 -13z"/>
<path d="M14725 13332 c-79 -48 -173 -212 -121 -212 16 0 38 24 30 32 -8 9 22
63 58 103 42 48 82 69 107 55 25 -13 38 4 21 25 -17 20 -59 19 -95 -3z"/>
<path d="M16058 13317 c-21 -12 -45 -33 -54 -45 -10 -15 -22 -21 -34 -17 -25
8 -36 -13 -17 -32 12 -12 13 -22 5 -44 -13 -37 4 -88 38 -120 23 -21 35 -24
107 -24 68 0 92 5 140 27 54 26 68 40 48 52 -5 3 -44 -4 -87 -15 -56 -15 -95
-19 -134 -15 -64 6 -82 24 -78 76 3 35 4 35 45 32 98 -7 184 88 121 132 -31
22 -56 20 -100 -7z m82 -37 c0 -24 -47 -50 -90 -50 -25 0 -29 3 -22 16 25 45
112 72 112 34z"/>
<path d="M3748 13279 c-51 -55 -67 -92 -51 -118 16 -24 57 -16 109 19 l46 30
-7 -28 c-7 -33 23 -80 43 -68 15 9 16 36 1 36 -6 0 -9 17 -7 41 5 65 -17 71
-84 26 -29 -20 -57 -37 -61 -37 -19 0 -3 34 36 75 24 25 41 47 39 50 -3 3 0 5
7 5 7 0 9 5 6 10 -12 19 -29 10 -77 -41z"/>
<path d="M6080 13303 c-14 -10 -32 -16 -41 -15 -12 2 -18 -8 -22 -38 -3 -22
-15 -65 -28 -95 -17 -40 -20 -58 -12 -66 17 -17 28 -5 52 59 30 84 61 127 91
127 31 0 30 -24 -1 -102 -20 -49 -19 -73 2 -73 5 0 14 12 20 28 6 15 22 40 37
56 30 32 101 86 113 86 4 0 7 -25 7 -56 -1 -54 1 -57 51 -106 l52 -50 64 4
c65 4 98 19 79 37 -5 6 -29 5 -61 -1 -44 -9 -57 -8 -78 6 -14 9 -25 20 -25 24
1 4 25 24 55 45 68 47 93 81 75 102 -7 8 -22 15 -33 15 -32 0 -103 -46 -126
-82 l-21 -33 0 62 c0 52 -3 63 -20 68 -21 7 -48 -5 -97 -42 l-33 -24 0 30 c0
49 -53 67 -100 34z m377 -70 c-9 -10 -30 -26 -47 -37 -32 -18 -32 -18 -21 3
11 19 55 50 75 51 5 0 2 -8 -7 -17z"/>
<path d="M5002 13277 c-23 -17 -42 -39 -42 -49 0 -10 16 -28 35 -40 55 -36 59
-80 11 -131 -29 -31 -75 -37 -72 -9 1 22 -23 22 -37 0 -27 -42 53 -72 106 -39
37 23 77 87 77 123 0 26 -31 67 -65 85 -16 10 -17 13 -4 24 8 8 23 19 34 25
24 13 30 30 13 37 -8 2 -33 -9 -56 -26z"/>
<path d="M13121 13288 c-96 -47 -139 -188 -57 -188 31 0 130 53 172 91 l21 20
6 -43 c6 -45 37 -81 65 -76 26 5 24 24 -3 36 -23 10 -25 17 -25 71 0 33 -5 63
-11 66 -6 4 -21 -3 -35 -16 l-24 -22 0 32 c0 25 -5 34 -26 41 -34 13 -32 13
-83 -12z m75 -34 c-4 -9 -2 -22 4 -29 15 -18 -125 -104 -142 -87 -15 15 34 97
70 116 38 21 76 21 68 0z"/>
<path d="M11069 13275 c-30 -15 -58 -41 -78 -71 -33 -51 -38 -73 -19 -92 19
-19 48 -14 110 17 49 25 56 27 48 11 -14 -27 -12 -63 4 -86 14 -18 16 -18 31
-3 14 14 15 20 4 37 -11 18 -9 30 14 88 36 86 24 101 -33 44 -55 -55 -150 -99
-150 -70 0 40 102 117 139 105 22 -7 35 17 18 34 -16 16 -36 13 -88 -14z"/>
<path d="M9840 13264 c-57 -48 -91 -149 -50 -149 9 0 15 11 17 28 2 32 43 91
74 107 25 14 56 4 64 -19 3 -10 -4 -48 -15 -85 -20 -64 -19 -91 2 -84 15 5 48
116 48 160 0 68 -80 92 -140 42z"/>
<path d="M6681 13253 c-39 -19 -100 -98 -101 -129 0 -44 24 -48 92 -12 35 18
65 34 68 35 3 2 4 -17 2 -42 -3 -36 0 -46 14 -52 23 -8 100 75 84 91 -7 7 -19
1 -40 -19 l-30 -29 15 50 c8 27 15 57 15 67 0 23 -23 22 -46 -4 -38 -43 -134
-93 -134 -70 0 6 18 29 41 52 37 37 42 39 53 23 15 -20 36 -11 36 15 0 16 -18
41 -29 41 -4 0 -21 -8 -40 -17z"/>
<path d="M6981 13244 c-24 -20 -35 -23 -45 -15 -18 15 -53 -10 -40 -30 11 -19
6 -45 -17 -83 -10 -17 -19 -39 -19 -48 0 -31 29 -19 49 20 20 39 112 132 131
132 14 0 13 -13 -6 -69 -11 -35 -12 -54 -5 -74 17 -44 36 -32 49 31 22 100 25
132 12 147 -20 24 -75 18 -109 -11z"/>
<path d="M12086 13255 c-9 -9 -16 -24 -16 -33 0 -8 -9 -25 -20 -36 -29 -32
-49 -88 -40 -113 19 -47 82 -34 134 28 23 27 26 40 24 82 -3 45 -7 53 -34 69
-29 17 -33 17 -48 3z m44 -95 c0 -19 -10 -36 -31 -54 -33 -28 -59 -34 -59 -13
0 17 39 79 59 93 21 16 31 8 31 -26z"/>
<path d="M15089 13250 c-48 -25 -109 -94 -109 -124 0 -39 24 -51 73 -37 23 7
57 21 75 32 41 23 37 24 39 -3 2 -21 27 -48 44 -48 4 0 17 9 30 19 19 15 21
22 12 32 -10 10 -15 9 -28 -1 -27 -22 -30 -1 -9 60 21 59 17 84 -11 74 -7 -3
-16 -1 -20 5 -10 17 -56 12 -96 -9z m78 -54 c-16 -26 -119 -79 -143 -74 -15 3
-12 9 17 42 41 47 107 80 126 64 11 -9 11 -15 0 -32z"/>
<path d="M4826 13211 c-31 -59 -44 -145 -26 -166 19 -23 30 -8 30 41 0 47 20
107 46 136 9 9 13 22 9 27 -14 23 -36 9 -59 -38z"/>
<path d="M9705 13228 c-8 -18 -26 -51 -40 -73 -31 -50 -33 -95 -5 -95 11 0 21
6 21 13 1 6 3 23 4 35 1 13 17 44 34 69 18 25 31 52 29 61 -6 28 -27 24 -43
-10z"/>
<path d="M8491 13226 c-9 -11 -8 -15 5 -20 20 -8 39 7 30 23 -10 15 -21 14
-35 -3z"/>
<path d="M14835 13186 c-15 -30 -24 -60 -20 -65 9 -15 35 -14 35 2 0 7 9 30
21 51 20 37 20 66 0 66 -5 0 -22 -25 -36 -54z"/>
<path d="M8591 13169 c-41 -48 -104 -89 -116 -77 -3 3 2 24 10 48 23 66 -3 88
-30 24 -19 -46 -19 -88 0 -104 14 -12 26 -10 88 15 21 9 -4 -37 -90 -165 -56
-83 -66 -111 -53 -146 16 -41 37 -30 36 19 -1 35 8 55 51 119 87 127 165 262
166 287 3 39 -15 33 -62 -20z"/>
<path d="M16682 12849 c-23 -9 -26 -35 -4 -33 7 1 26 2 42 3 32 1 42 24 14 35
-19 7 -23 7 -52 -5z"/>
<path d="M14803 12624 c-33 -14 -176 -264 -216 -376 -4 -12 -17 -18 -37 -18
-19 0 -33 -6 -37 -16 -7 -18 14 -35 34 -27 18 7 18 5 -21 -80 -25 -54 -31 -78
-23 -86 13 -13 47 14 47 38 0 28 54 140 70 146 30 10 160 23 180 18 11 -3 27
-2 36 1 13 5 14 9 4 21 -14 17 -97 20 -170 5 -25 -4 -46 -7 -47 -6 -2 1 26 61
61 132 69 139 119 199 174 210 40 8 54 -16 26 -47 -13 -15 -15 -22 -6 -31 14
-14 46 13 57 49 10 35 -34 73 -82 72 -21 0 -43 -3 -50 -5z"/>
<path d="M16913 12532 c-32 -49 -78 -125 -103 -169 l-44 -80 -61 1 c-47 1 -60
-2 -60 -14 0 -11 14 -16 53 -18 28 -2 52 -6 52 -10 0 -4 -11 -34 -25 -67 -26
-65 -29 -83 -16 -103 6 -10 24 -7 87 13 79 27 124 56 124 82 0 19 -20 16 -44
-6 -22 -19 -124 -57 -132 -48 -3 3 6 31 20 63 l25 59 43 -3 c24 -1 67 -5 95
-8 l53 -5 -21 -29 c-27 -35 -19 -64 23 -81 66 -27 207 -2 209 38 3 36 -3 48
-29 70 -15 13 -27 31 -27 40 0 12 -6 17 -20 15 -11 -2 -50 -6 -87 -9 -37 -3
-65 -9 -62 -14 3 -5 1 -9 -5 -9 -5 0 -13 5 -16 10 -3 6 -21 10 -38 10 -18 0
-49 3 -69 6 l-38 7 42 76 c59 108 107 181 118 181 12 0 40 53 40 75 0 36 -33
9 -87 -73z m226 -341 c39 -30 22 -48 -52 -56 -63 -7 -107 3 -107 25 0 5 12 18
26 29 34 27 100 28 133 2z"/>
<path d="M11706 12394 c-27 -58 -59 -138 -71 -177 -21 -69 -26 -74 -91 -124
-51 -39 -78 -53 -102 -53 -56 0 -56 59 1 111 48 44 67 47 94 13 17 -22 25 -26
34 -17 9 9 6 19 -10 42 -27 38 -53 46 -88 27 -101 -56 -141 -158 -80 -201 41
-29 89 -15 177 52 42 32 45 33 48 15 2 -11 15 -32 29 -46 32 -32 78 -34 133
-6 33 17 40 18 40 5 0 -8 11 -22 24 -30 22 -15 31 -14 107 5 117 30 165 58
142 81 -7 7 -22 3 -44 -10 -19 -10 -65 -27 -102 -36 -109 -27 -129 -3 -49 57
27 20 56 52 65 71 22 45 22 96 1 104 -26 10 -65 -29 -110 -112 -37 -67 -50
-83 -90 -103 -54 -28 -86 -24 -102 13 -17 37 -15 53 12 82 40 43 84 145 101
237 9 47 13 90 10 96 -15 24 -33 2 -79 -96z m-1 -119 c-36 -86 -44 -78 -9 9
14 37 29 64 32 62 3 -3 -7 -35 -23 -71z m234 -67 c-9 -32 -59 -93 -59 -72 0
11 57 104 64 104 3 0 0 -14 -5 -32z"/>
<path d="M4784 12461 c-17 -10 -41 -32 -53 -47 -15 -19 -24 -25 -27 -16 -10
23 -35 12 -50 -23 -15 -37 -11 -60 10 -52 11 4 -47 -193 -81 -275 -18 -43 -11
-77 12 -58 19 16 69 148 90 235 16 71 45 130 91 184 50 60 118 30 117 -52 -1
-56 -38 -180 -70 -235 -26 -44 -25 -76 2 -66 8 3 15 10 15 15 0 12 83 128 93
128 4 1 7 -13 7 -29 0 -48 25 -97 59 -115 24 -12 31 -22 31 -44 0 -16 11 -40
25 -56 25 -26 28 -27 98 -20 81 8 107 18 107 42 0 11 -6 14 -22 8 -13 -4 -53
-9 -90 -12 -65 -5 -68 -4 -79 21 -15 32 -2 51 42 60 17 3 44 19 60 35 24 24
28 35 23 58 -8 31 -22 53 -35 53 -12 0 -80 -68 -100 -100 -14 -22 -19 -23 -42
-13 -27 13 -47 61 -47 118 0 17 -5 37 -10 45 -8 13 -13 13 -31 2 -20 -13 -21
-12 -15 10 17 59 18 125 2 156 -31 61 -78 76 -132 43z m374 -328 c-2 -9 -18
-26 -37 -37 -37 -21 -36 -11 2 32 24 26 40 29 35 5z"/>
<path d="M15894 12425 c-29 -31 -78 -97 -108 -149 -61 -103 -86 -124 -208
-181 -85 -39 -88 -40 -88 -24 0 28 167 143 194 133 22 -9 31 18 11 32 -16 12
-26 9 -76 -18 -32 -18 -55 -36 -52 -41 3 -4 -1 -7 -9 -5 -17 4 -81 -49 -97
-79 -16 -31 2 -63 35 -63 30 0 208 82 220 101 6 10 11 0 14 -31 7 -65 31 -71
146 -35 49 15 92 33 96 39 15 22 -9 24 -67 5 -92 -30 -133 -35 -141 -15 -18
46 79 226 170 315 30 30 53 58 50 63 -12 19 -39 5 -90 -47z"/>
<path d="M7707 12453 c-4 -3 -7 -18 -7 -32 0 -14 -23 -84 -51 -156 -28 -71
-57 -152 -65 -180 -18 -61 -15 -110 6 -110 11 0 17 17 22 62 4 34 16 84 28
110 41 91 91 237 85 251 -2 7 0 10 5 7 6 -4 10 7 10 24 0 29 -17 41 -33 24z"/>
<path d="M12926 12414 c-19 -25 -45 -72 -58 -104 l-22 -59 -66 -16 c-36 -9
-79 -24 -96 -33 -29 -15 -84 -74 -109 -116 -11 -18 -138 -56 -187 -56 -29 0
-41 27 -15 34 114 36 158 68 150 110 -3 15 -11 30 -18 32 -31 12 -156 -85
-173 -135 -12 -33 1 -67 27 -76 21 -6 138 12 156 25 23 16 59 18 80 4 19 -12
27 -12 65 1 24 9 67 33 96 55 61 46 64 47 64 22 0 -10 12 -29 26 -43 30 -28
95 -33 120 -7 21 21 10 42 -16 28 -31 -17 -68 -12 -84 12 -21 30 -20 50 5 106
12 26 34 74 49 108 15 33 39 79 53 101 14 23 23 44 20 47 -15 15 -34 3 -67
-40z m-96 -214 c0 -11 -91 -93 -130 -117 -47 -29 -90 -39 -90 -22 0 30 57 93
102 114 26 12 46 24 43 26 -2 3 14 5 36 5 21 1 39 -2 39 -6z m-340 -40 c0 -11
-60 -44 -67 -36 -3 3 10 14 28 25 39 24 39 24 39 11z"/>
<path d="M7425 12390 c-3 -5 -3 -19 0 -30 10 -31 -42 -176 -71 -199 -15 -11
-24 -29 -24 -46 0 -14 -5 -35 -11 -46 -29 -54 39 -85 114 -51 77 35 111 96 76
138 -13 16 -54 16 -93 -1 -16 -7 -17 -6 -7 13 7 12 9 22 5 22 -3 0 -2 6 3 13
20 24 44 116 41 153 -3 37 -20 55 -33 34z m65 -274 c0 -28 -72 -76 -114 -76
-33 0 -33 10 2 42 52 49 112 67 112 34z"/>
<path d="M14982 12387 c-15 -17 4 -90 21 -84 7 2 12 11 11 20 -3 66 -5 77 -13
77 -5 0 -13 -6 -19 -13z"/>
<path d="M11272 12382 c-38 -4 -49 -21 -32 -51 14 -27 30 -27 37 -1 3 11 11
20 19 20 17 0 29 20 18 29 -5 3 -24 5 -42 3z"/>
<path d="M6934 12367 c-9 -25 0 -62 16 -62 21 0 25 49 6 64 -13 11 -17 11 -22
-2z"/>
<path d="M10947 12309 c-26 -17 -54 -41 -62 -52 -23 -33 -19 -81 11 -116 l26
-31 -47 0 c-39 0 -46 -3 -43 -17 4 -22 76 -30 108 -13 28 15 25 37 -10 77 -16
18 -30 41 -30 50 0 8 16 31 36 50 28 26 43 33 61 28 28 -7 42 17 23 40 -17 20
-20 20 -73 -16z"/>
<path d="M8960 12284 c-8 -19 -6 -29 5 -40 13 -14 16 -13 24 8 8 21 -1 58 -15
58 -2 0 -9 -12 -14 -26z"/>
<path d="M6265 12193 c-27 -88 -63 -161 -90 -183 -13 -11 -15 -6 -15 31 0 24
-3 75 -7 112 -5 55 -9 67 -22 65 -14 -3 -16 -17 -13 -93 5 -166 19 -199 64
-159 34 30 84 115 103 174 10 30 24 62 31 71 8 8 14 22 14 30 0 15 -19 39 -31
39 -4 0 -19 -39 -34 -87z"/>
<path d="M13819 12223 c-83 -86 -99 -111 -99 -154 0 -42 26 -69 68 -69 30 0
92 26 92 39 0 13 -47 15 -54 2 -7 -11 -54 -7 -67 6 -16 16 0 58 38 103 29 33
38 38 49 29 18 -15 27 -6 43 40 26 80 4 81 -70 4z m-4 -203 c3 -5 1 -10 -4
-10 -6 0 -11 5 -11 10 0 6 2 10 4 10 3 0 8 -4 11 -10z"/>
<path d="M14311 12241 c-18 -17 -38 -28 -46 -25 -15 6 -39 -31 -30 -46 3 -6 0
-10 -7 -10 -15 0 -48 -65 -48 -93 0 -30 24 -18 53 26 15 23 45 61 67 85 39 43
39 43 30 13 -5 -17 -21 -56 -35 -87 -28 -58 -30 -99 -5 -99 9 0 17 14 21 35 4
19 16 53 27 75 63 126 48 196 -27 126z"/>
<path d="M3916 12244 c-29 -29 -36 -52 -28 -91 10 -49 30 -49 59 2 25 45 29
75 11 93 -16 16 -23 15 -42 -4z"/>
<path d="M7795 12198 c-70 -65 -110 -127 -100 -157 3 -10 15 -27 26 -36 23
-22 98 -23 184 -4 50 11 56 16 76 56 12 24 19 46 16 49 -11 11 -47 -17 -53
-41 -5 -20 -15 -25 -72 -35 -118 -21 -165 0 -130 57 15 25 22 28 66 25 99 -7
154 58 106 126 -24 35 -48 27 -119 -40z m101 0 c9 -28 -18 -48 -65 -48 l-35 0
34 35 c39 40 56 44 66 13z"/>
<path d="M12241 12241 c-8 -5 -20 -7 -26 -4 -8 2 -31 -31 -59 -87 -39 -76 -44
-91 -31 -96 19 -8 38 14 66 73 26 56 73 95 105 87 13 -3 32 -3 41 1 17 6 17 7
-1 21 -22 16 -74 18 -95 5z"/>
<path d="M15280 12206 c-102 -68 -137 -116 -119 -164 12 -32 54 -45 124 -38
59 6 85 22 85 53 0 18 -27 16 -38 -3 -6 -12 -23 -14 -73 -12 -77 4 -85 19 -38
72 28 32 33 34 43 20 11 -14 16 -14 56 2 25 9 56 27 69 40 22 20 23 26 13 49
-17 36 -47 32 -122 -19z m90 5 c0 -11 -18 -24 -55 -39 l-30 -12 35 29 c36 31
50 37 50 22z"/>
<path d="M6684 12207 c-69 -77 -107 -158 -76 -157 14 0 33 18 36 32 1 8 19 38
39 67 31 43 42 52 60 47 12 -3 29 -1 37 5 13 8 12 11 -4 24 -31 24 -61 18 -92
-18z"/>
<path d="M10144 12214 c-109 -57 -176 -165 -148 -239 12 -30 60 -47 104 -35
59 16 52 37 -10 32 -45 -3 -51 -1 -61 22 -21 45 31 129 107 177 34 21 36 21
49 3 19 -26 42 -5 26 24 -15 28 -34 33 -67 16z"/>
<path d="M10578 12197 c-24 -19 -49 -32 -55 -30 -7 3 -22 -15 -34 -39 -12 -24
-32 -58 -46 -76 -15 -20 -22 -39 -18 -50 7 -18 6 -19 116 109 26 30 61 62 78
72 l31 18 0 -33 c0 -19 -11 -49 -26 -72 -36 -52 -46 -92 -28 -107 20 -16 59
17 44 37 -8 9 -2 25 20 60 31 49 38 91 20 125 -16 28 -53 23 -102 -14z"/>
<path d="M6442 12207 c-29 -13 -112 -123 -112 -148 0 -27 30 -24 92 7 50 26
51 26 45 4 -13 -49 33 -91 75 -69 28 15 23 41 -6 33 -34 -8 -41 11 -20 57 27
61 9 70 -66 30 -33 -18 -60 -29 -60 -24 0 16 70 84 80 78 6 -3 10 -1 10 5 0 6
5 8 10 5 6 -3 10 -2 10 4 0 19 -34 29 -58 18z"/>
<path d="M14032 12203 c-10 -4 -10 -9 2 -22 15 -16 14 -19 -4 -36 -11 -10 -20
-27 -20 -37 0 -11 -4 -17 -10 -13 -14 8 -42 -40 -38 -67 4 -32 38 -34 93 -7
95 47 106 90 40 156 -33 33 -39 36 -63 26z m64 -85 c5 -17 0 -27 -22 -45 -32
-25 -62 -38 -71 -29 -7 7 65 96 77 96 5 0 12 -10 16 -22z"/>
<path d="M15014 12179 c-45 -35 -79 -84 -69 -99 11 -18 25 -11 45 23 25 41 87
84 101 70 8 -8 5 -25 -10 -58 -24 -54 -27 -85 -8 -85 15 0 57 96 57 131 0 57
-56 66 -116 18z"/>
<path d="M11116 12126 c-37 -67 -43 -90 -26 -101 15 -9 40 13 40 35 0 10 12
38 26 64 24 42 25 66 4 66 -4 0 -24 -29 -44 -64z"/>
<path d="M14829 12173 c-38 -46 -70 -103 -67 -119 6 -32 27 -26 43 12 9 21 27
53 41 71 33 43 17 77 -17 36z"/>
<path d="M6846 12148 c-22 -53 -29 -81 -19 -75 5 3 7 -10 5 -29 -4 -29 -1 -34
17 -34 19 0 21 4 15 38 -4 25 0 51 10 76 9 21 13 42 10 47 -10 18 -25 9 -38
-23z"/>
<path d="M10281 12167 c-7 -7 -7 -14 0 -23 8 -10 4 -22 -15 -47 -59 -77 -19
-136 69 -103 76 30 102 86 62 135 -7 7 -12 21 -12 30 0 12 -11 16 -47 17 -26
1 -51 -3 -57 -9z m99 -87 c0 -22 -26 -44 -67 -58 -56 -19 -59 11 -7 68 35 38
38 40 55 24 11 -10 19 -25 19 -34z"/>
<path d="M7081 12147 c-27 -14 -51 -36 -65 -60 -20 -37 -20 -38 -3 -52 16 -11
26 -11 63 0 25 7 51 18 58 24 10 8 16 5 24 -14 13 -28 45 -33 68 -10 16 15 12
19 -18 16 -13 -2 -18 5 -18 23 0 14 5 28 10 31 16 10 12 52 -6 59 -30 11 -69
5 -113 -17z m73 -28 c-20 -22 -54 -42 -91 -53 -18 -6 -20 -3 -16 13 3 10 12
22 21 25 10 3 33 12 52 20 49 20 56 19 34 -5z"/>
<path d="M9058 12149 c-14 -6 -29 -16 -31 -23 -7 -19 20 -55 49 -66 13 -5 24
-14 24 -19 0 -15 -82 -81 -110 -88 -31 -8 -42 -23 -28 -40 13 -17 66 10 131
67 57 50 59 73 12 101 -41 24 -43 31 -14 44 45 21 16 42 -33 24z"/>
<path d="M8887 12116 c-8 -9 -18 -30 -22 -48 -3 -18 -16 -61 -28 -95 -18 -52
-19 -63 -7 -77 17 -21 35 -6 36 32 1 15 14 62 29 105 19 53 25 81 18 88 -7 7
-15 5 -26 -5z"/>
<path d="M15380 12055 c0 -8 5 -15 10 -15 6 0 10 7 10 15 0 8 -4 15 -10 15 -5
0 -10 -7 -10 -15z"/>
<path d="M3135 11970 c-4 -6 -4 -23 0 -39 6 -30 -43 -167 -65 -181 -7 -4 -46
-11 -86 -15 -73 -7 -96 -17 -76 -37 7 -7 33 -6 82 2 39 7 73 10 75 8 2 -2 -3
-32 -10 -68 -29 -132 -16 -180 48 -180 53 0 78 11 88 38 16 41 -6 52 -37 19
-28 -31 -60 -33 -77 -5 -8 12 -6 41 8 105 l20 88 53 3 c64 4 72 27 11 35 -22
3 -43 8 -46 10 -3 3 7 32 21 64 14 32 27 72 29 88 7 51 -19 95 -38 65z"/>
<path d="M15172 11923 c-5 -10 -12 -31 -16 -46 -14 -57 -85 -197 -100 -197 -9
0 -34 -7 -56 -16 -47 -19 -50 -34 -18 -99 34 -70 64 -59 104 39 19 48 23 51
58 54 58 5 63 -9 27 -73 -47 -83 -28 -96 61 -44 32 19 57 28 64 23 58 -44 65
-47 89 -36 31 14 60 62 80 130 14 45 19 53 38 50 30 -4 29 23 -3 39 -33 16
-44 5 -64 -65 -19 -68 -50 -122 -71 -122 -8 0 -24 14 -37 30 -27 37 -32 37
-75 4 -38 -29 -51 -27 -34 4 6 12 11 35 11 52 0 24 -6 33 -27 41 -16 6 -40 9
-55 6 -16 -2 -28 -2 -28 -1 0 2 12 29 26 61 38 84 65 164 58 174 -8 14 -23 10
-32 -8z m-112 -287 c0 -18 -33 -77 -39 -70 -16 17 -21 62 -8 67 15 7 47 8 47
3z"/>
<path d="M12865 11918 c-36 -115 -50 -148 -59 -148 -24 0 -38 -19 -42 -58 -2
-23 -11 -59 -20 -79 -44 -103 -58 -203 -30 -203 19 0 84 135 136 285 23 66 48
127 56 136 25 28 14 79 -17 79 -11 0 -21 -6 -24 -12z"/>
<path d="M8477 11914 c-4 -4 -7 -22 -7 -40 0 -18 -15 -75 -34 -126 -41 -115
-86 -270 -86 -298 0 -36 24 -17 38 31 7 24 38 120 68 213 30 93 54 180 52 194
-3 26 -18 38 -31 26z"/>
<path d="M14437 11858 c-8 -24 -22 -68 -32 -98 -9 -30 -30 -81 -46 -114 -16
-32 -29 -64 -29 -72 0 -28 27 -13 65 37 48 64 77 83 110 75 18 -5 25 -13 25
-29 0 -29 -15 -48 -65 -81 -42 -27 -67 -33 -62 -15 1 6 -4 14 -11 16 -8 3 -10
-2 -6 -14 4 -14 4 -15 -4 -4 -8 11 -12 10 -21 -7 -8 -15 -7 -23 4 -32 22 -18
72 -5 127 33 87 58 102 131 34 164 -31 14 -36 14 -66 -1 -18 -9 -34 -16 -35
-16 -4 0 46 147 55 163 6 10 8 22 5 27 -14 22 -34 8 -48 -32z"/>
<path d="M10221 11854 c-33 -37 -36 -60 -8 -58 13 1 12 -7 -10 -50 -45 -89
-123 -295 -123 -326 0 -62 41 -47 45 17 2 39 47 162 110 295 36 79 49 148 29
155 -6 2 -26 -13 -43 -33z"/>
<path d="M10750 11836 c0 -18 20 -33 43 -33 20 0 20 2 7 28 -12 22 -50 26 -50
5z"/>
<path d="M3630 11810 c-17 -32 -68 -192 -70 -220 -4 -52 1 -70 25 -86 32 -21
70 -8 131 41 l43 35 3 -37 c5 -57 36 -70 110 -49 53 16 57 19 56 47 -1 34 -20
38 -41 9 -8 -12 -31 -23 -51 -27 -46 -7 -54 10 -32 74 20 59 21 93 1 93 -8 0
-21 -13 -29 -29 -19 -37 -111 -119 -142 -127 -37 -9 -47 3 -39 52 8 53 50 181
66 200 12 15 6 44 -10 44 -6 0 -15 -9 -21 -20z"/>
<path d="M6945 11790 c-3 -5 -4 -19 0 -29 6 -18 -29 -92 -116 -251 -32 -58
-35 -103 -6 -108 13 -3 17 4 17 30 0 22 13 56 36 94 72 119 105 194 102 232
-3 35 -20 53 -33 32z"/>
<path d="M9240 11792 c-8 -3 -27 -14 -42 -24 -43 -30 -39 -77 12 -128 22 -22
40 -44 40 -48 0 -17 -37 -42 -60 -42 -23 0 -23 0 5 26 38 35 19 55 -24 25 -56
-40 -28 -102 37 -86 33 8 82 53 82 75 0 9 -20 38 -45 65 -51 53 -53 72 -13 95
25 14 28 13 42 -5 11 -16 17 -17 27 -8 10 10 9 16 -1 28 -19 22 -42 33 -60 27z"/>
<path d="M6804 11753 c-4 -10 -35 -77 -71 -150 -51 -102 -64 -138 -59 -158 8
-30 32 -31 50 -2 8 13 8 20 -2 26 -10 6 2 37 52 136 52 102 63 131 55 146 -12
24 -18 24 -25 2z"/>
<path d="M12264 11756 c-3 -7 -4 -17 -2 -22 2 -5 -18 -29 -44 -53 -102 -93
-80 -189 37 -167 19 4 50 22 70 40 30 29 35 40 35 80 0 74 -77 172 -96 122z
m50 -82 c12 -31 6 -81 -12 -97 -25 -23 -72 -38 -93 -32 -37 12 -17 71 41 122
30 26 55 29 64 7z"/>
<path d="M15950 11733 c-88 -69 -109 -142 -50 -173 23 -12 131 -13 185 0 26 6
44 5 52 -1 13 -12 33 -4 33 13 0 16 104 132 108 120 1 -5 -4 -27 -12 -47 -21
-48 -20 -84 1 -92 28 -11 210 33 247 60 11 8 16 19 12 26 -6 9 -11 9 -23 0 -8
-7 -22 -14 -31 -15 -10 -1 -53 -11 -97 -22 -44 -11 -83 -18 -87 -16 -3 2 3 27
13 55 27 70 23 94 -16 94 -35 1 -76 -32 -112 -88 -13 -21 -28 -35 -33 -32 -5
3 -20 -1 -32 -9 -27 -17 -167 -31 -186 -18 -15 10 5 32 76 82 35 25 43 36 40
58 -4 38 -43 40 -88 5z m45 -23 c-7 -11 -65 -43 -65 -36 0 4 62 45 68 46 2 0
0 -5 -3 -10z"/>
<path d="M7857 11743 c-15 -23 23 -243 42 -243 20 0 92 92 112 143 12 31 26
57 30 57 16 0 10 38 -7 44 -11 4 -21 -8 -40 -49 -13 -31 -24 -60 -24 -65 0 -4
-12 -23 -26 -40 -34 -40 -44 -27 -44 56 0 45 -5 68 -18 85 -12 13 -21 18 -25
12z"/>
<path d="M8502 11733 c-4 -10 -7 -53 -7 -95 0 -67 3 -79 24 -102 14 -14 34
-26 46 -26 34 0 110 64 128 107 22 57 25 107 7 111 -12 2 -19 -13 -28 -57 -11
-51 -18 -64 -52 -91 -46 -37 -70 -36 -88 3 -11 23 -12 41 -3 89 6 33 8 65 5
69 -9 15 -24 10 -32 -8z"/>
<path d="M14755 11738 c-63 -23 -124 -94 -125 -145 0 -13 10 -33 21 -44 19
-19 30 -21 118 -17 94 4 158 22 150 43 -2 6 -11 9 -19 8 -8 -1 -51 -7 -96 -14
-118 -18 -151 -4 -128 55 5 14 8 14 21 1 35 -35 136 2 150 54 5 19 0 30 -21
48 -30 26 -29 26 -71 11z m53 -49 c2 -10 -10 -22 -32 -33 -61 -29 -94 7 -33
38 38 19 61 17 65 -5z"/>
<path d="M8854 11727 c-52 -30 -96 -76 -103 -109 -17 -73 23 -104 118 -92 71
8 121 28 121 48 0 19 -4 20 -38 3 -37 -19 -164 -17 -170 2 -3 8 0 11 6 7 13
-8 107 37 140 67 54 50 -8 113 -74 74z m51 -47 c-9 -15 -107 -61 -114 -54 -6
6 26 34 74 64 30 20 54 13 40 -10z"/>
<path d="M12590 11732 c-8 -3 -32 -18 -52 -34 -20 -16 -39 -24 -43 -19 -10 18
-31 1 -44 -35 -7 -19 -22 -45 -35 -58 -38 -42 -52 -74 -37 -89 10 -9 16 -8 27
8 26 38 181 195 193 195 7 0 11 -20 11 -52 0 -39 -7 -64 -30 -104 -37 -67 -44
-118 -15 -122 26 -4 54 36 33 49 -10 7 -8 18 13 56 33 60 43 102 34 153 -7 41
-28 61 -55 52z"/>
<path d="M15654 11708 c-26 -18 -61 -50 -77 -70 -29 -36 -29 -38 -13 -62 22
-35 55 -41 139 -25 51 10 72 18 72 29 0 8 -7 13 -15 11 -42 -11 -160 -12 -160
-2 0 6 7 11 15 11 55 0 139 79 128 121 -8 28 -34 24 -89 -13z m41 -28 c-3 -6
-21 -17 -38 -26 l-32 -15 30 25 c30 26 51 34 40 16z"/>
<path d="M8148 11717 c-31 -14 -63 -52 -83 -101 -19 -46 -19 -53 3 -65 21 -11
107 23 131 52 23 28 34 19 13 -10 -34 -50 -33 -103 3 -103 20 0 29 19 15 34
-8 11 -4 25 20 62 32 50 40 104 16 104 -7 0 -35 -17 -62 -39 -54 -42 -114 -76
-114 -64 0 13 41 77 58 90 11 10 19 10 29 1 10 -8 17 -8 26 1 8 8 7 16 -8 30
-17 17 -24 18 -47 8z"/>
<path d="M10315 11720 c-4 -6 -5 -13 -2 -16 2 -3 -1 -36 -9 -75 -18 -94 -6
-126 45 -120 16 3 14 0 -64 -110 -72 -101 -90 -139 -81 -175 9 -35 30 -25 37
17 3 19 11 45 18 59 20 37 108 157 163 222 44 52 78 112 78 138 0 23 -29 8
-48 -24 -20 -34 -95 -96 -115 -96 -6 0 -6 22 -1 58 11 83 11 125 -3 129 -6 2
-14 -1 -18 -7z"/>
<path d="M4059 11702 c-29 -19 -70 -65 -88 -99 -19 -37 -13 -70 17 -93 24 -19
36 -21 97 -17 81 6 144 25 159 49 16 26 -1 34 -25 12 -12 -10 -24 -18 -28 -16
-3 2 -36 -2 -72 -9 -36 -6 -72 -10 -79 -7 -9 3 7 24 43 58 62 58 73 93 39 123
-23 21 -31 21 -63 -1z m48 -38 c3 -13 -15 -34 -60 -68 -28 -20 -37 -34 -34
-47 3 -11 1 -17 -4 -13 -17 10 -9 50 15 83 40 53 74 73 83 45z"/>
<path d="M5164 11691 c4 -6 1 -9 -6 -6 -8 3 -29 -6 -48 -20 -19 -14 -30 -25
-25 -25 5 0 0 -7 -11 -15 -12 -8 -27 -28 -34 -45 -11 -25 -10 -34 5 -56 16
-24 21 -26 63 -20 84 11 152 75 121 113 -8 8 -14 30 -14 47 0 27 -4 31 -29 34
-18 2 -26 0 -22 -7z m11 -68 c13 -16 25 -31 25 -35 0 -14 -69 -48 -99 -48 -36
0 -39 13 -13 53 16 23 50 56 60 57 2 0 14 -12 27 -27z"/>
<path d="M10687 11693 c-11 -18 -33 -119 -29 -136 2 -11 10 -17 20 -14 10 2
16 9 14 16 -1 6 4 37 12 68 8 31 13 60 10 65 -6 10 -21 10 -27 1z"/>
<path d="M5316 11681 c-4 -6 -4 -21 -1 -33 4 -16 -4 -43 -24 -82 -55 -104 -33
-104 73 2 87 85 86 86 57 -30 -6 -25 -5 -44 3 -60 10 -20 19 -23 64 -23 58 1
96 25 74 47 -8 8 -15 8 -24 1 -21 -17 -75 -25 -83 -13 -4 6 1 42 10 79 19 72
15 121 -10 121 -9 0 -35 -20 -60 -44 l-44 -44 -3 41 c-3 39 -20 59 -32 38z"/>
<path d="M10816 11626 c-61 -60 -82 -96 -56 -96 6 0 39 28 73 63 l62 62 3 -32
c2 -17 -1 -54 -6 -81 -8 -47 -1 -82 17 -82 4 0 29 14 55 31 39 24 46 33 36 42
-10 9 -14 9 -17 -1 -3 -6 -9 -9 -14 -6 -6 3 -17 0 -25 -7 -21 -17 -23 -10 -11
47 13 65 1 118 -30 122 -14 2 -41 -17 -87 -62z"/>
<path d="M11230 11653 c0 -21 -6 -49 -13 -63 -15 -31 -90 -70 -134 -70 l-34 0
15 29 c9 16 35 45 58 64 34 28 40 39 31 48 -9 9 -22 4 -58 -25 -88 -73 -101
-156 -24 -156 35 0 103 24 138 50 l28 19 7 -52 c3 -29 6 -66 6 -83 l0 -32 -97
-12 c-117 -14 -171 -34 -184 -66 -18 -50 30 -107 101 -119 72 -12 175 54 200
130 9 27 17 35 35 35 19 0 35 16 35 37 0 3 -13 3 -30 0 l-30 -6 -1 122 c-1 67
-1 128 0 134 3 21 -19 53 -34 53 -11 0 -15 -11 -15 -37z m10 -320 c0 -20 -43
-69 -77 -90 -48 -29 -102 -30 -137 -2 -51 40 -28 68 74 88 57 11 140 13 140 4z"/>
<path d="M12945 11679 c-4 -6 -9 -36 -12 -67 -4 -48 -2 -61 17 -84 12 -17 31
-28 45 -28 22 0 19 -7 -39 -84 -74 -97 -105 -168 -86 -191 20 -24 27 -18 33
24 6 48 48 112 162 250 86 105 103 136 90 168 -6 16 -10 14 -28 -12 -47 -65
-105 -117 -128 -113 -28 4 -47 53 -30 80 16 26 14 68 -3 68 -8 0 -18 -5 -21
-11z"/>
<path d="M3292 11660 c-39 -24 -61 -65 -44 -82 8 -8 24 -4 63 15 43 23 50 24
44 10 -17 -44 -17 -89 1 -111 17 -20 22 -22 52 -11 26 9 32 16 32 40 0 35 -22
39 -44 7 -16 -22 -16 -22 -16 12 0 19 9 55 21 79 22 50 14 70 -21 51 -16 -9
-25 -9 -33 -1 -15 15 -17 14 -55 -9z"/>
<path d="M6505 11648 c-101 -81 -137 -141 -107 -178 l17 -21 66 24 67 24 -5
-37 c-5 -37 15 -68 37 -55 13 8 13 35 1 35 -12 0 0 44 28 98 18 36 19 43 7 48
-9 4 -32 -9 -57 -29 -38 -33 -126 -73 -137 -62 -16 16 106 145 137 145 7 0 21
-10 31 -22 14 -18 21 -20 30 -11 17 15 -26 73 -55 73 -11 0 -38 -14 -60 -32z"/>
<path d="M6571 11371 c-6 -10 -20 -61 -31 -112 -19 -89 -89 -255 -90 -216 0
10 -6 17 -12 15 -21 -7 -20 -36 1 -57 46 -46 216 -15 242 43 26 56 -20 111
-93 111 -31 0 -37 3 -33 17 10 37 14 54 19 91 3 21 13 54 21 73 15 35 13 54
-5 54 -5 0 -14 -8 -19 -19z m69 -271 c11 -11 17 -26 14 -35 -12 -30 -104 -63
-144 -50 -24 8 -17 26 31 73 38 37 70 41 99 12z"/>
<path d="M5505 11248 c-2 -7 -11 -39 -20 -71 -10 -33 -40 -93 -71 -140 -35
-52 -51 -84 -45 -90 14 -14 35 5 81 73 55 79 178 190 211 190 5 0 -12 -42 -37
-92 -36 -75 -44 -102 -42 -137 4 -60 36 -85 96 -75 25 4 39 11 35 17 -4 6 0 8
10 4 18 -7 44 18 28 27 -5 4 -30 1 -56 -6 -94 -25 -103 24 -31 172 43 88 45
95 29 112 -23 26 -34 23 -107 -27 -67 -45 -78 -43 -51 9 8 15 15 32 15 37 0
14 -40 11 -45 -3z"/>
<path d="M3573 11235 c-12 -8 -36 -37 -54 -65 -32 -49 -66 -70 -115 -70 -26 0
-41 -17 -27 -31 6 -6 25 -6 50 -1 l41 9 -19 -55 c-25 -72 -24 -105 4 -138 21
-24 28 -26 69 -20 43 6 99 35 70 36 -8 0 -10 5 -6 12 5 8 2 9 -12 3 -10 -4
-36 -10 -56 -13 -33 -4 -39 -1 -48 22 -7 20 -4 41 13 92 26 79 35 84 148 84
60 0 79 3 79 14 0 15 -95 28 -142 19 -39 -8 -36 9 12 57 23 23 38 45 35 50 -8
14 -17 12 -42 -5z"/>
<path d="M7225 11238 c-44 -25 -125 -102 -149 -141 -29 -51 -38 -112 -16 -112
8 0 17 13 21 31 9 48 44 97 103 147 45 39 60 46 102 49 35 2 49 7 49 18 0 19
-80 24 -110 8z"/>
<path d="M7348 11202 c-43 -28 -47 -50 -18 -77 27 -24 25 -49 -5 -65 -20 -11
-27 -11 -40 0 -13 11 -19 11 -32 -3 -42 -41 23 -63 87 -28 48 25 60 62 33 99
-22 30 -16 52 20 65 19 7 19 29 1 33 -5 1 -26 -10 -46 -24z"/>
<path d="M8482 11192 c-75 -50 -113 -127 -80 -160 18 -18 69 -14 103 8 39 26
42 25 37 -10 -6 -38 12 -60 50 -60 44 0 72 18 58 35 -9 11 -17 12 -30 5 -35
-19 -43 -12 -37 32 4 26 14 48 27 58 26 20 20 56 -16 95 -30 32 -61 32 -112
-3z m94 -29 c16 -21 18 -43 4 -43 -5 0 -32 -13 -60 -30 -46 -27 -100 -40 -100
-24 0 18 45 75 73 93 39 25 66 26 83 4z"/>
<path d="M8777 11202 c-15 -17 -14 -22 13 -72 34 -64 37 -91 12 -113 -21 -19
-76 -41 -67 -27 10 16 -11 12 -25 -5 -7 -8 -9 -22 -6 -31 8 -21 46 -12 100 24
57 39 63 72 28 144 -18 36 -25 61 -19 67 10 10 1 31 -12 31 -4 0 -15 -8 -24
-18z"/>
<path d="M5932 11187 c-8 -9 -10 -26 -6 -41 5 -22 0 -33 -34 -65 -37 -35 -87
-59 -99 -47 -8 8 40 86 53 86 7 0 15 4 18 9 9 14 -4 41 -20 41 -29 0 -100
-123 -88 -155 21 -53 158 5 199 86 18 35 19 60 2 83 -11 16 -15 16 -25 3z"/>
<path d="M6056 11168 c-2 -7 -9 -33 -16 -58 -7 -25 -21 -62 -32 -83 -19 -38
-18 -67 1 -67 6 0 18 15 27 33 20 39 57 83 90 110 l25 19 -15 -37 c-40 -95 -6
-112 69 -34 l48 50 21 -38 c18 -31 27 -38 51 -38 20 0 30 5 30 15 0 8 -8 15
-18 15 -10 0 -27 17 -40 39 -12 22 -27 41 -34 43 -6 2 -31 -13 -54 -34 -29
-26 -40 -32 -35 -18 35 85 -1 106 -72 41 l-24 -21 4 34 c3 34 -18 57 -26 29z"/>
<path d="M6824 11141 c-68 -49 -97 -110 -68 -142 13 -14 30 -19 72 -19 107 0
232 33 210 55 -3 4 -54 -1 -113 -10 -100 -16 -139 -14 -105 5 51 28 100 73
100 89 0 58 -36 67 -96 22z m56 -21 c0 -12 -78 -65 -86 -58 -6 7 63 68 76 68
6 0 10 -4 10 -10z"/>
<path d="M16051 11152 c-5 -10 -8 -28 -5 -39 11 -41 -88 -364 -151 -494 -16
-33 -19 -52 -13 -69 11 -30 21 -19 47 50 91 250 112 311 136 400 27 103 30
160 8 167 -6 2 -16 -4 -22 -15z"/>
<path d="M4262 11148 c-9 -9 -8 -16 6 -31 16 -18 16 -20 -10 -38 -15 -11 -37
-36 -48 -55 -18 -28 -20 -37 -10 -49 18 -21 84 -19 130 5 32 17 40 26 40 49 0
15 -3 31 -7 35 -5 4 -8 17 -8 29 0 14 -7 23 -20 25 -11 2 -29 13 -41 23 -15
14 -23 16 -32 7z m69 -105 c7 -19 2 -24 -36 -38 -65 -25 -77 -15 -33 29 40 40
56 42 69 9z"/>
<path d="M4054 11108 c20 -126 20 -125 -8 -143 -33 -22 -52 -14 -61 24 -4 17
-12 31 -20 31 -7 0 -44 -18 -81 -40 -69 -40 -94 -48 -94 -30 0 18 25 65 47 90
25 27 25 43 0 48 -21 4 -91 -135 -81 -161 12 -32 44 -30 117 7 l69 35 28 -29
c36 -39 58 -38 103 4 39 36 42 47 27 110 -5 25 -5 46 1 57 7 14 5 21 -10 29
-37 19 -44 13 -37 -32z"/>
<path d="M10035 10983 c-80 -9 -83 -13 -105 -147 -6 -38 -18 -86 -26 -105 -32
-73 -77 -198 -96 -266 -21 -71 -30 -197 -15 -211 4 -5 37 2 73 15 35 13 81 23
102 24 39 0 65 13 56 28 -13 21 -106 8 -186 -26 -16 -6 -18 -1 -18 36 0 61 28
162 88 320 28 74 56 167 63 207 12 79 17 84 77 86 31 1 37 -3 37 -19 1 -54 35
-54 35 -1 0 47 -26 65 -85 59z"/>
<path d="M9056 10943 c-14 -21 -43 -60 -65 -87 -33 -42 -38 -53 -29 -70 11
-20 11 -20 22 -2 6 11 29 42 51 70 57 72 77 105 70 116 -11 18 -24 10 -49 -27z"/>
<path d="M14090 10956 c0 -14 5 -28 10 -31 20 -12 9 -86 -23 -167 -73 -181
-89 -226 -83 -236 12 -20 78 -44 104 -37 68 17 150 124 126 163 -21 32 -58 37
-105 14 -24 -12 -45 -20 -47 -17 -2 2 12 41 32 87 45 104 53 161 33 211 -18
42 -47 50 -47 13z m100 -326 c0 -44 -69 -110 -114 -110 -56 0 -35 55 39 101
33 21 75 25 75 9z"/>
<path d="M11700 10949 c-47 -11 -103 -21 -125 -22 -28 -2 -41 -8 -43 -20 -5
-22 37 -23 140 0 43 9 80 14 82 12 3 -2 -8 -41 -24 -86 -20 -55 -34 -126 -45
-220 -9 -76 -20 -156 -26 -178 -18 -69 -42 -145 -47 -145 -3 0 -20 9 -38 21
-47 29 -92 35 -100 14 -4 -9 -2 -21 4 -27 17 -17 83 -40 122 -41 30 -2 37 2
52 33 24 50 55 197 68 323 12 114 37 212 76 288 17 35 20 49 11 58 -6 6 -13
11 -16 10 -4 0 -44 -9 -91 -20z"/>
<path d="M14775 10910 c-4 -6 -1 -24 5 -41 8 -18 10 -48 6 -79 -5 -39 -4 -50
7 -50 33 0 46 77 23 139 -13 37 -30 49 -41 31z"/>
<path d="M11114 10885 c-4 -8 -3 -22 0 -30 11 -29 -73 -249 -101 -268 -25 -16
-15 -64 17 -87 41 -29 113 -20 170 21 51 37 67 68 50 98 -21 39 -98 54 -136
26 -10 -8 -22 -15 -25 -15 -3 0 9 43 28 96 36 105 43 174 18 174 -9 0 -18 -7
-21 -15z m80 -265 c14 -5 26 -16 26 -23 0 -40 -112 -93 -159 -76 -23 9 -24 10
-5 31 22 25 94 78 105 78 4 0 19 -4 33 -10z"/>
<path d="M16108 10788 c-51 -55 -58 -68 -64 -116 -8 -67 2 -86 47 -90 48 -4
143 30 148 53 2 13 -2 16 -15 12 -122 -37 -135 -40 -146 -29 -8 8 -8 21 -2 43
7 23 18 34 46 44 69 23 88 41 88 83 0 37 -14 62 -34 62 -6 0 -36 -28 -68 -62z
m72 -3 c0 -15 -47 -51 -55 -43 -7 7 34 58 46 58 5 0 9 -7 9 -15z"/>
<path d="M16480 10833 c-8 -3 -34 -19 -56 -34 -47 -32 -66 -72 -57 -123 5 -31
2 -36 -26 -50 -17 -9 -31 -21 -31 -27 0 -22 32 -20 66 6 34 26 36 30 30 69 -4
24 -4 50 -1 58 9 23 77 66 111 70 36 4 40 32 4 35 -14 1 -32 -1 -40 -4z"/>
<path d="M16610 10802 c-43 -42 -47 -57 -28 -110 12 -33 12 -35 -22 -63 -23
-19 -36 -25 -41 -17 -4 6 -14 8 -23 5 -20 -8 -21 -53 -2 -60 19 -7 100 45 122
78 16 24 16 29 1 67 l-17 41 41 39 c36 34 44 58 19 58 -5 0 -27 -17 -50 -38z"/>
<path d="M10473 10753 c-7 -3 -13 -9 -13 -14 0 -5 -7 -21 -16 -35 l-17 -25
-11 23 c-18 37 -47 33 -98 -11 -53 -47 -84 -111 -68 -141 19 -36 66 -23 131
37 l27 24 13 -43 c17 -53 49 -66 49 -19 0 17 -4 31 -10 31 -17 0 -11 41 17
102 25 57 24 81 -4 71z m-80 -85 c7 -24 -29 -62 -85 -93 -46 -25 -31 23 25 83
36 38 52 40 60 10z"/>
<path d="M13001 10729 c-84 -33 -167 -154 -118 -172 15 -5 81 20 129 50 21 13
39 23 42 23 2 0 -3 -23 -11 -51 -26 -90 0 -132 75 -122 48 6 89 30 75 44 -5 4
-26 3 -49 -3 -77 -21 -87 -1 -56 113 l18 66 -26 31 c-28 34 -40 37 -79 21z
m43 -44 c5 -14 -25 -38 -91 -73 -60 -32 -46 11 19 58 46 34 63 37 72 15z"/>
<path d="M14359 10707 c-24 -18 -54 -53 -67 -78 -30 -58 -23 -94 23 -116 30
-15 38 -14 102 5 76 23 131 58 115 74 -6 6 -24 2 -48 -10 -97 -50 -174 -53
-174 -8 0 31 38 85 79 113 38 26 40 26 60 14 20 -13 -4 -50 -44 -67 -24 -10
-33 -19 -29 -29 12 -30 84 7 109 55 11 22 13 35 6 49 -23 42 -76 41 -132 -2z"/>
<path d="M14812 10702 c-63 -67 -94 -113 -87 -130 5 -14 12 -10 43 23 20 23
47 54 60 70 l23 30 -6 -51 c-7 -66 0 -84 34 -84 27 0 112 47 126 69 4 7 14 9
24 6 9 -2 31 -1 49 4 31 9 32 9 43 -32 6 -23 8 -64 4 -93 -7 -55 -15 -63 -85
-79 -35 -9 -61 -33 -92 -85 -47 -82 -47 -150 2 -150 21 0 114 98 156 163 19
30 38 47 57 51 32 6 37 36 6 36 -16 0 -19 4 -14 20 11 34 7 138 -6 175 -15 40
-22 43 -71 31 -22 -5 -25 -3 -21 13 10 38 -18 32 -56 -11 -21 -23 -57 -54 -80
-67 l-42 -23 3 68 c3 65 2 69 -20 72 -14 2 -32 -7 -50 -26z m258 -332 c-6 -11
-35 -46 -65 -77 -46 -49 -54 -54 -55 -36 0 37 22 72 64 103 48 36 72 40 56 10z"/>
<path d="M14620 10684 c-6 -14 -19 -47 -31 -74 -23 -53 -22 -95 1 -95 9 0 17
14 21 35 3 19 16 59 28 88 12 30 19 58 16 63 -11 16 -25 10 -35 -17z"/>
<path d="M10646 10538 c-2 -7 -7 -32 -9 -55 -9 -73 -83 -171 -110 -144 -16 16
-37 14 -37 -3 0 -25 30 -47 54 -40 32 10 80 60 105 110 26 50 33 134 14 141
-7 3 -15 -1 -17 -9z"/>
<path d="M12099 10443 c-7 -19 -7 -33 0 -44 12 -20 1 -37 -76 -126 -52 -60
-63 -91 -36 -101 7 -2 16 4 20 14 4 10 35 53 69 95 66 82 81 119 65 162 -13
35 -29 34 -42 0z"/>
<path d="M4785 10323 c-10 -43 -42 -108 -118 -233 -82 -136 -74 -127 -89 -112
-20 20 -26 14 -22 -20 8 -64 73 -99 140 -75 55 19 150 81 170 112 49 76 -86
141 -160 77 l-20 -17 19 30 c58 92 115 207 115 234 0 40 -27 42 -35 4z m39
-269 c23 -9 20 -37 -6 -62 -32 -29 -136 -82 -162 -82 -54 1 -51 17 16 84 56
56 71 66 101 66 20 0 42 -3 51 -6z"/>
<path d="M3144 10270 c5 -43 2 -77 -10 -119 -15 -57 -18 -59 -59 -71 -23 -6
-63 -12 -90 -12 -39 -1 -51 3 -66 23 -14 18 -21 21 -30 12 -35 -34 45 -79 126
-70 27 4 59 9 71 12 l21 7 -23 -119 c-12 -65 -25 -130 -29 -145 -6 -22 -4 -28
9 -28 22 0 25 10 55 169 l26 134 48 34 c27 19 51 32 54 29 3 -2 -2 -29 -11
-60 -23 -78 -32 -176 -17 -176 7 0 39 23 72 52 32 28 62 49 64 46 3 -3 1 -17
-5 -32 -15 -40 -12 -92 6 -106 13 -11 19 -10 36 8 20 19 20 22 5 28 -15 5 -16
16 -11 75 9 90 -5 97 -77 40 -29 -23 -54 -39 -57 -37 -6 7 16 97 55 215 18 58
31 110 29 118 -8 21 -36 15 -36 -7 0 -55 -36 -104 -112 -154 l-28 -18 10 27
c13 34 13 141 0 166 -21 39 -33 21 -26 -41z"/>
<path d="M13079 10316 c-2 -2 -42 -6 -88 -10 -94 -7 -101 -10 -101 -36 0 -27
21 -36 36 -16 10 15 33 18 131 21 85 3 118 8 118 17 0 16 -81 37 -96 24z"/>
<path d="M13115 10209 c-33 -5 -94 -12 -135 -16 -57 -6 -75 -12 -75 -23 0 -17
4 -17 190 0 84 8 135 17 145 26 13 12 13 14 0 15 -8 1 -26 2 -40 3 -14 1 -52
-1 -85 -5z"/>
<path d="M3509 10045 c-31 -58 -32 -66 -18 -80 14 -14 20 -12 67 25 50 40 52
41 53 18 1 -12 1 -28 0 -34 -2 -14 41 -26 52 -15 5 5 4 17 -2 27 -6 11 -14 34
-19 53 -4 19 -13 36 -19 38 -6 2 -27 -10 -47 -28 -40 -34 -48 -27 -15 15 11
14 17 30 14 36 -14 23 -35 6 -66 -55z"/>
<path d="M3792 10077 c-19 -23 -52 -101 -52 -124 0 -35 17 -28 71 30 43 45 48
49 43 25 -7 -33 24 -68 61 -68 25 0 35 23 16 34 -5 3 -7 16 -3 28 4 18 2 20
-16 16 -19 -5 -21 -3 -16 16 3 14 -1 28 -11 36 -13 11 -21 10 -48 -10 -18 -13
-26 -16 -19 -7 13 16 9 37 -7 37 -5 0 -13 -6 -19 -13z"/>
<path d="M4730 9679 c-144 -11 -170 -17 -170 -36 0 -13 9 -15 58 -10 31 4 93
9 137 13 50 4 87 12 98 22 16 15 17 14 11 -1 -4 -11 0 -19 11 -23 20 -8 37 7
27 23 -11 18 -55 21 -172 12z"/>
<path d="M4427 9664 c-3 -4 -2 -15 4 -26 8 -15 20 -18 64 -17 47 2 55 5 55 21
0 16 -7 18 -42 17 -24 -1 -50 1 -59 5 -8 4 -18 4 -22 0z"/>
<path d="M4610 9499 c-85 -5 -169 -6 -187 -4 -25 5 -34 1 -42 -14 -7 -12 -8
-22 -1 -26 5 -3 80 -1 167 6 87 6 202 9 256 7 73 -4 97 -2 97 7 0 29 -82 36
-290 24z"/>
<path d="M15390 9025 c-10 -11 -9 -18 4 -30 26 -26 19 -108 -17 -210 l-32 -90
-74 0 c-47 0 -76 -4 -78 -12 -6 -17 9 -22 76 -25 33 -1 61 -3 61 -4 0 -1 -11
-26 -24 -55 -13 -30 -31 -79 -41 -109 -10 -30 -24 -60 -31 -68 -15 -14 -4 -57
15 -57 6 0 29 50 50 110 67 194 59 184 133 187 52 3 63 6 66 22 4 18 -1 19
-56 13 l-60 -6 35 107 c36 109 38 150 14 215 -12 30 -23 34 -41 12z"/>
<path d="M11866 9018 c-2 -7 -7 -26 -11 -43 -11 -48 -124 -273 -141 -279 -9
-3 -49 -6 -90 -6 -59 0 -76 -3 -81 -16 -8 -20 11 -39 29 -28 7 5 40 9 73 9
l60 0 -34 -85 c-19 -47 -36 -108 -39 -137 -4 -47 -2 -54 24 -78 24 -23 35 -26
67 -21 53 9 93 31 100 55 2 11 2 22 -1 25 -10 11 -32 6 -32 -7 0 -18 -43 -37
-81 -37 -22 0 -32 6 -41 26 -10 22 -8 38 14 103 15 42 36 98 47 125 18 42 24
47 44 42 63 -18 77 -19 77 -3 0 10 -15 21 -40 28 -22 7 -40 14 -40 16 0 9 104
210 115 223 16 19 14 92 -2 98 -7 2 -15 -2 -17 -10z"/>
<path d="M4293 8847 c-13 -98 -57 -231 -118 -363 -25 -53 -45 -102 -45 -110 0
-27 29 -14 45 20 15 32 100 138 114 144 4 1 7 -36 7 -83 -1 -87 9 -110 40 -98
8 3 25 -4 39 -15 39 -31 107 -11 193 57 28 23 52 39 52 36 0 -3 -9 -23 -20
-44 -10 -21 -16 -41 -13 -45 16 -16 35 -1 84 65 58 79 119 129 156 129 27 0
30 -23 10 -110 -16 -69 -16 -85 2 -85 18 0 56 155 47 191 -15 60 -95 51 -170
-19 -37 -35 -46 -39 -50 -25 -2 10 0 18 5 18 11 0 12 47 1 54 -13 8 -25 -5
-61 -61 -18 -29 -50 -67 -71 -83 -60 -48 -150 -73 -150 -42 0 5 29 27 65 50
68 43 89 78 65 107 -23 28 -55 17 -104 -35 -25 -27 -51 -61 -56 -75 -18 -48
-30 -27 -30 54 0 90 -15 115 -52 92 -28 -17 -31 -10 -12 35 11 26 13 39 5 42
-6 2 -11 8 -11 14 0 6 7 8 15 4 8 -3 15 -3 15 -1 0 2 7 30 15 62 14 50 20 92
28 178 1 10 -5 21 -13 22 -12 3 -18 -14 -27 -80z m171 -373 c-44 -36 -52 -29
-14 11 20 20 36 31 39 24 2 -6 -9 -22 -25 -35z"/>
<path d="M17397 8914 c-4 -4 -7 -19 -7 -34 0 -41 -33 -123 -120 -300 -92 -188
-109 -235 -92 -252 9 -9 17 2 34 43 12 30 55 122 96 204 77 155 125 284 120
318 -3 22 -20 32 -31 21z"/>
<path d="M2410 8882 c-35 -12 -55 -23 -55 -33 0 -9 -22 -40 -49 -70 -27 -30
-66 -80 -86 -111 -40 -62 -80 -188 -80 -254 0 -87 40 -157 95 -169 14 -3 36
-7 49 -10 34 -7 131 21 212 61 122 60 218 162 245 259 22 79 -47 265 -117 318
-31 23 -47 27 -98 26 -34 0 -86 -8 -116 -17z m190 -37 c41 -21 100 -143 107
-223 7 -79 -18 -132 -99 -207 -64 -60 -141 -103 -227 -129 -97 -29 -160 -17
-187 35 -34 66 -6 235 54 329 40 63 116 145 159 171 63 39 144 49 193 24z"/>
<path d="M2442 8711 c-79 -62 -118 -118 -148 -209 -24 -73 -26 -86 -15 -122
17 -57 47 -74 102 -60 50 14 99 59 99 92 0 33 -27 68 -67 84 -39 17 -73 5 -73
-25 0 -25 26 -34 51 -18 17 10 23 9 40 -11 23 -29 13 -54 -31 -77 -85 -44
-112 15 -68 146 17 52 33 76 88 131 37 37 77 68 90 70 14 1 26 11 28 21 6 31
-43 20 -96 -22z"/>
<path d="M10938 8838 c-40 -59 -105 -187 -133 -261 -25 -66 -155 -180 -184
-162 -14 8 7 75 34 110 32 43 101 89 121 81 24 -9 35 3 23 25 -15 28 -49 18
-117 -33 -81 -61 -126 -172 -86 -212 26 -26 45 -19 130 45 55 42 64 46 64 26
0 -25 36 -47 76 -47 48 0 109 27 154 68 38 35 33 55 -8 29 -52 -32 -127 -67
-147 -67 -57 0 -59 58 -4 131 52 69 139 261 139 305 0 29 -28 12 -62 -38z"/>
<path d="M9087 8873 c-3 -5 -14 -46 -25 -93 -12 -47 -47 -139 -78 -205 -55
-115 -70 -174 -49 -185 5 -3 14 9 19 25 5 17 38 91 73 166 35 75 63 150 63
166 0 16 7 38 15 49 19 25 20 84 1 84 -8 0 -17 -3 -19 -7z"/>
<path d="M8767 8853 c-4 -3 -7 -15 -7 -26 0 -24 -47 -193 -100 -361 -20 -66
-35 -128 -32 -138 6 -25 46 -33 83 -18 16 7 56 42 88 77 90 98 114 163 67 184
-28 13 -68 -5 -125 -56 l-37 -34 38 132 c50 173 59 213 52 231 -7 17 -16 20
-27 9z m83 -332 c0 -23 -61 -102 -114 -148 -34 -31 -65 -41 -79 -27 -13 13 77
121 137 165 46 34 56 36 56 10z"/>
<path d="M15710 8808 c0 -30 23 -63 37 -55 16 10 0 71 -20 75 -12 3 -17 -3
-17 -20z"/>
<path d="M3813 8766 c-81 -29 -133 -58 -133 -73 0 -20 27 -15 97 18 69 33 143
49 143 31 0 -5 -16 -34 -36 -63 -74 -110 -154 -247 -156 -270 -5 -43 26 -30
68 29 23 31 63 72 89 91 l46 33 -6 -59 c-11 -97 25 -155 89 -139 27 7 81 80
102 138 19 54 16 198 -4 206 -23 8 -30 -16 -20 -70 12 -64 -3 -132 -44 -193
-22 -32 -37 -45 -54 -45 -31 0 -39 30 -30 119 9 93 -3 103 -73 57 -58 -39 -57
-34 11 65 94 138 64 180 -89 125z"/>
<path d="M5643 8768 c-13 -18 -1 -63 17 -63 20 0 25 49 7 63 -11 10 -17 9 -24
0z"/>
<path d="M8270 8771 c0 -15 41 -81 50 -81 18 0 21 21 7 47 -7 16 -19 27 -25
26 -7 -2 -12 2 -12 7 0 6 -4 10 -10 10 -5 0 -10 -4 -10 -9z"/>
<path d="M10624 8758 c-14 -17 -2 -63 16 -63 20 0 24 36 7 58 -11 15 -15 16
-23 5z"/>
<path d="M9215 8688 c-85 -61 -134 -130 -135 -189 0 -38 39 -69 97 -76 59 -7
146 12 165 35 8 10 9 13 1 9 -6 -4 -14 -3 -18 3 -3 5 2 10 11 10 10 0 14 3 11
6 -3 4 -23 -1 -43 -11 -51 -24 -147 -24 -174 0 -26 24 -25 32 6 39 15 4 51 23
81 42 60 38 85 80 74 123 -9 33 -38 37 -76 9z m40 -48 c-7 -22 -111 -97 -121
-88 -8 8 56 78 91 99 34 21 39 19 30 -11z"/>
<path d="M17030 8681 c-56 -30 -54 -85 6 -151 21 -23 34 -46 31 -54 -12 -30
-150 -49 -175 -24 -9 9 -13 7 -18 -6 -11 -28 10 -38 78 -37 93 0 158 30 158
72 0 10 -18 38 -39 63 -67 77 -65 109 9 111 47 1 57 9 40 30 -17 20 -48 19
-90 -4z"/>
<path d="M10014 8665 l-24 -24 25 -68 c31 -80 27 -107 -16 -122 -46 -16 -92
-14 -86 2 3 8 1 20 -3 27 -7 11 -11 11 -24 1 -41 -34 6 -88 69 -78 55 9 102
36 115 66 9 23 7 39 -15 96 -17 45 -22 72 -16 78 17 17 111 10 132 -9 14 -13
23 -14 30 -7 17 17 -8 56 -32 50 -10 -3 -22 -1 -25 4 -3 5 -28 9 -55 9 -40 0
-55 -5 -75 -25z"/>
<path d="M14586 8665 c-102 -54 -128 -223 -47 -304 33 -33 111 -20 111 18 0
14 -23 14 -37 0 -20 -20 -54 1 -74 44 -25 56 -24 84 6 143 29 58 60 79 104 71
36 -8 52 10 26 30 -24 17 -53 16 -89 -2z"/>
<path d="M15062 8636 c-30 -33 -42 -40 -46 -29 -11 27 -30 7 -43 -43 -25 -99
-11 -98 77 4 34 40 64 71 66 70 2 -2 -2 -33 -8 -69 -12 -69 -5 -123 15 -116
12 4 18 57 21 167 1 49 -1 55 -20 58 -14 2 -34 -11 -62 -42z"/>
<path d="M13104 8630 c-90 -69 -130 -185 -83 -244 30 -38 72 -33 126 17 l22
20 19 -23 c28 -35 44 -18 26 26 -14 33 -14 40 0 75 30 75 14 171 -21 124 -7
-11 -13 -15 -14 -9 -1 5 -2 18 -3 28 -2 31 -18 28 -72 -14z m57 -40 c15 -9 17
-15 9 -30 -5 -10 -10 -36 -10 -56 0 -29 -8 -46 -32 -71 -88 -90 -130 29 -46
131 31 38 47 43 79 26z"/>
<path d="M7466 8648 c-2 -7 -12 -61 -21 -119 -15 -87 -16 -112 -5 -143 20 -61
44 -47 125 74 61 90 75 105 98 105 36 0 38 13 4 33 -28 17 -29 17 -59 -18 -16
-19 -53 -71 -81 -114 l-52 -79 -3 37 c-2 21 4 78 12 128 9 51 16 95 16 100 0
13 -30 9 -34 -4z"/>
<path d="M10282 8624 c-57 -40 -112 -114 -112 -151 0 -35 36 -45 81 -22 36 18
37 18 42 -1 7 -27 33 -35 52 -16 18 18 10 40 -11 32 -24 -9 -15 11 25 58 43
50 58 83 44 97 -6 6 -26 -8 -52 -38 -69 -78 -71 -81 -104 -97 -40 -19 -45 -7
-18 38 24 38 75 81 116 96 27 10 30 33 4 38 -8 1 -38 -14 -67 -34z"/>
<path d="M12933 8628 c-25 -46 -37 -71 -73 -160 -18 -43 -36 -80 -40 -83 -13
-8 -32 98 -28 162 2 46 0 58 -12 58 -43 0 -19 -262 26 -279 19 -7 58 56 102
164 18 47 36 91 39 98 3 7 13 10 24 7 24 -8 26 26 3 49 -20 21 -19 21 -41 -16z"/>
<path d="M16235 8647 c-2 -6 -6 -36 -9 -66 -3 -29 -12 -64 -20 -76 -18 -27
-106 -87 -120 -82 -19 7 -8 87 18 134 29 52 33 73 11 73 -22 0 -66 -95 -72
-156 -7 -62 6 -84 46 -84 34 0 125 63 150 104 24 39 34 153 14 160 -8 3 -15 0
-18 -7z"/>
<path d="M11990 8641 c-8 -6 -18 -7 -22 -5 -5 3 -28 -6 -52 -20 -118 -69 -130
-168 -21 -168 55 0 145 34 171 65 32 38 30 72 -5 108 -31 30 -46 35 -71 20z
m48 -43 c18 -15 15 -52 -5 -71 -41 -36 -183 -58 -183 -28 0 18 53 72 86 89 39
20 84 24 102 10z"/>
<path d="M14811 8622 c3 -21 -7 -41 -35 -75 -44 -54 -46 -93 -6 -115 31 -18
97 -3 136 32 34 29 29 51 -28 129 -46 63 -71 74 -67 29z m62 -81 c23 -40 22
-48 -13 -66 -34 -17 -76 -20 -85 -5 -9 15 55 99 75 100 3 0 13 -13 23 -29z"/>
<path d="M15801 8624 c-67 -56 -161 -155 -161 -169 0 -34 39 -11 94 54 82 99
126 123 126 71 0 -29 -36 -119 -56 -141 -16 -18 -16 -21 -2 -35 14 -14 19 -10
49 42 45 79 53 163 18 188 -30 21 -32 21 -68 -10z"/>
<path d="M16711 8619 c-64 -82 -69 -241 -8 -239 22 1 120 65 139 90 38 52 41
202 3 170 -7 -6 -16 -25 -19 -41 -3 -16 -9 -43 -12 -60 -7 -34 -89 -123 -107
-116 -16 5 -10 103 9 138 7 15 21 26 31 25 14 -1 18 6 18 29 0 40 -24 42 -54
4z"/>
<path d="M17432 8633 c-16 -31 -23 -108 -13 -136 12 -31 29 -34 74 -11 28 15
24 8 -28 -47 -32 -35 -77 -82 -100 -105 -48 -48 -109 -166 -109 -211 0 -43 22
-68 31 -34 11 45 82 181 122 234 21 29 91 102 155 162 64 59 116 114 116 122
0 22 -26 15 -82 -21 -56 -35 -133 -76 -144 -76 -5 0 -1 68 7 114 5 25 -17 32
-29 9z"/>
<path d="M8063 8621 c-54 -33 -121 -201 -80 -201 16 0 60 78 51 91 -9 15 36
79 61 85 12 3 33 4 46 2 32 -4 38 27 7 36 -37 9 -51 7 -85 -13z"/>
<path d="M10526 8621 c-17 -26 -66 -199 -64 -221 4 -36 32 -32 34 5 2 17 16
71 32 120 17 50 28 93 25 98 -6 10 -21 9 -27 -2z"/>
<path d="M13445 8619 c-11 -6 -32 -24 -47 -41 l-26 -30 1 33 c2 24 -2 34 -13
34 -11 0 -15 -11 -15 -42 0 -22 -3 -39 -7 -36 -5 2 -8 -8 -8 -22 0 -14 -7 -55
-16 -91 -12 -46 -14 -68 -6 -76 14 -14 32 -1 32 22 0 30 80 189 102 205 15 10
26 11 39 5 43 -24 56 7 14 34 -28 19 -25 18 -50 5z"/>
<path d="M16449 8624 c-1 -5 -1 -13 0 -18 1 -5 -7 -15 -18 -22 -24 -18 -67
-90 -75 -130 -6 -25 -2 -37 18 -60 l24 -29 56 19 c71 24 126 80 126 129 0 44
-43 107 -75 107 -13 0 -30 3 -39 6 -9 3 -17 2 -17 -2z m76 -64 c29 -32 22 -70
-18 -107 -57 -51 -117 -57 -117 -12 0 29 44 104 72 124 29 20 41 19 63 -5z"/>
<path d="M15592 8608 c-25 -33 -63 -122 -60 -146 4 -30 28 -43 28 -14 0 11 15
50 34 88 19 37 32 72 30 76 -7 12 -20 10 -32 -4z"/>
<path d="M7721 8554 c-52 -57 -65 -84 -59 -125 5 -36 42 -36 99 0 43 27 49 28
49 12 0 -24 26 -45 46 -37 13 5 14 9 4 21 -7 9 -8 15 -2 15 5 0 8 9 5 19 -3
10 3 31 12 45 30 45 -6 43 -69 -3 -61 -45 -103 -67 -112 -59 -18 19 86 141
111 131 10 -3 15 2 15 16 0 41 -44 26 -99 -35z"/>
<path d="M8422 8593 c-37 -18 -99 -93 -109 -131 -3 -14 0 -29 9 -38 13 -13 21
-11 68 21 29 20 57 38 61 41 5 2 6 -17 2 -44 -6 -52 8 -92 32 -92 23 0 28 20
11 39 -15 16 -15 25 -5 67 6 27 20 64 31 83 18 32 18 35 2 52 -21 23 -58 24
-102 2z m20 -63 c-30 -28 -63 -55 -75 -62 -21 -11 -21 -11 -3 18 38 59 76 88
126 93 3 0 -19 -22 -48 -49z"/>
<path d="M6679 8573 c-40 -6 -129 -63 -161 -104 -35 -43 -39 -90 -12 -120 26
-29 83 -20 140 21 42 30 44 30 44 10 0 -35 18 -58 49 -65 34 -7 71 9 71 30 0
12 -8 14 -39 9 -47 -8 -56 8 -40 72 18 69 -1 79 -46 27 -67 -79 -156 -109
-163 -57 -9 61 159 171 204 133 12 -10 17 -10 27 0 9 10 7 17 -12 32 -13 10
-26 18 -30 18 -3 -1 -18 -4 -32 -6z"/>
<path d="M8192 8530 c-35 -60 -40 -95 -17 -103 16 -7 26 4 30 36 4 38 9 50 28
69 18 19 24 43 8 34 -5 -4 -11 0 -13 6 -3 7 -19 -12 -36 -42z"/>
<path d="M13635 8529 c-51 -53 -133 -91 -119 -55 3 7 -2 16 -11 20 -18 7 -28
-12 -23 -46 3 -20 8 -23 40 -22 23 1 54 12 80 29 l42 28 -18 -29 c-55 -86
-174 -255 -206 -294 -59 -71 -100 -141 -100 -171 0 -33 18 -48 26 -22 16 51
41 93 122 200 145 192 233 333 230 367 -4 43 -19 41 -63 -5z"/>
<path d="M5705 8551 c-44 -9 -44 -41 -1 -89 40 -44 46 -78 18 -112 -21 -26
-42 -20 -42 11 0 10 -7 19 -15 19 -10 0 -15 -11 -15 -35 0 -28 5 -38 26 -47
31 -14 50 -5 82 42 32 48 28 83 -13 129 -19 21 -35 42 -35 46 0 4 16 5 35 2
40 -7 57 10 30 30 -20 14 -24 14 -70 4z"/>
<path d="M5550 8494 c-12 -30 -13 -51 -2 -57 4 -2 1 -2 -5 -1 -7 2 -18 -7 -24
-19 -7 -12 -16 -25 -22 -28 -13 -9 1 -49 17 -49 16 0 79 147 72 166 -8 22 -26
16 -36 -12z"/>
<path d="M3221 8368 c-11 -40 -29 -111 -39 -157 -16 -72 -22 -85 -43 -93 -42
-16 -184 -22 -220 -9 -42 14 -65 -2 -34 -26 16 -12 44 -14 143 -11 67 2 122 3
122 2 0 -1 -6 -37 -14 -80 -29 -161 -29 -154 -9 -154 15 0 21 14 32 83 23 150
30 174 54 181 11 3 23 3 25 1 2 -2 -3 -38 -12 -80 -21 -99 -21 -165 -2 -165 8
0 21 9 29 20 12 17 133 120 141 120 2 0 3 -46 2 -102 -1 -90 1 -103 17 -106
15 -3 17 7 17 111 0 161 -12 167 -128 69 -29 -25 -54 -43 -56 -41 -2 2 6 47
18 100 18 80 27 101 51 122 27 22 30 32 29 79 -1 83 -12 130 -31 126 -12 -2
-21 -29 -35 -98 -18 -91 -34 -120 -64 -120 -14 0 13 135 46 227 20 57 19 73
-4 73 -8 0 -22 -31 -35 -72z m86 -170 c-3 -8 -6 -5 -6 6 -1 11 2 17 5 13 3 -3
4 -12 1 -19z"/>
<path d="M7957 8304 c-4 -4 -7 -30 -7 -58 0 -28 -10 -81 -22 -118 l-21 -67
-51 -3 c-37 -2 -51 -7 -51 -18 0 -12 11 -14 49 -11 l49 3 -8 -28 c-15 -60 -35
-160 -35 -177 0 -12 6 -17 17 -15 12 2 20 22 29 73 7 39 18 86 23 105 l10 35
63 -3 c78 -4 93 -8 81 -25 -27 -35 -54 -122 -48 -153 9 -53 41 -67 141 -65 86
1 133 18 134 49 0 15 -22 16 -36 2 -16 -16 -144 -24 -176 -11 -22 8 -28 17
-28 41 0 35 19 77 46 102 20 17 102 35 141 30 12 -1 24 1 27 6 11 18 -15 79
-39 92 -22 12 -31 10 -80 -15 -50 -25 -63 -27 -130 -23 -42 3 -78 7 -81 10 -3
3 2 31 11 62 28 96 23 211 -8 180z m257 -275 c-31 -12 -39 -10 -19 5 11 8 24
12 29 8 5 -3 1 -9 -10 -13z"/>
<path d="M9357 8294 c-4 -4 -7 -26 -7 -48 -1 -23 -7 -57 -15 -76 -94 -242
-113 -326 -81 -358 23 -23 43 -2 25 26 -16 26 -6 69 47 206 45 117 66 191 62
224 -3 26 -18 38 -31 26z"/>
<path d="M12292 8273 c-110 -3 -123 -5 -120 -21 3 -15 17 -17 141 -13 l137 3
-29 -63 c-41 -90 -168 -474 -176 -532 -8 -51 -19 -65 -38 -49 -7 6 -29 13 -50
17 -21 4 -47 16 -57 27 -16 18 -19 18 -34 3 -12 -12 -13 -21 -6 -35 14 -26 35
-36 90 -44 25 -4 58 -12 73 -18 15 -6 30 -8 33 -5 4 3 15 49 25 101 21 105
140 457 185 548 41 84 35 87 -174 81z"/>
<path d="M4605 8220 c3 -5 2 -10 -3 -10 -5 0 -10 -22 -10 -48 -1 -26 -15 -91
-31 -143 -55 -178 -45 -199 46 -99 31 33 59 60 64 60 5 0 9 -15 9 -34 0 -19 9
-44 19 -57 18 -23 21 -23 67 -11 54 15 74 28 74 48 0 18 -11 18 -46 -1 -58
-30 -84 -16 -84 45 0 75 -30 78 -94 10 -25 -27 -46 -48 -46 -46 0 1 11 35 24
74 39 112 46 222 15 222 -6 0 -7 -4 -4 -10z"/>
<path d="M10513 8201 c-92 -7 -112 -18 -96 -54 9 -19 4 -48 -28 -151 -67 -224
-87 -367 -49 -357 46 13 92 11 147 -8 60 -20 97 -19 90 2 -2 6 -16 14 -31 18
-16 4 -36 15 -47 25 -23 20 -99 30 -126 16 -19 -11 -20 -9 -11 46 10 65 58
250 86 332 10 30 17 60 15 67 -7 19 64 33 166 33 94 0 94 0 76 -20 -14 -16
-16 -23 -7 -32 9 -9 16 -7 32 7 16 15 18 21 7 34 -10 14 -10 14 4 4 13 -11 20
-10 37 6 41 35 28 41 -80 39 -57 -1 -140 -4 -185 -7z"/>
<path d="M7500 8155 c0 -39 24 -49 33 -14 7 27 -1 49 -19 49 -9 0 -14 -12 -14
-35z"/>
<path d="M11845 8113 c-7 -48 -43 -131 -109 -253 -37 -68 -46 -110 -22 -110 7
0 21 11 30 25 14 21 20 24 36 15 37 -20 140 18 198 73 43 41 42 72 -2 93 -47
23 -98 11 -146 -32 l-38 -35 38 78 c20 43 41 94 45 113 4 19 12 40 17 47 13
16 2 33 -21 33 -15 0 -20 -11 -26 -47z m120 -194 c16 -25 -98 -99 -152 -99
-34 0 -28 12 27 64 39 36 56 46 84 46 19 0 38 -5 41 -11z"/>
<path d="M12643 8110 c-30 -12 -49 -48 -33 -64 8 -8 15 -6 28 10 9 12 26 24
37 28 23 8 136 -2 156 -14 20 -13 -10 -41 -107 -105 -178 -116 -227 -190 -173
-259 28 -36 47 -20 26 21 -29 56 10 105 170 213 112 75 141 107 124 138 -6 11
-25 25 -42 31 -38 13 -154 14 -186 1z"/>
<path d="M5670 8083 c-97 -33 -180 -119 -154 -161 19 -30 42 -25 116 27 39 28
73 49 75 47 3 -2 -1 -40 -7 -85 -11 -71 -10 -84 4 -106 9 -14 20 -25 24 -25 4
0 7 37 7 83 0 59 5 92 18 116 42 82 1 132 -83 104z m55 -33 c3 -5 0 -10 -8
-10 -8 0 -47 -22 -88 -50 -40 -27 -75 -48 -77 -46 -8 8 18 44 45 62 39 25 96
53 110 54 6 0 15 -4 18 -10z"/>
<path d="M8833 8083 c-11 -31 -126 -198 -129 -188 -1 6 -8 50 -14 98 -10 73
-15 87 -29 85 -9 -2 -15 -12 -14 -23 1 -11 5 -51 9 -90 7 -84 21 -145 33 -145
19 0 181 237 181 265 0 21 -29 19 -37 -2z"/>
<path d="M5880 8064 c-6 -14 -10 -28 -10 -32 0 -4 -16 -51 -37 -105 -29 -78
-34 -100 -24 -110 14 -14 13 -15 101 108 74 103 85 112 76 60 -4 -22 -10 -50
-12 -61 -14 -55 86 -84 162 -48 40 19 50 32 36 46 -7 7 -18 5 -33 -5 -36 -23
-92 -29 -113 -14 -17 13 -18 19 -6 79 21 104 -2 127 -61 61 -19 -21 -44 -51
-56 -68 l-23 -30 20 60 c11 33 18 65 16 72 -8 21 -26 15 -36 -13z"/>
<path d="M3525 7988 c-46 -94 -53 -122 -34 -134 14 -8 50 36 44 54 -5 15 43
122 56 122 4 0 11 -4 14 -10 10 -17 35 -11 35 8 0 21 -33 52 -55 52 -10 0 -33
-36 -60 -92z"/>
<path d="M7582 7996 c-49 -51 -82 -93 -82 -105 0 -33 25 -25 52 17 35 53 101
117 106 102 2 -6 -1 -38 -7 -71 -9 -44 -9 -64 -1 -80 17 -31 25 -14 38 82 12
85 6 139 -16 139 -5 0 -45 -38 -90 -84z"/>
<path d="M8993 8057 c-66 -37 -133 -127 -119 -162 9 -25 38 -17 114 35 47 31
71 43 67 32 -22 -58 -34 -126 -24 -144 17 -31 34 -15 35 33 1 24 13 74 26 111
26 71 26 76 -9 96 -28 15 -61 15 -90 -1z m67 -27 c0 -5 -35 -33 -77 -62 -71
-47 -76 -49 -59 -22 38 57 136 119 136 84z"/>
<path d="M11033 8063 c-29 -6 -110 -78 -129 -115 -33 -65 5 -75 99 -26 34 18
65 34 68 36 3 1 4 -11 1 -28 -10 -68 50 -100 119 -64 24 12 28 18 19 29 -9 11
-16 11 -39 -3 -16 -9 -35 -12 -46 -9 -18 8 -18 11 0 124 4 28 1 35 -25 48 -16
8 -33 14 -37 14 -4 -1 -18 -4 -30 -6z m50 -39 c3 -4 -4 -14 -16 -24 -29 -23
-128 -73 -133 -67 -2 2 18 25 45 50 46 43 86 59 104 41z"/>
<path d="M7447 8053 c-4 -3 -7 -14 -7 -22 0 -9 -11 -33 -26 -54 -50 -74 -65
-157 -28 -157 8 0 14 3 15 8 1 4 2 21 4 39 1 17 19 57 39 90 37 60 46 103 23
103 -8 0 -17 -3 -20 -7z"/>
<path d="M3765 8020 c-3 -5 7 -27 23 -47 43 -54 47 -77 21 -102 -30 -28 -54
-34 -79 -21 -33 18 -22 73 23 113 15 12 17 21 10 28 -15 15 -47 -7 -72 -52
-26 -46 -26 -69 0 -103 26 -33 78 -35 122 -4 41 29 47 37 47 73 0 51 -77 144
-95 115z"/>
<path d="M8476 8000 c-37 -45 -100 -176 -92 -195 9 -25 28 -13 41 26 19 52 84
159 98 159 7 0 21 -7 31 -15 41 -31 51 -3 13 33 -32 30 -61 27 -91 -8z"/>
<path d="M3974 7973 c-38 -65 -39 -128 -3 -155 23 -17 31 -18 67 -9 70 19 130
96 117 149 -7 29 -41 26 -38 -3 8 -69 -97 -148 -135 -102 -16 19 2 79 33 110
16 15 23 31 19 41 -11 28 -31 17 -60 -31z"/>
<path d="M4273 7991 c-38 -24 -67 -74 -58 -101 12 -36 53 -21 122 43 l32 30
11 -28 c12 -33 3 -114 -25 -207 -18 -64 -18 -64 -110 -48 -63 10 -72 3 -86
-75 -14 -74 -4 -138 25 -172 44 -50 99 -5 151 124 23 56 25 58 61 58 21 0 39
6 41 13 3 6 -3 12 -12 12 -9 0 -25 4 -35 10 -18 9 -17 12 3 77 26 85 30 234 7
257 -27 25 -91 29 -127 7z m31 -42 c-24 -27 -60 -47 -49 -27 16 28 39 48 53
48 12 0 11 -4 -4 -21z m10 -319 c11 -11 -7 -62 -44 -127 -32 -56 -53 -66 -70
-34 -11 22 -13 122 -4 159 6 22 10 23 58 17 28 -4 55 -11 60 -15z"/>
<path d="M11319 7918 c0 -2 -1 -29 -2 -60 -2 -66 -18 -86 -147 -190 -73 -60
-87 -77 -64 -85 22 -7 204 151 230 199 20 38 19 138 -1 138 -8 0 -15 -1 -16
-2z"/>
<path d="M12651 7564 c-24 -30 -26 -40 -10 -50 7 -4 19 2 28 13 9 12 26 26 39
32 27 14 20 31 -13 31 -14 0 -32 -11 -44 -26z"/>
<path d="M10998 6978 c-21 -32 -49 -112 -93 -258 -21 -69 -57 -176 -81 -238
-47 -123 -51 -142 -30 -142 14 0 98 208 131 325 50 179 86 273 103 271 9 0 17
5 16 12 -1 6 -2 21 -2 32 -3 27 -26 25 -44 -2z"/>
<path d="M6685 6828 c-8 -28 -15 -73 -15 -99 0 -52 -44 -188 -91 -281 -16 -32
-29 -64 -29 -73 0 -27 29 -16 43 18 16 36 64 97 78 97 5 0 9 -7 9 -16 0 -8 14
-29 30 -46 24 -23 36 -29 55 -24 20 5 25 3 25 -13 0 -25 25 -44 48 -37 70 23
189 143 164 168 -13 13 -72 -60 -64 -80 4 -11 1 -14 -9 -10 -8 3 -33 -5 -55
-18 -70 -42 -75 -23 -11 40 54 52 71 95 51 125 -9 12 -21 18 -30 14 -19 -7
-71 -83 -80 -117 -6 -27 -42 -44 -64 -31 -6 4 -18 23 -28 43 -11 24 -25 38
-39 40 -21 3 -22 5 -9 30 21 41 46 153 46 203 0 25 7 55 16 67 18 26 12 52
-10 52 -10 0 -21 -19 -31 -52z"/>
<path d="M10669 6838 c-9 -17 -9 -23 0 -26 16 -5 14 -22 -3 -22 -21 0 -51 -80
-95 -257 -46 -180 -47 -193 -26 -193 33 0 128 44 161 75 30 29 34 37 24 54
-19 36 -57 37 -104 4 l-42 -30 32 126 c18 69 47 159 64 200 35 86 34 77 15 85
-9 3 -19 -3 -26 -16z m26 -388 c-9 -14 -95 -63 -101 -58 -9 9 66 68 87 68 11
0 17 -4 14 -10z"/>
<path d="M8165 6775 c-24 -26 -61 -74 -80 -108 -20 -34 -33 -51 -29 -37 14 52
36 96 55 110 22 17 17 50 -7 50 -21 0 -54 -71 -116 -255 -75 -220 -75 -218
-54 -213 18 3 46 52 120 212 63 136 144 246 180 246 3 0 6 -23 6 -51 0 -33
-14 -94 -40 -171 -22 -66 -37 -124 -34 -129 13 -21 31 -5 63 52 30 56 35 60
60 54 35 -9 35 -8 23 -57 -23 -95 9 -128 110 -111 104 18 148 33 148 53 0 18
-20 21 -47 6 -38 -19 -148 -35 -167 -24 -17 9 -20 49 -7 83 6 16 16 19 57 16
65 -3 85 13 86 68 1 80 -40 87 -117 20 -37 -33 -37 -33 -78 -18 -26 9 -41 20
-40 29 0 8 7 47 14 85 10 59 10 75 -2 100 -22 47 -51 44 -104 -10z m295 -194
c0 -36 -12 -51 -40 -51 -41 0 -44 15 -9 44 36 31 49 33 49 7z"/>
<path d="M6305 6759 c-79 -49 -155 -110 -155 -125 0 -29 23 -24 62 14 22 22
59 50 81 62 l41 23 -41 -75 c-23 -41 -67 -114 -97 -163 -31 -49 -56 -95 -56
-102 0 -26 29 -24 82 6 30 17 61 31 69 31 8 0 21 -15 29 -33 37 -79 151 -22
184 93 12 43 14 71 7 132 -5 42 -6 88 -3 103 4 22 2 26 -14 23 -18 -3 -19 -12
-16 -115 3 -95 0 -119 -17 -157 -17 -40 -68 -86 -94 -86 -5 0 -16 18 -24 40
-19 47 -41 51 -104 19 l-40 -20 11 20 c6 12 35 60 64 108 70 116 114 205 109
221 -7 18 -23 15 -78 -19z"/>
<path d="M10257 6769 c-4 -13 1 -29 14 -42 25 -27 41 -12 31 28 -10 36 -37 45
-45 14z"/>
<path d="M15171 6735 c-18 -20 -30 -42 -28 -48 6 -18 27 -20 27 -3 0 15 11 20
37 17 19 -2 27 39 11 56 -13 12 -19 10 -47 -22z"/>
<path d="M13612 6656 c-89 -84 -162 -236 -115 -236 5 0 28 26 51 58 47 65 135
145 171 157 20 6 22 5 16 -16 -4 -12 -25 -60 -46 -106 -48 -106 -42 -131 19
-75 16 15 55 42 86 61 l57 34 24 -23 c14 -13 25 -33 25 -46 0 -37 33 -68 72
-67 39 1 138 40 138 55 0 5 4 7 9 4 5 -3 14 1 21 9 23 27 -15 28 -67 1 -27
-15 -67 -27 -89 -29 -35 -2 -39 0 -42 24 -3 22 8 32 77 77 78 51 104 83 83
104 -12 12 -110 -48 -154 -95 l-28 -29 -31 26 c-17 14 -34 26 -38 26 -4 0 -33
-16 -65 -35 -32 -19 -60 -35 -62 -35 -3 0 7 22 21 50 30 59 34 119 8 121 -10
1 -24 0 -32 -1 -8 -1 -22 8 -32 21 l-17 23 -60 -58z m67 2 c-2 -2 -22 -19 -44
-38 l-40 -35 39 42 c22 24 42 40 45 38 2 -3 2 -6 0 -7z"/>
<path d="M11032 6630 c-51 -36 -93 -93 -111 -148 -12 -36 -12 -44 3 -66 9 -14
26 -28 39 -31 29 -8 203 30 234 50 40 27 22 57 -19 32 -31 -20 -159 -49 -194
-45 -35 4 -42 33 -19 77 13 25 20 30 39 25 46 -11 126 43 126 86 0 56 -38 64
-98 20z m68 -20 c0 -13 -60 -50 -80 -50 -10 0 -3 11 18 30 32 30 62 39 62 20z"/>
<path d="M14277 6630 c-37 -29 -41 -53 -18 -106 27 -61 27 -67 -11 -99 -24
-20 -39 -25 -60 -21 -23 5 -28 2 -28 -14 0 -49 83 -29 134 31 29 35 29 53 -1
118 -19 39 -9 64 26 69 15 3 21 8 17 19 -3 8 -6 17 -6 19 0 11 -30 2 -53 -16z"/>
<path d="M12972 6604 c-68 -34 -106 -82 -97 -123 4 -17 11 -33 16 -36 21 -14
6 -36 -41 -60 -27 -14 -56 -25 -65 -25 -19 0 -20 -29 -1 -36 20 -8 125 46 144
74 15 23 15 27 -1 54 -9 16 -17 37 -17 47 0 33 93 97 123 85 18 -7 29 9 21 30
-8 22 -22 20 -82 -10z"/>
<path d="M9374 6605 c-3 -8 3 -43 14 -77 11 -35 28 -89 37 -120 9 -34 21 -58
29 -58 8 0 36 39 63 87 48 85 58 95 97 107 15 5 16 9 6 21 -29 36 -63 11 -121
-87 -35 -60 -49 -71 -49 -39 0 10 -6 37 -14 59 -10 27 -11 43 -4 50 7 7 3 20
-13 41 -25 34 -37 38 -45 16z"/>
<path d="M12746 6604 c-77 -24 -134 -65 -149 -105 -8 -23 19 -71 54 -95 l31
-22 -50 -7 c-57 -8 -93 -28 -77 -43 7 -7 33 -5 75 5 36 8 75 17 88 19 36 7 26
31 -28 66 -66 43 -72 64 -29 100 37 31 143 70 180 66 16 -2 24 2 24 12 0 21
-58 23 -119 4z"/>
<path d="M13357 6614 c-4 -4 -7 -23 -7 -43 0 -48 -40 -132 -76 -160 -28 -22
-88 -51 -105 -51 -24 0 3 137 37 188 11 16 13 27 6 34 -23 23 -49 -20 -77
-124 -20 -76 -15 -114 19 -129 34 -16 136 38 176 92 34 48 63 128 58 165 -3
27 -18 41 -31 28z"/>
<path d="M7040 6583 c0 -16 -16 -64 -35 -108 -19 -44 -35 -85 -35 -92 0 -27
30 -11 47 24 25 53 104 133 131 133 33 0 37 -23 18 -98 -14 -58 -14 -68 -1
-81 12 -12 15 -13 19 0 15 47 26 114 26 153 0 43 -1 45 -37 55 -31 9 -43 7
-71 -10 -33 -19 -34 -19 -30 -1 6 21 -8 52 -22 52 -6 0 -10 -12 -10 -27z"/>
<path d="M9709 6566 c-98 -66 -131 -116 -95 -145 17 -14 72 10 123 53 l29 24
-4 -34 c-8 -63 53 -98 93 -54 20 22 10 30 -35 27 -27 -2 -27 -4 -14 81 8 54
-10 56 -63 9 -46 -41 -84 -67 -97 -67 -30 0 113 109 151 114 10 2 18 9 18 17
0 28 -42 18 -106 -25z"/>
<path d="M9992 6581 c-39 -42 -99 -188 -84 -203 15 -15 24 -5 46 52 9 25 27
65 40 90 19 37 28 45 51 45 37 0 42 18 10 33 -34 16 -33 16 -63 -17z"/>
<path d="M5390 6550 c-25 -25 -26 -62 -2 -83 25 -23 33 -22 67 14 26 29 28 32
12 44 -9 7 -17 20 -17 29 0 23 -36 20 -60 -4z"/>
<path d="M10297 6553 c-8 -10 -17 -25 -19 -33 -2 -8 -9 -21 -15 -28 -16 -17
-17 -74 -1 -90 20 -20 43 -14 91 23 l46 35 3 -42 c2 -31 8 -44 20 -46 14 -3
17 4 16 30 0 18 2 57 7 86 9 68 -1 67 -77 -3 -56 -52 -88 -68 -88 -45 0 15 29
71 47 92 14 16 11 38 -6 38 -4 0 -15 -8 -24 -17z"/>
<path d="M10101 6484 c-14 -80 -14 -94 3 -94 10 0 18 20 26 58 6 31 13 67 15
79 4 17 1 21 -14 20 -14 -1 -21 -14 -30 -63z"/>
<path d="M15080 6514 c-40 -105 -48 -155 -25 -155 14 -1 23 19 30 64 3 20 15
46 26 56 17 16 19 23 10 40 -16 28 -29 26 -41 -5z"/>
<path d="M15233 6491 c-85 -71 -134 -151 -93 -151 11 0 64 79 65 95 0 6 5 10
10 10 6 0 16 4 23 9 19 12 25 1 13 -22 -16 -30 -13 -78 5 -93 28 -23 183 -5
201 23 9 16 -19 28 -39 17 -27 -14 -134 -23 -141 -12 -4 6 5 42 18 82 14 39
25 75 25 81 0 22 -31 8 -87 -39z"/>
<path d="M12339 6471 c-39 -38 -51 -82 -28 -96 5 -4 28 5 49 19 22 14 41 26
44 26 2 0 -3 -27 -11 -61 -20 -77 -9 -109 37 -109 28 0 31 3 28 27 -4 31 -24
42 -32 16 -5 -17 -3 4 11 118 7 58 -6 67 -54 39 -26 -15 -33 -17 -23 -5 37 45
82 42 99 -6 6 -18 16 -29 23 -27 23 8 20 34 -7 67 -39 46 -85 43 -136 -8z"/>
<path d="M14630 6277 c0 -59 -31 -189 -58 -244 -20 -42 -28 -51 -39 -42 -20
17 -84 14 -127 -6 -66 -31 -104 -121 -72 -170 31 -48 83 -27 172 67 73 79 117
161 138 258 24 112 25 163 4 168 -14 3 -18 -3 -18 -31z m-120 -325 c0 -32
-127 -142 -144 -125 -11 11 -7 53 8 82 26 50 136 85 136 43z"/>
<path d="M10637 6233 c-2 -4 -8 -26 -11 -48 -4 -22 -21 -80 -38 -130 -45 -137
-78 -251 -80 -288 -4 -47 21 -45 126 11 100 53 124 77 103 106 -20 27 -108 34
-142 12 -14 -9 -25 -15 -25 -14 0 2 20 64 44 139 47 144 59 209 39 216 -6 2
-13 0 -16 -4z m42 -359 c17 -4 28 -11 25 -15 -8 -13 -165 -91 -171 -85 -7 6
91 106 104 106 6 0 24 -3 42 -6z"/>
<path d="M10434 6215 c-4 -8 -1 -21 5 -29 14 -17 51 -28 51 -14 0 5 5 6 10 3
6 -3 10 -3 10 2 0 17 -16 32 -43 42 -22 9 -29 8 -33 -4z"/>
<path d="M10992 6188 c-73 -126 -166 -357 -160 -400 5 -39 32 -28 39 17 12 78
115 321 156 367 16 17 12 48 -6 48 -5 0 -18 -15 -29 -32z"/>
<path d="M15307 6193 c-4 -3 -7 -23 -7 -44 0 -21 -8 -54 -17 -74 -18 -35 -19
-36 -63 -30 -31 3 -52 1 -65 -8 -28 -21 -10 -35 39 -30 24 3 46 1 49 -4 6 -9
-24 -148 -41 -194 -6 -15 -7 -32 -2 -40 16 -25 31 5 59 118 l26 108 60 6 c71
7 95 16 95 36 0 12 -7 14 -27 8 -40 -10 -113 -18 -113 -12 0 3 9 24 20 48 11
24 20 56 20 70 0 27 -21 54 -33 42z"/>
<path d="M8142 6120 c-12 -16 -22 -33 -22 -37 0 -4 -21 -51 -46 -103 -48 -99
-68 -176 -44 -168 17 5 92 188 85 206 -3 7 -1 10 5 7 11 -7 30 26 30 53 0 11
10 26 22 34 12 8 18 19 14 26 -11 18 -20 15 -44 -18z"/>
<path d="M13065 6130 c-3 -5 -4 -13 -2 -18 3 -4 -1 -30 -8 -57 -6 -27 -10 -64
-8 -82 4 -27 1 -33 -14 -33 -11 0 -24 5 -31 12 -9 9 -15 9 -23 1 -18 -18 -3
-41 27 -45 27 -3 27 -3 25 -75 -1 -42 2 -74 8 -78 17 -10 27 32 30 118 1 27 3
28 33 22 17 -4 49 -7 70 -7 34 1 37 -1 28 -18 -18 -33 -12 -79 15 -105 30 -31
74 -32 135 -2 48 24 97 84 81 100 -11 11 -31 1 -31 -16 0 -15 -55 -53 -97 -67
-61 -22 -99 25 -66 81 12 22 34 37 69 50 64 24 92 52 74 74 -18 22 -32 19 -89
-19 -61 -41 -96 -50 -162 -41 l-50 7 3 69 c2 38 6 69 9 69 4 0 9 11 11 24 7
34 -21 61 -37 36z"/>
<path d="M12657 6108 c-7 -26 -1 -38 19 -38 9 0 14 11 14 30 0 35 -25 41 -33
8z"/>
<path d="M5414 6109 c-3 -6 -2 -15 3 -20 13 -13 43 -1 43 17 0 16 -36 19 -46
3z"/>
<path d="M8006 6073 c-62 -123 -110 -317 -87 -352 16 -25 31 -1 31 49 0 56 39
186 81 273 27 57 29 77 9 77 -6 0 -20 -21 -34 -47z"/>
<path d="M15569 6090 c-70 -37 -139 -138 -139 -203 0 -27 49 -57 94 -57 65 0
164 28 241 66 84 43 125 79 125 111 0 26 -21 31 -40 8 -7 -8 -18 -15 -26 -15
-7 0 -20 -12 -29 -28 -32 -54 -153 -102 -257 -102 -64 0 -75 10 -64 54 4 18
11 23 25 19 23 -6 87 26 130 66 26 24 32 37 29 63 -2 27 -8 33 -28 35 -14 2
-41 -6 -61 -17z m59 -32 c-5 -15 -95 -78 -110 -78 -17 0 17 43 52 68 36 24 64
29 58 10z"/>
<path d="M14796 6071 c-9 -14 4 -41 21 -41 9 0 13 8 11 22 -3 23 -23 35 -32
19z"/>
<path d="M9349 6046 c-95 -51 -185 -222 -223 -425 -20 -104 -20 -121 -1 -121
17 0 37 41 39 82 0 16 4 28 8 28 4 0 17 30 28 68 12 37 26 74 33 82 7 8 43 30
80 49 80 40 142 87 179 137 49 66 29 107 -57 119 -31 4 -51 -1 -86 -19z m125
-29 c16 -12 15 -15 -12 -53 -26 -36 -141 -124 -162 -124 -4 0 -10 9 -13 20 -3
11 -12 20 -21 20 -13 0 -12 6 6 38 12 20 31 48 42 60 40 46 123 66 160 39z
m-243 -190 c-10 -9 -11 -8 -5 6 3 10 9 15 12 12 3 -3 0 -11 -7 -18z"/>
<path d="M10023 6050 c-51 -31 -67 -62 -53 -105 6 -20 25 -46 41 -58 38 -27
35 -55 -9 -80 -33 -20 -33 -20 -39 2 -6 22 -27 28 -38 11 -4 -6 1 -22 9 -35
23 -35 63 -32 109 6 48 40 48 66 -3 118 -44 45 -49 65 -24 93 16 16 18 17 29
1 15 -21 38 -7 30 18 -10 30 24 24 35 -7 11 -28 33 -28 38 0 6 27 -27 56 -62
56 -17 0 -45 -9 -63 -20z"/>
<path d="M5176 6039 c-32 -25 -34 -59 -7 -128 22 -59 13 -86 -26 -76 -22 5
-24 3 -21 -21 4 -36 18 -39 59 -11 42 28 46 54 19 132 -19 56 -20 61 -3 72 9
7 25 11 34 8 23 -7 34 12 19 30 -17 21 -43 19 -74 -6z"/>
<path d="M4317 6021 c-35 -31 -82 -110 -97 -162 -13 -45 6 -88 46 -105 42 -18
74 -17 98 1 22 17 13 35 -14 28 -11 -3 -17 -9 -14 -14 3 -5 0 -9 -5 -9 -6 0
-11 4 -11 9 0 5 -13 11 -29 14 -18 4 -32 14 -36 27 -22 71 113 252 139 185 7
-19 25 -19 33 0 8 21 -25 55 -53 55 -13 0 -38 -13 -57 -29z"/>
<path d="M9877 6014 c-49 -32 -78 -79 -70 -114 3 -19 0 -29 -11 -33 -8 -3 -18
-2 -21 3 -4 6 -14 10 -23 10 -13 0 -14 -2 -3 -9 9 -6 10 -10 2 -12 -8 -3 -8
-10 2 -23 12 -17 18 -17 53 -6 53 17 56 21 43 58 -15 43 7 77 67 104 45 20 54
41 18 45 -10 1 -36 -9 -57 -23z"/>
<path d="M3447 6011 c-52 -21 -77 -38 -77 -53 0 -5 21 -31 46 -58 28 -29 44
-55 41 -64 -9 -23 -99 -71 -132 -71 -20 0 -31 -6 -33 -17 -8 -40 112 -7 178
48 42 36 38 62 -15 114 l-45 44 27 15 c16 8 42 17 58 19 17 2 32 5 34 8 2 2
10 -4 17 -14 18 -24 44 0 28 26 -15 24 -70 25 -127 3z"/>
<path d="M4910 6001 c-37 -36 -37 -63 -5 -120 27 -46 23 -60 -16 -61 -21 0
-29 -9 -22 -26 7 -18 27 -18 62 1 41 21 45 42 18 84 -34 52 -37 66 -21 89 10
14 28 22 57 24 59 4 59 32 -1 36 -36 3 -47 -1 -72 -27z"/>
<path d="M11153 6020 c-61 -25 -127 -83 -155 -135 -27 -51 -28 -57 -14 -88 21
-51 61 -64 145 -47 77 15 123 33 140 54 20 24 -4 27 -51 6 -24 -10 -73 -22
-109 -26 -70 -7 -99 6 -99 46 0 38 32 61 88 64 42 3 59 9 83 32 32 31 37 64
13 88 -8 9 -16 16 -17 15 -1 0 -12 -4 -24 -9z m6 -66 c-14 -15 -34 -24 -53
-24 l-31 0 44 29 c51 34 74 31 40 -5z"/>
<path d="M13569 5989 c-18 -20 -39 -64 -58 -122 -27 -84 -30 -117 -12 -117 15
0 62 83 52 93 -6 6 -4 24 5 50 31 88 64 111 83 57 12 -36 31 -40 31 -6 0 79
-49 100 -101 45z"/>
<path d="M10347 6003 c-4 -3 -7 -16 -7 -27 0 -12 -14 -41 -30 -65 -34 -50 -45
-83 -36 -107 9 -22 29 -12 33 17 2 13 17 46 34 74 36 58 50 115 27 115 -8 0
-18 -3 -21 -7z"/>
<path d="M12777 5950 c-31 -33 -69 -81 -83 -106 -24 -41 -25 -47 -11 -61 17
-17 41 -8 33 12 -6 17 21 60 78 120 l46 50 -7 -65 c-13 -105 -10 -180 7 -190
8 -5 17 -7 20 -5 3 2 5 70 5 151 0 179 -5 184 -88 94z"/>
<path d="M4010 5984 c-41 -28 -101 -87 -116 -116 -23 -44 -18 -93 12 -117 39
-31 85 -27 124 9 17 16 29 34 25 40 -10 16 -24 12 -50 -15 -18 -20 -29 -24
-49 -19 -62 15 -58 61 11 135 37 40 52 49 69 45 28 -7 38 7 24 34 -13 24 -19
25 -50 4z"/>
<path d="M4649 5977 c-47 -31 -99 -111 -99 -152 0 -55 52 -84 117 -65 50 14
80 37 67 50 -7 7 -22 6 -47 -5 -75 -31 -120 -11 -97 45 11 27 17 30 59 30 77
0 127 63 83 103 -25 23 -43 21 -83 -6z m61 -30 c0 -15 -41 -37 -68 -37 -13 1
-11 6 11 25 31 27 57 33 57 12z"/>
<path d="M5860 5940 c-40 -36 -45 -38 -48 -20 -5 32 -17 24 -56 -40 -36 -59
-41 -90 -14 -90 7 0 49 35 93 77 l80 77 3 -69 c3 -72 19 -105 51 -105 9 0 37
8 64 17 45 16 47 19 45 51 -3 39 -24 63 -34 38 -3 -9 -4 -22 -1 -30 7 -16 -41
-40 -70 -34 -15 3 -18 12 -15 65 4 67 -9 103 -36 103 -9 -1 -37 -19 -62 -40z"/>
<path d="M9547 5973 c-11 -10 -8 -41 4 -48 6 -4 17 1 24 11 8 11 15 15 15 10
0 -6 -12 -23 -27 -38 -22 -23 -24 -28 -9 -28 9 0 15 -4 12 -9 -3 -5 -14 -7
-24 -5 -11 4 -23 -5 -35 -25 -21 -36 -22 -65 -2 -81 31 -26 164 51 186 107 10
28 -19 96 -46 107 -22 8 -90 8 -98 -1z m107 -69 c8 -32 -19 -66 -76 -95 -50
-26 -62 -25 -46 5 21 38 90 116 103 116 7 0 16 -12 19 -26z"/>
<path d="M14078 5960 c-14 -11 -40 -42 -58 -70 -18 -27 -34 -50 -37 -50 -2 0
-2 4 1 9 3 5 -8 11 -24 15 -24 4 -30 11 -30 30 0 37 -18 76 -34 76 -8 0 -28
-16 -45 -35 -29 -33 -31 -34 -31 -13 0 13 -4 29 -9 37 -14 21 -54 1 -77 -38
-10 -17 -24 -31 -31 -31 -14 0 -30 -34 -40 -82 -4 -21 -2 -28 11 -28 9 0 16 4
16 9 0 9 64 108 82 126 7 6 8 -8 3 -42 -9 -70 8 -70 68 -2 l44 51 7 -36 c5
-26 15 -40 37 -52 17 -8 37 -13 45 -10 9 3 14 -1 14 -13 0 -35 39 -71 76 -71
46 0 104 25 104 45 0 9 5 13 10 10 6 -3 10 -2 10 3 0 20 -15 21 -44 3 -67 -40
-116 -34 -116 14 0 16 14 31 50 53 52 32 77 69 67 96 -9 22 -39 20 -69 -4z
m32 -24 c0 -2 -8 -10 -17 -17 -16 -13 -17 -12 -4 4 13 16 21 21 21 13z"/>
<path d="M7678 5956 c-46 -17 -115 -71 -123 -97 -7 -20 9 -49 26 -49 5 0 39
18 75 40 36 22 67 40 69 40 1 0 0 -20 -2 -44 -3 -27 -1 -46 6 -50 8 -5 6 -16
-6 -36 -15 -27 -15 -30 1 -54 9 -14 23 -26 31 -26 22 0 30 22 12 35 -25 18
-20 164 5 149 17 -11 27 18 16 45 -13 35 -38 61 -57 61 -9 -1 -33 -7 -53 -14z
m5 -48 c-39 -32 -98 -63 -88 -48 9 14 95 70 108 70 5 0 -4 -10 -20 -22z"/>
<path d="M12582 5866 c-36 -105 -39 -138 -17 -156 18 -15 21 -8 29 65 3 28 15
62 25 76 25 34 32 103 10 107 -11 2 -23 -22 -47 -92z"/>
<path d="M14878 5910 c-48 -47 -50 -89 -6 -104 21 -8 37 -4 77 17 l51 26 -6
-24 c-8 -33 19 -44 55 -22 30 18 35 43 9 41 -22 -2 -22 8 -2 48 26 50 2 58
-45 15 -49 -45 -96 -69 -123 -65 -20 3 -20 4 7 36 19 22 33 31 45 27 23 -7 35
12 20 30 -20 24 -40 18 -82 -25z"/>
<path d="M5332 5918 c-22 -28 -37 -89 -26 -106 20 -32 39 -20 40 25 0 23 6 48
13 57 13 15 8 36 -8 36 -5 0 -13 -6 -19 -12z"/>
<path d="M3619 5908 c-3 -12 -9 -52 -15 -105 -5 -55 -4 -64 11 -70 22 -8 96
30 142 74 31 28 33 34 21 52 -17 28 -38 26 -38 -3 0 -18 -13 -32 -47 -55 -25
-17 -49 -31 -53 -31 -4 0 -3 26 2 57 9 59 6 83 -12 83 -5 0 -10 -1 -11 -2z"/>
<path d="M5491 5897 c-6 -8 -7 -18 -3 -22 4 -5 2 -5 -4 -2 -17 9 -56 -50 -61
-94 -5 -32 -1 -45 17 -64 31 -33 88 -34 117 -2 53 58 57 110 12 162 -33 37
-59 44 -78 22z m74 -78 c8 -25 -23 -79 -52 -90 -16 -6 -29 -3 -44 10 -20 16
-21 21 -10 51 6 19 21 44 32 57 20 20 23 21 45 7 13 -9 26 -25 29 -35z"/>
<path d="M14655 5897 c-13 -10 -16 -22 -13 -42 4 -18 -1 -40 -14 -61 -11 -18
-18 -41 -16 -51 5 -27 31 -22 39 8 3 15 18 44 33 65 29 42 32 64 14 82 -15 15
-20 15 -43 -1z"/>
<path d="M8020 5771 c0 -32 16 -49 31 -34 12 12 -5 63 -21 63 -5 0 -10 -13
-10 -29z"/>
<path d="M8786 5668 c-9 -12 -16 -29 -16 -38 0 -8 -13 -43 -30 -78 l-30 -64
-47 4 c-37 2 -48 0 -48 -12 0 -8 14 -17 33 -21 18 -4 35 -9 38 -12 3 -3 0 -32
-6 -65 -18 -103 8 -147 77 -131 20 4 39 7 42 7 21 -2 31 4 31 20 0 24 -10 34
-24 23 -6 -5 -29 -11 -51 -13 l-40 -3 -3 40 c-1 22 3 60 11 85 l13 45 51 -3
c80 -5 83 22 4 36 l-39 7 40 88 c36 80 41 107 18 107 -5 0 -16 -10 -24 -22z"/>
<path d="M5415 5669 c-46 -28 -89 -107 -123 -225 l-28 -97 -79 -19 c-84 -20
-106 -31 -89 -47 5 -6 35 -3 79 9 38 10 71 17 74 15 2 -3 -18 -47 -44 -99 -46
-91 -50 -116 -19 -116 14 0 15 1 19 36 1 11 14 38 28 60 14 21 33 58 42 82 17
42 26 47 82 43 26 -3 41 18 22 30 -12 7 -11 9 1 9 8 1 4 6 -9 11 -16 6 -28 6
-38 -2 -7 -7 -16 -9 -20 -5 -12 11 38 171 69 223 35 57 64 73 113 62 49 -11
65 -10 65 5 0 21 -10 25 -71 31 -34 4 -61 1 -74 -6z"/>
<path d="M3326 5622 c-2 -4 -7 -25 -11 -47 -4 -22 -22 -98 -41 -170 -36 -137
-44 -234 -21 -254 19 -15 28 -3 21 25 -8 31 10 134 46 264 40 146 46 190 26
190 -8 0 -17 -3 -20 -8z"/>
<path d="M9969 5568 c-7 -29 -25 -84 -41 -123 -17 -38 -41 -106 -54 -149 -23
-76 -23 -80 -7 -99 14 -14 26 -17 54 -13 82 13 189 79 189 118 0 34 -19 57
-54 64 -42 7 -68 0 -106 -33 -40 -33 -39 -16 5 87 37 87 66 185 57 194 -16 17
-31 0 -43 -46z m103 -252 c4 -6 0 -19 -9 -28 -25 -28 -119 -70 -148 -66 l-27
3 21 27 c33 42 111 89 135 82 12 -4 24 -12 28 -18z"/>
<path d="M3946 5563 c-60 -47 -85 -86 -70 -111 6 -9 35 -27 65 -39 64 -26 72
-46 34 -92 -33 -38 -48 -39 -64 -4 -10 22 -14 24 -22 12 -8 -13 -13 -6 -10 14
1 5 -3 6 -9 2 -20 -12 37 -95 65 -95 24 0 83 59 95 95 16 47 2 68 -65 95 -30
12 -55 28 -55 35 0 18 67 75 102 87 16 6 27 15 25 22 -8 23 -44 15 -91 -21z"/>
<path d="M3700 5453 c-39 -30 -55 -49 -87 -105 -21 -37 -21 -66 2 -121 17 -40
101 -33 155 12 49 41 32 47 -36 15 -62 -29 -80 -26 -95 14 -7 19 -4 24 19 33
58 22 122 103 122 154 0 34 -34 33 -80 -2z m40 -28 c0 -10 -73 -85 -82 -85
-13 0 19 49 46 72 21 17 36 23 36 13z"/>
<path d="M2725 5448 c3 -13 15 -59 25 -103 40 -180 61 -202 105 -108 58 126
88 214 76 226 -15 15 -24 3 -51 -73 -13 -36 -32 -85 -43 -110 l-21 -45 -17 55
c-10 30 -18 75 -19 100 -1 50 -18 80 -45 80 -13 0 -16 -5 -10 -22z"/>
<path d="M3423 5448 c-6 -7 -18 -52 -28 -99 -15 -74 -16 -90 -4 -114 31 -62
95 -44 149 42 51 79 63 154 27 161 -14 3 -17 -4 -17 -35 0 -67 -80 -183 -116
-169 -17 6 -17 14 -1 141 1 11 7 29 13 40 12 21 8 45 -6 45 -4 0 -12 -6 -17
-12z"/>
<path d="M3055 5433 c-43 -23 -74 -52 -106 -102 -32 -49 -37 -92 -15 -110 18
-15 38 -6 119 56 l57 44 0 -60 c0 -67 6 -91 25 -91 9 0 11 22 10 83 -3 109 -2
107 -23 107 -23 0 -91 -50 -92 -67 0 -7 -9 -13 -19 -13 -11 0 -23 -4 -26 -10
-9 -15 -25 -12 -25 3 0 20 56 94 85 113 14 9 37 18 51 20 36 4 42 13 20 30
-24 17 -24 17 -61 -3z"/>
<path d="M6104 5398 c-11 -13 -32 -42 -47 -65 -15 -24 -29 -43 -31 -43 -2 0 1
20 7 45 15 66 -19 95 -76 63 -12 -7 -29 -12 -37 -13 -16 0 -108 -159 -109
-188 -1 -29 21 -15 54 34 48 73 106 139 121 139 21 0 17 -35 -11 -90 -27 -54
-32 -90 -12 -90 16 0 96 82 129 132 30 46 39 40 31 -18 -4 -32 -1 -50 11 -69
19 -30 63 -34 73 -7 3 9 13 25 21 34 13 16 13 18 -3 24 -12 5 -24 0 -36 -14
-9 -12 -20 -22 -23 -22 -3 0 -6 30 -6 66 0 62 -11 104 -29 104 -4 0 -16 -10
-27 -22z"/>
<path d="M7670 5391 c-64 -41 -102 -84 -98 -111 5 -36 38 -41 102 -15 47 19
56 20 52 8 -10 -26 21 -63 52 -63 58 0 200 90 191 119 -4 11 -8 11 -19 0 -26
-25 -168 -92 -179 -85 -6 4 -11 27 -11 52 0 24 -4 44 -9 44 -4 0 -36 -14 -70
-32 -33 -17 -64 -28 -68 -25 -19 20 112 112 142 100 8 -2 18 -18 24 -34 10
-29 25 -37 35 -20 8 12 -8 54 -29 74 -24 25 -64 20 -115 -12z"/>
<path d="M8958 5387 c-57 -47 -81 -135 -44 -159 39 -26 126 6 168 62 27 37 9
85 -39 105 -46 20 -53 19 -85 -8z m69 -31 c16 4 23 0 28 -16 9 -27 -24 -65
-71 -80 -60 -20 -71 10 -28 73 19 28 29 35 38 28 7 -6 21 -8 33 -5z"/>
<path d="M5467 5333 c-87 -138 -89 -141 -82 -173 8 -35 25 -39 43 -9 9 14 10
24 3 33 -7 8 5 35 41 89 39 61 54 77 66 71 72 -30 82 -4 14 34 l-41 23 -44
-68z"/>
<path d="M5650 5367 c0 -7 5 -18 10 -25 6 -6 7 -10 4 -7 -4 2 -20 -5 -35 -16
-82 -58 -44 -121 59 -98 91 20 104 58 41 119 -41 39 -79 52 -79 27z m74 -74
c9 -24 -6 -35 -58 -40 -53 -6 -59 5 -20 36 32 25 69 27 78 4z"/>
<path d="M7550 5081 c-21 -3 -35 -12 -35 -21 0 -12 15 -14 85 -11 47 3 108 5
135 5 37 1 50 5 50 16 0 12 -18 15 -100 16 -55 1 -116 -1 -135 -5z"/>
<path d="M9915 5044 c-44 -8 -99 -13 -123 -11 -45 5 -61 -5 -42 -28 13 -15 70
-14 183 6 38 6 82 9 98 5 24 -5 29 -2 29 14 0 11 -6 20 -12 20 -7 0 -22 2 -33
4 -11 2 -56 -2 -100 -10z"/>
<path d="M7525 4941 c-33 -4 -50 -11 -50 -20 0 -11 27 -14 147 -12 150 2 197
9 198 26 0 11 -215 16 -295 6z"/>
<path d="M9828 4935 c-2 -3 -29 -7 -59 -8 -40 -3 -55 -8 -57 -20 -3 -14 14
-15 165 -10 166 6 213 13 213 33 0 10 -252 15 -262 5z"/>
<path d="M7598 4416 c-110 -30 -159 -108 -190 -299 -34 -216 -37 -226 -61
-231 -12 -3 -61 -8 -109 -11 -88 -7 -132 -24 -113 -44 7 -7 23 -7 45 -2 46 12
180 24 180 16 0 -14 -138 -262 -162 -292 -6 -7 -7 -20 -4 -30 6 -15 8 -15 26
3 19 19 71 108 142 244 43 81 63 103 89 95 20 -7 46 20 29 30 -6 3 -24 3 -41
0 -18 -4 -29 -3 -26 1 3 5 17 81 31 169 31 187 57 252 117 292 49 32 119 42
138 19 18 -21 31 -20 31 3 0 40 -52 56 -122 37z"/>
<path d="M8359 4247 c-15 -34 -44 -111 -66 -172 l-38 -110 -65 3 c-36 2 -78
11 -93 19 -16 8 -35 12 -44 9 -21 -8 -12 -41 12 -43 11 -1 38 -7 60 -12 22 -6
57 -11 77 -11 l37 0 -26 -57 c-30 -69 -53 -147 -53 -186 0 -22 4 -28 17 -25
14 2 20 17 25 59 9 75 65 199 89 199 40 0 119 24 119 37 0 10 -14 11 -62 6
-58 -6 -61 -5 -53 13 4 10 25 66 45 124 21 58 48 125 60 148 12 22 19 46 15
52 -14 23 -31 6 -56 -53z"/>
<path d="M2226 4262 c-3 -5 1 -18 10 -30 12 -17 21 -20 52 -15 l37 6 -40 -30
c-22 -16 -65 -57 -97 -91 -62 -68 -110 -172 -126 -277 -11 -69 5 -163 34 -202
51 -68 170 -88 324 -54 120 26 208 70 285 143 101 94 132 184 100 293 -14 48
-27 68 -84 124 -82 81 -97 93 -135 109 -53 23 -165 33 -246 23 -47 -6 -79 -6
-84 0 -12 11 -23 12 -30 1z m307 -64 c9 -5 17 -17 17 -28 0 -10 5 -22 11 -26
12 -7 31 15 23 28 -3 4 4 8 15 8 28 0 136 -103 160 -154 13 -27 21 -62 21 -96
0 -34 -8 -69 -21 -96 -27 -58 -124 -146 -201 -183 -114 -56 -306 -79 -383 -47
-135 57 -97 346 66 505 88 85 147 114 219 105 30 -4 63 -11 73 -16z"/>
<path d="M2348 4053 c-59 -3 -68 -6 -68 -23 0 -24 18 -36 33 -21 12 12 146 14
187 2 24 -7 23 -8 -31 -66 -67 -74 -196 -246 -199 -265 -7 -47 29 -57 49 -14
14 32 159 221 191 249 31 27 80 100 80 118 0 27 -36 30 -242 20z"/>
<path d="M4156 4221 c-17 -58 -129 -338 -157 -393 -11 -21 -19 -46 -19 -58 0
-30 26 -24 40 10 13 32 92 110 111 110 7 0 9 -11 5 -32 -17 -94 -18 -108 -6
-123 16 -19 49 -19 56 0 5 11 10 12 26 4 16 -9 30 -6 69 15 45 23 49 24 49 7
0 -28 25 -45 48 -32 27 14 72 69 72 87 0 21 -21 13 -48 -19 -35 -40 -40 -25
-8 23 14 22 26 44 26 50 0 15 -26 12 -40 -5 -19 -22 -130 -95 -146 -95 -22 0
-17 30 9 51 12 10 55 40 95 65 71 45 81 57 63 69 -10 5 -83 -35 -146 -80 -16
-12 -38 -25 -47 -28 -10 -4 -18 -16 -18 -30 0 -22 -16 -47 -31 -47 -3 0 1 25
9 55 12 43 13 60 4 80 -13 29 -31 31 -74 9 -24 -12 -30 -13 -25 -3 70 168 117
292 119 318 5 54 -19 48 -36 -8z"/>
<path d="M3905 4188 c-4 -13 -17 -36 -28 -51 -24 -35 -10 -59 18 -31 17 17 17
17 11 -6 -45 -154 -186 -390 -233 -390 -36 0 -43 76 -13 145 28 65 27 95 -4
95 -22 0 -71 -31 -88 -55 -15 -20 -8 4 28 96 36 93 49 178 28 186 -12 4 -214
-173 -214 -188 0 -30 35 -12 105 55 44 42 81 74 83 72 8 -9 -53 -169 -104
-271 -30 -60 -54 -113 -54 -117 0 -27 37 4 95 77 59 76 105 119 105 98 0 -4
-10 -31 -22 -60 -19 -46 -20 -57 -9 -93 13 -45 42 -80 66 -80 77 0 282 371
273 494 -3 47 -31 63 -43 24z"/>
<path d="M4627 4138 c-13 -29 -32 -84 -42 -123 -21 -80 -36 -97 -85 -93 -29 3
-35 0 -35 -17 0 -17 6 -20 43 -17 38 2 43 0 38 -15 -12 -37 -26 -127 -26 -162
0 -21 -5 -42 -12 -49 -9 -9 -9 -15 0 -24 22 -22 39 13 51 108 17 138 23 151
77 157 47 5 80 25 66 39 -5 5 -27 5 -53 -1 -24 -5 -45 -8 -47 -6 -7 6 31 130
55 177 27 55 29 78 8 78 -9 0 -25 -23 -38 -52z"/>
<path d="M5352 4124 c-13 -23 -2 -73 19 -85 15 -7 19 -6 19 5 0 8 -4 17 -10
21 -6 4 -6 15 0 31 15 39 -9 63 -28 28z"/>
<path d="M8543 3995 c-7 -20 3 -30 30 -31 12 -1 30 -5 40 -9 26 -11 22 20 -5
39 -29 20 -57 20 -65 1z"/>
<path d="M9460 3934 c-31 -36 -36 -64 -13 -71 7 -3 17 6 22 20 5 13 22 33 37
44 16 12 24 25 20 31 -13 21 -33 13 -66 -24z"/>
<path d="M5444 3907 c-62 -43 -78 -81 -46 -107 l22 -19 -60 -37 c-61 -37 -71
-50 -46 -60 18 -7 166 92 166 111 0 9 -13 18 -30 22 -16 3 -30 11 -30 18 0 14
53 57 83 68 19 7 19 28 0 34 -5 2 -32 -12 -59 -30z"/>
<path d="M6230 3922 c-47 -23 -128 -104 -136 -138 -9 -36 6 -75 33 -85 16 -6
38 0 80 21 31 16 58 28 58 27 18 -43 29 -57 59 -71 28 -13 40 -14 56 -6 24 13
16 34 -10 27 -23 -6 -56 22 -64 54 -4 20 2 37 25 69 23 31 28 45 19 50 -7 4
-10 13 -6 19 10 15 -30 51 -56 51 -13 0 -39 -8 -58 -18z m75 -28 c15 -15 15
-18 -1 -35 -10 -11 -22 -29 -28 -41 -13 -26 -81 -74 -118 -83 -56 -14 -40 55
28 115 29 25 79 55 101 60 1 0 9 -7 18 -16z"/>
<path d="M7926 3890 c-19 -17 -42 -51 -52 -75 -15 -41 -15 -46 0 -69 28 -43
148 -47 197 -7 33 26 16 45 -22 25 -19 -10 -50 -14 -87 -12 -53 3 -57 5 -60
30 -4 32 55 105 71 89 7 -7 15 -7 24 1 11 9 11 14 -3 29 -23 25 -27 24 -68
-11z"/>
<path d="M8856 3867 c-7 -19 -17 -45 -21 -58 -4 -13 -19 -43 -33 -67 -19 -34
-22 -46 -13 -55 10 -9 17 -6 34 14 18 20 103 90 177 143 8 6 -1 -8 -19 -30
-25 -32 -32 -49 -29 -75 l3 -34 63 1 c50 1 68 5 84 22 28 28 15 46 -20 28 -15
-8 -44 -17 -65 -21 -48 -9 -49 7 -3 62 41 48 55 90 33 99 -19 7 -46 -7 -119
-62 -61 -46 -67 -45 -43 12 15 36 13 54 -5 54 -6 0 -16 -15 -24 -33z"/>
<path d="M5246 3815 c-24 -63 -32 -74 -47 -70 -15 5 -17 3 -12 -12 7 -20 22
-33 40 -33 6 0 22 27 35 60 12 33 25 60 28 60 21 1 30 19 21 43 -17 44 -35 31
-65 -48z"/>
<path d="M7621 3876 c-6 -8 -11 -18 -10 -22 5 -29 -7 -51 -53 -95 -28 -27 -57
-49 -65 -49 -17 0 -17 63 2 115 10 27 11 43 4 50 -26 25 -67 -105 -54 -172 6
-34 8 -35 41 -30 39 7 115 65 143 111 27 44 38 106 18 106 -8 0 -20 -6 -26
-14z"/>
<path d="M7765 3867 c-17 -12 -39 -27 -49 -32 -11 -7 -25 -33 -33 -65 -23 -89
0 -106 35 -27 25 56 69 107 93 107 24 0 24 -13 -1 -86 -23 -65 -20 -107 8
-102 11 2 16 11 14 25 -2 12 6 52 18 89 18 61 19 69 5 91 -19 29 -51 29 -90 0z"/>
<path d="M8651 3851 c-8 -5 -12 -18 -9 -29 4 -14 -5 -33 -28 -59 -64 -71 -33
-92 56 -38 86 52 102 97 44 123 -30 14 -44 15 -63 3z m57 -56 c-3 -3 -9 2 -12
12 -6 14 -5 15 5 6 7 -7 10 -15 7 -18z"/>
<path d="M8443 3838 c-14 -18 -56 -226 -49 -244 9 -23 36 -17 36 9 0 33 31
189 41 210 16 30 -8 51 -28 25z"/>
<path d="M9360 3701 c-22 -53 9 -71 34 -19 21 40 20 48 -3 48 -11 0 -23 -12
-31 -29z"/>
<path d="M10217 3363 c-4 -3 -7 -26 -7 -50 0 -38 -67 -267 -88 -300 -5 -8 -38
-13 -91 -14 -61 -1 -84 -5 -88 -16 -10 -26 11 -31 75 -20 38 6 67 6 72 1 6 -6
-4 -51 -24 -115 -39 -119 -47 -170 -29 -176 17 -6 44 54 83 179 l33 108 41 -6
c23 -4 59 -10 81 -16 62 -14 70 -14 70 2 0 18 -50 36 -126 45 l-56 7 9 42 c5
22 20 73 34 111 33 93 53 180 47 205 -5 20 -23 26 -36 13z"/>
<path d="M16160 3286 c0 -51 -29 -192 -52 -255 -11 -31 -36 -78 -53 -106 -54
-83 -95 -164 -95 -189 0 -36 24 -38 56 -4 47 49 178 151 181 141 2 -5 -8 -40
-22 -77 -18 -49 -24 -78 -19 -102 11 -61 41 -50 35 13 -1 20 11 64 33 116 38
87 43 112 25 122 -19 12 -58 -5 -123 -54 l-65 -50 25 56 c13 31 28 61 33 67
14 18 50 137 63 211 6 39 18 75 26 81 13 9 12 14 -3 37 -25 38 -45 35 -45 -7z"/>
<path d="M9032 3263 c-62 -30 -102 -111 -143 -287 -15 -66 -33 -122 -39 -126
-15 -9 -139 -30 -165 -27 -12 1 -20 -4 -20 -13 0 -20 61 -25 127 -10 28 6 53
8 56 6 8 -9 -31 -146 -50 -178 -14 -22 -23 -28 -38 -23 -21 7 -27 -9 -11 -34
13 -21 49 -4 76 37 13 20 34 76 46 124 23 94 21 92 110 112 24 5 27 3 25 -18
0 -13 -4 -22 -7 -20 -10 6 -19 -51 -19 -112 0 -41 5 -59 21 -75 30 -30 68 -13
155 68 51 48 73 168 30 168 -15 0 -22 -12 -33 -60 -16 -69 -44 -114 -85 -138
-42 -24 -46 -22 -53 26 -4 29 0 62 14 107 30 93 30 92 -36 87 -32 -3 -66 -8
-75 -12 -23 -9 -23 -7 11 129 36 142 73 214 121 238 51 25 79 23 90 -7 5 -14
14 -25 20 -25 19 0 22 30 6 55 -13 20 -25 25 -59 25 -23 0 -57 -8 -75 -17z"/>
<path d="M14346 3252 c-3 -6 -11 -45 -17 -88 -16 -117 -53 -250 -99 -354 -25
-57 -38 -100 -34 -112 9 -30 24 -17 44 37 10 28 32 86 50 130 52 129 100 383
73 392 -6 2 -14 0 -17 -5z"/>
<path d="M14899 3213 c-1 -5 -1 -12 0 -17 1 -5 -16 -59 -39 -120 -23 -61 -43
-116 -45 -122 -2 -7 -34 -17 -71 -23 -84 -15 -137 -37 -131 -53 5 -15 14 -15
87 6 71 20 104 21 97 2 -3 -8 -11 -34 -17 -58 -20 -75 -51 -137 -65 -132 -20
8 -26 -11 -11 -31 8 -11 19 -16 30 -12 22 9 59 90 82 179 18 70 18 70 49 64
53 -11 60 -11 64 -1 3 8 -40 37 -72 48 -11 3 48 165 68 187 18 20 9 90 -11 90
-8 0 -15 -3 -15 -7z"/>
<path d="M11765 3140 c-7 -23 12 -63 28 -57 7 2 12 9 11 15 -1 7 -2 23 -2 37
-2 30 -28 34 -37 5z"/>
<path d="M8135 3132 c-6 -4 -16 -25 -24 -47 -15 -44 -107 -232 -124 -253 -6
-8 -20 -11 -33 -8 -31 8 -43 -14 -17 -31 21 -14 21 -15 -23 -80 -25 -37 -43
-73 -42 -82 5 -25 27 -24 37 3 6 14 27 50 47 80 35 53 39 56 78 56 65 0 70 -7
62 -86 -4 -38 -9 -82 -12 -97 -5 -24 -3 -28 12 -25 14 2 21 16 26 58 21 154
15 140 54 140 28 0 35 4 32 18 -2 13 -11 16 -36 14 -30 -3 -32 -1 -28 20 24
116 37 226 32 263 -7 45 -24 69 -41 57z m-10 -224 l-18 -108 -38 0 c-21 0 -40
4 -43 9 -3 5 12 41 33 79 22 39 47 93 57 119 27 69 30 32 9 -99z"/>
<path d="M10465 3110 c-7 -11 12 -50 25 -50 15 0 22 19 15 40 -7 21 -30 27
-40 10z"/>
<path d="M15120 3036 c0 -8 9 -24 19 -37 15 -18 22 -21 31 -13 9 9 8 18 -5 38
-18 28 -45 35 -45 12z"/>
<path d="M13824 3019 c-16 -5 -50 -27 -75 -51 -24 -23 -51 -42 -59 -42 -17 -1
-90 -161 -87 -189 4 -34 22 -18 57 50 67 133 151 211 211 198 26 -6 30 -4 27
10 -4 24 -36 34 -74 24z"/>
<path d="M16503 3001 c-31 -26 -29 -38 10 -44 40 -6 51 4 43 37 -8 31 -23 32
-53 7z"/>
<path d="M15761 2967 c-35 -57 -27 -121 22 -174 11 -13 17 -26 14 -30 -14 -13
-117 -16 -132 -3 -23 19 -41 -1 -26 -28 15 -28 57 -34 119 -18 90 24 99 42 52
101 -16 20 -32 45 -35 56 -10 30 13 86 36 92 26 7 20 31 -8 35 -15 2 -27 -7
-42 -31z"/>
<path d="M11900 2970 c-19 -10 -46 -30 -59 -44 -21 -22 -23 -29 -13 -50 6 -14
36 -41 66 -60 31 -20 56 -40 56 -46 0 -15 -75 -87 -111 -105 -17 -9 -40 -15
-50 -12 -22 6 -31 -5 -23 -27 10 -27 48 -18 113 25 112 74 130 129 59 179 -92
63 -87 55 -56 86 16 17 39 28 54 29 33 0 42 20 17 33 -13 7 -28 5 -53 -8z"/>
<path d="M9735 2951 c-73 -45 -145 -144 -145 -199 0 -11 11 -34 24 -49 23 -27
28 -28 113 -28 82 0 95 3 159 35 51 26 70 41 72 58 4 26 -5 28 -29 6 -23 -21
-152 -54 -211 -54 -45 0 -72 13 -46 23 9 3 8 7 -3 11 -14 6 -15 13 -7 39 14
46 59 109 90 126 24 14 29 14 47 -3 11 -10 25 -15 30 -11 21 13 10 36 -24 51
-42 17 -34 18 -70 -5z"/>
<path d="M10805 2948 c-2 -7 -6 -31 -10 -53 -3 -22 -22 -66 -42 -98 -50 -83
-32 -95 44 -30 93 79 89 77 85 38 -5 -42 20 -58 79 -51 64 8 160 70 145 95 -3
5 0 11 6 14 7 2 9 8 5 13 -4 4 -19 -4 -33 -19 -14 -15 -32 -27 -41 -27 -9 0
-35 -10 -59 -21 -23 -12 -49 -19 -58 -16 -14 5 -14 10 -1 41 31 73 13 84 -54
35 -24 -17 -44 -29 -46 -27 -1 2 1 26 5 53 4 28 6 53 3 58 -7 11 -23 8 -28 -5z"/>
<path d="M13945 2948 c-100 -55 -166 -207 -117 -268 22 -27 74 -29 125 -5 45
21 61 40 53 61 -6 15 -9 15 -29 -4 -50 -47 -113 -54 -128 -16 -13 37 -3 63 29
70 76 15 152 71 152 111 0 56 -37 78 -85 51z m34 -74 c-16 -20 -87 -56 -101
-52 -14 5 39 66 77 89 30 19 30 19 33 -2 2 -11 -2 -27 -9 -35z"/>
<path d="M11706 2919 c-16 -56 -43 -122 -68 -166 -32 -56 -43 -138 -20 -138
13 0 36 51 97 213 25 67 26 75 12 90 -14 13 -17 13 -21 1z"/>
<path d="M15427 2914 c-4 -4 -7 -13 -7 -20 0 -8 -13 -43 -30 -79 -48 -104 -37
-111 48 -34 59 52 110 85 119 75 3 -3 -4 -32 -16 -65 -25 -66 -25 -104 2 -109
19 -4 38 29 20 35 -7 3 -1 30 15 76 14 40 23 80 19 90 -10 27 -50 20 -107 -18
-48 -33 -52 -33 -45 -13 11 36 11 61 -1 65 -5 2 -13 0 -17 -3z"/>
<path d="M16726 2910 c-36 -11 -86 -59 -133 -127 -22 -32 -41 -49 -49 -46 -8
3 -18 -6 -26 -22 -10 -22 -13 -23 -20 -10 -5 8 -13 13 -19 10 -15 -10 -10 -45
7 -52 25 -9 11 -64 -50 -208 -46 -107 -52 -127 -39 -132 27 -11 85 83 109 177
9 36 25 86 36 112 19 44 25 49 131 101 119 59 187 112 187 146 0 39 -77 69
-134 51z m78 -36 c42 -16 -6 -60 -142 -128 l-73 -37 16 32 c9 17 40 55 69 85
52 54 84 66 130 48z"/>
<path d="M12773 2875 c-81 -54 -120 -140 -74 -164 14 -8 34 -2 87 23 l70 33
-4 -34 c-7 -60 48 -115 94 -94 32 14 30 31 -4 31 -15 0 -33 5 -40 12 -16 16
-15 67 3 118 23 66 20 84 -18 98 -48 17 -57 16 -114 -23z m101 -28 c-18 -31
-52 -60 -102 -83 -30 -14 -56 -23 -59 -20 -11 11 40 76 84 105 36 24 49 28 65
20 10 -6 16 -15 12 -22z"/>
<path d="M9370 2876 c-51 -36 -77 -67 -100 -121 -19 -45 -19 -65 0 -65 5 0 23
27 41 61 46 86 108 133 122 95 7 -18 -7 -70 -29 -112 -10 -17 -14 -39 -11 -48
9 -22 37 -20 37 3 0 10 9 38 20 62 27 61 26 113 -2 133 -30 21 -37 20 -78 -8z"/>
<path d="M14382 2846 c-55 -58 -72 -97 -52 -121 16 -19 67 -19 100 0 33 19 37
19 43 -6 8 -31 61 -23 65 10 3 18 0 22 -12 18 -11 -5 -16 -1 -16 13 0 30 -14
31 -76 6 -85 -35 -97 -21 -38 44 25 28 42 39 54 35 20 -6 33 16 24 40 -11 28
-41 15 -92 -39z"/>
<path d="M10636 2883 c-3 -3 -19 -6 -36 -5 -35 1 -64 -31 -82 -90 -10 -33 -9
-41 5 -55 13 -13 21 -14 44 -4 33 14 123 98 123 114 0 25 -40 54 -54 40z m-41
-91 c-42 -38 -55 -31 -31 16 13 24 20 28 42 24 l27 -5 -38 -35z"/>
<path d="M15213 2856 c-49 -27 -80 -87 -64 -122 8 -19 18 -24 46 -24 43 0 69
12 113 53 36 34 41 66 15 89 -30 25 -69 27 -110 4z m84 -31 c12 -33 -86 -100
-110 -76 -14 14 7 61 27 61 7 0 19 7 26 15 16 19 49 19 57 0z"/>
<path d="M10351 2857 c-18 -22 -41 -85 -41 -112 0 -21 4 -26 21 -23 17 2 22
11 23 45 1 24 10 51 20 62 10 11 15 25 11 30 -8 15 -20 14 -34 -2z"/>
<path d="M7382 2844 c-52 -36 -5 -86 66 -68 40 10 55 42 32 70 -16 19 -70 18
-98 -2z"/>
<path d="M15010 2820 c-33 -35 -44 -64 -38 -101 5 -36 33 -30 34 6 0 41 20 74
50 86 14 5 24 15 21 22 -8 24 -38 18 -67 -13z"/>
<path d="M16359 2819 c-22 -43 -58 -160 -52 -174 8 -23 33 -18 33 8 1 12 14
55 30 96 16 41 27 78 24 83 -9 14 -23 9 -35 -13z"/>
<path d="M4074 2709 c-4 -7 -9 -42 -11 -78 -4 -81 -19 -135 -82 -291 -56 -137
-52 -160 19 -91 23 22 62 48 87 57 43 17 47 17 78 0 39 -21 49 -49 30 -85 -19
-36 -113 -125 -153 -145 -35 -18 -31 -20 -47 29 -8 27 -25 15 -25 -18 0 -81
69 -75 168 16 109 101 128 162 67 216 -44 38 -92 41 -157 8 l-45 -23 28 69
c16 38 38 99 49 136 23 77 31 202 13 208 -6 2 -15 -1 -19 -8z"/>
<path d="M4859 2683 c-6 -15 -22 -75 -35 -133 -14 -58 -32 -128 -41 -157 -15
-49 -18 -52 -68 -68 -29 -9 -61 -22 -71 -30 -18 -13 -18 -15 4 -57 38 -73 61
-108 72 -108 13 0 34 48 55 123 17 62 32 75 112 92 l32 6 -50 -98 c-27 -54
-48 -107 -47 -118 5 -37 37 -28 102 29 35 31 66 56 69 56 4 0 13 -15 21 -34 8
-19 26 -42 40 -51 23 -15 30 -16 57 -4 68 28 123 95 132 159 6 48 -7 80 -34
80 -22 0 -23 -9 -4 -75 8 -28 -46 -101 -90 -122 -43 -20 -57 -11 -77 52 -7 22
-20 41 -29 43 -8 1 -41 -20 -73 -48 -32 -28 -61 -49 -63 -46 -3 3 16 44 41 91
65 121 56 142 -49 110 -27 -8 -50 -13 -51 -12 -1 1 16 70 38 152 22 83 40 159
41 169 3 31 -22 30 -34 -1z m-112 -397 c-3 -8 -11 -34 -17 -57 -12 -45 -14
-44 -46 14 -15 27 -14 28 18 42 42 18 51 18 45 1z"/>
<path d="M11775 2670 c3 -5 10 -10 16 -10 5 0 9 5 9 10 0 6 -7 10 -16 10 -8 0
-12 -4 -9 -10z"/>
<path d="M8930 2505 c-5 -14 -13 -38 -16 -53 -3 -15 -19 -69 -35 -120 -16 -51
-29 -115 -29 -142 0 -44 3 -50 21 -50 17 0 20 4 15 28 -6 29 6 86 49 227 39
129 40 135 21 135 -9 0 -21 -11 -26 -25z"/>
<path d="M8116 2488 c-3 -13 -1 -27 3 -31 14 -14 31 2 31 29 0 30 -26 32 -34
2z"/>
<path d="M8560 2463 c0 -22 -13 -66 -31 -103 -77 -162 -82 -179 -64 -216 8
-18 20 -36 25 -39 24 -15 74 -6 132 23 127 63 169 121 113 158 -33 22 -82 12
-163 -32 -74 -40 -74 -41 -15 83 39 83 49 155 21 161 -15 3 -18 -4 -18 -35z
m160 -217 c0 -27 -114 -99 -176 -112 -24 -5 -33 -2 -38 12 -9 23 5 36 84 79
68 36 130 46 130 21z"/>
<path d="M7129 2398 c-16 -66 -14 -257 4 -318 8 -27 19 -45 27 -45 9 0 38 42
67 95 74 135 105 180 126 180 23 0 19 28 -5 44 -30 19 -50 -4 -118 -140 l-64
-129 -9 55 c-4 30 -7 97 -5 148 4 85 6 96 28 112 20 15 22 20 11 34 -27 32
-48 19 -62 -36z"/>
<path d="M9561 2438 c-66 -11 -91 -32 -91 -75 0 -47 38 -96 98 -127 l46 -24
-52 -7 c-29 -4 -81 -5 -115 -3 -51 2 -62 0 -65 -14 -6 -33 34 -42 127 -28 104
16 156 32 156 51 0 7 -29 30 -65 49 -65 35 -108 86 -97 115 7 16 67 35 114 35
20 0 40 -8 52 -21 18 -19 41 -19 41 0 0 38 -73 63 -149 49z"/>
<path d="M5936 2414 c-9 -8 -16 -21 -16 -27 0 -7 -18 -39 -40 -72 -22 -33 -40
-68 -40 -77 0 -31 20 -30 38 2 18 33 118 90 157 90 20 0 45 -17 45 -31 0 -4
-20 -34 -45 -68 -44 -60 -54 -85 -37 -95 14 -8 112 139 112 168 0 13 -7 32
-16 40 -20 20 -95 21 -133 1 l-29 -14 19 39 c28 59 21 80 -15 44z"/>
<path d="M5723 2373 c-26 -20 -56 -47 -66 -60 -23 -29 -61 -32 -52 -4 8 26
-13 37 -33 18 -13 -13 -13 -21 -4 -42 6 -14 18 -25 27 -25 18 0 18 0 1 -42
-16 -38 -7 -71 26 -92 36 -22 151 42 126 71 -8 10 -7 17 8 28 10 8 23 15 27
15 5 0 5 5 2 10 -3 6 -1 10 6 10 10 0 10 3 2 11 -16 16 -68 -22 -70 -51 -2
-29 -18 -46 -53 -58 -44 -16 -58 7 -35 58 14 32 26 42 63 55 50 17 112 69 112
95 0 16 -18 40 -31 40 -4 0 -29 -17 -56 -37z m37 -16 c0 -2 -10 -12 -22 -23
l-23 -19 19 23 c18 21 26 27 26 19z"/>
<path d="M4395 2374 c-47 -24 -82 -62 -109 -121 -36 -74 -34 -108 5 -132 33
-20 55 -20 154 1 54 11 155 56 155 69 0 17 -28 14 -77 -7 -74 -33 -176 -51
-208 -36 -39 18 -30 32 20 32 55 0 93 18 129 60 34 41 36 98 3 128 -28 26 -33
27 -72 6z m53 -36 c19 -19 14 -44 -13 -77 -32 -37 -89 -58 -110 -41 -13 11
-13 16 3 42 20 35 77 88 95 88 7 0 18 -5 25 -12z"/>
<path d="M9140 2372 c-19 -11 -48 -37 -65 -60 -25 -33 -36 -40 -63 -39 -17 0
-35 -2 -38 -6 -11 -11 7 -27 32 -27 19 0 24 -5 24 -25 0 -15 12 -38 26 -52 24
-24 30 -25 94 -20 69 6 124 30 117 51 -3 6 -11 9 -18 7 -104 -31 -128 -35
-153 -23 -32 14 -38 62 -8 62 34 0 119 50 131 76 9 22 9 31 -4 50 -19 29 -30
30 -75 6z m50 -29 c0 -16 -16 -31 -48 -47 -47 -24 -54 -10 -12 25 33 28 60 38
60 22z"/>
<path d="M5465 2360 c-33 -12 -129 -137 -140 -182 -8 -31 16 -58 50 -58 37 0
135 41 146 62 14 27 1 43 -20 24 -20 -18 -95 -46 -123 -46 -34 0 -16 32 27 47
54 19 115 79 115 115 0 32 -25 49 -55 38z m25 -39 c0 -9 -76 -81 -86 -81 -7 0
9 23 45 63 25 27 41 34 41 18z"/>
<path d="M7997 2343 c-3 -16 -16 -56 -29 -90 -16 -44 -20 -65 -12 -73 17 -17
46 -1 39 21 -4 10 3 38 13 63 11 24 23 58 27 75 6 26 4 31 -13 31 -14 0 -21
-9 -25 -27z"/>
<path d="M7461 2331 c-47 -31 -70 -63 -71 -97 0 -51 57 -54 125 -8 33 22 35
22 25 3 -18 -32 -9 -73 16 -77 25 -4 40 24 23 44 -8 10 -3 24 20 58 57 83 31
101 -53 37 -56 -43 -103 -68 -112 -58 -22 22 49 88 91 84 14 -1 20 4 20 18 0
31 -35 29 -84 -4z"/>
<path d="M7803 2340 c-18 -11 -33 -24 -33 -29 0 -6 -8 -18 -18 -28 -22 -22
-48 -131 -35 -144 13 -13 27 6 42 59 26 92 68 135 110 113 27 -15 41 -14 41 4
0 13 -47 45 -67 45 -4 0 -23 -9 -40 -20z"/>
<path d="M8228 2331 c-33 -26 -68 -96 -61 -122 8 -29 45 -33 91 -10 l41 21
-14 -35 c-21 -49 -1 -84 40 -68 18 6 15 39 -3 36 -18 -4 -15 8 12 47 53 79 37
114 -32 67 -46 -32 -90 -52 -98 -45 -7 7 20 61 38 75 7 6 22 13 33 15 11 2 20
10 20 18 0 23 -38 23 -67 1z"/>
<path d="M3437 1148 c-9 -18 -29 -69 -43 -113 -24 -72 -68 -164 -200 -414 -46
-88 -54 -125 -30 -134 19 -8 26 1 26 33 0 15 20 57 45 96 25 37 45 72 45 77 0
5 26 60 57 121 31 61 73 158 92 216 33 97 38 105 64 108 32 4 35 17 8 32 -32
17 -45 12 -64 -22z"/>
<path d="M4960 1035 c-41 -76 -57 -96 -78 -101 -68 -15 -78 -21 -99 -64 -24
-46 -31 -141 -14 -169 7 -10 -5 -28 -39 -62 -51 -51 -66 -89 -55 -141 10 -43
13 -48 30 -42 10 4 12 19 8 58 -5 51 -5 53 41 98 42 42 50 46 81 41 51 -8 107
32 130 92 17 43 17 47 0 85 -10 21 -24 41 -32 44 -11 5 -3 28 38 106 42 80 56
99 70 95 9 -3 20 -1 24 5 8 13 -22 50 -41 50 -7 0 -36 -43 -64 -95z m-102
-165 c10 -17 7 -29 -20 -84 -17 -36 -35 -63 -40 -60 -19 12 -2 118 25 152 13
17 20 15 35 -8z m66 -46 c20 -8 20 -46 1 -84 -17 -32 -43 -50 -74 -50 -19 0
-18 4 12 70 33 72 35 74 61 64z"/>
<path d="M3828 1073 c-53 -62 -183 -279 -212 -354 -21 -55 -11 -90 32 -108 25
-10 41 -10 93 3 74 19 116 44 158 92 53 59 39 84 -50 91 -49 4 -78 0 -121 -15
l-58 -20 27 46 c15 26 58 94 96 152 37 58 69 109 70 114 4 17 -20 16 -35 -1z
m62 -322 c0 -21 -83 -81 -131 -95 -86 -26 -124 -18 -117 25 2 16 12 25 33 31
17 3 55 16 85 27 57 20 130 27 130 12z"/>
<path d="M3549 1043 c-5 -16 -21 -56 -35 -90 -13 -34 -24 -64 -24 -67 0 -3
-14 -34 -31 -68 -44 -90 -60 -147 -48 -170 19 -35 34 -18 53 55 29 117 116
325 137 330 11 3 19 10 19 17 0 6 -4 8 -10 5 -5 -3 -10 -1 -10 4 0 24 -41 10
-51 -16z"/>
<path d="M5238 1038 c-18 -15 -70 -150 -93 -241 -30 -119 -45 -155 -67 -160
-31 -8 -16 -33 18 -29 16 2 32 8 35 14 4 6 19 58 34 117 33 128 83 262 103
277 8 6 12 16 8 22 -9 15 -18 15 -38 0z"/>
<path d="M5378 1013 c-18 -23 2 -31 61 -26 85 8 251 -6 251 -21 0 -13 -96
-172 -109 -180 -4 -3 -36 -1 -71 5 -44 7 -66 7 -74 -1 -17 -17 6 -30 67 -38
l57 -7 -50 -65 c-50 -66 -58 -84 -40 -95 14 -9 64 39 110 105 l38 56 83 12
c75 11 123 32 107 47 -6 6 -110 -9 -153 -22 -19 -6 -19 -5 0 23 90 136 105
187 61 204 -38 14 -326 17 -338 3z"/>
<path d="M4423 946 c-78 -38 -89 -48 -69 -65 18 -15 69 -3 62 14 -5 14 43 37
104 50 34 7 32 4 -56 -87 -100 -102 -118 -128 -109 -159 20 -63 256 -65 301
-4 29 40 7 63 -24 25 -23 -27 -144 -46 -201 -30 -65 17 -60 26 75 162 110 109
116 128 37 128 -35 0 -69 -10 -120 -34z"/>
<path d="M3050 934 c-18 -9 -46 -13 -62 -10 -33 7 -46 -10 -25 -32 16 -16 40
-13 125 13 21 7 22 6 12 -19 -15 -40 -57 -93 -124 -157 l-60 -56 26 -17 c38
-25 156 -27 172 -4 8 13 7 21 -3 30 -11 10 -14 10 -18 1 -5 -15 -80 -17 -101
-4 -10 6 -2 17 28 44 68 62 113 133 114 181 1 37 -2 41 -24 43 -14 1 -41 -5
-60 -13z"/>
<path d="M2800 904 c-6 -14 -10 -29 -10 -33 0 -5 -15 -42 -34 -82 -46 -103
-80 -213 -72 -234 11 -28 22 -9 60 100 40 119 77 208 95 229 11 13 11 19 1 31
-18 22 -29 19 -40 -11z"/>
<path d="M4050 713 c0 -9 -14 -31 -31 -49 -27 -28 -29 -35 -19 -54 14 -25 34
-22 38 7 2 12 12 29 23 39 23 21 26 74 4 74 -8 0 -15 -8 -15 -17z"/>
</g>
</svg>
