<?xml version="1.0" standalone="no"?>
<!DOCTYPE svg PUBLIC "-//W3C//DTD SVG 20010904//EN"
 "http://www.w3.org/TR/2001/REC-SVG-20010904/DTD/svg10.dtd">
<svg version="1.0" xmlns="http://www.w3.org/2000/svg"
 width="1872.000000pt" height="1404.000000pt" viewBox="0 0 1872.000000 1404.000000"
 preserveAspectRatio="xMidYMid meet">

<g transform="translate(0.000000,1404.000000) scale(0.100000,-0.100000)"
fill="#000000" stroke="none">
<path d="M14747 13773 c-2 -5 -8 -26 -11 -48 -19 -106 -111 -361 -260 -718
-42 -100 -45 -150 -10 -155 15 -2 23 4 27 20 4 13 2 25 -3 26 -17 6 -12 26 31
128 23 55 59 142 80 194 20 52 51 130 69 174 17 43 28 85 25 94 -3 9 -3 13 1
9 7 -6 55 128 69 193 4 19 15 40 23 46 14 10 14 14 3 28 -14 17 -37 21 -44 9z"/>
<path d="M15427 13673 c-3 -5 -5 -33 -6 -64 -1 -129 -43 -255 -162 -489 -49
-97 -60 -126 -53 -145 9 -22 51 -19 64 5 12 22 5 44 -11 34 -5 -3 -6 -10 -3
-16 4 -7 2 -8 -4 -4 -14 8 -10 17 53 141 82 161 116 244 133 325 9 41 22 80
29 85 10 8 10 23 0 73 -10 55 -27 77 -40 55z"/>
<path d="M2265 13644 c-48 -18 -59 -28 -52 -48 5 -12 11 -12 42 4 63 32 109
35 160 9 25 -13 50 -28 55 -35 6 -6 -14 0 -42 14 l-53 25 -80 -28 c-44 -15
-97 -36 -117 -47 -41 -20 -149 -150 -193 -230 -29 -52 -43 -157 -31 -222 10
-50 66 -111 124 -133 96 -37 344 -12 442 44 74 43 185 162 197 212 14 55 6 82
-58 189 -73 121 -111 165 -189 217 -58 38 -75 45 -116 44 -27 0 -67 -7 -89
-15z m112 -60 c-3 -4 22 -20 56 -36 34 -17 69 -40 79 -51 13 -17 19 -19 30 -9
12 9 25 -6 71 -81 64 -101 83 -152 73 -191 -9 -37 -126 -157 -183 -188 -88
-48 -302 -73 -396 -47 -50 13 -103 61 -117 105 -16 47 -5 135 24 199 33 70
141 202 185 224 20 10 64 28 99 41 34 12 62 26 62 31 0 5 5 9 12 9 6 0 8 -3 5
-6z"/>
<path d="M2276 13377 c-30 -10 -43 -42 -25 -63 16 -19 34 -13 34 12 0 16 8 19
60 20 96 2 100 -1 66 -50 -48 -70 -161 -274 -161 -291 0 -8 9 -15 20 -15 19 0
42 31 44 60 1 20 91 179 132 233 17 23 36 41 42 40 24 -6 62 17 62 37 0 11 -6
21 -12 22 -44 5 -242 2 -262 -5z"/>
<path d="M14910 13560 c-11 -21 -20 -45 -20 -53 0 -8 -22 -59 -50 -115 -55
-113 -116 -293 -107 -317 9 -22 30 -18 57 10 23 24 23 26 5 38 -17 13 -17 16
5 83 13 38 41 105 63 149 22 44 48 103 57 130 12 34 22 49 33 47 24 -4 30 16
13 43 -22 34 -32 31 -56 -15z"/>
<path d="M4186 13518 c-9 -12 -16 -26 -16 -30 0 -4 -16 -42 -35 -84 -19 -41
-35 -79 -35 -84 0 -5 -26 -10 -57 -12 -44 -2 -58 -7 -58 -18 0 -12 11 -14 50
-12 l50 4 -3 -59 c-4 -76 19 -114 81 -138 39 -15 49 -15 73 -3 36 17 29 34
-13 30 -71 -7 -122 54 -108 131 l7 34 80 7 c82 7 118 18 118 37 0 8 -15 9 -44
5 -25 -4 -67 -9 -95 -11 l-49 -4 40 92 c22 51 46 96 54 100 8 4 14 15 14 22 0
23 -37 18 -54 -7z"/>
<path d="M16325 13520 c-4 -6 -4 -22 -1 -36 4 -13 3 -24 -2 -24 -4 0 -23 -27
-42 -59 -32 -55 -37 -59 -65 -54 -38 6 -99 -33 -103 -66 -2 -13 6 -37 18 -53
l22 -30 -40 -87 c-50 -106 -58 -164 -26 -196 15 -15 18 -15 32 -1 15 14 14 17
-2 29 -15 11 -17 21 -12 53 7 36 72 180 86 189 3 2 32 -4 64 -13 58 -16 59
-16 77 7 22 27 19 68 -13 141 l-19 44 25 47 c28 50 38 109 19 116 -6 2 -14 -1
-18 -7z m-15 -294 c0 -27 -1 -28 -37 -21 -63 12 -64 15 -30 72 l32 52 17 -37
c10 -20 18 -50 18 -66z m-90 78 c0 -3 -10 -20 -23 -39 -18 -26 -26 -32 -35
-23 -17 17 -15 45 6 57 18 11 52 15 52 5z"/>
<path d="M15152 13480 c-17 -11 -31 -25 -30 -32 2 -7 -2 -12 -8 -13 -30 -1
-124 -138 -124 -181 0 -9 -11 -25 -25 -36 -38 -30 -31 -77 10 -62 9 4 14 13
11 20 -7 19 -4 18 51 -16 44 -28 53 -29 96 -21 82 15 112 66 66 112 -18 18
-29 20 -78 16 -31 -3 -66 -8 -79 -12 l-23 -8 16 39 c9 22 28 51 42 66 14 14
22 31 19 37 -4 6 -1 11 7 11 8 0 22 9 33 21 10 12 32 28 47 36 27 13 32 33 11
40 -5 2 -24 -6 -42 -17z m23 -257 c16 -16 16 -18 -5 -35 -29 -24 -88 -23 -120
2 l-25 19 25 9 c66 25 104 27 125 5z"/>
<path d="M14123 13458 c-12 -13 -39 -57 -61 -98 -64 -120 -92 -261 -57 -290
24 -20 44 3 27 30 -21 34 13 165 70 265 29 49 33 53 40 34 10 -25 32 -20 36 7
3 24 -14 74 -26 74 -5 0 -18 -10 -29 -22z"/>
<path d="M14304 13440 c-30 -12 -65 -60 -62 -84 4 -28 32 -27 36 0 5 37 42 60
90 55 21 -2 13 -56 -17 -103 -16 -25 -56 -66 -89 -91 -66 -52 -79 -77 -53
-109 17 -20 21 -21 76 -10 32 7 72 12 89 12 55 0 108 19 104 38 -3 9 -11 15
-19 13 -20 -5 -191 -30 -211 -31 -28 0 -11 26 46 69 60 44 114 122 123 174 9
60 -47 94 -113 67z"/>
<path d="M15759 13415 c-54 -17 -82 -45 -77 -77 4 -28 33 -31 33 -3 0 13 12
26 35 37 41 19 122 28 126 13 1 -5 -34 -41 -78 -80 -90 -78 -114 -113 -95
-138 14 -19 21 -20 120 -18 70 1 77 3 77 21 0 26 -25 36 -54 21 -12 -7 -44
-11 -72 -9 l-49 3 105 102 c91 88 103 104 94 120 -14 23 -101 28 -165 8z"/>
<path d="M16965 13409 c-16 -5 -55 -13 -85 -17 -51 -7 -55 -10 -52 -32 4 -36
21 -49 36 -28 11 15 165 62 175 53 2 -3 -1 -10 -6 -17 -6 -7 -25 -50 -43 -96
l-33 -82 -53 2 c-54 2 -82 -11 -69 -31 4 -7 20 -9 40 -5 54 10 57 -1 19 -78
-40 -84 -44 -118 -14 -118 18 0 25 15 21 42 -1 10 46 108 63 130 10 14 34 19
107 24 90 6 138 18 124 32 -4 4 -49 5 -101 4 -52 -2 -94 -2 -94 1 0 10 29 85
54 140 22 46 25 61 15 73 -13 16 -59 17 -104 3z"/>
<path d="M3297 13330 c-20 -11 -49 -39 -64 -60 -50 -77 -38 -191 23 -206 55
-14 149 15 125 39 -6 6 -23 5 -46 -3 -74 -24 -115 15 -94 92 20 78 53 108 132
122 23 4 37 12 34 19 -6 20 -69 18 -110 -3z"/>
<path d="M16585 13338 c-2 -7 -9 -47 -15 -88 -6 -41 -16 -108 -23 -148 -13
-85 -5 -107 39 -107 23 0 30 5 32 23 3 21 1 22 -17 12 -31 -16 -35 3 -17 91 8
41 18 94 21 119 4 25 12 53 17 63 6 12 6 23 -3 33 -14 17 -28 18 -34 2z"/>
<path d="M3745 13270 c-3 -5 -1 -10 5 -10 6 0 8 -5 5 -10 -4 -6 -10 -8 -14 -6
-11 7 -50 -77 -57 -123 -8 -49 11 -64 38 -30 50 64 92 99 120 99 35 0 36 -15
3 -80 -22 -44 -23 -50 -9 -64 8 -9 25 -16 37 -16 25 0 87 35 87 49 0 18 -17
21 -36 6 -17 -13 -54 -21 -54 -11 0 2 9 24 20 49 24 54 15 93 -24 103 -34 8
-61 -2 -103 -39 l-35 -31 26 52 c25 49 27 72 6 72 -5 0 -12 -4 -15 -10z"/>
<path d="M3520 13240 c0 -18 11 -25 34 -21 13 3 36 -20 36 -35 0 -22 -61 -54
-102 -54 -32 0 -38 3 -38 21 0 28 18 59 35 59 19 0 30 19 17 32 -15 15 -67
-17 -82 -51 -15 -38 -6 -77 21 -92 32 -17 102 -2 148 32 49 35 52 60 12 100
-35 35 -81 40 -81 9z"/>
<path d="M17351 13106 c-12 -13 -19 -26 -14 -29 4 -3 37 -2 73 2 44 4 91 1
145 -9 l80 -16 -67 -22 c-37 -12 -95 -38 -129 -58 -148 -87 -306 -301 -311
-422 -3 -106 50 -189 152 -235 168 -75 410 -70 604 14 86 38 119 67 151 136
61 127 69 256 25 406 -41 143 -62 160 -235 188 -71 11 -187 31 -258 45 -161
31 -187 31 -216 0z m486 -90 c111 -4 136 -16 161 -75 70 -162 72 -317 6 -457
-31 -67 -66 -96 -162 -133 -136 -52 -280 -64 -429 -36 -278 53 -327 236 -128
478 71 86 170 159 260 192 75 28 160 45 187 38 9 -2 56 -5 105 -7z"/>
<path d="M17624 12845 c-26 -64 -26 -64 99 -67 l112 -3 -160 -81 c-184 -92
-209 -119 -103 -108 51 5 71 3 99 -11 69 -36 79 -87 26 -140 -66 -66 -152 -68
-198 -4 -25 36 -34 36 -37 4 -3 -36 67 -85 120 -85 89 0 188 77 188 145 0 56
-54 109 -125 125 -28 6 -20 11 97 68 70 34 132 70 137 81 19 35 -10 45 -125
43 l-103 -2 9 26 c20 52 -14 61 -36 9z"/>
<path d="M4925 13106 c-47 -14 -56 -43 -12 -38 45 5 77 20 77 37 0 18 -11 18
-65 1z"/>
<path d="M5182 13089 c-36 -11 -51 -34 -34 -51 9 -9 16 -7 29 4 10 9 32 18 48
20 19 2 30 9 30 18 0 18 -29 22 -73 9z"/>
<path d="M4630 13078 c0 -25 15 -36 43 -31 33 6 36 28 5 37 -35 9 -48 7 -48
-6z"/>
<path d="M8043 12643 c-14 -5 -18 -33 -5 -33 16 0 188 -137 200 -161 16 -29 8
-170 -12 -227 -8 -20 -43 -85 -79 -145 -72 -117 -106 -197 -114 -267 -7 -59
38 -240 72 -291 l25 -38 -39 -23 c-21 -12 -44 -31 -51 -42 -22 -35 -12 -114
31 -240 l42 -121 -6 -122 c-9 -164 -23 -277 -57 -441 -33 -162 -63 -248 -93
-264 -46 -24 -207 3 -238 41 -17 20 -29 18 -29 -4 0 -7 12 -25 26 -40 47 -51
183 -73 255 -42 28 11 43 27 62 68 48 99 98 344 117 575 17 206 14 236 -30
364 -22 63 -40 134 -40 156 0 39 3 44 51 74 27 18 64 36 82 39 19 4 33 14 35
24 3 14 -4 17 -33 17 -70 0 -92 28 -125 158 -28 112 -26 169 11 257 17 41 48
102 70 135 77 119 98 173 109 271 12 120 2 149 -70 207 -30 24 -76 61 -102 83
-26 21 -48 39 -50 38 -2 0 -9 -3 -15 -6z"/>
<path d="M5721 12592 c-89 -89 -75 -186 24 -168 36 7 103 68 111 103 9 34 -3
71 -26 78 -11 3 -20 13 -20 21 0 29 -42 13 -89 -34z m55 -39 c13 -17 15 -17
29 1 14 19 15 19 15 -6 0 -37 -53 -88 -91 -88 -25 0 -29 4 -29 29 0 29 33 81
52 81 6 0 17 -8 24 -17z"/>
<path d="M10065 12526 c-49 -21 -95 -81 -96 -124 -1 -64 1 -135 7 -187 5 -48
5 -50 -23 -60 -15 -6 -57 -7 -93 -4 -66 6 -88 0 -76 -20 5 -7 45 -11 106 -11
l98 0 4 -38 c1 -21 1 -51 -2 -67 -5 -24 -10 -29 -29 -27 -27 3 -26 -24 1 -42
14 -8 22 -6 40 12 20 19 23 34 24 99 l1 76 36 12 c35 12 35 12 26 -12 -16 -42
-10 -98 12 -127 42 -53 140 -17 152 56 9 51 -5 112 -26 116 -17 3 -18 -1 -12
-52 6 -43 4 -62 -9 -80 -19 -30 -52 -42 -71 -26 -22 18 -19 94 5 140 11 21 16
41 11 44 -5 3 -35 -3 -67 -14 -32 -11 -61 -17 -65 -13 -5 5 -11 61 -15 125
l-7 117 42 42 c34 34 46 40 68 36 59 -12 66 -12 70 1 3 7 -10 19 -31 27 -42
18 -43 18 -81 1z"/>
<path d="M12949 12515 c-33 -18 -44 -45 -60 -139 -13 -75 -14 -77 -39 -71 -15
3 -34 0 -45 -9 -19 -14 -19 -16 -3 -32 14 -14 20 -15 32 -5 31 26 43 6 48 -81
6 -89 30 -163 55 -173 29 -10 36 11 15 42 -20 27 -42 118 -42 175 0 23 4 28
24 28 13 0 39 -7 59 -15 33 -14 47 -12 47 7 0 12 -80 48 -107 48 -19 0 -21 4
-17 38 8 54 32 117 53 136 23 21 76 31 85 17 11 -18 26 -13 26 9 0 38 -79 54
-131 25z"/>
<path d="M10839 12493 c-1 -4 0 -76 1 -159 l2 -151 -61 -13 c-34 -7 -64 -17
-67 -22 -14 -22 14 -27 66 -13 30 8 57 15 59 15 10 0 -7 -124 -17 -128 -17 -5
-15 -29 3 -36 26 -9 45 34 45 100 l0 62 78 4 c42 2 79 2 81 1 2 -1 5 -30 7
-64 4 -64 14 -86 33 -75 12 8 3 145 -12 164 -6 8 -39 12 -96 12 l-86 0 -1 153
c-1 131 -4 152 -18 155 -9 2 -16 0 -17 -5z"/>
<path d="M7382 12458 c-11 -18 -34 -68 -52 -111 -18 -43 -37 -76 -44 -75 -15
5 -66 106 -66 132 0 12 -5 28 -10 36 -16 25 -33 -3 -26 -43 8 -45 64 -157 82
-164 10 -3 4 -31 -27 -115 -21 -60 -39 -117 -39 -126 0 -14 -10 -17 -67 -15
-250 9 -433 7 -433 -4 0 -6 6 -15 13 -20 21 -13 682 -16 961 -3 5 0 2 7 -5 16
-12 15 -36 16 -221 9 l-208 -7 0 24 c0 14 18 74 39 135 41 114 55 147 112 268
37 78 39 87 23 92 -7 2 -21 -11 -32 -29z"/>
<path d="M5411 12458 c-5 -13 -16 -48 -25 -79 l-16 -57 -60 25 c-62 25 -84 23
-76 -5 4 -12 -6 -22 -33 -35 -50 -23 -91 -77 -108 -141 -11 -44 -11 -54 5 -85
9 -20 31 -45 49 -56 18 -11 32 -23 33 -26 0 -3 -24 -41 -53 -85 -104 -154
-139 -220 -135 -256 4 -42 33 -50 50 -13 9 19 9 28 0 37 -14 14 2 44 110 209
l70 106 43 -5 c95 -10 206 44 220 108 9 41 -20 123 -57 166 l-30 34 26 81 c14
45 23 85 20 90 -9 16 -24 10 -33 -13z m-94 -150 c15 -7 30 -13 31 -14 4 -3
-104 -199 -127 -231 -22 -30 -37 -29 -73 7 -27 27 -30 36 -25 71 7 51 48 114
88 134 29 15 32 15 44 -2 11 -15 16 -16 27 -5 10 10 10 16 0 32 -14 23 -5 25
35 8z m118 -122 c22 -52 19 -89 -9 -115 -31 -29 -112 -54 -154 -46 l-33 6 19
27 c11 15 39 63 62 107 60 110 59 109 81 80 11 -13 26 -40 34 -59z"/>
<path d="M4953 12431 c-67 -49 -109 -122 -163 -286 -38 -113 -40 -160 -7 -192
31 -31 67 -20 133 39 59 55 71 80 55 121 -9 22 -17 27 -43 27 -18 0 -52 -9
-75 -19 l-41 -19 23 67 c43 129 91 204 151 242 l37 22 17 -23 c21 -27 44 -18
34 13 -14 46 -64 50 -121 8z m-13 -350 c0 -19 -61 -82 -98 -101 -18 -9 -27 -9
-38 1 -19 15 -18 38 2 46 8 3 13 12 10 19 -5 14 36 41 84 54 30 9 40 4 40 -19z"/>
<path d="M15190 12393 c-37 -79 -67 -160 -81 -222 -11 -49 -24 -63 -86 -92
-52 -24 -77 -17 -69 22 8 41 53 108 81 121 18 8 22 15 15 23 -5 7 -6 15 -2 20
4 4 -7 0 -25 -9 -37 -18 -84 -83 -102 -139 -28 -85 46 -115 140 -57 27 16 49
25 49 19 0 -5 11 -21 25 -34 17 -18 35 -25 63 -25 66 0 162 43 162 72 0 11
-37 10 -45 -2 -3 -5 -31 -17 -62 -26 -42 -12 -61 -14 -79 -5 -34 15 -40 53
-16 93 31 52 98 281 87 299 -13 19 -24 7 -55 -58z"/>
<path d="M3707 12398 c-31 -42 -46 -70 -68 -133 l-18 -50 -68 0 c-54 0 -68 -3
-68 -15 0 -12 15 -16 66 -18 l67 -3 -9 -37 c-5 -20 -9 -62 -9 -92 0 -70 19
-100 63 -100 44 0 121 42 125 69 4 26 -2 26 -36 1 -42 -31 -89 -42 -107 -24
-18 18 -19 51 -4 127 13 63 8 61 114 61 55 1 70 4 70 16 0 12 -17 16 -83 18
-80 3 -83 4 -76 25 13 45 67 137 80 137 17 0 25 15 18 34 -10 25 -31 19 -57
-16z"/>
<path d="M11087 12374 c-13 -13 14 -44 38 -44 18 0 25 5 25 19 0 25 -45 42
-63 25z"/>
<path d="M11807 12276 c-32 -30 -32 -30 -10 -67 10 -17 39 -39 71 -54 66 -31
60 -51 -9 -36 -28 6 -48 6 -53 0 -19 -18 15 -34 76 -34 47 0 63 4 72 18 16 25
-1 47 -65 80 -77 41 -89 67 -33 77 36 6 39 34 3 38 -16 2 -35 -6 -52 -22z"/>
<path d="M9056 12257 c-14 -14 -30 -51 -40 -94 -20 -82 -18 -136 5 -141 13 -2
17 10 22 71 3 40 12 90 21 111 14 34 19 38 44 33 15 -3 35 -9 45 -12 12 -5 17
-2 17 9 0 17 -20 30 -63 40 -21 5 -33 1 -51 -17z"/>
<path d="M11538 12229 c-24 -29 -55 -66 -70 -83 l-28 -31 3 35 c2 42 -26 51
-31 10 -2 -14 -9 -48 -17 -77 -11 -43 -11 -54 0 -63 11 -9 18 -5 31 17 10 15
36 48 59 73 22 25 52 61 67 80 l27 35 1 -67 c0 -102 29 -145 80 -118 26 14 20
36 -8 33 -32 -4 -43 28 -41 110 4 114 -9 122 -73 46z"/>
<path d="M13839 12218 c-38 -39 -53 -49 -57 -38 -8 23 -73 81 -86 77 -6 -2
-11 -15 -11 -28 0 -17 6 -24 20 -24 13 0 26 -13 38 -37 18 -36 18 -37 -7 -76
-29 -46 -78 -71 -101 -52 -12 10 -16 9 -21 -3 -3 -9 -3 -21 1 -27 8 -13 60
-13 85 0 15 8 20 6 24 -8 11 -32 50 -46 112 -38 65 8 94 20 94 42 0 11 -5 14
-17 9 -10 -4 -45 -9 -78 -12 -47 -4 -63 -2 -73 10 -19 23 22 97 95 173 53 55
67 84 43 84 -5 0 -32 -24 -61 -52z"/>
<path d="M8834 12239 c-37 -10 -111 -87 -120 -123 -3 -14 -3 -37 0 -51 11 -43
79 -32 138 22 l26 25 10 -35 c5 -19 8 -45 5 -59 -5 -28 28 -75 45 -64 14 8 16
36 3 36 -4 0 -11 24 -14 53 -11 105 -46 166 -66 115 -17 -44 -94 -99 -113 -80
-14 14 14 62 57 101 32 28 73 39 118 32 13 -2 7 11 -10 25 -21 15 -35 16 -79
3z"/>
<path d="M14743 12214 c-55 -71 -63 -80 -57 -62 8 23 -43 88 -68 88 -25 0 -99
-78 -122 -129 -15 -33 -17 -43 -6 -56 19 -23 40 -18 97 20 50 34 52 34 55 12
6 -42 32 -28 82 44 26 39 55 73 63 76 22 9 34 -16 32 -67 -1 -25 -1 -55 0 -67
1 -29 38 -40 60 -19 15 15 14 17 -7 23 -21 5 -23 11 -22 52 4 70 2 79 -20 101
-29 29 -56 25 -87 -16z m-108 -24 c9 -15 -25 -60 -67 -86 -21 -13 -40 -24 -43
-24 -10 0 24 57 53 88 31 33 46 39 57 22z"/>
<path d="M15788 12238 c-5 -13 37 -262 46 -276 3 -5 -26 -60 -64 -123 -67
-109 -85 -159 -57 -159 7 0 18 15 25 33 7 17 36 70 66 117 42 67 57 84 74 82
26 -4 40 18 20 32 -13 10 -3 30 72 138 55 78 85 130 80 138 -12 19 -22 9 -106
-116 -61 -90 -79 -112 -84 -97 -4 10 -15 69 -25 131 -12 75 -22 112 -31 112
-7 0 -14 -6 -16 -12z"/>
<path d="M9225 12218 c-32 -25 -64 -91 -65 -131 0 -64 58 -117 127 -117 64 1
126 17 140 36 19 26 0 40 -28 20 -26 -18 -138 -22 -168 -6 -10 5 -24 22 -30
38 -10 24 -9 36 4 68 20 48 43 74 66 74 36 0 30 -22 -17 -66 -36 -33 -45 -47
-37 -55 9 -9 23 -2 56 25 64 52 75 92 35 120 -30 22 -50 20 -83 -6z"/>
<path d="M3983 12209 c-33 -21 -93 -102 -93 -125 0 -7 5 -25 12 -39 16 -35 46
-32 94 9 l39 33 1 -40 c0 -36 5 -44 30 -50 11 -3 12 153 1 160 -5 3 -32 -18
-61 -46 -54 -54 -76 -63 -76 -33 0 44 81 125 108 108 4 -2 14 0 22 5 13 8 12
12 -4 24 -26 19 -35 19 -73 -6z"/>
<path d="M4285 12179 c-38 -35 -45 -38 -45 -21 0 20 -22 36 -34 25 -3 -4 -6
-18 -6 -32 0 -15 -10 -51 -21 -81 -12 -30 -22 -66 -23 -80 -1 -33 25 -33 34 1
8 28 83 130 125 169 26 25 27 25 42 5 16 -22 13 -92 -8 -150 -10 -27 -10 -37
0 -49 21 -25 54 -2 47 32 -3 15 -2 52 3 82 8 45 6 61 -7 89 -27 56 -55 58
-107 10z"/>
<path d="M10382 12188 c-9 -17 -26 -41 -38 -52 -21 -21 -34 -58 -37 -106 -3
-35 29 -39 37 -4 12 45 64 154 74 154 6 0 13 -19 17 -42 17 -113 51 -186 75
-162 7 7 3 24 -9 50 -10 21 -22 59 -26 84 -12 85 -24 110 -51 110 -18 0 -30
-9 -42 -32z"/>
<path d="M10591 12183 c-47 -39 -92 -122 -84 -153 3 -10 14 -28 25 -40 18 -20
28 -22 78 -17 61 5 118 29 127 53 9 25 -6 29 -39 10 -69 -41 -144 -41 -154 0
-10 40 64 137 111 146 11 2 20 10 20 18 0 28 -40 20 -84 -17z"/>
<path d="M12710 12206 c0 -7 -15 -25 -34 -39 -78 -60 -59 -147 32 -147 16 0
41 9 56 21 25 20 27 26 24 83 -3 52 -7 62 -26 71 -12 5 -22 13 -22 17 0 5 -7
8 -15 8 -8 0 -15 -6 -15 -14z m48 -110 c-4 -29 -51 -50 -78 -36 -29 16 -25 45
13 74 l32 26 18 -22 c10 -12 17 -31 15 -42z"/>
<path d="M11211 12137 c-5 -13 -16 -28 -24 -35 -21 -18 -29 -59 -17 -82 14
-27 69 -26 104 1 31 25 33 45 6 74 -18 20 -19 23 -5 35 24 20 18 30 -20 30
-28 0 -37 -5 -44 -23z m40 -63 c11 -14 10 -18 -6 -30 -26 -19 -45 -18 -45 4 0
18 18 42 31 42 4 0 13 -7 20 -16z"/>
<path d="M6142 12133 c3 -15 16 -17 86 -18 45 0 82 2 82 5 0 20 -32 30 -98 30
-64 0 -73 -2 -70 -17z"/>
<path d="M6194 12029 c-65 -11 -104 -26 -104 -39 0 -17 27 -22 50 -10 13 7 54
13 93 15 75 3 97 18 52 35 -14 5 -29 9 -33 9 -4 -1 -30 -5 -58 -10z"/>
<path d="M16137 12033 c-4 -3 -7 -19 -7 -34 0 -31 -118 -218 -138 -219 -19 0
-11 -44 8 -47 14 -2 49 46 137 190 18 28 42 62 54 73 12 12 18 27 15 33 -8 12
-59 15 -69 4z"/>
<path d="M7206 11628 c-45 -52 -76 -115 -76 -155 0 -34 26 -63 57 -63 59 0
170 77 146 101 -8 8 -17 5 -33 -11 -12 -12 -42 -31 -67 -42 -40 -18 -47 -18
-60 -5 -22 22 -2 75 53 143 40 49 48 74 24 74 -5 0 -25 -19 -44 -42z"/>
<path d="M7024 11609 c-8 -13 5 -26 31 -31 31 -5 31 -53 0 -98 -39 -56 -71
-84 -80 -69 -6 8 -4 10 5 4 9 -5 11 -4 6 3 -12 20 -34 13 -40 -13 -16 -63 30
-60 95 5 49 49 79 101 79 138 0 47 -75 95 -96 61z"/>
<path d="M17427 11544 c-4 -4 -4 -51 -1 -104 8 -115 -4 -195 -46 -304 -48
-124 -25 -141 62 -47 59 63 105 98 116 87 3 -4 -4 -35 -16 -69 -26 -72 -28
-100 -7 -117 20 -17 36 -3 29 26 -4 14 3 53 16 93 17 55 19 73 11 90 -7 12
-16 21 -21 21 -26 0 -70 -26 -112 -68 -27 -25 -48 -43 -48 -39 0 3 10 30 22
59 19 46 22 73 22 212 1 150 -5 182 -27 160z"/>
<path d="M16365 11433 c-9 -32 -34 -104 -56 -160 -21 -56 -39 -109 -39 -119 0
-13 -6 -15 -32 -10 -62 11 -71 11 -75 -1 -5 -13 22 -27 69 -37 l26 -6 -12 -53
c-7 -30 -23 -64 -35 -76 -16 -16 -20 -26 -13 -33 13 -13 72 26 72 47 0 8 5 37
11 65 l11 50 44 0 c40 0 44 2 44 24 0 28 -25 38 -52 22 -9 -6 -20 -7 -23 -4
-4 3 14 57 38 120 24 62 48 129 52 148 4 19 12 40 17 47 12 15 2 33 -17 33 -8
0 -20 -23 -30 -57z"/>
<path d="M13367 11474 c-4 -4 -7 -25 -7 -47 0 -28 -12 -62 -41 -114 -39 -70
-43 -74 -68 -67 -45 13 -76 10 -76 -6 0 -9 15 -18 41 -24 l41 -8 -32 -82 c-46
-116 -57 -136 -71 -136 -22 0 -28 -23 -9 -37 11 -7 22 -13 27 -13 10 0 61 102
78 155 7 22 21 56 31 76 17 34 21 37 81 43 71 8 98 20 98 43 0 11 -6 14 -22 9
-33 -10 -108 -19 -108 -14 0 3 16 36 35 73 27 52 35 78 33 108 -3 38 -16 56
-31 41z"/>
<path d="M12229 11388 c-63 -159 -99 -225 -169 -309 -29 -34 -88 -56 -96 -35
-12 31 49 120 93 137 26 10 27 32 2 37 -21 4 -87 -55 -109 -99 -23 -43 -26
-89 -8 -107 33 -33 129 7 169 71 l19 32 0 -37 c0 -68 27 -106 65 -92 22 9 18
34 -4 34 -42 0 -35 92 15 213 64 154 91 226 86 231 -17 17 -33 -3 -63 -76z"/>
<path d="M10355 11425 c-15 -19 -40 -76 -57 -127 -16 -51 -36 -104 -45 -117
-18 -29 -63 -158 -63 -183 0 -11 7 -18 18 -18 14 0 27 25 56 105 37 101 41
107 110 168 70 63 167 137 180 137 14 0 4 -45 -30 -132 -108 -276 -107 -302
10 -181 72 73 77 77 89 58 6 -11 12 -40 12 -64 0 -60 16 -69 96 -52 35 7 80
21 101 32 l38 19 -6 -28 c-4 -19 -1 -32 10 -41 23 -20 69 2 135 64 l54 50 -33
-60 c-18 -33 -41 -69 -50 -80 -38 -45 -150 -218 -156 -241 -3 -13 -3 -31 0
-40 5 -13 9 -14 21 -4 8 7 15 21 15 32 0 22 11 39 106 173 114 159 163 275
118 275 -9 0 -50 -31 -90 -70 -99 -94 -116 -93 -68 1 38 76 11 113 -33 45 -25
-39 -104 -81 -175 -95 -46 -8 -48 -7 -48 14 0 17 7 24 29 28 64 13 112 82 79
115 -19 19 -35 14 -77 -26 l-41 -39 -15 24 c-22 33 -39 29 -97 -24 -28 -27
-49 -41 -45 -33 3 8 20 48 36 89 17 40 38 98 47 128 14 49 14 56 0 78 -9 14
-22 25 -29 25 -17 0 -82 -44 -152 -105 -87 -74 -88 -74 -61 1 23 61 52 112 44
74 -2 -8 4 -15 12 -15 8 0 15 6 14 13 -1 6 -2 23 -2 37 -3 35 -26 31 -57 -10z
m395 -261 c-8 -8 -23 -20 -34 -26 -19 -10 -18 -8 3 16 26 27 53 37 31 10z"/>
<path d="M15883 11433 c-3 -10 -28 -72 -54 -138 -26 -66 -57 -156 -69 -200
-12 -44 -26 -87 -30 -96 -10 -20 4 -44 22 -37 8 4 19 34 26 73 7 36 42 140 78
231 36 90 62 169 59 174 -10 15 -25 12 -32 -7z"/>
<path d="M9380 11392 c0 -10 -10 -36 -21 -57 -12 -22 -33 -71 -48 -110 -24
-65 -31 -73 -90 -113 -64 -43 -90 -45 -77 -6 10 32 70 109 85 109 18 0 23 16
12 34 -13 21 -45 -2 -91 -66 -85 -119 -27 -187 89 -102 l41 29 6 -40 c4 -21
15 -47 25 -56 17 -15 24 -16 62 -5 51 16 67 28 67 52 0 23 -13 25 -29 5 -18
-22 -72 -31 -82 -15 -19 30 -9 88 21 132 19 26 37 70 46 112 9 39 18 80 21 93
4 17 1 22 -16 22 -13 0 -21 -6 -21 -18z"/>
<path d="M17825 11350 c-18 -36 -19 -50 -2 -50 17 0 60 58 52 70 -12 19 -35
10 -50 -20z"/>
<path d="M17983 11263 c-113 -110 -125 -131 -202 -335 -53 -141 -64 -214 -37
-237 22 -18 37 11 71 132 12 44 13 62 5 72 -17 21 67 229 89 219 9 -3 36 -9
62 -11 37 -4 58 1 121 31 114 54 168 124 136 175 -16 26 -72 51 -112 51 -28 0
-47 -14 -133 -97z m195 44 c52 -25 13 -86 -87 -136 -58 -30 -146 -43 -164 -24
-10 9 156 170 180 175 20 5 38 1 71 -15z"/>
<path d="M11692 11311 c-11 -31 -6 -67 11 -88 15 -21 29 -3 23 30 -4 21 -1 33
10 41 19 15 8 46 -16 46 -11 0 -22 -12 -28 -29z"/>
<path d="M16604 11329 c-10 -17 53 -76 66 -63 8 8 3 20 -15 43 -29 33 -40 38
-51 20z"/>
<path d="M12425 11280 c-25 -27 -9 -45 28 -31 30 12 33 21 15 39 -16 16 -22
15 -43 -8z"/>
<path d="M15422 11264 c-64 -45 -182 -232 -182 -289 0 -44 27 -27 55 33 55
119 70 146 111 191 39 43 43 45 68 33 15 -7 32 -10 37 -7 18 12 9 26 -26 41
-42 17 -36 17 -63 -2z"/>
<path d="M17236 11265 c-21 -21 -20 -29 6 -92 18 -43 19 -57 10 -78 -16 -35
-72 -68 -90 -53 -10 9 -16 8 -23 -3 -37 -59 75 -47 126 13 29 34 33 97 10 138
-20 35 -18 47 6 53 12 3 19 12 17 19 -7 20 -43 21 -62 3z"/>
<path d="M17018 11200 c-46 -51 -54 -56 -50 -34 4 21 1 25 -13 22 -19 -3 -78
-152 -70 -175 7 -20 23 -15 37 11 16 30 124 162 140 172 8 5 9 2 3 -12 -31
-77 -23 -174 16 -174 20 0 26 24 9 35 -15 9 -12 78 6 120 18 45 15 89 -7 93
-10 2 -39 -22 -71 -58z"/>
<path d="M13505 11205 c-76 -39 -125 -108 -125 -179 0 -60 43 -86 143 -86 42
0 88 9 141 27 81 28 114 57 102 90 -6 15 -10 14 -29 -10 -49 -61 -264 -94
-310 -48 -28 28 -16 68 23 75 16 3 44 9 60 12 41 8 90 50 90 78 0 25 -28 56
-51 56 -8 0 -27 -7 -44 -15z m55 -40 c0 -8 -10 -21 -22 -29 -24 -15 -98 -32
-98 -23 0 11 85 66 103 67 9 0 17 -7 17 -15z"/>
<path d="M15563 11185 c-66 -43 -113 -106 -113 -151 0 -55 45 -65 148 -33 30
10 33 14 27 40 -4 18 -3 29 4 29 6 0 11 6 11 14 0 17 -44 10 -61 -10 -9 -11
-9 -17 0 -28 9 -11 5 -15 -20 -20 -49 -10 -79 -7 -79 7 1 27 28 60 53 63 34 3
115 51 128 76 7 14 7 23 -2 34 -17 21 -39 17 -96 -21z"/>
<path d="M8688 11191 c-30 -24 -61 -95 -53 -122 14 -42 71 -44 105 -4 7 9 21
20 31 26 16 8 17 6 8 -23 -12 -43 -12 -85 1 -93 23 -14 51 10 96 80 50 78 74
96 100 74 12 -9 14 -23 10 -50 -8 -51 15 -58 49 -16 14 18 30 37 35 44 6 7 10
17 10 23 0 13 -27 13 -35 0 -4 -6 -21 2 -41 20 -58 50 -76 42 -154 -70 -52
-75 -59 -69 -24 19 16 38 18 71 5 71 -5 0 -8 8 -7 18 2 27 -101 30 -136 3z
m112 -20 c0 -19 -116 -109 -127 -98 -10 11 8 59 32 83 24 24 95 35 95 15z"/>
<path d="M12620 11183 c-89 -81 -57 -195 60 -210 57 -8 51 16 -9 36 -73 23
-88 74 -40 134 24 31 77 36 119 12 33 -19 40 -18 40 4 0 13 -13 24 -40 35 -59
23 -95 20 -130 -11z"/>
<path d="M12950 11179 c-62 -36 -103 -115 -75 -143 18 -17 30 -14 98 26 26 15
50 28 53 28 2 0 4 -16 2 -36 -3 -43 25 -72 49 -52 9 7 10 15 4 21 -5 5 -7 15
-5 22 3 7 1 16 -5 19 -6 4 -5 20 4 47 21 60 0 60 -91 0 -43 -28 -79 -49 -82
-47 -7 8 29 61 55 80 14 10 40 19 57 20 20 1 31 6 31 16 0 23 -55 23 -95 -1z"/>
<path d="M14495 11176 c-58 -27 -109 -75 -136 -127 -36 -72 6 -97 92 -54 30
15 61 34 71 42 15 13 16 11 11 -25 -4 -32 -1 -44 16 -61 21 -21 61 -29 61 -11
0 5 -9 14 -21 21 -17 9 -20 17 -16 47 8 60 30 111 50 116 14 3 17 10 12 28
-16 53 -61 60 -140 24z m67 -43 c-33 -46 -84 -88 -130 -108 -23 -10 -44 -16
-47 -13 -3 2 8 25 24 50 29 45 111 98 154 98 18 0 18 -1 -1 -27z"/>
<path d="M16697 11178 c-25 -26 -57 -97 -57 -125 0 -13 11 -29 25 -39 52 -34
151 20 162 88 5 32 1 41 -25 68 -36 35 -77 39 -105 8z m91 -66 c3 -26 -2 -35
-30 -52 -44 -27 -78 -27 -78 1 0 26 16 58 44 85 18 19 24 20 41 9 11 -7 21
-26 23 -43z"/>
<path d="M16534 11163 c-4 -10 -22 -52 -41 -94 -33 -71 -40 -116 -18 -112 10
1 80 152 90 196 6 21 4 27 -9 27 -9 0 -19 -8 -22 -17z"/>
<path d="M15943 11128 c-17 -18 -44 -53 -61 -77 -25 -34 -29 -47 -21 -62 14
-27 34 -24 105 16 l63 34 -5 -27 c-7 -34 16 -68 41 -59 14 6 15 10 5 22 -9 11
-11 33 -6 70 3 30 2 56 -3 60 -6 3 -25 -8 -43 -23 -39 -34 -118 -76 -118 -63
0 5 25 35 55 67 38 41 51 60 42 66 -18 12 -21 11 -54 -24z"/>
<path d="M11647 11144 c-4 -4 -7 -23 -8 -43 0 -20 -11 -58 -24 -86 -23 -50
-24 -65 -2 -65 18 0 59 100 60 149 2 41 -10 61 -26 45z"/>
<path d="M11754 11093 c-57 -62 -69 -86 -49 -103 11 -9 21 0 48 42 18 29 42
60 52 68 17 14 17 11 11 -65 -7 -85 0 -109 30 -103 24 4 32 38 9 38 -13 0 -16
6 -12 23 39 162 4 201 -89 100z"/>
<path d="M12343 11113 c-20 -46 -23 -134 -5 -140 8 -3 12 5 12 24 1 15 9 53
20 83 10 30 16 58 14 62 -11 17 -26 6 -41 -29z"/>
<path d="M17733 11073 c-3 -10 -12 -25 -20 -34 -14 -16 -8 -49 8 -49 13 0 50
62 47 79 -4 22 -27 25 -35 4z"/>
<path d="M3739 10991 c-34 -28 -14 -48 27 -26 30 16 74 20 74 8 0 -5 -19 -28
-41 -53 -118 -131 -145 -191 -96 -209 12 -5 33 -4 47 1 14 6 48 13 75 17 35 4
50 11 50 21 0 20 -46 21 -105 4 -25 -8 -48 -14 -53 -14 -16 0 25 61 93 140 89
103 91 124 9 128 -44 2 -61 -1 -80 -17z"/>
<path d="M7252 10959 c-47 -18 -53 -24 -50 -47 4 -32 24 -40 33 -13 6 19 70
49 82 38 19 -19 -47 -103 -128 -163 -90 -66 -51 -88 100 -56 122 26 151 37
151 58 0 12 -5 15 -22 9 -35 -10 -129 -32 -171 -40 l-38 -6 69 68 c78 76 97
120 66 154 -21 23 -25 23 -92 -2z"/>
<path d="M5533 10903 c-16 -6 -17 -43 -1 -43 6 0 27 5 45 12 25 9 36 9 44 1
15 -15 -3 -44 -88 -139 -63 -71 -74 -96 -51 -110 18 -11 177 -34 194 -27 20 7
17 32 -3 31 -18 -1 -155 21 -159 25 -1 1 29 38 66 82 81 93 95 123 74 154 -12
17 -25 21 -62 20 -26 0 -53 -3 -59 -6z"/>
<path d="M8407 10840 c-3 -11 -1 -23 4 -26 5 -3 9 -17 9 -32 0 -42 -52 -272
-62 -272 -13 0 -10 -84 4 -98 42 -42 175 37 226 135 19 34 14 61 -13 79 -33
21 -73 11 -122 -31 l-40 -34 23 102 c13 56 21 111 18 123 -6 21 -12 54 -13 67
-2 16 -29 6 -34 -13z m153 -256 c0 -38 -59 -110 -107 -130 -46 -20 -63 -18
-63 8 0 32 111 138 145 138 16 0 25 -6 25 -16z"/>
<path d="M13728 10783 c-56 -92 -61 -105 -67 -168 l-6 -60 -55 -28 c-36 -18
-67 -27 -90 -25 -31 3 -35 6 -38 35 -3 26 4 41 37 75 37 39 42 42 62 30 33
-21 50 2 22 30 -19 19 -25 20 -53 8 -59 -25 -137 -146 -101 -158 6 -2 8 -8 5
-13 -9 -15 14 -37 45 -44 32 -7 131 24 172 54 17 13 30 16 42 10 20 -11 105
-14 136 -4 36 11 18 30 -25 27 -21 -2 -52 -1 -70 2 l-31 6 23 48 c22 44 54
170 54 213 0 36 -27 19 -62 -38z m-3 -109 c-18 -60 -35 -88 -35 -61 0 20 40
120 46 114 2 -2 -3 -26 -11 -53z"/>
<path d="M8975 10803 c-31 -140 -61 -249 -72 -256 -8 -5 -29 -24 -48 -43 -28
-28 -40 -33 -62 -29 -16 4 -38 8 -50 11 -12 2 -25 16 -31 33 -9 26 -8 30 11
36 12 4 25 7 29 6 4 0 23 14 42 33 25 23 36 42 36 63 0 81 -69 64 -135 -33
-43 -64 -26 -149 35 -174 34 -14 122 -8 128 9 2 6 12 1 21 -11 24 -29 47 -18
55 25 4 19 13 40 20 46 18 15 123 37 132 28 4 -3 -3 -30 -15 -58 -37 -91 -24
-110 47 -65 l37 23 18 -23 c23 -30 57 -31 109 -2 54 30 78 80 78 158 0 52 -3
61 -17 58 -12 -2 -17 -15 -18 -55 -2 -67 -21 -111 -56 -128 -46 -25 -69 -20
-69 14 0 41 -11 44 -54 15 -40 -28 -53 -27 -38 3 37 72 16 108 -57 97 -25 -4
-56 -11 -68 -15 -29 -11 -30 1 -3 95 24 87 30 157 13 163 -7 3 -15 -8 -18 -24z
m-175 -144 c0 -14 -55 -69 -69 -69 -19 0 -12 18 20 49 31 32 49 39 49 20z"/>
<path d="M4407 10783 c-2 -4 -8 -47 -12 -95 -6 -81 -8 -87 -31 -92 -14 -4 -41
-4 -60 0 -30 5 -34 4 -34 -15 0 -19 6 -21 55 -21 54 0 55 0 55 -29 0 -41 17
-81 34 -81 11 0 13 12 9 61 l-6 61 84 -4 c70 -2 84 0 84 12 0 12 -17 16 -83
18 l-82 3 6 52 c10 88 10 130 -3 134 -6 2 -13 0 -16 -4z"/>
<path d="M11737 10743 c-11 -10 -8 -41 4 -49 6 -3 15 -2 21 4 22 22 118 -41
118 -78 0 -17 -45 -63 -97 -99 -18 -12 -33 -18 -33 -12 0 19 -26 12 -48 -12
-25 -26 -28 -46 -9 -48 32 -3 55 6 109 42 56 38 57 39 48 14 -12 -32 1 -60 32
-71 40 -14 171 -7 184 10 6 9 19 13 30 10 12 -3 26 1 34 11 19 23 4 31 -33 17
-44 -16 -189 -25 -206 -13 -12 8 -12 14 -1 41 14 33 143 160 198 192 35 22 40
35 17 44 -19 8 -165 -111 -165 -134 0 -21 -25 -6 -27 16 -2 34 -58 89 -111
107 -51 17 -56 18 -65 8z"/>
<path d="M6918 10705 c-13 -19 -28 -33 -35 -30 -18 6 -27 -15 -24 -55 1 -19
-7 -57 -19 -84 -25 -56 -21 -120 7 -114 12 2 24 33 43 108 25 101 53 170 68
170 4 0 21 -17 39 -37 27 -32 32 -35 38 -21 9 23 -49 98 -76 98 -11 0 -29 -15
-41 -35z"/>
<path d="M3355 10710 c-10 -16 1 -24 37 -26 35 -2 81 -33 87 -59 6 -35 -23
-96 -63 -133 -33 -30 -41 -33 -44 -19 -3 13 -7 15 -23 7 -23 -13 -24 -24 -4
-44 27 -27 95 12 136 78 l17 29 -5 -40 c-10 -77 36 -114 115 -92 42 12 82 48
82 75 0 22 -19 16 -43 -12 -30 -35 -100 -45 -116 -16 -13 24 7 99 50 185 28
54 30 77 8 77 -5 0 -21 -24 -36 -54 l-26 -54 -16 31 c-9 17 -28 39 -42 50 -32
23 -103 34 -114 17z"/>
<path d="M5353 10708 c-5 -7 -29 -60 -53 -118 -24 -58 -47 -109 -51 -114 -4
-4 -15 17 -25 48 -19 62 -72 123 -98 113 -13 -5 -14 -11 -5 -31 6 -13 20 -28
31 -33 11 -5 28 -31 38 -58 10 -28 24 -64 31 -81 11 -28 7 -45 -51 -207 -59
-164 -68 -215 -38 -205 6 2 17 26 24 54 6 27 36 117 66 199 31 83 65 180 76
216 12 37 37 99 56 139 33 67 37 90 17 90 -5 0 -13 -6 -18 -12z"/>
<path d="M9775 10664 c-50 -32 -95 -90 -95 -121 0 -13 7 -37 15 -52 26 -51
110 -61 140 -18 20 29 2 47 -23 24 -23 -21 -56 -22 -76 -1 -29 29 -18 48 45
79 66 32 91 64 72 93 -16 26 -34 25 -78 -4z m39 -32 c-12 -10 -64 -33 -64 -28
0 7 64 45 69 40 3 -2 0 -8 -5 -12z"/>
<path d="M10002 10668 c-11 -13 -34 -51 -50 -86 -28 -59 -32 -95 -10 -108 5
-4 47 32 93 80 79 82 116 107 100 69 -43 -107 25 -172 119 -114 20 13 36 27
36 32 0 14 -43 10 -64 -6 -25 -19 -50 -19 -66 0 -9 11 -8 25 5 65 20 59 15 80
-18 80 -29 0 -80 -37 -135 -97 -37 -42 -41 -44 -30 -18 17 41 40 78 57 91 13
11 8 34 -8 34 -4 0 -17 -10 -29 -22z"/>
<path d="M13132 10673 c-46 -9 -132 -118 -132 -167 0 -16 26 -46 40 -46 4 0
35 22 68 50 l59 49 -10 -50 c-17 -86 1 -84 98 12 48 46 89 86 91 89 3 3 2 -13
-2 -35 -17 -83 3 -128 45 -105 25 13 23 36 -4 33 -14 -1 -16 4 -11 30 32 154
12 160 -118 38 -57 -54 -59 -55 -52 -26 13 62 17 100 9 112 -10 14 -50 22 -81
16z m48 -41 c0 -8 -54 -61 -114 -112 l-29 -25 7 30 c4 17 7 36 8 43 1 6 7 12
15 12 7 0 13 5 13 10 0 6 15 19 33 30 33 20 67 26 67 12z"/>
<path d="M14460 10656 c0 -13 9 -43 19 -67 10 -24 22 -68 26 -98 4 -29 15 -61
24 -70 16 -15 13 -21 -48 -93 -137 -162 -192 -298 -120 -298 16 0 20 5 16 20
-3 11 -1 23 5 26 5 3 7 16 4 27 -3 13 6 41 24 72 30 53 168 220 200 242 10 7
28 32 39 56 12 24 48 76 82 115 56 67 66 92 36 92 -7 0 -52 -54 -101 -120 -50
-66 -95 -120 -102 -120 -7 0 -16 17 -19 38 -11 70 -57 202 -71 202 -8 0 -14
-10 -14 -24z"/>
<path d="M9494 10616 c-91 -61 -139 -153 -99 -186 12 -10 31 -9 96 4 93 19 99
21 99 43 0 9 7 21 17 28 13 9 13 14 3 20 -9 5 -11 4 -6 -3 4 -7 3 -12 -3 -12
-5 0 -11 5 -13 11 -5 16 -38 -1 -38 -20 0 -13 -14 -21 -51 -29 -77 -18 -90
-16 -80 10 5 13 16 23 25 23 9 0 20 5 24 10 4 6 28 23 54 38 51 30 71 56 62
81 -9 24 -34 19 -90 -18z"/>
<path d="M6296 10631 c-7 -11 32 -31 62 -31 9 0 32 -9 50 -20 39 -24 48 -25
56 -5 11 31 -150 85 -168 56z"/>
<path d="M6313 10481 c-71 -6 -107 -22 -87 -40 5 -5 34 -5 68 -1 35 5 69 5 84
-1 33 -13 48 2 30 30 -7 11 -15 20 -18 19 -3 -1 -37 -4 -77 -7z"/>
<path d="M14910 10445 c-10 -12 -10 -18 0 -30 26 -32 60 -10 38 25 -15 24 -22
25 -38 5z"/>
<path d="M9485 9889 c-7 -33 5 -56 24 -45 6 4 11 14 11 22 0 15 27 19 47 6 8
-5 -5 -21 -40 -48 -29 -23 -60 -55 -70 -72 -17 -30 -17 -32 3 -52 19 -19 31
-20 123 -18 81 2 102 6 105 18 2 12 -9 15 -60 14 -35 -1 -83 2 -108 5 l-45 7
40 40 c22 21 55 50 73 64 46 34 47 61 2 77 -19 6 -49 12 -67 12 -27 1 -32 -3
-38 -30z"/>
<path d="M9265 9768 c-19 -40 -40 -103 -47 -140 l-12 -67 -71 -3 c-54 -2 -70
-6 -70 -18 0 -12 15 -16 67 -18 l67 -3 10 -50 c23 -108 58 -140 147 -140 63 0
84 14 84 58 0 30 -14 29 -34 -2 -11 -17 -26 -25 -46 -25 -69 0 -103 35 -116
120 l-7 42 54 -3 c98 -6 105 26 8 37 l-59 7 6 36 c11 61 44 154 65 184 20 28
20 57 -1 57 -6 0 -26 -33 -45 -72z"/>
<path d="M8824 9541 c-55 -33 -89 -96 -74 -135 12 -33 52 -40 103 -18 l43 19
31 -90 32 -89 -30 6 c-16 3 -41 9 -56 12 -20 4 -34 -1 -50 -16 -42 -39 -25
-167 27 -203 27 -19 51 -13 84 22 32 34 89 143 78 150 -14 10 -76 193 -82 241
-6 52 -33 68 -44 26 -7 -27 -51 -56 -86 -56 -47 0 -1 85 60 110 28 11 34 11
58 -7 15 -11 32 -31 39 -44 16 -32 39 -31 36 1 -2 14 -19 39 -40 58 -42 37
-82 42 -129 13z m99 -342 c27 -7 37 -15 37 -30 0 -28 -23 -69 -55 -99 l-27
-25 -20 25 c-16 20 -19 34 -15 73 9 73 12 75 80 56z"/>
<path d="M11238 9435 c-3 -4 -4 -32 -1 -63 6 -72 -27 -190 -97 -343 -47 -102
-53 -129 -30 -129 5 0 31 32 57 71 26 39 62 79 79 90 l32 20 30 -26 c28 -23
30 -28 20 -56 -24 -68 33 -103 130 -79 61 15 92 35 92 60 0 25 -4 25 -39 -1
-18 -13 -50 -23 -90 -26 l-63 -6 4 29 c2 19 9 30 23 32 68 12 105 53 105 113
0 50 -26 47 -84 -10 l-52 -51 -24 25 c-29 31 -68 32 -106 3 -26 -21 -27 -21
-20 -3 52 129 79 256 67 315 -6 32 -21 47 -33 35z m196 -372 c-30 -22 -39 -15
-13 13 15 16 25 21 28 13 2 -7 -4 -18 -15 -26z"/>
<path d="M5778 9400 c-39 -30 -62 -125 -61 -241 l2 -97 -31 -6 c-18 -3 -37 -1
-45 6 -18 14 -38 -4 -30 -26 5 -12 20 -16 57 -16 48 0 50 -1 51 -27 3 -118 4
-128 19 -128 12 0 16 17 18 83 l3 82 42 0 c24 0 52 6 63 14 18 14 18 15 1 22
-10 3 -38 4 -62 2 -41 -5 -44 -4 -50 22 -7 31 9 140 30 216 22 76 54 82 81 17
16 -37 34 -36 34 4 0 27 -58 93 -83 93 -8 0 -26 -9 -39 -20z"/>
<path d="M16526 9348 c-20 -32 -55 -151 -62 -214 -7 -52 -7 -53 -43 -56 -43
-4 -52 -32 -10 -34 45 -2 59 -12 59 -42 0 -15 -5 -33 -11 -39 -9 -9 -6 -21 11
-48 39 -64 55 -27 36 85 l-8 46 75 9 75 10 -18 -26 c-26 -35 -34 -73 -20 -98
15 -29 44 -26 97 10 36 25 49 29 66 21 19 -8 29 -3 70 36 l47 46 33 -19 c43
-25 47 -33 40 -82 -7 -51 12 -60 28 -13 11 30 24 39 31 20 6 -19 81 -39 143
-39 78 -1 105 7 105 29 0 10 6 20 13 23 9 3 9 8 1 17 -9 9 -17 9 -33 1 -12 -7
-21 -16 -21 -21 0 -14 -134 -12 -165 2 -46 21 -25 68 51 113 44 26 46 26 65 9
15 -13 22 -15 31 -6 16 16 -18 52 -50 52 -34 0 -118 -55 -139 -91 -17 -28 -33
-38 -33 -20 0 10 -83 61 -100 61 -6 0 -30 -18 -54 -40 -32 -29 -52 -40 -75
-40 -18 0 -49 -11 -69 -25 -20 -14 -40 -25 -44 -25 -18 0 -6 36 27 81 24 34
31 50 22 56 -13 8 -72 5 -141 -8 -34 -6 -52 -6 -56 2 -14 21 31 202 56 230 14
16 10 49 -7 49 -5 0 -15 -10 -23 -22z"/>
<path d="M15897 9343 c-3 -5 2 -39 10 -78 20 -93 14 -268 -9 -291 -14 -15 -17
-13 -27 19 -12 36 -47 67 -76 67 -8 0 -33 -16 -55 -36 -79 -72 -59 -150 38
-148 95 1 156 55 173 151 9 54 4 183 -8 228 -5 17 -4 18 10 7 22 -19 32 4 13
31 -40 57 -57 69 -69 50z m-69 -340 c5 -10 12 -32 15 -50 6 -30 4 -33 -27 -38
-83 -16 -112 21 -60 76 31 33 59 37 72 12z"/>
<path d="M13652 9318 c-18 -18 -14 -46 7 -58 28 -15 31 -13 31 19 0 35 -21 56
-38 39z"/>
<path d="M14600 9310 c-6 -12 -13 -71 -15 -133 -2 -62 -8 -136 -13 -165 -10
-62 -3 -123 16 -130 24 -8 42 63 42 165 0 109 18 163 72 208 41 35 66 32 83
-8 12 -29 12 -46 0 -123 -20 -117 -19 -154 0 -154 15 0 65 90 65 118 0 22 16
13 46 -28 16 -22 33 -40 37 -40 4 0 5 -22 1 -48 -6 -45 -4 -51 21 -70 25 -20
40 -22 139 -22 87 0 117 4 135 16 34 24 13 38 -36 24 -22 -7 -76 -11 -121 -9
-90 4 -116 18 -106 57 5 18 13 22 48 22 48 0 102 29 117 64 7 14 9 40 5 60
-10 51 -33 47 -111 -19 -35 -30 -66 -55 -68 -55 -2 0 -23 27 -46 60 -43 61
-63 72 -79 44 -6 -10 -7 4 -4 38 7 86 -36 148 -92 134 -32 -8 -75 -44 -97 -80
l-19 -31 0 28 c0 15 5 36 12 46 12 20 5 51 -11 51 -6 0 -15 -9 -21 -20z m500
-225 c0 -27 -28 -50 -75 -60 -29 -6 -29 -5 18 39 27 25 51 46 53 46 2 0 4 -11
4 -25z"/>
<path d="M5485 9250 c-55 -11 -158 -35 -229 -54 -42 -11 -80 -14 -132 -9 -63
5 -74 4 -74 -9 0 -9 6 -18 14 -21 19 -8 194 -2 227 8 l26 7 6 -142 c4 -78 4
-147 1 -152 -8 -12 -194 -1 -232 13 -17 6 -29 6 -36 -1 -30 -30 74 -50 278
-53 140 -1 166 3 166 26 0 9 -19 12 -67 9 l-68 -4 -3 129 c-1 70 -5 140 -8
155 -5 25 -2 27 49 42 30 9 71 16 89 16 34 0 75 29 61 43 -7 8 -12 8 -68 -3z"/>
<path d="M16144 9237 c-10 -28 0 -82 16 -82 10 0 15 11 16 37 1 41 -21 72 -32
45z"/>
<path d="M6933 9225 c-69 -30 -32 -97 90 -165 32 -18 65 -44 74 -57 15 -23 15
-26 -4 -45 -16 -15 -38 -22 -90 -25 -59 -5 -72 -2 -95 17 -28 22 -42 79 -15
64 9 -5 9 -4 1 5 -15 17 -43 3 -50 -26 -8 -31 34 -77 84 -94 58 -19 180 8 204
45 13 19 9 60 -7 84 -9 12 -46 39 -83 61 -83 49 -118 83 -100 99 38 31 125 25
158 -10 25 -27 48 -12 31 20 -21 40 -133 56 -198 27z"/>
<path d="M12803 9185 c-17 -7 -37 -23 -43 -35 -21 -40 -4 -67 70 -110 85 -51
97 -64 79 -86 -7 -9 -22 -20 -33 -24 -33 -12 -99 8 -122 37 -26 31 -49 23 -39
-16 4 -14 13 -34 22 -43 21 -24 96 -33 134 -17 45 18 89 58 89 79 0 22 -45 62
-117 102 -80 45 -67 88 26 88 36 0 41 -2 38 -22 -1 -15 3 -23 13 -23 10 0 16
12 18 33 3 27 -1 34 -23 42 -36 14 -74 12 -112 -5z"/>
<path d="M10801 9155 c-85 -49 -135 -100 -111 -115 8 -5 26 5 49 27 42 41 117
83 108 61 -3 -8 -38 -61 -77 -117 -51 -72 -69 -106 -62 -113 7 -7 24 0 54 24
76 62 83 63 101 18 13 -34 20 -40 46 -40 66 0 146 79 139 137 -4 32 -31 38
-36 8 -8 -54 -15 -67 -52 -91 -46 -30 -64 -24 -74 26 -7 35 -31 48 -57 31 -27
-16 -24 -8 15 47 80 111 60 155 -43 97z"/>
<path d="M13845 9154 c-27 -13 -61 -35 -74 -49 -21 -20 -23 -26 -11 -40 8 -9
30 -25 51 -35 20 -11 48 -33 63 -50 21 -26 24 -35 15 -51 -18 -34 -38 -34 -68
1 -33 40 -50 26 -26 -19 18 -36 48 -54 75 -46 27 9 60 53 60 81 0 30 -60 97
-100 114 -17 7 -29 18 -27 23 5 17 90 57 109 51 22 -6 33 13 18 31 -16 20 -26
18 -85 -11z"/>
<path d="M11650 9130 c-46 -50 -93 -141 -84 -164 13 -33 39 -12 58 47 23 73
78 136 101 117 18 -15 45 -6 45 14 0 14 -29 26 -64 26 -11 0 -36 -18 -56 -40z"/>
<path d="M11869 9142 c-42 -28 -99 -98 -105 -128 -4 -21 1 -37 17 -58 22 -27
25 -28 92 -23 43 3 75 10 84 20 20 19 8 40 -15 28 -32 -16 -100 -23 -121 -11
-25 13 -28 40 -5 40 18 0 90 48 117 77 14 16 16 26 8 47 -12 30 -35 33 -72 8z
m7 -57 c-21 -20 -41 -33 -44 -30 -7 7 55 65 70 65 7 0 -5 -16 -26 -35z"/>
<path d="M7647 9143 c-31 -5 -46 -28 -29 -45 8 -8 16 -7 27 2 17 15 100 17
153 5 41 -9 43 9 2 30 -27 14 -89 17 -153 8z"/>
<path d="M17471 9139 c-18 -6 -55 -32 -82 -59 -43 -43 -49 -54 -49 -90 0 -88
49 -115 210 -114 107 0 158 14 168 43 4 11 -3 12 -34 5 -59 -14 -255 -11 -281
4 -29 16 -38 53 -21 88 31 63 143 118 143 69 0 -23 -57 -39 -74 -22 -17 17
-48 -18 -33 -36 9 -11 24 -12 69 -5 31 5 63 14 70 20 14 11 17 56 5 74 -7 10
-47 35 -54 33 -2 0 -18 -5 -37 -10z"/>
<path d="M3527 9111 c-26 -29 -38 -61 -32 -81 8 -26 27 -25 50 0 25 27 32 17
44 -60 19 -114 20 -111 -46 -105 -32 3 -70 8 -85 10 -42 7 -73 -24 -70 -70 5
-74 53 -125 118 -125 38 0 95 63 117 130 16 49 17 64 6 130 -7 41 -13 100 -15
130 l-2 55 -36 1 c-21 1 -41 -5 -49 -15z m60 -285 c7 -7 -19 -61 -39 -83 -40
-43 -108 -20 -124 42 -13 51 -1 59 83 51 42 -3 78 -8 80 -10z"/>
<path d="M13649 9123 c-1 -5 -2 -30 -3 -58 -1 -27 -6 -74 -10 -104 -8 -49 -7
-53 10 -49 14 2 21 19 31 78 15 84 10 140 -12 140 -8 0 -16 -3 -16 -7z"/>
<path d="M3149 9097 c-19 -12 -49 -45 -67 -72 -19 -27 -41 -50 -50 -50 -25 0
-21 -29 4 -33 12 -2 34 -16 49 -33 29 -29 75 -40 75 -16 0 6 -14 20 -30 29
-17 9 -30 21 -30 25 0 5 20 15 45 22 80 24 122 101 73 135 -29 20 -29 20 -69
-7z m51 -35 c0 -11 -8 -26 -17 -34 -18 -15 -83 -41 -83 -33 0 3 16 23 36 45
39 43 64 51 64 22z"/>
<path d="M16257 9074 c-50 -15 -70 -39 -46 -55 8 -5 38 -16 67 -25 29 -9 56
-22 59 -30 11 -30 -107 -121 -141 -108 -19 7 -22 -15 -3 -39 11 -15 19 -12 81
31 39 26 79 60 90 75 19 26 19 30 5 55 -10 18 -30 32 -62 42 l-48 15 36 14
c20 7 34 18 32 24 -5 17 -18 17 -70 1z"/>
<path d="M7595 9009 c-12 -19 4 -23 100 -25 93 -3 115 5 76 26 -26 13 -168 13
-176 -1z"/>
<path d="M16099 9016 c-2 -2 -3 -39 -1 -81 3 -65 6 -76 20 -73 11 2 18 15 20
38 5 64 -19 136 -39 116z"/>
<path d="M3835 8991 c-10 -17 4 -31 31 -31 19 0 25 5 22 18 -4 19 -43 29 -53
13z"/>
<path d="M3300 8895 c-18 -19 -21 -28 -12 -37 9 -9 18 -6 37 12 27 25 33 50
12 50 -8 0 -24 -11 -37 -25z"/>
<path d="M8830 8878 c-118 -10 -282 -17 -364 -15 -157 2 -181 -5 -131 -37 20
-13 30 -15 40 -6 10 8 37 10 87 5 42 -4 124 -1 193 6 160 17 750 14 1037 -5
123 -8 291 -16 373 -18 149 -3 150 -3 153 20 2 12 2 22 0 23 -2 0 -66 2 -143
5 -77 2 -248 11 -380 20 -349 21 -614 22 -865 2z"/>
<path d="M12665 8712 c-16 -4 -30 -13 -30 -20 0 -11 34 -14 150 -15 127 -2
150 0 150 13 0 10 -10 15 -30 16 -16 1 -70 4 -120 7 -49 3 -103 3 -120 -1z"/>
<path d="M9045 8670 c-47 -12 -139 -56 -154 -73 -15 -19 -11 -49 7 -55 8 -2
16 6 19 18 4 15 26 31 70 51 82 37 113 38 113 5 0 -41 -18 -74 -67 -128 -55
-58 -230 -211 -285 -248 -45 -30 -67 -65 -51 -81 8 -8 25 1 60 34 59 54 105
79 141 75 25 -3 27 -6 28 -54 1 -83 13 -89 111 -52 65 24 133 72 133 94 0 21
-17 17 -58 -14 -35 -28 -113 -62 -140 -62 -9 0 -10 12 -6 40 8 48 -14 80 -55
80 -23 0 -13 12 76 95 112 105 138 140 148 202 5 34 3 45 -14 62 -22 22 -29
23 -76 11z"/>
<path d="M12634 8625 c-12 -31 12 -37 136 -37 152 0 236 10 251 28 19 23 6 25
-69 14 -77 -12 -266 -10 -294 4 -13 6 -20 3 -24 -9z"/>
<path d="M7675 7881 c-16 -31 -65 -267 -65 -313 0 -26 -3 -28 -42 -29 -69 0
-121 -13 -125 -29 -4 -13 -3 -13 6 0 9 13 11 13 11 -1 0 -14 11 -15 74 -11
l74 4 7 -71 c5 -49 12 -74 22 -78 22 -9 24 0 15 75 l-8 70 93 4 c68 2 96 7
103 18 5 8 6 18 4 22 -8 13 -48 9 -71 -7 -14 -10 -24 -12 -28 -5 -3 5 -28 10
-55 10 l-49 0 5 38 c10 75 45 248 56 275 9 24 15 27 37 22 14 -3 36 -17 47
-32 12 -14 27 -22 33 -19 17 11 14 21 -18 55 -23 25 -37 31 -70 31 -35 0 -43
-4 -56 -29z"/>
<path d="M10466 7868 c-25 -79 -27 -89 -17 -102 8 -9 3 -40 -18 -112 l-28 -99
-69 -3 c-65 -3 -90 -14 -77 -35 3 -5 35 -6 73 -3 l67 7 -9 -58 c-12 -72 -6
-156 12 -178 31 -38 210 12 210 58 0 10 -3 17 -7 15 -63 -32 -109 -49 -140
-51 l-38 -2 -3 65 c-2 36 -1 83 3 106 l6 41 110 6 c99 5 151 19 134 36 -4 3
-57 4 -120 2 l-114 -3 27 94 c29 101 37 218 15 225 -7 3 -15 -1 -17 -9z"/>
<path d="M9157 7804 c-11 -12 -8 -72 5 -80 10 -6 38 20 38 37 0 14 -36 50 -43
43z"/>
<path d="M15411 7696 c-34 -184 -59 -236 -111 -236 -26 0 -60 26 -60 47 0 20
51 56 87 62 24 4 38 12 38 21 0 17 -29 25 -53 14 -9 -4 -20 -8 -24 -8 -3 -1
-21 -12 -38 -24 -22 -17 -30 -30 -27 -43 3 -10 1 -17 -4 -13 -5 3 -9 -6 -9
-20 0 -32 52 -76 90 -76 18 0 42 11 64 30 l34 30 6 -24 c9 -35 76 -95 119
-107 39 -10 92 -1 92 17 0 5 4 15 9 23 7 11 5 13 -10 6 -44 -19 -83 -17 -119
5 -65 40 -78 96 -51 227 13 63 19 122 17 166 -1 9 -7 17 -15 17 -10 0 -20 -34
-35 -114z"/>
<path d="M3803 7784 c-3 -9 -1 -25 5 -35 24 -38 3 -183 -43 -306 -29 -77 -28
-113 5 -131 56 -31 175 38 201 115 11 35 10 38 -20 65 -33 29 -69 35 -103 17
-11 -6 -21 -9 -23 -7 -2 2 5 40 15 84 9 45 16 100 14 122 -7 75 -35 117 -51
76z m125 -316 c19 -19 15 -34 -19 -73 -31 -35 -95 -63 -123 -52 -24 9 -3 66
39 105 36 34 81 42 103 20z"/>
<path d="M8296 7782 c-3 -5 -7 -108 -8 -228 -3 -208 -2 -221 18 -253 27 -42
41 -25 22 27 -9 26 -12 77 -9 172 7 250 7 283 -6 287 -6 2 -14 0 -17 -5z"/>
<path d="M6654 7734 c-15 -25 -34 -65 -42 -87 -16 -46 -28 -230 -18 -271 8
-34 34 -33 47 1 8 22 7 30 -7 40 -37 27 3 238 57 307 20 26 20 56 0 56 -6 0
-22 -21 -37 -46z"/>
<path d="M12869 7753 c-5 -15 -19 -59 -31 -98 -17 -60 -24 -70 -44 -71 -34 -3
-84 -27 -84 -42 0 -7 -4 -10 -10 -7 -5 3 -15 3 -21 -1 -8 -4 -7 -9 2 -15 10
-6 8 -9 -8 -9 -26 0 -43 -27 -43 -68 0 -32 22 -56 60 -65 30 -8 109 11 132 30
14 13 17 12 23 -7 11 -36 64 -88 95 -95 52 -11 141 31 109 51 -8 4 -9 3 -5 -4
4 -7 1 -12 -9 -12 -10 0 -14 5 -9 13 6 10 4 10 -7 0 -24 -24 -83 -16 -111 15
-33 35 -49 83 -36 106 9 16 37 222 38 279 0 36 -27 36 -41 0z m-12 -195 c-3
-7 -5 -2 -5 12 0 14 2 19 5 13 2 -7 2 -19 0 -25z m-39 -57 c4 -55 -16 -78 -73
-87 -46 -6 -85 7 -85 31 0 21 49 75 84 90 54 24 71 16 74 -34z"/>
<path d="M6789 7748 c-1 -7 -1 -17 0 -22 1 -5 -5 -23 -13 -40 -24 -50 -66
-205 -66 -242 0 -78 49 -134 105 -120 35 9 27 29 -15 37 -18 4 -36 13 -41 21
-20 31 -8 124 30 238 21 63 36 120 34 127 -7 17 -33 17 -34 1z"/>
<path d="M8130 7648 c-7 -268 -5 -333 9 -333 11 0 15 27 20 125 10 242 8 304
-10 308 -14 3 -17 -11 -19 -100z"/>
<path d="M4579 7654 c-73 -170 -142 -260 -235 -304 -45 -22 -47 -22 -60 -5
-27 37 8 108 64 132 29 12 40 13 56 3 16 -10 22 -9 33 6 11 15 11 20 -2 33
-13 13 -22 13 -62 3 -27 -7 -59 -21 -73 -31 -55 -39 -79 -141 -42 -174 39 -35
102 -13 188 66 53 48 54 48 54 23 0 -34 42 -78 67 -69 10 3 39 26 64 50 42 41
47 43 52 24 9 -34 33 -35 102 -3 36 17 65 29 65 27 0 -2 -21 -30 -48 -62 -160
-195 -272 -359 -272 -398 0 -33 26 -33 34 1 11 44 140 225 269 379 75 89 91
119 73 134 -9 8 -34 1 -95 -29 -45 -22 -86 -40 -91 -40 -4 0 -11 16 -14 35 -4
19 -12 35 -18 35 -6 0 -37 -28 -68 -62 -48 -52 -61 -61 -72 -50 -23 23 -12 94
28 173 49 97 56 125 38 140 -11 9 -18 3 -35 -37z"/>
<path d="M6480 7662 c0 -10 6 -26 13 -36 10 -14 18 -15 40 -7 33 13 34 25 5
45 -30 22 -58 20 -58 -2z"/>
<path d="M9077 7513 c-21 -106 -21 -137 -4 -152 20 -16 27 -3 27 53 1 28 7 78
15 110 14 62 13 76 -9 76 -8 0 -19 -32 -29 -87z"/>
<path d="M13171 7579 c-18 -4 -40 -14 -49 -22 -22 -22 -3 -42 75 -79 70 -33
81 -56 38 -84 -33 -22 -64 -10 -72 27 -6 34 -20 46 -35 31 -15 -15 11 -79 40
-98 29 -19 60 -13 101 22 56 47 35 92 -61 136 -37 17 -45 24 -33 30 8 5 27 8
42 6 19 -2 28 2 28 11 0 19 -34 29 -74 20z"/>
<path d="M2779 7553 c-54 -46 -70 -115 -29 -128 10 -3 43 6 75 19 l57 26 -7
-38 c-5 -32 -2 -41 20 -62 21 -20 30 -22 52 -14 35 12 34 28 -3 34 -26 5 -29
9 -27 39 1 20 8 38 18 44 21 11 13 52 -17 85 -31 33 -96 31 -139 -5z m106 -17
c18 -13 15 -16 -43 -45 -34 -17 -66 -31 -72 -31 -19 0 -10 22 24 56 37 37 61
42 91 20z"/>
<path d="M14760 7573 c-51 -17 -101 -45 -110 -62 -16 -31 -12 -76 10 -96 24
-21 72 -15 140 20 l46 23 9 -21 c17 -36 32 -30 75 27 22 31 47 56 55 56 22 0
55 -60 49 -87 -6 -23 10 -53 27 -53 15 0 10 90 -7 125 -19 41 -63 62 -93 45
-12 -6 -35 -29 -51 -52 -25 -34 -30 -37 -30 -19 0 28 -26 38 -48 18 -24 -22
-103 -57 -129 -57 -48 0 -36 53 18 80 47 24 58 25 74 3 12 -16 35 -11 35 8 0
11 -37 49 -47 48 -5 0 -15 -3 -23 -6z"/>
<path d="M12245 7531 c-38 -17 -95 -72 -95 -91 0 -4 8 -18 18 -30 15 -18 28
-22 66 -22 51 1 96 23 96 46 0 8 -13 26 -30 39 -36 31 -37 35 -7 39 25 3 30
31 7 35 -8 2 -33 -5 -55 -16z m24 -78 c23 -16 23 -17 5 -24 -28 -11 -72 -10
-79 1 -9 14 13 40 34 40 9 0 27 -8 40 -17z"/>
<path d="M6101 7530 c-62 -15 -111 -42 -111 -62 0 -23 11 -23 52 1 31 19 118
40 118 29 0 -3 -29 -42 -65 -88 -60 -76 -70 -100 -44 -100 6 0 30 16 54 36
l44 35 17 -33 c31 -60 58 -63 108 -12 37 38 53 86 42 130 -5 17 -12 24 -24 22
-13 -2 -16 -13 -14 -48 3 -37 -1 -51 -22 -73 -32 -35 -42 -34 -62 6 -19 36
-34 48 -47 40 -5 -3 5 14 22 37 17 24 31 46 31 49 -1 29 -47 44 -99 31z"/>
<path d="M11506 7524 c-22 -21 -20 -56 4 -87 27 -34 25 -63 -7 -105 -26 -34
-27 -35 -35 -13 -4 13 -14 21 -20 19 -19 -7 -16 -59 5 -72 21 -14 40 -3 81 48
38 46 41 99 8 140 -12 16 -19 33 -15 40 4 6 10 1 13 -14 7 -31 34 -33 38 -3 7
52 -38 81 -72 47z"/>
<path d="M11744 7518 c-122 -91 -153 -162 -82 -187 37 -13 127 -14 147 -2 27
17 1 32 -47 25 -47 -6 -102 7 -102 24 0 5 10 22 21 36 16 21 24 24 30 15 19
-32 89 39 89 91 0 26 -20 26 -56 -2z"/>
<path d="M4066 7493 c-53 -41 -101 -118 -90 -146 3 -9 15 -19 25 -22 27 -9 91
25 108 56 12 22 12 30 -1 57 -17 33 -13 42 25 55 21 8 18 31 -4 35 -8 1 -36
-15 -63 -35z m9 -83 c0 -16 -9 -30 -27 -39 -37 -21 -44 -8 -18 34 24 39 45 42
45 5z"/>
<path d="M12044 7516 c-3 -9 -10 -14 -14 -11 -12 8 -67 -63 -73 -93 -8 -43 8
-70 47 -77 40 -8 79 2 73 18 -2 7 -20 12 -41 13 -20 1 -39 4 -42 7 -20 20 51
127 83 127 20 0 11 24 -10 28 -10 2 -20 -4 -23 -12z"/>
<path d="M12428 7506 l-33 -22 -17 21 c-11 14 -20 17 -27 10 -12 -12 24 -95
40 -95 5 0 16 11 25 25 22 34 53 50 66 37 6 -6 12 -32 13 -58 2 -54 25 -80 56
-63 26 13 25 39 -1 34 -18 -3 -20 2 -20 44 0 74 -46 105 -102 67z"/>
<path d="M9276 7498 c-9 -12 -16 -28 -16 -34 0 -7 -3 -14 -7 -16 -17 -7 -93
-119 -88 -128 11 -18 21 -11 63 46 l42 57 0 -42 c0 -61 23 -98 69 -112 35 -10
42 -9 71 11 23 16 29 25 21 33 -9 9 -17 8 -31 -1 -27 -16 -55 -15 -74 4 -12
12 -16 37 -16 104 0 94 -9 114 -34 78z"/>
<path d="M7868 7496 c-59 -31 -96 -93 -67 -111 6 -4 37 6 69 22 l59 29 6 -48
c7 -50 31 -75 61 -64 21 8 17 33 -6 39 -15 4 -20 14 -20 40 0 20 -4 47 -9 60
-12 31 -47 42 -54 17 -3 -10 -20 -26 -38 -35 -31 -14 -32 -15 -14 0 11 9 26
20 34 24 7 4 11 15 10 24 -4 15 -7 15 -31 3z"/>
<path d="M6464 7489 c-11 -19 -18 -156 -7 -162 21 -13 31 13 34 87 3 53 0 81
-8 83 -6 2 -15 -1 -19 -8z"/>
<path d="M8715 6803 c-11 -37 -16 -91 -16 -151 l1 -93 -64 2 c-35 1 -69 -1
-75 -6 -27 -16 -1 -28 66 -29 40 -1 75 -4 78 -8 4 -3 8 -48 9 -99 3 -96 16
-122 37 -77 7 17 8 46 0 98 -5 41 -9 75 -8 77 2 1 33 -3 70 -10 58 -9 70 -9
77 3 12 20 -2 26 -82 35 l-67 6 -7 55 c-9 75 -1 152 20 196 18 38 15 58 -9 58
-8 0 -20 -24 -30 -57z"/>
<path d="M12998 6803 c-2 -15 2 -53 9 -83 7 -30 12 -89 13 -131 l0 -76 -82 1
c-71 1 -83 -1 -86 -16 -3 -16 5 -18 70 -18 40 0 80 -5 88 -10 19 -12 21 -121
3 -127 -21 -7 -16 -43 5 -43 26 0 42 41 42 108 l0 58 53 -1 52 0 2 38 c1 39
-19 49 -25 11 -2 -16 -9 -19 -42 -16 -50 5 -46 -13 -63 292 -3 45 -34 56 -39
13z"/>
<path d="M15009 6803 c-1 -5 -1 -63 1 -129 3 -152 0 -160 -46 -162 -48 -2
-133 -51 -161 -92 -28 -41 -29 -74 -3 -100 42 -42 130 -13 193 63 35 43 36 46
47 173 5 71 13 145 16 164 6 43 -10 90 -31 90 -8 0 -16 -3 -16 -7z m-19 -348
c0 -34 -77 -111 -117 -117 -41 -6 -53 0 -53 26 0 33 26 64 78 91 64 33 92 33
92 0z"/>
<path d="M9626 6758 c-9 -34 -7 -97 5 -147 5 -24 7 -46 4 -49 -3 -3 -44 -6
-93 -6 -70 -1 -87 -4 -87 -16 0 -17 2 -17 108 -19 l77 -1 0 -69 c0 -39 -4 -73
-10 -76 -17 -11 -11 -35 10 -35 24 0 40 52 40 131 l0 56 86 6 c82 6 124 21
107 38 -4 4 -42 4 -83 -1 -127 -15 -116 -21 -128 72 -7 53 -7 89 -1 100 6 10
7 23 4 28 -11 18 -33 11 -39 -12z"/>
<path d="M6037 6764 c-4 -4 -7 -103 -7 -221 0 -184 2 -213 15 -213 21 0 33 35
50 154 18 120 39 187 65 211 26 23 36 14 56 -50 15 -47 16 -65 6 -137 -15
-106 -15 -108 4 -108 20 0 50 34 73 82 l18 38 12 -27 c10 -22 14 -24 22 -12 7
11 9 10 9 -7 0 -24 29 -54 53 -54 10 0 17 -8 17 -18 0 -49 100 -87 198 -76 75
8 94 14 90 26 -3 7 -42 11 -109 12 -100 1 -139 11 -139 36 0 4 27 14 60 24 73
20 85 39 46 73 -40 34 -76 30 -106 -12 -14 -19 -32 -35 -41 -35 -21 0 -65 48
-83 92 -26 62 -41 58 -67 -17 l-14 -40 -5 85 c-9 126 -50 197 -99 170 -29 -15
-62 -66 -76 -118 l-13 -47 -3 55 c-1 30 -3 73 -3 94 -1 37 -14 55 -29 40z
m503 -284 c18 -11 13 -16 -23 -25 -27 -7 -28 -7 -15 14 14 24 17 24 38 11z"/>
<path d="M13426 6724 c-20 -19 -20 -38 -1 -54 20 -17 35 -4 35 30 0 36 -13 45
-34 24z"/>
<path d="M5092 6693 c2 -14 10 -29 18 -31 8 -3 12 -1 8 3 -4 4 0 13 9 20 20
15 9 35 -18 35 -16 0 -20 -6 -17 -27z"/>
<path d="M11930 6677 c0 -48 20 -332 25 -354 3 -13 13 -23 21 -23 13 0 15 7
11 33 -6 35 -18 206 -21 302 -1 48 -5 61 -19 63 -12 3 -17 -3 -17 -21z"/>
<path d="M7504 6573 c-27 -21 -53 -42 -59 -48 -75 -78 -93 -125 -56 -145 23
-12 161 -17 179 -6 25 15 -1 26 -63 26 -103 0 -112 9 -69 66 39 51 104 96 120
83 19 -16 34 -2 34 32 0 40 -25 38 -86 -8z"/>
<path d="M8326 6590 c-51 -26 -86 -59 -86 -81 0 -22 20 -38 93 -74 33 -16 62
-35 64 -41 6 -18 -57 -39 -114 -38 -55 0 -67 -12 -38 -36 31 -26 177 20 190
60 10 30 -17 56 -92 90 -35 16 -63 33 -63 38 0 23 70 63 115 66 11 0 20 8 20
16 0 23 -45 22 -89 0z"/>
<path d="M15251 6561 c-6 -11 -11 -46 -11 -78 0 -56 -24 -123 -46 -130 -13 -4
-49 65 -50 98 -2 40 -11 59 -28 59 -37 0 -28 -63 21 -145 37 -63 61 -68 96
-21 27 34 56 135 55 188 -1 38 -23 56 -37 29z"/>
<path d="M5248 6548 c-22 -12 -38 -29 -38 -39 0 -24 40 -54 95 -69 25 -7 48
-17 51 -22 3 -4 -19 -20 -50 -34 -47 -21 -58 -23 -75 -12 -24 15 -47 -1 -38
-26 15 -38 171 6 201 56 12 21 -15 54 -49 60 -11 2 -22 5 -25 8 -3 3 -18 10
-35 15 -38 13 -36 27 7 41 36 13 45 38 13 41 -11 1 -37 -8 -57 -19z"/>
<path d="M15495 6556 c-34 -15 -115 -99 -115 -119 0 -29 40 -65 83 -76 56 -13
194 -4 226 16 32 21 14 35 -29 23 -45 -13 -171 -13 -204 0 -30 11 -35 30 -7
30 52 0 141 59 141 94 0 45 -37 57 -95 32z m53 -43 c-11 -14 -90 -53 -106 -53
-3 0 5 12 19 26 40 44 122 69 87 27z"/>
<path d="M5099 6533 c-5 -14 -12 -59 -14 -99 -3 -67 -2 -72 18 -78 12 -3 25
-6 30 -6 11 0 9 38 -3 45 -13 8 -13 76 0 109 10 27 4 56 -11 56 -5 0 -14 -12
-20 -27z"/>
<path d="M13819 6544 c-7 -9 -26 -44 -41 -78 -25 -55 -27 -58 -28 -29 0 35 -9
46 -29 34 -17 -11 -6 -105 14 -121 11 -9 18 -5 31 17 10 15 23 33 29 38 7 6
19 23 27 40 l16 30 11 -42 c16 -58 54 -101 98 -109 43 -8 103 9 128 36 16 17
16 20 2 26 -8 3 -27 -2 -41 -11 -14 -9 -41 -17 -61 -18 -51 -1 -76 29 -100
120 -21 80 -33 95 -56 67z"/>
<path d="M11069 6527 c-42 -35 -91 -115 -96 -157 -9 -67 53 -100 133 -70 39
15 19 28 -46 32 -53 3 -55 4 -53 30 1 15 20 55 43 88 32 47 46 60 60 55 23 -7
35 11 20 30 -17 20 -31 19 -61 -8z"/>
<path d="M12173 6534 c-47 -23 -123 -108 -123 -137 0 -51 50 -70 148 -56 74
11 79 13 84 48 4 33 -16 37 -43 10 -18 -18 -34 -22 -83 -23 -47 -1 -61 2 -64
15 -3 15 17 26 104 59 25 9 54 44 54 65 0 6 -31 35 -38 35 -4 0 -21 -8 -39
-16z m28 -38 c-6 -8 -22 -16 -34 -19 -22 -6 -22 -6 2 14 27 22 49 26 32 5z"/>
<path d="M11303 6526 c-38 -17 -83 -89 -90 -146 -5 -35 -2 -43 30 -75 37 -37
78 -46 118 -25 33 18 21 30 -29 30 -78 0 -103 48 -66 126 20 42 36 55 77 63
35 8 44 35 12 38 -11 2 -34 -4 -52 -11z"/>
<path d="M11644 6516 c-68 -32 -106 -82 -102 -133 3 -33 8 -41 40 -56 33 -16
46 -17 108 -8 76 12 110 27 110 50 0 9 -7 11 -22 6 -100 -30 -168 -33 -192 -9
-18 17 -20 32 -7 53 6 10 10 10 16 1 8 -14 51 -6 118 22 59 26 63 58 10 87
-27 14 -19 15 -79 -13z m70 -25 c7 -11 -77 -45 -96 -39 -7 3 4 14 27 26 44 23
61 27 69 13z"/>
<path d="M7743 6519 c-10 -10 -10 -16 -1 -27 19 -22 18 -40 -3 -45 -13 -4 -19
-14 -19 -35 0 -23 6 -32 29 -42 64 -26 131 -11 131 29 0 16 -61 81 -76 81 -5
0 -17 11 -29 26 -16 20 -23 22 -32 13z m75 -95 c43 -30 14 -46 -43 -24 -23 9
-25 13 -15 25 16 19 30 19 58 -1z"/>
<path d="M7995 6518 c-2 -7 -13 -38 -25 -68 -24 -65 -25 -84 -6 -99 11 -9 23
-1 59 38 l45 50 6 -38 c3 -22 17 -49 32 -65 29 -29 74 -35 74 -11 0 8 -6 15
-13 15 -31 0 -54 38 -61 99 -6 51 -10 61 -26 61 -11 0 -20 -3 -20 -7 -1 -5
-16 -26 -35 -48 l-35 -40 20 53 c11 29 18 57 15 63 -9 13 -25 11 -30 -3z"/>
<path d="M3898 6491 c-81 -52 -116 -135 -67 -162 28 -15 105 -3 128 20 17 17
19 16 40 -22 17 -28 71 -168 71 -181 0 -1 -35 -1 -78 -2 -132 -1 -207 -53
-207 -145 0 -86 90 -170 168 -155 59 11 140 116 153 198 4 21 10 35 15 33 15
-10 21 16 7 33 -8 9 -27 55 -42 102 -38 118 -112 240 -144 240 -11 0 -13 -9
-9 -39 5 -43 -5 -51 -65 -51 -41 0 -35 23 17 75 66 66 107 56 125 -30 9 -43
36 -40 32 4 -3 43 -29 86 -59 100 -33 15 -33 15 -85 -18z m160 -387 c20 -6 22
-11 16 -43 -9 -52 -41 -117 -76 -151 -85 -86 -220 30 -163 140 9 17 17 30 18
30 1 0 20 7 42 15 42 15 123 19 163 9z"/>
<path d="M13560 6508 c0 -7 -9 -24 -20 -38 -26 -33 -25 -62 3 -88 39 -37 117
-24 117 19 0 12 -9 33 -19 48 -11 15 -19 36 -18 46 2 16 -5 21 -30 23 -22 2
-33 -1 -33 -10z m53 -109 c-20 -7 -53 6 -53 22 0 6 5 19 11 31 10 19 12 18 35
-13 23 -31 23 -34 7 -40z"/>
<path d="M8952 6490 c-21 -13 -32 -26 -28 -35 3 -8 1 -17 -4 -20 -4 -3 -11 1
-13 7 -3 7 -6 -5 -6 -28 -2 -78 74 -103 180 -60 12 5 18 0 22 -24 7 -34 31
-48 56 -33 8 5 23 36 32 67 21 69 43 96 79 96 38 0 50 -18 50 -76 0 -66 23
-99 62 -89 34 9 52 30 44 51 -5 13 -9 14 -22 4 -11 -10 -12 -15 -3 -20 8 -6 8
-9 0 -14 -6 -4 -11 -2 -11 3 0 6 -6 11 -14 11 -13 0 -26 48 -26 102 0 39 -45
71 -89 64 -55 -9 -88 -49 -105 -128 -4 -16 -11 -28 -16 -28 -13 0 -12 17 5 65
19 53 19 65 -3 65 -10 0 -22 -12 -29 -30 -14 -38 -68 -70 -118 -70 -44 0 -65
14 -65 41 0 23 46 59 75 59 27 0 35 8 28 26 -7 20 -43 17 -81 -6z"/>
<path d="M13367 6503 c-2 -4 -8 -34 -11 -66 -8 -61 7 -131 27 -124 16 5 16
189 0 194 -6 2 -13 0 -16 -4z"/>
<path d="M10728 6484 c-52 -16 -104 -62 -124 -110 -18 -43 -2 -92 32 -100 35
-9 99 3 144 26 l38 19 6 -24 c3 -13 18 -37 32 -55 22 -25 32 -30 57 -26 16 3
34 9 39 14 17 17 -1 32 -31 26 -24 -5 -32 -1 -47 21 -11 17 -18 44 -17 69 4
104 3 130 -4 137 -17 15 -81 17 -125 3z m80 -75 c3 -42 0 -49 -26 -68 -39 -28
-120 -45 -138 -30 -47 39 47 147 125 145 35 -1 36 -2 39 -47z"/>
<path d="M12342 6493 c-37 -15 -59 -137 -26 -150 23 -8 72 43 57 58 -9 9 -16
9 -29 -2 -16 -13 -17 -11 -10 16 10 43 34 58 79 50 46 -7 63 1 46 21 -11 14
-89 19 -117 7z"/>
<path d="M12614 6418 c-37 -25 -49 -39 -49 -58 0 -23 4 -25 45 -25 25 1 62 5
83 9 35 8 37 7 37 -16 0 -32 29 -58 66 -58 42 0 61 14 45 34 -10 12 -16 13
-32 3 -17 -10 -23 -9 -35 7 -8 11 -14 30 -14 43 0 33 -19 37 -97 20 l-68 -16
30 24 c16 13 43 25 60 27 37 4 41 32 4 36 -16 2 -44 -9 -75 -30z"/>
<path d="M4582 6163 c-6 -16 -17 -50 -25 -78 -12 -43 -18 -50 -44 -56 -39 -8
-53 -17 -53 -34 0 -23 20 -28 39 -11 32 29 41 19 41 -46 1 -71 13 -101 56
-129 49 -32 204 -23 204 12 0 6 -26 7 -73 3 -117 -10 -157 23 -157 134 0 44 0
44 30 38 17 -3 72 -11 123 -17 75 -10 87 -14 63 -20 -30 -8 -46 -24 -46 -48 0
-8 6 -11 15 -7 11 4 15 -1 15 -19 0 -57 108 -58 218 -1 79 41 32 99 -72 90
-27 -3 -47 3 -68 17 -16 12 -35 18 -43 15 -13 -5 -164 17 -208 30 -20 6 -17
23 14 88 13 29 15 43 7 53 -16 19 -24 16 -36 -14z m403 -232 c7 -13 -97 -51
-139 -51 -44 0 -50 9 -24 37 18 20 31 23 89 23 37 0 70 -4 74 -9z"/>
<path d="M7457 6144 c-11 -11 -8 -49 4 -61 7 -7 14 -46 17 -87 5 -80 6 -78
-48 -90 -14 -3 -34 -12 -45 -20 -19 -15 -18 -17 43 -76 35 -33 68 -58 73 -55
5 4 9 35 9 69 l0 63 93 23 c126 30 135 27 97 -30 -36 -54 -36 -86 0 -84 14 1
68 20 120 42 52 22 97 39 99 37 2 -3 -15 -33 -37 -67 -53 -82 -72 -128 -72
-178 0 -44 14 -80 31 -80 6 0 8 16 4 44 -9 56 6 105 55 176 21 31 45 70 54 87
17 34 13 63 -9 63 -17 0 -165 -54 -206 -76 l-32 -16 21 30 c36 49 44 79 26 97
-20 20 -31 19 -146 -9 l-98 -23 -1 76 c0 102 -26 171 -52 145z m23 -295 c0
-32 -7 -32 -43 0 -18 15 -18 16 0 22 34 14 43 10 43 -22z"/>
<path d="M7294 6026 c-4 -11 0 -24 10 -34 12 -13 18 -14 28 -4 10 10 8 17 -9
34 -21 20 -23 20 -29 4z"/>
<path d="M6236 5989 c-56 -66 -71 -130 -36 -152 13 -8 58 5 101 30 6 4 45
-106 54 -155 7 -32 6 -34 -16 -27 -32 10 -95 8 -117 -4 -11 -6 -27 -26 -36
-45 -48 -100 17 -228 109 -213 73 12 122 83 110 159 l-7 39 36 -6 c29 -6 36
-4 36 9 0 10 -11 19 -30 23 -33 6 -50 28 -50 65 0 13 -13 61 -29 108 -24 70
-27 86 -15 93 8 4 14 12 14 17 0 15 -71 90 -85 90 -7 0 -25 -14 -39 -31z m43
-85 c-71 -59 -90 -33 -32 44 l25 33 24 -22 23 -21 -40 -34z m60 -255 c30 -10
31 -13 31 -66 0 -82 -28 -122 -86 -123 -73 0 -109 119 -53 178 22 24 59 28
108 11z"/>
<path d="M6452 5988 c-17 -17 -15 -103 3 -137 16 -33 43 -47 59 -31 8 8 6 15
-6 24 -24 18 -39 61 -32 96 4 16 8 30 10 30 2 0 29 -7 60 -15 31 -8 61 -12 66
-9 18 11 1 27 -43 40 -55 17 -101 18 -117 2z"/>
<path d="M7086 5988 c-3 -7 -10 -42 -16 -78 -7 -36 -14 -68 -17 -73 -8 -14
-41 13 -66 55 -33 57 -64 85 -78 71 -20 -20 104 -173 141 -173 11 0 25 10 31
22 16 30 42 157 35 174 -7 17 -25 18 -30 2z"/>
<path d="M6639 5911 c-37 -17 -49 -39 -38 -68 8 -22 29 -30 42 -16 4 3 17 7
30 8 12 1 31 4 43 8 18 6 20 4 16 -21 -5 -37 40 -94 59 -75 10 10 9 17 -6 33
-14 15 -16 29 -12 64 4 25 2 48 -3 51 -4 3 -32 -4 -60 -15 -28 -11 -58 -20
-68 -20 -29 1 17 30 47 30 21 0 23 2 11 10 -13 9 -13 11 0 20 24 15 -27 8 -61
-9z"/>
<path d="M7245 5911 c-3 -6 -4 -15 0 -20 3 -5 1 -12 -4 -16 -17 -10 9 -65 31
-65 16 0 18 4 12 18 -4 9 -8 32 -8 51 -1 34 -18 52 -31 32z"/>
<path d="M9163 5718 c-17 -18 -38 -46 -46 -63 l-16 -30 -1 43 c0 30 -4 42 -14
42 -21 0 -28 -16 -32 -74 -1 -28 -12 -104 -24 -169 -20 -118 -19 -167 5 -167
9 0 16 20 20 58 13 105 90 298 137 342 l23 21 12 -28 c9 -20 11 -63 6 -149 -7
-152 9 -193 59 -147 18 16 21 16 54 -2 18 -10 34 -24 34 -31 0 -7 11 -26 25
-42 19 -23 37 -32 75 -37 56 -8 90 0 90 21 0 10 -14 14 -53 14 -53 0 -103 22
-92 41 4 5 17 9 31 9 29 0 104 65 104 89 0 28 -43 61 -78 61 -23 0 -41 -10
-67 -35 -19 -20 -35 -42 -35 -50 0 -21 -10 -19 -37 7 -22 20 -24 21 -42 4 -25
-23 -43 -12 -36 22 2 15 5 70 6 123 2 152 -39 200 -108 127z m357 -257 c0 -4
-10 -17 -23 -29 -27 -25 -87 -41 -87 -23 0 41 61 87 92 70 10 -5 18 -13 18
-18z"/>
<path d="M12367 5736 c-9 -24 8 -71 26 -71 20 0 20 3 11 50 -6 35 -27 47 -37
21z"/>
<path d="M15735 5730 c-3 -5 -1 -20 6 -32 17 -32 13 -114 -9 -183 l-19 -60
-56 3 c-59 3 -101 -11 -94 -31 2 -8 25 -11 71 -9 l68 4 -7 -49 c-12 -89 -9
-130 13 -153 25 -27 40 -9 21 26 -10 19 -10 39 -2 95 6 39 13 72 15 74 2 2 47
1 100 -2 l97 -6 -25 -36 c-62 -92 9 -148 138 -109 63 19 68 76 12 129 -13 12
-24 31 -24 41 0 17 -11 18 -146 18 -135 0 -146 1 -139 18 4 9 14 50 22 91 13
61 13 84 4 128 -12 50 -31 68 -46 43z m302 -362 c46 -44 43 -63 -11 -77 -57
-14 -68 -14 -90 2 -16 12 -17 17 -6 38 16 32 51 69 64 69 5 0 25 -14 43 -32z"/>
<path d="M14620 5658 c0 -13 -7 -88 -14 -167 -17 -170 -26 -189 -105 -210 -28
-8 -54 -11 -58 -7 -12 12 27 71 58 90 28 17 29 17 29 -3 0 -11 5 -23 11 -27
19 -12 32 13 25 50 -10 51 -40 48 -104 -9 -95 -86 -72 -157 43 -130 90 21 112
46 125 145 5 41 9 50 14 35 33 -83 68 -146 90 -160 26 -17 89 -14 129 7 18 9
23 43 7 53 -16 10 -12 25 5 19 9 -4 15 0 15 10 0 10 -6 13 -17 9 -31 -11 -41
-23 -36 -43 6 -21 -26 -34 -68 -28 -50 7 -109 163 -114 298 -3 68 -6 86 -19
88 -11 2 -16 -4 -16 -20z"/>
<path d="M14276 5562 c-8 -13 8 -65 21 -69 17 -6 26 33 13 57 -11 21 -25 26
-34 12z"/>
<path d="M11280 5544 c-95 -25 -94 -50 2 -82 84 -30 129 -55 152 -85 18 -24
18 -28 3 -50 -29 -44 -100 -39 -210 13 -33 16 -39 17 -44 4 -8 -21 1 -27 80
-58 127 -49 216 -24 217 63 0 47 -48 91 -137 125 -40 15 -73 29 -73 31 0 2 31
8 68 15 49 8 76 8 97 0 37 -14 60 4 31 26 -25 18 -114 17 -186 -2z"/>
<path d="M12299 5533 c-17 -43 1 -278 21 -278 16 0 16 7 11 180 -1 39 0 81 1
94 4 35 -20 38 -33 4z"/>
<path d="M9763 5505 c-11 -8 -26 -28 -33 -46 -13 -30 -14 -31 -22 -10 -11 31
-33 20 -31 -15 3 -66 12 -137 18 -142 11 -11 23 13 34 67 12 58 47 125 61 116
5 -3 16 -29 25 -58 38 -115 88 -178 118 -148 9 9 4 18 -20 37 -21 16 -37 41
-47 72 -35 119 -64 154 -103 127z"/>
<path d="M12406 5467 c-56 -32 -46 -57 29 -80 33 -11 66 -21 74 -23 22 -7 -10
-36 -74 -69 -37 -18 -55 -33 -55 -46 0 -29 18 -23 95 29 102 69 102 110 -1
133 -30 7 -54 16 -54 20 0 4 14 12 30 18 17 5 30 14 30 19 0 20 -39 19 -74 -1z"/>
<path d="M13693 5459 c-67 -19 -53 -76 38 -157 67 -60 66 -77 -6 -68 -80 9
-69 -27 12 -40 34 -5 45 -2 62 15 12 12 21 29 21 38 0 9 -30 45 -66 80 -70 67
-79 96 -32 101 27 3 60 -20 71 -49 8 -25 29 6 22 33 -10 40 -68 62 -122 47z"/>
<path d="M14011 5451 c-73 -26 -104 -51 -120 -100 -25 -77 23 -96 158 -60 9 3
17 -8 22 -27 8 -29 39 -50 53 -36 12 11 6 43 -9 48 -11 4 -15 21 -15 58 0 29
-3 55 -6 59 -13 12 -34 -6 -34 -30 0 -18 -9 -28 -35 -39 -39 -16 -101 -19
-110 -4 -21 33 93 110 164 110 42 0 63 16 40 31 -21 13 -48 10 -108 -10z"/>
<path d="M14298 5308 c2 -57 6 -105 8 -107 2 -2 9 -1 16 1 10 4 12 31 10 107
-3 87 -6 101 -20 101 -15 0 -17 -12 -14 -102z"/>
<path d="M11160 5354 c0 -8 5 -12 10 -9 6 3 10 10 10 16 0 5 -4 9 -10 9 -5 0
-10 -7 -10 -16z"/>
<path d="M3973 5244 c-3 -8 6 -55 20 -102 37 -123 38 -136 39 -283 1 -95 5
-132 14 -136 33 -12 164 69 189 117 12 23 12 30 -1 49 -26 36 -88 26 -141 -22
l-23 -20 -1 24 c-1 13 0 32 1 42 1 10 -7 25 -17 34 -17 14 -17 14 0 9 16 -5
18 -2 13 22 -3 15 -8 47 -12 72 -3 25 -13 62 -20 84 -10 27 -11 43 -4 51 7 9
5 22 -7 44 -20 34 -40 40 -50 15z m232 -374 c9 -14 -10 -35 -60 -70 -37 -26
-115 -54 -90 -33 6 4 17 22 27 38 15 29 80 74 105 75 6 0 15 -5 18 -10z"/>
<path d="M6815 5241 c-62 -15 -99 -43 -115 -87 -15 -39 -4 -79 41 -152 22 -34
44 -74 49 -87 l10 -25 -83 -1 c-45 -1 -94 0 -109 1 -16 1 -28 -3 -28 -9 0 -6
0 -14 0 -18 0 -4 44 -6 98 -5 115 3 131 -3 113 -46 -16 -39 -39 -59 -71 -64
-31 -4 -33 -32 -3 -36 35 -5 78 32 102 88 21 49 22 50 66 50 l44 0 -14 -33
c-11 -27 -11 -37 0 -65 9 -20 21 -32 33 -32 41 0 118 30 131 52 24 39 53 146
41 153 -11 7 -25 -14 -45 -70 -23 -63 -41 -82 -87 -90 -51 -10 -57 9 -24 74
14 28 26 52 26 55 0 2 -33 2 -74 -1 l-74 -6 -24 49 c-14 27 -39 71 -56 98 -38
59 -42 106 -12 136 29 29 60 39 143 47 40 3 75 11 79 17 5 7 8 6 8 -4 0 -17
57 -53 71 -44 17 10 9 24 -23 44 -26 16 -50 20 -108 19 -41 -1 -88 -4 -105 -8z"/>
<path d="M9763 5208 c-22 -25 -53 -127 -53 -175 0 -27 -5 -33 -36 -43 -42 -14
-39 -36 5 -33 l32 1 -3 -111 c-3 -94 -1 -112 12 -112 12 0 16 21 18 115 2 70
7 117 14 121 6 4 41 10 77 14 36 4 70 9 74 12 15 9 -15 33 -37 29 -11 -3 -45
-7 -74 -11 -51 -6 -52 -5 -48 17 3 13 7 39 11 59 3 20 19 53 35 74 l29 36 17
-25 c9 -14 23 -26 30 -26 19 0 18 9 -6 48 -24 39 -66 44 -97 10z"/>
<path d="M7709 5204 c-9 -11 -10 -43 -5 -119 l7 -105 -48 3 c-39 2 -48 -1 -51
-17 -6 -26 13 -42 32 -27 9 8 27 10 48 6 32 -6 35 -10 46 -63 22 -115 25 -153
12 -178 -16 -28 -6 -43 18 -28 23 15 27 99 8 187 l-14 69 41 -4 c34 -2 42 0
45 15 3 13 -2 18 -15 16 -10 -1 -32 2 -50 6 -28 6 -33 12 -38 49 -10 65 -10
160 -2 177 11 22 -17 33 -34 13z"/>
<path d="M11600 5210 c-25 -4 -99 -16 -165 -25 -156 -23 -152 -22 -133 -42 15
-14 30 -13 172 11 86 14 177 26 201 26 32 0 45 4 45 14 0 11 -49 29 -69 25 -3
-1 -26 -5 -51 -9z"/>
<path d="M5436 5193 c-7 -24 1 -160 10 -175 4 -6 8 -69 8 -139 1 -138 11 -169
43 -136 24 23 29 122 10 186 -17 57 -10 106 23 172 21 39 53 65 70 54 22 -14
32 -92 25 -206 -5 -85 -4 -119 5 -124 16 -10 57 31 70 71 l11 34 32 -34 c19
-20 33 -45 34 -62 1 -17 12 -38 28 -51 22 -19 38 -23 93 -23 47 0 75 5 91 17
14 9 21 11 17 5 -11 -17 19 -15 34 3 18 22 4 36 -25 25 -14 -5 -54 -12 -90
-16 -51 -5 -70 -3 -90 10 -40 26 -31 41 33 54 96 20 130 77 60 101 -35 13 -83
-4 -117 -40 l-23 -24 -16 24 c-10 13 -28 35 -40 48 -29 31 -42 21 -61 -45 -7
-24 -14 -42 -16 -40 -2 2 1 37 6 78 15 120 -6 205 -56 228 -32 15 -79 -19
-108 -78 -22 -43 -26 -47 -31 -27 -9 35 -7 72 5 84 15 15 4 43 -15 43 -8 0
-17 -8 -20 -17z m484 -273 c0 -11 -42 -30 -66 -30 -21 0 -17 16 9 28 29 14 57
15 57 2z"/>
<path d="M10955 5098 c-8 -13 -20 -39 -25 -58 -16 -58 -23 -62 -106 -71 -212
-21 -215 -21 -212 -38 2 -9 12 -15 23 -14 204 19 249 22 252 20 1 -2 -6 -27
-17 -55 -22 -56 -26 -113 -10 -141 19 -37 93 -53 204 -45 l85 7 -1 28 c-1 32
-27 40 -48 14 -17 -21 -150 -21 -190 0 -37 19 -38 46 -6 130 l23 60 42 -2 c49
-2 57 21 14 39 -16 7 -29 13 -31 14 -2 1 9 27 23 59 14 32 25 61 25 66 0 18
-29 9 -45 -13z"/>
<path d="M11620 5089 c-58 -5 -132 -10 -164 -12 -57 -3 -85 -20 -53 -32 17 -7
375 19 383 28 3 3 3 10 -1 16 -7 12 -11 12 -165 0z m150 -3 c0 -2 -7 -7 -16
-10 -8 -3 -12 -2 -9 4 6 10 25 14 25 6z"/>
<path d="M8010 5077 c0 -17 29 -57 41 -57 13 0 11 44 -3 58 -16 16 -38 15 -38
-1z"/>
<path d="M4430 4964 c-107 -23 -184 -94 -153 -142 22 -34 261 -15 293 23 19
23 -7 28 -58 11 -58 -18 -163 -30 -191 -21 -17 5 -19 10 -11 24 8 16 16 17 55
10 54 -10 127 3 173 31 35 22 38 28 20 53 -19 24 -55 27 -128 11z m76 -40
c-30 -17 -157 -33 -144 -19 10 11 106 33 143 34 l30 0 -29 -15z"/>
<path d="M9450 4950 c0 -5 -20 -28 -44 -50 -111 -103 -70 -164 67 -100 63 30
69 54 27 114 -29 43 -50 58 -50 36z m28 -87 c19 -16 18 -17 -45 -42 -64 -25
-69 -13 -16 41 24 24 39 34 42 26 2 -7 10 -19 19 -25z"/>
<path d="M8157 4943 c-16 -15 -4 -31 38 -53 69 -35 56 -71 -32 -91 -42 -9 -45
13 -6 53 22 23 24 31 14 41 -10 10 -18 5 -41 -20 -36 -40 -47 -78 -29 -99 32
-39 179 18 179 69 0 26 -18 46 -73 82 -42 28 -41 28 -50 18z"/>
<path d="M7412 4920 c-50 -22 -76 -69 -61 -108 5 -13 9 -26 9 -29 0 -13 -53
43 -76 80 -29 44 -48 46 -93 7 -26 -22 -34 -38 -38 -74 -8 -68 20 -63 52 9 13
30 29 55 34 55 6 0 17 -12 25 -27 23 -44 75 -88 104 -89 15 0 54 -6 87 -13 43
-10 60 -10 63 -2 2 6 8 8 13 5 17 -10 59 6 59 22 0 13 -9 14 -53 9 -76 -10
-131 7 -147 45 -10 25 -10 34 3 54 17 26 64 41 96 31 27 -8 38 15 16 32 -25
17 -42 16 -93 -7z"/>
<path d="M7895 4900 c-4 -6 -2 -17 4 -24 7 -8 11 -45 10 -85 -2 -81 12 -110
37 -77 9 12 10 23 4 31 -5 6 -9 39 -9 73 1 73 -25 117 -46 82z"/>
<path d="M8398 4881 c-8 -11 -23 -19 -33 -18 -18 2 -20 -4 -20 -57 0 -35 5
-61 11 -63 6 -2 25 25 42 59 24 51 31 59 37 43 39 -117 55 -136 104 -115 44
18 42 43 -2 35 -37 -7 -33 -12 -69 90 -16 46 -48 58 -70 26z"/>
<path d="M11000 4493 c-41 -7 -109 -19 -150 -26 -64 -10 -75 -15 -75 -32 0
-22 -3 -22 105 0 41 9 107 18 145 21 97 8 102 10 80 34 -10 11 -21 20 -24 19
-3 -1 -40 -8 -81 -16z"/>
<path d="M11145 4353 c-108 -8 -311 -37 -319 -44 -23 -21 10 -28 79 -18 39 6
114 14 168 18 62 5 102 13 107 21 4 7 13 9 20 5 8 -5 11 -3 8 5 -5 16 -11 17
-63 13z"/>
</g>
</svg>
