<?xml version="1.0" standalone="no"?>
<!DOCTYPE svg PUBLIC "-//W3C//DTD SVG 20010904//EN"
 "http://www.w3.org/TR/2001/REC-SVG-20010904/DTD/svg10.dtd">
<svg version="1.0" xmlns="http://www.w3.org/2000/svg"
 width="1872.000000pt" height="1404.000000pt" viewBox="0 0 1872.000000 1404.000000"
 preserveAspectRatio="xMidYMid meet">

<g transform="translate(0.000000,1404.000000) scale(0.100000,-0.100000)"
fill="#000000" stroke="none">
<path d="M17286 13731 c-8 -13 33 -31 72 -31 24 0 251 -77 288 -98 10 -6 -16
-19 -90 -47 -202 -73 -328 -166 -425 -310 -142 -213 -116 -327 96 -415 116
-49 200 -63 323 -56 170 10 247 34 365 113 91 60 117 159 103 388 -11 176 -20
201 -95 251 -34 23 -59 44 -56 48 3 3 -2 15 -12 26 -14 16 -30 20 -64 19 -34
-1 -85 14 -191 54 -112 43 -163 57 -226 62 -56 5 -84 4 -88 -4z m520 -196 c41
-19 81 -35 88 -35 30 0 65 -41 75 -90 31 -143 22 -376 -17 -442 -19 -33 -115
-97 -182 -121 -108 -39 -316 -50 -425 -22 -60 16 -186 72 -215 97 -64 54 -67
122 -8 239 72 145 222 277 384 339 122 47 190 70 206 70 10 0 52 -16 94 -35z"/>
<path d="M17687 13414 c-3 -3 -3 -13 0 -21 5 -12 -2 -14 -33 -11 -29 2 -39 -1
-39 -12 0 -8 -25 -27 -56 -42 -124 -62 -144 -117 -54 -151 91 -35 115 -47 115
-57 0 -14 -109 -44 -157 -43 -47 2 -50 -1 -29 -22 38 -38 170 -22 219 26 33
34 34 40 1 79 -18 21 -44 35 -85 47 -33 9 -59 20 -59 24 0 16 126 89 153 89 6
0 16 -8 23 -17 18 -25 44 -1 28 25 -12 19 -8 42 7 42 6 0 7 -6 3 -12 -5 -9 -4
-10 3 -3 6 6 14 20 18 32 5 18 3 22 -9 17 -9 -3 -16 -1 -16 5 0 12 -23 15 -33
5z"/>
<path d="M2965 13713 c-66 -14 -122 -50 -208 -132 -38 -37 -66 -82 -135 -221
l-87 -175 0 -120 c0 -109 2 -125 26 -175 48 -100 235 -303 321 -346 107 -55
208 -27 306 83 226 255 320 496 282 720 -25 148 -96 258 -203 317 -87 48 -214
69 -302 49z m246 -75 c81 -37 131 -86 167 -165 105 -227 45 -478 -179 -756
-93 -116 -136 -147 -205 -147 -60 0 -106 19 -164 68 l-34 29 64 -9 c71 -10
162 -5 224 13 46 13 143 100 132 117 -12 19 -22 14 -63 -28 -46 -49 -108 -70
-209 -70 -81 0 -167 31 -217 78 -42 40 -80 119 -73 153 3 16 2 31 -3 34 -11 6
-28 -14 -33 -40 -4 -19 -5 -18 -18 5 -8 15 -16 64 -18 120 -5 109 10 164 75
278 20 37 48 92 60 122 35 87 160 198 248 221 61 16 186 4 246 -23z"/>
<path d="M2940 13483 c-52 -20 -150 -137 -150 -180 0 -17 37 -53 54 -53 7 0
43 20 80 45 36 25 66 43 66 40 0 -4 -20 -89 -45 -191 -36 -143 -43 -189 -35
-204 20 -38 62 -16 54 29 -3 14 18 117 45 229 28 112 51 211 51 221 0 12 -17
28 -50 45 -27 14 -51 26 -52 25 -2 0 -10 -3 -18 -6z m35 -84 c-28 -30 -115
-92 -121 -86 -11 10 18 53 64 94 41 36 49 40 61 28 13 -12 12 -17 -4 -36z"/>
<path d="M3185 13019 c-4 -6 -1 -15 6 -20 20 -13 54 -6 54 11 0 18 -50 26 -60
9z"/>
<path d="M5219 13593 c-9 -137 -12 -151 -62 -283 -27 -71 -49 -89 -114 -93
-39 -3 -56 -23 -28 -33 9 -4 37 -2 61 3 24 6 44 7 44 3 0 -4 -9 -33 -20 -65
-11 -31 -17 -61 -15 -66 13 -20 35 7 50 59 27 99 24 96 116 116 120 26 134 31
137 50 3 15 -2 16 -35 10 -21 -3 -69 -15 -108 -25 -38 -11 -71 -19 -72 -19 -2
0 6 24 18 53 38 94 59 171 59 213 0 22 5 45 11 51 6 6 8 16 5 22 -8 12 -46 15
-47 4z"/>
<path d="M15835 13554 c-8 -21 -22 -63 -30 -96 -18 -67 -35 -108 -45 -108 -4
0 -21 7 -36 15 -43 22 -65 18 -105 -18 -79 -71 -108 -190 -59 -242 13 -14 29
-25 36 -25 26 0 23 -20 -17 -89 -44 -76 -58 -146 -29 -146 9 0 17 13 21 35 10
63 85 190 111 190 34 0 134 31 158 49 38 28 62 75 54 106 -7 28 -59 89 -84 97
-12 4 -12 10 2 49 9 24 24 71 33 104 9 33 21 66 27 72 12 14 4 43 -12 43 -5 0
-17 -16 -25 -36z m-98 -260 c1 -5 -16 -47 -40 -94 -45 -92 -70 -109 -108 -74
-39 35 -14 133 49 191 l36 33 30 -23 c16 -13 31 -28 33 -33z m64 -24 c10 -6
26 -24 34 -40 14 -27 14 -31 -8 -54 -25 -28 -93 -66 -118 -66 -14 0 -9 16 24
85 23 47 43 85 45 85 2 0 12 -5 23 -10z"/>
<path d="M6962 13547 c-6 -7 -25 -52 -43 -101 -21 -60 -50 -112 -89 -164 -93
-125 -214 -231 -237 -208 -16 16 22 92 68 138 40 40 55 49 74 44 30 -8 40 7
19 29 -10 10 -24 13 -38 9 -81 -24 -185 -179 -157 -233 29 -53 95 -26 197 81
l70 74 -4 -58 c-5 -65 13 -98 51 -98 51 0 180 91 159 112 -7 7 -26 -2 -58 -26
-50 -39 -84 -52 -109 -42 -29 11 -15 79 45 221 63 147 89 218 84 227 -7 12
-20 10 -32 -5z"/>
<path d="M14589 13553 c0 -5 -2 -29 -4 -54 -2 -25 -34 -124 -71 -220 -71 -184
-81 -231 -51 -237 12 -3 17 3 17 21 0 13 31 107 70 208 38 101 70 195 70 210
0 14 6 31 13 38 10 10 8 15 -7 27 -22 15 -36 18 -37 7z"/>
<path d="M14849 13533 c-64 -71 -155 -250 -175 -345 -17 -82 -12 -136 18 -173
32 -41 72 -34 129 24 61 60 65 96 18 136 -34 28 -71 28 -116 -1 -13 -8 -23
-13 -23 -11 0 57 139 327 182 354 7 4 20 8 28 8 26 0 17 30 -10 33 -18 2 -33
-6 -51 -25z m-19 -398 c16 -19 -10 -63 -57 -95 l-35 -24 -19 23 c-11 13 -19
36 -19 51 0 24 6 31 43 43 54 20 72 20 87 2z"/>
<path d="M13794 13474 c-3 -25 -28 -109 -55 -186 -44 -130 -51 -174 -27 -166
8 3 46 110 118 334 15 46 12 64 -9 64 -16 0 -21 -10 -27 -46z"/>
<path d="M16362 13485 c-23 -7 -73 -16 -110 -20 -70 -7 -93 -18 -76 -35 12
-12 166 5 197 21 37 21 38 -6 2 -78 -19 -39 -43 -77 -51 -84 -9 -8 -46 -21
-83 -29 -45 -11 -66 -20 -66 -30 0 -16 7 -17 72 -6 l43 8 -27 -58 c-30 -66
-36 -127 -13 -131 11 -3 22 13 34 49 11 29 32 79 48 110 28 55 31 57 83 68 50
10 85 33 72 47 -4 3 -27 0 -53 -6 -25 -7 -48 -10 -50 -9 -2 2 10 30 26 62 52
103 35 146 -48 121z"/>
<path d="M14000 13461 c-25 -10 -45 -25 -45 -32 0 -17 8 -17 62 0 25 8 56 11
78 7 31 -6 35 -10 29 -29 -12 -43 -43 -78 -186 -210 -38 -35 -48 -51 -48 -76
0 -25 6 -34 28 -42 54 -21 199 13 210 50 4 11 -3 12 -29 8 -88 -16 -162 -20
-158 -9 2 7 47 57 99 113 52 56 100 111 107 123 19 33 16 84 -6 95 -38 21 -95
21 -141 2z"/>
<path d="M15381 13450 c-104 -57 -160 -117 -135 -143 9 -9 34 4 34 18 0 16 61
65 118 95 85 44 70 7 -65 -162 -58 -73 -114 -139 -124 -146 -20 -14 -26 -42
-10 -42 5 0 22 7 38 17 36 20 67 13 118 -27 41 -32 75 -39 75 -15 0 8 -4 15
-9 15 -5 0 -24 12 -41 26 -17 15 -46 32 -65 38 l-34 12 95 119 c99 126 127
182 104 210 -18 22 -38 19 -99 -15z"/>
<path d="M16040 13428 c-12 -47 -29 -88 -93 -227 -27 -59 -35 -136 -14 -144
19 -7 33 9 39 48 11 65 42 162 66 210 22 43 37 92 45 145 1 8 -5 16 -14 18
-13 2 -20 -10 -29 -50z"/>
<path d="M5540 13429 c0 -22 22 -49 40 -49 28 0 34 19 14 41 -18 20 -54 26
-54 8z"/>
<path d="M4294 13321 c-38 -23 -119 -117 -133 -155 -17 -44 -13 -91 9 -111 33
-30 150 -18 150 16 0 6 -21 8 -58 3 -47 -5 -60 -3 -71 10 -21 25 0 82 55 144
54 61 81 79 97 63 16 -16 27 -13 27 7 0 20 -18 42 -34 42 -6 0 -25 -8 -42 -19z"/>
<path d="M6157 13323 c-3 -10 -11 -42 -19 -72 -16 -67 -92 -159 -123 -148 -16
7 -17 15 -11 70 12 109 12 112 -4 112 -18 0 -44 -126 -34 -165 7 -33 33 -60
56 -60 25 0 86 57 132 124 29 43 38 65 39 103 2 37 -2 48 -15 51 -9 2 -18 -5
-21 -15z"/>
<path d="M6340 13284 c-45 -40 -100 -127 -100 -157 0 -64 69 -114 134 -96 47
13 42 35 -7 31 -49 -4 -77 12 -77 44 0 45 17 64 58 64 49 0 105 30 116 64 8
21 6 32 -11 54 -31 41 -64 40 -113 -4z m88 -35 c3 -17 -51 -49 -84 -49 -14 0
-11 7 16 35 35 37 62 42 68 14z"/>
<path d="M5533 13298 c-27 -37 -67 -149 -71 -201 -4 -52 -2 -59 13 -55 13 2
18 15 20 52 2 30 16 74 38 120 29 58 34 73 23 84 -10 11 -14 11 -23 0z"/>
<path d="M5683 13256 c-50 -45 -82 -111 -63 -130 13 -13 40 12 40 38 0 12 16
37 35 56 31 30 37 32 67 24 39 -11 46 -41 29 -110 -12 -47 0 -99 22 -92 14 5
35 93 36 155 1 52 -29 89 -80 97 -33 6 -41 2 -86 -38z"/>
<path d="M4783 13250 c-58 -24 -145 -200 -99 -200 7 0 19 15 27 33 7 17 28 56
46 85 35 55 61 66 98 38 24 -17 15 -84 -16 -107 -21 -15 -21 -17 -4 -43 18
-27 40 -30 41 -5 0 8 8 38 18 67 10 29 15 64 12 77 -11 42 -79 73 -123 55z"/>
<path d="M4485 13217 c-44 -44 -61 -104 -41 -151 24 -57 85 -60 144 -7 51 47
55 105 9 155 -12 13 -35 27 -50 30 -23 6 -34 1 -62 -27z m89 -29 c37 -52 -2
-128 -65 -128 -48 0 -53 67 -8 123 25 33 53 34 73 5z"/>
<path d="M14977 13140 c-3 -11 1 -23 8 -28 7 -4 14 -16 17 -27 2 -11 10 -20
18 -20 20 0 24 54 4 62 -8 3 -14 11 -14 19 0 22 -27 17 -33 -6z"/>
<path d="M7625 13140 c-4 -7 -3 -16 1 -20 13 -13 96 0 91 14 -5 15 -83 20 -92
6z"/>
<path d="M14282 13141 c-18 -11 -12 -76 7 -76 8 0 18 12 22 27 8 32 -9 62 -29
49z"/>
<path d="M7882 13120 c-27 -11 -39 -37 -24 -52 9 -9 16 -7 30 5 10 9 26 17 34
17 18 0 41 24 31 33 -9 9 -43 8 -71 -3z"/>
<path d="M7324 13089 c-3 -6 1 -18 11 -27 13 -13 19 -14 22 -4 3 6 20 12 39
12 35 0 46 13 18 24 -26 10 -82 7 -90 -5z"/>
<path d="M10495 12620 c-3 -5 -3 -15 0 -20 8 -13 -25 -118 -67 -211 l-31 -69
-51 -2 c-28 -1 -69 -2 -91 -3 -34 0 -40 -4 -43 -23 -3 -22 -1 -22 55 -17 32 4
68 8 80 11 32 6 35 -7 13 -72 -31 -90 -55 -233 -42 -246 18 -18 23 -6 39 88 8
48 25 117 37 153 21 63 23 66 56 69 76 5 196 24 213 34 37 19 3 30 -64 19
-122 -19 -148 -21 -153 -12 -4 5 9 44 27 88 41 93 61 174 52 202 -7 23 -20 27
-30 11z"/>
<path d="M13894 12589 c-40 -11 -72 -45 -56 -61 8 -8 18 -5 38 11 20 16 40 21
83 20 98 -1 100 -8 23 -67 -38 -28 -73 -52 -79 -52 -16 0 -89 -83 -111 -127
-24 -46 -42 -203 -23 -203 14 0 31 42 31 80 0 39 52 136 99 186 22 23 71 65
109 93 39 29 73 60 77 69 9 24 -15 41 -74 52 -62 12 -75 11 -117 -1z"/>
<path d="M12957 12543 c-3 -15 -19 -64 -35 -108 -45 -119 -103 -296 -109 -332
-4 -25 -2 -33 10 -33 18 0 41 26 33 38 -3 6 1 26 9 45 8 20 29 84 46 144 17
59 44 137 60 172 32 68 34 94 8 99 -11 2 -18 -6 -22 -25z"/>
<path d="M12576 12528 c-2 -7 -8 -42 -13 -78 -10 -65 -59 -184 -120 -293 -39
-69 -40 -77 -13 -77 11 0 23 -7 26 -15 22 -56 226 65 254 150 31 95 -67 110
-163 25 l-37 -32 40 89 c37 84 67 213 55 234 -9 13 -25 11 -29 -3z m104 -290
c0 -28 -81 -107 -140 -136 l-45 -22 -9 27 c-8 24 -4 31 40 71 93 83 154 107
154 60z"/>
<path d="M3625 12520 c-3 -5 -3 -14 0 -20 3 -5 2 -10 -3 -10 -11 0 -54 -158
-46 -171 3 -5 1 -9 -5 -9 -8 0 -40 -79 -45 -113 -1 -7 -5 -17 -9 -24 -4 -6 -4
-19 0 -29 4 -11 3 -15 -4 -11 -10 6 -23 -22 -23 -50 0 -26 28 -12 55 27 36 52
100 110 121 110 15 0 16 -7 8 -57 -4 -32 -8 -83 -9 -113 l0 -55 -85 2 c-157 3
-265 14 -244 26 34 18 66 51 86 91 24 47 33 236 11 236 -23 0 -33 -37 -27 -94
9 -77 -1 -117 -42 -164 -49 -57 -64 -55 -64 8 0 70 -19 75 -78 18 -26 -24 -55
-50 -65 -57 -15 -12 -17 -12 -11 5 29 84 82 212 115 276 66 128 52 150 -54 86
-40 -23 -84 -48 -98 -54 -34 -15 -45 -34 -28 -45 8 -5 22 -2 36 6 12 8 44 27
70 41 26 15 54 32 62 38 7 6 -2 -21 -22 -60 -46 -91 -114 -263 -123 -310 -6
-35 -8 -35 -48 -32 -33 2 -41 0 -41 -14 0 -16 18 -18 190 -22 105 -3 260 -7
345 -10 85 -3 634 -8 1220 -11 586 -3 1295 -7 1575 -10 1081 -12 1868 -24
1873 -29 3 -3 -9 -44 -26 -91 -26 -74 -29 -87 -15 -92 19 -8 25 2 59 104 l29
84 2423 -5 2423 -6 10 27 c5 14 8 34 7 42 -5 24 -33 19 -36 -7 l-3 -22 -2122
2 c-1167 1 -2249 4 -2405 6 -262 2 -283 4 -280 20 2 9 14 19 28 21 64 9 160
115 193 215 31 91 16 176 -30 176 -37 0 -109 -97 -158 -212 -15 -38 -31 -68
-36 -68 -9 0 -25 -50 -34 -108 l-7 -42 -346 0 c-191 0 -395 3 -454 7 -127 7
-122 -1 -78 133 34 102 37 132 15 150 -13 11 -21 8 -50 -20 -42 -41 -113 -145
-122 -178 -6 -26 9 -48 26 -38 6 4 11 15 11 24 0 9 9 32 20 50 12 19 15 30 8
26 -7 -4 -2 4 12 17 14 13 33 35 43 48 31 45 30 13 -2 -83 -17 -52 -31 -102
-31 -110 0 -14 -29 -16 -242 -16 -134 0 -408 3 -610 7 -351 6 -367 7 -357 24
14 28 175 189 187 189 6 0 12 -24 14 -52 3 -46 6 -54 30 -66 31 -15 68 -2 68
23 0 11 -8 13 -30 9 -33 -7 -33 -8 -30 67 1 26 -4 50 -10 54 -24 15 -71 -9
-124 -62 -31 -31 -56 -55 -56 -52 0 2 14 37 30 78 27 66 29 76 16 90 -14 13
-16 12 -22 -5 -19 -58 -31 -89 -77 -187 l-50 -107 -281 4 c-155 3 -381 5 -502
5 l-222 1 20 38 c21 41 20 82 -5 147 -15 39 -15 40 9 59 19 14 22 21 13 32 -9
12 -16 10 -40 -7 -33 -23 -37 -51 -14 -106 22 -52 18 -123 -7 -123 -12 0 -47
41 -48 56 0 19 -30 25 -36 9 -6 -16 14 -53 46 -85 19 -19 11 -19 -420 -19
l-439 1 14 21 c7 12 19 67 25 121 6 55 12 101 13 102 2 2 32 7 67 11 48 6 65
12 65 23 0 12 -12 14 -57 12 -32 -2 -58 0 -58 6 0 5 9 35 20 66 11 32 19 61
18 64 -1 4 2 15 7 25 9 21 -7 43 -24 33 -6 -4 -11 -15 -11 -24 0 -20 -49 -174
-59 -185 -4 -4 -34 -11 -66 -15 -47 -6 -60 -11 -63 -26 -4 -17 1 -18 44 -13
27 3 56 8 64 12 14 5 14 -4 2 -92 -8 -54 -15 -108 -15 -120 -2 -22 -6 -23 -84
-23 l-82 0 5 67 c6 103 -10 111 -107 50 -27 -16 -51 -28 -54 -25 -9 9 86 129
110 138 26 10 32 24 15 35 -22 13 -52 -9 -105 -77 -56 -72 -67 -106 -41 -127
16 -13 55 0 115 40 l34 23 -6 -38 c-3 -22 -2 -47 4 -57 9 -18 4 -19 -94 -19
l-104 0 2 43 c2 23 8 70 15 104 12 69 4 97 -30 108 -23 7 -54 -7 -94 -44 l-28
-26 7 25 c4 14 13 39 20 57 7 17 11 34 8 37 -3 3 -1 11 5 18 14 17 62 190 56
200 -7 11 -22 10 -29 -2z m4861 -194 c8 -32 -21 -131 -52 -179 -35 -54 -92
-107 -115 -107 -18 0 -18 1 2 53 11 28 27 63 35 75 9 13 13 26 10 30 -13 13
83 152 106 152 4 0 10 -11 14 -24z m-5222 -241 c-4 -16 0 -34 10 -50 l16 -25
-67 0 -68 1 55 49 c30 27 56 50 58 50 1 0 0 -11 -4 -25z"/>
<path d="M7742 12463 c-34 -76 -87 -245 -97 -317 -6 -37 -15 -53 -43 -76 -40
-33 -69 -38 -78 -15 -10 25 37 148 67 176 32 29 26 59 -8 40 -27 -14 -56 -58
-43 -66 15 -9 12 -25 -3 -19 -17 6 -47 -67 -47 -114 0 -76 41 -92 112 -45 31
21 42 25 46 14 8 -25 42 -51 65 -51 30 0 115 41 153 73 18 15 37 27 43 27 6 0
11 16 11 35 0 45 -18 45 -48 0 -23 -37 -76 -74 -128 -92 -36 -13 -50 -7 -62
27 -8 21 -3 32 24 68 18 24 40 67 48 96 19 63 56 288 49 299 -12 21 -33 0 -61
-60z m-7 -169 c-16 -74 -41 -141 -51 -132 -2 3 10 53 27 112 18 58 34 105 36
103 2 -3 -4 -40 -12 -83z"/>
<path d="M7230 12502 c0 -10 6 -27 14 -38 13 -17 16 -17 30 -4 14 14 14 18 0
38 -18 27 -44 29 -44 4z"/>
<path d="M9563 12493 c-44 -123 -139 -278 -215 -355 -46 -46 -117 -98 -133
-98 -25 0 -25 33 -2 84 39 83 103 134 153 122 30 -8 42 13 19 30 -21 15 -66 8
-78 -13 -4 -7 -16 -13 -26 -13 -40 0 -121 -120 -121 -178 0 -17 8 -40 18 -52
17 -21 22 -22 54 -11 56 18 153 109 222 205 11 17 11 9 0 -47 -12 -58 -12 -72
0 -101 24 -58 85 -60 170 -6 34 22 52 28 64 21 30 -16 78 14 174 106 50 48 93
83 95 76 2 -6 -5 -48 -17 -94 -12 -49 -17 -86 -11 -92 5 -5 29 7 57 28 49 38
93 59 102 51 2 -3 0 -18 -6 -35 -8 -23 -7 -32 3 -41 11 -9 17 -4 30 26 17 42
13 69 -15 84 -21 11 -54 0 -104 -34 -29 -20 -30 -20 -22 0 15 35 19 151 7 159
-16 9 -80 -36 -132 -92 -44 -48 -125 -113 -140 -113 -6 0 2 16 16 35 26 34 55
111 55 147 0 10 -7 18 -16 18 -10 0 -30 -32 -56 -87 -46 -97 -60 -113 -135
-149 -64 -31 -93 -22 -93 29 0 48 34 162 80 268 22 51 40 103 40 116 0 27 -28
32 -37 6z"/>
<path d="M4900 12416 c0 -33 20 -44 37 -21 20 28 16 45 -12 45 -20 0 -25 -5
-25 -24z"/>
<path d="M12065 12409 c-11 -30 -9 -62 3 -66 8 -3 16 4 19 16 4 15 11 20 23
16 20 -6 37 12 24 25 -18 17 -64 23 -69 9z"/>
<path d="M13121 12357 c-62 -34 -121 -130 -121 -200 0 -28 30 -74 57 -86 37
-17 144 -15 178 3 17 9 35 16 41 16 5 0 23 14 39 30 22 23 26 33 17 42 -9 9
-18 5 -38 -15 -14 -15 -43 -29 -63 -32 -20 -4 -46 -10 -59 -16 -70 -28 -132 3
-132 67 0 33 3 36 58 60 117 50 142 70 142 111 0 16 -8 27 -26 33 -36 14 -44
13 -93 -13z m83 -26 c7 -11 -68 -57 -109 -67 -28 -7 -28 -7 -12 16 31 44 106
76 121 51z"/>
<path d="M8690 12284 c-23 -25 -53 -70 -66 -99 -17 -38 -29 -52 -39 -48 -22 8
-32 -27 -12 -42 10 -7 17 -19 17 -28 0 -9 10 -23 23 -32 29 -19 64 -10 152 40
l64 36 -24 -53 c-24 -52 -24 -68 -2 -68 7 0 61 49 121 109 152 153 176 153
116 3 -35 -85 -36 -127 -5 -127 13 0 20 6 19 18 -1 9 3 17 10 17 6 0 6 4 -3 9
-11 7 -8 21 14 76 36 91 41 127 20 148 -15 15 -20 15 -53 2 -20 -9 -68 -47
-105 -85 -72 -74 -91 -88 -59 -42 25 36 50 104 45 120 -9 23 -28 12 -58 -33
-31 -47 -87 -89 -165 -124 -58 -26 -70 -26 -70 2 0 14 10 29 28 39 96 58 152
135 130 183 -17 38 -49 32 -98 -21z m70 -8 c0 -18 -43 -70 -80 -96 -28 -20
-28 -20 -23 0 6 23 80 110 94 110 5 0 9 -6 9 -14z"/>
<path d="M7134 12293 c-8 -27 -64 -174 -80 -212 -10 -22 -12 -37 -5 -44 12
-12 45 -1 36 12 -3 5 -1 12 5 16 5 3 10 13 10 22 0 8 16 55 36 104 34 84 38
119 14 119 -6 0 -13 -8 -16 -17z"/>
<path d="M11590 12291 c0 -26 27 -48 42 -33 9 9 7 17 -7 32 -23 25 -35 26 -35
1z"/>
<path d="M11801 12265 c-44 -48 -94 -146 -89 -173 7 -34 35 -24 52 19 9 23 15
44 12 47 -8 7 19 53 49 85 14 15 37 27 50 27 28 0 34 24 9 34 -30 11 -42 6
-83 -39z"/>
<path d="M11527 12270 c-45 -53 -89 -138 -82 -160 9 -27 44 -26 86 3 60 40 58
40 47 3 -21 -68 19 -120 62 -81 23 21 16 38 -11 30 -26 -8 -25 23 1 94 11 30
17 58 14 62 -7 12 -34 11 -34 0 0 -11 -108 -91 -122 -91 -12 0 14 48 55 101
48 63 33 98 -16 39z"/>
<path d="M8080 12266 c-37 -25 -106 -147 -121 -215 -12 -52 9 -81 60 -81 80 0
240 75 215 100 -7 7 -25 3 -55 -14 -53 -30 -155 -60 -175 -52 -28 11 -12 31
48 61 81 40 103 70 100 137 -1 35 -7 58 -19 70 -18 17 -20 17 -53 -6z m38 -65
c2 -18 -3 -42 -11 -54 -17 -27 -97 -73 -97 -57 0 10 30 67 67 128 19 31 37 23
41 -17z"/>
<path d="M11293 12163 l-67 -128 -9 39 c-7 26 -6 58 2 95 26 120 25 113 5 109
-15 -2 -23 -21 -36 -82 -14 -67 -15 -91 -5 -150 16 -97 36 -97 86 -1 51 99
103 188 118 204 11 10 11 16 2 27 -6 8 -15 14 -20 14 -4 0 -38 -57 -76 -127z"/>
<path d="M5940 12259 c-56 -22 -120 -104 -120 -153 0 -44 34 -52 92 -22 l51
26 -6 -30 c-9 -42 2 -92 20 -88 10 2 15 22 18 68 2 36 6 77 9 92 10 43 -12 43
-58 0 -41 -38 -82 -59 -92 -49 -6 6 18 52 38 77 23 29 62 50 90 50 34 0 44 16
19 29 -23 13 -28 13 -61 0z"/>
<path d="M12240 12243 c-53 -26 -140 -117 -140 -146 0 -52 53 -59 135 -17 22
11 40 20 42 20 1 0 3 -17 5 -37 2 -26 8 -38 18 -38 11 0 16 15 20 51 3 28 14
67 24 86 18 34 17 68 -3 68 -5 0 -18 -15 -29 -34 -25 -42 -76 -81 -130 -100
-53 -19 -57 -3 -11 48 41 47 94 79 118 71 27 -8 38 15 16 32 -23 16 -22 16
-65 -4z"/>
<path d="M4814 12215 c-4 -9 -4 -18 -1 -21 6 -7 -10 -69 -30 -111 -16 -35 -11
-67 10 -61 16 6 57 133 54 171 -3 34 -23 48 -33 22z"/>
<path d="M11949 12173 c-35 -79 -39 -101 -23 -114 11 -9 15 -7 20 7 3 11 17
45 30 77 13 32 22 63 18 68 -11 19 -25 7 -45 -38z"/>
<path d="M13765 11892 c-44 -27 -61 -50 -47 -64 9 -9 17 -7 34 9 13 11 31 23
41 26 16 6 25 47 10 47 -5 0 -21 -8 -38 -18z"/>
<path d="M10653 11463 c-33 -6 -47 -28 -28 -43 12 -10 19 -10 27 -2 7 7 23 12
37 12 22 0 19 -5 -32 -59 -63 -66 -71 -97 -36 -130 12 -11 35 -25 53 -31 17
-6 46 -18 64 -26 42 -18 62 -18 62 1 0 8 -5 15 -12 15 -6 0 -25 11 -42 24 -17
13 -41 26 -53 30 -47 15 -48 33 -3 78 49 49 80 87 80 99 0 4 -7 15 -16 23 -15
15 -52 18 -101 9z"/>
<path d="M10367 11313 c-20 -43 -40 -94 -44 -113 -8 -32 -12 -35 -51 -38 -23
-2 -58 2 -79 7 -23 7 -41 7 -47 1 -19 -19 15 -37 80 -43 37 -4 68 -8 70 -9 1
-2 -5 -34 -13 -72 -19 -83 -10 -130 30 -160 25 -19 31 -19 90 -7 68 14 109 43
89 63 -9 9 -16 8 -30 -6 -25 -22 -116 -33 -137 -16 -18 15 -19 65 -4 143 l12
57 51 0 c60 1 93 20 78 46 -6 11 -11 13 -16 5 -4 -6 -27 -11 -52 -11 -43 0
-44 1 -38 28 15 58 35 107 59 138 25 32 25 64 1 64 -7 0 -29 -35 -49 -77z"/>
<path d="M9854 11138 c-55 -51 -104 -119 -104 -146 0 -11 7 -25 16 -33 13 -11
21 -10 50 6 18 10 49 33 68 52 l34 34 11 -50 c6 -28 14 -77 17 -107 7 -54 6
-56 -14 -50 -51 17 -98 10 -134 -18 -66 -50 -92 -132 -68 -218 11 -37 54 -78
83 -78 39 0 138 145 152 223 6 30 11 37 31 37 29 0 32 20 4 27 -17 5 -20 14
-21 67 0 33 -8 92 -18 131 -13 49 -15 74 -8 85 12 21 -11 73 -35 78 -9 2 -38
-16 -64 -40z m66 -16 c0 -19 -77 -104 -110 -122 -39 -21 -22 17 36 79 59 64
74 73 74 43z m15 -354 c-16 -70 -96 -198 -125 -198 -4 0 -15 15 -24 34 -45 94
10 195 107 196 l49 0 -7 -32z"/>
<path d="M15077 10944 c-39 -30 -77 -74 -114 -131 l-56 -85 -115 7 c-113 7
-131 3 -132 -27 0 -5 52 -8 115 -8 63 0 115 -2 115 -4 0 -3 -13 -38 -30 -79
-43 -109 -38 -187 13 -187 68 1 249 96 244 128 -3 17 -54 48 -64 39 -4 -5 -2
-16 4 -26 9 -15 -1 -23 -84 -66 -77 -39 -96 -46 -104 -34 -5 8 -9 21 -9 30 0
19 31 111 55 160 17 35 19 37 88 43 89 8 153 24 168 43 21 24 -3 35 -39 18
-17 -9 -63 -19 -103 -22 l-71 -6 23 43 c21 37 131 165 114 133 -13 -27 15 -12
39 20 54 70 25 76 -57 11z"/>
<path d="M6933 10930 c-54 -32 -129 -145 -178 -267 -16 -39 -21 -42 -59 -45
-28 -2 -41 -8 -41 -18 0 -10 10 -15 28 -15 15 1 27 -2 27 -5 0 -3 -14 -44 -30
-90 -30 -80 -33 -116 -9 -108 6 2 21 35 33 73 30 93 51 132 77 140 12 4 58 5
103 4 67 -3 81 -1 81 11 0 12 -19 16 -92 20 l-93 5 56 94 c63 105 123 171 155
171 17 0 20 -5 17 -25 -6 -30 7 -42 27 -25 23 19 18 56 -11 79 -33 26 -50 26
-91 1z"/>
<path d="M12850 10824 c-41 -39 -50 -43 -50 -27 0 24 -25 49 -34 34 -4 -5 -4
-27 0 -48 5 -34 -2 -56 -55 -164 -34 -69 -61 -136 -61 -147 0 -51 29 -12 97
127 59 119 82 157 122 194 56 52 62 54 86 30 12 -12 15 -26 11 -51 -5 -35 -52
-132 -92 -191 -13 -19 -21 -38 -18 -43 10 -16 30 -8 46 20 10 15 42 54 72 87
l56 60 0 -55 c0 -33 6 -64 15 -77 11 -16 13 -28 5 -48 -16 -43 -12 -74 16
-102 23 -23 31 -25 78 -20 60 6 152 42 160 62 2 7 13 11 23 9 13 -4 28 7 51
38 17 24 50 63 72 88 40 43 41 44 33 15 -22 -87 10 -131 87 -120 52 7 112 34
118 53 5 15 -30 16 -45 1 -7 -7 -38 -12 -70 -13 -54 -1 -58 1 -61 23 -2 12 6
50 18 82 33 88 12 115 -49 63 -29 -24 -44 -21 -19 4 9 9 9 15 0 24 -18 18 -45
-10 -40 -43 3 -16 0 -25 -7 -23 -6 2 -29 -34 -53 -81 -23 -47 -46 -84 -51 -81
-5 3 -16 -3 -26 -14 -24 -27 -106 -52 -157 -48 -43 3 -43 3 -43 42 0 41 9 50
58 61 42 9 115 81 127 125 11 42 -1 90 -22 90 -7 0 -49 -38 -95 -84 -57 -58
-84 -79 -87 -69 -4 8 -6 43 -6 78 0 71 -9 84 -35 55 -27 -30 -32 -25 -27 33 3
43 0 56 -18 75 -34 36 -73 29 -130 -24z m385 -141 c-11 -45 -104 -128 -122
-109 -5 5 115 136 125 136 2 0 1 -12 -3 -27z"/>
<path d="M6270 10793 c-107 -8 -199 -18 -204 -23 -28 -27 45 -33 193 -15 33 4
33 4 27 -28 -3 -18 -22 -89 -43 -159 l-38 -128 -50 0 c-44 0 -83 8 -184 36
-19 6 -22 3 -20 -11 5 -23 63 -43 166 -57 50 -6 81 -15 80 -22 -1 -6 7 -11 18
-11 11 0 19 5 18 12 -3 12 16 17 111 27 56 7 109 34 114 58 4 20 -12 18 -56
-5 -18 -10 -62 -21 -99 -24 -60 -6 -66 -5 -60 11 17 44 77 250 77 265 1 40 14
45 157 50 114 5 138 9 138 21 0 21 -98 22 -345 3z"/>
<path d="M8260 10787 c-46 -16 -52 -57 -16 -107 84 -115 80 -107 62 -135 -39
-59 -138 -88 -149 -44 -4 13 2 29 14 42 20 22 25 42 11 51 -10 6 -53 -37 -69
-68 -22 -41 21 -86 82 -86 36 0 98 34 129 70 37 44 34 79 -12 137 -56 70 -67
93 -51 104 19 12 66 11 90 -1 10 -6 19 -21 19 -34 0 -28 28 -43 37 -21 9 25
-18 75 -48 90 -33 18 -52 18 -99 2z"/>
<path d="M9020 10690 c-41 -10 -91 -21 -112 -24 -37 -7 -57 -31 -39 -49 7 -7
15 -6 24 1 7 6 62 22 123 35 83 17 110 27 112 40 4 21 -9 21 -108 -3z"/>
<path d="M3700 10664 c-22 -20 -49 -51 -61 -70 -11 -19 -26 -34 -34 -34 -26 0
-35 -25 -20 -54 8 -16 15 -39 15 -53 0 -14 13 -37 29 -54 35 -35 95 -40 131
-11 28 22 19 48 -10 32 -34 -18 -87 -12 -104 12 -20 28 -21 58 -2 58 24 0 134
88 151 120 17 34 9 62 -25 80 -26 14 -25 14 -70 -26z m65 -14 c3 -5 1 -19 -5
-29 -11 -22 -97 -91 -112 -91 -14 0 11 39 54 86 42 45 52 51 63 34z"/>
<path d="M4229 10653 c-5 -16 -11 -33 -14 -39 -4 -15 -65 -58 -65 -47 0 14 14
29 33 36 21 8 22 21 2 37 -18 15 -39 1 -61 -41 -44 -87 14 -104 99 -30 l35 31
11 -44 c14 -56 14 -173 1 -181 -6 -4 -8 -10 -5 -14 2 -5 -36 -12 -86 -16 l-91
-7 -15 -36 c-27 -65 0 -185 46 -200 22 -7 117 104 158 186 43 85 49 122 34
228 -11 73 -45 164 -62 164 -5 0 -14 -12 -20 -27z m2 -381 c-11 -21 -40 -61
-64 -88 l-45 -49 -11 28 c-12 31 -15 106 -5 131 5 12 21 16 75 16 l69 0 -19
-38z"/>
<path d="M9043 10579 c-10 -10 -131 -17 -167 -8 -30 7 -30 -19 1 -34 20 -10
52 -13 116 -9 l87 5 0 28 c0 30 -17 38 -37 18z"/>
<path d="M4506 10491 c-20 -23 -18 -66 4 -66 8 0 16 9 19 20 2 11 10 25 19 31
16 12 9 34 -12 34 -7 0 -21 -9 -30 -19z"/>
<path d="M10810 10469 c-322 -4 -666 -13 -765 -20 -99 -8 -270 -14 -380 -14
-208 -1 -319 -15 -329 -42 -7 -17 2 -20 81 -26 61 -5 86 3 61 20 -23 14 52 18
242 13 102 -3 246 -2 320 2 74 4 415 10 757 14 653 7 667 8 633 49 -7 8 -18
14 -24 13 -6 -1 -274 -5 -596 -9z"/>
<path d="M11892 10468 c-7 -7 -12 -20 -12 -30 0 -23 -66 -96 -120 -133 -24
-17 -40 -35 -38 -44 5 -27 24 -18 102 52 56 50 79 78 87 108 13 43 3 69 -19
47z"/>
<path d="M3884 10429 c-10 -16 23 -46 36 -33 6 6 8 18 4 27 -7 19 -29 22 -40
6z"/>
<path d="M14760 10243 c-100 -25 -121 -36 -104 -53 8 -8 32 -5 80 8 38 11 105
20 149 22 110 4 108 4 125 -3 8 -4 22 -2 30 3 13 9 12 12 -5 23 -55 33 -145
33 -275 0z"/>
<path d="M10178 10215 c-47 -25 -69 -58 -50 -77 13 -13 52 7 52 27 0 31 121
57 147 31 14 -14 -47 -88 -183 -223 -85 -84 -154 -157 -154 -162 0 -25 23 -17
70 24 28 25 54 45 59 45 4 0 25 -11 45 -25 45 -30 93 -32 145 -6 49 25 68 48
53 63 -9 9 -16 8 -29 -4 -24 -21 -79 -48 -97 -48 -8 0 -32 12 -55 26 l-40 27
95 101 c130 138 154 189 103 216 -33 18 -111 10 -161 -15z"/>
<path d="M14737 10123 c-15 -15 -5 -32 25 -42 21 -7 68 -9 135 -5 101 7 103 7
103 32 0 22 -3 24 -27 17 -49 -13 -195 -17 -206 -6 -13 13 -21 14 -30 4z"/>
<path d="M8723 9913 c-7 -2 -9 -19 -7 -43 7 -60 -14 -157 -49 -230 -54 -110
-227 -274 -272 -256 -45 17 -17 130 50 203 42 47 44 47 59 28 19 -26 41 -7 32
28 -9 38 -31 39 -78 4 -109 -83 -155 -239 -85 -290 l27 -21 43 21 c24 11 79
55 124 97 67 63 89 91 128 170 45 88 48 100 53 188 4 92 0 110 -25 101z"/>
<path d="M9535 9908 c-2 -7 -6 -31 -10 -53 -4 -22 -20 -73 -37 -113 l-31 -74
-66 4 c-53 2 -66 0 -66 -12 0 -15 78 -34 103 -25 19 7 16 -4 -38 -141 -32 -82
-47 -131 -41 -137 11 -11 41 8 41 27 0 6 21 66 46 134 l47 122 46 1 c68 2 106
12 106 29 0 12 -13 14 -68 12 l-68 -4 17 39 c26 59 56 173 50 189 -7 17 -25
18 -31 2z"/>
<path d="M12716 9877 c-10 -41 -64 -198 -101 -294 -24 -61 -46 -127 -50 -145
-7 -40 6 -63 30 -54 13 5 16 13 11 37 -4 23 6 60 40 148 52 130 104 279 104
297 0 16 -30 27 -34 11z"/>
<path d="M7133 9868 c-5 -7 -35 -60 -67 -118 -65 -121 -159 -231 -248 -291
-33 -23 -62 -38 -65 -35 -8 8 51 96 89 133 18 17 42 33 53 35 28 5 25 32 -4
36 -51 8 -200 -186 -174 -227 6 -9 17 -17 26 -19 22 -4 119 59 183 120 l54 51
0 -52 c0 -89 46 -112 131 -67 l45 24 18 -33 c23 -42 83 -69 121 -55 25 10 32
24 16 34 -4 3 -6 17 -3 31 2 14 0 25 -5 25 -16 0 -45 -38 -38 -49 10 -18 -10
-13 -38 9 -38 30 -43 65 -13 97 14 15 28 40 31 55 4 15 11 30 16 33 18 12 8
25 -18 25 -31 0 -66 -42 -79 -93 -8 -35 -77 -87 -114 -87 -63 0 -49 81 46 268
41 79 72 148 68 153 -7 13 -20 11 -31 -3z"/>
<path d="M11877 9873 c-15 -15 -5 -41 20 -52 39 -18 53 2 23 34 -25 26 -32 29
-43 18z"/>
<path d="M4938 9825 c-20 -14 -42 -33 -47 -43 -8 -14 -10 -10 -11 21 0 29 -4
37 -18 37 -21 0 -46 -74 -57 -165 -3 -27 -20 -90 -36 -138 -31 -91 -35 -142
-10 -142 16 0 45 77 67 180 16 78 47 137 102 194 42 45 82 59 118 42 44 -20
27 -87 -56 -218 -48 -75 -37 -95 26 -47 l34 27 34 -39 c19 -22 39 -56 45 -76
20 -64 90 -85 198 -59 58 15 91 37 77 51 -7 7 -23 5 -49 -6 -22 -9 -68 -17
-103 -18 -52 -1 -66 2 -78 18 -19 27 -18 56 4 56 23 0 83 36 104 63 23 28 23
64 1 75 -30 16 -91 -21 -124 -74 -24 -39 -38 -35 -65 18 -8 15 -21 28 -29 28
-19 0 -20 -3 16 74 35 76 34 124 -4 151 -33 23 -97 19 -139 -10z m323 -232
c-11 -21 -71 -58 -71 -44 0 10 60 61 73 61 4 0 3 -8 -2 -17z"/>
<path d="M12411 9840 c-8 -4 -11 -15 -8 -23 18 -47 -48 -286 -105 -383 -16
-27 -18 -38 -9 -47 9 -9 16 -6 31 13 16 20 20 22 20 8 0 -10 11 -20 26 -24 20
-5 33 0 60 27 43 41 97 148 88 172 -9 25 -52 21 -91 -9 -18 -14 -33 -24 -33
-22 0 2 9 32 21 68 22 73 37 214 22 223 -5 3 -15 2 -22 -3z m45 -327 c-13 -27
-36 -59 -50 -72 l-25 -24 3 37 c2 26 14 48 37 72 49 50 65 44 35 -13z"/>
<path d="M6480 9825 c-7 -8 -16 -12 -21 -9 -5 3 -14 2 -19 -1 -17 -10 8 -45
27 -38 12 5 14 3 8 -8 -5 -8 6 1 23 20 31 32 34 51 8 51 -8 0 -19 -7 -26 -15z"/>
<path d="M14686 9818 c-3 -7 -7 -32 -10 -55 -9 -61 -56 -182 -75 -192 -9 -5
-34 -11 -56 -13 -27 -3 -40 -9 -40 -18 0 -11 11 -14 46 -13 l47 3 -9 -41 c-5
-23 -16 -48 -24 -56 -11 -10 -12 -19 -5 -33 25 -48 36 -36 59 63 l16 72 94 12
c51 6 98 16 103 21 16 16 -1 33 -25 27 -12 -3 -53 -9 -90 -14 -60 -7 -67 -6
-61 8 26 61 54 146 54 164 0 13 5 28 12 35 8 8 8 15 -2 27 -15 18 -29 19 -34
3z"/>
<path d="M14154 9759 c-12 -19 26 -39 75 -39 25 0 56 -3 69 -6 20 -6 22 -11
16 -43 -4 -20 -26 -74 -50 -121 -24 -47 -44 -93 -44 -102 0 -16 -11 -18 -94
-18 -59 0 -97 -4 -102 -11 -12 -20 14 -25 100 -22 l85 4 3 -33 c4 -44 32 -45
36 -1 3 28 7 32 43 37 21 3 57 9 80 12 41 6 62 30 40 44 -7 4 -11 11 -9 16 1
5 -4 10 -14 12 -9 2 -19 -5 -22 -16 -10 -30 -106 -45 -106 -17 0 8 20 52 44
98 24 46 48 99 55 118 l11 35 87 3 c94 3 103 5 103 26 0 19 -28 27 -50 13 -14
-9 -53 -9 -168 0 -82 6 -156 14 -165 18 -8 3 -18 0 -23 -7z"/>
<path d="M7571 9715 c-47 -43 -90 -122 -176 -330 -67 -161 -79 -204 -59 -212
13 -4 89 122 124 205 18 41 26 51 39 46 31 -14 60 -6 101 27 52 42 103 112
120 162 37 117 -59 183 -149 102z m107 -7 c16 -16 15 -71 -3 -114 -16 -38
-116 -144 -137 -144 -40 1 -41 15 -9 113 26 76 40 103 67 127 37 32 62 38 82
18z"/>
<path d="M3697 9708 c-2 -7 -1 -23 4 -35 15 -42 46 -21 35 23 -7 25 -31 33
-39 12z"/>
<path d="M7901 9665 c-29 -27 -60 -63 -68 -80 -9 -16 -23 -35 -31 -41 -14 -10
-14 -18 -1 -65 21 -79 43 -78 153 5 113 85 111 84 86 37 -11 -23 -18 -46 -15
-51 10 -17 33 -11 40 9 10 32 102 111 129 111 37 0 39 -13 12 -77 -34 -82 -36
-107 -9 -111 18 -3 22 2 21 25 -1 15 9 47 21 70 52 104 4 164 -91 114 -34 -19
-36 -19 -31 -2 8 32 -24 31 -64 -3 -90 -76 -186 -146 -200 -146 -31 0 -5 41
62 97 77 64 89 93 57 133 l-19 24 -52 -49z m33 -47 c-11 -11 -32 -29 -48 -41
-27 -19 -28 -19 -18 -1 18 32 76 87 80 74 2 -6 -4 -20 -14 -32z"/>
<path d="M11570 9656 c-71 -69 -127 -196 -86 -196 17 0 49 47 41 60 -10 16 37
86 79 119 33 27 42 29 87 24 54 -6 69 10 23 27 -57 22 -96 13 -144 -34z"/>
<path d="M11095 9656 c-20 -47 -91 -165 -118 -194 -25 -27 -37 -15 -37 39 0
68 -12 129 -26 129 -23 0 -26 -19 -14 -98 7 -42 14 -92 16 -110 11 -73 52 -44
141 98 25 41 52 82 59 90 18 21 22 72 6 77 -7 3 -19 -11 -27 -31z"/>
<path d="M6356 9650 c-3 -17 -24 -67 -46 -112 -23 -44 -39 -88 -38 -97 6 -28
31 -17 43 19 7 19 29 68 49 109 41 84 45 111 17 111 -13 0 -20 -9 -25 -30z"/>
<path d="M12875 9656 c-124 -58 -201 -199 -147 -266 24 -30 58 -29 147 4 93
35 115 47 115 63 0 18 -5 17 -90 -16 -113 -43 -136 -46 -150 -22 -14 27 2 84
35 125 19 24 25 27 44 17 17 -10 30 -8 68 9 53 23 93 56 93 76 0 14 -31 34
-52 34 -7 0 -35 -11 -63 -24z m65 -21 c0 -9 -82 -46 -93 -42 -7 2 6 13 28 25
38 20 65 27 65 17z"/>
<path d="M11227 9619 c-42 -35 -87 -105 -87 -137 0 -43 16 -39 147 40 l32 19
-10 -33 c-13 -48 -11 -94 6 -108 20 -16 55 -3 55 21 0 16 -5 19 -20 14 -25 -8
-25 -6 -1 80 26 92 16 106 -43 62 -17 -13 -53 -36 -79 -51 l-48 -28 15 30 c22
42 74 84 96 77 22 -7 33 7 24 29 -10 25 -46 19 -87 -15z"/>
<path d="M8822 9604 c-64 -51 -112 -169 -84 -210 11 -18 49 -34 77 -34 30 0
149 52 160 70 17 28 -14 29 -66 1 -75 -40 -102 -45 -128 -23 -30 25 -18 58 23
66 44 8 116 71 116 101 0 28 -24 55 -48 55 -9 0 -32 -12 -50 -26z m60 -29 c2
-15 -69 -68 -84 -63 -9 3 -1 17 24 42 35 35 58 43 60 21z"/>
<path d="M9105 9604 c-10 -11 -41 -57 -71 -104 -53 -84 -69 -140 -40 -140 8 0
53 41 101 92 123 131 130 135 99 52 -13 -36 -31 -79 -39 -95 -20 -37 -19 -68
1 -76 16 -6 37 15 28 29 -3 4 11 48 30 98 20 49 36 103 36 120 0 25 -4 30 -25
30 -17 0 -47 -23 -101 -77 -42 -43 -70 -67 -63 -53 8 14 16 27 19 30 3 3 18
25 33 49 19 28 25 47 19 53 -7 7 -16 4 -27 -8z"/>
<path d="M12038 9583 c-40 -42 -61 -84 -52 -108 11 -28 53 -15 112 36 41 36
62 37 62 5 0 -63 37 -103 68 -72 16 15 15 17 -7 23 -22 6 -23 9 -19 77 3 66 2
71 -17 68 -27 -5 -45 -4 -80 3 -26 5 -35 1 -67 -32z m52 -34 c-19 -16 -43 -34
-53 -40 -16 -9 -17 -8 -9 8 19 35 53 63 75 63 20 -1 19 -3 -13 -31z"/>
<path d="M6520 9524 c-66 -63 -80 -82 -78 -103 3 -28 34 -37 32 -9 -1 9 29 47
67 84 65 65 69 67 69 41 0 -15 -11 -54 -25 -87 -29 -69 -32 -108 -9 -117 18
-7 36 15 29 36 -3 7 7 48 21 91 28 83 25 132 -9 138 -9 2 -51 -30 -97 -74z"/>
<path d="M11772 9554 c-38 -56 -48 -99 -30 -121 9 -12 9 -15 1 -9 -7 4 -13 2
-13 -3 0 -6 9 -11 21 -11 15 0 20 6 19 23 -4 41 0 53 31 100 28 42 31 67 9 67
-4 0 -22 -21 -38 -46z"/>
<path d="M3823 9578 c-31 -15 -29 -41 7 -81 35 -41 37 -61 9 -102 l-20 -30 3
40 c2 29 -1 40 -11 40 -33 0 -36 -107 -4 -119 20 -8 26 -3 62 51 39 58 39 83
1 126 -36 41 -36 45 -7 49 27 4 29 32 2 35 -11 1 -30 -3 -42 -9z"/>
<path d="M3667 9518 c-45 -103 -62 -165 -48 -182 18 -22 42 -8 39 23 -4 35 29
130 55 158 16 19 18 25 7 38 -20 24 -28 18 -53 -37z"/>
<path d="M13193 9413 c-16 -6 -17 -39 -2 -48 14 -10 49 24 42 41 -5 14 -18 17
-40 7z"/>
<path d="M11644 9333 c-31 -6 -101 -93 -135 -169 l-30 -66 -42 4 c-33 2 -42 0
-45 -14 -3 -15 4 -18 38 -18 34 0 41 -3 36 -15 -15 -41 -28 -147 -18 -157 18
-18 29 0 36 59 12 104 10 102 74 100 44 -2 57 1 57 12 0 11 -14 16 -44 18 -24
2 -47 5 -49 8 -7 7 37 99 65 137 20 27 38 42 81 64 19 10 42 -4 42 -26 0 -26
27 -26 35 1 5 14 0 28 -16 45 -22 23 -38 26 -85 17z"/>
<path d="M2892 9238 c-16 -46 -37 -110 -46 -143 -10 -33 -33 -84 -53 -113 -43
-64 -128 -142 -154 -142 -28 0 -35 60 -15 115 19 48 53 76 106 85 44 7 48 34
5 38 -21 2 -45 -7 -77 -28 -54 -36 -78 -85 -78 -160 0 -118 90 -113 193 12
l32 38 1 -54 c0 -92 54 -139 117 -102 18 10 34 13 41 8 36 -29 144 -12 181 28
27 29 -1 35 -50 10 -38 -19 -95 -27 -108 -14 -3 4 11 27 32 53 68 81 86 136
55 162 -11 9 -20 10 -32 2 -24 -14 -67 -89 -87 -148 -19 -56 -38 -75 -72 -75
-34 0 -46 34 -40 111 4 46 16 90 37 136 33 70 82 242 74 255 -15 24 -35 0 -62
-74z m144 -288 c-28 -43 -44 -54 -25 -17 23 42 42 68 47 63 3 -3 -7 -24 -22
-46z"/>
<path d="M9491 9263 c-7 -25 -33 -98 -58 -162 -60 -153 -75 -205 -71 -247 5
-54 21 -41 35 28 7 34 31 109 53 165 58 145 91 244 84 254 -13 22 -33 5 -43
-38z"/>
<path d="M6577 9251 c-25 -17 -58 -49 -74 -72 -31 -48 -43 -37 -17 16 15 32
15 38 2 51 -20 20 -30 6 -52 -76 -9 -36 -42 -116 -72 -179 -35 -72 -52 -117
-46 -123 14 -14 45 23 87 107 49 95 163 237 208 258 45 22 59 21 88 -2 l23
-18 -18 -48 c-10 -26 -38 -70 -63 -97 -51 -58 -78 -109 -70 -132 9 -24 24 -20
43 12 48 77 88 131 101 136 10 4 20 -8 34 -39 11 -24 30 -52 44 -63 16 -12 22
-26 19 -38 -8 -29 31 -72 72 -80 73 -14 261 31 251 60 -5 12 -7 12 -97 -9 -79
-18 -162 -19 -178 -3 -26 26 -12 45 54 78 75 37 104 78 80 115 -23 34 -40 28
-105 -40 -34 -36 -67 -63 -72 -59 -5 3 -20 27 -34 54 -14 27 -32 53 -40 58
-13 7 -14 14 -5 36 18 47 12 83 -16 105 -38 30 -90 27 -147 -8z m393 -171 c0
-11 -38 -48 -65 -62 -17 -9 -16 -6 5 18 23 26 52 53 58 54 1 0 2 -4 2 -10z"/>
<path d="M13025 9267 c-74 -34 -68 -63 34 -162 71 -68 85 -97 55 -109 -71 -27
-197 46 -179 104 7 23 -4 30 -32 19 -32 -12 -29 -47 6 -96 39 -54 90 -77 157
-70 66 7 104 31 104 65 0 18 -22 47 -80 106 -44 44 -80 83 -80 88 0 13 38 28
73 28 40 0 60 -19 61 -58 2 -42 30 -35 34 8 2 27 -3 41 -22 59 -29 28 -90 36
-131 18z"/>
<path d="M3304 9245 c-4 -8 -1 -21 5 -29 8 -10 6 -37 -7 -107 -16 -81 -21 -94
-40 -97 -11 -2 -31 2 -43 8 -15 8 -24 9 -32 1 -16 -16 9 -39 54 -46 39 -7 41
-8 35 -39 -16 -89 -18 -116 -9 -116 21 0 35 31 40 89 l6 59 69 10 c66 10 103
26 93 41 -2 4 -36 3 -75 -2 -39 -6 -73 -7 -77 -4 -3 4 2 35 11 71 9 36 16 81
16 101 0 58 -31 99 -46 60z"/>
<path d="M4515 9180 c-9 -28 0 -37 35 -38 34 -1 41 22 13 44 -25 19 -41 17
-48 -6z"/>
<path d="M5255 9174 c-79 -43 -98 -99 -49 -145 38 -35 58 -77 44 -94 -14 -17
-48 -8 -55 16 -8 25 -35 24 -35 -1 0 -27 39 -60 70 -60 59 0 77 63 35 121 -13
19 -32 45 -42 58 -17 23 -16 24 10 47 16 13 40 27 55 30 47 10 54 14 50 27 -7
18 -49 19 -83 1z"/>
<path d="M9185 9166 c-74 -34 -145 -124 -145 -182 0 -58 39 -52 134 21 25 19
48 35 51 35 3 0 -4 -18 -15 -40 -37 -72 -17 -126 36 -101 27 12 28 37 0 35
-23 -2 -20 15 14 87 48 102 14 111 -90 24 -45 -38 -100 -70 -100 -59 0 11 42
77 64 102 27 31 91 63 109 56 20 -7 31 14 17 31 -16 19 -16 19 -75 -9z"/>
<path d="M9742 9178 c-7 -7 -12 -20 -12 -29 0 -9 -9 -46 -20 -82 -17 -53 -29
-73 -67 -106 -25 -23 -50 -41 -55 -41 -6 0 -8 37 -7 88 3 70 1 87 -11 87 -32
0 -38 -171 -8 -201 21 -21 57 -5 117 53 51 49 74 103 88 201 6 42 -2 53 -25
30z"/>
<path d="M8957 9068 c-31 -62 -65 -124 -75 -137 l-19 -24 -8 64 c-9 88 -37
174 -55 174 -20 0 -21 11 36 -262 2 -13 11 -23 19 -23 19 0 91 98 121 166 13
30 35 72 49 94 25 40 26 60 1 60 -6 0 -37 -51 -69 -112z"/>
<path d="M9954 9148 c-64 -50 -106 -112 -111 -162 -5 -39 -2 -46 20 -60 20
-14 32 -15 71 -6 58 13 134 51 160 79 17 19 17 21 2 27 -9 4 -24 0 -34 -9 -27
-25 -124 -67 -154 -67 -51 0 -49 49 4 71 72 29 128 102 108 139 -14 26 -18 25
-66 -12z m6 -53 c-13 -14 -28 -25 -34 -25 -11 1 40 50 51 50 4 0 -4 -11 -17
-25z m130 -85 c0 -5 -2 -10 -4 -10 -3 0 -8 5 -11 10 -3 6 -1 10 4 10 6 0 11
-4 11 -10z"/>
<path d="M3908 9120 c-36 -22 -133 -175 -163 -259 -11 -32 -11 -42 -1 -57 12
-16 16 -14 41 27 15 24 36 51 48 60 22 18 15 44 -10 35 -21 -9 33 86 78 135
36 40 38 40 62 24 32 -20 47 -2 21 26 -19 21 -49 24 -76 9z"/>
<path d="M4943 9114 c-48 -24 -109 -80 -123 -113 -7 -18 -21 -31 -33 -33 -30
-4 -29 -33 1 -32 12 0 22 -5 22 -13 0 -30 39 -53 90 -53 29 0 50 5 50 11 0 5
4 8 9 5 12 -8 34 21 26 34 -5 8 -14 6 -31 -4 -30 -20 -78 -20 -98 0 -24 23
-21 28 36 55 103 47 143 104 100 142 -16 14 -20 14 -49 1z m16 -60 c-12 -15
-81 -54 -95 -54 -12 0 20 33 61 62 39 29 60 23 34 -8z"/>
<path d="M3565 9077 c-67 -70 -103 -165 -77 -203 15 -23 49 -33 78 -25 53 16
134 62 134 77 0 19 -4 18 -68 -12 -64 -30 -100 -35 -114 -13 -13 20 8 68 37
83 111 58 143 94 113 124 -24 24 -60 13 -103 -31z m60 -13 c-11 -9 -29 -20
-40 -26 -17 -9 -16 -6 4 16 14 14 32 26 40 26 13 -1 12 -4 -4 -16z"/>
<path d="M4216 9013 c-37 -38 -63 -58 -57 -46 17 33 14 83 -5 90 -21 8 -67
-17 -120 -65 -47 -41 -68 -77 -60 -98 7 -19 36 -18 36 1 0 26 27 60 76 94 25
18 47 32 49 30 2 -2 -7 -29 -20 -59 -27 -61 -32 -100 -13 -100 7 0 53 39 101
88 l89 87 -8 -40 c-5 -22 -8 -65 -9 -95 0 -46 3 -55 19 -58 16 -3 18 1 13 24
-3 16 1 61 8 100 15 78 11 114 -14 114 -9 0 -47 -30 -85 -67z"/>
<path d="M11260 9064 c-84 -36 -143 -112 -120 -154 19 -36 100 -17 134 31 13
19 13 27 1 55 -11 27 -11 33 0 38 7 2 15 -4 18 -16 9 -32 32 -15 32 23 0 40
-15 45 -65 23z m-20 -68 c0 -2 3 -11 6 -19 7 -19 -47 -59 -65 -47 -11 6 -9 14
8 39 18 26 51 43 51 27z"/>
<path d="M4625 9061 c-23 -10 -115 -105 -115 -120 0 -29 27 -17 72 33 35 40
57 56 74 56 22 0 24 -3 19 -22 -4 -13 -20 -46 -36 -74 -35 -62 -39 -114 -9
-114 16 0 20 7 20 30 0 17 14 57 30 90 32 63 37 99 18 118 -14 14 -43 15 -73
3z"/>
<path d="M4421 8977 c-11 -24 -21 -47 -21 -52 0 -5 -6 -16 -14 -24 -16 -18
-10 -71 8 -71 10 0 63 131 69 169 5 33 -22 18 -42 -22z"/>
<path d="M12850 8802 c0 -27 28 -31 245 -33 159 -1 180 0 183 15 4 19 4 19
-183 20 -77 1 -164 5 -192 10 -49 8 -53 7 -53 -12z"/>
<path d="M13166 8643 c-1 -1 -73 -4 -160 -7 -148 -4 -186 -12 -173 -33 4 -7
147 -8 382 -2 46 2 75 16 75 37 0 8 -116 12 -124 5z"/>
<path d="M2289 8156 c-31 -12 -71 -33 -90 -46 -97 -68 -217 -198 -259 -281
-72 -141 -68 -376 12 -581 33 -88 98 -162 171 -196 55 -26 213 -38 279 -22 53
14 98 54 81 71 -8 8 -20 5 -42 -12 -23 -17 -48 -24 -93 -26 -55 -3 -60 -2 -38
9 223 107 262 133 338 222 78 92 102 194 90 386 -12 205 -46 298 -143 396 -98
100 -196 126 -306 80z m165 -42 c27 -9 70 -37 101 -65 92 -85 124 -176 132
-385 8 -208 -8 -265 -106 -367 -63 -66 -123 -104 -263 -165 -96 -42 -165 -54
-172 -29 -3 6 -7 46 -9 87 -5 74 -4 77 29 123 l35 48 26 -21 c30 -24 91 -27
131 -6 34 18 102 90 130 137 35 58 24 137 -25 191 l-25 26 71 73 c64 65 82 99
52 99 -5 0 -40 -33 -77 -74 l-67 -74 -63 -4 c-67 -4 -95 -20 -99 -55 -1 -10
-15 -45 -30 -77 -16 -33 -31 -86 -34 -120 -5 -41 -14 -71 -31 -93 -28 -39 -33
-38 -20 7 6 22 6 38 0 44 -18 18 -29 -6 -44 -94 -8 -47 -21 -100 -29 -118 -13
-31 -14 -32 -29 -15 -47 52 -100 255 -101 383 0 161 51 279 171 397 75 74 138
119 201 144 58 23 85 23 145 3z m-81 -461 c-9 -16 -48 -68 -86 -118 -60 -77
-68 -85 -62 -56 20 93 96 201 141 201 24 0 24 0 7 -27z m69 -20 c9 -10 22 -37
28 -60 12 -38 11 -45 -13 -85 -32 -54 -107 -125 -142 -134 -30 -7 -73 9 -81
31 -5 13 172 264 187 265 3 0 13 -8 21 -17z m-336 -468 c-4 -14 -11 -25 -16
-25 -5 0 -5 13 2 31 12 35 23 31 14 -6z"/>
<path d="M2072 7738 c-7 -7 -12 -37 -12 -68 0 -31 -13 -110 -30 -175 -19 -77
-26 -123 -20 -129 6 -6 13 -6 19 0 11 12 61 211 61 243 0 17 4 22 16 17 13 -5
15 -1 10 22 -3 15 -8 44 -12 65 -7 39 -13 44 -32 25z"/>
<path d="M2534 7335 c-15 -10 -16 -16 -7 -26 14 -15 43 -5 43 15 0 22 -15 27
-36 11z"/>
<path d="M4262 7947 c-8 -9 -10 -29 -6 -54 6 -42 -36 -214 -76 -308 -54 -126
-74 -216 -47 -215 6 1 29 25 50 54 21 29 53 68 72 86 31 30 35 32 35 13 0 -11
-7 -40 -15 -63 -8 -23 -15 -55 -15 -70 0 -30 23 -56 40 -45 14 8 13 32 -2 37
-8 3 -5 23 10 68 25 73 27 101 10 118 -22 22 -45 13 -92 -38 -25 -27 -46 -47
-46 -45 0 2 15 43 34 92 37 98 86 281 86 323 0 14 -6 34 -13 44 -11 16 -15 16
-25 3z"/>
<path d="M13185 7915 c-8 -19 -33 -108 -55 -197 -22 -90 -52 -194 -66 -233
-15 -38 -29 -80 -31 -92 -9 -40 20 -26 60 27 20 27 60 68 88 90 84 66 105 49
68 -54 -18 -49 -21 -68 -12 -77 14 -14 33 -3 33 19 0 9 9 41 21 71 17 46 18
59 8 83 -24 58 -70 62 -129 13 -24 -20 -44 -34 -46 -32 -2 2 1 19 6 38 6 19
22 86 36 149 14 63 35 134 46 158 20 42 19 72 -2 72 -6 0 -18 -16 -25 -35z"/>
<path d="M14926 7915 c-19 -20 -41 -53 -49 -73 -34 -81 -68 -173 -73 -202 -4
-16 -13 -30 -20 -30 -17 0 -18 12 -2 28 9 9 9 15 0 24 -9 9 -16 7 -32 -7 -32
-29 -22 -58 28 -81 2 -1 -4 -35 -12 -75 -10 -51 -12 -78 -5 -91 15 -27 35 -16
31 17 -2 16 4 57 14 92 l17 63 51 1 c64 1 98 7 110 19 20 20 -10 28 -78 19
-38 -5 -71 -8 -72 -6 -6 6 48 150 65 175 10 15 29 44 42 65 24 38 56 54 84 43
24 -9 18 -33 -15 -63 -31 -27 -39 -53 -17 -53 18 0 67 48 78 77 7 19 5 33 -9
57 -15 26 -25 32 -61 34 -38 3 -46 -1 -75 -33z"/>
<path d="M11897 7933 c-3 -5 -8 -24 -11 -43 -4 -19 -28 -106 -53 -193 -49
-170 -47 -167 -123 -171 -38 -2 -49 -15 -27 -31 13 -9 27 -11 50 -4 18 5 33 9
35 9 3 0 0 -15 -28 -129 -15 -65 -17 -86 -8 -92 7 -4 15 -6 18 -4 4 2 17 51
30 109 12 57 26 109 29 115 4 6 58 13 120 17 108 7 113 6 108 -12 -3 -10 -8
-33 -12 -51 -3 -17 -20 -50 -36 -72 -34 -48 -37 -71 -9 -71 11 0 20 5 20 10 0
6 12 29 27 53 26 41 57 162 46 181 -6 9 -160 2 -221 -10 -31 -6 -32 -6 -23 18
26 70 102 352 97 364 -6 15 -22 19 -29 7z"/>
<path d="M11266 7913 c-2 -10 -9 -49 -15 -88 -35 -232 -46 -288 -77 -410 -39
-155 -39 -155 -20 -155 8 0 19 15 25 33 28 85 73 297 92 426 11 79 25 155 30
168 5 14 7 29 3 34 -9 15 -32 10 -38 -8z"/>
<path d="M4855 7890 c-3 -6 -5 -20 -4 -33 2 -23 -10 -74 -42 -173 l-20 -61
-60 -18 c-66 -20 -76 -29 -60 -49 10 -11 18 -10 48 5 47 24 66 24 59 2 -2 -10
-7 -38 -11 -63 -10 -67 -27 -120 -36 -114 -5 3 -9 1 -9 -4 0 -10 23 -22 40
-22 11 0 28 59 41 143 13 78 22 94 59 101 16 3 44 9 61 12 21 4 29 11 26 22
-2 10 -7 16 -13 16 -5 -1 -30 -5 -56 -8 l-46 -7 23 74 c13 41 24 92 23 113 0
21 2 45 4 53 4 17 -18 26 -27 11z"/>
<path d="M9756 7868 c-3 -13 -12 -59 -20 -103 -19 -98 -53 -224 -66 -247 -15
-27 -32 -150 -25 -188 14 -71 45 -76 45 -7 0 64 25 213 53 318 49 186 56 249
28 249 -6 0 -13 -10 -15 -22z"/>
<path d="M15626 7843 c8 -63 -28 -153 -107 -274 -32 -49 -68 -107 -79 -130
-21 -40 -21 -69 -1 -69 5 0 49 66 98 148 79 132 162 242 184 242 5 0 13 -9 19
-20 15 -29 -4 -118 -41 -195 -52 -107 -31 -129 40 -40 24 30 48 55 52 55 4 0
16 -16 25 -36 9 -20 23 -38 31 -41 8 -3 23 -23 34 -44 33 -66 107 -87 194 -56
41 14 56 40 35 61 -8 8 -14 7 -21 -6 -15 -27 -122 -25 -150 3 -27 27 -21 40
32 65 64 31 85 58 73 92 -9 24 -15 27 -52 26 -49 -1 -86 -29 -109 -83 -13 -31
-15 -32 -28 -15 -8 11 -15 25 -15 32 0 6 -9 21 -20 32 -17 17 -24 18 -42 9
-19 -10 -20 -9 -14 7 12 31 19 110 12 137 -7 30 -32 57 -51 57 -7 0 -27 -11
-43 -25 l-29 -24 10 39 c13 46 1 93 -25 98 -15 3 -16 -3 -12 -45z m375 -277
c-7 -8 -27 -19 -44 -25 l-32 -11 28 25 c31 28 69 36 48 11z"/>
<path d="M6486 7823 c-9 -27 -25 -92 -36 -146 -11 -53 -26 -110 -34 -125 -7
-15 -33 -74 -56 -130 -45 -110 -55 -167 -31 -167 10 0 35 53 73 150 82 210 95
238 142 291 34 38 46 45 64 40 52 -17 40 -107 -33 -253 -29 -60 -51 -111 -48
-115 10 -17 30 -6 47 25 11 17 30 47 43 64 l24 33 44 -46 c32 -34 45 -56 47
-82 2 -24 11 -41 29 -54 23 -17 32 -18 95 -8 105 18 161 47 135 73 -7 7 -15 6
-28 -5 -17 -16 -112 -38 -159 -38 -26 0 -47 30 -38 54 3 9 17 16 29 16 51 0
120 44 146 93 12 21 -5 57 -27 57 -26 0 -92 -39 -130 -77 -43 -43 -52 -40
-102 31 -21 30 -31 54 -27 64 3 10 11 39 16 66 13 68 -2 109 -46 130 -41 20
-58 14 -104 -39 -17 -20 -31 -32 -31 -27 0 20 32 127 41 138 6 7 8 18 4 24
-14 23 -34 7 -49 -37z m403 -339 c-21 -23 -75 -54 -94 -54 -14 0 11 24 53 51
57 36 73 37 41 3z"/>
<path d="M13564 7806 c-9 -23 0 -51 16 -51 10 0 15 10 15 29 0 32 -21 47 -31
22z"/>
<path d="M3788 7771 c-21 -11 -66 -41 -100 -68 -35 -27 -75 -57 -90 -66 -28
-18 -36 -41 -18 -52 6 -3 43 20 83 52 90 73 126 99 154 107 19 6 16 -7 -38
-140 -69 -171 -84 -226 -69 -254 15 -28 25 -25 75 21 l45 42 0 -50 c0 -122 97
-88 177 62 27 51 32 72 34 142 2 56 -1 86 -10 97 -24 28 -31 6 -29 -82 2 -75
-1 -94 -22 -136 -31 -61 -94 -131 -111 -121 -8 5 -9 28 -5 75 5 44 3 70 -3 75
-6 3 -36 -18 -67 -47 l-57 -53 8 35 c4 19 34 100 67 180 69 168 74 194 38 197
-14 2 -42 -6 -62 -16z"/>
<path d="M12157 7743 c-7 -38 -2 -53 14 -53 14 0 30 50 24 71 -10 32 -32 21
-38 -18z"/>
<path d="M5520 7721 c0 -24 18 -37 31 -24 13 13 1 43 -17 43 -8 0 -14 -9 -14
-19z"/>
<path d="M12884 7645 c-28 -14 -59 -34 -69 -45 -17 -19 -16 -21 39 -72 32 -29
62 -61 68 -71 13 -25 -7 -47 -42 -47 -42 0 -60 10 -71 38 -9 24 -11 24 -26 9
-22 -22 -7 -68 27 -83 58 -27 78 -26 115 7 54 47 49 79 -21 146 -53 51 -55 55
-38 68 11 8 38 21 61 29 l42 14 3 -26 c2 -16 9 -27 18 -27 17 0 24 27 16 61
-8 32 -53 32 -122 -1z"/>
<path d="M13702 7630 c-66 -51 -114 -115 -145 -192 -63 -154 -80 -196 -94
-243 -47 -154 -53 -177 -48 -186 12 -19 26 -8 44 34 10 23 36 80 58 127 22 47
52 120 68 162 25 66 32 75 46 67 45 -24 123 1 182 59 73 70 86 128 41 181 -38
46 -87 43 -152 -9z m138 -30 c14 -26 -8 -79 -44 -108 -74 -58 -175 -64 -168
-11 4 30 49 87 92 117 43 29 105 30 120 2z"/>
<path d="M8038 7601 c-67 -74 -100 -140 -106 -209 -5 -52 -5 -53 -65 -88 -33
-19 -62 -33 -64 -30 -3 2 0 28 6 56 6 28 11 78 11 110 0 52 -3 60 -19 60 -10
0 -36 -14 -57 -31 -22 -17 -52 -37 -67 -45 l-28 -15 20 39 c20 40 73 92 93 92
6 0 17 -8 24 -17 10 -14 15 -15 25 -6 17 17 -14 63 -43 63 -69 0 -188 -175
-133 -196 25 -10 59 3 106 41 24 19 46 30 47 25 2 -6 -4 -56 -13 -113 -13 -77
-24 -109 -42 -131 -49 -58 -77 -140 -85 -250 -7 -98 55 -14 108 144 l31 95 77
49 c72 46 81 49 149 51 59 1 83 7 134 33 34 18 78 46 97 62 l35 31 -10 -33
c-21 -67 -22 -78 -5 -78 9 0 16 4 16 10 0 24 144 159 156 147 3 -3 -4 -40 -16
-82 -23 -82 -21 -109 9 -146 15 -18 22 -21 31 -12 9 8 9 19 0 45 -11 30 -10
45 10 112 29 95 22 129 -26 134 -24 2 -43 -7 -82 -38 l-52 -40 0 35 c0 36 -29
63 -38 36 -14 -42 -74 -99 -141 -133 -100 -52 -127 -51 -64 3 95 82 130 168
99 242 -12 31 -20 37 -45 37 -23 0 -40 -12 -83 -59z m88 -45 c-9 -53 -45 -105
-101 -145 -42 -30 -45 -31 -45 -11 0 50 118 219 142 204 6 -4 7 -23 4 -48z"/>
<path d="M10567 7634 c-21 -20 -27 -23 -27 -10 0 36 -30 12 -59 -47 -65 -133
-91 -252 -54 -245 12 2 20 17 25 45 4 29 25 67 61 115 79 106 111 133 155 133
26 0 37 4 37 15 0 11 -14 16 -56 18 -49 3 -59 0 -82 -24z"/>
<path d="M4463 7551 c-83 -65 -123 -140 -93 -176 20 -24 54 -18 109 21 l52 35
-15 -30 c-30 -56 -10 -106 30 -76 15 11 17 17 8 32 -9 14 -7 28 13 66 23 47
23 67 0 67 -7 0 -45 -23 -85 -50 -41 -28 -78 -48 -82 -45 -28 17 65 132 126
155 27 11 28 33 2 38 -8 2 -38 -15 -65 -37z"/>
<path d="M8679 7548 c-19 -23 -41 -52 -50 -65 -11 -16 -18 -20 -26 -12 -6 6
-16 8 -22 5 -12 -8 -15 -59 -4 -70 4 -3 6 -29 4 -56 -4 -69 19 -90 99 -90 58
0 124 25 142 54 16 24 -11 25 -53 1 -24 -13 -54 -25 -66 -25 -76 0 -102 65
-38 96 49 23 77 73 77 134 -1 83 -13 89 -63 28z m25 -65 c-7 -24 -41 -69 -48
-62 -5 5 40 79 48 79 2 0 2 -8 0 -17z"/>
<path d="M8976 7551 c-20 -16 -45 -40 -55 -53 -28 -35 -52 -97 -40 -104 18
-11 36 4 42 35 9 46 81 111 123 111 39 0 52 15 25 29 -32 18 -56 13 -95 -18z"/>
<path d="M13453 7568 c-6 -7 -13 -22 -16 -33 -3 -11 -17 -47 -31 -80 -31 -72
-34 -108 -9 -103 10 2 20 16 23 33 4 17 21 63 39 103 29 67 33 92 12 92 -5 0
-13 -6 -18 -12z"/>
<path d="M10865 7555 c-42 -22 -91 -72 -106 -106 -12 -30 -23 -36 -34 -18 -4
6 1 16 11 24 14 10 16 17 8 25 -15 15 -50 -2 -59 -30 -8 -24 11 -60 30 -60 8
0 18 -12 21 -27 12 -50 42 -73 95 -73 107 0 199 37 199 81 0 22 -13 25 -29 6
-13 -16 -134 -40 -176 -36 -24 3 -31 9 -32 29 -3 21 5 29 48 50 66 32 101 73
97 114 -4 37 -28 44 -73 21z m22 -62 c-9 -10 -31 -26 -49 -36 l-33 -19 37 36
c38 37 75 52 45 19z"/>
<path d="M11381 7541 c-52 -34 -70 -63 -71 -113 0 -75 76 -88 159 -28 47 35
61 37 61 11 0 -40 61 -56 68 -18 2 12 -3 17 -17 17 -12 0 -21 6 -21 13 0 6 -5
29 -11 50 -11 41 -34 49 -45 15 -14 -46 -113 -104 -146 -87 -36 19 -11 82 44
110 46 24 46 24 50 -3 2 -13 10 -23 18 -23 11 0 15 11 15 40 0 37 -2 40 -30
42 -19 1 -46 -8 -74 -26z"/>
<path d="M12525 7558 c-61 -34 -133 -132 -135 -180 0 -36 31 -17 58 34 47 90
115 144 137 109 10 -17 -16 -101 -31 -101 -20 0 -17 -24 5 -44 14 -13 20 -14
28 -4 12 15 23 57 30 116 8 68 -36 102 -92 70z"/>
<path d="M9219 7513 c-63 -68 -83 -111 -70 -145 7 -20 18 -28 34 -28 25 0 105
47 151 89 16 14 26 21 23 15 -4 -7 -4 -33 -1 -58 6 -42 9 -46 35 -46 33 0 36
6 14 30 -11 13 -13 24 -6 46 36 114 16 132 -66 60 -80 -70 -117 -96 -137 -96
-32 0 -13 43 47 108 34 36 54 40 72 15 12 -16 35 -11 35 8 0 18 -40 49 -64 49
-15 0 -39 -17 -67 -47z"/>
<path d="M14500 7536 c-5 -14 -19 -30 -30 -36 -22 -12 -50 -66 -50 -95 0 -24
38 -55 68 -55 87 0 172 58 172 117 0 53 -45 93 -104 93 -40 0 -48 -3 -56 -24z
m75 -36 c4 -6 15 -8 25 -5 13 4 20 0 25 -15 13 -41 -55 -90 -125 -90 -33 0
-40 3 -40 19 0 33 11 51 49 76 39 27 56 31 66 15z"/>
<path d="M12271 7536 c-8 -10 -9 -21 -3 -33 5 -10 12 -39 16 -64 8 -55 -9 -79
-55 -79 -49 0 -49 28 0 71 24 21 40 43 36 49 -10 17 -23 12 -65 -27 -35 -31
-41 -41 -38 -72 2 -28 9 -39 32 -50 35 -17 100 -1 116 29 12 23 13 82 1 134
-12 48 -24 61 -40 42z"/>
<path d="M5421 7450 c-24 -92 -23 -120 4 -120 10 0 15 9 15 28 0 15 9 58 20
96 11 38 17 73 14 77 -15 25 -32 0 -53 -81z"/>
<path d="M5583 7520 c-53 -24 -55 -44 -8 -90 37 -36 42 -57 23 -110 -11 -32
-12 -33 -20 -11 -12 34 -34 11 -43 -46 -10 -66 8 -78 47 -33 44 51 61 90 62
137 1 35 -5 48 -33 77 -32 33 -32 34 -13 45 12 6 32 11 46 11 29 0 44 19 25
31 -21 13 -39 11 -86 -11z"/>
<path d="M16934 7500 c-40 -12 -56 -32 -52 -62 4 -30 32 -30 36 -1 4 28 33 37
127 37 86 1 129 -17 133 -56 3 -25 -6 -34 -95 -91 -54 -34 -111 -69 -126 -77
-48 -24 -125 -114 -133 -154 -7 -39 0 -59 36 -106 15 -19 22 -22 31 -13 9 9 8
18 -5 37 -33 50 -16 94 66 172 29 28 99 81 155 117 77 50 104 73 109 93 9 35
-12 74 -51 94 -35 17 -185 24 -231 10z"/>
<path d="M12377 7303 c-4 -3 -7 -20 -8 -37 0 -17 -15 -76 -33 -131 -35 -112
-30 -108 -132 -94 -42 6 -61 5 -66 -4 -15 -23 -1 -29 71 -33 41 -2 75 -5 76
-6 7 -7 -44 -141 -56 -149 -10 -6 -10 -13 -1 -34 7 -15 17 -25 23 -23 6 2 22
41 35 87 34 117 36 119 91 123 30 2 50 9 57 20 15 24 7 27 -44 18 -25 -5 -46
-7 -48 -6 -1 2 11 43 27 92 29 87 34 116 32 162 -1 22 -11 28 -24 15z"/>
<path d="M15834 7283 c-18 -57 -74 -194 -120 -296 -59 -129 -65 -157 -34 -157
13 0 20 7 20 20 0 12 20 64 44 118 70 157 126 296 126 315 0 9 -7 17 -15 17
-9 0 -18 -8 -21 -17z"/>
<path d="M3189 7263 c-7 -42 -2 -106 8 -110 9 -4 13 -30 13 -87 0 -72 -4 -91
-30 -142 -52 -104 -151 -187 -184 -154 -16 16 -9 95 12 144 21 45 103 119 110
98 2 -7 8 -10 13 -7 5 4 6 0 3 -8 -7 -19 23 -44 37 -30 14 14 -35 93 -57 93
-25 0 -103 -69 -130 -115 -33 -56 -43 -154 -20 -190 12 -18 25 -25 47 -25 65
0 136 64 204 182 29 52 30 55 28 185 0 72 -4 141 -8 152 -6 20 -43 30 -46 14z"/>
<path d="M7516 7238 c-2 -7 -9 -53 -16 -103 -19 -152 -32 -184 -97 -248 -58
-58 -58 -58 -61 -30 -7 50 15 100 48 112 21 7 28 15 24 25 -8 20 -17 20 -53 1
-37 -18 -54 -63 -55 -139 -1 -55 1 -61 20 -64 27 -4 137 96 164 148 21 42 65
272 56 295 -7 18 -25 20 -30 3z"/>
<path d="M9823 7168 c-22 -46 -48 -100 -58 -120 -17 -38 -138 -139 -183 -153
-35 -10 -38 19 -8 65 30 46 117 100 161 100 l30 1 -23 19 c-18 15 -28 17 -48
9 -95 -35 -174 -115 -174 -175 0 -71 70 -71 161 1 l59 46 0 -39 c0 -124 62
-143 177 -55 36 27 43 30 43 15 0 -10 10 -29 22 -41 18 -20 28 -23 69 -18 58
7 109 32 109 53 0 12 -5 14 -17 9 -10 -4 -40 -14 -68 -22 -48 -13 -51 -12 -68
8 -23 29 -18 41 24 52 42 11 95 60 108 101 13 41 0 100 -23 104 -23 5 -95 -73
-127 -138 -13 -27 -29 -50 -35 -50 -6 0 -20 -11 -32 -25 -12 -13 -43 -36 -71
-49 -44 -23 -50 -24 -62 -10 -29 36 -15 114 45 244 58 127 65 150 43 150 -8 0
-32 -37 -54 -82z m287 -108 c0 -35 -53 -100 -81 -100 -19 0 -19 1 -2 28 23 36
74 102 79 102 2 0 4 -13 4 -30z"/>
<path d="M9235 7208 c4 -18 11 -37 15 -42 14 -14 30 4 26 29 -6 34 -14 45 -32
45 -12 0 -14 -7 -9 -32z"/>
<path d="M15437 7203 c-3 -10 -8 -36 -12 -58 -3 -22 -36 -100 -72 -173 -50
-103 -62 -136 -53 -145 9 -9 15 -7 25 7 11 15 17 16 29 7 17 -14 84 -1 124 25
87 57 154 137 137 165 -10 16 -74 21 -111 9 -20 -7 -54 -29 -76 -48 l-40 -36
15 34 c8 19 25 56 36 83 30 64 40 147 18 147 -9 0 -18 -8 -20 -17z m143 -199
c0 -14 -97 -95 -136 -114 -37 -19 -74 -19 -74 -1 0 9 95 91 124 108 22 13 86
18 86 7z"/>
<path d="M11494 7193 c-3 -10 -16 -40 -29 -68 -33 -72 -38 -94 -25 -110 13
-16 -6 -50 -53 -93 l-24 -23 -13 30 c-17 43 -31 44 -87 6 -89 -60 -118 -109
-93 -156 44 -80 293 120 336 269 9 32 21 62 26 69 16 20 5 87 -15 91 -10 2
-19 -4 -23 -15z m-166 -293 c7 -12 10 -25 7 -30 -9 -15 -87 -66 -112 -74 -19
-6 -23 -4 -23 16 0 24 45 74 85 96 27 15 28 15 43 -8z"/>
<path d="M4831 7177 c-5 -13 -19 -56 -31 -97 -19 -63 -31 -83 -81 -135 -55
-58 -122 -105 -133 -95 -12 13 10 65 44 102 33 38 39 41 54 29 24 -20 42 -1
27 28 -19 34 -54 26 -100 -24 -46 -50 -61 -81 -61 -125 0 -66 66 -58 151 18
l46 41 -5 -55 c-5 -59 7 -84 41 -84 24 0 143 75 151 95 11 29 -14 24 -73 -16
-104 -69 -109 -50 -41 161 51 155 53 167 35 174 -10 4 -19 -2 -24 -17z"/>
<path d="M5739 7188 c0 -2 -2 -28 -3 -58 -1 -30 -12 -76 -23 -101 l-21 -46
-62 9 c-44 7 -66 6 -74 -2 -15 -15 6 -27 67 -35 26 -4 46 -10 44 -14 -21 -39
-57 -125 -57 -136 0 -7 -4 -17 -10 -20 -12 -7 -13 -45 -2 -45 13 0 42 35 42
50 0 7 16 46 36 85 l35 72 67 14 c62 13 67 16 70 42 2 19 -1 27 -12 27 -9 0
-16 -6 -16 -14 0 -12 -68 -31 -77 -22 -2 1 4 23 13 47 16 45 21 120 9 139 -5
9 -24 14 -26 8z"/>
<path d="M14910 7156 c0 -60 35 -61 42 -1 2 25 -1 31 -19 33 -20 3 -23 -1 -23
-32z"/>
<path d="M16347 7130 c-83 -26 -109 -45 -105 -78 2 -22 16 -34 77 -67 41 -22
76 -46 79 -52 2 -7 -9 -18 -24 -23 -22 -9 -38 -7 -81 11 -29 12 -53 28 -53 35
0 8 -7 14 -15 14 -23 0 -19 -53 6 -76 15 -14 40 -20 93 -22 69 -4 74 -3 94 23
35 44 16 73 -80 121 -37 19 -68 37 -68 40 0 8 81 42 126 52 26 6 48 6 59 0 24
-14 43 6 25 27 -16 20 -61 18 -133 -5z"/>
<path d="M10409 7122 c-53 -35 -85 -80 -137 -188 -50 -105 -102 -263 -102
-311 0 -54 29 -17 70 87 30 77 48 110 59 110 47 0 193 118 228 184 20 38 10
89 -24 116 -31 25 -60 25 -94 2z m79 -34 c25 -25 13 -71 -31 -119 -50 -54
-124 -109 -145 -109 -19 0 -10 36 29 117 50 104 109 149 147 111z"/>
<path d="M10645 7091 c-59 -37 -128 -128 -145 -192 -13 -48 8 -96 45 -105 67
-17 261 74 229 106 -6 6 -23 1 -45 -14 -42 -29 -119 -56 -159 -56 -45 0 -51
39 -15 107 29 55 104 133 129 133 17 0 36 -30 36 -57 0 -24 -65 -89 -74 -74
-11 17 -37 0 -34 -23 2 -13 12 -22 26 -24 30 -4 122 84 122 117 0 44 -44 101
-77 101 -4 0 -21 -8 -38 -19z"/>
<path d="M14651 7062 c-51 -54 -89 -123 -98 -177 -4 -27 -2 -35 10 -35 19 0
72 91 58 100 -11 6 54 97 82 114 15 9 22 7 37 -11 37 -46 56 -16 19 31 -30 38
-57 33 -108 -22z"/>
<path d="M15930 7076 c-62 -33 -126 -99 -146 -151 -14 -38 -15 -49 -4 -75 18
-45 42 -53 122 -45 102 10 197 55 152 72 -11 4 -22 -1 -30 -12 -12 -16 -27
-18 -96 -17 -102 1 -118 13 -93 66 21 44 35 54 46 33 22 -39 113 -25 166 25
38 35 29 89 -18 113 -37 20 -47 19 -99 -9z m103 -38 c7 -20 -11 -46 -43 -63
-39 -20 -73 -19 -87 4 -10 16 -6 21 35 44 51 29 88 34 95 15z"/>
<path d="M11620 7064 c-62 -37 -79 -53 -101 -96 -29 -56 -25 -104 11 -140 27
-27 34 -29 73 -23 61 10 127 41 165 78 l33 32 -10 -28 c-30 -78 -8 -74 92 18
45 41 83 72 85 70 2 -2 -1 -18 -7 -36 -14 -42 -14 -92 1 -107 20 -20 28 -14
27 26 -1 20 2 65 6 100 7 59 7 62 -13 62 -12 0 -44 -21 -73 -46 -28 -25 -53
-43 -56 -41 -2 3 8 29 22 57 18 35 23 56 17 62 -16 16 -28 2 -57 -67 -24 -55
-31 -64 -48 -59 -12 4 -28 -2 -45 -19 -55 -53 -161 -84 -190 -55 -15 15 -16
52 -1 42 7 -4 19 2 28 13 9 11 42 41 74 68 51 42 58 52 55 79 -4 41 -30 44
-88 10z m40 -37 c0 -1 -21 -20 -46 -42 -26 -21 -43 -31 -37 -22 10 19 83 75
83 64z"/>
<path d="M4026 7030 c-58 -54 -89 -119 -80 -168 8 -44 44 -82 77 -82 34 0 97
28 104 46 9 24 -6 29 -36 11 -40 -23 -88 -22 -101 2 -17 34 -12 51 15 51 34 0
80 24 99 52 29 41 15 128 -20 128 -8 0 -34 -18 -58 -40z m59 -43 c-10 -39 -29
-51 -54 -35 -20 12 -20 13 11 45 35 36 53 31 43 -10z"/>
<path d="M5135 7060 c-36 -14 -106 -90 -131 -143 -38 -83 -29 -141 26 -159 40
-13 150 44 150 79 0 18 -25 16 -41 -4 -15 -18 -70 -43 -93 -43 -23 0 -36 33
-27 66 6 24 12 28 33 26 27 -3 97 44 130 89 34 45 1 107 -47 89z m25 -43 c0
-30 -27 -66 -61 -81 -66 -29 -67 -13 -3 49 47 46 64 55 64 32z"/>
<path d="M3747 7049 c-10 -6 -31 -30 -45 -52 -15 -23 -34 -42 -42 -42 -10 0
-22 -22 -34 -60 -11 -33 -27 -66 -35 -72 -14 -12 -14 -14 2 -27 24 -19 18 -70
-17 -146 -29 -62 -34 -120 -11 -120 17 0 33 36 64 146 l23 80 45 13 c56 17
157 108 173 156 14 43 -6 87 -53 115 -36 23 -45 24 -70 9z m68 -54 c31 -30 31
-54 3 -91 -40 -51 -85 -86 -127 -99 -26 -8 -26 -11 -1 85 13 49 66 130 85 130
9 0 27 -11 40 -25z"/>
<path d="M9328 7015 c-72 -59 -124 -123 -110 -137 15 -15 41 -2 51 25 10 26
111 117 129 117 19 0 22 -35 8 -85 -8 -26 -21 -52 -28 -56 -9 -6 -10 -15 -2
-36 10 -29 39 -39 39 -13 0 8 7 39 17 69 23 71 23 123 0 144 -28 26 -45 21
-104 -28z"/>
<path d="M14014 7046 c-3 -8 -1 -39 5 -70 6 -30 8 -77 5 -103 -7 -61 14 -128
40 -128 13 0 46 41 107 130 48 71 85 133 83 137 -13 21 -36 -1 -104 -107 -41
-63 -78 -115 -81 -115 -3 0 -9 53 -12 118 -3 64 -8 125 -12 135 -9 21 -24 22
-31 3z"/>
<path d="M10866 7019 c-30 -35 -86 -143 -86 -165 0 -8 7 -14 15 -14 8 0 15 4
15 9 0 16 111 131 140 146 45 23 57 6 38 -56 -17 -53 -16 -69 5 -69 28 0 49
134 25 158 -15 15 -53 16 -78 2 -13 -7 -19 -6 -24 5 -8 22 -21 18 -50 -16z"/>
<path d="M6925 7018 c-16 -12 -47 -37 -68 -57 -126 -117 -63 -219 75 -122 l55
39 -8 -37 c-13 -57 -11 -91 7 -98 17 -6 86 60 169 162 47 58 53 49 36 -51 -9
-47 -9 -70 -1 -85 18 -34 33 -16 35 42 1 29 5 74 9 99 5 33 3 50 -7 65 -22 29
-55 9 -120 -72 -30 -37 -66 -79 -80 -92 l-26 -24 11 39 c12 46 27 75 44 89 6
6 14 25 16 43 4 29 0 36 -31 58 -44 29 -77 30 -116 2z m95 -42 c0 -19 -102
-112 -145 -133 -30 -14 -38 -15 -45 -4 -12 21 -2 41 44 89 52 55 104 84 129
71 9 -5 17 -16 17 -23z"/>
<path d="M9187 7033 c-4 -3 -7 -19 -7 -35 0 -37 -61 -150 -77 -143 -17 6 -27
-33 -13 -50 16 -20 50 -19 50 0 0 20 36 91 66 131 20 27 22 36 13 68 -10 35
-19 43 -32 29z"/>
<path d="M14358 7023 c-16 -2 -28 -9 -28 -14 0 -5 -6 -9 -13 -9 -8 0 -32 -13
-55 -30 -69 -50 -68 -131 2 -130 12 0 47 11 79 24 l57 24 0 -28 c0 -38 34 -80
51 -63 10 10 10 15 0 27 -8 10 -12 37 -9 75 1 33 0 63 -5 67 -4 4 -22 -6 -40
-24 -34 -33 -93 -62 -127 -62 -32 0 -24 36 15 65 35 28 138 60 155 50 15 -9
30 4 23 20 -5 15 -42 17 -105 8z"/>
<path d="M14782 6973 c-41 -63 -55 -104 -43 -116 12 -12 44 -1 36 13 -7 12 50
117 67 122 15 5 1 28 -17 28 -7 0 -27 -21 -43 -47z"/>
<path d="M14995 7006 c-68 -29 -108 -115 -69 -147 30 -25 76 -15 187 39 5 2 5
-11 2 -30 -7 -38 8 -88 27 -88 10 0 13 18 13 63 0 52 5 69 28 102 51 74 28
103 -30 35 -20 -23 -61 -52 -99 -70 -101 -49 -145 -29 -81 35 39 39 91 48 112
18 7 -9 17 -13 23 -9 17 10 15 19 -8 44 -23 25 -60 28 -105 8z"/>
<path d="M4340 6999 c-13 -6 -32 -17 -41 -25 -15 -13 -17 -13 -22 1 -4 8 -11
15 -16 15 -11 0 -91 -145 -91 -166 0 -29 29 -12 74 45 63 81 135 124 149 89 2
-7 -2 -35 -10 -63 -28 -99 -28 -107 -2 -103 16 2 23 9 22 22 0 10 5 37 13 59
21 59 18 103 -8 121 -26 18 -33 19 -68 5z"/>
<path d="M3346 6959 c-149 -131 -92 -274 86 -213 50 16 86 48 69 58 -6 4 -23
0 -38 -8 -15 -7 -48 -19 -72 -26 -62 -17 -91 -1 -91 51 0 40 14 59 24 34 16
-41 156 20 156 68 0 33 -37 77 -64 77 -13 0 -44 -19 -70 -41z m94 -19 c9 -16
6 -22 -17 -37 -15 -10 -44 -18 -65 -19 l-39 -1 38 39 c41 42 67 48 83 18z"/>
<path d="M5355 6991 c-24 -10 -145 -137 -145 -152 0 -17 33 -24 39 -8 9 27
114 129 133 129 29 0 31 -23 9 -104 -25 -92 -26 -108 -5 -104 11 2 23 26 35
73 38 143 15 199 -66 166z"/>
<path d="M15862 6665 c-7 -14 -68 -17 -443 -25 -239 -5 -645 -10 -904 -10
-258 0 -636 -4 -840 -10 -388 -9 -986 -16 -2195 -25 -399 -3 -858 -8 -1020
-11 -1053 -19 -1395 -24 -1710 -24 -195 0 -548 -4 -785 -10 -236 -5 -734 -14
-1105 -20 -371 -6 -772 -12 -890 -15 -118 -3 -498 -8 -845 -10 -568 -5 -1361
-16 -2025 -30 -135 -3 -251 -5 -258 -5 -8 0 -12 -7 -10 -16 3 -15 34 -16 310
-15 169 1 317 4 330 6 13 2 239 6 503 10 264 3 581 8 705 10 124 2 533 6 910
9 377 4 750 8 830 11 80 3 291 7 470 10 179 3 440 7 580 10 263 5 510 9 1655
26 369 5 938 14 1265 19 327 5 998 12 1490 15 492 3 1172 11 1510 17 338 6
797 12 1020 13 672 3 1494 17 1503 25 9 8 -20 60 -34 60 -4 0 -12 -7 -17 -15z"/>
<path d="M16867 6606 c-19 -14 -22 -32 -8 -40 16 -10 41 5 41 24 0 25 -12 31
-33 16z"/>
<path d="M8044 5879 c-4 -7 -8 -28 -9 -48 -1 -20 -25 -94 -53 -166 l-50 -130
-59 -7 c-32 -4 -66 -4 -76 -2 -19 6 -36 -22 -21 -35 5 -4 39 -5 77 -2 53 5 66
4 62 -7 -2 -7 -12 -41 -20 -75 -26 -101 -59 -187 -72 -187 -16 0 -17 -15 -3
-41 14 -26 37 -24 45 4 4 12 17 58 30 102 13 44 32 109 42 144 l18 64 95 24
c100 25 133 44 112 65 -8 8 -15 8 -24 1 -16 -13 -119 -43 -147 -43 l-21 0 21
53 c82 202 106 297 75 297 -8 0 -18 -5 -22 -11z"/>
<path d="M13845 5871 c-93 -59 -179 -178 -225 -310 l-27 -76 -39 1 c-21 0 -59
2 -84 5 -35 3 -45 1 -45 -11 0 -10 20 -18 68 -26 37 -6 69 -13 72 -16 3 -3 -3
-30 -15 -59 -32 -86 -22 -146 18 -104 12 12 13 19 5 22 -8 3 -5 24 11 71 l23
67 106 5 c58 3 108 8 112 12 19 18 -13 25 -105 20 l-100 -5 18 39 c57 126 139
248 200 299 47 39 114 50 174 28 54 -19 74 -10 40 18 -51 41 -158 51 -207 20z"/>
<path d="M4032 5810 c-125 -59 -199 -169 -272 -405 -41 -133 -53 -202 -35
-206 18 -5 85 144 136 306 32 100 61 173 78 194 56 71 201 128 218 84 13 -33
-17 -122 -96 -287 -45 -93 -83 -178 -84 -190 -4 -37 20 -23 67 42 25 34 48 62
51 62 2 0 13 -20 24 -45 14 -32 29 -49 48 -56 26 -8 28 -13 25 -52 -6 -76 29
-86 172 -47 57 15 86 28 86 37 0 8 5 11 11 7 7 -4 10 -1 7 7 -3 8 -12 12 -19
10 -8 -2 -50 -14 -93 -27 -44 -13 -90 -24 -103 -24 -52 0 -37 68 20 95 77 36
126 111 94 142 -14 15 -18 15 -41 0 -13 -9 -43 -41 -66 -70 -57 -73 -81 -69
-121 19 -22 49 -32 62 -44 57 -12 -4 -5 17 24 74 64 128 85 200 72 245 -20 66
-63 74 -159 28z m302 -405 c-4 -9 -16 -21 -28 -27 -19 -10 -19 -9 3 16 28 30
33 32 25 11z"/>
<path d="M7249 5728 c-24 -46 -51 -101 -60 -123 -32 -78 -91 -167 -157 -235
-63 -66 -92 -84 -92 -60 0 38 92 152 116 143 10 -4 14 2 14 20 0 40 -16 41
-59 2 -82 -74 -123 -169 -89 -203 25 -25 53 -11 128 68 l77 79 -5 -74 c-4 -69
-3 -75 22 -100 45 -45 83 -34 218 64 18 13 18 12 12 -26 -10 -64 11 -61 58 8
24 33 55 75 70 93 l27 31 1 -25 c0 -14 -7 -47 -15 -74 -19 -61 -11 -96 21 -96
29 0 94 56 94 81 0 26 -9 24 -47 -13 -39 -38 -50 -32 -35 21 17 55 15 116 -4
132 -21 17 -39 5 -84 -54 -28 -38 -37 -44 -47 -34 -11 10 -9 21 9 57 24 49 31
140 12 147 -19 6 -112 -95 -129 -141 -9 -24 -15 -58 -13 -77 2 -29 -2 -38 -29
-56 -18 -13 -46 -23 -63 -23 -58 0 -63 72 -14 220 30 89 88 220 121 272 28 45
29 58 5 58 -12 0 -32 -26 -63 -82z m137 -312 c-30 -61 -66 -101 -66 -72 0 26
28 86 58 125 22 29 27 32 30 18 2 -10 -8 -42 -22 -71z"/>
<path d="M10318 5804 c-3 -3 -4 -22 -1 -42 4 -31 -9 -64 -78 -207 -45 -93 -90
-193 -99 -221 l-18 -52 26 -21 c33 -27 65 -23 169 20 77 32 106 63 106 111 0
39 -29 60 -72 52 -38 -6 -66 -22 -128 -72 -24 -18 -43 -31 -43 -29 0 8 80 180
124 267 24 47 46 100 50 118 8 48 -15 98 -36 76z m68 -408 c9 -24 -13 -53 -60
-74 -54 -26 -134 -47 -143 -38 -7 7 47 55 111 98 45 30 84 36 92 14z"/>
<path d="M10648 5755 c-4 -30 -33 -96 -92 -207 -105 -196 -131 -288 -83 -288
10 0 14 13 14 41 0 30 14 68 54 143 106 199 139 272 145 314 6 37 4 42 -13 42
-17 0 -21 -8 -25 -45z"/>
<path d="M5840 5750 c-27 -27 -56 -95 -77 -179 -21 -86 -37 -111 -130 -203
-85 -83 -152 -126 -165 -105 -17 28 34 135 78 164 24 15 26 15 55 -12 23 -23
32 -26 42 -16 10 10 5 19 -25 47 -21 19 -42 34 -46 34 -5 0 -27 -13 -48 -28
-64 -47 -115 -179 -84 -217 31 -37 106 0 217 108 50 48 80 71 76 59 -14 -54
36 -172 72 -172 7 0 26 -14 44 -31 36 -33 39 -33 133 8 61 27 94 55 83 72 -4
7 -20 2 -43 -13 -54 -35 -131 -61 -143 -49 -6 6 10 21 47 44 96 57 164 181
129 235 -15 23 -17 23 -43 10 -55 -29 -130 -114 -151 -171 -12 -31 -21 -60
-21 -65 0 -17 -26 -11 -46 11 -16 17 -19 37 -19 108 0 81 3 92 49 196 62 141
68 161 51 175 -10 9 -19 6 -35 -10z m190 -294 c0 -46 -63 -137 -112 -162 -16
-9 -32 -13 -35 -11 -12 13 41 103 84 143 51 47 63 52 63 30z"/>
<path d="M14982 5758 c-17 -22 -112 -208 -112 -221 0 -8 -24 -12 -82 -12 -67
0 -83 -3 -83 -15 0 -12 14 -15 67 -15 36 0 69 -2 71 -5 3 -3 -8 -45 -23 -93
-36 -109 -39 -132 -21 -132 10 0 26 37 49 108 l34 107 42 1 c58 1 90 12 94 32
4 18 -10 22 -36 9 -9 -5 -32 -6 -50 -3 l-32 6 30 64 c17 35 44 84 61 109 16
24 28 51 25 58 -7 17 -20 18 -34 2z"/>
<path d="M9887 5733 c-13 -13 -7 -24 20 -34 33 -12 53 2 33 26 -13 15 -42 20
-53 8z"/>
<path d="M11655 5710 c-9 -14 13 -50 30 -50 18 0 19 14 5 41 -12 21 -25 25
-35 9z"/>
<path d="M15154 5646 c-10 -25 31 -65 48 -48 10 10 7 18 -14 39 -25 24 -28 25
-34 9z"/>
<path d="M6233 5518 c-42 -45 -86 -121 -137 -242 -43 -100 -95 -290 -83 -302
17 -17 37 14 75 114 39 101 47 114 90 146 62 45 84 69 126 140 37 62 46 118
26 157 -17 30 -61 24 -97 -13z m70 -18 c11 -44 -40 -145 -104 -205 -31 -30
-31 -30 -24 -5 8 26 34 117 39 135 8 33 57 94 77 95 4 0 9 -9 12 -20z"/>
<path d="M10665 5467 c-43 -45 -54 -64 -68 -120 -20 -77 -13 -103 29 -113 30
-8 97 10 117 30 8 9 12 27 9 45 -6 40 -32 42 -32 2 0 -31 -18 -41 -72 -41 -20
0 -28 5 -28 18 0 26 11 36 62 61 49 23 118 93 118 118 0 32 -21 53 -52 53 -25
0 -43 -11 -83 -53z m79 -24 c-25 -33 -72 -69 -80 -61 -3 4 15 27 41 53 50 48
73 53 39 8z"/>
<path d="M9214 5475 c-72 -44 -123 -100 -124 -137 0 -45 31 -44 114 1 40 23
76 41 79 41 4 0 -7 -26 -23 -57 -34 -64 -37 -85 -15 -103 20 -17 38 -2 31 26
-5 18 4 43 29 89 30 54 35 70 29 101 -6 35 -34 74 -52 74 -5 0 -35 -16 -68
-35z m79 -25 c4 -16 -9 -27 -76 -64 -45 -24 -83 -43 -85 -41 -10 10 37 59 86
90 66 41 68 41 75 15z"/>
<path d="M9534 5468 c-53 -58 -104 -182 -83 -203 11 -11 39 18 39 42 0 7 5 13
11 13 6 0 8 7 5 17 -4 10 -4 14 0 10 10 -9 46 52 38 64 -6 11 33 59 48 59 5 0
14 -11 20 -25 14 -30 38 -33 38 -5 0 24 -42 70 -63 70 -8 0 -32 -19 -53 -42z"/>
<path d="M9911 5459 c-70 -60 -87 -83 -96 -132 -6 -29 -3 -37 12 -46 22 -11
103 21 160 65 17 13 34 24 36 24 2 0 -1 -18 -7 -40 -7 -29 -7 -46 0 -58 18
-28 29 -20 35 28 3 25 13 62 22 84 9 21 17 42 17 47 0 19 -32 7 -92 -35 -35
-24 -83 -53 -107 -66 l-44 -22 7 29 c9 41 114 135 143 128 27 -6 39 11 23 30
-21 25 -46 17 -109 -36z"/>
<path d="M11665 5494 c-19 -19 -13 -44 21 -95 13 -19 24 -42 24 -51 0 -40 -84
-64 -110 -32 -23 27 -47 35 -47 16 -1 -50 83 -85 137 -57 63 32 69 86 19 155
-18 24 -20 32 -10 44 13 15 7 36 -9 36 -5 0 -16 -7 -25 -16z"/>
<path d="M12672 5490 c-65 -27 -132 -104 -132 -152 0 -53 71 -75 134 -43 34
18 44 19 28 3 -17 -17 -15 -74 4 -92 18 -19 65 -21 82 -4 20 20 13 29 -19 26
-56 -5 -59 20 -11 97 23 36 42 70 42 76 0 20 -33 7 -84 -35 -63 -51 -110 -66
-133 -43 -14 14 -14 19 3 47 24 40 89 88 131 96 28 6 37 2 63 -26 16 -17 34
-29 40 -25 16 10 12 21 -19 54 -23 25 -37 31 -68 30 -21 0 -48 -4 -61 -9z"/>
<path d="M15504 5447 c-79 -81 -119 -136 -106 -149 13 -13 38 2 102 62 68 64
108 92 120 85 5 -3 10 -30 10 -59 0 -40 5 -57 20 -71 26 -23 99 -31 124 -12
29 22 12 35 -39 29 -61 -6 -75 7 -75 74 0 42 -4 56 -21 67 -11 8 -28 13 -39
10 -10 -3 -21 0 -24 6 -11 17 -18 13 -72 -42z"/>
<path d="M6480 5457 c-115 -69 -185 -243 -106 -263 26 -6 99 28 153 72 l33 26
-16 -31 c-9 -18 -13 -39 -10 -48 5 -13 17 -5 54 35 62 67 162 152 179 152 21
0 16 -30 -17 -99 -18 -38 -28 -72 -24 -83 8 -25 40 -19 37 7 -1 11 9 43 23 73
28 60 32 130 9 138 -28 11 -63 -6 -118 -56 l-54 -50 16 45 c8 24 12 47 8 51
-4 4 -42 -29 -85 -73 -90 -94 -182 -149 -182 -109 0 32 31 69 97 117 80 57
103 89 83 114 -17 20 -17 20 -80 -18z m35 -25 c-29 -24 -85 -62 -85 -58 0 7
80 66 89 66 3 0 1 -4 -4 -8z"/>
<path d="M8845 5480 c-3 -5 0 -20 6 -32 8 -15 12 -62 11 -131 -1 -111 8 -157
30 -157 18 0 134 175 155 233 15 40 15 49 4 57 -8 4 -19 6 -25 4 -11 -4 -58
-111 -62 -140 -2 -15 -56 -93 -64 -94 -3 0 -6 51 -5 113 0 74 -4 120 -13 135
-14 24 -27 28 -37 12z"/>
<path d="M11487 5483 c-4 -3 -7 -15 -7 -25 0 -10 -13 -44 -30 -75 -34 -64 -40
-106 -13 -101 10 2 19 12 21 23 2 11 16 48 33 81 31 66 37 104 16 104 -8 0
-17 -3 -20 -7z"/>
<path d="M15246 5467 c-10 -7 -16 -20 -15 -28 2 -7 -20 -36 -49 -63 -28 -27
-52 -56 -52 -65 0 -43 50 -52 122 -24 89 34 115 91 61 133 -16 12 -28 29 -28
38 0 21 -17 25 -39 9z m59 -87 c14 -22 -40 -58 -112 -76 -29 -8 -29 4 0 37 38
45 96 64 112 39z"/>
<path d="M13920 5434 c-37 -42 -60 -92 -60 -128 0 -37 46 -69 92 -63 69 9 144
92 136 150 -5 35 -33 27 -36 -11 -5 -47 -62 -102 -106 -102 -49 0 -61 19 -41
66 19 47 42 73 73 85 28 11 24 33 -5 37 -13 2 -31 -10 -53 -34z"/>
<path d="M14477 5439 c-46 -31 -87 -83 -87 -112 0 -9 10 -23 22 -31 30 -21
190 -23 207 -3 18 22 5 25 -82 20 -96 -5 -116 3 -99 41 12 28 99 89 113 80 17
-10 31 7 18 22 -17 21 -41 17 -92 -17z"/>
<path d="M2867 5442 c-23 -14 -27 -22 -22 -42 3 -14 7 -38 8 -55 4 -51 30 -42
62 21 22 42 26 60 18 73 -14 23 -33 24 -66 3z"/>
<path d="M15063 5452 c-7 -4 -24 -33 -38 -65 -15 -31 -30 -57 -35 -57 -5 0 -6
-10 -1 -22 14 -38 32 -26 57 36 13 33 31 67 40 77 23 26 6 49 -23 31z"/>
<path d="M9727 5443 c-3 -5 -16 -46 -31 -92 -19 -63 -23 -89 -15 -103 8 -15
13 -17 24 -8 8 6 12 17 9 25 -3 7 6 47 21 90 14 42 23 81 20 86 -7 11 -22 12
-28 2z"/>
<path d="M14217 5419 c-34 -26 -72 -108 -57 -123 8 -8 17 -4 30 14 11 14 20
30 20 35 1 18 38 55 55 55 38 0 56 -20 53 -58 -4 -47 23 -52 32 -6 9 42 -3 70
-39 88 -40 21 -63 20 -94 -5z"/>
<path d="M15560 5137 c-5 -5 -506 -21 -1170 -37 -223 -6 -526 -18 -675 -27
-326 -20 -512 -21 -584 -5 -63 15 -123 7 -119 -15 6 -32 346 -36 803 -10 165
10 505 22 755 27 250 5 498 12 550 15 105 6 1113 6 1473 0 208 -4 249 0 217
20 -28 17 -1233 48 -1250 32z"/>
<path d="M11237 4854 c-4 -4 -4 -32 -1 -63 7 -69 -17 -174 -80 -356 -48 -136
-57 -195 -31 -195 9 0 15 9 15 21 0 11 21 80 46 152 59 171 92 318 87 379 -5
45 -22 75 -36 62z"/>
<path d="M14855 4819 c-374 -3 -718 -9 -765 -13 -143 -10 -491 -26 -782 -36
-271 -9 -329 -16 -332 -45 -2 -17 84 -24 100 -7 12 11 80 16 337 23 177 5 378
13 447 19 241 18 1386 34 1690 23 157 -6 492 -9 745 -7 621 4 766 4 790 -2 11
-2 27 0 35 6 26 17 -6 28 -104 35 -127 9 -1350 11 -2161 4z"/>
<path d="M3283 4763 c-39 -65 -67 -126 -89 -198 -21 -69 -27 -75 -72 -75 -27
0 -33 -4 -30 -17 3 -14 12 -17 36 -15 18 2 32 0 32 -4 0 -3 -16 -62 -36 -130
-35 -117 -38 -160 -12 -152 6 2 13 14 15 27 8 56 74 265 85 272 7 5 29 11 49
14 21 4 45 13 56 20 15 12 16 16 4 27 -12 11 -13 10 -7 -6 5 -15 4 -16 -7 -8
-8 7 -26 8 -50 2 -29 -6 -37 -5 -37 6 0 22 49 145 77 193 23 40 27 42 36 25 7
-10 14 -41 17 -69 3 -35 9 -50 20 -50 22 0 18 93 -6 142 -27 54 -46 53 -81 -4z"/>
<path d="M8682 4733 c-6 -16 -18 -53 -28 -83 -9 -30 -29 -83 -45 -117 l-27
-62 -84 -3 c-75 -3 -83 -5 -83 -23 0 -13 5 -18 15 -15 8 2 44 6 79 8 59 4 63
2 56 -15 -14 -32 -66 -245 -61 -251 17 -16 36 15 50 85 21 98 49 179 62 176 5
-1 38 -5 72 -9 51 -5 62 -4 62 8 0 10 -21 18 -64 27 l-63 13 38 96 c21 53 39
105 39 114 0 9 5 20 10 23 15 9 12 55 -4 55 -7 0 -18 -12 -24 -27z"/>
<path d="M10921 4729 c-5 -13 -6 -28 -1 -32 4 -5 -17 -81 -47 -170 -54 -159
-72 -205 -73 -179 0 6 -4 12 -10 12 -5 0 -7 -7 -4 -15 4 -9 0 -15 -9 -15 -8 0
-18 -12 -22 -27 -5 -21 -2 -32 15 -45 30 -24 77 -23 155 6 106 38 130 74 79
115 -34 27 -51 26 -108 -4 -25 -13 -46 -22 -46 -20 0 2 10 28 21 57 31 77 77
227 84 273 5 31 3 44 -9 54 -14 11 -17 10 -25 -10z m64 -389 c0 -16 -95 -59
-133 -60 -30 0 -22 11 35 50 50 32 98 37 98 10z"/>
<path d="M4029 4733 c-7 -47 -6 -63 4 -63 7 0 4 -5 -5 -11 -10 -5 -18 -20 -18
-33 0 -54 -33 -209 -67 -313 -30 -90 -35 -115 -25 -125 18 -18 26 -3 63 117
30 98 91 216 129 250 33 30 45 -12 44 -147 0 -65 3 -118 8 -118 5 0 24 16 44
35 60 61 88 35 47 -44 -26 -49 -30 -98 -10 -125 11 -15 35 -21 118 -27 57 -5
110 -7 117 -4 19 7 9 30 -14 31 -79 2 -185 19 -195 30 -9 11 -8 25 6 59 14 39
20 44 39 39 17 -4 30 3 54 31 35 39 41 75 17 99 -20 19 -35 13 -62 -25 -20
-29 -21 -30 -28 -10 -8 27 -44 28 -77 2 l-25 -20 0 72 c0 84 -16 141 -45 161
-27 19 -49 8 -89 -47 l-30 -41 6 44 c4 25 11 67 16 93 13 69 12 97 -6 97 -8 0
-16 -3 -16 -7z m332 -371 c-5 -10 -18 -25 -27 -33 -16 -12 -17 -12 -9 1 10 18
37 50 42 50 2 0 -1 -8 -6 -18z"/>
<path d="M6087 4608 c-25 -51 -53 -124 -63 -163 -16 -60 -25 -76 -74 -125 -68
-67 -166 -128 -181 -113 -15 15 -2 49 35 92 59 67 61 72 46 81 -16 10 -80 -57
-73 -77 3 -7 1 -13 -3 -13 -19 0 -35 -18 -44 -48 -7 -27 -5 -37 14 -59 l23
-26 44 21 c24 12 71 42 104 67 l60 45 5 -50 c7 -60 36 -96 72 -87 13 4 50 26
82 50 55 41 61 43 85 31 31 -17 48 -18 56 -4 9 15 -14 40 -37 40 -16 0 -10 11
30 58 53 60 70 96 52 107 -18 11 -99 -63 -125 -114 -24 -49 -119 -131 -150
-131 -8 0 -20 12 -25 26 -12 32 12 144 39 183 44 62 101 221 101 281 0 44 -29
15 -73 -72z"/>
<path d="M7746 4678 c-8 -13 -24 -48 -36 -78 -32 -81 -129 -261 -159 -294 -46
-50 -142 -119 -152 -109 -16 16 1 66 44 127 55 77 72 88 92 58 9 -12 23 -22
31 -22 24 0 16 27 -16 54 -40 33 -63 25 -113 -40 -72 -92 -91 -149 -67 -195
18 -32 56 -23 124 31 35 27 66 47 70 43 3 -3 6 -18 6 -33 0 -56 58 -97 99 -71
19 12 5 31 -24 31 -58 0 -59 99 -2 182 20 29 48 82 61 118 14 36 36 87 51 114
26 51 32 90 15 101 -5 3 -16 -5 -24 -17z"/>
<path d="M5410 4595 c0 -40 18 -46 38 -14 10 16 10 24 1 35 -21 26 -39 16 -39
-21z"/>
<path d="M10450 4580 c0 -13 7 -20 18 -20 26 0 34 11 21 27 -17 20 -39 16 -39
-7z"/>
<path d="M2869 4523 c-74 -61 -87 -76 -104 -114 -38 -82 14 -121 111 -84 60
23 124 71 124 94 0 11 -11 28 -24 39 -16 12 -26 31 -28 53 -4 45 -34 50 -79
12z m51 -28 c0 -9 -9 -15 -21 -15 -18 0 -19 2 -9 15 7 8 16 15 21 15 5 0 9 -7
9 -15z m-35 -45 c8 0 23 -9 34 -21 11 -13 24 -18 32 -14 8 6 10 4 4 -4 -9 -16
-124 -71 -147 -71 -27 0 -23 47 8 87 16 22 32 32 41 29 8 -3 21 -6 28 -6z"/>
<path d="M9938 4478 c-73 -50 -111 -105 -89 -132 19 -22 56 -19 121 9 30 13
56 22 58 20 2 -2 -9 -26 -23 -54 -29 -54 -27 -91 5 -91 23 0 36 18 22 32 -7 7
-1 30 19 72 47 100 37 112 -59 68 -117 -53 -136 -52 -87 6 14 17 25 36 25 43
0 11 2 11 8 2 6 -9 15 -8 36 7 16 10 35 16 41 13 19 -7 29 16 15 32 -17 21
-21 20 -92 -27z"/>
<path d="M11309 4495 c-32 -21 -69 -76 -69 -103 0 -5 -7 -9 -16 -8 -24 2 -30
-24 -7 -30 12 -4 23 -20 30 -47 16 -57 62 -101 107 -99 35 1 186 73 207 98 10
12 10 17 0 27 -10 9 -11 8 -6 -5 4 -11 2 -18 -4 -18 -6 0 -11 5 -11 11 0 8 -4
8 -14 0 -7 -6 -39 -20 -70 -31 -31 -10 -70 -27 -86 -36 -29 -18 -30 -17 -54 5
-14 13 -29 35 -34 50 -9 25 -8 26 27 27 100 0 191 109 141 168 -20 25 -98 20
-141 -9z m119 -27 c9 -46 -76 -106 -135 -96 -19 3 -20 6 -9 38 19 60 135 106
144 58z"/>
<path d="M9826 4493 c-3 -4 -6 -14 -6 -23 0 -9 -12 -27 -26 -41 -14 -13 -44
-55 -67 -93 l-41 -70 -8 35 c-4 19 -7 57 -6 85 2 54 -25 115 -43 97 -10 -10
14 -212 30 -255 18 -48 40 -43 56 12 11 37 87 150 124 184 17 17 31 35 31 40
0 14 -36 37 -44 29z"/>
<path d="M10221 4465 c-35 -32 -111 -157 -111 -184 0 -16 35 -13 50 4 6 8 9
19 5 25 -10 15 38 92 81 129 35 31 37 31 55 15 27 -24 44 -6 23 24 -22 32 -58
27 -103 -13z"/>
<path d="M7913 4442 c-106 -88 -146 -151 -125 -198 7 -13 22 -29 35 -35 33
-15 129 23 184 74 24 22 43 37 43 33 0 -8 -35 -74 -52 -98 -10 -14 -10 -20 1
-30 10 -11 18 -7 39 18 61 70 242 192 242 163 0 -4 -10 -27 -22 -50 -26 -50
-31 -124 -8 -124 9 0 15 11 16 30 1 17 13 56 28 86 30 64 32 82 11 99 -12 10
-28 6 -88 -25 -39 -20 -83 -48 -98 -61 -32 -31 -41 -30 -29 2 6 14 10 39 10
55 0 39 -31 39 -57 0 -38 -60 -81 -98 -135 -121 -94 -38 -119 -5 -46 62 23 21
46 38 53 38 20 0 85 67 85 88 0 11 -6 25 -14 31 -11 9 -26 2 -73 -37z"/>
<path d="M6674 4448 c-17 -4 -47 -24 -67 -43 -34 -33 -37 -34 -34 -13 1 17 -3
23 -18 23 -17 0 -20 -7 -20 -53 0 -28 -3 -52 -7 -52 -5 0 -8 -7 -8 -16 0 -9
-8 -28 -18 -42 -67 -98 -138 -342 -100 -342 8 0 21 12 28 28 28 60 81 196 105
270 30 93 84 175 130 196 66 32 67 19 6 -56 -68 -85 -91 -126 -91 -166 0 -44
16 -52 101 -52 59 0 78 -3 83 -15 3 -8 16 -20 29 -26 33 -15 123 21 191 77
l54 44 -18 -52 c-27 -78 -4 -124 35 -69 11 16 48 70 83 120 88 128 126 123 94
-12 -12 -53 -13 -69 -3 -81 20 -23 37 -9 38 32 0 20 3 62 8 92 6 48 4 58 -14
78 -43 45 -85 18 -157 -99 -41 -69 -54 -73 -24 -8 35 77 23 105 -26 60 -110
-103 -212 -162 -251 -147 -15 6 -10 11 25 29 54 28 107 79 119 114 21 61 -22
127 -67 103 -34 -18 -100 -110 -112 -156 -13 -47 -25 -54 -93 -54 -96 0 -86
30 78 234 35 43 -9 72 -79 54z m241 -129 c4 -11 2 -33 -5 -49 -12 -28 -93 -94
-110 -88 -22 7 73 158 100 158 5 0 12 -9 15 -21z"/>
<path d="M10538 4389 c-70 -74 -84 -109 -51 -128 20 -11 72 12 144 65 l47 34
-14 -40 c-8 -21 -11 -46 -8 -55 9 -23 34 -18 34 8 0 12 9 42 20 66 38 83 18
105 -49 52 -61 -47 -151 -104 -157 -99 -3 3 21 34 52 68 46 50 62 60 80 56 27
-7 40 9 24 29 -25 30 -54 16 -122 -56z"/>
<path d="M10363 4428 c-19 -23 -54 -147 -51 -175 4 -39 32 -37 34 2 2 38 30
133 45 151 11 13 5 34 -10 34 -5 0 -13 -6 -18 -12z"/>
<path d="M5874 4415 c-15 -12 -16 -16 -5 -24 12 -8 33 -6 69 5 11 3 10 7 -2
19 -19 19 -37 19 -62 0z"/>
<path d="M5330 4401 c0 -4 -21 -45 -46 -90 -36 -62 -47 -92 -48 -129 -2 -65
16 -61 35 7 17 64 40 111 76 159 26 34 25 62 -2 62 -8 0 -15 -4 -15 -9z"/>
<path d="M5524 4352 c-21 -16 -51 -46 -66 -68 -43 -62 -51 -142 -13 -128 9 4
14 13 11 21 -21 55 125 208 155 162 12 -19 2 -60 -32 -133 -33 -69 -36 -94
-13 -103 21 -8 52 23 37 38 -7 7 -2 29 18 77 30 71 35 111 19 143 -16 29 -69
25 -116 -9z"/>
<path d="M11693 4343 c-23 -16 -31 -43 -13 -43 6 0 5 -9 -2 -24 -12 -27 -4
-60 13 -54 14 5 51 109 44 125 -6 17 -15 16 -42 -4z"/>
<path d="M6351 3667 c-18 -61 -11 -132 12 -131 9 1 17 0 17 -3 0 -2 -19 -32
-41 -65 -41 -60 -100 -187 -113 -239 -4 -17 -1 -31 8 -38 30 -25 130 135 162
262 14 56 24 73 81 133 61 64 66 67 79 49 22 -30 17 -65 -31 -206 -28 -84 -42
-136 -36 -142 6 -6 29 8 63 37 54 47 75 55 95 35 8 -8 5 -23 -13 -57 -43 -80
-24 -134 51 -148 41 -7 148 11 153 26 2 6 7 8 12 5 11 -7 33 22 26 34 -4 6
-23 2 -49 -9 -41 -19 -129 -26 -161 -14 -38 14 -8 113 41 136 26 12 92 116 93
146 0 26 -27 10 -70 -42 -41 -50 -45 -53 -64 -40 -28 19 -56 17 -86 -6 -14
-11 -28 -20 -32 -20 -3 0 7 39 23 86 38 111 39 175 4 210 -25 25 -27 25 -53 9
-15 -10 -43 -35 -63 -57 l-36 -40 -6 46 c-13 93 -46 114 -66 43z m-32 -321
c-11 -26 -23 -46 -25 -43 -3 3 5 25 17 51 29 59 35 53 8 -8z"/>
<path d="M5070 3679 c-205 -19 -295 -34 -295 -49 0 -20 32 -21 140 -5 50 8
163 20 252 26 97 8 160 16 156 22 -3 5 0 7 8 5 8 -3 13 -10 12 -15 -3 -14 101
-11 105 2 7 23 -193 31 -378 14z"/>
<path d="M7786 3671 c-4 -5 -29 -75 -56 -155 -27 -79 -72 -190 -100 -247 -27
-57 -50 -113 -50 -125 0 -29 18 -41 26 -17 4 10 32 74 64 143 32 69 75 177 95
240 21 63 44 118 51 123 7 4 11 15 10 25 -3 19 -31 28 -40 13z"/>
<path d="M5182 3573 c-112 -225 -155 -309 -158 -312 -2 -2 -79 -23 -171 -46
-121 -30 -169 -46 -171 -58 -4 -21 13 -30 35 -18 18 10 286 82 290 77 1 -1 -3
-21 -9 -44 -7 -30 -8 -46 0 -54 15 -15 32 -1 32 26 0 13 5 37 11 54 9 26 18
32 62 42 29 6 79 14 113 17 59 5 61 5 60 -17 -1 -32 21 -36 35 -7 7 15 17 23
25 20 21 -8 37 6 24 22 -8 9 -1 21 29 48 22 19 49 40 60 47 22 11 21 12 35
-34 6 -18 -11 -92 -31 -134 -12 -25 -13 -36 -4 -45 16 -16 27 -1 51 67 31 91
24 163 -18 185 -22 12 -73 -17 -135 -75 -29 -27 -43 -32 -132 -43 -55 -6 -110
-14 -122 -17 -22 -6 -21 -3 13 72 35 74 101 199 126 235 12 18 5 49 -11 49 -5
0 -23 -26 -39 -57z"/>
<path d="M8427 3604 c-4 -4 -7 -21 -7 -38 -1 -17 -21 -69 -45 -116 l-44 -85
-63 -15 c-46 -12 -64 -21 -66 -34 -4 -20 -8 -20 85 1 23 5 23 5 8 -37 -8 -23
-15 -53 -15 -66 0 -15 -6 -24 -15 -24 -9 0 -15 -9 -15 -25 0 -21 5 -25 30 -25
27 0 30 3 30 33 0 34 23 122 38 145 5 6 39 18 78 25 53 9 70 16 72 31 4 20 5
20 -101 -1 l-28 -6 42 80 c25 49 42 95 43 118 1 36 -12 54 -27 39z"/>
<path d="M10011 3558 c-41 -41 -108 -138 -127 -183 -8 -19 -14 -48 -14 -64 0
-26 -8 -34 -72 -70 -40 -22 -74 -38 -75 -37 -4 3 51 138 91 229 14 32 26 62
26 67 0 18 -32 10 -61 -15 -16 -13 -35 -22 -43 -19 -7 3 -50 -22 -97 -55 -109
-77 -113 -81 -101 -93 16 -16 68 6 158 65 l81 53 -23 -51 c-12 -29 -37 -89
-55 -134 -30 -77 -35 -84 -80 -107 -63 -31 -129 -95 -129 -123 0 -38 18 -61
48 -61 35 0 100 65 135 136 23 45 35 56 117 102 85 49 93 51 113 37 44 -31
149 -9 181 37 22 31 -1 44 -29 18 -15 -14 -35 -20 -68 -20 -26 0 -47 3 -47 7
0 3 24 31 53 62 36 38 61 76 76 115 43 115 10 173 -58 104z m19 -106 c-24 -56
-118 -156 -105 -112 17 58 115 195 123 171 2 -5 -6 -32 -18 -59z m-390 -348
c0 -12 -54 -80 -78 -98 -19 -15 -26 -16 -32 -5 -12 19 5 45 52 79 40 29 58 37
58 24z"/>
<path d="M9035 3435 c-29 -30 -57 -55 -63 -55 -6 0 -14 -14 -17 -32 -4 -17
-21 -53 -37 -79 -59 -96 -119 -282 -99 -302 19 -19 40 15 81 131 59 167 104
254 161 313 54 56 77 56 64 0 -7 -32 -72 -121 -117 -159 -29 -25 -37 -52 -15
-52 17 1 65 47 116 113 67 88 69 177 4 177 -17 0 -42 -18 -78 -55z"/>
<path d="M7899 3436 c-19 -7 -46 -20 -60 -29 -51 -36 -127 -118 -144 -157 -17
-38 -17 -42 -2 -57 20 -20 35 -14 124 52 l63 46 -32 -51 c-34 -55 -31 -85 8
-85 14 0 19 8 20 35 1 19 2 38 3 41 1 3 21 29 46 58 71 84 55 107 -33 49 -27
-18 -77 -53 -111 -76 l-62 -44 17 34 c22 42 97 113 148 140 32 16 44 18 58 9
34 -21 51 5 22 33 -18 19 -19 19 -65 2z"/>
<path d="M9232 3356 c-66 -69 -80 -106 -39 -106 13 0 48 18 77 40 29 22 55 40
56 40 1 0 -11 -25 -28 -55 -35 -65 -36 -118 -2 -123 16 -2 26 5 38 28 15 30
14 32 -4 37 -19 5 -18 7 5 52 13 25 33 60 44 76 36 52 18 73 -33 40 -21 -14
-23 -14 -22 7 2 42 -29 29 -92 -36z m71 5 c-4 -3 -24 -20 -43 -36 -19 -17 -28
-21 -20 -10 29 38 55 62 63 58 5 -3 5 -8 0 -12z"/>
<path d="M8088 3379 c-21 -17 -38 -39 -38 -49 0 -11 19 -32 45 -50 25 -17 45
-35 45 -41 0 -5 -12 -21 -27 -35 -23 -21 -29 -23 -31 -10 -8 39 -41 5 -42 -41
0 -19 41 -16 73 5 70 47 76 99 17 140 -21 15 -39 30 -40 34 0 11 51 43 69 43
27 0 18 30 -9 32 -16 2 -39 -9 -62 -28z"/>
<path d="M8776 2759 c-55 -43 -98 -164 -127 -357 -14 -90 -9 -85 -90 -96 -20
-2 -42 1 -48 7 -15 15 -36 -6 -27 -29 6 -14 16 -16 75 -10 l68 6 -19 -83 c-19
-86 -17 -127 7 -127 16 0 30 35 20 50 -4 6 1 44 11 85 17 74 18 75 53 81 54 8
63 13 58 27 -3 7 -20 11 -47 9 -40 -2 -42 -1 -37 20 3 13 13 66 22 118 17 101
65 213 112 260 l24 25 19 -23 c18 -22 40 -23 40 -1 0 17 -48 59 -68 59 -11 0
-31 -9 -46 -21z"/>
<path d="M11849 2753 c-52 -57 -90 -119 -119 -195 -17 -42 -30 -84 -30 -92 0
-18 -29 -35 -55 -33 -11 1 -21 -5 -23 -15 -3 -14 3 -18 28 -18 29 0 32 -3 26
-22 -3 -13 -15 -63 -26 -112 -11 -49 -25 -95 -31 -103 -9 -10 -9 -17 -1 -25
15 -15 39 -3 44 24 38 171 52 225 61 237 8 10 27 12 69 7 47 -5 58 -3 58 9 0
17 -58 35 -94 28 -32 -6 -32 -1 -3 80 36 98 112 217 139 217 5 0 8 -14 6 -32
-4 -40 18 -49 32 -13 7 19 7 34 -2 53 -18 37 -48 39 -79 5z"/>
<path d="M9720 2675 c-13 -16 -5 -55 12 -55 16 0 2 -131 -23 -217 l-21 -71
-63 -11 c-35 -6 -70 -8 -79 -5 -10 4 -18 0 -22 -11 -11 -29 8 -35 74 -24 35 6
65 9 67 7 3 -3 -4 -45 -15 -94 -11 -50 -15 -93 -10 -98 12 -12 37 33 44 84 4
25 12 61 18 81 10 36 12 37 74 44 70 7 85 18 60 43 -13 13 -20 14 -34 6 -10
-6 -32 -15 -50 -18 l-31 -7 18 54 c21 60 37 174 32 222 -3 27 -27 85 -35 85
-2 0 -9 -7 -16 -15z"/>
<path d="M6807 2614 c-11 -12 13 -44 33 -44 27 0 36 21 15 37 -20 14 -38 17
-48 7z"/>
<path d="M5986 2458 c-113 -167 -157 -233 -161 -236 -2 -2 -11 12 -19 31 -15
38 -184 209 -200 204 -17 -6 -18 -25 -1 -39 100 -86 164 -158 175 -197 15 -57
11 -68 -109 -259 -116 -187 -155 -262 -142 -275 13 -13 41 -1 41 18 0 25 34
87 151 271 59 95 119 194 133 220 22 44 139 214 197 287 19 26 20 30 7 44 -14
13 -22 6 -72 -69z"/>
<path d="M9995 2526 c-15 -11 -15 -13 -1 -25 13 -11 19 -11 31 -1 8 7 15 16
15 20 0 15 -28 19 -45 6z"/>
<path d="M12468 2450 c-20 -12 -24 -35 -7 -46 6 -3 16 -1 22 5 33 33 148 -20
132 -61 -8 -20 -155 -116 -190 -123 -20 -5 -26 -4 -16 3 9 7 10 11 2 17 -16 9
-41 -13 -41 -36 0 -10 9 -21 21 -24 26 -9 69 9 141 57 l57 38 -10 -29 c-8 -22
-7 -37 3 -57 23 -48 40 -51 109 -19 90 43 150 105 102 105 -9 0 -13 -3 -10 -7
4 -3 -3 -11 -16 -18 -12 -6 -46 -24 -75 -39 -28 -16 -59 -26 -67 -22 -55 21
50 179 139 210 20 7 37 16 37 19 -1 4 -1 12 -1 17 0 24 -73 -2 -118 -43 l-22
-21 -20 22 c-42 45 -137 74 -172 52z"/>
<path d="M13143 2441 c-28 -24 -30 -51 -4 -51 25 0 53 28 49 48 -4 23 -20 24
-45 3z"/>
<path d="M6714 2355 c-20 -48 -15 -190 6 -190 12 0 16 18 18 85 2 46 8 90 14
97 12 15 4 43 -12 43 -6 0 -18 -16 -26 -35z"/>
<path d="M6934 2372 c-19 -19 -18 -26 11 -60 14 -17 25 -39 25 -51 0 -18 -6
-21 -41 -21 -32 0 -47 -6 -70 -30 -30 -29 -31 -50 -4 -50 7 0 15 3 17 8 7 16
77 44 104 40 28 -3 29 -2 28 44 0 36 -6 54 -25 74 l-24 27 37 -6 c43 -6 51 -1
37 25 -12 22 -73 22 -95 0z"/>
<path d="M11380 2367 c-60 -40 -89 -134 -59 -189 16 -30 74 -51 102 -37 58 30
69 78 40 175 -22 70 -40 81 -83 51z m41 -72 c30 -34 35 -79 10 -104 -27 -27
-45 -27 -72 0 -16 16 -20 29 -16 55 7 41 49 105 55 83 3 -8 13 -23 23 -34z"/>
<path d="M10455 2338 c-27 -22 -67 -56 -87 -76 -21 -20 -38 -34 -38 -32 0 3 7
30 15 60 9 35 11 58 5 64 -19 19 -29 -5 -77 -191 -8 -35 14 -28 55 16 53 55
122 115 127 109 2 -2 -2 -26 -11 -53 -17 -58 -11 -101 17 -116 26 -13 51 -5
121 40 52 33 57 39 56 71 0 19 3 45 7 58 11 32 -18 29 -40 -4 -12 -18 -14 -29
-6 -37 7 -7 7 -16 0 -28 -11 -22 -89 -69 -112 -69 -26 0 -21 51 13 137 42 105
34 115 -45 51z"/>
<path d="M7803 2341 c-70 -50 -105 -158 -65 -194 25 -23 54 -21 86 4 l26 20 0
-29 c0 -38 26 -70 68 -82 30 -8 34 -7 42 16 6 14 10 30 10 35 0 12 -47 12 -55
-1 -12 -20 -25 2 -25 43 0 25 9 58 23 82 27 47 21 94 -15 120 -32 22 -50 19
-95 -14z m86 -29 c14 -26 -10 -73 -57 -110 -67 -53 -95 -39 -67 33 28 74 101
120 124 77z"/>
<path d="M10068 2337 c-60 -46 -90 -93 -86 -136 4 -52 38 -61 111 -32 71 29
100 60 103 111 2 42 -12 61 -58 79 -24 9 -33 6 -70 -22z m86 -49 c12 -34 -3
-54 -59 -79 -48 -22 -85 -24 -85 -5 0 23 46 81 64 80 9 -1 22 7 29 17 16 26
39 20 51 -13z"/>
<path d="M9852 2298 c-18 -23 -40 -85 -44 -124 -2 -29 1 -39 13 -42 13 -2 18
8 23 45 3 26 15 63 26 81 19 31 19 52 1 52 -5 0 -13 -6 -19 -12z"/>
<path d="M9004 2245 c-13 -31 -24 -59 -24 -63 0 -5 -16 -27 -36 -50 -44 -52
-88 -58 -105 -16 -5 15 -7 35 -4 44 8 25 -15 37 -30 16 -17 -23 -2 -86 26
-108 56 -46 132 2 186 119 18 39 33 81 33 92 0 38 -21 22 -46 -34z"/>
<path d="M9396 2285 c-67 -24 -126 -96 -126 -155 0 -12 12 -32 28 -47 24 -22
33 -25 83 -20 69 6 119 30 119 57 0 25 -1 25 -44 -1 -26 -15 -48 -19 -88 -17
-52 3 -53 4 -56 35 -4 42 49 102 104 118 22 6 39 17 39 24 0 20 -15 22 -59 6z"/>
<path d="M9099 2249 c-46 -50 -67 -103 -49 -124 7 -8 18 -15 25 -15 17 0 28
30 15 45 -13 16 45 95 71 95 10 0 26 -11 34 -24 15 -23 15 -29 -1 -80 -14 -43
-15 -59 -6 -68 14 -14 42 47 50 109 4 37 1 46 -26 73 -41 41 -67 38 -113 -11z"/>
<path d="M13097 2273 c-4 -3 -7 -28 -7 -54 0 -27 -9 -73 -20 -103 -27 -72
-130 -178 -206 -213 -51 -23 -57 -24 -73 -9 -10 9 -21 13 -24 9 -14 -14 -6
-43 16 -58 21 -13 29 -13 71 -1 53 16 143 82 185 135 40 51 79 156 87 234 6
55 4 67 -8 67 -8 0 -18 -3 -21 -7z"/>
<path d="M9660 1733 c-81 -42 -102 -84 -97 -188 3 -66 10 -92 37 -148 36 -76
33 -86 -25 -86 -16 0 -57 -2 -90 -4 -51 -4 -60 -7 -60 -23 0 -21 -2 -21 138
-8 58 5 77 4 77 -6 0 -20 -57 -67 -82 -66 -32 1 -30 -28 2 -32 46 -5 108 52
125 114 0 1 12 4 26 7 l26 7 -1 -67 c-1 -65 0 -67 33 -90 52 -35 77 -30 137
30 56 56 81 120 53 138 -19 11 -34 -4 -48 -50 -15 -52 -57 -101 -85 -101 -33
0 -66 28 -66 55 0 14 7 43 16 65 22 53 12 63 -52 51 -27 -5 -50 -9 -50 -8 -20
26 -65 139 -74 186 -13 70 -7 113 21 152 38 54 142 78 181 42 14 -13 21 -14
30 -5 20 20 -23 53 -73 59 -35 4 -55 -1 -99 -24z"/>
<path d="M12865 1736 c-40 -18 -111 -89 -135 -135 -10 -20 -21 -55 -25 -76
-14 -89 -11 -84 -51 -73 -24 6 -40 6 -46 0 -17 -17 0 -31 47 -37 44 -7 44 -8
50 -54 14 -108 53 -231 73 -231 19 0 21 14 6 48 -19 46 -44 155 -44 193 l0 29
99 0 c70 0 102 4 110 13 18 22 4 26 -82 21 -116 -7 -127 -3 -121 44 9 65 33
118 72 157 47 48 89 66 136 58 44 -7 50 15 11 41 -29 19 -60 20 -100 2z"/>
<path d="M13814 1618 c-26 -68 -49 -124 -50 -126 -1 -2 -43 -9 -93 -17 -122
-18 -161 -32 -161 -56 0 -23 13 -24 43 -5 21 13 186 41 194 32 2 -2 -5 -39
-17 -82 -24 -92 -26 -164 -5 -204 32 -61 81 -62 197 -4 56 28 68 39 68 59 0
30 -20 43 -27 17 -6 -25 -120 -82 -163 -82 -63 0 -72 88 -25 247 l15 50 52 7
c29 3 75 6 101 6 40 0 48 3 45 17 -4 22 -68 36 -130 28 -27 -3 -48 -2 -48 3 0
10 51 136 75 187 7 16 11 33 9 37 -16 25 -36 -4 -80 -114z"/>
<path d="M6579 1665 c-110 -30 -219 -107 -219 -155 0 -35 44 -69 135 -106 105
-41 150 -73 172 -120 15 -31 15 -35 -1 -53 -50 -55 -258 -45 -353 16 -23 15
-43 10 -43 -11 0 -13 75 -47 145 -65 53 -14 173 -14 216 0 83 28 101 85 49
157 -22 31 -49 50 -117 82 -48 23 -104 49 -123 58 -61 29 -49 69 36 118 65 38
185 70 169 44 -3 -5 1 -34 10 -65 20 -66 44 -74 69 -21 20 42 20 50 1 86 -14
27 -24 32 -85 45 -8 2 -36 -3 -61 -10z m120 -85 l-1 -25 -8 25 c-4 14 -8 32
-9 40 -1 13 0 13 9 0 5 -8 9 -26 9 -40z"/>
<path d="M10888 1605 c-3 -3 -3 -37 0 -74 2 -38 1 -93 -2 -123 l-7 -55 -67 1
c-53 1 -67 -2 -67 -14 0 -15 8 -17 86 -19 l45 -1 -4 -90 c-5 -103 0 -129 23
-110 10 8 13 21 9 33 -3 11 -3 52 1 93 l7 73 46 6 c26 3 59 8 73 10 25 4 27 1
35 -58 7 -45 13 -62 24 -62 12 0 14 12 12 60 -5 95 -10 99 -103 91 l-79 -7 0
125 c0 98 -3 126 -13 126 -8 0 -16 -2 -19 -5z"/>
<path d="M11166 1541 c-9 -14 4 -40 25 -52 30 -15 39 -2 22 31 -14 29 -36 39
-47 21z"/>
<path d="M7416 1531 c-10 -16 3 -51 19 -51 24 0 28 21 7 42 -13 13 -22 16 -26
9z"/>
<path d="M11630 1445 c-14 -7 -47 -44 -73 -82 -81 -119 -74 -190 9 -81 26 35
60 75 76 90 l29 28 -3 -85 c-3 -97 9 -121 55 -109 15 3 27 9 28 13 0 3 2 14 4
24 3 14 -1 18 -16 14 -18 -5 -19 1 -19 73 0 63 -4 82 -21 104 -23 29 -33 31
-69 11z"/>
<path d="M11355 1405 c-5 -2 -22 -6 -37 -9 -21 -5 -34 -20 -58 -68 -36 -76
-37 -82 -5 -113 31 -32 83 -33 151 -1 50 23 94 70 94 99 0 48 -96 109 -145 92z
m71 -70 c40 -26 28 -55 -36 -87 -43 -22 -61 -26 -85 -20 -40 11 -42 37 -8 90
26 41 30 43 66 39 21 -3 49 -13 63 -22z"/>
<path d="M12427 1394 c-3 -4 -1 -16 5 -27 8 -16 8 -22 -3 -26 -7 -2 -31 -20
-52 -40 -32 -30 -40 -46 -44 -83 -5 -41 -2 -50 22 -73 32 -33 70 -30 144 8 99
53 106 117 20 200 -45 43 -76 57 -92 41z m105 -113 c21 -43 12 -62 -47 -96
-50 -30 -101 -31 -119 -2 -25 40 67 142 124 135 17 -2 30 -14 42 -37z"/>
<path d="M10503 1369 c-39 -11 -91 -72 -99 -116 -12 -66 41 -103 152 -103 50
0 96 21 81 36 -4 5 -41 7 -82 5 -41 -1 -82 2 -94 9 -52 27 1 127 74 139 26 4
40 12 40 21 0 18 -29 22 -72 9z"/>
<path d="M7673 1359 c-6 -6 -42 -20 -79 -30 -84 -23 -102 -38 -88 -76 8 -25
43 -49 108 -77 7 -3 2 -13 -13 -25 -26 -23 -99 -29 -119 -9 -17 17 -28 -18
-11 -38 28 -34 170 3 184 47 10 30 -7 50 -61 74 -68 30 -71 65 -6 65 29 0 124
49 120 62 -6 17 -22 20 -35 7z"/>
<path d="M10139 1353 c-31 -36 -61 -95 -79 -154 -16 -52 -17 -61 -4 -66 14 -5
26 5 61 55 12 17 13 25 3 36 -9 12 -6 24 15 60 30 52 39 55 56 25 19 -37 14
-117 -10 -149 -23 -31 -19 -63 7 -58 26 5 54 95 50 156 -7 85 -62 138 -99 95z"/>
<path d="M8576 1307 c-38 -47 -45 -77 -22 -96 17 -14 38 -6 94 36 32 24 34 24
48 7 9 -12 13 -33 10 -57 -5 -47 10 -108 32 -124 32 -25 90 -9 79 21 -5 13
-11 14 -25 7 -40 -21 -47 0 -44 130 l3 122 -23 -7 c-26 -8 -29 -8 -79 0 -33 5
-39 3 -73 -39z m82 5 c12 -8 -15 -34 -67 -62 -23 -12 -22 -9 8 29 34 43 38 45
59 33z"/>
<path d="M7367 1303 c-12 -11 -8 -181 4 -188 6 -4 12 -5 13 -4 2 2 6 48 8 102
4 71 2 97 -7 97 -6 0 -15 -3 -18 -7z"/>
<path d="M6675 1096 c-88 -17 -120 -30 -159 -63 -39 -32 -48 -47 -40 -67 8
-21 23 -20 31 1 20 53 102 88 233 101 109 11 486 -2 524 -17 37 -15 64 -7 46
13 -21 26 -112 37 -340 42 -165 3 -244 0 -295 -10z"/>
<path d="M13575 1034 c-49 -6 -138 -19 -196 -28 -59 -9 -118 -16 -132 -16 -13
0 -35 -9 -48 -19 -30 -24 -16 -44 33 -45 18 -1 39 -5 46 -10 16 -10 37 8 28
23 -4 6 -17 11 -29 12 -12 0 68 14 178 31 169 26 206 28 240 19 80 -24 85 -24
85 -7 0 17 -30 33 -85 45 -16 4 -70 2 -120 -5z"/>
<path d="M6925 879 c-55 -10 -167 -30 -250 -44 -223 -38 -247 -44 -243 -64 2
-10 11 -15 23 -13 153 26 358 63 425 77 47 10 131 22 187 29 56 6 104 16 105
21 5 18 -143 14 -247 -6z"/>
<path d="M13044 795 c-15 -37 4 -39 446 -39 401 -1 430 0 430 16 0 16 -25 18
-356 17 -309 0 -355 -2 -350 -14 3 -8 1 -15 -3 -15 -5 0 -11 6 -14 13 -3 9
-26 14 -63 16 -32 1 -64 7 -71 13 -9 7 -15 6 -19 -7z"/>
<path d="M13932 768 c6 -18 28 -21 28 -4 0 9 -7 16 -16 16 -9 0 -14 -5 -12
-12z"/>
</g>
</svg>
