<?xml version="1.0" standalone="no"?>
<!DOCTYPE svg PUBLIC "-//W3C//DTD SVG 20010904//EN"
 "http://www.w3.org/TR/2001/REC-SVG-20010904/DTD/svg10.dtd">
<svg version="1.0" xmlns="http://www.w3.org/2000/svg"
 width="1872.000000pt" height="1404.000000pt" viewBox="0 0 1872.000000 1404.000000"
 preserveAspectRatio="xMidYMid meet">

<g transform="translate(0.000000,1404.000000) scale(0.100000,-0.100000)"
fill="#000000" stroke="none">
<path d="M15147 13551 c-9 -10 -24 -42 -33 -72 -28 -94 -39 -109 -83 -109 -78
0 -179 -75 -197 -146 -9 -34 15 -105 46 -136 l29 -28 -55 -95 c-30 -52 -55
-104 -57 -116 -3 -27 21 -37 29 -12 4 10 31 61 61 114 l54 96 53 6 c101 10
159 56 172 134 4 31 -1 51 -28 105 -29 58 -32 70 -22 90 6 13 20 50 30 83 10
33 25 65 33 71 8 6 11 16 7 22 -10 16 -18 14 -39 -7z m-107 -240 c0 -14 -113
-211 -121 -211 -17 0 -49 65 -49 100 1 63 67 122 132 117 21 -1 38 -4 38 -6z
m73 -46 c19 -40 22 -87 7 -116 -14 -25 -82 -59 -120 -59 -16 0 -30 3 -30 6 0
18 105 204 115 204 6 0 19 -16 28 -35z"/>
<path d="M15353 13513 c-4 -10 -21 -58 -39 -108 -17 -49 -52 -148 -78 -220
-47 -131 -55 -190 -26 -190 10 0 17 15 21 50 4 28 25 100 48 160 69 181 111
307 105 316 -9 15 -24 10 -31 -8z"/>
<path d="M17407 13483 c-2 -5 -12 -32 -22 -61 -18 -57 -36 -72 -60 -52 -23 19
-118 -47 -145 -100 -33 -65 -20 -166 24 -183 11 -4 6 -21 -26 -81 -39 -76 -46
-121 -18 -121 8 0 17 13 20 30 12 53 69 155 88 155 28 0 117 56 137 87 22 33
22 86 1 138 -15 36 -15 41 9 107 14 38 23 74 19 79 -6 11 -21 12 -27 2z m-78
-169 c9 -8 -89 -194 -103 -194 -20 0 -39 63 -31 101 4 17 25 49 47 71 30 30
44 38 61 32 12 -3 24 -8 26 -10z m56 -77 c9 -48 -11 -79 -65 -107 -21 -11 -41
-20 -42 -20 -2 0 17 42 42 94 25 53 48 89 52 83 4 -6 10 -29 13 -50z"/>
<path d="M16955 13369 c-72 -36 -83 -45 -69 -59 7 -7 29 -1 66 19 72 36 93 42
113 27 14 -10 12 -16 -15 -57 -32 -49 -107 -121 -189 -182 -32 -23 -51 -45
-51 -57 0 -32 31 -24 86 24 28 25 55 41 61 38 6 -4 14 -23 18 -42 9 -43 22
-60 46 -60 23 0 25 28 4 36 -9 4 -15 19 -15 35 0 16 -8 37 -19 48 -18 18 -17
19 24 63 90 93 113 148 77 181 -27 25 -70 21 -137 -14z"/>
<path d="M17619 13374 c-11 -14 -10 -18 5 -29 21 -16 18 -27 -31 -135 -47
-100 -55 -130 -42 -147 13 -15 29 -8 29 13 0 8 20 62 45 118 46 106 53 142 35
177 -13 23 -23 24 -41 3z"/>
<path d="M16233 13354 c-24 -14 -43 -30 -43 -34 0 -21 23 -19 69 5 61 31 61
31 61 2 0 -33 -48 -102 -151 -214 -48 -54 -89 -102 -89 -106 0 -13 34 -21 38
-9 4 13 57 47 90 57 18 5 22 3 22 -17 0 -29 17 -48 42 -48 20 0 23 11 9 26 -5
5 -14 25 -18 44 -8 28 -14 35 -34 35 -23 0 -21 5 38 75 74 88 99 143 84 183
-9 22 -17 27 -43 27 -18 -1 -52 -12 -75 -26z"/>
<path d="M17823 13360 c-37 -22 -43 -52 -18 -100 14 -28 14 -32 -9 -67 -54
-84 -40 -163 29 -163 48 0 59 25 52 120 l-5 77 72 34 c60 29 71 38 74 61 3 23
-3 31 -32 45 -30 14 -38 15 -49 3 -6 -7 -7 -11 -2 -8 6 3 21 -5 34 -17 l24
-23 -72 -34 -71 -34 -15 22 c-21 33 -19 41 16 59 28 15 35 35 13 42 -5 2 -24
-6 -41 -17z m26 -240 c1 -43 -12 -65 -33 -57 -21 8 -21 59 1 100 15 29 17 30
24 12 4 -11 8 -36 8 -55z"/>
<path d="M16000 13356 c-57 -13 -134 -48 -145 -67 -17 -26 13 -28 56 -5 50 28
129 49 129 35 0 -30 -53 -101 -151 -203 -81 -84 -107 -117 -96 -122 9 -3 34 8
58 25 50 37 53 37 79 11 22 -22 69 -27 88 -8 20 20 13 31 -16 25 -32 -6 -42
-1 -60 31 -12 21 -8 28 44 90 84 99 127 204 82 201 -7 0 -38 -6 -68 -13z"/>
<path d="M15357 13084 c-31 -17 -31 -37 -1 -42 23 -3 59 32 49 47 -8 14 -14
13 -48 -5z"/>
<path d="M10970 13083 c-66 -24 -94 -111 -80 -251 l6 -63 -46 3 c-35 2 -45 0
-45 -12 0 -11 13 -16 46 -18 54 -3 61 -18 48 -99 -4 -27 -3 -52 2 -57 18 -19
32 13 37 83 l5 71 36 0 c40 0 78 21 68 37 -4 7 -23 7 -57 0 -28 -5 -54 -7 -58
-3 -4 4 -7 54 -7 111 0 89 3 107 21 131 28 38 78 50 111 29 35 -23 53 -5 24
24 -21 21 -74 27 -111 14z"/>
<path d="M16430 13054 c-9 -10 -10 -18 -2 -26 12 -12 32 -2 32 17 0 21 -16 26
-30 9z"/>
<path d="M2425 12987 c-20 -16 -12 -39 12 -35 13 2 23 -23 48 -117 38 -144 83
-282 102 -312 42 -64 83 -24 83 82 0 66 35 303 46 314 8 8 126 5 158 -4 40
-11 31 14 -15 38 -27 14 -48 16 -104 11 -38 -4 -71 -7 -72 -8 -7 -5 -43 -258
-43 -304 0 -33 -3 -74 -6 -91 -6 -29 -8 -30 -19 -14 -16 23 -66 180 -100 308
-39 152 -47 163 -90 132z"/>
<path d="M4765 12866 c-85 -175 -153 -297 -174 -313 -11 -8 -13 -15 -5 -23 18
-18 42 0 70 53 l26 52 83 0 84 0 7 -55 c13 -112 49 -121 38 -10 -6 60 -4 69
12 79 18 10 18 12 2 25 -15 11 -18 30 -18 119 0 135 -14 207 -41 207 -14 0
-34 -32 -84 -134z m86 -56 c0 -73 -3 -135 -5 -137 -7 -7 -125 -7 -131 -1 -3 3
25 67 62 141 37 75 69 134 71 132 2 -2 3 -63 3 -135z"/>
<path d="M7850 12984 c-74 -7 -192 -13 -262 -13 -70 -1 -129 -5 -132 -9 -16
-26 16 -29 204 -20 496 23 485 22 488 38 3 19 -104 20 -298 4z"/>
<path d="M5875 12984 c-6 -2 -10 -62 -9 -155 l2 -150 -47 2 c-35 3 -46 0 -46
-11 0 -11 14 -16 48 -18 l47 -3 0 -52 c0 -66 8 -94 27 -102 14 -5 15 5 10 75
l-6 80 37 0 c44 0 68 13 57 30 -5 8 -23 11 -52 7 l-44 -5 3 151 c3 145 0 162
-27 151z"/>
<path d="M11712 12954 c-35 -15 -39 -40 -6 -37 28 2 34 -14 34 -93 l0 -71 -31
-7 c-17 -3 -43 -6 -56 -6 -18 0 -24 -5 -21 -17 3 -15 12 -17 49 -15 l46 4 6
-79 c3 -42 10 -79 16 -81 6 -2 14 -4 18 -5 4 -1 8 39 8 88 l0 90 35 3 c38 4
63 19 54 33 -2 5 -25 6 -49 2 l-44 -6 0 90 c0 86 -6 124 -20 122 -3 0 -21 -7
-39 -15z"/>
<path d="M3365 12951 c-3 -6 -3 -16 1 -22 6 -11 6 -190 0 -197 -2 -2 -17 -4
-32 -5 -44 -4 -37 -31 9 -35 33 -3 37 -6 37 -30 0 -32 25 -140 34 -149 3 -4
11 -2 16 3 7 7 7 27 1 60 -5 27 -12 66 -16 86 l-6 37 58 3 c44 2 58 7 58 18 0
12 -11 14 -56 12 l-55 -3 -10 70 c-5 39 -6 71 -1 71 4 0 7 19 5 42 -2 30 -8
44 -20 46 -9 2 -19 -2 -23 -7z"/>
<path d="M5393 12934 c-3 -9 4 -70 16 -135 25 -128 23 -182 -10 -223 -10 -13
-30 -27 -45 -30 -80 -20 -69 104 12 134 23 9 31 29 18 43 -9 9 -55 -16 -85
-47 -51 -50 -44 -145 11 -164 24 -9 37 -7 72 12 77 40 96 122 63 280 -9 41
-14 89 -13 107 2 25 -1 34 -15 37 -9 2 -20 -4 -24 -14z"/>
<path d="M5124 12927 c-2 -7 3 -30 11 -51 9 -21 19 -69 22 -105 l6 -67 -34 3
c-48 5 -96 -27 -120 -82 -22 -50 -16 -73 26 -101 29 -19 91 -10 122 19 44 40
53 175 21 319 -12 55 -24 78 -40 78 -5 0 -11 -6 -14 -13z m30 -301 c-2 -46
-31 -76 -74 -76 -41 0 -56 22 -40 60 17 40 48 61 85 58 28 -3 30 -6 29 -42z"/>
<path d="M7774 12918 c-4 -6 1 -17 11 -24 15 -11 18 -34 23 -151 5 -136 14
-189 30 -179 11 6 2 313 -9 344 -9 23 -43 30 -55 10z"/>
<path d="M14006 12921 c-3 -5 1 -22 9 -39 12 -22 14 -47 9 -100 l-7 -70 -56
-9 c-39 -5 -56 -12 -56 -23 0 -15 36 -17 93 -5 22 5 22 4 22 -95 0 -81 3 -100
15 -100 11 0 15 20 17 103 l3 102 65 5 c49 4 65 9 65 20 0 12 -13 15 -62 14
l-63 -1 0 81 c0 58 -5 88 -16 104 -16 23 -29 28 -38 13z"/>
<path d="M7945 12900 c-8 -13 4 -32 15 -25 19 12 27 -36 29 -180 2 -82 5 -153
7 -157 11 -17 24 -6 42 35 24 53 78 126 98 134 24 9 34 -15 34 -84 0 -72 6
-93 27 -93 12 0 14 8 9 38 -3 20 -6 60 -6 88 0 60 -17 87 -54 87 -32 0 -56
-21 -95 -80 l-29 -44 3 73 c3 66 -6 148 -22 188 -4 8 -5 18 -5 23 3 11 -46 9
-53 -3z"/>
<path d="M5590 12856 c0 -18 27 -39 40 -31 15 9 12 32 -6 39 -24 9 -34 7 -34
-8z"/>
<path d="M6131 12831 c-17 -11 -7 -41 13 -41 15 0 29 27 20 41 -7 11 -15 11
-33 0z"/>
<path d="M7145 12820 c-9 -15 4 -30 26 -30 22 0 24 11 7 28 -15 15 -25 15 -33
2z"/>
<path d="M13282 12759 c-6 -19 -13 -66 -16 -106 -3 -39 -10 -82 -15 -95 -8
-22 -9 -21 -25 17 -10 22 -25 66 -34 97 -12 41 -22 58 -34 58 -21 0 -32 -17
-21 -33 5 -7 22 -46 38 -87 33 -88 54 -119 77 -120 22 0 44 75 52 180 4 41 10
78 15 83 4 4 29 3 56 -3 33 -7 51 -8 59 0 17 17 -6 29 -75 36 l-67 7 -10 -34z"/>
<path d="M14542 12773 c-12 -2 -29 -15 -38 -28 -16 -24 -46 -184 -37 -197 6
-12 41 -10 48 2 4 6 2 17 -4 24 -8 9 -8 30 0 72 15 81 25 97 56 91 28 -5 45
20 22 34 -8 5 -16 8 -19 7 -3 0 -15 -3 -28 -5z"/>
<path d="M6650 12743 c-13 -16 -37 -53 -56 -83 l-33 -55 6 67 c5 58 3 68 -11
74 -23 9 -43 -11 -29 -28 8 -9 7 -38 -3 -97 -7 -46 -11 -88 -8 -92 13 -22 34
-3 85 76 30 47 59 93 64 101 7 10 10 0 10 -38 1 -64 26 -112 71 -133 27 -13
38 -13 85 -1 58 15 108 61 88 81 -7 7 -16 3 -28 -12 -21 -25 -93 -47 -127 -39
-35 9 -54 55 -54 129 0 50 -4 66 -16 71 -22 8 -20 9 -44 -21z"/>
<path d="M9119 12750 c-70 -37 -71 -64 -6 -137 68 -76 70 -112 7 -98 -19 4
-35 16 -42 31 -13 28 -38 32 -38 6 0 -29 28 -60 63 -68 62 -15 97 1 97 45 0
28 -14 53 -67 115 -18 22 -33 43 -33 48 0 17 64 40 96 35 37 -6 52 6 34 28
-17 20 -68 18 -111 -5z"/>
<path d="M9691 12725 c-17 -20 -39 -48 -48 -63 l-18 -26 -5 44 c-3 31 -10 46
-21 48 -14 3 -17 -6 -15 -55 0 -32 -3 -79 -8 -105 -8 -45 -7 -48 13 -48 11 0
21 5 21 12 0 14 85 151 103 167 12 9 13 2 9 -39 -4 -41 -1 -51 13 -56 19 -8
61 14 103 53 l27 25 6 -41 c8 -59 42 -91 95 -91 26 0 50 7 65 19 31 25 19 36
-22 22 -46 -16 -57 -14 -84 13 -21 21 -24 31 -18 74 9 79 -11 78 -102 -2 -22
-20 -43 -36 -46 -36 -4 0 -2 21 2 47 5 26 7 53 4 60 -8 24 -43 13 -74 -22z"/>
<path d="M12334 12746 c-30 -13 -74 -82 -74 -117 0 -35 30 -59 74 -59 56 0 81
25 71 72 -4 18 -7 49 -7 68 -1 31 -12 50 -28 49 -3 0 -19 -6 -36 -13z m29 -80
c13 -39 13 -47 1 -57 -21 -17 -64 -3 -64 22 0 24 27 79 39 79 5 0 16 -20 24
-44z"/>
<path d="M14826 12740 c-39 -12 -75 -47 -69 -69 2 -10 22 -28 44 -40 21 -12
39 -28 39 -35 0 -42 -103 -52 -152 -16 -35 26 -40 25 -36 -2 4 -31 61 -58 121
-58 40 0 54 5 78 29 16 16 29 37 29 46 0 17 -32 52 -66 71 -24 15 -11 30 34
43 28 9 31 7 29 -11 -3 -28 19 -34 33 -8 27 50 -10 72 -84 50z"/>
<path d="M3840 12727 c-34 -17 -57 -95 -38 -134 17 -35 34 -28 31 12 -1 17 3
45 9 64 10 33 11 33 58 27 58 -8 73 7 31 29 -36 18 -58 19 -91 2z"/>
<path d="M6353 12728 c-40 -11 -93 -73 -93 -111 0 -71 98 -103 159 -52 41 35
46 57 23 109 -24 53 -45 66 -89 54z m58 -70 c14 -35 6 -55 -34 -78 -20 -11
-30 -12 -51 -2 -37 17 -36 62 4 95 36 31 64 26 81 -15z"/>
<path d="M8324 12730 c-11 -4 -32 -30 -46 -58 -26 -49 -26 -51 -10 -106 18
-64 53 -106 90 -106 38 0 103 22 109 37 3 7 9 10 14 7 5 -3 9 2 9 12 0 18 -3
17 -79 -11 -54 -20 -79 -12 -97 31 -22 52 -18 61 31 73 52 13 69 38 59 84 -10
46 -32 57 -80 37z m46 -54 c0 -16 -7 -26 -22 -30 -45 -12 -50 -8 -31 24 21 37
53 40 53 6z"/>
<path d="M2847 12699 c-21 -17 -44 -44 -52 -59 -30 -58 -13 -130 36 -156 53
-27 154 -10 141 24 -4 12 -1 14 14 8 15 -6 16 -5 7 5 -10 10 -18 10 -38 1 -29
-13 -94 -16 -112 -4 -15 10 -35 61 -27 73 3 5 20 9 37 9 48 0 107 44 107 78 0
59 -54 69 -113 21z m78 -8 c7 -12 -21 -40 -53 -52 -39 -15 -40 0 -2 32 37 31
46 34 55 20z"/>
<path d="M3175 12715 c-48 -25 -75 -64 -75 -110 0 -52 22 -83 65 -91 57 -10
84 1 83 36 -1 24 -5 30 -24 30 -13 0 -27 -7 -32 -16 -13 -23 -45 -13 -56 17
-12 35 10 78 51 98 18 9 33 24 33 34 0 21 -7 21 -45 2z"/>
<path d="M10625 12715 c-56 -29 -81 -84 -57 -122 36 -57 183 -16 190 54 7 68
-63 103 -133 68z m95 -47 c11 -29 -16 -54 -67 -64 -72 -13 -82 46 -12 71 52
19 69 17 79 -7z"/>
<path d="M3598 12702 c-25 -27 -48 -79 -48 -105 0 -42 32 -60 94 -55 30 3 62
10 70 17 22 18 20 71 -4 101 -11 14 -20 31 -20 38 0 6 -3 13 -7 13 -56 8 -72
7 -85 -9z m79 -61 c28 -42 26 -52 -13 -63 -67 -19 -91 11 -58 73 19 38 41 35
71 -10z"/>
<path d="M5577 12703 c-4 -3 -7 -17 -7 -30 0 -21 2 -22 20 -11 22 14 27 48 7
48 -8 0 -17 -3 -20 -7z"/>
<path d="M9333 12693 c-15 -38 -9 -148 10 -176 25 -39 61 -54 90 -38 67 36 89
143 41 200 -14 17 -32 31 -40 31 -22 0 -17 -30 8 -50 32 -25 31 -90 -1 -124
-31 -32 -46 -33 -67 -1 -12 19 -15 42 -13 96 3 52 0 73 -8 76 -7 3 -16 -4 -20
-14z"/>
<path d="M12143 12695 c-3 -9 -3 -29 0 -45 4 -20 1 -36 -12 -52 l-19 -23 -22
38 c-12 20 -26 37 -31 37 -5 0 -20 -18 -33 -39 -27 -42 -61 -60 -79 -42 -6 6
-11 34 -11 63 l-1 53 -34 0 c-39 0 -55 -23 -22 -32 16 -4 21 -13 21 -40 0 -19
5 -43 11 -54 23 -44 91 -40 128 7 l18 23 23 -24 c29 -31 31 -31 69 1 29 24 31
31 30 80 -2 53 -23 82 -36 49z"/>
<path d="M13466 12685 c-52 -48 -69 -121 -40 -164 16 -22 22 -23 85 -19 68 5
108 23 91 40 -5 5 -27 5 -53 -1 -69 -16 -89 -14 -98 12 -8 20 -5 23 31 29 45
8 108 51 108 74 0 58 -74 75 -124 29z m80 -17 c10 -15 -32 -48 -62 -48 -30 0
-22 25 15 45 32 18 38 18 47 3z"/>
<path d="M13744 12690 c-93 -41 -100 -125 -13 -158 37 -14 134 -1 134 18 0 12
-12 14 -60 12 -49 -3 -66 0 -85 16 -23 19 -23 20 -7 46 10 14 24 26 32 26 28
0 65 24 65 42 0 22 -13 22 -66 -2z"/>
<path d="M6075 12680 c-3 -5 -3 -15 1 -22 4 -7 7 -33 5 -58 -3 -53 24 -98 52
-87 21 8 22 37 2 37 -12 0 -15 14 -15 70 0 63 -2 70 -19 70 -11 0 -23 -4 -26
-10z"/>
<path d="M14256 12671 c-10 -15 4 -39 25 -44 55 -15 20 -75 -50 -84 -34 -5
-41 -3 -41 12 0 9 14 30 30 45 17 15 30 33 30 39 0 37 -84 -27 -96 -73 -8 -34
18 -66 55 -66 38 0 114 41 128 69 14 30 -1 78 -28 86 -10 4 -19 11 -19 16 0
12 -27 12 -34 0z"/>
<path d="M5576 12642 c-10 -12 -17 -39 -18 -73 l-3 -54 33 -1 c35 -1 40 10 17
43 -11 16 -14 34 -9 62 7 46 4 49 -20 23z"/>
<path d="M7133 12574 c-7 -18 11 -39 26 -30 17 11 13 46 -4 46 -9 0 -18 -7
-22 -16z"/>
<path d="M15195 12441 c-3 -6 -3 -15 0 -21 3 -5 -11 -57 -32 -114 l-38 -105
-80 -3 c-63 -2 -80 -6 -80 -18 0 -12 13 -14 73 -12 81 4 80 6 56 -74 -17 -59
-14 -84 11 -84 10 0 15 9 15 27 0 14 8 50 17 80 14 45 20 52 36 47 11 -4 23
-1 28 7 10 17 2 29 -20 29 -17 0 -14 11 21 108 22 59 41 114 41 122 2 17 -38
26 -48 11z"/>
<path d="M14691 12419 c-56 -34 -147 -131 -175 -187 -21 -42 -31 -52 -52 -52
-19 0 -25 -4 -22 -17 2 -10 12 -17 22 -16 15 1 17 -4 10 -35 -12 -57 -10 -95
3 -99 15 -5 17 -1 34 86 11 55 16 65 41 76 28 11 29 13 13 29 -15 15 -15 18 5
51 26 42 114 122 158 143 34 17 43 42 15 42 -10 0 -33 -9 -52 -21z"/>
<path d="M16390 12420 c-10 -6 -12 -12 -4 -20 15 -15 -49 -202 -73 -211 -10
-3 -42 -10 -70 -14 -54 -7 -73 -19 -56 -36 5 -5 32 -5 67 2 32 6 60 9 62 6 2
-2 -7 -41 -21 -88 -28 -96 -30 -119 -11 -119 12 0 35 65 64 180 9 34 10 35 55
32 27 -2 47 1 47 7 0 14 -33 31 -59 31 -27 0 -27 -1 9 105 41 122 38 156 -10
125z"/>
<path d="M9919 12399 c-6 -12 -16 -66 -22 -120 -10 -95 -11 -98 -28 -83 -17
15 -20 15 -43 0 -46 -30 -94 -85 -101 -115 -7 -32 11 -77 40 -101 15 -12 22
-11 53 5 20 11 49 38 65 61 25 36 30 55 43 179 11 105 18 141 31 150 19 14 11
45 -11 45 -9 0 -20 -9 -27 -21z m-40 -244 c6 3 9 0 7 -7 -3 -7 -7 -25 -10 -40
-7 -32 -62 -98 -82 -98 -16 0 -34 31 -34 61 0 31 78 103 96 88 7 -6 18 -8 23
-4z"/>
<path d="M15328 12388 c-58 -93 -154 -321 -142 -339 10 -17 22 -9 82 53 33 35
64 59 68 55 4 -4 -2 -36 -13 -71 -12 -35 -19 -73 -16 -85 7 -29 33 -27 33 3 0
13 7 43 16 67 8 24 16 61 17 82 2 64 -32 67 -97 8 l-28 -26 7 25 c4 14 31 70
59 125 28 55 51 104 51 109 0 20 -23 16 -37 -6z"/>
<path d="M13521 12337 c-16 -35 -32 -73 -35 -85 -7 -21 -13 -22 -69 -20 -50 2
-62 0 -62 -12 0 -8 9 -15 21 -16 11 -1 36 -4 56 -8 l36 -7 -14 -46 c-17 -57
-18 -115 -2 -131 7 -7 26 -12 42 -12 34 0 64 15 53 26 -4 4 -2 13 4 20 16 19
3 32 -26 26 -17 -3 -25 -11 -25 -24 0 -17 -3 -18 -15 -8 -9 8 -13 22 -9 39 19
89 29 121 38 122 86 5 180 19 189 28 20 20 -5 30 -53 21 -47 -9 -130 -13 -130
-6 0 2 14 34 30 71 17 37 27 71 24 76 -12 20 -26 6 -53 -54z"/>
<path d="M8745 12368 c-10 -30 -75 -323 -75 -339 0 -24 47 -59 81 -59 67 0
142 57 160 123 24 90 -36 114 -131 51 -22 -14 -43 -24 -48 -22 -5 1 4 55 20
118 27 113 29 140 8 140 -6 0 -13 -6 -15 -12z m130 -267 c-10 -46 -67 -91
-115 -91 -21 0 -42 5 -46 11 -16 26 138 141 159 120 5 -5 6 -23 2 -40z"/>
<path d="M4514 12356 c-3 -8 -1 -46 5 -85 16 -102 16 -101 -23 -94 -57 9 -126
-43 -126 -96 0 -60 69 -115 137 -109 36 3 38 5 52 55 11 44 12 73 0 194 -9 95
-18 144 -26 147 -7 2 -16 -3 -19 -12z m13 -289 c-6 -66 -17 -75 -66 -53 -68
31 -73 88 -10 118 30 15 34 15 56 0 21 -15 23 -23 20 -65z"/>
<path d="M6625 12360 c-4 -6 -2 -16 3 -23 9 -11 0 -113 -12 -124 -2 -2 -26 -7
-53 -11 -33 -5 -48 -12 -48 -22 0 -12 11 -14 50 -12 l51 3 -10 -69 c-10 -75
-5 -102 19 -102 11 0 14 10 14 38 -1 20 2 61 6 90 l7 53 42 -2 c44 -3 70 6 61
22 -4 5 -21 9 -38 9 -56 0 -61 10 -50 82 6 34 9 66 6 71 -6 11 -41 9 -48 -3z"/>
<path d="M6819 12353 c-1 -5 -1 -31 1 -59 2 -55 -15 -163 -32 -207 -18 -46 4
-55 39 -16 82 95 81 94 93 82 9 -8 8 -23 -5 -62 -9 -28 -15 -61 -13 -73 3 -25
33 -32 33 -8 0 8 5 32 12 54 18 52 16 101 -3 120 -22 23 -44 20 -77 -11 -20
-19 -28 -22 -24 -11 15 41 20 168 7 183 -13 16 -29 20 -31 8z"/>
<path d="M5707 12344 c-4 -4 -7 -19 -7 -34 0 -29 -28 -120 -41 -134 -5 -5 -41
-10 -81 -10 -58 -1 -73 -4 -73 -16 0 -12 16 -16 68 -18 60 -3 68 -5 62 -20
-18 -43 -18 -102 0 -122 23 -26 84 -38 96 -19 6 10 9 11 9 2 0 -7 9 -13 20
-13 11 0 18 6 16 13 -1 6 -1 9 1 5 8 -14 33 -8 33 7 0 12 -14 15 -70 15 -87 0
-97 12 -74 89 l15 51 52 0 c61 0 91 14 67 30 -8 5 -34 10 -57 10 l-42 0 14 39
c26 74 21 153 -8 125z"/>
<path d="M10737 12343 c-4 -3 -7 -29 -7 -56 0 -86 -28 -153 -83 -203 -27 -24
-53 -44 -58 -44 -5 0 -9 13 -9 29 0 37 44 75 76 67 29 -8 40 20 14 34 -25 13
-90 -12 -90 -34 0 -9 -5 -15 -12 -13 -15 3 -32 -56 -24 -87 10 -39 42 -43 90
-9 23 17 40 36 38 45 -1 10 4 15 15 14 27 -2 61 71 74 157 6 42 9 83 5 92 -6
16 -18 19 -29 8z"/>
<path d="M11537 12333 c-4 -3 -7 -20 -7 -36 0 -43 -28 -143 -61 -220 -17 -38
-29 -76 -27 -85 5 -28 32 -19 39 13 4 17 18 57 32 90 31 75 62 207 54 229 -7
17 -19 21 -30 9z"/>
<path d="M9076 12305 c-3 -9 1 -18 10 -22 19 -7 39 11 30 26 -10 16 -33 13
-40 -4z"/>
<path d="M10889 12269 c-16 -31 7 -52 27 -24 8 11 17 19 20 17 11 -8 27 5 20
16 -12 20 -54 14 -67 -9z"/>
<path d="M2091 12241 c-73 -39 -102 -140 -59 -208 17 -29 68 -63 93 -63 18 0
-4 37 -30 50 -18 9 -35 29 -44 53 -12 34 -12 41 5 79 14 31 29 46 62 60 24 11
41 25 39 31 -6 19 -29 18 -66 -2z"/>
<path d="M3581 12205 c-17 -20 -31 -42 -31 -49 0 -8 -9 -16 -19 -19 -11 -3
-20 -13 -19 -23 0 -11 -3 -59 -7 -109 -5 -49 -9 -115 -9 -145 -1 -49 1 -55 19
-55 18 0 20 7 22 65 1 36 5 83 8 105 5 40 6 40 51 41 75 2 133 61 119 125 -8
34 -65 99 -88 99 -8 0 -29 -16 -46 -35z m78 -34 c29 -40 27 -75 -5 -100 -31
-24 -60 -27 -80 -7 -12 12 -12 20 1 57 15 43 41 79 56 79 4 0 17 -13 28 -29z"/>
<path d="M7114 12227 c-52 -30 -94 -76 -109 -117 -20 -56 -13 -99 21 -131 22
-20 35 -24 84 -22 82 2 160 47 132 75 -9 9 -12 9 -12 0 0 -7 -3 -11 -7 -10 -5
1 -19 -4 -31 -11 -13 -7 -47 -15 -75 -18 -64 -6 -90 15 -85 69 3 31 6 33 46
39 58 7 96 38 100 78 5 53 -21 73 -64 48z m36 -42 c0 -16 -31 -39 -67 -50 -33
-9 -27 6 14 38 41 31 53 34 53 12z"/>
<path d="M11995 12221 c-17 -10 -50 -40 -73 -66 -32 -36 -42 -56 -42 -82 0
-47 16 -72 55 -89 38 -15 99 -9 88 10 -4 7 -1 6 8 -1 13 -10 19 -10 35 1 31
23 7 37 -42 24 -78 -21 -128 14 -104 73 15 36 95 110 112 104 20 -7 42 11 35
29 -8 21 -35 20 -72 -3z"/>
<path d="M12220 12215 c-71 -52 -107 -135 -80 -184 12 -24 80 -51 126 -51 51
0 39 22 -19 35 -46 10 -87 36 -87 55 0 5 12 12 28 16 91 20 142 55 142 97 0
28 -28 57 -56 57 -11 0 -36 -11 -54 -25z m70 -35 c0 -12 -17 -26 -52 -43 -29
-14 -55 -24 -57 -22 -12 13 84 99 100 89 5 -3 9 -14 9 -24z"/>
<path d="M12541 12211 c-30 -28 -31 -28 -25 -5 5 20 2 24 -15 24 -15 0 -21 -6
-21 -23 0 -12 -9 -47 -21 -77 -12 -30 -23 -65 -26 -77 -8 -36 24 -29 43 10 25
48 93 137 105 137 12 0 2 -59 -12 -74 -13 -14 -11 -46 3 -46 6 0 33 23 61 51
27 28 51 48 54 46 2 -3 -4 -28 -14 -56 -19 -55 -13 -83 21 -89 14 -3 16 2 11
30 -4 21 0 47 10 72 33 78 -15 118 -70 59 l-25 -28 0 26 c0 27 -16 49 -36 49
-7 0 -26 -13 -43 -29z"/>
<path d="M12920 12233 c-23 -8 -90 -75 -106 -105 -41 -78 54 -145 151 -108 40
15 20 31 -32 24 -32 -3 -52 0 -69 11 -29 19 -31 35 -4 35 25 0 105 37 121 56
16 19 14 75 -3 85 -14 10 -35 10 -58 2z m40 -47 c0 -18 -64 -59 -86 -54 -12 2
-8 10 17 36 32 33 69 43 69 18z"/>
<path d="M3056 12209 c-14 -11 -34 -35 -43 -52 -9 -18 -23 -37 -32 -44 -14
-10 -14 -13 0 -30 9 -10 19 -26 22 -35 9 -27 60 -47 124 -50 46 -2 58 0 58 12
0 11 -15 16 -55 20 -30 3 -66 11 -78 19 -24 13 -24 13 17 33 47 23 91 71 91
98 0 48 -59 64 -104 29z m64 -34 c0 -17 -56 -65 -76 -65 -13 0 -12 4 1 29 26
50 75 74 75 36z"/>
<path d="M4790 12211 c-89 -36 -88 -84 2 -142 26 -17 45 -36 42 -41 -4 -7 -32
-8 -75 -4 -66 6 -94 -3 -72 -25 17 -17 151 -13 178 5 33 22 29 33 -26 74 -73
55 -79 61 -73 75 6 16 70 38 88 31 16 -6 40 22 31 36 -9 15 -44 11 -95 -9z"/>
<path d="M11331 12218 c-14 -5 -45 -26 -70 -46 -25 -20 -49 -36 -53 -35 -12 4
-24 -25 -72 -172 -51 -153 -55 -178 -29 -173 12 2 27 32 48 91 18 54 35 85 42
83 39 -15 147 54 177 113 20 39 28 98 17 120 -14 25 -31 30 -60 19z m29 -52
c0 -56 -45 -122 -102 -152 -42 -22 -54 -18 -52 16 3 43 62 117 119 148 29 17
35 15 35 -12z"/>
<path d="M9524 12201 c-53 -33 -87 -86 -92 -146 -4 -45 -1 -56 18 -75 18 -18
29 -21 58 -15 63 11 103 26 99 38 -4 13 -15 13 -86 1 -47 -8 -61 2 -61 44 0
16 6 22 20 22 27 0 90 32 113 58 21 24 14 67 -13 82 -23 13 -20 13 -56 -9z
m46 -36 c0 -17 -56 -55 -80 -55 -9 0 -1 14 22 35 41 38 58 44 58 20z"/>
<path d="M13164 12206 c-13 -10 -23 -11 -31 -4 -19 15 -28 4 -67 -79 -28 -59
-34 -78 -24 -85 9 -5 21 2 38 24 14 18 37 46 52 63 l26 30 -5 -61 c-5 -56 -4
-62 18 -78 28 -19 63 -21 78 -3 14 18 4 27 -31 27 -36 0 -42 15 -28 71 28 109
23 130 -26 95z"/>
<path d="M15479 12183 c-69 -62 -85 -136 -40 -177 21 -19 111 -32 138 -21 10
5 22 7 27 6 12 -3 37 20 31 29 -3 5 -39 6 -80 3 -82 -6 -105 3 -105 43 0 23 7
27 70 39 63 13 88 56 56 98 -21 27 -52 20 -97 -20z m71 -17 c0 -17 -5 -21 -45
-30 l-30 -8 24 26 c27 29 51 34 51 12z"/>
<path d="M16664 12206 c-3 -9 -3 -36 0 -60 6 -38 3 -48 -18 -72 l-25 -29 -1
38 c0 49 -24 60 -53 24 -34 -40 -117 -74 -117 -48 0 4 16 29 36 55 19 25 32
51 29 56 -8 12 -35 13 -35 1 0 -4 -16 -28 -35 -52 -36 -46 -44 -76 -23 -97 18
-18 47 -15 104 12 49 23 51 23 62 5 18 -29 57 -23 87 12 23 28 26 39 23 97 -3
64 -20 93 -34 58z"/>
<path d="M16867 12187 c-72 -62 -96 -126 -61 -161 22 -22 61 -20 121 8 64 30
71 51 44 126 -24 69 -48 75 -104 27z m83 -83 c0 -32 -100 -71 -123 -48 -12 12
17 66 51 94 l36 29 18 -27 c10 -15 18 -36 18 -48z"/>
<path d="M2803 12195 c-42 -29 -54 -181 -14 -173 12 3 16 15 17 48 1 78 4 89
22 99 13 7 28 5 50 -6 24 -12 36 -13 44 -5 8 8 1 16 -23 31 -40 25 -67 26 -96
6z"/>
<path d="M3368 12201 c-81 -16 -89 -56 -23 -121 50 -49 59 -80 23 -80 -30 0
-40 8 -67 53 -12 20 -26 37 -31 37 -19 0 -19 -20 2 -58 39 -71 112 -95 144
-47 23 35 12 67 -41 116 -25 23 -42 45 -39 48 3 3 27 11 52 16 30 7 47 15 47
25 0 18 -17 20 -67 11z"/>
<path d="M3891 12197 c-6 -8 -8 -17 -5 -20 4 -4 -7 -22 -25 -42 -58 -67 -23
-145 65 -145 36 0 94 61 94 100 0 33 -39 84 -81 105 -34 18 -34 18 -48 2z m90
-119 c-4 -12 -20 -31 -35 -42 -26 -20 -26 -20 -53 0 -39 29 -39 40 4 83 l38
39 27 -29 c21 -22 26 -34 19 -51z"/>
<path d="M14600 12200 c-8 -5 -12 -11 -9 -14 2 -3 11 -1 19 4 8 5 12 11 9 14
-2 3 -11 1 -19 -4z"/>
<path d="M4163 12180 c-18 -11 -33 -24 -33 -29 0 -5 -8 -8 -17 -7 -24 2 -67
-118 -48 -134 11 -9 17 -4 31 22 22 43 75 118 84 118 4 0 10 -25 13 -56 6 -61
35 -104 69 -104 26 0 22 25 -7 44 -22 14 -25 24 -25 72 0 53 -12 94 -28 94 -4
0 -22 -9 -39 -20z"/>
<path d="M8448 12158 c-29 -23 -57 -46 -61 -52 -4 -6 -5 6 -1 27 5 31 4 37
-12 37 -10 0 -38 -19 -61 -42 -43 -42 -57 -42 -27 0 16 23 13 52 -5 52 -14 0
-41 -53 -62 -125 -28 -89 -11 -93 61 -15 56 62 59 64 57 35 -3 -46 25 -43 80
10 77 75 80 75 79 -2 -1 -52 3 -68 16 -76 13 -9 21 -8 30 1 11 11 9 16 -6 27
-17 13 -18 19 -6 74 22 103 2 115 -82 49z"/>
<path d="M2617 12179 c-10 -6 -27 -31 -37 -55 -15 -35 -17 -50 -8 -74 7 -20
16 -30 27 -28 12 3 15 13 13 45 -5 56 11 83 48 83 36 0 41 25 8 34 -29 7 -30
7 -51 -5z"/>
<path d="M9238 12170 c-19 -14 -28 -16 -36 -8 -17 17 -28 3 -57 -72 -16 -41
-22 -67 -15 -74 11 -11 40 10 40 29 0 13 87 105 101 105 14 0 22 -68 11 -99
-8 -23 -7 -32 3 -41 20 -17 35 18 35 79 0 95 -29 124 -82 81z"/>
<path d="M10992 12184 c-29 -13 -33 -42 -10 -88 18 -37 19 -47 8 -60 -17 -21
-60 -20 -76 2 -9 13 -16 14 -24 6 -22 -22 -7 -48 34 -56 47 -10 86 6 104 44
11 24 10 33 -8 67 -11 22 -20 42 -20 45 0 3 19 6 43 8 29 2 42 8 42 18 0 11
-12 16 -40 17 -22 1 -46 0 -53 -3z"/>
<path d="M2341 12167 c-32 -16 -61 -73 -61 -118 0 -29 7 -43 31 -63 39 -33 80
-33 136 -1 49 30 76 73 67 110 -8 30 -61 65 -101 65 -16 0 -33 4 -39 10 -6 6
-18 5 -33 -3z m26 -54 c10 -13 16 -15 19 -5 7 16 54 15 78 -3 44 -34 -22 -109
-91 -103 -53 4 -72 38 -50 91 18 42 24 44 44 20z"/>
<path d="M9017 12173 c-2 -5 -12 -36 -22 -70 -15 -51 -16 -65 -5 -78 16 -19
30 -10 30 19 0 13 7 42 15 65 14 40 12 71 -5 71 -5 0 -11 -3 -13 -7z"/>
<path d="M11683 12162 c-35 -27 -73 -84 -73 -109 0 -39 40 -50 92 -24 41 20
44 20 55 4 28 -40 35 -46 43 -32 5 7 3 23 -2 35 -8 18 -7 34 6 68 18 48 14 75
-9 56 -9 -7 -16 -6 -25 5 -17 20 -60 19 -87 -3z m69 -26 c16 -12 16 -14 -5
-34 -26 -24 -76 -52 -95 -52 -18 0 14 55 47 81 28 22 31 23 53 5z"/>
<path d="M5938 12159 c-10 -6 -18 -15 -18 -21 0 -6 -11 -21 -25 -34 -35 -33
-42 -70 -18 -102 40 -54 121 -34 159 39 12 24 13 37 4 64 -6 18 -16 38 -23 43
-20 16 -61 21 -79 11z m61 -107 c-8 -15 -27 -33 -41 -42 -25 -13 -29 -13 -44
2 -23 23 -11 61 23 77 16 7 35 17 43 21 24 13 37 -26 19 -58z"/>
<path d="M7833 12149 c-59 -29 -87 -79 -80 -143 5 -52 36 -92 63 -82 7 3 14 0
16 -6 5 -13 68 -1 68 13 0 6 5 7 10 4 6 -3 10 1 10 11 0 14 -7 15 -45 10 -55
-9 -81 4 -88 43 -9 44 10 88 49 112 27 16 38 18 49 9 16 -13 35 -5 35 15 0 12
-28 35 -42 35 -2 0 -22 -9 -45 -21z"/>
<path d="M10834 12153 c-3 -10 -14 -42 -26 -71 -19 -50 -19 -82 1 -82 5 0 11
8 14 18 3 9 15 43 26 76 12 32 18 62 15 67 -9 15 -24 10 -30 -8z"/>
<path d="M8055 12118 c-48 -56 -57 -80 -44 -118 12 -33 38 -44 84 -36 32 6 85
56 85 81 0 28 -33 96 -51 105 -28 16 -35 13 -74 -32z m85 -63 c0 -33 -44 -69
-74 -61 -31 8 -34 35 -9 72 34 52 83 45 83 -11z"/>
<path d="M14251 12138 c-67 -45 -94 -105 -62 -137 60 -60 204 17 186 98 -12
58 -70 76 -124 39z m67 -24 c47 -13 18 -76 -44 -92 -69 -19 -83 11 -30 64 36
36 39 37 74 28z"/>
<path d="M2173 12017 c-24 -9 -30 -16 -24 -26 12 -19 75 -2 79 22 4 19 -9 20
-55 4z"/>
<path d="M3035 11880 c-3 -6 -5 -23 -4 -38 1 -15 -1 -34 -4 -42 -3 -8 -8 -27
-11 -41 -6 -27 -49 -53 -76 -47 -8 2 -16 -5 -18 -16 -3 -16 1 -17 35 -11 l39
6 -12 -73 c-14 -80 -11 -108 12 -108 12 0 15 10 13 38 -2 21 0 42 3 47 3 6 9
30 13 53 7 43 8 44 40 38 21 -4 36 -2 41 5 8 14 -13 29 -43 29 -19 0 -21 3
-13 33 15 53 16 129 3 134 -6 2 -14 -1 -18 -7z"/>
<path d="M2306 11698 c-19 -40 -39 -97 -47 -125 -7 -29 -16 -53 -20 -53 -14 0
-31 92 -27 140 4 38 1 53 -12 65 -26 23 -31 8 -24 -79 6 -86 18 -130 42 -158
32 -38 53 -17 78 80 20 77 50 142 66 142 7 0 19 4 27 9 12 8 12 12 0 27 -30
40 -48 29 -83 -48z"/>
<path d="M2545 11702 c-41 -25 -93 -87 -101 -119 -14 -56 53 -110 115 -94 40
11 38 31 -4 31 -64 0 -88 26 -69 74 5 12 10 13 26 5 27 -14 56 -6 97 29 31 26
33 30 21 53 -23 44 -40 48 -85 21z m50 -31 c7 -13 -34 -41 -60 -41 -18 1 -17
3 8 25 30 27 42 30 52 16z"/>
<path d="M3685 11693 c-57 -31 -60 -66 -9 -123 20 -21 33 -43 30 -48 -12 -20
-69 -23 -88 -5 -16 14 -21 15 -28 4 -21 -35 22 -58 88 -48 33 6 72 36 72 57 0
5 -19 30 -41 56 l-41 48 22 18 c22 18 29 20 85 22 19 1 30 6 30 16 0 22 -82
24 -120 3z"/>
<path d="M2800 11693 c-43 -16 -90 -82 -90 -128 0 -58 78 -85 141 -48 32 19
33 40 3 35 -74 -14 -101 -13 -108 3 -14 38 44 105 91 105 25 0 33 4 33 18 0
18 -38 26 -70 15z"/>
<path d="M3162 11656 c-58 -66 -62 -129 -11 -157 31 -16 105 14 124 51 28 54
9 120 -33 120 -7 0 -12 5 -12 10 0 22 -40 8 -68 -24z m47 -18 c46 -16 51 -24
39 -58 -16 -47 -98 -67 -98 -25 0 9 7 30 16 47 13 25 14 32 2 39 -19 13 0 11
41 -3z"/>
<path d="M3438 11661 c-13 -11 -32 -35 -43 -55 -13 -23 -25 -34 -38 -33 -17 2
-20 -6 -22 -55 -4 -80 14 -75 60 15 46 90 52 97 81 97 31 0 41 20 19 37 -24
17 -28 17 -57 -6z"/>
<path d="M2485 11171 c-16 -10 -37 -27 -46 -37 -42 -49 -50 -164 -14 -204 19
-21 66 -34 92 -26 19 6 45 51 35 61 -11 11 -43 5 -48 -10 -13 -33 -64 -9 -64
30 0 15 10 25 35 33 64 24 109 99 86 148 -13 29 -35 30 -76 5z m47 -47 c-4
-24 -57 -74 -78 -74 -23 0 -8 39 28 73 32 31 55 31 50 1z"/>
<path d="M2890 11166 c0 -10 -9 -16 -21 -16 -32 0 -76 -30 -95 -66 -15 -27
-16 -37 -6 -58 15 -33 37 -33 84 -1 l36 25 6 -28 c5 -27 10 -115 7 -139 0 -8
-15 -13 -33 -13 -18 0 -52 -9 -75 -19 -48 -22 -67 -66 -53 -126 17 -76 57
-107 111 -84 60 24 102 169 87 295 -5 38 -10 107 -12 154 -2 69 -6 86 -20 88
-9 2 -16 -3 -16 -12z m-21 -73 c-17 -23 -52 -52 -61 -53 -15 0 -8 26 12 48 12
12 30 22 42 22 18 0 19 -2 7 -17z m22 -328 c-20 -90 -75 -124 -106 -65 -30 58
-13 114 38 125 44 9 72 10 76 1 2 -5 -2 -32 -8 -61z"/>
<path d="M4615 10989 c-27 -39 -57 -75 -67 -80 -21 -11 -24 -49 -5 -49 12 0
68 60 106 113 14 19 15 18 33 -17 19 -38 70 -76 101 -76 28 0 20 18 -21 44
-37 23 -54 50 -66 109 -4 15 -12 27 -19 27 -6 -1 -34 -33 -62 -71z"/>
<path d="M3085 11019 c-7 -11 22 -49 37 -49 12 0 10 34 -4 48 -15 15 -25 15
-33 1z"/>
<path d="M2626 10991 c-6 -9 10 -61 18 -61 16 0 56 21 56 29 0 6 -13 17 -30
26 -34 18 -37 18 -44 6z"/>
<path d="M4667 10923 c-3 -4 -3 -21 -1 -38 6 -52 6 -944 -1 -1080 -16 -343
-27 -509 -31 -517 -11 -17 -23 -849 -14 -921 5 -40 9 -273 9 -517 1 -647 1
-669 13 -738 7 -47 7 -66 -2 -77 -6 -8 -8 -19 -4 -26 3 -6 8 -39 9 -73 3 -92
4 -96 20 -96 17 0 17 1 15 91 l-1 66 293 -1 c161 -1 358 1 438 3 80 3 546 3
1035 0 490 -2 973 -2 1075 2 102 3 251 3 332 1 l146 -5 4 -29 c3 -19 -2 -38
-14 -53 -19 -24 -24 -60 -10 -69 5 -3 25 6 45 19 48 33 187 105 203 105 7 0
14 4 16 10 2 6 349 12 943 15 l940 6 -39 -33 c-22 -18 -48 -40 -58 -48 -13
-11 -15 -19 -8 -30 8 -12 13 -11 37 8 15 12 56 43 90 69 35 27 63 53 63 58 0
6 -30 39 -65 75 -36 35 -65 71 -65 78 0 16 -32 12 -38 -5 -2 -7 24 -42 57 -76
64 -67 75 -85 40 -67 -11 7 -32 9 -45 6 -13 -4 -37 0 -52 8 -26 13 -78 13
-127 0 -19 -5 -424 -10 -1308 -17 -203 -1 -370 0 -372 4 -8 12 55 193 96 276
23 48 81 207 129 353 48 146 136 405 197 575 61 171 136 390 167 489 63 197
92 272 253 676 96 242 159 403 192 492 9 25 12 26 41 17 16 -6 39 -22 50 -36
11 -14 25 -23 31 -21 17 6 20 56 5 65 -19 12 -28 44 -15 59 8 10 8 18 1 27 -5
6 -11 33 -13 59 -4 40 -2 47 12 43 27 -9 49 5 68 44 35 69 -17 112 -69 56 -13
-14 -32 -25 -42 -25 -10 0 -18 -6 -18 -12 -1 -16 -90 -83 -90 -67 0 6 5 29 12
51 7 23 8 42 2 47 -5 5 -49 1 -99 -10 -49 -10 -100 -19 -112 -19 -37 0 -27
-32 27 -87 l50 -51 -78 -28 c-61 -23 -86 -38 -122 -77 -109 -117 -133 -138
-261 -223 -74 -50 -169 -115 -211 -145 -276 -193 -351 -243 -413 -280 -38 -23
-119 -76 -180 -117 -218 -149 -252 -171 -395 -252 -424 -240 -619 -365 -1068
-683 -95 -67 -221 -154 -280 -193 -59 -39 -205 -136 -324 -215 -119 -79 -273
-180 -342 -224 -244 -155 -486 -333 -486 -356 0 -5 -5 -9 -11 -9 -20 0 -89
-61 -82 -73 4 -6 0 -8 -10 -4 -9 3 -20 1 -24 -6 -7 -10 -124 -77 -136 -77 -15
0 -21 173 -25 700 -7 1020 -5 1379 12 1575 30 349 47 1319 28 1514 -6 58 -22
86 -35 64z m4418 -794 c11 -17 -1 -21 -15 -4 -8 9 -8 15 -2 15 6 0 14 -5 17
-11z m98 -47 c-3 -12 -9 -19 -14 -16 -5 3 -4 14 2 25 13 26 20 21 12 -9z m102
-1 c-10 -17 -88 -76 -84 -64 2 7 22 25 44 42 44 33 49 35 40 22z m-112 -113
c19 -13 43 -28 52 -34 17 -9 17 -13 2 -55 -35 -96 -179 -466 -270 -691 -53
-130 -128 -337 -168 -460 -39 -123 -103 -311 -142 -418 -118 -329 -328 -954
-330 -980 -1 -14 -6 -24 -12 -23 -12 3 -55 -78 -48 -90 3 -4 0 -14 -6 -21 -6
-7 -20 -42 -31 -79 l-20 -66 -62 34 c-34 18 -65 42 -69 53 -11 30 -28 36 -56
21 -22 -12 -24 -17 -18 -59 4 -25 8 -48 8 -52 2 -7 -720 -23 -953 -21 -210 2
-1861 3 -1895 1 -16 -1 -127 0 -245 1 l-215 2 55 32 c102 59 141 90 136 104
-3 8 -1 11 4 8 14 -9 50 13 50 31 0 8 4 13 9 9 5 -3 38 19 73 48 78 66 243
184 360 257 206 130 282 179 443 287 94 63 220 148 280 188 171 114 355 242
473 328 144 106 401 275 487 322 39 21 95 55 125 75 30 20 107 65 170 100 171
93 328 188 390 235 57 43 158 110 315 209 114 72 237 154 297 200 26 19 137
97 248 172 111 75 229 163 263 195 44 42 92 74 162 109 55 26 101 49 102 49 1
1 18 -9 36 -21z m167 -8 c0 -5 -5 -10 -11 -10 -5 0 -7 5 -4 10 3 6 8 10 11 10
2 0 4 -4 4 -10z m-1205 -2918 c-3 -3 -11 0 -18 7 -9 10 -8 11 6 5 10 -3 15 -9
12 -12z m-65 -97 c-7 -8 -17 -15 -22 -15 -6 0 -5 7 2 15 7 8 17 15 22 15 6 0
5 -7 -2 -15z"/>
<path d="M7080 9848 c0 -7 13 -20 29 -30 63 -35 131 -167 131 -251 0 -54 -40
-136 -86 -176 -38 -34 -43 -51 -15 -51 28 0 98 86 122 150 26 69 21 121 -19
211 -34 76 -108 159 -140 159 -12 0 -22 -6 -22 -12z"/>
<path d="M6296 9747 c-52 -54 -86 -141 -93 -233 -6 -81 6 -129 44 -175 42 -50
125 -79 164 -58 28 15 14 29 -30 29 -47 0 -97 32 -125 80 -48 82 -11 255 71
338 40 40 48 62 21 62 -6 0 -30 -19 -52 -43z"/>
<path d="M6888 9721 c-53 -34 -64 -49 -49 -64 8 -8 17 -5 33 10 54 49 106 55
93 11 -11 -37 -66 -120 -108 -165 -37 -39 -42 -63 -12 -63 7 0 25 14 38 31
l25 32 14 -29 c12 -26 18 -29 61 -28 53 0 90 25 69 46 -8 8 -15 8 -24 0 -7 -6
-26 -12 -43 -14 -26 -3 -30 1 -38 35 -8 33 -6 43 16 75 53 77 57 125 10 143
-34 13 -33 13 -85 -20z"/>
<path d="M6510 9713 c-97 -14 -93 -12 -85 -41 3 -15 9 -45 13 -67 7 -39 8 -40
52 -41 57 -2 112 -28 103 -49 -10 -26 -62 -47 -99 -40 -30 5 -34 3 -34 -15 0
-18 6 -20 54 -20 46 0 59 4 86 30 46 43 39 78 -20 108 -24 12 -59 22 -76 22
-29 0 -32 3 -36 35 -5 41 3 45 76 45 58 0 71 6 55 27 -11 13 -36 15 -89 6z"/>
<path d="M4903 9654 c-17 -13 -17 -15 -1 -27 15 -12 15 -19 2 -77 -18 -78 -23
-94 -29 -88 -3 3 -15 47 -28 99 -19 78 -26 94 -43 94 -12 0 -18 -6 -15 -15 38
-164 74 -250 105 -250 8 0 21 43 36 115 12 63 26 115 31 115 21 0 61 22 53 29
-18 16 -92 20 -111 5z"/>
<path d="M5337 9664 c-3 -3 -3 -21 0 -40 5 -33 4 -35 -36 -51 -49 -19 -48 -39
2 -35 35 3 36 2 39 -35 2 -26 8 -39 20 -41 15 -3 16 3 11 49 l-6 52 31 -6 c33
-7 52 7 34 25 -5 5 -22 11 -36 11 -23 2 -26 6 -26 40 0 34 -15 49 -33 31z"/>
<path d="M5607 9602 c-15 -37 -27 -76 -27 -87 -1 -11 -10 7 -21 40 -24 69 -34
84 -49 69 -7 -7 -2 -37 16 -95 35 -109 38 -112 90 -94 38 13 84 11 84 -4 0
-13 -38 -63 -59 -77 -28 -20 -27 -42 4 -54 39 -15 159 10 163 34 4 19 -2 19
-102 0 l-28 -6 26 38 c48 71 29 119 -44 112 -52 -5 -57 10 -29 85 21 55 24 58
52 55 44 -4 46 19 3 37 -19 8 -39 15 -44 15 -5 0 -21 -30 -35 -68z"/>
<path d="M5970 9598 c-14 -6 -36 -12 -50 -12 -36 -1 -41 -36 -4 -36 40 0 134
33 134 48 0 15 -46 15 -80 0z"/>
<path d="M6696 9531 c-3 -5 1 -25 9 -44 8 -20 12 -44 8 -54 -10 -30 -34 -52
-49 -46 -19 7 -31 -27 -13 -38 22 -14 29 -11 65 25 26 26 34 42 34 70 0 58
-36 116 -54 87z"/>
<path d="M6050 9522 c-36 -5 -123 -33 -134 -43 -6 -6 -6 -13 0 -19 6 -6 27 -4
59 6 28 9 75 19 105 22 41 5 56 11 58 24 3 18 -17 20 -88 10z"/>
<path d="M5008 9483 c-2 -5 -3 -53 -3 -108 0 -89 2 -100 18 -100 15 0 18 12
21 90 2 50 -1 98 -6 108 -9 18 -24 23 -30 10z"/>
<path d="M9603 9233 c-7 -3 -13 -11 -13 -18 0 -14 66 -77 101 -95 22 -12 21
-14 -42 -70 -49 -45 -61 -61 -52 -70 18 -20 153 103 153 139 0 6 -20 22 -45
37 -25 14 -55 38 -68 54 -12 15 -28 25 -34 23z"/>
<path d="M11317 9203 c-9 -8 12 -33 28 -33 19 0 81 -75 110 -134 40 -79 35
-145 -17 -245 -23 -44 -52 -92 -66 -106 -22 -24 -24 -55 -4 -55 15 0 57 60
103 149 39 74 44 91 44 150 0 52 -6 78 -28 123 -48 99 -141 181 -170 151z"/>
<path d="M10463 9093 c-24 -27 -52 -66 -63 -88 -26 -53 -42 -140 -34 -184 17
-99 129 -181 207 -152 42 16 32 31 -22 31 -168 0 -205 219 -61 369 46 49 55
71 28 71 -6 0 -31 -21 -55 -47z"/>
<path d="M9475 9121 c-28 -4 -41 -11 -43 -25 -4 -17 0 -18 45 -11 26 4 74 9
106 10 62 3 73 7 62 24 -7 12 -101 13 -170 2z"/>
<path d="M10667 9054 c-39 -38 -44 -49 -26 -60 6 -3 28 11 50 32 l39 38 0 -29
c0 -39 -60 -126 -111 -159 -23 -16 -39 -34 -39 -46 0 -32 17 -32 52 -1 l34 30
11 -30 c13 -35 49 -51 81 -36 24 11 26 45 1 38 -36 -9 -44 -5 -52 29 -8 31 -5
41 27 89 74 110 22 192 -67 105z"/>
<path d="M11117 9056 c-20 -18 -37 -38 -37 -44 0 -25 22 -21 51 7 63 64 62 27
-4 -82 -23 -40 -50 -73 -64 -78 -30 -11 -51 -55 -35 -71 9 -9 18 -6 36 11 20
19 28 21 45 11 33 -17 105 -9 109 12 3 15 -4 17 -42 16 -54 -3 -65 6 -46 35
60 95 71 118 77 150 11 71 -31 87 -90 33z"/>
<path d="M10036 8926 c-82 -10 -113 -24 -87 -40 8 -5 229 13 239 19 1 1 0 10
-4 19 -7 18 -18 18 -148 2z"/>
<path d="M9383 8859 c-8 -8 -6 -23 7 -57 10 -26 30 -80 45 -119 20 -54 32 -73
45 -73 26 0 50 69 50 145 l0 65 34 0 c44 0 66 9 66 26 0 10 -15 14 -58 14 -67
0 -83 -11 -75 -51 7 -35 -5 -139 -16 -139 -11 0 -55 137 -56 170 0 27 -23 38
-42 19z"/>
<path d="M10854 8859 c-3 -6 -1 -16 5 -22 21 -21 12 -64 -20 -96 -30 -30 -31
-51 -4 -51 21 0 65 63 72 103 8 54 -30 103 -53 66z"/>
<path d="M10060 8840 c-30 -4 -67 -5 -81 -3 -30 6 -49 -14 -28 -28 13 -9 215
-2 232 8 4 3 3 11 -4 19 -12 15 -31 16 -119 4z"/>
<path d="M9617 8693 c-40 -40 -43 -48 -26 -59 6 -3 26 8 44 26 l34 33 -13 -54
c-8 -36 -30 -77 -64 -125 -29 -39 -52 -76 -52 -82 0 -27 24 -21 52 13 l31 37
24 -31 c17 -21 33 -31 51 -31 33 0 72 25 72 46 0 15 -25 19 -34 5 -15 -24 -46
-18 -72 16 -24 32 -25 35 -9 53 32 35 61 180 36 180 -5 0 -16 2 -24 5 -8 4
-29 -10 -50 -32z"/>
<path d="M12257 7573 c-4 -3 -7 -14 -7 -23 0 -20 -47 -169 -59 -188 -4 -8 -33
-17 -62 -20 -38 -5 -54 -11 -54 -22 0 -12 11 -14 48 -12 26 2 47 2 47 0 0 -2
-9 -32 -20 -68 -23 -74 -26 -124 -8 -118 6 2 15 15 19 29 4 13 17 57 29 97
l21 74 40 -7 c32 -6 39 -4 39 9 0 18 -39 37 -54 28 -5 -3 -7 2 -3 11 26 68 58
189 53 202 -6 16 -18 19 -29 8z"/>
<path d="M11597 7534 c-3 -3 -4 -19 0 -34 7 -39 -34 -159 -55 -162 -9 -1 -24
-2 -32 -4 -8 -1 -21 -2 -28 -3 -25 -2 -6 -26 22 -28 16 -1 30 -4 33 -7 3 -2
-2 -37 -12 -77 -10 -46 -12 -76 -6 -82 12 -12 31 0 31 20 0 8 7 46 17 84 18
74 11 69 111 84 29 5 42 12 42 22 0 13 -10 15 -60 10 -33 -4 -60 -5 -60 -3 0
1 9 29 20 61 14 41 18 67 12 88 -8 30 -22 43 -35 31z"/>
<path d="M13527 7513 c-3 -5 -12 -33 -21 -63 -8 -30 -24 -86 -36 -125 -28 -98
-26 -165 6 -165 10 0 14 15 14 59 0 53 7 82 61 248 10 33 6 53 -11 53 -5 0
-11 -3 -13 -7z"/>
<path d="M12812 7348 c-16 -16 -15 -48 3 -91 13 -33 13 -37 -6 -61 -25 -31
-49 -35 -42 -6 6 24 -9 26 -31 4 -21 -21 -20 -41 3 -54 31 -16 48 -12 86 21
39 34 46 74 20 119 -8 14 -14 28 -15 31 0 13 44 18 57 7 21 -17 41 6 23 27
-15 18 -81 20 -98 3z"/>
<path d="M13620 7337 c-63 -42 -89 -118 -60 -172 7 -14 32 -32 55 -41 35 -13
52 -14 106 -4 88 15 99 19 99 36 0 17 -2 17 -88 2 -73 -12 -111 -7 -136 18
-24 24 -20 54 7 54 32 0 99 41 116 72 31 54 -36 78 -99 35z m70 -17 c0 -12
-59 -50 -78 -50 -19 0 -5 19 32 41 35 21 46 24 46 9z"/>
<path d="M11140 7320 c-14 -11 -33 -17 -43 -14 -13 4 -25 -10 -52 -68 -19 -40
-35 -78 -35 -85 0 -23 27 -14 45 15 27 40 87 113 91 109 2 -2 -3 -25 -12 -51
-19 -54 -12 -92 17 -101 29 -9 35 1 19 31 -13 23 -12 33 9 90 32 89 17 118
-39 74z"/>
<path d="M13043 7315 c-61 -26 -114 -143 -82 -181 21 -26 56 -35 84 -22 34 16
26 33 -16 33 -31 0 -34 3 -37 30 -4 42 35 97 78 111 19 6 36 19 38 28 4 20
-21 20 -65 1z"/>
<path d="M13196 7309 c-34 -26 -49 -55 -41 -78 7 -24 57 -45 91 -38 20 3 27
-1 34 -19 5 -13 15 -24 23 -24 16 0 16 102 0 141 -19 44 -64 52 -107 18z m77
-39 c9 -34 -51 -62 -74 -34 -12 14 -10 19 14 40 30 25 52 23 60 -6z"/>
<path d="M11350 7310 c-7 -4 -19 -6 -26 -3 -18 7 -65 -61 -71 -104 -10 -78 63
-95 124 -30 35 37 45 69 33 102 -11 29 -41 47 -60 35z m30 -64 c0 -13 -12 -35
-26 -50 -28 -27 -74 -36 -74 -13 0 27 38 82 61 88 31 8 39 3 39 -25z"/>
<path d="M12361 7284 c-85 -71 -45 -188 47 -140 59 31 80 96 46 144 -20 29
-55 28 -93 -4z m74 -34 c11 -35 -28 -80 -69 -80 -23 0 -20 42 5 74 24 31 55
34 64 6z"/>
<path d="M6170 6816 c0 -13 90 -86 123 -100 7 -3 -8 -23 -35 -48 -46 -42 -62
-78 -35 -78 19 0 129 120 125 137 -2 9 -18 21 -37 28 -18 6 -50 25 -71 43 -41
34 -70 41 -70 18z"/>
<path d="M8648 6758 c-8 -13 -24 -44 -36 -70 -17 -40 -25 -48 -47 -48 -43 0
-89 -27 -109 -65 -22 -41 -19 -135 7 -162 14 -17 13 -26 -19 -117 -35 -102
-36 -136 -4 -136 21 0 33 23 19 37 -6 6 1 39 18 89 l28 79 57 1 c104 3 158 35
158 94 0 37 -32 82 -73 105 -21 11 -37 24 -37 30 0 6 18 46 40 90 22 44 40 83
40 87 0 17 -28 7 -42 -14z m-104 -195 c0 -21 -11 -60 -23 -87 -27 -60 -45 -51
-45 24 0 38 5 55 24 75 33 35 46 31 44 -12z m86 -28 c34 -18 50 -43 50 -80 0
-32 -47 -55 -110 -55 -37 0 -41 2 -35 21 11 33 56 129 61 129 3 0 18 -7 34
-15z"/>
<path d="M8807 6723 c-13 -13 -6 -21 36 -46 63 -37 114 -97 121 -143 13 -75
-57 -256 -112 -292 -22 -14 -25 -14 -33 1 -13 22 -47 40 -60 31 -11 -7 59 -84
77 -84 19 0 84 70 108 118 51 100 69 207 45 269 -13 37 -63 88 -118 124 -48
31 -54 33 -64 22z"/>
<path d="M7672 6695 c-17 -14 -47 -55 -67 -91 -66 -121 -81 -233 -46 -356 28
-101 102 -188 160 -188 33 0 24 25 -13 38 -44 16 -92 80 -113 151 -24 83 -15
219 20 296 35 75 72 124 104 136 13 5 23 15 20 22 -7 22 -34 19 -65 -8z"/>
<path d="M5985 6700 c-80 -4 -100 -8 -100 -20 0 -13 22 -14 155 -11 140 3 180
10 180 30 0 8 -85 8 -235 1z"/>
<path d="M8020 6622 c-96 -3 -120 -9 -120 -28 0 -14 9 -15 65 -9 70 7 81 -1
38 -27 -43 -25 -76 -65 -70 -82 4 -11 19 -16 46 -16 65 0 92 -60 51 -112 -31
-40 -69 -51 -116 -36 -28 9 -40 19 -42 36 -4 28 -28 29 -35 1 -9 -32 1 -46 44
-63 74 -30 145 -11 184 48 36 54 12 136 -47 160 l-27 12 59 43 c55 40 72 65
53 73 -5 2 -42 2 -83 0z"/>
<path d="M6834 6526 c-4 -9 -3 -20 1 -24 3 -4 91 -7 193 -7 160 0 187 2 187
15 0 13 -26 15 -170 15 -93 0 -178 4 -187 9 -13 6 -20 3 -24 -8z"/>
<path d="M5985 6501 c-5 -9 15 -68 73 -209 27 -68 47 -91 63 -75 12 12 29 113
29 175 l0 47 60 7 c41 4 60 11 60 20 0 11 -19 14 -80 14 l-80 0 0 -102 c0 -59
-4 -98 -9 -92 -14 14 -71 178 -71 202 0 15 -6 22 -19 22 -11 0 -22 -4 -26 -9z"/>
<path d="M6833 6416 c-16 -25 32 -33 202 -33 139 -1 175 2 175 12 0 9 -22 15
-72 19 -132 10 -300 12 -305 2z"/>
<path d="M8184 6389 c-3 -6 -1 -16 5 -22 16 -16 13 -63 -5 -81 -18 -19 -45
-21 -62 -4 -16 16 -35 -3 -30 -28 4 -25 46 -29 91 -10 27 11 38 23 46 50 17
62 -18 137 -45 95z"/>
<path d="M6380 6348 c0 -1 -2 -61 -3 -132 -2 -112 0 -130 15 -140 25 -15 47 7
29 28 -8 10 -13 55 -14 127 -2 80 -6 114 -14 116 -7 3 -13 3 -13 1z"/>
<path d="M13295 5841 c-79 -58 -140 -170 -169 -315 -53 -257 -11 -461 114
-548 30 -21 59 -37 64 -35 22 7 9 27 -37 56 -84 54 -127 160 -127 316 0 245
95 485 204 513 17 5 31 15 31 23 0 25 -39 21 -80 -10z"/>
<path d="M12007 5833 c-16 -15 -4 -29 38 -46 25 -11 45 -24 45 -31 0 -16 -120
-85 -145 -83 -25 2 -34 -40 -11 -49 16 -6 192 93 200 114 9 22 -17 53 -66 78
-53 27 -52 27 -61 17z"/>
<path d="M14298 5793 c-8 -10 -30 -46 -49 -80 l-33 -63 -56 3 c-31 2 -62 7
-68 11 -19 11 -35 -3 -21 -20 9 -11 6 -20 -13 -42 -43 -51 -53 -88 -39 -141 6
-25 22 -55 34 -66 21 -19 22 -22 8 -73 -10 -38 -11 -56 -3 -64 15 -15 32 -1
32 27 0 54 15 72 67 77 59 6 126 47 143 89 18 42 7 104 -26 146 l-27 36 24 46
c13 25 34 60 47 79 30 45 14 74 -20 35z m-110 -181 c-1 -4 -25 -52 -52 -106
-43 -86 -51 -96 -64 -82 -8 8 -17 36 -19 63 -4 44 -2 52 32 91 30 34 43 42 72
42 19 0 33 -4 31 -8z m81 -82 c10 -33 9 -45 -3 -69 -15 -29 -86 -71 -119 -71
-27 0 -20 26 30 121 43 81 48 88 63 74 9 -9 22 -33 29 -55z"/>
<path d="M7640 5739 c-33 -24 -51 -49 -80 -112 -21 -45 -41 -96 -44 -113 -6
-28 -13 -33 -59 -45 -33 -9 -52 -20 -52 -29 0 -16 9 -16 61 -5 l32 7 -19 -68
c-11 -38 -17 -74 -15 -81 3 -7 1 -15 -4 -18 -13 -8 -13 -45 0 -45 14 0 25 28
51 128 18 68 26 85 45 92 28 11 31 25 7 38 -15 9 -14 17 12 88 35 97 88 159
129 148 21 -5 26 -3 26 14 0 18 -18 32 -39 32 -5 0 -27 -14 -51 -31z"/>
<path d="M6022 5743 c-10 -19 -20 -77 -29 -158 -3 -27 -9 -58 -14 -67 -5 -9
-9 -25 -9 -36 0 -24 -18 -32 -74 -32 -49 0 -87 -22 -70 -40 9 -9 17 -9 32 -1
29 15 92 14 92 -1 0 -7 -12 -40 -25 -73 -17 -41 -21 -63 -14 -70 18 -18 52 48
73 145 5 23 9 25 50 22 39 -3 44 -1 42 15 -3 14 -11 18 -41 16 -36 -3 -37 -2
-31 25 10 44 47 236 49 251 3 21 -20 24 -31 4z"/>
<path d="M11767 5744 c-4 -4 -7 -11 -7 -15 0 -12 80 -31 104 -25 11 3 39 1 61
-4 28 -6 42 -6 47 3 13 21 -11 31 -80 33 -37 2 -79 5 -92 9 -14 3 -29 3 -33
-1z"/>
<path d="M10127 5723 c-4 -3 -7 -13 -7 -22 0 -9 -7 -51 -17 -93 -16 -74 -19
-78 -48 -83 -16 -3 -39 -4 -50 -2 -12 1 -20 -4 -20 -13 0 -11 13 -16 46 -18
l46 -3 -13 -67 c-19 -95 -18 -162 1 -162 10 0 15 10 15 28 0 15 7 66 16 115
l16 87 32 0 c18 0 37 5 44 12 13 13 16 50 6 61 -10 9 -34 -4 -34 -19 0 -8 -9
-14 -20 -14 -24 0 -24 2 -6 61 13 42 20 93 17 127 -1 13 -14 16 -24 5z"/>
<path d="M14464 5718 c-4 -7 2 -18 17 -27 90 -58 137 -154 125 -257 -17 -143
-73 -239 -149 -251 -36 -5 -37 -6 -17 -20 31 -22 68 -8 115 41 55 57 80 140
80 267 0 89 -2 99 -30 144 -28 45 -104 115 -125 115 -5 0 -12 -5 -16 -12z"/>
<path d="M5545 5701 c-3 -6 -4 -74 -3 -153 3 -132 1 -146 -20 -190 -25 -51
-50 -65 -82 -48 -41 22 -11 91 42 94 33 1 29 30 -4 34 -37 4 -87 -43 -93 -87
-5 -44 30 -81 78 -81 52 0 83 35 106 120 16 59 11 320 -6 320 -6 0 -14 -4 -18
-9z"/>
<path d="M3850 5691 c-14 -5 -56 -10 -95 -10 -73 -1 -102 -11 -91 -30 10 -15
59 -14 180 4 73 11 116 13 151 6 53 -10 79 -1 57 21 -14 14 -167 21 -202 9z"/>
<path d="M5325 5677 c-12 -19 -15 -51 -14 -149 2 -135 -8 -173 -49 -194 -13
-6 -33 -9 -43 -7 -30 8 -22 64 11 80 32 16 32 38 0 38 -29 0 -70 -55 -70 -95
0 -89 131 -76 172 18 18 40 20 58 14 151 -5 85 -3 112 9 135 24 45 -2 66 -30
23z"/>
<path d="M8310 5683 c-1 -10 -13 -63 -29 -118 -33 -117 -44 -127 -136 -123
-49 2 -60 0 -63 -13 -2 -14 7 -18 47 -20 28 -2 64 -1 81 2 30 7 31 6 24 -25
-27 -119 -31 -156 -18 -167 11 -9 16 -5 24 16 5 14 10 35 10 46 0 11 7 49 16
84 16 63 17 64 48 62 41 -3 49 15 11 27 -16 6 -31 11 -33 12 -2 1 11 50 27
109 17 58 29 111 26 116 -10 16 -35 10 -35 -8z"/>
<path d="M4077 5573 c-15 -60 -41 -137 -57 -172 -17 -34 -27 -67 -24 -72 11
-19 30 -7 62 42 39 59 75 80 98 57 13 -13 14 -22 5 -54 -15 -53 -14 -84 3 -84
18 0 24 17 32 94 6 60 5 65 -16 76 -13 7 -40 10 -60 7 l-37 -5 28 101 c16 55
26 104 23 109 -16 26 -32 -2 -57 -99z"/>
<path d="M5745 5659 c-8 -12 24 -51 36 -43 5 3 9 16 9 30 0 17 -5 24 -19 24
-11 0 -23 -5 -26 -11z"/>
<path d="M13483 5660 c-13 -5 -23 -16 -23 -23 0 -11 15 -13 73 -10 l72 5 -48
-31 c-41 -26 -47 -34 -37 -46 7 -8 21 -15 32 -15 30 0 75 -27 81 -50 5 -21 -6
-74 -22 -99 -10 -15 -71 -27 -118 -23 -25 2 -33 8 -33 23 0 22 -4 23 -31 9
-56 -30 19 -75 113 -68 64 5 92 23 114 75 30 69 12 126 -48 156 l-28 14 50 24
c48 23 63 46 38 53 -31 10 -165 14 -185 6z"/>
<path d="M3905 5618 c-7 -24 -57 -222 -67 -271 -8 -34 -8 -51 0 -59 16 -16 32
0 32 32 0 15 9 56 19 91 29 96 52 200 45 210 -8 13 -24 11 -29 -3z"/>
<path d="M6214 5615 c-6 -15 2 -35 14 -35 4 0 13 4 21 9 12 8 12 12 2 25 -17
20 -30 20 -37 1z"/>
<path d="M12056 5543 c-17 -9 -40 -13 -58 -9 -34 7 -33 8 -52 -99 -8 -44 -20
-93 -26 -110 l-12 -30 -15 35 c-9 19 -20 61 -27 92 -12 61 -30 89 -45 73 -11
-11 19 -135 49 -202 41 -93 84 -32 115 160 3 20 11 37 18 37 31 0 86 22 91 37
10 26 -6 33 -38 16z"/>
<path d="M9366 5528 c-15 -23 -24 -58 -47 -176 -6 -34 -16 -65 -21 -68 -5 -3
-19 5 -31 18 -19 21 -21 31 -16 83 3 33 2 64 -2 69 -13 15 -41 -2 -35 -21 3
-10 6 -40 7 -68 3 -89 47 -142 93 -111 24 15 37 52 57 169 13 78 30 101 67 92
75 -19 84 -19 80 1 -4 21 -34 32 -95 33 -34 1 -46 -4 -57 -21z"/>
<path d="M10555 5531 c-30 -14 -47 -31 -65 -64 -13 -25 -32 -48 -41 -50 -11
-3 -18 -21 -22 -63 -9 -89 15 -95 43 -10 22 70 73 146 100 152 46 10 52 14 48
31 -4 23 -17 24 -63 4z"/>
<path d="M4324 5511 c-35 -21 -64 -83 -64 -137 0 -67 33 -96 110 -100 47 -2
80 9 80 27 0 8 -15 9 -44 5 -68 -10 -115 21 -116 77 0 4 9 7 20 7 48 0 100 44
100 84 0 16 -34 56 -47 56 -5 0 -22 -9 -39 -19z m46 -41 c0 -11 -12 -26 -30
-35 -40 -21 -43 -19 -25 14 21 42 55 55 55 21z"/>
<path d="M10813 5504 c-7 -3 -11 -11 -9 -17 1 -7 1 -9 -1 -4 -13 22 -83 -21
-83 -52 0 -10 10 -40 21 -66 21 -47 21 -49 3 -62 -41 -30 -115 -6 -100 32 3 9
2 13 -4 10 -6 -3 -10 -1 -10 5 0 6 -4 8 -10 5 -12 -7 -13 -55 -2 -72 13 -20
65 -35 102 -28 70 13 88 60 50 134 -22 43 -18 51 34 71 24 9 32 7 48 -6 15
-14 21 -15 31 -5 9 10 6 17 -16 37 -29 25 -33 26 -54 18z"/>
<path d="M4962 5480 c-36 -22 -72 -74 -72 -106 0 -41 44 -54 100 -30 10 4 21
-4 32 -25 22 -38 52 -36 56 4 2 19 -1 27 -12 27 -19 0 -21 23 -5 52 6 11 12
33 14 49 3 24 -1 32 -21 39 -37 14 -55 12 -92 -10z m70 -50 c-14 -25 -76 -70
-96 -70 -3 0 -6 9 -6 21 0 32 53 79 89 79 l30 0 -17 -30z"/>
<path d="M9532 5463 c-51 -49 -67 -101 -46 -153 17 -41 47 -60 98 -60 41 0 96
18 96 32 0 6 -6 5 -15 -2 -18 -15 -20 1 -2 19 10 11 9 12 -2 6 -24 -14 -86
-24 -109 -18 -13 3 -27 15 -31 26 -6 17 -1 24 33 42 23 13 40 28 38 35 -1 6 2
9 7 6 26 -17 45 60 21 89 -20 24 -47 18 -88 -22z m68 -16 c0 -16 -35 -49 -68
-67 -22 -11 -23 -10 -12 12 28 53 80 89 80 55z"/>
<path d="M10274 5484 c-37 -16 -84 -68 -84 -94 0 -33 22 -68 49 -80 35 -14 71
-1 101 37 28 36 23 95 -12 128 -21 21 -26 21 -54 9z m44 -77 c7 -58 -54 -87
-85 -41 -12 18 -11 24 8 48 29 37 73 33 77 -7z"/>
<path d="M5670 5433 c-33 -87 -37 -116 -16 -112 11 3 25 26 38 64 11 33 24 65
30 72 5 7 7 17 3 23 -15 24 -35 6 -55 -47z"/>
<path d="M12645 5481 c-62 -5 -80 -9 -80 -21 0 -15 9 -16 143 -11 26 0 41 5
37 11 -3 6 1 10 9 10 9 0 16 5 16 10 0 6 -10 9 -22 8 -13 -1 -59 -4 -103 -7z"/>
<path d="M6497 5474 c-4 -4 -7 -22 -7 -40 0 -19 -15 -60 -35 -97 -19 -35 -32
-67 -28 -70 15 -16 34 -3 83 56 66 79 82 89 69 45 -14 -52 -11 -74 17 -107 18
-21 35 -31 54 -31 39 0 60 9 60 27 0 12 -7 14 -32 9 -59 -12 -81 32 -57 118 9
32 8 41 -5 54 -13 13 -17 13 -39 -1 -13 -8 -31 -23 -40 -31 -13 -14 -16 -14
-21 -1 -3 8 -1 15 5 15 6 0 9 12 7 27 -3 26 -18 39 -31 27z"/>
<path d="M9787 5460 c-73 -58 -73 -142 0 -179 28 -14 90 -14 99 0 7 13 -15 31
-29 22 -13 -8 -54 5 -71 23 -9 8 -16 26 -16 38 0 31 35 74 63 78 12 2 22 10
22 18 0 23 -38 23 -68 0z"/>
<path d="M6240 5441 c-39 -38 -47 -75 -27 -117 41 -86 146 -28 147 82 0 49
-14 64 -58 64 -24 0 -42 -8 -62 -29z m85 -50 c-11 -57 -23 -73 -53 -69 -22 2
-28 9 -30 35 -4 42 34 85 68 76 19 -5 21 -10 15 -42z"/>
<path d="M7309 5453 c-1 -5 -1 -11 0 -15 0 -5 -3 -8 -9 -8 -5 0 -13 0 -17 -1
-14 -1 -54 -43 -69 -71 -40 -76 16 -145 88 -107 34 18 56 82 47 137 -4 26 -8
53 -8 60 -1 13 -30 17 -32 5z m11 -88 c0 -51 -44 -106 -71 -89 -16 10 -9 61
12 88 27 34 59 35 59 1z"/>
<path d="M8590 5435 c-7 -9 -13 -30 -12 -46 1 -50 -14 -79 -43 -79 -17 0 -25
5 -25 18 0 10 -6 27 -14 37 -13 18 -15 16 -41 -26 -30 -47 -42 -59 -62 -59
-18 0 -16 22 7 87 19 54 15 84 -8 69 -16 -10 -42 -96 -42 -137 0 -64 51 -76
100 -24 21 23 24 23 47 8 20 -13 30 -14 63 -4 43 13 45 16 54 114 6 58 -1 70
-24 42z"/>
<path d="M6122 5428 c-14 -19 -38 -110 -34 -130 2 -10 12 -18 23 -18 14 0 19
6 18 18 -4 24 11 95 23 109 10 12 3 33 -11 33 -5 0 -13 -6 -19 -12z"/>
<path d="M8713 5425 c-33 -23 -57 -94 -43 -130 6 -16 17 -33 23 -37 35 -22
120 5 132 42 3 11 -3 39 -14 65 -11 26 -20 52 -18 58 3 18 -55 20 -80 2z m60
-60 c24 -50 21 -61 -14 -74 -55 -19 -75 18 -44 79 20 39 38 38 58 -5z"/>
<path d="M13744 5429 c-3 -6 -1 -21 6 -34 19 -36 -11 -89 -62 -110 -37 -15
-40 -18 -26 -32 15 -14 20 -13 55 7 47 26 73 66 73 110 0 52 -28 88 -46 59z"/>
<path d="M12505 5380 c-4 -6 -3 -16 1 -20 11 -11 227 -15 243 -5 15 9 5 24
-17 24 -9 0 -63 3 -118 7 -75 5 -103 3 -109 -6z"/>
<path d="M12167 5374 c-4 -4 -7 -32 -7 -63 0 -53 -8 -97 -24 -149 -7 -21 -5
-23 15 -20 28 4 36 35 41 152 3 74 -5 99 -25 80z"/>
<path d="M3425 5280 c-10 -16 13 -38 53 -51 54 -17 56 -19 30 -37 -17 -13 -50
-17 -147 -18 -79 0 -126 -5 -128 -11 -7 -20 20 -26 115 -24 l95 1 -18 -26
c-12 -19 -14 -29 -6 -37 8 -8 21 1 48 29 21 21 56 54 78 71 l40 32 -23 21
c-13 11 -41 24 -63 30 -21 6 -41 15 -44 20 -8 13 -22 13 -30 0z"/>
<path d="M11107 5274 c-3 -4 -4 -26 0 -50 6 -43 5 -44 -30 -59 -42 -17 -83
-20 -92 -5 -11 18 -26 10 -23 -12 3 -20 10 -23 58 -26 71 -3 116 22 125 70 10
50 -16 104 -38 82z"/>
<path d="M15795 5246 c-9 -13 -30 -68 -49 -122 l-33 -99 -49 -5 c-35 -4 -49
-9 -49 -20 0 -11 10 -14 43 -12 23 1 42 1 42 -2 0 -2 -9 -34 -21 -71 -20 -66
-22 -112 -5 -108 6 1 22 41 36 89 14 48 30 89 35 90 6 1 27 5 48 9 52 8 51 35
-2 35 l-40 0 31 93 c17 50 37 100 45 109 15 17 10 38 -7 38 -5 0 -17 -11 -25
-24z"/>
<path d="M4945 5162 c-81 -59 -145 -218 -145 -360 0 -110 43 -193 122 -233 22
-11 37 -16 33 -10 -3 6 -1 11 4 11 6 0 11 -5 11 -11 0 -5 5 -7 10 -4 17 10 11
23 -12 30 -67 21 -120 91 -133 176 -10 66 20 211 57 281 37 69 67 98 110 107
39 8 45 35 8 39 -16 2 -41 -8 -65 -26z"/>
<path d="M13856 5148 c-8 -13 -26 -53 -41 -90 l-27 -67 -56 -3 c-43 -2 -57 -7
-57 -18 0 -12 10 -14 48 -12 26 2 47 2 47 -1 0 -2 -7 -24 -15 -47 -34 -95 -11
-140 71 -140 52 0 74 8 74 26 0 10 -12 12 -47 8 -33 -4 -54 -1 -67 9 -18 13
-18 15 0 78 l19 63 74 13 c74 12 106 27 95 45 -4 5 -18 6 -33 2 -14 -4 -45
-10 -69 -14 -50 -8 -50 -7 -1 96 16 34 29 65 29 68 0 15 -31 4 -44 -16z"/>
<path d="M6111 5151 c-20 -13 -6 -44 17 -37 48 16 115 -90 114 -178 0 -76 -36
-175 -93 -261 -41 -61 -54 -74 -65 -64 -11 9 -15 8 -20 -5 -6 -16 19 -45 38
-46 14 0 100 124 128 186 61 130 63 249 5 336 -36 55 -95 87 -124 69z"/>
<path d="M7775 5150 c-3 -6 -4 -14 -1 -18 3 -5 1 -78 -3 -162 -4 -85 -6 -163
-3 -173 8 -32 33 -14 67 48 41 77 57 77 68 0 8 -57 23 -83 39 -67 10 10 -10
132 -24 149 -19 23 -65 15 -86 -14 -10 -16 -22 -35 -25 -43 -5 -14 -3 36 7
196 3 38 1 74 -2 80 -10 13 -30 15 -37 4z"/>
<path d="M11447 5148 c-6 -23 -34 -101 -63 -175 -31 -80 -37 -83 -157 -83 -50
0 -58 -2 -55 -17 3 -16 15 -18 86 -17 45 1 82 -2 82 -6 0 -4 -7 -29 -15 -56
-17 -57 -20 -114 -5 -114 14 0 25 29 44 115 12 53 23 76 43 93 26 21 27 24 11
35 -15 12 -14 19 17 88 37 81 48 139 28 146 -7 3 -15 -1 -16 -9z"/>
<path d="M2536 5141 c-3 -5 0 -13 7 -19 8 -7 12 -52 12 -156 -1 -166 -11 -193
-79 -210 -51 -13 -63 1 -47 53 10 36 39 68 87 97 14 9 16 15 8 24 -9 9 -19 8
-42 -4 -60 -31 -110 -124 -92 -171 28 -74 155 -43 188 45 6 14 11 92 13 174 4
137 2 149 -16 162 -22 16 -32 18 -39 5z"/>
<path d="M10389 5118 c-40 -43 -69 -99 -89 -173 l-17 -60 -101 0 c-88 0 -104
-3 -131 -23 -18 -13 -35 -38 -42 -62 -24 -78 42 -117 119 -70 25 15 32 26 32
51 0 16 -4 39 -10 49 -11 21 8 34 31 19 8 -5 31 -9 52 -9 l39 0 -7 -42 c-4
-24 -12 -51 -17 -62 -12 -22 2 -39 25 -30 9 3 17 17 17 30 0 13 5 44 12 69 11
42 15 45 44 45 30 0 33 3 32 31 -1 28 -4 30 -28 27 l-28 -4 15 50 c17 57 40
99 77 140 20 21 31 25 52 20 22 -6 25 -4 22 12 -2 13 -13 20 -36 22 -26 3 -38
-3 -63 -30z m-281 -290 c5 -7 13 -23 17 -36 5 -19 1 -25 -30 -38 -20 -8 -40
-12 -45 -9 -15 9 -12 48 6 73 17 25 37 28 52 10z"/>
<path d="M7526 5062 l-26 -78 -48 0 c-35 1 -47 -3 -47 -14 0 -11 13 -16 46
-18 43 -3 46 -5 41 -27 -2 -14 -1 -55 3 -92 9 -81 42 -123 97 -123 38 0 78 24
78 46 0 15 -25 19 -34 5 -13 -21 -59 -19 -83 5 -20 20 -23 32 -23 104 l0 80
29 0 c34 0 91 30 91 48 0 19 -30 14 -31 -5 0 -10 -3 -13 -5 -7 -4 9 -13 9 -34
1 -16 -6 -32 -8 -36 -5 -3 4 4 33 16 65 28 74 29 86 9 91 -13 2 -23 -15 -43
-76z"/>
<path d="M11548 5133 c-3 -4 -6 -25 -7 -45 -2 -48 -33 -149 -71 -234 -17 -36
-27 -70 -24 -75 10 -17 31 -9 45 17 14 28 65 74 80 74 5 0 8 -35 7 -80 -2 -47
1 -80 7 -80 5 -1 16 32 23 72 17 95 7 122 -44 116 -32 -4 -35 -2 -29 16 25 86
46 182 43 199 -3 21 -23 34 -30 20z"/>
<path d="M5350 5103 c-68 -23 -128 -71 -115 -92 10 -17 29 -13 43 9 12 20 81
54 90 45 18 -18 -102 -171 -146 -186 -62 -21 -121 -89 -77 -89 8 0 37 14 66
30 l51 31 33 -38 c26 -29 36 -35 45 -26 10 9 5 20 -20 51 l-32 40 50 64 c58
74 72 99 72 127 0 16 -28 44 -42 40 -2 0 -10 -3 -18 -6z"/>
<path d="M5875 5088 c-11 -6 -32 -22 -47 -36 -21 -19 -25 -29 -17 -38 9 -11
19 -7 49 17 40 32 60 32 60 -1 0 -27 -88 -129 -170 -196 -38 -32 -70 -64 -70
-70 0 -27 22 -24 56 5 19 17 41 31 48 31 7 0 27 -18 45 -41 28 -34 38 -40 64
-37 21 2 33 9 35 21 3 14 -2 17 -24 15 -23 -2 -33 5 -58 40 -27 38 -29 45 -16
55 39 30 120 140 121 165 2 43 -1 56 -19 70 -19 15 -31 15 -57 0z"/>
<path d="M16139 5071 c-13 -10 -42 -48 -63 -84 -21 -36 -44 -68 -52 -71 -8 -3
-14 -12 -14 -20 0 -7 -6 -26 -14 -41 -15 -29 -12 -55 8 -55 6 0 31 39 56 86
25 48 58 104 73 126 25 36 30 38 62 32 36 -6 46 5 23 24 -27 21 -55 22 -79 3z"/>
<path d="M15029 5024 c-9 -11 -38 -59 -65 -109 l-48 -90 -13 60 c-7 33 -12 74
-13 92 0 36 -13 49 -28 30 -18 -22 13 -199 41 -234 16 -21 36 -15 43 15 12 49
98 204 120 214 13 6 34 6 57 0 25 -7 39 -7 43 0 11 18 -14 31 -68 36 -43 3
-56 0 -69 -14z"/>
<path d="M16349 5010 c-46 -24 -51 -38 -43 -114 8 -76 -5 -92 -67 -82 -35 6
-40 4 -37 -11 2 -12 18 -21 47 -27 42 -9 45 -8 73 22 30 34 36 71 18 116 -5
14 -7 32 -4 40 7 18 50 37 68 30 20 -7 30 14 16 31 -16 19 -27 18 -71 -5z"/>
<path d="M3458 4989 c-60 -9 -64 -12 -78 -57 -18 -56 -62 -152 -70 -152 -3 0
-17 32 -30 71 -19 58 -21 75 -11 91 14 23 7 38 -20 38 -16 0 -19 -7 -19 -52 0
-62 56 -211 80 -215 15 -3 64 93 96 190 15 43 18 47 49 47 43 0 65 9 65 25 0
20 -10 22 -62 14z"/>
<path d="M15190 4983 c-61 -22 -111 -124 -89 -181 20 -51 61 -64 125 -37 35
14 41 34 14 43 -7 3 -10 0 -7 -5 4 -6 -13 -11 -40 -12 -48 -1 -63 8 -63 41 0
12 13 21 39 28 22 6 49 18 61 28 28 22 30 70 4 89 -19 14 -21 14 -44 6z m30
-48 c0 -15 -58 -50 -68 -41 -8 8 39 56 55 56 7 0 13 -7 13 -15z"/>
<path d="M4290 4968 c-14 -5 -55 -10 -92 -9 -62 0 -68 -2 -68 -21 0 -20 3 -21
87 -15 58 4 92 11 102 22 21 21 3 36 -29 23z"/>
<path d="M15414 4966 c-35 -16 -68 -57 -78 -99 -15 -61 110 -131 173 -97 36
19 19 32 -42 33 -43 2 -61 7 -78 24 -20 19 -21 25 -9 52 16 40 33 53 78 60 23
4 37 12 37 21 0 20 -42 23 -81 6z"/>
<path d="M8036 4949 c-81 -64 -73 -183 14 -219 38 -16 137 -7 158 13 19 19 7
40 -16 28 -61 -31 -148 -16 -172 28 -17 33 -12 41 26 41 26 0 43 8 65 29 33
34 37 61 11 84 -25 23 -54 21 -86 -4z m64 -32 c0 -20 -22 -37 -47 -37 -27 0
-29 7 -6 32 19 21 53 24 53 5z"/>
<path d="M8872 4964 c-7 -3 -19 -19 -28 -35 -14 -28 -13 -33 10 -86 35 -75 33
-123 -4 -123 -18 0 -70 53 -70 71 0 5 -7 9 -15 9 -25 0 -17 -37 16 -75 55 -63
110 -56 129 16 10 35 8 47 -15 96 -14 31 -23 64 -19 75 5 17 13 19 74 22 15 1
25 7 25 16 0 11 -13 16 -45 17 -25 1 -51 -1 -58 -3z"/>
<path d="M15868 4953 c-66 -41 -76 -134 -14 -141 58 -7 116 36 116 86 0 23
-44 72 -64 72 -6 0 -23 -8 -38 -17z m62 -65 c0 -20 -29 -38 -59 -38 -27 0 -28
33 -1 60 17 17 23 18 40 8 11 -7 20 -21 20 -30z"/>
<path d="M14048 4943 c-27 -30 -59 -104 -56 -125 5 -37 33 -45 67 -20 37 27
39 27 43 1 4 -29 29 -43 61 -35 38 9 97 71 97 102 0 29 -26 84 -40 84 -17 0
-22 -22 -10 -45 18 -34 5 -73 -33 -95 -40 -24 -52 -13 -38 35 18 68 -1 72 -58
13 -23 -23 -44 -39 -47 -35 -10 9 20 81 40 98 11 9 16 21 12 27 -10 17 -20 15
-38 -5z"/>
<path d="M12183 4905 c-51 -45 -93 -113 -93 -152 0 -33 35 -56 83 -54 75 3
111 15 124 41 7 14 13 19 13 12 0 -7 5 -10 11 -6 7 4 7 10 1 16 -6 6 -20 4
-39 -5 -16 -9 -56 -17 -89 -19 -55 -3 -59 -2 -62 20 -5 34 22 68 59 76 38 7
96 44 104 65 3 8 3 22 0 32 -11 34 -56 23 -112 -26z m67 -1 c-8 -8 -22 -20
-32 -25 -17 -9 -18 -8 -6 10 7 11 19 22 28 25 8 2 17 4 19 5 2 0 -2 -6 -9 -15z"/>
<path d="M14353 4928 c-56 -63 -66 -103 -35 -131 14 -13 25 -15 51 -7 49 14
61 28 61 71 0 83 -35 113 -77 67z m42 -79 c-7 -20 -39 -34 -55 -24 -11 7 2 37
28 68 15 17 16 17 24 -4 5 -12 6 -30 3 -40z"/>
<path d="M11994 4929 c-32 -9 -84 -51 -84 -68 0 -6 14 -26 30 -44 45 -51 38
-85 -10 -55 -15 10 -22 10 -31 1 -30 -30 49 -63 89 -37 31 20 28 57 -8 97 -29
34 -29 34 -10 52 11 10 37 21 58 24 22 4 37 12 37 20 0 17 -30 22 -71 10z"/>
<path d="M9415 4877 l-40 -52 -5 45 c-4 36 -9 46 -26 48 -11 2 -27 -4 -34 -13
-11 -14 -14 -13 -26 2 -17 23 -31 9 -38 -39 -3 -20 -15 -59 -26 -88 -24 -61
-25 -70 -5 -70 8 0 24 19 36 43 34 67 82 132 87 118 2 -7 -1 -33 -8 -57 -10
-36 -10 -48 -1 -57 10 -9 24 1 66 45 l54 58 -1 -51 c0 -55 15 -79 62 -99 23
-10 33 -9 53 5 15 10 24 22 20 31 -6 17 -9 17 -34 3 -16 -8 -26 -7 -46 6 -24
16 -25 19 -18 96 7 73 6 79 -11 79 -11 -1 -37 -24 -59 -53z"/>
<path d="M1946 4889 c-43 -37 -61 -91 -43 -128 18 -39 57 -39 100 -2 39 35 47
38 47 16 0 -8 5 -15 10 -15 6 0 12 -1 15 -2 3 -2 8 30 10 70 4 71 4 72 -20 72
-13 0 -27 5 -30 10 -12 20 -55 10 -89 -21z m83 -18 c10 -6 10 -13 2 -28 -15
-29 -81 -84 -92 -78 -17 11 -9 53 17 84 26 31 48 38 73 22z"/>
<path d="M9010 4880 c-35 -68 -21 -142 32 -168 37 -17 71 -2 103 47 33 49 41
133 13 139 -15 3 -18 -4 -18 -40 0 -71 -51 -135 -88 -111 -38 23 -31 126 8
136 13 3 18 10 14 21 -11 29 -43 18 -64 -24z"/>
<path d="M11702 4886 c-34 -32 -37 -39 -37 -90 0 -47 4 -60 27 -83 30 -29 86
-36 113 -13 20 17 19 32 -2 28 -10 -2 -17 -9 -16 -15 3 -17 -74 24 -81 42 -9
24 -10 23 33 45 48 24 71 54 63 83 -12 48 -49 49 -100 3z m68 -16 c0 -12 -62
-52 -69 -45 -2 3 6 16 19 30 24 25 50 33 50 15z"/>
<path d="M2211 4881 c-14 -10 -31 -17 -38 -14 -7 3 -15 -3 -19 -13 -3 -11 -13
-34 -21 -52 -13 -26 -14 -35 -4 -45 10 -10 17 -6 35 18 31 43 73 85 85 85 5 0
11 -26 13 -57 2 -43 7 -59 19 -61 13 -2 16 8 15 61 -1 92 -31 119 -85 78z"/>
<path d="M4142 4863 c-23 -2 -40 -8 -37 -14 4 -5 1 -9 -4 -9 -6 0 -11 -4 -11
-8 0 -4 44 -6 98 -4 91 4 125 12 109 29 -9 8 -98 12 -155 6z"/>
<path d="M5465 4832 c6 -40 -12 -99 -39 -122 -19 -15 -21 -40 -3 -40 41 0 99
130 79 176 -7 13 -19 24 -28 24 -13 0 -15 -7 -9 -38z"/>
<path d="M3525 4782 c-25 -5 -65 -41 -65 -58 0 -26 22 -25 46 1 28 30 61 30
56 0 -6 -36 -65 -117 -104 -142 -64 -43 -52 -53 62 -53 58 0 100 4 100 10 0
19 -42 31 -83 25 l-42 -7 21 23 c40 44 84 123 84 150 0 37 -33 60 -75 51z"/>
<path d="M4407 4236 c-4 -9 13 -31 43 -57 l48 -42 -34 -44 c-35 -46 -45 -93
-20 -93 8 0 17 12 20 26 4 14 26 46 49 71 36 39 39 47 26 57 -43 31 -76 63
-82 79 -8 21 -43 23 -50 3z"/>
<path d="M3216 4232 c-3 -5 15 -26 40 -47 42 -35 45 -39 29 -54 -13 -13 -38
-16 -128 -16 -99 0 -112 -2 -115 -18 -3 -16 2 -17 45 -12 26 4 66 2 88 -2 33
-8 39 -13 37 -31 -4 -30 15 -28 46 6 15 15 43 39 62 54 l35 26 -50 51 c-46 48
-77 62 -89 43z"/>
<path d="M9214 4218 c-4 -6 -1 -16 7 -22 36 -28 111 -128 133 -177 31 -69 41
-152 26 -209 -28 -103 -174 -263 -223 -244 -23 8 -33 -17 -12 -32 39 -29 127
35 210 151 56 79 68 121 63 214 -5 93 -34 159 -108 251 -67 82 -81 93 -96 68z"/>
<path d="M5700 4203 c-66 -33 -136 -117 -190 -226 -63 -129 -75 -184 -60 -268
14 -76 37 -124 82 -165 64 -61 198 -115 198 -81 0 9 -16 21 -37 28 -144 47
-213 136 -213 276 0 95 78 261 162 346 66 66 119 85 156 54 24 -19 39 9 17 33
-22 25 -67 26 -115 3z"/>
<path d="M10505 4201 c-51 -22 -153 -159 -194 -263 -42 -104 -54 -168 -49
-257 7 -116 56 -189 159 -242 62 -31 98 -36 117 -17 26 26 14 41 -28 35 -64
-8 -151 48 -191 125 -29 57 -27 197 6 294 33 100 56 142 110 209 25 30 40 55
35 55 -6 0 -8 5 -5 10 4 6 11 8 16 4 5 -3 15 -1 22 4 7 6 23 12 37 14 14 1 25
10 25 18 0 17 -31 23 -60 11z"/>
<path d="M11654 4185 c-8 -20 11 -48 95 -138 81 -88 100 -120 108 -186 7 -60
-19 -152 -56 -201 -15 -19 -35 -47 -44 -63 -10 -15 -36 -41 -59 -57 l-40 -30
-26 21 c-18 14 -28 17 -36 9 -13 -13 35 -60 60 -60 20 0 90 49 135 94 51 52
101 181 101 262 1 84 -26 137 -117 234 -42 45 -80 93 -85 106 -11 27 -28 31
-36 9z"/>
<path d="M2160 4145 c-9 -11 -10 -19 -3 -26 13 -13 63 9 63 28 0 18 -45 17
-60 -2z"/>
<path d="M4316 4114 c-81 -13 -108 -26 -90 -43 13 -14 223 23 242 43 15 15 12
16 -28 15 -25 -1 -81 -7 -124 -15z"/>
<path d="M6994 4116 c-8 -22 3 -49 19 -43 22 8 67 -23 86 -61 25 -50 44 -145
36 -185 -15 -70 -102 -174 -182 -216 -28 -15 -63 -14 -63 1 0 9 -3 9 -11 1
-21 -21 -2 -43 38 -43 46 0 80 21 154 92 84 81 102 123 97 220 -7 110 -43 180
-115 220 -46 26 -54 28 -59 14z"/>
<path d="M8017 4079 c-128 -112 -175 -372 -89 -494 35 -50 117 -92 202 -104
70 -9 100 -5 100 14 0 8 -24 14 -69 18 -38 3 -92 16 -120 28 -95 40 -127 107
-118 244 6 99 35 175 89 238 33 39 43 45 54 36 21 -17 38 3 30 35 -9 36 -26
33 -79 -15z"/>
<path d="M6701 4056 c-24 -39 -27 -56 -7 -56 17 0 59 67 51 81 -11 16 -23 10
-44 -25z"/>
<path d="M10888 4066 c-78 -15 -101 -30 -95 -64 2 -13 1 -39 -3 -57 -10 -45 3
-57 45 -40 51 22 85 7 117 -51 33 -58 34 -75 9 -98 -21 -19 -114 -32 -156 -22
-20 5 -25 11 -20 25 9 28 -14 37 -36 14 -17 -17 -18 -20 -4 -40 39 -55 196
-50 248 7 35 39 34 55 -6 126 -36 64 -63 84 -118 84 -35 0 -37 1 -37 35 0 32
3 35 37 40 82 14 106 21 106 35 0 19 -10 19 -87 6z"/>
<path d="M6111 4030 c-60 -18 -65 -18 -77 -3 -10 15 -14 15 -28 4 -20 -17 -21
-50 -1 -57 14 -6 74 6 121 22 14 5 10 -3 -12 -27 -63 -68 -65 -109 -5 -109 34
0 70 -19 88 -47 13 -19 12 -24 -14 -53 -28 -31 -116 -64 -146 -55 -7 2 -24 6
-39 9 -22 5 -28 12 -28 32 0 36 -34 29 -38 -8 -6 -52 82 -81 178 -58 63 15
130 73 130 113 0 36 -45 85 -91 98 -21 7 -39 15 -39 20 0 13 72 70 116 92 24
11 43 26 41 32 -6 17 -89 15 -156 -5z"/>
<path d="M8375 4033 c-44 -23 -85 -64 -85 -85 0 -26 19 -22 42 7 25 33 78 61
78 43 0 -20 -38 -87 -74 -130 -17 -21 -58 -56 -91 -77 -73 -47 -93 -67 -77
-83 8 -8 25 -1 64 25 29 21 57 37 61 37 4 0 7 -15 7 -33 0 -40 28 -70 62 -65
12 2 24 11 26 21 3 13 -1 18 -15 16 -31 -6 -43 10 -43 54 1 34 9 53 49 106 27
35 54 81 61 102 12 35 11 41 -5 59 -21 24 -22 24 -60 3z"/>
<path d="M11425 4008 c-35 -19 -65 -51 -65 -70 0 -27 25 -22 59 12 26 27 33
29 52 20 16 -9 19 -17 14 -38 -15 -60 -157 -232 -205 -247 -21 -7 -27 -30 -10
-40 5 -3 35 11 66 32 l56 39 38 -38 c21 -21 46 -38 57 -38 26 0 69 45 53 55
-7 4 -17 2 -23 -4 -20 -20 -45 -12 -75 25 l-30 36 54 75 c42 59 54 83 54 113
0 55 -52 92 -95 68z"/>
<path d="M8917 3986 c-15 -14 -27 -32 -27 -40 0 -30 22 -28 49 5 28 33 51 33
51 0 0 -42 -125 -211 -156 -211 -19 0 -104 -70 -104 -85 0 -21 20 -18 74 10
39 21 48 22 52 10 4 -8 24 -20 46 -26 34 -9 43 -8 56 5 17 17 10 22 -37 28
-49 6 -48 31 6 96 28 33 63 86 79 117 25 53 26 60 13 84 -21 37 -67 40 -102 7z"/>
<path d="M5065 3991 c-53 -5 -70 -10 -70 -21 0 -9 11 -16 28 -18 16 -2 27 1
27 9 0 9 3 9 14 0 19 -16 156 6 156 25 0 15 -23 16 -155 5z"/>
<path d="M6470 3976 c0 -5 7 -17 16 -27 14 -15 13 -20 -5 -50 -12 -19 -21 -51
-21 -72 0 -42 31 -111 57 -125 15 -9 16 -13 0 -54 -20 -53 -22 -92 -4 -107 18
-15 27 -4 27 32 0 16 5 46 11 66 10 33 16 38 60 48 97 23 146 81 134 159 -3
25 -17 57 -32 74 -14 17 -23 37 -19 45 7 19 -11 30 -28 16 -7 -6 -16 -7 -20
-3 -11 10 -176 9 -176 -2z m170 -45 c0 -20 -89 -201 -99 -201 -16 0 -43 59
-43 95 0 38 25 90 49 104 23 13 93 14 93 2z m70 -106 c0 -36 -5 -48 -31 -69
-30 -25 -75 -43 -85 -34 -2 3 10 36 27 74 17 38 35 80 41 94 l10 25 19 -24
c12 -15 19 -39 19 -66z"/>
<path d="M3819 3963 c-1 -5 0 -37 1 -72 l2 -64 -60 7 c-41 5 -63 3 -67 -4 -12
-20 10 -31 68 -32 l56 -2 7 -43 c5 -33 10 -43 23 -41 12 2 15 13 13 46 -3 41
-3 42 26 42 31 0 58 22 48 39 -4 6 -18 6 -38 0 -37 -10 -48 0 -48 43 0 15 -5
30 -11 34 -8 5 -7 9 1 14 14 9 6 40 -10 40 -5 0 -11 -3 -11 -7z"/>
<path d="M2318 3950 c-42 -12 -88 -49 -88 -70 0 -11 19 -32 46 -51 42 -29 79
-83 68 -101 -9 -15 -44 -8 -64 12 -11 11 -24 20 -30 20 -12 0 -13 -30 -2 -46
21 -31 97 -45 120 -22 33 33 -1 120 -63 160 -19 13 -35 26 -35 30 0 16 64 40
91 34 30 -6 42 3 31 21 -11 16 -44 22 -74 13z"/>
<path d="M4452 3945 c-44 -6 -76 -16 -82 -25 -5 -8 -19 -54 -31 -103 -21 -84
-22 -87 -40 -71 -22 20 -39 69 -42 121 -2 30 -7 38 -22 38 -23 0 -23 -27 -4
-103 12 -42 72 -119 97 -124 10 -2 22 30 41 107 l27 110 62 11 c116 21 111 56
-6 39z"/>
<path d="M7517 3954 c-4 -4 -7 -29 -7 -56 0 -43 -3 -50 -27 -59 -14 -5 -40 -9
-57 -7 -22 2 -31 -1 -31 -12 0 -12 13 -15 58 -15 l57 1 0 -38 c0 -26 4 -38 14
-38 14 0 26 29 26 67 0 16 8 23 31 28 40 9 37 42 -4 37 -28 -4 -29 -2 -31 67
-1 24 -16 37 -29 25z"/>
<path d="M9802 3948 c-63 -9 -92 -23 -92 -43 0 -22 20 -28 39 -11 10 9 27 16
38 16 41 0 83 13 83 26 0 19 -10 21 -68 12z"/>
<path d="M2048 3923 c0 -5 -2 -12 -2 -18 -1 -5 -8 -21 -16 -35 -8 -14 -14 -51
-14 -83 -1 -47 3 -61 18 -73 27 -19 60 -18 79 4 23 25 22 46 0 37 -10 -4 -28
-10 -40 -12 -21 -5 -23 -2 -23 41 0 27 9 63 20 87 12 22 18 44 15 49 -7 12
-34 13 -37 3z"/>
<path d="M3076 3922 c-7 -12 28 -175 51 -238 24 -63 48 -77 74 -45 18 22 19
34 13 118 -8 116 -4 123 78 123 65 0 98 12 98 36 0 12 -7 14 -27 10 -16 -3
-58 -8 -95 -12 -37 -3 -72 -12 -77 -18 -6 -7 -12 -64 -13 -127 l-3 -114 -19
54 c-10 30 -26 90 -35 134 -15 74 -31 102 -45 79z"/>
<path d="M5065 3900 c-38 -11 -87 -21 -107 -25 -35 -5 -51 -26 -30 -39 9 -5
250 49 259 58 10 10 -9 26 -30 25 -12 -1 -53 -9 -92 -19z"/>
<path d="M9760 3810 c-15 -15 -40 -25 -74 -29 -37 -4 -52 -11 -54 -23 -4 -23
20 -23 107 -2 82 20 91 28 64 55 l-21 21 -22 -22z"/>
<path d="M11123 3763 c-28 -80 -47 -121 -63 -138 -13 -14 -16 -25 -10 -35 7
-12 13 -11 34 9 26 24 80 156 70 172 -9 15 -24 10 -31 -8z"/>
<path d="M6285 3750 c-3 -5 -4 -19 0 -29 3 -10 1 -30 -4 -44 -12 -31 -81 -80
-107 -75 -23 4 -32 -30 -10 -38 24 -9 103 34 132 71 20 26 25 43 22 76 -3 41
-19 61 -33 39z"/>
<path d="M4418 3705 c-16 -15 -25 -31 -22 -40 8 -20 33 -19 40 0 4 9 15 20 25
25 17 10 17 8 4 -36 -9 -29 -32 -65 -64 -99 -50 -53 -64 -85 -38 -85 8 0 24
11 37 25 23 25 24 25 44 6 28 -26 66 -34 99 -22 28 11 45 36 33 49 -4 3 -16 1
-26 -6 -29 -18 -65 -15 -85 8 -17 19 -17 21 -1 39 23 26 45 87 46 129 0 30 -2
32 -33 32 -21 0 -42 -9 -59 -25z"/>
<path d="M8526 3721 c-3 -5 -4 -32 -2 -60 4 -47 2 -53 -25 -73 -33 -24 -36
-36 -13 -45 9 -3 27 6 45 23 22 21 29 37 29 66 0 24 -4 37 -10 33 -7 -4 -7 3
0 20 10 27 6 45 -10 45 -5 0 -11 -4 -14 -9z"/>
<path d="M3309 3718 c0 -2 -3 -60 -5 -129 -3 -101 -1 -129 10 -138 23 -19 27
-1 29 134 2 96 -1 126 -11 130 -15 6 -22 6 -23 3z"/>
</g>
</svg>
