<?xml version="1.0" standalone="no"?>
<!DOCTYPE svg PUBLIC "-//W3C//DTD SVG 20010904//EN"
 "http://www.w3.org/TR/2001/REC-SVG-20010904/DTD/svg10.dtd">
<svg version="1.0" xmlns="http://www.w3.org/2000/svg"
 width="1872.000000pt" height="1404.000000pt" viewBox="0 0 1872.000000 1404.000000"
 preserveAspectRatio="xMidYMid meet">

<g transform="translate(0.000000,1404.000000) scale(0.100000,-0.100000)"
fill="#000000" stroke="none">
<path d="M14369 13503 c-60 -164 -59 -162 -97 -173 -20 -5 -41 -10 -45 -10
-16 0 -89 -66 -103 -92 -8 -15 -14 -48 -14 -73 0 -38 5 -52 29 -76 l29 -29
-30 -70 c-28 -68 -34 -120 -13 -111 6 2 25 44 44 93 l34 88 44 0 c77 0 142 52
163 132 14 48 3 82 -39 122 l-28 27 33 91 c19 50 31 94 28 99 -10 17 -24 9
-35 -18z m-101 -232 c-31 -75 -83 -181 -89 -181 -5 0 -16 11 -25 25 -24 36
-11 91 31 129 29 27 91 47 83 27z m96 -13 c43 -62 -15 -160 -102 -174 l-43 -7
14 34 c8 19 29 64 48 102 36 72 56 83 83 45z"/>
<path d="M14539 13453 c-5 -14 -8 -32 -5 -39 3 -8 1 -16 -3 -18 -5 -3 -16 -33
-26 -68 -9 -34 -32 -96 -50 -137 -46 -106 -67 -176 -63 -208 4 -39 32 -37 34
3 2 40 18 90 61 188 38 89 96 284 87 297 -10 17 -24 9 -35 -18z"/>
<path d="M16120 13426 c-67 -50 -96 -84 -82 -98 8 -8 24 1 63 36 55 50 93 66
112 47 16 -16 13 -81 -6 -118 -24 -46 -114 -141 -161 -168 -79 -46 -128 -115
-83 -115 7 0 40 23 74 50 34 28 66 50 71 50 11 0 22 -34 22 -72 0 -37 38 -62
80 -53 28 6 34 13 28 33 -2 4 -19 7 -38 7 -34 0 -35 1 -41 51 -4 29 -10 57
-13 63 -4 6 14 36 40 68 26 31 53 72 60 90 32 76 3 163 -54 163 -15 0 -47 -16
-72 -34z"/>
<path d="M16466 13398 c-16 -50 -30 -71 -74 -112 -84 -79 -108 -140 -78 -198
13 -25 12 -35 -15 -113 -32 -92 -37 -170 -10 -170 10 0 15 15 16 50 2 28 14
79 27 115 24 62 27 65 59 66 80 1 92 5 126 39 35 35 36 37 30 102 -4 52 -11
74 -36 110 l-32 45 21 55 c11 30 18 59 15 64 -15 22 -31 4 -49 -53z m29 -150
c11 -19 19 -52 19 -81 1 -41 -3 -52 -27 -73 -19 -17 -40 -24 -68 -24 -21 0
-39 3 -39 6 0 13 83 204 89 204 4 0 15 -14 26 -32z m-111 -69 c-34 -84 -44
-93 -44 -41 0 32 7 49 31 77 18 20 33 34 35 32 2 -2 -8 -33 -22 -68z"/>
<path d="M15324 13411 c-39 -24 -50 -39 -36 -53 7 -7 19 -4 38 11 61 48 86 15
49 -66 -40 -89 -181 -253 -204 -239 -6 4 -23 1 -38 -7 -37 -19 -53 -12 -53 22
0 15 -5 32 -12 39 -9 9 -7 18 10 39 12 16 38 51 58 80 56 81 57 163 1 163 -28
0 -127 -59 -127 -75 0 -26 16 -24 61 6 24 16 52 29 62 29 19 0 18 -8 -3 -65
-16 -43 -104 -146 -166 -195 -60 -48 -73 -69 -47 -77 5 -2 34 15 64 37 l54 41
3 -28 c7 -53 59 -80 101 -54 9 6 21 5 32 -2 16 -10 25 -6 57 26 40 39 55 46
46 22 -18 -46 31 -91 84 -79 40 10 55 24 41 40 -6 7 -8 18 -4 24 12 19 -5 31
-27 19 -13 -7 -18 -17 -15 -30 4 -16 1 -20 -16 -17 -18 2 -22 10 -22 43 0 22
-4 46 -8 53 -6 8 6 29 32 61 79 94 111 199 73 234 -24 22 -50 21 -88 -2z"/>
<path d="M16720 13364 c-6 -14 -10 -29 -10 -33 0 -5 -18 -62 -40 -129 -37
-111 -42 -152 -19 -152 5 0 11 6 13 13 5 20 78 250 87 275 13 34 11 52 -6 52
-9 0 -20 -12 -25 -26z"/>
<path d="M16906 13369 c-31 -25 -35 -66 -8 -100 19 -22 19 -23 -22 -54 -39
-30 -41 -34 -41 -84 1 -47 5 -57 33 -82 43 -39 76 -37 118 5 40 40 43 70 15
132 -19 41 -14 64 13 64 17 0 75 50 81 71 9 28 -21 59 -57 59 -35 0 -37 -17
-3 -30 41 -16 33 -29 -39 -69 -41 -23 -56 -19 -78 23 -9 16 -6 23 17 42 15 12
24 27 21 33 -10 16 -20 14 -50 -10z m74 -245 c0 -64 -65 -84 -103 -32 -27 36
-15 73 33 106 l34 23 18 -33 c9 -18 17 -47 18 -64z"/>
<path d="M5515 13090 c-4 -6 -2 -16 3 -23 5 -7 12 -67 16 -134 4 -68 9 -130
13 -139 5 -13 -4 -15 -68 -12 -61 2 -74 0 -74 -12 0 -12 16 -16 73 -18 l72 -3
0 -93 c0 -64 4 -98 14 -112 22 -29 38 -7 26 36 -6 19 -10 65 -9 102 l2 67 36
-2 c26 -1 36 2 36 13 0 10 -12 16 -36 18 l-37 3 -8 72 c-4 40 -8 110 -8 157
-1 79 -2 85 -23 88 -11 2 -24 -2 -28 -8z"/>
<path d="M14580 13055 c-17 -18 -21 -28 -13 -36 15 -15 62 19 63 44 0 25 -23
21 -50 -8z"/>
<path d="M4657 13058 c-46 -10 -114 -43 -144 -71 -16 -14 -23 -32 -23 -58 0
-30 7 -43 40 -72 21 -20 58 -46 82 -58 55 -28 125 -75 160 -107 54 -50 44
-110 -25 -152 -85 -52 -250 4 -209 71 15 24 15 52 0 47 -6 -2 -20 -21 -31 -42
-20 -37 -20 -38 0 -64 25 -36 98 -72 143 -72 59 0 127 28 161 67 28 33 31 41
27 85 -4 33 -13 57 -29 74 -26 28 -131 98 -192 130 -43 21 -97 77 -97 99 0 22
66 67 118 80 l47 12 6 -37 c9 -68 52 -92 83 -48 13 18 13 25 0 56 -23 57 -55
73 -117 60z m88 -96 c-9 -9 -25 19 -24 43 0 16 2 15 15 -8 9 -16 13 -32 9 -35z"/>
<path d="M15610 13049 c0 -5 -4 -7 -10 -4 -5 3 -10 2 -10 -4 0 -16 19 -23 46
-17 32 8 32 36 -1 36 -14 0 -25 -5 -25 -11z"/>
<path d="M3325 13037 c-19 -15 -12 -42 10 -34 12 5 25 -96 25 -204 0 -50 -10
-59 -72 -59 -16 0 -28 -4 -28 -10 0 -5 0 -13 0 -17 0 -5 23 -6 50 -5 36 3 51
0 54 -10 2 -7 9 -38 16 -68 17 -71 30 -100 47 -100 17 0 17 8 -9 95 -12 41
-20 77 -17 80 3 3 44 9 91 14 90 9 112 16 102 33 -4 6 -41 8 -105 3 l-99 -7 0
98 c0 144 -9 204 -29 204 -10 0 -25 -6 -36 -13z"/>
<path d="M6514 13019 c-4 -7 -1 -17 7 -23 10 -7 16 -32 17 -71 1 -33 6 -76 12
-95 17 -58 13 -81 -12 -79 -13 1 -45 1 -71 1 -40 -2 -48 -5 -45 -19 3 -14 15
-17 73 -18 l70 0 6 -91 c6 -93 13 -119 30 -108 7 4 8 42 3 106 l-7 100 62 -7
c51 -6 61 -4 61 8 0 19 -21 27 -76 27 -24 0 -44 3 -44 8 0 4 -7 39 -16 77 -8
39 -13 97 -12 130 3 58 2 60 -24 63 -14 2 -29 -2 -34 -9z"/>
<path d="M5135 13000 c-3 -5 1 -20 9 -32 13 -19 16 -57 16 -220 0 -136 3 -198
11 -198 6 0 19 -10 29 -22 28 -35 84 -29 126 14 61 60 60 134 0 173 -33 22
-71 8 -102 -36 l-21 -29 -6 97 c-4 54 -7 128 -7 165 0 36 -3 73 -6 82 -7 18
-39 22 -49 6z m189 -332 c24 -34 19 -57 -19 -95 -48 -48 -79 -43 -83 12 -2 33
3 46 28 73 36 38 53 40 74 10z"/>
<path d="M2685 12988 c-27 -5 -67 -9 -88 -9 l-38 0 3 -97 c4 -170 -3 -376 -13
-361 -20 33 -90 261 -104 343 -8 49 -17 92 -20 94 -2 2 -12 2 -21 -2 -12 -4
-14 -13 -9 -29 3 -12 12 -54 20 -93 16 -87 89 -306 116 -351 44 -70 70 -31 67
99 -2 51 -2 152 0 224 l2 131 69 13 c38 7 83 10 100 7 17 -4 33 -2 37 4 16 27
-47 40 -121 27z"/>
<path d="M6796 12841 c-3 -5 1 -14 9 -21 12 -10 18 -10 30 0 18 15 11 30 -15
30 -10 0 -21 -4 -24 -9z"/>
<path d="M2796 12739 c-15 -12 -39 -40 -53 -62 -20 -32 -24 -47 -19 -80 14
-85 58 -127 133 -127 60 0 85 10 80 31 -3 10 0 20 7 22 8 3 8 8 0 17 -15 16
-57 3 -50 -15 7 -21 -29 -28 -69 -15 -22 7 -41 23 -50 40 -16 31 -20 70 -7 71
4 0 24 1 44 3 56 4 88 30 88 70 0 61 -54 85 -104 45z m71 -35 c8 -21 -7 -34
-51 -44 -46 -10 -52 0 -21 34 27 29 62 34 72 10z"/>
<path d="M5719 12724 l-43 -36 3 -81 c3 -89 5 -97 25 -97 10 0 15 24 18 85 6
118 35 148 110 109 20 -10 34 -12 40 -6 12 12 1 35 -13 27 -5 -4 -9 -2 -9 3 0
10 -52 32 -76 32 -6 0 -31 -16 -55 -36z"/>
<path d="M3603 12729 c-40 -12 -83 -71 -83 -116 0 -45 42 -77 89 -68 85 16
133 73 106 125 -11 21 -68 72 -77 69 -2 0 -18 -5 -35 -10z m52 -45 c44 -29 42
-65 -6 -89 -38 -20 -76 -19 -88 3 -17 32 22 91 67 101 1 1 13 -6 27 -15z"/>
<path d="M7153 12729 c-7 -7 -10 -24 -7 -38 3 -14 -1 -60 -8 -102 -8 -42 -12
-81 -10 -88 8 -25 29 -8 60 49 33 61 91 134 99 126 2 -2 -1 -22 -8 -44 -25
-85 19 -162 93 -162 26 0 41 5 45 15 7 20 -28 48 -41 34 -16 -15 -45 -10 -56
10 -13 25 -13 76 0 121 27 95 -41 93 -112 -4 l-30 -41 2 55 c3 87 -1 95 -27
69z"/>
<path d="M3845 12720 c-11 -4 -30 -22 -43 -39 -18 -25 -21 -35 -12 -52 6 -11
10 -35 8 -52 -2 -24 1 -33 15 -35 18 -4 19 -2 22 76 2 62 13 75 55 74 24 -1
30 3 26 14 -3 9 -6 18 -6 20 0 7 -44 3 -65 -6z"/>
<path d="M6943 12708 c-60 -67 -68 -113 -28 -153 31 -31 71 -32 116 -2 27 18
35 30 37 61 4 45 -18 83 -53 92 -14 3 -25 10 -25 15 0 17 -26 9 -47 -13z m91
-74 c8 -30 3 -40 -32 -58 -61 -31 -95 24 -52 84 19 27 22 28 49 14 16 -8 32
-26 35 -40z"/>
<path d="M6268 12693 c-54 -59 -63 -114 -25 -158 36 -42 156 -65 156 -30 0 6
-27 16 -60 23 -44 10 -64 20 -76 39 -16 24 -16 27 6 68 13 24 32 46 43 48 11
3 18 12 16 19 -8 23 -33 19 -60 -9z"/>
<path d="M3050 12672 c-43 -43 -50 -73 -24 -110 33 -48 144 -74 144 -34 0 10
5 23 12 30 20 20 -19 26 -48 7 -30 -20 -65 -10 -83 23 -13 24 17 68 56 83 14
5 23 15 20 22 -8 26 -39 17 -77 -21z"/>
<path d="M4888 12704 c-18 -17 15 -130 43 -144 53 -29 109 6 129 81 12 42 10
45 -16 52 -4 1 -14 -20 -23 -48 -15 -47 -18 -50 -51 -50 l-35 0 -5 55 c-4 39
-10 56 -20 58 -9 1 -19 0 -22 -4z"/>
<path d="M6000 12693 c-42 -16 -76 -70 -65 -104 8 -25 59 -51 82 -42 10 3 26
13 35 21 16 13 18 13 24 -1 3 -8 7 -24 8 -34 3 -20 28 -28 53 -19 14 6 13 9
-5 29 -15 16 -22 38 -24 77 -3 47 -6 55 -23 55 -11 0 -30 6 -42 13 -12 6 -23
12 -25 11 -2 0 -10 -3 -18 -6z m44 -55 c15 -25 -23 -63 -53 -53 -25 8 -27 32
-4 57 20 22 41 20 57 -4z"/>
<path d="M6793 12692 c-16 -10 -28 -148 -13 -157 22 -14 33 13 34 85 1 73 -2
84 -21 72z"/>
<path d="M3569 11939 c-36 -41 -62 -62 -78 -63 -29 -1 -51 -30 -34 -47 14 -14
65 11 109 53 l31 29 6 -123 c4 -68 1 -420 -5 -783 -15 -838 -15 -936 5 -1125
13 -119 16 -257 16 -600 0 -735 -1 -1129 -2 -1250 -2 -98 1 -120 18 -147 11
-18 24 -33 30 -33 6 0 11 -12 10 -27 0 -26 3 -28 33 -25 19 2 50 -4 69 -13 25
-12 79 -20 172 -25 75 -5 190 -18 256 -30 149 -26 323 -27 665 -3 303 20 1426
26 2078 10 l432 -11 -6 -50 c-4 -28 -11 -59 -16 -69 -10 -20 -4 -47 10 -47 5
0 20 10 33 23 41 39 86 67 141 86 43 15 53 22 51 40 -2 17 3 21 25 21 15 0 86
3 157 5 309 12 891 26 967 24 46 -1 88 -6 93 -9 6 -4 87 -3 180 2 94 5 262 7
375 5 234 -6 780 11 794 24 6 5 -3 9 -21 9 -17 0 -33 6 -36 13 -3 8 -10 7 -26
-7 -11 -11 -21 -15 -21 -9 0 6 -213 9 -572 10 -315 0 -629 3 -698 7 -69 4
-285 3 -480 -3 -195 -6 -450 -13 -566 -17 l-211 -6 -39 87 c-30 66 -43 85 -55
82 -11 -3 -19 2 -22 14 -3 11 -12 19 -20 19 -11 0 -15 -20 -19 -91 -3 -50 -10
-95 -15 -100 -6 -6 -473 -11 -1199 -13 -832 -2 -1232 -7 -1334 -15 -80 -7
-235 -13 -345 -14 -166 -2 -220 2 -320 20 -66 12 -163 24 -215 28 -132 8 -172
14 -194 30 -10 8 -15 19 -11 25 6 9 9 9 15 0 5 -9 98 21 336 108 323 117 602
210 879 292 200 59 625 199 865 286 113 40 264 92 335 115 72 23 184 61 250
86 243 91 1278 434 2615 868 705 228 882 286 1008 329 57 20 114 36 127 36 13
0 32 8 42 19 10 10 29 22 42 26 20 6 21 9 10 21 -12 11 -29 9 -109 -16 -52
-16 -119 -35 -149 -41 -35 -7 -55 -17 -58 -27 -3 -12 -62 -36 -196 -79 -106
-34 -365 -118 -577 -187 -212 -69 -457 -149 -545 -177 -88 -28 -248 -80 -355
-115 -107 -36 -278 -92 -380 -125 -505 -164 -1292 -428 -1430 -479 -85 -31
-240 -85 -345 -120 -104 -34 -251 -85 -325 -112 -165 -61 -654 -222 -845 -278
-265 -78 -551 -173 -865 -288 -294 -106 -396 -142 -411 -142 -4 0 -15 32 -24
71 -14 55 -16 92 -11 163 18 264 19 292 6 317 -11 19 -14 168 -15 704 -2 577
-5 701 -20 820 -15 121 -16 185 -10 465 12 474 19 1107 16 1322 l-2 187 32 -9
c18 -6 50 -26 71 -47 30 -29 41 -34 50 -25 16 16 -53 87 -99 103 -29 9 -33 15
-33 45 0 52 -29 44 -91 -27z m3885 -4052 c2 -20 0 -37 -5 -37 -5 0 -9 19 -9
42 0 49 7 47 14 -5z m55 -192 c-24 -11 -56 -29 -71 -39 -17 -11 -28 -14 -28
-7 0 6 5 11 11 11 7 0 24 13 40 29 19 21 34 28 48 24 13 -3 21 -1 21 6 0 7 5
9 12 5 7 -4 -6 -15 -33 -29z"/>
<path d="M9545 11223 c-8 -20 -23 -57 -32 -83 -15 -43 -18 -46 -47 -42 -17 3
-36 8 -41 13 -17 12 -58 -13 -75 -46 -8 -17 -15 -56 -15 -87 1 -46 5 -62 25
-83 13 -14 29 -25 37 -25 17 0 17 -19 -2 -63 -21 -50 -20 -79 2 -75 10 2 19
12 21 23 9 53 35 105 54 105 31 0 96 38 115 67 27 41 23 100 -9 128 -15 13
-32 25 -38 27 -8 2 -1 30 19 81 17 43 29 83 26 88 -12 18 -25 9 -40 -28z
m-110 -153 c4 -6 11 -8 16 -5 5 4 15 2 23 -2 12 -7 10 -20 -14 -82 -16 -40
-31 -75 -34 -78 -3 -3 -17 2 -32 12 -24 16 -26 21 -22 75 4 59 19 90 44 90 7
0 16 -5 19 -10z m117 -37 c28 -25 23 -70 -11 -104 -29 -29 -78 -41 -68 -16 2
6 14 40 27 75 12 34 25 62 28 62 3 0 14 -7 24 -17z"/>
<path d="M9714 11196 c-3 -9 13 -32 41 -57 57 -53 85 -105 92 -173 5 -45 2
-56 -20 -82 -14 -16 -61 -49 -106 -74 -45 -25 -81 -50 -81 -57 0 -19 28 -16
58 6 15 10 43 25 63 34 52 21 106 73 119 113 13 39 2 112 -26 167 -17 33 -112
137 -126 137 -5 0 -11 -6 -14 -14z"/>
<path d="M8457 11138 c-81 -80 -119 -206 -98 -322 18 -97 83 -164 166 -171 39
-3 46 -1 43 12 -2 11 -16 18 -38 21 -116 13 -172 163 -119 319 21 64 76 137
109 148 23 7 27 45 5 45 -8 0 -38 -24 -68 -52z"/>
<path d="M7354 11139 c-3 -6 6 -21 22 -34 l29 -23 -47 -7 c-25 -4 -81 -5 -125
-3 -71 3 -78 1 -78 -16 0 -16 9 -19 75 -21 41 -2 110 1 153 7 43 6 81 7 85 3
9 -9 -44 -55 -64 -55 -8 0 -14 -9 -14 -20 0 -34 41 -20 98 33 41 39 42 63 2
72 -17 4 -48 22 -71 41 -44 37 -54 40 -65 23z"/>
<path d="M8856 11141 c-12 -19 4 -30 55 -37 l50 -7 -41 -34 c-22 -19 -40 -42
-40 -52 0 -17 37 -41 64 -41 18 0 46 -33 46 -53 0 -29 -37 -57 -75 -57 -41 0
-46 -16 -10 -32 54 -24 134 48 119 107 -8 31 -58 75 -87 75 -19 1 -15 7 26 43
26 23 47 47 47 53 0 25 -141 56 -154 35z"/>
<path d="M7893 11003 c-10 -25 10 -33 56 -21 30 8 56 8 87 1 34 -8 46 -7 55 3
17 21 -32 35 -118 33 -54 -1 -76 -6 -80 -16z"/>
<path d="M8626 11011 c-10 -15 1 -30 22 -29 9 1 42 -2 72 -5 57 -7 93 4 75 22
-15 15 -161 26 -169 12z"/>
<path d="M7893 10908 c-13 -23 15 -29 115 -25 83 3 107 7 107 18 0 11 -23 14
-108 14 -60 0 -111 -3 -114 -7z"/>
<path d="M7237 10883 c-5 -8 18 -62 86 -203 35 -72 50 -64 65 32 20 125 20
126 48 120 41 -8 94 7 94 26 0 14 -11 17 -72 17 -82 -1 -74 9 -99 -120 l-11
-60 -22 61 c-36 99 -74 152 -89 127z"/>
<path d="M9175 10870 c-3 -5 -3 -21 1 -35 5 -19 1 -32 -17 -51 -12 -13 -29
-24 -36 -24 -18 0 -13 -32 5 -38 7 -2 31 14 53 37 36 36 40 44 34 73 -11 49
-25 62 -40 38z"/>
<path d="M6960 10810 c-7 -4 -10 -15 -7 -25 4 -9 11 -14 16 -11 4 3 42 6 82 7
88 1 109 6 109 25 0 12 -18 14 -94 13 -51 0 -99 -5 -106 -9z"/>
<path d="M7487 10734 c-4 -4 -7 -51 -7 -104 0 -76 3 -100 15 -110 26 -22 39 2
25 44 -6 19 -10 65 -8 102 3 62 -6 86 -25 68z"/>
<path d="M6426 10621 c-3 -5 -15 -7 -26 -4 -15 4 -20 0 -20 -15 0 -23 -22 -51
-92 -119 -26 -25 -45 -50 -42 -54 3 -5 0 -9 -5 -9 -6 0 -11 -6 -11 -13 0 -7
32 -28 70 -47 39 -19 78 -42 87 -52 9 -10 24 -18 33 -18 9 0 21 -5 27 -11 25
-25 43 -2 43 57 0 49 2 55 17 50 10 -4 200 -11 423 -17 223 -5 520 -13 660
-18 150 -6 478 -6 795 -1 707 12 1471 12 1765 0 129 -5 317 -12 418 -16 l183
-7 31 -39 c17 -21 29 -41 27 -43 -9 -8 -117 -48 -144 -52 -29 -5 -332 -115
-362 -131 -12 -7 -12 -10 0 -20 11 -9 28 -6 78 14 79 31 222 81 353 124 108
34 104 35 135 -18 10 -18 61 -5 69 17 9 26 92 129 110 137 10 4 46 12 82 18
46 8 65 16 65 26 0 10 -9 15 -25 14 -211 -11 -388 -12 -400 -5 -8 6 -19 6 -25
1 -6 -5 -157 -2 -354 6 -424 18 -1155 22 -2086 11 -487 -6 -765 -5 -885 2 -96
6 -330 14 -520 17 -275 4 -354 8 -387 20 l-43 16 0 82 c0 50 -5 87 -12 94 -14
14 -25 15 -32 3z m-9 -91 c-1 -13 -8 -20 -21 -20 -18 0 -19 1 -1 20 10 11 19
20 21 20 1 0 2 -9 1 -20z m-71 -95 c-41 -36 -69 -48 -45 -18 14 16 69 53 79
53 3 -1 -13 -16 -34 -35z m98 -25 c5 -17 4 -20 -2 -10 -5 8 -13 26 -16 40 -5
17 -4 20 2 10 5 -8 13 -26 16 -40z m-54 -19 c0 -24 -12 -32 -30 -21 -11 7 -11
11 -1 24 18 22 31 20 31 -3z m70 -51 c0 -11 -4 -20 -9 -20 -5 0 -7 9 -4 20 3
11 7 20 9 20 2 0 4 -9 4 -20z m4430 -30 c0 -25 -8 -25 -40 0 l-25 20 33 0 c25
0 32 -4 32 -20z m90 -10 c-11 -16 -26 -32 -33 -36 -9 -5 -8 -3 1 7 17 19 15
39 -5 40 -12 1 -10 4 7 9 47 15 52 12 30 -20z m-60 -71 c0 -4 -5 -11 -10 -14
-13 -8 -42 14 -35 25 6 10 45 1 45 -11z"/>
<path d="M6070 10481 c-111 -38 -115 -40 -118 -70 -3 -26 2 -33 36 -50 82 -42
100 -17 -288 -404 -194 -194 -416 -419 -493 -502 -76 -82 -183 -193 -236 -245
-53 -52 -191 -195 -306 -317 -114 -123 -212 -223 -215 -223 -13 0 -300 -293
-300 -306 0 -28 23 -11 133 99 61 61 154 153 206 202 52 50 189 190 304 313
115 122 213 222 216 222 4 0 70 68 146 151 76 83 315 328 531 544 l393 393 19
-22 c11 -11 32 -40 46 -64 18 -28 33 -42 44 -40 15 3 17 22 18 181 0 119 -3
177 -10 177 -6 0 -63 -18 -126 -39z m100 -25 c0 -9 -7 -12 -20 -9 -11 3 -20 9
-20 14 0 5 9 9 20 9 11 0 20 -6 20 -14z m-65 -63 c-12 -49 -25 -57 -52 -31
l-24 23 38 17 c21 9 40 17 42 17 2 1 0 -11 -4 -26z m33 -68 c-6 -19 -15 -32
-20 -29 -7 5 17 64 26 64 2 0 -1 -16 -6 -35z m42 -54 c0 -22 -16 -36 -24 -22
-8 12 3 41 15 41 5 0 9 -9 9 -19z"/>
<path d="M9985 9250 c-4 -6 13 -28 37 -50 25 -21 60 -67 79 -102 29 -54 34
-72 34 -133 0 -62 -4 -77 -37 -136 -42 -75 -93 -129 -121 -129 -26 0 -18 -34
9 -38 29 -4 110 86 152 170 47 92 48 171 4 261 -34 69 -115 167 -137 167 -8 0
-17 -5 -20 -10z"/>
<path d="M8314 9239 c-9 -16 4 -25 68 -47 l57 -19 -39 -52 c-40 -53 -48 -75
-31 -85 11 -7 111 126 111 147 0 10 -19 21 -54 31 -30 9 -58 21 -61 26 -8 13
-42 13 -51 -1z"/>
<path d="M8030 9162 c0 -12 9 -24 23 -29 31 -11 318 -6 331 7 20 20 -9 25
-147 26 -78 1 -157 5 -174 9 -29 6 -33 5 -33 -13z"/>
<path d="M9705 9121 c-11 -5 -31 -21 -44 -35 -19 -20 -22 -29 -13 -38 9 -9 17
-7 35 10 13 13 39 27 57 32 l33 9 -5 -43 c-7 -61 -42 -128 -94 -181 -24 -25
-44 -50 -44 -55 0 -18 40 -10 61 11 20 20 22 21 58 4 50 -22 124 -17 129 9 3
16 0 18 -22 12 -28 -7 -101 8 -110 23 -3 5 9 37 26 71 25 48 33 75 33 119 l0
56 -40 2 c-22 1 -49 -2 -60 -6z"/>
<path d="M9008 9078 c-52 -57 -103 -142 -118 -198 -16 -61 -5 -154 26 -207 29
-51 95 -86 151 -81 56 4 51 31 -6 35 -92 6 -141 69 -141 181 1 92 38 169 123
255 35 35 41 57 15 57 -6 0 -29 -19 -50 -42z"/>
<path d="M2244 9068 c-4 -7 10 -26 36 -48 l43 -36 -62 -49 c-59 -47 -77 -75
-46 -75 8 0 23 8 33 18 11 9 40 34 65 55 26 21 47 44 47 52 0 12 -90 95 -103
95 -3 0 -9 -5 -13 -12z"/>
<path d="M9210 9053 c-24 -10 -30 -25 -30 -83 0 -64 12 -92 32 -72 17 17 43
15 87 -8 74 -37 59 -92 -31 -114 -21 -5 -32 -1 -48 16 -16 17 -24 20 -37 12
-29 -18 -25 -33 13 -49 66 -27 133 -13 168 37 42 60 -3 127 -99 149 -51 11
-55 14 -55 41 0 38 36 53 99 39 51 -11 72 -1 51 24 -13 15 -116 21 -150 8z"/>
<path d="M8247 9014 c-3 -3 -3 -12 -1 -19 3 -7 -9 -54 -25 -105 -17 -51 -31
-109 -32 -129 0 -34 -1 -35 -11 -11 -5 14 -14 53 -18 88 -5 35 -11 66 -14 69
-16 16 -36 -13 -52 -76 -10 -39 -21 -71 -25 -71 -6 0 -20 90 -23 149 -1 36
-12 46 -34 33 -9 -7 -8 -36 9 -138 30 -181 52 -196 86 -58 15 62 18 66 24 39
16 -72 45 -112 74 -101 10 3 15 19 15 46 0 22 13 80 29 129 38 114 43 161 18
161 -8 0 -16 -3 -20 -6z"/>
<path d="M3394 8998 c-4 -7 0 -16 11 -22 10 -6 25 -18 33 -28 27 -30 72 -149
72 -191 0 -50 -33 -123 -84 -190 -34 -44 -39 -67 -16 -67 5 0 28 25 51 56 94
128 105 209 44 342 -27 60 -46 87 -66 98 -34 17 -36 17 -45 2z"/>
<path d="M2064 8986 c-8 -21 5 -39 22 -32 8 3 44 -4 80 -16 35 -11 67 -18 70
-15 15 15 -8 34 -57 49 -94 28 -109 30 -115 14z"/>
<path d="M2928 8953 c-15 -15 -41 -59 -59 -96 -30 -65 -31 -74 -27 -156 6 -96
21 -135 68 -175 36 -30 100 -37 100 -11 0 9 -9 15 -25 15 -15 0 -40 14 -60 33
-28 26 -37 44 -46 92 -6 33 -8 79 -5 102 8 62 61 161 96 181 33 19 34 35 4 40
-11 2 -31 -9 -46 -25z"/>
<path d="M8556 8911 c-11 -17 4 -33 24 -28 10 3 40 1 66 -4 48 -9 85 4 66 23
-14 14 -148 22 -156 9z"/>
<path d="M3296 8861 c-21 -23 -12 -45 15 -38 14 4 21 -1 25 -19 5 -20 -4 -38
-40 -85 -26 -33 -44 -65 -40 -70 7 -12 98 -3 127 13 30 15 14 33 -27 30 l-37
-4 32 45 c35 50 35 74 -2 120 -25 32 -31 33 -53 8z"/>
<path d="M3022 8854 c-14 -10 -22 -24 -20 -37 4 -29 26 -33 37 -5 9 22 10 21
10 -9 1 -25 -11 -44 -56 -93 -32 -35 -52 -65 -47 -69 15 -14 131 -20 143 -8
20 20 11 27 -34 27 -25 0 -45 3 -45 6 0 3 16 24 35 46 39 46 56 117 35 143
-16 19 -30 19 -58 -1z"/>
<path d="M9464 8836 c-3 -9 -3 -24 1 -33 21 -48 -10 -114 -62 -134 -15 -5 -21
-14 -17 -24 9 -24 31 -18 73 20 43 39 57 84 43 144 -8 38 -28 52 -38 27z"/>
<path d="M8504 8795 c-10 -26 6 -35 62 -35 31 0 64 -5 75 -11 12 -6 28 -8 37
-4 15 6 14 9 -7 26 -16 13 -39 19 -77 19 -29 0 -56 5 -59 10 -9 15 -25 12 -31
-5z"/>
<path d="M2054 8786 c-6 -16 56 -194 81 -233 9 -13 22 -23 30 -23 25 0 35 36
35 129 l0 91 48 -3 c41 -2 47 1 47 18 0 17 -7 19 -55 20 -71 0 -83 -19 -74
-122 4 -51 3 -73 -5 -73 -6 0 -11 2 -11 3 0 2 -14 42 -31 88 -17 46 -32 91
-33 98 -4 21 -25 26 -32 7z"/>
<path d="M2584 8759 c-11 -19 19 -38 67 -40 49 -3 69 5 69 25 0 10 -12 12 -44
9 -26 -3 -46 -1 -50 6 -9 14 -33 14 -42 0z"/>
<path d="M3175 8710 c-4 -6 -1 -17 5 -25 10 -12 7 -24 -14 -61 -25 -45 -23
-76 3 -59 16 9 51 81 51 104 0 43 -28 69 -45 41z"/>
<path d="M2575 8660 c-13 -21 8 -29 83 -31 76 -2 94 3 74 23 -17 17 -147 24
-157 8z"/>
<path d="M2282 8608 c-23 -23 -14 -40 18 -33 17 4 30 4 30 1 0 -3 -5 -28 -11
-56 -8 -39 -16 -53 -35 -60 -22 -9 -74 -78 -74 -99 0 -23 23 -21 55 4 19 14
35 21 35 16 0 -6 11 -18 24 -26 21 -14 28 -14 59 -2 39 17 54 34 40 48 -6 6
-22 3 -42 -8 -31 -17 -32 -17 -47 2 -8 11 -11 26 -8 35 22 51 33 92 36 136 l3
49 -35 3 c-19 2 -41 -3 -48 -10z"/>
<path d="M4040 8271 c-52 -54 -89 -100 -88 -109 2 -11 -3 -16 -13 -14 -18 3
-203 -186 -222 -226 -14 -30 4 -52 28 -32 8 7 15 19 15 27 0 8 57 74 127 146
70 73 158 164 195 202 50 52 65 74 58 85 -7 11 -28 -6 -100 -79z"/>
<path d="M12175 7920 c-12 -19 6 -51 65 -113 l59 -61 -34 -38 c-73 -80 -117
-178 -81 -178 9 0 21 12 27 28 24 59 36 77 75 117 62 65 62 67 -8 146 -35 38
-63 77 -63 87 0 19 -30 29 -40 12z"/>
<path d="M10193 7803 c9 -2 15 -9 12 -14 -4 -5 -5 -9 -3 -9 2 0 120 -5 263
-10 143 -5 341 -16 440 -25 305 -26 597 -29 940 -11 339 17 402 23 411 37 12
19 -33 20 -307 4 -362 -22 -706 -22 -974 -1 -115 10 -280 21 -365 26 -158 9
-449 11 -417 3z m2044 -29 c-3 -3 -12 -4 -19 -1 -8 3 -5 6 6 6 11 1 17 -2 13
-5z"/>
<path d="M7927 7713 c-15 -14 -5 -39 30 -75 l37 -38 -32 -33 c-33 -34 -41 -57
-19 -57 18 0 87 72 87 91 0 8 -14 28 -31 45 -17 16 -35 39 -40 52 -9 22 -20
28 -32 15z"/>
<path d="M9025 7690 c-122 -55 -194 -254 -137 -382 38 -86 114 -148 182 -148
46 0 39 28 -9 36 -49 8 -105 53 -132 107 -64 125 -4 306 119 358 37 16 42 22
32 34 -7 8 -13 15 -14 14 0 0 -19 -9 -41 -19z"/>
<path d="M10046 7695 c-3 -9 4 -20 22 -29 37 -19 78 -65 92 -101 22 -59 -29
-175 -107 -241 -23 -19 -25 -44 -4 -44 19 0 105 78 126 114 58 102 47 174 -42
264 -53 53 -76 63 -87 37z"/>
<path d="M9890 7652 l-25 -47 -64 0 -64 0 -33 -49 c-38 -54 -42 -90 -18 -142
16 -33 16 -35 -11 -75 -14 -22 -24 -47 -21 -56 8 -19 22 -9 51 37 23 36 26 37
67 33 34 -4 50 0 78 19 62 42 90 135 55 185 -14 21 -13 26 15 76 16 29 27 57
23 60 -15 16 -29 4 -53 -41z m-65 -109 c-10 -16 -36 -52 -59 -82 l-40 -54 -14
34 c-17 41 -7 79 27 95 12 6 28 17 34 23 6 6 24 11 40 11 l29 0 -17 -27z m58
-30 c11 -60 -43 -128 -98 -121 l-26 3 53 72 c29 39 56 72 59 72 4 1 9 -11 12
-26z"/>
<path d="M9184 7609 c-12 -19 10 -29 63 -29 l56 0 -34 -23 c-23 -16 -34 -31
-34 -47 0 -22 5 -25 42 -28 34 -3 43 -8 53 -32 17 -41 0 -67 -50 -75 -42 -7
-76 8 -64 27 4 6 -2 8 -12 6 -11 -2 -20 -13 -22 -26 -5 -34 54 -57 109 -42 54
15 79 42 79 85 0 47 -24 82 -62 90 l-30 7 29 17 c38 24 58 50 47 60 -12 12
-163 20 -170 10z"/>
<path d="M7774 7601 c-2 -2 -4 -11 -4 -19 0 -11 15 -13 80 -8 85 5 104 11 94
27 -5 9 -161 9 -170 0z"/>
<path d="M7715 7510 c-3 -5 8 -42 25 -82 17 -40 38 -90 47 -110 31 -73 64 -56
74 37 3 37 11 71 17 77 6 6 32 11 59 13 34 1 48 6 48 16 0 9 -14 15 -44 17
-76 6 -89 -2 -106 -62 -9 -29 -13 -62 -9 -72 5 -18 5 -18 -10 0 -9 11 -16 25
-16 32 0 19 -61 144 -70 144 -5 0 -12 -4 -15 -10z"/>
<path d="M8565 7511 c-35 -4 -50 -10 -50 -21 0 -8 6 -15 13 -14 6 1 41 2 77 3
50 1 65 4 65 16 0 8 -6 15 -14 15 -8 0 -20 2 -28 3 -7 2 -35 1 -63 -2z"/>
<path d="M9446 7411 c-4 -6 -4 -22 0 -36 6 -26 -16 -72 -43 -88 -22 -13 -16
-39 9 -35 14 2 33 21 52 51 24 40 27 52 20 79 -10 33 -28 46 -38 29z"/>
<path d="M8474 7365 c-8 -20 2 -32 33 -38 35 -6 146 16 150 30 5 15 -54 22
-99 10 -28 -7 -43 -6 -51 2 -15 15 -27 14 -33 -4z"/>
<path d="M8067 7233 c3 -85 14 -117 32 -97 4 5 5 47 2 94 -5 67 -9 85 -22 88
-14 2 -15 -9 -12 -85z"/>
<path d="M11686 7292 c-3 -5 -8 -60 -11 -123 -10 -182 -8 -178 -58 -176 -31 2
-42 -2 -42 -13 0 -10 13 -16 43 -18 l42 -3 0 -43 c0 -55 18 -106 37 -106 12 0
14 8 9 33 -3 17 -8 51 -12 74 l-6 41 58 7 c87 9 104 14 104 29 0 11 -13 14
-54 11 -30 -2 -64 -6 -76 -10 l-22 -7 8 119 c11 168 10 186 -3 190 -6 2 -14 0
-17 -5z"/>
<path d="M6581 7241 c-6 -11 -13 -52 -16 -93 -10 -117 -11 -121 -45 -114 -17
3 -32 1 -36 -6 -10 -15 23 -37 46 -31 19 5 20 0 20 -100 0 -75 4 -108 13 -116
22 -18 26 -3 20 87 -3 52 -1 98 6 115 10 25 14 27 71 27 46 0 60 3 60 15 0 9
6 12 16 8 12 -4 15 -2 12 8 -3 8 -12 12 -19 10 -8 -2 -42 -5 -77 -7 l-63 -3 7
82 c3 45 11 90 16 100 9 18 3 37 -12 37 -5 0 -14 -9 -19 -19z"/>
<path d="M11012 7229 c-33 -21 -72 -84 -72 -114 0 -14 23 -85 45 -139 7 -17 3
-18 -66 -15 -61 3 -74 1 -74 -11 0 -11 17 -16 73 -21 43 -3 77 -11 81 -18 12
-18 -6 -102 -28 -131 -10 -14 -28 -25 -42 -25 -25 0 -28 -23 -6 -37 22 -14 35
-8 65 27 33 37 52 89 52 143 0 32 0 32 40 26 26 -4 40 -3 40 4 0 15 -33 32
-63 32 -21 0 -28 9 -51 71 -14 38 -26 79 -26 90 0 64 72 118 128 97 25 -10 34
-10 44 0 19 19 -4 34 -59 39 -37 3 -55 -1 -81 -18z"/>
<path d="M3006 7218 c-2 -7 -14 -60 -27 -117 -13 -57 -28 -105 -34 -106 -5 -1
-28 -7 -50 -11 -56 -13 -55 -40 1 -36 l41 3 -5 -76 c-4 -71 -3 -77 14 -73 15
2 18 14 20 64 1 33 6 70 12 81 11 20 50 33 97 33 23 0 62 35 48 43 -5 3 -37 0
-71 -8 -57 -11 -62 -11 -58 4 32 108 48 182 43 195 -8 19 -26 21 -31 4z"/>
<path d="M14146 7204 c-3 -9 -6 -39 -6 -67 0 -29 -7 -115 -15 -192 -16 -144
-13 -195 9 -195 13 0 16 30 32 310 4 58 11 110 15 116 12 15 1 44 -16 44 -7 0
-16 -7 -19 -16z"/>
<path d="M3624 7198 c-5 -7 -7 -25 -5 -40 3 -34 -12 -115 -44 -228 -38 -136
-40 -152 -19 -148 13 2 25 33 50 128 18 69 39 158 45 198 10 63 10 75 -3 89
-13 12 -17 13 -24 1z"/>
<path d="M7427 7194 c-3 -3 -3 -30 0 -59 3 -30 0 -97 -7 -149 -10 -78 -16 -95
-31 -99 -18 -5 -17 -8 8 -46 64 -99 194 -64 210 57 4 30 0 41 -19 59 -27 25
-82 32 -115 15 -21 -11 -22 -10 -17 20 2 18 6 70 7 115 2 63 -1 84 -11 88 -17
6 -17 6 -25 -1z m124 -254 c47 -26 0 -120 -60 -120 -44 0 -62 23 -49 60 11 32
52 70 75 70 8 0 23 -5 34 -10z"/>
<path d="M2777 7128 c-3 -35 -13 -99 -21 -143 -20 -106 -21 -189 -1 -205 12
-10 16 -9 21 4 3 9 3 27 0 41 -7 26 15 183 39 289 15 65 13 76 -14 76 -15 0
-19 -11 -24 -62z"/>
<path d="M9608 7183 c-16 -4 -18 -19 -19 -121 -3 -245 3 -322 24 -322 9 0 12
54 12 198 0 151 3 203 13 215 8 9 11 21 7 27 -6 10 -9 11 -37 3z"/>
<path d="M12897 7163 c-4 -3 -7 -15 -7 -25 0 -21 -39 -108 -49 -108 -3 0 -14
18 -23 40 -32 77 -123 90 -200 29 -45 -36 -70 -85 -70 -136 0 -39 14 -58 55
-79 26 -14 33 -14 70 1 23 9 64 30 90 46 26 16 52 27 58 24 5 -4 14 -26 20
-50 11 -45 51 -95 75 -95 26 0 26 23 1 44 -14 11 -35 45 -46 75 l-20 54 22 31
c31 43 77 139 71 148 -6 10 -38 11 -47 1z m-149 -69 c24 -7 52 -50 52 -83 0
-13 -19 -30 -63 -54 -85 -48 -108 -53 -137 -29 -23 18 -23 22 -11 63 22 77 90
121 159 103z"/>
<path d="M3193 7134 c-7 -18 17 -38 31 -24 11 11 1 40 -14 40 -6 0 -13 -7 -17
-16z"/>
<path d="M15150 7117 c0 -27 23 -52 39 -43 14 9 -3 61 -22 64 -12 3 -17 -3
-17 -21z"/>
<path d="M3990 7090 c0 -15 5 -20 18 -18 9 2 17 10 17 18 0 8 -8 16 -17 18
-13 2 -18 -3 -18 -18z"/>
<path d="M9785 7059 c-9 -13 13 -30 35 -26 8 1 15 9 15 17 0 18 -40 26 -50 9z"/>
<path d="M5684 7045 c-4 -9 -4 -46 -2 -83 8 -109 56 -180 96 -140 6 6 21 53
33 104 21 91 22 93 46 83 46 -17 146 12 129 39 -4 8 -15 8 -36 0 -29 -10 -62
-8 -122 7 -23 6 -28 4 -32 -16 -2 -13 -13 -62 -23 -109 l-19 -85 -17 32 c-16
29 -24 115 -16 158 5 24 -28 34 -37 10z"/>
<path d="M15968 7036 c-7 -7 -20 -11 -29 -9 -21 6 -79 -44 -79 -68 0 -11 21
-42 46 -69 55 -59 54 -80 -6 -80 -22 0 -40 5 -40 10 0 6 -7 10 -15 10 -8 0
-15 -9 -15 -20 0 -41 100 -55 138 -20 32 31 27 55 -23 109 -25 26 -45 53 -45
60 0 19 63 51 95 49 20 -2 30 2 30 11 0 20 -42 33 -57 17z"/>
<path d="M13258 7028 c-22 -6 -38 -16 -38 -24 0 -20 27 -29 45 -14 10 9 32 11
65 7 44 -5 50 -4 50 12 0 30 -51 38 -122 19z"/>
<path d="M15441 6975 c-11 -36 -21 -76 -21 -90 0 -27 -19 -75 -30 -75 -11 0
-28 44 -35 93 -8 52 -29 77 -47 59 -9 -9 -9 -18 -1 -34 7 -13 14 -39 17 -58 8
-48 42 -100 64 -100 32 0 50 32 67 115 19 93 30 116 49 109 21 -8 28 12 10 30
-32 32 -50 20 -73 -49z"/>
<path d="M3343 6985 c-25 -25 -48 -43 -52 -41 -15 10 -30 -12 -44 -69 -9 -33
-27 -100 -41 -148 -21 -77 -22 -89 -9 -94 19 -7 27 6 48 76 9 31 18 61 20 68
3 9 11 9 31 -2 23 -12 31 -12 53 0 35 18 77 64 90 98 23 61 1 157 -36 157 -8
0 -36 -20 -60 -45z m67 -57 c0 -45 -4 -54 -39 -89 -21 -22 -44 -39 -49 -39
-17 0 -34 39 -28 63 7 29 95 129 107 121 5 -3 9 -28 9 -56z"/>
<path d="M12122 7014 c-28 -19 -40 -42 -57 -107 -16 -60 -7 -120 17 -125 13
-3 16 7 16 57 0 64 15 123 36 140 13 11 66 -6 66 -21 0 -5 5 -8 10 -8 19 0 10
26 -18 53 -33 31 -40 32 -70 11z"/>
<path d="M5113 7000 c-70 -42 -86 -152 -26 -179 22 -10 28 -8 57 21 l32 33 23
-27 c12 -16 29 -28 36 -28 26 0 27 21 1 41 -29 23 -35 73 -15 111 24 45 -50
64 -108 28z m62 -42 c-9 -31 -57 -100 -72 -106 -9 -2 -13 9 -13 38 0 46 34 90
70 90 17 0 20 -4 15 -22z"/>
<path d="M6016 7010 c-86 -26 -140 -156 -85 -206 39 -35 215 -29 193 7 -3 6
-24 7 -50 3 -100 -15 -151 20 -124 86 12 28 14 29 30 15 22 -20 48 -19 88 5
37 23 41 47 12 78 -23 24 -22 24 -64 12z m41 -47 c5 -15 -41 -28 -58 -17 -9 5
-7 11 7 21 21 16 45 14 51 -4z"/>
<path d="M6958 7003 c-9 -10 -19 -30 -23 -45 -4 -15 -13 -29 -21 -32 -16 -6
-19 -42 -3 -51 6 -4 9 -23 7 -43 -2 -28 1 -38 13 -40 14 -2 18 10 24 70 11
108 18 122 58 113 81 -17 107 -18 107 -3 0 10 -18 19 -52 27 -29 6 -62 14 -73
17 -13 3 -27 -2 -37 -13z"/>
<path d="M6255 6992 c-73 -46 -91 -108 -45 -157 32 -34 118 -59 154 -45 42 15
27 32 -31 34 -59 2 -106 29 -111 65 -6 41 60 92 114 88 20 -1 29 3 29 13 0 23
-73 25 -110 2z"/>
<path d="M14930 7002 c-93 -9 -169 -136 -106 -177 32 -21 69 -11 111 32 l33
34 4 -128 c2 -70 4 -129 3 -130 0 -1 -21 3 -47 8 -32 7 -53 7 -67 0 -66 -36
-2 -191 79 -191 65 0 81 73 69 303 -8 143 -23 244 -38 250 -3 1 -22 1 -41 -1z
m5 -75 c-16 -63 -104 -105 -97 -47 4 42 74 100 95 80 4 -4 5 -19 2 -33z m36
-333 c12 -7 12 -46 -1 -78 -6 -18 -17 -26 -33 -26 -33 0 -58 31 -64 81 l-6 42
47 -6 c26 -4 52 -9 57 -13z"/>
<path d="M16589 6989 c-59 -27 -87 -55 -95 -95 -13 -70 31 -96 101 -58 l45 23
0 -27 c0 -38 35 -90 65 -98 40 -10 106 4 149 32 29 20 35 29 27 37 -9 9 -20 7
-44 -7 -41 -24 -107 -37 -129 -25 -22 12 -38 70 -31 114 8 48 -5 103 -25 114
-13 7 -31 4 -63 -10z m37 -71 c-17 -35 -69 -74 -86 -63 -16 10 -12 51 8 67 29
26 77 47 85 38 5 -4 2 -23 -7 -42z"/>
<path d="M2147 6993 c-4 -3 -7 -19 -7 -35 0 -16 -11 -51 -25 -78 -29 -58 -33
-103 -9 -98 9 2 22 20 29 41 7 21 26 57 41 80 l29 42 5 -45 c6 -52 31 -66 51
-28 14 27 70 88 81 88 4 0 5 -27 2 -59 -4 -33 -4 -70 0 -84 7 -30 41 -44 62
-26 19 16 13 34 -12 34 -20 0 -22 12 -13 120 4 47 3 50 -21 53 -17 2 -38 -8
-66 -32 l-40 -34 -12 30 c-8 23 -15 28 -31 23 -10 -3 -22 -1 -26 5 -7 11 -28
13 -38 3z"/>
<path d="M7667 6993 c-9 -9 1 -116 15 -163 6 -19 18 -40 26 -46 12 -9 12 -16
-1 -55 -19 -57 -31 -134 -22 -149 11 -18 35 8 35 39 0 40 65 256 89 297 22 37
16 65 -9 49 -15 -9 -60 -104 -60 -127 0 -10 -4 -18 -9 -18 -14 0 -24 36 -30
109 -6 60 -17 82 -34 64z"/>
<path d="M8326 6991 c-3 -5 -15 -7 -26 -4 -48 13 -138 -82 -126 -132 11 -43
41 -50 92 -20 25 15 47 25 48 23 1 -1 7 -14 13 -28 13 -30 73 -66 97 -57 26
10 19 25 -19 37 -47 15 -58 39 -53 118 2 43 -1 66 -9 69 -6 2 -14 0 -17 -6z
m-21 -51 c9 -14 -24 -59 -55 -75 -50 -26 -56 12 -9 56 32 30 53 36 64 19z"/>
<path d="M8863 6990 c-52 -21 -49 -59 11 -139 41 -55 30 -90 -31 -94 -25 -2
-28 1 -29 30 0 42 -12 53 -30 29 -17 -24 -18 -68 -2 -84 7 -7 31 -12 54 -12
32 0 49 7 73 29 17 16 31 39 31 51 0 11 -19 48 -42 81 -47 67 -44 81 19 83 27
1 38 5 38 16 0 18 -58 24 -92 10z"/>
<path d="M11450 6993 c0 -6 -8 -9 -18 -6 -14 3 -25 -8 -46 -46 -42 -78 -23
-139 52 -160 33 -10 72 4 80 28 4 11 -3 12 -33 7 -46 -9 -85 13 -85 49 0 32
30 95 46 95 19 0 28 20 15 33 -8 8 -11 8 -11 0z"/>
<path d="M3141 6968 c-16 -42 -33 -139 -27 -154 12 -32 31 -5 42 62 16 88 17
114 4 114 -6 0 -14 -10 -19 -22z"/>
<path d="M3686 6982 c-6 -10 18 -122 33 -149 6 -13 18 -23 26 -23 8 0 15 -2
15 -4 0 -2 -17 -41 -39 -87 -57 -124 -80 -194 -71 -208 11 -19 27 -6 34 26 11
44 125 292 169 366 29 50 37 71 29 79 -8 8 -15 8 -27 -2 -8 -7 -15 -16 -15
-19 0 -4 -14 -33 -31 -64 -26 -49 -33 -56 -49 -47 -12 7 -21 26 -25 58 -4 26
-9 55 -12 65 -4 17 -28 23 -37 9z"/>
<path d="M3955 6979 c-4 -6 -5 -13 -2 -15 3 -3 -4 -37 -14 -76 -19 -69 -16
-99 9 -84 14 8 46 152 38 171 -6 17 -22 20 -31 4z"/>
<path d="M13803 6977 c-11 -18 16 -28 93 -34 82 -6 124 4 124 30 0 14 -208 18
-217 4z"/>
<path d="M15640 6972 c-46 -23 -83 -78 -75 -112 10 -42 50 -70 102 -70 37 0
44 3 39 16 -3 9 -6 20 -6 26 0 6 -14 8 -36 4 -22 -5 -41 -3 -50 5 -18 15 -18
29 1 29 9 0 18 7 21 15 4 10 13 13 25 10 22 -7 74 18 83 40 3 9 1 25 -4 36
-13 24 -54 25 -100 1z m70 -21 c0 -10 -61 -41 -80 -41 -19 0 1 21 34 36 37 16
46 17 46 5z"/>
<path d="M4118 6970 c-25 -15 -61 -78 -54 -96 3 -8 2 -13 -3 -10 -11 7 -35
-50 -26 -63 10 -18 45 7 45 32 0 27 40 99 58 105 11 3 13 -10 10 -62 -1 -36
-1 -66 2 -66 18 1 28 22 34 72 11 84 -15 117 -66 88z"/>
<path d="M4368 6951 c-58 -37 -83 -79 -67 -115 21 -45 66 -52 141 -21 14 6 16
-2 13 -72 -2 -43 -4 -97 -4 -120 -1 -43 -1 -43 -38 -43 -90 0 -146 -67 -124
-147 18 -65 62 -89 111 -63 26 14 67 86 75 133 5 27 12 37 26 37 11 0 19 7 19
15 0 8 -7 15 -15 15 -22 0 -22 245 1 298 13 31 13 43 3 75 -18 54 -36 47 -45
-19 -6 -48 -11 -58 -38 -75 -83 -51 -130 12 -49 67 15 10 37 19 48 19 13 0 20
7 20 20 0 30 -25 29 -77 -4z m75 -433 c-9 -49 -40 -106 -65 -119 -18 -10 -24
-8 -40 11 -21 26 -24 78 -5 104 12 16 58 33 99 35 14 1 16 -5 11 -31z"/>
<path d="M9077 6956 c-45 -36 -67 -77 -67 -123 0 -34 5 -46 31 -67 35 -30 102
-36 135 -12 28 21 11 30 -47 27 -57 -3 -89 17 -89 53 0 30 47 95 77 107 25 9
27 32 2 36 -8 2 -27 -8 -42 -21z"/>
<path d="M11194 6964 c-74 -36 -89 -155 -19 -154 11 0 31 9 45 20 25 19 25 19
46 -7 15 -19 26 -24 39 -19 16 6 16 8 2 24 -9 9 -17 37 -19 61 -3 50 -23 65
-37 28 -12 -30 -73 -79 -84 -68 -11 11 21 80 37 82 6 1 20 2 30 3 26 1 31 22
9 35 -14 7 -28 5 -49 -5z"/>
<path d="M9944 6945 c-27 -27 -63 -99 -64 -127 0 -9 5 -20 11 -24 15 -9 50 36
44 56 -7 24 32 80 56 80 19 0 21 -5 17 -62 -3 -67 14 -91 32 -43 38 101 -30
186 -96 120z"/>
<path d="M10133 6951 c-45 -21 -72 -61 -65 -98 5 -33 49 -63 91 -63 43 0 115
31 128 55 12 21 29 -58 39 -177 l7 -78 -41 0 c-64 0 -119 -26 -131 -62 -9 -24
-7 -39 10 -79 23 -52 69 -99 98 -99 50 0 100 81 101 162 l0 46 48 -1 c36 -2
47 2 47 13 0 11 -13 16 -46 18 l-47 3 -12 97 c-15 117 -44 250 -58 264 -16 16
-32 0 -32 -32 0 -42 -9 -59 -41 -75 -36 -19 -103 -19 -119 0 -32 38 34 92 102
81 28 -5 38 -3 38 7 0 39 -51 47 -117 18z m204 -442 c-13 -109 -69 -148 -114
-80 -32 48 -39 79 -20 98 16 16 65 30 111 32 l29 1 -6 -51z"/>
<path d="M2475 6926 c-21 -51 -19 -92 7 -116 33 -30 80 -26 123 11 40 35 52
68 35 98 -16 31 -30 25 -30 -13 0 -26 -7 -41 -31 -60 -37 -31 -50 -32 -74 -5
-17 18 -17 24 -6 52 17 44 18 59 3 64 -7 3 -19 -10 -27 -31z"/>
<path d="M6731 6934 c-82 -68 -17 -202 76 -157 60 29 62 78 6 148 -33 42 -42
43 -82 9z m64 -49 c29 -28 31 -47 9 -69 -34 -34 -74 -9 -74 46 0 24 16 48 32
48 5 0 20 -11 33 -25z"/>
<path d="M15144 6935 c3 -11 6 -48 6 -83 0 -78 21 -81 33 -6 10 71 2 113 -24
111 -15 -1 -19 -6 -15 -22z"/>
<path d="M9335 6941 c-33 -14 -75 -62 -75 -87 0 -47 89 -73 137 -39 20 14 23
13 39 -15 10 -16 24 -32 31 -34 23 -9 25 14 4 43 -12 16 -21 43 -21 60 0 40
-16 39 -56 -4 -17 -19 -40 -35 -50 -35 -78 1 -36 81 43 84 39 1 38 30 -2 33
-16 1 -39 -2 -50 -6z"/>
<path d="M11915 6940 c-3 -5 -11 -7 -19 -4 -19 7 -65 -44 -72 -82 -8 -43 -2
-58 31 -80 22 -14 32 -15 65 -5 42 12 80 52 80 83 0 51 -65 120 -85 88z m29
-46 c37 -37 3 -98 -51 -92 -60 7 -35 101 29 107 4 1 14 -6 22 -15z"/>
<path d="M13385 6940 c-5 -8 -35 -11 -89 -8 -68 2 -81 1 -84 -13 -4 -22 30
-28 118 -20 76 7 100 20 76 40 -11 9 -16 9 -21 1z"/>
<path d="M9749 6933 c-1 -5 0 -35 1 -68 2 -54 13 -80 30 -70 9 5 6 118 -3 133
-9 13 -26 16 -28 5z"/>
<path d="M9067 6840 c3 -11 7 -20 9 -20 2 0 4 9 4 20 0 11 -4 20 -9 20 -5 0
-7 -9 -4 -20z"/>
<path d="M14545 6258 c-2 -7 -9 -44 -15 -83 -6 -38 -15 -94 -21 -122 l-10 -53
-49 0 c-58 0 -103 -15 -97 -33 4 -11 53 -12 115 -2 28 5 28 -8 3 -130 -18 -86
-15 -123 9 -99 7 7 50 204 50 230 0 1 21 5 48 8 76 12 177 49 177 66 0 17 3
17 -119 -16 -50 -13 -92 -22 -94 -19 -3 2 5 59 17 125 12 67 19 126 16 131 -9
13 -25 11 -30 -3z"/>
<path d="M4934 6238 c-4 -7 -8 -96 -9 -198 0 -102 -5 -211 -9 -242 -8 -50 -7
-58 7 -58 11 0 20 15 27 43 14 56 47 127 60 127 6 0 10 -33 11 -77 2 -99 10
-137 31 -141 14 -3 15 7 11 85 -6 123 -11 148 -33 168 -20 18 -21 18 -45 -5
l-25 -23 2 163 c2 113 -1 165 -9 167 -6 2 -15 -2 -19 -9z"/>
<path d="M16255 6240 c-3 -6 -24 -58 -45 -118 l-38 -107 -63 0 c-40 -1 -64 -5
-67 -13 -5 -15 39 -32 84 -32 29 0 34 -3 30 -17 -3 -10 -10 -40 -16 -66 -6
-27 -18 -60 -27 -75 -9 -15 -13 -24 -8 -20 4 4 14 0 21 -10 18 -22 30 -5 39
55 3 24 13 66 21 94 12 41 19 49 38 49 27 0 53 25 36 35 -5 3 -19 3 -30 0 -11
-4 -20 -4 -20 -1 0 3 18 54 39 115 22 60 37 112 33 115 -8 9 -20 7 -27 -4z"/>
<path d="M2840 6238 c0 -2 -3 -57 -6 -123 -2 -66 -9 -124 -14 -129 -7 -7 -21
-6 -42 2 -33 12 -48 9 -48 -12 0 -15 30 -26 71 -26 23 0 27 -5 33 -37 3 -21 6
-54 6 -74 0 -42 23 -79 40 -63 8 8 8 19 0 38 -5 15 -10 52 -10 81 l0 54 43 3
c29 2 42 8 42 18 0 11 -13 16 -46 18 l-47 3 4 37 c11 113 11 191 1 201 -10 10
-26 15 -27 9z"/>
<path d="M4720 6221 c0 -5 12 -37 27 -71 23 -55 25 -67 17 -117 l-9 -57 -50
-13 c-27 -8 -67 -12 -87 -9 -38 4 -58 -8 -41 -25 12 -12 73 -18 98 -9 11 4 33
10 48 14 l29 7 -7 -56 c-10 -73 1 -145 22 -145 12 0 14 11 13 53 -2 28 -2 73
-1 98 1 46 1 47 34 45 26 -1 32 3 32 19 0 16 -6 19 -29 17 -28 -3 -28 -2 -21
30 5 18 8 50 7 70 -2 49 -46 152 -66 156 -9 2 -16 -1 -16 -7z"/>
<path d="M13032 6188 c0 -24 -3 -136 -7 -250 -8 -200 -7 -208 11 -208 18 0 19
9 19 117 0 65 4 178 9 251 8 130 8 132 -12 132 -18 0 -21 -6 -20 -42z"/>
<path d="M3982 6208 c-30 -15 -45 -73 -46 -180 -1 -79 -3 -88 -21 -90 -28 -4
-25 -31 4 -38 19 -4 27 -16 37 -58 22 -86 54 -136 75 -115 5 5 -2 30 -15 58
-13 28 -27 65 -31 83 l-7 32 46 0 c66 0 63 26 -4 35 l-50 7 1 81 c2 101 9 137
31 151 13 8 22 6 41 -12 13 -12 28 -22 33 -22 18 0 12 29 -10 49 -28 25 -56
32 -84 19z"/>
<path d="M7577 6033 c-11 -307 -10 -343 11 -343 16 0 17 19 20 242 2 147 7
247 13 255 14 16 3 33 -20 33 -16 0 -18 -17 -24 -187z"/>
<path d="M10252 6193 c-5 -10 -15 -63 -22 -118 -7 -55 -16 -103 -19 -107 -3
-4 -35 -8 -71 -10 -49 -3 -65 -7 -65 -18 0 -12 16 -16 68 -18 l69 -3 -4 -94
c-2 -62 1 -98 9 -106 18 -18 36 26 28 68 -3 19 -3 58 0 87 l7 52 51 -1 c41 0
52 3 55 18 3 14 -5 17 -52 17 -64 0 -61 -9 -41 115 8 50 16 99 17 109 4 25
-18 32 -30 9z"/>
<path d="M8719 6196 c-4 -17 -23 -307 -24 -350 0 -41 21 -61 31 -29 16 50 28
76 46 99 27 33 48 16 48 -40 0 -22 3 -51 6 -64 8 -29 50 -40 71 -19 19 19 9
37 -17 30 -18 -5 -20 0 -20 34 0 58 -17 99 -47 112 -23 11 -29 9 -55 -16 l-30
-28 6 25 c3 14 8 66 11 115 3 50 7 99 8 110 2 17 -31 37 -34 21z"/>
<path d="M10419 6198 c-1 -2 -2 -19 -4 -38 -6 -80 -37 -279 -52 -333 -11 -41
-13 -61 -5 -69 15 -15 29 -3 36 34 3 17 18 51 32 75 44 76 87 48 87 -57 -1
-64 4 -75 23 -59 20 16 18 106 -4 149 -20 42 -63 61 -93 42 -19 -12 -20 -11
-15 20 6 33 25 176 29 213 1 11 -5 21 -15 23 -10 2 -18 2 -19 0z"/>
<path d="M8546 6163 c-2 -10 -8 -51 -11 -90 -8 -79 -18 -89 -62 -58 -23 16
-53 11 -53 -10 0 -15 51 -35 86 -35 23 0 24 -2 24 -91 0 -90 12 -135 31 -123
7 4 8 41 4 109 l-7 104 33 3 c23 2 35 9 37 21 3 13 -4 17 -31 17 l-34 0 10 63
c5 34 13 67 19 74 5 7 7 17 3 23 -10 16 -43 12 -49 -7z"/>
<path d="M16435 6170 c-9 -15 4 -30 26 -30 12 0 19 7 19 20 0 21 -33 29 -45
10z"/>
<path d="M13937 6163 c-3 -5 -10 -51 -17 -103 -6 -52 -23 -144 -37 -203 -14
-59 -23 -113 -20 -121 7 -19 83 -19 124 0 98 47 112 194 18 194 -25 0 -39 -7
-56 -27 l-22 -28 6 30 c3 17 11 71 18 120 6 50 16 95 21 101 4 6 6 19 2 28 -6
16 -29 22 -37 9z m93 -283 c12 -22 -6 -76 -33 -98 -23 -19 -87 -28 -87 -12 0
19 59 108 79 120 23 14 29 12 41 -10z"/>
<path d="M12302 6128 c4 -43 33 -46 33 -3 0 21 -5 31 -18 33 -15 3 -18 -2 -15
-30z"/>
<path d="M15734 6145 c-3 -8 -3 -19 1 -25 10 -16 45 7 39 25 -8 19 -33 19 -40
0z"/>
<path d="M11880 6095 c0 -20 39 -40 53 -26 7 7 6 15 -3 26 -16 19 -50 20 -50
0z"/>
<path d="M2265 6049 c-22 -4 -66 -8 -97 -8 l-58 -1 0 -32 c0 -18 4 -49 9 -68
15 -56 21 -134 12 -148 -5 -9 -15 3 -30 38 -28 64 -45 160 -31 174 15 15 12
23 -9 29 -35 9 -41 -4 -31 -75 12 -83 44 -169 77 -209 24 -28 27 -29 42 -14
18 18 22 124 7 213 l-9 52 29 0 c45 1 137 25 141 37 6 17 -8 20 -52 12z"/>
<path d="M15242 6016 c-51 -48 -90 -106 -72 -106 6 0 8 -5 5 -10 -4 -6 -10 -8
-14 -6 -20 13 -85 -198 -93 -299 -2 -30 1 -40 12 -40 18 0 65 110 75 175 6 43
8 45 39 46 63 1 117 65 142 167 12 46 13 69 5 90 -15 39 -44 34 -99 -17z m65
-45 c-10 -85 -64 -161 -113 -161 -29 0 -31 21 -8 75 16 39 99 135 117 135 6 0
8 -19 4 -49z"/>
<path d="M5920 5999 c-32 -13 -60 -39 -60 -55 0 -6 23 -34 51 -61 65 -62 83
-94 65 -118 -12 -16 -15 -16 -54 4 -40 20 -57 37 -57 56 0 5 -8 11 -17 13 -13
3 -18 -3 -18 -22 0 -28 42 -66 104 -91 37 -16 39 -15 62 6 16 15 24 34 24 57
0 28 -10 44 -61 94 -71 71 -68 83 21 83 39 -1 61 4 64 12 3 7 2 14 -2 17 -18
11 -100 14 -122 5z"/>
<path d="M11712 5988 c-27 -30 -38 -60 -46 -133 -5 -46 -3 -65 8 -80 19 -25
23 -14 29 77 5 75 26 118 57 118 23 0 26 10 8 28 -18 18 -32 15 -56 -10z"/>
<path d="M15474 6000 c-59 -23 -95 -127 -58 -164 18 -19 30 -20 73 -5 38 13
51 35 51 86 0 22 5 44 12 51 23 23 -38 48 -78 32z m32 -106 c-4 -14 -16 -26
-32 -30 -50 -13 -55 26 -12 81 l21 27 14 -27 c8 -15 12 -38 9 -51z"/>
<path d="M16580 5985 c-14 -15 -30 -23 -40 -20 -10 3 -22 -1 -29 -9 -15 -18
-43 -125 -35 -137 11 -18 23 -8 42 34 18 39 97 126 106 116 2 -2 0 -24 -5 -49
-17 -79 -19 -130 -5 -130 17 0 51 158 42 194 -8 34 -44 35 -76 1z"/>
<path d="M16826 5989 c-30 -23 -66 -88 -66 -117 0 -30 25 -45 70 -40 l40 4 0
-97 0 -96 -52 -6 c-93 -11 -129 -56 -130 -161 -2 -103 48 -159 111 -125 33 18
78 108 93 185 l11 61 38 -7 c37 -7 49 -4 49 10 0 10 -48 30 -70 30 -23 0 -24
6 -10 188 7 101 12 126 27 138 17 13 17 15 -6 34 -30 26 -71 25 -105 -1z m54
-52 c0 -41 -17 -64 -52 -73 -31 -7 -37 10 -17 49 33 63 69 76 69 24z m-23
-389 c-9 -70 -55 -162 -84 -166 -36 -5 -56 37 -51 110 6 76 35 108 100 108
l41 0 -6 -52z"/>
<path d="M15882 5970 c-23 -16 -44 -30 -47 -30 -3 0 -9 0 -14 0 -5 0 -14 -21
-21 -47 -6 -26 -16 -53 -22 -60 -10 -13 -3 -33 13 -33 5 0 29 31 54 69 24 39
54 75 66 81 21 12 21 11 13 -16 -15 -52 -11 -108 8 -112 18 -3 17 -5 21 123 2
62 -13 67 -71 25z"/>
<path d="M16356 5988 c-7 -25 -28 -143 -30 -167 -2 -47 21 -31 38 26 21 72 26
144 9 150 -7 3 -15 -1 -17 -9z"/>
<path d="M2341 5964 c-61 -51 -63 -143 -4 -181 40 -26 163 -6 163 28 0 4 -31
5 -70 2 -49 -4 -74 -2 -85 7 -16 13 -22 55 -6 46 17 -11 91 46 91 70 0 60 -38
72 -89 28z m56 -29 c0 -8 -6 -15 -13 -15 -7 0 -21 -3 -31 -7 -17 -6 -17 -5 1
15 22 25 43 29 43 7z"/>
<path d="M9561 5971 c-30 -30 -33 -22 45 -129 13 -18 15 -30 8 -50 -11 -33
-43 -41 -61 -16 -9 13 -16 15 -24 7 -17 -17 -1 -52 27 -59 35 -9 70 9 89 47
21 40 14 66 -30 119 -38 46 -35 72 8 67 14 -1 22 4 22 13 0 25 -60 25 -84 1z"/>
<path d="M10674 5971 c-69 -42 -101 -128 -70 -188 17 -34 69 -63 113 -63 38 0
118 27 133 45 24 29 -1 32 -61 8 -40 -16 -70 -22 -88 -18 -78 17 -97 101 -37
161 37 37 63 43 73 19 7 -20 -23 -54 -64 -72 -33 -13 -41 -27 -24 -37 23 -15
95 35 120 82 9 17 9 27 0 45 -23 42 -47 47 -95 18z"/>
<path d="M2588 5968 c-58 -46 -77 -155 -35 -203 39 -46 157 -45 157 1 0 11 -6
13 -22 8 -63 -20 -128 9 -128 57 0 30 25 84 50 107 32 30 12 56 -22 30z"/>
<path d="M7760 5954 c-17 -15 -37 -39 -46 -55 -8 -16 -21 -29 -29 -29 -22 0
-30 -22 -13 -34 9 -7 23 -28 31 -47 9 -23 26 -40 46 -49 35 -14 104 -9 127 11
14 11 14 13 0 21 -10 5 -24 4 -36 -2 -41 -22 -110 10 -110 51 0 16 7 19 41 19
33 0 47 6 75 34 39 39 42 58 14 86 -27 27 -62 25 -100 -6z m80 -27 c0 -21 -33
-46 -70 -53 -36 -8 -36 0 3 44 22 24 67 30 67 9z"/>
<path d="M9343 5959 c-63 -40 -95 -156 -53 -194 22 -20 80 -15 100 10 10 12
15 11 32 -5 17 -16 25 -17 42 -8 21 11 21 11 -3 22 -21 9 -23 15 -18 56 4 34
0 56 -16 90 -26 52 -40 58 -84 29z m47 -48 c0 -17 4 -32 10 -36 24 -15 -31
-85 -67 -85 -31 0 -38 20 -23 66 12 36 53 84 71 84 5 0 9 -13 9 -29z"/>
<path d="M3251 5944 c-12 -15 -21 -33 -21 -41 0 -10 -6 -12 -20 -8 -19 6 -20
2 -20 -72 0 -43 4 -84 9 -92 18 -28 38 7 50 86 6 43 19 88 28 102 l16 24 17
-23 c17 -23 40 -21 40 4 0 19 -34 46 -58 46 -11 0 -30 -12 -41 -26z"/>
<path d="M11480 5963 c-47 -17 -100 -100 -100 -156 0 -47 33 -87 71 -87 75 0
126 60 114 133 -4 23 -11 49 -15 57 -5 9 -2 18 7 26 34 24 -26 46 -77 27z m36
-68 c7 -19 14 -50 14 -70 0 -29 -6 -39 -32 -55 -43 -26 -54 -25 -74 5 -13 20
-14 30 -4 60 12 38 55 95 71 95 6 0 17 -16 25 -35z"/>
<path d="M12275 5948 c-11 -46 -10 -191 1 -195 12 -4 39 191 28 208 -9 16 -23
10 -29 -13z"/>
<path d="M12484 5948 c-16 -12 -33 -29 -38 -38 -5 -8 -23 -27 -38 -42 -24 -22
-29 -34 -26 -65 4 -45 28 -52 39 -10 9 35 58 111 79 125 14 9 16 4 12 -48 -5
-72 25 -140 51 -114 3 3 1 18 -5 33 -5 14 -11 60 -12 101 -1 85 -12 96 -62 58z"/>
<path d="M12700 5942 c-37 -38 -57 -103 -42 -137 15 -32 48 -33 94 -1 l35 23
12 -32 c12 -34 36 -51 47 -34 3 5 -2 26 -11 46 -12 24 -15 48 -11 74 9 54 -22
64 -38 12 -8 -26 -61 -73 -82 -73 -21 0 -17 40 7 80 21 34 22 35 30 12 10 -28
33 -24 37 5 3 21 -21 53 -39 53 -6 0 -23 -13 -39 -28z"/>
<path d="M6160 5952 c-41 -13 -90 -89 -90 -140 0 -57 71 -82 122 -43 l24 20
18 -30 c9 -16 21 -29 26 -29 19 0 19 20 0 52 -11 18 -20 45 -20 60 0 37 -10
58 -26 58 -9 0 -14 -11 -14 -33 0 -59 -49 -100 -87 -72 -16 12 -16 15 1 54 25
53 45 71 81 68 20 -1 30 3 30 12 0 16 -41 31 -65 23z"/>
<path d="M8041 5933 c-22 -22 -31 -27 -35 -17 -3 8 -11 14 -18 14 -10 0 -10
-2 0 -9 11 -7 11 -9 -1 -14 -8 -3 -17 -23 -21 -44 -4 -21 -9 -50 -12 -65 -10
-51 23 -31 63 39 21 36 44 68 50 70 19 7 35 -44 38 -114 3 -66 9 -83 29 -83
10 0 12 17 9 73 -6 91 -17 128 -48 157 l-24 23 -30 -30z"/>
<path d="M12009 5932 c-78 -65 -77 -162 0 -162 16 0 40 9 53 20 l25 19 7 -60
c3 -34 3 -85 0 -114 l-7 -54 -47 6 c-43 5 -51 3 -74 -20 -49 -49 -21 -157 47
-181 38 -14 74 22 94 96 15 52 18 57 47 60 38 4 37 20 -1 30 l-28 7 3 89 c2
48 -1 118 -5 154 -8 55 -7 67 6 76 14 8 13 13 -8 35 -30 33 -73 32 -112 -1z
m36 -109 c-31 -27 -38 -28 -54 -9 -16 19 7 65 46 96 l28 22 3 -43 c3 -37 -1
-47 -23 -66z m35 -300 c0 -42 -31 -98 -55 -98 -29 0 -59 64 -45 99 8 23 15 26
55 26 42 0 45 -2 45 -27z"/>
<path d="M15659 5958 c0 -2 -8 -33 -18 -71 -13 -52 -15 -70 -6 -77 19 -15 33
9 38 61 2 25 7 51 11 57 8 14 0 32 -15 32 -5 0 -9 -1 -10 -2z"/>
<path d="M3730 5921 c-16 -16 -32 -40 -36 -55 -23 -91 63 -175 139 -135 53 28
50 66 -10 130 -42 45 -44 49 -19 39 55 -20 64 12 10 35 -48 20 -51 20 -84 -14z
m100 -146 c-17 -20 -64 -19 -82 3 -24 27 -28 49 -16 83 l11 32 50 -52 c40 -42
47 -54 37 -66z"/>
<path d="M5175 5928 c-42 -33 -57 -77 -45 -139 6 -28 10 -53 10 -55 0 -2 13
-10 30 -19 37 -19 159 -20 185 -2 31 24 10 35 -44 24 -48 -9 -104 -5 -128 11
-6 4 -15 20 -18 35 -6 24 -5 27 19 27 78 0 127 79 78 123 -25 23 -54 21 -87
-5z m69 -27 c11 -17 -6 -40 -37 -50 -41 -15 -52 -1 -27 32 21 27 54 36 64 18z"/>
<path d="M6804 5940 c-12 -4 -32 -22 -45 -40 -13 -17 -35 -43 -49 -57 -22 -22
-23 -26 -9 -36 9 -7 19 -24 22 -39 16 -65 129 -98 203 -60 47 25 96 70 89 82
-6 9 -34 -3 -81 -37 -42 -30 -77 -37 -118 -23 -32 10 -66 42 -66 61 0 4 19 10
42 14 24 4 53 14 66 23 62 40 60 123 -2 121 -17 0 -40 -4 -52 -9z m66 -40 c0
-16 -38 -49 -64 -56 -43 -11 -50 0 -21 34 19 22 35 32 56 32 16 0 29 -4 29
-10z"/>
<path d="M14267 5943 c-4 -3 -7 -25 -7 -48 0 -31 -8 -53 -31 -84 -16 -23 -35
-41 -42 -38 -7 2 -13 24 -15 49 -2 37 1 50 19 67 18 17 20 24 11 33 -31 31
-79 -54 -68 -122 7 -44 39 -72 69 -61 12 5 37 30 56 56 26 36 36 60 39 101 4
43 1 54 -10 54 -8 0 -18 -3 -21 -7z"/>
<path d="M2994 5904 c-46 -49 -49 -85 -8 -121 33 -30 105 -32 134 -3 33 33 27
85 -14 126 -43 43 -70 43 -112 -2z m102 -39 c32 -49 -17 -90 -74 -63 -36 18
-38 39 -7 77 22 25 30 29 46 21 10 -6 26 -22 35 -35z"/>
<path d="M6359 5938 c0 -1 -1 -50 -2 -108 -1 -82 2 -105 12 -105 8 0 20 22 28
50 25 82 40 119 50 122 11 4 23 -29 23 -63 0 -12 6 -27 14 -33 10 -9 19 -5 41
16 15 15 34 41 43 58 18 35 20 29 24 -70 3 -59 6 -70 22 -73 25 -5 44 14 28
30 -7 7 -12 38 -12 71 0 70 -12 97 -45 97 -16 0 -30 -11 -45 -35 -26 -42 -36
-44 -45 -8 -14 58 -50 70 -84 28 -19 -26 -20 -26 -23 -4 -2 18 -26 40 -29 27z"/>
<path d="M8330 5911 c0 -5 -9 -7 -20 -4 -16 4 -19 2 -14 -13 5 -16 4 -16 -5
-4 -9 13 -13 13 -37 0 -15 -8 -36 -32 -47 -53 -18 -35 -18 -39 -3 -62 19 -29
61 -33 106 -10 17 9 30 14 30 13 0 -2 7 -48 14 -103 8 -54 12 -103 10 -107 -3
-4 -18 -8 -33 -8 -48 0 -91 -20 -97 -45 -11 -45 31 -131 77 -155 27 -15 73 11
89 49 7 17 14 52 15 78 l3 48 55 5 c59 5 73 12 63 29 -4 7 -29 8 -65 5 -32 -4
-61 -3 -64 2 -9 16 -31 198 -29 246 2 56 -12 98 -33 98 -8 0 -15 -4 -15 -9z
m-16 -47 c9 -3 16 -16 16 -29 0 -16 -11 -27 -39 -40 -62 -27 -82 0 -36 49 25
27 33 30 59 20z m66 -374 c0 -51 -25 -102 -48 -98 -24 5 -63 68 -60 97 3 26
27 38 81 40 25 1 27 -2 27 -39z"/>
<path d="M11845 5878 c-17 -49 -22 -99 -10 -114 10 -14 13 -15 21 -3 8 13 11
30 17 98 2 26 -20 41 -28 19z"/>
<path d="M8192 5708 c-5 -7 -13 -29 -17 -48 -4 -19 -17 -71 -30 -115 l-23 -80
-56 -5 c-31 -3 -56 -8 -56 -12 0 -5 0 -12 0 -17 0 -4 23 -6 52 -3 50 5 51 4
44 -19 -18 -64 -34 -175 -25 -183 15 -16 25 4 38 74 20 109 28 126 63 136 44
13 51 38 9 32 -17 -2 -31 -2 -31 1 0 13 53 198 61 214 16 30 -8 50 -29 25z"/>
<path d="M13325 5681 c-3 -5 0 -21 6 -35 11 -23 7 -32 -44 -99 -57 -75 -70
-107 -42 -107 8 0 15 4 15 9 0 5 23 37 51 72 66 82 73 102 54 140 -16 29 -29
36 -40 20z"/>
<path d="M5779 5608 c-6 -12 -24 -58 -39 -102 l-27 -81 -59 0 c-45 0 -59 -4
-59 -15 0 -11 14 -16 53 -18 37 -2 52 -7 49 -15 -27 -72 -40 -128 -30 -138 15
-15 33 -3 33 21 0 11 9 44 20 74 19 49 24 55 53 58 21 2 33 9 35 20 3 15 -2
17 -27 12 l-31 -6 16 48 c8 27 20 65 26 84 5 19 14 39 19 45 14 14 11 35 -6
35 -8 0 -20 -10 -26 -22z"/>
<path d="M3086 5608 c-2 -7 -16 -59 -31 -116 -15 -56 -31 -104 -34 -107 -4 -2
-34 0 -67 5 -34 4 -63 4 -68 -1 -17 -16 7 -28 64 -35 30 -3 57 -8 59 -10 2 -2
-1 -21 -8 -43 -8 -27 -8 -47 -1 -66 11 -29 36 -29 33 1 -1 10 3 40 8 66 10 45
12 47 52 55 55 11 59 39 6 35 l-36 -3 22 78 c29 98 34 145 18 150 -7 3 -15 -1
-17 -9z"/>
<path d="M7071 5597 c-5 -14 -13 -42 -16 -63 -4 -22 -11 -56 -16 -76 -9 -36
-12 -38 -48 -38 -106 0 -192 -140 -126 -205 58 -59 121 -15 173 122 24 64 56
191 65 262 3 25 -23 23 -32 -2z m-51 -212 c0 -21 -62 -135 -80 -148 -33 -23
-60 -6 -60 36 0 39 21 72 64 98 28 17 76 26 76 14z"/>
<path d="M2144 5574 c-9 -36 12 -56 32 -30 21 29 18 56 -6 56 -13 0 -22 -9
-26 -26z"/>
<path d="M3207 5584 c-4 -4 -7 -19 -7 -33 0 -25 -47 -198 -69 -254 -25 -65 5
-82 33 -19 23 52 62 99 73 89 4 -5 8 -43 8 -85 0 -62 3 -77 15 -77 12 0 16 17
18 82 3 72 0 85 -18 103 -13 13 -28 19 -40 15 -18 -6 -18 -4 -2 57 9 35 17 76
17 92 0 28 -14 43 -28 30z"/>
<path d="M5545 5550 c-9 -15 4 -30 26 -30 23 0 26 25 3 34 -21 8 -22 8 -29 -4z"/>
<path d="M7215 5551 c-9 -16 3 -31 26 -31 14 0 19 6 17 17 -4 20 -33 29 -43
14z"/>
<path d="M8673 5544 c-3 -8 -1 -20 6 -27 14 -14 47 15 37 32 -10 16 -36 13
-43 -5z"/>
<path d="M9059 5443 c-40 -38 -69 -59 -65 -48 17 42 18 57 5 65 -17 11 -29 3
-29 -18 0 -10 -16 -50 -35 -90 -30 -63 -32 -74 -19 -79 10 -4 23 2 33 14 9 10
44 45 78 77 l62 58 -15 -48 c-33 -110 -8 -160 78 -152 51 5 97 36 84 57 -5 7
-19 4 -45 -11 -43 -25 -86 -19 -96 12 -7 23 18 117 46 173 19 35 18 57 0 57
-5 0 -41 -30 -82 -67z"/>
<path d="M4731 5465 c-21 -19 -46 -35 -54 -35 -18 0 -37 -29 -37 -55 0 -9 -6
-31 -14 -48 -32 -71 -94 -282 -85 -291 15 -16 32 10 60 92 21 63 30 76 45 74
49 -8 80 0 122 35 58 48 97 130 87 188 -13 81 -61 97 -124 40z m89 -57 c0 -51
-30 -108 -77 -147 -45 -38 -86 -39 -91 -3 -9 61 120 230 154 202 8 -7 14 -30
14 -52z"/>
<path d="M5290 5460 c-34 -32 -35 -40 -15 -137 6 -28 4 -33 -23 -47 -38 -20
-42 -20 -42 -1 0 8 -7 15 -16 15 -11 0 -14 -8 -12 -27 4 -35 41 -42 88 -18 46
24 57 55 36 109 -20 53 -11 82 32 92 39 10 57 25 40 35 -25 16 -56 9 -88 -21z"/>
<path d="M3403 5432 c-52 -53 -56 -60 -71 -115 -26 -100 -10 -147 51 -147 47
0 132 25 130 38 -2 7 4 9 14 5 11 -4 14 -3 9 5 -4 8 -2 10 7 6 8 -3 18 -1 21
5 11 16 -11 22 -41 10 -94 -37 -173 -40 -173 -6 0 34 22 86 34 81 21 -8 61 12
105 54 44 42 50 62 25 86 -28 28 -70 20 -111 -22z m53 -48 c-67 -58 -100 -37
-34 22 29 27 50 34 63 22 7 -6 -3 -21 -29 -44z"/>
<path d="M4498 5450 c-19 -14 -28 -16 -37 -7 -21 21 -42 -17 -72 -134 -16 -63
-42 -151 -58 -197 -24 -69 -26 -85 -14 -89 21 -8 39 23 63 107 12 41 23 80 25
87 2 7 18 9 43 6 71 -9 131 42 147 124 11 59 -22 123 -63 123 -5 0 -20 -9 -34
-20z m56 -36 c20 -51 -1 -117 -46 -144 -37 -22 -47 -24 -67 -11 -21 14 4 86
48 134 36 40 55 46 65 21z"/>
<path d="M5005 5461 c-54 -23 -90 -102 -75 -167 13 -58 49 -70 107 -34 44 26
57 54 48 104 -4 23 -8 55 -8 71 -2 24 -7 30 -27 32 -14 1 -34 -2 -45 -6z m48
-114 c0 -35 -35 -70 -67 -65 -31 4 -29 88 3 122 l24 25 20 -26 c11 -14 20 -39
20 -56z"/>
<path d="M5946 5432 c-78 -59 -98 -141 -47 -193 26 -25 37 -29 86 -29 63 0
129 23 122 42 -5 14 -7 14 -85 -4 -45 -10 -58 -10 -80 3 -22 12 -27 22 -27 54
0 39 1 40 41 45 77 11 125 59 98 98 -22 32 -52 27 -108 -16z m75 -16 c-14 -17
-71 -38 -71 -27 0 13 43 40 64 40 15 1 16 -2 7 -13z"/>
<path d="M7335 5433 c-19 -21 -35 -41 -35 -44 0 -4 -8 -9 -19 -12 -14 -3 -20
-18 -26 -62 -3 -31 -4 -59 -1 -62 11 -11 36 7 36 27 0 29 33 90 64 119 l26 24
23 -21 c13 -12 28 -22 34 -22 7 0 7 -13 -1 -41 -14 -53 5 -89 56 -106 41 -14
93 -4 93 18 0 10 -10 13 -37 11 -40 -4 -78 12 -78 31 0 7 29 30 63 52 72 47
85 77 39 93 -32 11 -77 -3 -101 -32 -13 -15 -16 -14 -39 15 -45 53 -58 55 -97
12z m220 -33 c-8 -13 -66 -43 -71 -37 -7 7 47 47 63 47 8 0 11 -5 8 -10z"/>
<path d="M7811 5441 c-54 -36 -81 -76 -81 -121 0 -42 20 -75 60 -95 47 -24
130 -18 130 10 0 9 -15 12 -49 12 -131 -2 -146 113 -22 177 21 11 43 15 65 11
35 -7 53 5 40 27 -5 8 -10 6 -15 -8 -7 -17 -8 -17 -8 -1 -1 29 -68 22 -120
-12z"/>
<path d="M2272 5448 c-12 -16 -92 -187 -92 -199 0 -26 31 -1 68 56 41 61 93
110 111 103 4 -2 0 -37 -10 -78 -23 -93 -23 -119 -2 -149 15 -23 17 -23 29 -6
10 14 11 22 3 32 -12 14 -9 62 12 156 12 51 11 59 -4 74 -15 16 -19 16 -51 1
-30 -15 -33 -15 -32 -1 1 21 -18 27 -32 11z"/>
<path d="M4212 5415 c-86 -53 -97 -141 -21 -180 39 -21 88 -6 125 38 22 27 25
37 19 72 -3 22 -7 51 -8 65 -3 37 -58 39 -115 5z m78 -34 c19 -36 12 -78 -16
-100 -35 -28 -70 -27 -89 3 -21 31 -7 66 37 94 41 27 54 27 68 3z"/>
<path d="M8770 5424 c-36 -22 -80 -88 -87 -129 -12 -72 46 -107 116 -71 44 23
64 62 63 122 -1 76 -8 94 -40 94 -15 0 -38 -8 -52 -16z m56 -49 c14 -56 -12
-112 -58 -128 -52 -18 -66 45 -23 103 42 57 71 66 81 25z"/>
<path d="M8606 5415 c-9 -9 -16 -24 -16 -32 0 -9 -10 -43 -22 -75 -15 -42 -18
-62 -10 -70 12 -12 46 -3 37 11 -3 5 6 44 20 87 26 79 22 110 -9 79z"/>
<path d="M2056 5401 c-34 -37 -50 -167 -23 -189 12 -10 95 0 118 14 21 13 -6
25 -50 22 l-46 -3 3 50 c2 30 11 61 23 78 30 41 9 65 -25 28z"/>
<path d="M7145 5388 c-26 -81 -37 -140 -26 -151 7 -7 14 -7 20 -1 12 13 42
143 36 155 -9 13 -25 11 -30 -3z"/>
<path d="M5475 5370 c-4 -6 -9 -35 -12 -65 -5 -45 -3 -55 9 -55 10 0 19 18 27
56 6 31 8 60 5 65 -7 12 -21 11 -29 -1z"/>
<path d="M9472 5298 c-13 -13 2 -38 24 -38 20 0 27 19 14 35 -15 18 -22 19
-38 3z"/>
<path d="M10533 5235 c-89 -45 -141 -123 -178 -267 -9 -35 -21 -68 -26 -74 -5
-6 -7 -13 -5 -15 3 -3 -21 -4 -52 -4 -44 0 -57 -3 -57 -15 0 -12 12 -15 52
-13 l52 1 -20 -51 c-11 -29 -29 -65 -40 -80 -16 -22 -18 -32 -9 -40 17 -17 55
34 82 111 22 59 24 62 56 62 26 0 33 4 30 17 -2 10 -13 22 -24 28 l-21 10 22
75 c12 41 27 87 33 102 18 44 78 103 124 122 63 26 69 30 71 41 4 20 -39 15
-90 -10z"/>
<path d="M10895 5198 c-3 -7 -14 -42 -24 -78 -10 -36 -32 -96 -49 -135 -74
-176 -102 -295 -68 -295 9 0 16 17 21 46 3 26 27 99 52 163 94 241 110 300 86
308 -7 3 -15 -1 -18 -9z"/>
<path d="M14807 5188 c-8 -13 -25 -64 -37 -115 l-23 -92 -36 -5 c-20 -3 -47
-4 -61 -3 -16 1 -25 -3 -25 -13 0 -11 14 -16 51 -18 l52 -3 -15 -52 c-8 -29
-17 -67 -20 -85 -5 -29 -3 -33 13 -30 14 2 23 23 37 85 17 68 23 82 41 85 25
4 35 38 11 38 -12 0 -15 5 -10 18 3 9 16 51 27 92 11 41 25 80 30 87 10 13 3
33 -12 33 -5 0 -16 -10 -23 -22z"/>
<path d="M13934 5183 c-3 -10 -22 -62 -42 -115 -40 -106 -30 -98 -117 -102
-11 -1 -20 -8 -20 -16 0 -11 11 -15 42 -15 33 0 42 -3 38 -15 -42 -146 -47
-193 -23 -198 13 -2 18 6 23 35 3 21 13 69 22 107 14 62 19 69 49 82 18 8 44
14 58 14 29 0 43 17 28 32 -8 8 -23 8 -51 0 -23 -5 -41 -6 -41 -2 0 5 11 35
24 67 34 86 46 125 40 134 -9 15 -24 10 -30 -8z"/>
<path d="M13550 5135 c-5 -14 -10 -35 -10 -45 0 -31 -50 -181 -80 -241 l-28
-56 30 -23 c43 -32 84 -21 147 38 45 43 51 53 51 89 0 44 -10 58 -53 68 -19 5
-27 3 -27 -6 0 -7 -3 -9 -7 -6 -3 4 -15 0 -25 -10 -18 -16 -18 -15 -4 25 8 23
13 42 11 42 -2 0 2 15 10 33 18 45 23 109 8 114 -7 3 -17 -7 -23 -22z m78
-233 c3 -18 -9 -36 -42 -68 -68 -65 -135 -58 -83 9 66 87 118 111 125 59z"/>
<path d="M6466 5138 c-2 -7 -16 -66 -31 -130 -15 -65 -42 -150 -61 -189 -33
-69 -37 -99 -14 -99 5 0 19 20 31 45 22 47 74 99 90 89 5 -3 9 -16 9 -29 0
-36 18 -75 35 -75 12 0 13 9 9 48 -9 68 -29 95 -65 90 -23 -4 -28 -1 -24 11
23 77 55 226 51 237 -7 17 -25 18 -30 2z"/>
<path d="M15014 5105 c-7 -18 12 -45 32 -45 17 0 17 2 2 35 -13 28 -26 32 -34
10z"/>
<path d="M11907 5104 c-4 -4 -7 -20 -7 -35 0 -15 -4 -39 -10 -54 -7 -17 -7
-24 0 -20 16 10 12 -11 -5 -25 -8 -7 -15 -18 -15 -25 0 -7 -18 -49 -41 -94
-37 -74 -42 -101 -20 -101 5 0 20 17 34 38 23 32 73 72 91 72 8 0 -6 -34 -17
-41 -6 -4 -6 -15 -2 -25 5 -11 7 -22 7 -26 -1 -5 6 -8 17 -8 15 0 20 10 26 56
8 70 -6 91 -49 74 -23 -8 -27 -8 -23 4 11 28 36 142 39 175 3 32 -10 50 -25
35z"/>
<path d="M6330 5083 c-32 -10 -86 -13 -185 -11 -119 3 -140 1 -140 -12 0 -12
21 -17 93 -24 70 -6 92 -12 92 -23 0 -8 -15 -60 -34 -116 -35 -103 -46 -173
-32 -195 14 -24 26 -11 26 29 0 22 15 86 34 142 19 56 37 114 40 129 6 29 15
33 87 43 52 7 90 28 74 43 -6 5 -28 4 -55 -5z"/>
<path d="M7542 5025 c-15 -33 -15 -32 8 -45 17 -9 22 -7 29 12 9 23 -2 58 -18
58 -4 0 -13 -11 -19 -25z"/>
<path d="M6655 5020 c-9 -15 2 -27 30 -32 30 -6 42 7 25 27 -14 17 -46 20 -55
5z"/>
<path d="M13111 4966 c-40 -14 -71 -50 -71 -80 0 -12 9 -46 20 -76 12 -33 16
-58 10 -64 -15 -15 -108 -20 -125 -6 -12 10 -16 9 -21 -3 -9 -24 3 -35 42 -43
41 -8 102 8 134 34 l23 18 -22 58 c-28 76 -27 104 4 118 13 6 23 14 21 17 -2
3 12 6 32 6 26 0 37 4 37 15 0 19 -40 23 -84 6z"/>
<path d="M14060 4972 c-9 -4 -32 -19 -51 -34 -30 -23 -37 -37 -47 -89 -6 -34
-9 -66 -6 -70 14 -24 33 -3 53 59 28 85 44 102 92 102 40 0 61 17 38 31 -16
10 -57 11 -79 1z"/>
<path d="M5710 4950 c-15 -15 -20 -29 -16 -43 3 -12 6 -30 6 -39 0 -27 37 -22
55 6 21 31 16 90 -7 94 -9 2 -26 -6 -38 -18z"/>
<path d="M8317 4918 c-13 -29 -34 -79 -47 -111 -12 -31 -26 -60 -31 -63 -5 -3
-9 25 -10 63 -1 89 -10 118 -34 118 -15 0 -19 -5 -16 -20 2 -11 6 -60 8 -110
4 -108 9 -135 26 -135 22 0 75 95 131 233 13 33 18 37 35 27 28 -14 38 6 15
31 -29 33 -50 24 -77 -33z"/>
<path d="M11502 4935 c-70 -33 -89 -56 -56 -69 9 -4 25 3 38 15 20 19 86 53
86 44 0 -2 -25 -30 -55 -62 -30 -32 -55 -65 -55 -74 0 -22 27 -32 51 -18 17 8
25 5 48 -20 16 -17 35 -31 43 -31 27 0 107 59 138 102 24 33 30 51 28 82 -4
50 -28 62 -28 13 0 -42 -44 -105 -94 -137 -45 -27 -64 -21 -68 22 -3 28 -7 33
-27 30 -21 -2 -18 3 23 45 51 54 61 93 23 93 -12 0 -55 -16 -95 -35z"/>
<path d="M15064 4918 c-49 -55 -90 -131 -79 -148 13 -22 35 -8 45 29 9 34 87
138 96 128 2 -2 -1 -31 -7 -66 -10 -65 -4 -110 12 -94 11 11 14 28 28 124 10
73 8 79 -24 79 -15 0 -39 -18 -71 -52z"/>
<path d="M14460 4932 c-40 -40 -57 -106 -35 -138 19 -30 53 -44 80 -34 28 10
26 36 -3 32 -29 -4 -52 14 -52 42 0 29 36 86 54 86 21 0 31 21 15 31 -21 13
-28 11 -59 -19z"/>
<path d="M15342 4930 c-44 -31 -62 -72 -45 -99 22 -35 82 -25 126 22 l30 32
-7 -105 c-7 -120 -19 -179 -38 -191 -7 -4 -29 -11 -50 -14 -83 -14 -143 -85
-134 -158 9 -81 59 -91 123 -24 38 38 93 130 93 155 0 11 48 22 100 22 49 0
70 8 70 27 0 13 -11 15 -75 9 -75 -7 -76 -7 -70 16 11 44 21 213 15 253 -8 50
-36 85 -71 85 -14 0 -45 -13 -67 -30z m64 -38 c-24 -47 -96 -70 -79 -26 7 19
74 65 85 58 4 -3 2 -17 -6 -32z m-11 -364 c-16 -53 -98 -152 -119 -145 -6 2
-12 22 -14 44 -4 50 24 86 83 107 54 20 57 19 50 -6z"/>
<path d="M9644 4880 c-34 -65 -75 -111 -134 -152 -21 -14 -23 -19 -10 -27 17
-11 66 14 81 42 13 22 29 22 29 -1 0 -10 5 -23 12 -30 23 -23 55 -12 99 33
l44 45 13 -25 c13 -25 36 -33 47 -16 3 5 0 13 -6 17 -7 4 -9 23 -5 55 6 43 4
49 -11 48 -10 0 -40 -27 -68 -59 -27 -32 -59 -63 -69 -70 -18 -11 -19 -9 -13
40 3 28 18 72 32 97 28 52 32 73 11 73 -8 0 -31 -31 -52 -70z"/>
<path d="M7631 4914 c-38 -32 -39 -57 -5 -97 24 -29 25 -32 8 -44 -10 -7 -28
-13 -42 -13 -18 0 -23 5 -20 22 2 11 -3 23 -11 26 -8 3 -11 0 -7 -7 4 -6 0
-11 -9 -11 -14 0 -16 -6 -10 -27 9 -37 23 -44 70 -37 75 12 96 57 50 112 -24
28 -24 30 -6 46 9 9 25 16 34 16 22 0 33 20 16 31 -22 14 -35 11 -68 -17z"/>
<path d="M12092 4914 c-86 -69 -95 -204 -14 -204 32 0 72 25 72 46 0 18 -10
18 -37 -1 -24 -17 -48 -12 -57 12 -4 9 -5 16 -4 17 50 19 127 69 138 89 33 59
-38 89 -98 41z m66 -25 c-2 -6 -23 -23 -47 -37 -41 -24 -43 -24 -32 -4 20 37
90 73 79 41z"/>
<path d="M14935 4932 c-15 -10 -55 -103 -58 -132 -4 -46 23 -27 47 33 13 31
21 57 18 57 -4 0 4 7 16 16 12 8 20 20 17 25 -7 11 -26 12 -40 1z"/>
<path d="M8490 4923 c-68 -25 -111 -128 -75 -180 23 -33 99 -59 131 -44 32 14
22 31 -17 31 -39 0 -85 24 -92 48 -5 22 5 45 19 40 5 -1 28 5 51 14 52 21 66
54 33 80 -23 19 -26 20 -50 11z m30 -41 c0 -4 -14 -13 -31 -19 -31 -12 -31
-12 -14 7 18 20 45 27 45 12z"/>
<path d="M8710 4913 c-25 -18 -56 -77 -65 -127 -7 -33 -5 -38 10 -34 11 2 23
19 30 46 21 70 41 94 78 90 23 -2 32 1 32 12 0 21 -60 31 -85 13z"/>
<path d="M9926 4908 c-20 -28 -20 -58 -1 -104 13 -32 13 -36 -5 -54 -26 -26
-40 -25 -47 0 -6 24 -26 21 -31 -4 -10 -48 62 -63 103 -21 29 28 32 63 10 106
-20 37 -6 70 28 66 14 -1 22 3 22 13 0 10 -12 16 -32 18 -23 2 -35 -3 -47 -20z"/>
<path d="M12327 4883 c-29 -29 -45 -40 -41 -28 4 11 12 26 17 33 12 15 -5 38
-21 28 -6 -3 -23 -39 -38 -79 -15 -39 -31 -76 -36 -81 -13 -15 -9 -46 5 -46 7
0 27 19 45 43 43 55 122 137 132 137 20 0 19 -22 -4 -75 -14 -31 -28 -72 -32
-91 -6 -31 -4 -36 12 -32 11 2 21 15 25 33 3 17 16 52 28 78 27 62 27 92 -1
111 -32 23 -38 21 -91 -31z"/>
<path d="M13360 4904 c-6 -14 -10 -32 -10 -39 0 -17 -55 -82 -81 -95 -14 -8
-20 -4 -33 21 -15 29 -14 33 5 60 22 31 18 49 -11 49 -23 0 -30 -19 -30 -84 0
-57 19 -86 57 -86 34 0 109 75 127 127 9 26 16 53 16 60 0 23 -30 14 -40 -13z"/>
<path d="M14209 4913 c-33 -40 -50 -75 -47 -101 4 -34 31 -39 80 -14 l37 19 3
-26 c2 -14 9 -26 17 -26 10 0 14 17 16 63 3 74 -7 78 -58 27 -34 -34 -77 -49
-61 -22 28 48 47 66 67 64 14 -1 22 4 22 13 0 23 -58 25 -76 3z"/>
<path d="M6742 4900 c-25 -24 -27 -34 -11 -79 12 -34 5 -81 -12 -81 -6 0 -13
9 -16 20 -7 25 -29 26 -38 3 -8 -22 36 -63 66 -63 33 0 54 64 40 119 -12 47
-8 57 24 63 29 5 25 32 -5 36 -15 2 -34 -6 -48 -18z"/>
<path d="M10062 4878 c-37 -38 -72 -108 -72 -144 0 -40 94 -61 136 -29 22 16
17 18 -46 19 -39 1 -45 4 -48 23 -2 14 6 32 22 46 14 14 26 31 26 38 0 12 2
12 9 0 11 -16 42 -8 66 19 15 17 16 24 7 45 -17 38 -51 32 -100 -17z m68 -3
c0 -2 -10 -10 -22 -16 -21 -11 -22 -11 -9 4 13 16 31 23 31 12z"/>
<path d="M7462 4887 c-6 -7 -19 -43 -31 -81 -16 -53 -19 -72 -10 -83 16 -19
22 -9 44 64 12 44 23 63 37 67 11 2 18 10 16 17 -6 19 -45 30 -56 16z"/>
<path d="M8942 4841 c-18 -32 -38 -64 -46 -70 -15 -12 -19 -1 -29 79 -1 8 -9
15 -17 15 -23 0 -15 -115 9 -135 17 -14 17 -18 -16 -90 -62 -134 -93 -243 -72
-256 15 -9 18 -3 40 74 24 87 127 316 169 378 16 25 28 50 25 55 -14 21 -34 5
-63 -50z"/>
<path d="M6596 4858 c-8 -13 -18 -52 -22 -87 -6 -58 -5 -63 12 -59 11 2 19 12
20 23 1 37 17 105 25 111 10 6 0 34 -12 34 -5 0 -15 -10 -23 -22z"/>
<path d="M10440 4818 c-20 -43 -26 -113 -12 -134 13 -20 51 -26 87 -14 58 19
99 98 70 136 -15 21 -17 18 -29 -39 -9 -37 -40 -67 -71 -67 -35 0 -42 25 -21
79 22 59 24 73 8 78 -7 3 -20 -13 -32 -39z"/>
</g>
</svg>
