<?xml version="1.0" standalone="no"?>
<!DOCTYPE svg PUBLIC "-//W3C//DTD SVG 20010904//EN"
 "http://www.w3.org/TR/2001/REC-SVG-20010904/DTD/svg10.dtd">
<svg version="1.0" xmlns="http://www.w3.org/2000/svg"
 width="1618.000000pt" height="1214.000000pt" viewBox="0 0 1618.000000 1214.000000"
 preserveAspectRatio="xMidYMid meet">

<g transform="translate(0.000000,1214.000000) scale(0.100000,-0.100000)"
fill="#000000" stroke="none">
<path d="M2795 11653 c-7 -77 -22 -152 -34 -171 -5 -8 -43 -18 -92 -24 -91
-11 -98 -13 -82 -29 7 -7 35 -8 87 -2 75 9 77 9 71 -11 -11 -41 -16 -151 -7
-165 15 -22 32 -3 25 29 -3 16 0 58 7 94 14 73 11 72 131 82 54 5 76 10 76 20
0 16 -61 18 -138 5 l-47 -7 10 30 c5 17 13 65 18 106 6 41 13 82 16 92 4 13 0
18 -15 18 -17 0 -20 -9 -26 -67z"/>
<path d="M12809 11703 c-1 -5 -1 -12 0 -17 1 -4 -6 -29 -15 -55 -9 -25 -23
-66 -31 -90 l-16 -43 -48 6 c-61 8 -103 -12 -126 -59 -22 -47 -5 -108 37 -130
l29 -15 -40 -90 c-22 -50 -39 -98 -37 -108 5 -25 33 -21 34 5 1 12 19 61 40
108 28 62 43 85 56 85 28 0 95 37 112 62 22 31 20 70 -5 102 l-21 26 31 89
c35 99 38 131 16 131 -8 0 -16 -3 -16 -7z m-118 -304 c-20 -38 -40 -69 -44
-69 -15 0 -57 49 -57 68 0 11 9 30 19 44 16 20 29 24 69 25 l50 1 -37 -69z
m94 31 c10 -33 -4 -59 -45 -80 -22 -11 -42 -20 -45 -20 -3 0 8 27 25 60 31 61
54 75 65 40z"/>
<path d="M5834 11676 c-3 -14 -3 -30 1 -36 4 -6 -1 -47 -11 -91 -20 -93 -32
-104 -105 -94 -33 5 -49 3 -49 -4 0 -15 43 -31 84 -31 l33 0 -1 -97 c-1 -126
17 -135 26 -13 8 120 8 120 65 120 27 0 58 7 70 15 20 14 20 11 -7 -72 -42
-131 -21 -152 55 -52 26 33 52 58 58 56 7 -2 14 -28 17 -57 7 -75 30 -80 30
-6 0 66 -14 106 -36 106 -10 0 -38 -21 -63 -47 -24 -26 -41 -38 -37 -28 21 57
67 226 64 237 -3 7 5 21 16 31 21 17 21 17 -9 15 -21 -2 -31 -9 -33 -23 -14
-93 -25 -126 -38 -121 -7 3 -19 0 -26 -7 -7 -7 -33 -14 -57 -16 -43 -3 -44 -2
-37 26 17 74 35 197 30 204 -11 18 -34 8 -40 -15z"/>
<path d="M8900 11647 c0 -42 -47 -181 -89 -265 -69 -137 -54 -145 61 -37 77
73 118 96 103 58 -4 -10 -9 -44 -12 -75 -5 -49 -3 -58 11 -58 11 0 16 9 16 29
0 16 5 53 12 81 11 47 10 54 -5 65 -26 19 -52 8 -114 -48 l-56 -51 26 49 c32
64 77 207 77 246 0 19 -5 29 -15 29 -9 0 -15 -9 -15 -23z"/>
<path d="M14732 11610 c-20 -46 -30 -59 -42 -54 -39 17 -71 15 -105 -6 -40
-25 -85 -94 -85 -132 0 -26 40 -78 60 -78 6 0 -8 -25 -31 -56 -26 -35 -42 -68
-43 -88 -1 -39 25 -43 30 -5 2 25 65 125 89 141 5 4 23 8 39 8 37 0 89 33 104
65 12 26 9 56 -10 106 -8 22 -4 37 21 87 28 56 30 72 9 72 -5 0 -21 -27 -36
-60z m-52 -88 c0 -14 -93 -152 -102 -152 -18 0 -48 31 -48 49 0 20 37 81 59
98 9 7 23 10 33 7 9 -3 19 0 22 5 7 10 36 4 36 -7z m44 -65 c5 -23 1 -34 -23
-57 -16 -17 -39 -30 -51 -30 -25 0 -26 -2 20 72 36 60 43 62 54 15z"/>
<path d="M7887 11653 c-4 -3 -7 -24 -7 -46 0 -42 -26 -157 -39 -170 -4 -4 -27
-9 -49 -10 -56 -2 -58 -27 -2 -27 22 0 40 -3 39 -7 0 -5 -6 -35 -13 -68 -10
-48 -16 -59 -30 -57 -23 4 -18 -27 6 -42 26 -16 35 -1 52 84 17 78 32 100 73
100 16 0 21 4 17 15 -4 8 -17 15 -31 15 -19 0 -23 4 -19 18 33 110 35 228 3
195z"/>
<path d="M10143 11628 c-5 -7 -17 -38 -26 -69 l-17 -56 -51 -7 c-30 -4 -52
-13 -56 -22 -8 -22 -2 -24 44 -11 23 6 44 9 47 6 2 -2 -4 -42 -14 -89 -10 -47
-14 -89 -10 -94 12 -12 30 2 30 24 0 11 7 53 16 94 l17 74 61 7 c72 9 106 20
106 36 0 7 -12 9 -32 6 -18 -3 -54 -9 -80 -13 l-47 -6 16 43 c9 24 23 51 30
60 7 8 13 19 13 22 0 12 -37 7 -47 -5z"/>
<path d="M13747 11612 c-3 -16 -31 -85 -61 -154 -55 -123 -70 -184 -43 -176 6
3 14 13 16 24 1 10 29 80 61 155 67 155 71 172 49 177 -11 2 -18 -6 -22 -26z"/>
<path d="M4940 11604 c-6 -14 -10 -29 -10 -33 0 -5 -13 -52 -30 -106 -50 -161
-36 -194 47 -113 l43 42 0 -36 c0 -45 19 -62 62 -53 45 10 108 46 108 62 0 7
-2 13 -5 13 -10 0 -55 -24 -55 -29 0 -4 -8 -8 -17 -9 -10 -1 -27 -3 -38 -4
-16 -3 -21 4 -23 32 -4 37 -17 60 -35 60 -5 0 -28 -19 -50 -42 -24 -25 -37
-34 -34 -22 3 10 18 62 33 114 14 52 30 103 35 112 13 26 11 38 -6 38 -9 0
-20 -12 -25 -26z"/>
<path d="M6531 11593 c-5 -21 -12 -52 -16 -69 -6 -30 -9 -31 -73 -40 -79 -11
-82 -30 -4 -27 61 2 61 5 33 -112 -12 -50 -16 -84 -10 -89 15 -16 25 4 39 74
7 36 16 81 21 101 l9 36 87 13 c102 15 133 25 133 41 0 12 -50 8 -148 -13 -28
-6 -54 -9 -56 -7 -5 4 8 71 20 112 3 11 0 17 -10 17 -9 0 -19 -15 -25 -37z"/>
<path d="M14250 11595 c-71 -39 -97 -62 -83 -76 9 -9 19 -5 45 14 55 41 91 55
141 55 44 0 47 -1 42 -21 -8 -26 -103 -121 -203 -200 -39 -32 -72 -62 -72 -67
0 -22 21 -18 52 8 86 74 116 79 148 27 21 -33 43 -44 54 -27 3 5 -14 29 -38
55 l-42 46 64 64 c56 56 65 70 66 103 l1 39 -65 2 c-53 2 -73 -2 -110 -22z"/>
<path d="M14950 11606 c0 -25 -118 -253 -134 -259 -15 -6 -15 -9 0 -32 17 -27
34 -33 34 -12 0 6 31 77 69 157 38 79 67 148 65 152 -8 13 -34 9 -34 -6z"/>
<path d="M13469 11596 c-73 -26 -173 -116 -128 -116 6 0 34 18 62 40 48 39 92
58 104 47 17 -17 -106 -153 -177 -195 -53 -31 -81 -64 -70 -82 8 -13 14 -12
45 4 19 11 53 34 74 53 22 18 42 33 46 33 4 0 5 -20 2 -44 -9 -62 7 -81 63
-73 41 5 80 30 68 43 -4 3 -22 0 -42 -7 -20 -7 -39 -10 -43 -6 -4 4 -10 33
-13 64 -6 55 -6 56 42 112 51 60 67 103 48 126 -15 18 -33 18 -81 1z"/>
<path d="M12966 11591 c-32 -50 -129 -319 -122 -336 7 -20 26 -19 26 1 0 9 27
85 60 168 33 83 60 155 61 161 1 13 -18 18 -25 6z"/>
<path d="M15103 11579 c-42 -12 -57 -38 -43 -75 10 -25 7 -31 -30 -65 -49 -45
-54 -86 -14 -118 32 -25 62 -27 93 -5 22 16 23 22 18 80 l-6 62 74 35 c74 36
107 68 83 83 -18 11 -138 13 -175 3z m126 -35 c6 -6 -84 -43 -110 -46 -20 -3
-24 2 -24 22 0 17 7 26 25 30 23 6 100 2 109 -6z m-135 -120 c3 -9 6 -31 6
-49 0 -38 -26 -53 -60 -35 -27 15 -25 38 7 72 31 32 38 34 47 12z"/>
<path d="M9795 11568 c-2 -7 -12 -42 -20 -78 -9 -36 -28 -91 -41 -122 -38 -90
-13 -113 61 -57 l40 30 8 -30 c8 -33 41 -58 52 -40 4 5 0 18 -9 28 -9 10 -16
34 -16 54 0 47 -12 47 -69 2 -24 -19 -46 -33 -48 -31 -3 2 3 18 12 36 17 34
55 171 55 202 0 20 -18 25 -25 6z"/>
<path d="M7690 11531 c0 -21 26 -36 36 -20 6 11 -13 39 -27 39 -5 0 -9 -9 -9
-19z"/>
<path d="M4256 11510 c-36 -11 -66 -38 -66 -61 0 -10 18 -39 41 -65 48 -55 48
-79 0 -111 -38 -26 -58 -25 -53 1 2 12 -2 17 -15 14 -27 -5 -29 -44 -3 -58 29
-16 63 -6 105 31 48 42 47 74 -5 134 -22 25 -40 50 -40 54 0 13 48 34 82 35
22 1 34 7 36 19 4 19 -30 22 -82 7z"/>
<path d="M9422 11503 c5 -25 28 -28 28 -4 0 12 -6 21 -16 21 -9 0 -14 -7 -12
-17z"/>
<path d="M3393 11480 c-38 -23 -93 -95 -93 -122 0 -10 11 -30 25 -43 31 -32
112 -36 139 -6 19 21 3 42 -17 22 -17 -17 -83 -13 -102 6 -16 16 -14 18 34 34
52 17 85 40 102 71 7 13 4 23 -11 38 -25 25 -37 25 -77 0z m57 -31 c0 -11 -60
-49 -78 -49 -21 0 4 37 36 54 27 14 42 13 42 -5z"/>
<path d="M1924 11461 c-39 -24 -84 -81 -84 -107 0 -48 48 -57 104 -19 45 31
46 31 46 2 0 -27 28 -57 53 -57 23 0 21 14 -3 31 -15 11 -20 27 -21 79 -1 36
-6 71 -12 78 -14 18 -47 15 -83 -7z m55 -53 c-10 -18 -77 -68 -91 -68 -5 0 -8
8 -8 18 1 39 73 99 95 79 9 -8 10 -18 4 -29z"/>
<path d="M3020 11473 c-23 -8 -60 -45 -60 -59 0 -7 -5 -14 -11 -16 -15 -5 -24
-118 -10 -118 14 0 31 33 31 62 1 41 35 91 71 103 39 14 51 35 17 34 -12 0
-30 -3 -38 -6z"/>
<path d="M8083 11463 c-40 -20 -41 -33 -8 -81 32 -47 32 -69 -1 -84 -20 -9
-30 -9 -45 0 -16 10 -21 10 -25 -2 -9 -24 5 -36 40 -36 78 0 110 72 61 136
l-25 32 41 16 c22 9 37 21 34 26 -9 14 -35 11 -72 -7z"/>
<path d="M3160 11424 c-43 -41 -50 -52 -50 -86 0 -33 5 -41 33 -58 35 -22 97
-26 128 -10 36 20 21 31 -31 24 -38 -5 -56 -3 -75 10 -31 21 -34 56 -4 56 60
0 135 78 98 101 -27 17 -51 8 -99 -37z m61 -4 c-13 -11 -28 -20 -35 -20 -6 1
0 10 13 20 13 11 28 20 35 20 6 -1 0 -10 -13 -20z"/>
<path d="M4695 11437 c-80 -80 -43 -167 69 -167 17 0 37 4 45 9 17 11 10 33
-12 37 -9 1 -15 -2 -11 -7 7 -12 -38 -12 -69 0 -34 13 -43 46 -21 79 22 34 44
51 67 52 9 0 17 7 17 15 0 28 -50 17 -85 -18z"/>
<path d="M4576 11453 c-3 -3 -6 -23 -6 -44 0 -74 -100 -148 -115 -86 -3 12 -5
37 -3 56 3 39 -16 53 -26 19 -10 -40 -7 -83 10 -106 31 -44 116 -17 149 48 24
46 17 139 -9 113z"/>
<path d="M7957 11443 c-34 -9 -11 -28 29 -25 44 4 49 6 39 21 -6 11 -35 13
-68 4z"/>
<path d="M9167 11411 c-19 -17 -42 -31 -51 -31 -10 0 -16 -9 -16 -22 0 -13 0
-34 -1 -47 0 -41 33 -64 99 -69 48 -3 60 -1 65 12 5 13 -1 16 -38 16 -64 0
-97 15 -93 42 2 16 16 27 51 39 61 22 79 37 75 63 -5 34 -50 33 -91 -3z m53
-11 c-8 -5 -19 -10 -25 -10 -5 0 -3 5 5 10 8 5 20 10 25 10 6 0 3 -5 -5 -10z"/>
<path d="M6243 11396 c-40 -34 -60 -81 -43 -101 16 -19 57 -19 93 -1 22 12 27
12 27 2 0 -19 27 -39 40 -31 8 5 8 11 0 20 -7 9 -9 27 -5 45 5 25 3 30 -11 30
-10 0 -27 -9 -38 -19 -28 -26 -76 -38 -76 -19 0 26 31 59 53 56 16 -2 22 2 22
17 0 29 -28 29 -62 1z"/>
<path d="M9555 11401 c-138 -62 -142 -168 -5 -128 l52 15 -5 -27 c-10 -48 -49
-142 -60 -146 -7 -2 -28 -6 -48 -9 -51 -9 -70 -26 -76 -72 -4 -35 -2 -44 17
-57 21 -14 26 -14 52 -1 16 9 42 35 56 59 26 42 29 44 75 45 38 0 47 3 47 18
0 10 3 13 8 7 11 -16 58 -16 71 -1 18 22 2 24 -77 14 -41 -6 -76 -8 -79 -5 -2
3 0 14 6 26 16 29 61 202 61 233 0 17 -7 31 -19 38 -26 13 -29 13 -76 -9z m55
-41 c0 -31 -24 -50 -80 -63 -35 -9 -58 6 -41 27 10 12 106 66 118 66 2 0 3
-13 3 -30z m-89 -297 c-29 -53 -81 -82 -81 -45 0 34 31 59 73 61 14 1 16 -3 8
-16z"/>
<path d="M9361 11379 c-14 -40 -14 -66 -1 -74 11 -7 23 19 35 73 9 44 -19 44
-34 1z"/>
<path d="M7611 11391 c-17 -11 -5 -32 15 -24 16 6 11 -12 -21 -75 -19 -38 -17
-65 8 -70 12 -3 16 3 15 20 -1 13 7 44 19 69 38 81 38 89 6 89 -15 0 -34 -4
-42 -9z"/>
<path d="M13743 11345 c-3 -9 -3 -18 0 -22 10 -10 37 6 37 22 0 20 -29 20 -37
0z"/>
<path d="M12965 11300 c-25 -26 -26 -30 -11 -36 21 -8 72 38 62 55 -11 17 -20
14 -51 -19z"/>
<path d="M3985 11176 c-17 -13 -18 -18 -5 -72 7 -33 13 -90 13 -128 -1 -63 -4
-71 -34 -102 -49 -51 -119 -55 -119 -7 0 20 49 63 71 63 11 0 19 7 19 15 0 27
-47 17 -84 -19 -26 -24 -36 -42 -36 -64 0 -83 123 -79 188 5 23 31 26 44 26
117 0 44 -6 98 -13 119 -13 39 -3 69 21 64 6 -1 13 4 15 11 6 17 -38 16 -62
-2z"/>
<path d="M2986 11131 c-3 -4 -1 -23 4 -42 6 -19 11 -62 12 -96 2 -55 -1 -67
-28 -105 -36 -51 -78 -78 -95 -61 -24 24 30 125 55 103 15 -12 26 -3 26 22 0
51 -67 23 -100 -42 -26 -51 -26 -96 -1 -110 37 -19 63 -11 111 38 62 61 74
103 59 208 -6 43 -13 82 -15 86 -7 11 -22 10 -28 -1z"/>
<path d="M1560 11055 c0 -10 7 -15 18 -13 21 4 19 22 -2 26 -10 2 -16 -3 -16
-13z"/>
<path d="M2525 11028 c-11 -6 -30 -20 -42 -31 -13 -11 -23 -15 -23 -9 0 7 -8
12 -18 12 -15 0 -21 -12 -29 -56 -14 -79 -12 -129 7 -129 9 0 17 13 21 35 13
80 79 160 132 160 9 0 17 7 17 15 0 18 -36 20 -65 3z"/>
<path d="M1701 10968 c-35 -38 -40 -71 -12 -90 41 -29 16 -88 -26 -62 -22 13
-43 7 -43 -12 0 -19 47 -36 74 -28 59 18 72 64 31 112 l-25 30 26 32 c39 46
17 62 -25 18z"/>
<path d="M2674 10987 c-61 -35 -93 -116 -60 -150 39 -38 126 -46 126 -12 0 11
-7 14 -24 9 -32 -8 -86 21 -86 46 0 13 7 20 20 20 23 0 100 46 100 59 0 40
-34 52 -76 28z m36 -27 c-8 -6 -24 -16 -35 -22 -20 -11 -20 -11 -1 11 11 11
26 21 35 21 14 0 14 -2 1 -10z"/>
<path d="M3400 10955 c-62 -90 -45 -158 38 -157 44 1 86 18 77 32 -3 5 -29 6
-59 3 -48 -5 -55 -3 -60 15 -7 22 12 68 45 111 18 23 17 41 -1 41 -5 0 -23
-20 -40 -45z"/>
<path d="M3613 10967 c-18 -12 -40 -39 -50 -61 -15 -34 -15 -41 -2 -65 12 -22
23 -27 64 -29 60 -4 95 4 95 22 0 11 -13 13 -61 9 -46 -5 -63 -3 -70 8 -15 23
-11 27 47 55 60 28 73 46 54 69 -17 20 -39 18 -77 -8z"/>
<path d="M3101 10946 c-6 -7 -14 -33 -17 -57 -5 -35 -2 -49 13 -68 46 -57 143
-5 143 75 0 42 -22 43 -30 1 -7 -38 -36 -67 -65 -67 -31 0 -42 35 -26 81 6 18
11 36 11 40 0 13 -16 11 -29 -5z"/>
<path d="M1470 10923 c0 -16 -3 -51 -6 -79 -5 -42 -4 -51 9 -51 12 0 18 15 22
56 3 31 8 66 11 79 3 17 0 22 -16 22 -15 0 -20 -7 -20 -27z"/>
<path d="M4106 10855 c-16 -17 -15 -67 2 -73 12 -4 54 72 45 82 -11 10 -31 7
-47 -9z"/>
<path d="M8123 10404 c-3 -8 -1 -20 4 -25 12 -12 -3 -95 -56 -301 -53 -202
-53 -200 2 -192 89 14 137 60 121 116 -5 17 -18 37 -30 44 -18 13 -24 12 -47
-7 -15 -11 -27 -17 -27 -12 0 4 16 71 35 147 29 113 33 142 22 154 -7 10 -8
13 -1 9 17 -10 27 39 14 63 -13 24 -28 26 -37 4z m40 -405 c3 -11 3 -27 0 -35
-10 -27 -93 -59 -93 -36 0 16 62 92 75 92 7 0 15 -9 18 -21z"/>
<path d="M6766 10385 c-9 -14 -21 -37 -26 -51 -9 -24 -8 -26 10 -21 11 3 20 2
20 -1 0 -15 -54 -188 -63 -199 -6 -8 -35 -13 -76 -13 -65 0 -103 -12 -88 -27
5 -4 42 -6 83 -4 l75 3 -8 -39 c-4 -21 -8 -67 -8 -103 0 -51 3 -65 15 -65 11
0 14 10 12 39 -2 22 2 70 8 108 12 67 12 68 43 70 18 1 43 3 57 4 14 1 30 3
36 3 6 1 11 8 11 16 0 11 -13 13 -62 10 l-62 -4 33 109 c40 131 46 183 23 188
-9 1 -24 -9 -33 -23z"/>
<path d="M5652 10388 c-7 -9 -12 -84 -14 -200 -3 -171 -5 -189 -24 -215 -31
-41 -105 -96 -116 -85 -23 23 50 176 79 165 17 -6 45 16 37 29 -15 24 -114
-35 -114 -67 0 -6 -9 -28 -20 -50 -22 -44 -25 -67 -10 -96 16 -29 42 -23 107
25 86 63 93 85 93 301 0 172 0 174 23 177 12 2 21 8 20 13 -4 16 -48 18 -61 3z"/>
<path d="M2703 10307 c-8 -13 -186 -35 -446 -54 -85 -6 -115 -17 -82 -29 9 -4
84 -1 167 5 82 7 152 10 156 7 3 -4 -4 -37 -16 -74 -27 -82 -52 -189 -52 -220
0 -17 5 -23 17 -20 12 2 17 16 20 51 3 26 13 78 24 115 12 37 26 88 32 113
l10 47 60 6 c33 3 72 6 87 6 27 0 27 -1 19 -47 -4 -27 -23 -96 -43 -155 -20
-59 -36 -114 -36 -122 0 -34 24 -25 76 28 31 31 57 56 60 56 3 0 2 -15 -1 -34
-4 -19 -4 -44 0 -55 7 -24 45 -29 45 -6 0 8 -4 15 -9 15 -6 0 -9 26 -8 57 3
74 -15 80 -77 23 l-44 -41 33 103 c42 130 53 209 32 227 -12 10 -17 9 -24 -2z"/>
<path d="M8627 10273 c-25 -79 -57 -228 -57 -267 0 -40 24 -106 38 -106 18 0
20 13 5 48 -19 45 -13 98 23 237 31 121 32 127 17 132 -6 2 -18 -17 -26 -44z"/>
<path d="M5127 10274 c-4 -4 -7 -22 -7 -40 0 -19 -14 -81 -31 -139 -39 -137
-43 -211 -10 -190 6 3 11 23 11 43 0 20 13 83 29 139 32 111 42 184 25 190 -6
2 -13 0 -17 -3z"/>
<path d="M5205 10248 c-29 -93 -65 -221 -70 -250 -10 -51 2 -108 21 -108 12 0
14 9 9 43 -6 44 8 106 72 310 4 11 0 17 -11 17 -9 0 -18 -6 -21 -12z"/>
<path d="M9435 10221 c-7 -13 12 -51 26 -51 14 0 7 52 -8 57 -6 2 -14 -1 -18
-6z"/>
<path d="M3710 10196 c0 -10 9 -16 21 -16 24 0 21 23 -4 28 -10 2 -17 -3 -17
-12z"/>
<path d="M2910 10135 c0 -10 11 -15 35 -15 24 0 35 5 35 15 0 10 -11 15 -35
15 -24 0 -35 -5 -35 -15z"/>
<path d="M3837 10092 c-32 -34 -33 -46 -7 -79 11 -14 20 -34 20 -44 0 -24 -43
-35 -76 -20 -20 9 -26 8 -31 -5 -3 -9 0 -20 8 -25 18 -12 107 -5 121 9 19 19
11 73 -14 99 l-23 25 28 23 c15 13 27 29 27 35 0 19 -26 10 -53 -18z"/>
<path d="M4640 10101 c-43 -22 -80 -74 -80 -111 0 -55 71 -109 126 -96 35 9
25 32 -13 28 -35 -3 -83 36 -83 67 0 25 53 87 81 94 15 4 23 0 26 -14 7 -27
33 -24 33 4 0 48 -34 58 -90 28z"/>
<path d="M7085 10106 c-37 -16 -92 -77 -101 -113 -15 -57 39 -83 125 -61 29 7
51 18 49 23 -4 12 -82 8 -86 -4 -5 -13 -62 12 -62 27 0 7 6 12 13 10 21 -4
105 39 116 60 26 49 -3 79 -54 58z m35 -34 c0 -5 -18 -18 -40 -31 -45 -25 -54
-13 -14 18 27 21 54 28 54 13z"/>
<path d="M7260 10094 c-59 -50 -77 -121 -42 -165 15 -18 29 -23 68 -23 62 -1
107 11 101 27 -2 7 -13 11 -23 10 -10 -2 -41 -3 -68 -4 -53 -1 -66 9 -66 51 0
19 3 21 9 11 8 -12 19 -8 60 19 59 37 73 57 60 82 -14 27 -62 22 -99 -8z m70
-8 c0 -9 -81 -68 -86 -63 -8 7 56 67 72 67 8 0 14 -2 14 -4z"/>
<path d="M3108 10094 c-42 -13 -48 -18 -48 -42 0 -19 12 -39 35 -62 41 -39 44
-55 13 -64 -44 -11 -70 -7 -75 14 -6 24 -21 26 -30 5 -3 -9 3 -25 13 -36 16
-17 28 -20 66 -17 86 9 105 56 43 111 -19 17 -35 36 -35 43 0 7 24 18 55 25
31 7 54 17 52 22 -5 16 -38 16 -89 1z"/>
<path d="M6911 10084 c-12 -15 -21 -33 -21 -40 0 -8 -5 -13 -11 -11 -14 3 -41
-70 -37 -102 5 -45 23 -32 48 36 31 84 53 113 80 106 24 -6 28 22 4 31 -28 11
-42 6 -63 -20z"/>
<path d="M5319 10085 c-56 -31 -100 -150 -67 -183 23 -23 138 -8 138 18 0 7
-20 9 -60 4 -60 -7 -60 -6 -60 19 0 26 8 34 79 80 42 27 47 40 26 61 -20 19
-23 19 -56 1z m31 -19 c0 -2 -8 -10 -17 -17 -16 -13 -17 -12 -4 4 13 16 21 21
21 13z"/>
<path d="M9708 10071 c-55 -35 -68 -64 -41 -93 25 -28 96 -18 135 19 l28 26
20 -44 c27 -61 26 -66 -21 -72 -23 -3 -49 -12 -57 -21 -14 -14 -12 -19 27 -56
l42 -40 -103 0 c-57 0 -229 -3 -383 -5 -315 -6 -2502 -30 -2753 -30 -139 0
-162 -2 -160 -15 3 -13 29 -15 173 -13 1796 16 3905 17 3980 2 13 -3 20 1 20
11 0 26 -140 40 -437 47 l-278 5 6 42 c4 22 8 42 9 44 2 2 42 -2 90 -9 62 -8
90 -8 98 0 14 14 1 18 -106 33 l-88 13 -28 69 c-48 120 -88 141 -173 87z m79
-44 c-17 -26 -75 -43 -91 -27 -13 13 16 44 55 60 16 7 29 18 30 24 0 6 5 1 11
-11 8 -17 7 -28 -5 -46z m93 -171 c0 -35 -11 -38 -50 -15 -26 16 -30 23 -19
30 8 5 26 9 42 9 22 0 27 -4 27 -24z"/>
<path d="M9097 10032 c-87 -88 -71 -132 49 -132 70 0 94 6 94 25 0 10 -15 12
-59 8 -68 -6 -111 2 -111 20 0 7 14 26 30 42 17 16 28 35 26 42 -4 8 3 13 18
13 13 0 27 7 30 16 17 43 -14 30 -77 -34z"/>
<path d="M9570 10071 c-32 -17 -90 -89 -90 -112 0 -22 30 -5 54 31 29 44 75
77 61 44 -25 -63 -27 -75 -15 -89 16 -19 30 -10 30 18 0 12 7 40 14 62 10 28
11 44 4 53 -13 15 -16 15 -58 -7z"/>
<path d="M3664 10065 c-4 -9 -7 -38 -8 -67 -1 -67 19 -75 27 -11 4 26 9 58 13
71 5 16 2 22 -10 22 -9 0 -19 -7 -22 -15z"/>
<path d="M8340 10048 c-36 -60 -17 -93 41 -71 28 11 29 10 29 -22 0 -38 27
-72 43 -56 7 7 6 15 -2 25 -6 7 -13 31 -14 52 -2 35 -5 39 -27 38 -14 -1 -33
-4 -43 -9 -16 -7 -16 -5 -6 19 13 28 28 33 47 14 9 -9 13 -7 18 5 9 24 -4 37
-37 37 -22 0 -34 -8 -49 -32z"/>
<path d="M4871 10035 c-17 -20 -31 -40 -31 -46 0 -16 28 -22 59 -11 l29 10
-15 -29 c-17 -35 -14 -63 9 -67 13 -2 17 4 16 25 0 15 9 44 21 63 11 19 21 41
21 48 0 17 -26 15 -55 -4 -28 -18 -35 -8 -8 11 15 11 11 35 -7 35 -4 0 -22
-16 -39 -35z"/>
<path d="M8737 10035 c-59 -45 -72 -68 -51 -89 19 -19 34 -20 69 -4 24 11 29
9 45 -12 12 -16 23 -21 36 -16 18 7 18 8 1 21 -15 10 -16 18 -8 33 18 34 -5
41 -57 16 -66 -33 -72 -30 -27 16 21 22 46 39 55 37 20 -3 20 27 -1 31 -8 1
-36 -13 -62 -33z"/>
<path d="M8923 10048 c-45 -32 -69 -88 -38 -88 8 0 21 13 30 30 8 16 25 34 36
40 20 11 20 10 14 -44 -5 -39 -4 -56 4 -56 15 0 31 43 31 80 0 64 -23 76 -77
38z"/>
<path d="M9380 9995 c0 -50 3 -65 14 -65 16 0 23 35 17 93 -2 23 -8 37 -17 37
-11 0 -14 -16 -14 -65z"/>
<path d="M2073 10043 c-15 -6 -17 -49 -3 -58 20 -12 48 13 43 40 -5 24 -15 29
-40 18z"/>
<path d="M2914 10036 c-3 -7 -4 -35 -2 -62 2 -36 7 -49 18 -49 8 0 13 7 11 15
-2 8 -3 36 -2 63 1 45 -13 64 -25 33z"/>
<path d="M14090 9473 c-28 -84 -55 -142 -120 -262 -72 -131 -60 -147 35 -45
41 43 74 74 75 67 0 -6 -12 -44 -26 -83 -24 -64 -25 -73 -12 -87 10 -10 24
-13 37 -8 22 7 24 32 2 28 -15 -4 -15 -3 15 93 37 118 20 146 -50 80 -20 -18
-36 -32 -36 -30 0 2 13 25 29 51 27 45 101 230 101 253 0 5 -6 10 -14 10 -8 0
-23 -28 -36 -67z"/>
<path d="M4608 9503 c-31 -36 -38 -64 -38 -154 0 -195 -30 -267 -122 -291 -64
-16 -79 -2 -43 40 14 17 41 41 60 52 38 24 44 37 18 37 -41 1 -133 -89 -133
-129 0 -40 74 -48 151 -15 29 12 43 27 64 72 26 51 29 70 33 189 3 105 8 137
23 162 30 49 20 75 -13 37z"/>
<path d="M5436 9486 c-8 -20 -20 -65 -26 -99 -6 -34 -18 -86 -26 -114 l-15
-53 -47 0 c-26 0 -64 4 -85 9 -23 6 -39 5 -43 -1 -12 -19 14 -29 90 -35 62 -5
76 -9 71 -21 -15 -39 -27 -103 -21 -117 9 -25 24 -17 31 18 13 72 28 117 39
118 6 1 26 2 45 3 50 2 50 23 1 31 -36 6 -41 10 -37 29 3 11 12 57 21 101 9
44 21 95 27 113 17 51 -5 66 -25 18z"/>
<path d="M8175 9470 c-4 -7 -20 -55 -35 -108 l-28 -96 -81 -16 c-80 -15 -108
-32 -63 -38 12 -2 22 0 22 5 0 4 25 9 56 10 49 2 55 1 49 -15 -21 -55 -56
-195 -51 -207 8 -23 31 -8 33 23 0 15 14 66 29 114 l29 88 53 15 c50 15 100
50 88 62 -3 3 -30 -5 -60 -18 -31 -12 -59 -20 -62 -16 -3 3 5 43 19 89 14 46
26 89 28 97 5 17 -17 26 -26 11z"/>
<path d="M6883 9458 c-5 -7 -20 -49 -32 -93 -13 -44 -40 -127 -62 -184 -21
-58 -39 -113 -39 -123 0 -28 26 -21 51 15 13 17 35 46 49 63 l26 30 1 -46 c1
-53 17 -90 38 -90 17 0 20 26 5 35 -5 3 -10 37 -10 76 0 61 -2 69 -19 69 -10
0 -33 -16 -50 -35 -35 -41 -37 -39 -16 13 32 76 85 266 77 274 -5 5 -13 3 -19
-4z"/>
<path d="M2810 9445 c-7 -9 -14 -32 -16 -53 -11 -139 -17 -185 -35 -250 -20
-73 -19 -92 6 -92 7 0 15 -7 19 -15 3 -9 19 -15 41 -15 26 0 45 9 76 37 119
108 74 215 -59 137 l-45 -26 7 26 c4 15 11 68 16 119 5 51 12 102 15 113 8 27
-8 39 -25 19z m128 -281 c4 -27 -77 -114 -106 -114 -26 0 -28 12 -6 45 9 14
14 32 10 40 -4 10 5 22 27 35 39 25 71 22 75 -6z"/>
<path d="M8311 9343 c-17 -54 -46 -138 -66 -188 -39 -101 -40 -105 -22 -105 7
0 32 27 56 59 23 33 52 68 63 78 20 17 20 17 15 -2 -19 -65 -29 -117 -23 -130
8 -22 39 -20 32 3 -3 9 1 42 9 72 28 106 11 132 -52 77 -28 -24 -35 -27 -29
-12 24 57 74 229 70 237 -13 21 -25 1 -53 -89z"/>
<path d="M13199 9393 c-6 -15 -40 -91 -75 -168 -67 -145 -85 -205 -65 -205 6
0 14 8 18 18 3 9 36 85 74 167 37 83 71 162 74 176 9 37 -12 47 -26 12z"/>
<path d="M15300 9398 c0 -13 -15 -50 -33 -83 l-32 -60 -75 -15 c-54 -11 -76
-20 -78 -32 -4 -19 17 -35 27 -20 5 9 77 31 104 32 4 0 0 -17 -9 -37 -37 -87
-64 -185 -56 -200 11 -18 15 -12 32 42 32 102 73 196 90 205 10 6 44 10 74 10
43 0 56 3 56 15 0 12 -13 15 -60 15 l-60 0 25 50 c28 56 33 100 10 100 -9 0
-15 -9 -15 -22z"/>
<path d="M3346 9403 c-3 -3 -6 -25 -6 -49 0 -23 -16 -93 -36 -156 -41 -130
-56 -238 -32 -238 11 0 17 16 21 58 3 31 21 108 41 170 21 66 36 134 36 162 0
46 -9 67 -24 53z"/>
<path d="M9868 9396 c-25 -19 -22 -36 6 -36 24 0 41 23 30 41 -7 12 -16 11
-36 -5z"/>
<path d="M12883 9333 c-90 -199 -112 -243 -120 -243 -4 0 -14 -14 -22 -30 -23
-54 16 -74 98 -50 81 23 150 100 121 135 -17 21 -59 19 -98 -5 -18 -11 -34
-20 -37 -20 -4 0 18 49 91 209 39 85 39 81 18 81 -9 0 -29 -29 -51 -77z m47
-216 c0 -29 -90 -87 -136 -87 -15 0 -15 2 2 22 24 26 103 78 121 78 7 0 13 -6
13 -13z"/>
<path d="M14926 9348 c-3 -7 -7 -26 -11 -42 -3 -17 -33 -86 -66 -154 -33 -68
-57 -128 -54 -133 10 -15 31 -10 51 12 23 26 94 79 106 79 4 0 8 -17 8 -37 0
-43 11 -66 33 -69 16 -2 17 12 3 34 -4 7 -5 24 -2 38 9 33 -10 64 -38 64 -13
0 -42 -14 -64 -30 -47 -34 -51 -30 -21 19 33 54 91 202 85 217 -7 17 -25 18
-30 2z"/>
<path d="M10271 9336 c-12 -14 -5 -26 16 -26 15 0 18 26 4 34 -5 3 -14 0 -20
-8z"/>
<path d="M12705 9300 c-3 -5 -3 -15 0 -20 7 -12 45 5 45 20 0 13 -37 13 -45 0z"/>
<path d="M14517 9303 c-4 -3 -7 -15 -7 -26 0 -13 5 -17 16 -13 9 3 19 6 24 6
4 0 6 9 3 20 -5 20 -23 26 -36 13z"/>
<path d="M7296 9244 c-59 -45 -68 -76 -32 -113 32 -34 33 -48 1 -63 -18 -8
-28 -8 -39 1 -17 14 -31 -1 -22 -24 8 -22 59 -18 90 6 33 26 33 58 1 93 -30
32 -25 46 26 82 21 14 39 30 39 35 0 21 -22 16 -64 -17z"/>
<path d="M11856 9261 c-41 -28 -146 -142 -151 -166 -2 -11 -15 -67 -29 -125
-39 -165 -41 -180 -23 -180 17 0 24 18 58 168 16 69 24 90 31 78 13 -24 62
-20 95 8 33 28 75 102 94 163 20 68 -15 93 -75 54z m19 -111 c-29 -58 -67
-100 -88 -100 -23 0 -29 52 -9 68 9 7 17 18 18 25 2 27 18 48 58 77 l41 31 3
-25 c2 -13 -9 -48 -23 -76z"/>
<path d="M5575 9250 c-37 -16 -76 -68 -91 -122 -20 -73 -21 -83 -5 -83 8 0 24
28 38 65 31 82 64 118 112 122 20 2 36 8 36 13 0 13 -64 17 -90 5z"/>
<path d="M5955 9206 c-52 -55 -55 -61 -57 -130 -1 -56 30 -80 90 -71 50 7 126
38 137 55 13 22 -5 23 -52 2 -27 -11 -66 -22 -88 -24 -32 -2 -41 1 -51 20 -20
40 -4 68 56 99 57 30 74 59 50 89 -20 23 -31 17 -85 -40z m60 4 c-3 -5 -16
-15 -28 -21 -22 -12 -22 -12 -3 10 19 21 43 30 31 11z"/>
<path d="M8480 9228 c-45 -31 -85 -105 -76 -141 10 -41 41 -67 81 -67 63 0
182 56 162 76 -3 3 -35 -6 -71 -20 -79 -32 -110 -33 -130 -4 -22 31 -21 33 22
46 43 13 73 36 90 69 15 28 15 28 -4 47 -21 21 -35 20 -74 -6z m26 -55 c-15
-13 -35 -23 -44 -23 -12 0 -5 11 22 37 28 26 41 33 44 23 3 -7 -7 -24 -22 -37z"/>
<path d="M9439 9200 l-47 -50 5 40 c4 31 2 40 -9 40 -10 0 -18 -14 -22 -42 -4
-24 -23 -71 -42 -105 -18 -33 -34 -66 -34 -72 0 -28 31 -2 98 81 73 88 94 105
71 55 -12 -26 -7 -57 9 -57 5 0 40 23 77 51 37 27 65 43 61 34 -3 -9 -9 -41
-12 -71 -5 -41 -3 -59 10 -79 18 -27 56 -34 56 -10 0 8 -7 15 -15 15 -24 0
-29 47 -11 118 9 37 16 73 16 80 0 19 -26 14 -57 -11 -15 -13 -45 -36 -65 -51
l-38 -28 15 42 c8 23 15 49 15 56 0 28 -35 12 -81 -36z"/>
<path d="M12270 9221 c-74 -39 -81 -52 -52 -101 25 -44 23 -55 -8 -63 -13 -3
-20 0 -20 9 0 21 -18 17 -25 -6 -10 -30 4 -43 38 -36 35 7 67 33 67 54 0 8 -9
30 -21 48 l-20 33 43 27 c24 15 50 28 58 29 15 1 20 7 20 25 0 17 -22 11 -80
-19z"/>
<path d="M7069 9223 c-34 -21 -81 -92 -77 -118 4 -24 46 -32 78 -15 19 10 21
9 16 -7 -8 -24 16 -59 34 -48 8 5 9 10 1 14 -7 5 -8 17 -1 41 21 74 8 87 -42
45 -16 -14 -36 -25 -44 -25 -23 0 9 54 51 86 53 40 40 62 -16 27z"/>
<path d="M13255 9218 c-73 -57 -111 -174 -64 -198 35 -20 195 8 173 30 -6 6
-33 6 -73 -1 -35 -5 -70 -8 -78 -5 -18 7 -17 56 2 56 8 0 15 6 15 14 0 9 7 12
20 9 26 -7 90 41 90 67 0 54 -37 66 -85 28z m55 -22 c0 -14 -29 -37 -63 -49
-15 -6 -16 -4 -7 13 10 19 48 50 62 50 5 0 8 -6 8 -14z"/>
<path d="M14242 9184 c-34 -34 -52 -59 -44 -61 6 -3 12 -13 12 -23 0 -38 61
-61 92 -33 12 10 18 12 13 4 -5 -10 -4 -12 3 -7 25 15 10 26 -33 26 -62 0 -58
18 13 55 50 26 57 34 57 60 0 25 -4 30 -28 33 -23 3 -38 -7 -85 -54z m83 16
c-3 -6 -21 -17 -38 -26 l-32 -15 28 25 c28 26 54 35 42 16z"/>
<path d="M5723 9209 c-33 -21 -83 -107 -83 -144 0 -11 7 -31 16 -44 14 -19 23
-22 54 -18 45 6 92 27 97 44 5 13 -28 10 -72 -7 -38 -15 -53 -12 -60 9 -10 31
11 69 42 75 16 4 42 17 58 30 27 21 28 26 17 50 -14 31 -27 32 -69 5z m27 -34
c-7 -8 -17 -15 -22 -15 -6 0 -5 7 2 15 7 8 17 15 22 15 6 0 5 -7 -2 -15z"/>
<path d="M9886 9215 c-9 -9 -16 -21 -16 -28 0 -6 -16 -41 -35 -78 -19 -38 -35
-73 -35 -78 0 -25 28 -8 62 37 20 26 50 60 68 77 l31 29 -16 -43 c-8 -24 -15
-52 -15 -62 0 -27 28 -49 63 -49 37 0 101 35 92 51 -5 7 -13 6 -23 -4 -10 -8
-35 -14 -57 -13 -39 1 -40 2 -37 34 1 18 12 51 23 74 20 39 20 68 -1 68 -5 0
-28 -16 -50 -36 -24 -22 -40 -31 -40 -22 0 8 5 19 12 26 8 8 9 15 1 23 -7 7
-15 5 -27 -6z"/>
<path d="M12465 9214 c-22 -8 -50 -26 -62 -40 -22 -24 -22 -27 -7 -62 22 -53
22 -53 -16 -67 -44 -15 -46 -39 -4 -43 36 -4 84 30 84 58 0 11 -7 35 -17 54
-21 46 -9 61 63 77 30 7 53 17 51 23 -5 17 -47 17 -92 0z"/>
<path d="M10509 9173 c-95 -83 -88 -80 -78 -32 14 59 -1 69 -46 35 -37 -28
-85 -88 -111 -139 -13 -25 -13 -28 3 -34 9 -4 19 -1 21 5 5 16 71 113 89 132
13 13 14 10 8 -22 -4 -21 -5 -45 -1 -53 8 -21 33 -7 93 48 24 22 45 38 48 35
2 -2 0 -20 -5 -40 -7 -23 -7 -45 -1 -62 13 -32 54 -44 76 -22 17 16 15 18 -20
20 -27 1 -31 50 -10 111 15 45 13 65 -5 65 -4 0 -32 -21 -61 -47z"/>
<path d="M12007 9180 c-82 -72 -86 -150 -7 -150 32 0 47 7 80 38 44 43 50 73
25 122 -21 40 -43 38 -98 -10z m77 -16 c3 -9 6 -21 6 -29 0 -21 -62 -75 -87
-75 -36 0 -30 45 11 86 37 37 60 43 70 18z"/>
<path d="M3505 9192 c-42 -26 -97 -91 -93 -110 5 -25 34 -26 68 -2 l30 21 0
-40 c0 -34 3 -41 19 -41 17 0 19 5 15 39 -2 21 0 50 6 65 15 41 -13 45 -55 7
-48 -42 -57 -39 -15 4 19 19 41 35 51 35 19 0 42 24 32 33 -11 11 -26 8 -58
-11z"/>
<path d="M3704 9187 c-16 -14 -37 -26 -47 -28 -19 -4 -71 -115 -61 -131 10
-15 25 -8 34 18 12 31 86 120 107 128 14 6 15 -3 9 -64 -6 -58 -5 -70 8 -70
16 0 31 81 24 135 -4 39 -36 44 -74 12z"/>
<path d="M4165 9201 c-11 -5 -39 -29 -63 -55 -44 -48 -55 -93 -31 -138 22 -41
123 -63 153 -33 8 9 18 16 21 15 3 0 5 3 5 8 0 9 -6 9 -47 -2 -72 -17 -125 25
-109 88 4 18 11 22 31 19 27 -6 109 37 118 61 7 19 -18 46 -41 45 -9 0 -26 -4
-37 -8z m45 -28 c0 -9 -57 -43 -72 -43 -18 0 23 39 46 43 11 2 22 5 24 6 1 0
2 -2 2 -6z"/>
<path d="M9783 9198 c-20 -24 -64 -140 -59 -154 9 -24 36 -16 36 10 0 13 11
48 24 77 13 30 24 58 26 64 3 15 -16 17 -27 3z"/>
<path d="M14583 9175 c-23 -23 -33 -42 -31 -57 3 -20 8 -23 42 -21 21 2 45 8
52 14 19 15 18 6 -7 -77 -18 -61 -24 -71 -40 -67 -40 11 -69 -40 -89 -155 -11
-70 -4 -112 20 -112 20 0 76 110 104 205 5 16 14 20 51 20 53 0 65 19 15 23
-19 2 -38 7 -42 10 -4 4 6 50 22 102 35 112 36 126 11 140 -37 19 -72 11 -108
-25z m87 -4 c0 -14 -25 -31 -60 -41 -29 -8 -31 -8 -19 8 21 28 42 42 61 42 10
0 18 -4 18 -9z m-67 -237 c7 -7 -48 -164 -64 -179 -11 -11 -11 -10 12 95 17
79 32 104 52 84z"/>
<path d="M3070 9187 c-30 -15 -90 -93 -90 -117 0 -10 7 -25 15 -34 18 -18 63
-6 91 25 25 28 32 24 36 -18 2 -25 8 -39 19 -41 13 -2 16 5 15 40 0 24 3 60 7
81 11 51 -3 48 -70 -13 -48 -44 -83 -62 -83 -44 0 4 9 22 21 40 23 37 47 54
78 54 18 0 38 17 30 24 -14 12 -48 14 -69 3z"/>
<path d="M3913 9151 c-44 -42 -53 -56 -53 -85 0 -60 81 -98 141 -66 34 19 22
32 -25 25 -53 -8 -86 7 -86 38 0 25 74 103 103 109 26 4 22 22 -5 26 -16 2
-39 -12 -75 -47z"/>
<path d="M11013 9148 c-31 -29 -51 -43 -44 -31 6 12 16 25 21 28 16 10 11 25
-8 25 -13 0 -33 -27 -65 -85 -26 -47 -47 -90 -47 -95 0 -26 33 -2 112 82 l87
93 -15 -48 c-12 -37 -13 -51 -4 -62 14 -17 34 -11 81 27 l37 28 -6 -65 c-3
-44 -1 -70 8 -80 25 -30 120 -11 120 24 0 14 -27 15 -35 1 -12 -19 -42 -10
-55 16 -12 22 -12 34 3 87 29 100 30 107 19 107 -6 0 -39 -27 -73 -60 -34 -33
-64 -58 -66 -56 -3 2 2 27 11 54 24 81 -2 84 -81 10z"/>
<path d="M1991 9154 c-72 -65 -99 -154 -51 -169 25 -8 93 27 119 62 l20 28 1
-41 c0 -49 22 -85 41 -67 10 10 9 15 -1 28 -12 14 -10 54 6 113 11 38 -29 27
-72 -20 -85 -96 -144 -87 -74 11 39 53 71 69 111 54 18 -7 31 -8 35 -2 11 19
-19 39 -57 39 -31 0 -47 -8 -78 -36z"/>
<path d="M10701 9157 c-23 -61 -32 -106 -29 -147 3 -38 7 -46 29 -54 57 -20
159 70 162 144 3 49 -17 47 -30 -3 -17 -63 -93 -130 -125 -111 -16 10 -4 96
19 143 11 22 18 43 15 46 -13 12 -33 3 -41 -18z"/>
<path d="M10176 9158 c-2 -7 -13 -43 -25 -81 -24 -78 -26 -97 -8 -97 10 0 68
156 67 183 0 12 -30 8 -34 -5z"/>
<path d="M12612 9132 c-52 -55 -67 -122 -27 -122 10 0 15 9 15 28 0 28 22 68
50 89 12 9 12 14 3 24 -10 9 -18 5 -41 -19z"/>
<path d="M14401 9120 l-20 -40 20 -11 c24 -12 34 -6 35 24 0 12 4 32 8 45 13
39 -20 26 -43 -18z"/>
<path d="M4693 8562 c-28 -21 -44 -62 -73 -179 l-22 -92 -29 6 c-23 4 -36 0
-55 -18 -55 -51 -69 -112 -34 -144 16 -15 25 -16 44 -7 42 19 94 121 126 245
33 130 48 167 66 167 19 0 26 16 11 28 -9 8 -19 6 -34 -6z m-124 -329 c-31
-52 -50 -73 -66 -73 -37 0 14 99 57 110 14 4 27 5 29 4 2 -2 -7 -20 -20 -41z"/>
<path d="M2837 8536 c-4 -9 -14 -12 -27 -9 -29 8 -360 -28 -360 -39 0 -5 -6
-6 -12 -2 -10 5 -10 4 -1 -6 12 -13 71 -9 326 19 58 6 66 5 62 -8 -2 -9 -16
-52 -29 -96 -13 -44 -32 -102 -41 -128 -14 -38 -15 -51 -5 -60 9 -9 19 -3 44
27 l33 39 -5 -51 c-5 -55 8 -72 46 -57 16 6 16 7 -2 20 -16 12 -17 20 -8 72
12 67 4 83 -32 60 l-25 -17 15 53 c9 28 24 81 35 116 10 35 19 67 19 72 0 15
-27 10 -33 -5z"/>
<path d="M8553 8513 c-12 -21 -26 -65 -32 -98 -26 -136 -28 -140 -69 -139 -50
1 -86 -19 -111 -59 -28 -46 -27 -75 3 -88 35 -16 70 -4 111 36 49 50 64 83 85
194 21 107 33 146 49 156 15 9 14 35 -2 35 -7 0 -23 -17 -34 -37z m-87 -275
c9 -15 -72 -90 -93 -86 -29 5 -26 27 10 63 35 35 70 45 83 23z"/>
<path d="M5947 8533 c-2 -5 -4 -24 -6 -43 -1 -19 -19 -87 -41 -152 -22 -64
-43 -142 -46 -173 -6 -52 -5 -57 11 -54 14 3 19 15 21 51 4 59 16 84 52 102
23 12 33 12 53 3 20 -11 24 -21 27 -66 2 -31 -2 -59 -9 -67 -9 -11 -9 -18 -1
-26 22 -22 41 12 44 79 2 54 -1 66 -22 88 -13 14 -31 25 -39 25 -16 1 96 110
112 110 4 0 7 7 7 15 0 29 -29 14 -103 -55 -41 -38 -77 -70 -80 -70 -3 0 5 33
18 73 34 105 42 167 22 167 -9 0 -18 -3 -20 -7z"/>
<path d="M9766 8497 c-3 -6 -25 -68 -51 -137 -69 -182 -81 -250 -43 -250 9 0
13 16 14 48 1 32 19 92 58 189 31 78 56 144 56 146 0 12 -31 15 -34 4z"/>
<path d="M4425 8488 c-9 -29 -65 -187 -84 -239 -29 -81 -37 -139 -19 -139 9 0
20 22 30 63 9 34 36 118 61 186 25 69 44 128 41 133 -8 12 -24 10 -29 -4z"/>
<path d="M10424 8473 c-14 -65 -40 -134 -85 -227 -55 -111 -67 -159 -49 -181
17 -20 21 -15 26 37 3 23 23 79 46 123 55 108 88 198 88 240 0 42 -17 46 -26
8z"/>
<path d="M12851 8474 c-11 -15 -29 -51 -38 -81 -18 -57 -46 -80 -85 -70 -21 6
-45 -20 -32 -33 5 -5 25 -5 47 -1 20 5 37 6 37 2 0 -3 -9 -33 -20 -65 -24 -71
-24 -76 -6 -76 10 0 23 27 37 75 l23 75 37 0 c45 0 89 15 89 30 0 8 -18 9 -55
5 -38 -5 -55 -4 -55 4 0 21 38 110 54 126 16 16 14 35 -4 35 -5 0 -18 -12 -29
-26z"/>
<path d="M1995 8428 l6 -53 -22 38 c-25 40 -49 49 -49 17 0 -11 4 -20 8 -20 5
0 16 -15 24 -34 l17 -34 -42 -10 c-23 -6 -51 -10 -61 -9 -10 1 -21 -3 -23 -10
-7 -19 40 -26 87 -13 23 6 43 10 45 8 1 -2 -1 -30 -5 -63 -4 -33 -5 -63 -3
-67 10 -18 22 -5 39 37 17 45 27 54 39 35 9 -14 35 -13 35 2 0 6 -7 19 -16 29
-20 22 -10 59 16 59 26 0 34 17 14 28 -16 9 -15 14 9 55 30 51 32 57 16 57
-21 0 -67 -65 -55 -77 3 -3 -4 -15 -17 -25 l-22 -20 -3 39 c-4 61 -11 83 -28
83 -12 0 -14 -10 -9 -52z"/>
<path d="M12241 8454 c-29 -21 -14 -41 18 -25 12 7 28 11 35 9 14 -3 16 0 16
22 0 16 -43 12 -69 -6z"/>
<path d="M2635 8448 c-28 -83 -50 -225 -41 -263 12 -46 28 -21 31 45 2 55 16
128 41 213 6 20 -24 25 -31 5z"/>
<path d="M3012 8418 c3 -7 15 -15 27 -16 16 -3 22 1 19 10 -3 7 -15 15 -27 16
-16 3 -22 -1 -19 -10z"/>
<path d="M13914 8415 c-8 -19 2 -34 21 -31 23 3 29 14 15 31 -16 19 -29 19
-36 0z"/>
<path d="M13418 8342 c-9 -9 -24 -34 -34 -54 -19 -38 -102 -106 -154 -128 -28
-12 -42 -40 -20 -40 16 0 70 29 108 58 l32 24 0 -25 c0 -36 25 -53 60 -40 24
9 29 8 33 -8 6 -23 47 -26 47 -4 0 8 -4 15 -10 15 -16 0 -12 15 16 55 17 26
22 41 15 48 -7 7 -26 -4 -60 -36 -28 -26 -55 -47 -62 -47 -20 0 -3 68 31 119
16 26 30 53 30 59 0 20 -17 22 -32 4z"/>
<path d="M5365 8338 c-11 -6 -39 -29 -63 -52 l-43 -41 12 33 c8 24 8 37 1 44
-11 11 -43 -50 -77 -144 -20 -54 1 -61 39 -12 17 21 50 59 74 84 l43 45 -16
-39 c-39 -98 -5 -112 81 -34 37 35 55 46 51 33 -3 -11 -9 -41 -12 -66 -7 -49
8 -75 39 -63 20 8 21 20 2 31 -11 6 -12 18 -6 53 22 111 2 129 -65 59 -22 -22
-48 -45 -57 -50 -16 -9 -16 -7 -2 28 9 21 20 42 25 48 11 11 12 55 2 55 -5 0
-17 -6 -28 -12z"/>
<path d="M13677 8322 c-38 -23 -42 -46 -18 -93 12 -22 19 -45 16 -50 -11 -17
-39 -9 -62 19 -25 30 -31 15 -13 -32 7 -20 16 -26 40 -26 69 0 85 31 50 97
-21 40 -14 63 22 63 13 0 18 6 16 17 -4 23 -19 25 -51 5z"/>
<path d="M3126 8313 c-28 -15 -28 -16 -22 -75 6 -47 4 -65 -9 -84 l-16 -25
-19 23 c-23 29 -32 21 -24 -20 5 -27 11 -32 34 -32 44 0 74 56 66 123 -5 46
-3 54 17 69 32 24 11 41 -27 21z"/>
<path d="M3742 8315 c-31 -22 -73 -98 -74 -134 -1 -36 14 -57 48 -65 33 -9 94
11 94 30 0 16 -10 17 -43 5 -38 -15 -67 -3 -67 26 0 38 40 101 72 115 15 7 28
19 28 25 0 18 -31 16 -58 -2z"/>
<path d="M3988 8313 c-20 -3 -34 -18 -57 -58 -34 -60 -38 -87 -16 -105 34 -29
135 39 135 91 0 18 -27 81 -33 78 -1 -1 -14 -4 -29 -6z m32 -69 c0 -19 -42
-61 -67 -69 -32 -9 -29 9 8 69 29 47 32 49 45 31 8 -10 14 -24 14 -31z"/>
<path d="M6204 8295 c-27 -27 -63 -100 -64 -127 0 -48 75 -74 135 -46 26 12
29 36 4 29 -49 -12 -86 -12 -97 2 -18 22 -5 43 44 72 42 25 64 61 49 84 -11
19 -45 12 -71 -14z m46 -8 c0 -2 -9 -12 -20 -22 -24 -21 -27 -14 -4 9 15 15
24 20 24 13z"/>
<path d="M11541 8263 c-65 -67 -101 -113 -101 -128 0 -5 -25 -67 -56 -138 -32
-70 -54 -130 -51 -133 16 -16 41 12 77 87 22 46 43 97 46 116 5 27 11 33 31
33 32 0 81 25 121 64 77 72 84 156 13 156 -16 0 -42 -18 -80 -57z m99 12 c0
-23 -25 -67 -52 -91 -30 -28 -88 -57 -96 -49 -11 11 32 77 77 116 46 41 71 49
71 24z"/>
<path d="M5667 8291 c-44 -29 -89 -88 -85 -112 5 -38 33 -47 76 -24 l37 20 15
-30 c8 -16 23 -31 33 -33 21 -4 22 14 2 34 -10 10 -15 35 -15 74 0 94 -11 106
-63 71z m33 -38 c-1 -29 -56 -83 -84 -83 -16 0 -2 28 31 62 41 42 53 47 53 21z"/>
<path d="M9204 8291 c-57 -35 -88 -107 -64 -151 13 -24 70 -43 104 -34 37 9
26 29 -16 29 -38 0 -68 19 -68 43 0 49 77 115 107 91 11 -9 17 -9 26 0 9 10 8
15 -7 27 -26 19 -45 18 -82 -5z"/>
<path d="M11729 8261 c-52 -54 -83 -106 -74 -121 11 -17 22 -11 34 18 19 45
100 125 122 119 23 -6 37 12 18 24 -29 18 -54 8 -100 -40z"/>
<path d="M14000 8294 c-40 -27 -110 -97 -110 -110 0 -22 19 -25 44 -9 14 9 23
22 20 30 -5 12 62 72 71 63 2 -2 -5 -33 -16 -68 -18 -60 -14 -97 8 -68 14 19
54 159 47 169 -8 14 -37 11 -64 -7z"/>
<path d="M9840 8278 c-71 -49 -93 -115 -50 -150 28 -22 78 -23 109 -2 29 21
14 41 -18 24 -12 -6 -34 -10 -49 -8 -21 2 -28 9 -30 29 -5 47 82 114 103 79 9
-15 35 -12 35 4 0 16 -37 46 -56 46 -6 0 -26 -10 -44 -22z"/>
<path d="M11923 8286 c3 -8 -13 -34 -39 -60 -24 -26 -44 -55 -44 -66 0 -47 81
-44 140 7 26 21 31 32 28 61 -2 27 -10 40 -33 53 -37 22 -59 24 -52 5z m55
-68 c-4 -26 -58 -61 -88 -56 -19 3 -18 6 16 41 41 42 77 50 72 15z"/>
<path d="M12324 8256 c-36 -35 -44 -50 -44 -79 0 -26 6 -40 22 -51 30 -21 98
-21 98 -1 0 10 -10 15 -34 15 -41 0 -61 21 -52 56 6 24 8 25 19 9 12 -16 16
-15 52 6 54 30 67 47 54 70 -18 35 -66 24 -115 -25z m86 9 c0 -6 -56 -35 -67
-35 -14 1 39 40 53 40 8 0 14 -2 14 -5z"/>
<path d="M4214 8273 c-18 -57 -31 -79 -61 -110 -61 -60 -83 -34 -38 46 29 50
31 61 10 61 -17 0 -65 -89 -65 -123 0 -54 52 -62 105 -15 38 33 71 87 76 127
5 29 -18 41 -27 14z"/>
<path d="M6960 8253 c-20 -25 -30 -47 -28 -63 3 -22 8 -25 38 -24 19 0 43 4
52 8 13 6 17 2 20 -20 3 -30 40 -57 64 -47 22 8 16 33 -6 33 -31 0 -35 25 -11
65 25 43 27 59 5 51 -9 -3 -28 3 -44 14 -40 28 -54 25 -90 -17z m75 -7 l28
-15 -46 -22 c-26 -13 -49 -20 -53 -17 -4 5 34 68 42 68 1 0 14 -6 29 -14z"/>
<path d="M7961 8255 c-24 -28 -31 -45 -29 -68 3 -30 5 -32 45 -31 51 1 93 26
93 58 0 12 -3 26 -7 30 -4 4 -8 15 -8 24 0 12 -10 18 -31 20 -25 2 -37 -4 -63
-33z m52 -11 c-18 -9 -33 -20 -33 -25 0 -15 22 -21 33 -10 13 13 27 14 27 2 0
-8 -52 -31 -71 -31 -5 0 -9 7 -9 15 0 20 48 65 69 65 9 0 1 -8 -16 -16z"/>
<path d="M10830 8283 c-28 -10 -60 -47 -60 -68 0 -12 9 -34 21 -49 26 -33 18
-46 -32 -46 -49 0 -54 -25 -7 -34 24 -5 39 -1 58 12 34 25 36 46 9 83 -29 42
-16 65 35 62 39 -3 45 7 20 31 -16 17 -20 18 -44 9z"/>
<path d="M14248 8258 c-57 -41 -92 -84 -84 -103 7 -19 75 -20 120 -1 19 8 44
28 57 45 12 17 26 31 29 31 12 0 -8 -117 -27 -161 -19 -43 -23 -46 -76 -58
-31 -7 -67 -21 -81 -32 -45 -36 -54 -127 -14 -153 25 -15 61 15 115 94 l48 70
95 -2 c90 -2 120 3 120 21 0 5 -41 9 -91 9 -50 1 -93 3 -96 5 -2 3 5 26 15 53
11 27 23 82 27 121 6 65 5 74 -11 80 -13 5 -28 -5 -58 -39 -47 -52 -73 -68
-113 -68 -28 1 -28 1 17 41 25 22 55 42 68 45 13 4 21 11 19 18 -7 22 -33 16
-79 -16z m25 -308 c-23 -40 -69 -90 -82 -90 -15 0 -13 61 2 81 17 22 48 38 75
39 23 0 23 0 5 -30z"/>
<path d="M8190 8265 c-38 -21 -89 -78 -92 -104 -4 -30 21 -46 57 -37 40 10 99
71 92 96 -3 11 -1 20 4 20 15 0 10 28 -7 34 -20 8 -23 7 -54 -9z m20 -49 c0
-17 -10 -31 -34 -45 -39 -25 -46 -26 -46 -7 0 12 63 76 75 76 3 0 5 -11 5 -24z"/>
<path d="M12567 8259 c-26 -20 -57 -67 -57 -88 0 -35 77 -54 121 -30 29 15 12
31 -27 23 -18 -3 -41 -4 -49 0 -21 8 -2 46 36 71 30 20 39 45 17 45 -7 0 -26
-10 -41 -21z"/>
<path d="M13831 8225 c-17 -30 -31 -61 -31 -69 0 -23 19 -29 27 -9 4 10 20 40
35 66 26 45 29 67 8 67 -4 0 -22 -25 -39 -55z"/>
<path d="M2957 8263 c-4 -3 -7 -28 -7 -55 0 -36 4 -48 15 -48 11 0 15 11 15
39 0 22 3 46 6 55 6 16 -16 23 -29 9z"/>
<path d="M7716 8243 c-38 -38 -32 -68 14 -68 41 -1 46 -16 35 -102 -6 -50 -8
-53 -33 -51 -64 4 -92 -28 -92 -106 0 -29 7 -52 20 -67 l20 -24 35 39 c19 21
40 57 48 80 13 38 16 41 58 46 53 6 58 24 7 28 l-36 3 4 92 c6 109 -1 127 -40
102 -15 -10 -29 -15 -32 -12 -3 3 6 13 20 22 19 12 36 15 66 10 43 -7 55 6 21
25 -37 19 -86 12 -115 -17z m24 -270 c0 -24 -50 -104 -61 -98 -12 8 -12 57 1
89 11 31 60 38 60 9z"/>
<path d="M10503 8233 c-24 -57 -29 -131 -10 -139 34 -13 101 42 132 109 25 53
6 72 -24 24 -11 -19 -21 -39 -21 -45 0 -12 -48 -52 -63 -52 -12 0 -2 53 18 93
19 38 19 47 -1 47 -8 0 -22 -17 -31 -37z"/>
<path d="M9443 8241 c-34 -21 -51 -57 -35 -73 7 -7 23 -6 52 6 52 21 51 21 39
-13 -14 -39 -8 -76 11 -76 10 0 14 8 12 23 -2 12 6 43 18 68 21 43 22 46 5 64
-23 25 -61 25 -102 1z m47 -21 c-8 -5 -19 -10 -25 -10 -5 0 -3 5 5 10 8 5 20
10 25 10 6 0 3 -5 -5 -10z"/>
<path d="M10170 8222 c0 -17 -9 -37 -22 -50 -27 -24 -73 -38 -82 -24 -9 15 15
62 31 62 8 0 13 6 11 13 -9 25 -43 12 -63 -25 -48 -90 48 -123 128 -43 31 31
39 95 12 95 -10 0 -15 -10 -15 -28z"/>
<path d="M12191 8228 c-5 -13 -14 -50 -20 -83 -23 -113 -40 -151 -86 -194 -25
-23 -51 -41 -59 -41 -13 0 -31 27 -28 43 1 4 -3 7 -9 7 -6 0 -9 -16 -7 -37 3
-34 6 -38 34 -41 42 -4 110 49 141 108 12 25 31 86 42 135 10 50 20 96 22 104
7 24 -21 24 -30 -1z"/>
<path d="M2169 8087 c-19 -14 -35 -57 -21 -57 5 0 17 9 27 20 10 11 30 20 45
20 32 0 90 -49 90 -75 0 -43 -54 -102 -116 -125 -26 -10 -26 -10 -19 27 4 21
8 45 9 53 2 23 -28 18 -32 -5 -13 -75 -22 -93 -45 -88 -12 3 -32 17 -44 31
-26 31 -39 24 -26 -15 6 -18 20 -32 41 -38 17 -6 34 -14 38 -17 3 -4 -8 -53
-26 -109 -22 -71 -28 -105 -21 -112 6 -6 13 -8 16 -5 4 3 21 57 38 119 32 111
33 112 71 125 77 27 146 101 146 157 0 69 -118 134 -171 94z"/>
<path d="M12901 7915 c-32 -84 -32 -85 -72 -91 -44 -7 -48 -29 -6 -29 32 1 33
-9 7 -53 -11 -18 -18 -37 -15 -43 11 -17 38 8 55 52 17 42 20 44 64 49 56 6
61 24 7 28 l-38 3 28 72 c32 82 35 97 16 97 -8 0 -28 -37 -46 -85z"/>
<path d="M10040 7965 c0 -8 7 -15 15 -15 8 0 15 7 15 15 0 8 -7 15 -15 15 -8
0 -15 -7 -15 -15z"/>
<path d="M2616 7895 c-31 -80 -29 -79 -129 -100 -16 -3 -27 -11 -24 -18 4 -13
12 -13 65 -3 35 7 36 6 23 -44 -17 -67 -20 -130 -5 -130 14 0 18 12 29 85 11
76 25 103 62 125 19 11 37 19 40 16 2 -2 -12 -36 -32 -75 -19 -40 -33 -76 -30
-81 10 -17 32 -11 65 16 17 15 32 25 33 23 2 -2 7 -17 13 -34 9 -30 43 -44 35
-15 -2 8 -7 29 -10 45 -7 27 -11 30 -44 29 l-36 -1 18 36 c25 49 53 149 46
162 -9 13 -25 2 -35 -26 -5 -12 -23 -33 -40 -45 l-32 -23 7 24 c4 13 14 36 21
51 17 34 18 58 1 58 -7 0 -25 -34 -41 -75z"/>
<path d="M8707 7963 c-4 -3 -7 -44 -7 -89 0 -79 -2 -85 -31 -119 -28 -31 -76
-65 -94 -65 -25 0 29 76 68 97 31 16 31 40 1 35 -26 -5 -84 -61 -99 -97 -30
-68 24 -85 100 -32 66 45 85 84 85 175 0 46 4 71 10 67 17 -11 32 5 19 21 -12
15 -41 19 -52 7z"/>
<path d="M14550 7855 c-44 -96 -51 -105 -77 -106 -75 -4 -90 -9 -78 -29 4 -7
22 -9 51 -4 l44 6 -6 -31 c-9 -43 20 -42 32 2 9 28 14 32 49 35 40 4 65 16 65
34 0 5 -19 6 -45 2 l-45 -6 40 87 c41 89 48 115 30 115 -6 0 -33 -47 -60 -105z"/>
<path d="M4171 7927 c-28 -14 -25 -33 4 -29 96 15 106 14 131 -9 24 -23 44
-75 44 -116 0 -13 -13 -37 -28 -54 -25 -28 -32 -31 -68 -25 -21 4 -48 14 -58
22 -19 14 -19 14 3 38 30 32 8 46 -25 15 -30 -28 -30 -50 -1 -84 65 -76 207
-13 207 93 0 37 -26 113 -43 125 -7 4 11 5 38 1 28 -3 55 -7 60 -8 6 0 10 6
10 14 0 9 -15 17 -40 22 -66 11 -208 9 -234 -5z"/>
<path d="M13131 7896 c-14 -17 -11 -48 5 -53 6 -2 14 5 17 17 3 11 13 20 22
20 9 0 15 6 13 13 -7 18 -43 20 -57 3z"/>
<path d="M8091 7847 c-12 -24 -37 -62 -56 -84 -58 -69 -39 -73 44 -11 31 23
70 52 88 65 l31 24 -24 -58 c-13 -32 -24 -65 -24 -74 0 -24 28 -45 47 -33 18
11 17 29 -3 28 -17 -2 -13 16 22 95 23 50 31 91 19 91 -12 0 -84 -40 -90 -50
-12 -19 -25 -10 -19 14 10 42 -14 37 -35 -7z"/>
<path d="M14801 7876 c-10 -12 -8 -17 9 -26 26 -14 34 -8 25 19 -7 25 -18 27
-34 7z"/>
<path d="M13663 7868 c-12 -21 -12 -38 0 -38 17 1 47 25 47 39 0 15 -37 14
-47 -1z"/>
<path d="M4942 7850 c-44 -27 -61 -65 -39 -87 15 -15 21 -15 63 -2 46 14 48
14 71 -9 18 -18 32 -22 65 -20 52 4 65 28 15 28 -48 0 -67 9 -67 30 0 28 -17
33 -53 17 -41 -19 -77 -30 -77 -23 0 3 12 16 27 30 24 22 28 23 38 9 15 -20
29 -1 20 27 -8 25 -21 25 -63 0z"/>
<path d="M10335 7851 c-86 -52 -97 -165 -20 -191 17 -6 38 -9 46 -6 8 2 27 7
42 11 50 10 25 29 -35 26 -49 -2 -58 0 -68 19 -16 30 -7 46 38 69 51 26 69 48
56 69 -15 23 -26 24 -59 3z"/>
<path d="M12637 7845 c-27 -14 -49 -20 -52 -15 -12 19 -23 10 -30 -22 -4 -18
-17 -46 -29 -63 -11 -16 -45 -79 -74 -139 -38 -78 -50 -112 -43 -119 15 -15
31 3 78 88 29 54 42 70 56 67 31 -6 61 6 106 41 78 62 115 153 72 177 -27 14
-32 13 -84 -15z m69 -19 c11 -29 -56 -116 -113 -145 -32 -16 -33 -15 -29 29 5
48 17 64 75 102 51 32 59 34 67 14z"/>
<path d="M4527 7849 c-10 -6 -31 -29 -47 -51 -47 -65 -15 -96 69 -67 27 10 34
9 45 -6 13 -18 47 -18 53 1 2 6 -5 14 -17 17 -13 3 -18 10 -14 21 3 9 0 18 -8
21 -8 3 -15 15 -15 28 -1 12 -10 27 -19 34 -21 15 -24 15 -47 2z m41 -49 c10
-17 8 -21 -18 -35 -31 -16 -60 -20 -60 -8 0 8 51 63 59 63 4 0 12 -9 19 -20z"/>
<path d="M5799 7837 c-27 -14 -52 -37 -63 -59 -19 -34 -19 -37 -3 -62 14 -21
25 -26 60 -26 41 0 107 30 107 49 0 5 -6 24 -14 42 -7 19 -11 40 -8 48 4 12
-13 30 -29 31 -3 0 -26 -10 -50 -23z m56 -57 c0 -46 -14 -60 -61 -60 -47 0
-51 25 -10 66 48 48 71 46 71 -6z"/>
<path d="M8357 7845 c-10 -7 -27 -30 -38 -50 -34 -64 10 -97 81 -60 34 17 37
31 15 62 -9 12 -15 26 -14 30 6 35 -13 42 -44 18z m23 -85 c-34 -22 -56 0 -28
28 10 10 16 9 28 -3 13 -14 13 -17 0 -25z"/>
<path d="M4763 7838 c-4 -7 -10 -33 -13 -57 -7 -63 -26 -63 -35 -1 -5 35 -11
50 -22 50 -13 0 -14 -9 -9 -52 9 -70 30 -102 56 -88 27 14 36 36 43 97 6 51
-4 76 -20 51z"/>
<path d="M6042 7840 c-12 -5 -38 -25 -58 -45 -28 -28 -35 -42 -32 -68 4 -44
38 -52 38 -8 0 38 45 91 80 93 14 0 42 -2 63 -7 52 -10 51 18 -2 33 -45 14
-58 14 -89 2z"/>
<path d="M8835 7797 c-59 -57 -68 -84 -36 -116 34 -34 181 -40 181 -8 0 8 -22
12 -70 12 -51 0 -74 4 -86 17 -22 22 -12 34 37 42 55 9 105 56 89 86 -19 35
-56 25 -115 -33z m81 5 c-6 -10 -66 -34 -66 -27 0 1 15 12 32 23 32 21 45 22
34 4z"/>
<path d="M9940 7803 c-35 -54 -37 -73 -12 -102 14 -17 23 -19 46 -13 33 9 40
20 26 42 -8 12 -13 13 -29 3 -12 -8 -22 -9 -26 -3 -9 14 23 70 40 70 16 0 18
9 9 34 -10 26 -23 19 -54 -31z"/>
<path d="M12334 7835 c-35 -14 -72 -57 -81 -93 -4 -17 1 -30 19 -49 23 -23 28
-24 66 -14 43 12 92 60 92 90 0 21 -25 58 -48 70 -11 6 -28 5 -48 -4z m51 -45
c18 -20 18 -21 -10 -50 -29 -30 -77 -41 -90 -20 -13 20 42 89 71 90 6 0 19 -9
29 -20z"/>
<path d="M13844 7815 c-10 -7 -15 -19 -11 -29 7 -17 27 -22 27 -6 0 6 12 10
26 10 26 0 25 -1 -12 -26 -133 -89 -123 -124 35 -124 74 0 91 3 91 15 0 12
-15 15 -67 17 -38 0 -78 0 -90 -1 -35 -3 -28 15 18 46 72 49 105 81 94 91 -17
16 -92 21 -111 7z"/>
<path d="M3027 7814 c-4 -4 -7 -19 -7 -33 0 -15 -7 -37 -16 -50 -12 -17 -13
-26 -5 -34 8 -8 22 -1 51 28 39 38 40 38 42 15 0 -14 0 -35 -1 -47 -1 -18 3
-23 23 -23 33 0 41 15 22 42 -9 12 -16 32 -16 44 0 28 -21 46 -40 34 -22 -14
-28 -12 -26 6 1 18 -16 29 -27 18z"/>
<path d="M13284 7804 c-77 -38 -139 -113 -114 -138 9 -8 16 -4 28 13 20 28 80
91 88 91 2 0 0 -9 -7 -21 -26 -49 30 -42 100 12 34 27 44 23 26 -11 -27 -53
-11 -112 25 -90 11 7 11 11 1 23 -10 12 -9 23 4 52 38 92 2 107 -91 40 -20
-15 -21 -14 -17 8 6 33 -6 39 -43 21z"/>
<path d="M15130 7810 c0 -7 -11 -34 -25 -62 -14 -27 -25 -54 -25 -59 0 -16 25
-9 72 20 l46 29 6 -24 c8 -31 42 -44 112 -44 65 0 133 25 117 41 -8 8 -20 8
-44 0 -17 -6 -56 -11 -84 -11 -56 0 -80 15 -69 44 3 9 3 23 0 32 -5 14 -12 12
-52 -10 -38 -21 -45 -23 -39 -8 12 28 11 55 -2 59 -7 3 -13 -1 -13 -7z"/>
<path d="M2925 7773 c7 -44 -12 -86 -39 -91 -34 -7 -40 14 -16 63 12 25 20 49
17 52 -26 25 -78 -81 -59 -121 25 -57 114 -22 128 50 8 43 -2 84 -21 84 -12 0
-14 -8 -10 -37z"/>
<path d="M13056 7789 c-9 -13 -16 -27 -16 -31 0 -5 -11 -26 -25 -48 -29 -46
-32 -63 -9 -58 22 4 90 136 76 150 -6 6 -15 2 -26 -13z"/>
<path d="M13605 7777 c-8 -20 -21 -53 -29 -72 -9 -20 -11 -37 -5 -40 16 -10
26 3 49 65 17 45 20 64 12 72 -9 9 -16 2 -27 -25z"/>
<path d="M14966 7787 c-10 -8 -29 -12 -41 -9 -27 5 -100 -31 -109 -54 -19 -49
35 -75 112 -55 54 15 75 37 67 69 -4 15 -1 28 6 32 12 8 4 30 -10 30 -4 0 -15
-6 -25 -13z m-6 -58 c0 -23 -73 -45 -104 -31 -20 9 -19 10 13 30 43 26 91 26
91 1z"/>
<path d="M2392 7768 c-5 -7 -20 -37 -32 -66 -27 -61 -42 -54 -38 18 2 36 -1
46 -15 48 -14 3 -17 -5 -17 -45 0 -26 5 -66 11 -87 9 -34 7 -47 -16 -102 -15
-35 -28 -76 -28 -91 -3 -52 15 -38 38 28 22 65 110 263 126 285 17 21 -12 33
-29 12z"/>
<path d="M14701 7749 c-23 -37 -26 -55 -11 -64 14 -9 54 75 41 88 -6 6 -16 -1
-30 -24z"/>
<path d="M14123 7749 c-35 -10 -63 -42 -63 -71 0 -26 44 -41 85 -29 26 7 35 6
39 -5 3 -8 17 -14 32 -14 24 0 25 3 19 27 -9 38 -20 42 -75 28 -56 -15 -80 -7
-52 18 20 18 107 39 118 28 4 -3 5 1 2 9 -5 18 -59 23 -105 9z"/>
<path d="M9096 7675 c-9 -24 -8 -25 20 -25 19 0 25 5 22 17 -4 23 -34 28 -42
8z"/>
<path d="M10090 7665 c0 -11 7 -15 23 -13 12 2 22 8 22 13 0 6 -10 11 -22 13
-16 2 -23 -2 -23 -13z"/>
<path d="M3587 7664 c-4 -4 -7 -15 -7 -24 0 -9 -15 -37 -33 -63 -29 -40 -34
-44 -44 -29 -8 12 -14 14 -22 6 -9 -8 -6 -18 9 -37 12 -15 25 -27 28 -27 13 0
91 124 94 149 3 24 -12 38 -25 25z"/>
<path d="M10257 7403 c-28 -78 -31 -81 -66 -55 -17 12 -34 22 -40 22 -14 0
-60 -58 -67 -85 -8 -33 13 -92 40 -112 l23 -17 -20 -58 c-19 -57 -18 -93 4
-86 7 2 13 17 15 33 7 65 32 110 69 124 38 13 75 54 75 81 0 10 -8 28 -19 41
-18 23 -18 24 10 85 15 34 25 65 22 68 -16 15 -30 2 -46 -41z m-50 -107 c7 -5
-48 -106 -57 -106 -16 0 -41 66 -33 87 10 26 23 32 58 26 16 -3 31 -7 32 -7z
m47 -32 c8 -22 9 -21 -16 -44 -33 -30 -38 -24 -20 20 18 43 27 49 36 24z"/>
<path d="M6112 7359 c-24 -12 -54 -36 -67 -53 -34 -45 -84 -167 -92 -223 -3
-27 -10 -54 -16 -60 -14 -19 0 -43 25 -43 13 1 37 -2 55 -6 23 -4 43 0 72 17
44 24 59 52 41 73 -18 23 -45 24 -99 6 -50 -18 -51 -18 -51 1 0 11 14 56 31
101 38 97 91 162 125 154 17 -5 26 -1 34 13 24 46 7 52 -58 20z m-12 -319 c0
-6 -16 -18 -35 -27 -26 -12 -40 -14 -57 -6 -23 10 -22 11 12 26 41 18 80 21
80 7z"/>
<path d="M9948 7273 c-5 -92 1 -143 18 -143 11 0 14 20 14 100 0 79 -3 100
-14 100 -10 0 -15 -16 -18 -57z"/>
<path d="M3103 7256 c-13 -6 -23 -17 -23 -24 0 -8 -29 -46 -65 -84 -84 -91
-84 -102 0 -96 l64 4 3 -70 c2 -44 7 -71 16 -74 9 -3 12 15 12 70 0 71 1 73
32 91 22 12 28 21 21 28 -8 8 -17 7 -32 0 -20 -11 -21 -10 -21 45 0 41 5 63
20 81 30 38 17 51 -27 29z m-25 -161 c-2 -2 -20 -5 -41 -8 -42 -5 -41 -3 12
56 l26 29 3 -37 c2 -20 2 -38 0 -40z"/>
<path d="M2623 7112 c-43 -23 -100 -77 -118 -113 -29 -56 -28 -109 2 -163 36
-64 80 -89 149 -83 l51 3 23 -50 c13 -28 36 -71 51 -96 28 -44 28 -45 9 -65
-50 -54 -66 -170 -31 -235 27 -51 107 -90 187 -90 69 0 96 15 145 83 24 33 29
50 29 96 -1 31 -6 66 -13 78 -14 26 -81 73 -104 73 -9 0 -21 8 -28 17 -10 13
-27 17 -77 16 -71 -1 -63 -7 -124 106 -31 57 -30 73 4 98 24 18 42 48 85 140
14 30 -17 89 -60 115 -17 10 -43 35 -58 54 -30 39 -69 45 -122 16z m74 -25
c-3 -8 20 -33 54 -61 33 -27 62 -59 65 -72 8 -32 -21 -109 -53 -138 -17 -16
-43 -26 -80 -30 -73 -9 -119 13 -151 71 -19 35 -21 47 -13 84 5 23 18 54 29
68 39 55 165 120 149 78z m253 -557 c0 -19 8 -23 40 -21 8 0 30 -12 47 -27 25
-21 34 -38 39 -72 5 -39 2 -50 -24 -86 -32 -44 -80 -74 -117 -74 -38 0 -112
30 -135 55 -49 52 -32 191 27 227 16 9 49 17 76 17 41 1 47 -2 47 -19z"/>
<path d="M9503 7110 c-3 -10 -13 -22 -22 -25 -10 -3 -33 -21 -51 -40 l-34 -35
2 -93 c2 -90 3 -93 36 -123 44 -42 112 -52 190 -30 93 27 161 125 141 203 -21
85 -245 208 -262 143z m135 -67 c111 -55 129 -114 61 -196 -55 -67 -181 -85
-244 -35 -25 19 -26 24 -23 112 l3 91 49 33 c26 17 56 32 64 32 9 0 50 -17 90
-37z"/>
<path d="M5541 7069 c-62 -12 -146 -79 -170 -135 -11 -29 -10 -38 12 -86 29
-64 82 -108 137 -115 54 -8 130 13 162 44 43 41 57 139 32 224 -3 9 -19 23
-37 30 -18 7 -43 21 -56 31 -13 10 -26 18 -30 17 -3 -1 -26 -5 -50 -10z m72
-64 c78 -24 95 -55 77 -139 -14 -67 -42 -90 -122 -101 -43 -6 -54 -4 -88 19
-24 16 -49 45 -64 74 -24 48 -24 49 -7 78 34 54 115 111 136 94 6 -4 36 -15
68 -25z"/>
<path d="M4668 6737 c-16 -13 -28 -29 -28 -38 0 -8 -34 -48 -75 -89 -41 -41
-75 -82 -75 -92 0 -10 1 -18 3 -18 1 0 24 7 51 15 77 23 76 25 77 -62 1 -95 9
-127 33 -131 15 -3 17 0 11 14 -4 11 -10 63 -13 117 l-4 97 26 0 c32 0 66 16
66 31 0 7 -14 8 -40 4 l-40 -7 0 39 c0 25 10 53 29 82 41 61 30 80 -21 38z
m-50 -162 c-7 -7 -26 -16 -43 -19 l-30 -7 40 41 c37 38 40 39 43 19 2 -12 -2
-27 -10 -34z"/>
<path d="M9700 6734 c0 -23 80 -168 129 -233 22 -30 48 -73 57 -97 17 -44 27
-53 39 -34 9 15 -30 97 -74 154 -48 64 -113 181 -105 189 9 9 -15 37 -32 37
-8 0 -14 -7 -14 -16z"/>
<path d="M5345 6658 c-25 -46 -59 -98 -74 -116 -28 -33 -29 -33 -75 -21 -55
14 -166 -3 -189 -30 -17 -19 -57 -132 -57 -161 0 -37 56 -159 84 -182 43 -34
95 -40 174 -20 57 15 81 27 112 57 37 36 40 43 40 92 0 44 -8 69 -44 136 l-44
83 25 29 c29 36 123 193 123 206 0 5 -6 9 -14 9 -8 0 -35 -37 -61 -82z m-127
-180 c12 -10 11 -14 -3 -24 -25 -19 -11 -48 18 -40 20 5 28 -3 55 -47 42 -70
42 -109 0 -151 -36 -35 -137 -64 -182 -52 -43 11 -84 55 -106 112 -17 47 -19
62 -10 95 14 50 72 116 108 122 38 7 104 -2 120 -15z"/>
<path d="M9407 6698 c-43 -74 -97 -187 -97 -202 0 -23 20 -30 38 -12 12 11 13
16 3 16 -8 0 11 45 47 114 33 63 58 117 54 120 -12 12 -21 5 -45 -36z"/>
<path d="M5627 6717 c-6 -17 26 -97 89 -221 l45 -89 -25 -26 c-15 -16 -31 -53
-41 -92 -16 -65 -16 -67 5 -117 12 -28 37 -64 55 -81 l34 -30 -63 -108 c-35
-59 -77 -130 -94 -158 -37 -62 -43 -88 -19 -93 11 -2 17 3 17 13 0 9 29 65 64
123 35 59 77 131 94 160 l29 53 85 3 c100 3 164 29 205 82 22 29 25 41 20 78
-9 62 -26 94 -64 117 -18 12 -40 34 -48 50 -23 44 -67 61 -149 60 l-72 -1 -67
125 c-37 69 -67 133 -65 142 4 21 -27 30 -35 10z m338 -348 c16 -22 46 -55 68
-73 32 -27 40 -40 44 -78 5 -43 3 -48 -34 -85 -37 -37 -46 -41 -111 -47 -50
-5 -78 -3 -94 5 -13 7 -32 14 -43 16 -25 4 -51 37 -68 88 -11 34 -11 47 1 90
20 68 47 105 72 98 12 -3 22 1 26 11 5 12 20 16 59 16 50 0 54 -2 80 -41z"/>
<path d="M3252 6674 c-24 -26 -53 -65 -63 -88 -41 -91 -13 -176 59 -176 42 0
102 32 102 55 0 18 -56 34 -90 25 -40 -10 -32 -36 10 -32 26 2 31 0 20 -7 -20
-14 -63 -14 -78 1 -17 17 -15 71 3 116 22 50 84 114 106 107 23 -7 34 12 19
30 -21 25 -41 17 -88 -31z"/>
<path d="M8719 6684 c-35 -22 -65 -69 -89 -138 -25 -75 -25 -107 1 -140 27
-34 68 -34 109 0 62 53 17 126 -60 97 -37 -14 -38 -4 -9 64 30 70 56 95 92 87
26 -5 28 -4 25 18 -4 29 -33 34 -69 12z m18 -221 c6 -16 -33 -53 -55 -53 -22
0 -23 47 -1 61 18 12 51 7 56 -8z"/>
<path d="M6690 6584 c-11 -25 -20 -50 -20 -55 0 -11 -20 -11 -83 -3 -33 5 -44
10 -40 20 3 8 -1 14 -10 14 -8 0 -18 -7 -21 -16 -8 -21 -8 -26 3 -20 10 7 6
-30 -8 -67 -18 -48 -13 -88 15 -118 23 -24 25 -30 15 -65 -16 -57 4 -69 26
-16 12 27 24 42 36 42 30 0 56 19 87 62 34 46 38 82 14 117 -15 21 -15 26 2
64 10 23 25 47 33 53 8 6 11 16 7 22 -15 24 -37 11 -56 -34z m-50 -102 c0 -14
-64 -142 -71 -142 -20 0 -41 51 -35 82 11 57 29 75 70 70 20 -2 36 -7 36 -10z
m46 -66 c-5 -22 -66 -90 -73 -82 -2 1 11 33 28 71 26 54 34 64 41 50 6 -9 7
-27 4 -39z"/>
<path d="M6380 6518 c-13 -126 -6 -208 18 -208 4 0 8 47 9 105 2 87 0 105 -12
105 -8 0 -15 -1 -15 -2z"/>
<path d="M9118 6488 c-37 -4 -80 -16 -96 -25 -73 -45 -118 -140 -107 -224 7
-47 58 -149 75 -149 6 0 10 -5 10 -11 0 -13 -128 -158 -258 -291 l-104 -107
-41 16 c-126 51 -297 -92 -297 -248 0 -88 45 -145 165 -208 40 -21 109 -28
119 -12 3 4 18 11 33 14 69 15 175 161 175 242 0 47 -31 114 -61 129 -14 8
-35 23 -45 35 -19 21 -18 21 100 144 65 67 148 155 184 194 l65 72 60 -14 c99
-24 139 -13 211 59 59 58 62 64 69 123 9 77 0 118 -29 140 -12 10 -21 24 -18
31 5 16 -22 58 -47 71 -36 20 -97 27 -163 19z m112 -46 c0 -29 46 -88 79 -102
39 -16 47 -44 32 -118 -9 -49 -18 -63 -60 -103 -35 -33 -60 -48 -85 -51 -49
-6 -142 15 -174 39 -44 32 -73 94 -73 157 -1 48 3 61 32 97 18 23 53 55 78 71
37 23 56 28 108 28 54 0 63 -3 63 -18z m-636 -778 c38 -13 45 -19 35 -30 -16
-20 3 -40 46 -48 49 -10 70 -45 68 -117 -1 -70 -12 -92 -74 -150 -70 -66 -115
-70 -218 -20 -97 46 -125 83 -119 157 3 31 11 59 21 69 10 9 24 30 32 45 14
27 128 110 151 110 6 0 32 -7 58 -16z"/>
<path d="M10763 6463 c-42 -21 -45 -48 -5 -39 24 5 22 1 -23 -39 l-50 -46 -18
22 c-25 31 -18 52 21 64 35 10 44 35 12 35 -64 0 -95 -50 -66 -105 16 -30 17
-35 2 -63 -23 -44 -20 -79 9 -107 28 -29 57 -32 79 -9 21 20 20 49 -2 98 l-18
39 59 58 c44 42 58 62 55 80 -4 29 -15 31 -55 12z m-63 -219 c0 -7 3 -19 6
-28 5 -12 0 -16 -20 -16 -31 0 -44 36 -26 71 12 22 13 22 26 4 8 -10 14 -24
14 -31z"/>
<path d="M10505 6418 c3 -18 -1 -66 -9 -106 -22 -100 -21 -135 2 -130 10 2 16
12 15 23 -1 11 5 59 14 106 17 91 13 139 -13 139 -11 0 -14 -7 -9 -32z"/>
<path d="M10046 6390 c-82 -14 -136 -55 -174 -130 -35 -69 -37 -105 -11 -195
13 -46 76 -112 134 -139 44 -21 114 -17 164 9 23 11 29 12 25 2 -4 -11 18 -71
121 -332 l23 -60 -33 -35 c-41 -42 -85 -134 -85 -176 0 -62 31 -137 74 -181
23 -23 53 -44 66 -46 14 -3 50 -11 81 -17 65 -14 121 -7 160 21 15 10 31 19
36 19 14 0 59 51 83 94 18 33 21 49 15 90 -8 65 -41 124 -85 153 -19 13 -46
33 -60 45 -64 55 -155 79 -210 54 -17 -7 -22 3 -70 139 -15 44 -39 106 -54
139 -14 32 -26 67 -26 77 0 10 -5 21 -10 24 -7 4 5 24 28 49 42 45 72 125 72
188 -1 64 -70 178 -109 178 -8 0 -22 7 -31 15 -22 20 -65 25 -124 15z m64 -50
c8 -15 21 -20 50 -20 46 0 66 -21 99 -103 21 -52 22 -56 6 -110 -35 -119 -166
-196 -260 -151 -85 40 -129 112 -128 209 0 76 57 155 130 180 56 20 90 19 103
-5z m370 -806 c36 -15 39 -18 24 -29 -25 -17 -11 -45 23 -45 37 0 104 -35 127
-66 12 -17 21 -50 24 -94 l4 -67 -47 -44 c-53 -50 -79 -58 -188 -60 -69 0 -83
3 -119 26 -49 32 -81 98 -82 170 -1 70 44 148 108 193 55 36 70 38 126 16z"/>
<path d="M2940 6186 c0 -8 5 -18 10 -21 6 -4 33 -40 60 -81 l50 -75 -31 -42
c-64 -88 -72 -135 -36 -222 18 -47 32 -63 82 -98 52 -36 67 -42 110 -41 81 1
159 52 199 131 19 39 21 126 3 145 -7 7 -22 26 -32 42 -11 16 -34 35 -53 43
-23 9 -32 19 -28 29 10 26 -52 56 -104 50 -25 -3 -55 -7 -67 -8 -19 -2 -33 12
-76 77 -49 75 -87 106 -87 71z m286 -183 c19 -12 22 -18 12 -25 -10 -6 -6 -14
16 -31 15 -12 43 -36 61 -54 116 -114 -57 -297 -210 -223 -75 36 -120 130 -95
198 20 58 61 109 105 131 49 25 78 26 111 4z"/>
<path d="M6060 6048 c0 -7 11 -33 25 -56 27 -47 125 -276 125 -291 0 -5 6 -11
13 -14 7 -3 -2 -17 -26 -38 -52 -47 -74 -131 -57 -216 11 -49 21 -66 69 -116
34 -35 71 -63 96 -71 39 -14 40 -16 52 -78 6 -34 18 -144 27 -243 19 -216 59
-365 98 -365 12 0 7 22 -26 116 -19 54 -29 113 -41 254 -9 102 -21 206 -26
234 -13 68 -11 86 6 86 29 0 98 42 139 84 63 63 79 105 74 190 -3 64 -7 77
-36 114 -27 33 -42 43 -75 49 -24 3 -50 16 -63 30 -24 26 -34 29 -34 10 0 -9
-15 -14 -46 -15 -25 -1 -61 -9 -80 -17 -19 -8 -32 -10 -29 -6 5 9 -76 206
-128 309 -28 56 -57 81 -57 50z m404 -397 c70 -26 95 -53 96 -103 0 -20 5 -49
10 -63 19 -51 -51 -147 -137 -186 -43 -20 -105 -20 -142 0 -25 14 -85 89 -112
140 -19 38 -20 47 -10 83 31 102 106 163 191 155 25 -3 71 -15 104 -26z"/>
<path d="M3558 6039 c-27 -15 -22 -58 12 -108 l29 -45 -39 -43 c-48 -51 -50
-75 -11 -114 43 -43 91 -38 116 12 20 38 19 67 -4 109 l-19 35 40 43 c46 51
46 72 -2 85 -19 5 -42 15 -51 23 -18 16 -47 18 -71 3z m57 -39 c3 -11 17 -23
31 -26 30 -8 30 -15 0 -43 l-24 -23 -27 41 c-28 41 -28 71 -1 71 8 0 18 -9 21
-20z m32 -198 c6 -24 -20 -72 -39 -72 -13 0 -58 40 -58 51 0 5 14 25 32 45 30
34 33 35 45 17 8 -10 16 -28 20 -41z"/>
<path d="M9218 6025 c-3 -3 0 -26 8 -51 11 -37 11 -56 -2 -127 -8 -45 -15
-121 -15 -169 0 -87 0 -88 -25 -88 -53 0 -121 -55 -148 -122 -20 -46 -20 -118
-2 -161 18 -42 106 -122 151 -137 70 -23 172 13 228 80 30 35 49 118 45 187
l-3 48 -64 31 c-57 28 -62 32 -40 38 24 6 24 7 4 21 -12 10 -30 13 -47 10 -58
-13 -68 -2 -68 83 0 42 7 120 16 173 14 84 15 103 3 140 -13 40 -28 56 -41 44z
m34 -482 c10 -9 51 -33 91 -53 l72 -37 -4 -68 c-4 -80 -23 -114 -87 -151 -59
-35 -116 -32 -184 9 -70 41 -93 82 -86 155 5 61 34 112 79 141 39 25 94 27
119 4z"/>
<path d="M5394 5709 c-177 -68 -222 -284 -81 -386 44 -31 62 -38 114 -41 50
-3 67 0 90 16 15 10 38 23 51 27 13 4 43 27 68 52 58 61 60 103 8 186 -19 31
-40 57 -45 57 -6 0 -7 4 -4 10 11 18 -26 71 -60 86 -45 19 -79 17 -141 -7z
m124 -20 c17 -6 32 -20 36 -32 7 -28 5 -29 -29 -11 -32 16 -55 12 -55 -10 0
-21 39 -46 72 -46 39 0 93 -79 91 -134 -2 -42 -38 -90 -77 -102 -12 -4 -33
-15 -48 -25 -43 -31 -107 -25 -164 14 -65 45 -86 86 -79 156 9 93 70 162 163
187 60 16 54 16 90 3z"/>
<path d="M3345 5668 c-7 -17 54 -144 89 -185 15 -18 45 -64 66 -104 l40 -72
-30 -34 c-26 -30 -30 -41 -30 -96 0 -77 22 -152 54 -184 25 -24 115 -63 149
-63 10 0 44 14 77 30 84 42 115 91 112 172 -3 69 -18 104 -70 157 -44 45 -136
71 -185 52 -47 -18 -56 -13 -88 52 -18 34 -46 80 -64 102 -40 49 -76 118 -79
154 -3 28 -33 42 -41 19z m338 -372 c9 -13 35 -30 58 -38 56 -19 81 -54 87
-121 4 -47 1 -57 -23 -85 -15 -18 -48 -44 -74 -56 l-46 -24 -62 23 c-82 29
-87 35 -103 99 -22 92 5 198 47 182 7 -3 16 2 21 10 7 12 45 29 73 33 4 1 14
-10 22 -23z"/>
<path d="M3023 5612 c-7 -19 -151 -183 -221 -250 -34 -34 -42 -46 -32 -55 9
-9 35 12 112 93 106 112 178 197 178 210 0 17 -31 19 -37 2z"/>
<path d="M4323 5342 c-24 -54 -31 -61 -51 -57 -50 12 -110 -65 -96 -123 4 -15
13 -39 20 -54 13 -24 11 -36 -16 -116 -34 -103 -36 -112 -15 -112 8 0 19 17
25 43 6 23 19 62 29 87 17 43 19 45 66 51 37 4 54 12 76 37 41 45 37 75 -19
134 l-26 28 29 60 c22 46 26 63 17 72 -9 9 -18 -3 -39 -50z m-43 -96 c0 -3
-12 -33 -27 -67 l-27 -63 -13 32 c-15 36 -5 74 24 91 18 11 43 14 43 7z m60
-61 c23 -38 17 -65 -20 -85 -27 -15 -73 -13 -67 3 37 88 51 117 58 117 4 0 17
-16 29 -35z"/>
<path d="M2580 5301 c-97 -31 -190 -140 -190 -223 0 -76 110 -171 213 -184 53
-6 61 -4 112 27 63 38 89 82 100 165 6 49 5 52 -29 82 -20 17 -36 35 -36 39
-1 4 -18 27 -38 51 -40 45 -82 59 -132 43z m91 -47 c10 -12 9 -13 -5 -8 -21 8
-47 -13 -39 -32 3 -8 12 -14 21 -14 9 0 40 -16 69 -36 43 -29 53 -42 58 -73
10 -58 -14 -105 -72 -141 -43 -28 -53 -30 -97 -24 -56 7 -124 49 -162 100 -34
44 -27 86 25 151 47 60 62 72 107 88 40 14 78 9 95 -11z"/>
<path d="M11068 5158 c4 -141 10 -168 39 -168 12 0 14 6 8 28 -4 15 -10 83
-14 152 -5 100 -9 125 -21 128 -13 2 -15 -18 -12 -140z"/>
<path d="M4066 5281 c-3 -5 -9 -54 -12 -110 -6 -86 -5 -101 8 -101 12 0 17 19
22 87 4 48 12 94 19 101 8 10 7 16 -4 23 -18 11 -26 11 -33 0z"/>
<path d="M6846 5269 c-34 -27 -33 -41 8 -87 l34 -37 -39 -33 c-47 -40 -49 -62
-9 -95 39 -33 64 -41 90 -27 29 15 35 55 16 102 -15 41 -15 41 13 74 16 18 32
42 36 54 7 22 -11 54 -26 44 -5 -3 -19 2 -31 10 -31 22 -60 20 -92 -5z m82
-30 c2 -5 10 -9 18 -9 21 0 17 -14 -10 -39 l-25 -23 -32 33 c-30 31 -31 33
-13 46 18 13 56 8 62 -8z m-9 -166 c6 -20 8 -40 5 -45 -9 -14 -41 -9 -65 12
l-24 19 30 25 c17 14 33 25 37 26 4 0 12 -16 17 -37z"/>
<path d="M10848 5269 c-41 -21 -51 -49 -18 -49 11 0 20 4 20 8 0 12 46 32 54
25 25 -25 -41 -165 -87 -184 -16 -7 -38 -26 -48 -43 -39 -64 -13 -76 42 -20
36 38 52 40 117 13 34 -14 61 -6 70 21 3 9 -2 11 -20 7 -20 -5 -73 10 -96 29
-2 1 10 26 27 56 32 56 39 105 21 139 -13 24 -35 24 -82 -2z"/>
<path d="M6656 5213 c-3 -10 -8 -63 -11 -118 -7 -95 2 -155 22 -155 5 0 9 56
10 125 1 73 6 131 12 139 6 7 8 16 4 19 -12 13 -32 7 -37 -10z"/>
<path d="M5300 5209 c-35 -14 -60 -39 -60 -60 0 -10 12 -31 26 -48 l26 -31
-21 -26 c-26 -34 -27 -68 -1 -94 24 -24 72 -26 90 -4 20 23 16 71 -7 103 l-21
27 34 40 c40 47 45 89 12 98 -31 8 -48 7 -78 -5z m42 -70 c-15 -21 -30 -39
-34 -39 -13 0 -40 49 -33 59 8 13 66 29 82 23 9 -3 4 -16 -15 -43z m-2 -151
c0 -21 -5 -28 -19 -28 -39 0 -48 40 -17 78 14 19 36 -12 36 -50z"/>
<path d="M8087 5199 c-28 -15 -38 -25 -34 -38 4 -17 -59 -101 -115 -155 -11
-10 -16 -22 -11 -26 8 -8 80 2 117 16 17 6 18 3 12 -42 -14 -99 -11 -137 10
-132 13 2 17 20 19 83 2 44 11 106 19 138 9 32 16 73 16 92 0 19 5 37 10 40
12 7 14 45 3 45 -5 -1 -25 -10 -46 -21z m-6 -126 c-9 -33 -16 -40 -49 -49
l-39 -10 46 59 c48 62 59 62 42 0z"/>
<path d="M9062 5088 c-19 -19 -14 -47 18 -103 l30 -53 -25 -53 c-30 -66 -31
-89 -4 -123 24 -31 52 -33 79 -6 23 23 26 85 6 141 -12 33 -11 38 11 65 14 18
23 42 23 64 0 28 -6 39 -33 58 -36 24 -86 29 -105 10z m84 -44 c29 -30 30 -45
5 -68 -19 -17 -20 -16 -45 27 -14 24 -26 49 -26 55 0 21 42 13 66 -14z m0
-201 c10 -66 -22 -109 -46 -63 -9 18 -8 31 5 66 9 24 21 44 25 44 5 0 12 -21
16 -47z"/>
<path d="M3750 4908 c0 -6 7 -19 15 -28 8 -9 33 -59 56 -110 45 -105 74 -150
95 -150 19 0 18 7 -5 39 -11 15 -38 70 -61 121 -22 52 -47 104 -55 117 -16 24
-45 31 -45 11z"/>
<path d="M2778 4834 c-34 -18 -37 -55 -8 -99 l19 -29 -24 -32 c-30 -39 -32
-84 -6 -108 20 -18 97 -26 119 -12 20 12 12 79 -12 116 l-23 35 48 45 c34 32
49 54 49 71 0 25 -2 25 -67 26 -42 1 -78 -4 -95 -13z m87 -24 c3 -5 12 -7 20
-3 24 9 7 -19 -31 -51 -37 -30 -56 -26 -70 16 -10 33 63 68 81 38z m-5 -208
c0 -21 -4 -23 -42 -20 -36 3 -44 7 -46 26 -2 15 5 34 20 49 l23 24 22 -28 c13
-15 23 -38 23 -51z"/>
<path d="M2579 4787 c0 -1 -2 -36 -4 -77 -4 -105 4 -170 21 -170 21 0 20 235
-1 244 -8 3 -15 4 -16 3z"/>
<path d="M3927 4598 c-15 -7 -33 -22 -40 -34 -7 -12 -25 -40 -42 -64 -23 -33
-30 -56 -33 -106 -4 -57 -1 -69 21 -102 14 -20 31 -49 38 -64 19 -43 99 -78
178 -78 83 0 141 27 180 83 58 86 64 146 24 226 -21 43 -34 57 -70 73 -23 10
-43 25 -43 32 0 33 -160 58 -213 34z m162 -33 c22 -6 22 -7 6 -19 -28 -20 -12
-46 28 -46 47 0 82 -31 102 -91 17 -50 17 -50 -10 -105 -39 -79 -76 -104 -157
-104 -86 0 -120 16 -174 81 -37 45 -44 61 -44 97 0 57 24 107 78 158 41 39 46
41 95 38 29 -2 63 -6 76 -9z"/>
<path d="M6514 4531 c-66 -8 -102 -28 -153 -86 -27 -32 -31 -43 -31 -96 0 -73
19 -116 70 -163 103 -93 247 -61 331 73 38 59 38 116 1 191 -38 78 -89 96
-218 81z m111 -44 c48 -13 51 -16 72 -68 12 -30 23 -63 23 -75 0 -28 -55 -109
-93 -136 -44 -32 -143 -32 -184 -2 -44 33 -67 81 -67 140 0 60 9 74 79 120 56
37 91 41 170 21z"/>
<path d="M10168 4433 c-115 -155 -130 -183 -98 -183 5 0 43 45 85 101 71 96
75 99 75 67 0 -18 -8 -73 -17 -123 -13 -70 -17 -169 -19 -449 -2 -198 -8 -391
-14 -430 -10 -68 -4 -96 18 -82 17 10 26 192 23 456 -2 227 7 417 26 519 l6
34 23 -46 c25 -48 57 -77 86 -77 25 0 23 7 -12 37 -44 36 -70 94 -83 181 -7
42 -17 77 -23 79 -6 2 -40 -36 -76 -84z"/>
<path d="M4463 4430 c-41 -24 -77 -76 -68 -98 6 -15 9 -14 27 8 63 80 78 88
78 43 0 -43 -35 -103 -105 -180 -36 -39 -65 -76 -65 -82 0 -24 30 -8 74 39 50
53 51 53 64 -19 5 -30 15 -50 34 -64 24 -18 30 -18 70 -6 32 10 44 20 46 37 4
26 -5 28 -29 7 -22 -21 -63 -11 -77 18 -7 12 -18 42 -26 66 -14 41 -13 46 5
69 29 37 53 127 40 150 -15 29 -35 32 -68 12z"/>
<path d="M4719 4428 c0 -13 -6 -84 -13 -158 -7 -74 -11 -138 -9 -142 2 -5 12
-8 21 -8 14 0 17 11 17 72 0 40 4 115 8 166 7 79 6 92 -8 92 -9 0 -15 -9 -16
-22z"/>
<path d="M7326 4439 c-3 -8 -7 -67 -10 -131 -3 -87 -1 -122 9 -135 7 -10 17
-14 21 -10 11 11 5 270 -6 281 -6 6 -11 4 -14 -5z"/>
<path d="M6948 4387 c-45 -34 -61 -67 -34 -67 9 0 16 4 16 10 0 14 71 60 93
60 10 0 21 -7 24 -17 9 -24 -44 -120 -100 -180 -31 -33 -47 -58 -43 -68 9 -23
23 -18 53 20 15 19 33 35 40 35 6 0 20 -16 32 -35 11 -19 27 -35 36 -35 21 0
88 35 104 54 25 30 1 36 -39 10 -44 -30 -71 -26 -88 11 -6 14 -16 25 -22 25
-6 0 5 29 25 63 39 71 44 106 17 130 -28 26 -66 20 -114 -16z"/>
<path d="M3592 3852 c-121 -163 -127 -172 -97 -172 8 0 38 32 67 70 28 39 52
69 54 67 2 -2 -3 -57 -11 -123 -8 -65 -19 -187 -24 -270 -6 -84 -16 -175 -22
-204 -12 -56 -10 -64 13 -55 18 7 24 46 43 300 14 196 35 361 42 335 11 -42
69 -150 80 -150 19 0 16 12 -17 82 -16 35 -36 89 -45 121 -9 31 -21 57 -28 57
-7 -1 -31 -27 -55 -58z"/>
<path d="M6854 3708 c-17 -18 -46 -60 -64 -93 -18 -33 -46 -76 -61 -96 -33
-41 -37 -62 -12 -57 9 2 37 34 62 71 l46 68 6 -41 c3 -22 0 -69 -8 -103 -13
-63 -28 -268 -37 -525 -5 -128 -4 -143 10 -140 19 3 20 11 29 295 5 179 18
333 31 377 5 16 9 15 38 -13 31 -30 66 -41 66 -22 0 5 -13 19 -29 30 -58 41
-62 57 -45 166 9 57 12 101 7 106 -5 5 -22 -4 -39 -23z m3 -60 c-3 -8 -6 -5
-6 6 -1 11 2 17 5 13 3 -3 4 -12 1 -19z"/>
<path d="M13377 3583 c-4 -3 -4 -22 -1 -42 3 -21 -5 -87 -21 -161 -25 -120
-46 -252 -41 -257 1 -1 13 -4 27 -5 17 -2 23 1 20 12 -13 48 -10 81 18 214 17
80 31 162 31 180 0 53 -14 79 -33 59z"/>
<path d="M12916 3568 c-3 -7 -7 -44 -11 -83 -3 -38 -15 -123 -26 -189 l-20
-119 22 -23 c35 -37 74 -30 132 24 65 61 -5 154 -84 112 -23 -13 -23 -15 -3
102 9 50 14 104 12 120 -3 15 0 29 6 31 12 4 0 37 -14 37 -6 0 -12 -6 -14 -12z
m86 -323 c13 -30 -5 -55 -53 -75 -37 -16 -43 -10 -35 34 12 65 66 89 88 41z"/>
<path d="M12203 3538 c-12 -19 -5 -344 8 -388 12 -38 33 -58 44 -41 3 5 -2 25
-10 45 -12 27 -16 81 -17 216 -1 99 -5 180 -9 180 -5 0 -11 -6 -16 -12z"/>
<path d="M11186 3508 c2 -13 2 -46 -2 -74 -6 -51 -7 -52 -47 -60 -58 -13 -64
-39 -7 -30 l42 7 -2 -78 c-3 -97 -3 -98 15 -83 11 9 15 33 15 86 0 70 1 75 25
84 30 11 33 30 6 30 -18 0 -19 5 -14 55 4 37 2 60 -7 70 -18 22 -30 18 -24 -7z"/>
<path d="M11337 3454 c-9 -10 12 -34 30 -34 19 0 12 34 -8 38 -8 1 -18 0 -22
-4z"/>
<path d="M10993 3365 c-17 -7 -42 -30 -56 -50 -19 -28 -26 -33 -31 -20 -3 9
-12 15 -19 12 -8 -2 -11 -21 -9 -60 2 -31 -4 -103 -14 -160 -17 -98 -15 -145
5 -133 5 3 12 18 15 33 24 99 25 101 53 101 54 0 107 95 120 213 5 49 3 58
-13 67 -14 7 -28 6 -51 -3z m37 -42 c-1 -77 -59 -206 -90 -201 -20 4 -25 62
-10 111 20 67 100 139 100 90z"/>
<path d="M10680 3323 c-69 -61 -39 -175 46 -181 33 -2 48 3 73 23 47 40 43 79
-14 138 -24 26 -51 47 -60 47 -8 0 -29 -12 -45 -27z m92 -50 c34 -32 36 -66 6
-87 -38 -27 -75 -20 -93 15 -19 35 -12 91 10 83 7 -3 16 -1 20 5 10 18 27 13
57 -16z"/>
<path d="M13104 3315 c-9 -13 -18 -42 -21 -64 -5 -34 -2 -41 19 -55 27 -17 68
-10 83 14 10 16 25 -7 25 -37 0 -14 6 -23 15 -23 20 0 19 39 -1 90 -18 45 -39
52 -48 15 -6 -24 -49 -45 -63 -31 -12 11 13 71 29 71 27 0 34 16 14 31 -27 19
-33 18 -52 -11z"/>
<path d="M13466 3309 c-18 -21 -26 -42 -26 -69 0 -50 24 -66 64 -44 16 8 30
14 32 14 2 0 4 -18 4 -40 0 -27 5 -43 15 -47 9 -3 17 -4 19 -2 7 8 -14 143
-24 153 -8 8 -18 1 -36 -22 -14 -17 -30 -32 -35 -32 -15 0 -10 44 7 69 13 18
23 22 44 17 33 -6 44 2 29 21 -20 24 -65 15 -93 -18z"/>
<path d="M14084 3321 c-38 -23 -59 -77 -49 -127 11 -63 99 -92 184 -63 30 11
39 38 10 30 -8 -2 -37 -6 -66 -9 -45 -4 -55 -1 -77 21 -14 15 -26 37 -26 50 0
34 37 79 63 75 33 -5 32 -27 -2 -39 -17 -6 -31 -17 -31 -25 0 -22 36 -17 66 9
33 29 28 67 -11 85 -32 15 -24 15 -61 -7z"/>
<path d="M11510 3288 c-18 -18 -28 -25 -21 -16 14 19 7 38 -14 38 -19 0 -22
-7 -30 -77 -9 -78 7 -84 48 -19 15 24 34 50 42 56 13 11 15 5 15 -38 0 -28 4
-53 9 -56 4 -3 26 8 47 24 l39 29 10 -41 c10 -38 37 -69 49 -57 3 3 -1 22 -8
44 -8 21 -11 56 -8 77 6 49 -7 49 -64 2 l-44 -35 0 35 c0 74 -18 83 -70 34z"/>
<path d="M13696 3303 c-9 -10 -23 -27 -31 -38 -14 -20 -14 -19 -8 3 4 16 1 22
-11 22 -9 0 -16 -8 -16 -19 0 -10 -3 -39 -6 -65 -10 -67 13 -60 56 17 43 75
64 80 68 18 2 -24 -1 -47 -7 -50 -18 -12 -16 -33 4 -37 27 -4 35 12 35 77 0
79 -42 114 -84 72z"/>
<path d="M13905 3301 c-95 -59 -104 -139 -21 -190 35 -22 72 -27 95 -12 22 14
3 31 -28 25 -20 -4 -35 1 -59 21 -55 46 -38 97 46 139 17 9 32 21 32 26 0 16
-33 11 -65 -9z"/>
<path d="M11300 3249 c-14 -50 -10 -84 10 -84 10 0 15 10 16 30 0 17 4 45 8
63 6 25 4 32 -8 32 -9 0 -19 -15 -26 -41z"/>
<path d="M11806 3233 c-40 -81 -6 -105 85 -60 l46 23 12 -28 c7 -15 19 -28 27
-28 16 0 19 26 3 36 -6 3 -8 17 -5 31 11 42 -3 43 -75 7 -39 -20 -72 -34 -75
-31 -11 10 20 57 38 57 27 0 19 34 -9 38 -18 3 -27 -7 -47 -45z"/>
<path d="M5094 3149 c-3 -6 -2 -15 3 -20 13 -13 6 -163 -11 -223 -20 -66 -116
-170 -116 -123 0 22 38 75 59 82 26 8 28 35 2 35 -31 0 -101 -91 -101 -130 0
-19 33 -40 53 -34 38 12 94 74 120 132 25 56 50 232 39 275 -5 19 -37 23 -48
6z"/>
<path d="M14370 3130 c0 -13 7 -20 20 -20 24 0 27 25 4 34 -23 9 -24 8 -24
-14z"/>
<path d="M4139 3098 c0 -2 -2 -14 -4 -28 -8 -63 -27 -154 -41 -197 -37 -120
-37 -183 0 -183 10 0 12 11 9 43 -3 27 2 67 16 110 17 55 51 221 51 250 0 6
-29 11 -31 5z"/>
<path d="M3741 3058 c-4 -13 -11 -45 -15 -71 -4 -27 -18 -85 -32 -129 -33
-113 -33 -117 16 -113 71 7 122 62 105 115 -8 24 -39 34 -63 21 -19 -10 -19
-8 -1 77 10 48 19 95 19 105 0 24 -19 21 -29 -5z m32 -245 c-20 -28 -53 -43
-53 -25 0 6 12 25 26 42 19 22 30 28 37 21 8 -8 5 -19 -10 -38z"/>
<path d="M7395 2984 c-22 -15 -55 -41 -73 -58 -21 -19 -31 -24 -27 -13 4 9 4
33 1 53 -5 26 -11 34 -24 32 -9 -3 -15 -11 -13 -19 10 -32 1 -110 -15 -134
-13 -20 -14 -29 -5 -38 6 -6 11 -21 11 -34 0 -13 6 -23 14 -23 16 0 42 57 38
83 -4 24 48 23 79 -2 23 -18 23 -21 11 -66 -7 -26 -10 -50 -7 -53 12 -13 38
29 42 70 5 40 2 47 -27 71 -17 15 -40 27 -51 27 -10 0 -19 4 -19 10 0 13 89
78 118 86 26 7 30 34 4 34 -9 0 -35 -12 -57 -26z"/>
<path d="M3217 2908 c-25 -35 -70 -90 -101 -123 -31 -33 -56 -63 -56 -67 0
-22 33 -2 83 51 l57 59 -2 -49 c-3 -70 13 -80 57 -36 25 25 34 30 30 17 -8
-27 3 -60 20 -60 10 0 14 11 14 33 0 17 4 53 9 79 16 79 -2 79 -57 1 -40 -57
-41 -57 -41 -27 0 42 25 122 45 144 16 18 13 40 -5 40 -4 0 -28 -28 -53 -62z"/>
<path d="M4752 2903 c-69 -34 -97 -115 -50 -147 27 -19 89 -21 106 -4 21 21
13 29 -22 23 -93 -18 -106 53 -19 98 20 11 34 13 38 7 6 -9 -12 -20 -57 -34
-28 -9 -21 -26 11 -26 55 0 100 57 69 88 -16 16 -36 15 -76 -5z"/>
<path d="M7031 2862 c-19 -50 -20 -63 -10 -86 17 -36 53 -44 87 -19 24 18 27
28 28 77 0 48 -3 59 -23 71 -42 28 -59 20 -82 -43z m73 -8 c12 -31 6 -63 -14
-74 -26 -14 -40 -5 -40 26 0 51 39 86 54 48z"/>
<path d="M3429 2908 c0 -2 -2 -23 -4 -48 -2 -25 -5 -58 -7 -74 -5 -46 17 -41
36 7 9 25 26 53 38 63 l21 19 -6 -47 c-4 -30 -2 -50 4 -54 17 -10 29 16 29 62
0 51 -21 74 -51 56 -24 -16 -29 -15 -29 3 0 12 -28 23 -31 13z"/>
<path d="M3893 2888 c-42 -46 -57 -103 -30 -114 8 -3 25 0 40 5 24 9 27 7 37
-25 18 -54 35 -36 35 35 0 35 -4 65 -8 68 -4 3 -19 -7 -32 -21 -13 -14 -31
-26 -40 -26 -15 0 -15 4 2 33 16 25 25 31 46 29 30 -3 38 21 11 32 -27 10 -40
7 -61 -16z"/>
<path d="M4213 2888 c-27 -30 -43 -62 -43 -87 0 -25 26 -28 50 -6 15 13 16 11
17 -22 1 -34 18 -57 35 -47 5 3 6 21 2 39 -3 19 0 51 6 71 12 35 11 39 -10 56
-28 23 -32 23 -57 -4z m37 -21 c0 -2 -10 -12 -21 -23 -22 -19 -22 -19 -10 4
10 18 31 31 31 19z"/>
<path d="M4582 2890 c-40 -25 -67 -78 -58 -115 8 -30 62 -58 104 -53 42 5 36
25 -9 31 -51 7 -74 27 -64 56 10 32 46 62 66 56 23 -7 34 12 19 30 -16 19 -19
19 -58 -5z"/>
<path d="M7564 2884 c-32 -16 -74 -78 -74 -111 0 -44 35 -53 92 -24 36 18 37
18 42 -2 5 -20 32 -19 30 1 -1 7 -2 26 -2 42 -3 43 -26 47 -59 11 -29 -31 -63
-44 -69 -26 -6 17 35 75 59 84 13 5 27 5 35 -2 9 -7 16 -7 25 2 9 10 8 15 -7
27 -25 18 -33 17 -72 -2z"/>
<path d="M7825 2849 c-18 -38 -61 -79 -84 -79 -5 0 -11 23 -13 52 -3 52 -28
84 -28 35 0 -14 6 -28 13 -30 10 -4 10 -6 0 -6 -18 -1 -16 -66 2 -81 8 -6 23
-9 34 -5 20 6 20 6 1 -38 -21 -46 -41 -162 -33 -184 3 -7 9 -13 15 -13 5 0 6
5 3 10 -3 6 -2 10 3 10 5 0 12 27 14 60 3 48 16 83 61 174 31 63 57 119 57
125 0 26 -29 7 -45 -30z"/>
<path d="M4342 2868 c-19 -25 -42 -122 -31 -133 8 -7 15 -4 23 9 28 46 78 106
88 106 6 0 8 -10 4 -25 -15 -60 -18 -113 -7 -120 7 -4 15 -5 17 -2 9 9 24 140
19 159 -7 21 -44 24 -64 6 -11 -10 -14 -10 -18 0 -3 6 -8 12 -13 12 -4 0 -12
-6 -18 -12z"/>
<path d="M8150 2645 c-9 -11 -9 -42 -1 -138 13 -145 8 -197 -25 -233 -29 -31
-48 -27 -52 10 -3 22 6 36 37 66 59 56 56 80 -5 38 -39 -27 -64 -67 -64 -103
0 -71 51 -86 105 -32 43 43 51 102 36 256 -8 78 -9 117 -1 125 9 12 4 26 -10
26 -4 0 -13 -7 -20 -15z"/>
<path d="M6740 2638 c0 -7 -7 -78 -15 -158 l-16 -145 22 -17 c43 -36 143 -11
155 38 7 25 -28 99 -51 107 -21 9 -61 -8 -75 -30 -8 -14 -10 -8 -6 32 19 180
19 185 2 185 -9 0 -16 -6 -16 -12z m105 -239 c20 -37 8 -56 -40 -65 -48 -9
-58 1 -39 39 34 67 55 74 79 26z"/>
<path d="M7197 2563 c-14 -23 -37 -232 -30 -272 12 -65 37 -68 30 -5 -2 27 2
98 11 157 10 73 11 112 4 119 -5 5 -12 6 -15 1z"/>
<path d="M7055 2460 c-25 -10 -61 -49 -69 -76 -9 -31 14 -47 49 -34 31 12 45
6 45 -19 0 -11 9 -29 19 -42 18 -22 20 -22 26 -6 4 9 3 23 -3 30 -5 6 -13 27
-17 45 -8 39 -25 48 -55 32 -30 -16 -34 -7 -11 21 17 21 22 22 40 12 28 -17
31 -16 31 7 0 24 -29 40 -55 30z"/>
<path d="M7323 2408 c-38 -42 -55 -76 -48 -98 8 -24 42 -27 71 -5 26 20 32 19
36 -7 3 -21 28 -34 28 -15 0 4 0 27 0 52 0 54 -11 56 -60 15 -19 -17 -38 -30
-42 -30 -18 0 24 61 47 70 29 11 32 25 9 34 -21 8 -18 9 -41 -16z"/>
<path d="M7832 2413 c-39 -34 -72 -95 -72 -134 0 -63 58 -87 135 -55 61 26 40
47 -24 25 -46 -16 -81 -5 -81 27 0 45 59 129 78 110 4 -4 -6 -18 -22 -31 -37
-29 -27 -51 14 -30 43 22 55 50 35 81 -18 28 -35 30 -63 7z"/>
<path d="M7461 2368 c-17 -23 -31 -50 -31 -60 0 -33 26 -19 49 27 32 64 59 59
70 -14 8 -45 25 -45 29 0 2 24 -4 43 -18 62 -32 40 -62 35 -99 -15z"/>
<path d="M7637 2345 c-65 -63 -43 -135 41 -135 36 0 72 15 72 30 0 12 -33 13
-45 1 -6 -4 -24 -4 -42 1 -52 14 -43 62 19 102 27 18 29 36 4 36 -7 0 -29 -16
-49 -35z"/>
</g>
</svg>
