<?xml version="1.0" standalone="no"?>
<!DOCTYPE svg PUBLIC "-//W3C//DTD SVG 20010904//EN"
 "http://www.w3.org/TR/2001/REC-SVG-20010904/DTD/svg10.dtd">
<svg version="1.0" xmlns="http://www.w3.org/2000/svg"
 width="1618.000000pt" height="1214.000000pt" viewBox="0 0 1618.000000 1214.000000"
 preserveAspectRatio="xMidYMid meet">

<g transform="translate(0.000000,1214.000000) scale(0.100000,-0.100000)"
fill="#000000" stroke="none">
<path d="M14463 11598 c-14 -36 -26 -52 -36 -50 -19 3 -101 -51 -122 -81 -23
-33 -19 -84 9 -112 l24 -24 -34 -88 c-35 -91 -43 -148 -22 -141 7 3 16 20 21
39 15 63 59 170 71 173 6 2 38 8 71 15 100 18 128 71 74 140 -12 14 -29 31
-39 36 -17 10 -17 13 6 68 23 54 24 77 5 77 -5 0 -17 -24 -28 -52z m-71 -157
c-35 -74 -38 -78 -54 -64 -21 19 -23 52 -5 76 9 13 82 65 94 67 1 0 -15 -36
-35 -79z m95 17 c31 -35 35 -56 14 -77 -19 -19 -97 -38 -108 -27 -9 9 49 126
62 126 6 0 21 -10 32 -22z"/>
<path d="M12816 11633 c-3 -3 -6 -17 -6 -29 0 -13 -14 -63 -31 -111 -74 -213
-80 -233 -68 -254 15 -28 35 -18 31 17 -1 16 20 93 48 172 27 79 50 156 50
172 0 29 -12 45 -24 33z"/>
<path d="M12616 11556 c-29 -68 -42 -76 -118 -76 -23 0 -29 -4 -24 -15 3 -9
-4 -34 -16 -57 -28 -53 -28 -100 0 -138 l22 -30 -55 -105 c-32 -61 -55 -118
-55 -136 0 -39 22 -34 30 7 4 16 31 75 61 131 l54 103 39 0 c32 0 46 7 83 45
52 52 53 74 2 138 l-31 38 23 57 c13 31 31 64 41 72 20 17 15 30 -12 30 -11 0
-26 -21 -44 -64z m-66 -167 c-44 -110 -64 -132 -76 -84 -15 60 26 135 73 135
l23 0 -20 -51z m80 -4 c16 -27 19 -39 11 -54 -16 -30 -61 -61 -88 -61 l-23 0
18 38 c11 20 25 54 31 75 7 20 16 37 21 37 5 0 18 -16 30 -35z"/>
<path d="M13389 11581 c-54 -27 -126 -79 -132 -95 -12 -32 14 -25 70 18 32 25
70 48 85 51 27 7 28 7 16 -26 -11 -31 -41 -63 -185 -198 -35 -32 -63 -63 -63
-69 0 -25 35 -10 95 43 l63 55 21 -44 c22 -48 49 -69 83 -64 31 4 35 28 5 28
-28 0 -47 20 -72 72 l-17 38 46 51 c25 28 51 69 58 91 11 36 10 42 -7 54 -23
17 -22 17 -66 -5z"/>
<path d="M14695 11588 c-2 -7 -6 -30 -10 -50 -3 -21 -22 -85 -41 -143 -19 -58
-32 -109 -29 -115 12 -19 35 -10 35 13 0 13 11 57 25 98 14 41 24 82 21 92 -2
9 -1 17 3 17 11 0 33 78 26 90 -9 14 -25 12 -30 -2z"/>
<path d="M13612 11574 c-15 -30 -92 -261 -92 -278 0 -9 -5 -16 -10 -16 -7 0
-7 -6 0 -20 17 -31 40 -25 40 11 0 17 20 92 45 167 29 84 42 139 36 145 -6 6
-13 2 -19 -9z"/>
<path d="M14120 11574 c-19 -8 -48 -25 -65 -38 -16 -12 -38 -25 -47 -29 -10
-3 -18 -11 -18 -17 0 -20 41 -9 93 24 28 19 65 38 82 42 l29 7 -19 -29 c-33
-51 -149 -175 -177 -190 -16 -8 -28 -21 -28 -29 0 -17 26 -20 35 -5 10 17 31
11 69 -19 37 -30 66 -32 66 -5 0 8 -8 14 -18 14 -10 0 -29 11 -42 25 l-23 24
59 67 c80 89 104 124 104 151 0 19 -5 23 -32 23 -18 -1 -49 -8 -68 -16z"/>
<path d="M14843 11530 c-37 -22 -51 -60 -35 -95 10 -21 8 -26 -23 -45 -19 -12
-46 -35 -60 -52 -68 -80 45 -157 142 -97 57 35 68 89 29 136 l-25 29 29 18
c52 30 90 67 90 87 0 24 -29 37 -41 18 -7 -11 -9 -11 -9 4 0 24 -56 23 -97 -3z
m115 -26 c5 -3 -100 -74 -110 -74 -4 0 -10 9 -13 21 -8 24 19 59 46 59 10 0
21 5 24 10 5 8 35 0 53 -16z m-75 -180 c0 -56 -98 -98 -137 -58 -9 8 -16 18
-16 20 0 19 28 50 68 75 46 29 47 29 65 10 11 -10 20 -32 20 -47z"/>
<path d="M3902 11337 c-12 -7 -28 -22 -36 -33 -20 -28 -44 -117 -51 -189 -11
-104 -14 -114 -41 -117 -32 -4 -32 -22 1 -26 24 -3 25 -6 25 -78 0 -79 11
-114 35 -114 17 0 20 26 5 35 -5 3 -10 42 -10 85 l0 79 38 10 c20 6 44 11 52
11 25 0 63 31 52 42 -6 6 -16 6 -28 0 -11 -5 -39 -13 -63 -17 l-44 -7 6 68
c10 114 27 175 57 206 32 32 60 35 96 12 16 -11 28 -14 35 -7 37 37 -72 71
-129 40z"/>
<path d="M10863 11299 c-10 -17 -57 -62 -105 -100 -49 -39 -88 -75 -88 -80 0
-22 33 -4 112 60 86 71 118 108 118 136 0 25 -18 17 -37 -16z"/>
<path d="M12850 11306 c0 -9 7 -16 16 -16 17 0 14 22 -4 28 -7 2 -12 -3 -12
-12z"/>
<path d="M13667 11293 c-11 -10 -8 -43 3 -43 12 0 31 35 23 44 -8 8 -18 8 -26
-1z"/>
<path d="M3040 11227 c0 -9 6 -17 12 -19 18 -6 -2 -98 -53 -246 -26 -77 -39
-131 -37 -157 3 -37 5 -40 43 -48 39 -8 201 -2 230 9 8 4 15 13 15 21 0 11 -8
13 -27 9 -67 -13 -146 -18 -188 -12 -58 9 -58 13 1 191 55 168 64 258 27 263
-15 2 -23 -2 -23 -11z"/>
<path d="M8649 11158 c-1 -59 -7 -119 -13 -125 -1 -2 -30 -6 -64 -9 -44 -5
-66 -3 -77 6 -13 10 -18 11 -28 1 -9 -10 -8 -16 8 -28 15 -11 37 -14 93 -10
l72 5 0 -64 c0 -70 12 -104 35 -104 17 0 20 26 5 35 -12 7 -14 132 -2 138 4 3
33 8 65 12 l57 7 0 -80 c0 -83 13 -113 34 -78 6 10 24 39 39 64 l29 46 18 -54
c20 -59 56 -98 74 -80 7 7 3 16 -12 30 -12 11 -29 45 -37 75 -9 30 -21 57 -26
61 -13 7 -46 -21 -71 -61 -19 -30 -19 -30 -12 124 7 145 6 153 -11 150 -16 -4
-18 -13 -16 -76 3 -82 -2 -87 -85 -98 l-49 -7 6 84 c6 91 5 98 -17 98 -11 0
-14 -15 -15 -62z"/>
<path d="M10176 11213 c-18 -5 -18 -12 -12 -113 l6 -107 -25 0 c-47 0 -115
-68 -115 -115 0 -24 39 -48 78 -48 81 0 98 42 88 218 -6 110 -4 126 10 137 10
6 14 17 10 23 -8 13 -9 13 -40 5z m-9 -289 c-8 -46 -23 -64 -56 -64 -46 0 -55
13 -37 48 18 36 41 51 75 52 22 0 23 -3 18 -36z"/>
<path d="M5056 11202 c-3 -5 8 -36 25 -69 25 -48 31 -73 32 -130 2 -77 -11
-105 -66 -147 -22 -17 -30 -18 -53 -7 -22 9 -25 16 -19 38 9 37 53 91 77 95
35 5 34 28 0 28 -38 0 -99 -66 -108 -118 -6 -31 -3 -39 20 -59 35 -29 64 -29
105 1 40 30 54 50 70 98 15 46 0 162 -27 211 -9 18 -17 39 -17 47 0 17 -30 26
-39 12z"/>
<path d="M9317 11193 c-11 -17 -38 -185 -33 -199 4 -11 -9 -14 -69 -14 -41 0
-77 -5 -80 -11 -11 -16 -4 -18 77 -21 88 -3 88 -3 88 -100 0 -46 3 -58 16 -58
13 0 15 12 12 75 l-3 75 50 1 c58 1 64 2 88 13 37 17 13 25 -61 19 -76 -6 -79
-5 -85 17 -3 13 1 60 9 104 9 45 16 85 17 90 3 12 -20 19 -26 9z"/>
<path d="M7387 11154 c-3 -3 4 -24 15 -45 26 -50 35 -157 18 -199 -24 -58
-110 -107 -110 -63 0 9 11 31 25 49 18 23 30 31 45 27 14 -4 20 0 20 11 0 30
-50 19 -86 -20 -52 -54 -43 -114 16 -114 43 0 86 35 114 93 26 51 26 57 16
122 -6 37 -16 77 -21 88 -8 14 -8 22 1 27 7 4 9 13 6 19 -8 12 -48 15 -59 5z"/>
<path d="M2450 11115 c-12 -23 -19 -25 -83 -25 -43 0 -82 6 -104 16 -24 12
-37 14 -45 6 -19 -19 0 -41 39 -48 39 -6 113 -48 113 -63 0 -10 -76 -98 -112
-129 -58 -50 -19 -66 47 -20 111 78 129 87 143 75 8 -6 25 -35 38 -64 12 -29
27 -53 33 -53 15 0 24 20 14 33 -13 17 -33 89 -33 118 0 27 89 99 122 99 13 0
18 6 16 17 -3 15 -13 17 -75 15 -68 -4 -72 -3 -75 19 -4 32 -22 34 -38 4z
m-45 -65 c-3 -5 -12 -10 -20 -10 -8 0 -17 5 -20 10 -4 6 5 10 20 10 15 0 24
-4 20 -10z m55 -31 c0 -20 -27 -33 -36 -18 -3 6 -1 22 7 35 13 26 29 16 29
-17z m76 32 c-10 -16 -46 -20 -46 -5 0 8 10 14 26 14 14 0 23 -4 20 -9z m-126
-75 c0 -2 -7 -7 -16 -10 -8 -3 -12 -2 -9 4 6 10 25 14 25 6z"/>
<path d="M10951 11123 c-8 -17 -20 -58 -35 -125 -5 -21 -12 -28 -29 -28 -30 0
-62 -24 -53 -39 5 -8 13 -8 26 -1 33 18 40 11 40 -35 0 -85 51 -145 124 -145
46 0 94 26 78 42 -6 6 -17 6 -30 -1 -50 -27 -109 -5 -131 47 -16 39 -11 106 9
109 70 9 90 15 90 30 0 13 -8 14 -46 8 l-47 -7 8 49 c4 26 11 56 16 65 12 22
11 48 -1 48 -5 0 -13 -8 -19 -17z"/>
<path d="M6920 10999 c-48 -50 -49 -50 -47 -23 2 23 -2 29 -18 29 -16 0 -19
-6 -17 -26 1 -15 -11 -57 -28 -94 -51 -113 -13 -107 65 10 18 28 45 61 60 75
l28 25 -7 -25 c-3 -14 -13 -49 -21 -79 -17 -61 -11 -97 16 -112 33 -17 119 35
96 58 -4 3 -18 -2 -31 -11 -60 -39 -72 -2 -36 112 39 124 19 144 -60 61z"/>
<path d="M4568 11005 c-37 -25 -38 -25 -38 -5 0 37 -34 20 -37 -19 -2 -18 -12
-53 -23 -78 -39 -88 -12 -103 37 -20 32 53 89 115 98 105 3 -2 -4 -30 -15 -62
-22 -64 -18 -111 11 -126 25 -14 39 -12 39 5 0 8 -5 15 -10 15 -24 0 -27 45
-8 100 21 62 20 103 -2 108 -8 1 -32 -9 -52 -23z"/>
<path d="M6001 10998 c-17 -27 -16 -31 4 -34 15 -2 35 24 35 45 0 19 -25 12
-39 -11z"/>
<path d="M4791 10989 c-11 -12 -25 -34 -31 -50 -30 -71 63 -109 129 -53 38 31
40 62 6 98 -30 32 -76 35 -104 5z m81 -26 c10 -9 18 -22 18 -29 0 -19 -41 -44
-72 -44 -22 0 -28 5 -28 23 0 29 27 67 47 67 9 0 25 -7 35 -17z"/>
<path d="M5270 10974 c-63 -57 -70 -134 -18 -178 19 -15 34 -18 94 -13 72 5
134 28 134 48 0 11 -6 11 -85 -10 -96 -25 -145 -7 -145 53 0 29 4 33 43 43 24
7 54 20 67 31 19 16 21 22 11 40 -18 33 -55 28 -101 -14z m56 -9 c-11 -8 -25
-15 -30 -15 -6 0 -2 7 8 15 11 8 25 15 30 15 6 0 2 -7 -8 -15z"/>
<path d="M7812 10987 c-20 -21 -20 -25 -7 -52 9 -17 30 -43 48 -58 27 -23 30
-29 17 -38 -19 -12 -81 -4 -91 13 -11 18 -32 -4 -23 -25 7 -20 82 -33 120 -20
54 18 54 38 1 89 -51 49 -57 75 -18 84 36 8 39 30 4 30 -18 0 -38 -9 -51 -23z"/>
<path d="M3327 10989 c-9 -5 -24 -24 -33 -42 -9 -18 -20 -34 -25 -37 -15 -10
13 -90 39 -111 32 -24 117 -24 117 1 0 11 -10 14 -41 12 -33 -3 -46 1 -63 19
-26 29 -28 59 -3 52 10 -2 30 6 45 18 23 17 28 28 25 58 -3 39 -26 51 -61 30z
m33 -39 c0 -18 -36 -47 -46 -37 -4 4 34 57 42 57 2 0 4 -9 4 -20z"/>
<path d="M7590 10964 c-31 -28 -40 -44 -40 -69 0 -37 38 -82 77 -91 33 -9 105
8 111 24 3 11 -7 12 -49 7 -46 -6 -58 -4 -82 15 -34 27 -36 60 -3 60 33 0 76
37 76 66 0 37 -42 32 -90 -12z"/>
<path d="M10340 10991 c0 -6 -11 -11 -24 -11 -31 0 -51 -20 -66 -65 -16 -49
-6 -83 27 -91 35 -9 72 5 96 38 19 25 19 30 5 79 -8 29 -20 55 -26 57 -7 2
-12 -1 -12 -7z m10 -66 c11 -30 4 -52 -21 -65 -48 -26 -68 -2 -45 54 18 44 51
49 66 11z"/>
<path d="M3575 10975 c-39 -20 -75 -64 -75 -92 0 -33 41 -40 85 -14 l35 20 0
-32 c0 -40 19 -69 49 -74 27 -4 27 18 0 35 -22 14 -23 45 -3 110 9 31 -8 28
-67 -13 -52 -36 -69 -42 -69 -26 0 13 55 58 80 66 22 7 28 35 8 35 -7 0 -26
-7 -43 -15z"/>
<path d="M7118 10982 c0 -4 -2 -11 -3 -17 0 -5 -9 -25 -19 -43 -23 -44 -17
-74 17 -90 31 -15 54 -10 85 19 30 27 28 52 -8 92 -28 32 -68 54 -72 39z m63
-74 c14 -26 -5 -48 -42 -48 -34 0 -35 7 -12 54 17 38 32 36 54 -6z"/>
<path d="M9031 10961 c-20 -20 -26 -44 -21 -81 3 -24 31 -40 71 -40 27 0 41
-6 52 -22 11 -17 18 -20 27 -12 9 9 8 20 -4 48 -14 33 -18 36 -36 26 -12 -6
-33 -10 -48 -8 -21 2 -28 9 -30 29 -3 29 12 46 48 51 36 4 31 22 -7 26 -22 2
-38 -3 -52 -17z"/>
<path d="M10467 10907 c-10 -28 -20 -60 -24 -69 -10 -33 22 -19 65 27 l42 46
11 -28 c16 -43 49 -73 81 -73 38 0 35 17 -7 34 -29 12 -37 23 -47 60 -14 51
-30 57 -64 25 l-21 -20 4 25 c10 48 -21 28 -40 -27z"/>
<path d="M6034 10834 c-23 -34 -4 -56 20 -23 9 13 16 29 16 36 0 21 -18 15
-36 -13z"/>
<path d="M1726 10775 c-14 -14 -14 -19 -2 -36 8 -11 12 -29 9 -40 -3 -12 0
-19 8 -19 11 0 11 -2 1 -9 -9 -5 -15 -53 -19 -165 -6 -152 -5 -158 13 -154 13
2 28 27 49 77 l30 74 6 -49 c7 -59 17 -84 33 -84 22 0 25 12 9 37 -12 18 -14
38 -10 82 5 42 3 63 -8 77 -12 17 -15 17 -29 4 -8 -8 -26 -44 -40 -80 l-26
-65 7 130 c12 209 5 256 -31 220z"/>
<path d="M5575 10711 c-3 -5 4 -27 14 -48 32 -61 47 -170 31 -227 -15 -53 -40
-76 -85 -76 -43 0 -59 13 -47 36 19 36 52 57 89 58 44 2 55 22 18 32 -29 7
-94 -18 -120 -46 -8 -9 -18 -30 -21 -47 -8 -38 23 -63 78 -63 67 0 89 17 119
95 l12 30 9 -45 c16 -85 19 -91 30 -88 7 3 24 40 38 84 l27 79 47 -2 c32 -1
46 3 46 12 0 16 -22 22 -75 21 -36 -1 -40 -4 -53 -41 -8 -22 -17 -47 -20 -55
-3 -10 -7 -4 -11 15 -5 20 -12 30 -24 29 -13 -1 -17 6 -17 32 0 48 -19 132
-41 182 -19 41 -32 51 -44 33z"/>
<path d="M4910 10613 c-1 -37 -7 -97 -15 -133 -18 -83 -18 -89 0 -96 9 -4 34
11 61 35 26 23 50 41 54 41 4 0 6 -19 6 -42 -1 -32 3 -43 16 -46 13 -2 16 4
15 30 -1 18 2 48 7 66 12 49 -14 51 -75 7 -28 -20 -53 -34 -55 -32 -3 2 0 27
6 54 14 64 9 175 -7 181 -10 3 -13 -15 -13 -65z"/>
<path d="M5307 10654 c-4 -4 -7 -78 -7 -165 0 -132 3 -160 16 -174 9 -9 23
-14 31 -11 8 3 17 6 19 6 2 0 4 7 4 15 0 8 -9 15 -21 15 -20 0 -20 4 -18 157
2 145 -3 177 -24 157z"/>
<path d="M2379 10598 c-1 -2 -2 -28 -3 -58 -3 -58 -22 -130 -35 -130 -5 0 -16
26 -25 58 -10 31 -19 63 -22 70 -2 6 -11 12 -20 12 -11 0 -14 -5 -10 -17 4 -9
11 -37 17 -61 20 -91 64 -129 90 -79 7 12 20 51 30 86 16 58 16 68 3 93 -13
25 -22 34 -25 26z"/>
<path d="M3372 10556 c-17 -19 -33 -44 -37 -56 -19 -59 32 -107 80 -76 30 20
45 14 45 -17 0 -28 26 -67 46 -67 18 0 18 10 -2 38 -11 17 -15 40 -12 84 3 70
-11 85 -37 40 -10 -16 -30 -37 -45 -46 -25 -14 -29 -14 -41 0 -11 13 -10 22 6
52 28 49 50 62 68 38 8 -11 19 -16 25 -12 16 10 15 22 -4 40 -25 26 -59 19
-92 -18z"/>
<path d="M5166 10582 c-2 -4 2 -16 10 -27 10 -14 17 -16 25 -8 7 7 9 19 6 27
-7 17 -32 22 -41 8z"/>
<path d="M2059 10553 c-6 -15 -12 -32 -13 -38 -1 -5 -9 -21 -18 -35 -45 -68
-11 -105 56 -61 l30 20 17 -39 c16 -34 52 -60 66 -46 3 3 -7 20 -21 37 -20 24
-26 39 -21 57 15 62 17 82 7 82 -6 0 -16 -9 -22 -20 -11 -21 -90 -83 -97 -76
-2 2 8 26 22 54 14 27 25 57 25 65 0 29 -20 29 -31 0z"/>
<path d="M2535 10546 c-24 -24 -55 -83 -55 -105 0 -5 11 -23 25 -40 30 -34
105 -52 137 -32 10 6 24 11 32 11 7 0 20 7 27 16 12 15 9 16 -31 8 -96 -18
-150 -5 -150 37 0 12 7 19 20 19 30 0 92 59 88 84 -5 33 -61 34 -93 2z m40
-31 c-39 -32 -55 -32 -25 0 13 14 31 25 39 25 11 -1 6 -9 -14 -25z"/>
<path d="M3925 10550 c-4 -6 -4 -14 -1 -18 8 -13 -50 -176 -107 -297 -40 -85
-51 -121 -52 -160 0 -38 4 -50 15 -50 11 0 14 9 12 38 -3 28 9 64 49 150 54
117 119 290 119 318 0 19 -26 33 -35 19z"/>
<path d="M3600 10508 c-31 -43 -32 -43 -28 -13 2 21 -1 30 -12 30 -17 0 -27
-38 -29 -112 -1 -72 18 -69 54 7 16 33 36 67 46 76 15 13 18 10 38 -35 11 -27
21 -59 21 -70 0 -12 7 -21 15 -21 10 0 15 10 15 28 0 37 -56 152 -74 152 -8 0
-29 -19 -46 -42z"/>
<path d="M4639 10518 c-95 -51 -124 -111 -76 -157 40 -37 177 -38 177 -1 0 16
-50 11 -57 -6 -3 -9 -9 -12 -12 -7 -3 5 -24 13 -45 18 -46 12 -66 36 -50 63
20 32 106 84 130 78 26 -7 42 10 25 27 -19 19 -37 16 -92 -15z"/>
<path d="M3778 10495 c-7 -7 35 -122 50 -137 22 -22 35 5 18 38 -8 16 -21 46
-30 67 -15 35 -26 44 -38 32z"/>
<path d="M6227 10468 c-13 -18 -31 -44 -40 -56 l-15 -24 1 34 c2 27 -2 33 -18
33 -16 0 -20 -7 -21 -35 -1 -63 -3 -65 -49 -78 -69 -18 -139 -16 -158 6 -21
23 -21 32 -2 32 28 0 96 33 106 51 12 23 -4 59 -27 59 -30 0 -94 -41 -109 -70
-22 -42 -19 -68 11 -95 23 -21 37 -25 90 -25 34 0 75 5 90 10 19 8 30 8 38 0
20 -20 32 -9 86 78 l55 87 6 -40 c7 -54 24 -82 59 -100 36 -19 40 -19 40 0 0
9 -11 20 -24 27 -27 12 -44 46 -48 98 -4 49 -37 53 -71 8z m-232 -28 c-8 -13
-56 -33 -63 -26 -2 3 11 14 29 25 34 21 46 21 34 1z"/>
<path d="M5144 10445 c-8 -21 8 -77 21 -73 14 4 11 81 -3 86 -7 2 -15 -4 -18
-13z"/>
<path d="M4098 9905 c-34 -19 -64 -85 -73 -158 -6 -52 -9 -58 -28 -55 -14 2
-22 -2 -22 -12 0 -8 10 -16 21 -18 19 -3 23 -12 29 -70 9 -92 15 -112 32 -112
11 0 14 9 9 38 -19 133 -19 142 3 142 26 0 71 20 71 32 0 5 -20 6 -46 2 l-45
-6 7 53 c9 72 27 114 58 134 21 14 29 15 41 5 21 -17 38 -4 25 21 -13 22 -44
24 -82 4z"/>
<path d="M4744 9889 c-3 -6 -1 -21 6 -34 15 -28 5 -135 -13 -136 -92 -6 -127
-14 -127 -29 0 -6 27 -10 65 -10 l65 0 -6 -92 c-5 -73 -3 -97 9 -112 20 -27
40 -13 26 18 -8 16 -8 51 -3 107 l9 84 45 3 c67 4 90 11 84 25 -3 10 -21 12
-64 9 l-59 -4 5 63 c8 84 -17 148 -42 108z"/>
<path d="M8782 9873 c-53 -26 -80 -96 -84 -214 -1 -43 -3 -47 -27 -46 -73 2
-112 -4 -118 -18 -8 -22 -4 -23 57 -15 84 11 92 6 84 -49 -8 -56 -27 -95 -56
-115 -18 -13 -20 -18 -10 -28 30 -30 86 51 97 138 l6 53 46 -6 c37 -5 45 -3
41 8 -3 8 -16 15 -29 15 -51 3 -59 12 -59 73 0 108 37 180 95 184 22 1 32 -4
40 -20 11 -26 35 -31 35 -8 0 22 -45 65 -67 65 -10 0 -33 -8 -51 -17z"/>
<path d="M8409 9815 c-21 -44 -20 -75 1 -75 5 0 10 6 10 14 0 7 7 27 15 42 17
34 19 50 5 59 -5 3 -19 -15 -31 -40z"/>
<path d="M10195 9800 c-18 -55 -17 -95 4 -95 8 0 15 15 17 43 2 24 9 52 14 62
14 26 12 40 -4 40 -8 0 -21 -21 -31 -50z"/>
<path d="M9849 9813 c-10 -25 -49 -147 -68 -212 -7 -23 -38 -36 -121 -50 -10
-2 -5 -26 5 -25 6 1 31 5 58 8 l47 7 0 -43 c0 -77 24 -90 140 -76 88 10 120
21 120 39 0 7 -14 8 -42 2 -24 -4 -74 -8 -113 -8 l-70 0 -3 39 c-3 38 7 60 31
62 7 0 36 2 65 2 41 2 52 5 52 18 0 14 -10 16 -70 12 l-70 -5 7 26 c3 14 19
64 35 111 16 47 31 93 34 103 11 29 -25 20 -37 -10z"/>
<path d="M3196 9818 c-3 -7 -7 -31 -10 -52 -3 -22 -11 -43 -18 -48 -7 -5 -41
-7 -76 -5 -34 3 -65 1 -68 -4 -8 -14 42 -29 97 -29 l51 0 -9 -32 c-15 -61 -9
-146 14 -176 17 -23 28 -27 68 -27 34 0 51 5 59 17 13 22 1 35 -18 19 -8 -7
-30 -11 -48 -9 -29 3 -35 8 -46 43 -19 59 1 173 31 179 85 18 101 23 105 34 3
10 -9 12 -56 6 l-60 -6 8 43 c5 24 6 47 4 51 -8 12 -24 9 -28 -4z"/>
<path d="M6447 9794 c-13 -13 -7 -24 14 -24 11 0 19 5 17 12 -5 14 -22 21 -31
12z"/>
<path d="M6656 9703 c-4 -5 -28 -15 -53 -23 -60 -20 -77 -45 -44 -68 78 -55
107 -109 54 -100 -16 3 -36 9 -45 13 -13 5 -18 3 -18 -9 0 -22 35 -38 78 -34
34 3 37 6 40 37 3 28 -3 39 -43 77 l-46 44 26 10 c15 6 32 10 39 10 20 0 41
29 29 41 -5 5 -13 6 -17 2z"/>
<path d="M2706 9643 c13 -83 11 -160 -3 -174 -10 -10 -15 -6 -24 19 -6 18 -15
29 -20 26 -15 -9 -10 -51 7 -68 49 -49 90 16 80 126 -3 36 -9 73 -12 82 -4 12
0 16 15 16 12 0 21 6 21 15 0 11 -11 15 -36 15 l-36 0 8 -57z"/>
<path d="M5020 9689 c-48 -9 -90 -46 -90 -79 0 -10 -4 -22 -10 -25 -15 -9 -5
-90 11 -90 9 0 18 23 25 69 12 74 20 83 77 92 20 4 40 11 43 16 11 18 -11 25
-56 17z"/>
<path d="M2891 9664 c-30 -22 -61 -89 -61 -136 0 -53 30 -78 92 -78 49 0 108
22 108 40 0 13 -37 13 -45 0 -9 -14 -99 -12 -113 2 -17 17 -16 82 2 75 23 -9
106 49 106 74 0 14 -31 39 -48 39 -10 0 -28 -7 -41 -16z m49 -24 c0 -12 -49
-45 -56 -37 -7 7 32 47 46 47 6 0 10 -4 10 -10z"/>
<path d="M5655 9671 c-40 -10 -75 -29 -75 -42 0 -17 21 -51 51 -87 35 -40 37
-62 6 -62 -26 0 -50 16 -64 43 -8 16 -11 16 -21 4 -29 -35 74 -100 119 -76 30
16 23 61 -16 110 -51 65 -45 85 27 80 32 -1 38 1 38 19 0 21 -12 23 -65 11z"/>
<path d="M5373 9655 c-46 -20 -65 -54 -57 -103 9 -56 44 -87 97 -87 50 0 107
22 107 41 0 17 -1 17 -61 -2 -64 -21 -94 -10 -108 42 -13 45 -2 68 39 82 41
15 47 -2 10 -29 -34 -26 -38 -39 -12 -39 22 1 45 19 60 47 15 28 15 28 -4 47
-19 19 -29 19 -71 1z"/>
<path d="M9017 9656 c-18 -19 -33 -154 -18 -169 16 -16 19 -8 28 73 l8 75 63
-2 c62 -3 79 7 43 27 -29 15 -107 12 -124 -4z"/>
<path d="M1913 9654 c-21 -9 -83 -100 -83 -122 0 -39 46 -33 107 14 l33 25 0
-45 c0 -24 3 -52 6 -61 8 -21 59 -46 78 -39 24 9 19 34 -7 34 -33 0 -47 18
-47 60 0 52 10 79 26 73 26 -10 14 26 -13 41 -34 16 -83 27 -100 20z m67 -38
c0 -3 -59 -45 -97 -69 -22 -13 -14 10 13 42 18 22 35 31 55 31 16 0 29 -2 29
-4z"/>
<path d="M6398 9655 c-3 -3 -4 -38 -2 -78 2 -39 4 -75 4 -79 0 -16 28 -7 32
10 14 52 -13 167 -34 147z"/>
<path d="M3875 9640 c-3 -5 -15 -10 -25 -10 -22 0 -70 -54 -70 -79 0 -30 33
-51 79 -51 77 0 93 20 68 90 -20 58 -37 74 -52 50z m23 -62 c15 -40 5 -50 -44
-46 -52 4 -57 30 -12 58 18 11 35 20 38 20 3 0 11 -14 18 -32z"/>
<path d="M5170 9634 c-31 -19 -60 -67 -60 -99 0 -32 29 -64 68 -75 26 -7 34
-6 39 6 5 13 7 13 14 2 6 -10 13 -10 26 -2 34 21 24 31 -27 26 -39 -3 -56 0
-71 13 -26 24 -24 31 9 38 34 8 92 43 92 57 0 14 -38 50 -52 50 -7 0 -24 -8
-38 -16z m45 -24 c3 -5 -8 -16 -25 -25 -35 -18 -41 -4 -8 19 26 19 25 19 33 6z"/>
<path d="M9423 9640 c-13 -5 -23 -12 -23 -14 0 -22 30 -60 69 -88 l46 -33 -88
-3 c-64 -2 -87 -6 -84 -15 2 -8 33 -12 98 -12 88 0 94 1 97 21 2 15 -11 33
-47 64 -28 23 -51 46 -51 51 0 5 13 9 29 9 17 0 33 5 36 11 5 7 11 5 18 -4 18
-23 57 -32 57 -13 0 8 -5 18 -11 22 -19 11 -123 14 -146 4z"/>
<path d="M7598 9604 c-49 -41 -77 -74 -78 -91 -1 -40 71 -55 137 -28 45 19 42
19 53 -10 6 -15 17 -25 30 -25 24 0 26 22 5 40 -8 7 -15 19 -15 27 0 24 -26
25 -66 4 -40 -21 -99 -28 -108 -12 -6 9 87 101 102 101 4 0 17 -7 28 -15 21
-16 54 -20 54 -6 0 12 -63 51 -83 51 -8 0 -35 -16 -59 -36z"/>
<path d="M9204 9606 c-36 -16 -74 -65 -74 -94 0 -31 38 -52 91 -52 57 0 79 7
79 26 0 10 -10 12 -44 8 -53 -8 -96 1 -96 19 0 28 83 87 95 68 3 -5 -13 -16
-35 -25 -22 -9 -40 -20 -40 -26 0 -17 43 -11 78 10 36 22 42 54 13 70 -25 13
-29 12 -67 -4z"/>
<path d="M8870 9563 c-26 -10 -50 -35 -50 -54 0 -26 39 -49 81 -49 48 0 67 22
46 52 -43 60 -46 62 -77 51z m50 -64 c0 -10 -57 -5 -67 5 -4 3 2 13 13 20 16
13 21 12 37 -1 9 -9 17 -20 17 -24z"/>
<path d="M5735 8711 c-22 -10 -56 -35 -74 -55 -53 -55 -48 -85 39 -245 56
-104 56 -148 -3 -206 -64 -65 -145 -77 -207 -32 l-25 18 34 28 c21 18 30 31
23 35 -16 10 -92 -43 -92 -64 0 -45 104 -89 175 -74 54 12 102 42 135 86 29
39 31 48 28 103 -3 50 -12 74 -52 143 -30 51 -50 100 -53 126 -5 41 -3 45 39
79 32 26 59 39 92 43 25 4 46 4 46 0 0 -4 -8 -23 -19 -44 -61 -121 -36 -201
37 -118 39 45 45 67 37 131 -6 49 -8 53 -37 59 -50 10 -81 7 -123 -13z m113
-139 c-31 -51 -37 -18 -7 45 22 46 23 47 27 20 2 -17 -6 -42 -20 -65z"/>
<path d="M7804 8628 c-93 -3 -229 -13 -302 -22 -74 -9 -160 -16 -193 -16 -48
0 -59 -3 -59 -16 0 -15 12 -16 103 -11 56 3 169 13 251 22 107 12 213 15 373
13 194 -3 223 -1 221 12 -4 20 -164 27 -394 18z"/>
<path d="M14455 8621 c-43 -27 -75 -64 -144 -168 -54 -82 -65 -93 -91 -93 -40
0 -83 -18 -74 -31 4 -7 22 -9 51 -4 l44 6 -35 -68 c-42 -84 -56 -143 -33 -143
9 0 18 13 22 33 4 17 25 67 46 110 l39 77 65 0 c51 0 65 3 65 15 0 12 -13 15
-55 15 -30 0 -55 4 -55 9 0 4 28 48 63 97 66 94 121 142 142 124 9 -7 16 -6
25 4 29 36 -25 48 -75 17z"/>
<path d="M3098 8523 c-36 -59 -80 -136 -97 -170 -19 -34 -41 -63 -52 -66 -12
-3 -17 -11 -13 -21 3 -8 -13 -45 -40 -86 -42 -65 -50 -90 -27 -90 5 0 32 38
60 85 l53 85 69 0 69 0 -6 -42 c-4 -24 -11 -54 -16 -67 -11 -29 4 -48 21 -27
6 8 16 42 22 77 6 35 11 64 12 64 1 1 15 5 31 10 43 14 48 40 7 32 -37 -8 -36
-15 -15 134 16 120 16 180 -2 186 -6 2 -41 -45 -76 -104z m45 -93 c-8 -69 -20
-128 -27 -132 -6 -4 -35 -8 -64 -8 l-53 0 17 33 c22 44 138 237 140 234 1 -1
-5 -58 -13 -127z"/>
<path d="M12906 8595 c-3 -9 -6 -27 -6 -40 0 -18 -39 -136 -75 -226 -4 -11
-31 -20 -90 -29 -47 -7 -85 -17 -85 -22 0 -17 30 -20 87 -10 32 5 59 9 61 7 1
-1 -11 -40 -27 -85 -17 -45 -28 -87 -25 -92 10 -15 30 9 44 54 7 24 22 64 32
89 17 41 24 47 56 53 20 3 51 6 69 6 34 0 51 14 32 26 -8 4 -9 3 -5 -4 4 -7 2
-12 -3 -12 -6 0 -11 5 -11 11 0 8 -17 10 -50 7 -27 -3 -50 -2 -50 2 0 4 16 50
35 102 37 99 48 168 29 175 -6 2 -14 -3 -18 -12z"/>
<path d="M6828 8573 c-3 -4 -19 -55 -37 -113 -18 -58 -48 -142 -67 -187 -19
-45 -34 -89 -34 -97 0 -27 32 -18 72 21 l38 37 0 -37 c0 -26 6 -39 19 -47 27
-14 50 -13 67 4 12 13 10 15 -18 18 -33 3 -33 3 -31 56 3 64 -10 67 -68 15
l-40 -36 26 59 c44 97 100 293 88 305 -6 6 -13 7 -15 2z"/>
<path d="M3788 8538 c-22 -6 -38 -16 -38 -25 0 -10 -6 -12 -20 -8 -14 4 -20 2
-20 -8 0 -9 -7 -13 -17 -11 -10 2 -24 0 -32 -5 -17 -11 -4 -34 15 -27 27 10
27 -42 -1 -132 -34 -111 -76 -216 -87 -220 -12 -5 -10 -50 3 -58 6 -3 14 -2
18 3 3 5 31 10 61 11 42 1 75 12 137 42 93 46 133 88 133 139 0 43 -51 95
-108 111 l-42 11 32 26 c59 47 138 127 138 139 0 7 -7 15 -16 18 -23 9 -113 5
-156 -6z m106 -49 c-16 -17 -62 -56 -102 -87 -67 -51 -72 -57 -56 -69 10 -7
35 -13 56 -13 67 0 118 -38 118 -87 0 -29 -57 -78 -130 -112 -75 -36 -119 -40
-116 -13 0 10 -5 16 -13 14 -9 -2 -11 3 -6 15 18 44 56 162 76 231 16 59 19
80 10 94 -13 20 -13 20 61 43 24 8 63 14 87 14 l45 1 -30 -31z"/>
<path d="M7677 8544 c-4 -4 -7 -15 -7 -24 0 -10 -12 -44 -26 -76 -31 -68 -74
-201 -74 -227 0 -45 25 -3 59 98 21 61 45 124 53 141 20 38 27 86 12 91 -5 2
-13 0 -17 -3z"/>
<path d="M12220 8504 c-7 -16 -16 -54 -21 -84 -6 -30 -29 -108 -51 -173 -29
-87 -37 -122 -29 -130 6 -6 13 -9 15 -6 10 9 96 291 96 313 0 13 5 38 11 55
16 44 -5 68 -21 25z"/>
<path d="M2290 8445 c-11 -25 -25 -47 -32 -50 -7 -2 -58 -6 -113 -8 -111 -5
-128 -18 -60 -46 22 -9 51 -22 64 -30 24 -13 23 -14 -35 -45 -59 -31 -76 -58
-41 -64 28 -6 88 8 82 17 -3 5 2 11 10 15 23 8 18 -3 -21 -51 -25 -30 -33 -48
-26 -55 12 -12 52 6 52 24 0 21 51 87 63 82 7 -2 29 -29 51 -60 28 -40 41 -53
49 -45 8 8 8 24 -1 56 -7 25 -12 67 -12 93 l0 48 65 32 c36 18 72 32 80 32 7
0 17 5 21 11 13 22 -13 27 -76 14 -91 -20 -88 -21 -80 25 12 67 -12 70 -40 5z
m-50 -104 c-14 -27 -30 -30 -62 -12 -40 23 -35 31 22 31 47 0 50 -1 40 -19z
m50 -82 l0 -40 -25 28 c-22 26 -23 29 -8 41 27 20 33 14 33 -29z"/>
<path d="M4156 8444 c-9 -23 -8 -24 14 -24 13 0 20 7 20 20 0 24 -25 27 -34 4z"/>
<path d="M11781 8398 c-11 -29 -2 -39 27 -32 24 7 28 24 10 42 -18 18 -28 15
-37 -10z"/>
<path d="M9095 8390 c-9 -14 1 -27 25 -33 14 -3 23 0 27 10 10 24 -38 46 -52
23z"/>
<path d="M5912 8306 c-51 -37 -82 -84 -82 -128 0 -27 5 -40 19 -48 38 -20 121
-8 121 17 0 8 5 11 13 7 8 -5 9 -4 2 4 -8 8 -21 9 -48 1 -21 -5 -47 -7 -57 -4
-38 12 -22 39 41 70 75 37 97 60 83 83 -16 25 -55 24 -92 -2z m58 -14 c0 -5
-17 -16 -37 -25 l-38 -17 30 25 c31 26 45 31 45 17z"/>
<path d="M7805 8315 c-17 -7 -38 -22 -48 -33 -10 -11 -26 -18 -36 -15 -15 4
-19 -4 -25 -48 -4 -28 -18 -74 -32 -101 -24 -47 -24 -73 -1 -65 6 2 33 50 61
107 44 90 56 107 89 124 31 15 43 16 62 8 31 -14 46 5 20 25 -23 16 -50 16
-90 -2z"/>
<path d="M4113 8308 c-5 -7 -25 -55 -43 -106 -23 -65 -30 -96 -22 -104 13 -13
32 -2 32 21 0 9 14 55 30 101 18 48 27 87 22 92 -5 5 -13 3 -19 -4z"/>
<path d="M4499 8296 c-19 -13 -46 -44 -59 -69 -20 -38 -22 -48 -11 -61 18 -21
59 -20 97 3 l31 19 -4 -22 c-5 -26 20 -51 42 -42 19 7 20 26 0 26 -18 0 -18
-1 1 56 16 48 13 65 -10 49 -7 -6 -32 -25 -56 -42 -24 -18 -52 -33 -62 -33
-19 0 -19 1 -1 31 10 17 34 44 53 60 46 38 29 59 -21 25z"/>
<path d="M6121 8285 c-17 -19 -37 -48 -46 -64 -13 -26 -13 -30 1 -42 15 -13
20 -12 87 16 13 6 17 2 17 -17 0 -24 16 -48 33 -48 5 0 6 13 2 29 -4 17 0 44
9 66 9 21 16 41 16 46 0 16 -27 9 -46 -12 -10 -12 -36 -30 -57 -41 -37 -18
-38 -19 -28 0 5 10 24 34 40 51 17 18 31 37 31 42 0 20 -30 7 -59 -26z"/>
<path d="M11105 8305 c-40 -20 -107 -122 -138 -210 -14 -38 -33 -86 -42 -107
-10 -20 -15 -43 -12 -52 14 -35 37 -13 79 74 23 49 50 92 59 95 26 9 89 77
110 117 22 43 24 69 7 86 -15 15 -26 15 -63 -3z m39 -47 c-9 -29 -35 -66 -68
-97 -29 -28 -32 -24 -13 22 8 18 12 37 10 43 -5 14 43 54 64 54 10 0 12 -6 7
-22z"/>
<path d="M13468 8297 c-46 -32 -78 -83 -78 -127 0 -51 25 -72 81 -68 37 2 44
6 42 22 -1 11 6 25 14 31 23 17 0 27 -32 15 -19 -7 -25 -15 -21 -26 5 -12 0
-15 -22 -12 -22 2 -28 9 -30 35 -3 27 0 32 27 38 40 9 81 48 81 78 0 35 -23
40 -62 14z m27 -27 c-3 -5 -16 -15 -28 -21 -21 -10 -21 -9 2 10 25 23 36 27
26 11z"/>
<path d="M4728 8287 c-39 -32 -111 -158 -97 -172 12 -12 29 8 66 79 19 37 27
46 34 35 11 -19 39 -2 57 34 24 49 -13 64 -60 24z"/>
<path d="M6342 8285 c-30 -25 -82 -116 -82 -142 0 -7 6 -13 13 -13 14 0 67 80
67 103 0 23 39 47 78 47 46 0 37 24 -10 28 -26 2 -43 -4 -66 -23z"/>
<path d="M10119 8287 c-39 -26 -86 -106 -76 -130 10 -26 66 -21 109 8 23 16
35 20 32 11 -9 -22 24 -76 46 -76 24 0 26 13 5 30 -20 16 -19 44 2 102 9 26
14 50 11 53 -3 3 -30 -19 -61 -49 -49 -50 -99 -77 -113 -63 -10 9 46 84 70 95
13 6 33 8 45 5 25 -6 30 21 5 31 -26 10 -39 7 -75 -17z"/>
<path d="M4292 8286 c-45 -25 -126 -146 -109 -163 12 -12 33 6 52 43 24 48 64
94 82 94 17 0 17 -5 -9 -78 -16 -46 -19 -65 -11 -73 13 -13 35 31 56 109 18
66 -10 97 -61 68z"/>
<path d="M6529 8285 c-14 -7 -42 -35 -62 -61 -39 -50 -48 -93 -22 -114 21 -17
132 -7 153 14 23 23 7 31 -36 17 -49 -16 -96 -11 -100 11 -5 24 75 107 112
116 17 5 30 12 29 18 -4 15 -46 15 -74 -1z"/>
<path d="M7914 8271 c-55 -39 -94 -88 -94 -116 0 -13 11 -37 24 -52 20 -23 32
-28 68 -28 63 1 98 12 98 33 0 15 -2 15 -10 2 -6 -10 -10 -11 -10 -3 0 9 -7
10 -24 3 -35 -13 -95 -1 -107 21 -20 38 64 136 108 127 13 -3 2 -12 -34 -31
-29 -15 -53 -34 -53 -42 0 -21 9 -19 72 15 65 35 75 53 48 80 -27 27 -40 25
-86 -9z"/>
<path d="M10900 8289 c-75 -10 -95 -40 -66 -97 27 -54 28 -70 6 -82 -18 -9
-25 -8 -41 6 -17 15 -19 15 -25 0 -8 -20 12 -46 37 -46 33 0 69 23 76 48 4 16
-2 41 -16 70 -22 44 -22 47 -5 59 10 7 37 13 60 13 46 0 74 8 74 20 0 12 -41
16 -100 9z"/>
<path d="M11280 8293 c-40 -15 -90 -82 -90 -121 0 -11 10 -32 22 -47 18 -24
27 -27 63 -23 40 5 102 48 88 61 -12 13 -39 7 -56 -13 -40 -47 -101 -8 -77 49
8 21 17 27 33 24 27 -5 60 27 55 53 -3 19 -16 25 -38 17z"/>
<path d="M11715 8248 c-27 -57 -31 -93 -14 -103 14 -9 20 -2 24 33 2 17 11 44
19 61 9 16 16 37 16 46 0 31 -22 13 -45 -37z"/>
<path d="M8130 8282 c-15 -5 -46 -41 -67 -76 -45 -77 36 -146 132 -114 40 14
48 34 12 31 -64 -6 -99 -4 -112 7 -18 15 -19 30 -2 30 7 0 27 13 45 29 48 44
42 110 -8 93z m-9 -65 c-13 -12 -20 -15 -16 -7 14 26 28 41 33 35 3 -3 -5 -16
-17 -28z"/>
<path d="M9173 8273 c-29 -19 -30 -56 -3 -90 26 -33 25 -55 -3 -81 -30 -28
-33 -28 -64 9 -14 16 -32 28 -39 25 -11 -4 -11 0 -2 22 7 15 15 31 20 37 14
16 9 37 -9 33 -10 -2 -26 -26 -39 -58 -16 -39 -28 -56 -43 -58 -26 -4 -27 -18
-2 -32 30 -16 41 -12 52 17 l10 27 26 -37 c33 -47 68 -49 112 -8 37 35 40 69
10 118 l-21 34 21 23 c11 12 21 25 21 29 0 12 -24 7 -47 -10z"/>
<path d="M13237 8250 l-45 -40 11 29 c11 31 4 52 -13 35 -5 -5 -27 -61 -50
-124 -23 -63 -54 -139 -71 -167 -33 -59 -36 -73 -14 -73 9 0 33 37 60 90 27
54 51 90 60 90 28 0 95 40 134 79 97 97 31 171 -72 81z m86 -7 c-10 -29 -65
-83 -105 -104 -21 -11 -38 -15 -38 -11 0 14 66 97 92 115 32 22 59 22 51 0z"/>
<path d="M4932 8246 c-16 -19 -33 -43 -37 -53 -3 -10 -22 -31 -41 -47 -48 -40
-62 -26 -46 45 13 56 11 65 -12 56 -19 -8 -32 -107 -17 -135 6 -11 22 -22 36
-24 l24 -3 -41 -70 c-54 -92 -71 -147 -54 -171 19 -25 39 -8 31 28 -6 23 3 46
43 116 27 48 66 119 87 157 21 39 47 80 58 93 14 15 18 25 10 33 -7 7 -19 -1
-41 -25z"/>
<path d="M11833 8258 c-42 -30 -60 -64 -47 -86 15 -23 66 -27 103 -8 l30 16 3
-32 c5 -50 33 -49 33 1 0 23 8 47 18 58 23 26 22 47 -1 41 -12 -3 -24 2 -31
13 -16 26 -69 24 -108 -3z m96 -17 c11 -7 7 -14 -20 -30 -73 -46 -126 -36 -69
13 32 27 64 33 89 17z"/>
<path d="M14027 8232 c-58 -59 -61 -87 -12 -107 40 -17 75 -8 99 27 30 42 15
128 -22 128 -10 0 -39 -22 -65 -48z m72 -39 c3 -32 -68 -59 -85 -32 -3 6 11
29 32 50 38 39 39 39 46 17 3 -13 6 -28 7 -35z"/>
<path d="M11453 8225 c-46 -48 -54 -78 -25 -94 30 -16 90 -23 137 -17 35 6 45
11 45 26 0 16 -4 17 -32 9 -42 -12 -80 -11 -113 1 l-26 10 23 31 c13 17 36 37
51 45 15 8 25 19 22 24 -13 20 -40 8 -82 -35z"/>
<path d="M13088 8257 c-8 -8 -29 -40 -48 -71 -19 -31 -37 -56 -41 -56 -9 0
-19 38 -19 73 0 20 -5 27 -20 27 -18 0 -20 -4 -14 -42 4 -24 13 -53 21 -66 14
-22 11 -28 -36 -95 -75 -105 -99 -148 -103 -182 -4 -43 24 -40 33 4 4 18 22
54 40 80 140 199 220 324 211 333 -6 6 -15 4 -24 -5z"/>
<path d="M2070 7684 c-41 -8 -109 -19 -150 -25 -41 -6 -78 -13 -81 -15 -16
-10 -299 -54 -346 -54 -43 0 -53 -3 -53 -16 0 -15 11 -16 88 -11 48 3 157 19
242 35 85 16 200 38 255 48 55 10 137 18 183 18 56 -1 82 2 79 9 -9 28 -103
32 -217 11z"/>
<path d="M12729 7528 c-67 -210 -121 -319 -146 -294 -13 12 -22 140 -16 208 6
74 -1 118 -20 118 -17 0 -47 -49 -106 -175 -28 -60 -62 -123 -76 -141 -27 -36
-32 -54 -12 -54 24 0 35 17 106 163 39 81 73 147 74 147 1 0 2 -55 3 -123 1
-102 4 -129 20 -155 23 -41 45 -40 76 1 39 50 62 102 108 242 24 72 49 134 56
138 19 11 19 87 0 87 -10 0 -31 -53 -67 -162z"/>
<path d="M7492 7656 c-19 -24 -46 -97 -93 -245 -23 -72 -25 -75 -63 -85 -53
-15 -62 -40 -12 -31 41 8 41 9 21 -38 -8 -20 -15 -46 -15 -57 0 -11 7 -20 15
-20 8 0 15 8 15 19 0 23 37 108 51 117 6 3 8 11 6 18 -3 8 4 11 25 8 23 -3 29
-1 26 9 -2 7 -14 16 -25 19 -21 5 -21 5 6 95 33 110 66 185 81 185 7 0 10 -14
9 -34 -2 -19 0 -38 4 -43 12 -11 27 18 27 53 0 56 -44 73 -78 30z"/>
<path d="M4000 7653 c1 -10 -12 -59 -27 -110 -25 -83 -31 -92 -55 -97 -33 -7
-36 -22 -7 -31 17 -6 20 -14 18 -48 -3 -66 0 -82 11 -71 9 9 17 40 35 144 2
14 16 58 30 99 29 86 32 131 10 131 -8 0 -15 -8 -15 -17z"/>
<path d="M5756 7658 c-2 -7 -11 -47 -21 -88 -9 -41 -30 -117 -47 -168 -25 -81
-31 -92 -44 -81 -22 18 -35 -5 -32 -56 3 -38 5 -40 38 -42 46 -2 130 38 169
83 34 39 41 83 15 108 -21 21 -42 20 -82 -4 -31 -19 -33 -19 -28 -3 25 86 55
203 58 227 3 29 -18 50 -26 24z m61 -274 c9 -24 -17 -62 -66 -94 -41 -28 -81
-39 -81 -23 0 17 58 87 89 109 42 28 50 29 58 8z"/>
<path d="M7271 7635 c-40 -21 -88 -102 -111 -188 -12 -45 -27 -86 -33 -92 -13
-11 -19 -145 -6 -145 22 0 36 13 32 31 -3 10 -2 35 1 54 8 41 45 65 101 65 24
0 35 4 35 15 0 18 -70 21 -102 4 -17 -9 -19 -8 -15 8 3 10 13 44 21 75 21 75
73 143 110 143 24 1 45 18 46 37 0 11 -55 6 -79 -7z"/>
<path d="M3395 7608 c-2 -7 -9 -44 -15 -83 -11 -66 -14 -71 -46 -88 -20 -9
-32 -13 -29 -7 4 7 -3 9 -22 4 -38 -9 -44 -14 -37 -25 4 -7 25 -8 55 -4 27 4
49 3 49 -2 0 -4 -9 -39 -20 -78 -13 -45 -16 -73 -10 -79 15 -15 20 -5 44 85
l23 84 52 20 c29 11 53 23 52 28 -1 4 -1 16 -1 27 0 26 -30 26 -37 0 -5 -17
-39 -37 -48 -28 -2 2 2 35 10 72 8 38 12 73 9 77 -8 13 -24 11 -29 -3z"/>
<path d="M3561 7587 c-5 -13 -12 -37 -14 -53 -3 -16 -24 -82 -47 -147 -38
-108 -42 -137 -21 -137 5 0 28 25 51 55 23 30 45 55 49 55 4 0 5 -17 3 -38 -3
-26 1 -42 13 -52 19 -16 42 1 29 22 -5 7 -7 25 -5 40 7 71 -27 93 -72 46 -20
-22 -28 -26 -23 -13 19 45 54 166 61 204 8 46 -9 58 -24 18z"/>
<path d="M8888 7553 c-9 -27 -35 -97 -58 -157 -31 -82 -40 -120 -38 -155 2
-33 7 -46 18 -46 11 0 14 9 12 38 -4 41 11 92 69 240 42 105 46 127 26 127 -7
0 -20 -21 -29 -47z"/>
<path d="M11527 7538 c-7 -75 -38 -168 -73 -221 -25 -38 -68 -66 -81 -53 -11
11 20 60 45 71 24 11 31 55 9 55 -15 0 -59 -45 -76 -77 -16 -31 -14 -68 5 -84
23 -19 78 13 121 69 59 78 110 292 72 300 -13 2 -17 -9 -22 -60z"/>
<path d="M8726 7578 c-9 -34 -41 -128 -57 -165 -17 -40 -20 -42 -65 -45 -65
-4 -72 -28 -9 -28 40 0 46 -3 41 -17 -15 -37 -26 -107 -21 -122 6 -14 8 -13
21 3 8 11 14 29 14 40 0 12 5 38 11 59 9 33 14 37 42 37 18 0 38 4 46 9 22 14
3 31 -29 24 -17 -3 -30 -4 -30 -1 0 2 14 41 30 86 31 85 38 132 20 132 -6 0
-12 -6 -14 -12z"/>
<path d="M1884 7568 c-4 -6 -15 -43 -25 -82 -10 -39 -25 -97 -34 -129 -9 -32
-14 -65 -11 -73 10 -26 25 -14 31 24 4 20 20 78 36 127 16 50 29 100 29 112 0
26 -15 38 -26 21z"/>
<path d="M13144 7555 c-4 -10 0 -41 10 -69 9 -29 16 -76 16 -104 0 -43 -5 -57
-31 -87 -18 -20 -44 -42 -58 -49 -31 -16 -101 -30 -101 -20 0 17 43 74 60 79
24 8 27 35 4 35 -23 0 -82 -62 -90 -94 -8 -34 10 -56 44 -51 15 1 36 3 48 4
31 2 111 58 134 95 22 37 28 142 9 177 -5 11 -11 36 -13 56 -2 39 -22 56 -32
28z"/>
<path d="M8045 7550 c-10 -16 4 -30 30 -30 32 0 40 16 16 29 -25 14 -38 14
-46 1z"/>
<path d="M10882 7518 c-8 -8 -9 -15 -1 -25 9 -10 8 -13 -2 -13 -8 0 -19 -12
-26 -27 -6 -16 -27 -66 -47 -112 -20 -47 -36 -86 -36 -88 0 -12 32 2 75 32
l50 36 8 -30 c8 -31 40 -57 57 -46 17 10 11 32 -10 38 -14 4 -20 14 -20 35 0
41 -10 45 -56 22 -21 -11 -39 -20 -41 -20 -1 0 16 43 37 95 22 52 40 99 40
105 0 13 -13 13 -28 -2z"/>
<path d="M14122 7508 c3 -7 15 -15 27 -16 16 -3 22 1 19 10 -3 7 -15 15 -27
16 -16 3 -22 -1 -19 -10z"/>
<path d="M4026 7461 c-17 -3 -30 -13 -32 -24 -2 -12 3 -16 14 -13 9 3 29 8 45
12 15 3 27 12 27 20 0 15 -7 15 -54 5z"/>
<path d="M9836 7454 c-10 -9 -15 -22 -12 -29 27 -71 29 -94 9 -127 -10 -18
-31 -40 -46 -48 -24 -13 -30 -13 -54 1 -21 12 -27 22 -25 42 3 32 -23 38 -33
7 -10 -31 3 -59 35 -75 44 -23 76 -18 113 15 50 43 63 82 49 136 -16 60 -15
66 11 62 14 -2 22 2 22 12 0 22 -49 25 -69 4z"/>
<path d="M1963 7438 c-42 -31 -76 -108 -63 -144 15 -38 34 -24 45 35 6 31 20
63 34 77 21 21 30 24 63 19 23 -4 38 -3 38 4 0 32 -76 38 -117 9z"/>
<path d="M5974 7425 c-52 -52 -63 -125 -24 -160 43 -39 166 -26 196 21 22 33
11 41 -21 16 -33 -26 -101 -37 -137 -23 -42 16 -39 56 6 75 40 16 57 43 49 74
-7 30 -38 28 -69 -3z m36 -19 c0 -2 -8 -10 -17 -17 -16 -13 -17 -12 -4 4 13
16 21 21 21 13z"/>
<path d="M6945 7424 c-104 -54 -160 -186 -94 -223 32 -18 109 -8 141 19 35 28
16 34 -47 14 -62 -20 -88 -13 -93 24 -3 16 4 21 37 27 49 8 129 67 137 101 7
27 -10 54 -35 54 -9 0 -29 -7 -46 -16z m25 -59 c-30 -31 -76 -52 -88 -41 -2 3
10 20 29 37 61 57 114 61 59 4z"/>
<path d="M7582 7428 c7 -19 38 -22 38 -4 0 10 -9 16 -21 16 -12 0 -19 -5 -17
-12z"/>
<path d="M3719 7389 c-48 -52 -53 -89 -11 -89 15 0 38 7 50 16 21 15 22 14 22
-15 0 -21 5 -31 15 -31 9 0 15 9 15 24 0 13 3 38 6 55 8 38 -4 40 -54 6 -20
-14 -40 -25 -45 -25 -14 0 36 60 55 66 11 3 17 11 15 17 -8 24 -30 17 -68 -24z"/>
<path d="M4588 7410 c-35 -19 -88 -90 -88 -118 0 -7 9 -21 20 -32 30 -30 140
-25 140 6 0 11 -11 13 -53 8 -69 -8 -85 7 -57 54 21 35 74 72 103 72 9 0 17 7
17 15 0 21 -37 18 -82 -5z"/>
<path d="M5024 7402 c-59 -42 -72 -49 -57 -30 14 16 8 28 -13 28 -8 0 -17 -12
-20 -27 -4 -16 -18 -43 -31 -61 -18 -24 -22 -37 -14 -45 7 -7 18 -2 38 18 44
43 133 108 140 101 3 -3 1 -23 -5 -45 -7 -21 -12 -48 -12 -59 0 -46 82 -57
127 -17 31 27 21 31 -39 13 -54 -16 -62 -5 -44 63 14 56 8 89 -18 89 -7 0 -31
-13 -52 -28z"/>
<path d="M2137 7394 c-37 -24 -77 -77 -77 -102 0 -7 11 -24 25 -38 27 -27 79
-31 111 -7 28 21 5 35 -33 21 -28 -10 -35 -9 -52 6 -22 20 -19 36 6 36 28 0
85 33 95 56 8 17 8 27 -2 39 -17 20 -28 18 -73 -11z m33 -29 c-7 -8 -18 -15
-24 -15 -6 0 -2 7 8 15 25 19 32 19 16 0z"/>
<path d="M4760 7397 c-90 -60 -80 -159 10 -112 18 9 33 15 34 13 1 -2 6 -16
11 -32 18 -54 31 -40 31 34 0 47 -4 70 -12 70 -7 0 -14 -7 -18 -15 -6 -18 -73
-52 -82 -42 -4 3 0 17 9 30 14 22 34 33 90 51 10 3 15 10 12 16 -10 17 -50 11
-85 -13z"/>
<path d="M9990 7385 c-18 -19 -40 -35 -47 -35 -7 0 -13 -3 -14 -7 0 -5 -2 -19
-3 -33 -7 -57 27 -92 87 -91 18 1 40 2 50 2 38 1 9 24 -33 27 -52 4 -72 17
-68 46 2 13 14 23 34 28 40 10 86 53 82 76 -6 32 -50 26 -88 -13z"/>
<path d="M13493 7405 c-26 -18 -29 -49 -8 -85 8 -14 14 -32 15 -41 0 -25 -45
-33 -75 -13 -24 16 -25 15 -25 -5 0 -32 40 -47 89 -33 21 7 42 19 45 28 3 8
-4 38 -16 66 -18 42 -19 51 -7 59 8 5 20 9 27 9 18 0 10 24 -9 28 -8 1 -24 -5
-36 -13z"/>
<path d="M2317 7393 c-8 -10 -23 -37 -32 -61 -31 -76 12 -128 101 -124 46 2
92 20 113 46 10 12 8 14 -11 12 -13 -2 -33 -8 -45 -14 -12 -7 -42 -12 -67 -12
-37 0 -49 5 -61 24 -15 23 -11 61 5 51 13 -8 70 45 70 65 0 32 -48 40 -73 13z
m33 -27 c0 -3 -4 -8 -10 -11 -5 -3 -10 -1 -10 4 0 6 5 11 10 11 6 0 10 -2 10
-4z"/>
<path d="M8172 7395 c-53 -38 -90 -143 -60 -173 15 -15 74 -16 83 -2 4 6 11 8
16 5 5 -4 9 1 9 9 0 13 -8 14 -45 9 -40 -5 -45 -4 -45 14 0 13 20 33 55 57 53
37 73 65 60 86 -9 15 -48 12 -73 -5z m23 -35 c-10 -11 -21 -17 -24 -14 -3 3 3
12 13 20 28 20 32 17 11 -6z"/>
<path d="M10440 7403 c-64 -24 -124 -153 -72 -153 25 0 34 11 21 26 -7 9 -6
21 5 42 21 41 43 56 82 55 28 -1 34 3 32 15 -3 17 -41 26 -68 15z"/>
<path d="M13267 7380 c-19 -16 -40 -44 -47 -61 -11 -27 -11 -33 7 -57 22 -29
80 -49 109 -38 15 6 8 12 -33 28 -29 10 -53 22 -53 26 0 4 22 17 50 30 58 26
77 65 45 89 -27 19 -40 16 -78 -17z m44 -32 c-13 -10 -31 -18 -40 -18 -12 1
-9 7 12 25 16 14 33 22 39 19 7 -5 3 -14 -11 -26z"/>
<path d="M11114 7381 c-40 -25 -84 -82 -84 -109 0 -38 38 -62 96 -62 29 0 59
3 68 6 33 13 14 22 -46 23 -80 0 -108 22 -50 39 51 16 84 52 80 88 -4 36 -24
40 -64 15z m36 -30 c0 -11 -50 -44 -57 -38 -6 7 34 47 47 47 6 0 10 -4 10 -9z"/>
<path d="M14073 7388 c-23 -31 -54 -121 -45 -130 13 -13 32 -2 32 17 0 8 10
35 22 60 15 31 19 48 12 55 -8 8 -14 7 -21 -2z"/>
<path d="M7730 7379 c-32 -13 -78 -56 -96 -91 -22 -43 1 -86 54 -103 29 -8 95
3 87 15 -3 4 0 10 7 12 7 3 9 12 5 23 -7 17 -9 17 -28 -3 -23 -25 -37 -27 -74
-10 -16 7 -25 19 -25 33 0 46 84 117 109 92 8 -8 14 -8 22 0 7 7 5 15 -6 27
-19 18 -21 18 -55 5z"/>
<path d="M10210 7366 c-45 -30 -68 -71 -53 -94 13 -22 37 -26 55 -10 16 15 55
38 63 38 4 0 3 -5 0 -10 -10 -16 5 -72 18 -67 7 2 12 15 13 28 1 14 4 41 8 62
9 47 -8 49 -69 7 -55 -38 -69 -38 -47 -1 9 16 19 29 22 29 17 -3 60 16 57 26
-7 20 -31 17 -67 -8z"/>
<path d="M10652 7379 c-45 -9 -102 -65 -102 -99 0 -40 34 -65 85 -63 46 1 85
17 85 33 0 12 -14 12 -60 1 -45 -10 -80 2 -80 28 0 30 56 71 96 71 22 0 34 5
34 14 0 19 -19 24 -58 15z"/>
<path d="M12776 7353 c-40 -43 -51 -75 -36 -103 34 -64 184 1 167 72 -9 34
-44 68 -72 68 -14 0 -37 -14 -59 -37z m93 -25 c12 -32 -3 -54 -44 -68 -28 -9
-39 -9 -51 1 -13 10 -12 15 3 38 35 54 78 67 92 29z"/>
<path d="M14250 7382 c-23 -7 -99 -71 -111 -93 -6 -12 -8 -27 -5 -35 4 -10 22
2 63 43 l58 58 3 -35 c2 -19 8 -41 14 -47 23 -28 158 -7 158 24 0 11 -6 13
-22 8 -13 -4 -43 -8 -68 -9 l-45 -1 -3 42 c-3 42 -15 54 -42 45z"/>
<path d="M7959 7303 c-19 -44 -19 -73 -1 -73 8 0 42 86 42 108 0 27 -22 9 -41
-35z"/>
<path d="M8294 7296 c-21 -41 -26 -58 -18 -66 9 -9 20 -4 42 18 72 70 102 79
102 28 0 -47 9 -66 31 -66 20 0 26 15 9 25 -5 3 -10 28 -10 55 0 27 -5 52 -10
55 -16 10 -80 -15 -80 -31 0 -8 -5 -14 -11 -14 -5 0 -9 10 -7 22 6 42 -20 28
-48 -26z"/>
<path d="M8932 7338 c-15 -15 -16 -67 -2 -103 7 -20 16 -26 33 -23 12 2 22 10
22 18 0 8 -5 14 -12 13 -17 -4 -26 33 -18 73 6 35 -2 43 -23 22z"/>
<path d="M9015 7244 c-161 -210 -177 -240 -159 -288 3 -9 13 -16 21 -16 11 0
13 7 8 29 -8 36 12 77 69 146 40 48 146 188 159 211 4 7 1 14 -6 17 -7 3 -45
-38 -92 -99z"/>
<path d="M7511 7286 c-14 -58 -14 -76 2 -76 8 0 18 21 25 51 15 64 15 69 -2
69 -8 0 -18 -19 -25 -44z"/>
<path d="M11607 7214 c-9 -10 2 -24 19 -24 8 0 14 7 14 15 0 15 -21 21 -33 9z"/>
<path d="M3942 7175 c-116 -51 -121 -93 -22 -200 84 -91 101 -153 50 -180 -37
-19 -73 -19 -110 0 -28 15 -46 47 -36 64 3 5 -1 12 -9 15 -21 8 -30 -20 -19
-52 35 -100 224 -91 232 11 4 44 -14 76 -94 174 -30 36 -54 71 -54 79 0 33
101 81 148 69 47 -12 51 -21 36 -72 -23 -75 15 -83 52 -11 11 21 12 33 4 48
-8 14 -8 20 0 20 20 0 4 25 -16 26 -10 0 -29 5 -41 12 -29 16 -80 15 -121 -3z"/>
<path d="M6470 7133 c0 -5 -24 -9 -53 -11 -139 -7 -474 -45 -486 -56 -12 -9
-13 -8 -7 3 7 11 -3 12 -55 6 -71 -8 -77 -11 -62 -26 10 -10 267 7 468 31 44
6 110 10 147 10 66 0 68 1 68 25 0 14 -4 25 -10 25 -5 0 -10 -3 -10 -7z"/>
<path d="M9854 7126 c-3 -7 -6 -30 -7 -49 -1 -19 -5 -33 -9 -30 -5 2 -8 -2 -8
-9 0 -7 -23 -51 -50 -97 -47 -80 -61 -121 -41 -121 5 0 36 27 68 61 55 57 113
99 113 81 0 -4 -7 -34 -15 -67 -13 -47 -13 -60 -3 -67 19 -11 29 -10 27 5 -2
6 3 38 10 69 14 63 8 98 -15 98 -22 0 -55 -18 -87 -49 l-29 -26 27 50 c28 55
56 150 47 159 -10 10 -22 6 -28 -8z"/>
<path d="M13314 7102 c-5 -4 -18 -28 -27 -53 -29 -77 -34 -80 -122 -84 -65 -4
-81 -7 -83 -21 -4 -15 5 -16 76 -12 l79 5 -14 -45 c-19 -65 -16 -88 13 -111
30 -24 88 -28 129 -9 43 19 22 43 -24 26 -31 -11 -88 0 -96 20 -3 8 1 39 10
68 l15 52 78 6 c121 10 175 20 180 34 4 13 -45 12 -190 -4 -27 -2 -48 -2 -48
0 0 3 11 31 25 62 24 54 23 82 -1 66z"/>
<path d="M1990 7072 c-74 -23 -100 -39 -100 -62 0 -25 16 -26 29 -2 25 42 9
-33 -26 -126 -59 -158 -64 -179 -47 -193 12 -10 16 -8 21 10 4 17 10 20 27 14
11 -4 44 -8 73 -7 81 1 153 61 153 128 0 29 -59 101 -91 111 -18 6 -13 13 37
59 37 34 56 57 52 67 -8 21 -62 21 -128 1z m45 -58 c-78 -70 -84 -71 -72 -20
10 47 34 63 92 65 l30 0 -50 -45z m-40 -94 c15 0 39 -15 60 -36 44 -44 42 -74
-7 -116 -50 -43 -146 -51 -131 -11 5 13 2 15 -16 10 -12 -3 -21 -2 -19 1 2 4
16 42 33 85 20 53 34 76 43 72 8 -3 24 -5 37 -5z"/>
<path d="M5050 7059 c0 -6 -16 -54 -35 -106 -38 -99 -48 -163 -28 -170 6 -2
32 16 57 40 30 29 46 38 46 28 0 -30 18 -45 54 -44 51 1 106 22 106 40 0 10
-6 13 -16 9 -9 -3 -20 -6 -25 -6 -6 0 -8 -3 -6 -7 3 -5 -15 -6 -39 -4 -41 3
-44 5 -44 32 0 46 -26 47 -71 3 l-40 -39 7 30 c4 17 22 67 40 112 19 45 34 84
34 87 0 3 -9 6 -20 6 -11 0 -20 -5 -20 -11z"/>
<path d="M11693 7058 c-5 -7 -17 -39 -27 -72 l-18 -58 -39 5 c-34 4 -40 3 -37
-11 2 -10 15 -18 31 -20 32 -4 31 2 10 -72 -12 -44 -13 -64 -6 -71 17 -17 33
-1 34 34 0 18 6 48 13 67 12 34 14 35 80 42 73 7 82 11 71 28 -5 8 -26 10 -67
6 -55 -6 -60 -5 -53 11 27 67 36 106 28 114 -6 6 -13 5 -20 -3z"/>
<path d="M6170 6994 c-17 -37 -36 -88 -42 -113 -6 -25 -18 -51 -26 -57 -12 -9
-12 -12 2 -23 24 -20 46 -6 46 28 0 17 9 55 21 86 12 31 19 59 16 62 -3 2 3
13 14 24 21 21 25 44 9 54 -6 4 -24 -23 -40 -61z"/>
<path d="M10406 6993 c-7 -16 -17 -44 -21 -63 -9 -41 -44 -114 -52 -107 -2 3
-14 34 -26 69 -23 65 -49 84 -55 41 -2 -13 1 -23 6 -23 6 0 18 -25 27 -55 19
-60 34 -78 58 -69 18 7 61 90 79 154 11 37 18 46 40 48 14 2 29 10 32 18 4 11
-4 14 -34 14 -33 0 -42 -5 -54 -27z"/>
<path d="M2265 7001 c-8 -15 3 -31 21 -31 9 0 14 7 12 17 -4 20 -24 28 -33 14z"/>
<path d="M6327 6960 c-47 -41 -96 -135 -79 -152 9 -9 15 -8 27 8 8 10 15 26
15 35 0 9 14 35 31 58 25 35 35 42 54 37 31 -8 44 13 20 31 -26 18 -30 17 -68
-17z"/>
<path d="M6986 6980 c-36 -11 -66 -38 -66 -60 0 -10 21 -34 46 -55 54 -45 48
-59 -29 -61 -61 -2 -72 -24 -18 -35 47 -10 121 22 121 51 0 21 -26 52 -70 82
-24 17 -25 18 -6 33 11 8 35 18 53 21 19 4 32 11 30 18 -5 14 -25 17 -61 6z"/>
<path d="M10605 6981 c-65 -28 -130 -124 -117 -174 10 -39 131 -62 196 -37 50
19 28 30 -47 24 -85 -8 -117 4 -117 41 0 32 33 65 65 65 13 0 36 5 50 12 21 9
25 18 23 42 -3 33 -19 41 -53 27z m15 -41 c-8 -5 -19 -10 -25 -10 -5 0 -3 5 5
10 8 5 20 10 25 10 6 0 3 -5 -5 -10z"/>
<path d="M10053 6944 c-64 -36 -83 -57 -83 -93 0 -35 33 -44 97 -27 31 8 57
14 58 13 3 -18 44 -83 57 -91 29 -18 30 0 3 39 -18 28 -25 51 -25 86 0 53 -15
73 -29 37 -5 -13 -15 -28 -22 -34 -22 -17 -93 -34 -102 -25 -16 16 6 40 69 71
58 30 74 49 48 57 -5 1 -37 -13 -71 -33z"/>
<path d="M12331 6941 c-6 -22 -27 -63 -47 -92 -52 -78 -29 -85 41 -13 31 33
51 49 46 37 -14 -28 -14 -63 0 -63 6 0 37 19 70 42 33 22 62 38 65 35 4 -3 1
-20 -5 -38 -23 -67 -11 -96 35 -85 27 7 28 33 0 28 -20 -4 -20 3 0 61 9 26 13
55 10 63 -8 22 -49 12 -103 -26 l-41 -28 9 30 c11 38 3 51 -25 44 -18 -4 -22
-1 -22 16 2 37 -20 30 -33 -11z"/>
<path d="M6687 6940 c-20 -17 -43 -51 -53 -76 -17 -44 -17 -46 3 -72 17 -23
28 -27 66 -26 28 0 51 6 62 18 24 23 17 27 -33 14 -51 -13 -72 -6 -72 24 0 16
11 29 34 42 54 29 83 63 70 84 -18 27 -40 25 -77 -8z"/>
<path d="M4210 6947 c-34 -17 -82 -89 -82 -123 0 -44 36 -67 99 -62 52 5 91
24 76 39 -4 4 -27 3 -50 -4 -50 -13 -93 1 -93 32 0 13 9 21 34 25 39 7 86 41
86 61 0 14 -26 45 -38 45 -4 0 -18 -6 -32 -13z m26 -42 c-23 -17 -36 -19 -36
-6 0 11 18 19 40 20 11 0 10 -3 -4 -14z"/>
<path d="M8064 6946 c-63 -27 -109 -119 -84 -166 25 -47 121 -57 190 -20 31
16 15 30 -23 19 -51 -14 -114 -11 -132 7 -30 31 8 111 65 134 25 10 34 10 55
-4 30 -20 45 -20 45 -2 0 19 -39 46 -65 46 -11 -1 -34 -7 -51 -14z"/>
<path d="M12927 6949 c-27 -15 -20 -45 20 -90 30 -33 34 -42 22 -50 -22 -14
-83 -11 -105 6 -27 20 -36 18 -32 -7 4 -31 60 -45 124 -32 71 14 77 33 25 89
-32 35 -40 50 -32 58 9 9 17 8 31 -1 17 -10 21 -10 26 3 4 9 4 18 1 21 -10 10
-63 12 -80 3z"/>
<path d="M6470 6912 c-50 -50 -55 -99 -14 -131 33 -26 114 -30 114 -6 0 11
-11 15 -36 15 -40 0 -74 15 -74 33 0 7 20 20 44 30 57 24 84 52 70 75 -21 33
-62 27 -104 -16z m70 0 c0 -5 -17 -16 -37 -25 l-38 -17 28 25 c28 25 47 32 47
17z"/>
<path d="M8313 6929 c-37 -23 -73 -76 -73 -106 0 -33 25 -46 75 -41 34 4 45 2
45 -9 0 -16 24 -28 39 -18 7 4 7 12 -1 24 -9 15 -8 24 5 45 35 53 13 62 -40
15 -24 -20 -43 -29 -61 -27 -39 5 -38 25 6 68 34 35 44 39 71 34 35 -7 43 9
12 26 -28 14 -42 12 -78 -11z"/>
<path d="M4608 6915 c-45 -30 -86 -101 -69 -118 15 -15 46 4 47 29 1 11 2 24
3 31 2 21 69 55 103 51 24 -2 33 1 33 12 0 28 -75 24 -117 -5z"/>
<path d="M4841 6933 c-36 -7 -111 -89 -111 -121 0 -15 4 -32 8 -39 14 -21 66
-35 112 -28 66 9 80 15 80 32 0 10 -5 13 -17 8 -26 -10 -109 -12 -133 -3 -30
11 -24 39 16 81 30 30 43 37 75 37 42 0 51 13 20 30 -11 5 -21 9 -23 9 -2 -1
-14 -4 -27 -6z"/>
<path d="M11415 6924 c-40 -20 -95 -94 -95 -127 0 -40 37 -45 89 -13 49 31 47
31 54 5 8 -32 29 -18 32 21 1 19 4 40 5 45 4 14 -19 68 -33 77 -16 10 -17 10
-52 -8z m48 -38 c6 -16 -35 -57 -80 -80 -45 -23 -44 -2 3 52 36 42 67 54 77
28z"/>
<path d="M8497 6924 c-4 -4 -7 -15 -7 -24 0 -9 -15 -40 -34 -70 -21 -33 -31
-59 -26 -64 9 -9 60 24 116 76 l31 29 6 -37 c3 -20 14 -45 23 -55 29 -32 95
-22 112 16 15 34 -4 43 -30 15 -33 -35 -61 -23 -73 32 -15 70 -26 76 -71 36
-36 -32 -37 -32 -30 -8 4 14 8 31 9 39 2 15 -15 25 -26 15z"/>
<path d="M2375 6890 c-16 -16 -34 -30 -39 -30 -10 0 -46 -74 -46 -93 0 -21 31
-2 55 36 33 50 65 87 77 87 4 0 7 -26 5 -57 -1 -32 3 -60 8 -63 12 -6 31 111
22 134 -10 26 -51 18 -82 -14z"/>
<path d="M2572 6890 c-92 -66 -77 -136 20 -95 47 19 46 19 50 -7 2 -15 11 -24
26 -26 22 -3 30 12 12 23 -6 4 -8 21 -4 41 4 22 2 34 -5 34 -6 0 -8 7 -4 16 6
17 -20 44 -42 44 -7 0 -30 -13 -53 -30z m46 -52 c-43 -23 -72 -24 -60 -2 5 8
22 24 38 35 27 18 30 18 42 2 11 -15 8 -20 -20 -35z"/>
<path d="M2772 6892 c-28 -29 -58 -99 -48 -109 11 -12 34 7 40 34 4 15 17 38
28 50 20 21 22 21 34 5 17 -23 35 -4 23 26 -12 31 -45 28 -77 -6z"/>
<path d="M4365 6887 c-60 -60 -34 -113 41 -82 45 18 44 18 44 1 0 -17 39 -48
52 -40 14 9 9 34 -7 34 -18 0 -19 18 -5 56 17 44 -4 53 -38 16 -28 -29 -76
-51 -89 -39 -10 10 46 57 67 57 28 0 21 24 -9 28 -14 2 -33 -8 -56 -31z"/>
<path d="M12667 6875 c-54 -50 -59 -80 -17 -103 26 -13 88 -9 121 9 29 15 25
71 -7 108 -14 17 -31 31 -37 31 -7 0 -34 -20 -60 -45z m87 -28 c7 -19 6 -31
-1 -38 -13 -13 -89 -16 -101 -5 -10 10 66 78 81 73 7 -2 16 -16 21 -30z"/>
<path d="M2988 6850 c-30 -68 -52 -78 -62 -26 -7 34 -31 64 -43 53 -9 -9 18
-96 35 -113 12 -13 9 -23 -26 -82 -46 -76 -61 -111 -55 -129 7 -21 33 -15 33
7 0 25 17 60 74 148 82 127 111 202 79 202 -5 0 -20 -27 -35 -60z"/>
<path d="M2224 6853 c-3 -16 -13 -52 -21 -81 -9 -29 -13 -55 -10 -59 15 -14
37 23 51 87 19 84 19 80 1 80 -8 0 -17 -12 -21 -27z"/>
<path d="M3513 6597 c-48 -125 -69 -205 -55 -219 8 -8 26 3 69 40 l58 51 6
-35 c6 -36 25 -58 41 -48 5 3 5 11 1 17 -4 7 -10 30 -13 52 -7 53 -29 56 -86
10 l-45 -37 7 28 c9 40 64 177 74 188 11 11 1 36 -14 36 -6 0 -25 -37 -43 -83z"/>
<path d="M4195 6658 c-2 -7 -9 -47 -14 -88 -16 -118 -37 -174 -76 -209 -42
-36 -79 -48 -100 -31 -47 39 26 150 99 150 25 0 36 4 36 15 0 22 -68 19 -103
-3 -15 -10 -39 -34 -53 -53 -21 -28 -25 -42 -21 -78 8 -77 61 -92 139 -41 52
34 79 83 97 170 21 105 31 161 31 170 0 15 -30 12 -35 -2z"/>
<path d="M1726 6574 c-23 -72 -38 -86 -114 -103 -39 -8 -62 -19 -62 -27 0 -17
20 -18 71 -2 22 6 42 9 45 6 3 -3 -2 -28 -11 -56 -13 -40 -14 -57 -5 -91 13
-48 49 -73 75 -51 17 14 10 34 -10 26 -38 -14 -49 69 -20 142 18 45 27 48 108
43 27 -2 37 2 37 13 0 16 -80 33 -99 21 -14 -8 -14 -9 9 53 23 61 25 82 7 82
-7 0 -21 -25 -31 -56z"/>
<path d="M3904 6603 c-3 -10 -14 -40 -24 -68 -61 -159 -73 -222 -47 -244 19
-15 26 -4 20 33 -3 23 8 67 41 155 25 67 44 127 40 132 -9 15 -24 10 -30 -8z"/>
<path d="M3780 6581 c0 -12 0 -24 0 -28 0 -5 6 -8 13 -8 6 0 12 11 12 24 0 13
-6 26 -12 29 -8 2 -13 -5 -13 -17z"/>
<path d="M11930 6588 c-574 -15 -635 -18 -635 -31 0 -9 34 -12 135 -10 74 1
590 5 1145 8 556 3 1016 8 1023 10 8 3 12 10 10 16 -4 13 -1257 19 -1678 7z"/>
<path d="M3229 6535 c-25 -13 -62 -42 -82 -64 -64 -71 -43 -130 52 -139 70 -6
180 32 157 55 -3 3 -29 -1 -57 -10 -169 -55 -218 36 -66 123 37 21 55 26 64
19 19 -17 35 -1 23 22 -14 25 -35 24 -91 -6z"/>
<path d="M4318 6470 c-22 -22 -45 -38 -51 -37 -20 4 -42 -123 -23 -133 5 -3
13 7 17 23 10 38 75 134 100 147 11 6 24 8 30 5 16 -11 39 3 33 20 -12 30 -63
18 -106 -25z"/>
<path d="M4503 6490 c-56 -23 -94 -137 -57 -174 20 -21 94 -22 94 -2 0 10 -13
16 -37 18 -33 3 -38 7 -41 31 -3 23 0 27 21 27 30 0 91 40 95 63 8 38 -28 56
-75 37z m47 -30 c0 -10 -59 -44 -65 -38 -6 6 9 24 30 36 25 14 35 15 35 2z"/>
<path d="M4735 6416 c-24 -48 -35 -81 -31 -92 6 -15 13 -11 47 29 22 25 54 56
71 68 l30 22 -7 -32 c-14 -66 43 -100 120 -71 40 15 20 30 -31 23 -55 -7 -63
2 -57 62 3 25 1 45 -6 49 -12 8 -46 -8 -80 -38 l-24 -21 16 25 c21 30 22 50 3
50 -7 0 -30 -33 -51 -74z"/>
<path d="M2236 6429 c-70 -62 -97 -129 -62 -158 66 -55 220 31 198 111 -9 32
-57 88 -76 88 -7 0 -34 -19 -60 -41z m88 -21 c33 -46 7 -95 -61 -119 -33 -11
-73 1 -73 22 0 35 74 119 105 119 8 0 21 -10 29 -22z"/>
<path d="M1863 6382 c-38 -88 -39 -98 -17 -106 15 -6 61 17 122 60 18 14 21
14 17 2 -8 -19 22 -44 67 -56 41 -11 53 -3 76 51 16 38 16 110 0 105 -7 -3
-14 -15 -16 -29 -5 -48 -23 -99 -35 -99 -7 0 -23 3 -36 7 -21 5 -23 10 -18 44
3 22 1 41 -3 44 -5 3 -39 -17 -75 -45 -37 -28 -69 -49 -72 -47 -2 3 8 30 22
62 28 64 31 85 13 85 -7 0 -28 -35 -45 -78z"/>
<path d="M3706 6417 c-18 -48 -21 -77 -6 -77 10 0 36 54 46 97 11 42 -22 26
-40 -20z"/>
<path d="M4563 6343 c-17 -6 -17 -33 0 -33 14 0 37 20 37 32 0 9 -18 9 -37 1z"/>
<path d="M5193 6235 c-3 -9 -2 -19 1 -23 8 -8 38 10 44 26 6 18 -38 14 -45 -3z"/>
<path d="M3930 6119 c-168 -9 -447 -25 -620 -33 -173 -9 -414 -23 -535 -31
-193 -12 -453 -27 -945 -51 -74 -4 -187 -8 -250 -8 -71 -1 -114 -5 -112 -11 1
-5 14 -10 30 -11 15 -1 37 -4 50 -8 15 -5 22 -3 22 6 0 9 2 10 8 2 5 -9 57 -9
192 -3 333 15 791 39 1020 54 124 8 315 19 425 25 110 6 407 22 660 36 348 19
532 25 754 22 207 -2 295 0 298 8 10 29 -527 31 -997 3z"/>
<path d="M2985 5829 c-517 -9 -927 -29 -1295 -65 -86 -8 -178 -16 -205 -18
-59 -3 -71 -29 -16 -34 20 -2 31 1 27 6 -3 6 2 8 14 5 11 -3 95 2 187 11 229
21 423 34 708 46 132 5 276 12 321 15 44 3 523 5 1065 5 897 0 1054 4 999 24
-23 8 -1377 12 -1805 5z"/>
<path d="M7816 5478 c-3 -13 -8 -40 -11 -61 -3 -20 -23 -81 -45 -135 l-38 -97
-46 -3 c-32 -2 -46 -7 -46 -18 0 -9 11 -14 36 -14 35 0 35 -1 29 -32 -4 -18
-15 -54 -25 -81 -17 -44 -13 -66 10 -52 5 3 21 44 35 90 26 83 26 84 61 87 42
4 50 22 12 26 -16 2 -28 5 -28 8 0 3 12 32 26 66 32 77 65 204 58 223 -9 22
-23 18 -28 -7z"/>
<path d="M12363 5463 c-6 -21 -28 -86 -48 -145 -38 -108 -38 -108 -71 -108
-21 0 -37 -6 -43 -17 -6 -10 -11 -12 -11 -5 0 8 -16 12 -44 12 -36 0 -44 -3
-42 -17 2 -14 13 -16 67 -14 35 1 72 4 81 7 16 5 15 -1 -3 -63 -30 -104 -34
-137 -16 -152 21 -17 51 -10 55 13 3 14 0 17 -17 11 -25 -8 -27 4 -6 66 7 24
19 63 25 87 l11 42 54 0 c30 0 55 4 55 9 0 13 -26 21 -66 21 -19 0 -34 2 -34
5 0 3 20 61 45 129 25 69 45 132 45 140 0 31 -26 15 -37 -21z"/>
<path d="M8973 5466 c-26 -22 -30 -33 -41 -129 -16 -140 -27 -169 -57 -161
-28 7 -102 -24 -129 -54 -10 -12 -21 -41 -23 -65 -5 -38 -2 -47 17 -60 21 -14
27 -14 59 -1 77 32 119 100 146 234 32 163 45 211 60 226 8 9 13 20 10 25 -8
13 -10 12 -42 -15z m-98 -336 c10 -16 -27 -69 -61 -91 -45 -28 -64 -25 -64 10
0 52 102 118 125 81z"/>
<path d="M13197 5484 c-4 -4 -7 -19 -8 -33 0 -14 -15 -60 -32 -101 -30 -69
-35 -75 -72 -86 -22 -7 -57 -13 -77 -13 -27 -1 -38 -5 -38 -16 0 -18 64 -21
106 -5 15 6 28 9 30 8 1 -2 -6 -24 -17 -48 -31 -68 -51 -152 -39 -164 14 -14
18 -6 36 60 8 32 26 83 39 112 23 50 25 52 64 52 34 0 41 3 41 19 0 22 -30 37
-41 20 -3 -6 -11 -10 -16 -8 -6 2 5 42 24 88 19 46 33 91 31 99 -3 17 -21 26
-31 16z"/>
<path d="M13325 5422 c-5 -4 -28 -59 -49 -122 -22 -63 -54 -145 -73 -182 -55
-111 -43 -125 39 -48 29 28 61 55 71 61 21 12 22 -2 6 -67 -9 -33 -9 -48 -1
-56 16 -16 34 34 36 96 2 68 -18 79 -74 42 -35 -23 -40 -24 -31 -8 6 11 29 71
51 133 38 107 48 168 25 151z"/>
<path d="M2804 5387 c-12 -17 -42 -70 -67 -117 -64 -118 -81 -142 -114 -156
-23 -10 -25 -13 -11 -19 16 -6 15 -10 -5 -41 -12 -19 -30 -37 -40 -40 -20 -6
-20 -35 0 -41 6 -2 35 25 63 61 45 58 56 66 85 66 18 0 40 2 47 5 11 5 14 -10
14 -69 -1 -95 17 -104 25 -13 4 49 11 71 24 81 16 12 16 14 3 22 -14 8 -14 19
3 109 31 172 22 227 -27 152z m-3 -140 c-10 -54 -20 -99 -22 -102 -3 -2 -24
-7 -47 -11 l-42 -7 40 67 c22 36 50 86 62 111 12 24 23 43 25 42 1 -2 -6 -47
-16 -100z"/>
<path d="M3357 5413 c-3 -4 -10 -44 -17 -88 -15 -104 -34 -173 -71 -248 -47
-99 -92 -134 -105 -83 -12 49 23 111 80 141 35 19 49 45 24 45 -7 0 -27 -9
-44 -19 -74 -45 -114 -143 -80 -196 57 -87 172 70 216 295 25 131 27 153 13
157 -6 2 -13 0 -16 -4z"/>
<path d="M10946 5398 c-2 -13 -12 -62 -20 -110 -23 -125 -28 -133 -81 -133
-53 0 -87 -28 -111 -90 -21 -56 -8 -85 39 -85 68 0 149 126 181 283 9 42 16
87 16 101 0 13 5 26 12 28 15 5 1 28 -17 28 -8 0 -17 -10 -19 -22z m-81 -278
c14 -22 -55 -110 -87 -110 -24 0 -24 47 0 76 30 37 74 55 87 34z"/>
<path d="M4396 5358 c-2 -7 -9 -53 -16 -102 -16 -124 -40 -182 -101 -241 l-50
-50 -20 24 c-10 13 -19 30 -19 38 0 20 64 83 84 83 9 0 16 7 16 15 0 29 -43
15 -86 -29 -47 -47 -53 -70 -29 -116 21 -40 56 -48 94 -21 39 28 85 86 106
136 18 42 45 188 45 243 0 31 -17 45 -24 20z"/>
<path d="M7547 5313 c-4 -3 -7 -22 -7 -41 0 -29 2 -33 15 -22 8 7 15 20 15 29
0 21 -15 43 -23 34z"/>
<path d="M7953 5293 c-7 -2 -13 -11 -13 -20 0 -21 44 -13 48 10 3 17 -10 21
-35 10z"/>
<path d="M11141 5291 c-12 -8 -12 -12 -2 -25 14 -17 41 -22 41 -8 0 20 -26 41
-39 33z"/>
<path d="M6865 5272 c-17 -11 -46 -42 -65 -70 -20 -29 -43 -52 -53 -52 -15 0
-17 -6 -12 -33 5 -24 -6 -67 -39 -166 -50 -146 -53 -161 -32 -161 18 0 63 103
84 189 13 57 19 67 34 64 28 -8 105 43 148 98 31 40 40 59 40 90 0 58 -46 76
-105 41z m71 -27 c11 -27 -5 -62 -48 -104 -42 -43 -96 -77 -105 -67 -9 8 8 64
23 77 8 6 14 16 14 21 0 15 39 62 63 75 30 17 47 16 53 -2z"/>
<path d="M13732 5256 c1 -10 8 -17 13 -17 15 1 12 24 -3 29 -9 3 -13 -2 -10
-12z"/>
<path d="M7303 5215 c-61 -28 -66 -45 -23 -85 17 -15 30 -33 30 -38 0 -19 -43
-42 -67 -36 -18 5 -23 2 -23 -14 0 -33 17 -35 68 -10 60 29 68 65 26 109 -15
16 -26 31 -23 33 2 3 26 14 52 25 47 20 62 41 30 41 -10 0 -42 -11 -70 -25z"/>
<path d="M9915 5183 c-56 -74 -59 -114 -8 -134 32 -12 75 -8 80 7 2 7 -14 14
-37 17 -23 3 -44 8 -47 11 -10 10 19 65 53 100 39 41 41 46 14 46 -11 0 -34
-19 -55 -47z"/>
<path d="M4789 5187 c-46 -31 -47 -51 -4 -94 42 -42 42 -59 -3 -89 -25 -17
-42 -21 -69 -17 -28 5 -35 3 -31 -8 3 -8 17 -18 32 -24 22 -7 36 -5 72 15 76
40 86 87 30 139 -14 14 -26 30 -26 37 0 12 38 30 74 36 11 2 21 9 24 16 7 21
-62 14 -99 -11z"/>
<path d="M7028 5182 c-63 -47 -90 -119 -57 -158 18 -21 70 -13 120 21 57 37
64 94 19 143 -26 28 -36 27 -82 -6z m82 -63 c0 -10 -8 -25 -17 -35 -22 -22
-81 -46 -93 -39 -31 19 17 110 63 117 24 4 47 -16 47 -43z"/>
<path d="M8503 5165 c-39 -41 -43 -50 -38 -78 4 -18 18 -42 32 -55 21 -19 34
-22 81 -20 74 4 85 28 12 28 -28 0 -60 5 -71 10 -22 12 -26 40 -4 40 28 0 83
33 96 57 17 31 2 57 -35 61 -22 3 -37 -6 -73 -43z m80 0 c-7 -19 -62 -49 -71
-40 -9 9 45 55 63 55 9 0 12 -6 8 -15z"/>
<path d="M10122 5173 c-60 -63 -72 -136 -28 -165 14 -10 66 -10 66 0 -1 18
-19 33 -36 30 -54 -9 -4 124 51 138 28 7 29 27 1 32 -10 2 -33 -12 -54 -35z"/>
<path d="M9691 5178 c-19 -13 -47 -47 -64 -76 -28 -51 -29 -54 -12 -72 20 -22
50 -19 103 11 30 17 32 17 32 1 0 -18 18 -42 31 -42 4 0 7 17 6 38 -1 20 3 49
7 65 11 38 -7 35 -55 -8 -36 -33 -84 -54 -95 -42 -10 9 24 64 56 91 23 19 38
24 57 20 21 -6 24 -3 21 12 -5 28 -48 29 -87 2z"/>
<path d="M13514 5190 c-33 -13 -82 -77 -90 -117 -6 -32 -3 -39 21 -60 22 -19
37 -23 74 -21 40 3 46 6 43 23 -5 26 -14 33 -20 16 -4 -11 -6 -11 -14 0 -7 11
-11 11 -15 2 -13 -33 -69 2 -59 35 4 12 11 20 16 17 11 -7 61 18 84 40 34 35
5 82 -40 65z m15 -48 c-6 -10 -20 -19 -31 -19 -19 -2 -19 -1 -3 18 24 25 50
26 34 1z"/>
<path d="M10523 5168 c-40 -44 -38 -158 2 -158 17 0 20 21 5 36 -15 15 -1 70
22 90 10 10 38 20 61 23 58 8 49 25 -16 29 -44 2 -56 -1 -74 -20z"/>
<path d="M2897 5173 c-2 -5 -10 -26 -16 -48 -7 -22 -22 -64 -33 -93 -34 -86
-11 -86 61 1 54 66 78 87 97 87 3 0 4 -30 2 -67 -2 -38 1 -69 6 -71 12 -3 20
37 21 108 0 52 -1 55 -27 58 -19 2 -38 -7 -69 -35 -38 -35 -41 -36 -34 -13 4
14 13 35 21 46 7 12 10 24 7 28 -9 8 -31 8 -36 -1z"/>
<path d="M4514 5158 c-43 -34 -61 -58 -80 -105 -27 -70 -1 -123 62 -123 35 0
114 27 114 39 0 17 -14 19 -52 5 -59 -20 -87 -18 -99 9 -17 37 3 73 45 81 47
9 108 62 104 90 -4 31 -56 33 -94 4z m52 -27 c-10 -11 -32 -24 -49 -30 l-32
-11 33 30 c38 35 78 44 48 11z"/>
<path d="M7968 5153 c-36 -38 -44 -77 -24 -108 26 -40 100 -29 132 20 14 22
15 32 5 64 -7 26 -18 41 -34 45 -39 10 -53 7 -79 -21z m66 -9 c10 -4 16 -18
16 -38 0 -25 -6 -35 -25 -44 -35 -16 -52 -15 -59 3 -7 18 2 44 22 68 16 19 22
20 46 11z"/>
<path d="M8171 5108 c-52 -89 -48 -111 11 -70 24 16 52 40 63 52 11 12 27 26
36 31 15 8 16 4 12 -31 -3 -21 -3 -50 1 -64 8 -33 48 -60 76 -51 22 7 22 32 0
27 -20 -5 -50 29 -50 56 0 14 5 42 12 64 21 72 -13 73 -92 2 -31 -28 -37 -31
-33 -14 3 11 9 23 14 26 12 7 12 44 0 44 -4 0 -27 -32 -50 -72z"/>
<path d="M10332 5167 c-39 -22 -68 -81 -55 -113 15 -38 91 -50 146 -22 20 10
22 46 5 83 -15 32 -43 35 -33 3 17 -56 13 -63 -35 -63 -43 0 -45 1 -45 30 0
23 8 35 37 54 52 33 34 58 -20 28z"/>
<path d="M2152 5145 c-38 -43 -25 -75 22 -54 20 10 26 19 26 46 0 40 -18 43
-48 8z"/>
<path d="M3782 5138 c-3 -13 -27 -66 -54 -118 -26 -52 -48 -96 -48 -97 0 -2 8
-3 18 -3 10 0 26 15 36 34 21 40 141 174 149 166 2 -3 -9 -38 -25 -79 -38 -96
-41 -125 -10 -129 22 -3 23 -1 18 25 -5 21 2 50 24 101 16 39 30 82 30 96 0
38 -36 34 -83 -9 -33 -30 -37 -32 -31 -13 3 13 11 25 15 26 14 5 0 22 -18 22
-8 0 -17 -10 -21 -22z"/>
<path d="M6080 5121 c-22 -23 -44 -41 -49 -41 -13 0 -2 -69 15 -97 18 -29 89
-40 145 -22 22 8 40 19 39 24 -1 13 -51 9 -59 -4 -9 -13 -79 3 -99 22 -20 21
-9 43 25 50 76 15 115 98 50 105 -23 3 -37 -5 -67 -37z m70 -1 c0 -5 -14 -17
-31 -25 -29 -16 -30 -16 -20 4 14 26 51 42 51 21z"/>
<path d="M7458 5135 c-9 -20 -16 -23 -36 -18 -27 6 -25 -3 6 -39 22 -26 29
-23 52 28 24 56 24 54 5 54 -9 0 -21 -11 -27 -25z"/>
<path d="M11240 5144 c-25 -15 -82 -92 -95 -126 -15 -39 23 -16 54 32 30 46
65 80 83 80 12 0 9 -41 -7 -85 -18 -51 -18 -65 0 -65 13 0 25 27 45 109 16 64
-23 90 -80 55z"/>
<path d="M13875 5145 c-16 -7 -46 -28 -66 -47 -20 -19 -42 -32 -50 -30 -8 3
-11 1 -7 -3 4 -4 0 -14 -8 -22 -9 -10 -14 -29 -12 -52 3 -38 21 -46 26 -11 5
32 99 127 138 140 19 7 41 10 48 7 18 -7 40 8 32 22 -10 15 -64 13 -101 -4z"/>
<path d="M5883 5134 c-56 -28 -131 -164 -89 -164 16 0 46 42 46 66 0 9 15 31
34 50 29 29 39 33 65 28 24 -5 31 -3 31 9 0 29 -40 34 -87 11z"/>
<path d="M12416 5138 c-23 -13 -56 -73 -56 -102 0 -19 7 -29 26 -36 32 -13 69
3 97 42 17 23 19 34 11 65 -7 30 -13 37 -37 38 -15 0 -34 -3 -41 -7z m48 -44
c10 -25 -20 -64 -49 -64 -31 0 -32 18 -4 54 23 30 44 34 53 10z"/>
<path d="M4015 5106 c-36 -47 -49 -90 -35 -115 6 -12 16 -21 23 -22 101 -9
183 78 130 139 -10 11 -35 22 -55 25 -34 5 -41 2 -63 -27z m85 -6 c13 0 21
-35 14 -54 -8 -20 -55 -46 -84 -46 -25 0 -27 35 -3 70 22 32 35 41 51 35 8 -3
17 -5 22 -5z"/>
<path d="M7826 5085 c-16 -51 -15 -75 2 -75 7 0 42 98 42 118 0 7 -6 12 -13
12 -7 0 -21 -25 -31 -55z"/>
<path d="M11508 5132 c-21 -9 -88 -70 -88 -81 0 -17 26 -30 65 -33 l40 -3 3
-50 c2 -27 1 -65 -3 -82 l-6 -33 -78 1 c-122 1 -170 -28 -185 -113 -14 -78 25
-159 84 -173 54 -13 142 77 181 186 22 59 23 60 53 55 17 -3 59 -8 94 -12 51
-5 62 -4 62 8 0 11 -22 18 -88 27 l-89 12 5 49 c7 78 -7 200 -24 200 -8 0 -14
-6 -14 -14 0 -15 -21 -26 -48 -26 -12 0 -10 6 9 26 21 22 29 25 67 19 41 -6
43 -5 33 13 -15 29 -40 37 -73 24z m-7 -342 c-10 -76 -100 -190 -150 -190 -74
0 -93 166 -23 205 18 10 50 14 102 12 74 -2 75 -2 71 -27z"/>
<path d="M5643 5105 c-48 -29 -86 -84 -81 -117 4 -33 45 -35 91 -3 21 14 39
25 41 25 8 0 0 -36 -9 -42 -15 -11 9 -31 31 -26 16 3 18 11 16 51 -3 32 1 56
12 72 13 19 14 30 6 45 -15 27 -56 25 -107 -5z m77 -14 c0 -14 -100 -101 -116
-101 -20 0 -17 13 8 45 35 44 108 82 108 56z"/>
<path d="M13649 5083 c-5 -16 -14 -40 -20 -55 -12 -30 -4 -68 10 -52 5 5 14
27 21 49 7 22 17 45 22 52 11 13 3 33 -13 33 -5 0 -14 -12 -20 -27z"/>
<path d="M11041 5073 c-16 -40 -18 -75 -4 -80 7 -3 15 10 19 31 3 20 10 36 15
36 5 0 9 9 9 20 0 29 -26 24 -39 -7z"/>
<path d="M3411 4853 c-31 -65 -221 -379 -286 -473 -63 -92 -83 -144 -65 -166
17 -20 42 1 35 30 -4 13 6 40 27 73 18 29 71 112 117 185 103 163 221 369 221
386 0 28 -28 9 -49 -35z"/>
<path d="M2545 4838 c-2 -7 -16 -80 -31 -161 -20 -110 -24 -154 -16 -170 8
-17 11 -19 15 -7 10 27 57 297 57 324 0 27 -17 36 -25 14z"/>
<path d="M3767 4720 c-48 -44 -92 -80 -97 -80 -6 0 -8 10 -6 23 16 77 17 117
2 117 -10 0 -17 -15 -21 -47 -4 -27 -17 -91 -29 -144 -23 -100 -23 -119 0
-119 13 0 19 13 15 34 -4 19 11 66 20 66 6 0 24 13 42 30 37 34 88 40 125 14
20 -14 23 -24 21 -68 -2 -39 0 -51 11 -51 16 0 31 59 24 92 -8 32 -49 65 -90
72 l-36 6 61 50 c34 28 61 58 61 68 0 9 -3 17 -7 17 -5 0 -47 -36 -96 -80z"/>
<path d="M2050 4728 c0 -50 29 -211 39 -221 22 -22 45 9 67 84 11 41 27 84 34
96 8 12 11 26 7 30 -18 17 -43 -18 -62 -85 -12 -39 -23 -74 -27 -77 -3 -3 -10
29 -15 72 -8 67 -8 80 6 90 14 10 12 13 -12 22 -37 14 -37 15 -37 -11z"/>
<path d="M4025 4732 c-47 -29 -85 -85 -85 -126 0 -54 28 -76 93 -75 81 2 102
10 102 43 1 15 -2 29 -6 32 -13 8 -37 -7 -42 -27 -4 -15 -14 -19 -49 -19 -24
0 -49 5 -56 12 -21 21 -14 45 16 53 40 9 99 51 107 75 8 24 -10 50 -34 50 -9
0 -30 -8 -46 -18z m27 -42 c-42 -39 -64 -39 -27 0 16 17 36 30 44 30 11 0 5
-10 -17 -30z"/>
<path d="M4311 4704 c-17 -26 -31 -50 -31 -53 0 -4 -12 -12 -27 -18 -35 -17
-55 0 -51 41 2 22 -2 32 -14 34 -43 8 -20 -96 26 -120 11 -6 22 -12 23 -13 2
-1 -15 -38 -37 -82 -22 -45 -45 -102 -52 -127 -7 -25 -18 -46 -25 -46 -17 0
-16 -11 3 -39 21 -29 29 -19 43 48 11 53 92 227 159 344 24 41 31 62 24 69 -8
8 -20 -4 -41 -38z"/>
<path d="M2910 4674 c-45 -48 -59 -94 -45 -150 11 -48 114 -56 184 -13 42 25
29 47 -14 25 -72 -37 -145 -28 -145 19 0 18 8 28 33 39 48 20 79 58 75 92 -5
47 -37 42 -88 -12z m60 -3 c0 -5 -14 -20 -32 -32 -31 -22 -31 -12 0 24 16 19
32 23 32 8z"/>
<path d="M2675 4702 c-21 -14 -35 -64 -35 -120 0 -64 11 -82 50 -82 44 0 120
96 120 153 0 33 -23 62 -44 54 -20 -8 -21 -26 -1 -33 20 -8 19 -27 -4 -72 -24
-47 -56 -76 -76 -69 -20 8 -20 88 1 129 15 30 9 54 -11 40z"/>
<path d="M2315 4682 c-67 -41 -87 -142 -28 -142 14 0 35 7 45 17 17 15 18 15
18 -14 0 -24 27 -80 30 -63 1 3 3 42 5 88 4 95 -5 102 -47 42 -27 -39 -58 -53
-58 -27 0 14 28 58 44 69 6 4 26 8 44 8 38 0 42 17 6 30 -31 12 -24 13 -59 -8z"/>
<path d="M4404 4555 c-7 -18 3 -35 21 -35 12 0 25 21 25 41 0 15 -40 10 -46
-6z"/>
<path d="M9472 4233 c-32 -32 -75 -88 -96 -125 -43 -78 -111 -234 -121 -278
-8 -35 -26 -47 -84 -56 -22 -4 -41 -11 -41 -16 0 -16 31 -21 66 -10 19 5 34 7
34 4 0 -4 -9 -36 -20 -72 -24 -77 -24 -90 -6 -90 9 0 22 30 37 86 22 85 23 86
66 105 54 23 58 44 7 34 -43 -8 -43 -11 19 135 56 131 102 206 161 263 41 41
54 48 76 43 32 -6 41 0 33 20 -3 8 -19 14 -39 14 -27 0 -44 -10 -92 -57z"/>
<path d="M8980 4178 c-7 -29 -23 -81 -36 -114 -39 -104 -124 -411 -124 -447 0
-40 8 -51 26 -36 8 6 11 22 8 37 -5 27 71 299 136 490 30 87 33 122 11 122 -5
0 -15 -24 -21 -52z"/>
<path d="M9611 4163 c-22 -95 -51 -206 -62 -235 -11 -26 -15 -28 -75 -28 -50
0 -64 -3 -64 -15 0 -12 13 -15 61 -15 45 0 60 -3 57 -12 -3 -7 -15 -44 -28
-83 -12 -38 -29 -75 -37 -82 -17 -13 -14 -75 4 -81 7 -2 15 2 17 10 2 7 20 65
41 130 41 126 43 128 127 128 32 0 68 16 68 30 0 5 -30 6 -70 3 -38 -3 -70 -4
-70 -2 0 2 16 66 35 141 19 75 36 142 37 149 2 7 -4 14 -13 16 -12 3 -19 -10
-28 -54z"/>
<path d="M6471 4174 c-35 -58 -121 -238 -121 -251 0 -19 -34 -33 -80 -33 -56
0 -48 -24 9 -28 39 -3 42 -5 37 -25 -4 -12 -10 -48 -13 -79 -5 -54 -4 -59 25
-87 38 -38 95 -42 136 -10 34 27 24 44 -14 24 -40 -21 -76 -19 -100 5 -24 24
-25 59 -5 128 l16 52 86 0 c71 0 84 -2 71 -12 -26 -22 -58 -75 -58 -97 0 -51
85 -80 128 -43 33 28 35 55 6 97 -16 24 -22 41 -15 43 20 7 11 32 -11 32 -95
1 -188 14 -188 25 0 18 107 230 126 249 16 16 13 46 -5 46 -5 0 -19 -16 -30
-36z m93 -366 c24 -35 20 -67 -9 -74 -55 -14 -78 20 -45 66 26 36 34 37 54 8z"/>
<path d="M7599 4203 c-1 -4 -2 -19 -4 -33 -1 -14 -14 -69 -30 -122 -31 -109
-26 -104 -135 -110 -69 -4 -48 -23 25 -23 36 0 65 -4 65 -8 0 -5 -14 -54 -31
-108 -17 -55 -28 -107 -25 -115 9 -24 30 -11 33 22 2 16 16 69 31 119 24 74
33 90 52 95 30 7 38 30 11 30 -12 0 -21 3 -21 6 0 3 14 50 31 105 31 100 34
139 12 147 -7 2 -14 0 -14 -5z"/>
<path d="M7714 4155 c-4 -9 -4 -26 -2 -40 3 -13 2 -26 -1 -27 -6 -3 -84 -223
-106 -301 -12 -42 -12 -49 2 -54 8 -3 18 -1 22 4 25 40 116 153 123 153 5 0 5
-19 1 -42 -12 -66 -10 -121 5 -125 8 -3 12 6 12 27 0 17 7 60 16 96 15 59 15
67 2 81 -21 20 -46 6 -94 -54 -55 -70 -56 -71 -44 -38 77 197 110 335 81 335
-7 0 -14 -7 -17 -15z"/>
<path d="M10634 4160 c-11 -4 -35 -31 -53 -59 -37 -56 -120 -247 -121 -273 0
-17 -9 -21 -67 -33 -20 -4 -33 -13 -33 -22 0 -12 8 -13 41 -8 40 7 41 6 33
-16 -24 -77 -33 -124 -24 -133 15 -15 25 2 38 59 20 94 26 103 77 110 25 4 48
11 51 16 9 16 -24 22 -57 10 -31 -11 -31 -11 -25 19 8 44 73 192 107 245 23
36 34 45 52 43 17 -2 22 2 22 21 0 28 -11 33 -41 21z"/>
<path d="M11320 4008 l-45 -153 -62 3 c-34 1 -64 -2 -67 -7 -9 -14 7 -21 60
-26 25 -2 48 -5 50 -7 2 -2 -6 -32 -16 -67 -24 -75 -25 -101 -5 -101 8 0 15 8
15 18 0 10 11 49 23 88 23 67 25 69 62 74 51 7 59 30 11 30 -20 0 -36 2 -36 4
0 2 18 64 40 137 44 146 46 159 27 159 -8 0 -30 -59 -57 -152z"/>
<path d="M11475 4053 c-13 -76 -47 -179 -75 -223 -16 -25 -36 -62 -45 -83 -14
-34 -14 -38 0 -43 11 -5 28 8 53 37 64 77 122 125 122 103 0 -4 -8 -28 -17
-55 -16 -44 -16 -50 -2 -64 12 -13 21 -14 43 -5 24 9 30 7 46 -12 16 -21 27
-23 104 -23 67 0 89 4 102 17 16 16 13 17 -56 12 -81 -6 -130 2 -130 19 1 7
21 25 46 41 52 33 74 68 57 94 -5 9 -17 18 -25 20 -22 4 -76 -44 -98 -88 -17
-34 -37 -50 -61 -50 -5 0 1 25 12 55 11 30 18 59 14 65 -12 20 -61 10 -97 -20
l-36 -30 19 39 c22 46 59 176 59 208 0 39 -28 27 -35 -14z m209 -224 c-24 -27
-60 -47 -49 -27 16 28 39 48 53 48 12 0 11 -4 -4 -21z"/>
<path d="M13663 3983 l-40 -98 -48 -1 c-70 -1 -75 -31 -6 -36 33 -2 37 -11 21
-53 -18 -47 -15 -133 5 -155 32 -35 135 -22 135 16 0 12 -5 14 -17 8 -10 -4
-36 -8 -58 -8 l-40 -1 -3 48 c-2 27 4 70 13 96 l16 48 89 6 c88 6 140 21 124
37 -5 5 -48 4 -97 -2 -48 -6 -90 -8 -93 -5 -4 4 10 44 30 91 40 93 42 106 23
106 -8 0 -31 -44 -54 -97z"/>
<path d="M2283 4058 c-4 -7 -34 -26 -67 -42 -129 -65 -246 -226 -246 -339 0
-43 26 -91 63 -112 52 -32 185 -28 260 7 31 15 57 32 57 37 0 15 -27 14 -53
-3 -34 -22 -140 -39 -193 -31 -33 5 -56 16 -77 36 -26 27 -29 35 -25 78 3 26
15 69 28 96 31 63 127 165 188 198 l49 26 -1 -67 c-1 -76 12 -87 48 -39 23 31
28 109 8 129 -6 6 -8 17 -5 24 7 18 -23 19 -34 2z m18 -109 l-10 -24 0 26 c-1
14 2 29 6 33 12 12 14 -9 4 -35z"/>
<path d="M2566 4058 c-2 -7 -20 -71 -40 -143 -19 -71 -46 -161 -60 -200 -23
-66 -25 -85 -7 -85 4 0 32 30 62 68 43 54 54 63 57 47 10 -59 24 -95 37 -95
12 0 13 10 8 48 -13 98 -33 114 -86 65 -26 -24 -29 -25 -24 -8 2 11 23 83 45
159 23 77 39 143 36 148 -8 12 -24 10 -28 -4z"/>
<path d="M5169 4043 c0 -10 -1 -65 -3 -123 -3 -126 -19 -182 -63 -227 -42 -41
-79 -44 -93 -7 -14 37 15 87 56 94 40 7 40 36 -1 32 -33 -4 -81 -49 -91 -85
-7 -31 10 -73 39 -92 19 -12 30 -13 53 -5 92 35 134 142 134 337 0 76 -3 93
-15 93 -8 0 -15 -8 -16 -17z"/>
<path d="M3170 4008 c0 -52 -17 -158 -30 -193 -9 -25 -11 -25 -32 -11 -12 9
-30 16 -39 16 -27 0 -75 -63 -88 -115 -10 -40 -9 -51 4 -71 27 -42 53 -30 109
50 66 93 85 138 100 237 15 97 12 129 -10 129 -10 0 -14 -13 -14 -42z m-68
-260 c-9 -17 -34 -49 -54 -72 l-37 -41 -1 33 c0 41 23 97 45 109 9 6 28 8 41
5 24 -4 24 -5 6 -34z"/>
<path d="M2915 4030 c3 -5 1 -10 -4 -10 -6 0 -11 -10 -11 -22 0 -13 -20 -97
-45 -188 -48 -175 -56 -240 -30 -240 10 0 15 10 15 33 0 18 16 91 36 162 42
156 64 257 58 267 -3 4 -10 8 -15 8 -6 0 -7 -4 -4 -10z"/>
<path d="M7908 3898 c-33 -27 -68 -93 -68 -130 0 -50 8 -66 41 -83 47 -25 179
-17 179 10 0 9 -18 11 -70 7 -54 -4 -75 -1 -95 12 -39 25 -33 58 14 77 51 22
75 57 62 93 -11 28 -37 34 -63 14z m32 -38 c0 -12 -12 -26 -32 -36 -36 -19
-35 -17 11 39 18 22 21 21 21 -3z"/>
<path d="M2729 3898 c-9 -31 -6 -50 7 -55 24 -9 38 11 25 36 -10 17 -29 29
-32 19z"/>
<path d="M12405 3881 c-38 -24 -75 -64 -109 -118 -14 -24 -31 -43 -36 -43 -6
0 -10 -7 -10 -17 0 -9 -8 -41 -17 -71 -12 -38 -24 -57 -41 -63 -12 -5 -99 -12
-192 -15 -155 -7 -168 -8 -160 -24 5 -10 19 -16 32 -15 13 1 92 6 175 10 l153
7 -14 -39 c-8 -21 -19 -50 -26 -65 l-13 -28 -211 -2 c-116 -1 -221 -1 -233 0
-13 0 -23 -3 -23 -9 0 -5 0 -12 0 -15 0 -7 450 -5 555 2 74 5 1248 -22 1515
-35 289 -14 290 -14 290 2 0 10 -53 16 -257 26 -231 11 -1340 41 -1519 41
l-71 0 25 64 25 63 141 6 c229 11 564 8 1184 -9 321 -9 586 -13 589 -10 18 17
-28 24 -202 30 -650 21 -1071 28 -1367 23 l-336 -5 15 51 c38 131 144 261 196
241 29 -11 -17 -135 -68 -187 -33 -32 -61 -35 -68 -7 -7 27 -27 25 -27 -3 0
-61 63 -64 120 -6 55 57 104 195 77 217 -25 21 -62 23 -92 3z"/>
<path d="M12833 3880 c-56 -34 -119 -170 -80 -170 14 0 37 40 37 65 0 8 17 32
38 55 34 35 43 39 70 34 25 -5 32 -3 32 9 0 13 -27 27 -55 27 -5 0 -24 -9 -42
-20z"/>
<path d="M3267 3840 c-15 -12 -35 -36 -44 -53 -18 -35 -43 -122 -43 -149 0
-27 29 -22 40 6 5 13 14 27 20 31 8 5 8 11 -1 21 -28 34 38 130 94 136 43 4
41 22 -4 26 -24 2 -43 -4 -62 -18z"/>
<path d="M9000 3846 c-56 -31 -94 -107 -79 -160 11 -38 34 -51 84 -47 39 4 47
13 39 45 -7 31 -34 35 -41 5 -8 -28 -47 -22 -51 8 -3 17 4 26 25 35 41 18 103
68 103 83 0 13 -37 46 -50 45 -3 -1 -16 -7 -30 -14z m35 -42 c-11 -9 -33 -22
-50 -31 l-30 -15 29 31 c17 17 39 31 50 31 21 -1 21 -1 1 -16z"/>
<path d="M13007 3839 c-20 -11 -51 -38 -67 -61 -54 -75 -32 -128 54 -128 57 0
125 25 109 41 -7 7 -22 7 -49 -1 -59 -18 -108 -10 -112 18 -3 18 1 22 25 22
15 0 47 9 71 20 42 19 43 21 40 62 -4 51 -17 56 -71 27z m43 -35 c0 -12 -54
-44 -74 -44 -14 0 10 32 33 45 34 18 41 18 41 -1z"/>
<path d="M4577 3844 c-4 -4 -7 -18 -7 -31 0 -25 -42 -117 -67 -145 -15 -16
-11 -38 7 -38 4 0 31 29 60 65 53 66 106 112 118 101 3 -4 -2 -31 -12 -60 -21
-60 -11 -96 24 -96 21 0 28 26 9 32 -9 3 -9 21 1 70 21 104 -3 125 -74 67
l-38 -32 4 33 c3 31 -10 49 -25 34z"/>
<path d="M5548 3828 c-48 -28 -49 -54 -3 -98 19 -19 35 -37 35 -41 0 -4 -13
-12 -29 -19 -23 -9 -33 -9 -49 1 -12 7 -24 10 -27 7 -8 -8 15 -46 31 -52 19
-7 99 37 102 57 2 10 -13 36 -34 59 -35 39 -36 42 -18 55 10 8 29 16 42 20 26
6 30 33 5 33 -10 0 -35 -10 -55 -22z"/>
<path d="M5294 3821 c-83 -51 -99 -132 -33 -166 42 -22 66 -18 99 15 17 17 30
33 30 35 0 3 -13 5 -30 5 -23 0 -30 -4 -30 -20 0 -24 -26 -26 -58 -4 -30 21
-28 34 6 34 38 0 123 55 119 77 -7 47 -49 57 -103 24z m76 -16 c0 -10 -76 -55
-93 -55 -24 0 -13 17 27 41 28 17 66 26 66 14z"/>
<path d="M12585 3803 c-26 -26 -35 -44 -33 -63 4 -30 38 -39 71 -17 22 14 22
14 19 -25 -4 -37 10 -68 30 -68 5 0 7 13 3 30 -4 17 -1 53 6 80 7 27 10 53 6
57 -4 3 -28 -8 -53 -26 -53 -39 -70 -34 -29 9 19 19 39 30 57 30 18 0 28 5 28
15 0 10 -11 15 -35 15 -26 0 -42 -8 -70 -37z"/>
<path d="M13273 3803 c-26 -20 -40 -26 -29 -15 17 20 17 22 2 28 -19 7 -28 -3
-76 -79 -25 -39 -28 -49 -15 -53 15 -6 31 5 119 78 31 26 38 29 32 13 -19 -49
-19 -88 -1 -101 23 -17 63 -18 98 -1 42 19 32 28 -23 21 -62 -8 -69 3 -41 76
31 82 11 92 -66 33z"/>
<path d="M4842 3779 c-13 -16 -26 -47 -29 -68 -5 -34 -2 -41 21 -57 25 -16 29
-16 62 -1 40 19 42 36 17 108 -20 57 -38 61 -71 18z m49 -50 c11 -28 10 -33
-5 -45 -20 -14 -46 -8 -46 11 0 22 19 65 29 65 5 0 14 -14 22 -31z"/>
<path d="M3655 3750 c-27 -27 -53 -50 -57 -50 -5 0 0 17 11 39 19 36 19 51 0
51 -12 0 -40 -56 -32 -64 4 -3 -1 -12 -10 -19 -9 -6 -20 -27 -23 -44 -10 -49
20 -43 84 17 53 49 53 49 47 19 -9 -42 16 -79 55 -79 41 0 110 29 110 46 0 18
-11 18 -46 -1 -37 -19 -80 -19 -88 0 -5 13 9 70 29 118 15 35 -31 17 -80 -33z"/>
<path d="M3428 3763 c-61 -67 -74 -115 -40 -146 21 -19 83 -22 113 -7 25 14
26 46 2 34 -10 -4 -36 -8 -58 -8 -35 -1 -40 2 -43 22 -3 20 0 23 15 18 26 -8
87 33 91 61 3 22 -21 53 -42 53 -7 0 -24 -12 -38 -27z m52 -23 c0 -5 -14 -17
-31 -25 l-30 -16 17 25 c16 26 44 35 44 16z"/>
<path d="M10283 3767 c-35 -20 -65 -65 -70 -107 -9 -65 30 -90 78 -51 21 16
24 28 24 79 -1 53 1 59 18 54 14 -4 18 0 15 14 -4 23 -35 28 -65 11z m-13
-133 c-7 -7 -17 -11 -22 -8 -12 8 -3 61 15 82 10 13 12 9 15 -22 2 -21 -2 -44
-8 -52z"/>
<path d="M2685 3730 c-15 -25 -34 -105 -26 -113 15 -15 29 1 36 44 4 23 15 45
26 52 10 6 19 15 19 19 0 11 -48 10 -55 -2z"/>
<path d="M5692 3513 c-88 -247 -113 -339 -95 -356 9 -10 33 13 27 27 -2 6 21
88 52 181 62 188 64 196 48 202 -6 2 -21 -22 -32 -54z"/>
<path d="M11762 3544 c2 -11 15 -21 34 -25 27 -5 31 -3 26 13 -2 10 -10 18
-17 18 -8 0 -21 3 -30 6 -13 5 -16 2 -13 -12z"/>
<path d="M7973 3533 c-30 -86 -72 -173 -77 -164 -4 6 -25 11 -46 11 l-38 0 19
55 c10 30 19 61 19 70 0 26 -27 16 -33 -12 -3 -16 -14 -49 -25 -74 l-20 -47
-71 -7 c-39 -4 -74 -12 -78 -18 -3 -6 -1 -7 5 -3 7 4 12 2 12 -4 0 -7 19 -9
60 -5 33 4 60 4 60 1 0 -3 -7 -31 -15 -63 -18 -70 -20 -116 -3 -111 7 3 18 31
25 64 23 111 27 119 57 122 16 2 39 1 51 -2 22 -6 22 -7 7 -51 -12 -37 -12
-49 -2 -58 9 -9 25 2 71 52 32 36 62 62 65 58 4 -4 2 -28 -4 -55 -9 -38 -8
-50 3 -61 17 -17 18 -15 33 69 18 99 -14 116 -85 46 -50 -50 -50 -47 3 84 19
46 34 90 34 97 0 20 -20 25 -27 6z"/>
<path d="M10549 3518 c-6 -11 -21 -51 -34 -87 l-22 -66 -72 3 c-58 3 -71 1
-71 -11 0 -18 30 -27 88 -27 23 0 42 -2 42 -3 0 -2 -9 -32 -20 -66 -20 -61
-19 -106 3 -98 6 2 16 30 23 63 21 103 26 110 80 118 78 10 77 11 44 -51 -34
-63 -28 -85 14 -58 14 10 26 21 26 25 0 13 92 100 106 100 17 0 17 3 -2 -53
-16 -48 -16 -95 1 -88 10 5 29 64 41 128 5 25 2 33 -15 42 -24 14 -50 3 -92
-36 l-27 -25 35 86 c19 48 33 93 31 102 -7 33 -22 16 -47 -55 -20 -56 -31 -75
-46 -77 -11 -2 -40 -6 -63 -9 -50 -7 -50 -11 -7 97 12 32 20 60 17 63 -10 10
-21 5 -33 -17z"/>
<path d="M3516 3523 c-3 -3 -6 -26 -6 -50 0 -35 -52 -227 -66 -242 -2 -2 -10
2 -18 8 -22 19 -31 -6 -12 -34 20 -30 21 -30 93 -3 98 36 144 104 89 129 -20
10 -31 8 -59 -10 l-35 -22 19 63 c27 89 24 190 -5 161z m68 -237 c-6 -14 -83
-61 -90 -53 -8 7 76 78 86 72 5 -3 7 -12 4 -19z"/>
<path d="M8713 3520 c-131 -7 -163 -16 -163 -46 0 -17 22 -18 38 -2 18 18 275
26 722 22 223 -1 443 -4 489 -6 56 -2 85 1 88 8 2 6 -4 15 -14 20 -22 11 -981
14 -1160 4z"/>
<path d="M5537 3493 c-4 -3 -7 -22 -7 -41 0 -33 -65 -246 -82 -268 -11 -15 1
-44 18 -44 8 0 14 7 14 15 0 8 13 52 29 98 34 100 64 225 56 238 -7 11 -19 12
-28 2z"/>
<path d="M2857 3473 c-3 -10 -13 -51 -22 -90 -16 -70 -18 -73 -54 -83 -20 -5
-44 -10 -53 -10 -9 0 -20 -5 -23 -10 -10 -17 26 -24 66 -13 38 10 39 10 33
-16 -4 -14 -13 -44 -20 -66 -18 -51 -17 -65 0 -65 9 0 21 22 31 58 28 100 31
107 51 110 74 11 90 32 25 32 l-38 0 18 78 c10 42 19 80 19 85 0 15 -29 6 -33
-10z"/>
<path d="M4623 3415 c-27 -19 -30 -59 -8 -112 8 -19 15 -39 15 -43 0 -12 -49
-30 -55 -20 -8 13 -35 1 -35 -16 0 -36 102 -17 117 22 3 9 -3 40 -13 71 -18
54 -18 55 1 69 10 8 36 14 58 14 55 0 43 24 -14 28 -28 2 -52 -3 -66 -13z"/>
<path d="M10983 3400 c-31 -12 -98 -84 -113 -119 -15 -38 -2 -81 31 -99 29
-16 174 -11 191 6 7 7 20 12 30 12 10 0 18 7 18 15 0 8 -2 15 -5 15 -2 0 -30
-7 -62 -15 -31 -8 -76 -15 -99 -15 -85 0 -115 70 -36 85 44 8 98 40 112 64 6
13 4 24 -6 39 -16 24 -27 26 -61 12z m32 -49 c-6 -5 -28 -16 -50 -25 l-40 -16
38 36 c29 26 42 33 50 25 7 -7 7 -14 2 -20z"/>
<path d="M3780 3393 c-39 -15 -110 -103 -110 -138 0 -37 40 -65 91 -64 67 1
97 9 103 26 8 20 1 27 -16 17 -33 -21 -115 -21 -136 -1 -20 21 -6 57 21 57 28
1 97 40 111 64 9 13 7 20 -8 32 -21 15 -31 16 -56 7z m30 -31 c0 -5 -17 -16
-37 -26 -33 -16 -35 -16 -23 -1 8 10 23 21 35 25 26 11 25 11 25 2z"/>
<path d="M4809 3368 c-30 -64 -63 -177 -55 -185 5 -4 44 30 88 77 l79 85 -16
-44 c-8 -24 -15 -47 -15 -52 0 -24 48 -4 110 46 l69 55 -1 -39 c0 -22 3 -44 6
-50 11 -16 46 -13 46 4 0 8 -5 15 -11 15 -8 0 -10 18 -6 60 9 83 0 81 -133
-29 l-41 -33 20 51 c16 42 17 52 5 62 -11 9 -28 -3 -83 -58 l-70 -70 20 51
c25 62 27 78 13 83 -5 2 -17 -11 -25 -29z"/>
<path d="M8950 3397 c-3 -3 -80 -7 -173 -9 -120 -2 -167 -6 -167 -15 0 -18 36
-25 88 -19 169 20 769 14 1090 -11 68 -5 82 -3 82 9 0 12 -30 17 -152 26 -170
13 -760 28 -768 19z"/>
<path d="M5280 3373 c-23 -9 -60 -45 -76 -75 -31 -60 10 -101 79 -81 30 8 33
7 42 -22 10 -30 44 -44 36 -15 -8 28 -2 69 15 95 15 23 15 25 -1 31 -10 4 -22
-1 -32 -16 -16 -22 -70 -50 -98 -50 -20 0 -20 39 1 68 21 30 62 46 79 32 18
-15 30 6 15 25 -13 15 -33 18 -60 8z"/>
<path d="M8155 3335 c-50 -50 -59 -87 -24 -105 15 -8 29 -8 52 -1 30 11 46 3
47 -21 0 -5 7 -8 16 -8 9 0 14 7 12 18 -1 9 4 32 11 50 16 37 8 52 -17 34 -37
-27 -97 -51 -106 -42 -12 12 39 79 70 90 29 11 32 30 4 30 -11 0 -41 -20 -65
-45z"/>
<path d="M2047 3334 c-34 -34 -37 -36 -37 -15 0 44 -23 14 -45 -59 -12 -41
-27 -86 -32 -100 -10 -26 -7 -50 7 -50 4 0 25 34 46 76 39 76 88 144 104 144
4 0 2 -21 -6 -47 -29 -97 -4 -112 63 -36 l42 48 1 -43 c0 -53 14 -82 40 -82
24 0 25 4 4 35 -10 15 -15 42 -14 72 2 26 2 54 1 61 -2 25 -30 11 -70 -35 -33
-38 -40 -42 -34 -23 26 88 -8 115 -70 54z"/>
<path d="M2592 3340 c-50 -30 -59 -61 -33 -105 11 -20 21 -39 21 -42 0 -3 -16
-3 -35 -1 -41 5 -49 -16 -11 -33 18 -9 30 -7 55 5 37 20 39 32 6 75 -31 43
-21 63 40 86 25 10 45 22 45 26 0 16 -55 9 -88 -11z"/>
<path d="M5784 3331 c-46 -32 -72 -69 -80 -110 -9 -45 31 -81 91 -81 48 0 85
13 85 31 0 6 -16 8 -45 3 -78 -11 -111 7 -98 55 4 15 13 21 35 21 60 0 114 44
104 85 -9 34 -42 33 -92 -4z m66 -11 c0 -11 -59 -44 -66 -37 -6 6 45 47 57 47
5 0 9 -4 9 -10z"/>
<path d="M6090 3352 c-30 -13 -100 -76 -100 -89 0 -8 -7 -25 -16 -38 -18 -28
-15 -60 6 -60 9 0 21 18 30 44 8 24 29 60 46 80 31 35 34 36 98 35 36 0 66 3
66 7 0 24 -91 38 -130 21z"/>
<path d="M8377 3323 c-8 -16 -26 -50 -41 -77 -15 -27 -23 -53 -19 -57 5 -5 34
15 65 45 30 30 64 59 75 64 19 10 20 8 19 -51 -1 -45 3 -62 12 -62 9 0 14 22
17 73 5 87 -6 98 -67 63 -38 -21 -39 -22 -29 -2 14 26 14 31 -3 31 -8 0 -21
-12 -29 -27z"/>
<path d="M2396 3331 c-3 -5 1 -16 9 -24 22 -23 18 -60 -8 -85 -43 -41 -57 -30
-57 43 0 49 -3 65 -14 65 -10 0 -14 -17 -14 -70 0 -59 3 -72 20 -84 25 -18 52
-10 89 27 25 25 30 36 27 70 -3 40 -39 80 -52 58z"/>
<path d="M12851 3290 c-44 -32 -81 -83 -81 -113 0 -9 11 -22 24 -29 21 -9 31
-7 62 11 20 12 39 19 43 15 3 -4 0 -9 -6 -11 -20 -7 -15 -31 7 -38 27 -9 39 1
33 25 -3 11 0 34 7 50 7 16 10 37 6 45 -4 13 -16 8 -57 -25 -28 -22 -60 -40
-70 -40 -18 0 -19 2 -4 29 21 42 71 74 111 73 38 -2 44 12 15 28 -30 16 -45
12 -90 -20z"/>
<path d="M13800 3303 c0 -9 -5 -31 -12 -49 -11 -32 -13 -33 -77 -36 -40 -2
-66 -8 -69 -15 -3 -10 13 -13 57 -13 l61 0 -10 -26 c-15 -38 -12 -74 5 -74 8
0 15 8 15 19 0 10 5 32 11 50 10 29 14 31 60 31 28 0 49 5 49 11 0 5 5 7 12 3
7 -4 8 -3 4 4 -4 7 -28 12 -53 12 -39 0 -44 2 -38 18 5 9 10 32 13 50 3 25 1
32 -12 32 -9 0 -16 -8 -16 -17z"/>
<path d="M12662 3290 c-18 -11 -35 -26 -38 -34 -3 -8 -13 -16 -23 -19 -11 -3
-20 -17 -24 -39 -3 -19 -26 -80 -51 -135 -49 -106 -58 -143 -39 -150 12 -4 72
114 104 200 10 28 16 33 39 29 73 -11 160 126 101 158 -26 14 -31 13 -69 -10z
m52 -43 c-8 -27 -53 -77 -70 -77 -35 0 -11 65 34 93 32 19 45 13 36 -16z"/>
<path d="M13252 3262 c-73 -68 -47 -121 62 -130 50 -4 106 12 91 26 -3 4 -34
7 -69 7 -39 0 -69 5 -80 14 -15 13 -12 16 35 35 56 23 76 44 66 70 -12 29 -60
19 -105 -22z m68 3 c0 -2 -10 -9 -22 -15 -22 -11 -22 -10 -4 4 21 17 26 19 26
11z"/>
<path d="M13519 3274 c-13 -7 -33 -14 -44 -14 -26 -1 -69 -55 -61 -76 5 -13
11 -12 37 10 17 15 44 33 59 41 l27 14 -10 -38 c-11 -42 -5 -71 16 -71 9 0 14
12 14 33 0 17 3 48 8 68 9 43 -7 54 -46 33z"/>
<path d="M13103 3272 c-51 -16 -107 -92 -84 -115 14 -14 35 5 55 47 16 34 58
52 90 40 19 -7 32 16 15 27 -16 10 -44 10 -76 1z"/>
<path d="M13881 3104 c-23 -43 -113 -134 -132 -134 -5 0 -9 -7 -9 -15 0 -33
38 -12 105 58 39 39 83 78 100 85 l29 14 -24 19 c-36 27 -42 24 -69 -27z"/>
<path d="M5130 3055 c-157 -7 -334 -18 -395 -24 -60 -6 -164 -13 -230 -16
-133 -7 -585 -34 -1060 -65 -354 -23 -859 -40 -1277 -43 -215 -1 -288 -5 -288
-14 0 -30 0 -30 570 -14 606 16 636 18 1315 61 506 32 619 39 855 50 562 26
764 31 1335 37 427 4 612 9 618 17 6 8 10 7 14 -1 7 -19 53 -16 53 2 0 13 -31
15 -217 15 -120 0 -396 2 -613 4 -251 3 -499 0 -680 -9z"/>
<path d="M7084 2830 c-10 -10 -190 -31 -255 -30 -19 1 -214 -3 -434 -9 -220
-5 -535 -12 -700 -15 -429 -9 -1411 -36 -2025 -56 -313 -11 -551 -22 -831 -40
-276 -17 -554 -29 -719 -31 -154 -2 -211 -9 -235 -30 -5 -6 -5 -13 3 -21 8 -8
15 -8 27 2 13 11 85 16 303 21 292 7 584 22 792 40 63 5 250 14 415 19 165 5
359 12 430 15 72 3 358 7 636 10 278 3 514 7 525 9 10 2 161 7 334 10 173 3
545 11 825 17 281 5 573 16 650 24 77 8 173 17 213 21 68 6 72 8 72 30 0 25
-9 31 -26 14z"/>
<path d="M6045 2440 c-3 -6 -21 -54 -39 -108 -18 -53 -48 -132 -66 -174 l-32
-78 -41 0 c-56 0 -87 -9 -87 -25 0 -10 13 -12 55 -8 30 3 55 3 55 1 0 -3 -11
-36 -25 -72 -29 -78 -31 -103 -9 -135 15 -21 22 -23 77 -18 54 5 76 16 77 41
0 4 -8 5 -17 1 -10 -3 -39 -9 -64 -12 -41 -5 -48 -3 -53 15 -8 24 0 59 26 122
26 61 40 70 100 63 41 -5 50 -3 46 8 -2 7 -24 18 -49 22 -24 5 -45 10 -47 12
-2 1 15 47 36 101 39 98 86 235 84 244 -2 10 -21 10 -27 0z"/>
<path d="M7057 2434 c-4 -4 -7 -20 -7 -37 0 -42 -89 -320 -108 -334 -9 -7 -36
-13 -61 -13 -59 0 -93 -10 -88 -24 6 -18 33 -18 51 -1 10 10 16 12 16 5 0 -8
14 -10 40 -7 22 2 40 3 40 2 0 -1 -11 -47 -25 -101 -23 -93 -22 -125 4 -110 6
4 11 17 12 29 0 12 10 60 22 107 20 75 25 85 44 82 29 -4 41 18 14 25 -12 3
-21 8 -21 12 0 9 66 222 78 251 23 59 16 140 -11 114z"/>
<path d="M13117 2323 c-3 -5 -14 -44 -25 -88 -12 -44 -27 -98 -34 -120 l-13
-40 -68 -9 c-50 -6 -67 -12 -67 -24 0 -12 10 -14 60 -9 33 4 60 5 60 2 0 -2
-18 -42 -41 -90 -33 -69 -39 -88 -29 -100 14 -17 30 -11 30 10 0 8 17 53 38
100 l37 85 53 0 c30 0 52 5 52 11 0 5 5 7 10 4 6 -3 10 -2 10 3 0 11 -87 25
-101 16 -13 -8 -12 0 21 116 17 58 30 113 30 123 0 17 -15 24 -23 10z"/>
<path d="M10352 2283 c-13 -25 -62 -173 -62 -187 0 -7 -21 -19 -47 -27 -54
-16 -56 -36 -4 -31 24 2 32 0 29 -10 -21 -53 -41 -129 -35 -134 13 -13 27 10
53 89 l27 82 41 1 c51 0 79 10 71 24 -4 7 -26 8 -56 4 l-50 -7 7 29 c6 25 35
108 59 167 5 12 2 17 -9 17 -8 0 -19 -8 -24 -17z"/>
<path d="M11067 2294 c-4 -4 -7 -22 -7 -39 0 -46 -108 -312 -142 -351 -10 -12
-20 -34 -21 -50 -2 -27 1 -29 40 -32 99 -7 213 126 137 160 -19 9 -33 9 -55 1
-34 -13 -35 -13 -9 37 39 77 78 187 81 230 3 40 -8 60 -24 44z m-3 -343 c4 -5
3 -17 0 -25 -8 -21 -87 -76 -109 -76 -13 0 -13 5 5 40 26 50 88 87 104 61z"/>
<path d="M7127 2246 c-3 -19 -28 -91 -56 -160 -56 -139 -72 -206 -49 -206 7 0
21 13 31 28 18 33 77 92 89 92 12 0 10 -36 -7 -101 -12 -44 -13 -64 -5 -79 16
-29 27 -17 33 37 4 27 9 69 13 95 11 78 -27 101 -86 52 l-31 -26 21 52 c12 29
25 61 31 71 14 27 49 141 49 162 0 32 -27 18 -33 -17z"/>
<path d="M4662 2254 c-5 -11 -15 -62 -21 -114 -20 -149 -43 -217 -96 -272 -28
-30 -33 -32 -54 -19 -30 19 34 112 79 115 11 0 20 4 20 9 0 4 0 12 0 17 0 21
-41 9 -75 -21 -39 -35 -65 -77 -65 -107 0 -25 31 -52 60 -52 34 0 94 69 119
135 27 71 65 305 52 318 -6 6 -13 2 -19 -9z"/>
<path d="M2447 2234 c-4 -4 -7 -28 -7 -54 0 -26 -16 -110 -35 -188 -27 -109
-33 -146 -25 -166 11 -29 22 -33 39 -12 8 10 9 16 1 21 -16 10 -12 48 19 168
40 153 44 266 8 231z"/>
<path d="M2760 2213 c-1 -58 -21 -198 -30 -207 -7 -7 -10 -6 -10 2 0 7 -15 12
-39 12 -32 0 -44 -6 -69 -35 -56 -64 -53 -155 6 -155 19 0 39 12 64 38 54 56
86 128 98 223 14 115 13 139 -5 139 -8 0 -15 -8 -15 -17z m-40 -234 c0 -18
-59 -98 -81 -110 -47 -25 -49 46 -4 95 24 26 85 37 85 15z"/>
<path d="M8827 2224 c-4 -4 -7 -13 -7 -21 0 -8 -14 -47 -32 -87 l-31 -74 -54
-11 c-36 -9 -53 -17 -53 -28 0 -12 7 -14 36 -9 19 4 41 9 49 12 19 8 -12 -97
-34 -112 -13 -10 -13 -14 -2 -28 25 -30 38 -16 57 60 21 87 22 88 134 99 41 4
83 12 94 17 35 19 0 25 -87 15 -48 -5 -90 -7 -93 -4 -3 3 5 34 19 69 14 35 27
72 29 82 3 19 -13 32 -25 20z"/>
<path d="M8496 2213 c-3 -3 -6 -26 -6 -50 0 -28 -14 -76 -41 -140 -41 -95 -53
-153 -34 -159 6 -2 35 16 65 41 l55 45 6 -36 c3 -20 12 -40 20 -45 19 -12 35
7 21 24 -7 8 -11 31 -9 53 2 36 0 39 -22 36 -14 -1 -38 -13 -55 -25 -63 -47
-63 -46 3 106 29 67 27 180 -3 150z"/>
<path d="M2047 2203 c-3 -5 -13 -49 -22 -98 -9 -50 -25 -121 -35 -158 -25 -90
-10 -98 63 -31 l52 49 3 -30 c4 -42 21 -83 38 -89 19 -7 31 23 14 34 -7 4 -15
28 -17 54 -8 67 -23 74 -79 36 -26 -17 -44 -25 -42 -18 3 7 10 38 17 68 6 30
15 78 21 105 6 28 12 56 13 64 2 16 -18 26 -26 14z"/>
<path d="M2302 2143 c2 -10 13 -18 25 -19 19 -1 21 2 12 17 -13 24 -42 25 -37
2z"/>
<path d="M8140 2115 c0 -8 7 -15 15 -15 8 0 15 7 15 15 0 8 -7 15 -15 15 -8 0
-15 -7 -15 -15z"/>
<path d="M13553 2091 c-58 -27 -127 -93 -157 -151 -30 -56 -33 -80 -11 -80 8
0 15 4 15 9 0 5 22 42 49 83 42 65 57 80 106 104 53 25 61 27 101 16 56 -15
64 -15 64 1 0 15 -62 37 -101 37 -13 0 -43 -9 -66 -19z"/>
<path d="M2940 2080 c0 -11 -7 -20 -15 -20 -22 0 -86 -61 -101 -95 -6 -16 -15
-51 -19 -77 -6 -39 -4 -48 8 -48 10 0 18 19 26 58 14 70 50 117 106 136 30 10
39 18 37 32 -7 34 -42 46 -42 14z"/>
<path d="M6129 2053 c-1 -10 -1 -21 0 -25 0 -4 -10 -19 -24 -34 -35 -37 -51
-94 -35 -123 9 -19 17 -21 43 -15 18 3 51 18 75 31 54 32 55 57 2 118 -22 25
-40 50 -40 56 0 17 -20 9 -21 -8z m50 -79 c28 -35 27 -39 -15 -63 -49 -29 -78
-28 -69 2 8 27 47 87 57 87 4 0 16 -12 27 -26z"/>
<path d="M7929 2057 c-79 -60 -89 -76 -113 -167 -21 -82 -21 -110 2 -96 5 3
19 40 32 83 25 86 46 121 86 148 22 14 28 15 35 4 9 -16 7 -59 -5 -77 -4 -7
-4 -17 -1 -22 11 -19 37 11 32 37 -2 13 0 23 4 23 14 0 10 34 -7 58 -17 24
-41 28 -65 9z"/>
<path d="M3043 2050 c-12 -5 -34 -30 -49 -57 -16 -26 -32 -49 -36 -51 -12 -5
-10 -32 2 -32 6 0 10 -6 10 -13 0 -42 83 -72 131 -47 34 19 21 30 -26 23 -29
-4 -50 -1 -60 7 -22 19 -19 27 20 46 62 29 94 91 63 122 -14 14 -24 14 -55 2z
m11 -71 c-15 -16 -31 -29 -36 -29 -17 0 -7 23 24 53 40 41 52 18 12 -24z"/>
<path d="M4026 1963 c-49 -129 -52 -143 -32 -143 9 0 16 4 16 8 0 14 130 146
136 139 4 -3 -4 -35 -17 -70 -19 -55 -21 -68 -10 -81 15 -17 51 -22 51 -6 0 5
-7 13 -15 18 -14 7 -12 19 15 92 19 51 27 87 22 92 -12 12 -60 -12 -107 -53
l-34 -31 19 57 c19 54 19 75 1 75 -4 0 -24 -44 -45 -97z"/>
<path d="M9427 2053 c-4 -3 -7 -14 -7 -24 0 -22 -27 -83 -53 -122 -15 -22 -17
-31 -8 -40 9 -9 28 6 81 63 52 56 67 68 60 47 -11 -31 -13 -77 -4 -77 12 0 51
24 91 56 23 19 44 34 46 34 3 0 1 -15 -4 -32 -15 -54 -11 -86 12 -98 22 -12
49 -7 49 9 0 5 -9 11 -20 14 -25 6 -25 29 -1 100 29 83 12 89 -69 22 -30 -25
-58 -45 -61 -45 -4 0 -5 18 -2 40 5 33 3 40 -12 40 -9 0 -30 -9 -46 -21 -30
-21 -34 -18 -30 24 2 17 -10 23 -22 10z"/>
<path d="M12475 2050 c-35 -13 -93 -87 -101 -124 -12 -68 50 -113 119 -87 40
15 35 35 -7 28 -71 -11 -97 17 -72 78 16 37 70 79 91 71 27 -10 16 -27 -30
-47 -48 -21 -59 -39 -24 -39 39 0 99 43 99 72 0 18 -34 59 -47 57 -5 0 -17 -4
-28 -9z"/>
<path d="M7315 2019 c-20 -18 -43 -45 -51 -60 -28 -55 -12 -128 33 -148 30
-14 113 -15 113 -1 0 5 6 7 13 4 16 -6 55 22 45 32 -5 4 -25 2 -47 -4 -57 -18
-98 -15 -121 8 -37 37 -26 62 43 95 65 31 82 59 57 91 -19 22 -46 17 -85 -17z
m65 -8 c0 -13 -55 -51 -72 -51 -7 1 3 14 22 30 35 31 50 37 50 21z"/>
<path d="M9915 2002 c-8 -53 -44 -95 -78 -90 -19 3 -22 9 -22 50 0 56 -11 71
-25 34 -26 -69 5 -134 58 -121 55 13 102 83 102 151 0 41 -28 22 -35 -24z"/>
<path d="M10056 2035 c-61 -22 -67 -47 -24 -107 l19 -27 -26 -17 c-15 -10 -34
-14 -48 -10 -29 7 -41 -2 -26 -21 16 -19 59 -16 97 7 37 23 40 44 12 80 -35
44 -22 70 34 70 29 0 39 10 25 27 -14 16 -14 16 -63 -2z"/>
<path d="M12273 2028 c-22 -24 -53 -105 -53 -138 0 -36 28 -22 35 18 3 20 14
53 23 72 15 30 22 35 54 35 42 0 59 12 38 25 -27 17 -76 11 -97 -12z"/>
<path d="M1735 2009 c-61 -54 -63 -134 -4 -164 56 -29 209 -11 209 25 0 15
-40 12 -45 -3 -7 -16 -136 -7 -158 12 -35 28 -11 98 43 126 21 11 35 12 64 3
20 -6 39 -8 43 -4 14 14 -31 36 -74 36 -33 0 -50 -7 -78 -31z"/>
<path d="M5110 2031 c-107 -33 -146 -95 -84 -136 49 -32 21 -79 -43 -73 -30 2
-38 -1 -41 -15 -3 -17 19 -23 73 -19 20 2 75 54 75 71 0 5 -11 23 -25 39 -14
17 -25 39 -25 49 0 21 56 53 94 53 28 0 36 8 29 26 -6 15 -15 16 -53 5z"/>
<path d="M11199 2009 c-32 -34 -46 -89 -33 -128 6 -16 26 -34 52 -48 39 -19
47 -20 75 -8 17 7 33 19 35 27 2 9 0 8 -7 -2 -6 -9 -11 -10 -11 -3 0 7 -13 10
-37 7 -44 -6 -83 25 -83 65 0 22 5 26 30 28 40 3 79 32 80 59 0 44 -61 46
-101 3z m57 -14 c-26 -19 -42 -19 -26 0 7 8 20 15 29 15 13 -1 13 -3 -3 -15z"/>
<path d="M13189 1991 c-44 -44 -49 -52 -49 -94 0 -55 24 -77 83 -77 41 0 107
23 107 38 0 18 -14 21 -41 7 -29 -16 -76 -19 -103 -9 -26 10 -20 68 10 104 23
27 28 29 38 15 15 -21 44 -10 52 21 15 61 -34 58 -97 -5z"/>
<path d="M3225 2013 c-4 -10 -18 -56 -30 -103 -32 -118 -20 -123 64 -30 l68
74 -5 -52 c-5 -60 7 -82 48 -82 38 0 141 40 147 57 9 24 -1 23 -63 -2 -83 -34
-104 -33 -104 6 0 16 5 50 11 75 6 25 9 48 5 51 -11 12 -53 -20 -101 -76 -49
-58 -53 -51 -21 39 9 25 16 48 16 53 0 15 -28 6 -35 -10z"/>
<path d="M4756 1987 c-88 -91 -78 -197 18 -197 44 0 146 42 146 60 0 13 0 13
-70 -11 -33 -11 -72 -19 -87 -17 -24 3 -28 8 -31 38 -2 34 -1 36 58 63 67 31
78 46 62 83 -17 36 -49 30 -96 -19z m48 -24 c-31 -24 -44 -29 -44 -14 0 15 51
51 63 44 6 -4 -2 -16 -19 -30z"/>
<path d="M8237 2000 c-69 -60 -71 -129 -4 -116 28 6 29 4 23 -22 -4 -15 -21
-56 -39 -92 -29 -58 -35 -65 -59 -62 -40 5 -64 -13 -84 -61 l-18 -44 -241 -8
c-132 -5 -309 -9 -393 -9 -130 -1 -152 -3 -150 -16 3 -12 27 -16 118 -20 63
-3 140 -1 170 5 56 10 1473 14 1585 5 65 -5 88 8 40 23 -18 6 -241 12 -537 14
l-508 4 28 30 c27 29 28 29 85 19 31 -6 62 -8 67 -5 20 13 9 23 -32 30 -80 12
-79 12 -58 48 10 18 31 66 46 107 15 41 33 84 41 95 16 24 17 77 1 93 -20 20
-45 14 -81 -18z m52 -39 c-12 -34 -69 -62 -69 -35 0 20 57 77 69 69 6 -3 6
-16 0 -34z m-141 -303 c-8 -12 -25 -29 -38 -37 -23 -15 -23 -15 -10 9 19 38
31 50 47 50 14 0 14 -3 1 -22z"/>
<path d="M11953 2013 c-38 -21 -83 -78 -83 -106 0 -62 66 -77 133 -31 21 14
41 23 44 21 9 -10 -20 -159 -34 -173 -8 -8 -23 -14 -33 -14 -20 0 -60 -44 -60
-65 0 -10 -47 -14 -187 -19 -104 -4 -269 -11 -367 -16 -160 -9 -180 -8 -191 6
-10 14 -16 14 -34 5 -17 -9 -20 -16 -11 -25 18 -23 66 -26 243 -17 95 6 254
13 353 16 l181 6 -1 -55 c-1 -74 17 -92 50 -51 13 17 32 47 42 69 l17 39 740
-7 c644 -6 964 -15 1014 -28 7 -1 15 2 18 9 8 23 -74 33 -312 38 -512 10 -852
15 -1143 15 l-303 0 3 23 c3 24 21 26 107 11 68 -11 48 17 -25 35 -32 7 -60
15 -61 16 -2 1 4 33 12 71 28 132 17 202 -34 229 -37 19 -39 19 -78 -2z m91
-49 c3 -7 -11 -27 -31 -43 -54 -45 -113 -53 -113 -16 0 19 49 75 74 85 24 8
62 -6 70 -26z m-43 -306 c-8 -23 -51 -39 -51 -19 0 14 29 41 45 41 11 0 12 -6
6 -22z m-21 -65 c0 -5 -9 -21 -20 -38 l-20 -30 0 38 c0 30 4 37 20 37 11 0 20
-3 20 -7z"/>
<path d="M12695 2000 c-39 -26 -65 -60 -65 -88 0 -32 26 -38 68 -16 21 10 40
20 45 22 4 2 7 -10 7 -26 0 -43 9 -62 31 -62 21 0 25 15 8 26 -11 6 -9 30 9
111 5 23 7 45 4 48 -13 12 -79 3 -107 -15z m65 -30 c-41 -31 -100 -62 -100
-52 0 20 71 72 98 72 l27 0 -25 -20z"/>
<path d="M4315 1984 c-11 -8 -21 -25 -21 -37 -1 -12 -5 -36 -9 -53 -9 -38 16
-68 49 -59 29 9 76 61 76 85 0 19 -52 80 -67 80 -4 0 -17 -7 -28 -16z m55 -49
c11 -13 9 -20 -10 -40 -36 -38 -50 -33 -38 15 11 42 27 50 48 25z"/>
<path d="M2256 1978 c-29 -89 -30 -108 -6 -108 8 0 24 46 32 94 3 22 -20 35
-26 14z"/>
<path d="M8045 1940 c-4 -6 -13 -34 -20 -61 -12 -43 -11 -51 1 -56 20 -8 22
-4 34 57 10 52 1 86 -15 60z"/>
<path d="M2715 1623 c-60 -1 -310 -7 -555 -14 -802 -20 -715 -15 -718 -39 -3
-20 0 -21 50 -16 170 18 895 36 1403 36 406 0 641 -11 760 -35 39 -8 71 -15
73 -15 1 0 2 7 2 15 0 30 -161 53 -430 60 -283 8 -464 10 -585 8z"/>
<path d="M2065 1413 c-50 -3 -198 -20 -435 -49 -69 -9 -149 -16 -178 -16 -53
-1 -73 -11 -54 -30 10 -10 117 -2 297 22 180 25 319 39 420 45 127 7 1529 -12
1593 -21 33 -5 42 -4 42 8 0 10 -14 18 -42 22 -76 12 -1498 29 -1643 19z"/>
<path d="M8377 1383 c-232 -7 -597 -19 -810 -25 -245 -8 -392 -9 -398 -3 -12
12 -34 -9 -24 -25 6 -9 84 -10 324 -6 174 4 327 9 341 11 45 7 669 20 973 20
163 0 297 3 297 7 0 31 -182 36 -703 21z"/>
<path d="M11660 1394 c-14 -2 -103 -8 -199 -14 -155 -8 -206 -18 -189 -35 3
-3 128 2 279 10 218 12 349 14 644 7 204 -5 557 -9 785 -10 228 -1 454 -5 503
-8 60 -5 87 -3 87 4 0 6 -6 14 -12 19 -7 4 -276 11 -598 14 -322 4 -740 9
-930 12 -190 3 -356 4 -370 1z"/>
<path d="M10948 1359 c-109 -7 -133 -13 -123 -30 6 -8 41 -7 245 6 36 2 76 5
89 5 24 0 24 0 5 15 -21 16 -51 16 -216 4z"/>
<path d="M11190 1355 c0 -10 11 -15 35 -15 26 0 33 3 29 15 -4 9 -19 15 -35
15 -19 0 -29 -5 -29 -15z"/>
</g>
</svg>
