<?xml version="1.0" standalone="no"?>
<!DOCTYPE svg PUBLIC "-//W3C//DTD SVG 20010904//EN"
 "http://www.w3.org/TR/2001/REC-SVG-20010904/DTD/svg10.dtd">
<svg version="1.0" xmlns="http://www.w3.org/2000/svg"
 width="1618.000000pt" height="1214.000000pt" viewBox="0 0 1618.000000 1214.000000"
 preserveAspectRatio="xMidYMid meet">

<g transform="translate(0.000000,1214.000000) scale(0.100000,-0.100000)"
fill="#000000" stroke="none">
<path d="M12524 11612 c-35 -77 -36 -78 -74 -79 -71 -3 -140 -58 -140 -110 0
-30 21 -72 49 -97 l21 -19 -45 -82 c-25 -45 -45 -90 -45 -99 0 -30 31 -13 44
24 7 19 26 60 42 90 28 51 32 54 72 57 66 4 120 40 151 101 16 30 -11 76 -55
97 l-33 15 25 58 c14 31 33 65 41 74 16 18 12 48 -7 48 -5 0 -26 -35 -46 -78z
m-66 -127 c2 -2 -12 -36 -30 -76 l-34 -73 -22 24 c-40 43 -40 69 2 107 28 26
42 32 59 27 12 -3 23 -8 25 -9z m89 -29 c24 -21 26 -27 18 -52 -13 -35 -68
-74 -106 -74 -16 0 -29 3 -29 7 0 20 65 143 76 143 7 0 25 -11 41 -24z"/>
<path d="M15175 11669 c-4 -6 -2 -14 4 -18 19 -12 -3 -55 -47 -90 -49 -38 -58
-39 -77 -1 -21 41 -19 47 16 59 43 15 42 15 36 -19 -11 -52 23 -45 36 8 11 45
-38 65 -92 38 -51 -27 -55 -39 -27 -95 l26 -50 -44 -31 c-49 -33 -63 -59 -46
-89 34 -65 170 -54 170 13 0 12 -9 39 -19 62 l-18 40 31 22 c61 42 89 78 90
119 1 27 -3 38 -16 41 -9 2 -19 -2 -23 -9z m-86 -285 c-17 -20 -73 -18 -93 5
-16 18 -15 20 26 55 l43 36 18 -41 c14 -32 16 -43 6 -55z"/>
<path d="M12755 11650 c-3 -5 -3 -15 0 -20 4 -6 2 -16 -3 -23 -5 -7 -15 -34
-21 -62 -7 -27 -33 -95 -58 -150 -47 -103 -64 -177 -44 -190 19 -11 44 15 30
31 -13 16 -1 56 51 169 40 86 84 230 75 246 -8 12 -22 12 -30 -1z"/>
<path d="M14529 11653 c-1 -5 -2 -15 -3 -23 -2 -8 -3 -23 -4 -32 -1 -9 -12
-18 -24 -20 -13 -2 -22 -9 -21 -16 2 -6 -9 -15 -25 -18 -70 -17 -142 -90 -142
-145 0 -29 49 -79 76 -79 11 0 2 -24 -30 -84 -42 -76 -59 -132 -37 -124 5 2
31 46 58 98 l50 95 59 11 c32 6 69 16 81 22 54 29 57 91 8 167 -27 43 -33 60
-26 77 22 60 22 78 1 78 -11 0 -20 -3 -21 -7z m-42 -145 c-43 -104 -72 -158
-86 -158 -26 0 -61 29 -61 50 0 26 57 90 95 106 38 17 59 17 52 2z m68 -28
c40 -63 28 -113 -28 -124 -52 -11 -78 -13 -75 -7 2 4 18 44 37 89 19 45 36 82
38 82 1 0 14 -18 28 -40z"/>
<path d="M14806 11636 c-9 -14 -13 -32 -10 -40 3 -8 -17 -65 -45 -126 -56
-122 -62 -150 -31 -150 15 0 20 7 20 25 0 14 22 74 49 133 54 120 71 182 48
182 -8 0 -22 -11 -31 -24z"/>
<path d="M14239 11631 c-20 -4 -57 -21 -84 -37 -26 -16 -56 -33 -66 -39 -10
-5 -19 -15 -19 -22 0 -15 36 -17 45 -3 14 22 112 70 143 70 31 0 32 -1 20 -24
-20 -37 -128 -144 -207 -206 -69 -53 -91 -90 -53 -90 9 0 39 18 66 40 26 22
52 40 57 40 5 0 15 -13 24 -30 16 -31 69 -65 85 -55 17 11 11 22 -17 34 -16 7
-38 28 -50 47 l-23 35 53 57 c28 31 55 59 58 62 15 12 49 76 49 92 0 14 -30
41 -42 37 -2 -1 -19 -4 -39 -8z"/>
<path d="M13289 11607 c-15 -7 -46 -29 -70 -50 -32 -28 -40 -40 -31 -49 8 -8
23 -1 59 29 53 45 88 60 98 43 8 -12 2 -20 -76 -116 -55 -67 -92 -105 -174
-177 -32 -28 -37 -38 -28 -48 10 -10 22 -4 60 28 54 45 107 75 117 66 3 -4 6
-17 6 -30 0 -12 9 -32 20 -43 16 -16 24 -18 52 -8 39 12 73 47 59 61 -6 6 -20
1 -39 -13 -35 -26 -62 -21 -62 10 0 30 -18 60 -36 60 -15 0 14 40 103 143 37
42 41 66 15 90 -22 20 -37 21 -73 4z"/>
<path d="M13537 11548 c-10 -34 -36 -106 -58 -161 -48 -121 -52 -185 -13 -170
11 4 13 14 9 33 -4 18 4 53 25 104 46 117 80 217 80 238 0 40 -26 14 -43 -44z"/>
<path d="M9755 11308 c-39 -50 -102 -171 -132 -257 -29 -80 -39 -92 -140 -168
-57 -43 -79 -73 -53 -73 6 0 45 27 88 61 l77 61 9 -25 c17 -47 121 -79 121
-37 0 10 -8 14 -23 12 -13 -2 -34 4 -48 12 -40 27 -31 60 36 134 77 84 118
167 122 247 4 73 -16 84 -57 33z m24 -58 c-9 -58 -45 -128 -95 -185 -30 -35
-34 -37 -29 -15 11 42 117 250 129 250 2 0 -1 -23 -5 -50z"/>
<path d="M8263 11323 c-18 -7 -16 -23 3 -23 18 0 15 -22 -17 -127 -22 -71 -27
-74 -127 -77 -56 -2 -68 -5 -71 -21 -3 -17 3 -18 79 -11 77 6 82 5 75 -11 -19
-44 -55 -180 -53 -196 6 -39 22 -19 39 48 29 119 52 170 77 173 23 4 31 39 13
58 -6 5 0 41 15 93 13 45 21 87 18 92 -6 10 -31 11 -51 2z"/>
<path d="M11587 11310 c-88 -70 -208 -289 -211 -387 -1 -49 -28 -83 -93 -114
-47 -23 -56 -39 -20 -39 24 0 56 19 99 57 l26 25 7 -22 c8 -27 69 -54 102 -45
34 8 24 27 -15 30 -38 3 -62 21 -62 45 0 10 31 46 68 79 54 48 79 80 114 149
57 108 81 184 68 217 -12 31 -47 33 -83 5z m53 -43 c0 -20 -20 -74 -49 -133
-38 -77 -63 -113 -115 -163 -36 -36 -68 -62 -71 -59 -10 9 14 86 49 163 39 84
150 223 179 225 4 0 7 -15 7 -33z"/>
<path d="M1889 11246 c-263 -53 -304 -64 -307 -80 -3 -15 0 -18 19 -13 110 29
562 117 602 117 31 0 38 3 35 18 -2 9 -13 17 -24 18 -11 1 -157 -26 -325 -60z"/>
<path d="M3680 11274 c-36 -8 -90 -14 -121 -13 -30 1 -60 0 -65 -3 -5 -3 -78
-9 -162 -12 -152 -7 -222 -21 -230 -46 -3 -9 4 -11 29 -6 50 10 278 27 325 24
l41 -3 -48 -155 c-72 -227 -82 -271 -70 -283 7 -7 13 -3 19 14 13 34 76 238
103 334 12 44 27 86 32 93 5 6 27 12 47 12 21 0 74 7 117 15 43 8 93 15 111
15 23 0 32 4 30 13 -6 17 -82 18 -158 1z"/>
<path d="M12785 11270 c-10 -11 -15 -26 -11 -36 6 -15 9 -14 31 6 27 26 33 50
12 50 -8 0 -22 -9 -32 -20z"/>
<path d="M13597 11284 c-9 -10 2 -24 19 -24 8 0 14 7 14 15 0 15 -21 21 -33 9z"/>
<path d="M8419 11278 c0 -2 -2 -24 -5 -50 -5 -54 -31 -132 -98 -293 -51 -123
-52 -125 -31 -125 8 0 37 34 65 76 48 70 91 107 107 91 4 -4 -1 -31 -10 -61
-20 -62 -22 -99 -5 -94 17 6 52 132 44 162 -10 39 -60 36 -104 -6 l-33 -33 30
65 c31 67 71 205 71 247 0 14 -6 23 -15 23 -8 0 -15 -1 -16 -2z"/>
<path d="M1078 11254 c-3 -5 -11 -29 -18 -53 l-11 -44 -62 6 c-34 4 -74 9 -89
13 -38 9 -37 -14 2 -51 16 -16 42 -46 56 -67 l27 -38 -24 -26 c-13 -14 -52
-46 -87 -71 -35 -25 -62 -49 -60 -55 2 -5 16 -17 31 -26 27 -17 28 -16 52 13
14 17 32 42 40 57 18 33 71 72 89 65 8 -3 23 -29 34 -58 31 -84 46 -77 37 19
-4 48 -3 87 3 98 6 11 46 37 91 59 105 51 105 65 1 65 l-80 0 0 33 c0 34 -23
77 -32 61z m-53 -143 c-4 -9 -10 -24 -12 -33 -8 -26 -18 -22 -51 20 l-30 37
50 -4 c41 -2 48 -6 43 -20z m122 -2 c-41 -22 -53 -20 -44 6 4 10 19 15 44 15
l38 -1 -38 -20z m-93 -60 c-30 -33 -35 -21 -11 27 21 44 22 45 25 19 2 -15 -4
-35 -14 -46z"/>
<path d="M2165 11251 c-3 -5 -1 -12 4 -15 14 -9 -22 -163 -62 -262 -20 -50
-38 -101 -39 -114 -5 -41 19 -32 42 15 12 25 44 70 71 98 l48 52 1 -33 c0 -18
-7 -65 -16 -104 -15 -64 -15 -72 0 -86 19 -20 20 -17 36 105 19 141 3 170 -66
118 l-33 -25 14 40 c19 55 46 200 39 211 -7 12 -31 12 -39 0z"/>
<path d="M6607 11243 c-2 -5 -4 -20 -5 -35 -1 -15 -12 -58 -25 -95 -23 -67
-24 -68 -65 -74 -46 -6 -57 -13 -48 -28 4 -5 22 -7 41 -4 19 3 35 3 35 1 0 -3
-8 -29 -18 -59 -25 -72 -33 -127 -20 -135 13 -8 28 14 28 41 0 11 10 50 21 87
l21 67 66 15 c102 23 119 57 17 36 -31 -6 -58 -10 -61 -8 -2 2 9 44 26 93 16
49 26 93 24 97 -6 10 -32 10 -37 1z"/>
<path d="M5975 11234 c-11 -2 -42 -9 -70 -14 -64 -13 -102 -18 -142 -19 -24
-1 -33 -6 -33 -17 0 -15 9 -16 73 -11 39 4 86 9 103 13 29 5 32 4 38 -27 3
-18 4 -67 0 -108 -14 -182 -123 -280 -204 -183 -25 30 -30 45 -28 76 3 43 -14
59 -30 29 -7 -12 -6 -36 0 -71 25 -123 131 -150 219 -55 55 59 79 143 76 270
l-2 83 35 6 c50 8 60 12 60 24 0 10 -54 12 -95 4z"/>
<path d="M10237 11212 c-31 -32 -34 -42 -11 -42 11 0 14 -5 10 -16 -4 -9 -25
-74 -47 -143 -22 -69 -45 -134 -50 -144 -11 -21 -4 -37 16 -37 8 0 18 22 26
58 17 73 45 102 97 102 55 0 67 -18 64 -96 -2 -38 1 -64 7 -64 14 0 25 45 26
103 0 39 -5 52 -24 68 -13 10 -34 19 -48 19 -14 0 -23 4 -21 8 4 13 117 114
156 141 36 25 41 41 14 41 -10 0 -63 -40 -118 -89 -54 -49 -100 -88 -102 -86
-2 2 8 37 22 79 26 77 33 126 18 126 -5 0 -20 -13 -35 -28z"/>
<path d="M10882 11123 c-13 -49 -31 -105 -40 -126 -16 -37 -19 -39 -67 -41
-40 -1 -60 -8 -99 -36 -53 -38 -80 -81 -71 -110 13 -40 58 -34 134 19 78 53
126 127 161 246 33 111 36 135 17 135 -7 0 -22 -35 -35 -87z m-118 -231 c-77
-72 -158 -105 -121 -49 34 51 91 84 167 95 3 1 -18 -20 -46 -46z"/>
<path d="M1923 11158 c-6 -7 -14 -35 -17 -63 -4 -27 -16 -89 -27 -137 -22 -95
-22 -153 0 -153 9 0 14 14 15 45 1 25 14 103 29 174 25 120 25 166 0 134z"/>
<path d="M9914 11134 c3 -8 2 -12 -4 -9 -6 3 -10 -3 -10 -14 0 -28 20 -37 27
-12 3 12 9 21 14 21 5 0 9 7 9 15 0 9 -9 15 -21 15 -15 0 -19 -5 -15 -16z"/>
<path d="M12067 11143 c-3 -5 -12 -43 -22 -85 l-17 -78 -37 0 c-20 0 -42 -4
-50 -9 -24 -15 -2 -30 35 -24 l36 6 -4 -64 c-2 -51 0 -64 11 -64 11 0 16 14
18 45 4 63 8 70 45 71 47 1 81 12 86 28 4 11 -7 12 -52 7 -64 -8 -63 -10 -41
74 17 63 19 100 6 100 -6 0 -12 -3 -14 -7z"/>
<path d="M4695 11090 c-9 -14 -6 -17 20 -22 13 -2 20 3 20 12 0 18 -30 26 -40
10z"/>
<path d="M11747 11074 c-16 -16 -6 -35 16 -32 12 2 22 10 22 18 0 16 -26 25
-38 14z"/>
<path d="M7407 11028 c-47 -28 -54 -54 -29 -104 14 -28 17 -46 11 -61 -8 -23
-39 -32 -39 -13 0 6 -7 10 -15 10 -22 0 -18 -38 6 -50 25 -14 64 8 81 46 10
20 8 33 -10 70 -26 52 -23 61 25 80 19 8 33 20 31 26 -7 20 -21 18 -61 -4z"/>
<path d="M2426 11019 c-29 -23 -68 -90 -74 -128 -8 -58 28 -111 76 -111 43 0
120 31 148 61 34 35 17 44 -27 14 -19 -13 -56 -30 -83 -37 -46 -12 -49 -12
-67 11 -28 34 -23 54 18 76 62 34 83 55 83 84 0 28 -16 51 -36 51 -6 0 -23 -9
-38 -21z m40 -36 c-3 -10 -21 -27 -38 -38 l-33 -19 19 29 c32 51 65 69 52 28z"/>
<path d="M9877 11033 c-20 -34 -58 -147 -53 -159 7 -19 31 -13 31 7 1 8 11 40
23 72 12 32 22 64 22 72 0 16 -16 20 -23 8z"/>
<path d="M6037 11023 c-15 -24 -35 -115 -30 -135 8 -34 33 -58 59 -58 25 0 72
49 78 83 3 12 7 35 11 50 5 23 3 28 -11 25 -11 -2 -21 -21 -29 -51 -14 -55
-36 -83 -59 -74 -19 7 -21 54 -5 111 7 25 7 42 1 48 -5 5 -12 6 -15 1z"/>
<path d="M6282 11010 c-26 -24 -27 -45 -7 -93 14 -34 14 -37 -8 -52 -21 -15
-22 -14 -25 5 -4 27 -21 26 -31 -2 -19 -49 42 -66 84 -23 29 28 30 34 10 82
-20 47 -19 52 10 65 14 6 25 17 25 25 0 20 -33 16 -58 -7z"/>
<path d="M7204 11017 c-68 -39 -109 -94 -100 -131 8 -32 38 -41 74 -22 28 14
30 14 40 -9 7 -15 20 -25 32 -25 23 0 26 13 6 29 -19 16 -5 60 30 92 13 12 24
28 24 36 0 25 -26 13 -70 -33 -51 -51 -96 -79 -105 -64 -16 27 65 105 100 96
28 -7 37 2 24 25 -11 22 -25 23 -55 6z"/>
<path d="M3608 11006 c-15 -8 -36 -12 -47 -9 -13 3 -22 0 -25 -8 -2 -8 -13
-45 -24 -84 -26 -84 -26 -89 -13 -93 6 -2 24 25 40 60 37 81 69 112 111 106
37 -6 50 10 25 29 -24 16 -33 16 -67 -1z"/>
<path d="M3960 11007 c-13 -7 -36 -30 -50 -51 -23 -32 -25 -45 -20 -82 8 -53
34 -84 69 -84 40 0 116 27 114 39 -2 6 2 11 8 11 5 0 7 5 4 10 -4 7 -11 7 -18
2 -7 -5 -36 -15 -66 -23 -49 -12 -54 -12 -67 6 -22 30 -18 62 9 69 33 8 77 51
77 75 0 29 -30 43 -60 28z m20 -43 c-19 -22 -55 -41 -45 -22 16 28 28 38 42
38 13 0 13 -3 3 -16z"/>
<path d="M8608 11009 c-30 -17 -88 -100 -88 -125 0 -42 33 -64 98 -64 80 0 99
7 105 38 3 15 2 30 -2 34 -9 10 -53 -21 -46 -33 9 -14 -99 -11 -113 3 -18 18
-15 38 6 38 23 0 111 56 119 75 13 35 -40 57 -79 34z m42 -26 c0 -5 -14 -16
-30 -25 -29 -17 -30 -17 -20 2 12 23 50 40 50 23z"/>
<path d="M3771 10983 c-47 -24 -71 -67 -71 -131 0 -43 5 -58 25 -77 24 -25 43
-29 82 -19 15 4 20 11 16 22 -5 12 -2 14 13 8 14 -5 16 -4 8 4 -8 8 -18 8 -37
-1 -36 -16 -77 10 -77 49 0 23 8 31 42 47 53 25 87 69 72 93 -15 23 -33 25
-73 5z m39 -32 c0 -13 -60 -55 -67 -47 -9 8 37 56 54 56 7 0 13 -4 13 -9z"/>
<path d="M9939 10962 c-21 -22 -46 -43 -54 -46 -20 -7 -20 -66 0 -66 8 0 15 4
15 9 0 12 90 111 101 111 5 0 9 -20 9 -45 0 -34 4 -45 15 -45 13 0 15 11 13
58 -3 54 -4 57 -31 60 -22 3 -37 -6 -68 -36z"/>
<path d="M10508 10965 c-93 -70 -90 -185 4 -185 35 0 78 17 78 31 0 7 -15 9
-47 5 -58 -8 -76 2 -71 40 2 21 9 30 25 32 14 2 20 8 16 18 -3 8 0 14 6 14 6
0 11 -5 11 -11 0 -17 43 0 68 27 17 20 20 29 12 45 -16 29 -52 23 -102 -16z
m72 -5 c0 -10 -41 -30 -58 -30 -10 1 39 40 49 40 5 0 9 -5 9 -10z"/>
<path d="M11813 10983 c-30 -20 -29 -50 2 -75 40 -32 50 -56 29 -79 -9 -10
-25 -19 -34 -19 -21 0 -42 23 -38 40 2 7 -2 14 -9 17 -20 7 -25 -35 -7 -62 21
-32 70 -34 108 -4 37 29 34 65 -10 110 l-36 37 26 17 c14 10 26 21 26 26 0 14
-33 10 -57 -8z"/>
<path d="M11665 10886 c-7 -64 -3 -86 16 -86 6 0 9 18 8 40 -2 21 0 42 4 46
13 14 8 64 -7 64 -10 0 -16 -19 -21 -64z"/>
<path d="M4692 10870 c-26 -25 -28 -40 -6 -40 18 0 43 27 44 48 0 18 -13 15
-38 -8z"/>
<path d="M1611 10608 c-23 -8 -24 -10 -7 -26 15 -15 36 -16 199 -12 320 8 654
5 967 -9 299 -13 680 -11 1105 8 168 7 304 2 338 -13 13 -6 17 -3 17 12 0 16
-8 22 -32 27 -65 11 -231 10 -643 -4 -353 -12 -470 -12 -730 -1 -485 20 -693
23 -922 11 -179 -9 -218 -9 -241 3 -19 9 -34 11 -51 4z"/>
<path d="M2175 10389 c-82 -5 -242 -8 -355 -7 -280 1 -290 1 -290 -17 0 -15
186 -16 915 -2 121 3 330 1 465 -4 374 -12 1390 -17 1396 -7 19 31 -19 33
-654 33 -350 0 -792 3 -982 7 -190 3 -412 2 -495 -3z"/>
<path d="M1171 10172 c-14 -25 -49 -250 -59 -382 -17 -203 4 -270 82 -270 34
0 116 34 116 48 0 19 -14 20 -44 5 -46 -25 -89 -27 -108 -6 -21 24 -27 96 -16
223 11 132 47 351 60 367 10 13 3 33 -12 33 -5 0 -14 -8 -19 -18z"/>
<path d="M14472 9873 c-12 -49 -28 -134 -36 -189 -18 -130 -30 -155 -83 -174
-32 -11 -46 -11 -54 -3 -18 18 -2 62 36 100 27 27 39 32 60 27 23 -6 26 -4 23
12 -6 33 -51 29 -93 -7 -63 -56 -83 -120 -47 -152 48 -44 152 6 172 82 5 20
16 88 24 153 8 66 24 138 36 167 12 27 19 55 15 60 -16 27 -32 5 -53 -76z"/>
<path d="M3281 9907 c-6 -15 -17 -64 -26 -109 -9 -46 -18 -93 -21 -105 -3 -15
-12 -23 -27 -24 -12 -1 -38 -3 -57 -3 -23 -2 -35 -7 -35 -17 0 -11 13 -13 58
-11 l57 2 -5 -42 c-4 -24 -8 -54 -11 -66 -5 -26 12 -55 27 -46 5 3 9 27 9 53
0 87 9 111 40 111 16 0 30 7 34 16 10 25 7 34 -9 34 -8 0 -15 -4 -15 -10 0 -5
-8 -10 -19 -10 -17 0 -18 5 -10 48 5 26 16 78 25 115 12 49 13 72 6 79 -8 8
-14 4 -21 -15z"/>
<path d="M13133 9898 c-9 -18 -31 -76 -48 -128 l-32 -95 -66 2 c-51 2 -67 -1
-67 -11 0 -16 31 -26 83 -26 20 0 37 -3 37 -7 0 -5 -9 -35 -20 -67 -24 -71
-25 -86 -5 -86 8 0 19 17 25 43 26 100 29 106 63 109 23 2 32 8 31 20 -1 10 2
15 7 12 5 -3 9 -1 9 5 0 18 -17 21 -30 6 -7 -8 -18 -15 -26 -15 -9 0 -2 32 27
113 22 61 43 122 46 135 8 33 -14 27 -34 -10z"/>
<path d="M5500 9863 c0 -30 -17 -99 -45 -185 -25 -76 -45 -150 -45 -165 0 -38
14 -57 36 -49 13 5 15 9 6 18 -19 19 -15 40 33 186 32 100 44 151 42 186 -3
67 -27 75 -27 9z"/>
<path d="M2153 9868 c-14 -17 -38 -73 -57 -128 l-14 -45 -46 2 c-34 1 -46 -3
-46 -13 0 -8 3 -15 8 -15 4 -1 20 -3 36 -5 15 -1 30 -5 32 -7 3 -2 0 -26 -6
-52 -14 -61 -4 -112 25 -131 28 -18 70 -10 90 19 18 26 8 43 -13 24 -17 -15
-35 -21 -58 -18 -18 2 -22 47 -10 109 9 44 15 57 31 60 29 4 65 24 65 35 0 5
-15 6 -35 3 -44 -9 -44 -2 -3 86 21 46 28 72 21 79 -7 7 -13 6 -20 -3z"/>
<path d="M2276 9679 c-36 -179 -39 -219 -17 -219 5 0 29 34 53 76 l43 76 7
-34 c4 -18 10 -50 13 -70 4 -24 11 -38 21 -38 12 0 14 10 8 53 -17 141 -36
156 -92 72 -19 -28 -31 -41 -28 -30 11 41 56 266 56 279 0 8 -6 16 -13 19 -9
3 -23 -46 -51 -184z"/>
<path d="M9470 9848 c-40 -97 -105 -273 -117 -317 -15 -56 -9 -115 10 -108 7
2 11 15 10 28 -2 43 16 107 72 248 30 77 55 146 55 155 0 24 -19 19 -30 -6z"/>
<path d="M10650 9842 c0 -32 -35 -138 -74 -225 -43 -95 -30 -145 21 -86 45 51
86 88 94 83 4 -2 2 -23 -4 -46 -16 -65 -15 -113 3 -113 8 0 14 6 12 14 -2 8 4
42 13 76 28 102 -9 136 -80 74 -40 -36 -42 -33 -16 19 26 51 61 168 61 203 0
19 -5 29 -15 29 -10 0 -15 -10 -15 -28z"/>
<path d="M10523 9844 c-3 -9 -16 -56 -27 -103 l-21 -86 -85 -3 c-47 -2 -89 -7
-95 -13 -19 -19 17 -27 93 -22 l75 6 -6 -29 c-4 -16 -10 -51 -13 -78 -11 -75
16 -54 35 28 14 61 19 69 49 81 38 17 42 35 7 35 -30 0 -30 -4 -4 90 11 41 21
81 22 89 3 21 -22 25 -30 5z"/>
<path d="M11155 9832 c-3 -16 -19 -62 -35 -103 l-29 -74 -53 0 c-40 0 -53 -4
-53 -15 0 -9 11 -16 25 -18 68 -7 72 -11 66 -47 -4 -19 -15 -59 -25 -90 -11
-33 -15 -58 -9 -61 16 -10 28 10 44 72 8 32 20 75 25 95 6 26 16 39 33 43 31
8 42 46 15 53 -21 6 -19 23 6 73 7 14 16 42 20 63 6 30 4 37 -8 37 -9 0 -18
-12 -22 -28z"/>
<path d="M9345 9823 c-99 -253 -137 -392 -105 -381 8 2 19 32 26 66 7 34 16
66 19 72 17 27 94 244 89 251 -8 14 -21 10 -29 -8z"/>
<path d="M11875 9788 c-3 -13 -6 -59 -7 -103 l-3 -80 -35 3 c-50 3 -108 -33
-139 -89 -22 -40 -24 -50 -13 -73 16 -37 66 -36 119 3 74 54 100 119 105 265
1 62 -1 91 -9 93 -7 3 -15 -6 -18 -19z m-25 -225 c0 -9 -22 -38 -49 -65 -36
-35 -56 -49 -72 -46 -31 4 -33 19 -6 59 40 59 127 95 127 52z"/>
<path d="M13767 9695 c-29 -20 -37 -22 -37 -10 0 32 -20 12 -50 -50 -17 -35
-42 -78 -56 -95 -16 -18 -24 -37 -20 -46 8 -22 25 -7 70 59 31 48 64 83 108
116 13 9 7 -9 -18 -64 -28 -61 -33 -82 -26 -103 5 -15 16 -28 26 -30 14 -3 16
2 10 35 -5 33 0 52 31 112 50 100 37 127 -38 76z"/>
<path d="M6953 9648 c-60 -58 -64 -60 -57 -33 19 74 4 90 -44 50 -27 -23 -30
-23 -25 -5 3 13 0 20 -8 20 -16 0 -102 -166 -94 -180 11 -18 21 -10 68 54 67
91 76 97 70 43 -3 -26 -1 -47 5 -51 6 -4 30 10 54 31 24 20 53 46 64 56 l22
19 -10 -47 c-12 -54 -5 -90 18 -99 24 -9 29 0 15 27 -9 17 -9 36 3 92 22 107
11 111 -81 23z"/>
<path d="M4664 9655 c-64 -66 -72 -146 -18 -181 24 -16 29 -16 82 1 66 20 102
42 102 61 0 9 -14 7 -52 -10 -79 -34 -104 -39 -122 -20 -23 23 -20 41 10 48
32 8 114 83 114 105 0 24 -20 41 -49 41 -16 0 -39 -15 -67 -45z m86 6 c0 -11
-67 -71 -80 -71 -18 0 -10 21 19 51 28 28 61 39 61 20z"/>
<path d="M7175 9669 c-46 -41 -66 -80 -68 -134 -2 -50 14 -72 58 -81 43 -8 72
2 80 27 10 29 -2 35 -25 14 -16 -15 -26 -17 -48 -9 -22 8 -28 16 -30 47 -2 27
1 37 11 37 8 0 35 16 61 36 38 29 47 41 44 62 -4 40 -38 40 -83 1z m30 -34
c-39 -30 -49 -21 -11 11 15 14 31 22 34 19 4 -3 -7 -17 -23 -30z"/>
<path d="M13916 9659 c-79 -70 -107 -148 -66 -189 30 -30 122 -25 135 8 9 25
-13 39 -28 18 -16 -22 -75 -18 -91 6 -16 26 16 88 42 81 25 -6 98 31 112 57
15 27 -4 60 -34 60 -13 0 -44 -18 -70 -41z m74 -2 c0 -7 -16 -21 -35 -30 -42
-20 -46 -7 -7 22 32 24 42 26 42 8z"/>
<path d="M3396 9648 c-27 -28 -45 -56 -49 -78 -4 -19 -10 -48 -13 -63 -6 -24
-4 -28 10 -25 11 2 26 27 39 65 12 34 32 74 45 89 20 22 29 25 58 20 26 -5 34
-3 34 7 0 15 -29 27 -63 27 -10 0 -37 -19 -61 -42z"/>
<path d="M5235 9660 c-16 -16 -36 -30 -46 -30 -12 0 -18 -11 -22 -37 -11 -82
-18 -121 -34 -186 -11 -51 -13 -71 -4 -80 19 -19 32 5 44 82 10 68 12 71 38
71 32 0 83 40 104 81 21 39 19 92 -3 112 -27 24 -44 21 -77 -13z m65 -39 c0
-37 -39 -93 -73 -105 -14 -5 -29 -7 -33 -4 -9 10 30 90 60 121 30 32 46 28 46
-12z"/>
<path d="M7366 9597 c-20 -51 -36 -96 -36 -100 0 -22 31 1 70 53 24 33 45 60
46 60 1 0 -3 -15 -8 -34 -6 -19 -8 -42 -4 -53 6 -15 17 -7 71 51 36 38 68 67
71 63 3 -3 0 -37 -7 -76 -13 -74 -5 -101 27 -101 17 0 18 12 3 27 -9 9 -9 26
0 70 15 71 12 117 -10 121 -8 1 -37 -17 -64 -40 -32 -28 -46 -36 -41 -23 18
44 18 55 0 62 -12 5 -26 -3 -47 -28 -18 -21 -27 -26 -22 -14 17 45 17 55 2 55
-10 0 -28 -33 -51 -93z"/>
<path d="M9625 9678 c-62 -34 -82 -82 -50 -124 27 -36 11 -80 -21 -53 -19 16
-31 3 -18 -19 16 -24 42 -27 65 -6 23 20 25 63 4 90 -8 10 -15 27 -15 37 0 23
58 58 90 55 17 -2 26 2 28 15 3 13 -3 17 -30 17 -18 0 -42 -6 -53 -12z"/>
<path d="M14157 9679 c-52 -30 -107 -107 -107 -150 0 -49 56 -72 128 -53 41
11 17 29 -39 29 -48 0 -54 2 -57 23 -2 14 3 25 15 29 22 8 35 19 80 60 29 27
33 35 23 53 -12 23 -18 24 -43 9z m13 -33 c0 -2 -8 -10 -17 -17 -16 -13 -17
-12 -4 4 13 16 21 21 21 13z"/>
<path d="M5932 9635 c-84 -141 -84 -141 -93 -120 -4 11 -11 46 -14 78 -4 38
-11 57 -18 54 -16 -5 -10 -135 8 -162 11 -18 8 -28 -27 -85 -61 -101 -74 -170
-32 -170 12 0 15 6 10 23 -7 29 28 104 99 213 30 46 63 101 74 122 11 21 27
44 35 51 20 17 20 27 1 35 -11 4 -24 -8 -43 -39z"/>
<path d="M6155 9662 c-55 -31 -95 -65 -95 -83 0 -9 14 -33 30 -54 23 -29 28
-41 19 -51 -15 -19 -79 -18 -79 0 0 19 -29 41 -40 30 -6 -6 1 -22 16 -42 21
-26 32 -32 65 -32 40 0 79 26 79 53 0 8 -13 32 -30 55 l-29 41 28 24 c16 13
42 29 60 36 17 8 31 20 31 27 0 18 -18 17 -55 -4z"/>
<path d="M8825 9666 c-39 -17 -70 -52 -90 -98 -19 -48 -19 -61 3 -88 20 -24
84 -35 114 -19 32 17 19 27 -32 26 -77 -3 -86 27 -33 105 28 41 52 53 101 49
38 -3 43 15 6 29 -31 12 -32 12 -69 -4z"/>
<path d="M9055 9639 c-43 -48 -65 -95 -65 -142 0 -57 40 -73 100 -42 36 18 41
41 8 30 -13 -4 -34 -8 -48 -9 -21 -1 -25 3 -25 28 0 25 9 34 60 65 62 38 79
67 55 97 -21 24 -46 16 -85 -27z m41 -25 c-15 -14 -31 -22 -35 -19 -3 4 7 17
24 30 38 31 49 21 11 -11z"/>
<path d="M1372 9643 c2 -10 31 -36 65 -59 l62 -40 -64 -38 c-70 -41 -92 -61
-76 -70 5 -4 40 12 77 35 37 22 78 45 91 50 36 14 27 32 -33 64 -30 16 -65 40
-76 52 -26 27 -51 30 -46 6z"/>
<path d="M3624 9641 c-130 -79 -95 -239 45 -201 42 11 56 23 46 40 -4 6 -16 5
-33 -3 -38 -18 -90 -10 -103 14 -15 29 -6 45 29 52 36 7 92 53 92 76 0 19 -18
41 -34 41 -6 0 -25 -9 -42 -19z m36 -31 c0 -5 -13 -16 -30 -25 -35 -18 -41 -4
-8 19 26 18 38 20 38 6z"/>
<path d="M5026 9615 c-25 -25 -46 -45 -48 -45 -2 0 -2 18 0 40 4 35 1 40 -16
40 -11 0 -30 -12 -42 -27 -20 -27 -21 -27 -14 -4 7 26 -14 26 -27 0 -14 -26
-40 -121 -35 -126 12 -12 37 9 71 59 34 50 37 48 20 -10 -4 -15 -2 -24 10 -28
11 -5 34 10 72 47 l55 54 -6 -55 c-3 -35 -1 -64 7 -79 23 -46 32 -27 30 67 -3
131 -10 137 -77 67z"/>
<path d="M12574 9648 c-5 -7 -19 -33 -32 -58 -13 -25 -37 -59 -54 -77 -20 -21
-28 -37 -24 -48 5 -15 13 -11 47 20 23 21 55 53 72 72 16 18 38 38 49 44 18
10 18 9 2 -28 -28 -63 -29 -89 -3 -106 20 -14 25 -14 51 -1 35 18 28 35 -12
27 -37 -7 -37 -1 -1 80 39 88 22 106 -53 54 l-28 -20 6 21 c8 23 -9 39 -20 20z"/>
<path d="M2543 9628 c-38 -41 -60 -88 -55 -114 12 -63 125 -89 172 -39 13 14
21 28 17 31 -8 8 -47 -5 -47 -17 0 -12 -67 -12 -91 1 -28 15 -24 26 26 73 51
48 60 87 22 87 -13 0 -33 -10 -44 -22z m17 -58 c0 -5 -2 -10 -4 -10 -3 0 -8 5
-11 10 -3 6 -1 10 4 10 6 0 11 -4 11 -10z"/>
<path d="M3781 9615 c-37 -43 -41 -89 -10 -129 24 -31 62 -34 135 -10 58 20
89 43 75 57 -7 7 -15 7 -23 0 -19 -15 -107 -43 -134 -43 -22 0 -44 25 -44 49
0 6 11 11 24 11 37 0 78 38 74 69 -2 21 -9 27 -34 29 -25 2 -37 -4 -63 -33z
m54 -15 c-10 -11 -25 -20 -34 -20 -12 1 -10 5 8 20 30 26 49 26 26 0z"/>
<path d="M5585 9641 c-25 -11 -75 -100 -75 -135 0 -31 31 -50 70 -41 35 8 105
57 119 84 17 30 -3 70 -44 86 -39 17 -42 17 -70 6z m69 -37 c30 -11 19 -52
-21 -78 -53 -33 -82 -41 -89 -23 -5 14 16 67 38 95 11 13 46 16 72 6z"/>
<path d="M7990 9633 c-32 -12 -60 -48 -86 -109 -15 -36 -24 -70 -20 -80 8 -21
18 -11 36 36 39 106 65 130 135 130 25 0 35 4 33 13 -5 13 -72 20 -98 10z"/>
<path d="M7715 9608 c-59 -46 -84 -153 -43 -182 33 -23 62 -20 99 11 41 35 55
70 51 127 -5 64 -26 54 -32 -16 -7 -74 -45 -117 -90 -103 -26 8 -26 44 0 95
21 40 46 61 67 53 17 -6 28 18 12 28 -21 13 -34 11 -64 -13z"/>
<path d="M8271 9570 c-36 -51 -82 -90 -106 -90 -3 0 -4 19 -3 41 4 56 -18 63
-27 10 -10 -60 1 -84 36 -79 l29 4 -31 -50 c-58 -98 -110 -211 -107 -236 4
-36 32 -32 35 5 1 16 10 48 20 70 29 67 139 249 163 270 28 25 63 92 55 105
-11 18 -22 10 -64 -50z"/>
<path d="M10780 9580 c-53 -52 -60 -70 -35 -90 12 -10 23 -9 55 4 51 20 47 21
55 -14 12 -53 33 -36 31 24 -1 30 -4 58 -8 61 -4 4 -19 -2 -35 -13 -40 -29
-75 -38 -67 -18 9 24 74 68 90 62 23 -9 37 3 23 20 -22 27 -58 16 -109 -36z"/>
<path d="M12819 9603 c-41 -45 -69 -85 -69 -99 0 -22 30 -44 60 -44 46 0 60
23 55 85 -2 30 1 57 6 61 12 7 2 24 -15 24 -7 0 -24 -12 -37 -27z m8 -105
c-37 -24 -54 1 -25 37 l22 28 8 -28 c5 -20 3 -32 -5 -37z"/>
<path d="M12002 9594 c-13 -9 -34 -34 -48 -56 -24 -37 -24 -41 -9 -64 12 -19
24 -24 60 -24 37 0 47 5 64 29 23 31 27 81 11 112 -13 23 -47 25 -78 3z m56
-48 c2 -16 -4 -36 -14 -47 -18 -20 -74 -26 -74 -9 0 20 30 69 47 79 26 15 38
8 41 -23z"/>
<path d="M4166 9378 c-8 -24 -22 -67 -31 -96 -22 -69 -36 -82 -93 -82 -61 0
-92 -9 -92 -26 0 -10 16 -12 70 -7 l70 6 -19 -51 c-9 -29 -25 -60 -34 -70 -16
-18 -16 -20 3 -37 19 -18 20 -17 35 18 8 20 15 40 15 44 0 4 7 27 16 50 11 28
23 43 35 43 29 0 49 11 49 27 0 11 -7 13 -26 9 -23 -6 -25 -4 -19 11 9 25 65
194 65 199 0 2 -6 4 -14 4 -8 0 -21 -19 -30 -42z"/>
<path d="M13439 9408 c-1 -1 -2 -16 -4 -33 -2 -16 -12 -51 -23 -76 -16 -38
-26 -48 -54 -54 -18 -4 -43 -7 -55 -6 -16 2 -23 -3 -23 -14 0 -14 8 -16 46
-13 41 3 45 1 39 -17 -19 -67 -17 -103 5 -125 19 -19 29 -21 64 -16 40 7 86
39 74 52 -4 3 -27 -2 -52 -11 -39 -15 -48 -15 -62 -4 -17 14 -15 50 5 102 10
25 15 27 66 27 49 0 55 2 55 21 0 18 -4 20 -45 13 -52 -7 -53 -5 -24 60 21 50
22 87 2 94 -7 2 -13 2 -14 0z"/>
<path d="M2047 9308 c-5 -76 -36 -178 -69 -234 -11 -18 -18 -43 -16 -56 2 -19
10 -23 46 -26 83 -6 172 72 172 151 0 20 -7 43 -16 51 -17 18 -69 22 -79 6
-17 -28 -21 -3 -10 58 14 73 10 122 -10 122 -8 0 -14 -24 -18 -72z m101 -164
c5 -53 -70 -124 -133 -124 -27 0 -32 11 -12 32 7 7 21 27 31 43 54 87 108 110
114 49z"/>
<path d="M10039 9348 c-1 -2 -3 -12 -4 -23 -2 -11 -14 -51 -28 -90 -39 -110
-48 -156 -45 -214 5 -85 24 -74 30 16 4 53 18 113 43 185 20 59 34 112 30 118
-5 9 -23 14 -26 8z"/>
<path d="M1260 9308 c-1 -55 -26 -170 -40 -178 -6 -4 -35 -10 -63 -13 -56 -7
-74 -18 -55 -35 9 -7 27 -7 63 3 28 7 51 11 53 10 1 -1 -6 -36 -18 -76 -11
-40 -20 -86 -20 -101 0 -28 18 -48 24 -26 2 7 14 57 26 111 l23 97 71 21 c39
11 79 23 89 25 16 5 25 34 9 34 -4 0 -39 -9 -77 -20 -38 -11 -73 -20 -76 -20
-3 0 0 28 7 63 19 86 18 137 -1 137 -10 0 -15 -10 -15 -32z"/>
<path d="M6817 9333 c-14 -13 -7 -33 11 -33 26 0 34 11 21 27 -13 14 -22 16
-32 6z"/>
<path d="M8694 9329 c-3 -6 -2 -14 4 -18 12 -7 -32 -151 -66 -218 -12 -23 -22
-47 -22 -53 0 -22 27 -8 44 23 27 47 77 97 97 97 26 0 37 -27 29 -71 -6 -33
-5 -39 10 -39 26 0 37 83 16 115 -21 32 -52 40 -81 21 -30 -20 -30 -17 -5 54
25 72 26 100 1 100 -11 0 -23 -5 -27 -11z"/>
<path d="M9420 9274 c0 -9 7 -14 17 -12 25 5 28 28 4 28 -12 0 -21 -6 -21 -16z"/>
<path d="M8461 9238 c-24 -24 -50 -56 -58 -73 -8 -16 -21 -37 -28 -45 -7 -8
-27 -67 -45 -130 -18 -63 -34 -123 -37 -132 -3 -11 0 -18 9 -18 13 0 88 133
88 156 0 6 15 16 34 22 36 13 101 83 130 139 21 42 20 86 -2 106 -28 26 -45
21 -91 -25z m75 -12 c8 -33 -25 -93 -80 -144 -52 -48 -60 -51 -50 -19 4 12 8
31 9 42 2 30 23 66 63 108 42 43 50 45 58 13z"/>
<path d="M4360 9256 c0 -15 27 -29 40 -21 5 3 7 12 3 20 -7 19 -43 20 -43 1z"/>
<path d="M12395 9256 c-17 -7 -43 -27 -57 -45 -34 -39 -72 -141 -59 -154 12
-12 31 0 31 21 0 33 47 118 75 136 16 10 41 20 57 21 35 3 47 13 28 25 -20 13
-39 12 -75 -4z"/>
<path d="M3362 9233 c-146 -99 -147 -260 -2 -237 22 4 37 10 35 14 -3 5 0 10
6 12 8 3 8 10 -2 26 -16 25 -36 24 -31 -2 4 -21 -60 -22 -78 -1 -32 39 63 175
123 175 30 0 40 10 26 27 -16 19 -31 16 -77 -14z"/>
<path d="M4876 9214 c-11 -26 -45 -73 -78 -107 -41 -42 -56 -63 -48 -71 7 -7
25 5 60 39 l50 49 0 -31 c0 -51 51 -55 91 -7 13 16 14 13 19 -26 3 -25 12 -47
22 -54 21 -13 36 0 20 16 -17 17 -15 82 3 125 28 66 1 62 -64 -8 -55 -59 -60
-62 -61 -38 0 15 9 55 20 89 24 75 24 70 3 70 -12 0 -25 -16 -37 -46z"/>
<path d="M11300 9252 c-8 -2 -33 -22 -55 -43 l-40 -38 0 37 c0 49 -15 47 -69
-6 -32 -31 -44 -38 -42 -25 3 37 -27 17 -39 -27 -7 -25 -20 -62 -29 -82 -10
-23 -12 -39 -6 -43 16 -10 29 3 75 74 23 36 53 75 65 86 l22 20 -16 -39 c-34
-82 -9 -89 61 -15 26 27 56 54 65 60 19 10 19 9 -16 -73 -17 -39 -13 -68 10
-68 8 0 14 10 14 24 0 13 9 45 20 71 30 71 23 101 -20 87z"/>
<path d="M5240 9235 c0 -8 6 -15 13 -15 24 0 51 -40 51 -75 0 -55 -77 -125
-119 -109 -53 21 0 151 55 137 18 -5 21 -2 18 13 -4 25 -33 29 -63 10 -30 -20
-65 -85 -65 -121 0 -29 40 -75 66 -75 53 0 128 68 140 127 6 32 -16 88 -45
110 -22 17 -51 16 -51 -2z"/>
<path d="M11492 9233 c-84 -41 -96 -183 -16 -183 40 0 112 21 125 36 20 24 2
28 -55 10 -67 -21 -90 -18 -94 13 -2 13 0 21 5 18 14 -9 83 34 106 65 38 51
-3 75 -71 41z m48 -22 c0 -13 -60 -55 -67 -47 -11 11 30 47 65 55 1 1 2 -3 2
-8z"/>
<path d="M5464 9228 c-4 -6 -9 -46 -11 -87 -5 -88 9 -124 48 -129 30 -3 82 35
103 77 19 36 28 103 17 120 -11 17 -33 5 -30 -17 5 -52 -3 -75 -41 -115 -39
-41 -41 -42 -56 -22 -12 15 -14 34 -10 80 2 33 8 70 12 83 5 16 2 22 -9 22 -9
0 -19 -5 -23 -12z"/>
<path d="M5860 9222 c-65 -25 -65 -49 1 -119 l53 -56 -24 -19 c-14 -12 -30
-16 -44 -12 -45 13 -71 30 -81 52 -11 26 -29 24 -33 -4 -4 -31 35 -72 79 -84
34 -10 45 -8 79 11 22 13 42 31 45 40 8 24 -16 67 -60 108 -39 36 -38 42 14
60 42 14 81 14 81 1 0 -5 7 -10 15 -10 8 0 15 6 15 13 0 39 -64 48 -140 19z"/>
<path d="M11706 9224 c-9 -8 -16 -23 -16 -32 0 -9 -14 -37 -30 -62 -31 -47
-38 -70 -19 -70 12 0 25 14 87 88 19 23 37 41 39 39 2 -3 -4 -23 -13 -46 -27
-68 -6 -70 67 -7 78 69 90 71 78 14 -11 -45 -5 -72 12 -66 13 4 21 41 23 103
1 38 0 40 -27 38 -16 -1 -49 -18 -73 -38 -43 -35 -44 -35 -34 -10 23 61 -4 84
-49 41 l-28 -27 4 25 c6 30 1 32 -21 10z"/>
<path d="M12720 9228 c0 -7 -18 -38 -40 -68 -22 -30 -51 -71 -64 -90 -13 -20
-45 -59 -71 -87 -25 -29 -68 -81 -95 -117 -105 -138 -132 -198 -94 -213 20 -7
37 17 23 33 -12 15 78 150 167 251 94 105 204 260 204 288 0 18 -30 21 -30 3z"/>
<path d="M2275 9198 c-36 -31 -71 -88 -86 -141 -8 -30 3 -64 25 -79 17 -12
102 -9 131 4 32 15 35 43 3 31 -13 -4 -45 -8 -73 -8 -44 0 -50 3 -53 23 -2 12
1 37 7 55 9 26 16 32 41 33 38 1 110 49 110 72 0 50 -55 55 -105 10z m52 -23
c-15 -14 -36 -25 -45 -25 -13 1 -11 6 11 25 15 14 36 25 45 25 13 -1 11 -6
-11 -25z"/>
<path d="M9163 9214 c-42 -21 -48 -42 -23 -76 28 -38 23 -64 -13 -60 -22 2
-27 -1 -27 -18 0 -24 26 -37 48 -23 9 5 25 21 35 36 20 25 20 26 -2 63 -12 20
-21 38 -19 39 14 11 51 25 67 25 12 0 21 7 21 15 0 20 -45 19 -87 -1z"/>
<path d="M3570 9207 c-56 -29 -88 -117 -54 -151 25 -26 61 -19 104 20 44 40
50 66 23 104 -10 14 -15 27 -13 30 11 11 -37 9 -60 -3z m45 -47 c17 -18 17
-21 1 -45 -22 -33 -62 -53 -78 -37 -14 14 -4 52 22 80 25 27 32 27 55 2z"/>
<path d="M12072 9204 c-26 -18 -52 -64 -52 -93 0 -28 54 -71 81 -64 53 14 80
127 37 157 -28 20 -38 20 -66 0z m54 -49 c7 -28 -18 -75 -40 -75 -7 0 -19 7
-26 15 -11 13 -10 22 3 50 20 43 53 48 63 10z"/>
<path d="M13599 9198 c-63 -54 -75 -121 -25 -134 28 -7 81 18 90 41 10 26 7
60 -6 73 -9 9 -8 12 6 12 26 0 13 25 -15 28 -14 1 -35 -7 -50 -20z m35 -44
c10 -26 7 -33 -20 -50 -37 -25 -52 -5 -28 35 20 34 38 40 48 15z"/>
<path d="M6922 9189 c-34 -22 -82 -94 -82 -122 0 -20 4 -21 31 -6 13 6 18 17
15 26 -8 20 65 93 93 93 33 0 36 -24 11 -90 -22 -59 -21 -96 3 -87 6 2 11 9
10 16 -2 6 6 33 17 61 11 28 20 62 20 75 0 54 -59 71 -118 34z"/>
<path d="M8838 9198 c-3 -7 -2 -50 1 -95 7 -85 21 -117 43 -95 9 9 9 15 0 24
-7 7 -12 44 -12 95 0 64 -3 83 -14 83 -8 0 -16 -6 -18 -12z"/>
<path d="M4611 9182 c-10 -18 -18 -20 -59 -15 -54 6 -100 -12 -126 -49 -23
-32 -20 -57 9 -70 21 -9 34 -7 75 12 28 13 56 30 62 37 20 24 28 13 23 -29
-34 -250 -26 -230 -84 -222 -43 6 -50 4 -60 -14 -24 -44 -3 -133 36 -159 25
-17 26 -16 50 11 13 15 29 48 36 73 11 43 13 44 43 38 20 -3 35 -1 40 6 8 14
-14 29 -44 29 -18 0 -21 4 -18 23 3 12 7 38 10 57 36 230 38 331 7 272z m-51
-51 c0 -12 -100 -62 -111 -55 -14 8 2 34 30 49 29 16 81 20 81 6z m-22 -321
c16 0 15 -22 -4 -70 -20 -50 -40 -51 -53 -2 -19 66 -12 87 24 78 11 -3 26 -6
33 -6z"/>
<path d="M3725 9181 c-3 -6 -4 -15 -1 -19 3 -4 -11 -39 -29 -77 -32 -64 -36
-85 -15 -85 4 0 22 22 40 50 32 50 92 110 111 110 21 0 21 -35 1 -99 -20 -62
-18 -98 5 -69 15 19 46 116 46 144 0 54 -50 70 -97 33 -25 -20 -27 -20 -24 -3
3 20 -26 32 -37 15z"/>
<path d="M4286 9114 c-35 -76 -39 -88 -37 -111 2 -27 19 -11 36 32 9 25 28 66
41 91 28 52 30 64 9 64 -8 0 -29 -32 -49 -76z"/>
<path d="M8960 9122 c-19 -37 -61 -107 -93 -155 -72 -110 -117 -194 -117 -218
0 -33 24 -10 53 49 15 31 52 95 83 142 65 98 134 221 134 238 0 32 -29 5 -60
-56z"/>
<path d="M6749 9129 c-7 -28 -21 -55 -31 -60 -23 -13 -23 -31 1 -46 25 -16 33
-5 54 74 21 76 21 83 3 83 -9 0 -19 -20 -27 -51z"/>
<path d="M12520 9178 c0 -17 29 -151 34 -155 18 -18 23 19 12 82 -8 52 -16 71
-29 73 -9 2 -17 2 -17 0z"/>
<path d="M9535 9155 c-68 -24 -101 -84 -71 -130 14 -21 24 -25 69 -25 53 0 88
13 74 26 -4 4 -29 7 -55 5 -57 -3 -80 15 -63 48 17 32 52 51 93 51 41 0 49 13
19 30 -23 12 -17 12 -66 -5z"/>
<path d="M9314 9105 c-22 -41 -26 -57 -17 -66 14 -14 33 -3 33 19 0 9 9 32 20
50 24 38 25 52 6 52 -7 0 -26 -25 -42 -55z"/>
<path d="M9757 9146 c-46 -17 -64 -32 -83 -67 -15 -31 -10 -59 12 -59 8 0 33
9 56 21 l41 21 -5 -25 c-6 -29 5 -53 20 -44 10 7 22 69 25 127 2 41 -11 46
-66 26z m22 -45 c-32 -24 -70 -44 -75 -38 -9 9 58 57 78 57 20 0 20 -1 -3 -19z"/>
<path d="M1488 9113 c-40 -43 -60 -90 -49 -112 23 -42 73 -41 117 3 40 40 46
92 16 119 -27 24 -55 21 -84 -10z m72 -34 c0 -44 -42 -85 -74 -73 -21 8 -20
20 5 60 24 40 69 49 69 13z"/>
<path d="M4852 8904 c-6 -11 -13 -41 -17 -69 -11 -83 -12 -84 -45 -75 -30 9
-40 5 -40 -16 0 -6 16 -15 34 -18 34 -7 35 -8 38 -58 4 -73 28 -77 28 -4 l0
55 42 8 c23 5 43 14 46 21 5 16 -30 16 -47 0 -11 -11 -12 -10 -6 1 6 11 4 13
-8 8 -21 -8 -23 31 -5 98 9 33 9 48 1 56 -8 8 -14 6 -21 -7z"/>
<path d="M3566 8880 c-24 -29 -26 -39 -26 -117 0 -65 -4 -91 -16 -104 -12 -13
-13 -22 -5 -38 24 -44 141 -34 180 16 25 31 26 54 6 93 -21 41 -57 40 -100 -3
l-33 -33 0 65 c0 85 5 101 29 101 15 0 20 6 17 22 -5 33 -23 32 -52 -2z m124
-197 c0 -23 -36 -50 -75 -57 -46 -9 -52 -3 -32 26 28 40 42 54 62 66 16 9 22
8 33 -5 6 -9 12 -23 12 -30z"/>
<path d="M1765 8834 c-4 -36 -12 -67 -18 -69 -7 -2 -29 -6 -49 -10 -25 -4 -38
-11 -38 -21 0 -12 8 -14 44 -9 l44 7 -9 -44 c-13 -69 -11 -128 5 -128 9 0 15
20 19 63 10 110 12 112 116 127 58 8 90 17 88 24 -4 13 -50 13 -125 2 l-53 -8
7 66 c6 55 4 66 -8 66 -12 0 -17 -17 -23 -66z"/>
<path d="M3842 8844 c2 -11 11 -20 22 -22 13 -3 17 1 14 14 -2 11 -11 20 -22
22 -13 3 -17 -1 -14 -14z"/>
<path d="M1476 8782 c-23 -5 -91 -47 -100 -60 -9 -14 26 -39 64 -46 19 -3 48
-17 64 -30 l30 -23 -23 -12 c-37 -20 -131 -27 -142 -10 -11 18 -34 -3 -26 -24
17 -46 217 -6 217 43 0 25 -67 79 -107 86 -18 3 -33 9 -33 13 0 13 84 42 106
37 25 -7 37 3 26 21 -7 11 -41 13 -76 5z"/>
<path d="M5093 8765 c-19 -13 -23 -26 -23 -65 0 -27 5 -61 10 -76 6 -15 8 -29
6 -32 -11 -10 -59 10 -81 33 -20 22 -24 23 -35 10 -9 -11 -10 -18 -1 -29 19
-23 106 -56 130 -49 21 5 23 10 17 44 -20 126 -20 122 -1 136 11 7 39 13 63
13 30 0 42 4 40 13 -7 19 -99 21 -125 2z"/>
<path d="M2225 8746 c-39 -39 -63 -156 -31 -156 15 0 26 30 26 71 0 15 10 39
22 54 19 25 26 27 70 22 36 -5 48 -3 48 7 0 35 -101 36 -135 2z"/>
<path d="M1969 8722 c-33 -34 -37 -43 -30 -68 8 -33 51 -59 85 -50 34 8 76 45
76 66 0 23 -21 72 -35 82 -24 18 -59 6 -96 -30z m101 -49 c0 -7 -14 -19 -30
-28 -59 -31 -96 23 -44 64 l25 20 25 -21 c13 -12 24 -27 24 -35z"/>
<path d="M2437 8735 c-54 -37 -79 -93 -61 -140 10 -26 59 -45 118 -45 63 0 87
7 80 23 -3 8 -25 11 -64 9 -44 -3 -68 1 -85 12 -36 24 -33 51 6 54 84 7 144
79 83 102 -34 13 -34 13 -77 -15z m38 -40 c-43 -27 -55 -30 -55 -16 0 15 44
40 70 40 23 0 21 -2 -15 -24z"/>
<path d="M4040 8743 c-76 -31 -91 -79 -42 -133 32 -35 98 -65 107 -49 10 15
-3 41 -18 36 -17 -6 -64 20 -76 42 -9 17 -5 19 38 25 54 7 74 24 69 57 -4 30
-37 40 -78 22z m50 -28 c0 -2 -13 -11 -29 -20 -32 -16 -54 -3 -24 14 18 11 53
15 53 6z"/>
<path d="M3335 8728 c-15 -12 -34 -37 -42 -56 -12 -30 -12 -37 2 -58 19 -30
61 -32 115 -4 50 26 57 50 29 100 -27 47 -60 53 -104 18z m73 -30 c21 -21 13
-47 -18 -63 -43 -22 -70 -20 -70 8 0 51 56 87 88 55z"/>
<path d="M4290 8711 c-56 -55 -49 -120 15 -147 45 -18 126 -18 151 1 23 17 27
16 -63 18 -61 2 -76 6 -95 25 l-23 22 20 38 c16 29 27 38 53 40 43 4 44 32 1
32 -20 0 -40 -10 -59 -29z"/>
<path d="M3839 8699 c-1 -2 -2 -40 -3 -84 -3 -92 -37 -183 -86 -230 -32 -31
-64 -30 -68 3 -2 12 -8 22 -13 22 -6 0 -7 5 -4 10 3 6 1 10 -4 10 -14 0 -14
-31 -1 -64 30 -80 112 -37 171 91 36 79 51 211 25 232 -9 7 -16 12 -17 10z"/>
<path d="M5256 8591 c-9 -14 4 -41 20 -41 8 0 14 10 14 25 0 25 -23 35 -34 16z"/>
<path d="M8786 8263 c-3 -3 -6 -16 -6 -28 0 -40 -30 -137 -105 -337 -41 -109
-75 -206 -75 -214 0 -32 29 -9 89 72 57 77 102 116 116 102 3 -3 -6 -35 -20
-71 -21 -53 -24 -70 -15 -87 13 -25 30 -18 30 13 0 12 10 50 22 85 25 69 20
94 -22 100 -17 3 -36 -11 -76 -53 -30 -31 -54 -55 -54 -53 0 2 29 84 65 182
63 173 88 277 68 289 -6 4 -13 4 -17 0z"/>
<path d="M12687 8172 c-9 -10 -17 -25 -17 -32 0 -28 -125 -231 -145 -235 -11
-3 -51 -6 -90 -8 -54 -1 -70 -5 -70 -17 0 -12 14 -15 79 -12 88 3 83 12 47
-88 -33 -89 -24 -147 24 -151 51 -5 77 2 82 20 3 14 18 20 55 25 63 9 103 44
93 83 -14 58 -85 131 -85 88 0 -8 -12 -21 -27 -29 -69 -35 -94 -94 -57 -130
14 -14 14 -17 1 -22 -9 -3 -28 -4 -44 -2 -40 4 -41 38 -3 137 l31 81 42 1 c69
3 75 4 82 11 13 12 -38 26 -74 20 l-33 -5 28 49 c15 27 47 82 71 122 23 40 43
80 45 89 4 23 -16 26 -35 5z m19 -401 c17 -34 8 -49 -38 -61 -52 -14 -72 -10
-76 17 -2 16 7 29 35 47 44 31 63 30 79 -3z"/>
<path d="M5881 8155 c-18 -8 -68 -50 -111 -93 -64 -63 -81 -87 -95 -133 -32
-103 1 -167 108 -207 69 -26 98 -27 139 -6 40 21 24 38 -21 23 -43 -15 -128
10 -174 51 -28 25 -32 34 -31 78 0 34 8 63 27 94 32 55 129 146 176 165 32 14
36 13 48 -3 15 -21 16 -43 3 -64 -8 -13 -10 -12 -10 3 0 9 -7 17 -15 17 -11 0
-15 -12 -15 -46 0 -38 3 -45 17 -42 10 2 28 19 41 38 18 27 23 44 19 73 -9 67
-38 81 -106 52z"/>
<path d="M11081 8078 c-37 -132 -40 -137 -114 -140 -47 -2 -62 -7 -62 -18 0
-12 11 -14 53 -12 32 3 52 0 52 -7 0 -6 -11 -34 -24 -63 -32 -72 -35 -83 -26
-98 9 -15 30 -5 30 16 0 8 14 48 32 89 32 75 32 75 71 75 43 0 81 16 72 31 -8
11 -45 12 -45 0 0 -4 -11 -6 -25 -3 -14 2 -22 8 -19 13 7 13 54 171 54 187 0
6 -6 12 -13 12 -9 0 -22 -31 -36 -82z"/>
<path d="M6441 8101 c-28 -56 -82 -245 -88 -313 -5 -54 -4 -58 16 -58 19 0 21
4 15 38 -5 38 50 252 82 313 8 16 14 35 14 44 0 27 -17 16 -39 -24z"/>
<path d="M6297 8023 c-77 -195 -109 -344 -76 -351 13 -2 17 6 17 40 1 48 81
303 111 354 11 18 17 35 14 38 -18 18 -34 -3 -66 -81z"/>
<path d="M13845 8054 c-6 -35 -85 -200 -136 -286 -12 -20 -19 -43 -15 -53 5
-13 18 -6 72 39 36 31 74 56 86 56 19 0 20 -4 14 -52 -4 -28 -8 -56 -9 -62 -1
-6 5 -11 13 -11 17 0 42 97 32 124 -13 37 -65 42 -106 10 -14 -11 -26 -18 -26
-15 0 4 23 52 50 107 49 97 67 168 44 176 -7 2 -15 -12 -19 -33z"/>
<path d="M2085 8074 c-16 -2 -74 -9 -128 -15 -68 -8 -100 -16 -104 -26 -3 -7
-3 -16 -1 -18 2 -3 45 3 94 11 55 10 144 16 234 16 149 0 188 4 174 18 -10 9
-222 20 -269 14z"/>
<path d="M3511 8018 c-7 -35 -19 -78 -27 -97 l-14 -34 -70 6 c-54 5 -70 3 -70
-7 0 -17 31 -26 88 -26 23 0 42 -4 42 -8 0 -5 -11 -37 -26 -71 -24 -61 -29
-128 -9 -124 6 1 13 18 16 38 3 19 18 66 33 104 l28 68 57 14 c53 12 100 36
101 51 0 12 -35 15 -50 3 -12 -10 -100 -37 -100 -31 0 0 9 30 20 64 23 74 25
112 7 112 -8 0 -18 -25 -26 -62z"/>
<path d="M7595 8053 c-8 -43 -44 -150 -76 -225 -37 -90 -46 -138 -26 -138 9 0
18 13 22 31 4 17 29 86 55 153 50 125 65 196 43 203 -7 3 -15 -8 -18 -24z"/>
<path d="M13688 7973 l-35 -98 -61 0 c-34 -1 -65 -4 -69 -8 -13 -14 20 -27 68
-27 l47 0 -23 -63 c-29 -80 -34 -112 -17 -112 8 0 25 34 40 84 25 78 29 84 62
95 38 12 42 32 6 29 l-23 -1 33 89 c38 100 40 109 20 109 -8 0 -27 -39 -48
-97z"/>
<path d="M2090 7981 c-5 -11 -10 -27 -10 -36 0 -9 -13 -60 -30 -113 -16 -54
-31 -109 -32 -124 -3 -31 -27 -39 -148 -44 -53 -2 -75 -7 -75 -16 0 -20 49
-21 190 -4 71 9 148 17 169 19 22 1 41 8 44 15 3 9 -16 12 -72 12 -91 0 -89
-5 -46 136 37 118 47 174 32 174 -6 0 -16 -9 -22 -19z"/>
<path d="M10684 7979 c-8 -14 18 -31 30 -19 9 9 0 30 -14 30 -5 0 -12 -5 -16
-11z"/>
<path d="M10206 7894 c-48 -47 -92 -141 -131 -279 -10 -33 -24 -75 -33 -93
-10 -22 -11 -37 -5 -43 23 -23 98 126 117 234 4 21 11 35 17 32 14 -9 114 39
144 69 45 45 23 126 -34 126 -21 0 -42 -13 -75 -46z m92 4 c18 -18 14 -42 -10
-65 -28 -25 -81 -53 -102 -53 -13 0 -12 4 1 33 18 37 72 97 88 97 6 0 16 -5
23 -12z"/>
<path d="M11463 7903 c-21 -22 -54 -70 -74 -109 -23 -45 -42 -70 -55 -71 -10
-2 -53 -6 -94 -9 -63 -5 -78 -3 -89 10 -17 20 0 66 24 66 20 0 111 46 120 60
11 17 -15 40 -44 40 -17 0 -44 -14 -69 -36 -72 -61 -93 -128 -50 -158 28 -20
138 -21 191 -2 21 8 46 12 56 9 18 -5 36 22 29 44 -4 12 46 103 72 130 19 21
34 27 83 35 35 6 22 23 -20 26 -37 3 -46 -1 -80 -35z m-213 -47 c0 -2 -7 -7
-16 -10 -8 -3 -12 -2 -9 4 6 10 25 14 25 6z"/>
<path d="M6589 7900 c-44 -23 -52 -50 -35 -115 7 -28 11 -56 9 -62 -7 -20 -41
-15 -53 7 -13 24 -30 18 -30 -10 0 -24 29 -40 70 -40 42 0 58 34 42 89 -21 68
-16 89 23 108 19 9 35 23 35 30 0 18 -18 16 -61 -7z"/>
<path d="M7677 7889 c-43 -35 -44 -45 -17 -99 11 -22 20 -46 20 -55 0 -19 -41
-37 -54 -24 -16 15 -26 10 -26 -11 0 -30 45 -37 78 -13 36 26 39 67 11 116
-24 44 -27 38 35 82 10 7 15 18 11 24 -10 16 -17 14 -58 -20z"/>
<path d="M11725 7890 c-28 -29 -28 -32 -16 -63 27 -65 26 -83 -7 -96 -34 -14
-52 -8 -52 15 0 21 -24 12 -28 -10 -9 -45 50 -60 105 -27 43 27 48 51 22 102
l-21 43 23 19 c16 12 32 17 51 13 30 -6 49 11 27 25 -30 19 -75 10 -104 -21z"/>
<path d="M5082 7898 c7 -19 38 -22 38 -4 0 10 -9 16 -21 16 -12 0 -19 -5 -17
-12z"/>
<path d="M3715 7882 c-16 -11 -36 -26 -44 -35 -7 -10 -19 -17 -26 -17 -18 0
-50 -99 -38 -111 7 -7 22 8 42 40 39 60 94 111 121 111 11 0 20 7 20 15 0 21
-38 19 -75 -3z"/>
<path d="M4270 7864 c-49 -44 -51 -71 -10 -118 l31 -35 -47 -7 c-31 -4 -54 -3
-67 5 -27 17 -44 -1 -22 -23 27 -26 162 -15 181 15 3 6 -12 27 -35 48 -23 21
-41 43 -41 50 0 20 57 71 79 71 12 0 21 6 21 15 0 28 -48 16 -90 -21z"/>
<path d="M6022 7875 c-63 -53 -72 -120 -19 -158 24 -19 31 -19 80 -8 56 12 98
43 77 56 -6 4 -16 2 -23 -3 -7 -6 -30 -15 -53 -22 -52 -15 -84 -1 -84 36 0 27
35 84 51 84 17 0 9 -20 -16 -42 -27 -23 -33 -48 -12 -48 15 0 49 34 65 66 9
16 7 26 -4 42 -19 28 -26 27 -62 -3z"/>
<path d="M9002 7871 c-89 -89 -74 -194 18 -126 l34 25 15 -25 c17 -27 41 -34
41 -12 0 7 -5 18 -10 23 -7 7 -6 24 5 53 22 64 20 78 -16 85 -49 10 -56 8 -87
-23z m73 -11 c10 -16 -11 -44 -59 -78 -48 -35 -57 -30 -29 16 39 63 73 87 88
62z"/>
<path d="M9214 7886 c-3 -8 -2 -20 2 -27 4 -6 6 -48 5 -93 -2 -96 3 -116 33
-116 32 0 62 37 90 107 33 86 42 97 67 98 12 0 24 5 26 11 4 13 -47 38 -58 27
-15 -16 -51 -87 -70 -139 -22 -58 -46 -86 -53 -63 -3 8 -7 57 -9 108 -2 60 -8
96 -15 99 -7 2 -15 -3 -18 -12z"/>
<path d="M4020 7854 c-40 -37 -80 -99 -80 -127 0 -15 -85 -23 -120 -12 -20 6
-28 45 -10 45 6 0 11 12 11 28 2 23 2 23 6 5 4 -20 7 -21 26 -10 41 23 57 40
57 62 0 33 -21 36 -65 12 -75 -43 -103 -120 -57 -157 32 -26 88 -34 121 -17
24 12 31 12 47 0 11 -8 30 -11 49 -8 55 11 145 49 145 63 0 8 5 10 13 6 9 -5
9 -4 1 5 -9 10 -22 8 -60 -9 -27 -11 -68 -24 -91 -27 -36 -5 -43 -3 -43 11 0
18 13 31 80 79 32 24 45 40 45 57 0 38 -29 35 -75 -6z"/>
<path d="M9534 7875 c-40 -17 -80 -70 -89 -117 -6 -32 -3 -41 20 -64 25 -25
31 -26 83 -20 57 7 119 34 115 51 -3 16 -20 17 -35 2 -7 -8 -36 -17 -64 -21
-42 -5 -56 -3 -75 13 -20 16 -21 21 -10 35 7 9 17 13 22 10 5 -3 29 9 54 26
32 22 45 38 45 55 0 34 -28 46 -66 30z m36 -32 c0 -10 -70 -56 -76 -50 -8 7
45 57 61 57 8 0 15 -3 15 -7z"/>
<path d="M7323 7869 c-38 -11 -83 -62 -83 -95 0 -31 37 -41 78 -20 30 16 31
16 34 -11 3 -30 28 -45 28 -16 0 10 8 40 17 67 18 48 18 48 -6 67 -26 21 -24
21 -68 8z m31 -50 c-17 -19 -65 -49 -79 -49 -3 0 -5 5 -5 10 0 20 53 60 78 60
25 0 25 0 6 -21z"/>
<path d="M7894 7861 c-42 -11 -51 -17 -85 -63 -33 -47 -37 -87 -11 -111 26
-23 54 -21 111 8 85 43 116 110 71 155 -21 21 -35 23 -86 11z m69 -43 c19 -29
-7 -65 -67 -95 -56 -27 -86 -26 -86 5 0 29 48 86 83 99 40 15 57 13 70 -9z"/>
<path d="M10759 7842 c-24 -16 -50 -36 -57 -45 -8 -9 -19 -14 -27 -11 -8 3
-17 -7 -24 -27 -18 -52 2 -56 45 -9 41 45 121 97 131 86 4 -3 1 -29 -5 -57
-12 -52 -9 -73 11 -66 15 5 36 122 25 141 -13 24 -49 19 -99 -12z"/>
<path d="M2250 7841 c-5 -11 -10 -27 -10 -36 0 -9 -9 -34 -21 -57 -35 -68 -9
-70 62 -4 33 31 66 55 73 53 6 -2 13 -25 16 -52 7 -73 30 -71 30 2 0 84 -31
105 -90 63 l-29 -21 6 36 c4 28 2 35 -10 35 -9 0 -21 -9 -27 -19z"/>
<path d="M10435 7848 c-41 -22 -75 -62 -75 -88 0 -38 18 -50 71 -50 39 0 51 5
68 26 21 26 24 85 7 113 -9 14 -45 14 -71 -1z m45 -44 c16 -41 -3 -66 -48 -62
-49 4 -50 33 -3 65 19 13 36 23 38 23 2 0 8 -12 13 -26z"/>
<path d="M14030 7843 c-54 -36 -90 -77 -90 -104 0 -37 22 -52 85 -57 42 -3 58
-1 71 12 25 25 3 44 -30 27 -31 -17 -96 -7 -96 15 0 9 6 14 13 11 28 -10 127
40 127 65 0 10 -38 48 -47 47 -5 0 -19 -7 -33 -16z m40 -32 c0 -10 -61 -34
-68 -27 -4 5 47 35 61 36 4 0 7 -4 7 -9z"/>
<path d="M13352 7825 c-80 -67 -58 -170 32 -144 51 15 76 37 76 68 0 16 -6 34
-14 40 -8 7 -17 23 -20 36 -8 32 -36 32 -74 0z m66 -51 c35 -10 -10 -64 -55
-64 -30 0 -37 16 -23 51 12 29 22 31 78 13z"/>
<path d="M14232 7788 c-24 -23 -45 -52 -48 -65 -7 -26 1 -53 15 -53 10 0 27
39 22 54 -1 5 13 24 30 43 33 33 69 42 99 24 23 -15 33 -1 14 20 -11 12 -30
19 -54 19 -29 0 -44 -8 -78 -42z"/>
<path d="M10590 7774 c-23 -53 -25 -74 -7 -74 7 0 22 23 33 52 10 29 21 56 22
60 2 4 -4 8 -13 8 -9 0 -24 -18 -35 -46z"/>
<path d="M5053 7753 c-22 -8 -15 -43 7 -43 13 0 20 7 20 19 0 22 -9 30 -27 24z"/>
<path d="M2444 7535 c4 -17 -5 -49 -32 -107 -58 -122 -74 -171 -70 -208 4 -48
28 -52 28 -5 0 39 34 134 82 227 32 61 32 118 1 118 -11 0 -14 -6 -9 -25z"/>
<path d="M2277 7403 c-49 -153 -59 -223 -32 -223 10 0 15 11 15 35 0 19 21 98
46 175 41 127 47 160 26 160 -4 0 -29 -66 -55 -147z"/>
<path d="M1805 7438 c-62 -22 -145 -131 -145 -190 0 -50 60 -98 122 -98 33 0
65 30 53 49 -6 11 -45 2 -45 -10 0 -14 -28 -11 -60 6 -40 21 -47 55 -21 108
27 55 58 85 108 102 21 7 38 19 38 26 0 17 -15 19 -50 7z"/>
<path d="M2630 7413 c-41 -14 -106 -48 -112 -57 -18 -26 -6 -56 35 -90 l42
-36 -25 -21 c-16 -14 -34 -19 -52 -17 -35 6 -56 -15 -38 -37 23 -28 79 -16
128 28 31 29 28 55 -13 94 -46 45 -45 70 3 90 20 9 52 16 70 16 26 -1 32 3 30
15 -3 17 -40 25 -68 15z"/>
<path d="M2075 7399 c-11 -6 -35 -30 -52 -53 -44 -57 -47 -124 -7 -155 30 -24
52 -26 89 -9 37 17 33 39 -6 28 -45 -13 -79 3 -79 38 0 23 6 30 33 40 19 7 51
28 73 46 33 29 37 37 28 53 -13 21 -50 27 -79 12z m45 -28 c0 -11 -69 -55 -76
-48 -6 6 54 57 67 57 5 0 9 -4 9 -9z"/>
<path d="M2821 7201 c-26 -26 -27 -41 -1 -41 23 0 47 37 32 52 -7 7 -17 3 -31
-11z"/>
<path d="M5020 6843 c-52 -46 -166 -271 -176 -346 -6 -43 -12 -53 -48 -79 -23
-16 -51 -34 -63 -39 -24 -9 -32 -39 -10 -39 7 0 35 15 63 34 l50 34 13 -30 c8
-18 27 -36 47 -44 44 -18 51 -18 64 6 10 19 9 20 -12 15 -31 -8 -78 28 -78 59
0 15 25 45 78 93 119 108 172 212 158 308 -11 67 -35 75 -86 28z m55 -36 c14
-74 -42 -182 -142 -274 -32 -29 -58 -51 -60 -50 -8 8 25 94 68 181 49 98 102
176 119 176 5 0 12 -15 15 -33z"/>
<path d="M13707 6853 c-4 -3 -7 -16 -7 -28 0 -12 -17 -64 -38 -116 l-38 -94
-59 -5 c-79 -7 -88 -30 -11 -30 31 0 56 -4 56 -10 0 -6 -21 -51 -46 -101 -25
-51 -43 -98 -39 -107 9 -24 25 -1 81 120 l49 107 44 8 c63 11 69 38 8 31 l-46
-5 15 36 c31 72 54 145 54 173 0 27 -9 35 -23 21z"/>
<path d="M3383 6728 c-6 -29 -29 -120 -52 -203 -45 -163 -55 -240 -32 -240 8
0 15 11 17 25 11 84 17 113 35 180 12 41 30 102 40 135 26 85 34 155 16 155
-8 0 -18 -20 -24 -52z"/>
<path d="M6745 6766 c-91 -40 -195 -219 -195 -336 0 -33 -5 -41 -35 -60 -19
-12 -35 -25 -35 -30 0 -18 18 -18 48 0 29 18 31 18 36 2 15 -46 127 -69 174
-36 27 18 20 39 -8 24 -24 -13 -86 -13 -110 0 -11 6 -24 19 -29 29 -8 15 2 28
65 80 61 52 80 75 108 134 39 82 53 154 37 186 -13 24 -16 25 -56 7z m30 -68
c-15 -96 -81 -198 -169 -261 l-29 -21 7 49 c3 27 19 77 35 111 32 68 117 164
145 164 15 0 17 -6 11 -42z"/>
<path d="M5506 6758 c-3 -7 -7 -40 -11 -73 -3 -33 -21 -118 -39 -189 -33 -127
-36 -166 -11 -166 8 0 14 20 17 52 8 83 62 113 167 92 37 -8 47 -35 33 -88 -7
-24 -7 -38 0 -42 17 -11 28 10 34 62 9 70 -11 92 -93 100 -35 4 -63 11 -63 15
0 5 4 8 8 7 12 -4 77 50 112 93 27 34 29 41 18 61 -7 13 -13 24 -14 26 -1 1
-8 0 -16 -3 -19 -8 -12 -45 8 -45 8 0 14 -5 14 -11 0 -6 -6 -9 -12 -6 -7 3
-48 -30 -92 -72 -44 -43 -76 -67 -72 -56 15 54 36 171 36 205 0 38 -16 64 -24
38z"/>
<path d="M6095 6760 c-3 -5 6 -40 20 -76 54 -135 41 -272 -29 -315 -31 -19
-71 -24 -100 -13 -45 17 16 102 94 130 48 17 68 44 33 44 -35 0 -128 -56 -150
-89 -46 -69 -19 -121 63 -121 54 0 103 33 132 90 21 40 23 55 19 130 -4 55
-14 110 -30 155 -25 68 -39 86 -52 65z"/>
<path d="M11639 6733 c-6 -16 -24 -72 -40 -126 -17 -53 -43 -128 -59 -164 -45
-107 -22 -112 61 -13 80 94 109 92 74 -5 -8 -22 -15 -50 -15 -62 0 -33 27 -29
33 5 3 15 11 46 17 69 28 96 -22 128 -96 61 -20 -18 -20 -12 11 89 18 59 37
120 43 134 6 15 8 30 5 33 -13 12 -24 5 -34 -21z"/>
<path d="M7256 6738 c-2 -7 -9 -52 -16 -100 l-12 -87 -56 -3 c-43 -2 -57 -7
-57 -18 0 -12 11 -14 53 -12 61 3 61 2 37 -108 -8 -40 -10 -69 -5 -74 15 -15
21 -2 40 89 10 47 20 88 22 91 3 2 32 9 65 15 67 12 89 22 79 37 -4 7 -18 7
-39 2 -17 -4 -49 -11 -71 -15 l-38 -6 5 33 c15 82 19 156 8 162 -6 4 -13 1
-15 -6z"/>
<path d="M1520 6729 c-48 -14 -68 -35 -52 -51 9 -9 15 -10 20 -2 10 16 78 34
127 34 59 0 85 -10 85 -31 0 -23 -51 -82 -96 -109 -19 -12 -34 -27 -34 -33 0
-7 19 -25 41 -41 34 -24 40 -33 37 -59 -4 -41 -64 -83 -137 -97 -68 -13 -101
-5 -94 21 7 25 -9 24 -32 -1 -18 -20 -18 -22 -1 -38 20 -20 107 -22 175 -3 51
15 117 74 127 114 5 23 0 33 -32 65 l-39 37 49 45 c27 25 56 60 64 78 15 31
15 34 -6 55 -18 18 -35 22 -95 24 -39 1 -88 -2 -107 -8z"/>
<path d="M3706 6728 c-3 -7 -12 -49 -22 -93 -16 -79 -69 -268 -79 -285 -7 -11
22 -33 35 -25 6 3 8 10 5 14 -2 5 2 32 11 60 11 38 22 55 44 66 76 40 140 -13
140 -116 0 -29 4 -39 16 -39 8 0 13 4 10 8 -2 4 -1 14 3 21 13 20 -7 92 -35
128 -14 18 -38 36 -53 40 l-29 8 84 73 c46 40 84 78 84 83 0 26 -41 0 -128
-81 -53 -50 -98 -86 -100 -82 -1 5 7 48 18 96 11 48 20 95 20 106 0 23 -18 37
-24 18z"/>
<path d="M11491 6685 c-11 -25 -28 -71 -38 -101 l-17 -56 -66 4 c-36 3 -71 7
-79 9 -7 2 -16 -2 -18 -8 -6 -17 39 -33 98 -35 27 0 49 -4 49 -7 0 -4 -13 -47
-30 -96 -35 -102 -35 -105 -15 -105 9 0 23 29 41 88 32 106 47 132 78 132 13
0 26 7 30 15 4 11 -2 15 -24 15 l-29 0 18 53 c11 30 26 68 35 86 16 30 14 51
-4 51 -5 0 -18 -20 -29 -45z"/>
<path d="M10702 6698 c-7 -7 -12 -44 -12 -97 0 -105 -11 -148 -53 -203 -34
-44 -81 -78 -93 -66 -16 17 9 80 52 127 25 27 40 52 34 56 -14 9 -48 -12 -55
-35 -3 -11 -10 -20 -14 -20 -14 0 -51 -78 -51 -107 0 -118 162 -22 199 117 11
40 20 240 11 240 -3 0 -11 -5 -18 -12z"/>
<path d="M2122 6624 c-1 -36 -4 -69 -7 -75 -4 -5 -28 -9 -56 -9 -41 0 -49 -3
-49 -19 0 -16 6 -17 50 -13 l50 5 0 -35 c0 -19 -7 -58 -16 -87 -16 -56 -14
-71 10 -52 16 13 36 93 36 141 0 24 5 30 33 36 17 4 39 8 47 9 8 0 16 5 17 10
2 6 -18 10 -43 10 l-46 0 7 73 c6 66 5 72 -12 72 -16 0 -19 -9 -21 -66z"/>
<path d="M13303 6660 c-8 -21 -8 -32 -1 -36 13 -9 40 25 36 45 -5 26 -23 22
-35 -9z"/>
<path d="M8996 6668 c-3 -7 -7 -35 -10 -63 -4 -27 -20 -98 -38 -157 l-31 -108
-34 0 c-19 0 -33 -5 -33 -12 0 -9 -3 -9 -12 0 -7 7 -22 12 -34 12 -31 0 -54
26 -54 60 0 27 2 28 33 23 64 -10 122 75 65 96 -29 11 -67 -8 -102 -49 -35
-42 -41 -72 -22 -109 26 -49 43 -54 170 -52 64 1 68 2 63 22 -3 12 8 64 24
117 17 54 33 120 36 147 3 28 10 53 16 56 13 9 0 29 -19 29 -8 0 -16 -6 -18
-12z m-156 -186 c0 -9 -31 -26 -65 -36 -16 -5 -14 -1 8 19 28 24 57 33 57 17z"/>
<path d="M9097 6674 c-4 -4 -7 -22 -7 -41 0 -18 -15 -82 -34 -141 -19 -59 -38
-124 -41 -144 -9 -47 1 -88 20 -88 12 0 14 8 9 38 -4 27 4 66 30 148 20 61 39
131 42 156 6 44 -5 86 -19 72z"/>
<path d="M3520 6641 c0 -12 6 -21 16 -21 9 0 14 7 12 17 -5 25 -28 28 -28 4z"/>
<path d="M12106 6635 c-6 -17 19 -39 34 -30 16 10 8 38 -12 41 -9 1 -19 -4
-22 -11z"/>
<path d="M12834 6592 c-98 -72 -147 -160 -164 -297 -6 -49 -15 -106 -20 -125
-13 -46 -12 -60 1 -60 23 0 83 95 114 183 20 55 26 61 76 86 72 35 119 96 119
155 0 85 -54 110 -126 58z m90 -18 c13 -34 5 -73 -23 -111 -26 -36 -84 -73
-96 -61 -3 3 6 26 20 53 13 27 22 52 19 57 -12 19 -27 4 -52 -54 l-27 -61 -7
34 c-8 40 19 83 85 130 45 32 72 37 81 13z m-184 -259 c-19 -56 -49 -116 -49
-100 -1 18 19 149 25 168 5 17 7 17 24 2 18 -16 18 -18 0 -70z"/>
<path d="M1499 6584 c-24 -64 -60 -199 -57 -218 2 -12 10 -21 18 -21 8 0 14 7
12 17 -1 9 12 64 29 123 21 74 27 111 20 118 -7 7 -14 1 -22 -19z"/>
<path d="M6916 6601 c-9 -14 12 -63 25 -59 6 2 10 7 10 11 -1 4 -1 18 -1 32 0
25 -23 35 -34 16z"/>
<path d="M5154 6587 c-7 -20 3 -37 22 -37 18 0 18 24 -1 40 -12 10 -16 9 -21
-3z"/>
<path d="M14049 6555 c-27 -14 -93 -122 -105 -170 -6 -26 -20 -33 -26 -15 -2
8 -26 7 -76 -1 -87 -14 -122 -4 -122 36 0 15 4 24 9 21 13 -8 94 30 116 54 15
16 17 25 9 38 -17 27 -49 25 -94 -4 -48 -32 -70 -69 -70 -117 0 -47 22 -62 90
-62 l58 0 -33 -36 c-42 -47 -78 -109 -105 -181 -20 -53 -23 -57 -60 -63 -42
-7 -58 -21 -43 -36 6 -6 20 -6 38 1 15 6 30 9 32 6 2 -2 -10 -41 -28 -85 -25
-64 -29 -85 -20 -94 9 -9 14 -9 21 3 5 8 6 18 3 22 -2 5 1 15 7 24 7 8 23 42
35 77 21 59 25 62 59 67 46 6 51 24 9 28 -18 2 -33 9 -33 15 0 20 55 129 87
172 33 44 99 86 111 70 8 -11 48 -35 58 -35 3 0 3 16 0 34 -9 45 33 150 75
189 24 22 39 28 67 25 28 -2 37 1 37 12 0 21 -72 24 -106 5z m-219 -50 c0 -2
-19 -14 -42 -25 l-43 -21 30 26 c27 22 55 33 55 20z"/>
<path d="M14325 6546 c-81 -26 -115 -52 -115 -86 0 -5 14 -26 32 -46 31 -35
32 -37 13 -51 -15 -11 -39 -14 -93 -10 -63 3 -72 2 -70 -12 2 -11 19 -18 58
-22 65 -7 108 3 138 31 25 24 21 42 -21 87 l-29 31 25 17 c40 26 119 47 131
35 17 -17 28 -11 24 13 -4 27 -36 32 -93 13z"/>
<path d="M2845 6499 c-35 -50 -151 -158 -183 -170 -23 -9 -26 -29 -5 -36 6 -2
38 19 72 47 39 32 61 45 61 36 0 -9 12 -19 26 -22 21 -5 33 1 65 32 40 39 44
33 16 -24 -9 -18 -8 -25 3 -32 24 -15 35 -6 41 36 3 21 9 56 14 77 10 50 -9
49 -60 -4 -22 -22 -48 -45 -58 -51 -17 -8 -18 -7 -12 14 4 12 23 43 41 67 19
25 33 49 31 55 -8 23 -26 14 -52 -25z"/>
<path d="M5822 6525 c-29 -21 -72 -96 -72 -127 0 -44 65 -82 93 -54 8 8 17 12
21 9 3 -4 6 -1 6 5 0 7 -16 12 -39 12 -45 0 -56 10 -47 44 5 19 14 24 51 28
70 8 97 45 59 82 -20 20 -43 20 -72 1z m53 -26 c9 -13 6 -16 -30 -25 l-30 -7
19 22 c21 23 32 26 41 10z"/>
<path d="M8486 6510 c-44 -34 -76 -76 -76 -102 0 -33 52 -79 97 -85 52 -7 113
4 113 20 0 8 -22 12 -71 12 -62 0 -73 3 -90 24 -10 13 -19 28 -19 34 0 6 20
30 45 54 45 43 88 56 98 31 4 -10 7 -10 17 -1 11 10 11 15 0 28 -20 24 -71 18
-114 -15z"/>
<path d="M11850 6528 c-59 -22 -102 -96 -80 -138 14 -26 72 -52 95 -44 8 4 30
7 47 8 17 1 33 7 36 14 3 9 -14 12 -60 12 -58 0 -88 11 -88 32 0 4 19 16 43
26 51 23 71 45 62 71 -8 25 -24 31 -55 19z m30 -33 c0 -2 -15 -12 -32 -21
l-33 -17 19 22 c17 19 46 29 46 16z"/>
<path d="M3040 6504 c-6 -14 -10 -31 -10 -37 0 -7 -9 -27 -20 -45 -43 -70 -16
-70 57 -1 31 29 58 48 63 43 4 -5 4 -36 -1 -69 -11 -69 -5 -105 17 -105 12 0
15 6 10 23 -3 13 -1 51 5 85 15 96 -15 128 -74 82 l-26 -21 6 36 c7 42 -12 49
-27 9z"/>
<path d="M4007 6509 c-57 -43 -76 -133 -38 -180 16 -20 28 -24 68 -22 54 1
144 32 151 51 2 6 -3 12 -12 12 -9 0 -16 -5 -16 -11 0 -5 -3 -8 -8 -5 -4 2
-34 -2 -66 -9 -82 -19 -106 -8 -106 51 0 28 4 32 35 38 19 4 47 18 62 31 23
20 26 27 17 42 -16 26 -54 26 -87 2z m47 -24 c-10 -8 -23 -14 -29 -14 -5 0 -1
6 9 14 11 8 24 15 30 15 5 0 1 -7 -10 -15z"/>
<path d="M9295 6509 c-81 -43 -90 -69 -44 -127 10 -14 19 -28 19 -32 0 -14
-63 -31 -74 -20 -15 15 -36 12 -36 -5 0 -39 76 -42 125 -3 l25 20 -30 53 -30
53 37 22 c25 15 46 20 65 16 30 -6 38 10 16 32 -17 17 -27 15 -73 -9z"/>
<path d="M12237 6509 c-15 -12 -39 -41 -53 -65 -14 -24 -31 -42 -37 -41 -11 2
-43 -54 -49 -88 -2 -12 3 -21 15 -23 9 -2 17 1 17 6 0 15 79 133 114 170 31
33 69 42 106 22 26 -14 39 9 15 27 -28 20 -95 16 -128 -8z"/>
<path d="M5248 6505 c-29 -16 -88 -97 -88 -121 0 -22 26 -16 37 9 14 29 62 87
73 87 5 0 10 -30 12 -67 2 -50 7 -68 17 -68 19 0 19 153 0 166 -18 11 -19 11
-51 -6z"/>
<path d="M10125 6496 c-17 -7 -45 -30 -63 -51 -72 -82 5 -130 87 -54 26 24 46
16 30 -12 -13 -26 -8 -74 9 -74 9 0 15 17 17 52 2 29 9 61 14 72 14 26 14 51
-1 51 -6 0 -32 -17 -57 -38 -79 -67 -121 -80 -87 -27 20 31 60 57 89 59 25 1
31 29 7 33 -8 1 -29 -4 -45 -11z"/>
<path d="M10353 6486 c-21 -13 -44 -21 -50 -19 -10 4 -43 -64 -43 -87 0 -21
27 -7 55 30 27 34 72 66 81 57 2 -1 -6 -28 -18 -59 -22 -60 -19 -88 8 -88 10
0 14 5 10 15 -3 9 3 39 14 68 11 29 20 62 20 73 0 31 -32 35 -77 10z"/>
<path d="M13044 6490 c-17 -11 -39 -35 -49 -54 -18 -32 -18 -36 -2 -60 25 -38
78 -36 118 4 26 26 30 36 27 77 -3 45 -5 48 -33 51 -17 1 -43 -7 -61 -18z m66
-51 c0 -27 -36 -59 -65 -59 -37 0 -34 41 6 74 24 21 34 24 45 15 8 -6 14 -20
14 -30z"/>
<path d="M13360 6503 c-32 -12 -130 -120 -130 -145 0 -22 32 -4 54 30 29 45
64 77 93 86 l21 7 -23 -68 c-15 -42 -20 -69 -14 -72 6 -2 14 1 18 5 15 18 52
136 47 150 -5 14 -37 17 -66 7z"/>
<path d="M1930 6481 c0 -10 7 -24 15 -31 33 -28 -18 -100 -71 -100 -37 0 -50
27 -28 59 15 21 9 54 -10 48 -6 -2 -17 -16 -25 -32 -21 -42 0 -101 38 -110 37
-8 94 16 115 47 25 38 30 82 12 97 -9 8 -16 20 -16 27 0 8 -7 14 -15 14 -8 0
-15 -8 -15 -19z"/>
<path d="M12026 6427 c-15 -38 -26 -76 -24 -85 7 -35 24 -18 46 46 34 100 36
109 19 109 -8 0 -25 -29 -41 -70z"/>
<path d="M13195 6429 c-37 -75 -43 -99 -22 -99 13 0 77 129 77 156 0 32 -21
10 -55 -57z"/>
<path d="M3432 6433 c-18 -87 -18 -88 -2 -88 17 0 46 104 36 130 -11 29 -23
14 -34 -42z"/>
<path d="M5097 6473 c-4 -3 -7 -16 -7 -28 0 -13 -6 -41 -14 -63 -13 -35 -13
-42 0 -52 11 -10 15 -9 18 1 2 8 9 29 15 48 20 61 12 119 -12 94z"/>
<path d="M7012 6455 c-67 -31 -73 -48 -33 -89 32 -33 40 -56 19 -56 -26 0 -58
13 -58 22 0 5 5 6 12 2 7 -4 8 -3 4 4 -11 18 -26 14 -26 -6 0 -39 57 -68 89
-46 28 20 27 55 -4 88 -14 15 -25 29 -25 31 0 3 18 14 39 25 77 39 61 61 -17
25z"/>
<path d="M6828 6398 c-12 -54 -13 -77 -5 -87 9 -11 14 -9 29 10 12 13 15 26
10 31 -6 6 -6 25 0 49 10 38 6 69 -9 69 -5 0 -16 -33 -25 -72z"/>
<path d="M9731 6272 c-52 -63 -84 -128 -114 -232 -25 -86 -43 -110 -84 -110
-26 0 -31 -25 -7 -34 21 -8 76 22 68 37 -3 7 8 -3 25 -20 19 -20 42 -33 57
-33 30 0 33 27 3 32 -47 7 -44 32 8 84 54 54 108 157 126 239 20 98 -17 114
-82 37z m55 -22 c-12 -62 -67 -177 -103 -215 -20 -21 -38 -34 -40 -28 -5 15
39 140 63 179 28 45 68 93 78 93 5 1 6 -13 2 -29z"/>
<path d="M7426 6281 c-3 -5 -4 -16 -1 -23 8 -20 -7 -55 -45 -107 -24 -33 -34
-40 -41 -30 -11 19 -32 -2 -23 -24 7 -20 34 -22 56 -4 28 22 79 107 85 140 5
33 -18 69 -31 48z"/>
<path d="M14815 6230 c-44 -86 -125 -307 -125 -340 0 -20 5 -30 15 -30 9 0 15
9 15 25 0 29 66 209 112 308 24 49 29 70 21 78 -8 8 -18 -2 -38 -41z"/>
<path d="M14722 6227 c-22 -28 -122 -318 -122 -355 0 -7 5 -12 12 -10 6 2 30
60 52 129 23 68 52 145 64 170 12 25 22 50 22 57 0 17 -17 23 -28 9z"/>
<path d="M12149 6203 c-6 -16 -12 -40 -12 -55 0 -15 -5 -24 -10 -21 -6 3 -7 2
-4 -3 3 -6 -14 -52 -39 -103 -24 -52 -44 -97 -44 -102 0 -21 29 -6 59 31 35
43 78 76 87 67 4 -3 0 -26 -9 -50 -14 -42 -9 -77 12 -77 9 0 22 65 25 120 1
29 -3 36 -22 38 -13 2 -33 -3 -46 -11 -22 -15 -22 -14 9 81 18 54 30 100 28
105 -9 15 -24 6 -34 -20z"/>
<path d="M3566 6188 c-15 -56 -41 -124 -50 -130 -6 -4 -32 -8 -58 -8 -36 0
-48 -4 -48 -15 0 -11 12 -15 49 -15 l50 0 -19 -42 c-10 -24 -22 -60 -25 -80
-6 -31 -4 -38 9 -38 9 0 18 12 22 28 3 15 15 53 26 84 l20 57 59 7 c37 4 59
11 59 19 0 19 -25 25 -61 15 -18 -5 -34 -8 -36 -7 -1 2 6 25 15 53 10 27 18
55 18 63 -1 19 -25 26 -30 9z"/>
<path d="M6198 6143 c-14 -32 -28 -65 -30 -73 -3 -10 -15 -14 -40 -12 -45 4
-93 -35 -109 -89 -11 -34 -10 -42 6 -59 23 -25 61 -25 102 0 32 19 33 19 43 0
14 -25 44 -42 64 -34 23 9 19 21 -11 36 -34 16 -40 48 -17 83 19 29 56 183 48
197 -13 21 -33 3 -56 -49z m-50 -150 c3 -28 -2 -36 -30 -53 -56 -34 -86 -24
-69 23 14 35 52 68 76 65 14 -2 21 -12 23 -35z"/>
<path d="M8088 6150 c-55 -30 -60 -70 -16 -132 l19 -27 -33 -17 c-24 -13 -36
-14 -50 -5 -25 16 -30 14 -26 -11 4 -30 39 -35 89 -12 48 21 58 47 31 83 -45
61 -37 83 40 105 23 7 44 18 46 24 6 19 -59 13 -100 -8z"/>
<path d="M9891 6151 c-7 -5 -10 -14 -7 -20 11 -17 23 -13 29 9 6 22 0 25 -22
11z"/>
<path d="M7816 6129 c-72 -20 -132 -125 -91 -159 19 -15 51 -7 98 24 34 24 37
24 37 6 0 -10 7 -26 16 -35 13 -13 19 -13 31 -3 13 10 13 14 -3 25 -17 12 -17
16 5 68 13 31 22 57 20 59 -14 11 -89 21 -113 15z m64 -43 c0 -22 -123 -106
-137 -92 -9 9 8 45 37 75 21 24 37 31 64 31 24 0 36 -5 36 -14z"/>
<path d="M3060 6104 c-6 -14 -10 -27 -10 -30 0 -2 -25 -40 -55 -84 -98 -142
-81 -185 20 -50 33 44 77 91 98 105 l38 26 -31 -54 c-34 -61 -38 -106 -12
-130 22 -20 63 -22 80 -5 20 20 13 27 -25 25 -32 -2 -38 1 -41 20 -2 12 13 52
32 89 28 51 33 70 25 80 -15 19 -20 18 -64 -12 -31 -21 -36 -22 -30 -7 17 42
17 53 1 53 -9 0 -21 -12 -26 -26z"/>
<path d="M12690 6105 c-7 -8 -9 -22 -6 -31 5 -13 9 -14 21 -4 17 14 20 36 6
44 -5 3 -14 -1 -21 -9z"/>
<path d="M4425 6078 c-49 -43 -79 -102 -65 -128 6 -11 19 -20 29 -20 19 0 93
49 108 72 5 8 10 -9 13 -47 4 -44 9 -60 20 -60 11 0 14 10 12 40 -2 22 1 60 7
85 15 68 -1 71 -61 13 -30 -27 -64 -55 -76 -62 -37 -20 -27 14 19 64 31 33 49
45 70 45 19 0 29 5 29 15 0 29 -65 18 -105 -17z"/>
<path d="M4720 6084 c-19 -14 -41 -32 -48 -42 -7 -9 -16 -16 -20 -15 -9 2 -42
-99 -36 -109 11 -18 26 -5 45 40 27 61 54 90 95 98 27 5 33 10 30 28 -4 29
-25 29 -66 0z"/>
<path d="M5510 6060 c-57 -57 -65 -119 -17 -128 26 -5 92 17 132 44 l38 25 -6
-63 c-4 -35 -12 -92 -18 -127 -11 -62 -12 -63 -40 -57 -16 3 -42 9 -58 12 -68
14 -95 -84 -48 -176 12 -25 30 -47 40 -48 29 -6 75 46 99 110 15 41 26 58 39
58 29 0 49 11 49 27 0 11 -7 13 -30 8 -35 -8 -34 -14 -14 100 27 156 4 273
-38 191 -26 -51 -148 -97 -148 -56 0 5 16 28 36 50 26 29 44 40 65 40 19 0 29
5 29 15 0 10 -11 15 -35 15 -27 0 -44 -9 -75 -40z m74 -336 c20 -3 36 -8 36
-10 0 -19 -45 -116 -61 -130 -20 -18 -21 -18 -32 1 -39 66 -32 167 10 151 6
-3 28 -8 47 -12z"/>
<path d="M14944 6089 c-48 -14 -58 -32 -40 -68 9 -16 20 -33 26 -36 5 -3 15
-15 20 -26 10 -17 6 -22 -26 -35 -20 -9 -55 -14 -78 -12 -35 3 -41 0 -41 -17
0 -32 65 -32 131 -1 64 30 67 45 24 105 -17 23 -28 46 -25 51 9 14 86 23 98
11 18 -18 29 -13 25 12 -2 18 -10 22 -43 24 -22 1 -54 -3 -71 -8z"/>
<path d="M4894 6079 c-26 -13 -84 -113 -84 -145 0 -15 6 -24 15 -24 8 0 15 9
15 20 0 18 30 80 52 108 6 6 26 12 44 12 38 0 44 14 15 30 -23 12 -29 12 -57
-1z"/>
<path d="M5819 6067 c-18 -12 -47 -44 -63 -71 -28 -45 -29 -50 -15 -74 12 -22
23 -27 54 -28 49 -2 113 22 98 37 -6 6 -19 6 -37 -1 -15 -5 -41 -10 -57 -10
-24 0 -29 4 -29 25 0 21 10 29 64 54 72 32 81 42 66 71 -14 26 -39 25 -81 -3z
m31 -27 c-14 -11 -29 -20 -35 -20 -5 0 4 9 20 20 38 25 48 25 15 0z"/>
<path d="M8785 6082 c-28 -6 -54 -31 -76 -74 -24 -47 -24 -65 1 -78 19 -10 25
-6 21 14 -1 5 5 4 13 -3 13 -11 22 -10 51 8 44 26 45 26 45 3 0 -27 35 -56 57
-48 16 7 16 9 -6 25 -24 18 -25 27 -6 89 10 29 -15 30 -41 1 -22 -25 -86 -59
-109 -59 -14 0 -13 6 6 40 24 43 47 55 84 46 27 -7 41 7 22 21 -18 15 -40 20
-62 15z"/>
<path d="M3289 6030 c-47 -49 -62 -106 -34 -127 26 -18 44 -16 90 10 25 14 41
31 43 45 4 26 -35 112 -50 112 -6 0 -28 -18 -49 -40z m68 -59 c-1 -8 -17 -24
-35 -34 -51 -30 -61 -10 -27 49 l28 47 18 -24 c10 -13 18 -31 16 -38z"/>
<path d="M14249 6050 c-87 -46 -118 -136 -63 -179 26 -21 67 -27 98 -15 28 11
17 24 -20 24 -19 0 -44 5 -55 10 -23 13 -25 57 -3 88 18 26 84 62 114 62 11 0
20 7 20 15 0 21 -47 19 -91 -5z"/>
<path d="M5105 6042 c-44 -28 -87 -81 -83 -106 4 -29 50 -33 93 -7 25 14 32
16 28 5 -9 -23 6 -64 23 -64 12 0 15 6 10 25 -4 16 1 40 14 67 11 23 20 48 20
55 0 20 -24 16 -37 -6 -16 -25 -99 -74 -115 -69 -21 7 61 78 89 78 18 0 24 5
21 17 -5 25 -28 26 -63 5z"/>
<path d="M10005 6041 c-42 -26 -95 -86 -98 -112 -4 -38 17 -30 47 17 25 40 77
84 99 84 12 0 8 -40 -9 -96 -17 -53 -14 -89 9 -81 6 2 11 12 10 22 0 10 5 36
13 58 26 72 15 127 -25 127 -9 0 -29 -8 -46 -19z"/>
<path d="M10260 6037 c-63 -43 -92 -144 -52 -180 22 -20 73 -22 90 -5 21 21
13 31 -19 24 -37 -7 -59 7 -59 38 0 16 7 21 32 23 41 3 78 39 78 74 0 43 -30
54 -70 26z m40 -25 c0 -19 -28 -44 -46 -40 -18 3 -18 4 4 26 22 22 42 29 42
14z"/>
<path d="M10732 6035 c-20 -17 -32 -21 -39 -14 -13 13 -16 10 -42 -79 -21 -69
-21 -99 -1 -87 5 3 21 33 36 66 15 33 40 71 56 84 29 25 43 24 85 -3 28 -17
50 -7 31 15 -13 16 -68 43 -87 43 -5 0 -23 -11 -39 -25z"/>
<path d="M1943 6028 c-18 -13 -42 -40 -53 -61 -51 -90 27 -155 139 -116 36 13
45 46 9 35 -40 -12 -103 -17 -114 -9 -6 4 -14 18 -18 29 -5 18 -2 22 24 27 43
9 110 56 110 79 0 11 -11 23 -26 28 -34 13 -35 13 -71 -12z m37 -38 c-14 -10
-33 -21 -44 -24 -16 -4 -15 -2 5 20 12 13 32 24 43 24 20 0 20 -2 -4 -20z"/>
<path d="M5323 6030 c-19 -11 -33 -15 -33 -9 0 8 -5 7 -15 -1 -8 -7 -15 -18
-15 -24 0 -6 -7 -24 -15 -40 -9 -16 -13 -36 -10 -44 3 -9 24 6 64 49 78 81
100 67 67 -43 -14 -43 -12 -58 5 -58 11 0 39 95 39 132 0 59 -31 72 -87 38z"/>
<path d="M11825 6031 c-58 -27 -99 -74 -91 -104 9 -38 96 -67 96 -32 0 8 -8
15 -18 15 -10 0 -27 6 -37 14 -19 14 -19 15 0 37 25 28 91 58 128 59 17 0 27
5 27 15 0 21 -55 19 -105 -4z"/>
<path d="M12344 6024 c-73 -49 -102 -102 -72 -132 17 -17 43 -15 88 8 l39 20
3 -28 c2 -16 9 -27 18 -27 8 0 14 7 12 16 -1 9 7 38 18 64 11 25 20 51 20 56
0 17 -29 9 -40 -11 -11 -21 -105 -80 -127 -80 -23 0 -14 22 26 61 26 26 48 39
66 39 20 0 26 4 23 17 -5 27 -30 26 -74 -3z"/>
<path d="M1523 6030 c-26 -10 -81 -83 -89 -117 -14 -54 44 -70 95 -27 l31 26
0 -34 c0 -39 21 -75 38 -64 9 5 9 12 0 26 -11 18 -3 79 17 132 5 11 -2 26 -19
43 -27 27 -38 29 -73 15z m57 -44 c0 -18 -85 -96 -105 -96 -8 0 -15 3 -15 6 0
12 24 51 48 77 27 28 72 37 72 13z"/>
<path d="M14430 6021 c-41 -21 -80 -74 -80 -108 0 -14 13 -38 30 -55 27 -27
35 -29 73 -23 62 9 101 26 85 36 -7 5 -25 6 -40 3 -74 -15 -118 0 -118 43 0
26 61 83 89 83 l26 -1 -21 -17 c-12 -9 -37 -25 -54 -35 -23 -12 -30 -21 -23
-28 11 -11 70 17 106 49 23 20 22 49 -2 62 -26 13 -31 13 -71 -9z"/>
<path d="M10444 5977 c-45 -46 -57 -83 -28 -94 14 -5 35 0 102 24 7 3 12 -3
12 -15 0 -24 25 -48 35 -32 3 5 3 19 0 30 -4 13 2 34 15 57 33 57 18 72 -30
29 -37 -34 -108 -71 -117 -62 -3 2 9 19 24 36 19 21 42 35 67 39 49 8 51 25 3
29 -34 3 -44 -2 -83 -41z"/>
<path d="M13463 6006 c3 -7 -7 -23 -24 -35 -33 -25 -47 -65 -29 -86 17 -21 69
-19 108 5 45 28 45 69 -1 104 -37 28 -62 34 -54 12z m46 -60 c10 -11 7 -17
-11 -30 -24 -17 -68 -22 -68 -8 0 14 40 52 54 52 8 0 19 -6 25 -14z"/>
<path d="M1712 6004 c-17 -8 -64 -102 -56 -115 10 -17 23 -6 46 41 19 37 29
46 56 50 18 3 34 10 35 15 2 11 -60 17 -81 9z"/>
<path d="M9840 5985 c-17 -45 -22 -75 -16 -91 9 -25 33 0 34 35 0 17 5 38 11
49 10 19 6 32 -11 32 -5 0 -13 -11 -18 -25z"/>
<path d="M12790 5990 c-19 -10 -42 -22 -50 -25 -25 -10 -64 -85 -51 -98 8 -8
16 -4 28 13 28 42 83 90 103 90 24 0 33 -29 24 -75 -7 -40 8 -48 27 -14 15 29
5 100 -17 116 -23 17 -23 17 -64 -7z"/>
<path d="M12605 5944 c-25 -54 -27 -84 -5 -84 5 0 10 5 10 10 0 6 11 33 25 62
29 60 30 68 11 68 -8 0 -26 -25 -41 -56z"/>
<path d="M11875 5921 c-16 -3 -31 -14 -33 -23 -3 -14 2 -15 31 -8 43 9 59 19
52 31 -4 5 -9 8 -13 8 -4 -1 -20 -4 -37 -8z"/>
<path d="M7616 5868 c-3 -13 -7 -37 -10 -55 -3 -18 -35 -107 -71 -198 -37 -91
-64 -173 -61 -181 6 -17 26 -19 26 -3 0 6 27 81 61 166 60 151 89 240 89 276
0 25 -29 21 -34 -5z"/>
<path d="M6392 5807 c-11 -29 -25 -71 -31 -95 -9 -30 -18 -43 -34 -46 -90 -17
-143 -30 -151 -37 -21 -18 7 -22 74 -9 39 7 73 10 76 7 10 -10 -17 -70 -38
-88 -19 -15 -19 -16 1 -40 l20 -24 14 35 c7 19 22 56 31 83 17 46 18 47 62 47
32 0 44 4 44 15 0 11 -11 15 -40 15 -22 0 -40 2 -40 4 0 2 12 37 26 78 38 110
38 108 21 108 -10 0 -23 -20 -35 -53z"/>
<path d="M15174 5845 c-45 -20 -144 -114 -144 -136 0 -28 14 -23 43 15 32 42
113 96 143 96 28 0 42 19 23 31 -18 11 -27 10 -65 -6z"/>
<path d="M9473 5708 l-29 -93 -57 -3 c-42 -2 -57 -7 -57 -17 0 -11 13 -15 49
-15 l50 0 -15 -47 c-9 -27 -20 -58 -26 -70 -6 -13 -9 -26 -5 -29 16 -16 36 10
57 76 l23 72 49 -6 c38 -5 48 -4 48 8 0 15 -34 31 -48 22 -4 -2 -14 -1 -22 4
-12 7 -9 22 13 92 31 96 32 98 13 98 -10 0 -25 -32 -43 -92z"/>
<path d="M10400 5795 c0 -20 -34 -163 -42 -179 -9 -16 -17 -18 -64 -12 -43 5
-54 3 -54 -8 0 -15 30 -26 76 -26 l32 0 -23 -75 c-15 -47 -20 -77 -13 -81 15
-9 22 4 48 87 l23 77 56 4 c60 4 119 34 102 51 -6 6 -22 4 -44 -7 -19 -9 -51
-16 -70 -16 l-34 0 18 78 c23 94 23 112 4 112 -8 0 -15 -2 -15 -5z"/>
<path d="M1992 5724 c1 -49 -10 -64 -50 -64 -30 0 -64 -18 -57 -31 4 -5 24 -6
46 -3 21 4 39 3 39 -2 0 -5 -9 -38 -20 -72 -22 -71 -26 -116 -9 -110 7 2 24
46 39 98 22 79 31 97 56 112 16 10 37 18 46 18 9 0 20 5 23 10 10 16 -26 24
-56 13 l-29 -11 0 44 c0 33 -4 44 -15 44 -12 0 -15 -11 -13 -46z"/>
<path d="M7850 5730 c0 -28 -18 -84 -55 -171 -58 -137 -64 -159 -40 -159 19 0
49 46 40 60 -10 15 34 60 51 53 8 -3 21 0 28 6 11 9 22 9 48 -2 50 -21 61 -40
56 -97 -6 -55 -1 -65 19 -49 8 7 13 32 13 63 0 44 -4 56 -27 78 -16 14 -41 32
-57 40 l-29 15 34 25 c47 36 108 65 163 79 28 7 46 17 46 26 0 34 -147 -20
-235 -86 -76 -58 -77 -58 -53 1 25 59 31 149 11 155 -9 3 -13 -8 -13 -37z"/>
<path d="M1517 5743 c-4 -3 -7 -20 -7 -37 0 -46 -38 -187 -55 -206 -21 -23
-21 -110 0 -110 8 0 15 7 15 15 0 12 5 13 24 4 14 -7 36 -9 49 -5 53 13 102
173 63 205 -18 15 -63 4 -77 -18 -8 -13 -9 -11 -5 9 4 14 9 44 12 67 4 24 10
40 15 38 17 -11 21 19 4 32 -21 15 -29 16 -38 6z m73 -190 c-1 -36 -35 -112
-54 -119 -8 -3 -24 -1 -35 5 -17 9 -18 15 -10 39 13 37 67 102 85 102 9 0 14
-10 14 -27z"/>
<path d="M7697 5674 c-9 -10 2 -24 19 -24 8 0 14 7 14 15 0 15 -21 21 -33 9z"/>
<path d="M10905 5648 c-28 -22 -95 -149 -95 -180 0 -32 27 -19 38 20 36 115
99 176 141 137 19 -16 21 -16 27 -1 8 21 -22 45 -57 46 -15 0 -39 -10 -54 -22z"/>
<path d="M2882 5619 c-37 -36 -38 -49 -12 -104 22 -46 25 -76 8 -93 -17 -17
-42 -15 -71 8 -19 15 -26 17 -30 7 -11 -28 32 -57 82 -57 59 0 78 68 41 149
-23 49 -18 61 32 87 15 8 28 19 28 24 0 21 -48 8 -78 -21z"/>
<path d="M9198 5634 c-62 -19 -66 -42 -20 -102 l26 -34 -29 -24 c-32 -26 -80
-32 -88 -11 -3 9 -7 9 -17 0 -28 -26 32 -59 78 -42 36 14 82 58 82 80 0 10
-11 31 -25 47 -14 17 -25 34 -25 39 0 11 66 33 99 33 31 0 21 24 -10 27 -13 1
-45 -5 -71 -13z"/>
<path d="M11124 5631 c-52 -31 -104 -108 -104 -151 0 -54 28 -75 99 -74 73 0
111 11 111 30 0 12 -7 14 -27 10 -78 -15 -100 -16 -126 -7 -19 8 -27 18 -27
35 0 38 10 56 32 56 11 0 44 7 74 16 65 19 83 43 59 80 -19 29 -49 31 -91 5z
m64 -28 c-2 -11 -20 -21 -50 -29 -53 -13 -54 -4 -4 27 38 23 58 24 54 2z"/>
<path d="M2695 5630 c-11 -4 -38 -27 -58 -50 -28 -30 -37 -49 -35 -68 3 -25 7
-27 47 -28 25 0 47 -6 49 -12 4 -14 48 -16 57 -3 3 6 -3 14 -12 20 -17 9 -17
11 0 39 22 38 23 98 1 106 -19 7 -23 7 -49 -4z m35 -47 c0 -21 -61 -73 -84
-73 -24 0 -20 11 19 53 36 39 65 48 65 20z"/>
<path d="M6847 5611 c-18 -16 -42 -45 -52 -65 -33 -61 6 -106 93 -106 50 0 84
10 79 24 -2 7 -23 10 -54 8 -50 -4 -93 10 -93 28 0 6 6 10 14 10 18 0 73 45
87 71 14 27 2 59 -21 59 -11 0 -34 -13 -53 -29z m43 -19 c0 -9 -25 -33 -49
-47 -10 -6 -12 -4 -6 6 22 38 55 63 55 41z"/>
<path d="M1740 5615 c-7 -8 -15 -43 -17 -77 -5 -53 -2 -67 15 -88 20 -24 22
-24 49 -10 40 22 75 78 71 115 -4 41 -33 41 -33 0 0 -39 -31 -87 -53 -83 -27
5 -29 92 -3 115 15 12 18 20 9 30 -14 17 -23 16 -38 -2z"/>
<path d="M6506 5609 c-14 -11 -26 -16 -26 -10 0 6 -7 11 -15 11 -8 0 -15 -2
-15 -4 0 -2 -7 -40 -15 -83 -8 -43 -15 -79 -15 -80 0 -2 6 -3 14 -3 7 0 21 21
31 46 10 25 31 61 47 80 25 28 37 34 69 34 28 0 39 4 39 15 0 24 -81 20 -114
-6z"/>
<path d="M6691 5595 c-21 -19 -46 -35 -56 -35 -13 0 -16 -6 -12 -21 3 -11 0
-35 -8 -52 -23 -56 7 -96 60 -83 26 7 35 24 13 23 -37 -1 -48 4 -48 23 0 32
29 80 48 80 32 0 92 49 92 75 0 38 -41 33 -89 -10z"/>
<path d="M8150 5589 c-65 -71 -60 -170 9 -199 49 -20 171 11 133 34 -4 2 -29
0 -54 -5 -53 -12 -84 -1 -97 34 -12 32 -2 55 26 62 64 16 95 69 61 103 -20 20
-39 14 -78 -29z m60 -7 c0 -13 -23 -32 -39 -32 -11 0 -10 4 4 20 19 21 35 26
35 12z"/>
<path d="M10742 5598 c-6 -18 -14 -48 -17 -66 -6 -31 -33 -52 -66 -52 -22 0
-59 50 -59 80 0 20 -5 30 -15 30 -20 0 -20 -51 0 -89 27 -53 110 -65 149 -22
23 25 44 127 29 142 -8 8 -14 2 -21 -23z"/>
<path d="M3733 5578 c-48 -51 -65 -81 -57 -102 11 -28 43 -28 90 -2 54 30 54
30 54 13 0 -24 38 -50 76 -51 52 -1 53 18 2 30 l-43 9 2 65 c2 71 -4 80 -52
80 -23 0 -41 -11 -72 -42z m101 4 c7 -12 -51 -66 -91 -86 -29 -15 -33 -15 -33
-1 0 25 70 95 96 95 12 0 25 -4 28 -8z"/>
<path d="M10075 5578 c-122 -62 -126 -135 -9 -154 41 -6 114 10 114 25 0 16
-12 18 -49 9 -45 -11 -121 5 -121 26 0 8 21 28 47 45 48 32 55 35 86 32 20 -3
22 10 5 27 -16 16 -26 15 -73 -10z"/>
<path d="M9619 5556 c-18 -14 -44 -30 -56 -35 -18 -8 -43 -61 -43 -93 0 -22
31 -3 46 27 22 47 69 85 105 85 19 0 29 5 29 15 0 8 -4 15 -9 15 -5 0 -16 2
-23 5 -8 3 -30 -6 -49 -19z"/>
<path d="M7619 5523 c-20 -54 -23 -83 -7 -83 13 0 39 62 39 95 1 22 -22 14
-32 -12z"/>
<path d="M9879 5548 c0 -2 -2 -11 -4 -22 -4 -20 -50 -72 -77 -87 -9 -5 -24 -6
-33 -2 -14 5 -16 14 -11 54 8 59 -8 66 -30 14 -18 -45 -3 -85 38 -99 22 -8 34
-5 67 19 48 32 84 86 75 109 -5 13 -22 23 -25 14z"/>
<path d="M11435 5460 c-9 -15 39 -65 54 -56 15 9 14 36 -1 36 -6 0 -19 7 -29
16 -12 11 -19 12 -24 4z"/>
<path d="M6831 5024 c-29 -21 -61 -86 -71 -148 -9 -53 4 -187 21 -218 5 -10 9
-40 9 -66 0 -52 -20 -82 -54 -82 -27 0 -13 -25 16 -28 40 -5 68 42 68 113 l0
58 31 -7 c17 -3 38 -6 45 -6 8 0 14 -10 14 -25 0 -29 42 -55 90 -55 52 0 53
59 2 107 -15 15 -21 23 -14 19 6 -4 12 -2 12 4 0 26 -34 22 -61 -8 -15 -17
-29 -26 -31 -20 -2 5 -25 12 -51 15 -45 5 -47 7 -58 47 -31 113 1 241 69 279
30 18 34 18 57 3 41 -27 62 -15 30 17 -19 20 -97 20 -124 1z m169 -404 c14
-26 13 -30 -8 -30 -31 0 -55 24 -48 48 6 18 11 20 26 12 11 -6 24 -19 30 -30z"/>
<path d="M2415 4995 c-366 -30 -460 -39 -467 -44 -4 -3 -4 -11 0 -17 5 -8 45
-7 142 2 190 18 185 19 188 -12 2 -30 -36 -202 -73 -323 -14 -47 -25 -93 -25
-103 0 -31 28 -20 35 15 4 17 17 68 30 112 38 134 58 227 59 281 l1 52 115 6
c147 9 180 15 180 32 0 8 -8 13 -17 13 -10 -1 -85 -7 -168 -14z"/>
<path d="M7969 5003 c-1 -4 -1 -30 0 -58 1 -27 -9 -133 -24 -235 -14 -102 -26
-194 -28 -205 -1 -11 4 -20 11 -20 8 0 27 39 47 98 39 113 40 113 66 127 19
11 20 9 13 -94 -6 -93 -5 -106 10 -112 9 -3 24 -3 34 1 16 6 16 7 -2 20 -17
13 -18 23 -11 108 5 77 4 95 -9 106 -21 17 -50 6 -82 -32 -19 -23 -25 -26 -21
-12 3 11 11 61 17 110 14 106 10 197 -7 203 -7 2 -14 0 -14 -5z"/>
<path d="M11640 4985 c0 -3 6 -44 14 -92 8 -49 17 -116 21 -150 l6 -63 -28 0
c-43 0 -75 -21 -100 -65 -30 -53 -29 -68 8 -99 41 -35 83 -34 120 3 28 28 29
33 28 123 0 51 -6 134 -13 183 -7 50 -11 97 -9 106 6 23 -14 59 -32 59 -8 0
-15 -2 -15 -5z m40 -380 c0 -58 -25 -86 -74 -82 -19 1 -33 4 -30 6 2 2 -1 11
-6 20 -6 12 -2 29 16 59 22 36 30 42 60 42 34 0 34 0 34 -45z"/>
<path d="M12132 4948 c-7 -7 -12 -26 -12 -44 0 -17 -3 -59 -6 -93 l-7 -61 -68
0 c-65 0 -87 -9 -74 -30 3 -5 14 -6 25 -2 10 4 41 5 68 4 l49 -4 5 -100 c4
-69 9 -103 19 -108 14 -9 32 -3 25 9 -3 3 -8 50 -11 103 l-7 96 61 7 c43 5 61
11 61 21 0 12 -12 13 -61 9 l-61 -5 7 68 c3 37 8 81 11 99 5 34 -6 49 -24 31z"/>
<path d="M9801 4848 c0 -59 -6 -135 -16 -178 -15 -73 -14 -100 3 -100 5 0 20
24 32 53 12 28 29 60 38 70 15 17 16 17 28 -5 7 -13 16 -41 19 -63 10 -63 15
-75 32 -75 12 0 14 8 9 38 -10 64 -26 110 -45 133 -16 21 -22 22 -45 11 l-26
-12 0 74 c0 50 -4 76 -12 79 -10 4 -10 6 0 6 19 1 16 71 -3 71 -13 0 -15 -17
-14 -102z"/>
<path d="M6024 4888 c3 -24 21 -81 41 -128 56 -137 46 -176 -50 -206 -102 -30
-132 25 -43 80 25 17 27 16 38 -3 12 -24 40 -28 40 -7 0 8 -8 24 -18 36 -24
30 -63 21 -109 -25 -36 -36 -44 -83 -19 -104 41 -34 145 -15 198 36 40 38 38
92 -9 207 -20 50 -37 106 -37 124 0 25 -4 32 -19 32 -17 0 -19 -5 -13 -42z"/>
<path d="M1521 4855 c-12 -31 -21 -59 -21 -63 -1 -26 -18 -32 -49 -16 -40 20
-132 24 -138 6 -6 -17 73 -52 120 -52 20 0 37 -5 37 -11 0 -32 -54 -107 -95
-132 -55 -33 -59 -55 -10 -54 27 1 40 8 56 32 22 32 89 85 108 85 6 0 11 -9
11 -20 0 -34 29 -80 50 -80 17 0 19 5 13 33 -3 17 -12 47 -19 64 -13 32 -12
33 31 63 24 16 55 34 69 40 26 9 33 24 18 34 -4 2 -32 -2 -62 -10 -85 -22 -82
-24 -74 61 6 64 5 75 -9 75 -10 0 -23 -21 -36 -55z m59 -129 c0 -3 -4 -8 -10
-11 -5 -3 -10 -1 -10 4 0 6 5 11 10 11 6 0 10 -2 10 -4z m-60 -34 c0 -4 -9
-13 -19 -19 -16 -10 -18 -9 -14 8 5 18 33 28 33 11z"/>
<path d="M10816 4868 c9 -36 7 -161 -4 -279 -9 -85 -3 -123 18 -127 12 -2 15
13 15 80 0 46 3 125 7 177 8 103 -4 181 -29 181 -11 0 -13 -7 -7 -32z"/>
<path d="M10071 4846 c-8 -9 -5 -19 13 -35 26 -24 38 -17 30 17 -7 26 -29 35
-43 18z"/>
<path d="M8244 4829 c-8 -14 11 -33 25 -25 11 7 4 36 -9 36 -5 0 -12 -5 -16
-11z"/>
<path d="M14205 4783 c-6 -46 -35 -160 -50 -194 -13 -32 15 -29 53 6 22 19 42
35 46 35 3 0 6 -15 6 -33 0 -51 34 -77 98 -77 40 0 52 4 52 15 0 11 -12 15
-48 15 -55 0 -72 12 -72 53 0 33 -16 67 -32 67 -6 0 -20 -7 -30 -17 -22 -20
-23 -11 -3 72 19 77 19 105 1 105 -10 0 -17 -16 -21 -47z"/>
<path d="M3085 4758 c-38 -21 -65 -52 -65 -75 0 -12 16 -40 35 -62 41 -45 42
-52 14 -77 -17 -15 -23 -16 -41 -5 -24 15 -29 12 -21 -17 13 -51 113 -6 113
52 0 13 -16 43 -35 66 -40 48 -36 69 15 92 16 7 30 19 30 25 0 16 -18 16 -45
1z"/>
<path d="M3901 4759 c-94 -38 -142 -136 -81 -169 23 -12 76 6 99 33 21 26 30
20 24 -17 -6 -38 10 -76 32 -76 17 0 20 21 5 36 -6 6 -5 36 4 87 13 74 12 77
-9 97 -23 22 -38 24 -74 9z m59 -44 c0 -7 -20 -31 -45 -54 -63 -58 -113 -54
-81 7 26 50 126 87 126 47z"/>
<path d="M13495 4763 c-28 -7 -55 -33 -55 -52 0 -9 12 -34 25 -56 32 -51 31
-60 -5 -75 -36 -15 -62 -7 -58 17 2 11 -3 18 -12 18 -22 0 -25 -46 -4 -62 25
-19 64 -16 102 7 39 24 41 48 6 107 -14 24 -22 48 -19 53 3 6 24 10 45 10 45
0 60 14 31 29 -21 12 -24 12 -56 4z"/>
<path d="M2435 4742 c-16 -11 -36 -26 -44 -35 -7 -9 -17 -15 -21 -12 -10 6
-27 -16 -27 -35 0 -8 -8 -41 -18 -73 -11 -40 -14 -62 -7 -69 14 -14 38 25 51
81 12 56 38 91 85 116 37 20 37 20 52 1 21 -29 39 -7 18 22 -18 27 -49 28 -89
4z"/>
<path d="M4113 4709 c-47 -41 -59 -65 -62 -121 -2 -46 15 -32 48 37 34 73 73
103 95 73 7 -10 17 -13 24 -9 15 9 -22 61 -43 61 -8 0 -35 -19 -62 -41z"/>
<path d="M4325 4721 c-48 -29 -67 -57 -72 -104 -5 -39 -1 -48 25 -78 30 -33
32 -34 108 -33 46 1 80 6 82 12 2 6 10 8 18 5 9 -3 14 1 14 11 0 14 -7 16 -52
9 -115 -17 -168 2 -168 62 0 19 4 21 27 17 18 -3 30 1 40 13 7 11 13 13 13 7
0 -18 56 12 64 34 9 24 -20 64 -47 64 -12 0 -35 -8 -52 -19z m65 -25 c0 -19
-19 -32 -57 -41 -22 -4 -33 -3 -33 4 0 13 58 51 78 51 6 0 12 -6 12 -14z"/>
<path d="M2610 4711 c-38 -20 -80 -89 -80 -130 1 -54 50 -86 116 -76 50 7 64
20 31 29 -33 9 -37 8 -37 -11 0 -11 -3 -14 -8 -7 -4 6 -20 17 -37 25 -16 8
-31 22 -33 32 -3 14 4 17 36 17 77 0 133 87 80 124 -28 20 -26 20 -68 -3z m60
-34 c0 -25 -46 -59 -76 -55 l-27 3 27 33 c28 33 76 45 76 19z"/>
<path d="M2807 4719 c-26 -15 -57 -86 -57 -130 0 -68 64 -106 135 -79 39 15
20 33 -27 25 -30 -5 -44 -3 -59 11 -25 23 -24 41 4 49 34 11 77 56 77 81 0 24
-24 54 -43 54 -7 0 -20 -5 -30 -11z m43 -41 c0 -16 -31 -48 -47 -48 -17 0 -17
10 3 38 16 23 44 30 44 10z"/>
<path d="M8460 4711 c-19 -10 -50 -38 -67 -63 -32 -45 -33 -46 -17 -79 24 -49
53 -69 101 -69 50 0 73 8 73 26 0 10 -12 12 -50 7 -40 -5 -54 -2 -70 12 -28
25 -25 33 18 50 46 20 92 63 92 86 0 17 -25 49 -38 49 -4 0 -23 -8 -42 -19z
m48 -33 c-6 -17 -67 -58 -86 -58 -11 0 -5 11 18 35 33 34 76 48 68 23z"/>
<path d="M9201 4714 c-45 -19 -56 -51 -53 -146 2 -26 7 -38 17 -38 12 0 15 14
15 64 0 80 15 99 74 94 31 -2 41 1 44 13 4 22 -57 30 -97 13z"/>
<path d="M10244 4711 c-78 -36 -95 -137 -31 -185 23 -17 41 -21 89 -19 73 3
98 10 98 28 0 12 -41 13 -103 0 -10 -2 -32 1 -48 7 -32 11 -51 57 -39 93 11
31 55 58 96 59 21 1 39 7 42 14 2 6 -2 12 -10 12 -7 0 -22 2 -33 5 -11 3 -38
-3 -61 -14z"/>
<path d="M8932 4705 c-48 -35 -68 -118 -36 -149 21 -22 67 -20 95 3 23 19 24
19 53 -6 21 -18 32 -21 40 -13 8 8 5 16 -13 29 -22 17 -23 23 -17 68 7 59 -3
72 -61 80 -26 3 -45 -1 -61 -12z m72 -21 c20 -8 20 -27 1 -63 -15 -30 -66 -58
-84 -46 -25 15 5 99 38 108 26 7 29 7 45 1z"/>
<path d="M8677 4683 c-6 -16 -17 -34 -23 -40 -14 -14 -7 -53 8 -53 7 0 7 -4 1
-12 -17 -21 -24 -66 -12 -74 24 -14 44 26 49 99 l5 72 59 0 c68 0 87 19 29 29
-78 12 -102 8 -116 -21z"/>
<path d="M9507 4692 c-39 -27 -56 -53 -57 -88 0 -36 23 -60 77 -79 33 -12 40
-12 49 1 9 11 13 12 16 3 5 -15 60 1 66 19 3 9 -11 11 -52 6 -69 -8 -114 8
-123 44 -8 35 43 82 91 82 21 0 36 6 40 15 8 22 -71 20 -107 -3z"/>
<path d="M10533 4695 c-23 -10 -35 -23 -41 -47 -20 -74 35 -126 99 -94 39 19
39 19 39 3 0 -8 9 -22 19 -31 24 -22 37 -5 20 25 -7 13 -9 42 -6 70 6 46 5 49
-27 69 -39 23 -59 24 -103 5z m83 -29 c18 -14 18 -17 4 -43 -34 -62 -104 -62
-98 0 2 22 11 35 28 44 32 16 42 16 66 -1z"/>
<path d="M11831 4694 c-13 -9 -29 -32 -37 -50 -32 -76 40 -131 116 -89 23 12
27 11 51 -18 35 -42 49 -27 21 22 -12 21 -22 52 -22 69 0 21 -9 38 -31 56 -35
30 -65 33 -98 10z m70 -24 c44 -24 5 -104 -49 -98 -37 4 -43 50 -11 84 25 27
32 28 60 14z"/>
<path d="M12293 4690 c-37 -22 -60 -55 -64 -90 -7 -64 30 -92 95 -70 31 10 38
9 58 -9 12 -12 38 -26 58 -31 45 -12 125 0 125 20 0 10 -15 13 -66 11 -51 -2
-70 2 -88 17 -20 15 -22 22 -12 40 14 26 14 72 1 106 -7 21 -16 26 -42 26 -18
0 -47 -9 -65 -20z m74 -61 c-9 -45 -14 -53 -45 -66 -19 -8 -41 -12 -48 -9 -15
6 -19 54 -6 71 16 24 66 55 87 55 21 0 22 -2 12 -51z"/>
<path d="M13631 4692 c-6 -12 -11 -36 -11 -56 0 -95 133 -93 182 3 27 54 -1
81 -48 47 -18 -14 -18 -15 5 -24 l25 -9 -27 -27 c-22 -22 -35 -27 -65 -24
l-37 3 0 47 c0 54 -9 68 -24 40z"/>
<path d="M13970 4703 c-8 -3 -30 -19 -47 -36 -40 -37 -46 -94 -14 -126 27 -27
92 -45 135 -37 60 11 45 33 -23 32 -45 -1 -64 4 -80 18 -51 46 -5 120 74 121
53 0 67 11 31 25 -29 11 -52 12 -76 3z"/>
<path d="M5261 4683 c-49 -25 -62 -50 -36 -69 11 -8 30 -13 41 -10 49 13 107
-208 84 -319 -15 -71 -66 -149 -101 -153 -45 -5 -79 59 -79 149 0 70 32 82
143 54 46 -12 32 19 -17 37 -43 16 -78 14 -128 -7 -32 -13 -41 -78 -22 -151
32 -125 100 -154 169 -72 87 103 96 266 23 429 -30 67 -33 71 -60 65 -36 -7
-37 11 0 21 39 10 62 6 82 -12 26 -23 38 1 14 26 -28 28 -73 33 -113 12z"/>
<path d="M7163 4690 c-33 -13 -56 -56 -57 -104 -1 -43 18 -81 35 -70 5 3 6 29
3 57 -8 75 12 96 80 85 29 -5 30 17 1 30 -30 14 -32 14 -62 2z"/>
<path d="M10058 4693 c7 -3 16 -2 19 1 4 3 -2 6 -13 5 -11 0 -14 -3 -6 -6z"/>
<path d="M6620 4677 c0 -7 6 -14 13 -15 6 -1 33 -4 58 -8 31 -4 49 -2 54 6 10
16 8 16 -62 24 -50 6 -63 4 -63 -7z"/>
<path d="M10049 4678 c0 -2 -3 -31 -5 -65 -4 -57 4 -80 20 -54 8 13 15 93 9
108 -4 11 -21 18 -24 11z"/>
<path d="M5501 4622 c-11 -16 -23 -40 -26 -54 -12 -47 50 -81 102 -56 35 17
41 49 16 99 -23 49 -61 54 -92 11z m63 -24 c9 -12 16 -30 16 -39 0 -20 -37
-31 -61 -18 -17 9 -18 11 -2 44 20 41 26 43 47 13z"/>
<path d="M5730 4637 c-14 -7 -33 -29 -43 -50 -18 -35 -18 -39 -3 -62 20 -30
45 -32 79 -5 38 30 45 77 16 106 -21 21 -27 22 -49 11z m30 -62 c0 -24 -31
-51 -44 -38 -11 11 -6 36 10 54 20 23 34 16 34 -16z"/>
<path d="M8226 4604 c-9 -66 -8 -104 3 -104 15 0 18 10 26 83 6 56 5 67 -7 67
-11 0 -17 -15 -22 -46z"/>
<path d="M12876 4513 c-4 -9 -1 -20 6 -24 20 -13 -3 -60 -39 -81 -26 -16 -35
-17 -52 -6 -11 7 -24 9 -28 5 -11 -12 11 -42 35 -45 31 -5 101 35 112 64 15
40 12 91 -6 98 -21 8 -21 8 -28 -11z"/>
<path d="M3970 4482 c-44 -22 -56 -69 -41 -164 18 -113 22 -108 -59 -101 -61
5 -70 4 -70 -11 0 -12 10 -16 44 -16 24 0 58 -3 75 -6 27 -6 30 -9 25 -33 -14
-56 -36 -92 -54 -86 -10 3 -21 1 -24 -4 -6 -10 19 -41 33 -41 35 0 98 151 81
193 -16 41 -30 172 -22 202 11 38 54 62 87 47 28 -13 38 -5 24 19 -12 24 -53
24 -99 1z"/>
<path d="M7514 4436 c3 -30 3 -82 -1 -115 -6 -62 -6 -62 -34 -56 -16 4 -29 3
-29 -2 0 -15 23 -33 41 -33 13 0 17 -13 22 -66 5 -69 9 -80 27 -69 7 4 9 27 4
66 l-7 59 50 0 c53 0 102 23 72 35 -8 3 -26 2 -38 -3 -13 -4 -37 -6 -53 -4
l-30 5 6 67 c9 89 -1 170 -22 170 -12 0 -14 -10 -8 -54z"/>
<path d="M6410 4455 c0 -4 7 -19 15 -36 10 -18 18 -70 22 -129 5 -87 4 -100
-10 -100 -9 0 -19 5 -22 10 -11 19 -63 10 -93 -15 -40 -34 -58 -80 -45 -115 8
-22 6 -31 -13 -53 -28 -32 -44 -86 -44 -147 0 -52 -7 -66 -35 -71 -11 -3 -21
-13 -23 -23 -3 -16 0 -18 22 -12 25 6 26 5 26 -42 0 -73 31 -155 52 -134 5 5
2 27 -7 51 -8 24 -15 63 -15 87 l0 44 80 0 c64 0 80 3 80 15 0 12 -15 15 -78
15 l-78 0 7 74 c6 63 30 136 44 136 2 0 20 -8 40 -17 40 -19 60 -9 29 15 -20
17 -20 17 18 35 25 12 48 35 66 65 25 44 27 55 27 157 -1 129 -16 195 -45 195
-11 0 -20 -2 -20 -5z m3 -288 l26 -14 -19 -30 c-23 -38 -57 -63 -87 -63 -32 0
-39 34 -13 74 29 48 50 55 93 33z"/>
<path d="M13863 4433 c-7 -3 -13 -21 -13 -41 0 -20 -11 -83 -25 -140 -14 -57
-25 -114 -25 -127 0 -47 19 -34 57 41 21 42 43 76 48 76 25 0 50 -54 48 -103
-3 -61 22 -70 32 -11 7 41 -4 79 -36 123 -23 33 -44 36 -72 12 -19 -18 -19
-17 -12 15 14 66 23 147 16 153 -3 4 -12 4 -18 2z"/>
<path d="M9477 4414 c-3 -4 -3 -14 2 -23 10 -21 14 -106 6 -132 -6 -17 -14
-20 -48 -17 -32 2 -42 -1 -42 -12 0 -11 13 -16 44 -18 l43 -3 -4 -65 c-3 -52
-1 -64 10 -59 7 3 16 5 18 5 2 0 4 27 4 60 l0 60 60 0 c56 0 75 10 49 25 -6 4
-8 13 -5 21 7 19 -19 18 -38 -1 -8 -8 -25 -15 -38 -15 -21 0 -23 4 -20 47 5
81 -17 151 -41 127z"/>
<path d="M4281 4380 c-12 -7 -13 -11 -1 -25 10 -12 12 -47 7 -158 -7 -151 0
-189 28 -153 8 11 12 22 7 25 -4 3 -7 72 -7 153 0 147 -6 176 -34 158z"/>
<path d="M13675 4363 c-26 -128 -41 -147 -111 -136 -26 4 -34 2 -34 -10 0 -16
29 -27 72 -27 27 0 27 -1 30 -72 2 -54 7 -73 17 -73 10 0 14 19 15 75 l1 75
55 0 c72 0 78 18 10 28 -30 4 -55 8 -56 10 -1 1 4 20 12 42 7 22 15 55 16 74
4 42 -19 54 -27 14z"/>
<path d="M10567 4345 c8 -50 -10 -68 -59 -60 -30 5 -38 4 -38 -8 0 -17 21 -27
59 -27 27 0 27 0 23 -63 -6 -88 20 -174 42 -139 2 4 0 28 -6 53 -6 26 -8 71
-4 102 8 62 11 63 108 70 62 4 37 22 -30 22 l-63 0 1 30 c3 49 1 55 -19 55
-17 0 -19 -5 -14 -35z"/>
<path d="M6574 4349 c-8 -13 3 -24 34 -34 15 -4 22 -2 22 7 0 30 -41 50 -56
27z"/>
<path d="M1795 4342 c-24 -5 -43 -20 -56 -43 -7 -15 2 -30 46 -80 54 -60 63
-81 47 -107 -6 -9 -16 -10 -40 -1 -24 8 -32 17 -32 35 0 15 -6 24 -15 24 -10
0 -15 -10 -15 -30 0 -33 26 -56 77 -66 25 -5 34 -2 47 17 32 47 15 94 -58 160
-38 34 -30 62 16 57 18 -2 33 2 35 9 5 15 -26 31 -52 25z"/>
<path d="M9290 4316 c-27 -10 -36 -19 -38 -41 -3 -22 7 -37 52 -81 31 -30 56
-56 56 -59 0 -2 -21 -7 -47 -11 -38 -6 -49 -4 -60 12 -18 25 -43 3 -27 -24 14
-22 99 -28 134 -9 42 21 37 45 -26 108 -32 32 -56 60 -53 63 14 14 79 33 84
25 8 -12 45 -12 45 1 0 14 -35 30 -62 29 -13 0 -39 -6 -58 -13z"/>
<path d="M4114 4308 c-8 -12 21 -38 43 -38 16 0 16 5 3 31 -12 21 -35 25 -46
7z"/>
<path d="M11128 4296 c-53 -40 -91 -264 -39 -232 6 4 11 22 11 40 0 58 22 145
41 162 22 19 49 12 56 -15 8 -31 33 -35 33 -6 0 51 -62 82 -102 51z"/>
<path d="M1483 4280 c-75 -46 -85 -160 -14 -160 16 0 40 9 53 20 28 21 38 18
38 -15 0 -26 18 -45 42 -45 22 0 23 8 1 32 -12 13 -16 35 -15 77 1 46 -3 65
-19 85 -24 31 -43 32 -86 6z m70 -35 c7 -17 -38 -82 -63 -90 -41 -13 -52 17
-23 65 26 45 74 59 86 25z"/>
<path d="M6741 4283 c-16 -14 -24 -38 -33 -99 -11 -79 -8 -114 11 -114 11 0
27 66 22 89 -1 8 0 35 4 59 l7 44 38 -6 c49 -8 60 8 21 29 -38 19 -44 19 -70
-2z"/>
<path d="M4463 4267 c-24 -14 -54 -50 -70 -87 -16 -38 24 -97 73 -106 56 -10
148 7 152 28 3 15 -1 17 -30 10 -102 -22 -203 7 -121 36 56 19 76 41 69 77 -6
26 -30 56 -45 55 -3 -1 -16 -6 -28 -13z m40 -41 c7 -18 -24 -46 -51 -46 -28 0
-28 8 0 37 24 26 43 29 51 9z"/>
<path d="M7415 4270 c-8 -13 3 -30 20 -30 8 0 11 7 8 20 -6 22 -18 26 -28 10z"/>
<path d="M7961 4263 c-38 -31 -55 -213 -19 -201 6 2 12 31 13 64 4 105 24 132
85 114 39 -11 54 -5 41 17 -13 24 -93 28 -120 6z"/>
<path d="M9771 4254 c-26 -33 -56 -126 -48 -148 11 -28 26 -17 37 27 22 86 35
112 58 115 13 2 30 -2 38 -9 11 -9 18 -9 26 -1 17 17 -18 41 -59 42 -22 0 -37
-8 -52 -26z"/>
<path d="M10088 4275 c-1 -6 -2 -41 -2 -80 -1 -67 -2 -70 -27 -73 -33 -4 -75
30 -90 73 -16 43 -45 49 -34 8 18 -75 61 -113 128 -113 33 0 40 4 52 33 10 24
11 45 3 87 -9 51 -26 87 -30 65z"/>
<path d="M14100 4243 c-64 -53 -74 -127 -24 -174 23 -21 35 -24 106 -24 56 0
83 4 85 13 4 9 -13 12 -62 12 -75 0 -120 18 -128 51 -8 29 -1 39 27 39 36 0
85 20 96 39 13 26 -10 65 -41 69 -17 2 -38 -7 -59 -25z m65 -23 c0 -15 -52
-36 -63 -25 -9 9 38 47 52 42 6 -2 11 -10 11 -17z"/>
<path d="M7675 4235 c-25 -24 -33 -73 -19 -110 9 -21 56 -45 92 -45 40 0 82
35 82 67 0 32 -78 113 -109 113 -12 0 -33 -11 -46 -25z m55 -14 c0 -5 9 -11
19 -14 10 -2 27 -17 37 -32 18 -27 18 -28 -5 -46 -28 -23 -50 -24 -79 -3 -26
18 -30 65 -6 88 17 18 34 21 34 7z"/>
<path d="M10295 4246 c-51 -19 -74 -36 -89 -64 -18 -35 -10 -79 18 -97 45 -28
183 -30 153 -1 -7 6 -31 12 -55 13 -75 2 -92 10 -92 42 0 44 52 85 97 76 25
-4 33 -2 33 9 0 24 -31 35 -65 22z"/>
<path d="M10780 4238 c-42 -46 -10 -135 55 -154 96 -27 163 43 123 131 -15 32
-43 35 -33 3 23 -75 10 -108 -45 -108 -42 0 -59 9 -76 42 -16 32 -12 63 11 72
19 7 19 22 0 30 -8 3 -24 -4 -35 -16z"/>
<path d="M7182 4233 c-40 -20 -82 -68 -82 -95 0 -11 14 -33 31 -49 27 -25 39
-29 89 -29 40 0 59 4 63 14 4 11 -5 14 -43 14 -47 1 -88 15 -101 35 -19 28 36
87 83 87 12 0 29 4 37 9 11 7 10 11 -7 20 -26 14 -30 14 -70 -6z"/>
<path d="M11348 4241 c-21 -4 -47 -16 -58 -26 -42 -38 -49 -126 -12 -167 33
-38 288 -5 316 41 10 15 -11 23 -31 12 -32 -17 -151 -41 -206 -41 -48 0 -55 3
-66 26 -13 29 -7 44 18 44 9 0 41 7 69 15 61 18 95 57 71 80 -19 19 -57 25
-101 16z m62 -45 c-18 -16 -75 -36 -103 -36 -20 0 -20 1 3 25 18 20 33 25 69
25 39 0 43 -2 31 -14z"/>
<path d="M2536 4209 c-31 -37 -34 -81 -6 -109 28 -28 63 -25 99 9 l30 28 11
-33 c15 -45 35 -60 63 -47 l22 11 -27 12 c-29 14 -44 61 -33 110 6 27 3 30
-32 39 -67 19 -99 14 -127 -20z m96 -29 c-1 -14 -14 -36 -27 -50 -20 -20 -29
-23 -43 -14 -24 15 -27 41 -7 70 13 20 23 25 48 22 28 -3 32 -6 29 -28z"/>
<path d="M6894 4196 c-37 -37 -44 -50 -44 -83 0 -62 56 -95 154 -90 68 3 75
27 8 27 -104 0 -171 47 -102 71 16 6 27 15 24 20 -3 5 1 6 9 3 14 -5 77 40 77
56 0 17 -32 40 -57 40 -17 0 -40 -15 -69 -44z m86 4 c0 -11 -79 -54 -86 -47
-3 3 9 16 26 31 32 26 60 34 60 16z"/>
<path d="M8256 4204 c-3 -8 -25 -47 -47 -86 l-42 -72 -23 30 c-13 16 -24 40
-24 54 0 33 -15 54 -30 45 -17 -11 -4 -72 26 -117 13 -21 24 -41 24 -46 0 -5
-27 -54 -60 -109 -65 -108 -84 -163 -56 -163 9 0 16 6 16 13 0 22 45 104 199
357 28 47 51 91 51 98 0 17 -27 15 -34 -4z"/>
<path d="M12864 4208 c-30 -14 -42 -42 -49 -116 -6 -54 -5 -61 9 -56 9 3 17
24 21 52 3 26 10 57 15 69 11 28 51 39 80 23 32 -17 48 3 19 24 -26 18 -63 20
-95 4z"/>
<path d="M4109 4203 c-3 -30 1 -136 5 -141 4 -3 11 -1 17 5 14 14 7 135 -8
141 -7 2 -13 0 -14 -5z"/>
<path d="M6567 4183 c-11 -10 -8 -92 3 -114 20 -36 30 -21 24 35 -4 35 -3 56
5 60 6 4 11 11 11 17 0 10 -33 12 -43 2z"/>
<path d="M12616 4159 c-15 -18 -26 -43 -26 -60 0 -74 114 -107 155 -45 13 20
13 29 3 61 -13 38 -41 65 -54 52 -4 -3 1 -18 10 -31 25 -39 21 -74 -9 -82 -32
-8 -75 19 -75 47 0 11 14 33 30 48 29 26 31 41 4 41 -7 0 -24 -14 -38 -31z"/>
<path d="M3457 4033 c-6 -10 -3 -59 14 -201 10 -93 10 -112 -4 -145 -35 -83
-157 -73 -157 13 0 44 39 80 85 80 50 0 41 24 -10 28 -30 3 -43 -2 -66 -24
-16 -15 -34 -42 -40 -61 -22 -69 55 -141 129 -121 65 18 88 48 103 136 9 58
-4 234 -22 280 -9 22 -24 29 -32 15z"/>
<path d="M12060 3969 c0 -35 -6 -47 -34 -74 -19 -18 -49 -35 -66 -39 -39 -7
-35 -32 5 -29 30 2 88 42 110 77 23 35 24 99 3 104 -15 3 -18 -4 -18 -39z"/>
<path d="M4364 3905 c-3 -8 -2 -19 2 -26 4 -7 3 -9 -4 -5 -9 6 -23 -69 -20
-114 0 -8 -3 -36 -7 -62 -10 -63 10 -64 53 -3 34 48 52 51 52 10 0 -34 21 -75
38 -75 10 0 12 6 7 23 -3 12 -10 39 -15 60 -4 22 -15 46 -24 55 -14 15 -18 14
-47 -7 l-32 -24 7 63 c4 34 11 72 16 85 7 17 5 25 -6 29 -8 3 -17 -1 -20 -9z"/>
<path d="M4795 3893 c9 -35 26 -56 37 -45 12 12 -11 72 -29 72 -12 0 -14 -7
-8 -27z"/>
<path d="M9910 3852 c-29 -30 -45 -90 -38 -148 5 -50 23 -32 30 33 4 34 12 71
18 82 14 27 55 37 95 22 60 -21 79 -4 25 24 -47 24 -97 19 -130 -13z"/>
<path d="M10662 3868 c-7 -7 -12 -19 -12 -27 1 -20 -62 -141 -72 -141 -5 0 -8
6 -8 14 0 15 -16 16 -37 3 -18 -11 -35 28 -31 71 2 28 -1 37 -12 37 -12 0 -15
-13 -15 -59 1 -49 4 -61 24 -77 13 -11 31 -19 41 -19 15 0 9 -16 -35 -86 -61
-97 -83 -150 -67 -166 14 -14 32 -1 32 24 0 24 41 100 110 203 67 101 96 156
103 192 7 35 -3 49 -21 31z"/>
<path d="M1651 3832 c-19 -9 -44 -30 -55 -45 l-21 -28 20 -37 c35 -64 188
-128 203 -84 2 7 -6 12 -22 12 -36 0 -120 44 -145 76 -26 33 -14 59 34 80 43
18 46 17 39 -1 -9 -23 23 -18 36 5 6 11 8 25 5 30 -10 16 -57 12 -94 -8z"/>
<path d="M9683 3834 c-32 -16 -63 -66 -63 -102 0 -10 10 -31 21 -46 27 -34 59
-29 107 17 l32 31 16 -22 c8 -12 24 -22 35 -22 22 0 26 18 4 26 -8 3 -20 25
-26 48 -22 86 -56 104 -126 70z m81 -30 c13 -33 -45 -104 -85 -104 -22 0 -31
38 -16 69 20 43 89 67 101 35z"/>
<path d="M10267 3803 l-47 -48 0 38 c0 46 -18 49 -54 6 -23 -27 -26 -28 -26
-10 0 12 -6 21 -13 21 -12 0 -37 -90 -37 -133 0 -34 26 -15 60 44 32 56 35 59
38 35 6 -45 30 -43 82 9 26 26 50 43 53 38 3 -5 7 -35 8 -67 2 -50 6 -60 26
-69 34 -15 48 3 23 31 -13 14 -20 35 -20 61 0 49 -15 91 -32 91 -7 0 -35 -21
-61 -47z"/>
<path d="M1912 3806 c-61 -39 -81 -112 -42 -154 24 -25 30 -26 84 -11 47 13
86 50 86 82 0 30 -32 73 -68 91 -24 12 -31 11 -60 -8z m34 -46 c8 0 14 5 14
10 0 18 38 -8 45 -31 9 -27 -18 -56 -63 -68 -36 -11 -62 6 -62 38 0 23 43 78
48 63 2 -7 10 -12 18 -12z"/>
<path d="M2853 3800 c-53 -30 -103 -85 -103 -112 0 -22 33 -48 61 -48 13 0 41
11 61 25 l36 24 7 -35 c3 -19 11 -37 18 -39 27 -10 68 11 85 44 9 19 30 44 45
55 28 21 29 21 42 2 10 -13 12 -33 8 -64 -5 -36 -3 -44 8 -40 23 8 35 76 19
105 -27 47 -45 51 -97 21 -38 -21 -50 -35 -62 -69 -12 -37 -15 -40 -26 -25 -7
9 -15 34 -19 56 -3 22 -11 40 -17 40 -7 0 -29 -16 -50 -35 -65 -59 -112 -42
-58 20 50 57 118 85 115 48 -2 -26 28 -22 32 4 2 13 -5 27 -20 37 -29 20 -24
21 -85 -14z"/>
<path d="M8335 3810 c-50 -21 -81 -71 -73 -121 4 -33 49 -37 84 -10 33 26 40
26 47 1 6 -24 27 -27 27 -3 0 25 -23 83 -32 83 -5 0 -22 -16 -39 -35 -34 -38
-59 -45 -59 -16 0 44 77 98 103 72 14 -14 37 -14 37 0 0 30 -54 47 -95 29z"/>
<path d="M2193 3788 c-11 -13 -25 -32 -32 -43 -10 -18 -11 -17 -9 12 2 18 -1
33 -6 35 -11 4 -32 -56 -41 -117 -10 -64 11 -59 59 13 22 31 36 49 32 39 -3
-10 -9 -36 -12 -56 -5 -31 -3 -39 12 -45 13 -5 30 7 66 45 l48 51 20 -46 c33
-77 55 -55 24 24 -28 71 -50 71 -103 4 -28 -36 -34 -27 -21 31 17 74 2 95 -37
53z"/>
<path d="M4123 3795 c-35 -15 -73 -67 -73 -101 0 -42 69 -84 141 -84 28 0 39
4 39 15 0 11 -11 15 -35 15 -43 0 -103 24 -111 44 -9 23 23 73 55 84 30 11 51
1 51 -25 0 -18 19 -16 26 2 8 20 -22 65 -44 65 -9 -1 -32 -7 -49 -15z"/>
<path d="M8486 3778 c-17 -99 -18 -138 -5 -138 8 0 22 18 33 40 10 21 31 54
47 72 35 42 49 30 60 -48 8 -58 20 -81 36 -71 6 4 6 27 0 59 -15 83 -27 108
-55 115 -21 5 -32 -1 -58 -29 l-32 -36 5 34 c4 26 2 34 -10 34 -9 0 -17 -13
-21 -32z"/>
<path d="M2397 3793 c-3 -5 -7 -42 -8 -83 -2 -63 0 -76 14 -78 9 -2 17 2 17 9
0 17 69 119 81 119 5 0 9 -17 9 -39 0 -22 6 -44 15 -51 13 -11 22 -6 59 34
l44 47 11 -34 c13 -40 55 -82 70 -72 8 4 4 15 -9 32 -11 15 -29 46 -40 70 -10
24 -25 43 -32 43 -7 0 -30 -19 -51 -42 -21 -24 -36 -36 -34 -27 3 8 -1 29 -9
47 -18 45 -45 41 -80 -10 l-29 -42 -3 35 c-4 36 -16 57 -25 42z"/>
<path d="M4583 3780 c-39 -23 -56 -54 -47 -82 5 -18 12 -20 60 -15 46 5 56 3
64 -14 11 -19 40 -27 40 -11 0 5 -7 24 -16 41 -13 26 -21 31 -38 26 -11 -3
-37 -8 -56 -12 l-35 -6 25 27 c20 23 30 26 57 21 26 -5 33 -2 33 9 0 14 -28
36 -47 36 -4 0 -22 -9 -40 -20z"/>
<path d="M5956 3764 c-32 -32 -34 -72 -5 -108 51 -64 160 2 135 82 -7 20 -61
52 -89 52 -8 0 -26 -12 -41 -26z m92 -26 c17 -17 15 -38 -5 -60 -24 -26 -61
-23 -75 6 -12 27 -4 61 12 51 5 -3 10 -1 10 4 0 15 43 14 58 -1z"/>
<path d="M4932 3737 c-15 -24 -33 -42 -40 -39 -13 4 -15 -19 -6 -56 8 -29 37
-25 39 5 1 13 10 32 21 44 l19 21 8 -38 c4 -21 15 -46 24 -56 19 -21 76 -24
92 -5 15 19 4 26 -33 20 -27 -4 -34 -1 -44 22 -7 16 -10 41 -6 61 7 36 -7 64
-32 64 -8 0 -27 -19 -42 -43z"/>
<path d="M4767 3753 c-2 -5 -4 -42 -3 -83 1 -59 4 -75 16 -75 18 0 27 100 10
120 -6 7 -8 20 -4 29 6 16 -11 23 -19 9z"/>
<path d="M10858 3693 c-24 -6 -23 -33 1 -33 30 0 51 11 51 26 0 14 -18 16 -52
7z"/>
</g>
</svg>
