<?xml version="1.0" standalone="no"?>
<!DOCTYPE svg PUBLIC "-//W3C//DTD SVG 20010904//EN"
 "http://www.w3.org/TR/2001/REC-SVG-20010904/DTD/svg10.dtd">
<svg version="1.0" xmlns="http://www.w3.org/2000/svg"
 width="1872.000000pt" height="332.000000pt" viewBox="0 0 1872.000000 332.000000"
 preserveAspectRatio="xMidYMid meet">

<g transform="translate(0.000000,332.000000) scale(0.100000,-0.100000)"
fill="#000000" stroke="none">
<path d="M3925 2877 c-92 -49 -126 -89 -158 -185 -16 -46 -26 -90 -23 -97 3
-8 0 -15 -5 -17 -12 -4 -33 -132 -26 -164 2 -13 0 -24 -5 -24 -12 0 -6 -83 7
-87 9 -2 104 193 105 215 0 4 28 25 61 47 73 48 125 104 185 202 51 81 51 103
4 128 -43 22 -78 18 -145 -18z m125 -17 c18 -10 17 -15 -26 -85 -40 -66 -153
-185 -176 -185 -5 0 -6 10 -4 23 14 69 16 97 6 97 -14 0 -27 -35 -35 -92 -3
-25 -13 -52 -22 -60 -15 -12 -15 -9 -9 25 5 26 4 37 -3 33 -15 -9 18 83 45
125 24 38 53 62 126 104 47 27 69 30 98 15z m-280 -362 c-1 -7 -7 -24 -15 -38
-15 -26 -19 -12 -9 28 7 23 24 31 24 10z"/>
<path d="M2415 2825 c-169 -13 -219 -37 -65 -31 58 3 123 5 145 5 22 1 47 6
55 11 32 20 -10 25 -135 15z"/>
<path d="M4549 2788 c-20 -75 -51 -151 -89 -218 -71 -124 -103 -230 -69 -230
4 0 23 20 41 43 30 40 67 67 91 67 5 0 6 -19 3 -43 -5 -32 -3 -47 7 -56 12
-10 16 -2 22 44 3 30 4 59 0 65 -11 17 -49 11 -87 -15 l-37 -25 15 37 c9 21
24 52 34 68 20 33 78 181 91 230 4 16 11 40 14 53 6 16 3 22 -8 22 -11 0 -20
-15 -28 -42z"/>
<path d="M4387 2813 c-3 -5 -12 -35 -22 -68 -9 -33 -36 -95 -58 -137 -37 -68
-45 -78 -69 -78 -16 0 -28 -4 -28 -10 0 -5 6 -10 14 -10 25 0 26 -14 7 -76
-23 -74 -36 -164 -24 -164 5 0 27 51 49 113 l39 112 40 5 c38 6 101 38 91 47
-2 2 -21 0 -43 -6 -74 -21 -77 -18 -43 48 16 33 38 90 49 128 10 37 22 76 26
86 5 12 2 17 -8 17 -9 0 -18 -3 -20 -7z"/>
<path d="M9296 2758 c-8 -24 -27 -74 -40 -113 -14 -38 -41 -108 -60 -155 -37
-91 -48 -150 -29 -157 6 -2 15 16 22 45 5 27 27 87 47 133 46 104 104 276 96
283 -12 13 -21 4 -36 -36z"/>
<path d="M2465 2723 c-3 -27 -19 -86 -35 -133 -15 -47 -30 -96 -32 -110 -2
-20 -11 -26 -48 -33 -25 -5 -60 -9 -79 -10 -39 -2 -56 -26 -19 -28 71 -5 226
14 277 33 19 7 21 11 11 23 -10 12 -9 15 4 15 9 0 16 5 16 10 0 18 -48 11 -52
-7 -2 -12 -14 -18 -41 -18 -47 -2 -47 6 -6 116 16 46 29 95 27 109 -1 14 1 30
5 37 8 13 -1 43 -13 43 -5 0 -12 -21 -15 -47z"/>
<path d="M12676 2698 c-3 -7 -7 -28 -10 -47 -3 -18 -24 -76 -46 -128 -40 -93
-64 -189 -42 -168 12 11 100 223 112 270 20 76 21 85 5 85 -9 0 -17 -6 -19
-12z"/>
<path d="M14974 2650 c-21 -30 -34 -39 -49 -35 -11 3 -30 8 -42 11 -16 4 -34
-7 -77 -49 -61 -59 -70 -92 -40 -135 15 -22 14 -25 -19 -61 -35 -39 -54 -77
-43 -88 8 -8 36 17 36 31 0 20 74 84 105 90 57 13 105 70 105 127 0 23 7 42
20 54 10 9 18 20 17 24 -1 3 8 16 21 29 25 25 29 42 9 42 -7 0 -26 -18 -43
-40z m-80 -92 c-11 -13 -36 -42 -56 -65 -34 -38 -38 -40 -44 -21 -9 31 14 65
60 88 53 26 64 25 40 -2z m4 -60 c-8 -12 -25 -28 -39 -37 -18 -11 -16 -6 10
22 39 42 50 48 29 15z"/>
<path d="M16815 2669 c-4 -6 -4 -13 -1 -16 3 -4 -6 -27 -20 -52 -34 -58 -31
-56 -48 -42 -26 21 -85 -17 -115 -76 -16 -31 -14 -83 4 -103 14 -15 11 -22
-25 -72 -22 -31 -44 -68 -50 -83 -18 -48 11 -23 68 56 42 59 61 76 91 85 66
20 102 44 116 77 15 35 10 84 -11 107 -11 14 -10 22 7 58 20 41 20 72 0 72 -5
0 -13 -5 -16 -11z m-91 -187 c-40 -70 -50 -83 -57 -75 -17 16 -4 56 29 93 47
52 62 41 28 -18z m76 22 c13 -32 -1 -59 -40 -79 -16 -8 -32 -15 -35 -15 -4 0
8 27 27 60 18 33 34 60 36 60 1 0 7 -12 12 -26z"/>
<path d="M15644 2623 c-9 -21 -22 -49 -29 -63 -31 -63 -85 -197 -87 -219 -6
-50 20 -28 55 46 50 107 106 256 101 265 -11 17 -25 6 -40 -29z"/>
<path d="M15820 2627 c-40 -35 -60 -69 -60 -100 0 -36 19 -43 76 -27 51 15 84
50 84 90 0 52 -60 74 -100 37z m70 -48 c0 -21 -31 -44 -72 -54 -24 -6 -28 -4
-28 13 0 28 54 72 80 65 11 -3 20 -14 20 -24z"/>
<path d="M7412 2629 c2 -7 10 -15 17 -17 8 -3 12 1 9 9 -2 7 -10 15 -17 17 -8
3 -12 -1 -9 -9z"/>
<path d="M16395 2609 c-73 -38 -71 -37 -59 -49 7 -7 29 0 67 20 31 16 68 30
82 30 l26 0 -22 -32 c-34 -51 -111 -128 -121 -122 -14 9 -85 -44 -107 -79 -14
-23 -17 -35 -9 -44 12 -15 47 0 96 42 l31 26 15 -34 c8 -19 24 -38 35 -42 25
-8 61 2 61 17 0 5 -6 8 -12 5 -25 -9 -52 10 -63 43 -11 32 -9 34 47 93 122
127 81 203 -67 126z"/>
<path d="M15175 2621 c-39 -12 -85 -41 -94 -60 -12 -22 -1 -34 39 -46 37 -11
49 -23 43 -46 -8 -29 -47 -51 -85 -47 -27 2 -33 0 -33 -17 0 -30 65 -33 110
-5 61 38 59 115 -4 136 -42 14 -27 25 38 29 56 4 157 36 154 50 -4 14 -42 16
-83 3 -25 -8 -35 -8 -38 1 -4 12 -16 13 -47 2z"/>
<path d="M17010 2610 c-8 -5 -11 -12 -7 -16 3 -4 0 -19 -8 -33 -39 -71 -95
-207 -95 -228 0 -37 21 -23 35 23 6 21 35 86 63 143 55 113 58 140 12 111z"/>
<path d="M17193 2591 c-58 -42 -85 -80 -81 -113 3 -16 2 -28 -2 -28 -17 0 -71
-67 -82 -101 -10 -34 -9 -42 7 -59 37 -40 116 -20 187 48 41 39 55 80 38 111
-9 17 -6 27 11 50 20 28 21 33 9 75 -15 55 -30 58 -87 17z m61 -45 c9 -14 6
-21 -11 -35 -23 -19 -91 -37 -101 -26 -9 8 32 58 59 72 28 15 39 13 53 -11z
m-29 -117 c22 -35 -59 -117 -126 -126 -43 -6 -45 -3 -28 47 19 54 133 113 154
79z"/>
<path d="M6431 2579 c-13 -5 -37 -19 -54 -31 -18 -13 -39 -21 -49 -20 -11 2
-16 -3 -16 -15 1 -10 -15 -52 -34 -93 -20 -41 -39 -88 -42 -105 -3 -16 -12
-52 -20 -79 -20 -61 -20 -66 -1 -66 9 0 32 36 57 90 35 72 47 89 65 90 42 0
74 24 113 82 44 66 59 120 40 143 -14 17 -25 18 -59 4z m39 -39 c0 -46 -90
-160 -126 -160 -21 0 -21 2 -12 48 6 26 18 55 27 66 9 10 16 21 16 25 0 3 3 5
7 4 4 -2 22 6 40 17 41 25 48 25 48 0z m-170 -170 c0 -5 -5 -10 -11 -10 -5 0
-7 5 -4 10 3 6 8 10 11 10 2 0 4 -4 4 -10z"/>
<path d="M12035 2560 c-3 -5 8 -16 25 -25 26 -14 30 -14 30 -1 0 9 -9 20 -19
26 -24 12 -28 13 -36 0z"/>
<path d="M2686 2488 c-19 -51 -23 -75 -15 -82 7 -8 13 -5 21 9 17 30 77 85 94
85 8 0 14 -10 14 -22 0 -26 10 -42 25 -45 7 -1 9 16 5 45 -5 45 -7 47 -35 46
-16 0 -38 -4 -48 -9 -13 -5 -18 -4 -17 6 9 65 -14 47 -44 -33z"/>
<path d="M11061 2542 c-33 -15 -131 -142 -131 -169 0 -27 21 -11 54 40 19 30
51 68 71 86 35 30 38 31 51 14 12 -17 13 -16 14 8 0 34 -19 41 -59 21z"/>
<path d="M11962 2513 c-28 -26 -55 -47 -61 -45 -5 2 -12 -15 -16 -37 -4 -23
-11 -43 -16 -47 -5 -3 -9 -14 -9 -25 0 -35 25 -19 50 34 14 29 47 74 74 100
33 33 45 52 38 59 -7 7 -26 -5 -60 -39z"/>
<path d="M8782 2533 c1 -10 -14 -43 -32 -73 -19 -30 -42 -68 -52 -85 l-18 -30
0 71 c0 45 -5 77 -14 90 -14 19 -15 19 -35 -3 -26 -28 -27 -37 -1 -30 19 5 20
0 20 -78 0 -49 4 -87 11 -90 16 -11 54 31 90 98 17 34 41 75 51 90 11 15 17
34 14 42 -8 21 -35 19 -34 -2z"/>
<path d="M4929 2515 c-15 -8 -29 -21 -32 -30 -4 -8 -13 -12 -20 -9 -10 4 -20
-9 -31 -42 -19 -57 -20 -64 -3 -64 6 0 25 20 40 45 27 41 76 90 83 82 2 -2 0
-17 -4 -33 -10 -36 -1 -96 14 -101 13 -4 29 123 18 150 -7 21 -30 21 -65 2z"/>
<path d="M10748 2515 c-34 -19 -70 -78 -66 -107 4 -33 43 -34 100 -4 l46 24
11 -45 c7 -25 15 -43 18 -39 7 7 4 138 -3 145 -2 2 -14 -5 -27 -16 -29 -27
-89 -63 -104 -63 -23 0 -14 25 20 58 35 34 53 40 59 20 6 -17 28 0 28 23 0 23
-41 26 -82 4z"/>
<path d="M11195 2512 c-76 -47 -111 -143 -63 -176 12 -9 31 -16 42 -16 23 0
86 22 86 30 0 3 -26 5 -57 5 -57 0 -58 0 -61 30 -2 24 6 38 42 74 38 37 46 42
52 28 8 -23 -10 -44 -52 -59 -19 -6 -34 -16 -34 -20 0 -16 34 -7 76 20 47 29
57 58 28 86 -19 20 -22 20 -59 -2z"/>
<path d="M12164 2511 c-66 -40 -101 -156 -55 -181 26 -13 78 -13 86 1 10 16
-2 23 -38 24 -26 0 -33 4 -36 25 -7 51 66 138 93 110 11 -12 8 -16 -63 -71
-13 -11 -21 -22 -18 -26 9 -8 86 46 98 68 14 27 11 56 -7 63 -23 9 -26 8 -60
-13z"/>
<path d="M6861 2484 c-29 -26 -41 -32 -41 -20 0 9 -4 16 -10 16 -5 0 -10 -7
-10 -15 0 -8 -11 -40 -25 -71 -29 -66 -29 -64 -10 -64 8 0 23 15 32 34 17 33
88 116 98 116 3 0 -2 -16 -10 -36 -18 -43 -20 -97 -3 -92 12 4 39 88 41 132 3
42 -16 42 -62 0z"/>
<path d="M4052 2450 c-15 -33 -30 -60 -34 -60 -4 0 -13 18 -19 40 -7 22 -19
46 -27 53 -13 10 -15 7 -9 -26 3 -21 13 -51 21 -68 14 -29 13 -33 -38 -132
-29 -57 -53 -111 -53 -120 0 -27 22 -20 38 12 8 16 36 69 64 118 57 102 115
230 107 238 -14 13 -26 1 -50 -55z"/>
<path d="M4652 2487 c-31 -33 -45 -78 -33 -109 13 -34 43 -43 81 -23 40 21 53
56 40 105 -15 55 -51 66 -88 27z m50 -57 c1 -43 -30 -70 -49 -43 -17 22 -17
22 8 62 24 39 40 32 41 -19z"/>
<path d="M7345 2483 c-4 -16 -15 -51 -25 -80 -12 -34 -15 -55 -9 -59 6 -3 13
-3 16 0 13 13 51 140 46 152 -8 23 -22 16 -28 -13z"/>
<path d="M7495 2483 c-53 -49 -88 -101 -80 -120 6 -16 9 -15 23 7 25 37 93
110 103 110 5 0 7 -26 3 -57 -5 -53 -4 -56 10 -40 21 27 31 94 16 112 -18 22
-42 18 -75 -12z"/>
<path d="M9979 2501 c-72 -23 -83 -43 -48 -90 24 -32 22 -64 -4 -69 -11 -2
-23 8 -35 27 -21 38 -30 39 -38 5 -8 -30 16 -59 57 -69 20 -5 32 -1 48 16 27
29 27 69 0 103 l-21 26 36 15 c19 8 41 12 49 9 20 -7 33 16 16 27 -16 10 -25
10 -60 0z"/>
<path d="M7044 2469 c-32 -62 -45 -112 -33 -123 8 -8 13 -7 16 4 6 18 113 120
126 120 5 0 7 -17 6 -38 -3 -43 5 -62 27 -62 9 0 12 5 8 11 -4 7 -7 35 -8 63
-1 43 -4 51 -21 54 -12 2 -40 -11 -64 -28 -33 -24 -40 -27 -32 -11 6 11 11 24
11 30 0 22 -20 10 -36 -20z"/>
<path d="M9375 2459 c-16 -23 -52 -61 -79 -85 -27 -25 -46 -48 -42 -51 3 -4
27 13 52 38 25 24 44 38 42 30 -5 -26 28 -23 61 5 18 14 34 25 36 22 2 -2 0
-21 -5 -42 -5 -21 -6 -45 -3 -53 10 -26 28 -7 34 38 3 24 9 61 13 82 10 47 -2
48 -57 5 l-42 -33 23 32 c12 17 22 36 22 42 0 23 -26 9 -55 -30z"/>
<path d="M9651 2483 c-65 -32 -89 -107 -51 -156 27 -34 52 -41 95 -26 48 18
44 30 -9 23 -38 -6 -45 -3 -60 17 -20 29 -21 49 -1 49 28 0 71 28 83 54 9 20
8 28 -4 41 -9 8 -16 15 -17 15 -1 0 -17 -8 -36 -17z m10 -44 c-13 -11 -26 -17
-29 -14 -7 6 29 34 43 34 6 0 -1 -9 -14 -20z"/>
<path d="M6574 2456 c-53 -53 -41 -122 16 -91 34 19 37 19 44 -10 8 -32 26
-33 26 -1 0 13 3 38 6 55 8 39 -5 40 -52 5 -19 -15 -37 -24 -41 -20 -10 10 38
56 59 56 21 0 23 11 6 28 -18 18 -27 15 -64 -22z"/>
<path d="M8882 2457 c-53 -55 -35 -120 20 -70 17 15 18 15 18 -9 0 -13 7 -33
15 -44 15 -20 18 -16 16 31 -1 17 5 49 13 72 16 46 15 49 -25 51 -17 1 -36 -9
-57 -31z m28 -21 c0 -2 -8 -10 -17 -17 -16 -13 -17 -12 -4 4 13 16 21 21 21
13z"/>
<path d="M7714 2455 c-35 -54 6 -98 52 -54 l23 22 -9 -34 c-6 -19 -10 -73 -10
-121 0 -83 -1 -88 -21 -88 -76 0 -176 -143 -150 -213 15 -40 47 -52 79 -31 15
10 33 25 40 33 22 28 59 105 67 139 6 31 9 33 33 26 48 -13 116 -22 129 -17
26 10 12 22 -34 28 -27 4 -63 11 -80 17 l-33 10 0 87 c0 48 7 113 15 144 8 32
15 61 15 66 0 4 -23 8 -50 9 -43 1 -53 -3 -66 -23z m41 -25 c-20 -23 -29 -21
-19 4 3 9 13 16 22 16 13 0 12 -3 -3 -20z m5 -295 c0 -46 -62 -155 -100 -175
-29 -15 -42 16 -28 66 18 66 128 159 128 109z"/>
<path d="M12380 2460 c-44 -23 -69 -64 -53 -88 13 -21 38 -17 86 14 37 24 39
25 32 5 -7 -24 2 -61 16 -61 5 0 9 10 9 21 0 12 5 40 12 62 11 35 10 41 -7 53
-25 19 -53 17 -95 -6z m52 -22 c-6 -7 -25 -21 -44 -31 l-33 -19 33 31 c32 31
66 45 44 19z"/>
<path d="M15797 2439 c-39 -45 -62 -100 -53 -124 15 -40 141 8 171 65 21 40
19 57 -7 74 -52 33 -73 30 -111 -15z m90 -26 c10 -25 -61 -83 -102 -83 -21 0
-19 10 14 62 25 39 33 45 56 40 15 -2 29 -11 32 -19z"/>
<path d="M15308 2386 c-10 -7 -18 -18 -18 -25 0 -16 25 -14 40 4 18 22 0 37
-22 21z"/>
<path d="M5190 2334 c0 -4 6 -12 14 -18 7 -6 16 -32 20 -58 5 -41 2 -51 -16
-68 -43 -40 -168 -62 -137 -24 9 11 8 14 -4 14 -20 0 -33 -38 -18 -53 19 -19
89 -9 144 20 l52 28 -3 70 c-2 39 -8 76 -14 82 -11 13 -38 18 -38 7z"/>
<path d="M16075 2330 c-4 -6 -3 -16 3 -22 6 -6 12 -6 17 2 4 6 3 16 -3 22 -6
6 -12 6 -17 -2z"/>
<path d="M5614 2251 c-75 -56 -110 -110 -144 -222 -18 -57 -43 -126 -56 -153
-25 -51 -20 -81 8 -49 9 10 29 44 46 76 26 49 38 88 58 193 5 27 79 111 115
129 15 8 42 15 59 15 27 0 30 -3 30 -29 0 -37 -50 -104 -110 -149 -80 -58
-110 -93 -110 -127 0 -31 50 -148 68 -159 24 -15 21 17 -8 70 -47 89 -43 105
40 160 101 66 160 143 160 207 0 71 -83 91 -156 38z"/>
<path d="M14496 2241 c-4 -6 -25 -61 -47 -123 -22 -61 -67 -175 -100 -252 -56
-131 -68 -175 -43 -158 13 9 131 286 179 421 24 67 33 107 27 113 -6 6 -12 6
-16 -1z"/>
<path d="M15022 2205 c-60 -41 -128 -136 -163 -227 -16 -42 -27 -58 -40 -58
-22 0 -26 -17 -5 -22 18 -4 -20 -148 -40 -148 -19 0 -18 -10 4 -26 23 -18 32
-17 33 4 0 9 15 53 33 97 l33 80 56 9 c74 12 76 31 2 21 l-54 -6 26 59 c34 81
89 150 147 190 52 34 82 42 73 17 -4 -8 -2 -17 3 -20 11 -7 24 40 15 54 -13
22 -70 11 -123 -24z"/>
<path d="M12514 2179 c-9 -18 -29 -67 -44 -109 l-27 -75 -41 -3 c-51 -4 -56
-22 -7 -22 19 0 35 -4 35 -10 0 -5 -11 -39 -25 -76 -30 -79 -29 -76 -9 -72 11
2 26 31 43 78 l26 75 53 8 c28 5 52 13 52 18 0 6 -18 8 -46 3 l-47 -7 7 29 c4
16 21 62 37 103 19 47 26 78 20 84 -6 6 -16 -3 -27 -24z"/>
<path d="M8177 2185 c-8 -8 -17 -12 -19 -10 -3 3 -24 -11 -47 -31 -45 -39 -80
-100 -101 -176 -10 -40 -17 -48 -36 -48 -32 0 -74 -17 -74 -31 0 -14 61 -4 71
12 4 7 8 5 12 -5 7 -19 -55 -219 -82 -263 -15 -24 -28 -32 -53 -35 -32 -3 -33
-3 -10 -16 54 -31 92 18 147 190 37 115 38 116 71 123 19 3 32 10 28 16 -3 5
-14 7 -24 4 -10 -3 -21 -2 -24 4 -9 14 28 125 54 161 26 36 108 92 122 84 10
-6 38 14 38 27 0 15 -57 10 -73 -6z"/>
<path d="M15262 2188 c-7 -7 -12 -16 -12 -21 0 -8 -34 -68 -103 -179 -25 -42
-33 -48 -63 -48 -39 0 -45 -15 -10 -24 l25 -6 -19 -43 c-25 -53 -25 -98 -2
-128 18 -21 21 -22 66 -9 46 13 64 26 52 37 -3 4 -24 1 -47 -6 -24 -7 -45 -9
-50 -4 -10 10 13 99 34 127 10 14 28 19 70 21 88 3 96 28 9 29 l-47 1 45 80
c25 44 53 100 63 125 17 44 11 70 -11 48z"/>
<path d="M2757 2118 c-7 -67 -53 -214 -78 -250 -24 -33 -24 -50 -1 -78 16 -19
24 -21 60 -15 50 8 102 53 102 87 0 13 -7 34 -16 47 -13 18 -24 22 -51 19 -31
-4 -34 -2 -28 16 44 150 53 215 29 223 -7 2 -13 -17 -17 -49z m53 -255 c0 -23
-43 -53 -78 -53 l-33 0 22 39 c27 48 59 66 77 43 6 -9 12 -22 12 -29z"/>
<path d="M9959 2092 c-92 -83 -153 -125 -158 -110 -6 21 -39 48 -58 48 -21 -1
-85 -47 -113 -83 -33 -42 -42 -77 -29 -110 12 -29 11 -31 -32 -68 -24 -21 -56
-44 -71 -51 -31 -14 -37 -28 -12 -28 9 0 46 23 82 52 53 42 71 52 98 49 40 -3
105 29 127 63 10 14 17 38 17 54 0 23 10 36 48 62 26 19 80 61 120 93 59 48
71 62 61 73 -6 8 -12 14 -14 14 -1 0 -31 -26 -66 -58z m-187 -126 c12 -17 10
-19 -38 -56 -25 -19 -57 -44 -70 -54 -49 -40 -42 13 12 87 30 42 38 47 62 41
15 -4 30 -12 34 -18z m-18 -107 c-16 -16 -45 -31 -64 -34 l-35 -6 24 18 c14
10 41 30 60 44 44 32 54 17 15 -22z"/>
<path d="M10392 2069 l-44 -61 -44 5 c-36 4 -44 2 -42 -11 2 -10 -6 -15 -26
-16 -62 -3 -110 -104 -81 -172 13 -31 12 -36 -9 -61 -51 -63 -84 -120 -77
-132 6 -9 16 -2 36 25 16 22 41 56 57 76 15 20 28 42 28 48 0 6 4 8 10 5 18
-11 90 16 127 48 50 44 67 87 53 137 -9 35 -8 44 13 77 14 21 32 44 41 52 16
14 22 41 9 41 -5 0 -28 -28 -51 -61z m-83 -106 c-8 -10 -22 -27 -32 -38 -11
-11 -33 -39 -50 -62 -17 -24 -34 -43 -38 -43 -14 0 -19 33 -9 69 13 50 42 75
85 73 19 -1 35 3 35 8 0 6 5 10 11 10 8 0 7 -6 -2 -17z m41 -63 c-15 -37 -47
-65 -95 -86 -29 -12 -37 -13 -29 -2 83 110 119 147 127 133 5 -10 4 -27 -3
-45z"/>
<path d="M16344 2108 c-5 -7 -18 -31 -29 -53 -12 -25 -26 -39 -35 -37 -75 18
-79 17 -130 -36 -41 -42 -50 -58 -50 -87 0 -20 4 -44 10 -54 7 -14 3 -24 -22
-47 -31 -30 -69 -84 -81 -117 -13 -35 19 -13 82 58 49 53 69 69 86 67 35 -5
122 44 140 78 17 32 20 86 6 95 -5 3 5 32 22 65 21 43 27 64 20 71 -8 8 -13 7
-19 -3z m-83 -128 c5 0 -18 -29 -52 -65 -34 -35 -66 -62 -71 -59 -14 9 -9 67
9 86 9 10 29 18 45 18 19 0 28 5 28 16 0 11 5 14 16 10 9 -3 20 -6 25 -6z m25
-85 c-18 -28 -49 -49 -86 -60 -21 -6 -15 3 30 51 40 43 57 55 63 46 5 -8 2
-23 -7 -37z"/>
<path d="M17330 2079 c-30 -4 -63 -6 -72 -3 -22 6 -111 -32 -135 -58 -17 -19
-17 -20 6 -39 13 -10 30 -19 37 -19 13 0 54 -55 54 -72 0 -9 -90 -27 -107 -21
-7 3 -13 11 -13 19 0 21 -17 17 -23 -6 -7 -28 19 -45 68 -42 53 2 94 17 102
38 9 24 -23 82 -58 103 l-31 19 30 16 c16 8 32 12 35 9 4 -3 13 -1 20 5 8 7
61 17 118 23 127 14 139 17 119 29 -18 11 -73 11 -150 -1z"/>
<path d="M11045 2039 c-12 -19 5 -23 22 -6 16 16 16 17 1 17 -9 0 -20 -5 -23
-11z"/>
<path d="M16830 2036 c-52 -18 -90 -38 -90 -48 0 -12 23 -10 96 8 36 9 67 14
70 11 19 -18 -89 -157 -121 -157 -25 0 -95 -53 -95 -72 0 -15 5 -17 28 -12 15
4 39 14 54 22 26 15 29 15 50 -5 31 -28 90 -39 106 -20 11 12 6 16 -32 21 -73
11 -76 27 -17 91 55 61 82 125 64 153 -12 21 -66 25 -113 8z"/>
<path d="M3263 1999 c-18 -16 -33 -39 -33 -50 0 -11 -11 -42 -25 -70 -24 -47
-26 -77 -4 -63 6 3 29 44 51 91 l41 85 36 -6 36 -7 -28 26 c-15 14 -31 25 -35
25 -4 0 -22 -14 -39 -31z"/>
<path d="M11950 1996 c-19 -13 -42 -35 -49 -50 -10 -18 -20 -25 -33 -20 -22 7
-25 -14 -3 -22 10 -4 13 -13 10 -25 -4 -11 2 -26 16 -40 17 -17 29 -20 62 -16
22 3 47 13 56 22 15 15 14 16 -14 9 -39 -10 -63 -8 -80 6 -17 15 -9 37 17 46
35 11 88 65 88 90 0 31 -23 31 -70 0z m20 -31 c-7 -8 -17 -15 -23 -15 -6 0 -2
7 9 15 25 19 30 19 14 0z"/>
<path d="M2973 1975 c-35 -44 -42 -69 -31 -120 9 -44 48 -85 79 -85 20 0 79
26 79 35 0 3 -20 2 -44 -1 -36 -5 -47 -3 -65 15 -25 25 -28 53 -6 45 21 -8 85
61 85 91 0 40 -11 55 -41 55 -20 0 -36 -10 -56 -35z m67 -23 c0 -34 -39 -75
-62 -67 -20 8 -13 37 18 70 30 33 44 32 44 -3z"/>
<path d="M3473 1978 c-26 -28 -30 -60 -8 -78 21 -17 19 -44 -6 -66 -20 -18
-21 -18 -39 6 -10 13 -18 27 -17 30 1 3 -2 7 -8 10 -5 3 -11 -9 -13 -27 -3
-35 28 -73 60 -73 46 0 79 71 59 126 -15 42 -8 54 29 54 27 0 48 15 37 26 -2
3 -20 7 -38 10 -27 5 -39 1 -56 -18z"/>
<path d="M1845 1974 c-15 -11 -17 -17 -7 -23 9 -6 8 -20 -8 -66 -24 -70 -24
-75 -5 -75 8 0 29 22 45 49 30 47 96 108 107 98 2 -3 -2 -30 -11 -60 -19 -65
-21 -100 -4 -95 6 2 13 11 14 19 2 7 11 42 20 76 13 51 14 66 4 78 -18 21 -32
19 -78 -15 l-41 -29 2 26 c2 31 -11 37 -38 17z"/>
<path d="M11198 1959 c-63 -32 -72 -53 -38 -84 21 -19 27 -50 11 -60 -5 -3
-19 8 -31 25 -28 39 -42 38 -38 -2 2 -20 13 -38 30 -51 l28 -21 25 24 c30 29
33 70 5 95 -25 23 -15 37 46 60 25 9 43 22 41 28 -6 19 -21 17 -79 -14z"/>
<path d="M12628 1973 c-32 -20 -74 -114 -63 -140 6 -14 13 -4 35 42 32 72 51
89 85 81 27 -7 32 3 13 22 -16 16 -38 15 -70 -5z"/>
<path d="M13428 1980 c-28 -17 -58 -75 -58 -114 0 -45 36 -86 76 -86 38 0 104
34 140 71 28 29 28 31 10 45 -15 10 -23 11 -33 2 -10 -8 -11 -13 -2 -18 17
-11 -52 -60 -93 -67 -25 -3 -39 0 -51 12 -23 23 -21 45 4 45 58 0 117 71 89
105 -14 17 -57 19 -82 5z m62 -29 c0 -13 -50 -51 -66 -51 -20 0 -17 10 8 37
21 23 58 32 58 14z"/>
<path d="M13020 1970 c-8 -5 -11 -12 -7 -16 4 -4 -6 -31 -23 -60 -40 -71 -21
-80 37 -18 40 44 44 46 39 22 -8 -38 6 -41 45 -12 19 14 51 35 72 45 l39 20
-8 -33 c-12 -48 -11 -91 2 -95 7 -2 14 14 18 39 19 108 19 108 2 114 -19 7
-90 -21 -107 -43 -16 -18 -27 -16 -25 5 1 12 -6 17 -21 16 -13 0 -23 5 -23 13
0 15 -18 17 -40 3z"/>
<path d="M8199 1947 c-29 -24 -102 -161 -92 -171 14 -13 23 -4 48 51 30 67 61
103 87 103 22 0 24 26 2 34 -19 7 -14 9 -45 -17z"/>
<path d="M12130 1960 c0 -5 5 -10 11 -10 5 0 7 -4 4 -10 -3 -5 -1 -20 6 -32 9
-16 9 -23 1 -26 -23 -7 -57 -40 -50 -48 5 -4 24 1 43 12 l36 19 25 -33 c14
-17 34 -32 45 -32 25 0 24 3 -12 40 l-31 31 45 28 c80 52 72 69 -13 26 l-50
-25 -17 35 c-15 32 -43 48 -43 25z"/>
<path d="M2334 1945 c4 -11 -5 -38 -25 -73 -22 -39 -28 -57 -20 -65 8 -8 27 4
67 43 47 47 54 51 45 27 -6 -16 -11 -33 -11 -38 0 -16 26 -10 46 12 10 11 27
25 37 30 22 12 57 2 57 -16 0 -17 17 -28 29 -21 15 10 0 46 -25 63 -21 13 -26
13 -55 -1 -41 -20 -41 -20 -37 6 4 31 -28 36 -57 8 l-23 -22 -4 28 c-2 15 -9
30 -17 32 -10 3 -12 0 -7 -13z"/>
<path d="M8615 1949 c-11 -7 -35 -25 -52 -42 -32 -30 -33 -30 -33 -8 0 12 -4
20 -9 17 -11 -7 -35 -105 -28 -113 3 -3 36 25 72 61 36 36 69 66 74 66 4 0 5
-16 3 -35 -6 -50 16 -54 73 -11 25 20 50 36 55 36 4 0 6 -18 3 -40 -6 -46 12
-60 53 -42 32 15 31 36 -2 29 -25 -4 -25 -3 -19 35 5 29 3 43 -6 49 -16 9 -76
-14 -105 -42 l-22 -21 1 34 c2 26 -2 33 -18 35 -11 2 -29 -2 -40 -8z"/>
<path d="M10990 1933 c-6 -16 -17 -40 -25 -55 -18 -32 -19 -48 -2 -48 15 0 70
107 62 121 -11 17 -25 9 -35 -18z"/>
<path d="M12845 1950 c-57 -23 -91 -96 -69 -148 12 -30 51 -51 72 -38 16 10
12 58 -4 52 -8 -3 -21 -9 -29 -12 -30 -12 -15 26 18 42 64 33 85 72 55 102
-14 14 -16 14 -43 2z m30 -49 c-9 -15 -65 -44 -72 -37 -3 3 9 19 26 37 23 22
35 29 43 21 6 -6 7 -15 3 -21z"/>
<path d="M2107 1918 c-8 -18 -33 -50 -55 -70 -23 -21 -42 -42 -42 -48 0 -19
24 -10 59 23 19 17 30 25 23 16 -16 -21 -5 -49 18 -49 10 0 39 23 64 51 l46
51 0 -40 c0 -26 5 -42 15 -46 12 -4 15 3 15 32 0 20 3 46 5 57 3 11 1 27 -5
35 -13 20 -38 4 -62 -40 -10 -19 -18 -31 -18 -25 0 5 -13 -4 -30 -20 -36 -34
-36 -34 -10 40 24 69 24 65 5 65 -8 0 -21 -15 -28 -32z"/>
<path d="M5789 1935 c-31 -17 -59 -56 -59 -85 0 -25 16 -25 57 0 l33 19 -6
-43 c-4 -26 -2 -46 4 -50 15 -9 19 1 27 61 6 45 4 54 -10 60 -10 3 -26 1 -36
-5 -26 -16 -34 -15 -19 3 7 8 21 15 31 15 11 0 19 6 19 14 0 22 -12 25 -41 11z"/>
<path d="M6467 1932 c-74 -50 -101 -142 -48 -169 19 -9 30 -9 45 0 12 6 28 11
36 12 8 1 23 2 33 3 9 1 17 6 17 11 0 5 -29 6 -65 3 -63 -5 -65 -4 -65 19 0
34 10 44 48 45 62 3 102 50 70 82 -17 17 -38 15 -71 -6z m63 -21 c0 -13 -22
-29 -54 -37 l-29 -7 18 24 c18 24 65 38 65 20z"/>
<path d="M8358 1928 c2 -11 -8 -32 -27 -53 -46 -53 -54 -105 -15 -105 24 0 93
39 102 58 6 11 5 34 -4 63 -11 36 -19 48 -38 51 -19 4 -22 1 -18 -14z m32 -71
c0 -15 -11 -29 -31 -41 -42 -25 -46 -14 -12 28 33 42 43 45 43 13z"/>
<path d="M5983 1906 c-31 -31 -45 -76 -23 -76 6 0 10 5 10 12 0 14 50 68 62
68 5 0 6 -20 2 -45 -7 -48 1 -99 15 -91 11 7 23 129 15 150 -10 26 -46 18 -81
-18z"/>
<path d="M14495 1878 c-55 -57 -65 -87 -39 -126 13 -20 22 -23 67 -20 36 2 53
7 55 18 2 12 -9 15 -50 15 -41 0 -53 4 -56 16 -2 11 8 20 27 27 71 25 131 93
100 113 -29 18 -53 7 -104 -43z m85 13 c0 -14 -64 -61 -81 -61 -8 0 3 16 23
35 37 35 58 44 58 26z"/>
<path d="M7853 1913 c-22 -8 -14 -23 13 -23 15 0 24 5 22 12 -5 14 -18 18 -35
11z"/>
<path d="M6195 1871 c-52 -23 -83 -67 -63 -87 12 -12 21 -11 62 10 l49 25 -6
-104 c-3 -58 -2 -107 2 -110 15 -9 30 77 32 180 2 115 -3 120 -76 86z m5 -35
c0 -2 -8 -10 -17 -17 -16 -13 -17 -12 -4 4 13 16 21 21 21 13z"/>
<path d="M3922 1837 c-26 -27 -28 -37 -8 -37 8 0 22 10 30 22 30 42 13 53 -22
15z"/>
<path d="M5104 1810 c-43 -17 -162 -232 -183 -330 -6 -30 -15 -61 -20 -68 -4
-7 -31 -15 -59 -19 -29 -3 -52 -10 -52 -16 0 -6 19 -8 49 -4 l50 6 -30 -69
c-31 -74 -36 -104 -17 -98 7 3 26 39 43 81 35 88 37 90 73 95 15 2 32 8 37 14
7 7 -1 9 -28 5 -36 -6 -38 -4 -31 16 31 104 112 264 165 327 29 35 29 35 23 8
-8 -38 11 -36 24 2 9 23 8 33 -4 45 -9 8 -16 15 -17 14 -1 0 -11 -4 -23 -9z"/>
<path d="M9827 1793 c-14 -13 -6 -23 17 -23 13 0 29 7 36 15 11 13 8 15 -17
15 -16 0 -33 -3 -36 -7z"/>
<path d="M15506 1760 c6 -28 2 -36 -45 -79 -28 -26 -51 -50 -51 -54 0 -4 11
-7 24 -7 28 0 93 69 103 109 6 25 -5 52 -25 59 -8 2 -10 -6 -6 -28z"/>
<path d="M4585 1762 c-37 -23 -105 -109 -138 -177 -14 -27 -33 -81 -42 -120
-18 -77 -34 -115 -47 -115 -18 0 -108 -69 -98 -75 6 -4 33 10 60 29 28 20 52
36 55 36 3 0 5 -11 5 -24 0 -40 46 -86 85 -86 19 0 37 5 40 10 4 6 -5 10 -20
10 -38 0 -75 41 -75 85 0 19 4 35 10 35 16 0 160 141 186 182 29 45 64 147 64
187 0 44 -35 53 -85 23z m50 -54 c-21 -96 -48 -143 -132 -228 -81 -83 -83 -84
-77 -50 27 135 135 310 194 310 19 0 21 -4 15 -32z"/>
<path d="M16477 1773 c-12 -11 -8 -23 8 -23 8 0 15 7 15 15 0 16 -12 20 -23 8z"/>
<path d="M3427 1739 c8 -11 8 -29 -3 -74 -22 -92 -45 -169 -56 -182 -5 -6 -36
-14 -69 -18 -76 -9 -76 -32 0 -27 28 2 51 2 51 0 0 -2 -9 -27 -20 -56 -21 -55
-26 -97 -11 -88 5 3 23 42 41 86 24 59 37 80 50 80 30 0 72 19 65 30 -4 6 -13
7 -24 1 -36 -20 -39 1 -15 99 28 111 28 153 -1 159 -15 3 -17 1 -8 -10z"/>
<path d="M5299 1708 c0 -2 -2 -30 -4 -63 -3 -54 -27 -139 -48 -172 -4 -7 -29
-19 -54 -26 -48 -14 -70 -37 -36 -37 10 0 33 4 51 9 40 12 40 8 2 -88 -16 -41
-27 -77 -24 -80 10 -11 35 28 67 109 35 85 39 91 91 106 48 15 45 36 -4 28
-39 -6 -41 -6 -36 17 39 189 40 199 16 199 -11 0 -20 -1 -21 -2z"/>
<path d="M9695 1694 c10 -24 8 -53 -4 -79 -5 -11 -21 -55 -36 -97 -24 -68 -31
-78 -56 -83 -16 -4 -29 -11 -29 -17 0 -6 11 -7 26 -4 22 6 25 4 20 -10 -20
-51 -27 -103 -18 -121 12 -20 9 -26 37 73 l17 61 59 -1 c32 0 63 4 70 11 9 9
-3 11 -49 10 -33 -1 -63 0 -66 3 -3 3 6 37 20 75 14 39 27 79 29 90 1 11 6 28
9 37 12 27 2 63 -18 66 -15 3 -17 0 -11 -14z"/>
<path d="M12256 1658 c-2 -7 -12 -47 -22 -88 -11 -43 -46 -129 -81 -200 -62
-123 -72 -150 -54 -150 15 0 117 199 145 282 32 94 44 168 27 168 -6 0 -13 -6
-15 -12z"/>
<path d="M6964 1613 c-22 -26 -44 -54 -51 -62 -10 -14 -13 -14 -31 3 -28 25
-74 13 -108 -27 -24 -28 -25 -32 -10 -35 10 -2 24 6 32 17 18 25 69 29 78 6 3
-9 -15 -40 -46 -77 -81 -99 -81 -100 -75 -53 3 22 9 50 13 63 4 16 2 22 -9 22
-19 0 -41 -79 -32 -119 6 -27 1 -37 -37 -81 -61 -69 -110 -153 -102 -174 10
-25 24 -15 39 26 12 35 52 94 102 149 21 23 29 25 78 21 43 -3 56 -1 61 11 3
9 12 13 20 10 16 -6 74 49 74 71 0 8 -9 40 -21 70 l-20 56 46 57 c26 32 51 60
56 61 5 2 9 10 9 18 0 27 -28 13 -66 -33z m-49 -180 c19 -44 13 -65 -23 -89
-30 -20 -112 -36 -112 -22 0 9 110 148 117 148 1 0 10 -16 18 -37z"/>
<path d="M11765 1649 c-4 -6 -5 -13 -2 -16 9 -8 -51 -170 -99 -267 -24 -50
-44 -98 -44 -108 0 -28 23 -21 61 18 18 20 42 40 51 45 16 8 17 7 8 -15 -6
-17 -6 -27 1 -32 8 -4 7 -9 -2 -15 -10 -6 -10 -9 -2 -9 16 0 29 26 38 73 10
53 -14 59 -66 17 l-40 -32 29 59 c43 86 105 261 98 278 -6 17 -22 20 -31 4z"/>
<path d="M6090 1598 c-23 -38 -24 -49 -7 -67 10 -12 9 -13 -7 -7 -16 5 -18 3
-12 -21 4 -16 8 -37 9 -48 5 -47 74 -10 128 70 18 26 31 35 52 35 40 0 33 12
-28 43 -75 37 -110 36 -135 -5z m93 -9 c24 -11 24 -12 8 -32 -83 -103 -108
-115 -97 -46 13 83 35 103 89 78z"/>
<path d="M10042 1603 c-14 -25 -16 -63 -4 -63 15 0 30 44 22 65 -7 19 -7 19
-18 -2z"/>
<path d="M14055 1586 c-22 -30 -31 -34 -58 -30 -75 11 -144 -78 -134 -172 4
-37 1 -58 -9 -73 -27 -38 -81 -155 -87 -189 -11 -53 14 -34 39 31 12 31 38 83
58 116 35 57 37 59 64 49 42 -16 111 8 134 47 14 25 16 38 7 68 -5 20 -17 43
-25 51 -18 19 -10 38 35 80 17 17 31 36 31 43 0 24 -29 13 -55 -21z m-55 -60
c0 -18 -15 -36 -31 -36 -20 0 -26 -16 -8 -22 6 -2 -7 -26 -28 -53 -33 -44 -38
-47 -41 -28 -6 43 60 143 93 143 8 0 15 -2 15 -4z m26 -91 c7 -19 14 -41 14
-50 0 -21 -66 -48 -96 -41 -24 6 -24 7 16 57 22 28 40 55 40 60 0 19 12 8 26
-26z"/>
<path d="M13548 1593 c-8 -10 -13 -24 -11 -30 3 -7 -9 -57 -26 -110 -16 -54
-33 -115 -36 -136 -5 -34 -4 -38 11 -29 17 10 107 273 102 300 -4 23 -22 25
-40 5z"/>
<path d="M15886 1603 c-3 -3 -6 -14 -6 -24 0 -9 -14 -55 -31 -102 -24 -66 -36
-87 -52 -89 -24 -4 -36 -28 -13 -28 19 0 19 1 2 -72 -8 -32 -10 -60 -6 -63 12
-7 17 3 40 79 l21 66 59 0 60 0 -11 -26 c-11 -31 -3 -64 16 -64 8 0 13 13 13
37 0 42 23 65 59 59 30 -6 30 11 -2 26 -19 9 -29 8 -49 -5 -20 -13 -25 -14
-29 -3 -4 10 -18 12 -51 9 -26 -3 -46 -1 -46 4 0 5 11 43 25 83 14 40 25 81
25 91 0 20 -14 32 -24 22z"/>
<path d="M14605 1570 c-3 -5 1 -10 9 -10 9 0 16 5 16 10 0 6 -4 10 -9 10 -6 0
-13 -4 -16 -10z"/>
<path d="M1893 1553 c9 -9 19 -14 23 -11 10 10 -6 28 -24 28 -15 0 -15 -1 1
-17z"/>
<path d="M7460 1550 c-89 -28 -120 -32 -120 -15 0 8 -4 15 -8 15 -13 0 -83
-53 -111 -83 l-23 -26 43 -51 c43 -51 44 -67 4 -71 -42 -4 -65 2 -65 16 0 21
-16 19 -25 -2 -8 -23 28 -53 62 -53 40 0 93 30 93 52 0 11 -13 37 -30 58 -16
21 -30 43 -30 48 0 17 56 52 82 52 31 0 169 39 185 52 14 11 17 29 6 27 -5 -1
-33 -9 -63 -19z"/>
<path d="M8195 1530 c3 -5 10 -10 16 -10 5 0 9 5 9 10 0 6 -7 10 -16 10 -8 0
-12 -4 -9 -10z"/>
<path d="M10156 1458 c-60 -61 -98 -149 -63 -148 6 1 23 23 35 51 48 102 95
132 132 87 21 -26 35 -20 25 11 -6 19 -51 51 -71 51 -4 0 -30 -23 -58 -52z"/>
<path d="M2688 1478 c-62 -52 -83 -153 -39 -189 27 -22 72 -22 79 -1 2 7 -2
12 -9 11 -25 -5 -58 12 -64 32 -14 44 34 122 79 131 32 5 31 28 -1 28 -16 0
-36 -6 -45 -12z"/>
<path d="M3748 1468 c-20 -20 -68 -122 -68 -144 0 -29 17 -12 31 29 29 88 112
147 139 97 13 -25 30 -26 30 -2 0 41 -97 55 -132 20z"/>
<path d="M11981 1481 c-7 -5 -11 -13 -7 -19 8 -13 48 -3 43 11 -5 15 -20 18
-36 8z"/>
<path d="M2032 1453 c-37 -18 -41 -40 -15 -84 23 -39 9 -84 -27 -84 -20 0 -26
7 -35 39 -10 34 -13 37 -20 20 -18 -43 9 -94 52 -94 57 0 94 86 58 134 -21 27
-19 35 10 46 25 9 32 24 17 34 -4 2 -22 -2 -40 -11z"/>
<path d="M3124 1442 c-21 -15 -45 -27 -53 -27 -17 0 -46 -46 -56 -87 -10 -40
5 -34 44 18 18 24 51 58 71 74 l38 30 -14 -57 c-17 -73 -18 -106 -2 -101 17 6
47 139 36 161 -12 23 -17 22 -64 -11z"/>
<path d="M11340 1460 c-37 -11 -119 -51 -126 -62 -13 -21 9 -19 65 6 96 43
101 36 41 -65 -43 -72 -48 -89 -27 -89 17 0 69 54 60 63 -3 4 2 7 13 7 11 0
30 7 42 16 22 15 23 14 33 -15 7 -20 20 -33 36 -37 31 -8 52 11 63 57 4 19 11
42 15 53 6 14 4 17 -11 14 -13 -2 -22 -17 -29 -47 -14 -55 -41 -73 -55 -36 -6
15 -10 31 -10 36 0 15 -29 10 -48 -8 -10 -10 -26 -19 -35 -21 -16 -3 -15 0 3
30 37 61 21 113 -30 98z"/>
<path d="M14525 1434 c-8 -20 -15 -45 -15 -55 0 -10 -4 -21 -10 -24 -13 -8
-13 -42 1 -50 6 -4 12 -5 15 -2 5 5 44 143 44 157 0 23 -21 7 -35 -26z"/>
<path d="M3470 1430 c-28 -39 -30 -92 -5 -120 10 -11 20 -18 23 -15 3 3 11 0
17 -5 19 -16 71 6 56 23 -8 10 -7 17 1 25 9 9 9 12 -2 12 -23 0 -43 -17 -36
-29 12 -19 -13 -12 -36 11 -21 21 -21 22 -3 32 10 6 30 21 44 33 21 18 24 25
15 40 -19 30 -49 27 -74 -7z m60 -6 c0 -8 -32 -33 -43 -34 -4 0 -3 9 3 20 10
18 40 29 40 14z"/>
<path d="M8246 1434 c-30 -31 -33 -55 -9 -94 14 -24 14 -31 4 -44 -19 -22 -52
-20 -58 4 -4 16 -9 18 -24 9 -25 -13 -24 -34 3 -53 31 -22 52 -20 87 10 35 29
39 53 14 95 -16 27 -16 29 2 49 10 11 31 20 47 20 33 0 37 15 6 24 -37 9 -44
7 -72 -20z"/>
<path d="M9870 1422 c-49 -49 -54 -90 -14 -121 30 -23 65 -26 113 -10 46 16
38 27 -18 21 -70 -6 -123 27 -68 43 76 24 114 96 54 103 -22 3 -37 -6 -67 -36z
m70 -2 c0 -12 -62 -52 -69 -45 -2 3 6 16 19 30 24 25 50 33 50 15z"/>
<path d="M14668 1449 c-23 -9 -28 -17 -28 -45 0 -45 -16 -74 -40 -74 -29 0
-33 -17 -8 -34 12 -9 25 -16 29 -16 13 0 49 81 49 110 0 32 24 45 71 38 16 -2
24 2 24 12 0 18 -58 24 -97 9z"/>
<path d="M15335 1440 c-43 -28 -111 -106 -113 -127 -3 -61 41 -100 101 -88 55
11 67 16 67 27 0 7 -17 9 -47 5 -52 -6 -95 9 -91 31 2 8 28 23 58 34 83 27
133 91 98 126 -17 17 -39 15 -73 -8z m55 -19 c0 -18 -36 -51 -73 -66 -39 -16
-39 -16 -24 5 16 23 76 70 89 70 4 0 8 -4 8 -9z"/>
<path d="M2862 1428 c-36 -39 -47 -84 -28 -113 21 -32 62 -42 95 -24 42 24 38
39 -8 27 -31 -8 -45 -7 -56 2 -24 20 -18 28 31 51 38 19 45 25 42 48 -4 36
-46 41 -76 9z m52 -17 c3 -4 -6 -13 -19 -19 -27 -12 -33 -4 -13 16 14 14 25
15 32 3z"/>
<path d="M16880 1433 c-25 -8 -54 -24 -66 -34 -11 -10 -25 -19 -31 -19 -6 0
-13 -19 -15 -42 -4 -38 0 -47 29 -77 30 -30 38 -33 71 -27 69 11 112 27 112
41 0 23 -14 25 -65 10 -63 -20 -71 -19 -95 7 -37 40 -24 64 31 59 28 -3 68 18
85 44 15 22 15 28 3 40 -12 11 -21 11 -59 -2z m16 -38 c-11 -8 -29 -15 -40
-14 -17 0 -15 3 9 14 39 18 55 18 31 0z"/>
<path d="M16420 1398 c-35 -35 -39 -37 -31 -15 11 29 -5 50 -20 26 -17 -26
-40 -121 -34 -137 5 -13 11 -9 33 18 15 19 43 52 62 74 l36 39 -4 -37 c-5 -45
13 -48 60 -8 74 62 72 62 65 18 -8 -52 6 -80 33 -64 10 7 16 16 14 20 -3 5 -9
6 -13 4 -4 -3 -6 16 -3 43 3 39 1 49 -13 54 -20 8 -50 -6 -87 -41 l-27 -25 6
36 c5 33 3 37 -16 37 -12 0 -39 -18 -61 -42z"/>
<path d="M4615 1394 c-44 -47 -50 -56 -53 -84 -4 -50 6 -69 42 -75 40 -8 146
12 146 27 0 5 -12 7 -27 4 -48 -11 -113 -10 -124 1 -19 19 -5 46 35 68 40 22
67 60 59 81 -8 22 -47 11 -78 -22z m45 -2 c0 -4 -10 -13 -22 -21 -23 -14 -23
-14 -4 8 20 22 26 25 26 13z"/>
<path d="M8879 1418 c-23 -19 -59 -82 -59 -105 0 -35 35 -57 88 -54 33 2 27
21 -7 21 -54 0 -63 39 -20 94 15 19 30 26 56 26 23 0 33 4 31 13 -6 17 -70 21
-89 5z"/>
<path d="M9115 1418 c-40 -21 -95 -82 -95 -104 0 -27 44 -64 76 -64 30 0 54
10 54 22 0 6 -7 7 -16 4 -24 -9 -86 21 -82 40 2 11 16 17 51 19 26 1 54 8 62
15 18 15 20 51 3 68 -15 15 -27 15 -53 0z m19 -53 c-18 -14 -54 -20 -54 -10 0
3 15 14 33 25 35 22 52 9 21 -15z"/>
<path d="M8082 1398 c1 -13 -3 -38 -7 -57 -6 -25 -5 -33 5 -29 17 5 44 74 36
93 -9 23 -34 18 -34 -7z"/>
<path d="M12382 1403 c-55 -27 -75 -60 -69 -116 5 -58 16 -71 60 -71 46 0 177
64 177 87 0 24 -12 22 -62 -12 -83 -56 -149 -59 -148 -7 1 15 14 27 49 44 57
26 67 43 43 71 -16 20 -19 20 -50 4z m28 -28 c0 -2 -15 -12 -32 -20 l-33 -16
25 20 c24 20 40 26 40 16z"/>
<path d="M16184 1400 c-17 -11 -39 -35 -49 -54 -16 -29 -17 -38 -6 -64 16 -37
63 -58 82 -36 6 8 10 14 8 15 -2 0 -12 2 -22 4 -10 2 -25 9 -33 16 -12 10 -9
15 23 29 21 10 49 29 61 43 20 21 22 29 13 46 -14 26 -37 26 -77 1z m45 -37
c-15 -17 -69 -46 -75 -40 -8 8 67 68 77 61 6 -4 5 -11 -2 -21z"/>
<path d="M1805 1389 c-6 -19 0 -38 9 -28 10 12 16 49 7 49 -5 0 -13 -9 -16
-21z"/>
<path d="M15651 1379 l-55 -32 -17 22 c-32 39 -55 18 -24 -23 11 -14 11 -21 2
-31 -7 -7 -15 -11 -18 -9 -9 5 -33 -25 -26 -32 3 -3 19 4 35 16 l30 22 39 -30
c21 -17 47 -32 57 -34 34 -6 27 18 -14 47 l-40 28 47 31 c43 29 66 56 46 56
-4 0 -32 -14 -62 -31z"/>
<path d="M9323 1380 c-24 -14 -31 -15 -26 -5 3 8 1 15 -4 15 -13 0 -55 -99
-47 -111 3 -6 28 13 54 40 58 61 72 64 57 16 -11 -37 -4 -56 14 -38 17 17 28
80 16 92 -15 15 -27 14 -64 -9z"/>
<path d="M13643 1353 c-18 -6 -16 -33 1 -33 19 0 31 19 20 30 -5 4 -15 5 -21
3z"/>
<path d="M1787 1323 c-5 -27 -2 -41 7 -32 11 10 17 59 8 59 -5 0 -12 -12 -15
-27z"/>
<path d="M11866 1307 c-19 -49 -20 -67 -6 -67 13 0 29 40 23 56 -2 7 0 15 6
19 13 7 15 35 2 35 -4 0 -16 -19 -25 -43z"/>
<path d="M6987 1333 c-4 -3 -7 -15 -7 -25 0 -26 46 -25 53 1 6 24 -29 42 -46
24z"/>
<path d="M10456 1245 c-50 -77 -69 -88 -92 -58 -19 28 -28 8 -9 -21 22 -34 58
-34 84 0 12 15 21 32 21 39 0 6 13 29 30 51 28 38 38 64 23 64 -5 -1 -30 -34
-57 -75z"/>
<path d="M5635 1270 c3 -5 8 -10 11 -10 2 0 4 5 4 10 0 6 -5 10 -11 10 -5 0
-7 -4 -4 -10z"/>
<path d="M5627 1243 c-10 -9 -9 -23 2 -23 5 0 11 7 15 15 5 15 -5 20 -17 8z"/>
<path d="M5619 1190 c-8 -14 -18 -33 -22 -43 -4 -9 -18 -22 -32 -27 -29 -11
-34 -40 -7 -40 23 0 64 38 59 53 -2 7 3 17 11 23 7 5 12 21 10 34 l-3 24 -16
-24z"/>
<path d="M2989 1118 c-22 -28 -50 -69 -62 -89 -17 -30 -29 -39 -62 -45 l-40
-8 33 -4 c17 -2 32 -5 32 -6 0 -2 -9 -25 -21 -51 -24 -55 -27 -131 -6 -153 20
-19 78 -9 103 20 19 20 19 21 -1 15 -71 -20 -82 -19 -87 8 -6 30 36 155 57
171 8 6 15 17 15 24 0 7 20 41 45 76 25 34 48 70 51 78 13 33 -17 14 -57 -36z"/>
<path d="M2672 1051 c-7 -33 -24 -80 -38 -105 -24 -43 -25 -46 -6 -46 15 0 26
18 51 81 21 52 30 90 27 105 -10 39 -21 28 -34 -35z"/>
<path d="M2297 1043 c-3 -5 -3 -13 1 -18 9 -13 32 -17 32 -6 0 13 -28 33 -33
24z"/>
<path d="M2973 1003 c-7 -2 -13 -9 -13 -15 0 -12 50 -2 65 13 10 10 -30 12
-52 2z"/>
<path d="M2111 951 c-8 -5 -20 -7 -27 -4 -8 3 -16 -6 -20 -24 -3 -15 -14 -54
-25 -86 -23 -69 -24 -87 -4 -87 8 0 15 7 15 15 0 26 42 127 61 146 25 25 37
24 45 -6 7 -29 24 -24 24 9 0 39 -35 58 -69 37z"/>
<path d="M2415 900 c-34 -13 -61 -81 -44 -111 11 -22 34 -19 78 10 38 25 51
23 48 -8 -2 -15 -6 -31 -9 -37 -4 -5 -10 -27 -14 -49 -5 -22 -9 -42 -10 -45
-1 -3 -5 -15 -9 -26 -6 -18 -16 -22 -67 -26 -53 -4 -65 -9 -89 -36 -48 -54
-30 -132 30 -132 33 0 90 51 114 103 13 26 25 37 44 39 19 2 27 10 30 27 3 19
0 22 -17 18 -25 -6 -25 -5 1 72 33 96 15 165 -51 201 -8 4 -24 4 -35 0z m39
-49 c5 -8 -42 -47 -49 -39 -1 2 1 13 6 26 8 22 33 30 43 13z m-35 -293 c-18
-36 -71 -88 -90 -88 -17 0 -29 19 -29 46 0 31 47 64 90 64 39 0 40 -1 29 -22z"/>
<path d="M2656 875 c-33 -22 -35 -23 -26 -5 9 17 8 20 -8 20 -14 0 -26 -15
-40 -47 -27 -62 -14 -75 34 -37 73 58 69 58 69 11 0 -39 2 -42 24 -39 29 3 53
21 45 34 -3 5 -12 4 -20 -3 -22 -18 -29 -3 -16 38 18 60 -2 69 -62 28z"/>
<path d="M2240 845 c0 -19 4 -35 9 -35 5 0 11 16 13 35 3 24 0 35 -9 35 -8 0
-13 -13 -13 -35z"/>
</g>
</svg>
