<?xml version="1.0" standalone="no"?>
<!DOCTYPE svg PUBLIC "-//W3C//DTD SVG 20010904//EN"
 "http://www.w3.org/TR/2001/REC-SVG-20010904/DTD/svg10.dtd">
<svg version="1.0" xmlns="http://www.w3.org/2000/svg"
 width="1618.000000pt" height="1214.000000pt" viewBox="0 0 1618.000000 1214.000000"
 preserveAspectRatio="xMidYMid meet">

<g transform="translate(0.000000,1214.000000) scale(0.100000,-0.100000)"
fill="#000000" stroke="none">
<path d="M12787 11729 c-8 -13 -23 -52 -32 -86 l-17 -62 -29 21 c-28 21 -30
21 -64 5 -87 -41 -124 -160 -68 -219 15 -15 35 -28 46 -28 16 0 18 -5 13 -27
-27 -121 -34 -169 -25 -178 13 -13 29 12 29 44 0 32 30 143 42 159 6 6 21 12
34 12 32 0 124 88 124 119 0 14 -15 37 -35 57 -19 18 -35 38 -35 44 0 6 12 41
26 77 18 44 23 68 16 75 -7 7 -15 2 -25 -13z m-70 -191 c-49 -125 -62 -148
-80 -148 -52 0 -75 72 -41 128 13 23 23 27 71 30 42 2 54 -1 50 -10z m73 -18
c11 -11 20 -25 20 -32 0 -16 -74 -84 -98 -90 -21 -6 -21 -6 -2 41 44 111 47
114 80 81z"/>
<path d="M14826 11713 c-4 -16 -9 -41 -12 -58 -3 -16 -9 -32 -13 -35 -4 -3
-13 -19 -20 -37 -11 -27 -17 -31 -40 -27 -62 12 -150 -59 -171 -138 -10 -34
-9 -48 4 -75 9 -18 19 -33 23 -33 5 0 14 -4 21 -9 11 -6 7 -21 -18 -70 -32
-65 -36 -106 -10 -106 8 0 14 7 12 15 -2 8 11 45 29 82 32 66 34 68 70 68 123
0 173 82 110 182 -28 43 -28 47 -14 74 8 16 22 46 30 67 14 33 14 40 2 48 -11
7 -11 9 2 9 18 0 29 20 29 51 0 29 -28 23 -34 -8z m-96 -203 c13 -8 9 -21 -25
-87 -22 -43 -39 -84 -38 -91 1 -15 -35 -7 -56 13 -20 19 -16 70 9 110 35 57
75 77 110 55z m60 -62 c28 -46 26 -82 -6 -103 -26 -17 -94 -33 -94 -22 0 4 16
36 36 71 19 36 33 70 29 76 -3 5 -1 10 5 10 5 0 19 -15 30 -32z"/>
<path d="M13851 11688 c-5 -13 -15 -43 -23 -68 -15 -43 -17 -45 -49 -42 -19 1
-35 7 -37 12 -6 18 -23 10 -67 -31 -55 -51 -69 -85 -62 -152 4 -42 10 -56 34
-76 l30 -24 -29 -74 c-20 -53 -28 -88 -26 -121 4 -67 28 -68 28 0 1 76 46 182
80 186 70 7 92 16 134 53 40 35 46 46 46 79 0 31 -8 48 -40 85 -28 32 -38 51
-31 59 10 12 51 116 51 129 0 17 -31 5 -39 -15z m-102 -143 c9 2 22 1 29 -4
10 -6 3 -30 -32 -104 -25 -54 -50 -97 -55 -97 -6 0 -20 9 -31 20 -29 29 -27
97 3 141 13 19 22 40 19 47 -3 9 3 10 23 2 15 -6 35 -8 44 -5z m131 -111 c0
-36 -57 -91 -104 -99 -20 -4 -39 -5 -41 -3 -3 2 16 47 41 98 l46 95 29 -33
c16 -18 29 -44 29 -58z"/>
<path d="M12970 11622 c0 -34 -48 -204 -69 -242 -11 -22 -2 -40 20 -40 14 0
19 7 19 26 0 15 14 69 30 121 33 104 39 173 15 173 -11 0 -15 -11 -15 -38z"/>
<path d="M15084 11646 c-3 -9 -3 -27 0 -41 4 -17 -2 -41 -18 -73 -36 -70 -58
-155 -54 -208 4 -68 28 -71 28 -4 0 53 38 182 66 225 9 14 14 40 12 66 -3 43
-23 64 -34 35z"/>
<path d="M13400 11621 c-65 -13 -86 -21 -88 -35 -3 -15 1 -16 35 -10 21 4 48
11 61 15 13 5 35 9 50 9 23 0 17 -6 -34 -35 -74 -42 -94 -62 -73 -76 8 -5 24
-9 35 -9 53 0 92 -72 69 -127 -25 -58 -126 -69 -150 -15 -11 25 -35 30 -35 6
0 -69 116 -97 184 -43 14 11 30 38 36 60 14 50 -9 103 -57 135 l-32 21 60 34
c67 37 94 63 84 78 -8 14 -43 13 -145 -8z"/>
<path d="M15265 11575 c-29 -28 -30 -40 -9 -90 8 -21 12 -41 7 -44 -4 -4 -29
-24 -55 -45 -52 -41 -61 -73 -33 -113 27 -39 114 -43 149 -7 20 19 21 83 2
129 -8 19 -11 35 -5 35 14 0 67 53 70 70 6 30 -11 67 -36 78 -39 18 -63 15
-90 -13z m76 -15 c25 -14 24 -44 -3 -70 -29 -27 -46 -25 -54 5 -3 14 -11 22
-16 19 -13 -9 12 39 26 48 15 10 24 10 47 -2z m-31 -222 c0 -32 -23 -58 -53
-58 -28 0 -67 26 -67 44 0 23 25 63 36 59 6 -2 22 5 35 16 l24 20 12 -27 c7
-15 12 -39 13 -54z"/>
<path d="M14343 11574 c-35 -18 -49 -42 -33 -58 8 -8 16 -5 28 12 24 32 76 35
80 5 5 -34 -65 -133 -94 -133 -7 0 -33 -21 -58 -46 -75 -74 -55 -102 27 -39
52 39 57 41 57 20 0 -30 29 -72 58 -84 43 -18 116 -11 120 12 2 9 -2 17 -8 17
-7 0 -9 -7 -5 -17 5 -15 4 -16 -6 -5 -7 6 -27 12 -44 12 -43 0 -73 24 -85 69
-10 37 -8 42 30 98 46 67 55 117 25 139 -24 18 -52 17 -92 -2z"/>
<path d="M13047 11343 c-10 -9 -9 -43 1 -43 10 0 42 33 42 43 0 9 -35 9 -43 0z"/>
<path d="M13993 11333 c-21 -7 -15 -30 9 -36 25 -7 38 -1 38 17 0 15 -27 25
-47 19z"/>
<path d="M2091 11298 c-6 -18 -24 -102 -41 -186 -16 -85 -35 -163 -42 -175
-10 -20 -14 -16 -50 58 -21 44 -44 99 -49 122 -13 49 -34 72 -51 55 -5 -5 -30
-75 -54 -153 -24 -78 -48 -147 -54 -153 -15 -15 -12 -36 5 -36 20 0 37 37 75
165 17 61 35 113 39 118 4 4 15 -16 24 -45 29 -88 79 -173 105 -176 31 -5 47
37 88 233 18 88 36 170 40 183 11 37 -23 27 -35 -10z"/>
<path d="M6487 11318 c-10 -8 -30 -70 -52 -161 -44 -183 -82 -263 -138 -294
-56 -30 -65 48 -12 101 29 30 40 34 65 29 34 -6 41 10 11 27 -34 18 -53 11
-98 -35 -33 -35 -43 -53 -43 -79 0 -70 29 -95 82 -73 69 29 115 115 158 297
18 74 39 146 47 159 18 28 5 47 -20 29z"/>
<path d="M7352 11288 c-8 -8 -8 -15 -2 -23 7 -9 -3 -44 -34 -116 l-44 -104
-46 -3 c-32 -2 -46 -7 -46 -18 0 -10 12 -14 40 -14 22 0 40 -1 40 -2 0 -2 -7
-24 -14 -50 -23 -74 -1 -122 60 -134 39 -7 77 3 71 19 -2 7 -15 11 -28 9 -14
-2 -37 2 -52 7 -22 9 -27 17 -27 43 0 18 5 50 10 70 10 34 14 37 58 43 62 8
72 12 72 26 0 8 -16 10 -50 7 -27 -3 -50 -1 -50 3 0 4 18 49 40 99 41 92 51
150 27 150 -7 0 -18 -5 -25 -12z"/>
<path d="M2703 11283 c-7 -3 -13 -17 -13 -31 0 -15 -7 -51 -14 -79 -8 -29 -12
-53 -10 -53 3 0 0 -9 -6 -20 -9 -16 -21 -20 -61 -20 -36 0 -49 -4 -46 -12 4
-13 10 -15 60 -17 27 -1 27 -2 27 -70 0 -53 4 -74 20 -94 22 -28 68 -42 100
-32 32 10 19 27 -23 30 -50 3 -66 26 -67 98 0 63 -1 62 73 72 32 4 47 11 47
21 0 13 -10 14 -49 10 -42 -4 -50 -2 -54 14 -3 10 -2 20 2 22 11 5 42 151 34
158 -4 4 -14 5 -20 3z"/>
<path d="M3319 11271 c-23 -18 -24 -24 -21 -123 3 -132 -11 -203 -48 -240 -48
-47 -90 -35 -90 28 0 27 38 57 67 52 11 -2 18 3 18 12 0 42 -94 10 -115 -39
-10 -26 -9 -36 6 -68 15 -31 25 -39 51 -41 48 -5 88 21 114 75 21 42 24 65 26
182 2 114 5 136 20 147 13 9 15 16 7 24 -8 8 -17 6 -35 -9z"/>
<path d="M4147 11284 c-4 -4 -3 -12 2 -18 13 -18 -6 -164 -35 -261 -43 -146
-49 -174 -37 -186 14 -14 36 -1 29 17 -3 8 5 49 19 92 36 116 53 199 57 282 2
61 0 75 -12 78 -9 1 -19 0 -23 -4z"/>
<path d="M7550 11273 c0 -5 5 -14 11 -20 14 -14 -19 -164 -56 -255 -33 -81
-44 -148 -23 -148 8 0 30 20 48 45 56 75 107 99 95 45 -8 -35 2 -70 19 -70 9
0 12 18 12 63 l-1 62 -32 3 c-25 3 -40 -5 -73 -34 l-41 -37 22 54 c32 78 59
186 62 244 2 45 0 50 -20 53 -13 2 -23 -1 -23 -5z"/>
<path d="M10866 11221 c-18 -7 -18 -8 -1 -25 16 -16 16 -20 -1 -73 -19 -54
-21 -56 -71 -72 -28 -9 -50 -20 -49 -26 1 -12 31 -12 63 -1 22 7 22 7 8 -35
-24 -68 -20 -116 14 -150 22 -22 39 -29 68 -29 36 0 63 14 63 32 0 4 -20 5
-44 2 -78 -11 -104 40 -70 139 17 49 17 49 119 63 104 14 125 21 125 41 0 11
-6 14 -22 9 -40 -12 -188 -33 -188 -27 0 3 7 24 15 46 18 51 20 115 3 114 -7
0 -21 -4 -32 -8z"/>
<path d="M10383 11195 c-57 -24 -61 -50 -24 -162 35 -111 36 -121 17 -168 -21
-49 -54 -68 -95 -54 -17 6 -36 19 -41 29 -13 25 -13 63 1 77 8 8 8 13 0 17
-18 12 -33 -5 -28 -30 2 -13 0 -24 -4 -24 -16 0 -9 -37 12 -63 30 -39 87 -54
126 -33 35 18 73 87 73 133 0 17 -14 72 -30 123 -29 87 -30 93 -14 111 9 10
33 22 52 25 29 6 39 3 53 -15 19 -23 39 -21 39 4 0 39 -77 56 -137 30z"/>
<path d="M8745 11108 c-11 -6 -28 -18 -38 -27 -11 -9 -25 -16 -33 -16 -15 0
-23 -19 -105 -254 -39 -110 -45 -150 -24 -153 13 -2 49 72 71 145 15 47 22 57
40 57 78 0 183 107 184 186 0 46 -57 83 -95 62z m60 -48 c16 -51 -64 -152
-132 -166 l-31 -6 16 58 c20 69 75 134 115 134 17 0 28 -7 32 -20z"/>
<path d="M2183 11088 c-52 -57 -65 -119 -36 -168 26 -46 97 -67 110 -34 8 21
-15 44 -26 25 -15 -23 -71 21 -71 56 0 4 23 18 50 31 45 21 50 26 50 55 0 58
-40 75 -77 35z m47 -28 c0 -19 -36 -47 -47 -36 -8 7 25 56 37 56 6 0 10 -9 10
-20z"/>
<path d="M2368 11078 c-45 -16 -35 -44 33 -93 54 -38 61 -58 27 -76 -19 -10
-25 -8 -44 17 -19 23 -24 25 -29 12 -19 -48 48 -84 93 -51 45 34 41 65 -17
113 -53 45 -57 63 -13 58 19 -2 28 2 30 15 3 13 -3 17 -25 16 -15 0 -40 -5
-55 -11z"/>
<path d="M2925 11069 c-11 -6 -31 -27 -45 -47 -14 -20 -32 -42 -40 -49 -12 -9
-13 -14 -2 -24 6 -7 12 -9 12 -3 0 5 9 -6 20 -24 30 -48 59 -58 125 -42 35 8
55 18 55 27 0 11 -7 13 -32 7 -54 -14 -100 -9 -114 11 -13 17 -10 20 24 31 38
14 72 46 72 70 0 15 -35 54 -47 53 -5 0 -17 -5 -28 -10z m35 -44 c0 -17 -44
-49 -60 -43 -15 5 27 58 46 58 8 0 14 -7 14 -15z"/>
<path d="M5094 11048 c-53 -41 -54 -46 -14 -91 17 -19 30 -45 30 -57 0 -21 -4
-22 -41 -17 -22 3 -49 13 -59 22 -27 24 -38 -2 -12 -28 14 -14 38 -22 75 -25
48 -4 56 -2 66 17 15 27 5 64 -25 92 -30 28 -30 43 1 63 33 22 44 20 38 -5 -7
-25 14 -23 30 3 29 46 -38 65 -89 26z"/>
<path d="M4795 11029 c-19 -17 -35 -26 -35 -20 0 6 -8 11 -18 11 -14 0 -18 -8
-19 -34 -1 -18 -19 -94 -41 -167 -49 -164 -51 -174 -32 -174 9 0 25 34 46 100
l32 100 54 5 c29 3 63 11 75 18 27 15 53 62 53 96 0 24 -53 96 -71 96 -4 0
-24 -14 -44 -31z m69 -31 c23 -33 20 -56 -13 -89 -23 -23 -39 -29 -70 -29 -26
0 -41 5 -41 13 0 20 64 116 80 120 27 8 29 7 44 -15z"/>
<path d="M7760 11034 c-62 -53 -73 -111 -30 -154 33 -33 170 -24 170 10 0 5
-27 7 -65 3 -45 -4 -69 -2 -80 7 -26 21 -18 45 20 59 62 22 80 54 49 85 -21
21 -27 20 -64 -10z m40 -22 c0 -5 -12 -14 -27 -21 -28 -13 -28 -13 -9 8 20 22
36 27 36 13z"/>
<path d="M5773 11021 c-78 -36 -91 -89 -30 -119 22 -11 32 -10 63 3 46 19 47
19 41 -4 -6 -23 10 -51 28 -51 11 0 13 8 8 30 -3 19 1 48 12 77 l18 46 -24 18
c-31 24 -63 23 -116 0z m83 -23 c11 -18 -52 -68 -86 -68 -52 0 -45 32 15 64
36 18 61 20 71 4z"/>
<path d="M6081 11010 c-38 -21 -57 -27 -62 -19 -10 17 -29 1 -29 -24 0 -12 -9
-35 -20 -52 -20 -30 -27 -69 -11 -63 4 2 37 35 73 73 93 101 121 95 78 -17
-15 -39 -17 -55 -8 -65 16 -20 24 -7 47 86 16 63 18 88 10 98 -15 17 -16 17
-78 -17z"/>
<path d="M8921 11001 c-43 -54 -52 -110 -22 -140 11 -11 27 -21 34 -21 27 0
79 42 93 75 28 67 13 110 -42 121 -27 5 -35 1 -63 -35z m87 -24 c9 -46 -60
-121 -87 -94 -16 16 -14 34 10 77 18 31 27 38 48 36 14 -2 27 -10 29 -19z"/>
<path d="M9173 11029 c-18 -5 -35 -14 -38 -19 -13 -21 7 -27 46 -13 23 7 44
12 46 9 3 -3 -5 -30 -17 -60 -13 -30 -20 -62 -16 -71 5 -15 11 -14 51 9 42 25
46 26 74 11 57 -29 121 -14 146 35 21 41 16 104 -8 108 -15 3 -17 -2 -11 -37
5 -34 3 -43 -19 -65 -31 -31 -65 -33 -100 -6 -26 20 -47 26 -47 13 0 -5 -11
-13 -25 -20 -29 -13 -30 -12 -9 28 8 17 14 42 12 57 -3 31 -30 37 -85 21z"/>
<path d="M9855 11029 c-4 -5 -17 -14 -30 -19 -23 -9 -35 -44 -35 -106 0 -24 5
-34 15 -34 8 0 15 9 15 20 0 22 37 107 50 115 5 3 22 -3 38 -12 41 -24 54 -7
19 23 -30 25 -61 31 -72 13z"/>
<path d="M4552 11017 c-63 -59 -82 -83 -82 -102 0 -28 30 -55 60 -55 30 0 86
43 105 81 15 29 15 31 -14 59 -32 32 -48 36 -69 17z m42 -33 c25 -9 19 -33
-15 -65 -35 -32 -66 -38 -76 -12 -5 11 5 27 32 50 21 18 39 33 41 33 1 0 9 -3
18 -6z"/>
<path d="M4318 11012 c-23 -9 -68 -96 -68 -133 0 -41 34 -73 68 -64 15 4 35
13 44 22 23 20 48 76 48 106 0 46 -52 84 -92 69z m57 -51 c10 -31 -5 -69 -37
-96 -24 -20 -33 -23 -44 -14 -20 16 -17 50 6 79 11 14 20 31 20 38 0 20 48 14
55 -7z"/>
<path d="M9534 10977 c-30 -29 -42 -47 -34 -52 6 -4 15 -18 21 -31 9 -24 61
-54 94 -54 9 0 32 7 52 15 26 11 33 19 26 26 -8 8 -21 8 -47 -1 -28 -9 -41 -9
-62 2 -38 18 -41 36 -7 44 59 14 84 33 81 62 -3 23 -8 27 -41 30 -32 3 -43 -2
-83 -41z m92 4 c-9 -13 -66 -32 -66 -21 0 5 8 14 18 19 21 13 55 14 48 2z"/>
<path d="M10548 10983 c-70 -54 -86 -115 -45 -166 16 -20 34 -30 64 -34 52 -7
93 3 93 22 0 11 -10 13 -47 9 -39 -5 -53 -2 -75 16 -30 23 -40 74 -14 64 21
-8 82 24 93 49 12 26 0 67 -20 67 -8 0 -30 -12 -49 -27z m32 -38 c-7 -8 -20
-15 -29 -15 -12 1 -11 5 8 21 26 22 41 18 21 -6z"/>
<path d="M7877 10399 c-66 -35 -106 -111 -141 -271 -6 -27 -9 -28 -64 -28 -57
0 -93 -12 -79 -26 4 -5 37 -7 73 -6 l65 3 -7 -38 c-8 -49 -34 -103 -51 -110
-19 -8 -16 -33 5 -33 25 0 62 64 74 130 11 58 12 59 50 65 24 4 38 12 38 21 0
12 -8 14 -36 9 l-36 -5 7 47 c12 81 43 149 85 187 40 36 49 40 83 37 11 -2 17
5 17 18 0 27 -32 27 -83 0z"/>
<path d="M6195 10368 c-2 -7 -6 -31 -10 -53 -11 -63 -80 -263 -119 -342 -39
-78 -45 -113 -21 -113 8 0 15 7 15 15 0 9 13 41 29 73 58 116 149 401 135 423
-8 13 -24 11 -29 -3z"/>
<path d="M13675 10360 c-4 -6 -24 -52 -45 -103 l-39 -92 -73 -7 c-85 -9 -102
-14 -93 -28 4 -6 36 -9 82 -6 68 5 74 4 68 -12 -4 -9 -11 -45 -16 -79 -9 -64
0 -110 24 -125 29 -19 115 1 102 23 -4 5 -23 6 -44 3 -25 -4 -41 -2 -46 6 -10
17 -8 104 5 150 10 37 10 38 73 44 67 8 93 18 84 33 -4 6 -27 7 -63 1 -31 -5
-60 -7 -64 -6 -4 2 10 41 31 88 21 47 38 93 38 103 1 19 -14 23 -24 7z"/>
<path d="M4967 10259 c-20 -44 -37 -84 -37 -89 0 -4 -22 -7 -50 -6 -53 1 -75
-17 -25 -22 55 -5 55 -6 25 -84 -32 -79 -37 -130 -17 -146 20 -16 74 -24 82
-12 10 16 -11 34 -38 35 -32 0 -32 24 3 114 31 80 32 81 66 81 24 0 34 5 34
15 0 9 -9 15 -25 15 -14 0 -25 3 -25 6 0 3 16 39 35 81 32 69 36 93 17 93 -4
0 -24 -36 -45 -81z"/>
<path d="M5650 10315 c0 -8 -4 -15 -9 -15 -11 0 -14 -8 -62 -159 -40 -127 -54
-153 -101 -177 -65 -34 -79 4 -24 61 25 25 43 35 65 35 21 0 31 5 31 15 0 10
-10 15 -30 15 -43 0 -72 -17 -102 -60 -68 -95 -1 -144 103 -75 40 26 48 43 99
211 16 56 37 107 45 114 19 16 19 50 0 50 -8 0 -15 -7 -15 -15z"/>
<path d="M10071 10280 c-14 -63 -14 -60 3 -60 15 0 41 84 31 101 -13 20 -24 7
-34 -41z"/>
<path d="M10034 10165 c-8 -19 -13 -38 -12 -42 1 -5 -7 -22 -17 -40 -15 -23
-32 -35 -68 -45 -57 -15 -59 -34 -4 -30 l38 2 -16 -29 c-18 -37 -19 -61 -2
-61 7 0 21 22 31 50 l18 49 51 3 c61 4 65 22 6 26 -27 2 -39 7 -36 15 3 7 17
37 30 68 14 31 23 60 20 63 -13 13 -25 5 -39 -29z"/>
<path d="M13030 10160 c-6 -11 -9 -60 -8 -112 l3 -93 -36 -3 c-34 -3 -38 0
-58 41 -11 24 -21 49 -21 55 0 7 -7 12 -15 12 -8 0 -15 -7 -15 -15 0 -22 4
-30 13 -27 5 1 6 -2 3 -7 -4 -5 -2 -12 4 -16 5 -3 10 -14 10 -24 0 -49 99 -71
135 -31 16 17 17 31 11 110 -8 104 0 115 61 86 50 -24 68 -5 22 23 -44 27 -95
28 -109 1z"/>
<path d="M2276 10100 c-51 -74 -158 -180 -182 -180 -8 0 -14 -7 -14 -15 0 -36
66 0 140 75 l25 25 3 -28 c5 -45 29 -44 79 4 l45 44 -7 -32 c-3 -18 -1 -41 5
-52 11 -22 44 -28 55 -11 3 5 14 1 25 -10 26 -26 49 -25 90 3 56 37 59 77 15
180 -5 12 -3 17 9 17 9 0 16 7 16 15 0 16 -17 19 -44 9 -18 -7 -22 -59 -6 -69
5 -3 14 -22 19 -41 12 -43 -1 -77 -36 -93 -31 -14 -33 -14 -33 3 0 18 -20 32
-29 20 -8 -12 -44 -12 -53 0 -3 5 0 30 8 55 18 59 18 91 0 91 -17 0 -49 -47
-41 -60 3 -6 0 -10 -8 -10 -16 0 -49 -34 -42 -43 3 -4 2 -5 -2 -2 -3 3 -13 -1
-21 -8 -26 -21 -6 66 28 119 27 43 31 64 11 64 -4 0 -29 -31 -55 -70z"/>
<path d="M8774 10154 c-21 -7 -56 -31 -76 -53 -30 -32 -38 -48 -38 -78 0 -21
6 -45 13 -53 35 -45 99 -64 125 -38 20 20 14 27 -22 22 -44 -5 -86 26 -86 65
0 54 69 111 135 111 29 0 34 25 6 33 -10 2 -36 -2 -57 -9z"/>
<path d="M5020 10144 c0 -11 8 -14 32 -12 46 4 49 28 4 28 -26 0 -36 -4 -36
-16z"/>
<path d="M1859 10131 c-21 -17 -22 -21 -9 -50 16 -41 39 -37 63 9 16 33 16 36
0 48 -22 16 -27 15 -54 -7z"/>
<path d="M2742 10127 c-12 -12 -25 -37 -28 -54 -3 -18 -14 -35 -23 -38 -14 -6
-14 -8 -1 -18 8 -7 20 -25 25 -42 15 -43 53 -58 108 -45 54 14 107 54 91 70
-8 8 -17 5 -35 -9 -39 -30 -93 -42 -118 -24 -30 20 -26 40 15 85 25 28 34 47
32 66 -4 36 -37 40 -66 9z m38 -14 c0 -5 -9 -19 -20 -33 -16 -20 -19 -21 -14
-5 11 31 34 58 34 38z"/>
<path d="M4094 10098 c-15 -29 -38 -69 -52 -90 -18 -27 -22 -42 -15 -49 8 -8
23 5 52 44 42 58 89 97 115 97 13 0 11 -13 -13 -78 -29 -79 -28 -112 3 -112
18 0 29 27 14 32 -8 3 -3 29 15 77 15 41 25 82 22 91 -8 24 -38 31 -68 15 -22
-11 -24 -11 -20 6 4 13 0 19 -11 19 -9 0 -27 -22 -42 -52z"/>
<path d="M12521 10115 c-17 -19 -34 -35 -40 -35 -5 0 -16 -21 -26 -47 -27 -77
-29 -93 -13 -93 9 0 31 32 51 73 20 40 46 82 57 92 18 17 25 17 56 6 49 -18
69 1 26 23 -48 25 -76 20 -111 -19z"/>
<path d="M13253 10121 c-46 -33 -80 -104 -69 -145 13 -53 113 -83 157 -47 30
24 18 39 -17 22 -18 -8 -36 -8 -64 -1 -63 17 -64 63 -2 75 20 4 49 16 65 27
23 17 28 26 25 57 -3 30 -7 36 -28 39 -16 2 -41 -8 -67 -27z m71 -10 c7 -11
-22 -37 -57 -50 -36 -14 -34 1 4 33 32 28 44 31 53 17z"/>
<path d="M13910 10133 c-50 -26 -50 -53 -1 -100 56 -52 54 -68 -6 -59 -27 3
-49 11 -51 16 -6 18 -34 11 -30 -7 5 -25 46 -43 99 -43 81 0 89 30 24 99 -41
44 -44 50 -29 62 10 8 39 14 66 14 38 0 48 3 46 15 -5 22 -76 24 -118 3z"/>
<path d="M4642 10129 c-34 -13 -37 -36 -13 -85 25 -52 27 -77 6 -94 -18 -15
-35 -5 -35 21 0 12 -5 19 -12 17 -21 -7 -20 -33 1 -59 16 -20 23 -22 47 -14
16 6 35 23 42 38 12 24 10 34 -13 84 -14 31 -23 58 -21 60 2 3 23 5 47 6 39 2
69 25 37 29 -44 5 -66 4 -86 -3z"/>
<path d="M10230 10126 c0 -18 16 -29 30 -21 13 8 1 35 -16 35 -8 0 -14 -6 -14
-14z"/>
<path d="M3382 10110 c-18 -11 -40 -36 -49 -55 -16 -33 -16 -36 0 -53 16 -16
20 -16 62 -1 l45 17 0 -25 c0 -38 18 -63 45 -63 30 0 32 11 5 28 -24 15 -25
46 -4 108 13 39 13 48 2 55 -23 15 -72 10 -106 -11z m49 -44 c-36 -37 -71 -52
-71 -31 0 19 58 65 83 65 19 0 18 -3 -12 -34z"/>
<path d="M9490 10103 c-19 -15 -40 -28 -49 -28 -9 0 -28 -33 -51 -90 -20 -49
-46 -109 -58 -133 -22 -40 -22 -62 -2 -62 5 0 25 34 44 75 33 72 36 75 68 75
25 0 42 8 65 33 91 95 76 209 -17 130z m31 -62 c-21 -40 -55 -71 -79 -71 -19
0 25 76 63 107 36 31 43 17 16 -36z"/>
<path d="M11895 10116 c-44 -20 -69 -42 -62 -53 4 -7 24 -2 53 13 26 13 49 22
51 20 6 -5 -25 -64 -48 -95 -22 -27 -25 -71 -6 -71 6 0 26 9 43 19 30 18 31
18 42 0 21 -33 78 -25 118 15 30 30 34 40 34 85 0 39 -4 51 -15 51 -11 0 -15
-12 -15 -44 0 -56 -29 -96 -71 -96 -24 0 -29 4 -29 24 0 32 -17 42 -38 24 -9
-8 -24 -19 -32 -23 -12 -7 -12 -5 1 11 25 28 69 121 62 128 -11 10 -56 6 -88
-8z"/>
<path d="M4385 10076 c-32 -34 -44 -42 -57 -35 -23 13 -36 -10 -15 -26 10 -7
16 -26 15 -55 0 -47 25 -80 63 -80 27 0 23 18 -6 32 -19 8 -25 19 -25 42 0 29
19 77 20 49 0 -16 59 -6 83 15 20 17 23 72 5 90 -21 21 -40 13 -83 -32z m65
-16 c0 -11 -1 -20 -3 -20 -1 0 -17 -4 -35 -9 l-32 -10 20 30 c25 33 50 38 50
9z"/>
<path d="M5148 10082 c-18 -21 -42 -42 -53 -46 -19 -7 -19 -8 -2 -20 9 -7 22
-27 28 -44 11 -33 65 -65 101 -60 38 5 30 24 -14 34 -30 6 -46 16 -55 33 -11
24 -9 26 45 56 77 43 82 84 10 85 -18 0 -37 -12 -60 -38z m72 3 c0 -2 -15 -12
-32 -20 l-33 -16 24 21 c22 19 41 26 41 15z"/>
<path d="M6915 10101 c-37 -23 -56 -44 -90 -101 -15 -25 -24 -37 -22 -28 17
52 19 88 5 88 -10 0 -19 -19 -27 -55 -7 -30 -12 -57 -11 -60 0 -3 -7 -19 -15
-35 -12 -23 -13 -30 -3 -30 8 0 7 -4 -3 -10 -19 -11 -59 -103 -62 -142 -4 -53
17 -31 67 69 l51 103 48 0 c88 0 128 37 142 131 12 81 -19 108 -80 70z m48
-57 c-5 -79 -37 -114 -103 -114 -36 0 -36 0 -9 53 25 48 86 110 103 104 6 -2
10 -21 9 -43z"/>
<path d="M8937 10104 c-15 -8 -27 -19 -27 -25 0 -6 -7 -17 -15 -25 -18 -19
-19 -64 -2 -88 15 -21 69 -13 61 9 -4 9 0 12 13 9 29 -8 73 32 73 66 0 29 -9
39 -50 57 -20 8 -32 7 -53 -3z m71 -39 c2 -2 1 -12 -2 -22 -7 -20 -80 -66 -90
-56 -12 12 -6 41 15 67 17 22 27 26 48 21 14 -4 28 -8 29 -10z"/>
<path d="M11347 10098 c-8 -13 -18 -40 -21 -60 -4 -20 -12 -39 -19 -42 -9 -3
-8 -7 3 -15 22 -16 30 -13 40 13 13 35 74 78 112 79 31 2 33 0 31 -27 -2 -33
-68 -107 -117 -133 -31 -16 -46 -7 -46 29 0 10 -9 22 -19 27 -15 9 -22 6 -33
-12 -42 -67 -95 -234 -79 -250 8 -8 15 -5 26 9 27 34 85 156 79 165 -7 13 3
11 27 -3 48 -30 199 104 199 178 0 27 -5 37 -24 45 -36 17 -90 3 -127 -32 -17
-16 -34 -27 -37 -25 -2 3 8 16 23 28 24 21 25 25 12 37 -13 10 -18 9 -30 -11z"/>
<path d="M9107 10103 c-2 -5 -12 -31 -21 -60 -10 -28 -24 -57 -32 -63 -16 -14
-19 -50 -4 -50 14 0 86 100 82 113 -2 7 0 9 4 4 4 -4 16 1 27 10 22 20 22 24
1 -47 -9 -32 26 -24 68 15 20 19 39 35 42 35 3 0 3 -20 0 -43 -5 -36 -3 -45
11 -51 18 -6 45 9 45 25 0 5 -7 9 -15 9 -11 0 -13 7 -9 28 15 76 -4 91 -61 48
-18 -14 -35 -26 -37 -26 -2 0 -4 12 -3 27 0 34 -28 42 -56 17 -17 -16 -19 -16
-19 -1 0 17 -15 23 -23 10z"/>
<path d="M11647 10082 c-50 -52 -58 -140 -16 -163 29 -15 72 -2 101 29 34 36
42 65 28 107 -20 61 -70 72 -113 27z m57 -23 c13 11 17 9 26 -14 13 -35 -5
-75 -44 -94 -26 -12 -31 -12 -42 4 -15 20 -10 57 13 94 12 18 17 20 23 10 7
-10 11 -10 24 0z"/>
<path d="M12233 10075 c-23 -19 -46 -35 -52 -35 -17 0 -2 -82 17 -97 27 -22
151 -10 160 15 3 10 -12 12 -69 10 -62 -3 -74 0 -77 14 -2 11 8 20 35 28 58
19 95 49 91 74 -5 37 -56 33 -105 -9z m58 -9 c-6 -8 -22 -16 -34 -20 -21 -5
-21 -4 3 14 29 23 48 26 31 6z"/>
<path d="M8111 10082 c-44 -22 -92 -90 -94 -132 -3 -48 20 -49 33 -1 6 23 25
57 42 77 26 29 37 35 59 30 35 -7 49 12 24 31 -24 16 -23 16 -64 -5z"/>
<path d="M9625 10091 c-3 -6 -12 -28 -20 -51 -27 -76 15 -122 85 -93 48 19
100 72 100 100 0 32 -19 29 -31 -6 -6 -16 -17 -32 -26 -35 -9 -4 -13 -13 -9
-22 5 -14 4 -15 -8 -5 -10 8 -16 9 -21 1 -3 -5 -20 -10 -37 -10 -30 0 -31 1
-25 42 3 23 13 47 21 53 12 9 13 14 4 23 -14 14 -25 15 -33 3z"/>
<path d="M6543 10058 c-29 -32 -63 -90 -63 -109 0 -9 9 -24 20 -34 40 -36 142
7 155 64 11 52 -27 100 -81 101 -6 0 -20 -10 -31 -22z m73 -84 c-27 -40 -89
-58 -100 -27 -8 19 40 93 60 93 8 0 14 6 14 13 0 6 10 -3 21 -21 20 -30 20
-34 5 -58z"/>
<path d="M6286 10027 c-47 -82 -29 -124 47 -113 60 9 107 40 107 70 0 24 -50
76 -73 76 -7 0 -21 3 -33 6 -17 4 -26 -3 -48 -39z m102 -13 c42 -29 19 -54
-62 -69 -30 -6 -36 -4 -36 10 0 9 8 30 17 46 19 33 47 37 81 13z"/>
<path d="M10348 10057 c-7 -8 -20 -12 -30 -9 -12 3 -18 -1 -18 -11 0 -9 -14
-32 -31 -52 -26 -29 -28 -36 -15 -41 12 -4 32 9 66 45 27 28 53 51 58 51 6 0
6 -19 1 -47 -9 -49 -6 -73 9 -73 11 0 36 126 27 139 -9 15 -52 14 -67 -2z"/>
<path d="M7925 10028 c14 -61 11 -72 -17 -82 -36 -13 -45 -2 -29 37 23 57 24
67 9 67 -17 0 -48 -61 -48 -93 0 -49 57 -63 104 -26 29 23 31 35 14 90 -14 50
-44 55 -33 7z"/>
<path d="M10505 10029 c-86 -76 -37 -140 67 -89 23 11 43 20 45 20 5 0 3 -114
-3 -136 -5 -20 -11 -22 -65 -17 -67 7 -91 -7 -115 -64 -15 -35 -18 -101 -6
-119 12 -18 43 -24 64 -13 34 18 99 81 114 112 10 19 21 27 31 23 8 -3 26 -9
39 -12 36 -9 31 21 -6 36 -30 12 -31 14 -24 59 12 73 7 126 -15 176 -23 53
-44 55 -49 6 -3 -25 -11 -35 -38 -48 -24 -12 -37 -14 -45 -6 -10 10 11 35 55
67 18 12 15 36 -4 36 -5 0 -25 -14 -45 -31z m73 -258 c12 -7 11 -14 -2 -39
-19 -38 -84 -92 -110 -92 -16 0 -18 6 -14 45 8 67 30 95 76 95 20 0 43 -4 50
-9z"/>
<path d="M10145 9983 c-17 -38 -22 -60 -15 -67 6 -6 13 -6 18 0 15 16 51 112
44 118 -13 14 -24 3 -47 -51z"/>
<path d="M14210 9946 c0 -10 9 -16 21 -16 24 0 21 23 -4 28 -10 2 -17 -3 -17
-12z"/>
<path d="M4440 9909 c0 -5 -6 -7 -12 -3 -7 4 -5 -2 5 -12 15 -16 19 -17 27 -4
14 21 12 30 -5 30 -8 0 -15 -5 -15 -11z"/>
<path d="M2613 9528 c-4 -7 -28 -23 -53 -36 -67 -34 -97 -61 -80 -72 11 -7 61
20 90 50 18 18 27 5 25 -36 -6 -87 21 -113 52 -49 14 30 15 40 3 77 -8 24 -13
48 -12 55 4 17 -16 25 -25 11z m14 -110 c-3 -8 -6 -5 -6 6 -1 11 2 17 5 13 3
-3 4 -12 1 -19z"/>
<path d="M5135 9440 c-3 -5 -3 -20 0 -33 6 -23 -39 -166 -84 -270 -12 -27 -21
-64 -21 -84 0 -30 3 -34 23 -31 14 2 23 11 25 27 2 15 0 21 -7 17 -15 -10 -14
8 5 52 33 78 84 221 90 251 11 52 -11 103 -31 71z"/>
<path d="M2410 9373 c-114 -129 -136 -249 -60 -325 34 -33 80 -37 154 -12 55
19 116 72 116 102 0 27 -22 38 -93 47 -54 7 -59 6 -55 -11 2 -15 14 -20 53
-22 28 -2 54 -7 59 -12 23 -23 -99 -90 -165 -90 -64 0 -99 74 -73 160 14 46
82 149 117 179 16 13 15 31 -3 31 -4 0 -27 -21 -50 -47z"/>
<path d="M5256 9388 c-2 -7 -7 -29 -9 -49 -3 -19 -23 -83 -45 -142 -22 -58
-41 -119 -42 -134 -4 -54 0 -73 15 -73 11 0 15 12 15 45 0 24 9 68 21 97 38
95 69 198 69 228 0 30 -17 51 -24 28z"/>
<path d="M2780 9296 c0 -11 9 -16 26 -16 31 0 28 23 -4 28 -15 2 -22 -2 -22
-12z"/>
<path d="M4620 9249 c-127 -76 -120 -219 10 -219 22 0 28 4 24 15 -4 8 -16 15
-28 15 -34 0 -66 28 -66 58 0 35 49 95 91 112 28 12 33 12 45 -5 11 -15 17
-16 26 -7 9 9 7 16 -7 32 -23 25 -51 25 -95 -1z"/>
<path d="M1837 9226 c-18 -14 -29 -44 -18 -51 17 -10 71 17 71 35 0 22 -34 32
-53 16z"/>
<path d="M2890 9174 c0 -41 4 -63 10 -59 6 4 5 -5 -2 -20 -10 -21 -9 -29 5
-42 16 -16 18 -16 32 2 21 26 65 116 65 134 0 9 7 11 23 8 27 -7 56 8 42 22
-6 5 -25 11 -44 13 -33 3 -34 2 -62 -65 -15 -38 -30 -71 -33 -75 -3 -3 -6 29
-6 71 0 62 -3 77 -15 77 -12 0 -15 -14 -15 -66z"/>
<path d="M3964 9212 c-40 -34 -67 -87 -59 -112 8 -24 60 -28 72 -6 4 8 20 18
36 21 22 6 27 4 27 -12 0 -26 19 -43 47 -43 28 0 30 20 3 27 -22 6 -23 10 -20
63 1 26 -6 43 -24 63 -31 34 -43 34 -82 -1z m70 -37 c-17 -26 -73 -65 -93 -65
-8 0 -7 9 4 29 22 44 43 61 76 61 29 0 29 0 13 -25z"/>
<path d="M3359 9193 c-32 -29 -40 -33 -37 -17 6 38 -25 19 -37 -24 -7 -23 -21
-54 -30 -69 -14 -21 -15 -27 -4 -34 10 -7 25 4 54 38 22 26 52 61 68 78 l27
30 -2 -79 c-3 -65 0 -80 15 -90 11 -7 22 -8 33 -1 22 14 18 29 -9 30 -14 0
-21 5 -19 15 2 8 6 44 9 81 7 85 -9 95 -68 42z"/>
<path d="M3124 9200 c-11 -4 -32 -22 -47 -39 -14 -17 -31 -31 -36 -31 -11 0
-7 -72 5 -92 20 -32 134 -26 134 7 0 11 -12 12 -55 8 -50 -5 -55 -4 -55 14 0
15 9 22 30 27 60 11 107 93 64 110 -9 3 -16 6 -17 5 -1 0 -11 -4 -23 -9z m2
-56 c-15 -14 -31 -23 -34 -20 -9 9 30 46 47 46 11 -1 8 -8 -13 -26z"/>
<path d="M5326 9167 c-57 -54 -73 -119 -36 -152 25 -23 107 -25 121 -4 7 11
-1 15 -39 17 -25 2 -52 8 -59 14 -21 17 -15 38 10 38 29 0 83 33 97 60 33 62
-35 82 -94 27z m68 -6 c6 -9 -52 -51 -70 -51 -4 0 5 14 21 30 30 32 40 36 49
21z"/>
<path d="M4835 9182 c-26 -18 -55 -67 -55 -93 0 -52 73 -67 116 -24 21 21 24
31 19 58 -12 54 -49 82 -80 59z m45 -62 c0 -32 -21 -53 -47 -48 -26 5 -27 30
-3 61 25 32 50 26 50 -13z"/>
<path d="M2689 9165 c-1 0 -7 -31 -14 -72 -6 -34 -5 -43 7 -43 9 0 19 17 25
43 6 23 14 50 18 59 5 13 2 17 -14 15 -12 -1 -21 -1 -22 -2z"/>
<path d="M4678 9073 c-22 -6 -23 -22 -3 -29 16 -6 45 12 45 27 0 9 -13 10 -42
2z"/>
</g>
</svg>
