<?xml version="1.0" standalone="no"?>
<!DOCTYPE svg PUBLIC "-//W3C//DTD SVG 20010904//EN"
 "http://www.w3.org/TR/2001/REC-SVG-20010904/DTD/svg10.dtd">
<svg version="1.0" xmlns="http://www.w3.org/2000/svg"
 width="1872.000000pt" height="1404.000000pt" viewBox="0 0 1872.000000 1404.000000"
 preserveAspectRatio="xMidYMid meet">

<g transform="translate(0.000000,1404.000000) scale(0.100000,-0.100000)"
fill="#000000" stroke="none">
<path d="M2684 13536 c-4 -9 -1 -59 6 -111 9 -74 9 -103 -1 -133 -18 -57 -48
-112 -90 -169 -66 -88 -111 -59 -61 39 19 37 34 54 52 58 33 8 34 36 1 32 -32
-3 -58 -27 -83 -76 -59 -115 16 -187 97 -93 49 56 91 129 115 202 18 56 19 67
7 159 -11 95 -28 130 -43 92z"/>
<path d="M7776 13531 c-3 -5 -12 -40 -20 -77 -8 -38 -28 -100 -44 -139 -27
-67 -30 -70 -70 -78 -41 -8 -54 -21 -29 -30 6 -2 24 -1 38 3 l26 8 -29 -91
c-15 -50 -28 -102 -28 -116 0 -46 22 -6 59 106 34 102 38 108 68 115 21 6 30
13 27 22 -3 8 -14 12 -25 9 -25 -7 -24 -4 11 97 21 62 26 87 18 97 -7 8 -7 13
0 13 5 0 12 9 15 20 3 11 12 20 21 20 21 0 21 16 0 24 -22 8 -32 8 -38 -3z"/>
<path d="M9006 13498 c-2 -7 -9 -38 -16 -68 -21 -91 -72 -212 -92 -218 -19 -5
-25 -28 -8 -34 5 -2 0 -37 -12 -85 -17 -62 -19 -86 -11 -94 9 -9 16 3 28 47
39 139 37 137 88 154 65 23 70 32 14 27 -41 -3 -47 -2 -41 12 26 57 74 211 74
239 0 31 -17 45 -24 20z"/>
<path d="M10041 13491 c-6 -10 -19 -40 -29 -67 -11 -27 -50 -103 -86 -169 -79
-144 -85 -183 -33 -215 46 -29 77 -35 88 -19 14 22 11 26 -21 26 -34 0 -70 28
-70 55 0 10 12 42 26 70 l26 50 78 -6 c91 -8 116 7 40 23 -28 6 -62 11 -76 11
l-25 0 35 68 c49 94 85 179 78 186 -10 11 -21 6 -31 -13z"/>
<path d="M13203 13492 c-28 -21 -65 -103 -95 -208 -16 -54 -28 -79 -36 -76
-20 6 -90 -44 -107 -79 -35 -67 6 -119 71 -88 37 18 67 78 106 211 32 113 73
211 94 229 35 29 3 39 -33 11z m-127 -337 c-14 -54 -27 -76 -51 -85 -38 -15
-45 -13 -45 13 1 27 20 54 57 79 37 24 46 23 39 -7z"/>
<path d="M6106 13491 c-4 -6 -8 -29 -9 -51 -1 -22 -5 -40 -9 -40 -4 0 -8 -5
-8 -10 0 -6 -14 -44 -32 -85 -31 -72 -34 -75 -65 -75 -18 0 -33 -4 -33 -10 0
-5 13 -10 29 -10 l28 0 -14 -52 c-18 -69 -14 -173 7 -173 9 0 13 6 11 15 -9
31 -1 107 16 164 17 54 21 59 47 61 16 0 31 6 34 13 2 7 10 12 18 12 8 0 14 5
14 10 0 16 -37 12 -44 -5 -3 -8 -14 -15 -24 -15 -18 0 -17 7 14 82 37 93 51
155 36 170 -6 6 -12 6 -16 -1z"/>
<path d="M7948 13473 c-9 -10 -18 -34 -22 -54 -3 -20 -33 -95 -66 -167 -82
-178 -79 -217 10 -127 24 25 47 45 50 45 4 0 6 -21 6 -47 -1 -35 3 -48 14 -50
12 -3 15 9 15 64 0 83 -12 89 -73 38 l-41 -36 25 57 c14 32 32 71 41 88 8 16
23 64 33 105 10 41 23 77 29 79 13 4 15 22 3 22 -5 0 -16 -8 -24 -17z"/>
<path d="M4110 13456 c-6 -16 -15 -49 -21 -75 -5 -25 -19 -74 -30 -107 -19
-59 -22 -62 -64 -74 -25 -7 -45 -17 -45 -21 0 -12 22 -11 53 0 l25 10 -14 -46
c-16 -54 -18 -103 -4 -103 5 0 12 12 16 28 19 87 36 134 52 139 9 3 37 15 62
25 53 24 39 36 -15 14 -47 -20 -49 -20 -40 2 22 55 53 208 45 221 -7 13 -11
11 -20 -13z"/>
<path d="M17341 13422 c-23 -69 -43 -87 -95 -83 -27 1 -47 -2 -47 -8 -1 -6 -2
-15 -3 -20 0 -5 -18 -25 -38 -45 -46 -44 -59 -97 -35 -138 16 -28 15 -31 -17
-91 -57 -103 -72 -186 -31 -171 10 4 13 14 9 28 -3 15 9 51 38 106 42 83 44
85 93 98 118 33 179 137 119 203 -13 14 -11 21 11 60 24 43 34 99 17 99 -5 0
-14 -17 -21 -38z m-107 -169 c-15 -27 -39 -66 -52 -88 -24 -38 -26 -39 -35
-18 -14 32 -1 68 37 107 62 62 87 61 50 -1z m82 2 c14 -55 -24 -104 -95 -125
l-29 -8 47 79 c48 83 67 95 77 54z"/>
<path d="M4268 13438 c-9 -7 -30 -51 -47 -98 -18 -47 -53 -129 -78 -182 -26
-54 -43 -101 -39 -105 4 -5 36 22 69 60 34 37 65 67 70 67 11 0 8 -68 -3 -72
-7 -2 -5 -11 4 -23 22 -30 31 -11 31 63 0 79 -14 88 -66 45 -34 -28 -34 -28
-18 -3 8 14 33 73 55 132 21 60 45 108 52 108 6 0 12 5 12 10 0 14 -23 13 -42
-2z"/>
<path d="M10626 13428 c-8 -34 -40 -118 -101 -266 -64 -158 -80 -213 -60 -209
9 2 176 407 189 460 5 21 3 27 -9 27 -9 0 -17 -6 -19 -12z"/>
<path d="M11762 13353 c-74 -159 -116 -283 -96 -283 3 0 28 25 56 55 27 30 54
55 59 55 14 0 11 -35 -7 -79 -22 -55 -12 -75 14 -31 57 92 23 181 -45 118
l-25 -23 7 25 c13 43 98 225 107 228 15 7 8 22 -10 22 -14 0 -30 -24 -60 -87z"/>
<path d="M11627 13423 c-2 -5 -7 -21 -11 -38 -11 -49 -70 -165 -83 -165 -15 0
-17 -17 -3 -22 12 -4 -14 -114 -32 -135 -6 -7 -8 -17 -4 -20 12 -12 39 12 49
43 5 16 15 43 23 61 8 17 14 36 14 41 0 6 25 16 55 22 67 14 75 34 10 24 -25
-3 -45 -4 -45 -2 0 2 9 28 19 58 26 75 35 126 23 134 -6 3 -13 3 -15 -1z"/>
<path d="M17563 13413 c-17 -50 -36 -88 -96 -197 -36 -66 -64 -123 -61 -128 9
-14 24 -9 31 10 4 9 37 71 74 137 68 123 89 178 70 190 -6 3 -14 -2 -18 -12z"/>
<path d="M15380 13353 c-33 -36 -60 -70 -60 -74 0 -5 -7 -9 -16 -9 -9 0 -14 6
-11 13 2 6 10 11 16 10 6 -2 11 1 11 6 0 5 -8 11 -17 13 -24 5 -93 -14 -93
-25 0 -5 -13 -24 -30 -43 -38 -44 -47 -91 -25 -137 l16 -35 -54 -74 c-60 -81
-77 -118 -54 -118 8 0 17 7 20 15 3 8 32 49 63 93 l58 78 52 1 c64 2 109 24
129 64 19 35 13 63 -22 100 l-24 26 40 50 c21 28 51 59 65 71 30 23 31 28 11
35 -9 4 -36 -18 -75 -60z m-113 -147 c-79 -113 -75 -109 -87 -86 -9 17 -7 30
11 68 33 70 35 72 69 59 l29 -11 -22 -30z m89 -11 c30 -46 -4 -84 -88 -99 -21
-4 -38 -4 -38 -1 0 16 84 125 96 125 8 0 21 -11 30 -25z"/>
<path d="M15682 13393 c-73 -35 -212 -222 -212 -285 0 -40 19 -58 61 -58 44 0
84 17 113 49 18 19 18 22 2 46 -17 25 -35 29 -87 16 -23 -5 -25 -9 -18 -28 10
-26 24 -30 33 -8 6 17 42 20 51 5 9 -15 -56 -50 -92 -50 -27 0 -33 4 -33 20 0
26 38 101 79 157 29 40 115 116 143 126 9 3 10 8 3 15 -7 8 -19 6 -43 -5z"/>
<path d="M16995 13403 c-50 -12 -104 -37 -110 -51 -9 -23 -1 -24 46 -4 56 24
99 35 99 24 0 -31 -94 -128 -155 -159 -55 -28 -135 -89 -135 -104 0 -25 67 2
132 53 l36 28 -1 -59 c-2 -76 13 -97 61 -80 34 12 34 34 0 23 -29 -9 -36 9
-33 77 3 55 7 62 48 103 47 48 80 106 75 134 -3 18 -28 24 -63 15z"/>
<path d="M16094 13354 c-65 -34 -92 -60 -77 -75 8 -8 16 -6 30 8 34 33 111 69
124 56 20 -20 -1 -51 -102 -147 -54 -52 -99 -99 -99 -105 0 -18 20 -13 52 14
41 35 59 33 52 -5 -7 -34 9 -60 38 -60 16 0 17 3 8 21 -9 15 -9 28 0 49 14 34
7 50 -23 50 -19 1 -14 8 28 47 85 77 104 123 67 156 -25 23 -41 21 -98 -9z"/>
<path d="M16351 13344 c-36 -30 -54 -66 -45 -89 8 -21 25 -19 89 9 30 14 55
23 55 20 0 -3 -11 -20 -24 -37 -38 -52 -96 -162 -96 -184 0 -27 25 -47 47 -38
17 6 17 7 0 17 -14 7 -17 17 -12 35 7 28 94 172 131 216 40 48 17 55 -63 21
-37 -16 -71 -31 -75 -32 -4 -2 -6 3 -3 10 8 19 57 46 73 41 9 -4 13 1 10 13
-5 30 -50 29 -87 -2z"/>
<path d="M17723 13360 c-24 -10 -98 -99 -108 -130 -3 -10 -20 -24 -38 -31 -25
-9 -39 -26 -64 -78 -17 -36 -34 -74 -37 -83 -6 -21 18 -48 42 -48 53 2 220
129 221 168 1 13 14 34 30 48 35 30 63 86 55 111 -18 48 -52 63 -101 43z m67
-35 c16 -20 5 -48 -38 -93 -38 -40 -52 -42 -82 -12 -17 17 -17 19 1 46 23 37
69 74 90 74 9 0 22 -7 29 -15z m-90 -177 c0 -21 -157 -128 -189 -128 -16 0 10
67 41 105 28 34 32 35 89 32 32 -1 59 -5 59 -9z"/>
<path d="M7486 13333 c-11 -11 -6 -23 9 -23 8 0 15 4 15 9 0 13 -16 22 -24 14z"/>
<path d="M8816 13312 c-2 -4 -1 -14 3 -21 6 -10 10 -9 14 3 6 16 -8 32 -17 18z"/>
<path d="M10426 13281 c-3 -5 1 -14 9 -21 12 -10 15 -10 15 3 0 19 -16 31 -24
18z"/>
<path d="M7808 13273 c-10 -2 -18 -9 -18 -15 0 -6 10 -8 23 -4 12 3 25 6 30 6
4 0 7 5 7 10 0 10 -12 11 -42 3z"/>
<path d="M12612 13244 c-76 -65 -94 -135 -45 -174 28 -22 56 -21 116 2 33 13
36 30 5 24 -67 -13 -87 -14 -103 -2 -26 19 -16 52 16 48 40 -5 93 37 97 76 3
34 -11 62 -32 62 -7 0 -31 -16 -54 -36z m58 -19 c0 -17 -9 -29 -31 -40 -49
-26 -58 -12 -17 28 43 44 48 45 48 12z"/>
<path d="M2789 13223 c-13 -21 -26 -40 -30 -43 -15 -11 -32 -91 -22 -101 8 -8
17 2 32 36 12 26 21 51 21 55 0 23 44 60 71 60 31 0 39 14 13 24 -38 15 -62 6
-85 -31z"/>
<path d="M5342 13253 c-38 -5 -56 -28 -77 -102 -9 -28 -25 -73 -36 -99 -19
-43 -21 -45 -32 -27 -6 11 -11 55 -12 97 -1 84 -6 98 -29 75 -8 -8 -13 -17
-10 -20 3 -2 6 -36 8 -75 2 -45 9 -81 20 -97 34 -51 61 -26 104 95 46 128 42
122 68 116 17 -5 26 -1 34 13 12 23 13 32 3 29 -5 0 -23 -3 -41 -5z"/>
<path d="M2996 13225 c-50 -38 -73 -118 -41 -145 20 -16 50 -5 98 39 26 22 38
29 34 18 -8 -20 8 -57 24 -57 5 0 9 12 8 28 -1 15 1 46 5 70 4 23 4 42 -1 42
-5 0 -27 -18 -48 -41 -22 -22 -52 -50 -67 -61 l-28 -19 0 26 c0 30 53 90 70
80 6 -4 18 -4 27 -1 12 5 13 9 3 21 -16 19 -59 19 -84 0z"/>
<path d="M3220 13178 c-42 -75 -51 -138 -19 -138 5 0 27 16 48 36 l40 35 3
-28 c4 -34 33 -41 77 -18 42 21 60 53 54 93 -8 47 -36 43 -31 -5 3 -32 -1 -39
-30 -56 -19 -11 -39 -16 -50 -12 -11 5 -13 9 -4 12 13 5 17 59 4 67 -5 3 -26
-13 -47 -34 -22 -22 -43 -40 -48 -40 -5 0 7 29 26 64 33 59 36 76 16 76 -5 0
-22 -24 -39 -52z"/>
<path d="M4430 13191 c-22 -22 -40 -44 -40 -50 0 -6 -7 -11 -15 -11 -8 0 -15
-4 -15 -10 0 -5 5 -10 10 -10 6 0 10 -8 10 -19 0 -10 9 -30 21 -45 17 -22 28
-26 73 -26 29 0 61 6 72 14 28 21 10 31 -20 11 -16 -11 -26 -13 -26 -6 0 6
-15 11 -33 11 -18 0 -38 5 -45 12 -18 18 -15 48 6 55 26 9 82 74 82 95 0 31
-38 21 -80 -21z m30 -26 c-13 -14 -26 -22 -29 -19 -3 3 5 14 18 25 33 27 39
24 11 -6z"/>
<path d="M5752 13201 c-30 -31 -62 -89 -62 -114 0 -30 36 -60 70 -60 19 0 36
5 38 11 2 7 7 10 11 8 10 -6 37 11 30 19 -4 3 -18 1 -32 -6 -55 -25 -102 14
-76 63 20 39 52 69 60 57 8 -14 29 -3 29 16 0 8 -9 19 -19 25 -16 8 -25 4 -49
-19z"/>
<path d="M11985 13221 c-66 -28 -98 -123 -53 -155 26 -19 82 -21 127 -5 50 17
37 25 -41 25 -68 -1 -73 0 -76 22 -3 17 2 22 18 22 37 0 80 29 80 53 0 21 -17
48 -29 46 -4 0 -15 -4 -26 -8z m15 -56 c-14 -17 -40 -20 -40 -6 0 6 10 17 22
26 26 17 37 3 18 -20z"/>
<path d="M7060 13173 c-60 -44 -79 -67 -67 -80 3 -3 32 15 64 40 31 25 59 44
61 42 2 -2 -10 -35 -28 -74 -31 -67 -33 -91 -6 -91 7 0 25 14 41 30 37 39 45
38 45 -5 0 -24 5 -35 15 -35 21 0 62 66 80 127 9 29 23 57 33 62 15 9 15 12 2
20 -23 15 -44 -14 -70 -94 -27 -84 -40 -102 -40 -54 0 47 -7 52 -41 27 -16
-12 -31 -19 -34 -16 -3 3 6 29 20 59 47 103 23 116 -75 42z"/>
<path d="M9136 13204 c-21 -20 -20 -23 10 -78 34 -60 28 -96 -16 -96 -29 0
-36 10 -31 48 3 18 -26 15 -33 -4 -18 -48 10 -84 67 -84 26 0 41 7 56 26 24
30 21 57 -12 117 -18 33 -19 39 -7 47 8 5 25 7 37 3 28 -6 31 12 4 27 -28 14
-57 12 -75 -6z"/>
<path d="M12792 13208 c-15 -19 -72 -136 -72 -148 0 -19 26 -10 39 13 15 24
107 107 120 107 5 0 5 -17 0 -37 -9 -40 -3 -77 10 -68 11 6 33 123 26 135 -10
17 -30 11 -74 -21 -33 -23 -40 -26 -32 -10 20 36 7 58 -17 29z"/>
<path d="M5484 13200 c-32 -13 -64 -59 -64 -91 0 -16 -4 -29 -10 -29 -16 0
-11 -14 8 -25 73 -40 72 -39 120 -26 71 19 77 33 12 27 -57 -6 -90 -1 -90 14
0 5 9 12 20 15 32 10 80 55 80 75 0 21 -26 50 -43 49 -7 0 -22 -4 -33 -9z m42
-32 c8 -12 -37 -53 -68 -61 -16 -5 -16 -3 -3 24 22 41 57 60 71 37z"/>
<path d="M10174 13200 c-23 -9 -54 -52 -54 -74 0 -22 28 -27 59 -12 l27 15 0
-46 c-1 -28 4 -48 12 -50 7 -3 12 5 12 22 0 14 5 46 11 70 18 69 -8 99 -67 75z
m31 -30 c-3 -5 -16 -15 -28 -21 -22 -12 -22 -12 -3 10 19 21 43 30 31 11z"/>
<path d="M8720 13190 c0 -5 5 -10 10 -10 6 0 10 -5 10 -11 0 -5 -4 -7 -10 -4
-5 3 -10 0 -10 -7 0 -8 -9 -31 -20 -53 -22 -43 -25 -65 -10 -65 10 0 36 40 32
52 -1 4 5 23 13 42 19 45 19 66 0 66 -8 0 -15 -4 -15 -10z"/>
<path d="M6208 13173 c-15 -7 -37 -27 -48 -43 -47 -66 5 -91 82 -40 25 17 48
39 51 50 9 36 -42 56 -85 33z m45 -28 c1 -10 -60 -55 -75 -55 -5 0 -1 11 8 25
9 14 23 25 30 25 8 0 14 5 14 11 0 13 21 7 23 -6z"/>
<path d="M6375 13172 c-16 -11 -35 -25 -41 -33 -18 -23 -32 -75 -24 -89 11
-18 30 -3 30 24 0 13 14 38 33 56 28 27 37 31 70 26 40 -7 50 6 18 24 -28 15
-52 12 -86 -8z"/>
<path d="M10351 13128 c-28 -60 -30 -78 -11 -78 9 0 60 105 61 125 0 5 -4 11
-10 13 -6 2 -24 -25 -40 -60z"/>
<path d="M7396 13158 c-2 -7 -9 -28 -15 -47 -6 -19 -8 -38 -3 -43 4 -4 15 14
24 42 9 29 12 52 7 56 -5 3 -11 -1 -13 -8z"/>
<path d="M10928 13113 c-34 -5 -37 -20 -5 -25 39 -5 150 7 154 17 3 10 -100
16 -149 8z"/>
<path d="M15752 13098 c-7 -7 -12 -18 -12 -25 0 -16 22 -17 38 -1 16 16 15 38
-1 38 -7 0 -18 -5 -25 -12z"/>
<path d="M16528 13086 c-21 -15 -24 -36 -5 -36 20 1 50 28 42 39 -8 14 -16 13
-37 -3z"/>
<path d="M13624 12943 c-8 -21 -25 -60 -38 -88 -13 -27 -31 -71 -41 -97 l-17
-47 -44 6 c-30 4 -44 2 -44 -6 0 -6 6 -12 13 -13 6 0 17 -2 22 -3 6 -2 18 -3
27 -4 15 -1 12 -12 -19 -76 -20 -44 -33 -82 -29 -92 9 -22 17 -11 56 79 34 79
44 88 102 88 73 0 77 28 4 32 l-54 3 49 110 c26 61 48 118 49 128 0 30 -20 18
-36 -20z"/>
<path d="M4918 12934 c-33 -17 -36 -24 -9 -17 18 4 17 -3 -13 -109 l-31 -113
-45 -3 c-104 -6 -128 -32 -30 -32 33 0 60 -2 60 -5 0 -3 -9 -37 -19 -77 -27
-100 -32 -140 -18 -135 13 4 18 16 48 135 14 55 27 85 38 89 9 2 31 11 49 19
17 7 32 12 32 11 0 -2 -11 -31 -25 -65 -46 -114 -25 -122 55 -22 l51 64 -7
-62 c-8 -72 9 -86 26 -21 13 48 10 101 -7 106 -6 2 -28 -11 -48 -28 l-37 -33
16 38 c30 72 65 215 54 222 -15 9 -22 -7 -43 -90 -15 -60 -23 -74 -44 -83 -42
-18 -71 -25 -71 -17 0 4 14 53 30 111 41 141 40 146 -12 117z"/>
<path d="M7995 12938 c-2 -7 -11 -40 -20 -73 -9 -33 -35 -107 -56 -164 -21
-57 -39 -112 -39 -122 0 -26 19 -24 29 4 12 31 77 87 101 87 24 0 25 -19 5
-86 -18 -59 -19 -97 -3 -92 13 5 47 118 48 159 0 48 -47 65 -94 34 -23 -15
-22 -10 20 115 24 73 42 136 38 141 -8 13 -24 11 -29 -3z"/>
<path d="M3196 12823 c-14 -60 -29 -118 -32 -130 -4 -14 -15 -23 -32 -25 -35
-4 -41 -28 -8 -28 30 0 29 2 15 -56 -7 -25 -17 -44 -25 -44 -25 0 -15 -26 11
-28 25 -2 26 1 51 101 4 17 15 29 30 33 13 3 29 13 36 21 11 14 9 15 -20 8
-31 -6 -32 -5 -27 17 56 231 57 238 35 238 -4 0 -20 -48 -34 -107z"/>
<path d="M10852 12918 c-7 -7 -12 -17 -12 -22 0 -6 -17 -53 -37 -105 -24 -61
-44 -96 -55 -99 -10 -2 -18 -8 -18 -12 0 -4 -22 -5 -50 -2 -41 4 -50 2 -50
-12 0 -12 10 -16 48 -16 26 0 53 5 60 12 18 18 15 7 -17 -68 -35 -83 -50 -149
-32 -143 7 3 29 47 48 99 19 52 39 100 44 106 5 6 27 14 49 18 50 8 52 26 4
26 -25 0 -35 4 -31 13 3 6 22 54 42 105 23 58 34 97 28 103 -5 5 -14 4 -21 -3z"/>
<path d="M16037 12924 c-12 -12 -8 -24 8 -24 12 0 12 -8 -5 -50 -11 -27 -33
-77 -50 -110 -27 -54 -34 -60 -63 -61 -51 -2 -57 -3 -54 -14 1 -5 18 -10 38
-10 l36 0 -29 -60 c-52 -112 -23 -110 36 2 17 32 42 63 54 69 13 7 19 15 14
18 -7 4 2 34 23 79 18 39 35 92 37 117 3 39 0 45 -17 48 -12 2 -24 0 -28 -4z"/>
<path d="M8785 12910 c-3 -5 -4 -14 -1 -18 7 -11 -36 -181 -64 -255 -27 -70
-77 -127 -114 -127 -22 0 -26 4 -26 31 0 23 9 40 36 64 19 18 43 32 52 31 9 0
18 7 20 17 5 27 -29 21 -75 -12 -25 -18 -46 -45 -57 -71 -16 -39 -16 -44 0
-67 14 -22 21 -25 56 -20 25 3 51 16 68 32 41 40 99 162 126 267 28 112 29
116 7 114 -10 0 -17 5 -15 12 3 15 -4 16 -13 2z"/>
<path d="M10103 12908 c2 -7 -16 -52 -42 -100 l-46 -88 -47 0 c-57 0 -65 -17
-10 -22 27 -2 36 -7 33 -18 -27 -113 2 -147 102 -119 54 15 45 26 -20 25 -54
-1 -58 1 -61 22 -2 13 2 37 8 52 10 24 20 30 76 40 35 7 64 17 64 22 0 6 -12
8 -28 5 -16 -3 -32 -7 -38 -8 -44 -8 -44 1 1 88 51 98 54 113 24 113 -12 0
-19 -5 -16 -12z"/>
<path d="M12616 12898 c-7 -13 -22 -48 -31 -78 -10 -30 -23 -68 -29 -85 -30
-73 -54 -162 -52 -185 2 -14 4 -30 5 -37 2 -18 40 -36 59 -28 14 5 12 9 -11
28 -24 20 -26 25 -18 57 5 19 15 54 21 78 l11 42 74 0 c77 0 105 6 105 22 0 6
-25 9 -57 8 -32 -1 -70 -2 -85 -1 l-28 1 30 81 c16 45 34 87 40 94 10 12 4 25
-11 25 -5 0 -15 -10 -23 -22z"/>
<path d="M14650 12908 c0 -17 -33 -100 -92 -231 -73 -163 -63 -187 34 -88 32
33 60 56 63 51 3 -4 -4 -29 -15 -56 -23 -53 -18 -71 11 -34 30 39 54 109 42
121 -11 11 -83 -27 -98 -51 -3 -5 -15 -14 -25 -20 -18 -10 -18 -8 -7 17 7 16
20 42 29 58 9 17 30 68 48 115 18 47 37 90 42 97 5 7 7 17 3 23 -9 14 -35 13
-35 -2z"/>
<path d="M4117 12868 c-8 -18 -22 -65 -31 -104 l-17 -70 -60 -13 c-74 -15 -80
-36 -8 -29 48 5 50 4 44 -16 -23 -80 -37 -147 -31 -153 12 -12 24 12 46 95 20
73 25 83 49 88 97 22 123 44 40 36 -48 -4 -51 -3 -45 16 15 48 46 163 46 172
0 22 -20 8 -33 -22z"/>
<path d="M10959 12853 c-12 -27 -36 -82 -54 -123 -18 -41 -42 -96 -54 -122
-39 -86 -21 -96 51 -28 29 27 57 50 62 50 5 0 5 -15 1 -32 -15 -72 -17 -108
-7 -108 12 0 42 95 42 132 0 24 -16 48 -32 48 -4 0 -26 -16 -48 -36 l-40 -37
19 44 c10 24 37 86 60 137 22 51 41 99 41 107 0 30 -21 13 -41 -32z"/>
<path d="M16167 12894 c-3 -3 -3 -12 -1 -19 9 -21 -55 -163 -118 -264 -32 -51
-58 -97 -58 -102 0 -23 29 -5 62 39 40 52 88 100 88 88 0 -5 -8 -30 -17 -57
-13 -36 -15 -51 -6 -60 8 -8 17 4 32 47 26 68 24 98 -6 102 -21 3 -21 4 11 75
18 40 36 84 39 99 10 39 -6 72 -26 52z"/>
<path d="M3287 12773 c-14 -54 -37 -131 -51 -171 -14 -41 -26 -80 -26 -88 0
-26 25 -14 44 20 10 19 34 49 53 68 l35 33 -7 -32 c-5 -26 -3 -33 8 -33 18 0
27 21 27 61 0 44 -25 47 -67 8 -26 -24 -34 -28 -28 -14 14 36 52 169 59 208 5
28 4 37 -7 37 -10 0 -23 -32 -40 -97z"/>
<path d="M15182 12699 c-54 -104 -80 -165 -74 -171 11 -11 118 79 116 97 -1 7
9 10 24 7 24 -5 24 -7 19 -63 -5 -63 -2 -70 19 -41 16 20 18 86 4 113 -14 26
-38 24 -83 -7 l-38 -25 55 105 c52 98 67 146 48 146 -4 0 -45 -73 -90 -161z"/>
<path d="M3046 12812 c-3 -6 -1 -14 5 -17 15 -10 25 3 12 16 -7 7 -13 7 -17 1z"/>
<path d="M12287 12813 c-12 -11 -8 -23 9 -23 11 0 13 -6 9 -19 -3 -11 -1 -22
4 -25 11 -7 25 49 16 64 -7 11 -28 13 -38 3z"/>
<path d="M2665 12763 c-27 -7 -78 -44 -71 -51 3 -3 31 3 61 13 30 11 57 17 60
14 3 -3 -13 -45 -36 -93 -51 -110 -42 -130 28 -65 26 24 51 50 55 59 4 8 5
-12 2 -45 -5 -49 -3 -63 10 -74 14 -12 19 -11 37 5 12 10 32 38 46 62 20 34
24 52 20 88 -5 50 -10 59 -27 49 -7 -5 -8 -11 -1 -19 14 -16 -1 -76 -30 -123
-18 -29 -25 -34 -27 -20 -2 10 1 32 7 49 26 74 4 88 -61 36 l-40 -31 27 52
c33 67 31 95 -10 98 -16 0 -39 -1 -50 -4z"/>
<path d="M11854 12735 c-10 -8 -28 -15 -39 -15 -13 -1 -28 -16 -44 -48 -13
-26 -36 -72 -52 -102 -27 -55 -76 -206 -86 -267 -5 -34 6 -43 25 -20 12 14 49
112 54 142 2 11 6 22 9 25 3 3 13 25 21 50 11 34 20 46 38 48 73 11 192 139
174 187 -8 20 -74 20 -100 0z m70 -27 c-23 -39 -59 -79 -92 -102 -40 -27 -77
-37 -54 -14 7 7 12 19 12 27 0 8 19 35 42 58 30 31 50 43 71 43 20 0 26 -4 21
-12z"/>
<path d="M6060 12725 c-34 -18 -52 -54 -48 -96 3 -30 7 -34 35 -37 17 -2 49 6
71 17 l39 20 -7 -44 c-7 -44 2 -76 16 -62 4 4 9 15 9 25 1 9 6 38 10 64 9 61
-8 70 -62 34 -21 -14 -46 -26 -55 -26 -26 0 -23 45 4 64 25 18 44 11 27 -10
-16 -20 -5 -28 21 -14 16 8 19 17 14 33 -14 48 -32 56 -74 32z"/>
<path d="M6390 12730 c0 -5 6 -10 14 -10 8 0 18 5 21 10 3 6 -3 10 -14 10 -12
0 -21 -4 -21 -10z"/>
<path d="M7236 12709 c-14 -17 -26 -38 -27 -47 0 -9 -11 -39 -23 -67 -23 -49
-24 -49 -31 -23 -12 47 -27 51 -79 22 -26 -14 -49 -24 -51 -22 -3 2 9 26 25
52 42 66 40 86 -8 86 -20 0 -53 -8 -72 -19 -37 -19 -53 -51 -26 -51 9 0 16 4
16 9 0 12 55 34 74 29 12 -2 8 -14 -19 -58 -19 -30 -35 -60 -35 -67 0 -25 30
-25 83 0 l52 25 14 -29 c8 -16 23 -29 33 -29 23 0 72 75 93 144 9 28 19 57 21
64 10 23 -14 12 -40 -19z"/>
<path d="M9765 12729 c-32 -18 -85 -72 -85 -85 0 -28 33 -33 85 -13 27 10 51
19 51 19 1 0 5 -7 8 -16 3 -8 2 -12 -4 -9 -14 9 -12 -19 2 -33 19 -19 41 -15
30 5 -6 10 -6 29 0 50 18 66 -32 113 -87 82z m49 -32 c-5 -14 -66 -47 -85 -47
-16 0 1 20 35 41 36 22 58 25 50 6z"/>
<path d="M14259 12710 c-30 -17 -69 -37 -87 -46 -18 -8 -30 -19 -26 -25 9 -15
49 -3 93 27 19 13 39 24 42 24 4 0 -2 -22 -13 -49 -14 -31 -19 -58 -14 -75 8
-33 13 -32 54 4 18 16 39 31 45 33 7 2 9 7 6 11 -4 4 -23 0 -43 -8 -20 -8 -36
-13 -36 -11 0 11 54 116 61 121 12 7 1 24 -15 24 -7 0 -37 -14 -67 -30z"/>
<path d="M14857 12733 c-12 -11 -8 -23 8 -23 8 0 15 7 15 15 0 16 -12 20 -23
8z"/>
<path d="M16415 12726 c-66 -30 -144 -151 -130 -203 8 -35 49 -56 109 -56 53
0 156 28 156 43 0 4 10 10 22 13 12 4 19 9 16 13 -4 3 -36 -1 -73 -11 -87 -21
-161 -23 -181 -3 -14 14 -14 19 0 52 12 28 21 36 41 36 31 0 100 42 115 70 8
16 6 24 -10 40 -23 23 -25 24 -65 6z m38 -46 c-24 -21 -83 -50 -83 -41 0 14
71 61 83 54 5 -3 5 -9 0 -13z"/>
<path d="M5216 12699 c-14 -17 -26 -35 -26 -40 0 -5 -6 -9 -14 -9 -11 0 -13
-10 -9 -42 11 -90 52 -113 133 -76 28 13 50 26 50 30 0 11 -14 10 -27 -3 -17
-17 -102 -16 -113 1 -16 24 -12 60 8 66 74 24 90 42 77 84 -10 30 -49 25 -79
-11z m52 -11 c-2 -6 -15 -18 -28 -27 -21 -14 -23 -14 -16 -1 16 27 28 40 38
40 5 0 8 -5 6 -12z"/>
<path d="M6345 12719 c-47 -13 -85 -58 -88 -105 -3 -53 24 -54 36 -1 7 29 19
45 51 65 22 14 43 28 45 29 14 10 -19 19 -44 12z"/>
<path d="M6489 12693 c-57 -52 -107 -153 -75 -153 8 0 24 21 36 48 25 55 73
108 106 116 32 8 31 26 -1 26 -15 0 -42 -15 -66 -37z"/>
<path d="M14475 12694 c-8 -20 -15 -39 -15 -41 0 -3 -10 -18 -21 -35 -19 -26
-23 -28 -31 -14 -11 19 -38 21 -38 3 0 -17 32 -47 50 -47 16 0 34 22 65 82 26
49 32 88 15 88 -5 0 -17 -16 -25 -36z"/>
<path d="M3743 12678 c-27 -43 -103 -131 -116 -135 -4 -2 -11 -3 -17 -3 -5 0
-10 -4 -10 -10 0 -18 21 -11 61 21 33 26 42 29 55 18 12 -10 20 -8 44 9 16 12
32 22 35 22 3 0 5 -16 5 -35 0 -43 22 -55 50 -30 26 23 26 39 0 25 -17 -9 -20
-8 -20 9 0 11 5 32 10 47 18 46 -3 52 -55 16 -25 -17 -45 -28 -45 -24 0 4 14
27 30 52 34 51 36 60 15 60 -8 0 -27 -19 -42 -42z"/>
<path d="M12055 12710 c-3 -5 -15 -10 -25 -10 -20 0 -70 -54 -70 -76 0 -8 10
-24 21 -35 30 -30 104 -22 136 16 28 32 30 76 5 98 -21 19 -57 22 -67 7z m36
-40 c10 -6 19 -17 19 -25 0 -33 -92 -63 -103 -32 -5 12 40 67 56 67 4 0 17 -5
28 -10z"/>
<path d="M11123 12694 c-69 -34 -93 -119 -48 -168 30 -33 80 -36 90 -6 3 11
17 23 31 26 13 3 24 11 24 16 0 14 -52 0 -66 -18 -23 -29 -64 -9 -64 33 0 17
6 23 23 23 28 0 97 59 97 82 0 30 -39 35 -87 12z m49 -26 c-6 -7 -25 -21 -44
-31 l-33 -19 33 31 c32 31 66 45 44 19z"/>
<path d="M13241 12679 c-72 -71 -37 -133 44 -79 38 25 44 25 38 0 -5 -20 11
-50 27 -50 5 0 6 8 3 19 -3 10 2 32 11 49 20 38 20 52 3 52 -8 0 -22 9 -32 20
-26 29 -59 25 -94 -11z m73 -22 c-3 -8 -21 -21 -40 -31 -36 -17 -38 -10 -6 27
18 20 54 23 46 4z"/>
<path d="M8190 12686 c-14 -8 -39 -32 -56 -53 -30 -37 -31 -40 -17 -68 8 -17
22 -36 31 -42 21 -17 74 -16 98 2 18 13 16 14 -26 15 -40 0 -82 14 -70 22 3 2
23 13 45 25 50 26 75 65 59 90 -14 23 -33 26 -64 9z m12 -57 c-18 -16 -37 -29
-42 -29 -17 0 22 51 44 60 34 13 33 0 -2 -31z"/>
<path d="M2980 12633 c-20 -53 -21 -83 -2 -83 4 0 15 24 24 53 9 28 20 60 23
70 5 12 2 17 -8 17 -10 0 -24 -22 -37 -57z"/>
<path d="M3538 12684 c-4 -3 0 -22 9 -41 12 -29 12 -41 2 -65 -14 -33 -40 -51
-64 -42 -24 10 -12 63 20 91 28 24 32 43 11 43 -23 0 -64 -49 -70 -85 -18 -95
81 -112 129 -23 18 34 19 40 5 79 -14 41 -29 56 -42 43z"/>
<path d="M6735 12680 c-3 -6 -3 -14 0 -20 3 -6 -1 -7 -10 -4 -10 4 -31 -9 -60
-39 -77 -76 -52 -145 38 -102 52 24 79 58 80 99 1 37 -35 87 -48 66z m18 -81
c-3 -11 -17 -28 -30 -39 -14 -10 -22 -24 -18 -30 8 -13 -25 -13 -45 0 -13 8
-13 13 0 37 20 36 81 78 91 62 3 -6 4 -20 2 -30z"/>
<path d="M9227 12684 c-13 -13 -7 -33 11 -34 9 0 59 -2 110 -5 60 -3 92 -1 92
6 0 5 -4 7 -10 4 -5 -3 -10 -2 -10 3 0 5 -35 12 -77 14 -43 3 -85 8 -94 12 -8
4 -18 3 -22 0z"/>
<path d="M12313 12682 c-21 -13 -83 -94 -83 -108 0 -23 14 -16 33 16 10 16 25
37 35 47 16 16 17 14 22 -28 7 -60 24 -51 28 15 3 53 -9 74 -35 58z"/>
<path d="M12184 12625 c-22 -41 -26 -57 -17 -66 8 -8 19 3 41 49 28 56 30 72
12 72 -4 0 -20 -25 -36 -55z"/>
<path d="M14872 12627 c-46 -48 -42 -86 12 -106 20 -8 40 -8 69 0 37 10 77 38
77 54 0 11 -29 4 -37 -9 -10 -17 -84 -27 -106 -14 -10 5 -17 15 -17 22 0 15
42 56 58 56 17 0 15 17 -4 24 -9 3 -17 6 -18 6 -1 0 -16 -15 -34 -33z"/>
<path d="M8350 12612 c-71 -71 -43 -116 42 -69 45 25 48 26 48 8 0 -25 10 -51
19 -51 4 0 8 16 9 35 1 19 6 44 12 54 5 11 10 22 10 25 0 11 -39 6 -46 -6 -6
-9 -10 -5 -14 12 -9 39 -36 36 -80 -8z m43 -20 c-5 -20 -42 -47 -51 -38 -6 7
37 56 49 56 4 0 5 -8 2 -18z"/>
<path d="M7689 12636 c-2 -2 -22 -7 -43 -10 -22 -4 -45 -11 -53 -17 -9 -8 -13
-8 -13 0 0 6 -16 11 -35 11 -40 0 -47 -17 -10 -26 41 -10 147 8 153 26 2 6 9
7 14 4 7 -4 8 -2 4 4 -8 13 -10 14 -17 8z"/>
<path d="M14747 12583 c-3 -15 -9 -36 -12 -45 -4 -10 -3 -18 3 -18 15 0 36 70
24 82 -6 6 -11 -1 -15 -19z"/>
<path d="M3310 12543 c0 -9 8 -13 22 -11 30 4 33 23 3 24 -16 1 -25 -3 -25
-13z"/>
<path d="M12599 12525 c0 0 -2 -7 -4 -15 -2 -8 -23 -49 -47 -91 -24 -41 -66
-139 -92 -218 -36 -102 -59 -153 -84 -181 -41 -49 -70 -66 -85 -51 -15 15 15
56 69 94 24 17 44 34 44 39 0 28 -87 -21 -124 -70 -35 -46 -21 -101 25 -102
25 0 71 40 64 57 -3 10 -1 13 9 10 29 -11 58 41 109 195 41 121 84 212 133
279 19 26 34 49 34 53 0 4 -41 5 -51 1z"/>
<path d="M13245 12363 c-44 -86 -106 -197 -137 -247 -32 -50 -58 -97 -58 -103
0 -15 16 -17 25 -3 4 6 12 4 21 -5 45 -45 180 20 172 83 -5 40 -30 49 -83 30
-25 -9 -45 -16 -45 -14 0 2 19 36 42 77 74 132 167 322 162 331 -3 4 -8 8 -12
8 -4 0 -43 -71 -87 -157z m-5 -276 c0 -24 -39 -56 -75 -63 -65 -12 -60 26 7
56 51 23 68 25 68 7z"/>
<path d="M6386 12478 c-3 -17 -3 -66 0 -107 7 -84 -13 -192 -46 -245 l-18 -29
-13 29 c-27 55 -104 37 -154 -36 -21 -31 -24 -41 -16 -64 23 -58 89 -52 165
15 49 43 80 92 106 169 17 50 20 81 18 166 -2 57 -7 104 -12 104 -4 0 -6 7 -2
15 3 9 0 15 -8 15 -7 0 -16 -14 -20 -32z m-91 -370 c15 -22 14 -24 -16 -50
-46 -39 -85 -51 -104 -32 -22 22 -20 28 25 68 46 42 72 45 95 14z"/>
<path d="M5278 12453 c-2 -25 -4 -35 -11 -53 -39 -99 -65 -194 -57 -213 8 -22
8 -22 18 4 14 36 85 263 84 269 -3 15 -32 9 -34 -7z"/>
<path d="M9708 12448 c-32 -48 -72 -136 -98 -213 -20 -61 -31 -80 -46 -81 -10
-1 -25 -2 -31 -3 -7 -1 -13 -6 -13 -12 0 -6 6 -9 13 -6 32 12 38 -9 18 -59
-23 -61 -30 -116 -15 -121 17 -6 28 48 12 58 -10 7 -9 9 3 9 9 0 20 14 26 35
6 20 7 35 2 35 -17 0 30 38 53 43 23 4 23 4 1 12 l-21 7 23 68 c13 37 29 78
36 91 11 22 11 23 -4 10 -12 -9 -17 -10 -17 -2 0 6 7 14 16 18 12 4 74 113 74
130 0 11 -20 -1 -32 -19z"/>
<path d="M3546 12448 c-2 -7 -9 -38 -15 -68 -7 -30 -21 -85 -32 -123 -18 -60
-24 -69 -55 -82 -38 -16 -38 -41 0 -31 21 5 22 3 18 -59 -3 -41 0 -65 6 -65
11 0 17 22 28 103 4 30 11 47 20 47 24 0 94 24 94 33 0 4 -22 5 -49 1 l-50 -6
15 48 c29 92 53 198 48 206 -8 12 -24 10 -28 -4z"/>
<path d="M8900 12415 c0 -9 -27 -95 -60 -192 -62 -183 -68 -207 -48 -201 13 5
137 358 138 391 0 9 -7 17 -15 17 -8 0 -15 -7 -15 -15z"/>
<path d="M9020 12395 c0 -17 -88 -240 -125 -316 -30 -63 -30 -69 -7 -69 13 0
34 45 90 186 41 102 71 192 68 200 -7 18 -26 18 -26 -1z"/>
<path d="M15805 12358 c-16 -29 -47 -91 -67 -138 -20 -47 -43 -86 -50 -87 -64
-9 -88 -15 -88 -23 0 -6 19 -7 45 -3 25 3 45 3 45 -1 0 -13 -40 -84 -56 -100
-20 -20 -13 -30 14 -22 10 4 32 31 47 62 l28 55 65 -7 c81 -8 78 11 -3 21 -30
4 -55 8 -55 10 0 13 66 157 94 205 39 66 43 80 24 80 -7 0 -26 -24 -43 -52z"/>
<path d="M12285 12314 c-18 -56 -80 -202 -95 -224 -33 -48 -54 -118 -42 -143
9 -18 11 -19 13 -4 1 9 2 20 3 25 1 4 29 63 63 132 72 146 92 205 75 222 -8 8
-13 6 -17 -8z"/>
<path d="M2936 12281 c-6 -9 -22 -12 -52 -7 -41 5 -44 4 -50 -22 -14 -65 -38
-133 -59 -168 l-23 -38 -5 44 c-3 25 -9 77 -14 115 -5 41 -12 68 -18 65 -13
-6 -6 -163 9 -210 24 -75 79 -25 119 107 21 70 23 73 53 73 33 0 59 21 52 42
-3 9 -6 9 -12 -1z"/>
<path d="M4475 12260 c-7 -11 2 -30 13 -30 4 0 14 5 22 10 13 9 13 11 0 20
-19 12 -27 12 -35 0z"/>
<path d="M8393 12225 c-41 -18 -87 -86 -79 -118 6 -25 71 -67 104 -67 11 0 22
7 26 15 3 8 2 14 -2 14 -37 -6 -92 26 -92 52 0 19 67 79 89 79 14 0 19 -5 15
-15 -7 -18 17 -20 34 -3 9 9 7 17 -10 35 -25 26 -40 28 -85 8z"/>
<path d="M2993 12223 c-7 -2 -26 -29 -43 -59 -38 -65 -37 -108 1 -136 23 -17
31 -18 67 -8 51 13 57 34 8 25 -40 -8 -76 8 -76 34 0 13 10 20 31 25 31 6 89
55 89 75 0 15 -38 51 -52 50 -7 0 -18 -3 -25 -6z m40 -37 c3 -8 -2 -20 -11
-28 -24 -19 -62 -39 -62 -33 0 3 10 21 23 40 23 37 41 44 50 21z"/>
<path d="M3890 12181 c-22 -22 -42 -50 -44 -63 -3 -13 -8 -33 -11 -44 -4 -12
-2 -25 4 -28 5 -4 23 22 41 59 35 72 55 88 108 83 28 -2 37 1 37 12 0 11 -13
16 -48 18 -44 3 -50 0 -87 -37z"/>
<path d="M9793 12206 c3 -7 0 -19 -6 -25 -6 -6 -7 -14 -3 -18 11 -11 36 26 29
43 -3 8 -10 14 -15 14 -6 0 -8 -6 -5 -14z"/>
<path d="M13451 12165 c-107 -100 -78 -207 46 -170 95 29 102 59 8 32 -67 -19
-85 -14 -85 23 0 23 5 29 33 34 36 7 107 60 107 81 0 18 -28 45 -46 45 -8 0
-36 -20 -63 -45z m73 6 c6 -10 -70 -71 -88 -71 -6 0 8 18 29 40 40 41 50 46
59 31z"/>
<path d="M3258 12189 c-23 -13 -68 -90 -68 -116 0 -11 7 -26 15 -33 24 -20
124 5 102 26 -2 2 -15 1 -28 -4 -65 -23 -77 18 -24 77 46 50 47 76 3 50z"/>
<path d="M7589 12177 c-50 -33 -96 -103 -83 -125 17 -27 68 -26 130 2 50 23
55 24 61 8 17 -48 60 -66 89 -38 21 22 17 28 -15 21 -23 -5 -32 -2 -40 12 -6
12 -6 25 0 34 12 20 11 49 -3 49 -6 0 -19 -7 -28 -15 -16 -14 -17 -14 -13 9 3
16 -2 31 -16 45 -27 27 -40 26 -82 -2z m74 -54 c4 -22 -1 -28 -37 -44 -22 -10
-51 -19 -64 -19 l-22 0 22 34 c25 38 65 66 84 59 6 -2 14 -16 17 -30z"/>
<path d="M9313 12185 c-66 -28 -85 -106 -37 -150 31 -28 79 -33 88 -9 8 22 9
22 -19 16 -55 -10 -85 58 -45 98 21 21 30 23 69 20 15 -1 22 3 19 11 -7 21
-42 28 -75 14z"/>
<path d="M3690 12180 c0 -5 -8 -10 -18 -10 -38 0 -69 -99 -40 -128 50 -50 135
60 94 123 -17 25 -36 33 -36 15z m9 -88 c-16 -29 -36 -37 -58 -23 -10 7 -11
12 -2 22 6 8 21 27 33 43 l22 29 10 -22 c7 -17 6 -30 -5 -49z"/>
<path d="M4568 12164 c-35 -18 -35 -34 -1 -85 28 -43 23 -58 -20 -59 -14 0
-17 5 -12 21 6 18 5 20 -14 10 -25 -14 -28 -56 -5 -65 33 -13 63 -5 83 21 23
29 21 52 -10 92 -23 29 -18 38 31 51 22 6 40 15 40 20 0 15 -62 11 -92 -6z"/>
<path d="M5175 12141 c-9 -22 -14 -44 -11 -50 4 -6 2 -11 -4 -11 -11 0 -49
-74 -50 -96 0 -17 77 -16 118 2 70 29 140 114 127 155 -8 24 -47 41 -72 32
-10 -4 -32 -17 -48 -29 l-31 -23 -2 26 c-3 38 -7 38 -27 -6z m155 -15 c0 -7
-16 -31 -35 -53 -36 -42 -88 -73 -124 -73 -19 0 -20 3 -10 21 17 32 96 108
122 118 26 10 47 4 47 -13z"/>
<path d="M9075 12162 c-44 -27 -72 -84 -59 -119 12 -36 56 -57 91 -46 41 14
41 33 0 26 -24 -4 -38 0 -51 12 -16 17 -15 19 21 35 55 25 83 59 72 88 -10 27
-34 28 -74 4z m45 -27 c0 -14 -54 -55 -73 -55 -21 0 42 62 71 69 1 1 2 -6 2
-14z"/>
<path d="M6805 12160 c-3 -6 0 -12 7 -15 26 -9 147 0 160 13 10 9 -5 12 -74
12 -48 0 -90 -5 -93 -10z"/>
<path d="M5672 12107 c-22 -30 -62 -73 -89 -96 -26 -22 -43 -41 -36 -41 7 0
27 13 46 29 32 28 34 29 45 11 14 -23 33 -18 83 21 l37 28 6 -34 c9 -46 34
-37 33 13 -1 20 7 52 16 71 31 62 3 56 -65 -13 -35 -36 -70 -66 -76 -66 -14 0
-13 1 32 68 21 30 26 46 19 53 -8 8 -23 -5 -51 -44z"/>
<path d="M5924 12122 c-40 -36 -64 -71 -64 -91 0 -21 19 -10 39 22 11 19 32
46 46 61 21 23 28 26 40 16 20 -16 19 -41 -2 -85 -9 -19 -14 -38 -10 -41 12
-12 37 18 49 58 10 34 9 42 -9 66 -28 38 -42 37 -89 -6z"/>
<path d="M8602 12148 c-36 -46 -13 -103 37 -91 55 13 77 55 45 87 -19 19 -68
21 -82 4z m63 -38 c0 -15 -42 -33 -50 -20 -3 4 -2 15 1 24 7 18 49 15 49 -4z"/>
<path d="M14252 12139 c-50 -25 -81 -64 -64 -81 15 -15 76 -12 111 6 l29 15 6
-40 c5 -29 13 -43 31 -51 34 -15 41 -4 15 22 -18 18 -21 30 -17 60 4 32 1 41
-25 64 -36 31 -33 31 -86 5z m58 -28 c0 -8 -27 -21 -75 -35 -16 -5 -14 -1 8
19 27 24 67 34 67 16z"/>
<path d="M5448 12121 c-14 -15 -30 -43 -38 -60 -11 -28 -11 -34 3 -48 33 -34
95 12 99 74 1 16 6 31 11 34 15 11 -2 29 -28 29 -13 0 -33 -12 -47 -29z m39
-29 c-20 -45 -33 -62 -44 -62 -10 0 -8 10 7 40 12 23 25 38 31 35 5 -4 8 -9 6
-13z"/>
<path d="M11300 12120 c-36 -16 -73 -31 -82 -34 -10 -3 -18 -10 -18 -16 0 -15
47 -12 80 5 17 9 41 20 56 25 28 11 28 10 -18 -54 -28 -39 -37 -76 -19 -76 6
0 36 16 68 35 55 33 58 34 61 14 2 -11 9 -22 16 -25 21 -8 66 14 66 32 0 10 7
25 16 35 9 10 14 23 12 29 -6 18 -55 -26 -62 -55 -8 -31 -24 -33 -28 -2 -4 28
-40 34 -74 13 -31 -21 -30 -15 6 36 55 75 31 86 -80 38z"/>
<path d="M16073 12143 c-21 -4 -78 -66 -102 -111 -7 -13 -10 -31 -6 -40 6 -15
9 -14 26 7 10 13 19 29 19 35 0 7 15 29 34 49 31 34 49 42 85 38 7 -2 11 4 9
11 -5 14 -30 18 -65 11z"/>
<path d="M4395 12098 c-20 -53 -24 -100 -9 -105 7 -2 15 12 19 34 4 20 13 50
21 65 18 34 18 48 0 48 -8 0 -22 -19 -31 -42z"/>
<path d="M10204 12124 c-16 -9 -45 -27 -64 -42 l-35 -27 17 27 c19 29 8 48
-16 29 -7 -6 -21 -8 -31 -5 -14 6 -16 2 -14 -23 2 -17 -2 -37 -9 -45 -22 -28
-42 -87 -31 -93 11 -7 53 24 44 33 -5 5 46 48 114 95 l45 31 -22 -36 c-41 -66
-18 -106 53 -92 50 9 53 23 6 21 -22 0 -44 2 -48 6 -4 5 5 30 20 57 15 26 27
52 27 58 0 18 -27 21 -56 6z"/>
<path d="M11685 12130 c-21 -8 -95 -84 -95 -98 1 -29 52 -55 91 -47 57 13 72
53 48 124 -12 33 -13 34 -44 21z m20 -71 c0 -27 -5 -35 -27 -43 -19 -7 -31 -6
-43 4 -14 12 -13 17 17 47 39 40 53 38 53 -8z"/>
<path d="M11891 12104 c-27 -39 -94 -89 -141 -106 -17 -5 -30 -14 -30 -18 0
-21 24 -20 66 4 44 25 45 25 64 6 21 -21 38 -19 82 12 32 22 38 22 38 4 0 -37
22 -22 45 30 30 67 29 64 9 64 -8 0 -36 -17 -62 -39 -63 -52 -92 -67 -92 -47
0 8 11 25 24 38 32 31 58 73 49 81 -14 14 -29 6 -52 -29z"/>
<path d="M14866 12125 c-18 -48 3 -161 35 -180 17 -11 54 37 76 98 21 58 41
71 94 62 44 -8 52 6 14 23 -64 29 -98 9 -140 -81 l-33 -72 -12 30 c-6 17 -10
52 -8 79 3 49 -13 74 -26 41z"/>
<path d="M15184 12121 c-68 -42 -82 -97 -36 -148 37 -43 65 -50 92 -21 l21 23
-22 3 c-13 2 -25 -1 -27 -6 -5 -17 -39 -1 -51 24 -17 39 -14 52 12 47 14 -3
31 2 39 11 9 8 18 13 20 10 3 -2 13 5 23 17 15 15 17 24 9 37 -16 24 -44 25
-80 3z m56 -20 c0 -15 -42 -41 -65 -41 -18 1 -16 4 10 25 31 26 55 32 55 16z"/>
<path d="M15371 12114 c-43 -36 -54 -59 -41 -84 21 -39 55 -53 115 -45 72 9
71 23 -2 24 -44 0 -61 5 -77 21 l-21 21 34 31 c28 25 40 29 67 25 24 -4 34 -2
34 8 0 33 -69 33 -109 -1z"/>
<path d="M9920 12111 c-65 -11 -75 -95 -15 -123 29 -13 71 1 81 27 6 16 -16
106 -26 104 -3 -1 -21 -4 -40 -8z m24 -47 c22 -22 20 -41 -6 -50 -28 -9 -52
20 -37 47 12 23 23 24 43 3z"/>
<path d="M15854 12088 c-51 -34 -66 -66 -44 -94 15 -17 52 -18 68 -2 7 7 12
27 12 46 0 22 7 40 18 48 12 9 14 16 6 24 -8 8 -24 2 -60 -22z m6 -53 c0 -16
-6 -25 -15 -25 -18 0 -20 21 -3 38 17 17 18 16 18 -13z"/>
<path d="M9719 12068 c-18 -68 -20 -88 -10 -88 16 0 31 34 37 85 9 59 -11 61
-27 3z"/>
<path d="M8477 12063 c-4 -3 -7 -10 -7 -14 0 -9 39 1 46 12 6 10 -29 12 -39 2z"/>
<path d="M17500 12004 c-6 -14 -10 -29 -10 -33 0 -9 -99 -153 -156 -228 -20
-26 -44 -63 -52 -80 -9 -20 -23 -33 -34 -33 -10 0 -18 -4 -18 -10 0 -5 5 -10
10 -10 6 0 10 -13 10 -29 0 -39 20 -54 59 -44 38 10 36 28 -2 24 -25 -2 -28 0
-25 21 3 20 11 24 63 33 34 6 55 14 48 18 -6 4 -31 4 -53 1 l-42 -7 17 34 c10
19 32 52 50 74 89 112 175 252 175 286 0 20 -31 7 -40 -17z"/>
<path d="M2192 11933 c-32 -32 -68 -79 -80 -104 -25 -52 -52 -165 -52 -221 0
-20 -6 -39 -12 -41 -9 -4 -10 -8 -2 -14 16 -13 -1 -169 -26 -237 -12 -32 -31
-67 -41 -77 -24 -24 -24 -29 1 -29 41 0 87 116 99 251 5 49 11 92 14 95 3 4
31 2 62 -3 30 -6 58 -7 60 -3 7 11 -53 34 -91 34 -31 1 -34 4 -34 31 0 50 27
161 49 201 24 45 91 123 91 106 0 -23 16 -12 30 21 7 17 15 35 18 40 2 4 -3 7
-12 7 -8 0 -42 -26 -74 -57z"/>
<path d="M8165 11913 c-4 -21 -20 -80 -36 -130 l-30 -93 -49 0 c-28 0 -50 -4
-50 -10 0 -5 20 -10 45 -10 l45 0 -26 -57 c-37 -84 -62 -156 -57 -170 7 -20
21 -15 28 10 4 12 25 68 48 125 36 90 44 102 62 98 11 -3 26 -1 33 3 10 6 5
10 -16 14 l-30 6 34 107 c19 58 34 113 32 122 -6 31 -26 22 -33 -15z"/>
<path d="M7351 11900 c-57 -26 -180 -151 -210 -213 -44 -91 -15 -181 66 -208
44 -14 217 -3 255 17 15 8 30 14 33 14 20 -1 25 1 25 11 0 5 -4 8 -9 5 -31
-19 -242 -25 -292 -8 -91 31 -74 153 37 267 68 69 127 105 173 105 56 0 60 -6
34 -57 -27 -55 -29 -79 -7 -87 34 -13 89 65 78 109 -16 63 -99 83 -183 45z
m147 -85 c-6 -14 -13 -23 -15 -21 -5 5 15 46 22 46 3 0 -1 -11 -7 -25z"/>
<path d="M12910 11853 c-12 -27 -55 -97 -94 -157 l-71 -108 -7 43 c-3 24 -7
66 -7 92 -1 56 -26 117 -48 117 -8 0 -12 -6 -9 -12 15 -37 26 -93 34 -178 l10
-94 -102 -130 c-136 -174 -176 -236 -176 -268 0 -38 16 -35 30 5 13 39 46 85
211 299 212 275 309 438 260 438 -4 0 -18 -21 -31 -47z"/>
<path d="M6345 11860 c-9 -15 2 -25 28 -25 30 0 27 -20 -29 -192 -36 -111 -50
-142 -66 -146 -11 -3 -18 -12 -16 -19 4 -9 30 -13 99 -13 80 0 101 4 143 25
68 34 89 66 94 143 8 123 -70 216 -195 233 -34 4 -53 2 -58 -6z m164 -74 c61
-57 79 -145 43 -216 -21 -44 -101 -79 -179 -80 l-52 0 19 45 c11 25 34 94 50
153 17 59 34 115 36 125 7 24 39 14 83 -27z"/>
<path d="M4065 11849 c-27 -5 -71 -6 -97 -3 -38 5 -48 3 -48 -9 0 -22 49 -26
235 -17 117 6 174 5 183 -2 9 -8 16 -8 23 -1 7 7 4 16 -12 27 -18 12 -47 16
-129 15 -58 -1 -127 -5 -155 -10z"/>
<path d="M2666 11833 c-5 -18 -76 -369 -76 -378 0 -3 7 -5 15 -5 8 0 15 2 15
5 0 31 73 361 82 366 13 8 2 29 -17 29 -7 0 -16 -8 -19 -17z"/>
<path d="M6228 11845 c-3 -3 -60 -7 -128 -9 -118 -4 -156 -14 -134 -35 5 -6
26 -6 54 0 25 6 61 7 80 4 l35 -7 -63 -29 c-35 -16 -61 -33 -58 -37 3 -5 27
-15 53 -21 67 -17 93 -44 93 -96 0 -27 -6 -47 -17 -57 -46 -40 -163 -50 -223
-20 -47 23 -50 52 -9 86 37 32 34 40 -9 25 -33 -11 -62 -47 -62 -78 0 -71 158
-117 258 -75 64 26 92 61 92 113 0 61 -28 105 -76 121 l-38 13 75 29 c77 31
112 54 103 69 -6 10 -18 12 -26 4z"/>
<path d="M14651 11819 c-6 -17 -8 -35 -5 -40 3 -5 -2 -12 -11 -15 -10 -4 -14
-13 -10 -22 3 -9 3 -13 -1 -9 -15 14 -113 -215 -114 -265 0 -32 28 -19 34 16
8 43 44 130 101 248 25 51 45 98 45 105 0 26 -28 12 -39 -18z"/>
<path d="M14486 11782 c-49 -97 -126 -286 -126 -309 0 -34 17 -28 26 9 3 18
13 42 20 53 7 11 25 52 39 90 15 39 37 88 49 110 24 41 41 105 28 105 -4 0
-20 -26 -36 -58z"/>
<path d="M15459 11838 c0 -2 -1 -19 -3 -38 -1 -19 -13 -57 -25 -85 -34 -74
-71 -185 -71 -212 0 -40 18 -25 35 30 10 28 35 98 58 154 28 71 38 109 33 127
-3 14 -11 26 -16 26 -6 0 -10 -1 -11 -2z"/>
<path d="M16842 11783 c-25 -121 -126 -273 -180 -273 -33 0 -26 24 19 65 41
37 47 55 11 36 -36 -19 -73 -72 -70 -100 2 -21 9 -27 35 -29 63 -6 156 106
198 241 28 88 31 117 12 117 -8 0 -18 -23 -25 -57z"/>
<path d="M2894 11714 l-30 -107 -34 -4 c-48 -5 -80 -38 -80 -83 0 -20 6 -45
14 -55 13 -18 15 -18 40 -2 34 22 78 93 81 129 1 15 7 33 13 40 5 7 18 42 27
78 9 36 21 70 27 77 11 14 2 33 -16 33 -7 0 -24 -44 -42 -106z m-44 -142 c0
-14 -51 -82 -61 -82 -6 0 -9 15 -7 32 2 23 11 36 28 45 29 15 40 16 40 5z"/>
<path d="M4066 11758 c-3 -7 -7 -38 -11 -68 -3 -30 -18 -94 -33 -142 -29 -93
-34 -98 -103 -98 -20 0 -42 -7 -49 -15 -11 -13 -7 -15 26 -15 22 0 77 5 124
11 47 5 104 12 128 15 71 9 47 24 -39 24 -65 0 -80 3 -76 14 42 109 69 267 48
280 -6 4 -13 1 -15 -6z"/>
<path d="M8805 11730 c-3 -6 1 -13 10 -16 19 -8 30 0 20 15 -8 14 -22 14 -30
1z"/>
<path d="M14330 11716 c0 -16 27 -29 42 -20 5 3 1 12 -9 20 -23 17 -33 17 -33
0z"/>
<path d="M16095 11693 c-16 -8 -37 -22 -46 -29 -9 -8 -23 -12 -30 -9 -9 3 -24
-7 -39 -27 -13 -18 -32 -39 -42 -46 -18 -13 -25 -52 -9 -52 5 0 15 7 22 16 17
20 117 97 147 113 23 12 23 12 11 -11 -6 -13 -25 -42 -40 -65 -31 -45 -36 -63
-16 -63 16 0 120 167 112 180 -9 14 -35 12 -70 -7z"/>
<path d="M10121 11683 c-19 -16 -20 -22 -11 -53 15 -52 12 -95 -8 -121 -25
-30 -55 -20 -51 18 4 37 -14 43 -26 9 -7 -20 -5 -34 6 -54 22 -40 51 -39 88 3
33 38 40 80 22 143 -9 29 -8 32 16 38 18 5 30 2 38 -10 16 -21 25 -20 25 2 0
42 -60 57 -99 25z"/>
<path d="M16281 11655 c-26 -25 -54 -45 -61 -45 -7 0 -10 -7 -6 -16 3 -8 1
-24 -5 -35 -13 -25 -3 -56 23 -70 14 -8 33 -7 69 1 63 15 64 33 1 24 -37 -5
-51 -2 -61 9 -18 23 2 54 46 72 50 21 73 43 73 70 0 41 -28 37 -79 -10z"/>
<path d="M2297 11684 c-12 -12 4 -24 30 -24 21 0 24 2 13 15 -13 16 -32 20
-43 9z"/>
<path d="M13973 11655 c-52 -35 -69 -52 -60 -61 5 -5 34 9 95 47 l32 21 -9
-24 c-5 -12 -25 -47 -44 -77 -20 -30 -34 -58 -31 -63 9 -14 33 -9 52 10 10 10
34 28 55 41 l37 23 0 -36 c0 -40 21 -57 49 -39 21 13 100 126 95 135 -10 15
-33 -5 -69 -59 -20 -30 -39 -52 -43 -49 -3 4 -5 22 -4 42 3 46 -19 54 -62 20
-19 -14 -37 -26 -39 -26 -3 0 7 22 21 49 22 41 24 51 13 65 -19 23 -30 20 -88
-19z"/>
<path d="M10358 11640 c-22 -22 -43 -40 -47 -40 -17 -1 -51 -41 -57 -66 -10
-40 -64 -153 -91 -190 -28 -37 -34 -79 -13 -79 9 0 37 43 70 109 l56 110 40 1
c71 2 113 44 128 126 14 79 -24 91 -86 29z m56 -17 c-12 -57 -28 -84 -55 -98
-29 -16 -59 -20 -59 -8 0 11 82 113 99 123 22 13 22 13 15 -17z"/>
<path d="M16509 11660 c-82 -43 -142 -143 -107 -178 13 -13 80 -16 92 -4 8 7
13 8 41 11 8 0 15 5 15 11 0 5 -26 7 -65 3 -60 -5 -65 -4 -65 14 0 28 71 106
110 120 l33 12 -22 -23 c-12 -13 -38 -32 -57 -42 -33 -18 -44 -34 -24 -34 26
0 112 53 122 75 24 53 -9 69 -73 35z"/>
<path d="M8294 11625 c-48 -49 -74 -116 -57 -143 5 -10 22 -23 36 -30 22 -10
32 -10 62 2 19 8 35 20 35 25 0 14 -3 14 -32 0 -35 -16 -80 4 -76 34 2 14 10
22 24 23 30 2 73 33 90 65 17 35 17 34 -2 53 -23 24 -33 20 -80 -29z m66 6 c0
-11 -61 -71 -73 -71 -10 0 1 17 37 58 20 23 36 29 36 13z"/>
<path d="M9210 11654 c-14 -10 -44 -35 -67 -57 l-42 -40 11 42 c6 23 8 44 5
47 -12 12 -25 -7 -36 -52 -7 -26 -19 -56 -27 -68 -16 -24 -18 -46 -4 -46 6 0
30 19 53 42 55 54 138 120 145 114 2 -3 -3 -34 -13 -70 -17 -62 -15 -103 4
-92 4 3 11 20 15 38 3 18 12 56 20 83 7 28 11 56 9 63 -7 17 -44 15 -73 -4z"/>
<path d="M11830 11661 c0 -5 4 -21 9 -35 7 -16 7 -26 -1 -28 -5 -2 -12 -15
-13 -28 -2 -14 -8 -45 -15 -69 -13 -49 -2 -74 23 -50 8 8 55 34 105 59 108 52
120 75 46 86 -30 4 -59 18 -85 40 -40 33 -69 44 -69 25z m44 -71 c-6 -6 -10
-2 -11 12 -2 16 1 18 10 9 7 -7 8 -14 1 -21z m59 -17 c-7 -2 -19 -2 -25 0 -7
3 -2 5 12 5 14 0 19 -2 13 -5z m-23 -43 c-20 -13 -33 -13 -25 0 3 6 14 10 23
10 15 0 15 -2 2 -10z"/>
<path d="M4287 11653 c-4 -3 -7 -13 -7 -22 0 -9 -11 -40 -25 -68 -13 -29 -20
-55 -15 -58 5 -3 23 9 42 26 40 37 91 61 113 53 13 -5 15 -15 9 -49 -4 -28 -2
-45 6 -50 16 -10 17 -7 25 52 6 48 5 53 -20 69 -25 16 -30 16 -70 2 l-43 -16
5 34 c5 31 -4 44 -20 27z"/>
<path d="M8530 11649 c-13 -6 -28 -15 -32 -22 -11 -16 -1 -55 23 -88 19 -28
19 -28 -2 -48 -25 -23 -53 -12 -42 16 4 11 2 14 -8 11 -8 -2 -15 -17 -17 -31
-3 -21 2 -29 23 -37 31 -12 58 -1 80 34 17 26 13 45 -19 89 -21 28 -21 29 -2
43 11 8 39 14 63 14 43 0 57 12 27 24 -22 9 -65 6 -94 -5z"/>
<path d="M11022 11640 c-39 -24 -72 -75 -72 -113 0 -17 10 -38 26 -54 23 -23
31 -25 74 -20 54 6 129 40 113 50 -6 4 -33 0 -59 -8 -27 -8 -60 -15 -74 -15
-51 0 -70 53 -24 64 14 4 43 19 65 33 32 21 39 32 37 52 -4 34 -41 39 -86 11z
m56 -22 c-6 -17 -67 -58 -85 -58 -26 0 53 69 80 70 5 0 7 -6 5 -12z m52 -132
c0 -2 -7 -7 -16 -10 -8 -3 -12 -2 -9 4 6 10 25 14 25 6z"/>
<path d="M15175 11649 c-37 -21 -115 -103 -115 -121 0 -10 2 -18 4 -18 3 0 31
27 64 60 77 76 100 80 66 10 -26 -53 -30 -80 -14 -80 14 0 50 84 53 124 2 24
-2 31 -18 33 -11 2 -29 -2 -40 -8z"/>
<path d="M15598 11618 c-18 -24 -36 -44 -40 -46 -15 -7 -170 -224 -185 -260
-24 -57 -32 -91 -24 -97 5 -2 17 12 27 33 10 20 79 119 152 220 72 100 132
185 132 187 0 3 -6 5 -14 5 -8 0 -29 -19 -48 -42z"/>
<path d="M17477 11638 c-34 -25 -48 -57 -35 -80 10 -21 19 -22 71 -7 38 10 77
40 77 59 0 18 -40 50 -62 50 -13 0 -36 -10 -51 -22z m73 -20 c0 -24 -15 -35
-53 -42 -36 -7 -38 -6 -28 12 11 22 41 37 41 22 0 -6 5 -10 10 -10 6 0 10 7
10 15 0 8 5 15 10 15 6 0 10 -6 10 -12z"/>
<path d="M5135 11632 c-57 -36 -96 -101 -72 -120 20 -16 72 -6 113 22 l39 26
3 -27 c4 -33 19 -53 39 -53 9 0 11 5 6 13 -4 6 -10 35 -13 62 -4 41 -8 49 -23
47 -9 -2 -27 9 -40 23 l-22 25 -30 -18z m43 -48 c-3 -17 -68 -58 -77 -49 -7 8
51 65 67 65 7 0 12 -7 10 -16z"/>
<path d="M7623 11635 c-12 -8 -31 -31 -43 -50 -21 -34 -21 -37 -5 -55 21 -24
53 -26 82 -5 19 14 21 13 27 -17 7 -34 18 -31 23 5 2 12 8 34 14 49 9 21 8 31
-2 42 -8 9 -20 22 -27 31 -16 19 -42 19 -69 0z m61 -33 c6 -11 -4 -25 -34 -45
-34 -24 -54 -23 -40 2 22 42 61 64 74 43z"/>
<path d="M10823 11634 c-32 -16 -93 -95 -93 -121 0 -28 40 -54 77 -51 48 4 53
22 6 25 -32 2 -52 15 -53 35 0 5 16 26 36 48 20 21 33 44 29 50 -3 5 -1 10 4
10 6 0 11 -4 11 -9 0 -4 11 -6 25 -3 28 5 33 17 9 26 -19 7 -13 9 -51 -10z"/>
<path d="M14980 11639 c-38 -15 -90 -70 -90 -96 0 -47 71 -57 120 -16 26 22
31 32 28 59 -2 19 0 35 6 37 15 5 -3 27 -22 26 -9 0 -28 -5 -42 -10z m30 -54
c0 -27 -34 -55 -67 -55 -34 0 -28 24 14 59 40 33 53 32 53 -4z"/>
<path d="M2425 11619 c-14 -12 -24 -28 -21 -35 3 -8 2 -14 -3 -14 -31 0 -10
-119 21 -121 60 -5 98 3 98 20 0 7 -9 7 -22 2 -31 -11 -78 6 -78 29 0 10 9 21
20 25 10 3 31 20 45 37 20 24 23 33 14 45 -26 30 -46 33 -74 12z m40 -55 c-43
-33 -53 -35 -48 -11 3 12 13 30 21 40 14 16 17 16 31 2 15 -15 14 -18 -4 -31z"/>
<path d="M7838 11619 c-38 -28 -68 -81 -61 -107 8 -33 16 -27 44 30 29 62 61
79 111 60 39 -14 47 -8 23 18 -24 26 -81 26 -117 -1z"/>
<path d="M8726 11594 c-30 -54 -34 -89 -10 -80 9 3 18 6 20 6 3 0 3 4 0 9 -3
5 5 29 19 53 29 50 30 58 11 58 -8 0 -26 -21 -40 -46z"/>
<path d="M10580 11610 c-36 -39 -47 -75 -29 -96 12 -14 31 -14 71 1 9 4 19 -4
26 -20 18 -38 27 -30 29 25 0 28 -3 50 -7 50 -4 0 -7 15 -6 33 1 28 -2 32 -27
35 -21 3 -35 -5 -57 -28z m67 -22 c-2 -20 -46 -56 -69 -58 -16 0 -7 26 17 53
32 33 56 36 52 5z"/>
<path d="M13157 11583 c-34 -32 -77 -70 -95 -85 -60 -50 -33 -53 37 -4 46 33
49 34 54 14 6 -23 29 -19 84 12 l32 19 3 -27 c2 -22 9 -28 36 -30 32 -3 62 11
62 29 0 4 -16 5 -37 2 l-36 -6 6 36 c3 20 1 39 -4 43 -5 3 -30 -8 -56 -25 -63
-42 -71 -39 -34 11 32 43 39 68 21 68 -6 0 -39 -26 -73 -57z"/>
<path d="M8871 11585 c-54 -51 -67 -78 -44 -97 13 -10 24 -8 66 16 44 24 51
26 59 12 17 -30 33 -17 35 29 1 33 -2 45 -13 45 -8 0 -14 4 -14 10 0 5 -9 14
-20 20 -17 9 -27 4 -69 -35z m63 -10 c-7 -17 -72 -60 -80 -52 -6 5 66 67 78
67 4 0 5 -7 2 -15z"/>
<path d="M12961 11621 c-13 -4 -29 -15 -35 -25 -6 -10 -21 -29 -33 -41 -25
-26 -38 -67 -29 -90 15 -41 131 9 160 70 13 26 14 40 6 55 -14 27 -40 38 -69
31z m47 -49 c6 -18 -74 -92 -98 -92 -23 0 -24 3 -9 33 30 60 95 95 107 59z"/>
<path d="M15466 11573 c8 -56 12 -65 25 -58 13 9 10 67 -5 88 -22 28 -28 20
-20 -30z"/>
<path d="M14292 11583 c-5 -16 -13 -36 -17 -45 -5 -14 -2 -18 13 -18 12 0 22
8 25 23 3 12 9 32 12 45 11 33 -21 29 -33 -5z"/>
<path d="M11563 11583 c-13 -2 -23 -11 -23 -20 0 -11 5 -13 18 -7 9 4 65 10
125 12 59 2 107 7 107 11 0 8 -192 11 -227 4z"/>
<path d="M2262 11533 c-6 -27 -14 -56 -17 -65 -4 -10 -3 -18 4 -18 10 0 41 88
41 117 0 31 -17 9 -28 -34z"/>
<path d="M16025 11559 c-11 -16 -1 -19 13 -3 7 8 8 14 3 14 -5 0 -13 -5 -16
-11z"/>
<path d="M1990 11550 c-8 -5 -12 -12 -8 -15 9 -9 48 4 48 16 0 12 -21 11 -40
-1z"/>
<path d="M2985 11469 c-12 -19 5 -23 22 -6 16 16 16 17 1 17 -9 0 -20 -5 -23
-11z"/>
<path d="M9402 11424 c-106 -53 -172 -156 -188 -296 l-7 -58 -83 0 c-46 0 -84
-4 -84 -9 0 -15 30 -21 93 -20 32 1 60 -1 63 -3 9 -10 -36 -161 -61 -204 -30
-50 -57 -68 -91 -60 -34 9 -30 -9 6 -24 25 -10 34 -10 55 4 44 29 118 171 131
254 5 30 11 42 23 42 10 0 26 7 37 15 19 15 19 16 -1 14 -53 -4 -55 7 -27 117
30 111 77 172 163 208 29 12 35 12 46 -3 11 -14 12 -14 13 5 0 19 -17 44 -30
44 -3 0 -29 -12 -58 -26z"/>
<path d="M4457 11318 c-3 -24 -22 -94 -42 -157 -26 -83 -33 -117 -25 -125 8
-8 15 -6 25 8 28 38 67 78 71 73 2 -2 -1 -28 -7 -56 -6 -29 -8 -55 -5 -59 12
-12 26 15 37 72 10 47 10 60 -2 71 -12 13 -18 13 -42 0 -27 -14 -27 -13 -21
13 4 15 13 44 20 65 7 21 16 60 20 87 5 41 4 50 -8 50 -10 0 -17 -14 -21 -42z"/>
<path d="M12634 11333 c-11 -16 -30 -53 -41 -83 -12 -30 -33 -82 -47 -115
l-25 -60 -50 -3 c-28 -2 -51 -7 -51 -11 0 -10 35 -21 69 -21 23 0 23 -2 17
-51 -6 -45 -5 -50 11 -47 10 2 18 13 19 24 3 51 15 74 42 79 15 4 47 11 72 18
48 12 55 14 70 16 6 0 10 6 10 12 0 7 -10 9 -27 4 -15 -3 -52 -9 -82 -12 -43
-4 -53 -2 -49 8 3 8 11 32 18 54 41 124 55 158 72 168 21 14 24 47 5 47 -7 0
-22 -12 -33 -27z"/>
<path d="M2490 11310 c-6 -22 -8 -45 -5 -50 3 -5 -1 -20 -9 -32 -8 -13 -18
-45 -21 -71 -4 -26 -14 -54 -21 -62 -15 -15 -19 -39 -5 -31 5 3 3 -22 -5 -57
-12 -59 -10 -107 5 -107 8 0 35 150 29 163 -4 10 49 37 73 37 37 0 40 -32 13
-129 -10 -35 -12 -57 -6 -63 13 -13 26 12 41 78 19 81 17 114 -8 133 -22 17
-22 17 44 75 63 55 77 76 54 76 -17 0 -84 -62 -81 -74 2 -6 0 -8 -3 -4 -4 4
-27 -8 -50 -27 -49 -41 -51 -41 -58 -15 -3 11 -2 18 2 15 8 -4 41 133 41 168
0 32 -19 17 -30 -23z"/>
<path d="M4306 11342 c-2 -4 -8 -36 -12 -70 -8 -73 -19 -87 -77 -103 -23 -6
-48 -13 -54 -15 -7 -2 -13 -8 -13 -14 0 -14 53 -13 85 2 14 6 27 9 29 7 2 -2
-2 -33 -10 -69 -16 -76 -17 -90 -6 -90 11 0 32 45 32 69 0 9 7 40 15 68 14 46
18 51 50 57 43 8 46 26 4 26 l-31 0 7 70 c5 46 4 70 -3 70 -6 0 -13 -4 -16 -8z"/>
<path d="M7847 11332 c-18 -19 -37 -120 -37 -197 -1 -81 -56 -176 -94 -162
-27 11 12 83 51 98 26 10 22 29 -6 29 -40 0 -96 -96 -80 -137 14 -38 60 -31
102 16 41 46 52 77 72 220 8 57 20 110 26 117 11 13 5 34 -10 34 -4 0 -15 -8
-24 -18z"/>
<path d="M11031 11318 c-5 -15 -4 -26 2 -30 17 -10 27 0 27 28 0 30 -18 31
-29 2z"/>
<path d="M11023 11268 c-20 -32 -42 -122 -32 -134 6 -8 6 -14 0 -18 -5 -3 -12
0 -14 6 -4 10 -6 10 -6 0 -1 -8 -15 -47 -31 -89 -17 -41 -27 -80 -23 -85 3 -7
33 17 70 57 35 37 66 65 70 62 3 -4 -2 -31 -12 -62 -16 -52 -15 -85 2 -85 9 0
32 80 40 139 9 56 -28 60 -84 8 -27 -24 -28 -19 -9 28 8 19 13 35 10 35 -3 0
-1 8 5 18 31 59 44 166 14 120z"/>
<path d="M8505 11215 c-5 -2 -36 -11 -67 -20 -37 -10 -58 -21 -58 -30 0 -16
40 -21 56 -6 14 12 104 35 111 27 8 -8 11 -6 -89 -60 -47 -26 -106 -64 -130
-86 -42 -38 -42 -40 -24 -55 11 -8 27 -13 35 -11 43 13 169 17 175 7 10 -16
36 -13 36 4 0 28 -49 37 -138 28 l-84 -9 34 27 c18 16 72 49 121 74 86 46 114
73 103 101 -5 13 -54 18 -81 9z"/>
<path d="M4647 11183 c-69 -53 -101 -168 -58 -207 29 -27 134 -27 167 0 18 14
14 15 -46 11 -88 -6 -110 4 -110 45 0 44 8 54 53 62 66 12 97 64 61 100 -21
21 -25 21 -67 -11z m53 -20 c0 -4 -10 -17 -22 -30 -22 -24 -52 -30 -63 -13 -3
6 0 10 8 10 8 0 22 9 32 20 17 19 45 27 45 13z"/>
<path d="M5434 11196 c-16 -12 -17 -17 -5 -28 11 -10 14 -10 18 0 8 20 41 14
58 -12 19 -29 12 -51 -33 -98 -36 -38 -68 -48 -90 -26 -9 9 -13 7 -18 -5 -3
-9 -3 -21 1 -28 10 -16 103 -4 125 16 16 15 18 14 23 -6 6 -21 9 -21 79 -15
78 8 88 11 88 28 0 7 -22 9 -70 4 -82 -7 -86 -1 -41 60 34 47 87 94 107 94 19
0 18 16 -2 24 -23 9 -21 10 -80 -46 -30 -28 -52 -44 -49 -36 8 20 -19 73 -40
82 -26 10 -50 7 -71 -8z"/>
<path d="M6775 11105 c-32 -58 -64 -104 -70 -102 -10 4 -25 40 -45 115 -6 24
-18 46 -26 49 -23 9 -26 -2 -10 -38 8 -19 19 -53 26 -77 6 -24 19 -51 30 -62
17 -17 17 -20 -29 -76 -108 -135 -172 -247 -156 -274 10 -16 25 -12 25 8 0 9
32 62 70 116 39 55 70 103 70 106 0 3 18 30 40 59 46 61 144 225 154 259 5 15
3 22 -6 22 -7 0 -40 -48 -73 -105z"/>
<path d="M3382 11158 c-7 -7 -12 -16 -12 -21 0 -16 -30 -111 -40 -127 -7 -12
-13 -9 -30 13 -23 29 -66 36 -89 15 -16 -15 -15 -11 13 54 13 31 14 38 1 48
-19 16 -57 6 -92 -24 -26 -22 -26 -25 -9 -32 10 -4 21 -2 25 3 7 12 51 36 51
28 0 -3 -13 -32 -30 -65 -16 -33 -30 -64 -30 -70 0 -17 23 -11 62 15 49 33 66
32 83 -9 20 -47 30 -51 54 -20 17 22 71 171 71 197 0 11 -15 8 -28 -5z"/>
<path d="M13022 11150 c-42 -19 -88 -68 -109 -117 -18 -43 -17 -60 5 -72 23
-12 37 -3 46 32 8 33 -7 36 -22 5 -7 -16 -11 -18 -11 -7 -1 21 55 104 82 121
38 25 54 27 82 12 33 -17 41 -13 26 14 -15 27 -54 32 -99 12z"/>
<path d="M7285 11116 c-44 -44 -63 -85 -50 -105 11 -19 69 -12 107 14 20 14
39 25 42 25 3 0 -2 -16 -10 -36 -17 -40 -5 -69 18 -46 7 7 9 12 5 12 -3 0 3
21 13 46 37 85 25 92 -62 38 -75 -46 -98 -43 -63 7 37 51 68 66 107 51 39 -14
47 -8 23 18 -32 35 -79 27 -130 -24z"/>
<path d="M10269 11107 c-48 -26 -89 -77 -89 -112 0 -55 71 -96 106 -61 18 19
3 29 -30 20 -18 -4 -27 -1 -35 14 -18 33 -13 42 22 42 65 0 137 69 107 105
-17 20 -29 19 -81 -8z m65 -15 c11 -18 -49 -62 -84 -62 -32 0 -24 17 23 44 46
28 53 30 61 18z"/>
<path d="M11635 11065 c-8 -69 6 -125 30 -125 23 0 63 40 85 84 23 48 42 57
98 50 l37 -5 -24 20 c-41 37 -110 20 -129 -32 -15 -41 -50 -80 -64 -71 -7 4
-8 31 -4 75 6 57 5 69 -8 69 -10 0 -16 -17 -21 -65z"/>
<path d="M11994 11111 c-54 -33 -75 -69 -72 -120 3 -42 6 -48 39 -64 31 -15
43 -16 88 -5 66 15 66 30 -1 27 -78 -4 -98 5 -98 47 0 38 39 88 79 99 33 10
23 -14 -17 -40 -33 -21 -41 -35 -19 -35 21 0 86 53 87 71 0 19 -19 39 -39 39
-9 0 -30 -9 -47 -19z"/>
<path d="M7553 11105 c-12 -8 -27 -13 -35 -10 -21 8 -64 -100 -45 -112 6 -3
13 -1 15 7 6 17 72 90 82 90 4 0 5 -11 2 -25 -5 -30 6 -78 17 -71 15 10 23
119 9 128 -18 11 -20 10 -45 -7z m-38 -55 c3 -5 1 -10 -4 -10 -6 0 -11 5 -11
10 0 6 2 10 4 10 3 0 8 -4 11 -10z"/>
<path d="M2943 11066 c-62 -81 -65 -136 -8 -136 40 0 75 37 75 78 0 20 -4 44
-10 52 -6 9 -5 17 3 22 9 6 8 10 -3 18 -21 14 -22 14 -57 -34z m37 -57 c0 -22
-7 -32 -25 -41 -36 -16 -40 -5 -14 41 25 45 39 45 39 0z"/>
<path d="M9494 11091 c-29 -17 -41 -40 -68 -121 -2 -8 -5 -3 -5 11 -1 29 -24
54 -40 44 -7 -4 -7 -12 1 -24 17 -28 4 -47 -38 -54 -62 -10 -70 3 -32 51 18
22 41 41 51 41 27 1 20 21 -8 21 -15 0 -38 -14 -59 -36 -48 -50 -54 -73 -25
-96 26 -22 86 -17 127 8 12 8 22 10 22 4 0 -5 7 -10 15 -10 8 0 19 17 26 43
27 101 62 127 109 82 36 -35 46 -18 14 23 -29 37 -47 39 -90 13z"/>
<path d="M10720 11088 c-19 -13 -44 -40 -55 -61 -18 -34 -19 -39 -5 -64 13
-23 24 -29 60 -31 45 -3 120 15 120 29 0 4 -33 5 -73 2 -63 -5 -75 -3 -80 11
-16 42 54 113 100 101 20 -5 24 -2 21 12 -5 27 -49 27 -88 1z"/>
<path d="M12199 11095 c-32 -18 -52 -66 -39 -99 15 -40 130 -69 138 -35 2 13
-8 17 -49 21 -45 5 -68 18 -69 40 0 4 11 20 24 35 23 26 26 27 57 16 41 -16
51 -7 20 18 -27 22 -47 23 -82 4z"/>
<path d="M2775 11091 c-3 -6 -17 -8 -32 -5 -22 6 -24 4 -19 -12 3 -11 -3 -36
-14 -57 -19 -35 -19 -57 -1 -57 4 0 22 22 40 50 38 59 47 66 67 49 19 -16 31
-3 18 19 -13 20 -49 28 -59 13z"/>
<path d="M10435 11072 c-17 -10 -39 -35 -50 -55 -18 -35 -18 -37 -1 -56 21
-23 44 -21 109 9 37 18 37 18 37 -4 0 -22 17 -46 32 -46 5 0 6 15 3 34 -5 22
-1 44 9 64 30 58 15 97 -18 47 -9 -14 -13 -25 -9 -25 4 0 -3 -7 -16 -16 -37
-26 -119 -55 -126 -44 -10 16 65 90 91 90 13 0 24 5 24 10 0 16 -53 11 -85 -8z"/>
<path d="M12762 11058 c2 -6 -9 -23 -24 -37 -58 -53 -39 -111 36 -111 92 0
113 58 44 122 -41 38 -63 48 -56 26z m52 -58 c10 -7 16 -23 14 -34 -3 -18 -10
-21 -47 -21 -52 0 -59 12 -31 47 22 28 38 30 64 8z"/>
<path d="M5675 11050 c-4 -6 5 -10 19 -10 14 0 26 5 26 10 0 6 -9 10 -19 10
-11 0 -23 -4 -26 -10z"/>
<path d="M2807 11043 c-13 -20 -11 -93 2 -93 14 0 25 80 13 92 -5 5 -12 6 -15
1z"/>
<path d="M6052 10946 c-13 -18 -43 -53 -68 -76 -34 -31 -43 -45 -34 -54 8 -8
29 8 80 60 66 67 86 104 58 104 -7 0 -23 -15 -36 -34z"/>
<path d="M13105 10950 c-11 -18 5 -30 25 -18 10 7 16 16 14 20 -7 11 -32 10
-39 -2z"/>
<path d="M11525 10624 c-75 -39 -151 -147 -256 -367 -35 -73 -45 -86 -60 -82
-21 7 -26 -13 -6 -21 11 -4 6 -24 -20 -90 -40 -100 -49 -138 -31 -132 6 2 26
40 43 84 46 116 51 124 85 124 17 0 30 5 30 10 0 6 -11 10 -25 10 -14 0 -25 3
-25 6 0 3 34 72 75 153 111 220 184 300 261 288 24 -4 34 -2 34 8 0 28 -59 33
-105 9z"/>
<path d="M11605 10580 c3 -5 8 -10 11 -10 2 0 4 5 4 10 0 6 -5 10 -11 10 -5 0
-7 -4 -4 -10z"/>
<path d="M2906 10488 c-30 -67 -74 -185 -96 -253 -13 -38 -38 -110 -57 -159
-31 -82 -34 -116 -8 -98 6 4 18 30 27 57 59 179 112 323 137 373 l30 57 -2
-150 c-2 -147 -2 -150 20 -153 17 -3 29 10 61 65 22 37 47 77 56 88 15 20 15
20 16 0 0 -43 -22 -191 -41 -271 -14 -59 -17 -90 -10 -102 12 -21 13 -18 41
103 31 134 47 309 31 329 -19 22 -30 11 -92 -90 -29 -46 -54 -84 -57 -84 -3 0
-2 60 2 133 7 138 -1 187 -31 187 -7 0 -20 -15 -27 -32z"/>
<path d="M4907 10393 c-9 -38 -22 -99 -28 -138 -5 -38 -15 -89 -20 -111 l-11
-42 -72 -7 c-75 -7 -103 -16 -93 -32 3 -5 34 -5 76 1 39 5 73 7 76 5 2 -3 -3
-44 -12 -92 -9 -48 -13 -90 -9 -94 12 -12 23 15 40 101 10 51 23 86 33 94 13
9 14 15 6 20 -11 7 -4 60 33 237 8 39 17 82 21 98 4 19 1 27 -9 27 -9 0 -20
-24 -31 -67z"/>
<path d="M17482 10388 c-11 -29 -41 -96 -66 -149 -40 -86 -47 -96 -68 -92 -28
5 -78 -12 -78 -28 0 -7 13 -9 40 -4 22 4 40 4 40 1 0 -3 -17 -39 -37 -81 -27
-54 -34 -78 -26 -86 8 -8 24 15 59 84 l48 95 46 7 c75 10 100 16 100 25 0 5
-29 7 -65 5 l-64 -3 28 57 c41 80 81 181 81 203 0 34 -19 18 -38 -34z"/>
<path d="M2270 10331 c-31 -88 -33 -90 -68 -96 -21 -3 -53 -1 -72 5 -51 15
-72 13 -68 -7 2 -11 27 -23 80 -37 l77 -21 -28 -67 c-16 -37 -38 -79 -50 -94
-24 -30 -27 -54 -9 -72 22 -22 37 -13 44 26 4 27 22 53 62 94 l55 57 18 -51
c24 -71 61 -99 73 -55 4 14 -4 42 -23 79 l-29 56 52 51 c28 28 57 51 63 51 7
0 15 5 18 10 15 24 -9 27 -77 9 -40 -10 -74 -16 -77 -13 -2 2 0 31 6 63 24
125 -3 132 -47 12z m90 -111 c-29 -22 -43 -25 -38 -8 3 7 15 15 29 19 36 10
36 10 9 -11z m-70 -15 c0 -8 -4 -15 -9 -15 -13 0 -22 16 -14 24 11 11 23 6 23
-9z m-32 -72 c-25 -26 -36 -17 -18 16 6 12 16 18 26 14 13 -5 11 -9 -8 -30z"/>
<path d="M3562 10375 c3 -15 1 -22 -5 -18 -6 4 -8 -4 -5 -20 3 -15 1 -28 -4
-29 -5 -2 -10 -24 -11 -51 -1 -26 -5 -47 -9 -47 -5 0 -8 -11 -8 -25 0 -22 -5
-25 -49 -31 -55 -7 -76 -17 -67 -32 3 -6 22 -6 48 -1 24 4 46 8 49 9 3 0 -3
-44 -13 -97 -11 -55 -15 -100 -10 -105 12 -12 29 32 42 110 16 92 25 110 55
114 14 2 25 8 25 13 -1 6 -12 9 -25 7 -14 -2 -25 -1 -25 1 0 3 9 49 20 103 21
99 20 124 -1 124 -7 0 -9 -10 -7 -25z"/>
<path d="M3693 10363 c-1 -42 -28 -150 -74 -291 -28 -85 -32 -122 -12 -122 11
0 83 114 83 131 0 8 14 22 30 31 30 17 30 17 25 -5 -3 -12 -9 -44 -14 -72 -5
-27 -12 -58 -16 -67 -5 -14 -2 -18 14 -18 12 0 21 6 21 13 1 6 7 47 15 90 7
44 11 85 8 93 -10 26 -41 14 -83 -33 -23 -27 -38 -39 -34 -28 24 67 64 245 62
274 -4 48 -25 51 -25 4z"/>
<path d="M9400 10328 c-11 -40 -30 -106 -42 -145 l-22 -73 -37 0 c-21 0 -44
-3 -53 -6 -29 -11 -17 -22 25 -22 23 -1 43 -3 46 -5 2 -3 -5 -39 -16 -79 -26
-91 -27 -105 -6 -88 8 6 26 50 40 96 15 48 31 84 38 84 7 0 22 7 33 16 18 15
18 15 -10 9 -25 -5 -28 -4 -21 12 5 14 55 202 67 253 2 7 -2 14 -9 17 -8 3
-20 -22 -33 -69z"/>
<path d="M8236 10293 c-11 -49 -32 -131 -48 -183 -32 -105 -40 -170 -20 -177
7 -3 12 5 12 20 0 13 14 71 31 127 43 146 71 270 65 286 -12 30 -22 10 -40
-73z"/>
<path d="M10265 10358 c-4 -13 -25 -62 -46 -111 -21 -48 -39 -102 -39 -120 0
-24 -3 -28 -10 -17 -8 13 -10 13 -10 -2 0 -19 -30 -31 -79 -32 -57 -1 -51 -26
7 -26 l50 0 -24 -66 c-26 -71 -39 -160 -25 -168 7 -5 22 50 25 89 1 6 4 12 7
15 3 3 16 35 28 73 22 65 24 67 62 73 51 8 61 24 15 24 -42 0 -40 -3 -21 43 8
19 11 38 7 41 -3 4 -1 10 5 14 6 4 25 47 42 97 35 102 34 95 22 95 -5 0 -13
-10 -16 -22z"/>
<path d="M12543 10358 c-5 -7 -23 -40 -40 -73 -49 -97 -68 -130 -74 -135 -6
-5 -43 -71 -44 -80 0 -3 -11 -31 -23 -63 -12 -32 -22 -77 -22 -100 0 -74 32
-85 114 -39 68 37 71 58 4 27 -76 -35 -88 -34 -88 14 0 52 38 151 59 152 9 1
26 0 38 0 11 -1 24 3 28 8 4 7 -7 11 -29 11 -20 0 -36 2 -36 5 0 3 32 64 70
134 39 71 70 134 70 140 0 15 -15 14 -27 -1z"/>
<path d="M15806 10358 c-23 -73 -39 -116 -72 -190 -29 -65 -44 -88 -61 -93
-13 -3 -23 -13 -23 -21 0 -10 6 -14 15 -10 11 4 6 -12 -14 -52 -36 -70 -63
-134 -58 -139 7 -7 37 9 37 20 0 6 19 48 42 94 33 66 47 83 64 83 12 0 27 7
34 15 11 13 9 15 -11 13 -31 -4 -30 6 20 119 44 100 62 173 42 173 -6 0 -13
-6 -15 -12z"/>
<path d="M9555 10338 c-37 -102 -44 -132 -33 -140 10 -6 9 -8 -3 -8 -9 0 -19
-8 -22 -17 -3 -10 -21 -63 -41 -117 -36 -98 -41 -155 -11 -111 21 30 99 105
109 105 4 0 5 -12 1 -27 -19 -68 -22 -113 -9 -113 8 0 16 12 20 28 3 15 13 49
21 76 13 42 13 50 1 62 -16 16 -43 9 -86 -22 l-23 -17 26 69 c53 138 64 174
53 174 -6 0 -4 8 5 18 19 21 23 52 7 52 -6 0 -13 -6 -15 -12z"/>
<path d="M14476 10328 c-9 -12 -16 -30 -16 -39 0 -8 -3 -19 -7 -23 -4 -4 -21
-42 -38 -84 l-31 -77 -47 -9 c-58 -10 -63 -28 -6 -20 31 5 40 3 37 -7 -2 -8
-16 -53 -33 -101 -16 -48 -26 -91 -21 -95 10 -11 21 10 57 112 18 50 39 98 47
108 8 9 13 20 10 23 -3 3 14 53 38 112 24 59 44 110 44 115 0 15 -19 6 -34
-15z"/>
<path d="M15935 10340 c-4 -7 -31 -60 -60 -119 -29 -58 -78 -146 -109 -195
-74 -117 -61 -134 29 -41 36 37 68 66 70 63 2 -2 -2 -24 -9 -49 -15 -49 -6
-89 14 -59 5 8 10 22 10 31 0 9 7 33 16 54 25 60 11 74 -47 50 -11 -4 5 38 48
125 43 87 62 135 55 142 -6 6 -12 6 -17 -2z"/>
<path d="M7568 10318 c0 -7 -2 -24 -3 -38 -5 -54 -57 -189 -93 -246 -58 -89
-128 -144 -146 -115 -19 30 60 121 105 121 16 0 29 5 29 10 0 17 -64 11 -98
-10 -44 -27 -76 -97 -62 -135 9 -25 14 -27 45 -22 92 15 193 161 236 342 11
47 17 90 14 95 -9 14 -25 12 -27 -2z"/>
<path d="M14576 10242 c-15 -43 -51 -127 -81 -187 -39 -77 -52 -112 -44 -119
7 -8 14 -7 22 4 17 22 87 73 87 63 -1 -4 -7 -19 -15 -33 -16 -27 -20 -70 -7
-70 12 0 64 119 57 130 -9 15 -38 12 -63 -6 -29 -20 -28 -15 9 59 40 78 79
185 79 214 0 45 -19 22 -44 -55z"/>
<path d="M9200 10214 c0 -3 6 -12 14 -19 12 -12 15 -12 19 -1 3 8 3 17 0 20
-8 8 -33 8 -33 0z"/>
<path d="M12722 10208 c3 -7 17 -15 33 -16 25 -3 27 -2 16 12 -16 19 -55 22
-49 4z"/>
<path d="M5035 10200 c4 -6 11 -8 16 -5 14 9 11 15 -7 15 -8 0 -12 -5 -9 -10z"/>
<path d="M5387 10194 c-13 -13 -7 -24 14 -24 11 0 19 5 17 12 -5 14 -22 21
-31 12z"/>
<path d="M11590 10173 c-31 -11 -64 -50 -89 -105 l-26 -57 -2 46 c-2 50 -6 58
-23 48 -7 -5 -10 -19 -6 -37 6 -31 -11 -75 -39 -98 -35 -29 -42 42 -9 81 8 9
11 19 7 24 -5 4 -3 5 4 1 13 -7 39 31 28 42 -9 10 -75 -61 -81 -88 -24 -95 25
-132 84 -65 28 31 31 33 37 15 9 -28 17 -25 38 11 13 24 15 35 6 45 -13 15
-14 13 50 82 25 28 38 33 68 32 56 -3 60 -1 39 15 -20 15 -58 18 -86 8z"/>
<path d="M4280 10124 c-44 -42 -49 -44 -55 -25 -10 31 -39 25 -74 -14 -17 -20
-31 -31 -31 -26 0 5 5 13 10 16 12 7 13 35 2 35 -14 0 -54 -142 -43 -153 6 -6
15 4 26 26 9 20 32 53 51 74 l34 38 -6 -46 c-7 -53 10 -76 26 -34 14 36 99
125 120 125 34 0 42 -24 31 -86 -9 -47 -8 -61 2 -72 12 -11 16 -2 25 53 13 77
2 120 -31 129 -34 9 -35 9 -87 -40z"/>
<path d="M10973 10139 c-23 -11 -45 -30 -48 -40 -6 -19 12 -58 43 -88 12 -13
12 -16 -4 -28 -11 -8 -32 -12 -47 -10 -32 4 -44 -8 -27 -28 21 -25 69 -18 101
14 16 16 29 34 29 39 0 5 -13 26 -30 47 -16 21 -30 42 -30 47 0 12 64 38 95
38 31 0 33 16 3 24 -34 9 -39 8 -85 -15z"/>
<path d="M3225 10129 c-31 -25 -58 -76 -51 -95 7 -18 47 -18 72 1 27 20 34 19
34 -7 0 -34 11 -68 21 -68 5 0 9 24 9 54 0 70 -14 82 -63 56 -40 -22 -46 -17
-21 18 11 16 24 22 42 20 33 -4 37 21 5 33 -16 6 -29 2 -48 -12z"/>
<path d="M6053 10126 c-78 -37 -83 -54 -39 -138 28 -54 33 -70 22 -74 -19 -7
-66 24 -66 44 0 15 -2 15 -17 -1 -16 -15 -15 -18 3 -38 38 -42 93 -47 113 -10
8 13 1 34 -24 82 -19 35 -34 68 -35 72 0 4 29 22 65 38 36 17 62 35 59 40 -8
14 -25 11 -81 -15z"/>
<path d="M3909 10126 c-56 -28 -89 -145 -51 -179 23 -21 45 -21 82 -2 42 22
38 39 -4 21 -28 -12 -38 -12 -52 -2 -15 12 -12 17 30 59 34 34 46 54 46 76 0
34 -18 44 -51 27z m31 -36 c0 -12 -61 -82 -67 -76 -9 9 38 86 52 86 8 0 15 -4
15 -10z"/>
<path d="M7659 10113 c-39 -33 -68 -95 -69 -146 0 -30 5 -40 24 -48 25 -12 58
-7 86 10 21 14 4 26 -22 15 -13 -6 -31 -8 -40 -6 -37 8 -10 110 41 156 19 17
21 17 27 2 5 -12 -6 -31 -37 -62 -56 -57 -42 -71 16 -14 48 47 56 77 29 104
-20 20 -17 21 -55 -11z"/>
<path d="M8843 10118 c-26 -12 -31 -38 -8 -38 12 0 10 -10 -10 -50 -14 -27
-25 -58 -25 -70 0 -26 31 -26 55 0 21 23 35 26 35 6 0 -36 74 -22 123 22 28
27 36 72 17 102 -13 21 -25 4 -22 -33 3 -36 -15 -59 -61 -76 -25 -10 -29 -8
-37 14 -11 29 -26 32 -53 8 -15 -14 -12 -4 12 44 17 34 31 67 31 73 0 13 -28
12 -57 -2z"/>
<path d="M10740 10101 c-23 -20 -37 -26 -42 -18 -9 15 -9 14 -41 -61 -31 -73
-31 -72 -14 -72 12 0 82 85 93 113 2 7 16 17 29 24 23 10 25 9 22 -10 -2 -12
-10 -35 -19 -52 -23 -46 -32 -88 -16 -83 21 7 61 99 62 143 1 33 -3 40 -19 42
-11 2 -36 -10 -55 -26z"/>
<path d="M13898 10109 c-16 -11 -28 -16 -28 -10 0 26 -18 7 -30 -31 -8 -24
-24 -64 -36 -89 -22 -44 -22 -59 -2 -59 4 0 21 26 37 58 16 31 45 72 65 91 32
31 38 33 61 23 28 -13 30 -10 15 19 -14 25 -48 24 -82 -2z"/>
<path d="M17075 10120 c-32 -13 -85 -73 -94 -108 -7 -25 -6 -36 7 -51 25 -29
85 -31 118 -5 18 15 18 15 -11 10 -41 -6 -85 4 -85 19 0 8 23 21 50 30 28 9
57 23 65 32 21 21 19 60 -4 73 -22 11 -20 11 -46 0z m35 -40 c0 -10 -22 -24
-67 -41 l-28 -10 29 30 c28 30 66 42 66 21z"/>
<path d="M4478 10097 c-59 -55 -76 -139 -30 -145 12 -2 39 7 59 19 20 13 33
17 29 11 -9 -15 2 -72 15 -72 5 0 9 13 9 30 0 16 7 48 16 70 17 42 13 61 -10
45 -7 -6 -32 -25 -56 -42 -24 -18 -47 -33 -52 -33 -17 0 -7 38 20 73 21 29 34
36 60 37 42 0 38 24 -4 28 -21 2 -38 -5 -56 -21z"/>
<path d="M13305 10112 c-50 -10 -67 -54 -43 -107 23 -51 -34 -105 -61 -57 -9
16 -11 16 -27 0 -15 -15 -15 -19 -4 -34 39 -46 106 -32 130 26 11 27 11 37 -3
66 -24 50 -21 62 18 78 19 8 35 17 35 19 0 9 -25 13 -45 9z"/>
<path d="M14993 10105 c-42 -18 -138 -163 -120 -182 3 -3 10 -2 15 1 16 10 83
137 77 146 -3 5 -1 11 4 14 5 4 12 2 16 -4 4 -6 12 -7 23 -1 10 6 27 4 49 -7
36 -17 53 -11 34 12 -21 26 -64 35 -98 21z"/>
<path d="M16847 10113 c-4 -3 -7 -30 -7 -60 0 -69 -21 -118 -59 -137 -32 -17
-40 -12 -43 28 -3 32 -14 22 -23 -21 -5 -26 -2 -34 15 -43 17 -9 28 -7 57 7
56 27 76 63 81 138 4 59 6 64 22 55 23 -12 30 -13 30 -1 0 27 -55 53 -73 34z"/>
<path d="M10380 10098 c-43 -16 -68 -48 -96 -120 -19 -50 -23 -73 -16 -80 8
-8 15 -3 23 18 47 112 59 134 86 147 15 8 36 13 46 12 9 -2 17 1 17 6 0 17
-35 27 -60 17z"/>
<path d="M11900 10084 c-28 -13 -65 -34 -82 -45 l-30 -22 7 22 c9 29 -18 38
-50 17 -33 -22 -35 -21 -28 14 6 35 -10 41 -27 10 -6 -11 -8 -20 -6 -20 3 0
-8 -26 -24 -57 -17 -32 -30 -61 -30 -65 0 -20 25 -4 65 40 25 26 44 42 45 35
0 -6 -4 -15 -10 -18 -14 -9 -12 -35 3 -35 7 0 53 25 102 55 50 30 95 55 102
55 7 0 5 -17 -8 -51 -11 -27 -17 -54 -14 -60 4 -5 1 -9 -5 -9 -15 0 -8 -42 8
-48 7 -2 12 5 12 17 0 11 11 50 25 87 14 36 25 72 25 79 0 24 -27 24 -80 -1z"/>
<path d="M5746 10085 c-8 -8 -18 -15 -22 -15 -4 0 -16 -7 -26 -17 -17 -15 -18
-15 -18 5 0 12 -4 22 -9 22 -17 0 -65 -156 -50 -165 11 -7 29 3 29 16 0 28
112 150 126 137 2 -2 -4 -28 -12 -58 -24 -84 -28 -110 -15 -110 20 0 66 150
55 182 -7 22 -37 23 -58 3z"/>
<path d="M7882 10071 c-34 -34 -57 -84 -48 -106 10 -26 57 -18 93 17 l33 32
-10 -35 c-12 -40 -13 -79 -2 -79 9 1 52 130 52 159 0 11 -4 21 -8 21 -13 0
-52 -45 -52 -59 0 -7 -4 -10 -9 -7 -4 3 -16 -3 -26 -14 -10 -11 -24 -20 -32
-20 -18 0 5 46 41 79 14 14 26 28 26 33 0 17 -30 7 -58 -21z"/>
<path d="M12980 10071 c-42 -28 -45 -29 -48 -11 -5 29 -21 24 -27 -7 -3 -16
-17 -49 -30 -76 -29 -55 -29 -57 -12 -57 8 0 31 25 52 56 35 51 103 110 113
99 3 -2 -5 -27 -17 -54 -25 -59 -27 -81 -6 -81 8 0 15 7 15 15 0 9 9 34 21 56
23 45 22 82 -1 87 -9 1 -36 -11 -60 -27z"/>
<path d="M14074 10081 c-37 -22 -78 -77 -69 -91 3 -5 15 -10 27 -10 21 0 98
39 98 50 0 17 -15 18 -42 4 -40 -21 -46 -11 -10 15 30 21 68 29 57 12 -3 -5
-1 -12 5 -16 6 -4 5 -16 -5 -35 -19 -37 -19 -60 0 -60 8 0 15 8 15 18 0 9 9
31 20 47 27 40 25 58 -7 73 -37 16 -53 15 -89 -7z"/>
<path d="M8795 10080 c-4 -6 -18 -15 -31 -20 -29 -11 -32 -30 -5 -30 29 0 69
36 55 50 -9 9 -14 9 -19 0z"/>
<path d="M9123 10053 c-9 -21 -23 -53 -32 -72 -12 -26 -13 -35 -4 -38 13 -5
23 -5 22 0 0 1 11 28 25 60 15 32 26 64 26 72 0 28 -20 15 -37 -22z"/>
<path d="M10528 10084 c-4 -3 -4 -12 -2 -19 6 -16 46 -7 41 9 -4 13 -30 20
-39 10z"/>
<path d="M12095 10071 c-33 -14 -77 -67 -73 -88 3 -13 12 -18 38 -18 19 1 45
4 57 8 18 7 22 4 25 -19 5 -45 25 -39 30 8 3 24 2 46 -2 51 -3 4 -28 0 -56 -8
-65 -20 -71 -19 -48 6 30 34 61 41 95 23 37 -19 50 -10 23 16 -23 23 -62 32
-89 21z"/>
<path d="M15567 10074 c-15 -15 -6 -22 33 -26 32 -3 40 0 38 12 -3 16 -58 27
-71 14z"/>
<path d="M15977 10062 c-35 -24 -77 -80 -77 -104 0 -28 39 -39 74 -21 26 14
30 13 38 -1 14 -25 23 -19 35 24 13 49 -4 71 -31 41 -21 -23 -74 -46 -84 -37
-11 12 75 86 98 86 27 0 21 24 -6 28 -10 1 -31 -6 -47 -16z"/>
<path d="M4936 10048 c-3 -13 -12 -45 -21 -71 -9 -32 -11 -47 -3 -45 15 5 49
121 39 131 -5 5 -11 -2 -15 -15z"/>
<path d="M6583 10057 c-35 -13 -41 -34 -8 -29 11 2 50 5 88 9 48 4 67 9 67 19
0 18 -100 18 -147 1z"/>
<path d="M10468 10033 c-43 -46 -51 -68 -32 -84 11 -9 24 -6 64 13 l50 25 0
-28 c0 -15 5 -31 10 -34 8 -5 13 4 9 18 0 1 4 13 9 27 5 14 12 37 16 53 9 39
-16 36 -67 -8 -53 -46 -83 -47 -39 -2 30 31 41 57 24 57 -4 0 -24 -17 -44 -37z"/>
<path d="M12290 10060 c0 -5 18 -10 40 -10 22 0 40 5 40 10 0 6 -18 10 -40 10
-22 0 -40 -4 -40 -10z"/>
<path d="M16182 10040 c-9 -17 -34 -58 -55 -90 -34 -53 -40 -80 -19 -80 4 0
22 22 41 50 29 43 103 120 114 120 2 0 -2 -24 -10 -52 -15 -60 -14 -100 5
-106 8 -2 12 7 12 25 0 15 7 52 14 81 13 46 12 54 -1 68 -14 14 -18 13 -37 -5
-26 -24 -38 -27 -30 -7 11 29 -17 26 -34 -4z"/>
<path d="M5072 10035 c-54 -45 -67 -121 -24 -144 21 -11 95 2 100 19 2 5 8 8
13 4 5 -3 9 -1 9 4 0 4 -27 6 -60 4 -55 -4 -60 -3 -60 15 0 11 10 35 23 54 19
28 30 35 65 37 43 3 55 15 26 26 -31 12 -63 6 -92 -19z"/>
<path d="M5443 10030 c-36 -37 -49 -76 -33 -95 14 -16 33 -10 78 23 l33 25 -6
-39 c-7 -43 13 -83 34 -70 9 6 9 11 0 22 -8 10 -8 29 2 79 7 35 10 67 7 71 -4
3 -24 8 -45 11 -34 4 -43 1 -70 -27z m87 6 c0 -9 -91 -79 -95 -74 -8 8 36 59
59 68 24 10 36 12 36 6z"/>
<path d="M14704 10041 c-46 -28 -74 -69 -74 -107 0 -46 30 -76 73 -70 41 5 67
16 67 28 0 11 -43 -1 -48 -13 -2 -5 -13 -3 -25 4 -49 27 -49 53 1 66 72 20
104 65 70 99 -16 16 -28 15 -64 -7z m46 -24 c0 -12 -30 -36 -62 -49 -29 -12
-21 9 15 36 36 29 47 32 47 13z"/>
<path d="M5301 10008 c-27 -63 -33 -86 -23 -92 14 -8 27 12 46 68 19 58 20 66
5 66 -5 0 -18 -19 -28 -42z"/>
<path d="M12762 10039 c-60 -12 -100 -67 -83 -113 13 -33 47 -39 99 -16 42 19
44 22 40 55 -2 19 0 36 6 38 5 2 1 12 -10 23 -15 15 -27 18 -52 13z m22 -51
c10 -39 7 -46 -25 -57 -24 -8 -36 -8 -45 0 -19 15 -18 22 7 53 25 32 55 34 63
4z"/>
<path d="M12616 9995 c-10 -25 -22 -45 -27 -45 -5 0 -9 -9 -9 -20 0 -53 51 6
75 88 12 43 -22 23 -39 -23z"/>
<path d="M4605 9900 c-32 -12 -136 -130 -156 -176 -10 -22 -24 -65 -30 -95 -6
-30 -18 -61 -25 -70 -8 -9 -11 -19 -7 -23 10 -10 4 -79 -8 -90 -14 -15 -11
-56 4 -56 9 0 19 22 26 58 7 31 14 64 17 73 2 8 38 30 79 48 111 49 82 62 -32
15 -38 -16 -39 -13 -19 61 18 71 38 105 97 169 38 42 54 54 60 44 6 -9 9 -8 9
7 0 15 3 17 9 7 7 -11 10 -10 15 3 11 31 -3 40 -39 25z"/>
<path d="M9260 9890 c0 -5 5 -10 11 -10 5 0 7 5 4 10 -3 6 -8 10 -11 10 -2 0
-4 -4 -4 -10z"/>
<path d="M2095 9831 c-86 -52 -188 -213 -218 -343 -10 -42 -19 -56 -49 -77
-21 -14 -37 -32 -38 -40 0 -9 13 -4 36 14 29 22 38 25 45 14 5 -8 9 -19 9 -26
0 -19 51 -53 79 -53 32 0 102 41 82 48 -7 2 -17 -2 -21 -9 -15 -23 -80 -16
-101 10 -33 41 -22 79 34 115 30 20 35 36 12 36 -9 0 -19 -8 -22 -17 -7 -18
-22 -33 -35 -33 -24 0 79 217 130 272 22 23 55 52 73 62 l32 19 -6 -38 c-3
-21 -17 -54 -30 -74 -65 -99 -61 -91 -41 -91 19 0 66 63 92 123 15 37 16 79 0
95 -16 16 -28 15 -63 -7z"/>
<path d="M4600 9830 c0 -5 5 -10 10 -10 6 0 10 5 10 10 0 6 -4 10 -10 10 -5 0
-10 -4 -10 -10z"/>
<path d="M7008 9705 l-43 -135 -43 0 c-52 0 -54 -23 -4 -28 18 -2 32 -8 32
-13 0 -5 -9 -42 -20 -81 -23 -83 -26 -122 -8 -116 7 3 23 48 37 102 13 54 29
99 35 101 101 27 131 49 51 38 -26 -3 -45 -2 -45 4 0 5 18 63 40 128 45 134
45 135 26 135 -10 0 -29 -45 -58 -135z"/>
<path d="M8826 9778 c-9 -33 -30 -96 -47 -138 -29 -76 -30 -78 -69 -84 -22 -3
-40 -11 -40 -17 0 -6 13 -7 35 -3 40 7 40 9 20 -46 -16 -47 -20 -104 -6 -96 5
3 19 39 32 81 l23 75 47 0 c26 0 51 5 54 10 4 6 -12 10 -39 10 -25 0 -46 3
-46 6 0 3 15 47 34 98 42 113 52 166 33 166 -8 0 -20 -24 -31 -62z"/>
<path d="M12258 9803 c-9 -16 -37 -91 -63 -168 -64 -193 -117 -271 -160 -235
-23 19 -18 34 25 74 60 56 54 75 -10 31 -67 -46 -78 -107 -25 -135 39 -21 74
-3 118 60 48 71 70 120 107 241 17 55 40 108 51 118 l21 19 -20 11 c-27 14
-25 15 -44 -16z"/>
<path d="M2954 9693 c-20 -65 -41 -123 -46 -130 -5 -6 -21 -13 -35 -15 -40 -5
-41 -28 -3 -28 31 0 32 -1 26 -31 -3 -17 -6 -40 -6 -51 0 -10 -4 -16 -10 -13
-5 3 -10 -3 -10 -14 0 -12 7 -21 15 -21 20 0 24 10 40 96 l7 41 47 -4 c43 -4
45 -3 27 11 -11 9 -28 16 -39 16 -17 0 -18 5 -12 38 3 20 20 76 36 123 34 100
33 99 15 99 -9 0 -27 -41 -52 -117z"/>
<path d="M6213 9778 c-7 -12 -25 -60 -91 -244 -16 -44 -23 -77 -18 -89 7 -19
8 -19 26 5 11 14 17 32 14 40 -8 21 -12 37 -6 26 3 -5 16 19 29 55 39 103 73
200 73 210 0 13 -18 11 -27 -3z"/>
<path d="M7180 9764 c-6 -14 -10 -29 -10 -33 0 -4 -22 -77 -50 -161 -27 -84
-50 -157 -50 -162 0 -22 33 -3 67 39 39 49 75 84 81 78 2 -2 -2 -22 -9 -44
-10 -33 -10 -46 1 -69 l14 -27 3 25 c2 14 11 53 19 88 26 101 -6 105 -91 14
l-34 -37 13 45 c8 25 20 59 26 75 14 35 50 164 50 183 0 22 -20 13 -30 -14z"/>
<path d="M13123 9768 c-12 -13 -46 -62 -76 -109 -30 -47 -63 -89 -72 -93 -9
-3 -13 -10 -10 -16 4 -6 -7 -32 -22 -58 -43 -70 -45 -80 -22 -103 18 -18 28
-19 77 -13 76 9 105 18 110 32 3 9 -4 11 -20 8 -53 -11 -147 -16 -152 -8 -3 4
13 38 36 75 35 59 45 67 77 72 20 3 51 10 69 15 19 5 40 6 48 3 8 -3 14 -1 14
5 0 17 -29 22 -87 15 l-56 -6 38 59 c20 32 50 75 65 95 26 33 29 49 10 49 -4
0 -16 -10 -27 -22z"/>
<path d="M5619 9723 c-7 -26 -23 -69 -36 -95 -13 -27 -21 -53 -18 -59 4 -5 2
-9 -3 -9 -5 0 -19 -25 -31 -56 -33 -86 -26 -118 15 -73 10 12 36 35 57 51 l38
31 -3 -48 c-5 -71 18 -69 30 2 5 32 8 61 5 66 -6 10 -41 9 -48 -2 -3 -6 -19
-16 -35 -25 -28 -14 -30 -13 -28 2 2 9 5 19 8 22 15 15 90 207 90 232 0 4 -6
8 -14 8 -7 0 -19 -20 -27 -47z"/>
<path d="M11250 9688 c-18 -46 -50 -115 -72 -154 -21 -39 -38 -79 -38 -88 0
-9 -4 -16 -10 -16 -5 0 -10 -7 -10 -15 0 -19 29 -20 36 0 4 8 10 13 14 10 5
-3 17 5 27 18 10 12 35 33 56 46 34 21 37 21 37 4 0 -10 -5 -34 -10 -53 -11
-36 -5 -90 10 -90 4 0 11 24 14 53 4 28 10 69 13 89 4 30 1 39 -12 44 -18 7
-64 -15 -104 -50 -21 -19 -19 -12 13 52 20 40 34 78 30 84 -4 6 -3 8 3 5 6 -4
13 2 16 13 3 11 1 18 -4 14 -5 -3 -9 0 -9 6 0 6 6 13 14 16 8 3 16 17 19 32 3
15 9 35 12 45 4 9 3 17 -2 17 -5 0 -24 -37 -43 -82z"/>
<path d="M9890 9696 c0 -8 -3 -21 -6 -30 -4 -10 -1 -16 9 -16 18 0 29 24 21
45 -8 19 -24 20 -24 1z"/>
<path d="M5835 9640 c-3 -5 1 -10 9 -10 9 0 16 5 16 10 0 6 -4 10 -9 10 -6 0
-13 -4 -16 -10z"/>
<path d="M3120 9619 c0 -11 27 -12 34 -1 2 4 -4 9 -15 9 -10 1 -19 -2 -19 -8z"/>
<path d="M5223 9594 c-68 -52 -103 -86 -97 -95 8 -13 55 -6 50 7 -4 11 91 91
99 82 5 -5 -51 -118 -79 -160 -17 -26 -17 -28 -1 -34 11 -5 30 7 61 37 39 38
44 40 44 21 0 -26 34 -46 66 -38 39 10 94 74 94 110 0 49 -19 108 -33 99 -6
-3 -7 -8 -2 -10 6 -2 8 -28 7 -58 -3 -48 -8 -58 -38 -85 -50 -43 -68 -40 -59
10 6 34 4 40 -11 40 -10 0 -28 -10 -41 -22 l-24 -23 25 55 c49 104 26 129 -61
64z"/>
<path d="M8163 9609 c-66 -12 -80 -25 -117 -104 -19 -41 -38 -75 -41 -75 -4 0
-6 30 -5 68 4 91 2 104 -12 100 -20 -7 -23 -164 -3 -194 8 -13 20 -24 25 -24
5 0 29 43 54 95 l45 94 50 7 c27 3 52 12 55 20 7 19 -3 22 -51 13z"/>
<path d="M8290 9613 c-47 -16 -116 -118 -106 -157 8 -34 45 -44 65 -18 9 11
26 23 39 27 12 3 22 11 22 16 0 14 -12 11 -49 -12 -23 -14 -37 -17 -44 -10
-13 13 9 58 32 66 9 3 32 19 51 35 30 26 32 32 20 44 -8 7 -22 11 -30 9z"/>
<path d="M2002 9570 c-22 -26 -28 -41 -20 -46 12 -7 78 57 78 76 0 21 -26 8
-58 -30z"/>
<path d="M9066 9579 c-14 -17 -26 -34 -26 -38 0 -4 -9 -18 -20 -31 -11 -13
-20 -28 -21 -34 0 -6 -2 -21 -3 -34 -3 -26 9 -38 18 -19 4 6 23 44 44 82 36
69 38 70 75 68 38 -2 53 19 21 31 -34 13 -63 5 -88 -25z"/>
<path d="M10000 9603 c-29 -11 -39 -33 -28 -64 19 -56 -19 -114 -49 -73 -14
19 -43 12 -43 -9 0 -19 19 -34 51 -42 52 -13 99 79 69 135 -9 17 -6 20 25 26
20 3 34 11 32 18 -4 12 -34 18 -57 9z"/>
<path d="M8485 9590 c-53 -20 -122 -122 -111 -164 3 -13 17 -28 30 -34 26 -11
99 -5 91 8 -3 4 1 7 8 6 6 0 12 4 12 9 0 10 -10 10 -55 1 -14 -2 -32 -1 -40 4
-13 8 -11 16 9 55 35 65 65 95 90 88 12 -3 21 -1 21 5 0 18 -33 30 -55 22z"/>
<path d="M11654 9572 c-42 -35 -109 -143 -97 -156 13 -12 22 -5 39 29 9 19 33
54 53 76 33 38 39 41 59 30 18 -9 22 -9 22 2 0 36 -43 47 -76 19z"/>
<path d="M13277 9562 c-65 -45 -85 -102 -42 -118 43 -17 135 48 135 95 0 56
-35 64 -93 23z m32 -64 c-32 -27 -69 -37 -69 -19 0 17 50 61 70 61 11 0 21 6
21 13 1 6 4 3 6 -8 4 -13 -5 -28 -28 -47z"/>
<path d="M7396 9540 c-20 -22 -36 -45 -36 -50 0 -6 -7 -10 -15 -10 -8 0 -15
-4 -15 -10 0 -5 5 -10 10 -10 6 0 10 -9 10 -21 0 -60 59 -84 135 -54 60 22 49
34 -20 23 -63 -11 -85 -1 -85 37 0 18 9 26 42 37 52 16 87 60 68 83 -22 26
-55 18 -94 -25z m55 -10 c-30 -26 -49 -26 -26 0 10 11 25 20 34 20 12 -1 10
-5 -8 -20z"/>
<path d="M8901 9557 c-33 -40 -52 -129 -30 -142 38 -24 90 35 93 107 2 34 0
39 -16 35 -10 -3 -18 -1 -18 4 0 13 -16 11 -29 -4z m30 -69 c-5 -13 -16 -30
-25 -37 -14 -11 -16 -11 -16 2 0 9 8 32 17 52 13 27 19 32 25 21 4 -8 4 -25
-1 -38z"/>
<path d="M11820 9548 c-70 -47 -69 -122 0 -144 36 -12 150 0 150 15 0 4 -26 5
-57 3 -75 -4 -113 10 -113 41 0 21 6 25 38 31 49 7 80 39 62 61 -17 21 -41 19
-80 -7z"/>
<path d="M4177 9520 c-29 -30 -38 -46 -35 -67 5 -41 49 -43 110 -4 77 49 74
107 -5 109 -23 1 -41 -9 -70 -38z m91 -3 c6 -17 0 -25 -37 -45 -64 -36 -80
-26 -37 25 22 26 67 38 74 20z"/>
<path d="M6180 9531 c-19 -16 -32 -33 -27 -37 4 -4 17 2 30 13 47 42 49 40 41
-41 -5 -52 -3 -76 4 -76 12 0 18 17 27 83 12 90 -13 109 -75 58z"/>
<path d="M10993 9531 c-43 -31 -73 -67 -73 -88 0 -7 14 -20 31 -29 37 -19 129
-11 129 11 0 10 -16 13 -59 12 -33 -1 -63 1 -67 6 -10 10 42 63 77 77 29 13
40 40 16 40 -8 0 -32 -13 -54 -29z"/>
<path d="M2613 9531 c-39 -24 -55 -53 -51 -89 4 -37 43 -41 91 -7 46 30 50 31
42 5 -7 -23 2 -60 16 -60 5 0 9 11 9 25 0 14 9 43 20 65 38 75 25 78 -67 15
-69 -48 -83 -53 -83 -32 0 28 32 57 71 63 23 4 38 12 36 18 -6 19 -51 17 -84
-3z"/>
<path d="M3380 9527 c-14 -13 -30 -22 -36 -20 -11 4 -46 -85 -38 -98 10 -17
23 -9 40 24 18 35 63 87 76 87 5 0 7 -29 6 -65 -2 -35 0 -64 5 -65 4 0 12 26
18 57 17 94 -16 131 -71 80z"/>
<path d="M5908 9530 c-37 -28 -63 -87 -48 -106 15 -17 71 -19 88 -2 21 21 13
26 -29 21 -38 -6 -41 -5 -30 13 23 41 39 54 65 54 30 0 33 8 9 26 -24 18 -26
17 -55 -6z"/>
<path d="M10498 9492 c-30 -29 -48 -54 -44 -60 11 -18 55 -14 90 7 l31 20 -3
-50 c-3 -40 -1 -49 12 -49 11 0 16 9 16 31 0 16 5 50 11 75 10 40 10 46 -7 59
-32 24 -53 17 -106 -33z m74 6 c-6 -7 -25 -22 -44 -32 l-33 -19 29 32 c28 30
72 47 48 19z"/>
<path d="M10778 9524 c-16 -8 -28 -10 -28 -4 0 5 -4 10 -10 10 -5 0 -10 -5
-10 -12 0 -6 -11 -26 -25 -44 -26 -33 -32 -54 -16 -54 5 0 15 8 22 17 15 18
98 73 111 73 4 0 8 -13 8 -29 0 -72 26 -82 29 -11 1 40 -2 51 -18 60 -25 13
-30 12 -63 -6z"/>
<path d="M2362 9523 c-24 -5 -62 -56 -62 -84 0 -45 96 -85 135 -56 19 14 18
15 -16 14 -37 -1 -89 25 -89 44 0 5 11 21 26 35 18 19 31 24 50 20 26 -7 31 3
12 22 -12 12 -16 13 -56 5z"/>
<path d="M5742 9518 c-11 -15 -42 -86 -42 -99 0 -5 6 -9 14 -9 12 0 56 88 56
111 0 13 -16 11 -28 -3z"/>
<path d="M3226 9511 c-4 -6 0 -21 9 -34 14 -22 14 -26 -9 -50 -34 -37 -58 -36
-50 1 4 15 13 37 20 49 17 27 17 33 4 33 -17 0 -50 -63 -50 -96 0 -44 21 -59
57 -41 41 22 66 53 66 83 0 29 -37 72 -47 55z"/>
<path d="M9777 9473 c-33 -93 -13 -118 22 -27 25 65 26 74 8 74 -7 0 -21 -21
-30 -47z"/>
<path d="M11424 9506 c-35 -15 -64 -51 -64 -78 0 -40 74 -47 127 -13 27 18 31
65 7 89 -19 19 -29 19 -70 2z m56 -45 c0 -19 -38 -41 -70 -41 -22 0 -23 1 -14
25 7 18 64 46 76 39 5 -3 8 -13 8 -23z"/>
<path d="M2128 9479 c-35 -34 -38 -87 -8 -114 19 -17 23 -17 54 -2 19 8 46 32
61 51 26 34 27 37 11 61 -18 27 -17 27 -61 29 -21 2 -38 -6 -57 -25z m92 -14
c10 -12 6 -21 -24 -51 -40 -40 -59 -40 -64 0 -6 52 57 88 88 51z"/>
<path d="M3043 9468 c-31 -35 -45 -67 -38 -89 7 -21 25 -17 25 7 0 8 11 32 25
52 14 20 25 40 25 44 0 15 -16 8 -37 -14z"/>
<path d="M13465 9460 c3 -5 12 -10 20 -10 8 0 17 5 20 10 4 6 -5 10 -20 10
-15 0 -24 -4 -20 -10z"/>
<path d="M1753 9367 c-25 -11 -31 -27 -10 -27 19 0 40 16 36 28 -3 6 -12 6
-26 -1z"/>
</g>
</svg>
