<?xml version="1.0" standalone="no"?>
<!DOCTYPE svg PUBLIC "-//W3C//DTD SVG 20010904//EN"
 "http://www.w3.org/TR/2001/REC-SVG-20010904/DTD/svg10.dtd">
<svg version="1.0" xmlns="http://www.w3.org/2000/svg"
 width="1214.000000pt" height="1618.000000pt" viewBox="0 0 1214.000000 1618.000000"
 preserveAspectRatio="xMidYMid meet">

<g transform="translate(0.000000,1618.000000) scale(0.100000,-0.100000)"
fill="#000000" stroke="none">
<path d="M547 15078 c-6 -23 4 -86 17 -107 10 -16 49 -14 95 5 39 15 41 15 75
-11 19 -15 53 -29 75 -32 34 -5 41 -2 57 22 24 37 10 75 -39 99 -36 17 -41 17
-80 2 -39 -15 -42 -15 -61 3 -32 29 -62 41 -99 41 -28 0 -36 -5 -40 -22z m103
-33 l33 -25 -37 -15 c-21 -9 -44 -14 -51 -11 -13 4 -26 62 -17 71 12 11 40 3
72 -20z m174 -21 c22 -8 22 -64 0 -64 -20 0 -82 29 -90 42 -14 22 51 37 90 22z"/>
<path d="M524 14869 c-10 -16 5 -25 71 -44 33 -9 98 -32 145 -50 124 -48 133
-50 128 -30 -3 17 -29 29 -223 96 -129 45 -112 41 -121 28z"/>
<path d="M611 14671 l-27 -29 -43 19 c-51 23 -61 24 -61 5 0 -8 17 -21 39 -29
29 -12 40 -23 44 -44 3 -15 1 -32 -4 -37 -14 -15 -11 -23 11 -29 11 -3 20 -1
20 5 0 5 12 -5 27 -23 45 -53 135 -76 195 -48 19 8 37 4 101 -25 82 -38 130
-47 121 -22 -3 8 -18 16 -35 20 -16 3 -47 14 -69 25 -22 10 -49 17 -60 14 -19
-5 -20 -2 -14 48 5 49 3 58 -25 97 -43 58 -85 82 -144 82 -41 0 -53 -5 -76
-29z m139 -16 c35 -18 80 -81 80 -112 0 -24 -19 -30 -36 -13 -5 5 -47 28 -92
50 -45 21 -82 42 -82 46 0 4 7 16 17 26 20 22 73 24 113 3z m-115 -75 c3 -5
15 -10 26 -10 10 0 19 -4 19 -8 0 -4 27 -20 60 -36 66 -32 69 -46 9 -46 -49 0
-87 19 -115 57 -34 47 -36 53 -20 53 8 0 18 -4 21 -10z"/>
<path d="M580 14365 c-24 -29 12 -149 55 -185 28 -23 29 -2 3 47 -30 55 -43
109 -30 117 25 15 161 -118 192 -189 10 -22 32 -53 49 -69 27 -26 31 -27 37
-12 5 12 -7 37 -33 74 -22 31 -43 69 -47 85 -6 25 -4 27 27 27 39 0 87 33 87
60 0 22 -36 68 -46 58 -4 -5 -2 -20 5 -35 11 -23 10 -29 -5 -40 -10 -7 -35
-13 -56 -13 -26 0 -41 -5 -45 -16 -4 -12 -17 -5 -57 34 -74 72 -111 87 -136
57z"/>
<path d="M847 13794 c-15 -15 -7 -45 11 -42 9 2 17 12 17 22 0 20 -16 31 -28
20z"/>
<path d="M558 13653 c-25 -29 -29 -53 -16 -97 23 -84 64 -95 132 -36 18 17 36
30 38 30 3 0 18 -18 33 -41 32 -45 56 -62 79 -53 22 8 36 68 26 105 -18 63
-56 84 -109 63 -32 -13 -35 -12 -74 16 -46 34 -87 38 -109 13z m94 -41 c37
-34 34 -53 -14 -82 -42 -26 -44 -25 -56 8 -22 59 -22 63 -4 60 12 -2 17 3 16
20 -1 30 19 28 58 -6z m150 -29 c19 -17 26 -93 9 -93 -5 0 -26 21 -46 46 -30
37 -35 48 -24 55 21 13 40 11 61 -8z"/>
<path d="M577 13373 c-4 -3 -7 -19 -7 -34 0 -33 79 -152 103 -157 24 -5 21 21
-4 44 -27 25 -73 103 -65 111 18 18 150 -86 194 -153 43 -64 89 -114 107 -114
8 0 15 3 15 6 0 13 -26 52 -62 94 l-39 44 37 11 c49 13 80 54 65 84 -17 30
-43 28 -35 -3 4 -18 0 -28 -17 -40 -42 -29 -76 -20 -139 34 -80 69 -132 94
-153 73z"/>
<path d="M867 12844 c-14 -14 -7 -25 13 -22 12 2 21 8 21 13 0 12 -24 18 -34
9z"/>
<path d="M605 12800 c-9 -14 3 -30 23 -30 9 0 64 -14 123 -30 85 -24 112 -28
133 -20 36 13 24 30 -23 30 -21 0 -82 13 -137 30 -112 34 -111 34 -119 20z"/>
<path d="M716 12677 c-13 -13 -25 -29 -27 -36 -4 -11 -14 -9 -46 8 -23 11 -44
25 -48 31 -3 5 -15 10 -25 10 -39 0 -28 -20 28 -50 54 -30 58 -35 58 -69 1
-54 30 -108 66 -120 51 -18 76 -13 110 22 l33 33 80 -44 c82 -46 162 -67 153
-42 -2 7 -22 18 -44 25 -21 6 -72 29 -111 51 -67 36 -73 41 -73 72 0 41 -22
84 -56 111 -35 27 -69 27 -98 -2z m88 -34 c25 -25 44 -69 33 -79 -2 -3 -30 7
-61 23 -47 23 -55 30 -50 48 14 42 41 45 78 8z m21 -114 c6 -6 0 -19 -18 -36
-23 -23 -30 -26 -54 -17 -25 8 -28 15 -31 57 l-3 47 48 -21 c26 -11 52 -25 58
-30z"/>
<path d="M852 10284 c2 -12 19 -23 53 -32 192 -51 338 -110 389 -157 38 -35
35 -115 -5 -115 -42 0 -130 111 -96 123 13 4 2 37 -13 37 -6 0 -16 -11 -22
-25 -24 -53 66 -165 133 -165 37 0 59 33 59 89 0 37 -5 49 -35 76 -48 46 -168
101 -310 141 -66 19 -128 37 -138 40 -14 5 -18 1 -15 -12z"/>
<path d="M1153 9869 c-26 -26 29 -150 82 -185 51 -33 105 12 105 89 0 33 -15
46 -52 47 -14 0 -8 -31 7 -36 21 -8 19 -47 -3 -67 -10 -10 -21 -17 -24 -17 -3
0 -9 23 -12 52 -8 58 -20 85 -49 111 -23 20 -38 22 -54 6z m68 -91 c5 -22 8
-42 6 -45 -6 -5 -47 79 -47 96 0 27 30 -11 41 -51z"/>
<path d="M1285 9840 c-3 -5 1 -10 10 -10 9 0 13 5 10 10 -3 6 -8 10 -10 10 -2
0 -7 -4 -10 -10z"/>
<path d="M1089 9695 c0 -11 0 -32 1 -47 1 -23 -2 -27 -17 -21 -10 3 -22 9 -28
14 -20 14 -135 49 -165 49 -23 0 -30 -4 -30 -19 0 -25 17 -36 34 -22 16 13 96
-9 169 -45 48 -25 53 -34 48 -101 -1 -11 3 -24 10 -28 17 -11 30 16 25 53 l-5
33 51 -37 c65 -46 117 -69 130 -56 13 13 1 32 -19 32 -26 0 -161 93 -167 115
-3 11 -6 29 -6 41 0 11 -7 29 -15 40 -14 19 -14 19 -16 -1z"/>
<path d="M1167 9363 c-14 -13 -6 -47 19 -91 l26 -45 -43 28 c-110 67 -199 90
-207 51 -3 -15 0 -18 18 -13 34 9 105 -22 212 -91 52 -34 100 -62 106 -62 18
0 14 17 -10 43 -33 34 -68 80 -68 90 0 4 -4 5 -10 2 -5 -3 -7 0 -4 8 3 8 -2
21 -11 30 -29 29 4 28 63 -2 55 -28 72 -30 72 -9 0 11 -115 68 -138 68 -10 0
-22 -3 -25 -7z"/>
<path d="M1180 9086 c0 -9 12 -16 27 -18 29 -3 46 -28 58 -83 l6 -30 -26 29
c-21 22 -23 31 -14 42 19 23 -4 40 -25 19 -38 -38 38 -138 83 -110 14 8 14 46
1 81 -6 15 -9 28 -7 31 3 3 84 -25 168 -58 25 -10 26 -12 21 -84 -6 -102 1
-125 39 -125 37 0 83 23 103 52 35 50 9 115 -58 148 -42 20 -44 23 -39 56 5
27 2 34 -11 34 -10 0 -19 -11 -22 -29 l-6 -28 -80 30 c-66 24 -82 27 -89 16
-6 -10 -9 -11 -9 -1 0 6 -3 11 -7 10 -5 -2 -9 1 -10 7 -4 25 -103 35 -103 11z
m406 -171 c22 -33 11 -71 -26 -90 -52 -27 -60 -21 -60 43 0 31 3 67 6 79 6 21
8 22 35 7 16 -8 36 -26 45 -39z"/>
<path d="M1020 8954 c0 -9 7 -14 17 -12 25 5 28 28 4 28 -12 0 -21 -6 -21 -16z"/>
<path d="M1163 8884 c0 -8 6 -14 14 -14 7 0 13 -4 13 -8 0 -14 75 -44 99 -40
31 4 27 22 -6 29 -15 3 -44 14 -63 24 -45 24 -57 26 -57 9z"/>
<path d="M1115 8729 c-11 -17 4 -75 30 -113 14 -20 25 -43 25 -50 0 -10 14
-13 48 -12 43 1 48 4 65 36 18 37 20 120 2 120 -5 1 -13 -22 -16 -50 -7 -53
-22 -80 -45 -80 -8 0 -14 2 -14 4 0 26 -24 115 -35 133 -16 24 -49 31 -60 12z
m45 -54 c0 -5 -5 -3 -10 5 -5 8 -10 20 -10 25 0 6 5 3 10 -5 5 -8 10 -19 10
-25z"/>
<path d="M1106 8531 c-9 -14 7 -21 81 -37 109 -23 143 -74 78 -116 -19 -13
-35 -31 -35 -40 0 -15 -5 -14 -36 7 -40 27 -50 30 -59 15 -8 -14 35 -131 51
-137 7 -2 11 -10 9 -16 -3 -7 4 -23 15 -37 33 -43 35 0 2 56 -27 47 -45 94
-36 94 3 0 33 -22 67 -50 34 -27 67 -50 74 -50 25 0 20 18 -17 65 l-39 50 34
28 c63 52 35 126 -58 151 -79 22 -125 28 -131 17z"/>
<path d="M1293 7655 c2 -65 -1 -79 -17 -91 -37 -27 -53 -18 -59 31 -6 55 -30
85 -68 85 -41 0 -48 -37 -19 -86 65 -104 185 -94 197 16 6 51 -7 112 -24 117
-8 3 -11 -19 -10 -72z m-113 -24 c5 -11 10 -28 10 -38 -1 -15 -5 -13 -25 10
-14 15 -25 32 -25 38 0 17 29 9 40 -10z"/>
<path d="M1127 7483 c-11 -10 -8 -72 3 -94 6 -10 9 -19 6 -19 -2 0 -43 18 -90
41 -64 31 -99 42 -138 43 -48 1 -53 -1 -56 -22 -3 -23 16 -27 30 -7 12 17 97
-13 231 -81 145 -73 170 -70 87 13 -35 35 -50 58 -50 77 l0 26 38 -16 c65 -28
103 -37 115 -25 7 7 3 13 -14 20 -139 55 -149 57 -162 44z"/>
<path d="M800 7326 c0 -39 52 -95 62 -66 2 5 45 -12 95 -38 l93 -47 0 -67 c0
-54 3 -68 15 -68 12 0 15 14 15 63 l0 63 69 -23 c72 -24 120 -23 142 3 9 11 8
25 -1 59 -12 43 -23 55 -34 36 -3 -4 -1 -23 4 -41 5 -19 7 -36 5 -39 -11 -11
-73 -2 -127 19 -47 17 -57 25 -55 42 3 28 -19 34 -26 8 -5 -20 -8 -20 -84 19
-43 21 -95 51 -116 65 -43 29 -57 32 -57 12z"/>
<path d="M1245 7260 c-3 -6 1 -7 9 -4 18 7 21 14 7 14 -6 0 -13 -4 -16 -10z"/>
<path d="M1120 6360 c0 -30 28 -80 45 -80 8 0 29 9 47 20 43 26 64 25 93 -5
31 -30 31 -48 3 -74 -20 -19 -20 -21 -3 -27 22 -9 55 28 55 61 0 29 -33 71
-71 91 -28 14 -33 14 -75 -10 -42 -24 -44 -24 -54 -6 -6 10 -10 26 -10 34 0 9
-7 16 -15 16 -8 0 -15 -9 -15 -20z"/>
<path d="M995 6259 c-10 -15 1 -23 20 -15 9 3 13 10 10 16 -8 13 -22 13 -30
-1z"/>
<path d="M1140 6185 c0 -10 10 -15 28 -15 15 0 44 -9 65 -20 73 -39 94 -17 24
25 -50 28 -117 35 -117 10z"/>
<path d="M1124 5708 c-4 -6 5 -20 22 -32 16 -11 58 -48 94 -83 l65 -63 -36 0
c-72 0 -117 -28 -103 -65 9 -21 34 -19 34 4 0 20 34 31 102 31 37 0 48 -8 148
-105 111 -107 162 -145 192 -145 35 0 26 19 -19 41 -29 14 -94 68 -165 139
-65 64 -118 114 -118 111 0 -3 -42 37 -94 87 -93 92 -109 102 -122 80z"/>
<path d="M1126 5444 c-3 -9 -6 -36 -6 -60 0 -24 -3 -44 -6 -44 -4 0 -39 17
-78 39 -84 45 -136 60 -136 38 0 -12 204 -117 228 -117 8 0 25 -66 34 -135 2
-11 11 -21 20 -23 14 -3 16 3 11 35 -3 21 -9 52 -13 70 l-8 32 79 -39 c82 -42
139 -52 139 -25 0 10 -10 15 -27 15 -16 1 -66 20 -113 44 -83 42 -85 43 -92
87 -5 24 -6 56 -2 72 4 20 2 27 -9 27 -8 0 -18 -7 -21 -16z"/>
<path d="M970 5100 c0 -24 25 -27 34 -4 9 23 8 24 -14 24 -13 0 -20 -7 -20
-20z"/>
<path d="M1150 5040 c0 -13 101 -71 119 -68 32 6 17 25 -42 51 -68 30 -77 32
-77 17z"/>
<path d="M1100 4919 c0 -25 11 -42 55 -84 67 -65 155 -105 155 -71 0 7 -21 23
-48 34 -62 27 -142 105 -135 132 4 14 0 20 -11 20 -11 0 -16 -9 -16 -31z"/>
<path d="M1147 4708 c-66 -49 9 -178 104 -178 45 0 63 19 61 65 -2 46 -27 82
-73 106 -44 22 -68 24 -92 7z m107 -52 c23 -27 38 -66 32 -83 -3 -7 -17 -13
-30 -13 -63 0 -115 56 -96 105 9 24 14 26 43 19 17 -3 40 -16 51 -28z"/>
<path d="M954 4565 c-8 -34 0 -41 31 -27 22 10 24 15 15 32 -15 28 -38 25 -46
-5z"/>
<path d="M1146 4461 c-9 -14 10 -30 58 -52 34 -15 51 -18 59 -10 13 13 14 13
-55 44 -32 14 -60 22 -62 18z"/>
<path d="M1094 4395 c-4 -8 -3 -25 0 -38 8 -30 92 -125 127 -143 36 -18 69
-18 69 1 0 8 -7 15 -15 15 -53 0 -161 113 -150 157 4 17 1 23 -10 23 -9 0 -18
-7 -21 -15z"/>
<path d="M1035 4226 c-11 -17 -13 -30 -6 -48 22 -58 200 -176 245 -162 11 4
16 2 12 -4 -9 -14 106 -54 145 -50 46 4 45 30 -1 40 -19 4 -62 18 -94 30 -54
21 -60 27 -71 65 -26 87 -103 153 -179 153 -26 0 -40 -6 -51 -24z m146 -52
c38 -37 67 -89 56 -101 -4 -3 -26 1 -49 10 -56 22 -128 88 -128 117 0 21 4 22
41 17 30 -4 52 -16 80 -43z"/>
<path d="M1064 3435 c-16 -41 30 -135 66 -135 21 0 67 51 76 84 4 17 12 22 37
21 30 0 32 -3 35 -37 2 -20 -2 -46 -7 -57 -8 -14 -8 -22 0 -27 17 -10 31 11
39 59 8 57 -2 85 -35 93 -38 9 -71 -9 -107 -61 -30 -42 -33 -44 -50 -28 -10 9
-21 34 -24 55 -7 43 -21 58 -30 33z"/>
<path d="M1280 3200 c0 -5 5 -10 10 -10 6 0 10 5 10 10 0 6 -4 10 -10 10 -5 0
-10 -4 -10 -10z"/>
<path d="M1090 3160 c-11 -11 -20 -25 -20 -31 0 -26 46 -83 89 -110 78 -50
136 -31 152 51 10 54 2 110 -17 110 -9 0 -13 -17 -13 -61 1 -64 -17 -99 -50
-99 -13 0 -15 9 -13 44 3 37 -1 48 -28 80 -37 41 -69 47 -100 16z m79 -36 c22
-28 28 -69 12 -78 -13 -8 -71 52 -71 73 0 39 30 42 59 5z"/>
<path d="M902 2973 c5 -27 65 -42 179 -44 79 -1 113 -6 141 -20 94 -48 107
-161 13 -116 -40 19 -89 81 -82 102 9 21 -12 30 -31 12 -14 -14 -13 -18 3 -44
10 -15 29 -41 44 -56 80 -88 187 -71 161 25 -11 40 -79 108 -108 108 -10 0
-22 4 -27 9 -6 5 -63 11 -128 13 -72 3 -122 9 -129 16 -18 18 -40 14 -36 -5z"/>
<path d="M1149 2718 c-16 -18 -29 -36 -29 -41 0 -36 79 -122 121 -132 29 -7
58 14 60 43 5 72 -17 124 -61 147 -42 22 -58 19 -91 -17z m105 -40 c9 -12 16
-39 16 -60 0 -33 -3 -38 -24 -38 -34 0 -89 64 -80 93 15 51 55 53 88 5z"/>
<path d="M1064 2505 c-9 -22 11 -71 46 -116 l32 -39 -32 7 c-29 5 -31 4 -28
-18 2 -16 9 -23 21 -22 11 0 51 -12 89 -28 39 -16 72 -29 74 -29 2 0 4 9 4 20
0 11 -5 20 -12 20 -32 0 -158 133 -158 167 0 13 4 13 28 -3 64 -42 129 -74
153 -74 31 0 44 23 29 51 -14 25 -30 24 -30 -1 0 -11 -2 -20 -5 -20 -10 0 -83
39 -132 70 -52 34 -71 37 -79 15z"/>
<path d="M1285 1728 c-2 -7 -5 -22 -7 -33 -4 -25 -31 -30 -78 -15 -29 10 -45
10 -74 0 -33 -10 -36 -15 -36 -48 0 -67 125 -161 185 -138 22 8 19 65 -5 104
-24 38 -24 42 -7 42 23 0 47 35 47 68 0 31 -17 44 -25 20z m-49 -134 c33 -54
32 -78 -2 -70 -32 8 -91 52 -104 77 -40 75 61 68 106 -7z"/>
</g>
</svg>
