<?xml version="1.0" standalone="no"?>
<!DOCTYPE svg PUBLIC "-//W3C//DTD SVG 20010904//EN"
 "http://www.w3.org/TR/2001/REC-SVG-20010904/DTD/svg10.dtd">
<svg version="1.0" xmlns="http://www.w3.org/2000/svg"
 width="1618.000000pt" height="1214.000000pt" viewBox="0 0 1618.000000 1214.000000"
 preserveAspectRatio="xMidYMid meet">

<g transform="translate(0.000000,1214.000000) scale(0.100000,-0.100000)"
fill="#000000" stroke="none">
<path d="M8533 11685 c-71 -15 -120 -41 -128 -66 -9 -28 22 -90 69 -139 46
-47 76 -97 76 -125 0 -26 -54 -73 -92 -80 -44 -8 -98 16 -98 45 0 10 5 22 10
25 15 9 12 25 -5 25 -8 0 -22 -11 -30 -24 -20 -31 -8 -58 38 -86 38 -23 75
-25 120 -6 39 16 87 70 87 97 0 36 -30 93 -79 149 -89 102 -88 119 6 146 70
20 86 14 78 -29 -9 -44 12 -63 43 -41 12 8 22 24 22 36 0 22 -37 89 -48 87 -4
0 -35 -7 -69 -14z"/>
<path d="M3515 11620 c-11 -12 -15 -28 -12 -42 3 -14 -7 -55 -26 -102 l-32
-79 -54 -1 c-68 -1 -79 -21 -16 -28 25 -3 48 -8 50 -10 3 -2 -3 -27 -12 -55
-15 -48 -12 -97 6 -77 4 5 16 37 26 72 18 60 19 62 51 62 43 0 54 19 15 26
-17 4 -31 9 -31 13 0 3 14 39 30 80 48 118 51 192 5 141z"/>
<path d="M7189 11636 c-8 -9 -274 -46 -379 -54 -75 -6 -95 -10 -95 -22 0 -18
92 -16 229 6 49 7 91 13 92 11 1 -1 -15 -49 -37 -107 -29 -75 -41 -122 -42
-165 -3 -82 16 -86 26 -6 7 56 51 195 78 244 5 10 7 22 4 27 -4 6 -4 10 -2 10
3 0 42 7 88 16 48 9 105 14 132 10 42 -4 48 -3 45 12 -3 14 -16 18 -69 20 -35
2 -67 0 -70 -2z"/>
<path d="M12998 11617 c-13 -14 -36 -48 -53 -76 -16 -28 -37 -51 -46 -51 -20
0 -78 -28 -102 -48 -29 -25 -41 -88 -23 -124 15 -30 15 -31 -47 -119 -86 -123
-113 -177 -97 -192 9 -9 14 -9 17 -1 12 33 55 104 111 184 60 86 65 90 100 90
47 0 114 31 136 61 25 36 20 67 -18 105 l-35 35 31 47 c17 26 40 57 51 70 15
16 18 25 10 33 -9 9 -18 5 -35 -14z m-148 -231 c-32 -56 -44 -67 -52 -43 -11
29 13 78 45 92 18 7 34 12 36 10 2 -2 -11 -29 -29 -59z m122 18 c10 -21 8 -28
-12 -49 -24 -25 -80 -49 -103 -43 -10 2 -3 22 26 70 35 58 43 66 59 57 11 -6
24 -21 30 -35z"/>
<path d="M14973 11618 c-5 -7 -15 -26 -23 -43 -8 -16 -23 -39 -33 -49 -15 -18
-18 -18 -30 -4 -15 19 -68 30 -87 17 -12 -7 -13 -11 -2 -17 10 -7 8 -13 -10
-24 -13 -9 -37 -34 -52 -57 -38 -54 -37 -97 1 -131 15 -14 26 -24 24 -23 -6 4
-92 -110 -109 -145 -11 -23 -13 -35 -5 -43 8 -8 19 4 39 42 16 29 28 56 27 61
-2 4 3 8 11 8 7 0 25 17 40 38 20 29 37 41 72 50 89 24 134 96 103 166 -9 19
-8 29 4 46 9 12 13 29 10 36 -3 8 1 14 9 14 14 0 38 39 38 60 0 14 -16 12 -27
-2z m-90 -146 c-1 -5 -23 -39 -47 -75 -25 -35 -43 -67 -39 -70 7 -8 -33 -1
-47 8 -16 10 -11 58 9 89 32 49 71 74 100 66 15 -4 25 -12 24 -18z m37 -55 c0
-12 -6 -29 -13 -38 -15 -19 -66 -53 -72 -48 -7 7 69 118 77 113 5 -3 8 -15 8
-27z"/>
<path d="M3662 11608 c-7 -7 -12 -24 -12 -40 0 -37 -42 -145 -90 -233 -22 -40
-40 -80 -40 -89 0 -22 27 -20 35 3 6 21 133 146 141 139 2 -3 -5 -31 -17 -62
-16 -42 -19 -60 -11 -68 8 -8 17 2 32 38 31 72 35 98 15 114 -15 12 -22 11
-56 -8 l-39 -23 22 53 c11 29 27 73 34 98 7 25 16 55 20 68 7 25 -13 31 -34
10z"/>
<path d="M2220 11594 c0 -16 34 -24 113 -24 48 0 67 -4 67 -13 0 -7 -19 -64
-42 -127 -22 -63 -41 -121 -41 -128 0 -19 -40 -25 -123 -17 -61 6 -75 4 -72
-6 7 -22 67 -29 194 -23 84 5 132 3 158 -6 27 -9 41 -9 49 -1 17 17 -53 41
-118 41 -37 0 -55 4 -55 13 0 6 17 57 36 112 20 55 39 113 42 128 l5 29 86 -6
c47 -3 100 -7 116 -8 48 -5 44 13 -5 28 -60 19 -410 25 -410 8z"/>
<path d="M9680 11513 c-12 -49 -38 -119 -56 -158 -41 -88 -31 -105 29 -48 38
37 76 63 92 63 3 0 3 -15 0 -32 -8 -41 16 -80 36 -60 9 8 10 15 2 23 -6 6 -8
29 -6 54 5 38 3 44 -16 50 -16 5 -34 -1 -59 -18 l-37 -24 27 81 c15 45 28 88
28 97 0 9 7 22 15 29 18 15 11 30 -14 30 -14 0 -23 -19 -41 -87z"/>
<path d="M13980 11590 c-32 -8 -100 -68 -100 -89 0 -5 9 -19 19 -32 18 -22 22
-23 62 -12 24 6 45 10 47 8 2 -2 -18 -44 -43 -94 -33 -64 -45 -100 -43 -123 4
-44 28 -49 28 -6 0 21 24 83 65 166 69 139 76 167 48 175 -10 2 -25 7 -33 10
-8 3 -31 1 -50 -3z m55 -41 c4 -5 0 -18 -10 -29 -19 -21 -92 -42 -101 -29 -7
12 12 46 34 58 23 14 69 14 77 0z"/>
<path d="M13135 11504 c-19 -42 -35 -79 -35 -83 0 -14 -43 -87 -57 -98 -19
-15 -9 -46 12 -41 16 3 147 283 137 293 -14 13 -25 -1 -57 -71z"/>
<path d="M13686 11560 c-22 -11 -44 -20 -50 -20 -6 0 -27 -14 -46 -30 -30 -24
-32 -30 -18 -35 10 -4 29 2 47 14 45 32 99 53 106 41 22 -36 -72 -148 -193
-230 -28 -19 -52 -41 -52 -47 0 -24 35 -13 88 27 29 22 54 40 57 40 2 0 7 -16
11 -35 3 -19 13 -39 22 -44 28 -16 132 27 132 54 0 19 -3 19 -47 -5 -57 -30
-69 -27 -76 22 -5 36 -2 48 21 76 58 71 72 96 74 128 0 19 1 40 2 47 2 20 -36
18 -78 -3z"/>
<path d="M15083 11557 c-5 -6 -15 -25 -21 -42 -6 -16 -22 -60 -36 -97 -30 -76
-34 -138 -11 -138 10 0 15 10 15 31 0 30 37 138 66 191 16 30 18 54 5 62 -5 3
-13 0 -18 -7z"/>
<path d="M3920 11535 c0 -15 6 -25 14 -25 22 0 30 19 16 35 -18 22 -30 18 -30
-10z"/>
<path d="M15270 11544 c-11 -12 -11 -24 2 -65 15 -47 15 -50 -3 -62 -28 -20
-57 -60 -64 -89 -9 -34 24 -68 63 -68 54 0 88 63 68 126 -5 16 3 31 34 61 44
45 52 82 20 90 -11 3 -20 9 -20 14 0 16 -87 10 -100 -7z m56 -23 c5 -5 20 -11
33 -13 l24 -3 -33 -35 -33 -35 -13 45 c-8 25 -14 46 -14 48 0 6 27 1 36 -7z
m-16 -179 c0 -39 -38 -64 -64 -43 -18 15 -11 37 22 74 30 31 42 22 42 -31z"/>
<path d="M14498 11522 c-44 -15 -78 -32 -78 -39 0 -7 -8 -13 -17 -13 -12 0
-14 -3 -6 -11 8 -8 19 -7 39 4 51 26 164 59 180 53 31 -12 -38 -87 -178 -193
-54 -41 -96 -78 -93 -84 10 -15 24 -11 63 20 20 17 50 35 65 41 28 10 29 10
22 -21 -5 -22 -2 -36 11 -50 26 -29 114 -24 114 6 0 9 -14 13 -47 12 l-46 -2
-1 54 c-1 50 1 55 38 84 42 33 96 102 96 123 0 22 -30 44 -58 43 -15 0 -62
-13 -104 -27z"/>
<path d="M11868 11484 c-46 -19 -49 -45 -13 -94 30 -41 34 -93 8 -88 -10 2
-19 14 -21 26 -5 31 -26 22 -30 -12 -7 -56 41 -74 84 -31 29 29 26 58 -13 119
-20 31 -22 40 -11 47 18 12 65 11 73 -1 7 -11 25 -4 25 8 -1 34 -52 47 -102
26z"/>
<path d="M10822 11477 c-17 -7 -56 -32 -85 -57 -55 -46 -76 -84 -120 -215 -37
-110 -40 -125 -22 -125 16 0 66 96 81 154 4 17 13 26 25 26 34 0 93 37 146 90
62 63 74 97 43 122 -26 21 -25 21 -68 5z m51 -44 c-10 -29 -85 -103 -125 -124
-45 -23 -48 -23 -48 -5 0 28 42 85 83 116 46 34 100 42 90 13z"/>
<path d="M12413 11470 c-18 -11 -33 -25 -33 -32 0 -7 16 -31 35 -52 37 -42 44
-78 21 -108 -18 -24 -42 -22 -60 4 -21 29 -44 11 -27 -21 26 -47 84 -47 115 1
29 46 24 88 -15 132 -17 20 -28 40 -24 46 10 16 55 12 55 -5 0 -8 7 -15 15
-15 23 0 18 37 -7 54 -29 20 -36 20 -75 -4z"/>
<path d="M11398 11460 c-29 -17 -68 -94 -68 -132 0 -50 32 -88 75 -88 43 0 65
9 65 26 0 11 -9 13 -38 8 -70 -11 -92 42 -50 117 22 39 28 43 61 39 13 -1 18
4 15 17 -4 21 -35 27 -60 13z"/>
<path d="M11626 11449 c-57 -44 -71 -111 -33 -153 28 -31 58 -40 82 -23 24 18
10 40 -20 33 -15 -4 -30 0 -39 10 -24 23 -19 33 16 32 50 -2 82 53 62 106 -8
22 -36 20 -68 -5z m40 -44 c-5 -18 -13 -25 -32 -25 -21 0 -23 3 -14 20 10 19
42 42 49 35 2 -2 1 -16 -3 -30z"/>
<path d="M9213 11435 c-29 -13 -53 -29 -53 -34 0 -6 -6 -11 -13 -11 -11 0 -37
-59 -37 -84 0 -19 29 -2 40 24 18 42 64 79 111 86 41 7 46 13 27 32 -15 15
-13 15 -75 -13z"/>
<path d="M10974 11441 c-52 -32 -108 -171 -69 -171 8 0 15 7 15 16 0 8 11 39
25 68 26 56 67 85 101 72 23 -9 37 3 23 20 -16 20 -58 17 -95 -5z"/>
<path d="M12003 11445 c-33 -23 -29 -59 12 -104 42 -46 49 -94 13 -89 -13 2
-23 8 -23 15 0 7 -5 17 -12 24 -9 9 -13 6 -18 -14 -9 -34 -1 -44 41 -56 53
-15 64 -6 64 48 0 40 -5 52 -35 84 -43 46 -45 66 -5 74 17 3 29 11 27 17 -6
18 -40 18 -64 1z"/>
<path d="M4060 11441 c-43 -7 -48 -26 -21 -86 l20 -45 -29 0 c-15 0 -42 8 -59
17 -22 13 -33 15 -41 7 -19 -19 49 -54 103 -54 57 0 66 19 38 81 l-20 44 30 6
c16 4 32 9 36 12 6 7 -6 28 -15 26 -4 -1 -23 -4 -42 -8z"/>
<path d="M5334 11440 c-17 -4 -36 -10 -42 -14 -21 -13 -13 -55 18 -89 37 -42
37 -55 4 -67 -40 -15 -64 -13 -57 6 4 12 1 15 -13 12 -13 -2 -19 -12 -19 -28
0 -22 5 -25 40 -28 45 -3 108 24 113 49 2 9 -13 35 -33 59 -20 23 -34 48 -32
53 2 6 18 15 35 19 53 14 40 40 -14 28z"/>
<path d="M6220 11436 c0 -17 27 -29 35 -16 4 6 3 15 0 20 -9 15 -35 12 -35 -4z"/>
<path d="M11197 11443 c-4 -4 -5 -20 -2 -37 8 -45 -26 -96 -64 -96 -16 0 -31
6 -34 14 -8 21 35 80 61 84 30 4 29 32 -1 32 -33 0 -97 -73 -97 -110 0 -18 48
-60 69 -60 49 0 118 105 104 159 -5 21 -23 27 -36 14z"/>
<path d="M12188 11413 c-20 -21 -41 -48 -47 -60 -16 -32 -13 -78 7 -102 20
-26 79 -41 111 -30 32 13 16 29 -29 29 -46 0 -72 22 -68 59 3 23 7 26 38 23
73 -6 127 60 84 102 -25 26 -57 19 -96 -21z m78 -5 c9 -14 -31 -48 -57 -48
-26 0 -24 15 7 39 31 24 40 26 50 9z"/>
<path d="M5595 11418 c-11 -6 -37 -27 -57 -46 -47 -44 -51 -90 -13 -127 20
-21 33 -25 82 -24 62 0 141 26 157 52 17 26 2 28 -44 5 -59 -29 -150 -36 -173
-13 -29 28 -19 40 42 53 64 13 91 35 91 74 0 37 -43 50 -85 26z m55 -28 c0
-13 -38 -36 -73 -44 -36 -8 -28 8 17 35 34 21 56 24 56 9z"/>
<path d="M7163 11418 c-5 -7 -22 -37 -36 -67 -27 -55 -25 -85 8 -97 14 -6 69
19 97 44 16 13 18 12 27 -12 27 -70 141 4 141 92 0 34 -7 43 -26 35 -11 -4
-13 -14 -9 -33 5 -21 0 -35 -20 -59 -34 -39 -54 -40 -62 -1 -8 42 -20 46 -51
17 -15 -13 -42 -32 -59 -41 -31 -16 -33 -16 -33 2 0 10 14 40 30 66 28 43 31
66 11 66 -5 0 -13 -6 -18 -12z"/>
<path d="M8706 11397 c-31 -26 -39 -40 -43 -79 -5 -41 -2 -50 21 -73 20 -20
34 -25 59 -23 40 4 38 21 -4 29 -35 8 -49 23 -49 54 0 18 5 20 34 17 27 -3 40
2 60 22 31 30 32 40 6 66 -27 27 -41 25 -84 -13z m64 -22 c0 -16 -46 -32 -58
-21 -8 9 39 46 50 40 4 -3 8 -12 8 -19z"/>
<path d="M3843 11407 c3 -8 -6 -35 -19 -61 -25 -49 -32 -96 -14 -96 6 0 13 8
16 18 3 9 16 41 30 70 30 65 30 82 3 82 -13 0 -19 -5 -16 -13z"/>
<path d="M4750 11398 c-101 -68 -55 -194 59 -159 24 7 41 18 41 26 0 18 -9 19
-46 4 -33 -12 -70 -5 -77 16 -10 25 14 75 44 91 16 8 46 13 67 12 27 -2 37 1
37 12 0 27 -84 25 -125 -2z"/>
<path d="M7484 11376 c-46 -45 -58 -88 -32 -114 19 -19 80 -14 122 12 79 47
78 103 -2 130 l-45 16 -43 -44z m110 -16 c23 -23 -45 -80 -96 -80 -36 0 -37
28 -2 69 22 26 31 30 57 25 18 -3 36 -9 41 -14z"/>
<path d="M8940 11395 c-41 -30 -84 -90 -75 -104 10 -17 42 -13 85 9 l39 20 3
-32 c4 -41 28 -50 28 -10 0 16 7 46 15 66 14 33 14 37 0 43 -10 3 -27 -4 -43
-19 -15 -14 -37 -31 -50 -37 -12 -7 -20 -16 -17 -21 3 -6 -1 -7 -10 -4 -14 6
-11 12 17 41 18 18 38 31 45 29 14 -6 18 29 4 38 -4 3 -23 -6 -41 -19z"/>
<path d="M5041 11396 c-48 -26 -68 -99 -31 -111 25 -8 56 1 92 27 20 14 26 15
22 5 -8 -22 21 -84 40 -84 18 0 22 22 6 32 -13 8 -13 64 1 104 13 37 6 50 -20
34 -11 -7 -23 -8 -32 -2 -20 12 -50 11 -78 -5z m66 -32 c3 -11 -33 -38 -64
-48 -44 -14 -18 40 27 57 19 7 33 3 37 -9z"/>
<path d="M9378 11390 c-95 -51 -87 -136 13 -147 41 -5 47 -3 52 16 5 22 -14
43 -21 23 -6 -18 -37 -14 -63 7 l-24 19 20 22 c24 26 69 51 87 48 7 -2 13 4
13 12 0 22 -35 22 -77 0z"/>
<path d="M2606 11391 c-3 -5 -3 -16 0 -24 3 -9 -6 -44 -20 -78 -18 -45 -22
-67 -15 -74 8 -7 16 -2 27 15 31 46 85 101 115 117 29 15 30 15 23 -9 -16 -52
-23 -99 -15 -104 15 -9 29 6 29 30 0 13 7 40 16 61 14 34 14 40 1 53 -20 20
-58 9 -100 -28 l-34 -30 1 37 c1 34 -16 55 -28 34z"/>
<path d="M13162 11338 c-18 -18 -15 -24 19 -38 22 -10 33 -10 41 -2 8 8 7 13
-5 18 -9 3 -17 12 -17 20 0 17 -22 18 -38 2z"/>
<path d="M6185 11280 c-26 -29 -6 -47 23 -22 12 11 22 24 22 31 0 18 -25 13
-45 -9z"/>
<path d="M9457 11263 c-4 -3 -7 -11 -7 -17 0 -6 5 -5 12 2 6 6 9 14 7 17 -3 3
-9 2 -12 -2z"/>
<path d="M14095 11249 c-8 -25 -3 -31 19 -23 20 8 21 44 2 44 -8 0 -18 -9 -21
-21z"/>
<path d="M1676 10977 c-28 -36 -32 -53 -16 -59 6 -2 2 -25 -10 -57 -33 -87
-82 -261 -91 -329 -16 -113 32 -166 144 -160 48 3 52 5 52 28 0 19 -6 26 -24
28 -18 3 -22 0 -18 -12 11 -27 -66 -21 -100 8 -23 20 -27 31 -25 70 3 70 26
165 84 338 39 116 50 160 42 168 -9 9 -19 3 -38 -23z"/>
<path d="M12229 10913 c-38 -26 -81 -79 -129 -158 -36 -58 -155 -240 -166
-254 -2 -2 -18 -4 -35 -3 -39 1 -79 -14 -79 -29 0 -8 15 -9 48 -4 l47 7 -21
-24 c-39 -43 -85 -118 -79 -128 11 -18 20 -10 62 53 56 85 69 95 134 100 62 5
83 13 73 29 -4 7 -27 8 -61 4 l-54 -6 69 102 c37 57 83 129 102 161 19 33 54
77 78 99 37 34 47 38 73 33 26 -6 30 -4 27 12 -4 25 -56 28 -89 6z"/>
<path d="M13824 10893 c-28 -87 -151 -292 -177 -294 -7 -1 -31 -1 -54 0 -33 2
-43 -1 -43 -13 0 -10 15 -17 45 -22 25 -3 45 -7 45 -8 0 0 -9 -25 -20 -54 -11
-29 -20 -63 -20 -77 0 -34 41 -60 77 -49 35 10 43 11 71 13 12 1 22 7 22 16 0
11 -7 14 -22 10 -54 -11 -94 -14 -107 -6 -16 10 -9 51 21 118 l20 45 81 -4
c66 -2 82 0 82 11 0 10 -18 15 -70 19 -38 2 -71 5 -73 6 -1 2 21 39 50 82 53
82 110 202 102 216 -9 14 -24 9 -30 -9z"/>
<path d="M7327 10808 c-14 -18 -48 -79 -76 -136 l-52 -104 -42 4 c-33 2 -42
-1 -45 -14 -3 -15 4 -18 37 -18 l39 0 -14 -30 c-8 -16 -18 -45 -21 -64 -9 -58
36 -109 111 -126 31 -7 37 -5 51 16 8 13 15 26 15 29 0 9 -30 5 -48 -6 -14 -9
-26 -8 -51 5 -48 25 -58 55 -36 113 10 26 22 53 27 58 5 6 57 10 115 10 70 0
108 4 110 11 3 8 -30 14 -101 19 l-105 7 46 91 c25 51 54 104 64 119 38 53 15
68 -24 16z"/>
<path d="M13948 10688 c-37 -73 -85 -166 -107 -206 -38 -69 -43 -102 -17 -102
6 0 44 30 85 65 93 81 113 86 71 17 -21 -34 -27 -72 -11 -72 12 0 61 95 61
118 0 20 -18 42 -35 42 -5 0 -39 -25 -73 -55 -35 -30 -65 -55 -67 -55 -2 0 12
28 32 63 50 88 153 295 153 307 0 5 -6 10 -13 10 -7 0 -43 -60 -79 -132z"/>
<path d="M4010 10733 c0 -38 -61 -211 -77 -217 -9 -4 -36 -4 -60 0 -35 5 -43
3 -43 -10 0 -11 14 -17 51 -22 46 -6 50 -9 43 -28 -12 -36 -10 -109 4 -113 8
-3 12 7 12 30 0 19 7 51 15 70 13 32 19 36 57 39 52 4 65 28 16 28 -19 0 -37
2 -40 6 -3 3 7 48 23 101 33 109 35 133 14 133 -8 0 -15 -8 -15 -17z"/>
<path d="M4605 10729 c-4 -6 -5 -13 -2 -15 5 -6 -26 -102 -58 -182 l-18 -44
-60 4 c-38 2 -62 -1 -64 -8 -4 -13 28 -24 75 -24 37 0 39 -8 18 -68 -9 -25
-11 -44 -5 -47 16 -11 27 4 39 55 13 53 31 70 74 70 16 0 26 6 26 15 0 10 -10
15 -30 15 -16 0 -30 1 -30 3 0 2 18 54 40 116 22 61 40 114 40 116 0 10 -39 5
-45 -6z"/>
<path d="M4726 10633 c-15 -49 -46 -130 -67 -180 -21 -51 -39 -95 -39 -98 0
-16 32 -1 47 23 25 41 75 92 90 92 18 0 16 -21 -3 -48 -15 -21 -15 -25 2 -43
23 -25 30 -16 39 46 5 44 3 53 -14 69 -17 16 -25 17 -45 8 l-24 -11 28 83 c39
117 45 146 28 146 -9 0 -25 -34 -42 -87z"/>
<path d="M7610 10656 c0 -7 7 -19 15 -26 12 -10 16 -9 21 3 3 9 3 21 -1 27 -9
15 -35 12 -35 -4z"/>
<path d="M10502 10585 c-28 -25 -44 -32 -60 -28 -17 4 -22 1 -22 -12 0 -10
-18 -51 -40 -92 -37 -67 -43 -93 -21 -93 4 0 40 45 80 99 79 109 114 139 136
121 16 -13 28 1 19 24 -10 26 -52 18 -92 -19z"/>
<path d="M10758 10583 c-9 -10 -28 -42 -42 -70 -26 -53 -54 -79 -91 -85 -16
-2 -20 2 -18 26 1 16 10 37 19 47 16 18 16 19 -4 19 -25 0 -52 -45 -52 -84 0
-56 80 -55 132 2 24 26 88 137 88 154 0 14 -16 9 -32 -9z"/>
<path d="M10859 10588 c-1 -2 -3 -12 -4 -24 -1 -11 -21 -49 -45 -83 -65 -97
-40 -100 70 -7 121 101 133 101 80 -4 -26 -52 -32 -99 -10 -85 16 10 70 138
70 166 0 44 -44 40 -108 -11 l-50 -40 19 36 c10 21 16 41 13 45 -5 8 -32 13
-35 7z"/>
<path d="M14197 10575 c-78 -27 -129 -102 -105 -153 7 -14 24 -32 38 -39 35
-18 144 -16 180 2 36 18 41 41 8 30 -39 -13 -142 -17 -170 -6 -20 7 -28 18
-28 34 0 21 6 25 41 31 83 13 131 62 99 101 -15 18 -15 18 -63 0z m33 -39
c-16 -14 -81 -39 -87 -32 -7 7 62 46 82 46 17 0 17 -2 5 -14z"/>
<path d="M5640 10569 c-40 -16 -70 -50 -70 -79 0 -14 11 -41 25 -60 30 -41 32
-66 4 -80 -33 -18 -69 -4 -76 30 -7 37 -33 40 -33 5 0 -33 42 -75 75 -75 80 0
109 64 60 130 -31 42 -32 64 -3 84 31 22 63 20 80 -6 22 -33 42 -15 23 21 -20
40 -41 47 -85 30z"/>
<path d="M6480 10563 c-8 -3 -35 -22 -59 -42 -25 -19 -51 -36 -59 -37 -8 -2
-16 -5 -19 -8 -11 -10 20 -109 42 -134 20 -23 31 -27 77 -27 59 0 138 30 138
52 0 16 5 17 -65 -8 -91 -32 -145 -13 -145 50 0 13 6 21 17 21 9 0 36 9 59 20
49 24 72 66 54 99 -11 22 -15 23 -40 14z m8 -50 c-3 -18 -65 -59 -74 -50 -7 6
56 66 69 67 5 0 7 -8 5 -17z"/>
<path d="M8104 10560 c-12 -5 -40 -26 -62 -47 -49 -47 -63 -98 -39 -149 19
-38 47 -49 110 -42 74 9 186 72 165 93 -3 3 -33 -9 -68 -27 -35 -17 -85 -33
-110 -36 -41 -4 -49 -1 -64 19 -29 42 -21 56 34 61 75 7 121 59 100 113 -10
26 -29 30 -66 15z m26 -75 c-13 -15 -77 -31 -87 -22 -7 8 46 57 72 67 15 6 21
3 23 -12 2 -10 -2 -25 -8 -33z"/>
<path d="M8682 10558 c-17 -17 -15 -48 2 -48 18 0 32 38 19 51 -5 5 -14 4 -21
-3z"/>
<path d="M11180 10552 c-40 -20 -51 -58 -26 -94 9 -12 16 -33 16 -45 0 -29
-41 -41 -84 -25 -39 15 -56 0 -31 -28 14 -16 26 -19 59 -14 84 13 111 52 77
110 -12 19 -21 41 -21 49 0 16 61 38 82 30 21 -8 35 15 17 26 -21 13 -51 11
-89 -9z"/>
<path d="M2499 10537 c-35 -31 -71 -115 -67 -158 6 -61 30 -41 50 40 24 99 56
134 88 96 13 -16 40 -21 40 -7 0 17 -42 52 -63 52 -12 0 -34 -10 -48 -23z"/>
<path d="M6213 10553 c-7 -2 -13 -12 -13 -20 0 -9 -3 -13 -7 -10 -3 4 -26 -9
-50 -29 l-43 -35 0 25 c0 24 -4 26 -39 26 -39 0 -40 -1 -80 -76 -38 -69 -43
-94 -22 -94 5 0 25 27 46 60 56 90 79 103 54 31 -21 -59 3 -54 81 17 41 37 70
58 66 47 -31 -73 -37 -100 -28 -121 12 -24 39 -34 67 -24 19 7 18 9 -7 20 -35
17 -36 41 -2 114 30 67 23 88 -23 69z"/>
<path d="M9275 10549 c-17 -4 -47 -24 -68 -43 -33 -30 -38 -40 -35 -72 2 -26
11 -43 30 -57 24 -18 32 -19 67 -9 47 15 91 63 91 101 0 34 -27 91 -43 90 -7
0 -26 -5 -42 -10z m29 -39 c47 -17 28 -82 -30 -106 -75 -31 -102 31 -37 85 21
17 38 31 40 31 1 0 13 -4 27 -10z"/>
<path d="M9463 10548 c-9 -14 -10 -20 -12 -46 0 -10 -17 -37 -36 -59 -33 -38
-45 -73 -27 -73 4 0 24 16 43 36 48 51 128 114 145 114 22 0 17 -33 -11 -75
-32 -46 -44 -95 -24 -95 8 1 31 36 51 78 56 115 36 155 -54 108 -45 -23 -48
-24 -48 -6 0 24 -16 34 -27 18z"/>
<path d="M7868 10515 c-48 -35 -48 -35 -48 -11 0 33 -27 40 -67 16 -19 -11
-40 -20 -46 -21 -11 0 -78 -124 -77 -141 0 -5 7 -8 15 -8 8 0 26 22 40 49 21
43 78 101 98 101 14 0 6 -27 -19 -63 -14 -21 -23 -45 -20 -54 5 -11 19 -3 58
36 54 53 125 107 132 100 3 -2 -11 -29 -30 -59 -33 -52 -44 -100 -24 -100 5 0
16 15 24 34 8 19 26 52 40 73 57 84 11 112 -76 48z"/>
<path d="M2708 10523 c-37 -42 -54 -97 -50 -160 3 -30 34 -46 65 -34 44 17
125 152 107 181 -6 9 -15 -1 -33 -37 -31 -61 -74 -113 -93 -113 -30 0 0 133
35 154 12 8 6 26 -8 26 -4 0 -15 -8 -23 -17z"/>
<path d="M3665 10518 c-51 -30 -75 -87 -51 -123 21 -32 50 -39 86 -22 27 14
29 14 32 -6 5 -32 28 -33 28 -2 0 15 8 49 17 75 l17 48 -24 21 c-28 23 -74 27
-105 9z m79 -34 c9 -22 -64 -97 -87 -89 -27 11 -22 60 9 84 31 25 69 27 78 5z"/>
<path d="M4887 10492 c-89 -91 -58 -182 63 -182 63 0 120 17 120 37 0 11 -6
14 -22 9 -88 -26 -178 -14 -178 23 0 15 9 21 39 26 42 7 64 26 75 63 22 69
-38 84 -97 24z m73 3 c0 -21 -27 -54 -49 -58 -37 -7 -38 -1 -6 33 25 26 55 40
55 25z"/>
<path d="M7525 10508 c-4 -13 -18 -39 -31 -59 -28 -40 -36 -89 -16 -96 6 -3
12 1 12 9 0 7 6 24 14 38 70 127 70 130 40 130 -7 0 -16 -10 -19 -22z"/>
<path d="M2878 10434 c-30 -65 -37 -89 -28 -98 9 -8 16 -5 31 14 63 79 92 111
110 120 19 11 19 9 13 -54 -6 -55 -4 -66 8 -66 11 0 17 17 22 64 3 35 4 71 0
80 -10 25 -40 19 -80 -16 l-37 -33 16 31 c16 30 14 44 -5 44 -5 0 -27 -39 -50
-86z"/>
<path d="M9709 10502 c-15 -9 -40 -32 -57 -49 -27 -29 -29 -37 -22 -69 13 -55
32 -69 96 -68 37 0 60 5 71 17 25 24 12 29 -41 16 -39 -10 -50 -9 -71 5 -34
23 -31 43 8 51 69 16 109 69 75 103 -16 16 -28 15 -59 -6z m41 -28 c0 -11 -34
-33 -49 -34 -11 0 -10 5 4 20 17 19 45 27 45 14z"/>
<path d="M12699 10494 c-13 -14 -36 -35 -51 -45 l-27 -20 11 31 c8 23 7 35 -1
43 -12 12 -16 10 -78 -31 -21 -13 -23 -13 -23 8 0 15 -5 20 -17 18 -10 -2 -18
-11 -18 -21 0 -10 -15 -36 -34 -58 -54 -65 -26 -69 56 -10 38 28 73 51 76 51
4 0 2 -12 -3 -26 -21 -55 19 -59 78 -8 41 35 42 35 30 9 -11 -25 -10 -29 12
-47 19 -15 32 -18 64 -12 48 7 81 23 71 32 -4 4 -34 5 -67 4 l-59 -4 20 41
c12 22 21 47 21 56 0 24 -34 18 -61 -11z"/>
<path d="M12116 10485 c-38 -23 -86 -86 -86 -112 0 -23 25 -14 42 15 33 56 68
82 109 82 44 0 51 16 13 30 -33 13 -33 13 -78 -15z"/>
<path d="M5770 10476 c-19 -13 -43 -37 -52 -53 -16 -27 -16 -32 -1 -52 13 -19
22 -22 51 -18 19 4 43 14 53 23 18 16 19 16 19 -9 0 -17 5 -27 15 -27 10 0 15
10 15 30 0 17 7 45 16 61 14 28 14 32 -2 50 -23 26 -72 24 -114 -5z m90 -14
c0 -16 -66 -71 -92 -77 -40 -10 -36 15 7 54 33 28 85 42 85 23z"/>
<path d="M12255 10477 c-10 -8 -15 -19 -11 -25 4 -6 -3 -25 -15 -41 -47 -63 6
-100 87 -60 42 21 49 29 52 57 5 48 -21 82 -61 82 -18 0 -41 -6 -52 -13z m79
-33 c17 -45 -19 -80 -75 -72 -23 3 -22 4 15 46 42 46 51 50 60 26z"/>
<path d="M1860 10465 c0 -8 7 -15 15 -15 20 0 75 -28 75 -38 0 -5 -18 -18 -40
-31 -48 -27 -85 -70 -71 -84 7 -7 20 0 38 19 15 16 49 41 76 54 51 27 57 39
30 62 -48 42 -123 62 -123 33z"/>
<path d="M14890 10347 c-16 -36 -38 -98 -48 -138 -18 -68 -22 -74 -50 -80 -49
-10 -95 -42 -116 -82 -19 -36 -19 -37 -1 -57 28 -31 89 -27 125 8 29 29 35 45
70 191 11 46 32 109 47 140 31 65 33 73 15 79 -7 2 -24 -21 -42 -61z m-80
-262 c0 -25 -27 -72 -45 -79 -33 -12 -65 -7 -65 12 0 24 10 37 50 61 42 25 60
27 60 6z"/>
<path d="M8585 10380 c-7 -12 2 -30 16 -30 5 0 9 9 9 20 0 21 -15 27 -25 10z"/>
<path d="M8832 10329 c-47 -30 -66 -73 -72 -159 l-5 -75 -64 -5 c-91 -7 -95
-30 -6 -30 64 0 66 -1 60 -22 -6 -21 -67 -127 -97 -170 -7 -9 -9 -20 -5 -24
14 -14 59 42 103 131 36 70 50 90 67 90 30 1 31 19 2 35 -22 12 -25 20 -25 68
0 30 7 68 15 86 28 58 112 87 141 49 12 -17 13 -17 19 0 19 47 -72 65 -133 26z"/>
<path d="M12963 10278 c-22 -29 -48 -65 -58 -80 -14 -24 -24 -28 -60 -28 -24
0 -56 -5 -70 -10 -30 -11 -29 -37 1 -32 10 2 36 6 56 9 l38 5 -15 -35 c-45
-107 2 -178 118 -181 70 -2 72 20 3 28 -99 13 -126 56 -90 146 16 41 21 43 89
44 20 1 31 7 33 19 3 14 -4 17 -38 17 l-41 0 22 33 c12 17 35 46 52 64 26 28
30 53 8 53 -5 0 -27 -24 -48 -52z"/>
<path d="M11551 10302 c-5 -10 -24 -54 -41 -96 -46 -117 -60 -140 -73 -127
-32 32 -145 -6 -172 -59 -21 -40 -19 -66 6 -91 25 -25 56 -20 111 18 52 36
101 111 154 238 25 61 48 116 51 123 8 19 -25 14 -36 -6z m-128 -256 c7 -16
-58 -81 -95 -95 -36 -14 -56 8 -40 44 22 49 122 86 135 51z"/>
<path d="M3033 10277 c-12 -17 -34 -60 -48 -94 -27 -61 -28 -62 -74 -68 -77
-10 -91 -15 -91 -30 0 -15 31 -15 107 1 21 4 22 1 22 -51 -2 -102 54 -155 164
-155 44 0 57 3 57 15 0 11 -12 15 -49 15 -101 0 -141 37 -141 130 l0 53 90 -5
c50 -3 90 -2 90 4 0 15 -49 28 -106 28 -36 0 -54 4 -54 13 0 23 59 137 75 143
21 8 19 34 -2 34 -10 0 -28 -15 -40 -33z"/>
<path d="M7486 10268 c-3 -17 -20 -60 -36 -95 l-30 -63 -47 6 c-26 3 -52 6
-58 7 -5 1 -10 -5 -10 -13 0 -10 17 -18 52 -25 l52 -10 -20 -45 c-23 -52 -29
-111 -12 -117 7 -3 15 10 19 32 3 20 15 58 24 83 l18 47 51 0 c28 1 51 1 51 0
0 0 -11 -31 -24 -70 -23 -69 -24 -99 -3 -92 7 2 14 13 17 25 7 29 87 122 105
122 23 0 26 -15 13 -69 -8 -37 -8 -55 -1 -62 15 -15 29 13 38 78 6 44 4 54
-14 72 -27 27 -34 27 -75 -10 l-35 -30 9 33 c5 18 25 64 45 101 33 64 37 87
15 87 -5 0 -27 -38 -50 -85 -23 -47 -44 -85 -46 -85 -3 0 -2 5 1 10 3 6 -4 10
-17 11 -57 1 -59 9 -28 79 16 36 30 75 30 88 0 34 -27 26 -34 -10z"/>
<path d="M12123 10185 l-58 -115 -47 0 c-36 0 -48 -4 -48 -15 0 -17 55 -21 65
-5 10 17 24 11 20 -8 -2 -10 -10 -42 -18 -70 -10 -31 -12 -54 -6 -57 13 -9 29
4 29 23 0 9 7 35 14 57 14 39 15 40 63 40 36 0 48 4 48 15 0 10 -13 16 -39 18
-22 1 -41 4 -42 5 -2 1 20 46 47 99 27 54 49 105 49 113 0 38 -25 6 -77 -100z"/>
<path d="M6136 10275 c-3 -9 -6 -25 -6 -35 0 -10 -11 -45 -24 -77 -42 -98 -86
-214 -86 -224 0 -22 25 -5 77 51 31 34 60 57 64 53 4 -4 4 -26 -1 -49 -10 -42
-2 -92 15 -96 15 -4 28 151 14 168 -17 21 -40 17 -72 -13 l-29 -28 7 25 c4 14
23 62 42 107 34 79 39 123 17 130 -6 2 -14 -3 -18 -12z"/>
<path d="M2307 10263 c-4 -3 -7 -34 -7 -67 0 -34 -3 -78 -7 -99 -6 -38 -6 -38
-47 -35 -31 2 -41 -1 -41 -12 0 -10 12 -16 37 -18 l37 -3 -2 -77 c-2 -66 0
-77 16 -80 15 -3 17 2 12 35 -3 21 -2 58 3 83 l8 45 49 1 c77 1 85 3 85 19 0
12 -9 15 -32 14 -18 -2 -47 -2 -64 -1 l-32 2 4 73 c2 39 6 84 10 100 4 19 2
27 -9 27 -7 0 -17 -3 -20 -7z"/>
<path d="M10346 10263 c-3 -3 -6 -13 -6 -21 0 -8 -16 -48 -36 -89 l-36 -75
-45 7 c-25 4 -52 9 -59 12 -9 3 -14 -2 -14 -16 0 -21 25 -28 87 -22 22 2 22 1
8 -33 -20 -48 -20 -116 0 -116 10 0 15 10 15 34 0 18 5 47 11 65 9 27 16 31
46 31 19 0 44 5 55 11 22 12 19 0 -10 -33 -8 -10 -12 -25 -8 -33 5 -13 18 -5
69 40 l62 57 3 -77 c2 -54 6 -75 15 -72 8 2 13 33 15 85 2 71 1 82 -17 91 -15
8 -25 6 -45 -10 l-27 -21 27 59 c39 88 45 104 38 114 -12 20 -22 6 -59 -83
l-38 -93 -49 -3 c-54 -3 -54 -7 -4 95 14 29 26 62 26 72 0 21 -13 34 -24 24z"/>
<path d="M4244 10236 c-4 -9 1 -52 10 -96 20 -99 20 -108 4 -92 -13 13 -56 16
-83 6 -20 -8 -55 -75 -55 -107 0 -29 17 -47 45 -47 27 0 110 53 124 78 6 12 9
68 6 143 -4 116 -5 124 -25 127 -11 2 -23 -3 -26 -12z m-9 -217 c4 -6 13 -8
21 -5 17 7 18 -5 2 -26 -16 -20 -78 -58 -95 -58 -19 0 -16 31 7 68 20 32 52
43 65 21z"/>
<path d="M5852 10184 c-23 -31 -42 -60 -42 -65 0 -4 -35 -9 -77 -11 -61 -2
-78 -6 -78 -18 0 -12 13 -14 72 -12 l73 4 -20 -58 c-24 -70 -25 -102 -4 -133
16 -22 22 -23 93 -18 84 5 140 22 125 37 -15 15 -74 0 -75 -19 0 -10 -2 -11
-6 -3 -3 7 -25 12 -58 12 -67 0 -74 16 -49 106 l19 64 43 0 c49 0 56 24 8 26
-14 1 -29 4 -33 7 -7 8 20 52 54 89 23 24 25 48 4 48 -4 0 -26 -25 -49 -56z"/>
<path d="M13250 10189 c0 -38 24 -35 28 4 2 19 -1 27 -12 27 -11 0 -16 -10
-16 -31z"/>
<path d="M12327 10204 c-15 -15 -7 -45 11 -42 9 2 17 12 17 22 0 20 -16 31
-28 20z"/>
<path d="M11883 10180 c-34 -14 -73 -52 -73 -72 0 -10 5 -18 11 -18 5 0 8 -4
4 -10 -3 -5 6 -17 20 -26 14 -9 25 -22 25 -29 0 -17 -59 -37 -97 -33 -20 2
-28 -1 -28 -12 0 -11 12 -15 51 -15 97 1 134 55 74 109 -25 22 -29 30 -20 46
6 12 30 25 56 32 24 7 43 17 41 23 -5 13 -37 16 -64 5z"/>
<path d="M2009 10121 c-16 -16 -29 -35 -29 -42 0 -7 26 -38 57 -67 54 -51 56
-55 38 -68 -25 -18 -80 -18 -99 1 -20 21 -48 19 -44 -2 11 -56 170 -55 191 2
9 23 0 37 -54 79 -52 42 -61 69 -30 86 30 15 33 13 26 -20 -5 -23 -3 -30 8
-30 17 0 42 64 32 80 -13 21 -66 10 -96 -19z"/>
<path d="M8090 10133 c-14 -9 -28 -22 -32 -29 -5 -7 -17 -10 -27 -7 -16 4 -22
-5 -36 -54 -10 -32 -18 -71 -19 -87 -2 -44 21 -43 33 1 14 51 76 141 108 156
21 9 27 8 38 -6 17 -24 35 -21 30 5 -8 40 -53 50 -95 21z"/>
<path d="M15005 10141 c-43 -11 -65 -25 -107 -68 -47 -48 -57 -89 -29 -124 35
-44 155 -65 197 -34 10 8 17 15 14 15 -3 1 -36 2 -75 4 -91 3 -135 29 -118 72
5 12 15 15 47 10 75 -11 161 62 130 111 -13 21 -21 23 -59 14z m35 -39 c0 -26
-73 -63 -103 -53 -18 6 -18 7 0 22 39 35 103 53 103 31z"/>
<path d="M7860 10133 c-33 -13 -102 -69 -120 -99 -28 -45 -26 -90 5 -110 37
-24 172 -21 198 5 19 19 2 22 -59 12 -66 -10 -108 -5 -125 15 -17 20 -7 49 17
46 26 -3 103 24 126 45 21 18 24 63 6 81 -13 13 -24 14 -48 5z m30 -42 c0 -18
-34 -40 -90 -56 l-25 -8 20 23 c15 17 77 57 93 60 1 0 2 -8 2 -19z"/>
<path d="M6360 10114 c-37 -15 -90 -83 -90 -116 0 -49 42 -88 94 -88 45 0 86
13 86 26 0 8 11 19 25 24 34 13 31 30 -5 30 -20 0 -33 -6 -37 -17 -9 -25 -23
-33 -60 -33 -21 0 -41 8 -55 22 l-22 22 46 12 c95 24 137 82 86 118 -27 19
-24 19 -68 0z m60 -40 c0 -16 -83 -58 -101 -52 -6 2 2 18 19 36 33 35 82 45
82 16z"/>
<path d="M10665 10116 c-17 -7 -43 -28 -58 -45 -44 -53 -31 -112 27 -127 34
-8 151 0 151 11 0 6 -34 12 -75 15 -41 3 -81 9 -87 13 -23 14 -14 34 18 41 80
16 126 59 99 91 -15 18 -36 18 -75 1z m43 -28 c-4 -11 -78 -42 -78 -32 0 6 63
44 73 44 5 0 7 -5 5 -12z"/>
<path d="M11585 10112 c-43 -27 -95 -81 -96 -100 -5 -70 69 -115 132 -81 29
15 12 31 -26 23 -33 -6 -75 9 -75 26 0 6 9 10 20 10 11 0 20 5 20 11 0 5 4 8
10 4 13 -8 72 18 93 43 11 12 17 31 15 49 -2 23 -8 28 -33 31 -16 1 -44 -6
-60 -16z m63 -29 c-2 -10 -17 -24 -33 -33 -17 -8 -32 -17 -35 -20 -3 -3 -16
-7 -30 -9 l-25 -3 20 22 c24 27 75 60 93 60 8 0 12 -8 10 -17z"/>
<path d="M14204 10105 c-4 -8 -4 -22 0 -30 3 -9 0 -15 -8 -15 -15 0 -96 -100
-96 -118 0 -19 22 -14 49 11 15 13 56 45 94 71 l67 48 -20 -47 c-11 -26 -20
-59 -20 -75 0 -29 22 -56 39 -46 5 3 11 1 13 -5 2 -7 13 -9 26 -4 31 9 22 30
-14 30 -40 1 -42 29 -8 104 43 98 25 109 -71 42 -27 -19 -44 -28 -37 -21 15
17 16 70 2 70 -6 0 -13 -7 -16 -15z"/>
<path d="M14535 10110 c-27 -10 -95 -86 -95 -104 0 -57 130 -62 160 -6 8 15 8
30 -2 58 -21 62 -27 67 -63 52z m21 -54 c34 -35 9 -65 -53 -66 -33 0 -36 15
-7 49 29 35 39 37 60 17z"/>
<path d="M4445 10093 c-44 -23 -65 -44 -86 -85 -23 -46 -24 -86 -3 -117 16
-22 21 -23 91 -18 42 3 85 12 99 22 31 20 32 40 2 30 -13 -4 -49 -12 -81 -18
-65 -12 -90 -4 -95 31 -3 17 4 23 37 32 45 12 101 62 101 90 0 15 -25 52 -33
50 -1 -1 -15 -8 -32 -17z m1 -70 c-15 -13 -34 -23 -42 -23 -22 0 0 36 34 54
37 20 43 -1 8 -31z"/>
<path d="M7200 10085 c-31 -16 -70 -68 -70 -93 0 -26 41 -62 71 -62 32 0 86
34 94 59 8 26 -25 92 -50 101 -12 5 -31 2 -45 -5z m52 -60 c16 -21 7 -43 -22
-55 -51 -21 -89 12 -55 50 18 19 64 23 77 5z"/>
<path d="M12414 10081 c-42 -26 -127 -129 -120 -146 9 -24 19 -17 64 45 45 61
82 93 82 68 -1 -7 -7 -31 -15 -53 -18 -50 -19 -65 -2 -65 14 0 47 91 47 127 0
35 -22 45 -56 24z"/>
<path d="M2693 10068 c-32 -35 -43 -63 -43 -107 0 -28 4 -41 14 -41 18 0 40
53 32 78 -4 12 1 28 13 43 18 23 20 23 38 6 24 -21 43 -22 43 -3 0 18 -38 46
-60 46 -9 0 -26 -10 -37 -22z"/>
<path d="M3699 10070 c-1 -5 -2 -16 -3 -22 0 -7 -13 -32 -28 -55 -16 -23 -28
-46 -28 -52 0 -25 31 -8 56 29 26 38 71 76 81 67 2 -3 -3 -26 -11 -51 -16 -47
-10 -86 14 -101 18 -11 37 12 22 27 -16 16 -15 48 3 93 9 20 13 45 10 56 -7
21 -44 26 -63 7 -9 -9 -15 -9 -24 0 -15 15 -27 15 -29 2z"/>
<path d="M8917 10041 c-57 -63 -85 -131 -54 -131 6 0 26 25 42 56 17 30 38 62
47 71 15 13 19 13 40 -1 28 -20 38 -20 38 -2 0 16 -42 46 -63 46 -8 0 -31 -18
-50 -39z"/>
<path d="M12605 10069 c-39 -11 -88 -61 -83 -86 3 -15 12 -18 56 -17 48 2 52
0 52 -21 0 -29 24 -49 47 -40 17 6 17 7 1 19 -24 17 -23 41 3 67 43 43 -8 96
-76 78z m55 -33 c0 -11 -70 -46 -91 -46 l-24 1 28 24 c24 21 87 36 87 21z"/>
<path d="M13370 10071 c-64 -26 -108 -86 -90 -121 19 -36 82 -37 123 -2 20 18
21 34 4 84 -16 45 -18 47 -37 39z m10 -60 c15 -30 13 -38 -19 -51 -51 -21 -67
6 -29 47 26 28 34 29 48 4z"/>
<path d="M2500 10046 c-50 -25 -72 -64 -54 -94 13 -21 56 -27 83 -13 16 9 21
6 30 -19 5 -17 17 -30 27 -30 13 0 15 5 9 23 -4 12 -8 46 -9 76 -1 42 -5 56
-21 67 -17 11 -26 10 -65 -10z m56 -28 c9 -14 -40 -58 -67 -58 -27 0 -24 25 7
49 30 24 49 27 60 9z"/>
<path d="M9300 10055 c-7 -8 -21 -13 -30 -10 -13 4 -25 -6 -44 -39 -25 -43
-33 -76 -19 -76 4 0 29 21 55 47 l48 47 0 -32 c0 -20 5 -32 14 -32 18 0 38 25
28 36 -4 5 -3 6 2 1 5 -4 20 0 33 8 13 9 23 11 23 5 0 -5 13 -16 28 -24 26
-13 28 -13 29 4 1 10 -5 21 -13 24 -8 3 -14 17 -14 31 0 33 -17 31 -60 -6
l-35 -30 -5 27 c-6 33 -22 40 -40 19z"/>
<path d="M13156 10038 c-34 -45 -45 -79 -35 -105 15 -42 34 -28 30 23 -1 12 9
35 23 52 28 32 32 47 17 57 -5 3 -21 -9 -35 -27z"/>
<path d="M13482 10004 c-28 -36 -52 -72 -52 -80 0 -15 26 -19 32 -5 4 12 141
121 146 117 2 -2 -2 -23 -9 -45 -11 -36 -10 -44 4 -58 17 -18 92 -24 92 -8 0
6 -8 10 -17 9 -10 0 -18 3 -18 8 0 4 -9 8 -20 8 -24 0 -24 -2 -5 45 28 65 -4
96 -61 59 -22 -15 -24 -15 -18 0 15 38 -25 11 -74 -50z"/>
<path d="M12211 10010 c-36 -58 -44 -95 -21 -95 8 0 16 9 18 20 3 11 17 39 33
63 32 48 36 62 15 62 -8 0 -28 -23 -45 -50z"/>
<path d="M9076 10028 c-32 -24 -59 -79 -50 -103 10 -25 49 -36 84 -24 51 18
64 67 33 120 -20 34 -29 35 -67 7z m52 -51 c5 -25 -16 -47 -44 -47 -26 0 -31
18 -13 51 13 25 52 22 57 -4z"/>
<path d="M3914 10022 c-39 -39 -56 -120 -30 -141 35 -29 156 38 156 87 0 51
-91 90 -126 54z m86 -37 c16 -20 -10 -51 -58 -72 -42 -17 -53 -11 -42 26 4 16
5 33 2 37 -4 4 -1 4 6 0 6 -4 12 -3 12 3 0 10 21 18 51 20 9 0 22 -6 29 -14z"/>
<path d="M15195 9930 c-9 -15 4 -30 25 -30 24 0 36 20 19 31 -19 12 -36 11
-44 -1z"/>
<path d="M4887 9883 c-2 -4 -10 -25 -16 -45 -7 -20 -28 -51 -47 -67 -35 -31
-43 -51 -21 -51 37 0 103 84 90 116 -4 12 -3 15 5 10 7 -4 12 -1 12 8 0 9 0
19 1 23 1 11 -18 15 -24 6z"/>
<path d="M15479 9443 c-8 -9 -37 -55 -64 -102 l-51 -86 -89 3 c-96 3 -122 -5
-111 -34 5 -13 9 -15 18 -6 13 13 62 15 120 6 l37 -7 -24 -42 c-29 -49 -32
-104 -7 -134 19 -23 82 -41 82 -22 0 6 9 11 20 11 13 0 18 5 14 15 -7 17 -50
21 -56 5 -2 -6 -12 -4 -26 5 -27 20 -28 53 -3 104 24 47 44 63 73 61 59 -5
129 1 123 10 -3 6 -2 10 4 10 5 0 11 -5 13 -11 5 -16 58 0 58 18 0 11 -7 13
-32 7 -33 -8 -167 -8 -175 -1 -4 5 74 136 93 155 16 15 18 38 5 46 -5 3 -15
-2 -22 -11z"/>
<path d="M5554 9438 c-4 -6 -8 -64 -8 -128 -1 -110 -3 -120 -34 -182 -51 -104
-132 -164 -170 -126 -46 46 62 178 145 178 42 0 41 23 -1 28 -42 5 -80 -15
-130 -68 -78 -84 -73 -172 10 -178 51 -4 106 37 150 111 47 80 56 113 60 231
3 60 9 115 14 121 5 7 7 15 3 18 -10 11 -31 8 -39 -5z"/>
<path d="M2576 9393 c-4 -26 -20 -116 -36 -198 -17 -83 -30 -158 -30 -168 0
-30 28 -18 34 16 9 48 42 97 66 97 24 0 25 -12 4 -73 -16 -48 -16 -94 0 -90
10 2 32 72 42 133 7 43 -12 63 -57 62 -28 -1 -30 2 -24 25 5 20 23 129 37 218
2 12 -4 21 -14 23 -13 2 -18 -7 -22 -45z"/>
<path d="M6486 9403 c-9 -22 10 -41 25 -26 13 13 5 43 -10 43 -5 0 -12 -8 -15
-17z"/>
<path d="M2127 9379 c-32 -16 -55 -34 -52 -40 4 -5 2 -8 -3 -7 -17 5 -72 -42
-72 -62 0 -30 13 -25 62 23 43 42 135 94 146 82 4 -4 -25 -67 -63 -141 -52
-100 -66 -137 -58 -145 9 -9 22 -2 54 25 l43 36 15 -27 c8 -16 14 -30 14 -33
-2 -12 37 -77 56 -94 43 -39 110 9 136 98 16 52 22 206 10 226 -18 29 -28 -1
-26 -80 3 -127 -37 -230 -89 -230 -17 0 -53 62 -65 112 -10 42 -40 63 -69 50
-21 -9 -17 1 32 98 31 62 52 116 49 124 -10 24 -55 18 -120 -15z"/>
<path d="M13222 9374 c-25 -48 -121 -284 -132 -323 -12 -44 -7 -77 9 -67 5 3
15 30 21 58 7 29 25 80 40 113 68 149 92 217 82 227 -7 7 -13 4 -20 -8z"/>
<path d="M9680 9341 c0 -29 -31 -95 -88 -190 -50 -82 -55 -101 -28 -101 16 0
48 34 41 43 -3 4 -2 5 2 2 3 -3 17 2 30 10 23 15 23 15 17 -9 -3 -13 -1 -34 6
-45 14 -28 78 -29 111 -2 32 25 19 36 -24 20 -42 -15 -72 -6 -62 19 4 9 10 30
13 46 4 26 2 28 -19 24 -13 -3 -32 -9 -42 -13 -14 -6 -11 4 13 46 40 66 72
147 65 160 -11 16 -35 9 -35 -10z"/>
<path d="M12206 9311 c-9 -14 5 -42 18 -38 15 5 14 39 -1 44 -6 2 -14 0 -17
-6z"/>
<path d="M14115 9253 c-79 -41 -139 -127 -201 -288 -25 -66 -49 -132 -51 -147
-12 -67 44 -6 118 128 28 52 46 74 65 78 14 4 46 26 71 49 74 67 106 164 64
187 -25 13 -30 12 -66 -7z m46 -66 c-15 -43 -42 -79 -82 -108 -24 -17 -33 -18
-44 -9 -16 13 -10 34 6 24 6 -3 9 8 7 28 -2 43 5 54 60 89 54 34 69 27 53 -24z
m-147 -101 c-3 -14 -10 -23 -15 -21 -4 3 -3 17 3 30 14 31 21 26 12 -9z m-53
-113 c-24 -45 -27 -37 -6 14 8 20 18 34 21 30 3 -3 -4 -22 -15 -44z"/>
<path d="M10584 9215 c-86 -48 -113 -94 -78 -129 18 -18 48 -14 106 15 l37 19
3 -33 c2 -20 9 -33 20 -35 14 -3 15 3 11 38 -4 27 0 53 12 79 13 31 15 43 6
60 -16 30 -46 26 -117 -14z m89 -1 c12 -12 -34 -64 -73 -84 -40 -21 -80 -26
-80 -12 0 14 53 59 95 80 45 24 49 25 58 16z"/>
<path d="M10869 9226 c-42 -29 -99 -113 -99 -145 0 -33 19 -21 47 29 13 25 40
60 59 78 30 28 40 32 66 27 25 -6 29 -4 26 12 -5 28 -56 28 -99 -1z"/>
<path d="M11062 9220 c-77 -56 -108 -162 -57 -196 21 -13 39 -15 92 -10 71 7
111 22 96 37 -5 5 -34 4 -71 -2 -84 -15 -112 -7 -112 31 0 29 2 30 44 30 38 0
48 5 75 35 32 37 40 72 19 93 -19 19 -42 14 -86 -18z m68 -15 c0 -25 -47 -65
-75 -65 -26 0 -26 0 -8 24 18 24 60 55 76 56 4 0 7 -7 7 -15z"/>
<path d="M6607 9220 c-21 -11 -42 -18 -46 -15 -13 7 -27 -14 -46 -75 -10 -30
-20 -61 -23 -67 -2 -7 3 -13 12 -13 8 0 25 19 37 43 26 51 55 84 92 103 27 14
27 14 27 -18 0 -18 -10 -56 -21 -84 -20 -48 -21 -84 -2 -84 4 0 21 41 37 91
23 74 27 94 18 115 -14 29 -35 30 -85 4z"/>
<path d="M8470 9228 c-42 -12 -70 -35 -70 -57 0 -9 13 -32 30 -51 34 -40 38
-70 12 -93 -24 -22 -82 -23 -82 -1 0 21 -24 12 -28 -10 -6 -27 12 -39 56 -39
96 0 134 82 72 153 -16 19 -29 38 -30 41 0 14 62 31 95 26 19 -3 37 -1 41 5
16 25 -43 42 -96 26z"/>
<path d="M14639 9217 c-55 -29 -59 -50 -20 -107 38 -56 38 -68 4 -77 -35 -9
-56 -5 -66 13 -12 21 -27 17 -27 -6 0 -13 12 -26 34 -37 32 -15 36 -14 72 3
51 25 54 54 14 114 l-30 45 22 18 c15 13 31 17 50 13 23 -4 28 -2 28 13 0 10
-7 22 -16 25 -20 8 -15 9 -65 -17z"/>
<path d="M5695 9218 c-54 -30 -105 -96 -105 -137 0 -62 69 -116 132 -104 57
10 109 45 88 58 -6 4 -16 2 -23 -4 -7 -5 -31 -14 -54 -19 -34 -8 -47 -6 -72 9
-39 24 -39 46 0 54 35 8 109 74 109 98 0 17 -34 57 -47 57 -5 0 -17 -6 -28
-12z m39 -37 c7 -11 -12 -33 -51 -59 -61 -42 -72 -22 -18 33 35 34 59 43 69
26z"/>
<path d="M12303 9208 c-24 -11 -43 -26 -43 -34 0 -8 14 -26 30 -41 37 -32 38
-47 4 -78 -36 -33 -67 -34 -58 -1 7 31 -12 43 -26 15 -15 -28 -5 -66 20 -74
44 -14 134 71 123 115 -3 11 -17 29 -31 40 -28 23 -29 22 16 39 25 11 35 11
47 1 19 -16 34 -5 28 20 -7 27 -54 26 -110 -2z"/>
<path d="M14270 9203 c-35 -33 -100 -139 -100 -165 0 -33 28 -19 44 23 40 100
105 159 140 130 19 -16 32 5 16 24 -20 24 -67 18 -100 -12z"/>
<path d="M14834 9190 c-51 -39 -84 -89 -84 -129 0 -41 88 -97 113 -72 14 14
-1 31 -28 31 -28 0 -57 26 -53 48 3 16 10 21 77 48 24 10 50 24 57 32 20 20
17 60 -5 72 -25 13 -18 16 -77 -30z m66 -9 c0 -10 -35 -34 -65 -44 -14 -5 -10
2 13 23 32 30 52 38 52 21z"/>
<path d="M6410 9206 c0 -7 -14 -43 -30 -80 -28 -61 -31 -86 -11 -86 10 0 71
140 71 163 0 9 -7 17 -15 17 -8 0 -15 -6 -15 -14z"/>
<path d="M7417 9200 c-23 -18 -26 -18 -31 -3 -4 10 -10 13 -16 7 -18 -18 -80
-126 -80 -140 0 -24 24 -15 49 19 13 17 45 50 70 71 58 49 63 34 21 -55 -31
-66 -38 -103 -20 -114 6 -3 13 2 16 12 3 10 21 55 40 101 21 50 32 91 29 103
-8 25 -45 25 -78 -1z"/>
<path d="M7639 9205 c-28 -15 -72 -74 -88 -118 -40 -105 40 -155 173 -109 52
18 80 50 35 39 -133 -30 -138 -31 -164 -19 -20 9 -26 18 -23 39 3 23 10 28 54
38 92 21 133 70 100 120 -18 28 -48 31 -87 10z m61 -30 c10 -13 9 -19 -5 -35
-18 -20 -92 -46 -102 -36 -7 7 71 86 85 86 5 0 15 -7 22 -15z"/>
<path d="M9152 9195 c-18 -15 -37 -23 -46 -19 -10 4 -18 -1 -22 -12 -3 -11
-16 -43 -30 -72 -27 -59 -29 -72 -11 -72 6 0 28 26 48 59 47 75 103 120 130
103 26 -17 31 -15 27 11 -5 34 -57 35 -96 2z"/>
<path d="M11285 9177 c-34 -34 -45 -52 -45 -76 0 -44 33 -58 85 -37 21 9 39
15 40 14 0 -2 6 -15 13 -30 13 -32 53 -45 88 -29 32 14 21 34 -15 26 -49 -10
-57 15 -27 81 32 69 32 84 4 84 -13 0 -40 3 -61 6 -35 6 -41 3 -82 -39z m105
-2 c11 -13 6 -21 -24 -50 -25 -24 -47 -35 -67 -35 -39 0 -38 23 5 66 37 37 66
43 86 19z"/>
<path d="M13310 9198 c-54 -27 -64 -62 -31 -104 12 -15 21 -33 21 -40 0 -22
-40 -37 -81 -30 -22 3 -39 3 -39 -2 0 -17 26 -32 57 -32 85 0 120 57 72 118
-10 14 -19 29 -19 33 0 14 63 49 88 49 13 0 22 6 22 15 0 22 -39 19 -90 -7z"/>
<path d="M4974 9194 c-4 -11 -24 -57 -45 -103 -22 -46 -39 -90 -39 -97 0 -26
19 -14 51 34 42 62 97 120 132 138 33 18 33 16 1 -49 -35 -69 -43 -98 -33
-125 6 -15 17 -22 34 -22 27 0 34 17 10 26 -23 9 -18 40 16 115 17 38 29 75
26 84 -9 22 -39 19 -78 -8 -61 -41 -62 -42 -50 -19 8 15 7 23 -4 32 -12 10
-16 9 -21 -6z"/>
<path d="M7135 9159 c-48 -44 -61 -74 -50 -109 16 -52 92 -42 149 18 25 27 28
36 23 69 -12 74 -57 81 -122 22z m90 -19 c13 -40 -42 -95 -88 -88 -33 5 -32
32 3 72 37 41 75 48 85 16z"/>
<path d="M12915 9184 c-41 -21 -91 -71 -105 -104 -27 -65 35 -93 100 -45 19
14 36 25 38 25 2 0 2 -12 0 -27 -2 -20 2 -28 12 -28 8 0 15 9 16 20 1 11 2 29
3 41 0 12 12 38 26 59 29 41 28 58 -1 60 -10 1 -28 5 -39 8 -11 4 -33 0 -50
-9z m59 -33 c7 -11 -99 -111 -118 -111 -29 0 -17 39 24 80 38 38 81 52 94 31z"/>
<path d="M3717 9172 c-15 -9 -37 -36 -48 -60 -20 -40 -20 -44 -5 -67 19 -29
39 -31 80 -10 36 19 34 20 38 -12 2 -17 10 -29 20 -31 16 -3 17 2 12 41 -5 31
-1 53 11 77 17 33 17 33 -12 56 -34 28 -58 29 -96 6z m72 -26 c10 -12 6 -22
-21 -50 -41 -43 -72 -51 -76 -18 -2 14 7 33 27 52 33 33 52 37 70 16z"/>
<path d="M8671 9172 c-69 -33 -112 -129 -78 -175 15 -21 87 -36 87 -18 0 7 9
9 23 6 25 -6 53 8 43 23 -4 6 -21 6 -50 0 -53 -11 -86 2 -86 35 0 23 20 62 20
40 0 -23 66 -15 96 10 21 19 26 29 20 50 -9 39 -35 49 -75 29z m43 -37 c6 -15
-21 -35 -48 -35 -20 0 -20 9 1 32 20 22 39 23 47 3z"/>
<path d="M9321 9168 c-72 -35 -104 -114 -62 -152 26 -24 93 -32 131 -16 31 13
37 24 20 35 -5 3 -10 3 -10 -2 0 -12 -74 -15 -104 -3 -36 13 -33 45 7 85 39
39 82 53 109 36 15 -9 20 -8 24 3 16 41 -46 48 -115 14z"/>
<path d="M12124 9153 c-4 -21 -18 -60 -31 -87 -18 -35 -21 -52 -14 -59 7 -7
14 -7 19 -1 17 18 52 112 54 144 4 47 -19 50 -28 3z"/>
<path d="M14394 9161 c-65 -47 -78 -67 -75 -114 2 -36 138 -67 138 -32 0 10
-10 15 -28 15 -49 0 -81 17 -77 42 4 26 81 88 110 88 39 0 14 -34 -42 -57 -67
-26 -81 -49 -24 -39 45 9 92 34 107 57 5 9 7 28 3 42 -9 38 -59 37 -112 -2z"/>
<path d="M15077 9170 c-14 -11 -30 -20 -36 -20 -11 0 -51 -80 -51 -101 0 -17
29 -9 34 9 4 10 23 34 43 53 26 25 34 29 29 14 -25 -69 -13 -115 29 -115 31 0
32 13 3 32 l-23 15 23 54 c12 30 22 60 22 67 0 19 -45 14 -73 -8z"/>
<path d="M8865 9151 c-62 -36 -79 -54 -70 -80 8 -26 31 -30 79 -14 48 16 46
16 46 -5 0 -10 7 -28 16 -41 22 -30 39 -14 23 22 -10 22 -8 32 10 67 26 50 26
60 2 60 -11 0 -23 5 -26 10 -10 16 -26 12 -80 -19z m69 -33 c-8 -13 -74 -38
-98 -38 -20 0 -20 1 4 20 43 34 84 50 92 37 4 -6 4 -15 2 -19z"/>
<path d="M13455 9139 c-48 -45 -54 -62 -29 -97 38 -54 154 -7 154 62 0 39 -29
76 -59 76 -12 0 -42 -19 -66 -41z m93 -28 c5 -32 -25 -61 -63 -61 -51 0 -51
31 -1 86 17 18 61 1 64 -25z"/>
<path d="M2752 9145 c-77 -65 -61 -165 27 -165 27 0 38 4 38 15 0 10 -11 15
-33 15 -22 0 -37 6 -43 18 -8 15 -3 22 29 42 41 25 63 60 54 85 -9 22 -39 18
-72 -10z m21 -41 c-11 -17 -19 -22 -21 -14 -3 7 3 19 14 27 26 19 27 17 7 -13z"/>
<path d="M3990 9160 c-8 -5 -26 -8 -41 -5 -23 5 -27 0 -57 -72 -36 -87 -37
-93 -19 -92 6 0 29 26 49 57 20 31 51 66 69 76 l32 19 -7 -39 c-4 -21 -10 -58
-15 -81 -8 -44 2 -79 17 -56 16 25 36 165 25 182 -13 20 -33 24 -53 11z"/>
<path d="M5214 9162 c-6 -4 -27 -31 -48 -61 -28 -42 -36 -63 -34 -89 4 -50 27
-60 78 -37 73 33 98 102 58 160 -23 35 -34 41 -54 27z m36 -79 c0 -46 -6 -56
-47 -77 -41 -20 -43 -20 -43 5 0 25 16 57 43 87 31 33 47 28 47 -15z"/>
<path d="M2907 9153 c-4 -3 -7 -16 -7 -28 0 -12 -9 -41 -21 -64 -11 -24 -17
-50 -14 -59 6 -14 10 -12 28 12 12 17 36 46 54 65 l31 36 -11 -49 c-10 -45 -9
-50 11 -67 22 -17 56 -20 80 -5 19 11 4 27 -21 21 -43 -10 -51 7 -33 68 9 30
16 60 16 66 0 17 -29 13 -60 -9 l-28 -20 5 20 c5 20 -15 29 -30 13z"/>
<path d="M4117 9143 c-13 -21 -26 -89 -21 -109 8 -33 32 -37 71 -14 l34 20
-22 -39 c-12 -22 -40 -63 -62 -92 -38 -50 -67 -106 -67 -129 0 -24 29 -7 39
23 6 18 31 59 56 92 56 74 138 236 126 248 -12 12 -34 -2 -28 -17 5 -14 -14
-34 -29 -29 -5 2 -23 -10 -39 -27 -39 -40 -56 -40 -48 3 3 17 10 39 14 48 11
22 -12 42 -24 22z"/>
<path d="M12647 8928 c-73 -157 -90 -188 -100 -188 -7 0 -29 5 -51 11 -27 7
-42 7 -49 0 -12 -12 -6 -21 15 -25 7 -2 29 -6 49 -10 l37 -8 -19 -60 c-18 -60
-16 -92 5 -85 6 2 12 12 14 23 2 10 10 42 18 70 l14 52 63 6 c47 5 64 11 64
22 0 12 -11 14 -54 9 -31 -3 -53 -2 -53 4 0 5 22 56 50 112 27 56 47 105 44
110 -11 19 -23 7 -47 -43z"/>
<path d="M2165 8960 c-9 -15 4 -30 25 -30 24 0 36 20 19 31 -19 12 -36 11 -44
-1z"/>
<path d="M12834 8933 c-11 -39 -69 -183 -105 -266 -43 -97 -46 -107 -24 -107
8 0 15 4 15 9 0 21 103 120 136 131 19 7 37 10 40 8 2 -3 -7 -31 -22 -62 -24
-53 -26 -86 -5 -86 5 0 15 19 24 43 8 23 20 56 27 73 27 63 -14 82 -97 44 -24
-10 -43 -18 -43 -16 0 2 18 47 40 100 39 95 50 146 30 146 -6 0 -13 -8 -16
-17z"/>
<path d="M5100 8914 c-6 -14 -10 -29 -10 -33 0 -4 -11 -29 -24 -57 -59 -123
-108 -245 -102 -251 7 -8 40 8 35 17 -2 3 8 16 21 30 14 14 37 39 51 56 34 42
79 71 80 53 3 -38 -4 -85 -13 -90 -14 -9 0 -49 17 -49 14 0 19 19 31 101 6 46
-10 79 -38 79 -19 0 -78 -41 -72 -51 3 -5 -2 -9 -10 -9 -20 0 -20 3 4 49 27
55 60 143 60 164 0 26 -19 21 -30 -9z"/>
<path d="M3197 8913 c-3 -4 -10 -35 -17 -68 -6 -33 -16 -77 -21 -98 l-10 -39
-71 4 c-48 2 -72 -1 -75 -9 -3 -8 19 -14 67 -19 60 -6 70 -9 65 -23 -13 -32
-26 -121 -20 -131 11 -17 22 -2 30 37 15 87 27 113 51 113 17 0 22 4 18 15 -4
8 -12 15 -18 15 -10 0 -8 22 7 88 10 48 20 93 21 101 1 16 -20 26 -27 14z"/>
<path d="M3349 8918 c-1 -2 -3 -16 -5 -33 -5 -55 -30 -149 -52 -199 -25 -56
-28 -96 -8 -96 7 0 19 13 25 28 17 40 58 82 81 82 24 0 24 3 5 -50 -8 -23 -15
-58 -15 -77 0 -27 4 -34 18 -31 11 2 16 11 14 25 -2 12 4 46 12 74 20 67 20
66 -9 85 -22 14 -27 14 -54 1 -30 -15 -30 -15 -20 10 17 46 41 162 34 173 -6
9 -23 14 -26 8z"/>
<path d="M6634 8909 c-4 -8 -9 -20 -9 -29 -3 -35 -28 -91 -45 -100 -10 -5 -41
-10 -69 -11 -53 -2 -71 -13 -53 -31 7 -7 25 -7 56 0 25 5 47 8 49 5 3 -2 -6
-35 -19 -73 -24 -69 -24 -100 2 -100 9 0 14 12 14 33 0 17 11 56 23 86 17 43
29 57 53 65 30 11 37 36 10 36 -11 0 -10 12 2 55 11 39 12 59 5 66 -8 8 -13 7
-19 -2z"/>
<path d="M10797 8913 c-4 -3 -7 -13 -7 -22 0 -33 -72 -189 -90 -194 -10 -2
-41 0 -69 6 -28 5 -54 7 -57 4 -13 -13 9 -25 65 -36 l59 -12 -19 -54 c-10 -30
-19 -64 -19 -75 0 -34 27 -23 33 14 3 18 15 56 27 85 18 40 27 51 46 51 32 0
74 17 74 31 0 8 -13 10 -40 5 -22 -3 -40 -3 -40 1 0 5 16 46 35 93 19 47 35
91 35 98 0 13 -22 17 -33 5z"/>
<path d="M10957 8913 c-4 -3 -7 -12 -7 -20 0 -13 -56 -150 -113 -276 -21 -47
-27 -71 -20 -78 8 -8 22 6 48 45 43 65 94 111 107 98 5 -5 2 -27 -7 -53 -21
-56 -35 -112 -30 -117 10 -11 35 10 35 28 0 12 6 33 14 48 50 97 14 167 -58
111 -14 -11 -26 -18 -26 -15 0 3 18 46 40 95 22 49 40 100 40 115 0 25 -10 33
-23 19z"/>
<path d="M4882 8883 c-6 -16 -16 -47 -23 -70 -12 -42 -13 -43 -55 -43 -24 0
-46 -5 -49 -11 -10 -16 0 -21 39 -21 20 0 36 -3 36 -6 0 -4 -12 -41 -25 -82
-29 -87 -30 -90 -10 -90 9 0 23 30 41 90 26 86 28 90 56 90 20 0 28 5 28 18 0
14 2 15 10 2 5 -8 12 -11 15 -8 15 15 -8 29 -36 23 -16 -4 -29 -5 -29 -2 0 2
9 30 20 63 24 71 24 74 6 74 -7 0 -18 -12 -24 -27z"/>
<path d="M6796 8848 c-10 -24 -29 -73 -41 -109 -12 -36 -30 -79 -39 -97 -36
-70 -5 -71 48 -2 36 48 76 81 76 63 0 -4 -7 -33 -15 -63 -18 -67 -19 -93 -3
-88 12 4 47 118 48 156 0 30 -27 39 -62 19 l-28 -16 7 27 c3 15 17 51 30 80
26 60 28 72 10 72 -7 0 -21 -19 -31 -42z"/>
<path d="M9280 8868 c0 -6 -30 -85 -66 -176 -52 -128 -64 -166 -54 -175 9 -9
15 -8 24 7 22 37 118 146 137 156 24 13 24 3 -1 -51 -22 -48 -25 -84 -10 -94
6 -3 13 2 16 12 3 10 16 45 29 78 40 103 -1 127 -85 49 l-49 -46 23 58 c13 33
36 87 50 121 31 75 31 73 6 73 -11 0 -20 -5 -20 -12z"/>
<path d="M5601 8755 c-22 -20 -44 -34 -51 -33 -13 3 -73 -149 -64 -163 12 -19
25 -7 54 52 39 80 63 112 94 129 23 12 28 12 40 -5 14 -19 36 -13 36 10 0 20
-28 45 -51 45 -10 0 -37 -16 -58 -35z"/>
<path d="M6676 8775 c4 -8 10 -12 15 -9 11 6 2 24 -11 24 -5 0 -7 -7 -4 -15z"/>
<path d="M8001 8691 c-34 -50 -64 -91 -68 -91 -3 0 -3 34 -1 76 5 71 4 75 -15
72 -19 -3 -20 -10 -18 -86 1 -46 4 -89 7 -95 2 -7 -21 -43 -52 -82 -54 -68
-94 -133 -94 -155 0 -25 28 -6 47 33 11 23 40 67 65 97 116 144 215 297 200
312 -7 7 -28 -17 -71 -81z"/>
<path d="M8410 8738 c-59 -84 -95 -127 -105 -128 -5 0 -21 -9 -35 -20 -20 -15
-22 -21 -13 -31 10 -10 20 -6 50 18 21 17 37 38 37 47 -1 9 2 16 7 16 5 0 9
-11 9 -25 0 -53 65 -52 123 3 25 24 27 25 27 5 0 -27 27 -50 41 -36 7 7 7 17
-2 31 -11 17 -11 30 -1 67 14 52 8 73 -15 54 -17 -15 -46 -69 -36 -69 3 0 -11
-13 -33 -30 -40 -30 -74 -39 -74 -18 0 6 16 40 35 75 19 35 35 68 35 73 0 22
-22 8 -50 -32z"/>
<path d="M9819 8753 c-33 -89 -80 -155 -98 -137 -3 3 -8 36 -11 72 -4 51 -9
67 -20 67 -8 0 -13 -7 -11 -15 1 -8 3 -35 2 -60 -1 -61 16 -100 43 -100 26 0
74 50 101 105 10 22 25 48 33 57 8 9 11 22 7 27 -12 20 -35 11 -46 -16z"/>
<path d="M12055 8758 c-22 -11 -50 -30 -63 -42 l-24 -21 7 28 c12 46 -21 33
-38 -15 -8 -24 -41 -105 -72 -181 -32 -76 -55 -141 -52 -144 16 -16 38 14 66
89 58 153 50 139 77 121 47 -31 128 6 172 80 31 50 35 73 17 91 -21 21 -41 20
-90 -6z m65 -26 c0 -29 -47 -88 -83 -106 -43 -20 -51 -20 -66 -2 -15 18 25 66
84 101 49 28 65 30 65 7z"/>
<path d="M5313 8748 c-57 -40 -87 -128 -56 -166 31 -38 134 -36 141 2 3 15 0
16 -20 10 -52 -19 -107 -4 -108 28 0 4 25 19 56 34 70 33 90 67 55 95 -29 24
-30 24 -68 -3z m51 -32 c-5 -14 -46 -36 -66 -36 -6 0 -1 11 12 25 25 27 63 35
54 11z"/>
<path d="M9984 8754 c-120 -59 -136 -190 -25 -208 52 -8 101 2 101 22 0 8 8
21 17 28 10 7 15 16 10 20 -11 12 -62 -9 -62 -26 0 -11 -11 -14 -45 -12 -44 3
-70 21 -70 49 0 7 6 13 13 13 52 0 147 58 147 90 0 41 -33 50 -86 24z m46 -33
c-5 -11 -26 -25 -45 -32 -19 -7 -35 -20 -35 -29 0 -13 -2 -13 -10 0 -11 18 8
42 53 64 42 21 50 20 37 -3z"/>
<path d="M3542 8733 c-64 -68 -80 -108 -61 -163 13 -36 35 -50 79 -50 32 0
110 34 110 49 0 18 -12 18 -48 0 -66 -34 -112 -21 -112 31 0 22 6 29 38 38 21
7 49 23 62 37 20 21 22 30 14 53 -13 38 -47 40 -82 5z m48 -32 c-9 -18 -31
-31 -53 -31 -6 0 2 13 18 30 30 31 52 31 35 1z"/>
<path d="M6963 8725 c-88 -75 -73 -175 26 -175 49 0 76 15 79 44 2 31 -12 33
-35 6 -24 -27 -68 -26 -88 2 -15 22 -14 23 38 41 64 21 99 50 90 75 -19 53
-54 55 -110 7z m75 -13 c4 -13 -66 -47 -77 -37 -8 8 51 56 63 52 6 -2 12 -9
14 -15z"/>
<path d="M8160 8745 c0 -8 -7 -15 -15 -15 -19 0 -75 -86 -75 -116 0 -60 65
-71 116 -20 37 37 44 75 23 135 -11 32 -49 45 -49 16z m29 -75 c1 -28 -23 -62
-56 -79 -18 -9 -23 -8 -28 9 -7 23 18 76 45 93 11 6 20 19 21 27 1 24 18 -21
18 -50z"/>
<path d="M9510 8728 c-69 -35 -99 -122 -50 -148 13 -7 27 -4 54 15 33 23 37
23 42 7 19 -62 40 -59 36 6 -2 26 1 60 7 76 21 53 -24 76 -89 44z m53 -38 c-7
-25 -71 -82 -86 -77 -20 7 -8 40 24 70 36 33 70 37 62 7z"/>
<path d="M4582 8720 c-35 -21 -72 -74 -72 -102 0 -10 9 -27 21 -39 17 -17 28
-20 57 -14 85 15 131 66 111 124 -19 53 -61 65 -117 31z m84 -35 c13 -34 -5
-63 -51 -80 -36 -14 -48 -15 -60 -5 -19 16 -19 18 5 58 15 25 24 31 33 24 8
-7 18 -6 31 4 25 18 35 18 42 -1z"/>
<path d="M7170 8730 c0 -6 -13 -45 -30 -87 -35 -86 -34 -83 -16 -83 13 0 31
19 104 109 57 71 59 48 4 -67 -13 -29 -13 -35 -1 -43 25 -16 39 -10 39 18 0
15 10 51 21 79 12 29 19 59 16 68 -10 26 -48 19 -84 -16 l-32 -31 2 28 c1 15
-4 30 -10 32 -7 3 -13 -1 -13 -7z"/>
<path d="M2319 8711 c-13 -10 -29 -16 -36 -14 -10 4 -27 -12 -28 -27 -1 -3
-11 -24 -23 -47 -12 -23 -22 -47 -22 -53 0 -23 27 -7 49 30 29 46 88 106 96
98 3 -3 1 -26 -5 -50 -14 -56 -10 -113 9 -113 9 0 14 15 16 45 1 25 6 69 10
98 8 51 7 52 -17 52 -14 0 -36 -8 -49 -19z"/>
<path d="M11092 8717 c-58 -27 -83 -154 -39 -195 26 -24 58 -27 126 -9 30 8
45 18 47 30 2 15 -2 18 -19 12 -12 -4 -44 -12 -71 -17 -43 -10 -50 -9 -62 7
-8 10 -14 30 -14 44 0 23 5 26 37 28 60 3 79 11 91 38 26 56 -32 93 -96 62z
m66 -46 c-2 -11 -16 -17 -47 -19 -41 -3 -43 -2 -31 13 29 35 84 39 78 6z"/>
<path d="M12242 8717 c-44 -9 -92 -54 -92 -87 0 -21 25 -50 44 -50 6 0 28 8
47 18 l35 18 -4 -23 c-6 -34 6 -73 24 -73 12 0 14 7 8 35 -5 27 1 49 25 101
17 36 31 68 31 70 0 5 -71 0 -118 -9z m39 -51 c-29 -31 -83 -58 -94 -47 -11
11 19 58 41 64 9 3 30 5 46 6 l29 1 -22 -24z"/>
<path d="M2110 8711 c0 -7 -4 -10 -10 -6 -15 9 -49 -67 -43 -97 7 -35 48 -53
87 -38 38 14 28 34 -20 34 -33 1 -39 4 -36 21 2 11 12 33 24 48 14 21 17 32 9
40 -8 8 -11 8 -11 -2z"/>
<path d="M5967 8604 c-3 -3 -3 -12 -1 -19 7 -16 -27 -84 -52 -106 -11 -9 -29
-20 -41 -23 -22 -7 -30 -26 -17 -39 10 -9 55 17 86 50 46 48 76 143 45 143 -8
0 -16 -3 -20 -6z"/>
<path d="M13008 8537 c-29 -11 -38 -37 -13 -37 25 0 65 23 65 37 0 15 -14 15
-52 0z"/>
<path d="M7075 8210 c-121 -60 -141 -137 -62 -241 81 -106 83 -145 10 -209
-53 -46 -77 -55 -136 -47 -30 4 -50 15 -69 37 -32 34 -34 53 -14 92 17 33 2
49 -22 24 -24 -24 -22 -94 3 -128 26 -36 75 -59 128 -60 54 -1 90 18 145 74
71 74 67 115 -23 242 -51 71 -49 113 9 160 46 38 92 47 103 21 3 -9 0 -36 -7
-61 -18 -62 0 -81 30 -33 15 25 20 45 16 73 -8 66 -49 87 -111 56z"/>
<path d="M2190 8086 c-40 -8 -56 -16 -58 -30 -3 -13 1 -17 15 -13 67 19 170
29 249 23 114 -8 114 -8 114 -18 0 -4 12 -8 26 -8 40 0 24 22 -32 42 -58 20
-226 23 -314 4z"/>
<path d="M2605 8078 c-2 -7 -20 -78 -41 -158 -20 -80 -45 -169 -56 -199 -11
-34 -15 -58 -9 -64 12 -12 31 0 31 19 0 25 49 113 69 124 56 30 76 0 59 -86
-10 -52 -5 -96 11 -78 4 5 13 37 20 72 14 73 2 127 -29 137 -10 3 -35 -1 -54
-9 -20 -8 -36 -14 -36 -13 0 1 16 58 34 127 19 68 32 128 30 132 -8 12 -24 9
-29 -4z"/>
<path d="M6416 8078 c-2 -7 -7 -33 -10 -58 -3 -26 -24 -86 -46 -135 -68 -148
-85 -235 -46 -235 9 0 14 11 14 34 0 43 14 88 65 200 40 91 59 188 38 201 -6
3 -13 0 -15 -7z"/>
<path d="M8110 8070 c0 -5 -28 -67 -61 -137 -92 -191 -107 -243 -72 -243 10 0
49 30 87 68 38 37 66 59 62 48 -34 -97 -33 -159 2 -164 29 -4 75 14 97 38 25
27 0 35 -34 11 -66 -47 -75 -21 -36 96 38 112 17 119 -80 26 -23 -21 -49 -44
-58 -52 -16 -13 -17 -12 -8 11 5 13 36 82 70 153 64 135 70 155 46 155 -8 0
-15 -4 -15 -10z"/>
<path d="M4325 8033 c21 -110 -9 -221 -81 -303 -78 -85 -125 -60 -69 37 21 35
31 43 55 43 34 0 47 15 24 28 -21 12 -53 4 -78 -17 -26 -23 -56 -86 -56 -119
0 -36 16 -52 56 -52 25 0 41 11 83 55 28 30 61 76 72 102 43 99 46 254 5 261
-17 4 -18 0 -11 -35z"/>
<path d="M5320 8044 c0 -14 -7 -57 -15 -97 -9 -40 -18 -82 -21 -94 -3 -18 -14
-24 -44 -29 -22 -4 -43 -11 -47 -16 -7 -13 18 -29 31 -20 6 3 19 7 28 7 22 2
23 -17 3 -110 -8 -38 -15 -71 -15 -72 0 -2 6 -3 14 -3 18 0 24 17 39 112 l13
73 53 5 c76 7 81 30 7 30 l-55 0 5 33 c4 17 12 57 20 88 19 76 18 119 -1 119
-9 0 -15 -10 -15 -26z"/>
<path d="M10140 7998 c-24 -104 -49 -176 -79 -225 -55 -89 -35 -98 46 -22 29
28 59 49 66 46 8 -3 11 -24 9 -66 -2 -48 0 -61 12 -61 20 0 33 102 17 136 -12
28 -51 32 -75 8 -21 -20 -20 -9 4 62 12 32 22 78 23 100 1 23 6 39 11 36 5 -3
6 2 3 12 -4 10 -7 20 -7 22 0 2 -4 4 -9 4 -5 0 -14 -24 -21 -52z"/>
<path d="M12964 7956 l-49 -75 -57 0 c-53 -1 -79 -13 -63 -29 4 -4 29 -6 57
-5 42 1 48 -1 42 -15 -30 -71 -45 -134 -37 -159 8 -24 15 -28 49 -28 28 0 39
4 39 15 0 10 -9 14 -27 13 -16 -1 -29 4 -29 10 -5 50 38 165 64 173 13 4 17
12 13 28 -4 16 6 37 34 75 43 57 48 71 26 71 -7 0 -35 -33 -62 -74z"/>
<path d="M2389 7998 c-1 -7 -1 -31 0 -54 3 -52 -47 -264 -61 -261 -17 3 -19
-17 -4 -38 23 -31 35 -10 67 121 31 125 36 233 12 242 -7 2 -14 -2 -14 -10z"/>
<path d="M4031 7976 c-9 -10 -9 -16 -1 -21 17 -10 37 12 24 25 -8 8 -15 6 -23
-4z"/>
<path d="M3722 7970 c-44 -10 -54 -21 -58 -63 -1 -19 -23 -87 -48 -150 -25
-63 -46 -125 -46 -136 0 -31 20 -25 32 10 7 20 15 28 25 25 65 -25 135 -11
181 38 48 49 51 80 12 116 -19 18 -48 33 -72 36 l-39 7 33 19 c18 11 43 29 56
41 26 24 31 63 6 53 -8 -3 -12 -2 -9 4 7 12 -25 12 -73 0z m58 -28 c0 -9 -82
-64 -87 -58 -2 2 1 15 6 29 7 17 19 27 38 30 15 2 31 5 36 6 4 0 7 -2 7 -7z
m-34 -127 c41 -8 74 -39 67 -64 -13 -51 -100 -90 -158 -71 l-35 11 15 35 c8
19 10 34 4 34 -5 0 -9 4 -9 10 0 5 6 7 13 4 7 -2 17 8 24 27 9 22 17 29 30 26
10 -3 32 -8 49 -12z"/>
<path d="M12145 7971 c-8 -15 3 -31 21 -31 9 0 14 7 12 17 -4 20 -24 28 -33
14z"/>
<path d="M5491 7936 c-9 -10 -9 -16 -1 -21 12 -7 40 11 40 26 0 14 -26 10 -39
-5z"/>
<path d="M9647 7925 c-20 -14 -37 -30 -37 -35 0 -6 -7 -10 -15 -10 -8 0 -15
-8 -15 -18 0 -9 -9 -34 -20 -55 -23 -43 -26 -67 -7 -67 7 0 26 27 42 61 29 60
83 119 109 119 8 0 19 -7 26 -15 12 -15 30 -12 30 5 0 16 -31 40 -53 40 -12 0
-39 -11 -60 -25z"/>
<path d="M4486 7924 c-9 -23 -8 -24 17 -24 30 0 40 10 26 27 -15 18 -36 17
-43 -3z"/>
<path d="M9010 7927 c-42 -15 -46 -30 -29 -121 12 -67 12 -69 -11 -88 -21 -17
-24 -18 -42 -2 -18 17 -16 52 4 65 6 4 6 9 -2 14 -17 10 -50 -24 -50 -52 0
-26 41 -73 64 -73 8 0 29 12 46 27 31 26 32 28 25 82 -15 115 -15 116 27 116
45 0 59 12 34 31 -23 16 -21 16 -66 1z"/>
<path d="M13447 7919 c-21 -12 -13 -29 13 -29 24 0 33 15 17 28 -8 7 -18 7
-30 1z"/>
<path d="M9390 7893 c-33 -27 -60 -72 -60 -98 0 -8 11 -21 25 -27 22 -10 30
-8 54 10 24 18 30 19 35 7 3 -8 12 -15 20 -15 12 0 14 7 10 30 -5 20 0 40 15
65 11 20 21 40 21 44 0 5 -20 9 -45 9 -34 1 -51 -5 -75 -25z m70 -13 c0 -16
-59 -77 -80 -83 -11 -3 -20 -3 -20 0 0 13 43 74 58 83 22 12 42 13 42 0z"/>
<path d="M7180 7862 c-60 -62 -79 -112 -55 -148 16 -25 63 -50 74 -38 3 3 -6
16 -21 28 -27 21 -34 48 -22 80 5 12 10 14 19 6 10 -8 22 -7 44 4 37 19 53 48
49 84 -5 45 -35 39 -88 -16z m60 -1 c0 -15 -30 -41 -47 -41 -13 0 -12 5 7 25
24 26 40 32 40 16z"/>
<path d="M9195 7901 c-28 -12 -52 -40 -70 -83 -16 -40 -10 -73 19 -97 20 -17
82 -7 90 14 4 12 -3 15 -37 13 -40 -3 -42 -2 -45 27 -3 35 31 95 54 95 22 0
13 -23 -14 -35 -27 -12 -29 -35 -4 -35 30 0 64 44 60 76 -3 31 -20 38 -53 25z"/>
<path d="M7470 7891 c0 -5 -8 -7 -18 -4 -28 7 -104 -60 -124 -109 -4 -10 0
-26 11 -39 15 -19 20 -20 40 -10 13 7 24 11 25 9 1 -2 8 -16 14 -32 16 -36 27
-26 28 27 1 25 13 62 29 90 26 45 28 77 5 77 -5 0 -10 -4 -10 -9z m-20 -50
c-13 -25 -69 -81 -81 -81 -21 0 -6 30 31 64 45 40 67 48 50 17z"/>
<path d="M7655 7891 c-11 -5 -28 -18 -38 -29 -11 -11 -24 -19 -31 -16 -9 4
-36 -46 -74 -138 -2 -4 5 -8 16 -8 12 0 24 11 32 31 14 34 74 109 97 122 8 5
19 4 26 -2 7 -5 18 -7 25 -2 9 5 8 12 -4 29 -17 24 -19 25 -49 13z"/>
<path d="M7825 7890 c-29 -12 -92 -80 -104 -113 -16 -42 -14 -55 14 -82 19
-20 34 -25 77 -25 29 0 59 4 67 9 26 17 2 28 -52 23 -84 -7 -106 29 -58 98 28
39 77 68 106 63 30 -6 34 12 6 27 -23 12 -29 12 -56 0z"/>
<path d="M10924 7880 c-58 -22 -164 -194 -136 -222 13 -13 40 26 48 69 4 19
25 52 52 80 44 47 45 47 51 24 13 -50 44 -31 34 21 -6 31 -20 38 -49 28z"/>
<path d="M4617 7853 c-33 -26 -41 -37 -67 -95 -13 -31 -40 -120 -40 -135 0
-15 29 -18 31 -3 4 32 20 85 40 135 22 57 81 107 101 87 14 -14 38 -16 38 -3
0 16 -30 41 -49 41 -10 0 -34 -12 -54 -27z"/>
<path d="M12232 7864 c-26 -18 -29 -55 -5 -94 14 -24 14 -31 4 -44 -17 -20
-41 -21 -41 -1 0 8 -7 15 -15 15 -18 0 -20 -31 -3 -48 31 -31 98 1 98 46 0 15
-7 36 -15 46 -8 11 -15 28 -15 38 0 17 5 20 40 22 8 1 16 9 18 19 4 22 -35 23
-66 1z"/>
<path d="M13794 7836 c-38 -33 -39 -35 -39 -101 0 -72 15 -95 62 -95 36 0 153
50 153 66 0 19 -19 18 -68 -6 -67 -32 -98 -36 -111 -12 -6 12 -11 34 -11 49 0
27 2 29 33 25 25 -3 41 3 65 23 34 28 40 53 20 73 -22 22 -63 13 -104 -22z
m80 -5 c8 -12 -16 -30 -55 -41 l-32 -10 28 30 c29 30 49 37 59 21z"/>
<path d="M11379 7835 c-44 -32 -83 -97 -74 -125 7 -21 48 -27 74 -11 10 7 23
1 42 -21 19 -19 36 -28 50 -26 34 5 33 25 -1 31 -38 8 -40 35 -5 81 26 34 32
56 16 56 -5 0 -8 8 -7 18 2 29 -53 27 -95 -3z m71 -12 c0 -20 -42 -74 -69 -88
-45 -23 -54 -19 -37 14 25 48 106 105 106 74z"/>
<path d="M13270 7838 c-11 -12 -26 -40 -32 -61 -11 -36 -48 -77 -70 -77 -6 0
-8 14 -6 30 3 17 1 33 -4 36 -4 3 -28 -9 -53 -26 -25 -17 -45 -29 -45 -27 0
11 32 67 45 77 18 15 20 50 2 50 -18 0 -79 -109 -75 -134 4 -29 32 -31 68 -6
l30 21 0 -21 c0 -25 21 -34 56 -26 35 9 68 47 82 94 7 21 21 47 32 57 19 17
19 35 0 35 -5 0 -19 -10 -30 -22z"/>
<path d="M13588 7852 c-30 -12 -98 -83 -104 -109 -10 -39 10 -71 49 -78 52
-10 147 21 133 43 -4 6 -24 5 -57 -5 -39 -12 -57 -13 -75 -4 -34 15 -30 38 16
83 32 32 45 39 64 34 31 -8 41 7 20 28 -17 17 -21 18 -46 8z"/>
<path d="M2782 7823 c-54 -79 -67 -152 -34 -193 24 -30 62 -29 135 4 41 18 55
29 51 40 -5 12 -14 10 -60 -10 -85 -37 -114 -30 -114 26 0 21 28 40 59 40 21
0 58 43 42 48 -5 2 -7 12 -4 23 6 23 -13 49 -38 49 -9 0 -26 -12 -37 -27z m40
-55 c-5 -5 -18 -8 -27 -6 -15 3 -14 6 7 33 23 30 23 30 26 6 2 -13 -1 -28 -6
-33z"/>
<path d="M6055 7840 c-4 -6 -10 -8 -15 -5 -13 8 -89 -73 -96 -101 -15 -57 45
-67 116 -20 l35 23 0 -40 c0 -23 5 -42 13 -44 8 -3 12 6 12 26 0 18 7 48 15
68 8 19 15 44 15 54 0 34 -78 67 -95 39z m48 -26 c13 -13 -34 -63 -79 -84 -25
-12 -47 -20 -50 -17 -3 3 5 21 18 41 29 45 92 79 111 60z"/>
<path d="M9830 7843 c-51 -21 -89 -70 -90 -116 0 -22 7 -31 31 -41 34 -14 115
-10 137 7 21 17 3 22 -64 18 -73 -3 -88 11 -60 54 24 36 72 58 111 51 31 -6
56 6 37 18 -15 9 -86 16 -102 9z"/>
<path d="M12059 7785 c-17 -35 -29 -72 -27 -81 4 -24 28 -30 28 -7 0 10 11 42
25 71 27 58 31 82 14 82 -5 0 -24 -29 -40 -65z"/>
<path d="M5736 7761 c-20 -42 -36 -82 -36 -89 0 -26 25 -5 56 48 52 88 113
123 100 58 -18 -95 -19 -118 -4 -118 15 0 17 9 35 118 7 45 -9 60 -66 59 l-48
-1 -37 -75z"/>
<path d="M10628 7800 c-68 -72 -45 -136 33 -92 l38 22 3 -32 c5 -50 23 -43 35
14 6 29 14 64 18 79 5 21 2 27 -20 37 -43 20 -66 14 -107 -28z m86 1 c6 -9
-24 -39 -66 -66 -24 -15 -28 -15 -28 -2 0 8 13 29 29 46 28 30 55 39 65 22z"/>
<path d="M3937 7823 c-2 -5 -12 -31 -21 -60 -20 -60 -18 -108 4 -108 10 0 14
8 12 26 -2 14 6 50 17 80 25 64 25 69 7 69 -8 0 -17 -3 -19 -7z"/>
<path d="M11097 7814 c-31 -17 -77 -84 -77 -112 0 -33 38 -72 71 -72 40 0 109
29 109 46 0 17 -5 17 -59 -1 -49 -18 -77 -13 -86 15 -9 28 1 38 30 32 17 -3
36 4 61 23 67 51 25 110 -49 69z m34 -38 c-13 -13 -32 -27 -44 -30 -18 -4 -16
0 11 24 39 36 65 40 33 6z"/>
<path d="M13345 7775 c-37 -58 -46 -105 -20 -105 9 0 15 9 15 21 0 11 14 40
30 64 32 46 36 60 20 70 -5 3 -25 -19 -45 -50z"/>
<path d="M4412 7760 c-14 -34 -30 -60 -38 -60 -8 0 -14 -4 -14 -10 0 -5 4 -10
9 -10 5 0 7 -9 4 -20 -8 -29 24 -26 32 3 4 12 18 45 31 74 27 58 30 83 11 83
-6 0 -23 -27 -35 -60z"/>
<path d="M4750 7807 c-30 -15 -70 -82 -70 -118 0 -34 39 -69 76 -69 44 0 74
11 74 26 0 11 -9 13 -39 8 -52 -8 -81 8 -81 46 0 27 2 29 19 19 15 -10 26 -8
62 12 48 27 61 56 33 76 -22 16 -42 16 -74 0z m54 -26 c5 -7 -51 -41 -68 -41
-13 0 9 33 28 40 28 12 34 12 40 1z"/>
<path d="M5018 7791 c-87 -55 -114 -127 -58 -156 40 -21 51 -19 84 15 l29 30
-30 0 c-19 0 -33 -6 -37 -15 -4 -13 -10 -14 -26 -5 -11 6 -20 17 -20 24 0 20
99 106 121 106 10 0 19 7 19 15 0 23 -32 18 -82 -14z"/>
<path d="M5596 7798 c-9 -12 -16 -18 -16 -13 -1 27 -30 -33 -30 -61 0 -35 28
-64 62 -64 27 0 77 51 84 86 12 61 -66 101 -100 52z m64 -23 c27 -32 -33 -102
-65 -75 -21 17 -19 40 7 67 25 27 41 29 58 8z"/>
<path d="M5396 7701 c-28 -64 -31 -77 -16 -86 5 -3 23 24 40 61 34 75 36 84
16 84 -7 0 -25 -26 -40 -59z"/>
<path d="M7233 7703 c-13 -2 -23 -11 -23 -19 0 -16 37 -19 59 -5 13 8 7 32 -7
30 -4 -1 -17 -4 -29 -6z"/>
<path d="M8781 7608 c-5 -13 -21 -54 -36 -91 l-28 -68 -38 3 c-21 1 -41 -1
-45 -4 -13 -13 8 -28 41 -28 l33 0 -24 -72 c-26 -75 -26 -110 0 -89 8 7 17 28
21 48 13 73 35 113 61 113 16 0 24 6 24 18 0 14 2 15 10 2 8 -13 10 -13 10 2
0 14 -6 16 -30 11 l-31 -6 24 56 c14 30 28 68 32 85 8 37 -11 53 -24 20z"/>
<path d="M7821 7542 c-6 -32 -27 -91 -47 -132 -34 -71 -35 -73 -50 -52 -8 12
-22 22 -31 22 -46 0 -123 -88 -123 -141 0 -28 23 -59 43 -59 39 0 127 97 181
200 39 74 72 180 63 204 -12 31 -24 16 -36 -42z m-101 -224 c0 -4 -22 -31 -49
-60 -38 -41 -52 -50 -61 -41 -19 18 -3 62 35 100 30 30 36 32 54 21 12 -7 21
-16 21 -20z"/>
<path d="M10486 7585 c-5 -13 -10 -14 -27 -5 -26 15 -74 6 -116 -20 -43 -26
-43 -53 2 -138 45 -87 52 -124 31 -157 -24 -37 -67 -56 -103 -46 -41 12 -76
31 -89 49 -12 17 -34 8 -34 -13 0 -17 80 -59 129 -69 41 -8 106 26 127 66 22
43 17 78 -26 167 -22 45 -40 88 -40 96 0 17 77 47 101 40 15 -5 18 -12 13 -28
-10 -36 -10 -41 7 -44 11 -3 20 7 28 29 7 18 17 41 22 51 10 18 4 37 -11 37
-4 0 -11 -7 -14 -15z"/>
<path d="M3255 7563 c-4 -16 -10 -46 -16 -68 -50 -214 -58 -285 -34 -285 9 0
15 9 15 23 0 12 16 96 35 186 19 90 35 165 35 167 0 2 -7 4 -15 4 -8 0 -17
-12 -20 -27z"/>
<path d="M5867 7569 c-9 -13 -21 -55 -28 -92 -6 -38 -16 -70 -23 -72 -6 -3
-35 -6 -65 -9 -58 -4 -82 -19 -64 -37 9 -9 18 -8 35 3 23 15 88 14 88 -2 0 -4
-9 -33 -20 -65 -23 -67 -25 -95 -7 -95 7 0 23 37 37 85 20 70 28 85 45 85 28
0 49 16 40 30 -4 6 -16 10 -26 7 -13 -4 -19 0 -19 11 1 28 20 106 32 130 17
34 -5 52 -25 21z"/>
<path d="M5991 7518 c-12 -40 -28 -95 -37 -121 -8 -26 -12 -52 -9 -57 4 -6 1
-10 -5 -10 -14 0 -53 -87 -45 -100 10 -17 20 -11 40 22 30 52 96 118 116 118
24 0 25 -31 4 -90 -14 -41 -13 -60 5 -60 14 0 42 96 38 132 -2 23 -11 37 -29
47 -24 13 -29 13 -58 -8 l-32 -23 7 29 c4 15 13 45 20 66 7 20 11 37 9 37 -2
0 3 16 11 35 18 43 18 55 0 55 -9 0 -22 -27 -35 -72z"/>
<path d="M11370 7560 c0 -5 -29 -71 -65 -145 -36 -75 -65 -143 -65 -151 0 -24
19 -16 51 21 17 19 44 44 59 55 l28 20 -8 -35 c-11 -50 1 -89 29 -93 28 -4 66
27 51 42 -7 7 -14 6 -22 -2 -7 -7 -16 -12 -20 -12 -11 0 -10 58 3 103 6 22 8
41 5 44 -9 9 -41 -7 -74 -37 -18 -16 -35 -30 -38 -30 -2 0 19 45 47 101 47 94
55 129 29 129 -5 0 -10 -4 -10 -10z"/>
<path d="M7982 7543 c5 -25 28 -28 28 -4 0 12 -6 21 -16 21 -9 0 -14 -7 -12
-17z"/>
<path d="M9867 7538 c-3 -13 -30 -83 -60 -157 -30 -74 -53 -140 -50 -147 6
-17 33 -6 33 13 0 8 25 75 55 149 30 75 55 142 55 150 0 23 -27 16 -33 -8z"/>
<path d="M3138 7533 c-3 -4 -6 -25 -7 -46 -1 -22 -13 -84 -26 -140 -24 -96
-22 -129 4 -113 6 4 11 16 11 28 0 11 9 58 20 104 24 100 29 165 13 171 -6 2
-13 0 -15 -4z"/>
<path d="M4496 7481 l-17 -60 -47 -6 c-26 -3 -53 -7 -61 -8 -8 -1 -14 -6 -13
-12 2 -5 27 -10 57 -10 30 0 55 -2 55 -6 0 -3 -9 -32 -20 -64 -24 -70 -26
-105 -5 -105 8 0 15 7 15 16 0 43 44 160 68 180 24 20 24 22 7 31 -15 9 -16
15 -6 43 15 43 14 60 -3 60 -8 0 -20 -24 -30 -59z"/>
<path d="M4650 7518 c0 -13 -22 -84 -49 -158 -27 -74 -47 -138 -44 -142 10
-18 29 -5 46 30 9 20 30 52 45 71 26 30 30 32 44 17 18 -17 14 -51 -9 -78 -8
-9 -12 -22 -8 -27 14 -24 34 -8 50 40 17 49 17 52 -2 78 -25 33 -49 38 -74 15
-24 -22 -24 -21 6 56 29 73 33 120 10 120 -9 0 -15 -9 -15 -22z"/>
<path d="M7552 7504 c4 -21 22 -23 26 -1 2 10 -3 17 -13 17 -10 0 -15 -6 -13
-16z"/>
<path d="M7073 7478 c-11 -13 -32 -44 -47 -69 -26 -46 -128 -151 -155 -160
-15 -5 -7 -29 10 -29 5 0 29 18 53 40 l44 40 6 -35 c9 -47 38 -47 99 0 l46 35
-6 -35 c-3 -21 -1 -41 7 -50 20 -24 32 -18 26 13 -4 15 3 57 14 97 24 83 24
85 6 85 -8 0 -24 -15 -35 -34 -12 -18 -42 -53 -67 -76 -38 -35 -48 -40 -55
-28 -10 19 7 75 31 103 30 35 70 99 70 112 0 20 -25 15 -47 -9z"/>
<path d="M8068 7446 c-86 -70 -168 -243 -97 -206 11 7 18 18 15 25 -8 22 40
98 89 144 50 46 65 51 65 21 0 -24 18 -27 27 -4 8 21 -13 64 -31 64 -8 0 -39
-20 -68 -44z"/>
<path d="M8960 7446 c0 -18 16 -29 30 -21 13 8 1 35 -16 35 -8 0 -14 -6 -14
-14z"/>
<path d="M2413 7428 c-42 -29 -41 -51 2 -100 29 -31 34 -42 25 -58 -15 -28
-44 -33 -85 -15 -46 19 -55 19 -55 1 0 -15 68 -46 101 -46 26 0 79 52 79 77 0
10 -17 36 -37 57 l-37 38 23 20 c17 13 33 17 53 13 21 -5 28 -3 28 8 0 33 -53
35 -97 5z"/>
<path d="M6220 7428 c-71 -47 -98 -150 -53 -200 34 -38 158 -9 178 41 12 29
-13 33 -38 6 -17 -19 -38 -29 -71 -32 -43 -5 -46 -4 -56 22 -15 40 -5 62 30
63 49 1 66 11 85 45 36 68 -8 100 -75 55z m60 -16 c0 -20 -34 -52 -56 -52 -33
0 -30 17 9 40 34 21 47 25 47 12z"/>
<path d="M2724 7396 c-35 -34 -44 -39 -44 -24 0 28 -19 60 -32 52 -6 -4 -20
-7 -31 -8 -15 -1 -23 -13 -33 -46 -7 -24 -21 -58 -30 -76 -20 -37 -13 -74 11
-54 7 6 21 33 30 60 9 26 25 56 35 65 20 18 20 17 20 -28 0 -60 17 -61 55 -6
16 22 41 49 56 60 26 18 28 18 31 2 2 -10 0 -36 -4 -57 -9 -41 -5 -66 10 -66
16 0 34 114 22 144 -14 39 -46 33 -96 -18z"/>
<path d="M7275 7403 c-8 -21 -26 -59 -40 -86 -14 -26 -25 -54 -25 -62 0 -27
26 -16 42 18 18 37 88 120 95 113 7 -6 -26 -118 -40 -134 -8 -10 -7 -16 4 -23
26 -16 37 -9 42 29 2 20 12 61 20 90 9 30 13 60 10 68 -6 16 -39 19 -48 4 -8
-14 -26 -13 -22 1 1 6 -4 14 -11 16 -7 3 -18 -11 -27 -34z"/>
<path d="M3626 7405 l-24 -25 -5 22 c-12 42 -24 4 -31 -89 -7 -115 10 -126 39
-26 11 39 29 78 44 92 l24 25 15 -22 c18 -27 42 -29 42 -3 0 20 -39 51 -65 51
-9 0 -26 -11 -39 -25z"/>
<path d="M8474 7411 c-69 -42 -95 -117 -59 -168 20 -28 73 -38 119 -23 44 14
51 45 9 33 -43 -12 -94 -8 -104 8 -18 28 -9 67 22 98 17 17 36 32 42 32 7 1
17 2 22 4 6 1 14 3 19 3 12 3 -14 32 -28 32 -6 0 -25 -9 -42 -19z"/>
<path d="M2906 7399 c-78 -61 -66 -165 15 -125 l29 14 0 -39 c0 -32 4 -39 19
-39 16 0 18 5 14 40 -3 22 0 60 7 85 11 41 11 48 -5 65 -23 26 -46 25 -79 -1z
m64 -27 c0 -16 -54 -72 -70 -72 -24 0 -16 31 17 64 21 21 53 26 53 8z"/>
<path d="M8206 7399 c-39 -31 -76 -94 -76 -129 0 -17 9 -39 21 -51 18 -18 29
-21 68 -16 59 7 101 26 101 45 0 9 -6 12 -17 7 -10 -3 -39 -11 -65 -17 -56
-13 -81 0 -76 41 2 21 8 25 27 23 38 -6 108 69 95 102 -9 22 -46 20 -78 -5z
m21 -46 c-14 -15 -30 -23 -34 -19 -4 4 5 18 22 31 38 31 47 22 12 -12z"/>
<path d="M3358 7395 c-34 -19 -71 -94 -62 -129 8 -32 40 -56 74 -56 42 0 115
42 118 68 4 28 -23 30 -38 2 -11 -21 -79 -44 -104 -34 -9 3 -16 15 -16 25 0
14 7 19 26 19 36 0 61 16 78 49 21 39 11 71 -23 71 -14 -1 -38 -7 -53 -15z
m53 -33 c-15 -28 -38 -44 -58 -40 -16 3 -15 7 9 31 32 32 64 38 49 9z"/>
<path d="M7857 7334 c-34 -69 -39 -94 -18 -94 12 0 82 150 75 161 -11 18 -20
7 -57 -67z"/>
<path d="M9265 7371 c2 -26 -1 -44 -11 -52 -24 -20 -56 -78 -49 -90 4 -6 34
18 74 60 76 82 97 90 86 34 -11 -57 -11 -96 0 -100 13 -4 38 103 33 138 -4 30
-39 37 -73 15 -22 -15 -24 -14 -27 7 -2 12 -11 23 -20 25 -15 3 -17 -3 -13
-37z"/>
<path d="M10940 7393 c-19 -9 -42 -15 -51 -14 -16 2 -27 -23 -66 -141 -3 -12
0 -18 10 -18 9 0 30 26 48 61 36 68 67 94 99 84 17 -5 20 -2 20 19 0 30 -11
32 -60 9z"/>
<path d="M5047 7373 c-20 -20 -26 -23 -21 -9 5 14 3 17 -10 15 -15 -4 -40 -55
-63 -131 -10 -33 25 -19 48 20 13 20 36 51 51 67 24 25 30 28 39 15 5 -8 7
-33 4 -55 -3 -22 -6 -49 -8 -60 -1 -11 5 -21 14 -23 13 -2 18 9 24 62 11 108
-24 152 -78 99z"/>
<path d="M10548 7353 c-54 -55 -70 -88 -56 -119 20 -43 82 -55 145 -29 48 20
32 38 -22 24 -54 -14 -98 2 -93 34 2 12 9 23 16 23 6 1 18 2 26 3 8 0 29 13
46 27 23 20 30 34 28 53 -5 43 -37 38 -90 -16z m56 2 c-4 -9 -16 -21 -28 -27
-19 -10 -19 -9 3 16 28 30 33 32 25 11z"/>
<path d="M11125 7388 c-55 -30 -101 -94 -90 -127 9 -29 46 -40 98 -29 44 9 76
32 64 44 -3 4 -20 1 -38 -5 -38 -13 -86 -14 -93 -3 -9 15 32 71 64 87 17 9 39
13 50 10 22 -7 38 14 19 26 -19 12 -50 11 -74 -3z"/>
<path d="M4819 7366 c-57 -49 -62 -102 -13 -125 22 -9 31 -9 50 3 21 15 23 14
26 -7 5 -35 34 -28 30 7 -2 16 4 46 14 67 16 37 16 40 -1 59 -24 27 -73 25
-106 -4z m78 -22 c7 -20 -48 -75 -70 -72 -31 4 -31 22 -1 57 26 32 63 39 71
15z"/>
<path d="M8891 7317 c-19 -40 -41 -80 -50 -90 -14 -17 -14 -20 4 -33 30 -22
45 -17 45 15 0 16 13 58 30 93 33 69 37 88 18 88 -7 -1 -28 -33 -47 -73z"/>
<path d="M9079 7367 c-75 -37 -97 -108 -46 -150 42 -37 108 -3 142 74 34 75
-16 116 -96 76z m76 -27 c3 -5 -3 -27 -14 -48 -34 -66 -101 -77 -101 -17 0 44
95 98 115 65z"/>
<path d="M9534 7364 c-73 -49 -90 -88 -54 -124 22 -22 39 -19 88 17 l32 24 0
-31 c0 -43 24 -34 28 10 2 19 10 43 18 54 19 27 18 46 -3 62 -28 21 -67 16
-109 -12z m86 -13 c0 -14 -88 -91 -104 -91 -23 0 -27 15 -9 39 28 41 113 80
113 52z"/>
<path d="M10700 7354 c-55 -50 -52 -104 6 -104 14 0 24 -8 27 -21 8 -29 27
-14 27 21 0 16 11 46 25 66 24 35 24 38 9 56 -25 27 -49 22 -94 -18z m60 -3
c0 -13 -50 -71 -61 -71 -16 0 -10 17 17 49 25 31 44 40 44 22z"/>
<path d="M7472 7368 c-5 -7 -24 -39 -41 -71 -25 -47 -28 -59 -17 -63 20 -8 36
3 36 24 0 9 14 37 30 62 16 25 30 48 30 53 0 12 -27 8 -38 -5z"/>
<path d="M11575 7267 c-24 -18 -11 -41 16 -27 10 6 19 17 19 25 0 19 -11 19
-35 2z"/>
<path d="M5899 6693 c-1 -5 -1 -12 0 -16 1 -4 -5 -18 -14 -30 -8 -12 -15 -41
-15 -64 0 -39 -2 -43 -25 -43 -70 0 -88 -96 -24 -134 33 -19 59 -11 84 28 13
19 14 32 6 67 -16 68 -13 114 8 140 14 17 17 29 10 41 -10 18 -28 24 -30 11z
m-30 -247 c-19 -21 -46 -16 -56 10 -8 23 9 47 38 54 20 5 25 2 30 -19 4 -17 0
-32 -12 -45z"/>
<path d="M4653 6593 c-9 -32 -23 -62 -30 -66 -17 -11 -16 -27 1 -27 8 0 20
-19 28 -42 15 -48 57 -80 84 -63 19 12 15 31 -7 28 -20 -3 -44 23 -52 54 -4
20 0 22 37 25 28 2 41 8 41 18 0 11 -10 14 -43 11 -38 -2 -43 0 -39 16 3 10 8
30 11 46 4 15 11 27 17 27 8 0 7 5 -1 15 -21 25 -28 18 -47 -42z"/>
<path d="M5119 6623 c-6 -16 -18 -43 -27 -61 -11 -22 -12 -36 -5 -40 5 -4 13
-29 17 -56 10 -76 51 -105 107 -76 33 18 22 32 -20 25 -46 -8 -54 1 -59 67
l-3 47 43 3 c55 4 56 22 2 26 -38 3 -41 5 -36 25 3 12 12 32 20 45 13 20 13
22 -7 22 -14 0 -25 -9 -32 -27z"/>
<path d="M5615 6573 c-4 -11 -1 -22 8 -27 12 -7 11 -15 -5 -48 -25 -51 -17
-95 18 -104 42 -11 74 4 90 41 18 44 6 78 -35 100 -17 8 -35 24 -41 35 -13 25
-26 26 -35 3z m73 -75 c29 -29 3 -84 -35 -76 -21 4 -22 50 -2 74 14 17 21 18
37 2z"/>
<path d="M4458 6559 c-57 -22 -39 -73 40 -113 48 -25 48 -27 -3 -41 -20 -5
-50 12 -50 28 0 22 -17 24 -29 3 -18 -28 26 -61 79 -60 91 2 100 53 18 97 -29
16 -53 35 -53 42 0 14 48 27 85 22 12 -1 20 4 20 13 0 18 -67 24 -107 9z"/>
<path d="M6016 6555 c-7 -8 -16 -12 -19 -9 -11 12 -47 -51 -47 -83 0 -42 46
-93 84 -93 46 0 124 21 130 35 7 20 -10 28 -34 15 -11 -6 -43 -12 -71 -13 -40
-2 -54 2 -65 17 -18 25 -18 37 1 30 8 -3 30 -1 50 6 56 19 61 81 7 101 -14 5
-26 3 -36 -6z m42 -42 c5 -17 -48 -37 -61 -24 -15 15 12 43 36 39 11 -2 22 -9
25 -15z"/>
<path d="M4843 6535 c-71 -31 -71 -137 1 -109 9 3 16 11 16 16 0 6 9 0 19 -13
27 -33 35 -19 20 32 -8 24 -13 50 -12 57 0 6 -3 12 -9 12 -5 0 -6 5 -3 10 8
12 7 12 -32 -5z m7 -54 c-11 -21 -30 -29 -30 -12 0 12 31 43 37 37 3 -2 0 -14
-7 -25z"/>
<path d="M4966 6531 c-23 -25 -28 -96 -7 -96 8 0 15 12 17 29 5 45 12 56 35
56 12 0 19 5 17 13 -7 20 -43 19 -62 -2z"/>
<path d="M5446 6489 c-8 -70 6 -102 24 -53 6 16 16 40 23 53 11 23 13 21 22
-35 6 -34 16 -59 23 -59 15 0 16 4 8 69 -8 60 -16 70 -62 80 l-31 7 -7 -62z"/>
<path d="M4504 6257 c-7 -18 18 -177 47 -306 22 -95 19 -101 -41 -101 -44 0
-194 -32 -198 -41 -2 -5 -9 -6 -15 -4 -17 6 -128 -29 -128 -41 0 -5 -7 -8 -15
-6 -32 6 -309 -153 -321 -184 -3 -8 -11 -14 -17 -14 -24 0 -195 -187 -255
-280 -85 -129 -147 -258 -132 -273 13 -13 10 -18 59 83 96 200 266 403 429
512 94 64 234 133 318 158 39 12 77 24 85 27 8 3 29 7 45 9 17 2 54 9 84 14
30 6 72 10 92 10 43 0 39 15 83 -254 14 -82 28 -151 31 -154 3 -3 10 -1 15 4
5 5 -4 86 -25 209 -19 110 -35 201 -35 202 0 1 21 0 167 -12 175 -13 408 -96
556 -198 16 -10 30 -17 33 -14 3 2 37 -25 75 -62 77 -72 89 -80 89 -59 0 18
-84 101 -93 92 -4 -4 -7 -1 -7 7 -1 14 -140 104 -228 148 -137 69 -320 116
-496 127 -102 7 -105 8 -111 33 -4 14 -12 29 -18 33 -8 5 -9 8 -1 8 8 0 8 16
-2 57 -7 31 -21 104 -30 162 -17 108 -28 138 -40 108z"/>
<path d="M7887 5765 c-4 -8 -2 -40 3 -72 19 -116 6 -243 -25 -243 -8 0 -23 10
-34 21 -18 20 -19 24 -6 50 8 15 23 32 32 38 15 8 16 12 5 23 -11 11 -18 7
-43 -20 -39 -43 -40 -92 -2 -122 39 -30 74 -23 96 20 16 30 18 50 12 155 -3
66 -6 130 -6 143 1 25 -24 30 -32 7z"/>
<path d="M7184 5688 c16 -82 19 -111 9 -105 -11 7 -72 -19 -74 -31 -2 -16 -7
-41 -14 -61 -9 -29 19 -71 48 -71 52 1 77 46 77 142 0 86 -17 158 -37 158 -12
0 -14 -7 -9 -32z m-2 -220 c-10 -10 -25 -16 -33 -13 -24 9 -12 66 19 92 l27
23 3 -42 c2 -30 -2 -46 -16 -60z"/>
<path d="M6986 5573 c-8 -16 -15 -22 -16 -15 0 6 -7 12 -15 12 -12 0 -15 -15
-15 -75 0 -98 18 -100 49 -5 28 88 41 97 41 28 1 -47 16 -88 34 -88 9 0 -5
143 -17 158 -16 21 -46 13 -61 -15z"/>
<path d="M8029 5585 c-73 -40 -77 -140 -7 -189 44 -31 150 -8 164 36 9 30 0
31 -41 3 -51 -34 -87 -33 -119 6 -31 37 -33 49 -6 42 54 -14 113 45 92 92 -13
29 -42 32 -83 10z m58 -32 c3 -7 -8 -19 -22 -29 -20 -13 -29 -14 -38 -5 -9 10
-7 17 12 32 25 20 42 21 48 2z"/>
<path d="M6764 5554 c-26 -27 -34 -44 -34 -73 0 -45 28 -86 66 -95 35 -9 134
20 134 39 0 18 -3 18 -63 0 -52 -16 -90 -8 -101 20 -3 9 -6 18 -6 20 0 1 18 5
40 9 31 5 43 13 55 37 15 28 15 33 0 55 -22 34 -52 30 -91 -12z m66 -14 c0
-18 -26 -40 -49 -40 -17 0 -13 14 9 38 26 27 40 28 40 2z"/>
<path d="M7434 5566 c-14 -10 -23 -11 -32 -4 -20 17 -30 -2 -34 -66 -3 -66 14
-88 33 -39 15 40 59 94 70 88 5 -4 9 -34 9 -68 0 -62 12 -98 27 -84 10 11 4
147 -8 170 -12 21 -38 22 -65 3z"/>
<path d="M7612 5537 c-58 -62 13 -157 88 -117 10 5 23 24 29 41 26 74 -64 133
-117 76z m86 -48 c2 -15 -5 -32 -16 -42 -16 -15 -20 -15 -40 -1 -21 15 -30 53
-15 68 4 4 21 6 38 4 24 -2 31 -8 33 -29z"/>
<path d="M5585 5398 c31 -35 79 -100 107 -146 27 -45 54 -79 59 -76 6 3 9 0 8
-7 -5 -23 12 -59 27 -59 8 0 14 4 14 9 0 27 -162 281 -179 281 -4 0 -15 14
-24 30 -13 21 -26 30 -43 30 -24 0 -22 -4 31 -62z"/>
<path d="M4659 5396 c-8 -8 3 -96 11 -91 5 3 11 1 15 -5 3 -5 1 -10 -5 -10 -8
0 -10 -16 -6 -47 3 -27 8 -81 12 -120 7 -73 7 -73 -18 -73 -38 0 -93 -41 -205
-155 -144 -146 -181 -229 -171 -389 6 -94 35 -167 113 -285 64 -98 128 -144
214 -157 20 -3 49 -10 64 -16 59 -23 302 8 350 45 18 13 52 33 77 44 57 25 92
61 135 137 l34 60 10 -28 c6 -15 11 -34 11 -43 0 -8 25 -38 56 -66 31 -29 82
-77 113 -108 62 -63 101 -82 194 -99 91 -17 90 -17 77 -40 -14 -27 3 -27 30 0
12 12 33 20 55 20 19 0 52 6 72 14 21 8 68 20 106 26 77 12 129 37 137 66 3
10 15 30 26 44 79 91 107 125 119 144 21 33 37 173 33 292 -3 97 -7 115 -33
168 -16 33 -49 80 -72 106 l-42 47 239 239 c132 131 239 243 237 249 -5 13
-65 30 -75 21 -4 -4 2 -14 13 -22 18 -14 17 -17 -35 -70 -30 -31 -77 -77 -104
-103 -27 -25 -63 -61 -80 -80 -17 -19 -40 -41 -51 -50 -11 -9 -53 -49 -94 -90
l-74 -74 -26 17 c-42 27 -120 62 -200 87 -68 22 -76 27 -90 61 -10 24 -23 38
-34 38 -14 0 -16 -4 -7 -19 17 -33 12 -41 -27 -41 -21 0 -54 -4 -73 -9 -19 -5
-47 -12 -63 -15 -15 -4 -44 -21 -65 -39 -20 -18 -60 -47 -88 -65 -65 -41 -87
-65 -129 -143 -24 -45 -35 -57 -35 -41 0 13 -14 50 -31 83 -24 45 -45 69 -83
95 -28 19 -55 34 -59 34 -5 0 -22 9 -38 21 -16 11 -33 18 -38 15 -5 -3 -12 1
-15 10 -4 9 -13 14 -21 10 -9 -3 -15 0 -15 9 0 24 -88 45 -183 44 -49 0 -91 2
-95 6 -4 4 -16 81 -27 173 -18 145 -28 185 -46 168z m41 -401 c0 -14 5 -25 10
-25 6 0 8 -10 5 -22 -2 -13 -1 -74 3 -137 5 -84 11 -116 21 -119 12 -4 13 17
7 131 -3 74 -9 150 -13 167 l-6 32 104 -4 c95 -3 111 -6 174 -37 39 -18 79
-42 90 -51 11 -10 36 -25 55 -34 71 -34 107 -84 135 -188 11 -40 10 -55 -7
-115 -14 -50 -18 -88 -15 -143 5 -74 4 -76 -42 -154 -54 -92 -77 -112 -188
-160 -58 -26 -96 -36 -132 -36 -34 0 -51 -4 -52 -12 0 -10 -2 -10 -6 0 -3 8
-33 12 -99 12 l-95 0 -21 48 c-25 56 -24 56 -37 48 -9 -6 -4 -34 15 -80 17
-44 -92 13 -141 73 -45 55 -107 170 -127 235 -17 55 -19 82 -14 140 4 39 7 82
9 96 1 14 4 27 7 30 3 3 19 27 34 54 36 61 173 205 234 246 58 38 92 40 92 5z
m1128 -18 c17 -36 63 -240 66 -294 2 -37 -2 -47 -36 -80 -21 -20 -38 -42 -38
-48 0 -5 -17 -10 -37 -10 -34 0 -38 -3 -41 -27 -2 -19 3 -30 17 -37 26 -15 71
5 71 31 0 11 16 36 36 56 l36 37 -6 -110 c-6 -122 -45 -293 -93 -410 l-29 -70
-56 1 c-96 2 -154 28 -234 102 -39 37 -86 81 -106 97 -25 21 -41 47 -54 88
-16 51 -16 63 -4 110 8 28 14 100 14 158 1 104 2 108 41 185 32 62 49 85 85
108 25 16 72 49 104 74 65 49 132 71 206 69 38 -2 47 -6 58 -30z m232 -63 c70
-38 70 -37 0 -111 -34 -38 -76 -83 -93 -100 -16 -18 -34 -33 -38 -33 -5 0 -9
17 -9 38 0 35 -40 226 -55 265 -6 15 5 13 81 -14 49 -17 100 -37 114 -45z
m150 -129 c17 -25 43 -71 57 -102 25 -54 26 -61 20 -192 -4 -75 -10 -151 -14
-169 -11 -44 -116 -174 -178 -220 -27 -20 -53 -37 -57 -38 -5 -1 -13 -2 -19
-3 -5 0 -8 -5 -5 -10 3 -5 -17 -11 -44 -15 -27 -4 -65 -13 -84 -21 -35 -15
-86 -20 -86 -10 0 3 6 16 14 28 21 33 72 192 91 282 10 44 20 132 22 197 l6
116 93 93 c68 68 91 96 83 105 -8 9 -5 11 10 7 12 -3 21 -1 21 6 0 22 38 -8
70 -54z m-909 -285 c-6 -44 -9 -53 -10 -29 -1 37 9 102 15 96 2 -1 -1 -32 -5
-67z"/>
<path d="M4736 4595 c-35 -53 -6 -110 35 -68 24 23 32 62 18 80 -17 20 -35 16
-53 -12z"/>
<path d="M3410 4995 c0 -2 -11 -46 -25 -97 -25 -93 -60 -332 -51 -347 3 -4 6
-26 7 -49 2 -23 6 -42 10 -42 4 0 7 -17 7 -37 -1 -21 11 -71 25 -112 15 -41
25 -76 23 -78 -4 -5 -41 90 -52 132 -5 22 -34 37 -34 18 0 -37 94 -264 112
-271 5 -2 6 -7 3 -12 -3 -5 2 -16 11 -24 8 -9 13 -16 9 -16 -8 0 56 -114 67
-118 4 -2 8 -7 8 -12 0 -12 93 -174 104 -182 6 -4 11 -15 11 -25 0 -11 7 -17
18 -17 13 2 16 -3 12 -17 -3 -10 2 -31 11 -46 10 -15 18 -29 18 -29 1 -1 12
-5 25 -9 l24 -7 -20 28 c-37 54 -35 56 21 20 120 -77 141 -89 172 -102 27 -11
33 -11 37 0 3 8 -9 20 -30 30 -52 25 -194 116 -225 145 -19 17 -28 20 -28 10
0 -19 -55 79 -64 115 -4 15 -10 26 -13 22 -11 -10 -105 204 -158 359 -15 44
-40 139 -55 210 -22 106 -25 143 -19 195 4 36 10 88 12 115 5 41 21 112 54
226 3 9 -3 19 -11 22 -9 4 -16 5 -16 2z"/>
<path d="M5573 3823 c-101 -124 -169 -188 -270 -255 -48 -31 -93 -62 -100 -68
-7 -5 -15 -10 -18 -10 -2 0 -40 -16 -82 -36 -93 -43 -234 -82 -339 -94 -42 -4
-80 -13 -84 -20 -6 -9 -21 -9 -66 1 -33 8 -66 14 -74 14 -8 1 -20 3 -25 7 -6
3 -46 18 -90 33 -44 14 -102 37 -130 50 -27 13 -54 19 -59 15 -4 -5 -29 0 -54
11 -33 14 -47 17 -53 8 -4 -8 -10 -6 -17 6 -14 26 -123 69 -133 53 -10 -16 0
-22 91 -54 41 -15 80 -32 85 -37 7 -7 4 -8 -7 -4 -10 4 -18 2 -18 -3 0 -13 28
-26 75 -34 22 -4 69 -16 104 -27 76 -23 80 -23 55 -4 -18 13 -17 14 11 6 17
-5 29 -14 27 -20 -2 -9 6 -11 29 -6 17 4 34 3 38 -2 7 -10 163 -50 234 -59 46
-6 83 7 72 26 -3 5 14 11 37 15 98 15 239 60 323 102 127 64 206 114 198 126
-3 6 -1 7 5 3 19 -11 209 163 218 201 4 12 10 21 14 18 11 -7 41 35 34 47 -3
5 -1 7 4 6 12 -4 63 57 55 66 -12 12 -20 5 -90 -81z m-1373 -393 c8 -5 11 -10
5 -10 -5 0 -17 5 -25 10 -8 5 -10 10 -5 10 6 0 17 -5 25 -10z m547 -106 c-3
-3 -12 -4 -19 -1 -8 3 -5 6 6 6 11 1 17 -2 13 -5z"/>
</g>
</svg>
