<?xml version="1.0" standalone="no"?>
<!DOCTYPE svg PUBLIC "-//W3C//DTD SVG 20010904//EN"
 "http://www.w3.org/TR/2001/REC-SVG-20010904/DTD/svg10.dtd">
<svg version="1.0" xmlns="http://www.w3.org/2000/svg"
 width="1618.000000pt" height="1214.000000pt" viewBox="0 0 1618.000000 1214.000000"
 preserveAspectRatio="xMidYMid meet">

<g transform="translate(0.000000,1214.000000) scale(0.100000,-0.100000)"
fill="#000000" stroke="none">
<path d="M14637 11621 c-12 -29 -23 -40 -44 -44 -15 -3 -32 -1 -37 4 -15 14
-23 11 -29 -11 -3 -11 -1 -20 5 -20 5 0 -5 -12 -23 -27 -53 -45 -76 -135 -48
-195 8 -19 4 -37 -25 -101 -38 -82 -47 -130 -22 -121 8 3 16 18 20 35 3 16 14
47 25 69 10 22 17 49 14 60 -5 19 -2 20 48 14 49 -5 58 -3 97 25 58 43 82 85
82 144 0 41 -5 53 -29 76 l-29 27 19 43 c23 51 24 61 5 61 -8 0 -21 -17 -29
-39z m-56 -114 c-6 -6 -11 -19 -11 -29 0 -10 -4 -18 -8 -18 -4 0 -20 -27 -36
-60 -16 -33 -32 -57 -37 -54 -13 8 -11 79 3 109 14 31 91 91 97 74 2 -6 -2
-16 -8 -22z m71 -4 c22 -20 24 -73 3 -113 -18 -35 -81 -80 -112 -80 -24 0 -30
19 -13 36 5 5 28 47 50 92 21 45 42 82 46 82 4 0 16 -7 26 -17z"/>
<path d="M14847 11613 c-3 -5 -12 -35 -22 -68 -9 -33 -32 -98 -50 -145 -48
-124 -50 -133 -30 -128 10 2 25 26 37 58 53 140 96 275 92 282 -6 10 -21 10
-27 1z"/>
<path d="M13548 11597 c-77 -25 -86 -65 -28 -131 17 -18 30 -36 30 -38 0 -3
-18 -18 -41 -33 -45 -32 -62 -56 -53 -79 8 -22 68 -36 105 -26 63 18 84 56 63
109 -13 32 -12 35 16 74 17 23 30 53 30 67 0 51 -56 77 -122 57z m50 -34 c-2
-13 3 -18 20 -17 30 1 28 -19 -7 -58 -25 -27 -33 -31 -48 -22 -21 13 -58 72
-50 80 4 5 74 32 85 34 2 0 2 -8 0 -17z m-2 -178 c9 -38 -19 -65 -68 -65 -21
0 -38 3 -38 8 0 8 82 81 92 82 4 0 10 -11 14 -25z"/>
<path d="M12640 11542 c-30 -54 -35 -58 -69 -58 -54 -1 -108 -30 -120 -66 -18
-51 -13 -76 22 -110 l33 -33 -44 -80 c-46 -82 -67 -162 -42 -153 7 2 18 22 25
44 6 21 29 72 51 111 36 67 41 73 72 73 63 0 132 56 132 107 0 24 -34 66 -59
74 -11 4 -9 14 8 46 11 23 25 44 31 48 5 3 10 15 10 25 0 39 -20 28 -50 -28z
m-81 -169 c-28 -66 -35 -71 -64 -43 -27 26 -30 41 -15 71 8 14 21 19 55 19
l44 0 -20 -47z m103 23 c13 -19 9 -32 -19 -60 -25 -25 -69 -44 -79 -33 -3 2 7
30 23 61 23 47 30 55 48 50 11 -4 23 -12 27 -18z"/>
<path d="M15014 11591 c-17 -4 -36 -11 -42 -15 -17 -10 -15 -48 4 -95 15 -39
15 -41 -11 -75 -15 -19 -29 -53 -32 -75 -5 -34 -2 -41 22 -57 37 -24 75 -10
99 39 17 36 17 41 2 80 -15 39 -15 42 3 61 29 32 41 62 41 99 0 27 -5 36 -22
41 -13 3 -25 5 -28 5 -3 -1 -19 -4 -36 -8z m56 -50 c0 -9 -11 -32 -25 -51
l-25 -33 -15 37 c-20 47 -14 64 22 68 35 5 43 1 43 -21z m-46 -147 c19 -50 2
-94 -36 -94 -29 0 -30 2 -25 30 7 33 35 80 47 80 4 0 11 -7 14 -16z"/>
<path d="M13248 11527 c-60 -41 -86 -77 -55 -77 8 0 22 9 33 21 25 27 103 73
111 65 18 -18 -86 -150 -153 -194 -64 -43 -114 -89 -114 -107 0 -8 3 -15 6
-15 13 0 52 26 94 62 l44 39 11 -37 c13 -49 54 -80 84 -65 30 17 28 43 -3 35
-18 -4 -28 0 -40 17 -30 43 -20 75 43 151 57 67 80 115 66 138 -14 22 -65 9
-127 -33z"/>
<path d="M14280 11561 c-61 -19 -121 -63 -106 -78 3 -3 27 5 53 19 55 30 109
43 117 30 15 -25 -118 -161 -189 -192 -22 -10 -53 -32 -69 -49 -26 -27 -27
-31 -12 -37 12 -5 37 7 74 33 31 22 69 43 85 47 25 6 27 4 27 -27 0 -39 33
-87 60 -87 22 0 68 36 58 46 -5 4 -20 2 -35 -5 -23 -11 -29 -10 -40 5 -7 10
-13 35 -13 56 0 26 -5 41 -15 45 -12 4 -3 19 39 63 30 32 58 69 62 84 12 48
-28 67 -96 47z"/>
<path d="M12776 11528 c-56 -202 -66 -248 -56 -273 13 -35 30 -23 30 24 0 21
14 83 30 139 17 56 28 107 25 112 -9 14 -25 12 -29 -2z"/>
<path d="M7278 11322 c-28 -17 -36 -37 -18 -44 5 -1 -12 -45 -38 -95 l-47 -93
-67 0 c-54 0 -68 -3 -68 -15 0 -12 14 -15 63 -15 l63 0 -23 -69 c-24 -72 -23
-120 3 -142 11 -9 25 -8 59 1 43 12 55 23 36 34 -4 3 -23 1 -41 -4 -19 -5 -36
-7 -39 -5 -11 11 -2 73 19 127 17 47 25 57 42 55 28 -3 34 19 8 26 -20 5 -20
8 19 84 21 43 51 95 65 116 14 21 26 42 26 47 0 15 -31 10 -62 -8z"/>
<path d="M13752 11283 c4 -22 43 -25 43 -3 0 8 -11 16 -23 18 -19 3 -23 0 -20
-15z"/>
<path d="M7412 11278 c2 -7 7 -16 13 -20 17 -12 -13 -97 -81 -231 -73 -145
-70 -170 13 -87 35 35 58 50 77 50 l26 0 -16 -37 c-28 -66 -37 -104 -25 -116
7 -7 13 -3 20 14 40 102 52 141 47 154 -6 18 -67 21 -97 5 -10 -6 -19 -9 -19
-6 0 2 18 43 41 90 31 64 42 99 43 138 1 48 -1 53 -22 56 -14 2 -22 -1 -20
-10z"/>
<path d="M9645 11280 c-4 -6 -2 -17 4 -24 13 -16 -9 -96 -45 -168 -25 -49 -34
-54 -101 -49 -11 1 -24 -3 -28 -10 -11 -17 16 -30 53 -25 l33 5 -37 -51 c-46
-65 -69 -117 -56 -130 13 -13 32 -1 32 19 0 9 21 50 48 90 40 63 52 74 82 79
45 7 84 23 76 31 -3 3 -24 6 -46 5 -33 -2 -38 1 -33 16 3 9 9 22 14 27 14 20
49 135 49 165 0 23 -4 30 -19 30 -11 0 -23 -5 -26 -10z"/>
<path d="M10266 11282 c-2 -4 -14 -43 -25 -87 -39 -154 -100 -300 -146 -349
-35 -38 -115 -35 -115 5 0 42 111 130 123 96 4 -13 37 -2 37 13 0 6 -11 16
-25 22 -53 24 -165 -66 -165 -133 0 -37 33 -59 89 -59 37 0 49 5 76 35 46 48
101 168 141 310 19 66 37 128 40 138 5 17 -20 25 -30 9z"/>
<path d="M12822 11259 c1 -13 8 -23 13 -21 15 3 12 35 -3 40 -9 3 -13 -3 -10
-19z"/>
<path d="M2952 11223 c-16 -32 -21 -66 -23 -168 -1 -75 -6 -109 -20 -137 -48
-94 -161 -107 -116 -13 19 40 81 89 102 82 21 -9 30 12 12 31 -14 14 -18 13
-44 -3 -15 -10 -41 -29 -56 -44 -88 -80 -71 -187 25 -161 40 11 108 79 108
108 0 10 4 22 9 28 5 5 11 62 13 127 3 72 9 122 16 129 7 7 12 18 12 25 0 19
-28 16 -38 -4z"/>
<path d="M5351 11130 c-28 -60 -51 -113 -51 -118 0 -8 -66 -25 -135 -34 -11
-2 -21 -11 -23 -20 -3 -14 3 -16 35 -11 21 3 52 9 70 13 l32 8 -39 -79 c-42
-82 -52 -139 -25 -139 10 0 15 10 15 28 1 15 20 65 44 112 42 83 43 85 87 92
24 5 56 6 72 2 20 -4 27 -2 27 9 0 19 -22 27 -76 27 -24 0 -44 3 -44 6 0 4 17
39 39 78 45 84 60 136 38 136 -8 0 -35 -45 -66 -110z"/>
<path d="M4530 11179 c0 -6 5 -19 10 -30 9 -15 15 -17 30 -9 24 13 26 36 4 44
-24 9 -44 7 -44 -5z"/>
<path d="M9293 11160 c9 -34 -22 -105 -91 -212 -34 -52 -62 -100 -62 -106 0
-18 17 -14 43 11 34 32 80 67 90 67 4 0 5 4 2 10 -3 5 0 7 8 4 8 -3 21 2 30
11 29 29 28 -4 -2 -63 -28 -55 -30 -72 -9 -72 13 0 69 120 66 143 -4 32 -41
33 -95 2 l-46 -27 28 43 c67 110 90 199 51 207 -15 3 -18 0 -13 -18z"/>
<path d="M5080 11155 c0 -8 2 -15 4 -15 2 0 11 -3 20 -6 12 -4 16 0 16 15 0
14 -6 21 -20 21 -11 0 -20 -7 -20 -15z"/>
<path d="M6242 11136 c1 -10 8 -17 13 -17 15 1 12 24 -3 29 -9 3 -13 -2 -10
-12z"/>
<path d="M4174 11110 c-55 -22 -171 -201 -158 -244 4 -11 2 -16 -4 -12 -14 9
-54 -106 -50 -145 4 -46 30 -45 40 1 4 19 18 62 30 94 21 54 27 60 65 71 54
16 116 66 137 109 24 50 21 101 -6 120 -25 18 -25 18 -54 6z m43 -71 c-6 -47
-59 -109 -109 -130 -39 -16 -44 -7 -25 43 22 56 88 128 117 128 21 0 22 -4 17
-41z"/>
<path d="M8942 11103 c5 -25 28 -28 28 -4 0 12 -6 21 -16 21 -9 0 -14 -7 -12
-17z"/>
<path d="M2451 11069 c-13 -5 -41 -23 -62 -40 l-39 -31 7 32 c5 29 4 31 -18
28 -16 -2 -23 -9 -22 -21 0 -11 -12 -51 -28 -89 -16 -39 -29 -72 -29 -74 0 -2
9 -4 20 -4 11 0 20 5 20 12 0 32 133 158 167 158 13 0 13 -4 -3 -27 -42 -65
-74 -130 -74 -154 0 -31 23 -44 51 -29 25 14 24 30 -1 30 -11 0 -20 2 -20 5 0
10 30 66 67 127 47 77 34 105 -36 77z"/>
<path d="M3370 11073 c-34 -13 -70 -46 -70 -63 0 -21 51 -67 84 -76 17 -4 22
-12 21 -37 0 -30 -3 -32 -37 -35 -20 -2 -46 2 -57 7 -14 8 -22 8 -27 0 -10
-17 11 -31 59 -39 57 -8 85 2 93 35 9 38 -9 71 -61 107 -42 30 -44 33 -29 49
9 10 34 22 56 26 21 4 40 13 41 18 2 11 -50 17 -73 8z"/>
<path d="M3078 11045 c-43 -29 -88 -100 -88 -137 0 -39 30 -69 80 -79 54 -10
110 -2 110 17 0 9 -17 13 -61 13 -64 -1 -99 17 -99 50 0 13 9 15 44 13 37 -3
48 1 80 28 41 37 47 69 16 100 -26 26 -38 25 -82 -5z m69 -32 c13 -34 -82 -85
-101 -54 -9 14 52 71 75 71 11 0 22 -7 26 -17z"/>
<path d="M1549 11001 c-47 -49 -69 -102 -55 -136 8 -22 65 -19 104 5 38 24 42
24 42 7 0 -23 35 -47 69 -47 41 0 37 23 -5 30 -34 6 -41 28 -24 80 10 29 10
45 0 74 -10 33 -15 36 -48 36 -30 0 -44 -8 -83 -49z m103 2 c8 -31 -18 -75
-58 -99 -54 -33 -78 -32 -70 2 8 30 51 90 75 104 25 15 48 12 53 -7z"/>
<path d="M4324 11028 c-87 -68 -124 -114 -124 -158 0 -11 7 -20 15 -20 8 0 15
7 15 15 0 31 32 76 82 116 39 31 57 39 76 34 19 -5 23 -2 20 12 -5 27 -49 28
-84 1z"/>
<path d="M4835 10985 c-65 -67 -105 -155 -71 -155 7 0 23 21 34 48 27 62 105
142 132 135 14 -4 20 0 20 11 0 11 -9 16 -31 16 -25 0 -42 -11 -84 -55z"/>
<path d="M8515 11029 c-4 -6 -13 -40 -21 -76 -23 -109 -74 -143 -116 -78 -13
19 -31 35 -40 35 -15 0 -14 5 7 36 27 40 30 50 15 59 -14 8 -131 -35 -137 -51
-2 -7 -10 -11 -16 -9 -7 3 -23 -4 -37 -15 -43 -33 0 -35 56 -2 47 27 94 45 94
36 0 -3 -22 -33 -50 -67 -27 -34 -50 -67 -50 -74 0 -25 18 -20 65 17 l50 39
28 -34 c33 -41 65 -45 108 -14 29 20 48 70 63 161 6 36 -6 59 -19 37z"/>
<path d="M7587 11005 c-98 -67 -84 -180 23 -192 51 -6 112 7 117 24 3 8 -19
11 -72 10 -65 -2 -79 1 -91 17 -27 37 -18 53 31 59 55 6 85 30 85 67 0 46 -38
52 -93 15z m63 -20 c0 -17 -30 -35 -57 -35 -15 1 -13 5 10 25 32 28 47 32 47
10z"/>
<path d="M8644 11011 c-23 -10 -45 -24 -48 -30 -4 -6 -15 -11 -26 -11 -15 0
-18 -8 -16 -47 1 -44 4 -49 36 -66 37 -18 127 -20 123 -2 -1 6 -25 13 -53 16
-83 11 -111 53 -42 64 89 15 132 43 119 79 -8 21 -42 20 -93 -3z m56 -21 c-8
-5 -19 -10 -25 -10 -5 0 -3 5 5 10 8 5 20 10 25 10 6 0 3 -5 -5 -10z"/>
<path d="M2635 11001 c-73 -45 -111 -114 -80 -145 41 -40 150 -14 180 44 22
42 19 58 -17 91 -38 34 -43 35 -83 10z m55 -31 c5 0 14 -9 20 -20 9 -17 6 -25
-19 -50 -23 -24 -38 -30 -70 -30 -37 0 -41 3 -41 24 0 29 65 90 87 82 8 -3 19
-6 23 -6z"/>
<path d="M4604 11006 c-60 -26 -98 -134 -59 -166 21 -18 79 -14 110 6 28 18
65 82 65 112 0 49 -59 73 -116 48z m61 -26 c24 -9 26 -14 19 -43 -10 -47 -76
-96 -111 -83 -31 12 -8 92 35 119 32 20 25 19 57 7z"/>
<path d="M5667 10983 c-14 -21 -51 -63 -82 -93 l-55 -54 0 35 c0 72 -28 117
-65 103 -21 -9 -19 -34 4 -34 20 0 31 -34 31 -102 0 -37 -8 -48 -105 -148
-107 -111 -145 -162 -145 -192 0 -35 19 -26 41 19 14 29 68 94 139 165 64 65
114 118 111 118 -3 0 37 43 88 95 51 52 91 100 89 107 -8 24 -25 18 -51 -19z"/>
<path d="M6308 11004 c-33 -17 -35 -33 -8 -76 26 -43 25 -64 -5 -93 -30 -31
-48 -31 -74 -3 -19 20 -21 20 -27 3 -9 -22 28 -55 61 -55 29 0 71 33 91 71 14
28 14 33 -10 75 -24 42 -24 44 -6 54 10 6 26 10 34 10 9 0 16 7 16 15 0 19
-36 19 -72 -1z"/>
<path d="M4442 10991 c-21 -13 -55 -102 -43 -114 13 -13 13 -14 44 55 25 55
24 75 -1 59z"/>
<path d="M6170 10972 c0 -15 -9 -44 -20 -65 -39 -73 -17 -94 25 -24 28 50 35
117 10 117 -10 0 -15 -10 -15 -28z"/>
<path d="M9808 10986 c-50 -14 -111 -54 -129 -87 -26 -49 22 -99 94 -99 33 0
46 15 47 53 0 13 -31 7 -36 -8 -8 -21 -47 -19 -67 3 -10 10 -17 21 -17 24 0 3
23 9 52 12 58 8 85 20 111 49 38 44 12 70 -55 53z m22 -41 c-12 -15 -88 -40
-96 -32 -6 6 77 47 95 47 11 0 11 -3 1 -15z"/>
<path d="M5000 10938 c-30 -52 -34 -78 -15 -84 9 -3 65 109 65 129 0 21 -23 1
-50 -45z"/>
<path d="M8870 10963 c0 -7 -4 -13 -8 -13 -14 0 -44 -75 -40 -99 4 -31 22 -27
29 6 3 15 14 44 24 63 24 45 26 57 9 57 -8 0 -14 -6 -14 -14z"/>
<path d="M9068 10933 c-3 -29 -28 -46 -83 -58 l-30 -6 29 26 c22 21 31 23 42
14 23 -19 40 4 19 25 -38 38 -138 -38 -110 -83 8 -14 46 -14 81 -1 15 6 28 9
31 7 3 -3 -25 -84 -58 -168 -10 -25 -12 -26 -84 -21 -102 6 -125 -1 -125 -39
0 -37 23 -83 52 -103 50 -35 115 -9 148 58 20 42 23 44 56 39 27 -5 34 -2 34
11 0 10 -11 19 -29 22 l-28 6 30 80 c24 66 27 82 16 89 -10 6 -11 9 -1 9 6 0
11 3 10 8 -2 4 1 8 7 9 25 4 35 103 11 103 -9 0 -16 -12 -18 -27z m-121 -299
c21 -6 22 -8 7 -35 -33 -65 -100 -75 -129 -19 -27 52 -21 60 43 60 31 0 67 -3
79 -6z"/>
<path d="M7256 10887 c3 -10 9 -15 12 -12 3 3 0 11 -7 18 -10 9 -11 8 -5 -6z"/>
<path d="M3190 10850 c0 -5 5 -10 10 -10 6 0 10 5 10 10 0 6 -4 10 -10 10 -5
0 -10 -4 -10 -10z"/>
<path d="M9830 10844 c0 -8 5 -12 10 -9 6 4 8 11 5 16 -9 14 -15 11 -15 -7z"/>
</g>
</svg>
