<?xml version="1.0" standalone="no"?>
<!DOCTYPE svg PUBLIC "-//W3C//DTD SVG 20010904//EN"
 "http://www.w3.org/TR/2001/REC-SVG-20010904/DTD/svg10.dtd">
<svg version="1.0" xmlns="http://www.w3.org/2000/svg"
 width="1225.000000pt" height="1633.000000pt" viewBox="0 0 1225.000000 1633.000000"
 preserveAspectRatio="xMidYMid meet">

<g transform="translate(0.000000,1633.000000) scale(0.100000,-0.100000)"
fill="#000000" stroke="none">
<path d="M9957 14910 c-76 -48 -143 -158 -197 -325 -13 -38 -27 -74 -30 -80
-4 -5 -8 -35 -8 -65 0 -30 -7 -74 -15 -97 -13 -33 -13 -44 -3 -52 23 -19 43
11 56 80 l12 66 57 6 c32 4 65 9 75 13 14 5 15 3 6 -21 -8 -22 -7 -33 6 -52
14 -22 21 -24 52 -19 46 7 143 56 156 78 19 31 -3 31 -66 0 -91 -44 -108 -48
-108 -23 0 14 20 36 55 64 52 40 65 60 47 71 -5 3 -34 -8 -64 -24 -56 -28
-192 -59 -204 -47 -11 11 26 140 65 223 57 120 131 194 195 194 18 0 25 -6 28
-22 2 -13 11 -24 21 -26 13 -3 17 3 17 27 0 67 -73 82 -153 31z"/>
<path d="M8713 14838 c-6 -7 -16 -31 -22 -53 -7 -22 -43 -102 -79 -177 l-67
-137 -52 -7 c-29 -3 -63 -4 -77 0 -31 8 -53 -16 -31 -34 10 -8 37 -11 80 -8
56 3 65 2 59 -12 -12 -27 -15 -155 -5 -170 17 -25 36 4 32 50 -1 22 2 63 8 93
l11 53 99 19 98 20 -14 -33 c-19 -47 -14 -86 13 -90 19 -3 21 2 20 35 -1 45
42 124 80 150 24 15 28 15 56 -1 23 -14 33 -15 41 -6 9 9 5 17 -16 36 -42 36
-76 31 -139 -22 -22 -18 -175 -64 -213 -64 -3 0 3 16 15 35 33 54 75 142 100
215 13 36 28 71 33 77 10 14 3 43 -11 43 -5 0 -14 -6 -19 -12z"/>
<path d="M5543 14739 c-25 -39 -92 -265 -93 -317 0 -24 -38 -46 -63 -36 -20 7
-51 -21 -44 -41 7 -17 19 -17 80 1 20 6 21 -3 7 -96 -10 -69 -2 -92 24 -71 9
8 16 43 21 101 l7 89 57 16 c75 21 101 32 101 45 0 20 -26 21 -88 2 l-61 -20
6 32 c30 166 69 281 99 293 21 8 53 -32 54 -68 0 -32 9 -42 27 -28 20 17 16
63 -9 95 -30 38 -38 44 -70 44 -21 0 -34 -9 -55 -41z"/>
<path d="M6633 14710 c-156 -27 -393 -91 -393 -106 0 -25 20 -24 130 5 129 35
125 39 80 -89 -18 -52 -30 -105 -30 -137 0 -28 -4 -54 -8 -57 -4 -2 -46 -9
-92 -16 -117 -15 -150 -27 -150 -52 0 -17 4 -19 28 -14 30 8 183 35 194 36 4
0 5 -6 2 -14 -11 -28 19 -29 43 -1 21 23 35 29 106 37 78 10 106 23 88 41 -5
5 -45 5 -91 0 l-82 -9 5 65 c2 36 16 95 30 131 14 36 28 77 31 91 7 34 9 34
158 56 68 9 126 22 130 27 21 31 -28 32 -179 6z"/>
<path d="M3036 14591 c-3 -5 -10 -53 -16 -107 -14 -130 -15 -132 -56 -140 -42
-8 -44 -37 -3 -42 l26 -3 -5 -119 -5 -119 26 -12 c29 -13 82 -3 162 31 54 23
58 48 10 63 -36 11 -65 35 -65 53 0 6 41 54 90 105 50 50 90 96 90 101 0 13
-38 10 -68 -6 -23 -11 -69 -23 -158 -41 -20 -4 -20 -3 -8 93 17 128 17 152 0
152 -8 0 -17 -4 -20 -9z m90 -312 c-67 -72 -73 -103 -25 -143 l30 -26 -28 -11
c-15 -6 -41 -13 -57 -16 l-29 -6 6 108 c4 60 11 113 16 118 5 5 38 15 73 22
35 7 65 13 67 14 2 0 -22 -26 -53 -60z"/>
<path d="M2315 14563 c-4 -16 -13 -56 -21 -90 -8 -34 -21 -113 -29 -175 -8
-62 -26 -158 -40 -213 -14 -55 -25 -108 -25 -118 0 -30 28 -31 93 -1 34 15 84
31 111 35 53 9 72 21 61 39 -12 19 -99 1 -207 -45 -16 -6 -15 -1 3 63 11 38
31 141 44 228 14 88 31 188 39 223 8 36 13 68 10 73 -11 18 -34 6 -39 -19z"/>
<path d="M5307 14563 c-11 -10 -8 -41 4 -49 16 -9 43 21 36 40 -7 16 -28 21
-40 9z"/>
<path d="M9511 14534 c-40 -34 -39 -62 4 -114 19 -23 35 -46 35 -51 0 -4 -10
-17 -22 -29 -23 -21 -82 -28 -93 -10 -9 15 -41 12 -55 -5 -19 -23 -2 -34 67
-41 74 -8 117 12 133 62 12 37 -2 75 -39 106 -29 25 -26 44 9 57 32 11 40 35
14 45 -21 8 -19 9 -53 -20z"/>
<path d="M10239 14535 c-61 -41 -123 -171 -97 -202 18 -22 43 10 62 77 21 74
59 110 117 110 42 0 99 -23 112 -46 12 -20 37 -17 37 4 0 39 -80 82 -152 82
-30 0 -55 -8 -79 -25z"/>
<path d="M9232 14509 c-18 -12 -40 -35 -49 -52 -16 -31 -16 -31 -25 -8 -7 19
-13 22 -36 16 -15 -3 -45 -18 -67 -32 -37 -24 -39 -25 -20 -3 11 12 30 26 43
31 28 11 24 33 -6 37 -30 5 -152 -116 -152 -151 0 -49 36 -39 138 39 25 19 49
34 54 34 5 0 8 -23 6 -52 -2 -42 0 -53 14 -56 12 -2 27 17 54 68 40 77 89 123
105 99 15 -24 10 -83 -11 -124 -11 -22 -18 -45 -15 -52 10 -27 33 -11 54 36
23 55 27 120 10 154 -23 43 -48 47 -97 16z"/>
<path d="M7257 14459 c-80 -53 -135 -136 -123 -185 7 -26 8 -27 71 -21 83 8
142 32 126 51 -10 12 -19 12 -64 0 -59 -16 -97 -18 -97 -6 0 17 59 90 94 117
20 15 51 31 69 34 19 4 33 14 35 24 6 29 -58 22 -111 -14z"/>
<path d="M7510 14442 c-90 -58 -122 -109 -82 -131 13 -7 30 -4 61 10 52 23 48
23 54 -2 8 -32 26 -19 49 34 16 37 18 51 9 60 -8 8 -16 9 -29 1 -9 -6 -39 -23
-67 -38 l-50 -28 35 31 c19 16 48 36 63 42 16 7 27 18 25 27 -5 25 -21 24 -68
-6z"/>
<path d="M7763 14435 c-36 -35 -37 -35 -45 -15 -13 36 -32 17 -50 -51 -31
-120 -15 -145 40 -61 17 26 47 63 67 82 l37 35 -4 -80 c-3 -74 -2 -80 17 -80
19 0 20 7 20 100 0 96 -1 100 -22 103 -15 2 -35 -9 -60 -33z"/>
<path d="M4529 14382 c-13 -16 -32 -44 -41 -61 -11 -20 -25 -31 -38 -31 -17 0
-21 -5 -18 -22 2 -13 9 -22 15 -21 8 2 10 -9 6 -33 -5 -28 -1 -40 17 -59 27
-29 49 -31 90 -10 17 9 33 16 37 16 23 4 33 13 33 30 0 25 -19 24 -75 -3 -59
-29 -74 -17 -56 42 9 29 23 47 51 65 75 48 89 106 28 113 -18 2 -32 -5 -49
-26z"/>
<path d="M4128 14368 c-29 -24 -35 -47 -25 -108 5 -32 7 -70 3 -84 -7 -30 -41
-50 -78 -48 -30 2 -37 -15 -16 -36 16 -16 33 -15 72 3 54 26 70 65 62 152 -6
69 -5 75 15 92 13 10 19 23 15 29 -9 15 -28 15 -48 0z"/>
<path d="M4276 14353 c-41 -75 -56 -111 -56 -140 0 -25 7 -35 36 -52 44 -26
74 -20 74 15 0 21 -5 24 -35 24 -21 0 -35 5 -35 13 0 31 14 57 30 57 10 0 27
8 39 18 19 15 20 21 9 55 -14 45 -40 49 -62 10z"/>
<path d="M2683 14318 c-30 -33 -87 -127 -105 -173 -30 -78 10 -115 105 -95 59
12 76 25 59 42 -7 7 -27 7 -62 -2 -61 -15 -75 -6 -65 39 5 23 16 35 40 45 38
16 95 88 95 121 0 23 -17 45 -35 45 -6 0 -21 -10 -32 -22z"/>
<path d="M5225 14324 c-12 -13 -15 -32 -13 -88 3 -61 6 -71 21 -71 17 0 19 10
21 83 1 46 -1 85 -5 88 -4 2 -15 -3 -24 -12z"/>
<path d="M6054 13628 c-119 -122 -205 -273 -234 -411 -21 -102 17 -204 90
-242 26 -13 34 -13 62 -2 45 19 130 97 153 142 l20 37 -24 19 c-32 26 -62 19
-171 -37 -46 -24 -86 -41 -88 -39 -2 2 -4 30 -4 62 0 66 34 173 88 270 36 65
136 182 141 166 2 -6 -10 -39 -27 -74 -32 -69 -39 -119 -16 -119 17 0 101 94
121 138 32 66 28 182 -7 182 -7 0 -53 -42 -104 -92z m92 -16 c-4 -3 -11 -1
-18 6 -8 8 -8 15 3 28 13 16 14 16 17 -5 2 -13 1 -25 -2 -29z m-25 -75 c-10
-9 -11 -8 -5 6 3 10 9 15 12 12 3 -3 0 -11 -7 -18z m-31 -406 c0 -5 -27 -34
-61 -65 -62 -58 -96 -69 -119 -41 -14 17 -15 17 23 33 15 6 27 18 27 25 0 7
19 23 43 34 44 23 87 29 87 14z"/>
<path d="M3870 13645 c-10 -12 -10 -18 0 -30 15 -19 9 -271 -10 -351 -11 -49
-13 -52 -48 -58 -20 -3 -56 -6 -80 -6 -36 0 -43 -3 -40 -17 3 -15 14 -18 75
-17 l72 2 -14 -35 c-8 -20 -15 -37 -15 -39 0 -2 -12 -4 -26 -4 -29 0 -31 -26
-2 -44 24 -15 64 25 85 85 15 42 22 49 55 57 21 6 38 9 38 7 0 -2 -11 -23 -25
-46 -28 -50 -32 -81 -10 -99 20 -17 51 -4 102 43 56 52 77 91 69 130 -11 56
-50 75 -87 41 -9 -8 -39 -21 -66 -28 l-50 -13 9 41 c11 57 22 337 14 370 -7
29 -27 34 -46 11z m187 -447 c-7 -25 -84 -108 -100 -108 -10 0 34 80 67 121
24 30 42 23 33 -13z"/>
<path d="M5129 13626 c-53 -19 -104 -53 -135 -89 -21 -25 -25 -38 -21 -69 8
-56 29 -83 106 -133 38 -24 76 -54 85 -66 43 -62 -5 -147 -98 -174 -101 -30
-184 26 -129 87 14 16 15 21 3 28 -39 24 -78 -41 -56 -93 17 -42 33 -54 86
-66 120 -27 250 58 250 163 0 59 -30 99 -109 150 -71 46 -101 78 -101 108 0
49 132 137 186 124 23 -6 34 -26 14 -26 -13 0 -30 -66 -30 -118 0 -72 41 -68
81 9 32 63 23 123 -25 161 -25 21 -58 22 -107 4z m101 -133 c-11 -17 -11 -17
-6 0 3 10 7 26 7 35 1 15 2 15 6 0 2 -10 -1 -25 -7 -35z"/>
<path d="M5408 13563 c-8 -15 29 -518 40 -545 13 -32 36 -37 47 -10 3 9 31 82
61 161 63 165 73 186 125 263 22 32 39 62 39 68 0 21 -40 9 -59 -19 -39 -55
-108 -197 -141 -293 -19 -54 -38 -98 -42 -98 -4 0 -8 26 -9 58 -1 31 -6 138
-13 237 -9 154 -13 180 -28 183 -9 2 -18 -1 -20 -5z"/>
<path d="M2145 13549 c-4 -5 -9 -36 -11 -67 -6 -73 -20 -154 -45 -269 l-21
-93 -34 0 c-19 0 -50 6 -69 14 -39 17 -80 75 -65 90 20 20 11 37 -17 34 -25
-3 -28 -7 -27 -40 2 -67 67 -125 152 -135 l48 -5 -4 -140 c-4 -133 -4 -140 14
-136 17 3 20 17 25 133 4 72 7 135 8 141 0 6 25 16 54 23 30 6 71 21 92 32 27
15 36 17 32 6 -16 -43 -18 -126 -3 -154 32 -63 74 -48 186 63 42 40 78 74 81
74 2 0 6 -32 7 -72 1 -74 10 -95 35 -85 12 4 14 24 10 99 -2 51 -6 99 -8 106
-9 27 -44 9 -105 -54 -71 -72 -136 -124 -155 -124 -22 0 -26 45 -11 122 14 68
19 77 73 134 61 64 87 119 77 164 -16 68 -26 90 -44 90 -23 0 -48 -51 -91
-183 -19 -57 -43 -110 -54 -119 -27 -24 -93 -55 -132 -63 l-31 -6 19 88 c11
48 26 136 34 195 8 59 15 111 16 115 5 31 -21 47 -36 22z m279 -184 c-7 -24
-54 -88 -60 -82 -2 2 8 39 23 81 25 72 28 76 35 49 4 -15 5 -37 2 -48z"/>
<path d="M2854 13395 c-7 -18 2 -45 15 -45 14 0 33 38 26 50 -9 15 -35 12 -41
-5z"/>
<path d="M9368 13132 c-26 -59 -60 -141 -76 -182 l-29 -75 -56 0 c-65 0 -81
-12 -123 -88 -34 -63 -40 -155 -12 -183 15 -16 19 -15 50 3 19 11 56 53 86 98
28 43 52 70 52 61 0 -30 28 -72 55 -84 27 -13 84 -8 118 10 13 7 17 5 17 -11
0 -12 13 -35 28 -52 27 -30 33 -32 94 -31 35 1 78 6 94 12 34 13 74 48 74 66
0 23 -25 21 -52 -4 -46 -42 -165 -48 -190 -9 -19 30 -7 54 42 86 59 38 100
103 108 167 4 42 3 44 -21 44 -41 0 -147 -121 -176 -201 -7 -20 -20 -29 -55
-38 -54 -13 -83 -3 -92 33 -12 50 46 246 112 378 38 76 43 108 17 108 -13 0
-31 -31 -65 -108z m221 -273 c-13 -23 -39 -54 -58 -68 l-34 -26 16 30 c19 37
88 118 94 111 3 -3 -5 -24 -18 -47z m-356 -43 c-3 -6 -24 -38 -46 -71 -71
-107 -97 -125 -97 -67 0 36 43 126 69 144 24 17 85 12 74 -6z"/>
<path d="M2782 13188 c-14 -18 -61 -228 -55 -245 3 -8 12 -13 21 -11 11 2 21
29 33 93 9 50 22 103 28 119 18 44 -1 75 -27 44z"/>
<path d="M2942 13158 c-19 -19 -14 -45 13 -66 l24 -19 -24 -23 c-23 -21 -62
-29 -94 -19 -24 7 -24 -29 -1 -41 33 -18 85 -3 125 34 40 38 44 59 15 83 -13
12 -18 24 -14 40 5 18 2 23 -13 23 -10 0 -24 -5 -31 -12z"/>
<path d="M6340 13011 c-16 -30 -12 -43 13 -39 16 2 23 11 25 31 4 32 -21 38
-38 8z"/>
<path d="M8824 12800 c-53 -39 -114 -117 -114 -147 0 -15 9 -27 25 -35 21 -9
34 -6 87 20 125 62 176 139 108 165 -16 6 -30 15 -30 19 0 17 -38 6 -76 -22z
m96 -39 c0 -22 -122 -101 -155 -101 -13 0 -11 6 7 31 13 17 32 35 43 41 11 5
31 15 45 23 28 17 60 20 60 6z"/>
<path d="M8333 12808 c-5 -7 -26 -56 -46 -108 -20 -52 -46 -119 -59 -148 -19
-45 -20 -54 -8 -62 15 -9 40 5 40 22 0 36 150 242 164 227 8 -8 -24 -119 -45
-161 -22 -42 -24 -64 -8 -74 13 -8 35 18 129 148 39 53 75 100 81 104 17 10 1
-52 -28 -110 -16 -32 -22 -57 -18 -73 8 -33 39 -27 42 9 1 14 10 43 21 65 23
44 46 148 37 163 -20 33 -84 -14 -150 -113 -35 -51 -35 -51 -28 -17 4 19 8 51
8 70 0 49 -32 52 -87 9 -33 -27 -39 -29 -29 -11 6 12 16 22 21 22 16 0 11 37
-6 44 -21 8 -20 8 -31 -6z"/>
<path d="M7126 12718 c-29 -105 -33 -113 -54 -116 -12 -2 -22 -8 -22 -13 0
-28 -143 -149 -177 -149 -27 0 -11 27 52 89 86 83 99 131 35 131 -38 0 -93
-54 -128 -128 -15 -30 -33 -57 -40 -60 -9 -3 -7 9 7 37 23 45 27 101 9 119
-27 27 -68 14 -120 -40 -27 -29 -57 -52 -65 -50 -22 5 -32 -16 -23 -47 4 -16
2 -36 -6 -53 -21 -41 -56 -217 -58 -288 -1 -59 1 -65 19 -65 20 0 33 38 85
251 9 37 13 41 35 36 17 -3 44 7 83 30 56 34 59 34 71 17 25 -41 103 -13 189
69 29 27 50 42 47 33 -4 -9 -9 -40 -12 -68 -5 -47 -4 -53 13 -53 19 0 38 24
106 135 41 64 43 64 27 -5 -21 -93 9 -113 89 -59 25 17 56 35 69 40 27 10 40
36 26 50 -6 6 -34 -6 -76 -31 -36 -22 -68 -40 -71 -40 -6 0 0 26 31 133 26 92
23 112 -13 105 -18 -3 -43 -41 -107 -158 -16 -29 -30 -50 -33 -48 -2 3 7 38
21 78 29 85 32 130 10 130 -9 0 -17 -6 -19 -12z m-210 -146 c-16 -15 -25 -20
-21 -12 13 25 38 50 44 45 3 -3 -8 -18 -23 -33z m-136 8 c0 -35 -48 -117 -87
-149 l-38 -32 -3 31 c-4 37 34 106 79 144 37 31 49 33 49 6z"/>
<path d="M9886 12634 c-4 -10 -2 -22 3 -27 15 -15 46 -3 46 18 0 26 -40 33
-49 9z"/>
<path d="M5537 12593 c-12 -19 -49 -276 -50 -348 -2 -66 1 -80 14 -83 12 -2
18 7 23 35 10 57 46 162 72 213 28 54 89 128 99 118 4 -4 -5 -53 -20 -110 -41
-158 -40 -148 -17 -148 11 0 44 21 74 46 73 63 85 69 93 44 3 -10 1 -28 -4
-39 -28 -51 -4 -91 54 -91 35 0 155 57 155 74 0 25 -12 24 -75 -5 -65 -29
-105 -37 -105 -20 0 22 14 43 34 51 29 11 80 85 72 105 -10 27 -53 18 -73 -15
-19 -34 -28 -37 -37 -15 -8 23 -39 18 -82 -13 -21 -15 -44 -31 -50 -35 -7 -4
-4 23 8 71 19 81 17 139 -7 148 -30 12 -95 -47 -148 -134 -20 -34 -26 -40 -23
-22 2 14 10 53 17 87 6 34 9 69 6 78 -7 16 -23 20 -30 8z"/>
<path d="M3525 12523 c-21 -32 -61 -84 -89 -117 l-51 -58 -7 43 c-8 47 -20 65
-37 55 -7 -5 -9 -31 -5 -76 l7 -68 -69 -51 c-38 -28 -80 -54 -94 -57 -51 -11
-76 -38 -46 -50 26 -10 57 2 126 49 l65 43 0 -160 c0 -136 2 -161 15 -161 13
0 16 28 21 172 6 193 4 186 95 281 l54 57 -21 -70 c-37 -129 -73 -319 -66
-347 11 -41 40 -35 72 15 44 65 127 168 132 163 3 -2 -5 -45 -17 -94 -12 -50
-20 -98 -18 -108 5 -26 41 -29 62 -5 19 20 15 58 -4 46 -13 -8 -13 -7 12 117
17 85 19 111 9 121 -18 18 -37 2 -128 -112 -73 -90 -82 -98 -77 -69 13 78 59
252 95 361 22 65 37 123 33 128 -12 20 -33 6 -69 -48z"/>
<path d="M4833 12512 c-20 -12 -34 -88 -23 -117 15 -39 35 -25 38 26 2 24 7
48 13 54 21 21 -3 53 -28 37z"/>
<path d="M3873 12493 c-19 -7 -16 -40 4 -47 18 -7 56 31 47 46 -6 9 -32 9 -51
1z"/>
<path d="M7430 12475 c-27 -29 -17 -49 21 -43 28 4 38 38 16 56 -11 9 -19 6
-37 -13z"/>
<path d="M2302 12343 c-89 -90 -142 -191 -142 -272 0 -55 40 -120 106 -172 33
-25 61 -54 62 -64 5 -24 -96 -118 -153 -141 -29 -12 -45 -25 -45 -36 0 -10 7
-18 15 -18 46 0 180 97 209 152 28 51 16 78 -57 135 -84 67 -105 112 -89 191
13 62 57 134 121 196 21 21 44 35 50 32 16 -11 13 -24 -5 -22 -14 1 -16 -15
-18 -114 l-1 -115 25 0 c21 0 28 9 47 55 28 68 29 141 3 198 -16 36 -23 42
-50 42 -24 0 -42 -11 -78 -47z m98 -143 l-11 -25 6 25 c2 14 6 41 7 60 l1 35
4 -35 c2 -20 -1 -47 -7 -60z"/>
<path d="M4894 12325 c-13 -31 -24 -64 -24 -75 0 -11 18 -36 40 -56 45 -42 57
-94 21 -94 -10 0 -21 6 -24 14 -8 20 -47 8 -47 -14 0 -38 71 -58 106 -29 45
37 34 102 -26 152 l-32 27 22 55 c21 51 21 75 -1 75 -6 0 -21 -25 -35 -55z"/>
<path d="M3786 12288 c-33 -90 -86 -279 -86 -308 0 -23 5 -30 19 -30 22 0 32
24 37 85 2 22 18 87 37 145 33 101 35 105 61 102 20 -3 26 1 26 16 0 12 -9 22
-22 26 -46 12 -56 7 -72 -36z"/>
<path d="M4710 12269 c-6 -11 -12 -66 -13 -122 -2 -96 -1 -102 18 -102 21 0
22 6 24 168 1 33 4 37 26 37 28 0 34 24 9 34 -30 11 -53 6 -64 -15z"/>
<path d="M3886 12187 c-20 -29 -36 -60 -36 -69 0 -23 34 -40 65 -32 14 3 25 2
25 -3 0 -15 -42 -51 -72 -62 -30 -11 -37 -38 -13 -47 32 -13 135 76 135 116 0
23 -14 32 -57 39 l-33 6 25 37 c14 20 25 44 25 52 0 31 -28 15 -64 -37z"/>
<path d="M2547 12001 c-15 -16 -27 -35 -27 -43 0 -7 -12 -48 -27 -91 -22 -60
-25 -81 -17 -95 27 -42 75 -20 129 60 41 62 47 116 15 148 -11 11 -20 27 -20
35 0 24 -23 18 -53 -14z m53 -81 c0 -15 -13 -45 -28 -66 -27 -37 -62 -72 -62
-62 0 8 37 112 50 140 16 33 40 26 40 -12z"/>
<path d="M8134 11895 c-4 -8 -1 -22 6 -30 20 -25 5 -110 -39 -223 -50 -125
-60 -176 -37 -185 18 -7 29 7 32 43 3 24 40 127 71 200 21 48 30 175 13 195
-16 19 -39 19 -46 0z"/>
<path d="M5960 11766 c-11 -24 -27 -76 -35 -116 -8 -40 -17 -76 -20 -80 -3 -5
-22 -11 -43 -15 -50 -8 -66 -19 -58 -40 6 -17 8 -17 74 1 21 6 22 3 22 -41 0
-26 -7 -63 -16 -82 -13 -26 -14 -37 -5 -46 20 -20 50 22 56 78 12 106 15 115
35 115 10 0 49 16 86 35 37 19 69 35 71 35 10 0 -11 -46 -25 -56 -11 -8 -13
-20 -9 -43 4 -20 1 -52 -9 -82 -12 -35 -14 -53 -6 -61 17 -17 30 -1 46 55 l15
52 75 1 c74 1 75 1 61 -20 -8 -11 -15 -31 -15 -43 0 -35 33 -29 93 15 56 42
81 56 121 72 l25 9 -18 -42 c-10 -23 -51 -98 -90 -167 -82 -144 -100 -192 -81
-215 16 -19 30 -10 30 18 1 22 27 75 127 252 70 125 82 161 61 181 -21 22 -61
12 -133 -32 -32 -19 -59 -34 -62 -34 -2 0 4 14 14 30 15 26 16 32 3 40 -9 5
-24 3 -41 -6 -16 -8 -56 -14 -94 -14 l-65 0 6 28 c4 15 17 68 31 117 13 50 26
100 29 112 4 16 1 25 -10 29 -23 9 -26 5 -45 -71 -15 -57 -22 -68 -52 -85 -69
-38 -134 -70 -145 -70 -15 0 10 121 36 176 25 50 25 54 -1 54 -14 0 -26 -13
-39 -44z"/>
<path d="M7370 11641 c-32 -32 -70 -84 -85 -115 -26 -53 -27 -57 -11 -81 20
-31 44 -31 99 -4 61 31 69 39 56 55 -9 11 -20 9 -60 -11 -58 -30 -59 -30 -59
-7 0 28 56 106 112 157 47 42 55 65 21 65 -8 0 -41 -27 -73 -59z"/>
<path d="M7870 11659 c-8 -5 -27 -13 -42 -19 -30 -10 -38 -37 -13 -42 13 -2
11 -9 -10 -38 -17 -23 -25 -45 -23 -65 3 -26 8 -30 36 -33 50 -5 182 83 182
120 0 25 -30 56 -60 63 -16 4 -32 11 -35 16 -7 11 -15 11 -35 -2z m64 -55 c29
-11 17 -33 -36 -69 -85 -57 -100 -46 -42 28 36 47 48 53 78 41z"/>
<path d="M7610 11639 c-35 -14 -69 -48 -91 -91 -26 -50 -24 -76 5 -89 21 -10
33 -6 83 24 76 47 123 91 123 116 0 45 -59 64 -120 40z m80 -37 c0 -10 -61
-60 -112 -91 -21 -12 -38 -18 -38 -13 0 22 48 78 80 94 37 19 70 23 70 10z"/>
<path d="M5400 11533 c-56 -56 -93 -194 -58 -217 24 -15 28 -7 33 59 6 89 58
163 106 153 8 -2 14 5 14 17 0 14 -8 21 -28 23 -21 3 -37 -6 -67 -35z"/>
<path d="M5580 11532 c-45 -48 -100 -154 -100 -194 0 -36 32 -68 69 -68 36 0
127 34 161 60 20 15 22 22 13 31 -10 10 -25 7 -70 -16 -69 -33 -126 -39 -131
-13 -3 13 1 16 13 11 12 -4 28 6 52 33 63 72 84 113 81 152 -4 55 -38 56 -88
4z m36 -49 c-8 -15 -31 -46 -51 -68 l-36 -40 20 41 c22 45 71 108 78 100 2 -2
-2 -17 -11 -33z"/>
<path d="M4335 11541 c-4 -14 3 -31 22 -56 15 -19 32 -35 36 -35 15 0 18 29 6
52 -7 13 -13 30 -14 38 0 24 -42 25 -50 1z"/>
<path d="M5173 11525 c-27 -19 -58 -86 -79 -172 -10 -37 -24 -78 -32 -91 -10
-16 -11 -26 -4 -35 8 -9 8 -33 2 -77 -5 -36 -10 -87 -10 -113 0 -41 3 -48 18
-45 12 2 19 18 25 58 25 182 21 171 79 230 64 65 98 131 98 187 0 64 -48 93
-97 58z m55 -53 c5 -34 -15 -83 -53 -131 -34 -42 -47 -42 -24 1 7 13 8 23 1
30 -7 7 -6 24 4 51 25 71 65 98 72 49z"/>
<path d="M8204 11526 c-9 -25 0 -61 16 -61 10 0 16 12 18 38 2 28 0 37 -13 37
-8 0 -18 -6 -21 -14z"/>
<path d="M2815 11500 c-3 -6 -10 -49 -15 -98 -6 -48 -19 -142 -30 -210 -11
-68 -18 -128 -15 -133 14 -21 35 -6 63 44 35 61 79 117 94 117 13 0 4 -56 -19
-123 -13 -35 -14 -50 -5 -59 20 -20 37 7 57 85 20 81 16 121 -15 137 -17 9
-28 4 -71 -37 -52 -48 -52 -48 -46 -18 17 84 39 276 34 290 -7 17 -23 20 -32
5z"/>
<path d="M3518 11483 c0 -4 -2 -12 -3 -18 -7 -49 -20 -102 -41 -168 -46 -147
-25 -220 41 -142 32 38 32 39 44 17 9 -17 21 -22 54 -22 46 0 84 20 73 38 -4
7 -23 9 -51 5 -49 -6 -54 1 -35 52 8 21 7 27 -7 32 -11 4 -30 -8 -59 -40 -24
-25 -44 -43 -44 -39 0 4 14 54 31 112 37 128 41 173 17 178 -10 2 -19 0 -20
-5z"/>
<path d="M4450 11423 c-57 -43 -100 -86 -100 -100 0 -7 25 -25 57 -38 59 -27
63 -39 10 -40 -25 0 -32 -4 -32 -20 0 -17 6 -20 43 -19 84 2 97 66 21 105
l-41 20 23 26 c13 14 37 31 52 40 17 8 27 21 25 30 -5 26 -20 25 -58 -4z"/>
<path d="M3165 11390 c-6 -10 19 -65 34 -74 19 -12 28 19 15 52 -14 31 -37 42
-49 22z"/>
<path d="M2403 11357 c-36 -20 -154 -139 -150 -151 2 -6 18 -12 37 -14 28 -3
32 -1 28 16 -6 20 12 40 81 97 l24 20 -8 -25 c-4 -14 -26 -63 -48 -110 -82
-177 -92 -210 -63 -210 8 0 49 34 92 75 44 41 82 75 87 75 4 0 7 -21 7 -48 0
-53 21 -92 51 -92 27 0 99 68 120 115 32 70 21 155 -21 155 -21 0 -27 -24 -10
-35 16 -10 11 -68 -9 -108 -17 -33 -65 -82 -81 -82 -3 0 -8 28 -11 63 -3 35
-11 68 -17 74 -16 16 -51 -2 -109 -54 -26 -24 -44 -38 -41 -33 13 23 76 163
93 207 26 71 5 97 -52 65z"/>
<path d="M4186 11308 c-11 -34 -14 -95 -7 -107 16 -26 41 -4 41 36 0 21 3 48
6 61 5 18 2 22 -15 22 -12 0 -23 -6 -25 -12z"/>
<path d="M3039 11233 c-34 -87 -59 -162 -59 -175 0 -9 6 -20 13 -26 17 -14 42
1 34 21 -3 8 8 50 24 94 45 115 44 113 20 113 -14 0 -25 -9 -32 -27z"/>
<path d="M3223 11223 c-43 -46 -74 -113 -62 -135 14 -25 27 -23 95 18 69 41
104 72 104 91 0 21 -17 15 -81 -28 -33 -23 -62 -40 -64 -37 -4 4 15 35 47 80
10 13 10 20 1 29 -9 9 -19 5 -40 -18z"/>
<path d="M5448 10373 c-34 -37 -114 -163 -139 -219 -26 -57 -36 -159 -17 -170
7 -5 18 -9 23 -9 6 -1 30 -7 54 -14 39 -11 49 -10 83 5 57 26 101 79 93 113
-17 68 -58 76 -152 31 -75 -35 -77 -29 -30 62 50 96 117 182 130 169 27 -27
56 4 37 40 -15 27 -52 24 -82 -8z m52 -288 c11 -13 8 -20 -15 -45 -35 -37 -71
-49 -112 -38 -50 13 -41 35 30 68 71 34 80 36 97 15z"/>
<path d="M3183 10338 c-50 -24 -60 -58 -18 -58 14 0 25 4 25 8 0 25 121 45
135 23 8 -14 -51 -56 -119 -86 -33 -15 -56 -31 -53 -38 5 -17 47 -37 78 -37
15 0 43 -7 63 -15 31 -13 36 -20 36 -49 0 -33 -36 -99 -68 -123 -25 -20 -86
-16 -107 7 -17 19 -17 21 -1 39 19 21 14 41 -9 41 -17 0 -45 -39 -45 -63 0
-10 13 -32 29 -48 47 -47 136 -40 183 15 59 67 76 159 37 195 -12 11 -41 25
-64 32 l-44 13 42 24 c87 49 110 95 65 126 -32 22 -114 19 -165 -6z"/>
<path d="M4175 10335 c-22 -8 -41 -15 -41 -15 -10 -1 -12 -36 -3 -46 9 -11 16
-9 39 8 17 12 50 23 81 26 l53 5 -25 -31 c-13 -16 -50 -51 -82 -77 -32 -26
-56 -52 -54 -58 2 -8 24 -11 60 -9 98 6 170 -34 131 -73 -40 -39 -113 -60
-179 -51 -32 5 -42 11 -41 24 1 23 -34 22 -48 -1 -24 -40 75 -77 166 -63 68
11 158 69 158 102 0 47 -71 104 -130 104 -21 0 -18 6 29 55 41 43 52 61 49 83
-3 26 -6 27 -63 29 -34 2 -78 -4 -100 -12z"/>
<path d="M3677 10314 c-4 -4 -7 -34 -7 -66 0 -53 -2 -58 -22 -58 -33 0 -52
-15 -44 -35 4 -13 13 -15 36 -10 l30 7 0 -75 c0 -53 4 -78 15 -87 26 -22 33
-2 28 80 l-6 80 70 0 c74 0 85 4 76 26 -4 10 -24 14 -75 14 l-70 0 3 62 c3 50
1 63 -11 66 -9 1 -19 0 -23 -4z"/>
<path d="M4890 10275 c-19 -7 -50 -14 -68 -14 -20 -1 -35 -7 -39 -17 -10 -26
10 -33 62 -22 28 6 66 11 85 10 36 -1 68 27 55 48 -8 14 -53 11 -95 -5z"/>
<path d="M4949 10165 c-3 -3 -48 -8 -99 -10 -51 -3 -95 -7 -98 -10 -2 -2 -2
-12 2 -21 6 -15 18 -16 104 -10 120 8 144 14 140 35 -3 16 -38 27 -49 16z"/>
<path d="M5485 9381 c-35 -21 -85 -77 -85 -95 0 -22 30 -54 76 -81 l46 -27
-20 -21 c-51 -57 -53 -88 -8 -133 47 -47 87 -46 132 2 44 46 45 81 2 130 -28
32 -30 38 -16 48 9 6 37 26 62 44 26 17 49 39 52 47 15 37 -43 57 -101 35 -36
-14 -26 -35 14 -33 18 0 31 0 29 -2 -14 -13 -114 -85 -118 -85 -17 0 -100 62
-100 74 0 8 16 28 37 46 l36 32 17 -22 c15 -19 18 -20 29 -6 11 13 11 20 -3
41 -20 30 -40 31 -81 6z m135 -290 c0 -21 -40 -61 -62 -61 -19 0 -58 33 -58
50 0 5 14 25 31 45 l32 36 28 -27 c16 -15 29 -34 29 -43z"/>
<path d="M4337 9343 c-6 -28 -84 -114 -190 -210 -33 -30 -57 -60 -57 -71 0
-19 5 -20 120 -15 l120 6 -6 -74 c-7 -81 5 -107 45 -94 29 9 35 36 10 42 -18
5 -20 11 -15 42 3 20 6 43 6 52 0 9 9 19 20 22 23 6 27 37 5 37 -11 0 -15 13
-15 54 0 68 -17 118 -39 114 -19 -4 -27 -46 -12 -61 6 -6 11 -29 11 -52 l0
-41 -89 0 -89 -1 109 106 c94 92 109 111 109 139 0 42 -35 46 -43 5z"/>
<path d="M4895 9230 c-38 -10 -82 -21 -97 -24 -19 -4 -28 -13 -28 -26 0 -11 3
-20 8 -20 4 0 60 12 125 27 89 21 117 32 115 43 -4 21 -42 21 -123 0z"/>
<path d="M2991 9229 c-37 -15 -121 -81 -121 -95 0 -28 22 -23 71 16 28 22 55
40 59 40 5 0 15 3 24 6 13 5 16 -1 16 -29 0 -49 -71 -143 -154 -202 -42 -30
-66 -54 -66 -66 0 -10 6 -19 13 -20 88 -6 250 28 255 54 4 21 -19 22 -108 2
-36 -8 -67 -14 -70 -15 -3 0 27 34 68 75 76 78 104 127 104 182 0 58 -32 76
-91 52z"/>
<path d="M3725 9210 c-4 -6 -3 -36 1 -66 7 -62 0 -74 -47 -74 -34 0 -55 -23
-35 -39 7 -6 20 -9 27 -7 8 2 27 7 43 11 l29 6 -6 -60 c-5 -63 3 -82 28 -61
10 8 15 32 15 71 l0 58 53 3 c38 2 52 7 52 18 0 11 -14 16 -57 18 -56 3 -58 4
-58 30 0 79 -24 126 -45 92z"/>
<path d="M3197 9173 c-16 -15 -5 -35 23 -45 41 -14 51 -36 35 -74 -18 -42 -52
-66 -77 -53 -14 7 -20 6 -24 -6 -8 -19 13 -45 34 -45 28 0 81 44 104 86 19 36
20 45 9 71 -7 17 -29 40 -50 51 -43 24 -45 25 -54 15z"/>
<path d="M3357 9174 c-4 -4 -7 -15 -7 -25 0 -9 -16 -51 -36 -92 -37 -79 -41
-120 -11 -125 25 -5 157 47 157 62 0 25 -13 25 -76 1 l-63 -24 9 24 c5 13 21
47 35 75 14 28 25 63 23 78 -3 26 -18 38 -31 26z"/>
<path d="M4900 9144 c-88 -15 -124 -34 -103 -55 9 -9 20 -9 43 0 18 6 62 14
98 17 79 8 103 21 76 41 -10 7 -20 13 -23 12 -3 -1 -44 -7 -91 -15z"/>
<path d="M4212 8638 c-11 -24 -47 -70 -81 -103 -68 -66 -75 -85 -32 -85 15 0
49 -3 75 -6 l46 -7 0 -59 c0 -91 40 -162 72 -130 9 9 6 17 -8 33 -14 15 -20
40 -22 93 l-4 73 31 6 c23 5 31 12 31 28 0 18 -4 20 -31 14 -27 -6 -30 -5 -25
11 3 11 8 33 12 49 4 17 11 36 17 43 11 13 -9 45 -23 37 -5 -3 -10 5 -12 17
-5 37 -26 31 -46 -14z m16 -107 c-12 -52 -23 -60 -62 -45 -12 5 -7 16 26 55
23 26 44 47 45 45 2 -2 -2 -26 -9 -55z"/>
<path d="M5779 8643 c-1 -5 -2 -46 -3 -92 l-1 -84 -64 -24 c-42 -16 -60 -19
-53 -10 22 26 71 157 65 173 -10 27 -35 10 -48 -31 -6 -22 -28 -74 -48 -115
-31 -62 -35 -76 -24 -88 12 -11 19 -11 48 1 94 40 120 50 125 44 3 -3 10 -23
14 -44 14 -62 39 -113 55 -113 19 0 19 29 1 77 -24 63 -27 92 -14 114 10 17
10 23 1 26 -9 3 -13 25 -13 63 0 62 -13 110 -30 110 -5 0 -11 -3 -11 -7z"/>
<path d="M3690 8571 c-73 -14 -85 -19 -85 -36 0 -24 -4 -24 128 0 84 15 107
23 105 35 -4 21 -46 21 -148 1z"/>
<path d="M5405 8458 c-22 -5 -56 -7 -75 -4 -41 6 -65 -6 -57 -27 8 -21 68 -25
147 -9 73 15 75 16 67 37 -7 17 -23 18 -82 3z"/>
<path d="M6045 8170 c-150 -25 -505 -81 -530 -84 -25 -3 -93 -35 -101 -48 -15
-23 15 -31 58 -15 78 29 633 122 661 111 8 -3 34 0 57 6 30 8 40 16 38 28 -4
24 -50 24 -183 2z"/>
<path d="M4340 8129 c-25 -5 -76 -16 -115 -24 -73 -16 -228 -43 -400 -71 -95
-16 -225 -21 -289 -13 -17 2 -31 -1 -33 -8 -6 -17 62 -43 113 -43 52 0 230 24
374 51 58 10 168 31 245 45 158 29 188 39 182 57 -5 16 -22 17 -77 6z"/>
<path d="M5425 7531 c-3 -11 -8 -30 -10 -43 -8 -45 -95 -204 -140 -255 -70
-80 -62 -91 46 -62 120 32 113 35 119 -46 4 -53 9 -70 20 -70 12 0 15 16 15
80 0 67 3 83 19 96 20 17 15 39 -10 39 -10 0 -14 15 -15 58 -1 31 -4 68 -6 82
-5 25 -5 61 0 110 3 31 -28 40 -38 11z m5 -216 l0 -65 -37 -15 c-85 -36 -87
-33 -38 41 25 37 47 76 51 86 12 38 24 15 24 -47z"/>
<path d="M3455 7229 c-37 -33 -47 -77 -22 -98 17 -13 38 5 30 26 -6 15 33 63
52 63 7 0 24 -9 39 -21 31 -24 28 -31 -42 -119 -26 -32 -63 -84 -82 -117 -19
-32 -47 -73 -62 -91 -32 -37 -35 -50 -13 -58 10 -4 32 12 63 45 65 69 92 66
92 -9 0 -42 22 -55 51 -30 23 19 23 21 7 34 -10 7 -18 19 -18 25 0 7 -7 25
-15 41 -11 21 -23 30 -41 30 -27 0 -31 -7 104 181 30 43 28 55 -12 95 -44 44
-82 45 -131 3z"/>
<path d="M4523 7230 c-35 -16 -79 -32 -98 -36 -41 -7 -51 -19 -35 -38 13 -17
35 -12 130 29 41 18 83 35 94 39 15 5 16 9 6 21 -17 21 -26 19 -97 -15z"/>
<path d="M3680 7135 c-16 -19 -4 -35 26 -35 14 0 27 -7 30 -15 8 -20 -44 -111
-83 -145 -35 -31 -43 -60 -18 -60 39 0 145 147 145 200 0 46 -74 87 -100 55z"/>
<path d="M3832 7118 c-21 -27 -71 -136 -77 -171 -17 -88 17 -118 97 -87 67 26
92 45 85 64 -5 13 -14 12 -62 -9 -80 -36 -89 -34 -81 17 4 23 22 72 41 107 19
36 35 71 35 78 0 17 -24 17 -38 1z"/>
<path d="M4545 7110 c-16 -4 -49 -8 -71 -9 -45 -1 -79 -26 -55 -41 7 -4 21 -6
30 -5 9 2 57 9 106 16 90 12 120 23 109 40 -6 11 -76 10 -119 -1z"/>
<path d="M5537 6849 c-59 -10 -133 -25 -165 -33 -31 -8 -94 -20 -140 -25 -91
-12 -102 -15 -102 -36 0 -18 17 -23 59 -14 158 33 424 79 457 79 46 0 71 19
52 38 -15 15 -28 14 -161 -9z"/>
<path d="M3847 6644 c-153 -36 -270 -53 -397 -55 -47 -1 -91 -4 -97 -6 -15 -6
-17 -29 -5 -37 12 -7 285 12 352 24 126 24 296 64 308 73 9 7 9 13 1 23 -6 8
-14 13 -18 13 -3 -1 -68 -16 -144 -35z"/>
<path d="M5404 6569 c-54 -26 -164 -133 -164 -158 0 -28 22 -38 34 -16 33 56
148 157 163 142 14 -14 -131 -260 -178 -303 -23 -21 -25 -42 -3 -51 9 -3 21 2
29 14 8 11 62 42 122 68 130 59 137 63 122 81 -12 14 -16 13 -113 -31 l-58
-26 24 43 c106 183 122 230 89 247 -25 14 -19 15 -67 -10z"/>
<path d="M3603 6379 c-32 -16 -67 -39 -77 -49 -34 -33 6 -37 59 -6 32 19 45
23 45 13 0 -19 -53 -92 -108 -149 -55 -57 -53 -82 5 -73 84 14 269 58 277 66
6 6 6 13 -2 21 -11 11 -105 -6 -225 -39 -13 -3 -4 15 29 59 52 70 74 115 74
152 0 38 -13 39 -77 5z"/>
<path d="M3932 5633 c-20 -21 -48 -56 -64 -77 -22 -31 -28 -35 -28 -19 0 33
-32 63 -74 70 -33 5 -38 4 -35 -12 4 -18 18 -29 53 -39 29 -10 14 -84 -36
-185 -35 -71 -43 -81 -49 -62 -10 26 -36 27 -44 2 -7 -22 12 -58 34 -66 16 -6
58 29 67 58 5 17 8 16 24 -11 19 -31 64 -52 110 -52 41 0 130 48 130 71 0 25
-5 24 -65 -7 -77 -39 -145 -22 -145 36 0 46 77 183 140 251 33 35 57 67 54 71
-11 17 -38 6 -72 -29z"/>
<path d="M5095 5646 c-41 -18 -79 -61 -72 -80 9 -23 22 -20 55 14 17 17 40 30
53 30 20 0 21 -4 17 -45 -3 -25 -27 -88 -53 -140 -38 -78 -53 -98 -81 -111
-43 -20 -102 -86 -133 -148 -25 -51 -19 -73 17 -62 20 7 91 78 128 130 l21 29
-1 -74 c0 -113 29 -145 111 -119 98 31 194 125 197 193 1 42 -29 50 -37 10
-13 -65 -90 -140 -170 -165 -26 -8 -41 -8 -48 -1 -6 6 -12 55 -13 109 -2 94 0
102 30 159 77 143 96 233 54 267 -26 21 -35 22 -75 4z"/>
<path d="M4425 5493 c-77 -16 -95 -27 -78 -44 9 -9 35 -7 102 6 76 15 91 21
91 36 0 23 -16 23 -115 2z"/>
<path d="M4536 5373 c-4 -4 -41 -10 -84 -13 -59 -4 -77 -8 -77 -20 0 -11 15
-16 60 -18 74 -4 135 14 135 40 0 18 -20 25 -34 11z"/>
</g>
</svg>
